<?xml version='1.0' ?><svg xmlns:ns0="http://www.iki.fi/pav/software/textext/" xmlns:dc="http://purl.org/dc/elements/1.1/" xmlns:cc="http://creativecommons.org/ns#" xmlns:rdf="http://www.w3.org/1999/02/22-rdf-syntax-ns#" xmlns:svg="http://www.w3.org/2000/svg" xmlns="http://www.w3.org/2000/svg" id="svg2" version="1.1" width="421.5385" height="324.03094" viewBox="56.87279117997966 29.22579238758259 107.21432607414741 82.4142014531828" preserveAspectRatio="none">
  <metadata id="metadata76">
    <rdf:RDF>
      <cc:Work rdf:about="">
        <dc:format>image/svg+xml</dc:format>
        <dc:type rdf:resource="http://purl.org/dc/dcmitype/StillImage" />
        <dc:title />
      </cc:Work>
    </rdf:RDF>
  </metadata>
  <defs id="defs74">
    <clipPath id="clip1">
      <path d="m 0,0 0,437 545,0 0,-437 z" id="path9" />
    </clipPath>
    <clipPath id="clip2">
      <path d="m 0,0 0,437 545,0 0,-437 z" id="path18" />
    </clipPath>
    <clipPath id="clip3">
      <path d="m 0,0 0,437 545,0 0,-437 z" id="path27" />
    </clipPath>
    <clipPath id="clip4">
      <path d="m 0,0 0,437 545,0 0,-437 z" id="path36" />
    </clipPath>
    <clipPath id="clip6">
      <path id="path60" d="m 0,0 0,437 545,0 0,-437 z" />
    </clipPath>
  </defs>
  <a style="fill:#b3b3b3;fill-opacity:1;stroke:none" id="a4261">
    <path id="path4259" d="m 65.287877,74.735946 0.372849,-0.638203 m 0,0 0.777849,-1.377403 0.777667,-1.371923 m 0,0 0.777849,-1.36827 0.77785,-1.357309 0.777849,-1.348175 0.777849,-1.335387 0.77785,-1.318946 0.777667,-1.302505 0.777849,-1.28241 0.748969,-1.204557 c 0.339635,-0.519459 0.80673,-1.296326 0.80673,-1.296326 l 0.777849,-1.212992 0.777667,-1.18559 0.777849,-1.156361 0.77785,-1.125306 0.777849,-1.092424 0.777849,-1.057714 0.778215,-1.021179 0.778215,-0.982815 0.776388,-0.942627 0.778215,-0.902802 0.778214,-0.859507 0.778215,-0.815299 0.776388,-0.770177 0.742115,-0.687312 0.720456,-0.610568 0.872073,-0.727853 0.778215,-0.576902 0.776388,-0.526117 0.778215,-0.474419 0.778215,-0.421989 0.778214,-0.36883 0.776388,-0.315122 0.778215,-0.261049 0.778215,-0.206246 0.778215,-0.151258 0.778214,-0.09609 0.776388,-0.04092 0.778215,0.0148 0.778215,0.07015 0.778215,0.125318 0.778214,0.180488 0.776388,0.235291 0.778215,0.28973 0.778215,0.34362 0.77821,0.397145 0.77639,0.449757 0.77822,0.502003 0.77821,0.553154 0.77822,0.60339 0.77821,0.652714 0.77639,0.701124 0.77821,0.748256 0.77822,0.79429 0.77821,0.838865 0.77639,0.883072 0.77822,0.922532 0.74758,0.964548 0.80885,1.004737 0.77821,1.039447 0.77639,1.075982 0.77821,1.110691 0.77822,1.141747 0.77821,1.172803 0.77639,1.200204 0.77822,1.22578 0.77821,1.251355 0.77822,1.273276 0.77821,1.293371 0.77639,1.313466 0.77821,1.32808 0.77822,1.340868 0.77821,1.353655 0.77639,1.362789 0.77821,1.371923 0.77822,1.375577 0.77821,1.377404 0.77822,1.37923 0.77639,1.37923 0.77821,1.37375 0.77822,1.36827 0.77821,1.359136 0.77822,1.350001 0.77638,1.337214 0.77822,1.3226 0.77821,1.306159 0.77822,1.286063 0.77639,1.265969 0.77821,1.242221 0.8564,1.503991 -70.733499,0.20631 0.160136,-17.564086" style="fill:#b3b3b3;fill-opacity:1;stroke:none;stroke-width:0.36535904;stroke-linecap:round;stroke-linejoin:round;stroke-miterlimit:10;stroke-dasharray:none;stroke-dashoffset:0;stroke-opacity:1" />
  </a>
  <g transform="matrix(0.18480889,0,0,0.18480889,60.947091,30.878515)" clip-path="url(#clip1)" id="g11" style="stroke-width:1;stroke-linecap:square;stroke-linejoin:miter;stroke-miterlimit:10;stroke-dasharray:none;stroke-dashoffset:0">
    <g id="g13" style="fill:none;stroke:#000000;stroke-width:1.97695589;stroke-linecap:butt;stroke-opacity:1">
      <path d="m 21.941,3 0,434" id="path15" style="stroke-width:1.97695589" />
    </g>
  </g>
  <g transform="matrix(0.18267952,0,0,0.18267952,60.993812,30.34231)" clip-path="url(#clip2)" id="g20" style="stroke-width:1;stroke-linecap:square;stroke-linejoin:miter;stroke-miterlimit:10;stroke-dasharray:none;stroke-dashoffset:0">
    <g id="g22" style="fill:#000000;fill-opacity:1;fill-rule:evenodd;stroke:none">
      <path d="m 21.941,2 -5,20 10,0" id="path24" />
    </g>
  </g>
  <g transform="matrix(0.18267952,0,0,0.18267952,60.993812,30.884903)" clip-path="url(#clip3)" id="g29" style="stroke-width:1;stroke-linecap:square;stroke-linejoin:miter;stroke-miterlimit:10;stroke-dasharray:none;stroke-dashoffset:0">
    <g id="g31" style="fill:none;stroke:#000000;stroke-width:2;stroke-linecap:butt;stroke-opacity:1">
      <path d="m 0,242.95 542,0" id="path33" />
    </g>
  </g>
  <g transform="matrix(0.18267952,0,0,0.18267952,61.536405,30.884903)" clip-path="url(#clip4)" id="g38" style="stroke-width:1;stroke-linecap:square;stroke-linejoin:miter;stroke-miterlimit:10;stroke-dasharray:none;stroke-dashoffset:0">
    <g id="g40" style="fill:#000000;fill-opacity:1;fill-rule:evenodd;stroke:none">
      <path d="m 543,242.95 -20,-5 0,10" id="path42" />
    </g>
  </g>
  <g transform="matrix(0.18267952,0,0,0.18267952,60.993812,30.884903)" id="misc" style="stroke-width:1;stroke-linecap:square;stroke-linejoin:miter;stroke-miterlimit:10;stroke-dasharray:none;stroke-dashoffset:0" />
  <path id="path53" d="m 65.001983,75.266892 0.658743,-1.169149 m 0,0 0.777849,-1.377403 0.777667,-1.371923 m 0,0 0.777849,-1.36827 0.77785,-1.357309 0.777849,-1.348175 0.777849,-1.335387 0.77785,-1.318946 0.777667,-1.302505 0.777849,-1.28241 0.777849,-1.262316 m 0,0 0.77785,-1.238567 0.777849,-1.212992 0.777667,-1.18559 0.777849,-1.156361 0.77785,-1.125306 0.777849,-1.092424 0.777849,-1.057714 0.778215,-1.021179 0.778215,-0.982815 0.776388,-0.942627 0.778215,-0.902802 0.778214,-0.859507 0.778215,-0.815299 0.776388,-0.770177 0.778215,-0.723411 0.778215,-0.675548 m 0,0 0.778214,-0.626774 0.778215,-0.576902 0.776388,-0.526117 0.778215,-0.474419 0.778215,-0.421989 0.778214,-0.36883 0.776388,-0.315122 0.778215,-0.261049 0.778215,-0.206246 0.778215,-0.151258 0.778214,-0.09609 0.776388,-0.04092 0.778215,0.0148 0.778215,0.07015 0.778215,0.125318 0.778214,0.180488 0.776388,0.235291 0.778215,0.28973 0.778215,0.34362 0.77821,0.397145 0.77639,0.449757 0.77822,0.502003 0.77821,0.553154 0.77822,0.60339 0.77821,0.652714 0.77639,0.701124 0.77821,0.748256 0.77822,0.79429 0.77821,0.838865 0.77639,0.883072 0.77822,0.922532 0.77821,0.964548 m 0,0 0.77822,1.004737 0.77821,1.039447 0.77639,1.075982 0.77821,1.110691 0.77822,1.141747 0.77821,1.172803 0.77639,1.200204 0.77822,1.22578 0.77821,1.251355 0.77822,1.273276 0.77821,1.293371 0.77639,1.313466 0.77821,1.32808 0.77822,1.340868 0.77821,1.353655 0.77639,1.362789 0.77821,1.371923 0.77822,1.375577 0.77821,1.377404 0.77822,1.37923 0.77639,1.37923 0.77821,1.37375 0.77822,1.36827 0.77821,1.359136 0.77822,1.350001 0.77638,1.337214 0.77822,1.3226 0.77821,1.306159 0.77822,1.286063 0.77639,1.265969 0.77821,1.242221 0.77822,1.216646 0.77821,1.19107 0.77822,1.160015 0.77638,1.130786 0.77822,1.097904 0.77821,1.063195 0.77822,1.026659 0.77639,0.990123 0.77821,0.949933 0.77822,0.90974 0.77821,0.8659 0.77821,0.82206 0.77639,0.77821 0.77822,0.73072 0.77821,0.68322 0.77822,0.63573 0.77821,0.58457 0.77639,0.53525 0.77821,0.48228 0.77822,0.43112 0.77821,0.37815 0.77639,0.32334 0.77822,0.27037 0.77821,0.21373 0.77822,0.16076 0.77821,0.10595 0.77639,0.0493 0.77821,-0.005 0.77822,-0.0603 0.77821,-0.11691 0.77639,-0.17172 0.77822,-0.22652 0.77821,-0.28133" style="fill:none;stroke:#006400;stroke-width:0.36535904;stroke-linecap:round;stroke-linejoin:round;stroke-miterlimit:10;stroke-dasharray:none;stroke-dashoffset:0;stroke-opacity:1" />
  <g transform="matrix(0.18267952,0,0,0.18267952,60.993812,30.884903)" id="g62" clip-path="url(#clip6)" style="stroke-width:1;stroke-linecap:square;stroke-linejoin:miter;stroke-miterlimit:10;stroke-dasharray:none;stroke-dashoffset:0">
    <g style="fill:none;stroke:#000000;stroke-width:1.5;stroke-linecap:butt;stroke-linejoin:round;stroke-dasharray:9.5, 8;stroke-opacity:1" id="g64">
      <path id="path66" d="m 21.941,336.89 388.279,0" />
      <title id="title68">Segment h</title>
      <desc id="desc70">Segment h: Segment [A, B]</desc>
    </g>
  </g>
  <g ns0:preamble="/Users/prmb/CMEP/underground-inkscape-preamble.tex" ns0:text="$x$" word-spacing="normal" letter-spacing="normal" font-size-adjust="none" font-stretch="normal" font-weight="normal" font-variant="normal" font-style="normal" stroke-miterlimit="10.433" xml:space="preserve" transform="matrix(0.5,0,0,-0.5,49.362113,315.97757)" id="content" style="font-style:normal;font-variant:normal;font-weight:normal;font-stretch:normal;letter-spacing:normal;word-spacing:normal;text-anchor:start;fill:none;fill-opacity:1;fill-rule:evenodd;stroke:#000000;stroke-linecap:butt;stroke-linejoin:miter;stroke-miterlimit:10.43299961;stroke-dasharray:none;stroke-dashoffset:0;stroke-opacity:1"><path id="path4302" d="m 227.03,480.64 -0.23,0.64 c -0.15,0.39 -0.37,0.88 -0.89,1.16 l -1.56,-0.39 0.04,-0.21 c 0.12,0.05 0.29,0.07 0.45,0.07 0.65,0 0.95,-0.48 1.15,-1.05 l 0.39,-1.09 -0.76,-1.19 c -0.38,-0.58 -0.69,-0.7 -0.83,-0.7 -0.3,0 -0.25,0.24 -0.55,0.24 -0.3,0 -0.45,-0.25 -0.45,-0.44 0,-0.26 0.19,-0.55 0.61,-0.55 0.66,0 1,0.51 1.38,1.08 l 0.74,1.16 0.48,-1.33 c 0.15,-0.43 0.38,-0.91 0.86,-0.91 0.68,0 1.21,1.13 1.36,1.31 l -0.17,0.12 c -0.25,-0.51 -0.53,-0.68 -0.72,-0.68 -0.53,0 -0.8,1.6 -1.15,2.33 l 0.64,1 c 0.17,0.26 0.3,0.45 0.65,0.45 0.2,0 0.26,-0.1 0.52,-0.1 0.31,0 0.46,0.27 0.46,0.49 0,0.25 -0.2,0.39 -0.57,0.39 -0.6,0 -1.01,-0.52 -1.32,-0.99 z" style="fill:#000000;stroke-width:0" /></g>  <g id="g4380" transform="matrix(0.5,0,0,-0.5,-52.103208,270.4408)" xml:space="preserve" stroke-miterlimit="10.433" font-style="normal" font-variant="normal" font-weight="normal" font-stretch="normal" font-size-adjust="none" letter-spacing="normal" word-spacing="normal" ns0:text="$y$" ns0:preamble="/Users/prmb/CMEP/underground-inkscape-preamble.tex" style="font-style:normal;font-variant:normal;font-weight:normal;font-stretch:normal;letter-spacing:normal;word-spacing:normal;text-anchor:start;fill:none;fill-opacity:1;fill-rule:evenodd;stroke:#000000;stroke-linecap:butt;stroke-linejoin:miter;stroke-miterlimit:10.43299961;stroke-dasharray:none;stroke-dashoffset:0;stroke-opacity:1"><path d="m 226.62,480.86 -0.01,0.08 -0.01,0.08 -0.01,0.07 -0.01,0.07 -0.01,0.07 -0.01,0.07 -0.01,0.06 -0.01,0.06 -0.01,0.06 -0.01,0.05 -0.01,0.06 -0.01,0.05 -0.01,0.05 -0.01,0.04 -0.02,0.05 -0.01,0.05 -0.01,0.04 -0.02,0.04 -0.01,0.04 -0.01,0.04 -0.04,0.08 -0.03,0.07 -0.04,0.08 -0.04,0.07 -0.04,0.07 -0.05,0.07 -1.77,-0.3 0.02,-0.18 c 0.11,0.01 0.3,0.04 0.43,0.04 0.66,0 0.76,-0.71 0.82,-1.24 l 0.45,-3.7 c -0.31,-0.48 -0.98,-1.21 -1.18,-1.21 -0.19,0 -0.16,0.37 -0.67,0.37 -0.16,0 -0.47,-0.13 -0.47,-0.49 0,-0.28 0.22,-0.64 0.66,-0.64 0.8,0 1.57,1.15 2.43,2.24 0.5,0.62 2.41,3.46 2.41,4.38 0,0.46 -0.3,0.73 -0.67,0.73 -0.35,0 -0.56,-0.21 -0.56,-0.47 0,-0.45 0.61,-0.57 0.61,-0.82 0,-0.21 -0.09,-0.45 -0.33,-0.88 -0.26,-0.49 -0.67,-1.19 -1.39,-2.18 z" id="path4382" style="fill:#000000;stroke-width:0" /></g>  <g ns0:preamble="/Users/prmb/CMEP/underground-inkscape-preamble.tex" ns0:text="$\\pi$" word-spacing="normal" letter-spacing="normal" font-size-adjust="none" font-stretch="normal" font-weight="normal" font-variant="normal" font-style="normal" stroke-miterlimit="10.433" xml:space="preserve" transform="matrix(0.5,0,0,-0.5,13.511348,310.17919)" id="g4464" style="font-style:normal;font-variant:normal;font-weight:normal;font-stretch:normal;letter-spacing:normal;word-spacing:normal;text-anchor:start;fill:none;fill-opacity:1;fill-rule:evenodd;stroke:#000000;stroke-linecap:butt;stroke-linejoin:miter;stroke-miterlimit:10.43299961;stroke-dasharray:none;stroke-dashoffset:0;stroke-opacity:1"><path id="path4466" d="m 230.14,482.29 -3.33,0 c -1.23,0 -1.99,-0.55 -2.5,-1.49 l 0.18,0 c 0.52,0.63 0.96,0.63 1.65,0.63 l -1.05,-2.44 c -0.16,-0.34 -0.37,-0.68 -0.88,-0.82 -0.31,-0.09 -0.36,-0.39 -0.36,-0.57 0,-0.28 0.29,-0.52 0.6,-0.52 0.14,0 0.32,0.03 0.45,0.13 0.99,0.74 1.35,2.78 1.9,4.22 l 1.11,0 c -0.3,-1 -0.65,-1.82 -0.92,-2.66 -0.08,-0.22 -0.11,-0.46 -0.11,-0.73 0,-0.46 0.2,-0.89 0.67,-0.89 0.83,0 1.45,0.83 1.7,1.68 l -0.19,0 c -0.28,-0.64 -0.61,-0.78 -0.86,-0.78 -0.26,0 -0.45,0.3 -0.45,0.57 0,0.79 0.63,2.3 0.79,2.81 l 1.33,0 z" style="fill:#000000;stroke-width:0" /></g>  <g id="g4552" transform="matrix(0.4,0,0,-0.4,-29.284354,233.35712)" xml:space="preserve" stroke-miterlimit="10.433" font-style="normal" font-variant="normal" font-weight="normal" font-stretch="normal" font-size-adjust="none" letter-spacing="normal" word-spacing="normal" ns0:text="$1$" ns0:preamble="/Users/prmb/CMEP/underground-inkscape-preamble.tex" style="font-style:normal;font-variant:normal;font-weight:normal;font-stretch:normal;letter-spacing:normal;word-spacing:normal;text-anchor:start;fill:none;fill-opacity:1;fill-rule:evenodd;stroke:#000000;stroke-linecap:butt;stroke-linejoin:miter;stroke-miterlimit:10.43299961;stroke-dasharray:none;stroke-dashoffset:0;stroke-opacity:1"><path d="m 228.08,477.23 0,0.18 c -0.88,0 -1.12,0.21 -1.12,0.72 l 0,7.05 -0.1,0.04 -2.12,-1.08 0,-0.16 0.32,0.11 c 0.21,0.09 0.41,0.15 0.53,0.15 0.25,0 0.36,-0.18 0.36,-0.58 l 0,-5.3 c 0,-0.65 -0.25,-0.9 -1.13,-0.95 l 0,-0.18 z" id="path4554" style="fill:#000000;stroke-width:0" /></g>  <g ns0:preamble="/Users/prmb/CMEP/underground-inkscape-preamble.tex" ns0:text="$-1$" word-spacing="normal" letter-spacing="normal" font-size-adjust="none" font-stretch="normal" font-weight="normal" font-variant="normal" font-style="normal" stroke-miterlimit="10.433" xml:space="preserve" transform="matrix(0.4,0,0,-0.4,-32.294928,301.73251)" id="g4644" style="font-style:normal;font-variant:normal;font-weight:normal;font-stretch:normal;letter-spacing:normal;word-spacing:normal;text-anchor:start;fill:none;fill-opacity:1;fill-rule:evenodd;stroke:#000000;stroke-linecap:butt;stroke-linejoin:miter;stroke-miterlimit:10.43299961;stroke-dasharray:none;stroke-dashoffset:0;stroke-opacity:1"><polygon id="polygon4646" points="230.76,480.61 224.19,480.61 224.19,479.83 230.76,479.83 " style="fill:#000000;stroke-width:0" /><path id="path4648" d="m 236.2,477.23 0,0.18 c -0.89,0 -1.12,0.21 -1.12,0.72 l 0,7.05 -0.11,0.04 -2.11,-1.08 0,-0.16 0.32,0.11 c 0.21,0.09 0.41,0.15 0.53,0.15 0.25,0 0.35,-0.18 0.35,-0.58 l 0,-5.3 c 0,-0.65 -0.24,-0.9 -1.12,-0.95 l 0,-0.18 z" style="fill:#000000;stroke-width:0" /></g>  <g id="g4744" transform="matrix(0.4,0,0,-0.4,-28.505919,270.5425)" xml:space="preserve" stroke-miterlimit="10.433" font-style="normal" font-variant="normal" font-weight="normal" font-stretch="normal" font-size-adjust="none" letter-spacing="normal" word-spacing="normal" ns0:text="$0$" ns0:preamble="/Users/prmb/CMEP/underground-inkscape-preamble.tex" style="font-style:normal;font-variant:normal;font-weight:normal;font-stretch:normal;letter-spacing:normal;word-spacing:normal;text-anchor:start;fill:none;fill-opacity:1;fill-rule:evenodd;stroke:#000000;stroke-linecap:butt;stroke-linejoin:miter;stroke-miterlimit:10.43299961;stroke-dasharray:none;stroke-dashoffset:0;stroke-opacity:1"><path d="m 229.05,481.13 0,0.23 -0.01,0.22 -0.02,0.21 -0.02,0.21 -0.02,0.21 -0.04,0.2 -0.04,0.19 -0.04,0.19 -0.05,0.18 -0.05,0.18 -0.06,0.17 -0.07,0.17 -0.07,0.16 -0.07,0.15 -0.08,0.14 -0.09,0.14 -0.09,0.13 -0.09,0.13 -0.1,0.11 -0.1,0.11 -0.11,0.1 -0.11,0.1 -0.11,0.08 -0.12,0.08 -0.12,0.07 -0.12,0.06 -0.13,0.05 -0.13,0.04 -0.14,0.03 -0.13,0.03 -0.15,0.01 -0.14,0.01 c -1.9,0 -2.72,-1.93 -2.72,-4.02 0,-1.93 0.66,-4.13 2.67,-4.13 l 0,0.31 c -1.01,0 -1.53,1.34 -1.53,3.74 0,2.4 0.53,3.79 1.51,3.79 1.04,0 1.56,-1.38 1.56,-3.84 l 0,0 c 0,-2.34 -0.53,-3.69 -1.54,-3.69 l 0,-0.31 c 1.93,0 2.67,2.03 2.67,4.06 z" id="path4746" style="fill:#000000;stroke-width:0" /></g>  <g ns0:preamble="/Users/prmb/CMEP/underground-inkscape-preamble.tex" ns0:text="$-\\frac{1}{2}$" word-spacing="normal" letter-spacing="normal" font-size-adjust="none" font-stretch="normal" font-weight="normal" font-variant="normal" font-style="normal" stroke-miterlimit="10.433" xml:space="preserve" transform="matrix(0.4,0,0,-0.4,-32.803209,284.243)" id="g4846" style="font-style:normal;font-variant:normal;font-weight:normal;font-stretch:normal;letter-spacing:normal;word-spacing:normal;text-anchor:start;fill:none;fill-opacity:1;fill-rule:evenodd;stroke:#000000;stroke-linecap:butt;stroke-linejoin:miter;stroke-miterlimit:10.43299961;stroke-dasharray:none;stroke-dashoffset:0;stroke-opacity:1"><polygon id="polygon4848" points="224.19,479.01 230.76,479.01 230.76,479.79 224.19,479.79 " style="fill:#000000;stroke-width:0" /><path id="path4850" d="m 236.24,481.19 0,0.13 c -0.67,0 -0.84,0.16 -0.84,0.54 l 0,5.3 -0.08,0.02 -1.59,-0.8 0,-0.13 0.24,0.09 c 0.16,0.06 0.31,0.11 0.4,0.11 0.18,0 0.26,-0.14 0.26,-0.44 l 0,-3.98 c 0,-0.48 -0.18,-0.67 -0.84,-0.71 l 0,-0.13 z" style="fill:#000000;stroke-width:0" /><line id="line4852" y2="478.89999" x2="237.19" y1="478.89999" x1="232.74001" style="stroke-width:0.65799999" /><path id="path4854" d="m 236.95,472.84 -0.12,0.05 c -0.3,-0.49 -0.48,-0.59 -0.86,-0.59 l -2.07,0 1.46,1.56 c 0.79,0.83 1.14,1.5 1.14,2.2 0,0.88 -0.64,1.56 -1.64,1.56 -1.1,0 -1.66,-0.73 -1.85,-1.76 l 0.19,-0.05 c 0.35,0.87 0.66,1.15 1.3,1.15 0.76,0 1.24,-0.44 1.24,-1.25 0,-0.75 -0.33,-1.42 -1.16,-2.3 l -1.58,-1.68 0,-0.1 3.47,0 z" style="fill:#000000;stroke-width:0" /></g>  <path style="fill:none;fill-rule:evenodd;stroke:#000000;stroke-width:0.27129659px;stroke-linecap:butt;stroke-linejoin:miter;stroke-opacity:1" d="m 64.921446,41.000105 -1.270704,0" id="path4909" />
  <path id="path4911" d="m 64.921446,92.430921 -1.270704,0" style="fill:none;fill-rule:evenodd;stroke:#000000;stroke-width:0.27129659px;stroke-linecap:butt;stroke-linejoin:miter;stroke-opacity:1" />
  <path style="fill:none;fill-rule:evenodd;stroke:#000000;stroke-width:0.27129632px;stroke-linecap:butt;stroke-linejoin:miter;stroke-opacity:1" d="m 64.862455,109.59208 -1.211679,0" id="path4913" />
  <g style="stroke-width:1;stroke-linecap:square;stroke-linejoin:miter;stroke-miterlimit:10;stroke-dasharray:none;stroke-dashoffset:0" clip-path="url(#clip6)" id="g4186" transform="matrix(0,0.0421494,-0.0421494,0,150.26933,75.274291)">
    <g id="g4188" style="fill:none;stroke:#000000;stroke-width:6.50114298;stroke-linecap:butt;stroke-linejoin:round;stroke-dasharray:41.17390604, 34.67276298;stroke-opacity:1">
      <path d="m 21.941,336.89 388.279,0" id="path4190" style="stroke-width:6.50114298" />
      <title id="title4192">Segment h</title>
      <desc id="desc4194">Segment h: Segment [A, B]</desc>
    </g>
  </g>
  <path style="fill:none;fill-rule:evenodd;stroke:#000000;stroke-width:0.27129659px;stroke-linecap:butt;stroke-linejoin:miter;stroke-opacity:1" d="m 125.79413,75.384593 0,-1.2707" id="path4196" />
  <path id="path4198" d="m 136.0464,75.413473 0,-1.2707" style="fill:none;fill-rule:evenodd;stroke:#000000;stroke-width:0.27129659px;stroke-linecap:butt;stroke-linejoin:miter;stroke-opacity:1" />
  <g style="font-style:normal;font-variant:normal;font-weight:normal;font-stretch:normal;letter-spacing:normal;word-spacing:normal;text-anchor:start;fill:none;fill-opacity:1;fill-rule:evenodd;stroke:#000000;stroke-linecap:butt;stroke-linejoin:miter;stroke-miterlimit:10.43299961;stroke-dasharray:none;stroke-dashoffset:0;stroke-opacity:1" id="g4265" transform="matrix(0.3939862,0,0,-0.3939862,45.666378,259.00245)" xml:space="preserve" stroke-miterlimit="10.433" font-style="normal" font-variant="normal" font-weight="normal" font-stretch="normal" font-size-adjust="none" letter-spacing="normal" word-spacing="normal" ns0:text="$\\frac{7\\pi}{6}$" ns0:preamble="/Users/prmb/CMEP/underground-inkscape-preamble.tex"><path style="fill:#000000;stroke-width:0" d="m 228.61,487.04 0,0.14 -3.27,0 -0.53,-1.3 0.15,-0.08 c 0.38,0.6 0.53,0.73 1.04,0.73 l 1.91,0 -1.76,-5.29 0.58,0 z" id="path4267" /><path style="fill:#000000;stroke-width:0" d="m 234.11,485.11 -2.5,0 c -0.92,0 -1.49,-0.41 -1.88,-1.12 l 0.14,0 c 0.39,0.47 0.72,0.47 1.23,0.47 l -0.79,-1.82 c -0.11,-0.26 -0.27,-0.52 -0.65,-0.62 -0.23,-0.07 -0.28,-0.3 -0.28,-0.43 0,-0.21 0.22,-0.39 0.45,-0.39 0.11,0 0.24,0.02 0.34,0.1 0.75,0.56 1.02,2.08 1.43,3.16 l 0.84,0 c -0.23,-0.74 -0.49,-1.36 -0.7,-1.99 -0.05,-0.17 -0.08,-0.35 -0.08,-0.55 0,-0.35 0.15,-0.67 0.51,-0.67 0.62,0 1.09,0.62 1.28,1.26 l -0.14,0 c -0.22,-0.48 -0.47,-0.58 -0.65,-0.58 -0.2,0 -0.34,0.22 -0.34,0.42 0,0.6 0.47,1.73 0.59,2.11 l 1,0 z" id="path4269" /><line style="stroke-width:0.65799999" x1="224.63" y1="479.01999" x2="234.03" y2="479.01999" id="line4271" /><path style="fill:#000000;stroke-width:0" d="m 231.07,477.82 -0.12,-0.02 -0.11,-0.01 -0.1,-0.01 -0.11,-0.02 -0.1,-0.02 -0.1,-0.01 -0.1,-0.02 -0.09,-0.02 -0.1,-0.02 -0.09,-0.02 -0.09,-0.02 -0.08,-0.02 -0.09,-0.03 -0.08,-0.03 -0.08,-0.03 -0.08,-0.03 -0.08,-0.03 -0.08,-0.04 -0.07,-0.03 -0.08,-0.04 -0.07,-0.04 -0.08,-0.05 -0.07,-0.04 -0.07,-0.05 -0.08,-0.05 -0.07,-0.06 -0.07,-0.06 -0.07,-0.06 -0.07,-0.06 -0.07,-0.07 -0.07,-0.06 -0.07,-0.08 c -0.63,-0.65 -0.97,-1.49 -0.97,-2.44 0,-0.62 0.17,-1.25 0.42,-1.71 0.31,-0.56 0.87,-0.89 1.57,-0.89 l 0.09,0.25 c -0.83,0 -1.26,0.88 -1.26,2.23 0,0.81 0.53,1.03 1.03,1.03 0.83,0 1.2,-0.59 1.2,-1.72 l 0,0 c 0,-0.91 -0.33,-1.54 -0.97,-1.54 l -0.09,-0.25 c 0.58,0 1.08,0.24 1.41,0.64 0.29,0.36 0.45,0.86 0.45,1.42 0,1.15 -0.64,1.86 -1.68,1.86 -0.39,0 -0.69,-0.07 -1.12,-0.4 0.24,1.33 1.23,2.29 2.62,2.52 z" id="path4273" /></g></svg>