<?xml version='1.0' ?><svg xmlns:ns0="http://www.iki.fi/pav/software/textext/" xmlns:dc="http://purl.org/dc/elements/1.1/" xmlns:cc="http://creativecommons.org/ns#" xmlns:rdf="http://www.w3.org/1999/02/22-rdf-syntax-ns#" xmlns:svg="http://www.w3.org/2000/svg" xmlns="http://www.w3.org/2000/svg" id="svg2" version="1.1" width="337.75581" height="262.57455" viewBox="55.486569155588334 46.86952730435334 85.90499218168158 66.78335056577875" preserveAspectRatio="none">
  <metadata id="metadata76">
    <rdf:RDF>
      <cc:Work rdf:about="">
        <dc:format>image/svg+xml</dc:format>
        <dc:type rdf:resource="http://purl.org/dc/dcmitype/StillImage" />
        <dc:title />
      </cc:Work>
    </rdf:RDF>
  </metadata>
  <defs id="defs74">
    <clipPath id="clip1">
      <path d="m 0,0 0,437 545,0 0,-437 z" id="path9" />
    </clipPath>
    <clipPath id="clip2">
      <path d="m 0,0 0,437 545,0 0,-437 z" id="path18" />
    </clipPath>
    <clipPath id="clip3">
      <path d="m 0,0 0,437 545,0 0,-437 z" id="path27" />
    </clipPath>
    <clipPath id="clip4">
      <path d="m 0,0 0,437 545,0 0,-437 z" id="path36" />
    </clipPath>
  </defs>
  <a transform="matrix(0.79101804,0,0,0.79101804,11.595691,23.751401)" style="fill:#b3b3b3;fill-opacity:1;stroke:none" id="a4261">
    <path id="path4259" d="m 65.287877,74.735946 0.372849,-0.638203 m 0,0 0.777849,-1.377403 0.777667,-1.371923 m 0,0 0.777849,-1.36827 0.77785,-1.357309 0.777849,-1.348175 0.777849,-1.335387 0.77785,-1.318946 0.777667,-1.302505 0.777849,-1.28241 0.748969,-1.204557 c 0.339635,-0.519459 0.80673,-1.296326 0.80673,-1.296326 l 0.777849,-1.212992 0.777667,-1.18559 0.777849,-1.156361 0.77785,-1.125306 0.777849,-1.092424 0.777849,-1.057714 0.778215,-1.021179 0.778215,-0.982815 0.776388,-0.942627 0.778215,-0.902802 0.778214,-0.859507 0.778215,-0.815299 0.776388,-0.770177 0.742115,-0.687312 0.720456,-0.610568 0.872073,-0.727853 0.778215,-0.576902 0.776388,-0.526117 0.778215,-0.474419 0.778215,-0.421989 0.778214,-0.36883 0.776388,-0.315122 0.778215,-0.261049 0.778215,-0.206246 0.778215,-0.151258 0.778214,-0.09609 0.776388,-0.04092 0.778215,0.0148 0.778215,0.07015 0.778215,0.125318 0.778214,0.180488 0.776388,0.235291 0.778215,0.28973 0.778215,0.34362 0.77821,0.397145 0.77639,0.449757 0.77822,0.502003 0.77821,0.553154 0.77822,0.60339 0.77821,0.652714 0.77639,0.701124 0.77821,0.748256 0.77822,0.79429 0.77821,0.838865 0.77639,0.883072 0.77822,0.922532 0.74758,0.964548 0.80885,1.004737 0.77821,1.039447 0.77639,1.075982 0.77821,1.110691 0.77822,1.141747 0.77821,1.172803 0.77639,1.200204 0.77822,1.22578 0.77821,1.251355 0.77822,1.273276 0.77821,1.293371 0.77639,1.313466 0.77821,1.32808 0.77822,1.340868 0.77821,1.353655 0.77639,1.362789 0.77821,1.371923 0.77822,1.375577 0.77821,1.377404 0.77822,1.37923 0.77639,1.37923 0.77821,1.37375 0.77822,1.36827 0.77821,1.359136 0.77822,1.350001 0.77638,1.337214 0.77822,1.3226 0.77821,1.306159 0.77822,1.286063 0.77639,1.265969 0.77821,1.242221 0.8564,1.503991 -70.733499,0.20631 0.160136,-17.564086" style="fill:#b3b3b3;fill-opacity:1;stroke:none;stroke-width:0.36535904;stroke-linecap:round;stroke-linejoin:round;stroke-miterlimit:10;stroke-dasharray:none;stroke-dashoffset:0;stroke-opacity:1" />
  </a>
  <g transform="matrix(0.14618717,0,0,0.14618717,59.80594,48.176863)" clip-path="url(#clip1)" id="g11" style="stroke-width:1;stroke-linecap:square;stroke-linejoin:miter;stroke-miterlimit:10;stroke-dasharray:none;stroke-dashoffset:0">
    <g id="g13" style="fill:none;stroke:#000000;stroke-width:1.97695589;stroke-linecap:butt;stroke-opacity:1">
      <path d="m 21.941,3 0,434" id="path15" style="stroke-width:1.97695589" />
    </g>
  </g>
  <g transform="matrix(0.1445028,0,0,0.1445028,59.842897,47.752715)" clip-path="url(#clip2)" id="g20" style="stroke-width:1;stroke-linecap:square;stroke-linejoin:miter;stroke-miterlimit:10;stroke-dasharray:none;stroke-dashoffset:0">
    <g id="g22" style="fill:#000000;fill-opacity:1;fill-rule:evenodd;stroke:none">
      <path d="m 21.941,2 -5,20 10,0" id="path24" />
    </g>
  </g>
  <g transform="matrix(0.1445028,0,0,0.1445028,59.842897,61.715586)" clip-path="url(#clip3)" id="g29" style="stroke-width:1;stroke-linecap:square;stroke-linejoin:miter;stroke-miterlimit:10;stroke-dasharray:none;stroke-dashoffset:0">
    <g id="g31" style="fill:none;stroke:#000000;stroke-width:2;stroke-linecap:butt;stroke-opacity:1">
      <path d="m 0,242.95 542,0" id="path33" />
    </g>
  </g>
  <g transform="matrix(0.1445028,0,0,0.1445028,60.272098,61.715586)" clip-path="url(#clip4)" id="g38" style="stroke-width:1;stroke-linecap:square;stroke-linejoin:miter;stroke-miterlimit:10;stroke-dasharray:none;stroke-dashoffset:0">
    <g id="g40" style="fill:#000000;fill-opacity:1;fill-rule:evenodd;stroke:none">
      <path d="m 543,242.95 -20,-5 0,10" id="path42" />
    </g>
  </g>
  <g transform="matrix(0.1445028,0,0,0.1445028,59.842897,48.181916)" id="misc" style="stroke-width:1;stroke-linecap:square;stroke-linejoin:miter;stroke-miterlimit:10;stroke-dasharray:none;stroke-dashoffset:0" />
  <path id="path53" d="m 63.013432,83.28887 0.521078,-0.924818 m 0,0 0.615293,-1.08955 0.615148,-1.085216 m 0,0 0.615293,-1.082326 0.615293,-1.073656 0.615293,-1.066431 0.615292,-1.056315 0.615294,-1.04331 0.615148,-1.030305 0.615293,-1.01441 0.615293,-0.998515 m 0,0 0.615293,-0.979728 0.615293,-0.959499 0.615148,-0.937823 0.615293,-0.914702 0.615293,-0.890138 0.615293,-0.864127 0.615292,-0.836671 0.615582,-0.807771 0.615583,-0.777424 0.614136,-0.745635 0.615583,-0.714133 0.615581,-0.679885 0.615582,-0.644917 0.614137,-0.609223 0.615582,-0.572232 0.615582,-0.53437 m 0,0 0.615581,-0.49579 0.615583,-0.45634 0.614136,-0.416168 0.615583,-0.375274 0.615582,-0.333801 0.615581,-0.291751 0.614137,-0.249267 0.615582,-0.206494 0.615582,-0.163145 0.615582,-0.119648 0.615582,-0.07601 0.614136,-0.03237 0.615583,0.01171 0.615582,0.05549 0.615582,0.09913 0.615581,0.142769 0.614137,0.18612 0.615582,0.229181 0.615582,0.27181 0.615578,0.314149 0.614139,0.355766 0.615586,0.397093 0.615578,0.437555 0.615586,0.477292 0.615578,0.516309 0.614139,0.554601 0.615578,0.591884 0.615586,0.628298 0.615578,0.663557 0.614139,0.698526 0.615586,0.72974 0.615578,0.762975 m 0,0 0.615586,0.794765 0.615576,0.822221 0.61414,0.851121 0.61558,0.878577 0.61558,0.903142 0.61558,0.927709 0.61414,0.949383 0.61559,0.969614 0.61558,0.989844 0.61558,1.007185 0.61558,1.023079 0.61414,1.038976 0.61558,1.050535 0.61558,1.060651 0.61558,1.070765 0.61414,1.077991 0.61558,1.085216 0.61558,1.088106 0.61558,1.089551 0.61559,1.090996 0.61414,1.090996 0.61557,1.086661 0.61559,1.082326 0.61558,1.075101 0.61558,1.067875 0.61414,1.057761 0.61558,1.0462 0.61558,1.033196 0.61559,1.017299 0.61413,1.001404 0.61558,0.982619 0.61559,0.962389 0.61558,0.942158 0.61558,0.917593 0.61413,0.894472 0.61559,0.868456 0.61558,0.84101 0.61558,0.81211 0.61414,0.7832 0.61558,0.75142 0.61559,0.71962 0.61557,0.68494 0.61558,0.65026 0.61414,0.61558 0.61559,0.57801 0.61557,0.54044 0.61559,0.50288 0.61558,0.4624 0.61414,0.4234 0.61558,0.38149 0.61558,0.34102 0.61558,0.29913 0.61414,0.25576 0.61558,0.21387 0.61558,0.16906 0.61559,0.12717 0.61558,0.0838 0.61414,0.039 0.61557,-0.004 0.61559,-0.0477 0.61558,-0.0925 0.61414,-0.13583 0.61558,-0.17918 0.61558,-0.22254" style="fill:none;stroke:#006400;stroke-width:0.28900558;stroke-linecap:round;stroke-linejoin:round;stroke-miterlimit:10;stroke-dasharray:none;stroke-dashoffset:0;stroke-opacity:1" />
  <g ns0:preamble="/Users/prmb/CMEP/underground-inkscape-preamble.tex" ns0:text="$x$" word-spacing="normal" letter-spacing="normal" font-size-adjust="none" font-stretch="normal" font-weight="normal" font-variant="normal" font-style="normal" stroke-miterlimit="10.433" xml:space="preserve" transform="matrix(0.39550902,0,0,-0.39550902,50.642013,287.22898)" id="content" style="font-style:normal;font-variant:normal;font-weight:normal;font-stretch:normal;letter-spacing:normal;word-spacing:normal;text-anchor:start;fill:none;fill-opacity:1;fill-rule:evenodd;stroke:#000000;stroke-linecap:butt;stroke-linejoin:miter;stroke-miterlimit:10.43299961;stroke-dasharray:none;stroke-dashoffset:0;stroke-opacity:1"><path id="path4302" d="m 227.03,480.64 -0.23,0.64 c -0.15,0.39 -0.37,0.88 -0.89,1.16 l -1.56,-0.39 0.04,-0.21 c 0.12,0.05 0.29,0.07 0.45,0.07 0.65,0 0.95,-0.48 1.15,-1.05 l 0.39,-1.09 -0.76,-1.19 c -0.38,-0.58 -0.69,-0.7 -0.83,-0.7 -0.3,0 -0.25,0.24 -0.55,0.24 -0.3,0 -0.45,-0.25 -0.45,-0.44 0,-0.26 0.19,-0.55 0.61,-0.55 0.66,0 1,0.51 1.38,1.08 l 0.74,1.16 0.48,-1.33 c 0.15,-0.43 0.38,-0.91 0.86,-0.91 0.68,0 1.21,1.13 1.36,1.31 l -0.17,0.12 c -0.25,-0.51 -0.53,-0.68 -0.72,-0.68 -0.53,0 -0.8,1.6 -1.15,2.33 l 0.64,1 c 0.17,0.26 0.3,0.45 0.65,0.45 0.2,0 0.26,-0.1 0.52,-0.1 0.31,0 0.46,0.27 0.46,0.49 0,0.25 -0.2,0.39 -0.57,0.39 -0.6,0 -1.01,-0.52 -1.32,-0.99 z" style="fill:#000000;stroke-width:0" /></g>  <g id="g4380" transform="matrix(0.39550902,0,0,-0.39550902,-29.618886,237.67495)" xml:space="preserve" stroke-miterlimit="10.433" font-style="normal" font-variant="normal" font-weight="normal" font-stretch="normal" font-size-adjust="none" letter-spacing="normal" word-spacing="normal" ns0:text="$y$" ns0:preamble="/Users/prmb/CMEP/underground-inkscape-preamble.tex" style="font-style:normal;font-variant:normal;font-weight:normal;font-stretch:normal;letter-spacing:normal;word-spacing:normal;text-anchor:start;fill:none;fill-opacity:1;fill-rule:evenodd;stroke:#000000;stroke-linecap:butt;stroke-linejoin:miter;stroke-miterlimit:10.43299961;stroke-dasharray:none;stroke-dashoffset:0;stroke-opacity:1"><path d="m 226.62,480.86 -0.01,0.08 -0.01,0.08 -0.01,0.07 -0.01,0.07 -0.01,0.07 -0.01,0.07 -0.01,0.06 -0.01,0.06 -0.01,0.06 -0.01,0.05 -0.01,0.06 -0.01,0.05 -0.01,0.05 -0.01,0.04 -0.02,0.05 -0.01,0.05 -0.01,0.04 -0.02,0.04 -0.01,0.04 -0.01,0.04 -0.04,0.08 -0.03,0.07 -0.04,0.08 -0.04,0.07 -0.04,0.07 -0.05,0.07 -1.77,-0.3 0.02,-0.18 c 0.11,0.01 0.3,0.04 0.43,0.04 0.66,0 0.76,-0.71 0.82,-1.24 l 0.45,-3.7 c -0.31,-0.48 -0.98,-1.21 -1.18,-1.21 -0.19,0 -0.16,0.37 -0.67,0.37 -0.16,0 -0.47,-0.13 -0.47,-0.49 0,-0.28 0.22,-0.64 0.66,-0.64 0.8,0 1.57,1.15 2.43,2.24 0.5,0.62 2.41,3.46 2.41,4.38 0,0.46 -0.3,0.73 -0.67,0.73 -0.35,0 -0.56,-0.21 -0.56,-0.47 0,-0.45 0.61,-0.57 0.61,-0.82 0,-0.21 -0.09,-0.45 -0.33,-0.88 -0.26,-0.49 -0.67,-1.19 -1.39,-2.18 z" id="path4382" style="fill:#000000;stroke-width:0" /></g>  <g id="g4744" transform="matrix(0.39550902,0,0,-0.39550902,-30.532659,289.95254)" xml:space="preserve" stroke-miterlimit="10.433" font-style="normal" font-variant="normal" font-weight="normal" font-stretch="normal" font-size-adjust="none" letter-spacing="normal" word-spacing="normal" ns0:text="$0$" ns0:preamble="/Users/prmb/CMEP/underground-inkscape-preamble.tex" style="font-style:normal;font-variant:normal;font-weight:normal;font-stretch:normal;letter-spacing:normal;word-spacing:normal;text-anchor:start;fill:none;fill-opacity:1;fill-rule:evenodd;stroke:#000000;stroke-linecap:butt;stroke-linejoin:miter;stroke-miterlimit:10.43299961;stroke-dasharray:none;stroke-dashoffset:0;stroke-opacity:1"><path d="m 229.05,481.13 0,0.23 -0.01,0.22 -0.02,0.21 -0.02,0.21 -0.02,0.21 -0.04,0.2 -0.04,0.19 -0.04,0.19 -0.05,0.18 -0.05,0.18 -0.06,0.17 -0.07,0.17 -0.07,0.16 -0.07,0.15 -0.08,0.14 -0.09,0.14 -0.09,0.13 -0.09,0.13 -0.1,0.11 -0.1,0.11 -0.11,0.1 -0.11,0.1 -0.11,0.08 -0.12,0.08 -0.12,0.07 -0.12,0.06 -0.13,0.05 -0.13,0.04 -0.14,0.03 -0.13,0.03 -0.15,0.01 -0.14,0.01 c -1.9,0 -2.72,-1.93 -2.72,-4.02 0,-1.93 0.66,-4.13 2.67,-4.13 l 0,0.31 c -1.01,0 -1.53,1.34 -1.53,3.74 0,2.4 0.53,3.79 1.51,3.79 1.04,0 1.56,-1.38 1.56,-3.84 l 0,0 c 0,-2.34 -0.53,-3.69 -1.54,-3.69 l 0,-0.31 c 1.93,0 2.67,2.03 2.67,4.06 z" id="path4746" style="fill:#000000;stroke-width:0" /></g>  <g ns0:preamble="/Users/prmb/CMEP/underground-inkscape-preamble.tex" ns0:text="$-\\frac{1}{2}$" word-spacing="normal" letter-spacing="normal" font-size-adjust="none" font-stretch="normal" font-weight="normal" font-variant="normal" font-style="normal" stroke-miterlimit="10.433" xml:space="preserve" transform="matrix(0.39550902,0,0,-0.39550902,-33.1826,300.1868)" id="g4846" style="font-style:normal;font-variant:normal;font-weight:normal;font-stretch:normal;letter-spacing:normal;word-spacing:normal;text-anchor:start;fill:none;fill-opacity:1;fill-rule:evenodd;stroke:#000000;stroke-linecap:butt;stroke-linejoin:miter;stroke-miterlimit:10.43299961;stroke-dasharray:none;stroke-dashoffset:0;stroke-opacity:1"><polygon id="polygon4848" points="224.19,479.01 230.76,479.01 230.76,479.79 224.19,479.79 " style="fill:#000000;stroke-width:0" /><path id="path4850" d="m 236.24,481.19 0,0.13 c -0.67,0 -0.84,0.16 -0.84,0.54 l 0,5.3 -0.08,0.02 -1.59,-0.8 0,-0.13 0.24,0.09 c 0.16,0.06 0.31,0.11 0.4,0.11 0.18,0 0.26,-0.14 0.26,-0.44 l 0,-3.98 c 0,-0.48 -0.18,-0.67 -0.84,-0.71 l 0,-0.13 z" style="fill:#000000;stroke-width:0" /><line id="line4852" y2="478.89999" x2="237.19" y1="478.89999" x1="232.74001" style="stroke-width:0.65799999" /><path id="path4854" d="m 236.95,472.84 -0.12,0.05 c -0.3,-0.49 -0.48,-0.59 -0.86,-0.59 l -2.07,0 1.46,1.56 c 0.79,0.83 1.14,1.5 1.14,2.2 0,0.88 -0.64,1.56 -1.64,1.56 -1.1,0 -1.66,-0.73 -1.85,-1.76 l 0.19,-0.05 c 0.35,0.87 0.66,1.15 1.3,1.15 0.76,0 1.24,-0.44 1.24,-1.25 0,-0.75 -0.33,-1.42 -1.16,-2.3 l -1.58,-1.68 0,-0.1 3.47,0 z" style="fill:#000000;stroke-width:0" /></g>  <path style="fill:none;fill-rule:evenodd;stroke:#000000;stroke-width:0.2146005px;stroke-linecap:butt;stroke-linejoin:miter;stroke-opacity:1" d="m 62.949726,83.222877 -1.00515,0" id="path4909" />
  <path id="path4911" d="m 62.949726,96.865927 -1.00515,0" style="fill:none;fill-rule:evenodd;stroke:#000000;stroke-width:0.2146005px;stroke-linecap:butt;stroke-linejoin:miter;stroke-opacity:1" />
  <path style="fill:none;fill-rule:evenodd;stroke:#000000;stroke-width:0.21460028px;stroke-linecap:butt;stroke-linejoin:miter;stroke-opacity:1" d="m 62.903063,110.44071 -0.95846,0" id="path4913" />
  <g id="g4963" transform="matrix(0.39550902,0,0,-0.39550902,-30.258527,272.70997)" xml:space="preserve" stroke-miterlimit="10.433" font-style="normal" font-variant="normal" font-weight="normal" font-stretch="normal" font-size-adjust="none" letter-spacing="normal" word-spacing="normal" ns0:text="$\\frac{1}{2}$" ns0:preamble="/Users/prmb/CMEP/underground-inkscape-preamble.tex" style="font-style:normal;font-variant:normal;font-weight:normal;font-stretch:normal;letter-spacing:normal;word-spacing:normal;text-anchor:start;fill:none;fill-opacity:1;fill-rule:evenodd;stroke:#000000;stroke-linecap:butt;stroke-linejoin:miter;stroke-miterlimit:10.43299961;stroke-dasharray:none;stroke-dashoffset:0;stroke-opacity:1"><path style="fill:#000000;stroke-width:0" d="m 228.13,481.19 0,0.13 c -0.67,0 -0.85,0.16 -0.85,0.54 l 0,5.3 -0.08,0.02 -1.59,-0.8 0,-0.13 0.24,0.09 c 0.16,0.06 0.31,0.11 0.4,0.11 0.19,0 0.27,-0.14 0.27,-0.44 l 0,-3.98 c 0,-0.48 -0.19,-0.67 -0.84,-0.71 l 0,-0.13 z" id="path4965" /><line style="stroke-width:0.65799999" x1="224.63" y1="478.89999" x2="229.07001" y2="478.89999" id="line4967" /><path style="fill:#000000;stroke-width:0" d="m 228.84,472.84 -0.13,0.05 c -0.29,-0.49 -0.48,-0.59 -0.85,-0.59 l -2.08,0 1.47,1.56 c 0.79,0.83 1.13,1.5 1.13,2.2 0,0.88 -0.64,1.56 -1.64,1.56 -1.09,0 -1.66,-0.73 -1.85,-1.76 l 0.19,-0.05 c 0.36,0.87 0.67,1.15 1.31,1.15 0.75,0 1.23,-0.44 1.23,-1.25 0,-0.75 -0.32,-1.42 -1.15,-2.3 l -1.59,-1.68 0,-0.1 3.48,0 z" id="path4969" /></g>  <g style="font-style:normal;font-variant:normal;font-weight:normal;font-stretch:normal;letter-spacing:normal;word-spacing:normal;text-anchor:start;fill:none;fill-opacity:1;fill-rule:evenodd;stroke:#000000;stroke-linecap:butt;stroke-linejoin:miter;stroke-miterlimit:10.43299961;stroke-dasharray:none;stroke-dashoffset:0;stroke-opacity:1" ns0:preamble="/Users/prmb/CMEP/underground-inkscape-preamble.tex" ns0:text="$\\frac{7\\pi}{6}$" word-spacing="normal" letter-spacing="normal" font-size-adjust="none" font-stretch="normal" font-weight="normal" font-variant="normal" font-style="normal" stroke-miterlimit="10.433" xml:space="preserve" transform="matrix(0.39550902,0,0,-0.39550902,29.410839,281.53605)" id="g5071"><path id="path5073" d="m 228.61,487.04 0,0.14 -3.27,0 -0.53,-1.3 0.15,-0.08 c 0.38,0.6 0.53,0.73 1.04,0.73 l 1.91,0 -1.76,-5.29 0.58,0 z" style="fill:#000000;stroke-width:0" /><path id="path5075" d="m 234.11,485.11 -2.5,0 c -0.92,0 -1.49,-0.41 -1.88,-1.12 l 0.14,0 c 0.39,0.47 0.72,0.47 1.23,0.47 l -0.79,-1.82 c -0.11,-0.26 -0.27,-0.52 -0.65,-0.62 -0.23,-0.07 -0.28,-0.3 -0.28,-0.43 0,-0.21 0.22,-0.39 0.45,-0.39 0.11,0 0.24,0.02 0.34,0.1 0.75,0.56 1.02,2.08 1.43,3.16 l 0.84,0 c -0.23,-0.74 -0.49,-1.36 -0.7,-1.99 -0.05,-0.17 -0.08,-0.35 -0.08,-0.55 0,-0.35 0.15,-0.67 0.51,-0.67 0.62,0 1.09,0.62 1.28,1.26 l -0.14,0 c -0.22,-0.48 -0.47,-0.58 -0.65,-0.58 -0.2,0 -0.34,0.22 -0.34,0.42 0,0.6 0.47,1.73 0.59,2.11 l 1,0 z" style="fill:#000000;stroke-width:0" /><line id="line5077" y2="479.01999" x2="234.03" y1="479.01999" x1="224.63" style="stroke-width:0.65799999" /><path id="path5079" d="m 231.07,477.82 -0.12,-0.02 -0.11,-0.01 -0.1,-0.01 -0.11,-0.02 -0.1,-0.02 -0.1,-0.01 -0.1,-0.02 -0.09,-0.02 -0.1,-0.02 -0.09,-0.02 -0.09,-0.02 -0.08,-0.02 -0.09,-0.03 -0.08,-0.03 -0.08,-0.03 -0.08,-0.03 -0.08,-0.03 -0.08,-0.04 -0.07,-0.03 -0.08,-0.04 -0.07,-0.04 -0.08,-0.05 -0.07,-0.04 -0.07,-0.05 -0.08,-0.05 -0.07,-0.06 -0.07,-0.06 -0.07,-0.06 -0.07,-0.06 -0.07,-0.07 -0.07,-0.06 -0.07,-0.08 c -0.63,-0.65 -0.97,-1.49 -0.97,-2.44 0,-0.62 0.17,-1.25 0.42,-1.71 0.31,-0.56 0.87,-0.89 1.57,-0.89 l 0.09,0.25 c -0.83,0 -1.26,0.88 -1.26,2.23 0,0.81 0.53,1.03 1.03,1.03 0.83,0 1.2,-0.59 1.2,-1.72 l 0,0 c 0,-0.91 -0.33,-1.54 -0.97,-1.54 l -0.09,-0.25 c 0.58,0 1.08,0.24 1.41,0.64 0.29,0.36 0.45,0.86 0.45,1.42 0,1.15 -0.64,1.86 -1.68,1.86 -0.39,0 -0.69,-0.07 -1.12,-0.4 0.24,1.33 1.23,2.29 2.62,2.52 z" style="fill:#000000;stroke-width:0" /></g>  <g style="font-style:normal;font-variant:normal;font-weight:normal;font-stretch:normal;letter-spacing:normal;word-spacing:normal;text-anchor:start;fill:none;fill-opacity:1;fill-rule:evenodd;stroke:#000000;stroke-linecap:butt;stroke-linejoin:miter;stroke-miterlimit:10.43299961;stroke-dasharray:none;stroke-dashoffset:0;stroke-opacity:1" id="g4238" transform="matrix(0.39550902,0,0,-0.39550902,14.787069,253.69849)" xml:space="preserve" stroke-miterlimit="10.433" font-style="normal" font-variant="normal" font-weight="normal" font-stretch="normal" font-size-adjust="none" letter-spacing="normal" word-spacing="normal" ns0:text="$y=\\sin x+\\frac{1}{2}$" ns0:preamble="/Users/prmb/CMEP/underground-inkscape-preamble.tex"><path style="fill:#000000;stroke-width:0" d="m 226.62,480.03 -0.01,0.08 -0.01,0.08 -0.01,0.07 -0.01,0.08 -0.01,0.06 -0.01,0.07 -0.01,0.06 -0.01,0.06 -0.01,0.06 -0.01,0.06 -0.01,0.05 -0.01,0.05 -0.01,0.05 -0.01,0.05 -0.02,0.05 -0.01,0.04 -0.01,0.04 -0.02,0.05 -0.01,0.04 -0.01,0.04 -0.04,0.07 -0.03,0.08 -0.04,0.07 -0.04,0.07 -0.04,0.07 -0.05,0.07 -1.77,-0.29 0.02,-0.19 c 0.11,0.01 0.3,0.05 0.43,0.05 0.66,0 0.76,-0.71 0.82,-1.24 l 0.45,-3.71 c -0.31,-0.47 -0.98,-1.2 -1.18,-1.2 -0.19,0 -0.16,0.36 -0.67,0.36 -0.16,0 -0.47,-0.13 -0.47,-0.48 0,-0.29 0.22,-0.65 0.66,-0.65 0.8,0 1.57,1.16 2.43,2.24 0.5,0.63 2.41,3.46 2.41,4.38 0,0.46 -0.3,0.73 -0.67,0.73 -0.35,0 -0.56,-0.21 -0.56,-0.47 0,-0.45 0.61,-0.56 0.61,-0.81 0,-0.22 -0.09,-0.45 -0.33,-0.89 -0.26,-0.48 -0.67,-1.19 -1.39,-2.17 z" id="path4240" /><polygon style="fill:#000000;stroke-width:0" points="239.59,480.19 239.59,480.97 232.64,480.97 232.64,480.19 " id="polygon4242" /><polygon style="fill:#000000;stroke-width:0" points="239.59,477.83 239.59,478.61 232.64,478.61 232.64,477.83 " id="polygon4244" /><path style="fill:#000000;stroke-width:0" d="m 244.8,479.96 -0.03,0.02 -0.03,0.02 -0.03,0.02 -0.03,0.02 -0.02,0.03 -0.03,0.02 -0.03,0.02 -0.02,0.03 -0.02,0.02 -0.02,0.03 -0.03,0.02 -0.02,0.03 -0.02,0.02 -0.01,0.03 -0.02,0.03 -0.02,0.02 -0.01,0.03 -0.02,0.03 -0.01,0.02 -0.01,0.03 -0.02,0.03 -0.01,0.02 -0.01,0.03 -0.01,0.03 0,0.03 -0.01,0.02 -0.01,0.03 0,0.02 0,0.03 -0.01,0.03 0,0.02 0,0.03 c 0,0.55 0.38,0.8 0.89,0.8 0.7,0 1.06,-0.39 1.33,-1.45 l 0.18,0 -0.06,1.6 -0.13,0 c -0.1,-0.11 -0.14,-0.12 -0.19,-0.12 -0.08,0 -0.2,0.04 -0.33,0.1 -0.25,0.12 -0.51,0.13 -0.79,0.13 -0.97,0 -1.63,-0.52 -1.63,-1.45 0,-0.61 0.44,-1.17 1.42,-1.72 l 0.63,-0.35 c 0.39,-0.21 0.63,-0.52 0.63,-0.89 0,-0.48 -0.38,-0.87 -0.98,-0.87 -0.81,0 -1.25,0.52 -1.5,1.66 l -0.19,0 0,-1.85 0.16,0 c 0.07,0.12 0.14,0.14 0.28,0.14 0.13,0 0.26,-0.01 0.54,-0.1 0.27,-0.1 0.61,-0.11 0.86,-0.11 0.9,0 1.66,0.69 1.66,1.48 0,0.67 -0.29,0.99 -1.04,1.45 z" id="path4246" /><path style="fill:#000000;stroke-width:0" d="m 249.69,483.87 0,0.03 0,0.03 -0.01,0.03 0,0.03 -0.01,0.03 -0.01,0.03 0,0.03 -0.01,0.02 -0.02,0.03 -0.01,0.03 -0.01,0.02 -0.02,0.03 -0.02,0.02 -0.01,0.02 -0.02,0.02 -0.02,0.03 -0.02,0.02 -0.02,0.01 -0.03,0.02 -0.02,0.02 -0.02,0.02 -0.03,0.01 -0.03,0.01 -0.02,0.02 -0.03,0.01 -0.03,0.01 -0.03,0 -0.03,0.01 -0.03,0.01 -0.03,0 -0.03,0 -0.03,0 c -0.33,0 -0.6,-0.27 -0.6,-0.6 0,-0.34 0.26,-0.6 0.59,-0.6 0.35,0 0.61,0.26 0.61,0.6 z" id="path4248" /><path style="fill:#000000;stroke-width:0" d="m 250.55,476.41 0,0.18 c -0.78,0.05 -0.87,0.18 -0.87,1.06 l 0,4.14 -0.05,0.05 -1.83,-0.65 0,-0.19 c 0.21,0.06 0.39,0.06 0.5,0.06 0.29,0 0.39,-0.19 0.39,-0.74 l 0,-2.68 c 0,-0.9 -0.12,-1.01 -0.93,-1.05 l 0,-0.18 z" id="path4250" /><path style="fill:#000000;stroke-width:0" d="m 256.59,476.41 0,0.18 c -0.58,0.05 -0.72,0.18 -0.72,0.82 l 0,2.61 c 0,1.17 -0.5,1.82 -1.4,1.82 -0.54,0 -1.08,-0.26 -1.7,-0.96 l -0.01,0 0,0.92 -0.09,0.04 c -0.58,-0.21 -0.97,-0.34 -1.62,-0.53 l 0,-0.2 c 0.08,0.03 0.21,0.04 0.34,0.04 0.33,0 0.41,-0.18 0.41,-0.76 l 0,-2.87 c 0,-0.7 -0.12,-0.89 -0.73,-0.93 l 0,-0.18 2.49,0 0,0.18 c -0.6,0.04 -0.76,0.21 -0.76,0.67 l 0,3.26 c 0.54,0.53 0.82,0.67 1.21,0.67 0.58,0 0.86,-0.35 0.86,-1.19 l 0,-2.35 c 0,-0.78 -0.14,-1.02 -0.73,-1.06 l -0.01,-0.18 z" id="path4252" /><path style="fill:#000000;stroke-width:0" d="m 262.04,479.81 -0.23,0.65 c -0.14,0.39 -0.37,0.87 -0.89,1.15 l -1.56,-0.38 0.04,-0.22 c 0.12,0.05 0.29,0.07 0.45,0.07 0.65,0 0.95,-0.48 1.16,-1.05 l 0.38,-1.08 -0.76,-1.19 c -0.38,-0.58 -0.69,-0.7 -0.83,-0.7 -0.29,0 -0.25,0.23 -0.55,0.23 -0.3,0 -0.45,-0.24 -0.45,-0.43 0,-0.26 0.19,-0.56 0.61,-0.56 0.66,0 1,0.51 1.38,1.09 l 0.75,1.16 0.47,-1.34 c 0.15,-0.42 0.38,-0.91 0.86,-0.91 0.68,0 1.22,1.14 1.36,1.31 l -0.17,0.12 c -0.25,-0.51 -0.53,-0.67 -0.72,-0.67 -0.53,0 -0.8,1.59 -1.16,2.32 l 0.65,1.01 c 0.17,0.26 0.3,0.45 0.65,0.45 0.2,0 0.26,-0.11 0.52,-0.11 0.31,0 0.46,0.27 0.46,0.5 0,0.24 -0.2,0.38 -0.57,0.38 -0.59,0 -1.01,-0.51 -1.31,-0.99 z" id="path4254" /><polygon style="fill:#000000;stroke-width:0" points="270.82,482.87 270.82,479.79 267.74,479.79 267.74,479.01 270.82,479.01 270.82,475.92 271.6,475.92 271.6,479.01 274.68,479.01 274.68,479.79 271.6,479.79 271.6,482.87 " id="polygon4256" /><path style="fill:#000000;stroke-width:0" d="m 282.2,481.19 0,0.13 c -0.67,0 -0.84,0.16 -0.84,0.54 l 0,5.3 -0.08,0.02 -1.59,-0.8 0,-0.13 0.24,0.09 c 0.16,0.06 0.31,0.11 0.4,0.11 0.18,0 0.26,-0.14 0.26,-0.44 l 0,-3.98 c 0,-0.48 -0.18,-0.67 -0.84,-0.71 l 0,-0.13 z" id="path4258" /><line style="stroke-width:0.65799999" x1="278.70001" y1="478.89999" x2="283.14001" y2="478.89999" id="line4260" /><path style="fill:#000000;stroke-width:0" d="m 282.91,472.84 -0.12,0.05 c -0.3,-0.49 -0.48,-0.59 -0.86,-0.59 l -2.07,0 1.46,1.56 c 0.79,0.83 1.14,1.5 1.14,2.2 0,0.88 -0.64,1.56 -1.64,1.56 -1.1,0 -1.67,-0.73 -1.85,-1.76 l 0.18,-0.05 c 0.36,0.87 0.67,1.15 1.31,1.15 0.75,0 1.23,-0.44 1.23,-1.25 0,-0.75 -0.32,-1.42 -1.15,-2.3 l -1.58,-1.68 0,-0.1 3.47,0 z" id="path4262" /></g></svg>