<?xml version='1.0' ?><svg xmlns:ns0="http://www.iki.fi/pav/software/textext/" xmlns:dc="http://purl.org/dc/elements/1.1/" xmlns:cc="http://creativecommons.org/ns#" xmlns:rdf="http://www.w3.org/1999/02/22-rdf-syntax-ns#" xmlns:svg="http://www.w3.org/2000/svg" xmlns="http://www.w3.org/2000/svg" version="1.1" id="svg2" width="483.66982" height="147.67427" viewBox="121.559 39.619923 483.66982 147.67427" preserveAspectRatio="none">
  <defs id="defs4">
    <marker style="overflow:visible;" id="Arrow2Lend" refX="0.0" refY="0.0" orient="auto">
      <path transform="scale(1.1) rotate(180) translate(1,0)" d="M 8.7185878,4.0337352 L -2.2072895,0.016013256 L 8.7185884,-4.0017078 C 6.9730900,-1.6296469 6.9831476,1.6157441 8.7185878,4.0337352 z " style="fill-rule:evenodd;stroke-width:0.62500000;stroke-linejoin:round;" id="path3786" />
    </marker>
  </defs>
  <metadata id="metadata7">
    <rdf:RDF>
      <cc:Work rdf:about="">
        <dc:format>image/svg+xml</dc:format>
        <dc:type rdf:resource="http://purl.org/dc/dcmitype/StillImage" />
        <dc:title />
      </cc:Work>
    </rdf:RDF>
  </metadata>
  <g id="layer1">
    <g transform="matrix(1.4498922,0,0,1.4498922,-128.34444,81.457938)" id="misc" style="stroke-width:1;stroke-linecap:square;stroke-linejoin:miter;stroke-miterlimit:10;stroke-dasharray:none;stroke-dashoffset:0" />
    <g transform="matrix(0.8,0,0,0.8,5.7428566,125.28548)" id="g8227" />
    <g transform="matrix(1.4498922,0,0,1.4498922,251.14788,200.15911)" id="misc-0" style="stroke-width:1;stroke-linecap:square;stroke-linejoin:miter;stroke-miterlimit:10;stroke-dasharray:none;stroke-dashoffset:0" />
    <g transform="matrix(1.1599138,0,0,1.1599138,116.843,283.67811)" id="misc-6" style="stroke-width:1;stroke-linecap:square;stroke-linejoin:miter;stroke-miterlimit:10;stroke-dasharray:none;stroke-dashoffset:0" />
    <g transform="matrix(0.92793104,0,0,0.92793104,169.22375,223.453)" id="misc-8" style="stroke-width:1;stroke-linecap:square;stroke-linejoin:miter;stroke-miterlimit:10;stroke-dasharray:none;stroke-dashoffset:0" />
    <g transform="matrix(0.92793104,0,0,0.92793104,160.77715,246.03153)" id="misc-7" style="stroke-width:1;stroke-linecap:square;stroke-linejoin:miter;stroke-miterlimit:10;stroke-dasharray:none;stroke-dashoffset:0" />
    <g transform="matrix(0.92793104,0,0,0.92793104,153.70608,223.80818)" id="misc-68" style="stroke-width:1;stroke-linecap:square;stroke-linejoin:miter;stroke-miterlimit:10;stroke-dasharray:none;stroke-dashoffset:0" />
    <g transform="matrix(1.6262447,0,0,1.6262447,281.50968,-164.14007)" id="misc-2" style="stroke-width:1;stroke-linecap:square;stroke-linejoin:miter;stroke-miterlimit:10;stroke-dasharray:none;stroke-dashoffset:0" />
    <g transform="matrix(0.8,0,0,0.8,77.066432,-17.269823)" id="g12633">
      <g id="g11300">
        <g id="g13339">
          <g id="g8681" transform="matrix(0.512,0,0,0.512,58.707156,25.072745)" />
          <g style="stroke-width:1;stroke-linecap:square;stroke-linejoin:miter;stroke-miterlimit:10;stroke-dasharray:none;stroke-dashoffset:0" id="g7372" transform="matrix(25.054137,0,0,25.054137,147.30005,102.37629)">
            <clipPath id="clip1-5">
              <path id="path7375" d="m -3.8148,-6.2315 0,16.5925 21.4818,0 0,-16.5925 z" />
            </clipPath>
            <g id="g7377" clip-path="url(#clip1-5)">
              <g id="g7379" style="fill:#000000;fill-opacity:1;fill-rule:nonzero;stroke:none">
                <title id="title7383">$A(x)$</title>
                <desc id="desc7385">text1 = &quot;$A(x)$&quot;</desc>
              </g>
            </g>
          </g>
        </g>
      </g>
    </g>
  </g>
  <g id="g9613">
    <rect style="fill:#abdda4;fill-opacity:0.36862745;fill-rule:nonzero;stroke:#000000;stroke-width:4.8828125;stroke-linecap:square;stroke-miterlimit:4;stroke-dasharray:none;stroke-dashoffset:0;stroke-opacity:1" id="rect2985" width="198.35097" height="100" x="97.257401" y="92.362183" transform="matrix(0.4096,0,0,0.4096,124.03216,2.788373)" />
    <path style="fill:none;stroke:#000000;stroke-width:4.8828125;stroke-linecap:butt;stroke-linejoin:miter;stroke-miterlimit:4;stroke-opacity:1;stroke-dasharray:none" d="m 34.285714,142.36218 61.733347,0" id="path2987" transform="matrix(0.4096,0,0,0.4096,124.03216,2.788373)" />
    <path style="fill:none;stroke:#000000;stroke-width:4.8828125;stroke-linecap:butt;stroke-linejoin:miter;stroke-miterlimit:4;stroke-opacity:1;stroke-dasharray:none;marker-end:url(#Arrow2Lend)" d="m 295.24871,143.37233 65.15117,0" id="path2991" transform="matrix(0.4096,0,0,0.4096,124.03216,2.788373)" />
    <g style="font-style:normal;font-variant:normal;font-weight:normal;font-stretch:normal;letter-spacing:normal;word-spacing:normal;text-anchor:start;fill:none;fill-opacity:1;fill-rule:evenodd;stroke:#000000;stroke-linecap:butt;stroke-linejoin:miter;stroke-miterlimit:10.43299961;stroke-dasharray:none;stroke-dashoffset:0;stroke-opacity:1" id="g7014" transform="matrix(1.9402975,0,0,-1.9402975,-312.63805,992.06132)" xml:space="preserve" stroke-miterlimit="10.433" font-style="normal" font-variant="normal" font-weight="normal" font-stretch="normal" font-size-adjust="none" letter-spacing="normal" word-spacing="normal" ns0:text="$x$" ns0:preamble="/Users/kjb81/Documents/underground-inkscape-preamble.tex"><path style="fill:#000000;stroke-width:0" d="m 227.03,480.64 -0.23,0.64 c -0.15,0.39 -0.37,0.88 -0.89,1.16 l -1.56,-0.39 0.04,-0.21 c 0.12,0.05 0.29,0.07 0.45,0.07 0.65,0 0.95,-0.48 1.15,-1.05 l 0.39,-1.09 -0.76,-1.19 c -0.38,-0.58 -0.69,-0.7 -0.83,-0.7 -0.3,0 -0.25,0.24 -0.55,0.24 -0.3,0 -0.45,-0.25 -0.45,-0.44 0,-0.26 0.19,-0.55 0.61,-0.55 0.66,0 1,0.51 1.38,1.08 l 0.74,1.16 0.48,-1.33 c 0.15,-0.43 0.38,-0.91 0.86,-0.91 0.68,0 1.21,1.13 1.36,1.31 l -0.17,0.12 c -0.25,-0.51 -0.53,-0.68 -0.72,-0.68 -0.53,0 -0.8,1.6 -1.15,2.33 l 0.64,1 c 0.17,0.26 0.3,0.45 0.65,0.45 0.2,0 0.26,-0.1 0.52,-0.1 0.31,0 0.46,0.27 0.46,0.49 0,0.25 -0.2,0.39 -0.57,0.39 -0.6,0 -1.01,-0.52 -1.32,-0.99 z" id="path7016" /></g>    <g ns0:preamble="/Users/kjb81/Documents/underground-inkscape-preamble.tex" ns0:text="$\\dfrac {4}{x^2-4}$" word-spacing="normal" letter-spacing="normal" font-size-adjust="none" font-stretch="normal" font-weight="normal" font-variant="normal" font-style="normal" stroke-miterlimit="10.433" xml:space="preserve" transform="matrix(1.8180848,0,0,-1.8180848,-128.78718,1029.4715)" id="content" style="font-style:normal;font-variant:normal;font-weight:normal;font-stretch:normal;letter-spacing:normal;word-spacing:normal;text-anchor:start;fill:none;fill-opacity:1;fill-rule:evenodd;stroke:#000000;stroke-linecap:butt;stroke-linejoin:miter;stroke-miterlimit:10.43299961;stroke-dasharray:none;stroke-dashoffset:0;stroke-opacity:1"><polygon id="polygon9225" points="237.04,481.16 240.34,481.16 240.34,479.19 241.26,479.19 241.26,481.16 242.48,481.16 242.48,481.92 241.26,481.92 241.26,487.17 240.75,487.17 237.04,481.92 237.51,481.92 240.34,485.97 240.34,481.92 237.51,481.92 237.04,481.92 " style="fill:#000000;stroke-width:0" /><line id="line9227" y2="475.28" x2="255.09" y1="475.28" x1="224.63" style="stroke-width:0.78200001" /><path id="path9229" d="m 228.23,467.07 -0.24,0.65 c -0.14,0.39 -0.36,0.87 -0.88,1.15 l -1.56,-0.39 0.03,-0.21 c 0.12,0.05 0.3,0.07 0.45,0.07 0.65,0 0.96,-0.48 1.16,-1.05 l 0.39,-1.08 -0.77,-1.2 c -0.38,-0.58 -0.68,-0.69 -0.82,-0.69 -0.3,0 -0.25,0.23 -0.56,0.23 -0.29,0 -0.45,-0.24 -0.45,-0.43 0,-0.26 0.19,-0.56 0.62,-0.56 0.66,0 1,0.51 1.38,1.09 l 0.74,1.15 0.47,-1.33 c 0.16,-0.42 0.38,-0.91 0.86,-0.91 0.69,0 1.22,1.14 1.36,1.31 l -0.16,0.12 c -0.25,-0.51 -0.53,-0.67 -0.72,-0.67 -0.53,0 -0.8,1.59 -1.16,2.32 l 0.65,1.01 c 0.16,0.26 0.3,0.45 0.65,0.45 0.2,0 0.26,-0.11 0.52,-0.11 0.31,0 0.46,0.27 0.46,0.49 0,0.25 -0.2,0.39 -0.58,0.39 -0.59,0 -1,-0.51 -1.31,-0.99 z" style="fill:#000000;stroke-width:0" /><path id="path9231" d="m 235.08,468.06 -0.12,0.05 c -0.27,-0.46 -0.45,-0.55 -0.79,-0.55 l -1.95,0 1.37,1.46 c 0.74,0.78 1.07,1.4 1.07,2.05 0,0.82 -0.6,1.46 -1.54,1.46 -1.02,0 -1.55,-0.68 -1.73,-1.65 l 0.18,-0.04 c 0.33,0.81 0.62,1.08 1.22,1.08 0.7,0 1.15,-0.42 1.15,-1.17 0,-0.71 -0.3,-1.34 -1.08,-2.16 l -1.48,-1.57 0,-0.09 3.25,0 z" style="fill:#000000;stroke-width:0" /><polygon id="polygon9233" points="239.17,466.27 245.75,466.27 245.75,467.05 239.17,467.05 " style="fill:#000000;stroke-width:0" /><polygon id="polygon9235" points="249.3,465.64 252.61,465.64 252.61,463.67 253.53,463.67 253.53,465.64 254.75,465.64 254.75,466.39 253.53,466.39 253.53,471.65 253.01,471.65 249.3,466.39 249.78,466.39 252.61,470.45 252.61,466.39 249.78,466.39 249.3,466.39 " style="fill:#000000;stroke-width:0" /></g>    <rect y="145.3342" x="163.86879" height="40.959999" width="81.244553" id="rect8696" style="fill:#abdda4;fill-opacity:0.36862745;fill-rule:nonzero;stroke:#000000;stroke-width:2;stroke-linecap:square;stroke-miterlimit:4;stroke-dasharray:none;stroke-dashoffset:0;stroke-opacity:1" />
    <path id="path8698" d="m 138.07559,165.09993 25.28598,0" style="fill:none;stroke:#000000;stroke-width:2;stroke-linecap:butt;stroke-linejoin:miter;stroke-miterlimit:4;stroke-dasharray:none;stroke-opacity:1" />
    <path id="path8700" d="m 244.96603,165.51368 26.68591,0" style="fill:none;stroke:#000000;stroke-width:2;stroke-linecap:butt;stroke-linejoin:miter;stroke-miterlimit:4;stroke-dasharray:none;stroke-opacity:1;marker-end:url(#Arrow2Lend)" />
    <g transform="matrix(0.8,0,0,0.8,-214.66562,11.014448)" id="g8654" />
    <g transform="matrix(20.04331,0,0,20.04331,300.54719,156.90794)" id="g9680" style="stroke-width:1;stroke-linecap:square;stroke-linejoin:miter;stroke-miterlimit:10;stroke-dasharray:none;stroke-dashoffset:0">
      <clipPath id="clip20-8">
        <path d="m -13.109,-3.9778 0,16.5928 21.4819,0 0,-16.5928 z" id="path9683" />
      </clipPath>
    </g>
    <rect style="fill:#abdda4;fill-opacity:0.36862745;fill-rule:nonzero;stroke:#000000;stroke-width:2;stroke-linecap:square;stroke-miterlimit:4;stroke-dasharray:none;stroke-dashoffset:0;stroke-opacity:1" id="rect8688" width="81.244553" height="40.959999" x="429.06641" y="144.71376" />
    <path style="fill:none;stroke:#000000;stroke-width:2;stroke-linecap:butt;stroke-linejoin:miter;stroke-miterlimit:4;stroke-dasharray:none;stroke-opacity:1" d="m 403.32015,164.29181 25.28598,0" id="path8690" />
    <path style="fill:none;stroke:#000000;stroke-width:2;stroke-linecap:butt;stroke-linejoin:miter;stroke-miterlimit:4;stroke-dasharray:none;stroke-opacity:1;marker-end:url(#Arrow2Lend)" d="m 510.21059,164.70556 26.68592,0" id="path8692" />
    <g ns0:preamble="/Users/kjb81/Documents/underground-inkscape-preamble.tex" ns0:text="$x$" word-spacing="normal" letter-spacing="normal" font-size-adjust="none" font-stretch="normal" font-weight="normal" font-variant="normal" font-style="normal" stroke-miterlimit="10.433" xml:space="preserve" transform="matrix(1.9583808,0,0,-1.9583808,-52.324328,1103.3443)" id="g6924" style="font-style:normal;font-variant:normal;font-weight:normal;font-stretch:normal;letter-spacing:normal;word-spacing:normal;text-anchor:start;fill:none;fill-opacity:1;fill-rule:evenodd;stroke:#000000;stroke-linecap:butt;stroke-linejoin:miter;stroke-miterlimit:10.43299961;stroke-dasharray:none;stroke-dashoffset:0;stroke-opacity:1"><path id="path4923" d="m 226.99879,480.60619 -0.22779,0.63383 c -0.14856,0.38624 -0.36643,0.87153 -0.88142,1.14883 l -1.54498,-0.38624 0.0396,-0.20798 c 0.11883,0.0495 0.28719,0.0693 0.44565,0.0693 0.64375,0 0.94085,-0.47538 1.13893,-1.03989 l 0.38624,-1.07949 -0.75267,-1.17855 c -0.37636,-0.5744 -0.68337,-0.69324 -0.82201,-0.69324 -0.29711,0 -0.24759,0.23768 -0.54471,0.23768 -0.2971,0 -0.44566,-0.24759 -0.44566,-0.43575 0,-0.2575 0.18817,-0.54471 0.60412,-0.54471 0.65364,0 0.99036,0.50508 1.36671,1.0696 l 0.73287,1.14881 0.47538,-1.31718 c 0.14855,-0.42586 0.37634,-0.90123 0.85171,-0.90123 0.67344,0 1.19834,1.11911 1.3469,1.29738 l -0.16835,0.11885 c -0.24761,-0.50509 -0.52491,-0.67345 -0.71307,-0.67345 -0.5249,0 -0.7923,1.58458 -1.13893,2.30756 l 0.63384,0.99036 c 0.16836,0.25749 0.29711,0.44566 0.64374,0.44566 0.19806,0 0.25749,-0.099 0.51498,-0.099 0.30702,0 0.45558,0.26739 0.45558,0.48529 0,0.24758 -0.19808,0.38624 -0.56452,0.38624 -0.59421,0 -1.00026,-0.51499 -1.30727,-0.98047 z" style="fill:#000000;stroke-width:0" /></g>    <g style="font-style:normal;font-variant:normal;font-weight:normal;font-stretch:normal;letter-spacing:normal;word-spacing:normal;text-anchor:start;fill:none;fill-opacity:1;fill-rule:evenodd;stroke:#000000;stroke-linecap:butt;stroke-linejoin:miter;stroke-miterlimit:10.43299961;stroke-dasharray:none;stroke-dashoffset:0;stroke-opacity:1" id="g7099" transform="matrix(1.9362195,0,0,-1.9362195,-311.74756,1093.1506)" xml:space="preserve" stroke-miterlimit="10.433" font-style="normal" font-variant="normal" font-weight="normal" font-stretch="normal" font-size-adjust="none" letter-spacing="normal" word-spacing="normal" ns0:text="$x$" ns0:preamble="/Users/kjb81/Documents/underground-inkscape-preamble.tex"><path style="fill:#000000;stroke-width:0" d="m 227.03,480.64 -0.23,0.64 c -0.15,0.39 -0.37,0.88 -0.89,1.16 l -1.56,-0.39 0.04,-0.21 c 0.12,0.05 0.29,0.07 0.45,0.07 0.65,0 0.95,-0.48 1.15,-1.05 l 0.39,-1.09 -0.76,-1.19 c -0.38,-0.58 -0.69,-0.7 -0.83,-0.7 -0.3,0 -0.25,0.24 -0.55,0.24 -0.3,0 -0.45,-0.25 -0.45,-0.44 0,-0.26 0.19,-0.55 0.61,-0.55 0.66,0 1,0.51 1.38,1.08 l 0.74,1.16 0.48,-1.33 c 0.15,-0.43 0.38,-0.91 0.86,-0.91 0.68,0 1.21,1.13 1.36,1.31 l -0.17,0.12 c -0.25,-0.51 -0.53,-0.68 -0.72,-0.68 -0.53,0 -0.8,1.6 -1.15,2.33 l 0.64,1 c 0.17,0.26 0.3,0.45 0.65,0.45 0.2,0 0.26,-0.1 0.52,-0.1 0.31,0 0.46,0.27 0.46,0.49 0,0.25 -0.2,0.39 -0.57,0.39 -0.6,0 -1.01,-0.52 -1.32,-0.99 z" id="path7101" /></g>    <g ns0:preamble="/Users/kjb81/Documents/underground-inkscape-preamble.tex" ns0:text="$x$" word-spacing="normal" letter-spacing="normal" font-size-adjust="none" font-stretch="normal" font-weight="normal" font-variant="normal" font-style="normal" stroke-miterlimit="10.433" xml:space="preserve" transform="matrix(1.9362195,0,0,-1.9362195,-47.461848,991.00778)" id="g7103" style="font-style:normal;font-variant:normal;font-weight:normal;font-stretch:normal;letter-spacing:normal;word-spacing:normal;text-anchor:start;fill:none;fill-opacity:1;fill-rule:evenodd;stroke:#000000;stroke-linecap:butt;stroke-linejoin:miter;stroke-miterlimit:10.43299961;stroke-dasharray:none;stroke-dashoffset:0;stroke-opacity:1"><path id="path7105" d="m 227.03,480.64 -0.23,0.64 c -0.15,0.39 -0.37,0.88 -0.89,1.16 l -1.56,-0.39 0.04,-0.21 c 0.12,0.05 0.29,0.07 0.45,0.07 0.65,0 0.95,-0.48 1.15,-1.05 l 0.39,-1.09 -0.76,-1.19 c -0.38,-0.58 -0.69,-0.7 -0.83,-0.7 -0.3,0 -0.25,0.24 -0.55,0.24 -0.3,0 -0.45,-0.25 -0.45,-0.44 0,-0.26 0.19,-0.55 0.61,-0.55 0.66,0 1,0.51 1.38,1.08 l 0.74,1.16 0.48,-1.33 c 0.15,-0.43 0.38,-0.91 0.86,-0.91 0.68,0 1.21,1.13 1.36,1.31 l -0.17,0.12 c -0.25,-0.51 -0.53,-0.68 -0.72,-0.68 -0.53,0 -0.8,1.6 -1.15,2.33 l 0.64,1 c 0.17,0.26 0.3,0.45 0.65,0.45 0.2,0 0.26,-0.1 0.52,-0.1 0.31,0 0.46,0.27 0.46,0.49 0,0.25 -0.2,0.39 -0.57,0.39 -0.6,0 -1.01,-0.52 -1.32,-0.99 z" style="fill:#000000;stroke-width:0" /></g>    <g style="font-style:normal;font-variant:normal;font-weight:normal;font-stretch:normal;letter-spacing:normal;word-spacing:normal;text-anchor:start;fill:none;fill-opacity:1;fill-rule:evenodd;stroke:#000000;stroke-linecap:butt;stroke-linejoin:miter;stroke-miterlimit:10.43299961;stroke-dasharray:none;stroke-dashoffset:0;stroke-opacity:1" id="g8073" transform="matrix(2.5220649,0,0,-2.5220649,-370.35058,1379.0661)" xml:space="preserve" stroke-miterlimit="10.433" font-style="normal" font-variant="normal" font-weight="normal" font-stretch="normal" font-size-adjust="none" letter-spacing="normal" word-spacing="normal" ns0:text="$C$" ns0:preamble="/Users/kjb81/Documents/underground-inkscape-preamble.tex"><path style="fill:#000000;stroke-width:0" d="m 231.83,485.02 -0.22,0 c -0.17,-0.3 -0.36,-0.32 -0.49,-0.32 -0.62,0 -1.23,0.32 -1.87,0.32 -2.85,0 -5.23,-1.93 -5.23,-4.64 0,-1.74 1.12,-3.29 3.4,-3.29 0.46,0 1.36,0.07 2.28,0.72 0.34,0.25 0.73,0.61 1.05,1.09 l -0.23,0.15 c -0.06,-0.08 -0.12,-0.15 -0.2,-0.23 -0.54,-0.58 -1.4,-1.16 -2.56,-1.16 -1.59,0 -2.3,1.2 -2.3,2.53 0,2.01 1.4,4.39 3.77,4.39 1.43,0 1.79,-0.93 1.79,-1.7 0,-0.3 0,-0.4 -0.01,-0.5 l 0.19,0 z" id="path8075" /></g>    <g ns0:preamble="/Users/kjb81/Documents/underground-inkscape-preamble.tex" ns0:text="$D$" word-spacing="normal" letter-spacing="normal" font-size-adjust="none" font-stretch="normal" font-weight="normal" font-variant="normal" font-style="normal" stroke-miterlimit="10.433" xml:space="preserve" transform="matrix(2.7081409,0,0,-2.7081409,-147.73722,1467.5998)" id="g8203" style="font-style:normal;font-variant:normal;font-weight:normal;font-stretch:normal;letter-spacing:normal;word-spacing:normal;text-anchor:start;fill:none;fill-opacity:1;fill-rule:evenodd;stroke:#000000;stroke-linecap:butt;stroke-linejoin:miter;stroke-miterlimit:10.43299961;stroke-dasharray:none;stroke-dashoffset:0;stroke-opacity:1"><path id="path8205" d="m 225.64247,484.61513 -0.0573,-0.19157 0.28736,0 c 0.66094,0 0.87167,-0.16284 0.87167,-0.41188 0,-0.0864 -0.0291,-0.18199 -0.0482,-0.27778 l -1.37932,-5.61307 c -0.0864,-0.39271 -0.35442,-0.70884 -1.18778,-0.70884 l -0.2011,0 -0.0482,-0.18199 3.4579,0 c 2.92148,0 4.76058,1.89657 4.76058,4.28163 0,1.94448 -1.13986,3.1035 -3.26631,3.1035 l -0.13413,-0.42147 c 1.6667,0 2.04027,-1.55174 2.04027,-2.85441 0,-1.59009 -0.9004,-3.67825 -3.06517,-3.67825 -0.4023,0 -1.08237,0.0291 -1.08237,0.48857 0,0.0382 0,0.0955 0.0573,0.30649 l 1.37931,5.6993 c 0.18198,0.0191 0.44063,0.0382 0.67049,0.0382 l 0.13412,0.42147 z" style="fill:#000000;stroke-width:0" /></g>    <g style="font-style:normal;font-variant:normal;font-weight:normal;font-stretch:normal;letter-spacing:normal;word-spacing:normal;text-anchor:start;fill:none;fill-opacity:1;fill-rule:evenodd;stroke:#000000;stroke-linecap:butt;stroke-linejoin:miter;stroke-miterlimit:10.43299961;stroke-dasharray:none;stroke-dashoffset:0;stroke-opacity:1" id="g8337" transform="matrix(2.7741521,0,0,-2.7741521,-426.67666,1395.9387)" xml:space="preserve" stroke-miterlimit="10.433" font-style="normal" font-variant="normal" font-weight="normal" font-stretch="normal" font-size-adjust="none" letter-spacing="normal" word-spacing="normal" ns0:text="$A$" ns0:preamble="/Users/kjb81/Documents/underground-inkscape-preamble.tex"><path style="fill:#000000;stroke-width:0" d="m 231.1847,477.5653 0,0.17383 -0.1817,0 c -0.47814,0 -0.75546,0.22872 -0.83196,0.75937 l -0.87978,6.2762 -0.21039,0 -4.01639,-6.23046 c -0.40164,-0.63128 -0.8224,-0.75936 -1.21448,-0.80511 l 0,-0.17383 2.45765,0 0,0.17383 -0.32514,0 c -0.29644,0 -0.47814,0.11894 -0.4877,0.32021 0,0.0732 0.0287,0.19213 0.11475,0.27447 l 0.94672,1.51874 2.23771,0 -0.0861,0.3934 -1.91257,0 1.56831,2.45193 0.0669,0 0.27732,-2.45193 0.0861,-0.3934 0.14344,-1.22597 c 0.01,-0.0732 0.0191,-0.16468 0.0191,-0.22872 0,-0.43001 -0.1817,-0.65873 -0.81284,-0.65873 l -0.1817,0 0,-0.17383 z" id="path8339" /></g>    <rect style="fill:#abdda4;fill-opacity:0.36862745;fill-rule:nonzero;stroke:#000000;stroke-width:2;stroke-linecap:square;stroke-miterlimit:4;stroke-dasharray:none;stroke-dashoffset:0;stroke-opacity:1" id="rect8704" width="81.244553" height="40.959999" x="429.06644" y="42.003067" />
    <path style="fill:none;stroke:#000000;stroke-width:2;stroke-linecap:butt;stroke-linejoin:miter;stroke-miterlimit:4;stroke-dasharray:none;stroke-opacity:1" d="m 403.32015,62.483068 25.28598,0" id="path8706" />
    <path style="fill:none;stroke:#000000;stroke-width:2;stroke-linecap:butt;stroke-linejoin:miter;stroke-miterlimit:4;stroke-dasharray:none;stroke-opacity:1;marker-end:url(#Arrow2Lend)" d="m 510.21059,62.896825 26.68592,0" id="path8708" />
    <g style="font-style:normal;font-variant:normal;font-weight:normal;font-stretch:normal;letter-spacing:normal;word-spacing:normal;text-anchor:start;fill:none;fill-opacity:1;fill-rule:evenodd;stroke:#000000;stroke-linecap:butt;stroke-linejoin:miter;stroke-miterlimit:10.43299961;stroke-dasharray:none;stroke-dashoffset:0;stroke-opacity:1" id="g7284" transform="matrix(2.7333073,0,0,-2.5940304,-152.69902,1310.4322)" xml:space="preserve" stroke-miterlimit="10.433" font-style="normal" font-variant="normal" font-weight="normal" font-stretch="normal" font-size-adjust="none" letter-spacing="normal" word-spacing="normal" ns0:text="$B$" ns0:preamble="/Users/kjb81/Documents/underground-inkscape-preamble.tex"><path style="fill:#000000;stroke-width:0" d="m 225.77,484.94 -0.06,-0.18 0.22,0 c 0.7,0 0.93,-0.19 0.93,-0.5 0,-0.07 -0.02,-0.19 -0.03,-0.25 l -1.45,-5.84 c -0.09,-0.4 -0.32,-0.75 -1.22,-0.75 l -0.23,0 -0.05,-0.19 3.83,0 c 2.44,0 3.41,1.12 3.41,2.28 0,1.01 -0.79,1.5 -1.5,1.63 l -0.04,0.05 c 0.24,0.06 0.58,0.15 0.88,0.31 0.56,0.28 1.07,0.81 1.07,1.73 0,1.61 -1.79,1.71 -2.79,1.71 l -0.01,-0.46 c 0.64,0 1.41,-0.24 1.41,-1.15 0,-1.15 -0.66,-1.93 -1.99,-1.93 l -0.13,-0.41 c 0.93,0 1.68,-0.41 1.68,-1.28 0,-1.53 -1.13,-2.03 -2.24,-2.03 -0.31,0 -0.55,0.03 -0.84,0.11 l 0.8,3.15 c 0.18,0.05 0.42,0.05 0.6,0.05 l 0.13,0.41 c -0.17,0 -0.39,0.03 -0.62,0.07 l 0.7,2.98 c 0.15,0.02 0.33,0.03 0.5,0.03 l 0.01,0.46 z" id="path7286" /></g>    <g id="g8780" transform="matrix(1.8246872,0,0,-1.8246872,-128.60247,935.7337)" xml:space="preserve" stroke-miterlimit="10.433" font-style="normal" font-variant="normal" font-weight="normal" font-stretch="normal" font-size-adjust="none" letter-spacing="normal" word-spacing="normal" ns0:text="$x^2-2$" ns0:preamble="/Users/kjb81/Documents/underground-inkscape-preamble.tex" style="font-style:normal;font-variant:normal;font-weight:normal;font-stretch:normal;letter-spacing:normal;word-spacing:normal;text-anchor:start;fill:none;fill-opacity:1;fill-rule:evenodd;stroke:#000000;stroke-linecap:butt;stroke-linejoin:miter;stroke-miterlimit:10.43299961;stroke-dasharray:none;stroke-dashoffset:0;stroke-opacity:1"><path style="fill:#000000;stroke-width:0" d="m 227.03,480.24 -0.23,0.65 c -0.15,0.39 -0.37,0.88 -0.89,1.16 l -1.56,-0.39 0.04,-0.21 c 0.12,0.04 0.29,0.07 0.45,0.07 0.65,0 0.95,-0.49 1.15,-1.05 l 0.39,-1.09 -0.76,-1.19 c -0.38,-0.58 -0.69,-0.7 -0.83,-0.7 -0.3,0 -0.25,0.24 -0.55,0.24 -0.3,0 -0.45,-0.25 -0.45,-0.44 0,-0.26 0.19,-0.55 0.61,-0.55 0.66,0 1,0.5 1.38,1.08 l 0.74,1.16 0.48,-1.34 c 0.15,-0.42 0.38,-0.9 0.86,-0.9 0.68,0 1.21,1.13 1.36,1.31 l -0.17,0.11 c -0.25,-0.5 -0.53,-0.67 -0.72,-0.67 -0.53,0 -0.8,1.59 -1.15,2.33 l 0.64,1 c 0.17,0.26 0.3,0.45 0.65,0.45 0.2,0 0.26,-0.11 0.52,-0.11 0.31,0 0.46,0.27 0.46,0.5 0,0.25 -0.2,0.39 -0.57,0.39 -0.6,0 -1.01,-0.52 -1.32,-0.99 z" id="path8782" /><path style="fill:#000000;stroke-width:0" d="m 233.88,482.72 -0.11,0.05 c -0.28,-0.47 -0.45,-0.56 -0.8,-0.56 l -1.94,0 1.37,1.46 c 0.74,0.78 1.06,1.4 1.06,2.06 0,0.82 -0.6,1.46 -1.54,1.46 -1.02,0 -1.55,-0.68 -1.72,-1.65 l 0.17,-0.05 c 0.33,0.82 0.62,1.08 1.22,1.08 0.71,0 1.16,-0.41 1.16,-1.17 0,-0.7 -0.3,-1.33 -1.08,-2.15 l -1.48,-1.57 0,-0.1 3.25,0 z" id="path8784" /><polygon style="fill:#000000;stroke-width:0" points="244.55,479.44 244.55,480.22 237.98,480.22 237.98,479.44 " id="polygon8786" /><path style="fill:#000000;stroke-width:0" d="m 253.56,478.46 -0.16,0.07 c -0.39,-0.66 -0.64,-0.79 -1.14,-0.79 l -2.76,0 1.95,2.08 c 1.05,1.11 1.51,1.99 1.51,2.92 0,1.17 -0.85,2.08 -2.18,2.08 -1.46,0 -2.21,-0.96 -2.46,-2.35 l 0.25,-0.06 c 0.47,1.16 0.89,1.54 1.73,1.54 1.01,0 1.65,-0.59 1.65,-1.66 0,-1.01 -0.43,-1.91 -1.54,-3.08 l -2.1,-2.23 0,-0.14 4.62,0 z" id="path8788" /></g>    <g id="g4451" transform="matrix(1.8251857,0,0,-1.8251857,139.50252,938.83419)" xml:space="preserve" stroke="black" stroke-linecap="butt" stroke-linejoin="miter" stroke-miterlimit="10.433" stroke-dasharray="none" stroke-dashoffset="0" stroke-opacity="1" fill="none" fill-rule="evenodd" fill-opacity="1" font-style="normal" font-variant="normal" font-weight="normal" font-stretch="normal" font-size-adjust="none" letter-spacing="normal" word-spacing="normal" text-anchor="start" ns0:text="$x-x^3$" ns0:preamble="/Users/kjb81/Documents/underground-inkscape-preamble.tex" style="font-style:normal;font-variant:normal;font-weight:normal;font-stretch:normal;letter-spacing:normal;word-spacing:normal;text-anchor:start;fill:none;fill-opacity:1;fill-rule:evenodd;stroke:#000000;stroke-linecap:butt;stroke-linejoin:miter;stroke-miterlimit:10.43299961;stroke-dasharray:none;stroke-dashoffset:0;stroke-opacity:1"><path d="M227.03,480.24 L226.8,480.89 C226.65,481.28,226.43,481.77,225.91,482.05 L224.35,481.66 L224.39,481.45 C224.51,481.49,224.68,481.52,224.84,481.52 C225.49,481.52,225.79,481.03,225.99,480.47 L226.38,479.38 L225.62,478.19 C225.24,477.61,224.93,477.49,224.79,477.49 C224.49,477.49,224.54,477.73,224.24,477.73 C223.94,477.73,223.79,477.48,223.79,477.29 C223.79,477.03,223.98,476.74,224.4,476.74 C225.06,476.74,225.4,477.24,225.78,477.82 L226.52,478.98 L227,477.64 C227.15,477.22,227.38,476.74,227.86,476.74 C228.54,476.74,229.07,477.87,229.22,478.05 L229.05,478.16 C228.8,477.66,228.52,477.49,228.33,477.49 C227.8,477.49,227.53,479.08,227.18,479.82 L227.82,480.82 C227.99,481.08,228.12,481.27,228.47,481.27 C228.67,481.27,228.73,481.16,228.99,481.16 C229.3,481.16,229.45,481.43,229.45,481.66 C229.45,481.91,229.25,482.05,228.88,482.05 C228.28,482.05,227.87,481.53,227.56,481.06 Z " stroke-width="0" fill="black" id="path4453" /><polygon points="239.91,479.44 239.91,480.22 233.33,480.22 233.33,479.44 " stroke-width="0" fill="black" id="polygon4455" /><path d="M246.93,480.24 L246.69,480.89 C246.55,481.28,246.32,481.77,245.8,482.05 L244.25,481.66 L244.28,481.45 C244.4,481.49,244.58,481.52,244.73,481.52 C245.38,481.52,245.69,481.03,245.89,480.47 L246.28,479.38 L245.51,478.19 C245.13,477.61,244.82,477.49,244.68,477.49 C244.39,477.49,244.43,477.73,244.13,477.73 C243.83,477.73,243.68,477.48,243.68,477.29 C243.68,477.03,243.87,476.74,244.29,476.74 C244.95,476.74,245.3,477.24,245.67,477.82 L246.42,478.98 L246.89,477.64 C247.04,477.22,247.27,476.74,247.75,476.74 C248.44,476.74,248.97,477.87,249.11,478.05 L248.94,478.16 C248.7,477.66,248.41,477.49,248.22,477.49 C247.69,477.49,247.42,479.08,247.07,479.82 L247.72,480.82 C247.88,481.08,248.01,481.27,248.37,481.27 C248.57,481.27,248.63,481.16,248.88,481.16 C249.19,481.16,249.35,481.43,249.35,481.66 C249.35,481.91,249.15,482.05,248.77,482.05 C248.18,482.05,247.76,481.53,247.46,481.06 Z " stroke-width="0" fill="black" id="path4457" /><path d="M250.35,485.81 L250.38,485.87 L250.42,485.92 L250.45,485.97 L250.48,486.02 L250.52,486.07 L250.55,486.12 L250.58,486.16 L250.62,486.21 L250.65,486.25 L250.69,486.29 L250.72,486.32 L250.76,486.36 L250.79,486.39 L250.83,486.42 L250.87,486.45 L250.91,486.48 L250.94,486.51 L250.98,486.53 L251.02,486.55 L251.06,486.57 L251.1,486.59 L251.14,486.61 L251.18,486.62 L251.23,486.64 L251.27,486.65 L251.31,486.66 L251.36,486.67 L251.4,486.68 L251.45,486.68 L251.49,486.69 L251.54,486.69 L251.59,486.69 C252.14,486.69,252.49,486.41,252.49,485.84 C252.49,485.34,252.22,484.96,251.81,484.73 C251.65,484.63,251.43,484.54,251.12,484.43 V484.32 C251.59,484.32,251.78,484.29,251.96,484.23 C252.54,484.07,252.83,483.66,252.83,483.03 C252.83,482.33,252.36,481.76,251.75,481.76 C251.51,481.76,251.34,481.81,251.03,482.02 C250.8,482.19,250.67,482.24,250.53,482.24 C250.34,482.24,250.19,482.11,250.19,481.94 C250.19,481.64,250.51,481.47,251.12,481.47 C251.86,481.47,252.64,481.71,253.04,482.24 C253.28,482.55,253.43,482.96,253.43,483.4 C253.43,483.83,253.29,484.21,253.06,484.47 C252.88,484.65,252.74,484.75,252.37,484.91 C252.93,485.24,253.14,485.65,253.14,486.05 C253.14,486.73,252.62,487.19,251.85,487.19 C250.98,487.19,250.46,486.63,250.22,485.84 Z " stroke-width="0" fill="black" id="path4459" /></g>    <g id="g4514" transform="matrix(1.7841661,0,0,-1.7841661,142.39829,1021.9296)" xml:space="preserve" stroke-miterlimit="10.433" font-style="normal" font-variant="normal" font-weight="normal" font-stretch="normal" font-size-adjust="none" letter-spacing="normal" word-spacing="normal" ns0:text="$\\sqrt{x+2}$" ns0:preamble="/Users/prmb/CMEP/underground-inkscape-preamble.tex" style="font-style:normal;font-variant:normal;font-weight:normal;font-stretch:normal;letter-spacing:normal;word-spacing:normal;text-anchor:start;fill:none;fill-opacity:1;fill-rule:evenodd;stroke:#000000;stroke-linecap:butt;stroke-linejoin:miter;stroke-miterlimit:10.43299961;stroke-dasharray:none;stroke-dashoffset:0;stroke-opacity:1"><path style="fill:#000000;stroke-width:0" d="m 234.8,486.5 -0.64,0 -4.88,-12.59 -0.05,0 -2.41,6.33 -0.22,0 -1.85,-1.46 0.15,-0.24 c 0.26,0.24 0.56,0.37 0.76,0.37 0.3,0 0.54,-0.17 0.74,-0.7 l 2.38,-6.26 0.38,0 z" id="path4516" /><line style="stroke-width:0.65799999" x1="234.42999" y1="486.20999" x2="259.41" y2="486.20999" id="line4518" /><path style="fill:#000000;stroke-width:0" d="m 238.03,478.14 -0.24,0.65 c -0.14,0.39 -0.36,0.88 -0.88,1.16 l -1.56,-0.39 0.03,-0.21 c 0.12,0.04 0.3,0.07 0.45,0.07 0.65,0 0.96,-0.49 1.16,-1.05 l 0.39,-1.09 -0.77,-1.19 c -0.38,-0.58 -0.68,-0.7 -0.82,-0.7 -0.3,0 -0.25,0.24 -0.56,0.24 -0.3,0 -0.45,-0.25 -0.45,-0.44 0,-0.26 0.19,-0.55 0.62,-0.55 0.66,0 1,0.5 1.38,1.08 l 0.74,1.16 0.47,-1.33 c 0.16,-0.43 0.38,-0.91 0.86,-0.91 0.69,0 1.22,1.13 1.36,1.31 l -0.16,0.12 c -0.25,-0.51 -0.54,-0.68 -0.72,-0.68 -0.54,0 -0.81,1.6 -1.16,2.33 l 0.65,1 c 0.16,0.26 0.29,0.45 0.65,0.45 0.2,0 0.26,-0.11 0.52,-0.11 0.3,0 0.46,0.28 0.46,0.5 0,0.25 -0.2,0.39 -0.58,0.39 -0.59,0 -1,-0.52 -1.31,-0.99 z" id="path4520" /><polygon style="fill:#000000;stroke-width:0" points="250.66,478.12 247.57,478.12 247.57,481.2 246.79,481.2 246.79,478.12 243.71,478.12 243.71,477.34 246.79,477.34 246.79,474.26 247.57,474.26 247.57,477.34 250.66,477.34 " id="polygon4522" /><path style="fill:#000000;stroke-width:0" d="m 259.08,476.36 -0.17,0.07 c -0.39,-0.66 -0.64,-0.79 -1.13,-0.79 l -2.77,0 1.95,2.08 c 1.05,1.11 1.51,1.99 1.51,2.93 0,1.17 -0.85,2.07 -2.18,2.07 -1.45,0 -2.21,-0.96 -2.46,-2.35 l 0.25,-0.05 c 0.47,1.15 0.89,1.53 1.74,1.53 1,0 1.64,-0.59 1.64,-1.66 0,-1.01 -0.43,-1.9 -1.54,-3.07 l -2.1,-2.23 0,-0.15 4.62,0 z" id="path4524" /></g>  </g>
</svg>