<?xml version='1.0' ?><svg xmlns:dc="http://purl.org/dc/elements/1.1/" xmlns:cc="http://creativecommons.org/ns#" xmlns:rdf="http://www.w3.org/1999/02/22-rdf-syntax-ns#" xmlns:svg="http://www.w3.org/2000/svg" xmlns="http://www.w3.org/2000/svg" version="1.1" id="svg2" width="161.82003" height="161.82003" viewBox="45.0000000000619 850.54217000117 161.8200300002226 161.8200300002226" preserveAspectRatio="none">
  <defs id="defs4">
    <marker style="overflow:visible;" id="marker4564" refX="0.0" refY="0.0" orient="auto">
      <path transform="scale(0.8) rotate(180) translate(12.5,0)" style="fill-rule:evenodd;stroke:#000000;stroke-width:1pt;stroke-opacity:1;fill:#000000;fill-opacity:1" d="M 0.0,0.0 L 5.0,-5.0 L -12.5,0.0 L 5.0,5.0 L 0.0,0.0 z " id="path4566" />
    </marker>
    <marker style="overflow:visible;" id="Arrow1Lend" refX="0.0" refY="0.0" orient="auto">
      <path transform="scale(0.8) rotate(180) translate(12.5,0)" style="fill-rule:evenodd;stroke:#000000;stroke-width:1pt;stroke-opacity:1;fill:#000000;fill-opacity:1" d="M 0.0,0.0 L 5.0,-5.0 L -12.5,0.0 L 5.0,5.0 L 0.0,0.0 z " id="path4283" />
    </marker>
  </defs>
  <metadata id="metadata7">
    <rdf:RDF>
      <cc:Work rdf:about="">
        <dc:format>image/svg+xml</dc:format>
        <dc:type rdf:resource="http://purl.org/dc/dcmitype/StillImage" />
        <dc:title />
      </cc:Work>
    </rdf:RDF>
  </metadata>
  <g id="layer1">
    <circle style="fill:none;fill-rule:nonzero;stroke:#000000;stroke-width:1;stroke-linecap:square;stroke-linejoin:miter;stroke-miterlimit:4;stroke-dasharray:none;stroke-dashoffset:0;fill-opacity:1.0;stroke-opacity:1.0" id="path4138" cx="119.67259" cy="937.03479" r="59.472912" />
    <path style="fill:none;fill-rule:evenodd;stroke:#000000;stroke-width:1px;stroke-linecap:butt;stroke-linejoin:miter;stroke-opacity:1;marker-end:url(#marker4564)" d="m 120,1012.3622 0,-160" id="path4140" />
    <path style="fill:none;fill-rule:evenodd;stroke:#000000;stroke-width:1px;stroke-linecap:butt;stroke-linejoin:miter;stroke-opacity:1;marker-end:url(#Arrow1Lend)" d="m 45,937.3622 160,0" id="path4142" />
    <path style="fill:none;fill-rule:evenodd;stroke:#000000;stroke-width:1.00572312px;stroke-linecap:butt;stroke-linejoin:miter;stroke-opacity:1" d="m 140,881.39951 0,111.26269" id="path4144" />
    <path style="fill:none;fill-rule:evenodd;stroke:#000000;stroke-width:0.98612899px;stroke-linecap:butt;stroke-linejoin:miter;stroke-opacity:1" d="m 145,883.59266 0,106.96954" id="path4146" />
    <path style="fill:#b3b3b3;fill-rule:nonzero;stroke:none;stroke-width:0.25253814;stroke-linecap:square;stroke-linejoin:miter;stroke-miterlimit:4;stroke-dasharray:none;stroke-dashoffset:0;fill-opacity:1.0;stroke-opacity:1.0" d="m 140.56919,964.94403 0,-27.0386 1.89403,0 1.89404,0 0,26.27786 0,26.27786 -1.32583,0.58325 c -0.7292,0.32078 -1.58152,0.66311 -1.89403,0.76073 l -0.56821,0.1775 0,-27.0386 z" id="path4148" />
    <path style="fill:#b3b3b3;fill-rule:nonzero;stroke:none;stroke-width:0.25253814;stroke-linecap:square;stroke-linejoin:miter;stroke-miterlimit:4;stroke-dasharray:none;stroke-dashoffset:0;fill-opacity:1.0;stroke-opacity:1.0" d="m 140.56919,909.3516 0,-27.29114 0.53007,0.16824 c 0.29154,0.0925 1.14385,0.43968 1.89403,0.77145 l 1.36397,0.60321 0,26.51969 0,26.51969 -1.89404,0 -1.89403,0 0,-27.29114 z" id="path4150" />
    <path style="fill:none;fill-rule:evenodd;stroke:#000000;stroke-width:1;stroke-linecap:butt;stroke-linejoin:miter;stroke-opacity:1;stroke-miterlimit:4;stroke-dasharray:none" d="m 120.00313,937.36159 19.99374,-56.26147" id="path4152" />
    <g transform="translate(223.24371,856.60936)" id="g4168">
      <g style="font-style:normal;font-variant:normal;font-weight:normal;font-stretch:normal;letter-spacing:normal;word-spacing:normal;text-anchor:start;fill:none;fill-opacity:1;fill-rule:evenodd;stroke:#000000;stroke-linecap:butt;stroke-linejoin:miter;stroke-miterlimit:10.43299961;stroke-dasharray:none;stroke-dashoffset:0;stroke-opacity:1" id="content" transform="matrix(1.0629921,0,0,-1.0629921,-186.02362,789.27165)" xml:space="preserve" stroke-miterlimit="10.433" font-style="normal" font-variant="normal" font-weight="normal" font-stretch="normal" font-size-adjust="none" letter-spacing="normal" word-spacing="normal"><path style="fill:#000000;stroke-width:0" d="m 152.3,660.63 -0.23,0.64 c -0.14,0.39 -0.37,0.87 -0.91,1.15 l -1.54,-0.39 0.04,-0.2 c 0.13,0.05 0.3,0.06 0.46,0.06 0.64,0 0.95,-0.48 1.14,-1.05 l 0.39,-1.07 -0.77,-1.19 c -0.37,-0.58 -0.67,-0.7 -0.81,-0.7 -0.3,0 -0.25,0.23 -0.56,0.23 -0.3,0 -0.44,-0.23 -0.44,-0.42 0,-0.27 0.19,-0.56 0.61,-0.56 0.66,0 1,0.51 1.37,1.09 l 0.74,1.14 0.47,-1.33 c 0.15,-0.42 0.39,-0.9 0.86,-0.9 0.68,0 1.22,1.14 1.36,1.31 l -0.18,0.11 c -0.23,-0.5 -0.51,-0.67 -0.7,-0.67 -0.53,0 -0.81,1.59 -1.15,2.32 l 0.64,1 c 0.17,0.25 0.29,0.44 0.65,0.44 0.19,0 0.25,-0.09 0.52,-0.09 0.29,0 0.45,0.26 0.45,0.48 0,0.25 -0.2,0.39 -0.58,0.39 -0.58,0 -1,-0.51 -1.29,-0.98 l -0.55,-0.81 z" id="path4171" /></g>    </g>
    <g transform="translate(154.04826,772.26163)" id="g4205">
      <g style="font-style:normal;font-variant:normal;font-weight:normal;font-stretch:normal;letter-spacing:normal;word-spacing:normal;text-anchor:start;fill:none;fill-opacity:1;fill-rule:evenodd;stroke:#000000;stroke-linecap:butt;stroke-linejoin:miter;stroke-miterlimit:10.43299961;stroke-dasharray:none;stroke-dashoffset:0;stroke-opacity:1" word-spacing="normal" letter-spacing="normal" font-size-adjust="none" font-stretch="normal" font-weight="normal" font-variant="normal" font-style="normal" stroke-miterlimit="10.433" xml:space="preserve" transform="matrix(1.0629921,0,0,-1.0629921,-186.02362,789.27165)" id="g4207"><path style="fill:#000000;stroke-width:0" id="path4209" d="m 151.88,660.84 -0.01,0.08 0,0.08 -0.01,0.08 -0.01,0.07 -0.01,0.07 -0.01,0.06 -0.01,0.06 -0.01,0.06 -0.01,0.06 -0.01,0.06 -0.01,0.05 -0.01,0.05 -0.01,0.05 -0.02,0.05 -0.01,0.05 -0.01,0.04 -0.01,0.05 -0.02,0.04 -0.01,0.04 -0.02,0.04 -0.03,0.07 -0.04,0.08 -0.04,0.07 -0.04,0.07 -0.05,0.07 -0.05,0.07 -1.76,-0.28 0.05,-0.21 c 0.09,0.02 0.28,0.06 0.42,0.06 0.65,0 0.76,-0.71 0.81,-1.25 l 0.44,-3.68 c -0.3,-0.47 -0.97,-1.21 -1.16,-1.21 -0.19,0 -0.17,0.36 -0.67,0.36 -0.16,0 -0.47,-0.12 -0.47,-0.47 0,-0.28 0.22,-0.65 0.66,-0.65 0.79,0 1.56,1.15 2.42,2.23 0.5,0.63 2.4,3.46 2.4,4.38 0,0.45 -0.29,0.72 -0.67,0.72 -0.34,0 -0.56,-0.21 -0.56,-0.47 0,-0.44 0.61,-0.56 0.61,-0.81 0,-0.21 -0.09,-0.44 -0.33,-0.88 -0.25,-0.48 -0.67,-1.19 -1.39,-2.17 z" /></g>    </g>
    <g transform="translate(150.51273,816.70834)" id="g4249">
      <g style="font-style:normal;font-variant:normal;font-weight:normal;font-stretch:normal;letter-spacing:normal;word-spacing:normal;text-anchor:start;fill:none;fill-opacity:1;fill-rule:evenodd;stroke:#000000;stroke-linecap:butt;stroke-linejoin:miter;stroke-miterlimit:10.43299961;stroke-dasharray:none;stroke-dashoffset:0;stroke-opacity:1" id="g4251" transform="matrix(1.0629921,0,0,-1.0629921,-186.02362,789.27165)" xml:space="preserve" stroke-miterlimit="10.433" font-style="normal" font-variant="normal" font-weight="normal" font-stretch="normal" font-size-adjust="none" letter-spacing="normal" word-spacing="normal"><path style="fill:#000000;stroke-width:0" d="m 154.26,662.27 -0.94,0 -0.11,-0.39 -0.01,0 c -0.02,0.26 -0.27,0.54 -0.77,0.54 l 0.02,-0.34 c 0.43,0 0.57,-0.35 0.57,-0.83 l 0,0 c 0,-0.41 -0.07,-0.87 -0.17,-1.17 -0.33,-1.13 -1.15,-2.25 -1.97,-2.25 -0.31,0 -0.67,0.15 -0.67,0.78 0,0.41 0.11,0.94 0.33,1.47 0.39,0.98 1.11,2 1.91,2 l -0.02,0.34 c -1.69,0 -3.25,-2.34 -3.25,-3.9 0,-0.75 0.31,-1.41 1.05,-1.41 0.47,0 1.18,0.16 2.03,1.25 l 0.04,0 c -0.04,-0.2 -0.12,-0.44 -0.12,-0.59 0,-0.38 0.11,-0.66 0.5,-0.66 0.56,0 1.2,0.72 1.56,1.27 l -0.14,0.14 c -0.45,-0.61 -0.64,-0.64 -0.75,-0.64 -0.09,0 -0.17,0.07 -0.17,0.2 0,0.11 0.02,0.14 0.02,0.14 l 0,0 1.06,4.05 z" id="path4253" /></g>    </g>
  </g>
</svg>