<?xml version='1.0' ?><svg xmlns:dc="http://purl.org/dc/elements/1.1/" xmlns:cc="http://creativecommons.org/ns#" xmlns:rdf="http://www.w3.org/1999/02/22-rdf-syntax-ns#" xmlns:svg="http://www.w3.org/2000/svg" xmlns="http://www.w3.org/2000/svg" version="1.1" id="svg4909" width="181.58255" height="193.5711" viewBox="39.42857700005423 831.2910800011434 181.58255000024977 193.57110000026628" preserveAspectRatio="none">
  <defs id="defs4911">
    <marker style="overflow:visible" id="Arrow1Lstart" refX="0.0" refY="0.0" orient="auto">
      <path transform="scale(0.8) translate(12.5,0)" style="fill-rule:evenodd;stroke:#000000;stroke-width:1pt;stroke-opacity:1;fill:#000000;fill-opacity:1" d="M 0.0,0.0 L 5.0,-5.0 L -12.5,0.0 L 5.0,5.0 L 0.0,0.0 z " id="path4219" />
    </marker>
    <marker style="overflow:visible;" id="Arrow1Lend" refX="0.0" refY="0.0" orient="auto">
      <path transform="scale(0.8) rotate(180) translate(12.5,0)" style="fill-rule:evenodd;stroke:#000000;stroke-width:1pt;stroke-opacity:1;fill:#000000;fill-opacity:1" d="M 0.0,0.0 L 5.0,-5.0 L -12.5,0.0 L 5.0,5.0 L 0.0,0.0 z " id="path4222" />
    </marker>
  </defs>
  <metadata id="metadata4914">
    <rdf:RDF>
      <cc:Work rdf:about="">
        <dc:format>image/svg+xml</dc:format>
        <dc:type rdf:resource="http://purl.org/dc/dcmitype/StillImage" />
        <dc:title />
      </cc:Work>
    </rdf:RDF>
  </metadata>
  <g id="layer1">
    <path id="path5465" d="m 50.501662,866.69256 0,135.66964" style="fill:none;fill-rule:evenodd;stroke:#000000;stroke-width:1;stroke-linecap:butt;stroke-linejoin:miter;stroke-miterlimit:4;stroke-dasharray:none;stroke-opacity:1" />
    <path id="path5469" d="M 50.429963,1001.9322 185.57113,867.05893" style="fill:none;fill-rule:evenodd;stroke:#000000;stroke-width:1;stroke-linecap:butt;stroke-linejoin:miter;stroke-miterlimit:4;stroke-dasharray:none;stroke-opacity:1" />
    <path id="path5471" d="m 185.5003,1002.3622 0,-135.64732" style="fill:none;fill-rule:evenodd;stroke:#000000;stroke-width:0.99999994;stroke-linecap:butt;stroke-linejoin:miter;stroke-miterlimit:4;stroke-dasharray:none;stroke-opacity:1" />
    <path id="path5473" d="m 122.51085,1001.8622 0,-168.75109" style="fill:none;fill-rule:evenodd;stroke:#000000;stroke-width:1;stroke-linecap:butt;stroke-linejoin:miter;stroke-miterlimit:4;stroke-dasharray:none;stroke-opacity:1;marker-end:url(#Arrow1Lend)" />
    <g transform="translate(-8,8.2999997)" id="g6300">
      <path style="fill:none;fill-rule:evenodd;stroke:#000000;stroke-width:1px;stroke-linecap:butt;stroke-linejoin:miter;stroke-opacity:1" d="m 150,1002.3622 0,-100" id="path5475" />
      <path style="fill:none;fill-rule:evenodd;stroke:#000000;stroke-width:1px;stroke-linecap:butt;stroke-linejoin:miter;stroke-opacity:1" d="m 160,1002.3622 0,-110" id="path5477" />
      <path style="fill:#b3b3b3;fill-rule:nonzero;stroke:#000000;stroke-width:0;stroke-linecap:butt;stroke-linejoin:miter;stroke-miterlimit:4;stroke-dasharray:none;stroke-dashoffset:0;fill-opacity:1.0;stroke-opacity:1.0" d="m 150.48,959.09571 0,-56.73848 4.53682,-4.48046 4.53682,-4.48048 0,61.21895 0,61.21896 -4.53682,0 -4.53682,0 0,-56.73849 z" id="path5491" />
    </g>
    <path id="path5671" d="m 65.201308,987.27991 c 5.478147,3.54284 7.298692,10.08229 7.274441,14.94549" style="fill:none;fill-rule:evenodd;stroke:#000000;stroke-width:0.99999994;stroke-linecap:butt;stroke-linejoin:miter;stroke-miterlimit:4;stroke-dasharray:none;stroke-opacity:1" />
    <path id="path5467" d="m 219.13296,1001.8622 -179.704383,0" style="fill:none;fill-rule:evenodd;stroke:#000000;stroke-width:1.0319438;stroke-linecap:butt;stroke-linejoin:miter;stroke-miterlimit:4;stroke-dasharray:none;stroke-opacity:1;marker-start:url(#Arrow1Lstart)" />
    <rect y="1002.3622" x="137" height="22.5" width="20" id="rect5744" style="fill:#ffffff;fill-rule:nonzero;stroke:none;stroke-width:1;stroke-linecap:square;stroke-linejoin:miter;stroke-miterlimit:4;stroke-dasharray:none;stroke-dashoffset:0;fill-opacity:1.0;stroke-opacity:1.0" />
    <g transform="translate(156.85714,756.42857)" id="g5784">
      <g style="font-style:normal;font-variant:normal;font-weight:normal;font-stretch:normal;letter-spacing:normal;word-spacing:normal;text-anchor:start;fill:none;fill-opacity:1;fill-rule:evenodd;stroke:#000000;stroke-linecap:butt;stroke-linejoin:miter;stroke-miterlimit:10.43299961;stroke-dasharray:none;stroke-dashoffset:0;stroke-opacity:1" word-spacing="normal" letter-spacing="normal" font-size-adjust="none" font-stretch="normal" font-weight="normal" font-variant="normal" font-style="normal" stroke-miterlimit="10.433" xml:space="preserve" transform="matrix(1.0629921,0,0,-1.0629921,-186.02362,789.27165)" id="content"><path style="fill:#000000;stroke-width:0" id="path5787" d="m 154.21,662.53 -3.7,0 -0.44,-1.61 0.22,-0.04 c 0.28,0.64 0.56,0.71 1.23,0.71 l 1.53,0 c -1.25,-1.46 -2.56,-2.9 -3.85,-4.36 l 0.14,-0.12 c 0.43,0.2 0.96,0.3 1.43,0.3 0.39,0 0.78,-0.07 1.16,-0.18 0.25,-0.06 0.55,-0.17 0.81,-0.17 0.53,0 1.24,0.32 1.24,0.96 0,0.28 -0.18,0.48 -0.47,0.48 -0.22,0 -0.44,-0.22 -0.44,-0.44 0,-0.26 0.14,-0.29 0.14,-0.45 0,-0.19 -0.14,-0.28 -0.33,-0.28 -0.53,0 -0.56,1.01 -1.64,1.01 -0.26,0 -0.56,-0.07 -0.79,-0.25 l -0.04,0.02 c 1.27,1.41 2.52,2.81 3.8,4.23 z" /></g>    </g>
    <g transform="translate(238.21428,921.47855)" id="g5845">
      <g style="font-style:normal;font-variant:normal;font-weight:normal;font-stretch:normal;letter-spacing:normal;word-spacing:normal;text-anchor:start;fill:none;fill-opacity:1;fill-rule:evenodd;stroke:#000000;stroke-linecap:butt;stroke-linejoin:miter;stroke-miterlimit:10.43299961;stroke-dasharray:none;stroke-dashoffset:0;stroke-opacity:1" id="g5847" transform="matrix(1.0629921,0,0,-1.0629921,-186.02362,789.27165)" xml:space="preserve" stroke-miterlimit="10.433" font-style="normal" font-variant="normal" font-weight="normal" font-stretch="normal" font-size-adjust="none" letter-spacing="normal" word-spacing="normal"><path style="fill:#000000;stroke-width:0" d="m 152.3,660.63 -0.23,0.64 c -0.14,0.39 -0.37,0.87 -0.91,1.15 l -1.54,-0.39 0.04,-0.2 c 0.13,0.05 0.3,0.06 0.46,0.06 0.64,0 0.95,-0.48 1.14,-1.05 l 0.39,-1.07 -0.77,-1.19 c -0.37,-0.58 -0.67,-0.7 -0.81,-0.7 -0.3,0 -0.25,0.23 -0.56,0.23 -0.3,0 -0.44,-0.23 -0.44,-0.42 0,-0.27 0.19,-0.56 0.61,-0.56 0.66,0 1,0.51 1.37,1.09 l 0.74,1.14 0.47,-1.33 c 0.15,-0.42 0.39,-0.9 0.86,-0.9 0.68,0 1.22,1.14 1.36,1.31 l -0.18,0.11 c -0.23,-0.5 -0.51,-0.67 -0.7,-0.67 -0.53,0 -0.81,1.59 -1.15,2.32 l 0.64,1 c 0.17,0.25 0.29,0.44 0.65,0.44 0.19,0 0.25,-0.09 0.52,-0.09 0.29,0 0.45,0.26 0.45,0.48 0,0.25 -0.2,0.39 -0.58,0.39 -0.58,0 -1,-0.51 -1.29,-0.98 l -0.55,-0.81 z" id="path5849" /></g>    </g>
    <g transform="translate(210.71428,921.45729)" id="g5913">
      <g style="font-style:normal;font-variant:normal;font-weight:normal;font-stretch:normal;letter-spacing:normal;word-spacing:normal;text-anchor:start;fill:none;fill-opacity:1;fill-rule:evenodd;stroke:#000000;stroke-linecap:butt;stroke-linejoin:miter;stroke-miterlimit:10.43299961;stroke-dasharray:none;stroke-dashoffset:0;stroke-opacity:1" word-spacing="normal" letter-spacing="normal" font-size-adjust="none" font-stretch="normal" font-weight="normal" font-variant="normal" font-style="normal" stroke-miterlimit="10.433" xml:space="preserve" transform="matrix(1.0629921,0,0,-1.0629921,-186.02362,789.27165)" id="g5915"><path style="fill:#000000;stroke-width:0" id="path5917" d="m 154.26,662.27 -0.94,0 -0.11,-0.39 -0.01,0 c -0.02,0.26 -0.27,0.54 -0.77,0.54 l 0.02,-0.34 c 0.43,0 0.57,-0.35 0.57,-0.83 l 0,0 c 0,-0.41 -0.07,-0.87 -0.17,-1.17 -0.33,-1.13 -1.15,-2.25 -1.97,-2.25 -0.31,0 -0.67,0.15 -0.67,0.78 0,0.41 0.11,0.94 0.33,1.47 0.39,0.98 1.11,2 1.91,2 l -0.02,0.34 c -1.69,0 -3.25,-2.34 -3.25,-3.9 0,-0.75 0.31,-1.41 1.05,-1.41 0.47,0 1.18,0.16 2.03,1.25 l 0.04,0 c -0.04,-0.2 -0.12,-0.44 -0.12,-0.59 0,-0.38 0.11,-0.66 0.5,-0.66 0.56,0 1.2,0.72 1.56,1.27 l -0.14,0.14 c -0.45,-0.61 -0.64,-0.64 -0.75,-0.64 -0.09,0 -0.17,0.07 -0.17,0.2 0,0.11 0.02,0.14 0.02,0.14 l 0,0 1.06,4.05 z" /></g>    </g>
    <g transform="translate(69.428568,922.85714)" id="g5987">
      <g style="font-style:normal;font-variant:normal;font-weight:normal;font-stretch:normal;letter-spacing:normal;word-spacing:normal;text-anchor:start;fill:none;fill-opacity:1;fill-rule:evenodd;stroke:#000000;stroke-linecap:butt;stroke-linejoin:miter;stroke-miterlimit:10.43299961;stroke-dasharray:none;stroke-dashoffset:0;stroke-opacity:1" id="g5989" transform="matrix(1.0629921,0,0,-1.0629921,-186.02362,789.27165)" xml:space="preserve" stroke-miterlimit="10.433" font-style="normal" font-variant="normal" font-weight="normal" font-stretch="normal" font-size-adjust="none" letter-spacing="normal" word-spacing="normal"><polygon style="fill:#000000;stroke-width:0" points="149.46,659.83 156.02,659.83 156.02,659.83 156.02,660.59 149.46,660.59 " id="polygon5991" /><path style="fill:#000000;stroke-width:0" d="m 162.37,663.58697 -0.94,0 -0.11,-0.39 -0.01,0 c -0.02,0.26 -0.27,0.54 -0.77,0.54 l 0.02,-0.34 c 0.44,0 0.58,-0.35 0.58,-0.83 l 0,0 c 0,-0.41 -0.08,-0.87 -0.18,-1.17 -0.32,-1.13 -1.15,-2.25 -1.96,-2.25 -0.32,0 -0.68,0.15 -0.68,0.78 0,0.41 0.11,0.94 0.33,1.47 0.39,0.98 1.11,2 1.91,2 l -0.02,0.34 c -1.69,0 -3.25,-2.34 -3.25,-3.9 0,-0.75 0.31,-1.41 1.05,-1.41 0.47,0 1.19,0.16 2.03,1.25 l 0.05,0 c -0.05,-0.2 -0.13,-0.44 -0.13,-0.59 0,-0.38 0.11,-0.66 0.5,-0.66 0.56,0 1.21,0.72 1.56,1.27 l -0.14,0.14 c -0.45,-0.61 -0.64,-0.64 -0.75,-0.64 -0.09,0 -0.17,0.07 -0.17,0.2 0,0.11 0.02,0.14 0.02,0.14 l 0,0 1.06,4.05 z" id="path5993" /></g>    </g>
    <g transform="translate(216.78571,780.35714)" id="g6071">
      <g style="font-style:normal;font-variant:normal;font-weight:normal;font-stretch:normal;letter-spacing:normal;word-spacing:normal;text-anchor:start;fill:none;fill-opacity:1;fill-rule:evenodd;stroke:#000000;stroke-linecap:butt;stroke-linejoin:miter;stroke-miterlimit:10.43299961;stroke-dasharray:none;stroke-dashoffset:0;stroke-opacity:1" word-spacing="normal" letter-spacing="normal" font-size-adjust="none" font-stretch="normal" font-weight="normal" font-variant="normal" font-style="normal" stroke-miterlimit="10.433" xml:space="preserve" transform="matrix(1.0629921,0,0,-1.0629921,-186.02362,789.27165)" id="g6073"><path style="fill:#000000;stroke-width:0" id="path6075" d="m 154.29,658.84 -0.17,0.08 c -0.38,-0.65 -0.63,-0.79 -1.13,-0.79 l -2.75,0 1.94,2.07 c 1.05,1.11 1.52,1.99 1.52,2.93 0,1.15 -0.86,2.06 -2.19,2.06 -1.44,0 -2.21,-0.97 -2.46,-2.35 l 0.25,-0.06 c 0.49,1.16 0.9,1.53 1.74,1.53 1,0 1.64,-0.58 1.64,-1.65 0,-1 -0.42,-1.89 -1.53,-3.07 l -2.1,-2.21 0,-0.15 4.6,0 0.64,1.61 z" /><path style="fill:#000000;stroke-width:0" id="path6077" d="m 160.18,662.27 -0.94,0 -0.11,-0.39 -0.01,0 c -0.02,0.26 -0.27,0.54 -0.77,0.54 l 0.02,-0.34 c 0.43,0 0.58,-0.35 0.58,-0.83 l 0,0 c 0,-0.41 -0.08,-0.87 -0.18,-1.17 -0.32,-1.13 -1.15,-2.25 -1.97,-2.25 -0.31,0 -0.67,0.15 -0.67,0.78 0,0.41 0.11,0.94 0.33,1.47 0.39,0.98 1.11,2 1.91,2 l -0.02,0.34 c -1.69,0 -3.25,-2.34 -3.25,-3.9 0,-0.75 0.31,-1.41 1.05,-1.41 0.47,0 1.19,0.16 2.03,1.25 l 0.05,0 c -0.05,-0.2 -0.13,-0.44 -0.13,-0.59 0,-0.38 0.11,-0.66 0.5,-0.66 0.56,0 1.2,0.72 1.56,1.27 l -0.14,0.14 c -0.45,-0.61 -0.64,-0.64 -0.75,-0.64 -0.09,0 -0.17,0.07 -0.17,0.2 0,0.11 0.02,0.14 0.02,0.14 l 0,0 1.06,4.05 z" /></g>    </g>
    <g transform="translate(101.07143,905.35714)" id="g6163">
      <g style="font-style:normal;font-variant:normal;font-weight:normal;font-stretch:normal;letter-spacing:normal;word-spacing:normal;text-anchor:start;fill:none;fill-opacity:1;fill-rule:evenodd;stroke:#000000;stroke-linecap:butt;stroke-linejoin:miter;stroke-miterlimit:10.43299961;stroke-dasharray:none;stroke-dashoffset:0;stroke-opacity:1" id="g6165" transform="matrix(1.0629921,0,0,-1.0629921,-186.02362,789.27165)" xml:space="preserve" stroke-miterlimit="10.433" font-style="normal" font-variant="normal" font-weight="normal" font-stretch="normal" font-size-adjust="none" letter-spacing="normal" word-spacing="normal"><polygon style="fill:#000000;stroke-width:0" points="153.07,659.95 153.07,665.19 152.55,665.19 148.85,659.95 149.32,659.95 152.15,663.98 152.15,659.95 149.32,659.95 148.85,659.95 148.85,659.2 152.15,659.2 152.15,657.23 153.07,657.23 153.07,659.2 154.27,659.2 154.27,659.2 154.27,659.95 " id="polygon6167" /><path style="fill:#000000;stroke-width:0" d="m 159.79,665.25 -0.11,0.08 c -0.19,-0.25 -0.3,-0.3 -0.56,-0.3 l -2.44,0 -1.28,-2.8 c 0,0 -0.02,-0.03 -0.02,-0.06 0,-0.06 0.03,-0.09 0.14,-0.09 1.14,0 1.96,-0.38 2.52,-0.81 0.53,-0.44 0.78,-1.02 0.78,-1.77 0,-1.02 -0.77,-2 -1.59,-2 -0.24,0 -0.5,0.11 -0.83,0.38 -0.38,0.31 -0.6,0.37 -0.88,0.37 -0.32,0 -0.53,-0.16 -0.53,-0.45 0,-0.44 0.63,-0.74 1.5,-0.74 0.8,0 1.46,0.19 2,0.58 0.8,0.59 1.16,1.33 1.16,2.45 0,0.63 -0.11,1.08 -0.42,1.5 -0.66,0.93 -1.25,1.19 -2.94,1.5 l 0.47,1 2.28,0 c 0.19,0 0.28,0.08 0.33,0.16 l 0.42,1 z" id="path6169" /><path style="fill:#000000;stroke-width:0" d="m 163.31,663.45 0,0.06 -0.01,0.06 0,0.06 -0.02,0.06 -0.01,0.06 -0.01,0.06 -0.02,0.05 -0.02,0.06 -0.03,0.05 -0.02,0.05 -0.03,0.05 -0.03,0.05 -0.04,0.05 -0.03,0.04 -0.04,0.05 -0.04,0.04 -0.04,0.04 -0.04,0.04 -0.05,0.03 -0.04,0.04 -0.05,0.03 -0.05,0.03 -0.05,0.03 -0.06,0.02 -0.05,0.02 -0.06,0.02 -0.05,0.02 -0.06,0.01 -0.06,0.01 -0.06,0.01 -0.06,0 -0.06,0.01 c -0.67,0 -1.2,-0.52 -1.2,-1.19 l 0.58,0 c 0,0.33 0.26,0.59 0.62,0.59 0.33,0 0.59,-0.26 0.59,-0.61 l 0,0 c 0,-0.34 -0.26,-0.61 -0.61,-0.61 -0.34,0 -0.6,0.25 -0.6,0.63 l -0.58,0 c 0,-0.69 0.51,-1.22 1.18,-1.22 0.68,0 1.21,0.53 1.21,1.2 z" id="path6171" /></g>    </g>
    <g id="g6369" transform="translate(161.42857,925.35715)">
      <g word-spacing="normal" letter-spacing="normal" font-size-adjust="none" font-stretch="normal" font-weight="normal" font-variant="normal" font-style="normal" stroke-miterlimit="10.433" xml:space="preserve" transform="matrix(1.0629921,0,0,-1.0629921,-186.02362,789.27165)" id="g6371" style="font-style:normal;font-variant:normal;font-weight:normal;font-stretch:normal;letter-spacing:normal;word-spacing:normal;text-anchor:start;fill:none;fill-opacity:1;fill-rule:evenodd;stroke:#000000;stroke-linecap:butt;stroke-linejoin:miter;stroke-miterlimit:10.43299961;stroke-dasharray:none;stroke-dashoffset:0;stroke-opacity:1"><path id="path6377" d="m 159.89964,662.50852 0,0.02 0,0.03 0,0.02 0,0.02 -0.01,0.05 -0.02,0.04 -0.01,0.04 -0.02,0.04 -0.03,0.03 -0.02,0.04 -0.03,0.03 -0.04,0.03 -0.03,0.03 -0.04,0.03 -0.04,0.03 -0.04,0.02 -0.04,0.02 -0.05,0.03 -0.05,0.02 -0.05,0.01 -0.05,0.02 -0.05,0.02 -0.05,0.01 -0.05,0.01 -0.06,0.02 -0.05,0.01 -0.06,0.01 -0.05,0 -0.06,0.01 -0.06,0 -0.05,0.01 -0.06,0 -0.05,0 -0.06,0 c -0.78,0 -1.97,-0.5 -1.97,-1.62 0,-0.64 0.68,-1 1.21,-1.55 -1.63,-0.15 -2.8,-1.7 -2.8,-3.11 0,-0.93 0.58,-1.7 1.72,-1.7 l 0.03,0.34 c -0.52,0 -0.83,0.55 -0.83,1.19 0,1.05 1.1,2.94 2.11,2.94 0.45,0 0.63,-0.66 0.63,-1.17 l 0,0 c 0,-1.13 -0.86,-2.96 -1.91,-2.96 l -0.03,-0.34 c 1.36,0 2.31,0.94 2.72,1.95 0.15,0.39 0.22,0.92 0.22,1.32 0,1.65 -2.64,2.32 -2.64,3.45 0,0.44 0.6,0.78 1.06,0.78 1.06,0 0.44,-0.77 1.22,-0.77 0.36,0 0.54,0.3 0.54,0.55 z" style="fill:#000000;stroke-width:0" /><path id="path6379" d="m 164.13964,658.74852 -0.23,0.64 c -0.14,0.39 -0.38,0.87 -0.91,1.15 l -1.54,-0.39 0.04,-0.2 c 0.13,0.05 0.3,0.06 0.46,0.06 0.64,0 0.95,-0.48 1.14,-1.05 l 0.39,-1.07 -0.77,-1.19 c -0.37,-0.58 -0.67,-0.7 -0.81,-0.7 -0.3,0 -0.25,0.23 -0.56,0.23 -0.3,0 -0.44,-0.23 -0.44,-0.42 0,-0.27 0.19,-0.56 0.61,-0.56 0.65,0 1,0.51 1.37,1.09 l 0.74,1.14 0.47,-1.33 c 0.15,-0.42 0.39,-0.9 0.86,-0.9 0.68,0 1.21,1.14 1.35,1.31 l -0.17,0.11 c -0.23,-0.5 -0.51,-0.67 -0.7,-0.67 -0.53,0 -0.81,1.59 -1.16,2.32 l 0.64,1 c 0.18,0.25 0.3,0.44 0.66,0.44 0.19,0 0.25,-0.09 0.52,-0.09 0.29,0 0.45,0.26 0.45,0.48 0,0.25 -0.2,0.39 -0.58,0.39 -0.58,0 -1,-0.51 -1.3,-0.98 l -0.54,-0.81 z" style="fill:#000000;stroke-width:0" /></g>    </g>
    <g transform="translate(169.64286,910.35714)" id="g6492">
      <g style="font-style:normal;font-variant:normal;font-weight:normal;font-stretch:normal;letter-spacing:normal;word-spacing:normal;text-anchor:start;fill:none;fill-opacity:1;fill-rule:evenodd;stroke:#000000;stroke-linecap:butt;stroke-linejoin:miter;stroke-miterlimit:10.43299961;stroke-dasharray:none;stroke-dashoffset:0;stroke-opacity:1" id="g6494" transform="matrix(1.0629921,0,0,-1.0629921,-186.02362,789.27165)" xml:space="preserve" stroke-miterlimit="10.433" font-style="normal" font-variant="normal" font-weight="normal" font-stretch="normal" font-size-adjust="none" letter-spacing="normal" word-spacing="normal"><path style="fill:#000000;stroke-width:0" d="m 159.54,654.88 -0.27,0 c -0.28,-0.91 -0.28,-1.33 -1.37,-1.33 l -3.07,0 c -0.56,0 -1.08,-0.67 -1.17,-1.19 -0.12,0.5 -0.62,1.19 -1.19,1.19 l -3.06,0 c -1.11,0 -1.09,0.42 -1.37,1.33 l -0.27,0 c 0,-0.79 0.36,-2.52 1.98,-2.52 l 2.58,0 c 0.85,0 0.96,-0.53 1.19,-1.34 l 0.25,0 c 0.25,0.81 0.36,1.34 1.2,1.34 l 2.58,0 c 1.56,0 1.99,1.66 1.99,2.37 z" id="path6496" /></g>    </g>
    <path style="fill:none;fill-rule:evenodd;stroke:#000000;stroke-width:1.03199995;stroke-linecap:butt;stroke-linejoin:miter;stroke-miterlimit:4;stroke-dasharray:none;stroke-opacity:1" d="m 185.60616,867.21928 -135.106158,0" id="path4396" />
  </g>
</svg>