<?xml version='1.0' ?><svg xmlns:dc="http://purl.org/dc/elements/1.1/" xmlns:cc="http://creativecommons.org/ns#" xmlns:rdf="http://www.w3.org/1999/02/22-rdf-syntax-ns#" xmlns:svg="http://www.w3.org/2000/svg" xmlns="http://www.w3.org/2000/svg" version="1.1" id="svg2" width="190.19801" height="250.00138" viewBox="30.00000000004127 742.5833100010215 190.19801000026163 250.00138000034391" preserveAspectRatio="none">
  <defs id="defs4">
    <marker style="overflow:visible;" id="marker4609" refX="0.0" refY="0.0" orient="auto">
      <path transform="scale(0.8) rotate(180) translate(12.5,0)" style="fill-rule:evenodd;stroke:#000000;stroke-width:1pt;stroke-opacity:1;fill:#000000;fill-opacity:1" d="M 0.0,0.0 L 5.0,-5.0 L -12.5,0.0 L 5.0,5.0 L 0.0,0.0 z " id="path4611" />
    </marker>
    <marker orient="auto" refY="0.0" refX="0.0" id="marker4539" style="overflow:visible;">
      <path id="path4541" d="M 0.0,0.0 L 5.0,-5.0 L -12.5,0.0 L 5.0,5.0 L 0.0,0.0 z " style="fill-rule:evenodd;stroke:#000000;stroke-width:1pt;stroke-opacity:1;fill:#000000;fill-opacity:1" transform="scale(0.8) rotate(180) translate(12.5,0)" />
    </marker>
    <marker orient="auto" refY="0.0" refX="0.0" id="Arrow1Lend" style="overflow:visible;">
      <path id="path4222" d="M 0.0,0.0 L 5.0,-5.0 L -12.5,0.0 L 5.0,5.0 L 0.0,0.0 z " style="fill-rule:evenodd;stroke:#000000;stroke-width:1pt;stroke-opacity:1;fill:#000000;fill-opacity:1" transform="scale(0.8) rotate(180) translate(12.5,0)" />
    </marker>
  </defs>
  <metadata id="metadata7">
    <rdf:RDF>
      <cc:Work rdf:about="">
        <dc:format>image/svg+xml</dc:format>
        <dc:type rdf:resource="http://purl.org/dc/dcmitype/StillImage" />
        <dc:title />
      </cc:Work>
    </rdf:RDF>
  </metadata>
  <g id="layer1">
    <g transform="matrix(0.74403436,0,0,0.74432183,7.6789692,253.72535)" id="g4187">
      <ellipse ry="40.714287" rx="96.785713" cy="931.14789" cx="147.28571" id="path4136-1" style="fill:none;fill-rule:nonzero;stroke:#000000;stroke-width:1.34376442;stroke-linecap:butt;stroke-linejoin:miter;stroke-miterlimit:4;stroke-dasharray:none;stroke-dashoffset:0;fill-opacity:1.0;stroke-opacity:1.0" />
      <rect y="882.36218" x="40" height="50" width="210" id="rect4185" style="fill:#ffffff;fill-rule:nonzero;stroke:none;stroke-width:1;stroke-linecap:butt;stroke-linejoin:miter;stroke-miterlimit:4;stroke-dasharray:none;stroke-dashoffset:0;fill-opacity:1.0;stroke-opacity:1.0" />
    </g>
    <path style="fill:none;fill-rule:evenodd;stroke:#000000;stroke-width:1;stroke-linecap:butt;stroke-linejoin:miter;stroke-miterlimit:4;stroke-dasharray:none;stroke-opacity:1" d="m 189.22335,806.40168 0,141.30121" id="path4193" />
    <ellipse style="fill:none;fill-rule:nonzero;stroke:#956aaf;stroke-width:1.00000167;stroke-linecap:butt;stroke-linejoin:miter;stroke-miterlimit:4;stroke-dasharray:none;stroke-dashoffset:0;fill-opacity:1.0;stroke-opacity:1.0" id="path4197" cx="-539.20062" cy="705.06873" rx="100.38599" ry="13.218945" transform="matrix(0.70803596,-0.70617638,0.70803596,0.70617638,0,0)" />
    <path style="fill:none;fill-rule:evenodd;stroke:#956aaf;stroke-width:0.99999994;stroke-linecap:butt;stroke-linejoin:miter;stroke-miterlimit:4;stroke-dasharray:4.00000002, 4.00000002;stroke-dashoffset:0;stroke-opacity:1" d="M 45.844753,949.0547 189.41021,807.39743" id="path4199" />
    <path style="fill:none;fill-rule:evenodd;stroke:#000000;stroke-width:1.03734112;stroke-linecap:butt;stroke-linejoin:miter;stroke-miterlimit:4;stroke-dasharray:none;stroke-opacity:1;marker-end:url(#Arrow1Lend)" d="m 30,948.90478 188.31002,0" id="path4201" />
    <path style="fill:none;fill-rule:evenodd;stroke:#000000;stroke-width:1.0365026;stroke-linecap:butt;stroke-linejoin:miter;stroke-miterlimit:4;stroke-dasharray:none;stroke-opacity:1;marker-end:url(#marker4539)" d="m 117.91324,992.3622 0,-247.89243" id="path4203" />
    <path style="fill:none;fill-rule:evenodd;stroke:#000000;stroke-width:0.99999994px;stroke-linecap:butt;stroke-linejoin:miter;stroke-opacity:1;marker-end:url(#marker4609)" d="M 96.109149,992.35799 142.35214,901.45282" id="path4601" />
    <g transform="matrix(1.4879806,0,0,1.4885555,247.04047,827.87285)" id="g4731">
      <g style="font-style:normal;font-variant:normal;font-weight:normal;font-stretch:normal;letter-spacing:normal;word-spacing:normal;text-anchor:start;fill:none;fill-opacity:1;fill-rule:evenodd;stroke:#000000;stroke-width:1.34376442;stroke-linecap:butt;stroke-linejoin:miter;stroke-miterlimit:10.43299961;stroke-dasharray:none;stroke-dashoffset:0;stroke-opacity:1" id="content" transform="matrix(1.0629921,0,0,-1.0629921,-186.02362,789.27165)" xml:space="preserve" stroke-miterlimit="10.433" font-style="normal" font-variant="normal" font-weight="normal" font-stretch="normal" font-size-adjust="none" letter-spacing="normal" word-spacing="normal"><path style="fill:#000000;stroke-width:0" d="m 152.3,660.63 -0.23,0.64 c -0.14,0.39 -0.37,0.87 -0.91,1.15 l -1.54,-0.39 0.04,-0.2 c 0.13,0.05 0.3,0.06 0.46,0.06 0.64,0 0.95,-0.48 1.14,-1.05 l 0.39,-1.07 -0.77,-1.19 c -0.37,-0.58 -0.67,-0.7 -0.81,-0.7 -0.3,0 -0.25,0.23 -0.56,0.23 -0.3,0 -0.44,-0.23 -0.44,-0.42 0,-0.27 0.19,-0.56 0.61,-0.56 0.66,0 1,0.51 1.37,1.09 l 0.74,1.14 0.47,-1.33 c 0.15,-0.42 0.39,-0.9 0.86,-0.9 0.68,0 1.22,1.14 1.36,1.31 l -0.18,0.11 c -0.23,-0.5 -0.51,-0.67 -0.7,-0.67 -0.53,0 -0.81,1.59 -1.15,2.32 l 0.64,1 c 0.17,0.25 0.29,0.44 0.65,0.44 0.19,0 0.25,-0.09 0.52,-0.09 0.29,0 0.45,0.26 0.45,0.48 0,0.25 -0.2,0.39 -0.58,0.39 -0.58,0 -1,-0.51 -1.29,-0.98 l -0.55,-0.81 z" id="path4734" /></g>    </g>
    <g transform="matrix(1.4879806,0,0,1.4885555,189.64353,770.9854)" id="g4796">
      <g style="font-style:normal;font-variant:normal;font-weight:normal;font-stretch:normal;letter-spacing:normal;word-spacing:normal;text-anchor:start;fill:none;fill-opacity:1;fill-rule:evenodd;stroke:#000000;stroke-width:1.34376442;stroke-linecap:butt;stroke-linejoin:miter;stroke-miterlimit:10.43299961;stroke-dasharray:none;stroke-dashoffset:0;stroke-opacity:1" word-spacing="normal" letter-spacing="normal" font-size-adjust="none" font-stretch="normal" font-weight="normal" font-variant="normal" font-style="normal" stroke-miterlimit="10.433" xml:space="preserve" transform="matrix(1.0629921,0,0,-1.0629921,-186.02362,789.27165)" id="g4798"><path style="fill:#000000;stroke-width:0" id="path4800" d="m 151.88,660.84 -0.01,0.08 0,0.08 -0.01,0.08 -0.01,0.07 -0.01,0.07 -0.01,0.06 -0.01,0.06 -0.01,0.06 -0.01,0.06 -0.01,0.06 -0.01,0.05 -0.01,0.05 -0.01,0.05 -0.02,0.05 -0.01,0.05 -0.01,0.04 -0.01,0.05 -0.02,0.04 -0.01,0.04 -0.02,0.04 -0.03,0.07 -0.04,0.08 -0.04,0.07 -0.04,0.07 -0.05,0.07 -0.05,0.07 -1.76,-0.28 0.05,-0.21 c 0.09,0.02 0.28,0.06 0.42,0.06 0.65,0 0.76,-0.71 0.81,-1.25 l 0.44,-3.68 c -0.3,-0.47 -0.97,-1.21 -1.16,-1.21 -0.19,0 -0.17,0.36 -0.67,0.36 -0.16,0 -0.47,-0.12 -0.47,-0.47 0,-0.28 0.22,-0.65 0.66,-0.65 0.79,0 1.56,1.15 2.42,2.23 0.5,0.63 2.4,3.46 2.4,4.38 0,0.45 -0.29,0.72 -0.67,0.72 -0.34,0 -0.56,-0.21 -0.56,-0.47 0,-0.44 0.61,-0.56 0.61,-0.81 0,-0.21 -0.09,-0.44 -0.33,-0.88 -0.25,-0.48 -0.67,-1.19 -1.39,-2.17 z" /></g>    </g>
    <g transform="matrix(1.4879806,0,0,1.4885555,165.19674,619.4633)" id="g4868">
      <g style="font-style:normal;font-variant:normal;font-weight:normal;font-stretch:normal;letter-spacing:normal;word-spacing:normal;text-anchor:start;fill:none;fill-opacity:1;fill-rule:evenodd;stroke:#000000;stroke-width:1.34376442;stroke-linecap:butt;stroke-linejoin:miter;stroke-miterlimit:10.43299961;stroke-dasharray:none;stroke-dashoffset:0;stroke-opacity:1" id="g4870" transform="matrix(1.0629921,0,0,-1.0629921,-186.02362,789.27165)" xml:space="preserve" stroke-miterlimit="10.433" font-style="normal" font-variant="normal" font-weight="normal" font-stretch="normal" font-size-adjust="none" letter-spacing="normal" word-spacing="normal"><path style="fill:#000000;stroke-width:0" d="m 154.21,662.53 -3.7,0 -0.44,-1.61 0.22,-0.04 c 0.28,0.64 0.56,0.71 1.23,0.71 l 1.53,0 c -1.25,-1.46 -2.56,-2.9 -3.85,-4.36 l 0.14,-0.12 c 0.43,0.2 0.96,0.3 1.43,0.3 0.39,0 0.78,-0.07 1.16,-0.18 0.25,-0.06 0.55,-0.17 0.81,-0.17 0.53,0 1.24,0.32 1.24,0.96 0,0.28 -0.18,0.48 -0.47,0.48 -0.22,0 -0.44,-0.22 -0.44,-0.44 0,-0.26 0.14,-0.29 0.14,-0.45 0,-0.19 -0.14,-0.28 -0.33,-0.28 -0.53,0 -0.56,1.01 -1.64,1.01 -0.26,0 -0.56,-0.07 -0.79,-0.25 l -0.04,0.02 c 1.27,1.41 2.52,2.81 3.8,4.23 z" id="path4872" /></g>    </g>
    <path id="path4663" d="M 99.809455,913.65771 136.65888,842.05482" style="fill:none;fill-rule:evenodd;stroke:#956aaf;stroke-width:0.99999988;stroke-linecap:butt;stroke-linejoin:miter;stroke-miterlimit:4;stroke-dasharray:2.99999964, 2.99999964;stroke-dashoffset:0;stroke-opacity:1" />
    <ellipse style="fill:none;fill-rule:nonzero;stroke:#000000;stroke-width:1;stroke-linecap:butt;stroke-linejoin:miter;stroke-miterlimit:4;stroke-dasharray:none;stroke-dashoffset:0;fill-opacity:1.0;stroke-opacity:1.0" id="path4136" cx="117.2646" cy="806.49438" rx="72.011894" ry="30.304533" />
    <path style="fill:none;fill-rule:evenodd;stroke:#000000;stroke-width:0.99999994;stroke-linecap:butt;stroke-linejoin:miter;stroke-miterlimit:4;stroke-dasharray:none;stroke-opacity:1" d="m 45.252704,947.70289 0,-141.96578" id="path4191" />
    <ellipse style="fill:none;fill-rule:nonzero;stroke:#000000;stroke-width:1;stroke-linecap:butt;stroke-linejoin:miter;stroke-miterlimit:4;stroke-dasharray:4, 4;stroke-dashoffset:0;fill-opacity:1.0;stroke-opacity:1.0" id="path4136-1-2" cx="117.2646" cy="946.79907" rx="72.011894" ry="30.304533" />
  </g>
</svg>