<?xml version='1.0' ?><svg xmlns:ns0="http://www.iki.fi/pav/software/textext/" xmlns:dc="http://purl.org/dc/elements/1.1/" xmlns:cc="http://creativecommons.org/ns#" xmlns:rdf="http://www.w3.org/1999/02/22-rdf-syntax-ns#" xmlns:svg="http://www.w3.org/2000/svg" xmlns="http://www.w3.org/2000/svg" id="svg2" version="1.1" width="244.09944" height="286.63303" viewBox="77.64830446317195 1219.2117769624206 354.28170681417424 416.0142239479059" preserveAspectRatio="none">
  <metadata id="metadata339">
    <rdf:RDF>
      <cc:Work rdf:about="">
        <dc:format>image/svg+xml</dc:format>
        <dc:type rdf:resource="http://purl.org/dc/dcmitype/StillImage" />
        <dc:title />
      </cc:Work>
    </rdf:RDF>
  </metadata>
  <defs id="defs337" />
  <g id="g6642">
    <g style="stroke-width:1;stroke-linecap:square;stroke-linejoin:miter;stroke-miterlimit:10;stroke-dasharray:none;stroke-dashoffset:0" id="g13" clip-path="url(#clip1)" transform="translate(0,1224.7189)">
      <g style="fill:none;stroke:#000000;stroke-linecap:round;stroke-linejoin:round;stroke-opacity:1" id="g15">
        <path id="path17" d="m 431.43,205.45 c 0,91.41 -74.1,165.5 -165.5,165.5 -91.4,0 -165.5,-74.09 -165.5,-165.5 0,-91.4 74.1,-165.495 165.5,-165.495 91.4,0 165.5,74.095 165.5,165.495 z" />
        <title id="title19">Circle circ</title>
        <desc id="desc21">Circle circ: Circle through A with center O</desc>
      </g>
    </g>
    <g style="stroke-width:1;stroke-linecap:square;stroke-linejoin:miter;stroke-miterlimit:10;stroke-dasharray:none;stroke-dashoffset:0" id="g26" clip-path="url(#clip2)" transform="translate(0,1224.7189)">
      <g style="fill:none;stroke:#000000;stroke-linecap:round;stroke-linejoin:round;stroke-opacity:1" id="g28">
        <path id="path30" d="M 384.83,320.57 C 435.45,268.28 445.97,189.07 410.77,125.39 375.57,61.703 302.89,28.483 231.7,43.532" />
        <title id="title32">Arc arc</title>
        <desc id="desc34">Arc arc: CircularArc[O, B, C]</desc>
      </g>
    </g>
    <g style="stroke-width:1;stroke-linecap:square;stroke-linejoin:miter;stroke-miterlimit:10;stroke-dasharray:none;stroke-dashoffset:0" id="g39" clip-path="url(#clip3)" transform="translate(0,1224.7189)">
      <g style="fill:#d7191c;fill-opacity:0.09803898;fill-rule:nonzero;stroke:none" id="g41">
        <path id="path43" d="m 215.49,68.776 c 9.28,5.957 21.07,6.346 30.72,1.012 L 231.7,43.532 Z" />
        <title id="title45">Angle Ã&#131;Â&#142;Ã&#130;Â³</title>
        <desc id="desc47">Angle Ã&#131;Â&#142;Ã&#130;Â³: Angle between A, C, B</desc>
      </g>
    </g>
    <g style="stroke-width:1;stroke-linecap:square;stroke-linejoin:miter;stroke-miterlimit:10;stroke-dasharray:none;stroke-dashoffset:0" id="g52" clip-path="url(#clip4)" transform="translate(0,1224.7189)">
      <g style="fill:none;stroke:#d7191c;stroke-linecap:round;stroke-linejoin:round;stroke-opacity:1" id="g54">
        <path id="path56" d="m 215.49,68.776 c 9.28,5.957 21.07,6.346 30.72,1.012 L 231.7,43.532 Z" />
        <title id="title58">Angle Ã&#131;Â&#142;Ã&#130;Â³</title>
        <desc id="desc60">Angle Ã&#131;Â&#142;Ã&#130;Â³: Angle between A, C, B</desc>
      </g>
    </g>
    <g style="stroke-width:1;stroke-linecap:square;stroke-linejoin:miter;stroke-miterlimit:10;stroke-dasharray:none;stroke-dashoffset:0" id="g65" clip-path="url(#clip5)" transform="translate(0,1224.7189)">
      <g style="fill:#339900;fill-opacity:0.09803898;fill-rule:nonzero;stroke:none" id="g67">
        <path id="path69" d="m 369.65,116.91 c 4.69,9.98 14.48,16.58 25.49,17.18 l 1.65,-29.95 z" />
        <title id="title71">Angle Ã&#131;Â&#142;Ã&#130;Â±</title>
        <desc id="desc73">Angle Ã&#131;Â&#142;Ã&#130;Â±: Angle between A, D, B</desc>
      </g>
    </g>
    <g style="stroke-width:1;stroke-linecap:square;stroke-linejoin:miter;stroke-miterlimit:10;stroke-dasharray:none;stroke-dashoffset:0" id="g78" clip-path="url(#clip6)" transform="translate(0,1224.7189)">
      <g style="fill:none;stroke:#339900;stroke-linecap:round;stroke-linejoin:round;stroke-opacity:1" id="g80">
        <path id="path82" d="m 369.65,116.91 c 4.69,9.98 14.48,16.58 25.49,17.18 l 1.65,-29.95 z" />
        <title id="title84">Angle Ã&#131;Â&#142;Ã&#130;Â±</title>
        <desc id="desc86">Angle Ã&#131;Â&#142;Ã&#130;Â±: Angle between A, D, B</desc>
      </g>
    </g>
    <g style="stroke-width:1;stroke-linecap:square;stroke-linejoin:miter;stroke-miterlimit:10;stroke-dasharray:none;stroke-dashoffset:0" id="g91" clip-path="url(#clip7)" transform="translate(0,1224.7189)">
      <g style="fill:#0033cc;fill-opacity:0.09803898;fill-rule:nonzero;stroke:none" id="g93">
        <path id="path95" d="m 355.96,312.44 c -2.47,8.76 -0.82,18.17 4.47,25.57 5.29,7.41 13.66,12.01 22.75,12.51 l 1.65,-29.95 z" />
        <title id="title97">Angle Ã&#131;Â&#142;Ã&#130;Â²</title>
        <desc id="desc99">Angle Ã&#131;Â&#142;Ã&#130;Â²: Angle between A, B, E</desc>
      </g>
    </g>
    <g style="stroke-width:1;stroke-linecap:square;stroke-linejoin:miter;stroke-miterlimit:10;stroke-dasharray:none;stroke-dashoffset:0" id="g104" clip-path="url(#clip8)" transform="translate(0,1224.7189)">
      <g style="fill:none;stroke:#0033cc;stroke-linecap:round;stroke-linejoin:round;stroke-opacity:1" id="g106">
        <path id="path108" d="m 355.96,312.44 c -2.47,8.76 -0.82,18.17 4.47,25.57 5.29,7.41 13.66,12.01 22.75,12.51 l 1.65,-29.95 z" />
        <title id="title110">Angle Ã&#131;Â&#142;Ã&#130;Â²</title>
        <desc id="desc112">Angle Ã&#131;Â&#142;Ã&#130;Â²: Angle between A, B, E</desc>
      </g>
    </g>
    <g style="stroke-width:1;stroke-linecap:square;stroke-linejoin:miter;stroke-miterlimit:10;stroke-dasharray:none;stroke-dashoffset:0" id="g117" clip-path="url(#clip9)" transform="translate(0,1224.7189)">
      <g style="fill:none;stroke:#000000;stroke-linecap:round;stroke-linejoin:round;stroke-opacity:1" id="g119">
        <path id="path121" d="M 379.89,410 402.82,-5" />
        <title id="title123">Line e</title>
        <desc id="desc125">Line e: Line through D, B</desc>
      </g>
    </g>
    <g style="stroke-width:1;stroke-linecap:square;stroke-linejoin:miter;stroke-miterlimit:10;stroke-dasharray:none;stroke-dashoffset:0" id="g130" clip-path="url(#clip10)" transform="translate(0,1224.7189)">
      <g style="fill:none;stroke:#000000;stroke-linecap:round;stroke-linejoin:round;stroke-opacity:1" id="g132">
        <path id="path134" d="m 104.45,241.7 280.38,78.87" />
        <title id="title136">Segment c</title>
        <desc id="desc138">Segment c: Segment [A, B]</desc>
      </g>
    </g>
    <g style="stroke-width:1;stroke-linecap:square;stroke-linejoin:miter;stroke-miterlimit:10;stroke-dasharray:none;stroke-dashoffset:0" id="g143" clip-path="url(#clip11)" transform="translate(0,1224.7189)">
      <g style="fill:none;stroke:#000000;stroke-linecap:round;stroke-linejoin:round;stroke-opacity:1" id="g145">
        <path id="path147" d="M 104.45,241.7 231.7,43.532" />
        <title id="title149">Segment b</title>
        <desc id="desc151">Segment b: Segment [A, C]</desc>
      </g>
    </g>
    <g style="stroke-width:1;stroke-linecap:square;stroke-linejoin:miter;stroke-miterlimit:10;stroke-dasharray:none;stroke-dashoffset:0" id="g156" clip-path="url(#clip12)" transform="translate(0,1224.7189)">
      <g style="fill:none;stroke:#000000;stroke-linecap:round;stroke-linejoin:round;stroke-opacity:1" id="g158">
        <path id="path160" d="M 231.7,43.532 384.83,320.57" />
        <title id="title162">Segment a</title>
        <desc id="desc164">Segment a: Segment [C, B]</desc>
      </g>
    </g>
    <g style="stroke-width:1;stroke-linecap:square;stroke-linejoin:miter;stroke-miterlimit:10;stroke-dasharray:none;stroke-dashoffset:0" id="g169" clip-path="url(#clip13)" transform="translate(0,1224.7189)">
      <g style="fill:none;stroke:#000000;stroke-linecap:round;stroke-linejoin:round;stroke-opacity:1" id="g171">
        <path id="path173" d="M 104.45,241.7 396.79,104.14" />
        <title id="title175">Segment d</title>
        <desc id="desc177">Segment d: Segment [A, D]</desc>
      </g>
    </g>
    <g style="stroke-width:1;stroke-linecap:square;stroke-linejoin:miter;stroke-miterlimit:10;stroke-dasharray:none;stroke-dashoffset:0" id="g182" clip-path="url(#clip14)" transform="translate(0,1224.7189)">
      <g style="fill:#000000;fill-opacity:1;fill-rule:nonzero;stroke:none" id="g184">
        <path id="path186" d="m 107.45,241.7 c 0,1.66 -1.35,3 -3,3 -1.66,0 -3,-1.34 -3,-3 0,-1.65 1.34,-3 3,-3 1.65,0 3,1.35 3,3 z" />
        <title id="title188">Point A</title>
        <desc id="desc190">A = (-0.22, 1.96)</desc>
      </g>
    </g>
    <g style="stroke-width:1;stroke-linecap:square;stroke-linejoin:miter;stroke-miterlimit:10;stroke-dasharray:none;stroke-dashoffset:0" id="g195" clip-path="url(#clip15)" transform="translate(0,1224.7189)">
      <g style="fill:none;stroke:#000000;stroke-linecap:round;stroke-linejoin:round;stroke-opacity:1" id="g197">
        <path id="path199" d="m 107.45,241.7 c 0,1.66 -1.35,3 -3,3 -1.66,0 -3,-1.34 -3,-3 0,-1.65 1.34,-3 3,-3 1.65,0 3,1.35 3,3 z" />
        <title id="title201">Point A</title>
        <desc id="desc203">A = (-0.22, 1.96)</desc>
      </g>
    </g>
    <g style="stroke-width:1;stroke-linecap:square;stroke-linejoin:miter;stroke-miterlimit:10;stroke-dasharray:none;stroke-dashoffset:0" id="g221" clip-path="url(#clip17)" transform="translate(0,1224.7189)">
      <g style="fill:#0033cc;fill-opacity:1;fill-rule:nonzero;stroke:none" id="g223">
        <path id="path225" d="m 387.83,320.57 c 0,1.65 -1.34,3 -3,3 -1.65,0 -3,-1.35 -3,-3 0,-1.66 1.35,-3 3,-3 1.66,0 3,1.34 3,3 z" />
        <title id="title227">Point B</title>
        <desc id="desc229">Point B: Point on circ</desc>
      </g>
    </g>
    <g style="stroke-width:1;stroke-linecap:square;stroke-linejoin:miter;stroke-miterlimit:10;stroke-dasharray:none;stroke-dashoffset:0" id="g234" clip-path="url(#clip18)" transform="translate(0,1224.7189)">
      <g style="fill:none;stroke:#000000;stroke-linecap:round;stroke-linejoin:round;stroke-opacity:1" id="g236">
        <path id="path238" d="m 387.83,320.57 c 0,1.65 -1.34,3 -3,3 -1.65,0 -3,-1.35 -3,-3 0,-1.66 1.35,-3 3,-3 1.66,0 3,1.34 3,3 z" />
        <title id="title240">Point B</title>
        <desc id="desc242">Point B: Point on circ</desc>
      </g>
    </g>
    <g style="stroke-width:1;stroke-linecap:square;stroke-linejoin:miter;stroke-miterlimit:10;stroke-dasharray:none;stroke-dashoffset:0" id="g260" clip-path="url(#clip20)" transform="translate(0,1224.7189)">
      <g style="fill:#d7191c;fill-opacity:1;fill-rule:nonzero;stroke:none" id="g262">
        <path id="path264" d="m 234.7,43.532 c 0,1.657 -1.34,3 -3,3 -1.66,0 -3,-1.343 -3,-3 0,-1.656 1.34,-3 3,-3 1.66,0 3,1.344 3,3 z" />
        <title id="title266">Point C</title>
        <desc id="desc268">Point C: Point on f</desc>
      </g>
    </g>
    <g style="stroke-width:1;stroke-linecap:square;stroke-linejoin:miter;stroke-miterlimit:10;stroke-dasharray:none;stroke-dashoffset:0" id="g273" clip-path="url(#clip21)" transform="translate(0,1224.7189)">
      <g style="fill:none;stroke:#000000;stroke-linecap:round;stroke-linejoin:round;stroke-opacity:1" id="g275">
        <path id="path277" d="m 234.7,43.532 c 0,1.657 -1.34,3 -3,3 -1.66,0 -3,-1.343 -3,-3 0,-1.656 1.34,-3 3,-3 1.66,0 3,1.344 3,3 z" />
        <title id="title279">Point C</title>
        <desc id="desc281">Point C: Point on f</desc>
      </g>
    </g>
    <g style="stroke-width:1;stroke-linecap:square;stroke-linejoin:miter;stroke-miterlimit:10;stroke-dasharray:none;stroke-dashoffset:0" id="g299" clip-path="url(#clip23)" transform="translate(0,1224.7189)">
      <g style="fill:#339900;fill-opacity:1;fill-rule:nonzero;stroke:none" id="g301">
        <path id="path303" d="m 399.79,104.14 c 0,1.66 -1.34,3 -3,3 -1.66,0 -3,-1.34 -3,-3 0,-1.66 1.34,-3 3,-3 1.66,0 3,1.34 3,3 z" />
        <title id="title305">Point D</title>
        <desc id="desc307">Point D: Point on arc</desc>
      </g>
    </g>
    <g style="stroke-width:1;stroke-linecap:square;stroke-linejoin:miter;stroke-miterlimit:10;stroke-dasharray:none;stroke-dashoffset:0" id="g312" clip-path="url(#clip24)" transform="translate(0,1224.7189)">
      <g style="fill:none;stroke:#000000;stroke-linecap:round;stroke-linejoin:round;stroke-opacity:1" id="g314">
        <path id="path316" d="m 399.79,104.14 c 0,1.66 -1.34,3 -3,3 -1.66,0 -3,-1.34 -3,-3 0,-1.66 1.34,-3 3,-3 1.66,0 3,1.34 3,3 z" />
        <title id="title318">Point D</title>
        <desc id="desc320">Point D: Point on arc</desc>
      </g>
    </g>
    <g style="stroke-width:1;stroke-linecap:square;stroke-linejoin:miter;stroke-miterlimit:10;stroke-dasharray:none;stroke-dashoffset:0" id="misc" transform="translate(0,1224.7189)" />
    <g ns0:preamble="/Users/prmb/CMEP/underground-inkscape-preamble.tex" ns0:text="$A$" word-spacing="normal" letter-spacing="normal" font-size-adjust="none" font-stretch="normal" font-weight="normal" font-variant="normal" font-style="normal" stroke-miterlimit="10.433" xml:space="preserve" transform="matrix(2.4000003,0,0,-2.4000003,-460.43858,2627.8666)" id="content" style="font-style:normal;font-variant:normal;font-weight:normal;font-stretch:normal;letter-spacing:normal;word-spacing:normal;text-anchor:start;fill:none;fill-opacity:1;fill-rule:evenodd;stroke:#000000;stroke-width:0.62499994;stroke-linecap:butt;stroke-linejoin:miter;stroke-miterlimit:10.43299961;stroke-dasharray:none;stroke-dashoffset:0;stroke-opacity:1"><path id="path4650" d="m 231.87284,478.99418 0,0.19 -0.19,0 c -0.5,0 -0.79,0.25 -0.87,0.83 l -0.92,6.86 -0.22,0 -4.2,-6.81 c -0.42,-0.69 -0.86,-0.83 -1.27,-0.88 l 0,-0.19 2.57,0 0,0.19 -0.34,0 c -0.31,0 -0.5,0.13 -0.51,0.35 0,0.08 0.03,0.21 0.12,0.3 l 0.99,1.66 2.34,0 -0.09,0.43 -2,0 1.64,2.68 0.07,0 0.29,-2.68 0.09,-0.43 0.15,-1.34 c 0.01,-0.08 0.02,-0.18 0.02,-0.25 0,-0.47 -0.19,-0.72 -0.85,-0.72 l -0.19,0 0,-0.19 z" style="fill:#000000;stroke-width:0" /></g>    <g id="g5018" transform="matrix(2.4000003,0,0,-2.4000003,-142.03851,2705.4343)" xml:space="preserve" stroke-miterlimit="10.433" font-style="normal" font-variant="normal" font-weight="normal" font-stretch="normal" font-size-adjust="none" letter-spacing="normal" word-spacing="normal" ns0:text="$B$" ns0:preamble="/Users/prmb/CMEP/underground-inkscape-preamble.tex" style="font-style:normal;font-variant:normal;font-weight:normal;font-stretch:normal;letter-spacing:normal;word-spacing:normal;text-anchor:start;fill:none;fill-opacity:1;fill-rule:evenodd;stroke:#000000;stroke-width:0.62499994;stroke-linecap:butt;stroke-linejoin:miter;stroke-miterlimit:10.43299961;stroke-dasharray:none;stroke-dashoffset:0;stroke-opacity:1"><path d="m 225.77,484.94 -0.06,-0.18 0.22,0 c 0.7,0 0.93,-0.19 0.93,-0.5 0,-0.07 -0.02,-0.19 -0.03,-0.25 l -1.45,-5.84 c -0.09,-0.4 -0.32,-0.75 -1.22,-0.75 l -0.23,0 -0.05,-0.19 3.83,0 c 2.44,0 3.41,1.12 3.41,2.28 0,1.01 -0.79,1.5 -1.5,1.63 l -0.04,0.05 c 0.24,0.06 0.58,0.15 0.88,0.31 0.56,0.28 1.07,0.81 1.07,1.73 0,1.61 -1.79,1.71 -2.79,1.71 l -0.01,-0.46 c 0.64,0 1.41,-0.24 1.41,-1.15 0,-1.15 -0.66,-1.93 -1.99,-1.93 l -0.13,-0.41 c 0.93,0 1.68,-0.41 1.68,-1.28 0,-1.53 -1.13,-2.03 -2.24,-2.03 -0.31,0 -0.55,0.03 -0.84,0.11 l 0.8,3.15 c 0.18,0.05 0.42,0.05 0.6,0.05 l 0.13,0.41 c -0.17,0 -0.39,0.03 -0.62,0.07 l 0.7,2.98 c 0.15,0.02 0.33,0.03 0.5,0.03 l 0.01,0.46 z" id="path5020" style="fill:#000000;stroke-width:0" /></g>    <g ns0:preamble="/Users/prmb/CMEP/underground-inkscape-preamble.tex" ns0:text="$C$" word-spacing="normal" letter-spacing="normal" font-size-adjust="none" font-stretch="normal" font-weight="normal" font-variant="normal" font-style="normal" stroke-miterlimit="10.433" xml:space="preserve" transform="matrix(2.4000003,0,0,-2.4000003,-319.36024,2404.6478)" id="g5392" style="font-style:normal;font-variant:normal;font-weight:normal;font-stretch:normal;letter-spacing:normal;word-spacing:normal;text-anchor:start;fill:none;fill-opacity:1;fill-rule:evenodd;stroke:#000000;stroke-width:0.62499994;stroke-linecap:butt;stroke-linejoin:miter;stroke-miterlimit:10.43299961;stroke-dasharray:none;stroke-dashoffset:0;stroke-opacity:1"><path id="path5394" d="m 231.83,485.02 -0.22,0 c -0.17,-0.3 -0.36,-0.32 -0.49,-0.32 -0.62,0 -1.23,0.32 -1.87,0.32 -2.85,0 -5.23,-1.93 -5.23,-4.64 0,-1.74 1.12,-3.29 3.4,-3.29 0.46,0 1.36,0.07 2.28,0.72 0.34,0.25 0.73,0.61 1.05,1.09 l -0.23,0.15 c -0.06,-0.08 -0.12,-0.15 -0.2,-0.23 -0.54,-0.58 -1.4,-1.16 -2.56,-1.16 -1.59,0 -2.3,1.2 -2.3,2.53 0,2.01 1.4,4.39 3.77,4.39 1.43,0 1.79,-0.93 1.79,-1.7 0,-0.3 0,-0.4 -0.01,-0.5 l 0.19,0 z" style="fill:#000000;stroke-width:0" /></g>    <g id="g5770" transform="matrix(2.4000003,0,0,-2.4000003,-131.87679,2471.7149)" xml:space="preserve" stroke-miterlimit="10.433" font-style="normal" font-variant="normal" font-weight="normal" font-stretch="normal" font-size-adjust="none" letter-spacing="normal" word-spacing="normal" ns0:text="$D$" ns0:preamble="/Users/prmb/CMEP/underground-inkscape-preamble.tex" style="font-style:normal;font-variant:normal;font-weight:normal;font-stretch:normal;letter-spacing:normal;word-spacing:normal;text-anchor:start;fill:none;fill-opacity:1;fill-rule:evenodd;stroke:#000000;stroke-width:0.62499994;stroke-linecap:butt;stroke-linejoin:miter;stroke-miterlimit:10.43299961;stroke-dasharray:none;stroke-dashoffset:0;stroke-opacity:1"><path d="m 225.72,484.94 -0.06,-0.2 0.3,0 c 0.69,0 0.91,-0.17 0.91,-0.43 0,-0.09 -0.03,-0.19 -0.05,-0.29 l -1.44,-5.86 c -0.09,-0.41 -0.37,-0.74 -1.24,-0.74 l -0.21,0 -0.05,-0.19 3.61,0 c 3.05,0 4.97,1.98 4.97,4.47 0,2.03 -1.19,3.24 -3.41,3.24 l -0.14,-0.44 c 1.74,0 2.13,-1.62 2.13,-2.98 0,-1.66 -0.94,-3.84 -3.2,-3.84 -0.42,0 -1.13,0.03 -1.13,0.51 0,0.04 0,0.1 0.06,0.32 l 1.44,5.95 c 0.19,0.02 0.46,0.04 0.7,0.04 l 0.14,0.44 z" id="path5772" style="fill:#000000;stroke-width:0" /></g>    <g ns0:preamble="/Users/prmb/CMEP/underground-inkscape-preamble.tex" ns0:text="$\\theta$" word-spacing="normal" letter-spacing="normal" font-size-adjust="none" font-stretch="normal" font-weight="normal" font-variant="normal" font-style="normal" stroke-miterlimit="10.433" xml:space="preserve" transform="matrix(2.4000003,0,0,-2.4000003,-182.85467,2739.1372)" id="g6152" style="font-style:normal;font-variant:normal;font-weight:normal;font-stretch:normal;letter-spacing:normal;word-spacing:normal;text-anchor:start;fill:none;fill-opacity:1;fill-rule:evenodd;stroke:#000000;stroke-width:0.62499994;stroke-linecap:butt;stroke-linejoin:miter;stroke-miterlimit:10.43299961;stroke-dasharray:none;stroke-dashoffset:0;stroke-opacity:1"><path id="path6154" d="m 229.03,482.81 0,0.14 -0.01,0.14 -0.01,0.14 -0.01,0.13 -0.02,0.12 -0.02,0.12 -0.02,0.12 -0.03,0.11 -0.03,0.11 -0.03,0.1 -0.03,0.1 -0.04,0.09 -0.04,0.09 -0.05,0.08 -0.04,0.08 -0.05,0.07 -0.06,0.07 -0.05,0.07 -0.06,0.06 -0.06,0.05 -0.06,0.05 -0.06,0.05 -0.07,0.04 -0.06,0.04 -0.07,0.03 -0.07,0.03 -0.08,0.03 -0.07,0.02 -0.08,0.01 -0.07,0.01 -0.08,0.01 -0.08,0 -0.09,-0.34 c 0.49,0 0.61,-0.66 0.61,-1.52 0,-0.49 -0.12,-1.14 -0.3,-1.96 l -2.43,0 c 0.31,1.4 1.27,3.48 2.12,3.48 l 0.09,0.34 c -2.25,0 -3.62,-3.85 -3.62,-5.9 0,-1.42 0.5,-2.11 1.62,-2.11 l 0.06,0.34 c -0.51,0 -0.68,0.66 -0.68,1.47 0,0.57 0.1,1.36 0.29,1.95 l 2.44,0 c -0.03,-0.1 -0.1,-0.44 -0.18,-0.71 -0.37,-1.17 -1.08,-2.71 -1.87,-2.71 l -0.06,-0.34 c 1.82,0 3.51,3.38 3.51,5.7 z" style="fill:#000000;stroke-width:0" /></g>  </g>
</svg>