<?xml version='1.0' ?><svg xmlns:ns0="http://www.iki.fi/pav/software/textext/" xmlns:dc="http://purl.org/dc/elements/1.1/" xmlns:cc="http://creativecommons.org/ns#" xmlns:rdf="http://www.w3.org/1999/02/22-rdf-syntax-ns#" xmlns:svg="http://www.w3.org/2000/svg" xmlns="http://www.w3.org/2000/svg" xmlns:xlink="http://www.w3.org/1999/xlink" xml:space="preserve" enable-background="new 0 0 425 425" y="0px" x="0px" id="svg2" version="1.1" width="394.79246" height="291.93973" viewBox="13.735 123.80513 394.79246 291.93973" preserveAspectRatio="none"><metadata id="metadata549"><rdf:RDF><cc:Work rdf:about=""><dc:format>image/svg+xml</dc:format><dc:type rdf:resource="http://purl.org/dc/dcmitype/StillImage" /></cc:Work></rdf:RDF></metadata><defs id="defs547" /><g transform="matrix(0.9333296,0,0,1,0.91571792,0)" id="g4"><defs id="defs6"><rect id="SVGID_1_" x="13.735" y="368.97198" width="397.207" height="2" /></defs><clipPath id="SVGID_2_"><use height="100%" width="100%" y="0" x="0" style="overflow:visible" xlink:href="#SVGID_1_" overflow="visible" id="use10" /></clipPath><g id="g169" clip-path="url(#SVGID_2_)"><path style="fill:none;stroke:#e5e5e5;stroke-width:0.53350002;stroke-linejoin:round;stroke-miterlimit:10" id="path171" stroke-miterlimit="10" d="m 13.735,370.113 396.727,0" /></g></g><g transform="matrix(0.9333296,0,0,1,0.91571792,0)" id="g14"><defs id="defs16"><rect id="SVGID_3_" x="13.735" y="350.97198" width="397.207" height="2" /></defs><clipPath id="SVGID_4_"><use height="100%" width="100%" y="0" x="0" style="overflow:visible" xlink:href="#SVGID_3_" overflow="visible" id="use20" /></clipPath><g id="g173" clip-path="url(#SVGID_4_)"><path style="fill:none;stroke:#e5e5e5;stroke-width:0.53350002;stroke-linejoin:round;stroke-miterlimit:10" id="path175" stroke-miterlimit="10" d="m 13.735,352.077 396.727,0" /></g></g><g transform="matrix(0.9333296,0,0,1,0.91571792,0)" id="g24"><defs id="defs26"><rect id="SVGID_5_" x="13.735" y="332.97198" width="397.207" height="2" /></defs><clipPath id="SVGID_6_"><use height="100%" width="100%" y="0" x="0" style="overflow:visible" xlink:href="#SVGID_5_" overflow="visible" id="use30" /></clipPath><g id="g177" clip-path="url(#SVGID_6_)"><path style="fill:none;stroke:#e5e5e5;stroke-width:0.53350002;stroke-linejoin:round;stroke-miterlimit:10" id="path179" stroke-miterlimit="10" d="m 13.735,334.046 396.727,0" /></g></g><g transform="matrix(0.9333296,0,0,1,0.91571792,0)" id="g34"><defs id="defs36"><rect id="SVGID_7_" x="13.735" y="314.97198" width="397.207" height="2" /></defs><clipPath id="SVGID_8_"><use height="100%" width="100%" y="0" x="0" style="overflow:visible" xlink:href="#SVGID_7_" overflow="visible" id="use40" /></clipPath><g id="g181" clip-path="url(#SVGID_8_)"><path style="fill:none;stroke:#e5e5e5;stroke-width:0.53350002;stroke-linejoin:round;stroke-miterlimit:10" id="path183" stroke-miterlimit="10" d="m 13.735,316.011 396.727,0" /></g></g><g transform="matrix(0.9333296,0,0,1,0.91571792,0)" id="g44"><defs id="defs46"><rect id="SVGID_9_" x="13.735" y="296.97198" width="397.207" height="2" /></defs><clipPath id="SVGID_10_"><use height="100%" width="100%" y="0" x="0" style="overflow:visible" xlink:href="#SVGID_9_" overflow="visible" id="use50" /></clipPath><g id="g185" clip-path="url(#SVGID_10_)"><path style="fill:none;stroke:#e5e5e5;stroke-width:0.53350002;stroke-linejoin:round;stroke-miterlimit:10" id="path187" stroke-miterlimit="10" d="m 13.735,297.98 396.727,0" /></g></g><g transform="matrix(0.9333296,0,0,1,0.91571792,0)" id="g54"><defs id="defs56"><rect id="SVGID_11_" x="13.735" y="278.97198" width="397.207" height="2" /></defs><clipPath id="SVGID_12_"><use height="100%" width="100%" y="0" x="0" style="overflow:visible" xlink:href="#SVGID_11_" overflow="visible" id="use60" /></clipPath><g id="g189" clip-path="url(#SVGID_12_)"><path style="fill:none;stroke:#e5e5e5;stroke-width:0.53350002;stroke-linejoin:round;stroke-miterlimit:10" id="path191" stroke-miterlimit="10" d="m 13.735,279.945 396.727,0" /></g></g><g transform="matrix(0.9333296,0,0,1,0.91571792,0)" id="g64"><defs id="defs66"><rect id="SVGID_13_" x="13.735" y="260.97198" width="397.207" height="2" /></defs><clipPath id="SVGID_14_"><use height="100%" width="100%" y="0" x="0" style="overflow:visible" xlink:href="#SVGID_13_" overflow="visible" id="use70" /></clipPath><g id="g193" clip-path="url(#SVGID_14_)"><path style="fill:none;stroke:#e5e5e5;stroke-width:0.53350002;stroke-linejoin:round;stroke-miterlimit:10" id="path195" stroke-miterlimit="10" d="m 13.735,261.913 396.727,0" /></g></g><g transform="matrix(0.9333296,0,0,1,0.91571792,0)" id="g74"><defs id="defs76"><rect id="SVGID_15_" x="13.735" y="242.972" width="397.207" height="2" /></defs><clipPath id="SVGID_16_"><use height="100%" width="100%" y="0" x="0" style="overflow:visible" xlink:href="#SVGID_15_" overflow="visible" id="use80" /></clipPath><g id="g197" clip-path="url(#SVGID_16_)"><path style="fill:none;stroke:#e5e5e5;stroke-width:0.53350002;stroke-linejoin:round;stroke-miterlimit:10" id="path199" stroke-miterlimit="10" d="m 13.735,243.882 396.727,0" /></g></g><g transform="matrix(0.9333296,0,0,1,0.91571792,0)" id="g84"><defs id="defs86"><rect id="SVGID_17_" x="13.735" y="224.972" width="397.207" height="2" /></defs><clipPath id="SVGID_18_"><use height="100%" width="100%" y="0" x="0" style="overflow:visible" xlink:href="#SVGID_17_" overflow="visible" id="use90" /></clipPath><g id="g201" clip-path="url(#SVGID_18_)"><path style="fill:none;stroke:#e5e5e5;stroke-width:0.53350002;stroke-linejoin:round;stroke-miterlimit:10" id="path203" stroke-miterlimit="10" d="m 13.735,225.847 396.727,0" /></g></g><g transform="matrix(0.9333296,0,0,1,0.91571792,0)" id="g94"><defs id="defs96"><rect id="SVGID_19_" x="13.735" y="188.972" width="397.207" height="2" /></defs><clipPath id="SVGID_20_"><use height="100%" width="100%" y="0" x="0" style="overflow:visible" xlink:href="#SVGID_19_" overflow="visible" id="use100" /></clipPath><g id="g205" clip-path="url(#SVGID_20_)"><path style="fill:none;stroke:#e5e5e5;stroke-width:0.53350002;stroke-linejoin:round;stroke-miterlimit:10" id="path207" stroke-miterlimit="10" d="m 13.735,189.781 396.727,0" /></g></g><g transform="matrix(0.9333296,0,0,1,0.91571792,0)" id="g104"><defs id="defs106"><rect id="SVGID_21_" x="13.735" y="170.972" width="397.207" height="2" /></defs><clipPath id="SVGID_22_"><use height="100%" width="100%" y="0" x="0" style="overflow:visible" xlink:href="#SVGID_21_" overflow="visible" id="use110" /></clipPath><g id="g209" clip-path="url(#SVGID_22_)"><path style="fill:none;stroke:#e5e5e5;stroke-width:0.53350002;stroke-linejoin:round;stroke-miterlimit:10" id="path211" stroke-miterlimit="10" d="m 13.735,171.75 396.727,0" /></g></g><g transform="matrix(0.9333296,0,0,1,0.91571792,0)" id="g114"><defs id="defs116"><rect id="SVGID_23_" x="13.735" y="152.972" width="397.207" height="2" /></defs><clipPath id="SVGID_24_"><use height="100%" width="100%" y="0" x="0" style="overflow:visible" xlink:href="#SVGID_23_" overflow="visible" id="use120" /></clipPath><g id="g213" clip-path="url(#SVGID_24_)"><path style="fill:none;stroke:#e5e5e5;stroke-width:0.53350002;stroke-linejoin:round;stroke-miterlimit:10" id="path215" stroke-miterlimit="10" d="m 13.735,153.715 396.727,0" /></g></g><g transform="matrix(1,0,0,0.65671751,0,139.43414)" id="g184"><defs id="defs186"><rect id="SVGID_37_" x="42.942001" y="9.4530001" width="2" height="397.51901" /></defs><clipPath id="SVGID_38_"><use height="100%" width="100%" y="0" x="0" style="overflow:visible" xlink:href="#SVGID_37_" overflow="visible" id="use190" /></clipPath><g id="g241" clip-path="url(#SVGID_38_)"><path style="fill:none;stroke:#e5e5e5;stroke-width:0.53350002;stroke-linejoin:round;stroke-miterlimit:10" id="path243" stroke-miterlimit="10" d="m 43.79,406.179 0,-396.726" /></g></g><g transform="matrix(1,0,0,0.65671751,0,139.43414)" id="g194"><defs id="defs196"><rect id="SVGID_39_" x="54.942001" y="9.4530001" width="2" height="397.51901" /></defs><clipPath id="SVGID_40_"><use height="100%" width="100%" y="0" x="0" style="overflow:visible" xlink:href="#SVGID_39_" overflow="visible" id="use200" /></clipPath><g id="g245" clip-path="url(#SVGID_40_)"><path style="fill:none;stroke:#e5e5e5;stroke-width:0.53350002;stroke-linejoin:round;stroke-miterlimit:10" id="path247" stroke-miterlimit="10" d="m 55.813,406.179 0,-396.726" /></g></g><g transform="matrix(1,0,0,0.65671751,0,139.43414)" id="g204"><defs id="defs206"><rect id="SVGID_41_" x="66.942001" y="9.4530001" width="2" height="397.51901" /></defs><clipPath id="SVGID_42_"><use height="100%" width="100%" y="0" x="0" style="overflow:visible" xlink:href="#SVGID_41_" overflow="visible" id="use210" /></clipPath><g id="g249" clip-path="url(#SVGID_42_)"><path style="fill:none;stroke:#e5e5e5;stroke-width:0.53350002;stroke-linejoin:round;stroke-miterlimit:10" id="path251" stroke-miterlimit="10" d="m 67.837,406.179 0,-396.726" /></g></g><g transform="matrix(1,0,0,0.65671751,0,139.43414)" id="g214"><defs id="defs216"><rect id="SVGID_43_" x="78.942001" y="9.4530001" width="2" height="397.51901" /></defs><clipPath id="SVGID_44_"><use height="100%" width="100%" y="0" x="0" style="overflow:visible" xlink:href="#SVGID_43_" overflow="visible" id="use220" /></clipPath><g id="g253" clip-path="url(#SVGID_44_)"><path style="fill:none;stroke:#e5e5e5;stroke-width:0.53350002;stroke-linejoin:round;stroke-miterlimit:10" id="path255" stroke-miterlimit="10" d="m 79.856,406.179 0,-396.726" /></g></g><g transform="matrix(1,0,0,0.65671751,0,139.43414)" id="g224"><defs id="defs226"><rect id="SVGID_45_" x="90.942001" y="9.4530001" width="2" height="397.51901" /></defs><clipPath id="SVGID_46_"><use height="100%" width="100%" y="0" x="0" style="overflow:visible" xlink:href="#SVGID_45_" overflow="visible" id="use230" /></clipPath><g id="g257" clip-path="url(#SVGID_46_)"><path style="fill:none;stroke:#e5e5e5;stroke-width:0.53350002;stroke-linejoin:round;stroke-miterlimit:10" id="path259" stroke-miterlimit="10" d="m 91.88,406.179 0,-396.726" /></g></g><g transform="matrix(1,0,0,0.65671751,0,139.43414)" id="g234"><defs id="defs236"><rect id="SVGID_47_" x="102.942" y="9.4530001" width="2" height="397.51901" /></defs><clipPath id="SVGID_48_"><use height="100%" width="100%" y="0" x="0" style="overflow:visible" xlink:href="#SVGID_47_" overflow="visible" id="use240" /></clipPath><g id="g261" clip-path="url(#SVGID_48_)"><path style="fill:none;stroke:#e5e5e5;stroke-width:0.53350002;stroke-linejoin:round;stroke-miterlimit:10" id="path263" stroke-miterlimit="10" d="m 103.903,406.179 0,-396.726" /></g></g><g transform="matrix(1,0,0,0.65671751,0,139.43414)" id="g244"><defs id="defs246"><rect id="SVGID_49_" x="114.942" y="9.4530001" width="2" height="397.51901" /></defs><clipPath id="SVGID_50_"><use height="100%" width="100%" y="0" x="0" style="overflow:visible" xlink:href="#SVGID_49_" overflow="visible" id="use250" /></clipPath><g id="g265" clip-path="url(#SVGID_50_)"><path style="fill:none;stroke:#e5e5e5;stroke-width:0.53350002;stroke-linejoin:round;stroke-miterlimit:10" id="path267" stroke-miterlimit="10" d="m 115.923,406.179 0,-396.726" /></g></g><g transform="matrix(1,0,0,0.65671751,0,139.43414)" id="g254"><defs id="defs256"><rect id="SVGID_51_" x="126.942" y="9.4530001" width="2" height="397.51901" /></defs><clipPath id="SVGID_52_"><use height="100%" width="100%" y="0" x="0" style="overflow:visible" xlink:href="#SVGID_51_" overflow="visible" id="use260" /></clipPath><g id="g269" clip-path="url(#SVGID_52_)"><path style="fill:none;stroke:#e5e5e5;stroke-width:0.53350002;stroke-linejoin:round;stroke-miterlimit:10" id="path271" stroke-miterlimit="10" d="m 127.946,406.179 0,-396.726" /></g></g><g transform="matrix(1,0,0,0.65671751,0,139.43414)" id="g264"><defs id="defs266"><rect id="SVGID_53_" x="138.942" y="9.4530001" width="2" height="397.51901" /></defs><clipPath id="SVGID_54_"><use height="100%" width="100%" y="0" x="0" style="overflow:visible" xlink:href="#SVGID_53_" overflow="visible" id="use270" /></clipPath><g id="g273" clip-path="url(#SVGID_54_)"><path style="fill:none;stroke:#e5e5e5;stroke-width:0.53350002;stroke-linejoin:round;stroke-miterlimit:10" id="path275" stroke-miterlimit="10" d="m 139.969,406.179 0,-396.726" /></g></g><g transform="matrix(1,0,0,0.65671751,0,139.43414)" id="g274"><defs id="defs276"><rect id="SVGID_55_" x="162.942" y="9.4530001" width="2" height="397.51901" /></defs><clipPath id="SVGID_56_"><use height="100%" width="100%" y="0" x="0" style="overflow:visible" xlink:href="#SVGID_55_" overflow="visible" id="use280" /></clipPath><g id="g277" clip-path="url(#SVGID_56_)"><path style="fill:none;stroke:#e5e5e5;stroke-width:0.53350002;stroke-linejoin:round;stroke-miterlimit:10" id="path279" stroke-miterlimit="10" d="m 164.012,406.179 0,-396.726" /></g></g><g transform="matrix(1,0,0,0.65671751,0,139.43414)" id="g284"><defs id="defs286"><rect id="SVGID_57_" x="174.942" y="9.4530001" width="2" height="397.51901" /></defs><clipPath id="SVGID_58_"><use height="100%" width="100%" y="0" x="0" style="overflow:visible" xlink:href="#SVGID_57_" overflow="visible" id="use290" /></clipPath><g id="g281" clip-path="url(#SVGID_58_)"><path style="fill:none;stroke:#e5e5e5;stroke-width:0.53350002;stroke-linejoin:round;stroke-miterlimit:10" id="path283" stroke-miterlimit="10" d="m 176.032,406.179 0,-396.726" /></g></g><g transform="matrix(1,0,0,0.65671751,0,139.43414)" id="g294"><defs id="defs296"><rect id="SVGID_59_" x="186.942" y="9.4530001" width="2" height="397.51901" /></defs><clipPath id="SVGID_60_"><use height="100%" width="100%" y="0" x="0" style="overflow:visible" xlink:href="#SVGID_59_" overflow="visible" id="use300" /></clipPath><g id="g285" clip-path="url(#SVGID_60_)"><path style="fill:none;stroke:#e5e5e5;stroke-width:0.53350002;stroke-linejoin:round;stroke-miterlimit:10" id="path287" stroke-miterlimit="10" d="m 188.055,406.179 0,-396.726" /></g></g><g transform="matrix(1,0,0,0.65671751,0,139.43414)" id="g304"><defs id="defs306"><rect id="SVGID_61_" x="198.942" y="9.4530001" width="2" height="397.51901" /></defs><clipPath id="SVGID_62_"><use height="100%" width="100%" y="0" x="0" style="overflow:visible" xlink:href="#SVGID_61_" overflow="visible" id="use310" /></clipPath><g id="g289" clip-path="url(#SVGID_62_)"><path style="fill:none;stroke:#e5e5e5;stroke-width:0.53350002;stroke-linejoin:round;stroke-miterlimit:10" id="path291" stroke-miterlimit="10" d="m 200.079,406.179 0,-396.726" /></g></g><g transform="matrix(1,0,0,0.65671751,0,139.43414)" id="g314"><defs id="defs316"><rect id="SVGID_63_" x="210.942" y="9.4530001" width="2" height="397.51901" /></defs><clipPath id="SVGID_64_"><use height="100%" width="100%" y="0" x="0" style="overflow:visible" xlink:href="#SVGID_63_" overflow="visible" id="use320" /></clipPath><g id="g293" clip-path="url(#SVGID_64_)"><path style="fill:none;stroke:#e5e5e5;stroke-width:0.53350002;stroke-linejoin:round;stroke-miterlimit:10" id="path295" stroke-miterlimit="10" d="m 212.098,406.179 0,-396.726" /></g></g><g transform="matrix(1,0,0,0.65671751,0,139.43414)" id="g324"><defs id="defs326"><rect id="SVGID_65_" x="222.942" y="9.4530001" width="2" height="397.51901" /></defs><clipPath id="SVGID_66_"><use height="100%" width="100%" y="0" x="0" style="overflow:visible" xlink:href="#SVGID_65_" overflow="visible" id="use330" /></clipPath><g id="g297" clip-path="url(#SVGID_66_)"><path style="fill:none;stroke:#e5e5e5;stroke-width:0.53350002;stroke-linejoin:round;stroke-miterlimit:10" id="path299" stroke-miterlimit="10" d="m 224.122,406.179 0,-396.726" /></g></g><g transform="matrix(1,0,0,0.65671751,0,139.43414)" id="g334"><defs id="defs336"><rect id="SVGID_67_" x="234.942" y="9.4530001" width="2" height="397.51901" /></defs><clipPath id="SVGID_68_"><use height="100%" width="100%" y="0" x="0" style="overflow:visible" xlink:href="#SVGID_67_" overflow="visible" id="use340" /></clipPath><g id="g301" clip-path="url(#SVGID_68_)"><path style="fill:none;stroke:#e5e5e5;stroke-width:0.53350002;stroke-linejoin:round;stroke-miterlimit:10" id="path303" stroke-miterlimit="10" d="m 236.145,406.179 0,-396.726" /></g></g><g transform="matrix(1,0,0,0.65671751,0,139.43414)" id="g344"><defs id="defs346"><rect id="SVGID_69_" x="246.942" y="9.4530001" width="2" height="397.51901" /></defs><clipPath id="SVGID_70_"><use height="100%" width="100%" y="0" x="0" style="overflow:visible" xlink:href="#SVGID_69_" overflow="visible" id="use350" /></clipPath><g id="g305" clip-path="url(#SVGID_70_)"><path style="fill:none;stroke:#e5e5e5;stroke-width:0.53350002;stroke-linejoin:round;stroke-miterlimit:10" id="path307" stroke-miterlimit="10" d="m 248.165,406.179 0,-396.726" /></g></g><g transform="matrix(1,0,0,0.65671751,0,139.43414)" id="g354"><defs id="defs356"><rect id="SVGID_71_" x="258.94199" y="9.4530001" width="2" height="397.51901" /></defs><clipPath id="SVGID_72_"><use height="100%" width="100%" y="0" x="0" style="overflow:visible" xlink:href="#SVGID_71_" overflow="visible" id="use360" /></clipPath><g id="g309" clip-path="url(#SVGID_72_)"><path style="fill:none;stroke:#e5e5e5;stroke-width:0.53350002;stroke-linejoin:round;stroke-miterlimit:10" id="path311" stroke-miterlimit="10" d="m 260.188,406.179 0,-396.726" /></g></g><g transform="matrix(1,0,0,0.65671751,0,139.43414)" id="g364"><defs id="defs366"><rect id="SVGID_73_" x="283.94199" y="9.4530001" width="1" height="397.51901" /></defs><clipPath id="SVGID_74_"><use height="100%" width="100%" y="0" x="0" style="overflow:visible" xlink:href="#SVGID_73_" overflow="visible" id="use370" /></clipPath><g id="g313" clip-path="url(#SVGID_74_)"><path style="fill:none;stroke:#e5e5e5;stroke-width:0.53350002;stroke-linejoin:round;stroke-miterlimit:10" id="path315" stroke-miterlimit="10" d="m 284.231,406.179 0,-396.726" /></g></g><g transform="matrix(1,0,0,0.65671751,0,139.43414)" id="g374"><defs id="defs376"><rect id="SVGID_75_" x="295.94199" y="9.4530001" width="1" height="397.51901" /></defs><clipPath id="SVGID_76_"><use height="100%" width="100%" y="0" x="0" style="overflow:visible" xlink:href="#SVGID_75_" overflow="visible" id="use380" /></clipPath><g id="g317" clip-path="url(#SVGID_76_)"><path style="fill:none;stroke:#e5e5e5;stroke-width:0.53350002;stroke-linejoin:round;stroke-miterlimit:10" id="path319" stroke-miterlimit="10" d="m 296.255,406.179 0,-396.726" /></g></g><g transform="matrix(1,0,0,0.65671751,0,139.43414)" id="g384"><defs id="defs386"><rect id="SVGID_77_" x="307.94199" y="9.4530001" width="1" height="397.51901" /></defs><clipPath id="SVGID_78_"><use height="100%" width="100%" y="0" x="0" style="overflow:visible" xlink:href="#SVGID_77_" overflow="visible" id="use390" /></clipPath><g id="g321" clip-path="url(#SVGID_78_)"><path style="fill:none;stroke:#e5e5e5;stroke-width:0.53350002;stroke-linejoin:round;stroke-miterlimit:10" id="path323" stroke-miterlimit="10" d="m 308.274,406.179 0,-396.726" /></g></g><g transform="matrix(1,0,0,0.65671751,0,139.43414)" id="g394"><defs id="defs396"><rect id="SVGID_79_" x="319.94199" y="9.4530001" width="1" height="397.51901" /></defs><clipPath id="SVGID_80_"><use height="100%" width="100%" y="0" x="0" style="overflow:visible" xlink:href="#SVGID_79_" overflow="visible" id="use400" /></clipPath><g id="g325" clip-path="url(#SVGID_80_)"><path style="fill:none;stroke:#e5e5e5;stroke-width:0.53350002;stroke-linejoin:round;stroke-miterlimit:10" id="path327" stroke-miterlimit="10" d="m 320.298,406.179 0,-396.726" /></g></g><g transform="matrix(1,0,0,0.61416183,0,139.83642)" id="g404"><defs id="defs406"><rect id="SVGID_81_" x="331.94199" y="9.4530001" width="1" height="397.51901" /></defs><clipPath id="SVGID_82_"><use height="100%" width="100%" y="0" x="0" style="overflow:visible" xlink:href="#SVGID_81_" overflow="visible" id="use410" /></clipPath><g id="g329" clip-path="url(#SVGID_82_)"><path style="fill:none;stroke:#e5e5e5;stroke-width:0.53350002;stroke-linejoin:round;stroke-miterlimit:10" id="path331" stroke-miterlimit="10" d="m 332.321,406.179 0,-396.726" /></g></g><g transform="matrix(1,0,0,0.65671751,0,139.43414)" id="g414"><defs id="defs416"><rect id="SVGID_83_" x="343.94199" y="9.4530001" width="1" height="397.51901" /></defs><clipPath id="SVGID_84_"><use height="100%" width="100%" y="0" x="0" style="overflow:visible" xlink:href="#SVGID_83_" overflow="visible" id="use420" /></clipPath><g id="g333" clip-path="url(#SVGID_84_)"><path style="fill:none;stroke:#e5e5e5;stroke-width:0.53350002;stroke-linejoin:round;stroke-miterlimit:10" id="path335" stroke-miterlimit="10" d="m 344.341,406.179 0,-396.726" /></g></g><g transform="matrix(1,0,0,0.65671751,0,139.43414)" id="g424"><defs id="defs426"><rect id="SVGID_85_" x="355.94199" y="9.4530001" width="1" height="397.51901" /></defs><clipPath id="SVGID_86_"><use height="100%" width="100%" y="0" x="0" style="overflow:visible" xlink:href="#SVGID_85_" overflow="visible" id="use430" /></clipPath><g id="g337" clip-path="url(#SVGID_86_)"><path style="fill:none;stroke:#e5e5e5;stroke-width:0.53350002;stroke-linejoin:round;stroke-miterlimit:10" id="path339" stroke-miterlimit="10" d="m 356.364,406.179 0,-396.726" /></g></g><g transform="matrix(1,0,0,0.65671751,0,139.43414)" id="g434"><defs id="defs436"><rect id="SVGID_87_" x="367.94199" y="9.4530001" width="1" height="397.51901" /></defs><clipPath id="SVGID_88_"><use height="100%" width="100%" y="0" x="0" style="overflow:visible" xlink:href="#SVGID_87_" overflow="visible" id="use440" /></clipPath><g id="g341" clip-path="url(#SVGID_88_)"><path style="fill:none;stroke:#e5e5e5;stroke-width:0.53350002;stroke-linejoin:round;stroke-miterlimit:10" id="path343" stroke-miterlimit="10" d="m 368.387,406.179 0,-396.726" /></g></g><g transform="matrix(1,0,0,0.65671751,0,139.43414)" id="g444"><defs id="defs446"><rect id="SVGID_89_" x="379.94199" y="9.4530001" width="1" height="397.51901" /></defs><clipPath id="SVGID_90_"><use height="100%" width="100%" y="0" x="0" style="overflow:visible" xlink:href="#SVGID_89_" overflow="visible" id="use450" /></clipPath><g id="g345" clip-path="url(#SVGID_90_)"><path style="fill:none;stroke:#e5e5e5;stroke-width:0.53350002;stroke-linejoin:round;stroke-miterlimit:10" id="path347" stroke-miterlimit="10" d="m 380.407,406.179 0,-396.726" /></g></g><g transform="matrix(0.89890701,0,0,1,15.044884,0)" id="g464"><defs id="defs466"><rect id="SVGID_93_" x="13.735" y="206.972" width="397.72699" height="2" /></defs><clipPath id="SVGID_94_"><use height="100%" width="100%" y="0" x="0" style="overflow:visible" xlink:href="#SVGID_93_" overflow="visible" id="use470" /></clipPath><g id="g353" clip-path="url(#SVGID_94_)"><path style="fill:none;stroke:#cccccc;stroke-width:1.06700003;stroke-linejoin:round;stroke-miterlimit:10" id="path355" stroke-miterlimit="10" d="m 13.735,207.816 396.727,0" /></g></g><g transform="matrix(1,0,0,0.61699887,0,139.8096)" id="g494"><defs id="defs496"><rect id="SVGID_99_" x="150.942" y="9.4530001" width="2" height="397.51901" /></defs><clipPath id="SVGID_100_"><use height="100%" width="100%" y="0" x="0" style="overflow:visible" xlink:href="#SVGID_99_" overflow="visible" id="use500" /></clipPath><g id="g365" clip-path="url(#SVGID_100_)"><path style="fill:none;stroke:#cccccc;stroke-width:1.06700003;stroke-linejoin:round;stroke-miterlimit:10" id="path367" stroke-miterlimit="10" d="m 151.989,406.179 0,-396.726" /></g></g><g transform="matrix(1,0,0,0.65671751,0,139.43414)" id="g504"><defs id="defs506"><rect id="SVGID_101_" x="270.94199" y="9.4530001" width="2" height="397.51901" /></defs><clipPath id="SVGID_102_"><use height="100%" width="100%" y="0" x="0" style="overflow:visible" xlink:href="#SVGID_101_" overflow="visible" id="use510" /></clipPath><g id="g369" clip-path="url(#SVGID_102_)"><path style="fill:none;stroke:#cccccc;stroke-width:1.06700003;stroke-linejoin:round;stroke-miterlimit:10" id="path371" stroke-miterlimit="10" d="m 272.208,406.179 0,-396.726" /></g></g><path style="fill:none;stroke:#000000;stroke-width:0.88247031;stroke-linejoin:round;stroke-miterlimit:10" id="path377" stroke-miterlimit="10" d="m 31.77,393.49027 0,-246.70013" /><path style="stroke:#000000;stroke-width:1.06700003;stroke-linejoin:round;stroke-miterlimit:10" id="path379" stroke-miterlimit="10" d="m 33.247,147.859 -1.477,-8.375 -1.477,8.375 2.954,0 z" /><path style="fill:none;stroke:#000000;stroke-width:0.8929764;stroke-linejoin:round;stroke-miterlimit:10" id="path381" stroke-miterlimit="10" d="m 31.77,399.96206 0,-252.60915" /><path style="stroke:#000000;stroke-width:1.06700003;stroke-linejoin:round;stroke-miterlimit:10" id="path383" stroke-miterlimit="10" d="m 33.247,147.859 -1.477,-8.375 -1.477,8.375 2.954,0 z" /><path id="path385" fill="none" stroke="#000000" stroke-width="1.067" stroke-linejoin="round" stroke-miterlimit="10" d="  M31.77,388.144h360.66" /><path id="path387" stroke="#000000" stroke-width="1.067" stroke-linejoin="round" stroke-miterlimit="10" d="M384.055,389.62  l8.375,-1.477l-8.375,-1.477V389.62z" /><path style="fill:none;stroke:#000000;stroke-width:1.0892446;stroke-linejoin:round;stroke-miterlimit:10" id="path389" stroke-miterlimit="10" d="m 16.57535,388.144 375.85465,0" /><path id="path391" stroke="#000000" stroke-width="1.067" stroke-linejoin="round" stroke-miterlimit="10" d="M384.055,389.62  l8.375,-1.477l-8.375,-1.477V389.62z" /><path id="path393" fill="none" stroke="#4169E1" stroke-width="1.067" stroke-linejoin="round" stroke-miterlimit="1" d="  M152.036,387.929l0.074,-0.324l0.07,-0.324l0.074,-0.324l0.07,-0.324l0.074,-0.324l0.07,-0.32l0.074,-0.324l0.07,-0.324l0.074,-0.32  l0.07,-0.324l0.074,-0.32l0.07,-0.32l0.074,-0.324l0.07,-0.32l0.074,-0.32l0.141,-0.641l0.074,-0.32l0.07,-0.32l0.074,-0.316l0.07,-0.32  l0.074,-0.32l0.07,-0.316l0.074,-0.32l0.07,-0.316l0.074,-0.32l0.07,-0.316l0.074,-0.316l0.07,-0.316l0.074,-0.316l0.07,-0.316l0.074,-0.316  l0.141,-0.633l0.074,-0.316l0.07,-0.316l0.074,-0.312l0.07,-0.316l0.074,-0.312l0.07,-0.316l0.074,-0.312l0.07,-0.312l0.074,-0.316l0.07,-0.312  l0.074,-0.312l0.07,-0.312l0.074,-0.312l0.141,-0.625l0.074,-0.312l0.07,-0.309l0.074,-0.312l0.07,-0.309l0.074,-0.312l0.07,-0.309  l0.074,-0.312l0.07,-0.309l0.074,-0.309l0.07,-0.312l0.074,-0.309l0.07,-0.309l0.074,-0.309l0.07,-0.309l0.074,-0.305l0.141,-0.617  l0.074,-0.309l0.07,-0.305l0.074,-0.309l0.07,-0.305l0.074,-0.305l0.07,-0.309l0.074,-0.305l0.07,-0.305l0.074,-0.305l0.07,-0.305l0.074,-0.305  l0.07,-0.305l0.074,-0.305l0.07,-0.305l0.074,-0.305l0.07,-0.301l0.07,-0.305l0.074,-0.301l0.07,-0.305l0.074,-0.301l0.07,-0.305l0.074,-0.301  l0.07,-0.301l0.074,-0.301l0.07,-0.301l0.074,-0.301l0.07,-0.301l0.074,-0.301l0.07,-0.301l0.074,-0.297l0.141,-0.602l0.074,-0.297l0.07,-0.301  l0.074,-0.297l0.07,-0.297l0.074,-0.301l0.07,-0.297l0.074,-0.297l0.07,-0.297l0.074,-0.297l0.07,-0.297l0.074,-0.297l0.07,-0.293l0.074,-0.297  l0.07,-0.297l0.074,-0.293l0.07,-0.297l0.07,-0.293l0.074,-0.297l0.07,-0.293l0.074,-0.293l0.07,-0.293l0.074,-0.297l0.07,-0.293l0.074,-0.293  l0.07,-0.293l0.074,-0.289l0.07,-0.293l0.074,-0.293l0.07,-0.293l0.074,-0.289l0.07,-0.293l0.074,-0.289l0.07,-0.293l0.07,-0.289l0.074,-0.289  l0.07,-0.289l0.074,-0.289l0.07,-0.293l0.074,-0.289l0.07,-0.285l0.074,-0.289l0.07,-0.289l0.074,-0.289l0.07,-0.285l0.074,-0.289l0.07,-0.289  l0.074,-0.285l0.07,-0.285l0.07,-0.289l0.074,-0.285l0.07,-0.285l0.074,-0.285l0.07,-0.285l0.074,-0.285l0.07,-0.285l0.074,-0.285l0.07,-0.285  l0.074,-0.285l0.07,-0.281l0.074,-0.285l0.07,-0.281l0.074,-0.285l0.07,-0.281l0.074,-0.285l0.141,-0.562l0.074,-0.281l0.07,-0.281  l0.074,-0.281l0.07,-0.281l0.074,-0.281l0.07,-0.281l0.074,-0.281l0.07,-0.277l0.074,-0.281l0.07,-0.277l0.074,-0.281l0.07,-0.277l0.074,-0.281  l0.07,-0.277l0.074,-0.277l0.141,-0.555l0.074,-0.277l0.07,-0.277l0.074,-0.277l0.07,-0.277l0.074,-0.277l0.07,-0.273l0.074,-0.277l0.07,-0.273  l0.074,-0.277l0.07,-0.273l0.074,-0.277l0.07,-0.273l0.074,-0.273l0.07,-0.273l0.074,-0.273l0.141,-0.547l0.074,-0.273l0.07,-0.273  l0.074,-0.273l0.07,-0.27l0.074,-0.273l0.07,-0.27l0.074,-0.273l0.07,-0.27l0.074,-0.273l0.07,-0.27l0.074,-0.27l0.07,-0.27l0.074,-0.27  l0.141,-0.539l0.074,-0.27l0.07,-0.27l0.074,-0.27l0.07,-0.266l0.074,-0.27l0.07,-0.266l0.074,-0.27l0.07,-0.266l0.074,-0.27l0.07,-0.266  l0.074,-0.266l0.07,-0.266l0.074,-0.266l0.07,-0.266l0.074,-0.266l0.141,-0.531l0.074,-0.266l0.07,-0.262l0.074,-0.266l0.07,-0.266  l0.074,-0.262l0.07,-0.262l0.074,-0.266l0.07,-0.262l0.074,-0.262l0.07,-0.262l0.074,-0.262l0.07,-0.262l0.074,-0.262l0.07,-0.262l0.074,-0.262  l0.07,-0.262l0.07,-0.258l0.074,-0.262l0.07,-0.262l0.074,-0.258l0.07,-0.262l0.074,-0.258l0.07,-0.258l0.074,-0.258l0.07,-0.258l0.074,-0.262  l0.07,-0.258l0.074,-0.258l0.07,-0.254l0.074,-0.258l0.141,-0.516l0.074,-0.254l0.07,-0.258l0.074,-0.254l0.07,-0.258l0.074,-0.254l0.07,-0.254  l0.074,-0.254l0.07,-0.258l0.074,-0.254l0.07,-0.254l0.074,-0.254l0.07,-0.254l0.074,-0.25l0.07,-0.254l0.074,-0.254l0.07,-0.25l0.07,-0.254  l0.074,-0.25l0.07,-0.254l0.074,-0.25l0.07,-0.25l0.074,-0.254l0.07,-0.25l0.074,-0.25l0.07,-0.25l0.074,-0.25l0.07,-0.25l0.074,-0.25  l0.07,-0.246l0.074,-0.25l0.07,-0.25l0.074,-0.246l0.07,-0.25l0.07,-0.246l0.074,-0.246l0.07,-0.25l0.074,-0.246l0.07,-0.246l0.074,-0.246  l0.07,-0.246l0.074,-0.246l0.07,-0.246l0.074,-0.246l0.07,-0.246l0.074,-0.242l0.07,-0.246l0.074,-0.242l0.07,-0.246l0.07,-0.242l0.074,-0.246  l0.07,-0.242l0.074,-0.242l0.07,-0.242l0.074,-0.242l0.07,-0.242l0.074,-0.242l0.07,-0.242l0.074,-0.242l0.07,-0.242l0.074,-0.242l0.07,-0.238  l0.074,-0.242l0.07,-0.238l0.074,-0.242l0.141,-0.477l0.074,-0.242l0.07,-0.238l0.074,-0.238l0.07,-0.238l0.074,-0.238l0.07,-0.238  l0.074,-0.234l0.07,-0.238l0.074,-0.238l0.07,-0.238l0.074,-0.234l0.07,-0.238l0.074,-0.234l0.07,-0.234l0.074,-0.238l0.141,-0.469  l0.074,-0.234l0.07,-0.234l0.074,-0.234l0.07,-0.234l0.074,-0.234l0.07,-0.234l0.074,-0.23l0.07,-0.234l0.074,-0.23l0.07,-0.234l0.074,-0.23  l0.07,-0.234l0.074,-0.23l0.141,-0.461l0.074,-0.234l0.07,-0.23l0.074,-0.23l0.07,-0.227l0.074,-0.23l0.07,-0.23l0.074,-0.23l0.07,-0.227  l0.074,-0.23l0.07,-0.227l0.074,-0.23l0.07,-0.227l0.074,-0.227l0.07,-0.23l0.074,-0.227l0.141,-0.453l0.074,-0.227l0.07,-0.227l0.074,-0.227  l0.07,-0.223l0.074,-0.227l0.07,-0.227l0.074,-0.223l0.07,-0.227l0.074,-0.223l0.07,-0.227l0.074,-0.223l0.07,-0.223l0.074,-0.223l0.07,-0.223  l0.074,-0.223l0.141,-0.445l0.074,-0.223l0.07,-0.223l0.074,-0.223l0.07,-0.219l0.074,-0.223l0.07,-0.219l0.074,-0.223l0.07,-0.219  l0.074,-0.219l0.07,-0.223l0.074,-0.219l0.07,-0.219l0.074,-0.219l0.07,-0.219l0.074,-0.219l0.07,-0.219l0.07,-0.215l0.074,-0.219l0.07,-0.219  l0.074,-0.215l0.07,-0.219l0.074,-0.215l0.07,-0.219l0.074,-0.215l0.07,-0.215l0.074,-0.215l0.07,-0.215l0.074,-0.215l0.07,-0.215l0.074,-0.215  l0.141,-0.43l0.074,-0.215l0.07,-0.211l0.074,-0.215l0.07,-0.211l0.074,-0.215l0.07,-0.211l0.074,-0.215l0.07,-0.211l0.074,-0.211l0.07,-0.211  l0.074,-0.211l0.07,-0.211l0.074,-0.211l0.07,-0.211l0.074,-0.211l0.07,-0.207l0.07,-0.211l0.074,-0.207l0.07,-0.211l0.074,-0.207l0.07,-0.211  l0.074,-0.207l0.07,-0.207l0.074,-0.211l0.07,-0.207l0.074,-0.207l0.07,-0.207l0.074,-0.207l0.07,-0.203l0.074,-0.207l0.07,-0.207l0.074,-0.207  l0.07,-0.203l0.07,-0.207l0.074,-0.203l0.07,-0.203l0.074,-0.207l0.07,-0.203l0.074,-0.203l0.07,-0.203l0.074,-0.203l0.07,-0.203l0.074,-0.203  l0.07,-0.203l0.074,-0.203l0.07,-0.203l0.074,-0.199l0.07,-0.203l0.07,-0.199l0.074,-0.203l0.07,-0.199l0.074,-0.199l0.07,-0.203l0.074,-0.199  l0.07,-0.199l0.074,-0.199l0.07,-0.199l0.074,-0.199l0.07,-0.199l0.074,-0.199l0.07,-0.195l0.074,-0.199l0.07,-0.195l0.074,-0.199l0.07,-0.195  l0.07,-0.199l0.074,-0.195l0.07,-0.195l0.074,-0.199l0.07,-0.195l0.074,-0.195l0.07,-0.195l0.074,-0.195l0.07,-0.191l0.074,-0.195l0.07,-0.195  l0.074,-0.195l0.07,-0.191l0.074,-0.195l0.07,-0.191l0.074,-0.195l0.141,-0.383l0.074,-0.191l0.07,-0.191l0.074,-0.191l0.07,-0.191  l0.074,-0.191l0.07,-0.191l0.074,-0.191l0.07,-0.191l0.074,-0.188l0.07,-0.191l0.074,-0.191l0.07,-0.188l0.074,-0.188l0.07,-0.191l0.07,-0.188  l0.074,-0.188l0.07,-0.188l0.074,-0.188l0.07,-0.188l0.074,-0.188l0.07,-0.188l0.074,-0.188l0.07,-0.188l0.074,-0.184l0.07,-0.188l0.074,-0.184  l0.07,-0.188l0.074,-0.184l0.07,-0.188l0.074,-0.184l0.141,-0.367l0.074,-0.184l0.07,-0.184l0.074,-0.184l0.07,-0.184l0.074,-0.184l0.07,-0.18  l0.074,-0.184l0.07,-0.184l0.074,-0.18l0.07,-0.184l0.074,-0.18l0.07,-0.18l0.074,-0.184l0.07,-0.18l0.074,-0.18l0.141,-0.359l0.074,-0.18  l0.07,-0.18l0.074,-0.18l0.07,-0.176l0.074,-0.18l0.07,-0.18l0.074,-0.176l0.07,-0.18l0.074,-0.176l0.07,-0.176l0.074,-0.18l0.07,-0.176  l0.074,-0.176l0.141,-0.352l0.074,-0.176l0.07,-0.176l0.074,-0.172l0.07,-0.176l0.074,-0.176l0.07,-0.172l0.074,-0.176l0.07,-0.172  l0.074,-0.176l0.07,-0.172l0.074,-0.172l0.07,-0.176l0.074,-0.172l0.07,-0.172l0.074,-0.172l0.141,-0.344l0.074,-0.168l0.07,-0.172  l0.074,-0.172l0.07,-0.168l0.074,-0.172l0.07,-0.168l0.074,-0.172l0.07,-0.168l0.074,-0.168l0.07,-0.172l0.074,-0.168l0.07,-0.168l0.074,-0.168  l0.07,-0.168l0.074,-0.168l0.07,-0.164l0.07,-0.168l0.074,-0.168l0.07,-0.164l0.074,-0.168l0.07,-0.164l0.074,-0.168l0.07,-0.164l0.074,-0.164  l0.07,-0.168l0.074,-0.164l0.07,-0.164l0.074,-0.164l0.07,-0.164l0.074,-0.164l0.07,-0.16l0.074,-0.164l0.07,-0.164l0.07,-0.16l0.074,-0.164  l0.07,-0.16l0.074,-0.164l0.07,-0.16l0.074,-0.16l0.07,-0.164l0.074,-0.16l0.07,-0.16l0.074,-0.16l0.07,-0.16l0.074,-0.16l0.07,-0.16  l0.074,-0.156l0.141,-0.32l0.074,-0.156l0.07,-0.16l0.074,-0.156l0.07,-0.156l0.074,-0.16l0.07,-0.156l0.074,-0.156l0.07,-0.156l0.074,-0.156  l0.07,-0.156l0.074,-0.156l0.07,-0.156l0.074,-0.152l0.07,-0.156l0.074,-0.156l0.07,-0.152l0.07,-0.156l0.074,-0.152l0.07,-0.152l0.074,-0.156  l0.07,-0.152l0.074,-0.152l0.07,-0.152l0.074,-0.152l0.07,-0.152l0.074,-0.152l0.07,-0.152l0.074,-0.152l0.07,-0.148l0.074,-0.152l0.07,-0.148  l0.074,-0.152l0.07,-0.148l0.07,-0.152l0.074,-0.148l0.07,-0.148l0.074,-0.148l0.07,-0.148l0.074,-0.148l0.07,-0.148l0.074,-0.148l0.07,-0.148  l0.074,-0.148l0.07,-0.145l0.074,-0.148l0.07,-0.148l0.074,-0.145l0.07,-0.145l0.07,-0.148l0.074,-0.145l0.07,-0.145l0.074,-0.145l0.07,-0.145  l0.145,-0.289l0.074,-0.145l0.07,-0.145l0.074,-0.145l0.07,-0.145l0.074,-0.141l0.07,-0.145l0.074,-0.141l0.07,-0.145l0.074,-0.141  l0.141,-0.281l0.074,-0.145l0.07,-0.141l0.074,-0.141l0.07,-0.141l0.074,-0.141l0.07,-0.137l0.074,-0.141l0.07,-0.141l0.074,-0.137l0.07,-0.141  l0.074,-0.137l0.07,-0.141l0.074,-0.137l0.07,-0.141l0.074,-0.137l0.141,-0.273l0.074,-0.137l0.07,-0.137l0.074,-0.137l0.07,-0.137  l0.074,-0.133l0.07,-0.137l0.074,-0.137l0.07,-0.133l0.074,-0.137l0.07,-0.133l0.074,-0.137l0.07,-0.133l0.074,-0.133l0.141,-0.266  l0.074,-0.133l0.07,-0.133l0.074,-0.133l0.07,-0.133l0.074,-0.133l0.07,-0.129l0.074,-0.133l0.07,-0.133l0.074,-0.129l0.07,-0.133l0.074,-0.129  l0.07,-0.129l0.074,-0.129l0.07,-0.133l0.074,-0.129l0.141,-0.258l0.074,-0.129l0.07,-0.125l0.074,-0.129l0.07,-0.129l0.074,-0.125l0.07,-0.129  l0.074,-0.125l0.07,-0.129l0.074,-0.125l0.07,-0.129l0.074,-0.125l0.07,-0.125l0.074,-0.125l0.07,-0.125l0.074,-0.125l0.141,-0.25l0.074,-0.125  l0.07,-0.121l0.074,-0.125l0.07,-0.121l0.074,-0.125l0.07,-0.121l0.074,-0.125l0.07,-0.121l0.074,-0.121l0.07,-0.121l0.074,-0.121l0.07,-0.121  l0.074,-0.121l0.141,-0.242l0.074,-0.121l0.07,-0.121l0.074,-0.117l0.07,-0.121l0.074,-0.117l0.07,-0.121l0.074,-0.117l0.07,-0.117  l0.074,-0.121l0.07,-0.117l0.074,-0.117l0.07,-0.117l0.074,-0.117l0.07,-0.117l0.074,-0.117l0.07,-0.113l0.07,-0.117l0.074,-0.117l0.07,-0.113  l0.074,-0.117l0.07,-0.113l0.074,-0.117l0.07,-0.113l0.074,-0.113l0.07,-0.113l0.074,-0.113l0.07,-0.113l0.074,-0.113l0.07,-0.113l0.074,-0.113  l0.07,-0.113l0.074,-0.113l0.07,-0.109l0.07,-0.113l0.074,-0.109l0.07,-0.113l0.074,-0.109l0.07,-0.109l0.074,-0.113l0.07,-0.109l0.074,-0.109  l0.07,-0.109l0.074,-0.109l0.07,-0.109l0.074,-0.109l0.07,-0.105l0.074,-0.109l0.07,-0.109l0.074,-0.105l0.07,-0.109l0.07,-0.105l0.074,-0.109  l0.07,-0.105l0.074,-0.105l0.07,-0.105l0.074,-0.109l0.07,-0.105l0.074,-0.105l0.07,-0.102l0.074,-0.105l0.07,-0.105l0.074,-0.105l0.07,-0.102  l0.074,-0.105l0.07,-0.102l0.07,-0.105l0.074,-0.102l0.07,-0.105l0.074,-0.102l0.07,-0.102l0.074,-0.102l0.07,-0.102l0.074,-0.102l0.07,-0.102  l0.074,-0.102l0.07,-0.102l0.074,-0.098l0.07,-0.102l0.074,-0.102l0.07,-0.098l0.074,-0.102l0.141,-0.195l0.074,-0.098l0.07,-0.102  l0.074,-0.098l0.07,-0.098l0.074,-0.098l0.07,-0.098l0.074,-0.098l0.07,-0.094l0.074,-0.098l0.07,-0.098l0.074,-0.094l0.07,-0.098l0.074,-0.094  l0.07,-0.098l0.074,-0.094l0.141,-0.188l0.074,-0.094l0.07,-0.094l0.074,-0.094l0.07,-0.094l0.074,-0.094l0.07,-0.094l0.074,-0.094l0.07,-0.09  l0.074,-0.094l0.07,-0.09l0.074,-0.094l0.07,-0.09l0.074,-0.094l0.141,-0.18l0.074,-0.09l0.07,-0.09l0.074,-0.09l0.07,-0.09l0.074,-0.09  l0.07,-0.09l0.074,-0.086l0.07,-0.09l0.074,-0.09l0.07,-0.086l0.074,-0.09l0.07,-0.086l0.074,-0.086l0.07,-0.09l0.074,-0.086l0.141,-0.172  l0.074,-0.086l0.07,-0.086l0.074,-0.086l0.07,-0.086l0.074,-0.082L218.7,199l0.074,-0.082l0.07,-0.086l0.074,-0.082l0.07,-0.086l0.074,-0.082  l0.07,-0.082l0.074,-0.086l0.07,-0.082l0.074,-0.082l0.141,-0.164l0.074,-0.082l0.07,-0.078l0.074,-0.082l0.07,-0.082l0.074,-0.078l0.07,-0.082  l0.074,-0.078l0.07,-0.082l0.074,-0.078l0.07,-0.078l0.074,-0.078l0.07,-0.082l0.074,-0.078l0.07,-0.078l0.07,-0.074l0.074,-0.078l0.07,-0.078  l0.074,-0.078l0.07,-0.078l0.074,-0.074l0.07,-0.078l0.074,-0.074l0.07,-0.074l0.074,-0.078l0.07,-0.074l0.074,-0.074l0.07,-0.074l0.074,-0.074  l0.07,-0.074l0.074,-0.074l0.141,-0.148l0.219,-0.219l0.07,-0.074l0.074,-0.07l0.215,-0.215l0.074,-0.07l0.07,-0.07l0.074,-0.07l0.07,-0.07  l0.074,-0.07l0.07,-0.07l0.074,-0.07l0.07,-0.07l0.07,-0.066l0.074,-0.07l0.07,-0.066l0.074,-0.07l0.07,-0.066l0.074,-0.07l0.07,-0.066  l0.074,-0.066l0.07,-0.066l0.074,-0.066l0.07,-0.066l0.074,-0.066l0.07,-0.066l0.074,-0.066l0.07,-0.066l0.07,-0.062l0.074,-0.066l0.07,-0.062  l0.074,-0.066l0.07,-0.062l0.074,-0.066l0.07,-0.062l0.074,-0.062l0.07,-0.062l0.074,-0.062l0.07,-0.062l0.074,-0.062l0.07,-0.062l0.074,-0.062  l0.07,-0.062l0.074,-0.059l0.07,-0.062l0.07,-0.059l0.074,-0.062l0.07,-0.059l0.074,-0.062l0.07,-0.059l0.074,-0.059l0.07,-0.059l0.074,-0.059  l0.07,-0.059l0.074,-0.059l0.07,-0.059l0.074,-0.059l0.07,-0.059l0.074,-0.055l0.07,-0.059l0.074,-0.055l0.07,-0.059l0.07,-0.055l0.074,-0.059  l0.07,-0.055l0.074,-0.055l0.07,-0.055l0.074,-0.055l0.07,-0.055l0.074,-0.055l0.07,-0.055l0.074,-0.055l0.07,-0.055l0.074,-0.051l0.07,-0.055  l0.074,-0.051l0.07,-0.055l0.074,-0.051l0.07,-0.055l0.07,-0.051l0.074,-0.051l0.07,-0.051l0.074,-0.051l0.07,-0.051l0.074,-0.051l0.07,-0.051  l0.074,-0.051l0.07,-0.051l0.074,-0.047l0.07,-0.051l0.074,-0.051l0.07,-0.047l0.074,-0.047l0.07,-0.051l0.07,-0.047l0.074,-0.047l0.07,-0.047  l0.074,-0.051l0.07,-0.047l0.074,-0.043l0.07,-0.047l0.074,-0.047l0.07,-0.047l0.074,-0.047l0.07,-0.043l0.074,-0.047l0.07,-0.043l0.074,-0.047  l0.07,-0.043l0.074,-0.043l0.07,-0.043l0.07,-0.047l0.074,-0.043l0.07,-0.043l0.074,-0.043l0.07,-0.043l0.074,-0.039l0.07,-0.043l0.074,-0.043  l0.07,-0.039l0.074,-0.043l0.07,-0.039l0.074,-0.043l0.07,-0.039l0.074,-0.039l0.07,-0.043l0.074,-0.039l0.141,-0.078l0.074,-0.039l0.07,-0.039  l0.074,-0.039l0.07,-0.035l0.074,-0.039l0.07,-0.039l0.074,-0.035l0.07,-0.039l0.074,-0.035l0.07,-0.035l0.074,-0.039l0.07,-0.035l0.074,-0.035  l0.141,-0.07l0.074,-0.035l0.07,-0.035l0.074,-0.035l0.07,-0.035l0.074,-0.031l0.07,-0.035l0.074,-0.031l0.07,-0.035l0.074,-0.031l0.07,-0.035  l0.074,-0.031l0.07,-0.031l0.074,-0.031l0.07,-0.031l0.074,-0.031l0.141,-0.062l0.074,-0.031l0.07,-0.031l0.074,-0.027l0.07,-0.031  l0.074,-0.031l0.07,-0.027l0.074,-0.031l0.07,-0.027l0.074,-0.027l0.07,-0.027l0.074,-0.031l0.07,-0.027l0.074,-0.027l0.07,-0.027l0.074,-0.027  l0.07,-0.023l0.07,-0.027l0.074,-0.027l0.07,-0.023l0.074,-0.027l0.07,-0.023l0.074,-0.027l0.07,-0.023l0.074,-0.027l0.07,-0.023l0.074,-0.023  l0.07,-0.023l0.074,-0.023l0.07,-0.023l0.074,-0.023l0.07,-0.023l0.07,-0.02l0.074,-0.023l0.07,-0.023l0.074,-0.02l0.07,-0.023l0.074,-0.02  l0.07,-0.023l0.074,-0.02l0.07,-0.02l0.074,-0.02l0.07,-0.02l0.074,-0.02l0.07,-0.02l0.074,-0.02l0.07,-0.02l0.074,-0.02l0.07,-0.02l0.07,-0.016  l0.074,-0.02l0.07,-0.016l0.074,-0.02l0.07,-0.016l0.074,-0.016l0.07,-0.02l0.074,-0.016l0.07,-0.016l0.074,-0.016l0.07,-0.016l0.074,-0.016  l0.07,-0.016l0.074,-0.012l0.07,-0.016l0.074,-0.016l0.07,-0.012l0.07,-0.016l0.074,-0.012l0.07,-0.012l0.074,-0.016l0.07,-0.012l0.074,-0.012  l0.07,-0.012l0.074,-0.012l0.07,-0.012l0.074,-0.012l0.07,-0.012l0.074,-0.012l0.07,-0.008l0.074,-0.012l0.07,-0.012l0.07,-0.008l0.074,-0.012  l0.07,-0.008l0.074,-0.008l0.07,-0.008l0.074,-0.012l0.07,-0.008l0.074,-0.008l0.07,-0.008l0.074,-0.008l0.07,-0.004l0.074,-0.008l0.07,-0.008  l0.074,-0.008l0.07,-0.004l0.074,-0.008l0.141,-0.008l0.074,-0.008l0.07,-0.004l0.074,-0.004l0.07,-0.004l0.074,-0.004l0.07,-0.004  l0.074,-0.004l0.07,-0.004l0.074,-0.004l0.07,-0.004h0.074l0.07,-0.004h0.074l0.07,-0.004h0.145l0.07,-0.004h0.434l0.074,0.004h0.145  l0.07,0.004h0.074l0.07,0.004h0.074l0.07,0.004l0.074,0.004l0.141,0.008l0.074,0.004l0.07,0.004l0.074,0.004l0.07,0.004l0.074,0.004  l0.07,0.004l0.074,0.008l0.07,0.004l0.074,0.008l0.07,0.004l0.074,0.008l0.07,0.004l0.074,0.008l0.141,0.016l0.074,0.008l0.07,0.008  l0.074,0.008l0.07,0.008l0.074,0.008l0.07,0.012l0.074,0.008l0.07,0.008l0.074,0.012l0.07,0.008l0.074,0.012l0.07,0.012l0.074,0.012  l0.07,0.008l0.074,0.012l0.141,0.023l0.074,0.012l0.07,0.012l0.074,0.016l0.07,0.012l0.074,0.012l0.07,0.016l0.074,0.012l0.07,0.016  l0.074,0.012l0.07,0.016l0.074,0.016l0.07,0.016l0.074,0.016l0.07,0.012l0.074,0.02l0.141,0.031l0.074,0.016l0.07,0.016l0.074,0.02  l0.07,0.016l0.074,0.016l0.07,0.02l0.074,0.02l0.07,0.016l0.074,0.02l0.07,0.02l0.074,0.02l0.07,0.02l0.074,0.02l0.141,0.039  l0.074,0.02l0.07,0.02l0.074,0.023l0.07,0.02l0.074,0.023l0.07,0.02l0.074,0.023l0.07,0.023l0.074,0.02l0.07,0.023l0.074,0.023  l0.07,0.023l0.074,0.023l0.07,0.023l0.074,0.023l0.07,0.023l0.07,0.027l0.074,0.023l0.07,0.023l0.074,0.027l0.07,0.023l0.074,0.027  l0.07,0.027l0.074,0.023l0.07,0.027l0.074,0.027l0.07,0.027l0.074,0.027l0.07,0.027l0.074,0.027l0.07,0.031l0.074,0.027l0.07,0.027  l0.07,0.031l0.074,0.027l0.07,0.031l0.074,0.027l0.07,0.031l0.074,0.031l0.07,0.027l0.074,0.031l0.07,0.031l0.074,0.031l0.07,0.031  l0.074,0.031l0.07,0.035l0.074,0.031l0.07,0.031l0.07,0.035l0.074,0.031l0.07,0.035l0.074,0.031l0.07,0.035l0.074,0.035l0.07,0.035  l0.074,0.031l0.07,0.035l0.074,0.035l0.07,0.035l0.074,0.039l0.07,0.035l0.074,0.035l0.07,0.035l0.074,0.039l0.07,0.035l0.07,0.039  L252.61,188l0.07,0.039l0.074,0.039l0.07,0.039l0.074,0.039l0.07,0.035l0.074,0.039l0.07,0.043l0.074,0.039l0.07,0.039l0.074,0.039  l0.07,0.039l0.074,0.043l0.07,0.039l0.074,0.043l0.07,0.039l0.07,0.043l0.074,0.043l0.07,0.043l0.074,0.043l0.07,0.039l0.074,0.043  l0.07,0.047l0.074,0.043l0.07,0.043l0.074,0.043l0.07,0.043l0.074,0.047l0.07,0.043l0.074,0.047l0.07,0.043l0.07,0.047l0.074,0.047  l0.07,0.047l0.074,0.047l0.07,0.043l0.074,0.047l0.07,0.051l0.074,0.047l0.07,0.047l0.074,0.047l0.07,0.047l0.074,0.051l0.07,0.047  l0.074,0.051l0.07,0.047l0.074,0.051l0.141,0.102l0.074,0.047l0.07,0.051l0.074,0.051l0.07,0.051l0.074,0.055l0.07,0.051  l0.074,0.051l0.07,0.051l0.074,0.055l0.07,0.051l0.074,0.055l0.07,0.051l0.074,0.055l0.07,0.055l0.074,0.055l0.07,0.051l0.07,0.055  l0.074,0.055l0.07,0.055l0.074,0.059l0.07,0.055l0.074,0.055l0.07,0.055l0.074,0.059l0.07,0.055l0.074,0.059l0.07,0.055l0.074,0.059  l0.07,0.059l0.074,0.055l0.07,0.059l0.074,0.059l0.141,0.117l0.074,0.059l0.07,0.062l0.074,0.059l0.07,0.059l0.074,0.062l0.07,0.059  l0.074,0.062l0.07,0.059l0.074,0.062l0.07,0.062l0.074,0.059l0.07,0.062l0.074,0.062l0.141,0.125l0.074,0.062l0.07,0.062  l0.074,0.066l0.07,0.062l0.074,0.062l0.07,0.066l0.074,0.062l0.07,0.066l0.074,0.066l0.07,0.062l0.074,0.066l0.07,0.066l0.074,0.066  l0.07,0.066l0.074,0.066l0.141,0.133l0.074,0.066l0.07,0.07l0.074,0.066l0.07,0.07l0.074,0.066l0.07,0.07l0.074,0.066l0.07,0.07  l0.074,0.07l0.07,0.07l0.074,0.07l0.07,0.07l0.074,0.07l0.07,0.07l0.074,0.07l0.07,0.07l0.07,0.074l0.074,0.07l0.289,0.289  l0.07,0.074l0.219,0.219l0.07,0.074l0.074,0.074l0.07,0.078l0.074,0.074l0.141,0.148l0.074,0.078l0.07,0.074l0.074,0.078l0.07,0.074  l0.074,0.078l0.07,0.078l0.074,0.074l0.07,0.078l0.074,0.078l0.07,0.078l0.074,0.078l0.07,0.078l0.074,0.078l0.07,0.082l0.074,0.078  l0.07,0.078l0.07,0.082l0.074,0.078l0.07,0.082l0.074,0.082l0.07,0.078l0.074,0.082l0.07,0.082l0.074,0.082l0.07,0.082l0.074,0.082  l0.07,0.082l0.074,0.082l0.07,0.082l0.074,0.086l0.07,0.082l0.074,0.082l0.141,0.172l0.074,0.082l0.07,0.086l0.074,0.086l0.07,0.082  l0.074,0.086l0.07,0.086l0.074,0.086l0.07,0.09l0.074,0.086l0.07,0.086l0.074,0.086l0.07,0.09l0.074,0.086l0.07,0.09l0.07,0.086  l0.074,0.09l0.07,0.086l0.074,0.09l0.07,0.09l0.074,0.09l0.07,0.09l0.074,0.09l0.07,0.09l0.074,0.09l0.07,0.094l0.074,0.09  l0.07,0.09l0.074,0.094l0.07,0.09l0.074,0.094l0.07,0.09l0.07,0.094l0.074,0.094l0.07,0.094l0.074,0.094l0.07,0.094l0.074,0.094  l0.07,0.094l0.074,0.094l0.07,0.094l0.074,0.094l0.07,0.098l0.074,0.094l0.07,0.098l0.074,0.094l0.07,0.098l0.074,0.098l0.07,0.094  l0.07,0.098l0.074,0.098l0.07,0.098l0.074,0.098l0.07,0.098l0.074,0.098l0.07,0.102l0.074,0.098l0.07,0.098l0.074,0.102l0.07,0.098  l0.074,0.102l0.07,0.098l0.074,0.102l0.07,0.102l0.074,0.102l0.141,0.203l0.074,0.102l0.07,0.102l0.074,0.102l0.07,0.102  l0.074,0.102l0.07,0.105l0.074,0.102l0.07,0.105l0.074,0.102l0.07,0.105l0.074,0.102l0.07,0.105l0.074,0.105l0.141,0.211  l0.074,0.105l0.07,0.105l0.074,0.105l0.07,0.105l0.074,0.109l0.07,0.105l0.074,0.109l0.07,0.105l0.074,0.109l0.07,0.105l0.074,0.109  l0.07,0.109l0.074,0.105l0.07,0.109l0.074,0.109l0.141,0.219l0.074,0.113l0.07,0.109l0.074,0.109l0.07,0.109l0.074,0.113l0.07,0.109  l0.074,0.113l0.07,0.113l0.074,0.109l0.07,0.113l0.074,0.113l0.07,0.113l0.074,0.113l0.07,0.113l0.074,0.113l0.141,0.227  l0.074,0.113l0.07,0.117l0.074,0.113l0.07,0.117l0.074,0.113l0.07,0.117l0.074,0.117l0.07,0.113l0.074,0.117l0.07,0.117l0.074,0.117  l0.07,0.117l0.074,0.117l0.07,0.117l0.07,0.121l0.074,0.117l0.07,0.117l0.074,0.121l0.07,0.117l0.074,0.121l0.07,0.117l0.074,0.121  l0.07,0.121l0.074,0.121l0.07,0.117l0.074,0.121l0.07,0.121l0.074,0.121l0.07,0.125l0.074,0.121l0.141,0.242l0.074,0.125l0.07,0.121  l0.074,0.125l0.07,0.125l0.074,0.121l0.07,0.125l0.074,0.125l0.07,0.125l0.074,0.125l0.07,0.125l0.074,0.125l0.07,0.125l0.074,0.125  l0.07,0.125l0.074,0.129l0.07,0.125l0.07,0.129l0.074,0.125l0.07,0.129l0.074,0.125l0.07,0.129l0.074,0.129l0.07,0.129l0.074,0.129  l0.07,0.129l0.074,0.129l0.07,0.129l0.074,0.129l0.07,0.133l0.074,0.129l0.07,0.129l0.07,0.133l0.074,0.129l0.07,0.133l0.074,0.133  l0.07,0.129l0.074,0.133l0.07,0.133l0.074,0.133l0.07,0.133l0.074,0.133l0.07,0.133l0.074,0.133l0.07,0.137l0.074,0.133l0.07,0.133  l0.074,0.137l0.07,0.133l0.07,0.137l0.074,0.137l0.07,0.137l0.074,0.133l0.07,0.137l0.074,0.137l0.07,0.137l0.074,0.137l0.07,0.137  l0.074,0.141l0.07,0.137l0.074,0.137l0.07,0.141l0.074,0.137l0.07,0.141l0.074,0.137l0.141,0.281l0.074,0.137l0.07,0.141  l0.074,0.141l0.07,0.141l0.074,0.141l0.07,0.141l0.074,0.145l0.07,0.141l0.074,0.141l0.07,0.145l0.074,0.141l0.07,0.145l0.074,0.141  l0.141,0.289l0.074,0.145l0.07,0.141l0.074,0.145l0.07,0.145l0.074,0.145l0.07,0.148l0.074,0.145l0.07,0.145l0.074,0.145l0.07,0.148  l0.074,0.145l0.07,0.148l0.074,0.145l0.07,0.148l0.074,0.148l0.07,0.148l0.07,0.145l0.074,0.148l0.07,0.148l0.074,0.148l0.07,0.152  l0.074,0.148l0.07,0.148l0.074,0.148l0.07,0.152l0.074,0.148l0.07,0.152l0.074,0.148l0.07,0.152l0.074,0.152l0.07,0.152l0.074,0.148  l0.141,0.305l0.074,0.152l0.07,0.156l0.074,0.152l0.07,0.152l0.074,0.152l0.07,0.156l0.074,0.152l0.07,0.156l0.074,0.152l0.07,0.156  l0.074,0.156l0.07,0.156l0.074,0.152l0.07,0.156l0.074,0.156l0.07,0.156l0.07,0.16l0.074,0.156l0.07,0.156l0.074,0.156l0.07,0.16  l0.074,0.156l0.07,0.16l0.074,0.156l0.07,0.16l0.074,0.16l0.07,0.156l0.074,0.16l0.07,0.16l0.074,0.16l0.141,0.32l0.074,0.164  l0.07,0.16l0.074,0.16l0.07,0.164l0.074,0.16l0.07,0.164l0.074,0.16l0.07,0.164l0.074,0.164l0.07,0.16l0.074,0.164l0.07,0.164  l0.074,0.164l0.07,0.164l0.074,0.164l0.07,0.168l0.07,0.164l0.074,0.164l0.07,0.164l0.074,0.168l0.07,0.164l0.074,0.168l0.07,0.168  l0.074,0.164l0.07,0.168l0.074,0.168l0.07,0.168l0.074,0.168l0.07,0.168l0.074,0.168l0.07,0.168l0.074,0.172l0.141,0.336  l0.074,0.172l0.07,0.168l0.074,0.172l0.07,0.172l0.074,0.168l0.07,0.172l0.074,0.172l0.07,0.172l0.074,0.172l0.07,0.172l0.074,0.172  l0.07,0.172l0.074,0.172l0.07,0.176l0.07,0.172l0.074,0.176l0.07,0.172l0.074,0.176l0.07,0.172l0.074,0.176l0.07,0.176l0.074,0.176  l0.07,0.176l0.074,0.176l0.07,0.176l0.074,0.176l0.07,0.176l0.074,0.176l0.07,0.18l0.074,0.176l0.07,0.176l0.07,0.18l0.074,0.176  l0.07,0.18l0.074,0.18l0.07,0.18l0.074,0.176l0.07,0.18l0.074,0.18l0.07,0.18l0.074,0.18l0.07,0.184l0.074,0.18l0.07,0.18  l0.074,0.184l0.07,0.18l0.074,0.184l0.07,0.18l0.07,0.184l0.074,0.184l0.07,0.18l0.074,0.184l0.07,0.184l0.074,0.184l0.07,0.184  l0.074,0.184l0.07,0.184l0.074,0.188l0.07,0.184l0.074,0.184l0.07,0.188l0.074,0.184l0.07,0.188l0.07,0.184l0.074,0.188l0.07,0.188  l0.074,0.188l0.07,0.188l0.074,0.188l0.07,0.188l0.074,0.188l0.07,0.188l0.074,0.188l0.07,0.191l0.074,0.188l0.07,0.188l0.074,0.191  l0.07,0.188l0.074,0.191l0.141,0.383l0.074,0.188l0.07,0.191l0.074,0.191l0.07,0.191l0.074,0.191l0.07,0.195l0.074,0.191l0.07,0.191  l0.074,0.195l0.07,0.191l0.074,0.195l0.07,0.191l0.074,0.195l0.07,0.191l0.074,0.195l0.141,0.391l0.074,0.195l0.07,0.195  l0.074,0.195l0.07,0.195l0.074,0.195l0.07,0.199l0.074,0.195l0.07,0.199l0.074,0.195l0.07,0.199l0.074,0.195l0.07,0.199l0.074,0.199  l0.141,0.398l0.074,0.195l0.07,0.203l0.074,0.199l0.07,0.199l0.074,0.199l0.07,0.199l0.074,0.203l0.07,0.199l0.074,0.203l0.07,0.199  l0.074,0.203l0.07,0.203l0.074,0.199l0.07,0.203l0.074,0.203l0.141,0.406l0.074,0.203l0.07,0.203l0.074,0.207l0.07,0.203  l0.074,0.203l0.07,0.207l0.074,0.203l0.07,0.207l0.074,0.203l0.07,0.207l0.074,0.207l0.07,0.207l0.074,0.207l0.07,0.203l0.074,0.211  l0.141,0.414l0.074,0.207l0.07,0.207l0.074,0.211l0.07,0.207l0.074,0.211l0.07,0.207l0.074,0.211l0.07,0.207l0.074,0.211l0.07,0.211  l0.074,0.211l0.07,0.211l0.074,0.211l0.07,0.211l0.074,0.211l0.07,0.211l0.07,0.215l0.074,0.211l0.07,0.215l0.074,0.211l0.07,0.215  l0.074,0.211l0.07,0.215l0.074,0.215l0.07,0.211l0.074,0.215l0.07,0.215l0.074,0.215l0.07,0.215l0.074,0.219l0.141,0.43l0.074,0.219  l0.07,0.215l0.074,0.215l0.07,0.219l0.074,0.219l0.07,0.215l0.074,0.219l0.07,0.219l0.074,0.219l0.07,0.219l0.074,0.219l0.07,0.219  l0.074,0.219l0.07,0.219l0.074,0.223l0.141,0.438l0.074,0.223l0.07,0.219l0.074,0.223l0.07,0.223l0.074,0.219l0.07,0.223  l0.074,0.223l0.07,0.223l0.074,0.223l0.07,0.223l0.074,0.223l0.07,0.227l0.074,0.223l0.07,0.223l0.074,0.227l0.07,0.223l0.07,0.227  l0.074,0.223l0.07,0.227l0.074,0.227l0.07,0.227l0.074,0.223l0.07,0.227l0.074,0.227l0.07,0.227l0.074,0.23l0.07,0.227l0.074,0.227  l0.07,0.227l0.074,0.23l0.07,0.227l0.07,0.23l0.074,0.23l0.07,0.227l0.074,0.23l0.07,0.23l0.074,0.23l0.07,0.23l0.074,0.23  l0.07,0.23l0.074,0.23l0.07,0.23l0.074,0.23l0.07,0.234l0.074,0.23l0.07,0.234l0.074,0.23l0.07,0.234l0.07,0.23l0.074,0.234  l0.07,0.234l0.074,0.234l0.07,0.234l0.074,0.234l0.07,0.234l0.074,0.234l0.07,0.234l0.074,0.238l0.07,0.234l0.074,0.234l0.07,0.238  l0.074,0.234l0.07,0.238l0.074,0.238l0.07,0.234l0.07,0.238l0.074,0.238l0.07,0.238l0.074,0.238l0.07,0.238l0.074,0.238l0.07,0.238  l0.074,0.242l0.07,0.238l0.074,0.242l0.07,0.238l0.074,0.242l0.07,0.238l0.074,0.242l0.07,0.242l0.07,0.238l0.074,0.242l0.07,0.242  l0.074,0.242l0.07,0.242l0.074,0.242l0.07,0.246l0.074,0.242l0.07,0.242l0.074,0.246l0.07,0.242l0.074,0.246l0.07,0.242l0.074,0.246  l0.07,0.246l0.074,0.242l0.141,0.492l0.074,0.246l0.07,0.246l0.074,0.25l0.07,0.246l0.074,0.246l0.07,0.246l0.074,0.25l0.07,0.246  l0.074,0.25l0.07,0.246l0.074,0.25l0.07,0.25l0.074,0.25l0.07,0.246l0.074,0.25l0.141,0.5l0.074,0.254l0.07,0.25l0.074,0.25  l0.07,0.25l0.074,0.254l0.07,0.25l0.074,0.254l0.07,0.25l0.074,0.254l0.07,0.254l0.074,0.254l0.07,0.25l0.074,0.254l0.07,0.254  l0.07,0.258l0.074,0.254l0.07,0.254l0.074,0.254l0.07,0.254l0.074,0.258l0.07,0.254l0.074,0.258l0.07,0.254l0.074,0.258l0.07,0.258  l0.074,0.258l0.07,0.258l0.074,0.254l0.07,0.258l0.074,0.262l0.141,0.516l0.074,0.258l0.07,0.258l0.074,0.262l0.07,0.258  l0.074,0.262l0.07,0.258l0.074,0.262l0.07,0.262l0.074,0.262l0.07,0.258l0.074,0.262l0.07,0.262l0.074,0.262l0.07,0.266l0.074,0.262  l0.141,0.523l0.074,0.266l0.07,0.262l0.074,0.266l0.07,0.262l0.074,0.266l0.07,0.266l0.074,0.266l0.07,0.262l0.074,0.266l0.07,0.266  l0.074,0.266l0.07,0.27l0.074,0.266l0.07,0.266l0.074,0.266l0.07,0.27l0.07,0.266l0.074,0.27l0.07,0.266l0.074,0.27l0.07,0.27  l0.074,0.266l0.07,0.27l0.074,0.27l0.07,0.27l0.074,0.27l0.07,0.27l0.074,0.273l0.07,0.27l0.074,0.27l0.07,0.273l0.07,0.27  l0.074,0.273l0.07,0.27l0.074,0.273l0.07,0.273l0.074,0.27l0.07,0.273l0.074,0.273l0.07,0.273l0.074,0.273l0.07,0.273l0.074,0.273  l0.07,0.277l0.074,0.273l0.07,0.273l0.074,0.277l0.07,0.273l0.07,0.277l0.074,0.277l0.07,0.273l0.074,0.277l0.07,0.277l0.074,0.277  l0.07,0.277l0.074,0.277l0.07,0.277l0.074,0.277l0.07,0.281l0.074,0.277l0.07,0.277l0.074,0.281l0.07,0.277l0.074,0.281l0.07,0.277  l0.07,0.281l0.074,0.281l0.07,0.281l0.074,0.281l0.07,0.281l0.074,0.281l0.07,0.281l0.074,0.281l0.07,0.281l0.074,0.285l0.07,0.281  l0.074,0.281l0.07,0.285l0.074,0.285l0.07,0.281l0.07,0.285l0.074,0.285l0.07,0.285l0.074,0.281l0.07,0.285l0.074,0.285l0.07,0.289  l0.074,0.285l0.07,0.285l0.074,0.285l0.07,0.289l0.074,0.285l0.07,0.289l0.074,0.285l0.07,0.289l0.074,0.289l0.07,0.285l0.07,0.289  l0.074,0.289l0.07,0.289l0.074,0.289l0.07,0.289l0.074,0.289l0.07,0.293l0.074,0.289l0.07,0.289l0.074,0.293l0.07,0.289l0.074,0.293  l0.07,0.293l0.074,0.289l0.07,0.293l0.074,0.293l0.141,0.586l0.074,0.293l0.07,0.293l0.074,0.293l0.07,0.293l0.074,0.297l0.07,0.293  l0.074,0.297l0.07,0.293l0.074,0.297l0.07,0.293l0.074,0.297l0.07,0.297l0.074,0.297l0.07,0.293l0.07,0.297l0.074,0.301l0.07,0.297  l0.074,0.297l0.07,0.297l0.074,0.297l0.07,0.301l0.074,0.297l0.07,0.301l0.074,0.297l0.07,0.301l0.074,0.301l0.07,0.297l0.074,0.301  l0.07,0.301l0.074,0.301l0.141,0.602l0.074,0.301l0.07,0.305l0.074,0.301l0.07,0.301l0.074,0.305l0.07,0.301l0.074,0.305l0.07,0.301  l0.074,0.305l0.07,0.305l0.074,0.305l0.07,0.305l0.074,0.305l0.07,0.305l0.074,0.305l0.141,0.609l0.074,0.305l0.07,0.309  l0.074,0.305l0.07,0.309l0.074,0.305l0.07,0.309l0.074,0.309l0.07,0.305l0.074,0.309l0.07,0.309l0.074,0.309l0.07,0.309l0.074,0.309  l0.07,0.309l0.07,0.312l0.074,0.309l0.07,0.309l0.074,0.312l0.07,0.309l0.074,0.312l0.07,0.309l0.074,0.312l0.07,0.312l0.074,0.312  l0.07,0.312l0.074,0.312l0.07,0.312l0.074,0.312l0.07,0.312l0.074,0.312l0.07,0.312l0.07,0.316l0.074,0.312l0.07,0.316l0.074,0.312  l0.07,0.316l0.074,0.316l0.07,0.312l0.074,0.316l0.07,0.316l0.074,0.316l0.07,0.316l0.074,0.316l0.07,0.316l0.074,0.32l0.07,0.316  l0.074,0.316l0.07,0.32l0.07,0.316l0.074,0.32l0.07,0.316l0.074,0.32l0.07,0.32l0.074,0.32l0.07,0.32l0.074,0.32l0.07,0.32  l0.074,0.32l0.07,0.32l0.074,0.32l0.07,0.32l0.074,0.324l0.07,0.32l0.074,0.324l0.07,0.32l0.07,0.324l0.074,0.32l0.07,0.324  l0.074,0.324l0.07,0.324l0.074,0.324l0.07,0.324" /><g id="g3950"><g id="content" transform="matrix(0.758928571429,0,0,-0.758928571429,-132.8125,398.4375)"><path id="path3953" d="M708.848,15.132l-0.426,1.202c-0.256,0.719,-0.681,1.605,-1.641,2.119l-2.86,-0.719l0.054,-0.368    c0.241,0.093,0.556,0.109,0.851,0.109c1.18,0,1.753,-0.885,2.104,-1.938l0.719,-1.973l-1.421,-2.197    c-0.683,-1.071,-1.237,-1.292,-1.495,-1.292c-0.553,0,-0.461,0.426,-1.033,0.426c-0.553,0,-0.812,-0.426,-0.812,-0.777    c0,-0.495,0.351,-1.051,1.126,-1.051c1.217,0,1.845,0.961,2.529,2.031l1.365,2.103l0.867,-2.453c0.277,-0.776,0.719,-1.681,1.585,-1.681    c1.256,0,2.252,2.122,2.51,2.436l-0.333,0.205c-0.422,-0.924,-0.939,-1.238,-1.292,-1.238c-0.975,0,-1.493,2.935,-2.119,4.281l1.18,1.845    c0.313,0.461,0.534,0.812,1.199,0.812c0.351,0,0.461,-0.166,0.959,-0.166c0.537,0,0.831,0.48,0.831,0.885    c0,0.463,-0.368,0.719,-1.071,0.719c-1.069,0,-1.845,-0.939,-2.379,-1.807L708.848,15.132z" /></g></g><g transform="translate(0,112)" id="g4409"><g id="g4411" transform="matrix(0.75892857,0,0,-0.75892857,-132.8125,398.4375)"><path id="path4413" d="m 217.218,506.546 -0.019,0.151 0,0.147 -0.018,0.148 -0.019,0.127 -0.017,0.131 -0.019,0.109 -0.018,0.111 -0.019,0.112 -0.017,0.109 -0.019,0.112 -0.019,0.093 -0.018,0.093 -0.019,0.09 -0.017,0.093 -0.039,0.093 -0.018,0.073 -0.017,0.093 -0.039,0.073 -0.019,0.073 -0.017,0.073 -0.076,0.131 -0.054,0.147 -0.073,0.129 -0.073,0.13 -0.075,0.129 -0.093,0.129 -3.267,-0.535 0.076,-0.368 c 0.165,0.036 0.516,0.109 0.775,0.109 1.199,0 1.403,-1.307 1.494,-2.305 l 0.83,-6.792 c -0.571,-0.866 -1.807,-2.231 -2.158,-2.231 -0.351,0 -0.313,0.661 -1.237,0.661 -0.295,0 -0.867,-0.22 -0.867,-0.866 0,-0.515 0.407,-1.199 1.219,-1.199 1.458,0 2.877,2.123 4.466,4.115 0.921,1.163 4.428,6.385 4.428,8.082 0,0.831 -0.537,1.328 -1.237,1.328 -0.627,0 -1.033,-0.387 -1.033,-0.867 0,-0.812 1.126,-1.033 1.126,-1.512 0,-0.368 -0.166,-0.794 -0.611,-1.606 -0.459,-0.885 -1.234,-2.196 -2.563,-4.006 l -0.61,5.093 z" /></g></g><g id="g4875"><g id="g4877" transform="matrix(0.758928571429,0,0,-0.758928571429,-132.8125,398.4375)"><path id="path4879" d="M378.401,-8.592v0.332c-1.643,0,-2.067,0.387,-2.067,1.31V6.041l-0.205,0.054l-3.874,-1.975V3.806l0.591,0.241    c0.368,0.147,0.739,0.259,0.979,0.259c0.461,0,0.627,-0.349,0.627,-1.071v-9.742c0,-1.219,-0.425,-1.679,-2.05,-1.753v-0.332H378.401z" /></g></g><g id="g5347"><g id="g5349" transform="matrix(0.758928571429,0,0,-0.758928571429,-132.8125,398.4375)"><path id="path5351" d="M616.111,5.981l-0.148,0.112c-0.259,-0.333,-0.405,-0.407,-0.773,-0.407h-3.376l-1.79,-3.874    c0,0,-0.019,-0.075,-0.019,-0.093c0,-0.093,0.054,-0.109,0.202,-0.109c1.588,0,2.714,-0.537,3.487,-1.163    c0.719,-0.573,1.09,-1.404,1.09,-2.455c0,-1.401,-1.071,-2.767,-2.215,-2.767c-0.314,0,-0.701,0.147,-1.162,0.515    c-0.517,0.444,-0.83,0.537,-1.201,0.537c-0.461,0,-0.719,-0.239,-0.719,-0.646c0,-0.61,0.83,-1.015,2.068,-1.015    c1.107,0,1.992,0.259,2.767,0.812c1.127,0.812,1.624,1.826,1.624,3.414c0,0.848,-0.148,1.458,-0.573,2.067    c-0.96,1.291,-1.772,1.642,-4.096,2.103l0.665,1.385h3.155c0.275,0,0.387,0.093,0.441,0.205L616.111,5.981z" /><line id="line5353" fill="none" stroke="#000000" stroke-width="0.658" stroke-miterlimit="10.433" x1="608.971" y1="-9.371" x2="617.145" y2="-9.371" /><path id="path5355" d="M616.721,-20.554l-0.239,0.093c-0.537,-0.924,-0.887,-1.09,-1.589,-1.09h-3.801l2.695,2.88    c1.458,1.513,2.104,2.769,2.104,4.058c0,1.607,-1.18,2.86,-3.025,2.86c-2.029,0,-3.065,-1.327,-3.414,-3.228l0.349,-0.093    c0.665,1.588,1.219,2.141,2.401,2.141c1.4,0,2.27,-0.849,2.27,-2.307c0,-1.421,-0.573,-2.657,-2.143,-4.281l-2.896,-3.082v-0.202h6.385    L616.721,-20.554z" /></g></g><g id="g4677" transform="translate(-127.73708,-192.99839)"><g transform="matrix(0.75892857,0,0,-0.75892857,-132.8125,398.4375)" id="g4679"><path d="m 378.401,-8.592 0,0.332 c -1.643,0 -2.067,0.387 -2.067,1.31 l 0,12.991 -0.205,0.054 -3.874,-1.975 0,-0.314 0.591,0.241 c 0.368,0.147 0.739,0.259 0.979,0.259 0.461,0 0.627,-0.349 0.627,-1.071 l 0,-9.742 c 0,-1.219 -0.425,-1.679 -2.05,-1.753 l 0,-0.332 5.999,0 z" id="path4681" /></g></g><g style="font-style:normal;font-variant:normal;font-weight:normal;font-stretch:normal;letter-spacing:normal;word-spacing:normal;text-anchor:start;fill:none;fill-opacity:1;fill-rule:evenodd;stroke:#000000;stroke-linecap:butt;stroke-linejoin:miter;stroke-miterlimit:10.43299961;stroke-dasharray:none;stroke-dashoffset:0;stroke-opacity:1" id="g5077" transform="matrix(1.4174381,0,0,-1.4174381,-79.224719,1084.2722)" xml:space="preserve" stroke-miterlimit="10.433" font-style="normal" font-variant="normal" font-weight="normal" font-stretch="normal" font-size-adjust="none" letter-spacing="normal" word-spacing="normal" ns0:text="$\\frac{7}{4}$\n" ns0:preamble="/Users/prmb/CMEP/underground-inkscape-preamble.tex"><path style="fill:#000000;stroke-width:0" d="m 228.61,487.04 0,0.14 -3.27,0 -0.53,-1.3 0.15,-0.08 c 0.38,0.6 0.53,0.73 1.04,0.73 l 1.91,0 -1.76,-5.29 0.58,0 z" id="path5079" /><line style="stroke-width:0.65799999" x1="224.63" y1="479.01999" x2="229.07001" y2="479.01999" id="line5081" /><polygon style="fill:#000000;stroke-width:0" points="227.22,476.84 227.22,473.8 225.09,473.8 224.74,473.8 224.74,473.23 227.22,473.23 227.22,471.75 227.91,471.75 227.91,473.23 228.83,473.23 228.83,473.8 227.91,473.8 227.91,477.74 227.52,477.74 224.74,473.8 225.09,473.8 " id="polygon5083" /></g></svg>