<?xml version='1.0' ?><svg xmlns:ns0="http://www.iki.fi/pav/software/textext/" xmlns:dc="http://purl.org/dc/elements/1.1/" xmlns:cc="http://creativecommons.org/ns#" xmlns:rdf="http://www.w3.org/1999/02/22-rdf-syntax-ns#" xmlns:svg="http://www.w3.org/2000/svg" xmlns="http://www.w3.org/2000/svg" id="svg2" version="1.1" width="373.39311" height="242.35782" viewBox="0.0 0.12875782665685617 676.3535397190634 438.99998432107014" preserveAspectRatio="none">
  <metadata id="metadata378">
    <rdf:RDF>
      <cc:Work rdf:about="">
        <dc:format>image/svg+xml</dc:format>
        <dc:type rdf:resource="http://purl.org/dc/dcmitype/StillImage" />
        <dc:title />
      </cc:Work>
    </rdf:RDF>
  </metadata>
  <defs id="defs376" />
  <g id="g6" stroke-linecap="square" stroke-miterlimit="10.000" stroke-width="1.0000" stroke-dasharray="none" stroke-dashoffset="0.0000" stroke-linejoin="miter">
    <clipPath id="clip1">
      <path id="path9" d="M 0.0000 0.0000 L 0.0000 439.00 L 677.00 439.00 L 677.00 0.0000 z" />
    </clipPath>
    <g id="g11" clip-path="url(#clip1)">
      <g id="g13" stroke="#000000" stroke-opacity="1.0000" fill="none" stroke-linecap="butt">
        <path id="path15" d="M 124.00 2.0000 L 124.00 439.00" />
      </g>
    </g>
    <clipPath id="clip2">
      <path id="path18" d="M 0.0000 0.0000 L 0.0000 439.00 L 677.00 439.00 L 677.00 0.0000 z" />
    </clipPath>
    <g id="g20" clip-path="url(#clip2)">
      <g id="g22" stroke="#000000" stroke-opacity="1.0000" fill="none" stroke-linecap="butt">
        <path id="path24" d="M 124.00 1.0000 L 119.00 6.0000" />
      </g>
    </g>
    <clipPath id="clip3">
      <path id="path27" d="M 0.0000 0.0000 L 0.0000 439.00 L 677.00 439.00 L 677.00 0.0000 z" />
    </clipPath>
    <g id="g29" clip-path="url(#clip3)">
      <g id="g31" stroke="#000000" stroke-opacity="1.0000" fill="none" stroke-linecap="butt">
        <path id="path33" d="M 124.00 1.0000 L 129.00 6.0000" />
      </g>
    </g>
    <clipPath id="clip4">
      <path id="path36" d="M 0.0000 0.0000 L 0.0000 439.00 L 677.00 439.00 L 677.00 0.0000 z" />
    </clipPath>
    <g id="g38" clip-path="url(#clip4)">
      <g id="g40" stroke="#000000" stroke-opacity="1.0000" fill="none" stroke-linecap="butt">
        <path id="path42" d="M 0.0000 388.21 L 675.00 388.21" />
      </g>
    </g>
    <clipPath id="clip5">
      <path id="path45" d="M 0.0000 0.0000 L 0.0000 439.00 L 677.00 439.00 L 677.00 0.0000 z" />
    </clipPath>
    <g id="g47" clip-path="url(#clip5)">
      <g id="g49" stroke="#000000" stroke-opacity="1.0000" fill="none" stroke-linecap="butt">
        <path id="path51" d="M 676.00 388.21 L 671.00 383.21" />
      </g>
    </g>
    <clipPath id="clip6">
      <path id="path54" d="M 0.0000 0.0000 L 0.0000 439.00 L 677.00 439.00 L 677.00 0.0000 z" />
    </clipPath>
    <g id="g56" clip-path="url(#clip6)">
      <g id="g58" stroke="#000000" stroke-opacity="1.0000" fill="none" stroke-linecap="butt">
        <path id="path60" d="M 676.00 388.21 L 671.00 393.21" />
      </g>
    </g>
    <g id="misc" />
    <g id="layer0">
      <clipPath id="clip7">
        <path id="path65" d="M 0.0000 0.0000 L 0.0000 439.00 L 677.00 439.00 L 677.00 0.0000 z" />
      </clipPath>
      <g id="g67" clip-path="url(#clip7)">
        <g id="g69" stroke="#006400" stroke-opacity="1.0000" fill="none" stroke-linecap="round" stroke-width="3.5000" stroke-linejoin="round">
          <path id="path71" d="M 0.0000 337.62 L 5.2891 336.50 L 10.578 335.35 L 15.867 334.18 L 21.156 332.98 L 26.445 331.76 L 31.734 330.50 L 37.023 329.22 L 42.312 327.92 L 47.602 326.58 L 52.891 325.21 L 58.180 323.82 L 63.469 322.39 L 68.758 320.93 L 74.047 319.44 L 79.336 317.91 L 84.625 316.35 L 89.914 314.76 L 95.203 313.13 L 100.49 311.46 L 105.78 309.76 L 111.07 308.02 L 116.36 306.25 L 121.65 304.43 L 126.94 302.57 L 132.23 300.67 L 137.52 298.73 L 142.80 296.75 L 148.09 294.72 L 153.38 292.64 L 158.67 290.52 L 163.96 288.36 L 169.25 286.14 L 174.54 283.88 L 179.83 281.57 L 185.12 279.20 L 190.41 276.79 L 195.70 274.31 L 200.98 271.79 L 206.27 269.21 L 211.56 266.57 L 216.85 263.87 L 222.14 261.11 L 227.43 258.30 L 232.72 255.41 L 238.01 252.47 L 243.30 249.46 L 248.59 246.38 L 253.88 243.24 L 259.16 240.02 L 264.45 236.74 L 269.74 233.38 L 275.03 229.95 L 280.32 226.44 L 285.61 222.85 L 290.90 219.18 L 296.19 215.43 L 301.48 211.60 L 306.77 207.69 L 312.05 203.68 L 317.34 199.59 L 322.63 195.41 L 327.92 191.13 L 333.21 186.76 L 338.50 182.30 L 343.79 177.73 L 349.08 173.06 L 354.37 168.29 L 359.66 163.42 L 364.95 158.43 L 370.23 153.34 L 375.52 148.13 L 380.81 142.80 L 386.10 137.36 L 391.39 131.80 L 396.68 126.11 L 401.97 120.30 L 407.26 114.36 L 412.55 108.29 L 417.84 102.08 L 423.12 95.737 L 428.41 89.251 L 433.70 82.622 L 438.99 75.846 L 444.28 68.919 L 449.57 61.839 L 454.86 54.602 L 460.15 47.204 L 465.44 39.643 L 470.73 31.913 L 476.02 24.013 L 481.30 15.937 L 486.59 7.6820 L 491.88 -.75602 L 497.17 -9.3811" />
          <title id="title73">Function f</title>
          <desc id="desc75">f(x) = Ã&#131;Â¢Ã&#130;Â&#132;Ã&#130;Â¯^x</desc>
        </g>
      </g>
      <clipPath id="clip8">
        <path id="path78" d="M 0.0000 0.0000 L 0.0000 439.00 L 677.00 439.00 L 677.00 0.0000 z" />
      </clipPath>
      <g id="g80" clip-path="url(#clip8)">
        <g id="g82" stroke="#000000" stroke-opacity="1.0000" fill="none" stroke-linecap="round" stroke-linejoin="round">
          <path id="path84" d="M 388.94 134.39 L 124.00 134.39" />
          <title id="title86">Segment c</title>
          <desc id="desc88">Segment c: Segment [B, C]</desc>
        </g>
      </g>
      <clipPath id="clip9">
        <path id="path91" d="M 0.0000 0.0000 L 0.0000 439.00 L 677.00 439.00 L 677.00 0.0000 z" />
      </clipPath>
      <g id="g93" clip-path="url(#clip9)">
        <g id="g95" stroke="#000000" stroke-opacity="1.0000" fill="none" stroke-linecap="round" stroke-linejoin="round">
          <path id="path97" d="M 291.16 219.00 L 124.00 219.00" />
          <title id="title99">Segment d</title>
          <desc id="desc101">Segment d: Segment [A, D]</desc>
        </g>
      </g>
      <clipPath id="clip10">
        <path id="path104" d="M 0.0000 0.0000 L 0.0000 439.00 L 677.00 439.00 L 677.00 0.0000 z" />
      </clipPath>
      <g id="g106" clip-path="url(#clip10)">
        <g id="g108" stroke="#000000" stroke-opacity="1.0000" fill="none" stroke-linecap="round" stroke-linejoin="round">
          <path id="path110" d="M 291.16 219.00 L 291.16 388.21" />
          <title id="title112">Segment h</title>
          <desc id="desc114">Segment h: Segment [A, E]</desc>
        </g>
      </g>
      <clipPath id="clip11">
        <path id="path117" d="M 0.0000 0.0000 L 0.0000 439.00 L 677.00 439.00 L 677.00 0.0000 z" />
      </clipPath>
      <g id="g119" clip-path="url(#clip11)">
        <g id="g121" stroke="#000000" stroke-opacity="1.0000" fill="none" stroke-linecap="round" stroke-linejoin="round">
          <path id="path123" d="M 388.94 134.39 L 388.94 388.21" />
          <title id="title125">Segment i</title>
          <desc id="desc127">Segment i: Segment [B, F]</desc>
        </g>
      </g>
      <clipPath id="clip12">
        <path id="path130" d="M 0.0000 0.0000 L 0.0000 439.00 L 677.00 439.00 L 677.00 0.0000 z" />
      </clipPath>
      <g id="g132" clip-path="url(#clip12)">
        <g id="g134" fill="#444444" stroke="none" fill-rule="nonzero" fill-opacity="1.0000">
          <path id="path136" d="M 294.16 219.00 C 294.16 220.66 292.81 222.00 291.16 222.00 C 289.50 222.00 288.16 220.66 288.16 219.00 C 288.16 217.34 289.50 216.00 291.16 216.00 C 292.81 216.00 294.16 217.34 294.16 219.00 z" />
          <title id="title138">Point A</title>
          <desc id="desc140">Point A: Intersection point of f, a with initial value (0.69, 2)</desc>
        </g>
      </g>
      <clipPath id="clip13">
        <path id="path143" d="M 0.0000 0.0000 L 0.0000 439.00 L 677.00 439.00 L 677.00 0.0000 z" />
      </clipPath>
      <g id="g145" clip-path="url(#clip13)">
        <g id="g147" stroke="#000000" stroke-opacity="1.0000" fill="none" stroke-linecap="round" stroke-linejoin="round">
          <path id="path149" d="M 294.16 219.00 C 294.16 220.66 292.81 222.00 291.16 222.00 C 289.50 222.00 288.16 220.66 288.16 219.00 C 288.16 217.34 289.50 216.00 291.16 216.00 C 292.81 216.00 294.16 217.34 294.16 219.00 z" />
          <title id="title151">Point A</title>
          <desc id="desc153">Point A: Intersection point of f, a with initial value (0.69, 2)</desc>
        </g>
      </g>
      <clipPath id="clip14">
        <path id="path156" d="M 0.0000 0.0000 L 0.0000 439.00 L 677.00 439.00 L 677.00 0.0000 z" />
      </clipPath>
      <g id="g158" clip-path="url(#clip14)">
        <g id="g160" fill="#444444" stroke="none" fill-rule="nonzero" fill-opacity="1.0000">
          <path id="path162" d="M 391.94 134.39 C 391.94 136.05 390.60 137.39 388.94 137.39 C 387.28 137.39 385.94 136.05 385.94 134.39 C 385.94 132.74 387.28 131.39 388.94 131.39 C 390.60 131.39 391.94 132.74 391.94 134.39 z" />
          <title id="title164">Point B</title>
          <desc id="desc166">Point B: Intersection point of f, b with initial value (1.1, 3)</desc>
        </g>
      </g>
      <clipPath id="clip15">
        <path id="path169" d="M 0.0000 0.0000 L 0.0000 439.00 L 677.00 439.00 L 677.00 0.0000 z" />
      </clipPath>
      <g id="g171" clip-path="url(#clip15)">
        <g id="g173" stroke="#000000" stroke-opacity="1.0000" fill="none" stroke-linecap="round" stroke-linejoin="round">
          <path id="path175" d="M 391.94 134.39 C 391.94 136.05 390.60 137.39 388.94 137.39 C 387.28 137.39 385.94 136.05 385.94 134.39 C 385.94 132.74 387.28 131.39 388.94 131.39 C 390.60 131.39 391.94 132.74 391.94 134.39 z" />
          <title id="title177">Point B</title>
          <desc id="desc179">Point B: Intersection point of f, b with initial value (1.1, 3)</desc>
        </g>
      </g>
      <clipPath id="clip28">
        <path id="path362" d="M 0.0000 0.0000 L 0.0000 439.00 L 677.00 439.00 L 677.00 0.0000 z" />
      </clipPath>
      <path transform="matrix(1.8113713,0,0,1.8113713,0,-0.12875783)" id="path4334" d="m 161.22928,168.50112 c 0,-39.62894 0.0919,-45.3349 0.7389,-45.87185 0.40639,-0.33728 0.7389,-0.86527 0.7389,-1.17332 0,-0.30805 0.49875,-0.86848 1.10834,-1.24541 2.01455,-1.24565 12.84281,-9.49459 18.10295,-13.79077 7.37388,-6.02257 16.91225,-14.5888 25.28309,-22.70626 l 7.22832,-7.009519 0,68.527879 0,68.52788 -26.60025,0 -26.60025,0 0,-45.25863 z" style="fill:#00ffe8;stroke:#271740;stroke-width:0.88667494;stroke-miterlimit:4;stroke-dasharray:none;fill-opacity:0.19215687;stroke-opacity:1.0" />
      <g ns0:preamble="/Users/ABaker/cmep/Inkscape/underground-inkscape-preamble.tex" ns0:text="$y = e^x$" word-spacing="normal" letter-spacing="normal" font-size-adjust="none" font-stretch="normal" font-weight="normal" font-variant="normal" font-style="normal" stroke-miterlimit="10.433" xml:space="preserve" transform="matrix(3,0,0,-3,-213.89423,1515.3339)" id="content" style="font-style:normal;font-variant:normal;font-weight:normal;font-stretch:normal;letter-spacing:normal;word-spacing:normal;text-anchor:start;fill:none;fill-opacity:1;fill-rule:evenodd;stroke:#000000;stroke-linecap:butt;stroke-linejoin:miter;stroke-miterlimit:10.43299961;stroke-dasharray:none;stroke-dashoffset:0;stroke-opacity:1"><path id="path4527" d="m 226.62,480.86 -0.01,0.08 -0.01,0.08 -0.01,0.07 -0.01,0.07 -0.01,0.07 -0.01,0.07 -0.01,0.06 -0.01,0.06 -0.01,0.06 -0.01,0.05 -0.01,0.06 -0.01,0.05 -0.01,0.05 -0.01,0.04 -0.02,0.05 -0.01,0.05 -0.01,0.04 -0.02,0.04 -0.01,0.04 -0.01,0.04 -0.04,0.08 -0.03,0.07 -0.04,0.08 -0.04,0.07 -0.04,0.07 -0.05,0.07 -1.77,-0.3 0.02,-0.18 c 0.11,0.01 0.3,0.04 0.43,0.04 0.66,0 0.76,-0.71 0.82,-1.24 l 0.45,-3.7 c -0.31,-0.48 -0.98,-1.21 -1.18,-1.21 -0.19,0 -0.16,0.37 -0.67,0.37 -0.16,0 -0.47,-0.13 -0.47,-0.49 0,-0.28 0.22,-0.64 0.66,-0.64 0.8,0 1.57,1.15 2.43,2.24 0.5,0.62 2.41,3.46 2.41,4.38 0,0.46 -0.3,0.73 -0.67,0.73 -0.35,0 -0.56,-0.21 -0.56,-0.47 0,-0.45 0.61,-0.57 0.61,-0.82 0,-0.21 -0.09,-0.45 -0.33,-0.88 -0.26,-0.49 -0.67,-1.19 -1.39,-2.18 z" style="fill:#000000;stroke-width:0" /><polygon id="polygon4529" points="232.64,481.79 232.64,481.01 239.59,481.01 239.59,481.79 " style="fill:#000000;stroke-width:0" /><polygon id="polygon4531" points="232.64,479.43 232.64,478.65 239.59,478.65 239.59,479.43 " style="fill:#000000;stroke-width:0" /><path id="path4533" d="m 247.24,478.56 -0.04,-0.05 -0.04,-0.05 -0.04,-0.05 -0.04,-0.04 -0.05,-0.04 -0.04,-0.04 -0.04,-0.04 -0.05,-0.04 -0.04,-0.04 -0.05,-0.03 -0.05,-0.03 -0.04,-0.03 -0.05,-0.03 -0.05,-0.03 -0.05,-0.02 -0.04,-0.02 -0.05,-0.03 -0.05,-0.02 -0.05,-0.02 -0.05,-0.01 -0.05,-0.02 -0.05,-0.01 -0.04,-0.02 -0.05,-0.01 -0.05,-0.01 -0.05,0 -0.05,-0.01 -0.05,-0.01 -0.04,0 -0.05,-0.01 -0.05,0 -0.04,0 c -0.72,0 -1.34,0.51 -1.34,1.27 l 0,0.32 0,0.34 c 0.34,1 1.05,2.36 1.93,2.36 0.29,0 0.52,-0.21 0.52,-0.51 0,-1.04 -1.11,-1.85 -2.34,-1.85 l -0.11,0 0,-0.34 c 1.41,0.08 3.38,0.66 3.38,2.15 0,0.74 -0.71,0.9 -1.21,0.9 -1.5,0 -2.79,-1.47 -3.09,-2.79 -0.06,-0.27 -0.07,-0.43 -0.07,-0.7 0,-0.85 0.46,-1.84 1.62,-1.84 0.73,0 1.53,0.28 2.36,1.29 z" style="fill:#000000;stroke-width:0" /><path id="path4535" d="m 250.94,483.77 -0.18,0.49 c -0.1,0.29 -0.27,0.66 -0.66,0.87 l -1.18,-0.29 0.03,-0.16 c 0.09,0.03 0.22,0.05 0.34,0.05 0.49,0 0.72,-0.36 0.87,-0.79 l 0.29,-0.81 -0.58,-0.9 c -0.28,-0.43 -0.51,-0.52 -0.62,-0.52 -0.22,0 -0.18,0.18 -0.41,0.18 -0.23,0 -0.34,-0.19 -0.34,-0.33 0,-0.2 0.14,-0.42 0.46,-0.42 0.5,0 0.75,0.38 1.04,0.82 l 0.56,0.86 0.35,-1 c 0.12,-0.32 0.29,-0.68 0.65,-0.68 0.52,0 0.92,0.85 1.02,0.98 l -0.12,0.09 c -0.19,-0.38 -0.4,-0.5 -0.54,-0.5 -0.4,0 -0.61,1.19 -0.87,1.74 l 0.49,0.76 c 0.12,0.19 0.22,0.33 0.48,0.33 0.15,0 0.2,-0.08 0.39,-0.08 0.23,0 0.35,0.21 0.35,0.38 0,0.18 -0.15,0.29 -0.44,0.29 -0.44,0 -0.75,-0.39 -0.98,-0.75 z" style="fill:#000000;stroke-width:0" /></g>      <g id="g4897" transform="matrix(2.2669026,0,0,-2.2669026,144.38324,1487.5471)" xml:space="preserve" stroke-miterlimit="10.433" font-style="normal" font-variant="normal" font-weight="normal" font-stretch="normal" font-size-adjust="none" letter-spacing="normal" word-spacing="normal" ns0:text="$x$" ns0:preamble="/Users/ABaker/cmep/Inkscape/underground-inkscape-preamble.tex" style="font-style:normal;font-variant:normal;font-weight:normal;font-stretch:normal;letter-spacing:normal;word-spacing:normal;text-anchor:start;fill:none;fill-opacity:1;fill-rule:evenodd;stroke:#000000;stroke-linecap:butt;stroke-linejoin:miter;stroke-miterlimit:10.43299961;stroke-dasharray:none;stroke-dashoffset:0;stroke-opacity:1"><path d="m 227.03,480.64 -0.23,0.64 c -0.15,0.39 -0.37,0.88 -0.89,1.16 l -1.56,-0.39 0.04,-0.21 c 0.12,0.05 0.29,0.07 0.45,0.07 0.65,0 0.95,-0.48 1.15,-1.05 l 0.39,-1.09 -0.76,-1.19 c -0.38,-0.58 -0.69,-0.7 -0.83,-0.7 -0.3,0 -0.25,0.24 -0.55,0.24 -0.3,0 -0.45,-0.25 -0.45,-0.44 0,-0.26 0.19,-0.55 0.61,-0.55 0.66,0 1,0.51 1.38,1.08 l 0.74,1.16 0.48,-1.33 c 0.15,-0.43 0.38,-0.91 0.86,-0.91 0.68,0 1.21,1.13 1.36,1.31 l -0.17,0.12 c -0.25,-0.51 -0.53,-0.68 -0.72,-0.68 -0.53,0 -0.8,1.6 -1.15,2.33 l 0.64,1 c 0.17,0.26 0.3,0.45 0.65,0.45 0.2,0 0.26,-0.1 0.52,-0.1 0.31,0 0.46,0.27 0.46,0.49 0,0.25 -0.2,0.39 -0.57,0.39 -0.6,0 -1.01,-0.52 -1.32,-0.99 z" id="path4899" style="fill:#000000;stroke-width:0" /></g>      <g ns0:preamble="/Users/ABaker/cmep/Inkscape/underground-inkscape-preamble.tex" ns0:text="$y$" word-spacing="normal" letter-spacing="normal" font-size-adjust="none" font-stretch="normal" font-weight="normal" font-variant="normal" font-style="normal" stroke-miterlimit="10.433" xml:space="preserve" transform="matrix(2.3225579,0,0,-2.3225579,-415.75168,1129.9319)" id="g5217" style="font-style:normal;font-variant:normal;font-weight:normal;font-stretch:normal;letter-spacing:normal;word-spacing:normal;text-anchor:start;fill:none;fill-opacity:1;fill-rule:evenodd;stroke:#000000;stroke-linecap:butt;stroke-linejoin:miter;stroke-miterlimit:10.43299961;stroke-dasharray:none;stroke-dashoffset:0;stroke-opacity:1"><path id="path5219" d="m 226.62,480.86 -0.01,0.08 -0.01,0.08 -0.01,0.07 -0.01,0.07 -0.01,0.07 -0.01,0.07 -0.01,0.06 -0.01,0.06 -0.01,0.06 -0.01,0.05 -0.01,0.06 -0.01,0.05 -0.01,0.05 -0.01,0.04 -0.02,0.05 -0.01,0.05 -0.01,0.04 -0.02,0.04 -0.01,0.04 -0.01,0.04 -0.04,0.08 -0.03,0.07 -0.04,0.08 -0.04,0.07 -0.04,0.07 -0.05,0.07 -1.77,-0.3 0.02,-0.18 c 0.11,0.01 0.3,0.04 0.43,0.04 0.66,0 0.76,-0.71 0.82,-1.24 l 0.45,-3.7 c -0.31,-0.48 -0.98,-1.21 -1.18,-1.21 -0.19,0 -0.16,0.37 -0.67,0.37 -0.16,0 -0.47,-0.13 -0.47,-0.49 0,-0.28 0.22,-0.64 0.66,-0.64 0.8,0 1.57,1.15 2.43,2.24 0.5,0.62 2.41,3.46 2.41,4.38 0,0.46 -0.3,0.73 -0.67,0.73 -0.35,0 -0.56,-0.21 -0.56,-0.47 0,-0.45 0.61,-0.57 0.61,-0.82 0,-0.21 -0.09,-0.45 -0.33,-0.88 -0.26,-0.49 -0.67,-1.19 -1.39,-2.18 z" style="fill:#000000;stroke-width:0" /></g>      <g id="g5493" transform="matrix(2.5,0,0,-2.5,-285.57309,1603.1252)" xml:space="preserve" stroke-miterlimit="10.433" font-style="normal" font-variant="normal" font-weight="normal" font-stretch="normal" font-size-adjust="none" letter-spacing="normal" word-spacing="normal" ns0:text="$\\ln 2$" ns0:preamble="/Users/ABaker/cmep/Inkscape/underground-inkscape-preamble.tex" style="font-style:normal;font-variant:normal;font-weight:normal;font-stretch:normal;letter-spacing:normal;word-spacing:normal;text-anchor:start;fill:none;fill-opacity:1;fill-rule:evenodd;stroke:#000000;stroke-linecap:butt;stroke-linejoin:miter;stroke-miterlimit:10.43299961;stroke-dasharray:none;stroke-dashoffset:0;stroke-opacity:1"><path d="m 226.47,477.23 0,0.18 c -0.76,0.05 -0.89,0.2 -0.89,0.85 l 0,6.99 -0.06,0.05 c -0.61,-0.2 -1.05,-0.32 -1.86,-0.52 l 0,-0.19 c 0.19,0.02 0.34,0.02 0.43,0.02 0.38,0 0.5,-0.19 0.5,-0.75 l 0,-5.54 c 0,-0.65 -0.17,-0.85 -0.91,-0.91 l 0,-0.18 z" id="path5495" style="fill:#000000;stroke-width:0" /><path d="m 232.45,477.23 0,0.18 c -0.58,0.06 -0.72,0.19 -0.72,0.83 l 0,2.61 c 0,1.17 -0.49,1.82 -1.39,1.82 -0.55,0 -1.09,-0.26 -1.7,-0.96 l -0.01,0 0,0.92 -0.1,0.04 c -0.58,-0.22 -0.97,-0.35 -1.62,-0.54 l 0,-0.2 c 0.09,0.04 0.22,0.05 0.35,0.05 0.33,0 0.41,-0.19 0.41,-0.77 l 0,-2.86 c 0,-0.7 -0.13,-0.89 -0.73,-0.94 l 0,-0.18 2.49,0 0,0.18 c -0.6,0.05 -0.77,0.21 -0.77,0.67 l 0,3.26 c 0.55,0.54 0.83,0.68 1.22,0.68 0.58,0 0.86,-0.36 0.86,-1.2 l 0,-2.34 c 0,-0.78 -0.14,-1.02 -0.73,-1.07 L 230,477.23 Z" id="path5497" style="fill:#000000;stroke-width:0" /><path d="m 239.9,478.85 -0.16,0.07 c -0.39,-0.66 -0.64,-0.79 -1.13,-0.79 l -2.77,0 1.95,2.08 c 1.05,1.11 1.51,1.99 1.51,2.93 0,1.17 -0.85,2.08 -2.18,2.08 -1.45,0 -2.21,-0.97 -2.46,-2.35 l 0.25,-0.06 c 0.47,1.15 0.89,1.53 1.74,1.53 1,0 1.64,-0.59 1.64,-1.66 0,-1.01 -0.43,-1.9 -1.54,-3.07 l -2.1,-2.23 0,-0.15 4.62,0 z" id="path5499" style="fill:#000000;stroke-width:0" /></g>      <g ns0:preamble="/Users/ABaker/cmep/Inkscape/underground-inkscape-preamble.tex" ns0:text="$\\ln 3$" word-spacing="normal" letter-spacing="normal" font-size-adjust="none" font-stretch="normal" font-weight="normal" font-variant="normal" font-style="normal" stroke-miterlimit="10.433" xml:space="preserve" transform="matrix(2.5,0,0,-2.5,-190.42727,1603.2676)" id="g5733" style="font-style:normal;font-variant:normal;font-weight:normal;font-stretch:normal;letter-spacing:normal;word-spacing:normal;text-anchor:start;fill:none;fill-opacity:1;fill-rule:evenodd;stroke:#000000;stroke-linecap:butt;stroke-linejoin:miter;stroke-miterlimit:10.43299961;stroke-dasharray:none;stroke-dashoffset:0;stroke-opacity:1"><path id="path5735" d="m 226.47,477.23 0,0.18 c -0.76,0.05 -0.89,0.2 -0.89,0.85 l 0,6.99 -0.06,0.05 c -0.61,-0.2 -1.05,-0.32 -1.86,-0.52 l 0,-0.19 c 0.19,0.02 0.34,0.02 0.43,0.02 0.38,0 0.5,-0.19 0.5,-0.75 l 0,-5.54 c 0,-0.65 -0.17,-0.85 -0.91,-0.91 l 0,-0.18 z" style="fill:#000000;stroke-width:0" /><path id="path5737" d="m 232.45,477.23 0,0.18 c -0.58,0.06 -0.72,0.19 -0.72,0.83 l 0,2.61 c 0,1.17 -0.49,1.82 -1.39,1.82 -0.55,0 -1.09,-0.26 -1.7,-0.96 l -0.01,0 0,0.92 -0.1,0.04 c -0.58,-0.22 -0.97,-0.35 -1.62,-0.54 l 0,-0.2 c 0.09,0.04 0.22,0.05 0.35,0.05 0.33,0 0.41,-0.19 0.41,-0.77 l 0,-2.86 c 0,-0.7 -0.13,-0.89 -0.73,-0.94 l 0,-0.18 2.49,0 0,0.18 c -0.6,0.05 -0.77,0.21 -0.77,0.67 l 0,3.26 c 0.55,0.54 0.83,0.68 1.22,0.68 0.58,0 0.86,-0.36 0.86,-1.2 l 0,-2.34 c 0,-0.78 -0.14,-1.02 -0.73,-1.07 L 230,477.23 Z" style="fill:#000000;stroke-width:0" /><path id="path5739" d="m 235.03,483.26 0.04,0.08 0.05,0.07 0.05,0.08 0.04,0.07 0.05,0.07 0.05,0.07 0.05,0.06 0.05,0.06 0.04,0.06 0.05,0.05 0.05,0.06 0.06,0.05 0.05,0.04 0.05,0.05 0.05,0.04 0.06,0.04 0.05,0.04 0.05,0.03 0.06,0.03 0.06,0.03 0.05,0.03 0.06,0.02 0.06,0.03 0.06,0.02 0.06,0.01 0.07,0.02 0.06,0.01 0.06,0.01 0.07,0.01 0.06,0 0.07,0.01 0.07,0 c 0.78,0 1.27,-0.4 1.27,-1.21 0,-0.72 -0.38,-1.25 -0.95,-1.58 -0.24,-0.14 -0.55,-0.27 -0.99,-0.42 l 0,-0.17 c 0.67,0 0.94,-0.03 1.2,-0.12 0.81,-0.23 1.23,-0.81 1.23,-1.71 0,-1 -0.66,-1.81 -1.54,-1.81 -0.33,0 -0.58,0.06 -1.01,0.37 -0.33,0.24 -0.52,0.31 -0.72,0.31 -0.27,0 -0.49,-0.18 -0.49,-0.43 0,-0.42 0.46,-0.67 1.33,-0.67 1.04,0 2.17,0.34 2.73,1.1 0.35,0.45 0.55,1.03 0.55,1.65 0,0.61 -0.19,1.16 -0.52,1.52 -0.25,0.26 -0.46,0.4 -0.98,0.63 0.79,0.47 1.09,1.06 1.09,1.63 0,0.97 -0.74,1.62 -1.84,1.62 -1.22,0 -1.97,-0.8 -2.31,-1.92 z" style="fill:#000000;stroke-width:0" /></g>      <g style="font-style:normal;font-variant:normal;font-weight:normal;font-stretch:normal;letter-spacing:normal;word-spacing:normal;text-anchor:start;fill:none;fill-opacity:1;fill-rule:evenodd;stroke:#000000;stroke-linecap:butt;stroke-linejoin:miter;stroke-miterlimit:10.43299961;stroke-dasharray:none;stroke-dashoffset:0;stroke-opacity:1" id="g5981" transform="matrix(3.8947336,0,0,-3.8947336,-543.58459,2163.8421)" xml:space="preserve" stroke-miterlimit="10.433" font-style="normal" font-variant="normal" font-weight="normal" font-stretch="normal" font-size-adjust="none" letter-spacing="normal" word-spacing="normal" ns0:text="A" ns0:preamble="/Users/ABaker/cmep/Inkscape/underground-inkscape-preamble.tex"><path style="fill:#000000;stroke-width:0" d="m 228.87,477.23 -0.88,2.27 -0.26,0.75 -0.83,2.19 c -0.1,0.28 -0.21,0.62 -0.33,1.02 -0.07,-0.31 -0.17,-0.64 -0.3,-1.02 l -0.84,-2.19 2.3,0 0.26,-0.75 -2.85,0 -0.87,-2.27 -0.84,0 2.81,7.14 0.69,0 2.8,-7.14 z" id="path5983" /></g>    </g>
  </g>
</svg>