<?xml version='1.0' ?><svg xmlns:ns0="http://www.iki.fi/pav/software/textext/" xmlns:dc="http://purl.org/dc/elements/1.1/" xmlns:cc="http://creativecommons.org/ns#" xmlns:rdf="http://www.w3.org/1999/02/22-rdf-syntax-ns#" xmlns:svg="http://www.w3.org/2000/svg" xmlns="http://www.w3.org/2000/svg" id="svg2" version="1.1" width="372.10353" height="373.75" viewBox="0.0 2.0183868227424746 452.00000701003336 453.9999999999999" preserveAspectRatio="none">
  <metadata id="metadata490">
    <rdf:RDF>
      <cc:Work rdf:about="">
        <dc:format>image/svg+xml</dc:format>
        <dc:type rdf:resource="http://purl.org/dc/dcmitype/StillImage" />
      </cc:Work>
    </rdf:RDF>
  </metadata>
  <defs id="defs488" />
  <title id="title4" />
  <g stroke-width="1.0000" stroke-linecap="square" stroke-linejoin="miter" stroke-dasharray="none" stroke-dashoffset="0.0000" stroke-miterlimit="10.000" id="g6">
    <clipPath id="clip1">
      <path d="M 0.0000 0.0000 L 0.0000 456.00 L 454.00 456.00 L 454.00 0.0000 z" id="path9" />
    </clipPath>
    <g clip-path="url(#clip1)" id="g11">
      <g fill="none" stroke="#000000" stroke-width="2.0000" stroke-linecap="butt" stroke-opacity="1.0000" id="g13">
        <path d="M 205.73 3.0000 L 205.73 456.00" id="path15" />
      </g>
    </g>
    <clipPath id="clip2">
      <path d="M 0.0000 0.0000 L 0.0000 456.00 L 454.00 456.00 L 454.00 0.0000 z" id="path18" />
    </clipPath>
    <g clip-path="url(#clip2)" id="g20">
      <g fill="#000000" fill-opacity="1.0000" fill-rule="evenodd" stroke="none" id="g22">
        <path d="M 205.73 2.0000 L 199.73 26.000 L 211.73 26.000" id="path24" />
      </g>
    </g>
    <clipPath id="clip3">
      <path d="M 0.0000 0.0000 L 0.0000 456.00 L 454.00 456.00 L 454.00 0.0000 z" id="path27" />
    </clipPath>
    <g clip-path="url(#clip3)" id="g29">
      <g fill="none" stroke="#000000" stroke-width="2.0000" stroke-linecap="butt" stroke-opacity="1.0000" id="g31">
        <path d="M 0.0000 225.94 L 451.00 225.94" id="path33" />
      </g>
    </g>
    <clipPath id="clip4">
      <path d="M 0.0000 0.0000 L 0.0000 456.00 L 454.00 456.00 L 454.00 0.0000 z" id="path36" />
    </clipPath>
    <g clip-path="url(#clip4)" id="g38">
      <g fill="#000000" fill-opacity="1.0000" fill-rule="evenodd" stroke="none" id="g40">
        <path d="M 452.00 225.94 L 428.00 219.94 L 428.00 231.94" id="path42" />
      </g>
    </g>
    <g id="misc" />
    <g id="layer0">
      <clipPath id="clip5">
        <path d="M 0.0000 0.0000 L 0.0000 456.00 L 454.00 456.00 L 454.00 0.0000 z" id="path47" />
      </clipPath>
      <g clip-path="url(#clip5)" id="g49">
        <g fill="none" stroke="#006400" stroke-width="3.0000" stroke-linecap="round" stroke-linejoin="round" stroke-opacity="1.0000" id="g51">
          <path d="M 17.587 444.93 L 17.734 439.42 L 18.621 430.31 L 19.508 425.00 L 21.281 417.26 L 23.055 411.24 L 24.828 406.13 L 28.375 397.49 L 31.922 390.16 L 35.469 383.66 L 39.016 377.75 L 42.562 372.28 L 46.109 367.16 L 49.656 362.33 L 53.203 357.74 L 56.750 353.34 L 60.297 349.12 L 63.844 345.05 L 67.391 341.11 L 70.938 337.29 L 74.484 333.57 L 78.031 329.95 L 81.578 326.41 L 85.125 322.95 L 88.672 319.56 L 92.219 316.24 L 95.766 312.97 L 99.312 309.76 L 102.86 306.60 L 106.41 303.48 L 109.95 300.41 L 113.50 297.37 L 117.05 294.37 L 120.59 291.41 L 124.14 288.48 L 127.69 285.58 L 131.23 282.70 L 134.78 279.85 L 138.33 277.03 L 141.88 274.22 L 145.42 271.44 L 148.97 268.67 L 152.52 265.92 L 156.06 263.19 L 159.61 260.47 L 163.16 257.77 L 166.70 255.08 L 170.25 252.39 L 173.80 249.72 L 177.34 247.06 L 180.89 244.41 L 184.44 241.76 L 187.98 239.11 L 191.53 236.48 L 195.08 233.84 L 198.62 231.21 L 202.17 228.58 L 205.72 225.95 L 209.27 223.33 L 212.81 220.70 L 216.36 218.07 L 219.91 215.43 L 223.45 212.79 L 227.00 210.15 L 230.55 207.50 L 234.09 204.85 L 237.64 202.19 L 241.19 199.51 L 244.73 196.83 L 248.28 194.14 L 251.83 191.44 L 255.38 188.72 L 258.92 185.99 L 262.47 183.24 L 266.02 180.47 L 269.56 177.69 L 273.11 174.89 L 276.66 172.06 L 280.20 169.21 L 283.75 166.34 L 287.30 163.43 L 290.84 160.50 L 294.39 157.54 L 297.94 154.54 L 301.48 151.51 L 305.03 148.43 L 308.58 145.32 L 312.12 142.16 L 315.67 138.94 L 319.22 135.68 L 322.77 132.35 L 326.31 128.96 L 329.86 125.50 L 333.41 121.97 L 336.95 118.34 L 340.50 114.63 L 344.05 110.81 L 347.59 106.87 L 351.14 102.80 L 354.69 98.580 L 358.23 94.188 L 361.78 89.595 L 365.33 84.766 L 368.88 79.652 L 372.42 74.189 L 375.97 68.281 L 379.52 61.786 L 383.06 54.461 L 386.61 45.841 L 388.38 40.742 L 390.16 34.743 L 391.93 27.053 L 392.82 21.797 L 393.70 13.031 L 393.88 6.9523" id="path53" />
          <title id="title55">Function f</title>
          <desc id="desc57">f(x) = asin(x)</desc>
        </g>
      </g>
      <clipPath id="clip6">
        <path d="M 0.0000 0.0000 L 0.0000 456.00 L 454.00 456.00 L 454.00 0.0000 z" id="path60" />
      </clipPath>
      <g clip-path="url(#clip6)" id="g62">
        <g fill="none" stroke="#000000" stroke-linecap="round" stroke-linejoin="round" stroke-opacity="1.0000" id="g64">
          <path d="M 205.73 81.612 L 367.54 81.612" id="path66" />
          <title id="title68">Segment k</title>
          <desc id="desc70">Segment k: Segment [E, B]</desc>
        </g>
      </g>
      <clipPath id="clip7">
        <path d="M 0.0000 0.0000 L 0.0000 456.00 L 454.00 456.00 L 454.00 0.0000 z" id="path73" />
      </clipPath>
      <g clip-path="url(#clip7)" id="g75">
        <g fill="none" stroke="#000000" stroke-linecap="round" stroke-linejoin="round" stroke-opacity="1.0000" id="g77">
          <path d="M 367.54 81.612 L 367.54 225.94" id="path79" />
          <title id="title81">Segment l</title>
          <desc id="desc83">Segment l: Segment [B, C]</desc>
        </g>
      </g>
      <clipPath id="clip8">
        <path d="M 0.0000 0.0000 L 0.0000 456.00 L 454.00 456.00 L 454.00 0.0000 z" id="path86" />
      </clipPath>
      <g clip-path="url(#clip8)" id="g88">
        <g fill="none" stroke="#000000" stroke-linecap="round" stroke-linejoin="round" stroke-opacity="1.0000" id="g90">
          <path d="M 299.81 225.94 L 299.81 152.95" id="path92" />
          <title id="title94">Segment m</title>
          <desc id="desc96">Segment m: Segment [D, A]</desc>
        </g>
      </g>
      <clipPath id="clip9">
        <path d="M 0.0000 0.0000 L 0.0000 456.00 L 454.00 456.00 L 454.00 0.0000 z" id="path99" />
      </clipPath>
      <g clip-path="url(#clip9)" id="g101">
        <g fill="none" stroke="#000000" stroke-linecap="round" stroke-linejoin="round" stroke-opacity="1.0000" id="g103">
          <path d="M 299.81 152.95 L 205.73 152.95" id="path105" />
          <title id="title107">Segment n</title>
          <desc id="desc109">Segment n: Segment [A, F]</desc>
        </g>
      </g>
      <g transform="matrix(17.000, 0.0000, 0.0000, 17.000, 295.04, 268.12)" id="g306">
        <clipPath id="clip23">
          <path d="M -17.355 -15.772 L -17.355 11.052 L 9.3506 11.052 L 9.3506 -15.772 z" id="path309" />
        </clipPath>
      </g>
      <g transform="matrix(17.000, 0.0000, 0.0000, 17.000, 185.04, 146.56)" id="g441">
        <clipPath id="clip32">
          <path d="M -10.885 -8.6209 L -10.885 18.203 L 15.821 18.203 L 15.821 -8.6209 z" id="path444" />
        </clipPath>
      </g>
    </g>
  </g>
  <path style="fill:#0000ff;stroke:#271740;stroke-width:1.34819639;stroke-miterlimit:4;stroke-dasharray:none;fill-opacity:0.19607843;stroke-opacity:1.0" d="m 247.6194,155.9507 0,-28.69113 6.92823,-5.93475 c 10.54748,-9.03501 30.9056,-29.692527 38.35713,-38.921222 3.65882,-4.531438 7.10017,-8.732515 7.64745,-9.335726 0.8283,-0.912956 0.99505,8.343822 0.99505,55.238608 l 0,56.33535 -26.96393,0 -26.96393,0 0,-28.69113 z" id="path4618" transform="matrix(1.2147157,0,0,1.2147157,0,-0.01838681)" />
  <g id="content" transform="matrix(2.3780828,0,0,-2.3780828,-469.33043,1506.5542)" xml:space="preserve" stroke-miterlimit="10.433" font-style="normal" font-variant="normal" font-weight="normal" font-stretch="normal" font-size-adjust="none" letter-spacing="normal" word-spacing="normal" ns0:text="$y = \\arcsin x$" ns0:preamble="/Users/ABaker/cmep/Inkscape/underground-inkscape-preamble.tex" style="font-style:normal;font-variant:normal;font-weight:normal;font-stretch:normal;letter-spacing:normal;word-spacing:normal;text-anchor:start;fill:none;fill-opacity:1;fill-rule:evenodd;stroke:#000000;stroke-linecap:butt;stroke-linejoin:miter;stroke-miterlimit:10.43299961;stroke-dasharray:none;stroke-dashoffset:0;stroke-opacity:1"><path d="m 226.62,480.86 -0.01,0.08 -0.01,0.08 -0.01,0.07 -0.01,0.07 -0.01,0.07 -0.01,0.07 -0.01,0.06 -0.01,0.06 -0.01,0.06 -0.01,0.05 -0.01,0.06 -0.01,0.05 -0.01,0.05 -0.01,0.04 -0.02,0.05 -0.01,0.05 -0.01,0.04 -0.02,0.04 -0.01,0.04 -0.01,0.04 -0.04,0.08 -0.03,0.07 -0.04,0.08 -0.04,0.07 -0.04,0.07 -0.05,0.07 -1.77,-0.3 0.02,-0.18 c 0.11,0.01 0.3,0.04 0.43,0.04 0.66,0 0.76,-0.71 0.82,-1.24 l 0.45,-3.7 c -0.31,-0.48 -0.98,-1.21 -1.18,-1.21 -0.19,0 -0.16,0.37 -0.67,0.37 -0.16,0 -0.47,-0.13 -0.47,-0.49 0,-0.28 0.22,-0.64 0.66,-0.64 0.8,0 1.57,1.15 2.43,2.24 0.5,0.62 2.41,3.46 2.41,4.38 0,0.46 -0.3,0.73 -0.67,0.73 -0.35,0 -0.56,-0.21 -0.56,-0.47 0,-0.45 0.61,-0.57 0.61,-0.82 0,-0.21 -0.09,-0.45 -0.33,-0.88 -0.26,-0.49 -0.67,-1.19 -1.39,-2.18 z" id="path3857" style="fill:#000000;stroke-width:0" /><polygon points="232.64,481.01 239.59,481.01 239.59,481.79 232.64,481.79 " id="polygon3859" style="fill:#000000;stroke-width:0" /><polygon points="232.64,478.65 239.59,478.65 239.59,479.43 232.64,479.43 " id="polygon3861" style="fill:#000000;stroke-width:0" /><path d="m 248.18,478.01 -0.02,-0.01 -0.02,-0.02 -0.02,-0.01 -0.02,-0.01 -0.01,-0.02 -0.02,-0.01 -0.02,-0.01 -0.01,-0.01 -0.02,-0.01 -0.01,-0.01 -0.02,-0.01 -0.01,-0.01 -0.02,-0.01 -0.01,-0.01 -0.02,0 -0.01,-0.01 -0.02,-0.01 -0.01,0 -0.02,-0.01 -0.01,0 -0.02,-0.01 -0.01,0 -0.02,0 -0.01,-0.01 -0.02,0 -0.01,0 -0.02,-0.01 -0.01,0 -0.02,0 -0.02,0 -0.01,0 -0.02,0 c -0.21,0 -0.37,0.24 -0.37,0.78 l 0,2.25 c 0,0.72 -0.04,0.97 -0.33,1.31 -0.28,0.35 -0.73,0.54 -1.39,0.54 -0.53,0 -1.03,-0.15 -1.36,-0.36 -0.41,-0.26 -0.6,-0.64 -0.6,-0.94 0,-0.32 0.26,-0.55 0.51,-0.55 0.3,0 0.54,0.26 0.54,0.49 0,0.25 -0.07,0.28 -0.07,0.49 0,0.32 0.35,0.58 0.83,0.58 0.53,0 0.92,-0.33 0.92,-1.06 l 0,-0.64 0,-0.28 0,-1.67 c 0,-0.34 -0.08,-0.5 -0.42,-0.74 -0.2,-0.13 -0.45,-0.19 -0.68,-0.19 -0.46,0 -0.82,0.28 -0.82,0.91 0,0.37 0.12,0.65 0.41,0.91 0.29,0.27 0.77,0.52 1.51,0.78 l 0,0.28 c -1.34,-0.49 -1.78,-0.72 -2.13,-0.95 -0.46,-0.31 -0.83,-0.77 -0.83,-1.38 0,-0.78 0.51,-1.23 1.24,-1.23 0.51,0 1.09,0.15 1.72,0.86 l 0.01,0 c 0.06,-0.63 0.32,-0.86 0.75,-0.86 0.4,0 0.71,0.11 1.07,0.56 z" id="path3863" style="fill:#000000;stroke-width:0" /><path d="m 250.11,482.64 -0.06,0.03 c -0.63,-0.25 -1.05,-0.42 -1.75,-0.64 l 0,-0.19 c 0.17,0.04 0.27,0.05 0.41,0.05 0.3,0 0.41,-0.19 0.41,-0.71 l 0,-2.95 c 0,-0.59 -0.09,-0.68 -0.84,-0.82 l 0,-0.18 2.83,0 0,0.18 c -0.8,0.04 -1,0.21 -1,0.89 l 0,2.65 c 0,0.38 0.49,0.97 0.82,0.97 0.07,0 0.18,-0.06 0.31,-0.18 0.19,-0.17 0.32,-0.23 0.47,-0.23 0.29,0 0.46,0.2 0.46,0.53 0,0.39 -0.24,0.63 -0.65,0.63 -0.49,0 -0.82,-0.26 -1.41,-1.11 z" id="path3865" style="fill:#000000;stroke-width:0" /><path d="m 256.85,479.08 -0.05,-0.08 -0.05,-0.07 -0.06,-0.07 -0.05,-0.07 -0.05,-0.06 -0.05,-0.06 -0.05,-0.06 -0.04,-0.06 -0.05,-0.05 -0.05,-0.05 -0.05,-0.04 -0.05,-0.05 -0.05,-0.04 -0.04,-0.04 -0.05,-0.03 -0.05,-0.04 -0.05,-0.03 -0.05,-0.03 -0.05,-0.03 -0.05,-0.02 -0.05,-0.02 -0.05,-0.02 -0.06,-0.02 -0.05,-0.02 -0.05,-0.01 -0.06,-0.01 -0.06,-0.01 -0.05,-0.01 -0.06,-0.01 -0.06,0 -0.06,0 -0.06,0 c -1.09,0 -1.83,0.94 -1.83,2.3 0,1.23 0.65,2.05 1.6,2.05 0.43,0 0.58,-0.13 0.7,-0.56 l 0.07,-0.26 c 0.09,-0.35 0.31,-0.55 0.57,-0.55 0.3,0 0.55,0.23 0.55,0.5 0,0.66 -0.83,1.22 -1.82,1.22 -0.55,0 -1.12,-0.22 -1.59,-0.61 -0.64,-0.53 -0.99,-1.34 -0.99,-2.32 0,-1.53 0.93,-2.62 2.24,-2.62 0.51,0 0.96,0.16 1.36,0.49 0.35,0.29 0.59,0.63 0.97,1.36 z" id="path3867" style="fill:#000000;stroke-width:0" /><path d="m 259.25,480.79 -0.03,0.02 -0.03,0.02 -0.03,0.02 -0.02,0.02 -0.03,0.02 -0.03,0.03 -0.02,0.02 -0.03,0.02 -0.02,0.03 -0.02,0.02 -0.02,0.03 -0.02,0.02 -0.02,0.03 -0.02,0.02 -0.02,0.03 -0.01,0.03 -0.02,0.02 -0.01,0.03 -0.02,0.03 -0.01,0.03 -0.01,0.02 -0.01,0.03 -0.01,0.03 -0.01,0.02 -0.01,0.03 -0.01,0.03 0,0.02 -0.01,0.03 0,0.03 0,0.02 0,0.03 0,0.02 c 0,0.56 0.37,0.8 0.88,0.8 0.71,0 1.06,-0.38 1.33,-1.45 l 0.18,0 -0.06,1.61 -0.13,0 c -0.09,-0.11 -0.14,-0.12 -0.18,-0.12 -0.09,0 -0.21,0.03 -0.34,0.09 -0.24,0.12 -0.5,0.13 -0.79,0.13 -0.97,0 -1.63,-0.52 -1.63,-1.45 0,-0.6 0.44,-1.17 1.42,-1.71 l 0.64,-0.35 c 0.39,-0.22 0.62,-0.52 0.62,-0.89 0,-0.48 -0.37,-0.87 -0.98,-0.87 -0.81,0 -1.25,0.52 -1.5,1.66 l -0.18,0 0,-1.85 0.15,0 c 0.07,0.12 0.14,0.14 0.28,0.14 0.13,0 0.26,-0.01 0.55,-0.11 0.27,-0.09 0.61,-0.1 0.86,-0.1 0.9,0 1.65,0.68 1.65,1.47 0,0.68 -0.28,0.99 -1.04,1.46 z" id="path3869" style="fill:#000000;stroke-width:0" /><path d="m 264.15,484.7 0,0.03 -0.01,0.03 0,0.03 -0.01,0.03 0,0.03 -0.01,0.02 -0.01,0.03 -0.01,0.03 -0.01,0.03 -0.01,0.02 -0.02,0.03 -0.01,0.02 -0.02,0.03 -0.02,0.02 -0.02,0.02 -0.02,0.02 -0.02,0.02 -0.02,0.02 -0.02,0.02 -0.03,0.02 -0.02,0.01 -0.02,0.02 -0.03,0.01 -0.03,0.01 -0.03,0.01 -0.02,0.01 -0.03,0.01 -0.03,0.01 -0.03,0 -0.03,0.01 -0.03,0 -0.04,0 c -0.33,0 -0.6,-0.27 -0.6,-0.6 0,-0.35 0.26,-0.61 0.59,-0.61 0.36,0 0.62,0.26 0.62,0.61 z" id="path3871" style="fill:#000000;stroke-width:0" /><path d="m 265.01,477.23 0,0.18 c -0.78,0.06 -0.88,0.19 -0.88,1.07 l 0,4.14 -0.04,0.05 -1.83,-0.65 0,-0.19 c 0.21,0.06 0.39,0.06 0.49,0.06 0.3,0 0.39,-0.19 0.39,-0.75 l 0,-2.68 c 0,-0.89 -0.12,-1 -0.93,-1.05 l 0,-0.18 z" id="path3873" style="fill:#000000;stroke-width:0" /><path d="m 271.04,477.23 0,0.18 c -0.58,0.06 -0.72,0.19 -0.72,0.83 l 0,2.61 c 0,1.17 -0.5,1.82 -1.39,1.82 -0.55,0 -1.09,-0.26 -1.7,-0.96 l -0.02,0 0,0.92 -0.09,0.04 c -0.58,-0.22 -0.97,-0.35 -1.62,-0.54 l 0,-0.2 c 0.09,0.04 0.22,0.05 0.35,0.05 0.33,0 0.41,-0.19 0.41,-0.77 l 0,-2.86 c 0,-0.7 -0.13,-0.89 -0.73,-0.94 l 0,-0.18 2.49,0 0,0.18 c -0.6,0.05 -0.77,0.21 -0.77,0.67 l 0,3.26 c 0.54,0.54 0.83,0.68 1.22,0.68 0.58,0 0.86,-0.36 0.86,-1.2 l 0,-2.34 c 0,-0.78 -0.14,-1.02 -0.73,-1.07 l -0.02,-0.18 z" id="path3875" style="fill:#000000;stroke-width:0" /><path d="m 276.49,480.64 -0.24,0.64 c -0.14,0.39 -0.37,0.88 -0.89,1.16 l -1.55,-0.39 0.03,-0.21 c 0.12,0.05 0.3,0.07 0.45,0.07 0.65,0 0.96,-0.48 1.16,-1.05 l 0.39,-1.09 -0.77,-1.19 c -0.38,-0.58 -0.68,-0.7 -0.83,-0.7 -0.29,0 -0.25,0.24 -0.55,0.24 -0.3,0 -0.45,-0.25 -0.45,-0.44 0,-0.26 0.19,-0.55 0.61,-0.55 0.67,0 1.01,0.51 1.38,1.08 l 0.75,1.16 0.47,-1.33 c 0.15,-0.43 0.38,-0.91 0.86,-0.91 0.69,0 1.22,1.13 1.36,1.31 l -0.16,0.12 c -0.25,-0.51 -0.54,-0.68 -0.72,-0.68 -0.54,0 -0.81,1.6 -1.16,2.33 l 0.65,1 c 0.16,0.26 0.29,0.45 0.65,0.45 0.2,0 0.26,-0.1 0.52,-0.1 0.3,0 0.46,0.27 0.46,0.49 0,0.25 -0.2,0.39 -0.58,0.39 -0.59,0 -1.01,-0.52 -1.31,-0.99 z" id="path3877" style="fill:#000000;stroke-width:0" /></g>  <g ns0:preamble="/Users/ABaker/cmep/Inkscape/underground-inkscape-preamble.tex" ns0:text="$y$" word-spacing="normal" letter-spacing="normal" font-size-adjust="none" font-stretch="normal" font-weight="normal" font-variant="normal" font-style="normal" stroke-miterlimit="10.433" xml:space="preserve" transform="matrix(2.3349094,0,0,-2.3349094,-342.92773,1139.245)" id="g4429" style="font-style:normal;font-variant:normal;font-weight:normal;font-stretch:normal;letter-spacing:normal;word-spacing:normal;text-anchor:start;fill:none;fill-opacity:1;fill-rule:evenodd;stroke:#000000;stroke-linecap:butt;stroke-linejoin:miter;stroke-miterlimit:10.43299961;stroke-dasharray:none;stroke-dashoffset:0;stroke-opacity:1"><path id="path4431" d="m 226.62,480.86 -0.01,0.08 -0.01,0.08 -0.01,0.07 -0.01,0.07 -0.01,0.07 -0.01,0.07 -0.01,0.06 -0.01,0.06 -0.01,0.06 -0.01,0.05 -0.01,0.06 -0.01,0.05 -0.01,0.05 -0.01,0.04 -0.02,0.05 -0.01,0.05 -0.01,0.04 -0.02,0.04 -0.01,0.04 -0.01,0.04 -0.04,0.08 -0.03,0.07 -0.04,0.08 -0.04,0.07 -0.04,0.07 -0.05,0.07 -1.77,-0.3 0.02,-0.18 c 0.11,0.01 0.3,0.04 0.43,0.04 0.66,0 0.76,-0.71 0.82,-1.24 l 0.45,-3.7 c -0.31,-0.48 -0.98,-1.21 -1.18,-1.21 -0.19,0 -0.16,0.37 -0.67,0.37 -0.16,0 -0.47,-0.13 -0.47,-0.49 0,-0.28 0.22,-0.64 0.66,-0.64 0.8,0 1.57,1.15 2.43,2.24 0.5,0.62 2.41,3.46 2.41,4.38 0,0.46 -0.3,0.73 -0.67,0.73 -0.35,0 -0.56,-0.21 -0.56,-0.47 0,-0.45 0.61,-0.57 0.61,-0.82 0,-0.21 -0.09,-0.45 -0.33,-0.88 -0.26,-0.49 -0.67,-1.19 -1.39,-2.18 z" style="fill:#000000;stroke-width:0" /></g>  <g id="g4987" transform="matrix(2.1791525,0,0,-2.1791525,-59.601052,1253.0483)" xml:space="preserve" stroke-miterlimit="10.433" font-style="normal" font-variant="normal" font-weight="normal" font-stretch="normal" font-size-adjust="none" letter-spacing="normal" word-spacing="normal" ns0:text="$x$" ns0:preamble="/Users/ABaker/cmep/Inkscape/underground-inkscape-preamble.tex" style="font-style:normal;font-variant:normal;font-weight:normal;font-stretch:normal;letter-spacing:normal;word-spacing:normal;text-anchor:start;fill:none;fill-opacity:1;fill-rule:evenodd;stroke:#000000;stroke-linecap:butt;stroke-linejoin:miter;stroke-miterlimit:10.43299961;stroke-dasharray:none;stroke-dashoffset:0;stroke-opacity:1"><path d="m 227.03,480.64 -0.23,0.64 c -0.15,0.39 -0.37,0.88 -0.89,1.16 l -1.56,-0.39 0.04,-0.21 c 0.12,0.05 0.29,0.07 0.45,0.07 0.65,0 0.95,-0.48 1.15,-1.05 l 0.39,-1.09 -0.76,-1.19 c -0.38,-0.58 -0.69,-0.7 -0.83,-0.7 -0.3,0 -0.25,0.24 -0.55,0.24 -0.3,0 -0.45,-0.25 -0.45,-0.44 0,-0.26 0.19,-0.55 0.61,-0.55 0.66,0 1,0.51 1.38,1.08 l 0.74,1.16 0.48,-1.33 c 0.15,-0.43 0.38,-0.91 0.86,-0.91 0.68,0 1.21,1.13 1.36,1.31 l -0.17,0.12 c -0.25,-0.51 -0.53,-0.68 -0.72,-0.68 -0.53,0 -0.8,1.6 -1.15,2.33 l 0.64,1 c 0.17,0.26 0.3,0.45 0.65,0.45 0.2,0 0.26,-0.1 0.52,-0.1 0.31,0 0.46,0.27 0.46,0.49 0,0.25 -0.2,0.39 -0.57,0.39 -0.6,0 -1.01,-0.52 -1.32,-0.99 z" id="path4989" style="fill:#000000;stroke-width:0" /></g>  <g ns0:preamble="/Users/ABaker/cmep/Inkscape/underground-inkscape-preamble.tex" ns0:text="$\\frac{1}{2}$" word-spacing="normal" letter-spacing="normal" font-size-adjust="none" font-stretch="normal" font-weight="normal" font-variant="normal" font-style="normal" stroke-miterlimit="10.433" xml:space="preserve" transform="matrix(2,0,0,-2,-153.79096,1206.4155)" id="g5549" style="font-style:normal;font-variant:normal;font-weight:normal;font-stretch:normal;letter-spacing:normal;word-spacing:normal;text-anchor:start;fill:none;fill-opacity:1;fill-rule:evenodd;stroke:#000000;stroke-linecap:butt;stroke-linejoin:miter;stroke-miterlimit:10.43299961;stroke-dasharray:none;stroke-dashoffset:0;stroke-opacity:1"><path id="path5551" d="m 228.13,481.19 0,0.13 c -0.67,0 -0.85,0.16 -0.85,0.54 l 0,5.3 -0.08,0.02 -1.59,-0.8 0,-0.13 0.24,0.09 c 0.16,0.06 0.31,0.11 0.4,0.11 0.19,0 0.27,-0.14 0.27,-0.44 l 0,-3.98 c 0,-0.48 -0.19,-0.67 -0.84,-0.71 l 0,-0.13 z" style="fill:#000000;stroke-width:0" /><line id="line5553" y2="478.89999" x2="229.07001" y1="478.89999" x1="224.63" style="stroke-width:0.65799999" /><path id="path5555" d="m 228.84,472.84 -0.13,0.05 c -0.29,-0.49 -0.48,-0.59 -0.85,-0.59 l -2.08,0 1.47,1.56 c 0.79,0.83 1.13,1.5 1.13,2.2 0,0.88 -0.64,1.56 -1.64,1.56 -1.09,0 -1.66,-0.73 -1.85,-1.76 l 0.19,-0.05 c 0.36,0.87 0.67,1.15 1.31,1.15 0.75,0 1.23,-0.44 1.23,-1.25 0,-0.75 -0.32,-1.42 -1.15,-2.3 l -1.59,-1.68 0,-0.1 3.48,0 z" style="fill:#000000;stroke-width:0" /></g>  <g style="font-style:normal;font-variant:normal;font-weight:normal;font-stretch:normal;letter-spacing:normal;word-spacing:normal;text-anchor:start;fill:none;fill-opacity:1;fill-rule:evenodd;stroke:#000000;stroke-linecap:butt;stroke-linejoin:miter;stroke-miterlimit:10.43299961;stroke-dasharray:none;stroke-dashoffset:0;stroke-opacity:1" id="g6014" transform="matrix(2,0,0,-2,-98.303994,1202.594)" xml:space="preserve" stroke-miterlimit="10.433" font-style="normal" font-variant="normal" font-weight="normal" font-stretch="normal" font-size-adjust="none" letter-spacing="normal" word-spacing="normal" ns0:text="$\\frac{\\sqrt{3}}{2}$" ns0:preamble="/Users/ABaker/cmep/Inkscape/underground-inkscape-preamble.tex"><path style="fill:#000000;stroke-width:0" d="m 233.18,486.68 -0.48,0 -3.68,-9.45 -0.03,0 -1.81,4.76 -0.17,0 -1.39,-1.1 0.11,-0.18 c 0.19,0.18 0.42,0.27 0.58,0.27 0.22,0 0.4,-0.12 0.55,-0.52 l 1.79,-4.7 0.28,0 z" id="path6016" /><line style="stroke-width:0.493" x1="232.87" y1="486.45999" x2="237.32001" y2="486.45999" id="line6018" /><path style="fill:#000000;stroke-width:0" d="m 233.42,482.26 0.03,0.06 0.03,0.06 0.04,0.05 0.03,0.06 0.04,0.05 0.04,0.05 0.03,0.05 0.04,0.04 0.04,0.04 0.03,0.05 0.04,0.04 0.04,0.03 0.04,0.04 0.04,0.03 0.04,0.03 0.04,0.03 0.04,0.03 0.04,0.03 0.04,0.02 0.04,0.02 0.05,0.02 0.04,0.02 0.05,0.02 0.04,0.01 0.05,0.02 0.04,0.01 0.05,0.01 0.05,0 0.05,0.01 0.05,0 0.05,0.01 0.05,0 c 0.58,0 0.96,-0.3 0.96,-0.91 0,-0.54 -0.29,-0.94 -0.72,-1.18 -0.18,-0.11 -0.41,-0.21 -0.75,-0.32 l 0,-0.13 c 0.51,0 0.71,-0.02 0.91,-0.09 0.61,-0.17 0.92,-0.61 0.92,-1.28 0,-0.75 -0.5,-1.36 -1.15,-1.36 -0.25,0 -0.44,0.05 -0.77,0.28 -0.24,0.17 -0.39,0.23 -0.54,0.23 -0.2,0 -0.36,-0.14 -0.36,-0.32 0,-0.32 0.34,-0.51 0.99,-0.51 0.79,0 1.64,0.26 2.06,0.83 0.26,0.33 0.41,0.77 0.41,1.24 0,0.46 -0.14,0.87 -0.39,1.14 -0.19,0.2 -0.35,0.3 -0.74,0.47 0.6,0.36 0.83,0.8 0.83,1.23 0,0.72 -0.56,1.21 -1.39,1.21 -0.92,0 -1.48,-0.59 -1.74,-1.44 z" id="path6020" /><line style="stroke-width:0.65799999" x1="224.63" y1="474.76999" x2="237.32001" y2="474.76999" id="line6022" /><path style="fill:#000000;stroke-width:0" d="m 232.96,468.71 -0.12,0.06 c -0.3,-0.5 -0.49,-0.6 -0.86,-0.6 l -2.08,0 1.47,1.56 c 0.79,0.84 1.14,1.5 1.14,2.2 0,0.88 -0.64,1.56 -1.65,1.56 -1.09,0 -1.66,-0.73 -1.84,-1.76 l 0.18,-0.05 c 0.36,0.87 0.67,1.15 1.31,1.15 0.75,0 1.23,-0.44 1.23,-1.25 0,-0.75 -0.32,-1.42 -1.15,-2.3 l -1.58,-1.68 0,-0.1 3.47,0 z" id="path6024" /></g>  <g style="font-style:normal;font-variant:normal;font-weight:normal;font-stretch:normal;letter-spacing:normal;word-spacing:normal;text-anchor:start;fill:none;fill-opacity:1;fill-rule:evenodd;stroke:#000000;stroke-linecap:butt;stroke-linejoin:miter;stroke-miterlimit:10.43299961;stroke-dasharray:none;stroke-dashoffset:0;stroke-opacity:1" ns0:preamble="/Users/ABaker/cmep/Inkscape/underground-inkscape-preamble.tex" ns0:text="$\\frac{\\pi}{3}$" word-spacing="normal" letter-spacing="normal" font-size-adjust="none" font-stretch="normal" font-weight="normal" font-variant="normal" font-style="normal" stroke-miterlimit="10.433" xml:space="preserve" transform="matrix(2,0,0,-2,-260.342,1040.302)" id="g6386"><path style="fill:#000000;stroke-width:0" id="path6388" d="m 229.67,485.81 -2.5,0 c -0.93,0 -1.49,-0.41 -1.88,-1.12 l 0.14,0 c 0.39,0.47 0.72,0.47 1.23,0.47 l -0.79,-1.82 c -0.11,-0.26 -0.27,-0.52 -0.66,-0.62 -0.23,-0.07 -0.27,-0.3 -0.27,-0.43 0,-0.21 0.22,-0.39 0.45,-0.39 0.11,0 0.24,0.02 0.34,0.1 0.75,0.56 1.02,2.08 1.43,3.16 l 0.83,0 c -0.22,-0.74 -0.49,-1.36 -0.69,-1.99 -0.05,-0.17 -0.08,-0.35 -0.08,-0.55 0,-0.35 0.15,-0.67 0.51,-0.67 0.62,0 1.09,0.63 1.28,1.26 l -0.15,0 c -0.21,-0.48 -0.46,-0.58 -0.65,-0.58 -0.19,0 -0.33,0.22 -0.33,0.42 0,0.6 0.47,1.73 0.59,2.11 l 1,0 z" /><line style="stroke-width:0.65799999" id="line6390" y2="479.73001" x2="229.59" y1="479.73001" x1="224.63" /><path style="fill:#000000;stroke-width:0" id="path6392" d="m 225.43,476.97 0.03,0.06 0.04,0.06 0.03,0.06 0.04,0.05 0.03,0.05 0.04,0.05 0.03,0.05 0.04,0.05 0.04,0.04 0.03,0.04 0.04,0.04 0.04,0.04 0.04,0.03 0.04,0.04 0.04,0.03 0.04,0.03 0.04,0.03 0.04,0.02 0.04,0.03 0.04,0.02 0.05,0.02 0.04,0.02 0.05,0.01 0.04,0.02 0.05,0.01 0.04,0.01 0.05,0.01 0.05,0.01 0.05,0.01 0.05,0 0.05,0 0.05,0 c 0.59,0 0.96,-0.3 0.96,-0.9 0,-0.54 -0.29,-0.94 -0.72,-1.19 -0.18,-0.11 -0.41,-0.2 -0.75,-0.32 l 0,-0.12 c 0.51,0 0.71,-0.03 0.91,-0.09 0.61,-0.18 0.92,-0.61 0.92,-1.29 0,-0.75 -0.5,-1.35 -1.15,-1.35 -0.25,0 -0.44,0.04 -0.77,0.27 -0.24,0.18 -0.39,0.23 -0.54,0.23 -0.2,0 -0.36,-0.13 -0.36,-0.32 0,-0.31 0.35,-0.5 0.99,-0.5 0.79,0 1.64,0.26 2.06,0.82 0.26,0.34 0.41,0.77 0.41,1.24 0,0.47 -0.14,0.87 -0.39,1.15 -0.19,0.19 -0.35,0.3 -0.74,0.47 0.6,0.35 0.83,0.79 0.83,1.22 0,0.73 -0.56,1.22 -1.39,1.22 -0.92,0 -1.48,-0.6 -1.74,-1.44 z" /></g>  <g style="font-style:normal;font-variant:normal;font-weight:normal;font-stretch:normal;letter-spacing:normal;word-spacing:normal;text-anchor:start;fill:none;fill-opacity:1;fill-rule:evenodd;stroke:#000000;stroke-linecap:butt;stroke-linejoin:miter;stroke-miterlimit:10.43299961;stroke-dasharray:none;stroke-dashoffset:0;stroke-opacity:1" id="g6762" transform="matrix(2,0,0,-2,-259.072,1111.53)" xml:space="preserve" stroke-miterlimit="10.433" font-style="normal" font-variant="normal" font-weight="normal" font-stretch="normal" font-size-adjust="none" letter-spacing="normal" word-spacing="normal" ns0:text="$\\frac{\\pi}{6}$" ns0:preamble="/Users/ABaker/cmep/Inkscape/underground-inkscape-preamble.tex"><path style="fill:#000000;stroke-width:0" d="m 229.67,485.81 -2.5,0 c -0.93,0 -1.49,-0.41 -1.88,-1.12 l 0.14,0 c 0.39,0.47 0.72,0.47 1.23,0.47 l -0.79,-1.82 c -0.11,-0.26 -0.27,-0.52 -0.66,-0.62 -0.23,-0.07 -0.27,-0.3 -0.27,-0.43 0,-0.21 0.22,-0.39 0.45,-0.39 0.11,0 0.24,0.02 0.34,0.1 0.75,0.56 1.02,2.08 1.43,3.16 l 0.83,0 c -0.22,-0.74 -0.49,-1.36 -0.69,-1.99 -0.05,-0.17 -0.08,-0.35 -0.08,-0.55 0,-0.35 0.15,-0.67 0.51,-0.67 0.62,0 1.09,0.63 1.28,1.26 l -0.15,0 c -0.21,-0.48 -0.46,-0.58 -0.65,-0.58 -0.19,0 -0.33,0.22 -0.33,0.42 0,0.6 0.47,1.73 0.59,2.11 l 1,0 z" id="path6764" /><line style="stroke-width:0.65799999" x1="224.63" y1="479.73001" x2="229.59" y2="479.73001" id="line6766" /><path style="fill:#000000;stroke-width:0" d="m 228.85,478.52 -0.12,-0.02 -0.11,-0.01 -0.11,-0.01 -0.1,-0.02 -0.1,-0.01 -0.1,-0.02 -0.1,-0.02 -0.1,-0.02 -0.09,-0.02 -0.09,-0.02 -0.09,-0.02 -0.08,-0.02 -0.09,-0.03 -0.08,-0.03 -0.08,-0.03 -0.08,-0.03 -0.08,-0.03 -0.08,-0.03 -0.08,-0.04 -0.07,-0.04 -0.08,-0.04 -0.07,-0.05 -0.07,-0.04 -0.08,-0.05 -0.07,-0.05 -0.07,-0.06 -0.07,-0.05 -0.07,-0.06 -0.07,-0.07 -0.07,-0.06 -0.07,-0.07 -0.08,-0.08 c -0.63,-0.64 -0.96,-1.49 -0.96,-2.44 0,-0.62 0.16,-1.25 0.41,-1.71 0.31,-0.56 0.87,-0.89 1.58,-0.89 l 0.09,0.25 c -0.83,0 -1.26,0.88 -1.26,2.23 0,0.82 0.53,1.03 1.03,1.03 0.83,0 1.2,-0.59 1.2,-1.72 l 0,0 c 0,-0.91 -0.33,-1.54 -0.97,-1.54 l -0.09,-0.25 c 0.58,0 1.08,0.24 1.41,0.65 0.29,0.35 0.45,0.85 0.45,1.41 0,1.15 -0.64,1.86 -1.68,1.86 -0.39,0 -0.69,-0.07 -1.13,-0.4 0.24,1.34 1.24,2.29 2.63,2.52 z" id="path6768" /></g></svg>