<?xml version='1.0' ?><svg xmlns:ns0="http://www.iki.fi/pav/software/textext/" xmlns:dc="http://purl.org/dc/elements/1.1/" xmlns:cc="http://creativecommons.org/ns#" xmlns:rdf="http://www.w3.org/1999/02/22-rdf-syntax-ns#" xmlns:svg="http://www.w3.org/2000/svg" xmlns="http://www.w3.org/2000/svg" id="svg2" version="1.1" width="373.74999" height="242.00094" viewBox="0.0 0.7752044154381269 676.9999818862875 438.3535421538461" preserveAspectRatio="none">
  <metadata id="metadata410">
    <rdf:RDF>
      <cc:Work rdf:about="">
        <dc:format>image/svg+xml</dc:format>
        <dc:type rdf:resource="http://purl.org/dc/dcmitype/StillImage" />
      </cc:Work>
    </rdf:RDF>
  </metadata>
  <defs id="defs408" />
  <title id="title4" />
  <g stroke-miterlimit="10.000" id="g6" stroke-dashoffset="0.0000" stroke-dasharray="none" stroke-linejoin="miter" stroke-linecap="square" stroke-width="1.0000">
    <clipPath id="clip1">
      <path d="M 0.0000 0.0000 L 0.0000 439.00 L 677.00 439.00 L 677.00 0.0000 z" id="path9" />
    </clipPath>
    <g clip-path="url(#clip1)" id="g11">
      <g id="g13" stroke-opacity="1.0000" stroke-linecap="butt" stroke="#000000" fill="none">
        <path d="M 60.570 2.0000 L 60.570 439.00" id="path15" />
      </g>
    </g>
    <clipPath id="clip2">
      <path d="M 0.0000 0.0000 L 0.0000 439.00 L 677.00 439.00 L 677.00 0.0000 z" id="path18" />
    </clipPath>
    <g clip-path="url(#clip2)" id="g20">
      <g id="g22" stroke-opacity="1.0000" stroke-linecap="butt" stroke="#000000" fill="none">
        <path d="M 60.570 1.0000 L 55.570 6.0000" id="path24" />
      </g>
    </g>
    <clipPath id="clip3">
      <path d="M 0.0000 0.0000 L 0.0000 439.00 L 677.00 439.00 L 677.00 0.0000 z" id="path27" />
    </clipPath>
    <g clip-path="url(#clip3)" id="g29">
      <g id="g31" stroke-opacity="1.0000" stroke-linecap="butt" stroke="#000000" fill="none">
        <path d="M 60.570 1.0000 L 65.570 6.0000" id="path33" />
      </g>
    </g>
    <clipPath id="clip4">
      <path d="M 0.0000 0.0000 L 0.0000 439.00 L 677.00 439.00 L 677.00 0.0000 z" id="path36" />
    </clipPath>
    <g clip-path="url(#clip4)" id="g38">
      <g id="g40" stroke-opacity="1.0000" stroke-linecap="butt" stroke="#000000" fill="none">
        <path d="M 0.0000 315.75 L 675.00 315.75" id="path42" />
      </g>
    </g>
    <clipPath id="clip5">
      <path d="M 0.0000 0.0000 L 0.0000 439.00 L 677.00 439.00 L 677.00 0.0000 z" id="path45" />
    </clipPath>
    <g clip-path="url(#clip5)" id="g47">
      <g id="g49" stroke-opacity="1.0000" stroke-linecap="butt" stroke="#000000" fill="none">
        <path d="M 676.00 315.75 L 671.00 310.75" id="path51" />
      </g>
    </g>
    <clipPath id="clip6">
      <path d="M 0.0000 0.0000 L 0.0000 439.00 L 677.00 439.00 L 677.00 0.0000 z" id="path54" />
    </clipPath>
    <g clip-path="url(#clip6)" id="g56">
      <g id="g58" stroke-opacity="1.0000" stroke-linecap="butt" stroke="#000000" fill="none">
        <path d="M 676.00 315.75 L 671.00 320.75" id="path60" />
      </g>
    </g>
    <g id="misc" />
    <g id="layer0">
      <clipPath id="clip7">
        <path d="M 0.0000 0.0000 L 0.0000 439.00 L 677.00 439.00 L 677.00 0.0000 z" id="path65" />
      </clipPath>
      <g clip-path="url(#clip7)" id="g67">
        <g id="g69" stroke-opacity="1.0000" stroke-linejoin="round" stroke-linecap="round" stroke-width="3.5000" stroke="#006400" fill="none">
          <path d="M 105.78 449.00 L 106.58 449.50 L 108.93 442.27 L 108.43 441.77 L 111.07 434.07 L 113.71 426.76 L 116.36 419.81 L 119.00 413.18 L 121.65 406.84 L 124.29 400.77 L 126.94 394.95 L 129.58 389.36 L 132.23 383.98 L 134.87 378.79 L 137.52 373.78 L 142.80 364.26 L 148.09 355.34 L 153.38 346.94 L 158.67 339.00 L 163.96 331.49 L 169.25 324.34 L 174.54 317.54 L 179.83 311.05 L 185.12 304.83 L 190.41 298.88 L 195.70 293.16 L 200.98 287.67 L 206.27 282.37 L 211.56 277.27 L 216.85 272.34 L 222.14 267.57 L 227.43 262.96 L 232.72 258.49 L 238.01 254.16 L 243.30 249.96 L 248.59 245.87 L 253.88 241.90 L 259.16 238.04 L 264.45 234.27 L 269.74 230.61 L 275.03 227.03 L 280.32 223.54 L 285.61 220.14 L 290.90 216.81 L 296.19 213.56 L 301.48 210.38 L 306.77 207.27 L 312.05 204.23 L 317.34 201.25 L 322.63 198.33 L 327.92 195.47 L 333.21 192.67 L 338.50 189.92 L 343.79 187.22 L 349.08 184.57 L 354.37 181.97 L 359.66 179.41 L 364.95 176.90 L 370.23 174.44 L 375.52 172.01 L 380.81 169.63 L 386.10 167.28 L 391.39 164.98 L 396.68 162.70 L 401.97 160.47 L 407.26 158.27 L 412.55 156.10 L 417.84 153.97 L 423.12 151.86 L 428.41 149.79 L 433.70 147.74 L 438.99 145.73 L 444.28 143.74 L 449.57 141.78 L 454.86 139.85 L 460.15 137.94 L 465.44 136.06 L 470.73 134.20 L 476.02 132.37 L 481.30 130.55 L 486.59 128.77 L 491.88 127.00 L 497.17 125.25 L 502.46 123.53 L 507.75 121.83 L 513.04 120.14 L 518.33 118.48 L 523.62 116.84 L 528.91 115.21 L 534.20 113.60 L 539.48 112.01 L 544.77 110.44 L 550.06 108.88 L 555.35 107.35 L 560.64 105.82 L 565.93 104.32 L 571.22 102.83 L 576.51 101.35 L 581.80 99.891 L 587.09 98.445 L 592.38 97.014 L 597.66 95.597 L 602.95 94.194 L 608.24 92.805 L 613.53 91.429 L 618.82 90.066 L 624.11 88.716 L 629.40 87.379 L 634.69 86.054 L 639.98 84.741 L 645.27 83.440 L 650.55 82.151 L 655.84 80.873 L 661.13 79.607 L 666.42 78.351 L 671.71 77.107 L 677.00 75.873" id="path71" />
          <title id="title73">Function f</title>
          <desc id="desc75">f(x) = ln(x)</desc>
        </g>
      </g>
      <clipPath id="clip8">
        <path d="M 0.0000 0.0000 L 0.0000 439.00 L 677.00 439.00 L 677.00 0.0000 z" id="path78" />
      </clipPath>
      <g clip-path="url(#clip8)" id="g80">
        <g id="g82" stroke-opacity="1.0000" stroke-linejoin="round" stroke-linecap="round" stroke="#000000" fill="none">
          <path d="M 406.01 158.78 L 60.570 158.78" id="path84" />
          <title id="title86">Segment h</title>
          <desc id="desc88">Segment h: Segment [B, C]</desc>
        </g>
      </g>
      <clipPath id="clip9">
        <path d="M 0.0000 0.0000 L 0.0000 439.00 L 677.00 439.00 L 677.00 0.0000 z" id="path91" />
      </clipPath>
      <g clip-path="url(#clip9)" id="g93">
        <g id="g95" stroke-opacity="1.0000" stroke-linejoin="round" stroke-linecap="round" stroke="#000000" fill="none">
          <path d="M 60.570 232.28 L 267.31 232.28" id="path97" />
          <title id="title99">Segment i</title>
          <desc id="desc101">Segment i: Segment [D, A]</desc>
        </g>
      </g>
      <clipPath id="clip10">
        <path d="M 0.0000 0.0000 L 0.0000 439.00 L 677.00 439.00 L 677.00 0.0000 z" id="path104" />
      </clipPath>
      <g clip-path="url(#clip10)" id="g106">
        <g id="g108" stroke-opacity="1.0000" stroke-linejoin="round" stroke-linecap="round" stroke="#000000" fill="none">
          <path d="M 267.31 232.28 L 267.31 318.31" id="path110" />
          <title id="title112">Segment j</title>
          <desc id="desc114">Segment j: Segment [A, E]</desc>
        </g>
      </g>
      <clipPath id="clip11">
        <path d="M 0.0000 0.0000 L 0.0000 439.00 L 677.00 439.00 L 677.00 0.0000 z" id="path117" />
      </clipPath>
      <g clip-path="url(#clip11)" id="g119">
        <g id="g121" stroke-opacity="1.0000" stroke-linejoin="round" stroke-linecap="round" stroke="#000000" fill="none">
          <path d="M 406.01 158.78 L 406.01 315.75" id="path123" />
          <title id="title125">Segment k</title>
          <desc id="desc127">Segment k: Segment [B, F]</desc>
        </g>
      </g>
      <clipPath id="clip12">
        <path d="M 0.0000 0.0000 L 0.0000 439.00 L 677.00 439.00 L 677.00 0.0000 z" id="path130" />
      </clipPath>
      <g clip-path="url(#clip12)" id="g132">
        <g id="g134" stroke="none" fill-rule="nonzero" fill-opacity="1.0000" fill="#000000">
          <path d="M 270.31 232.28 C 270.31 233.94 268.97 235.28 267.31 235.28 C 265.65 235.28 264.31 233.94 264.31 232.28 C 264.31 230.62 265.65 229.28 267.31 229.28 C 268.97 229.28 270.31 230.62 270.31 232.28 z" id="path136" />
          <title id="title138">Point A</title>
          <desc id="desc140">Point A: Point on f</desc>
        </g>
      </g>
      <clipPath id="clip13">
        <path d="M 0.0000 0.0000 L 0.0000 439.00 L 677.00 439.00 L 677.00 0.0000 z" id="path143" />
      </clipPath>
      <g clip-path="url(#clip13)" id="g145">
        <g id="g147" stroke-opacity="1.0000" stroke-linejoin="round" stroke-linecap="round" stroke="#000000" fill="none">
          <path d="M 270.31 232.28 C 270.31 233.94 268.97 235.28 267.31 235.28 C 265.65 235.28 264.31 233.94 264.31 232.28 C 264.31 230.62 265.65 229.28 267.31 229.28 C 268.97 229.28 270.31 230.62 270.31 232.28 z" id="path149" />
          <title id="title151">Point A</title>
          <desc id="desc153">Point A: Point on f</desc>
        </g>
      </g>
      <clipPath id="clip14">
        <path d="M 0.0000 0.0000 L 0.0000 439.00 L 677.00 439.00 L 677.00 0.0000 z" id="path156" />
      </clipPath>
      <g clip-path="url(#clip14)" id="g158">
        <g id="g160" stroke="none" fill-rule="nonzero" fill-opacity="1.0000" fill="#000000">
          <path d="M 409.01 158.78 C 409.01 160.44 407.67 161.78 406.01 161.78 C 404.36 161.78 403.01 160.44 403.01 158.78 C 403.01 157.13 404.36 155.78 406.01 155.78 C 407.67 155.78 409.01 157.13 409.01 158.78 z" id="path162" />
          <title id="title164">Point B</title>
          <desc id="desc166">Point B: Point on f</desc>
        </g>
      </g>
      <clipPath id="clip15">
        <path d="M 0.0000 0.0000 L 0.0000 439.00 L 677.00 439.00 L 677.00 0.0000 z" id="path169" />
      </clipPath>
      <g clip-path="url(#clip15)" id="g171">
        <g id="g173" stroke-opacity="1.0000" stroke-linejoin="round" stroke-linecap="round" stroke="#000000" fill="none">
          <path d="M 409.01 158.78 C 409.01 160.44 407.67 161.78 406.01 161.78 C 404.36 161.78 403.01 160.44 403.01 158.78 C 403.01 157.13 404.36 155.78 406.01 155.78 C 407.67 155.78 409.01 157.13 409.01 158.78 z" id="path175" />
          <title id="title177">Point B</title>
          <desc id="desc179">Point B: Point on f</desc>
        </g>
      </g>
    </g>
  </g>
  <path style="fill:#00ffff;stroke:#271740;stroke-width:0.8360877;stroke-miterlimit:4;stroke-dasharray:none;fill-opacity:0.19607843;stroke-opacity:1.0" d="m 34.103193,108.05103 0,-19.973203 93.014757,0.0096 93.01476,0.0096 -7.66414,3.329239 c -10.68117,4.639812 -34.49308,16.646794 -43.66236,22.016424 -4.21527,2.46851 -10.50478,6.34118 -13.97667,8.60593 -3.47189,2.26475 -6.76221,4.11773 -7.31183,4.11773 -0.54961,0 -1.26037,0.41804 -1.57946,0.92898 -0.57492,0.92059 -1.08321,0.92899 -56.207611,0.92899 l -55.627446,0 0,-19.97321 z" id="path3738" transform="matrix(1.8113713,0,0,1.8113713,0,-0.12875783)" />
  <path style="fill:#00ffff;stroke:#271740;stroke-width:0.8360877;stroke-miterlimit:4;stroke-dasharray:none;fill-opacity:0.19607843;stroke-opacity:1.0" d="m 147.90402,152.28962 c 0,-21.2164 0.0215,-21.73289 0.92899,-22.29961 0.51094,-0.31909 0.92898,-0.87765 0.92898,-1.24124 0,-0.78237 12.77923,-8.97354 23.9214,-15.33302 12.62941,-7.20834 45.20676,-22.932246 48.80606,-23.556918 0.87713,-0.152229 0.89704,0.672795 1.01329,41.997478 l 0.11858,42.15275 -37.85865,0 -37.85865,0 0,-21.71944 z" id="path3740" transform="matrix(1.8113713,0,0,1.8113713,0,-0.12875783)" />
  <g style="font-style:normal;font-variant:normal;font-weight:normal;font-stretch:normal;letter-spacing:normal;word-spacing:normal;text-anchor:start;fill:none;fill-opacity:1;fill-rule:evenodd;stroke:#000000;stroke-linecap:butt;stroke-linejoin:miter;stroke-miterlimit:10.43299961;stroke-dasharray:none;stroke-dashoffset:0;stroke-opacity:1" id="content" transform="matrix(2,0,0,-2,-185.48907,1291.8054)" xml:space="preserve" stroke-miterlimit="10.433" font-style="normal" font-variant="normal" font-weight="normal" font-stretch="normal" font-size-adjust="none" letter-spacing="normal" word-spacing="normal" ns0:text="$2$" ns0:preamble="/Users/ABaker/cmep/Inkscape/underground-inkscape-preamble.tex"><path style="fill:#000000;stroke-width:0" d="m 229.03,478.85 -0.17,0.07 c -0.39,-0.66 -0.63,-0.79 -1.13,-0.79 l -2.76,0 1.94,2.08 c 1.06,1.11 1.52,1.99 1.52,2.93 0,1.17 -0.85,2.08 -2.19,2.08 -1.45,0 -2.21,-0.97 -2.45,-2.35 l 0.24,-0.06 c 0.48,1.15 0.89,1.53 1.74,1.53 1,0 1.64,-0.59 1.64,-1.66 0,-1.01 -0.42,-1.9 -1.53,-3.07 l -2.11,-2.23 0,-0.15 4.62,0 z" id="path3581" /></g>  <g style="font-style:normal;font-variant:normal;font-weight:normal;font-stretch:normal;letter-spacing:normal;word-spacing:normal;text-anchor:start;fill:none;fill-opacity:1;fill-rule:evenodd;stroke:#000000;stroke-linecap:butt;stroke-linejoin:miter;stroke-miterlimit:10.43299961;stroke-dasharray:none;stroke-dashoffset:0;stroke-opacity:1" ns0:preamble="/Users/ABaker/cmep/Inkscape/underground-inkscape-preamble.tex" ns0:text="$3$" word-spacing="normal" letter-spacing="normal" font-size-adjust="none" font-stretch="normal" font-weight="normal" font-variant="normal" font-style="normal" stroke-miterlimit="10.433" xml:space="preserve" transform="matrix(2,0,0,-2,-48.542383,1291.4024)" id="g3837"><path style="fill:#000000;stroke-width:0" id="path3839" d="m 224.15,483.26 0.05,0.08 0.04,0.07 0.05,0.08 0.05,0.07 0.04,0.07 0.05,0.07 0.05,0.06 0.05,0.06 0.05,0.06 0.05,0.05 0.05,0.06 0.05,0.05 0.05,0.04 0.05,0.05 0.05,0.04 0.06,0.04 0.05,0.04 0.06,0.03 0.05,0.03 0.06,0.03 0.06,0.03 0.06,0.02 0.06,0.03 0.06,0.02 0.06,0.01 0.06,0.02 0.06,0.01 0.07,0.01 0.06,0.01 0.07,0 0.06,0.01 0.07,0 c 0.78,0 1.28,-0.4 1.28,-1.21 0,-0.72 -0.38,-1.25 -0.96,-1.58 -0.24,-0.14 -0.54,-0.27 -0.99,-0.42 l 0,-0.17 c 0.67,0 0.94,-0.03 1.2,-0.12 0.82,-0.23 1.23,-0.81 1.23,-1.71 0,-1 -0.66,-1.81 -1.53,-1.81 -0.34,0 -0.58,0.06 -1.02,0.37 -0.33,0.24 -0.52,0.31 -0.72,0.31 -0.27,0 -0.48,-0.18 -0.48,-0.43 0,-0.42 0.46,-0.67 1.32,-0.67 1.05,0 2.17,0.34 2.74,1.1 0.34,0.45 0.54,1.03 0.54,1.65 0,0.61 -0.19,1.16 -0.52,1.52 -0.25,0.26 -0.46,0.4 -0.98,0.63 0.79,0.47 1.1,1.06 1.1,1.63 0,0.97 -0.74,1.62 -1.84,1.62 -1.23,0 -1.97,-0.8 -2.32,-1.92 z" /></g>  <g style="font-style:normal;font-variant:normal;font-weight:normal;font-stretch:normal;letter-spacing:normal;word-spacing:normal;text-anchor:start;fill:none;fill-opacity:1;fill-rule:evenodd;stroke:#000000;stroke-linecap:butt;stroke-linejoin:miter;stroke-miterlimit:10.43299961;stroke-dasharray:none;stroke-dashoffset:0;stroke-opacity:1" id="g4099" transform="matrix(2,0,0,-2,-423.27841,1119.7533)" xml:space="preserve" stroke-miterlimit="10.433" font-style="normal" font-variant="normal" font-weight="normal" font-stretch="normal" font-size-adjust="none" letter-spacing="normal" word-spacing="normal" ns0:text="$\\ln 3$" ns0:preamble="/Users/ABaker/cmep/Inkscape/underground-inkscape-preamble.tex"><path style="fill:#000000;stroke-width:0" d="m 226.47,477.23 0,0.18 c -0.76,0.05 -0.89,0.2 -0.89,0.85 l 0,6.99 -0.06,0.05 c -0.61,-0.2 -1.05,-0.32 -1.86,-0.52 l 0,-0.19 c 0.19,0.02 0.34,0.02 0.43,0.02 0.38,0 0.5,-0.19 0.5,-0.75 l 0,-5.54 c 0,-0.65 -0.17,-0.85 -0.91,-0.91 l 0,-0.18 z" id="path4101" /><path style="fill:#000000;stroke-width:0" d="m 232.45,477.23 0,0.18 c -0.58,0.06 -0.72,0.19 -0.72,0.83 l 0,2.61 c 0,1.17 -0.49,1.82 -1.39,1.82 -0.55,0 -1.09,-0.26 -1.7,-0.96 l -0.01,0 0,0.92 -0.1,0.04 c -0.58,-0.22 -0.97,-0.35 -1.62,-0.54 l 0,-0.2 c 0.09,0.04 0.22,0.05 0.35,0.05 0.33,0 0.41,-0.19 0.41,-0.77 l 0,-2.86 c 0,-0.7 -0.13,-0.89 -0.73,-0.94 l 0,-0.18 2.49,0 0,0.18 c -0.6,0.05 -0.77,0.21 -0.77,0.67 l 0,3.26 c 0.55,0.54 0.83,0.68 1.22,0.68 0.58,0 0.86,-0.36 0.86,-1.2 l 0,-2.34 c 0,-0.78 -0.14,-1.02 -0.73,-1.07 L 230,477.23 Z" id="path4103" /><path style="fill:#000000;stroke-width:0" d="m 235.03,483.26 0.04,0.08 0.05,0.07 0.05,0.08 0.04,0.07 0.05,0.07 0.05,0.07 0.05,0.06 0.05,0.06 0.04,0.06 0.05,0.05 0.05,0.06 0.06,0.05 0.05,0.04 0.05,0.05 0.05,0.04 0.06,0.04 0.05,0.04 0.05,0.03 0.06,0.03 0.06,0.03 0.05,0.03 0.06,0.02 0.06,0.03 0.06,0.02 0.06,0.01 0.07,0.02 0.06,0.01 0.06,0.01 0.07,0.01 0.06,0 0.07,0.01 0.07,0 c 0.78,0 1.27,-0.4 1.27,-1.21 0,-0.72 -0.38,-1.25 -0.95,-1.58 -0.24,-0.14 -0.55,-0.27 -0.99,-0.42 l 0,-0.17 c 0.67,0 0.94,-0.03 1.2,-0.12 0.81,-0.23 1.23,-0.81 1.23,-1.71 0,-1 -0.66,-1.81 -1.54,-1.81 -0.33,0 -0.58,0.06 -1.01,0.37 -0.33,0.24 -0.52,0.31 -0.72,0.31 -0.27,0 -0.49,-0.18 -0.49,-0.43 0,-0.42 0.46,-0.67 1.33,-0.67 1.04,0 2.17,0.34 2.73,1.1 0.35,0.45 0.55,1.03 0.55,1.65 0,0.61 -0.19,1.16 -0.52,1.52 -0.25,0.26 -0.46,0.4 -0.98,0.63 0.79,0.47 1.09,1.06 1.09,1.63 0,0.97 -0.74,1.62 -1.84,1.62 -1.22,0 -1.97,-0.8 -2.31,-1.92 z" id="path4105" /></g>  <g style="font-style:normal;font-variant:normal;font-weight:normal;font-stretch:normal;letter-spacing:normal;word-spacing:normal;text-anchor:start;fill:none;fill-opacity:1;fill-rule:evenodd;stroke:#000000;stroke-linecap:butt;stroke-linejoin:miter;stroke-miterlimit:10.43299961;stroke-dasharray:none;stroke-dashoffset:0;stroke-opacity:1" ns0:preamble="/Users/ABaker/cmep/Inkscape/underground-inkscape-preamble.tex" ns0:text="$\\ln 2$" word-spacing="normal" letter-spacing="normal" font-size-adjust="none" font-stretch="normal" font-weight="normal" font-variant="normal" font-style="normal" stroke-miterlimit="10.433" xml:space="preserve" transform="matrix(2,0,0,-2,-423.81591,1191.5037)" id="g4373"><path style="fill:#000000;stroke-width:0" id="path4375" d="m 226.47,477.23 0,0.18 c -0.76,0.05 -0.89,0.2 -0.89,0.85 l 0,6.99 -0.06,0.05 c -0.61,-0.2 -1.05,-0.32 -1.86,-0.52 l 0,-0.19 c 0.19,0.02 0.34,0.02 0.43,0.02 0.38,0 0.5,-0.19 0.5,-0.75 l 0,-5.54 c 0,-0.65 -0.17,-0.85 -0.91,-0.91 l 0,-0.18 z" /><path style="fill:#000000;stroke-width:0" id="path4377" d="m 232.45,477.23 0,0.18 c -0.58,0.06 -0.72,0.19 -0.72,0.83 l 0,2.61 c 0,1.17 -0.49,1.82 -1.39,1.82 -0.55,0 -1.09,-0.26 -1.7,-0.96 l -0.01,0 0,0.92 -0.1,0.04 c -0.58,-0.22 -0.97,-0.35 -1.62,-0.54 l 0,-0.2 c 0.09,0.04 0.22,0.05 0.35,0.05 0.33,0 0.41,-0.19 0.41,-0.77 l 0,-2.86 c 0,-0.7 -0.13,-0.89 -0.73,-0.94 l 0,-0.18 2.49,0 0,0.18 c -0.6,0.05 -0.77,0.21 -0.77,0.67 l 0,3.26 c 0.55,0.54 0.83,0.68 1.22,0.68 0.58,0 0.86,-0.36 0.86,-1.2 l 0,-2.34 c 0,-0.78 -0.14,-1.02 -0.73,-1.07 L 230,477.23 Z" /><path style="fill:#000000;stroke-width:0" id="path4379" d="m 239.9,478.85 -0.16,0.07 c -0.39,-0.66 -0.64,-0.79 -1.13,-0.79 l -2.77,0 1.95,2.08 c 1.05,1.11 1.51,1.99 1.51,2.93 0,1.17 -0.85,2.08 -2.18,2.08 -1.45,0 -2.21,-0.97 -2.46,-2.35 l 0.25,-0.06 c 0.47,1.15 0.89,1.53 1.74,1.53 1,0 1.64,-0.59 1.64,-1.66 0,-1.01 -0.43,-1.9 -1.54,-3.07 l -2.1,-2.23 0,-0.15 4.62,0 z" /></g>  <g style="font-style:normal;font-variant:normal;font-weight:normal;font-stretch:normal;letter-spacing:normal;word-spacing:normal;text-anchor:start;fill:none;fill-opacity:1;fill-rule:evenodd;stroke:#000000;stroke-linecap:butt;stroke-linejoin:miter;stroke-miterlimit:10.43299961;stroke-dasharray:none;stroke-dashoffset:0;stroke-opacity:1" id="g4655" transform="matrix(2.5,0,0,-2.5,-522.13639,1214.1038)" xml:space="preserve" stroke-miterlimit="10.433" font-style="normal" font-variant="normal" font-weight="normal" font-stretch="normal" font-size-adjust="none" letter-spacing="normal" word-spacing="normal" ns0:text="$y$" ns0:preamble="/Users/ABaker/cmep/Inkscape/underground-inkscape-preamble.tex"><path style="fill:#000000;stroke-width:0" d="m 226.62,480.86 -0.01,0.08 -0.01,0.08 -0.01,0.07 -0.01,0.07 -0.01,0.07 -0.01,0.07 -0.01,0.06 -0.01,0.06 -0.01,0.06 -0.01,0.05 -0.01,0.06 -0.01,0.05 -0.01,0.05 -0.01,0.04 -0.02,0.05 -0.01,0.05 -0.01,0.04 -0.02,0.04 -0.01,0.04 -0.01,0.04 -0.04,0.08 -0.03,0.07 -0.04,0.08 -0.04,0.07 -0.04,0.07 -0.05,0.07 -1.77,-0.3 0.02,-0.18 c 0.11,0.01 0.3,0.04 0.43,0.04 0.66,0 0.76,-0.71 0.82,-1.24 l 0.45,-3.7 c -0.31,-0.48 -0.98,-1.21 -1.18,-1.21 -0.19,0 -0.16,0.37 -0.67,0.37 -0.16,0 -0.47,-0.13 -0.47,-0.49 0,-0.28 0.22,-0.64 0.66,-0.64 0.8,0 1.57,1.15 2.43,2.24 0.5,0.62 2.41,3.46 2.41,4.38 0,0.46 -0.3,0.73 -0.67,0.73 -0.35,0 -0.56,-0.21 -0.56,-0.47 0,-0.45 0.61,-0.57 0.61,-0.82 0,-0.21 -0.09,-0.45 -0.33,-0.88 -0.26,-0.49 -0.67,-1.19 -1.39,-2.18 z" id="path4657" /></g>  <g style="font-style:normal;font-variant:normal;font-weight:normal;font-stretch:normal;letter-spacing:normal;word-spacing:normal;text-anchor:start;fill:none;fill-opacity:1;fill-rule:evenodd;stroke:#000000;stroke-linecap:butt;stroke-linejoin:miter;stroke-miterlimit:10.43299961;stroke-dasharray:none;stroke-dashoffset:0;stroke-opacity:1" ns0:preamble="/Users/ABaker/cmep/Inkscape/underground-inkscape-preamble.tex" ns0:text="$x$" word-spacing="normal" letter-spacing="normal" font-size-adjust="none" font-stretch="normal" font-weight="normal" font-variant="normal" font-style="normal" stroke-miterlimit="10.433" xml:space="preserve" transform="matrix(2.5,0,0,-2.5,94.722664,1530.8304)" id="g4937"><path style="fill:#000000;stroke-width:0" id="path4939" d="m 227.03,480.64 -0.23,0.64 c -0.15,0.39 -0.37,0.88 -0.89,1.16 l -1.56,-0.39 0.04,-0.21 c 0.12,0.05 0.29,0.07 0.45,0.07 0.65,0 0.95,-0.48 1.15,-1.05 l 0.39,-1.09 -0.76,-1.19 c -0.38,-0.58 -0.69,-0.7 -0.83,-0.7 -0.3,0 -0.25,0.24 -0.55,0.24 -0.3,0 -0.45,-0.25 -0.45,-0.44 0,-0.26 0.19,-0.55 0.61,-0.55 0.66,0 1,0.51 1.38,1.08 l 0.74,1.16 0.48,-1.33 c 0.15,-0.43 0.38,-0.91 0.86,-0.91 0.68,0 1.21,1.13 1.36,1.31 l -0.17,0.12 c -0.25,-0.51 -0.53,-0.68 -0.72,-0.68 -0.53,0 -0.8,1.6 -1.15,2.33 l 0.64,1 c 0.17,0.26 0.3,0.45 0.65,0.45 0.2,0 0.26,-0.1 0.52,-0.1 0.31,0 0.46,0.27 0.46,0.49 0,0.25 -0.2,0.39 -0.57,0.39 -0.6,0 -1.01,-0.52 -1.32,-0.99 z" /></g>  <g style="font-style:normal;font-variant:normal;font-weight:normal;font-stretch:normal;letter-spacing:normal;word-spacing:normal;text-anchor:start;fill:none;fill-opacity:1;fill-rule:evenodd;stroke:#000000;stroke-linecap:butt;stroke-linejoin:miter;stroke-miterlimit:10.43299961;stroke-dasharray:none;stroke-dashoffset:0;stroke-opacity:1" id="g5223" transform="matrix(3,0,0,-3,-214.88249,1512.0139)" xml:space="preserve" stroke-miterlimit="10.433" font-style="normal" font-variant="normal" font-weight="normal" font-stretch="normal" font-size-adjust="none" letter-spacing="normal" word-spacing="normal" ns0:text="$y = \\ln x$" ns0:preamble="/Users/ABaker/cmep/Inkscape/underground-inkscape-preamble.tex"><path style="fill:#000000;stroke-width:0" d="m 226.62,480.86 -0.01,0.08 -0.01,0.08 -0.01,0.07 -0.01,0.07 -0.01,0.07 -0.01,0.07 -0.01,0.06 -0.01,0.06 -0.01,0.06 -0.01,0.05 -0.01,0.06 -0.01,0.05 -0.01,0.05 -0.01,0.04 -0.02,0.05 -0.01,0.05 -0.01,0.04 -0.02,0.04 -0.01,0.04 -0.01,0.04 -0.04,0.08 -0.03,0.07 -0.04,0.08 -0.04,0.07 -0.04,0.07 -0.05,0.07 -1.77,-0.3 0.02,-0.18 c 0.11,0.01 0.3,0.04 0.43,0.04 0.66,0 0.76,-0.71 0.82,-1.24 l 0.45,-3.7 c -0.31,-0.48 -0.98,-1.21 -1.18,-1.21 -0.19,0 -0.16,0.37 -0.67,0.37 -0.16,0 -0.47,-0.13 -0.47,-0.49 0,-0.28 0.22,-0.64 0.66,-0.64 0.8,0 1.57,1.15 2.43,2.24 0.5,0.62 2.41,3.46 2.41,4.38 0,0.46 -0.3,0.73 -0.67,0.73 -0.35,0 -0.56,-0.21 -0.56,-0.47 0,-0.45 0.61,-0.57 0.61,-0.82 0,-0.21 -0.09,-0.45 -0.33,-0.88 -0.26,-0.49 -0.67,-1.19 -1.39,-2.18 z" id="path5225" /><polygon style="fill:#000000;stroke-width:0" points="232.64,481.79 232.64,481.01 239.59,481.01 239.59,481.79 " id="polygon5227" /><polygon style="fill:#000000;stroke-width:0" points="232.64,479.43 232.64,478.65 239.59,478.65 239.59,479.43 " id="polygon5229" /><path style="fill:#000000;stroke-width:0" d="m 245.99,477.23 0,0.18 c -0.75,0.05 -0.88,0.2 -0.88,0.85 l 0,6.99 -0.06,0.05 c -0.62,-0.2 -1.05,-0.32 -1.87,-0.52 l 0,-0.19 c 0.19,0.02 0.34,0.02 0.44,0.02 0.38,0 0.49,-0.19 0.49,-0.75 l 0,-5.54 c 0,-0.65 -0.16,-0.85 -0.9,-0.91 l 0,-0.18 z" id="path5231" /><path style="fill:#000000;stroke-width:0" d="m 251.98,477.23 0,0.18 c -0.58,0.06 -0.72,0.19 -0.72,0.83 l 0,2.61 c 0,1.17 -0.5,1.82 -1.4,1.82 -0.54,0 -1.08,-0.26 -1.7,-0.96 l -0.01,0 0,0.92 -0.09,0.04 c -0.58,-0.22 -0.97,-0.35 -1.62,-0.54 l 0,-0.2 c 0.08,0.04 0.21,0.05 0.34,0.05 0.33,0 0.42,-0.19 0.42,-0.77 l 0,-2.86 c 0,-0.7 -0.13,-0.89 -0.74,-0.94 l 0,-0.18 2.5,0 0,0.18 c -0.61,0.05 -0.77,0.21 -0.77,0.67 l 0,3.26 c 0.54,0.54 0.82,0.68 1.21,0.68 0.58,0 0.86,-0.36 0.86,-1.2 l 0,-2.34 c 0,-0.78 -0.14,-1.02 -0.73,-1.07 l -0.01,-0.18 z" id="path5233" /><path style="fill:#000000;stroke-width:0" d="m 257.43,480.64 -0.23,0.64 c -0.14,0.39 -0.37,0.88 -0.89,1.16 l -1.55,-0.39 0.03,-0.21 c 0.12,0.05 0.3,0.07 0.45,0.07 0.65,0 0.96,-0.48 1.16,-1.05 l 0.39,-1.09 -0.77,-1.19 c -0.38,-0.58 -0.69,-0.7 -0.83,-0.7 -0.29,0 -0.25,0.24 -0.55,0.24 -0.3,0 -0.45,-0.25 -0.45,-0.44 0,-0.26 0.19,-0.55 0.61,-0.55 0.66,0 1,0.51 1.38,1.08 l 0.75,1.16 0.47,-1.33 c 0.15,-0.43 0.38,-0.91 0.86,-0.91 0.69,0 1.22,1.13 1.36,1.31 l -0.17,0.12 c -0.24,-0.51 -0.53,-0.68 -0.72,-0.68 -0.53,0 -0.8,1.6 -1.15,2.33 l 0.65,1 c 0.16,0.26 0.29,0.45 0.65,0.45 0.2,0 0.26,-0.1 0.51,-0.1 0.31,0 0.47,0.27 0.47,0.49 0,0.25 -0.21,0.39 -0.58,0.39 -0.59,0 -1.01,-0.52 -1.31,-0.99 z" id="path5235" /></g></svg>