<?xml version='1.0' ?><svg xmlns:dc="http://purl.org/dc/elements/1.1/" xmlns:cc="http://creativecommons.org/ns#" xmlns:rdf="http://www.w3.org/1999/02/22-rdf-syntax-ns#" xmlns:svg="http://www.w3.org/2000/svg" xmlns="http://www.w3.org/2000/svg" id="svg2" version="1.1" width="247.89225" height="200.28663" viewBox="0.0 2.123118551155779 578.0000201005025 466.99998150753777" preserveAspectRatio="none">
  <metadata id="metadata63">
    <rdf:RDF>
      <cc:Work rdf:about="">
        <dc:format>image/svg+xml</dc:format>
        <dc:type rdf:resource="http://purl.org/dc/dcmitype/StillImage" />
      </cc:Work>
    </rdf:RDF>
  </metadata>
  <defs id="defs61" />
  <title id="title4" />
  <g id="g6" stroke-linecap="square" stroke-miterlimit="10.000" stroke-width="1.0000" stroke-dasharray="none" stroke-dashoffset="0.0000" stroke-linejoin="miter">
    <clipPath id="clip1">
      <path id="path9" d="M 0.0000 0.0000 L 0.0000 469.00 L 580.00 469.00 L 580.00 0.0000 z" />
    </clipPath>
    <g id="g11" clip-path="url(#clip1)">
      <g id="g13" stroke="#000000" stroke-opacity="1.0000" fill="none" stroke-linecap="butt" stroke-width="2.0000">
        <path id="path15" d="M 274.45 3.0000 L 274.45 469.00" />
      </g>
    </g>
    <clipPath id="clip2">
      <path id="path18" d="M 0.0000 0.0000 L 0.0000 469.00 L 580.00 469.00 L 580.00 0.0000 z" />
    </clipPath>
    <g id="g20" clip-path="url(#clip2)">
      <g id="g22" fill="#000000" stroke="none" fill-rule="evenodd" fill-opacity="1.0000">
        <path id="path24" d="M 274.45 2.0000 L 269.45 22.000 L 279.45 22.000" />
      </g>
    </g>
    <clipPath id="clip3">
      <path id="path27" d="M 0.0000 0.0000 L 0.0000 469.00 L 580.00 469.00 L 580.00 0.0000 z" />
    </clipPath>
    <g id="g29" clip-path="url(#clip3)">
      <g id="g31" stroke="#000000" stroke-opacity="1.0000" fill="none" stroke-linecap="butt" stroke-width="2.0000">
        <path id="path33" d="M 0.0000 245.10 L 577.00 245.10" />
      </g>
    </g>
    <clipPath id="clip4">
      <path id="path36" d="M 0.0000 0.0000 L 0.0000 469.00 L 580.00 469.00 L 580.00 0.0000 z" />
    </clipPath>
    <g id="g38" clip-path="url(#clip4)">
      <g id="g40" fill="#000000" stroke="none" fill-rule="evenodd" fill-opacity="1.0000">
        <path id="path42" d="M 578.00 245.10 L 558.00 240.10 L 558.00 250.10" />
      </g>
    </g>
    <g id="misc" />
    <g id="layer0">
      <clipPath id="clip5">
        <path id="path47" d="M 0.0000 0.0000 L 0.0000 469.00 L 580.00 469.00 L 580.00 0.0000 z" />
      </clipPath>
      <g id="g49" clip-path="url(#clip5)">
        <g id="g51" stroke="#000000" stroke-opacity="1.0000" fill="none" stroke-linecap="round" stroke-width="2.0000" stroke-linejoin="round">
          <path id="path53" d="M 489.67 245.10 L 489.61 239.82 L 489.42 234.56 L 489.09 229.31 L 488.64 224.11 L 488.06 218.96 L 487.35 213.87 L 485.54 203.92 L 483.22 194.38 L 480.41 185.32 L 477.09 176.84 L 473.29 169.01 L 469.01 161.92 L 464.26 155.63 L 459.05 150.20 L 453.40 145.68 L 447.32 142.13 L 440.82 139.56 L 433.92 138.01 L 426.64 137.49 L 418.99 138.01 L 410.99 139.56 L 402.66 142.13 L 394.02 145.68 L 385.10 150.20 L 375.91 155.63 L 366.47 161.92 L 356.81 169.01 L 346.96 176.84 L 341.96 181.00 L 336.93 185.32 L 331.85 189.78 L 326.74 194.38 L 321.61 199.09 L 316.44 203.92 L 311.24 208.85 L 306.03 213.87 L 300.80 218.96 L 295.55 224.11 L 290.28 229.31 L 285.01 234.56 L 279.73 239.82 L 274.45 245.10 L 269.17 250.39 L 263.89 255.65 L 258.62 260.89 L 253.35 266.10 L 248.10 271.25 L 242.87 276.34 L 237.65 281.36 L 232.46 286.29 L 227.29 291.12 L 222.15 295.83 L 217.05 300.43 L 211.97 304.89 L 206.94 309.21 L 201.94 313.37 L 192.09 321.20 L 182.43 328.29 L 172.99 334.58 L 163.80 340.01 L 154.88 344.53 L 146.24 348.08 L 137.91 350.65 L 129.91 352.20 L 122.26 352.72 L 114.98 352.20 L 108.08 350.65 L 101.58 348.08 L 95.496 344.53 L 89.844 340.01 L 84.637 334.58 L 79.888 328.29 L 75.607 321.20 L 71.805 313.37 L 68.491 304.89 L 65.674 295.83 L 63.359 286.29 L 61.553 276.34 L 60.842 271.25 L 60.260 266.10 L 59.807 260.89 L 59.483 255.65 L 59.289 250.39 L 59.224 245.10 L 59.289 239.82 L 59.483 234.56 L 59.807 229.31 L 60.260 224.11 L 60.842 218.96 L 61.553 213.87 L 63.359 203.92 L 65.674 194.38 L 68.491 185.32 L 71.805 176.84 L 75.607 169.01 L 79.888 161.92 L 84.637 155.63 L 89.844 150.20 L 95.496 145.68 L 101.58 142.13 L 108.08 139.56 L 114.98 138.01 L 122.26 137.49 L 129.91 138.01 L 137.91 139.56 L 146.24 142.13 L 154.88 145.68 L 163.80 150.20 L 172.99 155.63 L 182.43 161.92 L 192.09 169.01 L 201.94 176.84 L 206.94 181.00 L 211.97 185.32 L 217.05 189.78 L 222.15 194.38 L 227.29 199.09 L 232.46 203.92 L 237.65 208.85 L 242.87 213.87 L 248.10 218.96 L 253.35 224.11 L 258.62 229.31 L 263.89 234.56 L 269.17 239.82 L 274.45 245.10 L 279.73 250.39 L 285.01 255.65 L 290.28 260.89 L 295.55 266.10 L 300.80 271.25 L 306.03 276.34 L 311.24 281.36 L 316.44 286.29 L 321.61 291.12 L 326.74 295.83 L 331.85 300.43 L 336.93 304.89 L 341.96 309.21 L 346.96 313.37 L 356.81 321.20 L 366.47 328.29 L 375.91 334.58 L 385.10 340.01 L 394.02 344.53 L 402.66 348.08 L 410.99 350.65 L 418.99 352.20 L 426.64 352.72 L 433.92 352.20 L 440.82 350.65 L 447.32 348.08 L 453.40 344.53 L 459.05 340.01 L 464.26 334.58 L 469.01 328.29 L 473.29 321.20 L 477.09 313.37 L 480.41 304.89 L 483.22 295.83 L 485.54 286.29 L 487.35 276.34 L 488.06 271.25 L 488.64 266.10 L 489.09 260.89 L 489.42 255.65 L 489.61 250.39 L 489.67 245.10" />
          <title id="title55">Curve c2</title>
          <desc id="desc57">Curve c2: Curve[2cos(t), sin(2t), t, 0, 2Ã&#143;Â&#128;]</desc>
        </g>
      </g>
    </g>
  </g>
</svg>