<?xml version='1.0' ?><svg xmlns:dc="http://purl.org/dc/elements/1.1/" xmlns:cc="http://creativecommons.org/ns#" xmlns:rdf="http://www.w3.org/1999/02/22-rdf-syntax-ns#" xmlns:svg="http://www.w3.org/2000/svg" xmlns="http://www.w3.org/2000/svg" id="svg2" version="1.1" width="249.13793" height="202.15518" viewBox="0.0 0.44999207199999997 577.9999976 469.0000176" preserveAspectRatio="none">
  <metadata id="metadata63">
    <rdf:RDF>
      <cc:Work rdf:about="">
        <dc:format>image/svg+xml</dc:format>
        <dc:type rdf:resource="http://purl.org/dc/dcmitype/StillImage" />
      </cc:Work>
    </rdf:RDF>
  </metadata>
  <defs id="defs61" />
  <title id="title4" />
  <g id="g6" stroke-linecap="square" stroke-miterlimit="10.000" stroke-width="1.0000" stroke-dasharray="none" stroke-dashoffset="0.0000" stroke-linejoin="miter">
    <clipPath id="clip1">
      <path id="path9" d="M 0.0000 0.0000 L 0.0000 469.00 L 580.00 469.00 L 580.00 0.0000 z" />
    </clipPath>
    <g id="g11" clip-path="url(#clip1)">
      <g id="g13" stroke="#000000" stroke-opacity="1.0000" fill="none" stroke-linecap="butt" stroke-width="2.0000">
        <path id="path15" d="M 152.25 3.0000 L 152.25 469.00" />
      </g>
    </g>
    <clipPath id="clip2">
      <path id="path18" d="M 0.0000 0.0000 L 0.0000 469.00 L 580.00 469.00 L 580.00 0.0000 z" />
    </clipPath>
    <g id="g20" clip-path="url(#clip2)">
      <g id="g22" fill="#000000" stroke="none" fill-rule="evenodd" fill-opacity="1.0000">
        <path id="path24" d="M 152.25 2.0000 L 147.25 22.000 L 157.25 22.000" />
      </g>
    </g>
    <clipPath id="clip3">
      <path id="path27" d="M 0.0000 0.0000 L 0.0000 469.00 L 580.00 469.00 L 580.00 0.0000 z" />
    </clipPath>
    <g id="g29" clip-path="url(#clip3)">
      <g id="g31" stroke="#000000" stroke-opacity="1.0000" fill="none" stroke-linecap="butt" stroke-width="2.0000">
        <path id="path33" d="M 0.0000 229.03 L 577.00 229.03" />
      </g>
    </g>
    <clipPath id="clip4">
      <path id="path36" d="M 0.0000 0.0000 L 0.0000 469.00 L 580.00 469.00 L 580.00 0.0000 z" />
    </clipPath>
    <g id="g38" clip-path="url(#clip4)">
      <g id="g40" fill="#000000" stroke="none" fill-rule="evenodd" fill-opacity="1.0000">
        <path id="path42" d="M 578.00 229.03 L 558.00 224.03 L 558.00 234.03" />
      </g>
    </g>
    <g id="misc" />
    <g id="layer0">
      <clipPath id="clip5">
        <path id="path47" d="M 0.0000 0.0000 L 0.0000 469.00 L 580.00 469.00 L 580.00 0.0000 z" />
      </clipPath>
      <g id="g49" clip-path="url(#clip5)">
        <g id="g51" stroke="#000000" stroke-opacity="1.0000" fill="none" stroke-linecap="round" stroke-width="2.0000" stroke-linejoin="round">
          <path id="path53" d="M 387.19 477.55 L 385.42 472.05 L 383.67 466.60 L 381.92 461.21 L 380.17 455.87 L 378.44 450.57 L 376.71 445.33 L 374.98 440.14 L 373.27 435.00 L 371.56 429.91 L 369.85 424.87 L 366.47 414.94 L 363.11 405.21 L 359.77 395.67 L 356.47 386.33 L 353.18 377.18 L 349.93 368.22 L 346.70 359.45 L 343.50 350.87 L 340.33 342.48 L 337.18 334.27 L 334.06 326.25 L 330.96 318.41 L 327.90 310.75 L 324.86 303.26 L 321.84 295.96 L 318.85 288.83 L 315.89 281.87 L 312.96 275.09 L 310.05 268.48 L 307.16 262.04 L 304.31 255.77 L 301.48 249.66 L 298.68 243.72 L 295.90 237.94 L 293.15 232.32 L 290.43 226.87 L 287.73 221.57 L 285.06 216.43 L 279.80 206.61 L 274.65 197.41 L 269.60 188.80 L 264.66 180.78 L 259.83 173.33 L 255.10 166.44 L 250.48 160.10 L 245.96 154.30 L 241.55 149.01 L 237.25 144.24 L 228.96 136.18 L 221.10 130.01 L 213.66 125.63 L 206.65 122.95 L 203.30 122.21 L 200.06 121.86 L 193.90 122.26 L 192.43 122.59 L 190.98 122.99 L 188.16 124.06 L 182.85 127.16 L 180.35 129.16 L 177.96 131.45 L 173.50 136.83 L 169.46 143.21 L 165.85 150.49 L 162.66 158.56 L 159.90 167.34 L 157.56 176.70 L 155.65 186.57 L 154.85 191.66 L 154.16 196.84 L 153.58 202.09 L 153.10 207.40 L 152.73 212.77 L 152.46 218.17 L 152.30 223.59 L 152.25 229.03 L 152.30 234.47 L 152.46 239.89 L 152.73 245.29 L 153.10 250.66 L 153.58 255.97 L 154.16 261.22 L 154.85 266.40 L 155.65 271.49 L 157.56 281.36 L 159.90 290.72 L 162.66 299.50 L 165.85 307.57 L 169.46 314.85 L 173.50 321.23 L 177.96 326.61 L 182.85 330.90 L 185.45 332.61 L 188.16 334.00 L 193.90 335.80 L 195.40 336.03 L 196.93 336.18 L 200.06 336.20 L 206.65 335.11 L 210.10 333.97 L 213.66 332.43 L 221.10 328.05 L 228.96 321.88 L 237.25 313.82 L 241.55 309.05 L 245.96 303.76 L 250.48 297.96 L 255.10 291.62 L 259.83 284.73 L 264.66 277.28 L 269.60 269.26 L 274.65 260.65 L 279.80 251.45 L 285.06 241.63 L 287.73 236.49 L 290.43 231.19 L 293.15 225.74 L 295.90 220.12 L 298.68 214.34 L 301.48 208.40 L 304.31 202.29 L 307.16 196.02 L 310.05 189.58 L 312.96 182.97 L 315.89 176.19 L 318.85 169.23 L 321.84 162.10 L 324.86 154.80 L 327.90 147.31 L 330.96 139.65 L 334.06 131.81 L 337.18 123.79 L 340.33 115.58 L 343.50 107.19 L 346.70 98.607 L 349.93 89.838 L 353.18 80.880 L 356.47 71.731 L 359.77 62.388 L 363.11 52.851 L 366.47 43.118 L 369.85 33.188 L 371.56 28.148 L 373.27 23.058 L 374.98 17.917 L 376.71 12.727 L 378.44 7.4857 L 380.17 2.1938 L 381.92 -3.1492 L 383.67 -8.5432" />
          <title id="title55">Curve c3</title>
          <desc id="desc57">Curve c3: Curve[tÃ&#130;Â², tÃ&#130;Â³ - 4t, t, -5, 5]</desc>
        </g>
      </g>
    </g>
  </g>
</svg>