<?xml version='1.0' ?><svg xmlns:ns0="http://www.iki.fi/pav/software/textext/" xmlns:dc="http://purl.org/dc/elements/1.1/" xmlns:cc="http://creativecommons.org/ns#" xmlns:rdf="http://www.w3.org/1999/02/22-rdf-syntax-ns#" xmlns:svg="http://www.w3.org/2000/svg" xmlns="http://www.w3.org/2000/svg" id="svg2" version="1.1" width="358.46085" height="113.5556" viewBox="34.90705965909091 36.03860269360272 565.7526041666667 179.22285353535355" preserveAspectRatio="none">
  <metadata id="metadata196">
    <rdf:RDF>
      <cc:Work rdf:about="">
        <dc:format>image/svg+xml</dc:format>
        <dc:type rdf:resource="http://purl.org/dc/dcmitype/StillImage" />
      </cc:Work>
    </rdf:RDF>
  </metadata>
  <defs id="defs194" />
  <title id="title4" />
  <g style="stroke-width:1;stroke-linecap:square;stroke-linejoin:miter;stroke-miterlimit:10;stroke-dasharray:none;stroke-dashoffset:0" id="g6" stroke-miterlimit="10.000">
    <g id="misc" />
    <g id="layer0">
      <clipPath id="clip1">
        <path id="path11" d="m 0,0 0,237 625,0 0,-237 z" />
      </clipPath>
      <g id="g13" clip-path="url(#clip1)">
        <g style="fill:#ff00ff;fill-opacity:0.47843;fill-rule:evenodd;stroke:none" id="g15">
          <path id="path17" d="m 35.907,173.78 338.253,0 L 103.04,36.545 Z" />
          <title id="title19">Triangle poly1</title>
          <desc id="desc21">Triangle poly1: Polygon A, B, D</desc>
        </g>
        <g id="layer1" />
      </g>
      <clipPath id="clip2">
        <path id="path24" d="m 0,0 0,237 625,0 0,-237 z" />
      </clipPath>
      <g id="g26" clip-path="url(#clip2)">
        <g style="fill:#0000ff;fill-opacity:0.49803999;fill-rule:evenodd;stroke:none" id="g28">
          <path id="path30" d="m 430.53,173.78 169.13,0 -135.08,-66.42 z" />
          <title id="title32">Triangle poly2</title>
          <desc id="desc34">Triangle poly2: Polygon E, F, G</desc>
        </g>
      </g>
      <clipPath id="clip3">
        <path id="path37" d="m 0,0 0,237 625,0 0,-237 z" />
      </clipPath>
      <g id="g39" clip-path="url(#clip3)">
        <g style="fill:none;stroke:#202020;stroke-width:2;stroke-linecap:round;stroke-linejoin:round;stroke-opacity:1" id="g41">
          <path id="path43" d="m 347.39,160.23 c -2.12,4.2 -3.23,8.84 -3.23,13.55 l 30,0 z" />
          <title id="title45">Angle Ã&#131;Â&#142;Ã&#130;Â±</title>
          <desc id="desc47">Angle Ã&#131;Â&#142;Ã&#130;Â±: Angle between D, B, A</desc>
        </g>
      </g>
      <clipPath id="clip4">
        <path id="path50" d="m 0,0 0,237 625,0 0,-237 z" />
      </clipPath>
      <g id="g52" clip-path="url(#clip4)">
        <g style="fill:none;stroke:#202020;stroke-width:2;stroke-linecap:round;stroke-linejoin:round;stroke-opacity:1" id="g54">
          <path id="path56" d="m 572.74,160.54 c -2.03,4.12 -3.08,8.65 -3.08,13.24 l 30,0 z" />
          <title id="title58">Angle Ã&#131;Â&#142;Ã&#130;Â²</title>
          <desc id="desc60">Angle Ã&#131;Â&#142;Ã&#130;Â²: Angle between G, F, E</desc>
        </g>
      </g>
      <clipPath id="clip5">
        <path id="path63" d="m 0,0 0,237 625,0 0,-237 z" />
      </clipPath>
      <g id="g65" clip-path="url(#clip5)">
        <g style="fill:none;stroke:#202020;stroke-width:2;stroke-linecap:round;stroke-linejoin:round;stroke-opacity:1" id="g67">
          <path id="path69" d="m 65.907,173.78 c 0,-11.46 -6.525,-21.92 -16.817,-26.95 l -13.183,26.95 z" />
          <title id="title71">Angle Ã&#131;Â&#142;Ã&#130;Â³</title>
          <desc id="desc73">Angle Ã&#131;Â&#142;Ã&#130;Â³: Angle between B, A, D</desc>
        </g>
      </g>
      <clipPath id="clip6">
        <path id="path76" d="m 0,0 0,237 625,0 0,-237 z" />
      </clipPath>
      <g id="g78" clip-path="url(#clip6)">
        <g style="fill:none;stroke:#202020;stroke-width:2;stroke-linecap:round;stroke-linejoin:round;stroke-opacity:1" id="g80">
          <path id="path82" d="m 59.907,173.78 c 0,-9.17 -5.22,-17.54 -13.454,-21.56" />
          <title id="title84">Angle Ã&#131;Â&#142;Ã&#130;Â³</title>
          <desc id="desc86">Angle Ã&#131;Â&#142;Ã&#130;Â³: Angle between B, A, D</desc>
        </g>
      </g>
      <clipPath id="clip7">
        <path id="path89" d="m 0,0 0,237 625,0 0,-237 z" />
      </clipPath>
      <g id="g91" clip-path="url(#clip7)">
        <g style="fill:none;stroke:#202020;stroke-width:2;stroke-linecap:round;stroke-linejoin:round;stroke-opacity:1" id="g93">
          <path id="path95" d="m 460.53,173.78 c 0,-11.26 -6.3,-21.57 -16.31,-26.7 l -13.69,26.7 z" />
          <title id="title97">Angle Ã&#131;Â&#142;Ã&#130;Â´</title>
          <desc id="desc99">Angle Ã&#131;Â&#142;Ã&#130;Â´: Angle between F, E, G</desc>
        </g>
      </g>
      <clipPath id="clip8">
        <path id="path102" d="m 0,0 0,237 625,0 0,-237 z" />
      </clipPath>
      <g id="g104" clip-path="url(#clip8)">
        <g style="fill:none;stroke:#202020;stroke-width:2;stroke-linecap:round;stroke-linejoin:round;stroke-opacity:1" id="g106">
          <path id="path108" d="m 454.53,173.78 c 0,-9.01 -5.04,-17.25 -13.05,-21.36" />
          <title id="title110">Angle Ã&#131;Â&#142;Ã&#130;Â´</title>
          <desc id="desc112">Angle Ã&#131;Â&#142;Ã&#130;Â´: Angle between F, E, G</desc>
        </g>
      </g>
      <clipPath id="clip9">
        <path id="path115" d="m 0,0 0,237 625,0 0,-237 z" />
      </clipPath>
      <g id="g117" clip-path="url(#clip9)">
        <g style="fill:none;stroke:#ff00ff;stroke-linecap:round;stroke-linejoin:round;stroke-opacity:1" id="g119">
          <path id="path121" d="m 35.907,173.78 338.253,0" />
          <title id="title123">Segment d</title>
          <desc id="desc125">Segment d: Segment [A, B] of Triangle poly1</desc>
        </g>
      </g>
      <clipPath id="clip10">
        <path id="path128" d="m 0,0 0,237 625,0 0,-237 z" />
      </clipPath>
      <g id="g130" clip-path="url(#clip10)">
        <g style="fill:none;stroke:#ff00ff;stroke-linecap:round;stroke-linejoin:round;stroke-opacity:1" id="g132">
          <path id="path134" d="M 374.16,173.78 103.04,36.545" />
          <title id="title136">Segment a</title>
          <desc id="desc138">Segment a: Segment [B, D] of Triangle poly1</desc>
        </g>
      </g>
      <clipPath id="clip11">
        <path id="path141" d="m 0,0 0,237 625,0 0,-237 z" />
      </clipPath>
      <g id="g143" clip-path="url(#clip11)">
        <g style="fill:none;stroke:#ff00ff;stroke-linecap:round;stroke-linejoin:round;stroke-opacity:1" id="g145">
          <path id="path147" d="M 103.04,36.545 35.907,173.78" />
          <title id="title149">Segment b</title>
          <desc id="desc151">Segment b: Segment [D, A] of Triangle poly1</desc>
        </g>
      </g>
      <clipPath id="clip12">
        <path id="path154" d="m 0,0 0,237 625,0 0,-237 z" />
      </clipPath>
      <g id="g156" clip-path="url(#clip12)">
        <g style="fill:none;stroke:#0000ff;stroke-linecap:round;stroke-linejoin:round;stroke-opacity:1" id="g158">
          <path id="path160" d="m 430.53,173.78 169.13,0" />
          <title id="title162">Segment g</title>
          <desc id="desc164">Segment g: Segment [E, F] of Triangle poly2</desc>
        </g>
      </g>
      <clipPath id="clip13">
        <path id="path167" d="m 0,0 0,237 625,0 0,-237 z" />
      </clipPath>
      <g id="g169" clip-path="url(#clip13)">
        <g style="fill:none;stroke:#0000ff;stroke-linecap:round;stroke-linejoin:round;stroke-opacity:1" id="g171">
          <path id="path173" d="M 599.66,173.78 464.58,107.36" />
          <title id="title175">Segment e</title>
          <desc id="desc177">Segment e: Segment [F, G] of Triangle poly2</desc>
        </g>
      </g>
      <clipPath id="clip14">
        <path id="path180" d="m 0,0 0,237 625,0 0,-237 z" />
      </clipPath>
      <g id="g182" clip-path="url(#clip14)">
        <g style="fill:none;stroke:#0000ff;stroke-linecap:round;stroke-linejoin:round;stroke-opacity:1" id="g184">
          <path id="path186" d="m 464.58,107.36 -34.05,66.42" />
          <title id="title188">Segment f</title>
          <desc id="desc190">Segment f: Segment [G, E] of Triangle poly2</desc>
        </g>
      </g>
    </g>
  </g>
  <g id="layer2">
    <path id="path3969" d="m 99.333828,44.606056 7.910542,3.955273 4.18129,-7.910544 0,0" style="fill:none;fill-rule:evenodd;stroke:#000000;stroke-width:1.68350172px;stroke-linecap:butt;stroke-linejoin:miter;stroke-opacity:1" />
    <path id="path3969-3" d="m 460.72382,115.09633 7.91054,3.95527 4.18129,-7.91054 0,0" style="fill:none;fill-rule:evenodd;stroke:#000000;stroke-width:1.68350172px;stroke-linecap:butt;stroke-linejoin:miter;stroke-opacity:1" />
  </g>
  <g ns0:preamble="/Users/ABaker/cmep/Inkscape/underground-inkscape-preamble.tex" ns0:text="$1$\n" word-spacing="normal" letter-spacing="normal" font-size-adjust="none" font-stretch="normal" font-weight="normal" font-variant="normal" font-style="normal" stroke-miterlimit="10.433" xml:space="preserve" transform="matrix(2.5,0,0,-2.5,-373.42483,1399.3842)" id="content" style="font-style:normal;font-variant:normal;font-weight:normal;font-stretch:normal;letter-spacing:normal;word-spacing:normal;text-anchor:start;fill:none;fill-opacity:1;fill-rule:evenodd;stroke:#000000;stroke-linecap:butt;stroke-linejoin:miter;stroke-miterlimit:10.43299961;stroke-dasharray:none;stroke-dashoffset:0;stroke-opacity:1"><path id="path3631" d="m 228.08,477.23 0,0.18 c -0.88,0 -1.12,0.21 -1.12,0.72 l 0,7.05 -0.1,0.04 -2.12,-1.08 0,-0.16 0.32,0.11 c 0.21,0.09 0.41,0.15 0.53,0.15 0.25,0 0.36,-0.18 0.36,-0.58 l 0,-5.3 c 0,-0.65 -0.25,-0.9 -1.13,-0.95 l 0,-0.18 z" style="fill:#000000;stroke-width:0" /></g>  <g style="font-style:normal;font-variant:normal;font-weight:normal;font-stretch:normal;letter-spacing:normal;word-spacing:normal;text-anchor:start;fill:none;fill-opacity:1;fill-rule:evenodd;stroke:#000000;stroke-linecap:butt;stroke-linejoin:miter;stroke-miterlimit:10.43299961;stroke-dasharray:none;stroke-dashoffset:0;stroke-opacity:1" id="g3847" transform="matrix(1.744108,0,0,-1.744108,117.28397,1027.3007)" xml:space="preserve" stroke-miterlimit="10.433" font-style="normal" font-variant="normal" font-weight="normal" font-stretch="normal" font-size-adjust="none" letter-spacing="normal" word-spacing="normal" ns0:text="$\\dfrac{1}{2}$\n" ns0:preamble="/Users/ABaker/cmep/Inkscape/underground-inkscape-preamble.tex"><path style="fill:#000000;stroke-width:0" d="m 229.28,479.19 0,0.18 c -0.89,0 -1.12,0.21 -1.12,0.72 l 0,7.04 -0.11,0.04 -2.11,-1.07 0,-0.17 0.32,0.12 c 0.21,0.08 0.41,0.14 0.53,0.14 0.25,0 0.35,-0.18 0.35,-0.58 l 0,-5.3 c 0,-0.65 -0.24,-0.9 -1.12,-0.94 l 0,-0.18 z" id="path3849" /><line style="stroke-width:0.65799999" x1="224.63" y1="475.89999" x2="230.55" y2="475.89999" id="line3851" /><path style="fill:#000000;stroke-width:0" d="m 230.22,467.21 -0.16,0.07 c -0.39,-0.66 -0.64,-0.79 -1.13,-0.79 l -2.77,0 1.95,2.08 c 1.05,1.11 1.51,1.99 1.51,2.92 0,1.17 -0.85,2.08 -2.18,2.08 -1.45,0 -2.21,-0.97 -2.46,-2.35 l 0.25,-0.06 c 0.47,1.16 0.89,1.54 1.74,1.54 1,0 1.64,-0.59 1.64,-1.67 0,-1 -0.43,-1.9 -1.54,-3.07 l -2.1,-2.23 0,-0.14 4.62,0 z" id="path3853" /></g></svg>