<?xml version='1.0' ?><svg xmlns:ns0="http://www.iki.fi/pav/software/textext/" xmlns:dc="http://purl.org/dc/elements/1.1/" xmlns:cc="http://creativecommons.org/ns#" xmlns:rdf="http://www.w3.org/1999/02/22-rdf-syntax-ns#" xmlns:svg="http://www.w3.org/2000/svg" xmlns="http://www.w3.org/2000/svg" id="svg2" version="1.1" width="366.98416" height="113.22575" viewBox="22.628879122073577 16.633877127926418 652.6549400668896 201.36385472408028" preserveAspectRatio="none">
  <metadata id="metadata404">
    <rdf:RDF>
      <cc:Work rdf:about="">
        <dc:format>image/svg+xml</dc:format>
        <dc:type rdf:resource="http://purl.org/dc/dcmitype/StillImage" />
      </cc:Work>
    </rdf:RDF>
  </metadata>
  <defs id="defs402" />
  <title id="title4" />
  <g id="g6" stroke-miterlimit="10.000" transform="matrix(0.88036971,0,0,0.88036971,2.7070994,1.9899158)" style="stroke-width:1;stroke-linecap:square;stroke-linejoin:miter;stroke-miterlimit:10;stroke-dasharray:none;stroke-dashoffset:0">
    <g id="misc" />
    <g id="layer0">
      <clipPath id="clip1">
        <path id="path11" d="m 0,0 0,258 709,0 0,-258 z" />
      </clipPath>
      <g id="g13" clip-path="url(#clip1)">
        <g id="g15" style="fill:#7f00ff;fill-opacity:0.33725;fill-rule:evenodd;stroke:none">
          <path id="path17" d="m 23.136,243.84 226.694,0 0,-226.699 -226.694,0 z" />
          <title id="title19">Polygon poly1</title>
          <desc id="desc21">Polygon poly1: Polygon[A, B, 4]</desc>
        </g>
      </g>
      <clipPath id="clip2">
        <path id="path24" d="m 0,0 0,258 709,0 0,-258 z" />
      </clipPath>
      <g id="g26" clip-path="url(#clip2)">
        <g id="g28" style="fill:none;stroke:#7f00ff;stroke-linecap:round;stroke-linejoin:round;stroke-opacity:1">
          <path id="path30" d="m 23.136,243.84 226.694,0 0,-226.699 -226.694,0 z" />
          <title id="title32">Polygon poly1</title>
          <desc id="desc34">Polygon poly1: Polygon[A, B, 4]</desc>
        </g>
      </g>
      <clipPath id="clip3">
        <path id="path37" d="m 0,0 0,258 709,0 0,-258 z" />
      </clipPath>
      <g id="g39" clip-path="url(#clip3)">
        <g id="g41" style="fill:#7f00ff;fill-opacity:0.33725;fill-rule:evenodd;stroke:none">
          <path id="path43" d="m 306.51,243.84 113.35,0 0,-113.35 -113.35,0 z" />
          <title id="title45">Polygon poly2</title>
          <desc id="desc47">Polygon poly2: Polygon[E, F, 4]</desc>
        </g>
      </g>
      <clipPath id="clip4">
        <path id="path50" d="m 0,0 0,258 709,0 0,-258 z" />
      </clipPath>
      <g id="g52" clip-path="url(#clip4)">
        <g id="g54" style="fill:none;stroke:#7f00ff;stroke-linecap:round;stroke-linejoin:round;stroke-opacity:1">
          <path id="path56" d="m 306.51,243.84 113.35,0 0,-113.35 -113.35,0 z" />
          <title id="title58">Polygon poly2</title>
          <desc id="desc60">Polygon poly2: Polygon[E, F, 4]</desc>
        </g>
      </g>
      <clipPath id="clip5">
        <path id="path63" d="m 0,0 0,258 709,0 0,-258 z" />
      </clipPath>
      <g id="g65" clip-path="url(#clip5)">
        <g id="g67" style="fill:#7f00ff;fill-opacity:0.33725;fill-rule:evenodd;stroke:none">
          <path id="path69" d="m 476.53,243.84 56.67,0 0,-56.68 -56.67,0 z" />
          <title id="title71">Polygon poly3</title>
          <desc id="desc73">Polygon poly3: Polygon[I, J, 4]</desc>
        </g>
      </g>
      <clipPath id="clip6">
        <path id="path76" d="m 0,0 0,258 709,0 0,-258 z" />
      </clipPath>
      <g id="g78" clip-path="url(#clip6)">
        <g id="g80" style="fill:none;stroke:#7f00ff;stroke-linecap:round;stroke-linejoin:round;stroke-opacity:1">
          <path id="path82" d="m 476.53,243.84 56.67,0 0,-56.68 -56.67,0 z" />
          <title id="title84">Polygon poly3</title>
          <desc id="desc86">Polygon poly3: Polygon[I, J, 4]</desc>
        </g>
      </g>
      <clipPath id="clip7">
        <path id="path89" d="m 0,0 0,258 709,0 0,-258 z" />
      </clipPath>
      <g id="g91" clip-path="url(#clip7)">
        <g id="g93" style="fill:#7f00ff;fill-opacity:0.33725;fill-rule:evenodd;stroke:none">
          <path id="path95" d="m 589.88,243.84 28.34,0 0,-28.34 -28.34,0 z" />
          <title id="title97">Polygon poly4</title>
          <desc id="desc99">Polygon poly4: Polygon[M, N, 4]</desc>
        </g>
      </g>
      <clipPath id="clip8">
        <path id="path102" d="m 0,0 0,258 709,0 0,-258 z" />
      </clipPath>
      <g id="g104" clip-path="url(#clip8)">
        <g id="g106" style="fill:none;stroke:#7f00ff;stroke-linecap:round;stroke-linejoin:round;stroke-opacity:1">
          <path id="path108" d="m 589.88,243.84 28.34,0 0,-28.34 -28.34,0 z" />
          <title id="title110">Polygon poly4</title>
          <desc id="desc112">Polygon poly4: Polygon[M, N, 4]</desc>
        </g>
      </g>
      <clipPath id="clip9">
        <path id="path115" d="m 0,0 0,258 709,0 0,-258 z" />
      </clipPath>
      <g id="g117" clip-path="url(#clip9)">
        <g id="g119" style="fill:#7f00ff;fill-opacity:0.30980003;fill-rule:evenodd;stroke:none">
          <path id="path121" d="m 674.89,243.84 14.17,0 0,-14.17 -14.17,0 z" />
          <title id="title123">Polygon poly5</title>
          <desc id="desc125">Polygon poly5: Polygon[S, T, 4]</desc>
        </g>
      </g>
      <clipPath id="clip10">
        <path id="path128" d="m 0,0 0,258 709,0 0,-258 z" />
      </clipPath>
      <g id="g130" clip-path="url(#clip10)">
        <g id="g132" style="fill:none;stroke:#7f00ff;stroke-linecap:round;stroke-linejoin:round;stroke-opacity:1">
          <path id="path134" d="m 674.89,243.84 14.17,0 0,-14.17 -14.17,0 z" />
          <title id="title136">Polygon poly5</title>
          <desc id="desc138">Polygon poly5: Polygon[S, T, 4]</desc>
        </g>
      </g>
      <clipPath id="clip11">
        <path id="path141" d="m 0,0 0,258 709,0 0,-258 z" />
      </clipPath>
      <g id="g143" clip-path="url(#clip11)">
        <g id="g145" style="fill:none;stroke:#7f00ff;stroke-linecap:round;stroke-linejoin:round;stroke-opacity:1">
          <path id="path147" d="m 23.136,243.84 226.694,0" />
          <title id="title149">Segment f</title>
          <desc id="desc151">Segment f: Segment [A, B] of Polygon poly1</desc>
        </g>
      </g>
      <clipPath id="clip12">
        <path id="path154" d="m 0,0 0,258 709,0 0,-258 z" />
      </clipPath>
      <g id="g156" clip-path="url(#clip12)">
        <g id="g158" style="fill:none;stroke:#7f00ff;stroke-linecap:round;stroke-linejoin:round;stroke-opacity:1">
          <path id="path160" d="m 249.83,243.84 0,-226.699" />
          <title id="title162">Segment g</title>
          <desc id="desc164">Segment g: Segment [B, C] of Polygon poly1</desc>
        </g>
      </g>
      <clipPath id="clip13">
        <path id="path167" d="m 0,0 0,258 709,0 0,-258 z" />
      </clipPath>
      <g id="g169" clip-path="url(#clip13)">
        <g id="g171" style="fill:none;stroke:#7f00ff;stroke-linecap:round;stroke-linejoin:round;stroke-opacity:1">
          <path id="path173" d="m 249.83,17.141 -226.694,0" />
          <title id="title175">Segment h</title>
          <desc id="desc177">Segment h: Segment [C, D] of Polygon poly1</desc>
        </g>
      </g>
      <clipPath id="clip14">
        <path id="path180" d="m 0,0 0,258 709,0 0,-258 z" />
      </clipPath>
      <g id="g182" clip-path="url(#clip14)">
        <g id="g184" style="fill:none;stroke:#7f00ff;stroke-linecap:round;stroke-linejoin:round;stroke-opacity:1">
          <path id="path186" d="m 23.136,17.141 0,226.699" />
          <title id="title188">Segment i</title>
          <desc id="desc190">Segment i: Segment [D, A] of Polygon poly1</desc>
        </g>
      </g>
      <clipPath id="clip15">
        <path id="path193" d="m 0,0 0,258 709,0 0,-258 z" />
      </clipPath>
      <g id="g195" clip-path="url(#clip15)">
        <g id="g197" style="fill:none;stroke:#7f00ff;stroke-linecap:round;stroke-linejoin:round;stroke-opacity:1">
          <path id="path199" d="m 306.51,243.84 113.35,0" />
          <title id="title201">Segment j</title>
          <desc id="desc203">Segment j: Segment [E, F] of Polygon poly2</desc>
        </g>
      </g>
      <clipPath id="clip16">
        <path id="path206" d="m 0,0 0,258 709,0 0,-258 z" />
      </clipPath>
      <g id="g208" clip-path="url(#clip16)">
        <g id="g210" style="fill:none;stroke:#7f00ff;stroke-linecap:round;stroke-linejoin:round;stroke-opacity:1">
          <path id="path212" d="m 419.86,243.84 0,-113.35" />
          <title id="title214">Segment k</title>
          <desc id="desc216">Segment k: Segment [F, G] of Polygon poly2</desc>
        </g>
      </g>
      <clipPath id="clip17">
        <path id="path219" d="m 0,0 0,258 709,0 0,-258 z" />
      </clipPath>
      <g id="g221" clip-path="url(#clip17)">
        <g id="g223" style="fill:none;stroke:#7f00ff;stroke-linecap:round;stroke-linejoin:round;stroke-opacity:1">
          <path id="path225" d="m 419.86,130.49 -113.35,0" />
          <title id="title227">Segment l</title>
          <desc id="desc229">Segment l: Segment [G, H] of Polygon poly2</desc>
        </g>
      </g>
      <clipPath id="clip18">
        <path id="path232" d="m 0,0 0,258 709,0 0,-258 z" />
      </clipPath>
      <g id="g234" clip-path="url(#clip18)">
        <g id="g236" style="fill:none;stroke:#7f00ff;stroke-linecap:round;stroke-linejoin:round;stroke-opacity:1">
          <path id="path238" d="m 306.51,130.49 0,113.35" />
          <title id="title240">Segment m</title>
          <desc id="desc242">Segment m: Segment [H, E] of Polygon poly2</desc>
        </g>
      </g>
      <clipPath id="clip19">
        <path id="path245" d="m 0,0 0,258 709,0 0,-258 z" />
      </clipPath>
      <g id="g247" clip-path="url(#clip19)">
        <g id="g249" style="fill:none;stroke:#7f00ff;stroke-linecap:round;stroke-linejoin:round;stroke-opacity:1">
          <path id="path251" d="m 476.53,243.84 56.67,0" />
          <title id="title253">Segment n</title>
          <desc id="desc255">Segment n: Segment [I, J] of Polygon poly3</desc>
        </g>
      </g>
      <clipPath id="clip20">
        <path id="path258" d="m 0,0 0,258 709,0 0,-258 z" />
      </clipPath>
      <g id="g260" clip-path="url(#clip20)">
        <g id="g262" style="fill:none;stroke:#7f00ff;stroke-linecap:round;stroke-linejoin:round;stroke-opacity:1">
          <path id="path264" d="m 533.2,243.84 0,-56.68" />
          <title id="title266">Segment p</title>
          <desc id="desc268">Segment p: Segment [J, K] of Polygon poly3</desc>
        </g>
      </g>
      <clipPath id="clip21">
        <path id="path271" d="m 0,0 0,258 709,0 0,-258 z" />
      </clipPath>
      <g id="g273" clip-path="url(#clip21)">
        <g id="g275" style="fill:none;stroke:#7f00ff;stroke-linecap:round;stroke-linejoin:round;stroke-opacity:1">
          <path id="path277" d="m 533.2,187.16 -56.67,0" />
          <title id="title279">Segment q</title>
          <desc id="desc281">Segment q: Segment [K, L] of Polygon poly3</desc>
        </g>
      </g>
      <clipPath id="clip22">
        <path id="path284" d="m 0,0 0,258 709,0 0,-258 z" />
      </clipPath>
      <g id="g286" clip-path="url(#clip22)">
        <g id="g288" style="fill:none;stroke:#7f00ff;stroke-linecap:round;stroke-linejoin:round;stroke-opacity:1">
          <path id="path290" d="m 476.53,187.16 0,56.68" />
          <title id="title292">Segment r</title>
          <desc id="desc294">Segment r: Segment [L, I] of Polygon poly3</desc>
        </g>
      </g>
      <clipPath id="clip23">
        <path id="path297" d="m 0,0 0,258 709,0 0,-258 z" />
      </clipPath>
      <g id="g299" clip-path="url(#clip23)">
        <g id="g301" style="fill:none;stroke:#7f00ff;stroke-linecap:round;stroke-linejoin:round;stroke-opacity:1">
          <path id="path303" d="m 589.88,243.84 28.34,0" />
          <title id="title305">Segment s</title>
          <desc id="desc307">Segment s: Segment [M, N] of Polygon poly4</desc>
        </g>
      </g>
      <clipPath id="clip24">
        <path id="path310" d="m 0,0 0,258 709,0 0,-258 z" />
      </clipPath>
      <g id="g312" clip-path="url(#clip24)">
        <g id="g314" style="fill:none;stroke:#7f00ff;stroke-linecap:round;stroke-linejoin:round;stroke-opacity:1">
          <path id="path316" d="m 618.22,243.84 0,-28.34" />
          <title id="title318">Segment t</title>
          <desc id="desc320">Segment t: Segment [N, O] of Polygon poly4</desc>
        </g>
      </g>
      <clipPath id="clip25">
        <path id="path323" d="m 0,0 0,258 709,0 0,-258 z" />
      </clipPath>
      <g id="g325" clip-path="url(#clip25)">
        <g id="g327" style="fill:none;stroke:#7f00ff;stroke-linecap:round;stroke-linejoin:round;stroke-opacity:1">
          <path id="path329" d="m 618.22,215.5 -28.34,0" />
          <title id="title331">Segment a</title>
          <desc id="desc333">Segment a: Segment [O, P] of Polygon poly4</desc>
        </g>
      </g>
      <clipPath id="clip26">
        <path id="path336" d="m 0,0 0,258 709,0 0,-258 z" />
      </clipPath>
      <g id="g338" clip-path="url(#clip26)">
        <g id="g340" style="fill:none;stroke:#7f00ff;stroke-linecap:round;stroke-linejoin:round;stroke-opacity:1">
          <path id="path342" d="m 589.88,215.5 0,28.34" />
          <title id="title344">Segment b</title>
          <desc id="desc346">Segment b: Segment [P, M] of Polygon poly4</desc>
        </g>
      </g>
      <clipPath id="clip27">
        <path id="path349" d="m 0,0 0,258 709,0 0,-258 z" />
      </clipPath>
      <g id="g351" clip-path="url(#clip27)">
        <g id="g353" style="fill:none;stroke:#7f00ff;stroke-linecap:round;stroke-linejoin:round;stroke-opacity:1">
          <path id="path355" d="m 674.89,243.84 14.17,0" />
          <title id="title357">Segment c</title>
          <desc id="desc359">Segment c: Segment [S, T] of Polygon poly5</desc>
        </g>
      </g>
      <clipPath id="clip28">
        <path id="path362" d="m 0,0 0,258 709,0 0,-258 z" />
      </clipPath>
      <g id="g364" clip-path="url(#clip28)">
        <g id="g366" style="fill:none;stroke:#7f00ff;stroke-linecap:round;stroke-linejoin:round;stroke-opacity:1">
          <path id="path368" d="m 689.06,243.84 0,-14.17" />
          <title id="title370">Segment d</title>
          <desc id="desc372">Segment d: Segment [T, U] of Polygon poly5</desc>
        </g>
      </g>
      <clipPath id="clip29">
        <path id="path375" d="m 0,0 0,258 709,0 0,-258 z" />
      </clipPath>
      <g id="g377" clip-path="url(#clip29)">
        <g id="g379" style="fill:none;stroke:#7f00ff;stroke-linecap:round;stroke-linejoin:round;stroke-opacity:1">
          <path id="path381" d="m 689.06,229.67 -14.17,0" />
          <title id="title383">Segment e</title>
          <desc id="desc385">Segment e: Segment [U, V] of Polygon poly5</desc>
        </g>
      </g>
      <clipPath id="clip30">
        <path id="path388" d="m 0,0 0,258 709,0 0,-258 z" />
      </clipPath>
      <g id="g390" clip-path="url(#clip30)">
        <g id="g392" style="fill:none;stroke:#7f00ff;stroke-linecap:round;stroke-linejoin:round;stroke-opacity:1">
          <path id="path394" d="m 674.89,229.67 0,14.17" />
          <title id="title396">Segment f_1</title>
          <desc id="desc398">Segment f_1: Segment [V, S] of Polygon poly5</desc>
        </g>
      </g>
    </g>
  </g>
  <g ns0:preamble="/Users/ABaker/cmep/Inkscape/underground-inkscape-preamble.tex" ns0:text="$\\dfrac{1}{4}$\n" word-spacing="normal" letter-spacing="normal" font-size-adjust="none" font-stretch="normal" font-weight="normal" font-variant="normal" font-style="normal" stroke-miterlimit="10.433" xml:space="preserve" transform="matrix(2.2009243,0,0,-2.2009243,-379.58843,1135.8756)" id="content" style="font-style:normal;font-variant:normal;font-weight:normal;font-stretch:normal;letter-spacing:normal;word-spacing:normal;text-anchor:start;fill:none;fill-opacity:1;fill-rule:evenodd;stroke:#000000;stroke-linecap:butt;stroke-linejoin:miter;stroke-miterlimit:10.43299961;stroke-dasharray:none;stroke-dashoffset:0;stroke-opacity:1"><path id="path3951" d="m 229.28,479.19 0,0.18 c -0.89,0 -1.12,0.21 -1.12,0.72 l 0,7.04 -0.11,0.04 -2.11,-1.07 0,-0.17 0.32,0.12 c 0.21,0.08 0.41,0.14 0.53,0.14 0.25,0 0.35,-0.18 0.35,-0.58 l 0,-5.3 c 0,-0.65 -0.24,-0.9 -1.12,-0.94 l 0,-0.18 z" style="fill:#000000;stroke-width:0" /><line id="line3953" y2="475.89999" x2="230.55" y1="475.89999" x1="224.63" style="stroke-width:0.65799999" /><polygon id="polygon3955" points="228.48,473.57 224.77,468.32 225.24,468.32 228.07,472.37 228.07,468.32 225.24,468.32 224.77,468.32 224.77,467.56 228.07,467.56 228.07,465.59 229,465.59 229,467.56 230.21,467.56 230.21,468.32 229,468.32 229,473.57 " style="fill:#000000;stroke-width:0" /></g>  <g style="font-style:normal;font-variant:normal;font-weight:normal;font-stretch:normal;letter-spacing:normal;word-spacing:normal;text-anchor:start;fill:none;fill-opacity:1;fill-rule:evenodd;stroke:#000000;stroke-linecap:butt;stroke-linejoin:miter;stroke-miterlimit:10.43299961;stroke-dasharray:none;stroke-dashoffset:0;stroke-opacity:1" id="g4399" transform="matrix(2.2009243,0,0,-2.2009243,-187.51556,1134.7695)" xml:space="preserve" stroke-miterlimit="10.433" font-style="normal" font-variant="normal" font-weight="normal" font-stretch="normal" font-size-adjust="none" letter-spacing="normal" word-spacing="normal" ns0:text="$\\dfrac{1}{16}$" ns0:preamble="/Users/ABaker/cmep/Inkscape/underground-inkscape-preamble.tex"><path style="fill:#000000;stroke-width:0" d="m 232.24,479.19 0,0.18 c -0.88,0 -1.12,0.21 -1.12,0.72 l 0,7.04 -0.11,0.04 -2.11,-1.07 0,-0.17 0.32,0.12 c 0.21,0.08 0.41,0.14 0.53,0.14 0.25,0 0.35,-0.18 0.35,-0.58 l 0,-5.3 c 0,-0.65 -0.24,-0.9 -1.12,-0.94 l 0,-0.18 z" id="path4401" /><line style="stroke-width:0.65799999" x1="224.63" y1="475.89999" x2="236.48" y2="475.89999" id="line4403" /><path style="fill:#000000;stroke-width:0" d="m 229.28,465.5 0,0.17 c -0.89,0 -1.12,0.22 -1.12,0.72 l 0,7.05 -0.11,0.04 -2.11,-1.08 0,-0.16 0.32,0.12 c 0.21,0.08 0.41,0.14 0.53,0.14 0.25,0 0.35,-0.18 0.35,-0.58 l 0,-5.3 c 0,-0.65 -0.24,-0.9 -1.12,-0.95 l 0,-0.17 z" id="path4405" /><path style="fill:#000000;stroke-width:0" d="m 235.82,473.57 -0.15,-0.02 -0.15,-0.01 -0.14,-0.02 -0.14,-0.02 -0.14,-0.02 -0.13,-0.02 -0.13,-0.03 -0.13,-0.02 -0.12,-0.03 -0.12,-0.03 -0.12,-0.03 -0.11,-0.03 -0.12,-0.03 -0.11,-0.04 -0.1,-0.04 -0.11,-0.04 -0.11,-0.04 -0.1,-0.05 -0.1,-0.05 -0.1,-0.05 -0.1,-0.05 -0.1,-0.06 -0.1,-0.07 -0.09,-0.06 -0.1,-0.07 -0.09,-0.07 -0.1,-0.08 -0.09,-0.08 -0.1,-0.08 -0.09,-0.09 -0.09,-0.09 -0.1,-0.1 c -0.84,-0.86 -1.29,-1.98 -1.29,-3.26 0,-0.83 0.23,-1.67 0.56,-2.27 0.41,-0.75 1.15,-1.19 2.09,-1.19 l 0.13,0.33 c -1.11,0 -1.68,1.18 -1.68,2.98 0,1.08 0.7,1.37 1.37,1.37 1.1,0 1.59,-0.78 1.59,-2.29 l 0,0 c 0,-1.21 -0.43,-2.06 -1.28,-2.06 l -0.13,-0.33 c 0.78,0 1.44,0.32 1.88,0.86 0.39,0.48 0.6,1.14 0.6,1.89 0,1.52 -0.85,2.47 -2.23,2.47 -0.52,0 -0.92,-0.08 -1.5,-0.53 0.31,1.78 1.64,3.06 3.49,3.36 z" id="path4407" /></g>  <g ns0:preamble="/Users/ABaker/cmep/Inkscape/underground-inkscape-preamble.tex" ns0:text="$\\dfrac{1}{64}$" word-spacing="normal" letter-spacing="normal" font-size-adjust="none" font-stretch="normal" font-weight="normal" font-variant="normal" font-style="normal" stroke-miterlimit="10.433" xml:space="preserve" transform="matrix(2.2009243,0,0,-2.2009243,-63.337762,1135.2799)" id="g4861" style="font-style:normal;font-variant:normal;font-weight:normal;font-stretch:normal;letter-spacing:normal;word-spacing:normal;text-anchor:start;fill:none;fill-opacity:1;fill-rule:evenodd;stroke:#000000;stroke-linecap:butt;stroke-linejoin:miter;stroke-miterlimit:10.43299961;stroke-dasharray:none;stroke-dashoffset:0;stroke-opacity:1"><path id="path4863" d="m 232.24,479.19 0,0.18 c -0.88,0 -1.12,0.21 -1.12,0.72 l 0,7.04 -0.11,0.04 -2.11,-1.07 0,-0.17 0.32,0.12 c 0.21,0.08 0.41,0.14 0.53,0.14 0.25,0 0.35,-0.18 0.35,-0.58 l 0,-5.3 c 0,-0.65 -0.24,-0.9 -1.12,-0.94 l 0,-0.18 z" style="fill:#000000;stroke-width:0" /><line id="line4865" y2="475.89999" x2="236.48" y1="475.89999" x1="224.63" style="stroke-width:0.65799999" /><path id="path4867" d="m 229.89,473.57 -0.15,-0.02 -0.14,-0.01 -0.15,-0.02 -0.14,-0.02 -0.13,-0.02 -0.13,-0.02 -0.13,-0.03 -0.13,-0.02 -0.12,-0.03 -0.12,-0.03 -0.12,-0.03 -0.12,-0.03 -0.11,-0.03 -0.11,-0.04 -0.11,-0.04 -0.11,-0.04 -0.1,-0.04 -0.1,-0.05 -0.1,-0.05 -0.11,-0.05 -0.09,-0.05 -0.1,-0.06 -0.1,-0.07 -0.1,-0.06 -0.09,-0.07 -0.1,-0.07 -0.09,-0.08 -0.1,-0.08 -0.09,-0.08 -0.09,-0.09 -0.1,-0.09 -0.09,-0.1 c -0.84,-0.86 -1.29,-1.98 -1.29,-3.26 0,-0.83 0.22,-1.67 0.55,-2.27 0.42,-0.75 1.16,-1.19 2.09,-1.19 l 0.13,0.33 c -1.11,0 -1.67,1.18 -1.67,2.98 0,1.08 0.69,1.37 1.37,1.37 1.1,0 1.59,-0.78 1.59,-2.29 l 0,0 c 0,-1.21 -0.44,-2.06 -1.29,-2.06 l -0.13,-0.33 c 0.78,0 1.44,0.32 1.88,0.86 0.39,0.48 0.6,1.14 0.6,1.89 0,1.52 -0.85,2.47 -2.23,2.47 -0.52,0 -0.92,-0.08 -1.5,-0.53 0.32,1.78 1.64,3.06 3.5,3.36 z" style="fill:#000000;stroke-width:0" /><polygon id="polygon4869" points="230.69,468.22 231.17,468.22 234,472.27 234,468.22 231.17,468.22 230.69,468.22 230.69,467.47 234,467.47 234,465.5 234.92,465.5 234.92,467.47 236.14,467.47 236.14,468.22 234.92,468.22 234.92,473.48 234.4,473.48 " style="fill:#000000;stroke-width:0" /></g>  <g style="font-style:normal;font-variant:normal;font-weight:normal;font-stretch:normal;letter-spacing:normal;word-spacing:normal;text-anchor:start;fill:none;fill-opacity:1;fill-rule:evenodd;stroke:#000000;stroke-linecap:butt;stroke-linejoin:miter;stroke-miterlimit:10.43299961;stroke-dasharray:none;stroke-dashoffset:0;stroke-opacity:1" id="g5333" transform="matrix(2.2009243,0,0,-2.2009243,17.771335,1134.7933)" xml:space="preserve" stroke-miterlimit="10.433" font-style="normal" font-variant="normal" font-weight="normal" font-stretch="normal" font-size-adjust="none" letter-spacing="normal" word-spacing="normal" ns0:text="$\\dfrac{1}{256}$" ns0:preamble="/Users/ABaker/cmep/Inkscape/underground-inkscape-preamble.tex"><path style="fill:#000000;stroke-width:0" d="m 235.2,479.19 0,0.18 c -0.88,0 -1.12,0.21 -1.12,0.72 l 0,7.04 -0.1,0.04 -2.12,-1.07 0,-0.17 0.32,0.12 c 0.21,0.08 0.41,0.14 0.53,0.14 0.25,0 0.36,-0.18 0.36,-0.58 l 0,-5.3 c 0,-0.65 -0.25,-0.9 -1.12,-0.94 l 0,-0.18 z" id="path5335" /><line style="stroke-width:0.65799999" x1="224.63" y1="475.89999" x2="242.39999" y2="475.89999" id="line5337" /><path style="fill:#000000;stroke-width:0" d="m 230.22,467.07 -0.16,0.07 c -0.39,-0.66 -0.64,-0.79 -1.13,-0.79 l -2.77,0 1.95,2.07 c 1.05,1.11 1.51,2 1.51,2.93 0,1.17 -0.85,2.08 -2.18,2.08 -1.45,0 -2.21,-0.97 -2.46,-2.35 l 0.25,-0.06 c 0.47,1.16 0.89,1.53 1.74,1.53 1,0 1.64,-0.59 1.64,-1.66 0,-1 -0.43,-1.9 -1.54,-3.07 l -2.1,-2.23 0,-0.14 4.62,0 z" id="path5339" /><path style="fill:#000000;stroke-width:0" d="m 235.72,473.49 -0.1,0.08 c -0.19,-0.25 -0.3,-0.31 -0.57,-0.31 l -2.44,0 -1.29,-2.8 c 0,0 -0.01,-0.03 -0.01,-0.05 0,-0.07 0.03,-0.1 0.14,-0.1 1.13,0 1.96,-0.38 2.51,-0.82 0.53,-0.43 0.8,-1.02 0.8,-1.78 0,-1.01 -0.77,-1.99 -1.6,-1.99 -0.23,0 -0.51,0.11 -0.84,0.38 -0.37,0.3 -0.6,0.36 -0.87,0.36 -0.33,0 -0.53,-0.15 -0.53,-0.44 0,-0.45 0.61,-0.74 1.5,-0.74 0.8,0 1.45,0.18 2,0.58 0.81,0.59 1.16,1.32 1.16,2.46 0,0.62 -0.1,1.07 -0.41,1.5 -0.68,0.93 -1.27,1.19 -2.95,1.51 l 0.47,1 2.29,0 c 0.19,0 0.28,0.07 0.32,0.15 z" id="path5341" /><path style="fill:#000000;stroke-width:0" d="m 241.74,473.52 -0.15,-0.01 -0.15,-0.02 -0.14,-0.02 -0.14,-0.02 -0.13,-0.02 -0.14,-0.02 -0.13,-0.03 -0.12,-0.02 -0.13,-0.03 -0.12,-0.02 -0.11,-0.03 -0.12,-0.04 -0.11,-0.03 -0.11,-0.04 -0.11,-0.04 -0.11,-0.04 -0.1,-0.04 -0.11,-0.05 -0.1,-0.05 -0.1,-0.05 -0.1,-0.05 -0.09,-0.06 -0.1,-0.06 -0.1,-0.07 -0.09,-0.07 -0.1,-0.07 -0.09,-0.08 -0.1,-0.08 -0.09,-0.08 -0.1,-0.09 -0.09,-0.09 -0.1,-0.1 c -0.83,-0.86 -1.28,-1.98 -1.28,-3.26 0,-0.82 0.22,-1.66 0.55,-2.26 0.42,-0.76 1.16,-1.2 2.09,-1.2 l 0.13,0.33 c -1.11,0 -1.67,1.18 -1.67,2.98 0,1.08 0.69,1.37 1.37,1.37 1.09,0 1.59,-0.78 1.59,-2.29 l 0,0 c 0,-1.21 -0.44,-2.06 -1.29,-2.06 l -0.13,-0.33 c 0.78,0 1.44,0.32 1.88,0.86 0.39,0.48 0.6,1.14 0.6,1.89 0,1.53 -0.85,2.47 -2.23,2.47 -0.52,0 -0.92,-0.08 -1.5,-0.53 0.32,1.78 1.64,3.06 3.49,3.36 z" id="path5343" /></g>  <g ns0:preamble="/Users/ABaker/cmep/Inkscape/underground-inkscape-preamble.tex" ns0:text="$\\dfrac{1}{1024}$" word-spacing="normal" letter-spacing="normal" font-size-adjust="none" font-stretch="normal" font-weight="normal" font-variant="normal" font-style="normal" stroke-miterlimit="10.433" xml:space="preserve" transform="matrix(2.2009243,0,0,-2.2009243,79.456745,1134.4074)" id="g5819" style="font-style:normal;font-variant:normal;font-weight:normal;font-stretch:normal;letter-spacing:normal;word-spacing:normal;text-anchor:start;fill:none;fill-opacity:1;fill-rule:evenodd;stroke:#000000;stroke-linecap:butt;stroke-linejoin:miter;stroke-miterlimit:10.43299961;stroke-dasharray:none;stroke-dashoffset:0;stroke-opacity:1"><path id="path5821" d="m 238.17,479.19 0,0.18 c -0.89,0 -1.13,0.21 -1.13,0.72 l 0,7.04 -0.1,0.04 -2.12,-1.07 0,-0.17 0.32,0.12 c 0.22,0.08 0.42,0.14 0.53,0.14 0.25,0 0.36,-0.18 0.36,-0.58 l 0,-5.3 c 0,-0.65 -0.25,-0.9 -1.12,-0.94 l 0,-0.18 z" style="fill:#000000;stroke-width:0" /><line id="line5823" y2="475.89999" x2="248.32001" y1="475.89999" x1="224.63" style="stroke-width:0.65799999" /><path id="path5825" d="m 229.28,465.59 0,0.18 c -0.89,0 -1.12,0.21 -1.12,0.72 l 0,7.05 -0.11,0.03 -2.11,-1.07 0,-0.17 0.32,0.12 c 0.21,0.08 0.41,0.14 0.53,0.14 0.25,0 0.35,-0.17 0.35,-0.58 l 0,-5.3 c 0,-0.65 -0.24,-0.89 -1.12,-0.94 l 0,-0.18 z" style="fill:#000000;stroke-width:0" /><path id="path5827" d="m 236.17,469.49 0,0.22 -0.01,0.22 -0.02,0.22 -0.02,0.21 -0.02,0.2 -0.04,0.2 -0.04,0.2 -0.04,0.19 -0.05,0.18 -0.05,0.18 -0.06,0.17 -0.07,0.16 -0.07,0.16 -0.07,0.15 -0.08,0.15 -0.09,0.14 -0.09,0.13 -0.09,0.12 -0.1,0.12 -0.1,0.11 -0.11,0.1 -0.11,0.09 -0.11,0.09 -0.12,0.07 -0.12,0.07 -0.12,0.06 -0.13,0.05 -0.13,0.05 -0.14,0.03 -0.13,0.02 -0.15,0.02 -0.14,0 c -1.9,0 -2.71,-1.92 -2.71,-4.01 0,-1.94 0.65,-4.13 2.66,-4.13 l 0,0.3 c -1.01,0 -1.53,1.35 -1.53,3.75 0,2.39 0.53,3.79 1.51,3.79 1.04,0 1.56,-1.39 1.56,-3.84 l 0,0 c 0,-2.34 -0.53,-3.7 -1.54,-3.7 l 0,-0.3 c 1.93,0 2.67,2.03 2.67,4.06 z" style="fill:#000000;stroke-width:0" /><path id="path5829" d="m 242.07,467.21 -0.16,0.07 c -0.39,-0.66 -0.64,-0.79 -1.14,-0.79 l -2.76,0 1.95,2.08 c 1.05,1.11 1.51,1.99 1.51,2.92 0,1.17 -0.85,2.08 -2.18,2.08 -1.46,0 -2.21,-0.97 -2.46,-2.35 l 0.25,-0.06 c 0.47,1.16 0.88,1.54 1.73,1.54 1.01,0 1.65,-0.59 1.65,-1.67 0,-1 -0.43,-1.9 -1.54,-3.07 l -2.1,-2.23 0,-0.14 4.61,0 z" style="fill:#000000;stroke-width:0" /><polygon id="polygon5831" points="243.01,468.32 245.85,472.37 245.85,468.32 243.01,468.32 242.54,468.32 242.54,467.56 245.85,467.56 245.85,465.59 246.77,465.59 246.77,467.56 247.98,467.56 247.98,468.32 246.77,468.32 246.77,473.57 246.25,473.57 242.54,468.32 " style="fill:#000000;stroke-width:0" /></g>  <g style="font-style:normal;font-variant:normal;font-weight:normal;font-stretch:normal;letter-spacing:normal;word-spacing:normal;text-anchor:start;fill:none;fill-opacity:1;fill-rule:evenodd;stroke:#000000;stroke-linecap:butt;stroke-linejoin:miter;stroke-miterlimit:10.43299961;stroke-dasharray:none;stroke-dashoffset:0;stroke-opacity:1" id="g3818" transform="matrix(4.431582,0,0,-4.431582,-346.86055,2332.2612)" xml:space="preserve" stroke-miterlimit="10.433" font-style="normal" font-variant="normal" font-weight="normal" font-stretch="normal" font-size-adjust="none" letter-spacing="normal" word-spacing="normal" ns0:text="..." ns0:preamble="/Users/ABaker/cmep/Inkscape/underground-inkscape-preamble.tex"><path style="fill:#000000;stroke-width:0" d="m 224.17,477.74 0,0.02 0,0.02 0,0.02 0,0.02 0.01,0.02 0,0.02 0,0.02 0,0.02 0,0.01 0.01,0.02 0,0.02 0,0.01 0.01,0.02 0,0.02 0,0.01 0.01,0.02 0,0.01 0.01,0.02 0,0.01 0.01,0.02 0.01,0.01 0,0.02 0.01,0.01 0.01,0.01 0,0.02 0.01,0.01 0.01,0.01 0.01,0.01 0,0.01 0.01,0.02 0.01,0.01 0.01,0.01 c 0.1,0.11 0.24,0.16 0.43,0.16 0.18,0 0.33,-0.05 0.44,-0.16 0.1,-0.12 0.16,-0.28 0.16,-0.5 0,-0.21 -0.06,-0.37 -0.17,-0.48 -0.1,-0.12 -0.25,-0.17 -0.43,-0.17 -0.17,0 -0.31,0.05 -0.41,0.15 -0.11,0.1 -0.17,0.27 -0.17,0.5 z" id="path3820" /><path style="fill:#000000;stroke-width:0" d="m 226.82,477.74 0,0.02 0,0.02 0,0.02 0.01,0.02 0,0.02 0,0.02 0,0.02 0,0.02 0,0.01 0.01,0.02 0,0.02 0,0.01 0.01,0.02 0,0.02 0.01,0.01 0,0.02 0,0.01 0.01,0.02 0.01,0.01 0,0.02 0.01,0.01 0,0.02 0.01,0.01 0.01,0.01 0,0.02 0.01,0.01 0.01,0.01 0.01,0.01 0.01,0.01 0,0.02 0.01,0.01 0.01,0.01 c 0.1,0.11 0.24,0.16 0.43,0.16 0.19,0 0.33,-0.05 0.44,-0.16 0.1,-0.12 0.16,-0.28 0.16,-0.5 0,-0.21 -0.06,-0.37 -0.16,-0.48 -0.11,-0.12 -0.26,-0.17 -0.44,-0.17 -0.17,0 -0.3,0.05 -0.41,0.15 -0.11,0.1 -0.17,0.27 -0.17,0.5 z" id="path3822" /><path style="fill:#000000;stroke-width:0" d="m 229.48,477.74 -0.01,0.02 0.01,0.02 0,0.02 0,0.02 0,0.02 0,0.02 0,0.02 0,0.02 0.01,0.01 0,0.02 0,0.02 0,0.01 0.01,0.02 0,0.02 0.01,0.01 0,0.02 0.01,0.01 0,0.02 0.01,0.01 0,0.02 0.01,0.01 0,0.02 0.01,0.01 0.01,0.01 0,0.02 0.01,0.01 0.01,0.01 0.01,0.01 0.01,0.01 0.01,0.02 0,0.01 0.01,0.01 c 0.1,0.11 0.24,0.16 0.43,0.16 0.19,0 0.33,-0.05 0.44,-0.16 0.11,-0.12 0.16,-0.28 0.16,-0.5 0,-0.21 -0.06,-0.37 -0.16,-0.48 -0.11,-0.12 -0.26,-0.17 -0.44,-0.17 -0.17,0 -0.3,0.05 -0.41,0.15 -0.11,0.1 -0.16,0.27 -0.16,0.5 z" id="path3824" /></g></svg>