<?xml version='1.0' ?><svg xmlns:ns0="http://www.iki.fi/pav/software/textext/" xmlns:dc="http://purl.org/dc/elements/1.1/" xmlns:cc="http://creativecommons.org/ns#" xmlns:rdf="http://www.w3.org/1999/02/22-rdf-syntax-ns#" xmlns:svg="http://www.w3.org/2000/svg" xmlns="http://www.w3.org/2000/svg" id="svg2" version="1.1" width="396.96659" height="320.46339" viewBox="0.0 1.0806187968017009e-5 466.99999341973245 376.99999141304346" preserveAspectRatio="none">
  <metadata id="metadata63">
    <rdf:RDF>
      <cc:Work rdf:about="">
        <dc:format>image/svg+xml</dc:format>
        <dc:type rdf:resource="http://purl.org/dc/dcmitype/StillImage" />
      </cc:Work>
    </rdf:RDF>
  </metadata>
  <defs id="defs61" />
  <title id="title4" />
  <g stroke-linejoin="miter" stroke-dashoffset="0.0000" stroke-dasharray="none" stroke-width="1.0000" stroke-miterlimit="10.000" stroke-linecap="square" id="g6">
    <clipPath id="clip1">
      <path d="M 0.0000 0.0000 L 0.0000 377.00 L 469.00 377.00 L 469.00 0.0000 z" id="path9" />
    </clipPath>
    <g clip-path="url(#clip1)" id="g11">
      <g stroke-width="2.0000" stroke-linecap="butt" fill="none" stroke-opacity="1.0000" stroke="#000000" id="g13">
        <path d="M 394.00 3.0000 L 394.00 377.00" id="path15" />
      </g>
    </g>
    <clipPath id="clip2">
      <path d="M 0.0000 0.0000 L 0.0000 377.00 L 469.00 377.00 L 469.00 0.0000 z" id="path18" />
    </clipPath>
    <g clip-path="url(#clip2)" id="g20">
      <g fill-opacity="1.0000" fill-rule="evenodd" stroke="none" fill="#000000" id="g22">
        <path d="M 394.00 2.0000 L 389.00 22.000 L 399.00 22.000" id="path24" />
      </g>
    </g>
    <clipPath id="clip3">
      <path d="M 0.0000 0.0000 L 0.0000 377.00 L 469.00 377.00 L 469.00 0.0000 z" id="path27" />
    </clipPath>
    <g clip-path="url(#clip3)" id="g29">
      <g stroke-width="2.0000" stroke-linecap="butt" fill="none" stroke-opacity="1.0000" stroke="#000000" id="g31">
        <path d="M 0.0000 259.00 L 466.00 259.00" id="path33" />
      </g>
    </g>
    <clipPath id="clip4">
      <path d="M 0.0000 0.0000 L 0.0000 377.00 L 469.00 377.00 L 469.00 0.0000 z" id="path36" />
    </clipPath>
    <g clip-path="url(#clip4)" id="g38">
      <g fill-opacity="1.0000" fill-rule="evenodd" stroke="none" fill="#000000" id="g40">
        <path d="M 467.00 259.00 L 447.00 254.00 L 447.00 264.00" id="path42" />
      </g>
    </g>
    <g id="misc" />
    <g id="layer0">
      <clipPath id="clip5">
        <path d="M 0.0000 0.0000 L 0.0000 377.00 L 469.00 377.00 L 469.00 0.0000 z" id="path47" />
      </clipPath>
      <g clip-path="url(#clip5)" id="g49">
        <g stroke-linejoin="round" stroke-width="4.5000" stroke-linecap="round" fill="none" stroke-opacity="1.0000" stroke="#000000" id="g51">
          <path d="M 31.500 -31.250 C 163.32 484.75 295.14 484.75 426.95 -31.250" id="path53" />
          <title id="title55">Parabola c</title>
          <desc id="desc57">c: y = xÃ&#131;Â&#130;Ã&#130;Â² + 5x + 4</desc>
        </g>
      </g>
    </g>
  </g>
  <g style="font-style:normal;font-variant:normal;font-weight:normal;font-stretch:normal;letter-spacing:normal;word-spacing:normal;text-anchor:start;fill:none;fill-opacity:1;fill-rule:evenodd;stroke:#000000;stroke-linecap:butt;stroke-linejoin:miter;stroke-miterlimit:10.43299961;stroke-dasharray:none;stroke-dashoffset:0;stroke-opacity:1" id="content" transform="matrix(2.7572593,0,0,-2.7572593,-559.58163,1356.7974)" xml:space="preserve" stroke-miterlimit="10.433" font-style="normal" font-variant="normal" font-weight="normal" font-stretch="normal" font-size-adjust="none" letter-spacing="normal" word-spacing="normal" ns0:text="$y = x^2 + 5x + 4$\n" ns0:preamble="/Users/ABaker/cmep/Inkscape/underground-inkscape-preamble.tex"><path style="fill:#000000;stroke-width:0" d="m 226.62,480.83 -0.01,0.08 -0.01,0.08 -0.01,0.07 -0.01,0.07 -0.01,0.07 -0.01,0.07 -0.01,0.06 -0.01,0.06 -0.01,0.06 -0.01,0.05 -0.01,0.06 -0.01,0.05 -0.01,0.05 -0.01,0.05 -0.02,0.04 -0.01,0.05 -0.01,0.04 -0.02,0.04 -0.01,0.04 -0.01,0.04 -0.04,0.08 -0.03,0.07 -0.04,0.08 -0.04,0.07 -0.04,0.07 -0.05,0.07 -1.77,-0.29 0.02,-0.19 c 0.11,0.01 0.3,0.04 0.43,0.04 0.66,0 0.76,-0.7 0.82,-1.24 l 0.45,-3.7 c -0.31,-0.47 -0.98,-1.21 -1.18,-1.21 -0.19,0 -0.16,0.37 -0.67,0.37 -0.16,0 -0.47,-0.13 -0.47,-0.48 0,-0.29 0.22,-0.65 0.66,-0.65 0.8,0 1.57,1.15 2.43,2.24 0.5,0.62 2.41,3.46 2.41,4.38 0,0.46 -0.3,0.73 -0.67,0.73 -0.35,0 -0.56,-0.21 -0.56,-0.47 0,-0.45 0.61,-0.57 0.61,-0.82 0,-0.21 -0.09,-0.44 -0.33,-0.88 -0.26,-0.49 -0.67,-1.19 -1.39,-2.17 z" id="path3427" /><polygon style="fill:#000000;stroke-width:0" points="232.64,480.98 239.59,480.98 239.59,481.76 232.64,481.76 " id="polygon3429" /><polygon style="fill:#000000;stroke-width:0" points="232.64,478.62 239.59,478.62 239.59,479.4 232.64,479.4 " id="polygon3431" /><path style="fill:#000000;stroke-width:0" d="m 246.56,480.61 -0.24,0.65 c -0.14,0.38 -0.36,0.87 -0.88,1.15 l -1.56,-0.39 0.03,-0.21 c 0.12,0.05 0.3,0.07 0.45,0.07 0.65,0 0.96,-0.48 1.16,-1.05 l 0.39,-1.09 -0.77,-1.19 c -0.38,-0.58 -0.68,-0.69 -0.82,-0.69 -0.3,0 -0.25,0.23 -0.56,0.23 -0.3,0 -0.45,-0.25 -0.45,-0.44 0,-0.26 0.19,-0.55 0.62,-0.55 0.66,0 1,0.51 1.38,1.09 l 0.74,1.15 0.47,-1.33 c 0.16,-0.43 0.38,-0.91 0.86,-0.91 0.69,0 1.22,1.13 1.36,1.31 l -0.16,0.12 c -0.25,-0.51 -0.53,-0.67 -0.72,-0.67 -0.53,0 -0.81,1.59 -1.16,2.32 l 0.65,1 c 0.16,0.26 0.29,0.45 0.65,0.45 0.2,0 0.26,-0.1 0.52,-0.1 0.3,0 0.46,0.27 0.46,0.49 0,0.25 -0.2,0.39 -0.58,0.39 -0.59,0 -1,-0.52 -1.31,-0.99 z" id="path3433" /><path style="fill:#000000;stroke-width:0" d="m 253.68,482.4 -0.12,0.06 c -0.29,-0.5 -0.48,-0.6 -0.85,-0.6 l -2.08,0 1.47,1.56 c 0.78,0.84 1.13,1.5 1.13,2.2 0,0.88 -0.64,1.56 -1.64,1.56 -1.09,0 -1.66,-0.72 -1.85,-1.76 l 0.19,-0.04 c 0.35,0.86 0.67,1.15 1.3,1.15 0.76,0 1.24,-0.45 1.24,-1.25 0,-0.76 -0.32,-1.43 -1.16,-2.31 l -1.58,-1.67 0,-0.11 3.48,0 z" id="path3435" /><polygon style="fill:#000000;stroke-width:0" points="260.97,483.66 260.19,483.66 260.19,480.58 257.11,480.58 257.11,479.8 260.19,479.8 260.19,476.72 260.97,476.72 260.97,479.8 264.05,479.8 264.05,480.58 260.97,480.58 " id="polygon3437" /><path style="fill:#000000;stroke-width:0" d="m 272.03,485.25 -0.11,0.08 c -0.18,-0.25 -0.29,-0.31 -0.56,-0.31 l -2.44,0 -1.29,-2.8 c 0,0 -0.01,-0.03 -0.01,-0.05 0,-0.08 0.03,-0.1 0.14,-0.1 1.13,0 1.96,-0.38 2.51,-0.83 0.53,-0.42 0.79,-1.01 0.79,-1.77 0,-1.01 -0.76,-1.99 -1.59,-1.99 -0.24,0 -0.51,0.1 -0.84,0.38 -0.38,0.3 -0.6,0.36 -0.87,0.36 -0.33,0 -0.53,-0.15 -0.53,-0.45 0,-0.45 0.61,-0.73 1.5,-0.73 0.8,0 1.45,0.18 2,0.58 0.81,0.59 1.16,1.32 1.16,2.46 0,0.62 -0.11,1.07 -0.41,1.49 -0.68,0.94 -1.27,1.2 -2.96,1.51 l 0.48,1.01 2.29,0 c 0.19,0 0.28,0.07 0.32,0.15 z" id="path3439" /><path style="fill:#000000;stroke-width:0" d="m 276.39,480.61 -0.24,0.65 c -0.14,0.38 -0.37,0.87 -0.89,1.15 l -1.56,-0.39 0.04,-0.21 c 0.12,0.05 0.3,0.07 0.45,0.07 0.65,0 0.96,-0.48 1.16,-1.05 l 0.39,-1.09 -0.77,-1.19 c -0.38,-0.58 -0.69,-0.69 -0.83,-0.69 -0.29,0 -0.25,0.23 -0.55,0.23 -0.3,0 -0.45,-0.25 -0.45,-0.44 0,-0.26 0.19,-0.55 0.61,-0.55 0.66,0 1.01,0.51 1.38,1.09 l 0.75,1.15 0.47,-1.33 c 0.15,-0.43 0.38,-0.91 0.86,-0.91 0.69,0 1.22,1.13 1.36,1.31 l -0.17,0.12 c -0.24,-0.51 -0.53,-0.67 -0.72,-0.67 -0.53,0 -0.8,1.59 -1.15,2.32 l 0.65,1 c 0.16,0.26 0.29,0.45 0.65,0.45 0.2,0 0.25,-0.1 0.52,-0.1 0.3,0 0.46,0.27 0.46,0.49 0,0.25 -0.2,0.39 -0.58,0.39 -0.59,0 -1.01,-0.52 -1.31,-0.99 z" id="path3441" /><polygon style="fill:#000000;stroke-width:0" points="285.94,483.66 285.17,483.66 285.17,480.58 282.08,480.58 282.08,479.8 285.17,479.8 285.17,476.72 285.94,476.72 285.94,479.8 289.02,479.8 289.02,480.58 285.94,480.58 " id="polygon3443" /><polygon style="fill:#000000;stroke-width:0" points="296.22,485.19 295.7,485.19 291.99,479.93 292.46,479.93 295.3,483.98 295.3,479.93 292.46,479.93 291.99,479.93 291.99,479.18 295.3,479.18 295.3,477.21 296.22,477.21 296.22,479.18 297.43,479.18 297.43,479.93 296.22,479.93 " id="polygon3445" /></g>  <g ns0:preamble="/Users/ABaker/cmep/Inkscape/underground-inkscape-preamble.tex" ns0:text="$x$" word-spacing="normal" letter-spacing="normal" font-size-adjust="none" font-stretch="normal" font-weight="normal" font-variant="normal" font-style="normal" stroke-miterlimit="10.433" xml:space="preserve" transform="matrix(2.7395623,0,0,-2.7395623,-170.62018,1590.7461)" id="g3537" style="font-style:normal;font-variant:normal;font-weight:normal;font-stretch:normal;letter-spacing:normal;word-spacing:normal;text-anchor:start;fill:none;fill-opacity:1;fill-rule:evenodd;stroke:#000000;stroke-linecap:butt;stroke-linejoin:miter;stroke-miterlimit:10.43299961;stroke-dasharray:none;stroke-dashoffset:0;stroke-opacity:1"><path id="path3539" d="m 227.03,480.64 -0.23,0.64 c -0.15,0.39 -0.37,0.88 -0.89,1.16 l -1.56,-0.39 0.04,-0.21 c 0.12,0.05 0.29,0.07 0.45,0.07 0.65,0 0.95,-0.48 1.15,-1.05 l 0.39,-1.09 -0.76,-1.19 c -0.38,-0.58 -0.69,-0.7 -0.83,-0.7 -0.3,0 -0.25,0.24 -0.55,0.24 -0.3,0 -0.45,-0.25 -0.45,-0.44 0,-0.26 0.19,-0.55 0.61,-0.55 0.66,0 1,0.51 1.38,1.08 l 0.74,1.16 0.48,-1.33 c 0.15,-0.43 0.38,-0.91 0.86,-0.91 0.68,0 1.21,1.13 1.36,1.31 l -0.17,0.12 c -0.25,-0.51 -0.53,-0.68 -0.72,-0.68 -0.53,0 -0.8,1.6 -1.15,2.33 l 0.64,1 c 0.17,0.26 0.3,0.45 0.65,0.45 0.2,0 0.26,-0.1 0.52,-0.1 0.31,0 0.46,0.27 0.46,0.49 0,0.25 -0.2,0.39 -0.57,0.39 -0.6,0 -1.01,-0.52 -1.32,-0.99 z" style="fill:#000000;stroke-width:0" /></g>  <g style="font-style:normal;font-variant:normal;font-weight:normal;font-stretch:normal;letter-spacing:normal;word-spacing:normal;text-anchor:start;fill:none;fill-opacity:1;fill-rule:evenodd;stroke:#000000;stroke-linecap:butt;stroke-linejoin:miter;stroke-miterlimit:10.43299961;stroke-dasharray:none;stroke-dashoffset:0;stroke-opacity:1" id="g3635" transform="matrix(2.6411555,0,0,-2.6411555,-221.84047,1281.764)" xml:space="preserve" stroke-miterlimit="10.433" font-style="normal" font-variant="normal" font-weight="normal" font-stretch="normal" font-size-adjust="none" letter-spacing="normal" word-spacing="normal" ns0:text="$y$" ns0:preamble="/Users/ABaker/cmep/Inkscape/underground-inkscape-preamble.tex"><path style="fill:#000000;stroke-width:0" d="m 226.62,480.86 -0.01,0.08 -0.01,0.08 -0.01,0.07 -0.01,0.07 -0.01,0.07 -0.01,0.07 -0.01,0.06 -0.01,0.06 -0.01,0.06 -0.01,0.05 -0.01,0.06 -0.01,0.05 -0.01,0.05 -0.01,0.04 -0.02,0.05 -0.01,0.05 -0.01,0.04 -0.02,0.04 -0.01,0.04 -0.01,0.04 -0.04,0.08 -0.03,0.07 -0.04,0.08 -0.04,0.07 -0.04,0.07 -0.05,0.07 -1.77,-0.3 0.02,-0.18 c 0.11,0.01 0.3,0.04 0.43,0.04 0.66,0 0.76,-0.71 0.82,-1.24 l 0.45,-3.7 c -0.31,-0.48 -0.98,-1.21 -1.18,-1.21 -0.19,0 -0.16,0.37 -0.67,0.37 -0.16,0 -0.47,-0.13 -0.47,-0.49 0,-0.28 0.22,-0.64 0.66,-0.64 0.8,0 1.57,1.15 2.43,2.24 0.5,0.62 2.41,3.46 2.41,4.38 0,0.46 -0.3,0.73 -0.67,0.73 -0.35,0 -0.56,-0.21 -0.56,-0.47 0,-0.45 0.61,-0.57 0.61,-0.82 0,-0.21 -0.09,-0.45 -0.33,-0.88 -0.26,-0.49 -0.67,-1.19 -1.39,-2.18 z" id="path3637" /></g>  <path id="path3687" d="m 128.84664,264.71553 0,-4.99837 z" style="fill:none;fill-rule:evenodd;stroke:#000000;stroke-width:1.25484955px;stroke-linecap:butt;stroke-linejoin:miter;stroke-opacity:1" />
  <g ns0:preamble="/Users/ABaker/cmep/Inkscape/underground-inkscape-preamble.tex" ns0:text="$-4$" word-spacing="normal" letter-spacing="normal" font-size-adjust="none" font-stretch="normal" font-weight="normal" font-variant="normal" font-style="normal" stroke-miterlimit="10.433" xml:space="preserve" transform="matrix(2.8497546,0,0,-2.8497546,-544.5596,1651.5595)" id="g3740" style="font-style:normal;font-variant:normal;font-weight:normal;font-stretch:normal;letter-spacing:normal;word-spacing:normal;text-anchor:start;fill:none;fill-opacity:1;fill-rule:evenodd;stroke:#000000;stroke-linecap:butt;stroke-linejoin:miter;stroke-miterlimit:10.43299961;stroke-dasharray:none;stroke-dashoffset:0;stroke-opacity:1"><polygon id="polygon3742" points="224.19,479.83 230.76,479.83 230.76,480.61 224.19,480.61 " style="fill:#000000;stroke-width:0" /><polygon id="polygon3744" points="235.92,485.22 235.4,485.22 231.69,479.96 232.16,479.96 234.99,484.01 234.99,479.96 232.16,479.96 231.69,479.96 231.69,479.21 234.99,479.21 234.99,477.23 235.92,477.23 235.92,479.21 237.13,479.21 237.13,479.96 235.92,479.96 " style="fill:#000000;stroke-width:0" /></g>  <g style="font-style:normal;font-variant:normal;font-weight:normal;font-stretch:normal;letter-spacing:normal;word-spacing:normal;text-anchor:start;fill:none;fill-opacity:1;fill-rule:evenodd;stroke:#000000;stroke-linecap:butt;stroke-linejoin:miter;stroke-miterlimit:10.43299961;stroke-dasharray:none;stroke-dashoffset:0;stroke-opacity:1" id="g3852" transform="matrix(2.784762,0,0,-2.784762,-304.18162,1620.4166)" xml:space="preserve" stroke-miterlimit="10.433" font-style="normal" font-variant="normal" font-weight="normal" font-stretch="normal" font-size-adjust="none" letter-spacing="normal" word-spacing="normal" ns0:text="$-1$" ns0:preamble="/Users/ABaker/cmep/Inkscape/underground-inkscape-preamble.tex"><polygon style="fill:#000000;stroke-width:0" points="224.19,479.83 230.76,479.83 230.76,480.61 224.19,480.61 " id="polygon3854" /><path style="fill:#000000;stroke-width:0" d="m 236.2,477.23 0,0.18 c -0.89,0 -1.12,0.21 -1.12,0.72 l 0,7.05 -0.11,0.04 -2.11,-1.08 0,-0.16 0.32,0.11 c 0.21,0.09 0.41,0.15 0.53,0.15 0.25,0 0.35,-0.18 0.35,-0.58 l 0,-5.3 c 0,-0.65 -0.24,-0.9 -1.12,-0.95 l 0,-0.18 z" id="path3856" /></g>  <path id="path3913" d="m 329.08959,265.69712 0,-7.46144 z" style="fill:none;fill-rule:evenodd;stroke:#000000;stroke-width:1.25484955px;stroke-linecap:butt;stroke-linejoin:miter;stroke-opacity:1" />
</svg>