<?xml version='1.0' ?><svg xmlns:ns0="http://www.iki.fi/pav/software/textext/" xmlns:dc="http://purl.org/dc/elements/1.1/" xmlns:cc="http://creativecommons.org/ns#" xmlns:rdf="http://www.w3.org/1999/02/22-rdf-syntax-ns#" xmlns:svg="http://www.w3.org/2000/svg" xmlns="http://www.w3.org/2000/svg" id="svg2" version="1.1" width="398.66666" height="259.41607" viewBox="0.0 4.6757190727647925e-6 563.9999905685618 366.99999200668896" preserveAspectRatio="none">
  <metadata id="metadata115">
    <rdf:RDF>
      <cc:Work rdf:about="">
        <dc:format>image/svg+xml</dc:format>
        <dc:type rdf:resource="http://purl.org/dc/dcmitype/StillImage" />
      </cc:Work>
    </rdf:RDF>
  </metadata>
  <defs id="defs113" />
  <title id="title4" />
  <g id="g6" stroke-linecap="square" stroke-miterlimit="10.000" stroke-width="1.0000" stroke-dasharray="none" stroke-dashoffset="0.0000" stroke-linejoin="miter">
    <clipPath id="clip1">
      <path id="path9" d="M 0.0000 0.0000 L 0.0000 367.00 L 564.00 367.00 L 564.00 0.0000 z" />
    </clipPath>
    <g id="g11" clip-path="url(#clip1)">
      <g id="g13" stroke="#000000" stroke-opacity="1.0000" fill="none" stroke-linecap="butt" stroke-width="2.0000">
        <path id="path15" d="M 224.11 3.0000 L 224.11 367.00" />
      </g>
    </g>
    <clipPath id="clip2">
      <path id="path18" d="M 0.0000 0.0000 L 0.0000 367.00 L 564.00 367.00 L 564.00 0.0000 z" />
    </clipPath>
    <g id="g20" clip-path="url(#clip2)">
      <g id="g22" fill="#000000" stroke="none" fill-rule="evenodd" fill-opacity="1.0000">
        <path id="path24" d="M 224.11 2.0000 L 219.11 22.000 L 229.11 22.000" />
      </g>
    </g>
    <clipPath id="clip3">
      <path id="path27" d="M 0.0000 0.0000 L 0.0000 367.00 L 564.00 367.00 L 564.00 0.0000 z" />
    </clipPath>
    <g id="g29" clip-path="url(#clip3)">
      <g id="g31" stroke="#000000" stroke-opacity="1.0000" fill="none" stroke-linecap="butt" stroke-width="2.0000">
        <path id="path33" d="M 0.0000 197.10 L 561.00 197.10" />
      </g>
    </g>
    <clipPath id="clip4">
      <path id="path36" d="M 0.0000 0.0000 L 0.0000 367.00 L 564.00 367.00 L 564.00 0.0000 z" />
    </clipPath>
    <g id="g38" clip-path="url(#clip4)">
      <g id="g40" fill="#000000" stroke="none" fill-rule="evenodd" fill-opacity="1.0000">
        <path id="path42" d="M 562.00 197.10 L 542.00 192.10 L 542.00 202.10" />
      </g>
    </g>
    <g id="misc" />
    <g id="layer0">
      <clipPath id="clip5">
        <path id="path47" d="M 0.0000 0.0000 L 0.0000 367.00 L 564.00 367.00 L 564.00 0.0000 z" />
      </clipPath>
      <g id="g49" clip-path="url(#clip5)">
        <g id="g51" stroke="#000000" stroke-opacity="1.0000" fill="none" stroke-linecap="round" stroke-width="3.5000" stroke-linejoin="round">
          <path id="path53" d="M 0.0000 244.99 L 4.4062 245.36 L 8.8125 245.75 L 13.219 246.15 L 17.625 246.57 L 22.031 247.01 L 26.438 247.47 L 30.844 247.95 L 35.250 248.45 L 39.656 248.98 L 44.062 249.53 L 48.469 250.11 L 52.875 250.72 L 57.281 251.36 L 61.688 252.04 L 66.094 252.75 L 70.500 253.51 L 74.906 254.31 L 79.312 255.16 L 83.719 256.06 L 88.125 257.02 L 92.531 258.04 L 96.938 259.14 L 101.34 260.31 L 105.75 261.57 L 110.16 262.93 L 114.56 264.40 L 118.97 265.99 L 123.38 267.73 L 127.78 269.61 L 132.19 271.68 L 136.59 273.96 L 141.00 276.48 L 145.41 279.29 L 149.81 282.42 L 154.22 285.95 L 158.62 289.96 L 163.03 294.54 L 167.44 299.84 L 171.84 306.03 L 176.25 313.36 L 180.66 322.17 L 182.86 327.29 L 185.06 332.98 L 187.27 339.35 L 189.47 346.53 L 191.67 354.69 L 193.88 364.03 L 194.98 369.24 L 196.08 374.85 M 241.79 -8.9020 L 242.34 -1.7933 L 242.89 4.8985 L 243.45 11.209 L 244.00 17.170 L 244.55 22.810 L 245.10 28.153 L 245.65 33.224 L 246.75 42.624 L 247.85 51.152 L 248.95 58.924 L 250.05 66.036 L 251.16 72.568 L 252.26 78.590 L 253.36 84.157 L 255.56 94.123 L 257.77 102.78 L 259.97 110.38 L 262.17 117.10 L 264.38 123.08 L 266.58 128.44 L 268.78 133.27 L 273.19 141.63 L 277.59 148.62 L 282.00 154.54 L 286.41 159.63 L 290.81 164.04 L 295.22 167.90 L 299.62 171.32 L 304.03 174.36 L 308.44 177.08 L 312.84 179.53 L 317.25 181.75 L 321.66 183.76 L 326.06 185.61 L 330.47 187.30 L 334.88 188.85 L 339.28 190.29 L 343.69 191.62 L 348.09 192.86 L 352.50 194.01 L 356.91 195.09 L 361.31 196.09 L 365.72 197.04 L 370.12 197.92 L 374.53 198.76 L 378.94 199.54 L 383.34 200.29 L 387.75 200.99 L 392.16 201.66 L 396.56 202.29 L 400.97 202.89 L 405.38 203.46 L 409.78 204.01 L 414.19 204.53 L 418.59 205.02 L 423.00 205.50 L 427.41 205.95 L 431.81 206.39 L 436.22 206.80 L 440.62 207.20 L 445.03 207.59 L 449.44 207.95 L 453.84 208.31 L 458.25 208.65 L 462.66 208.98 L 467.06 209.29 L 471.47 209.60 L 475.88 209.89 L 480.28 210.18 L 484.69 210.45 L 489.09 210.72 L 493.50 210.97 L 497.91 211.22 L 502.31 211.46 L 506.72 211.70 L 511.12 211.92 L 515.53 212.14 L 519.94 212.35 L 524.34 212.56 L 528.75 212.76 L 533.16 212.96 L 537.56 213.15 L 541.97 213.33 L 546.38 213.51 L 550.78 213.68 L 555.19 213.85 L 559.59 214.02 L 564.00 214.18" />
          <title id="title55">Function g</title>
          <desc id="desc57">g(x) = 1 / x - 1</desc>
        </g>
      </g>
      <clipPath id="clip6">
        <path id="path60" d="M 0.0000 0.0000 L 0.0000 367.00 L 564.00 367.00 L 564.00 0.0000 z" />
      </clipPath>
      <g id="g62" clip-path="url(#clip6)">
        <g id="g64" stroke="#0000ff" stroke-opacity="1.0000" fill="none" stroke-linecap="round" stroke-width="4.5000" stroke-linejoin="round">
          <path id="path66" d="M 231.13 197.10 L 360.48 197.10" />
          <title id="title68">Segment f</title>
          <desc id="desc70">Segment f: Segment [C, D]</desc>
        </g>
      </g>
      <clipPath id="clip7">
        <path id="path73" d="M 0.0000 0.0000 L 0.0000 367.00 L 564.00 367.00 L 564.00 0.0000 z" />
      </clipPath>
      <g id="g75" clip-path="url(#clip7)">
        <g id="g77" stroke="#0000ff" stroke-opacity="1.0000" fill="none" stroke-width="3.5000">
          <path id="path79" d="M 231.11 197.10 C 231.11 200.96 227.98 204.10 224.11 204.10 C 220.25 204.10 217.11 200.96 217.11 197.10 C 217.11 193.23 220.25 190.10 224.11 190.10 C 227.98 190.10 231.11 193.23 231.11 197.10 z" />
          <title id="title81">Point A</title>
          <desc id="desc83">A = (0, 0)</desc>
        </g>
      </g>
      <clipPath id="clip8">
        <path id="path86" d="M 0.0000 0.0000 L 0.0000 367.00 L 564.00 367.00 L 564.00 0.0000 z" />
      </clipPath>
      <g id="g88" clip-path="url(#clip8)">
        <g id="g90" fill="#0000ff" stroke="none" fill-rule="nonzero" fill-opacity="1.0000">
          <path id="path92" d="M 373.01 197.10 C 373.01 200.96 369.88 204.10 366.01 204.10 C 362.15 204.10 359.01 200.96 359.01 197.10 C 359.01 193.23 362.15 190.10 366.01 190.10 C 369.88 190.10 373.01 193.23 373.01 197.10 z" />
          <title id="title94">Point B</title>
          <desc id="desc96">B = (1, 0)</desc>
        </g>
      </g>
      <clipPath id="clip9">
        <path id="path99" d="M 0.0000 0.0000 L 0.0000 367.00 L 564.00 367.00 L 564.00 0.0000 z" />
      </clipPath>
      <g id="g101" clip-path="url(#clip9)">
        <g id="g103" stroke="#000000" stroke-opacity="1.0000" fill="none" stroke-linecap="round" stroke-linejoin="round">
          <path id="path105" d="M 373.01 197.10 C 373.01 200.96 369.88 204.10 366.01 204.10 C 362.15 204.10 359.01 200.96 359.01 197.10 C 359.01 193.23 362.15 190.10 366.01 190.10 C 369.88 190.10 373.01 193.23 373.01 197.10 z" />
          <title id="title107">Point B</title>
          <desc id="desc109">B = (1, 0)</desc>
        </g>
      </g>
    </g>
  </g>
  <g style="font-style:normal;font-variant:normal;font-weight:normal;font-stretch:normal;letter-spacing:normal;word-spacing:normal;text-anchor:start;fill:none;fill-opacity:1;fill-rule:evenodd;stroke:#000000;stroke-linecap:butt;stroke-linejoin:miter;stroke-miterlimit:10.43299961;stroke-dasharray:none;stroke-dashoffset:0;stroke-opacity:1" id="g3637" transform="matrix(2,0,0,-2,-245.7529,974.39967)" xml:space="preserve" stroke-miterlimit="10.433" font-style="normal" font-variant="normal" font-weight="normal" font-stretch="normal" font-size-adjust="none" letter-spacing="normal" word-spacing="normal" ns0:text="$y$" ns0:preamble="/Users/ABaker/cmep/Inkscape/underground-inkscape-preamble.tex"><path style="fill:#000000;stroke-width:0" d="m 226.62,480.86 -0.01,0.08 -0.01,0.08 -0.01,0.07 -0.01,0.07 -0.01,0.07 -0.01,0.07 -0.01,0.06 -0.01,0.06 -0.01,0.06 -0.01,0.05 -0.01,0.06 -0.01,0.05 -0.01,0.05 -0.01,0.04 -0.02,0.05 -0.01,0.05 -0.01,0.04 -0.02,0.04 -0.01,0.04 -0.01,0.04 -0.04,0.08 -0.03,0.07 -0.04,0.08 -0.04,0.07 -0.04,0.07 -0.05,0.07 -1.77,-0.3 0.02,-0.18 c 0.11,0.01 0.3,0.04 0.43,0.04 0.66,0 0.76,-0.71 0.82,-1.24 l 0.45,-3.7 c -0.31,-0.48 -0.98,-1.21 -1.18,-1.21 -0.19,0 -0.16,0.37 -0.67,0.37 -0.16,0 -0.47,-0.13 -0.47,-0.49 0,-0.28 0.22,-0.64 0.66,-0.64 0.8,0 1.57,1.15 2.43,2.24 0.5,0.62 2.41,3.46 2.41,4.38 0,0.46 -0.3,0.73 -0.67,0.73 -0.35,0 -0.56,-0.21 -0.56,-0.47 0,-0.45 0.61,-0.57 0.61,-0.82 0,-0.21 -0.09,-0.45 -0.33,-0.88 -0.26,-0.49 -0.67,-1.19 -1.39,-2.18 z" id="path3639" /></g>  <g ns0:preamble="/Users/ABaker/cmep/Inkscape/underground-inkscape-preamble.tex" ns0:text="$x$" word-spacing="normal" letter-spacing="normal" font-size-adjust="none" font-stretch="normal" font-weight="normal" font-variant="normal" font-style="normal" stroke-miterlimit="10.433" xml:space="preserve" transform="matrix(2,0,0,-2,94.068411,1138.1045)" id="content" style="font-style:normal;font-variant:normal;font-weight:normal;font-stretch:normal;letter-spacing:normal;word-spacing:normal;text-anchor:start;fill:none;fill-opacity:1;fill-rule:evenodd;stroke:#000000;stroke-linecap:butt;stroke-linejoin:miter;stroke-miterlimit:10.43299961;stroke-dasharray:none;stroke-dashoffset:0;stroke-opacity:1"><path id="path3507" d="m 227.03,480.64 -0.23,0.64 c -0.15,0.39 -0.37,0.88 -0.89,1.16 l -1.56,-0.39 0.04,-0.21 c 0.12,0.05 0.29,0.07 0.45,0.07 0.65,0 0.95,-0.48 1.15,-1.05 l 0.39,-1.09 -0.76,-1.19 c -0.38,-0.58 -0.69,-0.7 -0.83,-0.7 -0.3,0 -0.25,0.24 -0.55,0.24 -0.3,0 -0.45,-0.25 -0.45,-0.44 0,-0.26 0.19,-0.55 0.61,-0.55 0.66,0 1,0.51 1.38,1.08 l 0.74,1.16 0.48,-1.33 c 0.15,-0.43 0.38,-0.91 0.86,-0.91 0.68,0 1.21,1.13 1.36,1.31 l -0.17,0.12 c -0.25,-0.51 -0.53,-0.68 -0.72,-0.68 -0.53,0 -0.8,1.6 -1.15,2.33 l 0.64,1 c 0.17,0.26 0.3,0.45 0.65,0.45 0.2,0 0.26,-0.1 0.52,-0.1 0.31,0 0.46,0.27 0.46,0.49 0,0.25 -0.2,0.39 -0.57,0.39 -0.6,0 -1.01,-0.52 -1.32,-0.99 z" style="fill:#000000;stroke-width:0" /></g>  <g ns0:preamble="/Users/ABaker/cmep/Inkscape/underground-inkscape-preamble.tex" ns0:text="$1$" word-spacing="normal" letter-spacing="normal" font-size-adjust="none" font-stretch="normal" font-weight="normal" font-variant="normal" font-style="normal" stroke-miterlimit="10.433" xml:space="preserve" transform="matrix(2,0,0,-2,-87.362056,1179.6388)" id="g3773" style="font-style:normal;font-variant:normal;font-weight:normal;font-stretch:normal;letter-spacing:normal;word-spacing:normal;text-anchor:start;fill:none;fill-opacity:1;fill-rule:evenodd;stroke:#000000;stroke-linecap:butt;stroke-linejoin:miter;stroke-miterlimit:10.43299961;stroke-dasharray:none;stroke-dashoffset:0;stroke-opacity:1"><path id="path3775" d="m 228.08,477.23 0,0.18 c -0.88,0 -1.12,0.21 -1.12,0.72 l 0,7.05 -0.1,0.04 -2.12,-1.08 0,-0.16 0.32,0.11 c 0.21,0.09 0.41,0.15 0.53,0.15 0.25,0 0.36,-0.18 0.36,-0.58 l 0,-5.3 c 0,-0.65 -0.25,-0.9 -1.13,-0.95 l 0,-0.18 z" style="fill:#000000;stroke-width:0" /></g>  <g style="font-style:normal;font-variant:normal;font-weight:normal;font-stretch:normal;letter-spacing:normal;word-spacing:normal;text-anchor:start;fill:none;fill-opacity:1;fill-rule:evenodd;stroke:#000000;stroke-linecap:butt;stroke-linejoin:miter;stroke-miterlimit:10.43299961;stroke-dasharray:none;stroke-dashoffset:0;stroke-opacity:1" id="g3913" transform="matrix(2.4506185,0,0,-2.4506184,-172.53562,1224.7547)" xml:space="preserve" stroke-miterlimit="10.433" font-style="normal" font-variant="normal" font-weight="normal" font-stretch="normal" font-size-adjust="none" letter-spacing="normal" word-spacing="normal" ns0:text="$y = \\dfrac{1}{x} - 1$" ns0:preamble="/Users/ABaker/cmep/Inkscape/underground-inkscape-preamble.tex"><path style="fill:#000000;stroke-width:0" d="m 226.62,477.04 -0.01,0.08 -0.01,0.07 -0.01,0.08 -0.01,0.07 -0.01,0.07 -0.01,0.06 -0.01,0.06 -0.01,0.06 -0.01,0.06 -0.01,0.06 -0.01,0.05 -0.01,0.05 -0.01,0.05 -0.01,0.05 -0.02,0.05 -0.01,0.04 -0.01,0.05 -0.02,0.04 -0.01,0.04 -0.01,0.04 -0.04,0.07 -0.03,0.08 -0.04,0.07 -0.04,0.07 -0.04,0.07 -0.05,0.08 -1.77,-0.3 0.02,-0.19 c 0.11,0.01 0.3,0.05 0.43,0.05 0.66,0 0.76,-0.71 0.82,-1.24 l 0.45,-3.71 c -0.31,-0.47 -0.98,-1.2 -1.18,-1.2 -0.19,0 -0.16,0.36 -0.67,0.36 -0.16,0 -0.47,-0.13 -0.47,-0.48 0,-0.28 0.22,-0.65 0.66,-0.65 0.8,0 1.57,1.16 2.43,2.24 0.5,0.63 2.41,3.46 2.41,4.38 0,0.46 -0.3,0.74 -0.67,0.74 -0.35,0 -0.56,-0.22 -0.56,-0.48 0,-0.45 0.61,-0.56 0.61,-0.81 0,-0.21 -0.09,-0.45 -0.33,-0.89 -0.26,-0.48 -0.67,-1.19 -1.39,-2.17 z" id="path3915" /><polygon style="fill:#000000;stroke-width:0" points="239.59,477.97 232.64,477.97 232.64,477.19 239.59,477.19 " id="polygon3917" /><polygon style="fill:#000000;stroke-width:0" points="239.59,475.61 232.64,475.61 232.64,474.83 239.59,474.83 " id="polygon3919" /><path style="fill:#000000;stroke-width:0" d="m 249.1,479.19 0,0.18 c -0.88,0 -1.12,0.21 -1.12,0.72 l 0,7.04 -0.1,0.04 -2.12,-1.07 0,-0.17 0.32,0.12 c 0.21,0.08 0.41,0.14 0.53,0.14 0.25,0 0.36,-0.18 0.36,-0.58 l 0,-5.3 c 0,-0.65 -0.25,-0.9 -1.13,-0.94 l 0,-0.18 z" id="path3921" /><line style="stroke-width:0.65799999" x1="244.14999" y1="475.89999" x2="250.67" y2="475.89999" id="line3923" /><path style="fill:#000000;stroke-width:0" d="m 247.76,469.84 -0.24,0.65 c -0.14,0.39 -0.37,0.87 -0.89,1.15 l -1.55,-0.39 0.03,-0.21 c 0.12,0.05 0.3,0.07 0.45,0.07 0.65,0 0.96,-0.48 1.16,-1.05 l 0.39,-1.08 -0.77,-1.2 c -0.38,-0.58 -0.69,-0.69 -0.83,-0.69 -0.29,0 -0.25,0.23 -0.55,0.23 -0.3,0 -0.45,-0.25 -0.45,-0.43 0,-0.26 0.19,-0.56 0.61,-0.56 0.66,0 1.01,0.51 1.38,1.09 l 0.75,1.15 0.47,-1.33 c 0.15,-0.42 0.38,-0.91 0.86,-0.91 0.69,0 1.22,1.13 1.36,1.31 l -0.17,0.12 c -0.24,-0.51 -0.53,-0.67 -0.72,-0.67 -0.53,0 -0.8,1.59 -1.15,2.32 l 0.65,1.01 c 0.16,0.25 0.29,0.44 0.65,0.44 0.2,0 0.26,-0.1 0.52,-0.1 0.3,0 0.46,0.27 0.46,0.49 0,0.25 -0.2,0.39 -0.58,0.39 -0.59,0 -1.01,-0.52 -1.31,-0.99 z" id="path3925" /><polygon style="fill:#000000;stroke-width:0" points="261.41,476.79 254.84,476.79 254.84,476.01 261.41,476.01 " id="polygon3927" /><path style="fill:#000000;stroke-width:0" d="m 269.05,473.41 0,0.18 c -0.88,0 -1.12,0.21 -1.12,0.72 l 0,7.05 -0.11,0.03 -2.11,-1.07 0,-0.17 0.32,0.12 c 0.21,0.08 0.41,0.14 0.53,0.14 0.25,0 0.35,-0.18 0.35,-0.58 l 0,-5.3 c 0,-0.65 -0.24,-0.89 -1.12,-0.94 l 0,-0.18 z" id="path3929" /></g></svg>