<?xml version='1.0' ?><svg xmlns:ns0="http://www.iki.fi/pav/software/textext/" xmlns:dc="http://purl.org/dc/elements/1.1/" xmlns:cc="http://creativecommons.org/ns#" xmlns:rdf="http://www.w3.org/1999/02/22-rdf-syntax-ns#" xmlns:svg="http://www.w3.org/2000/svg" xmlns="http://www.w3.org/2000/svg" id="svg2" version="1.1" width="398.66666" height="314.12309" viewBox="0.0 1.9460601998283756e-5 546.9999908528428 430.99999221571903" preserveAspectRatio="none">
  <metadata id="metadata76">
    <rdf:RDF>
      <cc:Work rdf:about="">
        <dc:format>image/svg+xml</dc:format>
        <dc:type rdf:resource="http://purl.org/dc/dcmitype/StillImage" />
        <dc:title />
      </cc:Work>
    </rdf:RDF>
  </metadata>
  <defs id="defs74" />
  <g id="g6" stroke-miterlimit="10.000" stroke-dashoffset="0.0000" stroke-dasharray="none" stroke-linejoin="miter" stroke-linecap="square" stroke-width="1.0000">
    <clipPath id="clip1">
      <path id="path9" d="M 0.0000 0.0000 L 0.0000 431.00 L 547.00 431.00 L 547.00 0.0000 z" />
    </clipPath>
    <g id="g11" clip-path="url(#clip1)">
      <g id="g13" stroke-opacity="1.0000" stroke-linecap="butt" stroke-width="2.0000" stroke="#000000" fill="none">
        <path id="path15" d="M 265.13 3.0000 L 265.13 431.00" />
      </g>
    </g>
    <clipPath id="clip2">
      <path id="path18" d="M 0.0000 0.0000 L 0.0000 431.00 L 547.00 431.00 L 547.00 0.0000 z" />
    </clipPath>
    <g id="g20" clip-path="url(#clip2)">
      <g id="g22" stroke="none" fill-rule="evenodd" fill-opacity="1.0000" fill="#000000">
        <path id="path24" d="M 265.13 2.0000 L 260.13 22.000 L 270.13 22.000" />
      </g>
    </g>
    <clipPath id="clip3">
      <path id="path27" d="M 0.0000 0.0000 L 0.0000 431.00 L 547.00 431.00 L 547.00 0.0000 z" />
    </clipPath>
    <g id="g29" clip-path="url(#clip3)">
      <g id="g31" stroke-opacity="1.0000" stroke-linecap="butt" stroke-width="2.0000" stroke="#000000" fill="none">
        <path id="path33" d="M 0.0000 372.78 L 544.00 372.78" />
      </g>
    </g>
    <clipPath id="clip4">
      <path id="path36" d="M 0.0000 0.0000 L 0.0000 431.00 L 547.00 431.00 L 547.00 0.0000 z" />
    </clipPath>
    <g id="g38" clip-path="url(#clip4)">
      <g id="g40" stroke="none" fill-rule="evenodd" fill-opacity="1.0000" fill="#000000">
        <path id="path42" d="M 545.00 372.78 L 525.00 367.78 L 525.00 377.78" />
      </g>
    </g>
    <g id="misc" />
    <g id="layer0">
      <clipPath id="clip5">
        <path id="path47" d="M 0.0000 0.0000 L 0.0000 431.00 L 547.00 431.00 L 547.00 0.0000 z" />
      </clipPath>
      <g id="g49" clip-path="url(#clip5)">
        <g id="g51" stroke-opacity="1.0000" stroke-linejoin="round" stroke-linecap="round" stroke-width="4.5000" stroke="#006400" fill="none">
          <path id="path53" d="M 0.0000 170.04 L 4.2734 174.32 L 8.5469 178.59 L 12.820 182.86 L 17.094 187.14 L 21.367 191.41 L 25.641 195.68 L 29.914 199.96 L 34.188 204.23 L 38.461 208.50 L 42.734 212.78 L 47.008 217.05 L 51.281 221.32 L 55.555 225.60 L 59.828 229.87 L 64.102 234.14 L 68.375 238.42 L 72.648 242.69 L 76.922 246.96 L 81.195 251.24 L 85.469 255.51 L 89.742 259.79 L 94.016 264.06 L 98.289 268.33 L 102.56 272.61 L 106.84 276.88 L 111.11 281.15 L 115.38 285.43 L 119.66 289.70 L 123.93 293.97 L 128.20 298.25 L 132.48 302.52 L 136.75 306.79 L 141.02 311.07 L 145.30 315.34 L 149.57 319.61 L 153.84 323.89 L 158.12 328.16 L 162.39 332.43 L 166.66 336.71 L 170.94 340.98 L 175.21 345.25 L 179.48 349.53 L 183.76 353.80 L 188.03 358.07 L 192.30 362.35 L 196.58 366.62 L 200.85 370.89 L 202.99 372.53 L 203.52 371.99 L 204.06 371.46 L 205.12 370.39 L 209.40 366.12 L 213.67 361.84 L 217.95 357.57 L 222.22 353.30 L 226.49 349.02 L 230.77 344.75 L 235.04 340.48 L 239.31 336.20 L 243.59 331.93 L 247.86 327.66 L 252.13 323.38 L 256.41 319.11 L 260.68 314.83 L 264.95 310.56 L 269.23 306.29 L 273.50 302.01 L 277.77 297.74 L 282.05 293.47 L 286.32 289.19 L 290.59 284.92 L 294.87 280.65 L 299.14 276.37 L 303.41 272.10 L 307.69 267.83 L 311.96 263.55 L 316.23 259.28 L 320.51 255.01 L 324.78 250.73 L 329.05 246.46 L 333.33 242.19 L 337.60 237.91 L 341.88 233.64 L 346.15 229.37 L 350.42 225.09 L 354.70 220.82 L 358.97 216.55 L 363.24 212.27 L 367.52 208.00 L 371.79 203.73 L 376.06 199.45 L 380.34 195.18 L 384.61 190.91 L 388.88 186.63 L 393.16 182.36 L 397.43 178.08 L 401.70 173.81 L 405.98 169.54 L 410.25 165.26 L 414.52 160.99 L 418.80 156.72 L 423.07 152.44 L 427.34 148.17 L 431.62 143.90 L 435.89 139.62 L 440.16 135.35 L 444.44 131.08 L 448.71 126.80 L 452.98 122.53 L 457.26 118.26 L 461.53 113.98 L 465.80 109.71 L 470.08 105.44 L 474.35 101.16 L 478.62 96.890 L 482.90 92.616 L 487.17 88.343 L 491.45 84.069 L 495.72 79.796 L 499.99 75.522 L 504.27 71.249 L 508.54 66.975 L 512.81 62.702 L 517.09 58.429 L 521.36 54.155 L 525.63 49.882 L 529.91 45.608 L 534.18 41.335 L 538.45 37.061 L 542.73 32.788 L 547.00 28.515" />
          <title id="title55">Function f</title>
          <desc id="desc57">f(x) = abs(x + 1)</desc>
        </g>
      </g>
      <clipPath id="clip6">
        <path id="path60" d="M 0.0000 0.0000 L 0.0000 431.00 L 547.00 431.00 L 547.00 0.0000 z" />
      </clipPath>
      <g id="g62" clip-path="url(#clip6)">
        <g id="g64" stroke-opacity="1.0000" stroke-linejoin="round" stroke-linecap="round" stroke-width="4.5000" stroke="#000000" fill="none">
          <path id="path66" d="M 136.75 -8.7829 L 141.02 -.23604 L 145.30 8.3108 L 149.57 16.858 L 153.84 25.405 L 158.12 33.951 L 162.39 42.498 L 166.66 51.045 L 170.94 59.592 L 175.21 68.139 L 179.48 76.686 L 183.76 85.233 L 188.03 93.780 L 192.30 102.33 L 196.58 110.87 L 200.85 119.42 L 205.12 127.97 L 209.40 136.51 L 213.67 145.06 L 217.95 153.61 L 222.22 162.15 L 226.49 170.70 L 230.77 179.25 L 235.04 187.80 L 239.31 196.34 L 243.59 204.89 L 247.86 213.44 L 252.13 221.98 L 256.41 230.53 L 260.68 239.08 L 264.95 247.62 L 269.23 256.17 L 273.50 264.72 L 277.77 273.26 L 282.05 281.81 L 286.32 290.36 L 290.59 298.90 L 294.87 307.45 L 299.14 316.00 L 303.41 324.55 L 307.69 333.09 L 311.96 341.64 L 316.23 350.19 L 320.51 358.73 L 324.78 367.28 L 326.92 371.55 L 327.45 372.62 L 327.99 371.87 L 329.05 369.73 L 333.33 361.18 L 337.60 352.64 L 341.88 344.09 L 346.15 335.54 L 350.42 327.00 L 354.70 318.45 L 358.97 309.90 L 363.24 301.36 L 367.52 292.81 L 371.79 284.26 L 376.06 275.72 L 380.34 267.17 L 384.61 258.62 L 388.88 250.07 L 393.16 241.53 L 397.43 232.98 L 401.70 224.43 L 405.98 215.89 L 410.25 207.34 L 414.52 198.79 L 418.80 190.25 L 423.07 181.70 L 427.34 173.15 L 431.62 164.61 L 435.89 156.06 L 440.16 147.51 L 444.44 138.97 L 448.71 130.42 L 452.98 121.87 L 457.26 113.32 L 461.53 104.78 L 465.80 96.231 L 470.08 87.684 L 474.35 79.137 L 478.62 70.590 L 482.90 62.044 L 487.17 53.497 L 491.45 44.950 L 495.72 36.403 L 499.99 27.856 L 504.27 19.309 L 508.54 10.762 L 512.81 2.2154 L 517.09 -6.3315" />
          <title id="title68">Function g</title>
          <desc id="desc70">g(x) = 2abs(x - 1)</desc>
        </g>
      </g>
    </g>
  </g>
  <g ns0:preamble="/Users/ABaker/cmep/Inkscape/underground-inkscape-preamble.tex" ns0:text="$x$" word-spacing="normal" letter-spacing="normal" font-size-adjust="none" font-stretch="normal" font-weight="normal" font-variant="normal" font-style="normal" stroke-miterlimit="10.433" xml:space="preserve" transform="matrix(2,0,0,-2,76.029809,1347.4499)" id="content" style="font-style:normal;font-variant:normal;font-weight:normal;font-stretch:normal;letter-spacing:normal;word-spacing:normal;text-anchor:start;fill:none;fill-opacity:1;fill-rule:evenodd;stroke:#000000;stroke-linecap:butt;stroke-linejoin:miter;stroke-miterlimit:10.43299961;stroke-dasharray:none;stroke-dashoffset:0;stroke-opacity:1"><path id="path3447" d="m 227.03,480.64 -0.23,0.64 c -0.15,0.39 -0.37,0.88 -0.89,1.16 l -1.56,-0.39 0.04,-0.21 c 0.12,0.05 0.29,0.07 0.45,0.07 0.65,0 0.95,-0.48 1.15,-1.05 l 0.39,-1.09 -0.76,-1.19 c -0.38,-0.58 -0.69,-0.7 -0.83,-0.7 -0.3,0 -0.25,0.24 -0.55,0.24 -0.3,0 -0.45,-0.25 -0.45,-0.44 0,-0.26 0.19,-0.55 0.61,-0.55 0.66,0 1,0.51 1.38,1.08 l 0.74,1.16 0.48,-1.33 c 0.15,-0.43 0.38,-0.91 0.86,-0.91 0.68,0 1.21,1.13 1.36,1.31 l -0.17,0.12 c -0.25,-0.51 -0.53,-0.68 -0.72,-0.68 -0.53,0 -0.8,1.6 -1.15,2.33 l 0.64,1 c 0.17,0.26 0.3,0.45 0.65,0.45 0.2,0 0.26,-0.1 0.52,-0.1 0.31,0 0.46,0.27 0.46,0.49 0,0.25 -0.2,0.39 -0.57,0.39 -0.6,0 -1.01,-0.52 -1.32,-0.99 z" style="fill:#000000;stroke-width:0" /></g>  <g style="font-style:normal;font-variant:normal;font-weight:normal;font-stretch:normal;letter-spacing:normal;word-spacing:normal;text-anchor:start;fill:none;fill-opacity:1;fill-rule:evenodd;stroke:#000000;stroke-linecap:butt;stroke-linejoin:miter;stroke-miterlimit:10.43299961;stroke-dasharray:none;stroke-dashoffset:0;stroke-opacity:1" id="g3535" transform="matrix(2,0,0,-2,-202.42006,971.58846)" xml:space="preserve" stroke-miterlimit="10.433" font-style="normal" font-variant="normal" font-weight="normal" font-stretch="normal" font-size-adjust="none" letter-spacing="normal" word-spacing="normal" ns0:text="$y$" ns0:preamble="/Users/ABaker/cmep/Inkscape/underground-inkscape-preamble.tex"><path style="fill:#000000;stroke-width:0" d="m 226.62,480.86 -0.01,0.08 -0.01,0.08 -0.01,0.07 -0.01,0.07 -0.01,0.07 -0.01,0.07 -0.01,0.06 -0.01,0.06 -0.01,0.06 -0.01,0.05 -0.01,0.06 -0.01,0.05 -0.01,0.05 -0.01,0.04 -0.02,0.05 -0.01,0.05 -0.01,0.04 -0.02,0.04 -0.01,0.04 -0.01,0.04 -0.04,0.08 -0.03,0.07 -0.04,0.08 -0.04,0.07 -0.04,0.07 -0.05,0.07 -1.77,-0.3 0.02,-0.18 c 0.11,0.01 0.3,0.04 0.43,0.04 0.66,0 0.76,-0.71 0.82,-1.24 l 0.45,-3.7 c -0.31,-0.48 -0.98,-1.21 -1.18,-1.21 -0.19,0 -0.16,0.37 -0.67,0.37 -0.16,0 -0.47,-0.13 -0.47,-0.49 0,-0.28 0.22,-0.64 0.66,-0.64 0.8,0 1.57,1.15 2.43,2.24 0.5,0.62 2.41,3.46 2.41,4.38 0,0.46 -0.3,0.73 -0.67,0.73 -0.35,0 -0.56,-0.21 -0.56,-0.47 0,-0.45 0.61,-0.57 0.61,-0.82 0,-0.21 -0.09,-0.45 -0.33,-0.88 -0.26,-0.49 -0.67,-1.19 -1.39,-2.18 z" id="path3537" /></g>  <g ns0:preamble="/Users/ABaker/cmep/Inkscape/underground-inkscape-preamble.tex" ns0:text="$y = |x+1|$" word-spacing="normal" letter-spacing="normal" font-size-adjust="none" font-stretch="normal" font-weight="normal" font-variant="normal" font-style="normal" stroke-miterlimit="10.433" xml:space="preserve" transform="matrix(2,0,0,-2,-411.9467,1145.275)" id="g3629" style="font-style:normal;font-variant:normal;font-weight:normal;font-stretch:normal;letter-spacing:normal;word-spacing:normal;text-anchor:start;fill:none;fill-opacity:1;fill-rule:evenodd;stroke:#000000;stroke-linecap:butt;stroke-linejoin:miter;stroke-miterlimit:10.43299961;stroke-dasharray:none;stroke-dashoffset:0;stroke-opacity:1"><path id="path3631" d="m 226.62,480.86 -0.01,0.08 -0.01,0.08 -0.01,0.07 -0.01,0.07 -0.01,0.07 -0.01,0.07 -0.01,0.06 -0.01,0.06 -0.01,0.06 -0.01,0.05 -0.01,0.06 -0.01,0.05 -0.01,0.05 -0.01,0.04 -0.02,0.05 -0.01,0.05 -0.01,0.04 -0.02,0.04 -0.01,0.04 -0.01,0.04 -0.04,0.08 -0.03,0.07 -0.04,0.08 -0.04,0.07 -0.04,0.07 -0.05,0.07 -1.77,-0.3 0.02,-0.18 c 0.11,0.01 0.3,0.04 0.43,0.04 0.66,0 0.76,-0.71 0.82,-1.24 l 0.45,-3.7 c -0.31,-0.48 -0.98,-1.21 -1.18,-1.21 -0.19,0 -0.16,0.37 -0.67,0.37 -0.16,0 -0.47,-0.13 -0.47,-0.49 0,-0.28 0.22,-0.64 0.66,-0.64 0.8,0 1.57,1.15 2.43,2.24 0.5,0.62 2.41,3.46 2.41,4.38 0,0.46 -0.3,0.73 -0.67,0.73 -0.35,0 -0.56,-0.21 -0.56,-0.47 0,-0.45 0.61,-0.57 0.61,-0.82 0,-0.21 -0.09,-0.45 -0.33,-0.88 -0.26,-0.49 -0.67,-1.19 -1.39,-2.18 z" style="fill:#000000;stroke-width:0" /><polygon id="polygon3633" points="232.64,481.79 232.64,481.01 239.59,481.01 239.59,481.79 " style="fill:#000000;stroke-width:0" /><polygon id="polygon3635" points="232.64,479.43 232.64,478.65 239.59,478.65 239.59,479.43 " style="fill:#000000;stroke-width:0" /><polygon id="polygon3637" points="244.46,485.38 244.46,475 245.24,475 245.24,485.38 " style="fill:#000000;stroke-width:0" /><path id="path3639" d="m 250.35,480.64 -0.24,0.64 c -0.14,0.39 -0.36,0.88 -0.88,1.16 l -1.56,-0.39 0.04,-0.21 c 0.11,0.05 0.29,0.07 0.44,0.07 0.65,0 0.96,-0.48 1.16,-1.05 l 0.39,-1.09 -0.77,-1.19 c -0.38,-0.58 -0.68,-0.7 -0.82,-0.7 -0.3,0 -0.25,0.24 -0.56,0.24 -0.29,0 -0.45,-0.25 -0.45,-0.44 0,-0.26 0.19,-0.55 0.62,-0.55 0.66,0 1,0.51 1.38,1.08 l 0.74,1.16 0.47,-1.33 c 0.16,-0.43 0.38,-0.91 0.87,-0.91 0.68,0 1.21,1.13 1.35,1.31 l -0.16,0.12 c -0.25,-0.51 -0.53,-0.68 -0.72,-0.68 -0.53,0 -0.8,1.6 -1.16,2.33 l 0.65,1 c 0.17,0.26 0.3,0.45 0.65,0.45 0.2,0 0.26,-0.1 0.52,-0.1 0.31,0 0.46,0.27 0.46,0.49 0,0.25 -0.2,0.39 -0.58,0.39 -0.59,0 -1,-0.52 -1.31,-0.99 z" style="fill:#000000;stroke-width:0" /><polygon id="polygon3641" points="259.91,480.61 259.91,483.69 259.13,483.69 259.13,480.61 256.05,480.61 256.05,479.83 259.13,479.83 259.13,476.75 259.91,476.75 259.91,479.83 262.99,479.83 262.99,480.61 " style="fill:#000000;stroke-width:0" /><path id="path3643" d="m 270.45,477.23 0,0.18 c -0.88,0 -1.12,0.21 -1.12,0.72 l 0,7.05 -0.11,0.04 -2.11,-1.08 0,-0.16 0.32,0.11 c 0.21,0.09 0.41,0.15 0.53,0.15 0.25,0 0.36,-0.18 0.36,-0.58 l 0,-5.3 c 0,-0.65 -0.25,-0.9 -1.13,-0.95 l 0,-0.18 z" style="fill:#000000;stroke-width:0" /><polygon id="polygon3645" points="273.22,485.38 273.22,475 274,475 274,485.38 " style="fill:#000000;stroke-width:0" /></g>  <g style="font-style:normal;font-variant:normal;font-weight:normal;font-stretch:normal;letter-spacing:normal;word-spacing:normal;text-anchor:start;fill:none;fill-opacity:1;fill-rule:evenodd;stroke:#000000;stroke-linecap:butt;stroke-linejoin:miter;stroke-miterlimit:10.43299961;stroke-dasharray:none;stroke-dashoffset:0;stroke-opacity:1" id="g3755" transform="matrix(2,0,0,-2,-407.35181,1005.5906)" xml:space="preserve" stroke-miterlimit="10.433" font-style="normal" font-variant="normal" font-weight="normal" font-stretch="normal" font-size-adjust="none" letter-spacing="normal" word-spacing="normal" ns0:text="$y = 2|x-1|$" ns0:preamble="/Users/ABaker/cmep/Inkscape/underground-inkscape-preamble.tex"><path style="fill:#000000;stroke-width:0" d="m 226.62,480.86 -0.01,0.08 -0.01,0.08 -0.01,0.07 -0.01,0.07 -0.01,0.07 -0.01,0.07 -0.01,0.06 -0.01,0.06 -0.01,0.06 -0.01,0.05 -0.01,0.06 -0.01,0.05 -0.01,0.05 -0.01,0.04 -0.02,0.05 -0.01,0.05 -0.01,0.04 -0.02,0.04 -0.01,0.04 -0.01,0.04 -0.04,0.08 -0.03,0.07 -0.04,0.08 -0.04,0.07 -0.04,0.07 -0.05,0.07 -1.77,-0.3 0.02,-0.18 c 0.11,0.01 0.3,0.04 0.43,0.04 0.66,0 0.76,-0.71 0.82,-1.24 l 0.45,-3.7 c -0.31,-0.48 -0.98,-1.21 -1.18,-1.21 -0.19,0 -0.16,0.37 -0.67,0.37 -0.16,0 -0.47,-0.13 -0.47,-0.49 0,-0.28 0.22,-0.64 0.66,-0.64 0.8,0 1.57,1.15 2.43,2.24 0.5,0.62 2.41,3.46 2.41,4.38 0,0.46 -0.3,0.73 -0.67,0.73 -0.35,0 -0.56,-0.21 -0.56,-0.47 0,-0.45 0.61,-0.57 0.61,-0.82 0,-0.21 -0.09,-0.45 -0.33,-0.88 -0.26,-0.49 -0.67,-1.19 -1.39,-2.18 z" id="path3757" /><polygon style="fill:#000000;stroke-width:0" points="232.64,481.79 232.64,481.01 239.59,481.01 239.59,481.79 " id="polygon3759" /><polygon style="fill:#000000;stroke-width:0" points="232.64,479.43 232.64,478.65 239.59,478.65 239.59,479.43 " id="polygon3761" /><path style="fill:#000000;stroke-width:0" d="m 248.55,478.85 -0.16,0.07 c -0.39,-0.66 -0.64,-0.79 -1.13,-0.79 l -2.77,0 1.95,2.08 c 1.05,1.11 1.51,1.99 1.51,2.93 0,1.17 -0.85,2.08 -2.18,2.08 -1.45,0 -2.21,-0.97 -2.46,-2.35 l 0.25,-0.06 c 0.47,1.15 0.89,1.53 1.73,1.53 1.01,0 1.65,-0.59 1.65,-1.66 0,-1.01 -0.43,-1.9 -1.54,-3.07 l -2.1,-2.23 0,-0.15 4.62,0 z" id="path3763" /><polygon style="fill:#000000;stroke-width:0" points="250.38,485.38 250.38,475 251.16,475 251.16,485.38 " id="polygon3765" /><path style="fill:#000000;stroke-width:0" d="m 256.27,480.64 -0.23,0.64 c -0.14,0.39 -0.37,0.88 -0.89,1.16 l -1.56,-0.39 0.04,-0.21 c 0.12,0.05 0.29,0.07 0.45,0.07 0.65,0 0.95,-0.48 1.16,-1.05 l 0.38,-1.09 -0.76,-1.19 c -0.38,-0.58 -0.69,-0.7 -0.83,-0.7 -0.29,0 -0.25,0.24 -0.55,0.24 -0.3,0 -0.45,-0.25 -0.45,-0.44 0,-0.26 0.19,-0.55 0.61,-0.55 0.66,0 1,0.51 1.38,1.08 l 0.75,1.16 0.47,-1.33 c 0.15,-0.43 0.38,-0.91 0.86,-0.91 0.69,0 1.22,1.13 1.36,1.31 l -0.17,0.12 c -0.24,-0.51 -0.53,-0.68 -0.72,-0.68 -0.53,0 -0.8,1.6 -1.15,2.33 l 0.65,1 c 0.16,0.26 0.29,0.45 0.64,0.45 0.21,0 0.26,-0.1 0.52,-0.1 0.31,0 0.46,0.27 0.46,0.49 0,0.25 -0.2,0.39 -0.58,0.39 -0.59,0 -1,-0.52 -1.31,-0.99 z" id="path3767" /><polygon style="fill:#000000;stroke-width:0" points="262.16,480.61 262.16,479.83 268.74,479.83 268.74,480.61 " id="polygon3769" /><path style="fill:#000000;stroke-width:0" d="m 276.38,477.23 0,0.18 c -0.89,0 -1.13,0.21 -1.13,0.72 l 0,7.05 -0.1,0.04 -2.11,-1.08 0,-0.16 0.31,0.11 c 0.22,0.09 0.42,0.15 0.54,0.15 0.24,0 0.35,-0.18 0.35,-0.58 l 0,-5.3 c 0,-0.65 -0.25,-0.9 -1.12,-0.95 l 0,-0.18 z" id="path3771" /><polygon style="fill:#000000;stroke-width:0" points="279.15,485.38 279.15,475 279.93,475 279.93,485.38 " id="polygon3773" /></g>  <g ns0:preamble="/Users/ABaker/cmep/Inkscape/underground-inkscape-preamble.tex" ns0:text="$1$" word-spacing="normal" letter-spacing="normal" font-size-adjust="none" font-stretch="normal" font-weight="normal" font-variant="normal" font-style="normal" stroke-miterlimit="10.433" xml:space="preserve" transform="matrix(2,0,0,-2,-124.80326,1350.9993)" id="g3458" style="font-style:normal;font-variant:normal;font-weight:normal;font-stretch:normal;letter-spacing:normal;word-spacing:normal;text-anchor:start;fill:none;fill-opacity:1;fill-rule:evenodd;stroke:#000000;stroke-linecap:butt;stroke-linejoin:miter;stroke-miterlimit:10.43299961;stroke-dasharray:none;stroke-dashoffset:0;stroke-opacity:1"><path id="path3460" d="m 228.08,477.23 0,0.18 c -0.88,0 -1.12,0.21 -1.12,0.72 l 0,7.05 -0.1,0.04 -2.12,-1.08 0,-0.16 0.32,0.11 c 0.21,0.09 0.41,0.15 0.53,0.15 0.25,0 0.36,-0.18 0.36,-0.58 l 0,-5.3 c 0,-0.65 -0.25,-0.9 -1.13,-0.95 l 0,-0.18 z" style="fill:#000000;stroke-width:0" /></g>  <g style="font-style:normal;font-variant:normal;font-weight:normal;font-stretch:normal;letter-spacing:normal;word-spacing:normal;text-anchor:start;fill:none;fill-opacity:1;fill-rule:evenodd;stroke:#000000;stroke-linecap:butt;stroke-linejoin:miter;stroke-miterlimit:10.43299961;stroke-dasharray:none;stroke-dashoffset:0;stroke-opacity:1" id="g3612" transform="matrix(2,0,0,-2,-201.4395,1272.3574)" xml:space="preserve" stroke-miterlimit="10.433" font-style="normal" font-variant="normal" font-weight="normal" font-stretch="normal" font-size-adjust="none" letter-spacing="normal" word-spacing="normal" ns0:text="$1$" ns0:preamble="/Users/ABaker/cmep/Inkscape/underground-inkscape-preamble.tex"><path style="fill:#000000;stroke-width:0" d="m 228.08,477.23 0,0.18 c -0.88,0 -1.12,0.21 -1.12,0.72 l 0,7.05 -0.1,0.04 -2.12,-1.08 0,-0.16 0.32,0.11 c 0.21,0.09 0.41,0.15 0.53,0.15 0.25,0 0.36,-0.18 0.36,-0.58 l 0,-5.3 c 0,-0.65 -0.25,-0.9 -1.13,-0.95 l 0,-0.18 z" id="path3614" /></g>  <g ns0:preamble="/Users/ABaker/cmep/Inkscape/underground-inkscape-preamble.tex" ns0:text="$2$" word-spacing="normal" letter-spacing="normal" font-size-adjust="none" font-stretch="normal" font-weight="normal" font-variant="normal" font-style="normal" stroke-miterlimit="10.433" xml:space="preserve" transform="matrix(2,0,0,-2,-200.43667,1208.1762)" id="g3752" style="font-style:normal;font-variant:normal;font-weight:normal;font-stretch:normal;letter-spacing:normal;word-spacing:normal;text-anchor:start;fill:none;fill-opacity:1;fill-rule:evenodd;stroke:#000000;stroke-linecap:butt;stroke-linejoin:miter;stroke-miterlimit:10.43299961;stroke-dasharray:none;stroke-dashoffset:0;stroke-opacity:1"><path id="path3754" d="m 229.03,478.85 -0.17,0.07 c -0.39,-0.66 -0.63,-0.79 -1.13,-0.79 l -2.76,0 1.94,2.08 c 1.06,1.11 1.52,1.99 1.52,2.93 0,1.17 -0.85,2.08 -2.19,2.08 -1.45,0 -2.21,-0.97 -2.45,-2.35 l 0.24,-0.06 c 0.48,1.15 0.89,1.53 1.74,1.53 1,0 1.64,-0.59 1.64,-1.66 0,-1.01 -0.42,-1.9 -1.53,-3.07 l -2.11,-2.23 0,-0.15 4.62,0 z" style="fill:#000000;stroke-width:0" /></g>  <g style="font-style:normal;font-variant:normal;font-weight:normal;font-stretch:normal;letter-spacing:normal;word-spacing:normal;text-anchor:start;fill:none;fill-opacity:1;fill-rule:evenodd;stroke:#000000;stroke-linecap:butt;stroke-linejoin:miter;stroke-miterlimit:10.43299961;stroke-dasharray:none;stroke-dashoffset:0;stroke-opacity:1" id="g3896" transform="matrix(2,0,0,-2,-265.03894,1351.9522)" xml:space="preserve" stroke-miterlimit="10.433" font-style="normal" font-variant="normal" font-weight="normal" font-stretch="normal" font-size-adjust="none" letter-spacing="normal" word-spacing="normal" ns0:text="$-1$" ns0:preamble="/Users/ABaker/cmep/Inkscape/underground-inkscape-preamble.tex"><polygon style="fill:#000000;stroke-width:0" points="224.19,480.61 224.19,479.83 230.76,479.83 230.76,480.61 " id="polygon3898" /><path style="fill:#000000;stroke-width:0" d="m 236.2,477.23 0,0.18 c -0.89,0 -1.12,0.21 -1.12,0.72 l 0,7.05 -0.11,0.04 -2.11,-1.08 0,-0.16 0.32,0.11 c 0.21,0.09 0.41,0.15 0.53,0.15 0.25,0 0.35,-0.18 0.35,-0.58 l 0,-5.3 c 0,-0.65 -0.24,-0.9 -1.12,-0.95 l 0,-0.18 z" id="path3900" /></g>  <path id="path3980" d="m 264.62131,309.75803 -7.13053,0" style="fill:none;fill-rule:evenodd;stroke:#000000;stroke-width:1.4635452px;stroke-linecap:butt;stroke-linejoin:miter;stroke-opacity:1" />
  <path id="path3984" d="m 257.88692,246.37568 7.32859,0.19806 0,0 z" style="fill:none;fill-rule:evenodd;stroke:#000000;stroke-width:1.4635452px;stroke-linecap:butt;stroke-linejoin:miter;stroke-opacity:1" />
</svg>