<?xml version='1.0' ?><svg xmlns:ns0="http://www.iki.fi/pav/software/textext/" xmlns:dc="http://purl.org/dc/elements/1.1/" xmlns:cc="http://creativecommons.org/ns#" xmlns:rdf="http://www.w3.org/1999/02/22-rdf-syntax-ns#" xmlns:svg="http://www.w3.org/2000/svg" xmlns="http://www.w3.org/2000/svg" id="svg2" version="1.1" width="397.25294" height="259.41607" viewBox="0.0 4.6757190727647925e-6 561.9999786622074 366.99999200668896" preserveAspectRatio="none">
  <metadata id="metadata102">
    <rdf:RDF>
      <cc:Work rdf:about="">
        <dc:format>image/svg+xml</dc:format>
        <dc:type rdf:resource="http://purl.org/dc/dcmitype/StillImage" />
      </cc:Work>
    </rdf:RDF>
  </metadata>
  <defs id="defs100" />
  <title id="title4" />
  <g id="g6" stroke-linecap="square" stroke-miterlimit="10.000" stroke-width="1.0000" stroke-dasharray="none" stroke-dashoffset="0.0000" stroke-linejoin="miter">
    <clipPath id="clip1">
      <path id="path9" d="M 0.0000 0.0000 L 0.0000 367.00 L 564.00 367.00 L 564.00 0.0000 z" />
    </clipPath>
    <g id="g11" clip-path="url(#clip1)">
      <g id="g13" stroke="#000000" stroke-opacity="1.0000" fill="none" stroke-linecap="butt" stroke-width="2.0000">
        <path id="path15" d="M 79.409 3.0000 L 79.409 367.00" />
      </g>
    </g>
    <clipPath id="clip2">
      <path id="path18" d="M 0.0000 0.0000 L 0.0000 367.00 L 564.00 367.00 L 564.00 0.0000 z" />
    </clipPath>
    <g id="g20" clip-path="url(#clip2)">
      <g id="g22" fill="#000000" stroke="none" fill-rule="evenodd" fill-opacity="1.0000">
        <path id="path24" d="M 79.409 2.0000 L 74.409 22.000 L 84.409 22.000" />
      </g>
    </g>
    <clipPath id="clip3">
      <path id="path27" d="M 0.0000 0.0000 L 0.0000 367.00 L 564.00 367.00 L 564.00 0.0000 z" />
    </clipPath>
    <g id="g29" clip-path="url(#clip3)">
      <g id="g31" stroke="#000000" stroke-opacity="1.0000" fill="none" stroke-linecap="butt" stroke-width="2.0000">
        <path id="path33" d="M 0.0000 186.32 L 561.00 186.32" />
      </g>
    </g>
    <clipPath id="clip4">
      <path id="path36" d="M 0.0000 0.0000 L 0.0000 367.00 L 564.00 367.00 L 564.00 0.0000 z" />
    </clipPath>
    <g id="g38" clip-path="url(#clip4)">
      <g id="g40" fill="#000000" stroke="none" fill-rule="evenodd" fill-opacity="1.0000">
        <path id="path42" d="M 562.00 186.32 L 542.00 181.32 L 542.00 191.32" />
      </g>
    </g>
    <g id="misc" />
    <g id="layer0">
      <clipPath id="clip5">
        <path id="path47" d="M 0.0000 0.0000 L 0.0000 367.00 L 564.00 367.00 L 564.00 0.0000 z" />
      </clipPath>
      <g id="g49" clip-path="url(#clip5)">
        <g id="g51" stroke="#000000" stroke-opacity="1.0000" fill="none" stroke-linecap="round" stroke-width="3.5000" stroke-linejoin="round">
          <path id="path53" d="M 111.19 -242.73 C 238.32 520.03 365.44 520.03 492.57 -242.73" />
          <title id="title55">Parabola c</title>
          <desc id="desc57">c: y = xÃ&#131;Â&#130;Ã&#130;Â² - 7x + 10</desc>
        </g>
      </g>
      <clipPath id="clip6">
        <path id="path60" d="M 0.0000 0.0000 L 0.0000 367.00 L 564.00 367.00 L 564.00 0.0000 z" />
      </clipPath>
      <g id="g62" clip-path="url(#clip6)">
        <g id="g64" stroke="#0000ff" stroke-opacity="1.0000" fill="none" stroke-linecap="round" stroke-width="4.5000" stroke-linejoin="round">
          <path id="path66" d="M 215.01 186.32 L 388.65 186.32" />
          <title id="title68">Segment f</title>
          <desc id="desc70">Segment f: Segment [C, D]</desc>
        </g>
      </g>
      <clipPath id="clip7">
        <path id="path73" d="M 0.0000 0.0000 L 0.0000 367.00 L 564.00 367.00 L 564.00 0.0000 z" />
      </clipPath>
      <g id="g75" clip-path="url(#clip7)">
        <g id="g77" stroke="#0000ff" stroke-opacity="1.0000" fill="none" stroke-width="3.5000">
          <path id="path79" d="M 213.53 186.32 C 213.53 190.19 210.40 193.32 206.53 193.32 C 202.67 193.32 199.53 190.19 199.53 186.32 C 199.53 182.46 202.67 179.32 206.53 179.32 C 210.40 179.32 213.53 182.46 213.53 186.32 z" />
          <title id="title81">Point A</title>
          <desc id="desc83">A = (2, 0)</desc>
        </g>
      </g>
      <clipPath id="clip8">
        <path id="path86" d="M 0.0000 0.0000 L 0.0000 367.00 L 564.00 367.00 L 564.00 0.0000 z" />
      </clipPath>
      <g id="g88" clip-path="url(#clip8)">
        <g id="g90" stroke="#0000ff" stroke-opacity="1.0000" fill="none" stroke-width="3.5000">
          <path id="path92" d="M 404.22 186.32 C 404.22 190.19 401.09 193.32 397.22 193.32 C 393.36 193.32 390.22 190.19 390.22 186.32 C 390.22 182.46 393.36 179.32 397.22 179.32 C 401.09 179.32 404.22 182.46 404.22 186.32 z" />
          <title id="title94">Point B</title>
          <desc id="desc96">B = (5, 0)</desc>
        </g>
      </g>
    </g>
  </g>
  <g ns0:preamble="/Users/ABaker/cmep/Inkscape/underground-inkscape-preamble.tex" ns0:text="$2$" word-spacing="normal" letter-spacing="normal" font-size-adjust="none" font-stretch="normal" font-weight="normal" font-variant="normal" font-style="normal" stroke-miterlimit="10.433" xml:space="preserve" transform="matrix(2,0,0,-2,-252.64752,1168.6284)" id="content" style="font-style:normal;font-variant:normal;font-weight:normal;font-stretch:normal;letter-spacing:normal;word-spacing:normal;text-anchor:start;fill:none;fill-opacity:1;fill-rule:evenodd;stroke:#000000;stroke-linecap:butt;stroke-linejoin:miter;stroke-miterlimit:10.43299961;stroke-dasharray:none;stroke-dashoffset:0;stroke-opacity:1"><path id="path3487" d="m 229.03,478.85 -0.17,0.07 c -0.39,-0.66 -0.63,-0.79 -1.13,-0.79 l -2.76,0 1.94,2.08 c 1.06,1.11 1.52,1.99 1.52,2.93 0,1.17 -0.85,2.08 -2.19,2.08 -1.45,0 -2.21,-0.97 -2.45,-2.35 l 0.24,-0.06 c 0.48,1.15 0.89,1.53 1.74,1.53 1,0 1.64,-0.59 1.64,-1.66 0,-1.01 -0.42,-1.9 -1.53,-3.07 l -2.11,-2.23 0,-0.15 4.62,0 z" style="fill:#000000;stroke-width:0" /></g>  <g style="font-style:normal;font-variant:normal;font-weight:normal;font-stretch:normal;letter-spacing:normal;word-spacing:normal;text-anchor:start;fill:none;fill-opacity:1;fill-rule:evenodd;stroke:#000000;stroke-linecap:butt;stroke-linejoin:miter;stroke-miterlimit:10.43299961;stroke-dasharray:none;stroke-dashoffset:0;stroke-opacity:1" id="g3603" transform="matrix(2,0,0,-2,-50.932861,1170.1835)" xml:space="preserve" stroke-miterlimit="10.433" font-style="normal" font-variant="normal" font-weight="normal" font-stretch="normal" font-size-adjust="none" letter-spacing="normal" word-spacing="normal" ns0:text="$5$" ns0:preamble="/Users/ABaker/cmep/Inkscape/underground-inkscape-preamble.tex"><path style="fill:#000000;stroke-width:0" d="m 228.6,485.27 -0.1,0.09 c -0.19,-0.25 -0.3,-0.31 -0.57,-0.31 l -2.44,0 -1.29,-2.8 c 0,0 -0.01,-0.03 -0.01,-0.06 0,-0.07 0.03,-0.09 0.14,-0.09 1.13,0 1.96,-0.38 2.51,-0.83 0.54,-0.42 0.79,-1.01 0.79,-1.77 0,-1.01 -0.76,-1.99 -1.59,-1.99 -0.24,0 -0.51,0.1 -0.84,0.37 -0.38,0.31 -0.6,0.37 -0.87,0.37 -0.33,0 -0.53,-0.15 -0.53,-0.45 0,-0.45 0.61,-0.73 1.5,-0.73 0.8,0 1.45,0.18 2,0.58 0.81,0.59 1.16,1.32 1.16,2.45 0,0.63 -0.11,1.08 -0.41,1.5 -0.67,0.94 -1.26,1.2 -2.95,1.51 l 0.47,1.01 2.29,0 c 0.19,0 0.28,0.07 0.32,0.15 z" id="path3605" /></g>  <g ns0:preamble="/Users/ABaker/cmep/Inkscape/underground-inkscape-preamble.tex" ns0:text="$x$" word-spacing="normal" letter-spacing="normal" font-size-adjust="none" font-stretch="normal" font-weight="normal" font-variant="normal" font-style="normal" stroke-miterlimit="10.433" xml:space="preserve" transform="matrix(2,0,0,-2,92.501371,1160.3092)" id="g3725" style="font-style:normal;font-variant:normal;font-weight:normal;font-stretch:normal;letter-spacing:normal;word-spacing:normal;text-anchor:start;fill:none;fill-opacity:1;fill-rule:evenodd;stroke:#000000;stroke-linecap:butt;stroke-linejoin:miter;stroke-miterlimit:10.43299961;stroke-dasharray:none;stroke-dashoffset:0;stroke-opacity:1"><path id="path3727" d="m 227.03,480.64 -0.23,0.64 c -0.15,0.39 -0.37,0.88 -0.89,1.16 l -1.56,-0.39 0.04,-0.21 c 0.12,0.05 0.29,0.07 0.45,0.07 0.65,0 0.95,-0.48 1.15,-1.05 l 0.39,-1.09 -0.76,-1.19 c -0.38,-0.58 -0.69,-0.7 -0.83,-0.7 -0.3,0 -0.25,0.24 -0.55,0.24 -0.3,0 -0.45,-0.25 -0.45,-0.44 0,-0.26 0.19,-0.55 0.61,-0.55 0.66,0 1,0.51 1.38,1.08 l 0.74,1.16 0.48,-1.33 c 0.15,-0.43 0.38,-0.91 0.86,-0.91 0.68,0 1.21,1.13 1.36,1.31 l -0.17,0.12 c -0.25,-0.51 -0.53,-0.68 -0.72,-0.68 -0.53,0 -0.8,1.6 -1.15,2.33 l 0.64,1 c 0.17,0.26 0.3,0.45 0.65,0.45 0.2,0 0.26,-0.1 0.52,-0.1 0.31,0 0.46,0.27 0.46,0.49 0,0.25 -0.2,0.39 -0.57,0.39 -0.6,0 -1.01,-0.52 -1.32,-0.99 z" style="fill:#000000;stroke-width:0" /></g>  <g style="font-style:normal;font-variant:normal;font-weight:normal;font-stretch:normal;letter-spacing:normal;word-spacing:normal;text-anchor:start;fill:none;fill-opacity:1;fill-rule:evenodd;stroke:#000000;stroke-linecap:butt;stroke-linejoin:miter;stroke-miterlimit:10.43299961;stroke-dasharray:none;stroke-dashoffset:0;stroke-opacity:1" id="g3851" transform="matrix(2,0,0,-2,-390.14095,972.41766)" xml:space="preserve" stroke-miterlimit="10.433" font-style="normal" font-variant="normal" font-weight="normal" font-stretch="normal" font-size-adjust="none" letter-spacing="normal" word-spacing="normal" ns0:text="$y$" ns0:preamble="/Users/ABaker/cmep/Inkscape/underground-inkscape-preamble.tex"><path style="fill:#000000;stroke-width:0" d="m 226.62,480.86 -0.01,0.08 -0.01,0.08 -0.01,0.07 -0.01,0.07 -0.01,0.07 -0.01,0.07 -0.01,0.06 -0.01,0.06 -0.01,0.06 -0.01,0.05 -0.01,0.06 -0.01,0.05 -0.01,0.05 -0.01,0.04 -0.02,0.05 -0.01,0.05 -0.01,0.04 -0.02,0.04 -0.01,0.04 -0.01,0.04 -0.04,0.08 -0.03,0.07 -0.04,0.08 -0.04,0.07 -0.04,0.07 -0.05,0.07 -1.77,-0.3 0.02,-0.18 c 0.11,0.01 0.3,0.04 0.43,0.04 0.66,0 0.76,-0.71 0.82,-1.24 l 0.45,-3.7 c -0.31,-0.48 -0.98,-1.21 -1.18,-1.21 -0.19,0 -0.16,0.37 -0.67,0.37 -0.16,0 -0.47,-0.13 -0.47,-0.49 0,-0.28 0.22,-0.64 0.66,-0.64 0.8,0 1.57,1.15 2.43,2.24 0.5,0.62 2.41,3.46 2.41,4.38 0,0.46 -0.3,0.73 -0.67,0.73 -0.35,0 -0.56,-0.21 -0.56,-0.47 0,-0.45 0.61,-0.57 0.61,-0.82 0,-0.21 -0.09,-0.45 -0.33,-0.88 -0.26,-0.49 -0.67,-1.19 -1.39,-2.18 z" id="path3853" /></g></svg>