<?xml version='1.0' ?><svg xmlns:ns0="http://www.iki.fi/pav/software/textext/" xmlns:dc="http://purl.org/dc/elements/1.1/" xmlns:cc="http://creativecommons.org/ns#" xmlns:rdf="http://www.w3.org/1999/02/22-rdf-syntax-ns#" xmlns:svg="http://www.w3.org/2000/svg" xmlns="http://www.w3.org/2000/svg" id="svg2" version="1.1" width="398.66666" height="259.41607" viewBox="0.0 4.6757190727647925e-6 563.9999905685618 366.99999200668896" preserveAspectRatio="none">
  <metadata id="metadata206">
    <rdf:RDF>
      <cc:Work rdf:about="">
        <dc:format>image/svg+xml</dc:format>
        <dc:type rdf:resource="http://purl.org/dc/dcmitype/StillImage" />
      </cc:Work>
    </rdf:RDF>
  </metadata>
  <defs id="defs204" />
  <title id="title4" />
  <g stroke-width="1.0000" stroke-linecap="square" stroke-linejoin="miter" stroke-dasharray="none" stroke-dashoffset="0.0000" id="g6" stroke-miterlimit="10.000">
    <clipPath id="clip1">
      <path id="path9" d="M 0.0000 0.0000 L 0.0000 367.00 L 564.00 367.00 L 564.00 0.0000 z" />
    </clipPath>
    <g id="g11" clip-path="url(#clip1)">
      <g fill="none" stroke="#000000" stroke-width="2.0000" stroke-linecap="butt" stroke-opacity="1.0000" id="g13">
        <path id="path15" d="M 310.22 3.0000 L 310.22 367.00" />
      </g>
    </g>
    <clipPath id="clip2">
      <path id="path18" d="M 0.0000 0.0000 L 0.0000 367.00 L 564.00 367.00 L 564.00 0.0000 z" />
    </clipPath>
    <g id="g20" clip-path="url(#clip2)">
      <g fill="#000000" fill-opacity="1.0000" fill-rule="evenodd" stroke="none" id="g22">
        <path id="path24" d="M 310.22 2.0000 L 305.22 22.000 L 315.22 22.000" />
      </g>
    </g>
    <clipPath id="clip3">
      <path id="path27" d="M 0.0000 0.0000 L 0.0000 367.00 L 564.00 367.00 L 564.00 0.0000 z" />
    </clipPath>
    <g id="g29" clip-path="url(#clip3)">
      <g fill="none" stroke="#000000" stroke-width="2.0000" stroke-linecap="butt" stroke-opacity="1.0000" id="g31">
        <path id="path33" d="M 0.0000 194.57 L 561.00 194.57" />
      </g>
    </g>
    <clipPath id="clip4">
      <path id="path36" d="M 0.0000 0.0000 L 0.0000 367.00 L 564.00 367.00 L 564.00 0.0000 z" />
    </clipPath>
    <g id="g38" clip-path="url(#clip4)">
      <g fill="#000000" fill-opacity="1.0000" fill-rule="evenodd" stroke="none" id="g40">
        <path id="path42" d="M 562.00 194.57 L 542.00 189.57 L 542.00 199.57" />
      </g>
    </g>
    <g id="misc" />
    <g id="layer0">
      <clipPath id="clip5">
        <path id="path47" d="M 0.0000 0.0000 L 0.0000 367.00 L 564.00 367.00 L 564.00 0.0000 z" />
      </clipPath>
      <g id="g49" clip-path="url(#clip5)">
        <g fill="none" stroke="#000000" stroke-width="3.5000" stroke-linecap="round" stroke-linejoin="round" stroke-opacity="1.0000" id="g51">
          <path id="path53" d="M 0.0000 178.27 L 4.4062 178.50 L 8.8125 178.73 L 13.219 178.98 L 17.625 179.24 L 22.031 179.51 L 26.438 179.78 L 30.844 180.08 L 35.250 180.38 L 39.656 180.70 L 44.062 181.03 L 48.469 181.37 L 52.875 181.74 L 57.281 182.12 L 61.688 182.52 L 66.094 182.94 L 70.500 183.38 L 74.906 183.85 L 79.312 184.34 L 83.719 184.87 L 88.125 185.42 L 92.531 186.01 L 96.938 186.64 L 101.34 187.31 L 105.75 188.03 L 110.16 188.80 L 114.56 189.63 L 118.97 190.53 L 123.38 191.50 L 127.78 192.55 L 132.19 193.71 L 136.59 194.97 L 141.00 196.36 L 145.41 197.90 L 149.81 199.62 L 154.22 201.54 L 158.62 203.72 L 163.03 206.21 L 167.44 209.08 L 171.84 212.43 L 176.25 216.39 L 180.66 221.15 L 185.06 227.00 L 189.47 234.35 L 193.88 243.91 L 196.08 249.85 L 198.28 256.85 L 200.48 265.21 L 201.59 270.04 L 202.69 275.40 L 203.79 281.37 L 204.89 288.07 L 205.99 295.65 L 207.09 304.29 L 208.20 314.23 L 208.75 319.78 L 209.30 325.79 L 209.85 332.30 L 210.40 339.40 L 210.95 347.15 L 211.50 355.67 L 212.05 365.06 L 212.33 370.12 L 212.60 375.46 M 233.53 -13.608 L 234.08 -4.3854 L 234.63 3.9875 L 235.18 11.623 L 235.73 18.616 L 236.29 25.043 L 236.84 30.972 L 237.39 36.459 L 237.94 41.552 L 239.04 50.715 L 240.14 58.730 L 241.24 65.804 L 242.34 72.094 L 243.45 77.727 L 244.55 82.802 L 246.75 91.587 L 248.95 98.936 L 251.16 105.19 L 253.36 110.57 L 255.56 115.28 L 259.97 123.13 L 264.38 129.46 L 268.78 134.72 L 273.19 139.23 L 277.59 143.17 L 282.00 146.69 L 286.41 149.92 L 290.81 152.93 L 295.22 155.81 L 299.62 158.61 L 304.03 161.40 L 308.44 164.23 L 312.84 167.19 L 317.25 170.34 L 321.66 173.80 L 326.06 177.69 L 330.47 182.20 L 334.88 187.62 L 339.28 194.40 L 343.69 203.28 L 345.89 208.90 L 348.09 215.66 L 350.30 223.98 L 351.40 228.91 L 352.50 234.49 L 353.60 240.88 L 354.70 248.25 L 355.80 256.88 L 356.36 261.77 L 356.91 267.12 L 357.46 272.99 L 358.01 279.47 L 358.56 286.65 L 359.11 294.67 L 359.66 303.67 L 359.94 308.60 L 360.21 313.86 L 360.49 319.47 L 360.76 325.47 L 361.04 331.92 L 361.31 338.85 L 361.59 346.33 L 361.86 354.43 L 362.14 363.21 L 362.41 372.79 M 377.01 -8.5159 L 377.29 -3.4301 L 377.84 5.8413 L 378.39 14.080 L 378.94 21.450 L 379.49 28.083 L 380.04 34.084 L 380.59 39.541 L 381.14 44.524 L 382.24 53.297 L 383.34 60.777 L 384.45 67.232 L 385.55 72.860 L 387.75 82.205 L 389.95 89.658 L 392.16 95.746 L 396.56 105.11 L 400.97 112.00 L 405.38 117.30 L 409.78 121.51 L 414.19 124.94 L 418.59 127.81 L 423.00 130.24 L 427.41 132.33 L 431.81 134.15 L 436.22 135.75 L 440.62 137.17 L 445.03 138.44 L 449.44 139.59 L 453.84 140.63 L 458.25 141.58 L 462.66 142.45 L 467.06 143.25 L 471.47 143.99 L 475.88 144.67 L 480.28 145.31 L 484.69 145.91 L 489.09 146.46 L 493.50 146.99 L 497.91 147.48 L 502.31 147.94 L 506.72 148.38 L 511.12 148.79 L 515.53 149.18 L 519.94 149.56 L 524.34 149.91 L 528.75 150.25 L 533.16 150.57 L 537.56 150.88 L 541.97 151.17 L 546.38 151.45 L 550.78 151.72 L 555.19 151.98 L 559.59 152.23 L 564.00 152.47" />
          <title id="title55">Function f</title>
          <desc id="desc57">f(x) = (xÃ&#131;Â&#130;Ã&#130;Â² + 5x - 6) / ((x - 2) (x + 3))</desc>
        </g>
      </g>
      <clipPath id="clip6">
        <path id="path60" d="M 0.0000 0.0000 L 0.0000 367.00 L 564.00 367.00 L 564.00 0.0000 z" />
      </clipPath>
      <g id="g62" clip-path="url(#clip6)">
        <g fill="none" stroke="#000000" stroke-linecap="butt" stroke-linejoin="round" stroke-opacity="1.0000" stroke-dasharray="9.0000,8.0000" id="g64">
          <path id="path66" d="M 368.54 372.00 L 368.54 -5.0000" />
          <title id="title68">Line g</title>
          <desc id="desc70">g: x = 2</desc>
        </g>
      </g>
      <clipPath id="clip7">
        <path id="path73" d="M 0.0000 0.0000 L 0.0000 367.00 L 564.00 367.00 L 564.00 0.0000 z" />
      </clipPath>
      <g id="g75" clip-path="url(#clip7)">
        <g fill="none" stroke="#000000" stroke-linecap="butt" stroke-linejoin="round" stroke-opacity="1.0000" stroke-dasharray="9.0000,8.0000" id="g77">
          <path id="path79" d="M 222.74 372.00 L 222.74 -5.0000" />
          <title id="title81">Line h</title>
          <desc id="desc83">h: x = -3</desc>
        </g>
      </g>
      <clipPath id="clip8">
        <path id="path86" d="M 0.0000 0.0000 L 0.0000 367.00 L 564.00 367.00 L 564.00 0.0000 z" />
      </clipPath>
      <g id="g88" clip-path="url(#clip8)">
        <g fill="none" stroke="#0000ff" stroke-width="4.5000" stroke-linecap="round" stroke-linejoin="round" stroke-opacity="1.0000" id="g90">
          <path id="path92" d="M 135.26 194.57 L 0.0000 194.57" />
          <title id="title94">Ray i</title>
          <desc id="desc96">Ray i: Ray through A, E</desc>
        </g>
      </g>
      <clipPath id="clip9">
        <path id="path99" d="M 0.0000 0.0000 L 0.0000 367.00 L 564.00 367.00 L 564.00 0.0000 z" />
      </clipPath>
      <g id="g101" clip-path="url(#clip9)">
        <g fill="none" stroke="#0000ff" stroke-width="4.5000" stroke-linecap="round" stroke-linejoin="round" stroke-opacity="1.0000" id="g103">
          <path id="path105" d="M 232.00 194.57 L 339.38 194.57" />
          <title id="title107">Segment j</title>
          <desc id="desc109">Segment j: Segment [F, B]</desc>
        </g>
      </g>
      <clipPath id="clip10">
        <path id="path112" d="M 0.0000 0.0000 L 0.0000 367.00 L 564.00 367.00 L 564.00 0.0000 z" />
      </clipPath>
      <g id="g114" clip-path="url(#clip10)">
        <g fill="none" stroke="#0000ff" stroke-width="4.5000" stroke-linecap="round" stroke-linejoin="round" stroke-opacity="1.0000" id="g116">
          <path id="path118" d="M 378.00 194.57 L 564.00 194.57" />
          <title id="title120">Ray k</title>
          <desc id="desc122">Ray k: Ray through G, H</desc>
        </g>
      </g>
      <clipPath id="clip11">
        <path id="path125" d="M 0.0000 0.0000 L 0.0000 367.00 L 564.00 367.00 L 564.00 0.0000 z" />
      </clipPath>
      <g id="g127" clip-path="url(#clip11)">
        <g fill="#0000ff" fill-opacity="1.0000" fill-rule="nonzero" stroke="none" id="g129">
          <path id="path131" d="M 142.26 194.57 C 142.26 198.44 139.12 201.57 135.26 201.57 C 131.39 201.57 128.26 198.44 128.26 194.57 C 128.26 190.71 131.39 187.57 135.26 187.57 C 139.12 187.57 142.26 190.71 142.26 194.57 z" />
          <title id="title133">Point A</title>
          <desc id="desc135">Point A: Intersection point of f, xAxis with initial value (-6, 0)</desc>
        </g>
      </g>
      <clipPath id="clip12">
        <path id="path138" d="M 0.0000 0.0000 L 0.0000 367.00 L 564.00 367.00 L 564.00 0.0000 z" />
      </clipPath>
      <g id="g140" clip-path="url(#clip12)">
        <g fill="none" stroke="#000000" stroke-linecap="round" stroke-linejoin="round" stroke-opacity="1.0000" id="g142">
          <path id="path144" d="M 142.26 194.57 C 142.26 198.44 139.12 201.57 135.26 201.57 C 131.39 201.57 128.26 198.44 128.26 194.57 C 128.26 190.71 131.39 187.57 135.26 187.57 C 139.12 187.57 142.26 190.71 142.26 194.57 z" />
          <title id="title146">Point A</title>
          <desc id="desc148">Point A: Intersection point of f, xAxis with initial value (-6, 0)</desc>
        </g>
      </g>
      <clipPath id="clip13">
        <path id="path151" d="M 0.0000 0.0000 L 0.0000 367.00 L 564.00 367.00 L 564.00 0.0000 z" />
      </clipPath>
      <g id="g153" clip-path="url(#clip13)">
        <g fill="#0000ff" fill-opacity="1.0000" fill-rule="nonzero" stroke="none" id="g155">
          <path id="path157" d="M 346.38 194.57 C 346.38 198.44 343.25 201.57 339.38 201.57 C 335.52 201.57 332.38 198.44 332.38 194.57 C 332.38 190.71 335.52 187.57 339.38 187.57 C 343.25 187.57 346.38 190.71 346.38 194.57 z" />
          <title id="title159">Point B</title>
          <desc id="desc161">Point B: Intersection point of f, xAxis with initial value (1, 0)</desc>
        </g>
      </g>
      <clipPath id="clip14">
        <path id="path164" d="M 0.0000 0.0000 L 0.0000 367.00 L 564.00 367.00 L 564.00 0.0000 z" />
      </clipPath>
      <g id="g166" clip-path="url(#clip14)">
        <g fill="none" stroke="#000000" stroke-linecap="round" stroke-linejoin="round" stroke-opacity="1.0000" id="g168">
          <path id="path170" d="M 346.38 194.57 C 346.38 198.44 343.25 201.57 339.38 201.57 C 335.52 201.57 332.38 198.44 332.38 194.57 C 332.38 190.71 335.52 187.57 339.38 187.57 C 343.25 187.57 346.38 190.71 346.38 194.57 z" />
          <title id="title172">Point B</title>
          <desc id="desc174">Point B: Intersection point of f, xAxis with initial value (1, 0)</desc>
        </g>
      </g>
      <clipPath id="clip15">
        <path id="path177" d="M 0.0000 0.0000 L 0.0000 367.00 L 564.00 367.00 L 564.00 0.0000 z" />
      </clipPath>
      <g id="g179" clip-path="url(#clip15)">
        <g fill="none" stroke="#0000ff" stroke-width="3.5000" stroke-opacity="1.0000" id="g181">
          <path id="path183" d="M 229.74 194.57 C 229.74 198.44 226.60 201.57 222.74 201.57 C 218.87 201.57 215.74 198.44 215.74 194.57 C 215.74 190.71 218.87 187.57 222.74 187.57 C 226.60 187.57 229.74 190.71 229.74 194.57 z" />
          <title id="title185">Point C</title>
          <desc id="desc187">Point C: Intersection point of h, xAxis</desc>
        </g>
      </g>
      <clipPath id="clip16">
        <path id="path190" d="M 0.0000 0.0000 L 0.0000 367.00 L 564.00 367.00 L 564.00 0.0000 z" />
      </clipPath>
      <g id="g192" clip-path="url(#clip16)">
        <g fill="none" stroke="#0000ff" stroke-width="3.5000" stroke-opacity="1.0000" id="g194">
          <path id="path196" d="M 375.54 194.57 C 375.54 198.44 372.41 201.57 368.54 201.57 C 364.68 201.57 361.54 198.44 361.54 194.57 C 361.54 190.71 364.68 187.57 368.54 187.57 C 372.41 187.57 375.54 190.71 375.54 194.57 z" />
          <title id="title198">Point D</title>
          <desc id="desc200">Point D: Intersection point of g, xAxis</desc>
        </g>
      </g>
    </g>
  </g>
  <g ns0:preamble="/Users/ABaker/cmep/Inkscape/underground-inkscape-preamble.tex" ns0:text="$-6$" word-spacing="normal" letter-spacing="normal" font-size-adjust="none" font-stretch="normal" font-weight="normal" font-variant="normal" font-style="normal" stroke-miterlimit="10.433" xml:space="preserve" transform="matrix(2,0,0,-2,-331.55638,1174.1305)" id="content" style="font-style:normal;font-variant:normal;font-weight:normal;font-stretch:normal;letter-spacing:normal;word-spacing:normal;text-anchor:start;fill:none;fill-opacity:1;fill-rule:evenodd;stroke:#000000;stroke-linecap:butt;stroke-linejoin:miter;stroke-miterlimit:10.43299961;stroke-dasharray:none;stroke-dashoffset:0;stroke-opacity:1"><polygon id="polygon3647" points="224.19,480.61 224.19,479.83 230.76,479.83 230.76,480.61 " style="fill:#000000;stroke-width:0" /><path id="path3649" d="m 236.81,485.31 -0.15,-0.02 -0.14,-0.01 -0.15,-0.02 -0.14,-0.02 -0.13,-0.02 -0.14,-0.03 -0.12,-0.02 -0.13,-0.02 -0.12,-0.03 -0.12,-0.03 -0.12,-0.03 -0.12,-0.03 -0.11,-0.03 -0.11,-0.04 -0.11,-0.04 -0.11,-0.04 -0.1,-0.04 -0.1,-0.05 -0.11,-0.05 -0.1,-0.05 -0.09,-0.06 -0.1,-0.05 -0.1,-0.07 -0.1,-0.06 -0.09,-0.07 -0.1,-0.07 -0.09,-0.08 -0.1,-0.08 -0.09,-0.08 -0.09,-0.09 -0.1,-0.1 -0.09,-0.09 c -0.84,-0.87 -1.29,-1.99 -1.29,-3.26 0,-0.83 0.22,-1.67 0.55,-2.27 0.42,-0.75 1.16,-1.19 2.09,-1.19 l 0.13,0.33 c -1.11,0 -1.67,1.18 -1.67,2.98 0,1.08 0.69,1.36 1.37,1.36 1.09,0 1.59,-0.77 1.59,-2.29 l 0,0 c 0,-1.2 -0.44,-2.05 -1.29,-2.05 l -0.13,-0.33 c 0.78,0 1.44,0.32 1.88,0.86 0.39,0.47 0.6,1.14 0.6,1.89 0,1.52 -0.85,2.47 -2.23,2.47 -0.52,0 -0.92,-0.09 -1.5,-0.53 0.32,1.78 1.64,3.05 3.5,3.36 z" style="fill:#000000;stroke-width:0" /></g>  <g style="font-style:normal;font-variant:normal;font-weight:normal;font-stretch:normal;letter-spacing:normal;word-spacing:normal;text-anchor:start;fill:none;fill-opacity:1;fill-rule:evenodd;stroke:#000000;stroke-linecap:butt;stroke-linejoin:miter;stroke-miterlimit:10.43299961;stroke-dasharray:none;stroke-dashoffset:0;stroke-opacity:1" id="g3879" transform="matrix(2,0,0,-2,-235.84141,1174.6963)" xml:space="preserve" stroke-miterlimit="10.433" font-style="normal" font-variant="normal" font-weight="normal" font-stretch="normal" font-size-adjust="none" letter-spacing="normal" word-spacing="normal" ns0:text="$-3$" ns0:preamble="/Users/ABaker/cmep/Inkscape/underground-inkscape-preamble.tex"><polygon style="fill:#000000;stroke-width:0" points="224.19,480.61 224.19,479.83 230.76,479.83 230.76,480.61 " id="polygon3881" /><path style="fill:#000000;stroke-width:0" d="m 232.27,483.26 0.04,0.08 0.05,0.07 0.05,0.08 0.04,0.07 0.05,0.07 0.05,0.07 0.05,0.06 0.04,0.06 0.05,0.06 0.05,0.05 0.05,0.06 0.05,0.05 0.06,0.04 0.05,0.05 0.05,0.04 0.05,0.04 0.06,0.04 0.05,0.03 0.06,0.03 0.06,0.03 0.05,0.03 0.06,0.02 0.06,0.03 0.06,0.02 0.06,0.01 0.06,0.02 0.07,0.01 0.06,0.01 0.07,0.01 0.06,0 0.07,0.01 0.07,0 c 0.78,0 1.27,-0.4 1.27,-1.21 0,-0.72 -0.38,-1.25 -0.95,-1.58 -0.24,-0.14 -0.55,-0.27 -1,-0.42 l 0,-0.17 c 0.68,0 0.95,-0.03 1.21,-0.12 0.81,-0.23 1.23,-0.81 1.23,-1.71 0,-1 -0.67,-1.81 -1.54,-1.81 -0.33,0 -0.58,0.06 -1.01,0.37 -0.33,0.24 -0.52,0.31 -0.72,0.31 -0.28,0 -0.49,-0.18 -0.49,-0.43 0,-0.42 0.46,-0.67 1.32,-0.67 1.05,0 2.18,0.34 2.74,1.1 0.35,0.45 0.55,1.03 0.55,1.65 0,0.61 -0.19,1.16 -0.52,1.52 -0.25,0.26 -0.46,0.4 -0.98,0.63 0.79,0.47 1.1,1.06 1.1,1.63 0,0.97 -0.75,1.62 -1.85,1.62 -1.23,0 -1.97,-0.8 -2.31,-1.92 z" id="path3883" /></g>  <g ns0:preamble="/Users/ABaker/cmep/Inkscape/underground-inkscape-preamble.tex" ns0:text="$2$" word-spacing="normal" letter-spacing="normal" font-size-adjust="none" font-stretch="normal" font-weight="normal" font-variant="normal" font-style="normal" stroke-miterlimit="10.433" xml:space="preserve" transform="matrix(2,0,0,-2,-76.3342,1174.7967)" id="g4119" style="font-style:normal;font-variant:normal;font-weight:normal;font-stretch:normal;letter-spacing:normal;word-spacing:normal;text-anchor:start;fill:none;fill-opacity:1;fill-rule:evenodd;stroke:#000000;stroke-linecap:butt;stroke-linejoin:miter;stroke-miterlimit:10.43299961;stroke-dasharray:none;stroke-dashoffset:0;stroke-opacity:1"><path id="path4121" d="m 229.03,478.85 -0.17,0.07 c -0.39,-0.66 -0.63,-0.79 -1.13,-0.79 l -2.76,0 1.94,2.08 c 1.06,1.11 1.52,1.99 1.52,2.93 0,1.17 -0.85,2.08 -2.19,2.08 -1.45,0 -2.21,-0.97 -2.45,-2.35 l 0.24,-0.06 c 0.48,1.15 0.89,1.53 1.74,1.53 1,0 1.64,-0.59 1.64,-1.66 0,-1.01 -0.42,-1.9 -1.53,-3.07 l -2.11,-2.23 0,-0.15 4.62,0 z" style="fill:#000000;stroke-width:0" /></g>  <g style="font-style:normal;font-variant:normal;font-weight:normal;font-stretch:normal;letter-spacing:normal;word-spacing:normal;text-anchor:start;fill:none;fill-opacity:1;fill-rule:evenodd;stroke:#000000;stroke-linecap:butt;stroke-linejoin:miter;stroke-miterlimit:10.43299961;stroke-dasharray:none;stroke-dashoffset:0;stroke-opacity:1" id="g4361" transform="matrix(2,0,0,-2,-113.92567,1174.8224)" xml:space="preserve" stroke-miterlimit="10.433" font-style="normal" font-variant="normal" font-weight="normal" font-stretch="normal" font-size-adjust="none" letter-spacing="normal" word-spacing="normal" ns0:text="$1$" ns0:preamble="/Users/ABaker/cmep/Inkscape/underground-inkscape-preamble.tex"><path style="fill:#000000;stroke-width:0" d="m 228.08,477.23 0,0.18 c -0.88,0 -1.12,0.21 -1.12,0.72 l 0,7.05 -0.1,0.04 -2.12,-1.08 0,-0.16 0.32,0.11 c 0.21,0.09 0.41,0.15 0.53,0.15 0.25,0 0.36,-0.18 0.36,-0.58 l 0,-5.3 c 0,-0.65 -0.25,-0.9 -1.13,-0.95 l 0,-0.18 z" id="path4363" /></g>  <g style="font-style:normal;font-variant:normal;font-weight:normal;font-stretch:normal;letter-spacing:normal;word-spacing:normal;text-anchor:start;fill:none;fill-opacity:1;fill-rule:evenodd;stroke:#000000;stroke-linecap:butt;stroke-linejoin:miter;stroke-miterlimit:10.43299961;stroke-dasharray:none;stroke-dashoffset:0;stroke-opacity:1" id="g3434" transform="matrix(2.6512894,0,0,-2.6512894,-586.54895,1337.0561)" xml:space="preserve" stroke-miterlimit="10.433" font-style="normal" font-variant="normal" font-weight="normal" font-stretch="normal" font-size-adjust="none" letter-spacing="normal" word-spacing="normal" ns0:text="$y=\\dfrac{x^2+5x-6}{x^2+x-6}$" ns0:preamble="/Users/ABaker/cmep/Inkscape/underground-inkscape-preamble.tex"><path style="fill:#000000;stroke-width:0" d="m 226.62,475.05 -0.01,0.08 -0.01,0.08 -0.01,0.07 -0.01,0.08 -0.01,0.06 -0.01,0.07 -0.01,0.06 -0.01,0.06 -0.01,0.06 -0.01,0.06 -0.01,0.05 -0.01,0.05 -0.01,0.05 -0.01,0.05 -0.02,0.04 -0.01,0.05 -0.01,0.04 -0.02,0.04 -0.01,0.05 -0.01,0.04 -0.04,0.07 -0.03,0.08 -0.04,0.07 -0.04,0.07 -0.04,0.07 -0.05,0.07 -1.77,-0.29 0.02,-0.19 c 0.11,0.01 0.3,0.05 0.43,0.05 0.66,0 0.76,-0.71 0.82,-1.24 l 0.45,-3.71 c -0.31,-0.47 -0.98,-1.2 -1.18,-1.2 -0.19,0 -0.16,0.36 -0.67,0.36 -0.16,0 -0.47,-0.13 -0.47,-0.48 0,-0.29 0.22,-0.65 0.66,-0.65 0.8,0 1.57,1.15 2.43,2.24 0.5,0.63 2.41,3.46 2.41,4.38 0,0.46 -0.3,0.73 -0.67,0.73 -0.35,0 -0.56,-0.21 -0.56,-0.47 0,-0.45 0.61,-0.57 0.61,-0.81 0,-0.22 -0.09,-0.45 -0.33,-0.89 -0.26,-0.48 -0.67,-1.19 -1.39,-2.17 z" id="path3436" /><polygon style="fill:#000000;stroke-width:0" points="239.59,475.98 232.64,475.98 232.64,475.21 239.59,475.21 " id="polygon3438" /><polygon style="fill:#000000;stroke-width:0" points="239.59,473.62 232.64,473.62 232.64,472.85 239.59,472.85 " id="polygon3440" /><path style="fill:#000000;stroke-width:0" d="m 247.76,480.61 -0.24,0.65 c -0.14,0.38 -0.37,0.87 -0.89,1.15 l -1.55,-0.39 0.03,-0.21 c 0.12,0.05 0.3,0.07 0.45,0.07 0.65,0 0.96,-0.48 1.16,-1.05 l 0.39,-1.09 -0.77,-1.19 c -0.38,-0.58 -0.69,-0.69 -0.83,-0.69 -0.29,0 -0.25,0.23 -0.55,0.23 -0.3,0 -0.45,-0.25 -0.45,-0.44 0,-0.26 0.19,-0.55 0.61,-0.55 0.66,0 1.01,0.51 1.38,1.09 l 0.75,1.15 0.47,-1.33 c 0.15,-0.43 0.38,-0.91 0.86,-0.91 0.69,0 1.22,1.13 1.36,1.31 l -0.17,0.12 c -0.24,-0.51 -0.53,-0.67 -0.72,-0.67 -0.53,0 -0.8,1.59 -1.15,2.32 l 0.65,1 c 0.16,0.26 0.29,0.45 0.65,0.45 0.2,0 0.26,-0.1 0.52,-0.1 0.3,0 0.46,0.27 0.46,0.49 0,0.25 -0.2,0.39 -0.58,0.39 -0.59,0 -1.01,-0.52 -1.31,-0.99 z" id="path3442" /><path style="fill:#000000;stroke-width:0" d="m 254.88,482.4 -0.12,0.06 c -0.3,-0.5 -0.49,-0.6 -0.86,-0.6 l -2.08,0 1.47,1.56 c 0.79,0.84 1.14,1.5 1.14,2.2 0,0.88 -0.64,1.56 -1.65,1.56 -1.09,0 -1.66,-0.72 -1.84,-1.76 l 0.18,-0.04 c 0.36,0.86 0.67,1.15 1.31,1.15 0.75,0 1.23,-0.45 1.23,-1.25 0,-0.76 -0.32,-1.43 -1.15,-2.31 l -1.58,-1.67 0,-0.11 3.47,0 z" id="path3444" /><polygon style="fill:#000000;stroke-width:0" points="261.38,476.72 262.16,476.72 262.16,479.8 265.24,479.8 265.24,480.58 262.16,480.58 262.16,483.66 261.38,483.66 261.38,480.58 258.3,480.58 258.3,479.8 261.38,479.8 " id="polygon3446" /><path style="fill:#000000;stroke-width:0" d="m 273.23,485.25 -0.11,0.08 c -0.19,-0.25 -0.29,-0.31 -0.57,-0.31 l -2.44,0 -1.29,-2.8 c 0,0 -0.01,-0.03 -0.01,-0.05 0,-0.08 0.04,-0.1 0.14,-0.1 1.14,0 1.96,-0.38 2.52,-0.83 0.53,-0.42 0.79,-1.01 0.79,-1.77 0,-1.01 -0.77,-1.99 -1.59,-1.99 -0.24,0 -0.51,0.1 -0.84,0.38 -0.38,0.3 -0.61,0.36 -0.88,0.36 -0.33,0 -0.53,-0.15 -0.53,-0.45 0,-0.45 0.62,-0.73 1.5,-0.73 0.8,0 1.45,0.18 2.01,0.58 0.8,0.59 1.15,1.32 1.15,2.46 0,0.62 -0.1,1.07 -0.41,1.49 -0.67,0.94 -1.26,1.2 -2.95,1.51 l 0.47,1.01 2.29,0 c 0.19,0 0.29,0.07 0.32,0.15 z" id="path3448" /><path style="fill:#000000;stroke-width:0" d="m 277.58,480.61 -0.24,0.65 c -0.14,0.38 -0.36,0.87 -0.88,1.15 l -1.56,-0.39 0.04,-0.21 c 0.11,0.05 0.29,0.07 0.44,0.07 0.65,0 0.96,-0.48 1.16,-1.05 l 0.39,-1.09 -0.77,-1.19 c -0.37,-0.58 -0.68,-0.69 -0.82,-0.69 -0.3,0 -0.25,0.23 -0.56,0.23 -0.29,0 -0.45,-0.25 -0.45,-0.44 0,-0.26 0.19,-0.55 0.62,-0.55 0.66,0 1,0.51 1.38,1.09 l 0.74,1.15 0.48,-1.33 c 0.15,-0.43 0.37,-0.91 0.86,-0.91 0.68,0 1.21,1.13 1.35,1.31 l -0.16,0.12 c -0.25,-0.51 -0.53,-0.67 -0.72,-0.67 -0.53,0 -0.8,1.59 -1.16,2.32 l 0.65,1 c 0.17,0.26 0.3,0.45 0.65,0.45 0.2,0 0.26,-0.1 0.52,-0.1 0.31,0 0.46,0.27 0.46,0.49 0,0.25 -0.2,0.39 -0.58,0.39 -0.59,0 -1,-0.52 -1.31,-0.99 z" id="path3450" /><polygon style="fill:#000000;stroke-width:0" points="290.04,480.58 283.47,480.58 283.47,479.8 290.04,479.8 " id="polygon3452" /><path style="fill:#000000;stroke-width:0" d="m 298.31,485.28 -0.15,-0.02 -0.15,-0.01 -0.14,-0.02 -0.14,-0.02 -0.14,-0.02 -0.13,-0.02 -0.13,-0.03 -0.13,-0.02 -0.12,-0.03 -0.12,-0.03 -0.12,-0.03 -0.11,-0.03 -0.11,-0.03 -0.12,-0.04 -0.1,-0.04 -0.11,-0.04 -0.11,-0.04 -0.1,-0.05 -0.1,-0.05 -0.1,-0.05 -0.1,-0.05 -0.1,-0.06 -0.09,-0.07 -0.1,-0.06 -0.1,-0.07 -0.09,-0.07 -0.1,-0.08 -0.09,-0.08 -0.09,-0.08 -0.1,-0.09 -0.09,-0.09 -0.1,-0.1 c -0.84,-0.86 -1.29,-1.99 -1.29,-3.26 0,-0.83 0.23,-1.67 0.56,-2.27 0.41,-0.75 1.16,-1.19 2.09,-1.19 l 0.13,0.33 c -1.11,0 -1.68,1.18 -1.68,2.98 0,1.08 0.7,1.37 1.37,1.37 1.1,0 1.6,-0.78 1.6,-2.29 l 0,0 c 0,-1.21 -0.44,-2.06 -1.29,-2.06 l -0.13,-0.33 c 0.78,0 1.44,0.32 1.88,0.86 0.39,0.48 0.6,1.14 0.6,1.89 0,1.52 -0.85,2.47 -2.23,2.47 -0.52,0 -0.92,-0.08 -1.5,-0.53 0.32,1.78 1.64,3.06 3.49,3.36 z" id="path3454" /><line style="stroke-width:0.65799999" x1="244.14999" y1="473.92001" x2="298.97" y2="473.92001" id="line3456" /><path style="fill:#000000;stroke-width:0" d="m 250.72,466.27 -0.24,0.65 c -0.14,0.39 -0.36,0.87 -0.88,1.16 l -1.56,-0.39 0.03,-0.21 c 0.12,0.04 0.3,0.07 0.45,0.07 0.65,0 0.96,-0.49 1.16,-1.06 l 0.39,-1.08 -0.77,-1.19 c -0.38,-0.58 -0.68,-0.7 -0.82,-0.7 -0.3,0 -0.25,0.24 -0.56,0.24 -0.3,0 -0.45,-0.25 -0.45,-0.44 0,-0.26 0.19,-0.55 0.62,-0.55 0.66,0 1,0.5 1.38,1.08 l 0.74,1.16 0.47,-1.34 c 0.16,-0.42 0.38,-0.9 0.86,-0.9 0.69,0 1.22,1.13 1.36,1.31 l -0.16,0.11 c -0.25,-0.5 -0.53,-0.67 -0.72,-0.67 -0.53,0 -0.81,1.59 -1.16,2.33 l 0.65,1 c 0.16,0.26 0.29,0.45 0.65,0.45 0.2,0 0.26,-0.11 0.52,-0.11 0.31,0 0.46,0.27 0.46,0.5 0,0.25 -0.2,0.39 -0.58,0.39 -0.59,0 -1,-0.52 -1.31,-0.99 z" id="path3458" /><path style="fill:#000000;stroke-width:0" d="m 257.84,466.82 -0.12,0.06 c -0.3,-0.5 -0.48,-0.6 -0.86,-0.6 l -2.07,0 1.46,1.56 c 0.79,0.84 1.14,1.5 1.14,2.2 0,0.88 -0.64,1.56 -1.64,1.56 -1.1,0 -1.66,-0.72 -1.85,-1.76 l 0.19,-0.05 c 0.35,0.87 0.66,1.16 1.3,1.16 0.75,0 1.23,-0.45 1.23,-1.25 0,-0.76 -0.32,-1.43 -1.15,-2.31 l -1.58,-1.67 0,-0.11 3.47,0 z" id="path3460" /><polygon style="fill:#000000;stroke-width:0" points="264.35,462.39 265.12,462.39 265.12,465.47 268.21,465.47 268.21,466.25 265.12,466.25 265.12,469.33 264.35,469.33 264.35,466.25 261.27,466.25 261.27,465.47 264.35,465.47 " id="polygon3462" /><path style="fill:#000000;stroke-width:0" d="m 274.62,466.27 -0.24,0.65 c -0.14,0.39 -0.36,0.87 -0.88,1.16 l -1.56,-0.39 0.03,-0.21 c 0.12,0.04 0.3,0.07 0.45,0.07 0.65,0 0.96,-0.49 1.16,-1.06 l 0.39,-1.08 -0.77,-1.19 c -0.38,-0.58 -0.68,-0.7 -0.82,-0.7 -0.3,0 -0.25,0.24 -0.56,0.24 -0.3,0 -0.45,-0.25 -0.45,-0.44 0,-0.26 0.19,-0.55 0.62,-0.55 0.66,0 1,0.5 1.38,1.08 l 0.74,1.16 0.47,-1.34 c 0.16,-0.42 0.38,-0.9 0.87,-0.9 0.68,0 1.21,1.13 1.35,1.31 l -0.16,0.11 c -0.25,-0.5 -0.53,-0.67 -0.72,-0.67 -0.53,0 -0.81,1.59 -1.16,2.33 l 0.65,1 c 0.17,0.26 0.29,0.45 0.65,0.45 0.2,0 0.26,-0.11 0.52,-0.11 0.31,0 0.46,0.27 0.46,0.5 0,0.25 -0.2,0.39 -0.58,0.39 -0.59,0 -1,-0.52 -1.31,-0.99 z" id="path3464" /><polygon style="fill:#000000;stroke-width:0" points="287.08,466.25 280.51,466.25 280.51,465.47 287.08,465.47 " id="polygon3466" /><path style="fill:#000000;stroke-width:0" d="m 295.35,470.95 -0.15,-0.02 -0.15,-0.02 -0.14,-0.02 -0.14,-0.02 -0.14,-0.02 -0.13,-0.02 -0.13,-0.02 -0.13,-0.03 -0.12,-0.02 -0.12,-0.03 -0.12,-0.03 -0.11,-0.03 -0.12,-0.04 -0.11,-0.03 -0.11,-0.04 -0.1,-0.04 -0.11,-0.05 -0.1,-0.04 -0.1,-0.05 -0.1,-0.05 -0.1,-0.06 -0.1,-0.06 -0.1,-0.06 -0.09,-0.07 -0.1,-0.06 -0.09,-0.08 -0.1,-0.07 -0.09,-0.08 -0.1,-0.09 -0.09,-0.09 -0.1,-0.09 -0.09,-0.1 c -0.84,-0.86 -1.29,-1.98 -1.29,-3.25 0,-0.83 0.23,-1.67 0.56,-2.27 0.41,-0.76 1.15,-1.19 2.09,-1.19 l 0.13,0.33 c -1.11,0 -1.68,1.18 -1.68,2.97 0,1.09 0.7,1.37 1.37,1.37 1.1,0 1.59,-0.78 1.59,-2.29 l 0,0 c 0,-1.2 -0.43,-2.05 -1.28,-2.05 l -0.13,-0.33 c 0.78,0 1.44,0.31 1.87,0.86 0.39,0.47 0.61,1.13 0.61,1.89 0,1.52 -0.85,2.46 -2.23,2.46 -0.52,0 -0.93,-0.08 -1.5,-0.53 0.31,1.78 1.64,3.06 3.49,3.37 z" id="path3468" /></g>  <g ns0:preamble="/Users/ABaker/cmep/Inkscape/underground-inkscape-preamble.tex" ns0:text="$y$" word-spacing="normal" letter-spacing="normal" font-size-adjust="none" font-stretch="normal" font-weight="normal" font-variant="normal" font-style="normal" stroke-miterlimit="10.433" xml:space="preserve" transform="matrix(2,0,0,-2,-158.31181,972.04976)" id="g4673" style="font-style:normal;font-variant:normal;font-weight:normal;font-stretch:normal;letter-spacing:normal;word-spacing:normal;text-anchor:start;fill:none;fill-opacity:1;fill-rule:evenodd;stroke:#000000;stroke-linecap:butt;stroke-linejoin:miter;stroke-miterlimit:10.43299961;stroke-dasharray:none;stroke-dashoffset:0;stroke-opacity:1"><path id="path4675" d="m 226.62,480.86 -0.01,0.08 -0.01,0.08 -0.01,0.07 -0.01,0.07 -0.01,0.07 -0.01,0.07 -0.01,0.06 -0.01,0.06 -0.01,0.06 -0.01,0.05 -0.01,0.06 -0.01,0.05 -0.01,0.05 -0.01,0.04 -0.02,0.05 -0.01,0.05 -0.01,0.04 -0.02,0.04 -0.01,0.04 -0.01,0.04 -0.04,0.08 -0.03,0.07 -0.04,0.08 -0.04,0.07 -0.04,0.07 -0.05,0.07 -1.77,-0.3 0.02,-0.18 c 0.11,0.01 0.3,0.04 0.43,0.04 0.66,0 0.76,-0.71 0.82,-1.24 l 0.45,-3.7 c -0.31,-0.48 -0.98,-1.21 -1.18,-1.21 -0.19,0 -0.16,0.37 -0.67,0.37 -0.16,0 -0.47,-0.13 -0.47,-0.49 0,-0.28 0.22,-0.64 0.66,-0.64 0.8,0 1.57,1.15 2.43,2.24 0.5,0.62 2.41,3.46 2.41,4.38 0,0.46 -0.3,0.73 -0.67,0.73 -0.35,0 -0.56,-0.21 -0.56,-0.47 0,-0.45 0.61,-0.57 0.61,-0.82 0,-0.21 -0.09,-0.45 -0.33,-0.88 -0.26,-0.49 -0.67,-1.19 -1.39,-2.18 z" style="fill:#000000;stroke-width:0" /></g>  <g style="font-style:normal;font-variant:normal;font-weight:normal;font-stretch:normal;letter-spacing:normal;word-spacing:normal;text-anchor:start;fill:none;fill-opacity:1;fill-rule:evenodd;stroke:#000000;stroke-linecap:butt;stroke-linejoin:miter;stroke-miterlimit:10.43299961;stroke-dasharray:none;stroke-dashoffset:0;stroke-opacity:1" id="g4959" transform="matrix(2,0,0,-2,96.858182,1171.4016)" xml:space="preserve" stroke-miterlimit="10.433" font-style="normal" font-variant="normal" font-weight="normal" font-stretch="normal" font-size-adjust="none" letter-spacing="normal" word-spacing="normal" ns0:text="$x$" ns0:preamble="/Users/ABaker/cmep/Inkscape/underground-inkscape-preamble.tex"><path style="fill:#000000;stroke-width:0" d="m 227.03,480.64 -0.23,0.64 c -0.15,0.39 -0.37,0.88 -0.89,1.16 l -1.56,-0.39 0.04,-0.21 c 0.12,0.05 0.29,0.07 0.45,0.07 0.65,0 0.95,-0.48 1.15,-1.05 l 0.39,-1.09 -0.76,-1.19 c -0.38,-0.58 -0.69,-0.7 -0.83,-0.7 -0.3,0 -0.25,0.24 -0.55,0.24 -0.3,0 -0.45,-0.25 -0.45,-0.44 0,-0.26 0.19,-0.55 0.61,-0.55 0.66,0 1,0.51 1.38,1.08 l 0.74,1.16 0.48,-1.33 c 0.15,-0.43 0.38,-0.91 0.86,-0.91 0.68,0 1.21,1.13 1.36,1.31 l -0.17,0.12 c -0.25,-0.51 -0.53,-0.68 -0.72,-0.68 -0.53,0 -0.8,1.6 -1.15,2.33 l 0.64,1 c 0.17,0.26 0.3,0.45 0.65,0.45 0.2,0 0.26,-0.1 0.52,-0.1 0.31,0 0.46,0.27 0.46,0.49 0,0.25 -0.2,0.39 -0.57,0.39 -0.6,0 -1.01,-0.52 -1.32,-0.99 z" id="path4961" /></g></svg>