<?xml version='1.0' ?><svg xmlns:ns0="http://www.iki.fi/pav/software/textext/" xmlns:dc="http://purl.org/dc/elements/1.1/" xmlns:cc="http://creativecommons.org/ns#" xmlns:rdf="http://www.w3.org/1999/02/22-rdf-syntax-ns#" xmlns:svg="http://www.w3.org/2000/svg" xmlns="http://www.w3.org/2000/svg" id="svg6278" version="1.1" width="310.7004" height="171.69629" viewBox="25.318692618571855 313.00950014993555 182.49186953220428 100.84691540095704" preserveAspectRatio="none">
  <g style="stroke:#000000;stroke-width:1.17030036;stroke-linecap:square;stroke-linejoin:miter;stroke-miterlimit:10;stroke-dasharray:none;stroke-dashoffset:0;stroke-opacity:1" transform="matrix(0.3849419,0,0,0.35036379,25.318692,317.50638)" clip-path="url(#clip1)" id="g6287">
    <g id="g6289" style="fill:none;stroke:#000000;stroke-width:1.17030036;stroke-linecap:butt;stroke-miterlimit:10;stroke-dasharray:none;stroke-opacity:1">
      <path style="stroke:#000000;stroke-width:1.17030036;stroke-miterlimit:10;stroke-dasharray:none;stroke-opacity:1" d="m 212.03,3 0,272" id="path6291" />
    </g>
  </g>
  <g style="stroke:#2b83ba;stroke-width:1.62755342;stroke-linecap:square;stroke-linejoin:miter;stroke-miterlimit:10;stroke-dasharray:none;stroke-dashoffset:0;stroke-opacity:1" id="layer0" transform="matrix(0.3849419,0,0,0.3849419,25.318692,307.9974)">
    <clipPath id="clip5">
      <path d="m 0,0 0,275 436,0 0,-275 z" id="path6323" />
    </clipPath>
    <g style="stroke:#2b83ba;stroke-width:1.62755342;stroke-miterlimit:10;stroke-dasharray:none;stroke-opacity:1" clip-path="url(#clip5)" id="g6325">
      <g id="g6327" style="fill:none;stroke:#2b83ba;stroke-width:1.62755342;stroke-linecap:round;stroke-linejoin:round;stroke-miterlimit:10;stroke-dasharray:none;stroke-opacity:1">
        <path style="stroke:#2b83ba;stroke-width:1.62755342;stroke-miterlimit:10;stroke-dasharray:none;stroke-opacity:1" d="m 34.023,58.22 8.214,5.531 7.957,5.443 7.705,5.357 7.457,5.269 7.211,5.182 6.972,5.096 6.735,5.008 6.503,4.924 6.275,4.83 6.048,4.75 5.83,4.66 5.62,4.57 5.4,4.49 5.2,4.39 4.99,4.32 4.79,4.22 4.6,4.14 4.4,4.05 4.22,3.96 4.03,3.88 3.86,3.78 3.68,3.71 3.51,3.61 3.34,3.53 3.18,3.44 3.02,3.35 2.86,3.27 2.71,3.18 2.57,3.09 2.43,3 2.28,2.92 2.15,2.83 2.03,2.75 1.89,2.65 1.77,2.57 1.66,2.48 1.54,2.4 1.43,2.31 1.33,2.22 1.22,2.13 1.12,2.05 1.03,1.96 0.95,1.87 0.85,1.79 0.78,1.69 0.7,1.62 0.62,1.52 0.55,1.44 0.49,1.35 0.43,1.26 0.37,1.18 0.32,1.08 0.27,1.01 0.23,0.91 0.18,0.83 0.15,0.74 0.11,0.65 0.09,0.57 0.1,0.87 0.04,0.52 0.05,-0.52 0.1,-0.87 0.09,-0.57 0.11,-0.65 0.15,-0.74 0.18,-0.83 0.23,-0.91 0.27,-1.01 0.32,-1.08 0.37,-1.18 0.43,-1.26 0.49,-1.35 0.55,-1.44 0.63,-1.52 0.69,-1.62 0.78,-1.69 0.85,-1.79 0.95,-1.87 1.03,-1.96 1.12,-2.05 1.22,-2.13 1.33,-2.22 1.43,-2.31 1.54,-2.4 1.66,-2.48 1.77,-2.57 1.89,-2.65 2.03,-2.75 2.15,-2.83 2.28,-2.92 2.43,-3 2.57,-3.09 2.71,-3.18 2.86,-3.27 3.02,-3.35 3.18,-3.44 3.34,-3.53 3.51,-3.61 3.68,-3.71 3.86,-3.78 4.03,-3.88 4.22,-3.96 4.4,-4.05 4.6,-4.14 4.79,-4.22 4.99,-4.32 5.2,-4.39 5.4,-4.49 5.62,-4.57 5.83,-4.66 6.05,-4.75 6.27,-4.83 6.51,-4.924 6.73,-5.008 6.97,-5.096 7.21,-5.182 7.46,-5.269 7.71,-5.357 7.95,-5.443 8.22,-5.531" id="path6329" />
      </g>
    </g>
  </g>
  <metadata id="metadata6335">
    <rdf:RDF>
      <cc:Work rdf:about="">
        <dc:format>image/svg+xml</dc:format>
        <dc:type rdf:resource="http://purl.org/dc/dcmitype/StillImage" />
        <dc:title />
      </cc:Work>
    </rdf:RDF>
  </metadata>
  <defs id="defs6333">
    <marker orient="auto" refY="0.0" refX="0.0" id="marker5810" style="overflow:visible;">
      <path id="path5812" style="fill-rule:evenodd;stroke-width:0.625;stroke-linejoin:round;stroke:#2b83ba;stroke-opacity:1;fill:#2b83ba;fill-opacity:1" d="M 8.7185878,4.0337352 L -2.2072895,0.016013256 L 8.7185884,-4.0017078 C 6.9730900,-1.6296469 6.9831476,1.6157441 8.7185878,4.0337352 z " transform="scale(1.1) rotate(180) translate(1,0)" />
    </marker>
    <marker style="overflow:visible;" id="Arrow2Lend" refX="0.0" refY="0.0" orient="auto">
      <path transform="scale(1.1) rotate(180) translate(1,0)" d="M 8.7185878,4.0337352 L -2.2072895,0.016013256 L 8.7185884,-4.0017078 C 6.9730900,-1.6296469 6.9831476,1.6157441 8.7185878,4.0337352 z " style="fill-rule:evenodd;stroke-width:0.625;stroke-linejoin:round;stroke:#2b83ba;stroke-opacity:1;fill:#2b83ba;fill-opacity:1" id="path5961" />
    </marker>
    <clipPath id="clip1">
      <path d="m 0,0 0,275 436,0 0,-275 z" id="path6285" />
    </clipPath>
    <clipPath id="clip2">
      <path d="m 0,0 0,275 436,0 0,-275 z" id="path6294" />
    </clipPath>
    <clipPath id="clip3">
      <path d="m 0,0 0,275 436,0 0,-275 z" id="path6303" />
    </clipPath>
    <clipPath id="clip4">
      <path d="m 0,0 0,275 436,0 0,-275 z" id="path6312" />
    </clipPath>
  </defs>
  <g style="stroke:#000000;stroke-width:1.11650169;stroke-linecap:square;stroke-linejoin:miter;stroke-miterlimit:10;stroke-dasharray:none;stroke-dashoffset:0;stroke-opacity:1" transform="matrix(0.3849419,0,0,0.3849419,25.318692,313.00951)" clip-path="url(#clip2)" id="g6296">
    <g transform="translate(0,-1.4055076)" id="g6298" style="fill:#000000;fill-opacity:1;fill-rule:evenodd;stroke:#000000;stroke-width:1.11650169;stroke-miterlimit:10;stroke-dasharray:none;stroke-opacity:1">
      <path style="stroke:#000000;stroke-width:1.11650169;stroke-miterlimit:10;stroke-dasharray:none;stroke-opacity:1" d="m 212.03,2 -4,16 8,0" id="path6300" />
    </g>
  </g>
  <g style="stroke:#000000;stroke-width:1.11650169;stroke-linecap:square;stroke-linejoin:miter;stroke-miterlimit:10;stroke-dasharray:none;stroke-dashoffset:0;stroke-opacity:1" clip-path="url(#clip3)" id="g6305" transform="matrix(0.3849419,0,0,0.3849419,25.318692,307.9974)">
    <g id="g6307" style="fill:none;stroke:#000000;stroke-width:1.11650169;stroke-linecap:butt;stroke-miterlimit:10;stroke-dasharray:none;stroke-opacity:1">
      <path style="stroke:#000000;stroke-width:1.11650169;stroke-miterlimit:10;stroke-dasharray:none;stroke-opacity:1" d="m 0,236.6 433,0" id="path6309" />
    </g>
  </g>
  <g style="stroke:#000000;stroke-width:1.11650169;stroke-linecap:square;stroke-linejoin:miter;stroke-miterlimit:10;stroke-dasharray:none;stroke-dashoffset:0;stroke-opacity:1" transform="matrix(0.3849419,0,0,0.3849419,25.859731,307.9974)" clip-path="url(#clip4)" id="g6314">
    <g transform="translate(3.2551068,0)" id="g6316" style="fill:#000000;fill-opacity:1;fill-rule:evenodd;stroke:#000000;stroke-width:1.11650169;stroke-miterlimit:10;stroke-dasharray:none;stroke-opacity:1">
      <path style="stroke:#000000;stroke-width:1.11650169;stroke-miterlimit:10;stroke-dasharray:none;stroke-opacity:1" d="m 434,236.6 -16,-4 0,8" id="path6318" />
    </g>
  </g>
  <g style="stroke:#000000;stroke-width:1.11650169;stroke-linecap:square;stroke-linejoin:miter;stroke-miterlimit:10;stroke-dasharray:none;stroke-dashoffset:0;stroke-opacity:1" id="misc" transform="matrix(0.3849419,0,0,0.3849419,25.318692,307.9974)" />
  <g id="g6990" transform="matrix(0.63410982,0,0,-0.63410982,-40.393671,709.02233)" xml:space="preserve" stroke-miterlimit="10.433" font-style="normal" font-variant="normal" font-weight="normal" font-stretch="normal" font-size-adjust="none" letter-spacing="normal" word-spacing="normal" ns0:text="$0$" ns0:preamble="/Users/kjb81/Documents/underground-inkscape-preamble.tex" style="font-style:normal;font-variant:normal;font-weight:normal;font-stretch:normal;letter-spacing:normal;word-spacing:normal;text-anchor:start;fill:none;fill-opacity:1;fill-rule:evenodd;stroke:#000000;stroke-linecap:butt;stroke-linejoin:miter;stroke-miterlimit:10.43299961;stroke-dasharray:none;stroke-dashoffset:0;stroke-opacity:1"><path d="m 229.05,481.13 0,0.23 -0.01,0.22 -0.02,0.21 -0.02,0.21 -0.02,0.21 -0.04,0.2 -0.04,0.19 -0.04,0.19 -0.05,0.18 -0.05,0.18 -0.06,0.17 -0.07,0.17 -0.07,0.16 -0.07,0.15 -0.08,0.14 -0.09,0.14 -0.09,0.13 -0.09,0.13 -0.1,0.11 -0.1,0.11 -0.11,0.1 -0.11,0.1 -0.11,0.08 -0.12,0.08 -0.12,0.07 -0.12,0.06 -0.13,0.05 -0.13,0.04 -0.14,0.03 -0.13,0.03 -0.15,0.01 -0.14,0.01 c -1.9,0 -2.72,-1.93 -2.72,-4.02 0,-1.93 0.66,-4.13 2.67,-4.13 l 0,0.31 c -1.01,0 -1.53,1.34 -1.53,3.74 0,2.4 0.53,3.79 1.51,3.79 1.04,0 1.56,-1.38 1.56,-3.84 l 0,0 c 0,-2.34 -0.53,-3.69 -1.54,-3.69 l 0,-0.31 c 1.93,0 2.67,2.03 2.67,4.06 z" id="path6992" style="fill:#000000;stroke-width:0" /></g>  <g id="g7462" transform="matrix(0.63410977,0,0,-0.63410977,26.286488,708.69674)" xml:space="preserve" stroke-miterlimit="10.433" font-style="normal" font-variant="normal" font-weight="normal" font-stretch="normal" font-size-adjust="none" letter-spacing="normal" word-spacing="normal" ns0:text="$x$" ns0:preamble="/Users/kjb81/Documents/underground-inkscape-preamble.tex" style="font-style:normal;font-variant:normal;font-weight:normal;font-stretch:normal;letter-spacing:normal;word-spacing:normal;text-anchor:start;fill:none;fill-opacity:1;fill-rule:evenodd;stroke:#000000;stroke-linecap:butt;stroke-linejoin:miter;stroke-miterlimit:10.43299961;stroke-dasharray:none;stroke-dashoffset:0;stroke-opacity:1"><path d="m 259.03333,480.64 -0.23,0.64 c -0.15,0.39 -0.37,0.88 -0.89,1.16 l -1.56,-0.39 0.04,-0.21 c 0.12,0.05 0.29,0.07 0.45,0.07 0.65,0 0.95,-0.48 1.15,-1.05 l 0.39,-1.09 -0.76,-1.19 c -0.38,-0.58 -0.69,-0.7 -0.83,-0.7 -0.3,0 -0.25,0.24 -0.55,0.24 -0.3,0 -0.45,-0.25 -0.45,-0.44 0,-0.26 0.19,-0.55 0.61,-0.55 0.66,0 1,0.51 1.38,1.08 l 0.74,1.16 0.48,-1.33 c 0.15,-0.43 0.38,-0.91 0.86,-0.91 0.68,0 1.21,1.13 1.36,1.31 l -0.17,0.12 c -0.25,-0.51 -0.53,-0.68 -0.72,-0.68 -0.53,0 -0.8,1.6 -1.15,2.33 l 0.64,1 c 0.17,0.26 0.3,0.45 0.65,0.45 0.2,0 0.26,-0.1 0.52,-0.1 0.31,0 0.46,0.27 0.46,0.49 0,0.25 -0.2,0.39 -0.57,0.39 -0.6,0 -1.01,-0.52 -1.32,-0.99 z" id="path7464" style="fill:#000000;stroke-width:0" /></g>  <g ns0:preamble="/Users/kjb81/Documents/underground-inkscape-preamble.tex" ns0:text="$y$" word-spacing="normal" letter-spacing="normal" font-size-adjust="none" font-stretch="normal" font-weight="normal" font-variant="normal" font-style="normal" stroke-miterlimit="10.433" xml:space="preserve" transform="matrix(0.63410977,0,0,-0.63410977,-41.520323,619.91697)" id="g7598" style="font-style:normal;font-variant:normal;font-weight:normal;font-stretch:normal;letter-spacing:normal;word-spacing:normal;text-anchor:start;fill:none;fill-opacity:1;fill-rule:evenodd;stroke:#000000;stroke-linecap:butt;stroke-linejoin:miter;stroke-miterlimit:10.43299961;stroke-dasharray:none;stroke-dashoffset:0;stroke-opacity:1"><path id="path7600" d="m 226.62,480.86 -0.01,0.08 -0.01,0.08 -0.01,0.07 -0.01,0.07 -0.01,0.07 -0.01,0.07 -0.01,0.06 -0.01,0.06 -0.01,0.06 -0.01,0.05 -0.01,0.06 -0.01,0.05 -0.01,0.05 -0.01,0.04 -0.02,0.05 -0.01,0.05 -0.01,0.04 -0.02,0.04 -0.01,0.04 -0.01,0.04 -0.04,0.08 -0.03,0.07 -0.04,0.08 -0.04,0.07 -0.04,0.07 -0.05,0.07 -1.77,-0.3 0.02,-0.18 c 0.11,0.01 0.3,0.04 0.43,0.04 0.66,0 0.76,-0.71 0.82,-1.24 l 0.45,-3.7 c -0.31,-0.48 -0.98,-1.21 -1.18,-1.21 -0.19,0 -0.16,0.37 -0.67,0.37 -0.16,0 -0.47,-0.13 -0.47,-0.49 0,-0.28 0.22,-0.64 0.66,-0.64 0.8,0 1.57,1.15 2.43,2.24 0.5,0.62 2.41,3.46 2.41,4.38 0,0.46 -0.3,0.73 -0.67,0.73 -0.35,0 -0.56,-0.21 -0.56,-0.47 0,-0.45 0.61,-0.57 0.61,-0.82 0,-0.21 -0.09,-0.45 -0.33,-0.88 -0.26,-0.49 -0.67,-1.19 -1.39,-2.18 z" style="fill:#000000;stroke-width:0" /></g>  <g id="g7724" transform="matrix(0.63410982,0,0,-0.63410982,-114.7779,630.67554)" xml:space="preserve" stroke-miterlimit="10.433" font-style="normal" font-variant="normal" font-weight="normal" font-stretch="normal" font-size-adjust="none" letter-spacing="normal" word-spacing="normal" ns0:text="$(-8,4) \\quad  (t=-2)$" ns0:preamble="/Users/kjb81/Documents/underground-inkscape-preamble.tex" style="font-style:normal;font-variant:normal;font-weight:normal;font-stretch:normal;letter-spacing:normal;word-spacing:normal;text-anchor:start;fill:none;fill-opacity:1;fill-rule:evenodd;stroke:#000000;stroke-linecap:butt;stroke-linejoin:miter;stroke-miterlimit:10.43299961;stroke-dasharray:none;stroke-dashoffset:0;stroke-opacity:1"><path style="fill:#000000;stroke-width:0" d="m 227.02,475.33 -0.15,0.13 -0.14,0.13 -0.14,0.13 -0.13,0.13 -0.12,0.13 -0.12,0.13 -0.11,0.13 -0.1,0.14 -0.1,0.13 -0.09,0.13 -0.08,0.14 -0.08,0.14 -0.07,0.14 -0.07,0.14 -0.06,0.14 -0.06,0.14 -0.06,0.15 -0.04,0.15 -0.05,0.16 -0.04,0.15 -0.03,0.16 -0.03,0.16 -0.03,0.17 -0.02,0.17 -0.03,0.17 -0.01,0.18 -0.02,0.18 -0.01,0.18 -0.01,0.19 0,0.19 0,0.2 -0.01,0.21 c 0,2.27 0.37,3.37 2.01,4.78 l -0.11,0.19 c -1.88,-1.13 -2.91,-2.83 -2.91,-5.01 0,-2.01 1.01,-4 2.88,-5.07 z" id="path7726" /><polygon style="fill:#000000;stroke-width:0" points="234.71,480.61 228.13,480.61 228.13,479.83 234.71,479.83 " id="polygon7728" /><path style="fill:#000000;stroke-width:0" d="m 240.75,479.07 0,0.08 -0.01,0.09 0,0.08 -0.01,0.09 -0.01,0.08 -0.02,0.08 -0.01,0.08 -0.02,0.08 -0.03,0.07 -0.02,0.08 -0.04,0.08 -0.03,0.07 -0.04,0.08 -0.04,0.07 -0.04,0.08 -0.05,0.07 -0.06,0.08 -0.06,0.07 -0.06,0.08 -0.07,0.07 -0.07,0.08 -0.08,0.07 -0.08,0.08 -0.08,0.08 -0.1,0.08 -0.09,0.08 -0.11,0.08 -0.11,0.09 -0.11,0.08 -0.12,0.09 -0.13,0.09 -0.13,0.08 c 1.17,0.63 1.58,1.03 1.58,1.92 0,0.92 -0.82,1.69 -1.98,1.69 l -0.12,-0.33 c 0.8,0 1.28,-0.55 1.28,-1.36 l 0,0 c 0,-0.73 -0.3,-1.23 -1.11,-1.7 -1.03,0.61 -1.47,1.15 -1.47,1.89 0,0.73 0.51,1.17 1.3,1.17 l 0.12,0.33 c -1.31,0 -2.29,-0.71 -2.29,-1.85 0,-0.76 0.24,-1.21 1.46,-2.22 -1.26,-0.88 -1.54,-1.34 -1.54,-2.16 0,-1.11 0.94,-1.92 2.27,-1.92 l 0.13,0.33 c -0.9,0 -1.5,0.61 -1.5,1.7 0,0.77 0.25,1.25 0.95,1.82 l 0.69,-0.47 c 0.8,-0.55 1.16,-1.02 1.16,-1.75 0,-0.77 -0.53,-1.3 -1.3,-1.3 l -0.13,-0.33 c 1.42,0 2.33,0.78 2.33,2 z" id="path7730" /><path style="fill:#000000;stroke-width:0" d="m 242.4,475.57 0.07,0.04 0.08,0.04 0.07,0.04 0.07,0.04 0.07,0.05 0.06,0.04 0.07,0.05 0.06,0.05 0.06,0.05 0.05,0.06 0.06,0.05 0.05,0.06 0.05,0.05 0.05,0.06 0.05,0.06 0.04,0.06 0.05,0.06 0.03,0.06 0.04,0.07 0.04,0.06 0.03,0.06 0.03,0.07 0.02,0.06 0.03,0.07 0.02,0.07 0.02,0.06 0.01,0.07 0.02,0.07 0.01,0.06 0,0.07 0.01,0.07 0,0.06 c 0,0.62 -0.41,1.03 -0.95,1.03 -0.42,0 -0.7,-0.27 -0.7,-0.67 0,-0.41 0.24,-0.61 0.68,-0.61 0.13,0 0.25,0.05 0.34,0.05 0.1,0 0.17,-0.07 0.17,-0.15 0,-0.39 -0.33,-0.83 -0.98,-1.26 z" id="path7732" /><polygon style="fill:#000000;stroke-width:0" points="251.62,479.96 250.41,479.96 250.41,485.22 249.89,485.22 246.18,479.96 246.65,479.96 249.49,484.01 249.49,479.96 246.65,479.96 246.18,479.96 246.18,479.21 249.49,479.21 249.49,477.23 250.41,477.23 250.41,479.21 251.62,479.21 " id="polygon7734" /><path style="fill:#000000;stroke-width:0" d="m 252.3,485.03 0.16,-0.13 0.15,-0.13 0.14,-0.12 0.13,-0.13 0.13,-0.13 0.11,-0.13 0.12,-0.13 0.1,-0.13 0.1,-0.13 0.09,-0.13 0.08,-0.14 0.08,-0.14 0.07,-0.14 0.07,-0.14 0.06,-0.14 0.06,-0.15 0.05,-0.14 0.05,-0.15 0.04,-0.16 0.04,-0.16 0.03,-0.15 0.03,-0.17 0.03,-0.16 0.02,-0.17 0.02,-0.18 0.01,-0.18 0.02,-0.18 0,-0.18 0.01,-0.19 0.01,-0.2 0,-0.2 0,-0.2 c 0,-2.29 -0.33,-3.41 -2.01,-4.79 l 0.11,-0.19 c 1.88,1.15 2.92,2.83 2.92,5.01 0,2.01 -1.08,3.98 -2.88,5.07 z" id="path7736" /><path style="fill:#000000;stroke-width:0" d="m 269.46,475.33 -0.15,0.13 -0.14,0.13 -0.14,0.13 -0.13,0.13 -0.12,0.13 -0.12,0.13 -0.11,0.13 -0.1,0.14 -0.1,0.13 -0.09,0.13 -0.08,0.14 -0.08,0.14 -0.07,0.14 -0.07,0.14 -0.07,0.14 -0.05,0.14 -0.06,0.15 -0.04,0.15 -0.05,0.16 -0.04,0.15 -0.03,0.16 -0.03,0.16 -0.03,0.17 -0.03,0.17 -0.02,0.17 -0.01,0.18 -0.02,0.18 -0.01,0.18 -0.01,0.19 0,0.19 -0.01,0.2 0,0.21 c 0,2.27 0.37,3.37 2.01,4.78 l -0.11,0.19 c -1.89,-1.13 -2.91,-2.83 -2.91,-5.01 0,-2.01 1.01,-4 2.88,-5.07 z" id="path7738" /><path style="fill:#000000;stroke-width:0" d="m 273.16,482.41 -0.83,0 0.37,1.52 -0.16,0 c -0.48,-1.03 -1.2,-1.47 -2.09,-1.63 l -0.06,-0.34 0.91,0 -0.95,-3.78 c -0.04,-0.13 -0.06,-0.28 -0.06,-0.44 0,-0.32 0.09,-0.61 0.46,-0.61 0.7,0 1.29,0.9 1.57,1.26 l -0.15,0.13 c -0.44,-0.59 -0.71,-0.61 -0.71,-0.61 -0.16,0 -0.19,0.07 -0.19,0.14 0,0.03 0.01,0.09 0.02,0.13 l 0.92,3.78 0.83,0 z" id="path7740" /><polygon style="fill:#000000;stroke-width:0" points="283.81,481.79 276.85,481.79 276.85,481.01 283.81,481.01 " id="polygon7742" /><polygon style="fill:#000000;stroke-width:0" points="283.81,479.43 276.85,479.43 276.85,478.65 283.81,478.65 " id="polygon7744" /><polygon style="fill:#000000;stroke-width:0" points="294.51,480.61 287.93,480.61 287.93,479.83 294.51,479.83 " id="polygon7746" /><path style="fill:#000000;stroke-width:0" d="m 300.89,478.85 -0.17,0.07 c -0.39,-0.66 -0.64,-0.79 -1.13,-0.79 l -2.76,0 1.94,2.08 c 1.05,1.11 1.51,1.99 1.51,2.93 0,1.17 -0.85,2.08 -2.18,2.08 -1.45,0 -2.21,-0.97 -2.46,-2.35 l 0.25,-0.06 c 0.47,1.15 0.89,1.53 1.74,1.53 1,0 1.64,-0.59 1.64,-1.66 0,-1.01 -0.43,-1.9 -1.54,-3.07 l -2.1,-2.23 0,-0.15 4.62,0 z" id="path7748" /><path style="fill:#000000;stroke-width:0" d="m 301.56,485.03 0.15,-0.13 0.15,-0.13 0.14,-0.12 0.13,-0.13 0.13,-0.13 0.12,-0.13 0.11,-0.13 0.1,-0.13 0.1,-0.13 0.09,-0.13 0.08,-0.14 0.08,-0.14 0.08,-0.14 0.06,-0.14 0.07,-0.14 0.05,-0.15 0.05,-0.14 0.05,-0.15 0.04,-0.16 0.04,-0.16 0.03,-0.15 0.03,-0.17 0.03,-0.16 0.02,-0.17 0.02,-0.18 0.01,-0.18 0.02,-0.18 0.01,-0.18 0,-0.19 0.01,-0.2 0,-0.2 0,-0.2 c 0,-2.29 -0.33,-3.41 -2,-4.79 l 0.1,-0.19 c 1.88,1.15 2.92,2.83 2.92,5.01 0,2.01 -1.08,3.98 -2.88,5.07 z" id="path7750" /></g>  <g ns0:preamble="/Users/kjb81/Documents/underground-inkscape-preamble.tex" ns0:text="$(8,4) \\quad  (t=2)$" word-spacing="normal" letter-spacing="normal" font-size-adjust="none" font-stretch="normal" font-weight="normal" font-variant="normal" font-style="normal" stroke-miterlimit="10.433" xml:space="preserve" transform="matrix(0.63410982,0,0,-0.63410982,24.964992,629.89074)" id="g7876" style="font-style:normal;font-variant:normal;font-weight:normal;font-stretch:normal;letter-spacing:normal;word-spacing:normal;text-anchor:start;fill:none;fill-opacity:1;fill-rule:evenodd;stroke:#000000;stroke-linecap:butt;stroke-linejoin:miter;stroke-miterlimit:10.43299961;stroke-dasharray:none;stroke-dashoffset:0;stroke-opacity:1"><path id="path7878" d="m 227.02,475.33 -0.15,0.13 -0.14,0.13 -0.14,0.13 -0.13,0.13 -0.12,0.13 -0.12,0.13 -0.11,0.13 -0.1,0.14 -0.1,0.13 -0.09,0.13 -0.08,0.14 -0.08,0.14 -0.07,0.14 -0.07,0.14 -0.06,0.14 -0.06,0.14 -0.06,0.15 -0.04,0.15 -0.05,0.16 -0.04,0.15 -0.03,0.16 -0.03,0.16 -0.03,0.17 -0.02,0.17 -0.03,0.17 -0.01,0.18 -0.02,0.18 -0.01,0.18 -0.01,0.19 0,0.19 0,0.2 -0.01,0.21 c 0,2.27 0.37,3.37 2.01,4.78 l -0.11,0.19 c -1.88,-1.13 -2.91,-2.83 -2.91,-5.01 0,-2.01 1.01,-4 2.88,-5.07 z" style="fill:#000000;stroke-width:0" /><path id="path7880" d="m 232.63,479.07 0,0.08 0,0.09 -0.01,0.08 -0.01,0.09 -0.01,0.08 -0.01,0.08 -0.02,0.08 -0.02,0.08 -0.02,0.07 -0.03,0.08 -0.03,0.08 -0.04,0.07 -0.03,0.08 -0.04,0.07 -0.05,0.08 -0.05,0.07 -0.05,0.08 -0.06,0.07 -0.06,0.08 -0.07,0.07 -0.07,0.08 -0.08,0.07 -0.08,0.08 -0.09,0.08 -0.09,0.08 -0.1,0.08 -0.1,0.08 -0.11,0.09 -0.12,0.08 -0.12,0.09 -0.13,0.09 -0.13,0.08 c 1.17,0.63 1.58,1.03 1.58,1.92 0,0.92 -0.81,1.69 -1.98,1.69 l -0.12,-0.33 c 0.8,0 1.29,-0.55 1.29,-1.36 l 0,0 c 0,-0.73 -0.31,-1.23 -1.11,-1.7 -1.04,0.61 -1.48,1.15 -1.48,1.89 0,0.73 0.51,1.17 1.3,1.17 l 0.12,0.33 c -1.31,0 -2.29,-0.71 -2.29,-1.85 0,-0.76 0.25,-1.21 1.46,-2.22 -1.26,-0.88 -1.53,-1.34 -1.53,-2.16 0,-1.11 0.93,-1.92 2.26,-1.92 l 0.13,0.33 c -0.89,0 -1.49,0.61 -1.49,1.7 0,0.77 0.24,1.25 0.94,1.82 l 0.7,-0.47 c 0.8,-0.55 1.15,-1.02 1.15,-1.75 0,-0.77 -0.53,-1.3 -1.3,-1.3 l -0.13,-0.33 c 1.42,0 2.33,0.78 2.33,2 z" style="fill:#000000;stroke-width:0" /><path id="path7882" d="m 234.28,475.57 0.08,0.04 0.07,0.04 0.07,0.04 0.07,0.04 0.07,0.05 0.07,0.04 0.06,0.05 0.06,0.05 0.06,0.05 0.06,0.06 0.05,0.05 0.06,0.06 0.05,0.05 0.05,0.06 0.04,0.06 0.05,0.06 0.04,0.06 0.04,0.06 0.04,0.07 0.03,0.06 0.03,0.06 0.03,0.07 0.03,0.06 0.02,0.07 0.02,0.07 0.02,0.06 0.02,0.07 0.01,0.07 0.01,0.06 0.01,0.07 0,0.07 0,0.06 c 0,0.62 -0.41,1.03 -0.94,1.03 -0.43,0 -0.71,-0.27 -0.71,-0.67 0,-0.41 0.25,-0.61 0.68,-0.61 0.13,0 0.25,0.05 0.35,0.05 0.09,0 0.16,-0.07 0.16,-0.15 0,-0.39 -0.33,-0.83 -0.98,-1.26 z" style="fill:#000000;stroke-width:0" /><polygon id="polygon7884" points="242.29,485.22 241.77,485.22 238.06,479.96 238.54,479.96 241.37,484.01 241.37,479.96 238.54,479.96 238.06,479.96 238.06,479.21 241.37,479.21 241.37,477.23 242.29,477.23 242.29,479.21 243.51,479.21 243.51,479.96 242.29,479.96 " style="fill:#000000;stroke-width:0" /><path id="path7886" d="m 244.19,485.03 0.15,-0.13 0.15,-0.13 0.14,-0.12 0.14,-0.13 0.12,-0.13 0.12,-0.13 0.11,-0.13 0.1,-0.13 0.1,-0.13 0.09,-0.13 0.09,-0.14 0.08,-0.14 0.07,-0.14 0.07,-0.14 0.06,-0.14 0.05,-0.15 0.05,-0.14 0.05,-0.15 0.04,-0.16 0.04,-0.16 0.03,-0.15 0.03,-0.17 0.03,-0.16 0.02,-0.17 0.02,-0.18 0.02,-0.18 0.01,-0.18 0.01,-0.18 0.01,-0.19 0,-0.2 0,-0.2 0.01,-0.2 c 0,-2.29 -0.33,-3.41 -2.01,-4.79 l 0.1,-0.19 c 1.88,1.15 2.92,2.83 2.92,5.01 0,2.01 -1.07,3.98 -2.88,5.07 z" style="fill:#000000;stroke-width:0" /><path id="path7888" d="m 261.34,475.33 -0.15,0.13 -0.14,0.13 -0.14,0.13 -0.13,0.13 -0.12,0.13 -0.11,0.13 -0.11,0.13 -0.11,0.14 -0.09,0.13 -0.09,0.13 -0.09,0.14 -0.08,0.14 -0.07,0.14 -0.07,0.14 -0.06,0.14 -0.06,0.14 -0.05,0.15 -0.05,0.15 -0.04,0.16 -0.04,0.15 -0.04,0.16 -0.03,0.16 -0.03,0.17 -0.02,0.17 -0.02,0.17 -0.02,0.18 -0.01,0.18 -0.01,0.18 -0.01,0.19 -0.01,0.19 0,0.2 0,0.21 c 0,2.27 0.36,3.37 2,4.78 l -0.1,0.19 c -1.89,-1.13 -2.92,-2.83 -2.92,-5.01 0,-2.01 1.02,-4 2.88,-5.07 z" style="fill:#000000;stroke-width:0" /><path id="path7890" d="m 265.04,482.41 -0.82,0 0.36,1.52 -0.15,0 c -0.49,-1.03 -1.21,-1.47 -2.09,-1.63 l -0.06,-0.34 0.91,0 -0.96,-3.78 c -0.03,-0.13 -0.06,-0.28 -0.06,-0.44 0,-0.32 0.1,-0.61 0.46,-0.61 0.7,0 1.29,0.9 1.57,1.26 l -0.15,0.13 c -0.44,-0.59 -0.71,-0.61 -0.71,-0.61 -0.15,0 -0.19,0.07 -0.19,0.14 0,0.03 0.02,0.09 0.03,0.13 l 0.92,3.78 0.82,0 z" style="fill:#000000;stroke-width:0" /><polygon id="polygon7892" points="268.74,481.01 275.69,481.01 275.69,481.79 268.74,481.79 " style="fill:#000000;stroke-width:0" /><polygon id="polygon7894" points="268.74,478.65 275.69,478.65 275.69,479.43 268.74,479.43 " style="fill:#000000;stroke-width:0" /><path id="path7896" d="m 284.65,478.85 -0.16,0.07 c -0.39,-0.66 -0.64,-0.79 -1.13,-0.79 l -2.77,0 1.95,2.08 c 1.05,1.11 1.51,1.99 1.51,2.93 0,1.17 -0.85,2.08 -2.18,2.08 -1.45,0 -2.21,-0.97 -2.46,-2.35 l 0.25,-0.06 c 0.47,1.15 0.89,1.53 1.74,1.53 1,0 1.64,-0.59 1.64,-1.66 0,-1.01 -0.43,-1.9 -1.54,-3.07 l -2.1,-2.23 0,-0.15 4.62,0 z" style="fill:#000000;stroke-width:0" /><path id="path7898" d="m 285.32,485.03 0.16,-0.13 0.15,-0.13 0.14,-0.12 0.13,-0.13 0.13,-0.13 0.11,-0.13 0.12,-0.13 0.1,-0.13 0.1,-0.13 0.09,-0.13 0.08,-0.14 0.08,-0.14 0.07,-0.14 0.07,-0.14 0.06,-0.14 0.06,-0.15 0.05,-0.14 0.05,-0.15 0.04,-0.16 0.04,-0.16 0.03,-0.15 0.03,-0.17 0.03,-0.16 0.02,-0.17 0.02,-0.18 0.01,-0.18 0.02,-0.18 0,-0.18 0.01,-0.19 0.01,-0.2 0,-0.2 0,-0.2 c 0,-2.29 -0.33,-3.41 -2.01,-4.79 l 0.11,-0.19 c 1.88,1.15 2.92,2.83 2.92,5.01 0,2.01 -1.08,3.98 -2.88,5.07 z" style="fill:#000000;stroke-width:0" /></g>  <g style="font-style:normal;font-variant:normal;font-weight:normal;font-stretch:normal;letter-spacing:normal;word-spacing:normal;text-anchor:start;fill:none;fill-opacity:1;fill-rule:evenodd;stroke:#000000;stroke-linecap:butt;stroke-linejoin:miter;stroke-miterlimit:10.43299961;stroke-dasharray:none;stroke-dashoffset:0;stroke-opacity:1" id="g8036" transform="matrix(0.70465257,0,0,-0.70465257,-91.938784,683.07679)" xml:space="preserve" stroke-miterlimit="10.433" font-style="normal" font-variant="normal" font-weight="normal" font-stretch="normal" font-size-adjust="none" letter-spacing="normal" word-spacing="normal" ns0:text="$t$ increasing" ns0:preamble="/Users/kjb81/Documents/underground-inkscape-preamble.tex"><path style="fill:#000000;stroke-width:0" d="m 226.77,482.41 -0.82,0 0.36,1.52 -0.15,0 c -0.48,-1.03 -1.2,-1.47 -2.09,-1.63 l -0.06,-0.34 0.91,0 -0.96,-3.78 c -0.03,-0.13 -0.06,-0.28 -0.06,-0.44 0,-0.32 0.1,-0.61 0.47,-0.61 0.69,0 1.28,0.9 1.56,1.26 l -0.15,0.13 c -0.43,-0.59 -0.71,-0.61 -0.71,-0.61 -0.15,0 -0.19,0.07 -0.19,0.14 0,0.03 0.02,0.09 0.03,0.13 l 0.92,3.78 0.82,0 z" id="path8038" /><polygon style="fill:#000000;stroke-width:0" points="231.39,477.23 230.58,477.23 230.58,482.58 231.39,482.58 " id="polygon8040" /><path style="fill:#000000;stroke-width:0" d="m 230.51,484.01 0,0.02 0,0.02 0,0.01 0,0.02 0,0.01 0.01,0.02 0,0.02 0,0.01 0,0.02 0,0.01 0.01,0.01 0,0.02 0,0.01 0.01,0.02 0,0.01 0.01,0.01 0,0.01 0,0.02 0.01,0.01 0,0.01 0.01,0.01 0.01,0.01 0,0.01 0.01,0.01 0,0.01 0.01,0.01 0.01,0.01 0.01,0.01 0,0.01 0.01,0.01 0.01,0.01 0.01,0.01 c 0.09,0.08 0.2,0.13 0.34,0.13 0.13,0 0.24,-0.05 0.33,-0.13 0.1,-0.09 0.15,-0.23 0.15,-0.41 -0.01,-0.18 -0.05,-0.32 -0.15,-0.4 -0.09,-0.09 -0.2,-0.14 -0.33,-0.14 -0.14,0 -0.25,0.05 -0.34,0.14 -0.1,0.08 -0.14,0.22 -0.14,0.4 z" id="path8042" /><path style="fill:#000000;stroke-width:0" d="m 236.75,477.23 0,3.45 c 0,0.44 -0.1,0.76 -0.29,0.98 -0.2,0.21 -0.51,0.32 -0.93,0.32 -0.56,0 -0.97,-0.15 -1.23,-0.45 -0.26,-0.3 -0.39,-0.8 -0.39,-1.5 l 0,-2.8 -0.81,0 0,5.35 0.66,0 0.13,-0.74 0.04,0 c 0.17,0.26 0.4,0.46 0.7,0.61 0.3,0.14 0.63,0.22 0.99,0.22 0.65,0 1.13,-0.16 1.45,-0.47 0.33,-0.31 0.49,-0.8 0.49,-1.49 l 0,-3.48 z" id="path8044" /><path style="fill:#000000;stroke-width:0" d="m 241.35,477.14 -0.07,0.01 -0.07,0 -0.07,0 -0.07,0.01 -0.07,0 -0.07,0.01 -0.06,0.01 -0.07,0.01 -0.06,0.01 -0.06,0.01 -0.06,0.02 -0.07,0.02 -0.06,0.01 -0.05,0.02 -0.06,0.02 -0.06,0.02 -0.05,0.03 -0.06,0.02 -0.05,0.03 -0.05,0.02 -0.06,0.03 -0.05,0.03 -0.04,0.03 -0.05,0.04 -0.05,0.03 -0.05,0.04 -0.04,0.03 -0.05,0.04 -0.04,0.04 -0.04,0.04 -0.04,0.04 -0.04,0.05 c -0.43,0.47 -0.64,1.14 -0.64,2.01 0,0.89 0.22,1.58 0.65,2.07 0.42,0.48 1.04,0.73 1.83,0.73 0.26,0 0.52,-0.03 0.77,-0.09 0.26,-0.05 0.46,-0.12 0.61,-0.19 l -0.25,-0.69 c -0.18,0.07 -0.38,0.13 -0.59,0.18 -0.21,0.05 -0.39,0.07 -0.56,0.07 -1.08,0 -1.62,-0.69 -1.62,-2.07 0,-0.65 0.13,-1.15 0.4,-1.5 0.26,-0.35 0.65,-0.53 1.17,-0.53 0.44,0 0.9,0.1 1.37,0.29 l 0,-0.72 c -0.36,-0.18 -0.81,-0.28 -1.35,-0.28 z" id="path8046" /><path style="fill:#000000;stroke-width:0" d="m 246.39,482.67 0.04,0 0.04,-0.01 0.05,0 0.04,0 0.04,0 0.04,0 0.04,-0.01 0.04,0 0.04,0 0.04,-0.01 0.04,0 0.04,-0.01 0.04,0 0.03,-0.01 0.04,-0.01 0.03,0 -0.11,-0.75 c -0.22,0.05 -0.41,0.07 -0.58,0.07 -0.43,0 -0.8,-0.17 -1.1,-0.52 -0.31,-0.36 -0.46,-0.79 -0.46,-1.31 l 0,-2.87 -0.81,0 0,5.35 0.67,0 0.09,-1 0.04,0 c 0.19,0.35 0.43,0.62 0.71,0.8 0.28,0.19 0.58,0.29 0.92,0.29 z" id="path8048" /><path style="fill:#000000;stroke-width:0" d="m 250.08,477.14 -0.08,0.01 -0.07,0 -0.07,0 -0.07,0.01 -0.07,0 -0.07,0.01 -0.07,0.01 -0.06,0.01 -0.07,0.01 -0.06,0.02 -0.07,0.01 -0.06,0.02 -0.06,0.01 -0.06,0.02 -0.06,0.02 -0.06,0.02 -0.06,0.03 -0.05,0.02 -0.06,0.03 -0.05,0.03 -0.06,0.03 -0.05,0.03 -0.05,0.03 -0.05,0.03 -0.05,0.03 -0.05,0.04 -0.05,0.04 -0.05,0.04 -0.04,0.04 -0.05,0.04 -0.04,0.04 -0.05,0.04 c -0.45,0.48 -0.68,1.15 -0.68,2 0,0.86 0.21,1.54 0.63,2.05 0.43,0.5 0.99,0.76 1.71,0.76 0.66,0 1.19,-0.22 1.58,-0.66 0.39,-0.44 0.58,-1.01 0.58,-1.73 l 0,-0.51 -3.66,0 0.02,0.66 2.78,0 c 0,0.5 -0.12,0.89 -0.34,1.16 -0.23,0.27 -0.55,0.4 -0.97,0.4 l 0,0 c -0.43,0 -0.77,-0.14 -1.02,-0.41 -0.26,-0.28 -0.41,-0.66 -0.45,-1.15 l -0.02,-0.66 c 0.01,-0.63 0.17,-1.1 0.47,-1.43 0.3,-0.33 0.72,-0.49 1.27,-0.49 0.57,0 1.14,0.12 1.69,0.36 l 0,-0.72 c -0.28,-0.12 -0.55,-0.21 -0.8,-0.26 -0.26,-0.06 -0.56,-0.09 -0.92,-0.09 z" id="path8050" /><path style="fill:#000000;stroke-width:0" d="m 256.7,477.23 -0.16,0.76 -0.04,0 -0.44,0.23 c 0.29,0.28 0.44,0.66 0.44,1.16 l 0,0.47 -0.81,-0.03 c -0.65,-0.02 -1.11,-0.12 -1.4,-0.3 -0.28,-0.18 -0.42,-0.45 -0.42,-0.82 -0.01,-0.29 0.09,-0.51 0.26,-0.66 0.18,-0.15 0.43,-0.23 0.75,-0.23 l 0,0 c 0.5,0 0.9,0.14 1.18,0.41 l 0.44,-0.23 c -0.26,-0.33 -0.53,-0.55 -0.79,-0.67 -0.27,-0.12 -0.6,-0.18 -0.99,-0.18 -0.53,0 -0.95,0.14 -1.25,0.41 -0.3,0.27 -0.45,0.66 -0.45,1.16 0,1.07 0.86,1.64 2.59,1.69 l 0.91,0.03 0,0.33 c 0,0.42 -0.1,0.74 -0.28,0.94 -0.18,0.2 -0.46,0.3 -0.86,0.3 -0.45,0 -0.95,-0.14 -1.51,-0.41 l -0.25,0.62 c 0.26,0.14 0.55,0.25 0.87,0.33 0.31,0.08 0.62,0.13 0.94,0.13 0.63,0 1.11,-0.15 1.41,-0.43 0.31,-0.28 0.46,-0.73 0.46,-1.36 l 0,-3.65 z" id="path8052" /><path style="fill:#000000;stroke-width:0" d="m 262.39,478.7 0,-0.05 0,-0.05 0,-0.04 -0.01,-0.05 0,-0.04 -0.01,-0.04 -0.01,-0.04 0,-0.05 -0.01,-0.04 -0.01,-0.04 -0.01,-0.04 -0.02,-0.03 -0.01,-0.04 -0.02,-0.04 -0.01,-0.04 -0.02,-0.03 -0.02,-0.04 -0.01,-0.03 -0.02,-0.04 -0.03,-0.03 -0.02,-0.03 -0.02,-0.04 -0.02,-0.03 -0.03,-0.03 -0.03,-0.03 -0.02,-0.03 -0.03,-0.03 -0.03,-0.02 -0.03,-0.03 -0.03,-0.03 -0.04,-0.03 -0.03,-0.02 c -0.37,-0.27 -0.89,-0.41 -1.56,-0.41 -0.7,0 -1.25,0.12 -1.65,0.34 l 0,0.74 c 0.26,-0.13 0.53,-0.23 0.82,-0.3 0.3,-0.07 0.58,-0.11 0.85,-0.11 0.42,0 0.75,0.07 0.97,0.2 0.23,0.14 0.34,0.34 0.34,0.62 0,0.2 -0.09,0.38 -0.27,0.53 -0.18,0.14 -0.53,0.32 -1.05,0.52 -0.49,0.19 -0.84,0.35 -1.05,0.49 -0.21,0.13 -0.37,0.29 -0.47,0.47 -0.1,0.17 -0.15,0.38 -0.15,0.62 0,0.43 0.18,0.78 0.53,1.03 0.35,0.25 0.83,0.38 1.45,0.38 0.57,0 1.13,-0.12 1.68,-0.35 l -0.29,-0.66 c -0.53,0.22 -1.01,0.33 -1.45,0.33 -0.38,0 -0.67,-0.06 -0.86,-0.18 -0.2,-0.12 -0.29,-0.29 -0.29,-0.49 0,-0.15 0.03,-0.27 0.11,-0.37 0.07,-0.1 0.19,-0.2 0.35,-0.29 0.16,-0.09 0.47,-0.22 0.93,-0.39 0.63,-0.23 1.06,-0.46 1.28,-0.69 0.22,-0.24 0.33,-0.53 0.33,-0.88 z" id="path8054" /><polygon style="fill:#000000;stroke-width:0" points="264.52,477.23 263.71,477.23 263.71,482.58 264.52,482.58 " id="polygon8056" /><path style="fill:#000000;stroke-width:0" d="m 263.64,484.01 0,0.02 0,0.02 0,0.01 0,0.02 0,0.01 0,0.02 0.01,0.02 0,0.01 0,0.02 0,0.01 0.01,0.01 0,0.02 0,0.01 0.01,0.02 0,0.01 0,0.01 0.01,0.01 0,0.02 0.01,0.01 0,0.01 0.01,0.01 0,0.01 0.01,0.01 0.01,0.01 0,0.01 0.01,0.01 0.01,0.01 0,0.01 0.01,0.01 0.01,0.01 0.01,0.01 0.01,0.01 c 0.09,0.08 0.2,0.13 0.34,0.13 0.13,0 0.24,-0.05 0.33,-0.13 0.1,-0.09 0.14,-0.23 0.14,-0.41 0,-0.18 -0.04,-0.32 -0.14,-0.4 -0.09,-0.09 -0.2,-0.14 -0.33,-0.14 -0.14,0 -0.25,0.05 -0.34,0.14 -0.1,0.08 -0.14,0.22 -0.14,0.4 z" id="path8058" /><path style="fill:#000000;stroke-width:0" d="m 269.88,477.23 0,3.45 c 0,0.44 -0.1,0.76 -0.29,0.98 -0.2,0.21 -0.51,0.32 -0.93,0.32 -0.56,0 -0.97,-0.15 -1.23,-0.45 -0.26,-0.3 -0.39,-0.8 -0.39,-1.5 l 0,-2.8 -0.81,0 0,5.35 0.66,0 0.13,-0.74 0.04,0 c 0.16,0.26 0.4,0.46 0.7,0.61 0.29,0.14 0.63,0.22 0.99,0.22 0.64,0 1.13,-0.16 1.45,-0.47 0.33,-0.31 0.49,-0.8 0.49,-1.49 l 0,-3.48 z" id="path8060" /><path style="fill:#000000;stroke-width:0" d="m 276.71,482.58 0,-0.51 -0.98,-0.12 c 0.09,-0.12 0.17,-0.26 0.24,-0.44 0.07,-0.19 0.11,-0.39 0.11,-0.62 0,-0.53 -0.18,-0.94 -0.54,-1.25 -0.36,-0.31 -0.85,-0.47 -1.47,-0.47 l 0.03,0.57 c 0.78,0 1.18,0.38 1.18,1.14 -0.01,0.8 -0.4,1.2 -1.2,1.2 -0.38,0 -0.67,-0.1 -0.88,-0.31 -0.2,-0.2 -0.3,-0.5 -0.3,-0.9 l 0,0 c 0,-0.37 0.1,-0.65 0.31,-0.84 0.21,-0.19 0.51,-0.29 0.89,-0.29 l -0.03,-0.57 c -0.16,0 -0.31,0.02 -0.45,0.04 -0.34,-0.18 -0.51,-0.41 -0.51,-0.68 0,-0.15 0.06,-0.26 0.18,-0.33 0.12,-0.07 0.32,-0.1 0.61,-0.1 l 0.95,0 c 0.57,0 1.02,-0.12 1.33,-0.37 0.31,-0.24 0.46,-0.59 0.46,-1.06 0,-0.59 -0.23,-1.05 -0.71,-1.36 -0.47,-0.31 -1.16,-0.46 -2.07,-0.46 -0.7,0 -1.23,0.13 -1.61,0.39 -0.38,0.26 -0.57,0.63 -0.57,1.1 0,0.33 0.11,0.61 0.31,0.85 0.21,0.23 0.5,0.4 0.88,0.48 l -0.1,-0.56 c -0.21,-0.18 -0.31,-0.43 -0.31,-0.76 l 0,0 c 0,-0.29 0.12,-0.51 0.37,-0.66 0.24,-0.15 0.59,-0.22 1.04,-0.22 0.68,0 1.18,0.1 1.51,0.3 0.32,0.2 0.49,0.48 0.49,0.83 0,0.29 -0.09,0.49 -0.27,0.61 -0.18,0.11 -0.52,0.17 -1.01,0.17 l -0.97,0 c -0.36,-0.01 -0.65,-0.09 -0.85,-0.27 l 0.1,0.56 c -0.14,0.06 -0.25,0.16 -0.34,0.29 -0.1,0.13 -0.14,0.28 -0.14,0.45 0,0.19 0.05,0.37 0.15,0.51 0.11,0.15 0.27,0.29 0.49,0.42 -0.27,0.12 -0.5,0.31 -0.67,0.58 -0.18,0.27 -0.26,0.58 -0.26,0.93 0,0.58 0.17,1.03 0.52,1.34 0.36,0.32 0.85,0.48 1.49,0.48 0.28,0 0.53,-0.03 0.76,-0.09 z" id="path8062" /></g>  <path id="path8161" d="m 67.493952,351.54656 2.896581,2.36519" style="fill:none;fill-rule:evenodd;stroke:#2b83ba;stroke-width:0.50121081;stroke-linecap:butt;stroke-linejoin:miter;stroke-miterlimit:4;stroke-dasharray:none;stroke-opacity:1;marker-end:url(#Arrow2Lend)" />
  <g ns0:preamble="/Users/kjb81/Documents/underground-inkscape-preamble.tex" ns0:text="$(1,1) \\quad (t=1)$" word-spacing="normal" letter-spacing="normal" font-size-adjust="none" font-stretch="normal" font-weight="normal" font-variant="normal" font-style="normal" stroke-miterlimit="10.433" xml:space="preserve" transform="matrix(0.64079105,0,0,-0.64079105,-24.883169,690.66248)" id="g8892" style="font-style:normal;font-variant:normal;font-weight:normal;font-stretch:normal;letter-spacing:normal;word-spacing:normal;text-anchor:start;fill:none;fill-opacity:1;fill-rule:evenodd;stroke:#000000;stroke-linecap:butt;stroke-linejoin:miter;stroke-miterlimit:10.43299961;stroke-dasharray:none;stroke-dashoffset:0;stroke-opacity:1"><path id="path8894" d="m 227.02,475.33 -0.15,0.13 -0.14,0.13 -0.14,0.13 -0.13,0.13 -0.12,0.13 -0.12,0.13 -0.11,0.13 -0.1,0.14 -0.1,0.13 -0.09,0.13 -0.08,0.14 -0.08,0.14 -0.07,0.14 -0.07,0.14 -0.06,0.14 -0.06,0.14 -0.06,0.15 -0.04,0.15 -0.05,0.16 -0.04,0.15 -0.03,0.16 -0.03,0.16 -0.03,0.17 -0.02,0.17 -0.03,0.17 -0.01,0.18 -0.02,0.18 -0.01,0.18 -0.01,0.19 0,0.19 0,0.2 -0.01,0.21 c 0,2.27 0.37,3.37 2.01,4.78 l -0.11,0.19 c -1.88,-1.13 -2.91,-2.83 -2.91,-5.01 0,-2.01 1.01,-4 2.88,-5.07 z" style="fill:#000000;stroke-width:0" /><path id="path8896" d="m 232.03,477.23 0,0.18 c -0.89,0 -1.12,0.21 -1.12,0.72 l 0,7.05 -0.11,0.04 -2.11,-1.08 0,-0.16 0.32,0.11 c 0.21,0.09 0.41,0.15 0.53,0.15 0.25,0 0.35,-0.18 0.35,-0.58 l 0,-5.3 c 0,-0.65 -0.25,-0.9 -1.12,-0.95 l 0,-0.18 z" style="fill:#000000;stroke-width:0" /><path id="path8898" d="m 234.28,475.57 0.08,0.04 0.07,0.04 0.07,0.04 0.07,0.04 0.07,0.05 0.07,0.04 0.06,0.05 0.06,0.05 0.06,0.05 0.06,0.06 0.05,0.05 0.06,0.06 0.05,0.05 0.05,0.06 0.04,0.06 0.05,0.06 0.04,0.06 0.04,0.06 0.04,0.07 0.03,0.06 0.03,0.06 0.03,0.07 0.03,0.06 0.02,0.07 0.02,0.07 0.02,0.06 0.02,0.07 0.01,0.07 0.01,0.06 0.01,0.07 0,0.07 0,0.06 c 0,0.62 -0.41,1.03 -0.94,1.03 -0.43,0 -0.71,-0.27 -0.71,-0.67 0,-0.41 0.25,-0.61 0.68,-0.61 0.13,0 0.25,0.05 0.35,0.05 0.09,0 0.16,-0.07 0.16,-0.15 0,-0.39 -0.33,-0.83 -0.98,-1.26 z" style="fill:#000000;stroke-width:0" /><path id="path8900" d="m 242.57,477.23 0,0.18 c -0.88,0 -1.12,0.21 -1.12,0.72 l 0,7.05 -0.1,0.04 -2.12,-1.08 0,-0.16 0.32,0.11 c 0.21,0.09 0.41,0.15 0.53,0.15 0.25,0 0.36,-0.18 0.36,-0.58 l 0,-5.3 c 0,-0.65 -0.25,-0.9 -1.12,-0.95 l 0,-0.18 z" style="fill:#000000;stroke-width:0" /><path id="path8902" d="m 244.19,485.03 0.15,-0.13 0.15,-0.13 0.14,-0.12 0.14,-0.13 0.12,-0.13 0.12,-0.13 0.11,-0.13 0.1,-0.13 0.1,-0.13 0.09,-0.13 0.09,-0.14 0.08,-0.14 0.07,-0.14 0.07,-0.14 0.06,-0.14 0.05,-0.15 0.05,-0.14 0.05,-0.15 0.04,-0.16 0.04,-0.16 0.03,-0.15 0.03,-0.17 0.03,-0.16 0.02,-0.17 0.02,-0.18 0.02,-0.18 0.01,-0.18 0.01,-0.18 0.01,-0.19 0,-0.2 0,-0.2 0.01,-0.2 c 0,-2.29 -0.33,-3.41 -2.01,-4.79 l 0.1,-0.19 c 1.88,1.15 2.92,2.83 2.92,5.01 0,2.01 -1.07,3.98 -2.88,5.07 z" style="fill:#000000;stroke-width:0" /><path id="path8904" d="m 261.34,475.33 -0.15,0.13 -0.14,0.13 -0.14,0.13 -0.13,0.13 -0.12,0.13 -0.11,0.13 -0.11,0.13 -0.11,0.14 -0.09,0.13 -0.09,0.13 -0.09,0.14 -0.08,0.14 -0.07,0.14 -0.07,0.14 -0.06,0.14 -0.06,0.14 -0.05,0.15 -0.05,0.15 -0.04,0.16 -0.04,0.15 -0.04,0.16 -0.03,0.16 -0.03,0.17 -0.02,0.17 -0.02,0.17 -0.02,0.18 -0.01,0.18 -0.01,0.18 -0.01,0.19 -0.01,0.19 0,0.2 0,0.21 c 0,2.27 0.36,3.37 2,4.78 l -0.1,0.19 c -1.89,-1.13 -2.92,-2.83 -2.92,-5.01 0,-2.01 1.02,-4 2.88,-5.07 z" style="fill:#000000;stroke-width:0" /><path id="path8906" d="m 265.04,482.41 -0.82,0 0.36,1.52 -0.15,0 c -0.49,-1.03 -1.21,-1.47 -2.09,-1.63 l -0.06,-0.34 0.91,0 -0.96,-3.78 c -0.03,-0.13 -0.06,-0.28 -0.06,-0.44 0,-0.32 0.1,-0.61 0.46,-0.61 0.7,0 1.29,0.9 1.57,1.26 l -0.15,0.13 c -0.44,-0.59 -0.71,-0.61 -0.71,-0.61 -0.15,0 -0.19,0.07 -0.19,0.14 0,0.03 0.02,0.09 0.03,0.13 l 0.92,3.78 0.82,0 z" style="fill:#000000;stroke-width:0" /><polygon id="polygon8908" points="268.74,481.01 275.69,481.01 275.69,481.79 268.74,481.79 " style="fill:#000000;stroke-width:0" /><polygon id="polygon8910" points="268.74,478.65 275.69,478.65 275.69,479.43 268.74,479.43 " style="fill:#000000;stroke-width:0" /><path id="path8912" d="m 283.71,477.23 0,0.18 c -0.89,0 -1.12,0.21 -1.12,0.72 l 0,7.05 -0.11,0.04 -2.11,-1.08 0,-0.16 0.32,0.11 c 0.21,0.09 0.41,0.15 0.53,0.15 0.25,0 0.35,-0.18 0.35,-0.58 l 0,-5.3 c 0,-0.65 -0.24,-0.9 -1.12,-0.95 l 0,-0.18 z" style="fill:#000000;stroke-width:0" /><path id="path8914" d="m 285.32,485.03 0.16,-0.13 0.15,-0.13 0.14,-0.12 0.13,-0.13 0.13,-0.13 0.11,-0.13 0.12,-0.13 0.1,-0.13 0.1,-0.13 0.09,-0.13 0.08,-0.14 0.08,-0.14 0.07,-0.14 0.07,-0.14 0.06,-0.14 0.06,-0.15 0.05,-0.14 0.05,-0.15 0.04,-0.16 0.04,-0.16 0.03,-0.15 0.03,-0.17 0.03,-0.16 0.02,-0.17 0.02,-0.18 0.01,-0.18 0.02,-0.18 0,-0.18 0.01,-0.19 0.01,-0.2 0,-0.2 0,-0.2 c 0,-2.29 -0.33,-3.41 -2.01,-4.79 l 0.11,-0.19 c 1.88,1.15 2.92,2.83 2.92,5.01 0,2.01 -1.08,3.98 -2.88,5.07 z" style="fill:#000000;stroke-width:0" /></g>  <path style="fill:#2b83ba;fill-rule:nonzero;stroke:#2b83ba;stroke-width:0.89989412;stroke-linecap:square;stroke-linejoin:round;stroke-miterlimit:4;stroke-dasharray:none;stroke-dashoffset:0;fill-opacity:1.0;stroke-opacity:1.0" id="path4232" d="m 38.073199,330.52206 a 0.45925388,0.45925388 0 0 1 -0.02797,-0.64624 0.45925388,0.45925388 0 0 1 0.645997,-0.0332 0.45925388,0.45925388 0 0 1 0.03842,0.64571 0.45925388,0.45925388 0 0 1 -0.645375,0.0436" />
  <path d="m 175.43187,330.52206 a 0.45925388,0.45925388 0 0 1 -0.028,-0.64624 0.45925388,0.45925388 0 0 1 0.64599,-0.0332 0.45925388,0.45925388 0 0 1 0.0384,0.64571 0.45925388,0.45925388 0 0 1 -0.64538,0.0436" id="use4240" style="fill:#2b83ba;fill-rule:nonzero;stroke:#2b83ba;stroke-width:0.89989412;stroke-linecap:square;stroke-linejoin:round;stroke-miterlimit:4;stroke-dasharray:none;stroke-dashoffset:0;fill-opacity:1.0;stroke-opacity:1.0" />
  <g id="content" transform="matrix(0.63410982,0,0,-0.63410982,-30.768935,708.26271)" xml:space="preserve" stroke-miterlimit="10.433" font-style="normal" font-variant="normal" font-weight="normal" font-stretch="normal" font-size-adjust="none" letter-spacing="normal" word-spacing="normal" ns0:text="$(t=0)$" ns0:preamble="/Users/Lizzie/Documents/Old mac/CMEP folder/underground-inkscape-preamble.tex" style="font-style:normal;font-variant:normal;font-weight:normal;font-stretch:normal;letter-spacing:normal;word-spacing:normal;text-anchor:start;fill:none;fill-opacity:1;fill-rule:evenodd;stroke:#000000;stroke-linecap:butt;stroke-linejoin:miter;stroke-miterlimit:10.43299961;stroke-dasharray:none;stroke-dashoffset:0;stroke-opacity:1"><path style="fill:#000000;stroke-width:0" d="m 227.03,475.33 -0.15,0.13 -0.14,0.13 -0.14,0.13 -0.13,0.13 -0.12,0.13 -0.12,0.13 -0.11,0.13 -0.1,0.14 -0.1,0.13 -0.09,0.13 -0.08,0.14 -0.08,0.14 -0.08,0.14 -0.06,0.14 -0.07,0.14 -0.06,0.14 -0.05,0.15 -0.05,0.15 -0.04,0.16 -0.04,0.15 -0.04,0.16 -0.03,0.16 -0.03,0.17 -0.02,0.17 -0.02,0.17 -0.02,0.18 -0.01,0.18 -0.01,0.18 -0.01,0.19 -0.01,0.19 0,0.2 0,0.21 c 0,2.27 0.37,3.37 2.01,4.78 l -0.1,0.19 c -1.9,-1.13 -2.93,-2.83 -2.93,-5.01 0,-2.01 1.02,-4 2.89,-5.07 z" id="path4388" /><path style="fill:#000000;stroke-width:0" d="m 230.73,482.41 -0.83,0 0.37,1.52 -0.16,0 c -0.48,-1.03 -1.21,-1.47 -2.09,-1.63 l -0.06,-0.34 0.91,0 -0.96,-3.78 c -0.03,-0.13 -0.06,-0.28 -0.06,-0.44 0,-0.32 0.1,-0.61 0.46,-0.61 0.7,0 1.29,0.9 1.58,1.26 l -0.16,0.13 c -0.43,-0.59 -0.71,-0.61 -0.71,-0.61 -0.15,0 -0.19,0.07 -0.19,0.14 0,0.03 0.02,0.09 0.03,0.13 l 0.92,3.78 0.83,0 z" id="path4390" /><polygon style="fill:#000000;stroke-width:0" points="234.41,481.79 234.41,481.01 241.39,481.01 241.39,481.79 " id="polygon4392" /><polygon style="fill:#000000;stroke-width:0" points="234.41,479.43 234.41,478.65 241.39,478.65 241.39,479.43 " id="polygon4394" /><path style="fill:#000000;stroke-width:0" d="m 250.37,481.13 0,0.23 -0.01,0.22 -0.01,0.21 -0.03,0.21 -0.02,0.21 -0.04,0.2 -0.04,0.19 -0.04,0.19 -0.05,0.18 -0.05,0.18 -0.06,0.17 -0.07,0.17 -0.07,0.16 -0.08,0.15 -0.08,0.14 -0.08,0.14 -0.09,0.13 -0.09,0.13 -0.1,0.11 -0.1,0.11 -0.11,0.1 -0.11,0.1 -0.11,0.08 -0.12,0.08 -0.12,0.07 -0.13,0.06 -0.13,0.05 -0.13,0.04 -0.13,0.03 -0.14,0.03 -0.14,0.01 -0.15,0.01 c -1.9,0 -2.72,-1.93 -2.72,-4.02 0,-1.93 0.65,-4.13 2.68,-4.13 l 0,0.31 c -1.02,0 -1.54,1.34 -1.54,3.74 0,2.4 0.53,3.79 1.51,3.79 1.04,0 1.57,-1.38 1.57,-3.84 l 0,0 c 0,-2.34 -0.54,-3.69 -1.54,-3.69 l 0,-0.31 c 1.93,0 2.67,2.03 2.67,4.06 z" id="path4396" /><path style="fill:#000000;stroke-width:0" d="m 251,485.03 0.16,-0.13 0.15,-0.13 0.14,-0.12 0.13,-0.13 0.13,-0.13 0.12,-0.13 0.11,-0.13 0.1,-0.13 0.1,-0.13 0.09,-0.13 0.08,-0.14 0.08,-0.14 0.08,-0.14 0.06,-0.14 0.07,-0.14 0.05,-0.15 0.05,-0.14 0.05,-0.15 0.04,-0.16 0.04,-0.16 0.04,-0.15 0.02,-0.17 0.03,-0.16 0.02,-0.17 0.02,-0.18 0.02,-0.18 0.01,-0.18 0.01,-0.18 0.01,-0.19 0,-0.2 0.01,-0.2 0,-0.2 c 0,-2.29 -0.34,-3.41 -2.02,-4.79 l 0.11,-0.19 c 1.88,1.15 2.92,2.83 2.92,5.01 0,2.01 -1.07,3.98 -2.89,5.07 z" id="path4398" /></g>  <path style="fill:none;fill-rule:evenodd;stroke:#2b83ba;stroke-width:0.50121081;stroke-linecap:butt;stroke-linejoin:miter;stroke-miterlimit:4;stroke-dasharray:none;stroke-opacity:1;marker-end:url(#marker5810)" d="m 145.30848,352.43797 2.87226,-2.39466" id="use5806" />
</svg>