<?xml version='1.0' ?><svg xmlns:ns0="http://www.iki.fi/pav/software/textext/" xmlns:dc="http://purl.org/dc/elements/1.1/" xmlns:cc="http://creativecommons.org/ns#" xmlns:rdf="http://www.w3.org/1999/02/22-rdf-syntax-ns#" xmlns:svg="http://www.w3.org/2000/svg" xmlns="http://www.w3.org/2000/svg" id="svg4292" version="1.1" width="163.00952" height="199.7954" viewBox="617.2101226428911 1361.494157048914 301.1180305775261 369.0704528572874" preserveAspectRatio="none">
  <metadata id="metadata4349">
    <rdf:RDF>
      <cc:Work rdf:about="">
        <dc:format>image/svg+xml</dc:format>
        <dc:type rdf:resource="http://purl.org/dc/dcmitype/StillImage" />
        <dc:title />
      </cc:Work>
    </rdf:RDF>
  </metadata>
  <defs id="defs4347">
    <marker style="overflow:visible;" id="Arrow2Lend" refX="0.0" refY="0.0" orient="auto">
      <path transform="scale(1.1) rotate(180) translate(1,0)" d="M 8.7185878,4.0337352 L -2.2072895,0.016013256 L 8.7185884,-4.0017078 C 6.9730900,-1.6296469 6.9831476,1.6157441 8.7185878,4.0337352 z " style="fill-rule:evenodd;stroke-width:0.625;stroke-linejoin:round;stroke:#2b83ba;stroke-opacity:1;fill:#2b83ba;fill-opacity:1" id="path5961" />
    </marker>
    <clipPath id="clip1">
      <path d="m 0,0 0,280 346,0 0,-280 z" id="path4299" />
    </clipPath>
    <clipPath id="clip2">
      <path d="m 0,0 0,280 346,0 0,-280 z" id="path4308" />
    </clipPath>
    <clipPath id="clip3">
      <path d="m 0,0 0,280 346,0 0,-280 z" id="path4317" />
    </clipPath>
    <clipPath id="clip4">
      <path d="m 0,0 0,280 346,0 0,-280 z" id="path4326" />
    </clipPath>
  </defs>
  <g transform="matrix(1.5,0,0,1.2178481,505.18641,1381.7516)" clip-path="url(#clip1)" id="g4301" style="stroke:#000000;stroke-width:1.00007927;stroke-linecap:square;stroke-linejoin:miter;stroke-miterlimit:10;stroke-dasharray:none;stroke-dashoffset:0;stroke-opacity:1">
    <g id="g4303" style="fill:none;stroke:#000000;stroke-width:1.00007927;stroke-linecap:butt;stroke-miterlimit:10;stroke-dasharray:none;stroke-opacity:1">
      <path style="stroke:#000000;stroke-width:1.00007927;stroke-miterlimit:10;stroke-dasharray:none;stroke-opacity:1" d="m 115.05,3 0,277" id="path4305" />
    </g>
  </g>
  <g transform="matrix(0.79869681,0,0,1.5,617.2101,1321.8539)" clip-path="url(#clip3)" id="g4319" style="stroke:#000000;stroke-width:1.23492336;stroke-linecap:square;stroke-linejoin:miter;stroke-miterlimit:10;stroke-dasharray:none;stroke-dashoffset:0;stroke-opacity:1">
    <g id="g4321" style="fill:none;stroke:#000000;stroke-width:1.23492336;stroke-linecap:butt;stroke-miterlimit:10;stroke-dasharray:none;stroke-opacity:1">
      <path style="stroke:#000000;stroke-width:1.23492336;stroke-miterlimit:10;stroke-dasharray:none;stroke-opacity:1" d="m 0,153.37 343,0" id="path4323" />
    </g>
  </g>
  <g transform="matrix(1.5,0,0,1.5,505.18641,1358.4942)" clip-path="url(#clip2)" id="g4310" style="stroke-width:1;stroke-linecap:square;stroke-linejoin:miter;stroke-miterlimit:10;stroke-dasharray:none;stroke-dashoffset:0">
    <g id="g4312" style="fill:#000000;fill-opacity:1;fill-rule:evenodd;stroke:none">
      <path d="m 115.05,2 -4,16 8,0" id="path4314" />
    </g>
  </g>
  <g transform="matrix(1.5,0,0,1.5,396.46869,1321.8539)" clip-path="url(#clip4)" id="g4328" style="stroke-width:1;stroke-linecap:square;stroke-linejoin:miter;stroke-miterlimit:10;stroke-dasharray:none;stroke-dashoffset:0">
    <g id="g4330" style="fill:#000000;fill-opacity:1;fill-rule:evenodd;stroke:none">
      <path d="m 344,153.37 -16,-4 0,8" id="path4332" />
    </g>
  </g>
  <g transform="matrix(1.5,0,0,1.5,498.23921,1332.2747)" id="layer0" style="fill:#000000;fill-opacity:1;stroke:#2b83ba;stroke-width:1.31359422;stroke-linecap:square;stroke-linejoin:miter;stroke-miterlimit:10;stroke-dasharray:none;stroke-dashoffset:0;stroke-opacity:1">
    <clipPath id="clip5">
      <path d="m 0,0 0,280 346,0 0,-280 z" id="path4337" />
    </clipPath>
    <g style="fill:#000000;fill-opacity:1;stroke:#2b83ba;stroke-width:1.57988346;stroke-miterlimit:10;stroke-dasharray:none;stroke-opacity:1" transform="matrix(0.82423777,0,0,0.83872556,24.498435,30.683488)" clip-path="url(#clip5)" id="g4339">
      <g id="g4341" style="fill:#000000;fill-opacity:1;stroke:#2b83ba;stroke-width:1.57988346;stroke-linecap:round;stroke-linejoin:round;stroke-miterlimit:10;stroke-dasharray:none;stroke-opacity:1">
        <path style="fill:#000000;fill-opacity:1;stroke:#2b83ba;stroke-width:1.57988346;stroke-miterlimit:10;stroke-dasharray:none;stroke-opacity:1" d="M 74.011,285 267.34,-5" id="path4343" />
      </g>
    </g>
  </g>
  <g style="font-style:normal;font-variant:normal;font-weight:normal;font-stretch:normal;letter-spacing:normal;word-spacing:normal;text-anchor:start;fill:none;fill-opacity:1;fill-rule:evenodd;stroke:#000000;stroke-linecap:butt;stroke-linejoin:miter;stroke-miterlimit:10.43299961;stroke-dasharray:none;stroke-dashoffset:0;stroke-opacity:1" ns0:preamble="/Users/kjb81/Documents/underground-inkscape-preamble.tex" ns0:text="$y$" word-spacing="normal" letter-spacing="normal" font-size-adjust="none" font-stretch="normal" font-weight="normal" font-variant="normal" font-style="normal" stroke-miterlimit="10.433" xml:space="preserve" transform="matrix(2.25,0,0,-2.25,147.76555,2449.5045)" id="g5127"><path id="path5129" d="m 226.62,480.86 -0.01,0.08 -0.01,0.08 -0.01,0.07 -0.01,0.07 -0.01,0.07 -0.01,0.07 -0.01,0.06 -0.01,0.06 -0.01,0.06 -0.01,0.05 -0.01,0.06 -0.01,0.05 -0.01,0.05 -0.01,0.04 -0.02,0.05 -0.01,0.05 -0.01,0.04 -0.02,0.04 -0.01,0.04 -0.01,0.04 -0.04,0.08 -0.03,0.07 -0.04,0.08 -0.04,0.07 -0.04,0.07 -0.05,0.07 -1.77,-0.3 0.02,-0.18 c 0.11,0.01 0.3,0.04 0.43,0.04 0.66,0 0.76,-0.71 0.82,-1.24 l 0.45,-3.7 c -0.31,-0.48 -0.98,-1.21 -1.18,-1.21 -0.19,0 -0.16,0.37 -0.67,0.37 -0.16,0 -0.47,-0.13 -0.47,-0.49 0,-0.28 0.22,-0.64 0.66,-0.64 0.8,0 1.57,1.15 2.43,2.24 0.5,0.62 2.41,3.46 2.41,4.38 0,0.46 -0.3,0.73 -0.67,0.73 -0.35,0 -0.56,-0.21 -0.56,-0.47 0,-0.45 0.61,-0.57 0.61,-0.82 0,-0.21 -0.09,-0.45 -0.33,-0.88 -0.26,-0.49 -0.67,-1.19 -1.39,-2.18 z" style="fill:#000000;stroke-width:0" /></g>  <g id="g5270" transform="matrix(2.25,0,0,-2.25,181.4359,2749.3287)" xml:space="preserve" stroke-miterlimit="10.433" font-style="normal" font-variant="normal" font-weight="normal" font-stretch="normal" font-size-adjust="none" letter-spacing="normal" word-spacing="normal" ns0:text="$(t=0)$" ns0:preamble="/Users/kjb81/Documents/underground-inkscape-preamble.tex" style="font-style:normal;font-variant:normal;font-weight:normal;font-stretch:normal;letter-spacing:normal;word-spacing:normal;text-anchor:start;fill:none;fill-opacity:1;fill-rule:evenodd;stroke:#000000;stroke-linecap:butt;stroke-linejoin:miter;stroke-miterlimit:10.43299961;stroke-dasharray:none;stroke-dashoffset:0;stroke-opacity:1"><path style="fill:#000000;stroke-width:0" d="m 227.02,475.33 -0.15,0.13 -0.14,0.13 -0.14,0.13 -0.13,0.13 -0.12,0.13 -0.12,0.13 -0.11,0.13 -0.1,0.14 -0.1,0.13 -0.09,0.13 -0.08,0.14 -0.08,0.14 -0.07,0.14 -0.07,0.14 -0.06,0.14 -0.06,0.14 -0.06,0.15 -0.04,0.15 -0.05,0.16 -0.04,0.15 -0.03,0.16 -0.03,0.16 -0.03,0.17 -0.02,0.17 -0.03,0.17 -0.01,0.18 -0.02,0.18 -0.01,0.18 -0.01,0.19 0,0.19 0,0.2 -0.01,0.21 c 0,2.27 0.37,3.37 2.01,4.78 l -0.11,0.19 c -1.88,-1.13 -2.91,-2.83 -2.91,-5.01 0,-2.01 1.01,-4 2.88,-5.07 z" id="path5272" /><path style="fill:#000000;stroke-width:0" d="m 230.72,482.41 -0.83,0 0.37,1.52 -0.16,0 c -0.48,-1.03 -1.2,-1.47 -2.09,-1.63 l -0.05,-0.34 0.91,0 -0.96,-3.78 c -0.04,-0.13 -0.06,-0.28 -0.06,-0.44 0,-0.32 0.09,-0.61 0.46,-0.61 0.7,0 1.29,0.9 1.57,1.26 l -0.15,0.13 c -0.44,-0.59 -0.71,-0.61 -0.71,-0.61 -0.15,0 -0.19,0.07 -0.19,0.14 0,0.03 0.01,0.09 0.02,0.13 l 0.92,3.78 0.83,0 z" id="path5274" /><polygon style="fill:#000000;stroke-width:0" points="234.41,481.01 241.37,481.01 241.37,481.79 234.41,481.79 " id="polygon5276" /><polygon style="fill:#000000;stroke-width:0" points="234.41,478.65 241.37,478.65 241.37,479.43 234.41,479.43 " id="polygon5278" /><path style="fill:#000000;stroke-width:0" d="m 250.35,481.13 0,0.23 -0.01,0.22 -0.01,0.21 -0.03,0.21 -0.02,0.21 -0.04,0.2 -0.03,0.19 -0.05,0.19 -0.05,0.18 -0.05,0.18 -0.06,0.17 -0.07,0.17 -0.07,0.16 -0.07,0.15 -0.08,0.14 -0.09,0.14 -0.09,0.13 -0.09,0.13 -0.1,0.11 -0.1,0.11 -0.1,0.1 -0.11,0.1 -0.12,0.08 -0.11,0.08 -0.13,0.07 -0.12,0.06 -0.13,0.05 -0.13,0.04 -0.13,0.03 -0.14,0.03 -0.14,0.01 -0.15,0.01 c -1.9,0 -2.71,-1.93 -2.71,-4.02 0,-1.93 0.65,-4.13 2.67,-4.13 l 0,0.31 c -1.02,0 -1.54,1.34 -1.54,3.74 0,2.4 0.53,3.79 1.51,3.79 1.04,0 1.56,-1.38 1.56,-3.84 l 0,0 c 0,-2.34 -0.53,-3.69 -1.53,-3.69 l 0,-0.31 c 1.92,0 2.66,2.03 2.66,4.06 z" id="path5280" /><path style="fill:#000000;stroke-width:0" d="m 251,485.03 0.16,-0.13 0.15,-0.13 0.14,-0.12 0.13,-0.13 0.12,-0.13 0.12,-0.13 0.11,-0.13 0.11,-0.13 0.09,-0.13 0.1,-0.13 0.08,-0.14 0.08,-0.14 0.07,-0.14 0.07,-0.14 0.06,-0.14 0.06,-0.15 0.05,-0.14 0.04,-0.15 0.05,-0.16 0.03,-0.16 0.04,-0.15 0.03,-0.17 0.02,-0.16 0.03,-0.17 0.01,-0.18 0.02,-0.18 0.01,-0.18 0.01,-0.18 0.01,-0.19 0,-0.2 0.01,-0.2 0,-0.2 c 0,-2.29 -0.33,-3.41 -2.01,-4.79 l 0.11,-0.19 c 1.87,1.15 2.91,2.83 2.91,5.01 0,2.01 -1.07,3.98 -2.88,5.07 z" id="path5282" /></g>  <g id="content" transform="matrix(2.25,0,0,-2.25,270.43881,2656.4764)" xml:space="preserve" stroke-miterlimit="10.433" font-style="normal" font-variant="normal" font-weight="normal" font-stretch="normal" font-size-adjust="none" letter-spacing="normal" word-spacing="normal" ns0:text="$(t=\\frac{1}{3})$" ns0:preamble="/Users/kjb81/Documents/underground-inkscape-preamble.tex" style="font-style:normal;font-variant:normal;font-weight:normal;font-stretch:normal;letter-spacing:normal;word-spacing:normal;text-anchor:start;fill:none;fill-opacity:1;fill-rule:evenodd;stroke:#000000;stroke-linecap:butt;stroke-linejoin:miter;stroke-miterlimit:10.43299961;stroke-dasharray:none;stroke-dashoffset:0;stroke-opacity:1"><path d="m 227.02,474.53 -0.15,0.13 -0.14,0.13 -0.14,0.13 -0.13,0.13 -0.12,0.13 -0.12,0.13 -0.11,0.13 -0.1,0.13 -0.1,0.14 -0.09,0.13 -0.08,0.14 -0.08,0.13 -0.07,0.14 -0.07,0.14 -0.06,0.15 -0.06,0.14 -0.06,0.15 -0.04,0.15 -0.05,0.15 -0.04,0.16 -0.03,0.16 -0.03,0.16 -0.03,0.16 -0.02,0.17 -0.03,0.18 -0.01,0.17 -0.02,0.18 -0.01,0.19 -0.01,0.19 0,0.19 0,0.2 -0.01,0.2 c 0,2.28 0.37,3.38 2.01,4.78 l -0.11,0.19 c -1.88,-1.12 -2.91,-2.82 -2.91,-5 0,-2.01 1.01,-4.01 2.88,-5.07 z" id="path5562" style="fill:#000000;stroke-width:0" /><path d="m 230.72,481.6 -0.83,0 0.37,1.53 -0.16,0 c -0.48,-1.03 -1.2,-1.47 -2.09,-1.63 l -0.05,-0.35 0.91,0 -0.96,-3.77 c -0.04,-0.13 -0.06,-0.29 -0.06,-0.44 0,-0.32 0.09,-0.61 0.46,-0.61 0.7,0 1.29,0.89 1.57,1.26 l -0.15,0.13 c -0.44,-0.59 -0.71,-0.61 -0.71,-0.61 -0.15,0 -0.19,0.07 -0.19,0.14 0,0.03 0.01,0.09 0.02,0.13 l 0.92,3.77 0.83,0 z" id="path5564" style="fill:#000000;stroke-width:0" /><polygon points="241.37,480.99 234.41,480.99 234.41,480.21 241.37,480.21 " id="polygon5566" style="fill:#000000;stroke-width:0" /><polygon points="241.37,478.63 234.41,478.63 234.41,477.85 241.37,477.85 " id="polygon5568" style="fill:#000000;stroke-width:0" /><path d="m 249.41,481.21 0,0.14 c -0.66,0 -0.84,0.16 -0.84,0.54 l 0,5.26 -0.08,0.03 -1.58,-0.8 0,-0.13 0.24,0.09 c 0.16,0.06 0.31,0.11 0.4,0.11 0.19,0 0.27,-0.13 0.27,-0.43 l 0,-3.97 c 0,-0.48 -0.19,-0.67 -0.84,-0.7 l 0,-0.14 z" id="path5570" style="fill:#000000;stroke-width:0" /><line x1="245.92999" y1="478.92001" x2="250.36" y2="478.92001" id="line5572" style="stroke-width:0.65799999" /><path d="m 246.47,476.15 0.04,0.06 0.03,0.06 0.03,0.05 0.04,0.06 0.03,0.05 0.04,0.05 0.04,0.05 0.03,0.04 0.04,0.05 0.04,0.04 0.03,0.04 0.04,0.03 0.04,0.04 0.04,0.03 0.04,0.03 0.04,0.03 0.04,0.03 0.04,0.03 0.04,0.02 0.05,0.02 0.04,0.02 0.04,0.02 0.05,0.02 0.04,0.01 0.05,0.02 0.04,0.01 0.05,0.01 0.05,0 0.05,0.01 0.05,0 0.05,0.01 0.05,0 c 0.58,0 0.95,-0.3 0.95,-0.9 0,-0.54 -0.28,-0.94 -0.71,-1.19 -0.18,-0.1 -0.41,-0.2 -0.75,-0.31 l 0,-0.13 c 0.51,0 0.71,-0.02 0.91,-0.09 0.61,-0.17 0.91,-0.61 0.91,-1.27 0,-0.76 -0.49,-1.36 -1.14,-1.36 -0.25,0 -0.44,0.05 -0.76,0.28 -0.25,0.17 -0.39,0.23 -0.54,0.23 -0.21,0 -0.37,-0.14 -0.37,-0.32 0,-0.32 0.35,-0.5 0.99,-0.5 0.79,0 1.63,0.25 2.06,0.82 0.25,0.33 0.4,0.76 0.4,1.23 0,0.46 -0.14,0.87 -0.39,1.14 -0.18,0.2 -0.34,0.3 -0.73,0.47 0.59,0.35 0.82,0.79 0.82,1.22 0,0.72 -0.56,1.21 -1.38,1.21 -0.92,0 -1.47,-0.6 -1.73,-1.43 z" id="path5574" style="fill:#000000;stroke-width:0" /><path d="m 251.9,484.22 0.15,-0.12 0.15,-0.13 0.14,-0.13 0.13,-0.12 0.13,-0.13 0.12,-0.13 0.11,-0.13 0.1,-0.13 0.1,-0.13 0.09,-0.14 0.08,-0.13 0.08,-0.14 0.08,-0.14 0.06,-0.14 0.06,-0.14 0.06,-0.15 0.05,-0.15 0.05,-0.15 0.04,-0.15 0.04,-0.16 0.03,-0.16 0.03,-0.16 0.03,-0.17 0.02,-0.17 0.02,-0.17 0.01,-0.18 0.02,-0.18 0.01,-0.19 0,-0.19 0.01,-0.19 0,-0.2 0,-0.21 c 0,-2.29 -0.33,-3.4 -2,-4.78 l 0.1,-0.19 c 1.88,1.15 2.92,2.82 2.92,5.01 0,2.01 -1.08,3.98 -2.88,5.06 z" id="path5576" style="fill:#000000;stroke-width:0" /></g>  <g ns0:preamble="/Users/kjb81/Documents/underground-inkscape-preamble.tex" ns0:text="$\\frac{2}{3}$" word-spacing="normal" letter-spacing="normal" font-size-adjust="none" font-stretch="normal" font-weight="normal" font-variant="normal" font-style="normal" stroke-miterlimit="10.433" xml:space="preserve" transform="matrix(2.25,0,0,-2.25,242.0801,2658.8489)" id="g5712" style="font-style:normal;font-variant:normal;font-weight:normal;font-stretch:normal;letter-spacing:normal;word-spacing:normal;text-anchor:start;fill:none;fill-opacity:1;fill-rule:evenodd;stroke:#000000;stroke-linecap:butt;stroke-linejoin:miter;stroke-miterlimit:10.43299961;stroke-dasharray:none;stroke-dashoffset:0;stroke-opacity:1"><path id="path5714" d="m 228.82,482.42 -0.13,0.06 c -0.29,-0.5 -0.47,-0.59 -0.84,-0.59 l -2.07,0 1.46,1.55 c 0.78,0.83 1.13,1.49 1.13,2.19 0,0.87 -0.64,1.55 -1.64,1.55 -1.08,0 -1.65,-0.72 -1.84,-1.76 l 0.19,-0.04 c 0.35,0.86 0.66,1.15 1.3,1.15 0.75,0 1.23,-0.44 1.23,-1.25 0,-0.75 -0.32,-1.42 -1.15,-2.29 l -1.58,-1.67 0,-0.11 3.46,0 z" style="fill:#000000;stroke-width:0" /><line id="line5716" y2="478.92001" x2="229.05" y1="478.92001" x1="224.63" style="stroke-width:0.65799999" /><path id="path5718" d="m 225.17,476.15 0.03,0.06 0.04,0.06 0.03,0.05 0.04,0.06 0.03,0.05 0.04,0.05 0.03,0.05 0.04,0.04 0.04,0.05 0.03,0.04 0.04,0.04 0.04,0.03 0.04,0.04 0.04,0.03 0.04,0.03 0.04,0.03 0.04,0.03 0.04,0.03 0.04,0.02 0.04,0.02 0.05,0.02 0.04,0.02 0.04,0.02 0.05,0.01 0.04,0.02 0.05,0.01 0.05,0.01 0.04,0 0.05,0.01 0.05,0 0.05,0.01 0.05,0 c 0.59,0 0.96,-0.3 0.96,-0.9 0,-0.54 -0.28,-0.94 -0.72,-1.19 -0.17,-0.1 -0.4,-0.2 -0.74,-0.31 l 0,-0.13 c 0.5,0 0.71,-0.02 0.9,-0.09 0.61,-0.17 0.92,-0.61 0.92,-1.27 0,-0.76 -0.49,-1.36 -1.15,-1.36 -0.25,0 -0.43,0.05 -0.76,0.28 -0.24,0.17 -0.39,0.23 -0.54,0.23 -0.2,0 -0.36,-0.14 -0.36,-0.32 0,-0.32 0.35,-0.5 0.99,-0.5 0.79,0 1.63,0.25 2.05,0.82 0.26,0.33 0.41,0.76 0.41,1.23 0,0.46 -0.14,0.87 -0.39,1.14 -0.19,0.2 -0.35,0.3 -0.73,0.47 0.59,0.35 0.82,0.79 0.82,1.22 0,0.72 -0.56,1.21 -1.38,1.21 -0.92,0 -1.48,-0.6 -1.73,-1.43 z" style="fill:#000000;stroke-width:0" /></g>  <g id="g5860" transform="matrix(2.25,0,0,-2.25,384.99324,2648.9897)" xml:space="preserve" stroke-miterlimit="10.433" font-style="normal" font-variant="normal" font-weight="normal" font-stretch="normal" font-size-adjust="none" letter-spacing="normal" word-spacing="normal" ns0:text="$x$" ns0:preamble="/Users/kjb81/Documents/underground-inkscape-preamble.tex" style="font-style:normal;font-variant:normal;font-weight:normal;font-stretch:normal;letter-spacing:normal;word-spacing:normal;text-anchor:start;fill:none;fill-opacity:1;fill-rule:evenodd;stroke:#000000;stroke-linecap:butt;stroke-linejoin:miter;stroke-miterlimit:10.43299961;stroke-dasharray:none;stroke-dashoffset:0;stroke-opacity:1"><path style="fill:#000000;stroke-width:0" d="m 227.03,480.64 -0.23,0.64 c -0.15,0.39 -0.37,0.88 -0.89,1.16 l -1.56,-0.39 0.04,-0.21 c 0.12,0.05 0.29,0.07 0.45,0.07 0.65,0 0.95,-0.48 1.15,-1.05 l 0.39,-1.09 -0.76,-1.19 c -0.38,-0.58 -0.69,-0.7 -0.83,-0.7 -0.3,0 -0.25,0.24 -0.55,0.24 -0.3,0 -0.45,-0.25 -0.45,-0.44 0,-0.26 0.19,-0.55 0.61,-0.55 0.66,0 1,0.51 1.38,1.08 l 0.74,1.16 0.48,-1.33 c 0.15,-0.43 0.38,-0.91 0.86,-0.91 0.68,0 1.21,1.13 1.36,1.31 l -0.17,0.12 c -0.25,-0.51 -0.53,-0.68 -0.72,-0.68 -0.53,0 -0.8,1.6 -1.15,2.33 l 0.64,1 c 0.17,0.26 0.3,0.45 0.65,0.45 0.2,0 0.26,-0.1 0.52,-0.1 0.31,0 0.46,0.27 0.46,0.49 0,0.25 -0.2,0.39 -0.57,0.39 -0.6,0 -1.01,-0.52 -1.32,-0.99 z" id="path5862" /></g>  <path id="path5934" d="m 783.59705,1497.5526 6.13988,-9.5328" style="fill:none;fill-rule:evenodd;stroke:#2b83ba;stroke-width:1.57631314;stroke-linecap:butt;stroke-linejoin:miter;stroke-miterlimit:4;stroke-dasharray:none;stroke-opacity:1;marker-end:url(#Arrow2Lend)" />
  <g style="font-style:normal;font-variant:normal;font-weight:normal;font-stretch:normal;letter-spacing:normal;word-spacing:normal;text-anchor:start;fill:none;fill-opacity:1;fill-rule:evenodd;stroke:#000000;stroke-linecap:butt;stroke-linejoin:miter;stroke-miterlimit:10.43299961;stroke-dasharray:none;stroke-dashoffset:0;stroke-opacity:1" ns0:preamble="/Users/Lizzie/Documents/Old mac/CMEP folder/underground-inkscape-preamble.tex" ns0:text="$t$ increasing" word-spacing="normal" letter-spacing="normal" font-size-adjust="none" font-stretch="normal" font-weight="normal" font-variant="normal" font-style="normal" stroke-miterlimit="10.433" xml:space="preserve" transform="matrix(2.2499996,-0.00115082,-0.00115074,-2.2499997,296.28548,2576.8178)" id="g6137"><path id="path6139" d="m 226.78,482.41 -0.82,0 0.36,1.52 -0.15,0 c -0.49,-1.03 -1.21,-1.47 -2.1,-1.63 l -0.06,-0.34 0.91,0 -0.96,-3.78 c -0.03,-0.13 -0.05,-0.28 -0.05,-0.44 0,-0.32 0.09,-0.61 0.46,-0.61 0.7,0 1.29,0.9 1.57,1.26 l -0.15,0.13 c -0.44,-0.59 -0.71,-0.61 -0.71,-0.61 -0.16,0 -0.19,0.07 -0.19,0.14 0,0.03 0.01,0.09 0.02,0.13 l 0.93,3.78 0.82,0 z" style="fill:#000000;stroke-width:0" /><polygon id="polygon6141" points="230.58,482.58 231.39,482.58 231.39,477.23 230.58,477.23 " style="fill:#000000;stroke-width:0" /><path id="path6143" d="m 230.51,484.01 0,0.02 0,0.02 0,0.01 0,0.02 0,0.01 0.01,0.02 0,0.02 0,0.01 0,0.02 0,0.01 0.01,0.01 0,0.02 0,0.01 0.01,0.02 0,0.01 0.01,0.01 0,0.01 0,0.02 0.01,0.01 0,0.01 0.01,0.01 0.01,0.01 0,0.01 0.01,0.01 0,0.01 0.01,0.01 0.01,0.01 0.01,0.01 0,0.01 0.01,0.01 0.01,0.01 0.01,0.01 c 0.09,0.08 0.2,0.13 0.34,0.13 0.13,0 0.24,-0.05 0.33,-0.13 0.1,-0.09 0.15,-0.23 0.15,-0.41 -0.01,-0.18 -0.05,-0.32 -0.15,-0.4 -0.09,-0.09 -0.2,-0.14 -0.33,-0.14 -0.14,0 -0.25,0.05 -0.34,0.14 -0.1,0.08 -0.14,0.22 -0.14,0.4 z" style="fill:#000000;stroke-width:0" /><path id="path6145" d="m 236.75,477.23 0,3.45 c 0,0.44 -0.1,0.76 -0.29,0.98 -0.2,0.21 -0.51,0.32 -0.93,0.32 -0.56,0 -0.97,-0.15 -1.23,-0.45 -0.26,-0.3 -0.39,-0.8 -0.39,-1.5 l 0,-2.8 -0.81,0 0,5.35 0.66,0 0.13,-0.74 0.04,0 c 0.17,0.26 0.4,0.46 0.7,0.61 0.3,0.14 0.63,0.22 0.99,0.22 0.65,0 1.13,-0.16 1.45,-0.47 0.33,-0.31 0.49,-0.8 0.49,-1.49 l 0,-3.48 z" style="fill:#000000;stroke-width:0" /><path id="path6147" d="m 241.35,477.14 -0.07,0.01 -0.07,0 -0.07,0 -0.07,0.01 -0.07,0 -0.07,0.01 -0.06,0.01 -0.07,0.01 -0.06,0.01 -0.06,0.01 -0.06,0.02 -0.07,0.02 -0.06,0.01 -0.05,0.02 -0.06,0.02 -0.06,0.02 -0.05,0.03 -0.06,0.02 -0.05,0.03 -0.05,0.02 -0.06,0.03 -0.05,0.03 -0.04,0.03 -0.05,0.04 -0.05,0.03 -0.05,0.04 -0.04,0.03 -0.05,0.04 -0.04,0.04 -0.04,0.04 -0.04,0.04 -0.04,0.05 c -0.43,0.47 -0.64,1.14 -0.64,2.01 0,0.89 0.22,1.58 0.65,2.07 0.42,0.48 1.04,0.73 1.83,0.73 0.26,0 0.52,-0.03 0.77,-0.09 0.26,-0.05 0.46,-0.12 0.61,-0.19 l -0.25,-0.69 c -0.18,0.07 -0.38,0.13 -0.59,0.18 -0.21,0.05 -0.39,0.07 -0.56,0.07 -1.08,0 -1.62,-0.69 -1.62,-2.07 0,-0.65 0.13,-1.15 0.4,-1.5 0.26,-0.35 0.65,-0.53 1.17,-0.53 0.44,0 0.9,0.1 1.37,0.29 l 0,-0.72 c -0.36,-0.18 -0.81,-0.28 -1.35,-0.28 z" style="fill:#000000;stroke-width:0" /><path id="path6149" d="m 246.39,482.67 0.04,0 0.04,-0.01 0.05,0 0.04,0 0.04,0 0.04,0 0.04,-0.01 0.04,0 0.04,0 0.04,-0.01 0.04,0 0.04,-0.01 0.04,0 0.03,-0.01 0.04,-0.01 0.03,0 -0.11,-0.75 c -0.22,0.05 -0.41,0.07 -0.58,0.07 -0.43,0 -0.8,-0.17 -1.1,-0.52 -0.31,-0.36 -0.46,-0.79 -0.46,-1.31 l 0,-2.87 -0.81,0 0,5.35 0.67,0 0.09,-1 0.04,0 c 0.19,0.35 0.43,0.62 0.71,0.8 0.28,0.19 0.58,0.29 0.92,0.29 z" style="fill:#000000;stroke-width:0" /><path id="path6151" d="m 250.08,477.14 -0.08,0.01 -0.07,0 -0.07,0 -0.07,0.01 -0.07,0 -0.07,0.01 -0.07,0.01 -0.06,0.01 -0.07,0.01 -0.06,0.02 -0.07,0.01 -0.06,0.02 -0.06,0.01 -0.06,0.02 -0.06,0.02 -0.06,0.02 -0.06,0.03 -0.05,0.02 -0.06,0.03 -0.05,0.03 -0.06,0.03 -0.05,0.03 -0.05,0.03 -0.05,0.03 -0.05,0.03 -0.05,0.04 -0.05,0.04 -0.05,0.04 -0.04,0.04 -0.05,0.04 -0.04,0.04 -0.05,0.04 c -0.45,0.48 -0.68,1.15 -0.68,2 0,0.86 0.21,1.54 0.63,2.05 0.43,0.5 0.99,0.76 1.71,0.76 0.66,0 1.19,-0.22 1.58,-0.66 0.39,-0.44 0.58,-1.01 0.58,-1.73 l 0,-0.51 -3.66,0 0.02,0.66 2.78,0 c 0,0.5 -0.12,0.89 -0.34,1.16 -0.23,0.27 -0.55,0.4 -0.97,0.4 l 0,0 c -0.43,0 -0.77,-0.14 -1.02,-0.41 -0.26,-0.28 -0.41,-0.66 -0.45,-1.15 l -0.02,-0.66 c 0.01,-0.63 0.17,-1.1 0.47,-1.43 0.3,-0.33 0.72,-0.49 1.27,-0.49 0.57,0 1.14,0.12 1.69,0.36 l 0,-0.72 c -0.28,-0.12 -0.55,-0.21 -0.8,-0.26 -0.26,-0.06 -0.56,-0.09 -0.92,-0.09 z" style="fill:#000000;stroke-width:0" /><path id="path6153" d="m 256.7,477.23 -0.16,0.76 -0.04,0 -0.44,0.23 c 0.29,0.28 0.44,0.66 0.44,1.16 l 0,0.47 -0.81,-0.03 c -0.65,-0.02 -1.11,-0.12 -1.4,-0.3 -0.28,-0.18 -0.42,-0.45 -0.42,-0.82 -0.01,-0.29 0.09,-0.51 0.26,-0.66 0.18,-0.15 0.43,-0.23 0.75,-0.23 l 0,0 c 0.5,0 0.9,0.14 1.18,0.41 l 0.44,-0.23 c -0.26,-0.33 -0.53,-0.55 -0.79,-0.67 -0.27,-0.12 -0.6,-0.18 -0.99,-0.18 -0.53,0 -0.95,0.14 -1.25,0.41 -0.3,0.27 -0.45,0.66 -0.45,1.16 0,1.07 0.86,1.64 2.59,1.69 l 0.91,0.03 0,0.33 c 0,0.42 -0.1,0.74 -0.28,0.94 -0.18,0.2 -0.46,0.3 -0.86,0.3 -0.45,0 -0.95,-0.14 -1.51,-0.41 l -0.25,0.62 c 0.26,0.14 0.55,0.25 0.87,0.33 0.31,0.08 0.62,0.13 0.94,0.13 0.63,0 1.11,-0.15 1.41,-0.43 0.31,-0.28 0.46,-0.73 0.46,-1.36 l 0,-3.65 z" style="fill:#000000;stroke-width:0" /><path id="path6155" d="m 262.39,478.7 0,-0.05 0,-0.05 0,-0.04 -0.01,-0.05 0,-0.04 -0.01,-0.04 -0.01,-0.04 0,-0.05 -0.01,-0.04 -0.01,-0.04 -0.01,-0.04 -0.02,-0.03 -0.01,-0.04 -0.02,-0.04 -0.01,-0.04 -0.02,-0.03 -0.02,-0.04 -0.01,-0.03 -0.02,-0.04 -0.03,-0.03 -0.02,-0.03 -0.02,-0.04 -0.02,-0.03 -0.03,-0.03 -0.03,-0.03 -0.02,-0.03 -0.03,-0.03 -0.03,-0.02 -0.03,-0.03 -0.03,-0.03 -0.04,-0.03 -0.03,-0.02 c -0.37,-0.27 -0.89,-0.41 -1.56,-0.41 -0.7,0 -1.25,0.12 -1.65,0.34 l 0,0.74 c 0.26,-0.13 0.53,-0.23 0.82,-0.3 0.3,-0.07 0.58,-0.11 0.85,-0.11 0.42,0 0.75,0.07 0.97,0.2 0.23,0.14 0.34,0.34 0.34,0.62 0,0.2 -0.09,0.38 -0.27,0.53 -0.18,0.14 -0.53,0.32 -1.05,0.52 -0.49,0.19 -0.84,0.35 -1.05,0.49 -0.21,0.13 -0.37,0.29 -0.47,0.47 -0.1,0.17 -0.15,0.38 -0.15,0.62 0,0.43 0.18,0.78 0.53,1.03 0.35,0.25 0.83,0.38 1.45,0.38 0.57,0 1.13,-0.12 1.68,-0.35 l -0.29,-0.66 c -0.53,0.22 -1.01,0.33 -1.45,0.33 -0.38,0 -0.67,-0.06 -0.86,-0.18 -0.2,-0.12 -0.29,-0.29 -0.29,-0.49 0,-0.15 0.03,-0.27 0.11,-0.37 0.07,-0.1 0.19,-0.2 0.35,-0.29 0.16,-0.09 0.47,-0.22 0.93,-0.39 0.63,-0.23 1.06,-0.46 1.28,-0.69 0.22,-0.24 0.33,-0.53 0.33,-0.88 z" style="fill:#000000;stroke-width:0" /><polygon id="polygon6157" points="263.71,482.58 264.52,482.58 264.52,477.23 263.71,477.23 " style="fill:#000000;stroke-width:0" /><path id="path6159" d="m 263.64,484.01 0,0.02 0,0.02 0,0.01 0,0.02 0,0.01 0,0.02 0.01,0.02 0,0.01 0,0.02 0,0.01 0.01,0.01 0,0.02 0,0.01 0.01,0.02 0,0.01 0,0.01 0.01,0.01 0,0.02 0.01,0.01 0,0.01 0.01,0.01 0,0.01 0.01,0.01 0.01,0.01 0,0.01 0.01,0.01 0.01,0.01 0,0.01 0.01,0.01 0.01,0.01 0.01,0.01 0.01,0.01 c 0.09,0.08 0.2,0.13 0.34,0.13 0.13,0 0.24,-0.05 0.33,-0.13 0.1,-0.09 0.14,-0.23 0.14,-0.41 0,-0.18 -0.04,-0.32 -0.14,-0.4 -0.09,-0.09 -0.2,-0.14 -0.33,-0.14 -0.14,0 -0.25,0.05 -0.34,0.14 -0.1,0.08 -0.14,0.22 -0.14,0.4 z" style="fill:#000000;stroke-width:0" /><path id="path6161" d="m 269.88,477.23 0,3.45 c 0,0.44 -0.1,0.76 -0.29,0.98 -0.2,0.21 -0.51,0.32 -0.93,0.32 -0.56,0 -0.97,-0.15 -1.23,-0.45 -0.26,-0.3 -0.39,-0.8 -0.39,-1.5 l 0,-2.8 -0.81,0 0,5.35 0.66,0 0.13,-0.74 0.04,0 c 0.16,0.26 0.4,0.46 0.7,0.61 0.29,0.14 0.63,0.22 0.99,0.22 0.64,0 1.13,-0.16 1.45,-0.47 0.33,-0.31 0.49,-0.8 0.49,-1.49 l 0,-3.48 z" style="fill:#000000;stroke-width:0" /><path id="path6163" d="m 276.71,482.58 0,-0.51 -0.98,-0.12 c 0.09,-0.12 0.17,-0.26 0.24,-0.44 0.07,-0.19 0.11,-0.39 0.11,-0.62 0,-0.53 -0.18,-0.94 -0.54,-1.25 -0.36,-0.31 -0.85,-0.47 -1.47,-0.47 l 0.03,0.57 c 0.78,0 1.18,0.38 1.18,1.14 -0.01,0.8 -0.4,1.2 -1.2,1.2 -0.38,0 -0.67,-0.1 -0.88,-0.31 -0.2,-0.2 -0.3,-0.5 -0.3,-0.9 l 0,0 c 0,-0.37 0.1,-0.65 0.31,-0.84 0.21,-0.19 0.51,-0.29 0.89,-0.29 l -0.03,-0.57 c -0.16,0 -0.31,0.02 -0.45,0.04 -0.34,-0.18 -0.51,-0.41 -0.51,-0.68 0,-0.15 0.06,-0.26 0.18,-0.33 0.12,-0.07 0.32,-0.1 0.61,-0.1 l 0.95,0 c 0.57,0 1.02,-0.12 1.33,-0.37 0.31,-0.24 0.46,-0.59 0.46,-1.06 0,-0.59 -0.23,-1.05 -0.71,-1.36 -0.47,-0.31 -1.16,-0.46 -2.07,-0.46 -0.7,0 -1.23,0.13 -1.61,0.39 -0.38,0.26 -0.57,0.63 -0.57,1.1 0,0.33 0.11,0.61 0.31,0.85 0.21,0.23 0.5,0.4 0.88,0.48 l -0.1,-0.56 c -0.21,-0.18 -0.31,-0.43 -0.31,-0.76 l 0,0 c 0,-0.29 0.12,-0.51 0.37,-0.66 0.24,-0.15 0.59,-0.22 1.04,-0.22 0.68,0 1.18,0.1 1.51,0.3 0.32,0.2 0.49,0.48 0.49,0.83 0,0.29 -0.09,0.49 -0.27,0.61 -0.18,0.11 -0.52,0.17 -1.01,0.17 l -0.97,0 c -0.36,-0.01 -0.65,-0.09 -0.85,-0.27 l 0.1,0.56 c -0.14,0.06 -0.25,0.16 -0.34,0.29 -0.1,0.13 -0.14,0.28 -0.14,0.45 0,0.19 0.05,0.37 0.15,0.51 0.11,0.15 0.27,0.29 0.49,0.42 -0.27,0.12 -0.5,0.31 -0.67,0.58 -0.18,0.27 -0.26,0.58 -0.26,0.93 0,0.58 0.17,1.03 0.52,1.34 0.36,0.32 0.85,0.48 1.49,0.48 0.28,0 0.53,-0.03 0.76,-0.09 z" style="fill:#000000;stroke-width:0" /></g>  <g transform="matrix(1.6805625,0,0,1.6805627,575.80982,976.60553)" id="layer1">
    <g style="font-style:normal;font-variant:normal;font-weight:normal;font-stretch:normal;letter-spacing:normal;word-spacing:normal;text-anchor:start;fill:none;fill-opacity:1;fill-rule:evenodd;stroke:#000000;stroke-linecap:butt;stroke-linejoin:miter;stroke-miterlimit:10.43299961;stroke-dasharray:none;stroke-dashoffset:0;stroke-opacity:1" ns0:preamble="/Users/Lizzie/Documents/Old mac/CMEP folder/underground-inkscape-preamble.tex" ns0:text="$-1$" word-spacing="normal" letter-spacing="normal" font-size-adjust="none" font-stretch="normal" font-weight="normal" font-variant="normal" font-style="normal" stroke-miterlimit="10.433" xml:space="preserve" transform="matrix(1.5,0,0,-1.5,-300,1125)" id="content-4"><polygon style="fill:#000000;stroke-width:0" id="polygon7303" points="224.19,479.83 230.79,479.83 230.79,480.61 224.19,480.61 " /><path style="fill:#000000;stroke-width:0" id="path7305" d="m 236.21,477.23 0,0.18 c -0.88,0 -1.12,0.21 -1.12,0.72 l 0,7.05 -0.11,0.04 -2.12,-1.08 0,-0.16 0.32,0.11 c 0.22,0.09 0.42,0.15 0.53,0.15 0.25,0 0.36,-0.18 0.36,-0.58 l 0,-5.3 c 0,-0.65 -0.25,-0.9 -1.12,-0.95 l 0,-0.18 z" /></g>  </g>
</svg>