<?xml version='1.0' ?><svg xmlns:ns0="http://www.iki.fi/pav/software/textext/" xmlns:dc="http://purl.org/dc/elements/1.1/" xmlns:cc="http://creativecommons.org/ns#" xmlns:rdf="http://www.w3.org/1999/02/22-rdf-syntax-ns#" xmlns:svg="http://www.w3.org/2000/svg" xmlns="http://www.w3.org/2000/svg" id="svg9149" version="1.1" width="166.20214" height="175.50435" viewBox="116.67589593608733 491.09818898093926 97.34763909651743 102.7961139589952" preserveAspectRatio="none">
  <metadata id="metadata9206">
    <rdf:RDF>
      <cc:Work rdf:about="">
        <dc:format>image/svg+xml</dc:format>
        <dc:type rdf:resource="http://purl.org/dc/dcmitype/StillImage" />
        <dc:title />
      </cc:Work>
    </rdf:RDF>
  </metadata>
  <defs id="defs9204">
    <marker style="overflow:visible;" id="marker4507" refX="0.0" refY="0.0" orient="auto">
      <path transform="scale(1.1) rotate(180) translate(1,0)" d="M 8.7185878,4.0337352 L -2.2072895,0.016013256 L 8.7185884,-4.0017078 C 6.9730900,-1.6296469 6.9831476,1.6157441 8.7185878,4.0337352 z " style="fill-rule:evenodd;stroke-width:0.625;stroke-linejoin:round;stroke:#2b83ba;stroke-opacity:1;fill:#2b83ba;fill-opacity:1" id="path4272" />
    </marker>
    <clipPath id="clip1">
      <path id="path9156" d="m 0,0 0,197 143,0 0,-197 z" />
    </clipPath>
    <clipPath id="clip2">
      <path id="path9165" d="m 0,0 0,197 143,0 0,-197 z" />
    </clipPath>
    <clipPath id="clip3">
      <path id="path9174" d="m 0,0 0,197 143,0 0,-197 z" />
    </clipPath>
    <clipPath id="clip4">
      <path id="path9183" d="m 0,0 0,197 143,0 0,-197 z" />
    </clipPath>
    <clipPath id="clip49">
      <path d="m 0,0 0,406 544,0 0,-406 z" id="path6096" />
    </clipPath>
    <clipPath id="clip52">
      <path d="m 0,0 0,406 544,0 0,-406 z" id="path6135" />
    </clipPath>
  </defs>
  <g transform="matrix(0.60267924,0,0,0.60267924,116.67589,484.10852)" id="misc" style="stroke-width:1;stroke-linecap:square;stroke-linejoin:miter;stroke-miterlimit:10;stroke-dasharray:none;stroke-dashoffset:0" />
  <g id="g9158" clip-path="url(#clip1)" transform="matrix(0.60267924,0,0,0.53560361,116.67589,488.38041)" style="stroke-width:0.75435674;stroke-linecap:square;stroke-linejoin:miter;stroke-miterlimit:10;stroke-dasharray:none;stroke-dashoffset:0">
    <g style="fill:none;stroke:#000000;stroke-width:0.78808498;stroke-linecap:butt;stroke-miterlimit:10;stroke-dasharray:none;stroke-opacity:1" id="g9160" transform="matrix(1,0,0,0.9162363,0.03822894,16.501448)">
      <path style="stroke-width:0.78808498;stroke-miterlimit:10;stroke-dasharray:none" id="path9162" d="m 40.025,3 0,194" />
    </g>
  </g>
  <g transform="matrix(0.50762256,0,0,0.50762256,120.10031,491.19536)" id="g9167" clip-path="url(#clip2)" style="stroke-width:1;stroke-linecap:square;stroke-linejoin:miter;stroke-miterlimit:10;stroke-dasharray:none;stroke-dashoffset:0">
    <g transform="translate(0,-1.2495324)" style="fill:#000000;fill-opacity:1;fill-rule:evenodd;stroke:none" id="g9169">
      <path id="path9171" d="m 40.025,2 -4,16 8,0" />
    </g>
  </g>
  <g transform="matrix(0.60267924,0,0,0.60267924,116.67589,484.10852)" id="g9176" clip-path="url(#clip3)" style="stroke:#000000;stroke-width:0.71114051;stroke-linecap:square;stroke-linejoin:miter;stroke-miterlimit:10;stroke-dasharray:none;stroke-dashoffset:0;stroke-opacity:1">
    <g style="fill:none;stroke:#000000;stroke-width:0.71114051;stroke-linecap:butt;stroke-miterlimit:10;stroke-dasharray:none;stroke-opacity:1" id="g9178">
      <path style="stroke:#000000;stroke-width:0.71114051;stroke-miterlimit:10;stroke-dasharray:none;stroke-opacity:1" id="path9180" d="m 0,106.6 140,0" />
    </g>
  </g>
  <g transform="matrix(0.50762256,0,0,0.50762256,129.42982,494.62179)" id="g9185" clip-path="url(#clip4)" style="stroke-width:1;stroke-linecap:square;stroke-linejoin:miter;stroke-miterlimit:10;stroke-dasharray:none;stroke-dashoffset:0">
    <g style="fill:#000000;fill-opacity:1;fill-rule:evenodd;stroke:none" id="g9187" transform="translate(1.2495324,0)">
      <path id="path9189" d="m 141,106.6 -16,-4 0,8" />
    </g>
  </g>
  <g transform="matrix(0.60267924,0,0,0.60267924,116.67589,484.10852)" id="layer0" style="stroke:#2b83ba;stroke-width:1.03664804;stroke-linecap:square;stroke-linejoin:miter;stroke-miterlimit:10;stroke-dasharray:none;stroke-dashoffset:0;stroke-opacity:1">
    <clipPath id="clip5">
      <path id="path9194" d="m 0,0 0,197 143,0 0,-197 z" />
    </clipPath>
    <g style="stroke:#2b83ba;stroke-width:1.03664804;stroke-miterlimit:10;stroke-dasharray:none;stroke-opacity:1" id="g9196" clip-path="url(#clip5)">
      <g style="fill:none;stroke:#2b83ba;stroke-width:1.03664804;stroke-linecap:round;stroke-linejoin:round;stroke-miterlimit:10;stroke-dasharray:none;stroke-opacity:1" id="g9198">
        <path style="stroke:#2b83ba;stroke-width:1.03664804;stroke-miterlimit:10;stroke-dasharray:none;stroke-opacity:1" id="path9200" d="m 40.025,39.845 1.638,0.02 1.638,0.06 1.635,0.101 1.632,0.14 1.628,0.181 1.624,0.22 1.617,0.26 1.611,0.3 1.602,0.34 1.594,0.378 1.585,0.418 1.573,0.456 1.562,0.495 1.549,0.533 1.536,0.57 1.521,0.609 1.505,0.645 1.49,0.682 1.472,0.719 1.454,0.755 1.436,0.789 1.415,0.825 1.395,0.86 1.373,0.893 1.351,0.927 1.328,0.96 1.304,0.992 1.279,1.023 1.253,1.055 1.227,1.085 1.201,1.115 1.172,1.145 1.144,1.172 1.115,1.2 1.086,1.228 1.054,1.253 1.024,1.279 0.992,1.304 0.96,1.328 0.927,1.351 0.893,1.373 0.859,1.395 0.825,1.415 0.79,1.435 0.755,1.455 0.721,1.472 0.68,1.489 0.65,1.506 0.6,1.521 0.57,1.536 0.54,1.549 0.49,1.562 0.46,1.573 0.42,1.584 0.37,1.594 0.34,1.603 0.3,1.611 0.26,1.617 0.22,1.624 0.18,1.625 0.15,1.64 0.1,1.63 0.06,1.64 0.02,1.64 -0.02,1.63 -0.06,1.64 -0.1,1.64 -0.15,1.63 -0.18,1.63 -0.22,1.62 -0.26,1.62 -0.3,1.61 -0.34,1.6 -0.37,1.59 -0.42,1.59 -0.46,1.57 -0.49,1.56 -0.54,1.55 -0.57,1.54 -0.6,1.52 -0.65,1.51 -0.68,1.49 -0.721,1.47 -0.755,1.45 -0.79,1.44 -0.825,1.41 -0.859,1.4 -0.893,1.37 -0.927,1.35 -0.96,1.33 -0.992,1.3 -1.024,1.28 -1.054,1.26 -1.086,1.22 -1.115,1.2 -1.144,1.18 -1.172,1.14 -1.201,1.11 -1.227,1.09 -1.253,1.05 -1.279,1.03 -1.304,0.99 -1.328,0.96 -1.351,0.93 -1.373,0.89 -1.395,0.86 -1.415,0.82 -1.436,0.79 -1.454,0.76 -1.472,0.72 -1.49,0.68 -1.505,0.65 -1.521,0.6 -1.536,0.57 -1.549,0.54 -1.562,0.49 -1.573,0.46 -1.585,0.42 -1.594,0.37 -1.602,0.34 -1.611,0.3 -1.617,0.26 -1.624,0.22 -1.628,0.19 -1.632,0.14 -1.635,0.1 -1.638,0.06 -1.638,0.02" />
      </g>
    </g>
  </g>
  <g id="content" transform="matrix(0.82360736,0,0,-0.82360736,15.35384,949.23905)" xml:space="preserve" stroke-miterlimit="10.433" font-style="normal" font-variant="normal" font-weight="normal" font-stretch="normal" font-size-adjust="none" letter-spacing="normal" word-spacing="normal" ns0:text="$x$" ns0:preamble="/Users/kjb81/Documents/underground-inkscape-preamble.tex" style="font-style:normal;font-variant:normal;font-weight:normal;font-stretch:normal;letter-spacing:normal;word-spacing:normal;text-anchor:start;fill:none;fill-opacity:1;fill-rule:evenodd;stroke:#000000;stroke-linecap:butt;stroke-linejoin:miter;stroke-miterlimit:10.43299961;stroke-dasharray:none;stroke-dashoffset:0;stroke-opacity:1"><path d="m 227.03,480.64 -0.23,0.64 c -0.15,0.39 -0.37,0.88 -0.89,1.16 l -1.56,-0.39 0.04,-0.21 c 0.12,0.05 0.29,0.07 0.45,0.07 0.65,0 0.95,-0.48 1.15,-1.05 l 0.39,-1.09 -0.76,-1.19 c -0.38,-0.58 -0.69,-0.7 -0.83,-0.7 -0.3,0 -0.25,0.24 -0.55,0.24 -0.3,0 -0.45,-0.25 -0.45,-0.44 0,-0.26 0.19,-0.55 0.61,-0.55 0.66,0 1,0.51 1.38,1.08 l 0.74,1.16 0.48,-1.33 c 0.15,-0.43 0.38,-0.91 0.86,-0.91 0.68,0 1.21,1.13 1.36,1.31 l -0.17,0.12 c -0.25,-0.51 -0.53,-0.68 -0.72,-0.68 -0.53,0 -0.8,1.6 -1.15,2.33 l 0.64,1 c 0.17,0.26 0.3,0.45 0.65,0.45 0.2,0 0.26,-0.1 0.52,-0.1 0.31,0 0.46,0.27 0.46,0.49 0,0.25 -0.2,0.39 -0.57,0.39 -0.6,0 -1.01,-0.52 -1.32,-0.99 z" id="path9781" style="fill:#000000;stroke-width:0" /></g>  <g id="g9921" transform="matrix(0.86149615,0,0,-0.86149615,-61.038925,906.70979)" xml:space="preserve" stroke-miterlimit="10.433" font-style="normal" font-variant="normal" font-weight="normal" font-stretch="normal" font-size-adjust="none" letter-spacing="normal" word-spacing="normal" ns0:text="$y$" ns0:preamble="/Users/kjb81/Documents/underground-inkscape-preamble.tex" style="font-style:normal;font-variant:normal;font-weight:normal;font-stretch:normal;letter-spacing:normal;word-spacing:normal;text-anchor:start;fill:none;fill-opacity:1;fill-rule:evenodd;stroke:#000000;stroke-linecap:butt;stroke-linejoin:miter;stroke-miterlimit:10.43299961;stroke-dasharray:none;stroke-dashoffset:0;stroke-opacity:1"><path d="m 226.62,480.86 -0.01,0.08 -0.01,0.08 -0.01,0.07 -0.01,0.07 -0.01,0.07 -0.01,0.07 -0.01,0.06 -0.01,0.06 -0.01,0.06 -0.01,0.05 -0.01,0.06 -0.01,0.05 -0.01,0.05 -0.01,0.04 -0.02,0.05 -0.01,0.05 -0.01,0.04 -0.02,0.04 -0.01,0.04 -0.01,0.04 -0.04,0.08 -0.03,0.07 -0.04,0.08 -0.04,0.07 -0.04,0.07 -0.05,0.07 -1.77,-0.3 0.02,-0.18 c 0.11,0.01 0.3,0.04 0.43,0.04 0.66,0 0.76,-0.71 0.82,-1.24 l 0.45,-3.7 c -0.31,-0.48 -0.98,-1.21 -1.18,-1.21 -0.19,0 -0.16,0.37 -0.67,0.37 -0.16,0 -0.47,-0.13 -0.47,-0.49 0,-0.28 0.22,-0.64 0.66,-0.64 0.8,0 1.57,1.15 2.43,2.24 0.5,0.62 2.41,3.46 2.41,4.38 0,0.46 -0.3,0.73 -0.67,0.73 -0.35,0 -0.56,-0.21 -0.56,-0.47 0,-0.45 0.61,-0.57 0.61,-0.82 0,-0.21 -0.09,-0.45 -0.33,-0.88 -0.26,-0.49 -0.67,-1.19 -1.39,-2.18 z" id="path9923" style="fill:#000000;stroke-width:0" /></g>  <g id="g10121" transform="matrix(0.90402101,0,0,-0.90402101,-66.93191,943.05978)" xml:space="preserve" stroke-miterlimit="10.433" font-style="normal" font-variant="normal" font-weight="normal" font-stretch="normal" font-size-adjust="none" letter-spacing="normal" word-spacing="normal" ns0:text="$3$" ns0:preamble="/Users/kjb81/Documents/underground-inkscape-preamble.tex" style="font-style:normal;font-variant:normal;font-weight:normal;font-stretch:normal;letter-spacing:normal;word-spacing:normal;text-anchor:start;fill:none;fill-opacity:1;fill-rule:evenodd;stroke:#000000;stroke-linecap:butt;stroke-linejoin:miter;stroke-miterlimit:10.43299961;stroke-dasharray:none;stroke-dashoffset:0;stroke-opacity:1"><path d="m 224.12705,482.62893 0.0449,0.0717 0.0358,0.0628 0.045,0.0717 0.045,0.0628 0.0359,0.0628 0.0449,0.0628 0.045,0.054 0.0449,0.054 0.045,0.054 0.045,0.0449 0.0448,0.054 0.0451,0.0449 0.045,0.0359 0.0449,0.045 0.0449,0.0358 0.054,0.0359 0.0451,0.0359 0.054,0.0271 0.045,0.0269 0.054,0.0271 0.054,0.0272 0.054,0.0181 0.054,0.0267 0.054,0.0181 0.054,0.0108 0.054,0.0181 0.054,0.0108 0.0628,0.0108 0.054,0.0108 0.0628,0 0.054,0.0108 0.0628,0 c 0.70056,0 1.14969,-0.35927 1.14969,-1.08689 0,-0.64675 -0.34131,-1.12282 -0.86233,-1.41923 -0.21558,-0.12577 -0.48505,-0.24252 -0.88927,-0.37728 l 0,-0.15267 c 0.60191,0 0.84445,-0.0265 1.07791,-0.10776 0.73659,-0.20661 1.10486,-0.72757 1.10486,-1.53602 0,-0.89826 -0.59284,-1.62583 -1.37428,-1.62583 -0.30543,0 -0.52102,0.054 -0.91626,0.33233 -0.29641,0.21559 -0.46709,0.27849 -0.64674,0.27849 -0.24253,0 -0.43117,-0.16169 -0.43117,-0.38625 0,-0.37729 0.4132,-0.60185 1.18568,-0.60185 0.9432,0 1.94929,0.30539 2.46124,0.9881 0.30541,0.40419 0.48507,0.9252 0.48507,1.48209 0,0.54797 -0.17068,1.04199 -0.46709,1.36534 -0.22456,0.23355 -0.4132,0.35933 -0.88029,0.56593 0.70961,0.42218 0.98812,0.95213 0.98812,1.46415 0,0.87131 -0.66477,1.45517 -1.65283,1.45517 -1.10485,0 -1.76956,-0.7186 -2.08398,-1.72466 z" id="path10123" style="fill:#000000;stroke-width:0" /></g>  <g style="font-style:normal;font-variant:normal;font-weight:normal;font-stretch:normal;letter-spacing:normal;word-spacing:normal;text-anchor:start;fill:none;fill-opacity:1;fill-rule:evenodd;stroke:#000000;stroke-linecap:butt;stroke-linejoin:miter;stroke-miterlimit:10.43299961;stroke-dasharray:none;stroke-dashoffset:0;stroke-opacity:1" id="g10375" transform="matrix(0.81204178,0,0,-0.81204178,-46.881099,944.4815)" xml:space="preserve" stroke-miterlimit="10.433" font-style="normal" font-variant="normal" font-weight="normal" font-stretch="normal" font-size-adjust="none" letter-spacing="normal" word-spacing="normal" ns0:text="$0$" ns0:preamble="/Users/kjb81/Documents/underground-inkscape-preamble.tex"><path style="fill:#000000;stroke-width:0" d="m 229.05,481.13 0,0.23 -0.01,0.22 -0.02,0.21 -0.02,0.21 -0.02,0.21 -0.04,0.2 -0.04,0.19 -0.04,0.19 -0.05,0.18 -0.05,0.18 -0.06,0.17 -0.07,0.17 -0.07,0.16 -0.07,0.15 -0.08,0.14 -0.09,0.14 -0.09,0.13 -0.09,0.13 -0.1,0.11 -0.1,0.11 -0.11,0.1 -0.11,0.1 -0.11,0.08 -0.12,0.08 -0.12,0.07 -0.12,0.06 -0.13,0.05 -0.13,0.04 -0.14,0.03 -0.13,0.03 -0.15,0.01 -0.14,0.01 c -1.9,0 -2.72,-1.93 -2.72,-4.02 0,-1.93 0.66,-4.13 2.67,-4.13 l 0,0.31 c -1.01,0 -1.53,1.34 -1.53,3.74 0,2.4 0.53,3.79 1.51,3.79 1.04,0 1.56,-1.38 1.56,-3.84 l 0,0 c 0,-2.34 -0.53,-3.69 -1.54,-3.69 l 0,-0.31 c 1.93,0 2.67,2.03 2.67,4.06 z" id="path10377" /></g>  <g ns0:preamble="/Users/kjb81/Documents/underground-inkscape-preamble.tex" ns0:text="$3$" word-spacing="normal" letter-spacing="normal" font-size-adjust="none" font-stretch="normal" font-weight="normal" font-variant="normal" font-style="normal" stroke-miterlimit="10.433" xml:space="preserve" transform="matrix(0.81204178,0,0,-0.81204178,1.0313683,944.73581)" id="g10983" style="font-style:normal;font-variant:normal;font-weight:normal;font-stretch:normal;letter-spacing:normal;word-spacing:normal;text-anchor:start;fill:none;fill-opacity:1;fill-rule:evenodd;stroke:#000000;stroke-linecap:butt;stroke-linejoin:miter;stroke-miterlimit:10.43299961;stroke-dasharray:none;stroke-dashoffset:0;stroke-opacity:1"><path id="path10985" d="m 224.15,483.26 0.05,0.08 0.04,0.07 0.05,0.08 0.05,0.07 0.04,0.07 0.05,0.07 0.05,0.06 0.05,0.06 0.05,0.06 0.05,0.05 0.05,0.06 0.05,0.05 0.05,0.04 0.05,0.05 0.05,0.04 0.06,0.04 0.05,0.04 0.06,0.03 0.05,0.03 0.06,0.03 0.06,0.03 0.06,0.02 0.06,0.03 0.06,0.02 0.06,0.01 0.06,0.02 0.06,0.01 0.07,0.01 0.06,0.01 0.07,0 0.06,0.01 0.07,0 c 0.78,0 1.28,-0.4 1.28,-1.21 0,-0.72 -0.38,-1.25 -0.96,-1.58 -0.24,-0.14 -0.54,-0.27 -0.99,-0.42 l 0,-0.17 c 0.67,0 0.94,-0.03 1.2,-0.12 0.82,-0.23 1.23,-0.81 1.23,-1.71 0,-1 -0.66,-1.81 -1.53,-1.81 -0.34,0 -0.58,0.06 -1.02,0.37 -0.33,0.24 -0.52,0.31 -0.72,0.31 -0.27,0 -0.48,-0.18 -0.48,-0.43 0,-0.42 0.46,-0.67 1.32,-0.67 1.05,0 2.17,0.34 2.74,1.1 0.34,0.45 0.54,1.03 0.54,1.65 0,0.61 -0.19,1.16 -0.52,1.52 -0.25,0.26 -0.46,0.4 -0.98,0.63 0.79,0.47 1.1,1.06 1.1,1.63 0,0.97 -0.74,1.62 -1.84,1.62 -1.23,0 -1.97,-0.8 -2.32,-1.92 z" style="fill:#000000;stroke-width:0" /></g>  <g style="font-style:normal;font-variant:normal;font-weight:normal;font-stretch:normal;letter-spacing:normal;word-spacing:normal;text-anchor:start;fill:none;fill-opacity:1;fill-rule:evenodd;stroke:#000000;stroke-linecap:butt;stroke-linejoin:miter;stroke-miterlimit:10.43299961;stroke-dasharray:none;stroke-dashoffset:0;stroke-opacity:1" ns0:preamble="/Users/kjb81/Documents/underground-inkscape-preamble.tex" ns0:text="$-3$" word-spacing="normal" letter-spacing="normal" font-size-adjust="none" font-stretch="normal" font-weight="normal" font-variant="normal" font-style="normal" stroke-miterlimit="10.433" xml:space="preserve" transform="matrix(0.81204178,0,0,-0.81204178,-52.842783,979.26636)" id="g11430"><polygon style="fill:#000000;stroke-width:0" id="polygon11432" points="230.76,479.83 230.76,480.61 224.19,480.61 224.19,479.83 " /><path style="fill:#000000;stroke-width:0" id="path11434" d="m 232.27,483.26 0.04,0.08 0.05,0.07 0.05,0.08 0.04,0.07 0.05,0.07 0.05,0.07 0.05,0.06 0.04,0.06 0.05,0.06 0.05,0.05 0.05,0.06 0.05,0.05 0.06,0.04 0.05,0.05 0.05,0.04 0.05,0.04 0.06,0.04 0.05,0.03 0.06,0.03 0.06,0.03 0.05,0.03 0.06,0.02 0.06,0.03 0.06,0.02 0.06,0.01 0.06,0.02 0.07,0.01 0.06,0.01 0.07,0.01 0.06,0 0.07,0.01 0.07,0 c 0.78,0 1.27,-0.4 1.27,-1.21 0,-0.72 -0.38,-1.25 -0.95,-1.58 -0.24,-0.14 -0.55,-0.27 -1,-0.42 l 0,-0.17 c 0.68,0 0.95,-0.03 1.21,-0.12 0.81,-0.23 1.23,-0.81 1.23,-1.71 0,-1 -0.67,-1.81 -1.54,-1.81 -0.33,0 -0.58,0.06 -1.01,0.37 -0.33,0.24 -0.52,0.31 -0.72,0.31 -0.28,0 -0.49,-0.18 -0.49,-0.43 0,-0.42 0.46,-0.67 1.32,-0.67 1.05,0 2.18,0.34 2.74,1.1 0.35,0.45 0.55,1.03 0.55,1.65 0,0.61 -0.19,1.16 -0.52,1.52 -0.25,0.26 -0.46,0.4 -0.98,0.63 0.79,0.47 1.1,1.06 1.1,1.63 0,0.97 -0.75,1.62 -1.85,1.62 -1.23,0 -1.97,-0.8 -2.31,-1.92 z" /></g>  <g id="g11548" transform="matrix(0.68505226,0,0,-0.68505226,24.462719,850.5887)" xml:space="preserve" stroke-miterlimit="10.433" font-style="normal" font-variant="normal" font-weight="normal" font-stretch="normal" font-size-adjust="none" letter-spacing="normal" word-spacing="normal" ns0:text="$t$ increasing" ns0:preamble="/Users/kjb81/Documents/underground-inkscape-preamble.tex" style="font-style:normal;font-variant:normal;font-weight:normal;font-stretch:normal;letter-spacing:normal;word-spacing:normal;text-anchor:start;fill:none;fill-opacity:1;fill-rule:evenodd;stroke:#000000;stroke-linecap:butt;stroke-linejoin:miter;stroke-miterlimit:10.43299961;stroke-dasharray:none;stroke-dashoffset:0;stroke-opacity:1"><path style="fill:#000000;stroke-width:0" d="m 226.77,482.41 -0.82,0 0.36,1.52 -0.15,0 c -0.48,-1.03 -1.2,-1.47 -2.09,-1.63 l -0.06,-0.34 0.91,0 -0.96,-3.78 c -0.03,-0.13 -0.06,-0.28 -0.06,-0.44 0,-0.32 0.1,-0.61 0.47,-0.61 0.69,0 1.28,0.9 1.56,1.26 l -0.15,0.13 c -0.43,-0.59 -0.71,-0.61 -0.71,-0.61 -0.15,0 -0.19,0.07 -0.19,0.14 0,0.03 0.02,0.09 0.03,0.13 l 0.92,3.78 0.82,0 z" id="path11550" /><polygon style="fill:#000000;stroke-width:0" points="231.39,482.58 231.39,477.23 230.58,477.23 230.58,482.58 " id="polygon11552" /><path style="fill:#000000;stroke-width:0" d="m 230.51,484.01 0,0.02 0,0.02 0,0.01 0,0.02 0,0.01 0.01,0.02 0,0.02 0,0.01 0,0.02 0,0.01 0.01,0.01 0,0.02 0,0.01 0.01,0.02 0,0.01 0.01,0.01 0,0.01 0,0.02 0.01,0.01 0,0.01 0.01,0.01 0.01,0.01 0,0.01 0.01,0.01 0,0.01 0.01,0.01 0.01,0.01 0.01,0.01 0,0.01 0.01,0.01 0.01,0.01 0.01,0.01 c 0.09,0.08 0.2,0.13 0.34,0.13 0.13,0 0.24,-0.05 0.33,-0.13 0.1,-0.09 0.15,-0.23 0.15,-0.41 -0.01,-0.18 -0.05,-0.32 -0.15,-0.4 -0.09,-0.09 -0.2,-0.14 -0.33,-0.14 -0.14,0 -0.25,0.05 -0.34,0.14 -0.1,0.08 -0.14,0.22 -0.14,0.4 z" id="path11554" /><path style="fill:#000000;stroke-width:0" d="m 236.75,477.23 0,3.45 c 0,0.44 -0.1,0.76 -0.29,0.98 -0.2,0.21 -0.51,0.32 -0.93,0.32 -0.56,0 -0.97,-0.15 -1.23,-0.45 -0.26,-0.3 -0.39,-0.8 -0.39,-1.5 l 0,-2.8 -0.81,0 0,5.35 0.66,0 0.13,-0.74 0.04,0 c 0.17,0.26 0.4,0.46 0.7,0.61 0.3,0.14 0.63,0.22 0.99,0.22 0.65,0 1.13,-0.16 1.45,-0.47 0.33,-0.31 0.49,-0.8 0.49,-1.49 l 0,-3.48 z" id="path11556" /><path style="fill:#000000;stroke-width:0" d="m 241.35,477.14 -0.07,0.01 -0.07,0 -0.07,0 -0.07,0.01 -0.07,0 -0.07,0.01 -0.06,0.01 -0.07,0.01 -0.06,0.01 -0.06,0.01 -0.06,0.02 -0.07,0.02 -0.06,0.01 -0.05,0.02 -0.06,0.02 -0.06,0.02 -0.05,0.03 -0.06,0.02 -0.05,0.03 -0.05,0.02 -0.06,0.03 -0.05,0.03 -0.04,0.03 -0.05,0.04 -0.05,0.03 -0.05,0.04 -0.04,0.03 -0.05,0.04 -0.04,0.04 -0.04,0.04 -0.04,0.04 -0.04,0.05 c -0.43,0.47 -0.64,1.14 -0.64,2.01 0,0.89 0.22,1.58 0.65,2.07 0.42,0.48 1.04,0.73 1.83,0.73 0.26,0 0.52,-0.03 0.77,-0.09 0.26,-0.05 0.46,-0.12 0.61,-0.19 l -0.25,-0.69 c -0.18,0.07 -0.38,0.13 -0.59,0.18 -0.21,0.05 -0.39,0.07 -0.56,0.07 -1.08,0 -1.62,-0.69 -1.62,-2.07 0,-0.65 0.13,-1.15 0.4,-1.5 0.26,-0.35 0.65,-0.53 1.17,-0.53 0.44,0 0.9,0.1 1.37,0.29 l 0,-0.72 c -0.36,-0.18 -0.81,-0.28 -1.35,-0.28 z" id="path11558" /><path style="fill:#000000;stroke-width:0" d="m 246.39,482.67 0.04,0 0.04,-0.01 0.05,0 0.04,0 0.04,0 0.04,0 0.04,-0.01 0.04,0 0.04,0 0.04,-0.01 0.04,0 0.04,-0.01 0.04,0 0.03,-0.01 0.04,-0.01 0.03,0 -0.11,-0.75 c -0.22,0.05 -0.41,0.07 -0.58,0.07 -0.43,0 -0.8,-0.17 -1.1,-0.52 -0.31,-0.36 -0.46,-0.79 -0.46,-1.31 l 0,-2.87 -0.81,0 0,5.35 0.67,0 0.09,-1 0.04,0 c 0.19,0.35 0.43,0.62 0.71,0.8 0.28,0.19 0.58,0.29 0.92,0.29 z" id="path11560" /><path style="fill:#000000;stroke-width:0" d="m 250.08,477.14 -0.08,0.01 -0.07,0 -0.07,0 -0.07,0.01 -0.07,0 -0.07,0.01 -0.07,0.01 -0.06,0.01 -0.07,0.01 -0.06,0.02 -0.07,0.01 -0.06,0.02 -0.06,0.01 -0.06,0.02 -0.06,0.02 -0.06,0.02 -0.06,0.03 -0.05,0.02 -0.06,0.03 -0.05,0.03 -0.06,0.03 -0.05,0.03 -0.05,0.03 -0.05,0.03 -0.05,0.03 -0.05,0.04 -0.05,0.04 -0.05,0.04 -0.04,0.04 -0.05,0.04 -0.04,0.04 -0.05,0.04 c -0.45,0.48 -0.68,1.15 -0.68,2 0,0.86 0.21,1.54 0.63,2.05 0.43,0.5 0.99,0.76 1.71,0.76 0.66,0 1.19,-0.22 1.58,-0.66 0.39,-0.44 0.58,-1.01 0.58,-1.73 l 0,-0.51 -3.66,0 0.02,0.66 2.78,0 c 0,0.5 -0.12,0.89 -0.34,1.16 -0.23,0.27 -0.55,0.4 -0.97,0.4 l 0,0 c -0.43,0 -0.77,-0.14 -1.02,-0.41 -0.26,-0.28 -0.41,-0.66 -0.45,-1.15 l -0.02,-0.66 c 0.01,-0.63 0.17,-1.1 0.47,-1.43 0.3,-0.33 0.72,-0.49 1.27,-0.49 0.57,0 1.14,0.12 1.69,0.36 l 0,-0.72 c -0.28,-0.12 -0.55,-0.21 -0.8,-0.26 -0.26,-0.06 -0.56,-0.09 -0.92,-0.09 z" id="path11562" /><path style="fill:#000000;stroke-width:0" d="m 256.7,477.23 -0.16,0.76 -0.04,0 -0.44,0.23 c 0.29,0.28 0.44,0.66 0.44,1.16 l 0,0.47 -0.81,-0.03 c -0.65,-0.02 -1.11,-0.12 -1.4,-0.3 -0.28,-0.18 -0.42,-0.45 -0.42,-0.82 -0.01,-0.29 0.09,-0.51 0.26,-0.66 0.18,-0.15 0.43,-0.23 0.75,-0.23 l 0,0 c 0.5,0 0.9,0.14 1.18,0.41 l 0.44,-0.23 c -0.26,-0.33 -0.53,-0.55 -0.79,-0.67 -0.27,-0.12 -0.6,-0.18 -0.99,-0.18 -0.53,0 -0.95,0.14 -1.25,0.41 -0.3,0.27 -0.45,0.66 -0.45,1.16 0,1.07 0.86,1.64 2.59,1.69 l 0.91,0.03 0,0.33 c 0,0.42 -0.1,0.74 -0.28,0.94 -0.18,0.2 -0.46,0.3 -0.86,0.3 -0.45,0 -0.95,-0.14 -1.51,-0.41 l -0.25,0.62 c 0.26,0.14 0.55,0.25 0.87,0.33 0.31,0.08 0.62,0.13 0.94,0.13 0.63,0 1.11,-0.15 1.41,-0.43 0.31,-0.28 0.46,-0.73 0.46,-1.36 l 0,-3.65 z" id="path11564" /><path style="fill:#000000;stroke-width:0" d="m 262.39,478.7 0,-0.05 0,-0.05 0,-0.04 -0.01,-0.05 0,-0.04 -0.01,-0.04 -0.01,-0.04 0,-0.05 -0.01,-0.04 -0.01,-0.04 -0.01,-0.04 -0.02,-0.03 -0.01,-0.04 -0.02,-0.04 -0.01,-0.04 -0.02,-0.03 -0.02,-0.04 -0.01,-0.03 -0.02,-0.04 -0.03,-0.03 -0.02,-0.03 -0.02,-0.04 -0.02,-0.03 -0.03,-0.03 -0.03,-0.03 -0.02,-0.03 -0.03,-0.03 -0.03,-0.02 -0.03,-0.03 -0.03,-0.03 -0.04,-0.03 -0.03,-0.02 c -0.37,-0.27 -0.89,-0.41 -1.56,-0.41 -0.7,0 -1.25,0.12 -1.65,0.34 l 0,0.74 c 0.26,-0.13 0.53,-0.23 0.82,-0.3 0.3,-0.07 0.58,-0.11 0.85,-0.11 0.42,0 0.75,0.07 0.97,0.2 0.23,0.14 0.34,0.34 0.34,0.62 0,0.2 -0.09,0.38 -0.27,0.53 -0.18,0.14 -0.53,0.32 -1.05,0.52 -0.49,0.19 -0.84,0.35 -1.05,0.49 -0.21,0.13 -0.37,0.29 -0.47,0.47 -0.1,0.17 -0.15,0.38 -0.15,0.62 0,0.43 0.18,0.78 0.53,1.03 0.35,0.25 0.83,0.38 1.45,0.38 0.57,0 1.13,-0.12 1.68,-0.35 l -0.29,-0.66 c -0.53,0.22 -1.01,0.33 -1.45,0.33 -0.38,0 -0.67,-0.06 -0.86,-0.18 -0.2,-0.12 -0.29,-0.29 -0.29,-0.49 0,-0.15 0.03,-0.27 0.11,-0.37 0.07,-0.1 0.19,-0.2 0.35,-0.29 0.16,-0.09 0.47,-0.22 0.93,-0.39 0.63,-0.23 1.06,-0.46 1.28,-0.69 0.22,-0.24 0.33,-0.53 0.33,-0.88 z" id="path11566" /><polygon style="fill:#000000;stroke-width:0" points="264.52,482.58 264.52,477.23 263.71,477.23 263.71,482.58 " id="polygon11568" /><path style="fill:#000000;stroke-width:0" d="m 263.64,484.01 0,0.02 0,0.02 0,0.01 0,0.02 0,0.01 0,0.02 0.01,0.02 0,0.01 0,0.02 0,0.01 0.01,0.01 0,0.02 0,0.01 0.01,0.02 0,0.01 0,0.01 0.01,0.01 0,0.02 0.01,0.01 0,0.01 0.01,0.01 0,0.01 0.01,0.01 0.01,0.01 0,0.01 0.01,0.01 0.01,0.01 0,0.01 0.01,0.01 0.01,0.01 0.01,0.01 0.01,0.01 c 0.09,0.08 0.2,0.13 0.34,0.13 0.13,0 0.24,-0.05 0.33,-0.13 0.1,-0.09 0.14,-0.23 0.14,-0.41 0,-0.18 -0.04,-0.32 -0.14,-0.4 -0.09,-0.09 -0.2,-0.14 -0.33,-0.14 -0.14,0 -0.25,0.05 -0.34,0.14 -0.1,0.08 -0.14,0.22 -0.14,0.4 z" id="path11570" /><path style="fill:#000000;stroke-width:0" d="m 269.88,477.23 0,3.45 c 0,0.44 -0.1,0.76 -0.29,0.98 -0.2,0.21 -0.51,0.32 -0.93,0.32 -0.56,0 -0.97,-0.15 -1.23,-0.45 -0.26,-0.3 -0.39,-0.8 -0.39,-1.5 l 0,-2.8 -0.81,0 0,5.35 0.66,0 0.13,-0.74 0.04,0 c 0.16,0.26 0.4,0.46 0.7,0.61 0.29,0.14 0.63,0.22 0.99,0.22 0.64,0 1.13,-0.16 1.45,-0.47 0.33,-0.31 0.49,-0.8 0.49,-1.49 l 0,-3.48 z" id="path11572" /><path style="fill:#000000;stroke-width:0" d="m 276.71,482.58 0,-0.51 -0.98,-0.12 c 0.09,-0.12 0.17,-0.26 0.24,-0.44 0.07,-0.19 0.11,-0.39 0.11,-0.62 0,-0.53 -0.18,-0.94 -0.54,-1.25 -0.36,-0.31 -0.85,-0.47 -1.47,-0.47 l 0.03,0.57 c 0.78,0 1.18,0.38 1.18,1.14 -0.01,0.8 -0.4,1.2 -1.2,1.2 -0.38,0 -0.67,-0.1 -0.88,-0.31 -0.2,-0.2 -0.3,-0.5 -0.3,-0.9 l 0,0 c 0,-0.37 0.1,-0.65 0.31,-0.84 0.21,-0.19 0.51,-0.29 0.89,-0.29 l -0.03,-0.57 c -0.16,0 -0.31,0.02 -0.45,0.04 -0.34,-0.18 -0.51,-0.41 -0.51,-0.68 0,-0.15 0.06,-0.26 0.18,-0.33 0.12,-0.07 0.32,-0.1 0.61,-0.1 l 0.95,0 c 0.57,0 1.02,-0.12 1.33,-0.37 0.31,-0.24 0.46,-0.59 0.46,-1.06 0,-0.59 -0.23,-1.05 -0.71,-1.36 -0.47,-0.31 -1.16,-0.46 -2.07,-0.46 -0.7,0 -1.23,0.13 -1.61,0.39 -0.38,0.26 -0.57,0.63 -0.57,1.1 0,0.33 0.11,0.61 0.31,0.85 0.21,0.23 0.5,0.4 0.88,0.48 l -0.1,-0.56 c -0.21,-0.18 -0.31,-0.43 -0.31,-0.76 l 0,0 c 0,-0.29 0.12,-0.51 0.37,-0.66 0.24,-0.15 0.59,-0.22 1.04,-0.22 0.68,0 1.18,0.1 1.51,0.3 0.32,0.2 0.49,0.48 0.49,0.83 0,0.29 -0.09,0.49 -0.27,0.61 -0.18,0.11 -0.52,0.17 -1.01,0.17 l -0.97,0 c -0.36,-0.01 -0.65,-0.09 -0.85,-0.27 l 0.1,0.56 c -0.14,0.06 -0.25,0.16 -0.34,0.29 -0.1,0.13 -0.14,0.28 -0.14,0.45 0,0.19 0.05,0.37 0.15,0.51 0.11,0.15 0.27,0.29 0.49,0.42 -0.27,0.12 -0.5,0.31 -0.67,0.58 -0.18,0.27 -0.26,0.58 -0.26,0.93 0,0.58 0.17,1.03 0.52,1.34 0.36,0.32 0.85,0.48 1.49,0.48 0.28,0 0.53,-0.03 0.76,-0.09 z" id="path11574" /></g>  <path id="path4969" d="m 172.07489,522.96649 1.93629,2.38309" style="fill:none;fill-rule:evenodd;stroke:#2b83ba;stroke-width:0.49981299;stroke-linecap:butt;stroke-linejoin:miter;stroke-miterlimit:4;stroke-dasharray:none;stroke-opacity:1" />
  <path id="path4227" d="m 174.71811,526.98696 1.08455,1.44478" style="fill:#2b83ba;fill-opacity:1;fill-rule:evenodd;stroke:#2b83ba;stroke-width:0.62476623px;stroke-linecap:butt;stroke-linejoin:miter;stroke-opacity:1;marker-end:url(#marker4507)" />
  <g transform="matrix(0.42295429,0,0,0.42295429,357.97034,411.44596)" id="misc-8" style="stroke-width:1;stroke-linecap:square;stroke-linejoin:miter;stroke-miterlimit:10;stroke-dasharray:none;stroke-dashoffset:0" />
  <g transform="matrix(0.26434643,0,0,0.26434643,106.68282,471.93439)" clip-path="url(#clip49)" id="g6098" style="fill:#ffffff;fill-opacity:1;stroke:#2b83ba;stroke-width:1;stroke-linecap:square;stroke-linejoin:miter;stroke-miterlimit:10;stroke-dasharray:none;stroke-dashoffset:0;stroke-opacity:1">
    <g style="fill:#ffffff;fill-opacity:1;stroke:#2b83ba;stroke-width:2.4000001;stroke-opacity:1" id="g6100">
      <path style="fill:#ffffff;fill-opacity:1;stroke:#2b83ba;stroke-width:2.4000001;stroke-opacity:1" d="m 131.75,136.58 c 0,1.66 -1.35,3 -3,3 -1.66,0 -3,-1.34 -3,-3 0,-1.66 1.34,-3 3,-3 1.65,0 3,1.34 3,3 z" id="path6102" />
      <title id="title6104">Point C</title>
      <desc id="desc6106">C = (-4.71, 1.57)</desc>
    </g>
  </g>
  <g transform="matrix(0.26434643,0,0,0.26434643,106.82894,508.79242)" clip-path="url(#clip52)" id="g6137" style="fill:#ffffff;fill-opacity:1;stroke:#2b83ba;stroke-width:1;stroke-linecap:square;stroke-linejoin:miter;stroke-miterlimit:10;stroke-dasharray:none;stroke-dashoffset:0;stroke-opacity:1">
    <g style="fill:#ffffff;fill-opacity:1;stroke:#2b83ba;stroke-width:2.4000001;stroke-opacity:1" id="g6139">
      <path style="fill:#ffffff;fill-opacity:1;stroke:#2b83ba;stroke-width:2.4000001;stroke-opacity:1" d="m 131.75,301.42 c 0,1.66 -1.35,3 -3,3 -1.66,0 -3,-1.34 -3,-3 0,-1.66 1.34,-3 3,-3 1.65,0 3,1.34 3,3 z" id="path6141" />
      <title id="title6143">Point E</title>
      <desc id="desc6145">E = (-4.71, -1.57)</desc>
    </g>
  </g>
  <g transform="matrix(13.111583,0,0,13.111583,574.10499,560.02331)" id="g6277" style="stroke-width:1;stroke-linecap:square;stroke-linejoin:miter;stroke-miterlimit:10;stroke-dasharray:none;stroke-dashoffset:0">
    <clipPath id="clip63">
      <path d="m -23.419,-7.9789 0,13.0967 17.548,0 0,-13.0967 z" id="path6280" />
    </clipPath>
    <g clip-path="url(#clip63)" id="g6282">
      <g style="fill:#000000;fill-opacity:1;fill-rule:nonzero;stroke:none" id="g6284">
        <path d="m 0.32812,-0.29688 -0.03124,0.125 q -0.01563,0.07813 -0.01563,0.093755 0,0.046875 0.03125,0.0625 0.01562,0 0.03125,0 0.04687,0 0.07813,-0.046875 0.03124,-0.03125 0.04687,-0.07812 0,-0.01563 0.01563,-0.01563 0.01562,0 0.01562,0.01563 0,0.01562 -0.03125,0.062495 -0.0625,0.09375 -0.125,0.09375 -0.07813,0 -0.10937,-0.0625 0,-0.015625 0,-0.015625 Q 0.20312,-0.015625 0.15625,0 0.14062,0.015625 0.125,0.015625 q -0.0625,0 -0.09375,-0.046875 0,0 0,-0.03125 0,-0.03125 0.03125,-0.04688 0.015625,0 0.015625,0 0.031255,0 0.046875,0.01563 0,0.015625 0,0.015625 0,0.03125 -0.03125,0.046875 -0.015625,0 -0.015625,0 0.015625,0.015625 0.046875,0.015625 0.04688,0 0.07812,-0.0625 0.01563,-0.015625 0.01563,-0.031255 0.04687,-0.20312 0.04687,-0.25 0,-0.0625 -0.04687,-0.0625 -0.04687,0 -0.09375,0.0625 l 0,0 q 0,0 0,0 -0.01562,0.01563 -0.03125,0.04688 0,0 0,0.01562 l -0.015625,0.01563 q 0,0 0,0 -0.015625,0 -0.015625,0 0,-0.03125 0.03125,-0.07813 0.04687,-0.07812 0.125,-0.07812 0.07813,0 0.10937,0.07812 0.03126,-0.0625 0.07813,-0.07812 0.01563,0 0.03125,0 0.0625,0 0.07812,0.03125 0.01563,0.01563 0.01563,0.03125 0,0.04688 -0.04687,0.04688 0,0.01562 -0.01563,0.01562 -0.03125,0 -0.03125,-0.03125 0,0 0,-0.01563 0,-0.03124 0.03125,-0.04687 0,0 0.01563,0 -0.01563,-0.01563 -0.04688,-0.01563 -0.07812,0 -0.09375,0.10938 -0.01563,0 -0.01563,0.01562 z" id="path6286" />
        <title id="title6288">$x$</title>
        <desc id="desc6290">text1 = &quot;$x$&quot;</desc>
      </g>
    </g>
  </g>
</svg>