<?xml version='1.0' ?><svg xmlns:ns0="http://www.iki.fi/pav/software/textext/" xmlns:dc="http://purl.org/dc/elements/1.1/" xmlns:cc="http://creativecommons.org/ns#" xmlns:rdf="http://www.w3.org/1999/02/22-rdf-syntax-ns#" xmlns:svg="http://www.w3.org/2000/svg" xmlns="http://www.w3.org/2000/svg" id="svg2" version="1.1" width="251.24055" height="272.76201" viewBox="90.40931290288728 1445.8817679384174 464.1205727118812 503.87070622513266" preserveAspectRatio="none">
  <metadata id="metadata429">
    <rdf:RDF>
      <cc:Work rdf:about="">
        <dc:format>image/svg+xml</dc:format>
        <dc:type rdf:resource="http://purl.org/dc/dcmitype/StillImage" />
        <dc:title />
      </cc:Work>
    </rdf:RDF>
  </metadata>
  <defs id="defs427">
    <clipPath id="clip1">
      <path d="m 0,0 0,499 734,0 0,-499 z" id="path9" />
    </clipPath>
    <clipPath id="clip2">
      <path d="m 0,0 0,499 734,0 0,-499 z" id="path18" />
    </clipPath>
    <clipPath id="clip3">
      <path d="m 0,0 0,499 734,0 0,-499 z" id="path27" />
    </clipPath>
    <clipPath id="clip4">
      <path d="m 0,0 0,499 734,0 0,-499 z" id="path36" />
    </clipPath>
    <clipPath id="clip6">
      <path id="path60" d="m 0,0 0,499 734,0 0,-499 z" />
    </clipPath>
    <clipPath id="clip7">
      <path id="path73" d="m 0,0 0,499 734,0 0,-499 z" />
    </clipPath>
    <clipPath id="clip10">
      <path id="path112" d="m 0,0 0,499 734,0 0,-499 z" />
    </clipPath>
    <clipPath id="clip11">
      <path id="path125" d="m 0,0 0,499 734,0 0,-499 z" />
    </clipPath>
    <clipPath id="clip12">
      <path id="path138" d="m 0,0 0,499 734,0 0,-499 z" />
    </clipPath>
    <clipPath id="clip13">
      <path id="path151" d="m 0,0 0,499 734,0 0,-499 z" />
    </clipPath>
    <clipPath id="clip14">
      <path id="path164" d="m 0,0 0,499 734,0 0,-499 z" />
    </clipPath>
    <clipPath id="clip15">
      <path id="path177" d="m 0,0 0,499 734,0 0,-499 z" />
    </clipPath>
  </defs>
  <g id="misc" style="stroke-width:1;stroke-linecap:square;stroke-linejoin:miter;stroke-miterlimit:10;stroke-dasharray:none;stroke-dashoffset:0" transform="translate(0,1573.6414)" />
  <g clip-path="url(#clip1)" id="g11" style="stroke-width:1;stroke-linecap:square;stroke-linejoin:miter;stroke-miterlimit:10;stroke-dasharray:none;stroke-dashoffset:0" transform="matrix(1,0,0,1.0050633,0,1448.2382)">
    <g id="g13" style="fill:none;stroke:#000000;stroke-width:2;stroke-linecap:butt;stroke-opacity:1">
      <path d="m 262.89,3 0,496" id="path15" />
    </g>
  </g>
  <g clip-path="url(#clip2)" id="g20" style="stroke-width:1;stroke-linecap:square;stroke-linejoin:miter;stroke-miterlimit:10;stroke-dasharray:none;stroke-dashoffset:0" transform="translate(-0.83712324,1443.8873)">
    <g id="g22" style="fill:#000000;fill-opacity:1;fill-rule:evenodd;stroke:none">
      <path d="m 262.89,2 -6,24 12,0" id="path24" />
    </g>
  </g>
  <g transform="matrix(0.60835,0,0,1,90.40931,1573.6414)" clip-path="url(#clip3)" id="g29" style="stroke-width:1;stroke-linecap:square;stroke-linejoin:miter;stroke-miterlimit:10;stroke-dasharray:none;stroke-dashoffset:0">
    <g id="g31" style="fill:none;stroke:#000000;stroke-width:2;stroke-linecap:butt;stroke-opacity:1">
      <path d="m 0,262.39 731,0" id="path33" />
    </g>
  </g>
  <g transform="translate(-177.47013,1573.6414)" clip-path="url(#clip4)" id="g38" style="stroke-width:1;stroke-linecap:square;stroke-linejoin:miter;stroke-miterlimit:10;stroke-dasharray:none;stroke-dashoffset:0">
    <g id="g40" style="fill:#000000;fill-opacity:1;fill-rule:evenodd;stroke:none">
      <path d="m 732,262.39 -24,-6 0,12" id="path42" />
    </g>
  </g>
  <g id="g62" clip-path="url(#clip6)" style="stroke-width:1;stroke-linecap:square;stroke-linejoin:miter;stroke-miterlimit:10;stroke-dasharray:none;stroke-dashoffset:0" transform="translate(0,1573.6414)">
    <g style="fill:#000000;fill-opacity:0.09803898;fill-rule:nonzero;stroke:none" id="g64">
      <path id="path66" d="m 292.89,262.39 c 0,-10.46 -5.45,-20.16 -14.37,-25.61 l -15.63,25.61 z" />
      <title id="title68">Angle Ã&#131;Â&#142;Ã&#130;Â±</title>
      <desc id="desc70">Angle Ã&#131;Â&#142;Ã&#130;Â±: Angle between G, A, F</desc>
    </g>
  </g>
  <g id="g75" clip-path="url(#clip7)" style="stroke-width:1;stroke-linecap:square;stroke-linejoin:miter;stroke-miterlimit:10;stroke-dasharray:none;stroke-dashoffset:0" transform="translate(0,1573.6414)">
    <g style="fill:none;stroke:#000000;stroke-linecap:round;stroke-linejoin:round;stroke-opacity:1" id="g77">
      <path id="path79" d="m 292.89,262.39 c 0,-10.46 -5.45,-20.16 -14.37,-25.61 l -15.63,25.61 z" />
      <title id="title81">Angle Ã&#131;Â&#142;Ã&#130;Â±</title>
      <desc id="desc83">Angle Ã&#131;Â&#142;Ã&#130;Â±: Angle between G, A, F</desc>
    </g>
  </g>
  <g id="g114" clip-path="url(#clip10)" style="stroke-width:1;stroke-linecap:square;stroke-linejoin:miter;stroke-miterlimit:10;stroke-dasharray:none;stroke-dashoffset:0" transform="translate(-20.090958,1573.6414)">
    <g style="fill:#000000;fill-opacity:0.09803898;fill-rule:evenodd;stroke:none" id="g116">
      <path id="path118" d="m 373.43,262.39 21.22,0 0,-21.22 -21.22,0 0,21.22" />
      <title id="title120">Angle Ã&#131;Â&#142;Ã&#130;Â³</title>
      <desc id="desc122">Angle Ã&#131;Â&#142;Ã&#130;Â³: Angle between M, G, F</desc>
    </g>
  </g>
  <g id="g127" clip-path="url(#clip11)" style="stroke-width:1;stroke-linecap:square;stroke-linejoin:miter;stroke-miterlimit:10;stroke-dasharray:none;stroke-dashoffset:0" transform="translate(-20.090958,1573.6414)">
    <g style="fill:none;stroke:#000000;stroke-linecap:round;stroke-linejoin:round;stroke-opacity:1" id="g129">
      <path id="path131" d="m 373.43,262.39 21.22,0 0,-21.22 -21.22,0 0,21.22" />
      <title id="title133">Angle Ã&#131;Â&#142;Ã&#130;Â³</title>
      <desc id="desc135">Angle Ã&#131;Â&#142;Ã&#130;Â³: Angle between M, G, F</desc>
    </g>
  </g>
  <g id="g140" clip-path="url(#clip12)" style="stroke:#000000;stroke-width:2.16751699;stroke-linecap:square;stroke-linejoin:miter;stroke-miterlimit:10;stroke-dasharray:none;stroke-dashoffset:0;stroke-opacity:1" transform="translate(0.83712983,1391.1485)">
    <g style="fill:none;stroke:#000000;stroke-width:2.16751699;stroke-linecap:round;stroke-linejoin:round;stroke-miterlimit:10;stroke-dasharray:none;stroke-opacity:1" id="g142">
      <path id="path144" d="m 373.43,81.366 0,181.024" style="stroke:#000000;stroke-width:2.16751699;stroke-miterlimit:10;stroke-dasharray:none;stroke-opacity:1" />
      <title id="title146">Segment b</title>
      <desc id="desc148">Segment b: Segment [F, G]</desc>
    </g>
  </g>
  <g id="g153" clip-path="url(#clip13)" style="stroke:#000000;stroke-width:1.77342299;stroke-linecap:square;stroke-linejoin:miter;stroke-miterlimit:10;stroke-dasharray:5.32026898,5.32026898;stroke-dashoffset:0;stroke-opacity:1" transform="translate(0,1573.6414)">
    <g style="fill:none;stroke:#000000;stroke-width:1.77342299;stroke-linecap:round;stroke-linejoin:round;stroke-miterlimit:10;stroke-dasharray:5.32026898,5.32026898;stroke-dashoffset:0;stroke-opacity:1" id="g155">
      <path id="path157" d="M 373.43,81.366 262.89,262.39" style="stroke:#000000;stroke-width:1.77342299;stroke-miterlimit:10;stroke-dasharray:5.32026898,5.32026898;stroke-dashoffset:0;stroke-opacity:1" />
      <title id="title159">Segment d</title>
      <desc id="desc161">Segment d: Segment [F, H]</desc>
    </g>
  </g>
  <g id="g166" clip-path="url(#clip14)" style="stroke-width:1;stroke-linecap:square;stroke-linejoin:miter;stroke-miterlimit:10;stroke-dasharray:none;stroke-dashoffset:0" transform="translate(0,1573.6414)">
    <g style="fill:none;stroke:#000000;stroke-linecap:round;stroke-linejoin:round;stroke-opacity:1" id="g168">
      <path id="path170" d="m 262.89,262.39 110.54,0" />
      <title id="title172">Segment f</title>
      <desc id="desc174">Segment f: Segment [J, K] of Triangle poly1</desc>
    </g>
  </g>
  <g id="g179" clip-path="url(#clip15)" style="stroke:#000000;stroke-width:1.77342299;stroke-linecap:square;stroke-linejoin:miter;stroke-miterlimit:10;stroke-dasharray:5.32026898,5.32026898;stroke-dashoffset:0;stroke-opacity:1" transform="translate(0.83712324,1571.13)">
    <g style="fill:none;stroke:#000000;stroke-width:1.77342299;stroke-linecap:round;stroke-linejoin:round;stroke-miterlimit:10;stroke-dasharray:5.32026898,5.32026898;stroke-dashoffset:0;stroke-opacity:1" id="g181">
      <path id="path183" d="m 373.43,262.39 0,-181.024" style="stroke:#000000;stroke-width:1.77342299;stroke-miterlimit:10;stroke-dasharray:5.32026898,5.32026898;stroke-dashoffset:0;stroke-opacity:1" />
      <title id="title185">Segment j</title>
      <desc id="desc187">Segment j: Segment [K, F] of Triangle poly1</desc>
    </g>
  </g>
  <g style="font-style:normal;font-variant:normal;font-weight:normal;font-stretch:normal;letter-spacing:normal;word-spacing:normal;text-anchor:start;fill:none;fill-opacity:1;fill-rule:evenodd;stroke:#000000;stroke-linecap:butt;stroke-linejoin:miter;stroke-miterlimit:10.43299961;stroke-dasharray:none;stroke-dashoffset:0;stroke-opacity:1" ns0:preamble="/Users/Lizzie/Documents/Old mac/CMEP folder/underground-inkscape-preamble.tex" ns0:text="$1$" word-spacing="normal" letter-spacing="normal" font-size-adjust="none" font-stretch="normal" font-weight="normal" font-variant="normal" font-style="normal" stroke-miterlimit="10.433" xml:space="preserve" transform="matrix(2.25,0,0,-2.25,-173.26512,2824.6058)" id="g6002"><path style="fill:#000000;stroke-width:0" id="path6004" d="m 228.1,477.23 0,0.18 c -0.89,0 -1.13,0.21 -1.13,0.72 l 0,7.05 -0.1,0.04 -2.12,-1.08 0,-0.16 0.32,0.11 c 0.21,0.09 0.41,0.15 0.53,0.15 0.25,0 0.36,-0.18 0.36,-0.58 l 0,-5.3 c 0,-0.65 -0.25,-0.9 -1.13,-0.95 l 0,-0.18 z" /></g>  <g style="font-style:normal;font-variant:normal;font-weight:normal;font-stretch:normal;letter-spacing:normal;word-spacing:normal;text-anchor:start;fill:none;fill-opacity:1;fill-rule:evenodd;stroke:#000000;stroke-linecap:butt;stroke-linejoin:miter;stroke-miterlimit:10.43299961;stroke-dasharray:none;stroke-dashoffset:0;stroke-opacity:1" id="g6238" transform="matrix(2.25,0,0,-2.25,7.6434982,2934.2689)" xml:space="preserve" stroke-miterlimit="10.433" font-style="normal" font-variant="normal" font-weight="normal" font-stretch="normal" font-size-adjust="none" letter-spacing="normal" word-spacing="normal" ns0:text="$x$" ns0:preamble="/Users/Lizzie/Documents/Old mac/CMEP folder/underground-inkscape-preamble.tex"><path style="fill:#000000;stroke-width:0" d="m 227.04,480.64 -0.23,0.64 c -0.15,0.39 -0.37,0.88 -0.89,1.16 l -1.56,-0.39 0.03,-0.21 c 0.12,0.05 0.3,0.07 0.45,0.07 0.65,0 0.96,-0.48 1.16,-1.05 l 0.39,-1.09 -0.77,-1.19 c -0.38,-0.58 -0.68,-0.7 -0.83,-0.7 -0.29,0 -0.25,0.24 -0.55,0.24 -0.3,0 -0.45,-0.25 -0.45,-0.44 0,-0.26 0.19,-0.55 0.61,-0.55 0.67,0 1.01,0.51 1.39,1.08 l 0.75,1.16 0.47,-1.33 c 0.15,-0.43 0.38,-0.91 0.86,-0.91 0.69,0 1.22,1.13 1.37,1.31 l -0.17,0.12 c -0.25,-0.51 -0.53,-0.68 -0.72,-0.68 -0.54,0 -0.81,1.6 -1.16,2.33 l 0.65,1 c 0.16,0.26 0.29,0.45 0.65,0.45 0.2,0 0.26,-0.1 0.52,-0.1 0.31,0 0.46,0.27 0.46,0.49 0,0.25 -0.2,0.39 -0.58,0.39 -0.59,0 -1.01,-0.52 -1.31,-0.99 z" id="path6240" /></g>  <g ns0:preamble="/Users/Lizzie/Documents/Old mac/CMEP folder/underground-inkscape-preamble.tex" ns0:text="$y$" word-spacing="normal" letter-spacing="normal" font-size-adjust="none" font-stretch="normal" font-weight="normal" font-variant="normal" font-style="normal" stroke-miterlimit="10.433" xml:space="preserve" transform="matrix(2.25,0,0,-2.25,-266.93292,2540.1206)" id="g6478" style="font-style:normal;font-variant:normal;font-weight:normal;font-stretch:normal;letter-spacing:normal;word-spacing:normal;text-anchor:start;fill:none;fill-opacity:1;fill-rule:evenodd;stroke:#000000;stroke-linecap:butt;stroke-linejoin:miter;stroke-miterlimit:10.43299961;stroke-dasharray:none;stroke-dashoffset:0;stroke-opacity:1"><path id="path6480" d="m 226.63,480.86 -0.01,0.08 -0.01,0.08 -0.01,0.07 -0.01,0.07 -0.01,0.07 -0.01,0.07 -0.01,0.06 -0.01,0.06 -0.01,0.06 -0.01,0.05 -0.01,0.06 -0.01,0.05 -0.01,0.05 -0.01,0.04 -0.02,0.05 -0.01,0.05 -0.01,0.04 -0.02,0.04 -0.01,0.04 -0.01,0.04 -0.04,0.08 -0.03,0.07 -0.04,0.08 -0.04,0.07 -0.04,0.07 -0.05,0.07 -1.78,-0.3 0.02,-0.18 c 0.11,0.01 0.3,0.04 0.43,0.04 0.67,0 0.77,-0.71 0.83,-1.24 l 0.45,-3.7 c -0.31,-0.48 -0.98,-1.21 -1.18,-1.21 -0.19,0 -0.17,0.37 -0.68,0.37 -0.15,0 -0.47,-0.13 -0.47,-0.49 0,-0.28 0.22,-0.64 0.66,-0.64 0.81,0 1.58,1.15 2.44,2.24 0.5,0.62 2.42,3.46 2.42,4.38 0,0.46 -0.3,0.73 -0.68,0.73 -0.34,0 -0.56,-0.21 -0.56,-0.47 0,-0.45 0.62,-0.57 0.62,-0.82 0,-0.21 -0.09,-0.45 -0.33,-0.88 -0.26,-0.49 -0.68,-1.19 -1.4,-2.18 z" style="fill:#000000;stroke-width:0" /></g>  <g ns0:preamble="/Users/Lizzie/Documents/Old mac/CMEP folder/underground-inkscape-preamble.tex" ns0:text="$O$" word-spacing="normal" letter-spacing="normal" font-size-adjust="none" font-stretch="normal" font-weight="normal" font-variant="normal" font-style="normal" stroke-miterlimit="10.433" xml:space="preserve" transform="matrix(2.3350346,0,0,-2.3350346,-289.50337,2983.1961)" id="g4634" style="font-style:normal;font-variant:normal;font-weight:normal;font-stretch:normal;letter-spacing:normal;word-spacing:normal;text-anchor:start;fill:none;fill-opacity:1;fill-rule:evenodd;stroke:#000000;stroke-linecap:butt;stroke-linejoin:miter;stroke-miterlimit:10.43299961;stroke-dasharray:none;stroke-dashoffset:0;stroke-opacity:1"><path id="path4636" d="m 231.87,482.19 -0.01,0.14 -0.01,0.14 -0.01,0.14 -0.02,0.14 -0.03,0.13 -0.03,0.14 -0.03,0.13 -0.05,0.13 -0.05,0.13 -0.05,0.12 -0.06,0.13 -0.07,0.12 -0.07,0.11 -0.08,0.12 -0.08,0.11 -0.09,0.1 -0.09,0.1 -0.1,0.1 -0.11,0.09 -0.11,0.09 -0.12,0.08 -0.12,0.07 -0.13,0.07 -0.14,0.06 -0.14,0.06 -0.15,0.05 -0.15,0.04 -0.16,0.04 -0.16,0.03 -0.17,0.02 -0.18,0.01 -0.18,0 -0.1,-0.43 c 1.2,0 1.67,-0.97 1.67,-2.24 l 0,0 c 0,-1.66 -0.86,-4.91 -3.37,-4.91 -0.93,0 -1.66,0.63 -1.66,1.78 0,1.67 0.61,5.37 3.36,5.37 l 0.1,0.43 c -3.02,0 -4.9,-2.88 -4.9,-5.27 0,-1.62 1.24,-2.75 3,-2.75 3,0 4.85,2.75 4.85,5.08 z" style="fill:#000000;stroke-width:0" /></g>  <g id="g4905" transform="matrix(2.25,0,0,-2.25,-207.58717,2884.0415)" xml:space="preserve" stroke-miterlimit="10.433" font-style="normal" font-variant="normal" font-weight="normal" font-stretch="normal" font-size-adjust="none" letter-spacing="normal" word-spacing="normal" ns0:text="$\\dfrac{\\pi}{3}$" ns0:preamble="/Users/Lizzie/Documents/Old mac/CMEP folder/underground-inkscape-preamble.tex" style="font-style:normal;font-variant:normal;font-weight:normal;font-stretch:normal;letter-spacing:normal;word-spacing:normal;text-anchor:start;fill:none;fill-opacity:1;fill-rule:evenodd;stroke:#000000;stroke-linecap:butt;stroke-linejoin:miter;stroke-miterlimit:10.43299961;stroke-dasharray:none;stroke-dashoffset:0;stroke-opacity:1"><path style="fill:#000000;stroke-width:0" d="m 231.36,487.18 -3.35,0 c -1.23,0 -1.98,-0.54 -2.51,-1.49 l 0.19,0 c 0.52,0.63 0.96,0.63 1.65,0.63 l -1.05,-2.43 c -0.16,-0.35 -0.37,-0.69 -0.88,-0.83 -0.31,-0.08 -0.37,-0.39 -0.37,-0.57 0,-0.28 0.3,-0.52 0.61,-0.52 0.14,0 0.32,0.03 0.45,0.13 0.99,0.75 1.36,2.78 1.9,4.22 l 1.12,0 c -0.3,-0.99 -0.65,-1.82 -0.93,-2.66 -0.07,-0.22 -0.1,-0.46 -0.1,-0.73 0,-0.46 0.2,-0.89 0.67,-0.89 0.83,0 1.46,0.83 1.71,1.68 l -0.19,0 c -0.29,-0.64 -0.62,-0.78 -0.87,-0.78 -0.26,0 -0.45,0.3 -0.45,0.57 0,0.79 0.63,2.3 0.8,2.81 l 1.32,0 z" id="path4907" /><line style="stroke-width:0.65799999" x1="224.63" y1="478.84" x2="231.24001" y2="478.84" id="line4909" /><path style="fill:#000000;stroke-width:0" d="m 225.69,474.55 0.05,0.08 0.04,0.08 0.05,0.07 0.05,0.07 0.05,0.07 0.04,0.07 0.05,0.06 0.05,0.06 0.05,0.06 0.05,0.06 0.05,0.05 0.05,0.05 0.05,0.05 0.06,0.04 0.05,0.04 0.05,0.04 0.06,0.04 0.05,0.04 0.06,0.03 0.06,0.03 0.05,0.02 0.06,0.03 0.06,0.02 0.06,0.02 0.06,0.02 0.06,0.01 0.07,0.01 0.06,0.01 0.07,0.01 0.06,0.01 0.07,0 0.07,0 c 0.78,0 1.28,-0.4 1.28,-1.2 0,-0.72 -0.38,-1.25 -0.96,-1.58 -0.24,-0.15 -0.55,-0.28 -1,-0.43 l 0,-0.17 c 0.68,0 0.95,-0.03 1.21,-0.11 0.82,-0.24 1.23,-0.82 1.23,-1.71 0,-1.01 -0.66,-1.81 -1.54,-1.81 -0.33,0 -0.58,0.06 -1.02,0.36 -0.33,0.24 -0.52,0.31 -0.72,0.31 -0.27,0 -0.48,-0.17 -0.48,-0.42 0,-0.43 0.46,-0.68 1.32,-0.68 1.06,0 2.18,0.35 2.75,1.1 0.34,0.45 0.55,1.03 0.55,1.65 0,0.62 -0.19,1.16 -0.53,1.53 -0.24,0.26 -0.46,0.4 -0.98,0.62 0.8,0.47 1.1,1.07 1.1,1.63 0,0.97 -0.74,1.62 -1.85,1.62 -1.23,0 -1.97,-0.79 -2.32,-1.91 z" id="path4911" /></g>  <path style="fill:none;fill-rule:evenodd;stroke:#000000;stroke-width:1.97046999;stroke-linecap:butt;stroke-linejoin:miter;stroke-opacity:1;stroke-miterlimit:4;stroke-dasharray:5.91140997,5.91140997;stroke-dashoffset:0" d="M 262.8567,1836.7283 373.35697,1474.2539" id="path5794" />
  <g id="content" transform="matrix(2.0870796,0,0,-2.0870796,-101.69101,2857.2168)" xml:space="preserve" stroke-miterlimit="10.433" font-style="normal" font-variant="normal" font-weight="normal" font-stretch="normal" font-size-adjust="none" letter-spacing="normal" word-spacing="normal" ns0:text="$Q\\,\\left(\\tfrac{1}{2},0\\right)$" ns0:preamble="/Users/Lizzie/Documents/Old mac/CMEP folder/underground-inkscape-preamble.tex" style="font-style:normal;font-variant:normal;font-weight:normal;font-stretch:normal;letter-spacing:normal;word-spacing:normal;text-anchor:start;fill:none;fill-opacity:1;fill-rule:evenodd;stroke:#000000;stroke-linecap:butt;stroke-linejoin:miter;stroke-miterlimit:10.43299961;stroke-dasharray:none;stroke-dashoffset:0;stroke-opacity:1"><path style="fill:#000000;stroke-width:0" d="m 224.41,472.42 0.13,-0.14 c 0.33,0.15 0.6,0.21 0.69,0.21 0.36,0 1,-0.19 1.59,-0.32 0.44,-0.09 1.05,-0.19 1.68,-0.19 1.4,0 2.23,0.55 2.93,1.41 l -0.16,0.13 c -0.59,-0.63 -1.15,-0.78 -1.61,-0.78 -1.03,0 -2.13,0.4 -2.9,0.4 -0.15,0 -0.32,-0.01 -0.51,-0.05 l -0.05,0.06 0.76,0.51 0.04,0.44 c -0.95,0 -1.55,0.61 -1.55,1.76 0,1.62 1.06,5.36 3.69,5.36 0.77,0 1.54,-0.37 1.54,-1.93 l 0,0 c 0,-1.85 -1.11,-5.19 -3.68,-5.19 l -0.04,-0.44 c 2.9,0 5.13,2.67 5.13,5.08 0,1.83 -1.1,2.91 -2.83,2.91 -3.01,0 -5.24,-2.84 -5.24,-5.25 0,-1.56 0.99,-2.52 2.34,-2.72 z" id="path5905" /><path style="fill:#000000;stroke-width:0" d="m 241.96,465.77 -0.29,0.38 -0.3,0.41 -0.14,0.22 -0.15,0.22 -0.14,0.23 -0.14,0.24 -0.14,0.25 -0.14,0.26 -0.13,0.27 -0.13,0.27 -0.13,0.29 -0.12,0.29 -0.12,0.3 -0.11,0.32 -0.11,0.32 -0.11,0.33 -0.1,0.35 -0.09,0.35 -0.09,0.37 -0.08,0.38 -0.08,0.38 -0.07,0.4 -0.06,0.41 -0.05,0.43 -0.05,0.43 -0.04,0.45 -0.03,0.46 -0.02,0.47 -0.02,0.49 0,0.49 c 0,5.41 1.6,8.88 3.18,10.51 l 0,0.39 c -2.52,-2.02 -4.31,-6.17 -4.31,-10.9 0,-4.82 1.79,-8.52 4.31,-10.88 z" id="path5907" /><path style="fill:#000000;stroke-width:0" d="m 247.67,478.56 0,0.13 c -0.66,0 -0.84,0.16 -0.84,0.54 l 0,5.3 -0.08,0.02 -1.59,-0.81 0,-0.12 0.24,0.09 c 0.16,0.06 0.31,0.11 0.4,0.11 0.19,0 0.27,-0.14 0.27,-0.44 l 0,-3.98 c 0,-0.48 -0.19,-0.67 -0.84,-0.71 l 0,-0.13 z" id="path5909" /><line style="stroke-width:0.65799999" x1="244.17999" y1="476.26999" x2="248.62" y2="476.26999" id="line5911" /><path style="fill:#000000;stroke-width:0" d="m 248.38,470.21 -0.12,0.05 c -0.3,-0.49 -0.48,-0.59 -0.85,-0.59 l -2.08,0 1.46,1.56 c 0.79,0.83 1.14,1.5 1.14,2.2 0,0.88 -0.64,1.56 -1.64,1.56 -1.09,0 -1.66,-0.73 -1.84,-1.77 l 0.18,-0.04 c 0.36,0.87 0.67,1.15 1.3,1.15 0.76,0 1.24,-0.44 1.24,-1.25 0,-0.75 -0.32,-1.43 -1.16,-2.3 l -1.57,-1.68 0,-0.1 3.46,0 z" id="path5913" /><path style="fill:#000000;stroke-width:0" d="m 250.8,472.11 0.08,0.04 0.07,0.04 0.07,0.04 0.07,0.05 0.07,0.04 0.07,0.05 0.06,0.05 0.06,0.05 0.06,0.05 0.06,0.05 0.06,0.05 0.05,0.06 0.05,0.06 0.05,0.06 0.05,0.05 0.04,0.06 0.04,0.07 0.04,0.06 0.04,0.06 0.03,0.06 0.04,0.07 0.03,0.06 0.02,0.07 0.03,0.06 0.02,0.07 0.02,0.07 0.01,0.06 0.02,0.07 0.01,0.07 0,0.06 0.01,0.07 0,0.06 c 0,0.62 -0.42,1.03 -0.95,1.03 -0.42,0 -0.71,-0.27 -0.71,-0.67 0,-0.4 0.25,-0.6 0.69,-0.6 0.13,0 0.25,0.04 0.34,0.04 0.1,0 0.17,-0.07 0.17,-0.15 0,-0.39 -0.33,-0.83 -0.99,-1.26 z" id="path5915" /><path style="fill:#000000;stroke-width:0" d="m 260.08,477.67 -0.01,0.23 0,0.22 -0.02,0.21 -0.02,0.21 -0.03,0.21 -0.03,0.2 -0.04,0.19 -0.04,0.19 -0.05,0.19 -0.06,0.17 -0.06,0.18 -0.06,0.16 -0.08,0.16 -0.07,0.15 -0.08,0.15 -0.08,0.13 -0.09,0.14 -0.1,0.12 -0.1,0.12 -0.1,0.1 -0.1,0.11 -0.11,0.09 -0.12,0.08 -0.12,0.08 -0.12,0.07 -0.12,0.06 -0.13,0.05 -0.13,0.04 -0.14,0.04 -0.14,0.02 -0.14,0.01 -0.14,0.01 c -1.91,0 -2.73,-1.93 -2.73,-4.02 0,-1.93 0.66,-4.13 2.68,-4.13 l 0,0.31 c -1.02,0 -1.54,1.35 -1.54,3.74 0,2.4 0.53,3.79 1.52,3.79 1.04,0 1.56,-1.38 1.56,-3.84 l 0,0 c 0,-2.33 -0.53,-3.69 -1.54,-3.69 l 0,-0.31 c 1.93,0 2.68,2.03 2.68,4.06 z" id="path5917" /><path style="fill:#000000;stroke-width:0" d="m 261.71,486.71 0.3,-0.38 0.3,-0.41 0.29,-0.44 0.14,-0.23 0.14,-0.24 0.14,-0.24 0.14,-0.26 0.13,-0.27 0.13,-0.27 0.13,-0.28 0.12,-0.3 0.12,-0.3 0.11,-0.31 0.11,-0.33 0.11,-0.33 0.1,-0.34 0.09,-0.36 0.09,-0.36 0.08,-0.38 0.08,-0.39 0.07,-0.4 0.06,-0.41 0.05,-0.43 0.05,-0.44 0.04,-0.45 0.03,-0.46 0.02,-0.47 0.02,-0.49 0,-0.51 c 0,-5.35 -1.6,-8.86 -3.19,-10.49 l 0,-0.39 c 2.53,2.02 4.32,6.16 4.32,10.88 0,4.83 -1.79,8.54 -4.32,10.9 z" id="path5919" /></g>  <g transform="matrix(1,0,0,0.75583905,111.33739,1550.6903)" style="stroke-width:1;stroke-linecap:square;stroke-linejoin:miter;stroke-miterlimit:10;stroke-dasharray:none;stroke-dashoffset:0" id="use6036" clip-path="url(#clip2)">
    <g style="fill:#000000;fill-opacity:1;fill-rule:evenodd;stroke:none" id="g6040">
      <path id="path6042" d="m 262.89,2 -6,24 12,0" />
    </g>
  </g>
</svg>