<?xml version='1.0' ?><svg xmlns:ns0="http://www.iki.fi/pav/software/textext/" xmlns:dc="http://purl.org/dc/elements/1.1/" xmlns:cc="http://creativecommons.org/ns#" xmlns:rdf="http://www.w3.org/1999/02/22-rdf-syntax-ns#" xmlns:svg="http://www.w3.org/2000/svg" xmlns="http://www.w3.org/2000/svg" xmlns:xlink="http://www.w3.org/1999/xlink" id="svg2" version="1.1" width="299.98965" height="210.08623" viewBox="0.0 -1.9409365151007136 554.1755111577181 388.0955356208054" preserveAspectRatio="none">
  <metadata id="metadata429">
    <rdf:RDF>
      <cc:Work rdf:about="">
        <dc:format>image/svg+xml</dc:format>
        <dc:type rdf:resource="http://purl.org/dc/dcmitype/StillImage" />
        <dc:title />
      </cc:Work>
    </rdf:RDF>
  </metadata>
  <defs id="defs427">
    <clipPath id="clip1">
      <path id="path9" d="M 0.0000 0.0000 L 0.0000 499.00 L 734.00 499.00 L 734.00 0.0000 z" />
    </clipPath>
    <clipPath id="clip2">
      <path id="path18" d="M 0.0000 0.0000 L 0.0000 499.00 L 734.00 499.00 L 734.00 0.0000 z" />
    </clipPath>
    <clipPath id="clip3">
      <path id="path27" d="M 0.0000 0.0000 L 0.0000 499.00 L 734.00 499.00 L 734.00 0.0000 z" />
    </clipPath>
    <clipPath id="clip4">
      <path id="path36" d="M 0.0000 0.0000 L 0.0000 499.00 L 734.00 499.00 L 734.00 0.0000 z" />
    </clipPath>
    <clipPath id="clip6">
      <path d="m 0,0 0,499 734,0 0,-499 z" id="path60" />
    </clipPath>
    <clipPath id="clip7">
      <path d="m 0,0 0,499 734,0 0,-499 z" id="path73" />
    </clipPath>
    <clipPath id="clip14">
      <path d="m 0,0 0,499 734,0 0,-499 z" id="path164" />
    </clipPath>
    <clipPath id="clip16">
      <path d="m 0,0 0,499 734,0 0,-499 z" id="path190" />
    </clipPath>
    <clipPath id="clip5-3">
      <path d="m 0,0 0,469 580,0 0,-469 z" id="path4744" />
    </clipPath>
    <clipPath id="clipPath4328" clipPathUnits="userSpaceOnUse">
      <rect ry="1.5129268" y="-2.2705646" x="0" height="388.42517" width="554.17554" id="rect4330" style="fill:#2b83ba;fill-rule:nonzero;stroke:#000000;stroke-width:2.46308756;stroke-linecap:square;stroke-linejoin:round;stroke-miterlimit:4;stroke-dasharray:none;stroke-dashoffset:0;fill-opacity:1.0;stroke-opacity:1.0" />
    </clipPath>
  </defs>
  <g clip-path="url(#clipPath4328)" id="g4268">
    <g clip-path="url(#clip1)" id="g11" style="stroke-width:1;stroke-linecap:square;stroke-linejoin:miter;stroke-miterlimit:10;stroke-dasharray:none;stroke-dashoffset:0">
      <g id="g13" style="fill:none;stroke:#000000;stroke-width:2;stroke-linecap:butt;stroke-opacity:1">
        <path d="m 262.89,3 0,496" id="path15" />
      </g>
    </g>
    <g clip-path="url(#clip2)" id="g20" style="stroke-width:1;stroke-linecap:square;stroke-linejoin:miter;stroke-miterlimit:10;stroke-dasharray:none;stroke-dashoffset:0" transform="translate(0,-3.94094)">
      <g id="g22" style="fill:#000000;fill-opacity:1;fill-rule:evenodd;stroke:none">
        <path d="m 262.89,2 -6,24 12,0" id="path24" />
      </g>
    </g>
    <g transform="scale(0.73202895,1)" clip-path="url(#clip3)" id="g29" style="stroke-width:1;stroke-linecap:square;stroke-linejoin:miter;stroke-miterlimit:10;stroke-dasharray:none;stroke-dashoffset:0">
      <g id="g31" style="fill:none;stroke:#000000;stroke-width:2;stroke-linecap:butt;stroke-opacity:1">
        <path d="m 0,262.39 731,0" id="path33" />
      </g>
    </g>
    <g transform="translate(-177.47013,0)" clip-path="url(#clip4)" id="g38" style="stroke-width:1;stroke-linecap:square;stroke-linejoin:miter;stroke-miterlimit:10;stroke-dasharray:none;stroke-dashoffset:0">
      <g id="g40" style="fill:#000000;fill-opacity:1;fill-rule:evenodd;stroke:none">
        <path d="m 732,262.39 -24,-6 0,12" id="path42" />
      </g>
    </g>
    <g id="misc" style="stroke-width:1;stroke-linecap:square;stroke-linejoin:miter;stroke-miterlimit:10;stroke-dasharray:none;stroke-dashoffset:0" />
    <g id="g62" clip-path="url(#clip6)" style="stroke-width:1;stroke-linecap:square;stroke-linejoin:miter;stroke-miterlimit:10;stroke-dasharray:none;stroke-dashoffset:0">
      <g style="fill:#000000;fill-opacity:0.09803898;fill-rule:nonzero;stroke:none" id="g64">
        <path id="path66" d="m 292.89,262.39 c 0,-10.46 -5.45,-20.16 -14.37,-25.61 l -15.63,25.61 z" />
        <title id="title68">Angle Ã&#131;Â&#142;Ã&#130;Â±</title>
        <desc id="desc70">Angle Ã&#131;Â&#142;Ã&#130;Â±: Angle between G, A, F</desc>
      </g>
    </g>
    <g id="g75" clip-path="url(#clip7)" style="stroke-width:1;stroke-linecap:square;stroke-linejoin:miter;stroke-miterlimit:10;stroke-dasharray:none;stroke-dashoffset:0">
      <g style="fill:none;stroke:#000000;stroke-linecap:round;stroke-linejoin:round;stroke-opacity:1" id="g77">
        <path id="path79" d="m 292.89,262.39 c 0,-10.46 -5.45,-20.16 -14.37,-25.61 l -15.63,25.61 z" />
        <title id="title81">Angle Ã&#131;Â&#142;Ã&#130;Â±</title>
        <desc id="desc83">Angle Ã&#131;Â&#142;Ã&#130;Â±: Angle between G, A, F</desc>
      </g>
    </g>
    <g id="g166" clip-path="url(#clip14)" style="stroke-width:1;stroke-linecap:square;stroke-linejoin:miter;stroke-miterlimit:10;stroke-dasharray:none;stroke-dashoffset:0">
      <g style="fill:none;stroke:#000000;stroke-linecap:round;stroke-linejoin:round;stroke-opacity:1" id="g168">
        <path id="path170" d="m 262.89,262.39 110.54,0" />
        <title id="title172">Segment f</title>
        <desc id="desc174">Segment f: Segment [J, K] of Triangle poly1</desc>
      </g>
    </g>
    <g id="g192" clip-path="url(#clip16)" style="fill:#ffffff;fill-opacity:1;stroke:#000000;stroke-width:1.97046995;stroke-linecap:square;stroke-linejoin:miter;stroke-miterlimit:10.43299961;stroke-dasharray:5.91140997, 5.91140997;stroke-dashoffset:0;stroke-opacity:1" transform="matrix(0.98947906,0,0,0.98947906,2.7554114,0.40334012)">
      <g style="fill:#ffffff;fill-opacity:1;stroke:#000000;stroke-width:1.97046995;stroke-linecap:round;stroke-linejoin:round;stroke-miterlimit:10.43299961;stroke-dasharray:5.91140997, 5.91140997;stroke-dashoffset:0;stroke-opacity:1" id="g194">
        <path id="path196" d="M 373.43,81.366 262.89,262.39" style="fill:#ffffff;fill-opacity:1;stroke:#000000;stroke-width:1.97046995;stroke-miterlimit:10.43299961;stroke-dasharray:5.91140997, 5.91140997;stroke-dashoffset:0;stroke-opacity:1" />
        <title id="title198">Segment k</title>
        <desc id="desc200">Segment k: Segment [F, J] of Triangle poly1</desc>
      </g>
    </g>
    <g style="font-style:normal;font-variant:normal;font-weight:normal;font-stretch:normal;letter-spacing:normal;word-spacing:normal;text-anchor:start;fill:none;fill-opacity:1;fill-rule:evenodd;stroke:#000000;stroke-linecap:butt;stroke-linejoin:miter;stroke-miterlimit:10.43299961;stroke-dasharray:none;stroke-dashoffset:0;stroke-opacity:1" ns0:preamble="/Users/Lizzie/Documents/Old mac/CMEP folder/underground-inkscape-preamble.tex" ns0:text="$1$" text-anchor="start" word-spacing="normal" letter-spacing="normal" font-size-adjust="none" font-stretch="normal" font-weight="normal" font-variant="normal" font-style="normal" fill-opacity="1" fill-rule="evenodd" fill="none" stroke-opacity="1" stroke-dashoffset="0" stroke-dasharray="none" stroke-miterlimit="10.433" stroke-linejoin="miter" stroke-linecap="butt" stroke="black" xml:space="preserve" transform="matrix(2.25,0,0,-2.25,-206.75005,1245.9416)" id="g6002"><path id="path6004" fill="black" stroke-width="0" d="M228.1,477.23 V477.41 C227.21,477.41,226.97,477.62,226.97,478.13 V485.18 L226.87,485.22 L224.75,484.14 V483.98 L225.07,484.09 C225.28,484.18,225.48,484.24,225.6,484.24 C225.85,484.24,225.96,484.06,225.96,483.66 V478.36 C225.96,477.71,225.71,477.46,224.83,477.41 V477.23 Z " /></g>    <g style="font-style:normal;font-variant:normal;font-weight:normal;font-stretch:normal;letter-spacing:normal;word-spacing:normal;text-anchor:start;fill:none;fill-opacity:1;fill-rule:evenodd;stroke:#000000;stroke-linecap:butt;stroke-linejoin:miter;stroke-miterlimit:10.43299961;stroke-dasharray:none;stroke-dashoffset:0;stroke-opacity:1" id="g6238" transform="matrix(2.25,0,0,-2.25,7.6434982,1360.6275)" xml:space="preserve" stroke-miterlimit="10.433" font-style="normal" font-variant="normal" font-weight="normal" font-stretch="normal" font-size-adjust="none" letter-spacing="normal" word-spacing="normal" ns0:text="$x$" ns0:preamble="/Users/Lizzie/Documents/Old mac/CMEP folder/underground-inkscape-preamble.tex"><path style="fill:#000000;stroke-width:0" d="m 227.04,480.64 -0.23,0.64 c -0.15,0.39 -0.37,0.88 -0.89,1.16 l -1.56,-0.39 0.03,-0.21 c 0.12,0.05 0.3,0.07 0.45,0.07 0.65,0 0.96,-0.48 1.16,-1.05 l 0.39,-1.09 -0.77,-1.19 c -0.38,-0.58 -0.68,-0.7 -0.83,-0.7 -0.29,0 -0.25,0.24 -0.55,0.24 -0.3,0 -0.45,-0.25 -0.45,-0.44 0,-0.26 0.19,-0.55 0.61,-0.55 0.67,0 1.01,0.51 1.39,1.08 l 0.75,1.16 0.47,-1.33 c 0.15,-0.43 0.38,-0.91 0.86,-0.91 0.69,0 1.22,1.13 1.37,1.31 l -0.17,0.12 c -0.25,-0.51 -0.53,-0.68 -0.72,-0.68 -0.54,0 -0.81,1.6 -1.16,2.33 l 0.65,1 c 0.16,0.26 0.29,0.45 0.65,0.45 0.2,0 0.26,-0.1 0.52,-0.1 0.31,0 0.46,0.27 0.46,0.49 0,0.25 -0.2,0.39 -0.58,0.39 -0.59,0 -1.01,-0.52 -1.31,-0.99 z" id="path6240" /></g>    <g ns0:preamble="/Users/Lizzie/Documents/Old mac/CMEP folder/underground-inkscape-preamble.tex" ns0:text="$y$" word-spacing="normal" letter-spacing="normal" font-size-adjust="none" font-stretch="normal" font-weight="normal" font-variant="normal" font-style="normal" stroke-miterlimit="10.433" xml:space="preserve" transform="matrix(2.25,0,0,-2.25,-267.77004,1107.1159)" id="g6478" style="font-style:normal;font-variant:normal;font-weight:normal;font-stretch:normal;letter-spacing:normal;word-spacing:normal;text-anchor:start;fill:none;fill-opacity:1;fill-rule:evenodd;stroke:#000000;stroke-linecap:butt;stroke-linejoin:miter;stroke-miterlimit:10.43299961;stroke-dasharray:none;stroke-dashoffset:0;stroke-opacity:1"><path id="path6480" d="m 226.63,480.86 -0.01,0.08 -0.01,0.08 -0.01,0.07 -0.01,0.07 -0.01,0.07 -0.01,0.07 -0.01,0.06 -0.01,0.06 -0.01,0.06 -0.01,0.05 -0.01,0.06 -0.01,0.05 -0.01,0.05 -0.01,0.04 -0.02,0.05 -0.01,0.05 -0.01,0.04 -0.02,0.04 -0.01,0.04 -0.01,0.04 -0.04,0.08 -0.03,0.07 -0.04,0.08 -0.04,0.07 -0.04,0.07 -0.05,0.07 -1.78,-0.3 0.02,-0.18 c 0.11,0.01 0.3,0.04 0.43,0.04 0.67,0 0.77,-0.71 0.83,-1.24 l 0.45,-3.7 c -0.31,-0.48 -0.98,-1.21 -1.18,-1.21 -0.19,0 -0.17,0.37 -0.68,0.37 -0.15,0 -0.47,-0.13 -0.47,-0.49 0,-0.28 0.22,-0.64 0.66,-0.64 0.81,0 1.58,1.15 2.44,2.24 0.5,0.62 2.42,3.46 2.42,4.38 0,0.46 -0.3,0.73 -0.68,0.73 -0.34,0 -0.56,-0.21 -0.56,-0.47 0,-0.45 0.62,-0.57 0.62,-0.82 0,-0.21 -0.09,-0.45 -0.33,-0.88 -0.26,-0.49 -0.68,-1.19 -1.4,-2.18 z" style="fill:#000000;stroke-width:0" /></g>    <g ns0:preamble="/Users/Lizzie/Documents/Old mac/CMEP folder/underground-inkscape-preamble.tex" ns0:text="$O$" word-spacing="normal" letter-spacing="normal" font-size-adjust="none" font-stretch="normal" font-weight="normal" font-variant="normal" font-style="normal" stroke-miterlimit="10.433" xml:space="preserve" transform="matrix(2.3350346,0,0,-2.3350346,-287.82912,1402.8577)" id="g4634" style="font-style:normal;font-variant:normal;font-weight:normal;font-stretch:normal;letter-spacing:normal;word-spacing:normal;text-anchor:start;fill:none;fill-opacity:1;fill-rule:evenodd;stroke:#000000;stroke-linecap:butt;stroke-linejoin:miter;stroke-miterlimit:10.43299961;stroke-dasharray:none;stroke-dashoffset:0;stroke-opacity:1"><path id="path4636" d="m 231.87,482.19 -0.01,0.14 -0.01,0.14 -0.01,0.14 -0.02,0.14 -0.03,0.13 -0.03,0.14 -0.03,0.13 -0.05,0.13 -0.05,0.13 -0.05,0.12 -0.06,0.13 -0.07,0.12 -0.07,0.11 -0.08,0.12 -0.08,0.11 -0.09,0.1 -0.09,0.1 -0.1,0.1 -0.11,0.09 -0.11,0.09 -0.12,0.08 -0.12,0.07 -0.13,0.07 -0.14,0.06 -0.14,0.06 -0.15,0.05 -0.15,0.04 -0.16,0.04 -0.16,0.03 -0.17,0.02 -0.18,0.01 -0.18,0 -0.1,-0.43 c 1.2,0 1.67,-0.97 1.67,-2.24 l 0,0 c 0,-1.66 -0.86,-4.91 -3.37,-4.91 -0.93,0 -1.66,0.63 -1.66,1.78 0,1.67 0.61,5.37 3.36,5.37 l 0.1,0.43 c -3.02,0 -4.9,-2.88 -4.9,-5.27 0,-1.62 1.24,-2.75 3,-2.75 3,0 4.85,2.75 4.85,5.08 z" style="fill:#000000;stroke-width:0" /></g>    <g id="g4905" transform="matrix(2.25,0,0,-2.25,-207.58717,1310.4001)" xml:space="preserve" stroke-miterlimit="10.433" font-style="normal" font-variant="normal" font-weight="normal" font-stretch="normal" font-size-adjust="none" letter-spacing="normal" word-spacing="normal" ns0:text="$\\dfrac{\\pi}{3}$" ns0:preamble="/Users/Lizzie/Documents/Old mac/CMEP folder/underground-inkscape-preamble.tex" style="font-style:normal;font-variant:normal;font-weight:normal;font-stretch:normal;letter-spacing:normal;word-spacing:normal;text-anchor:start;fill:none;fill-opacity:1;fill-rule:evenodd;stroke:#000000;stroke-linecap:butt;stroke-linejoin:miter;stroke-miterlimit:10.43299961;stroke-dasharray:none;stroke-dashoffset:0;stroke-opacity:1"><path style="fill:#000000;stroke-width:0" d="m 231.36,487.18 -3.35,0 c -1.23,0 -1.98,-0.54 -2.51,-1.49 l 0.19,0 c 0.52,0.63 0.96,0.63 1.65,0.63 l -1.05,-2.43 c -0.16,-0.35 -0.37,-0.69 -0.88,-0.83 -0.31,-0.08 -0.37,-0.39 -0.37,-0.57 0,-0.28 0.3,-0.52 0.61,-0.52 0.14,0 0.32,0.03 0.45,0.13 0.99,0.75 1.36,2.78 1.9,4.22 l 1.12,0 c -0.3,-0.99 -0.65,-1.82 -0.93,-2.66 -0.07,-0.22 -0.1,-0.46 -0.1,-0.73 0,-0.46 0.2,-0.89 0.67,-0.89 0.83,0 1.46,0.83 1.71,1.68 l -0.19,0 c -0.29,-0.64 -0.62,-0.78 -0.87,-0.78 -0.26,0 -0.45,0.3 -0.45,0.57 0,0.79 0.63,2.3 0.8,2.81 l 1.32,0 z" id="path4907" /><line style="stroke-width:0.65799999" x1="224.63" y1="478.84" x2="231.24001" y2="478.84" id="line4909" /><path style="fill:#000000;stroke-width:0" d="m 225.69,474.55 0.05,0.08 0.04,0.08 0.05,0.07 0.05,0.07 0.05,0.07 0.04,0.07 0.05,0.06 0.05,0.06 0.05,0.06 0.05,0.06 0.05,0.05 0.05,0.05 0.05,0.05 0.06,0.04 0.05,0.04 0.05,0.04 0.06,0.04 0.05,0.04 0.06,0.03 0.06,0.03 0.05,0.02 0.06,0.03 0.06,0.02 0.06,0.02 0.06,0.02 0.06,0.01 0.07,0.01 0.06,0.01 0.07,0.01 0.06,0.01 0.07,0 0.07,0 c 0.78,0 1.28,-0.4 1.28,-1.2 0,-0.72 -0.38,-1.25 -0.96,-1.58 -0.24,-0.15 -0.55,-0.28 -1,-0.43 l 0,-0.17 c 0.68,0 0.95,-0.03 1.21,-0.11 0.82,-0.24 1.23,-0.82 1.23,-1.71 0,-1.01 -0.66,-1.81 -1.54,-1.81 -0.33,0 -0.58,0.06 -1.02,0.36 -0.33,0.24 -0.52,0.31 -0.72,0.31 -0.27,0 -0.48,-0.17 -0.48,-0.42 0,-0.43 0.46,-0.68 1.32,-0.68 1.06,0 2.18,0.35 2.75,1.1 0.34,0.45 0.55,1.03 0.55,1.65 0,0.62 -0.19,1.16 -0.53,1.53 -0.24,0.26 -0.46,0.4 -0.98,0.62 0.8,0.47 1.1,1.07 1.1,1.63 0,0.97 -0.74,1.62 -1.85,1.62 -1.23,0 -1.97,-0.79 -2.32,-1.91 z" id="path4911" /></g>    <g style="stroke-width:1;stroke-linecap:square;stroke-linejoin:miter;stroke-miterlimit:10;stroke-dasharray:none;stroke-dashoffset:0" id="misc-8" transform="matrix(1.135266,-0.03980174,0.03980174,1.135266,-55.752669,-30.667505)" />
    <g style="stroke-width:1;stroke-linecap:square;stroke-linejoin:miter;stroke-miterlimit:10;stroke-dasharray:none;stroke-dashoffset:0" id="g4746" clip-path="url(#clip5-3)" transform="matrix(1.135266,-0.03980174,0.03980174,1.135266,-55.752669,-30.667505)">
      <g id="g4748" style="fill:none;stroke:#000000;stroke-width:2.5;stroke-linecap:round;stroke-linejoin:round;stroke-opacity:1">
        <path id="path4750" d="M 373.03,110.39 C 320.38,76.718 254.36,71.649 197.19,96.887 140.01,122.13 99.269,174.32 88.666,235.91" />
        <title id="title4752">Arc d</title>
        <desc id="desc4754">Arc d: CircularArc[A, C, D]</desc>
      </g>
    </g>
    <path style="fill:none;fill-rule:evenodd;stroke:#000000;stroke-width:1.94879482;stroke-linecap:butt;stroke-linejoin:miter;stroke-opacity:1;stroke-miterlimit:4;stroke-dasharray:5.84638447,5.84638447;stroke-dashoffset:0" d="M 261.6355,262.0453 55.641939,233.63239" id="path4930" />
    <g style="stroke-width:1;stroke-linecap:square;stroke-linejoin:miter;stroke-miterlimit:10;stroke-dasharray:none;stroke-dashoffset:0" id="use4932" clip-path="url(#clip4)" transform="matrix(-0.46213321,0.30922916,-0.55611919,-0.83110255,621.62943,83.788954)">
      <g style="fill:#000000;fill-opacity:1;fill-rule:evenodd;stroke:none" id="g4936">
        <path id="path4938" d="m 732,262.39 -24,-6 0,12" />
      </g>
    </g>
    <use x="0" y="0" xlink:href="#g6002" id="use6747" transform="translate(-143.2484,63.3371)" width="100%" height="100%" />
  </g>
</svg>