<?xml version='1.0' ?><svg xmlns:dc="http://purl.org/dc/elements/1.1/" xmlns:cc="http://creativecommons.org/ns#" xmlns:rdf="http://www.w3.org/1999/02/22-rdf-syntax-ns#" xmlns:svg="http://www.w3.org/2000/svg" xmlns="http://www.w3.org/2000/svg" id="svg2" version="1.1" width="318.43028" height="260.51061" viewBox="0.0 -10.0277107584 591.00659968 483.50769216" preserveAspectRatio="none">
  <metadata id="metadata76">
    <rdf:RDF>
      <cc:Work rdf:about="">
        <dc:format>image/svg+xml</dc:format>
        <dc:type rdf:resource="http://purl.org/dc/dcmitype/StillImage" />
      </cc:Work>
    </rdf:RDF>
  </metadata>
  <defs id="defs74">
    <clipPath id="clip1">
      <path d="M 0.0000 0.0000 L 0.0000 473.00 L 580.00 473.00 L 580.00 0.0000 z" id="path9" />
    </clipPath>
    <clipPath id="clip2">
      <path d="M 0.0000 0.0000 L 0.0000 473.00 L 580.00 473.00 L 580.00 0.0000 z" id="path18" />
    </clipPath>
    <clipPath id="clip3">
      <path d="M 0.0000 0.0000 L 0.0000 473.00 L 580.00 473.00 L 580.00 0.0000 z" id="path27" />
    </clipPath>
    <clipPath id="clip4">
      <path d="M 0.0000 0.0000 L 0.0000 473.00 L 580.00 473.00 L 580.00 0.0000 z" id="path36" />
    </clipPath>
  </defs>
  <title id="title4" />
  <g clip-path="url(#clip1)" id="g11" style="stroke-width:1;stroke-linecap:square;stroke-linejoin:miter;stroke-miterlimit:10;stroke-dasharray:none;stroke-dashoffset:0">
    <g id="g13" style="fill:none;stroke:#000000;stroke-width:2;stroke-linecap:butt;stroke-opacity:1">
      <path style="stroke-width:3.71200011;stroke-miterlimit:10;stroke-dasharray:none" d="m 122.81,3 0,470" id="path15" />
    </g>
  </g>
  <g transform="matrix(2,0,0,2,-122.80118,-14.507712)" clip-path="url(#clip2)" id="g20" style="stroke-width:1;stroke-linecap:square;stroke-linejoin:miter;stroke-miterlimit:10;stroke-dasharray:none;stroke-dashoffset:0">
    <g id="g22" style="fill:#000000;fill-opacity:1;fill-rule:evenodd;stroke:none">
      <path d="m 122.81,2 -4,16 8,0" id="path24" />
    </g>
  </g>
  <g clip-path="url(#clip3)" id="g29" style="stroke-width:3.71200011;stroke-linecap:square;stroke-linejoin:miter;stroke-miterlimit:10;stroke-dasharray:none;stroke-dashoffset:0">
    <g id="g31" style="fill:none;stroke:#000000;stroke-width:3.71200011;stroke-linecap:butt;stroke-opacity:1;stroke-miterlimit:10;stroke-dasharray:none">
      <path style="stroke-width:3.71200011;stroke-miterlimit:10;stroke-dasharray:none" d="m 0,244.62 577,0" id="path33" />
    </g>
  </g>
  <g transform="matrix(2,0,0,2,-564.99339,-245.12771)" clip-path="url(#clip4)" id="g38" style="stroke-width:1;stroke-linecap:square;stroke-linejoin:miter;stroke-miterlimit:10;stroke-dasharray:none;stroke-dashoffset:0">
    <g id="g40" style="fill:#000000;fill-opacity:1;fill-rule:evenodd;stroke:none">
      <path d="m 578,244.62 -16,-4 0,8" id="path42" />
    </g>
  </g>
  <g id="misc" style="stroke-width:1;stroke-linecap:square;stroke-linejoin:miter;stroke-miterlimit:10;stroke-dasharray:none;stroke-dashoffset:0" />
  <g id="layer0" style="stroke-width:1;stroke-linecap:square;stroke-linejoin:miter;stroke-miterlimit:10;stroke-dasharray:none;stroke-dashoffset:0">
    <clipPath id="clip5">
      <path d="m 0,0 0,473 580,0 0,-473 z" id="path47" />
    </clipPath>
    <g clip-path="url(#clip5)" id="g49">
      <g id="g51" style="fill:none;stroke:#9933ff;stroke-width:5.01120015;stroke-linecap:round;stroke-linejoin:round;stroke-opacity:1;stroke-miterlimit:10;stroke-dasharray:none">
        <path style="stroke-width:5.01120015;stroke-miterlimit:10;stroke-dasharray:none" d="m 0,252.1 4.5312,0.1 4.5313,0.11 4.5315,0.1 4.531,0.11 4.531,0.12 4.532,0.12 4.531,0.12 4.531,0.12 4.531,0.13 4.531,0.14 4.532,0.13 4.531,0.14 4.531,0.15 4.532,0.15 4.531,0.16 4.531,0.16 4.531,0.17 4.531,0.17 4.532,0.18 4.531,0.19 4.531,0.19 4.532,0.2 4.532,0.21 4.53,0.22 4.53,0.22 4.53,0.24 4.53,0.24 4.54,0.26 4.53,0.27 4.53,0.28 4.53,0.29 4.53,0.31 4.53,0.32 4.53,0.34 4.53,0.35 4.53,0.37 4.54,0.4 4.53,0.41 4.53,0.44 4.53,0.47 4.53,0.49 4.53,0.53 4.53,0.56 4.54,0.59 4.53,0.64 4.53,0.68 4.53,0.73 4.53,0.79 4.53,0.86 4.53,0.92 4.53,1.01 4.53,1.09 4.54,1.2 4.53,1.32 4.53,1.46 4.53,1.63 4.53,1.81 4.53,2.04 4.53,2.32 4.54,2.64 4.53,3.06 4.53,3.56 4.53,4.22 4.53,5.06 4.53,6.19 4.53,7.75 4.53,9.98 2.27,6.14 2.26,7.18 2.27,8.49 1.13,4.85 1.14,5.35 1.13,5.91 1.13,6.58 1.13,7.35 1.14,8.29 1.13,9.4 0.57,5.19 0.56,5.57 0.57,5.98 0.57,6.45 0.56,6.97 0.57,7.56 0.57,8.23 0.56,8.99 0.57,9.86 0.28,5.29 0.28,5.56 0.29,5.85 0.28,6.17 m 20.39,-492.02 0.28,7.1696 0.29,6.7776 0.28,6.4174 0.28,6.0854 0.29,5.778 0.28,5.493 0.28,5.23 0.29,4.984 0.56,9.298 0.57,8.501 0.57,7.801 0.56,7.185 0.57,6.639 0.57,6.152 0.56,5.718 0.57,5.328 0.56,4.977 1.14,9.026 1.13,7.98 1.13,7.1 1.14,6.35 1.13,5.73 2.26,9.9 2.27,8.26 2.27,7 2.26,6 4.53,9.77 4.53,7.61 4.53,6.09 4.54,4.99 4.53,4.15 4.53,3.53 4.53,3.01 4.53,2.62 4.53,2.29 4.53,2.03 4.54,1.79 4.53,1.61 4.53,1.45 4.53,1.31 4.53,1.2 4.53,1.08 4.53,1 4.53,0.92 4.53,0.85 4.54,0.78 4.53,0.73 4.53,0.68 4.53,0.63 4.53,0.6 4.53,0.55 4.53,0.53 4.54,0.49 4.53,0.46 4.53,0.44 4.53,0.41 4.53,0.39 4.53,0.38 4.53,0.35 4.53,0.34 4.53,0.32 4.54,0.3 4.53,0.29 4.53,0.28 4.53,0.27 4.53,0.25 4.53,0.25 4.53,0.23 4.54,0.23 4.53,0.21 4.53,0.21 4.53,0.2 4.53,0.2" id="path53" />
        <title id="title55">Function f</title>
        <desc id="desc57">Function f: f(x) = a(x) / b3(x)</desc>
      </g>
    </g>
    <clipPath id="clip6">
      <path d="m 0,0 0,473 580,0 0,-473 z" id="path60" />
    </clipPath>
    <g clip-path="url(#clip6)" id="g62">
      <g id="g64" style="fill:none;stroke:#000000;stroke-width:2.96960009;stroke-linecap:butt;stroke-linejoin:round;stroke-dasharray:18.80746723,15.83786714;stroke-opacity:1;stroke-miterlimit:10;stroke-dashoffset:0">
        <path style="stroke-width:2.96960009;stroke-miterlimit:10;stroke-dasharray:18.80746723,15.83786714;stroke-dashoffset:0" d="m 335.14,478 0,-483" id="path66" />
        <title id="title68">Line b</title>
        <desc id="desc70">b: x = 6</desc>
      </g>
    </g>
  </g>
  <circle r="8.642972" cy="255.11124" cx="84.136696" id="path4169" style="fill:#ffffff;stroke:#9933ff;stroke-width:3.39833617;stroke-linejoin:miter;stroke-miterlimit:10;stroke-dasharray:none;stroke-dashoffset:0;fill-opacity:1.0;stroke-opacity:1.0" />
</svg>