<?xml version='1.0' ?><svg xmlns:dc="http://purl.org/dc/elements/1.1/" xmlns:cc="http://creativecommons.org/ns#" xmlns:rdf="http://www.w3.org/1999/02/22-rdf-syntax-ns#" xmlns:svg="http://www.w3.org/2000/svg" xmlns="http://www.w3.org/2000/svg" id="svg2" version="1.1" width="317.28704" height="259.06597" viewBox="0.0 -7.346446854400001 588.88474624 480.82644032" preserveAspectRatio="none">
  <metadata id="metadata63">
    <rdf:RDF>
      <cc:Work rdf:about="">
        <dc:format>image/svg+xml</dc:format>
        <dc:type rdf:resource="http://purl.org/dc/dcmitype/StillImage" />
      </cc:Work>
    </rdf:RDF>
  </metadata>
  <defs id="defs61" />
  <title id="title4" />
  <g id="g6" stroke-linecap="square" stroke-miterlimit="10.000" stroke-width="1.0000" stroke-dasharray="none" stroke-dashoffset="0.0000" stroke-linejoin="miter">
    <clipPath id="clip1">
      <path id="path9" d="M 0.0000 0.0000 L 0.0000 473.00 L 580.00 473.00 L 580.00 0.0000 z" />
    </clipPath>
    <g style="stroke-width:3.71200011;stroke-miterlimit:10;stroke-dasharray:none" id="g11" clip-path="url(#clip1)">
      <g style="stroke-width:3.71200011;stroke-miterlimit:10;stroke-dasharray:none" id="g13" stroke="#000000" stroke-opacity="1.0000" fill="none" stroke-linecap="butt" stroke-width="2.0000">
        <path style="stroke-width:3.71200011;stroke-miterlimit:10;stroke-dasharray:none" id="path15" d="M 225.68 3.0000 L 225.68 473.00" />
      </g>
    </g>
    <clipPath id="clip2">
      <path id="path18" d="M 0.0000 0.0000 L 0.0000 473.00 L 580.00 473.00 L 580.00 0.0000 z" />
    </clipPath>
    <g transform="matrix(2,0,0,2,-225.38413,-11.826448)" id="g20" clip-path="url(#clip2)">
      <g style="fill:#000000;fill-opacity:1;fill-rule:evenodd;stroke:none" id="g22">
        <path id="path24" d="m 225.68,2 -4,16 8,0" />
      </g>
    </g>
    <clipPath id="clip3">
      <path id="path27" d="M 0.0000 0.0000 L 0.0000 473.00 L 580.00 473.00 L 580.00 0.0000 z" />
    </clipPath>
    <g id="g29" clip-path="url(#clip3)">
      <g style="stroke-width:3.71200011;stroke-miterlimit:10;stroke-dasharray:none" id="g31" stroke="#000000" stroke-opacity="1.0000" fill="none" stroke-linecap="butt" stroke-width="2.0000">
        <path style="stroke-width:3.71200011;stroke-miterlimit:10;stroke-dasharray:none" id="path33" d="M 0.0000 338.18 L 577.00 338.18" />
      </g>
    </g>
    <clipPath id="clip4">
      <path id="path36" d="M 0.0000 0.0000 L 0.0000 473.00 L 580.00 473.00 L 580.00 0.0000 z" />
    </clipPath>
    <g transform="matrix(2,0,0,2,-567.11523,-338.29948)" id="g38" clip-path="url(#clip4)">
      <g style="fill:#000000;fill-opacity:1;fill-rule:evenodd;stroke:none" id="g40">
        <path id="path42" d="m 578,338.18 -16,-4 0,8" />
      </g>
    </g>
    <g id="misc" />
    <g id="layer0">
      <clipPath id="clip5">
        <path id="path47" d="M 0.0000 0.0000 L 0.0000 473.00 L 580.00 473.00 L 580.00 0.0000 z" />
      </clipPath>
      <g id="g49" clip-path="url(#clip5)">
        <g style="stroke-width:5.01120015;stroke-miterlimit:10;stroke-dasharray:none" id="g51" stroke="#9933ff" stroke-opacity="1.0000" fill="none" stroke-linecap="round" stroke-width="2.5000" stroke-linejoin="round">
          <path style="stroke-width:5.01120015;stroke-miterlimit:10;stroke-dasharray:none" id="path53" d="M 0.0000 346.81 L 4.5312 346.85 L 9.0625 346.90 L 13.594 346.94 L 18.125 346.98 L 22.656 347.02 L 27.188 347.06 L 31.719 347.10 L 36.250 347.13 L 40.781 347.16 L 45.312 347.19 L 49.844 347.21 L 54.375 347.23 L 58.906 347.25 L 63.438 347.26 L 67.969 347.26 L 72.500 347.26 L 77.031 347.25 L 81.562 347.24 L 86.094 347.22 L 90.625 347.18 L 95.156 347.14 L 99.688 347.08 L 104.22 347.01 L 108.75 346.93 L 113.28 346.83 L 117.81 346.71 L 122.34 346.57 L 126.88 346.41 L 131.41 346.22 L 135.94 346.00 L 140.47 345.75 L 145.00 345.46 L 149.53 345.12 L 154.06 344.74 L 158.59 344.30 L 163.12 343.80 L 167.66 343.23 L 172.19 342.57 L 176.72 341.82 L 181.25 340.97 L 185.78 339.99 L 190.31 338.87 L 194.84 337.58 L 199.38 336.10 L 203.91 334.40 L 208.44 332.44 L 212.97 330.18 L 217.50 327.57 L 222.03 324.54 L 226.56 321.02 L 231.09 316.92 L 235.62 312.15 L 240.16 306.58 L 244.69 300.06 L 249.22 292.44 L 253.75 283.53 L 256.02 278.53 L 258.28 273.12 L 260.55 267.30 L 262.81 261.02 L 265.08 254.26 L 267.34 247.01 L 269.61 239.24 L 271.88 230.94 L 274.14 222.12 L 276.41 212.77 L 278.67 202.92 L 279.80 197.82 L 280.94 192.61 L 282.07 187.29 L 283.20 181.88 L 284.34 176.39 L 285.47 170.82 L 286.60 165.20 L 287.73 159.54 L 288.87 153.84 L 290.00 148.15 L 291.13 142.46 L 292.27 136.81 L 293.40 131.21 L 294.53 125.69 L 295.66 120.27 L 296.80 114.98 L 297.93 109.85 L 299.06 104.90 L 301.33 95.635 L 303.59 87.386 L 305.86 80.325 L 308.12 74.595 L 310.39 70.298 L 311.52 68.705 L 312.66 67.487 L 313.22 67.018 L 313.79 66.643 L 314.36 66.361 L 314.92 66.170 L 315.49 66.071 L 316.05 66.061 L 316.62 66.140 L 317.19 66.307 L 317.75 66.560 L 318.32 66.897 L 319.45 67.816 L 320.59 69.050 L 321.72 70.582 L 326.25 79.305 L 328.52 84.946 L 330.78 91.226 L 333.05 97.994 L 335.31 105.11 L 337.58 112.45 L 339.84 119.91 L 342.11 127.40 L 344.38 134.83 L 346.64 142.16 L 348.91 149.33 L 351.17 156.31 L 353.44 163.07 L 355.70 169.59 L 357.97 175.86 L 360.23 181.88 L 362.50 187.64 L 364.77 193.14 L 367.03 198.40 L 371.56 208.18 L 376.09 217.06 L 380.62 225.10 L 385.16 232.39 L 389.69 238.99 L 394.22 244.98 L 398.75 250.42 L 403.28 255.38 L 407.81 259.90 L 412.34 264.03 L 416.88 267.81 L 421.41 271.29 L 425.94 274.49 L 430.47 277.43 L 435.00 280.15 L 439.53 282.67 L 444.06 285.01 L 448.59 287.18 L 453.12 289.21 L 457.66 291.09 L 462.19 292.85 L 466.72 294.50 L 471.25 296.05 L 475.78 297.50 L 480.31 298.86 L 484.84 300.15 L 489.38 301.36 L 493.91 302.50 L 498.44 303.58 L 502.97 304.61 L 507.50 305.58 L 512.03 306.49 L 516.56 307.37 L 521.09 308.20 L 525.62 308.99 L 530.16 309.74 L 534.69 310.46 L 539.22 311.14 L 543.75 311.80 L 548.28 312.42 L 552.81 313.02 L 557.34 313.60 L 561.88 314.15 L 566.41 314.67 L 570.94 315.18 L 575.47 315.66 L 580.00 316.13" />
          <title id="title55">Function f</title>
          <desc id="desc57">Function f: f(x) = a(x) / b2(x)</desc>
        </g>
      </g>
    </g>
  </g>
</svg>