<?xml version='1.0' ?><svg xmlns:dc="http://purl.org/dc/elements/1.1/" xmlns:cc="http://creativecommons.org/ns#" xmlns:rdf="http://www.w3.org/1999/02/22-rdf-syntax-ns#" xmlns:svg="http://www.w3.org/2000/svg" xmlns="http://www.w3.org/2000/svg" id="svg2" version="1.1" width="440.37931" height="360.38739" viewBox="2.4414062532577044e-5 184.69004100293262 352.3034499131331 288.3099135656254" preserveAspectRatio="none">
  <metadata id="metadata76">
    <rdf:RDF>
      <cc:Work rdf:about="">
        <dc:format>image/svg+xml</dc:format>
        <dc:type rdf:resource="http://purl.org/dc/dcmitype/StillImage" />
        <dc:title />
      </cc:Work>
    </rdf:RDF>
  </metadata>
  <defs id="defs74" />
  <g transform="matrix(0.5931035,0,0,0.5931035,0,192.46204)" style="stroke-width:1;stroke-linecap:square;stroke-linejoin:miter;stroke-miterlimit:10;stroke-dasharray:none;stroke-dashoffset:0" id="g6" stroke-miterlimit="10.000">
    <clipPath id="clip1">
      <path id="path9" d="m 0,0 0,473 580,0 0,-473 z" />
    </clipPath>
    <g id="g11" clip-path="url(#clip1)">
      <g style="fill:none;stroke:#000000;stroke-width:3.37209272;stroke-linecap:butt;stroke-opacity:1" id="g13">
        <path style="stroke-width:3.37209272" id="path15" d="m 202.82,3 0,470" />
      </g>
    </g>
    <clipPath id="clip2">
      <path id="path18" d="m 0,0 0,473 580,0 0,-473 z" />
    </clipPath>
    <g transform="matrix(2,0,0,2,-203.30978,-17.103922)" id="g20" clip-path="url(#clip2)">
      <g style="fill:#000000;fill-opacity:1;fill-rule:evenodd;stroke:none" id="g22">
        <path id="path24" d="m 202.82,2 -4,16 8,0" />
      </g>
    </g>
    <clipPath id="clip3">
      <path id="path27" d="m 0,0 0,473 580,0 0,-473 z" />
    </clipPath>
    <g id="g29" clip-path="url(#clip3)">
      <g style="fill:none;stroke:#000000;stroke-width:3.37209272;stroke-linecap:butt;stroke-opacity:1" id="g31">
        <path style="stroke-width:3.37209272" id="path33" d="m 0,204.58 577,0" />
      </g>
    </g>
    <clipPath id="clip4">
      <path id="path36" d="m 0,0 0,473 580,0 0,-473 z" />
    </clipPath>
    <g transform="matrix(2,0,0,2,-562,-204.68753)" id="g38" clip-path="url(#clip4)">
      <g style="fill:#000000;fill-opacity:1;fill-rule:evenodd;stroke:none" id="g40">
        <path id="path42" d="m 578,204.58 -16,-4 0,8" />
      </g>
    </g>
    <g id="misc" />
    <g id="layer0">
      <clipPath id="clip5">
        <path id="path47" d="m 0,0 0,473 580,0 0,-473 z" />
      </clipPath>
      <g id="g49" clip-path="url(#clip5)">
        <g style="fill:none;stroke:#9933ff;stroke-width:4.21511602;stroke-linecap:round;stroke-linejoin:round;stroke-opacity:1" id="g51">
          <path style="stroke-width:4.21511602" id="path53" d="m 0,219.97 4.5312,0.29 4.5313,0.3 4.5315,0.31 4.531,0.33 4.531,0.33 4.532,0.35 4.531,0.37 4.531,0.38 4.531,0.4 4.531,0.41 4.532,0.44 4.531,0.45 4.531,0.48 4.532,0.5 4.531,0.53 4.531,0.55 4.531,0.59 4.531,0.61 4.532,0.65 4.531,0.69 4.531,0.73 4.532,0.77 4.532,0.83 4.53,0.88 4.53,0.93 4.53,1.01 4.53,1.08 4.54,1.16 4.53,1.25 4.53,1.35 4.53,1.47 4.53,1.6 4.53,1.75 4.53,1.92 4.53,2.12 4.53,2.36 4.54,2.62 4.53,2.94 4.53,3.33 4.53,3.79 4.53,4.35 4.53,5.06 4.53,5.95 4.54,7.1 4.53,8.61 2.26,5.04 2.27,5.64 2.26,6.35 2.27,7.21 2.26,8.27 2.27,9.56 1.13,5.37 1.14,5.82 1.13,6.34 1.13,6.94 1.13,7.61 1.14,8.39 1.13,9.3 0.57,5.04 0.56,5.32 0.57,5.64 0.57,5.99 0.56,6.35 0.57,6.77 0.56,7.22 0.57,7.72 0.57,8.27 0.56,8.88 0.57,9.57 0.28,5.06 0.29,5.27 0.28,5.49 m 31.44,-489.38 0.56,6.7296 0.57,6.3222 0.56,5.9508 0.57,5.6114 0.57,5.3 0.56,5.013 1.14,9.257 1.13,8.355 1.13,7.579 1.14,6.905 1.13,6.318 1.13,5.803 1.13,5.349 1.14,4.945 2.26,8.849 2.27,7.69 2.26,6.743 2.27,5.96 2.26,5.31 2.27,4.76 4.53,8.18 4.53,6.76 4.53,5.7 4.53,4.86 4.54,4.2 4.53,3.66 4.53,3.22 4.53,2.85 4.53,2.55 4.53,2.28 4.53,2.07 4.54,1.88 4.53,1.71 4.53,1.56 4.53,1.44 4.53,1.32 4.53,1.23 4.53,1.14 4.53,1.05 4.53,0.99 4.54,0.92 4.53,0.87 4.53,0.81 4.53,0.76 4.53,0.72 4.53,0.68 4.53,0.64 4.54,0.61 4.53,0.57 4.53,0.55 4.53,0.52 4.53,0.49 4.53,0.47 4.53,0.45 4.53,0.43 4.53,0.41 4.54,0.4 4.53,0.37 4.53,0.37 4.53,0.34 4.53,0.33 4.53,0.32 4.53,0.31 4.54,0.3 4.53,0.28 4.53,0.28 4.53,0.27 4.53,0.25 4.53,0.25 4.53,0.24 4.53,0.23 4.53,0.22 4.54,0.22 4.53,0.21 4.53,0.2 4.53,0.2 4.53,0.19 4.53,0.19 4.53,0.18 4.54,0.17 4.53,0.17 4.53,0.17 4.53,0.16 4.53,0.16" />
          <title id="title55">Function f</title>
          <desc id="desc57">Function f: f(x) = 1 / b1(x)</desc>
        </g>
      </g>
      <clipPath id="clip6">
        <path id="path60" d="m 0,0 0,473 580,0 0,-473 z" />
      </clipPath>
      <g id="g62" clip-path="url(#clip6)">
        <g style="fill:none;stroke:#000000;stroke-width:1.68604636;stroke-linecap:butt;stroke-linejoin:round;stroke-dasharray:15.17441716, 13.48837081;stroke-opacity:1" id="g64">
          <path style="stroke-width:1.68604636" id="path66" d="m 246.36,478 0,-483" />
          <title id="title68">Line g</title>
          <desc id="desc70">g: x = 0.5</desc>
        </g>
      </g>
    </g>
  </g>
</svg>