<?xml version='1.0' ?><svg xmlns:dc="http://purl.org/dc/elements/1.1/" xmlns:cc="http://creativecommons.org/ns#" xmlns:rdf="http://www.w3.org/1999/02/22-rdf-syntax-ns#" xmlns:svg="http://www.w3.org/2000/svg" xmlns="http://www.w3.org/2000/svg" id="svg2" version="1.1" width="320.37209" height="187.97036" viewBox="216.87694 77.514919 320.37209 187.97036" preserveAspectRatio="none">
  <defs id="defs4">
    <marker style="overflow:visible" id="Arrow1Mstart" refX="0" refY="0" orient="auto">
      <path transform="matrix(0.4,0,0,0.4,4,0)" style="fill-rule:evenodd;stroke:#000000;stroke-width:1pt" d="M 0,0 5,-5 -12.5,0 5,5 0,0 z" id="path3899" />
    </marker>
    <marker style="overflow:visible" id="Arrow1Mend" refX="0" refY="0" orient="auto">
      <path transform="matrix(-0.4,0,0,-0.4,-4,0)" style="fill-rule:evenodd;stroke:#000000;stroke-width:1pt" d="M 0,0 5,-5 -12.5,0 5,5 0,0 z" id="path3902" />
    </marker>
  </defs>
  <metadata id="metadata7">
    <rdf:RDF>
      <cc:Work rdf:about="">
        <dc:format>image/svg+xml</dc:format>
        <dc:type rdf:resource="http://purl.org/dc/dcmitype/StillImage" />
        <dc:title />
      </cc:Work>
    </rdf:RDF>
  </metadata>
  <g transform="translate(184.71578,221.43775)" id="layer1">
    <g transform="matrix(0.2906649,0,0,0.2906649,81.782246,-193.40374)" id="g3727">
      <path style="fill:none;stroke:#000000;stroke-width:8;stroke-linecap:butt;stroke-linejoin:miter;stroke-miterlimit:4;stroke-opacity:1;stroke-dasharray:none;marker-start:url(#Arrow1Mstart);marker-end:none" d="m -116.16754,185.51363 0,631.41085" id="path3117" />
      <path style="fill:none;stroke:#000000;stroke-width:8;stroke-linecap:butt;stroke-linejoin:miter;stroke-miterlimit:4;stroke-opacity:1;stroke-dasharray:none;marker-end:url(#Arrow1Mend)" d="m -170.71578,767.08075 1086.92414,0" id="path3119" />
      <path id="path5083" title="(x**4)/16-x**3+4x**2+x" d="" style="fill:none;stroke:#000000;stroke-width:8;stroke-linecap:butt;stroke-linejoin:miter;stroke-miterlimit:4;stroke-opacity:1;stroke-dasharray:none;stroke-dashoffset:0" />
      <path style="fill:none;stroke:#000000;stroke-width:8;stroke-linecap:butt;stroke-linejoin:miter;stroke-miterlimit:4;stroke-opacity:1;stroke-dasharray:none;stroke-dashoffset:0" d="" title="(x**4)/16-x**3+4x**2+x" id="path5109" />
      <path id="path5973" title="(sin(x))**2" d="m -117.80399,766.10516 c 3.41221,-0.002 6.82441,-1.89863 10.23662,-5.65186 3.41221,-3.75323 6.82441,-9.37 10.23662,-16.72569 3.412207,-7.35569 6.824414,-16.46026 10.236621,-27.11923 3.412206,-10.65897 6.824413,-22.88102 10.23662,-36.40974 3.412207,-13.52871 6.824413,-28.37113 10.23662,-44.21933 3.412207,-15.84819 6.824413,-32.70728 10.23662,-50.23036 3.412207,-17.52308 6.824414,-35.71312 10.23662,-54.19835 3.412207,-18.48523 6.824414,-37.26638 10.236621,-55.9619 3.412206,-18.69553 6.824413,-37.30388 10.23662,-55.44928 3.412207,-18.14541 6.824413,-35.8241 10.23662,-52.68134 3.412207,-16.85725 6.8244135,-32.88722 10.2366202,-47.77067 3.4122068,-14.88344 6.8244135,-28.6127 10.2366202,-40.91698 3.4122068,-12.30428 6.8244136,-23.17441 10.2366206,-32.39907 3.412206,-9.22466 6.824413,-16.79353 10.23662,-22.56337 3.412207,-5.76983 6.824413,-9.72959 10.23662,-11.80993 3.412207,-2.08033 6.824413,-2.26992 10.23662,-0.57614 3.412207,1.69378 6.824414,5.28207 10.23662,10.68108 3.412207,5.39901 6.824414,12.61922 10.236621,21.50386 3.412206,8.88463 6.824413,19.44311 10.23662,31.452 3.412207,12.0089 6.824413,25.47618 10.23662,40.12089 3.412207,14.64471 6.824414,30.47304 10.23662,47.15791 3.412206,16.68487 6.824416,34.23045 10.236616,52.27685 3.41221,18.04639 6.82442,36.59559 10.23662,55.2695 3.41221,18.67392 6.82442,37.47226 10.23662,56.01416 3.41221,18.5419 6.82442,36.82479 10.23663,54.48051 3.4122,17.65572 6.82441,34.67954 10.23662,50.73095 3.4122,16.05142 6.82441,31.12374 10.23662,44.91799 3.4122,13.79424 6.82441,26.30203 10.23662,37.27804 3.4122,10.97601 6.82441,20.41052 10.23662,28.12187 3.4122,7.71135 6.82441,13.68885 10.23662,17.82188 3.4122,4.13304 6.82441,6.4104 10.23662,6.79702 3.4122,0.38662 6.82441,-1.12879 10.23662,-4.50431 3.4122,-3.37553 6.82441,-8.62206 10.23662,-15.62243 3.4122,-7.00037 6.82441,-15.76464 10.23662,-26.10513 3.4122,-10.34049 6.82441,-22.26602 10.23662,-35.52604 3.4122,-13.26003 6.82441,-27.86176 10.23662,-43.50199 3.4122,-15.64022 6.82441,-32.32426 10.23662,-49.70854 3.4122,-17.38429 6.82441,-35.47203 10.23662,-53.89329 3.4122,-18.42126 6.82441,-37.17701 10.23662,-55.88599 3.4122,-18.70898 6.82441,-37.36988 10.23662,-55.60562 3.4122,-18.23574 6.82441,-36.04278 10.23662,-53.06356 3.41221,-17.02079 6.82441,-33.2497 10.23662,-48.36323 3.41221,-15.11354 6.82441,-29.10423 10.23662,-41.6958 3.41221,-12.59156 6.82441,-23.77498 10.23662,-33.33243 3.41221,-9.55746 6.82441,-17.47873 10.23662,-23.61334 3.41221,-6.1346 6.82441,-10.47155 10.23662,-12.93379 3.41221,-2.46223 6.82441,-3.03846 10.23662,-1.72818 3.41221,1.31027 6.82441,4.51821 10.23662,9.54771 3.41221,5.02949 6.82441,11.89112 10.23662,20.43527 3.41221,8.54414 6.82441,18.78036 10.23662,30.49164 3.41221,11.71128 6.82441,24.90576 10.23662,39.30783 3.41221,14.40207 6.82441,30.01814 10.23662,46.52522 3.41221,16.50708 6.82441,33.90957 10.23662,51.85026 3.41221,17.94069 6.82441,36.42179 10.23662,55.06637 3.41221,18.64459 6.82441,37.4526 10.23662,56.04274 3.41221,18.59014 6.82441,36.96008 10.23662,54.73965 3.41221,17.77956 6.82441,34.96426 10.23662,51.2101 3.41221,16.24583 6.82441,31.54632 10.23662,45.59765 3.41221,14.05133 6.82442,26.84529 10.23662,38.13059 3.41221,11.28531 6.82442,21.05236 10.23662,29.11263 3.41221,8.06027 6.82442,14.40315 10.23662,18.91054 3.41221,4.50739 6.82442,7.16812 10.23662,7.9393 3.41221,0.77118 6.82442,-0.35847 10.23662,-3.35486 3.41221,-2.99639 6.82442,-7.87047 10.23662,-14.51257 3.41221,-6.64209 6.82442,-15.06236 10.23662,-25.07999 3.41221,-10.01764 6.82442,-21.64161 10.23662,-34.62733 3.41221,-12.98573 6.82442,-27.34061 10.23662,-42.76626 3.41221,-15.42564 6.82442,-31.92757 10.23662,-49.16571 3.41221,-17.23815 6.82442,-35.21593 10.23662,-53.56544 3.41221,-18.34951 6.82442,-37.07193 10.23662,-55.78646 3.41221,-18.71454 6.82442,-37.42009 10.23662,-55.73846 3.41221,-18.31837 6.82442,-36.24623 10.23662,-53.42336 3.41221,-17.17713 6.82442,-33.59811 10.23662,-48.93536 3.41221,-15.33724 6.82442,-29.58344 10.23662,-42.45697 3.41221,-12.87353 6.82442,-24.36551 10.23663,-34.25172 3.4122,-9.88621 6.82441,-18.15654 10.23662,-24.65332 3.4122,-6.49678 6.82441,-11.20908 10.23662,-14.05218 3.4122,-2.84311 6.82441,-3.80572 10.23662,-2.8795 3.4122,0.92621 6.82441,3.75245 10.23662,8.41031 3.4122,4.65785 6.82441,11.15798 10.23662,19.35803 3.4122,8.20005 6.82441,18.10969 10.23662,29.51841 3.4122,11.40871 6.82441,24.3248 10.23662,38.47815 3.4122,14.15336 6.82441,29.55055 10.23662,45.87287 3.4122,16.32232 6.82441,33.57436 10.23662,51.40176 3.4122,17.8274 6.82441,36.23259 10.23662,54.83996 3.4122,18.60738 6.82441,37.41711 10.23662,56.04763 3.4122,18.63053 6.82441,37.07974 10.23662,54.97565 3.4122,17.8959 6.82441,35.2342 10.23662,51.6676 3.4122,16.43339 6.82441,31.95557 10.23662,46.25805 3.4122,14.30248 6.82441,27.3772 10.23662,38.96703 3.4122,11.58983 6.82441,21.68528 10.23662,30.09107 3.41221,8.40578 6.82441,15.11136 10.23662,19.99121 3.41221,4.87984 6.82441,7.9228 10.23662,9.07823 3.41221,1.15542 6.82441,0.412 10.23662,-2.20399 3.41221,-2.616 6.82441,-7.11557 10.23662,-13.39657 3.41221,-6.28101 6.82441,-14.35371 10.23662,-24.04426 3.41221,-9.69055 6.82441,-21.00805 10.23662,-33.71399 3.41221,-12.70594 6.82441,-26.8079 10.23662,-42.01244 3.41221,-15.20455 6.82441,-31.5174 10.23662,-48.60211" style="fill:none;stroke:#000000;stroke-width:8;stroke-linecap:butt;stroke-linejoin:miter;stroke-miterlimit:4;stroke-opacity:1;stroke-dasharray:none;stroke-dashoffset:0" />
    </g>
    <path id="path4152" d="M 251.75251,-27.207385 75.11405,-74.872326" style="fill:none;stroke:#000000;stroke-width:0.89499998;stroke-linecap:butt;stroke-linejoin:miter;stroke-miterlimit:4;stroke-dasharray:none;stroke-opacity:1" />
    <path transform="translate(-184.71578,-221.43775)" id="path4244" d="m 442.02335,168.81452 c 0.10006,-0.34375 0.59982,-2.95536 1.11058,-5.80358 7.74915,-43.21247 13.45821,-65.24076 18.41606,-71.057934 l 1.05384,-1.236509 0,39.361503 0,39.36152 -10.38121,0 c -9.71808,0 -10.36958,-0.0399 -10.19927,-0.625 z" style="fill:#fdae61;stroke:#fdae61;stroke-width:0;stroke-miterlimit:4;stroke-dasharray:none;stroke-dashoffset:0;fill-opacity:0.0;stroke-opacity:0.0" />
    <path transform="translate(-184.71578,-221.43775)" id="path4246" d="m 442.02335,168.81452 c 0.10006,-0.34375 0.59982,-2.95536 1.11058,-5.80358 7.74915,-43.21247 13.45821,-65.24076 18.41606,-71.057934 l 1.05384,-1.236509 0,39.361503 0,39.36152 -10.38121,0 c -9.71808,0 -10.36958,-0.0399 -10.19927,-0.625 z" style="fill:#fdae61;stroke:#fdae61;stroke-width:0;stroke-miterlimit:4;stroke-dasharray:none;stroke-dashoffset:0;fill-opacity:0.0;stroke-opacity:0.0" />
    <path transform="translate(-184.71578,-221.43775)" id="path4537" d="m 278.99934,151.09609 c -9.69545,-2.628 -17.68045,-4.83055 -17.74445,-4.89455 -0.0993,-0.0993 2.88351,-14.96167 4.62185,-23.02885 2.24766,-10.43083 5.76399,-22.19005 8.12179,-27.160732 1.46321,-3.084725 3.44366,-5.449771 4.56354,-5.449771 0.36345,0 1.26386,0.667495 2.00091,1.483323 3.95705,4.379977 8.23182,18.80717 13.74056,46.37382 3.35799,16.80389 3.47123,17.50802 2.81087,17.47747 -0.26784,-0.0124 -8.41962,-2.17271 -18.11507,-4.80071 l 0,0 z" style="fill:#fdae61;fill-opacity:0.35111111;stroke:#fdae61;stroke-width:0.00250000000000000;stroke-linecap:square;stroke-miterlimit:4;stroke-opacity:1;stroke-dasharray:none;stroke-dashoffset:0" />
    <path transform="translate(-184.71578,-221.43775)" id="path4539" d="m 371.98458,176.2016 c -12.375,-3.35112 -22.54673,-6.13137 -22.60383,-6.17834 -0.10276,-0.0845 2.72211,-15.43738 5.12503,-27.85393 3.28216,-16.95985 6.99112,-32.48549 9.50106,-39.77129 2.49125,-7.231539 5.24962,-11.835853 7.09066,-11.835853 1.79854,0 4.95288,5.435255 7.27504,12.535653 2.67134,8.16806 6.34413,23.79272 9.6584,41.08838 1.75862,9.17743 6.98935,37.5675 6.98935,37.93507 0,0.33416 1.14701,0.62892 -23.03571,-5.91969 z" style="fill:#fdae61;fill-opacity:0.35111111;stroke:#fdae61;stroke-width:0.00250000000000000;stroke-linecap:square;stroke-miterlimit:4;stroke-opacity:1;stroke-dasharray:none;stroke-dashoffset:0" />
    <path transform="translate(-184.71578,-221.43775)" id="path5073" d="m 323.35823,248.41728 c -4.21075,-3.69709 -8.82097,-18.92453 -14.6507,-48.39081 -2.72382,-13.76753 -7.77863,-41.31337 -7.61183,-41.48017 0.15599,-0.15599 44.85336,11.86133 45.12408,12.13204 0.41396,0.41396 -6.87009,37.87403 -9.66511,49.70528 -4.12557,17.46341 -7.76496,26.92663 -11.00213,28.60796 -0.90573,0.47042 -1.04634,0.43362 -2.19431,-0.5743 z" style="fill:#2b83ba;fill-opacity:0.35111111;stroke:#2b83ba;stroke-width:0.00250000000000000;stroke-linecap:square;stroke-miterlimit:4;stroke-opacity:1;stroke-dasharray:none;stroke-dashoffset:0" />
    <path transform="translate(-184.71578,-221.43775)" id="path5075" d="m 415.86447,248.42275 c -3.35978,-2.94992 -7.17171,-13.92753 -11.28668,-32.50342 -2.52731,-11.40886 -6.25333,-30.67321 -5.98464,-30.94191 0.24045,-0.24045 35.22006,9.04224 35.68451,9.46975 0.30642,0.28205 -2.90056,16.28668 -5.23288,26.11502 -2.87341,12.10854 -4.90299,18.63251 -7.37037,23.69177 -1.12832,2.31357 -3.49984,5.2368 -4.24844,5.2368 -0.18981,0 -0.89249,-0.4806 -1.5615,-1.06801 z" style="fill:#2b83ba;fill-opacity:0.35111111;stroke:#2b83ba;stroke-width:0.00250000000000000;stroke-linecap:square;stroke-miterlimit:4;stroke-opacity:1;stroke-dasharray:none;stroke-dashoffset:0" />
    <path transform="translate(-184.71578,-221.43775)" id="path5096" d="m 323.15021,247.77208 c -4.62272,-4.85949 -9.44002,-22.29547 -16.59561,-60.06704 -2.63409,-13.90432 -5.2563,-28.64705 -5.11962,-28.78373 0.24742,-0.24742 43.83228,11.54121 44.30243,11.98272 0.36778,0.34537 -0.93125,8.02209 -3.89309,23.00639 -5.78661,29.27524 -9.15977,42.45021 -12.81307,50.04575 -1.1892,2.47245 -3.39825,5.17745 -4.22819,5.17745 -0.19671,0 -0.94049,-0.61269 -1.65285,-1.36154 l 0,0 z" style="fill:#2b83ba;stroke:#2b83ba;stroke-width:0.00250000000000000;stroke-linecap:square;stroke-miterlimit:4;stroke-dasharray:none;stroke-dashoffset:0;fill-opacity:0.0;stroke-opacity:0.0" />
    <path transform="translate(-184.71578,-221.43775)" id="path5098" d="m 415.90315,248.09957 c -3.9486,-3.46692 -8.52022,-18.64787 -14.15415,-47.00167 -1.36607,-6.875 -2.5911,-13.27804 -2.72229,-14.22899 -0.21542,-1.56149 -0.17538,-1.71094 0.41324,-1.54262 0.35847,0.1025 3.54463,0.91173 7.08034,1.79829 6.09333,1.52786 21.20926,5.57823 25.60713,6.86153 1.88949,0.55135 2.02429,0.66135 1.87671,1.53148 -1.23082,7.25678 -4.54211,22.68362 -6.64056,30.93745 -2.78868,10.96867 -5.73944,18.53379 -8.32336,21.33929 -0.67843,0.73661 -1.39682,1.33929 -1.59643,1.33929 -0.19961,0 -0.89289,-0.46532 -1.54063,-1.03405 l 0,0 z" style="fill:#2b83ba;stroke:#2b83ba;stroke-width:0.00250000000000000;stroke-linecap:square;stroke-miterlimit:4;stroke-dasharray:none;stroke-dashoffset:0;fill-opacity:0.0;stroke-opacity:0.0" />
    <path transform="translate(-184.71578,-221.43775)" id="path5100" d="m 261.34172,198.55969 c 0,-40.58721 0.0907,-50.90043 0.44643,-50.78022 0.24553,0.083 8.49608,2.30998 18.33455,4.94893 l 17.88812,4.79807 0.78277,4.28572 c 7.81307,42.77671 10.58969,56.28638 14.36944,69.91479 2.27686,8.20952 4.2654,13.30118 6.56609,16.81247 l 0.62332,0.95131 -29.50536,0 -29.50536,0 0,-50.93107 z" style="fill:#2b83ba;stroke:#2b83ba;stroke-width:0.0025;stroke-linecap:square;stroke-miterlimit:4;stroke-dasharray:none;stroke-dashoffset:0;fill-opacity:0.0;stroke-opacity:0.0" />
    <path transform="translate(-184.71578,-221.43775)" id="path5102" d="m 261.34172,198.55969 c 0,-40.58721 0.0907,-50.90043 0.44643,-50.78022 0.24553,0.083 8.49608,2.30998 18.33455,4.94893 l 17.88812,4.79807 0.78277,4.28572 c 7.81307,42.77671 10.58969,56.28638 14.36944,69.91479 2.27686,8.20952 4.2654,13.30118 6.56609,16.81247 l 0.62332,0.95131 -29.50536,0 -29.50536,0 0,-50.93107 z" style="fill:#2b83ba;stroke:#2b83ba;stroke-width:0.0025;stroke-linecap:square;stroke-miterlimit:4;stroke-dasharray:none;stroke-dashoffset:0;fill-opacity:0.0;stroke-opacity:0.0" />
    <path transform="translate(-184.71578,-221.43775)" id="path5104" d="m 329.64815,248.86576 c 0.30799,-0.34375 1.12524,-1.75478 1.81611,-3.13563 4.27567,-8.54583 8.03544,-23.59522 14.67477,-58.73937 2.7067,-14.32748 2.98842,-15.52651 3.62239,-15.4174 1.27266,0.21904 44.2508,11.84254 45.01768,12.1751 0.55953,0.24263 0.8255,0.78196 1.01272,2.05353 0.13965,0.94847 1.21481,6.62627 2.38924,12.61734 5.21412,26.59843 8.88016,40.27435 12.80491,47.76786 l 1.73026,3.30357 -41.81404,0 c -39.79812,0 -41.78704,-0.0301 -41.25404,-0.625 z" style="fill:#2b83ba;stroke:#2b83ba;stroke-width:0.00250000000000000;stroke-linecap:square;stroke-miterlimit:4;stroke-dasharray:none;stroke-dashoffset:0;fill-opacity:0.35111111;stroke-opacity:1.0" />
    <path transform="translate(-184.71578,-221.43775)" id="path5106" d="m 261.34172,198.55969 c 0,-40.58721 0.0907,-50.90043 0.44643,-50.78022 0.24553,0.083 8.49608,2.30998 18.33455,4.94893 l 17.88812,4.79807 0.78277,4.28572 c 7.81307,42.77671 10.58969,56.28638 14.36944,69.91479 2.27686,8.20952 4.2654,13.30118 6.56609,16.81247 l 0.62332,0.95131 -29.50536,0 -29.50536,0 0,-50.93107 z" style="fill:#2b83ba;fill-opacity:0.35111111;stroke:#2b83ba;stroke-width:0.00250000000000000;stroke-linecap:square;stroke-miterlimit:4;stroke-opacity:1;stroke-dasharray:none;stroke-dashoffset:0" />
    <path transform="translate(-184.71578,-221.43775)" id="path5108" d="m 422.82051,247.8646 c 3.16336,-4.68722 6.88807,-17.01622 11.21545,-37.12384 l 1.53722,-7.14286 0.0271,22.94643 0.0271,22.94643 -6.9522,0 -6.9522,0 1.09748,-1.62616 0,0 z" style="fill:#2b83ba;fill-opacity:0.35111111;stroke:#2b83ba;stroke-width:0.00250000000000000;stroke-linecap:square;stroke-miterlimit:4;stroke-opacity:1;stroke-dasharray:none;stroke-dashoffset:0" />
    <path style="fill:none;stroke:#000000;stroke-width:0.89499998;stroke-linecap:butt;stroke-linejoin:miter;stroke-miterlimit:4;stroke-dasharray:none;stroke-opacity:1" d="M 76.395363,29.221186 75.917622,-75.943755" id="path4172" />
    <path id="path4174" d="m 251.25251,28.5069 -0.1206,-56.23637" style="fill:none;stroke:#000000;stroke-width:0.89499998;stroke-linecap:butt;stroke-linejoin:miter;stroke-miterlimit:4;stroke-dasharray:none;stroke-opacity:1" />
  </g>
</svg>