<?xml version='1.0' ?><svg xmlns:dc="http://purl.org/dc/elements/1.1/" xmlns:cc="http://creativecommons.org/ns#" xmlns:rdf="http://www.w3.org/1999/02/22-rdf-syntax-ns#" xmlns:svg="http://www.w3.org/2000/svg" xmlns="http://www.w3.org/2000/svg" id="svg2" version="1.1" width="320.37209" height="187.97036" viewBox="216.87694 77.514919 320.37209 187.97036" preserveAspectRatio="none">
  <defs id="defs4">
    <marker style="overflow:visible" id="Arrow1Mstart" refX="0" refY="0" orient="auto">
      <path transform="matrix(0.4,0,0,0.4,4,0)" style="fill-rule:evenodd;stroke:#000000;stroke-width:1pt" d="M 0,0 5,-5 -12.5,0 5,5 0,0 z" id="path3899" />
    </marker>
    <marker style="overflow:visible" id="Arrow1Mend" refX="0" refY="0" orient="auto">
      <path transform="matrix(-0.4,0,0,-0.4,-4,0)" style="fill-rule:evenodd;stroke:#000000;stroke-width:1pt" d="M 0,0 5,-5 -12.5,0 5,5 0,0 z" id="path3902" />
    </marker>
  </defs>
  <metadata id="metadata7">
    <rdf:RDF>
      <cc:Work rdf:about="">
        <dc:format>image/svg+xml</dc:format>
        <dc:type rdf:resource="http://purl.org/dc/dcmitype/StillImage" />
        <dc:title />
      </cc:Work>
    </rdf:RDF>
  </metadata>
  <g transform="translate(184.71578,221.43775)" id="layer1">
    <g transform="matrix(0.2906649,0,0,0.2906649,81.782246,-193.40374)" id="g3727">
      <path style="fill:none;stroke:#000000;stroke-width:8;stroke-linecap:butt;stroke-linejoin:miter;stroke-miterlimit:4;stroke-opacity:1;stroke-dasharray:none;marker-start:url(#Arrow1Mstart);marker-end:none" d="m -116.16754,185.51363 0,631.41085" id="path3117" />
      <path style="fill:none;stroke:#000000;stroke-width:8;stroke-linecap:butt;stroke-linejoin:miter;stroke-miterlimit:4;stroke-opacity:1;stroke-dasharray:none;marker-end:url(#Arrow1Mend)" d="m -170.71578,767.08075 1086.92414,0" id="path3119" />
      <path id="path5083" title="(x**4)/16-x**3+4x**2+x" d="" style="fill:none;stroke:#000000;stroke-width:8;stroke-linecap:butt;stroke-linejoin:miter;stroke-miterlimit:4;stroke-opacity:1;stroke-dasharray:none;stroke-dashoffset:0" />
      <path style="fill:none;stroke:#000000;stroke-width:8;stroke-linecap:butt;stroke-linejoin:miter;stroke-miterlimit:4;stroke-opacity:1;stroke-dasharray:none;stroke-dashoffset:0" d="" title="(x**4)/16-x**3+4x**2+x" id="path5109" />
      <path id="path5973" title="(sin(x))**2" d="m -117.80399,766.10516 c 3.41221,-0.002 6.82441,-1.89863 10.23662,-5.65186 3.41221,-3.75323 6.82441,-9.37 10.23662,-16.72569 3.412207,-7.35569 6.824414,-16.46026 10.236621,-27.11923 3.412206,-10.65897 6.824413,-22.88102 10.23662,-36.40974 3.412207,-13.52871 6.824413,-28.37113 10.23662,-44.21933 3.412207,-15.84819 6.824413,-32.70728 10.23662,-50.23036 3.412207,-17.52308 6.824414,-35.71312 10.23662,-54.19835 3.412207,-18.48523 6.824414,-37.26638 10.236621,-55.9619 3.412206,-18.69553 6.824413,-37.30388 10.23662,-55.44928 3.412207,-18.14541 6.824413,-35.8241 10.23662,-52.68134 3.412207,-16.85725 6.8244135,-32.88722 10.2366202,-47.77067 3.4122068,-14.88344 6.8244135,-28.6127 10.2366202,-40.91698 3.4122068,-12.30428 6.8244136,-23.17441 10.2366206,-32.39907 3.412206,-9.22466 6.824413,-16.79353 10.23662,-22.56337 3.412207,-5.76983 6.824413,-9.72959 10.23662,-11.80993 3.412207,-2.08033 6.824413,-2.26992 10.23662,-0.57614 3.412207,1.69378 6.824414,5.28207 10.23662,10.68108 3.412207,5.39901 6.824414,12.61922 10.236621,21.50386 3.412206,8.88463 6.824413,19.44311 10.23662,31.452 3.412207,12.0089 6.824413,25.47618 10.23662,40.12089 3.412207,14.64471 6.824414,30.47304 10.23662,47.15791 3.412206,16.68487 6.824416,34.23045 10.236616,52.27685 3.41221,18.04639 6.82442,36.59559 10.23662,55.2695 3.41221,18.67392 6.82442,37.47226 10.23662,56.01416 3.41221,18.5419 6.82442,36.82479 10.23663,54.48051 3.4122,17.65572 6.82441,34.67954 10.23662,50.73095 3.4122,16.05142 6.82441,31.12374 10.23662,44.91799 3.4122,13.79424 6.82441,26.30203 10.23662,37.27804 3.4122,10.97601 6.82441,20.41052 10.23662,28.12187 3.4122,7.71135 6.82441,13.68885 10.23662,17.82188 3.4122,4.13304 6.82441,6.4104 10.23662,6.79702 3.4122,0.38662 6.82441,-1.12879 10.23662,-4.50431 3.4122,-3.37553 6.82441,-8.62206 10.23662,-15.62243 3.4122,-7.00037 6.82441,-15.76464 10.23662,-26.10513 3.4122,-10.34049 6.82441,-22.26602 10.23662,-35.52604 3.4122,-13.26003 6.82441,-27.86176 10.23662,-43.50199 3.4122,-15.64022 6.82441,-32.32426 10.23662,-49.70854 3.4122,-17.38429 6.82441,-35.47203 10.23662,-53.89329 3.4122,-18.42126 6.82441,-37.17701 10.23662,-55.88599 3.4122,-18.70898 6.82441,-37.36988 10.23662,-55.60562 3.4122,-18.23574 6.82441,-36.04278 10.23662,-53.06356 3.41221,-17.02079 6.82441,-33.2497 10.23662,-48.36323 3.41221,-15.11354 6.82441,-29.10423 10.23662,-41.6958 3.41221,-12.59156 6.82441,-23.77498 10.23662,-33.33243 3.41221,-9.55746 6.82441,-17.47873 10.23662,-23.61334 3.41221,-6.1346 6.82441,-10.47155 10.23662,-12.93379 3.41221,-2.46223 6.82441,-3.03846 10.23662,-1.72818 3.41221,1.31027 6.82441,4.51821 10.23662,9.54771 3.41221,5.02949 6.82441,11.89112 10.23662,20.43527 3.41221,8.54414 6.82441,18.78036 10.23662,30.49164 3.41221,11.71128 6.82441,24.90576 10.23662,39.30783 3.41221,14.40207 6.82441,30.01814 10.23662,46.52522 3.41221,16.50708 6.82441,33.90957 10.23662,51.85026 3.41221,17.94069 6.82441,36.42179 10.23662,55.06637 3.41221,18.64459 6.82441,37.4526 10.23662,56.04274 3.41221,18.59014 6.82441,36.96008 10.23662,54.73965 3.41221,17.77956 6.82441,34.96426 10.23662,51.2101 3.41221,16.24583 6.82441,31.54632 10.23662,45.59765 3.41221,14.05133 6.82442,26.84529 10.23662,38.13059 3.41221,11.28531 6.82442,21.05236 10.23662,29.11263 3.41221,8.06027 6.82442,14.40315 10.23662,18.91054 3.41221,4.50739 6.82442,7.16812 10.23662,7.9393 3.41221,0.77118 6.82442,-0.35847 10.23662,-3.35486 3.41221,-2.99639 6.82442,-7.87047 10.23662,-14.51257 3.41221,-6.64209 6.82442,-15.06236 10.23662,-25.07999 3.41221,-10.01764 6.82442,-21.64161 10.23662,-34.62733 3.41221,-12.98573 6.82442,-27.34061 10.23662,-42.76626 3.41221,-15.42564 6.82442,-31.92757 10.23662,-49.16571 3.41221,-17.23815 6.82442,-35.21593 10.23662,-53.56544 3.41221,-18.34951 6.82442,-37.07193 10.23662,-55.78646 3.41221,-18.71454 6.82442,-37.42009 10.23662,-55.73846 3.41221,-18.31837 6.82442,-36.24623 10.23662,-53.42336 3.41221,-17.17713 6.82442,-33.59811 10.23662,-48.93536 3.41221,-15.33724 6.82442,-29.58344 10.23662,-42.45697 3.41221,-12.87353 6.82442,-24.36551 10.23663,-34.25172 3.4122,-9.88621 6.82441,-18.15654 10.23662,-24.65332 3.4122,-6.49678 6.82441,-11.20908 10.23662,-14.05218 3.4122,-2.84311 6.82441,-3.80572 10.23662,-2.8795 3.4122,0.92621 6.82441,3.75245 10.23662,8.41031 3.4122,4.65785 6.82441,11.15798 10.23662,19.35803 3.4122,8.20005 6.82441,18.10969 10.23662,29.51841 3.4122,11.40871 6.82441,24.3248 10.23662,38.47815 3.4122,14.15336 6.82441,29.55055 10.23662,45.87287 3.4122,16.32232 6.82441,33.57436 10.23662,51.40176 3.4122,17.8274 6.82441,36.23259 10.23662,54.83996 3.4122,18.60738 6.82441,37.41711 10.23662,56.04763 3.4122,18.63053 6.82441,37.07974 10.23662,54.97565 3.4122,17.8959 6.82441,35.2342 10.23662,51.6676 3.4122,16.43339 6.82441,31.95557 10.23662,46.25805 3.4122,14.30248 6.82441,27.3772 10.23662,38.96703 3.4122,11.58983 6.82441,21.68528 10.23662,30.09107 3.41221,8.40578 6.82441,15.11136 10.23662,19.99121 3.41221,4.87984 6.82441,7.9228 10.23662,9.07823 3.41221,1.15542 6.82441,0.412 10.23662,-2.20399 3.41221,-2.616 6.82441,-7.11557 10.23662,-13.39657 3.41221,-6.28101 6.82441,-14.35371 10.23662,-24.04426 3.41221,-9.69055 6.82441,-21.00805 10.23662,-33.71399 3.41221,-12.70594 6.82441,-26.8079 10.23662,-42.01244 3.41221,-15.20455 6.82441,-31.5174 10.23662,-48.60211" style="fill:none;stroke:#000000;stroke-width:8;stroke-linecap:butt;stroke-linejoin:miter;stroke-miterlimit:4;stroke-opacity:1;stroke-dasharray:none;stroke-dashoffset:0" />
    </g>
    <path id="path2994" d="m 81.629211,-103.83383 0,133.27849" style="fill:none;stroke:#000000;stroke-width:0.899;stroke-linecap:butt;stroke-linejoin:miter;stroke-opacity:1;stroke-miterlimit:4;stroke-dasharray:none" />
    <path id="path4112" d="M 48.849536,29.501971 80.647472,-103.72454" style="fill:none;stroke:#000000;stroke-width:0.98777509px;stroke-linecap:butt;stroke-linejoin:miter;stroke-opacity:1" />
    <path transform="translate(-184.71578,-221.43775)" id="path4114" d="m 265.35714,118.07647 35.35715,48.57143" style="fill:none;stroke:#000000;stroke-width:1px;stroke-linecap:butt;stroke-linejoin:miter;stroke-opacity:1" />
    <path id="path4116" d="m 116.70218,-54.800461 30.73551,74.306928" style="fill:none;stroke:#000000;stroke-width:0.97878695px;stroke-linecap:butt;stroke-linejoin:miter;stroke-opacity:1" />
    <path id="path4118" d="M 148.13816,18.307555 181.71601,-127.29306" style="fill:none;stroke:#000000;stroke-width:0.9968763px;stroke-linecap:butt;stroke-linejoin:miter;stroke-opacity:1" />
    <path transform="translate(-184.71578,-221.43775)" id="path4120" d="M 365.35714,94.147896 398.92857,197.36218" style="fill:none;stroke:#000000;stroke-width:1px;stroke-linecap:butt;stroke-linejoin:miter;stroke-opacity:1" />
    <path transform="translate(-184.71578,-221.43775)" id="path4122" d="m 398.57143,194.1479 32.14286,24.28571" style="fill:none;stroke:#000000;stroke-width:1px;stroke-linecap:butt;stroke-linejoin:miter;stroke-opacity:1" />
    <path transform="translate(-184.71578,-221.43775)" id="path4124" d="M 431.07143,218.07647 463.21429,89.147896" style="fill:none;stroke:#000000;stroke-width:1px;stroke-linecap:butt;stroke-linejoin:miter;stroke-opacity:1" />
    <path transform="translate(-184.71578,-221.43775)" id="path4136" d="m 283.00929,141.23253 c -8.67625,-11.90813 -15.86758,-21.84103 -15.98073,-22.07311 -0.21526,-0.4415 0.54939,-3.74985 2.38748,-10.32973 3.39419,-12.150332 6.97696,-18.972742 9.60288,-18.286049 0.67282,0.175945 2.37546,2.183749 3.36873,3.972492 3.51122,6.323237 7.36904,20.475397 12.13887,44.530607 2.2958,11.57818 4.44978,23.26088 4.34606,23.57205 -0.0486,0.14569 -7.18705,-9.47813 -15.86329,-21.38626 l 0,0 z" style="fill:#fdae61;fill-opacity:0.35111111;stroke:#fdae61;stroke-width:0.03181981000000000;stroke-miterlimit:4;stroke-opacity:1;stroke-dasharray:none" />
    <path transform="translate(-184.71578,-221.43775)" id="path4138" d="m 353.05855,149.238 c -0.0139,-0.2481 2.23403,-11.86769 3.22539,-16.67213 2.17279,-10.53003 3.95436,-18.03398 5.86241,-24.69241 0.85822,-2.99489 1.81941,-5.91121 1.7063,-5.17703 -0.067,0.43472 -10.65586,46.40153 -10.7332,46.59329 -0.028,0.0695 -0.0554,0.0462 -0.0609,-0.0517 l 0,0 z" style="fill:#fdae61;fill-opacity:0.35111111;stroke:#fdae61;stroke-width:0.01590990000000000;stroke-miterlimit:4;stroke-opacity:1;stroke-dasharray:none" />
    <path transform="translate(-184.71578,-221.43775)" id="path4140" d="m 381.155,140.76832 c -7.984,-24.56821 -14.51302,-44.804262 -14.50892,-44.969 0.0113,-0.456003 1.14554,-2.538136 1.91164,-3.509285 1.39819,-1.772442 2.4016,-2.183694 3.57793,-1.46644 1.94857,1.188114 4.53737,6.421598 6.89357,13.935965 3.65257,11.64873 6.90627,26.92196 13.96127,65.53571 0.94208,5.15625 1.95526,10.64953 2.25151,12.20728 0.29625,1.55775 0.51405,2.85544 0.484,2.88376 -0.03,0.0283 -6.58699,-20.04978 -14.571,-44.61799 l 0,0 z" style="fill:#fdae61;fill-opacity:0.35111111;stroke:#fdae61;stroke-width:0.02250000000000000;stroke-miterlimit:4;stroke-opacity:1;stroke-dasharray:none" />
    <path transform="translate(-184.71578,-221.43775)" id="path4142" d="m 440.42991,177.54578 c -0.0188,-0.40798 3.68747,-20.63151 5.81216,-31.71479 5.86807,-30.61032 10.11263,-46.318622 14.21973,-52.624603 0.75973,-1.166469 1.56946,-2.071611 1.55072,-1.733433 -0.0245,0.442236 -21.56922,86.363916 -21.58261,86.072826 z" style="fill:#fdae61;fill-opacity:0.35111111;stroke:#fdae61;stroke-width:0.02250000000000000;stroke-miterlimit:4;stroke-opacity:1;stroke-dasharray:none" />
    <path transform="translate(-184.71578,-221.43775)" id="path5820" d="" style="fill:#2b83ba;fill-opacity:0.72941176;stroke:#2b83ba;stroke-width:0.00176777;stroke-linecap:square;stroke-miterlimit:4;stroke-opacity:1;stroke-dasharray:none;stroke-dashoffset:0" />
    <path transform="translate(-184.71578,-221.43775)" id="path5838" d="m 235.13458,246.85609 c 0.0438,-0.14733 4.61018,-19.25358 10.14751,-42.45835 5.53733,-23.20477 10.09366,-42.11313 10.12518,-42.01858 0.0624,0.18713 -2.66316,15.20036 -5.05955,27.86978 -5.88055,31.08983 -9.80257,46.47333 -13.9312,54.64286 -0.72745,1.43946 -1.45929,2.56082 -1.28194,1.96429 z" style="fill:#2b83ba;fill-opacity:0.35111111;stroke:#2b83ba;stroke-width:0.00125000000000000;stroke-linecap:square;stroke-miterlimit:4;stroke-opacity:1;stroke-dasharray:none;stroke-dashoffset:0" />
    <path transform="translate(-184.71578,-221.43775)" id="path4462" d="m 300.78759,211.0749 0.0165,-38.70536 0.43519,2.32143 c 0.23935,1.27679 1.28161,6.86161 2.31613,12.41072 5.55971,29.822 9.38455,45.83698 13.28487,55.625 0.81699,2.05027 2.37852,5.02515 3.21037,6.11607 l 0.71485,0.9375 -9.99725,0 -9.99726,0 0.0165,-38.70536 z" style="fill:#2b83ba;fill-opacity:0.35111111;stroke:#2b83ba;stroke-width:0.00125000000000000;stroke-linecap:square;stroke-miterlimit:4;stroke-opacity:1;stroke-dasharray:none;stroke-dashoffset:0" />
    <path transform="translate(-184.71578,-221.43775)" id="path4464" d="m 323.68748,249.00511 c -0.94458,-0.66873 -1.98453,-2.07365 -2.99511,-4.04628 -4.17583,-8.15109 -8.01743,-23.16749 -13.93342,-54.46429 -2.38039,-12.59269 -2.9789,-15.90202 -2.9122,-16.10214 0.089,-0.26694 27.17425,65.22273 27.15821,65.66603 -0.021,0.58025 -1.94906,4.84647 -2.82665,6.25451 -1.75543,2.81647 -3.14153,3.64742 -4.49083,2.69217 l 0,0 z" style="fill:#2b83ba;fill-opacity:0.35111111;stroke:#2b83ba;stroke-width:0.00125000000000000;stroke-linecap:square;stroke-miterlimit:4;stroke-opacity:1;stroke-dasharray:none;stroke-dashoffset:0" />
    <path transform="translate(-184.71578,-221.43775)" id="path4486" d="m 236.597,249.50193 c 0.0981,-0.17362 0.45475,-0.6892 0.79247,-1.14573 0.87096,-1.17736 2.89349,-5.53942 3.95654,-8.5332 4.19883,-11.82482 7.6283,-27.62017 16.44507,-75.74209 3.24968,-17.73671 7.32453,-38.41845 7.81181,-39.64849 0.055,-0.1389 0.10901,28.01595 0.11997,62.56632 l 0.0199,62.81886 -14.66211,0 c -11.6565,0 -14.62554,-0.0647 -14.48369,-0.31567 z" style="fill:#2b83ba;fill-opacity:0.35111111;stroke:#2b83ba;stroke-width:0.00176777000000000;stroke-linecap:square;stroke-miterlimit:4;stroke-opacity:1;stroke-dasharray:none;stroke-dashoffset:0" />
    <path transform="translate(-184.71578,-221.43775)" id="path4488" d="m 267.00549,185.64369 0,-64.17392 2.18884,2.99656 c 1.20386,1.6481 8.53378,11.71624 16.28871,22.37365 l 14.09987,19.3771 0,41.80026 0,41.80026 -16.28871,0 -16.28871,0 0,-64.17391 z" style="fill:#2b83ba;fill-opacity:0.35111111;stroke:#2b83ba;stroke-width:0.00176777000000000;stroke-linecap:square;stroke-miterlimit:4;stroke-opacity:1;stroke-dasharray:none;stroke-dashoffset:0" />
    <path transform="translate(-184.71578,-221.43775)" id="path4490" d="m 333.17049,245.88224 0,-3.93536 1.24793,-3.70392 c 3.44279,-10.21835 7.3405,-27.6225 12.76296,-56.98946 0.65902,-3.56912 17.78745,-78.52658 18.17775,-79.54951 0.053,-0.1389 0.10533,33.12984 0.1163,73.93054 l 0.0199,74.18307 -16.16244,0 -16.16244,0 0,-3.93536 z" style="fill:#2b83ba;fill-opacity:0.35111111;stroke:#2b83ba;stroke-width:0.00176777000000000;stroke-linecap:square;stroke-miterlimit:4;stroke-opacity:1;stroke-dasharray:none;stroke-dashoffset:0" />
    <path transform="translate(-184.71578,-221.43775)" id="path4492" d="m 366.52546,174.87691 c 0.011,-41.21738 0.0642,-74.82705 0.11838,-74.68815 0.0541,0.13889 7.1194,21.78773 15.70056,48.10851 l 15.60212,47.85598 0.0687,26.83218 0.0687,26.83217 -15.78919,0 -15.78919,0 0.0199,-74.94069 z" style="fill:#2b83ba;fill-opacity:0.35111111;stroke:#2b83ba;stroke-width:0.00176777000000000;stroke-linecap:square;stroke-miterlimit:4;stroke-opacity:1;stroke-dasharray:none;stroke-dashoffset:0" />
    <path transform="translate(-184.71578,-221.43775)" id="path4494" d="m 399.36176,227.15231 c 0.0238,-20.55571 0.0606,-22.50076 0.39514,-20.89753 5.09801,24.43172 8.60657,36.2693 12.48126,42.11073 l 0.96319,1.45209 -6.93294,0 -6.93293,0 0.0263,-22.66529 z" style="fill:#2b83ba;fill-opacity:0.35111111;stroke:#2b83ba;stroke-width:0.00176777000000000;stroke-linecap:square;stroke-miterlimit:4;stroke-opacity:1;stroke-dasharray:none;stroke-dashoffset:0" />
    <path transform="translate(-184.71578,-221.43775)" id="path4496" d="m 415.80902,248.60963 c -2.71432,-2.53556 -5.57286,-9.72179 -8.86177,-22.27807 -1.70317,-6.5023 -6.50452,-28.99849 -6.30274,-29.53079 0.044,-0.11598 6.38707,4.55912 14.09579,10.38911 7.70873,5.82998 14.22148,10.7474 14.47279,10.92761 0.43539,0.31221 0.40828,0.52835 -0.57522,4.58653 -3.47257,14.32873 -6.85379,23.29107 -9.7446,25.82924 -1.12914,0.99139 -2.07952,1.01492 -3.08425,0.0764 l 0,0 z" style="fill:#2b83ba;fill-opacity:0.35111111;stroke:#2b83ba;stroke-width:0.00176777000000000;stroke-linecap:square;stroke-miterlimit:4;stroke-opacity:1;stroke-dasharray:none;stroke-dashoffset:0" />
    <path transform="translate(-184.71578,-221.43775)" id="path4498" d="m 421.90267,249.24939 c 2.59988,-3.64362 5.32808,-10.76606 7.95628,-20.77126 l 1.26041,-4.79822 0.018,13.06885 0.018,13.06884 -4.82903,0 -4.82902,0 0.40544,-0.56821 z" style="fill:#2b83ba;fill-opacity:0.35111111;stroke:#2b83ba;stroke-width:0.00176777000000000;stroke-linecap:square;stroke-miterlimit:4;stroke-opacity:1;stroke-dasharray:none;stroke-dashoffset:0" />
    <path transform="translate(-184.71578,-221.43775)" id="path4500" d="m 432.22482,234.09711 0.0669,-15.7205 1.97265,-9.21765 c 1.16471,-5.44237 7.48976,-31.30037 15.44315,-63.13453 l 13.47051,-53.916892 0.0248,78.855032 0.0248,78.85503 -15.53485,0 -15.53485,0 0.0669,-15.72049 z" style="fill:#2b83ba;fill-opacity:0.35111111;stroke:#2b83ba;stroke-width:0.00176777000000000;stroke-linecap:square;stroke-miterlimit:4;stroke-opacity:1;stroke-dasharray:none;stroke-dashoffset:0" />
    <path transform="translate(-184.71578,-221.43775)" id="path4502" d="m 329.97326,248.21581 c 0.53681,-0.82354 1.21798,-2.00881 1.51371,-2.63393 l 0.53769,-1.13658 1.4e-4,2.63393 1.4e-4,2.63393 -1.51385,0 -1.51385,0 0.97602,-1.49735 z" style="fill:#2b83ba;fill-opacity:0.35111111;stroke:#2b83ba;stroke-width:0.00125000000000000;stroke-linecap:square;stroke-miterlimit:4;stroke-opacity:1;stroke-dasharray:none;stroke-dashoffset:0" />
    <path style="fill:none;stroke:#000000;stroke-width:0.89899999;stroke-linecap:butt;stroke-linejoin:miter;stroke-miterlimit:4;stroke-dasharray:none;stroke-opacity:1" d="m 115.37667,-56.35666 0,85.80132" id="path4881" />
    <path id="path4883" d="m 147.82782,19.278511 0,10.039881" style="fill:none;stroke:#000000;stroke-width:0.89899993;stroke-linecap:butt;stroke-linejoin:miter;stroke-miterlimit:4;stroke-dasharray:none;stroke-opacity:1" />
    <path style="fill:none;stroke:#000000;stroke-width:0.89899993;stroke-linecap:butt;stroke-linejoin:miter;stroke-miterlimit:4;stroke-dasharray:none;stroke-opacity:1" d="m 181.28911,-124.54195 0,153.734071" id="path4885" />
    <path id="path4887" d="m 213.86654,-27.314775 0,56.633166" style="fill:none;stroke:#000000;stroke-width:0.89899999;stroke-linecap:butt;stroke-linejoin:miter;stroke-miterlimit:4;stroke-dasharray:none;stroke-opacity:1" />
    <path style="fill:none;stroke:#000000;stroke-width:0.89899999;stroke-linecap:butt;stroke-linejoin:miter;stroke-miterlimit:4;stroke-dasharray:none;stroke-opacity:1" d="m 246.82277,-3.5761912 0,32.7683132" id="path4889" />
    <path id="path4891" d="m 278.89511,-131.99183 0,161.183952" style="fill:none;stroke:#000000;stroke-width:0.89899999;stroke-linecap:butt;stroke-linejoin:miter;stroke-miterlimit:4;stroke-dasharray:none;stroke-opacity:1" />
  </g>
</svg>