<?xml version='1.0' ?><svg xmlns:ns0="http://www.iki.fi/pav/software/textext/" xmlns:dc="http://purl.org/dc/elements/1.1/" xmlns:cc="http://creativecommons.org/ns#" xmlns:rdf="http://www.w3.org/1999/02/22-rdf-syntax-ns#" xmlns:svg="http://www.w3.org/2000/svg" xmlns="http://www.w3.org/2000/svg" version="1.1" id="svg2" width="190.63543" height="214.39999" viewBox="26.993568750037134 81.86220561218397 178.72071562524584 200.9999906252765" preserveAspectRatio="none">
  <defs id="defs4">
    <marker orient="auto" refY="0.0" refX="0.0" id="Arrow1Mstart" style="overflow:visible">
      <path id="path4164" d="M 0.0,0.0 L 5.0,-5.0 L -12.5,0.0 L 5.0,5.0 L 0.0,0.0 z " style="fill-rule:evenodd;stroke:#000000;stroke-width:1pt;stroke-opacity:1;fill:#000000;fill-opacity:1" transform="scale(0.4) translate(10,0)" />
    </marker>
    <marker orient="auto" refY="0.0" refX="0.0" id="Arrow1Mend" style="overflow:visible;">
      <path id="path4167" d="M 0.0,0.0 L 5.0,-5.0 L -12.5,0.0 L 5.0,5.0 L 0.0,0.0 z " style="fill-rule:evenodd;stroke:#000000;stroke-width:1pt;stroke-opacity:1;fill:#000000;fill-opacity:1" transform="scale(0.4) rotate(180) translate(10,0)" />
    </marker>
  </defs>
  <metadata id="metadata7">
    <rdf:RDF>
      <cc:Work rdf:about="">
        <dc:format>image/svg+xml</dc:format>
        <dc:type rdf:resource="http://purl.org/dc/dcmitype/StillImage" />
        <dc:title />
      </cc:Work>
    </rdf:RDF>
  </metadata>
  <g id="layer1">
    <path style="fill:none;fill-rule:evenodd;stroke:#000000;stroke-width:1px;stroke-linecap:butt;stroke-linejoin:miter;stroke-opacity:1" d="m 60,282.3622 145.71429,0" id="path4138" />
    <circle style="fill:none;fill-rule:evenodd;stroke:#000000;stroke-width:1px;stroke-linecap:butt;stroke-linejoin:miter;stroke-opacity:1" id="path4140" cx="135" cy="97.362206" r="15" />
    <ellipse style="fill:#000000;fill-opacity:1;fill-rule:evenodd;stroke:#000000;stroke-width:1px;stroke-linecap:butt;stroke-linejoin:miter;stroke-opacity:1" id="path4142" cx="120" cy="222.3622" rx="3.7207413" ry="3.4693413" />
    <ellipse ry="3.4693413" rx="3.7207413" cy="222.3622" cx="150.17857" id="ellipse4144" style="fill:#000000;fill-opacity:1;fill-rule:evenodd;stroke:#000000;stroke-width:1px;stroke-linecap:butt;stroke-linejoin:miter;stroke-opacity:1" />
    <path style="fill:none;fill-rule:evenodd;stroke:#000000;stroke-width:1px;stroke-linecap:butt;stroke-linejoin:miter;stroke-opacity:1" d="M 120,97.362205 120,222.3622" id="path4146" />
    <path style="fill:none;fill-rule:evenodd;stroke:#000000;stroke-width:1px;stroke-linecap:butt;stroke-linejoin:miter;stroke-opacity:1" d="M 150,97.362205 150,222.3622" id="path4148" />
    <path style="fill:none;fill-rule:evenodd;stroke:#000000;stroke-width:1.00000012;stroke-linecap:butt;stroke-linejoin:miter;stroke-miterlimit:4;stroke-dasharray:4.00000008, 4.00000008;stroke-dashoffset:0;stroke-opacity:1" d="m 120,226.36221 -49.999997,0" id="path4150" />
    <path style="fill:none;fill-rule:evenodd;stroke:#000000;stroke-width:1px;stroke-linecap:butt;stroke-linejoin:miter;stroke-opacity:1;marker-start:url(#Arrow1Mstart);marker-end:url(#Arrow1Mend)" d="m 80,279.95149 0,-51.17858" id="path4152" />
    <g style="font-style:normal;font-variant:normal;font-weight:normal;font-stretch:normal;letter-spacing:normal;word-spacing:normal;text-anchor:start;fill:none;fill-opacity:1;fill-rule:evenodd;stroke:#000000;stroke-linecap:butt;stroke-linejoin:miter;stroke-miterlimit:10.43299961;stroke-dasharray:none;stroke-dashoffset:0;stroke-opacity:1" id="content" transform="matrix(1.5,0,0,-1.5,-222.85714,959.28573)" xml:space="preserve" stroke-miterlimit="10.433" font-style="normal" font-variant="normal" font-weight="normal" font-stretch="normal" font-size-adjust="none" letter-spacing="normal" word-spacing="normal" ns0:text="$A$" ns0:preamble="/Users/prmb/CMEP/underground-inkscape-preamble.tex"><path style="fill:#000000;stroke-width:0" d="m 231.52,477.23 0,0.19 -0.19,0 c -0.5,0 -0.79,0.25 -0.87,0.83 l -0.92,6.86 -0.22,0 -4.2,-6.81 c -0.42,-0.69 -0.86,-0.83 -1.27,-0.88 l 0,-0.19 2.57,0 0,0.19 -0.34,0 c -0.31,0 -0.5,0.13 -0.51,0.35 0,0.08 0.03,0.21 0.12,0.3 l 0.99,1.66 2.34,0 -0.09,0.43 -2,0 1.64,2.68 0.07,0 0.29,-2.68 0.09,-0.43 0.15,-1.34 c 0.01,-0.08 0.02,-0.18 0.02,-0.25 0,-0.47 -0.19,-0.72 -0.85,-0.72 l -0.19,0 0,-0.19 z" id="path5351" /></g>    <g style="font-style:normal;font-variant:normal;font-weight:normal;font-stretch:normal;letter-spacing:normal;word-spacing:normal;text-anchor:start;fill:none;fill-opacity:1;fill-rule:evenodd;stroke:#000000;stroke-linecap:butt;stroke-linejoin:miter;stroke-miterlimit:10.43299961;stroke-dasharray:none;stroke-dashoffset:0;stroke-opacity:1" ns0:preamble="/Users/prmb/CMEP/underground-inkscape-preamble.tex" ns0:text="$B$" word-spacing="normal" letter-spacing="normal" font-size-adjust="none" font-stretch="normal" font-weight="normal" font-variant="normal" font-style="normal" stroke-miterlimit="10.433" xml:space="preserve" transform="matrix(1.5,0,0,-1.5,-192.14286,959.28573)" id="g5399"><path style="fill:#000000;stroke-width:0" id="path5401" d="m 225.77,484.94 -0.06,-0.18 0.22,0 c 0.7,0 0.93,-0.19 0.93,-0.5 0,-0.07 -0.02,-0.19 -0.03,-0.25 l -1.45,-5.84 c -0.09,-0.4 -0.32,-0.75 -1.22,-0.75 l -0.23,0 -0.05,-0.19 3.83,0 c 2.44,0 3.41,1.12 3.41,2.28 0,1.01 -0.79,1.5 -1.5,1.63 l -0.04,0.05 c 0.24,0.06 0.58,0.15 0.88,0.31 0.56,0.28 1.07,0.81 1.07,1.73 0,1.61 -1.79,1.71 -2.79,1.71 l -0.01,-0.46 c 0.64,0 1.41,-0.24 1.41,-1.15 0,-1.15 -0.66,-1.93 -1.99,-1.93 l -0.13,-0.41 c 0.93,0 1.68,-0.41 1.68,-1.28 0,-1.53 -1.13,-2.03 -2.24,-2.03 -0.31,0 -0.55,0.03 -0.84,0.11 l 0.8,3.15 c 0.18,0.05 0.42,0.05 0.6,0.05 l 0.13,0.41 c -0.17,0 -0.39,0.03 -0.62,0.07 l 0.7,2.98 c 0.15,0.02 0.33,0.03 0.5,0.03 l 0.01,0.46 z" /></g>    <g style="font-style:normal;font-variant:normal;font-weight:normal;font-stretch:normal;letter-spacing:normal;word-spacing:normal;text-anchor:start;fill:none;fill-opacity:1;fill-rule:evenodd;stroke:#000000;stroke-linecap:butt;stroke-linejoin:miter;stroke-miterlimit:10.43299961;stroke-dasharray:none;stroke-dashoffset:0;stroke-opacity:1" id="g5453" transform="matrix(1.5,0,0,-1.5,-263.19634,932.22208)" xml:space="preserve" stroke-miterlimit="10.433" font-style="normal" font-variant="normal" font-weight="normal" font-stretch="normal" font-size-adjust="none" letter-spacing="normal" word-spacing="normal" ns0:text="$\\quantity{0.8}{kg}$" ns0:preamble="/Users/prmb/CMEP/underground-inkscape-preamble.tex"><path style="fill:#000000;stroke-width:0" d="m 229.05,481.13 0,0.23 -0.01,0.22 -0.02,0.21 -0.02,0.21 -0.02,0.21 -0.04,0.2 -0.04,0.19 -0.04,0.19 -0.05,0.18 -0.05,0.18 -0.06,0.17 -0.07,0.17 -0.07,0.16 -0.07,0.15 -0.08,0.14 -0.09,0.14 -0.09,0.13 -0.09,0.13 -0.1,0.11 -0.1,0.11 -0.11,0.1 -0.11,0.1 -0.11,0.08 -0.12,0.08 -0.12,0.07 -0.12,0.06 -0.13,0.05 -0.13,0.04 -0.14,0.03 -0.13,0.03 -0.15,0.01 -0.14,0.01 c -1.9,0 -2.72,-1.93 -2.72,-4.02 0,-1.93 0.66,-4.13 2.67,-4.13 l 0,0.31 c -1.01,0 -1.53,1.34 -1.53,3.74 0,2.4 0.53,3.79 1.51,3.79 1.04,0 1.56,-1.38 1.56,-3.84 l 0,0 c 0,-2.34 -0.53,-3.69 -1.54,-3.69 l 0,-0.31 c 1.93,0 2.67,2.03 2.67,4.06 z" id="path5455" /><path style="fill:#000000;stroke-width:0" d="m 231.49,477.74 0,0.04 0,0.03 0,0.03 -0.01,0.03 -0.01,0.04 -0.01,0.03 -0.01,0.03 -0.01,0.03 -0.01,0.03 -0.02,0.03 -0.01,0.02 -0.02,0.03 -0.02,0.03 -0.02,0.02 -0.02,0.03 -0.02,0.02 -0.03,0.02 -0.02,0.03 -0.02,0.02 -0.03,0.02 -0.03,0.01 -0.02,0.02 -0.03,0.02 -0.03,0.01 -0.03,0.01 -0.03,0.01 -0.03,0.01 -0.03,0.01 -0.03,0.01 -0.03,0 -0.03,0.01 -0.04,0 c -0.36,0 -0.66,-0.3 -0.66,-0.67 0,-0.36 0.29,-0.64 0.65,-0.64 0.36,0 0.66,0.29 0.66,0.63 z" id="path5457" /><path style="fill:#000000;stroke-width:0" d="m 237.57,479.07 0,0.08 0,0.09 -0.01,0.08 -0.01,0.09 -0.01,0.08 -0.01,0.08 -0.02,0.08 -0.02,0.08 -0.02,0.07 -0.03,0.08 -0.03,0.08 -0.03,0.07 -0.04,0.08 -0.04,0.07 -0.05,0.08 -0.05,0.07 -0.05,0.08 -0.06,0.07 -0.06,0.08 -0.07,0.07 -0.07,0.08 -0.08,0.07 -0.08,0.08 -0.09,0.08 -0.09,0.08 -0.1,0.08 -0.1,0.08 -0.11,0.09 -0.12,0.08 -0.12,0.09 -0.12,0.09 -0.14,0.08 c 1.17,0.63 1.58,1.03 1.58,1.92 0,0.92 -0.81,1.69 -1.98,1.69 l -0.12,-0.33 c 0.8,0 1.29,-0.55 1.29,-1.36 l 0,0 c 0,-0.73 -0.31,-1.23 -1.11,-1.7 -1.04,0.61 -1.48,1.15 -1.48,1.89 0,0.73 0.51,1.17 1.3,1.17 l 0.12,0.33 c -1.31,0 -2.29,-0.71 -2.29,-1.85 0,-0.76 0.25,-1.21 1.46,-2.22 -1.26,-0.88 -1.53,-1.34 -1.53,-2.16 0,-1.11 0.93,-1.92 2.27,-1.92 l 0.13,0.33 c -0.9,0 -1.5,0.61 -1.5,1.7 0,0.77 0.24,1.25 0.94,1.82 l 0.7,-0.47 c 0.8,-0.55 1.15,-1.02 1.15,-1.75 0,-0.77 -0.53,-1.3 -1.29,-1.3 l -0.13,-0.33 c 1.41,0 2.32,0.78 2.32,2 z" id="path5459" /><path style="fill:#000000;stroke-width:0" d="m 245.86,477.23 0,0.18 c -0.52,0.04 -0.9,0.25 -1.38,0.86 l -1.8,2.29 0.34,0.32 c 1.45,1.35 1.79,1.49 2.55,1.49 l 0,0.18 -2.41,0 0,-0.17 c 0.46,-0.01 0.59,-0.06 0.59,-0.21 0,-0.11 -0.11,-0.26 -0.27,-0.41 l -1.62,-1.44 0,4.95 -0.05,0.03 c -0.46,-0.14 -0.76,-0.24 -1.47,-0.43 l -0.36,-0.09 0,-0.19 c 0.16,0.01 0.26,0.02 0.38,0.02 0.4,0 0.51,-0.15 0.51,-0.72 l 0,-5.69 c 0,-0.61 -0.04,-0.65 -0.89,-0.79 l 0,-0.18 2.77,0 0,0.18 -0.24,0.01 c -0.47,0.03 -0.65,0.19 -0.65,0.61 l 0,2.17 1.77,-2.34 c 0.1,-0.12 0.13,-0.21 0.13,-0.27 0,-0.11 -0.11,-0.18 -0.25,-0.18 l -0.22,0 0,-0.18 z" id="path5461" /><path style="fill:#000000;stroke-width:0" d="m 251.29,481.82 0,0.46 -0.91,0 c -0.23,0 -0.41,0.03 -0.65,0.11 l -0.26,0.1 c -0.32,0.12 -0.63,0.18 -0.94,0.18 -1.1,0 -1.97,-0.85 -1.97,-1.93 0,-0.74 0.3,-1.19 1.09,-1.58 -0.16,-0.17 -0.33,-0.32 -0.5,-0.47 -0.39,-0.34 -0.55,-0.58 -0.55,-0.82 0,-0.26 0.13,-0.39 0.63,-0.62 l 0.25,-0.04 c 0.4,-0.08 1.33,-0.15 1.91,-0.15 1.07,0 1.46,-0.14 1.46,-0.58 l 0,0 c 0,-0.68 -0.89,-1.15 -2.24,-1.15 -1.04,0 -1.71,0.35 -1.71,0.87 0,0.27 0.11,0.44 0.58,1.01 l -0.25,0.04 c -0.85,-0.62 -1.16,-1.01 -1.16,-1.44 0,-0.63 0.91,-1.15 2.05,-1.15 0.84,0 1.74,0.29 2.36,0.76 0.48,0.38 0.7,0.76 0.7,1.24 0,0.73 -0.55,1.22 -1.42,1.26 l -1.53,0.07 c -0.63,0.04 -0.92,0.13 -0.92,0.32 0,0.24 0.39,0.65 0.71,0.74 l 0.22,-0.02 c 0.22,-0.02 0.38,-0.04 0.45,-0.04 l 0.06,0.3 c -0.73,0 -1.21,0.77 -1.21,1.9 l 0,0.04 c 0,0.69 0.33,1.1 0.87,1.1 0.37,0 0.67,-0.2 0.86,-0.55 0.23,-0.41 0.36,-0.94 0.36,-1.43 0,-0.65 -0.35,-1.06 -0.88,-1.06 l -0.06,-0.3 c 0.42,0 0.85,0.18 1.23,0.46 0.43,0.32 0.62,0.76 0.62,1.37 0,0.35 -0.06,0.62 -0.23,1 z" id="path5463" /></g>    <g style="font-style:normal;font-variant:normal;font-weight:normal;font-stretch:normal;letter-spacing:normal;word-spacing:normal;text-anchor:start;fill:none;fill-opacity:1;fill-rule:evenodd;stroke:#000000;stroke-linecap:butt;stroke-linejoin:miter;stroke-miterlimit:10.43299961;stroke-dasharray:none;stroke-dashoffset:0;stroke-opacity:1" ns0:preamble="/Users/prmb/CMEP/underground-inkscape-preamble.tex" ns0:text="$\\quantity{1.2}{kg}$" word-spacing="normal" letter-spacing="normal" font-size-adjust="none" font-stretch="normal" font-weight="normal" font-variant="normal" font-style="normal" stroke-miterlimit="10.433" xml:space="preserve" transform="matrix(1.5,0,0,-1.5,-178.91063,932.22208)" id="g5527"><path style="fill:#000000;stroke-width:0" id="path5529" d="m 228.08,477.23 0,0.18 c -0.88,0 -1.12,0.21 -1.12,0.72 l 0,7.05 -0.1,0.04 -2.12,-1.08 0,-0.16 0.32,0.11 c 0.21,0.09 0.41,0.15 0.53,0.15 0.25,0 0.36,-0.18 0.36,-0.58 l 0,-5.3 c 0,-0.65 -0.25,-0.9 -1.13,-0.95 l 0,-0.18 z" /><path style="fill:#000000;stroke-width:0" id="path5531" d="m 231.49,477.74 0,0.04 0,0.03 0,0.03 -0.01,0.03 -0.01,0.04 -0.01,0.03 -0.01,0.03 -0.01,0.03 -0.01,0.03 -0.02,0.03 -0.01,0.02 -0.02,0.03 -0.02,0.03 -0.02,0.02 -0.02,0.03 -0.02,0.02 -0.03,0.02 -0.02,0.03 -0.02,0.02 -0.03,0.02 -0.03,0.01 -0.02,0.02 -0.03,0.02 -0.03,0.01 -0.03,0.01 -0.03,0.01 -0.03,0.01 -0.03,0.01 -0.03,0.01 -0.03,0 -0.03,0.01 -0.04,0 c -0.36,0 -0.66,-0.3 -0.66,-0.67 0,-0.36 0.29,-0.64 0.65,-0.64 0.36,0 0.66,0.29 0.66,0.63 z" /><path style="fill:#000000;stroke-width:0" id="path5533" d="m 237.91,478.85 -0.16,0.07 c -0.39,-0.66 -0.64,-0.79 -1.13,-0.79 l -2.77,0 1.95,2.08 c 1.05,1.11 1.51,1.99 1.51,2.93 0,1.17 -0.85,2.08 -2.18,2.08 -1.45,0 -2.21,-0.97 -2.46,-2.35 l 0.25,-0.06 c 0.47,1.15 0.89,1.53 1.74,1.53 1,0 1.64,-0.59 1.64,-1.66 0,-1.01 -0.43,-1.9 -1.54,-3.07 l -2.1,-2.23 0,-0.15 4.62,0 z" /><path style="fill:#000000;stroke-width:0" id="path5535" d="m 245.86,477.23 0,0.18 c -0.52,0.04 -0.9,0.25 -1.38,0.86 l -1.8,2.29 0.34,0.32 c 1.45,1.35 1.79,1.49 2.55,1.49 l 0,0.18 -2.41,0 0,-0.17 c 0.46,-0.01 0.59,-0.06 0.59,-0.21 0,-0.11 -0.11,-0.26 -0.27,-0.41 l -1.62,-1.44 0,4.95 -0.05,0.03 c -0.46,-0.14 -0.76,-0.24 -1.47,-0.43 l -0.36,-0.09 0,-0.19 c 0.16,0.01 0.26,0.02 0.38,0.02 0.4,0 0.51,-0.15 0.51,-0.72 l 0,-5.69 c 0,-0.61 -0.04,-0.65 -0.89,-0.79 l 0,-0.18 2.77,0 0,0.18 -0.24,0.01 c -0.47,0.03 -0.65,0.19 -0.65,0.61 l 0,2.17 1.77,-2.34 c 0.1,-0.12 0.13,-0.21 0.13,-0.27 0,-0.11 -0.11,-0.18 -0.25,-0.18 l -0.22,0 0,-0.18 z" /><path style="fill:#000000;stroke-width:0" id="path5537" d="m 251.29,481.82 0,0.46 -0.91,0 c -0.23,0 -0.41,0.03 -0.65,0.11 l -0.26,0.1 c -0.32,0.12 -0.63,0.18 -0.94,0.18 -1.1,0 -1.97,-0.85 -1.97,-1.93 0,-0.74 0.3,-1.19 1.09,-1.58 -0.16,-0.17 -0.33,-0.32 -0.5,-0.47 -0.39,-0.34 -0.55,-0.58 -0.55,-0.82 0,-0.26 0.13,-0.39 0.63,-0.62 l 0.25,-0.04 c 0.4,-0.08 1.33,-0.15 1.91,-0.15 1.07,0 1.46,-0.14 1.46,-0.58 l 0,0 c 0,-0.68 -0.89,-1.15 -2.24,-1.15 -1.04,0 -1.71,0.35 -1.71,0.87 0,0.27 0.11,0.44 0.58,1.01 l -0.25,0.04 c -0.85,-0.62 -1.16,-1.01 -1.16,-1.44 0,-0.63 0.91,-1.15 2.05,-1.15 0.84,0 1.74,0.29 2.36,0.76 0.48,0.38 0.7,0.76 0.7,1.24 0,0.73 -0.55,1.22 -1.42,1.26 l -1.53,0.07 c -0.63,0.04 -0.92,0.13 -0.92,0.32 0,0.24 0.39,0.65 0.71,0.74 l 0.22,-0.02 c 0.22,-0.02 0.38,-0.04 0.45,-0.04 l 0.06,0.3 c -0.73,0 -1.21,0.77 -1.21,1.9 l 0,0.04 c 0,0.69 0.33,1.1 0.87,1.1 0.37,0 0.67,-0.2 0.86,-0.55 0.23,-0.41 0.36,-0.94 0.36,-1.43 0,-0.65 -0.35,-1.06 -0.88,-1.06 l -0.06,-0.3 c 0.42,0 0.85,0.18 1.23,0.46 0.43,0.32 0.62,0.76 0.62,1.37 0,0.35 -0.06,0.62 -0.23,1 z" /></g>    <g style="font-style:normal;font-variant:normal;font-weight:normal;font-stretch:normal;letter-spacing:normal;word-spacing:normal;text-anchor:start;fill:none;fill-opacity:1;fill-rule:evenodd;stroke:#000000;stroke-linecap:butt;stroke-linejoin:miter;stroke-miterlimit:10.43299961;stroke-dasharray:none;stroke-dashoffset:0;stroke-opacity:1" id="g5613" transform="matrix(1.5,0,0,-1.5,-308.57143,975)" xml:space="preserve" stroke-miterlimit="10.433" font-style="normal" font-variant="normal" font-weight="normal" font-stretch="normal" font-size-adjust="none" letter-spacing="normal" word-spacing="normal" ns0:text="$\\quantity{0.09}{m}$" ns0:preamble="/Users/prmb/CMEP/underground-inkscape-preamble.tex"><path style="fill:#000000;stroke-width:0" d="m 229.05,481.13 0,0.23 -0.01,0.22 -0.02,0.21 -0.02,0.21 -0.02,0.21 -0.04,0.2 -0.04,0.19 -0.04,0.19 -0.05,0.18 -0.05,0.18 -0.06,0.17 -0.07,0.17 -0.07,0.16 -0.07,0.15 -0.08,0.14 -0.09,0.14 -0.09,0.13 -0.09,0.13 -0.1,0.11 -0.1,0.11 -0.11,0.1 -0.11,0.1 -0.11,0.08 -0.12,0.08 -0.12,0.07 -0.12,0.06 -0.13,0.05 -0.13,0.04 -0.14,0.03 -0.13,0.03 -0.15,0.01 -0.14,0.01 c -1.9,0 -2.72,-1.93 -2.72,-4.02 0,-1.93 0.66,-4.13 2.67,-4.13 l 0,0.31 c -1.01,0 -1.53,1.34 -1.53,3.74 0,2.4 0.53,3.79 1.51,3.79 1.04,0 1.56,-1.38 1.56,-3.84 l 0,0 c 0,-2.34 -0.53,-3.69 -1.54,-3.69 l 0,-0.31 c 1.93,0 2.67,2.03 2.67,4.06 z" id="path5615" /><path style="fill:#000000;stroke-width:0" d="m 231.49,477.74 0,0.04 0,0.03 0,0.03 -0.01,0.03 -0.01,0.04 -0.01,0.03 -0.01,0.03 -0.01,0.03 -0.01,0.03 -0.02,0.03 -0.01,0.02 -0.02,0.03 -0.02,0.03 -0.02,0.02 -0.02,0.03 -0.02,0.02 -0.03,0.02 -0.02,0.03 -0.02,0.02 -0.03,0.02 -0.03,0.01 -0.02,0.02 -0.03,0.02 -0.03,0.01 -0.03,0.01 -0.03,0.01 -0.03,0.01 -0.03,0.01 -0.03,0.01 -0.03,0 -0.03,0.01 -0.04,0 c -0.36,0 -0.66,-0.3 -0.66,-0.67 0,-0.36 0.29,-0.64 0.65,-0.64 0.36,0 0.66,0.29 0.66,0.63 z" id="path5617" /><path style="fill:#000000;stroke-width:0" d="m 237.94,481.13 -0.01,0.23 0,0.22 -0.02,0.21 -0.02,0.21 -0.03,0.21 -0.03,0.2 -0.04,0.19 -0.04,0.19 -0.05,0.18 -0.06,0.18 -0.06,0.17 -0.06,0.17 -0.07,0.16 -0.08,0.15 -0.08,0.14 -0.08,0.14 -0.09,0.13 -0.09,0.13 -0.1,0.11 -0.1,0.11 -0.11,0.1 -0.11,0.1 -0.11,0.08 -0.12,0.08 -0.12,0.07 -0.13,0.06 -0.13,0.05 -0.13,0.04 -0.13,0.03 -0.14,0.03 -0.14,0.01 -0.14,0.01 c -1.9,0 -2.72,-1.93 -2.72,-4.02 0,-1.93 0.65,-4.13 2.67,-4.13 l 0,0.31 c -1.02,0 -1.53,1.34 -1.53,3.74 0,2.4 0.53,3.79 1.51,3.79 1.04,0 1.55,-1.38 1.55,-3.84 l 0,0 c 0,-2.34 -0.53,-3.69 -1.53,-3.69 l 0,-0.31 c 1.92,0 2.67,2.03 2.67,4.06 z" id="path5619" /><path style="fill:#000000;stroke-width:0" d="m 238.94,476.98 0.14,0.02 0.14,0.02 0.13,0.02 0.13,0.02 0.13,0.02 0.12,0.03 0.12,0.02 0.11,0.03 0.11,0.02 0.11,0.03 0.11,0.03 0.1,0.03 0.11,0.04 0.1,0.03 0.19,0.08 0.19,0.08 0.18,0.09 0.18,0.1 0.09,0.06 0.09,0.06 0.09,0.06 0.09,0.06 0.09,0.07 0.09,0.07 0.09,0.07 0.09,0.08 0.09,0.08 0.09,0.08 c 0.95,0.86 1.42,2.15 1.42,3.51 0,0.99 -0.28,1.84 -0.76,2.43 -0.45,0.57 -1.09,0.9 -1.85,0.9 l -0.09,-0.33 c 1.02,0 1.56,-1.02 1.56,-3 l 0,-0.46 c 0,-0.63 -0.87,-0.89 -1.39,-0.89 -0.88,0 -1.45,0.89 -1.45,2.29 0,0.64 0.18,1.34 0.42,1.65 0.2,0.26 0.5,0.41 0.86,0.41 l 0.09,0.33 c -1.4,0 -2.45,-1.2 -2.45,-2.79 0,-1.44 0.85,-2.4 2.12,-2.4 0.7,0 1.26,0.18 1.77,0.68 -0.47,-1.94 -1.79,-3.18 -3.59,-3.5 z" id="path5621" /><path style="fill:#000000;stroke-width:0" d="m 254.97,477.23 0,0.18 -0.3,0.03 c -0.36,0.02 -0.51,0.17 -0.51,0.7 l 0,2.4 c 0,1.39 -0.41,2.13 -1.37,2.13 -0.69,0 -1.29,-0.31 -1.92,-1 -0.22,0.68 -0.62,1 -1.26,1 -0.53,0 -1.02,-0.11 -1.8,-0.91 l -0.03,0 0,0.87 -0.09,0.04 c -0.6,-0.23 -0.99,-0.36 -1.64,-0.54 l 0,-0.2 c 0.15,0.04 0.25,0.05 0.38,0.05 0.3,0 0.41,-0.2 0.41,-0.78 l 0,-2.93 c 0,-0.68 -0.16,-0.85 -0.83,-0.86 l 0,-0.18 2.62,0 0,0.18 c -0.62,0.03 -0.8,0.14 -0.8,0.65 l 0,3.28 c 0,0.03 0.07,0.11 0.16,0.2 0.23,0.29 0.81,0.51 1.25,0.51 0.5,0 0.76,-0.49 0.76,-1.31 l 0,-2.49 c 0,-0.72 -0.13,-0.79 -0.8,-0.84 l 0,-0.18 2.65,0 0,0.18 c -0.68,0.01 -0.85,0.18 -0.85,0.95 l 0,2.97 c 0.35,0.51 0.7,0.72 1.26,0.72 0.67,0 0.91,-0.39 0.91,-1.32 l 0,-2.43 c 0,-0.69 -0.11,-0.82 -0.77,-0.89 l 0,-0.18 z" id="path5623" /></g>  </g>
</svg>