<?xml version='1.0' ?><svg xmlns:dc="http://purl.org/dc/elements/1.1/" xmlns:cc="http://creativecommons.org/ns#" xmlns:rdf="http://www.w3.org/1999/02/22-rdf-syntax-ns#" xmlns:svg="http://www.w3.org/2000/svg" xmlns="http://www.w3.org/2000/svg" id="svg741" version="1.1" width="532.0" height="259.3913" viewBox="0.0 0.39298246119298247 686.9333333333334 334.93332771929823" preserveAspectRatio="none">
  <metadata id="metadata747">
    <rdf:RDF>
      <cc:Work rdf:about="">
        <dc:format>image/svg+xml</dc:format>
        <dc:type rdf:resource="http://purl.org/dc/dcmitype/StillImage" />
      </cc:Work>
    </rdf:RDF>
  </metadata>
  <defs id="defs745" />
  <title id="title2" />
  <g id="g739" stroke-linecap="square" stroke-miterlimit="10.000" stroke-width="1.0000" stroke-dasharray="none" stroke-dashoffset="0.0000" stroke-linejoin="miter">
    <clipPath id="clip1">
      <path id="path4" d="M 0.0000 0.0000 L 0.0000 314.00 L 644.00 314.00 L 644.00 0.0000 z" />
    </clipPath>
    <g id="g11" clip-path="url(#clip1)">
      <g id="g9" stroke="#000000" stroke-opacity="1.0000" fill="none" stroke-linecap="butt" stroke-width="2.0000">
        <path id="path7" d="M 308.57 3.0000 L 308.57 314.00" />
      </g>
    </g>
    <clipPath id="clip2">
      <path id="path13" d="M 0.0000 0.0000 L 0.0000 314.00 L 644.00 314.00 L 644.00 0.0000 z" />
    </clipPath>
    <g id="g20" clip-path="url(#clip2)">
      <g id="g18" fill="#000000" stroke="none" fill-rule="evenodd" fill-opacity="1.0000">
        <path id="path16" d="M 308.57 2.0000 L 302.57 26.000 L 314.57 26.000" />
      </g>
    </g>
    <clipPath id="clip3">
      <path id="path22" d="M 0.0000 0.0000 L 0.0000 314.00 L 644.00 314.00 L 644.00 0.0000 z" />
    </clipPath>
    <g id="g29" clip-path="url(#clip3)">
      <g id="g27" stroke="#000000" stroke-opacity="1.0000" fill="none" stroke-linecap="butt" stroke-width="2.0000">
        <path id="path25" d="M 0.0000 265.11 L 641.00 265.11" />
      </g>
    </g>
    <clipPath id="clip4">
      <path id="path31" d="M 0.0000 0.0000 L 0.0000 314.00 L 644.00 314.00 L 644.00 0.0000 z" />
    </clipPath>
    <g id="g38" clip-path="url(#clip4)">
      <g id="g36" fill="#000000" stroke="none" fill-rule="evenodd" fill-opacity="1.0000">
        <path id="path34" d="M 642.00 265.11 L 618.00 259.11 L 618.00 271.11" />
      </g>
    </g>
    <clipPath id="clip5">
      <path id="path40" d="M 0.0000 0.0000 L 0.0000 314.00 L 644.00 314.00 L 644.00 0.0000 z" />
    </clipPath>
    <g id="g47" clip-path="url(#clip5)">
      <g id="g45" fill="#000000" stroke="none" fill-rule="nonzero" fill-opacity="1.0000">
        <path id="path43" d="M 4.6299 280.07 L 4.6299 278.90 L 10.863 278.90 L 10.863 280.07 z M 17.264 284.00 L 17.264 281.11 L 12.203 281.11 L 12.203 279.48 L 17.176 273.16 L 19.161 273.16 L 19.161 279.48 L 20.428 279.48 L 20.428 281.11 L 19.161 281.11 L 19.161 284.00 z M 13.939 279.48 L 17.308 279.48 L 17.308 275.23 z" />
      </g>
    </g>
    <clipPath id="clip6">
      <path id="path49" d="M 0.0000 0.0000 L 0.0000 314.00 L 644.00 314.00 L 644.00 0.0000 z" />
    </clipPath>
    <g id="g56" clip-path="url(#clip6)">
      <g id="g54" stroke="#000000" stroke-opacity="1.0000" fill="none" stroke-linecap="butt" stroke-width="2.0000">
        <path id="path52" d="M 12.910 265.11 L 12.910 268.11" />
      </g>
    </g>
    <clipPath id="clip7">
      <path id="path58" d="M 0.0000 0.0000 L 0.0000 314.00 L 644.00 314.00 L 644.00 0.0000 z" />
    </clipPath>
    <g id="g65" clip-path="url(#clip7)">
      <g id="g63" fill="#000000" stroke="none" fill-rule="nonzero" fill-opacity="1.0000">
        <path id="path61" d="M 78.630 280.07 L 78.630 278.90 L 84.863 278.90 L 84.863 280.07 z M 86.979 283.92 L 86.979 282.29 Q 88.591 282.92 89.638 282.92 Q 90.612 282.92 91.202 282.42 Q 91.792 281.92 91.792 281.09 Q 91.792 278.95 88.649 278.95 L 87.983 278.95 L 87.983 277.65 L 88.547 277.64 Q 91.491 277.64 91.491 275.72 Q 91.491 274.24 89.675 274.24 Q 88.481 274.24 87.126 274.85 L 87.126 273.37 Q 88.554 272.88 90.136 272.88 Q 91.813 272.88 92.762 273.57 Q 93.710 274.26 93.710 275.47 Q 93.710 277.39 91.315 278.18 Q 94.055 278.81 94.055 281.11 Q 94.055 282.57 92.956 283.42 Q 91.857 284.27 89.968 284.27 Q 88.364 284.27 86.979 283.92 z" />
      </g>
    </g>
    <clipPath id="clip8">
      <path id="path67" d="M 0.0000 0.0000 L 0.0000 314.00 L 644.00 314.00 L 644.00 0.0000 z" />
    </clipPath>
    <g id="g74" clip-path="url(#clip8)">
      <g id="g72" stroke="#000000" stroke-opacity="1.0000" fill="none" stroke-linecap="butt" stroke-width="2.0000">
        <path id="path70" d="M 86.825 265.11 L 86.825 268.11" />
      </g>
    </g>
    <clipPath id="clip9">
      <path id="path76" d="M 0.0000 0.0000 L 0.0000 314.00 L 644.00 314.00 L 644.00 0.0000 z" />
    </clipPath>
    <g id="g83" clip-path="url(#clip9)">
      <g id="g81" fill="#000000" stroke="none" fill-rule="nonzero" fill-opacity="1.0000">
        <path id="path79" d="M 152.63 280.07 L 152.63 278.90 L 158.86 278.90 L 158.86 280.07 z M 160.58 284.00 L 160.58 282.29 L 160.69 282.12 Q 161.57 280.96 162.48 280.16 L 163.37 279.38 Q 165.56 277.44 165.56 275.99 Q 165.56 274.29 163.62 274.29 Q 162.43 274.29 160.85 275.09 L 160.85 273.50 Q 162.51 272.89 164.06 272.89 Q 165.78 272.89 166.82 273.71 Q 167.86 274.52 167.86 275.89 Q 167.86 276.84 167.36 277.61 Q 166.85 278.39 165.58 279.42 L 164.85 280.00 Q 163.32 281.23 163.03 282.29 L 167.82 282.29 L 167.82 284.00 z" />
      </g>
    </g>
    <clipPath id="clip10">
      <path id="path85" d="M 0.0000 0.0000 L 0.0000 314.00 L 644.00 314.00 L 644.00 0.0000 z" />
    </clipPath>
    <g id="g92" clip-path="url(#clip10)">
      <g id="g90" stroke="#000000" stroke-opacity="1.0000" fill="none" stroke-linecap="butt" stroke-width="2.0000">
        <path id="path88" d="M 160.74 265.11 L 160.74 268.11" />
      </g>
    </g>
    <clipPath id="clip11">
      <path id="path94" d="M 0.0000 0.0000 L 0.0000 314.00 L 644.00 314.00 L 644.00 0.0000 z" />
    </clipPath>
    <g id="g101" clip-path="url(#clip11)">
      <g id="g99" fill="#000000" stroke="none" fill-rule="nonzero" fill-opacity="1.0000">
        <path id="path97" d="M 226.63 280.07 L 226.63 278.90 L 232.86 278.90 L 232.86 280.07 z M 235.61 284.00 L 235.61 282.73 L 237.78 282.73 L 237.78 274.73 L 235.61 275.28 L 235.61 273.97 L 239.95 272.89 L 239.95 282.73 L 242.12 282.73 L 242.12 284.00 z" />
      </g>
    </g>
    <clipPath id="clip12">
      <path id="path103" d="M 0.0000 0.0000 L 0.0000 314.00 L 644.00 314.00 L 644.00 0.0000 z" />
    </clipPath>
    <g id="g110" clip-path="url(#clip12)">
      <g id="g108" stroke="#000000" stroke-opacity="1.0000" fill="none" stroke-linecap="butt" stroke-width="2.0000">
        <path id="path106" d="M 234.65 265.11 L 234.65 268.11" />
      </g>
    </g>
    <clipPath id="clip13">
      <path id="path112" d="M 0.0000 0.0000 L 0.0000 314.00 L 644.00 314.00 L 644.00 0.0000 z" />
    </clipPath>
    <g id="g119" clip-path="url(#clip13)">
      <g id="g117" fill="#000000" stroke="none" fill-rule="nonzero" fill-opacity="1.0000">
        <path id="path115" d="M 318.90 284.27 Q 317.05 284.27 315.90 282.69 Q 314.75 281.11 314.75 278.58 Q 314.75 276.02 315.90 274.46 Q 317.06 272.89 318.95 272.89 Q 320.83 272.89 321.99 274.45 Q 323.15 276.02 323.15 278.55 Q 323.15 281.15 321.99 282.71 Q 320.83 284.27 318.90 284.27 z M 318.92 282.92 Q 320.85 282.92 320.85 278.58 Q 320.85 274.24 318.95 274.24 Q 317.05 274.24 317.05 278.57 Q 317.05 282.92 318.92 282.92 z" />
      </g>
    </g>
    <clipPath id="clip14">
      <path id="path121" d="M 0.0000 0.0000 L 0.0000 314.00 L 644.00 314.00 L 644.00 0.0000 z" />
    </clipPath>
    <g id="g128" clip-path="url(#clip14)">
      <g id="g126" stroke="#000000" stroke-opacity="1.0000" fill="none" stroke-linecap="butt" stroke-width="2.0000">
        <path id="path124" d="M 308.57 265.11 L 308.57 268.11" />
      </g>
    </g>
    <clipPath id="clip15">
      <path id="path130" d="M 0.0000 0.0000 L 0.0000 314.00 L 644.00 314.00 L 644.00 0.0000 z" />
    </clipPath>
    <g id="g137" clip-path="url(#clip15)">
      <g id="g135" fill="#000000" stroke="none" fill-rule="nonzero" fill-opacity="1.0000">
        <path id="path133" d="M 380.11 284.00 L 380.11 282.73 L 382.28 282.73 L 382.28 274.73 L 380.11 275.28 L 380.11 273.97 L 384.45 272.89 L 384.45 282.73 L 386.62 282.73 L 386.62 284.00 z" />
      </g>
    </g>
    <clipPath id="clip16">
      <path id="path139" d="M 0.0000 0.0000 L 0.0000 314.00 L 644.00 314.00 L 644.00 0.0000 z" />
    </clipPath>
    <g id="g146" clip-path="url(#clip16)">
      <g id="g144" stroke="#000000" stroke-opacity="1.0000" fill="none" stroke-linecap="butt" stroke-width="2.0000">
        <path id="path142" d="M 382.48 265.11 L 382.48 268.11" />
      </g>
    </g>
    <clipPath id="clip17">
      <path id="path148" d="M 0.0000 0.0000 L 0.0000 314.00 L 644.00 314.00 L 644.00 0.0000 z" />
    </clipPath>
    <g id="g155" clip-path="url(#clip17)">
      <g id="g153" fill="#000000" stroke="none" fill-rule="nonzero" fill-opacity="1.0000">
        <path id="path151" d="M 453.08 284.00 L 453.08 282.29 L 453.19 282.12 Q 454.07 280.96 454.98 280.16 L 455.87 279.38 Q 458.06 277.44 458.06 275.99 Q 458.06 274.29 456.12 274.29 Q 454.93 274.29 453.35 275.09 L 453.35 273.50 Q 455.01 272.89 456.56 272.89 Q 458.28 272.89 459.32 273.71 Q 460.36 274.52 460.36 275.89 Q 460.36 276.84 459.86 277.61 Q 459.35 278.39 458.08 279.42 L 457.35 280.00 Q 455.82 281.23 455.53 282.29 L 460.32 282.29 L 460.32 284.00 z" />
      </g>
    </g>
    <clipPath id="clip18">
      <path id="path157" d="M 0.0000 0.0000 L 0.0000 314.00 L 644.00 314.00 L 644.00 0.0000 z" />
    </clipPath>
    <g id="g164" clip-path="url(#clip18)">
      <g id="g162" stroke="#000000" stroke-opacity="1.0000" fill="none" stroke-linecap="butt" stroke-width="2.0000">
        <path id="path160" d="M 456.40 265.11 L 456.40 268.11" />
      </g>
    </g>
    <clipPath id="clip19">
      <path id="path166" d="M 0.0000 0.0000 L 0.0000 314.00 L 644.00 314.00 L 644.00 0.0000 z" />
    </clipPath>
    <g id="g173" clip-path="url(#clip19)">
      <g id="g171" fill="#000000" stroke="none" fill-rule="nonzero" fill-opacity="1.0000">
        <path id="path169" d="M 527.48 283.92 L 527.48 282.29 Q 529.09 282.92 530.14 282.92 Q 531.11 282.92 531.70 282.42 Q 532.29 281.92 532.29 281.09 Q 532.29 278.95 529.15 278.95 L 528.48 278.95 L 528.48 277.65 L 529.05 277.64 Q 531.99 277.64 531.99 275.72 Q 531.99 274.24 530.17 274.24 Q 528.98 274.24 527.63 274.85 L 527.63 273.37 Q 529.05 272.88 530.64 272.88 Q 532.31 272.88 533.26 273.57 Q 534.21 274.26 534.21 275.47 Q 534.21 277.39 531.82 278.18 Q 534.55 278.81 534.55 281.11 Q 534.55 282.57 533.46 283.42 Q 532.36 284.27 530.47 284.27 Q 528.86 284.27 527.48 283.92 z" />
      </g>
    </g>
    <clipPath id="clip20">
      <path id="path175" d="M 0.0000 0.0000 L 0.0000 314.00 L 644.00 314.00 L 644.00 0.0000 z" />
    </clipPath>
    <g id="g182" clip-path="url(#clip20)">
      <g id="g180" stroke="#000000" stroke-opacity="1.0000" fill="none" stroke-linecap="butt" stroke-width="2.0000">
        <path id="path178" d="M 530.31 265.11 L 530.31 268.11" />
      </g>
    </g>
    <clipPath id="clip21">
      <path id="path184" d="M 0.0000 0.0000 L 0.0000 314.00 L 644.00 314.00 L 644.00 0.0000 z" />
    </clipPath>
    <g id="g191" clip-path="url(#clip21)">
      <g id="g189" fill="#000000" stroke="none" fill-rule="nonzero" fill-opacity="1.0000">
        <path id="path187" d="M 605.76 284.00 L 605.76 281.11 L 600.70 281.11 L 600.70 279.48 L 605.68 273.16 L 607.66 273.16 L 607.66 279.48 L 608.93 279.48 L 608.93 281.11 L 607.66 281.11 L 607.66 284.00 z M 602.44 279.48 L 605.81 279.48 L 605.81 275.23 z" />
      </g>
    </g>
    <clipPath id="clip22">
      <path id="path193" d="M 0.0000 0.0000 L 0.0000 314.00 L 644.00 314.00 L 644.00 0.0000 z" />
    </clipPath>
    <g id="g200" clip-path="url(#clip22)">
      <g id="g198" stroke="#000000" stroke-opacity="1.0000" fill="none" stroke-linecap="butt" stroke-width="2.0000">
        <path id="path196" d="M 604.23 265.11 L 604.23 268.11" />
      </g>
    </g>
    <clipPath id="clip23">
      <path id="path202" d="M 0.0000 0.0000 L 0.0000 314.00 L 644.00 314.00 L 644.00 0.0000 z" />
    </clipPath>
    <g id="g209" clip-path="url(#clip23)">
      <g id="g207" fill="#000000" stroke="none" fill-rule="nonzero" fill-opacity="1.0000">
        <path id="path205" d="M 295.90 263.27 Q 294.05 263.27 292.90 261.69 Q 291.75 260.11 291.75 257.58 Q 291.75 255.02 292.90 253.46 Q 294.06 251.89 295.95 251.89 Q 297.83 251.89 298.99 253.45 Q 300.15 255.02 300.15 257.55 Q 300.15 260.15 298.99 261.71 Q 297.83 263.27 295.90 263.27 z M 295.92 261.92 Q 297.85 261.92 297.85 257.58 Q 297.85 253.24 295.95 253.24 Q 294.05 253.24 294.05 257.57 Q 294.05 261.92 295.92 261.92 z" />
      </g>
    </g>
    <clipPath id="clip24">
      <path id="path211" d="M 0.0000 0.0000 L 0.0000 314.00 L 644.00 314.00 L 644.00 0.0000 z" />
    </clipPath>
    <g id="g218" clip-path="url(#clip24)">
      <g id="g216" fill="#000000" stroke="none" fill-rule="nonzero" fill-opacity="1.0000">
        <path id="path214" d="M 293.11 197.00 L 293.11 195.73 L 295.28 195.73 L 295.28 187.73 L 293.11 188.28 L 293.11 186.97 L 297.45 185.89 L 297.45 195.73 L 299.62 195.73 L 299.62 197.00 z" />
      </g>
    </g>
    <clipPath id="clip25">
      <path id="path220" d="M 0.0000 0.0000 L 0.0000 314.00 L 644.00 314.00 L 644.00 0.0000 z" />
    </clipPath>
    <g id="g227" clip-path="url(#clip25)">
      <g id="g225" stroke="#000000" stroke-opacity="1.0000" fill="none" stroke-linecap="butt" stroke-width="2.0000">
        <path id="path223" d="M 305.57 191.20 L 308.57 191.20" />
      </g>
    </g>
    <clipPath id="clip26">
      <path id="path229" d="M 0.0000 0.0000 L 0.0000 314.00 L 644.00 314.00 L 644.00 0.0000 z" />
    </clipPath>
    <g id="g236" clip-path="url(#clip26)">
      <g id="g234" fill="#000000" stroke="none" fill-rule="nonzero" fill-opacity="1.0000">
        <path id="path232" d="M 292.08 123.00 L 292.08 121.29 L 292.19 121.12 Q 293.07 119.96 293.98 119.16 L 294.87 118.38 Q 297.06 116.44 297.06 114.99 Q 297.06 113.29 295.12 113.29 Q 293.93 113.29 292.35 114.09 L 292.35 112.50 Q 294.01 111.89 295.56 111.89 Q 297.28 111.89 298.32 112.71 Q 299.36 113.52 299.36 114.89 Q 299.36 115.84 298.86 116.61 Q 298.35 117.39 297.08 118.42 L 296.35 119.00 Q 294.82 120.23 294.53 121.29 L 299.32 121.29 L 299.32 123.00 z" />
      </g>
    </g>
    <clipPath id="clip27">
      <path id="path238" d="M 0.0000 0.0000 L 0.0000 314.00 L 644.00 314.00 L 644.00 0.0000 z" />
    </clipPath>
    <g id="g245" clip-path="url(#clip27)">
      <g id="g243" stroke="#000000" stroke-opacity="1.0000" fill="none" stroke-linecap="butt" stroke-width="2.0000">
        <path id="path241" d="M 305.57 117.28 L 308.57 117.28" />
      </g>
    </g>
    <clipPath id="clip28">
      <path id="path247" d="M 0.0000 0.0000 L 0.0000 314.00 L 644.00 314.00 L 644.00 0.0000 z" />
    </clipPath>
    <g id="g254" clip-path="url(#clip28)">
      <g id="g252" fill="#000000" stroke="none" fill-rule="nonzero" fill-opacity="1.0000">
        <path id="path250" d="M 292.48 48.919 L 292.48 47.293 Q 294.09 47.916 295.14 47.916 Q 296.11 47.916 296.70 47.418 Q 297.29 46.920 297.29 46.092 Q 297.29 43.946 294.15 43.946 L 293.48 43.946 L 293.48 42.650 L 294.05 42.643 Q 296.99 42.643 296.99 40.716 Q 296.99 39.244 295.17 39.244 Q 293.98 39.244 292.63 39.852 L 292.63 38.373 Q 294.05 37.882 295.64 37.882 Q 297.31 37.882 298.26 38.570 Q 299.21 39.259 299.21 40.475 Q 299.21 42.394 296.82 43.185 Q 299.55 43.814 299.55 46.114 Q 299.55 47.572 298.46 48.421 Q 297.36 49.271 295.47 49.271 Q 293.86 49.271 292.48 48.919 z" />
      </g>
    </g>
    <clipPath id="clip29">
      <path id="path256" d="M 0.0000 0.0000 L 0.0000 314.00 L 644.00 314.00 L 644.00 0.0000 z" />
    </clipPath>
    <g id="g263" clip-path="url(#clip29)">
      <g id="g261" stroke="#000000" stroke-opacity="1.0000" fill="none" stroke-linecap="butt" stroke-width="2.0000">
        <path id="path259" d="M 305.57 43.369 L 308.57 43.369" />
      </g>
    </g>
    <clipPath id="clip30">
      <path id="path265" d="M 0.0000 0.0000 L 0.0000 314.00 L 644.00 314.00 L 644.00 0.0000 z" />
    </clipPath>
    <g id="g272" clip-path="url(#clip30)">
      <g id="g270" stroke="#c0c0c0" stroke-opacity="1.0000" fill="none" stroke-linecap="round" stroke-linejoin="round">
        <path id="path268" d="M 12.910 0.0000 L 12.910 265.11" />
      </g>
    </g>
    <clipPath id="clip31">
      <path id="path274" d="M 0.0000 0.0000 L 0.0000 314.00 L 644.00 314.00 L 644.00 0.0000 z" />
    </clipPath>
    <g id="g281" clip-path="url(#clip31)">
      <g id="g279" stroke="#c0c0c0" stroke-opacity="1.0000" fill="none" stroke-linecap="round" stroke-linejoin="round">
        <path id="path277" d="M 12.910 291.11 L 12.910 314.00" />
      </g>
    </g>
    <clipPath id="clip32">
      <path id="path283" d="M 0.0000 0.0000 L 0.0000 314.00 L 644.00 314.00 L 644.00 0.0000 z" />
    </clipPath>
    <g id="g290" clip-path="url(#clip32)">
      <g id="g288" stroke="#c0c0c0" stroke-opacity="1.0000" fill="none" stroke-linecap="round" stroke-linejoin="round">
        <path id="path286" d="M 12.910 0.0000 L 12.910 265.11" />
      </g>
    </g>
    <clipPath id="clip33">
      <path id="path292" d="M 0.0000 0.0000 L 0.0000 314.00 L 644.00 314.00 L 644.00 0.0000 z" />
    </clipPath>
    <g id="g299" clip-path="url(#clip33)">
      <g id="g297" stroke="#c0c0c0" stroke-opacity="1.0000" fill="none" stroke-linecap="round" stroke-linejoin="round">
        <path id="path295" d="M 12.910 291.11 L 12.910 314.00" />
      </g>
    </g>
    <clipPath id="clip34">
      <path id="path301" d="M 0.0000 0.0000 L 0.0000 314.00 L 644.00 314.00 L 644.00 0.0000 z" />
    </clipPath>
    <g id="g308" clip-path="url(#clip34)">
      <g id="g306" stroke="#c0c0c0" stroke-opacity="1.0000" fill="none" stroke-linecap="round" stroke-linejoin="round">
        <path id="path304" d="M 49.867 0.0000 L 49.867 314.00" />
      </g>
    </g>
    <clipPath id="clip35">
      <path id="path310" d="M 0.0000 0.0000 L 0.0000 314.00 L 644.00 314.00 L 644.00 0.0000 z" />
    </clipPath>
    <g id="g317" clip-path="url(#clip35)">
      <g id="g315" stroke="#c0c0c0" stroke-opacity="1.0000" fill="none" stroke-linecap="round" stroke-linejoin="round">
        <path id="path313" d="M 86.825 0.0000 L 86.825 265.11" />
      </g>
    </g>
    <clipPath id="clip36">
      <path id="path319" d="M 0.0000 0.0000 L 0.0000 314.00 L 644.00 314.00 L 644.00 0.0000 z" />
    </clipPath>
    <g id="g326" clip-path="url(#clip36)">
      <g id="g324" stroke="#c0c0c0" stroke-opacity="1.0000" fill="none" stroke-linecap="round" stroke-linejoin="round">
        <path id="path322" d="M 86.825 291.11 L 86.825 314.00" />
      </g>
    </g>
    <clipPath id="clip37">
      <path id="path328" d="M 0.0000 0.0000 L 0.0000 314.00 L 644.00 314.00 L 644.00 0.0000 z" />
    </clipPath>
    <g id="g335" clip-path="url(#clip37)">
      <g id="g333" stroke="#c0c0c0" stroke-opacity="1.0000" fill="none" stroke-linecap="round" stroke-linejoin="round">
        <path id="path331" d="M 123.78 0.0000 L 123.78 314.00" />
      </g>
    </g>
    <clipPath id="clip38">
      <path id="path337" d="M 0.0000 0.0000 L 0.0000 314.00 L 644.00 314.00 L 644.00 0.0000 z" />
    </clipPath>
    <g id="g344" clip-path="url(#clip38)">
      <g id="g342" stroke="#c0c0c0" stroke-opacity="1.0000" fill="none" stroke-linecap="round" stroke-linejoin="round">
        <path id="path340" d="M 160.74 0.0000 L 160.74 265.11" />
      </g>
    </g>
    <clipPath id="clip39">
      <path id="path346" d="M 0.0000 0.0000 L 0.0000 314.00 L 644.00 314.00 L 644.00 0.0000 z" />
    </clipPath>
    <g id="g353" clip-path="url(#clip39)">
      <g id="g351" stroke="#c0c0c0" stroke-opacity="1.0000" fill="none" stroke-linecap="round" stroke-linejoin="round">
        <path id="path349" d="M 160.74 291.11 L 160.74 314.00" />
      </g>
    </g>
    <clipPath id="clip40">
      <path id="path355" d="M 0.0000 0.0000 L 0.0000 314.00 L 644.00 314.00 L 644.00 0.0000 z" />
    </clipPath>
    <g id="g362" clip-path="url(#clip40)">
      <g id="g360" stroke="#c0c0c0" stroke-opacity="1.0000" fill="none" stroke-linecap="round" stroke-linejoin="round">
        <path id="path358" d="M 197.70 0.0000 L 197.70 314.00" />
      </g>
    </g>
    <clipPath id="clip41">
      <path id="path364" d="M 0.0000 0.0000 L 0.0000 314.00 L 644.00 314.00 L 644.00 0.0000 z" />
    </clipPath>
    <g id="g371" clip-path="url(#clip41)">
      <g id="g369" stroke="#c0c0c0" stroke-opacity="1.0000" fill="none" stroke-linecap="round" stroke-linejoin="round">
        <path id="path367" d="M 234.65 0.0000 L 234.65 265.11" />
      </g>
    </g>
    <clipPath id="clip42">
      <path id="path373" d="M 0.0000 0.0000 L 0.0000 314.00 L 644.00 314.00 L 644.00 0.0000 z" />
    </clipPath>
    <g id="g380" clip-path="url(#clip42)">
      <g id="g378" stroke="#c0c0c0" stroke-opacity="1.0000" fill="none" stroke-linecap="round" stroke-linejoin="round">
        <path id="path376" d="M 234.65 291.11 L 234.65 314.00" />
      </g>
    </g>
    <clipPath id="clip43">
      <path id="path382" d="M 0.0000 0.0000 L 0.0000 314.00 L 644.00 314.00 L 644.00 0.0000 z" />
    </clipPath>
    <g id="g389" clip-path="url(#clip43)">
      <g id="g387" stroke="#c0c0c0" stroke-opacity="1.0000" fill="none" stroke-linecap="round" stroke-linejoin="round">
        <path id="path385" d="M 271.61 0.0000 L 271.61 314.00" />
      </g>
    </g>
    <clipPath id="clip44">
      <path id="path391" d="M 0.0000 0.0000 L 0.0000 314.00 L 644.00 314.00 L 644.00 0.0000 z" />
    </clipPath>
    <g id="g398" clip-path="url(#clip44)">
      <g id="g396" stroke="#c0c0c0" stroke-opacity="1.0000" fill="none" stroke-linecap="round" stroke-linejoin="round">
        <path id="path394" d="M 345.53 0.0000 L 345.53 314.00" />
      </g>
    </g>
    <clipPath id="clip45">
      <path id="path400" d="M 0.0000 0.0000 L 0.0000 314.00 L 644.00 314.00 L 644.00 0.0000 z" />
    </clipPath>
    <g id="g407" clip-path="url(#clip45)">
      <g id="g405" stroke="#c0c0c0" stroke-opacity="1.0000" fill="none" stroke-linecap="round" stroke-linejoin="round">
        <path id="path403" d="M 382.48 0.0000 L 382.48 265.11" />
      </g>
    </g>
    <clipPath id="clip46">
      <path id="path409" d="M 0.0000 0.0000 L 0.0000 314.00 L 644.00 314.00 L 644.00 0.0000 z" />
    </clipPath>
    <g id="g416" clip-path="url(#clip46)">
      <g id="g414" stroke="#c0c0c0" stroke-opacity="1.0000" fill="none" stroke-linecap="round" stroke-linejoin="round">
        <path id="path412" d="M 382.48 291.11 L 382.48 314.00" />
      </g>
    </g>
    <clipPath id="clip47">
      <path id="path418" d="M 0.0000 0.0000 L 0.0000 314.00 L 644.00 314.00 L 644.00 0.0000 z" />
    </clipPath>
    <g id="g425" clip-path="url(#clip47)">
      <g id="g423" stroke="#c0c0c0" stroke-opacity="1.0000" fill="none" stroke-linecap="round" stroke-linejoin="round">
        <path id="path421" d="M 419.44 0.0000 L 419.44 314.00" />
      </g>
    </g>
    <clipPath id="clip48">
      <path id="path427" d="M 0.0000 0.0000 L 0.0000 314.00 L 644.00 314.00 L 644.00 0.0000 z" />
    </clipPath>
    <g id="g434" clip-path="url(#clip48)">
      <g id="g432" stroke="#c0c0c0" stroke-opacity="1.0000" fill="none" stroke-linecap="round" stroke-linejoin="round">
        <path id="path430" d="M 456.40 0.0000 L 456.40 265.11" />
      </g>
    </g>
    <clipPath id="clip49">
      <path id="path436" d="M 0.0000 0.0000 L 0.0000 314.00 L 644.00 314.00 L 644.00 0.0000 z" />
    </clipPath>
    <g id="g443" clip-path="url(#clip49)">
      <g id="g441" stroke="#c0c0c0" stroke-opacity="1.0000" fill="none" stroke-linecap="round" stroke-linejoin="round">
        <path id="path439" d="M 456.40 291.11 L 456.40 314.00" />
      </g>
    </g>
    <clipPath id="clip50">
      <path id="path445" d="M 0.0000 0.0000 L 0.0000 314.00 L 644.00 314.00 L 644.00 0.0000 z" />
    </clipPath>
    <g id="g452" clip-path="url(#clip50)">
      <g id="g450" stroke="#c0c0c0" stroke-opacity="1.0000" fill="none" stroke-linecap="round" stroke-linejoin="round">
        <path id="path448" d="M 493.36 0.0000 L 493.36 314.00" />
      </g>
    </g>
    <clipPath id="clip51">
      <path id="path454" d="M 0.0000 0.0000 L 0.0000 314.00 L 644.00 314.00 L 644.00 0.0000 z" />
    </clipPath>
    <g id="g461" clip-path="url(#clip51)">
      <g id="g459" stroke="#c0c0c0" stroke-opacity="1.0000" fill="none" stroke-linecap="round" stroke-linejoin="round">
        <path id="path457" d="M 530.31 0.0000 L 530.31 265.11" />
      </g>
    </g>
    <clipPath id="clip52">
      <path id="path463" d="M 0.0000 0.0000 L 0.0000 314.00 L 644.00 314.00 L 644.00 0.0000 z" />
    </clipPath>
    <g id="g470" clip-path="url(#clip52)">
      <g id="g468" stroke="#c0c0c0" stroke-opacity="1.0000" fill="none" stroke-linecap="round" stroke-linejoin="round">
        <path id="path466" d="M 530.31 291.11 L 530.31 314.00" />
      </g>
    </g>
    <clipPath id="clip53">
      <path id="path472" d="M 0.0000 0.0000 L 0.0000 314.00 L 644.00 314.00 L 644.00 0.0000 z" />
    </clipPath>
    <g id="g479" clip-path="url(#clip53)">
      <g id="g477" stroke="#c0c0c0" stroke-opacity="1.0000" fill="none" stroke-linecap="round" stroke-linejoin="round">
        <path id="path475" d="M 567.27 0.0000 L 567.27 314.00" />
      </g>
    </g>
    <clipPath id="clip54">
      <path id="path481" d="M 0.0000 0.0000 L 0.0000 314.00 L 644.00 314.00 L 644.00 0.0000 z" />
    </clipPath>
    <g id="g488" clip-path="url(#clip54)">
      <g id="g486" stroke="#c0c0c0" stroke-opacity="1.0000" fill="none" stroke-linecap="round" stroke-linejoin="round">
        <path id="path484" d="M 604.23 0.0000 L 604.23 265.11" />
      </g>
    </g>
    <clipPath id="clip55">
      <path id="path490" d="M 0.0000 0.0000 L 0.0000 314.00 L 644.00 314.00 L 644.00 0.0000 z" />
    </clipPath>
    <g id="g497" clip-path="url(#clip55)">
      <g id="g495" stroke="#c0c0c0" stroke-opacity="1.0000" fill="none" stroke-linecap="round" stroke-linejoin="round">
        <path id="path493" d="M 604.23 291.11 L 604.23 314.00" />
      </g>
    </g>
    <clipPath id="clip56">
      <path id="path499" d="M 0.0000 0.0000 L 0.0000 314.00 L 644.00 314.00 L 644.00 0.0000 z" />
    </clipPath>
    <g id="g506" clip-path="url(#clip56)">
      <g id="g504" stroke="#c0c0c0" stroke-opacity="1.0000" fill="none" stroke-linecap="round" stroke-linejoin="round">
        <path id="path502" d="M 641.19 0.0000 L 641.19 314.00" />
      </g>
    </g>
    <clipPath id="clip57">
      <path id="path508" d="M 0.0000 0.0000 L 0.0000 314.00 L 644.00 314.00 L 644.00 0.0000 z" />
    </clipPath>
    <g id="g515" clip-path="url(#clip57)">
      <g id="g513" stroke="#c0c0c0" stroke-opacity="1.0000" fill="none" stroke-linecap="round" stroke-linejoin="round">
        <path id="path511" d="M 0.0000 6.4116 L 644.00 6.4116" />
      </g>
    </g>
    <clipPath id="clip58">
      <path id="path517" d="M 0.0000 0.0000 L 0.0000 314.00 L 644.00 314.00 L 644.00 0.0000 z" />
    </clipPath>
    <g id="g524" clip-path="url(#clip58)">
      <g id="g522" stroke="#c0c0c0" stroke-opacity="1.0000" fill="none" stroke-linecap="round" stroke-linejoin="round">
        <path id="path520" d="M 0.0000 6.4116 L 644.00 6.4116" />
      </g>
    </g>
    <clipPath id="clip59">
      <path id="path526" d="M 0.0000 0.0000 L 0.0000 314.00 L 644.00 314.00 L 644.00 0.0000 z" />
    </clipPath>
    <g id="g533" clip-path="url(#clip59)">
      <g id="g531" stroke="#c0c0c0" stroke-opacity="1.0000" fill="none" stroke-linecap="round" stroke-linejoin="round">
        <path id="path529" d="M 0.0000 43.369 L 288.67 43.369" />
      </g>
    </g>
    <clipPath id="clip60">
      <path id="path535" d="M 0.0000 0.0000 L 0.0000 314.00 L 644.00 314.00 L 644.00 0.0000 z" />
    </clipPath>
    <g id="g542" clip-path="url(#clip60)">
      <g id="g540" stroke="#c0c0c0" stroke-opacity="1.0000" fill="none" stroke-linecap="round" stroke-linejoin="round">
        <path id="path538" d="M 308.57 43.369 L 644.00 43.369" />
      </g>
    </g>
    <clipPath id="clip61">
      <path id="path544" d="M 0.0000 0.0000 L 0.0000 314.00 L 644.00 314.00 L 644.00 0.0000 z" />
    </clipPath>
    <g id="g551" clip-path="url(#clip61)">
      <g id="g549" stroke="#c0c0c0" stroke-opacity="1.0000" fill="none" stroke-linecap="round" stroke-linejoin="round">
        <path id="path547" d="M 0.0000 80.326 L 644.00 80.326" />
      </g>
    </g>
    <clipPath id="clip62">
      <path id="path553" d="M 0.0000 0.0000 L 0.0000 314.00 L 644.00 314.00 L 644.00 0.0000 z" />
    </clipPath>
    <g id="g560" clip-path="url(#clip62)">
      <g id="g558" stroke="#c0c0c0" stroke-opacity="1.0000" fill="none" stroke-linecap="round" stroke-linejoin="round">
        <path id="path556" d="M 0.0000 117.28 L 288.67 117.28" />
      </g>
    </g>
    <clipPath id="clip63">
      <path id="path562" d="M 0.0000 0.0000 L 0.0000 314.00 L 644.00 314.00 L 644.00 0.0000 z" />
    </clipPath>
    <g id="g569" clip-path="url(#clip63)">
      <g id="g567" stroke="#c0c0c0" stroke-opacity="1.0000" fill="none" stroke-linecap="round" stroke-linejoin="round">
        <path id="path565" d="M 308.57 117.28 L 644.00 117.28" />
      </g>
    </g>
    <clipPath id="clip64">
      <path id="path571" d="M 0.0000 0.0000 L 0.0000 314.00 L 644.00 314.00 L 644.00 0.0000 z" />
    </clipPath>
    <g id="g578" clip-path="url(#clip64)">
      <g id="g576" stroke="#c0c0c0" stroke-opacity="1.0000" fill="none" stroke-linecap="round" stroke-linejoin="round">
        <path id="path574" d="M 0.0000 154.24 L 644.00 154.24" />
      </g>
    </g>
    <clipPath id="clip65">
      <path id="path580" d="M 0.0000 0.0000 L 0.0000 314.00 L 644.00 314.00 L 644.00 0.0000 z" />
    </clipPath>
    <g id="g587" clip-path="url(#clip65)">
      <g id="g585" stroke="#c0c0c0" stroke-opacity="1.0000" fill="none" stroke-linecap="round" stroke-linejoin="round">
        <path id="path583" d="M 0.0000 191.20 L 288.67 191.20" />
      </g>
    </g>
    <clipPath id="clip66">
      <path id="path589" d="M 0.0000 0.0000 L 0.0000 314.00 L 644.00 314.00 L 644.00 0.0000 z" />
    </clipPath>
    <g id="g596" clip-path="url(#clip66)">
      <g id="g594" stroke="#c0c0c0" stroke-opacity="1.0000" fill="none" stroke-linecap="round" stroke-linejoin="round">
        <path id="path592" d="M 308.57 191.20 L 644.00 191.20" />
      </g>
    </g>
    <clipPath id="clip67">
      <path id="path598" d="M 0.0000 0.0000 L 0.0000 314.00 L 644.00 314.00 L 644.00 0.0000 z" />
    </clipPath>
    <g id="g605" clip-path="url(#clip67)">
      <g id="g603" stroke="#c0c0c0" stroke-opacity="1.0000" fill="none" stroke-linecap="round" stroke-linejoin="round">
        <path id="path601" d="M 0.0000 228.16 L 644.00 228.16" />
      </g>
    </g>
    <clipPath id="clip68">
      <path id="path607" d="M 0.0000 0.0000 L 0.0000 314.00 L 644.00 314.00 L 644.00 0.0000 z" />
    </clipPath>
    <g id="g614" clip-path="url(#clip68)">
      <g id="g612" stroke="#c0c0c0" stroke-opacity="1.0000" fill="none" stroke-linecap="round" stroke-linejoin="round">
        <path id="path610" d="M 0.0000 302.07 L 644.00 302.07" />
      </g>
    </g>
    <g id="misc" />
    <g id="layer0">
      <clipPath id="clip69">
        <path id="path617" d="M 0.0000 0.0000 L 0.0000 314.00 L 644.00 314.00 L 644.00 0.0000 z" />
      </clipPath>
      <g id="g628" clip-path="url(#clip69)">
        <g id="g626" stroke="#0000ff" stroke-opacity="1.0000" fill="none" stroke-linecap="round" stroke-width="3.5000" stroke-linejoin="round">
          <path id="path620" d="M 86.825 265.11 L 90.562 261.72 M 90.562 261.72 L 95.594 257.57 L 100.62 253.72 M 100.62 253.72 L 105.66 250.11 L 110.69 246.69 L 115.72 243.45 L 120.75 240.36 M 120.75 240.36 L 125.78 237.42 L 130.81 234.61 L 135.84 231.92 L 140.88 229.35 L 145.91 226.89 L 150.94 224.54 L 155.97 222.29 L 161.00 220.13 M 161.00 220.13 L 166.03 218.07 L 171.06 216.10 L 176.09 214.22 L 181.12 212.42 L 186.16 210.71 L 191.19 209.08 L 196.22 207.53 L 201.25 206.05 L 206.28 204.65 L 211.31 203.33 L 216.34 202.08 L 221.38 200.90 L 226.41 199.80 L 231.44 198.76 L 236.47 197.79 L 241.50 196.90 L 246.53 196.07 L 251.56 195.30 L 256.59 194.60 L 261.62 193.97 L 266.66 193.41 L 271.69 192.91 L 276.72 192.47 L 281.75 192.10 L 286.78 191.79 L 291.81 191.55 L 296.84 191.37 L 301.88 191.25 L 306.91 191.20 L 311.94 191.21 L 316.97 191.29 L 322.00 191.42 M 322.00 191.42 L 327.03 191.63 L 332.06 191.89 L 337.09 192.22 L 342.12 192.61 L 347.16 193.07 L 352.19 193.59 L 357.22 194.18 L 362.25 194.83 L 367.28 195.55 L 372.31 196.34 L 377.34 197.19 L 382.38 198.11 L 387.41 199.10 L 392.44 200.16 L 397.47 201.29 L 402.50 202.50 L 407.53 203.77 L 412.56 205.12 L 417.59 206.54 L 422.62 208.04 L 427.66 209.62 L 432.69 211.28 L 437.72 213.02 L 442.75 214.85 L 447.78 216.76 L 452.81 218.76 L 457.84 220.85 L 462.88 223.04 L 467.91 225.32 L 472.94 227.71 L 477.97 230.21 L 483.00 232.82 M 483.00 232.82 L 488.03 235.55 L 493.06 238.40 L 498.09 241.39 L 503.12 244.53 L 508.16 247.83 L 513.19 251.31 L 518.22 255.00 L 523.25 258.94 M 523.25 258.94 L 528.28 263.22 M 528.28 263.22 L 530.31 265.11" />
          <title id="title622">Function f</title>
          <desc id="desc624">Function f: f(x) = (xÃ&#130;Â² - aÃ&#130;Â²) (-2a + sqrt(aÃ&#130;Â² - xÃ&#130;Â²)) / (3aÃ&#130;Â² + xÃ&#130;Â²)</desc>
        </g>
      </g>
      <clipPath id="clip70">
        <path id="path630" d="M 0.0000 0.0000 L 0.0000 314.00 L 644.00 314.00 L 644.00 0.0000 z" />
      </clipPath>
      <g id="g641" clip-path="url(#clip70)">
        <g id="g639" stroke="#0000ff" stroke-opacity="1.0000" fill="none" stroke-linecap="round" stroke-width="3.5000" stroke-linejoin="round">
          <path id="path633" d="M 86.825 265.11 L 90.562 261.03 M 90.562 261.03 L 95.594 255.13 L 100.62 248.93 M 100.62 248.93 L 105.66 242.53 L 110.69 235.96 L 115.72 229.25 L 120.75 222.44 M 120.75 222.44 L 125.78 215.55 L 130.81 208.59 L 135.84 201.60 L 140.88 194.57 L 145.91 187.54 L 150.94 180.52 L 155.97 173.52 L 161.00 166.57 M 161.00 166.57 L 166.03 159.66 L 171.06 152.83 L 176.09 146.09 L 181.12 139.44 L 186.16 132.92 L 191.19 126.52 L 196.22 120.26 L 201.25 114.17 L 206.28 108.24 L 211.31 102.50 L 216.34 96.960 L 221.38 91.630 L 226.41 86.525 L 231.44 81.655 L 236.47 77.032 L 241.50 72.669 L 246.53 68.574 L 251.56 64.758 L 256.59 61.231 L 261.62 58.002 L 266.66 55.077 L 271.69 52.465 L 276.72 50.173 L 281.75 48.205 L 286.78 46.567 L 291.81 45.264 L 296.84 44.298 L 301.88 43.672 L 306.91 43.388 L 311.94 43.446 L 316.97 43.846 L 322.00 44.587 M 322.00 44.587 L 327.03 45.668 L 332.06 47.085 L 337.09 48.835 L 342.12 50.914 L 347.16 53.315 L 352.19 56.034 L 357.22 59.063 L 362.25 62.394 L 367.28 66.020 L 372.31 69.931 L 377.34 74.118 L 382.38 78.571 L 387.41 83.278 L 392.44 88.229 L 397.47 93.412 L 402.50 98.815 L 407.53 104.42 L 412.56 110.23 L 417.59 116.21 L 422.62 122.37 L 427.66 128.67 L 432.69 135.11 L 437.72 141.68 L 442.75 148.36 L 447.78 155.14 L 452.81 162.00 L 457.84 168.92 L 462.88 175.89 L 467.91 182.90 L 472.94 189.93 L 477.97 196.96 L 483.00 203.97 M 483.00 203.97 L 488.03 210.96 L 493.06 217.89 L 498.09 224.76 L 503.12 231.54 L 508.16 238.20 L 513.19 244.72 L 518.22 251.06 L 523.25 257.17 M 523.25 257.17 L 528.28 262.94 M 528.28 262.94 L 530.31 265.11" />
          <title id="title635">Function g</title>
          <desc id="desc637">Function g: g(x) = (xÃ&#130;Â² - aÃ&#130;Â²) (-2a - sqrt(aÃ&#130;Â² - xÃ&#130;Â²)) / (3aÃ&#130;Â² + xÃ&#130;Â²)</desc>
        </g>
      </g>
      <clipPath id="clip71">
        <path id="path643" d="M 0.0000 0.0000 L 0.0000 314.00 L 644.00 314.00 L 644.00 0.0000 z" />
      </clipPath>
      <g id="g654" clip-path="url(#clip71)">
        <g id="g652" stroke="#000000" stroke-opacity=".39216" fill="none" stroke-linecap="round" stroke-width="5.0000" stroke-linejoin="round">
          <path id="path646" d="M 44.000 417.00 L 244.00 417.00" />
          <title id="title648">Number a</title>
          <desc id="desc650">a = 3</desc>
        </g>
      </g>
      <clipPath id="clip72">
        <path id="path656" d="M 0.0000 0.0000 L 0.0000 314.00 L 644.00 314.00 L 644.00 0.0000 z" />
      </clipPath>
      <g id="g667" clip-path="url(#clip72)">
        <g id="g665" fill="#000000" stroke="none" fill-rule="nonzero" fill-opacity=".39216">
          <path id="path659" d="M 213.00 417.50 C 213.00 422.19 209.19 426.00 204.50 426.00 C 199.81 426.00 196.00 422.19 196.00 417.50 C 196.00 412.81 199.81 409.00 204.50 409.00 C 209.19 409.00 213.00 412.81 213.00 417.50 z" />
          <title id="title661">Number a</title>
          <desc id="desc663">a = 3</desc>
        </g>
      </g>
      <clipPath id="clip73">
        <path id="path669" d="M 0.0000 0.0000 L 0.0000 314.00 L 644.00 314.00 L 644.00 0.0000 z" />
      </clipPath>
      <g id="g680" clip-path="url(#clip73)">
        <g id="g678" stroke="#000000" stroke-opacity=".39216" fill="none" stroke-linecap="round" stroke-linejoin="round">
          <path id="path672" d="M 213.00 417.50 C 213.00 422.19 209.19 426.00 204.50 426.00 C 199.81 426.00 196.00 422.19 196.00 417.50 C 196.00 412.81 199.81 409.00 204.50 409.00 C 209.19 409.00 213.00 412.81 213.00 417.50 z" />
          <title id="title674">Number a</title>
          <desc id="desc676">a = 3</desc>
        </g>
      </g>
      <clipPath id="clip74">
        <path id="path682" d="M 0.0000 0.0000 L 0.0000 314.00 L 644.00 314.00 L 644.00 0.0000 z" />
      </clipPath>
      <g id="g693" clip-path="url(#clip74)">
        <g id="g691" fill="#000000" stroke="none" fill-rule="nonzero" fill-opacity="1.0000">
          <path id="path685" d="M 210.00 417.50 C 210.00 420.54 207.54 423.00 204.50 423.00 C 201.46 423.00 199.00 420.54 199.00 417.50 C 199.00 414.46 201.46 412.00 204.50 412.00 C 207.54 412.00 210.00 414.46 210.00 417.50 z" />
          <title id="title687">Number a</title>
          <desc id="desc689">a = 3</desc>
        </g>
      </g>
      <clipPath id="clip75">
        <path id="path695" d="M 0.0000 0.0000 L 0.0000 314.00 L 644.00 314.00 L 644.00 0.0000 z" />
      </clipPath>
      <g id="g706" clip-path="url(#clip75)">
        <g id="g704" stroke="#000000" stroke-opacity="1.0000" fill="none" stroke-linecap="round" stroke-linejoin="round">
          <path id="path698" d="M 210.00 417.50 C 210.00 420.54 207.54 423.00 204.50 423.00 C 201.46 423.00 199.00 420.54 199.00 417.50 C 199.00 414.46 201.46 412.00 204.50 412.00 C 207.54 412.00 210.00 414.46 210.00 417.50 z" />
          <title id="title700">Number a</title>
          <desc id="desc702">a = 3</desc>
        </g>
      </g>
      <g id="g721" transform="matrix(31.000, 0.0000, 0.0000, 31.000, 280.00, 22.347)">
        <clipPath id="clip76">
          <path id="path708" d="M -9.0323 -.72088 L -9.0323 9.4082 L 11.742 9.4082 L 11.742 -.72088 z" />
        </clipPath>
        <g id="g719" clip-path="url(#clip76)">
          <g id="g717" fill="#000000" stroke="none" fill-rule="nonzero" fill-opacity="1.0000">
            <path id="path711" d="M .48438 -.37500 L .39062 -0.0000 Q .35938 .093750 .28125 .15625 Q .21875 .20312 .15625 .20312 Q .093750 .20312 .062500 .15625 Q .046875 .14062 .046875 .12500 Q .046875 .062500 .093750 .062500 Q .093750 .046875 .10938 .046875 Q .14062 .046875 .14062 .078125 Q .14062 .078125 .14062 .093750 Q .14062 .10938 .12500 .12500 Q .10938 .14062 .078125 .14062 Q .093750 .18750 .15625 .18750 Q .21875 .18750 .26562 .12500 Q .31250 .062500 .32812 -.015625 Q .32812 -.031250 .32812 -.031250 Q .28125 .015625 .23438 .015625 Q .15625 .015625 .12500 -.046875 Q .10938 -.078125 .10938 -.10938 Q .10938 -.15625 .15625 -.31250 Q .15625 -.31250 .17188 -.31250 Q .18750 -.35938 .18750 -.39062 Q .18750 -.42188 .15625 -.42188 Q .10938 -.42188 .062500 -.32812 L .062500 -.32812 Q .062500 -.31250 .062500 -.29688 Q .046875 -.28125 .046875 -.28125 Q .031250 -.28125 .031250 -.28125 Q .031250 -.31250 .046875 -.34375 Q .093750 -.43750 .15625 -.43750 Q .21875 -.43750 .23438 -.39062 Q .25000 -.37500 .25000 -.35938 Q .25000 -.34375 .21875 -.28125 Q .17188 -.15625 .17188 -.093750 Q .17188 -.015625 .23438 -.015625 Q .29688 -.015625 .32812 -.078125 Q .34375 -.093750 .34375 -.093750 L .39062 -.28125 Q .40625 -.31250 .40625 -.35938 Q .42188 -.40625 .42188 -.40625 Q .43750 -.43750 .46875 -.43750 Q .48438 -.42188 .48438 -.40625 Q .48438 -.39062 .48438 -.37500 z" />
            <title id="title713">$y$</title>
            <desc id="desc715">text1 = &quot;$y$&quot;</desc>
          </g>
        </g>
      </g>
      <g id="g736" transform="matrix(31.000, 0.0000, 0.0000, 31.000, 621.00, 292.35)">
        <clipPath id="clip77">
          <path id="path723" d="M -20.032 -9.4306 L -20.032 .69848 L .74194 .69848 L .74194 -9.4306 z" />
        </clipPath>
        <g id="g734" clip-path="url(#clip77)">
          <g id="g732" fill="#000000" stroke="none" fill-rule="nonzero" fill-opacity="1.0000">
            <path id="path726" d="M .32812 -.29688 L .29688 -.17188 Q .28125 -.093750 .28125 -.078125 Q .28125 -.031250 .31250 -.015625 Q .32812 -.015625 .34375 -.015625 Q .39062 -.015625 .42188 -.062500 Q .45312 -.093750 .46875 -.14062 Q .46875 -.15625 .48438 -.15625 Q .50000 -.15625 .50000 -.14062 Q .50000 -.12500 .46875 -.078125 Q .40625 .015625 .34375 .015625 Q .26562 .015625 .23438 -.046875 Q .23438 -.062500 .23438 -.062500 Q .20312 -.015625 .15625 -0.0000 Q .14062 .015625 .12500 .015625 Q .062500 .015625 .031250 -.031250 Q .031250 -.031250 .031250 -.062500 Q .031250 -.093750 .062500 -.10938 Q .078125 -.10938 .078125 -.10938 Q .10938 -.10938 .12500 -.093750 Q .12500 -.078125 .12500 -.078125 Q .12500 -.046875 .093750 -.031250 Q .078125 -.031250 .078125 -.031250 Q .093750 -.015625 .12500 -.015625 Q .17188 -.015625 .20312 -.078125 Q .21875 -.093750 .21875 -.10938 Q .26562 -.31250 .26562 -.35938 Q .26562 -.42188 .21875 -.42188 Q .17188 -.42188 .12500 -.35938 L .12500 -.35938 Q .12500 -.35938 .12500 -.35938 Q .10938 -.34375 .093750 -.31250 Q .093750 -.31250 .093750 -.29688 L .078125 -.28125 Q .078125 -.28125 .078125 -.28125 Q .062500 -.28125 .062500 -.28125 Q .062500 -.31250 .093750 -.35938 Q .14062 -.43750 .21875 -.43750 Q .29688 -.43750 .32812 -.35938 Q .35938 -.42188 .40625 -.43750 Q .42188 -.43750 .43750 -.43750 Q .50000 -.43750 .51562 -.40625 Q .53125 -.39062 .53125 -.37500 Q .53125 -.32812 .48438 -.32812 Q .48438 -.31250 .46875 -.31250 Q .43750 -.31250 .43750 -.34375 Q .43750 -.34375 .43750 -.35938 Q .43750 -.39062 .46875 -.40625 Q .46875 -.40625 .48438 -.40625 Q .46875 -.42188 .43750 -.42188 Q .35938 -.42188 .34375 -.31250 Q .32812 -.31250 .32812 -.29688 z" />
            <title id="title728">$x$</title>
            <desc id="desc730">text2 = &quot;$x$&quot;</desc>
          </g>
        </g>
      </g>
    </g>
  </g>
</svg>