<?xml version='1.0' ?><svg xmlns:dc="http://purl.org/dc/elements/1.1/" xmlns:cc="http://creativecommons.org/ns#" xmlns:rdf="http://www.w3.org/1999/02/22-rdf-syntax-ns#" xmlns:svg="http://www.w3.org/2000/svg" xmlns="http://www.w3.org/2000/svg" id="svg2" version="1.1" width="354.40222" height="300.45933" viewBox="12.068137674916386 0.0 447.5661480668896 379.44295320401335" preserveAspectRatio="none">
  <metadata id="metadata326">
    <rdf:RDF>
      <cc:Work rdf:about="">
        <dc:format>image/svg+xml</dc:format>
        <dc:type rdf:resource="http://purl.org/dc/dcmitype/StillImage" />
      </cc:Work>
    </rdf:RDF>
  </metadata>
  <defs id="defs324" />
  <title id="title4" />
  <g id="g6" stroke-linecap="square" stroke-miterlimit="10.000" stroke-width="1.0000" stroke-dasharray="none" stroke-dashoffset="0.0000" stroke-linejoin="miter">
    <g id="misc" />
    <g id="layer0">
      <clipPath id="clip1">
        <path id="path11" d="M 0.0000 0.0000 L 0.0000 380.00 L 473.00 380.00 L 473.00 0.0000 z" />
      </clipPath>
      <g id="g13" clip-path="url(#clip1)">
        <g id="g15" fill="#006400" stroke="none" fill-rule="evenodd" fill-opacity=".098039">
          <path id="path17" d="M 235.85 217.85 L 250.85 202.85 L 235.85 187.85 L 220.85 202.85 L 235.85 217.85" />
          <title id="title19">Angle Ã&#142;Â±</title>
          <desc id="desc21">Angle Ã&#142;Â±: Angle between C, A, E</desc>
        </g>
      </g>
      <clipPath id="clip2">
        <path id="path24" d="M 0.0000 0.0000 L 0.0000 380.00 L 473.00 380.00 L 473.00 0.0000 z" />
      </clipPath>
      <g id="g26" clip-path="url(#clip2)">
        <g id="g28" stroke="#006400" stroke-opacity="1.0000" fill="none" stroke-linecap="round" stroke-linejoin="round">
          <path id="path30" d="M 235.85 217.85 L 250.85 202.85 L 235.85 187.85 L 220.85 202.85 L 235.85 217.85" />
          <title id="title32">Angle Ã&#142;Â±</title>
          <desc id="desc34">Angle Ã&#142;Â±: Angle between C, A, E</desc>
        </g>
      </g>
      <clipPath id="clip3">
        <path id="path37" d="M 0.0000 0.0000 L 0.0000 380.00 L 473.00 380.00 L 473.00 0.0000 z" />
      </clipPath>
      <g id="g39" clip-path="url(#clip3)">
        <g id="g41" stroke="#000000" stroke-opacity="1.0000" fill="none" stroke-linecap="round" stroke-width="2.5000" stroke-linejoin="round">
          <path id="path43" d="M 403.00 385.00 L 13.002 -5.0000" />
          <title id="title45">Line j</title>
          <desc id="desc47">Line j: Line through E, A</desc>
        </g>
      </g>
      <clipPath id="clip4">
        <path id="path50" d="M 0.0000 0.0000 L 0.0000 380.00 L 473.00 380.00 L 473.00 0.0000 z" />
      </clipPath>
      <g id="g52" clip-path="url(#clip4)">
        <g id="g54" stroke="#ff00ff" stroke-opacity="1.0000" fill="none" stroke-linecap="round" stroke-width="2.5000" stroke-linejoin="round">
          <path id="path56" d="M 68.704 385.00 L 458.70 -5.0000" />
          <title id="title58">Line k</title>
          <desc id="desc60">Line k: Line through A, C</desc>
        </g>
      </g>
      <clipPath id="clip5">
        <path id="path63" d="M 0.0000 0.0000 L 0.0000 380.00 L 473.00 380.00 L 473.00 0.0000 z" />
      </clipPath>
      <g id="g65" clip-path="url(#clip5)">
        <g id="g67" stroke="#000000" stroke-opacity="1.0000" fill="none" stroke-linecap="butt" stroke-width="3.0000" stroke-dasharray="11.000,8.0000" stroke-linejoin="round">
          <path id="path69" d="M 235.85 217.85 L 343.26 217.85" />
          <title id="title71">Segment f</title>
          <desc id="desc73">Segment f: Segment [A, B]</desc>
        </g>
      </g>
      <clipPath id="clip6">
        <path id="path76" d="M 0.0000 0.0000 L 0.0000 380.00 L 473.00 380.00 L 473.00 0.0000 z" />
      </clipPath>
      <g id="g78" clip-path="url(#clip6)">
        <g id="g80" stroke="#000000" stroke-opacity="1.0000" fill="none" stroke-linecap="butt" stroke-width="3.0000" stroke-dasharray="11.000,8.0000" stroke-linejoin="round">
          <path id="path82" d="M 343.26 217.85 L 343.26 110.44" />
          <title id="title84">Segment g</title>
          <desc id="desc86">Segment g: Segment [B, C]</desc>
        </g>
      </g>
      <clipPath id="clip7">
        <path id="path89" d="M 0.0000 0.0000 L 0.0000 380.00 L 473.00 380.00 L 473.00 0.0000 z" />
      </clipPath>
      <g id="g91" clip-path="url(#clip7)">
        <g id="g93" stroke="#000000" stroke-opacity="1.0000" fill="none" stroke-linecap="butt" stroke-width="3.0000" stroke-dasharray="11.000,8.0000" stroke-linejoin="round">
          <path id="path95" d="M 235.85 217.85 L 128.44 217.85" />
          <title id="title97">Segment h</title>
          <desc id="desc99">Segment h: Segment [A, D]</desc>
        </g>
      </g>
      <clipPath id="clip8">
        <path id="path102" d="M 0.0000 0.0000 L 0.0000 380.00 L 473.00 380.00 L 473.00 0.0000 z" />
      </clipPath>
      <g id="g104" clip-path="url(#clip8)">
        <g id="g106" stroke="#000000" stroke-opacity="1.0000" fill="none" stroke-linecap="butt" stroke-width="3.0000" stroke-dasharray="11.000,8.0000" stroke-linejoin="round">
          <path id="path108" d="M 128.44 110.44 L 128.44 217.85" />
          <title id="title110">Segment i</title>
          <desc id="desc112">Segment i: Segment [E, D]</desc>
        </g>
      </g>
      <clipPath id="clip9">
        <path id="path115" d="M 0.0000 0.0000 L 0.0000 380.00 L 473.00 380.00 L 473.00 0.0000 z" />
      </clipPath>
      <g id="g117" clip-path="url(#clip9)">
        <g id="g119" stroke="#000000" stroke-opacity="1.0000" fill="none" stroke-linecap="round" stroke-width="3.5000" stroke-linejoin="round">
          <path id="path121" d="M 235.85 217.85 L 329.83 123.88" />
          <title id="title123">Vector u</title>
          <desc id="desc125">Vector u: Vector[A, C]</desc>
        </g>
      </g>
      <clipPath id="clip10">
        <path id="path128" d="M 0.0000 0.0000 L 0.0000 380.00 L 473.00 380.00 L 473.00 0.0000 z" />
      </clipPath>
      <g id="g130" clip-path="url(#clip10)">
        <g id="g132" fill="#000000" stroke="none" fill-rule="evenodd" fill-opacity="1.0000">
          <path id="path134" d="M 343.26 110.44 L 333.19 127.24 L 326.47 120.52 z" />
          <title id="title136">Vector u</title>
          <desc id="desc138">Vector u: Vector[A, C]</desc>
        </g>
      </g>
      <clipPath id="clip11">
        <path id="path141" d="M 0.0000 0.0000 L 0.0000 380.00 L 473.00 380.00 L 473.00 0.0000 z" />
      </clipPath>
      <g id="g143" clip-path="url(#clip11)">
        <g id="g145" stroke="#000000" stroke-opacity="1.0000" fill="none" stroke-linecap="round" stroke-width="3.5000" stroke-linejoin="round">
          <path id="path147" d="M 235.85 217.85 L 141.88 123.88" />
          <title id="title149">Vector v</title>
          <desc id="desc151">Vector v: Vector[A, E]</desc>
        </g>
      </g>
      <clipPath id="clip12">
        <path id="path154" d="M 0.0000 0.0000 L 0.0000 380.00 L 473.00 380.00 L 473.00 0.0000 z" />
      </clipPath>
      <g id="g156" clip-path="url(#clip12)">
        <g id="g158" fill="#000000" stroke="none" fill-rule="evenodd" fill-opacity="1.0000">
          <path id="path160" d="M 128.44 110.44 L 145.24 120.52 L 138.52 127.24 z" />
          <title id="title162">Vector v</title>
          <desc id="desc164">Vector v: Vector[A, E]</desc>
        </g>
      </g>
      <clipPath id="clip13">
        <path id="path167" d="M 0.0000 0.0000 L 0.0000 380.00 L 473.00 380.00 L 473.00 0.0000 z" />
      </clipPath>
      <g id="g169" clip-path="url(#clip13)">
        <g id="g171" fill="#0000ff" stroke="none" fill-rule="nonzero" fill-opacity="1.0000">
          <path id="path173" d="M 240.85 217.85 C 240.85 220.61 238.61 222.85 235.85 222.85 C 233.09 222.85 230.85 220.61 230.85 217.85 C 230.85 215.09 233.09 212.85 235.85 212.85 C 238.61 212.85 240.85 215.09 240.85 217.85 z" />
          <title id="title175">Point A</title>
          <desc id="desc177">A = (1, 2)</desc>
        </g>
      </g>
      <clipPath id="clip14">
        <path id="path180" d="M 0.0000 0.0000 L 0.0000 380.00 L 473.00 380.00 L 473.00 0.0000 z" />
      </clipPath>
      <g id="g182" clip-path="url(#clip14)">
        <g id="g184" stroke="#000000" stroke-opacity="1.0000" fill="none" stroke-linecap="round" stroke-linejoin="round">
          <path id="path186" d="M 240.85 217.85 C 240.85 220.61 238.61 222.85 235.85 222.85 C 233.09 222.85 230.85 220.61 230.85 217.85 C 230.85 215.09 233.09 212.85 235.85 212.85 C 238.61 212.85 240.85 215.09 240.85 217.85 z" />
          <title id="title188">Point A</title>
          <desc id="desc190">A = (1, 2)</desc>
        </g>
      </g>
      <clipPath id="clip15">
        <path id="path193" d="M 0.0000 0.0000 L 0.0000 380.00 L 473.00 380.00 L 473.00 0.0000 z" />
      </clipPath>
      <g id="g195" clip-path="url(#clip15)">
        <g id="g197" fill="#0000ff" stroke="none" fill-rule="nonzero" fill-opacity="1.0000">
          <path id="path199" d="M 348.26 110.44 C 348.26 113.20 346.02 115.44 343.26 115.44 C 340.50 115.44 338.26 113.20 338.26 110.44 C 338.26 107.68 340.50 105.44 343.26 105.44 C 346.02 105.44 348.26 107.68 348.26 110.44 z" />
          <title id="title201">Point C</title>
          <desc id="desc203">C = (2, 3)</desc>
        </g>
      </g>
      <clipPath id="clip16">
        <path id="path206" d="M 0.0000 0.0000 L 0.0000 380.00 L 473.00 380.00 L 473.00 0.0000 z" />
      </clipPath>
      <g id="g208" clip-path="url(#clip16)">
        <g id="g210" stroke="#000000" stroke-opacity="1.0000" fill="none" stroke-linecap="round" stroke-linejoin="round">
          <path id="path212" d="M 348.26 110.44 C 348.26 113.20 346.02 115.44 343.26 115.44 C 340.50 115.44 338.26 113.20 338.26 110.44 C 338.26 107.68 340.50 105.44 343.26 105.44 C 346.02 105.44 348.26 107.68 348.26 110.44 z" />
          <title id="title214">Point C</title>
          <desc id="desc216">C = (2, 3)</desc>
        </g>
      </g>
      <clipPath id="clip17">
        <path id="path219" d="M 0.0000 0.0000 L 0.0000 380.00 L 473.00 380.00 L 473.00 0.0000 z" />
      </clipPath>
      <g id="g221" clip-path="url(#clip17)">
        <g id="g223" fill="#0000ff" stroke="none" fill-rule="nonzero" fill-opacity="1.0000">
          <path id="path225" d="M 133.44 110.44 C 133.44 113.20 131.21 115.44 128.44 115.44 C 125.68 115.44 123.44 113.20 123.44 110.44 C 123.44 107.68 125.68 105.44 128.44 105.44 C 131.21 105.44 133.44 107.68 133.44 110.44 z" />
          <title id="title227">Point E</title>
          <desc id="desc229">E = (0, 3)</desc>
        </g>
      </g>
      <clipPath id="clip18">
        <path id="path232" d="M 0.0000 0.0000 L 0.0000 380.00 L 473.00 380.00 L 473.00 0.0000 z" />
      </clipPath>
      <g id="g234" clip-path="url(#clip18)">
        <g id="g236" stroke="#000000" stroke-opacity="1.0000" fill="none" stroke-linecap="round" stroke-linejoin="round">
          <path id="path238" d="M 133.44 110.44 C 133.44 113.20 131.21 115.44 128.44 115.44 C 125.68 115.44 123.44 113.20 123.44 110.44 C 123.44 107.68 125.68 105.44 128.44 105.44 C 131.21 105.44 133.44 107.68 133.44 110.44 z" />
          <title id="title240">Point E</title>
          <desc id="desc242">E = (0, 3)</desc>
        </g>
      </g>
      <clipPath id="clip19">
        <path id="path245" d="M 0.0000 0.0000 L 0.0000 380.00 L 473.00 380.00 L 473.00 0.0000 z" />
      </clipPath>
      <g id="g247" clip-path="url(#clip19)">
        <g id="g249" fill="#000000" stroke="none" fill-rule="nonzero" fill-opacity="1.0000">
          <path id="path251" d="M 292.41 239.00 L 292.41 237.84 L 294.72 237.84 L 294.72 228.72 L 292.41 229.30 L 292.41 228.11 L 296.27 227.15 L 296.27 237.84 L 298.58 237.84 L 298.58 239.00 z" />
          <title id="title253">1</title>
          <desc id="desc255">text1 = &quot;1&quot;</desc>
        </g>
      </g>
      <clipPath id="clip20">
        <path id="path258" d="M 0.0000 0.0000 L 0.0000 380.00 L 473.00 380.00 L 473.00 0.0000 z" />
      </clipPath>
      <g id="g260" clip-path="url(#clip20)">
        <g id="g262" fill="#000000" stroke="none" fill-rule="nonzero" fill-opacity="1.0000">
          <path id="path264" d="M 353.41 172.00 L 353.41 170.84 L 355.72 170.84 L 355.72 161.72 L 353.41 162.30 L 353.41 161.11 L 357.27 160.15 L 357.27 170.84 L 359.58 170.84 L 359.58 172.00 z" />
          <title id="title266">1</title>
          <desc id="desc268">text1_1 = &quot;1&quot;</desc>
        </g>
      </g>
      <clipPath id="clip21">
        <path id="path271" d="M 0.0000 0.0000 L 0.0000 380.00 L 473.00 380.00 L 473.00 0.0000 z" />
      </clipPath>
      <g id="g273" clip-path="url(#clip21)">
        <g id="g275" fill="#000000" stroke="none" fill-rule="nonzero" fill-opacity="1.0000">
          <path id="path277" d="M 171.16 233.95 L 171.16 232.80 L 178.09 232.80 L 178.09 233.95 z M 181.66 238.00 L 181.66 236.84 L 183.98 236.84 L 183.98 227.72 L 181.66 228.30 L 181.66 227.11 L 185.52 226.15 L 185.52 236.84 L 187.84 236.84 L 187.84 238.00 z" />
          <title id="title279">-1</title>
          <desc id="desc281">text1_2 = &quot;-1&quot;</desc>
        </g>
      </g>
      <clipPath id="clip22">
        <path id="path284" d="M 0.0000 0.0000 L 0.0000 380.00 L 473.00 380.00 L 473.00 0.0000 z" />
      </clipPath>
      <g id="g286" clip-path="url(#clip22)">
        <g id="g288" fill="#000000" stroke="none" fill-rule="nonzero" fill-opacity="1.0000">
          <path id="path290" d="M 110.41 173.00 L 110.41 171.84 L 112.72 171.84 L 112.72 162.72 L 110.41 163.30 L 110.41 162.11 L 114.27 161.15 L 114.27 171.84 L 116.58 171.84 L 116.58 173.00 z" />
          <title id="title292">1</title>
          <desc id="desc294">text1_3 = &quot;1&quot;</desc>
        </g>
      </g>
      <clipPath id="clip23">
        <path id="path297" d="M 0.0000 0.0000 L 0.0000 380.00 L 473.00 380.00 L 473.00 0.0000 z" />
      </clipPath>
      <g id="g299" clip-path="url(#clip23)">
        <g id="g301" fill="#000000" stroke="none" fill-rule="nonzero" fill-opacity="1.0000">
          <path id="path303" d="M 88.625 341.25 L 88.625 342.31 Q 86.938 341.16 85.949 339.19 Q 84.961 337.22 84.961 334.98 Q 84.961 332.76 85.949 330.79 Q 86.938 328.81 88.625 327.66 L 88.625 328.73 Q 87.477 329.98 86.988 331.41 Q 86.500 332.85 86.500 334.98 Q 86.500 337.12 86.988 338.56 Q 87.477 340.00 88.625 341.25 z M 91.609 340.00 L 91.609 338.84 L 93.922 338.84 L 93.922 329.72 L 91.609 330.30 L 91.609 329.11 L 95.469 328.15 L 95.469 338.84 L 97.781 338.84 L 97.781 340.00 z M 99.898 341.25 L 99.898 342.31 Q 101.59 341.16 102.57 339.19 Q 103.56 337.22 103.56 334.98 Q 103.56 332.76 102.57 330.79 Q 101.59 328.81 99.898 327.66 L 99.898 328.73 Q 101.05 329.98 101.54 331.41 Q 102.02 332.85 102.02 334.98 Q 102.02 337.12 101.54 338.56 Q 101.05 340.00 99.898 341.25 z" />
          <title id="title305">(1)</title>
          <desc id="desc307">text2 = &quot;(1)&quot;</desc>
        </g>
      </g>
      <clipPath id="clip24">
        <path id="path310" d="M 0.0000 0.0000 L 0.0000 380.00 L 473.00 380.00 L 473.00 0.0000 z" />
      </clipPath>
      <g id="g312" clip-path="url(#clip24)">
        <g id="g314" fill="#000000" stroke="none" fill-rule="nonzero" fill-opacity="1.0000">
          <path id="path316" d="M 59.625 32.250 L 59.625 33.312 Q 57.938 32.164 56.949 30.191 Q 55.961 28.219 55.961 25.984 Q 55.961 23.758 56.949 21.785 Q 57.938 19.812 59.625 18.664 L 59.625 19.727 Q 58.477 20.977 57.988 22.414 Q 57.500 23.852 57.500 25.984 Q 57.500 28.125 57.988 29.562 Q 58.477 31.000 59.625 32.250 z M 61.531 31.000 L 61.531 29.648 Q 62.203 28.078 64.250 26.227 L 65.133 25.438 Q 66.836 23.898 66.836 22.383 Q 66.836 21.414 66.254 20.859 Q 65.672 20.305 64.656 20.305 Q 63.453 20.305 61.820 21.234 L 61.820 19.875 Q 63.359 19.148 64.875 19.148 Q 66.500 19.148 67.484 20.023 Q 68.469 20.898 68.469 22.344 Q 68.469 23.383 67.973 24.188 Q 67.477 24.992 66.125 26.141 L 65.531 26.648 Q 63.680 28.219 63.391 29.648 L 68.414 29.648 L 68.414 31.000 z M 70.898 32.250 L 70.898 33.312 Q 72.586 32.164 73.574 30.191 Q 74.562 28.219 74.562 25.984 Q 74.562 23.758 73.574 21.785 Q 72.586 19.812 70.898 18.664 L 70.898 19.727 Q 72.047 20.977 72.535 22.414 Q 73.023 23.852 73.023 25.984 Q 73.023 28.125 72.535 29.562 Q 72.047 31.000 70.898 32.250 z" />
          <title id="title318">(2)</title>
          <desc id="desc320">text3 = &quot;(2)&quot;</desc>
        </g>
      </g>
    </g>
  </g>
</svg>