<?xml version='1.0' ?><svg xmlns:dc="http://purl.org/dc/elements/1.1/" xmlns:cc="http://creativecommons.org/ns#" xmlns:rdf="http://www.w3.org/1999/02/22-rdf-syntax-ns#" xmlns:svg="http://www.w3.org/2000/svg" xmlns="http://www.w3.org/2000/svg" id="svg2" version="1.1" width="311.25001" height="301.40033" viewBox="0.0 0.33733851296385536 474.00001522891563 459.000020626506" preserveAspectRatio="none">
  <metadata id="metadata355">
    <rdf:RDF>
      <cc:Work rdf:about="">
        <dc:format>image/svg+xml</dc:format>
        <dc:type rdf:resource="http://purl.org/dc/dcmitype/StillImage" />
      </cc:Work>
    </rdf:RDF>
  </metadata>
  <defs id="defs353" />
  <title id="title4" />
  <g id="g6" stroke-linecap="square" stroke-miterlimit="10.000" stroke-width="1.0000" stroke-dasharray="none" stroke-dashoffset="0.0000" stroke-linejoin="miter">
    <g id="misc" />
    <g id="layer0">
      <clipPath id="clip1">
        <path id="path11" d="M 0.0000 0.0000 L 0.0000 459.00 L 474.00 459.00 L 474.00 0.0000 z" />
      </clipPath>
      <g id="g13" clip-path="url(#clip1)">
        <g id="g15" stroke="#000000" stroke-opacity="1.0000" fill="none" stroke-linecap="round" stroke-width="2.0000" stroke-linejoin="round">
          <path id="path17" d="M 244.62 228.44 L 244.62 207.23 L 223.41 207.23 L 223.41 228.44 L 244.62 228.44" />
          <title id="title19">Angle Ã&#142;Â±</title>
          <desc id="desc21">Angle Ã&#142;Â±: Angle between B, C, A</desc>
        </g>
      </g>
      <clipPath id="clip2">
        <path id="path24" d="M 0.0000 0.0000 L 0.0000 459.00 L 474.00 459.00 L 474.00 0.0000 z" />
      </clipPath>
      <g id="g26" clip-path="url(#clip2)">
        <g id="g28" stroke="#ff00ff" stroke-opacity="1.0000" fill="none" stroke-linecap="round" stroke-width="2.0000" stroke-linejoin="round">
          <path id="path30" d="M -5.0000 292.11 L 292.11 -5.0000" />
          <title id="title32">Line f</title>
          <desc id="desc34">f: y = x + 2</desc>
        </g>
      </g>
      <clipPath id="clip3">
        <path id="path37" d="M 0.0000 0.0000 L 0.0000 459.00 L 474.00 459.00 L 474.00 0.0000 z" />
      </clipPath>
      <g id="g39" clip-path="url(#clip3)">
        <g id="g41" stroke="#000000" stroke-opacity="1.0000" fill="none" stroke-linecap="round" stroke-width="2.0000" stroke-linejoin="round">
          <path id="path43" d="M 479.00 276.87 L 197.13 -5.0000" />
          <title id="title45">Line g</title>
          <desc id="desc47">g: y = -x + 6</desc>
        </g>
      </g>
      <clipPath id="clip4">
        <path id="path50" d="M 0.0000 0.0000 L 0.0000 459.00 L 474.00 459.00 L 474.00 0.0000 z" />
      </clipPath>
      <g id="g52" clip-path="url(#clip4)">
        <g id="g54" stroke="#7f00ff" stroke-opacity="1.0000" fill="none" stroke-linecap="round" stroke-width="2.0000" stroke-linejoin="round">
          <path id="path56" d="M 195.01 464.00 L 479.00 180.01" />
          <title id="title58">Line h</title>
          <desc id="desc60">h: y = x - 1</desc>
        </g>
      </g>
      <clipPath id="clip5">
        <path id="path63" d="M 0.0000 0.0000 L 0.0000 459.00 L 474.00 459.00 L 474.00 0.0000 z" />
      </clipPath>
      <g id="g65" clip-path="url(#clip5)">
        <g id="g67" stroke="#0000ff" stroke-opacity="1.0000" fill="none" stroke-linecap="round" stroke-width="2.0000" stroke-linejoin="round">
          <path id="path69" d="M 294.23 464.00 L -5.0000 164.77" />
          <title id="title71">Line i</title>
          <desc id="desc73">i: y = -x + 3</desc>
        </g>
      </g>
      <clipPath id="clip6">
        <path id="path76" d="M 0.0000 0.0000 L 0.0000 459.00 L 474.00 459.00 L 474.00 0.0000 z" />
      </clipPath>
      <g id="g78" clip-path="url(#clip6)">
        <g id="g80" stroke="#000000" stroke-opacity="1.0000" fill="none" stroke-linecap="butt" stroke-width="2.5000" stroke-dasharray="10.500,8.0000" stroke-linejoin="round">
          <path id="path82" d="M 58.670 228.44 L 244.62 228.44" />
          <title id="title84">Segment j</title>
          <desc id="desc86">Segment j: Segment [A, C]</desc>
        </g>
      </g>
      <clipPath id="clip7">
        <path id="path89" d="M 0.0000 0.0000 L 0.0000 459.00 L 474.00 459.00 L 474.00 0.0000 z" />
      </clipPath>
      <g id="g91" clip-path="url(#clip7)">
        <g id="g93" stroke="#000000" stroke-opacity="1.0000" fill="none" stroke-linecap="butt" stroke-width="2.5000" stroke-dasharray="10.500,8.0000" stroke-linejoin="round">
          <path id="path95" d="M 244.62 228.44 L 244.62 42.489" />
          <title id="title97">Segment k</title>
          <desc id="desc99">Segment k: Segment [C, B]</desc>
        </g>
      </g>
      <clipPath id="clip8">
        <path id="path102" d="M 0.0000 0.0000 L 0.0000 459.00 L 474.00 459.00 L 474.00 0.0000 z" />
      </clipPath>
      <g id="g104" clip-path="url(#clip8)">
        <g id="g106" fill="#444444" stroke="none" fill-rule="nonzero" fill-opacity="1.0000">
          <path id="path108" d="M 65.670 228.44 C 65.670 232.31 62.536 235.44 58.670 235.44 C 54.804 235.44 51.670 232.31 51.670 228.44 C 51.670 224.57 54.804 221.44 58.670 221.44 C 62.536 221.44 65.670 224.57 65.670 228.44 z" />
          <title id="title110">Point A</title>
          <desc id="desc112">Point A: Intersection point of f, i</desc>
        </g>
      </g>
      <clipPath id="clip9">
        <path id="path115" d="M 0.0000 0.0000 L 0.0000 459.00 L 474.00 459.00 L 474.00 0.0000 z" />
      </clipPath>
      <g id="g117" clip-path="url(#clip9)">
        <g id="g119" stroke="#000000" stroke-opacity="1.0000" fill="none" stroke-linecap="round" stroke-linejoin="round">
          <path id="path121" d="M 65.670 228.44 C 65.670 232.31 62.536 235.44 58.670 235.44 C 54.804 235.44 51.670 232.31 51.670 228.44 C 51.670 224.57 54.804 221.44 58.670 221.44 C 62.536 221.44 65.670 224.57 65.670 228.44 z" />
          <title id="title123">Point A</title>
          <desc id="desc125">Point A: Intersection point of f, i</desc>
        </g>
      </g>
      <clipPath id="clip10">
        <path id="path128" d="M 0.0000 0.0000 L 0.0000 459.00 L 474.00 459.00 L 474.00 0.0000 z" />
      </clipPath>
      <g id="g130" clip-path="url(#clip10)">
        <g id="g132" fill="#444444" stroke="none" fill-rule="nonzero" fill-opacity="1.0000">
          <path id="path134" d="M 60.352 210.58 L 58.383 205.59 L 56.406 210.58 z M 62.086 215.00 L 60.828 211.80 L 55.930 211.80 L 54.656 215.00 L 53.133 215.00 L 57.719 203.44 L 59.344 203.44 L 63.859 215.00 z" />
          <title id="title136">Point A</title>
          <desc id="desc138">Point A: Intersection point of f, i</desc>
        </g>
      </g>
      <clipPath id="clip11">
        <path id="path141" d="M 0.0000 0.0000 L 0.0000 459.00 L 474.00 459.00 L 474.00 0.0000 z" />
      </clipPath>
      <g id="g143" clip-path="url(#clip11)">
        <g id="g145" fill="#444444" stroke="none" fill-rule="nonzero" fill-opacity="1.0000">
          <path id="path147" d="M 251.62 42.489 C 251.62 46.355 248.49 49.489 244.62 49.489 C 240.76 49.489 237.62 46.355 237.62 42.489 C 237.62 38.623 240.76 35.489 244.62 35.489 C 248.49 35.489 251.62 38.623 251.62 42.489 z" />
          <title id="title149">Point B</title>
          <desc id="desc151">Point B: Intersection point of f, g</desc>
        </g>
      </g>
      <clipPath id="clip12">
        <path id="path154" d="M 0.0000 0.0000 L 0.0000 459.00 L 474.00 459.00 L 474.00 0.0000 z" />
      </clipPath>
      <g id="g156" clip-path="url(#clip12)">
        <g id="g158" stroke="#000000" stroke-opacity="1.0000" fill="none" stroke-linecap="round" stroke-linejoin="round">
          <path id="path160" d="M 251.62 42.489 C 251.62 46.355 248.49 49.489 244.62 49.489 C 240.76 49.489 237.62 46.355 237.62 42.489 C 237.62 38.623 240.76 35.489 244.62 35.489 C 248.49 35.489 251.62 38.623 251.62 42.489 z" />
          <title id="title162">Point B</title>
          <desc id="desc164">Point B: Intersection point of f, g</desc>
        </g>
      </g>
      <clipPath id="clip13">
        <path id="path167" d="M 0.0000 0.0000 L 0.0000 459.00 L 474.00 459.00 L 474.00 0.0000 z" />
      </clipPath>
      <g id="g169" clip-path="url(#clip13)">
        <g id="g171" fill="#444444" stroke="none" fill-rule="nonzero" fill-opacity="1.0000">
          <path id="path173" d="M 241.49 26.000 L 241.49 14.438 L 244.49 14.438 Q 246.23 14.438 247.15 15.094 Q 248.08 15.750 248.08 16.984 Q 248.08 19.086 245.70 19.977 Q 248.54 20.844 248.54 23.109 Q 248.54 24.516 247.60 25.258 Q 246.66 26.000 244.90 26.000 z M 243.12 24.773 L 243.45 24.773 Q 245.26 24.773 245.79 24.547 Q 246.80 24.117 246.80 22.953 Q 246.80 21.922 245.88 21.238 Q 244.96 20.555 243.58 20.555 L 243.12 20.555 z M 243.12 19.516 L 243.64 19.516 Q 244.95 19.516 245.68 18.953 Q 246.40 18.391 246.40 17.367 Q 246.40 15.664 243.76 15.664 L 243.12 15.664 z" />
          <title id="title175">Point B</title>
          <desc id="desc177">Point B: Intersection point of f, g</desc>
        </g>
      </g>
      <g id="g179" transform="matrix(25.000, 0.0000, 0.0000, 25.000, -57.000, -104.89)">
        <clipPath id="clip14">
          <path id="path182" d="M 2.2800 4.1956 L 2.2800 22.556 L 21.240 22.556 L 21.240 4.1956 z" />
        </clipPath>
        <g id="g184" clip-path="url(#clip14)">
          <g id="g186" fill="#000000" stroke="none" fill-rule="nonzero" fill-opacity="1.0000">
            <path id="path188" d="M .57812 -.37500 L .48438 -0.0000 Q .46875 .093750 .38281 .14844 Q .29688 .20312 .20312 .20312 Q .14062 .20312 .10938 .17969 Q .078125 .15625 .078125 .10938 Q .078125 .078125 .093750 .054688 Q .10938 .031250 .14062 .031250 Q .15625 .031250 .17188 .046875 Q .18750 .062500 .18750 .078125 Q .18750 .12500 .14062 .15625 Q .17188 .17188 .20312 .17188 Q .26562 .17188 .31250 .11719 Q .35938 .062500 .37500 -.015625 Q .32812 .015625 .28125 .015625 Q .25000 .015625 .22656 .0078125 Q .20312 -0.0000 .17969 -.015625 Q .15625 -.031250 .14062 -.054688 Q .12500 -.078125 .12500 -.12500 Q .12500 -.15625 .14062 -.20312 Q .15625 -.25000 .18750 -.32812 Q .20312 -.37500 .20312 -.39062 Q .20312 -.40625 .19531 -.41406 Q .18750 -.42188 .18750 -.42188 Q .18750 -.42188 .18750 -.42188 Q .17188 -.42188 .16406 -.41406 Q .15625 -.40625 .14062 -.39844 Q .12500 -.39062 .10938 -.35938 Q .093750 -.32812 .078125 -.29688 Q .078125 -.28125 .062500 -.28125 Q .031250 -.28125 .031250 -.29688 Q .031250 -.31250 .039062 -.33594 Q .046875 -.35938 .070312 -.38281 Q .093750 -.40625 .12500 -.42969 Q .15625 -.45312 .18750 -.45312 Q .23438 -.45312 .26562 -.42969 Q .29688 -.40625 .29688 -.35938 Q .29688 -.34375 .28125 -.31250 Q .23438 -.15625 .23438 -.093750 Q .23438 -.031250 .28125 -.031250 Q .31250 -.031250 .35938 -.046875 Q .35938 -.046875 .36719 -.054688 Q .37500 -.062500 .38281 -.078125 Q .39062 -.093750 .39062 -.093750 Q .40625 -.12500 .43750 -.26562 L .46875 -.37500 Q .46875 -.39062 .46875 -.39844 Q .46875 -.40625 .47656 -.42188 Q .48438 -.43750 .50000 -.43750 Q .51562 -.43750 .53125 -.43750 Q .56250 -.43750 .57031 -.42969 Q .57812 -.42188 .57812 -.40625 Q .57812 -.39062 .57812 -.37500 z" />
            <title id="title190">$y$</title>
            <desc id="desc192">text1 = &quot;$y$&quot;</desc>
          </g>
        </g>
      </g>
      <g id="g194" transform="matrix(25.000, 0.0000, 0.0000, 25.000, 805.00, 571.11)">
        <clipPath id="clip15">
          <path id="path197" d="M -32.200 -22.844 L -32.200 -4.4844 L -13.240 -4.4844 L -13.240 -22.844 z" />
        </clipPath>
        <g id="g199" clip-path="url(#clip15)">
          <g id="g201" fill="#000000" stroke="none" fill-rule="nonzero" fill-opacity="1.0000">
            <path id="path203" d="M .53125 -.40625 Q .51562 -.42188 .48438 -.42188 Q .46875 -.42188 .43750 -.39844 Q .40625 -.37500 .40625 -.32812 Q .40625 -.31250 .39062 -.25781 Q .37500 -.20312 .37500 -.18750 Q .34375 -.093750 .34375 -.078125 Q .34375 -.031250 .40625 -.031250 Q .43750 -.031250 .48438 -.062500 Q .53125 -.093750 .54688 -.15625 Q .54688 -.15625 .56250 -.15625 Q .59375 -.15625 .59375 -.14844 Q .59375 -.14062 .57812 -.10938 Q .56250 -.078125 .53906 -.054688 Q .51562 -.031250 .47656 -.0078125 Q .43750 .015625 .39062 .015625 Q .29688 .015625 .26562 -.046875 Q .21875 .015625 .15625 .015625 Q .10938 .015625 .070312 -.015625 Q .031250 -.046875 .031250 -.078125 Q .031250 -.10938 .054688 -.13281 Q .078125 -.15625 .10938 -.15625 Q .14062 -.15625 .14844 -.14062 Q .15625 -.12500 .15625 -.10938 Q .15625 -.093750 .14062 -.070312 Q .12500 -.046875 .10938 -.046875 Q .12500 -.031250 .15625 -.031250 Q .18750 -.031250 .21094 -.054688 Q .23438 -.078125 .23438 -.12500 L .26562 -.25000 Q .29688 -.34375 .29688 -.35938 Q .29688 -.42188 .23438 -.42188 Q .20312 -.42188 .16406 -.39062 Q .12500 -.35938 .093750 -.29688 Q .093750 -.28125 .078125 -.28125 Q .046875 -.28125 .046875 -.29688 Q .046875 -.31250 .062500 -.33594 Q .078125 -.35938 .10156 -.38281 Q .12500 -.40625 .16406 -.42969 Q .20312 -.45312 .25000 -.45312 Q .34375 -.45312 .39062 -.39062 Q .42188 -.45312 .48438 -.45312 Q .53125 -.45312 .57031 -.42969 Q .60938 -.40625 .60938 -.35938 Q .60938 -.32812 .58594 -.30469 Q .56250 -.28125 .53125 -.28125 Q .51562 -.28125 .50000 -.29688 Q .48438 -.31250 .48438 -.32812 Q .48438 -.35938 .50000 -.37500 Q .51562 -.39062 .53125 -.40625 z" />
            <title id="title205">$x$</title>
            <desc id="desc207">text2 = &quot;$x$&quot;</desc>
          </g>
        </g>
      </g>
      <clipPath id="clip16">
        <path id="path210" d="M 0.0000 0.0000 L 0.0000 459.00 L 474.00 459.00 L 474.00 0.0000 z" />
      </clipPath>
      <g id="g212" clip-path="url(#clip16)">
        <g id="g214" fill="#000000" stroke="none" fill-rule="nonzero" fill-opacity="1.0000">
          <path id="path216" d="M -118.64 352.72 L -118.64 354.18 Q -120.96 352.60 -122.32 349.89 Q -123.68 347.18 -123.68 344.10 Q -123.68 341.04 -122.32 338.33 Q -120.96 335.62 -118.64 334.04 L -118.64 335.50 Q -120.22 337.22 -120.89 339.19 Q -121.56 341.17 -121.56 344.10 Q -121.56 347.05 -120.89 349.02 Q -120.22 351.00 -118.64 352.72 z M -114.54 351.00 L -114.54 349.41 L -111.36 349.41 L -111.36 336.86 L -114.54 337.66 L -114.54 336.03 L -109.23 334.70 L -109.23 349.41 L -106.05 349.41 L -106.05 351.00 z M -103.14 352.72 L -103.14 354.18 Q -100.82 352.60 -99.460 349.89 Q -98.102 347.18 -98.102 344.10 Q -98.102 341.04 -99.460 338.33 Q -100.82 335.62 -103.14 334.04 L -103.14 335.50 Q -101.56 337.22 -100.89 339.19 Q -100.22 341.17 -100.22 344.10 Q -100.22 347.05 -100.89 349.02 Q -101.56 351.00 -103.14 352.72 z" />
          <title id="title218">(1)</title>
          <desc id="desc220">text3 = &quot;(1)&quot;</desc>
        </g>
      </g>
      <clipPath id="clip17">
        <path id="path223" d="M 0.0000 0.0000 L 0.0000 459.00 L 474.00 459.00 L 474.00 0.0000 z" />
      </clipPath>
      <g id="g225" clip-path="url(#clip17)">
        <g id="g227" fill="#000000" stroke="none" fill-rule="nonzero" fill-opacity="1.0000">
          <path id="path229" d="M 156.36 -67.281 L 156.36 -65.820 Q 154.04 -67.399 152.68 -70.112 Q 151.32 -72.824 151.32 -75.896 Q 151.32 -78.958 152.68 -81.670 Q 154.04 -84.383 156.36 -85.962 L 156.36 -84.501 Q 154.78 -82.782 154.11 -80.806 Q 153.44 -78.829 153.44 -75.896 Q 153.44 -72.953 154.11 -70.977 Q 154.78 -69.000 156.36 -67.281 z M 158.98 -69.000 L 158.98 -70.858 Q 159.90 -73.018 162.72 -75.563 L 163.93 -76.648 Q 166.27 -78.765 166.27 -80.849 Q 166.27 -82.181 165.47 -82.943 Q 164.67 -83.706 163.28 -83.706 Q 161.62 -83.706 159.38 -82.428 L 159.38 -84.297 Q 161.49 -85.296 163.58 -85.296 Q 165.81 -85.296 167.17 -84.093 Q 168.52 -82.890 168.52 -80.902 Q 168.52 -79.474 167.84 -78.367 Q 167.16 -77.261 165.30 -75.682 L 164.48 -74.983 Q 161.93 -72.824 161.54 -70.858 L 168.44 -70.858 L 168.44 -69.000 z M 171.86 -67.281 L 171.86 -65.820 Q 174.18 -67.399 175.54 -70.112 Q 176.90 -72.824 176.90 -75.896 Q 176.90 -78.958 175.54 -81.670 Q 174.18 -84.383 171.86 -85.962 L 171.86 -84.501 Q 173.44 -82.782 174.11 -80.806 Q 174.78 -78.829 174.78 -75.896 Q 174.78 -72.953 174.11 -70.977 Q 173.44 -69.000 171.86 -67.281 z" />
          <title id="title231">(2)</title>
          <desc id="desc233">text4 = &quot;(2)&quot;</desc>
        </g>
      </g>
      <clipPath id="clip18">
        <path id="path236" d="M 0.0000 0.0000 L 0.0000 459.00 L 474.00 459.00 L 474.00 0.0000 z" />
      </clipPath>
      <g id="g238" clip-path="url(#clip18)">
        <g id="g240" fill="#000000" stroke="none" fill-rule="nonzero" fill-opacity="1.0000">
          <path id="path242" d="M 544.36 59.719 L 544.36 61.180 Q 542.04 59.601 540.68 56.888 Q 539.32 54.176 539.32 51.104 Q 539.32 48.042 540.68 45.330 Q 542.04 42.617 544.36 41.038 L 544.36 42.499 Q 542.78 44.218 542.11 46.194 Q 541.44 48.171 541.44 51.104 Q 541.44 54.047 542.11 56.023 Q 542.78 58.000 544.36 59.719 z M 547.39 57.882 L 547.39 55.905 Q 549.67 56.808 550.98 56.808 Q 552.49 56.808 553.44 55.921 Q 554.39 55.035 554.39 53.628 Q 554.39 50.276 549.70 50.276 L 548.86 50.276 L 548.86 48.848 L 549.60 48.837 Q 554.01 48.837 554.01 45.732 Q 554.01 43.294 551.11 43.294 Q 549.52 43.294 547.60 44.186 L 547.60 42.338 Q 549.48 41.704 551.26 41.704 Q 556.13 41.704 556.13 45.389 Q 556.13 48.192 552.81 49.385 Q 556.66 50.276 556.66 53.596 Q 556.66 55.841 555.18 57.119 Q 553.69 58.397 551.11 58.397 Q 549.63 58.397 547.39 57.882 z M 559.86 59.719 L 559.86 61.180 Q 562.18 59.601 563.54 56.888 Q 564.90 54.176 564.90 51.104 Q 564.90 48.042 563.54 45.330 Q 562.18 42.617 559.86 41.038 L 559.86 42.499 Q 561.44 44.218 562.11 46.194 Q 562.78 48.171 562.78 51.104 Q 562.78 54.047 562.11 56.023 Q 561.44 58.000 559.86 59.719 z" />
          <title id="title244">(3)</title>
          <desc id="desc246">text5 = &quot;(3)&quot;</desc>
        </g>
      </g>
      <clipPath id="clip19">
        <path id="path249" d="M 0.0000 0.0000 L 0.0000 459.00 L 474.00 459.00 L 474.00 0.0000 z" />
      </clipPath>
      <g id="g251" clip-path="url(#clip19)">
        <g id="g253" fill="#000000" stroke="none" fill-rule="nonzero" fill-opacity="1.0000">
          <path id="path255" d="M 343.36 500.72 L 343.36 502.18 Q 341.04 500.60 339.68 497.89 Q 338.32 495.18 338.32 492.10 Q 338.32 489.04 339.68 486.33 Q 341.04 483.62 343.36 482.04 L 343.36 483.50 Q 341.78 485.22 341.11 487.19 Q 340.44 489.17 340.44 492.10 Q 340.44 495.05 341.11 497.02 Q 341.78 499.00 343.36 500.72 z M 352.44 499.00 L 352.44 494.50 L 345.28 494.50 L 345.28 492.90 L 352.44 483.10 L 354.42 483.10 L 354.42 492.77 L 356.55 492.77 L 356.55 494.50 L 354.42 494.50 L 354.42 499.00 z M 347.36 492.77 L 352.58 492.77 L 352.58 485.70 z M 358.86 500.72 L 358.86 502.18 Q 361.18 500.60 362.54 497.89 Q 363.90 495.18 363.90 492.10 Q 363.90 489.04 362.54 486.33 Q 361.18 483.62 358.86 482.04 L 358.86 483.50 Q 360.44 485.22 361.11 487.19 Q 361.78 489.17 361.78 492.10 Q 361.78 495.05 361.11 497.02 Q 360.44 499.00 358.86 500.72 z" />
          <title id="title257">(4)</title>
          <desc id="desc259">text6 = &quot;(4)&quot;</desc>
        </g>
      </g>
      <g id="g261" transform="matrix(19.000, 0.0000, 0.0000, 19.000, 152.28, 252.24)">
        <clipPath id="clip20">
          <path id="path264" d="M -8.0147 -13.276 L -8.0147 10.882 L 16.933 10.882 L 16.933 -13.276 z" />
        </clipPath>
        <g id="g266" clip-path="url(#clip20)">
          <g id="g268" fill="#000000" stroke="none" fill-rule="nonzero" fill-opacity="1.0000">
            <path id="path270" d="M .29688 -.35938 L .29688 -.35938 Q .39062 -.32812 .43750 -.25000 Q .45312 -.21875 .45312 -.17188 Q .45312 -.093750 .39062 -.031250 Q .32812 .015625 .25000 .015625 Q .14062 .015625 .078125 -.031250 Q .046875 -.078125 .046875 -.14062 Q .046875 -.18750 .078125 -.18750 Q .093750 -.18750 .093750 -.18750 Q .14062 -.18750 .15625 -.15625 Q .15625 -.14062 .15625 -.14062 Q .15625 -.093750 .12500 -.078125 Q .10938 -.078125 .093750 -.078125 Q .12500 -.015625 .21875 -.015625 Q .23438 -0.0000 .23438 -0.0000 Q .31250 -0.0000 .32812 -.062500 Q .35938 -.10938 .35938 -.17188 Q .35938 -.29688 .28125 -.32812 Q .25000 -.34375 .23438 -.34375 L .18750 -.34375 Q .17188 -.34375 .17188 -.34375 Q .17188 -.35938 .18750 -.35938 Q .20312 -.35938 .21875 -.35938 Q .26562 -.35938 .29688 -.40625 L .29688 -.40625 L .29688 -.40625 L .29688 -.40625 L .29688 -.40625 L .31250 -.42188 Q .34375 -.46875 .34375 -.53125 Q .34375 -.62500 .26562 -.64062 Q .25000 -.64062 .23438 -.64062 Q .17188 -.64062 .12500 -.59375 Q .10938 -.59375 .10938 -.57812 Q .17188 -.57812 .17188 -.53125 Q .17188 -.50000 .14062 -.48438 Q .12500 -.48438 .12500 -.48438 Q .078125 -.48438 .078125 -.51562 L .078125 -.51562 L .078125 -.51562 Q .062500 -.51562 .062500 -.53125 Q .062500 -.59375 .14062 -.64062 Q .18750 -.67188 .25000 -.67188 Q .34375 -.67188 .39062 -.60938 L .39062 -.60938 Q .43750 -.57812 .43750 -.53125 Q .43750 -.43750 .35938 -.39062 Q .32812 -.35938 .29688 -.35938 z" />
            <title id="title272">\frac{3}{2}</title>
            <desc id="desc274">text7 = &quot;\frac{3}{2}&quot;</desc>
          </g>
        </g>
      </g>
      <g id="g276" transform="matrix(19.000, 0.0000, 0.0000, 19.000, 0.0000, 0.0000)">
        <clipPath id="clip21">
          <path id="path279" d="M 0.0000 0.0000 L 0.0000 24.158 L 24.947 24.158 L 24.947 0.0000 z" />
        </clipPath>
        <g id="g281" clip-path="url(#clip21)">
          <g id="g283" fill="#000000" stroke="none" fill-rule="nonzero" fill-opacity="1.0000">
            <path id="path285" d="M 8.0147 13.683 L 8.5147 13.683 L 8.5147 13.723 L 8.0147 13.723 L 8.0147 13.683 z" />
            <title id="title287">\frac{3}{2}</title>
            <desc id="desc289">text7 = &quot;\frac{3}{2}&quot;</desc>
          </g>
        </g>
      </g>
      <g id="g291" transform="matrix(19.000, 0.0000, 0.0000, 19.000, 152.28, 278.13)">
        <clipPath id="clip22">
          <path id="path294" d="M -8.0147 -14.638 L -8.0147 9.5194 L 16.933 9.5194 L 16.933 -14.638 z" />
        </clipPath>
        <g id="g296" clip-path="url(#clip22)">
          <g id="g298" fill="#000000" stroke="none" fill-rule="nonzero" fill-opacity="1.0000">
            <path id="path300" d="M .45312 -.17188 L .45312 -.17188 L .42188 -0.0000 L .046875 -0.0000 Q .046875 -.031250 .062500 -.031250 L .062500 -.031250 L .25000 -.25000 Q .35938 -.37500 .35938 -.46875 Q .35938 -.56250 .29688 -.60938 L .29688 -.60938 L .29688 -.60938 Q .26562 -.64062 .21875 -.64062 Q .15625 -.64062 .10938 -.57812 Q .093750 -.56250 .093750 -.53125 Q .093750 -.53125 .10938 -.53125 Q .14062 -.53125 .15625 -.50000 L .15625 -.50000 Q .15625 -.48438 .15625 -.48438 Q .15625 -.43750 .10938 -.43750 Q .10938 -.42188 .10938 -.42188 Q .062500 -.42188 .046875 -.45312 Q .046875 -.46875 .046875 -.48438 Q .046875 -.56250 .10938 -.60938 Q .15625 -.67188 .23438 -.67188 Q .34375 -.67188 .40625 -.59375 Q .43750 -.54688 .45312 -.48438 Q .45312 -.48438 .45312 -.46875 Q .45312 -.40625 .39062 -.32812 Q .35938 -.29688 .29688 -.25000 L .25000 -.18750 L .23438 -.18750 L .12500 -.078125 L .31250 -.078125 Q .39062 -.078125 .40625 -.078125 Q .40625 -.093750 .42188 -.17188 L .45312 -.17188 z" />
            <title id="title302">\frac{3}{2}</title>
            <desc id="desc304">text7 = &quot;\frac{3}{2}&quot;</desc>
          </g>
        </g>
      </g>
      <g id="g306" transform="matrix(19.000, 0.0000, 0.0000, 19.000, 254.28, 124.24)">
        <clipPath id="clip23">
          <path id="path309" d="M -13.383 -6.5392 L -13.383 17.619 L 11.564 17.619 L 11.564 -6.5392 z" />
        </clipPath>
        <g id="g311" clip-path="url(#clip23)">
          <g id="g313" fill="#000000" stroke="none" fill-rule="nonzero" fill-opacity="1.0000">
            <path id="path315" d="M .29688 -.35938 L .29688 -.35938 Q .39062 -.32812 .43750 -.25000 Q .45312 -.21875 .45312 -.17188 Q .45312 -.093750 .39062 -.031250 Q .32812 .015625 .25000 .015625 Q .14062 .015625 .078125 -.031250 Q .046875 -.078125 .046875 -.14062 Q .046875 -.18750 .078125 -.18750 Q .093750 -.18750 .093750 -.18750 Q .14062 -.18750 .15625 -.15625 Q .15625 -.14062 .15625 -.14062 Q .15625 -.093750 .12500 -.078125 Q .10938 -.078125 .093750 -.078125 Q .12500 -.015625 .21875 -.015625 Q .23438 -0.0000 .23438 -0.0000 Q .31250 -0.0000 .32812 -.062500 Q .35938 -.10938 .35938 -.17188 Q .35938 -.29688 .28125 -.32812 Q .25000 -.34375 .23438 -.34375 L .18750 -.34375 Q .17188 -.34375 .17188 -.34375 Q .17188 -.35938 .18750 -.35938 Q .20312 -.35938 .21875 -.35938 Q .26562 -.35938 .29688 -.40625 L .29688 -.40625 L .29688 -.40625 L .29688 -.40625 L .29688 -.40625 L .31250 -.42188 Q .34375 -.46875 .34375 -.53125 Q .34375 -.62500 .26562 -.64062 Q .25000 -.64062 .23438 -.64062 Q .17188 -.64062 .12500 -.59375 Q .10938 -.59375 .10938 -.57812 Q .17188 -.57812 .17188 -.53125 Q .17188 -.50000 .14062 -.48438 Q .12500 -.48438 .12500 -.48438 Q .078125 -.48438 .078125 -.51562 L .078125 -.51562 L .078125 -.51562 Q .062500 -.51562 .062500 -.53125 Q .062500 -.59375 .14062 -.64062 Q .18750 -.67188 .25000 -.67188 Q .34375 -.67188 .39062 -.60938 L .39062 -.60938 Q .43750 -.57812 .43750 -.53125 Q .43750 -.43750 .35938 -.39062 Q .32812 -.35938 .29688 -.35938 z" />
            <title id="title317">\frac{3}{2}</title>
            <desc id="desc319">text8 = &quot;\frac{3}{2}&quot;</desc>
          </g>
        </g>
      </g>
      <g id="g321" transform="matrix(19.000, 0.0000, 0.0000, 19.000, 0.0000, 0.0000)">
        <clipPath id="clip24">
          <path id="path324" d="M 0.0000 0.0000 L 0.0000 24.158 L 24.947 24.158 L 24.947 0.0000 z" />
        </clipPath>
        <g id="g326" clip-path="url(#clip24)">
          <g id="g328" fill="#000000" stroke="none" fill-rule="nonzero" fill-opacity="1.0000">
            <path id="path330" d="M 13.383 6.9457 L 13.883 6.9457 L 13.883 6.9857 L 13.383 6.9857 L 13.383 6.9457 z" />
            <title id="title332">\frac{3}{2}</title>
            <desc id="desc334">text8 = &quot;\frac{3}{2}&quot;</desc>
          </g>
        </g>
      </g>
      <g id="g336" transform="matrix(19.000, 0.0000, 0.0000, 19.000, 254.28, 150.13)">
        <clipPath id="clip25">
          <path id="path339" d="M -13.383 -7.9016 L -13.383 16.256 L 11.564 16.256 L 11.564 -7.9016 z" />
        </clipPath>
        <g id="g341" clip-path="url(#clip25)">
          <g id="g343" fill="#000000" stroke="none" fill-rule="nonzero" fill-opacity="1.0000">
            <path id="path345" d="M .45312 -.17188 L .45312 -.17188 L .42188 -0.0000 L .046875 -0.0000 Q .046875 -.031250 .062500 -.031250 L .062500 -.031250 L .25000 -.25000 Q .35938 -.37500 .35938 -.46875 Q .35938 -.56250 .29688 -.60938 L .29688 -.60938 L .29688 -.60938 Q .26562 -.64062 .21875 -.64062 Q .15625 -.64062 .10938 -.57812 Q .093750 -.56250 .093750 -.53125 Q .093750 -.53125 .10938 -.53125 Q .14062 -.53125 .15625 -.50000 L .15625 -.50000 Q .15625 -.48438 .15625 -.48438 Q .15625 -.43750 .10938 -.43750 Q .10938 -.42188 .10938 -.42188 Q .062500 -.42188 .046875 -.45312 Q .046875 -.46875 .046875 -.48438 Q .046875 -.56250 .10938 -.60938 Q .15625 -.67188 .23438 -.67188 Q .34375 -.67188 .40625 -.59375 Q .43750 -.54688 .45312 -.48438 Q .45312 -.48438 .45312 -.46875 Q .45312 -.40625 .39062 -.32812 Q .35938 -.29688 .29688 -.25000 L .25000 -.18750 L .23438 -.18750 L .12500 -.078125 L .31250 -.078125 Q .39062 -.078125 .40625 -.078125 Q .40625 -.093750 .42188 -.17188 L .45312 -.17188 z" />
            <title id="title347">\frac{3}{2}</title>
            <desc id="desc349">text8 = &quot;\frac{3}{2}&quot;</desc>
          </g>
        </g>
      </g>
    </g>
  </g>
</svg>