<?xml version='1.0' ?><svg xmlns:dc="http://purl.org/dc/elements/1.1/" xmlns:cc="http://creativecommons.org/ns#" xmlns:rdf="http://www.w3.org/1999/02/22-rdf-syntax-ns#" xmlns:svg="http://www.w3.org/2000/svg" xmlns="http://www.w3.org/2000/svg" id="svg2" version="1.1" width="326.23927" height="316.0625" viewBox="25.737374769230765 0.11538461538461536 401.5252553846153 388.99999999999994" preserveAspectRatio="none">
  <metadata id="metadata454">
    <rdf:RDF>
      <cc:Work rdf:about="">
        <dc:format>image/svg+xml</dc:format>
        <dc:type rdf:resource="http://purl.org/dc/dcmitype/StillImage" />
      </cc:Work>
    </rdf:RDF>
  </metadata>
  <defs id="defs452" />
  <title id="title4" />
  <g id="g6" stroke-linecap="square" stroke-miterlimit="10.000" stroke-width="1.0000" stroke-dasharray="none" stroke-dashoffset="0.0000" stroke-linejoin="miter">
    <g id="misc" />
    <g id="layer0">
      <clipPath id="clip1">
        <path id="path11" d="M 0.0000 0.0000 L 0.0000 389.00 L 460.00 389.00 L 460.00 0.0000 z" />
      </clipPath>
      <g id="g13" clip-path="url(#clip1)">
        <g id="g15" stroke="#ff00ff" stroke-opacity="1.0000" fill="none" stroke-linecap="round" stroke-width="2.5000" stroke-linejoin="round">
          <path id="path17" d="M 27.000 394.00 L 426.00 -5.0000" />
          <title id="title19">Line n</title>
          <desc id="desc21">n: y = x + 2</desc>
        </g>
      </g>
      <clipPath id="clip2">
        <path id="path24" d="M 0.0000 0.0000 L 0.0000 389.00 L 460.00 389.00 L 460.00 0.0000 z" />
      </clipPath>
      <g id="g26" clip-path="url(#clip2)">
        <g id="g28" stroke="#000000" stroke-opacity="1.0000" fill="none" stroke-linecap="butt" stroke-width="2.0000" stroke-dasharray="10.000,8.0000" stroke-linejoin="round">
          <path id="path30" d="M 142.00 279.00 L 192.00 279.00" />
          <title id="title32">Segment f</title>
          <desc id="desc34">Segment f: Segment [A, F]</desc>
        </g>
      </g>
      <clipPath id="clip3">
        <path id="path37" d="M 0.0000 0.0000 L 0.0000 389.00 L 460.00 389.00 L 460.00 0.0000 z" />
      </clipPath>
      <g id="g39" clip-path="url(#clip3)">
        <g id="g41" stroke="#000000" stroke-opacity="1.0000" fill="none" stroke-linecap="butt" stroke-width="2.0000" stroke-dasharray="10.000,8.0000" stroke-linejoin="round">
          <path id="path43" d="M 192.00 279.00 L 192.00 229.00" />
          <title id="title45">Segment g</title>
          <desc id="desc47">Segment g: Segment [F, B]</desc>
        </g>
      </g>
      <clipPath id="clip4">
        <path id="path50" d="M 0.0000 0.0000 L 0.0000 389.00 L 460.00 389.00 L 460.00 0.0000 z" />
      </clipPath>
      <g id="g52" clip-path="url(#clip4)">
        <g id="g54" stroke="#000000" stroke-opacity="1.0000" fill="none" stroke-linecap="butt" stroke-width="2.0000" stroke-dasharray="10.000,8.0000" stroke-linejoin="round">
          <path id="path56" d="M 192.00 229.00 L 242.00 229.00" />
          <title id="title58">Segment h</title>
          <desc id="desc60">Segment h: Segment [B, G]</desc>
        </g>
      </g>
      <clipPath id="clip5">
        <path id="path63" d="M 0.0000 0.0000 L 0.0000 389.00 L 460.00 389.00 L 460.00 0.0000 z" />
      </clipPath>
      <g id="g65" clip-path="url(#clip5)">
        <g id="g67" stroke="#000000" stroke-opacity="1.0000" fill="none" stroke-linecap="butt" stroke-width="2.0000" stroke-dasharray="10.000,8.0000" stroke-linejoin="round">
          <path id="path69" d="M 242.00 229.00 L 242.00 179.00" />
          <title id="title71">Segment i</title>
          <desc id="desc73">Segment i: Segment [G, C]</desc>
        </g>
      </g>
      <clipPath id="clip6">
        <path id="path76" d="M 0.0000 0.0000 L 0.0000 389.00 L 460.00 389.00 L 460.00 0.0000 z" />
      </clipPath>
      <g id="g78" clip-path="url(#clip6)">
        <g id="g80" stroke="#000000" stroke-opacity="1.0000" fill="none" stroke-linecap="butt" stroke-width="2.0000" stroke-dasharray="10.000,8.0000" stroke-linejoin="round">
          <path id="path82" d="M 242.00 179.00 L 292.00 179.00" />
          <title id="title84">Segment j</title>
          <desc id="desc86">Segment j: Segment [C, H]</desc>
        </g>
      </g>
      <clipPath id="clip7">
        <path id="path89" d="M 0.0000 0.0000 L 0.0000 389.00 L 460.00 389.00 L 460.00 0.0000 z" />
      </clipPath>
      <g id="g91" clip-path="url(#clip7)">
        <g id="g93" stroke="#000000" stroke-opacity="1.0000" fill="none" stroke-linecap="butt" stroke-width="2.0000" stroke-dasharray="10.000,8.0000" stroke-linejoin="round">
          <path id="path95" d="M 292.00 179.00 L 292.00 129.00" />
          <title id="title97">Segment k</title>
          <desc id="desc99">Segment k: Segment [H, D]</desc>
        </g>
      </g>
      <clipPath id="clip8">
        <path id="path102" d="M 0.0000 0.0000 L 0.0000 389.00 L 460.00 389.00 L 460.00 0.0000 z" />
      </clipPath>
      <g id="g104" clip-path="url(#clip8)">
        <g id="g106" stroke="#000000" stroke-opacity="1.0000" fill="none" stroke-linecap="butt" stroke-width="2.0000" stroke-dasharray="10.000,8.0000" stroke-linejoin="round">
          <path id="path108" d="M 292.00 129.00 L 342.00 129.00" />
          <title id="title110">Segment l</title>
          <desc id="desc112">Segment l: Segment [D, I]</desc>
        </g>
      </g>
      <clipPath id="clip9">
        <path id="path115" d="M 0.0000 0.0000 L 0.0000 389.00 L 460.00 389.00 L 460.00 0.0000 z" />
      </clipPath>
      <g id="g117" clip-path="url(#clip9)">
        <g id="g119" stroke="#000000" stroke-opacity="1.0000" fill="none" stroke-linecap="butt" stroke-width="2.0000" stroke-dasharray="10.000,8.0000" stroke-linejoin="round">
          <path id="path121" d="M 342.00 129.00 L 342.00 79.000" />
          <title id="title123">Segment m</title>
          <desc id="desc125">Segment m: Segment [I, E]</desc>
        </g>
      </g>
      <clipPath id="clip10">
        <path id="path128" d="M 0.0000 0.0000 L 0.0000 389.00 L 460.00 389.00 L 460.00 0.0000 z" />
      </clipPath>
      <g id="g130" clip-path="url(#clip10)">
        <g id="g132" fill="#000000" stroke="none" fill-rule="nonzero" fill-opacity="1.0000">
          <path id="path134" d="M 148.00 279.00 C 148.00 282.31 145.31 285.00 142.00 285.00 C 138.69 285.00 136.00 282.31 136.00 279.00 C 136.00 275.69 138.69 273.00 142.00 273.00 C 145.31 273.00 148.00 275.69 148.00 279.00 z" />
          <title id="title136">Point A</title>
          <desc id="desc138">Point A: Point on yAxis</desc>
        </g>
      </g>
      <clipPath id="clip11">
        <path id="path141" d="M 0.0000 0.0000 L 0.0000 389.00 L 460.00 389.00 L 460.00 0.0000 z" />
      </clipPath>
      <g id="g143" clip-path="url(#clip11)">
        <g id="g145" stroke="#000000" stroke-opacity="1.0000" fill="none" stroke-linecap="round" stroke-linejoin="round">
          <path id="path147" d="M 148.00 279.00 C 148.00 282.31 145.31 285.00 142.00 285.00 C 138.69 285.00 136.00 282.31 136.00 279.00 C 136.00 275.69 138.69 273.00 142.00 273.00 C 145.31 273.00 148.00 275.69 148.00 279.00 z" />
          <title id="title149">Point A</title>
          <desc id="desc151">Point A: Point on yAxis</desc>
        </g>
      </g>
      <clipPath id="clip12">
        <path id="path154" d="M 0.0000 0.0000 L 0.0000 389.00 L 460.00 389.00 L 460.00 0.0000 z" />
      </clipPath>
      <g id="g156" clip-path="url(#clip12)">
        <g id="g158" fill="#000000" stroke="none" fill-rule="nonzero" fill-opacity="1.0000">
          <path id="path160" d="M 195.00 229.00 C 195.00 230.66 193.66 232.00 192.00 232.00 C 190.34 232.00 189.00 230.66 189.00 229.00 C 189.00 227.34 190.34 226.00 192.00 226.00 C 193.66 226.00 195.00 227.34 195.00 229.00 z" />
          <title id="title162">Point B</title>
          <desc id="desc164">B = (1, 3)</desc>
        </g>
      </g>
      <clipPath id="clip13">
        <path id="path167" d="M 0.0000 0.0000 L 0.0000 389.00 L 460.00 389.00 L 460.00 0.0000 z" />
      </clipPath>
      <g id="g169" clip-path="url(#clip13)">
        <g id="g171" stroke="#000000" stroke-opacity="1.0000" fill="none" stroke-linecap="round" stroke-linejoin="round">
          <path id="path173" d="M 195.00 229.00 C 195.00 230.66 193.66 232.00 192.00 232.00 C 190.34 232.00 189.00 230.66 189.00 229.00 C 189.00 227.34 190.34 226.00 192.00 226.00 C 193.66 226.00 195.00 227.34 195.00 229.00 z" />
          <title id="title175">Point B</title>
          <desc id="desc177">B = (1, 3)</desc>
        </g>
      </g>
      <clipPath id="clip14">
        <path id="path180" d="M 0.0000 0.0000 L 0.0000 389.00 L 460.00 389.00 L 460.00 0.0000 z" />
      </clipPath>
      <g id="g182" clip-path="url(#clip14)">
        <g id="g184" fill="#000000" stroke="none" fill-rule="nonzero" fill-opacity="1.0000">
          <path id="path186" d="M 245.00 179.00 C 245.00 180.66 243.66 182.00 242.00 182.00 C 240.34 182.00 239.00 180.66 239.00 179.00 C 239.00 177.34 240.34 176.00 242.00 176.00 C 243.66 176.00 245.00 177.34 245.00 179.00 z" />
          <title id="title188">Point C</title>
          <desc id="desc190">C = (2, 4)</desc>
        </g>
      </g>
      <clipPath id="clip15">
        <path id="path193" d="M 0.0000 0.0000 L 0.0000 389.00 L 460.00 389.00 L 460.00 0.0000 z" />
      </clipPath>
      <g id="g195" clip-path="url(#clip15)">
        <g id="g197" stroke="#000000" stroke-opacity="1.0000" fill="none" stroke-linecap="round" stroke-linejoin="round">
          <path id="path199" d="M 245.00 179.00 C 245.00 180.66 243.66 182.00 242.00 182.00 C 240.34 182.00 239.00 180.66 239.00 179.00 C 239.00 177.34 240.34 176.00 242.00 176.00 C 243.66 176.00 245.00 177.34 245.00 179.00 z" />
          <title id="title201">Point C</title>
          <desc id="desc203">C = (2, 4)</desc>
        </g>
      </g>
      <clipPath id="clip16">
        <path id="path206" d="M 0.0000 0.0000 L 0.0000 389.00 L 460.00 389.00 L 460.00 0.0000 z" />
      </clipPath>
      <g id="g208" clip-path="url(#clip16)">
        <g id="g210" fill="#000000" stroke="none" fill-rule="nonzero" fill-opacity="1.0000">
          <path id="path212" d="M 295.00 129.00 C 295.00 130.66 293.66 132.00 292.00 132.00 C 290.34 132.00 289.00 130.66 289.00 129.00 C 289.00 127.34 290.34 126.00 292.00 126.00 C 293.66 126.00 295.00 127.34 295.00 129.00 z" />
          <title id="title214">Point D</title>
          <desc id="desc216">D = (3, 5)</desc>
        </g>
      </g>
      <clipPath id="clip17">
        <path id="path219" d="M 0.0000 0.0000 L 0.0000 389.00 L 460.00 389.00 L 460.00 0.0000 z" />
      </clipPath>
      <g id="g221" clip-path="url(#clip17)">
        <g id="g223" stroke="#000000" stroke-opacity="1.0000" fill="none" stroke-linecap="round" stroke-linejoin="round">
          <path id="path225" d="M 295.00 129.00 C 295.00 130.66 293.66 132.00 292.00 132.00 C 290.34 132.00 289.00 130.66 289.00 129.00 C 289.00 127.34 290.34 126.00 292.00 126.00 C 293.66 126.00 295.00 127.34 295.00 129.00 z" />
          <title id="title227">Point D</title>
          <desc id="desc229">D = (3, 5)</desc>
        </g>
      </g>
      <clipPath id="clip18">
        <path id="path232" d="M 0.0000 0.0000 L 0.0000 389.00 L 460.00 389.00 L 460.00 0.0000 z" />
      </clipPath>
      <g id="g234" clip-path="url(#clip18)">
        <g id="g236" fill="#000000" stroke="none" fill-rule="nonzero" fill-opacity="1.0000">
          <path id="path238" d="M 345.00 79.000 C 345.00 80.657 343.66 82.000 342.00 82.000 C 340.34 82.000 339.00 80.657 339.00 79.000 C 339.00 77.343 340.34 76.000 342.00 76.000 C 343.66 76.000 345.00 77.343 345.00 79.000 z" />
          <title id="title240">Point E</title>
          <desc id="desc242">E = (4, 6)</desc>
        </g>
      </g>
      <clipPath id="clip19">
        <path id="path245" d="M 0.0000 0.0000 L 0.0000 389.00 L 460.00 389.00 L 460.00 0.0000 z" />
      </clipPath>
      <g id="g247" clip-path="url(#clip19)">
        <g id="g249" stroke="#000000" stroke-opacity="1.0000" fill="none" stroke-linecap="round" stroke-linejoin="round">
          <path id="path251" d="M 345.00 79.000 C 345.00 80.657 343.66 82.000 342.00 82.000 C 340.34 82.000 339.00 80.657 339.00 79.000 C 339.00 77.343 340.34 76.000 342.00 76.000 C 343.66 76.000 345.00 77.343 345.00 79.000 z" />
          <title id="title253">Point E</title>
          <desc id="desc255">E = (4, 6)</desc>
        </g>
      </g>
      <clipPath id="clip20">
        <path id="path258" d="M 0.0000 0.0000 L 0.0000 389.00 L 460.00 389.00 L 460.00 0.0000 z" />
      </clipPath>
      <g id="g260" clip-path="url(#clip20)">
        <g id="g262" fill="#000000" stroke="none" fill-rule="nonzero" fill-opacity="1.0000">
          <path id="path264" d="M 37.625 363.25 L 37.625 364.31 Q 35.938 363.16 34.949 361.19 Q 33.961 359.22 33.961 356.98 Q 33.961 354.76 34.949 352.79 Q 35.938 350.81 37.625 349.66 L 37.625 350.73 Q 36.477 351.98 35.988 353.41 Q 35.500 354.85 35.500 356.98 Q 35.500 359.12 35.988 360.56 Q 36.477 362.00 37.625 363.25 z M 40.609 362.00 L 40.609 360.84 L 42.922 360.84 L 42.922 351.72 L 40.609 352.30 L 40.609 351.11 L 44.469 350.15 L 44.469 360.84 L 46.781 360.84 L 46.781 362.00 z M 48.898 363.25 L 48.898 364.31 Q 50.586 363.16 51.574 361.19 Q 52.562 359.22 52.562 356.98 Q 52.562 354.76 51.574 352.79 Q 50.586 350.81 48.898 349.66 L 48.898 350.73 Q 50.047 351.98 50.535 353.41 Q 51.023 354.85 51.023 356.98 Q 51.023 359.12 50.535 360.56 Q 50.047 362.00 48.898 363.25 z" />
          <title id="title266">(1)</title>
          <desc id="desc268">text2 = &quot;(1)&quot;</desc>
        </g>
      </g>
      <g id="g270" transform="matrix(19.000, 0.0000, 0.0000, 19.000, 99.000, 240.76)">
        <clipPath id="clip21">
          <path id="path273" d="M -5.2105 -12.672 L -5.2105 7.8021 L 19.000 7.8021 L 19.000 -12.672 z" />
        </clipPath>
        <g id="g275" clip-path="url(#clip21)">
          <g id="g277" fill="#000000" stroke="none" fill-rule="nonzero" fill-opacity="1.0000">
            <path id="path279" d="M .65625 2.3594 Q .54688 2.2500 .45312 2.1094 Q .35938 1.9688 .30469 1.8125 Q .25000 1.6562 .22656 1.4922 Q .20312 1.3281 .20312 1.1562 Q .20312 .98438 .22656 .82031 Q .25000 .65625 .30469 .50000 Q .35938 .34375 .45312 .21094 Q .54688 .078125 .65625 -.031250 Q .65625 -.046875 .67188 -.046875 L .68750 -.046875 Q .70312 -.046875 .70312 -.039062 Q .70312 -.031250 .70312 -.031250 Q .70312 -.031250 .70312 -.031250 Q .57812 .093750 .50000 .22656 Q .42188 .35938 .37500 .51562 Q .32812 .67188 .31250 .83594 Q .29688 1.0000 .29688 1.1562 Q .29688 1.3281 .31250 1.4844 Q .32812 1.6406 .37500 1.7969 Q .42188 1.9531 .50781 2.0938 Q .59375 2.2344 .70312 2.3438 Q .70312 2.3438 .70312 2.3438 Q .70312 2.3594 .70312 2.3594 Q .70312 2.3594 .68750 2.3594 L .67188 2.3594 Q .65625 2.3594 .65625 2.3594 z" />
            <title id="title281">\begin{pmatrix}0\\2\end{pmatrix}</title>
            <desc id="desc283">text4 = &quot;\begin{pmatrix}0\\2\end{pmatrix}&quot;</desc>
          </g>
        </g>
      </g>
      <g id="g285" transform="matrix(19.000, 0.0000, 0.0000, 19.000, 112.99, 258.71)">
        <clipPath id="clip22">
          <path id="path288" d="M -5.9466 -13.616 L -5.9466 6.8574 L 18.264 6.8574 L 18.264 -13.616 z" />
        </clipPath>
        <g id="g290" clip-path="url(#clip22)">
          <g id="g292" fill="#000000" stroke="none" fill-rule="nonzero" fill-opacity="1.0000">
            <path id="path294" d="M .53125 -.31250 Q .53125 -.28125 .53125 -.26562 Q .53125 -.25000 .52344 -.21094 Q .51562 -.17188 .50781 -.14844 Q .50000 -.12500 .48438 -.093750 Q .46875 -.062500 .44531 -.039062 Q .42188 -.015625 .38281 -0.0000 Q .34375 .015625 .28125 .015625 Q .23438 .015625 .19531 -0.0000 Q .15625 -.015625 .13281 -.039062 Q .10938 -.062500 .093750 -.093750 Q .078125 -.12500 .070312 -.14844 Q .062500 -.17188 .054688 -.21094 Q .046875 -.25000 .046875 -.26562 Q .046875 -.28125 .046875 -.31250 Q .046875 -.34375 .046875 -.36719 Q .046875 -.39062 .054688 -.42969 Q .062500 -.46875 .070312 -.49219 Q .078125 -.51562 .093750 -.55469 Q .10938 -.59375 .13281 -.60938 Q .15625 -.62500 .19531 -.64062 Q .23438 -.65625 .28906 -.65625 Q .34375 -.65625 .38281 -.64062 Q .42188 -.62500 .44531 -.60938 Q .46875 -.59375 .48438 -.55469 Q .50000 -.51562 .50781 -.49219 Q .51562 -.46875 .52344 -.42969 Q .53125 -.39062 .53125 -.36719 Q .53125 -.34375 .53125 -.31250 z M .28125 -.031250 Q .31250 -.031250 .32812 -.031250 Q .34375 -.031250 .36719 -.062500 Q .39062 -.093750 .39062 -.12500 Q .40625 -.18750 .40625 -.32812 Q .40625 -.51562 .39062 -.56250 Q .37500 -.59375 .34375 -.60938 Q .31250 -.62500 .28125 -.62500 Q .26562 -.62500 .25000 -.61719 Q .23438 -.60938 .21094 -.58594 Q .18750 -.56250 .18750 -.51562 Q .17188 -.46875 .17188 -.32812 Q .17188 -.17188 .18750 -.12500 Q .18750 -.078125 .21875 -.054688 Q .25000 -.031250 .28125 -.031250 z" />
            <title id="title296">\begin{pmatrix}0\\2\end{pmatrix}</title>
            <desc id="desc298">text4 = &quot;\begin{pmatrix}0\\2\end{pmatrix}&quot;</desc>
          </g>
        </g>
      </g>
      <g id="g300" transform="matrix(19.000, 0.0000, 0.0000, 19.000, 112.99, 279.13)">
        <clipPath id="clip23">
          <path id="path303" d="M -5.9466 -14.691 L -5.9466 5.7824 L 18.264 5.7824 L 18.264 -14.691 z" />
        </clipPath>
        <g id="g305" clip-path="url(#clip23)">
          <g id="g307" fill="#000000" stroke="none" fill-rule="nonzero" fill-opacity="1.0000">
            <path id="path309" d="M .51562 -.21875 L .48438 -0.0000 L .062500 -0.0000 L .062500 -.015625 Q .062500 -.031250 .062500 -.039062 Q .062500 -.046875 .062500 -.046875 L .26562 -.25000 Q .37500 -.35938 .37500 -.46875 Q .37500 -.53125 .34375 -.57031 Q .31250 -.60938 .25000 -.60938 Q .18750 -.60938 .14062 -.57812 Q .15625 -.56250 .16406 -.56250 Q .17188 -.56250 .18750 -.54688 Q .20312 -.53125 .20312 -.50000 Q .20312 -.46875 .17969 -.44531 Q .15625 -.42188 .12500 -.42188 Q .10938 -.42188 .085938 -.44531 Q .062500 -.46875 .062500 -.50000 Q .062500 -.56250 .12500 -.60938 Q .18750 -.65625 .26562 -.65625 Q .37500 -.65625 .44531 -.60156 Q .51562 -.54688 .51562 -.46875 Q .51562 -.43750 .50781 -.40625 Q .50000 -.37500 .46875 -.34375 Q .43750 -.31250 .41406 -.29688 Q .39062 -.28125 .34375 -.23438 Q .29688 -.20312 .18750 -.12500 L .34375 -.12500 Q .43750 -.12500 .43750 -.12500 Q .45312 -.14062 .46875 -.21875 L .51562 -.21875 z" />
            <title id="title311">\begin{pmatrix}0\\2\end{pmatrix}</title>
            <desc id="desc313">text4 = &quot;\begin{pmatrix}0\\2\end{pmatrix}&quot;</desc>
          </g>
        </g>
      </g>
      <g id="g315" transform="matrix(19.000, 0.0000, 0.0000, 19.000, 123.91, 240.76)">
        <clipPath id="clip24">
          <path id="path318" d="M -6.5216 -12.672 L -6.5216 7.8021 L 17.689 7.8021 L 17.689 -12.672 z" />
        </clipPath>
        <g id="g320" clip-path="url(#clip24)">
          <g id="g322" fill="#000000" stroke="none" fill-rule="nonzero" fill-opacity="1.0000">
            <path id="path324" d="M .046875 2.3594 Q .031250 2.3594 .031250 2.3438 Q .031250 2.3438 .031250 2.3438 Q .15625 2.2344 .23438 2.0938 Q .31250 1.9531 .35938 1.8047 Q .40625 1.6562 .42188 1.4922 Q .43750 1.3281 .43750 1.1562 Q .43750 .98438 .42188 .82812 Q .40625 .67188 .35938 .51562 Q .31250 .35938 .23438 .22656 Q .15625 .093750 .031250 -.031250 Q .031250 -.031250 .031250 -.031250 Q .031250 -.046875 .046875 -.046875 L .062500 -.046875 Q .078125 -.046875 .078125 -.031250 Q .20312 .078125 .28906 .21094 Q .37500 .34375 .42969 .50000 Q .48438 .65625 .50781 .82031 Q .53125 .98438 .53125 1.1562 Q .53125 1.3281 .50781 1.4922 Q .48438 1.6562 .42969 1.8125 Q .37500 1.9688 .28906 2.1094 Q .20312 2.2500 .078125 2.3594 Q .078125 2.3594 .062500 2.3594 L .046875 2.3594 z" />
            <title id="title326">\begin{pmatrix}0\\2\end{pmatrix}</title>
            <desc id="desc328">text4 = &quot;\begin{pmatrix}0\\2\end{pmatrix}&quot;</desc>
          </g>
        </g>
      </g>
      <g id="g330" transform="matrix(19.000, 0.0000, 0.0000, 19.000, 154.00, 185.76)">
        <clipPath id="clip25">
          <path id="path333" d="M -8.1053 -9.7768 L -8.1053 10.697 L 16.105 10.697 L 16.105 -9.7768 z" />
        </clipPath>
        <g id="g335" clip-path="url(#clip25)">
          <g id="g337" fill="#000000" stroke="none" fill-rule="nonzero" fill-opacity="1.0000">
            <path id="path339" d="M .65625 2.3594 Q .54688 2.2500 .45312 2.1094 Q .35938 1.9688 .30469 1.8125 Q .25000 1.6562 .22656 1.4922 Q .20312 1.3281 .20312 1.1562 Q .20312 .98438 .22656 .82031 Q .25000 .65625 .30469 .50000 Q .35938 .34375 .45312 .21094 Q .54688 .078125 .65625 -.031250 Q .65625 -.046875 .67188 -.046875 L .68750 -.046875 Q .70312 -.046875 .70312 -.039062 Q .70312 -.031250 .70312 -.031250 Q .70312 -.031250 .70312 -.031250 Q .57812 .093750 .50000 .22656 Q .42188 .35938 .37500 .51562 Q .32812 .67188 .31250 .83594 Q .29688 1.0000 .29688 1.1562 Q .29688 1.3281 .31250 1.4844 Q .32812 1.6406 .37500 1.7969 Q .42188 1.9531 .50781 2.0938 Q .59375 2.2344 .70312 2.3438 Q .70312 2.3438 .70312 2.3438 Q .70312 2.3594 .70312 2.3594 Q .70312 2.3594 .68750 2.3594 L .67188 2.3594 Q .65625 2.3594 .65625 2.3594 z" />
            <title id="title341">\begin{pmatrix}1\\3\end{pmatrix}</title>
            <desc id="desc343">text7 = &quot;\begin{pmatrix}1\\3\end{pmatrix}&quot;</desc>
          </g>
        </g>
      </g>
      <g id="g345" transform="matrix(19.000, 0.0000, 0.0000, 19.000, 167.99, 203.71)">
        <clipPath id="clip26">
          <path id="path348" d="M -8.8414 -10.722 L -8.8414 9.7521 L 15.369 9.7521 L 15.369 -10.722 z" />
        </clipPath>
        <g id="g350" clip-path="url(#clip26)">
          <g id="g352" fill="#000000" stroke="none" fill-rule="nonzero" fill-opacity="1.0000">
            <path id="path354" d="M .35938 -.62500 L .35938 -.046875 L .50000 -.046875 L .50000 -0.0000 Q .45312 -0.0000 .29688 -0.0000 Q .14062 -0.0000 .093750 -0.0000 L .093750 -.046875 L .23438 -.046875 L .23438 -.56250 Q .17188 -.54688 .10938 -.54688 L .078125 -.54688 L .078125 -.59375 L .10938 -.59375 Q .23438 -.59375 .31250 -.64062 Q .31250 -.65625 .32812 -.65625 Q .34375 -.65625 .35156 -.64844 Q .35938 -.64062 .35938 -.62500 z" />
            <title id="title356">\begin{pmatrix}1\\3\end{pmatrix}</title>
            <desc id="desc358">text7 = &quot;\begin{pmatrix}1\\3\end{pmatrix}&quot;</desc>
          </g>
        </g>
      </g>
      <g id="g360" transform="matrix(19.000, 0.0000, 0.0000, 19.000, 167.99, 224.13)">
        <clipPath id="clip27">
          <path id="path363" d="M -8.8414 -11.797 L -8.8414 8.6771 L 15.369 8.6771 L 15.369 -11.797 z" />
        </clipPath>
        <g id="g365" clip-path="url(#clip27)">
          <g id="g367" fill="#000000" stroke="none" fill-rule="nonzero" fill-opacity="1.0000">
            <path id="path369" d="M .35938 -.35938 Q .40625 -.34375 .43750 -.32031 Q .46875 -.29688 .49219 -.27344 Q .51562 -.25000 .52344 -.22656 Q .53125 -.20312 .53125 -.18750 Q .53125 -.10938 .46875 -.046875 Q .40625 .015625 .28125 .015625 Q .17188 .015625 .10938 -.031250 Q .046875 -.078125 .046875 -.14062 Q .046875 -.17188 .070312 -.19531 Q .093750 -.21875 .12500 -.21875 Q .15625 -.21875 .17969 -.19531 Q .20312 -.17188 .20312 -.14062 Q .20312 -.078125 .14062 -.062500 Q .20312 -.031250 .26562 -.031250 Q .29688 -.031250 .32031 -.046875 Q .34375 -.062500 .35156 -.070312 Q .35938 -.078125 .36719 -.10938 Q .37500 -.14062 .37500 -.14844 Q .37500 -.15625 .37500 -.18750 Q .37500 -.20312 .37500 -.21875 Q .37500 -.23438 .36719 -.25781 Q .35938 -.28125 .35156 -.29688 Q .34375 -.31250 .32031 -.32031 Q .29688 -.32812 .26562 -.32812 L .21875 -.32812 Q .20312 -.32812 .20312 -.32812 Q .20312 -.32812 .19531 -.33594 Q .18750 -.34375 .18750 -.34375 Q .18750 -.35938 .20312 -.35938 Q .21875 -.35938 .25000 -.37500 Q .28125 -.37500 .29688 -.38281 Q .31250 -.39062 .32812 -.40625 Q .34375 -.42188 .34375 -.43750 Q .34375 -.45312 .35156 -.47656 Q .35938 -.50000 .35938 -.50781 Q .35938 -.51562 .35938 -.51562 Q .35938 -.60938 .26562 -.60938 Q .20312 -.60938 .15625 -.57812 Q .21875 -.56250 .21875 -.51562 Q .21875 -.48438 .20312 -.46094 Q .18750 -.43750 .15625 -.43750 Q .12500 -.43750 .10156 -.46094 Q .078125 -.48438 .078125 -.51562 Q .078125 -.57812 .13281 -.61719 Q .18750 -.65625 .28125 -.65625 Q .37500 -.65625 .43750 -.61719 Q .50000 -.57812 .50000 -.51562 Q .50000 -.45312 .45312 -.41406 Q .40625 -.37500 .35938 -.35938 z" />
            <title id="title371">\begin{pmatrix}1\\3\end{pmatrix}</title>
            <desc id="desc373">text7 = &quot;\begin{pmatrix}1\\3\end{pmatrix}&quot;</desc>
          </g>
        </g>
      </g>
      <g id="g375" transform="matrix(19.000, 0.0000, 0.0000, 19.000, 178.91, 185.76)">
        <clipPath id="clip28">
          <path id="path378" d="M -9.4164 -9.7768 L -9.4164 10.697 L 14.794 10.697 L 14.794 -9.7768 z" />
        </clipPath>
        <g id="g380" clip-path="url(#clip28)">
          <g id="g382" fill="#000000" stroke="none" fill-rule="nonzero" fill-opacity="1.0000">
            <path id="path384" d="M .046875 2.3594 Q .031250 2.3594 .031250 2.3438 Q .031250 2.3438 .031250 2.3438 Q .15625 2.2344 .23438 2.0938 Q .31250 1.9531 .35938 1.8047 Q .40625 1.6562 .42188 1.4922 Q .43750 1.3281 .43750 1.1562 Q .43750 .98438 .42188 .82812 Q .40625 .67188 .35938 .51562 Q .31250 .35938 .23438 .22656 Q .15625 .093750 .031250 -.031250 Q .031250 -.031250 .031250 -.031250 Q .031250 -.046875 .046875 -.046875 L .062500 -.046875 Q .078125 -.046875 .078125 -.031250 Q .20312 .078125 .28906 .21094 Q .37500 .34375 .42969 .50000 Q .48438 .65625 .50781 .82031 Q .53125 .98438 .53125 1.1562 Q .53125 1.3281 .50781 1.4922 Q .48438 1.6562 .42969 1.8125 Q .37500 1.9688 .28906 2.1094 Q .20312 2.2500 .078125 2.3594 Q .078125 2.3594 .062500 2.3594 L .046875 2.3594 z" />
            <title id="title386">\begin{pmatrix}1\\3\end{pmatrix}</title>
            <desc id="desc388">text7 = &quot;\begin{pmatrix}1\\3\end{pmatrix}&quot;</desc>
          </g>
        </g>
      </g>
      <g id="g390" transform="matrix(19.000, 0.0000, 0.0000, 19.000, 202.00, 134.76)">
        <clipPath id="clip29">
          <path id="path393" d="M -10.632 -7.0926 L -10.632 13.381 L 13.579 13.381 L 13.579 -7.0926 z" />
        </clipPath>
        <g id="g395" clip-path="url(#clip29)">
          <g id="g397" fill="#000000" stroke="none" fill-rule="nonzero" fill-opacity="1.0000">
            <path id="path399" d="M .65625 2.3594 Q .54688 2.2500 .45312 2.1094 Q .35938 1.9688 .30469 1.8125 Q .25000 1.6562 .22656 1.4922 Q .20312 1.3281 .20312 1.1562 Q .20312 .98438 .22656 .82031 Q .25000 .65625 .30469 .50000 Q .35938 .34375 .45312 .21094 Q .54688 .078125 .65625 -.031250 Q .65625 -.046875 .67188 -.046875 L .68750 -.046875 Q .70312 -.046875 .70312 -.039062 Q .70312 -.031250 .70312 -.031250 Q .70312 -.031250 .70312 -.031250 Q .57812 .093750 .50000 .22656 Q .42188 .35938 .37500 .51562 Q .32812 .67188 .31250 .83594 Q .29688 1.0000 .29688 1.1562 Q .29688 1.3281 .31250 1.4844 Q .32812 1.6406 .37500 1.7969 Q .42188 1.9531 .50781 2.0938 Q .59375 2.2344 .70312 2.3438 Q .70312 2.3438 .70312 2.3438 Q .70312 2.3594 .70312 2.3594 Q .70312 2.3594 .68750 2.3594 L .67188 2.3594 Q .65625 2.3594 .65625 2.3594 z" />
            <title id="title401">\begin{pmatrix}2\\4\end{pmatrix}</title>
            <desc id="desc403">text8 = &quot;\begin{pmatrix}2\\4\end{pmatrix}&quot;</desc>
          </g>
        </g>
      </g>
      <g id="g405" transform="matrix(19.000, 0.0000, 0.0000, 19.000, 215.99, 152.71)">
        <clipPath id="clip30">
          <path id="path408" d="M -11.368 -8.0374 L -11.368 12.436 L 12.843 12.436 L 12.843 -8.0374 z" />
        </clipPath>
        <g id="g410" clip-path="url(#clip30)">
          <g id="g412" fill="#000000" stroke="none" fill-rule="nonzero" fill-opacity="1.0000">
            <path id="path414" d="M .51562 -.21875 L .48438 -0.0000 L .062500 -0.0000 L .062500 -.015625 Q .062500 -.031250 .062500 -.039062 Q .062500 -.046875 .062500 -.046875 L .26562 -.25000 Q .37500 -.35938 .37500 -.46875 Q .37500 -.53125 .34375 -.57031 Q .31250 -.60938 .25000 -.60938 Q .18750 -.60938 .14062 -.57812 Q .15625 -.56250 .16406 -.56250 Q .17188 -.56250 .18750 -.54688 Q .20312 -.53125 .20312 -.50000 Q .20312 -.46875 .17969 -.44531 Q .15625 -.42188 .12500 -.42188 Q .10938 -.42188 .085938 -.44531 Q .062500 -.46875 .062500 -.50000 Q .062500 -.56250 .12500 -.60938 Q .18750 -.65625 .26562 -.65625 Q .37500 -.65625 .44531 -.60156 Q .51562 -.54688 .51562 -.46875 Q .51562 -.43750 .50781 -.40625 Q .50000 -.37500 .46875 -.34375 Q .43750 -.31250 .41406 -.29688 Q .39062 -.28125 .34375 -.23438 Q .29688 -.20312 .18750 -.12500 L .34375 -.12500 Q .43750 -.12500 .43750 -.12500 Q .45312 -.14062 .46875 -.21875 L .51562 -.21875 z" />
            <title id="title416">\begin{pmatrix}2\\4\end{pmatrix}</title>
            <desc id="desc418">text8 = &quot;\begin{pmatrix}2\\4\end{pmatrix}&quot;</desc>
          </g>
        </g>
      </g>
      <g id="g420" transform="matrix(19.000, 0.0000, 0.0000, 19.000, 215.99, 173.13)">
        <clipPath id="clip31">
          <path id="path423" d="M -11.368 -9.1124 L -11.368 11.361 L 12.843 11.361 L 12.843 -9.1124 z" />
        </clipPath>
        <g id="g425" clip-path="url(#clip31)">
          <g id="g427" fill="#000000" stroke="none" fill-rule="nonzero" fill-opacity="1.0000">
            <path id="path429" d="M .43750 -.15625 L .43750 -.046875 L .54688 -.046875 L .54688 -0.0000 Q .50000 -0.0000 .37500 -0.0000 Q .25000 -0.0000 .20312 -0.0000 L .20312 -.046875 L .31250 -.046875 L .31250 -.15625 L .031250 -.15625 L .031250 -.20312 L .37500 -.64062 Q .39062 -.65625 .39844 -.65625 Q .40625 -.65625 .42188 -.65625 Q .43750 -.65625 .43750 -.64844 Q .43750 -.64062 .43750 -.62500 L .43750 -.20312 L .54688 -.20312 L .54688 -.15625 L .43750 -.15625 z M .32812 -.20312 L .32812 -.51562 L .078125 -.20312 L .32812 -.20312 z" />
            <title id="title431">\begin{pmatrix}2\\4\end{pmatrix}</title>
            <desc id="desc433">text8 = &quot;\begin{pmatrix}2\\4\end{pmatrix}&quot;</desc>
          </g>
        </g>
      </g>
      <g id="g435" transform="matrix(19.000, 0.0000, 0.0000, 19.000, 226.91, 134.76)">
        <clipPath id="clip32">
          <path id="path438" d="M -11.943 -7.0926 L -11.943 13.381 L 12.268 13.381 L 12.268 -7.0926 z" />
        </clipPath>
        <g id="g440" clip-path="url(#clip32)">
          <g id="g442" fill="#000000" stroke="none" fill-rule="nonzero" fill-opacity="1.0000">
            <path id="path444" d="M .046875 2.3594 Q .031250 2.3594 .031250 2.3438 Q .031250 2.3438 .031250 2.3438 Q .15625 2.2344 .23438 2.0938 Q .31250 1.9531 .35938 1.8047 Q .40625 1.6562 .42188 1.4922 Q .43750 1.3281 .43750 1.1562 Q .43750 .98438 .42188 .82812 Q .40625 .67188 .35938 .51562 Q .31250 .35938 .23438 .22656 Q .15625 .093750 .031250 -.031250 Q .031250 -.031250 .031250 -.031250 Q .031250 -.046875 .046875 -.046875 L .062500 -.046875 Q .078125 -.046875 .078125 -.031250 Q .20312 .078125 .28906 .21094 Q .37500 .34375 .42969 .50000 Q .48438 .65625 .50781 .82031 Q .53125 .98438 .53125 1.1562 Q .53125 1.3281 .50781 1.4922 Q .48438 1.6562 .42969 1.8125 Q .37500 1.9688 .28906 2.1094 Q .20312 2.2500 .078125 2.3594 Q .078125 2.3594 .062500 2.3594 L .046875 2.3594 z" />
            <title id="title446">\begin{pmatrix}2\\4\end{pmatrix}</title>
            <desc id="desc448">text8 = &quot;\begin{pmatrix}2\\4\end{pmatrix}&quot;</desc>
          </g>
        </g>
      </g>
    </g>
  </g>
</svg>