<?xml version='1.0' ?><svg xmlns:dc="http://purl.org/dc/elements/1.1/" xmlns:cc="http://creativecommons.org/ns#" xmlns:rdf="http://www.w3.org/1999/02/22-rdf-syntax-ns#" xmlns:svg="http://www.w3.org/2000/svg" xmlns="http://www.w3.org/2000/svg" id="svg2" version="1.1" width="373.75" height="286.11207" viewBox="0.0 0.10702994424080266 580.0 444.00000160535114" preserveAspectRatio="none">
  <metadata id="metadata262">
    <rdf:RDF>
      <cc:Work rdf:about="">
        <dc:format>image/svg+xml</dc:format>
        <dc:type rdf:resource="http://purl.org/dc/dcmitype/StillImage" />
      </cc:Work>
    </rdf:RDF>
  </metadata>
  <defs id="defs260" />
  <title id="title4" />
  <g id="g6" stroke-linecap="square" stroke-miterlimit="10.000" stroke-width="1.0000" stroke-dasharray="none" stroke-dashoffset="0.0000" stroke-linejoin="miter">
    <clipPath id="clip1">
      <path id="path9" d="M 0.0000 0.0000 L 0.0000 444.00 L 580.00 444.00 L 580.00 0.0000 z" />
    </clipPath>
    <g id="g11" clip-path="url(#clip1)">
      <g id="g13" stroke="#000000" stroke-opacity="1.0000" fill="none" stroke-linecap="butt" stroke-width="2.0000">
        <path id="path15" d="M 93.150 3.0000 L 93.150 444.00" />
      </g>
    </g>
    <clipPath id="clip2">
      <path id="path18" d="M 0.0000 0.0000 L 0.0000 444.00 L 580.00 444.00 L 580.00 0.0000 z" />
    </clipPath>
    <g id="g20" clip-path="url(#clip2)">
      <g id="g22" fill="#000000" stroke="none" fill-rule="evenodd" fill-opacity="1.0000">
        <path id="path24" d="M 93.150 2.0000 L 88.150 22.000 L 98.150 22.000" />
      </g>
    </g>
    <clipPath id="clip3">
      <path id="path27" d="M 0.0000 0.0000 L 0.0000 444.00 L 580.00 444.00 L 580.00 0.0000 z" />
    </clipPath>
    <g id="g29" clip-path="url(#clip3)">
      <g id="g31" stroke="#000000" stroke-opacity="1.0000" fill="none" stroke-linecap="butt" stroke-width="2.0000">
        <path id="path33" d="M 0.0000 378.15 L 577.00 378.15" />
      </g>
    </g>
    <clipPath id="clip4">
      <path id="path36" d="M 0.0000 0.0000 L 0.0000 444.00 L 580.00 444.00 L 580.00 0.0000 z" />
    </clipPath>
    <g id="g38" clip-path="url(#clip4)">
      <g id="g40" fill="#000000" stroke="none" fill-rule="evenodd" fill-opacity="1.0000">
        <path id="path42" d="M 578.00 378.15 L 558.00 373.15 L 558.00 383.15" />
      </g>
    </g>
    <g id="misc" />
    <g id="layer0">
      <clipPath id="clip5">
        <path id="path47" d="M 0.0000 0.0000 L 0.0000 444.00 L 580.00 444.00 L 580.00 0.0000 z" />
      </clipPath>
      <g id="g49" clip-path="url(#clip5)">
        <g id="g51" stroke="#ff00ff" stroke-opacity="1.0000" fill="none" stroke-linecap="round" stroke-width="2.0000" stroke-linejoin="round">
          <path id="path53" d="M -5.0000 335.86 L 335.86 -5.0000" />
          <title id="title55">Line f</title>
          <desc id="desc57">f: y = x + 2</desc>
        </g>
      </g>
      <clipPath id="clip6">
        <path id="path60" d="M 0.0000 0.0000 L 0.0000 444.00 L 580.00 444.00 L 580.00 0.0000 z" />
      </clipPath>
      <g id="g62" clip-path="url(#clip6)">
        <g id="g64" stroke="#000000" stroke-opacity="1.0000" fill="none" stroke-linecap="round" stroke-width="2.0000" stroke-linejoin="round">
          <path id="path66" d="M 585.00 448.68 L 131.32 -5.0000" />
          <title id="title68">Line g</title>
          <desc id="desc70">g: y = -x + 6</desc>
        </g>
      </g>
      <clipPath id="clip7">
        <path id="path73" d="M 0.0000 0.0000 L 0.0000 444.00 L 580.00 444.00 L 580.00 0.0000 z" />
      </clipPath>
      <g id="g75" clip-path="url(#clip7)">
        <g id="g77" stroke="#7f00ff" stroke-opacity="1.0000" fill="none" stroke-linecap="round" stroke-width="2.0000" stroke-linejoin="round">
          <path id="path79" d="M 92.524 449.00 L 546.52 -5.0000" />
          <title id="title81">Line h</title>
          <desc id="desc83">h: y = x - 1</desc>
        </g>
      </g>
      <clipPath id="clip8">
        <path id="path86" d="M 0.0000 0.0000 L 0.0000 444.00 L 580.00 444.00 L 580.00 0.0000 z" />
      </clipPath>
      <g id="g88" clip-path="url(#clip8)">
        <g id="g90" stroke="#0000ff" stroke-opacity="1.0000" fill="none" stroke-linecap="round" stroke-width="2.0000" stroke-linejoin="round">
          <path id="path92" d="M 374.66 449.00 L -5.0000 69.341" />
          <title id="title94">Line i</title>
          <desc id="desc96">i: y = -x + 3</desc>
        </g>
      </g>
      <clipPath id="clip9">
        <path id="path99" d="M 0.0000 0.0000 L 0.0000 444.00 L 580.00 444.00 L 580.00 0.0000 z" />
      </clipPath>
      <g id="g101" clip-path="url(#clip9)">
        <g id="g103" fill="#444444" stroke="none" fill-rule="nonzero" fill-opacity="1.0000">
          <path id="path105" d="M 135.26 202.60 C 135.26 206.47 132.13 209.60 128.26 209.60 C 124.39 209.60 121.26 206.47 121.26 202.60 C 121.26 198.73 124.39 195.60 128.26 195.60 C 132.13 195.60 135.26 198.73 135.26 202.60 z" />
          <title id="title107">Point A</title>
          <desc id="desc109">Point A: Intersection point of f, i</desc>
        </g>
      </g>
      <clipPath id="clip10">
        <path id="path112" d="M 0.0000 0.0000 L 0.0000 444.00 L 580.00 444.00 L 580.00 0.0000 z" />
      </clipPath>
      <g id="g114" clip-path="url(#clip10)">
        <g id="g116" stroke="#000000" stroke-opacity="1.0000" fill="none" stroke-linecap="round" stroke-linejoin="round">
          <path id="path118" d="M 135.26 202.60 C 135.26 206.47 132.13 209.60 128.26 209.60 C 124.39 209.60 121.26 206.47 121.26 202.60 C 121.26 198.73 124.39 195.60 128.26 195.60 C 132.13 195.60 135.26 198.73 135.26 202.60 z" />
          <title id="title120">Point A</title>
          <desc id="desc122">Point A: Intersection point of f, i</desc>
        </g>
      </g>
      <clipPath id="clip11">
        <path id="path125" d="M 0.0000 0.0000 L 0.0000 444.00 L 580.00 444.00 L 580.00 0.0000 z" />
      </clipPath>
      <g id="g127" clip-path="url(#clip11)">
        <g id="g129" fill="#444444" stroke="none" fill-rule="nonzero" fill-opacity="1.0000">
          <path id="path131" d="M 129.35 185.58 L 127.38 180.59 L 125.41 185.58 z M 131.09 190.00 L 129.83 186.80 L 124.93 186.80 L 123.66 190.00 L 122.13 190.00 L 126.72 178.44 L 128.34 178.44 L 132.86 190.00 z" />
          <title id="title133">Point A</title>
          <desc id="desc135">Point A: Intersection point of f, i</desc>
        </g>
      </g>
      <clipPath id="clip12">
        <path id="path138" d="M 0.0000 0.0000 L 0.0000 444.00 L 580.00 444.00 L 580.00 0.0000 z" />
      </clipPath>
      <g id="g140" clip-path="url(#clip12)">
        <g id="g142" fill="#444444" stroke="none" fill-rule="nonzero" fill-opacity="1.0000">
          <path id="path144" d="M 240.59 97.269 C 240.59 101.14 237.46 104.27 233.59 104.27 C 229.73 104.27 226.59 101.14 226.59 97.269 C 226.59 93.403 229.73 90.269 233.59 90.269 C 237.46 90.269 240.59 93.403 240.59 97.269 z" />
          <title id="title146">Point B</title>
          <desc id="desc148">Point B: Intersection point of f, g</desc>
        </g>
      </g>
      <clipPath id="clip13">
        <path id="path151" d="M 0.0000 0.0000 L 0.0000 444.00 L 580.00 444.00 L 580.00 0.0000 z" />
      </clipPath>
      <g id="g153" clip-path="url(#clip13)">
        <g id="g155" stroke="#000000" stroke-opacity="1.0000" fill="none" stroke-linecap="round" stroke-linejoin="round">
          <path id="path157" d="M 240.59 97.269 C 240.59 101.14 237.46 104.27 233.59 104.27 C 229.73 104.27 226.59 101.14 226.59 97.269 C 226.59 93.403 229.73 90.269 233.59 90.269 C 237.46 90.269 240.59 93.403 240.59 97.269 z" />
          <title id="title159">Point B</title>
          <desc id="desc161">Point B: Intersection point of f, g</desc>
        </g>
      </g>
      <clipPath id="clip14">
        <path id="path164" d="M 0.0000 0.0000 L 0.0000 444.00 L 580.00 444.00 L 580.00 0.0000 z" />
      </clipPath>
      <g id="g166" clip-path="url(#clip14)">
        <g id="g168" fill="#444444" stroke="none" fill-rule="nonzero" fill-opacity="1.0000">
          <path id="path170" d="M 229.49 122.00 L 229.49 110.44 L 232.49 110.44 Q 234.23 110.44 235.15 111.09 Q 236.08 111.75 236.08 112.98 Q 236.08 115.09 233.70 115.98 Q 236.54 116.84 236.54 119.11 Q 236.54 120.52 235.60 121.26 Q 234.66 122.00 232.90 122.00 z M 231.12 120.77 L 231.45 120.77 Q 233.26 120.77 233.79 120.55 Q 234.80 120.12 234.80 118.95 Q 234.80 117.92 233.88 117.24 Q 232.96 116.55 231.58 116.55 L 231.12 116.55 z M 231.12 115.52 L 231.64 115.52 Q 232.95 115.52 233.68 114.95 Q 234.40 114.39 234.40 113.37 Q 234.40 111.66 231.76 111.66 L 231.12 111.66 z" />
          <title id="title172">Point B</title>
          <desc id="desc174">Point B: Intersection point of f, g</desc>
        </g>
      </g>
      <g id="g176" transform="matrix(25.000, 0.0000, 0.0000, 25.000, 65.000, 22.111)">
        <clipPath id="clip15">
          <path id="path179" d="M -2.6000 -.88445 L -2.6000 16.876 L 20.600 16.876 L 20.600 -.88445 z" />
        </clipPath>
        <g id="g181" clip-path="url(#clip15)">
          <g id="g183" fill="#000000" stroke="none" fill-rule="nonzero" fill-opacity="1.0000">
            <path id="path185" d="M .57812 -.37500 L .48438 -0.0000 Q .46875 .093750 .38281 .14844 Q .29688 .20312 .20312 .20312 Q .14062 .20312 .10938 .17969 Q .078125 .15625 .078125 .10938 Q .078125 .078125 .093750 .054688 Q .10938 .031250 .14062 .031250 Q .15625 .031250 .17188 .046875 Q .18750 .062500 .18750 .078125 Q .18750 .12500 .14062 .15625 Q .17188 .17188 .20312 .17188 Q .26562 .17188 .31250 .11719 Q .35938 .062500 .37500 -.015625 Q .32812 .015625 .28125 .015625 Q .25000 .015625 .22656 .0078125 Q .20312 -0.0000 .17969 -.015625 Q .15625 -.031250 .14062 -.054688 Q .12500 -.078125 .12500 -.12500 Q .12500 -.15625 .14062 -.20312 Q .15625 -.25000 .18750 -.32812 Q .20312 -.37500 .20312 -.39062 Q .20312 -.40625 .19531 -.41406 Q .18750 -.42188 .18750 -.42188 Q .18750 -.42188 .18750 -.42188 Q .17188 -.42188 .16406 -.41406 Q .15625 -.40625 .14062 -.39844 Q .12500 -.39062 .10938 -.35938 Q .093750 -.32812 .078125 -.29688 Q .078125 -.28125 .062500 -.28125 Q .031250 -.28125 .031250 -.29688 Q .031250 -.31250 .039062 -.33594 Q .046875 -.35938 .070312 -.38281 Q .093750 -.40625 .12500 -.42969 Q .15625 -.45312 .18750 -.45312 Q .23438 -.45312 .26562 -.42969 Q .29688 -.40625 .29688 -.35938 Q .29688 -.34375 .28125 -.31250 Q .23438 -.15625 .23438 -.093750 Q .23438 -.031250 .28125 -.031250 Q .31250 -.031250 .35938 -.046875 Q .35938 -.046875 .36719 -.054688 Q .37500 -.062500 .38281 -.078125 Q .39062 -.093750 .39062 -.093750 Q .40625 -.12500 .43750 -.26562 L .46875 -.37500 Q .46875 -.39062 .46875 -.39844 Q .46875 -.40625 .47656 -.42188 Q .48438 -.43750 .50000 -.43750 Q .51562 -.43750 .53125 -.43750 Q .56250 -.43750 .57031 -.42969 Q .57812 -.42188 .57812 -.40625 Q .57812 -.39062 .57812 -.37500 z" />
            <title id="title187">$y$</title>
            <desc id="desc189">text1 = &quot;$y$&quot;</desc>
          </g>
        </g>
      </g>
      <g id="g191" transform="matrix(25.000, 0.0000, 0.0000, 25.000, 553.00, 406.11)">
        <clipPath id="clip16">
          <path id="path194" d="M -22.120 -16.244 L -22.120 1.5156 L 1.0800 1.5156 L 1.0800 -16.244 z" />
        </clipPath>
        <g id="g196" clip-path="url(#clip16)">
          <g id="g198" fill="#000000" stroke="none" fill-rule="nonzero" fill-opacity="1.0000">
            <path id="path200" d="M .53125 -.40625 Q .51562 -.42188 .48438 -.42188 Q .46875 -.42188 .43750 -.39844 Q .40625 -.37500 .40625 -.32812 Q .40625 -.31250 .39062 -.25781 Q .37500 -.20312 .37500 -.18750 Q .34375 -.093750 .34375 -.078125 Q .34375 -.031250 .40625 -.031250 Q .43750 -.031250 .48438 -.062500 Q .53125 -.093750 .54688 -.15625 Q .54688 -.15625 .56250 -.15625 Q .59375 -.15625 .59375 -.14844 Q .59375 -.14062 .57812 -.10938 Q .56250 -.078125 .53906 -.054688 Q .51562 -.031250 .47656 -.0078125 Q .43750 .015625 .39062 .015625 Q .29688 .015625 .26562 -.046875 Q .21875 .015625 .15625 .015625 Q .10938 .015625 .070312 -.015625 Q .031250 -.046875 .031250 -.078125 Q .031250 -.10938 .054688 -.13281 Q .078125 -.15625 .10938 -.15625 Q .14062 -.15625 .14844 -.14062 Q .15625 -.12500 .15625 -.10938 Q .15625 -.093750 .14062 -.070312 Q .12500 -.046875 .10938 -.046875 Q .12500 -.031250 .15625 -.031250 Q .18750 -.031250 .21094 -.054688 Q .23438 -.078125 .23438 -.12500 L .26562 -.25000 Q .29688 -.34375 .29688 -.35938 Q .29688 -.42188 .23438 -.42188 Q .20312 -.42188 .16406 -.39062 Q .12500 -.35938 .093750 -.29688 Q .093750 -.28125 .078125 -.28125 Q .046875 -.28125 .046875 -.29688 Q .046875 -.31250 .062500 -.33594 Q .078125 -.35938 .10156 -.38281 Q .12500 -.40625 .16406 -.42969 Q .20312 -.45312 .25000 -.45312 Q .34375 -.45312 .39062 -.39062 Q .42188 -.45312 .48438 -.45312 Q .53125 -.45312 .57031 -.42969 Q .60938 -.40625 .60938 -.35938 Q .60938 -.32812 .58594 -.30469 Q .56250 -.28125 .53125 -.28125 Q .51562 -.28125 .50000 -.29688 Q .48438 -.31250 .48438 -.32812 Q .48438 -.35938 .50000 -.37500 Q .51562 -.39062 .53125 -.40625 z" />
            <title id="title202">$x$</title>
            <desc id="desc204">text2 = &quot;$x$&quot;</desc>
          </g>
        </g>
      </g>
      <clipPath id="clip17">
        <path id="path207" d="M 0.0000 0.0000 L 0.0000 444.00 L 580.00 444.00 L 580.00 0.0000 z" />
      </clipPath>
      <g id="g209" clip-path="url(#clip17)">
        <g id="g211" fill="#000000" stroke="none" fill-rule="nonzero" fill-opacity="1.0000">
          <path id="path213" d="M 30.359 273.72 L 30.359 275.18 Q 28.039 273.60 26.680 270.89 Q 25.321 268.18 25.321 265.10 Q 25.321 262.04 26.680 259.33 Q 28.039 256.62 30.359 255.04 L 30.359 256.50 Q 28.780 258.22 28.109 260.19 Q 27.438 262.17 27.438 265.10 Q 27.438 268.05 28.109 270.02 Q 28.780 272.00 30.359 273.72 z M 34.463 272.00 L 34.463 270.41 L 37.643 270.41 L 37.643 257.86 L 34.463 258.66 L 34.463 257.03 L 39.770 255.70 L 39.770 270.41 L 42.949 270.41 L 42.949 272.00 z M 45.860 273.72 L 45.860 275.18 Q 48.181 273.60 49.540 270.89 Q 50.898 268.18 50.898 265.10 Q 50.898 262.04 49.540 259.33 Q 48.181 256.62 45.860 255.04 L 45.860 256.50 Q 47.439 258.22 48.111 260.19 Q 48.782 262.17 48.782 265.10 Q 48.782 268.05 48.111 270.02 Q 47.439 272.00 45.860 273.72 z" />
          <title id="title215">(1)</title>
          <desc id="desc217">text3 = &quot;(1)&quot;</desc>
        </g>
      </g>
      <clipPath id="clip18">
        <path id="path220" d="M 0.0000 0.0000 L 0.0000 444.00 L 580.00 444.00 L 580.00 0.0000 z" />
      </clipPath>
      <g id="g222" clip-path="url(#clip18)">
        <g id="g224" fill="#000000" stroke="none" fill-rule="nonzero" fill-opacity="1.0000">
          <path id="path226" d="M 186.36 35.719 L 186.36 37.180 Q 184.04 35.601 182.68 32.888 Q 181.32 30.176 181.32 27.104 Q 181.32 24.042 182.68 21.330 Q 184.04 18.617 186.36 17.038 L 186.36 18.499 Q 184.78 20.218 184.11 22.194 Q 183.44 24.171 183.44 27.104 Q 183.44 30.047 184.11 32.023 Q 184.78 34.000 186.36 35.719 z M 188.98 34.000 L 188.98 32.142 Q 189.90 29.982 192.72 27.437 L 193.93 26.352 Q 196.27 24.235 196.27 22.151 Q 196.27 20.819 195.47 20.057 Q 194.67 19.294 193.28 19.294 Q 191.62 19.294 189.38 20.572 L 189.38 18.703 Q 191.49 17.704 193.58 17.704 Q 195.81 17.704 197.17 18.907 Q 198.52 20.110 198.52 22.098 Q 198.52 23.526 197.84 24.633 Q 197.16 25.739 195.30 27.318 L 194.48 28.017 Q 191.93 30.176 191.54 32.142 L 198.44 32.142 L 198.44 34.000 z M 201.86 35.719 L 201.86 37.180 Q 204.18 35.601 205.54 32.888 Q 206.90 30.176 206.90 27.104 Q 206.90 24.042 205.54 21.330 Q 204.18 18.617 201.86 17.038 L 201.86 18.499 Q 203.44 20.218 204.11 22.194 Q 204.78 24.171 204.78 27.104 Q 204.78 30.047 204.11 32.023 Q 203.44 34.000 201.86 35.719 z" />
          <title id="title228">(2)</title>
          <desc id="desc230">text4 = &quot;(2)&quot;</desc>
        </g>
      </g>
      <clipPath id="clip19">
        <path id="path233" d="M 0.0000 0.0000 L 0.0000 444.00 L 580.00 444.00 L 580.00 0.0000 z" />
      </clipPath>
      <g id="g235" clip-path="url(#clip19)">
        <g id="g237" fill="#000000" stroke="none" fill-rule="nonzero" fill-opacity="1.0000">
          <path id="path239" d="M 406.36 107.72 L 406.36 109.18 Q 404.04 107.60 402.68 104.89 Q 401.32 102.18 401.32 99.104 Q 401.32 96.042 402.68 93.330 Q 404.04 90.617 406.36 89.038 L 406.36 90.499 Q 404.78 92.218 404.11 94.194 Q 403.44 96.171 403.44 99.104 Q 403.44 102.05 404.11 104.02 Q 404.78 106.00 406.36 107.72 z M 409.39 105.88 L 409.39 103.91 Q 411.67 104.81 412.98 104.81 Q 414.49 104.81 415.44 103.92 Q 416.39 103.04 416.39 101.63 Q 416.39 98.276 411.70 98.276 L 410.86 98.276 L 410.86 96.848 L 411.60 96.837 Q 416.01 96.837 416.01 93.732 Q 416.01 91.294 413.11 91.294 Q 411.52 91.294 409.60 92.186 L 409.60 90.338 Q 411.48 89.704 413.26 89.704 Q 418.13 89.704 418.13 93.389 Q 418.13 96.192 414.81 97.385 Q 418.66 98.276 418.66 101.60 Q 418.66 103.84 417.18 105.12 Q 415.69 106.40 413.11 106.40 Q 411.63 106.40 409.39 105.88 z M 421.86 107.72 L 421.86 109.18 Q 424.18 107.60 425.54 104.89 Q 426.90 102.18 426.90 99.104 Q 426.90 96.042 425.54 93.330 Q 424.18 90.617 421.86 89.038 L 421.86 90.499 Q 423.44 92.218 424.11 94.194 Q 424.78 96.171 424.78 99.104 Q 424.78 102.05 424.11 104.02 Q 423.44 106.00 421.86 107.72 z" />
          <title id="title241">(3)</title>
          <desc id="desc243">text5 = &quot;(3)&quot;</desc>
        </g>
      </g>
      <clipPath id="clip20">
        <path id="path246" d="M 0.0000 0.0000 L 0.0000 444.00 L 580.00 444.00 L 580.00 0.0000 z" />
      </clipPath>
      <g id="g248" clip-path="url(#clip20)">
        <g id="g250" fill="#000000" stroke="none" fill-rule="nonzero" fill-opacity="1.0000">
          <path id="path252" d="M 292.36 357.72 L 292.36 359.18 Q 290.04 357.60 288.68 354.89 Q 287.32 352.18 287.32 349.10 Q 287.32 346.04 288.68 343.33 Q 290.04 340.62 292.36 339.04 L 292.36 340.50 Q 290.78 342.22 290.11 344.19 Q 289.44 346.17 289.44 349.10 Q 289.44 352.05 290.11 354.02 Q 290.78 356.00 292.36 357.72 z M 301.44 356.00 L 301.44 351.50 L 294.28 351.50 L 294.28 349.90 L 301.44 340.10 L 303.42 340.10 L 303.42 349.77 L 305.55 349.77 L 305.55 351.50 L 303.42 351.50 L 303.42 356.00 z M 296.36 349.77 L 301.58 349.77 L 301.58 342.70 z M 307.86 357.72 L 307.86 359.18 Q 310.18 357.60 311.54 354.89 Q 312.90 352.18 312.90 349.10 Q 312.90 346.04 311.54 343.33 Q 310.18 340.62 307.86 339.04 L 307.86 340.50 Q 309.44 342.22 310.11 344.19 Q 310.78 346.17 310.78 349.10 Q 310.78 352.05 310.11 354.02 Q 309.44 356.00 307.86 357.72 z" />
          <title id="title254">(4)</title>
          <desc id="desc256">text6 = &quot;(4)&quot;</desc>
        </g>
      </g>
    </g>
  </g>
</svg>