<?xml version='1.0' ?><svg xmlns:dc="http://purl.org/dc/elements/1.1/" xmlns:cc="http://creativecommons.org/ns#" xmlns:rdf="http://www.w3.org/1999/02/22-rdf-syntax-ns#" xmlns:svg="http://www.w3.org/2000/svg" xmlns="http://www.w3.org/2000/svg" id="svg9613" y="0px" x="0px" version="1.1" width="339.07792" height="273.96088" viewBox="108.73729146133714 724.9935797432998 339.07792455692027 273.96088368180233" preserveAspectRatio="none">
  <metadata id="metadata10164">
    <rdf:RDF>
      <cc:Work rdf:about="">
        <dc:format>image/svg+xml</dc:format>
        <dc:type rdf:resource="http://purl.org/dc/dcmitype/StillImage" />
      </cc:Work>
    </rdf:RDF>
  </metadata>
  <defs id="defs10162" />
  <title id="title9615" />
  <g transform="translate(0,779.36222)" style="stroke-width:1;stroke-linecap:square;stroke-linejoin:miter;stroke-miterlimit:10;stroke-dasharray:none;stroke-dashoffset:0" id="g9617" stroke-miterlimit="10.000">
    <g id="g9619" transform="matrix(0.58664,0,0,0.58664,108.73729,-54.368645)">
      <clipPath id="clip1">
        <path id="path9622" d="m 0,0 0,467 580,0 0,-467 z" />
      </clipPath>
      <g id="g9624" clip-path="url(#clip1)">
        <g style="fill:none;stroke:#000000;stroke-width:2;stroke-linecap:butt;stroke-opacity:1" id="g9626">
          <path id="path9628" d="m 286.82,3 0,464" />
        </g>
        
      </g>
      
    </g>
    
    <g id="g9630" transform="matrix(0.58664,0,0,0.58664,108.73729,-54.368645)">
      <clipPath id="clip2">
        <path id="path9633" d="m 0,0 0,467 580,0 0,-467 z" />
      </clipPath>
      <g id="g9635" clip-path="url(#clip2)">
        <g style="fill:#000000;fill-opacity:1;fill-rule:evenodd;stroke:none" id="g9637">
          <path id="path9639" d="m 286.82,2 -5,20 10,0" />
        </g>
        
      </g>
      
    </g>
    
    <g id="g9641" transform="matrix(0.58664,0,0,0.58664,108.73729,-54.368645)">
      <clipPath id="clip3">
        <path id="path9644" d="m 0,0 0,467 580,0 0,-467 z" />
      </clipPath>
      <g id="g9646" clip-path="url(#clip3)">
        <g style="fill:none;stroke:#000000;stroke-width:2;stroke-linecap:butt;stroke-opacity:1" id="g9648">
          <path id="path9650" d="m 0,255.12 577,0" />
        </g>
        
      </g>
      
    </g>
    
    <g id="g9652" transform="matrix(0.58664,0,0,0.58664,108.73729,-54.368645)">
      <clipPath id="clip4">
        <path id="path9655" d="m 0,0 0,467 580,0 0,-467 z" />
      </clipPath>
      <g id="g9657" clip-path="url(#clip4)">
        <g style="fill:#000000;fill-opacity:1;fill-rule:evenodd;stroke:none" id="g9659">
          <path id="path9661" d="m 578,255.12 -20,-5 0,10" />
        </g>
        
      </g>
      
    </g>
    
    <g id="g9663" transform="matrix(0.58664,0,0,0.58664,108.73729,-54.368645)">
      <clipPath id="clip5">
        <path id="path9666" d="m 0,0 0,467 580,0 0,-467 z" />
      </clipPath>
      <g id="g9668" clip-path="url(#clip5)">
        <g style="fill:#000000;fill-opacity:1;fill-rule:nonzero;stroke:none" id="g9670">
          <path id="path9672" d="m 87.718,269.29 0,-0.93 5.564,0 0,0.93 z m 11.553,3.71 0,-2.86 -4.553,0 0,-1.02 4.553,-6.24 1.269,0 0,6.16 1.35,0 0,1.1 -1.35,0 0,2.86 z m -3.234,-3.96 3.322,0 0,-4.5 z" />
        </g>
        
      </g>
      
    </g>
    
    <g id="g9674" transform="matrix(0.58664,0,0,0.58664,108.73729,-54.368645)">
      <clipPath id="clip6">
        <path id="path9677" d="m 0,0 0,467 580,0 0,-467 z" />
      </clipPath>
      <g id="g9679" clip-path="url(#clip6)">
        <g style="fill:none;stroke:#000000;stroke-width:2;stroke-linecap:butt;stroke-opacity:1" id="g9681">
          <path id="path9683" d="m 93.543,255.12 0,4" />
        </g>
        
      </g>
      
    </g>
    
    <g id="g9685" transform="matrix(0.58664,0,0,0.58664,108.73729,-54.368645)">
      <clipPath id="clip7">
        <path id="path9688" d="m 0,0 0,467 580,0 0,-467 z" />
      </clipPath>
      <g id="g9690" clip-path="url(#clip7)">
        <g style="fill:#000000;fill-opacity:1;fill-rule:nonzero;stroke:none" id="g9692">
          <path id="path9694" d="m 184.72,269.29 0,-0.93 5.56,0 0,0.93 z m 7.44,3.71 0,-1.18 q 0.59,-1.38 2.38,-3 l 0.77,-0.69 q 1.49,-1.34 1.49,-2.67 0,-0.85 -0.51,-1.33 -0.5,-0.49 -1.39,-0.49 -1.06,0 -2.48,0.82 l 0,-1.19 q 1.34,-0.64 2.67,-0.64 1.42,0 2.28,0.77 0.86,0.76 0.86,2.03 0,0.9 -0.43,1.61 -0.44,0.7 -1.62,1.71 l -0.52,0.44 q -1.62,1.38 -1.87,2.63 l 4.39,0 0,1.18 z" />
        </g>
        
      </g>
      
    </g>
    
    <g id="g9696" transform="matrix(0.58664,0,0,0.58664,108.73729,-54.368645)">
      <clipPath id="clip8">
        <path id="path9699" d="m 0,0 0,467 580,0 0,-467 z" />
      </clipPath>
      <g id="g9701" clip-path="url(#clip8)">
        <g style="fill:none;stroke:#000000;stroke-width:2;stroke-linecap:butt;stroke-opacity:1" id="g9703">
          <path id="path9705" d="m 190.18,255.12 0,4" />
        </g>
        
      </g>
      
    </g>
    
    <g id="g9707" transform="matrix(0.58664,0,0,0.58664,108.73729,-54.368645)">
      <clipPath id="clip9">
        <path id="path9710" d="m 0,0 0,467 580,0 0,-467 z" />
      </clipPath>
      <g id="g9712" clip-path="url(#clip9)">
        <g style="fill:#000000;fill-opacity:1;fill-rule:nonzero;stroke:none" id="g9714">
          <path id="path9716" d="m 296.39,273.25 q -1.57,0 -2.53,-1.47 -0.97,-1.47 -0.97,-3.85 0,-2.39 0.97,-3.84 0.98,-1.46 2.57,-1.46 1.59,0 2.57,1.46 0.97,1.45 0.97,3.82 0,2.44 -0.97,3.89 -0.98,1.45 -2.61,1.45 z m 0.01,-1.01 q 2.14,0 2.14,-4.35 0,-4.25 -2.11,-4.25 -2.11,0 -2.11,4.29 0,4.31 2.08,4.31 z" />
        </g>
        
      </g>
      
    </g>
    
    <g id="g9718" transform="matrix(0.58664,0,0,0.58664,108.73729,-54.368645)">
      <clipPath id="clip10">
        <path id="path9721" d="m 0,0 0,467 580,0 0,-467 z" />
      </clipPath>
      <g id="g9723" clip-path="url(#clip10)">
        <g style="fill:#000000;fill-opacity:1;fill-rule:nonzero;stroke:none" id="g9725">
          <path id="path9727" d="m 381.16,273 0,-1.18 q 0.59,-1.38 2.38,-3 l 0.77,-0.69 q 1.49,-1.34 1.49,-2.67 0,-0.85 -0.51,-1.33 -0.5,-0.49 -1.39,-0.49 -1.06,0 -2.48,0.82 l 0,-1.19 q 1.34,-0.64 2.67,-0.64 1.42,0 2.28,0.77 0.86,0.76 0.86,2.03 0,0.9 -0.43,1.61 -0.44,0.7 -1.62,1.71 l -0.52,0.44 q -1.62,1.38 -1.87,2.63 l 4.39,0 0,1.18 z" />
        </g>
        
      </g>
      
    </g>
    
    <g id="g9729" transform="matrix(0.58664,0,0,0.58664,108.73729,-54.368645)">
      <clipPath id="clip11">
        <path id="path9732" d="m 0,0 0,467 580,0 0,-467 z" />
      </clipPath>
      <g id="g9734" clip-path="url(#clip11)">
        <g style="fill:none;stroke:#000000;stroke-width:2;stroke-linecap:butt;stroke-opacity:1" id="g9736">
          <path id="path9738" d="m 383.46,255.12 0,4" />
        </g>
        
      </g>
      
    </g>
    
    <g id="g9740" transform="matrix(0.58664,0,0,0.58664,108.73729,-54.368645)">
      <clipPath id="clip12">
        <path id="path9743" d="m 0,0 0,467 580,0 0,-467 z" />
      </clipPath>
      <g id="g9745" clip-path="url(#clip12)">
        <g style="fill:#000000;fill-opacity:1;fill-rule:nonzero;stroke:none" id="g9747">
          <path id="path9749" d="m 482.27,273 0,-2.86 -4.55,0 0,-1.02 4.55,-6.24 1.27,0 0,6.16 1.35,0 0,1.1 -1.35,0 0,2.86 z m -3.23,-3.96 3.32,0 0,-4.5 z" />
        </g>
        
      </g>
      
    </g>
    
    <g id="g9751" transform="matrix(0.58664,0,0,0.58664,108.73729,-54.368645)">
      <clipPath id="clip13">
        <path id="path9754" d="m 0,0 0,467 580,0 0,-467 z" />
      </clipPath>
      <g id="g9756" clip-path="url(#clip13)">
        <g style="fill:none;stroke:#000000;stroke-width:2;stroke-linecap:butt;stroke-opacity:1" id="g9758">
          <path id="path9760" d="m 480.1,255.12 0,4" />
        </g>
        
      </g>
      
    </g>
    
    <g id="g9762" transform="matrix(0.58664,0,0,0.58664,108.73729,-54.368645)">
      <clipPath id="clip14">
        <path id="path9765" d="m 0,0 0,467 580,0 0,-467 z" />
      </clipPath>
      <g id="g9767" clip-path="url(#clip14)">
        <g style="fill:#000000;fill-opacity:1;fill-rule:nonzero;stroke:none" id="g9769">
          <path id="path9771" d="m 265.72,450.29 0,-0.93 5.56,0 0,0.93 z m 11.55,3.71 0,-2.86 -4.55,0 0,-1.02 4.55,-6.24 1.27,0 0,6.16 1.35,0 0,1.1 -1.35,0 0,2.86 z m -3.23,-3.96 3.32,0 0,-4.5 z" />
        </g>
        
      </g>
      
    </g>
    
    <g id="g9773" transform="matrix(0.58664,0,0,0.58664,108.73729,-54.368645)">
      <clipPath id="clip15">
        <path id="path9776" d="m 0,0 0,467 580,0 0,-467 z" />
      </clipPath>
      <g id="g9778" clip-path="url(#clip15)">
        <g style="fill:none;stroke:#000000;stroke-width:2;stroke-linecap:butt;stroke-opacity:1" id="g9780">
          <path id="path9782" d="m 282.82,448.4 4,0" />
        </g>
        
      </g>
      
    </g>
    
    <g id="g9784" transform="matrix(0.58664,0,0,0.58664,108.73729,-54.368645)">
      <clipPath id="clip16">
        <path id="path9787" d="m 0,0 0,467 580,0 0,-467 z" />
      </clipPath>
      <g id="g9789" clip-path="url(#clip16)">
        <g style="fill:#000000;fill-opacity:1;fill-rule:nonzero;stroke:none" id="g9791">
          <path id="path9793" d="m 265.72,353.29 0,-0.93 5.56,0 0,0.93 z m 7.44,3.71 0,-1.18 q 0.59,-1.38 2.38,-3 l 0.77,-0.69 q 1.49,-1.34 1.49,-2.67 0,-0.85 -0.51,-1.33 -0.5,-0.49 -1.39,-0.49 -1.06,0 -2.48,0.82 l 0,-1.19 q 1.34,-0.64 2.67,-0.64 1.42,0 2.28,0.77 0.86,0.76 0.86,2.03 0,0.9 -0.43,1.61 -0.44,0.7 -1.62,1.71 l -0.52,0.44 q -1.62,1.38 -1.87,2.63 l 4.39,0 0,1.18 z" />
        </g>
        
      </g>
      
    </g>
    
    <g id="g9795" transform="matrix(0.58664,0,0,0.58664,108.73729,-54.368645)">
      <clipPath id="clip17">
        <path id="path9798" d="m 0,0 0,467 580,0 0,-467 z" />
      </clipPath>
      <g id="g9800" clip-path="url(#clip17)">
        <g style="fill:none;stroke:#000000;stroke-width:2;stroke-linecap:butt;stroke-opacity:1" id="g9802">
          <path id="path9804" d="m 282.82,351.76 4,0" />
        </g>
        
      </g>
      
    </g>
    
    
    <g id="g9817" transform="matrix(0.58664,0,0,0.58664,108.73729,-54.368645)">
      <clipPath id="clip19">
        <path id="path9820" d="m 0,0 0,467 580,0 0,-467 z" />
      </clipPath>
      <g id="g9822" clip-path="url(#clip19)">
        <g style="fill:#000000;fill-opacity:1;fill-rule:nonzero;stroke:none" id="g9824">
          <path id="path9826" d="m 273.16,164 0,-1.18 q 0.59,-1.38 2.38,-3 l 0.77,-0.69 q 1.49,-1.34 1.49,-2.67 0,-0.85 -0.51,-1.33 -0.5,-0.49 -1.39,-0.49 -1.06,0 -2.48,0.82 l 0,-1.19 q 1.34,-0.64 2.67,-0.64 1.42,0 2.28,0.77 0.86,0.76 0.86,2.03 0,0.9 -0.43,1.61 -0.44,0.7 -1.62,1.71 l -0.52,0.44 q -1.62,1.38 -1.87,2.63 l 4.39,0 0,1.18 z" />
        </g>
        
      </g>
      
    </g>
    
    <g id="g9828" transform="matrix(0.58664,0,0,0.58664,108.73729,-54.368645)">
      <clipPath id="clip20">
        <path id="path9831" d="m 0,0 0,467 580,0 0,-467 z" />
      </clipPath>
      <g id="g9833" clip-path="url(#clip20)">
        <g style="fill:none;stroke:#000000;stroke-width:2;stroke-linecap:butt;stroke-opacity:1" id="g9835">
          <path id="path9837" d="m 282.82,158.48 4,0" />
        </g>
        
      </g>
      
    </g>
    
    <g id="g9839" transform="matrix(0.58664,0,0,0.58664,108.73729,-58.368645)">
      <clipPath id="clip21">
        <path id="path9842" d="m 0,0 0,467 580,0 0,-467 z" />
      </clipPath>
      <g id="g9844" clip-path="url(#clip21)">
        <g style="fill:#000000;fill-opacity:1;fill-rule:nonzero;stroke:none" id="g9846">
          <path id="path9848" d="m 277.27,67 0,-2.864 -4.55,0 0,-1.019 4.55,-6.234 1.27,0 0,6.152 1.35,0 0,1.101 -1.35,0 0,2.864 z m -3.23,-3.965 3.32,0 0,-4.498 z" />
        </g>
        
      </g>
      
    </g>
    
    <g id="g9850" transform="matrix(0.58664,0,0,0.58664,108.73729,-54.368645)">
      <clipPath id="clip22">
        <path id="path9853" d="m 0,0 0,467 580,0 0,-467 z" />
      </clipPath>
      <g id="g9855" clip-path="url(#clip22)">
        <g style="fill:none;stroke:#000000;stroke-width:2;stroke-linecap:butt;stroke-opacity:1" id="g9857">
          <path id="path9859" d="m 282.82,61.845 4,0" />
        </g>
        
      </g>
      
    </g>
    
    <g transform="translate(108.73729,-54.368645)" id="misc" />
    
    <g transform="translate(108.73729,-54.368645)" id="layer0">
      <g id="g9863" transform="scale(0.58664,0.58664)">
        <clipPath id="clip23">
          <path id="path9866" d="m 0,0 0,467 580,0 0,-467 z" />
        </clipPath>
        <g id="g9868" clip-path="url(#clip23)">
          <g style="fill:none;stroke:#cc0000;stroke-width:2.5;stroke-linecap:round;stroke-linejoin:round;stroke-opacity:1" id="g9870">
            <path id="path9872" d="m 219.2,477 0.58,0.5 0.49,-6.84 -0.5,-0.5 0.56,-7.94 0.57,-7.85 0.56,-7.75 0.57,-7.66 0.57,-7.56 0.56,-7.47 0.57,-7.39 0.57,-7.28 0.56,-7.2 0.57,-7.11 0.57,-7.01 0.56,-6.93 0.57,-6.83 0.57,-6.75 0.56,-6.66 0.57,-6.57 0.56,-6.48 0.57,-6.4 0.57,-6.31 0.56,-6.22 0.57,-6.14 0.57,-6.05 0.56,-5.97 0.57,-5.88 0.57,-5.8 0.56,-5.71 0.57,-5.63 0.56,-5.55 0.57,-5.47 0.57,-5.39 0.56,-5.3 0.57,-5.23 0.57,-5.14 0.56,-5.06 1.14,-9.89 1.13,-9.58 1.13,-9.27 1.13,-8.96 1.14,-8.66 1.13,-8.37 1.13,-8.06 1.14,-7.78 1.13,-7.49 1.13,-7.21 1.13,-6.93 1.14,-6.65 1.13,-6.37 1.13,-6.12 1.14,-5.84 1.13,-5.59 1.13,-5.32 2.27,-9.9 2.26,-8.92 2.27,-7.958 2.26,-7.036 2.27,-6.142 2.27,-5.278 4.53,-8.082 2.26,-2.863 2.27,-2.119 1.13,-0.789 1.13,-0.615 1.14,-0.443 1.13,-0.275 1.13,-0.112 1.13,0.048 1.14,0.205 1.13,0.357 2.27,1.158 1.13,0.792 1.13,0.931 4.53,5.023 4.53,6.927 4.53,8.591 2.27,4.845 2.27,5.172 2.26,5.473 2.27,5.73 2.26,5.97 2.27,6.18 2.26,6.36 2.27,6.5 2.27,6.62 2.26,6.71 2.27,6.76 2.26,6.8 2.27,6.79 2.26,6.76 2.27,6.69 2.27,6.61 2.26,6.48 2.27,6.33 2.26,6.15 2.27,5.94 2.26,5.7 2.27,5.42 4.53,9.92 4.53,8.47 4.53,6.8 4.53,4.87 1.14,0.88 1.13,0.75 2.26,1.07 1.14,0.32 1.13,0.15 1.13,0 1.14,-0.16 1.13,-0.32 1.13,-0.5 1.13,-0.66 1.14,-0.85 2.26,-2.22 2.27,-2.98 4.53,-8.33 2.27,-5.4 2.26,-6.28 2.27,-7.17 2.26,-8.11 2.27,-9.06 1.13,-4.9 1.13,-5.15 1.14,-5.4 1.13,-5.66 1.13,-5.93 1.14,-6.19 1.13,-6.46 1.13,-6.73 1.13,-7.02 1.14,-7.29 1.13,-7.57 1.13,-7.87 1.13,-8.15 1.14,-8.45 1.13,-8.76 1.13,-9.051 1.14,-9.361 1.13,-9.672 1.13,-9.986 0.57,-5.112 0.56,-5.193 0.57,-5.272 0.57,-5.354 0.56,-5.435 0.57,-5.517 0.57,-5.599 0.56,-5.682 0.57,-5.765 0.57,-5.8491 0.56,-5.9331 0.57,-6.0178 0.56,-6.103" />
          </g>
          
        </g>
        
      </g>
      
      <g id="g9874" transform="scale(0.58664,0.58664)">
        <clipPath id="clip24">
          <path id="path9877" d="m 0,0 0,467 580,0 0,-467 z" />
        </clipPath>
        <g id="g9879" clip-path="url(#clip24)">
          <g style="fill:none;stroke:#0033cc;stroke-width:2.5;stroke-linecap:round;stroke-linejoin:round;stroke-opacity:1" id="g9881">
            <path id="path9883" d="m 138.77,477.44 0.57,-5.5 0.56,-5.41 0.57,-5.34 0.57,-5.25 0.56,-5.18 0.57,-5.09 0.56,-5.02 1.14,-9.79 1.13,-9.48 1.13,-9.18 1.14,-8.87 1.13,-8.56 1.13,-8.28 1.13,-7.97 1.14,-7.69 1.13,-7.4 1.13,-7.12 1.14,-6.84 1.13,-6.57 1.13,-6.3 1.13,-6.02 1.14,-5.77 1.13,-5.5 1.13,-5.25 1.13,-5 2.27,-9.25 2.27,-8.29 2.26,-7.35 2.27,-6.45 2.26,-5.57 2.27,-4.73 4.53,-7.04 1.13,-1.28 1.14,-1.09 2.26,-1.65 1.13,-0.56 1.14,-0.39 1.13,-0.22 1.13,-0.06 1.14,0.09 1.13,0.25 1.13,0.41 1.13,0.55 2.27,1.53 2.27,2.08 4.53,5.67 4.53,7.5 4.53,9.08 2.26,5.07 2.27,5.37 2.27,5.64 2.26,5.89 2.27,6.12 2.26,6.29 2.27,6.46 2.26,6.58 2.27,6.68 2.26,6.75 2.27,6.79 2.27,6.79 2.26,6.78 2.27,6.72 2.26,6.64 2.27,6.53 2.26,6.38 2.27,6.22 2.27,6.01 2.26,5.79 2.27,5.52 2.26,5.23 4.53,9.47 4.54,7.95 4.53,6.19 2.26,2.36 2.27,1.83 2.26,1.27 1.14,0.42 1.13,0.26 1.13,0.11 1.13,-0.05 1.14,-0.21 1.13,-0.38 1.13,-0.54 1.14,-0.73 2.26,-1.97 2.27,-2.72 2.26,-3.48 4.53,-9.4 2.27,-5.97 2.26,-6.86 2.27,-7.78 2.27,-8.73 2.26,-9.7 1.13,-5.23 1.14,-5.49 1.13,-5.74 1.13,-6.01 1.14,-6.27 1.13,-6.55 1.13,-6.81 1.13,-7.1 1.14,-7.38 1.13,-7.67 1.13,-7.95 1.14,-8.25 1.13,-8.54 1.13,-8.85 1.13,-9.15 1.14,-9.45 1.13,-9.77 0.57,-5 0.56,-5.09 0.57,-5.16 0.57,-5.24 0.56,-5.32 0.57,-5.41 0.56,-5.48 0.57,-5.57 0.57,-5.65 0.56,-5.73 0.57,-5.82 0.57,-5.9 0.56,-5.99 0.57,-6.07 0.57,-6.15 0.56,-6.24 0.57,-6.33 0.57,-6.42 0.56,-6.5 0.57,-6.59 0.56,-6.68 0.57,-6.76 0.57,-6.86 0.56,-6.95 0.57,-7.03 0.57,-7.13 0.56,-7.216 0.57,-7.309 0.57,-7.4 0.56,-7.493 0.57,-7.587 0.56,-7.679 0.57,-7.773 0.57,-7.868 0.56,-7.962 0.57,-8.057 0.57,-8.154 0.56,-8.249 0.57,-8.346 0.57,-8.443 0.56,-8.541" />
          </g>
          
        </g>
        
      </g>
      
      <g id="g9885" transform="scale(0.58664,0.58664)">
        <clipPath id="clip25">
          <path id="path9888" d="m 0,0 0,467 580,0 0,-467 z" />
        </clipPath>
        <g id="g9890" clip-path="url(#clip25)">
          <g style="fill:none;stroke:#000000;stroke-width:2;stroke-linecap:butt;stroke-linejoin:round;stroke-opacity:1;stroke-dasharray:6, 4" id="g9892">
            <path id="path9894" d="m 286.82,61.845 -96.64,0" />
          </g>
          
        </g>
        
      </g>
      
      <g id="g9896" transform="scale(0.58664,0.58664)">
        <clipPath id="clip26">
          <path id="path9899" d="m 0,0 0,467 580,0 0,-467 z" />
        </clipPath>
        <g id="g9901" clip-path="url(#clip26)">
          <g style="fill:none;stroke:#000000;stroke-width:2;stroke-linecap:round;stroke-linejoin:round;stroke-opacity:1" id="g9903">
            <path id="path9905" d="m 234,61.845 4.5,-5.5" />
          </g>
          
        </g>
        
      </g>
      
      <g id="g9907" transform="scale(0.58664,0.58664)">
        <clipPath id="clip27">
          <path id="path9910" d="m 0,0 0,467 580,0 0,-467 z" />
        </clipPath>
        <g id="g9912" clip-path="url(#clip27)">
          <g style="fill:none;stroke:#000000;stroke-width:2;stroke-linecap:round;stroke-linejoin:round;stroke-opacity:1" id="g9914">
            <path id="path9916" d="m 234,61.845 4.5,5.5" />
          </g>
          
        </g>
        
      </g>
      
      <g id="g9918" transform="scale(0.58664,0.58664)">
        <clipPath id="clip28">
          <path id="path9921" d="m 0,0 0,467 580,0 0,-467 z" />
        </clipPath>
        <g id="g9923" clip-path="url(#clip28)">
          <g style="fill:none;stroke:#000000;stroke-width:2;stroke-linecap:butt;stroke-linejoin:round;stroke-opacity:1;stroke-dasharray:6, 4" id="g9925">
            <path id="path9927" d="m 190.18,61.845 0,193.275" />
          </g>
          
        </g>
        
      </g>
      
      <g id="g9929" transform="scale(0.58664,0.58664)">
        <clipPath id="clip29">
          <path id="path9932" d="m 0,0 0,467 580,0 0,-467 z" />
        </clipPath>
        <g id="g9934" clip-path="url(#clip29)">
          <g style="fill:none;stroke:#000000;stroke-width:2;stroke-linecap:round;stroke-linejoin:round;stroke-opacity:1" id="g9936">
            <path id="path9938" d="m 190.18,162.98 -5.5,-4.5" />
          </g>
          
        </g>
        
      </g>
      
      <g id="g9940" transform="scale(0.58664,0.58664)">
        <clipPath id="clip30">
          <path id="path9943" d="m 0,0 0,467 580,0 0,-467 z" />
        </clipPath>
        <g id="g9945" clip-path="url(#clip30)">
          <g style="fill:none;stroke:#000000;stroke-width:2;stroke-linecap:round;stroke-linejoin:round;stroke-opacity:1" id="g9947">
            <path id="path9949" d="m 190.18,162.98 5.5,-4.5" />
          </g>
          
        </g>
        
      </g>
      
      
      
      
      <g id="g9984" transform="matrix(16.719,0,0,16.719,262.64584,31.60575)">
        <clipPath id="clip34">
          <path id="path9987" d="m -23.579,-2.9605 0,24.5785 30.5264,0 0,-24.5785 z" />
        </clipPath>
        <g id="g9989" clip-path="url(#clip34)">
          <g style="fill:#000000;fill-opacity:1;fill-rule:nonzero;stroke:none" id="g9991">
            <path id="path9993" d="M 0.48438,-0.375 0.39062,0 Q 0.35938,0.09375 0.28125,0.15625 0.21875,0.20312 0.15625,0.20312 0.09375,0.20312 0.0625,0.15625 0.046875,0.14062 0.046875,0.125 q 0,-0.0625 0.046875,-0.0625 0,-0.015625 0.01563,-0.015625 0.03124,0 0.03124,0.03125 0,0 0,0.015625 0,0.01563 -0.01562,0.03125 Q 0.10938,0.14062 0.078125,0.14062 0.09375,0.1875 0.15625,0.1875 q 0.0625,0 0.10937,-0.0625 0.04688,-0.0625 0.0625,-0.140625 0,-0.015625 0,-0.015625 -0.04687,0.046875 -0.09374,0.046875 -0.07813,0 -0.10938,-0.0625 -0.01562,-0.03125 -0.01562,-0.062505 0,-0.04687 0.04687,-0.20312 0,0 0.01563,0 0.01562,-0.04688 0.01562,-0.07812 0,-0.03126 -0.03125,-0.03126 -0.04687,0 -0.09375,0.09376 l 0,0 q 0,0.01562 0,0.03124 -0.015625,0.01563 -0.015625,0.01563 -0.015625,0 -0.015625,0 0,-0.03125 0.015625,-0.0625 0.046875,-0.09375 0.109375,-0.09375 0.0625,0 0.07813,0.04688 Q 0.25,-0.375 0.25,-0.35938 q 0,0.01563 -0.03125,0.07813 -0.04687,0.125 -0.04687,0.1875 0,0.078125 0.0625,0.078125 0.0625,0 0.09374,-0.0625 0.01563,-0.015625 0.01563,-0.015625 l 0.04687,-0.1875 Q 0.40625,-0.3125 0.40625,-0.35938 0.42188,-0.40625 0.42188,-0.40625 0.4375,-0.4375 0.46875,-0.4375 q 0.01563,0.01562 0.01563,0.03125 0,0.01563 0,0.03125 z" />
          </g>
          
        </g>
        
      </g>
      
      <g id="g9995" transform="matrix(16.719,0,0,16.719,275.48584,31.60575)">
        <clipPath id="clip35">
          <path id="path9998" d="m -24.347,-2.9605 0,24.5785 30.5263,0 0,-24.5785 z" />
        </clipPath>
        <g id="g10000" clip-path="url(#clip35)">
          <g style="fill:#000000;fill-opacity:1;fill-rule:nonzero;stroke:none" id="g10002">
            <path id="path10004" d="m 0.6875,-0.32812 -0.59375,0 q -0.03125,0 -0.03125,-0.01563 0,-0.01563 0.03125,-0.01563 l 0.59375,0 q 0.03125,0 0.03125,0.01563 0,0.01563 -0.03125,0.01563 z m 0,0.1875 -0.59375,0 q -0.03125,0 -0.03125,-0.01563 0,-0.01563 0.03125,-0.01563 l 0.59375,0 q 0.03125,0 0.03125,0.01563 0,0.01563 -0.03125,0.01563 z" />
          </g>
          
        </g>
        
      </g>
      
      <g id="g10006" transform="matrix(16.719,0,0,16.719,293.12584,31.60575)">
        <clipPath id="clip36">
          <path id="path10009" d="m -25.403,-2.9605 0,24.5785 30.5267,0 0,-24.5785 z" />
        </clipPath>
        <g id="g10011" clip-path="url(#clip36)">
          <g style="fill:#000000;fill-opacity:1;fill-rule:nonzero;stroke:none" id="g10013">
            <path id="path10015" d="m 0.35938,-0.40625 0,0 -0.04688,0.328125 q -0.01562,0.0625 -0.04688,0.140625 0,0.03125 -0.01562,0.04688 -0.03125,0.07812 -0.09375,0.09374 0,0 -0.01563,0 -0.04687,0 -0.07812,-0.03124 -0.015625,-0.01563 -0.015625,-0.03126 0,-0.04687 0.046875,-0.062495 0,0 0.01563,0 0.03124,0 0.03124,0.015625 0,0.01563 0,0.01563 0,0.03124 -0.03124,0.04687 0,0 -0.01563,0.01563 0.01563,0.01562 0.04687,0.01562 0.04688,0 0.0625,-0.109375 Q 0.21875,0.0625 0.21875,0.03125 l 0,-0.03125 0.07813,-0.40625 -0.0625,0 q -0.03126,0 -0.03126,0 l 0,0 0,0 q 0,-0.01563 0.01563,-0.03125 l 0,0 0.01563,0 0.07812,0 Q 0.32812,-0.5625 0.34375,-0.59375 0.375,-0.6875 0.4375,-0.70312 q 0.01562,0 0.03125,0 0.04687,0 0.07813,0.03124 l 0,0 q 0,0.01563 0,0.03126 0,0.04687 -0.03126,0.0625 0,0 -0.01562,0 -0.03125,0 -0.03125,-0.01563 -0.01563,-0.01563 -0.01563,-0.01563 0,-0.03124 0.03126,-0.04687 0.01562,0 0.03124,-0.01563 Q 0.5,-0.6875 0.46875,-0.6875 q -0.03125,0 -0.04687,0.03125 -0.01563,0.01563 -0.03126,0.10937 L 0.375,-0.4375 l 0.07812,0 q 0.03126,0 0.03126,0.01562 0,0.01563 -0.01563,0.01563 l 0,0 -0.01563,0 -0.09374,0 z" />
          </g>
          
        </g>
        
      </g>
      
      <g id="g10017" transform="matrix(16.719,0,0,16.719,301.31584,31.60575)">
        <clipPath id="clip37">
          <path id="path10020" d="m -25.892,-2.9605 0,24.5785 30.5262,0 0,-24.5785 z" />
        </clipPath>
        <g id="g10022" clip-path="url(#clip37)">
          <g style="fill:#000000;fill-opacity:1;fill-rule:nonzero;stroke:none" id="g10024">
            <path id="path10026" d="m 0.32812,0.23438 0,0 q 0,0.01562 0,0.01562 Q 0.3125,0.25 0.26562,0.20312 0.20312,0.14062 0.17188,0.0625 0.09375,-0.078125 0.09375,-0.25 q 0,-0.17188 0.0625,-0.3125 0.0625,-0.10938 0.14063,-0.17188 Q 0.3125,-0.75 0.32812,-0.75 q 0,0 0,0.01562 0,0 -0.01562,0.01563 -0.15625,0.15625 -0.15625,0.46875 0,0.3125 0.15625,0.46875 0.01562,0.01563 0.01562,0.01563 z" />
          </g>
          
        </g>
        
      </g>
      
      <g id="g10028" transform="matrix(16.719,0,0,16.719,307.81084,31.60575)">
        <clipPath id="clip38">
          <path id="path10031" d="m -26.281,-2.9605 0,24.5785 30.5263,0 0,-24.5785 z" />
        </clipPath>
        <g id="g10033" clip-path="url(#clip38)">
          <g style="fill:#000000;fill-opacity:1;fill-rule:nonzero;stroke:none" id="g10035">
            <path id="path10037" d="m 0.32812,-0.29688 -0.03124,0.125 q -0.01563,0.07813 -0.01563,0.093755 0,0.046875 0.03125,0.0625 0.01562,0 0.03125,0 0.04687,0 0.07813,-0.046875 0.03124,-0.03125 0.04687,-0.07812 0,-0.01563 0.01563,-0.01563 0.01562,0 0.01562,0.01563 0,0.01562 -0.03125,0.062495 -0.0625,0.09375 -0.125,0.09375 -0.07813,0 -0.10937,-0.0625 0,-0.015625 0,-0.015625 Q 0.20312,-0.015625 0.15625,0 0.14062,0.015625 0.125,0.015625 q -0.0625,0 -0.09375,-0.046875 0,0 0,-0.03125 0,-0.03125 0.03125,-0.04688 0.015625,0 0.015625,0 0.031255,0 0.046875,0.01563 0,0.015625 0,0.015625 0,0.03125 -0.03125,0.046875 -0.015625,0 -0.015625,0 0.015625,0.015625 0.046875,0.015625 0.04688,0 0.07812,-0.0625 0.01563,-0.015625 0.01563,-0.031255 0.04687,-0.20312 0.04687,-0.25 0,-0.0625 -0.04687,-0.0625 -0.04687,0 -0.09375,0.0625 l 0,0 q 0,0 0,0 -0.01562,0.01563 -0.03125,0.04688 0,0 0,0.01562 l -0.015625,0.01563 q 0,0 0,0 -0.015625,0 -0.015625,0 0,-0.03125 0.03125,-0.07813 0.04687,-0.07812 0.125,-0.07812 0.07813,0 0.10937,0.07812 0.03126,-0.0625 0.07813,-0.07812 0.01563,0 0.03125,0 0.0625,0 0.07812,0.03125 0.01563,0.01563 0.01563,0.03125 0,0.04688 -0.04687,0.04688 0,0.01562 -0.01563,0.01562 -0.03125,0 -0.03125,-0.03125 0,0 0,-0.01563 0,-0.03124 0.03125,-0.04687 0,0 0.01563,0 -0.01563,-0.01563 -0.04688,-0.01563 -0.07812,0 -0.09375,0.10938 -0.01563,0 -0.01563,0.01562 z" />
          </g>
          
        </g>
        
      </g>
      
      <g id="g10039" transform="matrix(16.719,0,0,16.719,317.36584,31.60575)">
        <clipPath id="clip39">
          <path id="path10042" d="m -26.853,-2.9605 0,24.5785 30.5267,0 0,-24.5785 z" />
        </clipPath>
        <g id="g10044" clip-path="url(#clip39)">
          <g style="fill:#000000;fill-opacity:1;fill-rule:nonzero;stroke:none" id="g10046">
            <path id="path10048" d="m 0.28125,-0.25 0,0 q 0,0.171875 -0.0625,0.3125 Q 0.17188,0.17188 0.09375,0.23438 0.078125,0.25 0.0625,0.25 q 0,0 0,-0.01562 0,0 0,-0.01563 Q 0.23438,0.0625 0.23438,-0.25 q 0,-0.3125 -0.156255,-0.46875 l 0,0 Q 0.0625,-0.73438 0.0625,-0.73438 q 0,-0.01562 0,-0.01562 0.015625,0 0.0625,0.04688 0.0625,0.0625 0.09375,0.14062 0.0625,0.14062 0.0625,0.3125 z" />
          </g>
          
        </g>
        
      </g>
      
      <g id="g10050" transform="matrix(16.719,0,0,16.719,196.36906,233.08234)">
        <clipPath id="clip40">
          <path id="path10053" d="m -17.737,-18.961 0,24.5794 30.526,0 0,-24.5794 z" />
        </clipPath>
        <g id="g10055" clip-path="url(#clip40)">
          <g style="fill:#000000;fill-opacity:1;fill-rule:nonzero;stroke:none" id="g10057">
            <path id="path10059" d="M 0.48438,-0.375 0.39062,0 Q 0.35938,0.09375 0.28125,0.15625 0.21875,0.20312 0.15625,0.20312 0.09375,0.20312 0.0625,0.15625 0.046875,0.14062 0.046875,0.125 q 0,-0.0625 0.046875,-0.0625 0,-0.015625 0.01563,-0.015625 0.03124,0 0.03124,0.03125 0,0 0,0.015625 0,0.01563 -0.01562,0.03125 Q 0.10938,0.14062 0.078125,0.14062 0.09375,0.1875 0.15625,0.1875 q 0.0625,0 0.10937,-0.0625 0.04688,-0.0625 0.0625,-0.140625 0,-0.015625 0,-0.015625 -0.04687,0.046875 -0.09374,0.046875 -0.07813,0 -0.10938,-0.0625 -0.01562,-0.03125 -0.01562,-0.062505 0,-0.04687 0.04687,-0.20312 0,0 0.01563,0 0.01562,-0.04688 0.01562,-0.07812 0,-0.03126 -0.03125,-0.03126 -0.04687,0 -0.09375,0.09376 l 0,0 q 0,0.01562 0,0.03124 -0.015625,0.01563 -0.015625,0.01563 -0.015625,0 -0.015625,0 0,-0.03125 0.015625,-0.0625 0.046875,-0.09375 0.109375,-0.09375 0.0625,0 0.07813,0.04688 Q 0.25,-0.375 0.25,-0.35938 q 0,0.01563 -0.03125,0.07813 -0.04687,0.125 -0.04687,0.1875 0,0.078125 0.0625,0.078125 0.0625,0 0.09374,-0.0625 0.01563,-0.015625 0.01563,-0.015625 l 0.04687,-0.1875 Q 0.40625,-0.3125 0.40625,-0.35938 0.42188,-0.40625 0.42188,-0.40625 0.4375,-0.4375 0.46875,-0.4375 q 0.01563,0.01562 0.01563,0.03125 0,0.01563 0,0.03125 z" />
          </g>
          
        </g>
        
      </g>
      
      <g id="g10061" transform="matrix(16.719,0,0,16.719,209.20906,233.08234)">
        <clipPath id="clip41">
          <path id="path10064" d="m -18.505,-18.961 0,24.5794 30.526,0 0,-24.5794 z" />
        </clipPath>
        <g id="g10066" clip-path="url(#clip41)">
          <g style="fill:#000000;fill-opacity:1;fill-rule:nonzero;stroke:none" id="g10068">
            <path id="path10070" d="m 0.6875,-0.32812 -0.59375,0 q -0.03125,0 -0.03125,-0.01563 0,-0.01563 0.03125,-0.01563 l 0.59375,0 q 0.03125,0 0.03125,0.01563 0,0.01563 -0.03125,0.01563 z m 0,0.1875 -0.59375,0 q -0.03125,0 -0.03125,-0.01563 0,-0.01563 0.03125,-0.01563 l 0.59375,0 q 0.03125,0 0.03125,0.01563 0,0.01563 -0.03125,0.01563 z" />
          </g>
          
        </g>
        
      </g>
      
      <g id="g10072" transform="matrix(16.719,0,0,16.719,226.84906,233.08234)">
        <clipPath id="clip42">
          <path id="path10075" d="m -19.56,-18.961 0,24.5794 30.526,0 0,-24.5794 z" />
        </clipPath>
        <g id="g10077" clip-path="url(#clip42)">
          <g style="fill:#000000;fill-opacity:1;fill-rule:nonzero;stroke:none" id="g10079">
            <path id="path10081" d="m 0.35938,-0.40625 0,0 -0.04688,0.328125 q -0.01562,0.0625 -0.04688,0.140625 0,0.03125 -0.01562,0.04688 -0.03125,0.07812 -0.09375,0.09374 0,0 -0.01563,0 -0.04687,0 -0.07812,-0.03124 -0.015625,-0.01563 -0.015625,-0.03126 0,-0.04687 0.046875,-0.062495 0,0 0.01563,0 0.03124,0 0.03124,0.015625 0,0.01563 0,0.01563 0,0.03124 -0.03124,0.04687 0,0 -0.01563,0.01563 0.01563,0.01562 0.04687,0.01562 0.04688,0 0.0625,-0.109375 Q 0.21875,0.0625 0.21875,0.03125 l 0,-0.03125 0.07813,-0.40625 -0.0625,0 q -0.03126,0 -0.03126,0 l 0,0 0,0 q 0,-0.01563 0.01563,-0.03125 l 0,0 0.01563,0 0.07812,0 Q 0.32812,-0.5625 0.34375,-0.59375 0.375,-0.6875 0.4375,-0.70312 q 0.01562,0 0.03125,0 0.04687,0 0.07813,0.03124 l 0,0 q 0,0.01563 0,0.03126 0,0.04687 -0.03126,0.0625 0,0 -0.01562,0 -0.03125,0 -0.03125,-0.01563 -0.01563,-0.01563 -0.01563,-0.01563 0,-0.03124 0.03126,-0.04687 0.01562,0 0.03124,-0.01563 Q 0.5,-0.6875 0.46875,-0.6875 q -0.03125,0 -0.04687,0.03125 -0.01563,0.01563 -0.03126,0.10937 L 0.375,-0.4375 l 0.07812,0 q 0.03126,0 0.03126,0.01562 0,0.01563 -0.01563,0.01563 l 0,0 -0.01563,0 -0.09374,0 z" />
          </g>
          
        </g>
        
      </g>
      
      <g id="g10083" transform="matrix(16.719,0,0,16.719,235.03906,233.08234)">
        <clipPath id="clip43">
          <path id="path10086" d="m -20.05,-18.961 0,24.5794 30.526,0 0,-24.5794 z" />
        </clipPath>
        <g id="g10088" clip-path="url(#clip43)">
          <g style="fill:#000000;fill-opacity:1;fill-rule:nonzero;stroke:none" id="g10090">
            <path id="path10092" d="m 0.32812,0.23438 0,0 q 0,0.01562 0,0.01562 Q 0.3125,0.25 0.26562,0.20312 0.20312,0.14062 0.17188,0.0625 0.09375,-0.078125 0.09375,-0.25 q 0,-0.17188 0.0625,-0.3125 0.0625,-0.10938 0.14063,-0.17188 Q 0.3125,-0.75 0.32812,-0.75 q 0,0 0,0.01562 0,0 -0.01562,0.01563 -0.15625,0.15625 -0.15625,0.46875 0,0.3125 0.15625,0.46875 0.01562,0.01563 0.01562,0.01563 z" />
          </g>
          
        </g>
        
      </g>
      
      <g id="g10094" transform="matrix(16.719,0,0,16.719,241.54906,233.08234)">
        <clipPath id="clip44">
          <path id="path10097" d="m -20.439,-18.961 0,24.5794 30.526,0 0,-24.5794 z" />
        </clipPath>
        <g id="g10099" clip-path="url(#clip44)">
          <g style="fill:#000000;fill-opacity:1;fill-rule:nonzero;stroke:none" id="g10101">
            <path id="path10103" d="m 0.32812,-0.29688 -0.03124,0.125 q -0.01563,0.07813 -0.01563,0.093755 0,0.046875 0.03125,0.0625 0.01562,0 0.03125,0 0.04687,0 0.07813,-0.046875 0.03124,-0.03125 0.04687,-0.07812 0,-0.01563 0.01563,-0.01563 0.01562,0 0.01562,0.01563 0,0.01562 -0.03125,0.062495 -0.0625,0.09375 -0.125,0.09375 -0.07813,0 -0.10937,-0.0625 0,-0.015625 0,-0.015625 Q 0.20312,-0.015625 0.15625,0 0.14062,0.015625 0.125,0.015625 q -0.0625,0 -0.09375,-0.046875 0,0 0,-0.03125 0,-0.03125 0.03125,-0.04688 0.015625,0 0.015625,0 0.031255,0 0.046875,0.01563 0,0.015625 0,0.015625 0,0.03125 -0.03125,0.046875 -0.015625,0 -0.015625,0 0.015625,0.015625 0.046875,0.015625 0.04688,0 0.07812,-0.0625 0.01563,-0.015625 0.01563,-0.031255 0.04687,-0.20312 0.04687,-0.25 0,-0.0625 -0.04687,-0.0625 -0.04687,0 -0.09375,0.0625 l 0,0 q 0,0 0,0 -0.01562,0.01563 -0.03125,0.04688 0,0 0,0.01562 l -0.015625,0.01563 q 0,0 0,0 -0.015625,0 -0.015625,0 0,-0.03125 0.03125,-0.07813 0.04687,-0.07812 0.125,-0.07812 0.07813,0 0.10937,0.07812 0.03126,-0.0625 0.07813,-0.07812 0.01563,0 0.03125,0 0.0625,0 0.07812,0.03125 0.01563,0.01563 0.01563,0.03125 0,0.04688 -0.04687,0.04688 0,0.01562 -0.01563,0.01562 -0.03125,0 -0.03125,-0.03125 0,0 0,-0.01563 0,-0.03124 0.03125,-0.04687 0,0 0.01563,0 -0.01563,-0.01563 -0.04688,-0.01563 -0.07812,0 -0.09375,0.10938 -0.01563,0 -0.01563,0.01562 z" />
          </g>
          
        </g>
        
      </g>
      
      <g id="g10105" transform="matrix(16.719,0,0,16.719,254.80906,233.08234)">
        <clipPath id="clip45">
          <path id="path10108" d="m -21.233,-18.961 0,24.5794 30.5266,0 0,-24.5794 z" />
        </clipPath>
        <g id="g10110" clip-path="url(#clip45)">
          <g style="fill:#000000;fill-opacity:1;fill-rule:nonzero;stroke:none" id="g10112">
            <path id="path10114" d="m 0.40625,-0.23438 0,0.281255 q 0,0.03125 -0.01563,0.03125 -0.01562,0 -0.01562,-0.03125 l 0,-0.281255 -0.28125,0 q -0.03125,0 -0.03125,-0.01562 0,-0.01562 0.03125,-0.01562 l 0.28125,0 0,-0.28126 q 0,-0.03124 0.01562,-0.03124 0.01563,0 0.01563,0.03124 l 0,0.28126 0.28125,0 q 0.03125,0 0.03125,0.01562 0,0.01562 -0.03125,0.01562 l -0.28125,0 z" />
          </g>
          
        </g>
        
      </g>
      
      <g id="g10116" transform="matrix(16.719,0,0,16.719,271.53406,233.08234)">
        <clipPath id="clip46">
          <path id="path10119" d="m -22.233,-18.961 0,24.5794 30.5266,0 0,-24.5794 z" />
        </clipPath>
        <g id="g10121" clip-path="url(#clip46)">
          <g style="fill:#000000;fill-opacity:1;fill-rule:nonzero;stroke:none" id="g10123">
            <path id="path10125" d="m 0.45312,-0.17188 0,0 L 0.42188,0 0.046875,0 q 0,-0.03125 0.015625,-0.03125 l 0,0 L 0.25,-0.25 q 0.10938,-0.125 0.10938,-0.21875 0,-0.09375 -0.0625,-0.14063 l 0,0 0,0 q -0.03126,-0.03124 -0.07813,-0.03124 -0.0625,0 -0.10937,0.0625 -0.01563,0.01562 -0.01563,0.04687 0,0 0.01563,0 0.03124,0 0.04687,0.03125 l 0,0 q 0,0.01562 0,0.01562 0,0.04688 -0.04687,0.04688 0,0.01562 0,0.01562 -0.04688,0 -0.062505,-0.03124 0,-0.01563 0,-0.03126 0,-0.07812 0.062505,-0.125 0.04687,-0.0625 0.125,-0.0625 0.10937,0 0.17187,0.07813 0.03125,0.04687 0.04687,0.10937 0,0 0,0.01563 0,0.0625 -0.0625,0.14063 Q 0.35938,-0.29688 0.29688,-0.25 L 0.25,-0.1875 l -0.01562,0 -0.10938,0.109375 0.1875,0 q 0.07812,0 0.09375,0 0,-0.015625 0.01563,-0.093755 l 0.03124,0 z" />
          </g>
          
        </g>
        
      </g>
      
      <g id="g10127" transform="matrix(16.719,0,0,16.719,279.88906,233.08234)">
        <clipPath id="clip47">
          <path id="path10130" d="m -22.733,-18.961 0,24.5794 30.5266,0 0,-24.5794 z" />
        </clipPath>
        <g id="g10132" clip-path="url(#clip47)">
          <g style="fill:#000000;fill-opacity:1;fill-rule:nonzero;stroke:none" id="g10134">
            <path id="path10136" d="m 0.28125,-0.25 0,0 q 0,0.171875 -0.0625,0.3125 Q 0.17188,0.17188 0.09375,0.23438 0.078125,0.25 0.0625,0.25 q 0,0 0,-0.01562 0,0 0,-0.01563 Q 0.23438,0.0625 0.23438,-0.25 q 0,-0.3125 -0.156255,-0.46875 l 0,0 Q 0.0625,-0.73438 0.0625,-0.73438 q 0,-0.01562 0,-0.01562 0.015625,0 0.0625,0.04688 0.0625,0.0625 0.09375,0.14062 0.0625,0.14062 0.0625,0.3125 z" />
          </g>
          
        </g>
        
      </g>
      
      <g id="g10138" transform="matrix(16.719,0,0,16.719,290.10406,233.08234)">
        <clipPath id="clip48">
          <path id="path10141" d="m -23.344,-18.961 0,24.5794 30.5265,0 0,-24.5794 z" />
        </clipPath>
        <g id="g10143" clip-path="url(#clip48)">
          <g style="fill:#000000;fill-opacity:1;fill-rule:nonzero;stroke:none" id="g10145">
            <path id="path10147" d="m 0.65625,-0.23438 -0.54687,0 q -0.031255,0 -0.031255,-0.01562 0,-0.01562 0.031255,-0.01562 l 0.54687,0 q 0.03125,0 0.03125,0.01562 0,0.01562 -0.03125,0.01562 z" />
          </g>
          
        </g>
        
      </g>
      
      <g id="g10149" transform="matrix(16.719,0,0,16.719,306.82906,233.08234)">
        <clipPath id="clip49">
          <path id="path10152" d="m -24.344,-18.961 0,24.5794 30.5265,0 0,-24.5794 z" />
        </clipPath>
        <g id="g10154" clip-path="url(#clip49)">
          <g style="fill:#000000;fill-opacity:1;fill-rule:nonzero;stroke:none" id="g10156">
            <path id="path10158" d="m 0.03125,-0.17188 0,-0.03124 0.29687,-0.46876 q 0.01563,0 0.03126,0 0.01562,0 0.01562,0 l 0,0.01563 0,0.45313 0.09375,0 0,0.03124 -0.09375,0 0,0.093755 q 0,0.03125 0.01562,0.03125 0,0.015625 0.0625,0.015625 l 0.01563,0 0,0.03125 Q 0.42188,0 0.32812,0 0.23438,0 0.20312,0 l 0,-0.03125 0.01563,0 q 0.0625,0 0.07813,-0.015625 0,-0.015625 0,-0.03125 l 0,-0.093755 -0.26563,0 z m 0.26563,-0.03124 0,-0.35938 -0.23438,0.35938 0.23438,0 z" />
          </g>
          
        </g>
        
      </g>
      
      <g transform="matrix(0.58664,0,0,0.58664,0,112)" id="g16850">
        <clipPath id="clipPath16852">
          <path d="m 0,0 0,467 580,0 0,-467 z" id="path16854" />
        </clipPath>
        <g clip-path="url(#clip25)" id="g16856">
          <g id="g16858" style="fill:none;stroke:#000000;stroke-width:2;stroke-linecap:butt;stroke-linejoin:round;stroke-opacity:1;stroke-dasharray:6, 4">
            <path d="m 286.82,61.845 -96.64,0" id="path16860" />
          </g>
          
        </g>
        
      </g>
      <g transform="matrix(0.58664,0,0,0.58664,-4,112)" id="g16862">
        <clipPath id="clipPath16864">
          <path d="m 0,0 0,467 580,0 0,-467 z" id="path16866" />
        </clipPath>
        <g clip-path="url(#clip26)" id="g16868">
          <g id="g16870" style="fill:none;stroke:#000000;stroke-width:2;stroke-linecap:round;stroke-linejoin:round;stroke-opacity:1">
            <path d="m 234,61.845 4.5,-5.5" id="path16872" />
          </g>
          
        </g>
        
      </g>
      <g transform="matrix(0.58664,0,0,0.58664,-4,112)" id="g16874">
        <clipPath id="clipPath16876">
          <path d="m 0,0 0,467 580,0 0,-467 z" id="path16878" />
        </clipPath>
        <g clip-path="url(#clip27)" id="g16880">
          <g id="g16882" style="fill:none;stroke:#000000;stroke-width:2;stroke-linecap:round;stroke-linejoin:round;stroke-opacity:1">
            <path d="m 234,61.845 4.5,5.5" id="path16884" />
          </g>
          
        </g>
        
      </g>
      <g transform="matrix(0.58664,0,0,0.58664,58,0)" id="g16886">
        <clipPath id="clipPath16888">
          <path d="m 0,0 0,467 580,0 0,-467 z" id="path16890" />
        </clipPath>
        <g clip-path="url(#clip28)" id="g16892">
          <g id="g16894" style="fill:none;stroke:#000000;stroke-width:2;stroke-linecap:butt;stroke-linejoin:round;stroke-opacity:1;stroke-dasharray:6, 4">
            <path d="m 190.18,61.845 0,193.275" id="path16896" />
          </g>
          
        </g>
        
      </g>
      <g transform="matrix(0.58664,0,0,0.58664,58,6)" id="g16898">
        <clipPath id="clipPath16900">
          <path d="m 0,0 0,467 580,0 0,-467 z" id="path16902" />
        </clipPath>
        <g clip-path="url(#clip30)" id="g16904">
          <g id="g16906" style="fill:none;stroke:#000000;stroke-width:2;stroke-linecap:round;stroke-linejoin:round;stroke-opacity:1">
            <path d="m 190.18,162.98 5.5,-4.5" id="path16908" />
          </g>
          
        </g>
        
      </g>
      <g transform="matrix(0.58664,0,0,0.58664,56,6)" id="g16910">
        <clipPath id="clipPath16912">
          <path d="m 0,0 0,467 580,0 0,-467 z" id="path16914" />
        </clipPath>
        <g clip-path="url(#clip29)" id="g16916">
          <g id="g16918" style="fill:none;stroke:#000000;stroke-width:2;stroke-linecap:round;stroke-linejoin:round;stroke-opacity:1">
            <path d="m 190.18,162.98 -5.5,-4.5" id="path16920" />
          </g>
          
        </g>
        
      </g>
    </g>
    
  </g>
  
</svg>