<?xml version='1.0' ?><svg xmlns:dc="http://purl.org/dc/elements/1.1/" xmlns:cc="http://creativecommons.org/ns#" xmlns:rdf="http://www.w3.org/1999/02/22-rdf-syntax-ns#" xmlns:svg="http://www.w3.org/2000/svg" xmlns="http://www.w3.org/2000/svg" id="svg11376" y="0px" x="0px" version="1.1" width="339.60211" height="258.99919" viewBox="17.391305233724417 741.89791997048 339.6021145639649 258.9991934807299" preserveAspectRatio="none">
  <metadata id="metadata12257">
    <rdf:RDF>
      <cc:Work rdf:about="">
        <dc:format>image/svg+xml</dc:format>
        <dc:type rdf:resource="http://purl.org/dc/dcmitype/StillImage" />
      </cc:Work>
    </rdf:RDF>
  </metadata>
  <defs id="defs12255" />
  <title id="title11378" />
  <g transform="translate(0,508.36222)" style="stroke-width:1;stroke-linecap:square;stroke-linejoin:miter;stroke-miterlimit:10;stroke-dasharray:none;stroke-dashoffset:0" id="g11380" stroke-miterlimit="10.000">
    
    
    
    
    
    
    
    
    
    
    
    
    
    
    
    
    
    
    
    
    
    
    
    
    
    
    
    
    
    
    
    
    
    
    
    
    
    
    
    
    
    
    
    
    
    <g transform="matrix(0.47548193,0,0,0.47548193,17.391305,233.53569)" id="g12259">
      <g transform="scale(1.1664,1.1664)" id="g11382">
        <clipPath id="clip1">
          <path d="m 0,0 0,467 580,0 0,-467 z" id="path11385" />
        </clipPath>
        <g clip-path="url(#clip1)" id="g11387">
          <g id="g11389" style="fill:none;stroke:#000000;stroke-width:2;stroke-linecap:butt;stroke-opacity:1">
            <path d="m 286.03,3 0,464" id="path11391" />
          </g>
          
        </g>
        
      </g>
      <g transform="scale(1.1664,1.1664)" id="g11393">
        <clipPath id="clip2">
          <path d="m 0,0 0,467 580,0 0,-467 z" id="path11396" />
        </clipPath>
        <g clip-path="url(#clip2)" id="g11398">
          <g id="g11400" style="fill:#000000;fill-opacity:1;fill-rule:evenodd;stroke:none">
            <path d="m 286.03,2 -5,20 10,0" id="path11402" />
          </g>
          
        </g>
        
      </g>
      <g transform="scale(1.1664,1.1664)" id="g11404">
        <clipPath id="clip3">
          <path d="m 0,0 0,467 580,0 0,-467 z" id="path11407" />
        </clipPath>
        <g clip-path="url(#clip3)" id="g11409">
          <g id="g11411" style="fill:none;stroke:#000000;stroke-width:2;stroke-linecap:butt;stroke-opacity:1">
            <path d="m 0,256.81 577,0" id="path11413" />
          </g>
          
        </g>
        
      </g>
      <g transform="scale(1.1664,1.1664)" id="g11415">
        <clipPath id="clip4">
          <path d="m 0,0 0,467 580,0 0,-467 z" id="path11418" />
        </clipPath>
        <g clip-path="url(#clip4)" id="g11420">
          <g id="g11422" style="fill:#000000;fill-opacity:1;fill-rule:evenodd;stroke:none">
            <path d="m 578,256.81 -20,-5 0,10" id="path11424" />
          </g>
          
        </g>
        
      </g>
      <g transform="scale(1.1664,1.1664)" id="g11426">
        <clipPath id="clip5">
          <path d="m 0,0 0,467 580,0 0,-467 z" id="path11429" />
        </clipPath>
        <g clip-path="url(#clip5)" id="g11431">
          <g id="g11433" style="fill:#000000;fill-opacity:1;fill-rule:nonzero;stroke:none">
            <path d="m 33.718,270.29 0,-0.93 5.564,0 0,0.93 z m 8.387,3.71 0,-1.01 2.024,0 0,-7.99 -2.024,0.51 0,-1.04 3.377,-0.84 0,9.36 2.024,0 0,1.01 z m 11.136,0.25 q -1.565,0 -2.533,-1.47 -0.967,-1.47 -0.967,-3.85 0,-2.39 0.974,-3.84 0.974,-1.46 2.567,-1.46 1.593,0 2.567,1.46 0.974,1.45 0.974,3.82 0,2.44 -0.974,3.89 -0.974,1.45 -2.608,1.45 z m 0.014,-1.01 q 2.14,0 2.14,-4.35 0,-4.25 -2.113,-4.25 -2.105,0 -2.105,4.29 0,4.31 2.078,4.31 z" id="path11435" />
          </g>
          
        </g>
        
      </g>
      <g transform="scale(1.1664,1.1664)" id="g11437">
        <clipPath id="clip6">
          <path d="m 0,0 0,467 580,0 0,-467 z" id="path11440" />
        </clipPath>
        <g clip-path="url(#clip6)" id="g11442">
          <g id="g11444" style="fill:none;stroke:#000000;stroke-width:2;stroke-linecap:butt;stroke-opacity:1">
            <path d="m 43.018,256.81 0,4" id="path11446" />
          </g>
          
        </g>
        
      </g>
      <g transform="scale(1.1664,1.1664)" id="g11448">
        <clipPath id="clip7">
          <path d="m 0,0 0,467 580,0 0,-467 z" id="path11451" />
        </clipPath>
        <g clip-path="url(#clip7)" id="g11453">
          <g id="g11455" style="fill:#000000;fill-opacity:1;fill-rule:nonzero;stroke:none">
            <path d="m 85.718,270.29 0,-0.93 5.564,0 0,0.93 z m 9.502,-1.8 q -1.484,-1.03 -1.484,-2.28 0,-1.15 0.841,-1.87 0.841,-0.72 2.194,-0.72 1.251,0 2.027,0.61 0.776,0.61 0.776,1.58 0,1.47 -1.886,2.68 2.29,1.12 2.29,2.89 0,1.27 -0.961,2.07 -0.96,0.8 -2.478,0.8 -1.49,0 -2.41,-0.75 -0.919,-0.76 -0.919,-1.99 0,-1.82 2.01,-3.02 z m 1.716,-0.42 q 1.415,-0.93 1.415,-2.07 0,-0.61 -0.472,-0.99 -0.472,-0.37 -1.244,-0.37 -0.745,0 -1.21,0.37 -0.465,0.36 -0.465,0.94 0,0.57 0.42,1.02 0.421,0.45 1.556,1.1 z m -0.985,0.97 q -0.813,0.63 -1.104,1.09 -0.29,0.47 -0.29,1.17 0,0.87 0.56,1.4 0.561,0.54 1.477,0.54 0.882,0 1.439,-0.46 0.557,-0.45 0.557,-1.19 0,-0.58 -0.345,-0.99 -0.346,-0.41 -1.337,-1 z" id="path11457" />
          </g>
          
        </g>
        
      </g>
      <g transform="scale(1.1664,1.1664)" id="g11459">
        <clipPath id="clip8">
          <path d="m 0,0 0,467 580,0 0,-467 z" id="path11462" />
        </clipPath>
        <g clip-path="url(#clip8)" id="g11464">
          <g id="g11466" style="fill:none;stroke:#000000;stroke-width:2;stroke-linecap:butt;stroke-opacity:1">
            <path d="m 91.621,256.81 0,4" id="path11468" />
          </g>
          
        </g>
        
      </g>
      <g transform="scale(1.1664,1.1664)" id="g11470">
        <clipPath id="clip9">
          <path d="m 0,0 0,467 580,0 0,-467 z" id="path11473" />
        </clipPath>
        <g clip-path="url(#clip9)" id="g11475">
          <g id="g11477" style="fill:#000000;fill-opacity:1;fill-rule:nonzero;stroke:none">
            <path d="m 134.72,270.29 0,-0.93 5.56,0 0,0.93 z m 8.69,-1.53 q 0.96,-1.25 2.42,-1.25 1.33,0 2.17,0.87 0.85,0.88 0.85,2.26 0,1.58 -0.95,2.59 -0.95,1.02 -2.4,1.02 -1.68,0 -2.62,-1.34 -0.94,-1.35 -0.94,-3.74 0,-2.63 1.08,-4.09 1.08,-1.46 3.05,-1.46 0.9,0 2.26,0.39 l 0,1.17 q -1.43,-0.55 -2.34,-0.55 -2.58,0 -2.58,4.13 z m 4.08,2.18 q 0,-1.15 -0.51,-1.81 -0.52,-0.65 -1.43,-0.65 -0.86,0 -1.47,0.57 -0.62,0.57 -0.62,1.38 0,1.27 0.59,2.04 0.58,0.77 1.54,0.77 0.87,0 1.39,-0.62 0.51,-0.63 0.51,-1.68 z" id="path11479" />
          </g>
          
        </g>
        
      </g>
      <g transform="scale(1.1664,1.1664)" id="g11481">
        <clipPath id="clip10">
          <path d="m 0,0 0,467 580,0 0,-467 z" id="path11484" />
        </clipPath>
        <g clip-path="url(#clip10)" id="g11486">
          <g id="g11488" style="fill:none;stroke:#000000;stroke-width:2;stroke-linecap:butt;stroke-opacity:1">
            <path d="m 140.22,256.81 0,4" id="path11490" />
          </g>
          
        </g>
        
      </g>
      <g transform="scale(1.1664,1.1664)" id="g11492">
        <clipPath id="clip11">
          <path d="m 0,0 0,467 580,0 0,-467 z" id="path11495" />
        </clipPath>
        <g clip-path="url(#clip11)" id="g11497">
          <g id="g11499" style="fill:#000000;fill-opacity:1;fill-rule:nonzero;stroke:none">
            <path d="m 182.72,270.29 0,-0.93 5.56,0 0,0.93 z m 11.55,3.71 0,-2.86 -4.55,0 0,-1.02 4.55,-6.24 1.27,0 0,6.16 1.35,0 0,1.1 -1.35,0 0,2.86 z m -3.23,-3.96 3.32,0 0,-4.5 z" id="path11501" />
          </g>
          
        </g>
        
      </g>
      <g transform="scale(1.1664,1.1664)" id="g11503">
        <clipPath id="clip12">
          <path d="m 0,0 0,467 580,0 0,-467 z" id="path11506" />
        </clipPath>
        <g clip-path="url(#clip12)" id="g11508">
          <g id="g11510" style="fill:none;stroke:#000000;stroke-width:2;stroke-linecap:butt;stroke-opacity:1">
            <path d="m 188.83,256.81 0,4" id="path11512" />
          </g>
          
        </g>
        
      </g>
      <g transform="scale(1.1664,1.1664)" id="g11514">
        <clipPath id="clip13">
          <path d="m 0,0 0,467 580,0 0,-467 z" id="path11517" />
        </clipPath>
        <g clip-path="url(#clip13)" id="g11519">
          <g id="g11521" style="fill:#000000;fill-opacity:1;fill-rule:nonzero;stroke:none">
            <path d="m 231.72,270.29 0,-0.93 5.56,0 0,0.93 z m 7.44,3.71 0,-1.18 q 0.59,-1.38 2.38,-3 l 0.77,-0.69 q 1.49,-1.34 1.49,-2.67 0,-0.85 -0.51,-1.33 -0.5,-0.49 -1.39,-0.49 -1.06,0 -2.48,0.82 l 0,-1.19 q 1.34,-0.64 2.67,-0.64 1.42,0 2.28,0.77 0.86,0.76 0.86,2.03 0,0.9 -0.43,1.61 -0.44,0.7 -1.62,1.71 l -0.52,0.44 q -1.62,1.38 -1.87,2.63 l 4.39,0 0,1.18 z" id="path11523" />
          </g>
          
        </g>
        
      </g>
      <g transform="scale(1.1664,1.1664)" id="g11525">
        <clipPath id="clip14">
          <path d="m 0,0 0,467 580,0 0,-467 z" id="path11528" />
        </clipPath>
        <g clip-path="url(#clip14)" id="g11530">
          <g id="g11532" style="fill:none;stroke:#000000;stroke-width:2;stroke-linecap:butt;stroke-opacity:1">
            <path d="m 237.43,256.81 0,4" id="path11534" />
          </g>
          
        </g>
        
      </g>
      <g transform="scale(1.1664,1.1664)" id="g11536">
        <clipPath id="clip15">
          <path d="m 0,0 0,467 580,0 0,-467 z" id="path11539" />
        </clipPath>
        <g clip-path="url(#clip15)" id="g11541">
          <g id="g11543" style="fill:#000000;fill-opacity:1;fill-rule:nonzero;stroke:none">
            <path d="m 296.39,274.25 q -1.57,0 -2.53,-1.47 -0.97,-1.47 -0.97,-3.85 0,-2.39 0.97,-3.84 0.98,-1.46 2.57,-1.46 1.59,0 2.57,1.46 0.97,1.45 0.97,3.82 0,2.44 -0.97,3.89 -0.98,1.45 -2.61,1.45 z m 0.01,-1.01 q 2.14,0 2.14,-4.35 0,-4.25 -2.11,-4.25 -2.11,0 -2.11,4.29 0,4.31 2.08,4.31 z" id="path11545" />
          </g>
          
        </g>
        
      </g>
      <g transform="scale(1.1664,1.1664)" id="g11547">
        <clipPath id="clip16">
          <path d="m 0,0 0,467 580,0 0,-467 z" id="path11550" />
        </clipPath>
        <g clip-path="url(#clip16)" id="g11552">
          <g id="g11554" style="fill:#000000;fill-opacity:1;fill-rule:nonzero;stroke:none">
            <path d="m 333.16,274 0,-1.18 q 0.59,-1.38 2.38,-3 l 0.77,-0.69 q 1.49,-1.34 1.49,-2.67 0,-0.85 -0.51,-1.33 -0.5,-0.49 -1.39,-0.49 -1.06,0 -2.48,0.82 l 0,-1.19 q 1.34,-0.64 2.67,-0.64 1.42,0 2.28,0.77 0.86,0.76 0.86,2.03 0,0.9 -0.43,1.61 -0.44,0.7 -1.62,1.71 l -0.52,0.44 q -1.62,1.38 -1.87,2.63 l 4.39,0 0,1.18 z" id="path11556" />
          </g>
          
        </g>
        
      </g>
      <g transform="scale(1.1664,1.1664)" id="g11558">
        <clipPath id="clip17">
          <path d="m 0,0 0,467 580,0 0,-467 z" id="path11561" />
        </clipPath>
        <g clip-path="url(#clip17)" id="g11563">
          <g id="g11565" style="fill:none;stroke:#000000;stroke-width:2;stroke-linecap:butt;stroke-opacity:1">
            <path d="m 334.64,256.81 0,4" id="path11567" />
          </g>
          
        </g>
        
      </g>
      <g transform="scale(1.1664,1.1664)" id="g11569">
        <clipPath id="clip18">
          <path d="m 0,0 0,467 580,0 0,-467 z" id="path11572" />
        </clipPath>
        <g clip-path="url(#clip18)" id="g11574">
          <g id="g11576" style="fill:#000000;fill-opacity:1;fill-rule:nonzero;stroke:none">
            <path d="m 385.27,274 0,-2.86 -4.55,0 0,-1.02 4.55,-6.24 1.27,0 0,6.16 1.35,0 0,1.1 -1.35,0 0,2.86 z m -3.23,-3.96 3.32,0 0,-4.5 z" id="path11578" />
          </g>
          
        </g>
        
      </g>
      <g transform="scale(1.1664,1.1664)" id="g11580">
        <clipPath id="clip19">
          <path d="m 0,0 0,467 580,0 0,-467 z" id="path11583" />
        </clipPath>
        <g clip-path="url(#clip19)" id="g11585">
          <g id="g11587" style="fill:none;stroke:#000000;stroke-width:2;stroke-linecap:butt;stroke-opacity:1">
            <path d="m 383.24,256.81 0,4" id="path11589" />
          </g>
          
        </g>
        
      </g>
      <g transform="scale(1.1664,1.1664)" id="g11591">
        <clipPath id="clip20">
          <path d="m 0,0 0,467 580,0 0,-467 z" id="path11594" />
        </clipPath>
        <g clip-path="url(#clip20)" id="g11596">
          <g id="g11598" style="fill:#000000;fill-opacity:1;fill-rule:nonzero;stroke:none">
            <path d="m 431.41,268.76 q 0.96,-1.25 2.42,-1.25 1.33,0 2.17,0.87 0.85,0.88 0.85,2.26 0,1.58 -0.95,2.59 -0.95,1.02 -2.4,1.02 -1.68,0 -2.62,-1.34 -0.94,-1.35 -0.94,-3.74 0,-2.63 1.08,-4.09 1.08,-1.46 3.05,-1.46 0.9,0 2.26,0.39 l 0,1.17 q -1.43,-0.55 -2.34,-0.55 -2.58,0 -2.58,4.13 z m 4.08,2.18 q 0,-1.15 -0.51,-1.81 -0.52,-0.65 -1.43,-0.65 -0.86,0 -1.47,0.57 -0.62,0.57 -0.62,1.38 0,1.27 0.59,2.04 0.58,0.77 1.54,0.77 0.87,0 1.39,-0.62 0.51,-0.63 0.51,-1.68 z" id="path11600" />
          </g>
          
        </g>
        
      </g>
      <g transform="scale(1.1664,1.1664)" id="g11602">
        <clipPath id="clip21">
          <path d="m 0,0 0,467 580,0 0,-467 z" id="path11605" />
        </clipPath>
        <g clip-path="url(#clip21)" id="g11607">
          <g id="g11609" style="fill:none;stroke:#000000;stroke-width:2;stroke-linecap:butt;stroke-opacity:1">
            <path d="m 431.85,256.81 0,4" id="path11611" />
          </g>
          
        </g>
        
      </g>
      <g transform="scale(1.1664,1.1664)" id="g11613">
        <clipPath id="clip22">
          <path d="m 0,0 0,467 580,0 0,-467 z" id="path11616" />
        </clipPath>
        <g clip-path="url(#clip22)" id="g11618">
          <g id="g11620" style="fill:#000000;fill-opacity:1;fill-rule:nonzero;stroke:none">
            <path d="m 480.22,268.49 q -1.48,-1.03 -1.48,-2.28 0,-1.15 0.84,-1.87 0.84,-0.72 2.19,-0.72 1.25,0 2.03,0.61 0.77,0.61 0.77,1.58 0,1.47 -1.88,2.68 2.29,1.12 2.29,2.89 0,1.27 -0.96,2.07 -0.96,0.8 -2.48,0.8 -1.49,0 -2.41,-0.75 -0.92,-0.76 -0.92,-1.99 0,-1.82 2.01,-3.02 z m 1.72,-0.42 q 1.41,-0.93 1.41,-2.07 0,-0.61 -0.47,-0.99 -0.47,-0.37 -1.25,-0.37 -0.74,0 -1.21,0.37 -0.46,0.36 -0.46,0.94 0,0.57 0.42,1.02 0.42,0.45 1.56,1.1 z m -0.99,0.97 q -0.81,0.63 -1.1,1.09 -0.29,0.47 -0.29,1.17 0,0.87 0.56,1.4 0.56,0.54 1.47,0.54 0.89,0 1.44,-0.46 0.56,-0.45 0.56,-1.19 0,-0.58 -0.35,-0.99 -0.34,-0.41 -1.33,-1 z" id="path11622" />
          </g>
          
        </g>
        
      </g>
      <g transform="scale(1.1664,1.1664)" id="g11624">
        <clipPath id="clip23">
          <path d="m 0,0 0,467 580,0 0,-467 z" id="path11627" />
        </clipPath>
        <g clip-path="url(#clip23)" id="g11629">
          <g id="g11631" style="fill:none;stroke:#000000;stroke-width:2;stroke-linecap:butt;stroke-opacity:1">
            <path d="m 480.45,256.81 0,4" id="path11633" />
          </g>
          
        </g>
        
      </g>
      <g transform="scale(1.1664,1.1664)" id="g11635">
        <clipPath id="clip24">
          <path d="m 0,0 0,467 580,0 0,-467 z" id="path11638" />
        </clipPath>
        <g clip-path="url(#clip24)" id="g11640">
          <g id="g11642" style="fill:#000000;fill-opacity:1;fill-rule:nonzero;stroke:none">
            <path d="m 525.11,274 0,-1.01 2.02,0 0,-7.99 -2.02,0.51 0,-1.04 3.37,-0.84 0,9.36 2.03,0 0,1.01 z m 11.13,0.25 q -1.56,0 -2.53,-1.47 -0.97,-1.47 -0.97,-3.85 0,-2.39 0.98,-3.84 0.97,-1.46 2.56,-1.46 1.6,0 2.57,1.46 0.97,1.45 0.97,3.82 0,2.44 -0.97,3.89 -0.97,1.45 -2.61,1.45 z m 0.01,-1.01 q 2.14,0 2.14,-4.35 0,-4.25 -2.11,-4.25 -2.1,0 -2.1,4.29 0,4.31 2.07,4.31 z" id="path11644" />
          </g>
          
        </g>
        
      </g>
      <g transform="scale(1.1664,1.1664)" id="g11646">
        <clipPath id="clip25">
          <path d="m 0,0 0,467 580,0 0,-467 z" id="path11649" />
        </clipPath>
        <g clip-path="url(#clip25)" id="g11651">
          <g id="g11653" style="fill:none;stroke:#000000;stroke-width:2;stroke-linecap:butt;stroke-opacity:1">
            <path d="m 529.05,256.81 0,4" id="path11655" />
          </g>
          
        </g>
        
      </g>
      <g transform="scale(1.1664,1.1664)" id="g11657">
        <clipPath id="clip26">
          <path d="m 0,0 0,467 580,0 0,-467 z" id="path11660" />
        </clipPath>
        <g clip-path="url(#clip26)" id="g11662">
          <g id="g11664" style="fill:#000000;fill-opacity:1;fill-rule:nonzero;stroke:none">
            <path d="m 265.72,453.29 0,-0.93 5.56,0 0,0.93 z m 9.5,-1.8 q -1.48,-1.03 -1.48,-2.28 0,-1.15 0.84,-1.87 0.84,-0.72 2.19,-0.72 1.25,0 2.03,0.61 0.77,0.61 0.77,1.58 0,1.47 -1.88,2.68 2.29,1.12 2.29,2.89 0,1.27 -0.96,2.07 -0.96,0.8 -2.48,0.8 -1.49,0 -2.41,-0.75 -0.92,-0.76 -0.92,-1.99 0,-1.82 2.01,-3.02 z m 1.72,-0.42 q 1.41,-0.93 1.41,-2.07 0,-0.61 -0.47,-0.99 -0.47,-0.37 -1.25,-0.37 -0.74,0 -1.21,0.37 -0.46,0.36 -0.46,0.94 0,0.57 0.42,1.02 0.42,0.45 1.56,1.1 z m -0.99,0.97 q -0.81,0.63 -1.1,1.09 -0.29,0.47 -0.29,1.17 0,0.87 0.56,1.4 0.56,0.54 1.47,0.54 0.89,0 1.44,-0.46 0.56,-0.45 0.56,-1.19 0,-0.58 -0.35,-0.99 -0.34,-0.41 -1.33,-1 z" id="path11666" />
          </g>
          
        </g>
        
      </g>
      <g transform="scale(1.1664,1.1664)" id="g11668">
        <clipPath id="clip27">
          <path d="m 0,0 0,467 580,0 0,-467 z" id="path11671" />
        </clipPath>
        <g clip-path="url(#clip27)" id="g11673">
          <g id="g11675" style="fill:none;stroke:#000000;stroke-width:2;stroke-linecap:butt;stroke-opacity:1">
            <path d="m 282.03,451.22 4,0" id="path11677" />
          </g>
          
        </g>
        
      </g>
      <g transform="scale(1.1664,1.1664)" id="g11679">
        <clipPath id="clip28">
          <path d="m 0,0 0,467 580,0 0,-467 z" id="path11682" />
        </clipPath>
        <g clip-path="url(#clip28)" id="g11684">
          <g id="g11686" style="fill:#000000;fill-opacity:1;fill-rule:nonzero;stroke:none">
            <path d="m 265.72,404.29 0,-0.93 5.56,0 0,0.93 z m 8.69,-1.53 q 0.96,-1.25 2.42,-1.25 1.33,0 2.17,0.87 0.85,0.88 0.85,2.26 0,1.58 -0.95,2.59 -0.95,1.02 -2.4,1.02 -1.68,0 -2.62,-1.34 -0.94,-1.35 -0.94,-3.74 0,-2.63 1.08,-4.09 1.08,-1.46 3.05,-1.46 0.9,0 2.26,0.39 l 0,1.17 q -1.43,-0.55 -2.34,-0.55 -2.58,0 -2.58,4.13 z m 4.08,2.18 q 0,-1.15 -0.51,-1.81 -0.52,-0.65 -1.43,-0.65 -0.86,0 -1.47,0.57 -0.62,0.57 -0.62,1.38 0,1.27 0.59,2.04 0.58,0.77 1.54,0.77 0.87,0 1.39,-0.62 0.51,-0.63 0.51,-1.68 z" id="path11688" />
          </g>
          
        </g>
        
      </g>
      <g transform="scale(1.1664,1.1664)" id="g11690">
        <clipPath id="clip29">
          <path d="m 0,0 0,467 580,0 0,-467 z" id="path11693" />
        </clipPath>
        <g clip-path="url(#clip29)" id="g11695">
          <g id="g11697" style="fill:none;stroke:#000000;stroke-width:2;stroke-linecap:butt;stroke-opacity:1">
            <path d="m 282.03,402.62 4,0" id="path11699" />
          </g>
          
        </g>
        
      </g>
      <g transform="scale(1.1664,1.1664)" id="g11701">
        <clipPath id="clip30">
          <path d="m 0,0 0,467 580,0 0,-467 z" id="path11704" />
        </clipPath>
        <g clip-path="url(#clip30)" id="g11706">
          <g id="g11708" style="fill:#000000;fill-opacity:1;fill-rule:nonzero;stroke:none">
            <path d="m 265.72,356.29 0,-0.93 5.56,0 0,0.93 z m 11.55,3.71 0,-2.86 -4.55,0 0,-1.02 4.55,-6.24 1.27,0 0,6.16 1.35,0 0,1.1 -1.35,0 0,2.86 z m -3.23,-3.96 3.32,0 0,-4.5 z" id="path11710" />
          </g>
          
        </g>
        
      </g>
      <g transform="scale(1.1664,1.1664)" id="g11712">
        <clipPath id="clip31">
          <path d="m 0,0 0,467 580,0 0,-467 z" id="path11715" />
        </clipPath>
        <g clip-path="url(#clip31)" id="g11717">
          <g id="g11719" style="fill:none;stroke:#000000;stroke-width:2;stroke-linecap:butt;stroke-opacity:1">
            <path d="m 282.03,354.01 4,0" id="path11721" />
          </g>
          
        </g>
        
      </g>
      <g transform="scale(1.1664,1.1664)" id="g11723">
        <clipPath id="clip32">
          <path d="m 0,0 0,467 580,0 0,-467 z" id="path11726" />
        </clipPath>
        <g clip-path="url(#clip32)" id="g11728">
          <g id="g11730" style="fill:#000000;fill-opacity:1;fill-rule:nonzero;stroke:none">
            <path d="m 265.72,307.29 0,-0.93 5.56,0 0,0.93 z m 7.44,3.71 0,-1.18 q 0.59,-1.38 2.38,-3 l 0.77,-0.69 q 1.49,-1.34 1.49,-2.67 0,-0.85 -0.51,-1.33 -0.5,-0.49 -1.39,-0.49 -1.06,0 -2.48,0.82 l 0,-1.19 q 1.34,-0.64 2.67,-0.64 1.42,0 2.28,0.77 0.86,0.76 0.86,2.03 0,0.9 -0.43,1.61 -0.44,0.7 -1.62,1.71 l -0.52,0.44 q -1.62,1.38 -1.87,2.63 l 4.39,0 0,1.18 z" id="path11732" />
          </g>
          
        </g>
        
      </g>
      <g transform="scale(1.1664,1.1664)" id="g11734">
        <clipPath id="clip33">
          <path d="m 0,0 0,467 580,0 0,-467 z" id="path11737" />
        </clipPath>
        <g clip-path="url(#clip33)" id="g11739">
          <g id="g11741" style="fill:none;stroke:#000000;stroke-width:2;stroke-linecap:butt;stroke-opacity:1">
            <path d="m 282.03,305.41 4,0" id="path11743" />
          </g>
          
        </g>
        
      </g>
      <g transform="scale(1.1664,1.1664)" id="g11745">
        <clipPath id="clip34">
          <path d="m 0,0 0,467 580,0 0,-467 z" id="path11748" />
        </clipPath>
        <g clip-path="url(#clip34)" id="g11750">
          <g id="g11752" style="fill:#000000;fill-opacity:1;fill-rule:nonzero;stroke:none">
            <path d="m 276.39,254.25 q -1.57,0 -2.53,-1.47 -0.97,-1.47 -0.97,-3.85 0,-2.39 0.97,-3.84 0.98,-1.46 2.57,-1.46 1.59,0 2.57,1.46 0.97,1.45 0.97,3.82 0,2.44 -0.97,3.89 -0.98,1.45 -2.61,1.45 z m 0.01,-1.01 q 2.14,0 2.14,-4.35 0,-4.25 -2.11,-4.25 -2.11,0 -2.11,4.29 0,4.31 2.08,4.31 z" id="path11754" />
          </g>
          
        </g>
        
      </g>
      <g transform="scale(1.1664,1.1664)" id="g11756">
        <clipPath id="clip35">
          <path d="m 0,0 0,467 580,0 0,-467 z" id="path11759" />
        </clipPath>
        <g clip-path="url(#clip35)" id="g11761">
          <g id="g11763" style="fill:#000000;fill-opacity:1;fill-rule:nonzero;stroke:none">
            <path d="m 273.16,214 0,-1.18 q 0.59,-1.38 2.38,-3 l 0.77,-0.69 q 1.49,-1.34 1.49,-2.67 0,-0.85 -0.51,-1.33 -0.5,-0.49 -1.39,-0.49 -1.06,0 -2.48,0.82 l 0,-1.19 q 1.34,-0.64 2.67,-0.64 1.42,0 2.28,0.77 0.86,0.76 0.86,2.03 0,0.9 -0.43,1.61 -0.44,0.7 -1.62,1.71 l -0.52,0.44 q -1.62,1.38 -1.87,2.63 l 4.39,0 0,1.18 z" id="path11765" />
          </g>
          
        </g>
        
      </g>
      <g transform="scale(1.1664,1.1664)" id="g11767">
        <clipPath id="clip36">
          <path d="m 0,0 0,467 580,0 0,-467 z" id="path11770" />
        </clipPath>
        <g clip-path="url(#clip36)" id="g11772">
          <g id="g11774" style="fill:none;stroke:#000000;stroke-width:2;stroke-linecap:butt;stroke-opacity:1">
            <path d="m 282.03,208.2 4,0" id="path11776" />
          </g>
          
        </g>
        
      </g>
      <g transform="scale(1.1664,1.1664)" id="g11778">
        <clipPath id="clip37">
          <path d="m 0,0 0,467 580,0 0,-467 z" id="path11781" />
        </clipPath>
        <g clip-path="url(#clip37)" id="g11783">
          <g id="g11785" style="fill:#000000;fill-opacity:1;fill-rule:nonzero;stroke:none">
            <path d="m 277.27,165 0,-2.86 -4.55,0 0,-1.02 4.55,-6.24 1.27,0 0,6.16 1.35,0 0,1.1 -1.35,0 0,2.86 z m -3.23,-3.96 3.32,0 0,-4.5 z" id="path11787" />
          </g>
          
        </g>
        
      </g>
      <g transform="scale(1.1664,1.1664)" id="g11789">
        <clipPath id="clip38">
          <path d="m 0,0 0,467 580,0 0,-467 z" id="path11792" />
        </clipPath>
        <g clip-path="url(#clip38)" id="g11794">
          <g id="g11796" style="fill:none;stroke:#000000;stroke-width:2;stroke-linecap:butt;stroke-opacity:1">
            <path d="m 282.03,159.6 4,0" id="path11798" />
          </g>
          
        </g>
        
      </g>
      <g transform="scale(1.1664,1.1664)" id="g11800">
        <clipPath id="clip39">
          <path d="m 0,0 0,467 580,0 0,-467 z" id="path11803" />
        </clipPath>
        <g clip-path="url(#clip39)" id="g11805">
          <g id="g11807" style="fill:#000000;fill-opacity:1;fill-rule:nonzero;stroke:none">
            <path d="m 274.41,110.76 q 0.96,-1.25 2.42,-1.25 1.33,0 2.17,0.87 0.85,0.88 0.85,2.26 0,1.58 -0.95,2.59 -0.95,1.02 -2.4,1.02 -1.68,0 -2.62,-1.34 -0.94,-1.35 -0.94,-3.74 0,-2.63 1.08,-4.09 1.08,-1.46 3.05,-1.46 0.9,0 2.26,0.39 l 0,1.17 q -1.43,-0.55 -2.34,-0.55 -2.58,0 -2.58,4.13 z m 4.08,2.18 q 0,-1.15 -0.51,-1.81 -0.52,-0.65 -1.43,-0.65 -0.86,0 -1.47,0.57 -0.62,0.57 -0.62,1.38 0,1.27 0.59,2.04 0.58,0.77 1.54,0.77 0.87,0 1.39,-0.62 0.51,-0.63 0.51,-1.68 z" id="path11809" />
          </g>
          
        </g>
        
      </g>
      <g transform="scale(1.1664,1.1664)" id="g11811">
        <clipPath id="clip40">
          <path d="m 0,0 0,467 580,0 0,-467 z" id="path11814" />
        </clipPath>
        <g clip-path="url(#clip40)" id="g11816">
          <g id="g11818" style="fill:none;stroke:#000000;stroke-width:2;stroke-linecap:butt;stroke-opacity:1">
            <path d="m 282.03,111 4,0" id="path11820" />
          </g>
          
        </g>
        
      </g>
      <g transform="scale(1.1664,1.1664)" id="g11822">
        <clipPath id="clip41">
          <path d="m 0,0 0,467 580,0 0,-467 z" id="path11825" />
        </clipPath>
        <g clip-path="url(#clip41)" id="g11827">
          <g id="g11829" style="fill:#000000;fill-opacity:1;fill-rule:nonzero;stroke:none">
            <path d="m 275.22,62.49 q -1.48,-1.032 -1.48,-2.283 0,-1.148 0.84,-1.866 0.84,-0.718 2.19,-0.718 1.25,0 2.03,0.608 0.77,0.609 0.77,1.58 0,1.469 -1.88,2.679 2.29,1.121 2.29,2.892 0,1.271 -0.96,2.071 -0.96,0.8 -2.48,0.8 -1.49,0 -2.41,-0.755 -0.92,-0.756 -0.92,-1.986 0,-1.819 2.01,-3.022 z m 1.72,-0.424 q 1.41,-0.929 1.41,-2.071 0,-0.608 -0.47,-0.981 -0.47,-0.372 -1.25,-0.372 -0.74,0 -1.21,0.365 -0.46,0.366 -0.46,0.947 0,0.567 0.42,1.015 0.42,0.448 1.56,1.097 z m -0.99,0.971 q -0.81,0.629 -1.1,1.097 -0.29,0.469 -0.29,1.166 0,0.868 0.56,1.405 0.56,0.536 1.47,0.536 0.89,0 1.44,-0.458 0.56,-0.458 0.56,-1.189 0,-0.588 -0.35,-0.995 -0.34,-0.407 -1.33,-0.995 z" id="path11831" />
          </g>
          
        </g>
        
      </g>
      <g transform="scale(1.1664,1.1664)" id="g11833">
        <clipPath id="clip42">
          <path d="m 0,0 0,467 580,0 0,-467 z" id="path11836" />
        </clipPath>
        <g clip-path="url(#clip42)" id="g11838">
          <g id="g11840" style="fill:none;stroke:#000000;stroke-width:2;stroke-linecap:butt;stroke-opacity:1">
            <path d="m 282.03,62.393 4,0" id="path11842" />
          </g>
          
        </g>
        
      </g>
      <g transform="scale(1.1664,1.1664)" id="g11844">
        <clipPath id="clip43">
          <path d="m 0,0 0,467 580,0 0,-467 z" id="path11847" />
        </clipPath>
        <g clip-path="url(#clip43)" id="g11849">
          <g id="g11851" style="fill:#000000;fill-opacity:1;fill-rule:nonzero;stroke:none">
            <path d="m 267.11,19 0,-1.012 2.02,0 0,-7.984 -2.02,0.506 0,-1.0393 3.37,-0.8408 0,9.3581 2.03,0 0,1.012 z m 11.13,0.253 q -1.56,0 -2.53,-1.473 -0.97,-1.473 -0.97,-3.845 0,-2.393 0.98,-3.849 0.97,-1.4561 2.56,-1.4561 1.6,0 2.57,1.4561 0.97,1.456 0.97,3.828 0,2.434 -0.97,3.886 -0.97,1.453 -2.61,1.453 z m 0.01,-1.012 q 2.14,0 2.14,-4.347 0,-4.2524 -2.11,-4.2524 -2.1,0 -2.1,4.2934 0,4.306 2.07,4.306 z" id="path11853" />
          </g>
          
        </g>
        
      </g>
      <g transform="scale(1.1664,1.1664)" id="g11855">
        <clipPath id="clip44">
          <path d="m 0,0 0,467 580,0 0,-467 z" id="path11858" />
        </clipPath>
        <g clip-path="url(#clip44)" id="g11860">
          <g id="g11862" style="fill:none;stroke:#000000;stroke-width:2;stroke-linecap:butt;stroke-opacity:1">
            <path d="m 282.03,13.79 4,0" id="path11864" />
          </g>
          
        </g>
        
      </g>
      <g id="misc" />
      <g id="layer0">
        <g transform="scale(1.1664,1.1664)" id="g11868">
          <clipPath id="clip45">
            <path d="m 0,0 0,467 580,0 0,-467 z" id="path11871" />
          </clipPath>
          <g clip-path="url(#clip45)" id="g11873">
            <g id="g11875" style="fill:none;stroke:#cc0000;stroke-width:2.5;stroke-linecap:round;stroke-linejoin:round;stroke-opacity:1">
              <path d="m 245.54,474.53 0.28,-5.17 0.28,-5.11 0.29,-5.06 0.56,-9.96 0.57,-9.76 0.57,-9.55 0.56,-9.35 0.57,-9.15 0.57,-8.95 0.56,-8.75 0.57,-8.56 0.56,-8.36 0.57,-8.17 0.57,-7.98 0.56,-7.79 0.57,-7.61 0.57,-7.42 0.56,-7.24 0.57,-7.06 0.57,-6.88 0.56,-6.7 0.57,-6.53 0.56,-6.35 0.57,-6.18 0.57,-6.02 0.56,-5.84 0.57,-5.68 0.57,-5.52 0.56,-5.35 0.57,-5.19 1.13,-9.91 1.14,-9.29 1.13,-8.69 1.13,-8.1 1.13,-7.52 1.14,-6.96 1.13,-6.41 1.13,-5.88 1.14,-5.37 2.26,-9.25 2.27,-7.35 4.53,-9.53 0.56,-0.74 0.57,-0.64 1.13,-1.02 0.57,-0.38 0.57,-0.29 0.56,-0.2 0.57,-0.12 0.57,-0.04 0.56,0.04 0.57,0.12 0.56,0.19 1.14,0.6 1.13,0.89 1.13,1.14 1.14,1.4 2.26,3.49 4.53,9.34 2.27,5.61 2.26,6.07 2.27,6.43 2.26,6.67 2.27,6.78 2.27,6.77 2.26,6.66 2.27,6.41 2.26,6.06 2.27,5.58 4.53,9.27 2.27,3.45 2.26,2.5 0.57,0.46 0.56,0.39 1.14,0.58 0.56,0.18 0.57,0.1 0.57,0.03 0.56,-0.06 0.57,-0.14 0.57,-0.22 0.56,-0.3 0.57,-0.39 1.13,-1.06 1.13,-1.42 2.27,-4.01 2.27,-5.67 2.26,-7.44 2.27,-9.34 1.13,-5.42 1.13,-5.93 1.13,-6.47 1.14,-7.01 1.13,-7.58 1.13,-8.15 1.14,-8.74 1.13,-9.35 1.13,-9.97 0.57,-5.22 0.56,-5.39 0.57,-5.54 0.57,-5.71 0.56,-5.88 0.57,-6.05 0.57,-6.21 0.56,-6.39 0.57,-6.56 0.57,-6.736 0.56,-6.913 0.57,-7.093 0.56,-7.274 0.57,-7.457 0.57,-7.642 0.56,-7.828 0.57,-8.017 0.57,-8.208 0.56,-8.399 0.57,-8.593 0.57,-8.79 0.56,-8.9866 0.57,-9.1865" id="path11877" />
            </g>
            
          </g>
          
        </g>
        
        <g transform="scale(1.1664,1.1664)" id="g11879">
          <clipPath id="clip46">
            <path d="m 0,0 0,467 580,0 0,-467 z" id="path11882" />
          </clipPath>
          <g clip-path="url(#clip46)" id="g11884">
            <g id="g11886" style="fill:none;stroke:#0033cc;stroke-width:2.5;stroke-linecap:round;stroke-linejoin:round;stroke-opacity:1">
              <path d="m 18.125,478.25 1.133,-6.93 1.133,-6.83 1.132,-6.74 1.133,-6.64 1.133,-6.56 1.133,-6.46 1.133,-6.37 1.133,-6.28 1.132,-6.19 1.133,-6.1 1.133,-6.02 1.133,-5.92 1.133,-5.84 1.132,-5.75 1.133,-5.66 1.133,-5.58 1.133,-5.49 1.133,-5.41 1.132,-5.33 1.133,-5.24 1.133,-5.15 1.133,-5.08 2.265,-9.9 2.266,-9.58 2.266,-9.25 2.265,-8.95 2.266,-8.63 2.266,-8.32 2.265,-8.02 2.266,-7.73 2.266,-7.43 2.265,-7.14 2.266,-6.86 2.265,-6.58 2.266,-6.3 2.266,-6.03 2.265,-5.76 2.266,-5.5 2.265,-5.24 4.532,-9.72 4.531,-8.74 4.531,-7.8 4.532,-6.88 4.532,-6.01 4.53,-5.17 4.53,-4.36 4.53,-3.58 4.53,-2.86 4.54,-2.15 4.53,-1.48 4.53,-0.85 4.53,-0.26 4.53,0.31 4.53,0.83 4.53,1.32 4.53,1.78 4.53,2.2 4.54,2.59 4.53,2.93 4.53,3.26 4.53,3.54 4.53,3.78 4.53,3.99 4.53,4.17 4.54,4.31 4.53,4.42 4.53,4.49 4.53,4.52 4.53,4.53 4.53,4.49 4.53,4.42 4.53,4.32 4.53,4.18 4.54,4.01 4.53,3.8 4.53,3.55 4.53,3.28 4.53,2.96 4.53,2.61 4.53,2.23 4.54,1.81 4.53,1.36 4.53,0.87 4.53,0.34 4.53,-0.21 4.53,-0.81 4.53,-1.44 4.53,-2.1 4.53,-2.8 4.54,-3.54 4.53,-4.3 4.53,-5.11 4.53,-5.95 4.53,-6.82 4.53,-7.73 4.53,-8.67 4.54,-9.65 2.26,-5.21 2.27,-5.46 2.26,-5.72 2.27,-5.99 2.26,-6.27 2.27,-6.53 2.26,-6.82 2.27,-7.1 2.27,-7.39 2.26,-7.68 2.27,-7.98 2.26,-8.28 2.27,-8.59 2.26,-8.9 2.27,-9.213 2.26,-9.532 2.27,-9.855 1.13,-5.051 1.14,-5.133 1.13,-5.216 1.13,-5.299 1.13,-5.384 1.14,-5.468 1.13,-5.554 1.13,-5.64 1.14,-5.725 1.13,-5.813 1.13,-5.9 1.13,-5.9886 1.14,-6.0767 1.13,-6.1658" id="path11888" />
            </g>
            
          </g>
          
        </g>
        
        <g transform="scale(1.1664,1.1664)" id="g11890">
          <clipPath id="clip47">
            <path d="m 0,0 0,467 580,0 0,-467 z" id="path11893" />
          </clipPath>
          <g clip-path="url(#clip47)" id="g11895">
            <g id="g11897" style="fill:none;stroke:#669900;stroke-width:2.5;stroke-linecap:round;stroke-linejoin:round;stroke-opacity:1">
              <path d="m 115.55,476.93 1.13,-6.91 1.13,-6.82 1.14,-6.72 1.13,-6.62 1.13,-6.54 1.13,-6.45 1.14,-6.35 1.13,-6.26 1.13,-6.18 1.14,-6.08 1.13,-6 1.13,-5.91 1.13,-5.82 1.14,-5.73 1.13,-5.65 1.13,-5.56 1.13,-5.48 1.14,-5.39 1.13,-5.31 1.13,-5.22 1.14,-5.14 1.13,-5.06 2.26,-9.87 2.27,-9.55 2.27,-9.23 2.26,-8.91 2.27,-8.6 2.26,-8.3 2.27,-7.99 2.26,-7.7 2.27,-7.4 2.26,-7.12 2.27,-6.83 2.27,-6.55 2.26,-6.27 2.27,-6 2.26,-5.74 2.27,-5.48 2.26,-5.21 2.27,-4.97 4.53,-9.18 4.53,-8.22 4.53,-7.29 4.54,-6.4 4.53,-5.54 4.53,-4.72 4.53,-3.93 4.53,-3.18 4.53,-2.47 4.53,-1.78 4.53,-1.13 4.53,-0.53 4.54,0.06 4.53,0.6 4.53,1.1 4.53,1.58 4.53,2.01 4.53,2.42 4.53,2.78 4.54,3.12 4.53,3.41 4.53,3.68 4.53,3.9 4.53,4.09 4.53,4.26 4.53,4.37 4.53,4.46 4.53,4.51 4.54,4.53 4.53,4.51 4.53,4.46 4.53,4.37 4.53,4.25 4.53,4.09 4.53,3.9 4.54,3.67 4.53,3.4 4.53,3.11 4.53,2.78 4.53,2.41 4.53,2 4.53,1.57 4.53,1.09 4.53,0.58 4.54,0.05 4.53,-0.54 4.53,-1.15 4.53,-1.8 4.53,-2.48 4.53,-3.19 4.53,-3.96 4.54,-4.74 4.53,-5.56 4.53,-6.42 4.53,-7.31 4.53,-8.24 4.53,-9.21 2.27,-4.97 2.26,-5.23 2.27,-5.49 2.26,-5.75 2.27,-6.02 2.26,-6.28 2.27,-6.57 2.27,-6.84 2.26,-7.13 2.27,-7.42 2.26,-7.71 2.27,-8.01 2.26,-8.31 2.27,-8.61 2.27,-8.931 2.26,-9.243 2.27,-9.563 2.26,-9.886 1.14,-5.066 1.13,-5.149 1.13,-5.231 1.13,-5.316 1.14,-5.4 1.13,-5.484 1.13,-5.57 1.14,-5.656 1.13,-5.742 1.13,-5.83 1.13,-5.9166 1.14,-6.0049 1.13,-6.0936 1.13,-6.1828" id="path11899" />
            </g>
            
          </g>
          
        </g>
        
        <g transform="scale(1.1664,1.1664)" id="g11901">
          <clipPath id="clip48">
            <path d="m 0,0 0,467 580,0 0,-467 z" id="path11904" />
          </clipPath>
          <g clip-path="url(#clip48)" id="g11906">
            <g id="g11908" style="fill:none;stroke:#000000;stroke-width:2;stroke-linecap:butt;stroke-linejoin:round;stroke-opacity:1;stroke-dasharray:6, 4">
              <path d="m 286.03,159.6 -48.6,0" id="path11910" />
            </g>
            
          </g>
          
        </g>
        
        <g transform="scale(1.1664,1.1664)" id="g11912">
          <clipPath id="clip49">
            <path d="m 0,0 0,467 580,0 0,-467 z" id="path11915" />
          </clipPath>
          <g clip-path="url(#clip49)" id="g11917">
            <g id="g11919" style="fill:none;stroke:#000000;stroke-width:2;stroke-linecap:round;stroke-linejoin:round;stroke-opacity:1">
              <path d="m 257.23,159.6 4.5,-5.5" id="path11921" />
            </g>
            
          </g>
          
        </g>
        
        <g transform="scale(1.1664,1.1664)" id="g11923">
          <clipPath id="clip50">
            <path d="m 0,0 0,467 580,0 0,-467 z" id="path11926" />
          </clipPath>
          <g clip-path="url(#clip50)" id="g11928">
            <g id="g11930" style="fill:none;stroke:#000000;stroke-width:2;stroke-linecap:round;stroke-linejoin:round;stroke-opacity:1">
              <path d="m 257.23,159.6 4.5,5.5" id="path11932" />
            </g>
            
          </g>
          
        </g>
        
        <g transform="scale(1.1664,1.1664)" id="g11934">
          <clipPath id="clip51">
            <path d="m 0,0 0,467 580,0 0,-467 z" id="path11937" />
          </clipPath>
          <g clip-path="url(#clip51)" id="g11939">
            <g id="g11941" style="fill:none;stroke:#000000;stroke-width:2;stroke-linecap:butt;stroke-linejoin:round;stroke-opacity:1;stroke-dasharray:6, 4">
              <path d="m 237.43,159.6 -97.21,0" id="path11943" />
            </g>
            
          </g>
          
        </g>
        
        <g transform="scale(1.1664,1.1664)" id="g11945">
          <clipPath id="clip52">
            <path d="m 0,0 0,467 580,0 0,-467 z" id="path11948" />
          </clipPath>
          <g clip-path="url(#clip52)" id="g11950">
            <g id="g11952" style="fill:none;stroke:#000000;stroke-width:2;stroke-linecap:round;stroke-linejoin:round;stroke-opacity:1">
              <path d="m 184.33,159.6 4.5,-5.5" id="path11954" />
            </g>
            
          </g>
          
        </g>
        
        <g transform="scale(1.1664,1.1664)" id="g11956">
          <clipPath id="clip53">
            <path d="m 0,0 0,467 580,0 0,-467 z" id="path11959" />
          </clipPath>
          <g clip-path="url(#clip53)" id="g11961">
            <g id="g11963" style="fill:none;stroke:#000000;stroke-width:2;stroke-linecap:round;stroke-linejoin:round;stroke-opacity:1">
              <path d="m 184.33,159.6 4.5,5.5" id="path11965" />
            </g>
            
          </g>
          
        </g>
        
        <g transform="matrix(33.243,0,0,33.243,307.40287,442.37839)" id="g11967">
          <clipPath id="clip54">
            <path d="m -8.7895,-21.75 0,24.5789 30.5265,0 0,-24.5789 z" id="path11970" />
          </clipPath>
          <g clip-path="url(#clip54)" id="g11972">
            <g id="g11974" style="fill:#000000;fill-opacity:1;fill-rule:nonzero;stroke:none">
              <path d="M 0.48438,-0.375 0.39062,0 Q 0.35938,0.09375 0.28125,0.15625 0.21875,0.20312 0.15625,0.20312 0.09375,0.20312 0.0625,0.15625 0.046875,0.14062 0.046875,0.125 q 0,-0.0625 0.046875,-0.0625 0,-0.015625 0.01563,-0.015625 0.03124,0 0.03124,0.03125 0,0 0,0.015625 0,0.01563 -0.01562,0.03125 Q 0.10938,0.14062 0.078125,0.14062 0.09375,0.1875 0.15625,0.1875 q 0.0625,0 0.10937,-0.0625 0.04688,-0.0625 0.0625,-0.140625 0,-0.015625 0,-0.015625 -0.04687,0.046875 -0.09374,0.046875 -0.07813,0 -0.10938,-0.0625 -0.01562,-0.03125 -0.01562,-0.062505 0,-0.04687 0.04687,-0.20312 0,0 0.01563,0 0.01562,-0.04688 0.01562,-0.07812 0,-0.03126 -0.03125,-0.03126 -0.04687,0 -0.09375,0.09376 l 0,0 q 0,0.01562 0,0.03124 -0.015625,0.01563 -0.015625,0.01563 -0.015625,0 -0.015625,0 0,-0.03125 0.015625,-0.0625 0.046875,-0.09375 0.109375,-0.09375 0.0625,0 0.07813,0.04688 Q 0.25,-0.375 0.25,-0.35938 q 0,0.01563 -0.03125,0.07813 -0.04687,0.125 -0.04687,0.1875 0,0.078125 0.0625,0.078125 0.0625,0 0.09374,-0.0625 0.01563,-0.015625 0.01563,-0.015625 l 0.04687,-0.1875 Q 0.40625,-0.3125 0.40625,-0.35938 0.42188,-0.40625 0.42188,-0.40625 0.4375,-0.4375 0.46875,-0.4375 q 0.01563,0.01562 0.01563,0.03125 0,0.01563 0,0.03125 z" id="path11976" />
            </g>
            
          </g>
          
        </g>
        
        <g transform="matrix(33.243,0,0,33.243,332.93287,442.37839)" id="g11978">
          <clipPath id="clip55">
            <path d="m -9.5575,-21.75 0,24.5789 30.5265,0 0,-24.5789 z" id="path11981" />
          </clipPath>
          <g clip-path="url(#clip55)" id="g11983">
            <g id="g11985" style="fill:#000000;fill-opacity:1;fill-rule:nonzero;stroke:none">
              <path d="m 0.6875,-0.32812 -0.59375,0 q -0.03125,0 -0.03125,-0.01563 0,-0.01563 0.03125,-0.01563 l 0.59375,0 q 0.03125,0 0.03125,0.01563 0,0.01563 -0.03125,0.01563 z m 0,0.1875 -0.59375,0 q -0.03125,0 -0.03125,-0.01563 0,-0.01563 0.03125,-0.01563 l 0.59375,0 q 0.03125,0 0.03125,0.01563 0,0.01563 -0.03125,0.01563 z" id="path11987" />
            </g>
            
          </g>
          
        </g>
        
        <g transform="matrix(33.243,0,0,33.243,368.01787,442.37839)" id="g11989">
          <clipPath id="clip56">
            <path d="m -10.613,-21.75 0,24.5789 30.526,0 0,-24.5789 z" id="path11992" />
          </clipPath>
          <g clip-path="url(#clip56)" id="g11994">
            <g id="g11996" style="fill:#000000;fill-opacity:1;fill-rule:nonzero;stroke:none">
              <path d="m 0.35938,-0.40625 0,0 -0.04688,0.328125 q -0.01562,0.0625 -0.04688,0.140625 0,0.03125 -0.01562,0.04688 -0.03125,0.07812 -0.09375,0.09374 0,0 -0.01563,0 -0.04687,0 -0.07812,-0.03124 -0.015625,-0.01563 -0.015625,-0.03126 0,-0.04687 0.046875,-0.062495 0,0 0.01563,0 0.03124,0 0.03124,0.015625 0,0.01563 0,0.01563 0,0.03124 -0.03124,0.04687 0,0 -0.01563,0.01563 0.01563,0.01562 0.04687,0.01562 0.04688,0 0.0625,-0.109375 Q 0.21875,0.0625 0.21875,0.03125 l 0,-0.03125 0.07813,-0.40625 -0.0625,0 q -0.03126,0 -0.03126,0 l 0,0 0,0 q 0,-0.01563 0.01563,-0.03125 l 0,0 0.01563,0 0.07812,0 Q 0.32812,-0.5625 0.34375,-0.59375 0.375,-0.6875 0.4375,-0.70312 q 0.01562,0 0.03125,0 0.04687,0 0.07813,0.03124 l 0,0 q 0,0.01563 0,0.03126 0,0.04687 -0.03126,0.0625 0,0 -0.01562,0 -0.03125,0 -0.03125,-0.01563 -0.01563,-0.01563 -0.01563,-0.01563 0,-0.03124 0.03126,-0.04687 0.01562,0 0.03124,-0.01563 Q 0.5,-0.6875 0.46875,-0.6875 q -0.03125,0 -0.04687,0.03125 -0.01563,0.01563 -0.03126,0.10937 L 0.375,-0.4375 l 0.07812,0 q 0.03126,0 0.03126,0.01562 0,0.01563 -0.01563,0.01563 l 0,0 -0.01563,0 -0.09374,0 z" id="path11998" />
            </g>
            
          </g>
          
        </g>
        
        <g transform="matrix(33.243,0,0,33.243,384.29287,442.37839)" id="g12000">
          <clipPath id="clip57">
            <path d="m -11.103,-21.75 0,24.5789 30.527,0 0,-24.5789 z" id="path12003" />
          </clipPath>
          <g clip-path="url(#clip57)" id="g12005">
            <g id="g12007" style="fill:#000000;fill-opacity:1;fill-rule:nonzero;stroke:none">
              <path d="m 0.32812,0.23438 0,0 q 0,0.01562 0,0.01562 Q 0.3125,0.25 0.26562,0.20312 0.20312,0.14062 0.17188,0.0625 0.09375,-0.078125 0.09375,-0.25 q 0,-0.17188 0.0625,-0.3125 0.0625,-0.10938 0.14063,-0.17188 Q 0.3125,-0.75 0.32812,-0.75 q 0,0 0,0.01562 0,0 -0.01562,0.01563 -0.15625,0.15625 -0.15625,0.46875 0,0.3125 0.15625,0.46875 0.01562,0.01563 0.01562,0.01563 z" id="path12009" />
            </g>
            
          </g>
          
        </g>
        
        <g transform="matrix(33.243,0,0,33.243,397.22287,442.37839)" id="g12011">
          <clipPath id="clip58">
            <path d="m -11.492,-21.75 0,24.5789 30.527,0 0,-24.5789 z" id="path12014" />
          </clipPath>
          <g clip-path="url(#clip58)" id="g12016">
            <g id="g12018" style="fill:#000000;fill-opacity:1;fill-rule:nonzero;stroke:none">
              <path d="m 0.32812,-0.29688 -0.03124,0.125 q -0.01563,0.07813 -0.01563,0.093755 0,0.046875 0.03125,0.0625 0.01562,0 0.03125,0 0.04687,0 0.07813,-0.046875 0.03124,-0.03125 0.04687,-0.07812 0,-0.01563 0.01563,-0.01563 0.01562,0 0.01562,0.01563 0,0.01562 -0.03125,0.062495 -0.0625,0.09375 -0.125,0.09375 -0.07813,0 -0.10937,-0.0625 0,-0.015625 0,-0.015625 Q 0.20312,-0.015625 0.15625,0 0.14062,0.015625 0.125,0.015625 q -0.0625,0 -0.09375,-0.046875 0,0 0,-0.03125 0,-0.03125 0.03125,-0.04688 0.015625,0 0.015625,0 0.031255,0 0.046875,0.01563 0,0.015625 0,0.015625 0,0.03125 -0.03125,0.046875 -0.015625,0 -0.015625,0 0.015625,0.015625 0.046875,0.015625 0.04688,0 0.07812,-0.0625 0.01563,-0.015625 0.01563,-0.031255 0.04687,-0.20312 0.04687,-0.25 0,-0.0625 -0.04687,-0.0625 -0.04687,0 -0.09375,0.0625 l 0,0 q 0,0 0,0 -0.01562,0.01563 -0.03125,0.04688 0,0 0,0.01562 l -0.015625,0.01563 q 0,0 0,0 -0.015625,0 -0.015625,0 0,-0.03125 0.03125,-0.07813 0.04687,-0.07812 0.125,-0.07812 0.07813,0 0.10937,0.07812 0.03126,-0.0625 0.07813,-0.07812 0.01563,0 0.03125,0 0.0625,0 0.07812,0.03125 0.01563,0.01563 0.01563,0.03125 0,0.04688 -0.04687,0.04688 0,0.01562 -0.01563,0.01562 -0.03125,0 -0.03125,-0.03125 0,0 0,-0.01563 0,-0.03124 0.03125,-0.04687 0,0 0.01563,0 -0.01563,-0.01563 -0.04688,-0.01563 -0.07812,0 -0.09375,0.10938 -0.01563,0 -0.01563,0.01562 z" id="path12020" />
            </g>
            
          </g>
          
        </g>
        
        <g transform="matrix(33.243,0,0,33.243,416.22787,442.37839)" id="g12022">
          <clipPath id="clip59">
            <path d="m -12.063,-21.75 0,24.5789 30.526,0 0,-24.5789 z" id="path12025" />
          </clipPath>
          <g clip-path="url(#clip59)" id="g12027">
            <g id="g12029" style="fill:#000000;fill-opacity:1;fill-rule:nonzero;stroke:none">
              <path d="m 0.28125,-0.25 0,0 q 0,0.171875 -0.0625,0.3125 Q 0.17188,0.17188 0.09375,0.23438 0.078125,0.25 0.0625,0.25 q 0,0 0,-0.01562 0,0 0,-0.01563 Q 0.23438,0.0625 0.23438,-0.25 q 0,-0.3125 -0.156255,-0.46875 l 0,0 Q 0.0625,-0.73438 0.0625,-0.73438 q 0,-0.01562 0,-0.01562 0.015625,0 0.0625,0.04688 0.0625,0.0625 0.09375,0.14062 0.0625,0.14062 0.0625,0.3125 z" id="path12031" />
            </g>
            
          </g>
          
        </g>
        
        <g transform="matrix(33.243,0,0,33.243,21.094362,156.69694)" id="g12033">
          <clipPath id="clip60">
            <path d="m -2.6316,-7.3176 0,24.5786 30.5266,0 0,-24.5786 z" id="path12036" />
          </clipPath>
          <g clip-path="url(#clip60)" id="g12038">
            <g id="g12040" style="fill:#000000;fill-opacity:1;fill-rule:nonzero;stroke:none">
              <path d="M 0.48438,-0.375 0.39062,0 Q 0.35938,0.09375 0.28125,0.15625 0.21875,0.20312 0.15625,0.20312 0.09375,0.20312 0.0625,0.15625 0.046875,0.14062 0.046875,0.125 q 0,-0.0625 0.046875,-0.0625 0,-0.015625 0.01563,-0.015625 0.03124,0 0.03124,0.03125 0,0 0,0.015625 0,0.01563 -0.01562,0.03125 Q 0.10938,0.14062 0.078125,0.14062 0.09375,0.1875 0.15625,0.1875 q 0.0625,0 0.10937,-0.0625 0.04688,-0.0625 0.0625,-0.140625 0,-0.015625 0,-0.015625 -0.04687,0.046875 -0.09374,0.046875 -0.07813,0 -0.10938,-0.0625 -0.01562,-0.03125 -0.01562,-0.062505 0,-0.04687 0.04687,-0.20312 0,0 0.01563,0 0.01562,-0.04688 0.01562,-0.07812 0,-0.03126 -0.03125,-0.03126 -0.04687,0 -0.09375,0.09376 l 0,0 q 0,0.01562 0,0.03124 -0.015625,0.01563 -0.015625,0.01563 -0.015625,0 -0.015625,0 0,-0.03125 0.015625,-0.0625 0.046875,-0.09375 0.109375,-0.09375 0.0625,0 0.07813,0.04688 Q 0.25,-0.375 0.25,-0.35938 q 0,0.01563 -0.03125,0.07813 -0.04687,0.125 -0.04687,0.1875 0,0.078125 0.0625,0.078125 0.0625,0 0.09374,-0.0625 0.01563,-0.015625 0.01563,-0.015625 l 0.04687,-0.1875 Q 0.40625,-0.3125 0.40625,-0.35938 0.42188,-0.40625 0.42188,-0.40625 0.4375,-0.4375 0.46875,-0.4375 q 0.01563,0.01562 0.01563,0.03125 0,0.01563 0,0.03125 z" id="path12042" />
            </g>
            
          </g>
          
        </g>
        
        <g transform="matrix(33.243,0,0,33.243,46.627362,156.69694)" id="g12044">
          <clipPath id="clip61">
            <path d="m -3.3996,-7.3176 0,24.5786 30.5266,0 0,-24.5786 z" id="path12047" />
          </clipPath>
          <g clip-path="url(#clip61)" id="g12049">
            <g id="g12051" style="fill:#000000;fill-opacity:1;fill-rule:nonzero;stroke:none">
              <path d="m 0.6875,-0.32812 -0.59375,0 q -0.03125,0 -0.03125,-0.01563 0,-0.01563 0.03125,-0.01563 l 0.59375,0 q 0.03125,0 0.03125,0.01563 0,0.01563 -0.03125,0.01563 z m 0,0.1875 -0.59375,0 q -0.03125,0 -0.03125,-0.01563 0,-0.01563 0.03125,-0.01563 l 0.59375,0 q 0.03125,0 0.03125,0.01563 0,0.01563 -0.03125,0.01563 z" id="path12053" />
            </g>
            
          </g>
          
        </g>
        
        <g transform="matrix(33.243,0,0,33.243,81.718363,156.69694)" id="g12055">
          <clipPath id="clip62">
            <path d="m -4.4552,-7.3176 0,24.5786 30.5262,0 0,-24.5786 z" id="path12058" />
          </clipPath>
          <g clip-path="url(#clip62)" id="g12060">
            <g id="g12062" style="fill:#000000;fill-opacity:1;fill-rule:nonzero;stroke:none">
              <path d="m 0.35938,-0.40625 0,0 -0.04688,0.328125 q -0.01562,0.0625 -0.04688,0.140625 0,0.03125 -0.01562,0.04688 -0.03125,0.07812 -0.09375,0.09374 0,0 -0.01563,0 -0.04687,0 -0.07812,-0.03124 -0.015625,-0.01563 -0.015625,-0.03126 0,-0.04687 0.046875,-0.062495 0,0 0.01563,0 0.03124,0 0.03124,0.015625 0,0.01563 0,0.01563 0,0.03124 -0.03124,0.04687 0,0 -0.01563,0.01563 0.01563,0.01562 0.04687,0.01562 0.04688,0 0.0625,-0.109375 Q 0.21875,0.0625 0.21875,0.03125 l 0,-0.03125 0.07813,-0.40625 -0.0625,0 q -0.03126,0 -0.03126,0 l 0,0 0,0 q 0,-0.01563 0.01563,-0.03125 l 0,0 0.01563,0 0.07812,0 Q 0.32812,-0.5625 0.34375,-0.59375 0.375,-0.6875 0.4375,-0.70312 q 0.01562,0 0.03125,0 0.04687,0 0.07813,0.03124 l 0,0 q 0,0.01563 0,0.03126 0,0.04687 -0.03126,0.0625 0,0 -0.01562,0 -0.03125,0 -0.03125,-0.01563 -0.01563,-0.01563 -0.01563,-0.01563 0,-0.03124 0.03126,-0.04687 0.01562,0 0.03124,-0.01563 Q 0.5,-0.6875 0.46875,-0.6875 q -0.03125,0 -0.04687,0.03125 -0.01563,0.01563 -0.03126,0.10937 L 0.375,-0.4375 l 0.07812,0 q 0.03126,0 0.03126,0.01562 0,0.01563 -0.01563,0.01563 l 0,0 -0.01563,0 -0.09374,0 z" id="path12064" />
            </g>
            
          </g>
          
        </g>
        
        <g transform="matrix(33.243,0,0,33.243,97.996363,129.77194)" id="g12066">
          <clipPath id="clip63">
            <path d="m -4.9448,-6.5076 0,24.5786 30.5268,0 0,-24.5786 z" id="path12069" />
          </clipPath>
          <g clip-path="url(#clip63)" id="g12071">
            <g id="g12073" style="fill:#000000;fill-opacity:1;fill-rule:nonzero;stroke:none">
              <path d="M 0.39062,1.1562 Q 0.26562,1.0469 0.21094,0.89062 0.15625,0.73438 0.15625,0.5625 q 0,-0.1875 0.05469,-0.34375 0.05468,-0.15625 0.17968,-0.25 0,-0.015625 0,-0.015625 l 0.01563,0 q 0,0 0.00781,0.007813 0.00782,0.007812 0.00782,0.007812 0,0 0,0 Q 0.35938,0.03125 0.32031,0.10156 0.28125,0.17188 0.26562,0.24219 0.25,0.3125 0.23438,0.39844 0.21875,0.48438 0.21875,0.5625 q 0,0.39062 0.20313,0.5781 0,0 0,0.0156 0,0 -0.00782,0 -0.00781,0 -0.00781,0 l -0.01563,0 q 0,0 0,0 z" id="path12075" />
            </g>
            
          </g>
          
        </g>
        
        <g transform="matrix(33.243,0,0,33.243,122.76136,134.21194)" id="g12077">
          <clipPath id="clip64">
            <path d="m -5.6898,-6.6411 0,24.5791 30.5268,0 0,-24.5791 z" id="path12080" />
          </clipPath>
          <g clip-path="url(#clip64)" id="g12082">
            <g id="g12084" style="fill:#000000;fill-opacity:1;fill-rule:nonzero;stroke:none">
              <path d="m 0.32812,-0.29688 -0.03124,0.125 q -0.01563,0.07813 -0.01563,0.093755 0,0.046875 0.03125,0.0625 0.01562,0 0.03125,0 0.04687,0 0.07813,-0.046875 0.03124,-0.03125 0.04687,-0.07812 0,-0.01563 0.01563,-0.01563 0.01562,0 0.01562,0.01563 0,0.01562 -0.03125,0.062495 -0.0625,0.09375 -0.125,0.09375 -0.07813,0 -0.10937,-0.0625 0,-0.015625 0,-0.015625 Q 0.20312,-0.015625 0.15625,0 0.14062,0.015625 0.125,0.015625 q -0.0625,0 -0.09375,-0.046875 0,0 0,-0.03125 0,-0.03125 0.03125,-0.04688 0.015625,0 0.015625,0 0.031255,0 0.046875,0.01563 0,0.015625 0,0.015625 0,0.03125 -0.03125,0.046875 -0.015625,0 -0.015625,0 0.015625,0.015625 0.046875,0.015625 0.04688,0 0.07812,-0.0625 0.01563,-0.015625 0.01563,-0.031255 0.04687,-0.20312 0.04687,-0.25 0,-0.0625 -0.04687,-0.0625 -0.04687,0 -0.09375,0.0625 l 0,0 q 0,0 0,0 -0.01562,0.01563 -0.03125,0.04688 0,0 0,0.01562 l -0.015625,0.01563 q 0,0 0,0 -0.015625,0 -0.015625,0 0,-0.03125 0.03125,-0.07813 0.04687,-0.07812 0.125,-0.07812 0.07813,0 0.10937,0.07812 0.03126,-0.0625 0.07813,-0.07812 0.01563,0 0.03125,0 0.0625,0 0.07812,0.03125 0.01563,0.01563 0.01563,0.03125 0,0.04688 -0.04687,0.04688 0,0.01562 -0.01563,0.01562 -0.03125,0 -0.03125,-0.03125 0,0 0,-0.01563 0,-0.03124 0.03125,-0.04687 0,0 0.01563,0 -0.01563,-0.01563 -0.04688,-0.01563 -0.07812,0 -0.09375,0.10938 -0.01563,0 -0.01563,0.01562 z" id="path12086" />
            </g>
            
          </g>
          
        </g>
        
        <g transform="matrix(33.243,0,0,33.243,-66.388638,-86.558056)" id="g12088">
          <clipPath id="clip65">
            <path d="m 0,0 0,24.579 30.526,0 0,-24.579 z" id="path12091" />
          </clipPath>
          <g clip-path="url(#clip65)" id="g12093">
            <g id="g12095" style="fill:#000000;fill-opacity:1;fill-rule:nonzero;stroke:none">
              <path d="m 5.6898,7.0476 0.5715,0 0,0.04 -0.5715,0 0,-0.04 z" id="path12097" />
            </g>
            
          </g>
          
        </g>
        
        <g transform="matrix(33.243,0,0,33.243,123.94636,179.51194)" id="g12099">
          <clipPath id="clip66">
            <path d="m -5.7256,-8.0035 0,24.5785 30.5266,0 0,-24.5785 z" id="path12102" />
          </clipPath>
          <g clip-path="url(#clip66)" id="g12104">
            <g id="g12106" style="fill:#000000;fill-opacity:1;fill-rule:nonzero;stroke:none">
              <path d="m 0.29688,-0.35938 0,0 q 0.09374,0.03126 0.14062,0.10938 0.01562,0.03125 0.01562,0.07812 0,0.07813 -0.0625,0.14063 -0.0625,0.046875 -0.14062,0.046875 -0.10938,0 -0.171875,-0.046875 -0.03125,-0.046875 -0.03125,-0.10937 0,-0.04688 0.03125,-0.04688 0.015625,0 0.015625,0 0.04687,0 0.0625,0.03125 0,0.01563 0,0.01563 0,0.04687 -0.03125,0.062495 -0.01562,0 -0.03125,0 0.03125,0.0625 0.125,0.0625 Q 0.23438,0 0.23438,0 0.3125,0 0.32812,-0.0625 q 0.03126,-0.04688 0.03126,-0.10938 0,-0.125 -0.07813,-0.15624 Q 0.25,-0.34375 0.23438,-0.34375 l -0.04688,0 q -0.01562,0 -0.01562,0 0,-0.01563 0.01562,-0.01563 0.01562,0 0.03125,0 0.04687,0 0.07813,-0.04687 l 0,0 0,0 0,0 0,0 0.01562,-0.01563 q 0.03125,-0.04687 0.03125,-0.10937 0,-0.09375 -0.07813,-0.10937 -0.01562,0 -0.03124,0 -0.0625,0 -0.10938,0.04687 -0.01562,0 -0.01562,0.01563 0.0625,0 0.0625,0.04687 0,0.03125 -0.03126,0.04687 -0.01562,0 -0.01562,0 -0.046875,0 -0.046875,-0.03124 l 0,0 0,0 q -0.015625,0 -0.015625,-0.01563 0,-0.0625 0.07812,-0.10937 0.04688,-0.03126 0.10938,-0.03126 0.09375,0 0.14062,0.0625 l 0,0 q 0.04688,0.03126 0.04688,0.07813 0,0.09375 -0.07812,0.14063 -0.03126,0.03124 -0.0625,0.03124 z" id="path12108" />
            </g>
            
          </g>
          
        </g>
        
        <g transform="matrix(33.243,0,0,33.243,153.13636,156.69694)" id="g12110">
          <clipPath id="clip67">
            <path d="m -6.6035,-7.3176 0,24.5786 30.5265,0 0,-24.5786 z" id="path12113" />
          </clipPath>
          <g clip-path="url(#clip67)" id="g12115">
            <g id="g12117" style="fill:#000000;fill-opacity:1;fill-rule:nonzero;stroke:none">
              <path d="m 0.40625,-0.23438 0,0.281255 q 0,0.03125 -0.01563,0.03125 -0.01562,0 -0.01562,-0.03125 l 0,-0.281255 -0.28125,0 q -0.03125,0 -0.03125,-0.01562 0,-0.01562 0.03125,-0.01562 l 0.28125,0 0,-0.28126 q 0,-0.03124 0.01562,-0.03124 0.01563,0 0.01563,0.03124 l 0,0.28126 0.28125,0 q 0.03125,0 0.03125,0.01562 0,0.01562 -0.03125,0.01562 l -0.28125,0 z" id="path12119" />
            </g>
            
          </g>
          
        </g>
        
        <g transform="matrix(33.243,0,0,33.243,186.37636,156.69694)" id="g12121">
          <clipPath id="clip68">
            <path d="m -7.6035,-7.3176 0,24.5786 30.5265,0 0,-24.5786 z" id="path12124" />
          </clipPath>
          <g clip-path="url(#clip68)" id="g12126">
            <g id="g12128" style="fill:#000000;fill-opacity:1;fill-rule:nonzero;stroke:none">
              <path d="m 0.45312,-0.17188 0,0 L 0.42188,0 0.046875,0 q 0,-0.03125 0.015625,-0.03125 l 0,0 L 0.25,-0.25 q 0.10938,-0.125 0.10938,-0.21875 0,-0.09375 -0.0625,-0.14063 l 0,0 0,0 q -0.03126,-0.03124 -0.07813,-0.03124 -0.0625,0 -0.10937,0.0625 -0.01563,0.01562 -0.01563,0.04687 0,0 0.01563,0 0.03124,0 0.04687,0.03125 l 0,0 q 0,0.01562 0,0.01562 0,0.04688 -0.04687,0.04688 0,0.01562 0,0.01562 -0.04688,0 -0.062505,-0.03124 0,-0.01563 0,-0.03126 0,-0.07812 0.062505,-0.125 0.04687,-0.0625 0.125,-0.0625 0.10937,0 0.17187,0.07813 0.03125,0.04687 0.04687,0.10937 0,0 0,0.01563 0,0.0625 -0.0625,0.14063 Q 0.35938,-0.29688 0.29688,-0.25 L 0.25,-0.1875 l -0.01562,0 -0.10938,0.109375 0.1875,0 q 0.07812,0 0.09375,0 0,-0.015625 0.01563,-0.093755 l 0.03124,0 z" id="path12130" />
            </g>
            
          </g>
          
        </g>
        
        <g transform="matrix(33.243,0,0,33.243,202.99636,129.77194)" id="g12132">
          <clipPath id="clip69">
            <path d="m -8.1035,-6.5076 0,24.5786 30.5265,0 0,-24.5786 z" id="path12135" />
          </clipPath>
          <g clip-path="url(#clip69)" id="g12137">
            <g id="g12139" style="fill:#000000;fill-opacity:1;fill-rule:nonzero;stroke:none">
              <path d="m 0.046875,1.1562 q 0,0 0,0 0,-0.0156 0,-0.0156 Q 0.10938,1.0625 0.15625,0.96875 0.20312,0.875 0.21875,0.77344 0.23438,0.67188 0.23438,0.5625 q 0,-0.39062 -0.187505,-0.59375 0,0 0,0 0,-0.015625 0,-0.015625 l 0.015625,0 q 0,0 0,0.015625 0.125,0.09375 0.1875,0.25 Q 0.3125,0.375 0.3125,0.5625 0.3125,0.73438 0.25,0.89062 0.1875,1.0469 0.0625,1.1562 q 0,0 0,0 l -0.015625,0 z" id="path12141" />
            </g>
            
          </g>
          
        </g>
        
        <g transform="matrix(33.243,0,0,33.243,516.38372,254.78186)" id="g12143">
          <clipPath id="clip70">
            <path d="m -23.316,-11.847 0,24.579 30.5265,0 0,-24.579 z" id="path12146" />
          </clipPath>
          <g clip-path="url(#clip70)" id="g12148">
            <g id="g12150" style="fill:#000000;fill-opacity:1;fill-rule:nonzero;stroke:none">
              <path d="M 0.48438,-0.375 0.39062,0 Q 0.35938,0.09375 0.28125,0.15625 0.21875,0.20312 0.15625,0.20312 0.09375,0.20312 0.0625,0.15625 0.046875,0.14062 0.046875,0.125 q 0,-0.0625 0.046875,-0.0625 0,-0.015625 0.01563,-0.015625 0.03124,0 0.03124,0.03125 0,0 0,0.015625 0,0.01563 -0.01562,0.03125 Q 0.10938,0.14062 0.078125,0.14062 0.09375,0.1875 0.15625,0.1875 q 0.0625,0 0.10937,-0.0625 0.04688,-0.0625 0.0625,-0.140625 0,-0.015625 0,-0.015625 -0.04687,0.046875 -0.09374,0.046875 -0.07813,0 -0.10938,-0.0625 -0.01562,-0.03125 -0.01562,-0.062505 0,-0.04687 0.04687,-0.20312 0,0 0.01563,0 0.01562,-0.04688 0.01562,-0.07812 0,-0.03126 -0.03125,-0.03126 -0.04687,0 -0.09375,0.09376 l 0,0 q 0,0.01562 0,0.03124 -0.015625,0.01563 -0.015625,0.01563 -0.015625,0 -0.015625,0 0,-0.03125 0.015625,-0.0625 0.046875,-0.09375 0.109375,-0.09375 0.0625,0 0.07813,0.04688 Q 0.25,-0.375 0.25,-0.35938 q 0,0.01563 -0.03125,0.07813 -0.04687,0.125 -0.04687,0.1875 0,0.078125 0.0625,0.078125 0.0625,0 0.09374,-0.0625 0.01563,-0.015625 0.01563,-0.015625 l 0.04687,-0.1875 Q 0.40625,-0.3125 0.40625,-0.35938 0.42188,-0.40625 0.42188,-0.40625 0.4375,-0.4375 0.46875,-0.4375 q 0.01563,0.01562 0.01563,0.03125 0,0.01563 0,0.03125 z" id="path12152" />
            </g>
            
          </g>
          
        </g>
        
        <g transform="matrix(33.243,0,0,33.243,541.91372,254.78186)" id="g12154">
          <clipPath id="clip71">
            <path d="m -24.084,-11.847 0,24.579 30.5265,0 0,-24.579 z" id="path12157" />
          </clipPath>
          <g clip-path="url(#clip71)" id="g12159">
            <g id="g12161" style="fill:#000000;fill-opacity:1;fill-rule:nonzero;stroke:none">
              <path d="m 0.6875,-0.32812 -0.59375,0 q -0.03125,0 -0.03125,-0.01563 0,-0.01563 0.03125,-0.01563 l 0.59375,0 q 0.03125,0 0.03125,0.01563 0,0.01563 -0.03125,0.01563 z m 0,0.1875 -0.59375,0 q -0.03125,0 -0.03125,-0.01563 0,-0.01563 0.03125,-0.01563 l 0.59375,0 q 0.03125,0 0.03125,0.01563 0,0.01563 -0.03125,0.01563 z" id="path12163" />
            </g>
            
          </g>
          
        </g>
        
        <g transform="matrix(33.243,0,0,33.243,577.01372,254.78186)" id="g12165">
          <clipPath id="clip72">
            <path d="m -25.139,-11.847 0,24.579 30.5259,0 0,-24.579 z" id="path12168" />
          </clipPath>
          <g clip-path="url(#clip72)" id="g12170">
            <g id="g12172" style="fill:#000000;fill-opacity:1;fill-rule:nonzero;stroke:none">
              <path d="m 0.35938,-0.40625 0,0 -0.04688,0.328125 q -0.01562,0.0625 -0.04688,0.140625 0,0.03125 -0.01562,0.04688 -0.03125,0.07812 -0.09375,0.09374 0,0 -0.01563,0 -0.04687,0 -0.07812,-0.03124 -0.015625,-0.01563 -0.015625,-0.03126 0,-0.04687 0.046875,-0.062495 0,0 0.01563,0 0.03124,0 0.03124,0.015625 0,0.01563 0,0.01563 0,0.03124 -0.03124,0.04687 0,0 -0.01563,0.01563 0.01563,0.01562 0.04687,0.01562 0.04688,0 0.0625,-0.109375 Q 0.21875,0.0625 0.21875,0.03125 l 0,-0.03125 0.07813,-0.40625 -0.0625,0 q -0.03126,0 -0.03126,0 l 0,0 0,0 q 0,-0.01563 0.01563,-0.03125 l 0,0 0.01563,0 0.07812,0 Q 0.32812,-0.5625 0.34375,-0.59375 0.375,-0.6875 0.4375,-0.70312 q 0.01562,0 0.03125,0 0.04687,0 0.07813,0.03124 l 0,0 q 0,0.01563 0,0.03126 0,0.04687 -0.03126,0.0625 0,0 -0.01562,0 -0.03125,0 -0.03125,-0.01563 -0.01563,-0.01563 -0.01563,-0.01563 0,-0.03124 0.03126,-0.04687 0.01562,0 0.03124,-0.01563 Q 0.5,-0.6875 0.46875,-0.6875 q -0.03125,0 -0.04687,0.03125 -0.01563,0.01563 -0.03126,0.10937 L 0.375,-0.4375 l 0.07812,0 q 0.03126,0 0.03126,0.01562 0,0.01563 -0.01563,0.01563 l 0,0 -0.01563,0 -0.09374,0 z" id="path12174" />
            </g>
            
          </g>
          
        </g>
        
        <g transform="matrix(33.243,0,0,33.243,593.28872,227.85686)" id="g12176">
          <clipPath id="clip73">
            <path d="m -25.629,-11.037 0,24.579 30.5263,0 0,-24.579 z" id="path12179" />
          </clipPath>
          <g clip-path="url(#clip73)" id="g12181">
            <g id="g12183" style="fill:#000000;fill-opacity:1;fill-rule:nonzero;stroke:none">
              <path d="M 0.39062,1.1562 Q 0.26562,1.0469 0.21094,0.89062 0.15625,0.73438 0.15625,0.5625 q 0,-0.1875 0.05469,-0.34375 0.05468,-0.15625 0.17968,-0.25 0,-0.015625 0,-0.015625 l 0.01563,0 q 0,0 0.00781,0.007813 0.00782,0.007812 0.00782,0.007812 0,0 0,0 Q 0.35938,0.03125 0.32031,0.10156 0.28125,0.17188 0.26562,0.24219 0.25,0.3125 0.23438,0.39844 0.21875,0.48438 0.21875,0.5625 q 0,0.39062 0.20313,0.5781 0,0 0,0.0156 0,0 -0.00782,0 -0.00781,0 -0.00781,0 l -0.01563,0 q 0,0 0,0 z" id="path12185" />
            </g>
            
          </g>
          
        </g>
        
        <g transform="matrix(33.243,0,0,33.243,618.05372,232.29686)" id="g12187">
          <clipPath id="clip74">
            <path d="m -26.374,-11.171 0,24.579 30.5263,0 0,-24.579 z" id="path12190" />
          </clipPath>
          <g clip-path="url(#clip74)" id="g12192">
            <g id="g12194" style="fill:#000000;fill-opacity:1;fill-rule:nonzero;stroke:none">
              <path d="m 0.32812,-0.29688 -0.03124,0.125 q -0.01563,0.07813 -0.01563,0.093755 0,0.046875 0.03125,0.0625 0.01562,0 0.03125,0 0.04687,0 0.07813,-0.046875 0.03124,-0.03125 0.04687,-0.07812 0,-0.01563 0.01563,-0.01563 0.01562,0 0.01562,0.01563 0,0.01562 -0.03125,0.062495 -0.0625,0.09375 -0.125,0.09375 -0.07813,0 -0.10937,-0.0625 0,-0.015625 0,-0.015625 Q 0.20312,-0.015625 0.15625,0 0.14062,0.015625 0.125,0.015625 q -0.0625,0 -0.09375,-0.046875 0,0 0,-0.03125 0,-0.03125 0.03125,-0.04688 0.015625,0 0.015625,0 0.031255,0 0.046875,0.01563 0,0.015625 0,0.015625 0,0.03125 -0.03125,0.046875 -0.015625,0 -0.015625,0 0.015625,0.015625 0.046875,0.015625 0.04688,0 0.07812,-0.0625 0.01563,-0.015625 0.01563,-0.031255 0.04687,-0.20312 0.04687,-0.25 0,-0.0625 -0.04687,-0.0625 -0.04687,0 -0.09375,0.0625 l 0,0 q 0,0 0,0 -0.01562,0.01563 -0.03125,0.04688 0,0 0,0.01562 l -0.015625,0.01563 q 0,0 0,0 -0.015625,0 -0.015625,0 0,-0.03125 0.03125,-0.07813 0.04687,-0.07812 0.125,-0.07812 0.07813,0 0.10937,0.07812 0.03126,-0.0625 0.07813,-0.07812 0.01563,0 0.03125,0 0.0625,0 0.07812,0.03125 0.01563,0.01563 0.01563,0.03125 0,0.04688 -0.04687,0.04688 0,0.01562 -0.01563,0.01562 -0.03125,0 -0.03125,-0.03125 0,0 0,-0.01563 0,-0.03124 0.03125,-0.04687 0,0 0.01563,0 -0.01563,-0.01563 -0.04688,-0.01563 -0.07812,0 -0.09375,0.10938 -0.01563,0 -0.01563,0.01562 z" id="path12196" />
            </g>
            
          </g>
          
        </g>
        
        <g transform="matrix(33.243,0,0,33.243,644.43872,232.29686)" id="g12198">
          <clipPath id="clip75">
            <path d="m -27.168,-11.171 0,24.579 30.5266,0 0,-24.579 z" id="path12201" />
          </clipPath>
          <g clip-path="url(#clip75)" id="g12203">
            <g id="g12205" style="fill:#000000;fill-opacity:1;fill-rule:nonzero;stroke:none">
              <path d="m 0.40625,-0.23438 0,0.281255 q 0,0.03125 -0.01563,0.03125 -0.01562,0 -0.01562,-0.03125 l 0,-0.281255 -0.28125,0 q -0.03125,0 -0.03125,-0.01562 0,-0.01562 0.03125,-0.01562 l 0.28125,0 0,-0.28126 q 0,-0.03124 0.01562,-0.03124 0.01563,0 0.01563,0.03124 l 0,0.28126 0.28125,0 q 0.03125,0 0.03125,0.01562 0,0.01562 -0.03125,0.01562 l -0.28125,0 z" id="path12207" />
            </g>
            
          </g>
          
        </g>
        
        <g transform="matrix(33.243,0,0,33.243,677.67872,232.29686)" id="g12209">
          <clipPath id="clip76">
            <path d="m -28.168,-11.171 0,24.579 30.5266,0 0,-24.579 z" id="path12212" />
          </clipPath>
          <g clip-path="url(#clip76)" id="g12214">
            <g id="g12216" style="fill:#000000;fill-opacity:1;fill-rule:nonzero;stroke:none">
              <path d="m 0.45312,-0.17188 0,0 L 0.42188,0 0.046875,0 q 0,-0.03125 0.015625,-0.03125 l 0,0 L 0.25,-0.25 q 0.10938,-0.125 0.10938,-0.21875 0,-0.09375 -0.0625,-0.14063 l 0,0 0,0 q -0.03126,-0.03124 -0.07813,-0.03124 -0.0625,0 -0.10937,0.0625 -0.01563,0.01562 -0.01563,0.04687 0,0 0.01563,0 0.03124,0 0.04687,0.03125 l 0,0 q 0,0.01562 0,0.01562 0,0.04688 -0.04687,0.04688 0,0.01562 0,0.01562 -0.04688,0 -0.062505,-0.03124 0,-0.01563 0,-0.03126 0,-0.07812 0.062505,-0.125 0.04687,-0.0625 0.125,-0.0625 0.10937,0 0.17187,0.07813 0.03125,0.04687 0.04687,0.10937 0,0 0,0.01563 0,0.0625 -0.0625,0.14063 Q 0.35938,-0.29688 0.29688,-0.25 L 0.25,-0.1875 l -0.01562,0 -0.10938,0.109375 0.1875,0 q 0.07812,0 0.09375,0 0,-0.015625 0.01563,-0.093755 l 0.03124,0 z" id="path12218" />
            </g>
            
          </g>
          
        </g>
        
        <g transform="scale(22.162,22.162)" id="g12220">
          <clipPath id="clip77">
            <path d="m 0,0 0,24.579 30.526,0 0,-24.579 z" id="path12223" />
          </clipPath>
          <g clip-path="url(#clip77)" id="g12225" transform="matrix(1.5,0,0,1.5,-11.673643,-6.2746205)">
            <g id="g12227" style="fill:#000000;fill-opacity:1;fill-rule:nonzero;stroke:none">
              <path d="m 26.374,11.577 2.294,0 0,0.04 -2.294,0 0,-0.04 z" id="path12229" />
            </g>
            
          </g>
          
        </g>
        
        <g transform="matrix(33.243,0,0,33.243,647.87372,277.59686)" id="g12231">
          <clipPath id="clip78">
            <path d="m -27.271,-12.533 0,24.579 30.5264,0 0,-24.579 z" id="path12234" />
          </clipPath>
          <g clip-path="url(#clip78)" id="g12236">
            <g id="g12238" style="fill:#000000;fill-opacity:1;fill-rule:nonzero;stroke:none">
              <path d="m 0.29688,-0.35938 0,0 q 0.09374,0.03126 0.14062,0.10938 0.01562,0.03125 0.01562,0.07812 0,0.07813 -0.0625,0.14063 -0.0625,0.046875 -0.14062,0.046875 -0.10938,0 -0.171875,-0.046875 -0.03125,-0.046875 -0.03125,-0.10937 0,-0.04688 0.03125,-0.04688 0.015625,0 0.015625,0 0.04687,0 0.0625,0.03125 0,0.01563 0,0.01563 0,0.04687 -0.03125,0.062495 -0.01562,0 -0.03125,0 0.03125,0.0625 0.125,0.0625 Q 0.23438,0 0.23438,0 0.3125,0 0.32812,-0.0625 q 0.03126,-0.04688 0.03126,-0.10938 0,-0.125 -0.07813,-0.15624 Q 0.25,-0.34375 0.23438,-0.34375 l -0.04688,0 q -0.01562,0 -0.01562,0 0,-0.01563 0.01562,-0.01563 0.01562,0 0.03125,0 0.04687,0 0.07813,-0.04687 l 0,0 0,0 0,0 0,0 0.01562,-0.01563 q 0.03125,-0.04687 0.03125,-0.10937 0,-0.09375 -0.07813,-0.10937 -0.01562,0 -0.03124,0 -0.0625,0 -0.10938,0.04687 -0.01562,0 -0.01562,0.01563 0.0625,0 0.0625,0.04687 0,0.03125 -0.03126,0.04687 -0.01562,0 -0.01562,0 -0.046875,0 -0.046875,-0.03124 l 0,0 0,0 q -0.015625,0 -0.015625,-0.01563 0,-0.0625 0.07812,-0.10937 0.04688,-0.03126 0.10938,-0.03126 0.09375,0 0.14062,0.0625 l 0,0 q 0.04688,0.03126 0.04688,0.07813 0,0.09375 -0.07812,0.14063 -0.03126,0.03124 -0.0625,0.03124 z" id="path12240" />
            </g>
            
          </g>
          
        </g>
        
        <g transform="matrix(33.243,0,0,33.243,703.83872,227.85686)" id="g12242">
          <clipPath id="clip79">
            <path d="m -28.954,-11.037 0,24.579 30.5259,0 0,-24.579 z" id="path12245" />
          </clipPath>
          <g clip-path="url(#clip79)" id="g12247">
            <g id="g12249" style="fill:#000000;fill-opacity:1;fill-rule:nonzero;stroke:none">
              <path d="m 0.046875,1.1562 q 0,0 0,0 0,-0.0156 0,-0.0156 Q 0.10938,1.0625 0.15625,0.96875 0.20312,0.875 0.21875,0.77344 0.23438,0.67188 0.23438,0.5625 q 0,-0.39062 -0.187505,-0.59375 0,0 0,0 0,-0.015625 0,-0.015625 l 0.015625,0 q 0,0 0,0.015625 0.125,0.09375 0.1875,0.25 Q 0.3125,0.375 0.3125,0.5625 0.3125,0.73438 0.25,0.89062 0.1875,1.0469 0.0625,1.1562 q 0,0 0,0 l -0.015625,0 z" id="path12251" />
            </g>
            
          </g>
          
        </g>
        
      </g>
    </g>
    
  </g>
  
</svg>