<?xml version='1.0' ?><svg xmlns:dc="http://purl.org/dc/elements/1.1/" xmlns:cc="http://creativecommons.org/ns#" xmlns:rdf="http://www.w3.org/1999/02/22-rdf-syntax-ns#" xmlns:svg="http://www.w3.org/2000/svg" xmlns="http://www.w3.org/2000/svg" id="svg13661" y="0px" x="0px" version="1.1" width="353.53666" height="273.96088" viewBox="95.43533328257008 758.5402001941382 353.53666475123345 273.96088368180233" preserveAspectRatio="none">
  <metadata id="metadata14256">
    <rdf:RDF>
      <cc:Work rdf:about="">
        <dc:format>image/svg+xml</dc:format>
        <dc:type rdf:resource="http://purl.org/dc/dcmitype/StillImage" />
      </cc:Work>
    </rdf:RDF>
  </metadata>
  <defs id="defs14254" />
  <title id="title13663" />
  <g transform="translate(109.89407,758.54019)" style="stroke-width:1;stroke-linecap:square;stroke-linejoin:miter;stroke-miterlimit:10;stroke-dasharray:none;stroke-dashoffset:0" id="g13665" stroke-miterlimit="10.000">
    <g id="g13667" transform="scale(0.58664,0.58664)">
      <clipPath id="clip1">
        <path id="path13670" d="m 0,0 0,467 580,0 0,-467 z" />
      </clipPath>
      <g id="g13672" clip-path="url(#clip1)">
        <g style="fill:none;stroke:#000000;stroke-width:2;stroke-linecap:butt;stroke-opacity:1" id="g13674">
          <path id="path13676" d="m 285.82,3 0,464" />
        </g>
        
      </g>
      
    </g>
    
    <g id="g13678" transform="scale(0.58664,0.58664)">
      <clipPath id="clip2">
        <path id="path13681" d="m 0,0 0,467 580,0 0,-467 z" />
      </clipPath>
      <g id="g13683" clip-path="url(#clip2)">
        <g style="fill:#000000;fill-opacity:1;fill-rule:evenodd;stroke:none" id="g13685">
          <path id="path13687" d="m 285.82,2 -5,20 10,0" />
        </g>
        
      </g>
      
    </g>
    
    <g id="g13689" transform="scale(0.58664,0.58664)">
      <clipPath id="clip3">
        <path id="path13692" d="m 0,0 0,467 580,0 0,-467 z" />
      </clipPath>
      <g id="g13694" clip-path="url(#clip3)">
        <g style="fill:none;stroke:#000000;stroke-width:2;stroke-linecap:butt;stroke-opacity:1" id="g13696">
          <path id="path13698" d="m 0,317.12 577,0" />
        </g>
        
      </g>
      
    </g>
    
    <g id="g13700" transform="scale(0.58664,0.58664)">
      <clipPath id="clip4">
        <path id="path13703" d="m 0,0 0,467 580,0 0,-467 z" />
      </clipPath>
      <g id="g13705" clip-path="url(#clip4)">
        <g style="fill:#000000;fill-opacity:1;fill-rule:evenodd;stroke:none" id="g13707">
          <path id="path13709" d="m 578,317.12 -20,-5 0,10" />
        </g>
        
      </g>
      
    </g>
    
    <g id="g13711" transform="scale(0.58664,0.58664)">
      <clipPath id="clip5">
        <path id="path13714" d="m 0,0 0,467 580,0 0,-467 z" />
      </clipPath>
      <g id="g13716" clip-path="url(#clip5)">
        <g style="fill:#000000;fill-opacity:1;fill-rule:nonzero;stroke:none" id="g13718">
          <path id="path13720" d="m 86.718,331.29 0,-0.93 5.564,0 0,0.93 z m 11.553,3.71 0,-2.86 -4.553,0 0,-1.02 4.553,-6.24 1.264,0 0,6.16 1.355,0 0,1.1 -1.355,0 0,2.86 z m -3.234,-3.96 3.322,0 0,-4.5 z" />
        </g>
        
      </g>
      
    </g>
    
    <g id="g13722" transform="scale(0.58664,0.58664)">
      <clipPath id="clip6">
        <path id="path13725" d="m 0,0 0,467 580,0 0,-467 z" />
      </clipPath>
      <g id="g13727" clip-path="url(#clip6)">
        <g style="fill:none;stroke:#000000;stroke-width:2;stroke-linecap:butt;stroke-opacity:1" id="g13729">
          <path id="path13731" d="m 92.543,317.12 0,4" />
        </g>
        
      </g>
      
    </g>
    
    <g id="g13733" transform="scale(0.58664,0.58664)">
      <clipPath id="clip7">
        <path id="path13736" d="m 0,0 0,467 580,0 0,-467 z" />
      </clipPath>
      <g id="g13738" clip-path="url(#clip7)">
        <g style="fill:#000000;fill-opacity:1;fill-rule:nonzero;stroke:none" id="g13740">
          <path id="path13742" d="m 183.72,331.29 0,-0.93 5.56,0 0,0.93 z m 7.44,3.71 0,-1.18 q 0.59,-1.38 2.38,-3 l 0.77,-0.69 q 1.49,-1.34 1.49,-2.67 0,-0.85 -0.51,-1.33 -0.5,-0.49 -1.39,-0.49 -1.06,0 -2.48,0.82 l 0,-1.19 q 1.34,-0.64 2.67,-0.64 1.42,0 2.28,0.77 0.86,0.76 0.86,2.03 0,0.9 -0.43,1.61 -0.44,0.7 -1.62,1.71 l -0.52,0.44 q -1.62,1.38 -1.87,2.63 l 4.39,0 0,1.18 z" />
        </g>
        
      </g>
      
    </g>
    
    <g id="g13744" transform="scale(0.58664,0.58664)">
      <clipPath id="clip8">
        <path id="path13747" d="m 0,0 0,467 580,0 0,-467 z" />
      </clipPath>
      <g id="g13749" clip-path="url(#clip8)">
        <g style="fill:none;stroke:#000000;stroke-width:2;stroke-linecap:butt;stroke-opacity:1" id="g13751">
          <path id="path13753" d="m 189.18,317.12 0,4" />
        </g>
        
      </g>
      
    </g>
    
    <g id="g13755" transform="scale(0.58664,0.58664)">
      <clipPath id="clip9">
        <path id="path13758" d="m 0,0 0,467 580,0 0,-467 z" />
      </clipPath>
      <g id="g13760" clip-path="url(#clip9)">
        <g style="fill:#000000;fill-opacity:1;fill-rule:nonzero;stroke:none" id="g13762">
          <path id="path13764" d="m 295.39,335.25 q -1.57,0 -2.53,-1.47 -0.97,-1.47 -0.97,-3.85 0,-2.39 0.97,-3.84 0.98,-1.46 2.57,-1.46 1.59,0 2.57,1.46 0.97,1.45 0.97,3.82 0,2.44 -0.97,3.89 -0.98,1.45 -2.61,1.45 z m 0.01,-1.01 q 2.14,0 2.14,-4.35 0,-4.25 -2.11,-4.25 -2.11,0 -2.11,4.29 0,4.31 2.08,4.31 z" />
        </g>
        
      </g>
      
    </g>
    
    <g id="g13766" transform="scale(0.58664,0.58664)">
      <clipPath id="clip10">
        <path id="path13769" d="m 0,0 0,467 580,0 0,-467 z" />
      </clipPath>
      <g id="g13771" clip-path="url(#clip10)">
        <g style="fill:#000000;fill-opacity:1;fill-rule:nonzero;stroke:none" id="g13773">
          <path id="path13775" d="m 380.16,335 0,-1.18 q 0.59,-1.38 2.38,-3 l 0.77,-0.69 q 1.49,-1.34 1.49,-2.67 0,-0.85 -0.51,-1.33 -0.5,-0.49 -1.39,-0.49 -1.06,0 -2.48,0.82 l 0,-1.19 q 1.34,-0.64 2.67,-0.64 1.42,0 2.28,0.77 0.86,0.76 0.86,2.03 0,0.9 -0.43,1.61 -0.44,0.7 -1.62,1.71 l -0.52,0.44 q -1.62,1.38 -1.87,2.63 l 4.39,0 0,1.18 z" />
        </g>
        
      </g>
      
    </g>
    
    <g id="g13777" transform="scale(0.58664,0.58664)">
      <clipPath id="clip11">
        <path id="path13780" d="m 0,0 0,467 580,0 0,-467 z" />
      </clipPath>
      <g id="g13782" clip-path="url(#clip11)">
        <g style="fill:none;stroke:#000000;stroke-width:2;stroke-linecap:butt;stroke-opacity:1" id="g13784">
          <path id="path13786" d="m 382.46,317.12 0,4" />
        </g>
        
      </g>
      
    </g>
    
    <g id="g13788" transform="scale(0.58664,0.58664)">
      <clipPath id="clip12">
        <path id="path13791" d="m 0,0 0,467 580,0 0,-467 z" />
      </clipPath>
      <g id="g13793" clip-path="url(#clip12)">
        <g style="fill:#000000;fill-opacity:1;fill-rule:nonzero;stroke:none" id="g13795">
          <path id="path13797" d="m 481.27,335 0,-2.86 -4.55,0 0,-1.02 4.55,-6.24 1.27,0 0,6.16 1.35,0 0,1.1 -1.35,0 0,2.86 z m -3.23,-3.96 3.32,0 0,-4.5 z" />
        </g>
        
      </g>
      
    </g>
    
    <g id="g13799" transform="scale(0.58664,0.58664)">
      <clipPath id="clip13">
        <path id="path13802" d="m 0,0 0,467 580,0 0,-467 z" />
      </clipPath>
      <g id="g13804" clip-path="url(#clip13)">
        <g style="fill:none;stroke:#000000;stroke-width:2;stroke-linecap:butt;stroke-opacity:1" id="g13806">
          <path id="path13808" d="m 479.1,317.12 0,4" />
        </g>
        
      </g>
      
    </g>
    
    <g id="g13810" transform="scale(0.58664,0.58664)">
      <clipPath id="clip14">
        <path id="path13813" d="m 0,0 0,467 580,0 0,-467 z" />
      </clipPath>
      <g id="g13815" clip-path="url(#clip14)">
        <g style="fill:#000000;fill-opacity:1;fill-rule:nonzero;stroke:none" id="g13817">
          <path id="path13819" d="m 264.72,415.29 0,-0.93 5.56,0 0,0.93 z m 7.44,3.71 0,-1.18 q 0.59,-1.38 2.38,-3 l 0.77,-0.69 q 1.49,-1.34 1.49,-2.67 0,-0.85 -0.51,-1.33 -0.5,-0.49 -1.39,-0.49 -1.06,0 -2.48,0.82 l 0,-1.19 q 1.34,-0.64 2.67,-0.64 1.42,0 2.28,0.77 0.86,0.76 0.86,2.03 0,0.9 -0.43,1.61 -0.44,0.7 -1.62,1.71 l -0.52,0.44 q -1.62,1.38 -1.87,2.63 l 4.39,0 0,1.18 z" />
        </g>
        
      </g>
      
    </g>
    
    <g id="g13821" transform="scale(0.58664,0.58664)">
      <clipPath id="clip15">
        <path id="path13824" d="m 0,0 0,467 580,0 0,-467 z" />
      </clipPath>
      <g id="g13826" clip-path="url(#clip15)">
        <g style="fill:none;stroke:#000000;stroke-width:2;stroke-linecap:butt;stroke-opacity:1" id="g13828">
          <path id="path13830" d="m 281.82,413.76 4,0" />
        </g>
        
      </g>
      
    </g>
    
    <g id="g13832" transform="matrix(0.58664,0,0,0.58664,0,-2)">
      <clipPath id="clip16">
        <path id="path13835" d="m 0,0 0,467 580,0 0,-467 z" />
      </clipPath>
      <g id="g13837" clip-path="url(#clip16)">
        <g style="fill:#000000;fill-opacity:1;fill-rule:nonzero;stroke:none" id="g13839">
          <path id="path13841" d="m 275.39,315.25 q -1.57,0 -2.53,-1.47 -0.97,-1.47 -0.97,-3.85 0,-2.39 0.97,-3.84 0.98,-1.46 2.57,-1.46 1.59,0 2.57,1.46 0.97,1.45 0.97,3.82 0,2.44 -0.97,3.89 -0.98,1.45 -2.61,1.45 z m 0.01,-1.01 q 2.14,0 2.14,-4.35 0,-4.25 -2.11,-4.25 -2.11,0 -2.11,4.29 0,4.31 2.08,4.31 z" />
        </g>
        
      </g>
      
    </g>
    
    <g id="g13843" transform="matrix(0.58664,0,0,0.58664,0,-4)">
      <clipPath id="clip17">
        <path id="path13846" d="m 0,0 0,467 580,0 0,-467 z" />
      </clipPath>
      <g id="g13848" clip-path="url(#clip17)">
        <g style="fill:#000000;fill-opacity:1;fill-rule:nonzero;stroke:none" id="g13850">
          <path id="path13852" d="m 272.16,226 0,-1.18 q 0.59,-1.38 2.38,-3 l 0.77,-0.69 q 1.49,-1.34 1.49,-2.67 0,-0.85 -0.51,-1.33 -0.5,-0.49 -1.39,-0.49 -1.06,0 -2.48,0.82 l 0,-1.19 q 1.34,-0.64 2.67,-0.64 1.42,0 2.28,0.77 0.86,0.76 0.86,2.03 0,0.9 -0.43,1.61 -0.44,0.7 -1.62,1.71 l -0.52,0.44 q -1.62,1.38 -1.87,2.63 l 4.39,0 0,1.18 z" />
        </g>
        
      </g>
      
    </g>
    
    <g id="g13854" transform="scale(0.58664,0.58664)">
      <clipPath id="clip18">
        <path id="path13857" d="m 0,0 0,467 580,0 0,-467 z" />
      </clipPath>
      <g id="g13859" clip-path="url(#clip18)">
        <g style="fill:none;stroke:#000000;stroke-width:2;stroke-linecap:butt;stroke-opacity:1" id="g13861">
          <path id="path13863" d="m 281.82,220.48 4,0" />
        </g>
        
      </g>
      
    </g>
    
    <g id="g13865" transform="matrix(0.58664,0,0,0.58664,0,-4)">
      <clipPath id="clip19">
        <path id="path13868" d="m 0,0 0,467 580,0 0,-467 z" />
      </clipPath>
      <g id="g13870" clip-path="url(#clip19)">
        <g style="fill:#000000;fill-opacity:1;fill-rule:nonzero;stroke:none" id="g13872">
          <path id="path13874" d="m 276.27,129 0,-2.86 -4.55,0 0,-1.02 4.55,-6.24 1.27,0 0,6.16 1.35,0 0,1.1 -1.35,0 0,2.86 z m -3.23,-3.96 3.32,0 0,-4.5 z" />
        </g>
        
      </g>
      
    </g>
    
    <g id="g13876" transform="scale(0.58664,0.58664)">
      <clipPath id="clip20">
        <path id="path13879" d="m 0,0 0,467 580,0 0,-467 z" />
      </clipPath>
      <g id="g13881" clip-path="url(#clip20)">
        <g style="fill:none;stroke:#000000;stroke-width:2;stroke-linecap:butt;stroke-opacity:1" id="g13883">
          <path id="path13885" d="m 281.82,123.84 4,0" />
        </g>
        
      </g>
      
    </g>
    
    <g id="g13887" transform="scale(0.58664,0.58664)">
      <clipPath id="clip21">
        <path id="path13890" d="m 0,0 0,467 580,0 0,-467 z" />
      </clipPath>
      <g id="g13892" clip-path="url(#clip21)">
        <g style="fill:#000000;fill-opacity:1;fill-rule:nonzero;stroke:none" id="g13894">
          <path id="path13896" d="m 273.41,27.757 q 0.96,-1.251 2.42,-1.251 1.33,0 2.17,0.878 0.85,0.879 0.85,2.253 0,1.579 -0.95,2.597 -0.95,1.019 -2.4,1.019 -1.68,0 -2.62,-1.347 -0.94,-1.346 -0.94,-3.739 0,-2.632 1.08,-4.088 1.08,-1.456 3.05,-1.456 0.9,0 2.26,0.383 l 0,1.176 q -1.43,-0.547 -2.34,-0.547 -2.58,0 -2.58,4.122 z m 4.08,2.181 q 0,-1.149 -0.51,-1.805 -0.52,-0.656 -1.43,-0.656 -0.86,0 -1.47,0.574 -0.62,0.574 -0.62,1.381 0,1.271 0.59,2.04 0.58,0.769 1.54,0.769 0.87,0 1.39,-0.625 0.51,-0.626 0.51,-1.678 z" />
        </g>
        
      </g>
      
    </g>
    
    <g id="g13898" transform="scale(0.58664,0.58664)">
      <clipPath id="clip22">
        <path id="path13901" d="m 0,0 0,467 580,0 0,-467 z" />
      </clipPath>
      <g id="g13903" clip-path="url(#clip22)">
        <g style="fill:none;stroke:#000000;stroke-width:2;stroke-linecap:butt;stroke-opacity:1" id="g13905">
          <path id="path13907" d="m 281.82,27.205 4,0" />
        </g>
        
      </g>
      
    </g>
    
    <g id="misc" />
    
    <g id="layer0">
      <g id="g13911" transform="scale(0.58664,0.58664)">
        <clipPath id="clip23">
          <path id="path13914" d="m 0,0 0,467 580,0 0,-467 z" />
        </clipPath>
        <g id="g13916" clip-path="url(#clip23)">
          <g style="fill:none;stroke:#cc0000;stroke-width:2.5;stroke-linecap:round;stroke-linejoin:round;stroke-opacity:1" id="g13918">
            <path id="path13920" d="m 223.16,472.96 0.57,-7.22 0.57,-7.13 0.56,-7.04 0.57,-6.94 0.57,-6.86 0.56,-6.77 0.57,-6.68 0.57,-6.59 0.56,-6.5 0.57,-6.42 0.56,-6.33 0.57,-6.24 0.57,-6.16 0.56,-6.07 0.57,-5.98 0.57,-5.91 0.56,-5.81 0.57,-5.74 0.57,-5.65 0.56,-5.57 0.57,-5.49 0.56,-5.4 0.57,-5.32 0.57,-5.25 0.56,-5.16 0.57,-5.08 1.13,-9.93 1.14,-9.62 1.13,-9.3 1.13,-9 1.13,-8.69 1.14,-8.4 1.13,-8.1 1.13,-7.81 1.14,-7.53 1.13,-7.24 1.13,-6.96 1.13,-6.68 1.14,-6.41 1.13,-6.14 1.13,-5.88 1.14,-5.61 1.13,-5.36 1.13,-5.11 2.27,-9.46 2.26,-8.49 2.27,-7.55 2.26,-6.63 2.27,-5.76 2.27,-4.91 4.53,-7.37 1.13,-1.36 1.13,-1.17 2.27,-1.8 1.13,-0.64 1.13,-0.46 1.14,-0.3 1.13,-0.13 1.13,0.03 1.13,0.19 1.14,0.34 1.13,0.49 2.27,1.41 2.26,1.96 4.53,5.47 4.53,7.31 4.53,8.93 2.27,4.99 2.27,5.31 2.26,5.59 2.27,5.84 2.26,6.07 2.27,6.26 2.26,6.42 2.27,6.56 2.27,6.66 2.26,6.74 2.27,6.78 2.26,6.8 2.27,6.78 2.26,6.73 2.27,6.66 2.27,6.56 2.26,6.41 2.27,6.26 2.26,6.06 2.27,5.83 2.26,5.59 2.27,5.29 4.53,9.62 4.53,8.13 4.53,6.38 2.27,2.47 2.26,1.95 2.27,1.39 1.13,0.48 1.13,0.33 1.14,0.17 1.13,0.02 1.13,-0.14 1.14,-0.3 1.13,-0.48 1.13,-0.65 2.27,-1.82 2.26,-2.56 2.27,-3.31 4.53,-9.05 2.27,-5.78 2.26,-6.67 2.27,-7.58 2.26,-8.52 2.27,-9.5 1.13,-5.12 1.13,-5.37 1.14,-5.64 1.13,-5.89 1.13,-6.16 1.14,-6.43 1.13,-6.7 1.13,-6.98 1.13,-7.26 1.14,-7.54 1.13,-7.83 1.13,-8.12 1.13,-8.42 1.14,-8.71 1.13,-9.02 1.13,-9.33 1.14,-9.63 1.13,-9.95 0.57,-5.1 0.56,-5.17 0.57,-5.25 0.56,-5.34 0.57,-5.41 0.57,-5.502 0.56,-5.58 0.57,-5.662 0.57,-5.746 0.56,-5.829 0.57,-5.913 0.57,-5.998 0.56,-6.083 0.57,-6.169 0.56,-6.254 0.57,-6.341 0.57,-6.428 0.56,-6.515 0.57,-6.602 0.57,-6.6916 0.56,-6.7799 0.57,-6.8691 0.5,0.5 0.44,-5.4174 -0.37,-0.5" />
          </g>
          
        </g>
        
      </g>
      
      <g id="g13922" transform="scale(0.58664,0.58664)">
        <clipPath id="clip24">
          <path id="path13925" d="m 0,0 0,467 580,0 0,-467 z" />
        </clipPath>
        <g id="g13927" clip-path="url(#clip24)">
          <g style="fill:none;stroke:#0033cc;stroke-width:2.5;stroke-linecap:round;stroke-linejoin:round;stroke-opacity:1" id="g13929">
            <path id="path13931" d="m 115.55,474.31 1.13,-9.03 1.13,-8.82 1.14,-8.63 1.13,-8.43 1.13,-8.24 1.13,-8.05 1.14,-7.86 1.13,-7.67 1.13,-7.48 1.14,-7.3 1.13,-7.12 1.13,-6.93 1.13,-6.76 1.14,-6.58 1.13,-6.41 1.13,-6.23 1.13,-6.06 1.14,-5.89 1.13,-5.73 1.13,-5.56 1.14,-5.39 1.13,-5.23 2.26,-9.99 2.27,-9.37 2.27,-8.75 2.26,-8.16 2.27,-7.58 2.26,-7.01 2.27,-6.46 2.26,-5.93 2.27,-5.41 2.26,-4.9 4.54,-8.34 4.53,-6.51 4.53,-4.78 2.26,-1.78 2.27,-1.4 2.27,-1.02 2.26,-0.67 2.27,-0.33 2.26,0 2.27,0.31 2.26,0.61 4.54,2.04 4.53,3.05 4.53,3.94 4.53,4.7 4.53,5.34 4.53,5.88 4.53,6.29 4.53,6.57 4.53,6.74 4.54,6.79 4.53,6.72 4.53,6.53 4.53,6.23 4.53,5.79 4.53,5.25 4.53,4.58 4.54,3.79 4.53,2.88 2.26,1.07 2.27,0.79 2.26,0.51 2.27,0.2 2.26,-0.11 2.27,-0.44 2.27,-0.79 2.26,-1.15 2.27,-1.53 2.26,-1.92 4.53,-5.06 4.53,-6.81 4.54,-8.68 2.26,-5.07 2.27,-5.58 2.26,-6.11 2.27,-6.65 2.26,-7.21 2.27,-7.77 2.27,-8.36 2.26,-8.97 2.27,-9.57 1.13,-5.03 1.13,-5.18 1.14,-5.34 1.13,-5.51 1.13,-5.67 1.13,-5.84 1.14,-6.01 1.13,-6.18 1.13,-6.35 1.14,-6.53 1.13,-6.7 1.13,-6.88 1.13,-7.06 1.14,-7.24 1.13,-7.42 1.13,-7.61 1.13,-7.8 1.14,-7.99 1.13,-8.18 1.13,-8.371 1.14,-8.567 1.13,-8.763 1.13,-8.962 1.13,-9.163 1.14,-9.365 1.13,-9.569 1.13,-9.775 1.14,-9.984 0.56,-5.07 0.57,-5.1227 0.56,-5.1759 0.57,-5.2289 0.57,-5.2824" />
          </g>
          
        </g>
        
      </g>
      
      <g id="g13933" transform="scale(0.58664,0.58664)">
        <clipPath id="clip25">
          <path id="path13936" d="m 0,0 0,467 580,0 0,-467 z" />
        </clipPath>
        <g id="g13938" clip-path="url(#clip25)">
          <g style="fill:none;stroke:#000000;stroke-width:2;stroke-linecap:butt;stroke-linejoin:round;stroke-opacity:1;stroke-dasharray:6, 4" id="g13940">
            <path id="path13942" d="m 285.82,123.84 -96.64,0" />
          </g>
          
        </g>
        
      </g>
      
      <g id="g13944" transform="scale(0.58664,0.58664)">
        <clipPath id="clip26">
          <path id="path13947" d="m 0,0 0,467 580,0 0,-467 z" />
        </clipPath>
        <g id="g13949" clip-path="url(#clip26)">
          <g style="fill:none;stroke:#000000;stroke-width:2;stroke-linecap:round;stroke-linejoin:round;stroke-opacity:1" id="g13951">
            <path id="path13953" d="m 233,123.84 4.5,-5.5" />
          </g>
          
        </g>
        
      </g>
      
      <g id="g13955" transform="scale(0.58664,0.58664)">
        <clipPath id="clip27">
          <path id="path13958" d="m 0,0 0,467 580,0 0,-467 z" />
        </clipPath>
        <g id="g13960" clip-path="url(#clip27)">
          <g style="fill:none;stroke:#000000;stroke-width:2;stroke-linecap:round;stroke-linejoin:round;stroke-opacity:1" id="g13962">
            <path id="path13964" d="m 233,123.84 4.5,5.5" />
          </g>
          
        </g>
        
      </g>
      
      <g id="g13966" transform="scale(0.58664,0.58664)">
        <clipPath id="clip28">
          <path id="path13969" d="m 0,0 0,467 580,0 0,-467 z" />
        </clipPath>
        <g id="g13971" clip-path="url(#clip28)">
          <g style="fill:none;stroke:#000000;stroke-width:2;stroke-linecap:butt;stroke-linejoin:round;stroke-opacity:1;stroke-dasharray:6, 4" id="g13973">
            <path id="path13975" d="m 189.18,123.84 0,96.64" />
          </g>
          
        </g>
        
      </g>
      
      <g id="g13977" transform="scale(0.58664,0.58664)">
        <clipPath id="clip29">
          <path id="path13980" d="m 0,0 0,467 580,0 0,-467 z" />
        </clipPath>
        <g id="g13982" clip-path="url(#clip29)">
          <g style="fill:none;stroke:#000000;stroke-width:2;stroke-linecap:round;stroke-linejoin:round;stroke-opacity:1" id="g13984">
            <path id="path13986" d="m 189.18,176.66 -5.5,-4.5" />
          </g>
          
        </g>
        
      </g>
      
      <g id="g13988" transform="scale(0.58664,0.58664)">
        <clipPath id="clip30">
          <path id="path13991" d="m 0,0 0,467 580,0 0,-467 z" />
        </clipPath>
        <g id="g13993" clip-path="url(#clip30)">
          <g style="fill:none;stroke:#000000;stroke-width:2;stroke-linecap:round;stroke-linejoin:round;stroke-opacity:1" id="g13995">
            <path id="path13997" d="m 189.18,176.66 5.5,-4.5" />
          </g>
          
        </g>
        
      </g>
      
      <g id="g13999" transform="matrix(0.58664,0,0,0.58664,1.3311591,0)">
        <clipPath id="clip31">
          <path id="path14002" d="m 0,0 0,467 580,0 0,-467 z" />
        </clipPath>
        <g id="g14004" clip-path="url(#clip31)">
          <g style="fill:none;stroke:#000000;stroke-width:2;stroke-linecap:butt;stroke-linejoin:round;stroke-opacity:1;stroke-dasharray:6, 4" id="g14006">
            <path id="path14008" d="m 285.82,123.84 0,96.64" />
          </g>
          
        </g>
        
      </g>
      
      <g id="g14010" transform="matrix(0.58664,0,0,0.58664,1.3311591,0)">
        <clipPath id="clip32">
          <path id="path14013" d="m 0,0 0,467 580,0 0,-467 z" />
        </clipPath>
        <g id="g14015" clip-path="url(#clip32)">
          <g style="fill:none;stroke:#000000;stroke-width:2;stroke-linecap:round;stroke-linejoin:round;stroke-opacity:1" id="g14017">
            <path id="path14019" d="m 285.82,176.66 -5.5,-4.5" />
          </g>
          
        </g>
        
      </g>
      
      <g id="g14021" transform="matrix(0.58664,0,0,0.58664,1.3311591,0)">
        <clipPath id="clip33">
          <path id="path14024" d="m 0,0 0,467 580,0 0,-467 z" />
        </clipPath>
        <g id="g14026" clip-path="url(#clip33)">
          <g style="fill:none;stroke:#000000;stroke-width:2;stroke-linecap:round;stroke-linejoin:round;stroke-opacity:1" id="g14028">
            <path id="path14030" d="m 285.82,176.66 5.5,-4.5" />
          </g>
          
        </g>
        
      </g>
      
      <g id="g14032" transform="scale(0.58664,0.58664)">
        <clipPath id="clip34">
          <path id="path14035" d="m 0,0 0,467 580,0 0,-467 z" />
        </clipPath>
        <g id="g14037" clip-path="url(#clip34)">
          <g style="fill:none;stroke:#000000;stroke-width:2;stroke-linecap:butt;stroke-linejoin:round;stroke-opacity:1;stroke-dasharray:6, 4" id="g14039">
            <path id="path14041" d="m 285.82,220.48 -96.64,0" />
          </g>
          
        </g>
        
      </g>
      
      <g id="g14043" transform="scale(0.58664,0.58664)">
        <clipPath id="clip35">
          <path id="path14046" d="m 0,0 0,467 580,0 0,-467 z" />
        </clipPath>
        <g id="g14048" clip-path="url(#clip35)">
          <g style="fill:none;stroke:#000000;stroke-width:2;stroke-linecap:round;stroke-linejoin:round;stroke-opacity:1" id="g14050">
            <path id="path14052" d="m 233,220.48 4.5,-5.5" />
          </g>
          
        </g>
        
      </g>
      
      <g id="g14054" transform="scale(0.58664,0.58664)">
        <clipPath id="clip36">
          <path id="path14057" d="m 0,0 0,467 580,0 0,-467 z" />
        </clipPath>
        <g id="g14059" clip-path="url(#clip36)">
          <g style="fill:none;stroke:#000000;stroke-width:2;stroke-linecap:round;stroke-linejoin:round;stroke-opacity:1" id="g14061">
            <path id="path14063" d="m 233,220.48 4.5,5.5" />
          </g>
          
        </g>
        
      </g>
      
      <g id="g14065" transform="matrix(16.719,0,0,16.719,258.53584,106.69675)">
        <clipPath id="clip37">
          <path id="path14068" d="m -23.211,-9.6974 0,24.5794 30.5268,0 0,-24.5794 z" />
        </clipPath>
        <g id="g14070" clip-path="url(#clip37)">
          <g style="fill:#000000;fill-opacity:1;fill-rule:nonzero;stroke:none" id="g14072">
            <path id="path14074" d="M 0.48438,-0.375 0.39062,0 Q 0.35938,0.09375 0.28125,0.15625 0.21875,0.20312 0.15625,0.20312 0.09375,0.20312 0.0625,0.15625 0.046875,0.14062 0.046875,0.125 q 0,-0.0625 0.046875,-0.0625 0,-0.015625 0.01563,-0.015625 0.03124,0 0.03124,0.03125 0,0 0,0.015625 0,0.01563 -0.01562,0.03125 Q 0.10938,0.14062 0.078125,0.14062 0.09375,0.1875 0.15625,0.1875 q 0.0625,0 0.10937,-0.0625 0.04688,-0.0625 0.0625,-0.140625 0,-0.015625 0,-0.015625 -0.04687,0.046875 -0.09374,0.046875 -0.07813,0 -0.10938,-0.0625 -0.01562,-0.03125 -0.01562,-0.062505 0,-0.04687 0.04687,-0.20312 0,0 0.01563,0 0.01562,-0.04688 0.01562,-0.07812 0,-0.03126 -0.03125,-0.03126 -0.04687,0 -0.09375,0.09376 l 0,0 q 0,0.01562 0,0.03124 -0.015625,0.01563 -0.015625,0.01563 -0.015625,0 -0.015625,0 0,-0.03125 0.015625,-0.0625 0.046875,-0.09375 0.109375,-0.09375 0.0625,0 0.07813,0.04688 Q 0.25,-0.375 0.25,-0.35938 q 0,0.01563 -0.03125,0.07813 -0.04687,0.125 -0.04687,0.1875 0,0.078125 0.0625,0.078125 0.0625,0 0.09374,-0.0625 0.01563,-0.015625 0.01563,-0.015625 l 0.04687,-0.1875 Q 0.40625,-0.3125 0.40625,-0.35938 0.42188,-0.40625 0.42188,-0.40625 0.4375,-0.4375 0.46875,-0.4375 q 0.01563,0.01562 0.01563,0.03125 0,0.01563 0,0.03125 z" />
          </g>
          
        </g>
        
      </g>
      
      <g id="g14076" transform="matrix(16.719,0,0,16.719,271.37584,106.69675)">
        <clipPath id="clip38">
          <path id="path14079" d="m -23.979,-9.6974 0,24.5794 30.5267,0 0,-24.5794 z" />
        </clipPath>
        <g id="g14081" clip-path="url(#clip38)">
          <g style="fill:#000000;fill-opacity:1;fill-rule:nonzero;stroke:none" id="g14083">
            <path id="path14085" d="m 0.6875,-0.32812 -0.59375,0 q -0.03125,0 -0.03125,-0.01563 0,-0.01563 0.03125,-0.01563 l 0.59375,0 q 0.03125,0 0.03125,0.01563 0,0.01563 -0.03125,0.01563 z m 0,0.1875 -0.59375,0 q -0.03125,0 -0.03125,-0.01563 0,-0.01563 0.03125,-0.01563 l 0.59375,0 q 0.03125,0 0.03125,0.01563 0,0.01563 -0.03125,0.01563 z" />
          </g>
          
        </g>
        
      </g>
      
      <g id="g14087" transform="matrix(16.719,0,0,16.719,289.03084,106.69675)">
        <clipPath id="clip39">
          <path id="path14090" d="m -25.034,-9.6974 0,24.5794 30.5262,0 0,-24.5794 z" />
        </clipPath>
        <g id="g14092" clip-path="url(#clip39)">
          <g style="fill:#000000;fill-opacity:1;fill-rule:nonzero;stroke:none" id="g14094">
            <path id="path14096" d="m 0.35938,-0.40625 0,0 -0.04688,0.328125 q -0.01562,0.0625 -0.04688,0.140625 0,0.03125 -0.01562,0.04688 -0.03125,0.07812 -0.09375,0.09374 0,0 -0.01563,0 -0.04687,0 -0.07812,-0.03124 -0.015625,-0.01563 -0.015625,-0.03126 0,-0.04687 0.046875,-0.062495 0,0 0.01563,0 0.03124,0 0.03124,0.015625 0,0.01563 0,0.01563 0,0.03124 -0.03124,0.04687 0,0 -0.01563,0.01563 0.01563,0.01562 0.04687,0.01562 0.04688,0 0.0625,-0.109375 Q 0.21875,0.0625 0.21875,0.03125 l 0,-0.03125 0.07813,-0.40625 -0.0625,0 q -0.03126,0 -0.03126,0 l 0,0 0,0 q 0,-0.01563 0.01563,-0.03125 l 0,0 0.01563,0 0.07812,0 Q 0.32812,-0.5625 0.34375,-0.59375 0.375,-0.6875 0.4375,-0.70312 q 0.01562,0 0.03125,0 0.04687,0 0.07813,0.03124 l 0,0 q 0,0.01563 0,0.03126 0,0.04687 -0.03126,0.0625 0,0 -0.01562,0 -0.03125,0 -0.03125,-0.01563 -0.01563,-0.01563 -0.01563,-0.01563 0,-0.03124 0.03126,-0.04687 0.01562,0 0.03124,-0.01563 Q 0.5,-0.6875 0.46875,-0.6875 q -0.03125,0 -0.04687,0.03125 -0.01563,0.01563 -0.03126,0.10937 L 0.375,-0.4375 l 0.07812,0 q 0.03126,0 0.03126,0.01562 0,0.01563 -0.01563,0.01563 l 0,0 -0.01563,0 -0.09374,0 z" />
          </g>
          
        </g>
        
      </g>
      
      <g id="g14098" transform="matrix(16.719,0,0,16.719,297.20584,106.69675)">
        <clipPath id="clip40">
          <path id="path14101" d="m -25.524,-9.6974 0,24.5794 30.5266,0 0,-24.5794 z" />
        </clipPath>
        <g id="g14103" clip-path="url(#clip40)">
          <g style="fill:#000000;fill-opacity:1;fill-rule:nonzero;stroke:none" id="g14105">
            <path id="path14107" d="m 0.32812,0.23438 0,0 q 0,0.01562 0,0.01562 Q 0.3125,0.25 0.26562,0.20312 0.20312,0.14062 0.17188,0.0625 0.09375,-0.078125 0.09375,-0.25 q 0,-0.17188 0.0625,-0.3125 0.0625,-0.10938 0.14063,-0.17188 Q 0.3125,-0.75 0.32812,-0.75 q 0,0 0,0.01562 0,0 -0.01562,0.01563 -0.15625,0.15625 -0.15625,0.46875 0,0.3125 0.15625,0.46875 0.01562,0.01563 0.01562,0.01563 z" />
          </g>
          
        </g>
        
      </g>
      
      <g id="g14109" transform="matrix(16.719,0,0,16.719,303.71584,106.69675)">
        <clipPath id="clip41">
          <path id="path14112" d="m -25.913,-9.6974 0,24.5794 30.5267,0 0,-24.5794 z" />
        </clipPath>
        <g id="g14114" clip-path="url(#clip41)">
          <g style="fill:#000000;fill-opacity:1;fill-rule:nonzero;stroke:none" id="g14116">
            <path id="path14118" d="m 0.32812,-0.29688 -0.03124,0.125 q -0.01563,0.07813 -0.01563,0.093755 0,0.046875 0.03125,0.0625 0.01562,0 0.03125,0 0.04687,0 0.07813,-0.046875 0.03124,-0.03125 0.04687,-0.07812 0,-0.01563 0.01563,-0.01563 0.01562,0 0.01562,0.01563 0,0.01562 -0.03125,0.062495 -0.0625,0.09375 -0.125,0.09375 -0.07813,0 -0.10937,-0.0625 0,-0.015625 0,-0.015625 Q 0.20312,-0.015625 0.15625,0 0.14062,0.015625 0.125,0.015625 q -0.0625,0 -0.09375,-0.046875 0,0 0,-0.03125 0,-0.03125 0.03125,-0.04688 0.015625,0 0.015625,0 0.031255,0 0.046875,0.01563 0,0.015625 0,0.015625 0,0.03125 -0.03125,0.046875 -0.015625,0 -0.015625,0 0.015625,0.015625 0.046875,0.015625 0.04688,0 0.07812,-0.0625 0.01563,-0.015625 0.01563,-0.031255 0.04687,-0.20312 0.04687,-0.25 0,-0.0625 -0.04687,-0.0625 -0.04687,0 -0.09375,0.0625 l 0,0 q 0,0 0,0 -0.01562,0.01563 -0.03125,0.04688 0,0 0,0.01562 l -0.015625,0.01563 q 0,0 0,0 -0.015625,0 -0.015625,0 0,-0.03125 0.03125,-0.07813 0.04687,-0.07812 0.125,-0.07812 0.07813,0 0.10937,0.07812 0.03126,-0.0625 0.07813,-0.07812 0.01563,0 0.03125,0 0.0625,0 0.07812,0.03125 0.01563,0.01563 0.01563,0.03125 0,0.04688 -0.04687,0.04688 0,0.01562 -0.01563,0.01562 -0.03125,0 -0.03125,-0.03125 0,0 0,-0.01563 0,-0.03124 0.03125,-0.04687 0,0 0.01563,0 -0.01563,-0.01563 -0.04688,-0.01563 -0.07812,0 -0.09375,0.10938 -0.01563,0 -0.01563,0.01562 z" />
          </g>
          
        </g>
        
      </g>
      
      <g id="g14120" transform="matrix(16.719,0,0,16.719,313.27084,106.69675)">
        <clipPath id="clip42">
          <path id="path14123" d="m -26.484,-9.6974 0,24.5794 30.5262,0 0,-24.5794 z" />
        </clipPath>
        <g id="g14125" clip-path="url(#clip42)">
          <g style="fill:#000000;fill-opacity:1;fill-rule:nonzero;stroke:none" id="g14127">
            <path id="path14129" d="m 0.28125,-0.25 0,0 q 0,0.171875 -0.0625,0.3125 Q 0.17188,0.17188 0.09375,0.23438 0.078125,0.25 0.0625,0.25 q 0,0 0,-0.01562 0,0 0,-0.01563 Q 0.23438,0.0625 0.23438,-0.25 q 0,-0.3125 -0.156255,-0.46875 l 0,0 Q 0.0625,-0.73438 0.0625,-0.73438 q 0,-0.01562 0,-0.01562 0.015625,0 0.0625,0.04688 0.0625,0.0625 0.09375,0.14062 0.0625,0.14062 0.0625,0.3125 z" />
          </g>
          
        </g>
        
      </g>
      
      <g id="g14131" transform="matrix(16.719,0,0,16.719,-14.981207,143.89458)">
        <clipPath id="clip43">
          <path id="path14134" d="m -1.4737,-12.11 0,24.579 30.5267,0 0,-24.579 z" />
        </clipPath>
        <g id="g14136" clip-path="url(#clip43)">
          <g style="fill:#000000;fill-opacity:1;fill-rule:nonzero;stroke:none" id="g14138">
            <path id="path14140" d="M 0.48438,-0.375 0.39062,0 Q 0.35938,0.09375 0.28125,0.15625 0.21875,0.20312 0.15625,0.20312 0.09375,0.20312 0.0625,0.15625 0.046875,0.14062 0.046875,0.125 q 0,-0.0625 0.046875,-0.0625 0,-0.015625 0.01563,-0.015625 0.03124,0 0.03124,0.03125 0,0 0,0.015625 0,0.01563 -0.01562,0.03125 Q 0.10938,0.14062 0.078125,0.14062 0.09375,0.1875 0.15625,0.1875 q 0.0625,0 0.10937,-0.0625 0.04688,-0.0625 0.0625,-0.140625 0,-0.015625 0,-0.015625 -0.04687,0.046875 -0.09374,0.046875 -0.07813,0 -0.10938,-0.0625 -0.01562,-0.03125 -0.01562,-0.062505 0,-0.04687 0.04687,-0.20312 0,0 0.01563,0 0.01562,-0.04688 0.01562,-0.07812 0,-0.03126 -0.03125,-0.03126 -0.04687,0 -0.09375,0.09376 l 0,0 q 0,0.01562 0,0.03124 -0.015625,0.01563 -0.015625,0.01563 -0.015625,0 -0.015625,0 0,-0.03125 0.015625,-0.0625 0.046875,-0.09375 0.109375,-0.09375 0.0625,0 0.07813,0.04688 Q 0.25,-0.375 0.25,-0.35938 q 0,0.01563 -0.03125,0.07813 -0.04687,0.125 -0.04687,0.1875 0,0.078125 0.0625,0.078125 0.0625,0 0.09374,-0.0625 0.01563,-0.015625 0.01563,-0.015625 l 0.04687,-0.1875 Q 0.40625,-0.3125 0.40625,-0.35938 0.42188,-0.40625 0.42188,-0.40625 0.4375,-0.4375 0.46875,-0.4375 q 0.01563,0.01562 0.01563,0.03125 0,0.01563 0,0.03125 z" />
          </g>
          
        </g>
        
      </g>
      
      <g id="g14142" transform="matrix(16.719,0,0,16.719,-2.1397074,143.89458)">
        <clipPath id="clip44">
          <path id="path14145" d="m -2.2417,-12.11 0,24.579 30.5267,0 0,-24.579 z" />
        </clipPath>
        <g id="g14147" clip-path="url(#clip44)">
          <g style="fill:#000000;fill-opacity:1;fill-rule:nonzero;stroke:none" id="g14149">
            <path id="path14151" d="m 0.6875,-0.32812 -0.59375,0 q -0.03125,0 -0.03125,-0.01563 0,-0.01563 0.03125,-0.01563 l 0.59375,0 q 0.03125,0 0.03125,0.01563 0,0.01563 -0.03125,0.01563 z m 0,0.1875 -0.59375,0 q -0.03125,0 -0.03125,-0.01563 0,-0.01563 0.03125,-0.01563 l 0.59375,0 q 0.03125,0 0.03125,0.01563 0,0.01563 -0.03125,0.01563 z" />
          </g>
          
        </g>
        
      </g>
      
      <g id="g14153" transform="matrix(16.719,0,0,16.719,17.514793,132.56958)">
        <clipPath id="clip45">
          <path id="path14156" d="m -3.4173,-11.434 0,24.579 30.5263,0 0,-24.579 z" />
        </clipPath>
        <g id="g14158" clip-path="url(#clip45)">
          <g style="fill:#000000;fill-opacity:1;fill-rule:nonzero;stroke:none" id="g14160">
            <path id="path14162" d="m 0.29688,-0.64062 0,0.562495 q 0,0.03125 0.01562,0.03125 0.01562,0.015625 0.07812,0.015625 l 0.03126,0 0,0.03125 Q 0.39062,0 0.25,0 0.125,0 0.09375,0 l 0,-0.03125 0.03125,0 q 0.07812,0 0.09375,-0.015625 l 0,0 q 0,-0.015625 0,-0.03125 l 0,-0.515625 q -0.04687,0.01563 -0.125,0.01563 l 0,-0.03126 q 0.10937,0 0.17187,-0.0625 0.03126,0 0.03126,0.01563 l 0,0 0,0 q 0,0 0,0.01563 z" />
          </g>
          
        </g>
        
      </g>
      
      <g id="g14164" transform="matrix(16.719,0,0,16.719,-39.620208,-58.590424)">
        <clipPath id="clip46">
          <path id="path14167" d="m 0,0 0,24.579 30.526,0 0,-24.579 z" />
        </clipPath>
        <g id="g14169" clip-path="url(#clip46)">
          <g style="fill:#000000;fill-opacity:1;fill-rule:nonzero;stroke:none" id="g14171">
            <path id="path14173" d="m 3.4173,11.84 0.5,0 0,0.04 -0.5,0 0,-0.04 z" />
          </g>
          
        </g>
        
      </g>
      
      <g id="g14175" transform="matrix(16.719,0,0,16.719,17.514793,155.35458)">
        <clipPath id="clip47">
          <path id="path14178" d="m -3.4173,-12.796 0,24.579 30.5263,0 0,-24.579 z" />
        </clipPath>
        <g id="g14180" clip-path="url(#clip47)">
          <g style="fill:#000000;fill-opacity:1;fill-rule:nonzero;stroke:none" id="g14182">
            <path id="path14184" d="m 0.45312,-0.17188 0,0 L 0.42188,0 0.046875,0 q 0,-0.03125 0.015625,-0.03125 l 0,0 L 0.25,-0.25 q 0.10938,-0.125 0.10938,-0.21875 0,-0.09375 -0.0625,-0.14063 l 0,0 0,0 q -0.03126,-0.03124 -0.07813,-0.03124 -0.0625,0 -0.10937,0.0625 -0.01563,0.01562 -0.01563,0.04687 0,0 0.01563,0 0.03124,0 0.04687,0.03125 l 0,0 q 0,0.01562 0,0.01562 0,0.04688 -0.04687,0.04688 0,0.01562 0,0.01562 -0.04688,0 -0.062505,-0.03124 0,-0.01563 0,-0.03126 0,-0.07812 0.062505,-0.125 0.04687,-0.0625 0.125,-0.0625 0.10937,0 0.17187,0.07813 0.03125,0.04687 0.04687,0.10937 0,0 0,0.01563 0,0.0625 -0.0625,0.14063 Q 0.35938,-0.29688 0.29688,-0.25 L 0.25,-0.1875 l -0.01562,0 -0.10938,0.109375 0.1875,0 q 0.07812,0 0.09375,0 0,-0.015625 0.01563,-0.093755 l 0.03124,0 z" />
          </g>
          
        </g>
        
      </g>
      
      <g id="g14186" transform="matrix(16.719,0,0,16.719,30.666793,143.89458)">
        <clipPath id="clip48">
          <path id="path14189" d="m -4.204,-12.11 0,24.579 30.526,0 0,-24.579 z" />
        </clipPath>
        <g id="g14191" clip-path="url(#clip48)">
          <g style="fill:#000000;fill-opacity:1;fill-rule:nonzero;stroke:none" id="g14193">
            <path id="path14195" d="m 0.35938,-0.40625 0,0 -0.04688,0.328125 q -0.01562,0.0625 -0.04688,0.140625 0,0.03125 -0.01562,0.04688 -0.03125,0.07812 -0.09375,0.09374 0,0 -0.01563,0 -0.04687,0 -0.07812,-0.03124 -0.015625,-0.01563 -0.015625,-0.03126 0,-0.04687 0.046875,-0.062495 0,0 0.01563,0 0.03124,0 0.03124,0.015625 0,0.01563 0,0.01563 0,0.03124 -0.03124,0.04687 0,0 -0.01563,0.01563 0.01563,0.01562 0.04687,0.01562 0.04688,0 0.0625,-0.109375 Q 0.21875,0.0625 0.21875,0.03125 l 0,-0.03125 0.07813,-0.40625 -0.0625,0 q -0.03126,0 -0.03126,0 l 0,0 0,0 q 0,-0.01563 0.01563,-0.03125 l 0,0 0.01563,0 0.07812,0 Q 0.32812,-0.5625 0.34375,-0.59375 0.375,-0.6875 0.4375,-0.70312 q 0.01562,0 0.03125,0 0.04687,0 0.07813,0.03124 l 0,0 q 0,0.01563 0,0.03126 0,0.04687 -0.03126,0.0625 0,0 -0.01562,0 -0.03125,0 -0.03125,-0.01563 -0.01563,-0.01563 -0.01563,-0.01563 0,-0.03124 0.03126,-0.04687 0.01562,0 0.03124,-0.01563 Q 0.5,-0.6875 0.46875,-0.6875 q -0.03125,0 -0.04687,0.03125 -0.01563,0.01563 -0.03126,0.10937 L 0.375,-0.4375 l 0.07812,0 q 0.03126,0 0.03126,0.01562 0,0.01563 -0.01563,0.01563 l 0,0 -0.01563,0 -0.09374,0 z" />
          </g>
          
        </g>
        
      </g>
      
      <g id="g14197" transform="matrix(16.719,0,0,16.719,38.852293,143.89458)">
        <clipPath id="clip49">
          <path id="path14200" d="m -4.6936,-12.11 0,24.579 30.5266,0 0,-24.579 z" />
        </clipPath>
        <g id="g14202" clip-path="url(#clip49)">
          <g style="fill:#000000;fill-opacity:1;fill-rule:nonzero;stroke:none" id="g14204">
            <path id="path14206" d="m 0.32812,0.23438 0,0 q 0,0.01562 0,0.01562 Q 0.3125,0.25 0.26562,0.20312 0.20312,0.14062 0.17188,0.0625 0.09375,-0.078125 0.09375,-0.25 q 0,-0.17188 0.0625,-0.3125 0.0625,-0.10938 0.14063,-0.17188 Q 0.3125,-0.75 0.32812,-0.75 q 0,0 0,0.01562 0,0 -0.01562,0.01563 -0.15625,0.15625 -0.15625,0.46875 0,0.3125 0.15625,0.46875 0.01562,0.01563 0.01562,0.01563 z" />
          </g>
          
        </g>
        
      </g>
      
      <g id="g14208" transform="matrix(16.719,0,0,16.719,45.354793,143.89458)">
        <clipPath id="clip50">
          <path id="path14211" d="m -5.0824,-12.11 0,24.579 30.5264,0 0,-24.579 z" />
        </clipPath>
        <g id="g14213" clip-path="url(#clip50)">
          <g style="fill:#000000;fill-opacity:1;fill-rule:nonzero;stroke:none" id="g14215">
            <path id="path14217" d="m 0.32812,-0.29688 -0.03124,0.125 q -0.01563,0.07813 -0.01563,0.093755 0,0.046875 0.03125,0.0625 0.01562,0 0.03125,0 0.04687,0 0.07813,-0.046875 0.03124,-0.03125 0.04687,-0.07812 0,-0.01563 0.01563,-0.01563 0.01562,0 0.01562,0.01563 0,0.01562 -0.03125,0.062495 -0.0625,0.09375 -0.125,0.09375 -0.07813,0 -0.10937,-0.0625 0,-0.015625 0,-0.015625 Q 0.20312,-0.015625 0.15625,0 0.14062,0.015625 0.125,0.015625 q -0.0625,0 -0.09375,-0.046875 0,0 0,-0.03125 0,-0.03125 0.03125,-0.04688 0.015625,0 0.015625,0 0.031255,0 0.046875,0.01563 0,0.015625 0,0.015625 0,0.03125 -0.03125,0.046875 -0.015625,0 -0.015625,0 0.015625,0.015625 0.046875,0.015625 0.04688,0 0.07812,-0.0625 0.01563,-0.015625 0.01563,-0.031255 0.04687,-0.20312 0.04687,-0.25 0,-0.0625 -0.04687,-0.0625 -0.04687,0 -0.09375,0.0625 l 0,0 q 0,0 0,0 -0.01562,0.01563 -0.03125,0.04688 0,0 0,0.01562 l -0.015625,0.01563 q 0,0 0,0 -0.015625,0 -0.015625,0 0,-0.03125 0.03125,-0.07813 0.04687,-0.07812 0.125,-0.07812 0.07813,0 0.10937,0.07812 0.03126,-0.0625 0.07813,-0.07812 0.01563,0 0.03125,0 0.0625,0 0.07812,0.03125 0.01563,0.01563 0.01563,0.03125 0,0.04688 -0.04687,0.04688 0,0.01562 -0.01563,0.01562 -0.03125,0 -0.03125,-0.03125 0,0 0,-0.01563 0,-0.03124 0.03125,-0.04687 0,0 0.01563,0 -0.01563,-0.01563 -0.04688,-0.01563 -0.07812,0 -0.09375,0.10938 -0.01563,0 -0.01563,0.01562 z" />
          </g>
          
        </g>
        
      </g>
      
      <g id="g14219" transform="matrix(16.719,0,0,16.719,58.625293,143.89458)">
        <clipPath id="clip51">
          <path id="path14222" d="m -5.8762,-12.11 0,24.579 30.5262,0 0,-24.579 z" />
        </clipPath>
        <g id="g14224" clip-path="url(#clip51)">
          <g style="fill:#000000;fill-opacity:1;fill-rule:nonzero;stroke:none" id="g14226">
            <path id="path14228" d="m 0.40625,-0.23438 0,0.281255 q 0,0.03125 -0.01563,0.03125 -0.01562,0 -0.01562,-0.03125 l 0,-0.281255 -0.28125,0 q -0.03125,0 -0.03125,-0.01562 0,-0.01562 0.03125,-0.01562 l 0.28125,0 0,-0.28126 q 0,-0.03124 0.01562,-0.03124 0.01563,0 0.01563,0.03124 l 0,0.28126 0.28125,0 q 0.03125,0 0.03125,0.01562 0,0.01562 -0.03125,0.01562 l -0.28125,0 z" />
          </g>
          
        </g>
        
      </g>
      
      <g id="g14230" transform="matrix(16.719,0,0,16.719,75.345789,143.89458)">
        <clipPath id="clip52">
          <path id="path14233" d="m -6.8762,-12.11 0,24.579 30.5262,0 0,-24.579 z" />
        </clipPath>
        <g id="g14235" clip-path="url(#clip52)">
          <g style="fill:#000000;fill-opacity:1;fill-rule:nonzero;stroke:none" id="g14237">
            <path id="path14239" d="m 0.45312,-0.17188 0,0 L 0.42188,0 0.046875,0 q 0,-0.03125 0.015625,-0.03125 l 0,0 L 0.25,-0.25 q 0.10938,-0.125 0.10938,-0.21875 0,-0.09375 -0.0625,-0.14063 l 0,0 0,0 q -0.03126,-0.03124 -0.07813,-0.03124 -0.0625,0 -0.10937,0.0625 -0.01563,0.01562 -0.01563,0.04687 0,0 0.01563,0 0.03124,0 0.04687,0.03125 l 0,0 q 0,0.01562 0,0.01562 0,0.04688 -0.04687,0.04688 0,0.01562 0,0.01562 -0.04688,0 -0.062505,-0.03124 0,-0.01563 0,-0.03126 0,-0.07812 0.062505,-0.125 0.04687,-0.0625 0.125,-0.0625 0.10937,0 0.17187,0.07813 0.03125,0.04687 0.04687,0.10937 0,0 0,0.01563 0,0.0625 -0.0625,0.14063 Q 0.35938,-0.29688 0.29688,-0.25 L 0.25,-0.1875 l -0.01562,0 -0.10938,0.109375 0.1875,0 q 0.07812,0 0.09375,0 0,-0.015625 0.01563,-0.093755 l 0.03124,0 z" />
          </g>
          
        </g>
        
      </g>
      
      <g id="g14241" transform="matrix(16.719,0,0,16.719,83.705289,143.89458)">
        <clipPath id="clip53">
          <path id="path14244" d="m -7.3762,-12.11 0,24.579 30.5262,0 0,-24.579 z" />
        </clipPath>
        <g id="g14246" clip-path="url(#clip53)">
          <g style="fill:#000000;fill-opacity:1;fill-rule:nonzero;stroke:none" id="g14248">
            <path id="path14250" d="m 0.28125,-0.25 0,0 q 0,0.171875 -0.0625,0.3125 Q 0.17188,0.17188 0.09375,0.23438 0.078125,0.25 0.0625,0.25 q 0,0 0,-0.01562 0,0 0,-0.01563 Q 0.23438,0.0625 0.23438,-0.25 q 0,-0.3125 -0.156255,-0.46875 l 0,0 Q 0.0625,-0.73438 0.0625,-0.73438 q 0,-0.01562 0,-0.01562 0.015625,0 0.0625,0.04688 0.0625,0.0625 0.09375,0.14062 0.0625,0.14062 0.0625,0.3125 z" />
          </g>
          
        </g>
        
      </g>
      
    </g>
    
  </g>
  
</svg>