<?xml version='1.0' ?><svg xmlns:dc="http://purl.org/dc/elements/1.1/" xmlns:cc="http://creativecommons.org/ns#" xmlns:rdf="http://www.w3.org/1999/02/22-rdf-syntax-ns#" xmlns:svg="http://www.w3.org/2000/svg" xmlns="http://www.w3.org/2000/svg" id="svg4068" y="0px" x="0px" version="1.1" width="261.41206" height="211.21009" viewBox="0.0 841.3622313071961 261.4120635131568 211.21009283848485" preserveAspectRatio="none">
  <metadata id="metadata4630">
    <rdf:RDF>
      <cc:Work rdf:about="">
        <dc:format>image/svg+xml</dc:format>
        <dc:type rdf:resource="http://purl.org/dc/dcmitype/StillImage" />
      </cc:Work>
    </rdf:RDF>
  </metadata>
  <defs id="defs4628" />
  <title id="title4070" />
  <g transform="translate(0,841.36222)" style="stroke-width:1;stroke-linecap:square;stroke-linejoin:miter;stroke-miterlimit:10;stroke-dasharray:none;stroke-dashoffset:0" id="g4072" stroke-miterlimit="10.000">
    <g id="g4074" transform="scale(0.45227,0.45227)">
      <clipPath id="clip1">
        <path id="path4077" d="m 0,0 0,467 580,0 0,-467 z" />
      </clipPath>
      <g id="g4079" clip-path="url(#clip1)">
        <g style="fill:none;stroke:#000000;stroke-width:2;stroke-linecap:butt;stroke-opacity:1" id="g4081">
          <path id="path4083" d="m 240.91,3 0,464" />
        </g>
        
      </g>
      
    </g>
    
    <g id="g4085" transform="scale(0.45227,0.45227)">
      <clipPath id="clip2">
        <path id="path4088" d="m 0,0 0,467 580,0 0,-467 z" />
      </clipPath>
      <g id="g4090" clip-path="url(#clip2)">
        <g style="fill:#000000;fill-opacity:1;fill-rule:evenodd;stroke:none" id="g4092">
          <path id="path4094" d="m 240.91,2 -5,20 10,0" />
        </g>
        
      </g>
      
    </g>
    
    <g id="g4096" transform="scale(0.45227,0.45227)">
      <clipPath id="clip3">
        <path id="path4099" d="m 0,0 0,467 580,0 0,-467 z" />
      </clipPath>
      <g id="g4101" clip-path="url(#clip3)">
        <g style="fill:none;stroke:#000000;stroke-width:2;stroke-linecap:butt;stroke-opacity:1" id="g4103">
          <path id="path4105" d="m 0,360.44 577,0" />
        </g>
        
      </g>
      
    </g>
    
    <g id="g4107" transform="scale(0.45227,0.45227)">
      <clipPath id="clip4">
        <path id="path4110" d="m 0,0 0,467 580,0 0,-467 z" />
      </clipPath>
      <g id="g4112" clip-path="url(#clip4)">
        <g style="fill:#000000;fill-opacity:1;fill-rule:evenodd;stroke:none" id="g4114">
          <path id="path4116" d="m 578,360.44 -20,-5 0,10" />
        </g>
        
      </g>
      
    </g>
    
    <g id="g4118" transform="scale(0.45227,0.45227)">
      <clipPath id="clip5">
        <path id="path4121" d="m 0,0 0,467 580,0 0,-467 z" />
      </clipPath>
      <g id="g4123" clip-path="url(#clip5)">
        <g style="fill:#000000;fill-opacity:1;fill-rule:nonzero;stroke:none" id="g4125">
          <path id="path4127" d="m 46.718,374.29 0,-0.93 5.564,0 0,0.93 z m 7.704,3.63 0,-1.25 q 1.449,0.57 2.283,0.57 0.964,0 1.569,-0.56 0.605,-0.57 0.605,-1.46 0,-2.14 -2.987,-2.14 l -0.534,0 0,-0.9 0.472,-0.01 q 2.803,0 2.803,-1.98 0,-1.55 -1.846,-1.55 -1.012,0 -2.228,0.57 l 0,-1.18 q 1.196,-0.4 2.324,-0.4 3.103,0 3.103,2.34 0,1.79 -2.112,2.55 2.447,0.56 2.447,2.68 0,1.43 -0.943,2.24 -0.943,0.81 -2.591,0.81 -0.936,0 -2.365,-0.33 z" />
        </g>
        
      </g>
      
    </g>
    
    <g id="g4129" transform="scale(0.45227,0.45227)">
      <clipPath id="clip6">
        <path id="path4132" d="m 0,0 0,467 580,0 0,-467 z" />
      </clipPath>
      <g id="g4134" clip-path="url(#clip6)">
        <g style="fill:none;stroke:#000000;stroke-width:2;stroke-linecap:butt;stroke-opacity:1" id="g4136">
          <path id="path4138" d="m 52.88,360.44 0,4" />
        </g>
        
      </g>
      
    </g>
    
    <g id="g4140" transform="scale(0.45227,0.45227)">
      <clipPath id="clip7">
        <path id="path4143" d="m 0,0 0,467 580,0 0,-467 z" />
      </clipPath>
      <g id="g4145" clip-path="url(#clip7)">
        <g style="fill:#000000;fill-opacity:1;fill-rule:nonzero;stroke:none" id="g4147">
          <path id="path4149" d="m 109.72,374.29 0,-0.93 5.56,0 0,0.93 z m 7.44,3.71 0,-1.18 q 0.59,-1.38 2.38,-3 l 0.77,-0.69 q 1.49,-1.34 1.49,-2.67 0,-0.85 -0.51,-1.33 -0.5,-0.49 -1.39,-0.49 -1.06,0 -2.48,0.82 l 0,-1.19 q 1.34,-0.64 2.67,-0.64 1.42,0 2.28,0.77 0.86,0.76 0.86,2.03 0,0.9 -0.43,1.61 -0.44,0.7 -1.62,1.71 l -0.52,0.44 q -1.62,1.38 -1.87,2.63 l 4.39,0 0,1.18 z" />
        </g>
        
      </g>
      
    </g>
    
    <g id="g4151" transform="scale(0.45227,0.45227)">
      <clipPath id="clip8">
        <path id="path4154" d="m 0,0 0,467 580,0 0,-467 z" />
      </clipPath>
      <g id="g4156" clip-path="url(#clip8)">
        <g style="fill:none;stroke:#000000;stroke-width:2;stroke-linecap:butt;stroke-opacity:1" id="g4158">
          <path id="path4160" d="m 115.56,360.44 0,4" />
        </g>
        
      </g>
      
    </g>
    
    <g id="g4162" transform="scale(0.45227,0.45227)">
      <clipPath id="clip9">
        <path id="path4165" d="m 0,0 0,467 580,0 0,-467 z" />
      </clipPath>
      <g id="g4167" clip-path="url(#clip9)">
        <g style="fill:#000000;fill-opacity:1;fill-rule:nonzero;stroke:none" id="g4169">
          <path id="path4171" d="m 172.72,374.29 0,-0.93 5.56,0 0,0.93 z m 8.39,3.71 0,-1.01 2.02,0 0,-7.99 -2.02,0.51 0,-1.04 3.37,-0.84 0,9.36 2.03,0 0,1.01 z" />
        </g>
        
      </g>
      
    </g>
    
    <g id="g4173" transform="scale(0.45227,0.45227)">
      <clipPath id="clip10">
        <path id="path4176" d="m 0,0 0,467 580,0 0,-467 z" />
      </clipPath>
      <g id="g4178" clip-path="url(#clip10)">
        <g style="fill:none;stroke:#000000;stroke-width:2;stroke-linecap:butt;stroke-opacity:1" id="g4180">
          <path id="path4182" d="m 178.23,360.44 0,4" />
        </g>
        
      </g>
      
    </g>
    
    <g id="g4184" transform="scale(0.45227,0.45227)">
      <clipPath id="clip11">
        <path id="path4187" d="m 0,0 0,467 580,0 0,-467 z" />
      </clipPath>
      <g id="g4189" clip-path="url(#clip11)">
        <g style="fill:#000000;fill-opacity:1;fill-rule:nonzero;stroke:none" id="g4191">
          <path id="path4193" d="m 250.39,378.25 q -1.57,0 -2.53,-1.47 -0.97,-1.47 -0.97,-3.85 0,-2.39 0.97,-3.84 0.98,-1.46 2.57,-1.46 1.59,0 2.57,1.46 0.97,1.45 0.97,3.82 0,2.44 -0.97,3.89 -0.98,1.45 -2.61,1.45 z m 0.01,-1.01 q 2.14,0 2.14,-4.35 0,-4.25 -2.11,-4.25 -2.11,0 -2.11,4.29 0,4.31 2.08,4.31 z" />
        </g>
        
      </g>
      
    </g>
    
    <g id="g4195" transform="scale(0.45227,0.45227)">
      <clipPath id="clip12">
        <path id="path4198" d="m 0,0 0,467 580,0 0,-467 z" />
      </clipPath>
      <g id="g4200" clip-path="url(#clip12)">
        <g style="fill:#000000;fill-opacity:1;fill-rule:nonzero;stroke:none" id="g4202">
          <path id="path4204" d="m 303.11,378 0,-1.01 2.02,0 0,-7.99 -2.02,0.51 0,-1.04 3.37,-0.84 0,9.36 2.03,0 0,1.01 z" />
        </g>
        
      </g>
      
    </g>
    
    <g id="g4206" transform="scale(0.45227,0.45227)">
      <clipPath id="clip13">
        <path id="path4209" d="m 0,0 0,467 580,0 0,-467 z" />
      </clipPath>
      <g id="g4211" clip-path="url(#clip13)">
        <g style="fill:none;stroke:#000000;stroke-width:2;stroke-linecap:butt;stroke-opacity:1" id="g4213">
          <path id="path4215" d="m 303.58,360.44 0,4" />
        </g>
        
      </g>
      
    </g>
    
    <g id="g4217" transform="scale(0.45227,0.45227)">
      <clipPath id="clip14">
        <path id="path4220" d="m 0,0 0,467 580,0 0,-467 z" />
      </clipPath>
      <g id="g4222" clip-path="url(#clip14)">
        <g style="fill:#000000;fill-opacity:1;fill-rule:nonzero;stroke:none" id="g4224">
          <path id="path4226" d="m 364.16,378 0,-1.18 q 0.59,-1.38 2.38,-3 l 0.77,-0.69 q 1.49,-1.34 1.49,-2.67 0,-0.85 -0.51,-1.33 -0.5,-0.49 -1.39,-0.49 -1.06,0 -2.48,0.82 l 0,-1.19 q 1.34,-0.64 2.67,-0.64 1.42,0 2.28,0.77 0.86,0.76 0.86,2.03 0,0.9 -0.43,1.61 -0.44,0.7 -1.62,1.71 l -0.52,0.44 q -1.62,1.38 -1.87,2.63 l 4.39,0 0,1.18 z" />
        </g>
        
      </g>
      
    </g>
    
    <g id="g4228" transform="scale(0.45227,0.45227)">
      <clipPath id="clip15">
        <path id="path4231" d="m 0,0 0,467 580,0 0,-467 z" />
      </clipPath>
      <g id="g4233" clip-path="url(#clip15)">
        <g style="fill:none;stroke:#000000;stroke-width:2;stroke-linecap:butt;stroke-opacity:1" id="g4235">
          <path id="path4237" d="m 366.26,360.44 0,4" />
        </g>
        
      </g>
      
    </g>
    
    <g id="g4239" transform="scale(0.45227,0.45227)">
      <clipPath id="clip16">
        <path id="path4242" d="m 0,0 0,467 580,0 0,-467 z" />
      </clipPath>
      <g id="g4244" clip-path="url(#clip16)">
        <g style="fill:#000000;fill-opacity:1;fill-rule:nonzero;stroke:none" id="g4246">
          <path id="path4248" d="m 427.42,377.92 0,-1.25 q 1.45,0.57 2.29,0.57 0.96,0 1.56,-0.56 0.61,-0.57 0.61,-1.46 0,-2.14 -2.99,-2.14 l -0.53,0 0,-0.9 0.47,-0.01 q 2.8,0 2.8,-1.98 0,-1.55 -1.84,-1.55 -1.01,0 -2.23,0.57 l 0,-1.18 q 1.19,-0.4 2.32,-0.4 3.11,0 3.11,2.34 0,1.79 -2.12,2.55 2.45,0.56 2.45,2.68 0,1.43 -0.94,2.24 -0.95,0.81 -2.59,0.81 -0.94,0 -2.37,-0.33 z" />
        </g>
        
      </g>
      
    </g>
    
    <g id="g4250" transform="scale(0.45227,0.45227)">
      <clipPath id="clip17">
        <path id="path4253" d="m 0,0 0,467 580,0 0,-467 z" />
      </clipPath>
      <g id="g4255" clip-path="url(#clip17)">
        <g style="fill:none;stroke:#000000;stroke-width:2;stroke-linecap:butt;stroke-opacity:1" id="g4257">
          <path id="path4259" d="m 428.93,360.44 0,4" />
        </g>
        
      </g>
      
    </g>
    
    <g id="g4261" transform="scale(0.45227,0.45227)">
      <clipPath id="clip18">
        <path id="path4264" d="m 0,0 0,467 580,0 0,-467 z" />
      </clipPath>
      <g id="g4266" clip-path="url(#clip18)">
        <g style="fill:#000000;fill-opacity:1;fill-rule:nonzero;stroke:none" id="g4268">
          <path id="path4270" d="m 494.27,378 0,-2.86 -4.55,0 0,-1.02 4.55,-6.24 1.27,0 0,6.16 1.35,0 0,1.1 -1.35,0 0,2.86 z m -3.23,-3.96 3.32,0 0,-4.5 z" />
        </g>
        
      </g>
      
    </g>
    
    <g id="g4272" transform="scale(0.45227,0.45227)">
      <clipPath id="clip19">
        <path id="path4275" d="m 0,0 0,467 580,0 0,-467 z" />
      </clipPath>
      <g id="g4277" clip-path="url(#clip19)">
        <g style="fill:none;stroke:#000000;stroke-width:2;stroke-linecap:butt;stroke-opacity:1" id="g4279">
          <path id="path4281" d="m 491.61,360.44 0,4" />
        </g>
        
      </g>
      
    </g>
    
    <g id="g4283" transform="scale(0.45227,0.45227)">
      <clipPath id="clip20">
        <path id="path4286" d="m 0,0 0,467 580,0 0,-467 z" />
      </clipPath>
      <g id="g4288" clip-path="url(#clip20)">
        <g style="fill:#000000;fill-opacity:1;fill-rule:nonzero;stroke:none" id="g4290">
          <path id="path4292" d="m 552.7,378.04 0,-1.2 q 1.01,0.4 1.92,0.4 0.99,0 1.57,-0.59 0.57,-0.58 0.57,-1.62 0,-2.27 -3.14,-2.27 -0.36,0 -0.75,0.04 l 0,-4.92 5.12,0 0,1.18 -3.93,0 0,2.66 q 1.94,0 3.04,0.9 1.09,0.9 1.09,2.48 0,1.48 -0.99,2.32 -1,0.83 -2.76,0.83 -0.77,0 -1.74,-0.21 z" />
        </g>
        
      </g>
      
    </g>
    
    <g id="g4294" transform="scale(0.45227,0.45227)">
      <clipPath id="clip21">
        <path id="path4297" d="m 0,0 0,467 580,0 0,-467 z" />
      </clipPath>
      <g id="g4299" clip-path="url(#clip21)">
        <g style="fill:none;stroke:#000000;stroke-width:2;stroke-linecap:butt;stroke-opacity:1" id="g4301">
          <path id="path4303" d="m 554.28,360.44 0,4" />
        </g>
        
      </g>
      
    </g>
    
    <g id="g4305" transform="scale(0.45227,0.45227)">
      <clipPath id="clip22">
        <path id="path4308" d="m 0,0 0,467 580,0 0,-467 z" />
      </clipPath>
      <g id="g4310" clip-path="url(#clip22)">
        <g style="fill:#000000;fill-opacity:1;fill-rule:nonzero;stroke:none" id="g4312">
          <path id="path4314" d="m 219.72,425.29 0,-0.93 5.56,0 0,0.93 z m 8.39,3.71 0,-1.01 2.02,0 0,-7.99 -2.02,0.51 0,-1.04 3.37,-0.84 0,9.36 2.03,0 0,1.01 z" />
        </g>
        
      </g>
      
    </g>
    
    <g id="g4316" transform="scale(0.45227,0.45227)">
      <clipPath id="clip23">
        <path id="path4319" d="m 0,0 0,467 580,0 0,-467 z" />
      </clipPath>
      <g id="g4321" clip-path="url(#clip23)">
        <g style="fill:none;stroke:#000000;stroke-width:2;stroke-linecap:butt;stroke-opacity:1" id="g4323">
          <path id="path4325" d="m 236.91,423.12 4,0" />
        </g>
        
      </g>
      
    </g>
    
    <g id="g4327" transform="scale(0.45227,0.45227)">
      <clipPath id="clip24">
        <path id="path4330" d="m 0,0 0,467 580,0 0,-467 z" />
      </clipPath>
      <g id="g4332" clip-path="url(#clip24)">
        <g style="fill:#000000;fill-opacity:1;fill-rule:nonzero;stroke:none" id="g4334">
          <path id="path4336" d="m 230.39,358.25 q -1.57,0 -2.53,-1.47 -0.97,-1.47 -0.97,-3.85 0,-2.39 0.97,-3.84 0.98,-1.46 2.57,-1.46 1.59,0 2.57,1.46 0.97,1.45 0.97,3.82 0,2.44 -0.97,3.89 -0.98,1.45 -2.61,1.45 z m 0.01,-1.01 q 2.14,0 2.14,-4.35 0,-4.25 -2.11,-4.25 -2.11,0 -2.11,4.29 0,4.31 2.08,4.31 z" />
        </g>
        
      </g>
      
    </g>
    
    <g id="g4338" transform="scale(0.45227,0.45227)">
      <clipPath id="clip25">
        <path id="path4341" d="m 0,0 0,467 580,0 0,-467 z" />
      </clipPath>
      <g id="g4343" clip-path="url(#clip25)">
        <g style="fill:#000000;fill-opacity:1;fill-rule:nonzero;stroke:none" id="g4345">
          <path id="path4347" d="m 228.11,303 0,-1.01 2.02,0 0,-7.99 -2.02,0.51 0,-1.04 3.37,-0.84 0,9.36 2.03,0 0,1.01 z" />
        </g>
        
      </g>
      
    </g>
    
    <g id="g4349" transform="scale(0.45227,0.45227)">
      <clipPath id="clip26">
        <path id="path4352" d="m 0,0 0,467 580,0 0,-467 z" />
      </clipPath>
      <g id="g4354" clip-path="url(#clip26)">
        <g style="fill:none;stroke:#000000;stroke-width:2;stroke-linecap:butt;stroke-opacity:1" id="g4356">
          <path id="path4358" d="m 236.91,297.77 4,0" />
        </g>
        
      </g>
      
    </g>
    
    <g id="g4360" transform="scale(0.45227,0.45227)">
      <clipPath id="clip27">
        <path id="path4363" d="m 0,0 0,467 580,0 0,-467 z" />
      </clipPath>
      <g id="g4365" clip-path="url(#clip27)">
        <g style="fill:#000000;fill-opacity:1;fill-rule:nonzero;stroke:none" id="g4367">
          <path id="path4369" d="m 227.16,241 0,-1.18 q 0.59,-1.38 2.38,-3 l 0.77,-0.69 q 1.49,-1.34 1.49,-2.67 0,-0.85 -0.51,-1.33 -0.5,-0.49 -1.39,-0.49 -1.06,0 -2.48,0.82 l 0,-1.19 q 1.34,-0.64 2.67,-0.64 1.42,0 2.28,0.77 0.86,0.76 0.86,2.03 0,0.9 -0.43,1.61 -0.44,0.7 -1.62,1.71 l -0.52,0.44 q -1.62,1.38 -1.87,2.63 l 4.39,0 0,1.18 z" />
        </g>
        
      </g>
      
    </g>
    
    <g id="g4371" transform="scale(0.45227,0.45227)">
      <clipPath id="clip28">
        <path id="path4374" d="m 0,0 0,467 580,0 0,-467 z" />
      </clipPath>
      <g id="g4376" clip-path="url(#clip28)">
        <g style="fill:none;stroke:#000000;stroke-width:2;stroke-linecap:butt;stroke-opacity:1" id="g4378">
          <path id="path4380" d="m 236.91,235.09 4,0" />
        </g>
        
      </g>
      
    </g>
    
    <g id="g4382" transform="scale(0.45227,0.45227)">
      <clipPath id="clip29">
        <path id="path4385" d="m 0,0 0,467 580,0 0,-467 z" />
      </clipPath>
      <g id="g4387" clip-path="url(#clip29)">
        <g style="fill:#000000;fill-opacity:1;fill-rule:nonzero;stroke:none" id="g4389">
          <path id="path4391" d="m 227.42,177.92 0,-1.25 q 1.45,0.57 2.29,0.57 0.96,0 1.56,-0.56 0.61,-0.57 0.61,-1.46 0,-2.14 -2.99,-2.14 l -0.53,0 0,-0.9 0.47,-0.01 q 2.8,0 2.8,-1.98 0,-1.55 -1.84,-1.55 -1.01,0 -2.23,0.57 l 0,-1.18 q 1.19,-0.4 2.32,-0.4 3.11,0 3.11,2.34 0,1.79 -2.12,2.55 2.45,0.56 2.45,2.68 0,1.43 -0.94,2.24 -0.95,0.81 -2.59,0.81 -0.94,0 -2.37,-0.33 z" />
        </g>
        
      </g>
      
    </g>
    
    <g id="g4393" transform="scale(0.45227,0.45227)">
      <clipPath id="clip30">
        <path id="path4396" d="m 0,0 0,467 580,0 0,-467 z" />
      </clipPath>
      <g id="g4398" clip-path="url(#clip30)">
        <g style="fill:none;stroke:#000000;stroke-width:2;stroke-linecap:butt;stroke-opacity:1" id="g4400">
          <path id="path4402" d="m 236.91,172.41 4,0" />
        </g>
        
      </g>
      
    </g>
    
    <g id="g4404" transform="scale(0.45227,0.45227)">
      <clipPath id="clip31">
        <path id="path4407" d="m 0,0 0,467 580,0 0,-467 z" />
      </clipPath>
      <g id="g4409" clip-path="url(#clip31)">
        <g style="fill:#000000;fill-opacity:1;fill-rule:nonzero;stroke:none" id="g4411">
          <path id="path4413" d="m 231.27,115 0,-2.86 -4.55,0 0,-1.02 4.55,-6.24 1.27,0 0,6.16 1.35,0 0,1.1 -1.35,0 0,2.86 z m -3.23,-3.96 3.32,0 0,-4.5 z" />
        </g>
        
      </g>
      
    </g>
    
    <g id="g4415" transform="scale(0.45227,0.45227)">
      <clipPath id="clip32">
        <path id="path4418" d="m 0,0 0,467 580,0 0,-467 z" />
      </clipPath>
      <g id="g4420" clip-path="url(#clip32)">
        <g style="fill:none;stroke:#000000;stroke-width:2;stroke-linecap:butt;stroke-opacity:1" id="g4422">
          <path id="path4424" d="m 236.91,109.74 4,0" />
        </g>
        
      </g>
      
    </g>
    
    <g id="g4426" transform="scale(0.45227,0.45227)">
      <clipPath id="clip33">
        <path id="path4429" d="m 0,0 0,467 580,0 0,-467 z" />
      </clipPath>
      <g id="g4431" clip-path="url(#clip33)">
        <g style="fill:#000000;fill-opacity:1;fill-rule:nonzero;stroke:none" id="g4433">
          <path id="path4435" d="m 227.7,53.041 0,-1.203 q 1.01,0.403 1.92,0.403 0.99,0 1.57,-0.588 0.57,-0.588 0.57,-1.62 0,-2.276 -3.14,-2.276 -0.36,0 -0.75,0.048 l 0,-4.922 5.12,0 0,1.176 -3.93,0 0,2.666 q 1.94,0 3.04,0.895 1.09,0.896 1.09,2.482 0,1.476 -0.99,2.314 -1,0.837 -2.76,0.837 -0.77,0 -1.74,-0.212 z" />
        </g>
        
      </g>
      
    </g>
    
    <g id="g4437" transform="scale(0.45227,0.45227)">
      <clipPath id="clip34">
        <path id="path4440" d="m 0,0 0,467 580,0 0,-467 z" />
      </clipPath>
      <g id="g4442" clip-path="url(#clip34)">
        <g style="fill:none;stroke:#000000;stroke-width:2;stroke-linecap:butt;stroke-opacity:1" id="g4444">
          <path id="path4446" d="m 236.91,47.063 4,0" />
        </g>
        
      </g>
      
    </g>
    
    <g id="misc" />
    
    <g id="layer0">
      <g id="g4450" transform="scale(0.45227,0.45227)">
        <clipPath id="clip35">
          <path id="path4453" d="m 0,0 0,467 580,0 0,-467 z" />
        </clipPath>
        <g id="g4455" clip-path="url(#clip35)">
          <g style="fill:none;stroke:#cc0000;stroke-width:2.5;stroke-linecap:round;stroke-linejoin:round;stroke-opacity:1" id="g4457">
            <path id="path4459" d="m 167.09,472.95 0.57,-6.32 0.56,-6.26 0.57,-6.2 0.57,-6.12 0.56,-6.07 0.57,-5.99 0.56,-5.93 0.57,-5.87 0.57,-5.8 0.56,-5.74 0.57,-5.67 0.57,-5.61 0.56,-5.54 0.57,-5.48 0.57,-5.42 0.56,-5.36 0.57,-5.29 0.57,-5.24 0.56,-5.17 0.57,-5.1 0.56,-5.05 1.14,-9.91 1.13,-9.67 1.13,-9.43 1.14,-9.19 1.13,-8.96 1.13,-8.72 1.13,-8.49 1.14,-8.26 1.13,-8.04 1.13,-7.81 1.14,-7.6 1.13,-7.37 1.13,-7.15 1.13,-6.94 1.14,-6.72 1.13,-6.52 1.13,-6.3 1.14,-6.1 1.13,-5.89 1.13,-5.7 1.13,-5.49 1.14,-5.29 1.13,-5.1 1.13,-4.91 2.27,-9.24 2.26,-8.5 2.27,-7.77 2.26,-7.06 2.27,-6.36 2.27,-5.69 2.26,-5.03 4.53,-8.17 4.53,-5.75 1.14,-1.08 1.13,-0.93 2.26,-1.47 1.14,-0.53 1.13,-0.4 2.27,-0.41 1.13,-0.02 1.13,0.1 2.27,0.56 1.13,0.45 1.13,0.57 2.27,1.47 4.53,4.19 4.53,5.76 4.53,7.18 4.53,8.46 4.54,9.59 2.26,5.18 2.27,5.41 2.26,5.62 2.27,5.82 2.26,6 2.27,6.15 2.26,6.3 2.27,6.42 2.27,6.53 2.26,6.61 2.27,6.69 2.26,6.74 2.27,6.78 2.26,6.79 2.27,6.8 2.26,6.77 2.27,6.74 2.27,6.69 2.26,6.62 2.27,6.52 2.26,6.42 2.27,6.3 2.26,6.15 2.27,6 2.27,5.81 2.26,5.62 2.27,5.41 2.26,5.18 4.53,9.59 4.54,8.45 4.53,7.17 4.53,5.75 4.53,4.19 2.26,1.46 2.27,1.02 1.13,0.34 1.14,0.22 2.26,0.07 1.13,-0.14 1.14,-0.28 2.26,-0.93 1.14,-0.67 1.13,-0.8 2.26,-2.02 2.27,-2.59 2.26,-3.17 4.54,-8.18 2.26,-5.04 2.27,-5.7 2.26,-6.37 2.27,-7.06 2.26,-7.78 2.27,-8.5 2.27,-9.25 1.13,-4.91 1.13,-5.11 1.13,-5.3 1.14,-5.49 1.13,-5.7 1.13,-5.9 1.14,-6.1 1.13,-6.31 1.13,-6.52 1.13,-6.73 1.14,-6.94 1.13,-7.16 1.13,-7.37 1.14,-7.6 1.13,-7.81 1.13,-8.04 1.13,-8.27 1.14,-8.5 1.13,-8.73 1.13,-8.96 1.13,-9.19 1.14,-9.44 1.13,-9.67 1.13,-9.92 0.57,-5.05 0.57,-5.11 0.56,-5.17 0.57,-5.232 0.57,-5.296 0.56,-5.359 0.57,-5.421 0.56,-5.485 0.57,-5.548 0.57,-5.611 0.56,-5.675 0.57,-5.739 0.57,-5.804 0.56,-5.868 0.57,-5.934 0.57,-5.998 0.56,-6.064 0.57,-6.13 0.56,-6.196 0.57,-6.2622 0.57,-6.3288 0.56,-6.3957" />
          </g>
          
        </g>
        
      </g>
      
      <g id="g4461" transform="scale(0.45227,0.45227)">
        <clipPath id="clip36">
          <path id="path4464" d="m 0,0 0,467 580,0 0,-467 z" />
        </clipPath>
        <g id="g4466" clip-path="url(#clip36)">
          <g style="fill:none;stroke:#0033cc;stroke-width:2.5;stroke-linecap:round;stroke-linejoin:round;stroke-opacity:1" id="g4468">
            <path id="path4470" d="m 41.348,477.36 0.566,-6.37 0.566,-6.31 0.567,-6.24 0.566,-6.17 0.567,-6.11 0.566,-6.04 0.566,-5.97 0.567,-5.92 0.566,-5.84 0.567,-5.78 0.566,-5.72 0.567,-5.65 0.566,-5.59 0.566,-5.53 0.567,-5.46 0.566,-5.4 0.567,-5.34 0.566,-5.27 0.566,-5.21 0.567,-5.15 0.566,-5.09 1.133,-10 1.133,-9.75 1.133,-9.51 1.132,-9.27 1.133,-9.04 1.133,-8.8 1.133,-8.58 1.133,-8.34 1.133,-8.11 1.132,-7.89 1.133,-7.67 1.133,-7.45 1.133,-7.22 1.133,-7.02 1.132,-6.79 1.133,-6.59 1.133,-6.38 1.133,-6.17 1.133,-5.96 1.132,-5.76 1.133,-5.57 1.133,-5.36 1.133,-5.17 2.265,-9.75 2.266,-9 2.266,-8.25 2.265,-7.54 2.266,-6.83 2.266,-6.14 2.265,-5.47 4.532,-9.01 4.532,-6.55 2.26,-2.39 2.27,-1.83 2.27,-1.29 1.13,-0.45 1.13,-0.31 2.27,-0.25 1.13,0.06 1.13,0.18 2.27,0.71 2.26,1.17 2.27,1.61 2.27,2.03 4.53,5.25 4.53,6.72 4.53,8.04 4.53,9.23 2.27,5.01 2.26,5.26 2.27,5.48 2.26,5.69 2.27,5.88 2.26,6.04 2.27,6.21 2.26,6.34 2.27,6.46 2.27,6.56 2.26,6.64 2.27,6.7 2.26,6.76 2.27,6.78 2.26,6.8 2.27,6.79 2.27,6.76 2.26,6.73 2.27,6.67 2.26,6.58 2.27,6.5 2.26,6.38 2.27,6.25 2.27,6.1 2.26,5.94 2.27,5.76 2.26,5.55 2.27,5.33 4.53,9.94 4.53,8.85 4.53,7.62 4.53,6.24 4.53,4.73 2.27,1.75 2.26,1.32 2.27,0.87 1.13,0.26 1.14,0.14 2.26,-0.08 1.13,-0.23 1.14,-0.36 2.26,-1.1 2.27,-1.65 2.26,-2.21 2.27,-2.77 4.53,-7.35 4.53,-9.86 2.27,-5.92 2.26,-6.6 2.27,-7.29 2.27,-8.01 2.26,-8.75 2.27,-9.5 1.13,-5.03 1.13,-5.23 1.13,-5.43 1.14,-5.63 1.13,-5.83 1.13,-6.03 1.14,-6.24 1.13,-6.44 1.13,-6.66 1.13,-6.87 1.14,-7.08 1.13,-7.3 1.13,-7.52 1.14,-7.74 1.13,-7.96 1.13,-8.19 1.13,-8.42 1.14,-8.65 1.13,-8.88 1.13,-9.11 1.14,-9.35 1.13,-9.59 1.13,-9.84 0.57,-5 0.56,-5.07 0.57,-5.13 0.57,-5.192 0.56,-5.253 0.57,-5.316 0.57,-5.378 0.56,-5.441 0.57,-5.504 0.56,-5.567 0.57,-5.631 0.57,-5.695 0.56,-5.759 0.57,-5.824 0.57,-5.888 0.56,-5.954 0.57,-6.019 0.57,-6.084 0.56,-6.15 0.57,-6.2165 0.57,-6.2829 0.56,-6.3495 0.57,-6.4161" />
          </g>
          
        </g>
        
      </g>
      
      <g id="g4472" transform="matrix(12.8898,0,0,12.8898,145.98244,38.031338)">
        <clipPath id="clip37">
          <path id="path4475" d="m -18.737,-4.8026 0,24.5786 30.526,0 0,-24.5786 z" />
        </clipPath>
        <g id="g4477" clip-path="url(#clip37)">
          <g style="fill:#000000;fill-opacity:1;fill-rule:nonzero;stroke:none" id="g4479">
            <path id="path4481" d="M 0.48438,-0.375 0.39062,0 Q 0.35938,0.09375 0.28125,0.15625 0.21875,0.20312 0.15625,0.20312 0.09375,0.20312 0.0625,0.15625 0.046875,0.14062 0.046875,0.125 q 0,-0.0625 0.046875,-0.0625 0,-0.015625 0.01563,-0.015625 0.03124,0 0.03124,0.03125 0,0 0,0.015625 0,0.01563 -0.01562,0.03125 Q 0.10938,0.14062 0.078125,0.14062 0.09375,0.1875 0.15625,0.1875 q 0.0625,0 0.10937,-0.0625 0.04688,-0.0625 0.0625,-0.140625 0,-0.015625 0,-0.015625 -0.04687,0.046875 -0.09374,0.046875 -0.07813,0 -0.10938,-0.0625 -0.01562,-0.03125 -0.01562,-0.062505 0,-0.04687 0.04687,-0.20312 0,0 0.01563,0 0.01562,-0.04688 0.01562,-0.07812 0,-0.03126 -0.03125,-0.03126 -0.04687,0 -0.09375,0.09376 l 0,0 q 0,0.01562 0,0.03124 -0.015625,0.01563 -0.015625,0.01563 -0.015625,0 -0.015625,0 0,-0.03125 0.015625,-0.0625 0.046875,-0.09375 0.109375,-0.09375 0.0625,0 0.07813,0.04688 Q 0.25,-0.375 0.25,-0.35938 q 0,0.01563 -0.03125,0.07813 -0.04687,0.125 -0.04687,0.1875 0,0.078125 0.0625,0.078125 0.0625,0 0.09374,-0.0625 0.01563,-0.015625 0.01563,-0.015625 l 0.04687,-0.1875 Q 0.40625,-0.3125 0.40625,-0.35938 0.42188,-0.40625 0.42188,-0.40625 0.4375,-0.4375 0.46875,-0.4375 q 0.01563,0.01562 0.01563,0.03125 0,0.01563 0,0.03125 z" />
          </g>
          
        </g>
        
      </g>
      
      <g id="g4483" transform="matrix(12.8898,0,0,12.8898,155.88244,38.031338)">
        <clipPath id="clip38">
          <path id="path4486" d="m -19.505,-4.8026 0,24.5786 30.526,0 0,-24.5786 z" />
        </clipPath>
        <g id="g4488" clip-path="url(#clip38)">
          <g style="fill:#000000;fill-opacity:1;fill-rule:nonzero;stroke:none" id="g4490">
            <path id="path4492" d="m 0.6875,-0.32812 -0.59375,0 q -0.03125,0 -0.03125,-0.01563 0,-0.01563 0.03125,-0.01563 l 0.59375,0 q 0.03125,0 0.03125,0.01563 0,0.01563 -0.03125,0.01563 z m 0,0.1875 -0.59375,0 q -0.03125,0 -0.03125,-0.01563 0,-0.01563 0.03125,-0.01563 l 0.59375,0 q 0.03125,0 0.03125,0.01563 0,0.01563 -0.03125,0.01563 z" />
          </g>
          
        </g>
        
      </g>
      
      <g id="g4494" transform="matrix(12.8898,0,0,12.8898,169.48744,38.031338)">
        <clipPath id="clip39">
          <path id="path4497" d="m -20.56,-4.8026 0,24.5786 30.5259,0 0,-24.5786 z" />
        </clipPath>
        <g id="g4499" clip-path="url(#clip39)">
          <g style="fill:#000000;fill-opacity:1;fill-rule:nonzero;stroke:none" id="g4501">
            <path id="path4503" d="m 0.35938,-0.40625 0,0 -0.04688,0.328125 q -0.01562,0.0625 -0.04688,0.140625 0,0.03125 -0.01562,0.04688 -0.03125,0.07812 -0.09375,0.09374 0,0 -0.01563,0 -0.04687,0 -0.07812,-0.03124 -0.015625,-0.01563 -0.015625,-0.03126 0,-0.04687 0.046875,-0.062495 0,0 0.01563,0 0.03124,0 0.03124,0.015625 0,0.01563 0,0.01563 0,0.03124 -0.03124,0.04687 0,0 -0.01563,0.01563 0.01563,0.01562 0.04687,0.01562 0.04688,0 0.0625,-0.109375 Q 0.21875,0.0625 0.21875,0.03125 l 0,-0.03125 0.07813,-0.40625 -0.0625,0 q -0.03126,0 -0.03126,0 l 0,0 0,0 q 0,-0.01563 0.01563,-0.03125 l 0,0 0.01563,0 0.07812,0 Q 0.32812,-0.5625 0.34375,-0.59375 0.375,-0.6875 0.4375,-0.70312 q 0.01562,0 0.03125,0 0.04687,0 0.07813,0.03124 l 0,0 q 0,0.01563 0,0.03126 0,0.04687 -0.03126,0.0625 0,0 -0.01562,0 -0.03125,0 -0.03125,-0.01563 -0.01563,-0.01563 -0.01563,-0.01563 0,-0.03124 0.03126,-0.04687 0.01562,0 0.03124,-0.01563 Q 0.5,-0.6875 0.46875,-0.6875 q -0.03125,0 -0.04687,0.03125 -0.01563,0.01563 -0.03126,0.10937 L 0.375,-0.4375 l 0.07812,0 q 0.03126,0 0.03126,0.01562 0,0.01563 -0.01563,0.01563 l 0,0 -0.01563,0 -0.09374,0 z" />
          </g>
          
        </g>
        
      </g>
      
      <g id="g4505" transform="matrix(12.8898,0,0,12.8898,175.80244,38.031338)">
        <clipPath id="clip40">
          <path id="path4508" d="m -21.05,-4.8026 0,24.5786 30.5263,0 0,-24.5786 z" />
        </clipPath>
        <g id="g4510" clip-path="url(#clip40)">
          <g style="fill:#000000;fill-opacity:1;fill-rule:nonzero;stroke:none" id="g4512">
            <path id="path4514" d="m 0.32812,0.23438 0,0 q 0,0.01562 0,0.01562 Q 0.3125,0.25 0.26562,0.20312 0.20312,0.14062 0.17188,0.0625 0.09375,-0.078125 0.09375,-0.25 q 0,-0.17188 0.0625,-0.3125 0.0625,-0.10938 0.14063,-0.17188 Q 0.3125,-0.75 0.32812,-0.75 q 0,0 0,0.01562 0,0 -0.01562,0.01563 -0.15625,0.15625 -0.15625,0.46875 0,0.3125 0.15625,0.46875 0.01562,0.01563 0.01562,0.01563 z" />
          </g>
          
        </g>
        
      </g>
      
      <g id="g4516" transform="matrix(12.8898,0,0,12.8898,180.81244,38.031338)">
        <clipPath id="clip41">
          <path id="path4519" d="m -21.439,-4.8026 0,24.5786 30.5264,0 0,-24.5786 z" />
        </clipPath>
        <g id="g4521" clip-path="url(#clip41)">
          <g style="fill:#000000;fill-opacity:1;fill-rule:nonzero;stroke:none" id="g4523">
            <path id="path4525" d="m 0.32812,-0.29688 -0.03124,0.125 q -0.01563,0.07813 -0.01563,0.093755 0,0.046875 0.03125,0.0625 0.01562,0 0.03125,0 0.04687,0 0.07813,-0.046875 0.03124,-0.03125 0.04687,-0.07812 0,-0.01563 0.01563,-0.01563 0.01562,0 0.01562,0.01563 0,0.01562 -0.03125,0.062495 -0.0625,0.09375 -0.125,0.09375 -0.07813,0 -0.10937,-0.0625 0,-0.015625 0,-0.015625 Q 0.20312,-0.015625 0.15625,0 0.14062,0.015625 0.125,0.015625 q -0.0625,0 -0.09375,-0.046875 0,0 0,-0.03125 0,-0.03125 0.03125,-0.04688 0.015625,0 0.015625,0 0.031255,0 0.046875,0.01563 0,0.015625 0,0.015625 0,0.03125 -0.03125,0.046875 -0.015625,0 -0.015625,0 0.015625,0.015625 0.046875,0.015625 0.04688,0 0.07812,-0.0625 0.01563,-0.015625 0.01563,-0.031255 0.04687,-0.20312 0.04687,-0.25 0,-0.0625 -0.04687,-0.0625 -0.04687,0 -0.09375,0.0625 l 0,0 q 0,0 0,0 -0.01562,0.01563 -0.03125,0.04688 0,0 0,0.01562 l -0.015625,0.01563 q 0,0 0,0 -0.015625,0 -0.015625,0 0,-0.03125 0.03125,-0.07813 0.04687,-0.07812 0.125,-0.07812 0.07813,0 0.10937,0.07812 0.03126,-0.0625 0.07813,-0.07812 0.01563,0 0.03125,0 0.0625,0 0.07812,0.03125 0.01563,0.01563 0.01563,0.03125 0,0.04688 -0.04687,0.04688 0,0.01562 -0.01563,0.01562 -0.03125,0 -0.03125,-0.03125 0,0 0,-0.01563 0,-0.03124 0.03125,-0.04687 0,0 0.01563,0 -0.01563,-0.01563 -0.04688,-0.01563 -0.07812,0 -0.09375,0.10938 -0.01563,0 -0.01563,0.01562 z" />
          </g>
          
        </g>
        
      </g>
      
      <g id="g4527" transform="matrix(12.8898,0,0,12.8898,188.17744,38.031338)">
        <clipPath id="clip42">
          <path id="path4530" d="m -22.01,-4.8026 0,24.5786 30.5259,0 0,-24.5786 z" />
        </clipPath>
        <g id="g4532" clip-path="url(#clip42)">
          <g style="fill:#000000;fill-opacity:1;fill-rule:nonzero;stroke:none" id="g4534">
            <path id="path4536" d="m 0.28125,-0.25 0,0 q 0,0.171875 -0.0625,0.3125 Q 0.17188,0.17188 0.09375,0.23438 0.078125,0.25 0.0625,0.25 q 0,0 0,-0.01562 0,0 0,-0.01563 Q 0.23438,0.0625 0.23438,-0.25 q 0,-0.3125 -0.156255,-0.46875 l 0,0 Q 0.0625,-0.73438 0.0625,-0.73438 q 0,-0.01562 0,-0.01562 0.015625,0 0.0625,0.04688 0.0625,0.0625 0.09375,0.14062 0.0625,0.14062 0.0625,0.3125 z" />
          </g>
          
        </g>
        
      </g>
      
      <g id="g4538" transform="matrix(12.8898,0,0,12.8898,8.3595961,38.25064)">
        <clipPath id="clip43">
          <path id="path4541" d="m -3.3158,-4.6447 0,24.5787 30.5268,0 0,-24.5787 z" />
        </clipPath>
        <g id="g4543" clip-path="url(#clip43)">
          <g style="fill:#000000;fill-opacity:1;fill-rule:nonzero;stroke:none" id="g4545">
            <path id="path4547" d="M 0.48438,-0.375 0.39062,0 Q 0.35938,0.09375 0.28125,0.15625 0.21875,0.20312 0.15625,0.20312 0.09375,0.20312 0.0625,0.15625 0.046875,0.14062 0.046875,0.125 q 0,-0.0625 0.046875,-0.0625 0,-0.015625 0.01563,-0.015625 0.03124,0 0.03124,0.03125 0,0 0,0.015625 0,0.01563 -0.01562,0.03125 Q 0.10938,0.14062 0.078125,0.14062 0.09375,0.1875 0.15625,0.1875 q 0.0625,0 0.10937,-0.0625 0.04688,-0.0625 0.0625,-0.140625 0,-0.015625 0,-0.015625 -0.04687,0.046875 -0.09374,0.046875 -0.07813,0 -0.10938,-0.0625 -0.01562,-0.03125 -0.01562,-0.062505 0,-0.04687 0.04687,-0.20312 0,0 0.01563,0 0.01562,-0.04688 0.01562,-0.07812 0,-0.03126 -0.03125,-0.03126 -0.04687,0 -0.09375,0.09376 l 0,0 q 0,0.01562 0,0.03124 -0.015625,0.01563 -0.015625,0.01563 -0.015625,0 -0.015625,0 0,-0.03125 0.015625,-0.0625 0.046875,-0.09375 0.109375,-0.09375 0.0625,0 0.07813,0.04688 Q 0.25,-0.375 0.25,-0.35938 q 0,0.01563 -0.03125,0.07813 -0.04687,0.125 -0.04687,0.1875 0,0.078125 0.0625,0.078125 0.0625,0 0.09374,-0.0625 0.01563,-0.015625 0.01563,-0.015625 l 0.04687,-0.1875 Q 0.40625,-0.3125 0.40625,-0.35938 0.42188,-0.40625 0.42188,-0.40625 0.4375,-0.4375 0.46875,-0.4375 q 0.01563,0.01562 0.01563,0.03125 0,0.01563 0,0.03125 z" />
          </g>
          
        </g>
        
      </g>
      
      <g id="g4549" transform="matrix(12.8898,0,0,12.8898,18.259596,38.25064)">
        <clipPath id="clip44">
          <path id="path4552" d="m -4.0838,-4.6447 0,24.5787 30.5258,0 0,-24.5787 z" />
        </clipPath>
        <g id="g4554" clip-path="url(#clip44)">
          <g style="fill:#000000;fill-opacity:1;fill-rule:nonzero;stroke:none" id="g4556">
            <path id="path4558" d="m 0.6875,-0.32812 -0.59375,0 q -0.03125,0 -0.03125,-0.01563 0,-0.01563 0.03125,-0.01563 l 0.59375,0 q 0.03125,0 0.03125,0.01563 0,0.01563 -0.03125,0.01563 z m 0,0.1875 -0.59375,0 q -0.03125,0 -0.03125,-0.01563 0,-0.01563 0.03125,-0.01563 l 0.59375,0 q 0.03125,0 0.03125,0.01563 0,0.01563 -0.03125,0.01563 z" />
          </g>
          
        </g>
        
      </g>
      
      <g id="g4560" transform="matrix(12.8898,0,0,12.8898,31.866096,38.25064)">
        <clipPath id="clip45">
          <path id="path4563" d="m -5.1394,-4.6447 0,24.5787 30.5264,0 0,-24.5787 z" />
        </clipPath>
        <g id="g4565" clip-path="url(#clip45)">
          <g style="fill:#000000;fill-opacity:1;fill-rule:nonzero;stroke:none" id="g4567">
            <path id="path4569" d="m 0.35938,-0.40625 0,0 -0.04688,0.328125 q -0.01562,0.0625 -0.04688,0.140625 0,0.03125 -0.01562,0.04688 -0.03125,0.07812 -0.09375,0.09374 0,0 -0.01563,0 -0.04687,0 -0.07812,-0.03124 -0.015625,-0.01563 -0.015625,-0.03126 0,-0.04687 0.046875,-0.062495 0,0 0.01563,0 0.03124,0 0.03124,0.015625 0,0.01563 0,0.01563 0,0.03124 -0.03124,0.04687 0,0 -0.01563,0.01563 0.01563,0.01562 0.04687,0.01562 0.04688,0 0.0625,-0.109375 Q 0.21875,0.0625 0.21875,0.03125 l 0,-0.03125 0.07813,-0.40625 -0.0625,0 q -0.03126,0 -0.03126,0 l 0,0 0,0 q 0,-0.01563 0.01563,-0.03125 l 0,0 0.01563,0 0.07812,0 Q 0.32812,-0.5625 0.34375,-0.59375 0.375,-0.6875 0.4375,-0.70312 q 0.01562,0 0.03125,0 0.04687,0 0.07813,0.03124 l 0,0 q 0,0.01563 0,0.03126 0,0.04687 -0.03126,0.0625 0,0 -0.01562,0 -0.03125,0 -0.03125,-0.01563 -0.01563,-0.01563 -0.01563,-0.01563 0,-0.03124 0.03126,-0.04687 0.01562,0 0.03124,-0.01563 Q 0.5,-0.6875 0.46875,-0.6875 q -0.03125,0 -0.04687,0.03125 -0.01563,0.01563 -0.03126,0.10937 L 0.375,-0.4375 l 0.07812,0 q 0.03126,0 0.03126,0.01562 0,0.01563 -0.01563,0.01563 l 0,0 -0.01563,0 -0.09374,0 z" />
          </g>
          
        </g>
        
      </g>
      
      <g id="g4571" transform="matrix(12.8898,0,0,12.8898,38.176596,38.25064)">
        <clipPath id="clip46">
          <path id="path4574" d="m -5.629,-4.6447 0,24.5787 30.526,0 0,-24.5787 z" />
        </clipPath>
        <g id="g4576" clip-path="url(#clip46)">
          <g style="fill:#000000;fill-opacity:1;fill-rule:nonzero;stroke:none" id="g4578">
            <path id="path4580" d="m 0.32812,0.23438 0,0 q 0,0.01562 0,0.01562 Q 0.3125,0.25 0.26562,0.20312 0.20312,0.14062 0.17188,0.0625 0.09375,-0.078125 0.09375,-0.25 q 0,-0.17188 0.0625,-0.3125 0.0625,-0.10938 0.14063,-0.17188 Q 0.3125,-0.75 0.32812,-0.75 q 0,0 0,0.01562 0,0 -0.01562,0.01563 -0.15625,0.15625 -0.15625,0.46875 0,0.3125 0.15625,0.46875 0.01562,0.01563 0.01562,0.01563 z" />
          </g>
          
        </g>
        
      </g>
      
      <g id="g4582" transform="matrix(12.8898,0,0,12.8898,43.189596,38.25064)">
        <clipPath id="clip47">
          <path id="path4585" d="m -6.0179,-4.6447 0,24.5787 30.5259,0 0,-24.5787 z" />
        </clipPath>
        <g id="g4587" clip-path="url(#clip47)">
          <g style="fill:#000000;fill-opacity:1;fill-rule:nonzero;stroke:none" id="g4589">
            <path id="path4591" d="m 0.32812,-0.29688 -0.03124,0.125 q -0.01563,0.07813 -0.01563,0.093755 0,0.046875 0.03125,0.0625 0.01562,0 0.03125,0 0.04687,0 0.07813,-0.046875 0.03124,-0.03125 0.04687,-0.07812 0,-0.01563 0.01563,-0.01563 0.01562,0 0.01562,0.01563 0,0.01562 -0.03125,0.062495 -0.0625,0.09375 -0.125,0.09375 -0.07813,0 -0.10937,-0.0625 0,-0.015625 0,-0.015625 Q 0.20312,-0.015625 0.15625,0 0.14062,0.015625 0.125,0.015625 q -0.0625,0 -0.09375,-0.046875 0,0 0,-0.03125 0,-0.03125 0.03125,-0.04688 0.015625,0 0.015625,0 0.031255,0 0.046875,0.01563 0,0.015625 0,0.015625 0,0.03125 -0.03125,0.046875 -0.015625,0 -0.015625,0 0.015625,0.015625 0.046875,0.015625 0.04688,0 0.07812,-0.0625 0.01563,-0.015625 0.01563,-0.031255 0.04687,-0.20312 0.04687,-0.25 0,-0.0625 -0.04687,-0.0625 -0.04687,0 -0.09375,0.0625 l 0,0 q 0,0 0,0 -0.01562,0.01563 -0.03125,0.04688 0,0 0,0.01562 l -0.015625,0.01563 q 0,0 0,0 -0.015625,0 -0.015625,0 0,-0.03125 0.03125,-0.07813 0.04687,-0.07812 0.125,-0.07812 0.07813,0 0.10937,0.07812 0.03126,-0.0625 0.07813,-0.07812 0.01563,0 0.03125,0 0.0625,0 0.07812,0.03125 0.01563,0.01563 0.01563,0.03125 0,0.04688 -0.04687,0.04688 0,0.01562 -0.01563,0.01562 -0.03125,0 -0.03125,-0.03125 0,0 0,-0.01563 0,-0.03124 0.03125,-0.04687 0,0 0.01563,0 -0.01563,-0.01563 -0.04688,-0.01563 -0.07812,0 -0.09375,0.10938 -0.01563,0 -0.01563,0.01562 z" />
          </g>
          
        </g>
        
      </g>
      
      <g id="g4593" transform="matrix(12.8898,0,0,12.8898,53.421096,38.25064)">
        <clipPath id="clip48">
          <path id="path4596" d="m -6.8116,-4.6447 0,24.5787 30.5266,0 0,-24.5787 z" />
        </clipPath>
        <g id="g4598" clip-path="url(#clip48)">
          <g style="fill:#000000;fill-opacity:1;fill-rule:nonzero;stroke:none" id="g4600">
            <path id="path4602" d="m 0.40625,-0.23438 0,0.281255 q 0,0.03125 -0.01563,0.03125 -0.01562,0 -0.01562,-0.03125 l 0,-0.281255 -0.28125,0 q -0.03125,0 -0.03125,-0.01562 0,-0.01562 0.03125,-0.01562 l 0.28125,0 0,-0.28126 q 0,-0.03124 0.01562,-0.03124 0.01563,0 0.01563,0.03124 l 0,0.28126 0.28125,0 q 0.03125,0 0.03125,0.01562 0,0.01562 -0.03125,0.01562 l -0.28125,0 z" />
          </g>
          
        </g>
        
      </g>
      
      <g id="g4604" transform="matrix(12.8898,0,0,12.8898,66.310596,38.25064)">
        <clipPath id="clip49">
          <path id="path4607" d="m -7.8116,-4.6447 0,24.5787 30.5266,0 0,-24.5787 z" />
        </clipPath>
        <g id="g4609" clip-path="url(#clip49)">
          <g style="fill:#000000;fill-opacity:1;fill-rule:nonzero;stroke:none" id="g4611">
            <path id="path4613" d="m 0.45312,-0.17188 0,0 L 0.42188,0 0.046875,0 q 0,-0.03125 0.015625,-0.03125 l 0,0 L 0.25,-0.25 q 0.10938,-0.125 0.10938,-0.21875 0,-0.09375 -0.0625,-0.14063 l 0,0 0,0 q -0.03126,-0.03124 -0.07813,-0.03124 -0.0625,0 -0.10937,0.0625 -0.01563,0.01562 -0.01563,0.04687 0,0 0.01563,0 0.03124,0 0.04687,0.03125 l 0,0 q 0,0.01562 0,0.01562 0,0.04688 -0.04687,0.04688 0,0.01562 0,0.01562 -0.04688,0 -0.062505,-0.03124 0,-0.01563 0,-0.03126 0,-0.07812 0.062505,-0.125 0.04687,-0.0625 0.125,-0.0625 0.10937,0 0.17187,0.07813 0.03125,0.04687 0.04687,0.10937 0,0 0,0.01563 0,0.0625 -0.0625,0.14063 Q 0.35938,-0.29688 0.29688,-0.25 L 0.25,-0.1875 l -0.01562,0 -0.10938,0.109375 0.1875,0 q 0.07812,0 0.09375,0 0,-0.015625 0.01563,-0.093755 l 0.03124,0 z" />
          </g>
          
        </g>
        
      </g>
      
      <g id="g4615" transform="matrix(12.8898,0,0,12.8898,72.754596,38.25064)">
        <clipPath id="clip50">
          <path id="path4618" d="m -8.3116,-4.6447 0,24.5787 30.5266,0 0,-24.5787 z" />
        </clipPath>
        <g id="g4620" clip-path="url(#clip50)">
          <g style="fill:#000000;fill-opacity:1;fill-rule:nonzero;stroke:none" id="g4622">
            <path id="path4624" d="m 0.28125,-0.25 0,0 q 0,0.171875 -0.0625,0.3125 Q 0.17188,0.17188 0.09375,0.23438 0.078125,0.25 0.0625,0.25 q 0,0 0,-0.01562 0,0 0,-0.01563 Q 0.23438,0.0625 0.23438,-0.25 q 0,-0.3125 -0.156255,-0.46875 l 0,0 Q 0.0625,-0.73438 0.0625,-0.73438 q 0,-0.01562 0,-0.01562 0.015625,0 0.0625,0.04688 0.0625,0.0625 0.09375,0.14062 0.0625,0.14062 0.0625,0.3125 z" />
          </g>
          
        </g>
        
      </g>
      
    </g>
    
  </g>
  
</svg>