<?xml version='1.0' ?><svg xmlns:dc="http://purl.org/dc/elements/1.1/" xmlns:cc="http://creativecommons.org/ns#" xmlns:rdf="http://www.w3.org/1999/02/22-rdf-syntax-ns#" xmlns:svg="http://www.w3.org/2000/svg" xmlns="http://www.w3.org/2000/svg" id="svg15325" y="0px" x="0px" version="1.1" width="333.37537" height="269.35346" viewBox="79.72881607148778 753.5583201271859 333.37537448028274 269.3534636198825" preserveAspectRatio="none">
  <metadata id="metadata16063">
    <rdf:RDF>
      <cc:Work rdf:about="">
        <dc:format>image/svg+xml</dc:format>
        <dc:type rdf:resource="http://purl.org/dc/dcmitype/StillImage" />
      </cc:Work>
    </rdf:RDF>
  </metadata>
  <defs id="defs16061" />
  <title id="title15327" />
  <g transform="translate(79.728815,573.98934)" style="stroke-width:1;stroke-linecap:square;stroke-linejoin:miter;stroke-miterlimit:10;stroke-dasharray:none;stroke-dashoffset:0" id="g15329" stroke-miterlimit="10.000">
    <g id="g15331" transform="matrix(0.576774,0,0,0.576774,0,179.56897)">
      <clipPath id="clip1">
        <path id="path15334" d="m 0,0 0,467 580,0 0,-467 z" />
      </clipPath>
      <g id="g15336" clip-path="url(#clip1)">
        <g style="fill:none;stroke:#000000;stroke-width:2;stroke-linecap:butt;stroke-opacity:1" id="g15338">
          <path id="path15340" d="m 180.01,3 0,464" />
        </g>
        
      </g>
      
    </g>
    
    <g id="g15342" transform="matrix(0.576774,0,0,0.576774,0,179.56897)">
      <clipPath id="clip2">
        <path id="path15345" d="m 0,0 0,467 580,0 0,-467 z" />
      </clipPath>
      <g id="g15347" clip-path="url(#clip2)">
        <g style="fill:#000000;fill-opacity:1;fill-rule:evenodd;stroke:none" id="g15349">
          <path id="path15351" d="m 180.01,2 -5,20 10,0" />
        </g>
        
      </g>
      
    </g>
    
    <g id="g15353" transform="matrix(0.576774,0,0,0.576774,0,179.56897)">
      <clipPath id="clip3">
        <path id="path15356" d="m 0,0 0,467 580,0 0,-467 z" />
      </clipPath>
      <g id="g15358" clip-path="url(#clip3)">
        <g style="fill:none;stroke:#000000;stroke-width:2;stroke-linecap:butt;stroke-opacity:1" id="g15360">
          <path id="path15362" d="m 3.0877,225.26 0,4" />
        </g>
        
      </g>
      
    </g>
    
    <g id="g15364" transform="matrix(0.576774,0,0,0.576774,0,179.56897)">
      <clipPath id="clip4">
        <path id="path15367" d="m 0,0 0,467 580,0 0,-467 z" />
      </clipPath>
      <g id="g15369" clip-path="url(#clip4)">
        <g style="fill:none;stroke:#000000;stroke-width:2;stroke-linecap:butt;stroke-opacity:1" id="g15371">
          <path id="path15373" d="m 0,225.26 577,0" />
        </g>
        
      </g>
      
    </g>
    
    <g id="g15375" transform="matrix(0.576774,0,0,0.576774,0,179.56897)">
      <clipPath id="clip5">
        <path id="path15378" d="m 0,0 0,467 580,0 0,-467 z" />
      </clipPath>
      <g id="g15380" clip-path="url(#clip5)">
        <g style="fill:#000000;fill-opacity:1;fill-rule:evenodd;stroke:none" id="g15382">
          <path id="path15384" d="m 578,225.26 -20,-5 0,10" />
        </g>
        
      </g>
      
    </g>
    
    <g id="g15386" transform="matrix(0.576774,0,0,0.576774,0,179.56897)">
      <clipPath id="clip6">
        <path id="path15389" d="m 0,0 0,467 580,0 0,-467 z" />
      </clipPath>
      <g id="g15391" clip-path="url(#clip6)">
        <g style="fill:#000000;fill-opacity:1;fill-rule:nonzero;stroke:none" id="g15393">
          <path id="path15395" d="m 56.718,239.29 0,-0.93 5.564,0 0,0.93 z m 11.553,3.71 0,-2.86 -4.553,0 0,-1.02 4.553,-6.24 1.264,0 0,6.16 1.354,0 0,1.1 -1.354,0 0,2.86 z m -3.234,-3.96 3.322,0 0,-4.5 z" />
        </g>
        
      </g>
      
    </g>
    
    <g id="g15397" transform="matrix(0.576774,0,0,0.576774,0,179.56897)">
      <clipPath id="clip7">
        <path id="path15400" d="m 0,0 0,467 580,0 0,-467 z" />
      </clipPath>
      <g id="g15402" clip-path="url(#clip7)">
        <g style="fill:none;stroke:#000000;stroke-width:2;stroke-linecap:butt;stroke-opacity:1" id="g15404">
          <path id="path15406" d="m 62.063,225.26 0,4" />
        </g>
        
      </g>
      
    </g>
    
    <g id="g15408" transform="matrix(0.576774,0,0,0.576774,0,179.56897)">
      <clipPath id="clip8">
        <path id="path15411" d="m 0,0 0,467 580,0 0,-467 z" />
      </clipPath>
      <g id="g15413" clip-path="url(#clip8)">
        <g style="fill:#000000;fill-opacity:1;fill-rule:nonzero;stroke:none" id="g15415">
          <path id="path15417" d="m 115.72,239.29 0,-0.93 5.56,0 0,0.93 z m 7.44,3.71 0,-1.18 q 0.59,-1.38 2.38,-3 l 0.77,-0.69 q 1.49,-1.34 1.49,-2.67 0,-0.85 -0.51,-1.33 -0.5,-0.49 -1.39,-0.49 -1.06,0 -2.48,0.82 l 0,-1.19 q 1.34,-0.64 2.67,-0.64 1.42,0 2.28,0.77 0.86,0.76 0.86,2.03 0,0.9 -0.43,1.61 -0.44,0.7 -1.62,1.71 l -0.52,0.44 q -1.62,1.38 -1.87,2.63 l 4.39,0 0,1.18 z" />
        </g>
        
      </g>
      
    </g>
    
    <g id="g15419" transform="matrix(0.576774,0,0,0.576774,0,179.56897)">
      <clipPath id="clip9">
        <path id="path15422" d="m 0,0 0,467 580,0 0,-467 z" />
      </clipPath>
      <g id="g15424" clip-path="url(#clip9)">
        <g style="fill:none;stroke:#000000;stroke-width:2;stroke-linecap:butt;stroke-opacity:1" id="g15426">
          <path id="path15428" d="m 121.04,225.26 0,4" />
        </g>
        
      </g>
      
    </g>
    
    <g id="g15430" transform="matrix(0.576774,0,0,0.576774,0,179.56897)">
      <clipPath id="clip10">
        <path id="path15433" d="m 0,0 0,467 580,0 0,-467 z" />
      </clipPath>
      <g id="g15435" clip-path="url(#clip10)">
        <g style="fill:#000000;fill-opacity:1;fill-rule:nonzero;stroke:none" id="g15437">
          <path id="path15439" d="m 190.39,243.25 q -1.57,0 -2.53,-1.47 -0.97,-1.47 -0.97,-3.85 0,-2.39 0.97,-3.84 0.98,-1.46 2.57,-1.46 1.59,0 2.57,1.46 0.97,1.45 0.97,3.82 0,2.44 -0.97,3.89 -0.98,1.45 -2.61,1.45 z m 0.01,-1.01 q 2.14,0 2.14,-4.35 0,-4.25 -2.11,-4.25 -2.11,0 -2.11,4.29 0,4.31 2.08,4.31 z" />
        </g>
        
      </g>
      
    </g>
    
    <g id="g15441" transform="matrix(0.576774,0,0,0.576774,2,179.56897)">
      <clipPath id="clip11">
        <path id="path15444" d="m 0,0 0,467 580,0 0,-467 z" />
      </clipPath>
      <g id="g15446" clip-path="url(#clip11)">
        <g style="fill:#000000;fill-opacity:1;fill-rule:nonzero;stroke:none" id="g15448">
          <path id="path15450" d="m 237.16,243 0,-1.18 q 0.59,-1.38 2.38,-3 l 0.77,-0.69 q 1.49,-1.34 1.49,-2.67 0,-0.85 -0.51,-1.33 -0.5,-0.49 -1.39,-0.49 -1.06,0 -2.48,0.82 l 0,-1.19 q 1.34,-0.64 2.67,-0.64 1.42,0 2.28,0.77 0.86,0.76 0.86,2.03 0,0.9 -0.43,1.61 -0.44,0.7 -1.62,1.71 l -0.52,0.44 q -1.62,1.38 -1.87,2.63 l 4.39,0 0,1.18 z" />
        </g>
        
      </g>
      
    </g>
    
    <g id="g15452" transform="matrix(0.576774,0,0,0.576774,0,179.56897)">
      <clipPath id="clip12">
        <path id="path15455" d="m 0,0 0,467 580,0 0,-467 z" />
      </clipPath>
      <g id="g15457" clip-path="url(#clip12)">
        <g style="fill:none;stroke:#000000;stroke-width:2;stroke-linecap:butt;stroke-opacity:1" id="g15459">
          <path id="path15461" d="m 238.99,225.26 0,4" />
        </g>
        
      </g>
      
    </g>
    
    <g id="g15463" transform="matrix(0.576774,0,0,0.576774,0,179.56897)">
      <clipPath id="clip13">
        <path id="path15466" d="m 0,0 0,467 580,0 0,-467 z" />
      </clipPath>
      <g id="g15468" clip-path="url(#clip13)">
        <g style="fill:#000000;fill-opacity:1;fill-rule:nonzero;stroke:none" id="g15470">
          <path id="path15472" d="m 300.27,243 0,-2.86 -4.55,0 0,-1.02 4.55,-6.24 1.27,0 0,6.16 1.35,0 0,1.1 -1.35,0 0,2.86 z m -3.23,-3.96 3.32,0 0,-4.5 z" />
        </g>
        
      </g>
      
    </g>
    
    <g id="g15474" transform="matrix(0.576774,0,0,0.576774,0,179.56897)">
      <clipPath id="clip14">
        <path id="path15477" d="m 0,0 0,467 580,0 0,-467 z" />
      </clipPath>
      <g id="g15479" clip-path="url(#clip14)">
        <g style="fill:none;stroke:#000000;stroke-width:2;stroke-linecap:butt;stroke-opacity:1" id="g15481">
          <path id="path15483" d="m 297.97,225.26 0,4" />
        </g>
        
      </g>
      
    </g>
    
    <g id="g15485" transform="matrix(0.576774,0,0,0.576774,2,179.56897)">
      <clipPath id="clip15">
        <path id="path15488" d="m 0,0 0,467 580,0 0,-467 z" />
      </clipPath>
      <g id="g15490" clip-path="url(#clip15)">
        <g style="fill:#000000;fill-opacity:1;fill-rule:nonzero;stroke:none" id="g15492">
          <path id="path15494" d="m 356.41,237.76 q 0.96,-1.25 2.42,-1.25 1.33,0 2.17,0.87 0.85,0.88 0.85,2.26 0,1.58 -0.95,2.59 -0.95,1.02 -2.4,1.02 -1.68,0 -2.62,-1.34 -0.94,-1.35 -0.94,-3.74 0,-2.63 1.08,-4.09 1.08,-1.46 3.05,-1.46 0.9,0 2.26,0.39 l 0,1.17 q -1.43,-0.55 -2.34,-0.55 -2.58,0 -2.58,4.13 z m 4.08,2.18 q 0,-1.15 -0.51,-1.81 -0.52,-0.65 -1.43,-0.65 -0.86,0 -1.47,0.57 -0.62,0.57 -0.62,1.38 0,1.27 0.59,2.04 0.58,0.77 1.54,0.77 0.87,0 1.39,-0.62 0.51,-0.63 0.51,-1.68 z" />
        </g>
        
      </g>
      
    </g>
    
    <g id="g15496" transform="matrix(0.576774,0,0,0.576774,0,179.56897)">
      <clipPath id="clip16">
        <path id="path15499" d="m 0,0 0,467 580,0 0,-467 z" />
      </clipPath>
      <g id="g15501" clip-path="url(#clip16)">
        <g style="fill:none;stroke:#000000;stroke-width:2;stroke-linecap:butt;stroke-opacity:1" id="g15503">
          <path id="path15505" d="m 356.94,225.26 0,4" />
        </g>
        
      </g>
      
    </g>
    
    <g id="g15507" transform="matrix(0.576774,0,0,0.576774,0,179.56897)">
      <clipPath id="clip17">
        <path id="path15510" d="m 0,0 0,467 580,0 0,-467 z" />
      </clipPath>
      <g id="g15512" clip-path="url(#clip17)">
        <g style="fill:#000000;fill-opacity:1;fill-rule:nonzero;stroke:none" id="g15514">
          <path id="path15516" d="m 416.22,237.49 q -1.48,-1.03 -1.48,-2.28 0,-1.15 0.84,-1.87 0.84,-0.72 2.19,-0.72 1.25,0 2.03,0.61 0.77,0.61 0.77,1.58 0,1.47 -1.88,2.68 2.29,1.12 2.29,2.89 0,1.27 -0.96,2.07 -0.96,0.8 -2.48,0.8 -1.49,0 -2.41,-0.75 -0.92,-0.76 -0.92,-1.99 0,-1.82 2.01,-3.02 z m 1.72,-0.42 q 1.41,-0.93 1.41,-2.07 0,-0.61 -0.47,-0.99 -0.47,-0.37 -1.25,-0.37 -0.74,0 -1.21,0.37 -0.46,0.36 -0.46,0.94 0,0.57 0.42,1.02 0.42,0.45 1.56,1.1 z m -0.99,0.97 q -0.81,0.63 -1.1,1.09 -0.29,0.47 -0.29,1.17 0,0.87 0.56,1.4 0.56,0.54 1.47,0.54 0.89,0 1.44,-0.46 0.56,-0.45 0.56,-1.19 0,-0.58 -0.35,-0.99 -0.34,-0.41 -1.33,-1 z" />
        </g>
        
      </g>
      
    </g>
    
    <g id="g15518" transform="matrix(0.576774,0,0,0.576774,0,179.56897)">
      <clipPath id="clip18">
        <path id="path15521" d="m 0,0 0,467 580,0 0,-467 z" />
      </clipPath>
      <g id="g15523" clip-path="url(#clip18)">
        <g style="fill:none;stroke:#000000;stroke-width:2;stroke-linecap:butt;stroke-opacity:1" id="g15525">
          <path id="path15527" d="m 415.92,225.26 0,4" />
        </g>
        
      </g>
      
    </g>
    
    <g id="g15529" transform="matrix(0.576774,0,0,0.576774,0,179.56897)">
      <clipPath id="clip19">
        <path id="path15532" d="m 0,0 0,467 580,0 0,-467 z" />
      </clipPath>
      <g id="g15534" clip-path="url(#clip19)">
        <g style="fill:#000000;fill-opacity:1;fill-rule:nonzero;stroke:none" id="g15536">
          <path id="path15538" d="m 470.11,243 0,-1.01 2.02,0 0,-7.99 -2.02,0.51 0,-1.04 3.37,-0.84 0,9.36 2.03,0 0,1.01 z m 11.13,0.25 q -1.56,0 -2.53,-1.47 -0.97,-1.47 -0.97,-3.85 0,-2.39 0.98,-3.84 0.97,-1.46 2.56,-1.46 1.6,0 2.57,1.46 0.97,1.45 0.97,3.82 0,2.44 -0.97,3.89 -0.97,1.45 -2.61,1.45 z m 0.01,-1.01 q 2.14,0 2.14,-4.35 0,-4.25 -2.11,-4.25 -2.1,0 -2.1,4.29 0,4.31 2.07,4.31 z" />
        </g>
        
      </g>
      
    </g>
    
    <g id="g15540" transform="matrix(0.576774,0,0,0.576774,0,179.56897)">
      <clipPath id="clip20">
        <path id="path15543" d="m 0,0 0,467 580,0 0,-467 z" />
      </clipPath>
      <g id="g15545" clip-path="url(#clip20)">
        <g style="fill:none;stroke:#000000;stroke-width:2;stroke-linecap:butt;stroke-opacity:1" id="g15547">
          <path id="path15549" d="m 474.89,225.26 0,4" />
        </g>
        
      </g>
      
    </g>
    
    <g id="g15551" transform="matrix(0.576774,0,0,0.576774,0,179.56897)">
      <clipPath id="clip21">
        <path id="path15554" d="m 0,0 0,467 580,0 0,-467 z" />
      </clipPath>
      <g id="g15556" clip-path="url(#clip21)">
        <g style="fill:#000000;fill-opacity:1;fill-rule:nonzero;stroke:none" id="g15558">
          <path id="path15560" d="m 529.11,243 0,-1.01 2.02,0 0,-7.99 -2.02,0.51 0,-1.04 3.37,-0.84 0,9.36 2.03,0 0,1.01 z m 7.9,0 0,-1.18 q 0.59,-1.38 2.38,-3 l 0.78,-0.69 q 1.49,-1.34 1.49,-2.67 0,-0.85 -0.51,-1.33 -0.51,-0.49 -1.4,-0.49 -1.05,0 -2.48,0.82 l 0,-1.19 q 1.34,-0.64 2.67,-0.64 1.42,0 2.28,0.77 0.86,0.76 0.86,2.03 0,0.9 -0.43,1.61 -0.43,0.7 -1.62,1.71 l -0.52,0.44 q -1.62,1.38 -1.87,2.63 l 4.4,0 0,1.18 z" />
        </g>
        
      </g>
      
    </g>
    
    <g id="g15562" transform="matrix(0.576774,0,0,0.576774,0,179.56897)">
      <clipPath id="clip22">
        <path id="path15565" d="m 0,0 0,467 580,0 0,-467 z" />
      </clipPath>
      <g id="g15567" clip-path="url(#clip22)">
        <g style="fill:none;stroke:#000000;stroke-width:2;stroke-linecap:butt;stroke-opacity:1" id="g15569">
          <path id="path15571" d="m 533.87,225.26 0,4" />
        </g>
        
      </g>
      
    </g>
    
    <g id="g15573" transform="matrix(0.576774,0,0,0.576774,0,179.56897)">
      <clipPath id="clip23">
        <path id="path15576" d="m 0,0 0,467 580,0 0,-467 z" />
      </clipPath>
      <g id="g15578" clip-path="url(#clip23)">
        <g style="fill:none;stroke:#000000;stroke-width:2;stroke-linecap:butt;stroke-opacity:1" id="g15580">
          <path id="path15582" d="m 176.01,461.16 4,0" />
        </g>
        
      </g>
      
    </g>
    
    <g id="g15584" transform="matrix(0.576774,0,0,0.576774,0,179.56897)">
      <clipPath id="clip24">
        <path id="path15587" d="m 0,0 0,467 580,0 0,-467 z" />
      </clipPath>
      <g id="g15589" clip-path="url(#clip24)">
        <g style="fill:#000000;fill-opacity:1;fill-rule:nonzero;stroke:none" id="g15591">
          <path id="path15593" d="m 159.72,404.29 0,-0.93 5.56,0 0,0.93 z m 8.69,-1.53 q 0.96,-1.25 2.42,-1.25 1.33,0 2.17,0.87 0.85,0.88 0.85,2.26 0,1.58 -0.95,2.59 -0.95,1.02 -2.4,1.02 -1.68,0 -2.62,-1.34 -0.94,-1.35 -0.94,-3.74 0,-2.63 1.08,-4.09 1.08,-1.46 3.05,-1.46 0.9,0 2.26,0.39 l 0,1.17 q -1.43,-0.55 -2.34,-0.55 -2.58,0 -2.58,4.13 z m 4.08,2.18 q 0,-1.15 -0.51,-1.81 -0.52,-0.65 -1.43,-0.65 -0.86,0 -1.47,0.57 -0.62,0.57 -0.62,1.38 0,1.27 0.59,2.04 0.58,0.77 1.54,0.77 0.87,0 1.39,-0.62 0.51,-0.63 0.51,-1.68 z" />
        </g>
        
      </g>
      
    </g>
    
    <g id="g15595" transform="matrix(0.576774,0,0,0.576774,0,179.56897)">
      <clipPath id="clip25">
        <path id="path15598" d="m 0,0 0,467 580,0 0,-467 z" />
      </clipPath>
      <g id="g15600" clip-path="url(#clip25)">
        <g style="fill:none;stroke:#000000;stroke-width:2;stroke-linecap:butt;stroke-opacity:1" id="g15602">
          <path id="path15604" d="m 176.01,402.19 4,0" />
        </g>
        
      </g>
      
    </g>
    
    <g id="g15606" transform="matrix(0.576774,0,0,0.576774,0,179.56897)">
      <clipPath id="clip26">
        <path id="path15609" d="m 0,0 0,467 580,0 0,-467 z" />
      </clipPath>
      <g id="g15611" clip-path="url(#clip26)">
        <g style="fill:#000000;fill-opacity:1;fill-rule:nonzero;stroke:none" id="g15613">
          <path id="path15615" d="m 159.72,345.29 0,-0.93 5.56,0 0,0.93 z m 11.55,3.71 0,-2.86 -4.55,0 0,-1.02 4.55,-6.24 1.27,0 0,6.16 1.35,0 0,1.1 -1.35,0 0,2.86 z m -3.23,-3.96 3.32,0 0,-4.5 z" />
        </g>
        
      </g>
      
    </g>
    
    <g id="g15617" transform="matrix(0.576774,0,0,0.576774,0,179.56897)">
      <clipPath id="clip27">
        <path id="path15620" d="m 0,0 0,467 580,0 0,-467 z" />
      </clipPath>
      <g id="g15622" clip-path="url(#clip27)">
        <g style="fill:none;stroke:#000000;stroke-width:2;stroke-linecap:butt;stroke-opacity:1" id="g15624">
          <path id="path15626" d="m 176.01,343.21 4,0" />
        </g>
        
      </g>
      
    </g>
    
    <g id="g15628" transform="matrix(0.576774,0,0,0.576774,0,179.56897)">
      <clipPath id="clip28">
        <path id="path15631" d="m 0,0 0,467 580,0 0,-467 z" />
      </clipPath>
      <g id="g15633" clip-path="url(#clip28)">
        <g style="fill:#000000;fill-opacity:1;fill-rule:nonzero;stroke:none" id="g15635">
          <path id="path15637" d="m 159.72,286.29 0,-0.93 5.56,0 0,0.93 z m 7.44,3.71 0,-1.18 q 0.59,-1.38 2.38,-3 l 0.77,-0.69 q 1.49,-1.34 1.49,-2.67 0,-0.85 -0.51,-1.33 -0.5,-0.49 -1.39,-0.49 -1.06,0 -2.48,0.82 l 0,-1.19 q 1.34,-0.64 2.67,-0.64 1.42,0 2.28,0.77 0.86,0.76 0.86,2.03 0,0.9 -0.43,1.61 -0.44,0.7 -1.62,1.71 l -0.52,0.44 q -1.62,1.38 -1.87,2.63 l 4.39,0 0,1.18 z" />
        </g>
        
      </g>
      
    </g>
    
    <g id="g15639" transform="matrix(0.576774,0,0,0.576774,0,179.56897)">
      <clipPath id="clip29">
        <path id="path15642" d="m 0,0 0,467 580,0 0,-467 z" />
      </clipPath>
      <g id="g15644" clip-path="url(#clip29)">
        <g style="fill:none;stroke:#000000;stroke-width:2;stroke-linecap:butt;stroke-opacity:1" id="g15646">
          <path id="path15648" d="m 176.01,284.23 4,0" />
        </g>
        
      </g>
      
    </g>
    
    <g id="g15650" transform="matrix(0.576774,0,0,0.576774,0,179.56897)">
      <clipPath id="clip30">
        <path id="path15653" d="m 0,0 0,467 580,0 0,-467 z" />
      </clipPath>
      <g id="g15655" clip-path="url(#clip30)">
        <g style="fill:#000000;fill-opacity:1;fill-rule:nonzero;stroke:none" id="g15657">
          <path id="path15659" d="m 170.39,223.25 q -1.57,0 -2.53,-1.47 -0.97,-1.47 -0.97,-3.85 0,-2.39 0.97,-3.84 0.98,-1.46 2.57,-1.46 1.59,0 2.57,1.46 0.97,1.45 0.97,3.82 0,2.44 -0.97,3.89 -0.98,1.45 -2.61,1.45 z m 0.01,-1.01 q 2.14,0 2.14,-4.35 0,-4.25 -2.11,-4.25 -2.11,0 -2.11,4.29 0,4.31 2.08,4.31 z" />
        </g>
        
      </g>
      
    </g>
    
    <g id="g15661" transform="matrix(0.576774,0,0,0.576774,0,179.56897)">
      <clipPath id="clip31">
        <path id="path15664" d="m 0,0 0,467 580,0 0,-467 z" />
      </clipPath>
      <g id="g15666" clip-path="url(#clip31)">
        <g style="fill:#000000;fill-opacity:1;fill-rule:nonzero;stroke:none" id="g15668">
          <path id="path15670" d="m 167.16,172 0,-1.18 q 0.59,-1.38 2.38,-3 l 0.77,-0.69 q 1.49,-1.34 1.49,-2.67 0,-0.85 -0.51,-1.33 -0.5,-0.49 -1.39,-0.49 -1.06,0 -2.48,0.82 l 0,-1.19 q 1.34,-0.64 2.67,-0.64 1.42,0 2.28,0.77 0.86,0.76 0.86,2.03 0,0.9 -0.43,1.61 -0.44,0.7 -1.62,1.71 l -0.52,0.44 q -1.62,1.38 -1.87,2.63 l 4.39,0 0,1.18 z" />
        </g>
        
      </g>
      
    </g>
    
    <g id="g15672" transform="matrix(0.576774,0,0,0.576774,0,179.56897)">
      <clipPath id="clip32">
        <path id="path15675" d="m 0,0 0,467 580,0 0,-467 z" />
      </clipPath>
      <g id="g15677" clip-path="url(#clip32)">
        <g style="fill:none;stroke:#000000;stroke-width:2;stroke-linecap:butt;stroke-opacity:1" id="g15679">
          <path id="path15681" d="m 176.01,166.28 4,0" />
        </g>
        
      </g>
      
    </g>
    
    <g id="g15683" transform="matrix(0.576774,0,0,0.576774,0,179.56897)">
      <clipPath id="clip33">
        <path id="path15686" d="m 0,0 0,467 580,0 0,-467 z" />
      </clipPath>
      <g id="g15688" clip-path="url(#clip33)">
        <g style="fill:#000000;fill-opacity:1;fill-rule:nonzero;stroke:none" id="g15690">
          <path id="path15692" d="m 171.27,113 0,-2.86 -4.55,0 0,-1.02 4.55,-6.24 1.27,0 0,6.16 1.35,0 0,1.1 -1.35,0 0,2.86 z m -3.23,-3.96 3.32,0 0,-4.5 z" />
        </g>
        
      </g>
      
    </g>
    
    <g id="g15694" transform="matrix(0.576774,0,0,0.576774,0,179.56897)">
      <clipPath id="clip34">
        <path id="path15697" d="m 0,0 0,467 580,0 0,-467 z" />
      </clipPath>
      <g id="g15699" clip-path="url(#clip34)">
        <g style="fill:none;stroke:#000000;stroke-width:2;stroke-linecap:butt;stroke-opacity:1" id="g15701">
          <path id="path15703" d="m 176.01,107.31 4,0" />
        </g>
        
      </g>
      
    </g>
    
    <g id="g15705" transform="matrix(0.576774,0,0,0.576774,0,179.56897)">
      <clipPath id="clip35">
        <path id="path15708" d="m 0,0 0,467 580,0 0,-467 z" />
      </clipPath>
      <g id="g15710" clip-path="url(#clip35)">
        <g style="fill:#000000;fill-opacity:1;fill-rule:nonzero;stroke:none" id="g15712">
          <path id="path15714" d="m 168.41,48.757 q 0.96,-1.251 2.42,-1.251 1.33,0 2.17,0.878 0.85,0.879 0.85,2.253 0,1.579 -0.95,2.597 -0.95,1.019 -2.4,1.019 -1.68,0 -2.62,-1.347 -0.94,-1.346 -0.94,-3.739 0,-2.632 1.08,-4.088 1.08,-1.456 3.05,-1.456 0.9,0 2.26,0.383 l 0,1.176 q -1.43,-0.547 -2.34,-0.547 -2.58,0 -2.58,4.122 z m 4.08,2.181 q 0,-1.149 -0.51,-1.805 -0.52,-0.656 -1.43,-0.656 -0.86,0 -1.47,0.574 -0.62,0.574 -0.62,1.381 0,1.271 0.59,2.04 0.58,0.769 1.54,0.769 0.87,0 1.39,-0.625 0.51,-0.626 0.51,-1.678 z" />
        </g>
        
      </g>
      
    </g>
    
    <g id="g15716" transform="matrix(0.576774,0,0,0.576774,0,179.56897)">
      <clipPath id="clip36">
        <path id="path15719" d="m 0,0 0,467 580,0 0,-467 z" />
      </clipPath>
      <g id="g15721" clip-path="url(#clip36)">
        <g style="fill:none;stroke:#000000;stroke-width:2;stroke-linecap:butt;stroke-opacity:1" id="g15723">
          <path id="path15725" d="m 176.01,48.331 4,0" />
        </g>
        
      </g>
      
    </g>
    
    <g transform="matrix(0.6,0,0,0.6,0,179.56897)" id="misc" />
    
    <g transform="matrix(0.6,0,0,0.6,0,179.56897)" id="layer0">
      <g id="g15729" transform="scale(0.96129,0.96129)">
        <clipPath id="clip37">
          <path id="path15732" d="m 0,0 0,467 580,0 0,-467 z" />
        </clipPath>
        <g id="g15734" clip-path="url(#clip37)">
          <g style="fill:none;stroke:#cc0000;stroke-width:2.5;stroke-linecap:round;stroke-linejoin:round;stroke-opacity:1" id="g15736">
            <path id="path15738" d="m 131.69,474.68 0.28,-5.04 0.57,-9.96 0.57,-9.79 0.56,-9.63 0.57,-9.45 0.56,-9.29 0.57,-9.12 0.57,-8.96 0.56,-8.79 0.57,-8.64 0.57,-8.47 0.56,-8.31 0.57,-8.16 0.57,-8 0.56,-7.84 0.57,-7.69 0.57,-7.54 0.56,-7.39 0.57,-7.23 0.56,-7.09 0.57,-6.94 0.57,-6.79 0.56,-6.65 0.57,-6.5 0.57,-6.36 0.56,-6.22 0.57,-6.08 0.57,-5.94 0.56,-5.8 0.57,-5.66 0.56,-5.53 0.57,-5.4 0.57,-5.26 0.56,-5.13 1.14,-9.88 1.13,-9.36 1.13,-8.86 1.14,-8.37 1.13,-7.89 1.13,-7.42 1.13,-6.96 1.14,-6.5 1.13,-6.07 1.13,-5.64 1.13,-5.21 2.27,-9.21 2.27,-7.64 2.26,-6.17 2.27,-4.76 2.26,-3.44 1.14,-1.25 1.13,-0.95 1.13,-0.66 0.57,-0.22 0.56,-0.15 1.14,-0.11 0.56,0.04 0.57,0.11 1.13,0.4 0.57,0.29 0.57,0.35 2.26,1.97 1.13,1.3 1.14,1.5 2.26,3.57 4.53,9.09 2.27,5.36 2.27,5.8 2.26,6.17 2.27,6.44 2.26,6.63 2.27,6.76 2.26,6.79 2.27,6.75 2.26,6.63 2.27,6.43 2.27,6.14 2.26,5.78 2.27,5.33 2.26,4.81 4.53,7.73 2.27,2.76 1.13,1.06 1.13,0.85 1.14,0.61 0.56,0.22 0.57,0.16 1.13,0.12 0.57,-0.04 0.57,-0.1 1.13,-0.41 0.57,-0.31 0.56,-0.39 1.13,-0.98 1.14,-1.29 2.26,-3.51 2.27,-4.85 2.26,-6.25 2.27,-7.73 2.27,-9.31 1.13,-5.26 1.13,-5.69 1.13,-6.12 1.14,-6.56 1.13,-7.01 1.13,-7.47 1.14,-7.95 1.13,-8.43 1.13,-8.92 1.13,-9.42 1.14,-9.94 0.56,-5.16 0.57,-5.296 0.57,-5.428 0.56,-5.562 0.57,-5.697 0.57,-5.834 0.56,-5.973 0.57,-6.112 0.56,-6.252 0.57,-6.394 0.57,-6.537 0.56,-6.682 0.57,-6.827 0.57,-6.974 0.56,-7.122 0.57,-7.2718 0.57,-7.42212 0.56,-7.57398" />
          </g>
          
        </g>
        
      </g>
      
      <g id="g15740" transform="scale(0.96129,0.96129)">
        <clipPath id="clip38">
          <path id="path15743" d="m 0,0 0,467 580,0 0,-467 z" />
        </clipPath>
        <g id="g15745" clip-path="url(#clip38)">
          <g style="fill:none;stroke:#0033cc;stroke-width:2.5;stroke-linecap:round;stroke-linejoin:round;stroke-opacity:1" id="g15747">
            <path id="path15749" d="m 56.641,477.31 1.132,-5.33 1.133,-5.26 1.133,-5.19 1.133,-5.12 1.133,-5.06 1.133,-4.98 2.265,-9.78 2.266,-9.5 2.265,-9.24 2.266,-8.99 2.266,-8.72 2.265,-8.47 2.266,-8.22 2.265,-7.98 2.266,-7.72 2.266,-7.49 2.265,-7.24 2.266,-7.01 2.266,-6.78 2.265,-6.54 2.266,-6.32 2.266,-6.1 2.262,-5.87 2.27,-5.65 2.26,-5.44 2.27,-5.23 4.53,-9.82 4.53,-9.01 4.53,-8.22 4.54,-7.46 4.53,-6.71 4.53,-5.99 4.53,-5.3 4.53,-4.62 4.53,-3.98 4.53,-3.35 4.53,-2.76 4.53,-2.17 4.54,-1.62 4.53,-1.1 4.53,-0.59 4.53,-0.1 4.53,0.35 4.53,0.78 4.53,1.2 4.54,1.58 4.53,1.94 4.53,2.28 4.53,2.6 4.53,2.89 4.53,3.16 4.53,3.4 4.53,3.62 4.53,3.81 4.54,3.99 4.53,4.14 4.53,4.26 4.53,4.36 4.53,4.44 4.53,4.5 4.53,4.52 4.54,4.53 4.53,4.51 4.53,4.47 4.53,4.41 4.53,4.31 4.53,4.2 4.53,4.07 4.53,3.91 4.53,3.72 4.54,3.51 4.53,3.28 4.53,3.03 4.53,2.74 4.53,2.45 4.53,2.11 4.53,1.77 4.54,1.39 4.53,0.99 4.53,0.57 4.53,0.13 4.53,-0.35 4.53,-0.83 4.53,-1.36 4.53,-1.9 4.53,-2.46 4.54,-3.05 4.53,-3.66 4.53,-4.29 4.53,-4.96 4.53,-5.64 4.53,-6.35 4.53,-7.08 4.54,-7.83 4.53,-8.62 4.53,-9.41 2.26,-5.02 2.27,-5.22 2.26,-5.44 2.27,-5.66 2.27,-5.87 2.26,-6.09 2.27,-6.32 2.26,-6.54 2.27,-6.78 2.26,-7.01 2.27,-7.24 2.26,-7.49 2.27,-7.72 2.27,-7.98 2.26,-8.22 2.27,-8.47 2.26,-8.72 2.27,-8.99 2.26,-9.24 2.27,-9.5 2.27,-9.77 1.13,-4.99 1.13,-5.05 1.13,-5.13 1.14,-5.19 1.13,-5.256 1.13,-5.328 1.14,-5.398 1.13,-5.467 1.13,-5.538 1.13,-5.608 1.14,-5.679 1.13,-5.751 1.13,-5.822 1.14,-5.895 1.13,-5.966 1.13,-6.04 1.13,-6.113 1.14,-6.186 1.13,-6.26 1.13,-6.335 1.13,-6.4092 1.14,-6.4843 1.13,-6.5595" />
          </g>
          
        </g>
        
      </g>
      
      <g id="g15751" transform="matrix(0.96129,0,0,0.96129,0,-2.2185986)">
        <clipPath id="clip39">
          <path id="path15754" d="m 0,0 0,467 580,0 0,-467 z" />
        </clipPath>
        <g id="g15756" clip-path="url(#clip39)">
          <g style="fill:none;stroke:#000000;stroke-width:2;stroke-linecap:butt;stroke-linejoin:round;stroke-opacity:1;stroke-dasharray:6, 4" id="g15758">
            <path id="path15760" d="m 238.99,225.26 117.95,0" />
          </g>
          
        </g>
        
      </g>
      
      <g id="g15762" transform="matrix(0.96129,0,0,0.96129,6.6666668,0)">
        <clipPath id="clip40">
          <path id="path15765" d="m 0,0 0,467 580,0 0,-467 z" />
        </clipPath>
        <g id="g15767" clip-path="url(#clip40)">
          <g style="fill:none;stroke:#000000;stroke-width:2;stroke-linecap:round;stroke-linejoin:round;stroke-opacity:1" id="g15769">
            <path id="path15771" d="m 302.47,225.26 -4.5,5.5" />
          </g>
          
        </g>
        
      </g>
      
      <g id="g15773" transform="matrix(0.96129,0,0,0.96129,6.6666668,0)">
        <clipPath id="clip41">
          <path id="path15776" d="m 0,0 0,467 580,0 0,-467 z" />
        </clipPath>
        <g id="g15778" clip-path="url(#clip41)">
          <g style="fill:none;stroke:#000000;stroke-width:2;stroke-linecap:round;stroke-linejoin:round;stroke-opacity:1" id="g15780">
            <path id="path15782" d="m 302.47,225.26 -4.5,-5.5" />
          </g>
          
        </g>
        
      </g>
      
      <g id="g15784" transform="scale(0.96129,0.96129)">
        <clipPath id="clip42">
          <path id="path15787" d="m 0,0 0,467 580,0 0,-467 z" />
        </clipPath>
        <g id="g15789" clip-path="url(#clip42)">
          <g style="fill:none;stroke:#000000;stroke-width:2;stroke-linecap:butt;stroke-linejoin:round;stroke-opacity:1;stroke-dasharray:6, 4" id="g15791">
            <path id="path15793" d="m 356.94,225.26 0,117.95" />
          </g>
          
        </g>
        
      </g>
      
      <g id="g15795" transform="scale(0.96129,0.96129)">
        <clipPath id="clip43">
          <path id="path15798" d="m 0,0 0,467 580,0 0,-467 z" />
        </clipPath>
        <g id="g15800" clip-path="url(#clip43)">
          <g style="fill:none;stroke:#000000;stroke-width:2;stroke-linecap:round;stroke-linejoin:round;stroke-opacity:1" id="g15802">
            <path id="path15804" d="m 356.94,288.73 -5.5,-4.5" />
          </g>
          
        </g>
        
      </g>
      
      <g id="g15806" transform="scale(0.96129,0.96129)">
        <clipPath id="clip44">
          <path id="path15809" d="m 0,0 0,467 580,0 0,-467 z" />
        </clipPath>
        <g id="g15811" clip-path="url(#clip44)">
          <g style="fill:none;stroke:#000000;stroke-width:2;stroke-linecap:round;stroke-linejoin:round;stroke-opacity:1" id="g15813">
            <path id="path15815" d="m 356.94,288.73 5.5,-4.5" />
          </g>
          
        </g>
        
      </g>
      
      <g id="g15817" transform="scale(0.96129,0.96129)">
        <clipPath id="clip45">
          <path id="path15820" d="m 0,0 0,467 580,0 0,-467 z" />
        </clipPath>
        <g id="g15822" clip-path="url(#clip45)">
          <g style="fill:none;stroke:#000000;stroke-width:2;stroke-linecap:butt;stroke-linejoin:round;stroke-opacity:1;stroke-dasharray:6, 4" id="g15824">
            <path id="path15826" d="m 238.99,225.26 0,117.95" />
          </g>
          
        </g>
        
      </g>
      
      <g id="g15828" transform="scale(0.96129,0.96129)">
        <clipPath id="clip46">
          <path id="path15831" d="m 0,0 0,467 580,0 0,-467 z" />
        </clipPath>
        <g id="g15833" clip-path="url(#clip46)">
          <g style="fill:none;stroke:#000000;stroke-width:2;stroke-linecap:round;stroke-linejoin:round;stroke-opacity:1" id="g15835">
            <path id="path15837" d="m 238.99,288.73 -5.5,-4.5" />
          </g>
          
        </g>
        
      </g>
      
      <g id="g15839" transform="scale(0.96129,0.96129)">
        <clipPath id="clip47">
          <path id="path15842" d="m 0,0 0,467 580,0 0,-467 z" />
        </clipPath>
        <g id="g15844" clip-path="url(#clip47)">
          <g style="fill:none;stroke:#000000;stroke-width:2;stroke-linecap:round;stroke-linejoin:round;stroke-opacity:1" id="g15846">
            <path id="path15848" d="m 238.99,288.73 5.5,-4.5" />
          </g>
          
        </g>
        
      </g>
      
      <g id="g15850" transform="scale(0.96129,0.96129)">
        <clipPath id="clip48">
          <path id="path15853" d="m 0,0 0,467 580,0 0,-467 z" />
        </clipPath>
        <g id="g15855" clip-path="url(#clip48)">
          <g style="fill:none;stroke:#000000;stroke-width:2;stroke-linecap:butt;stroke-linejoin:round;stroke-opacity:1;stroke-dasharray:6, 4" id="g15857">
            <path id="path15859" d="m 238.99,343.21 117.95,0" />
          </g>
          
        </g>
        
      </g>
      
      <g id="g15861" transform="scale(0.96129,0.96129)">
        <clipPath id="clip49">
          <path id="path15864" d="m 0,0 0,467 580,0 0,-467 z" />
        </clipPath>
        <g id="g15866" clip-path="url(#clip49)">
          <g style="fill:none;stroke:#000000;stroke-width:2;stroke-linecap:round;stroke-linejoin:round;stroke-opacity:1" id="g15868">
            <path id="path15870" d="m 302.47,343.21 -4.5,5.5" />
          </g>
          
        </g>
        
      </g>
      
      <g id="g15872" transform="scale(0.96129,0.96129)">
        <clipPath id="clip50">
          <path id="path15875" d="m 0,0 0,467 580,0 0,-467 z" />
        </clipPath>
        <g id="g15877" clip-path="url(#clip50)">
          <g style="fill:none;stroke:#000000;stroke-width:2;stroke-linecap:round;stroke-linejoin:round;stroke-opacity:1" id="g15879">
            <path id="path15881" d="m 302.47,343.21 -4.5,-5.5" />
          </g>
          
        </g>
        
      </g>
      
      <g id="g15883" transform="matrix(27.3975,0,0,27.3975,265.03461,143.11687)">
        <clipPath id="clip51">
          <path id="path15886" d="m -14.526,-7.9605 0,24.5785 30.526,0 0,-24.5785 z" />
        </clipPath>
        <g id="g15888" clip-path="url(#clip51)">
          <g style="fill:#000000;fill-opacity:1;fill-rule:nonzero;stroke:none" id="g15890">
            <path id="path15892" d="M 0.48438,-0.375 0.39062,0 Q 0.35938,0.09375 0.28125,0.15625 0.21875,0.20312 0.15625,0.20312 0.09375,0.20312 0.0625,0.15625 0.046875,0.14062 0.046875,0.125 q 0,-0.0625 0.046875,-0.0625 0,-0.015625 0.01563,-0.015625 0.03124,0 0.03124,0.03125 0,0 0,0.015625 0,0.01563 -0.01562,0.03125 Q 0.10938,0.14062 0.078125,0.14062 0.09375,0.1875 0.15625,0.1875 q 0.0625,0 0.10937,-0.0625 0.04688,-0.0625 0.0625,-0.140625 0,-0.015625 0,-0.015625 -0.04687,0.046875 -0.09374,0.046875 -0.07813,0 -0.10938,-0.0625 -0.01562,-0.03125 -0.01562,-0.062505 0,-0.04687 0.04687,-0.20312 0,0 0.01563,0 0.01562,-0.04688 0.01562,-0.07812 0,-0.03126 -0.03125,-0.03126 -0.04687,0 -0.09375,0.09376 l 0,0 q 0,0.01562 0,0.03124 -0.015625,0.01563 -0.015625,0.01563 -0.015625,0 -0.015625,0 0,-0.03125 0.015625,-0.0625 0.046875,-0.09375 0.109375,-0.09375 0.0625,0 0.07813,0.04688 Q 0.25,-0.375 0.25,-0.35938 q 0,0.01563 -0.03125,0.07813 -0.04687,0.125 -0.04687,0.1875 0,0.078125 0.0625,0.078125 0.0625,0 0.09374,-0.0625 0.01563,-0.015625 0.01563,-0.015625 l 0.04687,-0.1875 Q 0.40625,-0.3125 0.40625,-0.35938 0.42188,-0.40625 0.42188,-0.40625 0.4375,-0.4375 0.46875,-0.4375 q 0.01563,0.01562 0.01563,0.03125 0,0.01563 0,0.03125 z" />
          </g>
          
        </g>
        
      </g>
      
      <g id="g15894" transform="matrix(27.3975,0,0,27.3975,286.07961,143.11687)">
        <clipPath id="clip52">
          <path id="path15897" d="m -15.294,-7.9605 0,24.5785 30.526,0 0,-24.5785 z" />
        </clipPath>
        <g id="g15899" clip-path="url(#clip52)">
          <g style="fill:#000000;fill-opacity:1;fill-rule:nonzero;stroke:none" id="g15901">
            <path id="path15903" d="m 0.6875,-0.32812 -0.59375,0 q -0.03125,0 -0.03125,-0.01563 0,-0.01563 0.03125,-0.01563 l 0.59375,0 q 0.03125,0 0.03125,0.01563 0,0.01563 -0.03125,0.01563 z m 0,0.1875 -0.59375,0 q -0.03125,0 -0.03125,-0.01563 0,-0.01563 0.03125,-0.01563 l 0.59375,0 q 0.03125,0 0.03125,0.01563 0,0.01563 -0.03125,0.01563 z" />
          </g>
          
        </g>
        
      </g>
      
      <g id="g15905" transform="matrix(27.3975,0,0,27.3975,314.98461,143.11687)">
        <clipPath id="clip53">
          <path id="path15908" d="m -16.35,-7.9605 0,24.5785 30.526,0 0,-24.5785 z" />
        </clipPath>
        <g id="g15910" clip-path="url(#clip53)">
          <g style="fill:#000000;fill-opacity:1;fill-rule:nonzero;stroke:none" id="g15912">
            <path id="path15914" d="m 0.35938,-0.40625 0,0 -0.04688,0.328125 q -0.01562,0.0625 -0.04688,0.140625 0,0.03125 -0.01562,0.04688 -0.03125,0.07812 -0.09375,0.09374 0,0 -0.01563,0 -0.04687,0 -0.07812,-0.03124 -0.015625,-0.01563 -0.015625,-0.03126 0,-0.04687 0.046875,-0.062495 0,0 0.01563,0 0.03124,0 0.03124,0.015625 0,0.01563 0,0.01563 0,0.03124 -0.03124,0.04687 0,0 -0.01563,0.01563 0.01563,0.01562 0.04687,0.01562 0.04688,0 0.0625,-0.109375 Q 0.21875,0.0625 0.21875,0.03125 l 0,-0.03125 0.07813,-0.40625 -0.0625,0 q -0.03126,0 -0.03126,0 l 0,0 0,0 q 0,-0.01563 0.01563,-0.03125 l 0,0 0.01563,0 0.07812,0 Q 0.32812,-0.5625 0.34375,-0.59375 0.375,-0.6875 0.4375,-0.70312 q 0.01562,0 0.03125,0 0.04687,0 0.07813,0.03124 l 0,0 q 0,0.01563 0,0.03126 0,0.04687 -0.03126,0.0625 0,0 -0.01562,0 -0.03125,0 -0.03125,-0.01563 -0.01563,-0.01563 -0.01563,-0.01563 0,-0.03124 0.03126,-0.04687 0.01562,0 0.03124,-0.01563 Q 0.5,-0.6875 0.46875,-0.6875 q -0.03125,0 -0.04687,0.03125 -0.01563,0.01563 -0.03126,0.10937 L 0.375,-0.4375 l 0.07812,0 q 0.03126,0 0.03126,0.01562 0,0.01563 -0.01563,0.01563 l 0,0 -0.01563,0 -0.09374,0 z" />
          </g>
          
        </g>
        
      </g>
      
      <g id="g15916" transform="matrix(27.3975,0,0,27.3975,328.40961,143.11687)">
        <clipPath id="clip54">
          <path id="path15919" d="m -16.84,-7.9605 0,24.5785 30.527,0 0,-24.5785 z" />
        </clipPath>
        <g id="g15921" clip-path="url(#clip54)">
          <g style="fill:#000000;fill-opacity:1;fill-rule:nonzero;stroke:none" id="g15923">
            <path id="path15925" d="m 0.32812,0.23438 0,0 q 0,0.01562 0,0.01562 Q 0.3125,0.25 0.26562,0.20312 0.20312,0.14062 0.17188,0.0625 0.09375,-0.078125 0.09375,-0.25 q 0,-0.17188 0.0625,-0.3125 0.0625,-0.10938 0.14063,-0.17188 Q 0.3125,-0.75 0.32812,-0.75 q 0,0 0,0.01562 0,0 -0.01562,0.01563 -0.15625,0.15625 -0.15625,0.46875 0,0.3125 0.15625,0.46875 0.01562,0.01563 0.01562,0.01563 z" />
          </g>
          
        </g>
        
      </g>
      
      <g id="g15927" transform="matrix(27.3975,0,0,27.3975,339.05961,143.11687)">
        <clipPath id="clip55">
          <path id="path15930" d="m -17.228,-7.9605 0,24.5785 30.526,0 0,-24.5785 z" />
        </clipPath>
        <g id="g15932" clip-path="url(#clip55)">
          <g style="fill:#000000;fill-opacity:1;fill-rule:nonzero;stroke:none" id="g15934">
            <path id="path15936" d="m 0.32812,-0.29688 -0.03124,0.125 q -0.01563,0.07813 -0.01563,0.093755 0,0.046875 0.03125,0.0625 0.01562,0 0.03125,0 0.04687,0 0.07813,-0.046875 0.03124,-0.03125 0.04687,-0.07812 0,-0.01563 0.01563,-0.01563 0.01562,0 0.01562,0.01563 0,0.01562 -0.03125,0.062495 -0.0625,0.09375 -0.125,0.09375 -0.07813,0 -0.10937,-0.0625 0,-0.015625 0,-0.015625 Q 0.20312,-0.015625 0.15625,0 0.14062,0.015625 0.125,0.015625 q -0.0625,0 -0.09375,-0.046875 0,0 0,-0.03125 0,-0.03125 0.03125,-0.04688 0.015625,0 0.015625,0 0.031255,0 0.046875,0.01563 0,0.015625 0,0.015625 0,0.03125 -0.03125,0.046875 -0.015625,0 -0.015625,0 0.015625,0.015625 0.046875,0.015625 0.04688,0 0.07812,-0.0625 0.01563,-0.015625 0.01563,-0.031255 0.04687,-0.20312 0.04687,-0.25 0,-0.0625 -0.04687,-0.0625 -0.04687,0 -0.09375,0.0625 l 0,0 q 0,0 0,0 -0.01562,0.01563 -0.03125,0.04688 0,0 0,0.01562 l -0.015625,0.01563 q 0,0 0,0 -0.015625,0 -0.015625,0 0,-0.03125 0.03125,-0.07813 0.04687,-0.07812 0.125,-0.07812 0.07813,0 0.10937,0.07812 0.03126,-0.0625 0.07813,-0.07812 0.01563,0 0.03125,0 0.0625,0 0.07812,0.03125 0.01563,0.01563 0.01563,0.03125 0,0.04688 -0.04687,0.04688 0,0.01562 -0.01563,0.01562 -0.03125,0 -0.03125,-0.03125 0,0 0,-0.01563 0,-0.03124 0.03125,-0.04687 0,0 0.01563,0 -0.01563,-0.01563 -0.04688,-0.01563 -0.07812,0 -0.09375,0.10938 -0.01563,0 -0.01563,0.01562 z" />
          </g>
          
        </g>
        
      </g>
      
      <g id="g15938" transform="matrix(27.3975,0,0,27.3975,354.71961,143.11687)">
        <clipPath id="clip56">
          <path id="path15941" d="m -17.8,-7.9605 0,24.5785 30.526,0 0,-24.5785 z" />
        </clipPath>
        <g id="g15943" clip-path="url(#clip56)">
          <g style="fill:#000000;fill-opacity:1;fill-rule:nonzero;stroke:none" id="g15945">
            <path id="path15947" d="m 0.28125,-0.25 0,0 q 0,0.171875 -0.0625,0.3125 Q 0.17188,0.17188 0.09375,0.23438 0.078125,0.25 0.0625,0.25 q 0,0 0,-0.01562 0,0 0,-0.01563 Q 0.23438,0.0625 0.23438,-0.25 q 0,-0.3125 -0.156255,-0.46875 l 0,0 Q 0.0625,-0.73438 0.0625,-0.73438 q 0,-0.01562 0,-0.01562 0.015625,0 0.0625,0.04688 0.0625,0.0625 0.09375,0.14062 0.0625,0.14062 0.0625,0.3125 z" />
          </g>
          
        </g>
        
      </g>
      
      <g id="g15949" transform="matrix(27.3975,0,0,27.3975,282.33461,359.8873)">
        <clipPath id="clip57">
          <path id="path15952" d="m -15.474,-20.054 0,24.5785 30.527,0 0,-24.5785 z" />
        </clipPath>
        <g id="g15954" clip-path="url(#clip57)">
          <g style="fill:#000000;fill-opacity:1;fill-rule:nonzero;stroke:none" id="g15956">
            <path id="path15958" d="M 0.48438,-0.375 0.39062,0 Q 0.35938,0.09375 0.28125,0.15625 0.21875,0.20312 0.15625,0.20312 0.09375,0.20312 0.0625,0.15625 0.046875,0.14062 0.046875,0.125 q 0,-0.0625 0.046875,-0.0625 0,-0.015625 0.01563,-0.015625 0.03124,0 0.03124,0.03125 0,0 0,0.015625 0,0.01563 -0.01562,0.03125 Q 0.10938,0.14062 0.078125,0.14062 0.09375,0.1875 0.15625,0.1875 q 0.0625,0 0.10937,-0.0625 0.04688,-0.0625 0.0625,-0.140625 0,-0.015625 0,-0.015625 -0.04687,0.046875 -0.09374,0.046875 -0.07813,0 -0.10938,-0.0625 -0.01562,-0.03125 -0.01562,-0.062505 0,-0.04687 0.04687,-0.20312 0,0 0.01563,0 0.01562,-0.04688 0.01562,-0.07812 0,-0.03126 -0.03125,-0.03126 -0.04687,0 -0.09375,0.09376 l 0,0 q 0,0.01562 0,0.03124 -0.015625,0.01563 -0.015625,0.01563 -0.015625,0 -0.015625,0 0,-0.03125 0.015625,-0.0625 0.046875,-0.09375 0.109375,-0.09375 0.0625,0 0.07813,0.04688 Q 0.25,-0.375 0.25,-0.35938 q 0,0.01563 -0.03125,0.07813 -0.04687,0.125 -0.04687,0.1875 0,0.078125 0.0625,0.078125 0.0625,0 0.09374,-0.0625 0.01563,-0.015625 0.01563,-0.015625 l 0.04687,-0.1875 Q 0.40625,-0.3125 0.40625,-0.35938 0.42188,-0.40625 0.42188,-0.40625 0.4375,-0.4375 0.46875,-0.4375 q 0.01563,0.01562 0.01563,0.03125 0,0.01563 0,0.03125 z" />
          </g>
          
        </g>
        
      </g>
      
      <g id="g15960" transform="matrix(27.3975,0,0,27.3975,303.37961,359.8873)">
        <clipPath id="clip58">
          <path id="path15963" d="m -16.242,-20.054 0,24.5785 30.527,0 0,-24.5785 z" />
        </clipPath>
        <g id="g15965" clip-path="url(#clip58)">
          <g style="fill:#000000;fill-opacity:1;fill-rule:nonzero;stroke:none" id="g15967">
            <path id="path15969" d="m 0.6875,-0.32812 -0.59375,0 q -0.03125,0 -0.03125,-0.01563 0,-0.01563 0.03125,-0.01563 l 0.59375,0 q 0.03125,0 0.03125,0.01563 0,0.01563 -0.03125,0.01563 z m 0,0.1875 -0.59375,0 q -0.03125,0 -0.03125,-0.01563 0,-0.01563 0.03125,-0.01563 l 0.59375,0 q 0.03125,0 0.03125,0.01563 0,0.01563 -0.03125,0.01563 z" />
          </g>
          
        </g>
        
      </g>
      
      <g id="g15971" transform="matrix(27.3975,0,0,27.3975,332.29961,359.8873)">
        <clipPath id="clip59">
          <path id="path15974" d="m -17.297,-20.054 0,24.5785 30.526,0 0,-24.5785 z" />
        </clipPath>
        <g id="g15976" clip-path="url(#clip59)">
          <g style="fill:#000000;fill-opacity:1;fill-rule:nonzero;stroke:none" id="g15978">
            <path id="path15980" d="m 0.35938,-0.40625 0,0 -0.04688,0.328125 q -0.01562,0.0625 -0.04688,0.140625 0,0.03125 -0.01562,0.04688 -0.03125,0.07812 -0.09375,0.09374 0,0 -0.01563,0 -0.04687,0 -0.07812,-0.03124 -0.015625,-0.01563 -0.015625,-0.03126 0,-0.04687 0.046875,-0.062495 0,0 0.01563,0 0.03124,0 0.03124,0.015625 0,0.01563 0,0.01563 0,0.03124 -0.03124,0.04687 0,0 -0.01563,0.01563 0.01563,0.01562 0.04687,0.01562 0.04688,0 0.0625,-0.109375 Q 0.21875,0.0625 0.21875,0.03125 l 0,-0.03125 0.07813,-0.40625 -0.0625,0 q -0.03126,0 -0.03126,0 l 0,0 0,0 q 0,-0.01563 0.01563,-0.03125 l 0,0 0.01563,0 0.07812,0 Q 0.32812,-0.5625 0.34375,-0.59375 0.375,-0.6875 0.4375,-0.70312 q 0.01562,0 0.03125,0 0.04687,0 0.07813,0.03124 l 0,0 q 0,0.01563 0,0.03126 0,0.04687 -0.03126,0.0625 0,0 -0.01562,0 -0.03125,0 -0.03125,-0.01563 -0.01563,-0.01563 -0.01563,-0.01563 0,-0.03124 0.03126,-0.04687 0.01562,0 0.03124,-0.01563 Q 0.5,-0.6875 0.46875,-0.6875 q -0.03125,0 -0.04687,0.03125 -0.01563,0.01563 -0.03126,0.10937 L 0.375,-0.4375 l 0.07812,0 q 0.03126,0 0.03126,0.01562 0,0.01563 -0.01563,0.01563 l 0,0 -0.01563,0 -0.09374,0 z" />
          </g>
          
        </g>
        
      </g>
      
      <g id="g15982" transform="matrix(27.3975,0,0,27.3975,345.70961,337.6873)">
        <clipPath id="clip60">
          <path id="path15985" d="m -17.787,-19.244 0,24.5785 30.526,0 0,-24.5785 z" />
        </clipPath>
        <g id="g15987" clip-path="url(#clip60)">
          <g style="fill:#000000;fill-opacity:1;fill-rule:nonzero;stroke:none" id="g15989">
            <path id="path15991" d="M 0.39062,1.1562 Q 0.26562,1.0469 0.21094,0.89062 0.15625,0.73438 0.15625,0.5625 q 0,-0.1875 0.05469,-0.34375 0.05468,-0.15625 0.17968,-0.25 0,-0.015625 0,-0.015625 l 0.01563,0 q 0,0 0.00781,0.007813 0.00782,0.007812 0.00782,0.007812 0,0 0,0 Q 0.35938,0.03125 0.32031,0.10156 0.28125,0.17188 0.26562,0.24219 0.25,0.3125 0.23438,0.39844 0.21875,0.48438 0.21875,0.5625 q 0,0.39062 0.20313,0.5781 0,0 0,0.0156 0,0 -0.00782,0 -0.00781,0 -0.00781,0 l -0.01563,0 q 0,0 0,0 z" />
          </g>
          
        </g>
        
      </g>
      
      <g id="g15993" transform="matrix(27.3975,0,0,27.3975,366.12461,341.3473)">
        <clipPath id="clip61">
          <path id="path15996" d="m -18.532,-19.378 0,24.579 30.526,0 0,-24.579 z" />
        </clipPath>
        <g id="g15998" clip-path="url(#clip61)">
          <g style="fill:#000000;fill-opacity:1;fill-rule:nonzero;stroke:none" id="g16000">
            <path id="path16002" d="m 0.32812,-0.29688 -0.03124,0.125 q -0.01563,0.07813 -0.01563,0.093755 0,0.046875 0.03125,0.0625 0.01562,0 0.03125,0 0.04687,0 0.07813,-0.046875 0.03124,-0.03125 0.04687,-0.07812 0,-0.01563 0.01563,-0.01563 0.01562,0 0.01562,0.01563 0,0.01562 -0.03125,0.062495 -0.0625,0.09375 -0.125,0.09375 -0.07813,0 -0.10937,-0.0625 0,-0.015625 0,-0.015625 Q 0.20312,-0.015625 0.15625,0 0.14062,0.015625 0.125,0.015625 q -0.0625,0 -0.09375,-0.046875 0,0 0,-0.03125 0,-0.03125 0.03125,-0.04688 0.015625,0 0.015625,0 0.031255,0 0.046875,0.01563 0,0.015625 0,0.015625 0,0.03125 -0.03125,0.046875 -0.015625,0 -0.015625,0 0.015625,0.015625 0.046875,0.015625 0.04688,0 0.07812,-0.0625 0.01563,-0.015625 0.01563,-0.031255 0.04687,-0.20312 0.04687,-0.25 0,-0.0625 -0.04687,-0.0625 -0.04687,0 -0.09375,0.0625 l 0,0 q 0,0 0,0 -0.01562,0.01563 -0.03125,0.04688 0,0 0,0.01562 l -0.015625,0.01563 q 0,0 0,0 -0.015625,0 -0.015625,0 0,-0.03125 0.03125,-0.07813 0.04687,-0.07812 0.125,-0.07812 0.07813,0 0.10937,0.07812 0.03126,-0.0625 0.07813,-0.07812 0.01563,0 0.03125,0 0.0625,0 0.07812,0.03125 0.01563,0.01563 0.01563,0.03125 0,0.04688 -0.04687,0.04688 0,0.01562 -0.01563,0.01562 -0.03125,0 -0.03125,-0.03125 0,0 0,-0.01563 0,-0.03124 0.03125,-0.04687 0,0 0.01563,0 -0.01563,-0.01563 -0.04688,-0.01563 -0.07812,0 -0.09375,0.10938 -0.01563,0 -0.01563,0.01562 z" />
          </g>
          
        </g>
        
      </g>
      
      <g id="g16004" transform="matrix(27.3975,0,0,27.3975,-141.59539,-189.5477)">
        <clipPath id="clip62">
          <path id="path16007" d="m 0,0 0,24.579 30.526,0 0,-24.579 z" />
        </clipPath>
        <g id="g16009" clip-path="url(#clip62)">
          <g style="fill:#000000;fill-opacity:1;fill-rule:nonzero;stroke:none" id="g16011">
            <path id="path16013" d="m 18.532,19.784 0.571,0 0,0.04 -0.571,0 0,-0.04 z" />
          </g>
          
        </g>
        
      </g>
      
      <g id="g16015" transform="matrix(27.3975,0,0,27.3975,367.09961,378.6673)">
        <clipPath id="clip63">
          <path id="path16018" d="m -18.568,-20.74 0,24.5786 30.527,0 0,-24.5786 z" />
        </clipPath>
        <g id="g16020" clip-path="url(#clip63)">
          <g style="fill:#000000;fill-opacity:1;fill-rule:nonzero;stroke:none" id="g16022">
            <path id="path16024" d="m 0.29688,-0.35938 0,0 q 0.09374,0.03126 0.14062,0.10938 0.01562,0.03125 0.01562,0.07812 0,0.07813 -0.0625,0.14063 -0.0625,0.046875 -0.14062,0.046875 -0.10938,0 -0.171875,-0.046875 -0.03125,-0.046875 -0.03125,-0.10937 0,-0.04688 0.03125,-0.04688 0.015625,0 0.015625,0 0.04687,0 0.0625,0.03125 0,0.01563 0,0.01563 0,0.04687 -0.03125,0.062495 -0.01562,0 -0.03125,0 0.03125,0.0625 0.125,0.0625 Q 0.23438,0 0.23438,0 0.3125,0 0.32812,-0.0625 q 0.03126,-0.04688 0.03126,-0.10938 0,-0.125 -0.07813,-0.15624 Q 0.25,-0.34375 0.23438,-0.34375 l -0.04688,0 q -0.01562,0 -0.01562,0 0,-0.01563 0.01562,-0.01563 0.01562,0 0.03125,0 0.04687,0 0.07813,-0.04687 l 0,0 0,0 0,0 0,0 0.01562,-0.01563 q 0.03125,-0.04687 0.03125,-0.10937 0,-0.09375 -0.07813,-0.10937 -0.01562,0 -0.03124,0 -0.0625,0 -0.10938,0.04687 -0.01562,0 -0.01562,0.01563 0.0625,0 0.0625,0.04687 0,0.03125 -0.03126,0.04687 -0.01562,0 -0.01562,0 -0.046875,0 -0.046875,-0.03124 l 0,0 0,0 q -0.015625,0 -0.015625,-0.01563 0,-0.0625 0.07812,-0.10937 0.04688,-0.03126 0.10938,-0.03126 0.09375,0 0.14062,0.0625 l 0,0 q 0.04688,0.03126 0.04688,0.07813 0,0.09375 -0.07812,0.14063 -0.03126,0.03124 -0.0625,0.03124 z" />
          </g>
          
        </g>
        
      </g>
      
      <g id="g16026" transform="matrix(27.3975,0,0,27.3975,389.62961,337.6873)">
        <clipPath id="clip64">
          <path id="path16029" d="m -19.39,-19.244 0,24.5785 30.526,0 0,-24.5785 z" />
        </clipPath>
        <g id="g16031" clip-path="url(#clip64)">
          <g style="fill:#000000;fill-opacity:1;fill-rule:nonzero;stroke:none" id="g16033">
            <path id="path16035" d="m 0.046875,1.1562 q 0,0 0,0 0,-0.0156 0,-0.0156 Q 0.10938,1.0625 0.15625,0.96875 0.20312,0.875 0.21875,0.77344 0.23438,0.67188 0.23438,0.5625 q 0,-0.39062 -0.187505,-0.59375 0,0 0,0 0,-0.015625 0,-0.015625 l 0.015625,0 q 0,0 0,0.015625 0.125,0.09375 0.1875,0.25 Q 0.3125,0.375 0.3125,0.5625 0.3125,0.73438 0.25,0.89062 0.1875,1.0469 0.0625,1.1562 q 0,0 0,0 l -0.015625,0 z" />
          </g>
          
        </g>
        
      </g>
      
      <g id="g16037" transform="matrix(27.3975,0,0,27.3975,408.27461,359.8873)">
        <clipPath id="clip65">
          <path id="path16040" d="m -20.071,-20.054 0,24.5785 30.527,0 0,-24.5785 z" />
        </clipPath>
        <g id="g16042" clip-path="url(#clip65)">
          <g style="fill:#000000;fill-opacity:1;fill-rule:nonzero;stroke:none" id="g16044">
            <path id="path16046" d="m 0.65625,-0.23438 -0.54687,0 q -0.031255,0 -0.031255,-0.01562 0,-0.01562 0.031255,-0.01562 l 0.54687,0 q 0.03125,0 0.03125,0.01562 0,0.01562 -0.03125,0.01562 z" />
          </g>
          
        </g>
        
      </g>
      
      <g id="g16048" transform="matrix(27.3975,0,0,27.3975,435.67961,359.8873)">
        <clipPath id="clip66">
          <path id="path16051" d="m -21.071,-20.054 0,24.5785 30.5267,0 0,-24.5785 z" />
        </clipPath>
        <g id="g16053" clip-path="url(#clip66)">
          <g style="fill:#000000;fill-opacity:1;fill-rule:nonzero;stroke:none" id="g16055">
            <path id="path16057" d="m 0.03125,-0.17188 0,-0.03124 0.29687,-0.46876 q 0.01563,0 0.03126,0 0.01562,0 0.01562,0 l 0,0.01563 0,0.45313 0.09375,0 0,0.03124 -0.09375,0 0,0.093755 q 0,0.03125 0.01562,0.03125 0,0.015625 0.0625,0.015625 l 0.01563,0 0,0.03125 Q 0.42188,0 0.32812,0 0.23438,0 0.20312,0 l 0,-0.03125 0.01563,0 q 0.0625,0 0.07813,-0.015625 0,-0.015625 0,-0.03125 l 0,-0.093755 -0.26563,0 z m 0.26563,-0.03124 0,-0.35938 -0.23438,0.35938 0.23438,0 z" />
          </g>
          
        </g>
        
      </g>
      
    </g>
    
  </g>
  
</svg>