<?xml version='1.0' ?><svg xmlns:dc="http://purl.org/dc/elements/1.1/" xmlns:cc="http://creativecommons.org/ns#" xmlns:rdf="http://www.w3.org/1999/02/22-rdf-syntax-ns#" xmlns:svg="http://www.w3.org/2000/svg" xmlns="http://www.w3.org/2000/svg" id="svg19902" y="0px" x="0px" version="1.1" width="333.15342" height="269.17413" viewBox="83.20762911824009 752.5868101141297 333.15342447729995 269.1741336174725" preserveAspectRatio="none">
  <metadata id="metadata20640">
    <rdf:RDF>
      <cc:Work rdf:about="">
        <dc:format>image/svg+xml</dc:format>
        <dc:type rdf:resource="http://purl.org/dc/dcmitype/StillImage" />
      </cc:Work>
    </rdf:RDF>
  </metadata>
  <defs id="defs20638" />
  <title id="title19904" />
  <g transform="translate(83.207628,752.5868)" style="stroke-width:1;stroke-linecap:square;stroke-linejoin:miter;stroke-miterlimit:10;stroke-dasharray:none;stroke-dashoffset:0" id="g19906" stroke-miterlimit="10.000">
    <g id="g19908" transform="scale(0.57639,0.57639)">
      <clipPath id="clip1">
        <path id="path19911" d="m 0,0 0,467 580,0 0,-467 z" />
      </clipPath>
      <g id="g19913" clip-path="url(#clip1)">
        <g style="fill:none;stroke:#000000;stroke-width:2;stroke-linecap:butt;stroke-opacity:1" id="g19915">
          <path id="path19917" d="m 136.88,3 0,464" />
        </g>
        
      </g>
      
    </g>
    
    <g id="g19919" transform="scale(0.57639,0.57639)">
      <clipPath id="clip2">
        <path id="path19922" d="m 0,0 0,467 580,0 0,-467 z" />
      </clipPath>
      <g id="g19924" clip-path="url(#clip2)">
        <g style="fill:#000000;fill-opacity:1;fill-rule:evenodd;stroke:none" id="g19926">
          <path id="path19928" d="m 136.88,2 -5,20 10,0" />
        </g>
        
      </g>
      
    </g>
    
    <g id="g19930" transform="scale(0.57639,0.57639)">
      <clipPath id="clip3">
        <path id="path19933" d="m 0,0 0,467 580,0 0,-467 z" />
      </clipPath>
      <g id="g19935" clip-path="url(#clip3)">
        <g style="fill:none;stroke:#000000;stroke-width:2;stroke-linecap:butt;stroke-opacity:1" id="g19937">
          <path id="path19939" d="m 0,256.81 577,0" />
        </g>
        
      </g>
      
    </g>
    
    <g id="g19941" transform="scale(0.57639,0.57639)">
      <clipPath id="clip4">
        <path id="path19944" d="m 0,0 0,467 580,0 0,-467 z" />
      </clipPath>
      <g id="g19946" clip-path="url(#clip4)">
        <g style="fill:#000000;fill-opacity:1;fill-rule:evenodd;stroke:none" id="g19948">
          <path id="path19950" d="m 578,256.81 -20,-5 0,10" />
        </g>
        
      </g>
      
    </g>
    
    <g id="g19952" transform="scale(0.57639,0.57639)">
      <clipPath id="clip5">
        <path id="path19955" d="m 0,0 0,467 580,0 0,-467 z" />
      </clipPath>
      <g id="g19957" clip-path="url(#clip5)">
        <g style="fill:#000000;fill-opacity:1;fill-rule:nonzero;stroke:none" id="g19959">
          <path id="path19961" d="m 32.718,270.29 0,-0.93 5.564,0 0,0.93 z m 7.444,3.71 0,-1.18 q 0.588,-1.38 2.379,-3 l 0.772,-0.69 q 1.491,-1.34 1.491,-2.67 0,-0.85 -0.51,-1.33 -0.509,-0.49 -1.398,-0.49 -1.052,0 -2.481,0.82 l 0,-1.19 q 1.347,-0.64 2.673,-0.64 1.422,0 2.283,0.77 0.861,0.76 0.861,2.03 0,0.9 -0.434,1.61 -0.434,0.7 -1.616,1.71 l -0.52,0.44 q -1.62,1.38 -1.873,2.63 l 4.396,0 0,1.18 z" />
        </g>
        
      </g>
      
    </g>
    
    <g id="g19963" transform="scale(0.57639,0.57639)">
      <clipPath id="clip6">
        <path id="path19966" d="m 0,0 0,467 580,0 0,-467 z" />
      </clipPath>
      <g id="g19968" clip-path="url(#clip6)">
        <g style="fill:none;stroke:#000000;stroke-width:2;stroke-linecap:butt;stroke-opacity:1" id="g19970">
          <path id="path19972" d="m 38.525,256.81 0,4" />
        </g>
        
      </g>
      
    </g>
    
    <g id="g19974" transform="scale(0.57639,0.57639)">
      <clipPath id="clip7">
        <path id="path19977" d="m 0,0 0,467 580,0 0,-467 z" />
      </clipPath>
      <g id="g19979" clip-path="url(#clip7)">
        <g style="fill:#000000;fill-opacity:1;fill-rule:nonzero;stroke:none" id="g19981">
          <path id="path19983" d="m 146.39,274.25 q -1.57,0 -2.53,-1.47 -0.97,-1.47 -0.97,-3.85 0,-2.39 0.97,-3.84 0.98,-1.46 2.57,-1.46 1.59,0 2.57,1.46 0.97,1.45 0.97,3.82 0,2.44 -0.97,3.89 -0.98,1.45 -2.61,1.45 z m 0.01,-1.01 q 2.14,0 2.14,-4.35 0,-4.25 -2.11,-4.25 -2.11,0 -2.11,4.29 0,4.31 2.08,4.31 z" />
        </g>
        
      </g>
      
    </g>
    
    <g id="g19985" transform="matrix(0.57639,0,0,0.57639,2,0)">
      <clipPath id="clip8">
        <path id="path19988" d="m 0,0 0,467 580,0 0,-467 z" />
      </clipPath>
      <g id="g19990" clip-path="url(#clip8)">
        <g style="fill:#000000;fill-opacity:1;fill-rule:nonzero;stroke:none" id="g19992">
          <path id="path19994" d="m 233.16,274 0,-1.18 q 0.59,-1.38 2.38,-3 l 0.77,-0.69 q 1.49,-1.34 1.49,-2.67 0,-0.85 -0.51,-1.33 -0.5,-0.49 -1.39,-0.49 -1.06,0 -2.48,0.82 l 0,-1.19 q 1.34,-0.64 2.67,-0.64 1.42,0 2.28,0.77 0.86,0.76 0.86,2.03 0,0.9 -0.43,1.61 -0.44,0.7 -1.62,1.71 l -0.52,0.44 q -1.62,1.38 -1.87,2.63 l 4.39,0 0,1.18 z" />
        </g>
        
      </g>
      
    </g>
    
    <g id="g19996" transform="scale(0.57639,0.57639)">
      <clipPath id="clip9">
        <path id="path19999" d="m 0,0 0,467 580,0 0,-467 z" />
      </clipPath>
      <g id="g20001" clip-path="url(#clip9)">
        <g style="fill:none;stroke:#000000;stroke-width:2;stroke-linecap:butt;stroke-opacity:1" id="g20003">
          <path id="path20005" d="m 235.24,256.81 0,4" />
        </g>
        
      </g>
      
    </g>
    
    <g id="g20007" transform="scale(0.57639,0.57639)">
      <clipPath id="clip10">
        <path id="path20010" d="m 0,0 0,467 580,0 0,-467 z" />
      </clipPath>
      <g id="g20012" clip-path="url(#clip10)">
        <g style="fill:#000000;fill-opacity:1;fill-rule:nonzero;stroke:none" id="g20014">
          <path id="path20016" d="m 336.27,274 0,-2.86 -4.55,0 0,-1.02 4.55,-6.24 1.27,0 0,6.16 1.35,0 0,1.1 -1.35,0 0,2.86 z m -3.23,-3.96 3.32,0 0,-4.5 z" />
        </g>
        
      </g>
      
    </g>
    
    <g id="g20018" transform="scale(0.57639,0.57639)">
      <clipPath id="clip11">
        <path id="path20021" d="m 0,0 0,467 580,0 0,-467 z" />
      </clipPath>
      <g id="g20023" clip-path="url(#clip11)">
        <g style="fill:none;stroke:#000000;stroke-width:2;stroke-linecap:butt;stroke-opacity:1" id="g20025">
          <path id="path20027" d="m 333.6,256.81 0,4" />
        </g>
        
      </g>
      
    </g>
    
    <g id="g20029" transform="scale(0.57639,0.57639)">
      <clipPath id="clip12">
        <path id="path20032" d="m 0,0 0,467 580,0 0,-467 z" />
      </clipPath>
      <g id="g20034" clip-path="url(#clip12)">
        <g style="fill:#000000;fill-opacity:1;fill-rule:nonzero;stroke:none" id="g20036">
          <path id="path20038" d="m 431.41,268.76 q 0.96,-1.25 2.42,-1.25 1.33,0 2.17,0.87 0.85,0.88 0.85,2.26 0,1.58 -0.95,2.59 -0.95,1.02 -2.4,1.02 -1.68,0 -2.62,-1.34 -0.94,-1.35 -0.94,-3.74 0,-2.63 1.08,-4.09 1.08,-1.46 3.05,-1.46 0.9,0 2.26,0.39 l 0,1.17 q -1.43,-0.55 -2.34,-0.55 -2.58,0 -2.58,4.13 z m 4.08,2.18 q 0,-1.15 -0.51,-1.81 -0.52,-0.65 -1.43,-0.65 -0.86,0 -1.47,0.57 -0.62,0.57 -0.62,1.38 0,1.27 0.59,2.04 0.58,0.77 1.54,0.77 0.87,0 1.39,-0.62 0.51,-0.63 0.51,-1.68 z" />
        </g>
        
      </g>
      
    </g>
    
    <g id="g20040" transform="scale(0.57639,0.57639)">
      <clipPath id="clip13">
        <path id="path20043" d="m 0,0 0,467 580,0 0,-467 z" />
      </clipPath>
      <g id="g20045" clip-path="url(#clip13)">
        <g style="fill:none;stroke:#000000;stroke-width:2;stroke-linecap:butt;stroke-opacity:1" id="g20047">
          <path id="path20049" d="m 431.96,256.81 0,4" />
        </g>
        
      </g>
      
    </g>
    
    <g id="g20051" transform="scale(0.57639,0.57639)">
      <clipPath id="clip14">
        <path id="path20054" d="m 0,0 0,467 580,0 0,-467 z" />
      </clipPath>
      <g id="g20056" clip-path="url(#clip14)">
        <g style="fill:#000000;fill-opacity:1;fill-rule:nonzero;stroke:none" id="g20058">
          <path id="path20060" d="m 530.22,268.49 q -1.48,-1.03 -1.48,-2.28 0,-1.15 0.84,-1.87 0.84,-0.72 2.19,-0.72 1.25,0 2.03,0.61 0.77,0.61 0.77,1.58 0,1.47 -1.88,2.68 2.29,1.12 2.29,2.89 0,1.27 -0.96,2.07 -0.96,0.8 -2.48,0.8 -1.49,0 -2.41,-0.75 -0.92,-0.76 -0.92,-1.99 0,-1.82 2.01,-3.02 z m 1.72,-0.42 q 1.41,-0.93 1.41,-2.07 0,-0.61 -0.47,-0.99 -0.47,-0.37 -1.25,-0.37 -0.74,0 -1.21,0.37 -0.46,0.36 -0.46,0.94 0,0.57 0.42,1.02 0.42,0.45 1.56,1.1 z m -0.99,0.97 q -0.81,0.63 -1.1,1.09 -0.29,0.47 -0.29,1.17 0,0.87 0.56,1.4 0.56,0.54 1.47,0.54 0.89,0 1.44,-0.46 0.56,-0.45 0.56,-1.19 0,-0.58 -0.35,-0.99 -0.34,-0.41 -1.33,-1 z" />
        </g>
        
      </g>
      
    </g>
    
    <g id="g20062" transform="scale(0.57639,0.57639)">
      <clipPath id="clip15">
        <path id="path20065" d="m 0,0 0,467 580,0 0,-467 z" />
      </clipPath>
      <g id="g20067" clip-path="url(#clip15)">
        <g style="fill:none;stroke:#000000;stroke-width:2;stroke-linecap:butt;stroke-opacity:1" id="g20069">
          <path id="path20071" d="m 530.31,256.81 0,4" />
        </g>
        
      </g>
      
    </g>
    
    <g id="g20073" transform="scale(0.57639,0.57639)">
      <clipPath id="clip16">
        <path id="path20076" d="m 0,0 0,467 580,0 0,-467 z" />
      </clipPath>
      <g id="g20078" clip-path="url(#clip16)">
        <g style="fill:#000000;fill-opacity:1;fill-rule:nonzero;stroke:none" id="g20080">
          <path id="path20082" d="m 115.72,455.29 0,-0.93 5.56,0 0,0.93 z m 11.55,3.71 0,-2.86 -4.55,0 0,-1.02 4.55,-6.24 1.27,0 0,6.16 1.35,0 0,1.1 -1.35,0 0,2.86 z m -3.23,-3.96 3.32,0 0,-4.5 z" />
        </g>
        
      </g>
      
    </g>
    
    <g id="g20084" transform="scale(0.57639,0.57639)">
      <clipPath id="clip17">
        <path id="path20087" d="m 0,0 0,467 580,0 0,-467 z" />
      </clipPath>
      <g id="g20089" clip-path="url(#clip17)">
        <g style="fill:none;stroke:#000000;stroke-width:2;stroke-linecap:butt;stroke-opacity:1" id="g20091">
          <path id="path20093" d="m 132.88,453.52 4,0" />
        </g>
        
      </g>
      
    </g>
    
    <g id="g20095" transform="matrix(0.57639,0,0,0.57639,-2,-2)">
      <clipPath id="clip18">
        <path id="path20098" d="m 0,0 0,467 580,0 0,-467 z" />
      </clipPath>
      <g id="g20100" clip-path="url(#clip18)">
        <g style="fill:#000000;fill-opacity:1;fill-rule:nonzero;stroke:none" id="g20102">
          <path id="path20104" d="m 115.72,357.29 0,-0.93 5.56,0 0,0.93 z m 7.44,3.71 0,-1.18 q 0.59,-1.38 2.38,-3 l 0.77,-0.69 q 1.49,-1.34 1.49,-2.67 0,-0.85 -0.51,-1.33 -0.5,-0.49 -1.39,-0.49 -1.06,0 -2.48,0.82 l 0,-1.19 q 1.34,-0.64 2.67,-0.64 1.42,0 2.28,0.77 0.86,0.76 0.86,2.03 0,0.9 -0.43,1.61 -0.44,0.7 -1.62,1.71 l -0.52,0.44 q -1.62,1.38 -1.87,2.63 l 4.39,0 0,1.18 z" />
        </g>
        
      </g>
      
    </g>
    
    <g id="g20106" transform="scale(0.57639,0.57639)">
      <clipPath id="clip19">
        <path id="path20109" d="m 0,0 0,467 580,0 0,-467 z" />
      </clipPath>
      <g id="g20111" clip-path="url(#clip19)">
        <g style="fill:none;stroke:#000000;stroke-width:2;stroke-linecap:butt;stroke-opacity:1" id="g20113">
          <path id="path20115" d="m 132.88,355.16 4,0" />
        </g>
        
      </g>
      
    </g>
    
    <g id="g20117" transform="scale(0.57639,0.57639)">
      <clipPath id="clip20">
        <path id="path20120" d="m 0,0 0,467 580,0 0,-467 z" />
      </clipPath>
      <g id="g20122" clip-path="url(#clip20)">
        <g style="fill:#000000;fill-opacity:1;fill-rule:nonzero;stroke:none" id="g20124">
          <path id="path20126" d="m 126.39,254.25 q -1.57,0 -2.53,-1.47 -0.97,-1.47 -0.97,-3.85 0,-2.39 0.97,-3.84 0.98,-1.46 2.57,-1.46 1.59,0 2.57,1.46 0.97,1.45 0.97,3.82 0,2.44 -0.97,3.89 -0.98,1.45 -2.61,1.45 z m 0.01,-1.01 q 2.14,0 2.14,-4.35 0,-4.25 -2.11,-4.25 -2.11,0 -2.11,4.29 0,4.31 2.08,4.31 z" />
        </g>
        
      </g>
      
    </g>
    
    <g id="g20128" transform="scale(0.57639,0.57639)">
      <clipPath id="clip21">
        <path id="path20131" d="m 0,0 0,467 580,0 0,-467 z" />
      </clipPath>
      <g id="g20133" clip-path="url(#clip21)">
        <g style="fill:#000000;fill-opacity:1;fill-rule:nonzero;stroke:none" id="g20135">
          <path id="path20137" d="m 123.16,164 0,-1.18 q 0.59,-1.38 2.38,-3 l 0.77,-0.69 q 1.49,-1.34 1.49,-2.67 0,-0.85 -0.51,-1.33 -0.5,-0.49 -1.39,-0.49 -1.06,0 -2.48,0.82 l 0,-1.19 q 1.34,-0.64 2.67,-0.64 1.42,0 2.28,0.77 0.86,0.76 0.86,2.03 0,0.9 -0.43,1.61 -0.44,0.7 -1.62,1.71 l -0.52,0.44 q -1.62,1.38 -1.87,2.63 l 4.39,0 0,1.18 z" />
        </g>
        
      </g>
      
    </g>
    
    <g id="g20139" transform="scale(0.57639,0.57639)">
      <clipPath id="clip22">
        <path id="path20142" d="m 0,0 0,467 580,0 0,-467 z" />
      </clipPath>
      <g id="g20144" clip-path="url(#clip22)">
        <g style="fill:none;stroke:#000000;stroke-width:2;stroke-linecap:butt;stroke-opacity:1" id="g20146">
          <path id="path20148" d="m 132.88,158.45 4,0" />
        </g>
        
      </g>
      
    </g>
    
    <g id="g20150" transform="matrix(0.57639,0,0,0.57639,0,-2)">
      <clipPath id="clip23">
        <path id="path20153" d="m 0,0 0,467 580,0 0,-467 z" />
      </clipPath>
      <g id="g20155" clip-path="url(#clip23)">
        <g style="fill:#000000;fill-opacity:1;fill-rule:nonzero;stroke:none" id="g20157">
          <path id="path20159" d="m 127.27,66 0,-2.864 -4.55,0 0,-1.019 4.55,-6.234 1.27,0 0,6.152 1.35,0 0,1.101 -1.35,0 0,2.864 z m -3.23,-3.965 3.32,0 0,-4.498 z" />
        </g>
        
      </g>
      
    </g>
    
    <g id="g20161" transform="scale(0.57639,0.57639)">
      <clipPath id="clip24">
        <path id="path20164" d="m 0,0 0,467 580,0 0,-467 z" />
      </clipPath>
      <g id="g20166" clip-path="url(#clip24)">
        <g style="fill:none;stroke:#000000;stroke-width:2;stroke-linecap:butt;stroke-opacity:1" id="g20168">
          <path id="path20170" d="m 132.88,60.09 4,0" />
        </g>
        
      </g>
      
    </g>
    
    <g id="misc" />
    
    <g id="layer0">
      <g id="g20174" transform="scale(0.57639,0.57639)">
        <clipPath id="clip25">
          <path id="path20177" d="m 0,0 0,467 580,0 0,-467 z" />
        </clipPath>
        <g id="g20179" clip-path="url(#clip25)">
          <g style="fill:none;stroke:#cc0000;stroke-width:2.5;stroke-linecap:round;stroke-linejoin:round;stroke-opacity:1" id="g20181">
            <path id="path20183" d="m 68.535,477.07 0.567,-7.96 0.566,-7.87 0.566,-7.77 0.567,-7.68 0.566,-7.59 0.567,-7.5 0.566,-7.4 0.566,-7.32 0.567,-7.23 0.566,-7.13 0.567,-7.05 0.566,-6.96 0.566,-6.87 0.567,-6.79 0.566,-6.69 0.567,-6.61 0.566,-6.52 0.566,-6.44 0.567,-6.35 0.566,-6.27 0.567,-6.18 0.566,-6.1 0.566,-6.01 0.567,-5.94 0.566,-5.84 0.567,-5.77 0.566,-5.69 0.567,-5.6 0.566,-5.52 0.566,-5.44 0.567,-5.37 0.566,-5.28 0.567,-5.2 0.566,-5.13 0.566,-5.04 1.133,-9.86 1.133,-9.55 1.133,-9.25 1.133,-8.95 1.132,-8.65 1.133,-8.36 1.133,-8.07 1.133,-7.78 1.133,-7.5 1.133,-7.23 1.132,-6.95 1.13,-6.67 1.14,-6.41 1.13,-6.14 1.13,-5.89 1.13,-5.63 1.14,-5.37 1.13,-5.12 2.27,-9.52 2.26,-8.554 2.27,-7.631 2.26,-6.732 2.27,-5.864 2.26,-5.023 4.54,-7.641 2.26,-2.676 2.27,-1.951 1.13,-0.713 1.13,-0.542 1.13,-0.375 1.14,-0.213 1.13,-0.052 1.13,0.103 1.14,0.255 1.13,0.405 2.26,1.24 2.27,1.793 2.27,2.315 2.26,2.809 4.53,6.985 4.53,8.615 2.27,4.847 2.26,5.167 2.27,5.463 2.27,5.72 2.26,5.96 2.27,6.16 2.26,6.34 2.27,6.49 2.26,6.6 2.27,6.7 2.27,6.76 2.26,6.79 2.27,6.79 2.26,6.77 2.27,6.71 2.26,6.63 2.27,6.52 2.27,6.38 2.26,6.21 2.27,6.01 2.26,5.79 2.27,5.52 2.26,5.25 2.27,4.92 4.53,8.81 4.53,7.2 4.53,5.36 2.27,1.93 2.26,1.38 1.14,0.47 1.13,0.33 1.13,0.18 1.13,0.03 1.14,-0.14 1.13,-0.29 1.13,-0.46 1.14,-0.63 2.26,-1.77 2.27,-2.5 2.26,-3.24 2.27,-4.01 2.26,-4.82 2.27,-5.65 2.27,-6.52 2.26,-7.4 2.27,-8.33 2.26,-9.27 1.14,-5.01 1.13,-5.24 1.13,-5.51 1.13,-5.75 1.14,-6.02 1.13,-6.27 1.13,-6.55 1.14,-6.81 1.13,-7.09 1.13,-7.36 1.13,-7.64 1.14,-7.93 1.13,-8.22 1.13,-8.5 1.13,-8.803 1.14,-9.099 1.13,-9.402 1.13,-9.707 0.57,-4.969 0.57,-5.047 0.56,-5.125 0.57,-5.204 0.57,-5.283 0.56,-5.363 0.57,-5.443 0.56,-5.523 0.57,-5.604 0.57,-5.685 0.56,-5.767 0.57,-5.8498 0.57,-5.932174 0.56,-6.015426" />
          </g>
          
        </g>
        
      </g>
      
      <g id="g20185" transform="scale(0.57639,0.57639)">
        <clipPath id="clip26">
          <path id="path20188" d="m 0,0 0,467 580,0 0,-467 z" />
        </clipPath>
        <g id="g20190" clip-path="url(#clip26)">
          <g style="fill:none;stroke:#0033cc;stroke-width:2.5;stroke-linecap:round;stroke-linejoin:round;stroke-opacity:1" id="g20192">
            <path id="path20194" d="m 82.695,477.62 1.133,-5.73 1.133,-5.56 1.133,-5.4 1.133,-5.25 1.132,-5.08 2.266,-9.71 2.266,-9.1 2.265,-8.5 2.266,-7.93 2.266,-7.36 2.262,-6.81 2.27,-6.28 2.26,-5.75 2.27,-5.25 4.53,-9.04 4.53,-7.18 4.53,-5.44 2.27,-2.11 2.27,-1.71 2.26,-1.34 2.27,-0.98 2.26,-0.62 2.27,-0.3 2.26,0.03 2.27,0.33 2.26,0.62 2.27,0.89 4.53,2.57 4.53,3.49 4.53,4.31 4.53,5 4.54,5.59 4.53,6.06 4.53,6.42 4.53,6.65 4.53,6.77 4.53,6.78 4.53,6.68 4.54,6.45 4.53,6.11 4.53,5.65 4.53,5.09 4.53,4.4 4.53,3.6 4.53,2.68 2.27,0.96 2.26,0.69 2.27,0.41 2.26,0.1 2.27,-0.22 2.27,-0.54 2.26,-0.89 2.27,-1.24 4.53,-3.63 2.26,-2.41 2.27,-2.83 4.53,-6.96 4.53,-8.8 2.27,-5.12 2.26,-5.63 2.27,-6.15 2.27,-6.68 2.26,-7.22 2.27,-7.79 2.26,-8.36 2.27,-8.95 2.26,-9.55 1.14,-5.01 1.13,-5.16 1.13,-5.33 1.13,-5.48 1.14,-5.64 1.13,-5.81 1.13,-5.98 1.14,-6.14 1.13,-6.31 1.13,-6.48 1.13,-6.65 1.14,-6.83 1.13,-7 1.13,-7.19 1.14,-7.36 1.13,-7.54 1.13,-7.73 1.13,-7.91 1.14,-8.1 1.13,-8.29 1.13,-8.48 1.13,-8.67 1.14,-8.87 1.13,-9.06 1.13,-9.26 1.14,-9.46 1.13,-9.66 1.13,-9.87 0.57,-5.01 0.56,-5.06 0.57,-5.11 0.57,-5.16 0.56,-5.22 0.57,-5.27 0.57,-5.32 0.56,-5.38 0.57,-5.42 0.57,-5.48 0.56,-5.538 0.57,-5.588 0.57,-5.642 0.56,-5.697 0.57,-5.75 0.56,-5.806 0.57,-5.86 0.57,-5.915 0.56,-5.971 0.57,-6.026 0.57,-6.082 0.56,-6.139 0.57,-6.194 0.57,-6.251 0.56,-6.307 0.57,-6.3645 0.56,-6.4215 0.57,-6.4788" />
          </g>
          
        </g>
        
      </g>
      
      <g id="g20196" transform="scale(0.57639,0.57639)">
        <clipPath id="clip27">
          <path id="path20199" d="m 0,0 0,467 580,0 0,-467 z" />
        </clipPath>
        <g id="g20201" clip-path="url(#clip27)">
          <g style="fill:none;stroke:#669900;stroke-width:2.5;stroke-linecap:round;stroke-linejoin:round;stroke-opacity:1" id="g20203">
            <path id="path20205" d="m 66.836,477.51 1.133,-8.19 1.133,-8.01 1.132,-7.81 1.133,-7.64 1.133,-7.45 1.133,-7.27 1.133,-7.09 1.132,-6.92 1.133,-6.74 1.133,-6.57 1.133,-6.39 1.133,-6.22 1.132,-6.06 1.133,-5.89 1.133,-5.73 1.133,-5.56 1.133,-5.4 1.133,-5.24 1.132,-5.09 2.266,-9.71 2.266,-9.09 2.265,-8.51 2.266,-7.93 2.266,-7.36 2.262,-6.81 2.27,-6.28 2.26,-5.75 2.27,-5.25 4.53,-9.04 4.53,-7.18 4.53,-5.44 2.27,-2.11 2.27,-1.71 2.26,-1.34 2.27,-0.98 2.26,-0.62 2.27,-0.3 2.26,0.03 2.27,0.33 2.26,0.62 2.27,0.9 4.53,2.56 4.53,3.49 4.53,4.31 4.53,5 4.54,5.6 4.53,6.06 4.53,6.41 4.53,6.65 4.53,6.77 4.53,6.79 4.53,6.67 4.54,6.45 4.53,6.11 4.53,5.65 4.53,5.09 4.53,4.4 4.53,3.6 4.53,2.68 2.27,0.96 2.26,0.69 2.27,0.41 2.26,0.1 2.27,-0.21 2.27,-0.55 2.26,-0.89 2.27,-1.24 4.53,-3.63 2.26,-2.41 2.27,-2.83 4.53,-6.96 4.53,-8.8 2.27,-5.12 2.26,-5.63 2.27,-6.15 2.27,-6.67 2.26,-7.23 2.27,-7.78 2.26,-8.36 2.27,-8.96 2.26,-9.55 1.14,-5.01 1.13,-5.16 1.13,-5.32 1.13,-5.49 1.14,-5.64 1.13,-5.81 1.13,-5.97 1.14,-6.15 1.13,-6.31 1.13,-6.48 1.13,-6.65 1.14,-6.83 1.13,-7 1.13,-7.19 1.14,-7.36 1.13,-7.54 1.13,-7.73 1.13,-7.91 1.14,-8.1 1.13,-8.29 1.13,-8.48 1.13,-8.67 1.14,-8.87 1.13,-9.06 1.13,-9.26 1.14,-9.46 1.13,-9.661 1.13,-9.865 0.57,-5.009 0.56,-5.06 0.57,-5.113 0.57,-5.164 0.56,-5.217 0.57,-5.269 0.57,-5.321 0.56,-5.375 0.57,-5.4271 0.57,-5.4808 0.56,-5.5343 0.57,-5.5881" />
          </g>
          
        </g>
        
      </g>
      
      <g id="g20207" transform="scale(0.57639,0.57639)">
        <clipPath id="clip28">
          <path id="path20210" d="m 0,0 0,467 580,0 0,-467 z" />
        </clipPath>
        <g id="g20212" clip-path="url(#clip28)">
          <g style="fill:none;stroke:#000000;stroke-width:2;stroke-linecap:butt;stroke-linejoin:round;stroke-opacity:1;stroke-dasharray:6, 4" id="g20214">
            <path id="path20216" d="m 235.24,256.81 0,98.35" />
          </g>
          
        </g>
        
      </g>
      
      <g id="g20218" transform="scale(0.57639,0.57639)">
        <clipPath id="clip29">
          <path id="path20221" d="m 0,0 0,467 580,0 0,-467 z" />
        </clipPath>
        <g id="g20223" clip-path="url(#clip29)">
          <g style="fill:none;stroke:#000000;stroke-width:2;stroke-linecap:round;stroke-linejoin:round;stroke-opacity:1" id="g20225">
            <path id="path20227" d="m 235.24,310.49 -5.5,-4.5" />
          </g>
          
        </g>
        
      </g>
      
      <g id="g20229" transform="scale(0.57639,0.57639)">
        <clipPath id="clip30">
          <path id="path20232" d="m 0,0 0,467 580,0 0,-467 z" />
        </clipPath>
        <g id="g20234" clip-path="url(#clip30)">
          <g style="fill:none;stroke:#000000;stroke-width:2;stroke-linecap:round;stroke-linejoin:round;stroke-opacity:1" id="g20236">
            <path id="path20238" d="m 235.24,310.49 5.5,-4.5" />
          </g>
          
        </g>
        
      </g>
      
      <g id="g20240" transform="scale(0.57639,0.57639)">
        <clipPath id="clip31">
          <path id="path20243" d="m 0,0 0,467 580,0 0,-467 z" />
        </clipPath>
        <g id="g20245" clip-path="url(#clip31)">
          <g style="fill:none;stroke:#000000;stroke-width:2;stroke-linecap:butt;stroke-linejoin:round;stroke-opacity:1;stroke-dasharray:6, 4" id="g20247">
            <path id="path20249" d="m 235.24,355.16 0,98.36" />
          </g>
          
        </g>
        
      </g>
      
      <g id="g20251" transform="scale(0.57639,0.57639)">
        <clipPath id="clip32">
          <path id="path20254" d="m 0,0 0,467 580,0 0,-467 z" />
        </clipPath>
        <g id="g20256" clip-path="url(#clip32)">
          <g style="fill:none;stroke:#000000;stroke-width:2;stroke-linecap:round;stroke-linejoin:round;stroke-opacity:1" id="g20258">
            <path id="path20260" d="m 235.24,408.84 -5.5,-4.5" />
          </g>
          
        </g>
        
      </g>
      
      <g id="g20262" transform="scale(0.57639,0.57639)">
        <clipPath id="clip33">
          <path id="path20265" d="m 0,0 0,467 580,0 0,-467 z" />
        </clipPath>
        <g id="g20267" clip-path="url(#clip33)">
          <g style="fill:none;stroke:#000000;stroke-width:2;stroke-linecap:round;stroke-linejoin:round;stroke-opacity:1" id="g20269">
            <path id="path20271" d="m 235.24,408.84 5.5,-4.5" />
          </g>
          
        </g>
        
      </g>
      
      
      
      
      <g style="fill:#000000" id="g20306" transform="matrix(16.4265,0,0,16.4265,92.627891,26.442125)">
        <clipPath id="clip37">
          <path id="path20309" d="m -8.4737,-2.5395 0,24.5785 30.5267,0 0,-24.5785 z" />
        </clipPath>
        <g style="fill:#000000" id="g20311" clip-path="url(#clip37)">
          <g style="fill:#000000;fill-opacity:1;fill-rule:nonzero;stroke:none" id="g20313">
            <path style="fill:#000000" id="path20315" d="M 0.48438,-0.375 0.39062,0 Q 0.35938,0.09375 0.28125,0.15625 0.21875,0.20312 0.15625,0.20312 0.09375,0.20312 0.0625,0.15625 0.046875,0.14062 0.046875,0.125 q 0,-0.0625 0.046875,-0.0625 0,-0.015625 0.01563,-0.015625 0.03124,0 0.03124,0.03125 0,0 0,0.015625 0,0.01563 -0.01562,0.03125 Q 0.10938,0.14062 0.078125,0.14062 0.09375,0.1875 0.15625,0.1875 q 0.0625,0 0.10937,-0.0625 0.04688,-0.0625 0.0625,-0.140625 0,-0.015625 0,-0.015625 -0.04687,0.046875 -0.09374,0.046875 -0.07813,0 -0.10938,-0.0625 -0.01562,-0.03125 -0.01562,-0.062505 0,-0.04687 0.04687,-0.20312 0,0 0.01563,0 0.01562,-0.04688 0.01562,-0.07812 0,-0.03126 -0.03125,-0.03126 -0.04687,0 -0.09375,0.09376 l 0,0 q 0,0.01562 0,0.03124 -0.015625,0.01563 -0.015625,0.01563 -0.015625,0 -0.015625,0 0,-0.03125 0.015625,-0.0625 0.046875,-0.09375 0.109375,-0.09375 0.0625,0 0.07813,0.04688 Q 0.25,-0.375 0.25,-0.35938 q 0,0.01563 -0.03125,0.07813 -0.04687,0.125 -0.04687,0.1875 0,0.078125 0.0625,0.078125 0.0625,0 0.09374,-0.0625 0.01563,-0.015625 0.01563,-0.015625 l 0.04687,-0.1875 Q 0.40625,-0.3125 0.40625,-0.35938 0.42188,-0.40625 0.42188,-0.40625 0.4375,-0.4375 0.46875,-0.4375 q 0.01563,0.01562 0.01563,0.03125 0,0.01563 0,0.03125 z" />
          </g>
          
        </g>
        
      </g>
      
      <g style="fill:#000000" id="g20317" transform="matrix(16.4265,0,0,16.4265,105.24439,26.442125)">
        <clipPath id="clip38">
          <path id="path20320" d="m -9.2417,-2.5395 0,24.5785 30.5267,0 0,-24.5785 z" />
        </clipPath>
        <g style="fill:#000000" id="g20322" clip-path="url(#clip38)">
          <g style="fill:#000000;fill-opacity:1;fill-rule:nonzero;stroke:none" id="g20324">
            <path style="fill:#000000" id="path20326" d="m 0.6875,-0.32812 -0.59375,0 q -0.03125,0 -0.03125,-0.01563 0,-0.01563 0.03125,-0.01563 l 0.59375,0 q 0.03125,0 0.03125,0.01563 0,0.01563 -0.03125,0.01563 z m 0,0.1875 -0.59375,0 q -0.03125,0 -0.03125,-0.01563 0,-0.01563 0.03125,-0.01563 l 0.59375,0 q 0.03125,0 0.03125,0.01563 0,0.01563 -0.03125,0.01563 z" />
          </g>
          
        </g>
        
      </g>
      
      <g style="fill:#000000" id="g20328" transform="matrix(16.4265,0,0,16.4265,122.58439,26.442125)">
        <clipPath id="clip39">
          <path id="path20331" d="m -10.297,-2.5395 0,24.5785 30.526,0 0,-24.5785 z" />
        </clipPath>
        <g style="fill:#000000" id="g20333" clip-path="url(#clip39)">
          <g style="fill:#000000;fill-opacity:1;fill-rule:nonzero;stroke:none" id="g20335">
            <path style="fill:#000000" id="path20337" d="m 0.35938,-0.40625 0,0 -0.04688,0.328125 q -0.01562,0.0625 -0.04688,0.140625 0,0.03125 -0.01562,0.04688 -0.03125,0.07812 -0.09375,0.09374 0,0 -0.01563,0 -0.04687,0 -0.07812,-0.03124 -0.015625,-0.01563 -0.015625,-0.03126 0,-0.04687 0.046875,-0.062495 0,0 0.01563,0 0.03124,0 0.03124,0.015625 0,0.01563 0,0.01563 0,0.03124 -0.03124,0.04687 0,0 -0.01563,0.01563 0.01563,0.01562 0.04687,0.01562 0.04688,0 0.0625,-0.109375 Q 0.21875,0.0625 0.21875,0.03125 l 0,-0.03125 0.07813,-0.40625 -0.0625,0 q -0.03126,0 -0.03126,0 l 0,0 0,0 q 0,-0.01563 0.01563,-0.03125 l 0,0 0.01563,0 0.07812,0 Q 0.32812,-0.5625 0.34375,-0.59375 0.375,-0.6875 0.4375,-0.70312 q 0.01562,0 0.03125,0 0.04687,0 0.07813,0.03124 l 0,0 q 0,0.01563 0,0.03126 0,0.04687 -0.03126,0.0625 0,0 -0.01562,0 -0.03125,0 -0.03125,-0.01563 -0.01563,-0.01563 -0.01563,-0.01563 0,-0.03124 0.03126,-0.04687 0.01562,0 0.03124,-0.01563 Q 0.5,-0.6875 0.46875,-0.6875 q -0.03125,0 -0.04687,0.03125 -0.01563,0.01563 -0.03126,0.10937 L 0.375,-0.4375 l 0.07812,0 q 0.03126,0 0.03126,0.01562 0,0.01563 -0.01563,0.01563 l 0,0 -0.01563,0 -0.09374,0 z" />
          </g>
          
        </g>
        
      </g>
      
      <g style="fill:#000000" id="g20339" transform="matrix(16.4265,0,0,16.4265,130.62439,26.442125)">
        <clipPath id="clip40">
          <path id="path20342" d="m -10.787,-2.5395 0,24.5785 30.526,0 0,-24.5785 z" />
        </clipPath>
        <g style="fill:#000000" id="g20344" clip-path="url(#clip40)">
          <g style="fill:#000000;fill-opacity:1;fill-rule:nonzero;stroke:none" id="g20346">
            <path style="fill:#000000" id="path20348" d="m 0.32812,0.23438 0,0 q 0,0.01562 0,0.01562 Q 0.3125,0.25 0.26562,0.20312 0.20312,0.14062 0.17188,0.0625 0.09375,-0.078125 0.09375,-0.25 q 0,-0.17188 0.0625,-0.3125 0.0625,-0.10938 0.14063,-0.17188 Q 0.3125,-0.75 0.32812,-0.75 q 0,0 0,0.01562 0,0 -0.01562,0.01563 -0.15625,0.15625 -0.15625,0.46875 0,0.3125 0.15625,0.46875 0.01562,0.01563 0.01562,0.01563 z" />
          </g>
          
        </g>
        
      </g>
      
      <g style="fill:#000000" id="g20350" transform="matrix(16.4265,0,0,16.4265,137.01439,26.442125)">
        <clipPath id="clip41">
          <path id="path20353" d="m -11.176,-2.5395 0,24.5785 30.527,0 0,-24.5785 z" />
        </clipPath>
        <g style="fill:#000000" id="g20355" clip-path="url(#clip41)">
          <g style="fill:#000000;fill-opacity:1;fill-rule:nonzero;stroke:none" id="g20357">
            <path style="fill:#000000" id="path20359" d="m 0.32812,-0.29688 -0.03124,0.125 q -0.01563,0.07813 -0.01563,0.093755 0,0.046875 0.03125,0.0625 0.01562,0 0.03125,0 0.04687,0 0.07813,-0.046875 0.03124,-0.03125 0.04687,-0.07812 0,-0.01563 0.01563,-0.01563 0.01562,0 0.01562,0.01563 0,0.01562 -0.03125,0.062495 -0.0625,0.09375 -0.125,0.09375 -0.07813,0 -0.10937,-0.0625 0,-0.015625 0,-0.015625 Q 0.20312,-0.015625 0.15625,0 0.14062,0.015625 0.125,0.015625 q -0.0625,0 -0.09375,-0.046875 0,0 0,-0.03125 0,-0.03125 0.03125,-0.04688 0.015625,0 0.015625,0 0.031255,0 0.046875,0.01563 0,0.015625 0,0.015625 0,0.03125 -0.03125,0.046875 -0.015625,0 -0.015625,0 0.015625,0.015625 0.046875,0.015625 0.04688,0 0.07812,-0.0625 0.01563,-0.015625 0.01563,-0.031255 0.04687,-0.20312 0.04687,-0.25 0,-0.0625 -0.04687,-0.0625 -0.04687,0 -0.09375,0.0625 l 0,0 q 0,0 0,0 -0.01562,0.01563 -0.03125,0.04688 0,0 0,0.01562 l -0.015625,0.01563 q 0,0 0,0 -0.015625,0 -0.015625,0 0,-0.03125 0.03125,-0.07813 0.04687,-0.07812 0.125,-0.07812 0.07813,0 0.10937,0.07812 0.03126,-0.0625 0.07813,-0.07812 0.01563,0 0.03125,0 0.0625,0 0.07812,0.03125 0.01563,0.01563 0.01563,0.03125 0,0.04688 -0.04687,0.04688 0,0.01562 -0.01563,0.01562 -0.03125,0 -0.03125,-0.03125 0,0 0,-0.01563 0,-0.03124 0.03125,-0.04687 0,0 0.01563,0 -0.01563,-0.01563 -0.04688,-0.01563 -0.07812,0 -0.09375,0.10938 -0.01563,0 -0.01563,0.01562 z" />
          </g>
          
        </g>
        
      </g>
      
      <g style="fill:#000000" id="g20361" transform="matrix(16.4265,0,0,16.4265,146.40439,26.442125)">
        <clipPath id="clip42">
          <path id="path20364" d="m -11.747,-2.5395 0,24.5785 30.526,0 0,-24.5785 z" />
        </clipPath>
        <g style="fill:#000000" id="g20366" clip-path="url(#clip42)">
          <g style="fill:#000000;fill-opacity:1;fill-rule:nonzero;stroke:none" id="g20368">
            <path style="fill:#000000" id="path20370" d="m 0.28125,-0.25 0,0 q 0,0.171875 -0.0625,0.3125 Q 0.17188,0.17188 0.09375,0.23438 0.078125,0.25 0.0625,0.25 q 0,0 0,-0.01562 0,0 0,-0.01563 Q 0.23438,0.0625 0.23438,-0.25 q 0,-0.3125 -0.156255,-0.46875 l 0,0 Q 0.0625,-0.73438 0.0625,-0.73438 q 0,-0.01562 0,-0.01562 0.015625,0 0.0625,0.04688 0.0625,0.0625 0.09375,0.14062 0.0625,0.14062 0.0625,0.3125 z" />
          </g>
          
        </g>
        
      </g>
      
      <g id="g20372" transform="matrix(16.4265,0,0,16.4265,167.47628,246.1362)">
        <clipPath id="clip43">
          <path id="path20375" d="m -15.895,-22.268 0,24.5786 30.527,0 0,-24.5786 z" />
        </clipPath>
        <g id="g20377" clip-path="url(#clip43)">
          <g style="fill:#000000;fill-opacity:1;fill-rule:nonzero;stroke:none" id="g20379">
            <path id="path20381" d="M 0.48438,-0.375 0.39062,0 Q 0.35938,0.09375 0.28125,0.15625 0.21875,0.20312 0.15625,0.20312 0.09375,0.20312 0.0625,0.15625 0.046875,0.14062 0.046875,0.125 q 0,-0.0625 0.046875,-0.0625 0,-0.015625 0.01563,-0.015625 0.03124,0 0.03124,0.03125 0,0 0,0.015625 0,0.01563 -0.01562,0.03125 Q 0.10938,0.14062 0.078125,0.14062 0.09375,0.1875 0.15625,0.1875 q 0.0625,0 0.10937,-0.0625 0.04688,-0.0625 0.0625,-0.140625 0,-0.015625 0,-0.015625 -0.04687,0.046875 -0.09374,0.046875 -0.07813,0 -0.10938,-0.0625 -0.01562,-0.03125 -0.01562,-0.062505 0,-0.04687 0.04687,-0.20312 0,0 0.01563,0 0.01562,-0.04688 0.01562,-0.07812 0,-0.03126 -0.03125,-0.03126 -0.04687,0 -0.09375,0.09376 l 0,0 q 0,0.01562 0,0.03124 -0.015625,0.01563 -0.015625,0.01563 -0.015625,0 -0.015625,0 0,-0.03125 0.015625,-0.0625 0.046875,-0.09375 0.109375,-0.09375 0.0625,0 0.07813,0.04688 Q 0.25,-0.375 0.25,-0.35938 q 0,0.01563 -0.03125,0.07813 -0.04687,0.125 -0.04687,0.1875 0,0.078125 0.0625,0.078125 0.0625,0 0.09374,-0.0625 0.01563,-0.015625 0.01563,-0.015625 l 0.04687,-0.1875 Q 0.40625,-0.3125 0.40625,-0.35938 0.42188,-0.40625 0.42188,-0.40625 0.4375,-0.4375 0.46875,-0.4375 q 0.01563,0.01562 0.01563,0.03125 0,0.01563 0,0.03125 z" />
          </g>
          
        </g>
        
      </g>
      
      <g id="g20383" transform="matrix(16.4265,0,0,16.4265,180.09128,246.1362)">
        <clipPath id="clip44">
          <path id="path20386" d="m -16.663,-22.268 0,24.5786 30.527,0 0,-24.5786 z" />
        </clipPath>
        <g id="g20388" clip-path="url(#clip44)">
          <g style="fill:#000000;fill-opacity:1;fill-rule:nonzero;stroke:none" id="g20390">
            <path id="path20392" d="m 0.6875,-0.32812 -0.59375,0 q -0.03125,0 -0.03125,-0.01563 0,-0.01563 0.03125,-0.01563 l 0.59375,0 q 0.03125,0 0.03125,0.01563 0,0.01563 -0.03125,0.01563 z m 0,0.1875 -0.59375,0 q -0.03125,0 -0.03125,-0.01563 0,-0.01563 0.03125,-0.01563 l 0.59375,0 q 0.03125,0 0.03125,0.01563 0,0.01563 -0.03125,0.01563 z" />
          </g>
          
        </g>
        
      </g>
      
      <g id="g20394" transform="matrix(16.4265,0,0,16.4265,199.41128,235.0212)">
        <clipPath id="clip45">
          <path id="path20397" d="m -17.838,-21.592 0,24.5791 30.526,0 0,-24.5791 z" />
        </clipPath>
        <g id="g20399" clip-path="url(#clip45)">
          <g style="fill:#000000;fill-opacity:1;fill-rule:nonzero;stroke:none" id="g20401">
            <path id="path20403" d="m 0.29688,-0.64062 0,0.562495 q 0,0.03125 0.01562,0.03125 0.01562,0.015625 0.07812,0.015625 l 0.03126,0 0,0.03125 Q 0.39062,0 0.25,0 0.125,0 0.09375,0 l 0,-0.03125 0.03125,0 q 0.07812,0 0.09375,-0.015625 l 0,0 q 0,-0.015625 0,-0.03125 l 0,-0.515625 q -0.04687,0.01563 -0.125,0.01563 l 0,-0.03126 q 0.10937,0 0.17187,-0.0625 0.03126,0 0.03126,0.01563 l 0,0 0,0 q 0,0 0,0.01563 z" />
          </g>
          
        </g>
        
      </g>
      
      <g id="g20405" transform="matrix(16.4265,0,0,16.4265,-93.628722,-119.6688)">
        <clipPath id="clip46">
          <path id="path20408" d="m 0,0 0,24.579 30.526,0 0,-24.579 z" />
        </clipPath>
        <g id="g20410" clip-path="url(#clip46)">
          <g style="fill:#000000;fill-opacity:1;fill-rule:nonzero;stroke:none" id="g20412">
            <path id="path20414" d="m 17.838,21.998 0.5,0 0,0.04 -0.5,0 0,-0.04 z" />
          </g>
          
        </g>
        
      </g>
      
      <g id="g20416" transform="matrix(16.4265,0,0,16.4265,199.41128,257.4012)">
        <clipPath id="clip47">
          <path id="path20419" d="m -17.838,-22.954 0,24.5787 30.526,0 0,-24.5787 z" />
        </clipPath>
        <g id="g20421" clip-path="url(#clip47)">
          <g style="fill:#000000;fill-opacity:1;fill-rule:nonzero;stroke:none" id="g20423">
            <path id="path20425" d="m 0.45312,-0.17188 0,0 L 0.42188,0 0.046875,0 q 0,-0.03125 0.015625,-0.03125 l 0,0 L 0.25,-0.25 q 0.10938,-0.125 0.10938,-0.21875 0,-0.09375 -0.0625,-0.14063 l 0,0 0,0 q -0.03126,-0.03124 -0.07813,-0.03124 -0.0625,0 -0.10937,0.0625 -0.01563,0.01562 -0.01563,0.04687 0,0 0.01563,0 0.03124,0 0.04687,0.03125 l 0,0 q 0,0.01562 0,0.01562 0,0.04688 -0.04687,0.04688 0,0.01562 0,0.01562 -0.04688,0 -0.062505,-0.03124 0,-0.01563 0,-0.03126 0,-0.07812 0.062505,-0.125 0.04687,-0.0625 0.125,-0.0625 0.10937,0 0.17187,0.07813 0.03125,0.04687 0.04687,0.10937 0,0 0,0.01563 0,0.0625 -0.0625,0.14063 Q 0.35938,-0.29688 0.29688,-0.25 L 0.25,-0.1875 l -0.01562,0 -0.10938,0.109375 0.1875,0 q 0.07812,0 0.09375,0 0,-0.015625 0.01563,-0.093755 l 0.03124,0 z" />
          </g>
          
        </g>
        
      </g>
      
      <g id="g20427" transform="matrix(16.4265,0,0,16.4265,212.32628,246.1362)">
        <clipPath id="clip48">
          <path id="path20430" d="m -18.625,-22.268 0,24.5786 30.526,0 0,-24.5786 z" />
        </clipPath>
        <g id="g20432" clip-path="url(#clip48)">
          <g style="fill:#000000;fill-opacity:1;fill-rule:nonzero;stroke:none" id="g20434">
            <path id="path20436" d="m 0.35938,-0.40625 0,0 -0.04688,0.328125 q -0.01562,0.0625 -0.04688,0.140625 0,0.03125 -0.01562,0.04688 -0.03125,0.07812 -0.09375,0.09374 0,0 -0.01563,0 -0.04687,0 -0.07812,-0.03124 -0.015625,-0.01563 -0.015625,-0.03126 0,-0.04687 0.046875,-0.062495 0,0 0.01563,0 0.03124,0 0.03124,0.015625 0,0.01563 0,0.01563 0,0.03124 -0.03124,0.04687 0,0 -0.01563,0.01563 0.01563,0.01562 0.04687,0.01562 0.04688,0 0.0625,-0.109375 Q 0.21875,0.0625 0.21875,0.03125 l 0,-0.03125 0.07813,-0.40625 -0.0625,0 q -0.03126,0 -0.03126,0 l 0,0 0,0 q 0,-0.01563 0.01563,-0.03125 l 0,0 0.01563,0 0.07812,0 Q 0.32812,-0.5625 0.34375,-0.59375 0.375,-0.6875 0.4375,-0.70312 q 0.01562,0 0.03125,0 0.04687,0 0.07813,0.03124 l 0,0 q 0,0.01563 0,0.03126 0,0.04687 -0.03126,0.0625 0,0 -0.01562,0 -0.03125,0 -0.03125,-0.01563 -0.01563,-0.01563 -0.01563,-0.01563 0,-0.03124 0.03126,-0.04687 0.01562,0 0.03124,-0.01563 Q 0.5,-0.6875 0.46875,-0.6875 q -0.03125,0 -0.04687,0.03125 -0.01563,0.01563 -0.03126,0.10937 L 0.375,-0.4375 l 0.07812,0 q 0.03126,0 0.03126,0.01562 0,0.01563 -0.01563,0.01563 l 0,0 -0.01563,0 -0.09374,0 z" />
          </g>
          
        </g>
        
      </g>
      
      <g id="g20438" transform="matrix(16.4265,0,0,16.4265,220.36628,246.1362)">
        <clipPath id="clip49">
          <path id="path20441" d="m -19.115,-22.268 0,24.5786 30.527,0 0,-24.5786 z" />
        </clipPath>
        <g id="g20443" clip-path="url(#clip49)">
          <g style="fill:#000000;fill-opacity:1;fill-rule:nonzero;stroke:none" id="g20445">
            <path id="path20447" d="m 0.32812,0.23438 0,0 q 0,0.01562 0,0.01562 Q 0.3125,0.25 0.26562,0.20312 0.20312,0.14062 0.17188,0.0625 0.09375,-0.078125 0.09375,-0.25 q 0,-0.17188 0.0625,-0.3125 0.0625,-0.10938 0.14063,-0.17188 Q 0.3125,-0.75 0.32812,-0.75 q 0,0 0,0.01562 0,0 -0.01562,0.01563 -0.15625,0.15625 -0.15625,0.46875 0,0.3125 0.15625,0.46875 0.01562,0.01563 0.01562,0.01563 z" />
          </g>
          
        </g>
        
      </g>
      
      <g id="g20449" transform="matrix(16.4265,0,0,16.4265,226.75628,246.1362)">
        <clipPath id="clip50">
          <path id="path20452" d="m -19.504,-22.268 0,24.5786 30.527,0 0,-24.5786 z" />
        </clipPath>
        <g id="g20454" clip-path="url(#clip50)">
          <g style="fill:#000000;fill-opacity:1;fill-rule:nonzero;stroke:none" id="g20456">
            <path id="path20458" d="m 0.32812,-0.29688 -0.03124,0.125 q -0.01563,0.07813 -0.01563,0.093755 0,0.046875 0.03125,0.0625 0.01562,0 0.03125,0 0.04687,0 0.07813,-0.046875 0.03124,-0.03125 0.04687,-0.07812 0,-0.01563 0.01563,-0.01563 0.01562,0 0.01562,0.01563 0,0.01562 -0.03125,0.062495 -0.0625,0.09375 -0.125,0.09375 -0.07813,0 -0.10937,-0.0625 0,-0.015625 0,-0.015625 Q 0.20312,-0.015625 0.15625,0 0.14062,0.015625 0.125,0.015625 q -0.0625,0 -0.09375,-0.046875 0,0 0,-0.03125 0,-0.03125 0.03125,-0.04688 0.015625,0 0.015625,0 0.031255,0 0.046875,0.01563 0,0.015625 0,0.015625 0,0.03125 -0.03125,0.046875 -0.015625,0 -0.015625,0 0.015625,0.015625 0.046875,0.015625 0.04688,0 0.07812,-0.0625 0.01563,-0.015625 0.01563,-0.031255 0.04687,-0.20312 0.04687,-0.25 0,-0.0625 -0.04687,-0.0625 -0.04687,0 -0.09375,0.0625 l 0,0 q 0,0 0,0 -0.01562,0.01563 -0.03125,0.04688 0,0 0,0.01562 l -0.015625,0.01563 q 0,0 0,0 -0.015625,0 -0.015625,0 0,-0.03125 0.03125,-0.07813 0.04687,-0.07812 0.125,-0.07812 0.07813,0 0.10937,0.07812 0.03126,-0.0625 0.07813,-0.07812 0.01563,0 0.03125,0 0.0625,0 0.07812,0.03125 0.01563,0.01563 0.01563,0.03125 0,0.04688 -0.04687,0.04688 0,0.01562 -0.01563,0.01562 -0.03125,0 -0.03125,-0.03125 0,0 0,-0.01563 0,-0.03124 0.03125,-0.04687 0,0 0.01563,0 -0.01563,-0.01563 -0.04688,-0.01563 -0.07812,0 -0.09375,0.10938 -0.01563,0 -0.01563,0.01562 z" />
          </g>
          
        </g>
        
      </g>
      
      <g id="g20460" transform="matrix(16.4265,0,0,16.4265,236.14628,246.1362)">
        <clipPath id="clip51">
          <path id="path20463" d="m -20.075,-22.268 0,24.5786 30.526,0 0,-24.5786 z" />
        </clipPath>
        <g id="g20465" clip-path="url(#clip51)">
          <g style="fill:#000000;fill-opacity:1;fill-rule:nonzero;stroke:none" id="g20467">
            <path id="path20469" d="m 0.28125,-0.25 0,0 q 0,0.171875 -0.0625,0.3125 Q 0.17188,0.17188 0.09375,0.23438 0.078125,0.25 0.0625,0.25 q 0,0 0,-0.01562 0,0 0,-0.01563 Q 0.23438,0.0625 0.23438,-0.25 q 0,-0.3125 -0.156255,-0.46875 l 0,0 Q 0.0625,-0.73438 0.0625,-0.73438 q 0,-0.01562 0,-0.01562 0.015625,0 0.0625,0.04688 0.0625,0.0625 0.09375,0.14062 0.0625,0.14062 0.0625,0.3125 z" />
          </g>
          
        </g>
        
      </g>
      
      <g id="g20471" transform="matrix(16.4265,0,0,16.4265,246.18128,246.1362)">
        <clipPath id="clip52">
          <path id="path20474" d="m -20.686,-22.268 0,24.5786 30.5262,0 0,-24.5786 z" />
        </clipPath>
        <g id="g20476" clip-path="url(#clip52)">
          <g style="fill:#000000;fill-opacity:1;fill-rule:nonzero;stroke:none" id="g20478">
            <path id="path20480" d="m 0.65625,-0.23438 -0.54687,0 q -0.031255,0 -0.031255,-0.01562 0,-0.01562 0.031255,-0.01562 l 0.54687,0 q 0.03125,0 0.03125,0.01562 0,0.01562 -0.03125,0.01562 z" />
          </g>
          
        </g>
        
      </g>
      
      <g id="g20482" transform="matrix(16.4265,0,0,16.4265,262.62128,246.1362)">
        <clipPath id="clip53">
          <path id="path20485" d="m -21.686,-22.268 0,24.5786 30.5262,0 0,-24.5786 z" />
        </clipPath>
        <g id="g20487" clip-path="url(#clip53)">
          <g style="fill:#000000;fill-opacity:1;fill-rule:nonzero;stroke:none" id="g20489">
            <path id="path20491" d="m 0.03125,-0.17188 0,-0.03124 0.29687,-0.46876 q 0.01563,0 0.03126,0 0.01562,0 0.01562,0 l 0,0.01563 0,0.45313 0.09375,0 0,0.03124 -0.09375,0 0,0.093755 q 0,0.03125 0.01562,0.03125 0,0.015625 0.0625,0.015625 l 0.01563,0 0,0.03125 Q 0.42188,0 0.32812,0 0.23438,0 0.20312,0 l 0,-0.03125 0.01563,0 q 0.0625,0 0.07813,-0.015625 0,-0.015625 0,-0.03125 l 0,-0.093755 -0.26563,0 z m 0.26563,-0.03124 0,-0.35938 -0.23438,0.35938 0.23438,0 z" />
          </g>
          
        </g>
        
      </g>
      
      <g id="g20493" transform="matrix(16.4265,0,0,16.4265,186.57889,191.69)">
        <clipPath id="clip54">
          <path id="path20496" d="m -17.053,-17.847 0,24.5787 30.527,0 0,-24.5787 z" />
        </clipPath>
        <g id="g20498" clip-path="url(#clip54)">
          <g style="fill:#000000;fill-opacity:1;fill-rule:nonzero;stroke:none" id="g20500">
            <path id="path20502" d="M 0.48438,-0.375 0.39062,0 Q 0.35938,0.09375 0.28125,0.15625 0.21875,0.20312 0.15625,0.20312 0.09375,0.20312 0.0625,0.15625 0.046875,0.14062 0.046875,0.125 q 0,-0.0625 0.046875,-0.0625 0,-0.015625 0.01563,-0.015625 0.03124,0 0.03124,0.03125 0,0 0,0.015625 0,0.01563 -0.01562,0.03125 Q 0.10938,0.14062 0.078125,0.14062 0.09375,0.1875 0.15625,0.1875 q 0.0625,0 0.10937,-0.0625 0.04688,-0.0625 0.0625,-0.140625 0,-0.015625 0,-0.015625 -0.04687,0.046875 -0.09374,0.046875 -0.07813,0 -0.10938,-0.0625 -0.01562,-0.03125 -0.01562,-0.062505 0,-0.04687 0.04687,-0.20312 0,0 0.01563,0 0.01562,-0.04688 0.01562,-0.07812 0,-0.03126 -0.03125,-0.03126 -0.04687,0 -0.09375,0.09376 l 0,0 q 0,0.01562 0,0.03124 -0.015625,0.01563 -0.015625,0.01563 -0.015625,0 -0.015625,0 0,-0.03125 0.015625,-0.0625 0.046875,-0.09375 0.109375,-0.09375 0.0625,0 0.07813,0.04688 Q 0.25,-0.375 0.25,-0.35938 q 0,0.01563 -0.03125,0.07813 -0.04687,0.125 -0.04687,0.1875 0,0.078125 0.0625,0.078125 0.0625,0 0.09374,-0.0625 0.01563,-0.015625 0.01563,-0.015625 l 0.04687,-0.1875 Q 0.40625,-0.3125 0.40625,-0.35938 0.42188,-0.40625 0.42188,-0.40625 0.4375,-0.4375 0.46875,-0.4375 q 0.01563,0.01562 0.01563,0.03125 0,0.01563 0,0.03125 z" />
          </g>
          
        </g>
        
      </g>
      
      <g id="g20504" transform="matrix(16.4265,0,0,16.4265,199.19389,191.69)">
        <clipPath id="clip55">
          <path id="path20507" d="m -17.821,-17.847 0,24.5787 30.527,0 0,-24.5787 z" />
        </clipPath>
        <g id="g20509" clip-path="url(#clip55)">
          <g style="fill:#000000;fill-opacity:1;fill-rule:nonzero;stroke:none" id="g20511">
            <path id="path20513" d="m 0.6875,-0.32812 -0.59375,0 q -0.03125,0 -0.03125,-0.01563 0,-0.01563 0.03125,-0.01563 l 0.59375,0 q 0.03125,0 0.03125,0.01563 0,0.01563 -0.03125,0.01563 z m 0,0.1875 -0.59375,0 q -0.03125,0 -0.03125,-0.01563 0,-0.01563 0.03125,-0.01563 l 0.59375,0 q 0.03125,0 0.03125,0.01563 0,0.01563 -0.03125,0.01563 z" />
          </g>
          
        </g>
        
      </g>
      
      <g id="g20515" transform="matrix(16.4265,0,0,16.4265,218.51389,180.59)">
        <clipPath id="clip56">
          <path id="path20518" d="m -18.996,-17.171 0,24.5792 30.526,0 0,-24.5792 z" />
        </clipPath>
        <g id="g20520" clip-path="url(#clip56)">
          <g style="fill:#000000;fill-opacity:1;fill-rule:nonzero;stroke:none" id="g20522">
            <path id="path20524" d="m 0.29688,-0.64062 0,0.562495 q 0,0.03125 0.01562,0.03125 0.01562,0.015625 0.07812,0.015625 l 0.03126,0 0,0.03125 Q 0.39062,0 0.25,0 0.125,0 0.09375,0 l 0,-0.03125 0.03125,0 q 0.07812,0 0.09375,-0.015625 l 0,0 q 0,-0.015625 0,-0.03125 l 0,-0.515625 q -0.04687,0.01563 -0.125,0.01563 l 0,-0.03126 q 0.10937,0 0.17187,-0.0625 0.03126,0 0.03126,0.01563 l 0,0 0,0 q 0,0 0,0.01563 z" />
          </g>
          
        </g>
        
      </g>
      
      <g id="g20526" transform="matrix(16.4265,0,0,16.4265,-93.546109,-101.485)">
        <clipPath id="clip57">
          <path id="path20529" d="m 0,0 0,24.579 30.526,0 0,-24.579 z" />
        </clipPath>
        <g id="g20531" clip-path="url(#clip57)">
          <g style="fill:#000000;fill-opacity:1;fill-rule:nonzero;stroke:none" id="g20533">
            <path id="path20535" d="m 18.996,17.577 0.5,0 0,0.04 -0.5,0 0,-0.04 z" />
          </g>
          
        </g>
        
      </g>
      
      <g id="g20537" transform="matrix(16.4265,0,0,16.4265,218.51389,202.97)">
        <clipPath id="clip58">
          <path id="path20540" d="m -18.996,-18.533 0,24.5787 30.526,0 0,-24.5787 z" />
        </clipPath>
        <g id="g20542" clip-path="url(#clip58)">
          <g style="fill:#000000;fill-opacity:1;fill-rule:nonzero;stroke:none" id="g20544">
            <path id="path20546" d="m 0.45312,-0.17188 0,0 L 0.42188,0 0.046875,0 q 0,-0.03125 0.015625,-0.03125 l 0,0 L 0.25,-0.25 q 0.10938,-0.125 0.10938,-0.21875 0,-0.09375 -0.0625,-0.14063 l 0,0 0,0 q -0.03126,-0.03124 -0.07813,-0.03124 -0.0625,0 -0.10937,0.0625 -0.01563,0.01562 -0.01563,0.04687 0,0 0.01563,0 0.03124,0 0.04687,0.03125 l 0,0 q 0,0.01562 0,0.01562 0,0.04688 -0.04687,0.04688 0,0.01562 0,0.01562 -0.04688,0 -0.062505,-0.03124 0,-0.01563 0,-0.03126 0,-0.07812 0.062505,-0.125 0.04687,-0.0625 0.125,-0.0625 0.10937,0 0.17187,0.07813 0.03125,0.04687 0.04687,0.10937 0,0 0,0.01563 0,0.0625 -0.0625,0.14063 Q 0.35938,-0.29688 0.29688,-0.25 L 0.25,-0.1875 l -0.01562,0 -0.10938,0.109375 0.1875,0 q 0.07812,0 0.09375,0 0,-0.015625 0.01563,-0.093755 l 0.03124,0 z" />
          </g>
          
        </g>
        
      </g>
      
      <g id="g20548" transform="matrix(16.4265,0,0,16.4265,231.42889,191.69)">
        <clipPath id="clip59">
          <path id="path20551" d="m -19.783,-17.847 0,24.5787 30.526,0 0,-24.5787 z" />
        </clipPath>
        <g id="g20553" clip-path="url(#clip59)">
          <g style="fill:#000000;fill-opacity:1;fill-rule:nonzero;stroke:none" id="g20555">
            <path id="path20557" d="m 0.32812,0.23438 0,0 q 0,0.01562 0,0.01562 Q 0.3125,0.25 0.26562,0.20312 0.20312,0.14062 0.17188,0.0625 0.09375,-0.078125 0.09375,-0.25 q 0,-0.17188 0.0625,-0.3125 0.0625,-0.10938 0.14063,-0.17188 Q 0.3125,-0.75 0.32812,-0.75 q 0,0 0,0.01562 0,0 -0.01562,0.01563 -0.15625,0.15625 -0.15625,0.46875 0,0.3125 0.15625,0.46875 0.01562,0.01563 0.01562,0.01563 z" />
          </g>
          
        </g>
        
      </g>
      
      <g id="g20559" transform="matrix(16.4265,0,0,16.4265,237.81889,191.69)">
        <clipPath id="clip60">
          <path id="path20562" d="m -20.172,-17.847 0,24.5787 30.527,0 0,-24.5787 z" />
        </clipPath>
        <g id="g20564" clip-path="url(#clip60)">
          <g style="fill:#000000;fill-opacity:1;fill-rule:nonzero;stroke:none" id="g20566">
            <path id="path20568" d="m 0.35938,-0.40625 0,0 -0.04688,0.328125 q -0.01562,0.0625 -0.04688,0.140625 0,0.03125 -0.01562,0.04688 -0.03125,0.07812 -0.09375,0.09374 0,0 -0.01563,0 -0.04687,0 -0.07812,-0.03124 -0.015625,-0.01563 -0.015625,-0.03126 0,-0.04687 0.046875,-0.062495 0,0 0.01563,0 0.03124,0 0.03124,0.015625 0,0.01563 0,0.01563 0,0.03124 -0.03124,0.04687 0,0 -0.01563,0.01563 0.01563,0.01562 0.04687,0.01562 0.04688,0 0.0625,-0.109375 Q 0.21875,0.0625 0.21875,0.03125 l 0,-0.03125 0.07813,-0.40625 -0.0625,0 q -0.03126,0 -0.03126,0 l 0,0 0,0 q 0,-0.01563 0.01563,-0.03125 l 0,0 0.01563,0 0.07812,0 Q 0.32812,-0.5625 0.34375,-0.59375 0.375,-0.6875 0.4375,-0.70312 q 0.01562,0 0.03125,0 0.04687,0 0.07813,0.03124 l 0,0 q 0,0.01563 0,0.03126 0,0.04687 -0.03126,0.0625 0,0 -0.01562,0 -0.03125,0 -0.03125,-0.01563 -0.01563,-0.01563 -0.01563,-0.01563 0,-0.03124 0.03126,-0.04687 0.01562,0 0.03124,-0.01563 Q 0.5,-0.6875 0.46875,-0.6875 q -0.03125,0 -0.04687,0.03125 -0.01563,0.01563 -0.03126,0.10937 L 0.375,-0.4375 l 0.07812,0 q 0.03126,0 0.03126,0.01562 0,0.01563 -0.01563,0.01563 l 0,0 -0.01563,0 -0.09374,0 z" />
          </g>
          
        </g>
        
      </g>
      
      <g id="g20570" transform="matrix(16.4265,0,0,16.4265,245.85889,191.69)">
        <clipPath id="clip61">
          <path id="path20573" d="m -20.661,-17.847 0,24.5787 30.5259,0 0,-24.5787 z" />
        </clipPath>
        <g id="g20575" clip-path="url(#clip61)">
          <g style="fill:#000000;fill-opacity:1;fill-rule:nonzero;stroke:none" id="g20577">
            <path id="path20579" d="m 0.32812,0.23438 0,0 q 0,0.01562 0,0.01562 Q 0.3125,0.25 0.26562,0.20312 0.20312,0.14062 0.17188,0.0625 0.09375,-0.078125 0.09375,-0.25 q 0,-0.17188 0.0625,-0.3125 0.0625,-0.10938 0.14063,-0.17188 Q 0.3125,-0.75 0.32812,-0.75 q 0,0 0,0.01562 0,0 -0.01562,0.01563 -0.15625,0.15625 -0.15625,0.46875 0,0.3125 0.15625,0.46875 0.01562,0.01563 0.01562,0.01563 z" />
          </g>
          
        </g>
        
      </g>
      
      <g id="g20581" transform="matrix(16.4265,0,0,16.4265,252.24889,191.69)">
        <clipPath id="clip62">
          <path id="path20584" d="m -21.05,-17.847 0,24.5787 30.526,0 0,-24.5787 z" />
        </clipPath>
        <g id="g20586" clip-path="url(#clip62)">
          <g style="fill:#000000;fill-opacity:1;fill-rule:nonzero;stroke:none" id="g20588">
            <path id="path20590" d="m 0.32812,-0.29688 -0.03124,0.125 q -0.01563,0.07813 -0.01563,0.093755 0,0.046875 0.03125,0.0625 0.01562,0 0.03125,0 0.04687,0 0.07813,-0.046875 0.03124,-0.03125 0.04687,-0.07812 0,-0.01563 0.01563,-0.01563 0.01562,0 0.01562,0.01563 0,0.01562 -0.03125,0.062495 -0.0625,0.09375 -0.125,0.09375 -0.07813,0 -0.10937,-0.0625 0,-0.015625 0,-0.015625 Q 0.20312,-0.015625 0.15625,0 0.14062,0.015625 0.125,0.015625 q -0.0625,0 -0.09375,-0.046875 0,0 0,-0.03125 0,-0.03125 0.03125,-0.04688 0.015625,0 0.015625,0 0.031255,0 0.046875,0.01563 0,0.015625 0,0.015625 0,0.03125 -0.03125,0.046875 -0.015625,0 -0.015625,0 0.015625,0.015625 0.046875,0.015625 0.04688,0 0.07812,-0.0625 0.01563,-0.015625 0.01563,-0.031255 0.04687,-0.20312 0.04687,-0.25 0,-0.0625 -0.04687,-0.0625 -0.04687,0 -0.09375,0.0625 l 0,0 q 0,0 0,0 -0.01562,0.01563 -0.03125,0.04688 0,0 0,0.01562 l -0.015625,0.01563 q 0,0 0,0 -0.015625,0 -0.015625,0 0,-0.03125 0.03125,-0.07813 0.04687,-0.07812 0.125,-0.07812 0.07813,0 0.10937,0.07812 0.03126,-0.0625 0.07813,-0.07812 0.01563,0 0.03125,0 0.0625,0 0.07812,0.03125 0.01563,0.01563 0.01563,0.03125 0,0.04688 -0.04687,0.04688 0,0.01562 -0.01563,0.01562 -0.03125,0 -0.03125,-0.03125 0,0 0,-0.01563 0,-0.03124 0.03125,-0.04687 0,0 0.01563,0 -0.01563,-0.01563 -0.04688,-0.01563 -0.07812,0 -0.09375,0.10938 -0.01563,0 -0.01563,0.01562 z" />
          </g>
          
        </g>
        
      </g>
      
      <g id="g20592" transform="matrix(16.4265,0,0,16.4265,261.63889,191.69)">
        <clipPath id="clip63">
          <path id="path20595" d="m -21.622,-17.847 0,24.5787 30.5265,0 0,-24.5787 z" />
        </clipPath>
        <g id="g20597" clip-path="url(#clip63)">
          <g style="fill:#000000;fill-opacity:1;fill-rule:nonzero;stroke:none" id="g20599">
            <path id="path20601" d="m 0.28125,-0.25 0,0 q 0,0.171875 -0.0625,0.3125 Q 0.17188,0.17188 0.09375,0.23438 0.078125,0.25 0.0625,0.25 q 0,0 0,-0.01562 0,0 0,-0.01563 Q 0.23438,0.0625 0.23438,-0.25 q 0,-0.3125 -0.156255,-0.46875 l 0,0 Q 0.0625,-0.73438 0.0625,-0.73438 q 0,-0.01562 0,-0.01562 0.015625,0 0.0625,0.04688 0.0625,0.0625 0.09375,0.14062 0.0625,0.14062 0.0625,0.3125 z" />
          </g>
          
        </g>
        
      </g>
      
      <g id="g20603" transform="matrix(16.4265,0,0,16.4265,271.67389,191.69)">
        <clipPath id="clip64">
          <path id="path20606" d="m -22.233,-17.847 0,24.5787 30.5264,0 0,-24.5787 z" />
        </clipPath>
        <g id="g20608" clip-path="url(#clip64)">
          <g style="fill:#000000;fill-opacity:1;fill-rule:nonzero;stroke:none" id="g20610">
            <path id="path20612" d="m 0.65625,-0.23438 -0.54687,0 q -0.031255,0 -0.031255,-0.01562 0,-0.01562 0.031255,-0.01562 l 0.54687,0 q 0.03125,0 0.03125,0.01562 0,0.01562 -0.03125,0.01562 z" />
          </g>
          
        </g>
        
      </g>
      
      <g id="g20614" transform="matrix(16.4265,0,0,16.4265,288.11389,191.69)">
        <clipPath id="clip65">
          <path id="path20617" d="m -23.233,-17.847 0,24.5787 30.5264,0 0,-24.5787 z" />
        </clipPath>
        <g id="g20619" clip-path="url(#clip65)">
          <g style="fill:#000000;fill-opacity:1;fill-rule:nonzero;stroke:none" id="g20621">
            <path id="path20623" d="m 0.03125,-0.17188 0,-0.03124 0.29687,-0.46876 q 0.01563,0 0.03126,0 0.01562,0 0.01562,0 l 0,0.01563 0,0.45313 0.09375,0 0,0.03124 -0.09375,0 0,0.093755 q 0,0.03125 0.01562,0.03125 0,0.015625 0.0625,0.015625 l 0.01563,0 0,0.03125 Q 0.42188,0 0.32812,0 0.23438,0 0.20312,0 l 0,-0.03125 0.01563,0 q 0.0625,0 0.07813,-0.015625 0,-0.015625 0,-0.03125 l 0,-0.093755 -0.26563,0 z m 0.26563,-0.03124 0,-0.35938 -0.23438,0.35938 0.23438,0 z" />
          </g>
          
        </g>
        
      </g>
      
      <g id="g20625" transform="matrix(16.4265,0,0,16.4265,296.31889,191.69)">
        <clipPath id="clip66">
          <path id="path20628" d="m -23.733,-17.847 0,24.5787 30.5264,0 0,-24.5787 z" />
        </clipPath>
        <g id="g20630" clip-path="url(#clip66)">
          <g style="fill:#000000;fill-opacity:1;fill-rule:nonzero;stroke:none" id="g20632">
            <path id="path20634" d="m 0.28125,-0.25 0,0 q 0,0.171875 -0.0625,0.3125 Q 0.17188,0.17188 0.09375,0.23438 0.078125,0.25 0.0625,0.25 q 0,0 0,-0.01562 0,0 0,-0.01563 Q 0.23438,0.0625 0.23438,-0.25 q 0,-0.3125 -0.156255,-0.46875 l 0,0 Q 0.0625,-0.73438 0.0625,-0.73438 q 0,-0.01562 0,-0.01562 0.015625,0 0.0625,0.04688 0.0625,0.0625 0.09375,0.14062 0.0625,0.14062 0.0625,0.3125 z" />
          </g>
          
        </g>
        
      </g>
      
      <path transform="translate(-83.20763,-752.5868)" id="path20642" d="m 262.27952,938.21395 -21.78401,-6.09952" style="fill:#008000;stroke:#008000;stroke-width:1px;stroke-linecap:butt;stroke-linejoin:miter;stroke-opacity:1" />
    </g>
    
  </g>
  
</svg>