<?xml version='1.0' ?><svg xmlns:dc="http://purl.org/dc/elements/1.1/" xmlns:cc="http://creativecommons.org/ns#" xmlns:rdf="http://www.w3.org/1999/02/22-rdf-syntax-ns#" xmlns:svg="http://www.w3.org/2000/svg" xmlns="http://www.w3.org/2000/svg" id="svg2" version="1.1" width="386.48532" height="383.99443" viewBox="156.29908847621155 110.13552144637977 362.8964891752891 360.55762870855307" preserveAspectRatio="none">
  <metadata id="metadata104">
    <rdf:RDF>
      <cc:Work rdf:about="">
        <dc:format>image/svg+xml</dc:format>
        <dc:type rdf:resource="http://purl.org/dc/dcmitype/StillImage" />
        <dc:title />
      </cc:Work>
    </rdf:RDF>
  </metadata>
  <defs id="defs102">
    <marker style="overflow:visible;" id="marker5853" refX="0.0" refY="0.0" orient="auto">
      <path transform="scale(0.4) rotate(180) translate(10,0)" style="fill-rule:evenodd;stroke:#000000;stroke-width:1pt;stroke-opacity:1;fill:#000000;fill-opacity:1" d="M 0.0,0.0 L 5.0,-5.0 L -12.5,0.0 L 5.0,5.0 L 0.0,0.0 z " id="path5855" />
    </marker>
    <marker style="overflow:visible;" id="marker5850" refX="0.0" refY="0.0" orient="auto">
      <path transform="scale(0.4) rotate(180) translate(10,0)" style="fill-rule:evenodd;stroke:#000000;stroke-width:1pt;stroke-opacity:1;fill:#000000;fill-opacity:1" d="M 0.0,0.0 L 5.0,-5.0 L -12.5,0.0 L 5.0,5.0 L 0.0,0.0 z " id="path5603" />
    </marker>
    <clipPath id="clipPath5574" clipPathUnits="userSpaceOnUse">
      <rect y="506.79718" x="117.34965" height="396.38107" width="395.72913" id="rect5576" style="fill:none;stroke:#000000;stroke-width:0.9389658;stroke-miterlimit:4;stroke-dasharray:5.63379492, 5.63379492;stroke-dashoffset:0;fill-opacity:0.97000002;stroke-opacity:0.97000002" />
    </clipPath>
    <clipPath id="clipPath5578" clipPathUnits="userSpaceOnUse">
      <rect y="506.79718" x="117.34965" height="396.38107" width="395.72913" id="rect5580" style="fill:none;stroke:#000000;stroke-width:0.9389658;stroke-miterlimit:4;stroke-dasharray:5.63379492, 5.63379492;stroke-dashoffset:0;fill-opacity:0.97000002;stroke-opacity:0.97000002" />
    </clipPath>
    <clipPath id="clipPath5582" clipPathUnits="userSpaceOnUse">
      <rect y="506.79718" x="117.34965" height="396.38107" width="395.72913" id="rect5584" style="fill:none;stroke:#000000;stroke-width:0.9389658;stroke-miterlimit:4;stroke-dasharray:5.63379492, 5.63379492;stroke-dashoffset:0;fill-opacity:0.97000002;stroke-opacity:0.97000002" />
    </clipPath>
    <clipPath id="clipPath5586" clipPathUnits="userSpaceOnUse">
      <rect y="506.79718" x="117.34965" height="396.38107" width="395.72913" id="rect5588" style="fill:none;stroke:#000000;stroke-width:0.9389658;stroke-miterlimit:4;stroke-dasharray:5.63379492, 5.63379492;stroke-dashoffset:0;fill-opacity:0.97000002;stroke-opacity:0.97000002" />
    </clipPath>
  </defs>
  <g transform="matrix(1.6280751,0,0,1.6280751,553.9136,139.73929)" id="g4853">
    <g style="font-style:normal;font-variant:normal;font-weight:normal;font-stretch:normal;letter-spacing:normal;word-spacing:normal;text-anchor:start;fill:none;fill-opacity:1;fill-rule:evenodd;stroke:#000000;stroke-linecap:butt;stroke-linejoin:miter;stroke-miterlimit:10.43299961;stroke-dasharray:none;stroke-dashoffset:0;stroke-opacity:1" word-spacing="normal" letter-spacing="normal" font-size-adjust="none" font-stretch="normal" font-weight="normal" font-variant="normal" font-style="normal" stroke-miterlimit="10.433" xml:space="preserve" transform="matrix(1.0629921,0,0,-1.0629921,-186.02362,789.27165)" id="content"><path style="fill:#000000;stroke-width:0" id="path4856" d="m 152.26,660.58 -0.24,0.64 c -0.14,0.37 -0.36,0.86 -0.87,1.14 l -1.53,-0.39 0.03,-0.2 c 0.12,0.04 0.3,0.06 0.44,0.06 0.64,0 0.95,-0.47 1.14,-1.03 l 0.39,-1.07 -0.75,-1.17 c -0.38,-0.58 -0.69,-0.68 -0.83,-0.68 -0.28,0 -0.24,0.23 -0.53,0.23 -0.3,0 -0.46,-0.25 -0.46,-0.44 0,-0.25 0.19,-0.55 0.61,-0.55 0.66,0 0.99,0.5 1.36,1.08 l 0.74,1.14 0.45,-1.31 c 0.16,-0.42 0.38,-0.91 0.86,-0.91 0.67,0 1.19,1.13 1.33,1.3 l -0.16,0.11 c -0.25,-0.5 -0.53,-0.65 -0.72,-0.65 -0.51,0 -0.78,1.56 -1.12,2.28 l 0.64,1 c 0.16,0.25 0.28,0.43 0.62,0.43 0.21,0 0.27,-0.11 0.52,-0.11 0.3,0 0.45,0.27 0.45,0.49 0,0.25 -0.2,0.39 -0.56,0.39 -0.58,0 -1,-0.52 -1.3,-0.98 z" /></g>  </g>
  <g transform="matrix(1.6280751,0,0,1.6280751,385.68887,-28.793259)" id="g4930">
    <g style="font-style:normal;font-variant:normal;font-weight:normal;font-stretch:normal;letter-spacing:normal;word-spacing:normal;text-anchor:start;fill:none;fill-opacity:1;fill-rule:evenodd;stroke:#000000;stroke-linecap:butt;stroke-linejoin:miter;stroke-miterlimit:10.43299961;stroke-dasharray:none;stroke-dashoffset:0;stroke-opacity:1" id="g4932" transform="matrix(1.0629921,0,0,-1.0629921,-186.02362,789.27165)" xml:space="preserve" stroke-miterlimit="10.433" font-style="normal" font-variant="normal" font-weight="normal" font-stretch="normal" font-size-adjust="none" letter-spacing="normal" word-spacing="normal"><path style="fill:#000000;stroke-width:0" d="m 151.85,660.8 -0.01,0.08 -0.01,0.07 -0.01,0.07 -0.01,0.07 -0.01,0.07 -0.01,0.07 -0.01,0.06 -0.01,0.06 -0.01,0.06 -0.01,0.05 -0.01,0.05 -0.01,0.06 -0.01,0.04 -0.01,0.05 -0.01,0.05 -0.02,0.04 -0.01,0.04 -0.01,0.05 -0.02,0.04 -0.01,0.04 -0.03,0.07 -0.03,0.07 -0.04,0.08 -0.04,0.07 -0.04,0.06 -0.05,0.07 -1.75,-0.29 0.03,-0.17 c 0.09,0 0.28,0.04 0.41,0.04 0.65,0 0.76,-0.7 0.81,-1.22 l 0.45,-3.65 c -0.31,-0.47 -0.97,-1.19 -1.17,-1.19 -0.17,0 -0.16,0.36 -0.66,0.36 -0.15,0 -0.47,-0.13 -0.47,-0.47 0,-0.28 0.22,-0.64 0.66,-0.64 0.78,0 1.55,1.14 2.39,2.2 0.49,0.63 2.38,3.41 2.38,4.31 0,0.46 -0.3,0.72 -0.68,0.72 -0.32,0 -0.54,-0.2 -0.54,-0.46 0,-0.44 0.61,-0.55 0.61,-0.8 0,-0.2 -0.1,-0.44 -0.33,-0.88 -0.25,-0.47 -0.66,-1.17 -1.36,-2.12 z" id="path4934" /></g>  </g>
  <path id="path5262" d="m 333.93297,470.49178 0,-358.7888" style="fill:none;stroke:#000000;stroke-width:0.82285088;stroke-linecap:butt;stroke-linejoin:miter;stroke-miterlimit:10;stroke-dasharray:none;stroke-dashoffset:0;stroke-opacity:1;marker-end:url(#marker5850)" />
  <path id="path5289" d="m 156.2991,295.43929 361.32485,0" style="fill:none;stroke:#000000;stroke-width:0.82285088;stroke-linecap:butt;stroke-linejoin:miter;stroke-miterlimit:10;stroke-dasharray:none;stroke-dashoffset:0;stroke-opacity:1;marker-end:url(#marker5853)" />
  <path transform="matrix(0.87633746,0,0,0.87633746,57.035574,-321.87279)" clip-path="url(#clipPath5586)" d="m 86.928502,922.86711 4.530262,-4.77922 4.530262,-4.79922 4.531264,-4.81921 4.53026,-4.82922 4.53026,-4.83921 4.53126,-4.8692 4.53027,-4.88921 4.53026,-4.9092 4.53026,-4.92919 4.53026,-4.96919 4.53126,-4.98919 4.53027,-5.02918 4.53026,-5.06917 4.53126,-5.10917 4.53126,-5.16916 4.52926,-5.21915 4.52927,-5.28914 4.52926,-5.36912 4.52926,-5.45911 4.53926,-5.56909 4.52926,-5.68908 4.52927,-5.85904 4.52926,-6.03902 4.52926,-6.27897 4.52926,-6.58893 4.52927,-6.98886 4.52926,-7.50878 4.52926,-8.23865 4.53926,-9.27849 2.25963,-5.17916 2.26963,-5.66907 2.25964,-6.28898 2.26963,-7.10884 2.25963,-8.19866 2.26963,-9.71842 1.12981,-5.61908 1.13982,-6.28898 1.12981,-7.11884 1.12982,-8.15867 1.12982,-9.49845 0.5699,-5.38912 0.56991,-5.88904 0.55991,-6.48894 0.56991,-7.19883 0.5699,-8.02869 0.55991,-9.03853 0.28995,-4.96919 0.27996,-5.30913 0.27995,-5.67907 0.28996,-6.09901 0.27995,-6.57893 0.27996,-7.11884 0.27995,-7.71874 0.28995,-8.40863 0.27996,-9.1985 0.13997,-4.93919 0.13998,-5.17916 0.14998,-5.44011 0.13997,-5.73007 0.13998,-6.04101 0.13998,-6.37697 0.13998,-6.7439 0.13997,-7.14283 0.14998,-7.57977 0.13998,-8.06068 0.13997,-8.5866 0.13998,-9.16951 0.13998,-9.8134 0.07,-5.17016 0.07,-5.35872 0.07,-5.5584 0.08,-5.76936 0.07,-5.99262 m 10.25833,463.68622 0.28995,-7.11884 0.27995,-6.57893 0.27996,-6.109 0.28995,-5.67908 0.27996,-5.30913 0.55991,-9.62843 0.5699,-8.52861 0.56991,-7.59876 0.55991,-6.83889 0.56991,-6.18899 0.5699,-5.63908 0.55991,-5.16916 1.13982,-9.15851 1.12981,-7.89871 1.12982,-6.92887 1.12981,-6.139 1.13982,-5.5191 1.12981,-5.00918 2.26963,-8.78857 2.25964,-7.57876 2.26963,-6.67892 2.25963,-6.00902 2.26963,-5.4891 2.25963,-5.07917 4.52926,-9.2485 4.53926,-8.37863 4.52927,-7.79873 4.52926,-7.38879 4.52926,-7.11884 4.52926,-6.92887 4.52926,-6.83889 4.52927,-6.79889 4.53926,-6.82889 4.52926,-6.91887 4.52926,-7.08884 4.52926,-7.35881 4.52927,-7.73873 4.52926,-8.29865 4.52926,-9.13851 2.26963,-4.99919 2.25963,-5.38912 2.26963,-5.87904 2.25964,-6.50894 2.26963,-7.3488 2.26963,-8.48862 1.12981,-4.79921 1.12982,-5.26915 1.12981,-5.84904 1.13982,-6.54893 1.12981,-7.43879 1.12982,-8.54861 0.56991,-4.79522 0.5699,-5.21015 0.55991,-5.69107 0.56991,-6.24998 0.56991,-6.90688 0.55991,-7.68774 0.5699,-8.6216 0.55991,-9.75341 0.28996,-5.37912 0.27995,-5.76506 0.27995,-6.19699 0.28996,-6.68191 0.27995,-7.22882 0.27996,-7.84972 0.28995,-8.55901 0.27995,-9.37177 m 9.69842,464.16104 0.07,-5.02918 0.13998,-9.54845 0.13998,-8.92854 0.14997,-8.37863 0.13998,-7.85872 0.13998,-7.4088 0.13997,-6.97886 0.13998,-6.59892 0.13998,-6.23899 0.13997,-5.90903 0.14998,-5.61909 0.13998,-5.33913 0.27995,-9.91838 0.27996,-9.03853 0.28995,-8.25865 0.27995,-7.59876 0.27996,-6.99886 0.28995,-6.47894 0.27996,-6.01902 0.27995,-5.60909 0.28995,-5.22915 0.27996,-4.8992 0.5699,-8.93854 0.55991,-7.93871 0.56991,-7.11884 0.56991,-6.42895 0.55991,-5.83905 0.5699,-5.33913 0.56991,-4.8992 1.12982,-8.71858 1.12981,-7.55876 1.12982,-6.63892 1.13981,-5.90904 1.12982,-5.30913 1.12981,-4.82922 2.26963,-8.49861 2.25964,-7.31881 2.26963,-6.45894 2.25963,-5.78906 2.26963,-5.28914 4.52926,-9.41846 4.52926,-8.33864 4.52927,-7.57877 4.52926,-7.03885 4.53926,-6.61892 4.52926,-6.31897 4.52926,-6.06901 4.52927,-5.86905 4.52926,-5.70907 4.52926,-5.57909 4.52926,-5.46911 4.53926,-5.37912 4.52927,-5.29813 4.52926,-5.22915 4.52926,-5.17016 4.52926,-5.11917 4.52926,-5.07317 4.52927,-5.03318 4.52926,-4.99818 4.52926,-4.96619 4.53926,-4.9372 4.52926,-4.9122 4.52927,-4.8892 4.52926,-4.86721 4.52926,-4.84921 4.52926,-4.83121 4.52926,-4.81421 4.53927,-4.80122 4.52926,-4.78622 4.52926,-4.77422 4.52926,-4.76223 4.52926,-4.75222 4.52927,-4.74186 4.52926,-4.7325 4.52926,-4.72393" id="path5318" style="fill:none;stroke:#0002ff;stroke-width:1.31455219;stroke-linecap:round;stroke-linejoin:round;stroke-miterlimit:10;stroke-dasharray:none;stroke-dashoffset:0;stroke-opacity:1" />
  <path transform="matrix(0.87633746,0,0,0.87633746,57.035574,-321.87279)" clip-path="url(#clipPath5582)" d="M 100.78724,919.60764 558.71166,461.68228" id="path5331" style="fill:none;stroke:#000000;stroke-width:0.9389658;stroke-linecap:round;stroke-linejoin:round;stroke-miterlimit:10;stroke-dasharray:5.63379495, 5.63379495;stroke-dashoffset:0;stroke-opacity:1" />
  <path transform="matrix(0.87633746,0,0,0.87633746,57.035574,-321.87279)" clip-path="url(#clipPath5578)" d="m 382.63034,919.60764 0,-457.92536" id="path5344" style="fill:none;stroke:#000000;stroke-width:0.9389658;stroke-linecap:round;stroke-linejoin:round;stroke-miterlimit:10;stroke-dasharray:5.63379495, 5.63379495;stroke-dashoffset:0;stroke-opacity:1" />
  <path transform="matrix(0.87633746,0,0,0.87633746,57.035574,-321.87279)" clip-path="url(#clipPath5574)" d="m 249.32205,919.60764 0,-457.92536" id="path5357" style="fill:none;stroke:#000000;stroke-width:0.9389658;stroke-linecap:round;stroke-linejoin:round;stroke-miterlimit:10;stroke-dasharray:5.63379495, 5.63379495;stroke-dashoffset:0;stroke-opacity:1" />
</svg>