<?xml version='1.0' ?><svg xmlns:dc="http://purl.org/dc/elements/1.1/" xmlns:cc="http://creativecommons.org/ns#" xmlns:rdf="http://www.w3.org/1999/02/22-rdf-syntax-ns#" xmlns:svg="http://www.w3.org/2000/svg" xmlns="http://www.w3.org/2000/svg" id="svg2" version="1.1" width="372.49996" height="197.30172" viewBox="0.0 1.5445766319463088 461.9999503892617 244.70709970469795" preserveAspectRatio="none">
  <metadata id="metadata274">
    <rdf:RDF>
      <cc:Work rdf:about="">
        <dc:format>image/svg+xml</dc:format>
        <dc:type rdf:resource="http://purl.org/dc/dcmitype/StillImage" />
      </cc:Work>
    </rdf:RDF>
  </metadata>
  <defs id="defs272" />
  <title id="title4" />
  <g id="g6" stroke-linecap="square" stroke-miterlimit="10.000" stroke-width="1.0000" stroke-dasharray="none" stroke-dashoffset="0.0000" stroke-linejoin="miter">
    <clipPath id="clip1">
      <path id="path9" d="M 0.0000 0.0000 L 0.0000 246.00 L 462.00 246.00 L 462.00 0.0000 z" />
    </clipPath>
    <g id="g11" clip-path="url(#clip1)">
      <g id="g13" stroke="#000000" stroke-opacity="1.0000" fill="none" stroke-linecap="butt" stroke-width="2.0000">
        <path id="path15" d="M 41.812 3.0000 L 41.812 246.00" />
      </g>
    </g>
    <clipPath id="clip2">
      <path id="path18" d="M 0.0000 0.0000 L 0.0000 246.00 L 462.00 246.00 L 462.00 0.0000 z" />
    </clipPath>
    <g id="g20" clip-path="url(#clip2)">
      <g id="g22" stroke="#000000" stroke-opacity="1.0000" fill="none" stroke-linecap="butt" stroke-width="2.0000">
        <path id="path24" d="M 41.812 2.0000 L 36.812 7.0000" />
      </g>
    </g>
    <clipPath id="clip3">
      <path id="path27" d="M 0.0000 0.0000 L 0.0000 246.00 L 462.00 246.00 L 462.00 0.0000 z" />
    </clipPath>
    <g id="g29" clip-path="url(#clip3)">
      <g id="g31" stroke="#000000" stroke-opacity="1.0000" fill="none" stroke-linecap="butt" stroke-width="2.0000">
        <path id="path33" d="M 41.812 2.0000 L 46.812 7.0000" />
      </g>
    </g>
    <clipPath id="clip4">
      <path id="path36" d="M 0.0000 0.0000 L 0.0000 246.00 L 462.00 246.00 L 462.00 0.0000 z" />
    </clipPath>
    <g id="g38" clip-path="url(#clip4)">
      <g id="g40" stroke="#000000" stroke-opacity="1.0000" fill="none" stroke-linecap="butt" stroke-width="2.0000">
        <path id="path42" d="M 0.0000 198.12 L 459.00 198.12" />
      </g>
    </g>
    <clipPath id="clip5">
      <path id="path45" d="M 0.0000 0.0000 L 0.0000 246.00 L 462.00 246.00 L 462.00 0.0000 z" />
    </clipPath>
    <g id="g47" clip-path="url(#clip5)">
      <g id="g49" stroke="#000000" stroke-opacity="1.0000" fill="none" stroke-linecap="butt" stroke-width="2.0000">
        <path id="path51" d="M 460.00 198.12 L 455.00 193.12" />
      </g>
    </g>
    <clipPath id="clip6">
      <path id="path54" d="M 0.0000 0.0000 L 0.0000 246.00 L 462.00 246.00 L 462.00 0.0000 z" />
    </clipPath>
    <g id="g56" clip-path="url(#clip6)">
      <g id="g58" stroke="#000000" stroke-opacity="1.0000" fill="none" stroke-linecap="butt" stroke-width="2.0000">
        <path id="path60" d="M 460.00 198.12 L 455.00 203.12" />
      </g>
    </g>
    <g id="misc" />
    <g id="layer0">
      <clipPath id="clip7">
        <path id="path65" d="M 0.0000 0.0000 L 0.0000 246.00 L 462.00 246.00 L 462.00 0.0000 z" />
      </clipPath>
      <g id="g67" clip-path="url(#clip7)">
        <g id="g69" fill="#ff00ff" stroke="none" fill-rule="nonzero" fill-opacity=".25882">
          <path id="path71" d="M 86.812 198.12 C 86.812 190.05 84.637 182.11 80.515 175.17 L 41.812 198.12 z" />
          <title id="title73">Angle Ã&#142;Â±</title>
          <desc id="desc75">Angle Ã&#142;Â±: Angle between S, A, B</desc>
        </g>
      </g>
      <clipPath id="clip8">
        <path id="path78" d="M 0.0000 0.0000 L 0.0000 246.00 L 462.00 246.00 L 462.00 0.0000 z" />
      </clipPath>
      <g id="g80" clip-path="url(#clip8)">
        <g id="g82" stroke="#ff00ff" stroke-opacity="1.0000" fill="none" stroke-linecap="round" stroke-width="2.0000" stroke-linejoin="round">
          <path id="path84" d="M 86.812 198.12 C 86.812 190.05 84.637 182.11 80.515 175.17 L 41.812 198.12 z" />
          <title id="title86">Angle Ã&#142;Â±</title>
          <desc id="desc88">Angle Ã&#142;Â±: Angle between S, A, B</desc>
        </g>
      </g>
      <clipPath id="clip9">
        <path id="path91" d="M 0.0000 0.0000 L 0.0000 246.00 L 462.00 246.00 L 462.00 0.0000 z" />
      </clipPath>
      <g id="g93" clip-path="url(#clip9)">
        <g id="g95" stroke="#000000" stroke-opacity="1.0000" fill="none" stroke-linecap="round" stroke-width="2.5000" stroke-linejoin="round">
          <path id="path97" d="M 41.812 198.12 L 119.38 152.11" />
          <title id="title99">Vector u</title>
          <desc id="desc101">Vector u: Vector[A, B]</desc>
        </g>
      </g>
      <clipPath id="clip10">
        <path id="path104" d="M 0.0000 0.0000 L 0.0000 246.00 L 462.00 246.00 L 462.00 0.0000 z" />
      </clipPath>
      <g id="g106" clip-path="url(#clip10)">
        <g id="g108" fill="#000000" stroke="none" fill-rule="evenodd" fill-opacity="1.0000">
          <path id="path110" d="M 134.00 143.44 L 121.55 155.77 L 117.21 148.46 z" />
          <title id="title112">Vector u</title>
          <desc id="desc114">Vector u: Vector[A, B]</desc>
        </g>
      </g>
      <clipPath id="clip11">
        <path id="path117" d="M 0.0000 0.0000 L 0.0000 246.00 L 462.00 246.00 L 462.00 0.0000 z" />
      </clipPath>
      <g id="g119" clip-path="url(#clip11)">
        <g id="g121" stroke="#ff00ff" stroke-opacity="1.0000" fill="none" stroke-width="4.0000">
          <path id="path123" d="M 346.31 190.12 L 362.31 206.12" />
          <title id="title125">Point S</title>
          <desc id="desc127">Point S: Point on xAxis</desc>
        </g>
      </g>
      <clipPath id="clip12">
        <path id="path130" d="M 0.0000 0.0000 L 0.0000 246.00 L 462.00 246.00 L 462.00 0.0000 z" />
      </clipPath>
      <g id="g132" clip-path="url(#clip12)">
        <g id="g134" stroke="#ff00ff" stroke-opacity="1.0000" fill="none" stroke-width="4.0000">
          <path id="path136" d="M 346.31 206.12 L 362.31 190.12" />
          <title id="title138">Point S</title>
          <desc id="desc140">Point S: Point on xAxis</desc>
        </g>
      </g>
      <clipPath id="clip13">
        <path id="path143" d="M 0.0000 0.0000 L 0.0000 246.00 L 462.00 246.00 L 462.00 0.0000 z" />
      </clipPath>
      <g id="g145" clip-path="url(#clip13)">
        <g id="g147" fill="#000000" stroke="none" fill-rule="nonzero" fill-opacity="1.0000">
          <path id="path149" d="M 46.812 198.12 C 46.812 200.89 44.574 203.12 41.812 203.12 C 39.051 203.12 36.812 200.89 36.812 198.12 C 36.812 195.36 39.051 193.12 41.812 193.12 C 44.574 193.12 46.812 195.36 46.812 198.12 z" />
          <title id="title151">Point A</title>
          <desc id="desc153">Point A: Point on yAxis</desc>
        </g>
      </g>
      <clipPath id="clip14">
        <path id="path156" d="M 0.0000 0.0000 L 0.0000 246.00 L 462.00 246.00 L 462.00 0.0000 z" />
      </clipPath>
      <g id="g158" clip-path="url(#clip14)">
        <g id="g160" stroke="#000000" stroke-opacity="1.0000" fill="none" stroke-linecap="round" stroke-linejoin="round">
          <path id="path162" d="M 46.812 198.12 C 46.812 200.89 44.574 203.12 41.812 203.12 C 39.051 203.12 36.812 200.89 36.812 198.12 C 36.812 195.36 39.051 193.12 41.812 193.12 C 44.574 193.12 46.812 195.36 46.812 198.12 z" />
          <title id="title164">Point A</title>
          <desc id="desc166">Point A: Point on yAxis</desc>
        </g>
      </g>
      <g id="g168" transform="matrix(21.000, 0.0000, 0.0000, 21.000, 94.000, 191.33)">
        <clipPath id="clip15">
          <path id="path171" d="M -4.4762 -9.1111 L -4.4762 2.6032 L 17.524 2.6032 L 17.524 -9.1111 z" />
        </clipPath>
        <g id="g173" clip-path="url(#clip15)">
          <g id="g175" fill="#000000" stroke="none" fill-rule="nonzero" fill-opacity="1.0000">
            <path id="path177" d="M .57812 -.15625 Q .57812 -.031250 .60938 -.031250 Q .60938 -.031250 .61719 -.031250 Q .62500 -.031250 .64062 -.039062 Q .65625 -.046875 .65625 -.062500 Q .65625 -.062500 .66406 -.070312 Q .67188 -.078125 .68750 -.078125 Q .70312 -.078125 .70312 -.062500 Q .70312 -.031250 .67188 -.0078125 Q .64062 .015625 .60938 .015625 Q .56250 .015625 .53125 -.0078125 Q .50000 -.031250 .48438 -.078125 Q .37500 .015625 .25000 .015625 Q .15625 .015625 .10156 -.031250 Q .046875 -.078125 .046875 -.17188 Q .046875 -.21875 .070312 -.26562 Q .093750 -.31250 .12500 -.35938 Q .15625 -.40625 .21875 -.42969 Q .28125 -.45312 .35938 -.45312 Q .46875 -.45312 .53125 -.39062 Q .54688 -.35938 .56250 -.32812 Q .57812 -.29688 .57812 -.28125 Q .57812 -.26562 .57812 -.23438 Q .62500 -.29688 .65625 -.37500 Q .65625 -.39062 .65625 -.39844 Q .65625 -.40625 .67188 -.40625 Q .70312 -.40625 .70312 -.39062 Q .70312 -.37500 .67188 -.30469 Q .64062 -.23438 .57812 -.15625 z M .26562 -.031250 Q .31250 -.031250 .39062 -.062500 Q .40625 -.062500 .43750 -.085938 Q .46875 -.10938 .46875 -.10938 Q .46875 -.12500 .46875 -.16406 Q .46875 -.20312 .46875 -.20312 Q .46875 -.25000 .46094 -.28125 Q .45312 -.31250 .44531 -.34375 Q .43750 -.37500 .41406 -.39844 Q .39062 -.42188 .35938 -.42188 Q .31250 -.42188 .27344 -.39844 Q .23438 -.37500 .21875 -.32812 Q .18750 -.28125 .17188 -.21875 Q .15625 -.15625 .15625 -.12500 Q .15625 -.078125 .18750 -.054688 Q .21875 -.031250 .26562 -.031250 z" />
            <title id="title179">$\alpha$</title>
            <desc id="desc181">text2 = &quot;$\alpha$&quot;</desc>
          </g>
        </g>
      </g>
      <g id="g183" transform="matrix(21.000, 0.0000, 0.0000, 21.000, 110.00, 142.33)">
        <clipPath id="clip16">
          <path id="path186" d="M -5.2381 -6.7778 L -5.2381 4.9365 L 16.762 4.9365 L 16.762 -6.7778 z" />
        </clipPath>
        <g id="g188" clip-path="url(#clip16)">
          <g id="g190" fill="#000000" stroke="none" fill-rule="nonzero" fill-opacity="1.0000">
            <path id="path192" d="M .56250 -.31250 L .54688 -.23438 Q .53125 -.20312 .51562 -.14062 Q .50000 -.078125 .50000 -.062500 Q .50000 -.031250 .53125 -.031250 Q .56250 -.031250 .59375 -.12500 Q .60938 -.15625 .60938 -.15625 Q .60938 -.15625 .62500 -.15625 Q .64062 -.15625 .64062 -.14062 Q .64062 -.14062 .63281 -.10938 Q .62500 -.078125 .60938 -.046875 Q .57812 .015625 .51562 .015625 Q .43750 .015625 .40625 -.046875 Q .34375 .015625 .28125 .015625 Q .25000 .015625 .22656 .0078125 Q .20312 -0.0000 .17969 -.015625 Q .15625 -.031250 .14062 -.054688 Q .12500 -.078125 .12500 -.12500 Q .12500 -.18750 .18750 -.32812 Q .20312 -.37500 .20312 -.39062 Q .20312 -.40625 .19531 -.41406 Q .18750 -.42188 .18750 -.42188 Q .18750 -.42188 .18750 -.42188 Q .17188 -.42188 .16406 -.41406 Q .15625 -.40625 .14062 -.39844 Q .12500 -.39062 .10938 -.35938 Q .093750 -.32812 .078125 -.29688 Q .078125 -.28125 .062500 -.28125 Q .031250 -.28125 .031250 -.29688 Q .031250 -.31250 .039062 -.33594 Q .046875 -.35938 .070312 -.38281 Q .093750 -.40625 .12500 -.42969 Q .15625 -.45312 .18750 -.45312 Q .23438 -.45312 .26562 -.42969 Q .29688 -.40625 .29688 -.35938 Q .29688 -.34375 .28125 -.31250 Q .23438 -.15625 .23438 -.093750 Q .23438 -.031250 .28125 -.031250 Q .34375 -.031250 .39062 -.093750 Q .40625 -.10938 .40625 -.15625 Q .45312 -.34375 .46875 -.39062 Q .48438 -.42188 .50000 -.42969 Q .51562 -.43750 .53125 -.43750 Q .56250 -.43750 .57031 -.42969 Q .57812 -.42188 .57812 -.40625 Q .57812 -.39062 .56250 -.31250 z" />
            <title id="title194">$u$</title>
            <desc id="desc196">text3 = &quot;$u$&quot;</desc>
          </g>
        </g>
      </g>
      <g id="g198" transform="matrix(21.000, 0.0000, 0.0000, 21.000, 15.000, 22.333)">
        <clipPath id="clip17">
          <path id="path201" d="M -.71429 -1.0635 L -.71429 10.651 L 21.286 10.651 L 21.286 -1.0635 z" />
        </clipPath>
        <g id="g203" clip-path="url(#clip17)">
          <g id="g205" fill="#000000" stroke="none" fill-rule="nonzero" fill-opacity="1.0000">
            <path id="path207" d="M .57812 -.37500 L .48438 -0.0000 Q .46875 .093750 .38281 .14844 Q .29688 .20312 .20312 .20312 Q .14062 .20312 .10938 .17969 Q .078125 .15625 .078125 .10938 Q .078125 .078125 .093750 .054688 Q .10938 .031250 .14062 .031250 Q .15625 .031250 .17188 .046875 Q .18750 .062500 .18750 .078125 Q .18750 .12500 .14062 .15625 Q .17188 .17188 .20312 .17188 Q .26562 .17188 .31250 .11719 Q .35938 .062500 .37500 -.015625 Q .32812 .015625 .28125 .015625 Q .25000 .015625 .22656 .0078125 Q .20312 -0.0000 .17969 -.015625 Q .15625 -.031250 .14062 -.054688 Q .12500 -.078125 .12500 -.12500 Q .12500 -.15625 .14062 -.20312 Q .15625 -.25000 .18750 -.32812 Q .20312 -.37500 .20312 -.39062 Q .20312 -.40625 .19531 -.41406 Q .18750 -.42188 .18750 -.42188 Q .18750 -.42188 .18750 -.42188 Q .17188 -.42188 .16406 -.41406 Q .15625 -.40625 .14062 -.39844 Q .12500 -.39062 .10938 -.35938 Q .093750 -.32812 .078125 -.29688 Q .078125 -.28125 .062500 -.28125 Q .031250 -.28125 .031250 -.29688 Q .031250 -.31250 .039062 -.33594 Q .046875 -.35938 .070312 -.38281 Q .093750 -.40625 .12500 -.42969 Q .15625 -.45312 .18750 -.45312 Q .23438 -.45312 .26562 -.42969 Q .29688 -.40625 .29688 -.35938 Q .29688 -.34375 .28125 -.31250 Q .23438 -.15625 .23438 -.093750 Q .23438 -.031250 .28125 -.031250 Q .31250 -.031250 .35938 -.046875 Q .35938 -.046875 .36719 -.054688 Q .37500 -.062500 .38281 -.078125 Q .39062 -.093750 .39062 -.093750 Q .40625 -.12500 .43750 -.26562 L .46875 -.37500 Q .46875 -.39062 .46875 -.39844 Q .46875 -.40625 .47656 -.42188 Q .48438 -.43750 .50000 -.43750 Q .51562 -.43750 .53125 -.43750 Q .56250 -.43750 .57031 -.42969 Q .57812 -.42188 .57812 -.40625 Q .57812 -.39062 .57812 -.37500 z" />
            <title id="title209">$y$</title>
            <desc id="desc211">text4 = &quot;$y$&quot;</desc>
          </g>
        </g>
      </g>
      <g id="g213" transform="matrix(21.000, 0.0000, 0.0000, 21.000, 440.00, 218.33)">
        <clipPath id="clip18">
          <path id="path216" d="M -20.952 -10.397 L -20.952 1.3175 L 1.0476 1.3175 L 1.0476 -10.397 z" />
        </clipPath>
        <g id="g218" clip-path="url(#clip18)">
          <g id="g220" fill="#000000" stroke="none" fill-rule="nonzero" fill-opacity="1.0000">
            <path id="path222" d="M .53125 -.40625 Q .51562 -.42188 .48438 -.42188 Q .46875 -.42188 .43750 -.39844 Q .40625 -.37500 .40625 -.32812 Q .40625 -.31250 .39062 -.25781 Q .37500 -.20312 .37500 -.18750 Q .34375 -.093750 .34375 -.078125 Q .34375 -.031250 .40625 -.031250 Q .43750 -.031250 .48438 -.062500 Q .53125 -.093750 .54688 -.15625 Q .54688 -.15625 .56250 -.15625 Q .59375 -.15625 .59375 -.14844 Q .59375 -.14062 .57812 -.10938 Q .56250 -.078125 .53906 -.054688 Q .51562 -.031250 .47656 -.0078125 Q .43750 .015625 .39062 .015625 Q .29688 .015625 .26562 -.046875 Q .21875 .015625 .15625 .015625 Q .10938 .015625 .070312 -.015625 Q .031250 -.046875 .031250 -.078125 Q .031250 -.10938 .054688 -.13281 Q .078125 -.15625 .10938 -.15625 Q .14062 -.15625 .14844 -.14062 Q .15625 -.12500 .15625 -.10938 Q .15625 -.093750 .14062 -.070312 Q .12500 -.046875 .10938 -.046875 Q .12500 -.031250 .15625 -.031250 Q .18750 -.031250 .21094 -.054688 Q .23438 -.078125 .23438 -.12500 L .26562 -.25000 Q .29688 -.34375 .29688 -.35938 Q .29688 -.42188 .23438 -.42188 Q .20312 -.42188 .16406 -.39062 Q .12500 -.35938 .093750 -.29688 Q .093750 -.28125 .078125 -.28125 Q .046875 -.28125 .046875 -.29688 Q .046875 -.31250 .062500 -.33594 Q .078125 -.35938 .10156 -.38281 Q .12500 -.40625 .16406 -.42969 Q .20312 -.45312 .25000 -.45312 Q .34375 -.45312 .39062 -.39062 Q .42188 -.45312 .48438 -.45312 Q .53125 -.45312 .57031 -.42969 Q .60938 -.40625 .60938 -.35938 Q .60938 -.32812 .58594 -.30469 Q .56250 -.28125 .53125 -.28125 Q .51562 -.28125 .50000 -.29688 Q .48438 -.31250 .48438 -.32812 Q .48438 -.35938 .50000 -.37500 Q .51562 -.39062 .53125 -.40625 z" />
            <title id="title224">$x$</title>
            <desc id="desc226">text5 = &quot;$x$&quot;</desc>
          </g>
        </g>
      </g>
    </g>
    <g id="layer1">
      <clipPath id="clip19">
        <path id="path230" d="M 0.0000 0.0000 L 0.0000 246.00 L 462.00 246.00 L 462.00 0.0000 z" />
      </clipPath>
      <g id="g232" clip-path="url(#clip19)">
        <g id="g234" fill="#000000" stroke="none" fill-rule="nonzero" fill-opacity="1.0000">
          <path id="path236" d="M 353.23 229.33 Q 351.92 229.33 349.88 228.75 L 349.88 226.93 Q 352.08 227.95 353.49 227.95 Q 354.58 227.95 355.24 227.37 Q 355.91 226.80 355.91 225.87 Q 355.91 225.11 355.47 224.57 Q 355.04 224.03 353.87 223.38 L 352.97 222.86 Q 351.31 221.91 350.63 221.07 Q 349.95 220.23 349.95 219.11 Q 349.95 217.61 351.04 216.64 Q 352.13 215.67 353.82 215.67 Q 355.32 215.67 356.99 216.17 L 356.99 217.86 Q 354.93 217.05 353.92 217.05 Q 352.96 217.05 352.34 217.56 Q 351.72 218.07 351.72 218.84 Q 351.72 219.49 352.17 219.99 Q 352.63 220.49 353.84 221.19 L 354.77 221.71 Q 356.46 222.67 357.13 223.52 Q 357.80 224.38 357.80 225.57 Q 357.80 227.27 356.55 228.30 Q 355.29 229.33 353.23 229.33 z" />
          <title id="title238">S</title>
          <desc id="desc240">text1 = &quot;S&quot;</desc>
        </g>
      </g>
    </g>
    <g id="layer2" />
    <g id="layer3">
      <clipPath id="clip20">
        <path id="path245" d="M 0.0000 0.0000 L 0.0000 246.00 L 462.00 246.00 L 462.00 0.0000 z" />
      </clipPath>
      <g id="g247" clip-path="url(#clip20)">
        <g id="g249" stroke="#000000" stroke-opacity="1.0000" fill="none" stroke-linecap="butt" stroke-width="2.0000" stroke-dasharray="10.000,8.0000" stroke-linejoin="round">
          <path id="path251" d="M -65.875 281.72 C 110.08 110.12 286.04 110.12 462.00 281.72" />
          <title id="title253">Parabola d</title>
          <desc id="desc255">d: y = -0.14xÃ&#130;Â² + 0.58x</desc>
        </g>
      </g>
      <clipPath id="clip21">
        <path id="path258" d="M 0.0000 0.0000 L 0.0000 246.00 L 462.00 246.00 L 462.00 0.0000 z" />
      </clipPath>
      <g id="g260" clip-path="url(#clip21)">
        <g id="g262" fill="#000000" stroke="none" fill-rule="nonzero" fill-opacity="1.0000">
          <path id="path264" d="M -315.14 694.00 L -315.14 692.21 Q -316.20 694.22 -318.32 694.22 Q -320.05 694.22 -321.04 692.96 Q -322.02 691.71 -322.02 689.53 Q -322.02 687.14 -320.90 685.69 Q -319.78 684.24 -317.96 684.24 Q -316.26 684.24 -315.14 685.54 L -315.14 680.12 L -313.40 680.12 L -313.40 694.00 z M -315.14 686.73 Q -316.49 685.54 -317.69 685.54 Q -320.18 685.54 -320.18 689.35 Q -320.18 692.70 -317.96 692.70 Q -316.52 692.70 -315.14 691.13 z" />
          <title id="title266">Parabola d</title>
          <desc id="desc268">d: y = -0.14xÃ&#130;Â² + 0.58x</desc>
        </g>
      </g>
    </g>
  </g>
</svg>