<?xml version='1.0' ?><svg xmlns:dc="http://purl.org/dc/elements/1.1/" xmlns:cc="http://creativecommons.org/ns#" xmlns:rdf="http://www.w3.org/1999/02/22-rdf-syntax-ns#" xmlns:svg="http://www.w3.org/2000/svg" xmlns="http://www.w3.org/2000/svg" id="svg2" version="1.1" width="372.49996" height="197.30172" viewBox="0.0 1.5445766319463088 461.9999503892617 244.70709970469795" preserveAspectRatio="none">
  <metadata id="metadata463">
    <rdf:RDF>
      <cc:Work rdf:about="">
        <dc:format>image/svg+xml</dc:format>
        <dc:type rdf:resource="http://purl.org/dc/dcmitype/StillImage" />
      </cc:Work>
    </rdf:RDF>
  </metadata>
  <defs id="defs461" />
  <title id="title4" />
  <g id="g6" stroke-linecap="square" stroke-miterlimit="10.000" stroke-width="1.0000" stroke-dasharray="none" stroke-dashoffset="0.0000" stroke-linejoin="miter">
    <clipPath id="clip1">
      <path id="path9" d="M 0.0000 0.0000 L 0.0000 246.00 L 462.00 246.00 L 462.00 0.0000 z" />
    </clipPath>
    <g id="g11" clip-path="url(#clip1)">
      <g id="g13" stroke="#000000" stroke-opacity="1.0000" fill="none" stroke-linecap="butt" stroke-width="2.0000">
        <path id="path15" d="M 41.812 3.0000 L 41.812 246.00" />
      </g>
    </g>
    <clipPath id="clip2">
      <path id="path18" d="M 0.0000 0.0000 L 0.0000 246.00 L 462.00 246.00 L 462.00 0.0000 z" />
    </clipPath>
    <g id="g20" clip-path="url(#clip2)">
      <g id="g22" stroke="#000000" stroke-opacity="1.0000" fill="none" stroke-linecap="butt" stroke-width="2.0000">
        <path id="path24" d="M 41.812 2.0000 L 36.812 7.0000" />
      </g>
    </g>
    <clipPath id="clip3">
      <path id="path27" d="M 0.0000 0.0000 L 0.0000 246.00 L 462.00 246.00 L 462.00 0.0000 z" />
    </clipPath>
    <g id="g29" clip-path="url(#clip3)">
      <g id="g31" stroke="#000000" stroke-opacity="1.0000" fill="none" stroke-linecap="butt" stroke-width="2.0000">
        <path id="path33" d="M 41.812 2.0000 L 46.812 7.0000" />
      </g>
    </g>
    <clipPath id="clip4">
      <path id="path36" d="M 0.0000 0.0000 L 0.0000 246.00 L 462.00 246.00 L 462.00 0.0000 z" />
    </clipPath>
    <g id="g38" clip-path="url(#clip4)">
      <g id="g40" stroke="#000000" stroke-opacity="1.0000" fill="none" stroke-linecap="butt" stroke-width="2.0000">
        <path id="path42" d="M 0.0000 198.12 L 459.00 198.12" />
      </g>
    </g>
    <clipPath id="clip5">
      <path id="path45" d="M 0.0000 0.0000 L 0.0000 246.00 L 462.00 246.00 L 462.00 0.0000 z" />
    </clipPath>
    <g id="g47" clip-path="url(#clip5)">
      <g id="g49" stroke="#000000" stroke-opacity="1.0000" fill="none" stroke-linecap="butt" stroke-width="2.0000">
        <path id="path51" d="M 460.00 198.12 L 455.00 193.12" />
      </g>
    </g>
    <clipPath id="clip6">
      <path id="path54" d="M 0.0000 0.0000 L 0.0000 246.00 L 462.00 246.00 L 462.00 0.0000 z" />
    </clipPath>
    <g id="g56" clip-path="url(#clip6)">
      <g id="g58" stroke="#000000" stroke-opacity="1.0000" fill="none" stroke-linecap="butt" stroke-width="2.0000">
        <path id="path60" d="M 460.00 198.12 L 455.00 203.12" />
      </g>
    </g>
    <g id="misc" />
    <g id="layer0">
      <clipPath id="clip7">
        <path id="path65" d="M 0.0000 0.0000 L 0.0000 246.00 L 462.00 246.00 L 462.00 0.0000 z" />
      </clipPath>
      <g id="g67" clip-path="url(#clip7)">
        <g id="g69" stroke="#006400" stroke-opacity="1.0000" fill="none" stroke-width="4.0000">
          <path id="path71" d="M 159.00 190.12 L 175.00 206.12" />
          <title id="title73">Point S</title>
          <desc id="desc75">Point S: Point on xAxis</desc>
        </g>
      </g>
      <clipPath id="clip8">
        <path id="path78" d="M 0.0000 0.0000 L 0.0000 246.00 L 462.00 246.00 L 462.00 0.0000 z" />
      </clipPath>
      <g id="g80" clip-path="url(#clip8)">
        <g id="g82" stroke="#006400" stroke-opacity="1.0000" fill="none" stroke-width="4.0000">
          <path id="path84" d="M 159.00 206.12 L 175.00 190.12" />
          <title id="title86">Point S</title>
          <desc id="desc88">Point S: Point on xAxis</desc>
        </g>
      </g>
      <clipPath id="clip9">
        <path id="path91" d="M 0.0000 0.0000 L 0.0000 246.00 L 462.00 246.00 L 462.00 0.0000 z" />
      </clipPath>
      <g id="g93" clip-path="url(#clip9)">
        <g id="g95" fill="#000000" stroke="none" fill-rule="nonzero" fill-opacity="1.0000">
          <path id="path97" d="M 46.812 198.12 C 46.812 200.89 44.574 203.12 41.812 203.12 C 39.051 203.12 36.812 200.89 36.812 198.12 C 36.812 195.36 39.051 193.12 41.812 193.12 C 44.574 193.12 46.812 195.36 46.812 198.12 z" />
          <title id="title99">Point A</title>
          <desc id="desc101">Point A: Point on yAxis</desc>
        </g>
      </g>
      <clipPath id="clip10">
        <path id="path104" d="M 0.0000 0.0000 L 0.0000 246.00 L 462.00 246.00 L 462.00 0.0000 z" />
      </clipPath>
      <g id="g106" clip-path="url(#clip10)">
        <g id="g108" stroke="#000000" stroke-opacity="1.0000" fill="none" stroke-linecap="round" stroke-linejoin="round">
          <path id="path110" d="M 46.812 198.12 C 46.812 200.89 44.574 203.12 41.812 203.12 C 39.051 203.12 36.812 200.89 36.812 198.12 C 36.812 195.36 39.051 193.12 41.812 193.12 C 44.574 193.12 46.812 195.36 46.812 198.12 z" />
          <title id="title112">Point A</title>
          <desc id="desc114">Point A: Point on yAxis</desc>
        </g>
      </g>
      <g id="g116" transform="matrix(21.000, 0.0000, 0.0000, 21.000, 70.000, 166.63)">
        <clipPath id="clip11">
          <path id="path119" d="M -3.3333 -7.9349 L -3.3333 3.7794 L 18.667 3.7794 L 18.667 -7.9349 z" />
        </clipPath>
        <g id="g121" clip-path="url(#clip11)">
          <g id="g123" fill="#000000" stroke="none" fill-rule="nonzero" fill-opacity="1.0000">
            <path id="path125" d="M .57812 -.15625 Q .57812 -.031250 .60938 -.031250 Q .60938 -.031250 .61719 -.031250 Q .62500 -.031250 .64062 -.039062 Q .65625 -.046875 .65625 -.062500 Q .65625 -.062500 .66406 -.070312 Q .67188 -.078125 .68750 -.078125 Q .70312 -.078125 .70312 -.062500 Q .70312 -.031250 .67188 -.0078125 Q .64062 .015625 .60938 .015625 Q .56250 .015625 .53125 -.0078125 Q .50000 -.031250 .48438 -.078125 Q .37500 .015625 .25000 .015625 Q .15625 .015625 .10156 -.031250 Q .046875 -.078125 .046875 -.17188 Q .046875 -.21875 .070312 -.26562 Q .093750 -.31250 .12500 -.35938 Q .15625 -.40625 .21875 -.42969 Q .28125 -.45312 .35938 -.45312 Q .46875 -.45312 .53125 -.39062 Q .54688 -.35938 .56250 -.32812 Q .57812 -.29688 .57812 -.28125 Q .57812 -.26562 .57812 -.23438 Q .62500 -.29688 .65625 -.37500 Q .65625 -.39062 .65625 -.39844 Q .65625 -.40625 .67188 -.40625 Q .70312 -.40625 .70312 -.39062 Q .70312 -.37500 .67188 -.30469 Q .64062 -.23438 .57812 -.15625 z M .26562 -.031250 Q .31250 -.031250 .39062 -.062500 Q .40625 -.062500 .43750 -.085938 Q .46875 -.10938 .46875 -.10938 Q .46875 -.12500 .46875 -.16406 Q .46875 -.20312 .46875 -.20312 Q .46875 -.25000 .46094 -.28125 Q .45312 -.31250 .44531 -.34375 Q .43750 -.37500 .41406 -.39844 Q .39062 -.42188 .35938 -.42188 Q .31250 -.42188 .27344 -.39844 Q .23438 -.37500 .21875 -.32812 Q .18750 -.28125 .17188 -.21875 Q .15625 -.15625 .15625 -.12500 Q .15625 -.078125 .18750 -.054688 Q .21875 -.031250 .26562 -.031250 z" />
            <title id="title127">$\alpha=80^{\circ}$</title>
            <desc id="desc129">text2 = &quot;$\alpha=80^{\circ}$&quot;</desc>
          </g>
        </g>
      </g>
      <g id="g131" transform="matrix(21.000, 0.0000, 0.0000, 21.000, 91.807, 166.63)">
        <clipPath id="clip12">
          <path id="path134" d="M -4.3718 -7.9349 L -4.3718 3.7794 L 17.628 3.7794 L 17.628 -7.9349 z" />
        </clipPath>
        <g id="g136" clip-path="url(#clip12)">
          <g id="g138" fill="#000000" stroke="none" fill-rule="nonzero" fill-opacity="1.0000">
            <path id="path140" d="M .78125 -.32812 L .10938 -.32812 Q .062500 -.32812 .062500 -.35938 Q .062500 -.39062 .10938 -.39062 L .78125 -.39062 Q .82812 -.39062 .82812 -.35938 Q .82812 -.32812 .78125 -.32812 z M .78125 -.10938 L .10938 -.10938 Q .062500 -.10938 .062500 -.14062 Q .062500 -.17188 .10938 -.17188 L .78125 -.17188 Q .82812 -.17188 .82812 -.14062 Q .82812 -.10938 .78125 -.10938 z" />
            <title id="title142">$\alpha=80^{\circ}$</title>
            <desc id="desc144">text2 = &quot;$\alpha=80^{\circ}$&quot;</desc>
          </g>
        </g>
      </g>
      <g id="g146" transform="matrix(21.000, 0.0000, 0.0000, 21.000, 116.42, 166.63)">
        <clipPath id="clip13">
          <path id="path149" d="M -5.5440 -7.9349 L -5.5440 3.7794 L 16.456 3.7794 L 16.456 -7.9349 z" />
        </clipPath>
        <g id="g151" clip-path="url(#clip13)">
          <g id="g153" fill="#000000" stroke="none" fill-rule="nonzero" fill-opacity="1.0000">
            <path id="path155" d="M .20312 -.48438 L .34375 -.39062 Q .42188 -.43750 .42188 -.50000 Q .42188 -.56250 .38281 -.58594 Q .34375 -.60938 .28125 -.60938 Q .26562 -.60938 .25000 -.60938 Q .23438 -.60938 .21094 -.60156 Q .18750 -.59375 .17188 -.57812 Q .15625 -.56250 .15625 -.53125 Q .15625 -.50000 .20312 -.48438 z M .39062 -.37500 Q .42188 -.35938 .43750 -.34375 Q .45312 -.32812 .47656 -.30469 Q .50000 -.28125 .51562 -.25000 Q .53125 -.21875 .53125 -.18750 Q .53125 -.093750 .46875 -.039062 Q .40625 .015625 .28125 .015625 Q .18750 .015625 .11719 -.031250 Q .046875 -.078125 .046875 -.15625 Q .046875 -.26562 .17188 -.32812 Q .078125 -.39062 .078125 -.48438 Q .078125 -.56250 .13281 -.60938 Q .18750 -.65625 .28125 -.65625 Q .37500 -.65625 .43750 -.61719 Q .50000 -.57812 .50000 -.51562 Q .50000 -.42188 .39062 -.37500 z M .21875 -.29688 Q .14062 -.25000 .14062 -.15625 Q .14062 -.10938 .17969 -.070312 Q .21875 -.031250 .28125 -.031250 Q .32812 -.031250 .35938 -.039062 Q .39062 -.046875 .41406 -.070312 Q .43750 -.093750 .43750 -.12500 Q .43750 -.15625 .42969 -.17188 Q .42188 -.18750 .40625 -.19531 Q .39062 -.20312 .35938 -.21875 Q .25000 -.28125 .21875 -.29688 z" />
            <title id="title157">$\alpha=80^{\circ}$</title>
            <desc id="desc159">text2 = &quot;$\alpha=80^{\circ}$&quot;</desc>
          </g>
        </g>
      </g>
      <g id="g161" transform="matrix(21.000, 0.0000, 0.0000, 21.000, 128.50, 166.63)">
        <clipPath id="clip14">
          <path id="path164" d="M -6.1190 -7.9349 L -6.1190 3.7794 L 15.881 3.7794 L 15.881 -7.9349 z" />
        </clipPath>
        <g id="g166" clip-path="url(#clip14)">
          <g id="g168" fill="#000000" stroke="none" fill-rule="nonzero" fill-opacity="1.0000">
            <path id="path170" d="M .53125 -.31250 Q .53125 -.28125 .53125 -.26562 Q .53125 -.25000 .52344 -.21094 Q .51562 -.17188 .50781 -.14844 Q .50000 -.12500 .48438 -.093750 Q .46875 -.062500 .44531 -.039062 Q .42188 -.015625 .38281 -0.0000 Q .34375 .015625 .28125 .015625 Q .23438 .015625 .19531 -0.0000 Q .15625 -.015625 .13281 -.039062 Q .10938 -.062500 .093750 -.093750 Q .078125 -.12500 .070312 -.14844 Q .062500 -.17188 .054688 -.21094 Q .046875 -.25000 .046875 -.26562 Q .046875 -.28125 .046875 -.31250 Q .046875 -.34375 .046875 -.36719 Q .046875 -.39062 .054688 -.42969 Q .062500 -.46875 .070312 -.49219 Q .078125 -.51562 .093750 -.55469 Q .10938 -.59375 .13281 -.60938 Q .15625 -.62500 .19531 -.64062 Q .23438 -.65625 .28906 -.65625 Q .34375 -.65625 .38281 -.64062 Q .42188 -.62500 .44531 -.60938 Q .46875 -.59375 .48438 -.55469 Q .50000 -.51562 .50781 -.49219 Q .51562 -.46875 .52344 -.42969 Q .53125 -.39062 .53125 -.36719 Q .53125 -.34375 .53125 -.31250 z M .28125 -.031250 Q .31250 -.031250 .32812 -.031250 Q .34375 -.031250 .36719 -.062500 Q .39062 -.093750 .39062 -.12500 Q .40625 -.18750 .40625 -.32812 Q .40625 -.51562 .39062 -.56250 Q .37500 -.59375 .34375 -.60938 Q .31250 -.62500 .28125 -.62500 Q .26562 -.62500 .25000 -.61719 Q .23438 -.60938 .21094 -.58594 Q .18750 -.56250 .18750 -.51562 Q .17188 -.46875 .17188 -.32812 Q .17188 -.17188 .18750 -.12500 Q .18750 -.078125 .21875 -.054688 Q .25000 -.031250 .28125 -.031250 z" />
            <title id="title172">$\alpha=80^{\circ}$</title>
            <desc id="desc174">text2 = &quot;$\alpha=80^{\circ}$&quot;</desc>
          </g>
        </g>
      </g>
      <g id="g176" transform="matrix(14.700, 0.0000, 0.0000, 14.700, 140.57, 157.96)">
        <clipPath id="clip15">
          <path id="path179" d="M -9.5628 -10.746 L -9.5628 5.9890 L 21.866 5.9890 L 21.866 -10.746 z" />
        </clipPath>
        <g id="g181" clip-path="url(#clip15)">
          <g id="g183" fill="#000000" stroke="none" fill-rule="nonzero" fill-opacity="1.0000">
            <path id="path185" d="M .51562 -.25000 Q .51562 -.15625 .45312 -.093750 Q .39062 -.031250 .28125 -.031250 Q .18750 -.031250 .12500 -.093750 Q .062500 -.15625 .062500 -.25000 Q .062500 -.34375 .12500 -.40625 Q .18750 -.46875 .28125 -.46875 Q .39062 -.46875 .45312 -.41406 Q .51562 -.35938 .51562 -.25000 z M .28125 -.093750 Q .35938 -.093750 .40625 -.13281 Q .45312 -.17188 .45312 -.25000 Q .45312 -.32812 .40625 -.36719 Q .35938 -.40625 .28125 -.40625 Q .21875 -.40625 .17188 -.36719 Q .12500 -.32812 .12500 -.25000 Q .12500 -.17188 .17188 -.13281 Q .21875 -.093750 .28125 -.093750 z" />
            <title id="title187">$\alpha=80^{\circ}$</title>
            <desc id="desc189">text2 = &quot;$\alpha=80^{\circ}$&quot;</desc>
          </g>
        </g>
      </g>
      <g id="g191" transform="matrix(21.000, 0.0000, 0.0000, 21.000, 68.000, 110.14)">
        <clipPath id="clip16">
          <path id="path194" d="M -3.2381 -5.2450 L -3.2381 6.4693 L 18.762 6.4693 L 18.762 -5.2450 z" />
        </clipPath>
        <g id="g196" clip-path="url(#clip16)">
          <g id="g198" fill="#000000" stroke="none" fill-rule="nonzero" fill-opacity="1.0000">
            <path id="path200" d="M .56250 -.31250 L .54688 -.23438 Q .53125 -.20312 .51562 -.14062 Q .50000 -.078125 .50000 -.062500 Q .50000 -.031250 .53125 -.031250 Q .56250 -.031250 .59375 -.12500 Q .60938 -.15625 .60938 -.15625 Q .60938 -.15625 .62500 -.15625 Q .64062 -.15625 .64062 -.14062 Q .64062 -.14062 .63281 -.10938 Q .62500 -.078125 .60938 -.046875 Q .57812 .015625 .51562 .015625 Q .43750 .015625 .40625 -.046875 Q .34375 .015625 .28125 .015625 Q .25000 .015625 .22656 .0078125 Q .20312 -0.0000 .17969 -.015625 Q .15625 -.031250 .14062 -.054688 Q .12500 -.078125 .12500 -.12500 Q .12500 -.18750 .18750 -.32812 Q .20312 -.37500 .20312 -.39062 Q .20312 -.40625 .19531 -.41406 Q .18750 -.42188 .18750 -.42188 Q .18750 -.42188 .18750 -.42188 Q .17188 -.42188 .16406 -.41406 Q .15625 -.40625 .14062 -.39844 Q .12500 -.39062 .10938 -.35938 Q .093750 -.32812 .078125 -.29688 Q .078125 -.28125 .062500 -.28125 Q .031250 -.28125 .031250 -.29688 Q .031250 -.31250 .039062 -.33594 Q .046875 -.35938 .070312 -.38281 Q .093750 -.40625 .12500 -.42969 Q .15625 -.45312 .18750 -.45312 Q .23438 -.45312 .26562 -.42969 Q .29688 -.40625 .29688 -.35938 Q .29688 -.34375 .28125 -.31250 Q .23438 -.15625 .23438 -.093750 Q .23438 -.031250 .28125 -.031250 Q .34375 -.031250 .39062 -.093750 Q .40625 -.10938 .40625 -.15625 Q .45312 -.34375 .46875 -.39062 Q .48438 -.42188 .50000 -.42969 Q .51562 -.43750 .53125 -.43750 Q .56250 -.43750 .57031 -.42969 Q .57812 -.42188 .57812 -.40625 Q .57812 -.39062 .56250 -.31250 z" />
            <title id="title202">$u=5ms^{-1}$</title>
            <desc id="desc204">text3 = &quot;$u=5ms^{-1}$&quot;</desc>
          </g>
        </g>
      </g>
      <g id="g206" transform="matrix(21.000, 0.0000, 0.0000, 21.000, 88.135, 110.14)">
        <clipPath id="clip17">
          <path id="path209" d="M -4.1969 -5.2450 L -4.1969 6.4693 L 17.803 6.4693 L 17.803 -5.2450 z" />
        </clipPath>
        <g id="g211" clip-path="url(#clip17)">
          <g id="g213" fill="#000000" stroke="none" fill-rule="nonzero" fill-opacity="1.0000">
            <path id="path215" d="M .78125 -.32812 L .10938 -.32812 Q .062500 -.32812 .062500 -.35938 Q .062500 -.39062 .10938 -.39062 L .78125 -.39062 Q .82812 -.39062 .82812 -.35938 Q .82812 -.32812 .78125 -.32812 z M .78125 -.10938 L .10938 -.10938 Q .062500 -.10938 .062500 -.14062 Q .062500 -.17188 .10938 -.17188 L .78125 -.17188 Q .82812 -.17188 .82812 -.14062 Q .82812 -.10938 .78125 -.10938 z" />
            <title id="title217">$u=5ms^{-1}$</title>
            <desc id="desc219">text3 = &quot;$u=5ms^{-1}$&quot;</desc>
          </g>
        </g>
      </g>
      <g id="g221" transform="matrix(21.000, 0.0000, 0.0000, 21.000, 112.75, 110.14)">
        <clipPath id="clip18">
          <path id="path224" d="M -5.3691 -5.2450 L -5.3691 6.4693 L 16.631 6.4693 L 16.631 -5.2450 z" />
        </clipPath>
        <g id="g226" clip-path="url(#clip18)">
          <g id="g228" fill="#000000" stroke="none" fill-rule="nonzero" fill-opacity="1.0000">
            <path id="path230" d="M .51562 -.20312 Q .51562 -.10938 .44531 -.046875 Q .37500 .015625 .26562 .015625 Q .17188 .015625 .11719 -.039062 Q .062500 -.093750 .062500 -.15625 Q .062500 -.18750 .078125 -.20312 Q .093750 -.21875 .10156 -.22656 Q .10938 -.23438 .12500 -.23438 Q .14062 -.23438 .16406 -.21875 Q .18750 -.20312 .18750 -.15625 Q .18750 -.12500 .17188 -.10938 Q .15625 -.093750 .12500 -.093750 Q .17188 -.031250 .25000 -.031250 Q .28125 -.031250 .29688 -.039062 Q .31250 -.046875 .32812 -.054688 Q .34375 -.062500 .35156 -.078125 Q .35938 -.093750 .36719 -.10938 Q .37500 -.12500 .37500 -.14062 Q .37500 -.15625 .37500 -.17188 Q .37500 -.18750 .37500 -.20312 Q .37500 -.23438 .37500 -.25000 Q .37500 -.26562 .36719 -.29688 Q .35938 -.32812 .35156 -.33594 Q .34375 -.34375 .32812 -.35938 Q .31250 -.37500 .28125 -.37500 Q .20312 -.37500 .15625 -.31250 Q .14062 -.31250 .12500 -.31250 Q .12500 -.31250 .11719 -.31250 Q .10938 -.31250 .10938 -.32031 Q .10938 -.32812 .10938 -.34375 L .10938 -.62500 Q .10938 -.64062 .10938 -.64062 Q .10938 -.64062 .10938 -.64844 Q .10938 -.65625 .12500 -.65625 Q .12500 -.65625 .14062 -.65625 Q .21875 -.62500 .29688 -.62500 Q .37500 -.62500 .43750 -.65625 Q .45312 -.65625 .45312 -.65625 Q .46875 -.65625 .46875 -.64062 Q .46875 -.62500 .45312 -.60156 Q .43750 -.57812 .40625 -.55469 Q .37500 -.53125 .32812 -.51562 Q .28125 -.50000 .23438 -.50000 Q .20312 -.50000 .15625 -.50000 L .15625 -.37500 Q .21875 -.40625 .29688 -.40625 Q .39062 -.40625 .45312 -.35156 Q .51562 -.29688 .51562 -.20312 z" />
            <title id="title232">$u=5ms^{-1}$</title>
            <desc id="desc234">text3 = &quot;$u=5ms^{-1}$&quot;</desc>
          </g>
        </g>
      </g>
      <g id="g236" transform="matrix(21.000, 0.0000, 0.0000, 21.000, 124.83, 110.14)">
        <clipPath id="clip19">
          <path id="path239" d="M -5.9441 -5.2450 L -5.9441 6.4693 L 16.056 6.4693 L 16.056 -5.2450 z" />
        </clipPath>
        <g id="g241" clip-path="url(#clip19)">
          <g id="g243" fill="#000000" stroke="none" fill-rule="nonzero" fill-opacity="1.0000">
            <path id="path245" d="M .43750 -.10938 L .46875 -.29688 Q .48438 -.32812 .48438 -.35938 Q .48438 -.42188 .43750 -.42188 Q .39062 -.42188 .32812 -.37500 Q .31250 -.35938 .28906 -.33594 Q .26562 -.31250 .26562 -.29688 Q .26562 -.29688 .25781 -.24219 Q .25000 -.18750 .23438 -.18750 Q .23438 -.12500 .21875 -.062500 Q .20312 -.046875 .20312 -.039062 Q .20312 -.031250 .19531 -.015625 Q .18750 -0.0000 .17188 .0078125 Q .15625 .015625 .14062 .015625 Q .12500 .015625 .10938 -0.0000 Q .093750 -.015625 .093750 -.031250 Q .093750 -.031250 .10938 -.078125 L .14062 -.21875 Q .14062 -.23438 .15625 -.31250 Q .17188 -.35938 .17188 -.37500 Q .17188 -.42188 .15625 -.42188 Q .10938 -.42188 .078125 -.31250 Q .078125 -.28125 .078125 -.28125 Q .078125 -.28125 .062500 -.28125 Q .031250 -.28125 .031250 -.29688 Q .031250 -.29688 .039062 -.33594 Q .046875 -.37500 .062500 -.39062 Q .10938 -.45312 .15625 -.45312 Q .20312 -.45312 .23438 -.42969 Q .26562 -.40625 .28125 -.37500 Q .34375 -.45312 .43750 -.45312 Q .50000 -.45312 .54688 -.43750 Q .57812 -.40625 .59375 -.35938 Q .67188 -.45312 .76562 -.45312 Q .82812 -.45312 .86719 -.42969 Q .90625 -.40625 .90625 -.34375 Q .90625 -.28125 .84375 -.12500 Q .82812 -.078125 .82812 -.046875 Q .82812 -.031250 .83594 -.031250 Q .84375 -.031250 .84375 -.031250 Q .84375 -.031250 .84375 -.031250 Q .85938 -.031250 .86719 -.031250 Q .87500 -.031250 .89062 -.046875 Q .90625 -.062500 .92188 -.085938 Q .93750 -.10938 .95312 -.15625 Q .95312 -.15625 .96875 -.15625 Q 1.0000 -.15625 1.0000 -.14062 Q 1.0000 -.14062 .99219 -.11719 Q .98438 -.093750 .96094 -.062500 Q .93750 -.031250 .90625 -.0078125 Q .87500 .015625 .84375 .015625 Q .79688 .015625 .76562 -.015625 Q .73438 -.046875 .73438 -.078125 Q .73438 -.093750 .75000 -.14062 Q .81250 -.29688 .81250 -.35938 Q .81250 -.42188 .75000 -.42188 Q .67188 -.42188 .60938 -.32812 Q .59375 -.29688 .59375 -.28125 Q .53125 -.046875 .53125 -.031250 Q .50000 .015625 .46875 .015625 Q .43750 .015625 .42188 -0.0000 Q .40625 -.015625 .40625 -.031250 Q .40625 -.031250 .43750 -.10938 z" />
            <title id="title247">$u=5ms^{-1}$</title>
            <desc id="desc249">text3 = &quot;$u=5ms^{-1}$&quot;</desc>
          </g>
        </g>
      </g>
      <g id="g251" transform="matrix(21.000, 0.0000, 0.0000, 21.000, 146.51, 110.14)">
        <clipPath id="clip20">
          <path id="path254" d="M -6.9765 -5.2450 L -6.9765 6.4693 L 15.023 6.4693 L 15.023 -5.2450 z" />
        </clipPath>
        <g id="g256" clip-path="url(#clip20)">
          <g id="g258" fill="#000000" stroke="none" fill-rule="nonzero" fill-opacity="1.0000">
            <path id="path260" d="M .40625 -.39062 Q .39062 -.42188 .32812 -.42188 Q .29688 -.42188 .26562 -.40625 Q .23438 -.39062 .22656 -.37500 Q .21875 -.35938 .21875 -.35156 Q .21875 -.34375 .21875 -.34375 Q .21875 -.32812 .23438 -.31250 Q .25000 -.29688 .26562 -.29688 Q .28125 -.29688 .31250 -.28125 Q .39062 -.26562 .42188 -.25000 Q .45312 -.20312 .45312 -.15625 Q .45312 -.15625 .45312 -.14844 Q .45312 -.14062 .44531 -.11719 Q .43750 -.093750 .42188 -.078125 Q .40625 -.062500 .38281 -.039062 Q .35938 -.015625 .32031 -0.0000 Q .28125 .015625 .23438 .015625 Q .15625 .015625 .10938 -.015625 Q .062500 -.046875 .062500 -.093750 Q .062500 -.12500 .078125 -.14844 Q .093750 -.17188 .12500 -.17188 Q .14062 -.17188 .15625 -.15625 Q .17188 -.14062 .17188 -.12500 Q .17188 -.093750 .15625 -.078125 Q .14062 -.062500 .12500 -.046875 Q .15625 -.031250 .23438 -.031250 Q .28125 -.031250 .31250 -.046875 Q .34375 -.062500 .35938 -.078125 Q .37500 -.093750 .37500 -.10156 Q .37500 -.10938 .37500 -.12500 Q .37500 -.17188 .29688 -.18750 Q .23438 -.18750 .21875 -.19531 Q .20312 -.20312 .17188 -.21875 Q .14062 -.25000 .14062 -.29688 Q .14062 -.32812 .15625 -.35938 Q .17188 -.39062 .20312 -.42188 Q .25000 -.45312 .32812 -.45312 Q .40625 -.45312 .43750 -.42969 Q .46875 -.40625 .46875 -.35938 Q .46875 -.32812 .45312 -.31250 Q .43750 -.29688 .42188 -.29688 Q .39062 -.29688 .38281 -.30469 Q .37500 -.31250 .37500 -.34375 Q .37500 -.34375 .38281 -.36719 Q .39062 -.39062 .40625 -.39062 z" />
            <title id="title262">$u=5ms^{-1}$</title>
            <desc id="desc264">text3 = &quot;$u=5ms^{-1}$&quot;</desc>
          </g>
        </g>
      </g>
      <g id="g266" transform="matrix(14.700, 0.0000, 0.0000, 14.700, 157.66, 101.47)">
        <clipPath id="clip21">
          <path id="path269" d="M -10.725 -6.9029 L -10.725 9.8317 L 20.703 9.8317 L 20.703 -6.9029 z" />
        </clipPath>
        <g id="g271" clip-path="url(#clip21)">
          <g id="g273" fill="#000000" stroke="none" fill-rule="nonzero" fill-opacity="1.0000">
            <path id="path275" d="M .75000 -.21875 L .14062 -.21875 Q .093750 -.21875 .093750 -.25000 Q .093750 -.28125 .14062 -.28125 L .75000 -.28125 Q .79688 -.28125 .79688 -.25000 Q .79688 -.21875 .75000 -.21875 z" />
            <title id="title277">$u=5ms^{-1}$</title>
            <desc id="desc279">text3 = &quot;$u=5ms^{-1}$&quot;</desc>
          </g>
        </g>
      </g>
      <g id="g281" transform="matrix(14.700, 0.0000, 0.0000, 14.700, 170.81, 101.47)">
        <clipPath id="clip22">
          <path id="path284" d="M -11.620 -6.9029 L -11.620 9.8317 L 19.809 9.8317 L 19.809 -6.9029 z" />
        </clipPath>
        <g id="g286" clip-path="url(#clip22)">
          <g id="g288" fill="#000000" stroke="none" fill-rule="nonzero" fill-opacity="1.0000">
            <path id="path290" d="M .35938 -.62500 L .35938 -.046875 L .50000 -.046875 L .50000 -0.0000 Q .45312 -0.0000 .29688 -0.0000 Q .14062 -0.0000 .093750 -0.0000 L .093750 -.046875 L .23438 -.046875 L .23438 -.56250 Q .17188 -.54688 .10938 -.54688 L .078125 -.54688 L .078125 -.59375 L .10938 -.59375 Q .23438 -.59375 .31250 -.64062 Q .31250 -.65625 .32812 -.65625 Q .34375 -.65625 .35156 -.64844 Q .35938 -.64062 .35938 -.62500 z" />
            <title id="title292">$u=5ms^{-1}$</title>
            <desc id="desc294">text3 = &quot;$u=5ms^{-1}$&quot;</desc>
          </g>
        </g>
      </g>
      <g id="g296" transform="matrix(21.000, 0.0000, 0.0000, 21.000, 15.000, 22.333)">
        <clipPath id="clip23">
          <path id="path299" d="M -.71429 -1.0635 L -.71429 10.651 L 21.286 10.651 L 21.286 -1.0635 z" />
        </clipPath>
        <g id="g301" clip-path="url(#clip23)">
          <g id="g303" fill="#000000" stroke="none" fill-rule="nonzero" fill-opacity="1.0000">
            <path id="path305" d="M .57812 -.37500 L .48438 -0.0000 Q .46875 .093750 .38281 .14844 Q .29688 .20312 .20312 .20312 Q .14062 .20312 .10938 .17969 Q .078125 .15625 .078125 .10938 Q .078125 .078125 .093750 .054688 Q .10938 .031250 .14062 .031250 Q .15625 .031250 .17188 .046875 Q .18750 .062500 .18750 .078125 Q .18750 .12500 .14062 .15625 Q .17188 .17188 .20312 .17188 Q .26562 .17188 .31250 .11719 Q .35938 .062500 .37500 -.015625 Q .32812 .015625 .28125 .015625 Q .25000 .015625 .22656 .0078125 Q .20312 -0.0000 .17969 -.015625 Q .15625 -.031250 .14062 -.054688 Q .12500 -.078125 .12500 -.12500 Q .12500 -.15625 .14062 -.20312 Q .15625 -.25000 .18750 -.32812 Q .20312 -.37500 .20312 -.39062 Q .20312 -.40625 .19531 -.41406 Q .18750 -.42188 .18750 -.42188 Q .18750 -.42188 .18750 -.42188 Q .17188 -.42188 .16406 -.41406 Q .15625 -.40625 .14062 -.39844 Q .12500 -.39062 .10938 -.35938 Q .093750 -.32812 .078125 -.29688 Q .078125 -.28125 .062500 -.28125 Q .031250 -.28125 .031250 -.29688 Q .031250 -.31250 .039062 -.33594 Q .046875 -.35938 .070312 -.38281 Q .093750 -.40625 .12500 -.42969 Q .15625 -.45312 .18750 -.45312 Q .23438 -.45312 .26562 -.42969 Q .29688 -.40625 .29688 -.35938 Q .29688 -.34375 .28125 -.31250 Q .23438 -.15625 .23438 -.093750 Q .23438 -.031250 .28125 -.031250 Q .31250 -.031250 .35938 -.046875 Q .35938 -.046875 .36719 -.054688 Q .37500 -.062500 .38281 -.078125 Q .39062 -.093750 .39062 -.093750 Q .40625 -.12500 .43750 -.26562 L .46875 -.37500 Q .46875 -.39062 .46875 -.39844 Q .46875 -.40625 .47656 -.42188 Q .48438 -.43750 .50000 -.43750 Q .51562 -.43750 .53125 -.43750 Q .56250 -.43750 .57031 -.42969 Q .57812 -.42188 .57812 -.40625 Q .57812 -.39062 .57812 -.37500 z" />
            <title id="title307">$y$</title>
            <desc id="desc309">text4 = &quot;$y$&quot;</desc>
          </g>
        </g>
      </g>
      <g id="g311" transform="matrix(21.000, 0.0000, 0.0000, 21.000, 440.00, 218.33)">
        <clipPath id="clip24">
          <path id="path314" d="M -20.952 -10.397 L -20.952 1.3175 L 1.0476 1.3175 L 1.0476 -10.397 z" />
        </clipPath>
        <g id="g316" clip-path="url(#clip24)">
          <g id="g318" fill="#000000" stroke="none" fill-rule="nonzero" fill-opacity="1.0000">
            <path id="path320" d="M .53125 -.40625 Q .51562 -.42188 .48438 -.42188 Q .46875 -.42188 .43750 -.39844 Q .40625 -.37500 .40625 -.32812 Q .40625 -.31250 .39062 -.25781 Q .37500 -.20312 .37500 -.18750 Q .34375 -.093750 .34375 -.078125 Q .34375 -.031250 .40625 -.031250 Q .43750 -.031250 .48438 -.062500 Q .53125 -.093750 .54688 -.15625 Q .54688 -.15625 .56250 -.15625 Q .59375 -.15625 .59375 -.14844 Q .59375 -.14062 .57812 -.10938 Q .56250 -.078125 .53906 -.054688 Q .51562 -.031250 .47656 -.0078125 Q .43750 .015625 .39062 .015625 Q .29688 .015625 .26562 -.046875 Q .21875 .015625 .15625 .015625 Q .10938 .015625 .070312 -.015625 Q .031250 -.046875 .031250 -.078125 Q .031250 -.10938 .054688 -.13281 Q .078125 -.15625 .10938 -.15625 Q .14062 -.15625 .14844 -.14062 Q .15625 -.12500 .15625 -.10938 Q .15625 -.093750 .14062 -.070312 Q .12500 -.046875 .10938 -.046875 Q .12500 -.031250 .15625 -.031250 Q .18750 -.031250 .21094 -.054688 Q .23438 -.078125 .23438 -.12500 L .26562 -.25000 Q .29688 -.34375 .29688 -.35938 Q .29688 -.42188 .23438 -.42188 Q .20312 -.42188 .16406 -.39062 Q .12500 -.35938 .093750 -.29688 Q .093750 -.28125 .078125 -.28125 Q .046875 -.28125 .046875 -.29688 Q .046875 -.31250 .062500 -.33594 Q .078125 -.35938 .10156 -.38281 Q .12500 -.40625 .16406 -.42969 Q .20312 -.45312 .25000 -.45312 Q .34375 -.45312 .39062 -.39062 Q .42188 -.45312 .48438 -.45312 Q .53125 -.45312 .57031 -.42969 Q .60938 -.40625 .60938 -.35938 Q .60938 -.32812 .58594 -.30469 Q .56250 -.28125 .53125 -.28125 Q .51562 -.28125 .50000 -.29688 Q .48438 -.31250 .48438 -.32812 Q .48438 -.35938 .50000 -.37500 Q .51562 -.39062 .53125 -.40625 z" />
            <title id="title322">$x$</title>
            <desc id="desc324">text5 = &quot;$x$&quot;</desc>
          </g>
        </g>
      </g>
    </g>
    <g id="layer1">
      <clipPath id="clip25">
        <path id="path328" d="M 0.0000 0.0000 L 0.0000 246.00 L 462.00 246.00 L 462.00 0.0000 z" />
      </clipPath>
      <g id="g330" clip-path="url(#clip25)">
        <g id="g332" fill="#000000" stroke="none" fill-rule="nonzero" fill-opacity="1.0000">
          <path id="path334" d="M 159.64 226.33 Q 157.63 226.33 156.39 224.43 Q 155.14 222.54 155.14 219.49 Q 155.14 216.41 156.40 214.54 Q 157.65 212.67 159.70 212.67 Q 161.74 212.67 163.00 214.54 Q 164.25 216.41 164.25 219.46 Q 164.25 222.59 163.00 224.46 Q 161.74 226.33 159.64 226.33 z M 159.66 225.02 Q 162.41 225.02 162.41 219.43 Q 162.41 213.97 159.70 213.97 Q 156.99 213.97 156.99 219.49 Q 156.99 225.02 159.66 225.02 z M 167.14 226.00 L 167.14 223.83 L 169.31 223.83 L 169.31 226.00 z M 175.22 218.92 Q 173.31 217.59 173.31 215.98 Q 173.31 214.50 174.39 213.58 Q 175.47 212.66 177.21 212.66 Q 178.82 212.66 179.82 213.44 Q 180.82 214.22 180.82 215.47 Q 180.82 217.36 178.39 218.92 Q 181.33 220.36 181.33 222.63 Q 181.33 224.27 180.10 225.30 Q 178.86 226.33 176.91 226.33 Q 175.00 226.33 173.81 225.35 Q 172.63 224.38 172.63 222.80 Q 172.63 220.46 175.22 218.92 z M 177.42 218.37 Q 179.24 217.18 179.24 215.71 Q 179.24 214.93 178.64 214.45 Q 178.03 213.97 177.04 213.97 Q 176.08 213.97 175.48 214.44 Q 174.88 214.91 174.88 215.66 Q 174.88 216.38 175.42 216.96 Q 175.96 217.54 177.42 218.37 z M 176.16 219.62 Q 175.11 220.43 174.74 221.03 Q 174.36 221.63 174.36 222.53 Q 174.36 223.64 175.08 224.33 Q 175.81 225.02 176.98 225.02 Q 178.12 225.02 178.83 224.44 Q 179.55 223.85 179.55 222.91 Q 179.55 222.15 179.11 221.63 Q 178.66 221.10 177.39 220.35 z M 185.55 219.26 Q 186.79 217.65 188.67 217.65 Q 190.38 217.65 191.46 218.78 Q 192.55 219.91 192.55 221.68 Q 192.55 223.71 191.33 225.02 Q 190.11 226.33 188.24 226.33 Q 186.09 226.33 184.88 224.59 Q 183.66 222.86 183.66 219.79 Q 183.66 216.40 185.06 214.53 Q 186.45 212.66 188.98 212.66 Q 190.14 212.66 191.88 213.15 L 191.88 214.66 Q 190.04 213.96 188.88 213.96 Q 185.55 213.96 185.55 219.26 z M 190.81 222.06 Q 190.81 220.59 190.15 219.74 Q 189.48 218.90 188.30 218.90 Q 187.21 218.90 186.41 219.64 Q 185.62 220.38 185.62 221.41 Q 185.62 223.05 186.37 224.04 Q 187.13 225.02 188.37 225.02 Q 189.48 225.02 190.15 224.22 Q 190.81 223.42 190.81 222.06 z M 195.57 226.00 L 195.57 216.46 L 197.30 216.46 L 197.30 218.25 Q 198.57 216.24 200.56 216.24 Q 202.47 216.24 203.17 218.25 Q 204.40 216.24 206.37 216.24 Q 207.63 216.24 208.33 216.98 Q 209.02 217.72 209.02 219.06 L 209.02 226.00 L 207.28 226.00 L 207.28 219.33 Q 207.28 217.69 205.99 217.69 Q 204.64 217.69 203.17 219.60 L 203.17 226.00 L 201.43 226.00 L 201.43 219.33 Q 201.43 217.69 200.11 217.69 Q 198.80 217.69 197.30 219.60 L 197.30 226.00 z" />
          <title id="title336">0.86m</title>
          <desc id="desc338">text1 = &quot;0.86m&quot;</desc>
        </g>
      </g>
    </g>
    <g id="layer2" />
    <g id="layer3">
      <clipPath id="clip26">
        <path id="path343" d="M 0.0000 0.0000 L 0.0000 246.00 L 462.00 246.00 L 462.00 0.0000 z" />
      </clipPath>
      <g id="g345" clip-path="url(#clip26)">
        <g id="g347" stroke="#000000" stroke-opacity="1.0000" fill="none" stroke-linecap="butt" stroke-width=".50000" stroke-dasharray="8.5000,8.0000" stroke-linejoin="round">
          <path id="path349" d="M -65.875 281.72 C 110.08 110.12 286.04 110.12 462.00 281.72" />
          <title id="title351">Parabola d</title>
          <desc id="desc353">d: y = -0.14xÃ&#130;Â² + 0.58x</desc>
        </g>
      </g>
      <clipPath id="clip27">
        <path id="path356" d="M 0.0000 0.0000 L 0.0000 246.00 L 462.00 246.00 L 462.00 0.0000 z" />
      </clipPath>
      <g id="g358" clip-path="url(#clip27)">
        <g id="g360" fill="#000000" stroke="none" fill-rule="nonzero" fill-opacity="1.0000">
          <path id="path362" d="M -315.14 694.00 L -315.14 692.21 Q -316.20 694.22 -318.32 694.22 Q -320.05 694.22 -321.04 692.96 Q -322.02 691.71 -322.02 689.53 Q -322.02 687.14 -320.90 685.69 Q -319.78 684.24 -317.96 684.24 Q -316.26 684.24 -315.14 685.54 L -315.14 680.12 L -313.40 680.12 L -313.40 694.00 z M -315.14 686.73 Q -316.49 685.54 -317.69 685.54 Q -320.18 685.54 -320.18 689.35 Q -320.18 692.70 -317.96 692.70 Q -316.52 692.70 -315.14 691.13 z" />
          <title id="title364">Parabola d</title>
          <desc id="desc366">d: y = -0.14xÃ&#130;Â² + 0.58x</desc>
        </g>
      </g>
      <clipPath id="clip28">
        <path id="path369" d="M 0.0000 0.0000 L 0.0000 246.00 L 462.00 246.00 L 462.00 0.0000 z" />
      </clipPath>
      <g id="g371" clip-path="url(#clip28)">
        <g id="g373" stroke="#000000" stroke-opacity="1.0000" fill="none" stroke-linecap="butt" stroke-width=".50000" stroke-dasharray="8.5000,8.0000" stroke-linejoin="round">
          <path id="path375" d="M -604.77 1767.7 C -56.529 -425.27 491.72 -425.27 1040.0 1767.7" />
          <title id="title377">Parabola c</title>
          <desc id="desc379">c: y = -0.19xÃ&#130;Â² + 0.86x</desc>
        </g>
      </g>
      <clipPath id="clip29">
        <path id="path382" d="M 0.0000 0.0000 L 0.0000 246.00 L 462.00 246.00 L 462.00 0.0000 z" />
      </clipPath>
      <g id="g384" clip-path="url(#clip29)">
        <g id="g386" fill="#000000" stroke="none" fill-rule="nonzero" fill-opacity="1.0000">
          <path id="path388" d="M -167.54 534.22 Q -169.48 534.22 -170.75 532.79 Q -172.02 531.35 -172.02 529.17 Q -172.02 526.85 -170.76 525.54 Q -169.50 524.24 -167.24 524.24 Q -166.13 524.24 -164.75 524.55 L -164.75 526.00 Q -166.21 525.57 -167.14 525.57 Q -168.46 525.57 -169.27 526.57 Q -170.07 527.57 -170.07 529.23 Q -170.07 530.84 -169.25 531.83 Q -168.42 532.82 -167.08 532.82 Q -165.90 532.82 -164.64 532.22 L -164.64 533.71 Q -166.32 534.22 -167.54 534.22 z" />
          <title id="title390">Parabola c</title>
          <desc id="desc392">c: y = -0.19xÃ&#130;Â² + 0.86x</desc>
        </g>
      </g>
      <clipPath id="clip30">
        <path id="path395" d="M 0.0000 0.0000 L 0.0000 246.00 L 462.00 246.00 L 462.00 0.0000 z" />
      </clipPath>
      <g id="g397" clip-path="url(#clip30)">
        <g id="g399" stroke="#000000" stroke-opacity="1.0000" fill="none" stroke-linecap="butt" stroke-width="2.0000" stroke-dasharray="10.000,8.0000" stroke-linejoin="round">
          <path id="path401" d="M 15.027 380.27 C 74.551 -95.923 134.07 -95.923 193.60 380.27" />
          <title id="title403">Parabola e</title>
          <desc id="desc405">e: y = -3.5xÃ&#130;Â² + 5.6x</desc>
        </g>
      </g>
      <clipPath id="clip31">
        <path id="path408" d="M 0.0000 0.0000 L 0.0000 246.00 L 462.00 246.00 L 462.00 0.0000 z" />
      </clipPath>
      <g id="g410" clip-path="url(#clip31)">
        <g id="g412" fill="#006400" stroke="none" fill-rule="nonzero" fill-opacity=".098039">
          <path id="path414" d="M 76.812 198.12 C 76.812 181.32 64.873 166.89 48.368 163.74 L 41.812 198.12 z" />
          <title id="title416">Angle Ã&#142;Â³</title>
          <desc id="desc418">Angle Ã&#142;Â³: Angle between S, E, F</desc>
        </g>
      </g>
      <clipPath id="clip32">
        <path id="path421" d="M 0.0000 0.0000 L 0.0000 246.00 L 462.00 246.00 L 462.00 0.0000 z" />
      </clipPath>
      <g id="g423" clip-path="url(#clip32)">
        <g id="g425" stroke="#006400" stroke-opacity="1.0000" fill="none" stroke-linecap="round" stroke-width="1.5000" stroke-linejoin="round">
          <path id="path427" d="M 76.812 198.12 C 76.812 181.32 64.873 166.89 48.368 163.74 L 41.812 198.12 z" />
          <title id="title429">Angle Ã&#142;Â³</title>
          <desc id="desc431">Angle Ã&#142;Â³: Angle between S, E, F</desc>
        </g>
      </g>
      <clipPath id="clip33">
        <path id="path434" d="M 0.0000 0.0000 L 0.0000 246.00 L 462.00 246.00 L 462.00 0.0000 z" />
      </clipPath>
      <g id="g436" clip-path="url(#clip33)">
        <g id="g438" stroke="#000000" stroke-opacity="1.0000" fill="none" stroke-linecap="round" stroke-width="2.5000" stroke-linejoin="round">
          <path id="path440" d="M 41.812 198.12 L 59.816 103.70" />
          <title id="title442">Vector w</title>
          <desc id="desc444">Vector w: Vector[E, F]</desc>
        </g>
      </g>
      <clipPath id="clip34">
        <path id="path447" d="M 0.0000 0.0000 L 0.0000 246.00 L 462.00 246.00 L 462.00 0.0000 z" />
      </clipPath>
      <g id="g449" clip-path="url(#clip34)">
        <g id="g451" fill="#000000" stroke="none" fill-rule="evenodd" fill-opacity="1.0000">
          <path id="path453" d="M 63.000 87.000 L 63.991 104.50 L 55.641 102.90 z" />
          <title id="title455">Vector w</title>
          <desc id="desc457">Vector w: Vector[E, F]</desc>
        </g>
      </g>
    </g>
  </g>
</svg>