<?xml version='1.0' ?><svg xmlns:dc="http://purl.org/dc/elements/1.1/" xmlns:cc="http://creativecommons.org/ns#" xmlns:rdf="http://www.w3.org/1999/02/22-rdf-syntax-ns#" xmlns:svg="http://www.w3.org/2000/svg" xmlns="http://www.w3.org/2000/svg" id="svg2" version="1.1" width="373.75" height="181.10749" viewBox="0.0 1.587204123076923 504.9999999999999 244.70711023411369" preserveAspectRatio="none">
  <metadata id="metadata538">
    <rdf:RDF>
      <cc:Work rdf:about="">
        <dc:format>image/svg+xml</dc:format>
        <dc:type rdf:resource="http://purl.org/dc/dcmitype/StillImage" />
      </cc:Work>
    </rdf:RDF>
  </metadata>
  <defs id="defs536" />
  <title id="title4" />
  <g id="g6" stroke-linecap="square" stroke-miterlimit="10.000" stroke-width="1.0000" stroke-dasharray="none" stroke-dashoffset="0.0000" stroke-linejoin="miter">
    <clipPath id="clip1">
      <path id="path9" d="M 0.0000 0.0000 L 0.0000 246.00 L 505.00 246.00 L 505.00 0.0000 z" />
    </clipPath>
    <g id="g11" clip-path="url(#clip1)">
      <g id="g13" stroke="#000000" stroke-opacity="1.0000" fill="none" stroke-linecap="butt" stroke-width="2.0000">
        <path id="path15" d="M 39.813 3.0000 L 39.813 246.00" />
      </g>
    </g>
    <clipPath id="clip2">
      <path id="path18" d="M 0.0000 0.0000 L 0.0000 246.00 L 505.00 246.00 L 505.00 0.0000 z" />
    </clipPath>
    <g id="g20" clip-path="url(#clip2)">
      <g id="g22" stroke="#000000" stroke-opacity="1.0000" fill="none" stroke-linecap="butt" stroke-width="2.0000">
        <path id="path24" d="M 39.813 2.0000 L 34.813 7.0000" />
      </g>
    </g>
    <clipPath id="clip3">
      <path id="path27" d="M 0.0000 0.0000 L 0.0000 246.00 L 505.00 246.00 L 505.00 0.0000 z" />
    </clipPath>
    <g id="g29" clip-path="url(#clip3)">
      <g id="g31" stroke="#000000" stroke-opacity="1.0000" fill="none" stroke-linecap="butt" stroke-width="2.0000">
        <path id="path33" d="M 39.813 2.0000 L 44.813 7.0000" />
      </g>
    </g>
    <clipPath id="clip4">
      <path id="path36" d="M 0.0000 0.0000 L 0.0000 246.00 L 505.00 246.00 L 505.00 0.0000 z" />
    </clipPath>
    <g id="g38" clip-path="url(#clip4)">
      <g id="g40" stroke="#000000" stroke-opacity="1.0000" fill="none" stroke-linecap="butt" stroke-width="2.0000">
        <path id="path42" d="M 0.0000 165.12 L 502.00 165.12" />
      </g>
    </g>
    <clipPath id="clip5">
      <path id="path45" d="M 0.0000 0.0000 L 0.0000 246.00 L 505.00 246.00 L 505.00 0.0000 z" />
    </clipPath>
    <g id="g47" clip-path="url(#clip5)">
      <g id="g49" stroke="#000000" stroke-opacity="1.0000" fill="none" stroke-linecap="butt" stroke-width="2.0000">
        <path id="path51" d="M 503.00 165.12 L 498.00 160.12" />
      </g>
    </g>
    <clipPath id="clip6">
      <path id="path54" d="M 0.0000 0.0000 L 0.0000 246.00 L 505.00 246.00 L 505.00 0.0000 z" />
    </clipPath>
    <g id="g56" clip-path="url(#clip6)">
      <g id="g58" stroke="#000000" stroke-opacity="1.0000" fill="none" stroke-linecap="butt" stroke-width="2.0000">
        <path id="path60" d="M 503.00 165.12 L 498.00 170.12" />
      </g>
    </g>
    <g id="misc" />
    <g id="layer0">
      <clipPath id="clip7">
        <path id="path65" d="M 0.0000 0.0000 L 0.0000 246.00 L 505.00 246.00 L 505.00 0.0000 z" />
      </clipPath>
      <g id="g67" clip-path="url(#clip7)">
        <g id="g69" fill="#ff00ff" stroke="none" fill-rule="nonzero" fill-opacity=".25882">
          <path id="path71" d="M 84.813 165.12 C 84.813 153.19 80.071 141.74 71.632 133.31 L 39.813 165.12 z" />
          <title id="title73">Angle Ã&#142;Â±</title>
          <desc id="desc75">Angle Ã&#142;Â±: Angle between S, A, B</desc>
        </g>
      </g>
      <clipPath id="clip8">
        <path id="path78" d="M 0.0000 0.0000 L 0.0000 246.00 L 505.00 246.00 L 505.00 0.0000 z" />
      </clipPath>
      <g id="g80" clip-path="url(#clip8)">
        <g id="g82" stroke="#ff00ff" stroke-opacity="1.0000" fill="none" stroke-linecap="round" stroke-width="2.0000" stroke-linejoin="round">
          <path id="path84" d="M 84.813 165.12 C 84.813 153.19 80.071 141.74 71.632 133.31 L 39.813 165.12 z" />
          <title id="title86">Angle Ã&#142;Â±</title>
          <desc id="desc88">Angle Ã&#142;Â±: Angle between S, A, B</desc>
        </g>
      </g>
      <clipPath id="clip9">
        <path id="path91" d="M 0.0000 0.0000 L 0.0000 246.00 L 505.00 246.00 L 505.00 0.0000 z" />
      </clipPath>
      <g id="g93" clip-path="url(#clip9)">
        <g id="g95" stroke="#000000" stroke-opacity="1.0000" fill="none" stroke-linecap="round" stroke-width="2.5000" stroke-linejoin="round">
          <path id="path97" d="M 39.813 165.12 L 105.92 99.021" />
          <title id="title99">Vector u</title>
          <desc id="desc101">Vector u: Vector[A, B]</desc>
        </g>
      </g>
      <clipPath id="clip10">
        <path id="path104" d="M 0.0000 0.0000 L 0.0000 246.00 L 505.00 246.00 L 505.00 0.0000 z" />
      </clipPath>
      <g id="g106" clip-path="url(#clip10)">
        <g id="g108" fill="#000000" stroke="none" fill-rule="evenodd" fill-opacity="1.0000">
          <path id="path110" d="M 117.94 87.000 L 108.92 102.03 L 102.91 96.016 z" />
          <title id="title112">Vector u</title>
          <desc id="desc114">Vector u: Vector[A, B]</desc>
        </g>
      </g>
      <clipPath id="clip11">
        <path id="path117" d="M 0.0000 0.0000 L 0.0000 246.00 L 505.00 246.00 L 505.00 0.0000 z" />
      </clipPath>
      <g id="g119" clip-path="url(#clip11)">
        <g id="g121" stroke="#ff00ff" stroke-opacity="1.0000" fill="none" stroke-width="4.0000">
          <path id="path123" d="M 422.44 157.12 L 438.44 173.12" />
          <title id="title125">Point S</title>
          <desc id="desc127">Point S: Point on xAxis</desc>
        </g>
      </g>
      <clipPath id="clip12">
        <path id="path130" d="M 0.0000 0.0000 L 0.0000 246.00 L 505.00 246.00 L 505.00 0.0000 z" />
      </clipPath>
      <g id="g132" clip-path="url(#clip12)">
        <g id="g134" stroke="#ff00ff" stroke-opacity="1.0000" fill="none" stroke-width="4.0000">
          <path id="path136" d="M 422.44 173.12 L 438.44 157.12" />
          <title id="title138">Point S</title>
          <desc id="desc140">Point S: Point on xAxis</desc>
        </g>
      </g>
      <clipPath id="clip13">
        <path id="path143" d="M 0.0000 0.0000 L 0.0000 246.00 L 505.00 246.00 L 505.00 0.0000 z" />
      </clipPath>
      <g id="g145" clip-path="url(#clip13)">
        <g id="g147" fill="#000000" stroke="none" fill-rule="nonzero" fill-opacity="1.0000">
          <path id="path149" d="M 44.813 165.12 C 44.813 167.89 42.574 170.12 39.813 170.12 C 37.051 170.12 34.813 167.89 34.813 165.12 C 34.813 162.36 37.051 160.12 39.813 160.12 C 42.574 160.12 44.813 162.36 44.813 165.12 z" />
          <title id="title151">Point A</title>
          <desc id="desc153">Point A: Point on yAxis</desc>
        </g>
      </g>
      <clipPath id="clip14">
        <path id="path156" d="M 0.0000 0.0000 L 0.0000 246.00 L 505.00 246.00 L 505.00 0.0000 z" />
      </clipPath>
      <g id="g158" clip-path="url(#clip14)">
        <g id="g160" stroke="#000000" stroke-opacity="1.0000" fill="none" stroke-linecap="round" stroke-linejoin="round">
          <path id="path162" d="M 44.813 165.12 C 44.813 167.89 42.574 170.12 39.813 170.12 C 37.051 170.12 34.813 167.89 34.813 165.12 C 34.813 162.36 37.051 160.12 39.813 160.12 C 42.574 160.12 44.813 162.36 44.813 165.12 z" />
          <title id="title164">Point A</title>
          <desc id="desc166">Point A: Point on yAxis</desc>
        </g>
      </g>
      <g id="g168" transform="matrix(21.000, 0.0000, 0.0000, 21.000, 90.000, 154.63)">
        <clipPath id="clip15">
          <path id="path171" d="M -4.2857 -7.3635 L -4.2857 4.3508 L 19.762 4.3508 L 19.762 -7.3635 z" />
        </clipPath>
        <g id="g173" clip-path="url(#clip15)">
          <g id="g175" fill="#000000" stroke="none" fill-rule="nonzero" fill-opacity="1.0000">
            <path id="path177" d="M .57812 -.15625 Q .57812 -.031250 .60938 -.031250 Q .60938 -.031250 .61719 -.031250 Q .62500 -.031250 .64062 -.039062 Q .65625 -.046875 .65625 -.062500 Q .65625 -.062500 .66406 -.070312 Q .67188 -.078125 .68750 -.078125 Q .70312 -.078125 .70312 -.062500 Q .70312 -.031250 .67188 -.0078125 Q .64062 .015625 .60938 .015625 Q .56250 .015625 .53125 -.0078125 Q .50000 -.031250 .48438 -.078125 Q .37500 .015625 .25000 .015625 Q .15625 .015625 .10156 -.031250 Q .046875 -.078125 .046875 -.17188 Q .046875 -.21875 .070312 -.26562 Q .093750 -.31250 .12500 -.35938 Q .15625 -.40625 .21875 -.42969 Q .28125 -.45312 .35938 -.45312 Q .46875 -.45312 .53125 -.39062 Q .54688 -.35938 .56250 -.32812 Q .57812 -.29688 .57812 -.28125 Q .57812 -.26562 .57812 -.23438 Q .62500 -.29688 .65625 -.37500 Q .65625 -.39062 .65625 -.39844 Q .65625 -.40625 .67188 -.40625 Q .70312 -.40625 .70312 -.39062 Q .70312 -.37500 .67188 -.30469 Q .64062 -.23438 .57812 -.15625 z M .26562 -.031250 Q .31250 -.031250 .39062 -.062500 Q .40625 -.062500 .43750 -.085938 Q .46875 -.10938 .46875 -.10938 Q .46875 -.12500 .46875 -.16406 Q .46875 -.20312 .46875 -.20312 Q .46875 -.25000 .46094 -.28125 Q .45312 -.31250 .44531 -.34375 Q .43750 -.37500 .41406 -.39844 Q .39062 -.42188 .35938 -.42188 Q .31250 -.42188 .27344 -.39844 Q .23438 -.37500 .21875 -.32812 Q .18750 -.28125 .17188 -.21875 Q .15625 -.15625 .15625 -.12500 Q .15625 -.078125 .18750 -.054688 Q .21875 -.031250 .26562 -.031250 z" />
            <title id="title179">$\alpha=45^{\circ}$</title>
            <desc id="desc181">text2 = &quot;$\alpha=45^{\circ}$&quot;</desc>
          </g>
        </g>
      </g>
      <g id="g183" transform="matrix(21.000, 0.0000, 0.0000, 21.000, 111.81, 154.63)">
        <clipPath id="clip16">
          <path id="path186" d="M -5.3241 -7.3635 L -5.3241 4.3508 L 18.723 4.3508 L 18.723 -7.3635 z" />
        </clipPath>
        <g id="g188" clip-path="url(#clip16)">
          <g id="g190" fill="#000000" stroke="none" fill-rule="nonzero" fill-opacity="1.0000">
            <path id="path192" d="M .78125 -.32812 L .10938 -.32812 Q .062500 -.32812 .062500 -.35938 Q .062500 -.39062 .10938 -.39062 L .78125 -.39062 Q .82812 -.39062 .82812 -.35938 Q .82812 -.32812 .78125 -.32812 z M .78125 -.10938 L .10938 -.10938 Q .062500 -.10938 .062500 -.14062 Q .062500 -.17188 .10938 -.17188 L .78125 -.17188 Q .82812 -.17188 .82812 -.14062 Q .82812 -.10938 .78125 -.10938 z" />
            <title id="title194">$\alpha=45^{\circ}$</title>
            <desc id="desc196">text2 = &quot;$\alpha=45^{\circ}$&quot;</desc>
          </g>
        </g>
      </g>
      <g id="g198" transform="matrix(21.000, 0.0000, 0.0000, 21.000, 136.42, 154.63)">
        <clipPath id="clip17">
          <path id="path201" d="M -6.4964 -7.3635 L -6.4964 4.3508 L 17.551 4.3508 L 17.551 -7.3635 z" />
        </clipPath>
        <g id="g203" clip-path="url(#clip17)">
          <g id="g205" fill="#000000" stroke="none" fill-rule="nonzero" fill-opacity="1.0000">
            <path id="path207" d="M .43750 -.15625 L .43750 -.046875 L .54688 -.046875 L .54688 -0.0000 Q .50000 -0.0000 .37500 -0.0000 Q .25000 -0.0000 .20312 -0.0000 L .20312 -.046875 L .31250 -.046875 L .31250 -.15625 L .031250 -.15625 L .031250 -.20312 L .37500 -.64062 Q .39062 -.65625 .39844 -.65625 Q .40625 -.65625 .42188 -.65625 Q .43750 -.65625 .43750 -.64844 Q .43750 -.64062 .43750 -.62500 L .43750 -.20312 L .54688 -.20312 L .54688 -.15625 L .43750 -.15625 z M .32812 -.20312 L .32812 -.51562 L .078125 -.20312 L .32812 -.20312 z" />
            <title id="title209">$\alpha=45^{\circ}$</title>
            <desc id="desc211">text2 = &quot;$\alpha=45^{\circ}$&quot;</desc>
          </g>
        </g>
      </g>
      <g id="g213" transform="matrix(21.000, 0.0000, 0.0000, 21.000, 148.50, 154.63)">
        <clipPath id="clip18">
          <path id="path216" d="M -7.0714 -7.3635 L -7.0714 4.3508 L 16.976 4.3508 L 16.976 -7.3635 z" />
        </clipPath>
        <g id="g218" clip-path="url(#clip18)">
          <g id="g220" fill="#000000" stroke="none" fill-rule="nonzero" fill-opacity="1.0000">
            <path id="path222" d="M .51562 -.20312 Q .51562 -.10938 .44531 -.046875 Q .37500 .015625 .26562 .015625 Q .17188 .015625 .11719 -.039062 Q .062500 -.093750 .062500 -.15625 Q .062500 -.18750 .078125 -.20312 Q .093750 -.21875 .10156 -.22656 Q .10938 -.23438 .12500 -.23438 Q .14062 -.23438 .16406 -.21875 Q .18750 -.20312 .18750 -.15625 Q .18750 -.12500 .17188 -.10938 Q .15625 -.093750 .12500 -.093750 Q .17188 -.031250 .25000 -.031250 Q .28125 -.031250 .29688 -.039062 Q .31250 -.046875 .32812 -.054688 Q .34375 -.062500 .35156 -.078125 Q .35938 -.093750 .36719 -.10938 Q .37500 -.12500 .37500 -.14062 Q .37500 -.15625 .37500 -.17188 Q .37500 -.18750 .37500 -.20312 Q .37500 -.23438 .37500 -.25000 Q .37500 -.26562 .36719 -.29688 Q .35938 -.32812 .35156 -.33594 Q .34375 -.34375 .32812 -.35938 Q .31250 -.37500 .28125 -.37500 Q .20312 -.37500 .15625 -.31250 Q .14062 -.31250 .12500 -.31250 Q .12500 -.31250 .11719 -.31250 Q .10938 -.31250 .10938 -.32031 Q .10938 -.32812 .10938 -.34375 L .10938 -.62500 Q .10938 -.64062 .10938 -.64062 Q .10938 -.64062 .10938 -.64844 Q .10938 -.65625 .12500 -.65625 Q .12500 -.65625 .14062 -.65625 Q .21875 -.62500 .29688 -.62500 Q .37500 -.62500 .43750 -.65625 Q .45312 -.65625 .45312 -.65625 Q .46875 -.65625 .46875 -.64062 Q .46875 -.62500 .45312 -.60156 Q .43750 -.57812 .40625 -.55469 Q .37500 -.53125 .32812 -.51562 Q .28125 -.50000 .23438 -.50000 Q .20312 -.50000 .15625 -.50000 L .15625 -.37500 Q .21875 -.40625 .29688 -.40625 Q .39062 -.40625 .45312 -.35156 Q .51562 -.29688 .51562 -.20312 z" />
            <title id="title224">$\alpha=45^{\circ}$</title>
            <desc id="desc226">text2 = &quot;$\alpha=45^{\circ}$&quot;</desc>
          </g>
        </g>
      </g>
      <g id="g228" transform="matrix(14.700, 0.0000, 0.0000, 14.700, 160.57, 145.96)">
        <clipPath id="clip19">
          <path id="path231" d="M -10.923 -9.9294 L -10.923 6.8053 L 23.430 6.8053 L 23.430 -9.9294 z" />
        </clipPath>
        <g id="g233" clip-path="url(#clip19)">
          <g id="g235" fill="#000000" stroke="none" fill-rule="nonzero" fill-opacity="1.0000">
            <path id="path237" d="M .51562 -.25000 Q .51562 -.15625 .45312 -.093750 Q .39062 -.031250 .28125 -.031250 Q .18750 -.031250 .12500 -.093750 Q .062500 -.15625 .062500 -.25000 Q .062500 -.34375 .12500 -.40625 Q .18750 -.46875 .28125 -.46875 Q .39062 -.46875 .45312 -.41406 Q .51562 -.35938 .51562 -.25000 z M .28125 -.093750 Q .35938 -.093750 .40625 -.13281 Q .45312 -.17188 .45312 -.25000 Q .45312 -.32812 .40625 -.36719 Q .35938 -.40625 .28125 -.40625 Q .21875 -.40625 .17188 -.36719 Q .12500 -.32812 .12500 -.25000 Q .12500 -.17188 .17188 -.13281 Q .21875 -.093750 .28125 -.093750 z" />
            <title id="title239">$\alpha=45^{\circ}$</title>
            <desc id="desc241">text2 = &quot;$\alpha=45^{\circ}$&quot;</desc>
          </g>
        </g>
      </g>
      <g id="g243" transform="matrix(21.000, 0.0000, 0.0000, 21.000, 83.000, 88.333)">
        <clipPath id="clip20">
          <path id="path246" d="M -3.9524 -4.2063 L -3.9524 7.5079 L 20.095 7.5079 L 20.095 -4.2063 z" />
        </clipPath>
        <g id="g248" clip-path="url(#clip20)">
          <g id="g250" fill="#000000" stroke="none" fill-rule="nonzero" fill-opacity="1.0000">
            <path id="path252" d="M .56250 -.35938 L .54688 -.29688 Q .53125 -.26562 .51562 -.20312 Q .50000 -.12500 .50000 -.10938 Q .50000 -.031250 .57812 -.031250 Q .64062 -.031250 .67188 -.10938 Q .70312 -.14062 .71875 -.19531 Q .73438 -.25000 .73438 -.26562 Q .73438 -.29688 .68750 -.32812 Q .65625 -.34375 .65625 -.37500 Q .65625 -.40625 .67969 -.42969 Q .70312 -.45312 .73438 -.45312 Q .73438 -.45312 .74219 -.45312 Q .75000 -.45312 .76562 -.44531 Q .78125 -.43750 .78906 -.41406 Q .79688 -.39062 .79688 -.35938 Q .79688 -.31250 .77344 -.23438 Q .75000 -.15625 .71875 -.10938 Q .67188 .015625 .56250 .015625 Q .46875 .015625 .42188 -.046875 Q .37500 .015625 .31250 .015625 Q .25000 .015625 .21875 -0.0000 Q .18750 -.015625 .15625 -.046875 Q .12500 -.078125 .12500 -.12500 Q .12500 -.18750 .17188 -.31250 Q .20312 -.37500 .20312 -.39062 Q .20312 -.42188 .18750 -.42188 Q .17188 -.42188 .16406 -.41406 Q .15625 -.40625 .14062 -.39844 Q .12500 -.39062 .10938 -.35938 Q .093750 -.32812 .078125 -.29688 Q .078125 -.28125 .062500 -.28125 Q .031250 -.28125 .031250 -.29688 Q .031250 -.31250 .039062 -.33594 Q .046875 -.35938 .070312 -.38281 Q .093750 -.40625 .12500 -.42969 Q .15625 -.45312 .18750 -.45312 Q .23438 -.45312 .26562 -.42969 Q .29688 -.40625 .29688 -.35938 Q .29688 -.34375 .28125 -.29688 Q .23438 -.17188 .23438 -.10938 Q .23438 -.031250 .31250 -.031250 Q .34375 -.031250 .36719 -.054688 Q .39062 -.078125 .39062 -.093750 L .39062 -.10938 Q .39062 -.10938 .39062 -.12500 Q .39062 -.15625 .40625 -.18750 Q .43750 -.29688 .45312 -.39062 Q .46875 -.42188 .48438 -.42969 Q .50000 -.43750 .51562 -.43750 Q .54688 -.43750 .55469 -.42969 Q .56250 -.42188 .56250 -.40625 Q .56250 -.39062 .56250 -.35938 z" />
            <title id="title254">$w$</title>
            <desc id="desc256">text3 = &quot;$w$&quot;</desc>
          </g>
        </g>
      </g>
      <g id="g258" transform="matrix(21.000, 0.0000, 0.0000, 21.000, 14.000, 22.333)">
        <clipPath id="clip21">
          <path id="path261" d="M -.66667 -1.0635 L -.66667 10.651 L 23.381 10.651 L 23.381 -1.0635 z" />
        </clipPath>
        <g id="g263" clip-path="url(#clip21)">
          <g id="g265" fill="#000000" stroke="none" fill-rule="nonzero" fill-opacity="1.0000">
            <path id="path267" d="M .57812 -.37500 L .48438 -0.0000 Q .46875 .093750 .38281 .14844 Q .29688 .20312 .20312 .20312 Q .14062 .20312 .10938 .17969 Q .078125 .15625 .078125 .10938 Q .078125 .078125 .093750 .054688 Q .10938 .031250 .14062 .031250 Q .15625 .031250 .17188 .046875 Q .18750 .062500 .18750 .078125 Q .18750 .12500 .14062 .15625 Q .17188 .17188 .20312 .17188 Q .26562 .17188 .31250 .11719 Q .35938 .062500 .37500 -.015625 Q .32812 .015625 .28125 .015625 Q .25000 .015625 .22656 .0078125 Q .20312 -0.0000 .17969 -.015625 Q .15625 -.031250 .14062 -.054688 Q .12500 -.078125 .12500 -.12500 Q .12500 -.15625 .14062 -.20312 Q .15625 -.25000 .18750 -.32812 Q .20312 -.37500 .20312 -.39062 Q .20312 -.40625 .19531 -.41406 Q .18750 -.42188 .18750 -.42188 Q .18750 -.42188 .18750 -.42188 Q .17188 -.42188 .16406 -.41406 Q .15625 -.40625 .14062 -.39844 Q .12500 -.39062 .10938 -.35938 Q .093750 -.32812 .078125 -.29688 Q .078125 -.28125 .062500 -.28125 Q .031250 -.28125 .031250 -.29688 Q .031250 -.31250 .039062 -.33594 Q .046875 -.35938 .070312 -.38281 Q .093750 -.40625 .12500 -.42969 Q .15625 -.45312 .18750 -.45312 Q .23438 -.45312 .26562 -.42969 Q .29688 -.40625 .29688 -.35938 Q .29688 -.34375 .28125 -.31250 Q .23438 -.15625 .23438 -.093750 Q .23438 -.031250 .28125 -.031250 Q .31250 -.031250 .35938 -.046875 Q .35938 -.046875 .36719 -.054688 Q .37500 -.062500 .38281 -.078125 Q .39062 -.093750 .39062 -.093750 Q .40625 -.12500 .43750 -.26562 L .46875 -.37500 Q .46875 -.39062 .46875 -.39844 Q .46875 -.40625 .47656 -.42188 Q .48438 -.43750 .50000 -.43750 Q .51562 -.43750 .53125 -.43750 Q .56250 -.43750 .57031 -.42969 Q .57812 -.42188 .57812 -.40625 Q .57812 -.39062 .57812 -.37500 z" />
            <title id="title269">$y$</title>
            <desc id="desc271">text4 = &quot;$y$&quot;</desc>
          </g>
        </g>
      </g>
      <g id="g273" transform="matrix(21.000, 0.0000, 0.0000, 21.000, 480.00, 184.33)">
        <clipPath id="clip22">
          <path id="path276" d="M -22.857 -8.7778 L -22.857 2.9365 L 1.1905 2.9365 L 1.1905 -8.7778 z" />
        </clipPath>
        <g id="g278" clip-path="url(#clip22)">
          <g id="g280" fill="#000000" stroke="none" fill-rule="nonzero" fill-opacity="1.0000">
            <path id="path282" d="M .53125 -.40625 Q .51562 -.42188 .48438 -.42188 Q .46875 -.42188 .43750 -.39844 Q .40625 -.37500 .40625 -.32812 Q .40625 -.31250 .39062 -.25781 Q .37500 -.20312 .37500 -.18750 Q .34375 -.093750 .34375 -.078125 Q .34375 -.031250 .40625 -.031250 Q .43750 -.031250 .48438 -.062500 Q .53125 -.093750 .54688 -.15625 Q .54688 -.15625 .56250 -.15625 Q .59375 -.15625 .59375 -.14844 Q .59375 -.14062 .57812 -.10938 Q .56250 -.078125 .53906 -.054688 Q .51562 -.031250 .47656 -.0078125 Q .43750 .015625 .39062 .015625 Q .29688 .015625 .26562 -.046875 Q .21875 .015625 .15625 .015625 Q .10938 .015625 .070312 -.015625 Q .031250 -.046875 .031250 -.078125 Q .031250 -.10938 .054688 -.13281 Q .078125 -.15625 .10938 -.15625 Q .14062 -.15625 .14844 -.14062 Q .15625 -.12500 .15625 -.10938 Q .15625 -.093750 .14062 -.070312 Q .12500 -.046875 .10938 -.046875 Q .12500 -.031250 .15625 -.031250 Q .18750 -.031250 .21094 -.054688 Q .23438 -.078125 .23438 -.12500 L .26562 -.25000 Q .29688 -.34375 .29688 -.35938 Q .29688 -.42188 .23438 -.42188 Q .20312 -.42188 .16406 -.39062 Q .12500 -.35938 .093750 -.29688 Q .093750 -.28125 .078125 -.28125 Q .046875 -.28125 .046875 -.29688 Q .046875 -.31250 .062500 -.33594 Q .078125 -.35938 .10156 -.38281 Q .12500 -.40625 .16406 -.42969 Q .20312 -.45312 .25000 -.45312 Q .34375 -.45312 .39062 -.39062 Q .42188 -.45312 .48438 -.45312 Q .53125 -.45312 .57031 -.42969 Q .60938 -.40625 .60938 -.35938 Q .60938 -.32812 .58594 -.30469 Q .56250 -.28125 .53125 -.28125 Q .51562 -.28125 .50000 -.29688 Q .48438 -.31250 .48438 -.32812 Q .48438 -.35938 .50000 -.37500 Q .51562 -.39062 .53125 -.40625 z" />
            <title id="title284">$x$</title>
            <desc id="desc286">text5 = &quot;$x$&quot;</desc>
          </g>
        </g>
      </g>
    </g>
    <g id="layer1">
      <g id="g289" transform="matrix(21.000, 0.0000, 0.0000, 21.000, 341.52, 196.26)">
        <clipPath id="clip23">
          <path id="path292" d="M -16.263 -9.3456 L -16.263 2.3687 L 7.7848 2.3687 L 7.7848 -9.3456 z" />
        </clipPath>
        <g id="g294" clip-path="url(#clip23)">
          <g id="g296" fill="#000000" stroke="none" fill-rule="nonzero" fill-opacity="1.0000">
            <path id="path298" d="M .43750 -.43750 L .43750 -0.0000 L .35938 -0.0000 L .35938 -.046875 Q .29688 .015625 .18750 .015625 Q .12500 .015625 .10156 -.015625 Q .078125 -.046875 .078125 -.10938 L .078125 -.43750 L .15625 -.43750 L .15625 -.10938 Q .15625 -.078125 .17188 -.062500 Q .18750 -.046875 .23438 -.046875 Q .28125 -.046875 .32031 -.070312 Q .35938 -.093750 .35938 -.15625 L .35938 -.43750 L .43750 -.43750 z" />
            <title id="title300">$\frac{u^2}{g}$</title>
            <desc id="desc302">text1 = &quot;$\frac{u^2}{g}$&quot;</desc>
          </g>
        </g>
      </g>
      <g id="g304" transform="matrix(14.700, 0.0000, 0.0000, 14.700, 352.37, 188.64)">
        <clipPath id="clip24">
          <path id="path307" d="M -23.971 -12.832 L -23.971 3.9023 L 10.383 3.9023 L 10.383 -12.832 z" />
        </clipPath>
        <g id="g309" clip-path="url(#clip24)">
          <g id="g311" fill="#000000" stroke="none" fill-rule="nonzero" fill-opacity="1.0000">
            <path id="path313" d="M .17188 -.18750 L .25000 -.26562 Q .28125 -.29688 .29688 -.31250 Q .31250 -.32812 .32812 -.35156 Q .34375 -.37500 .35156 -.40625 Q .35938 -.43750 .35938 -.46875 Q .35938 -.51562 .32031 -.56250 Q .28125 -.60938 .21875 -.60938 Q .15625 -.60938 .13281 -.57031 Q .10938 -.53125 .078125 -.45312 Q .062500 -.48438 .062500 -.48438 Q .062500 -.48438 .054688 -.49219 Q .046875 -.50000 .046875 -.51562 Q .093750 -.67188 .23438 -.67188 Q .32812 -.67188 .39062 -.60938 Q .45312 -.54688 .45312 -.46875 Q .45312 -.42188 .42969 -.38281 Q .40625 -.34375 .39062 -.32812 Q .37500 -.31250 .34375 -.28125 Q .34375 -.26562 .30469 -.24219 Q .26562 -.21875 .26562 -.20312 Q .25000 -.20312 .19531 -.14844 Q .14062 -.093750 .12500 -.062500 L .23438 -.062500 Q .23438 -.062500 .25000 -.070312 Q .26562 -.078125 .26562 -.078125 L .45312 -.078125 L .45312 -0.0000 L .046875 -0.0000 L .046875 -.062500 L .17188 -.18750 z" />
            <title id="title315">$\frac{u^2}{g}$</title>
            <desc id="desc317">text1 = &quot;$\frac{u^2}{g}$&quot;</desc>
          </g>
        </g>
      </g>
      <g id="g319" transform="matrix(21.000, 0.0000, 0.0000, 21.000, 0.0000, 0.0000)">
        <clipPath id="clip25">
          <path id="path322" d="M 0.0000 0.0000 L 0.0000 11.714 L 24.048 11.714 L 24.048 0.0000 z" />
        </clipPath>
        <g id="g324" clip-path="url(#clip25)">
          <g id="g326" fill="#000000" stroke="none" fill-rule="nonzero" fill-opacity="1.0000">
            <path id="path328" d="M 16.263 9.7521 L 17.153 9.7521 L 17.153 9.7921 L 16.263 9.7921 L 16.263 9.7521 z" />
            <title id="title330">$\frac{u^2}{g}$</title>
            <desc id="desc332">text1 = &quot;$\frac{u^2}{g}$&quot;</desc>
          </g>
        </g>
      </g>
      <g id="g334" transform="matrix(21.000, 0.0000, 0.0000, 21.000, 345.62, 224.87)">
        <clipPath id="clip26">
          <path id="path337" d="M -16.458 -10.708 L -16.458 1.0062 L 7.5895 1.0062 L 7.5895 -10.708 z" />
        </clipPath>
        <g id="g339" clip-path="url(#clip26)">
          <g id="g341" fill="#000000" stroke="none" fill-rule="nonzero" fill-opacity="1.0000">
            <path id="path343" d="M .35938 -.39062 L .34375 -.39062 Q .37500 -.34375 .37500 -.29688 Q .37500 -.21875 .32812 -.17188 Q .28125 -.12500 .21875 -.12500 Q .17188 -.12500 .12500 -.15625 Q .12500 -.14062 .12500 -.12500 Q .12500 -.062500 .17188 -.062500 L .26562 -.062500 Q .28125 -.062500 .29688 -.062500 Q .31250 -.062500 .33594 -.062500 Q .35938 -.062500 .38281 -.054688 Q .40625 -.046875 .42969 -.031250 Q .45312 -.015625 .46094 .0078125 Q .46875 .031250 .46875 .062500 Q .46875 .12500 .40625 .16406 Q .34375 .20312 .25000 .20312 Q .15625 .20312 .093750 .16406 Q .031250 .12500 .031250 .078125 Q .031250 -0.0000 .093750 -.031250 Q .062500 -.062500 .062500 -.10938 Q .062500 -.15625 .093750 -.18750 Q .062500 -.23438 .062500 -.29688 Q .062500 -.35938 .10938 -.40625 Q .15625 -.45312 .21875 -.45312 Q .28125 -.45312 .31250 -.42188 Q .39062 -.45312 .46875 -.45312 L .48438 -.39062 L .46875 -.39062 Q .46875 -.39062 .45312 -.39062 Q .43750 -.39062 .42188 -.39062 Q .40625 -.39062 .38281 -.39062 Q .35938 -.39062 .35938 -.39062 z M .21875 -.18750 Q .26562 -.18750 .28906 -.21094 Q .31250 -.23438 .31250 -.28906 Q .31250 -.34375 .28906 -.36719 Q .26562 -.39062 .21875 -.39062 Q .18750 -.39062 .15625 -.36719 Q .12500 -.34375 .12500 -.28906 Q .12500 -.23438 .15625 -.21094 Q .18750 -.18750 .21875 -.18750 z M .26562 -0.0000 L .17188 -0.0000 Q .15625 -0.0000 .14062 .0078125 Q .12500 .015625 .11719 .023438 Q .10938 .031250 .10156 .046875 Q .093750 .062500 .093750 .062500 Q .093750 .062500 .093750 .078125 Q .093750 .10938 .14062 .13281 Q .18750 .15625 .25000 .15625 Q .31250 .15625 .35938 .13281 Q .40625 .10938 .40625 .078125 Q .40625 -0.0000 .26562 -0.0000 z" />
            <title id="title345">$\frac{u^2}{g}$</title>
            <desc id="desc347">text1 = &quot;$\frac{u^2}{g}$&quot;</desc>
          </g>
        </g>
      </g>
      <g id="g349" transform="matrix(21.000, 0.0000, 0.0000, 21.000, 423.52, 196.26)">
        <clipPath id="clip27">
          <path id="path352" d="M -20.168 -9.3456 L -20.168 2.3687 L 3.8800 2.3687 L 3.8800 -9.3456 z" />
        </clipPath>
        <g id="g354" clip-path="url(#clip27)">
          <g id="g356" fill="#000000" stroke="none" fill-rule="nonzero" fill-opacity="1.0000">
            <path id="path358" d="M .43750 -.43750 L .43750 -0.0000 L .35938 -0.0000 L .35938 -.046875 Q .29688 .015625 .18750 .015625 Q .12500 .015625 .10156 -.015625 Q .078125 -.046875 .078125 -.10938 L .078125 -.43750 L .15625 -.43750 L .15625 -.10938 Q .15625 -.078125 .17188 -.062500 Q .18750 -.046875 .23438 -.046875 Q .28125 -.046875 .32031 -.070312 Q .35938 -.093750 .35938 -.15625 L .35938 -.43750 L .43750 -.43750 z" />
            <title id="title360">$\frac{u^2}{g}+1m$</title>
            <desc id="desc362">text1_1 = &quot;$\frac{u^2}{g}+1m$&quot;</desc>
          </g>
        </g>
      </g>
      <g id="g364" transform="matrix(14.700, 0.0000, 0.0000, 14.700, 434.37, 188.64)">
        <clipPath id="clip28">
          <path id="path367" d="M -29.549 -12.832 L -29.549 3.9023 L 4.8048 3.9023 L 4.8048 -12.832 z" />
        </clipPath>
        <g id="g369" clip-path="url(#clip28)">
          <g id="g371" fill="#000000" stroke="none" fill-rule="nonzero" fill-opacity="1.0000">
            <path id="path373" d="M .17188 -.18750 L .25000 -.26562 Q .28125 -.29688 .29688 -.31250 Q .31250 -.32812 .32812 -.35156 Q .34375 -.37500 .35156 -.40625 Q .35938 -.43750 .35938 -.46875 Q .35938 -.51562 .32031 -.56250 Q .28125 -.60938 .21875 -.60938 Q .15625 -.60938 .13281 -.57031 Q .10938 -.53125 .078125 -.45312 Q .062500 -.48438 .062500 -.48438 Q .062500 -.48438 .054688 -.49219 Q .046875 -.50000 .046875 -.51562 Q .093750 -.67188 .23438 -.67188 Q .32812 -.67188 .39062 -.60938 Q .45312 -.54688 .45312 -.46875 Q .45312 -.42188 .42969 -.38281 Q .40625 -.34375 .39062 -.32812 Q .37500 -.31250 .34375 -.28125 Q .34375 -.26562 .30469 -.24219 Q .26562 -.21875 .26562 -.20312 Q .25000 -.20312 .19531 -.14844 Q .14062 -.093750 .12500 -.062500 L .23438 -.062500 Q .23438 -.062500 .25000 -.070312 Q .26562 -.078125 .26562 -.078125 L .45312 -.078125 L .45312 -0.0000 L .046875 -0.0000 L .046875 -.062500 L .17188 -.18750 z" />
            <title id="title375">$\frac{u^2}{g}+1m$</title>
            <desc id="desc377">text1_1 = &quot;$\frac{u^2}{g}+1m$&quot;</desc>
          </g>
        </g>
      </g>
      <g id="g379" transform="matrix(21.000, 0.0000, 0.0000, 21.000, 0.0000, 0.0000)">
        <clipPath id="clip29">
          <path id="path382" d="M 0.0000 0.0000 L 0.0000 11.714 L 24.048 11.714 L 24.048 0.0000 z" />
        </clipPath>
        <g id="g384" clip-path="url(#clip29)">
          <g id="g386" fill="#000000" stroke="none" fill-rule="nonzero" fill-opacity="1.0000">
            <path id="path388" d="M 20.168 9.7521 L 21.058 9.7521 L 21.058 9.7921 L 20.168 9.7921 L 20.168 9.7521 z" />
            <title id="title390">$\frac{u^2}{g}+1m$</title>
            <desc id="desc392">text1_1 = &quot;$\frac{u^2}{g}+1m$&quot;</desc>
          </g>
        </g>
      </g>
      <g id="g394" transform="matrix(21.000, 0.0000, 0.0000, 21.000, 427.62, 224.87)">
        <clipPath id="clip30">
          <path id="path397" d="M -20.363 -10.708 L -20.363 1.0062 L 3.6848 1.0062 L 3.6848 -10.708 z" />
        </clipPath>
        <g id="g399" clip-path="url(#clip30)">
          <g id="g401" fill="#000000" stroke="none" fill-rule="nonzero" fill-opacity="1.0000">
            <path id="path403" d="M .35938 -.39062 L .34375 -.39062 Q .37500 -.34375 .37500 -.29688 Q .37500 -.21875 .32812 -.17188 Q .28125 -.12500 .21875 -.12500 Q .17188 -.12500 .12500 -.15625 Q .12500 -.14062 .12500 -.12500 Q .12500 -.062500 .17188 -.062500 L .26562 -.062500 Q .28125 -.062500 .29688 -.062500 Q .31250 -.062500 .33594 -.062500 Q .35938 -.062500 .38281 -.054688 Q .40625 -.046875 .42969 -.031250 Q .45312 -.015625 .46094 .0078125 Q .46875 .031250 .46875 .062500 Q .46875 .12500 .40625 .16406 Q .34375 .20312 .25000 .20312 Q .15625 .20312 .093750 .16406 Q .031250 .12500 .031250 .078125 Q .031250 -0.0000 .093750 -.031250 Q .062500 -.062500 .062500 -.10938 Q .062500 -.15625 .093750 -.18750 Q .062500 -.23438 .062500 -.29688 Q .062500 -.35938 .10938 -.40625 Q .15625 -.45312 .21875 -.45312 Q .28125 -.45312 .31250 -.42188 Q .39062 -.45312 .46875 -.45312 L .48438 -.39062 L .46875 -.39062 Q .46875 -.39062 .45312 -.39062 Q .43750 -.39062 .42188 -.39062 Q .40625 -.39062 .38281 -.39062 Q .35938 -.39062 .35938 -.39062 z M .21875 -.18750 Q .26562 -.18750 .28906 -.21094 Q .31250 -.23438 .31250 -.28906 Q .31250 -.34375 .28906 -.36719 Q .26562 -.39062 .21875 -.39062 Q .18750 -.39062 .15625 -.36719 Q .12500 -.34375 .12500 -.28906 Q .12500 -.23438 .15625 -.21094 Q .18750 -.18750 .21875 -.18750 z M .26562 -0.0000 L .17188 -0.0000 Q .15625 -0.0000 .14062 .0078125 Q .12500 .015625 .11719 .023438 Q .10938 .031250 .10156 .046875 Q .093750 .062500 .093750 .062500 Q .093750 .062500 .093750 .078125 Q .093750 .10938 .14062 .13281 Q .18750 .15625 .25000 .15625 Q .31250 .15625 .35938 .13281 Q .40625 .10938 .40625 .078125 Q .40625 -0.0000 .26562 -0.0000 z" />
            <title id="title405">$\frac{u^2}{g}+1m$</title>
            <desc id="desc407">text1_1 = &quot;$\frac{u^2}{g}+1m$&quot;</desc>
          </g>
        </g>
      </g>
      <g id="g409" transform="matrix(21.000, 0.0000, 0.0000, 21.000, 449.41, 210.46)">
        <clipPath id="clip31">
          <path id="path412" d="M -21.400 -10.022 L -21.400 1.6922 L 2.6473 1.6922 L 2.6473 -10.022 z" />
        </clipPath>
        <g id="g414" clip-path="url(#clip31)">
          <g id="g416" fill="#000000" stroke="none" fill-rule="nonzero" fill-opacity="1.0000">
            <path id="path418" d="M .40625 -.23438 L .40625 .046875 Q .40625 .078125 .39062 .078125 Q .37500 .078125 .37500 .046875 L .37500 -.23438 L .093750 -.23438 Q .062500 -.23438 .062500 -.25000 Q .062500 -.26562 .093750 -.26562 L .37500 -.26562 L .37500 -.54688 Q .37500 -.57812 .39062 -.57812 Q .40625 -.57812 .40625 -.54688 L .40625 -.26562 L .68750 -.26562 Q .71875 -.26562 .71875 -.25000 Q .71875 -.23438 .68750 -.23438 L .40625 -.23438 z" />
            <title id="title420">$\frac{u^2}{g}+1m$</title>
            <desc id="desc422">text1_1 = &quot;$\frac{u^2}{g}+1m$&quot;</desc>
          </g>
        </g>
      </g>
      <g id="g424" transform="matrix(21.000, 0.0000, 0.0000, 21.000, 470.41, 210.46)">
        <clipPath id="clip32">
          <path id="path427" d="M -22.400 -10.022 L -22.400 1.6922 L 1.6473 1.6922 L 1.6473 -10.022 z" />
        </clipPath>
        <g id="g429" clip-path="url(#clip32)">
          <g id="g431" fill="#000000" stroke="none" fill-rule="nonzero" fill-opacity="1.0000">
            <path id="path433" d="M .29688 -.67188 L .29688 -.062500 L .42188 -.062500 L .42188 -0.0000 L .093750 -0.0000 L .093750 -.062500 L .21875 -.062500 L .21875 -.57812 Q .17188 -.56250 .093750 -.54688 L .093750 -.60938 Q .21875 -.60938 .28125 -.67188 L .29688 -.67188 z" />
            <title id="title435">$\frac{u^2}{g}+1m$</title>
            <desc id="desc437">text1_1 = &quot;$\frac{u^2}{g}+1m$&quot;</desc>
          </g>
        </g>
      </g>
      <g id="g439" transform="matrix(21.000, 0.0000, 0.0000, 21.000, 480.91, 210.46)">
        <clipPath id="clip33">
          <path id="path442" d="M -22.900 -10.022 L -22.900 1.6922 L 1.1473 1.6922 L 1.1473 -10.022 z" />
        </clipPath>
        <g id="g444" clip-path="url(#clip33)">
          <g id="g446" fill="#000000" stroke="none" fill-rule="nonzero" fill-opacity="1.0000">
            <path id="path448" d="M .71875 -.29688 L .71875 -0.0000 L .64062 -0.0000 L .64062 -.29688 Q .64062 -.31250 .63281 -.32812 Q .62500 -.34375 .61719 -.35938 Q .60938 -.37500 .58594 -.38281 Q .56250 -.39062 .53125 -.39062 Q .48438 -.39062 .46094 -.34375 Q .43750 -.29688 .43750 -.25000 L .43750 -0.0000 L .35938 -0.0000 L .35938 -.29688 Q .35938 -.31250 .35938 -.32812 Q .35938 -.34375 .35156 -.35938 Q .34375 -.37500 .32031 -.38281 Q .29688 -.39062 .26562 -.39062 Q .20312 -.39062 .17969 -.34375 Q .15625 -.29688 .15625 -.25000 L .15625 -0.0000 L .078125 -0.0000 L .078125 -.45312 L .15625 -.45312 L .15625 -.37500 Q .21875 -.45312 .29688 -.45312 Q .40625 -.45312 .42188 -.37500 Q .48438 -.45312 .57812 -.45312 Q .71875 -.45312 .71875 -.29688 z" />
            <title id="title450">$\frac{u^2}{g}+1m$</title>
            <desc id="desc452">text1_1 = &quot;$\frac{u^2}{g}+1m$&quot;</desc>
          </g>
        </g>
      </g>
    </g>
    <g id="layer2" />
    <g id="layer3">
      <clipPath id="clip34">
        <path id="path457" d="M 0.0000 0.0000 L 0.0000 246.00 L 505.00 246.00 L 505.00 0.0000 z" />
      </clipPath>
      <g id="g459" clip-path="url(#clip34)">
        <g id="g461" stroke="#000000" stroke-opacity="1.0000" fill="none" stroke-linecap="butt" stroke-dasharray="9.0000,8.0000" stroke-linejoin="round">
          <path id="path463" d="M -428.94 1337.0 C -12.271 -329.67 404.40 -329.67 821.06 1337.0" />
          <title id="title465">Parabola d</title>
          <desc id="desc467">d: y = -0.25xÃ&#130;Â² + x</desc>
        </g>
      </g>
      <clipPath id="clip35">
        <path id="path470" d="M 0.0000 0.0000 L 0.0000 246.00 L 505.00 246.00 L 505.00 0.0000 z" />
      </clipPath>
      <g id="g472" clip-path="url(#clip35)">
        <g id="g474" fill="#000000" stroke="none" fill-rule="nonzero" fill-opacity="1.0000">
          <path id="path476" d="M -88.143 399.00 L -88.143 397.21 Q -89.197 399.22 -91.324 399.22 Q -93.047 399.22 -94.036 397.96 Q -95.024 396.71 -95.024 394.53 Q -95.024 392.14 -93.904 390.69 Q -92.783 389.24 -90.955 389.24 Q -89.259 389.24 -88.143 390.54 L -88.143 385.12 L -86.402 385.12 L -86.402 399.00 z M -88.143 391.73 Q -89.487 390.54 -90.691 390.54 Q -93.179 390.54 -93.179 394.35 Q -93.179 397.70 -90.964 397.70 Q -89.522 397.70 -88.143 396.13 z" />
          <title id="title478">Parabola d</title>
          <desc id="desc480">d: y = -0.25xÃ&#130;Â² + x</desc>
        </g>
      </g>
      <clipPath id="clip36">
        <path id="path483" d="M 0.0000 0.0000 L 0.0000 246.00 L 505.00 246.00 L 505.00 0.0000 z" />
      </clipPath>
      <g id="g485" clip-path="url(#clip36)">
        <g id="g487" stroke="#000000" stroke-opacity="1.0000" fill="none" stroke-linecap="round" stroke-linejoin="round">
          <path id="path489" d="M -546.12 1630.0 C -25.292 -453.36 495.54 -453.36 1016.4 1630.0" />
          <title id="title491">Parabola c</title>
          <desc id="desc493">c: y = -0.2xÃ&#130;Â² + x</desc>
        </g>
      </g>
      <clipPath id="clip37">
        <path id="path496" d="M 0.0000 0.0000 L 0.0000 246.00 L 505.00 246.00 L 505.00 0.0000 z" />
      </clipPath>
      <g id="g498" clip-path="url(#clip37)">
        <g id="g500" fill="#000000" stroke="none" fill-rule="nonzero" fill-opacity="1.0000">
          <path id="path502" d="M -129.54 458.22 Q -131.48 458.22 -132.75 456.79 Q -134.02 455.35 -134.02 453.17 Q -134.02 450.85 -132.76 449.54 Q -131.50 448.24 -129.24 448.24 Q -128.13 448.24 -126.75 448.55 L -126.75 450.00 Q -128.21 449.57 -129.14 449.57 Q -130.46 449.57 -131.27 450.57 Q -132.07 451.57 -132.07 453.23 Q -132.07 454.84 -131.25 455.83 Q -130.42 456.82 -129.08 456.82 Q -127.90 456.82 -126.64 456.22 L -126.64 457.71 Q -128.32 458.22 -129.54 458.22 z" />
          <title id="title504">Parabola c</title>
          <desc id="desc506">c: y = -0.2xÃ&#130;Â² + x</desc>
        </g>
      </g>
      <clipPath id="clip38">
        <path id="path509" d="M 0.0000 0.0000 L 0.0000 246.00 L 505.00 246.00 L 505.00 0.0000 z" />
      </clipPath>
      <g id="g511" clip-path="url(#clip38)">
        <g id="g513" stroke="#000000" stroke-opacity="1.0000" fill="none" stroke-width="2.5000">
          <path id="path515" d="M 347.31 160.12 L 357.31 170.12" />
          <title id="title517">Point C</title>
          <desc id="desc519">Point C: Point on xAxis</desc>
        </g>
      </g>
      <clipPath id="clip39">
        <path id="path522" d="M 0.0000 0.0000 L 0.0000 246.00 L 505.00 246.00 L 505.00 0.0000 z" />
      </clipPath>
      <g id="g524" clip-path="url(#clip39)">
        <g id="g526" stroke="#000000" stroke-opacity="1.0000" fill="none" stroke-width="2.5000">
          <path id="path528" d="M 347.31 170.12 L 357.31 160.12" />
          <title id="title530">Point C</title>
          <desc id="desc532">Point C: Point on xAxis</desc>
        </g>
      </g>
    </g>
  </g>
</svg>