<?xml version='1.0' ?><svg xmlns:dc="http://purl.org/dc/elements/1.1/" xmlns:cc="http://creativecommons.org/ns#" xmlns:rdf="http://www.w3.org/1999/02/22-rdf-syntax-ns#" xmlns:svg="http://www.w3.org/2000/svg" xmlns="http://www.w3.org/2000/svg" id="svg2" version="1.1" width="372.49996" height="197.30172" viewBox="0.0 1.5445766319463088 461.9999503892617 244.70709970469795" preserveAspectRatio="none">
  <metadata id="metadata450">
    <rdf:RDF>
      <cc:Work rdf:about="">
        <dc:format>image/svg+xml</dc:format>
        <dc:type rdf:resource="http://purl.org/dc/dcmitype/StillImage" />
      </cc:Work>
    </rdf:RDF>
  </metadata>
  <defs id="defs448" />
  <title id="title4" />
  <g id="g6" stroke-linecap="square" stroke-miterlimit="10.000" stroke-width="1.0000" stroke-dasharray="none" stroke-dashoffset="0.0000" stroke-linejoin="miter">
    <clipPath id="clip1">
      <path id="path9" d="M 0.0000 0.0000 L 0.0000 246.00 L 462.00 246.00 L 462.00 0.0000 z" />
    </clipPath>
    <g id="g11" clip-path="url(#clip1)">
      <g id="g13" stroke="#000000" stroke-opacity="1.0000" fill="none" stroke-linecap="butt" stroke-width="2.0000">
        <path id="path15" d="M 41.812 3.0000 L 41.812 246.00" />
      </g>
    </g>
    <clipPath id="clip2">
      <path id="path18" d="M 0.0000 0.0000 L 0.0000 246.00 L 462.00 246.00 L 462.00 0.0000 z" />
    </clipPath>
    <g id="g20" clip-path="url(#clip2)">
      <g id="g22" stroke="#000000" stroke-opacity="1.0000" fill="none" stroke-linecap="butt" stroke-width="2.0000">
        <path id="path24" d="M 41.812 2.0000 L 36.812 7.0000" />
      </g>
    </g>
    <clipPath id="clip3">
      <path id="path27" d="M 0.0000 0.0000 L 0.0000 246.00 L 462.00 246.00 L 462.00 0.0000 z" />
    </clipPath>
    <g id="g29" clip-path="url(#clip3)">
      <g id="g31" stroke="#000000" stroke-opacity="1.0000" fill="none" stroke-linecap="butt" stroke-width="2.0000">
        <path id="path33" d="M 41.812 2.0000 L 46.812 7.0000" />
      </g>
    </g>
    <clipPath id="clip4">
      <path id="path36" d="M 0.0000 0.0000 L 0.0000 246.00 L 462.00 246.00 L 462.00 0.0000 z" />
    </clipPath>
    <g id="g38" clip-path="url(#clip4)">
      <g id="g40" stroke="#000000" stroke-opacity="1.0000" fill="none" stroke-linecap="butt" stroke-width="2.0000">
        <path id="path42" d="M 0.0000 198.12 L 459.00 198.12" />
      </g>
    </g>
    <clipPath id="clip5">
      <path id="path45" d="M 0.0000 0.0000 L 0.0000 246.00 L 462.00 246.00 L 462.00 0.0000 z" />
    </clipPath>
    <g id="g47" clip-path="url(#clip5)">
      <g id="g49" stroke="#000000" stroke-opacity="1.0000" fill="none" stroke-linecap="butt" stroke-width="2.0000">
        <path id="path51" d="M 460.00 198.12 L 455.00 193.12" />
      </g>
    </g>
    <clipPath id="clip6">
      <path id="path54" d="M 0.0000 0.0000 L 0.0000 246.00 L 462.00 246.00 L 462.00 0.0000 z" />
    </clipPath>
    <g id="g56" clip-path="url(#clip6)">
      <g id="g58" stroke="#000000" stroke-opacity="1.0000" fill="none" stroke-linecap="butt" stroke-width="2.0000">
        <path id="path60" d="M 460.00 198.12 L 455.00 203.12" />
      </g>
    </g>
    <g id="misc" />
    <g id="layer0">
      <clipPath id="clip7">
        <path id="path65" d="M 0.0000 0.0000 L 0.0000 246.00 L 462.00 246.00 L 462.00 0.0000 z" />
      </clipPath>
      <g id="g67" clip-path="url(#clip7)">
        <g id="g69" stroke="#0000ff" stroke-opacity="1.0000" fill="none" stroke-width="4.0000">
          <path id="path71" d="M 385.00 190.12 L 401.00 206.12" />
          <title id="title73">Point S</title>
          <desc id="desc75">Point S: Point on xAxis</desc>
        </g>
      </g>
      <clipPath id="clip8">
        <path id="path78" d="M 0.0000 0.0000 L 0.0000 246.00 L 462.00 246.00 L 462.00 0.0000 z" />
      </clipPath>
      <g id="g80" clip-path="url(#clip8)">
        <g id="g82" stroke="#0000ff" stroke-opacity="1.0000" fill="none" stroke-width="4.0000">
          <path id="path84" d="M 385.00 206.12 L 401.00 190.12" />
          <title id="title86">Point S</title>
          <desc id="desc88">Point S: Point on xAxis</desc>
        </g>
      </g>
      <clipPath id="clip9">
        <path id="path91" d="M 0.0000 0.0000 L 0.0000 246.00 L 462.00 246.00 L 462.00 0.0000 z" />
      </clipPath>
      <g id="g93" clip-path="url(#clip9)">
        <g id="g95" fill="#000000" stroke="none" fill-rule="nonzero" fill-opacity="1.0000">
          <path id="path97" d="M 46.812 198.12 C 46.812 200.89 44.574 203.12 41.812 203.12 C 39.051 203.12 36.812 200.89 36.812 198.12 C 36.812 195.36 39.051 193.12 41.812 193.12 C 44.574 193.12 46.812 195.36 46.812 198.12 z" />
          <title id="title99">Point A</title>
          <desc id="desc101">Point A: Point on yAxis</desc>
        </g>
      </g>
      <clipPath id="clip10">
        <path id="path104" d="M 0.0000 0.0000 L 0.0000 246.00 L 462.00 246.00 L 462.00 0.0000 z" />
      </clipPath>
      <g id="g106" clip-path="url(#clip10)">
        <g id="g108" stroke="#000000" stroke-opacity="1.0000" fill="none" stroke-linecap="round" stroke-linejoin="round">
          <path id="path110" d="M 46.812 198.12 C 46.812 200.89 44.574 203.12 41.812 203.12 C 39.051 203.12 36.812 200.89 36.812 198.12 C 36.812 195.36 39.051 193.12 41.812 193.12 C 44.574 193.12 46.812 195.36 46.812 198.12 z" />
          <title id="title112">Point A</title>
          <desc id="desc114">Point A: Point on yAxis</desc>
        </g>
      </g>
      <g id="g116" transform="matrix(21.000, 0.0000, 0.0000, 21.000, 92.000, 187.63)">
        <clipPath id="clip11">
          <path id="path119" d="M -4.3810 -8.9349 L -4.3810 2.7794 L 17.619 2.7794 L 17.619 -8.9349 z" />
        </clipPath>
        <g id="g121" clip-path="url(#clip11)">
          <g id="g123" fill="#000000" stroke="none" fill-rule="nonzero" fill-opacity="1.0000">
            <path id="path125" d="M .57812 -.15625 Q .57812 -.031250 .60938 -.031250 Q .60938 -.031250 .61719 -.031250 Q .62500 -.031250 .64062 -.039062 Q .65625 -.046875 .65625 -.062500 Q .65625 -.062500 .66406 -.070312 Q .67188 -.078125 .68750 -.078125 Q .70312 -.078125 .70312 -.062500 Q .70312 -.031250 .67188 -.0078125 Q .64062 .015625 .60938 .015625 Q .56250 .015625 .53125 -.0078125 Q .50000 -.031250 .48438 -.078125 Q .37500 .015625 .25000 .015625 Q .15625 .015625 .10156 -.031250 Q .046875 -.078125 .046875 -.17188 Q .046875 -.21875 .070312 -.26562 Q .093750 -.31250 .12500 -.35938 Q .15625 -.40625 .21875 -.42969 Q .28125 -.45312 .35938 -.45312 Q .46875 -.45312 .53125 -.39062 Q .54688 -.35938 .56250 -.32812 Q .57812 -.29688 .57812 -.28125 Q .57812 -.26562 .57812 -.23438 Q .62500 -.29688 .65625 -.37500 Q .65625 -.39062 .65625 -.39844 Q .65625 -.40625 .67188 -.40625 Q .70312 -.40625 .70312 -.39062 Q .70312 -.37500 .67188 -.30469 Q .64062 -.23438 .57812 -.15625 z M .26562 -.031250 Q .31250 -.031250 .39062 -.062500 Q .40625 -.062500 .43750 -.085938 Q .46875 -.10938 .46875 -.10938 Q .46875 -.12500 .46875 -.16406 Q .46875 -.20312 .46875 -.20312 Q .46875 -.25000 .46094 -.28125 Q .45312 -.31250 .44531 -.34375 Q .43750 -.37500 .41406 -.39844 Q .39062 -.42188 .35938 -.42188 Q .31250 -.42188 .27344 -.39844 Q .23438 -.37500 .21875 -.32812 Q .18750 -.28125 .17188 -.21875 Q .15625 -.15625 .15625 -.12500 Q .15625 -.078125 .18750 -.054688 Q .21875 -.031250 .26562 -.031250 z" />
            <title id="title127">$\alpha=40^{\circ}$</title>
            <desc id="desc129">text2 = &quot;$\alpha=40^{\circ}$&quot;</desc>
          </g>
        </g>
      </g>
      <g id="g131" transform="matrix(21.000, 0.0000, 0.0000, 21.000, 113.81, 187.63)">
        <clipPath id="clip12">
          <path id="path134" d="M -5.4194 -8.9349 L -5.4194 2.7794 L 16.581 2.7794 L 16.581 -8.9349 z" />
        </clipPath>
        <g id="g136" clip-path="url(#clip12)">
          <g id="g138" fill="#000000" stroke="none" fill-rule="nonzero" fill-opacity="1.0000">
            <path id="path140" d="M .78125 -.32812 L .10938 -.32812 Q .062500 -.32812 .062500 -.35938 Q .062500 -.39062 .10938 -.39062 L .78125 -.39062 Q .82812 -.39062 .82812 -.35938 Q .82812 -.32812 .78125 -.32812 z M .78125 -.10938 L .10938 -.10938 Q .062500 -.10938 .062500 -.14062 Q .062500 -.17188 .10938 -.17188 L .78125 -.17188 Q .82812 -.17188 .82812 -.14062 Q .82812 -.10938 .78125 -.10938 z" />
            <title id="title142">$\alpha=40^{\circ}$</title>
            <desc id="desc144">text2 = &quot;$\alpha=40^{\circ}$&quot;</desc>
          </g>
        </g>
      </g>
      <g id="g146" transform="matrix(21.000, 0.0000, 0.0000, 21.000, 138.42, 187.63)">
        <clipPath id="clip13">
          <path id="path149" d="M -6.5916 -8.9349 L -6.5916 2.7794 L 15.408 2.7794 L 15.408 -8.9349 z" />
        </clipPath>
        <g id="g151" clip-path="url(#clip13)">
          <g id="g153" fill="#000000" stroke="none" fill-rule="nonzero" fill-opacity="1.0000">
            <path id="path155" d="M .43750 -.15625 L .43750 -.046875 L .54688 -.046875 L .54688 -0.0000 Q .50000 -0.0000 .37500 -0.0000 Q .25000 -0.0000 .20312 -0.0000 L .20312 -.046875 L .31250 -.046875 L .31250 -.15625 L .031250 -.15625 L .031250 -.20312 L .37500 -.64062 Q .39062 -.65625 .39844 -.65625 Q .40625 -.65625 .42188 -.65625 Q .43750 -.65625 .43750 -.64844 Q .43750 -.64062 .43750 -.62500 L .43750 -.20312 L .54688 -.20312 L .54688 -.15625 L .43750 -.15625 z M .32812 -.20312 L .32812 -.51562 L .078125 -.20312 L .32812 -.20312 z" />
            <title id="title157">$\alpha=40^{\circ}$</title>
            <desc id="desc159">text2 = &quot;$\alpha=40^{\circ}$&quot;</desc>
          </g>
        </g>
      </g>
      <g id="g161" transform="matrix(21.000, 0.0000, 0.0000, 21.000, 150.50, 187.63)">
        <clipPath id="clip14">
          <path id="path164" d="M -7.1666 -8.9349 L -7.1666 2.7794 L 14.833 2.7794 L 14.833 -8.9349 z" />
        </clipPath>
        <g id="g166" clip-path="url(#clip14)">
          <g id="g168" fill="#000000" stroke="none" fill-rule="nonzero" fill-opacity="1.0000">
            <path id="path170" d="M .53125 -.31250 Q .53125 -.28125 .53125 -.26562 Q .53125 -.25000 .52344 -.21094 Q .51562 -.17188 .50781 -.14844 Q .50000 -.12500 .48438 -.093750 Q .46875 -.062500 .44531 -.039062 Q .42188 -.015625 .38281 -0.0000 Q .34375 .015625 .28125 .015625 Q .23438 .015625 .19531 -0.0000 Q .15625 -.015625 .13281 -.039062 Q .10938 -.062500 .093750 -.093750 Q .078125 -.12500 .070312 -.14844 Q .062500 -.17188 .054688 -.21094 Q .046875 -.25000 .046875 -.26562 Q .046875 -.28125 .046875 -.31250 Q .046875 -.34375 .046875 -.36719 Q .046875 -.39062 .054688 -.42969 Q .062500 -.46875 .070312 -.49219 Q .078125 -.51562 .093750 -.55469 Q .10938 -.59375 .13281 -.60938 Q .15625 -.62500 .19531 -.64062 Q .23438 -.65625 .28906 -.65625 Q .34375 -.65625 .38281 -.64062 Q .42188 -.62500 .44531 -.60938 Q .46875 -.59375 .48438 -.55469 Q .50000 -.51562 .50781 -.49219 Q .51562 -.46875 .52344 -.42969 Q .53125 -.39062 .53125 -.36719 Q .53125 -.34375 .53125 -.31250 z M .28125 -.031250 Q .31250 -.031250 .32812 -.031250 Q .34375 -.031250 .36719 -.062500 Q .39062 -.093750 .39062 -.12500 Q .40625 -.18750 .40625 -.32812 Q .40625 -.51562 .39062 -.56250 Q .37500 -.59375 .34375 -.60938 Q .31250 -.62500 .28125 -.62500 Q .26562 -.62500 .25000 -.61719 Q .23438 -.60938 .21094 -.58594 Q .18750 -.56250 .18750 -.51562 Q .17188 -.46875 .17188 -.32812 Q .17188 -.17188 .18750 -.12500 Q .18750 -.078125 .21875 -.054688 Q .25000 -.031250 .28125 -.031250 z" />
            <title id="title172">$\alpha=40^{\circ}$</title>
            <desc id="desc174">text2 = &quot;$\alpha=40^{\circ}$&quot;</desc>
          </g>
        </g>
      </g>
      <g id="g176" transform="matrix(14.700, 0.0000, 0.0000, 14.700, 162.57, 178.96)">
        <clipPath id="clip15">
          <path id="path179" d="M -11.059 -12.174 L -11.059 4.5604 L 20.369 4.5604 L 20.369 -12.174 z" />
        </clipPath>
        <g id="g181" clip-path="url(#clip15)">
          <g id="g183" fill="#000000" stroke="none" fill-rule="nonzero" fill-opacity="1.0000">
            <path id="path185" d="M .51562 -.25000 Q .51562 -.15625 .45312 -.093750 Q .39062 -.031250 .28125 -.031250 Q .18750 -.031250 .12500 -.093750 Q .062500 -.15625 .062500 -.25000 Q .062500 -.34375 .12500 -.40625 Q .18750 -.46875 .28125 -.46875 Q .39062 -.46875 .45312 -.41406 Q .51562 -.35938 .51562 -.25000 z M .28125 -.093750 Q .35938 -.093750 .40625 -.13281 Q .45312 -.17188 .45312 -.25000 Q .45312 -.32812 .40625 -.36719 Q .35938 -.40625 .28125 -.40625 Q .21875 -.40625 .17188 -.36719 Q .12500 -.32812 .12500 -.25000 Q .12500 -.17188 .17188 -.13281 Q .21875 -.093750 .28125 -.093750 z" />
            <title id="title187">$\alpha=40^{\circ}$</title>
            <desc id="desc189">text2 = &quot;$\alpha=40^{\circ}$&quot;</desc>
          </g>
        </g>
      </g>
      <g id="g191" transform="matrix(21.000, 0.0000, 0.0000, 21.000, 51.000, 133.14)">
        <clipPath id="clip16">
          <path id="path194" d="M -2.4286 -6.3402 L -2.4286 5.3741 L 19.571 5.3741 L 19.571 -6.3402 z" />
        </clipPath>
        <g id="g196" clip-path="url(#clip16)">
          <g id="g198" fill="#000000" stroke="none" fill-rule="nonzero" fill-opacity="1.0000">
            <path id="path200" d="M .56250 -.31250 L .54688 -.23438 Q .53125 -.20312 .51562 -.14062 Q .50000 -.078125 .50000 -.062500 Q .50000 -.031250 .53125 -.031250 Q .56250 -.031250 .59375 -.12500 Q .60938 -.15625 .60938 -.15625 Q .60938 -.15625 .62500 -.15625 Q .64062 -.15625 .64062 -.14062 Q .64062 -.14062 .63281 -.10938 Q .62500 -.078125 .60938 -.046875 Q .57812 .015625 .51562 .015625 Q .43750 .015625 .40625 -.046875 Q .34375 .015625 .28125 .015625 Q .25000 .015625 .22656 .0078125 Q .20312 -0.0000 .17969 -.015625 Q .15625 -.031250 .14062 -.054688 Q .12500 -.078125 .12500 -.12500 Q .12500 -.18750 .18750 -.32812 Q .20312 -.37500 .20312 -.39062 Q .20312 -.40625 .19531 -.41406 Q .18750 -.42188 .18750 -.42188 Q .18750 -.42188 .18750 -.42188 Q .17188 -.42188 .16406 -.41406 Q .15625 -.40625 .14062 -.39844 Q .12500 -.39062 .10938 -.35938 Q .093750 -.32812 .078125 -.29688 Q .078125 -.28125 .062500 -.28125 Q .031250 -.28125 .031250 -.29688 Q .031250 -.31250 .039062 -.33594 Q .046875 -.35938 .070312 -.38281 Q .093750 -.40625 .12500 -.42969 Q .15625 -.45312 .18750 -.45312 Q .23438 -.45312 .26562 -.42969 Q .29688 -.40625 .29688 -.35938 Q .29688 -.34375 .28125 -.31250 Q .23438 -.15625 .23438 -.093750 Q .23438 -.031250 .28125 -.031250 Q .34375 -.031250 .39062 -.093750 Q .40625 -.10938 .40625 -.15625 Q .45312 -.34375 .46875 -.39062 Q .48438 -.42188 .50000 -.42969 Q .51562 -.43750 .53125 -.43750 Q .56250 -.43750 .57031 -.42969 Q .57812 -.42188 .57812 -.40625 Q .57812 -.39062 .56250 -.31250 z" />
            <title id="title202">$u=5ms^{-1}$</title>
            <desc id="desc204">text3 = &quot;$u=5ms^{-1}$&quot;</desc>
          </g>
        </g>
      </g>
      <g id="g206" transform="matrix(21.000, 0.0000, 0.0000, 21.000, 71.135, 133.14)">
        <clipPath id="clip17">
          <path id="path209" d="M -3.3874 -6.3402 L -3.3874 5.3741 L 18.613 5.3741 L 18.613 -6.3402 z" />
        </clipPath>
        <g id="g211" clip-path="url(#clip17)">
          <g id="g213" fill="#000000" stroke="none" fill-rule="nonzero" fill-opacity="1.0000">
            <path id="path215" d="M .78125 -.32812 L .10938 -.32812 Q .062500 -.32812 .062500 -.35938 Q .062500 -.39062 .10938 -.39062 L .78125 -.39062 Q .82812 -.39062 .82812 -.35938 Q .82812 -.32812 .78125 -.32812 z M .78125 -.10938 L .10938 -.10938 Q .062500 -.10938 .062500 -.14062 Q .062500 -.17188 .10938 -.17188 L .78125 -.17188 Q .82812 -.17188 .82812 -.14062 Q .82812 -.10938 .78125 -.10938 z" />
            <title id="title217">$u=5ms^{-1}$</title>
            <desc id="desc219">text3 = &quot;$u=5ms^{-1}$&quot;</desc>
          </g>
        </g>
      </g>
      <g id="g221" transform="matrix(21.000, 0.0000, 0.0000, 21.000, 95.751, 133.14)">
        <clipPath id="clip18">
          <path id="path224" d="M -4.5596 -6.3402 L -4.5596 5.3741 L 17.440 5.3741 L 17.440 -6.3402 z" />
        </clipPath>
        <g id="g226" clip-path="url(#clip18)">
          <g id="g228" fill="#000000" stroke="none" fill-rule="nonzero" fill-opacity="1.0000">
            <path id="path230" d="M .51562 -.20312 Q .51562 -.10938 .44531 -.046875 Q .37500 .015625 .26562 .015625 Q .17188 .015625 .11719 -.039062 Q .062500 -.093750 .062500 -.15625 Q .062500 -.18750 .078125 -.20312 Q .093750 -.21875 .10156 -.22656 Q .10938 -.23438 .12500 -.23438 Q .14062 -.23438 .16406 -.21875 Q .18750 -.20312 .18750 -.15625 Q .18750 -.12500 .17188 -.10938 Q .15625 -.093750 .12500 -.093750 Q .17188 -.031250 .25000 -.031250 Q .28125 -.031250 .29688 -.039062 Q .31250 -.046875 .32812 -.054688 Q .34375 -.062500 .35156 -.078125 Q .35938 -.093750 .36719 -.10938 Q .37500 -.12500 .37500 -.14062 Q .37500 -.15625 .37500 -.17188 Q .37500 -.18750 .37500 -.20312 Q .37500 -.23438 .37500 -.25000 Q .37500 -.26562 .36719 -.29688 Q .35938 -.32812 .35156 -.33594 Q .34375 -.34375 .32812 -.35938 Q .31250 -.37500 .28125 -.37500 Q .20312 -.37500 .15625 -.31250 Q .14062 -.31250 .12500 -.31250 Q .12500 -.31250 .11719 -.31250 Q .10938 -.31250 .10938 -.32031 Q .10938 -.32812 .10938 -.34375 L .10938 -.62500 Q .10938 -.64062 .10938 -.64062 Q .10938 -.64062 .10938 -.64844 Q .10938 -.65625 .12500 -.65625 Q .12500 -.65625 .14062 -.65625 Q .21875 -.62500 .29688 -.62500 Q .37500 -.62500 .43750 -.65625 Q .45312 -.65625 .45312 -.65625 Q .46875 -.65625 .46875 -.64062 Q .46875 -.62500 .45312 -.60156 Q .43750 -.57812 .40625 -.55469 Q .37500 -.53125 .32812 -.51562 Q .28125 -.50000 .23438 -.50000 Q .20312 -.50000 .15625 -.50000 L .15625 -.37500 Q .21875 -.40625 .29688 -.40625 Q .39062 -.40625 .45312 -.35156 Q .51562 -.29688 .51562 -.20312 z" />
            <title id="title232">$u=5ms^{-1}$</title>
            <desc id="desc234">text3 = &quot;$u=5ms^{-1}$&quot;</desc>
          </g>
        </g>
      </g>
      <g id="g236" transform="matrix(21.000, 0.0000, 0.0000, 21.000, 107.83, 133.14)">
        <clipPath id="clip19">
          <path id="path239" d="M -5.1346 -6.3402 L -5.1346 5.3741 L 16.865 5.3741 L 16.865 -6.3402 z" />
        </clipPath>
        <g id="g241" clip-path="url(#clip19)">
          <g id="g243" fill="#000000" stroke="none" fill-rule="nonzero" fill-opacity="1.0000">
            <path id="path245" d="M .43750 -.10938 L .46875 -.29688 Q .48438 -.32812 .48438 -.35938 Q .48438 -.42188 .43750 -.42188 Q .39062 -.42188 .32812 -.37500 Q .31250 -.35938 .28906 -.33594 Q .26562 -.31250 .26562 -.29688 Q .26562 -.29688 .25781 -.24219 Q .25000 -.18750 .23438 -.18750 Q .23438 -.12500 .21875 -.062500 Q .20312 -.046875 .20312 -.039062 Q .20312 -.031250 .19531 -.015625 Q .18750 -0.0000 .17188 .0078125 Q .15625 .015625 .14062 .015625 Q .12500 .015625 .10938 -0.0000 Q .093750 -.015625 .093750 -.031250 Q .093750 -.031250 .10938 -.078125 L .14062 -.21875 Q .14062 -.23438 .15625 -.31250 Q .17188 -.35938 .17188 -.37500 Q .17188 -.42188 .15625 -.42188 Q .10938 -.42188 .078125 -.31250 Q .078125 -.28125 .078125 -.28125 Q .078125 -.28125 .062500 -.28125 Q .031250 -.28125 .031250 -.29688 Q .031250 -.29688 .039062 -.33594 Q .046875 -.37500 .062500 -.39062 Q .10938 -.45312 .15625 -.45312 Q .20312 -.45312 .23438 -.42969 Q .26562 -.40625 .28125 -.37500 Q .34375 -.45312 .43750 -.45312 Q .50000 -.45312 .54688 -.43750 Q .57812 -.40625 .59375 -.35938 Q .67188 -.45312 .76562 -.45312 Q .82812 -.45312 .86719 -.42969 Q .90625 -.40625 .90625 -.34375 Q .90625 -.28125 .84375 -.12500 Q .82812 -.078125 .82812 -.046875 Q .82812 -.031250 .83594 -.031250 Q .84375 -.031250 .84375 -.031250 Q .84375 -.031250 .84375 -.031250 Q .85938 -.031250 .86719 -.031250 Q .87500 -.031250 .89062 -.046875 Q .90625 -.062500 .92188 -.085938 Q .93750 -.10938 .95312 -.15625 Q .95312 -.15625 .96875 -.15625 Q 1.0000 -.15625 1.0000 -.14062 Q 1.0000 -.14062 .99219 -.11719 Q .98438 -.093750 .96094 -.062500 Q .93750 -.031250 .90625 -.0078125 Q .87500 .015625 .84375 .015625 Q .79688 .015625 .76562 -.015625 Q .73438 -.046875 .73438 -.078125 Q .73438 -.093750 .75000 -.14062 Q .81250 -.29688 .81250 -.35938 Q .81250 -.42188 .75000 -.42188 Q .67188 -.42188 .60938 -.32812 Q .59375 -.29688 .59375 -.28125 Q .53125 -.046875 .53125 -.031250 Q .50000 .015625 .46875 .015625 Q .43750 .015625 .42188 -0.0000 Q .40625 -.015625 .40625 -.031250 Q .40625 -.031250 .43750 -.10938 z" />
            <title id="title247">$u=5ms^{-1}$</title>
            <desc id="desc249">text3 = &quot;$u=5ms^{-1}$&quot;</desc>
          </g>
        </g>
      </g>
      <g id="g251" transform="matrix(21.000, 0.0000, 0.0000, 21.000, 129.51, 133.14)">
        <clipPath id="clip20">
          <path id="path254" d="M -6.1670 -6.3402 L -6.1670 5.3741 L 15.833 5.3741 L 15.833 -6.3402 z" />
        </clipPath>
        <g id="g256" clip-path="url(#clip20)">
          <g id="g258" fill="#000000" stroke="none" fill-rule="nonzero" fill-opacity="1.0000">
            <path id="path260" d="M .40625 -.39062 Q .39062 -.42188 .32812 -.42188 Q .29688 -.42188 .26562 -.40625 Q .23438 -.39062 .22656 -.37500 Q .21875 -.35938 .21875 -.35156 Q .21875 -.34375 .21875 -.34375 Q .21875 -.32812 .23438 -.31250 Q .25000 -.29688 .26562 -.29688 Q .28125 -.29688 .31250 -.28125 Q .39062 -.26562 .42188 -.25000 Q .45312 -.20312 .45312 -.15625 Q .45312 -.15625 .45312 -.14844 Q .45312 -.14062 .44531 -.11719 Q .43750 -.093750 .42188 -.078125 Q .40625 -.062500 .38281 -.039062 Q .35938 -.015625 .32031 -0.0000 Q .28125 .015625 .23438 .015625 Q .15625 .015625 .10938 -.015625 Q .062500 -.046875 .062500 -.093750 Q .062500 -.12500 .078125 -.14844 Q .093750 -.17188 .12500 -.17188 Q .14062 -.17188 .15625 -.15625 Q .17188 -.14062 .17188 -.12500 Q .17188 -.093750 .15625 -.078125 Q .14062 -.062500 .12500 -.046875 Q .15625 -.031250 .23438 -.031250 Q .28125 -.031250 .31250 -.046875 Q .34375 -.062500 .35938 -.078125 Q .37500 -.093750 .37500 -.10156 Q .37500 -.10938 .37500 -.12500 Q .37500 -.17188 .29688 -.18750 Q .23438 -.18750 .21875 -.19531 Q .20312 -.20312 .17188 -.21875 Q .14062 -.25000 .14062 -.29688 Q .14062 -.32812 .15625 -.35938 Q .17188 -.39062 .20312 -.42188 Q .25000 -.45312 .32812 -.45312 Q .40625 -.45312 .43750 -.42969 Q .46875 -.40625 .46875 -.35938 Q .46875 -.32812 .45312 -.31250 Q .43750 -.29688 .42188 -.29688 Q .39062 -.29688 .38281 -.30469 Q .37500 -.31250 .37500 -.34375 Q .37500 -.34375 .38281 -.36719 Q .39062 -.39062 .40625 -.39062 z" />
            <title id="title262">$u=5ms^{-1}$</title>
            <desc id="desc264">text3 = &quot;$u=5ms^{-1}$&quot;</desc>
          </g>
        </g>
      </g>
      <g id="g266" transform="matrix(14.700, 0.0000, 0.0000, 14.700, 140.66, 124.47)">
        <clipPath id="clip21">
          <path id="path269" d="M -9.5689 -8.4676 L -9.5689 8.2671 L 21.860 8.2671 L 21.860 -8.4676 z" />
        </clipPath>
        <g id="g271" clip-path="url(#clip21)">
          <g id="g273" fill="#000000" stroke="none" fill-rule="nonzero" fill-opacity="1.0000">
            <path id="path275" d="M .75000 -.21875 L .14062 -.21875 Q .093750 -.21875 .093750 -.25000 Q .093750 -.28125 .14062 -.28125 L .75000 -.28125 Q .79688 -.28125 .79688 -.25000 Q .79688 -.21875 .75000 -.21875 z" />
            <title id="title277">$u=5ms^{-1}$</title>
            <desc id="desc279">text3 = &quot;$u=5ms^{-1}$&quot;</desc>
          </g>
        </g>
      </g>
      <g id="g281" transform="matrix(14.700, 0.0000, 0.0000, 14.700, 153.81, 124.47)">
        <clipPath id="clip22">
          <path id="path284" d="M -10.463 -8.4676 L -10.463 8.2671 L 20.965 8.2671 L 20.965 -8.4676 z" />
        </clipPath>
        <g id="g286" clip-path="url(#clip22)">
          <g id="g288" fill="#000000" stroke="none" fill-rule="nonzero" fill-opacity="1.0000">
            <path id="path290" d="M .35938 -.62500 L .35938 -.046875 L .50000 -.046875 L .50000 -0.0000 Q .45312 -0.0000 .29688 -0.0000 Q .14062 -0.0000 .093750 -0.0000 L .093750 -.046875 L .23438 -.046875 L .23438 -.56250 Q .17188 -.54688 .10938 -.54688 L .078125 -.54688 L .078125 -.59375 L .10938 -.59375 Q .23438 -.59375 .31250 -.64062 Q .31250 -.65625 .32812 -.65625 Q .34375 -.65625 .35156 -.64844 Q .35938 -.64062 .35938 -.62500 z" />
            <title id="title292">$u=5ms^{-1}$</title>
            <desc id="desc294">text3 = &quot;$u=5ms^{-1}$&quot;</desc>
          </g>
        </g>
      </g>
      <g id="g296" transform="matrix(21.000, 0.0000, 0.0000, 21.000, 15.000, 22.333)">
        <clipPath id="clip23">
          <path id="path299" d="M -.71429 -1.0635 L -.71429 10.651 L 21.286 10.651 L 21.286 -1.0635 z" />
        </clipPath>
        <g id="g301" clip-path="url(#clip23)">
          <g id="g303" fill="#000000" stroke="none" fill-rule="nonzero" fill-opacity="1.0000">
            <path id="path305" d="M .57812 -.37500 L .48438 -0.0000 Q .46875 .093750 .38281 .14844 Q .29688 .20312 .20312 .20312 Q .14062 .20312 .10938 .17969 Q .078125 .15625 .078125 .10938 Q .078125 .078125 .093750 .054688 Q .10938 .031250 .14062 .031250 Q .15625 .031250 .17188 .046875 Q .18750 .062500 .18750 .078125 Q .18750 .12500 .14062 .15625 Q .17188 .17188 .20312 .17188 Q .26562 .17188 .31250 .11719 Q .35938 .062500 .37500 -.015625 Q .32812 .015625 .28125 .015625 Q .25000 .015625 .22656 .0078125 Q .20312 -0.0000 .17969 -.015625 Q .15625 -.031250 .14062 -.054688 Q .12500 -.078125 .12500 -.12500 Q .12500 -.15625 .14062 -.20312 Q .15625 -.25000 .18750 -.32812 Q .20312 -.37500 .20312 -.39062 Q .20312 -.40625 .19531 -.41406 Q .18750 -.42188 .18750 -.42188 Q .18750 -.42188 .18750 -.42188 Q .17188 -.42188 .16406 -.41406 Q .15625 -.40625 .14062 -.39844 Q .12500 -.39062 .10938 -.35938 Q .093750 -.32812 .078125 -.29688 Q .078125 -.28125 .062500 -.28125 Q .031250 -.28125 .031250 -.29688 Q .031250 -.31250 .039062 -.33594 Q .046875 -.35938 .070312 -.38281 Q .093750 -.40625 .12500 -.42969 Q .15625 -.45312 .18750 -.45312 Q .23438 -.45312 .26562 -.42969 Q .29688 -.40625 .29688 -.35938 Q .29688 -.34375 .28125 -.31250 Q .23438 -.15625 .23438 -.093750 Q .23438 -.031250 .28125 -.031250 Q .31250 -.031250 .35938 -.046875 Q .35938 -.046875 .36719 -.054688 Q .37500 -.062500 .38281 -.078125 Q .39062 -.093750 .39062 -.093750 Q .40625 -.12500 .43750 -.26562 L .46875 -.37500 Q .46875 -.39062 .46875 -.39844 Q .46875 -.40625 .47656 -.42188 Q .48438 -.43750 .50000 -.43750 Q .51562 -.43750 .53125 -.43750 Q .56250 -.43750 .57031 -.42969 Q .57812 -.42188 .57812 -.40625 Q .57812 -.39062 .57812 -.37500 z" />
            <title id="title307">$y$</title>
            <desc id="desc309">text4 = &quot;$y$&quot;</desc>
          </g>
        </g>
      </g>
      <g id="g311" transform="matrix(21.000, 0.0000, 0.0000, 21.000, 440.00, 218.33)">
        <clipPath id="clip24">
          <path id="path314" d="M -20.952 -10.397 L -20.952 1.3175 L 1.0476 1.3175 L 1.0476 -10.397 z" />
        </clipPath>
        <g id="g316" clip-path="url(#clip24)">
          <g id="g318" fill="#000000" stroke="none" fill-rule="nonzero" fill-opacity="1.0000">
            <path id="path320" d="M .53125 -.40625 Q .51562 -.42188 .48438 -.42188 Q .46875 -.42188 .43750 -.39844 Q .40625 -.37500 .40625 -.32812 Q .40625 -.31250 .39062 -.25781 Q .37500 -.20312 .37500 -.18750 Q .34375 -.093750 .34375 -.078125 Q .34375 -.031250 .40625 -.031250 Q .43750 -.031250 .48438 -.062500 Q .53125 -.093750 .54688 -.15625 Q .54688 -.15625 .56250 -.15625 Q .59375 -.15625 .59375 -.14844 Q .59375 -.14062 .57812 -.10938 Q .56250 -.078125 .53906 -.054688 Q .51562 -.031250 .47656 -.0078125 Q .43750 .015625 .39062 .015625 Q .29688 .015625 .26562 -.046875 Q .21875 .015625 .15625 .015625 Q .10938 .015625 .070312 -.015625 Q .031250 -.046875 .031250 -.078125 Q .031250 -.10938 .054688 -.13281 Q .078125 -.15625 .10938 -.15625 Q .14062 -.15625 .14844 -.14062 Q .15625 -.12500 .15625 -.10938 Q .15625 -.093750 .14062 -.070312 Q .12500 -.046875 .10938 -.046875 Q .12500 -.031250 .15625 -.031250 Q .18750 -.031250 .21094 -.054688 Q .23438 -.078125 .23438 -.12500 L .26562 -.25000 Q .29688 -.34375 .29688 -.35938 Q .29688 -.42188 .23438 -.42188 Q .20312 -.42188 .16406 -.39062 Q .12500 -.35938 .093750 -.29688 Q .093750 -.28125 .078125 -.28125 Q .046875 -.28125 .046875 -.29688 Q .046875 -.31250 .062500 -.33594 Q .078125 -.35938 .10156 -.38281 Q .12500 -.40625 .16406 -.42969 Q .20312 -.45312 .25000 -.45312 Q .34375 -.45312 .39062 -.39062 Q .42188 -.45312 .48438 -.45312 Q .53125 -.45312 .57031 -.42969 Q .60938 -.40625 .60938 -.35938 Q .60938 -.32812 .58594 -.30469 Q .56250 -.28125 .53125 -.28125 Q .51562 -.28125 .50000 -.29688 Q .48438 -.31250 .48438 -.32812 Q .48438 -.35938 .50000 -.37500 Q .51562 -.39062 .53125 -.40625 z" />
            <title id="title322">$x$</title>
            <desc id="desc324">text5 = &quot;$x$&quot;</desc>
          </g>
        </g>
      </g>
    </g>
    <g id="layer1">
      <clipPath id="clip25">
        <path id="path328" d="M 0.0000 0.0000 L 0.0000 246.00 L 462.00 246.00 L 462.00 0.0000 z" />
      </clipPath>
      <g id="g330" clip-path="url(#clip25)">
        <g id="g332" fill="#000000" stroke="none" fill-rule="nonzero" fill-opacity="1.0000">
          <path id="path334" d="M 377.49 228.00 L 377.49 226.48 Q 378.25 224.71 380.55 222.63 L 381.55 221.74 Q 383.46 220.01 383.46 218.31 Q 383.46 217.22 382.81 216.59 Q 382.15 215.97 381.01 215.97 Q 379.66 215.97 377.82 217.01 L 377.82 215.48 Q 379.55 214.67 381.26 214.67 Q 383.08 214.67 384.19 215.65 Q 385.30 216.64 385.30 218.26 Q 385.30 219.43 384.74 220.34 Q 384.18 221.24 382.66 222.53 L 381.99 223.10 Q 379.91 224.87 379.59 226.48 L 385.24 226.48 L 385.24 228.00 z M 389.14 228.00 L 389.14 225.83 L 391.31 225.83 L 391.31 228.00 z M 395.27 228.05 L 395.27 226.51 Q 396.56 227.02 397.73 227.02 Q 399.01 227.02 399.74 226.27 Q 400.48 225.51 400.48 224.19 Q 400.48 221.26 396.44 221.26 Q 395.99 221.26 395.49 221.32 L 395.49 214.99 L 402.07 214.99 L 402.07 216.50 L 397.01 216.50 L 397.01 219.93 Q 399.51 219.93 400.92 221.08 Q 402.32 222.23 402.32 224.27 Q 402.32 226.17 401.04 227.25 Q 399.77 228.33 397.50 228.33 Q 396.51 228.33 395.27 228.05 z M 406.19 228.00 L 406.19 218.46 L 407.92 218.46 L 407.92 220.25 Q 409.19 218.24 411.17 218.24 Q 413.09 218.24 413.78 220.25 Q 415.01 218.24 416.98 218.24 Q 418.25 218.24 418.94 218.98 Q 419.64 219.72 419.64 221.06 L 419.64 228.00 L 417.90 228.00 L 417.90 221.33 Q 417.90 219.69 416.61 219.69 Q 415.26 219.69 413.78 221.60 L 413.78 228.00 L 412.04 228.00 L 412.04 221.33 Q 412.04 219.69 410.73 219.69 Q 409.42 219.69 407.92 221.60 L 407.92 228.00 z" />
          <title id="title336">2.5m</title>
          <desc id="desc338">text1 = &quot;2.5m&quot;</desc>
        </g>
      </g>
    </g>
    <g id="layer2" />
    <g id="layer3">
      <clipPath id="clip26">
        <path id="path343" d="M 0.0000 0.0000 L 0.0000 246.00 L 462.00 246.00 L 462.00 0.0000 z" />
      </clipPath>
      <g id="g345" clip-path="url(#clip26)">
        <g id="g347" stroke="#000000" stroke-opacity="1.0000" fill="none" stroke-linecap="butt" stroke-width=".50000" stroke-dasharray="8.5000,8.0000" stroke-linejoin="round">
          <path id="path349" d="M -65.875 281.72 C 110.08 110.12 286.04 110.12 462.00 281.72" />
          <title id="title351">Parabola d</title>
          <desc id="desc353">d: y = -0.14xÃ&#130;Â² + 0.58x</desc>
        </g>
      </g>
      <clipPath id="clip27">
        <path id="path356" d="M 0.0000 0.0000 L 0.0000 246.00 L 462.00 246.00 L 462.00 0.0000 z" />
      </clipPath>
      <g id="g358" clip-path="url(#clip27)">
        <g id="g360" fill="#000000" stroke="none" fill-rule="nonzero" fill-opacity="1.0000">
          <path id="path362" d="M -315.14 694.00 L -315.14 692.21 Q -316.20 694.22 -318.32 694.22 Q -320.05 694.22 -321.04 692.96 Q -322.02 691.71 -322.02 689.53 Q -322.02 687.14 -320.90 685.69 Q -319.78 684.24 -317.96 684.24 Q -316.26 684.24 -315.14 685.54 L -315.14 680.12 L -313.40 680.12 L -313.40 694.00 z M -315.14 686.73 Q -316.49 685.54 -317.69 685.54 Q -320.18 685.54 -320.18 689.35 Q -320.18 692.70 -317.96 692.70 Q -316.52 692.70 -315.14 691.13 z" />
          <title id="title364">Parabola d</title>
          <desc id="desc366">d: y = -0.14xÃ&#130;Â² + 0.58x</desc>
        </g>
      </g>
      <clipPath id="clip28">
        <path id="path369" d="M 0.0000 0.0000 L 0.0000 246.00 L 462.00 246.00 L 462.00 0.0000 z" />
      </clipPath>
      <g id="g371" clip-path="url(#clip28)">
        <g id="g373" stroke="#000000" stroke-opacity="1.0000" fill="none" stroke-linecap="butt" stroke-width="2.0000" stroke-dasharray="10.000,8.0000" stroke-linejoin="round">
          <path id="path375" d="M -604.77 1767.7 C -56.529 -425.27 491.72 -425.27 1040.0 1767.7" />
          <title id="title377">Parabola c</title>
          <desc id="desc379">c: y = -0.19xÃ&#130;Â² + 0.86x</desc>
        </g>
      </g>
      <clipPath id="clip29">
        <path id="path382" d="M 0.0000 0.0000 L 0.0000 246.00 L 462.00 246.00 L 462.00 0.0000 z" />
      </clipPath>
      <g id="g384" clip-path="url(#clip29)">
        <g id="g386" fill="#000000" stroke="none" fill-rule="nonzero" fill-opacity="1.0000">
          <path id="path388" d="M -167.54 534.22 Q -169.48 534.22 -170.75 532.79 Q -172.02 531.35 -172.02 529.17 Q -172.02 526.85 -170.76 525.54 Q -169.50 524.24 -167.24 524.24 Q -166.13 524.24 -164.75 524.55 L -164.75 526.00 Q -166.21 525.57 -167.14 525.57 Q -168.46 525.57 -169.27 526.57 Q -170.07 527.57 -170.07 529.23 Q -170.07 530.84 -169.25 531.83 Q -168.42 532.82 -167.08 532.82 Q -165.90 532.82 -164.64 532.22 L -164.64 533.71 Q -166.32 534.22 -167.54 534.22 z" />
          <title id="title390">Parabola c</title>
          <desc id="desc392">c: y = -0.19xÃ&#130;Â² + 0.86x</desc>
        </g>
      </g>
      <clipPath id="clip30">
        <path id="path395" d="M 0.0000 0.0000 L 0.0000 246.00 L 462.00 246.00 L 462.00 0.0000 z" />
      </clipPath>
      <g id="g397" clip-path="url(#clip30)">
        <g id="g399" fill="#0000ff" stroke="none" fill-rule="nonzero" fill-opacity=".15686">
          <path id="path401" d="M 81.813 198.12 C 81.813 188.56 78.387 179.32 72.158 172.06 L 41.813 198.12 z" />
          <title id="title403">Angle Ã&#142;Â²</title>
          <desc id="desc405">Angle Ã&#142;Â²: Angle between S, C, D</desc>
        </g>
      </g>
      <clipPath id="clip31">
        <path id="path408" d="M 0.0000 0.0000 L 0.0000 246.00 L 462.00 246.00 L 462.00 0.0000 z" />
      </clipPath>
      <g id="g410" clip-path="url(#clip31)">
        <g id="g412" stroke="#0000ff" stroke-opacity="1.0000" fill="none" stroke-linecap="round" stroke-width="2.0000" stroke-linejoin="round">
          <path id="path414" d="M 81.813 198.12 C 81.813 188.56 78.387 179.32 72.158 172.06 L 41.813 198.12 z" />
          <title id="title416">Angle Ã&#142;Â²</title>
          <desc id="desc418">Angle Ã&#142;Â²: Angle between S, C, D</desc>
        </g>
      </g>
      <clipPath id="clip32">
        <path id="path421" d="M 0.0000 0.0000 L 0.0000 246.00 L 462.00 246.00 L 462.00 0.0000 z" />
      </clipPath>
      <g id="g423" clip-path="url(#clip32)">
        <g id="g425" stroke="#000000" stroke-opacity="1.0000" fill="none" stroke-linecap="round" stroke-linejoin="round">
          <path id="path427" d="M 41.813 198.12 L 95.379 152.12" />
          <title id="title429">Vector v</title>
          <desc id="desc431">Vector v: Vector[C, D]</desc>
        </g>
      </g>
      <clipPath id="clip33">
        <path id="path434" d="M 0.0000 0.0000 L 0.0000 246.00 L 462.00 246.00 L 462.00 0.0000 z" />
      </clipPath>
      <g id="g436" clip-path="url(#clip33)">
        <g id="g438" fill="#000000" stroke="none" fill-rule="evenodd" fill-opacity="1.0000">
          <path id="path440" d="M 106.00 143.00 L 97.659 154.78 L 93.099 149.47 z" />
          <title id="title442">Vector v</title>
          <desc id="desc444">Vector v: Vector[C, D]</desc>
        </g>
      </g>
    </g>
  </g>
</svg>