<?xml version='1.0' ?><svg xmlns:ns0="http://www.iki.fi/pav/software/textext/" xmlns:dc="http://purl.org/dc/elements/1.1/" xmlns:cc="http://creativecommons.org/ns#" xmlns:rdf="http://www.w3.org/1999/02/22-rdf-syntax-ns#" xmlns:svg="http://www.w3.org/2000/svg" xmlns="http://www.w3.org/2000/svg" id="svg2" version="1.1" width="262.82417" height="224.8758" viewBox="496.5199394736672 73.804044555119 346.9042481387938 296.81581539327135" preserveAspectRatio="none">
  <metadata id="metadata119">
    <rdf:RDF>
      <cc:Work rdf:about="">
        <dc:format>image/svg+xml</dc:format>
        <dc:type rdf:resource="http://purl.org/dc/dcmitype/StillImage" />
        <dc:title />
      </cc:Work>
    </rdf:RDF>
  </metadata>
  <defs id="defs117">
    <clipPath id="clip1">
      <path d="m 0,0 0,296 440,0 0,-296 z" id="path9" />
    </clipPath>
    <clipPath id="clip2">
      <path d="m 0,0 0,296 440,0 0,-296 z" id="path18" />
    </clipPath>
    <clipPath id="clip4">
      <path d="m 0,0 0,296 440,0 0,-296 z" id="path36" />
    </clipPath>
    <clipPath id="clip5">
      <path id="path47" d="m 0,0 0,296 440,0 0,-296 z" />
    </clipPath>
    <clipPath id="clip6">
      <path id="path60" d="m 0,0 0,296 440,0 0,-296 z" />
    </clipPath>
    <clipPath id="clip7">
      <path id="path73" d="m 0,0 0,296 440,0 0,-296 z" />
    </clipPath>
    <clipPath id="clipPath4926" clipPathUnits="userSpaceOnUse">
      <rect ry="0.38965294" y="70.39151" x="633.55682" height="309.73889" width="351.97604" id="rect4928" style="fill:#2b83ba;fill-rule:nonzero;stroke:#000000;stroke-width:1.75988019;stroke-linecap:square;stroke-linejoin:round;stroke-miterlimit:4;stroke-dasharray:none;stroke-dashoffset:0;fill-opacity:1.0;stroke-opacity:1.0" />
    </clipPath>
  </defs>
  <g transform="translate(545.20975,73.22021)" id="misc" style="stroke-width:1;stroke-linecap:square;stroke-linejoin:miter;stroke-miterlimit:10;stroke-dasharray:none;stroke-dashoffset:0" />
  <g transform="translate(-69.390333,1.3996791)" clip-path="url(#clipPath4926)" id="g4895">
    <g style="stroke-width:1;stroke-linecap:square;stroke-linejoin:miter;stroke-miterlimit:10;stroke-dasharray:none;stroke-dashoffset:0" id="g11" clip-path="url(#clip1)" transform="translate(593.07852,73.22021)">
      <g style="fill:none;stroke:#000000;stroke-width:2;stroke-linecap:butt;stroke-opacity:1" id="g13">
        <path id="path15" d="m 215,3 0,293" />
      </g>
    </g>
    <g style="stroke-width:1;stroke-linecap:square;stroke-linejoin:miter;stroke-miterlimit:10;stroke-dasharray:none;stroke-dashoffset:0" id="g20" clip-path="url(#clip2)" transform="translate(593.07852,70.404402)">
      <g style="fill:#000000;fill-opacity:1;fill-rule:evenodd;stroke:none" id="g22">
        <path id="path24" d="m 215,2 -5,20 10,0" />
      </g>
    </g>
    <path style="fill:none;stroke:#000000;stroke-width:2;stroke-linecap:butt;stroke-linejoin:miter;stroke-miterlimit:10;stroke-dasharray:none;stroke-dashoffset:0;stroke-opacity:1" id="path33" d="m 586.31938,225.2202 321.26397,0" />
    <g style="stroke-width:1;stroke-linecap:square;stroke-linejoin:miter;stroke-miterlimit:10;stroke-dasharray:none;stroke-dashoffset:0" id="g38" clip-path="url(#clip4)" transform="translate(474.8145,73.22021)">
      <g style="fill:#000000;fill-opacity:1;fill-rule:evenodd;stroke:none" id="g40">
        <path id="path42" d="m 438,152 -20,-5 0,10" />
      </g>
    </g>
    <g style="stroke-width:1;stroke-linecap:square;stroke-linejoin:miter;stroke-miterlimit:10;stroke-dasharray:none;stroke-dashoffset:0" clip-path="url(#clip5)" id="g49" transform="matrix(-1,0,0,1,1019.8009,73.22021)">
      <g id="g51" style="fill:none;stroke:#2b83ba;stroke-width:2.5;stroke-linecap:round;stroke-linejoin:round;stroke-opacity:1">
        <path d="m 215,252 1.56,-0.05 m 0,0 3.44,-0.45 m 0,0 3.44,-0.92 3.44,-1.4 3.43,-1.87 3.44,-2.34 3.44,-2.82 3.43,-3.28 3.44,-3.76 3.44,-4.23 3.44,-4.71 3.44,-5.18 3.43,-5.65 3.44,-6.12 3.44,-6.6 3.43,-7.07 3.44,-7.54 3.44,-8.01 3.44,-8.49 3.44,-8.96 3.43,-9.43 3.44,-9.9 1.72,-5.13 1.72,-5.25 1.72,-5.36 1.71,-5.49 1.72,-5.6 1.72,-5.72 1.72,-5.84 1.72,-5.955 1.72,-6.075 1.72,-6.193 1.72,-6.311 1.72,-6.429 1.71,-6.547 1.72,-6.666 1.72,-6.783 1.72,-6.902 1.72,-7.02 1.72,-7.138 1.72,-7.257 1.71,-7.374 1.72,-7.493 1.72,-7.6108 1.72,-7.729 L 330,-12.5" id="path53" />
        <title id="title55">Function f</title>
        <desc id="desc57">f(x) = If[0 Ã&#131;Â¢Ã&#130;Â&#137;Ã&#130;Â¤ x Ã&#131;Â¢Ã&#130;Â&#137;Ã&#130;Â¤ 100, xÃ&#131;Â&#130;Ã&#130;Â² - 2]</desc>
      </g>
    </g>
    <g style="stroke-width:1;stroke-linecap:square;stroke-linejoin:miter;stroke-miterlimit:10;stroke-dasharray:none;stroke-dashoffset:0" clip-path="url(#clip6)" id="g62" transform="translate(593.07852,73.22021)">
      <g id="g64" style="fill:#2b83ba;fill-opacity:1;fill-rule:nonzero;stroke:none">
        <path d="m 218,252 c 0,1.66 -1.34,3 -3,3 -1.66,0 -3,-1.34 -3,-3 0,-1.66 1.34,-3 3,-3 1.66,0 3,1.34 3,3 z" id="path66" />
        <title id="title68">Point A</title>
        <desc id="desc70">Point A: Intersection point of f, yAxis with initial value (0, -2)</desc>
      </g>
    </g>
    <g style="stroke:none;stroke-width:1;stroke-linecap:square;stroke-linejoin:miter;stroke-miterlimit:10;stroke-dasharray:none;stroke-dashoffset:0" clip-path="url(#clip7)" id="g75" transform="translate(593.07852,73.22021)">
      <g id="g77" style="fill:none;stroke:none;stroke-linecap:round;stroke-linejoin:round;stroke-opacity:1">
        <path style="stroke:none" d="m 218,252 c 0,1.66 -1.34,3 -3,3 -1.66,0 -3,-1.34 -3,-3 0,-1.66 1.34,-3 3,-3 1.66,0 3,1.34 3,3 z" id="path79" />
        <title id="title81">Point A</title>
        <desc id="desc83">Point A: Intersection point of f, yAxis with initial value (0, -2)</desc>
      </g>
    </g>
    <path id="path4249" d="m 470.64299,223.86131 0,-112.63232 -207.24299,0 0.70806,112.63232" style="fill:none;fill-rule:evenodd;stroke:#000000;stroke-width:1.40790416;stroke-linecap:butt;stroke-linejoin:miter;stroke-opacity:1;stroke-miterlimit:4;stroke-dasharray:4.22371248, 4.22371247999999966;stroke-dashoffset:0" />
  </g>
  <g transform="translate(82.635481,75.219022)" id="misc-8" style="stroke-width:1;stroke-linecap:square;stroke-linejoin:miter;stroke-miterlimit:10;stroke-dasharray:none;stroke-dashoffset:0" />
  <g ns0:preamble="/Users/Lizzie/Documents/Old mac/CMEP folder/underground-inkscape-preamble.tex" ns0:text="$y$" word-spacing="normal" letter-spacing="normal" font-size-adjust="none" font-stretch="normal" font-weight="normal" font-variant="normal" font-style="normal" stroke-miterlimit="10.433" xml:space="preserve" transform="matrix(2.9362894,0,0,-2.9362907,51.07149,1500.5409)" id="g5354" style="font-style:normal;font-variant:normal;font-weight:normal;font-stretch:normal;letter-spacing:normal;word-spacing:normal;text-anchor:start;fill:none;fill-opacity:1;fill-rule:evenodd;stroke:#000000;stroke-width:0.46079534;stroke-linecap:butt;stroke-linejoin:miter;stroke-miterlimit:10.43299961;stroke-dasharray:none;stroke-dashoffset:0;stroke-opacity:1"><path id="path5356" d="m 226.63,480.86 -0.01,0.08 -0.01,0.08 -0.01,0.07 -0.01,0.07 -0.01,0.07 -0.01,0.07 -0.01,0.06 -0.01,0.06 -0.01,0.06 -0.01,0.05 -0.01,0.06 -0.01,0.05 -0.01,0.05 -0.01,0.04 -0.02,0.05 -0.01,0.05 -0.01,0.04 -0.02,0.04 -0.01,0.04 -0.01,0.04 -0.04,0.08 -0.03,0.07 -0.04,0.08 -0.04,0.07 -0.04,0.07 -0.05,0.07 -1.78,-0.3 0.02,-0.18 c 0.11,0.01 0.3,0.04 0.43,0.04 0.67,0 0.77,-0.71 0.83,-1.24 l 0.45,-3.7 c -0.31,-0.48 -0.98,-1.21 -1.18,-1.21 -0.19,0 -0.17,0.37 -0.68,0.37 -0.15,0 -0.47,-0.13 -0.47,-0.49 0,-0.28 0.22,-0.64 0.66,-0.64 0.81,0 1.58,1.15 2.44,2.24 0.5,0.62 2.42,3.46 2.42,4.38 0,0.46 -0.3,0.73 -0.68,0.73 -0.34,0 -0.56,-0.21 -0.56,-0.47 0,-0.45 0.62,-0.57 0.62,-0.82 0,-0.21 -0.09,-0.45 -0.33,-0.88 -0.26,-0.49 -0.68,-1.19 -1.4,-2.18 z" style="fill:#000000;stroke-width:0" /></g>  <g style="font-style:normal;font-variant:normal;font-weight:normal;font-stretch:normal;letter-spacing:normal;word-spacing:normal;text-anchor:start;fill:none;fill-opacity:1;fill-rule:evenodd;stroke:#000000;stroke-width:0.46079531;stroke-linecap:butt;stroke-linejoin:miter;stroke-miterlimit:10.43299961;stroke-dasharray:none;stroke-dashoffset:0;stroke-opacity:1" id="g5524" transform="matrix(3.2552406,0,0,-3.2552423,95.652345,1823.3154)" xml:space="preserve" stroke-miterlimit="10.433" font-style="normal" font-variant="normal" font-weight="normal" font-stretch="normal" font-size-adjust="none" letter-spacing="normal" word-spacing="normal" ns0:text="$x$" ns0:preamble="/Users/Lizzie/Documents/Old mac/CMEP folder/underground-inkscape-preamble.tex"><path style="fill:#000000;stroke-width:0" d="m 223.89435,485.53757 -0.20746,0.57729 c -0.13531,0.35179 -0.33375,0.79378 -0.8028,1.04635 l -1.40715,-0.35179 0.0271,-0.18943 c 0.10824,0.0451 0.27061,0.0632 0.40591,0.0632 0.58631,0 0.86594,-0.43297 1.04634,-0.94713 l 0.35179,-0.9832 -0.69456,-1.0734 c -0.34276,-0.52317 -0.61337,-0.63141 -0.74867,-0.63141 -0.26159,0 -0.22551,0.21648 -0.49611,0.21648 -0.27061,0 -0.40591,-0.2255 -0.40591,-0.39689 0,-0.23452 0.17138,-0.49611 0.55023,-0.49611 0.60435,0 0.91104,0.46003 1.25381,0.97418 l 0.67651,1.04635 0.42395,-1.19969 c 0.1353,-0.38787 0.34277,-0.82084 0.77574,-0.82084 0.62239,0 1.10046,1.01929 1.23576,1.18165 l -0.15334,0.10824 c -0.22551,-0.46003 -0.47807,-0.61337 -0.64945,-0.61337 -0.4871,0 -0.73064,1.44323 -1.04635,2.1017 l 0.58632,0.90202 c 0.14432,0.23453 0.26158,0.40591 0.58631,0.40591 0.1804,0 0.23452,-0.0902 0.46905,-0.0902 0.27962,0 0.41493,0.24354 0.41493,0.44199 0,0.2255 -0.18041,0.35179 -0.52317,0.35179 -0.5322,0 -0.91104,-0.46905 -1.18165,-0.893 z" id="path5526" /></g>  <g style="font-style:normal;font-variant:normal;font-weight:normal;font-stretch:normal;letter-spacing:normal;word-spacing:normal;text-anchor:start;fill:none;fill-opacity:1;fill-rule:evenodd;stroke:#000000;stroke-width:0.55555528;stroke-linecap:butt;stroke-linejoin:miter;stroke-miterlimit:10.43299961;stroke-dasharray:none;stroke-dashoffset:0;stroke-opacity:1" id="g5880" transform="matrix(2.0733721,0,0,-2.0733724,231.63834,1337.3369)" xml:space="preserve" stroke-miterlimit="10.433" font-style="normal" font-variant="normal" font-weight="normal" font-stretch="normal" font-size-adjust="none" letter-spacing="normal" word-spacing="normal" ns0:text="$-2$" ns0:preamble="/Users/Lizzie/Documents/Old mac/CMEP folder/underground-inkscape-preamble.tex"><polygon style="fill:#000000;stroke-width:0" points="230.79,480.61 224.19,480.61 224.19,479.83 230.79,479.83 " id="polygon5882" /><path style="fill:#000000;stroke-width:0" d="m 237.16,478.85 -0.16,0.07 c -0.4,-0.66 -0.64,-0.79 -1.14,-0.79 l -2.77,0 1.95,2.08 c 1.06,1.11 1.52,1.99 1.52,2.93 0,1.17 -0.85,2.08 -2.19,2.08 -1.46,0 -2.22,-0.97 -2.47,-2.35 l 0.25,-0.06 c 0.48,1.15 0.89,1.53 1.74,1.53 1.01,0 1.65,-0.59 1.65,-1.66 0,-1.01 -0.43,-1.9 -1.54,-3.07 l -2.11,-2.23 0,-0.15 4.63,0 z" id="path5884" /></g>  <g style="font-style:normal;font-variant:normal;font-weight:normal;font-stretch:normal;letter-spacing:normal;word-spacing:normal;text-anchor:start;fill:none;fill-opacity:1;fill-rule:evenodd;stroke:#000000;stroke-width:0.76923072;stroke-linecap:butt;stroke-linejoin:miter;stroke-miterlimit:10.43299961;stroke-dasharray:none;stroke-dashoffset:0;stroke-opacity:1" ns0:preamble="/Users/prmb/CMEP/underground-inkscape-preamble.tex" ns0:text="$y=x^2-2$" word-spacing="normal" letter-spacing="normal" font-size-adjust="none" font-stretch="normal" font-weight="normal" font-variant="normal" font-style="normal" stroke-miterlimit="10.433" xml:space="preserve" transform="matrix(2.3236398,0,0,-2.3236399,-22.390577,1224.5179)" id="content"><path style="fill:#000000;stroke-width:0" id="path4341" d="m 226.62,480.83 -0.01,0.08 -0.01,0.08 -0.01,0.07 -0.01,0.07 -0.01,0.07 -0.01,0.07 -0.01,0.06 -0.01,0.06 -0.01,0.06 -0.01,0.05 -0.01,0.06 -0.01,0.05 -0.01,0.05 -0.01,0.05 -0.02,0.04 -0.01,0.05 -0.01,0.04 -0.02,0.04 -0.01,0.04 -0.01,0.04 -0.04,0.08 -0.03,0.07 -0.04,0.08 -0.04,0.07 -0.04,0.07 -0.05,0.07 -1.77,-0.29 0.02,-0.19 c 0.11,0.01 0.3,0.04 0.43,0.04 0.66,0 0.76,-0.7 0.82,-1.24 l 0.45,-3.7 c -0.31,-0.47 -0.98,-1.21 -1.18,-1.21 -0.19,0 -0.16,0.37 -0.67,0.37 -0.16,0 -0.47,-0.13 -0.47,-0.48 0,-0.29 0.22,-0.65 0.66,-0.65 0.8,0 1.57,1.15 2.43,2.24 0.5,0.62 2.41,3.46 2.41,4.38 0,0.46 -0.3,0.73 -0.67,0.73 -0.35,0 -0.56,-0.21 -0.56,-0.47 0,-0.45 0.61,-0.57 0.61,-0.82 0,-0.21 -0.09,-0.44 -0.33,-0.88 -0.26,-0.49 -0.67,-1.19 -1.39,-2.17 z" /><polygon style="fill:#000000;stroke-width:0" id="polygon4343" points="232.64,481.76 232.64,480.98 239.59,480.98 239.59,481.76 " /><polygon style="fill:#000000;stroke-width:0" id="polygon4345" points="232.64,479.4 232.64,478.62 239.59,478.62 239.59,479.4 " /><path style="fill:#000000;stroke-width:0" id="path4347" d="m 246.56,480.61 -0.24,0.65 c -0.14,0.38 -0.36,0.87 -0.88,1.15 l -1.56,-0.39 0.03,-0.21 c 0.12,0.05 0.3,0.07 0.45,0.07 0.65,0 0.96,-0.48 1.16,-1.05 l 0.39,-1.09 -0.77,-1.19 c -0.38,-0.58 -0.68,-0.69 -0.82,-0.69 -0.3,0 -0.25,0.23 -0.56,0.23 -0.3,0 -0.45,-0.25 -0.45,-0.44 0,-0.26 0.19,-0.55 0.62,-0.55 0.66,0 1,0.51 1.38,1.09 l 0.74,1.15 0.47,-1.33 c 0.16,-0.43 0.38,-0.91 0.86,-0.91 0.69,0 1.22,1.13 1.36,1.31 l -0.16,0.12 c -0.25,-0.51 -0.53,-0.67 -0.72,-0.67 -0.53,0 -0.81,1.59 -1.16,2.32 l 0.65,1 c 0.16,0.26 0.29,0.45 0.65,0.45 0.2,0 0.26,-0.1 0.52,-0.1 0.3,0 0.46,0.27 0.46,0.49 0,0.25 -0.2,0.39 -0.58,0.39 -0.59,0 -1,-0.52 -1.31,-0.99 z" /><path style="fill:#000000;stroke-width:0" id="path4349" d="m 253.68,482.4 -0.12,0.06 c -0.29,-0.5 -0.48,-0.6 -0.85,-0.6 l -2.08,0 1.47,1.56 c 0.78,0.84 1.13,1.5 1.13,2.2 0,0.88 -0.64,1.56 -1.64,1.56 -1.09,0 -1.66,-0.72 -1.85,-1.76 l 0.19,-0.04 c 0.35,0.86 0.67,1.15 1.3,1.15 0.76,0 1.24,-0.45 1.24,-1.25 0,-0.76 -0.32,-1.43 -1.16,-2.31 l -1.58,-1.67 0,-0.11 3.48,0 z" /><polygon style="fill:#000000;stroke-width:0" id="polygon4351" points="257.3,480.58 257.3,479.8 263.87,479.8 263.87,480.58 " /><path style="fill:#000000;stroke-width:0" id="path4353" d="m 272.46,478.82 -0.17,0.07 c -0.39,-0.66 -0.64,-0.79 -1.13,-0.79 l -2.77,0 1.95,2.08 c 1.05,1.11 1.51,2 1.51,2.93 0,1.17 -0.85,2.08 -2.18,2.08 -1.45,0 -2.21,-0.97 -2.46,-2.35 l 0.25,-0.06 c 0.47,1.15 0.89,1.53 1.74,1.53 1,0 1.64,-0.59 1.64,-1.66 0,-1.01 -0.43,-1.9 -1.54,-3.07 l -2.1,-2.23 0,-0.14 4.62,0 z" /></g>  <g style="font-style:normal;font-variant:normal;font-weight:normal;font-stretch:normal;letter-spacing:normal;word-spacing:normal;text-anchor:start;fill:none;fill-opacity:1;fill-rule:evenodd;stroke:#000000;stroke-width:0.76923072;stroke-linecap:butt;stroke-linejoin:miter;stroke-miterlimit:10.43299961;stroke-dasharray:none;stroke-dashoffset:0;stroke-opacity:1" id="g4539" transform="matrix(2.3236398,0,0,-2.3236399,-23.487428,1262.9079)" xml:space="preserve" stroke-miterlimit="10.433" font-style="normal" font-variant="normal" font-weight="normal" font-stretch="normal" font-size-adjust="none" letter-spacing="normal" word-spacing="normal" ns0:text="$x\\in(-\\infty,0]$" ns0:preamble="/Users/prmb/CMEP/underground-inkscape-preamble.tex"><path style="fill:#000000;stroke-width:0" d="m 227.03,480.64 -0.23,0.64 c -0.15,0.39 -0.37,0.88 -0.89,1.16 l -1.56,-0.39 0.04,-0.21 c 0.12,0.05 0.29,0.07 0.45,0.07 0.65,0 0.95,-0.48 1.15,-1.05 l 0.39,-1.09 -0.76,-1.19 c -0.38,-0.58 -0.69,-0.7 -0.83,-0.7 -0.3,0 -0.25,0.24 -0.55,0.24 -0.3,0 -0.45,-0.25 -0.45,-0.44 0,-0.26 0.19,-0.55 0.61,-0.55 0.66,0 1,0.51 1.38,1.08 l 0.74,1.16 0.48,-1.33 c 0.15,-0.43 0.38,-0.91 0.86,-0.91 0.68,0 1.21,1.13 1.36,1.31 l -0.17,0.12 c -0.25,-0.51 -0.53,-0.68 -0.72,-0.68 -0.53,0 -0.8,1.6 -1.15,2.33 l 0.64,1 c 0.17,0.26 0.3,0.45 0.65,0.45 0.2,0 0.26,-0.1 0.52,-0.1 0.31,0 0.46,0.27 0.46,0.49 0,0.25 -0.2,0.39 -0.57,0.39 -0.6,0 -1.01,-0.52 -1.32,-0.99 z" id="path4541" /><path style="fill:#000000;stroke-width:0" d="m 240.09,476.92 0,0.78 -3.44,0 c -1.21,0 -2.23,1 -2.43,2.12 l 5.87,0 0,0.78 -5.86,0 c 0.2,1.12 1.22,2.13 2.43,2.13 l 3.43,0 0,0.77 -3.47,0 c -1.88,0 -3.2,-1.54 -3.2,-3.29 0,-1.75 1.34,-3.29 3.23,-3.29 z" id="path4543" /><path style="fill:#000000;stroke-width:0" d="m 247.19,475.33 -0.16,0.13 -0.14,0.13 -0.14,0.13 -0.12,0.13 -0.13,0.13 -0.11,0.13 -0.11,0.13 -0.1,0.14 -0.1,0.13 -0.09,0.13 -0.09,0.14 -0.08,0.14 -0.07,0.14 -0.07,0.14 -0.06,0.14 -0.06,0.14 -0.05,0.15 -0.05,0.15 -0.04,0.16 -0.04,0.15 -0.04,0.16 -0.03,0.16 -0.03,0.17 -0.02,0.17 -0.02,0.17 -0.02,0.18 -0.01,0.18 -0.01,0.18 -0.01,0.19 -0.01,0.19 0,0.2 0,0.21 c 0,2.27 0.36,3.37 2.01,4.78 l -0.11,0.19 c -1.89,-1.13 -2.92,-2.83 -2.92,-5.01 0,-2.01 1.02,-4 2.88,-5.07 z" id="path4545" /><polygon style="fill:#000000;stroke-width:0" points="248.3,480.61 248.3,479.83 254.87,479.83 254.87,480.61 " id="polygon4547" /><path style="fill:#000000;stroke-width:0" d="m 265.74,479.86 0,0.14 -0.01,0.14 -0.02,0.14 -0.02,0.14 -0.02,0.13 -0.04,0.12 -0.03,0.12 -0.05,0.12 -0.04,0.11 -0.05,0.11 -0.06,0.1 -0.06,0.1 -0.06,0.09 -0.07,0.09 -0.07,0.09 -0.07,0.08 -0.08,0.07 -0.08,0.07 -0.09,0.07 -0.08,0.06 -0.09,0.06 -0.09,0.05 -0.09,0.05 -0.09,0.04 -0.1,0.04 -0.09,0.03 -0.1,0.03 -0.1,0.02 -0.1,0.02 -0.1,0.01 -0.1,0.01 -0.1,0 c -1.19,0 -1.73,-0.75 -2.28,-1.73 l 0.24,-0.45 c 0.34,0.49 0.79,1.19 1.84,1.19 1.04,0 1.64,-0.91 1.64,-1.98 0,-0.76 -0.52,-1.41 -1.18,-1.41 -0.8,0 -1.45,0.76 -2.3,2.16 l 0,0.04 -0.24,0.45 c -1.12,1.51 -1.71,1.73 -2.57,1.73 -0.69,0 -2.26,-0.54 -2.26,-2.71 0,-1.63 1.07,-2.37 2.08,-2.37 1.14,0 1.94,0.64 2.47,1.72 l -0.26,0.42 c -0.32,-0.42 -0.88,-1.14 -1.94,-1.14 -1.03,0 -1.64,0.98 -1.64,1.98 0,0.76 0.52,1.4 1.18,1.4 0.81,0 1.55,-0.8 2.4,-2.2 l 0,-0.04 0.26,-0.42 c 0.73,-1.09 1.4,-1.72 2.37,-1.72 1.49,0 2.34,1.48 2.34,2.63 z" id="path4549" /><path style="fill:#000000;stroke-width:0" d="m 267.61,475.57 0.08,0.04 0.07,0.04 0.07,0.04 0.07,0.04 0.07,0.05 0.06,0.04 0.07,0.05 0.06,0.05 0.06,0.05 0.06,0.06 0.05,0.05 0.06,0.06 0.05,0.05 0.05,0.06 0.04,0.06 0.05,0.06 0.04,0.06 0.04,0.06 0.03,0.07 0.04,0.06 0.03,0.06 0.03,0.07 0.03,0.06 0.02,0.07 0.02,0.07 0.02,0.06 0.02,0.07 0.01,0.07 0.01,0.06 0.01,0.07 0,0.07 0,0.06 c 0,0.62 -0.41,1.03 -0.94,1.03 -0.43,0 -0.71,-0.27 -0.71,-0.67 0,-0.41 0.25,-0.61 0.68,-0.61 0.13,0 0.25,0.05 0.35,0.05 0.09,0 0.16,-0.07 0.16,-0.15 0,-0.39 -0.33,-0.83 -0.98,-1.26 z" id="path4551" /><path style="fill:#000000;stroke-width:0" d="m 276.87,481.13 0,0.23 -0.01,0.22 -0.02,0.21 -0.02,0.21 -0.03,0.21 -0.03,0.2 -0.04,0.19 -0.04,0.19 -0.05,0.18 -0.06,0.18 -0.06,0.17 -0.06,0.17 -0.07,0.16 -0.08,0.15 -0.08,0.14 -0.08,0.14 -0.09,0.13 -0.09,0.13 -0.1,0.11 -0.1,0.11 -0.11,0.1 -0.11,0.1 -0.11,0.08 -0.12,0.08 -0.12,0.07 -0.12,0.06 -0.13,0.05 -0.13,0.04 -0.14,0.03 -0.14,0.03 -0.14,0.01 -0.14,0.01 c -1.9,0 -2.72,-1.93 -2.72,-4.02 0,-1.93 0.65,-4.13 2.67,-4.13 l 0,0.31 c -1.01,0 -1.53,1.34 -1.53,3.74 0,2.4 0.53,3.79 1.51,3.79 1.04,0 1.56,-1.38 1.56,-3.84 l 0,0 c 0,-2.34 -0.54,-3.69 -1.54,-3.69 l 0,-0.31 c 1.93,0 2.67,2.03 2.67,4.06 z" id="path4553" /><path style="fill:#000000;stroke-width:0" d="m 280.07,475.39 0,9.66 -2.49,0 0,-0.29 0.99,0 c 0.45,0 0.6,-0.23 0.6,-0.64 l 0,-7.89 c 0,-0.36 -0.14,-0.54 -0.56,-0.54 l -1.03,0 0,-0.3 z" id="path4555" /></g></svg>