<?xml version='1.0' ?><svg xmlns:ns0="http://www.iki.fi/pav/software/textext/" xmlns:dc="http://purl.org/dc/elements/1.1/" xmlns:cc="http://creativecommons.org/ns#" xmlns:rdf="http://www.w3.org/1999/02/22-rdf-syntax-ns#" xmlns:svg="http://www.w3.org/2000/svg" xmlns="http://www.w3.org/2000/svg" xmlns:xlink="http://www.w3.org/1999/xlink" id="svg11240" version="1.1" width="247.80386" height="200.7367" viewBox="38.660999900684935 29.417683228310455 375.9490067808219 304.54232226027403" preserveAspectRatio="none">
  <metadata id="metadata11694">
    <rdf:RDF>
      <cc:Work rdf:about="">
        <dc:format>image/svg+xml</dc:format>
        <dc:type rdf:resource="http://purl.org/dc/dcmitype/StillImage" />
        <dc:title />
      </cc:Work>
    </rdf:RDF>
  </metadata>
  <defs id="defs11692">
    <marker style="overflow:visible;" id="marker12988" refX="0.0" refY="0.0" orient="auto">
      <path transform="scale(0.4) rotate(180) translate(10,0)" style="fill-rule:evenodd;stroke:#000000;stroke-width:1pt;stroke-opacity:1;fill:#000000;fill-opacity:1" d="M 0.0,0.0 L 5.0,-5.0 L -12.5,0.0 L 5.0,5.0 L 0.0,0.0 z " id="path12990" />
    </marker>
    <marker style="overflow:visible;" id="marker12954" refX="0.0" refY="0.0" orient="auto">
      <path transform="scale(0.4) rotate(180) translate(10,0)" style="fill-rule:evenodd;stroke:#000000;stroke-width:1pt;stroke-opacity:1;fill:#000000;fill-opacity:1" d="M 0.0,0.0 L 5.0,-5.0 L -12.5,0.0 L 5.0,5.0 L 0.0,0.0 z " id="path12956" />
    </marker>
    <marker style="overflow:visible;" id="marker12926" refX="0.0" refY="0.0" orient="auto">
      <path transform="scale(0.4) rotate(180) translate(10,0)" style="fill-rule:evenodd;stroke:#000000;stroke-width:1pt;stroke-opacity:1;fill:#000000;fill-opacity:1" d="M 0.0,0.0 L 5.0,-5.0 L -12.5,0.0 L 5.0,5.0 L 0.0,0.0 z " id="path12928" />
    </marker>
    <marker style="overflow:visible;" id="marker12904" refX="0.0" refY="0.0" orient="auto">
      <path transform="scale(0.4) rotate(180) translate(10,0)" style="fill-rule:evenodd;stroke:#000000;stroke-width:1pt;stroke-opacity:1;fill:#000000;fill-opacity:1" d="M 0.0,0.0 L 5.0,-5.0 L -12.5,0.0 L 5.0,5.0 L 0.0,0.0 z " id="path12906" />
    </marker>
    <marker orient="auto" refY="0.0" refX="0.0" id="Arrow1Mend" style="overflow:visible;">
      <path id="path7078" d="M 0.0,0.0 L 5.0,-5.0 L -12.5,0.0 L 5.0,5.0 L 0.0,0.0 z " style="fill-rule:evenodd;stroke:#000000;stroke-width:1pt;stroke-opacity:1;fill:#000000;fill-opacity:1" transform="scale(0.4) rotate(180) translate(10,0)" />
    </marker>
  </defs>
  <path style="fill:none;stroke:#000000;stroke-width:2.5;stroke-linecap:round;stroke-linejoin:round;stroke-miterlimit:10;stroke-dasharray:none;stroke-dashoffset:0;stroke-opacity:1" d="m 109.2,37.238 c -38.267,0 -69.289,66.142 -69.289,147.742 0,81.59 31.022,147.73 69.289,147.73 38.27,0 69.29,-66.14 69.29,-147.73 0,-81.6 -31.02,-147.742 -69.29,-147.742 z" id="path11255" />
  <path style="fill:none;stroke:#000000;stroke-width:2.5;stroke-linecap:round;stroke-linejoin:round;stroke-miterlimit:10;stroke-dasharray:none;stroke-dashoffset:0;stroke-opacity:1" d="m 344.07,37.238 c -38.27,0 -69.29,66.142 -69.29,147.742 0,81.59 31.02,147.73 69.29,147.73 38.27,0 69.29,-66.14 69.29,-147.73 0,-81.6 -31.02,-147.742 -69.29,-147.742 z" id="path11268" />
  <path style="fill:none;stroke:#000000;stroke-width:2.00017524;stroke-linecap:round;stroke-linejoin:round;stroke-miterlimit:10;stroke-dasharray:none;stroke-dashoffset:0;stroke-opacity:1;marker-end:url(#marker12904)" d="M 114.05036,184.17161 337.69073,205.48" id="path11281" />
  <path style="fill:none;stroke:#000000;stroke-width:2.00017524;stroke-linecap:round;stroke-linejoin:round;stroke-miterlimit:10;stroke-dasharray:none;stroke-dashoffset:0;stroke-opacity:1;marker-end:url(#marker12954)" d="m 114.05036,289.36 225.33716,0" id="path11307" />
  <path style="fill:none;stroke:#000000;stroke-width:2.00017524;stroke-linecap:round;stroke-linejoin:round;stroke-miterlimit:10;stroke-dasharray:none;stroke-dashoffset:0;stroke-opacity:1;marker-end:url(#Arrow1Mend)" d="m 113.24197,132.78 224.39876,29.7965" id="path11333" />
  <path style="fill:none;stroke:#000000;stroke-width:2.00017524;stroke-linecap:round;stroke-linejoin:round;stroke-miterlimit:10;stroke-dasharray:none;stroke-dashoffset:0;stroke-opacity:1;marker-end:url(#marker12988)" d="M 114.05036,81.399394 338.23073,117.85029" id="path11359" />
  <path style="fill:none;stroke:#000000;stroke-width:2.00017524;stroke-linecap:round;stroke-linejoin:round;stroke-miterlimit:10;stroke-dasharray:none;stroke-dashoffset:0;stroke-opacity:1;marker-end:url(#marker12926)" d="m 114.05036,237.17 224.08876,11.42" id="path11385" />
  <path style="fill:#0000ff;fill-opacity:1;fill-rule:nonzero;stroke:none;stroke-width:1;stroke-linecap:square;stroke-linejoin:miter;stroke-miterlimit:10;stroke-dasharray:none;stroke-dashoffset:0" d="m 114.2,132.78 c 0,2.76 -2.24,5 -5,5 -2.76,0 -5,-2.24 -5,-5 0,-2.76 2.24,-5 5,-5 2.76,0 5,2.24 5,5 z" id="path11411" />
  <path style="fill:none;stroke:#000000;stroke-width:1;stroke-linecap:round;stroke-linejoin:round;stroke-miterlimit:10;stroke-dasharray:none;stroke-dashoffset:0;stroke-opacity:1" d="m 114.2,132.78 c 0,2.76 -2.24,5 -5,5 -2.76,0 -5,-2.24 -5,-5 0,-2.76 2.24,-5 5,-5 2.76,0 5,2.24 5,5 z" id="path11424" />
  <path style="fill:#0000ff;fill-opacity:1;fill-rule:nonzero;stroke:none;stroke-width:1;stroke-linecap:square;stroke-linejoin:miter;stroke-miterlimit:10;stroke-dasharray:none;stroke-dashoffset:0" d="m 114.2,184.98 c 0,2.76 -2.24,5 -5,5 -2.76,0 -5,-2.24 -5,-5 0,-2.77 2.24,-5 5,-5 2.76,0 5,2.23 5,5 z" id="path11437" />
  <path style="fill:none;stroke:#000000;stroke-width:1;stroke-linecap:round;stroke-linejoin:round;stroke-miterlimit:10;stroke-dasharray:none;stroke-dashoffset:0;stroke-opacity:1" d="m 114.2,184.98 c 0,2.76 -2.24,5 -5,5 -2.76,0 -5,-2.24 -5,-5 0,-2.77 2.24,-5 5,-5 2.76,0 5,2.23 5,5 z" id="path11450" />
  <path style="fill:#0000ff;fill-opacity:1;fill-rule:nonzero;stroke:none;stroke-width:1;stroke-linecap:square;stroke-linejoin:miter;stroke-miterlimit:10;stroke-dasharray:none;stroke-dashoffset:0" d="m 114.2,289.36 c 0,2.76 -2.24,5 -5,5 -2.76,0 -5,-2.24 -5,-5 0,-2.76 2.24,-5 5,-5 2.76,0 5,2.24 5,5 z" id="path11463" />
  <path style="fill:none;stroke:#000000;stroke-width:1;stroke-linecap:round;stroke-linejoin:round;stroke-miterlimit:10;stroke-dasharray:none;stroke-dashoffset:0;stroke-opacity:1" d="m 114.2,289.36 c 0,2.76 -2.24,5 -5,5 -2.76,0 -5,-2.24 -5,-5 0,-2.76 2.24,-5 5,-5 2.76,0 5,2.24 5,5 z" id="path11476" />
  <path style="fill:#0000ff;fill-opacity:1;fill-rule:nonzero;stroke:none;stroke-width:1;stroke-linecap:square;stroke-linejoin:miter;stroke-miterlimit:10;stroke-dasharray:none;stroke-dashoffset:0" d="m 348.92,119.64 c 0,2.76 -2.24,5 -5,5 -2.77,0 -5,-2.24 -5,-5 0,-2.76 2.23,-5 5,-5 2.76,0 5,2.24 5,5 z" id="path11515" />
  <path style="fill:none;stroke:#000000;stroke-width:1;stroke-linecap:round;stroke-linejoin:round;stroke-miterlimit:10;stroke-dasharray:none;stroke-dashoffset:0;stroke-opacity:1" d="m 348.92,119.64 c 0,2.76 -2.24,5 -5,5 -2.77,0 -5,-2.24 -5,-5 0,-2.76 2.23,-5 5,-5 2.76,0 5,2.24 5,5 z" id="path11528" />
  <path style="fill:#0000ff;fill-opacity:1;fill-rule:nonzero;stroke:none;stroke-width:1;stroke-linecap:square;stroke-linejoin:miter;stroke-miterlimit:10;stroke-dasharray:none;stroke-dashoffset:0" d="m 348.61,163.61 c 0,2.77 -2.24,5 -5,5 -2.76,0 -5,-2.23 -5,-5 0,-2.76 2.24,-5 5,-5 2.76,0 5,2.24 5,5 z" id="path11541" />
  <path style="fill:none;stroke:#000000;stroke-width:1;stroke-linecap:round;stroke-linejoin:round;stroke-miterlimit:10;stroke-dasharray:none;stroke-dashoffset:0;stroke-opacity:1" d="m 348.61,163.61 c 0,2.77 -2.24,5 -5,5 -2.76,0 -5,-2.23 -5,-5 0,-2.76 2.24,-5 5,-5 2.76,0 5,2.24 5,5 z" id="path11554" />
  <path style="fill:#0000ff;fill-opacity:1;fill-rule:nonzero;stroke:none;stroke-width:1;stroke-linecap:square;stroke-linejoin:miter;stroke-miterlimit:10;stroke-dasharray:none;stroke-dashoffset:0" d="m 348.92,206.98 c 0,2.76 -2.24,5 -5,5 -2.77,0 -5,-2.24 -5,-5 0,-2.76 2.23,-5 5,-5 2.76,0 5,2.24 5,5 z" id="path11567" />
  <path style="fill:none;stroke:#000000;stroke-width:1;stroke-linecap:round;stroke-linejoin:round;stroke-miterlimit:10;stroke-dasharray:none;stroke-dashoffset:0;stroke-opacity:1" d="m 348.92,206.98 c 0,2.76 -2.24,5 -5,5 -2.77,0 -5,-2.24 -5,-5 0,-2.76 2.23,-5 5,-5 2.76,0 5,2.24 5,5 z" id="path11580" />
  <path style="fill:#0000ff;fill-opacity:1;fill-rule:nonzero;stroke:none;stroke-width:1;stroke-linecap:square;stroke-linejoin:miter;stroke-miterlimit:10;stroke-dasharray:none;stroke-dashoffset:0" d="m 348.61,249.42 c 0,2.76 -2.24,5 -5,5 -2.76,0 -5,-2.24 -5,-5 0,-2.76 2.24,-5 5,-5 2.76,0 5,2.24 5,5 z" id="path11593" />
  <path style="fill:none;stroke:#000000;stroke-width:1;stroke-linecap:round;stroke-linejoin:round;stroke-miterlimit:10;stroke-dasharray:none;stroke-dashoffset:0;stroke-opacity:1" d="m 348.61,249.42 c 0,2.76 -2.24,5 -5,5 -2.76,0 -5,-2.24 -5,-5 0,-2.76 2.24,-5 5,-5 2.76,0 5,2.24 5,5 z" id="path11606" />
  <path style="fill:#0000ff;fill-opacity:1;fill-rule:nonzero;stroke:none;stroke-width:1;stroke-linecap:square;stroke-linejoin:miter;stroke-miterlimit:10;stroke-dasharray:none;stroke-dashoffset:0" d="m 349.07,289.36 c 0,2.76 -2.24,5 -5,5 -2.76,0 -5,-2.24 -5,-5 0,-2.76 2.24,-5 5,-5 2.76,0 5,2.24 5,5 z" id="path11619" />
  <path style="fill:none;stroke:#000000;stroke-width:1;stroke-linecap:round;stroke-linejoin:round;stroke-miterlimit:10;stroke-dasharray:none;stroke-dashoffset:0;stroke-opacity:1" d="m 349.07,289.36 c 0,2.76 -2.24,5 -5,5 -2.76,0 -5,-2.24 -5,-5 0,-2.76 2.24,-5 5,-5 2.76,0 5,2.24 5,5 z" id="path11632" />
  <path style="fill:#0000ff;fill-opacity:1;fill-rule:nonzero;stroke:none;stroke-width:1;stroke-linecap:square;stroke-linejoin:miter;stroke-miterlimit:10;stroke-dasharray:none;stroke-dashoffset:0" d="m 114.2,80.591 c 0,2.761 -2.24,5 -5,5 -2.76,0 -5,-2.239 -5,-5 0,-2.762 2.24,-5 5,-5 2.76,0 5,2.238 5,5 z" id="path11645" />
  <path style="fill:none;stroke:#000000;stroke-width:1;stroke-linecap:round;stroke-linejoin:round;stroke-miterlimit:10;stroke-dasharray:none;stroke-dashoffset:0;stroke-opacity:1" d="m 114.2,80.591 c 0,2.761 -2.24,5 -5,5 -2.76,0 -5,-2.239 -5,-5 0,-2.762 2.24,-5 5,-5 2.76,0 5,2.238 5,5 z" id="path11658" />
  <path style="fill:#0000ff;fill-opacity:1;fill-rule:nonzero;stroke:none;stroke-width:1;stroke-linecap:square;stroke-linejoin:miter;stroke-miterlimit:10;stroke-dasharray:none;stroke-dashoffset:0" d="m 114.2,237.17 c 0,2.76 -2.24,5 -5,5 -2.76,0 -5,-2.24 -5,-5 0,-2.76 2.24,-5 5,-5 2.76,0 5,2.24 5,5 z" id="path11671" />
  <path style="fill:none;stroke:#000000;stroke-width:1;stroke-linecap:round;stroke-linejoin:round;stroke-miterlimit:10;stroke-dasharray:none;stroke-dashoffset:0;stroke-opacity:1" d="m 114.2,237.17 c 0,2.76 -2.24,5 -5,5 -2.76,0 -5,-2.24 -5,-5 0,-2.76 2.24,-5 5,-5 2.76,0 5,2.24 5,5 z" id="path11684" />
  <g transform="matrix(2.3782554,0,0,2.3782554,-313.85921,-272.28483)" ns0:text="$f$" ns0:preamble="/Users/jdg18/CMEP/Miscellaneous/underground-inkscape-preamble.tex" id="g13144">
    <defs id="defs13146">
      <g id="g13148">
        <symbol style="overflow:visible" overflow="visible" id="textext-dfd92f9f-0">
          <path style="stroke:none" d="m 2.953125,0 0,-8.09375 L 0,-8.09375 0,0 Z m -0.78125,-0.796875 -1.390625,0 0,-6.515625 1.390625,0 z m 0,0" id="path13151" />
        </symbol>
        <symbol style="overflow:visible" overflow="visible" id="textext-dfd92f9f-1">
          <path style="stroke:none" d="m 2.9375,-5.171875 -0.109375,0.453125 0.921875,0 -1.03125,4.046875 C 2.53125,0 2.171875,1.875 1.40625,1.875 1.296875,1.875 1.234375,1.828125 1.234375,1.765625 c 0,-0.140625 0.1875,-0.15625 0.1875,-0.375 C 1.421875,1.203125 1.296875,1 0.984375,1 0.640625,1 0.46875,1.296875 0.46875,1.578125 c 0,0.359375 0.296875,0.640625 0.859375,0.640625 1.046875,0 1.6875,-1.125 2.078125,-2.109375 C 3.578125,-0.328125 3.671875,-0.78125 3.75,-1.09375 l 0.9375,-3.625 0.90625,0 0.140625,-0.453125 -0.953125,0 L 5.015625,-6 c 0.25,-0.921875 0.703125,-1.5625 1.296875,-1.5625 0.140625,0 0.171875,0.03125 0.171875,0.09375 0,0.09375 -0.09375,0.265625 -0.09375,0.4375 0,0.15625 0.078125,0.296875 0.40625,0.296875 0.234375,0 0.484375,-0.140625 0.484375,-0.484375 0,-0.40625 -0.34375,-0.6875 -0.9375,-0.6875 -0.890625,0 -1.40625,0.5 -1.765625,1.0625 C 4.0625,-6.09375 4.125,-5.171875 3.375,-5.171875 Z m 0,0" id="path13154" />
        </symbol>
      </g>
    </defs>
    <g id="textext-dfd92f9f-2">
      <g style="fill:#000000;fill-opacity:1" id="g13157">
        <use height="100%" width="100%" xlink:href="#textext-dfd92f9f-1" x="223.43201" y="134.765" id="use13159" />
      </g>
    </g>
  </g>
  <g id="g16656" ns0:preamble="/Users/jdg18/CMEP/Miscellaneous/underground-inkscape-preamble.tex" ns0:text="$a$" transform="matrix(1.9812765,0,0,1.9812765,-356.2405,-182.31327)">
    <defs id="defs16658">
      <g id="g16660">
        <symbol style="overflow:visible" id="textext-50aada3e-0" overflow="visible">
          <path id="path16663" d="m 2.953125,0 0,-8.09375 L 0,-8.09375 0,0 Z m -0.78125,-0.796875 -1.390625,0 0,-6.515625 1.390625,0 z m 0,0" style="stroke:none" />
        </symbol>
        <symbol style="overflow:visible" id="textext-50aada3e-1" overflow="visible">
          <path id="path16666" d="m 5.59375,-5.0625 -0.953125,0 -0.109375,0.390625 C 4.5,-4.9375 4.25,-5.21875 3.75,-5.21875 c -1.71875,0 -3.28125,2.359375 -3.28125,3.921875 0,0.765625 0.3125,1.421875 1.0625,1.421875 0.453125,0 1.1875,-0.15625 2.046875,-1.25 l 0.046875,0 C 3.5625,-0.9375 3.5,-0.6875 3.5,-0.53125 3.5,-0.15625 3.59375,0.125 3.984375,0.125 4.5625,0.125 5.203125,-0.59375 5.5625,-1.15625 L 5.421875,-1.296875 c -0.453125,0.625 -0.640625,0.640625 -0.75,0.640625 -0.09375,0 -0.171875,-0.0625 -0.171875,-0.203125 0,-0.09375 0.015625,-0.125 0.015625,-0.125 z m -1.25,1.03125 c 0,0.390625 -0.078125,0.875 -0.171875,1.171875 -0.328125,1.125 -1.15625,2.25 -1.984375,2.25 -0.3125,0 -0.6875,-0.15625 -0.6875,-0.78125 0,-0.40625 0.125,-0.9375 0.328125,-1.46875 C 2.234375,-3.84375 2.953125,-4.875 3.75,-4.875 c 0.453125,0 0.59375,0.34375 0.59375,0.84375 z m 0,0" style="stroke:none" />
        </symbol>
      </g>
    </defs>
    <g id="textext-50aada3e-2">
      <g id="g16669" style="fill:#000000;fill-opacity:1">
        <use height="100%" width="100%" id="use16671" y="134.765" x="223.43201" xlink:href="#textext-50aada3e-1" />
      </g>
    </g>
  </g>
  <g transform="matrix(1.9812765,0,0,1.9812765,-356.03928,-129.76765)" ns0:text="$b$" ns0:preamble="/Users/jdg18/CMEP/Miscellaneous/underground-inkscape-preamble.tex" id="g16929">
    <defs id="defs16931">
      <g id="g16933">
        <symbol style="overflow:visible" overflow="visible" id="textext-cb378bf3-0">
          <path style="stroke:none" d="m 2.953125,0 0,-8.09375 L 0,-8.09375 0,0 Z m -0.78125,-0.796875 -1.390625,0 0,-6.515625 1.390625,0 z m 0,0" id="path16936" />
        </symbol>
        <symbol style="overflow:visible" overflow="visible" id="textext-cb378bf3-1">
          <path style="stroke:none" d="m 2.53125,-4.53125 0.875,-3.375 -1.875,0.28125 0.03125,0.1875 c 0.09375,-0.03125 0.234375,-0.046875 0.359375,-0.046875 0.15625,0 0.328125,0.09375 0.34375,0.25 0,0.03125 -0.015625,0.078125 -0.03125,0.125 L 0.53125,-0.4375 c 0.53125,0.359375 1.015625,0.5625 1.640625,0.5625 1.859375,0 3.15625,-2.125 3.15625,-3.5625 0,-0.96875 -0.484375,-1.78125 -1.3125,-1.78125 -0.578125,0 -1.046875,0.359375 -1.4375,0.734375 z M 2.125,-2.984375 c 0.125,-0.53125 0.53125,-1.59375 1.375,-1.59375 0.390625,0 0.84375,0.265625 0.84375,1.09375 0,1.203125 -0.78125,3.265625 -2.21875,3.265625 -0.28125,0 -0.65625,-0.140625 -0.65625,-0.21875 z m 0,0" id="path16939" />
        </symbol>
      </g>
    </defs>
    <g id="textext-cb378bf3-2">
      <g style="fill:#000000;fill-opacity:1" id="g16942">
        <use height="100%" width="100%" xlink:href="#textext-cb378bf3-1" x="223.43201" y="134.765" id="use16944" />
      </g>
    </g>
  </g>
  <g id="g17222" ns0:preamble="/Users/jdg18/CMEP/Miscellaneous/underground-inkscape-preamble.tex" ns0:text="$c$" transform="matrix(1.9812765,0,0,1.9812765,-355.38917,-76.410675)">
    <defs id="defs17224">
      <g id="g17226">
        <symbol style="overflow:visible" id="textext-1a239f2c-0" overflow="visible">
          <path id="path17229" d="m 2.953125,0 0,-8.09375 L 0,-8.09375 0,0 Z m -0.78125,-0.796875 -1.390625,0 0,-6.515625 1.390625,0 z m 0,0" style="stroke:none" />
        </symbol>
        <symbol style="overflow:visible" id="textext-1a239f2c-1" overflow="visible">
          <path id="path17232" d="M 4.296875,-1.3125 C 3.890625,-0.90625 3.34375,-0.515625 2.625,-0.515625 2.078125,-0.515625 1.5,-0.78125 1.5,-1.8125 c 0,-0.953125 0.671875,-3.0625 2.09375,-3.0625 0.28125,0 0.390625,0.109375 0.390625,0.25 0,0.25 -0.34375,0.390625 -0.34375,0.6875 0,0.1875 0.15625,0.4375 0.453125,0.4375 0.453125,0 0.640625,-0.375 0.640625,-0.828125 0,-0.578125 -0.546875,-0.890625 -1.140625,-0.890625 -1.6875,0 -3.125,1.859375 -3.125,3.515625 0,0.90625 0.484375,1.828125 1.625,1.828125 1.015625,0 1.75,-0.578125 2.34375,-1.28125 z m 0,0" style="stroke:none" />
        </symbol>
      </g>
    </defs>
    <g id="textext-1a239f2c-2">
      <g id="g17235" style="fill:#000000;fill-opacity:1">
        <use height="100%" width="100%" id="use17237" y="134.765" x="223.43201" xlink:href="#textext-1a239f2c-1" />
      </g>
    </g>
  </g>
  <g transform="matrix(1.9812765,0,0,1.9812765,-356.87513,-25.487747)" ns0:text="$d$" ns0:preamble="/Users/jdg18/CMEP/Miscellaneous/underground-inkscape-preamble.tex" id="g17535">
    <defs id="defs17537">
      <g id="g17539">
        <symbol style="overflow:visible" overflow="visible" id="textext-8fa67c18-0">
          <path style="stroke:none" d="m 2.953125,0 0,-8.09375 L 0,-8.09375 0,0 Z m -0.78125,-0.796875 -1.390625,0 0,-6.515625 1.390625,0 z m 0,0" id="path17542" />
        </symbol>
        <symbol style="overflow:visible" overflow="visible" id="textext-8fa67c18-1">
          <path style="stroke:none" d="M 6.234375,-7.90625 4.390625,-7.625 4.4375,-7.453125 c 0.09375,-0.015625 0.21875,-0.03125 0.328125,-0.03125 0.296875,0 0.390625,0.078125 0.390625,0.234375 0,0.046875 -0.015625,0.09375 -0.03125,0.140625 L 4.5,-4.625 l -0.015625,0 C 4.46875,-4.921875 4.1875,-5.21875 3.515625,-5.21875 c -1.828125,0 -3.046875,2.640625 -3.046875,3.859375 0,0.625 0.1875,1.5 1.046875,1.5 0.4375,0 1.15625,-0.140625 2.03125,-1.234375 l 0.046875,0 C 3.5,-0.75 3.484375,-0.578125 3.484375,-0.34375 c 0,0.21875 0.09375,0.484375 0.46875,0.484375 0.5625,0 1.1875,-0.703125 1.546875,-1.234375 L 5.359375,-1.25 C 5.203125,-1 4.875,-0.578125 4.625,-0.578125 c -0.109375,0 -0.171875,-0.03125 -0.171875,-0.109375 0,-0.03125 0.015625,-0.109375 0.03125,-0.140625 z m -1.9375,3.875 c 0,0.375 -0.0625,0.828125 -0.1875,1.25 C 3.78125,-1.6875 3,-0.578125 2.171875,-0.578125 1.828125,-0.578125 1.5,-0.78125 1.5,-1.359375 1.5,-2.5 2.46875,-4.875 3.640625,-4.875 c 0.484375,0 0.65625,0.296875 0.65625,0.84375 z m 0,0" id="path17545" />
        </symbol>
      </g>
    </defs>
    <g id="textext-8fa67c18-2">
      <g style="fill:#000000;fill-opacity:1" id="g17548">
        <use height="100%" width="100%" xlink:href="#textext-8fa67c18-1" x="223.43201" y="134.765" id="use17550" />
      </g>
    </g>
  </g>
  <g id="g17868" ns0:preamble="/Users/jdg18/CMEP/Miscellaneous/underground-inkscape-preamble.tex" ns0:text="$e$" transform="matrix(1.9812765,0,0,1.9812765,-355.513,26.249482)">
    <defs id="defs17870">
      <g id="g17872">
        <symbol style="overflow:visible" id="textext-0625c948-0" overflow="visible">
          <path id="path17875" d="m 2.953125,0 0,-8.09375 L 0,-8.09375 0,0 Z m -0.78125,-0.796875 -1.390625,0 0,-6.515625 1.390625,0 z m 0,0" style="stroke:none" />
        </symbol>
        <symbol style="overflow:visible" id="textext-0625c948-1" overflow="visible">
          <path id="path17878" d="M 4.296875,-1.328125 C 3.875,-0.78125 3.296875,-0.5625 2.8125,-0.5625 c -0.734375,0 -1.34375,-0.515625 -1.34375,-1.265625 l 0,-0.34375 c 1.40625,-0.0625 3.390625,-0.640625 3.390625,-2.15625 0,-0.734375 -0.71875,-0.890625 -1.21875,-0.890625 -1.5,0 -2.796875,1.46875 -3.09375,2.796875 -0.0625,0.265625 -0.078125,0.4375 -0.078125,0.703125 0,0.859375 0.46875,1.84375 1.625,1.84375 0.734375,0 1.546875,-0.28125 2.375,-1.296875 z M 1.46875,-2.5 c 0.34375,-1 1.046875,-2.375 1.9375,-2.375 0.28125,0 0.515625,0.21875 0.515625,0.515625 C 3.921875,-3.3125 2.8125,-2.5 1.578125,-2.5 Z m 0,0" style="stroke:none" />
        </symbol>
      </g>
    </defs>
    <g id="textext-0625c948-2">
      <g id="g17881" style="fill:#000000;fill-opacity:1">
        <use height="100%" width="100%" id="use17883" y="134.765" x="223.43201" xlink:href="#textext-0625c948-1" />
      </g>
    </g>
  </g>
  <g transform="matrix(1.9812765,0,0,1.9812765,-85.301134,-143.51035)" ns0:text="$p$" ns0:preamble="/Users/jdg18/CMEP/Miscellaneous/underground-inkscape-preamble.tex" id="g18221">
    <defs id="defs18223">
      <g id="g18225">
        <symbol style="overflow:visible" overflow="visible" id="textext-d46da826-0">
          <path style="stroke:none" d="m 2.953125,0 0,-8.09375 L 0,-8.09375 0,0 Z m -0.78125,-0.796875 -1.390625,0 0,-6.515625 1.390625,0 z m 0,0" id="path18228" />
        </symbol>
        <symbol style="overflow:visible" overflow="visible" id="textext-d46da826-1">
          <path style="stroke:none" d="m 3,-4.375 -0.046875,-0.03125 0.21875,-0.8125 -1.875,0.28125 0.03125,0.1875 c 0.09375,-0.015625 0.234375,-0.046875 0.328125,-0.046875 0.359375,0 0.375,0.171875 0.375,0.390625 l -1.390625,5.5 C 0.5,1.640625 0.421875,1.984375 -0.3125,2.03125 l -0.046875,0.140625 2.78125,0 0.03125,-0.140625 -0.1875,0 c -0.59375,0 -0.71875,-0.25 -0.71875,-0.515625 0,-0.125 0.015625,-0.265625 0.046875,-0.421875 l 0.296875,-1.171875 c 0.21875,0.171875 0.4375,0.21875 0.71875,0.21875 1.703125,0 3,-2 3,-3.53125 0,-1.1875 -0.390625,-1.828125 -1.109375,-1.828125 -0.40625,0 -0.875,0.25 -1.34375,0.6875 z m -0.46875,1.5625 c 0.234375,-1.03125 0.859375,-1.75 1.484375,-1.75 0.265625,0 0.609375,0.234375 0.609375,0.984375 0,1.328125 -0.890625,3.375 -2.09375,3.375 -0.140625,0 -0.375,-0.0625 -0.546875,-0.25 z m 0,0" id="path18231" />
        </symbol>
      </g>
    </defs>
    <g id="textext-d46da826-2">
      <g style="fill:#000000;fill-opacity:1" id="g18234">
        <use height="100%" width="100%" xlink:href="#textext-d46da826-1" x="223.43201" y="134.765" id="use18236" />
      </g>
    </g>
  </g>
  <g id="g18594" ns0:preamble="/Users/jdg18/CMEP/Miscellaneous/underground-inkscape-preamble.tex" ns0:text="$q$" transform="matrix(1.9812765,0,0,1.9812765,-85.997676,-99.048665)">
    <defs id="defs18596">
      <g id="g18598">
        <symbol style="overflow:visible" id="textext-08fc8611-0" overflow="visible">
          <path id="path18601" d="m 2.953125,0 0,-8.09375 L 0,-8.09375 0,0 Z m -0.78125,-0.796875 -1.390625,0 0,-6.515625 1.390625,0 z m 0,0" style="stroke:none" />
        </symbol>
        <symbol style="overflow:visible" id="textext-08fc8611-1" overflow="visible">
          <path id="path18604" d="m 5.484375,-5.0625 -0.953125,0 -0.09375,0.453125 -0.03125,0 C 4.375,-4.921875 4.125,-5.21875 3.546875,-5.21875 c -0.328125,0 -0.703125,0.15625 -1.078125,0.390625 -1.046875,0.6875 -2,2.15625 -2,3.609375 0,0.671875 0.296875,1.359375 1.0625,1.359375 0.421875,0 1.140625,-0.109375 1.921875,-1.21875 l 0.078125,0 L 3.015625,1.09375 C 2.90625,1.546875 2.71875,2.03125 1.90625,2.03125 l -0.21875,0 -0.046875,0.140625 2.96875,0 0.03125,-0.140625 -0.15625,0 c -0.359375,0 -0.59375,-0.21875 -0.59375,-0.578125 0,-0.109375 0,-0.21875 0.046875,-0.34375 z M 4.234375,-4 c 0,1.328125 -0.703125,2.6875 -1.453125,3.21875 -0.21875,0.15625 -0.484375,0.203125 -0.6875,0.203125 -0.5,0 -0.609375,-0.421875 -0.609375,-0.75 0,-1.046875 0.6875,-2.609375 1.453125,-3.234375 0.234375,-0.1875 0.46875,-0.3125 0.71875,-0.3125 0.4375,0 0.578125,0.359375 0.578125,0.875 z m 0,0" style="stroke:none" />
        </symbol>
      </g>
    </defs>
    <g id="textext-08fc8611-2">
      <g id="g18607" style="fill:#000000;fill-opacity:1">
        <use height="100%" width="100%" id="use18609" y="134.765" x="223.43201" xlink:href="#textext-08fc8611-1" />
      </g>
    </g>
  </g>
  <g transform="matrix(1.9812765,0,0,1.9812765,-85.068953,-55.395379)" ns0:text="$r$" ns0:preamble="/Users/jdg18/CMEP/Miscellaneous/underground-inkscape-preamble.tex" id="g18987">
    <defs id="defs18989">
      <g id="g18991">
        <symbol style="overflow:visible" overflow="visible" id="textext-a8449c39-0">
          <path style="stroke:none" d="m 2.953125,0 0,-8.09375 L 0,-8.09375 0,0 Z m -0.78125,-0.796875 -1.390625,0 0,-6.515625 1.390625,0 z m 0,0" id="path18994" />
        </symbol>
        <symbol style="overflow:visible" overflow="visible" id="textext-a8449c39-1">
          <path style="stroke:none" d="M 2.078125,-3.15625 2.625,-5.21875 0.765625,-4.953125 0.78125,-4.765625 C 0.859375,-4.78125 1.015625,-4.8125 1.09375,-4.8125 1.359375,-4.8125 1.5,-4.734375 1.5,-4.578125 1.5,-4.53125 1.484375,-4.4375 1.4375,-4.3125 L 0.359375,0 l 0.90625,0 0.25,-0.90625 c 0.0625,-0.1875 1.09375,-3.234375 1.8125,-3.234375 0.21875,0 0.09375,0.453125 0.5625,0.453125 0.484375,0 0.765625,-0.515625 0.765625,-0.96875 0,-0.3125 -0.171875,-0.5625 -0.515625,-0.5625 -0.65625,0 -1.234375,0.765625 -1.625,1.40625 C 2.375,-3.59375 2.234375,-3.359375 2.125,-3.15625 Z m 0,0" id="path18997" />
        </symbol>
      </g>
    </defs>
    <g id="textext-a8449c39-2">
      <g style="fill:#000000;fill-opacity:1" id="g19000">
        <use height="100%" width="100%" xlink:href="#textext-a8449c39-1" x="223.43201" y="134.765" id="use19002" />
      </g>
    </g>
  </g>
  <g id="g19400" ns0:preamble="/Users/jdg18/CMEP/Miscellaneous/underground-inkscape-preamble.tex" ns0:text="$s$" transform="matrix(1.9812765,0,0,1.9812765,-85.270176,-12.550486)">
    <defs id="defs19402">
      <g id="g19404">
        <symbol style="overflow:visible" id="textext-b2e35a9c-0" overflow="visible">
          <path id="path19407" d="m 2.953125,0 0,-8.09375 L 0,-8.09375 0,0 Z m -0.78125,-0.796875 -1.390625,0 0,-6.515625 1.390625,0 z m 0,0" style="stroke:none" />
        </symbol>
        <symbol style="overflow:visible" id="textext-b2e35a9c-1" overflow="visible">
          <path id="path19410" d="m 4.625,-5.21875 -0.203125,0 c -0.09375,0.109375 -0.21875,0.234375 -0.34375,0.234375 -0.34375,0 -0.578125,-0.234375 -1.09375,-0.234375 -0.65625,0 -1.34375,0.328125 -1.34375,1.265625 0,1.15625 1.53125,1.75 1.53125,2.71875 0,0.46875 -0.15625,1.0625 -0.859375,1.0625 -0.75,0 -1.234375,-0.796875 -1.234375,-1.546875 l -0.1875,0 -0.296875,1.84375 0.203125,0 c 0.140625,-0.203125 0.25,-0.25 0.359375,-0.25 0.140625,0 0.890625,0.25 1.296875,0.25 1.03125,0 1.59375,-0.75 1.59375,-1.484375 0,-1.125 -1.578125,-2.21875 -1.578125,-2.875 0,-0.484375 0.296875,-0.6875 0.59375,-0.6875 0.671875,0 1.09375,0.671875 1.09375,1.421875 l 0.171875,0 z m 0,0" style="stroke:none" />
        </symbol>
      </g>
    </defs>
    <g id="textext-b2e35a9c-2">
      <g id="g19413" style="fill:#000000;fill-opacity:1">
        <use height="100%" width="100%" id="use19415" y="134.765" x="223.43201" xlink:href="#textext-b2e35a9c-1" />
      </g>
    </g>
  </g>
  <g transform="matrix(1.9812765,0,0,1.9812765,-83.89257,27.06083)" ns0:text="$t$" ns0:preamble="/Users/jdg18/CMEP/Miscellaneous/underground-inkscape-preamble.tex" id="g19833">
    <defs id="defs19835">
      <g id="g19837">
        <symbol style="overflow:visible" overflow="visible" id="textext-8294af5b-0">
          <path style="stroke:none" d="m 2.953125,0 0,-8.09375 L 0,-8.09375 0,0 Z m -0.78125,-0.796875 -1.390625,0 0,-6.515625 1.390625,0 z m 0,0" id="path19840" />
        </symbol>
        <symbol style="overflow:visible" overflow="visible" id="textext-8294af5b-1">
          <path style="stroke:none" d="m 3.359375,-5.1875 -0.84375,0 0.375,-1.53125 -0.15625,0 C 2.25,-5.6875 1.53125,-5.25 0.640625,-5.078125 l -0.0625,0.34375 0.921875,0 -0.96875,3.78125 C 0.5,-0.8125 0.46875,-0.65625 0.46875,-0.515625 c 0,0.328125 0.09375,0.625 0.46875,0.625 0.703125,0 1.296875,-0.90625 1.578125,-1.265625 l -0.15625,-0.140625 c -0.4375,0.59375 -0.71875,0.625 -0.71875,0.625 -0.140625,0 -0.1875,-0.078125 -0.1875,-0.140625 0,-0.046875 0.015625,-0.09375 0.03125,-0.140625 l 0.921875,-3.78125 0.828125,0 z m 0,0" id="path19843" />
        </symbol>
      </g>
    </defs>
    <g id="textext-8294af5b-2">
      <g style="fill:#000000;fill-opacity:1" id="g19846">
        <use height="100%" width="100%" xlink:href="#textext-8294af5b-1" x="223.43201" y="134.765" id="use19848" />
      </g>
    </g>
  </g>
</svg>