<?xml version='1.0' ?><svg xmlns:ns0="http://www.iki.fi/pav/software/textext/" xmlns:dc="http://purl.org/dc/elements/1.1/" xmlns:cc="http://creativecommons.org/ns#" xmlns:rdf="http://www.w3.org/1999/02/22-rdf-syntax-ns#" xmlns:svg="http://www.w3.org/2000/svg" xmlns="http://www.w3.org/2000/svg" xmlns:xlink="http://www.w3.org/1999/xlink" id="svg11240" version="1.1" width="247.80386" height="203.38302" viewBox="38.660999900684935 25.40288952968032 375.9490067808219 308.5571159589041" preserveAspectRatio="none">
  <metadata id="metadata11694">
    <rdf:RDF>
      <cc:Work rdf:about="">
        <dc:format>image/svg+xml</dc:format>
        <dc:type rdf:resource="http://purl.org/dc/dcmitype/StillImage" />
        <dc:title />
      </cc:Work>
    </rdf:RDF>
  </metadata>
  <defs id="defs11692">
    <marker style="overflow:visible" id="marker21539" refX="0.0" refY="0.0" orient="auto">
      <path transform="scale(0.4) translate(10,0)" style="fill-rule:evenodd;stroke:#000000;stroke-width:1pt;stroke-opacity:1;fill:#000000;fill-opacity:1" d="M 0.0,0.0 L 5.0,-5.0 L -12.5,0.0 L 5.0,5.0 L 0.0,0.0 z " id="path21541" />
    </marker>
    <marker style="overflow:visible" id="marker21481" refX="0.0" refY="0.0" orient="auto">
      <path transform="scale(0.4) translate(10,0)" style="fill-rule:evenodd;stroke:#000000;stroke-width:1pt;stroke-opacity:1;fill:#000000;fill-opacity:1" d="M 0.0,0.0 L 5.0,-5.0 L -12.5,0.0 L 5.0,5.0 L 0.0,0.0 z " id="path21483" />
    </marker>
    <marker style="overflow:visible" id="marker21429" refX="0.0" refY="0.0" orient="auto">
      <path transform="scale(0.4) translate(10,0)" style="fill-rule:evenodd;stroke:#000000;stroke-width:1pt;stroke-opacity:1;fill:#000000;fill-opacity:1" d="M 0.0,0.0 L 5.0,-5.0 L -12.5,0.0 L 5.0,5.0 L 0.0,0.0 z " id="path21431" />
    </marker>
    <marker style="overflow:visible" id="marker21383" refX="0.0" refY="0.0" orient="auto">
      <path transform="scale(0.4) translate(10,0)" style="fill-rule:evenodd;stroke:#000000;stroke-width:1pt;stroke-opacity:1;fill:#000000;fill-opacity:1" d="M 0.0,0.0 L 5.0,-5.0 L -12.5,0.0 L 5.0,5.0 L 0.0,0.0 z " id="path21385" />
    </marker>
    <marker orient="auto" refY="0.0" refX="0.0" id="Arrow1Mstart" style="overflow:visible">
      <path id="path7075" d="M 0.0,0.0 L 5.0,-5.0 L -12.5,0.0 L 5.0,5.0 L 0.0,0.0 z " style="fill-rule:evenodd;stroke:#000000;stroke-width:1pt;stroke-opacity:1;fill:#000000;fill-opacity:1" transform="scale(0.4) translate(10,0)" />
    </marker>
  </defs>
  <path id="path11255" d="m 109.2,37.238 c -38.267,0 -69.289,66.142 -69.289,147.742 0,81.59 31.022,147.73 69.289,147.73 38.27,0 69.29,-66.14 69.29,-147.73 0,-81.6 -31.02,-147.742 -69.29,-147.742 z" style="fill:none;stroke:#000000;stroke-width:2.5;stroke-linecap:round;stroke-linejoin:round;stroke-miterlimit:10;stroke-dasharray:none;stroke-dashoffset:0;stroke-opacity:1" />
  <path id="path11268" d="m 344.07,37.238 c -38.27,0 -69.29,66.142 -69.29,147.742 0,81.59 31.02,147.73 69.29,147.73 38.27,0 69.29,-66.14 69.29,-147.73 0,-81.6 -31.02,-147.742 -69.29,-147.742 z" style="fill:none;stroke:#000000;stroke-width:2.5;stroke-linecap:round;stroke-linejoin:round;stroke-miterlimit:10;stroke-dasharray:none;stroke-dashoffset:0;stroke-opacity:1" />
  <path id="path11281" d="M 114.05036,184.17161 337.69073,205.48" style="fill:none;stroke:#000000;stroke-width:2.00017535;stroke-linecap:round;stroke-linejoin:round;stroke-miterlimit:10;stroke-dasharray:none;stroke-dashoffset:0;stroke-opacity:1;marker-start:url(#marker21383)" />
  <path id="path11307" d="m 114.05036,289.36 225.33716,0" style="fill:none;stroke:#000000;stroke-width:2.00017535;stroke-linecap:round;stroke-linejoin:round;stroke-miterlimit:10;stroke-dasharray:none;stroke-dashoffset:0;stroke-opacity:1;marker-start:url(#marker21539)" />
  <path id="path11333" d="m 113.24197,132.78 224.39876,29.7965" style="fill:none;stroke:#000000;stroke-width:2.00017535;stroke-linecap:round;stroke-linejoin:round;stroke-miterlimit:10;stroke-dasharray:none;stroke-dashoffset:0;stroke-opacity:1;marker-start:url(#marker21429)" />
  <path id="path11359" d="M 114.05036,81.399394 338.23073,117.85029" style="fill:none;stroke:#000000;stroke-width:2.00017535;stroke-linecap:round;stroke-linejoin:round;stroke-miterlimit:10;stroke-dasharray:none;stroke-dashoffset:0;stroke-opacity:1;marker-start:url(#marker21481)" />
  <path id="path11385" d="m 114.05036,237.17 224.08876,11.42" style="fill:none;stroke:#000000;stroke-width:2.00017535;stroke-linecap:round;stroke-linejoin:round;stroke-miterlimit:10;stroke-dasharray:none;stroke-dashoffset:0;stroke-opacity:1;marker-start:url(#Arrow1Mstart)" />
  <path id="path11411" d="m 114.2,132.78 c 0,2.76 -2.24,5 -5,5 -2.76,0 -5,-2.24 -5,-5 0,-2.76 2.24,-5 5,-5 2.76,0 5,2.24 5,5 z" style="fill:#0000ff;fill-opacity:1;fill-rule:nonzero;stroke:none;stroke-width:1;stroke-linecap:square;stroke-linejoin:miter;stroke-miterlimit:10;stroke-dasharray:none;stroke-dashoffset:0" />
  <path id="path11424" d="m 114.2,132.78 c 0,2.76 -2.24,5 -5,5 -2.76,0 -5,-2.24 -5,-5 0,-2.76 2.24,-5 5,-5 2.76,0 5,2.24 5,5 z" style="fill:none;stroke:#000000;stroke-width:1;stroke-linecap:round;stroke-linejoin:round;stroke-miterlimit:10;stroke-dasharray:none;stroke-dashoffset:0;stroke-opacity:1" />
  <path id="path11437" d="m 114.2,184.98 c 0,2.76 -2.24,5 -5,5 -2.76,0 -5,-2.24 -5,-5 0,-2.77 2.24,-5 5,-5 2.76,0 5,2.23 5,5 z" style="fill:#0000ff;fill-opacity:1;fill-rule:nonzero;stroke:none;stroke-width:1;stroke-linecap:square;stroke-linejoin:miter;stroke-miterlimit:10;stroke-dasharray:none;stroke-dashoffset:0" />
  <path id="path11450" d="m 114.2,184.98 c 0,2.76 -2.24,5 -5,5 -2.76,0 -5,-2.24 -5,-5 0,-2.77 2.24,-5 5,-5 2.76,0 5,2.23 5,5 z" style="fill:none;stroke:#000000;stroke-width:1;stroke-linecap:round;stroke-linejoin:round;stroke-miterlimit:10;stroke-dasharray:none;stroke-dashoffset:0;stroke-opacity:1" />
  <path id="path11463" d="m 114.2,289.36 c 0,2.76 -2.24,5 -5,5 -2.76,0 -5,-2.24 -5,-5 0,-2.76 2.24,-5 5,-5 2.76,0 5,2.24 5,5 z" style="fill:#0000ff;fill-opacity:1;fill-rule:nonzero;stroke:none;stroke-width:1;stroke-linecap:square;stroke-linejoin:miter;stroke-miterlimit:10;stroke-dasharray:none;stroke-dashoffset:0" />
  <path id="path11476" d="m 114.2,289.36 c 0,2.76 -2.24,5 -5,5 -2.76,0 -5,-2.24 -5,-5 0,-2.76 2.24,-5 5,-5 2.76,0 5,2.24 5,5 z" style="fill:none;stroke:#000000;stroke-width:1;stroke-linecap:round;stroke-linejoin:round;stroke-miterlimit:10;stroke-dasharray:none;stroke-dashoffset:0;stroke-opacity:1" />
  <path id="path11515" d="m 348.92,119.64 c 0,2.76 -2.24,5 -5,5 -2.77,0 -5,-2.24 -5,-5 0,-2.76 2.23,-5 5,-5 2.76,0 5,2.24 5,5 z" style="fill:#0000ff;fill-opacity:1;fill-rule:nonzero;stroke:none;stroke-width:1;stroke-linecap:square;stroke-linejoin:miter;stroke-miterlimit:10;stroke-dasharray:none;stroke-dashoffset:0" />
  <path id="path11528" d="m 348.92,119.64 c 0,2.76 -2.24,5 -5,5 -2.77,0 -5,-2.24 -5,-5 0,-2.76 2.23,-5 5,-5 2.76,0 5,2.24 5,5 z" style="fill:none;stroke:#000000;stroke-width:1;stroke-linecap:round;stroke-linejoin:round;stroke-miterlimit:10;stroke-dasharray:none;stroke-dashoffset:0;stroke-opacity:1" />
  <path id="path11541" d="m 348.61,163.61 c 0,2.77 -2.24,5 -5,5 -2.76,0 -5,-2.23 -5,-5 0,-2.76 2.24,-5 5,-5 2.76,0 5,2.24 5,5 z" style="fill:#0000ff;fill-opacity:1;fill-rule:nonzero;stroke:none;stroke-width:1;stroke-linecap:square;stroke-linejoin:miter;stroke-miterlimit:10;stroke-dasharray:none;stroke-dashoffset:0" />
  <path id="path11554" d="m 348.61,163.61 c 0,2.77 -2.24,5 -5,5 -2.76,0 -5,-2.23 -5,-5 0,-2.76 2.24,-5 5,-5 2.76,0 5,2.24 5,5 z" style="fill:none;stroke:#000000;stroke-width:1;stroke-linecap:round;stroke-linejoin:round;stroke-miterlimit:10;stroke-dasharray:none;stroke-dashoffset:0;stroke-opacity:1" />
  <path id="path11567" d="m 348.92,206.98 c 0,2.76 -2.24,5 -5,5 -2.77,0 -5,-2.24 -5,-5 0,-2.76 2.23,-5 5,-5 2.76,0 5,2.24 5,5 z" style="fill:#0000ff;fill-opacity:1;fill-rule:nonzero;stroke:none;stroke-width:1;stroke-linecap:square;stroke-linejoin:miter;stroke-miterlimit:10;stroke-dasharray:none;stroke-dashoffset:0" />
  <path id="path11580" d="m 348.92,206.98 c 0,2.76 -2.24,5 -5,5 -2.77,0 -5,-2.24 -5,-5 0,-2.76 2.23,-5 5,-5 2.76,0 5,2.24 5,5 z" style="fill:none;stroke:#000000;stroke-width:1;stroke-linecap:round;stroke-linejoin:round;stroke-miterlimit:10;stroke-dasharray:none;stroke-dashoffset:0;stroke-opacity:1" />
  <path id="path11593" d="m 348.61,249.42 c 0,2.76 -2.24,5 -5,5 -2.76,0 -5,-2.24 -5,-5 0,-2.76 2.24,-5 5,-5 2.76,0 5,2.24 5,5 z" style="fill:#0000ff;fill-opacity:1;fill-rule:nonzero;stroke:none;stroke-width:1;stroke-linecap:square;stroke-linejoin:miter;stroke-miterlimit:10;stroke-dasharray:none;stroke-dashoffset:0" />
  <path id="path11606" d="m 348.61,249.42 c 0,2.76 -2.24,5 -5,5 -2.76,0 -5,-2.24 -5,-5 0,-2.76 2.24,-5 5,-5 2.76,0 5,2.24 5,5 z" style="fill:none;stroke:#000000;stroke-width:1;stroke-linecap:round;stroke-linejoin:round;stroke-miterlimit:10;stroke-dasharray:none;stroke-dashoffset:0;stroke-opacity:1" />
  <path id="path11619" d="m 349.07,289.36 c 0,2.76 -2.24,5 -5,5 -2.76,0 -5,-2.24 -5,-5 0,-2.76 2.24,-5 5,-5 2.76,0 5,2.24 5,5 z" style="fill:#0000ff;fill-opacity:1;fill-rule:nonzero;stroke:none;stroke-width:1;stroke-linecap:square;stroke-linejoin:miter;stroke-miterlimit:10;stroke-dasharray:none;stroke-dashoffset:0" />
  <path id="path11632" d="m 349.07,289.36 c 0,2.76 -2.24,5 -5,5 -2.76,0 -5,-2.24 -5,-5 0,-2.76 2.24,-5 5,-5 2.76,0 5,2.24 5,5 z" style="fill:none;stroke:#000000;stroke-width:1;stroke-linecap:round;stroke-linejoin:round;stroke-miterlimit:10;stroke-dasharray:none;stroke-dashoffset:0;stroke-opacity:1" />
  <path id="path11645" d="m 114.2,80.591 c 0,2.761 -2.24,5 -5,5 -2.76,0 -5,-2.239 -5,-5 0,-2.762 2.24,-5 5,-5 2.76,0 5,2.238 5,5 z" style="fill:#0000ff;fill-opacity:1;fill-rule:nonzero;stroke:none;stroke-width:1;stroke-linecap:square;stroke-linejoin:miter;stroke-miterlimit:10;stroke-dasharray:none;stroke-dashoffset:0" />
  <path id="path11658" d="m 114.2,80.591 c 0,2.761 -2.24,5 -5,5 -2.76,0 -5,-2.239 -5,-5 0,-2.762 2.24,-5 5,-5 2.76,0 5,2.238 5,5 z" style="fill:none;stroke:#000000;stroke-width:1;stroke-linecap:round;stroke-linejoin:round;stroke-miterlimit:10;stroke-dasharray:none;stroke-dashoffset:0;stroke-opacity:1" />
  <path id="path11671" d="m 114.2,237.17 c 0,2.76 -2.24,5 -5,5 -2.76,0 -5,-2.24 -5,-5 0,-2.76 2.24,-5 5,-5 2.76,0 5,2.24 5,5 z" style="fill:#0000ff;fill-opacity:1;fill-rule:nonzero;stroke:none;stroke-width:1;stroke-linecap:square;stroke-linejoin:miter;stroke-miterlimit:10;stroke-dasharray:none;stroke-dashoffset:0" />
  <path id="path11684" d="m 114.2,237.17 c 0,2.76 -2.24,5 -5,5 -2.76,0 -5,-2.24 -5,-5 0,-2.76 2.24,-5 5,-5 2.76,0 5,2.24 5,5 z" style="fill:none;stroke:#000000;stroke-width:1;stroke-linecap:round;stroke-linejoin:round;stroke-miterlimit:10;stroke-dasharray:none;stroke-dashoffset:0;stroke-opacity:1" />
  <g transform="matrix(1.9812765,0,0,1.9812765,-356.2405,-182.31327)" ns0:text="$a$" ns0:preamble="/Users/jdg18/CMEP/Miscellaneous/underground-inkscape-preamble.tex" id="g16656">
    <defs id="defs16658">
      <g id="g16660">
        <symbol overflow="visible" id="textext-50aada3e-0" style="overflow:visible">
          <path style="stroke:none" d="m 2.953125,0 0,-8.09375 L 0,-8.09375 0,0 Z m -0.78125,-0.796875 -1.390625,0 0,-6.515625 1.390625,0 z m 0,0" id="path16663" />
        </symbol>
        <symbol overflow="visible" id="textext-50aada3e-1" style="overflow:visible">
          <path style="stroke:none" d="m 5.59375,-5.0625 -0.953125,0 -0.109375,0.390625 C 4.5,-4.9375 4.25,-5.21875 3.75,-5.21875 c -1.71875,0 -3.28125,2.359375 -3.28125,3.921875 0,0.765625 0.3125,1.421875 1.0625,1.421875 0.453125,0 1.1875,-0.15625 2.046875,-1.25 l 0.046875,0 C 3.5625,-0.9375 3.5,-0.6875 3.5,-0.53125 3.5,-0.15625 3.59375,0.125 3.984375,0.125 4.5625,0.125 5.203125,-0.59375 5.5625,-1.15625 L 5.421875,-1.296875 c -0.453125,0.625 -0.640625,0.640625 -0.75,0.640625 -0.09375,0 -0.171875,-0.0625 -0.171875,-0.203125 0,-0.09375 0.015625,-0.125 0.015625,-0.125 z m -1.25,1.03125 c 0,0.390625 -0.078125,0.875 -0.171875,1.171875 -0.328125,1.125 -1.15625,2.25 -1.984375,2.25 -0.3125,0 -0.6875,-0.15625 -0.6875,-0.78125 0,-0.40625 0.125,-0.9375 0.328125,-1.46875 C 2.234375,-3.84375 2.953125,-4.875 3.75,-4.875 c 0.453125,0 0.59375,0.34375 0.59375,0.84375 z m 0,0" id="path16666" />
        </symbol>
      </g>
    </defs>
    <g id="textext-50aada3e-2">
      <g style="fill:#000000;fill-opacity:1" id="g16669">
        <use xlink:href="#textext-50aada3e-1" x="223.43201" y="134.765" id="use16671" width="100%" height="100%" />
      </g>
    </g>
  </g>
  <g id="g16929" ns0:preamble="/Users/jdg18/CMEP/Miscellaneous/underground-inkscape-preamble.tex" ns0:text="$b$" transform="matrix(1.9812765,0,0,1.9812765,-356.03928,-129.76765)">
    <defs id="defs16931">
      <g id="g16933">
        <symbol id="textext-cb378bf3-0" overflow="visible" style="overflow:visible">
          <path id="path16936" d="m 2.953125,0 0,-8.09375 L 0,-8.09375 0,0 Z m -0.78125,-0.796875 -1.390625,0 0,-6.515625 1.390625,0 z m 0,0" style="stroke:none" />
        </symbol>
        <symbol id="textext-cb378bf3-1" overflow="visible" style="overflow:visible">
          <path id="path16939" d="m 2.53125,-4.53125 0.875,-3.375 -1.875,0.28125 0.03125,0.1875 c 0.09375,-0.03125 0.234375,-0.046875 0.359375,-0.046875 0.15625,0 0.328125,0.09375 0.34375,0.25 0,0.03125 -0.015625,0.078125 -0.03125,0.125 L 0.53125,-0.4375 c 0.53125,0.359375 1.015625,0.5625 1.640625,0.5625 1.859375,0 3.15625,-2.125 3.15625,-3.5625 0,-0.96875 -0.484375,-1.78125 -1.3125,-1.78125 -0.578125,0 -1.046875,0.359375 -1.4375,0.734375 z M 2.125,-2.984375 c 0.125,-0.53125 0.53125,-1.59375 1.375,-1.59375 0.390625,0 0.84375,0.265625 0.84375,1.09375 0,1.203125 -0.78125,3.265625 -2.21875,3.265625 -0.28125,0 -0.65625,-0.140625 -0.65625,-0.21875 z m 0,0" style="stroke:none" />
        </symbol>
      </g>
    </defs>
    <g id="textext-cb378bf3-2">
      <g id="g16942" style="fill:#000000;fill-opacity:1">
        <use id="use16944" y="134.765" x="223.43201" xlink:href="#textext-cb378bf3-1" width="100%" height="100%" />
      </g>
    </g>
  </g>
  <g transform="matrix(1.9812765,0,0,1.9812765,-355.38917,-76.410675)" ns0:text="$c$" ns0:preamble="/Users/jdg18/CMEP/Miscellaneous/underground-inkscape-preamble.tex" id="g17222">
    <defs id="defs17224">
      <g id="g17226">
        <symbol overflow="visible" id="textext-1a239f2c-0" style="overflow:visible">
          <path style="stroke:none" d="m 2.953125,0 0,-8.09375 L 0,-8.09375 0,0 Z m -0.78125,-0.796875 -1.390625,0 0,-6.515625 1.390625,0 z m 0,0" id="path17229" />
        </symbol>
        <symbol overflow="visible" id="textext-1a239f2c-1" style="overflow:visible">
          <path style="stroke:none" d="M 4.296875,-1.3125 C 3.890625,-0.90625 3.34375,-0.515625 2.625,-0.515625 2.078125,-0.515625 1.5,-0.78125 1.5,-1.8125 c 0,-0.953125 0.671875,-3.0625 2.09375,-3.0625 0.28125,0 0.390625,0.109375 0.390625,0.25 0,0.25 -0.34375,0.390625 -0.34375,0.6875 0,0.1875 0.15625,0.4375 0.453125,0.4375 0.453125,0 0.640625,-0.375 0.640625,-0.828125 0,-0.578125 -0.546875,-0.890625 -1.140625,-0.890625 -1.6875,0 -3.125,1.859375 -3.125,3.515625 0,0.90625 0.484375,1.828125 1.625,1.828125 1.015625,0 1.75,-0.578125 2.34375,-1.28125 z m 0,0" id="path17232" />
        </symbol>
      </g>
    </defs>
    <g id="textext-1a239f2c-2">
      <g style="fill:#000000;fill-opacity:1" id="g17235">
        <use xlink:href="#textext-1a239f2c-1" x="223.43201" y="134.765" id="use17237" width="100%" height="100%" />
      </g>
    </g>
  </g>
  <g id="g17535" ns0:preamble="/Users/jdg18/CMEP/Miscellaneous/underground-inkscape-preamble.tex" ns0:text="$d$" transform="matrix(1.9812765,0,0,1.9812765,-356.87513,-25.487747)">
    <defs id="defs17537">
      <g id="g17539">
        <symbol id="textext-8fa67c18-0" overflow="visible" style="overflow:visible">
          <path id="path17542" d="m 2.953125,0 0,-8.09375 L 0,-8.09375 0,0 Z m -0.78125,-0.796875 -1.390625,0 0,-6.515625 1.390625,0 z m 0,0" style="stroke:none" />
        </symbol>
        <symbol id="textext-8fa67c18-1" overflow="visible" style="overflow:visible">
          <path id="path17545" d="M 6.234375,-7.90625 4.390625,-7.625 4.4375,-7.453125 c 0.09375,-0.015625 0.21875,-0.03125 0.328125,-0.03125 0.296875,0 0.390625,0.078125 0.390625,0.234375 0,0.046875 -0.015625,0.09375 -0.03125,0.140625 L 4.5,-4.625 l -0.015625,0 C 4.46875,-4.921875 4.1875,-5.21875 3.515625,-5.21875 c -1.828125,0 -3.046875,2.640625 -3.046875,3.859375 0,0.625 0.1875,1.5 1.046875,1.5 0.4375,0 1.15625,-0.140625 2.03125,-1.234375 l 0.046875,0 C 3.5,-0.75 3.484375,-0.578125 3.484375,-0.34375 c 0,0.21875 0.09375,0.484375 0.46875,0.484375 0.5625,0 1.1875,-0.703125 1.546875,-1.234375 L 5.359375,-1.25 C 5.203125,-1 4.875,-0.578125 4.625,-0.578125 c -0.109375,0 -0.171875,-0.03125 -0.171875,-0.109375 0,-0.03125 0.015625,-0.109375 0.03125,-0.140625 z m -1.9375,3.875 c 0,0.375 -0.0625,0.828125 -0.1875,1.25 C 3.78125,-1.6875 3,-0.578125 2.171875,-0.578125 1.828125,-0.578125 1.5,-0.78125 1.5,-1.359375 1.5,-2.5 2.46875,-4.875 3.640625,-4.875 c 0.484375,0 0.65625,0.296875 0.65625,0.84375 z m 0,0" style="stroke:none" />
        </symbol>
      </g>
    </defs>
    <g id="textext-8fa67c18-2">
      <g id="g17548" style="fill:#000000;fill-opacity:1">
        <use id="use17550" y="134.765" x="223.43201" xlink:href="#textext-8fa67c18-1" width="100%" height="100%" />
      </g>
    </g>
  </g>
  <g transform="matrix(1.9812765,0,0,1.9812765,-355.513,26.249482)" ns0:text="$e$" ns0:preamble="/Users/jdg18/CMEP/Miscellaneous/underground-inkscape-preamble.tex" id="g17868">
    <defs id="defs17870">
      <g id="g17872">
        <symbol overflow="visible" id="textext-0625c948-0" style="overflow:visible">
          <path style="stroke:none" d="m 2.953125,0 0,-8.09375 L 0,-8.09375 0,0 Z m -0.78125,-0.796875 -1.390625,0 0,-6.515625 1.390625,0 z m 0,0" id="path17875" />
        </symbol>
        <symbol overflow="visible" id="textext-0625c948-1" style="overflow:visible">
          <path style="stroke:none" d="M 4.296875,-1.328125 C 3.875,-0.78125 3.296875,-0.5625 2.8125,-0.5625 c -0.734375,0 -1.34375,-0.515625 -1.34375,-1.265625 l 0,-0.34375 c 1.40625,-0.0625 3.390625,-0.640625 3.390625,-2.15625 0,-0.734375 -0.71875,-0.890625 -1.21875,-0.890625 -1.5,0 -2.796875,1.46875 -3.09375,2.796875 -0.0625,0.265625 -0.078125,0.4375 -0.078125,0.703125 0,0.859375 0.46875,1.84375 1.625,1.84375 0.734375,0 1.546875,-0.28125 2.375,-1.296875 z M 1.46875,-2.5 c 0.34375,-1 1.046875,-2.375 1.9375,-2.375 0.28125,0 0.515625,0.21875 0.515625,0.515625 C 3.921875,-3.3125 2.8125,-2.5 1.578125,-2.5 Z m 0,0" id="path17878" />
        </symbol>
      </g>
    </defs>
    <g id="textext-0625c948-2">
      <g style="fill:#000000;fill-opacity:1" id="g17881">
        <use xlink:href="#textext-0625c948-1" x="223.43201" y="134.765" id="use17883" width="100%" height="100%" />
      </g>
    </g>
  </g>
  <g id="g18221" ns0:preamble="/Users/jdg18/CMEP/Miscellaneous/underground-inkscape-preamble.tex" ns0:text="$p$" transform="matrix(1.9812765,0,0,1.9812765,-85.301134,-143.51035)">
    <defs id="defs18223">
      <g id="g18225">
        <symbol id="textext-d46da826-0" overflow="visible" style="overflow:visible">
          <path id="path18228" d="m 2.953125,0 0,-8.09375 L 0,-8.09375 0,0 Z m -0.78125,-0.796875 -1.390625,0 0,-6.515625 1.390625,0 z m 0,0" style="stroke:none" />
        </symbol>
        <symbol id="textext-d46da826-1" overflow="visible" style="overflow:visible">
          <path id="path18231" d="m 3,-4.375 -0.046875,-0.03125 0.21875,-0.8125 -1.875,0.28125 0.03125,0.1875 c 0.09375,-0.015625 0.234375,-0.046875 0.328125,-0.046875 0.359375,0 0.375,0.171875 0.375,0.390625 l -1.390625,5.5 C 0.5,1.640625 0.421875,1.984375 -0.3125,2.03125 l -0.046875,0.140625 2.78125,0 0.03125,-0.140625 -0.1875,0 c -0.59375,0 -0.71875,-0.25 -0.71875,-0.515625 0,-0.125 0.015625,-0.265625 0.046875,-0.421875 l 0.296875,-1.171875 c 0.21875,0.171875 0.4375,0.21875 0.71875,0.21875 1.703125,0 3,-2 3,-3.53125 0,-1.1875 -0.390625,-1.828125 -1.109375,-1.828125 -0.40625,0 -0.875,0.25 -1.34375,0.6875 z m -0.46875,1.5625 c 0.234375,-1.03125 0.859375,-1.75 1.484375,-1.75 0.265625,0 0.609375,0.234375 0.609375,0.984375 0,1.328125 -0.890625,3.375 -2.09375,3.375 -0.140625,0 -0.375,-0.0625 -0.546875,-0.25 z m 0,0" style="stroke:none" />
        </symbol>
      </g>
    </defs>
    <g id="textext-d46da826-2">
      <g id="g18234" style="fill:#000000;fill-opacity:1">
        <use id="use18236" y="134.765" x="223.43201" xlink:href="#textext-d46da826-1" width="100%" height="100%" />
      </g>
    </g>
  </g>
  <g transform="matrix(1.9812765,0,0,1.9812765,-85.997676,-99.048665)" ns0:text="$q$" ns0:preamble="/Users/jdg18/CMEP/Miscellaneous/underground-inkscape-preamble.tex" id="g18594">
    <defs id="defs18596">
      <g id="g18598">
        <symbol overflow="visible" id="textext-08fc8611-0" style="overflow:visible">
          <path style="stroke:none" d="m 2.953125,0 0,-8.09375 L 0,-8.09375 0,0 Z m -0.78125,-0.796875 -1.390625,0 0,-6.515625 1.390625,0 z m 0,0" id="path18601" />
        </symbol>
        <symbol overflow="visible" id="textext-08fc8611-1" style="overflow:visible">
          <path style="stroke:none" d="m 5.484375,-5.0625 -0.953125,0 -0.09375,0.453125 -0.03125,0 C 4.375,-4.921875 4.125,-5.21875 3.546875,-5.21875 c -0.328125,0 -0.703125,0.15625 -1.078125,0.390625 -1.046875,0.6875 -2,2.15625 -2,3.609375 0,0.671875 0.296875,1.359375 1.0625,1.359375 0.421875,0 1.140625,-0.109375 1.921875,-1.21875 l 0.078125,0 L 3.015625,1.09375 C 2.90625,1.546875 2.71875,2.03125 1.90625,2.03125 l -0.21875,0 -0.046875,0.140625 2.96875,0 0.03125,-0.140625 -0.15625,0 c -0.359375,0 -0.59375,-0.21875 -0.59375,-0.578125 0,-0.109375 0,-0.21875 0.046875,-0.34375 z M 4.234375,-4 c 0,1.328125 -0.703125,2.6875 -1.453125,3.21875 -0.21875,0.15625 -0.484375,0.203125 -0.6875,0.203125 -0.5,0 -0.609375,-0.421875 -0.609375,-0.75 0,-1.046875 0.6875,-2.609375 1.453125,-3.234375 0.234375,-0.1875 0.46875,-0.3125 0.71875,-0.3125 0.4375,0 0.578125,0.359375 0.578125,0.875 z m 0,0" id="path18604" />
        </symbol>
      </g>
    </defs>
    <g id="textext-08fc8611-2">
      <g style="fill:#000000;fill-opacity:1" id="g18607">
        <use xlink:href="#textext-08fc8611-1" x="223.43201" y="134.765" id="use18609" width="100%" height="100%" />
      </g>
    </g>
  </g>
  <g id="g18987" ns0:preamble="/Users/jdg18/CMEP/Miscellaneous/underground-inkscape-preamble.tex" ns0:text="$r$" transform="matrix(1.9812765,0,0,1.9812765,-85.068953,-55.395379)">
    <defs id="defs18989">
      <g id="g18991">
        <symbol id="textext-a8449c39-0" overflow="visible" style="overflow:visible">
          <path id="path18994" d="m 2.953125,0 0,-8.09375 L 0,-8.09375 0,0 Z m -0.78125,-0.796875 -1.390625,0 0,-6.515625 1.390625,0 z m 0,0" style="stroke:none" />
        </symbol>
        <symbol id="textext-a8449c39-1" overflow="visible" style="overflow:visible">
          <path id="path18997" d="M 2.078125,-3.15625 2.625,-5.21875 0.765625,-4.953125 0.78125,-4.765625 C 0.859375,-4.78125 1.015625,-4.8125 1.09375,-4.8125 1.359375,-4.8125 1.5,-4.734375 1.5,-4.578125 1.5,-4.53125 1.484375,-4.4375 1.4375,-4.3125 L 0.359375,0 l 0.90625,0 0.25,-0.90625 c 0.0625,-0.1875 1.09375,-3.234375 1.8125,-3.234375 0.21875,0 0.09375,0.453125 0.5625,0.453125 0.484375,0 0.765625,-0.515625 0.765625,-0.96875 0,-0.3125 -0.171875,-0.5625 -0.515625,-0.5625 -0.65625,0 -1.234375,0.765625 -1.625,1.40625 C 2.375,-3.59375 2.234375,-3.359375 2.125,-3.15625 Z m 0,0" style="stroke:none" />
        </symbol>
      </g>
    </defs>
    <g id="textext-a8449c39-2">
      <g id="g19000" style="fill:#000000;fill-opacity:1">
        <use id="use19002" y="134.765" x="223.43201" xlink:href="#textext-a8449c39-1" width="100%" height="100%" />
      </g>
    </g>
  </g>
  <g transform="matrix(1.9812765,0,0,1.9812765,-85.270176,-12.550486)" ns0:text="$s$" ns0:preamble="/Users/jdg18/CMEP/Miscellaneous/underground-inkscape-preamble.tex" id="g19400">
    <defs id="defs19402">
      <g id="g19404">
        <symbol overflow="visible" id="textext-b2e35a9c-0" style="overflow:visible">
          <path style="stroke:none" d="m 2.953125,0 0,-8.09375 L 0,-8.09375 0,0 Z m -0.78125,-0.796875 -1.390625,0 0,-6.515625 1.390625,0 z m 0,0" id="path19407" />
        </symbol>
        <symbol overflow="visible" id="textext-b2e35a9c-1" style="overflow:visible">
          <path style="stroke:none" d="m 4.625,-5.21875 -0.203125,0 c -0.09375,0.109375 -0.21875,0.234375 -0.34375,0.234375 -0.34375,0 -0.578125,-0.234375 -1.09375,-0.234375 -0.65625,0 -1.34375,0.328125 -1.34375,1.265625 0,1.15625 1.53125,1.75 1.53125,2.71875 0,0.46875 -0.15625,1.0625 -0.859375,1.0625 -0.75,0 -1.234375,-0.796875 -1.234375,-1.546875 l -0.1875,0 -0.296875,1.84375 0.203125,0 c 0.140625,-0.203125 0.25,-0.25 0.359375,-0.25 0.140625,0 0.890625,0.25 1.296875,0.25 1.03125,0 1.59375,-0.75 1.59375,-1.484375 0,-1.125 -1.578125,-2.21875 -1.578125,-2.875 0,-0.484375 0.296875,-0.6875 0.59375,-0.6875 0.671875,0 1.09375,0.671875 1.09375,1.421875 l 0.171875,0 z m 0,0" id="path19410" />
        </symbol>
      </g>
    </defs>
    <g id="textext-b2e35a9c-2">
      <g style="fill:#000000;fill-opacity:1" id="g19413">
        <use xlink:href="#textext-b2e35a9c-1" x="223.43201" y="134.765" id="use19415" width="100%" height="100%" />
      </g>
    </g>
  </g>
  <g id="g19833" ns0:preamble="/Users/jdg18/CMEP/Miscellaneous/underground-inkscape-preamble.tex" ns0:text="$t$" transform="matrix(1.9812765,0,0,1.9812765,-83.89257,27.06083)">
    <defs id="defs19835">
      <g id="g19837">
        <symbol id="textext-8294af5b-0" overflow="visible" style="overflow:visible">
          <path id="path19840" d="m 2.953125,0 0,-8.09375 L 0,-8.09375 0,0 Z m -0.78125,-0.796875 -1.390625,0 0,-6.515625 1.390625,0 z m 0,0" style="stroke:none" />
        </symbol>
        <symbol id="textext-8294af5b-1" overflow="visible" style="overflow:visible">
          <path id="path19843" d="m 3.359375,-5.1875 -0.84375,0 0.375,-1.53125 -0.15625,0 C 2.25,-5.6875 1.53125,-5.25 0.640625,-5.078125 l -0.0625,0.34375 0.921875,0 -0.96875,3.78125 C 0.5,-0.8125 0.46875,-0.65625 0.46875,-0.515625 c 0,0.328125 0.09375,0.625 0.46875,0.625 0.703125,0 1.296875,-0.90625 1.578125,-1.265625 l -0.15625,-0.140625 c -0.4375,0.59375 -0.71875,0.625 -0.71875,0.625 -0.140625,0 -0.1875,-0.078125 -0.1875,-0.140625 0,-0.046875 0.015625,-0.09375 0.03125,-0.140625 l 0.921875,-3.78125 0.828125,0 z m 0,0" style="stroke:none" />
        </symbol>
      </g>
    </defs>
    <g id="textext-8294af5b-2">
      <g id="g19846" style="fill:#000000;fill-opacity:1">
        <use id="use19848" y="134.765" x="223.43201" xlink:href="#textext-8294af5b-1" width="100%" height="100%" />
      </g>
    </g>
  </g>
  <g ns0:text="$f^{-1}$" ns0:preamble="/Users/jdg18/CMEP/Miscellaneous/underground-inkscape-preamble.tex" transform="matrix(2.3782554,0,0,2.3782554,-313.85921,-272.28483)" id="g21826">
    <defs id="defs21828">
      <g id="g21830">
        <symbol overflow="visible" id="textext-be99f0d1-0">
          <path style="stroke:none;" d="M 2.953125 0 L 2.953125 -8.09375 L 0 -8.09375 L 0 0 Z M 2.171875 -0.796875 L 0.78125 -0.796875 L 0.78125 -7.3125 L 2.171875 -7.3125 Z M 2.171875 -0.796875 " id="path21833" />
        </symbol>
        <symbol overflow="visible" id="textext-be99f0d1-1">
          <path style="stroke:none;" d="M 2.9375 -5.171875 L 2.828125 -4.71875 L 3.75 -4.71875 L 2.71875 -0.671875 C 2.53125 0 2.171875 1.875 1.40625 1.875 C 1.296875 1.875 1.234375 1.828125 1.234375 1.765625 C 1.234375 1.625 1.421875 1.609375 1.421875 1.390625 C 1.421875 1.203125 1.296875 1 0.984375 1 C 0.640625 1 0.46875 1.296875 0.46875 1.578125 C 0.46875 1.9375 0.765625 2.21875 1.328125 2.21875 C 2.375 2.21875 3.015625 1.09375 3.40625 0.109375 C 3.578125 -0.328125 3.671875 -0.78125 3.75 -1.09375 L 4.6875 -4.71875 L 5.59375 -4.71875 L 5.734375 -5.171875 L 4.78125 -5.171875 L 5.015625 -6 C 5.265625 -6.921875 5.71875 -7.5625 6.3125 -7.5625 C 6.453125 -7.5625 6.484375 -7.53125 6.484375 -7.46875 C 6.484375 -7.375 6.390625 -7.203125 6.390625 -7.03125 C 6.390625 -6.875 6.46875 -6.734375 6.796875 -6.734375 C 7.03125 -6.734375 7.28125 -6.875 7.28125 -7.21875 C 7.28125 -7.625 6.9375 -7.90625 6.34375 -7.90625 C 5.453125 -7.90625 4.9375 -7.40625 4.578125 -6.84375 C 4.0625 -6.09375 4.125 -5.171875 3.375 -5.171875 Z M 2.9375 -5.171875 " id="path21836" />
        </symbol>
        <symbol overflow="visible" id="textext-be99f0d1-2">
          <path style="stroke:none;" d="M 2.078125 0 L 2.078125 -5.671875 L 0 -5.671875 L 0 0 Z M 1.53125 -0.5625 L 0.546875 -0.5625 L 0.546875 -5.125 L 1.53125 -5.125 Z M 1.53125 -0.5625 " id="path21839" />
        </symbol>
        <symbol overflow="visible" id="textext-be99f0d1-3">
          <path style="stroke:none;" d="M 5.15625 -1.828125 L 5.15625 -2.375 L 0.53125 -2.375 L 0.53125 -1.828125 Z M 5.15625 -1.828125 " id="path21842" />
        </symbol>
        <symbol overflow="visible" id="textext-be99f0d1-4">
          <path style="stroke:none;" d="M 3.265625 0 L 3.265625 -0.125 C 2.640625 -0.125 2.484375 -0.28125 2.484375 -0.625 L 2.484375 -5.578125 L 2.40625 -5.609375 L 0.921875 -4.859375 L 0.921875 -4.734375 L 1.140625 -4.828125 C 1.296875 -4.875 1.4375 -4.921875 1.515625 -4.921875 C 1.6875 -4.921875 1.765625 -4.796875 1.765625 -4.515625 L 1.765625 -0.78125 C 1.765625 -0.328125 1.59375 -0.15625 0.984375 -0.125 L 0.984375 0 Z M 3.265625 0 " id="path21845" />
        </symbol>
      </g>
    </defs>
    <g id="textext-be99f0d1-5">
      <g style="fill:rgb(0%,0%,0%);fill-opacity:1;" id="g21848">
        <use xlink:href="#textext-be99f0d1-1" x="223.432" y="134.765" id="use21850" />
      </g>
      <g style="fill:rgb(0%,0%,0%);fill-opacity:1;" id="g21852">
        <use xlink:href="#textext-be99f0d1-3" x="231.43" y="130.78" id="use21854" />
        <use xlink:href="#textext-be99f0d1-4" x="237.111102" y="130.78" id="use21856" />
      </g>
    </g>
  </g>
</svg>