<?xml version='1.0' ?><svg xmlns:ns0="http://www.iki.fi/pav/software/textext/" xmlns:dc="http://purl.org/dc/elements/1.1/" xmlns:cc="http://creativecommons.org/ns#" xmlns:rdf="http://www.w3.org/1999/02/22-rdf-syntax-ns#" xmlns:svg="http://www.w3.org/2000/svg" xmlns="http://www.w3.org/2000/svg" version="1.1" id="svg2" width="340.46829" height="157.69578" viewBox="159.01601250021872 451.79218123769283 319.1890218754391 147.83979375020337" preserveAspectRatio="none">
  <defs id="defs4">
    <marker style="overflow:visible;" id="marker4579" refX="0.0" refY="0.0" orient="auto">
      <path transform="scale(0.8) rotate(180) translate(12.5,0)" style="fill-rule:evenodd;stroke:#000000;stroke-width:1pt;stroke-opacity:1;fill:#000000;fill-opacity:1" d="M 0.0,0.0 L 5.0,-5.0 L -12.5,0.0 L 5.0,5.0 L 0.0,0.0 z " id="path4581" />
    </marker>
    <marker orient="auto" refY="0.0" refX="0.0" id="marker4557" style="overflow:visible;">
      <path id="path4559" d="M 0.0,0.0 L 5.0,-5.0 L -12.5,0.0 L 5.0,5.0 L 0.0,0.0 z " style="fill-rule:evenodd;stroke:#000000;stroke-width:1pt;stroke-opacity:1;fill:#000000;fill-opacity:1" transform="scale(0.8) rotate(180) translate(12.5,0)" />
    </marker>
    <marker style="overflow:visible;" id="Arrow1Lend" refX="0.0" refY="0.0" orient="auto">
      <path transform="scale(0.8) rotate(180) translate(12.5,0)" style="fill-rule:evenodd;stroke:#000000;stroke-width:1pt;stroke-opacity:1;fill:#000000;fill-opacity:1" d="M 0.0,0.0 L 5.0,-5.0 L -12.5,0.0 L 5.0,5.0 L 0.0,0.0 z " id="path4288" />
    </marker>
  </defs>
  <metadata id="metadata7">
    <rdf:RDF>
      <cc:Work rdf:about="">
        <dc:format>image/svg+xml</dc:format>
        <dc:type rdf:resource="http://purl.org/dc/dcmitype/StillImage" />
        <dc:title />
      </cc:Work>
    </rdf:RDF>
  </metadata>
  <g id="layer1">
    <g id="g4478">
      <g ns0:preamble="/Users/prmb/CMEP/underground-inkscape-preamble.tex" ns0:text="$x$" word-spacing="normal" letter-spacing="normal" font-size-adjust="none" font-stretch="normal" font-weight="normal" font-variant="normal" font-style="normal" stroke-miterlimit="10.433" xml:space="preserve" transform="matrix(1.5999993,0,0,-1.5999992,-199.04783,1249.4793)" id="content" style="font-style:normal;font-variant:normal;font-weight:normal;font-stretch:normal;letter-spacing:normal;word-spacing:normal;text-anchor:start;fill:none;fill-opacity:1;fill-rule:evenodd;stroke:#000000;stroke-width:1.2500006;stroke-linecap:butt;stroke-linejoin:miter;stroke-miterlimit:10.43299961;stroke-dasharray:none;stroke-dashoffset:0;stroke-opacity:1"><path id="path4142" d="m 227.03,480.64 -0.23,0.64 c -0.15,0.39 -0.37,0.88 -0.89,1.16 l -1.56,-0.39 0.04,-0.21 c 0.12,0.05 0.29,0.07 0.45,0.07 0.65,0 0.95,-0.48 1.15,-1.05 l 0.39,-1.09 -0.76,-1.19 c -0.38,-0.58 -0.69,-0.7 -0.83,-0.7 -0.3,0 -0.25,0.24 -0.55,0.24 -0.3,0 -0.45,-0.25 -0.45,-0.44 0,-0.26 0.19,-0.55 0.61,-0.55 0.66,0 1,0.51 1.38,1.08 l 0.74,1.16 0.48,-1.33 c 0.15,-0.43 0.38,-0.91 0.86,-0.91 0.68,0 1.21,1.13 1.36,1.31 l -0.17,0.12 c -0.25,-0.51 -0.53,-0.68 -0.72,-0.68 -0.53,0 -0.8,1.6 -1.15,2.33 l 0.64,1 c 0.17,0.26 0.3,0.45 0.65,0.45 0.2,0 0.26,-0.1 0.52,-0.1 0.31,0 0.46,0.27 0.46,0.49 0,0.25 -0.2,0.39 -0.57,0.39 -0.6,0 -1.01,-0.52 -1.32,-0.99 z" style="fill:#000000;stroke-width:0" /></g>      <rect style="fill:none;stroke:#000000;stroke-width:1.14;stroke-linejoin:miter;stroke-miterlimit:4;stroke-dasharray:none;stroke-dashoffset:0;fill-opacity:1.0;stroke-opacity:1.0" id="rect4275" width="62.857143" height="62.857143" x="217.14285" y="452.36218" />
      <rect y="452.36218" x="358.85715" height="62.857143" width="62.857143" id="rect4277" style="fill:none;stroke:#000000;stroke-width:1.13999999;stroke-linejoin:miter;stroke-miterlimit:4;stroke-dasharray:none;stroke-dashoffset:0;fill-opacity:1.0;stroke-opacity:1.0" />
      <path style="fill:none;fill-rule:evenodd;stroke:#000000;stroke-width:1px;stroke-linecap:butt;stroke-linejoin:miter;stroke-opacity:1;marker-end:url(#Arrow1Lend)" d="m 176.00381,481.64789 39.28572,0" id="path4279" />
      <path id="path4555" d="m 279.96763,481.64791 76.2405,0" style="fill:none;fill-rule:evenodd;stroke:#000000;stroke-width:1px;stroke-linecap:butt;stroke-linejoin:miter;stroke-opacity:1;marker-end:url(#marker4557)" />
      <path style="fill:none;fill-rule:evenodd;stroke:#000000;stroke-width:1px;stroke-linecap:butt;stroke-linejoin:miter;stroke-opacity:1;marker-end:url(#marker4579)" d="m 421.71428,481.64789 39.28572,0" id="path4577" />
      <g id="g4207" transform="matrix(2,0,0,-2,-205.95939,1442.6837)" xml:space="preserve" stroke-miterlimit="10.433" font-style="normal" font-variant="normal" font-weight="normal" font-stretch="normal" font-size-adjust="none" letter-spacing="normal" word-spacing="normal" ns0:text="$f$" ns0:preamble="/Users/prmb/CMEP/underground-inkscape-preamble.tex" style="font-style:normal;font-variant:normal;font-weight:normal;font-stretch:normal;letter-spacing:normal;word-spacing:normal;text-anchor:start;fill:none;fill-opacity:1;fill-rule:evenodd;stroke:#000000;stroke-linecap:butt;stroke-linejoin:miter;stroke-miterlimit:10.43299961;stroke-dasharray:none;stroke-dashoffset:0;stroke-opacity:1"><path style="fill:#000000;stroke-width:0" d="m 226.36,482.39 -0.11,-0.44 0.91,0 -1.02,-4.04 c -0.18,-0.68 -0.54,-2.54 -1.3,-2.54 -0.11,0 -0.18,0.03 -0.18,0.11 0,0.14 0.19,0.15 0.19,0.37 0,0.18 -0.12,0.39 -0.44,0.39 -0.34,0 -0.51,-0.29 -0.51,-0.57 0,-0.36 0.29,-0.64 0.85,-0.64 1.04,0 1.68,1.12 2.07,2.1 0.18,0.44 0.27,0.88 0.36,1.2 l 0.93,3.62 0.89,0 0.15,0.44 -0.95,0 0.23,0.83 c 0.24,0.92 0.7,1.56 1.3,1.56 0.14,0 0.17,-0.04 0.17,-0.1 0,-0.09 -0.11,-0.27 -0.11,-0.43 0,-0.17 0.09,-0.3 0.42,-0.3 0.24,0 0.48,0.14 0.48,0.47 0,0.42 -0.34,0.7 -0.93,0.7 -0.9,0 -1.41,-0.51 -1.77,-1.06 -0.51,-0.76 -0.45,-1.67 -1.19,-1.67 z" id="path4209" /></g>      <g style="font-style:normal;font-variant:normal;font-weight:normal;font-stretch:normal;letter-spacing:normal;word-spacing:normal;text-anchor:start;fill:none;fill-opacity:1;fill-rule:evenodd;stroke:#000000;stroke-width:1.25000036;stroke-linecap:butt;stroke-linejoin:miter;stroke-miterlimit:10.43299961;stroke-dasharray:none;stroke-dashoffset:0;stroke-opacity:1" ns0:preamble="/Users/prmb/CMEP/underground-inkscape-preamble.tex" ns0:text="$y$" text-anchor="start" word-spacing="normal" letter-spacing="normal" font-size-adjust="none" font-stretch="normal" font-weight="normal" font-variant="normal" font-style="normal" fill-opacity="1" fill-rule="evenodd" fill="none" stroke-opacity="1" stroke-dashoffset="0" stroke-dasharray="none" stroke-miterlimit="10.433" stroke-linejoin="miter" stroke-linecap="butt" stroke="black" xml:space="preserve" transform="matrix(1.5999997,0,0,-1.5999995,-53.060639,1238.686)" id="g4268"><path id="path4270" fill="black" stroke-width="0" d="M226.62,480.86 L226.61,480.94 L226.6,481.02 L226.59,481.09 L226.58,481.16 L226.57,481.23 L226.56,481.3 L226.55,481.36 L226.54,481.42 L226.53,481.48 L226.52,481.53 L226.51,481.59 L226.5,481.64 L226.49,481.69 L226.48,481.73 L226.46,481.78 L226.45,481.83 L226.44,481.87 L226.42,481.91 L226.41,481.95 L226.4,481.99 L226.36,482.07 L226.33,482.14 L226.29,482.22 L226.25,482.29 L226.21,482.36 L226.16,482.43 L224.39,482.13 L224.41,481.95 C224.52,481.96,224.71,481.99,224.84,481.99 C225.5,481.99,225.6,481.28,225.66,480.75 L226.11,477.05 C225.8,476.57,225.13,475.84,224.93,475.84 C224.74,475.84,224.77,476.21,224.26,476.21 C224.1,476.21,223.79,476.08,223.79,475.72 C223.79,475.44,224.01,475.08,224.45,475.08 C225.25,475.08,226.02,476.23,226.88,477.32 C227.38,477.94,229.29,480.78,229.29,481.7 C229.29,482.16,228.99,482.43,228.62,482.43 C228.27,482.43,228.06,482.22,228.06,481.96 C228.06,481.51,228.67,481.39,228.67,481.14 C228.67,480.93,228.58,480.69,228.34,480.26 C228.08,479.77,227.67,479.07,226.95,478.08 Z " /></g>      <g style="font-style:normal;font-variant:normal;font-weight:normal;font-stretch:normal;letter-spacing:normal;word-spacing:normal;text-anchor:start;fill:none;fill-opacity:1;fill-rule:evenodd;stroke:#000000;stroke-width:1.25000024;stroke-linecap:butt;stroke-linejoin:miter;stroke-miterlimit:10.43299961;stroke-dasharray:none;stroke-dashoffset:0;stroke-opacity:1" ns0:preamble="/Users/prmb/CMEP/underground-inkscape-preamble.tex" ns0:text="$x$" word-spacing="normal" letter-spacing="normal" font-size-adjust="none" font-stretch="normal" font-weight="normal" font-variant="normal" font-style="normal" stroke-miterlimit="10.433" xml:space="preserve" transform="matrix(1.5999999,0,0,-1.5999995,111.08506,1249.4794)" id="g4390"><path style="fill:#000000;stroke-width:0" id="path4392" d="m 227.03,480.64 -0.23,0.64 c -0.15,0.39 -0.37,0.88 -0.89,1.16 l -1.56,-0.39 0.04,-0.21 c 0.12,0.05 0.29,0.07 0.45,0.07 0.65,0 0.95,-0.48 1.15,-1.05 l 0.39,-1.09 -0.76,-1.19 c -0.38,-0.58 -0.69,-0.7 -0.83,-0.7 -0.3,0 -0.25,0.24 -0.55,0.24 -0.3,0 -0.45,-0.25 -0.45,-0.44 0,-0.26 0.19,-0.55 0.61,-0.55 0.66,0 1,0.51 1.38,1.08 l 0.74,1.16 0.48,-1.33 c 0.15,-0.43 0.38,-0.91 0.86,-0.91 0.68,0 1.21,1.13 1.36,1.31 l -0.17,0.12 c -0.25,-0.51 -0.53,-0.68 -0.72,-0.68 -0.53,0 -0.8,1.6 -1.15,2.33 l 0.64,1 c 0.17,0.26 0.3,0.45 0.65,0.45 0.2,0 0.26,-0.1 0.52,-0.1 0.31,0 0.46,0.27 0.46,0.49 0,0.25 -0.2,0.39 -0.57,0.39 -0.6,0 -1.01,-0.52 -1.32,-0.99 z" /></g>      <g id="g4444" transform="matrix(2,0,0,-2,-74.050763,1443.5714)" xml:space="preserve" stroke-miterlimit="10.433" font-style="normal" font-variant="normal" font-weight="normal" font-stretch="normal" font-size-adjust="none" letter-spacing="normal" word-spacing="normal" ns0:text="$f^{\\,-1}$" ns0:preamble="/Users/prmb/CMEP/underground-inkscape-preamble.tex" style="font-style:normal;font-variant:normal;font-weight:normal;font-stretch:normal;letter-spacing:normal;word-spacing:normal;text-anchor:start;fill:none;fill-opacity:1;fill-rule:evenodd;stroke:#000000;stroke-linecap:butt;stroke-linejoin:miter;stroke-miterlimit:10.43299961;stroke-dasharray:none;stroke-dashoffset:0;stroke-opacity:1"><path style="fill:#000000;stroke-width:0" d="m 226.36,482.36 -0.11,-0.44 0.91,0 -1.02,-4.04 c -0.18,-0.67 -0.54,-2.54 -1.3,-2.54 -0.11,0 -0.18,0.04 -0.18,0.11 0,0.14 0.19,0.15 0.19,0.38 0,0.17 -0.12,0.38 -0.44,0.38 -0.34,0 -0.51,-0.29 -0.51,-0.57 0,-0.36 0.29,-0.64 0.85,-0.64 1.04,0 1.68,1.12 2.07,2.1 0.18,0.44 0.27,0.88 0.36,1.2 l 0.93,3.62 0.89,0 0.15,0.44 -0.95,0 0.23,0.83 c 0.24,0.92 0.7,1.56 1.3,1.56 0.14,0 0.17,-0.04 0.17,-0.09 0,-0.1 -0.11,-0.28 -0.11,-0.44 0,-0.17 0.09,-0.3 0.42,-0.3 0.24,0 0.48,0.15 0.48,0.48 0,0.41 -0.34,0.69 -0.93,0.69 -0.9,0 -1.41,-0.51 -1.77,-1.06 -0.51,-0.76 -0.45,-1.67 -1.19,-1.67 z" id="path4446" /><polygon style="fill:#000000;stroke-width:0" points="237.18,483.73 232.24,483.73 232.24,483.14 237.18,483.14 " id="polygon4448" /><path style="fill:#000000;stroke-width:0" d="m 241.25,481.19 0,0.13 c -0.66,0 -0.84,0.16 -0.84,0.54 l 0,5.3 -0.08,0.02 -1.59,-0.8 0,-0.13 0.24,0.09 c 0.16,0.06 0.31,0.11 0.4,0.11 0.19,0 0.27,-0.14 0.27,-0.44 l 0,-3.98 c 0,-0.48 -0.19,-0.67 -0.85,-0.71 l 0,-0.13 z" id="path4450" /></g>    </g>
    <g id="g4826">
      <rect y="536.20483" x="217.14285" height="62.857143" width="62.857143" id="rect4503" style="fill:none;stroke:#000000;stroke-width:1.13999999;stroke-linejoin:miter;stroke-miterlimit:4;stroke-dasharray:none;stroke-dashoffset:0;fill-opacity:1.0;stroke-opacity:1.0" />
      <rect style="fill:none;stroke:#000000;stroke-width:1.13999999;stroke-linejoin:miter;stroke-miterlimit:4;stroke-dasharray:none;stroke-dashoffset:0;fill-opacity:1.0;stroke-opacity:1.0" id="rect4505" width="62.857143" height="62.857143" x="358.85715" y="536.20483" />
      <path id="path4507" d="m 176.00381,565.49055 39.28572,0" style="fill:none;fill-rule:evenodd;stroke:#000000;stroke-width:1px;stroke-linecap:butt;stroke-linejoin:miter;stroke-opacity:1;marker-end:url(#Arrow1Lend)" />
      <path style="fill:none;fill-rule:evenodd;stroke:#000000;stroke-width:1px;stroke-linecap:butt;stroke-linejoin:miter;stroke-opacity:1;marker-end:url(#marker4557)" d="m 279.96763,565.49057 76.2405,0" id="path4509" />
      <path id="path4511" d="m 421.71428,565.49055 39.28572,0" style="fill:none;fill-rule:evenodd;stroke:#000000;stroke-width:1px;stroke-linecap:butt;stroke-linejoin:miter;stroke-opacity:1;marker-end:url(#marker4579)" />
      <g style="font-style:normal;font-variant:normal;font-weight:normal;font-stretch:normal;letter-spacing:normal;word-spacing:normal;text-anchor:start;fill:none;fill-opacity:1;fill-rule:evenodd;stroke:#000000;stroke-linecap:butt;stroke-linejoin:miter;stroke-miterlimit:10.43299961;stroke-dasharray:none;stroke-dashoffset:0;stroke-opacity:1" ns0:preamble="/Users/prmb/CMEP/underground-inkscape-preamble.tex" ns0:text="$f$" word-spacing="normal" letter-spacing="normal" font-size-adjust="none" font-stretch="normal" font-weight="normal" font-variant="normal" font-style="normal" stroke-miterlimit="10.433" xml:space="preserve" transform="matrix(2,0,0,-2,-65.548185,1524.506)" id="g4513"><path id="path4515" d="m 226.36,482.39 -0.11,-0.44 0.91,0 -1.02,-4.04 c -0.18,-0.68 -0.54,-2.54 -1.3,-2.54 -0.11,0 -0.18,0.03 -0.18,0.11 0,0.14 0.19,0.15 0.19,0.37 0,0.18 -0.12,0.39 -0.44,0.39 -0.34,0 -0.51,-0.29 -0.51,-0.57 0,-0.36 0.29,-0.64 0.85,-0.64 1.04,0 1.68,1.12 2.07,2.1 0.18,0.44 0.27,0.88 0.36,1.2 l 0.93,3.62 0.89,0 0.15,0.44 -0.95,0 0.23,0.83 c 0.24,0.92 0.7,1.56 1.3,1.56 0.14,0 0.17,-0.04 0.17,-0.1 0,-0.09 -0.11,-0.27 -0.11,-0.43 0,-0.17 0.09,-0.3 0.42,-0.3 0.24,0 0.48,0.14 0.48,0.47 0,0.42 -0.34,0.7 -0.93,0.7 -0.9,0 -1.41,-0.51 -1.77,-1.06 -0.51,-0.76 -0.45,-1.67 -1.19,-1.67 z" style="fill:#000000;stroke-width:0" /></g>      <g style="font-style:normal;font-variant:normal;font-weight:normal;font-stretch:normal;letter-spacing:normal;word-spacing:normal;text-anchor:start;fill:none;fill-opacity:1;fill-rule:evenodd;stroke:#000000;stroke-linecap:butt;stroke-linejoin:miter;stroke-miterlimit:10.43299961;stroke-dasharray:none;stroke-dashoffset:0;stroke-opacity:1" ns0:preamble="/Users/prmb/CMEP/underground-inkscape-preamble.tex" ns0:text="$f^{\\,-1}$" word-spacing="normal" letter-spacing="normal" font-size-adjust="none" font-stretch="normal" font-weight="normal" font-variant="normal" font-style="normal" stroke-miterlimit="10.433" xml:space="preserve" transform="matrix(2,0,0,-2,-217.49242,1527.4141)" id="g4525"><path id="path4527" d="m 226.36,482.36 -0.11,-0.44 0.91,0 -1.02,-4.04 c -0.18,-0.67 -0.54,-2.54 -1.3,-2.54 -0.11,0 -0.18,0.04 -0.18,0.11 0,0.14 0.19,0.15 0.19,0.38 0,0.17 -0.12,0.38 -0.44,0.38 -0.34,0 -0.51,-0.29 -0.51,-0.57 0,-0.36 0.29,-0.64 0.85,-0.64 1.04,0 1.68,1.12 2.07,2.1 0.18,0.44 0.27,0.88 0.36,1.2 l 0.93,3.62 0.89,0 0.15,0.44 -0.95,0 0.23,0.83 c 0.24,0.92 0.7,1.56 1.3,1.56 0.14,0 0.17,-0.04 0.17,-0.09 0,-0.1 -0.11,-0.28 -0.11,-0.44 0,-0.17 0.09,-0.3 0.42,-0.3 0.24,0 0.48,0.15 0.48,0.48 0,0.41 -0.34,0.69 -0.93,0.69 -0.9,0 -1.41,-0.51 -1.77,-1.06 -0.51,-0.76 -0.45,-1.67 -1.19,-1.67 z" style="fill:#000000;stroke-width:0" /><polygon id="polygon4529" points="232.24,483.73 232.24,483.14 237.18,483.14 237.18,483.73 " style="fill:#000000;stroke-width:0" /><path id="path4531" d="m 241.25,481.19 0,0.13 c -0.66,0 -0.84,0.16 -0.84,0.54 l 0,5.3 -0.08,0.02 -1.59,-0.8 0,-0.13 0.24,0.09 c 0.16,0.06 0.31,0.11 0.4,0.11 0.19,0 0.27,-0.14 0.27,-0.44 l 0,-3.98 c 0,-0.48 -0.19,-0.67 -0.85,-0.71 l 0,-0.13 z" style="fill:#000000;stroke-width:0" /></g>      <g style="font-style:normal;font-variant:normal;font-weight:normal;font-stretch:normal;letter-spacing:normal;word-spacing:normal;text-anchor:start;fill:none;fill-opacity:1;fill-rule:evenodd;stroke:#000000;stroke-width:1.2500006;stroke-linecap:butt;stroke-linejoin:miter;stroke-miterlimit:10.43299961;stroke-dasharray:none;stroke-dashoffset:0;stroke-opacity:1" ns0:preamble="/Users/prmb/CMEP/underground-inkscape-preamble.tex" ns0:text="$y$" text-anchor="start" word-spacing="normal" letter-spacing="normal" font-size-adjust="none" font-stretch="normal" font-weight="normal" font-variant="normal" font-style="normal" fill-opacity="1" fill-rule="evenodd" fill="none" stroke-opacity="1" stroke-dashoffset="0" stroke-dasharray="none" stroke-miterlimit="10.433" stroke-linejoin="miter" stroke-linecap="butt" stroke="black" xml:space="preserve" transform="matrix(1.5999993,0,0,-1.5999992,-199.04783,1333.322)" id="g4594"><path id="path4596" fill="black" stroke-width="0" d="M226.62,480.86 L226.61,480.94 L226.6,481.02 L226.59,481.09 L226.58,481.16 L226.57,481.23 L226.56,481.3 L226.55,481.36 L226.54,481.42 L226.53,481.48 L226.52,481.53 L226.51,481.59 L226.5,481.64 L226.49,481.69 L226.48,481.73 L226.46,481.78 L226.45,481.83 L226.44,481.87 L226.42,481.91 L226.41,481.95 L226.4,481.99 L226.36,482.07 L226.33,482.14 L226.29,482.22 L226.25,482.29 L226.21,482.36 L226.16,482.43 L224.39,482.13 L224.41,481.95 C224.52,481.96,224.71,481.99,224.84,481.99 C225.5,481.99,225.6,481.28,225.66,480.75 L226.11,477.05 C225.8,476.57,225.13,475.84,224.93,475.84 C224.74,475.84,224.77,476.21,224.26,476.21 C224.1,476.21,223.79,476.08,223.79,475.72 C223.79,475.44,224.01,475.08,224.45,475.08 C225.25,475.08,226.02,476.23,226.88,477.32 C227.38,477.94,229.29,480.78,229.29,481.7 C229.29,482.16,228.99,482.43,228.62,482.43 C228.27,482.43,228.06,482.22,228.06,481.96 C228.06,481.51,228.67,481.39,228.67,481.14 C228.67,480.93,228.58,480.69,228.34,480.26 C228.08,479.77,227.67,479.07,226.95,478.08 Z " /></g>      <g id="g4686" transform="matrix(1.5999997,0,0,-1.5999995,-53.060639,1322.5287)" xml:space="preserve" stroke="black" stroke-linecap="butt" stroke-linejoin="miter" stroke-miterlimit="10.433" stroke-dasharray="none" stroke-dashoffset="0" stroke-opacity="1" fill="none" fill-rule="evenodd" fill-opacity="1" font-style="normal" font-variant="normal" font-weight="normal" font-stretch="normal" font-size-adjust="none" letter-spacing="normal" word-spacing="normal" text-anchor="start" ns0:text="$x$" ns0:preamble="/Users/prmb/CMEP/underground-inkscape-preamble.tex" style="font-style:normal;font-variant:normal;font-weight:normal;font-stretch:normal;letter-spacing:normal;word-spacing:normal;text-anchor:start;fill:none;fill-opacity:1;fill-rule:evenodd;stroke:#000000;stroke-width:1.25000036;stroke-linecap:butt;stroke-linejoin:miter;stroke-miterlimit:10.43299961;stroke-dasharray:none;stroke-dashoffset:0;stroke-opacity:1"><path d="M227.03,480.64 L226.8,481.28 C226.65,481.67,226.43,482.16,225.91,482.44 L224.35,482.05 L224.39,481.84 C224.51,481.89,224.68,481.91,224.84,481.91 C225.49,481.91,225.79,481.43,225.99,480.86 L226.38,479.77 L225.62,478.58 C225.24,478,224.93,477.88,224.79,477.88 C224.49,477.88,224.54,478.12,224.24,478.12 C223.94,478.12,223.79,477.87,223.79,477.68 C223.79,477.42,223.98,477.13,224.4,477.13 C225.06,477.13,225.4,477.64,225.78,478.21 L226.52,479.37 L227,478.04 C227.15,477.61,227.38,477.13,227.86,477.13 C228.54,477.13,229.07,478.26,229.22,478.44 L229.05,478.56 C228.8,478.05,228.52,477.88,228.33,477.88 C227.8,477.88,227.53,479.48,227.18,480.21 L227.82,481.21 C227.99,481.47,228.12,481.66,228.47,481.66 C228.67,481.66,228.73,481.56,228.99,481.56 C229.3,481.56,229.45,481.83,229.45,482.05 C229.45,482.3,229.25,482.44,228.88,482.44 C228.28,482.44,227.87,481.92,227.56,481.45 Z " stroke-width="0" fill="black" id="path4688" /></g>      <g style="font-style:normal;font-variant:normal;font-weight:normal;font-stretch:normal;letter-spacing:normal;word-spacing:normal;text-anchor:start;fill:none;fill-opacity:1;fill-rule:evenodd;stroke:#000000;stroke-width:1.25000024;stroke-linecap:butt;stroke-linejoin:miter;stroke-miterlimit:10.43299961;stroke-dasharray:none;stroke-dashoffset:0;stroke-opacity:1" ns0:preamble="/Users/prmb/CMEP/underground-inkscape-preamble.tex" ns0:text="$y$" text-anchor="start" word-spacing="normal" letter-spacing="normal" font-size-adjust="none" font-stretch="normal" font-weight="normal" font-variant="normal" font-style="normal" fill-opacity="1" fill-rule="evenodd" fill="none" stroke-opacity="1" stroke-dashoffset="0" stroke-dasharray="none" stroke-miterlimit="10.433" stroke-linejoin="miter" stroke-linecap="butt" stroke="black" xml:space="preserve" transform="matrix(1.5999999,0,0,-1.5999995,111.08506,1333.3221)" id="g4778"><path id="path4780" fill="black" stroke-width="0" d="M226.62,480.86 L226.61,480.94 L226.6,481.02 L226.59,481.09 L226.58,481.16 L226.57,481.23 L226.56,481.3 L226.55,481.36 L226.54,481.42 L226.53,481.48 L226.52,481.53 L226.51,481.59 L226.5,481.64 L226.49,481.69 L226.48,481.73 L226.46,481.78 L226.45,481.83 L226.44,481.87 L226.42,481.91 L226.41,481.95 L226.4,481.99 L226.36,482.07 L226.33,482.14 L226.29,482.22 L226.25,482.29 L226.21,482.36 L226.16,482.43 L224.39,482.13 L224.41,481.95 C224.52,481.96,224.71,481.99,224.84,481.99 C225.5,481.99,225.6,481.28,225.66,480.75 L226.11,477.05 C225.8,476.57,225.13,475.84,224.93,475.84 C224.74,475.84,224.77,476.21,224.26,476.21 C224.1,476.21,223.79,476.08,223.79,475.72 C223.79,475.44,224.01,475.08,224.45,475.08 C225.25,475.08,226.02,476.23,226.88,477.32 C227.38,477.94,229.29,480.78,229.29,481.7 C229.29,482.16,228.99,482.43,228.62,482.43 C228.27,482.43,228.06,482.22,228.06,481.96 C228.06,481.51,228.67,481.39,228.67,481.14 C228.67,480.93,228.58,480.69,228.34,480.26 C228.08,479.77,227.67,479.07,226.95,478.08 Z " /></g>    </g>
  </g>
</svg>