<?xml version='1.0' ?><svg xmlns:ns0="http://www.iki.fi/pav/software/textext/" xmlns:dc="http://purl.org/dc/elements/1.1/" xmlns:cc="http://creativecommons.org/ns#" xmlns:rdf="http://www.w3.org/1999/02/22-rdf-syntax-ns#" xmlns:svg="http://www.w3.org/2000/svg" xmlns="http://www.w3.org/2000/svg" version="1.1" id="svg2" width="382.19629" height="68.263619" viewBox="159.01601250021872 451.79218123769283 358.3090218754929 63.99714281258804" preserveAspectRatio="none">
  <defs id="defs4">
    <marker style="overflow:visible;" id="marker4579" refX="0.0" refY="0.0" orient="auto">
      <path transform="scale(0.8) rotate(180) translate(12.5,0)" style="fill-rule:evenodd;stroke:#000000;stroke-width:1pt;stroke-opacity:1;fill:#000000;fill-opacity:1" d="M 0.0,0.0 L 5.0,-5.0 L -12.5,0.0 L 5.0,5.0 L 0.0,0.0 z " id="path4581" />
    </marker>
    <marker orient="auto" refY="0.0" refX="0.0" id="marker4557" style="overflow:visible;">
      <path id="path4559" d="M 0.0,0.0 L 5.0,-5.0 L -12.5,0.0 L 5.0,5.0 L 0.0,0.0 z " style="fill-rule:evenodd;stroke:#000000;stroke-width:1pt;stroke-opacity:1;fill:#000000;fill-opacity:1" transform="scale(0.8) rotate(180) translate(12.5,0)" />
    </marker>
    <marker style="overflow:visible;" id="Arrow1Lend" refX="0.0" refY="0.0" orient="auto">
      <path transform="scale(0.8) rotate(180) translate(12.5,0)" style="fill-rule:evenodd;stroke:#000000;stroke-width:1pt;stroke-opacity:1;fill:#000000;fill-opacity:1" d="M 0.0,0.0 L 5.0,-5.0 L -12.5,0.0 L 5.0,5.0 L 0.0,0.0 z " id="path4288" />
    </marker>
  </defs>
  <metadata id="metadata7">
    <rdf:RDF>
      <cc:Work rdf:about="">
        <dc:format>image/svg+xml</dc:format>
        <dc:type rdf:resource="http://purl.org/dc/dcmitype/StillImage" />
        <dc:title />
      </cc:Work>
    </rdf:RDF>
  </metadata>
  <g id="layer1">
    <g style="font-style:normal;font-variant:normal;font-weight:normal;font-stretch:normal;letter-spacing:normal;word-spacing:normal;text-anchor:start;fill:none;fill-opacity:1;fill-rule:evenodd;stroke:#000000;stroke-width:1.2500006;stroke-linecap:butt;stroke-linejoin:miter;stroke-miterlimit:10.43299961;stroke-dasharray:none;stroke-dashoffset:0;stroke-opacity:1" id="content" transform="matrix(1.5999993,0,0,-1.5999992,-199.04783,1249.4793)" xml:space="preserve" stroke-miterlimit="10.433" font-style="normal" font-variant="normal" font-weight="normal" font-stretch="normal" font-size-adjust="none" letter-spacing="normal" word-spacing="normal" ns0:text="$x$" ns0:preamble="/Users/prmb/CMEP/underground-inkscape-preamble.tex"><path style="fill:#000000;stroke-width:0" d="m 227.03,480.64 -0.23,0.64 c -0.15,0.39 -0.37,0.88 -0.89,1.16 l -1.56,-0.39 0.04,-0.21 c 0.12,0.05 0.29,0.07 0.45,0.07 0.65,0 0.95,-0.48 1.15,-1.05 l 0.39,-1.09 -0.76,-1.19 c -0.38,-0.58 -0.69,-0.7 -0.83,-0.7 -0.3,0 -0.25,0.24 -0.55,0.24 -0.3,0 -0.45,-0.25 -0.45,-0.44 0,-0.26 0.19,-0.55 0.61,-0.55 0.66,0 1,0.51 1.38,1.08 l 0.74,1.16 0.48,-1.33 c 0.15,-0.43 0.38,-0.91 0.86,-0.91 0.68,0 1.21,1.13 1.36,1.31 l -0.17,0.12 c -0.25,-0.51 -0.53,-0.68 -0.72,-0.68 -0.53,0 -0.8,1.6 -1.15,2.33 l 0.64,1 c 0.17,0.26 0.3,0.45 0.65,0.45 0.2,0 0.26,-0.1 0.52,-0.1 0.31,0 0.46,0.27 0.46,0.49 0,0.25 -0.2,0.39 -0.57,0.39 -0.6,0 -1.01,-0.52 -1.32,-0.99 z" id="path4142" /></g>    <g style="font-style:normal;font-variant:normal;font-weight:normal;font-stretch:normal;letter-spacing:normal;word-spacing:normal;text-anchor:start;fill:none;fill-opacity:1;fill-rule:evenodd;stroke:#000000;stroke-linecap:butt;stroke-linejoin:miter;stroke-miterlimit:10.43299961;stroke-dasharray:none;stroke-dashoffset:0;stroke-opacity:1" ns0:preamble="/Users/prmb/CMEP/underground-inkscape-preamble.tex" ns0:text="$\\times 2$" word-spacing="normal" letter-spacing="normal" font-size-adjust="none" font-stretch="normal" font-weight="normal" font-variant="normal" font-style="normal" stroke-miterlimit="10.433" xml:space="preserve" transform="matrix(2,0,0,-2,-210,1445.7142)" id="g4156"><polygon style="fill:#000000;stroke-width:0" id="polygon4158" points="230.48,482.95 229.94,483.48 227.21,480.77 224.49,483.48 223.94,482.94 226.65,480.21 223.94,477.48 224.48,476.94 227.21,479.65 229.94,476.94 230.48,477.49 227.76,480.21 " /><path style="fill:#000000;stroke-width:0" id="path4160" d="m 236.61,478.85 -0.16,0.07 c -0.39,-0.66 -0.64,-0.79 -1.14,-0.79 l -2.76,0 1.95,2.08 c 1.05,1.11 1.51,1.99 1.51,2.93 0,1.17 -0.85,2.08 -2.19,2.08 -1.45,0 -2.2,-0.97 -2.45,-2.35 l 0.25,-0.06 c 0.47,1.15 0.88,1.53 1.73,1.53 1.01,0 1.64,-0.59 1.64,-1.66 0,-1.01 -0.42,-1.9 -1.53,-3.07 l -2.1,-2.23 0,-0.15 4.61,0 z" /></g>    <g style="font-style:normal;font-variant:normal;font-weight:normal;font-stretch:normal;letter-spacing:normal;word-spacing:normal;text-anchor:start;fill:none;fill-opacity:1;fill-rule:evenodd;stroke:#000000;stroke-linecap:butt;stroke-linejoin:miter;stroke-miterlimit:10.43299961;stroke-dasharray:none;stroke-dashoffset:0;stroke-opacity:1" id="g4180" transform="matrix(2,0,0,-2,-69,1443.5714)" xml:space="preserve" stroke-miterlimit="10.433" font-style="normal" font-variant="normal" font-weight="normal" font-stretch="normal" font-size-adjust="none" letter-spacing="normal" word-spacing="normal" ns0:text="$+1$" ns0:preamble="/Users/prmb/CMEP/underground-inkscape-preamble.tex"><polygon style="fill:#000000;stroke-width:0" points="224,479.83 227.08,479.83 227.08,476.75 227.86,476.75 227.86,479.83 230.94,479.83 230.94,480.61 227.86,480.61 227.86,483.69 227.08,483.69 227.08,480.61 224,480.61 " id="polygon4182" /><path style="fill:#000000;stroke-width:0" d="m 236.2,477.23 0,0.18 c -0.89,0 -1.12,0.21 -1.12,0.72 l 0,7.05 -0.11,0.04 -2.11,-1.08 0,-0.16 0.32,0.11 c 0.21,0.09 0.41,0.15 0.53,0.15 0.25,0 0.35,-0.18 0.35,-0.58 l 0,-5.3 c 0,-0.65 -0.24,-0.9 -1.12,-0.95 l 0,-0.18 z" id="path4184" /></g>    <g style="font-style:normal;font-variant:normal;font-weight:normal;font-stretch:normal;letter-spacing:normal;word-spacing:normal;text-anchor:start;fill:none;fill-opacity:1;fill-rule:evenodd;stroke:#000000;stroke-width:1.25000036;stroke-linecap:butt;stroke-linejoin:miter;stroke-miterlimit:10.43299961;stroke-dasharray:none;stroke-dashoffset:0;stroke-opacity:1" ns0:preamble="/Users/prmb/CMEP/underground-inkscape-preamble.tex" ns0:text="$2x$" word-spacing="normal" letter-spacing="normal" font-size-adjust="none" font-stretch="normal" font-weight="normal" font-variant="normal" font-style="normal" stroke-miterlimit="10.433" xml:space="preserve" transform="matrix(1.5999997,0,0,-1.5999995,-53.060639,1238.686)" id="g4210"><path style="fill:#000000;stroke-width:0" id="path4212" d="m 229.03,478.85 -0.17,0.07 c -0.39,-0.66 -0.63,-0.79 -1.13,-0.79 l -2.76,0 1.94,2.08 c 1.06,1.11 1.52,1.99 1.52,2.93 0,1.17 -0.85,2.08 -2.19,2.08 -1.45,0 -2.21,-0.97 -2.45,-2.35 l 0.24,-0.06 c 0.48,1.15 0.89,1.53 1.74,1.53 1,0 1.64,-0.59 1.64,-1.66 0,-1.01 -0.42,-1.9 -1.53,-3.07 l -2.11,-2.23 0,-0.15 4.62,0 z" /><path style="fill:#000000;stroke-width:0" id="path4214" d="m 232.96,480.64 -0.24,0.64 c -0.14,0.39 -0.37,0.88 -0.88,1.16 l -1.56,-0.39 0.03,-0.21 c 0.12,0.05 0.3,0.07 0.45,0.07 0.65,0 0.96,-0.48 1.16,-1.05 l 0.39,-1.09 -0.77,-1.19 c -0.38,-0.58 -0.69,-0.7 -0.83,-0.7 -0.29,0 -0.24,0.24 -0.55,0.24 -0.3,0 -0.45,-0.25 -0.45,-0.44 0,-0.26 0.19,-0.55 0.61,-0.55 0.67,0 1.01,0.51 1.39,1.08 l 0.74,1.16 0.47,-1.33 c 0.15,-0.43 0.38,-0.91 0.86,-0.91 0.69,0 1.22,1.13 1.36,1.31 l -0.16,0.12 c -0.25,-0.51 -0.54,-0.68 -0.72,-0.68 -0.54,0 -0.81,1.6 -1.16,2.33 l 0.65,1 c 0.16,0.26 0.29,0.45 0.65,0.45 0.2,0 0.26,-0.1 0.52,-0.1 0.3,0 0.46,0.27 0.46,0.49 0,0.25 -0.2,0.39 -0.58,0.39 -0.59,0 -1.01,-0.52 -1.31,-0.99 z" /></g>    <g style="font-style:normal;font-variant:normal;font-weight:normal;font-stretch:normal;letter-spacing:normal;word-spacing:normal;text-anchor:start;fill:none;fill-opacity:1;fill-rule:evenodd;stroke:#000000;stroke-width:1.25000024;stroke-linecap:butt;stroke-linejoin:miter;stroke-miterlimit:10.43299961;stroke-dasharray:none;stroke-dashoffset:0;stroke-opacity:1" id="g4246" transform="matrix(1.5999999,0,0,-1.5999995,111.08506,1251.9986)" xml:space="preserve" stroke-miterlimit="10.433" font-style="normal" font-variant="normal" font-weight="normal" font-stretch="normal" font-size-adjust="none" letter-spacing="normal" word-spacing="normal" ns0:text="$2x+1$" ns0:preamble="/Users/prmb/CMEP/underground-inkscape-preamble.tex"><path style="fill:#000000;stroke-width:0" d="m 229.03,478.85 -0.17,0.07 c -0.39,-0.66 -0.63,-0.79 -1.13,-0.79 l -2.76,0 1.94,2.08 c 1.06,1.11 1.52,1.99 1.52,2.93 0,1.17 -0.85,2.08 -2.19,2.08 -1.45,0 -2.21,-0.97 -2.45,-2.35 l 0.24,-0.06 c 0.48,1.15 0.89,1.53 1.74,1.53 1,0 1.64,-0.59 1.64,-1.66 0,-1.01 -0.42,-1.9 -1.53,-3.07 l -2.11,-2.23 0,-0.15 4.62,0 z" id="path4248" /><path style="fill:#000000;stroke-width:0" d="m 232.96,480.64 -0.24,0.64 c -0.14,0.39 -0.37,0.88 -0.88,1.16 l -1.56,-0.39 0.03,-0.21 c 0.12,0.05 0.3,0.07 0.45,0.07 0.65,0 0.96,-0.48 1.16,-1.05 l 0.39,-1.09 -0.77,-1.19 c -0.38,-0.58 -0.69,-0.7 -0.83,-0.7 -0.29,0 -0.24,0.24 -0.55,0.24 -0.3,0 -0.45,-0.25 -0.45,-0.44 0,-0.26 0.19,-0.55 0.61,-0.55 0.67,0 1.01,0.51 1.39,1.08 l 0.74,1.16 0.47,-1.33 c 0.15,-0.43 0.38,-0.91 0.86,-0.91 0.69,0 1.22,1.13 1.36,1.31 l -0.16,0.12 c -0.25,-0.51 -0.54,-0.68 -0.72,-0.68 -0.54,0 -0.81,1.6 -1.16,2.33 l 0.65,1 c 0.16,0.26 0.29,0.45 0.65,0.45 0.2,0 0.26,-0.1 0.52,-0.1 0.3,0 0.46,0.27 0.46,0.49 0,0.25 -0.2,0.39 -0.58,0.39 -0.59,0 -1.01,-0.52 -1.31,-0.99 z" id="path4250" /><polygon style="fill:#000000;stroke-width:0" points="239.07,480.61 239.07,479.83 242.15,479.83 242.15,476.75 242.93,476.75 242.93,479.83 246.01,479.83 246.01,480.61 242.93,480.61 242.93,483.69 242.15,483.69 242.15,480.61 " id="polygon4252" /><path style="fill:#000000;stroke-width:0" d="m 253.9,477.23 0,0.18 c -0.89,0 -1.12,0.21 -1.12,0.72 l 0,7.05 -0.11,0.04 -2.11,-1.08 0,-0.16 0.32,0.11 c 0.21,0.09 0.41,0.15 0.53,0.15 0.25,0 0.35,-0.18 0.35,-0.58 l 0,-5.3 c 0,-0.65 -0.25,-0.9 -1.12,-0.95 l 0,-0.18 z" id="path4254" /></g>    <rect y="452.36218" x="217.14285" height="62.857143" width="62.857143" id="rect4275" style="fill:none;stroke:#000000;stroke-width:1.14;stroke-linejoin:miter;stroke-miterlimit:4;stroke-dasharray:none;stroke-dashoffset:0;fill-opacity:1.0;stroke-opacity:1.0" />
    <rect style="fill:none;stroke:#000000;stroke-width:1.13999999;stroke-linejoin:miter;stroke-miterlimit:4;stroke-dasharray:none;stroke-dashoffset:0;fill-opacity:1.0;stroke-opacity:1.0" id="rect4277" width="62.857143" height="62.857143" x="358.85715" y="452.36218" />
    <path id="path4279" d="m 176.00381,481.64789 39.28572,0" style="fill:none;fill-rule:evenodd;stroke:#000000;stroke-width:1px;stroke-linecap:butt;stroke-linejoin:miter;stroke-opacity:1;marker-end:url(#Arrow1Lend)" />
    <path style="fill:none;fill-rule:evenodd;stroke:#000000;stroke-width:1px;stroke-linecap:butt;stroke-linejoin:miter;stroke-opacity:1;marker-end:url(#marker4557)" d="m 279.96763,481.64791 76.2405,0" id="path4555" />
    <path id="path4577" d="m 421.71428,481.64789 39.28572,0" style="fill:none;fill-rule:evenodd;stroke:#000000;stroke-width:1px;stroke-linecap:butt;stroke-linejoin:miter;stroke-opacity:1;marker-end:url(#marker4579)" />
  </g>
</svg>