<?xml version='1.0' ?><svg xmlns:ns0="http://www.iki.fi/pav/software/textext/" xmlns:dc="http://purl.org/dc/elements/1.1/" xmlns:cc="http://creativecommons.org/ns#" xmlns:rdf="http://www.w3.org/1999/02/22-rdf-syntax-ns#" xmlns:svg="http://www.w3.org/2000/svg" xmlns="http://www.w3.org/2000/svg" id="svg2" version="1.1" width="247.36166" height="193.81307" viewBox="581.6926885326305 73.804044555119 326.49512668741215 255.815807685501" preserveAspectRatio="none">
  <metadata id="metadata119">
    <rdf:RDF>
      <cc:Work rdf:about="">
        <dc:format>image/svg+xml</dc:format>
        <dc:type rdf:resource="http://purl.org/dc/dcmitype/StillImage" />
        <dc:title />
      </cc:Work>
    </rdf:RDF>
  </metadata>
  <defs id="defs117">
    <clipPath id="clip1">
      <path d="m 0,0 0,296 440,0 0,-296 z" id="path9" />
    </clipPath>
    <clipPath id="clip2">
      <path d="m 0,0 0,296 440,0 0,-296 z" id="path18" />
    </clipPath>
    <clipPath id="clip4">
      <path d="m 0,0 0,296 440,0 0,-296 z" id="path36" />
    </clipPath>
    <clipPath id="clip5">
      <path id="path47" d="m 0,0 0,296 440,0 0,-296 z" />
    </clipPath>
    <clipPath id="clip6">
      <path id="path60" d="m 0,0 0,296 440,0 0,-296 z" />
    </clipPath>
    <clipPath id="clip7">
      <path id="path73" d="m 0,0 0,296 440,0 0,-296 z" />
    </clipPath>
  </defs>
  <g transform="translate(545.20975,73.22021)" id="misc" style="stroke-width:1;stroke-linecap:square;stroke-linejoin:miter;stroke-miterlimit:10;stroke-dasharray:none;stroke-dashoffset:0" />
  <g transform="matrix(0.81203244,0,0,0.81203244,564.10122,75.183792)" clip-path="url(#clip1)" id="g11" style="stroke-width:1;stroke-linecap:square;stroke-linejoin:miter;stroke-miterlimit:10;stroke-dasharray:none;stroke-dashoffset:0">
    <g id="g13" style="fill:none;stroke:#000000;stroke-width:2.46295571;stroke-linecap:butt;stroke-opacity:1">
      <path style="stroke-width:2.46295571" d="m 215,3 0,293" id="path15" />
    </g>
  </g>
  <g transform="translate(523.68819,71.804081)" clip-path="url(#clip2)" id="g20" style="stroke-width:1;stroke-linecap:square;stroke-linejoin:miter;stroke-miterlimit:10;stroke-dasharray:none;stroke-dashoffset:0">
    <g id="g22" style="fill:#000000;fill-opacity:1;fill-rule:evenodd;stroke:none">
      <path d="m 215,2 -5,20 10,0" id="path24" />
    </g>
  </g>
  <path d="m 581.69268,226.61988 321.26397,0" id="path33" style="fill:none;stroke:#000000;stroke-width:2;stroke-linecap:butt;stroke-linejoin:miter;stroke-miterlimit:10;stroke-dasharray:none;stroke-dashoffset:0;stroke-opacity:1" />
  <g transform="translate(470.1878,74.619889)" clip-path="url(#clip4)" id="g38" style="stroke-width:1;stroke-linecap:square;stroke-linejoin:miter;stroke-miterlimit:10;stroke-dasharray:none;stroke-dashoffset:0">
    <g id="g40" style="fill:#000000;fill-opacity:1;fill-rule:evenodd;stroke:none">
      <path d="m 438,152 -20,-5 0,10" id="path42" />
    </g>
  </g>
  <g transform="matrix(0,-0.99999992,-1.0000001,0,891.66072,440.69357)" id="g49" clip-path="url(#clip5)" style="stroke-width:1;stroke-linecap:square;stroke-linejoin:miter;stroke-miterlimit:10;stroke-dasharray:none;stroke-dashoffset:0">
    <g style="fill:none;stroke:#2b83ba;stroke-width:2.5;stroke-linecap:round;stroke-linejoin:round;stroke-opacity:1" id="g51">
      <path id="path53" d="m 215,252 1.56,-0.05 m 0,0 3.44,-0.45 m 0,0 3.44,-0.92 3.44,-1.4 3.43,-1.87 3.44,-2.34 3.44,-2.82 3.43,-3.28 3.44,-3.76 3.44,-4.23 3.44,-4.71 3.44,-5.18 3.43,-5.65 3.44,-6.12 3.44,-6.6 3.43,-7.07 3.44,-7.54 3.44,-8.01 3.44,-8.49 3.44,-8.96 3.43,-9.43 3.44,-9.9 1.72,-5.13 1.72,-5.25 1.72,-5.36 1.71,-5.49 1.72,-5.6 1.72,-5.72 1.72,-5.84 1.72,-5.955 1.72,-6.075 1.72,-6.193 1.72,-6.311 1.72,-6.429 1.71,-6.547 1.72,-6.666 1.72,-6.783 1.72,-6.902 1.72,-7.02 1.72,-7.138 1.72,-7.257 1.71,-7.374 1.72,-7.493 1.72,-7.6108 1.72,-7.729 L 330,-12.5" />
      <title id="title55">Function f</title>
      <desc id="desc57">f(x) = If[0 Ã&#131;Â¢Ã&#130;Â&#137;Ã&#130;Â¤ x Ã&#131;Â¢Ã&#130;Â&#137;Ã&#130;Â¤ 100, xÃ&#131;Â&#130;Ã&#130;Â² - 2]</desc>
    </g>
  </g>
  <g transform="translate(424.73111,-25.576302)" id="g62" clip-path="url(#clip6)" style="stroke-width:1;stroke-linecap:square;stroke-linejoin:miter;stroke-miterlimit:10;stroke-dasharray:none;stroke-dashoffset:0">
    <g style="fill:#2b83ba;fill-opacity:1;fill-rule:nonzero;stroke:none" id="g64">
      <path id="path66" d="m 218,252 c 0,1.66 -1.34,3 -3,3 -1.66,0 -3,-1.34 -3,-3 0,-1.66 1.34,-3 3,-3 1.66,0 3,1.34 3,3 z" />
      <title id="title68">Point A</title>
      <desc id="desc70">Point A: Intersection point of f, yAxis with initial value (0, -2)</desc>
    </g>
  </g>
  <g transform="translate(523.68819,74.619889)" id="g75" clip-path="url(#clip7)" style="stroke:none;stroke-width:1;stroke-linecap:square;stroke-linejoin:miter;stroke-miterlimit:10;stroke-dasharray:none;stroke-dashoffset:0">
    <g style="fill:none;stroke:none;stroke-linecap:round;stroke-linejoin:round;stroke-opacity:1" id="g77">
      <path id="path79" d="m 218,252 c 0,1.66 -1.34,3 -3,3 -1.66,0 -3,-1.34 -3,-3 0,-1.66 1.34,-3 3,-3 1.66,0 3,1.34 3,3 z" style="stroke:none" />
      <title id="title81">Point A</title>
      <desc id="desc83">Point A: Intersection point of f, yAxis with initial value (0, -2)</desc>
    </g>
  </g>
  <g transform="translate(82.635481,75.219022)" id="misc-8" style="stroke-width:1;stroke-linecap:square;stroke-linejoin:miter;stroke-miterlimit:10;stroke-dasharray:none;stroke-dashoffset:0" />
  <g ns0:preamble="/Users/Lizzie/Documents/Old mac/CMEP folder/underground-inkscape-preamble.tex" ns0:text="$y$" word-spacing="normal" letter-spacing="normal" font-size-adjust="none" font-stretch="normal" font-weight="normal" font-variant="normal" font-style="normal" stroke-miterlimit="10.433" xml:space="preserve" transform="matrix(3.2552406,0,0,-3.255242,-20.30659,1654.4126)" id="g5354" style="font-style:normal;font-variant:normal;font-weight:normal;font-stretch:normal;letter-spacing:normal;word-spacing:normal;text-anchor:start;fill:none;fill-opacity:1;fill-rule:evenodd;stroke:#000000;stroke-width:0.46079534;stroke-linecap:butt;stroke-linejoin:miter;stroke-miterlimit:10.43299961;stroke-dasharray:none;stroke-dashoffset:0;stroke-opacity:1"><path id="path5356" d="m 226.63,480.86 -0.01,0.08 -0.01,0.08 -0.01,0.07 -0.01,0.07 -0.01,0.07 -0.01,0.07 -0.01,0.06 -0.01,0.06 -0.01,0.06 -0.01,0.05 -0.01,0.06 -0.01,0.05 -0.01,0.05 -0.01,0.04 -0.02,0.05 -0.01,0.05 -0.01,0.04 -0.02,0.04 -0.01,0.04 -0.01,0.04 -0.04,0.08 -0.03,0.07 -0.04,0.08 -0.04,0.07 -0.04,0.07 -0.05,0.07 -1.78,-0.3 0.02,-0.18 c 0.11,0.01 0.3,0.04 0.43,0.04 0.67,0 0.77,-0.71 0.83,-1.24 l 0.45,-3.7 c -0.31,-0.48 -0.98,-1.21 -1.18,-1.21 -0.19,0 -0.17,0.37 -0.68,0.37 -0.15,0 -0.47,-0.13 -0.47,-0.49 0,-0.28 0.22,-0.64 0.66,-0.64 0.81,0 1.58,1.15 2.44,2.24 0.5,0.62 2.42,3.46 2.42,4.38 0,0.46 -0.3,0.73 -0.68,0.73 -0.34,0 -0.56,-0.21 -0.56,-0.47 0,-0.45 0.62,-0.57 0.62,-0.82 0,-0.21 -0.09,-0.45 -0.33,-0.88 -0.26,-0.49 -0.68,-1.19 -1.4,-2.18 z" style="fill:#000000;stroke-width:0" /></g>  <g style="font-style:normal;font-variant:normal;font-weight:normal;font-stretch:normal;letter-spacing:normal;word-spacing:normal;text-anchor:start;fill:none;fill-opacity:1;fill-rule:evenodd;stroke:#000000;stroke-width:0.46079531;stroke-linecap:butt;stroke-linejoin:miter;stroke-miterlimit:10.43299961;stroke-dasharray:none;stroke-dashoffset:0;stroke-opacity:1" id="g5524" transform="matrix(3.2552406,0,0,-3.2552423,138.38616,1811.2991)" xml:space="preserve" stroke-miterlimit="10.433" font-style="normal" font-variant="normal" font-weight="normal" font-stretch="normal" font-size-adjust="none" letter-spacing="normal" word-spacing="normal" ns0:text="$x$" ns0:preamble="/Users/Lizzie/Documents/Old mac/CMEP folder/underground-inkscape-preamble.tex"><path style="fill:#000000;stroke-width:0" d="m 227.04,480.64 -0.23,0.64 c -0.15,0.39 -0.37,0.88 -0.89,1.16 l -1.56,-0.39 0.03,-0.21 c 0.12,0.05 0.3,0.07 0.45,0.07 0.65,0 0.96,-0.48 1.16,-1.05 l 0.39,-1.09 -0.77,-1.19 c -0.38,-0.58 -0.68,-0.7 -0.83,-0.7 -0.29,0 -0.25,0.24 -0.55,0.24 -0.3,0 -0.45,-0.25 -0.45,-0.44 0,-0.26 0.19,-0.55 0.61,-0.55 0.67,0 1.01,0.51 1.39,1.08 l 0.75,1.16 0.47,-1.33 c 0.15,-0.43 0.38,-0.91 0.86,-0.91 0.69,0 1.22,1.13 1.37,1.31 l -0.17,0.12 c -0.25,-0.51 -0.53,-0.68 -0.72,-0.68 -0.54,0 -0.81,1.6 -1.16,2.33 l 0.65,1 c 0.16,0.26 0.29,0.45 0.65,0.45 0.2,0 0.26,-0.1 0.52,-0.1 0.31,0 0.46,0.27 0.46,0.49 0,0.25 -0.2,0.39 -0.58,0.39 -0.59,0 -1.01,-0.52 -1.31,-0.99 z" id="path5526" /></g>  <g style="font-style:normal;font-variant:normal;font-weight:normal;font-stretch:normal;letter-spacing:normal;word-spacing:normal;text-anchor:start;fill:none;fill-opacity:1;fill-rule:evenodd;stroke:#000000;stroke-width:0.55555528;stroke-linecap:butt;stroke-linejoin:miter;stroke-miterlimit:10.43299961;stroke-dasharray:none;stroke-dashoffset:0;stroke-opacity:1" id="g5880" transform="matrix(2.7000011,0,0,-2.7000015,12.300499,1544.5466)" xml:space="preserve" stroke-miterlimit="10.433" font-style="normal" font-variant="normal" font-weight="normal" font-stretch="normal" font-size-adjust="none" letter-spacing="normal" word-spacing="normal" ns0:text="$-2$" ns0:preamble="/Users/Lizzie/Documents/Old mac/CMEP folder/underground-inkscape-preamble.tex"><polygon style="fill:#000000;stroke-width:0" points="224.19,480.61 224.19,479.83 230.79,479.83 230.79,480.61 " id="polygon5882" /><path style="fill:#000000;stroke-width:0" d="m 237.16,478.85 -0.16,0.07 c -0.4,-0.66 -0.64,-0.79 -1.14,-0.79 l -2.77,0 1.95,2.08 c 1.06,1.11 1.52,1.99 1.52,2.93 0,1.17 -0.85,2.08 -2.19,2.08 -1.46,0 -2.22,-0.97 -2.47,-2.35 l 0.25,-0.06 c 0.48,1.15 0.89,1.53 1.74,1.53 1.01,0 1.65,-0.59 1.65,-1.66 0,-1.01 -0.43,-1.9 -1.54,-3.07 l -2.11,-2.23 0,-0.15 4.63,0 z" id="path5884" /></g>  <g style="font-style:normal;font-variant:normal;font-weight:normal;font-stretch:normal;letter-spacing:normal;word-spacing:normal;text-anchor:start;fill:none;fill-opacity:1;fill-rule:evenodd;stroke:#000000;stroke-width:0.76923072;stroke-linecap:butt;stroke-linejoin:miter;stroke-miterlimit:10.43299961;stroke-dasharray:none;stroke-dashoffset:0;stroke-opacity:1" ns0:preamble="/Users/prmb/CMEP/underground-inkscape-preamble.tex" ns0:text="$y=g^{-1}(x)$" word-spacing="normal" letter-spacing="normal" font-size-adjust="none" font-stretch="normal" font-weight="normal" font-variant="normal" font-style="normal" stroke-miterlimit="10.433" xml:space="preserve" transform="matrix(1.9500001,0,0,-1.9500002,152.95022,1054.5252)" id="content"><path id="path4313" d="m 226.62,480.83 -0.01,0.08 -0.01,0.08 -0.01,0.07 -0.01,0.07 -0.01,0.07 -0.01,0.07 -0.01,0.06 -0.01,0.06 -0.01,0.06 -0.01,0.05 -0.01,0.06 -0.01,0.05 -0.01,0.05 -0.01,0.05 -0.02,0.04 -0.01,0.05 -0.01,0.04 -0.02,0.04 -0.01,0.04 -0.01,0.04 -0.04,0.08 -0.03,0.07 -0.04,0.08 -0.04,0.07 -0.04,0.07 -0.05,0.07 -1.77,-0.29 0.02,-0.19 c 0.11,0.01 0.3,0.04 0.43,0.04 0.66,0 0.76,-0.7 0.82,-1.24 l 0.45,-3.7 c -0.31,-0.47 -0.98,-1.21 -1.18,-1.21 -0.19,0 -0.16,0.37 -0.67,0.37 -0.16,0 -0.47,-0.13 -0.47,-0.48 0,-0.29 0.22,-0.65 0.66,-0.65 0.8,0 1.57,1.15 2.43,2.24 0.5,0.62 2.41,3.46 2.41,4.38 0,0.46 -0.3,0.73 -0.67,0.73 -0.35,0 -0.56,-0.21 -0.56,-0.47 0,-0.45 0.61,-0.57 0.61,-0.82 0,-0.21 -0.09,-0.44 -0.33,-0.88 -0.26,-0.49 -0.67,-1.19 -1.39,-2.17 z" style="fill:#000000;stroke-width:0" /><polygon id="polygon4315" points="239.59,481.76 232.64,481.76 232.64,480.98 239.59,480.98 " style="fill:#000000;stroke-width:0" /><polygon id="polygon4317" points="239.59,479.4 232.64,479.4 232.64,478.62 239.59,478.62 " style="fill:#000000;stroke-width:0" /><path id="path4319" d="m 248.77,482.08 -1.49,0 c -0.18,0.18 -0.54,0.33 -1.04,0.33 l 0.05,-0.35 c 0.52,0 0.63,-0.3 0.63,-0.73 l 0,0 c 0,-0.66 -0.29,-1.87 -1.13,-1.87 -0.52,0 -0.66,0.41 -0.66,0.96 0,0.8 0.52,1.64 1.16,1.64 l -0.05,0.35 c -1.25,0 -2.06,-0.93 -2.06,-1.86 0,-0.56 0.32,-1.11 1.11,-1.29 l 0,-0.05 c -0.56,0 -1,-0.58 -1,-1.02 0,-0.21 0.08,-0.43 0.28,-0.56 l 0.24,-0.12 c 0.71,-0.26 2.27,-0.2 2.27,-1.12 l 0,0 c 0,-0.52 -0.43,-1.06 -1.5,-1.06 -1.12,0 -1.64,0.59 -1.64,1.14 0,0.32 0.26,0.63 0.56,0.85 0.1,0.07 0.22,0.13 0.31,0.19 l -0.24,0.12 c -0.73,-0.24 -1.38,-0.59 -1.38,-1.27 0,-0.69 0.59,-1.36 2.18,-1.36 1.75,0 2.53,0.94 2.53,1.78 0,1.48 -2.75,1 -2.75,1.75 0,0.29 0.35,0.59 1.04,0.68 1.04,0.13 1.67,0.87 1.67,1.75 0,0.26 -0.05,0.41 -0.2,0.59 l 0.95,0 z" style="fill:#000000;stroke-width:0" /><polygon id="polygon4321" points="254.3,483.73 249.36,483.73 249.36,483.14 254.3,483.14 " style="fill:#000000;stroke-width:0" /><path id="path4323" d="m 258.37,481.19 0,0.13 c -0.66,0 -0.84,0.16 -0.84,0.54 l 0,5.3 -0.08,0.02 -1.59,-0.8 0,-0.13 0.24,0.09 c 0.16,0.06 0.31,0.11 0.4,0.11 0.19,0 0.27,-0.14 0.27,-0.44 l 0,-3.98 c 0,-0.48 -0.19,-0.67 -0.85,-0.71 l 0,-0.13 z" style="fill:#000000;stroke-width:0" /><path id="path4325" d="m 263.32,475.3 -0.16,0.13 -0.14,0.13 -0.14,0.13 -0.12,0.13 -0.13,0.13 -0.11,0.13 -0.11,0.13 -0.1,0.14 -0.1,0.13 -0.09,0.13 -0.09,0.14 -0.08,0.14 -0.07,0.14 -0.07,0.14 -0.06,0.14 -0.06,0.15 -0.05,0.14 -0.05,0.15 -0.04,0.16 -0.04,0.15 -0.04,0.16 -0.03,0.16 -0.03,0.17 -0.02,0.17 -0.02,0.17 -0.02,0.18 -0.01,0.18 -0.01,0.18 -0.01,0.19 -0.01,0.2 0,0.19 0,0.21 c 0,2.27 0.36,3.37 2.01,4.78 l -0.11,0.19 c -1.89,-1.12 -2.92,-2.83 -2.92,-5.01 0,-2.01 1.02,-4 2.88,-5.06 z" style="fill:#000000;stroke-width:0" /><path id="path4327" d="m 267.27,480.61 -0.23,0.65 c -0.15,0.38 -0.37,0.87 -0.89,1.15 l -1.56,-0.39 0.04,-0.21 c 0.12,0.05 0.29,0.07 0.45,0.07 0.65,0 0.95,-0.48 1.15,-1.05 l 0.39,-1.09 -0.76,-1.19 c -0.38,-0.58 -0.69,-0.69 -0.83,-0.69 -0.3,0 -0.25,0.23 -0.55,0.23 -0.3,0 -0.45,-0.25 -0.45,-0.44 0,-0.26 0.18,-0.55 0.61,-0.55 0.66,0 1,0.51 1.38,1.09 l 0.75,1.15 0.47,-1.33 c 0.15,-0.43 0.38,-0.91 0.86,-0.91 0.68,0 1.22,1.13 1.36,1.31 l -0.17,0.12 c -0.25,-0.51 -0.53,-0.67 -0.72,-0.67 -0.53,0 -0.8,1.59 -1.15,2.32 l 0.64,1 c 0.17,0.26 0.3,0.45 0.65,0.45 0.2,0 0.26,-0.1 0.52,-0.1 0.31,0 0.46,0.27 0.46,0.49 0,0.25 -0.2,0.39 -0.58,0.39 -0.59,0 -1,-0.52 -1.31,-0.99 z" style="fill:#000000;stroke-width:0" /><path id="path4329" d="m 270.53,485 0.16,-0.13 0.15,-0.12 0.14,-0.13 0.13,-0.13 0.12,-0.13 0.12,-0.13 0.11,-0.13 0.11,-0.13 0.09,-0.13 0.1,-0.13 0.08,-0.14 0.08,-0.14 0.07,-0.13 0.07,-0.15 0.06,-0.14 0.06,-0.14 0.05,-0.15 0.04,-0.15 0.05,-0.16 0.03,-0.15 0.04,-0.16 0.03,-0.17 0.02,-0.16 0.03,-0.17 0.01,-0.18 0.02,-0.18 0.01,-0.18 0.01,-0.18 0.01,-0.19 0,-0.2 0.01,-0.2 0,-0.2 c 0,-2.29 -0.33,-3.4 -2.01,-4.79 l 0.11,-0.18 c 1.88,1.14 2.91,2.82 2.91,5 0,2.01 -1.07,3.98 -2.88,5.07 z" style="fill:#000000;stroke-width:0" /></g>  <g id="g4488" transform="matrix(1.9500001,0,0,-1.9500002,152.02974,1081.0776)" xml:space="preserve" stroke-miterlimit="10.433" font-style="normal" font-variant="normal" font-weight="normal" font-stretch="normal" font-size-adjust="none" letter-spacing="normal" word-spacing="normal" ns0:text="$x\\in[-2,\\infty)$" ns0:preamble="/Users/prmb/CMEP/underground-inkscape-preamble.tex" style="font-style:normal;font-variant:normal;font-weight:normal;font-stretch:normal;letter-spacing:normal;word-spacing:normal;text-anchor:start;fill:none;fill-opacity:1;fill-rule:evenodd;stroke:#000000;stroke-width:0.76923072;stroke-linecap:butt;stroke-linejoin:miter;stroke-miterlimit:10.43299961;stroke-dasharray:none;stroke-dashoffset:0;stroke-opacity:1"><path style="fill:#000000;stroke-width:0" d="m 227.03,480.64 -0.23,0.64 c -0.15,0.39 -0.37,0.88 -0.89,1.16 l -1.56,-0.39 0.04,-0.21 c 0.12,0.05 0.29,0.07 0.45,0.07 0.65,0 0.95,-0.48 1.15,-1.05 l 0.39,-1.09 -0.76,-1.19 c -0.38,-0.58 -0.69,-0.7 -0.83,-0.7 -0.3,0 -0.25,0.24 -0.55,0.24 -0.3,0 -0.45,-0.25 -0.45,-0.44 0,-0.26 0.19,-0.55 0.61,-0.55 0.66,0 1,0.51 1.38,1.08 l 0.74,1.16 0.48,-1.33 c 0.15,-0.43 0.38,-0.91 0.86,-0.91 0.68,0 1.21,1.13 1.36,1.31 l -0.17,0.12 c -0.25,-0.51 -0.53,-0.68 -0.72,-0.68 -0.53,0 -0.8,1.6 -1.15,2.33 l 0.64,1 c 0.17,0.26 0.3,0.45 0.65,0.45 0.2,0 0.26,-0.1 0.52,-0.1 0.31,0 0.46,0.27 0.46,0.49 0,0.25 -0.2,0.39 -0.57,0.39 -0.6,0 -1.01,-0.52 -1.32,-0.99 z" id="path4490" /><path style="fill:#000000;stroke-width:0" d="m 240.09,476.92 0,0.78 -3.44,0 c -1.21,0 -2.23,1 -2.43,2.12 l 5.87,0 0,0.78 -5.86,0 c 0.2,1.12 1.22,2.13 2.43,2.13 l 3.43,0 0,0.77 -3.47,0 c -1.88,0 -3.2,-1.54 -3.2,-3.29 0,-1.75 1.34,-3.29 3.23,-3.29 z" id="path4492" /><path style="fill:#000000;stroke-width:0" d="m 247.13,475.39 0,0.3 -0.98,0 c -0.39,0 -0.62,0.16 -0.62,0.64 l 0,7.86 c 0,0.42 0.22,0.57 0.62,0.57 l 0.98,0 0,0.29 -2.49,0 0,-9.66 z" id="path4494" /><polygon style="fill:#000000;stroke-width:0" points="254.87,480.61 248.3,480.61 248.3,479.83 254.87,479.83 " id="polygon4496" /><path style="fill:#000000;stroke-width:0" d="m 261.25,478.85 -0.16,0.07 c -0.39,-0.66 -0.64,-0.79 -1.13,-0.79 l -2.77,0 1.95,2.08 c 1.05,1.11 1.51,1.99 1.51,2.93 0,1.17 -0.85,2.08 -2.18,2.08 -1.45,0 -2.21,-0.97 -2.46,-2.35 l 0.25,-0.06 c 0.47,1.15 0.89,1.53 1.74,1.53 1,0 1.64,-0.59 1.64,-1.66 0,-1.01 -0.43,-1.9 -1.54,-3.07 l -2.1,-2.23 0,-0.15 4.62,0 z" id="path4498" /><path style="fill:#000000;stroke-width:0" d="m 262.56,475.57 0.08,0.04 0.07,0.04 0.07,0.04 0.07,0.04 0.07,0.05 0.07,0.04 0.06,0.05 0.06,0.05 0.06,0.05 0.06,0.06 0.06,0.05 0.05,0.06 0.05,0.05 0.05,0.06 0.05,0.06 0.04,0.06 0.04,0.06 0.04,0.06 0.04,0.07 0.03,0.06 0.03,0.06 0.03,0.07 0.03,0.06 0.02,0.07 0.02,0.07 0.02,0.06 0.02,0.07 0.01,0.07 0.01,0.06 0.01,0.07 0,0.07 0.01,0.06 c 0,0.62 -0.42,1.03 -0.95,1.03 -0.42,0 -0.71,-0.27 -0.71,-0.67 0,-0.41 0.25,-0.61 0.69,-0.61 0.13,0 0.24,0.05 0.34,0.05 0.09,0 0.16,-0.07 0.16,-0.15 0,-0.39 -0.33,-0.83 -0.98,-1.26 z" id="path4500" /><path style="fill:#000000;stroke-width:0" d="m 276.29,479.86 -0.01,0.14 -0.01,0.14 -0.01,0.14 -0.02,0.14 -0.03,0.13 -0.03,0.12 -0.04,0.12 -0.04,0.12 -0.05,0.11 -0.05,0.11 -0.05,0.1 -0.06,0.1 -0.07,0.09 -0.07,0.09 -0.07,0.09 -0.07,0.08 -0.08,0.07 -0.08,0.07 -0.08,0.07 -0.09,0.06 -0.08,0.06 -0.09,0.05 -0.1,0.05 -0.09,0.04 -0.09,0.04 -0.1,0.03 -0.1,0.03 -0.1,0.02 -0.09,0.02 -0.1,0.01 -0.1,0.01 -0.1,0 c -1.2,0 -1.74,-0.75 -2.28,-1.73 l 0.23,-0.45 c 0.35,0.49 0.8,1.19 1.85,1.19 1.04,0 1.64,-0.91 1.64,-1.98 0,-0.76 -0.52,-1.41 -1.18,-1.41 -0.81,0 -1.46,0.76 -2.31,2.16 l 0,0.04 -0.23,0.45 c -1.12,1.51 -1.71,1.73 -2.58,1.73 -0.68,0 -2.25,-0.54 -2.25,-2.71 0,-1.63 1.06,-2.37 2.08,-2.37 1.13,0 1.93,0.64 2.47,1.72 l -0.26,0.42 c -0.32,-0.42 -0.89,-1.14 -1.94,-1.14 -1.04,0 -1.64,0.98 -1.64,1.98 0,0.76 0.52,1.4 1.18,1.4 0.8,0 1.54,-0.8 2.4,-2.2 l 0,-0.04 0.26,-0.42 c 0.73,-1.09 1.4,-1.72 2.37,-1.72 1.48,0 2.34,1.48 2.34,2.63 z" id="path4502" /><path style="fill:#000000;stroke-width:0" d="m 277.52,485.03 0.15,-0.13 0.15,-0.13 0.14,-0.12 0.13,-0.13 0.13,-0.13 0.12,-0.13 0.11,-0.13 0.1,-0.13 0.1,-0.13 0.09,-0.13 0.09,-0.14 0.07,-0.14 0.08,-0.14 0.06,-0.14 0.07,-0.14 0.05,-0.15 0.05,-0.14 0.05,-0.15 0.04,-0.16 0.04,-0.16 0.03,-0.15 0.03,-0.17 0.03,-0.16 0.02,-0.17 0.02,-0.18 0.02,-0.18 0.01,-0.18 0.01,-0.18 0.01,-0.19 0,-0.2 0,-0.2 0,-0.2 c 0,-2.29 -0.33,-3.41 -2,-4.79 l 0.1,-0.19 c 1.88,1.15 2.92,2.83 2.92,5.01 0,2.01 -1.08,3.98 -2.88,5.07 z" id="path4504" /></g></svg>