<?xml version='1.0' ?><svg xmlns:dc="http://purl.org/dc/elements/1.1/" xmlns:cc="http://creativecommons.org/ns#" xmlns:rdf="http://www.w3.org/1999/02/22-rdf-syntax-ns#" xmlns:svg="http://www.w3.org/2000/svg" xmlns="http://www.w3.org/2000/svg" version="1.1" id="svg2" width="320.6381" height="188.45492" viewBox="177.01907 270.00954 320.6381 188.45492" preserveAspectRatio="none">
  <defs id="defs4">
    <marker style="overflow:visible" id="Arrow1Mstart" refX="0" refY="0" orient="auto">
      <path transform="matrix(0.4,0,0,0.4,4,0)" style="fill-rule:evenodd;stroke:#000000;stroke-width:1pt" d="M 0,0 5,-5 -12.5,0 5,5 0,0 z" id="path3899" />
    </marker>
    <marker style="overflow:visible" id="Arrow1Mend" refX="0" refY="0" orient="auto">
      <path transform="matrix(-0.4,0,0,-0.4,-4,0)" style="fill-rule:evenodd;stroke:#000000;stroke-width:1pt" d="M 0,0 5,-5 -12.5,0 5,5 0,0 z" id="path3902" />
    </marker>
  </defs>
  <metadata id="metadata7">
    <rdf:RDF>
      <cc:Work rdf:about="">
        <dc:format>image/svg+xml</dc:format>
        <dc:type rdf:resource="http://purl.org/dc/dcmitype/StillImage" />
        <dc:title />
      </cc:Work>
    </rdf:RDF>
  </metadata>
  <g transform="translate(184.71578,221.43775)" id="layer1">
    <g transform="matrix(1.0056117,0,0,0.80427027,166.69743,-91.277278)" id="g2989">
      <path id="path3110" title="x" d="m -158.14773,389.75267 c 0.98495,-0.67938 1.9699,-1.35876 2.95485,-2.03814 0.98495,-0.67938 1.96989,-1.35876 2.95484,-2.03814 0.98495,-0.67938 1.9699,-1.35876 2.95485,-2.03814 0.98495,-0.67938 1.9699,-1.35876 2.95484,-2.03814 0.98495,-0.67938 1.9699,-1.35876 2.95485,-2.03814 0.98495,-0.67938 1.9699,-1.35876 2.95484,-2.03814 0.98495,-0.67938 1.9699,-1.35876 2.95485,-2.03814 0.98495,-0.67938 1.9699,-1.35876 2.95484,-2.03814 0.98495,-0.67938 1.9699,-1.35876 2.95485,-2.03814 0.98495,-0.67938 1.9699,-1.35876 2.95484,-2.03814 0.98495,-0.67938 1.9699,-1.35876 2.95485,-2.03814 0.98495,-0.67938 1.9699,-1.35876 2.95485,-2.03814 0.98494,-0.67938 1.96989,-1.35876 2.95484,-2.03814 0.98495,-0.67938 1.9699,-1.35876 2.95485,-2.03814 0.98494,-0.67938 1.96989,-1.35876 2.95484,-2.03814 0.98495,-0.67938 1.9699,-1.35876 2.95485,-2.03814 0.98494,-0.67938 1.96989,-1.35876 2.95484,-2.03814 0.98495,-0.67938 1.9699,-1.35876 2.95485,-2.03814 0.98494,-0.67938 1.96989,-1.35876 2.95484,-2.03814 0.98495,-0.67938 1.9699,-1.35876 2.954846,-2.03814 0.984949,-0.67938 1.969897,-1.35876 2.954846,-2.03814 0.984948,-0.67938 1.969897,-1.35876 2.954844,-2.03814 0.984949,-0.67938 1.969898,-1.35876 2.954845,-2.03814 0.984949,-0.67938 1.969898,-1.35876 2.954845,-2.03814 0.984949,-0.67938 1.969898,-1.35876 2.954848,-2.03814 0.984946,-0.67938 1.969895,-1.35876 2.954845,-2.03814 0.984946,-0.67938 1.969896,-1.35876 2.954845,-2.03814 0.984946,-0.67938 1.969896,-1.35876 2.954845,-2.03814 0.984946,-0.67938 1.969896,-1.35876 2.954845,-2.03814 0.984947,-0.67938 1.969896,-1.35876 2.954845,-2.03814 0.984947,-0.67938 1.969896,-1.35876 2.954845,-2.03814 0.984947,-0.67938 1.969896,-1.35876 2.954845,-2.03814 0.984947,-0.67938 1.969896,-1.35876 2.954846,-2.03814 0.984946,-0.67938 1.969895,-1.35876 2.954845,-2.03814 0.984946,-0.67938 1.969895,-1.35876 2.954845,-2.03814 0.984946,-0.67937 1.969895,-1.35875 2.954845,-2.03813 0.984946,-0.67939 1.969896,-1.35877 2.954845,-2.03815 0.984946,-0.67938 1.969896,-1.35876 2.954845,-2.03814 0.984946,-0.67938 1.969896,-1.35876 2.954845,-2.03814 0.984947,-0.67937 1.969896,-1.35875 2.954845,-2.03813 0.984947,-0.67938 1.969896,-1.35876 2.954845,-2.03814 0.98495,-0.67938 1.969896,-1.35877 2.954845,-2.03815 0.98495,-0.67938 1.969896,-1.35876 2.954845,-2.03814 0.98495,-0.67937 1.969896,-1.35875 2.954846,-2.03813 0.984949,-0.67938 1.969895,-1.35876 2.954845,-2.03814 0.984949,-0.67938 1.969895,-1.35876 2.954845,-2.03814 0.984949,-0.67938 1.969896,-1.35877 2.954845,-2.03815 0.984949,-0.67938 1.969896,-1.35875 2.954845,-2.03813 0.984949,-0.67938 1.969896,-1.35876 2.954845,-2.03814 0.984949,-0.67938 1.969896,-1.35876 2.954845,-2.03814 0.9849495,-0.67938 1.9698959,-1.35876 2.9548453,-2.03814 0.9849493,-0.67938 1.9698957,-1.35876 2.9548451,-2.03814 0.9849493,-0.67938 1.9698957,-1.35876 2.9548451,-2.03814 0.9849493,-0.67938 1.96989574,-1.35876 2.9548451,-2.03814 0.9849493,-0.67938 1.9698957,-1.35876 2.9548451,-2.03814 0.9849493,-0.67938 1.9698957,-1.35876 2.9548451,-2.03814 0.9849493,-0.67938 1.9698957,-1.35876 2.9548452,-2.03814 0.984949,-0.67938 1.969896,-1.35876 2.954845,-2.03814 0.984949,-0.67938 1.969899,-1.35876 2.954845,-2.03814 0.984949,-0.67938 1.969899,-1.35876 2.954845,-2.03814 0.984949,-0.67938 1.969899,-1.35876 2.954845,-2.03814 0.98495,-0.67938 1.969899,-1.35876 2.954845,-2.03814 0.98495,-0.67938 1.969899,-1.35876 2.954845,-2.03814 0.98495,-0.67938 1.969899,-1.35876 2.954846,-2.03814 0.984949,-0.67938 1.969898,-1.35876 2.954845,-2.03814 0.984949,-0.67938 1.969898,-1.35876 2.954845,-2.03814 0.984949,-0.67938 1.969898,-1.35876 2.954845,-2.03814 0.984949,-0.67938 1.969899,-1.35876 2.954845,-2.03814 0.984949,-0.67938 1.969899,-1.35876 2.954845,-2.03814 0.984949,-0.67938 1.969899,-1.35876 2.954845,-2.03814 0.984949,-0.67938 1.969899,-1.35876 2.954845,-2.03814 0.98495,-0.67938 1.969899,-1.35876 2.954845,-2.03814 0.98495,-0.67938 1.969899,-1.35876 2.954845,-2.03814 0.98495,-0.67938 1.969899,-1.35876 2.954846,-2.03814 0.984949,-0.67938 1.969898,-1.35876 2.954848,-2.03814 0.984946,-0.67938 1.969895,-1.35876 2.954845,-2.03814 0.984946,-0.67938 1.969895,-1.35876 2.954845,-2.03814 0.984946,-0.67938 1.969895,-1.35876 2.954845,-2.03814 0.984946,-0.67938 1.969896,-1.35876 2.954845,-2.03814 0.984946,-0.67938 1.969896,-1.35876 2.954845,-2.03814 0.984946,-0.67938 1.969896,-1.35876 2.954845,-2.03814 0.984947,-0.67938 1.969896,-1.35876 2.954845,-2.03814 0.984947,-0.67938 1.969896,-1.35876 2.954845,-2.03814 0.984947,-0.67938 1.969896,-1.35876 2.954845,-2.03814 0.984947,-0.67938 1.969896,-1.35875 2.954846,-2.03814 0.984946,-0.67938 1.969895,-1.35876 2.954845,-2.03814 0.984946,-0.67938 1.969895,-1.35876 2.954845,-2.03814 0.984946,-0.67938 1.969897,-1.35876 2.954847,-2.03814 0.98494,-0.67938 1.96989,-1.35876 2.95484,-2.03813 0.98495,-0.67938 1.9699,-1.35876 2.95485,-2.03814 0.98494,-0.67939 1.96989,-1.35877 2.95484,-2.03815 0.98495,-0.67938 1.9699,-1.35876 2.95485,-2.03814 0.98495,-0.67938 1.96989,-1.35876 2.95484,-2.03813 0.98495,-0.67938 1.9699,-1.35876 2.95485,-2.03814 0.98495,-0.67938 1.96989,-1.35876 2.95484,-2.03814 0.98495,-0.67938 1.9699,-1.35877 2.95485,-2.03815 0.98495,-0.67938 1.96989,-1.35876 2.95484,-2.03813 0.98495,-0.67938 1.9699,-1.35876 2.95485,-2.03814 0.98495,-0.67938 1.96989,-1.35876 2.95484,-2.03814" style="fill:none;stroke:#000000;stroke-width:2.5896678;stroke-linecap:butt;stroke-linejoin:miter;stroke-miterlimit:4;stroke-opacity:1;stroke-dasharray:none;stroke-dashoffset:0" />
      <path style="fill:none;stroke:#000000;stroke-width:2.5896678;stroke-linecap:butt;stroke-linejoin:miter;stroke-miterlimit:4;stroke-opacity:1;stroke-dasharray:none;marker-start:url(#Arrow1Mstart);marker-end:none" d="m -157.67536,178.98658 0,229.21449" id="path3117" />
      <path style="fill:none;stroke:#000000;stroke-width:2.5896678;stroke-linecap:butt;stroke-linejoin:miter;stroke-miterlimit:4;stroke-opacity:1;stroke-dasharray:none;marker-end:url(#Arrow1Mend)" d="m -173.42095,390.62542 313.74541,0" id="path3119" />
    </g>
  </g>
</svg>