<?xml version='1.0' ?><svg xmlns:dc="http://purl.org/dc/elements/1.1/" xmlns:cc="http://creativecommons.org/ns#" xmlns:rdf="http://www.w3.org/1999/02/22-rdf-syntax-ns#" xmlns:svg="http://www.w3.org/2000/svg" xmlns="http://www.w3.org/2000/svg" version="1.1" id="svg2" width="320.51316" height="188.11143" viewBox="202.59123 95.945278 320.51316 188.11143" preserveAspectRatio="none">
  <defs id="defs4">
    <marker orient="auto" refY="0" refX="0" id="Arrow1Mstart" style="overflow:visible">
      <path id="path3899" d="M 0,0 5,-5 -12.5,0 5,5 0,0 z" style="fill-rule:evenodd;stroke:#000000;stroke-width:1pt" transform="matrix(0.4,0,0,0.4,4,0)" />
    </marker>
    <marker orient="auto" refY="0" refX="0" id="Arrow1Mend" style="overflow:visible">
      <path id="path3902" d="M 0,0 5,-5 -12.5,0 5,5 0,0 z" style="fill-rule:evenodd;stroke:#000000;stroke-width:1pt" transform="matrix(-0.4,0,0,-0.4,-4,0)" />
    </marker>
  </defs>
  <metadata id="metadata7">
    <rdf:RDF>
      <cc:Work rdf:about="">
        <dc:format>image/svg+xml</dc:format>
        <dc:type rdf:resource="http://purl.org/dc/dcmitype/StillImage" />
        <dc:title />
      </cc:Work>
    </rdf:RDF>
  </metadata>
  <g id="layer1" transform="translate(184.71578,221.43775)">
    <g transform="matrix(0.2906649,0,0,0.2906649,67.496531,-174.83231)" id="g3188">
      <path id="path3117" d="m -116.16754,185.51363 0,631.41085" style="fill:none;stroke:#000000;stroke-width:8;stroke-linecap:butt;stroke-linejoin:miter;stroke-miterlimit:4;stroke-opacity:1;stroke-dasharray:none;marker-start:url(#Arrow1Mstart);marker-end:none" />
      <path id="path3119" d="m -170.71578,768.50932 1086.92414,0" style="fill:none;stroke:#000000;stroke-width:8;stroke-linecap:butt;stroke-linejoin:miter;stroke-miterlimit:4;stroke-opacity:1;stroke-dasharray:none;marker-end:url(#Arrow1Mend)" />
      <path id="path4982" title="1" d="m -117.80399,580.82971 c 3.41221,0 6.82441,0 10.23662,0 3.41221,0 6.82441,0 10.23662,0 3.412207,0 6.824414,0 10.236621,0 3.412206,0 6.824413,0 10.23662,0 3.412207,0 6.824413,0 10.23662,0 3.412207,0 6.824413,0 10.23662,0 3.412207,0 6.824414,0 10.23662,0 3.412207,0 6.824414,0 10.236621,0 3.412206,0 6.824413,0 10.23662,0 3.412207,0 6.824413,0 10.23662,0 3.412207,0 6.8244135,0 10.2366202,0 3.4122068,0 6.8244135,0 10.2366202,0 3.4122068,0 6.8244136,0 10.2366206,0 3.412206,0 6.824413,0 10.23662,0 3.412207,0 6.824413,0 10.23662,0 3.412207,0 6.824413,0 10.23662,0 3.412207,0 6.824414,0 10.23662,0 3.412207,0 6.824414,0 10.236621,0 3.412206,0 6.824413,0 10.23662,0 3.412207,0 6.824413,0 10.23662,0 3.412207,0 6.824414,0 10.23662,0 3.412206,0 6.824416,0 10.236616,0 3.41221,0 6.82442,0 10.23662,0 3.41221,0 6.82442,0 10.23662,0 3.41221,0 6.82442,0 10.23663,0 3.4122,0 6.82441,0 10.23662,0 3.4122,0 6.82441,0 10.23662,0 3.4122,0 6.82441,0 10.23662,0 3.4122,0 6.82441,0 10.23662,0 3.4122,0 6.82441,0 10.23662,0 3.4122,0 6.82441,0 10.23662,0 3.4122,0 6.82441,0 10.23662,0 3.4122,0 6.82441,0 10.23662,0 3.4122,0 6.82441,0 10.23662,0 3.4122,0 6.82441,0 10.23662,0 3.4122,0 6.82441,0 10.23662,0 3.4122,0 6.82441,0 10.23662,0 3.4122,0 6.82441,0 10.23662,0 3.4122,0 6.82441,0 10.23662,0 3.4122,0 6.82441,0 10.23662,0 3.4122,0 6.82441,0 10.23662,0 3.41221,0 6.82441,0 10.23662,0 3.41221,0 6.82441,0 10.23662,0 3.41221,0 6.82441,0 10.23662,0 3.41221,0 6.82441,0 10.23662,0 3.41221,0 6.82441,0 10.23662,0 3.41221,0 6.82441,0 10.23662,0 3.41221,0 6.82441,0 10.23662,0 3.41221,0 6.82441,0 10.23662,0 3.41221,0 6.82441,0 10.23662,0 3.41221,0 6.82441,0 10.23662,0 3.41221,0 6.82441,0 10.23662,0 3.41221,0 6.82441,0 10.23662,0 3.41221,0 6.82441,0 10.23662,0 3.41221,0 6.82441,0 10.23662,0 3.41221,0 6.82441,0 10.23662,0 3.41221,0 6.82441,0 10.23662,0 3.41221,0 6.82441,0 10.23662,0 3.41221,0 6.82442,0 10.23662,0 3.41221,0 6.82442,0 10.23662,0 3.41221,0 6.82442,0 10.23662,0 3.41221,0 6.82442,0 10.23662,0 3.41221,0 6.82442,0 10.23662,0 3.41221,0 6.82442,0 10.23662,0 3.41221,0 6.82442,0 10.23662,0 3.41221,0 6.82442,0 10.23662,0 3.41221,0 6.82442,0 10.23662,0 3.41221,0 6.82442,0 10.23662,0 3.41221,0 6.82442,0 10.23662,0 3.41221,0 6.82442,0 10.23662,0 3.41221,0 6.82442,0 10.23662,0 3.41221,0 6.82442,0 10.23662,0 3.41221,0 6.82442,0 10.23662,0 3.41221,0 6.82442,0 10.23662,0 3.41221,0 6.82442,0 10.23663,0 3.4122,0 6.82441,0 10.23662,0 3.4122,0 6.82441,0 10.23662,0 3.4122,0 6.82441,0 10.23662,0 3.4122,0 6.82441,0 10.23662,0 3.4122,0 6.82441,0 10.23662,0 3.4122,0 6.82441,0 10.23662,0 3.4122,0 6.82441,0 10.23662,0 3.4122,0 6.82441,0 10.23662,0 3.4122,0 6.82441,0 10.23662,0 3.4122,0 6.82441,0 10.23662,0 3.4122,0 6.82441,0 10.23662,0 3.4122,0 6.82441,0 10.23662,0 3.4122,0 6.82441,0 10.23662,0 3.4122,0 6.82441,0 10.23662,0 3.4122,0 6.82441,0 10.23662,0 3.4122,0 6.82441,0 10.23662,0 3.41221,0 6.82441,0 10.23662,0 3.41221,0 6.82441,0 10.23662,0 3.41221,0 6.82441,0 10.23662,0 3.41221,0 6.82441,0 10.23662,0 3.41221,0 6.82441,0 10.23662,0 3.41221,0 6.82441,0 10.23662,0 3.41221,0 6.82441,0 10.23662,0 3.41221,0 6.82441,0 10.23662,0" style="fill:none;stroke:#000000;stroke-width:8;stroke-linecap:butt;stroke-linejoin:miter;stroke-miterlimit:4;stroke-opacity:1;stroke-dasharray:none;stroke-dashoffset:0" />
    </g>
  </g>
</svg>