<?xml version='1.0' ?><svg xmlns:dc="http://purl.org/dc/elements/1.1/" xmlns:cc="http://creativecommons.org/ns#" xmlns:rdf="http://www.w3.org/1999/02/22-rdf-syntax-ns#" xmlns:svg="http://www.w3.org/2000/svg" xmlns="http://www.w3.org/2000/svg" version="1.1" id="svg2" width="320.51316" height="188.11143" viewBox="206.87694 275.94528 320.51316 188.11143" preserveAspectRatio="none">
  <defs id="defs4">
    <marker orient="auto" refY="0" refX="0" id="Arrow1Mstart" style="overflow:visible">
      <path id="path3899" d="M 0,0 5,-5 -12.5,0 5,5 0,0 z" style="fill-rule:evenodd;stroke:#000000;stroke-width:1pt" transform="matrix(0.4,0,0,0.4,4,0)" />
    </marker>
    <marker orient="auto" refY="0" refX="0" id="Arrow1Mend" style="overflow:visible">
      <path id="path3902" d="M 0,0 5,-5 -12.5,0 5,5 0,0 z" style="fill-rule:evenodd;stroke:#000000;stroke-width:1pt" transform="matrix(-0.4,0,0,-0.4,-4,0)" />
    </marker>
  </defs>
  <metadata id="metadata7">
    <rdf:RDF>
      <cc:Work rdf:about="">
        <dc:format>image/svg+xml</dc:format>
        <dc:type rdf:resource="http://purl.org/dc/dcmitype/StillImage" />
        <dc:title />
      </cc:Work>
    </rdf:RDF>
  </metadata>
  <g id="layer1" transform="translate(184.71578,221.43775)">
    <g transform="matrix(0.2906649,0,0,0.2906649,71.782246,5.1676929)" id="g3326">
      <path id="path3117" d="m -116.16754,185.51363 0,631.41085" style="fill:none;stroke:#000000;stroke-width:8;stroke-linecap:butt;stroke-linejoin:miter;stroke-miterlimit:4;stroke-opacity:1;stroke-dasharray:none;marker-start:url(#Arrow1Mstart);marker-end:none" />
      <path id="path3119" d="m -170.71578,644.22361 1086.92414,0" style="fill:none;stroke:#000000;stroke-width:8;stroke-linecap:butt;stroke-linejoin:miter;stroke-miterlimit:4;stroke-opacity:1;stroke-dasharray:none;marker-end:url(#Arrow1Mend)" />
      <path style="fill:none;stroke:#000000;stroke-width:8;stroke-linecap:butt;stroke-linejoin:miter;stroke-miterlimit:4;stroke-opacity:1;stroke-dasharray:none;stroke-dashoffset:0" d="" title="(x**4)/16-x**3+4x**2+x" id="path5083" />
      <path id="path5109" title="(x**4)/16-x**3+4x**2+x" d="" style="fill:none;stroke:#000000;stroke-width:8;stroke-linecap:butt;stroke-linejoin:miter;stroke-miterlimit:4;stroke-opacity:1;stroke-dasharray:none;stroke-dashoffset:0" />
      <path id="path6516" title="(x**3)/4-3*x**2+8*x+1" d="m -115.71423,631.54039 c 3.41221,-3.32693 6.82441,-6.52797 10.23662,-9.60628 3.41221,-3.07831 6.824414,-6.03342 10.23662,-8.86922 3.412207,-2.83581 6.824414,-5.5516 10.236621,-8.15127 3.412206,-2.59966 6.824413,-5.0825 10.23662,-7.45239 3.412207,-2.36989 6.824413,-4.62615 10.23662,-6.77263 3.412207,-2.14648 6.824413,-4.18252 10.23662,-6.11195 3.412207,-1.92943 6.824414,-3.75162 10.23662,-5.47037 3.412207,-1.71875 6.824414,-3.33345 10.236621,-4.84788 3.412206,-1.51444 6.824413,-2.92801 10.23662,-4.2445 3.412207,-1.31648 6.824413,-2.53529 10.23662,-3.66019 3.4122068,-1.1249 6.8244135,-2.15532 10.2366202,-3.09499 3.41220676,-0.93968 6.8244135,-1.78807 10.2366202,-2.54889 3.4122066,-0.76082 6.8244136,-1.43354 10.2366206,-2.02187 3.412206,-0.58833 6.824413,-1.09175 10.23662,-1.51395 3.412207,-0.4222 6.824413,-0.76269 10.23662,-1.02513 3.412207,-0.26244 6.824413,-0.44636 10.23662,-0.5554 3.412207,-0.10905 6.824414,-0.14276 10.23662,-0.10477 3.412207,0.038 6.824414,0.14812 10.236621,0.32677 3.412206,0.17866 6.824413,0.42626 10.23662,0.73922 3.412207,0.31296 6.824413,0.69167 10.23662,1.13257 3.412207,0.4409 6.824414,0.94436 10.23662,1.50683 3.412206,0.56247 6.824416,1.1843 10.236616,1.86198 3.41221,0.67768 6.82442,1.41153 10.23662,2.19805 3.41221,0.78652 6.82442,1.62603 10.23662,2.51503 3.41221,0.889 6.82442,1.82779 10.23663,2.8129 3.4122,0.98511 6.82441,2.01682 10.23662,3.09168 3.4122,1.07486 6.82441,2.19313 10.23662,3.35137 3.4122,1.15824 6.82441,2.3567 10.23662,3.59196 3.4122,1.23526 6.82441,2.50755 10.23662,3.81346 3.4122,1.30592 6.82441,2.64567 10.23662,4.01587 3.4122,1.3702 6.82441,2.77105 10.23662,4.19917 3.4122,1.42813 6.82441,2.88371 10.23662,4.36339 3.4122,1.47969 6.82441,2.98363 10.23662,4.50851 3.4122,1.52488 6.82441,3.07082 10.23662,4.63453 3.4122,1.56371 6.82441,3.14529 10.23662,4.74146 3.4122,1.59618 6.82441,3.20703 10.23662,4.8293 3.4122,1.62227 6.82441,3.25604 10.23662,4.89804 3.4122,1.64201 6.82441,3.29231 10.23662,4.94769 3.4122,1.65537 6.82441,3.31585 10.23662,4.97823 3.4122,1.66238 6.82441,3.32668 10.23662,4.9897 3.4122,1.66302 6.82441,3.32476 10.23662,4.98205 3.41221,1.6573 6.82441,3.31012 10.23662,4.95533 3.41221,1.6452 6.82441,3.28274 10.23662,4.90949 3.41221,1.62675 6.82441,3.24265 10.23662,4.84458 3.41221,1.60193 6.82441,3.18981 10.23662,4.76055 3.41221,1.57075 6.82441,3.12425 10.23662,4.65745 3.41221,1.53319 6.82441,3.04596 10.23662,4.53524 3.41221,1.48928 6.82441,2.95494 10.23662,4.39394 3.41221,1.439 6.82441,2.85119 10.23662,4.23354 3.41221,1.38236 6.82441,2.73471 10.23662,4.05406 3.41221,1.31934 6.82441,2.60549 10.23662,3.85547 3.41221,1.24997 6.82441,2.46355 10.23662,3.63779 3.41221,1.17423 6.82441,2.30888 10.23662,3.40101 3.41221,1.09213 6.82441,2.14149 10.23662,3.14515 3.41221,1.00366 6.82441,1.96136 10.23662,2.87019 3.41221,0.90882 6.82441,1.76849 10.23662,2.57612 3.41221,0.80763 6.82441,1.56291 10.23662,2.26298 3.41221,0.70006 6.82441,1.34458 10.23662,1.93072 3.41221,0.58614 6.82442,1.11354 10.23662,1.57939 3.41221,0.46584 6.82442,0.86976 10.23662,1.20894 3.41221,0.33919 6.82442,0.61326 10.23662,0.81942 3.41221,0.20616 6.82442,0.34401 10.23662,0.41079 3.41221,0.0668 6.82442,0.062 10.23662,-0.0169 3.41221,-0.079 6.82442,-0.23265 10.23662,-0.46375 3.41221,-0.23109 6.82442,-0.54008 10.23662,-0.92965 3.41221,-0.38958 6.82442,-0.86024 10.23662,-1.41466 3.41221,-0.55443 6.82442,-1.19313 10.23662,-1.91876 3.41221,-0.72564 6.82442,-1.53874 10.23662,-2.44196 3.41221,-0.90321 6.82442,-1.89708 10.23662,-2.98424 3.41221,-1.08716 6.82442,-2.26816 10.23662,-3.54563 3.41221,-1.27746 6.82442,-2.65197 10.23662,-4.1261 3.41221,-1.47414 6.82442,-3.04851 10.23662,-4.72568 3.41221,-1.67717 6.82442,-3.45777 10.23662,-5.34435 3.41221,-1.88657 6.82442,-3.87976 10.23662,-5.9821 3.41221,-2.10235 6.82442,-4.31449 10.23663,-6.63897 3.4122,-2.32447 6.82441,-4.76194 10.23662,-7.31491 3.4122,-2.55297 6.82441,-5.22213 10.23662,-8.00997 3.4122,-2.78783 6.82441,-5.69504 10.23662,-8.7241 3.4122,-3.02906 6.82441,-6.18069 10.23662,-9.45734 3.4122,-3.27665 6.82441,-6.67906 10.23662,-10.20967 3.4122,-3.5306 6.82441,-7.19016 10.23662,-10.98109 3.4122,-3.79092 6.82441,-7.714 10.23662,-11.77161 3.4122,-4.05761 6.82441,-8.25057 10.23662,-12.58123 3.4122,-4.33066 6.82441,-8.79986 10.23662,-13.40994 3.4122,-4.61007 6.82441,-9.36188 10.23662,-14.25774 3.4122,-4.89585 6.82441,-9.93663 10.23662,-15.12463 3.4122,-5.18801 6.82441,-10.52412 10.23662,-16.01064 3.4122,-5.48651 6.82441,-11.12433 10.23662,-16.91571 3.4122,-5.79139 6.82441,-11.73728 10.23662,-17.83991 3.4122,-6.10262 6.82441,-12.36294 10.23662,-18.78317 3.4122,-6.42024 6.82441,-13.00135 10.23662,-19.74555 3.41221,-6.74421 6.82441,-13.65248 10.23662,-20.72702 3.41221,-7.07454 6.82441,-14.31634 10.23662,-21.72758 3.41221,-7.41123 6.82441,-14.99293 10.23662,-22.74723 3.41221,-7.7543 6.82441,-15.68225 10.23662,-23.78598 3.41221,-8.10373 6.82441,-16.38431 10.23662,-24.84383 3.41221,-8.45953 6.82441,-17.09908 10.23662,-25.92077 3.41221,-8.82168 6.82441,-17.82659 10.23662,-27.0168 3.41221,-9.19021 6.82441,-18.56684 10.23662,-28.13193" style="fill:none;stroke:#000000;stroke-width:8;stroke-linecap:butt;stroke-linejoin:miter;stroke-miterlimit:4;stroke-opacity:1;stroke-dasharray:none;stroke-dashoffset:0" />
    </g>
  </g>
</svg>