<?xml version='1.0' ?><svg xmlns:dc="http://purl.org/dc/elements/1.1/" xmlns:cc="http://creativecommons.org/ns#" xmlns:rdf="http://www.w3.org/1999/02/22-rdf-syntax-ns#" xmlns:svg="http://www.w3.org/2000/svg" xmlns="http://www.w3.org/2000/svg" id="svg2" version="1.1" width="320.51316" height="188.17129" viewBox="201.16265 113.09905 320.51316 188.17129" preserveAspectRatio="none">
  <defs id="defs4">
    <marker orient="auto" refY="0" refX="0" id="Arrow1Mstart" style="overflow:visible">
      <path id="path3899" d="M 0,0 5,-5 -12.5,0 5,5 0,0 z" style="fill-rule:evenodd;stroke:#000000;stroke-width:1pt" transform="matrix(0.4,0,0,0.4,4,0)" />
    </marker>
    <marker orient="auto" refY="0" refX="0" id="Arrow1Mend" style="overflow:visible">
      <path id="path3902" d="M 0,0 5,-5 -12.5,0 5,5 0,0 z" style="fill-rule:evenodd;stroke:#000000;stroke-width:1pt" transform="matrix(-0.4,0,0,-0.4,-4,0)" />
    </marker>
  </defs>
  <metadata id="metadata7">
    <rdf:RDF>
      <cc:Work rdf:about="">
        <dc:format>image/svg+xml</dc:format>
        <dc:type rdf:resource="http://purl.org/dc/dcmitype/StillImage" />
        <dc:title />
      </cc:Work>
    </rdf:RDF>
  </metadata>
  <g id="layer1" transform="translate(184.71578,221.43775)">
    <g transform="matrix(0.2906649,0,0,0.2906649,66.06796,-157.67854)" id="g3118">
      <path id="path3117" d="m -116.16754,185.51363 0,631.41085" style="fill:none;stroke:#000000;stroke-width:8;stroke-linecap:butt;stroke-linejoin:miter;stroke-miterlimit:4;stroke-opacity:1;stroke-dasharray:none;marker-start:url(#Arrow1Mstart);marker-end:none" />
      <path id="path3119" d="m -170.71578,338.50932 1086.92414,0" style="fill:none;stroke:#000000;stroke-width:8;stroke-linecap:butt;stroke-linejoin:miter;stroke-miterlimit:4;stroke-opacity:1;stroke-dasharray:none;marker-end:url(#Arrow1Mend)" />
      <path style="fill:none;stroke:#000000;stroke-width:8;stroke-linecap:butt;stroke-linejoin:miter;stroke-miterlimit:4;stroke-opacity:1;stroke-dasharray:none;stroke-dashoffset:0" d="" title="(x**4)/16-x**3+4x**2+x" id="path5083" />
      <path id="path5109" title="(x**4)/16-x**3+4x**2+x" d="" style="fill:none;stroke:#000000;stroke-width:8;stroke-linecap:butt;stroke-linejoin:miter;stroke-miterlimit:4;stroke-opacity:1;stroke-dasharray:none;stroke-dashoffset:0" />
      <path id="path5657" title="0.25*log(x/4)" d="m -104.94685,816.93986 c 3.41221,-71.5478 6.824413,-93.98854 10.236623,-117.78961 3.412207,-23.80106 6.824414,-40.40455 10.23662,-54.6737 3.412207,-14.26915 6.824414,-25.80739 10.236621,-35.99613 3.412206,-10.18874 6.824413,-18.95692 10.23662,-26.87998 3.412207,-7.92306 6.824413,-14.97877 10.23662,-21.46048 3.412207,-6.48172 6.824413,-12.37981 10.23662,-17.86388 3.412207,-5.48406 6.824414,-10.54895 10.23662,-15.30151 3.412207,-4.75256 6.824414,-9.18963 10.236621,-13.38286 3.412206,-4.19324 6.824413,-8.1405 10.23662,-11.8922 3.4122069,-3.75171 6.8244132,-7.30629 10.2366199,-10.70059 3.41220676,-3.39429 6.8244135,-6.6271 10.2366202,-9.72617 3.4122069,-3.09906 6.8244139,-6.06342 10.2366199,-8.9145 3.412207,-2.85108 6.824414,-5.58809 10.236621,-8.22793 3.412206,-2.63984 6.824413,-5.18185 10.23662,-7.6396 3.412207,-2.45774 6.824413,-4.83066 10.23662,-7.12981 3.412207,-2.29915 6.824414,-4.52405 10.23662,-6.68384 3.412207,-2.15978 6.824414,-4.25402 10.23662,-6.29037 3.412207,-2.03634 6.824414,-4.01442 10.236621,-5.94067 3.412206,-1.92625 6.824413,-3.80036 10.23662,-5.62782 3.412207,-1.82745 6.824413,-3.60797 10.23662,-5.34627 3.412203,-1.7383 6.824413,-3.43412 10.236613,-5.09155 3.41221,-1.65744 6.82442,-3.27625 10.23662,-4.86002 3.41221,-1.58376 6.82442,-3.13226 10.23662,-4.64862 3.41221,-1.51636 6.82442,-3.00038 10.23662,-4.45484 3.41221,-1.45446 6.82442,-2.87917 10.23663,-4.27659 3.4122,-1.39742 6.82441,-2.76737 10.23662,-4.11205 3.4122,-1.34467 6.82441,-2.66392 10.23662,-3.95969 3.4122,-1.29578 6.82441,-2.56794 10.23662,-3.81824 3.4122,-1.25031 6.82441,-2.47862 10.23662,-3.68654 3.4122,-1.20791 6.82441,-2.39531 10.23662,-3.56362 3.4122,-1.1683 6.82441,-2.31741 10.23662,-3.44863 3.4122,-1.13121 6.82441,-2.24443 10.23662,-3.34084 3.4122,-1.0964 6.82441,-2.1759 10.23662,-3.23957 3.4122,-1.06368 6.82441,-2.11143 10.23662,-3.14427 3.4122,-1.03285 6.82441,-2.05068 10.23662,-3.05442 3.4122,-1.00375 6.82441,-1.99332 10.23662,-2.96956 3.4122,-0.97624 6.82441,-1.93907 10.23662,-2.88928 3.4122,-0.95021 6.82441,-1.88771 10.23662,-2.81324 3.4122,-0.92552 6.82441,-1.83899 10.23662,-2.74108 3.4122,-0.9021 6.82441,-1.79274 10.23662,-2.67255 3.4122,-0.87982 6.82441,-1.74874 10.23662,-2.60736 3.41221,-0.85861 6.82441,-1.70685 10.23662,-2.54526 3.41221,-0.83841 6.82441,-1.66693 10.23662,-2.48607 3.41221,-0.81913 6.82441,-1.62882 10.23662,-2.42955 3.41221,-0.80073 6.82441,-1.59243 10.23662,-2.37556 3.41221,-0.78312 6.82441,-1.55762 10.23662,-2.3239 3.41221,-0.76629 6.82441,-1.52431 10.23662,-2.27446 3.41221,-0.75015 6.82441,-1.49238 10.23662,-2.22707 3.41221,-0.73468 6.82441,-1.46177 10.23662,-2.18161 3.41221,-0.71983 6.82441,-1.43238 10.23662,-2.13797 3.41221,-0.70558 6.82441,-1.40416 10.23662,-2.09604 3.41221,-0.69189 6.82441,-1.37703 10.23662,-2.05574 3.41221,-0.6787 6.82441,-1.35092 10.23662,-2.01694 3.41221,-0.66602 6.82441,-1.32579 10.23662,-1.97959 3.41221,-0.65379 6.82441,-1.30157 10.23662,-1.94359 3.41221,-0.64201 6.82441,-1.27823 10.23662,-1.90888 3.41221,-0.63065 6.82441,-1.2557 10.23662,-1.87539 3.41221,-0.61968 6.82441,-1.23396 10.23662,-1.84305 3.41221,-0.60909 6.82442,-1.21296 10.23662,-1.81181 3.41221,-0.59885 6.82442,-1.19266 10.23662,-1.78161 3.41221,-0.58895 6.82442,-1.17302 10.23662,-1.7524 3.41221,-0.57938 6.82442,-1.15403 10.23662,-1.72413 3.41221,-0.57011 6.82442,-1.13564 10.23662,-1.69677 3.41221,-0.56113 6.82442,-1.11782 10.23662,-1.67025 3.41221,-0.55243 6.82442,-1.10056 10.23662,-1.64455 3.41221,-0.544 6.82442,-1.08382 10.23662,-1.61964 3.41221,-0.53581 6.82442,-1.06758 10.23662,-1.59545 3.41221,-0.52788 6.82442,-1.05183 10.23662,-1.572 3.41221,-0.52016 6.82442,-1.03652 10.23662,-1.54921 3.41221,-0.51268 6.82442,-1.02166 10.23662,-1.52707 3.41221,-0.50541 6.82442,-1.00723 10.23662,-1.50557 3.41221,-0.49834 6.82442,-0.99319 10.23662,-1.48465 3.41221,-0.49147 6.82442,-0.97954 10.23662,-1.46432 3.41221,-0.48478 6.82442,-0.96625 10.23662,-1.44453 3.41221,-0.47827 6.82442,-0.95332 10.23663,-1.42526 3.4122,-0.47194 6.82441,-0.94074 10.23662,-1.40651 3.4122,-0.46577 6.82441,-0.92848 10.23662,-1.38824 3.4122,-0.45976 6.82441,-0.91654 10.23662,-1.37045 3.4122,-0.4539 6.82441,-0.9049 10.23662,-1.35309 3.4122,-0.44819 6.82441,-0.89356 10.23662,-1.33618 3.4122,-0.44263 6.82441,-0.88249 10.23662,-1.31969 3.4122,-0.43719 6.82441,-0.87169 10.23662,-1.30358 3.4122,-0.4319 6.82441,-0.86117 10.23662,-1.28789 3.4122,-0.42672 6.82441,-0.85087 10.23662,-1.27255 3.4122,-0.42167 6.82441,-0.84083 10.23662,-1.25757 3.4122,-0.41674 6.82441,-0.83104 10.23662,-1.24296 3.4122,-0.41192 6.82441,-0.82145 10.23662,-1.22866 3.4122,-0.40722 6.82441,-0.81209 10.23662,-1.21471 3.4122,-0.40261 6.82441,-0.80294 10.23662,-1.20105 3.4122,-0.39811 6.82441,-0.79399 10.23662,-1.18771 3.4122,-0.39371 6.82441,-0.78524 10.23662,-1.17465 3.41221,-0.38941 6.82441,-0.77669 10.23662,-1.16189 3.41221,-0.3852 6.82441,-0.76831 10.23662,-1.1494 3.41221,-0.38108 6.82441,-0.76011 10.23662,-1.13716 3.41221,-0.37705 6.82441,-0.7521 10.23662,-1.1252 3.41221,-0.3731 6.82441,-0.74424 10.23662,-1.11347 3.41221,-0.36923 6.82441,-0.73655 10.23662,-1.10199 3.41221,-0.36545 6.82441,-0.72902 10.23662,-1.09075 3.41221,-0.36174 6.82441,-0.72163 10.23662,-1.07973" style="fill:none;stroke:#000000;stroke-width:8;stroke-linecap:butt;stroke-linejoin:miter;stroke-miterlimit:4;stroke-opacity:1;stroke-dasharray:none;stroke-dashoffset:0" />
    </g>
  </g>
</svg>