<?xml version='1.0' ?><svg xmlns:dc="http://purl.org/dc/elements/1.1/" xmlns:cc="http://creativecommons.org/ns#" xmlns:rdf="http://www.w3.org/1999/02/22-rdf-syntax-ns#" xmlns:svg="http://www.w3.org/2000/svg" xmlns="http://www.w3.org/2000/svg" id="svg2" version="1.1" width="320.51316" height="188.11143" viewBox="221.16265 288.80242 320.51316 188.11143" preserveAspectRatio="none">
  <defs id="defs4">
    <marker style="overflow:visible" id="Arrow1Mstart" refX="0" refY="0" orient="auto">
      <path transform="matrix(0.4,0,0,0.4,4,0)" style="fill-rule:evenodd;stroke:#000000;stroke-width:1pt" d="M 0,0 5,-5 -12.5,0 5,5 0,0 z" id="path3899" />
    </marker>
    <marker style="overflow:visible" id="Arrow1Mend" refX="0" refY="0" orient="auto">
      <path transform="matrix(-0.4,0,0,-0.4,-4,0)" style="fill-rule:evenodd;stroke:#000000;stroke-width:1pt" d="M 0,0 5,-5 -12.5,0 5,5 0,0 z" id="path3902" />
    </marker>
  </defs>
  <metadata id="metadata7">
    <rdf:RDF>
      <cc:Work rdf:about="">
        <dc:format>image/svg+xml</dc:format>
        <dc:type rdf:resource="http://purl.org/dc/dcmitype/StillImage" />
        <dc:title />
      </cc:Work>
    </rdf:RDF>
  </metadata>
  <g transform="translate(184.71578,221.43775)" id="layer1">
    <g transform="matrix(0.2906649,0,0,0.2906649,86.06796,18.024836)" id="g3517">
      <path style="fill:none;stroke:#000000;stroke-width:8;stroke-linecap:butt;stroke-linejoin:miter;stroke-miterlimit:4;stroke-opacity:1;stroke-dasharray:none;marker-start:url(#Arrow1Mstart);marker-end:none" d="m -116.16754,185.51363 0,631.41085" id="path3117" />
      <path style="fill:none;stroke:#000000;stroke-width:8;stroke-linecap:butt;stroke-linejoin:miter;stroke-miterlimit:4;stroke-opacity:1;stroke-dasharray:none;marker-end:url(#Arrow1Mend)" d="m -170.71578,767.08075 1086.92414,0" id="path3119" />
      <path id="path5083" title="(x**4)/16-x**3+4x**2+x" d="" style="fill:none;stroke:#000000;stroke-width:8;stroke-linecap:butt;stroke-linejoin:miter;stroke-miterlimit:4;stroke-opacity:1;stroke-dasharray:none;stroke-dashoffset:0" />
      <path style="fill:none;stroke:#000000;stroke-width:8;stroke-linecap:butt;stroke-linejoin:miter;stroke-miterlimit:4;stroke-opacity:1;stroke-dasharray:none;stroke-dashoffset:0" d="" title="(x**4)/16-x**3+4x**2+x" id="path5109" />
      <path id="path5724" title="4*atan(x)" d="m -117.80399,766.10516 c 3.41221,-10.69411 6.82441,-21.38767 10.23662,-31.97388 3.41221,-10.58621 6.82441,-21.06367 10.23662,-31.33865 3.412207,-10.27497 6.824414,-20.34583 10.236621,-30.1408 3.412206,-9.79496 6.824413,-19.31233 10.23662,-28.50597 3.412207,-9.19363 6.824413,-18.06183 10.23662,-26.58286 3.412207,-8.52103 6.824413,-16.69319 10.23662,-24.51482 3.412207,-7.82163 6.824414,-15.29102 10.23662,-22.421 3.412207,-7.12999 6.824414,-13.91888 10.236621,-20.38874 3.412206,-6.46985 6.824413,-12.61901 10.23662,-18.47445 3.412207,-5.85544 6.824413,-11.41557 10.23662,-16.70915 3.412207,-5.29359 6.8244135,-10.31913 10.2366202,-15.10513 3.4122068,-4.78601 6.8244135,-9.33108 10.2366202,-13.66223 3.4122068,-4.33115 6.8244136,-8.44712 10.2366206,-12.37274 3.412206,-3.92562 6.824413,-7.65977 10.23662,-11.22488 3.412207,-3.56512 6.824413,-6.96018 10.23662,-10.20521 3.412207,-3.24504 6.824413,-6.33913 10.23662,-9.3 3.412207,-2.96086 6.824414,-5.78769 10.23662,-8.49609 3.412207,-2.70839 6.824414,-5.29762 10.236621,-7.78139 3.412206,-2.48377 6.824413,-4.86142 10.23662,-7.14497 3.412207,-2.28355 6.824413,-4.47242 10.23662,-6.57714 3.412207,-2.10472 6.824414,-4.12477 10.23662,-6.0694 3.412206,-1.94462 6.824416,-3.81334 10.236616,-5.61429 3.41221,-1.80095 6.82442,-3.5337 10.23662,-5.20539 3.41221,-1.67169 6.82442,-3.28195 10.23662,-4.83707 3.41221,-1.55513 6.82442,-3.05477 10.23663,-4.50449 3.4122,-1.44973 6.82441,-2.84923 10.23662,-4.20343 3.4122,-1.3542 6.82441,-2.66282 10.23662,-3.93024 3.4122,-1.26741 6.82441,-2.49336 10.23662,-3.68174 3.4122,-1.18838 6.82441,-2.33896 10.23662,-3.4552 3.4122,-1.11624 6.82441,-2.19794 10.23662,-3.24819 3.4122,-1.05025 6.82441,-2.06887 10.23662,-3.05862 3.4122,-0.98976 6.82441,-1.95047 10.23662,-2.88466 3.4122,-0.93418 6.82441,-1.84165 10.23662,-2.72468 3.4122,-0.88302 6.82441,-1.74144 10.23662,-2.57729 3.4122,-0.83584 6.82441,-1.64898 10.23662,-2.44123 3.4122,-0.79225 6.82441,-1.5635 10.23662,-2.3154 3.4122,-0.7519 6.82441,-1.48433 10.23662,-2.19882 3.4122,-0.71448 6.82441,-1.41091 10.23662,-2.09064 3.4122,-0.67973 6.82441,-1.34267 10.23662,-1.99008 3.4122,-0.6474 6.82441,-1.27918 10.23662,-1.89646 3.4122,-0.61729 6.82441,-1.21999 10.23662,-1.80917 3.41221,-0.58918 6.82441,-1.16475 10.23662,-1.72766 3.41221,-0.56292 6.82441,-1.1131 10.23662,-1.65144 3.41221,-0.53834 6.82441,-1.06476 10.23662,-1.58008 3.41221,-0.51531 6.82441,-1.01945 10.23662,-1.51316 3.41221,-0.49371 6.82441,-0.97693 10.23662,-1.45034 3.41221,-0.47342 6.82441,-0.93698 10.23662,-1.39131 3.41221,-0.45434 6.82441,-0.89939 10.23662,-1.33575 3.41221,-0.43637 6.82441,-0.86399 10.23662,-1.28341 3.41221,-0.41943 6.82441,-0.83061 10.23662,-1.23406 3.41221,-0.40344 6.82441,-0.7991 10.23662,-1.18744 3.41221,-0.38835 6.82441,-0.76934 10.23662,-1.14341 3.41221,-0.37407 6.82441,-0.74118 10.23662,-1.10174 3.41221,-0.36056 6.82441,-0.71453 10.23662,-1.06228 3.41221,-0.34776 6.82441,-0.68928 10.23662,-1.0249 3.41221,-0.33562 6.82441,-0.66531 10.23662,-0.98941 3.41221,-0.32411 6.82441,-0.64258 10.23662,-0.95574 3.41221,-0.31316 6.82441,-0.62097 10.23662,-0.92373 3.41221,-0.30275 6.82442,-0.60043 10.23662,-0.89329 3.41221,-0.29285 6.82442,-0.58087 10.23662,-0.86431 3.41221,-0.28343 6.82442,-0.56226 10.23662,-0.83671 3.41221,-0.27446 6.82442,-0.54452 10.23662,-0.81041 3.41221,-0.26589 6.82442,-0.52759 10.23662,-0.78531 3.41221,-0.25772 6.82442,-0.51143 10.23662,-0.76135 3.41221,-0.24991 6.82442,-0.496 10.23662,-0.73846 3.41221,-0.24246 6.82442,-0.48126 10.23662,-0.71659 3.41221,-0.23532 6.82442,-0.46715 10.23662,-0.69565 3.41221,-0.22851 6.82442,-0.45366 10.23662,-0.67563 3.41221,-0.22197 6.82442,-0.44074 10.23662,-0.65645 3.41221,-0.21571 6.82442,-0.42835 10.23662,-0.63806 3.41221,-0.20972 6.82442,-0.41648 10.23662,-0.62044 3.41221,-0.20396 6.82442,-0.40509 10.23662,-0.60353 3.41221,-0.19844 6.82442,-0.39416 10.23662,-0.58729 3.41221,-0.19314 6.82442,-0.38367 10.23662,-0.57171 3.41221,-0.18804 6.82442,-0.37358 10.23663,-0.55672 3.4122,-0.18315 6.82441,-0.36389 10.23662,-0.54233 3.4122,-0.17843 6.82441,-0.35456 10.23662,-0.52846 3.4122,-0.17391 6.82441,-0.34559 10.23662,-0.51514 3.4122,-0.16955 6.82441,-0.33695 10.23662,-0.5023 3.4122,-0.16534 6.82441,-0.32863 10.23662,-0.48993 3.4122,-0.1613 6.82441,-0.32061 10.23662,-0.47801 3.4122,-0.1574 6.82441,-0.31289 10.23662,-0.46653 3.4122,-0.15364 6.82441,-0.30543 10.23662,-0.45544 3.4122,-0.15001 6.82441,-0.29824 10.23662,-0.44475 3.4122,-0.14651 6.82441,-0.2913 10.23662,-0.43443 3.4122,-0.14313 6.82441,-0.28459 10.23662,-0.42446 3.4122,-0.13986 6.82441,-0.27811 10.23662,-0.41482 3.4122,-0.13671 6.82441,-0.27186 10.23662,-0.40552 3.4122,-0.13366 6.82441,-0.26581 10.23662,-0.39652 3.4122,-0.1307 6.82441,-0.25996 10.23662,-0.38781 3.4122,-0.12785 6.82441,-0.2543 10.23662,-0.37939 3.41221,-0.12509 6.82441,-0.24882 10.23662,-0.37124 3.41221,-0.12242 6.82441,-0.24351 10.23662,-0.36334 3.41221,-0.11983 6.82441,-0.23838 10.23662,-0.3557 3.41221,-0.11732 6.82441,-0.2334 10.23662,-0.34829 3.41221,-0.11489 6.82441,-0.22858 10.23662,-0.34112 3.41221,-0.11253 6.82441,-0.2239 10.23662,-0.33415 3.41221,-0.11025 6.82441,-0.21937 10.23662,-0.3274 3.41221,-0.10804 6.82441,-0.21498 10.23662,-0.32086" style="fill:none;stroke:#000000;stroke-width:8;stroke-linecap:butt;stroke-linejoin:miter;stroke-miterlimit:4;stroke-opacity:1;stroke-dasharray:none;stroke-dashoffset:0" />
    </g>
  </g>
</svg>