<?xml version='1.0' ?><svg xmlns:dc="http://purl.org/dc/elements/1.1/" xmlns:cc="http://creativecommons.org/ns#" xmlns:rdf="http://www.w3.org/1999/02/22-rdf-syntax-ns#" xmlns:svg="http://www.w3.org/2000/svg" xmlns="http://www.w3.org/2000/svg" id="svg2" version="1.1" width="320.51316" height="188.11143" viewBox="206.87694 118.80243 320.51316 188.11143" preserveAspectRatio="none">
  <defs id="defs4">
    <marker orient="auto" refY="0" refX="0" id="Arrow1Mstart" style="overflow:visible">
      <path id="path3899" d="M 0,0 5,-5 -12.5,0 5,5 0,0 z" style="fill-rule:evenodd;stroke:#000000;stroke-width:1pt" transform="matrix(0.4,0,0,0.4,4,0)" />
    </marker>
    <marker orient="auto" refY="0" refX="0" id="Arrow1Mend" style="overflow:visible">
      <path id="path3902" d="M 0,0 5,-5 -12.5,0 5,5 0,0 z" style="fill-rule:evenodd;stroke:#000000;stroke-width:1pt" transform="matrix(-0.4,0,0,-0.4,-4,0)" />
    </marker>
  </defs>
  <metadata id="metadata7">
    <rdf:RDF>
      <cc:Work rdf:about="">
        <dc:format>image/svg+xml</dc:format>
        <dc:type rdf:resource="http://purl.org/dc/dcmitype/StillImage" />
        <dc:title />
      </cc:Work>
    </rdf:RDF>
  </metadata>
  <g id="layer1" transform="translate(184.71578,221.43775)">
    <g transform="matrix(0.2906649,0,0,0.2906649,71.782246,-151.97516)" id="g3657">
      <path id="path3117" d="m -116.16754,185.51363 0,631.41085" style="fill:none;stroke:#000000;stroke-width:8;stroke-linecap:butt;stroke-linejoin:miter;stroke-miterlimit:4;stroke-opacity:1;stroke-dasharray:none;marker-start:url(#Arrow1Mstart);marker-end:none" />
      <path id="path3119" d="m -170.71578,767.08075 1086.92414,0" style="fill:none;stroke:#000000;stroke-width:8;stroke-linecap:butt;stroke-linejoin:miter;stroke-miterlimit:4;stroke-opacity:1;stroke-dasharray:none;marker-end:url(#Arrow1Mend)" />
      <path style="fill:none;stroke:#000000;stroke-width:8;stroke-linecap:butt;stroke-linejoin:miter;stroke-miterlimit:4;stroke-opacity:1;stroke-dasharray:none;stroke-dashoffset:0" d="" title="(x**4)/16-x**3+4x**2+x" id="path5083" />
      <path id="path5109" title="(x**4)/16-x**3+4x**2+x" d="" style="fill:none;stroke:#000000;stroke-width:8;stroke-linecap:butt;stroke-linejoin:miter;stroke-miterlimit:4;stroke-opacity:1;stroke-dasharray:none;stroke-dashoffset:0" />
      <path id="path5887" title="x/2-0.25*sin(2*x)" d="m -117.80399,766.10516 c 3.41221,0 6.82441,-9e-5 10.23662,-0.0381 3.41221,-0.038 6.82441,-0.1143 10.23662,-0.26492 3.412207,-0.15062 6.824414,-0.37611 10.236621,-0.70931 3.412206,-0.3332 6.824413,-0.77485 10.23662,-1.35321 3.412207,-0.57836 6.824413,-1.29431 10.23662,-2.17042 3.412207,-0.87611 6.824413,-1.91338 10.23662,-3.12772 3.412207,-1.21434 6.824414,-2.60685 10.23662,-4.18616 3.412207,-1.5793 6.824414,-3.34653 10.236621,-5.30269 3.412206,-1.95615 6.824413,-4.10234 10.23662,-6.43189 3.412207,-2.32955 6.824413,-4.84353 10.23662,-7.52785 3.412207,-2.68433 6.8244135,-5.53996 10.2366202,-8.54599 3.4122068,-3.00603 6.8244135,-6.16329 10.2366202,-9.44488 3.4122068,-3.28159 6.8244136,-6.68818 10.2366206,-10.18797 3.412206,-3.4998 6.824413,-7.09328 10.23662,-10.74505 3.412207,-3.65178 6.824413,-7.3621 10.23662,-11.09344 3.412207,-3.73134 6.824413,-7.48372 10.23662,-11.21898 3.412207,-3.73525 6.824414,-7.45318 10.23662,-11.11655 3.412207,-3.66337 6.824414,-7.27175 10.236621,-10.79035 3.412206,-3.5186 6.824413,-6.94678 10.23662,-10.25361 3.412207,-3.30683 6.824413,-6.49151 10.23662,-9.52819 3.412207,-3.03668 6.824414,-5.92443 10.23662,-8.64357 3.412206,-2.71914 6.824416,-5.26863 10.236616,-7.63575 3.41221,-2.36712 6.82442,-4.55077 10.23662,-6.54571 3.41221,-1.99495 6.82442,-3.80006 10.23662,-5.4178 3.41221,-1.61774 6.82442,-3.04702 10.23663,-4.29788 3.4122,-1.25086 6.82441,-2.32228 10.23662,-3.2315 3.4122,-0.90923 6.82441,-1.65534 10.23662,-2.26206 3.4122,-0.60672 6.82441,-1.0733 10.23662,-1.42896 3.4122,-0.35566 6.82441,-0.59984 10.23662,-0.76609 3.4122,-0.16626 6.82441,-0.25423 10.23662,-0.30044 3.4122,-0.0462 6.82441,-0.0505 10.23662,-0.0509 3.4122,-4e-4 6.82441,0.003 10.23662,-0.0277 3.4122,-0.0307 6.82441,-0.0958 10.23662,-0.23166 3.4122,-0.13586 6.82441,-0.34298 10.23662,-0.6546 3.4122,-0.31162 6.82441,-0.72844 10.23662,-1.27926 3.4122,-0.55082 6.82441,-1.23651 10.23662,-2.08025 3.4122,-0.84373 6.82441,-1.84652 10.23662,-3.02498 3.4122,-1.17846 6.82441,-2.53367 10.23662,-4.07504 3.4122,-1.54137 6.82441,-3.27001 10.23662,-5.18771 3.4122,-1.9177 6.82441,-4.02558 10.23662,-6.31773 3.4122,-2.29215 6.82441,-4.76965 10.23662,-7.41915 3.41221,-2.6495 6.82441,-5.47197 10.23662,-8.44716 3.41221,-2.97519 6.82441,-6.10396 10.23662,-9.35996 3.41221,-3.25599 6.82441,-6.63991 10.23662,-10.1204 3.41221,-3.48049 6.82441,-7.05804 10.23662,-10.69758 3.41221,-3.63953 6.82441,-7.34133 10.23662,-11.068 3.41221,-3.72667 6.82441,-7.47826 10.23662,-11.21661 3.41221,-3.73834 6.82441,-7.46326 10.23662,-11.13735 3.41221,-3.67409 6.82441,-7.29695 10.23662,-10.83346 3.41221,-3.53651 6.82441,-6.98607 10.23662,-10.31729 3.41221,-3.33121 6.82441,-6.54329 10.23662,-9.60984 3.41221,-3.06654 6.82441,-5.98661 10.23662,-8.73987 3.41221,-2.75327 6.82441,-5.33868 10.23662,-7.74279 3.41221,-2.40412 6.82441,-4.62583 10.23662,-6.65914 3.41221,-2.03331 6.82441,-3.87708 10.23662,-5.53299 3.41221,-1.65591 6.82441,-3.12287 10.23662,-4.41016 3.41221,-1.28728 6.82441,-2.39387 10.23662,-3.3363 3.41221,-0.94242 6.82441,-1.71975 10.23662,-2.3551 3.41221,-0.63535 6.82442,-1.12793 10.23662,-1.50648 3.41221,-0.37855 6.82442,-0.64246 10.23662,-0.82493 3.41221,-0.18247 6.82442,-0.28311 10.23662,-0.3382 3.41221,-0.0551 6.82442,-0.0645 10.23662,-0.0661 3.41221,-0.002 6.82442,0.005 10.23662,-0.0196 3.41221,-0.0241 6.82442,-0.0788 10.23662,-0.20068 3.41221,-0.12184 6.82442,-0.31129 10.23662,-0.60198 3.41221,-0.29069 6.82442,-0.6833 10.23662,-1.20714 3.41221,-0.52384 6.82442,-1.17976 10.23662,-1.99157 3.41221,-0.8118 6.82442,-1.78047 10.23662,-2.92334 3.41221,-1.14287 6.82442,-2.46101 10.23662,-3.96457 3.41221,-1.50357 6.82442,-3.19368 10.23662,-5.07291 3.41221,-1.87923 6.82442,-3.9487 10.23662,-6.20328 3.41221,-2.25457 6.82442,-4.69534 10.23662,-7.30968 3.41221,-2.61434 6.82442,-5.40325 10.23662,-8.34714 3.41221,-2.94389 6.82442,-6.04362 10.23662,-9.27344 3.41221,-3.22982 6.82442,-6.59043 10.23663,-10.05093 3.4122,-3.4605 6.82441,-7.02141 10.23662,-10.64796 3.4122,-3.62655 6.82441,-7.31904 10.23662,-11.04026 3.4122,-3.72122 6.82441,-7.47123 10.23662,-11.21187 3.4122,-3.74065 6.82441,-7.47177 10.23662,-11.15582 3.4122,-3.68404 6.82441,-7.32064 10.23662,-10.87436 3.4122,-3.55373 6.82441,-7.024 10.23662,-10.37898 3.4122,-3.35498 6.82441,-6.59391 10.23662,-9.6898 3.4122,-3.0959 6.82441,-6.04785 10.23662,-8.83486 3.4122,-2.78701 6.82441,-5.40805 10.23662,-7.84894 3.4122,-2.44088 6.82441,-4.70051 10.23662,-6.77212 3.4122,-2.0716 6.82441,-3.95404 10.23662,-5.64821 3.4122,-1.69418 6.82441,-3.19898 10.23662,-4.52294 3.4122,-1.32397 6.82441,-2.46604 10.23662,-3.44206 3.4122,-0.97602 6.82441,-1.78504 10.23662,-2.44953 3.4122,-0.6645 6.82441,-1.18367 10.23662,-1.58574 3.4122,-0.40206 6.82441,-0.68639 10.23662,-0.88579 3.41221,-0.1994 6.82441,-0.31344 10.23662,-0.37819 3.41221,-0.0647 6.82441,-0.08 10.23662,-0.0836 3.41221,-0.004 6.82441,0.005 10.23662,-0.0139 3.41221,-0.0184 6.82441,-0.0635 10.23662,-0.172 3.41221,-0.10855 6.82441,-0.28105 10.23662,-0.55148 3.41221,-0.27043 6.82441,-0.63946 10.23662,-1.13689 3.41221,-0.49743 6.82441,-1.1241 10.23662,-1.90441 3.41221,-0.78032 6.82441,-1.71526 10.23662,-2.82284" style="fill:none;stroke:#000000;stroke-width:8;stroke-linecap:butt;stroke-linejoin:miter;stroke-miterlimit:4;stroke-opacity:1;stroke-dasharray:none;stroke-dashoffset:0" />
    </g>
  </g>
</svg>