<?xml version='1.0' ?><svg xmlns:dc="http://purl.org/dc/elements/1.1/" xmlns:cc="http://creativecommons.org/ns#" xmlns:rdf="http://www.w3.org/1999/02/22-rdf-syntax-ns#" xmlns:svg="http://www.w3.org/2000/svg" xmlns="http://www.w3.org/2000/svg" id="svg2" version="1.1" width="320.51316" height="188.11143" viewBox="184.0198 255.65957 320.51316 188.11143" preserveAspectRatio="none">
  <defs id="defs4">
    <marker style="overflow:visible" id="Arrow1Mstart" refX="0" refY="0" orient="auto">
      <path transform="matrix(0.4,0,0,0.4,4,0)" style="fill-rule:evenodd;stroke:#000000;stroke-width:1pt" d="M 0,0 5,-5 -12.5,0 5,5 0,0 z" id="path3899" />
    </marker>
    <marker style="overflow:visible" id="Arrow1Mend" refX="0" refY="0" orient="auto">
      <path transform="matrix(-0.4,0,0,-0.4,-4,0)" style="fill-rule:evenodd;stroke:#000000;stroke-width:1pt" d="M 0,0 5,-5 -12.5,0 5,5 0,0 z" id="path3902" />
    </marker>
  </defs>
  <metadata id="metadata7">
    <rdf:RDF>
      <cc:Work rdf:about="">
        <dc:format>image/svg+xml</dc:format>
        <dc:type rdf:resource="http://purl.org/dc/dcmitype/StillImage" />
        <dc:title />
      </cc:Work>
    </rdf:RDF>
  </metadata>
  <g transform="translate(184.71578,221.43775)" id="layer1">
    <g transform="matrix(0.2906649,0,0,0.2906649,48.925103,-10.467381)" id="g3809">
      <path style="fill:none;stroke:#000000;stroke-width:8;stroke-linecap:butt;stroke-linejoin:miter;stroke-miterlimit:4;stroke-opacity:1;stroke-dasharray:none;marker-start:url(#Arrow1Mstart);marker-end:none" d="m -116.16754,169.51363 0,631.41085" id="path3117" />
      <path style="fill:none;stroke:#000000;stroke-width:8;stroke-linecap:butt;stroke-linejoin:miter;stroke-miterlimit:4;stroke-opacity:1;stroke-dasharray:none;marker-end:url(#Arrow1Mend)" d="m -170.71578,488.50932 1086.92414,0" id="path3119" />
      <path id="path5083" title="(x**4)/16-x**3+4x**2+x" d="" style="fill:none;stroke:#000000;stroke-width:8;stroke-linecap:butt;stroke-linejoin:miter;stroke-miterlimit:4;stroke-opacity:1;stroke-dasharray:none;stroke-dashoffset:0" />
      <path style="fill:none;stroke:#000000;stroke-width:8;stroke-linecap:butt;stroke-linejoin:miter;stroke-miterlimit:4;stroke-opacity:1;stroke-dasharray:none;stroke-dashoffset:0" d="" title="(x**4)/16-x**3+4x**2+x" id="path5109" />
      <path id="path6069" title="sin(x)" d="m -117.80399,488.19198 c 3.41221,-9.35734 6.82441,-18.71462 10.23662,-28.02432 3.41221,-9.3097 6.82441,-18.57149 10.23662,-27.73864 3.412207,-9.16714 6.824414,-18.23903 10.236621,-27.17016 3.412206,-8.93114 6.824413,-17.72064 10.23662,-26.32472 3.412207,-8.60408 6.824413,-17.02159 10.23662,-25.2109 3.412207,-8.18931 6.824413,-16.14902 10.23662,-23.84008 3.412207,-7.69106 6.824414,-15.11182 10.23662,-22.22622 3.412207,-7.1144 6.824414,-13.92056 10.236621,-20.38578 3.412206,-6.46521 6.824413,-12.5874 10.23662,-18.33751 3.412207,-5.75012 6.824413,-11.12592 10.23662,-16.10232 3.412207,-4.97641 6.8244135,-9.55101 10.2366202,-13.70296 3.4122068,-4.15196 6.8244135,-7.87873 10.2366202,-11.16392 3.4122068,-3.28519 6.8244136,-6.12614 10.2366206,-8.51107 3.412206,-2.38492 6.824413,-4.31108 10.23662,-5.77144 3.412207,-1.46035 6.824413,-2.45209 10.23662,-2.97298 3.412207,-0.52089 6.824413,-0.56811 10.23662,-0.14423 3.412207,0.42389 6.824414,1.32169 10.23662,2.68602 3.412207,1.36433 6.824414,3.19799 10.236621,5.48886 3.412206,2.29088 6.824413,5.0417 10.23662,8.23576 3.412207,3.19407 6.824413,6.83402 10.23662,10.8987 3.412207,4.06469 6.824414,8.55666 10.23662,13.45054 3.412206,4.89388 6.824416,10.19207 10.236616,15.86524 3.41221,5.67318 6.82442,11.72358 10.23662,18.11823 3.41221,6.39464 6.82442,13.13557 10.23662,20.18649 3.41221,7.05092 6.82442,14.41367 10.23663,22.04899 3.4122,7.63531 6.82441,15.54481 10.23662,23.68669 3.4122,8.14187 6.82441,16.51749 10.23662,25.08293 3.4122,8.56543 6.82441,17.32179 10.23662,26.22346 3.4122,8.90167 6.82441,17.9495 10.23662,27.09666 3.4122,9.14717 6.82441,18.39423 10.23662,27.69364 3.4122,9.2994 6.82441,18.65143 10.23662,28.00828 3.4122,9.35685 6.82441,18.71851 10.23662,28.03741 3.4122,9.3189 6.82441,18.59475 10.23662,27.7807 3.4122,9.18596 6.82441,18.28144 10.23662,27.2408 3.4122,8.95936 6.82441,17.78175 10.23662,26.42319 3.4122,8.64143 6.82441,17.10079 10.23662,25.33621 3.4122,8.23541 6.82441,16.24551 10.23662,23.99094 3.4122,7.74544 6.82441,15.22461 10.23662,22.40111 3.4122,7.17651 6.82441,14.0485 10.23662,20.58291 3.4122,6.53441 6.82441,12.72917 10.23662,18.55487 3.4122,5.8257 6.82441,11.28009 10.23662,16.33769 3.41221,5.0576 6.82441,9.71601 10.23662,13.95395 3.41221,4.23794 6.82441,8.05287 10.23662,11.42795 3.41221,3.37508 6.82441,6.30765 10.23662,8.78547 3.41221,2.47781 6.82441,4.49812 10.23662,6.05341 3.41221,1.55528 6.82441,2.64274 10.23662,3.25964 3.41221,0.6169 6.82441,0.76042 10.23662,0.43265 3.41221,-0.32777 6.82441,-1.12966 10.23662,-2.39876 3.41221,-1.2691 6.82441,-3.00821 10.23662,-5.2057 3.41221,-2.1975 6.82441,-4.85611 10.23662,-7.95959 3.41221,-3.10349 6.82441,-6.6545 10.23662,-10.63233 3.41221,-3.97784 6.82441,-8.38505 10.23662,-13.19669 3.41221,-4.81163 6.82441,-10.03011 10.23662,-15.62649 3.41221,-5.59639 6.82441,-11.57294 10.23662,-17.89702 3.41221,-6.32408 6.82441,-12.99777 10.23662,-19.98508 3.41221,-6.98731 6.82441,-14.29011 10.23662,-21.86942 3.41221,-7.5793 6.82441,-15.43676 10.23662,-23.5308 3.41221,-8.09403 6.82441,-16.42605 10.23662,-24.9523 3.41221,-8.52626 6.82442,-17.24789 10.23662,-26.11944 3.41221,-8.87155 6.82442,-17.89389 10.23662,-27.0203 3.41221,-9.12641 6.82442,-18.35748 10.23662,-27.64571 3.41221,-9.28822 6.82442,-18.63392 10.23662,-27.98928 3.41221,-9.35536 6.82442,-18.7204 10.23662,-28.04752 3.41221,-9.32712 6.82442,-18.61605 10.23662,-27.81984 3.41221,-9.2038 6.82442,-18.32191 10.23662,-27.30855 3.41221,-8.98665 6.82442,-17.84099 10.23662,-26.51887 3.41221,-8.67788 6.82442,-17.1782 10.23662,-25.45884 3.41221,-8.28065 6.82442,-16.34028 10.23662,-24.13928 3.41221,-7.799 6.82442,-15.33578 10.23662,-22.57363 3.41221,-7.23785 6.82442,-14.17495 10.23662,-20.77786 3.41221,-6.60291 6.82442,-12.86961 10.23662,-18.77027 3.41221,-5.90066 6.82442,-11.43307 10.23662,-16.57133 3.41221,-5.13826 6.82442,-9.87998 10.23662,-14.20346 3.41221,-4.32347 6.82442,-8.22617 10.23662,-11.69078 3.41221,-3.46462 6.82442,-6.4885 10.23663,-9.05894 3.4122,-2.57043 6.82441,-4.68469 10.23662,-6.33474 3.4122,-1.65005 6.82441,-2.83311 10.23662,-3.54596 3.4122,-0.71284 6.82441,-0.95265 10.23662,-0.72103 3.4122,0.23163 6.82441,0.93751 10.23662,2.11125 3.4122,1.17373 6.82441,2.81812 10.23662,4.922 3.4122,2.10388 6.82441,4.67 10.23662,7.68258 3.4122,3.01257 6.82441,6.47427 10.23662,10.36484 3.4122,3.89056 6.82441,8.21254 10.23662,12.94143 3.4122,4.72889 6.82441,9.8671 10.23662,15.3861 3.4122,5.519 6.82441,11.42106 10.23662,17.67391 3.4122,6.25286 6.82441,12.8586 10.23662,19.78156 3.4122,6.92296 6.82441,14.16504 10.23662,21.68754 3.4122,7.52249 6.82441,15.32707 10.23662,23.37242 3.4122,8.04534 6.82441,16.33287 10.23662,24.81905 3.4122,8.48617 6.82441,17.17216 10.23662,26.01265 3.4122,8.84049 6.82441,17.83639 10.23662,26.94108 3.41221,9.10469 6.82441,18.31879 10.23662,27.59486 3.41221,9.27606 6.82441,18.61444 10.23662,27.96732 3.41221,9.35288 6.82441,18.72033 10.23662,28.05468 3.41221,9.33435 6.82441,18.63537 10.23662,27.85603 3.41221,9.22067 6.82441,18.36045 10.23662,27.37342 3.41221,9.01297 6.82441,17.89834 10.23662,26.61175 3.41221,8.7134 6.82441,17.25377 10.23662,25.57878 3.41221,8.325 6.82441,16.43332 10.23662,24.28506" style="fill:none;stroke:#000000;stroke-width:8;stroke-linecap:butt;stroke-linejoin:miter;stroke-miterlimit:4;stroke-opacity:1;stroke-dasharray:none;stroke-dashoffset:0" />
    </g>
  </g>
</svg>