<?xml version='1.0' ?><svg xmlns:ns0="http://www.iki.fi/pav/software/textext/" xmlns:dc="http://purl.org/dc/elements/1.1/" xmlns:cc="http://creativecommons.org/ns#" xmlns:rdf="http://www.w3.org/1999/02/22-rdf-syntax-ns#" xmlns:svg="http://www.w3.org/2000/svg" xmlns="http://www.w3.org/2000/svg" id="svg2" version="1.1" width="660.92604" height="225.32972" viewBox="70.17277846416697 73.804044555119 872.362884210955 297.4149489368688" preserveAspectRatio="none">
  <metadata id="metadata119">
    <rdf:RDF>
      <cc:Work rdf:about="">
        <dc:format>image/svg+xml</dc:format>
        <dc:type rdf:resource="http://purl.org/dc/dcmitype/StillImage" />
        <dc:title />
      </cc:Work>
    </rdf:RDF>
  </metadata>
  <defs id="defs117">
    <clipPath id="clip1-1">
      <path id="path4597" d="m 0,0 0,296 440,0 0,-296 z" />
    </clipPath>
    <clipPath id="clip2-7">
      <path id="path4606" d="m 0,0 0,296 440,0 0,-296 z" />
    </clipPath>
    <clipPath id="clip3-1">
      <path id="path4615" d="m 0,0 0,296 440,0 0,-296 z" />
    </clipPath>
    <clipPath id="clip4-3">
      <path id="path4624" d="m 0,0 0,296 440,0 0,-296 z" />
    </clipPath>
    <clipPath id="clip5-2">
      <path d="m 0,0 0,296 440,0 0,-296 z" id="path4635" />
    </clipPath>
    <clipPath id="clip1">
      <path d="m 0,0 0,296 440,0 0,-296 z" id="path9" />
    </clipPath>
    <clipPath id="clip2">
      <path d="m 0,0 0,296 440,0 0,-296 z" id="path18" />
    </clipPath>
    <clipPath id="clip3">
      <path d="m 0,0 0,296 440,0 0,-296 z" id="path27" />
    </clipPath>
    <clipPath id="clip4">
      <path d="m 0,0 0,296 440,0 0,-296 z" id="path36" />
    </clipPath>
    <clipPath id="clip5">
      <path id="path47" d="m 0,0 0,296 440,0 0,-296 z" />
    </clipPath>
    <clipPath id="clip6">
      <path id="path60" d="m 0,0 0,296 440,0 0,-296 z" />
    </clipPath>
    <clipPath id="clip7">
      <path id="path73" d="m 0,0 0,296 440,0 0,-296 z" />
    </clipPath>
    <clipPath id="clipPath4926" clipPathUnits="userSpaceOnUse">
      <rect ry="0.38965294" y="70.39151" x="633.55682" height="309.73889" width="351.97604" id="rect4928" style="fill:#2b83ba;fill-rule:nonzero;stroke:#000000;stroke-width:1.75988019;stroke-linecap:square;stroke-linejoin:round;stroke-miterlimit:4;stroke-dasharray:none;stroke-dashoffset:0;fill-opacity:1.0;stroke-opacity:1.0" />
    </clipPath>
  </defs>
  <g transform="translate(545.20975,73.22021)" id="misc" style="stroke-width:1;stroke-linecap:square;stroke-linejoin:miter;stroke-miterlimit:10;stroke-dasharray:none;stroke-dashoffset:0" />
  <g transform="translate(82.635481,75.219022)" id="misc-8" style="stroke-width:1;stroke-linecap:square;stroke-linejoin:miter;stroke-miterlimit:10;stroke-dasharray:none;stroke-dashoffset:0" />
  <g id="g4288">
    <g style="stroke-width:1;stroke-linecap:square;stroke-linejoin:miter;stroke-miterlimit:10;stroke-dasharray:none;stroke-dashoffset:0" clip-path="url(#clip1-1)" id="g4599" transform="translate(82.635481,75.219022)">
      <g style="fill:none;stroke:#000000;stroke-width:2;stroke-linecap:butt;stroke-opacity:1" id="g4601">
        <path d="m 215,3 0,293" id="path4603" />
      </g>
    </g>
    <g style="stroke-width:1;stroke-linecap:square;stroke-linejoin:miter;stroke-miterlimit:10;stroke-dasharray:none;stroke-dashoffset:0" clip-path="url(#clip2-7)" id="g4608" transform="translate(82.635481,72.403214)">
      <g style="fill:#000000;fill-opacity:1;fill-rule:evenodd;stroke:none" id="g4610">
        <path d="m 215,2 -5,20 10,0" id="path4612" />
      </g>
    </g>
    <g style="stroke-width:1;stroke-linecap:square;stroke-linejoin:miter;stroke-miterlimit:10;stroke-dasharray:none;stroke-dashoffset:0" clip-path="url(#clip3-1)" id="g4617" transform="translate(82.635481,75.219022)">
      <g style="fill:none;stroke:#000000;stroke-width:2;stroke-linecap:butt;stroke-opacity:1" id="g4619">
        <path d="m 0,152 437,0" id="path4621" />
      </g>
    </g>
    <g style="stroke-width:1;stroke-linecap:square;stroke-linejoin:miter;stroke-miterlimit:10;stroke-dasharray:none;stroke-dashoffset:0" clip-path="url(#clip4-3)" id="g4626" transform="translate(85.451289,75.219022)">
      <g style="fill:#000000;fill-opacity:1;fill-rule:evenodd;stroke:none" id="g4628">
        <path d="m 438,152 -20,-5 0,10" id="path4630" />
      </g>
    </g>
    <g style="stroke-width:1;stroke-linecap:square;stroke-linejoin:miter;stroke-miterlimit:10;stroke-dasharray:none;stroke-dashoffset:0" id="g4637" clip-path="url(#clip5-2)" transform="translate(82.635481,75.219022)">
      <g id="g4639" style="fill:none;stroke:#000000;stroke-width:2.5;stroke-linecap:round;stroke-linejoin:round;stroke-opacity:1">
        <path id="path4641" d="m 101.41,-6.0708 1.71,7.7505 1.72,7.6323 1.72,7.514 1.72,7.396 1.72,7.278 1.72,7.16 1.72,7.041 1.72,6.924 1.72,6.805 1.71,6.687 1.72,6.569 1.72,6.45 1.72,6.333 1.72,6.214 1.72,6.096 1.72,5.981 1.71,5.86 1.72,5.74 1.72,5.62 1.72,5.51 1.72,5.39 1.72,5.26 1.72,5.15 3.44,9.95 3.43,9.48 3.44,9 3.44,8.53 3.43,8.05 3.44,7.59 3.44,7.11 3.44,6.64 3.44,6.16 3.43,5.7 3.44,5.22 3.44,4.75 3.43,4.27 3.44,3.8 3.44,3.34 3.44,2.85 3.44,2.39 3.43,1.91 3.44,1.44 3.44,0.97 3.43,0.49 3.44,0.02 3.44,-0.45 3.44,-0.92 3.44,-1.4 3.43,-1.87 3.44,-2.34 3.44,-2.82 3.43,-3.28 3.44,-3.76 3.44,-4.23 3.44,-4.71 3.44,-5.18 3.43,-5.65 3.44,-6.12 3.44,-6.6 3.43,-7.07 3.44,-7.54 3.44,-8.01 3.44,-8.49 3.44,-8.96 3.43,-9.43 3.44,-9.9 1.72,-5.13 1.72,-5.25 1.72,-5.36 1.71,-5.49 1.72,-5.6 1.72,-5.72 1.72,-5.84 1.72,-5.955 1.72,-6.075 1.72,-6.193 1.72,-6.311 1.72,-6.429 1.71,-6.547 1.72,-6.666 1.72,-6.783 1.72,-6.902 1.72,-7.02 1.72,-7.138 1.72,-7.257 1.71,-7.374 1.72,-7.493 1.72,-7.6108 1.72,-7.729 L 330,-12.5" />
        <title id="title4643">Function g</title>
        <desc id="desc4645">g(x) = If[-100 Ã&#131;Â¢Ã&#130;Â&#137;Ã&#130;Â¤ x Ã&#131;Â¢Ã&#130;Â&#137;Ã&#130;Â¤ 100, xÃ&#131;Â&#130;Ã&#130;Â² - 2]</desc>
      </g>
    </g>
    <g id="content" transform="matrix(3.2552406,0,0,-3.255242,-461.97622,1644.8203)" xml:space="preserve" stroke-miterlimit="10.433" font-style="normal" font-variant="normal" font-weight="normal" font-stretch="normal" font-size-adjust="none" letter-spacing="normal" word-spacing="normal" ns0:text="$y$" ns0:preamble="/Users/Lizzie/Documents/Old mac/CMEP folder/underground-inkscape-preamble.tex" style="font-style:normal;font-variant:normal;font-weight:normal;font-stretch:normal;letter-spacing:normal;word-spacing:normal;text-anchor:start;fill:none;fill-opacity:1;fill-rule:evenodd;stroke:#000000;stroke-width:0.46079534;stroke-linecap:butt;stroke-linejoin:miter;stroke-miterlimit:10.43299961;stroke-dasharray:none;stroke-dashoffset:0;stroke-opacity:1"><path d="m 226.63,480.86 -0.01,0.08 -0.01,0.08 -0.01,0.07 -0.01,0.07 -0.01,0.07 -0.01,0.07 -0.01,0.06 -0.01,0.06 -0.01,0.06 -0.01,0.05 -0.01,0.06 -0.01,0.05 -0.01,0.05 -0.01,0.04 -0.02,0.05 -0.01,0.05 -0.01,0.04 -0.02,0.04 -0.01,0.04 -0.01,0.04 -0.04,0.08 -0.03,0.07 -0.04,0.08 -0.04,0.07 -0.04,0.07 -0.05,0.07 -1.78,-0.3 0.02,-0.18 c 0.11,0.01 0.3,0.04 0.43,0.04 0.67,0 0.77,-0.71 0.83,-1.24 l 0.45,-3.7 c -0.31,-0.48 -0.98,-1.21 -1.18,-1.21 -0.19,0 -0.17,0.37 -0.68,0.37 -0.15,0 -0.47,-0.13 -0.47,-0.49 0,-0.28 0.22,-0.64 0.66,-0.64 0.81,0 1.58,1.15 2.44,2.24 0.5,0.62 2.42,3.46 2.42,4.38 0,0.46 -0.3,0.73 -0.68,0.73 -0.34,0 -0.56,-0.21 -0.56,-0.47 0,-0.45 0.62,-0.57 0.62,-0.82 0,-0.21 -0.09,-0.45 -0.33,-0.88 -0.26,-0.49 -0.68,-1.19 -1.4,-2.18 z" id="path5028" style="fill:#000000;stroke-width:0" /></g>    <g ns0:preamble="/Users/Lizzie/Documents/Old mac/CMEP folder/underground-inkscape-preamble.tex" ns0:text="$x$" word-spacing="normal" letter-spacing="normal" font-size-adjust="none" font-stretch="normal" font-weight="normal" font-variant="normal" font-style="normal" stroke-miterlimit="10.433" xml:space="preserve" transform="matrix(3.2552406,0,0,-3.2552423,-237.78256,1811.5703)" id="g5188" style="font-style:normal;font-variant:normal;font-weight:normal;font-stretch:normal;letter-spacing:normal;word-spacing:normal;text-anchor:start;fill:none;fill-opacity:1;fill-rule:evenodd;stroke:#000000;stroke-width:0.46079531;stroke-linecap:butt;stroke-linejoin:miter;stroke-miterlimit:10.43299961;stroke-dasharray:none;stroke-dashoffset:0;stroke-opacity:1"><path id="path5190" d="m 227.04,480.64 -0.23,0.64 c -0.15,0.39 -0.37,0.88 -0.89,1.16 l -1.56,-0.39 0.03,-0.21 c 0.12,0.05 0.3,0.07 0.45,0.07 0.65,0 0.96,-0.48 1.16,-1.05 l 0.39,-1.09 -0.77,-1.19 c -0.38,-0.58 -0.68,-0.7 -0.83,-0.7 -0.29,0 -0.25,0.24 -0.55,0.24 -0.3,0 -0.45,-0.25 -0.45,-0.44 0,-0.26 0.19,-0.55 0.61,-0.55 0.67,0 1.01,0.51 1.39,1.08 l 0.75,1.16 0.47,-1.33 c 0.15,-0.43 0.38,-0.91 0.86,-0.91 0.69,0 1.22,1.13 1.37,1.31 l -0.17,0.12 c -0.25,-0.51 -0.53,-0.68 -0.72,-0.68 -0.54,0 -0.81,1.6 -1.16,2.33 l 0.65,1 c 0.16,0.26 0.29,0.45 0.65,0.45 0.2,0 0.26,-0.1 0.52,-0.1 0.31,0 0.46,0.27 0.46,0.49 0,0.25 -0.2,0.39 -0.58,0.39 -0.59,0 -1.01,-0.52 -1.31,-0.99 z" style="fill:#000000;stroke-width:0" /></g>    <g style="font-style:normal;font-variant:normal;font-weight:normal;font-stretch:normal;letter-spacing:normal;word-spacing:normal;text-anchor:start;fill:none;fill-opacity:1;fill-rule:evenodd;stroke:#000000;stroke-width:0.55555528;stroke-linecap:butt;stroke-linejoin:miter;stroke-miterlimit:10.43299961;stroke-dasharray:none;stroke-dashoffset:0;stroke-opacity:1" id="g5698" transform="matrix(2.7000011,0,0,-2.7000015,-359.44111,1641.0316)" xml:space="preserve" stroke-miterlimit="10.433" font-style="normal" font-variant="normal" font-weight="normal" font-stretch="normal" font-size-adjust="none" letter-spacing="normal" word-spacing="normal" ns0:text="$-2$" ns0:preamble="/Users/Lizzie/Documents/Old mac/CMEP folder/underground-inkscape-preamble.tex"><polygon style="fill:#000000;stroke-width:0" points="230.79,480.61 224.19,480.61 224.19,479.83 230.79,479.83 " id="polygon5700" /><path style="fill:#000000;stroke-width:0" d="m 237.16,478.85 -0.16,0.07 c -0.4,-0.66 -0.64,-0.79 -1.14,-0.79 l -2.77,0 1.95,2.08 c 1.06,1.11 1.52,1.99 1.52,2.93 0,1.17 -0.85,2.08 -2.19,2.08 -1.46,0 -2.22,-0.97 -2.47,-2.35 l 0.25,-0.06 c 0.48,1.15 0.89,1.53 1.74,1.53 1.01,0 1.65,-0.59 1.65,-1.66 0,-1.01 -0.43,-1.9 -1.54,-3.07 l -2.11,-2.23 0,-0.15 4.63,0 z" id="path5702" /></g>    <g id="g6234" transform="translate(0.50067729,-29.039281)">
      <path style="font-style:normal;font-variant:normal;font-weight:normal;font-stretch:normal;letter-spacing:normal;word-spacing:normal;text-anchor:start;fill:#000000;fill-opacity:1;fill-rule:evenodd;stroke:#000000;stroke-width:0;stroke-linecap:butt;stroke-linejoin:miter;stroke-miterlimit:10.43299961;stroke-dasharray:none;stroke-dashoffset:0;stroke-opacity:1" d="m 77.340101,131.14286 -0.027,-0.216 -0.027,-0.216 -0.027,-0.189 -0.027,-0.189 -0.027,-0.189 -0.027,-0.189 -0.027,-0.162 -0.027,-0.162 -0.027,-0.162 -0.027,-0.135 -0.027,-0.162 -0.027,-0.135 -0.027,-0.135 -0.027,-0.108 -0.054,-0.135 -0.027,-0.135 -0.027,-0.108 -0.054,-0.108 -0.027,-0.108 -0.027,-0.108 -0.108,-0.216 -0.081,-0.189 -0.108,-0.216 -0.108,-0.189 -0.108001,-0.189 -0.135,-0.189 -4.806,0.81 0.054,0.486 c 0.297,-0.027 0.81,-0.108 1.161,-0.108 1.809,0 2.079,1.917 2.241,3.348 l 1.215,9.99001 c -0.837,1.296 -2.646,3.267 -3.186,3.267 -0.513,0 -0.459,-0.999 -1.836,-0.999 -0.405,0 -1.269,0.351 -1.269,1.323 0,0.756 0.594,1.728 1.782,1.728 2.187,0 4.266,-3.105 6.588001,-6.048 1.35,-1.674 6.534001,-9.34201 6.534001,-11.82601 0,-1.242 -0.81,-1.971 -1.836001,-1.971 -0.918,0 -1.512,0.567 -1.512,1.269 0,1.215 1.674,1.539 1.674,2.214 0,0.567 -0.243,1.215 -0.891,2.376 -0.702,1.323 -1.836,3.213 -3.78,5.88601 z" id="path6097" />
      <polygon style="font-style:normal;font-variant:normal;font-weight:normal;font-stretch:normal;letter-spacing:normal;word-spacing:normal;text-anchor:start;fill:#000000;fill-opacity:1;fill-rule:evenodd;stroke:#000000;stroke-width:0;stroke-linecap:butt;stroke-linejoin:miter;stroke-miterlimit:10.43299961;stroke-dasharray:none;stroke-dashoffset:0;stroke-opacity:1" points="239.61,481.01 239.61,481.79 232.64,481.79 232.64,481.01 " id="polygon6099" transform="matrix(2.7000004,0,0,-2.7000007,-534.56099,1429.4652)" />
      <polygon style="font-style:normal;font-variant:normal;font-weight:normal;font-stretch:normal;letter-spacing:normal;word-spacing:normal;text-anchor:start;fill:#000000;fill-opacity:1;fill-rule:evenodd;stroke:#000000;stroke-width:0;stroke-linecap:butt;stroke-linejoin:miter;stroke-miterlimit:10.43299961;stroke-dasharray:none;stroke-dashoffset:0;stroke-opacity:1" points="239.61,478.65 239.61,479.43 232.64,479.43 232.64,478.65 " id="polygon6101" transform="matrix(2.7000004,0,0,-2.7000007,-534.56099,1429.4652)" />
      <path style="font-style:normal;font-variant:normal;font-weight:normal;font-stretch:normal;letter-spacing:normal;word-spacing:normal;text-anchor:start;fill:#000000;fill-opacity:1;fill-rule:evenodd;stroke:#000000;stroke-width:0;stroke-linecap:butt;stroke-linejoin:miter;stroke-miterlimit:10.43299961;stroke-dasharray:none;stroke-dashoffset:0;stroke-opacity:1" d="m 129.36911,127.01186 -0.297,1.188 2.457,0 -2.781,10.90801 c -0.486,1.836 -1.431,6.858 -3.51,6.858 -0.297,0 -0.486,-0.081 -0.486,-0.297 0,-0.378 0.513,-0.405 0.513,-0.999 0,-0.486 -0.324,-1.053 -1.188,-1.053 -0.918,0 -1.377,0.783 -1.377,1.539 0,0.972 0.783,1.728 2.295,1.728 2.835,0 4.563,-3.024 5.616,-5.67 0.459,-1.188 0.729,-2.376 0.945,-3.24 l 2.538,-9.77401 2.43,0 0.378,-1.188 -2.565,0 0.621,-2.241 c 0.675,-2.484 1.917,-4.212 3.51,-4.212 0.378,0 0.486,0.108 0.486,0.27 0,0.243 -0.297,0.729 -0.297,1.161 0,0.459 0.216,0.81 1.134,0.81 0.621,0 1.296,-0.378 1.296,-1.269 0,-1.134 -0.918,-1.89 -2.511,-1.89 -2.43,0 -3.807,1.377 -4.806,2.862 -1.377,2.052 -1.215,4.509 -3.24,4.509 z" id="path6103" />
      <path style="font-style:normal;font-variant:normal;font-weight:normal;font-stretch:normal;letter-spacing:normal;word-spacing:normal;text-anchor:start;fill:#000000;fill-opacity:1;fill-rule:evenodd;stroke:#000000;stroke-width:0;stroke-linecap:butt;stroke-linejoin:miter;stroke-miterlimit:10.43299961;stroke-dasharray:none;stroke-dashoffset:0;stroke-opacity:1" d="m 148.89011,146.07387 -0.405,-0.351 -0.378,-0.351 -0.378,-0.351 -0.351,-0.351 -0.324,-0.351 -0.324,-0.351 -0.297,-0.351 -0.27,-0.378 -0.27,-0.351 -0.243,-0.351 -0.216,-0.378 -0.216,-0.378 -0.216,-0.378 -0.162,-0.378 -0.189,-0.378 -0.135,-0.378 -0.162,-0.405 -0.135,-0.405 -0.108,-0.432 -0.108,-0.405 -0.108,-0.432 -0.081,-0.432 -0.054,-0.45901 -0.081,-0.459 -0.054,-0.459 -0.054,-0.486 -0.027,-0.486 -0.027,-0.486 -0.027,-0.513 -0.027,-0.513 0,-0.54 0,-0.567 c 0,-6.129 0.999,-9.099 5.427,-12.906 l -0.27,-0.513 c -5.13,3.051 -7.911,7.641 -7.911,13.527 0,5.42701 2.754,10.80001 7.803,13.68901 z" id="path6105" />
      <path style="font-style:normal;font-variant:normal;font-weight:normal;font-stretch:normal;letter-spacing:normal;word-spacing:normal;text-anchor:start;fill:#000000;fill-opacity:1;fill-rule:evenodd;stroke:#000000;stroke-width:0;stroke-linecap:butt;stroke-linejoin:miter;stroke-miterlimit:10.43299961;stroke-dasharray:none;stroke-dashoffset:0;stroke-opacity:1" d="m 159.58211,131.73686 -0.648,-1.728 c -0.378,-1.053 -0.972,-2.376 -2.376,-3.132 l -4.239,1.053 0.108,0.567 c 0.324,-0.135 0.783,-0.189 1.215,-0.189 1.755,0 2.592,1.296 3.132,2.835 l 1.053,2.943 -2.079,3.213 c -1.026,1.56601 -1.863,1.89001 -2.241,1.89001 -0.81,0 -0.675,-0.648 -1.512,-0.648 -0.783,0 -1.215,0.675 -1.215,1.188 0,0.702 0.513,1.485 1.674,1.485 1.782,0 2.727,-1.377 3.753,-2.916 l 1.998,-3.13201 1.269,3.59101 c 0.432,1.161 1.026,2.457 2.349,2.457 1.863,0 3.294,-3.051 3.672,-3.537 l -0.432,-0.324 c -0.675,1.377 -1.458,1.836 -1.971,1.836 -1.431,0 -2.16,-4.32001 -3.132,-6.29101 l 1.755,-2.7 c 0.459,-0.702 0.81,-1.215 1.782,-1.215 0.54,0 0.702,0.27 1.404,0.27 0.81,0 1.242,-0.729 1.242,-1.323 0,-0.675 -0.54,-1.053 -1.566,-1.053 -1.593,0 -2.727,1.404 -3.564,2.673 z" id="path6107" />
      <path style="font-style:normal;font-variant:normal;font-weight:normal;font-stretch:normal;letter-spacing:normal;word-spacing:normal;text-anchor:start;fill:#000000;fill-opacity:1;fill-rule:evenodd;stroke:#000000;stroke-width:0;stroke-linecap:butt;stroke-linejoin:miter;stroke-miterlimit:10.43299961;stroke-dasharray:none;stroke-dashoffset:0;stroke-opacity:1" d="m 168.35711,119.88386 0.405,0.351 0.405,0.351 0.378,0.324 0.378,0.351 0.324,0.351 0.324,0.351 0.297,0.351 0.297,0.351 0.27,0.351 0.243,0.351 0.216,0.378 0.216,0.378 0.189,0.378 0.189,0.378 0.162,0.378 0.162,0.405 0.135,0.378 0.135,0.405 0.108,0.432 0.108,0.432 0.081,0.405 0.081,0.459 0.081,0.432 0.054,0.459 0.054,0.486 0.027,0.486 0.054,0.486 0.027,0.486 0,0.513 0.027,0.54 0,0.54 0,0.54 c 0,6.18301 -0.891,9.20701 -5.427,12.93301 l 0.297,0.513 c 5.076,-3.105 7.88401,-7.641 7.88401,-13.52701 0,-5.427 -2.91601,-10.746 -7.80301,-13.689 z" id="path6109" />
    </g>
    <g transform="translate(-38.836808,-19.455249)" id="g6229">
      <path style="font-style:normal;font-variant:normal;font-weight:normal;font-stretch:normal;letter-spacing:normal;word-spacing:normal;text-anchor:start;fill:#000000;fill-opacity:1;fill-rule:evenodd;stroke:#000000;stroke-width:0;stroke-linecap:butt;stroke-linejoin:miter;stroke-miterlimit:10.43299961;stroke-dasharray:none;stroke-dashoffset:0;stroke-opacity:1" d="m 118.81211,164.02887 -0.648,-1.755 c -0.378,-1.053 -0.999,-2.349 -2.403,-3.132 l -4.212,1.053 0.108,0.594 c 0.297,-0.135 0.783,-0.189 1.215,-0.189 1.755,0 2.565,1.296 3.132,2.835 l 1.053,2.916 -2.079,3.213 c -1.026,1.566 -1.863,1.89 -2.241,1.89 -0.81,0 -0.675,-0.648 -1.512,-0.648 -0.81,0 -1.215,0.675 -1.215,1.188 0,0.702 0.513,1.512 1.674,1.512 1.782,0 2.7,-1.377 3.726,-2.943 l 2.025,-3.132 1.269,3.618 c 0.432,1.134 1.026,2.457 2.349,2.457 1.863,0 3.294,-3.078 3.672,-3.537 l -0.459,-0.324 c -0.675,1.35 -1.431,1.809 -1.944,1.809 -1.431,0 -2.16,-4.293 -3.132,-6.291 l 1.755,-2.7 c 0.459,-0.702 0.81,-1.215 1.755,-1.215 0.54,0 0.702,0.297 1.431,0.297 0.81,0 1.242,-0.729 1.242,-1.35 0,-0.675 -0.567,-1.053 -1.566,-1.053 -1.62,0 -2.727,1.404 -3.564,2.7 z" id="path6111" />
      <path style="font-style:normal;font-variant:normal;font-weight:normal;font-stretch:normal;letter-spacing:normal;word-spacing:normal;text-anchor:start;fill:#000000;fill-opacity:1;fill-rule:evenodd;stroke:#000000;stroke-width:0;stroke-linecap:butt;stroke-linejoin:miter;stroke-miterlimit:10.43299961;stroke-dasharray:none;stroke-dashoffset:0;stroke-opacity:1" d="m 154.10111,174.07287 0,-2.106 -9.315,0 c -3.294,0 -6.048,-2.7 -6.588,-5.724 l 15.903,0 0,-2.106 -15.876,0 c 0.54,-3.051 3.294,-5.751 6.588,-5.751 l 9.288,0 0,-2.106 -9.423,0 c -5.076,0 -8.667,4.185 -8.667,8.883 0,4.725 3.645,8.91 8.775,8.91 z" id="path6113" />
      <path style="font-style:normal;font-variant:normal;font-weight:normal;font-stretch:normal;letter-spacing:normal;word-spacing:normal;text-anchor:start;fill:#000000;fill-opacity:1;fill-rule:evenodd;stroke:#000000;stroke-width:0;stroke-linecap:butt;stroke-linejoin:miter;stroke-miterlimit:10.43299961;stroke-dasharray:none;stroke-dashoffset:0;stroke-opacity:1" d="m 186.25812,173.20887 -6.858,-9.072 -0.189,-1.161 0,-9.018 c 1.917,0.864 2.97,2.295 2.97,4.455 0,1.971 -1.134,3.807 -2.97,4.563 l 0.189,1.161 c 2.7,-0.837 4.185,-2.97 4.185,-5.778 0,-4.563 -3.51,-6.264 -7.614,-6.264 l -10.23301,0 0,21.114 5.319,0 0,-8.64 0,-1.404 0,-9.666 -1.404,0 0,18.306 -2.511,0 0,-18.306 2.511,0 1.404,0 5.13001,0 c 0.486,0 1.134,0.189 1.62,0.27 l 0,9.234 0.108,1.431 5.616,7.371 -3.132,0 -5.292,-7.236 c 0.918,0 1.89,0.027 2.808,-0.135 l -0.108,-1.431 c -0.594,0.081 -1.188,0.162 -1.782,0.162 l -4.96801,0 0,1.404 2.349,0 6.23701,8.64 z" id="path6115" />
    </g>
    <path style="fill:none;fill-rule:evenodd;stroke:#000000;stroke-width:1.40790415;stroke-linecap:butt;stroke-linejoin:miter;stroke-miterlimit:4;stroke-dasharray:4.22371248, 4.22371248;stroke-dashoffset:0;stroke-opacity:1" d="m 401.24171,227.03124 0,-114.39159 -100.3347,0 -106.97581,0 0,114.39159" id="path4251" />
    <path style="fill:none;fill-rule:evenodd;stroke:#000000;stroke-width:1.40790415px;stroke-linecap:butt;stroke-linejoin:miter;stroke-opacity:1" d="m 347.75229,109.81286 -5.63161,2.8158 5.63161,2.81581 0,0" id="path4276" />
    <path id="path4278" d="m 403.98669,185.70539 -2.81581,-5.63161 -2.81581,5.63161 0,0" style="fill:none;fill-rule:evenodd;stroke:#000000;stroke-width:1.40790415px;stroke-linecap:butt;stroke-linejoin:miter;stroke-opacity:1" />
    <path style="fill:none;fill-rule:evenodd;stroke:#000000;stroke-width:1.40790415px;stroke-linecap:butt;stroke-linejoin:miter;stroke-opacity:1" d="m 196.70629,184.70403 -2.81581,-5.63161 -2.81581,5.63161 0,0" id="path4280" />
    <path id="path4282" d="m 248.50858,109.86406 5.63161,2.8158 -5.63161,2.81581 0,0" style="fill:none;fill-rule:evenodd;stroke:#000000;stroke-width:1.40790415px;stroke-linecap:butt;stroke-linejoin:miter;stroke-opacity:1" />
  </g>
  <g id="g4359">
    <g id="g4895" clip-path="url(#clipPath4926)" transform="translate(-69.390333,1.3996791)">
      <g transform="translate(545.20975,73.22021)" clip-path="url(#clip1)" id="g11" style="stroke-width:1;stroke-linecap:square;stroke-linejoin:miter;stroke-miterlimit:10;stroke-dasharray:none;stroke-dashoffset:0">
        <g id="g13" style="fill:none;stroke:#000000;stroke-width:2;stroke-linecap:butt;stroke-opacity:1">
          <path d="m 215,3 0,293" id="path15" />
        </g>
      </g>
      <g transform="translate(545.20975,70.404402)" clip-path="url(#clip2)" id="g20" style="stroke-width:1;stroke-linecap:square;stroke-linejoin:miter;stroke-miterlimit:10;stroke-dasharray:none;stroke-dashoffset:0">
        <g id="g22" style="fill:#000000;fill-opacity:1;fill-rule:evenodd;stroke:none">
          <path d="m 215,2 -5,20 10,0" id="path24" />
        </g>
      </g>
      <g transform="translate(545.20975,73.22021)" clip-path="url(#clip3)" id="g29" style="stroke-width:1;stroke-linecap:square;stroke-linejoin:miter;stroke-miterlimit:10;stroke-dasharray:none;stroke-dashoffset:0">
        <g id="g31" style="fill:none;stroke:#000000;stroke-width:2;stroke-linecap:butt;stroke-opacity:1">
          <path d="m 0,152 437,0" id="path33" />
        </g>
      </g>
      <g transform="translate(548.02556,73.22021)" clip-path="url(#clip4)" id="g38" style="stroke-width:1;stroke-linecap:square;stroke-linejoin:miter;stroke-miterlimit:10;stroke-dasharray:none;stroke-dashoffset:0">
        <g id="g40" style="fill:#000000;fill-opacity:1;fill-rule:evenodd;stroke:none">
          <path d="m 438,152 -20,-5 0,10" id="path42" />
        </g>
      </g>
      <g transform="translate(545.20975,73.22021)" id="g49" clip-path="url(#clip5)" style="stroke-width:1;stroke-linecap:square;stroke-linejoin:miter;stroke-miterlimit:10;stroke-dasharray:none;stroke-dashoffset:0">
        <g style="fill:none;stroke:#2b83ba;stroke-width:2.5;stroke-linecap:round;stroke-linejoin:round;stroke-opacity:1" id="g51">
          <path id="path53" d="m 215,252 1.56,-0.05 m 0,0 3.44,-0.45 m 0,0 3.44,-0.92 3.44,-1.4 3.43,-1.87 3.44,-2.34 3.44,-2.82 3.43,-3.28 3.44,-3.76 3.44,-4.23 3.44,-4.71 3.44,-5.18 3.43,-5.65 3.44,-6.12 3.44,-6.6 3.43,-7.07 3.44,-7.54 3.44,-8.01 3.44,-8.49 3.44,-8.96 3.43,-9.43 3.44,-9.9 1.72,-5.13 1.72,-5.25 1.72,-5.36 1.71,-5.49 1.72,-5.6 1.72,-5.72 1.72,-5.84 1.72,-5.955 1.72,-6.075 1.72,-6.193 1.72,-6.311 1.72,-6.429 1.71,-6.547 1.72,-6.666 1.72,-6.783 1.72,-6.902 1.72,-7.02 1.72,-7.138 1.72,-7.257 1.71,-7.374 1.72,-7.493 1.72,-7.6108 1.72,-7.729 L 330,-12.5" />
          <title id="title55">Function f</title>
          <desc id="desc57">f(x) = If[0 Ã&#131;Â¢Ã&#130;Â&#137;Ã&#130;Â¤ x Ã&#131;Â¢Ã&#130;Â&#137;Ã&#130;Â¤ 100, xÃ&#131;Â&#130;Ã&#130;Â² - 2]</desc>
        </g>
      </g>
      <g transform="translate(545.20975,73.22021)" id="g62" clip-path="url(#clip6)" style="stroke-width:1;stroke-linecap:square;stroke-linejoin:miter;stroke-miterlimit:10;stroke-dasharray:none;stroke-dashoffset:0">
        <g style="fill:#2b83ba;fill-opacity:1;fill-rule:nonzero;stroke:none" id="g64">
          <path id="path66" d="m 218,252 c 0,1.66 -1.34,3 -3,3 -1.66,0 -3,-1.34 -3,-3 0,-1.66 1.34,-3 3,-3 1.66,0 3,1.34 3,3 z" />
          <title id="title68">Point A</title>
          <desc id="desc70">Point A: Intersection point of f, yAxis with initial value (0, -2)</desc>
        </g>
      </g>
      <g transform="translate(545.20975,73.22021)" id="g75" clip-path="url(#clip7)" style="stroke-width:1;stroke-linecap:square;stroke-linejoin:miter;stroke-miterlimit:10;stroke-dasharray:none;stroke-dashoffset:0;stroke:none">
        <g style="fill:none;stroke:none;stroke-linecap:round;stroke-linejoin:round;stroke-opacity:1" id="g77">
          <path id="path79" d="m 218,252 c 0,1.66 -1.34,3 -3,3 -1.66,0 -3,-1.34 -3,-3 0,-1.66 1.34,-3 3,-3 1.66,0 3,1.34 3,3 z" style="stroke:none" />
          <title id="title81">Point A</title>
          <desc id="desc83">Point A: Intersection point of f, yAxis with initial value (0, -2)</desc>
        </g>
      </g>
      <path style="fill:none;fill-rule:evenodd;stroke:#000000;stroke-width:1.40790416;stroke-linecap:butt;stroke-linejoin:miter;stroke-opacity:1;stroke-miterlimit:4;stroke-dasharray:4.22371248, 4.22371247999999966;stroke-dashoffset:0" d="m 470.64299,223.86131 0,-112.63232 -207.24299,0 0.70806,112.63232" id="path4249" />
    </g>
    <g id="g4331">
      <g ns0:preamble="/Users/Lizzie/Documents/Old mac/CMEP folder/underground-inkscape-preamble.tex" ns0:text="$y$" word-spacing="normal" letter-spacing="normal" font-size-adjust="none" font-stretch="normal" font-weight="normal" font-variant="normal" font-style="normal" stroke-miterlimit="10.433" xml:space="preserve" transform="matrix(3.2552406,0,0,-3.255242,-68.175329,1645.9652)" id="g5354" style="font-style:normal;font-variant:normal;font-weight:normal;font-stretch:normal;letter-spacing:normal;word-spacing:normal;text-anchor:start;fill:none;fill-opacity:1;fill-rule:evenodd;stroke:#000000;stroke-width:0.46079534;stroke-linecap:butt;stroke-linejoin:miter;stroke-miterlimit:10.43299961;stroke-dasharray:none;stroke-dashoffset:0;stroke-opacity:1"><path id="path5356" d="m 226.63,480.86 -0.01,0.08 -0.01,0.08 -0.01,0.07 -0.01,0.07 -0.01,0.07 -0.01,0.07 -0.01,0.06 -0.01,0.06 -0.01,0.06 -0.01,0.05 -0.01,0.06 -0.01,0.05 -0.01,0.05 -0.01,0.04 -0.02,0.05 -0.01,0.05 -0.01,0.04 -0.02,0.04 -0.01,0.04 -0.01,0.04 -0.04,0.08 -0.03,0.07 -0.04,0.08 -0.04,0.07 -0.04,0.07 -0.05,0.07 -1.78,-0.3 0.02,-0.18 c 0.11,0.01 0.3,0.04 0.43,0.04 0.67,0 0.77,-0.71 0.83,-1.24 l 0.45,-3.7 c -0.31,-0.48 -0.98,-1.21 -1.18,-1.21 -0.19,0 -0.17,0.37 -0.68,0.37 -0.15,0 -0.47,-0.13 -0.47,-0.49 0,-0.28 0.22,-0.64 0.66,-0.64 0.81,0 1.58,1.15 2.44,2.24 0.5,0.62 2.42,3.46 2.42,4.38 0,0.46 -0.3,0.73 -0.68,0.73 -0.34,0 -0.56,-0.21 -0.56,-0.47 0,-0.45 0.62,-0.57 0.62,-0.82 0,-0.21 -0.09,-0.45 -0.33,-0.88 -0.26,-0.49 -0.68,-1.19 -1.4,-2.18 z" style="fill:#000000;stroke-width:0" /></g>      <g style="font-style:normal;font-variant:normal;font-weight:normal;font-stretch:normal;letter-spacing:normal;word-spacing:normal;text-anchor:start;fill:none;fill-opacity:1;fill-rule:evenodd;stroke:#000000;stroke-width:0.46079531;stroke-linecap:butt;stroke-linejoin:miter;stroke-miterlimit:10.43299961;stroke-dasharray:none;stroke-dashoffset:0;stroke-opacity:1" id="g5524" transform="matrix(3.2552406,0,0,-3.2552423,158.09682,1811.2991)" xml:space="preserve" stroke-miterlimit="10.433" font-style="normal" font-variant="normal" font-weight="normal" font-stretch="normal" font-size-adjust="none" letter-spacing="normal" word-spacing="normal" ns0:text="$x$" ns0:preamble="/Users/Lizzie/Documents/Old mac/CMEP folder/underground-inkscape-preamble.tex"><path style="fill:#000000;stroke-width:0" d="m 227.04,480.64 -0.23,0.64 c -0.15,0.39 -0.37,0.88 -0.89,1.16 l -1.56,-0.39 0.03,-0.21 c 0.12,0.05 0.3,0.07 0.45,0.07 0.65,0 0.96,-0.48 1.16,-1.05 l 0.39,-1.09 -0.77,-1.19 c -0.38,-0.58 -0.68,-0.7 -0.83,-0.7 -0.29,0 -0.25,0.24 -0.55,0.24 -0.3,0 -0.45,-0.25 -0.45,-0.44 0,-0.26 0.19,-0.55 0.61,-0.55 0.67,0 1.01,0.51 1.39,1.08 l 0.75,1.16 0.47,-1.33 c 0.15,-0.43 0.38,-0.91 0.86,-0.91 0.69,0 1.22,1.13 1.37,1.31 l -0.17,0.12 c -0.25,-0.51 -0.53,-0.68 -0.72,-0.68 -0.54,0 -0.81,1.6 -1.16,2.33 l 0.65,1 c 0.16,0.26 0.29,0.45 0.65,0.45 0.2,0 0.26,-0.1 0.52,-0.1 0.31,0 0.46,0.27 0.46,0.49 0,0.25 -0.2,0.39 -0.58,0.39 -0.59,0 -1.01,-0.52 -1.31,-0.99 z" id="path5526" /></g>      <g style="font-style:normal;font-variant:normal;font-weight:normal;font-stretch:normal;letter-spacing:normal;word-spacing:normal;text-anchor:start;fill:none;fill-opacity:1;fill-rule:evenodd;stroke:#000000;stroke-width:0.55555528;stroke-linecap:butt;stroke-linejoin:miter;stroke-miterlimit:10.43299961;stroke-dasharray:none;stroke-dashoffset:0;stroke-opacity:1" id="g5880" transform="matrix(2.7000011,0,0,-2.7000015,35.658946,1626.8702)" xml:space="preserve" stroke-miterlimit="10.433" font-style="normal" font-variant="normal" font-weight="normal" font-stretch="normal" font-size-adjust="none" letter-spacing="normal" word-spacing="normal" ns0:text="$-2$" ns0:preamble="/Users/Lizzie/Documents/Old mac/CMEP folder/underground-inkscape-preamble.tex"><polygon style="fill:#000000;stroke-width:0" points="230.79,479.83 230.79,480.61 224.19,480.61 224.19,479.83 " id="polygon5882" /><path style="fill:#000000;stroke-width:0" d="m 237.16,478.85 -0.16,0.07 c -0.4,-0.66 -0.64,-0.79 -1.14,-0.79 l -2.77,0 1.95,2.08 c 1.06,1.11 1.52,1.99 1.52,2.93 0,1.17 -0.85,2.08 -2.19,2.08 -1.46,0 -2.22,-0.97 -2.47,-2.35 l 0.25,-0.06 c 0.48,1.15 0.89,1.53 1.74,1.53 1.01,0 1.65,-0.59 1.65,-1.66 0,-1.01 -0.43,-1.9 -1.54,-3.07 l -2.11,-2.23 0,-0.15 4.63,0 z" id="path5884" /></g>      <g style="fill:#2b83ba;fill-opacity:1" transform="translate(774.6227,-274.67262)" id="g6519">
        <path style="font-style:normal;font-variant:normal;font-weight:normal;font-stretch:normal;letter-spacing:normal;word-spacing:normal;text-anchor:start;fill:#2b83ba;fill-opacity:1;fill-rule:evenodd;stroke:#000000;stroke-width:0;stroke-linecap:butt;stroke-linejoin:miter;stroke-miterlimit:10.43299961;stroke-dasharray:none;stroke-dashoffset:0;stroke-opacity:1" d="m 43.353005,382.50602 -0.027,-0.216 -0.027,-0.216 -0.027,-0.189 -0.027,-0.189 -0.027,-0.189 -0.027,-0.18901 -0.027,-0.162 -0.027,-0.162 -0.027,-0.162 -0.027,-0.135 -0.027,-0.162 -0.027,-0.135 -0.027,-0.135 -0.027,-0.108 -0.054,-0.135 -0.027,-0.135 -0.027,-0.108 -0.054,-0.108 -0.027,-0.108 -0.027,-0.108 -0.108,-0.216 -0.081,-0.189 -0.108,-0.216 -0.108,-0.189 -0.108,-0.189 -0.135,-0.189 -4.806,0.81 0.054,0.486 c 0.297,-0.027 0.81,-0.108 1.161,-0.108 1.809,0 2.079,1.917 2.241,3.34801 l 1.215,9.99 c -0.837,1.296 -2.646,3.267 -3.186,3.267 -0.513,0 -0.459,-0.999 -1.836,-0.999 -0.405,0 -1.269,0.351 -1.269,1.323 0,0.756 0.594,1.728 1.782,1.728 2.187,0 4.266,-3.105 6.588,-6.048 1.35,-1.674 6.534001,-9.342 6.534001,-11.82601 0,-1.242 -0.81,-1.971 -1.836,-1.971 -0.918,0 -1.512,0.567 -1.512,1.269 0,1.215 1.674,1.539 1.674,2.21401 0,0.567 -0.243,1.215 -0.891,2.376 -0.702,1.323 -1.836,3.213 -3.780001,5.886 z" id="path6350" />
        <polygon style="font-style:normal;font-variant:normal;font-weight:normal;font-stretch:normal;letter-spacing:normal;word-spacing:normal;text-anchor:start;fill:#2b83ba;fill-opacity:1;fill-rule:evenodd;stroke:#000000;stroke-width:0;stroke-linecap:butt;stroke-linejoin:miter;stroke-miterlimit:10.43299961;stroke-dasharray:none;stroke-dashoffset:0;stroke-opacity:1" points="232.64,481.01 239.61,481.01 239.61,481.79 232.64,481.79 " id="polygon6352" transform="matrix(2.7000002,0,0,-2.7000008,-568.54804,1680.8284)" />
        <polygon style="font-style:normal;font-variant:normal;font-weight:normal;font-stretch:normal;letter-spacing:normal;word-spacing:normal;text-anchor:start;fill:#2b83ba;fill-opacity:1;fill-rule:evenodd;stroke:#000000;stroke-width:0;stroke-linecap:butt;stroke-linejoin:miter;stroke-miterlimit:10.43299961;stroke-dasharray:none;stroke-dashoffset:0;stroke-opacity:1" points="232.64,478.65 239.61,478.65 239.61,479.43 232.64,479.43 " id="polygon6354" transform="matrix(2.7000002,0,0,-2.7000008,-568.54804,1680.8284)" />
        <path style="font-style:normal;font-variant:normal;font-weight:normal;font-stretch:normal;letter-spacing:normal;word-spacing:normal;text-anchor:start;fill:#2b83ba;fill-opacity:1;fill-rule:evenodd;stroke:#000000;stroke-width:0;stroke-linecap:butt;stroke-linejoin:miter;stroke-miterlimit:10.43299961;stroke-dasharray:none;stroke-dashoffset:0;stroke-opacity:1" d="m 103.18501,379.13101 -4.050001,0 c -0.459,-0.486 -1.458,-0.891 -2.808,-0.891 l 0.135,0.945 c 1.404,0 1.728,0.81 1.728,1.971 l 0,0 c 0,1.80901 -0.81,5.04901 -3.078,5.04901 -1.404,0 -1.782,-1.107 -1.782,-2.592 0,-2.16 1.404,-4.42801 3.132,-4.42801 l -0.135,-0.945 c -3.402,0 -5.562,2.511 -5.562,5.02201 0,1.512 0.864,2.997 2.997,3.483 l 0,0.135 c -1.539,0 -2.7,1.566 -2.7,2.781 0,0.54 0.216,1.134 0.756,1.485 l 0.648,0.324 c 1.917,0.702 6.129,0.54 6.129,3.024 l 0,0 c 0,1.404 -1.161,2.862 -4.05,2.862 -3.051,0 -4.455,-1.593 -4.455,-3.078 0,-0.864 0.702,-1.701 1.539,-2.295 0.243,-0.189 0.567,-0.351 0.837,-0.513 l -0.648,-0.324 c -1.971,0.648 -3.753,1.593 -3.753,3.429 0,1.863 1.62,3.672 5.886,3.672 4.779,0 6.885001,-2.538 6.885001,-4.806 0,-3.996 -7.452001,-2.7 -7.452001,-4.725 0,-0.783 0.918,-1.593 2.808,-1.836 2.808,-0.351 4.509001,-2.322 4.509001,-4.725 0,-0.702 -0.135,-1.10701 -0.54,-1.59301 l 2.592,0 z" id="path6356" />
        <path style="font-style:normal;font-variant:normal;font-weight:normal;font-stretch:normal;letter-spacing:normal;word-spacing:normal;text-anchor:start;fill:#2b83ba;fill-opacity:1;fill-rule:evenodd;stroke:#000000;stroke-width:0;stroke-linecap:butt;stroke-linejoin:miter;stroke-miterlimit:10.43299961;stroke-dasharray:none;stroke-dashoffset:0;stroke-opacity:1" d="m 112.90501,397.43702 -0.405,-0.351 -0.405,-0.351 -0.378,-0.351 -0.351,-0.351 -0.324,-0.351 -0.297,-0.351 -0.297,-0.351 -0.297,-0.378 -0.243,-0.351 -0.243,-0.351 -0.243,-0.378 -0.216,-0.378 -0.189,-0.378 -0.189,-0.378 -0.162,-0.378 -0.162,-0.378 -0.135,-0.405 -0.135,-0.405 -0.135,-0.432 -0.108,-0.405 -0.081,-0.432 -0.081,-0.432 -0.081,-0.459 -0.054,-0.459 -0.081,-0.459 -0.027,-0.486 -0.054,-0.486 -0.027,-0.486 -0.027,-0.513 0,-0.513 0,-0.54 -0.027,-0.567 c 0,-6.12901 0.999,-9.09901 5.454,-12.90601 l -0.297,-0.513 c -5.103,3.051 -7.911,7.641 -7.911,13.52701 0,5.427 2.754,10.8 7.803,13.689 z" id="path6358" />
        <path style="font-style:normal;font-variant:normal;font-weight:normal;font-stretch:normal;letter-spacing:normal;word-spacing:normal;text-anchor:start;fill:#2b83ba;fill-opacity:1;fill-rule:evenodd;stroke:#000000;stroke-width:0;stroke-linecap:butt;stroke-linejoin:miter;stroke-miterlimit:10.43299961;stroke-dasharray:none;stroke-dashoffset:0;stroke-opacity:1" d="m 123.59701,383.10002 -0.648,-1.72801 c -0.405,-1.053 -0.999,-2.376 -2.403,-3.132 l -4.212,1.053 0.081,0.567 c 0.324,-0.135 0.81,-0.189 1.215,-0.189 1.755,0 2.592,1.296 3.132,2.83501 l 1.053,2.943 -2.079,3.213 c -1.026,1.566 -1.836,1.89 -2.241,1.89 -0.783,0 -0.648,-0.648 -1.485,-0.648 -0.81,0 -1.215,0.675 -1.215,1.188 0,0.702 0.513,1.485 1.647,1.485 1.809,0 2.727,-1.377 3.753,-2.916 l 2.025,-3.132 1.269,3.591 c 0.405,1.161 1.026,2.457 2.322,2.457 1.863,0 3.294,-3.051 3.699,-3.537 l -0.459,-0.324 c -0.675,1.377 -1.431,1.836 -1.944,1.836 -1.458,0 -2.187,-4.32 -3.132,-6.291 l 1.755,-2.7 c 0.432,-0.70201 0.783,-1.21501 1.755,-1.21501 0.54,0 0.702,0.27 1.404,0.27 0.837,0 1.242,-0.729 1.242,-1.323 0,-0.675 -0.54,-1.053 -1.566,-1.053 -1.593,0 -2.727,1.404 -3.537,2.673 z" id="path6360" />
        <path style="font-style:normal;font-variant:normal;font-weight:normal;font-stretch:normal;letter-spacing:normal;word-spacing:normal;text-anchor:start;fill:#2b83ba;fill-opacity:1;fill-rule:evenodd;stroke:#000000;stroke-width:0;stroke-linecap:butt;stroke-linejoin:miter;stroke-miterlimit:10.43299961;stroke-dasharray:none;stroke-dashoffset:0;stroke-opacity:1" d="m 132.34501,371.24701 0.432,0.351 0.405,0.351 0.378,0.324 0.351,0.351 0.351,0.351 0.324,0.351 0.297,0.351 0.27,0.351 0.27,0.351 0.243,0.351 0.216,0.378 0.216,0.378 0.216,0.378 0.162,0.378 0.189,0.378 0.135,0.405 0.135,0.378 0.135,0.405 0.108,0.432 0.108,0.432 0.081,0.405 0.081,0.459 0.081,0.432 0.054,0.459 0.054,0.486 0.054,0.486 0.027,0.48601 0.027,0.486 0.027,0.513 0,0.54 0,0.54 0.027,0.54 c 0,6.183 -0.918,9.207 -5.454,12.933 l 0.297,0.513 c 5.076,-3.105 7.884,-7.641 7.884,-13.527 0,-5.42701 -2.889,-10.74601 -7.803,-13.68901 z" id="path6362" />
      </g>
      <g style="fill:#2b83ba;fill-opacity:1" transform="translate(735.15762,-265.01743)" id="g6510">
        <path style="font-style:normal;font-variant:normal;font-weight:normal;font-stretch:normal;letter-spacing:normal;word-spacing:normal;text-anchor:start;fill:#2b83ba;fill-opacity:1;fill-rule:evenodd;stroke:#000000;stroke-width:0;stroke-linecap:butt;stroke-linejoin:miter;stroke-miterlimit:10.43299961;stroke-dasharray:none;stroke-dashoffset:0;stroke-opacity:1" d="m 84.825008,415.39203 -0.648,-1.75501 c -0.378,-1.053 -0.999,-2.349 -2.403,-3.132 l -4.212,1.053 0.108,0.594 c 0.297,-0.135 0.783,-0.189 1.215,-0.189 1.755,0 2.565,1.296 3.132,2.835 l 1.053,2.91601 -2.079,3.213 c -1.026,1.566 -1.863,1.89 -2.241,1.89 -0.81,0 -0.675,-0.648 -1.512,-0.648 -0.81,0 -1.215,0.675 -1.215,1.188 0,0.702 0.513,1.512 1.674,1.512 1.782,0 2.7,-1.377 3.726,-2.943 l 2.025,-3.132 1.269,3.618 c 0.432,1.134 1.026,2.457 2.349001,2.457 1.863,0 3.294,-3.078 3.672,-3.537 l -0.459,-0.324 c -0.675,1.35 -1.431,1.809 -1.944,1.809 -1.431,0 -2.160001,-4.293 -3.132001,-6.291 l 1.755001,-2.70001 c 0.459,-0.702 0.81,-1.215 1.755,-1.215 0.54,0 0.702,0.297 1.431,0.297 0.81,0 1.242,-0.729 1.242,-1.35 0,-0.675 -0.567,-1.053 -1.566,-1.053 -1.62,0 -2.727,1.404 -3.564,2.7 z" id="path6364" />
        <path style="font-style:normal;font-variant:normal;font-weight:normal;font-stretch:normal;letter-spacing:normal;word-spacing:normal;text-anchor:start;fill:#2b83ba;fill-opacity:1;fill-rule:evenodd;stroke:#000000;stroke-width:0;stroke-linecap:butt;stroke-linejoin:miter;stroke-miterlimit:10.43299961;stroke-dasharray:none;stroke-dashoffset:0;stroke-opacity:1" d="m 120.11401,425.43603 0,-2.106 -9.315,0 c -3.294,0 -6.048,-2.7 -6.588,-5.724 l 15.903,0 0,-2.106 -15.876,0 c 0.54,-3.05101 3.294,-5.75101 6.588,-5.75101 l 9.288,0 0,-2.106 -9.423,0 c -5.076,0 -8.667,4.185 -8.667,8.88301 0,4.725 3.645,8.91 8.775,8.91 z" id="path6366" />
        <path style="font-style:normal;font-variant:normal;font-weight:normal;font-stretch:normal;letter-spacing:normal;word-spacing:normal;text-anchor:start;fill:#2b83ba;fill-opacity:1;fill-rule:evenodd;stroke:#000000;stroke-width:0;stroke-linecap:butt;stroke-linejoin:miter;stroke-miterlimit:10.43299961;stroke-dasharray:none;stroke-dashoffset:0;stroke-opacity:1" d="m 139.06801,429.54003 0,-0.783 -2.646,0 c -1.053,0 -1.674,-0.459 -1.674,-1.728 l 0,-21.22201 c 0,-1.161 0.594,-1.539 1.674,-1.539 l 2.646,0 0,-0.81 -6.75,0 0,26.08201 z" id="path6368" />
        <path style="font-style:normal;font-variant:normal;font-weight:normal;font-stretch:normal;letter-spacing:normal;word-spacing:normal;text-anchor:start;fill:#2b83ba;fill-opacity:1;fill-rule:evenodd;stroke:#000000;stroke-width:0;stroke-linecap:butt;stroke-linejoin:miter;stroke-miterlimit:10.43299961;stroke-dasharray:none;stroke-dashoffset:0;stroke-opacity:1" d="m 155.37601,414.04202 0,-0.594 -0.027,-0.594 -0.027,-0.594 -0.081,-0.567 -0.054,-0.54 -0.108,-0.54 -0.081,-0.54 -0.135,-0.513 -0.135,-0.486 -0.135,-0.486 -0.162,-0.459 -0.189,-0.432 -0.189,-0.432 -0.189,-0.405 -0.216,-0.405 -0.243,-0.378 -0.243,-0.351 -0.243,-0.324 -0.27,-0.324 -0.27,-0.297 -0.297,-0.27 -0.297,-0.243 -0.297,-0.243 -0.324,-0.189 -0.324,-0.189 -0.351,-0.162 -0.324,-0.135 -0.378,-0.108 -0.351,-0.108 -0.378,-0.054 -0.378,-0.054 -0.405,0 c -5.13,0 -7.344,5.184 -7.344,10.827 0,5.23801 1.755,11.17801 7.236,11.17801 l 0,-0.837 c -2.754,0 -4.158,-3.645 -4.158,-10.09801 0,-6.48 1.431,-10.233 4.077,-10.233 2.835,0 4.239,3.726 4.239,10.341 l 0,0 c 0,6.31801 -1.458,9.99001 -4.158,9.99001 l 0,0.837 c 5.211,0 7.209,-5.481 7.209,-10.98901 z" id="path6370" />
        <path style="font-style:normal;font-variant:normal;font-weight:normal;font-stretch:normal;letter-spacing:normal;word-spacing:normal;text-anchor:start;fill:#2b83ba;fill-opacity:1;fill-rule:evenodd;stroke:#000000;stroke-width:0;stroke-linecap:butt;stroke-linejoin:miter;stroke-miterlimit:10.43299961;stroke-dasharray:none;stroke-dashoffset:0;stroke-opacity:1" d="m 158.80501,429.08103 0.216,-0.108 0.189,-0.108 0.216,-0.108 0.189,-0.135 0.162,-0.108 0.189,-0.135 0.162,-0.135 0.189,-0.135 0.162,-0.135 0.135,-0.135 0.162,-0.162 0.135,-0.135 0.135,-0.162 0.135,-0.162 0.135,-0.162 0.108,-0.162 0.135,-0.162 0.081,-0.162 0.108,-0.162 0.108,-0.189 0.081,-0.162 0.081,-0.162 0.054,-0.189 0.081,-0.189 0.054,-0.162 0.054,-0.189 0.027,-0.162 0.054,-0.189 0.027,-0.189 0,-0.162 0.027,-0.189 0,-0.189 c 0,-1.647 -1.107,-2.754 -2.565,-2.754 -1.134,0 -1.917,0.729 -1.917,1.809 0,1.08 0.675,1.62 1.863,1.62 0.351,0 0.675,-0.135 0.918,-0.135 0.27,0 0.459,0.189 0.459,0.432 0,1.053 -0.891,2.214 -2.673,3.402 z" id="path6372" />
        <path style="font-style:normal;font-variant:normal;font-weight:normal;font-stretch:normal;letter-spacing:normal;word-spacing:normal;text-anchor:start;fill:#2b83ba;fill-opacity:1;fill-rule:evenodd;stroke:#000000;stroke-width:0;stroke-linecap:butt;stroke-linejoin:miter;stroke-miterlimit:10.43299961;stroke-dasharray:none;stroke-dashoffset:0;stroke-opacity:1" d="m 195.95702,417.49803 -0.027,-0.405 -0.027,-0.378 -0.027,-0.378 -0.054,-0.351 -0.081,-0.351 -0.081,-0.351 -0.108,-0.32401 -0.108,-0.297 -0.135,-0.297 -0.135,-0.297 -0.135,-0.27 -0.162,-0.27 -0.189,-0.27 -0.189,-0.243 -0.189,-0.216 -0.189,-0.216 -0.216,-0.216 -0.216,-0.189 -0.216,-0.189 -0.243,-0.162 -0.243,-0.135 -0.243,-0.162 -0.243,-0.108 -0.243,-0.135 -0.27,-0.081 -0.243,-0.108 -0.27,-0.054 -0.27,-0.081 -0.27,-0.027 -0.27,-0.054 -0.27,0 -0.27,-0.027 c -3.24,0 -4.698,2.052 -6.183,4.69801 l 0.648,1.215 c 0.945,-1.35 2.133,-3.21301 4.995,-3.21301 2.808,0 4.455,2.43001 4.455,5.34601 0,2.025 -1.431,3.78 -3.213,3.78 -2.16,0 -3.942,-2.025 -6.237,-5.832 l 0,-0.081 -0.648,-1.215 c -3.024,-4.07701 -4.617,-4.69801 -6.966,-4.69801 -1.836,0 -6.10201,1.485 -6.10201,7.34401 0,4.401 2.889,6.372 5.64301,6.372 3.051,0 5.238,-1.728 6.669,-4.617 l -0.702,-1.161 c -0.864,1.161 -2.403,3.105 -5.238,3.105 -2.835,0 -4.45501,-2.646 -4.45501,-5.373 0,-2.02501 1.40401,-3.78001 3.21301,-3.78001 2.16,0 4.185,2.16 6.48,5.96701 l 0,0.081 0.702,1.161 c 1.971,2.916 3.807,4.617 6.426,4.617 4.023,0 6.345,-3.996 6.345,-7.074 z" id="path6374" />
        <path style="font-style:normal;font-variant:normal;font-weight:normal;font-stretch:normal;letter-spacing:normal;word-spacing:normal;text-anchor:start;fill:#2b83ba;fill-opacity:1;fill-rule:evenodd;stroke:#000000;stroke-width:0;stroke-linecap:butt;stroke-linejoin:miter;stroke-miterlimit:10.43299961;stroke-dasharray:none;stroke-dashoffset:0;stroke-opacity:1" d="m 199.19702,403.53902 0.405,0.324 0.405,0.351 0.378,0.351 0.378,0.324 0.324,0.351 0.324,0.351 0.297,0.351 0.27,0.351 0.27,0.378 0.243,0.351 0.243,0.351 0.216,0.378 0.189,0.378 0.189,0.378 0.162,0.378 0.162,0.405 0.135,0.405 0.108,0.405 0.135,0.405 0.081,0.432 0.108,0.432 0.081,0.432 0.054,0.459 0.081,0.459 0.027,0.459 0.054,0.486 0.027,0.486 0.027,0.513 0.027,0.513 0.027,0.51301 0,0.54 0,0.567 c 0,6.183 -0.891,9.18 -5.427,12.906 l 0.27,0.513 c 5.103,-3.078 7.911,-7.614 7.911,-13.527 0,-5.40001 -2.916,-10.71901 -7.803,-13.66201 z" id="path6376" />
      </g>
      <path id="path4253" d="m 689.87699,112.50681 104.4037,0 0,113.69628" style="fill:none;fill-rule:evenodd;stroke:#000000;stroke-width:1.40790415;stroke-linecap:butt;stroke-linejoin:miter;stroke-miterlimit:4;stroke-dasharray:4.22371255, 4.22371255;stroke-dashoffset:0;stroke-opacity:1" />
      <path style="fill:none;fill-rule:evenodd;stroke:#000000;stroke-width:1.40790415px;stroke-linecap:butt;stroke-linejoin:miter;stroke-opacity:1" d="m 737.33215,109.72435 -5.63161,2.8158 5.63161,2.81581 0,0" id="path4284" />
      <path id="path4286" d="m 797.10688,182.5191 -2.81581,-5.63161 -2.81581,5.63161 0,0" style="fill:none;fill-rule:evenodd;stroke:#000000;stroke-width:1.40790415px;stroke-linecap:butt;stroke-linejoin:miter;stroke-opacity:1" />
    </g>
  </g>
</svg>