<?xml version='1.0' ?><svg xmlns:dc="http://purl.org/dc/elements/1.1/" xmlns:cc="http://creativecommons.org/ns#" xmlns:rdf="http://www.w3.org/1999/02/22-rdf-syntax-ns#" xmlns:svg="http://www.w3.org/2000/svg" xmlns="http://www.w3.org/2000/svg" id="svg2" version="1.1" width="373.24769" height="286.99769" viewBox="0.0 0.6464466003478261 480.35354886956515 369.35354886956515" preserveAspectRatio="none">
  <metadata id="metadata505">
    <rdf:RDF>
      <cc:Work rdf:about="">
        <dc:format>image/svg+xml</dc:format>
        <dc:type rdf:resource="http://purl.org/dc/dcmitype/StillImage" />
      </cc:Work>
    </rdf:RDF>
  </metadata>
  <defs id="defs503" />
  <title id="title4" />
  <g id="g6" stroke-linecap="square" stroke-miterlimit="10.000" stroke-width="1.0000" stroke-dasharray="none" stroke-dashoffset="0.0000" stroke-linejoin="miter">
    <clipPath id="clip1">
      <path id="path9" d="M 0.0000 0.0000 L 0.0000 370.00 L 481.00 370.00 L 481.00 0.0000 z" />
    </clipPath>
    <g id="g11" clip-path="url(#clip1)">
      <g id="g13" stroke="#000000" stroke-opacity="1.0000" fill="none" stroke-linecap="butt">
        <path id="path15" d="M 168.59 2.0000 L 168.59 370.00" />
      </g>
    </g>
    <clipPath id="clip2">
      <path id="path18" d="M 0.0000 0.0000 L 0.0000 370.00 L 481.00 370.00 L 481.00 0.0000 z" />
    </clipPath>
    <g id="g20" clip-path="url(#clip2)">
      <g id="g22" stroke="#000000" stroke-opacity="1.0000" fill="none" stroke-linecap="butt">
        <path id="path24" d="M 168.59 1.0000 L 164.59 5.0000" />
      </g>
    </g>
    <clipPath id="clip3">
      <path id="path27" d="M 0.0000 0.0000 L 0.0000 370.00 L 481.00 370.00 L 481.00 0.0000 z" />
    </clipPath>
    <g id="g29" clip-path="url(#clip3)">
      <g id="g31" stroke="#000000" stroke-opacity="1.0000" fill="none" stroke-linecap="butt">
        <path id="path33" d="M 168.59 1.0000 L 172.59 5.0000" />
      </g>
    </g>
    <clipPath id="clip4">
      <path id="path36" d="M 0.0000 0.0000 L 0.0000 370.00 L 481.00 370.00 L 481.00 0.0000 z" />
    </clipPath>
    <g id="g38" clip-path="url(#clip4)">
      <g id="g40" stroke="#000000" stroke-opacity="1.0000" fill="none" stroke-linecap="butt">
        <path id="path42" d="M 0.0000 135.10 L 479.00 135.10" />
      </g>
    </g>
    <clipPath id="clip5">
      <path id="path45" d="M 0.0000 0.0000 L 0.0000 370.00 L 481.00 370.00 L 481.00 0.0000 z" />
    </clipPath>
    <g id="g47" clip-path="url(#clip5)">
      <g id="g49" stroke="#000000" stroke-opacity="1.0000" fill="none" stroke-linecap="butt">
        <path id="path51" d="M 480.00 135.10 L 476.00 131.10" />
      </g>
    </g>
    <clipPath id="clip6">
      <path id="path54" d="M 0.0000 0.0000 L 0.0000 370.00 L 481.00 370.00 L 481.00 0.0000 z" />
    </clipPath>
    <g id="g56" clip-path="url(#clip6)">
      <g id="g58" stroke="#000000" stroke-opacity="1.0000" fill="none" stroke-linecap="butt">
        <path id="path60" d="M 480.00 135.10 L 476.00 139.10" />
      </g>
    </g>
    <clipPath id="clip7">
      <path id="path63" d="M 0.0000 0.0000 L 0.0000 370.00 L 481.00 370.00 L 481.00 0.0000 z" />
    </clipPath>
    <g id="g65" clip-path="url(#clip7)">
      <g id="g67" fill="#000000" stroke="none" fill-rule="nonzero" fill-opacity="1.0000">
        <path id="path69" d="M 6.6152 147.82 L 6.6152 147.02 L 11.385 147.02 L 11.385 147.82 z M 14.062 146.51 Q 14.889 145.43 16.143 145.43 Q 17.279 145.43 18.003 146.19 Q 18.727 146.94 18.727 148.12 Q 18.727 149.47 17.915 150.34 Q 17.104 151.22 15.855 151.22 Q 14.420 151.22 13.611 150.06 Q 12.803 148.91 12.803 146.86 Q 12.803 144.60 13.731 143.35 Q 14.660 142.11 16.348 142.11 Q 17.121 142.11 18.281 142.43 L 18.281 143.44 Q 17.057 142.97 16.277 142.97 Q 14.062 142.97 14.062 146.51 z M 17.566 148.38 Q 17.566 147.39 17.124 146.83 Q 16.682 146.27 15.896 146.27 Q 15.164 146.27 14.637 146.76 Q 14.109 147.25 14.109 147.94 Q 14.109 149.03 14.610 149.69 Q 15.111 150.35 15.938 150.35 Q 16.682 150.35 17.124 149.81 Q 17.566 149.28 17.566 148.38 z" />
      </g>
    </g>
    <clipPath id="clip8">
      <path id="path72" d="M 0.0000 0.0000 L 0.0000 370.00 L 481.00 370.00 L 481.00 0.0000 z" />
    </clipPath>
    <g id="g74" clip-path="url(#clip8)">
      <g id="g76" stroke="#000000" stroke-opacity="1.0000" fill="none" stroke-linecap="butt">
        <path id="path78" d="M 11.821 135.10 L 11.821 138.10" />
      </g>
    </g>
    <clipPath id="clip9">
      <path id="path81" d="M 0.0000 0.0000 L 0.0000 370.00 L 481.00 370.00 L 481.00 0.0000 z" />
    </clipPath>
    <g id="g83" clip-path="url(#clip9)">
      <g id="g85" fill="#000000" stroke="none" fill-rule="nonzero" fill-opacity="1.0000">
        <path id="path87" d="M 59.615 147.82 L 59.615 147.02 L 64.385 147.02 L 64.385 147.82 z M 69.518 151.00 L 69.518 148.54 L 65.615 148.54 L 65.615 147.67 L 69.518 142.33 L 70.602 142.33 L 70.602 147.60 L 71.762 147.60 L 71.762 148.54 L 70.602 148.54 L 70.602 151.00 z M 66.746 147.60 L 69.594 147.60 L 69.594 143.75 z" />
      </g>
    </g>
    <clipPath id="clip10">
      <path id="path90" d="M 0.0000 0.0000 L 0.0000 370.00 L 481.00 370.00 L 481.00 0.0000 z" />
    </clipPath>
    <g id="g92" clip-path="url(#clip10)">
      <g id="g94" stroke="#000000" stroke-opacity="1.0000" fill="none" stroke-linecap="butt">
        <path id="path96" d="M 64.079 135.10 L 64.079 138.10" />
      </g>
    </g>
    <clipPath id="clip11">
      <path id="path99" d="M 0.0000 0.0000 L 0.0000 370.00 L 481.00 370.00 L 481.00 0.0000 z" />
    </clipPath>
    <g id="g101" clip-path="url(#clip11)">
      <g id="g103" fill="#000000" stroke="none" fill-rule="nonzero" fill-opacity="1.0000">
        <path id="path105" d="M 111.62 147.82 L 111.62 147.02 L 116.38 147.02 L 116.38 147.82 z M 118.00 151.00 L 118.00 149.99 Q 118.50 148.81 120.04 147.42 L 120.70 146.83 Q 121.97 145.67 121.97 144.54 Q 121.97 143.81 121.54 143.39 Q 121.10 142.98 120.34 142.98 Q 119.44 142.98 118.21 143.68 L 118.21 142.66 Q 119.37 142.11 120.50 142.11 Q 121.72 142.11 122.46 142.77 Q 123.20 143.42 123.20 144.51 Q 123.20 145.29 122.83 145.89 Q 122.46 146.49 121.44 147.36 L 121.00 147.74 Q 119.61 148.91 119.39 149.99 L 123.16 149.99 L 123.16 151.00 z" />
      </g>
    </g>
    <clipPath id="clip12">
      <path id="path108" d="M 0.0000 0.0000 L 0.0000 370.00 L 481.00 370.00 L 481.00 0.0000 z" />
    </clipPath>
    <g id="g110" clip-path="url(#clip12)">
      <g id="g112" stroke="#000000" stroke-opacity="1.0000" fill="none" stroke-linecap="butt">
        <path id="path114" d="M 116.34 135.10 L 116.34 138.10" />
      </g>
    </g>
    <clipPath id="clip13">
      <path id="path117" d="M 0.0000 0.0000 L 0.0000 370.00 L 481.00 370.00 L 481.00 0.0000 z" />
    </clipPath>
    <g id="g119" clip-path="url(#clip13)">
      <g id="g121" fill="#000000" stroke="none" fill-rule="nonzero" fill-opacity="1.0000">
        <path id="path123" d="M 177.76 151.22 Q 176.42 151.22 175.59 149.95 Q 174.76 148.69 174.76 146.66 Q 174.76 144.61 175.60 143.36 Q 176.43 142.11 177.80 142.11 Q 179.16 142.11 180.00 143.36 Q 180.83 144.61 180.83 146.64 Q 180.83 148.73 180.00 149.97 Q 179.16 151.22 177.76 151.22 z M 177.77 150.35 Q 179.61 150.35 179.61 146.62 Q 179.61 142.98 177.80 142.98 Q 175.99 142.98 175.99 146.66 Q 175.99 150.35 177.77 150.35 z" />
      </g>
    </g>
    <clipPath id="clip14">
      <path id="path126" d="M 0.0000 0.0000 L 0.0000 370.00 L 481.00 370.00 L 481.00 0.0000 z" />
    </clipPath>
    <g id="g128" clip-path="url(#clip14)">
      <g id="g130" stroke="#000000" stroke-opacity="1.0000" fill="none" stroke-linecap="butt">
        <path id="path132" d="M 168.59 135.10 L 168.59 138.10" />
      </g>
    </g>
    <clipPath id="clip15">
      <path id="path135" d="M 0.0000 0.0000 L 0.0000 370.00 L 481.00 370.00 L 481.00 0.0000 z" />
    </clipPath>
    <g id="g137" clip-path="url(#clip15)">
      <g id="g139" fill="#000000" stroke="none" fill-rule="nonzero" fill-opacity="1.0000">
        <path id="path141" d="M 219.00 151.00 L 219.00 149.99 Q 219.50 148.81 221.04 147.42 L 221.70 146.83 Q 222.97 145.67 222.97 144.54 Q 222.97 143.81 222.54 143.39 Q 222.10 142.98 221.34 142.98 Q 220.44 142.98 219.21 143.68 L 219.21 142.66 Q 220.37 142.11 221.50 142.11 Q 222.72 142.11 223.46 142.77 Q 224.20 143.42 224.20 144.51 Q 224.20 145.29 223.83 145.89 Q 223.46 146.49 222.44 147.36 L 222.00 147.74 Q 220.61 148.91 220.39 149.99 L 224.16 149.99 L 224.16 151.00 z" />
      </g>
    </g>
    <clipPath id="clip16">
      <path id="path144" d="M 0.0000 0.0000 L 0.0000 370.00 L 481.00 370.00 L 481.00 0.0000 z" />
    </clipPath>
    <g id="g146" clip-path="url(#clip16)">
      <g id="g148" stroke="#000000" stroke-opacity="1.0000" fill="none" stroke-linecap="butt">
        <path id="path150" d="M 220.85 135.10 L 220.85 138.10" />
      </g>
    </g>
    <clipPath id="clip17">
      <path id="path153" d="M 0.0000 0.0000 L 0.0000 370.00 L 481.00 370.00 L 481.00 0.0000 z" />
    </clipPath>
    <g id="g155" clip-path="url(#clip17)">
      <g id="g157" fill="#000000" stroke="none" fill-rule="nonzero" fill-opacity="1.0000">
        <path id="path159" d="M 275.52 151.00 L 275.52 148.54 L 271.62 148.54 L 271.62 147.67 L 275.52 142.33 L 276.60 142.33 L 276.60 147.60 L 277.76 147.60 L 277.76 148.54 L 276.60 148.54 L 276.60 151.00 z M 272.75 147.60 L 275.59 147.60 L 275.59 143.75 z" />
      </g>
    </g>
    <clipPath id="clip18">
      <path id="path162" d="M 0.0000 0.0000 L 0.0000 370.00 L 481.00 370.00 L 481.00 0.0000 z" />
    </clipPath>
    <g id="g164" clip-path="url(#clip18)">
      <g id="g166" stroke="#000000" stroke-opacity="1.0000" fill="none" stroke-linecap="butt">
        <path id="path168" d="M 273.11 135.10 L 273.11 138.10" />
      </g>
    </g>
    <clipPath id="clip19">
      <path id="path171" d="M 0.0000 0.0000 L 0.0000 370.00 L 481.00 370.00 L 481.00 0.0000 z" />
    </clipPath>
    <g id="g173" clip-path="url(#clip19)">
      <g id="g175" fill="#000000" stroke="none" fill-rule="nonzero" fill-opacity="1.0000">
        <path id="path177" d="M 325.06 146.51 Q 325.89 145.43 327.14 145.43 Q 328.28 145.43 329.00 146.19 Q 329.73 146.94 329.73 148.12 Q 329.73 149.47 328.92 150.34 Q 328.10 151.22 326.86 151.22 Q 325.42 151.22 324.61 150.06 Q 323.80 148.91 323.80 146.86 Q 323.80 144.60 324.73 143.35 Q 325.66 142.11 327.35 142.11 Q 328.12 142.11 329.28 142.43 L 329.28 143.44 Q 328.06 142.97 327.28 142.97 Q 325.06 142.97 325.06 146.51 z M 328.57 148.38 Q 328.57 147.39 328.12 146.83 Q 327.68 146.27 326.90 146.27 Q 326.16 146.27 325.64 146.76 Q 325.11 147.25 325.11 147.94 Q 325.11 149.03 325.61 149.69 Q 326.11 150.35 326.94 150.35 Q 327.68 150.35 328.12 149.81 Q 328.57 149.28 328.57 148.38 z" />
      </g>
    </g>
    <clipPath id="clip20">
      <path id="path180" d="M 0.0000 0.0000 L 0.0000 370.00 L 481.00 370.00 L 481.00 0.0000 z" />
    </clipPath>
    <g id="g182" clip-path="url(#clip20)">
      <g id="g184" stroke="#000000" stroke-opacity="1.0000" fill="none" stroke-linecap="butt">
        <path id="path186" d="M 325.37 135.10 L 325.37 138.10" />
      </g>
    </g>
    <clipPath id="clip21">
      <path id="path189" d="M 0.0000 0.0000 L 0.0000 370.00 L 481.00 370.00 L 481.00 0.0000 z" />
    </clipPath>
    <g id="g191" clip-path="url(#clip21)">
      <g id="g193" fill="#000000" stroke="none" fill-rule="nonzero" fill-opacity="1.0000">
        <path id="path195" d="M 377.76 146.28 Q 376.49 145.39 376.49 144.32 Q 376.49 143.34 377.21 142.72 Q 377.93 142.11 379.09 142.11 Q 380.16 142.11 380.83 142.63 Q 381.49 143.15 381.49 143.98 Q 381.49 145.24 379.88 146.28 Q 381.84 147.24 381.84 148.76 Q 381.84 149.85 381.01 150.53 Q 380.19 151.22 378.89 151.22 Q 377.61 151.22 376.83 150.57 Q 376.04 149.92 376.04 148.87 Q 376.04 147.31 377.76 146.28 z M 379.23 145.91 Q 380.44 145.12 380.44 144.14 Q 380.44 143.62 380.04 143.30 Q 379.63 142.98 378.97 142.98 Q 378.33 142.98 377.94 143.29 Q 377.54 143.61 377.54 144.10 Q 377.54 144.59 377.90 144.97 Q 378.26 145.36 379.23 145.91 z M 378.39 146.75 Q 377.69 147.29 377.44 147.69 Q 377.19 148.09 377.19 148.69 Q 377.19 149.43 377.67 149.89 Q 378.15 150.35 378.94 150.35 Q 379.69 150.35 380.17 149.96 Q 380.65 149.56 380.65 148.94 Q 380.65 148.43 380.35 148.08 Q 380.06 147.74 379.21 147.23 z" />
      </g>
    </g>
    <clipPath id="clip22">
      <path id="path198" d="M 0.0000 0.0000 L 0.0000 370.00 L 481.00 370.00 L 481.00 0.0000 z" />
    </clipPath>
    <g id="g200" clip-path="url(#clip22)">
      <g id="g202" stroke="#000000" stroke-opacity="1.0000" fill="none" stroke-linecap="butt">
        <path id="path204" d="M 377.62 135.10 L 377.62 138.10" />
      </g>
    </g>
    <clipPath id="clip23">
      <path id="path207" d="M 0.0000 0.0000 L 0.0000 370.00 L 481.00 370.00 L 481.00 0.0000 z" />
    </clipPath>
    <g id="g209" clip-path="url(#clip23)">
      <g id="g211" fill="#000000" stroke="none" fill-rule="nonzero" fill-opacity="1.0000">
        <path id="path213" d="M 425.80 151.00 L 425.80 150.13 L 427.54 150.13 L 427.54 143.29 L 425.80 143.72 L 425.80 142.83 L 428.70 142.11 L 428.70 150.13 L 430.43 150.13 L 430.43 151.00 z M 435.35 151.22 Q 434.01 151.22 433.18 149.95 Q 432.35 148.69 432.35 146.66 Q 432.35 144.61 433.18 143.36 Q 434.02 142.11 435.38 142.11 Q 436.75 142.11 437.58 143.36 Q 438.42 144.61 438.42 146.64 Q 438.42 148.73 437.58 149.97 Q 436.75 151.22 435.35 151.22 z M 435.36 150.35 Q 437.20 150.35 437.20 146.62 Q 437.20 142.98 435.38 142.98 Q 433.58 142.98 433.58 146.66 Q 433.58 150.35 435.36 150.35 z" />
      </g>
    </g>
    <clipPath id="clip24">
      <path id="path216" d="M 0.0000 0.0000 L 0.0000 370.00 L 481.00 370.00 L 481.00 0.0000 z" />
    </clipPath>
    <g id="g218" clip-path="url(#clip24)">
      <g id="g220" stroke="#000000" stroke-opacity="1.0000" fill="none" stroke-linecap="butt">
        <path id="path222" d="M 429.88 135.10 L 429.88 138.10" />
      </g>
    </g>
    <clipPath id="clip25">
      <path id="path225" d="M 0.0000 0.0000 L 0.0000 370.00 L 481.00 370.00 L 481.00 0.0000 z" />
    </clipPath>
    <g id="g227" clip-path="url(#clip25)">
      <g id="g229" fill="#000000" stroke="none" fill-rule="nonzero" fill-opacity="1.0000">
        <path id="path231" d="M 148.62 345.82 L 148.62 345.02 L 153.38 345.02 L 153.38 345.82 z M 156.76 344.28 Q 155.49 343.39 155.49 342.32 Q 155.49 341.34 156.21 340.72 Q 156.93 340.11 158.09 340.11 Q 159.16 340.11 159.83 340.63 Q 160.49 341.15 160.49 341.98 Q 160.49 343.24 158.88 344.28 Q 160.84 345.24 160.84 346.76 Q 160.84 347.85 160.01 348.53 Q 159.19 349.22 157.89 349.22 Q 156.61 349.22 155.83 348.57 Q 155.04 347.92 155.04 346.87 Q 155.04 345.31 156.76 344.28 z M 158.23 343.91 Q 159.44 343.12 159.44 342.14 Q 159.44 341.62 159.04 341.30 Q 158.63 340.98 157.97 340.98 Q 157.33 340.98 156.94 341.29 Q 156.54 341.61 156.54 342.10 Q 156.54 342.59 156.90 342.97 Q 157.26 343.36 158.23 343.91 z M 157.39 344.75 Q 156.69 345.29 156.44 345.69 Q 156.19 346.09 156.19 346.69 Q 156.19 347.43 156.67 347.89 Q 157.15 348.35 157.94 348.35 Q 158.69 348.35 159.17 347.96 Q 159.65 347.56 159.65 346.94 Q 159.65 346.43 159.35 346.08 Q 159.06 345.74 158.21 345.23 z" />
      </g>
    </g>
    <clipPath id="clip26">
      <path id="path234" d="M 0.0000 0.0000 L 0.0000 370.00 L 481.00 370.00 L 481.00 0.0000 z" />
    </clipPath>
    <g id="g236" clip-path="url(#clip26)">
      <g id="g238" stroke="#000000" stroke-opacity="1.0000" fill="none" stroke-linecap="butt">
        <path id="path240" d="M 165.59 344.13 L 168.59 344.13" />
      </g>
    </g>
    <clipPath id="clip27">
      <path id="path243" d="M 0.0000 0.0000 L 0.0000 370.00 L 481.00 370.00 L 481.00 0.0000 z" />
    </clipPath>
    <g id="g245" clip-path="url(#clip27)">
      <g id="g247" fill="#000000" stroke="none" fill-rule="nonzero" fill-opacity="1.0000">
        <path id="path249" d="M 148.62 292.82 L 148.62 292.02 L 153.38 292.02 L 153.38 292.82 z M 156.06 291.51 Q 156.89 290.43 158.14 290.43 Q 159.28 290.43 160.00 291.19 Q 160.73 291.94 160.73 293.12 Q 160.73 294.47 159.92 295.34 Q 159.10 296.22 157.86 296.22 Q 156.42 296.22 155.61 295.06 Q 154.80 293.91 154.80 291.86 Q 154.80 289.60 155.73 288.35 Q 156.66 287.11 158.35 287.11 Q 159.12 287.11 160.28 287.43 L 160.28 288.44 Q 159.06 287.97 158.28 287.97 Q 156.06 287.97 156.06 291.51 z M 159.57 293.38 Q 159.57 292.39 159.12 291.83 Q 158.68 291.27 157.90 291.27 Q 157.16 291.27 156.64 291.76 Q 156.11 292.25 156.11 292.94 Q 156.11 294.03 156.61 294.69 Q 157.11 295.35 157.94 295.35 Q 158.68 295.35 159.12 294.81 Q 159.57 294.28 159.57 293.38 z" />
      </g>
    </g>
    <clipPath id="clip28">
      <path id="path252" d="M 0.0000 0.0000 L 0.0000 370.00 L 481.00 370.00 L 481.00 0.0000 z" />
    </clipPath>
    <g id="g254" clip-path="url(#clip28)">
      <g id="g256" stroke="#000000" stroke-opacity="1.0000" fill="none" stroke-linecap="butt">
        <path id="path258" d="M 165.59 291.87 L 168.59 291.87" />
      </g>
    </g>
    <clipPath id="clip29">
      <path id="path261" d="M 0.0000 0.0000 L 0.0000 370.00 L 481.00 370.00 L 481.00 0.0000 z" />
    </clipPath>
    <g id="g263" clip-path="url(#clip29)">
      <g id="g265" fill="#000000" stroke="none" fill-rule="nonzero" fill-opacity="1.0000">
        <path id="path267" d="M 148.62 240.82 L 148.62 240.02 L 153.38 240.02 L 153.38 240.82 z M 158.52 244.00 L 158.52 241.54 L 154.62 241.54 L 154.62 240.67 L 158.52 235.33 L 159.60 235.33 L 159.60 240.60 L 160.76 240.60 L 160.76 241.54 L 159.60 241.54 L 159.60 244.00 z M 155.75 240.60 L 158.59 240.60 L 158.59 236.75 z" />
      </g>
    </g>
    <clipPath id="clip30">
      <path id="path270" d="M 0.0000 0.0000 L 0.0000 370.00 L 481.00 370.00 L 481.00 0.0000 z" />
    </clipPath>
    <g id="g272" clip-path="url(#clip30)">
      <g id="g274" stroke="#000000" stroke-opacity="1.0000" fill="none" stroke-linecap="butt">
        <path id="path276" d="M 165.59 239.61 L 168.59 239.61" />
      </g>
    </g>
    <clipPath id="clip31">
      <path id="path279" d="M 0.0000 0.0000 L 0.0000 370.00 L 481.00 370.00 L 481.00 0.0000 z" />
    </clipPath>
    <g id="g281" clip-path="url(#clip31)">
      <g id="g283" fill="#000000" stroke="none" fill-rule="nonzero" fill-opacity="1.0000">
        <path id="path285" d="M 148.62 188.82 L 148.62 188.02 L 153.38 188.02 L 153.38 188.82 z M 155.00 192.00 L 155.00 190.99 Q 155.50 189.81 157.04 188.42 L 157.70 187.83 Q 158.97 186.67 158.97 185.54 Q 158.97 184.81 158.54 184.39 Q 158.10 183.98 157.34 183.98 Q 156.44 183.98 155.21 184.68 L 155.21 183.66 Q 156.37 183.11 157.50 183.11 Q 158.72 183.11 159.46 183.77 Q 160.20 184.42 160.20 185.51 Q 160.20 186.29 159.83 186.89 Q 159.46 187.49 158.44 188.36 L 158.00 188.74 Q 156.61 189.91 156.39 190.99 L 160.16 190.99 L 160.16 192.00 z" />
      </g>
    </g>
    <clipPath id="clip32">
      <path id="path288" d="M 0.0000 0.0000 L 0.0000 370.00 L 481.00 370.00 L 481.00 0.0000 z" />
    </clipPath>
    <g id="g290" clip-path="url(#clip32)">
      <g id="g292" stroke="#000000" stroke-opacity="1.0000" fill="none" stroke-linecap="butt">
        <path id="path294" d="M 165.59 187.35 L 168.59 187.35" />
      </g>
    </g>
    <clipPath id="clip33">
      <path id="path297" d="M 0.0000 0.0000 L 0.0000 370.00 L 481.00 370.00 L 481.00 0.0000 z" />
    </clipPath>
    <g id="g299" clip-path="url(#clip33)">
      <g id="g301" fill="#000000" stroke="none" fill-rule="nonzero" fill-opacity="1.0000">
        <path id="path303" d="M 157.76 133.22 Q 156.42 133.22 155.59 131.95 Q 154.76 130.69 154.76 128.66 Q 154.76 126.61 155.60 125.36 Q 156.43 124.11 157.80 124.11 Q 159.16 124.11 160.00 125.36 Q 160.83 126.61 160.83 128.64 Q 160.83 130.73 160.00 131.97 Q 159.16 133.22 157.76 133.22 z M 157.77 132.35 Q 159.61 132.35 159.61 128.62 Q 159.61 124.98 157.80 124.98 Q 155.99 124.98 155.99 128.66 Q 155.99 132.35 157.77 132.35 z" />
      </g>
    </g>
    <clipPath id="clip34">
      <path id="path306" d="M 0.0000 0.0000 L 0.0000 370.00 L 481.00 370.00 L 481.00 0.0000 z" />
    </clipPath>
    <g id="g308" clip-path="url(#clip34)">
      <g id="g310" fill="#000000" stroke="none" fill-rule="nonzero" fill-opacity="1.0000">
        <path id="path312" d="M 155.00 87.000 L 155.00 85.986 Q 155.50 84.809 157.04 83.420 L 157.70 82.828 Q 158.97 81.674 158.97 80.537 Q 158.97 79.811 158.54 79.395 Q 158.10 78.979 157.34 78.979 Q 156.44 78.979 155.21 79.676 L 155.21 78.656 Q 156.37 78.111 157.50 78.111 Q 158.72 78.111 159.46 78.768 Q 160.20 79.424 160.20 80.508 Q 160.20 81.287 159.83 81.891 Q 159.46 82.494 158.44 83.355 L 158.00 83.736 Q 156.61 84.914 156.39 85.986 L 160.16 85.986 L 160.16 87.000 z" />
      </g>
    </g>
    <clipPath id="clip35">
      <path id="path315" d="M 0.0000 0.0000 L 0.0000 370.00 L 481.00 370.00 L 481.00 0.0000 z" />
    </clipPath>
    <g id="g317" clip-path="url(#clip35)">
      <g id="g319" stroke="#000000" stroke-opacity="1.0000" fill="none" stroke-linecap="butt">
        <path id="path321" d="M 165.59 82.839 L 168.59 82.839" />
      </g>
    </g>
    <clipPath id="clip36">
      <path id="path324" d="M 0.0000 0.0000 L 0.0000 370.00 L 481.00 370.00 L 481.00 0.0000 z" />
    </clipPath>
    <g id="g326" clip-path="url(#clip36)">
      <g id="g328" fill="#000000" stroke="none" fill-rule="nonzero" fill-opacity="1.0000">
        <path id="path330" d="M 158.52 35.000 L 158.52 32.545 L 154.62 32.545 L 154.62 31.672 L 158.52 26.328 L 159.60 26.328 L 159.60 31.602 L 160.76 31.602 L 160.76 32.545 L 159.60 32.545 L 159.60 35.000 z M 155.75 31.602 L 158.59 31.602 L 158.59 27.746 z" />
      </g>
    </g>
    <clipPath id="clip37">
      <path id="path333" d="M 0.0000 0.0000 L 0.0000 370.00 L 481.00 370.00 L 481.00 0.0000 z" />
    </clipPath>
    <g id="g335" clip-path="url(#clip37)">
      <g id="g337" stroke="#000000" stroke-opacity="1.0000" fill="none" stroke-linecap="butt">
        <path id="path339" d="M 165.59 30.582 L 168.59 30.582" />
      </g>
    </g>
    <g id="misc" />
    <g id="layer0">
      <clipPath id="clip38">
        <path id="path344" d="M 0.0000 0.0000 L 0.0000 370.00 L 481.00 370.00 L 481.00 0.0000 z" />
      </clipPath>
      <g id="g346" clip-path="url(#clip38)">
        <g id="g348" fill="#00ffff" stroke="none" fill-rule="nonzero" fill-opacity=".33725">
          <path id="path350" d="M 152.69 114.37 C 146.26 119.30 142.49 126.93 142.47 135.03 L 168.59 135.10 z" />
          <title id="title352">Sector k</title>
          <desc id="desc354">Sector k: CircularSector[E, F, G]</desc>
        </g>
      </g>
      <clipPath id="clip39">
        <path id="path357" d="M 0.0000 0.0000 L 0.0000 370.00 L 481.00 370.00 L 481.00 0.0000 z" />
      </clipPath>
      <g id="g359" clip-path="url(#clip39)">
        <g id="g361" stroke="#00ffff" stroke-opacity="1.0000" fill="none" stroke-linecap="round" stroke-width="2.5000" stroke-linejoin="round">
          <path id="path363" d="M 152.69 114.37 C 146.26 119.30 142.49 126.93 142.47 135.03 L 168.59 135.10 z" />
          <title id="title365">Sector k</title>
          <desc id="desc367">Sector k: CircularSector[E, F, G]</desc>
        </g>
      </g>
      <clipPath id="clip40">
        <path id="path370" d="M 0.0000 0.0000 L 0.0000 370.00 L 481.00 370.00 L 481.00 0.0000 z" />
      </clipPath>
      <g id="g372" clip-path="url(#clip40)">
        <g id="g374" stroke="#000000" stroke-opacity="1.0000" fill="none" stroke-linecap="round" stroke-width="4.5000" stroke-linejoin="round">
          <path id="path376" d="M 152.69 114.37 C 146.26 119.30 142.49 126.93 142.47 135.03" />
          <title id="title378">Arc p</title>
          <desc id="desc380">Arc p: CircularArc[E, F, G]</desc>
        </g>
      </g>
      <clipPath id="clip41">
        <path id="path383" d="M 0.0000 0.0000 L 0.0000 370.00 L 481.00 370.00 L 481.00 0.0000 z" />
      </clipPath>
      <g id="g385" clip-path="url(#clip41)">
        <g id="g387" fill="#7f00ff" stroke="none" fill-rule="nonzero" fill-opacity=".20000">
          <path id="path389" d="M 271.54 117.08 C 263.99 73.896 230.28 40.018 187.14 32.240 L 168.59 135.10 z" />
          <title id="title391">Sector q</title>
          <desc id="desc393">Sector q: CircularSector[H, I, J]</desc>
        </g>
      </g>
      <clipPath id="clip42">
        <path id="path396" d="M 0.0000 0.0000 L 0.0000 370.00 L 481.00 370.00 L 481.00 0.0000 z" />
      </clipPath>
      <g id="g398" clip-path="url(#clip42)">
        <g id="g400" stroke="#7f00ff" stroke-opacity="1.0000" fill="none" stroke-linecap="round" stroke-width="2.5000" stroke-linejoin="round">
          <path id="path402" d="M 271.54 117.08 C 263.99 73.896 230.28 40.018 187.14 32.240 L 168.59 135.10 z" />
          <title id="title404">Sector q</title>
          <desc id="desc406">Sector q: CircularSector[H, I, J]</desc>
        </g>
      </g>
      <clipPath id="clip43">
        <path id="path409" d="M 0.0000 0.0000 L 0.0000 370.00 L 481.00 370.00 L 481.00 0.0000 z" />
      </clipPath>
      <g id="g411" clip-path="url(#clip43)">
        <g id="g413" stroke="#000000" stroke-opacity="1.0000" fill="none" stroke-linecap="round" stroke-width="4.5000" stroke-linejoin="round">
          <path id="path415" d="M 271.54 117.08 C 263.99 73.896 230.28 40.018 187.14 32.240" />
          <title id="title417">Arc r</title>
          <desc id="desc419">Arc r: CircularArc[H, I, J]</desc>
        </g>
      </g>
    </g>
    <g id="layer1">
      <clipPath id="clip44">
        <path id="path423" d="M 0.0000 0.0000 L 0.0000 370.00 L 481.00 370.00 L 481.00 0.0000 z" />
      </clipPath>
      <g id="g425" clip-path="url(#clip44)">
        <g id="g427" fill="#0000ff" stroke="none" fill-rule="nonzero" fill-opacity=".36863">
          <path id="path429" d="M 177.89 83.673 C 164.04 81.169 149.76 84.358 138.30 92.519 L 168.59 135.10 z" />
          <title id="title431">Sector g</title>
          <desc id="desc433">Sector g: CircularSector[A, B, C]</desc>
        </g>
      </g>
      <clipPath id="clip45">
        <path id="path436" d="M 0.0000 0.0000 L 0.0000 370.00 L 481.00 370.00 L 481.00 0.0000 z" />
      </clipPath>
      <g id="g438" clip-path="url(#clip45)">
        <g id="g440" stroke="#0000ff" stroke-opacity="1.0000" fill="none" stroke-linecap="round" stroke-width="2.5000" stroke-linejoin="round">
          <path id="path442" d="M 177.89 83.673 C 164.04 81.169 149.76 84.358 138.30 92.519 L 168.59 135.10 z" />
          <title id="title444">Sector g</title>
          <desc id="desc446">Sector g: CircularSector[A, B, C]</desc>
        </g>
      </g>
    </g>
    <g id="layer2">
      <clipPath id="clip46">
        <path id="path450" d="M 0.0000 0.0000 L 0.0000 370.00 L 481.00 370.00 L 481.00 0.0000 z" />
      </clipPath>
      <g id="g452" clip-path="url(#clip46)">
        <g id="g454" stroke="#000000" stroke-opacity="1.0000" fill="none" stroke-linecap="round" stroke-width="4.5000" stroke-linejoin="round">
          <path id="path456" d="M 177.89 83.673 C 164.04 81.169 149.76 84.358 138.30 92.519" />
          <title id="title458">Arc h</title>
          <desc id="desc460">Arc h: CircularArc[A, B, C]</desc>
        </g>
      </g>
      <clipPath id="clip47">
        <path id="path463" d="M 0.0000 0.0000 L 0.0000 370.00 L 481.00 370.00 L 481.00 0.0000 z" />
      </clipPath>
      <g id="g465" clip-path="url(#clip47)">
        <g id="g467" fill="#ff00ff" stroke="none" fill-rule="nonzero" fill-opacity=".29804">
          <path id="path469" d="M 109.00 334.00 C 177.74 354.59 252.23 338.24 306.02 290.75 C 359.81 243.26 385.27 171.36 373.35 100.60 L 168.59 135.10 z" />
          <title id="title471">Sector t</title>
          <desc id="desc473">Sector t: CircularSector[A, L, M]</desc>
        </g>
      </g>
      <clipPath id="clip48">
        <path id="path476" d="M 0.0000 0.0000 L 0.0000 370.00 L 481.00 370.00 L 481.00 0.0000 z" />
      </clipPath>
      <g id="g478" clip-path="url(#clip48)">
        <g id="g480" stroke="#ff00ff" stroke-opacity="1.0000" fill="none" stroke-linecap="round" stroke-width="2.5000" stroke-linejoin="round">
          <path id="path482" d="M 109.00 334.00 C 177.74 354.59 252.23 338.24 306.02 290.75 C 359.81 243.26 385.27 171.36 373.35 100.60 L 168.59 135.10 z" />
          <title id="title484">Sector t</title>
          <desc id="desc486">Sector t: CircularSector[A, L, M]</desc>
        </g>
      </g>
      <clipPath id="clip49">
        <path id="path489" d="M 0.0000 0.0000 L 0.0000 370.00 L 481.00 370.00 L 481.00 0.0000 z" />
      </clipPath>
      <g id="g491" clip-path="url(#clip49)">
        <g id="g493" stroke="#000000" stroke-opacity="1.0000" fill="none" stroke-linecap="round" stroke-width="4.5000" stroke-linejoin="round">
          <path id="path495" d="M 109.00 334.00 C 177.74 354.59 252.23 338.24 306.02 290.75 C 359.81 243.26 385.27 171.36 373.35 100.60" />
          <title id="title497">Arc c_1</title>
          <desc id="desc499">Arc c_1: CircularArc[A, L, M]</desc>
        </g>
      </g>
    </g>
  </g>
</svg>