<?xml version='1.0' ?><svg xmlns:dc="http://purl.org/dc/elements/1.1/" xmlns:cc="http://creativecommons.org/ns#" xmlns:rdf="http://www.w3.org/1999/02/22-rdf-syntax-ns#" xmlns:svg="http://www.w3.org/2000/svg" xmlns="http://www.w3.org/2000/svg" id="svg2" version="1.1" width="373.33343" height="238.01015" viewBox="0.0 0.8972802670234113 579.3535502341136 369.353543812709" preserveAspectRatio="none">
  <metadata id="metadata541">
    <rdf:RDF>
      <cc:Work rdf:about="">
        <dc:format>image/svg+xml</dc:format>
        <dc:type rdf:resource="http://purl.org/dc/dcmitype/StillImage" />
      </cc:Work>
    </rdf:RDF>
  </metadata>
  <defs id="defs539" />
  <title id="title4" />
  <g id="g6" stroke-linecap="square" stroke-miterlimit="10.000" stroke-width="1.0000" stroke-dasharray="none" stroke-dashoffset="0.0000" stroke-linejoin="miter">
    <clipPath id="clip1">
      <path id="path9" d="M 0.0000 0.0000 L 0.0000 370.00 L 580.00 370.00 L 580.00 0.0000 z" />
    </clipPath>
    <g id="g11" clip-path="url(#clip1)">
      <g id="g13" stroke="#000000" stroke-opacity="1.0000" fill="none" stroke-linecap="butt">
        <path id="path15" d="M 124.17 2.0000 L 124.17 370.00" />
      </g>
    </g>
    <clipPath id="clip2">
      <path id="path18" d="M 0.0000 0.0000 L 0.0000 370.00 L 580.00 370.00 L 580.00 0.0000 z" />
    </clipPath>
    <g id="g20" clip-path="url(#clip2)">
      <g id="g22" stroke="#000000" stroke-opacity="1.0000" fill="none" stroke-linecap="butt">
        <path id="path24" d="M 124.17 1.0000 L 120.17 5.0000" />
      </g>
    </g>
    <clipPath id="clip3">
      <path id="path27" d="M 0.0000 0.0000 L 0.0000 370.00 L 580.00 370.00 L 580.00 0.0000 z" />
    </clipPath>
    <g id="g29" clip-path="url(#clip3)">
      <g id="g31" stroke="#000000" stroke-opacity="1.0000" fill="none" stroke-linecap="butt">
        <path id="path33" d="M 124.17 1.0000 L 128.17 5.0000" />
      </g>
    </g>
    <clipPath id="clip4">
      <path id="path36" d="M 0.0000 0.0000 L 0.0000 370.00 L 580.00 370.00 L 580.00 0.0000 z" />
    </clipPath>
    <g id="g38" clip-path="url(#clip4)">
      <g id="g40" stroke="#000000" stroke-opacity="1.0000" fill="none" stroke-linecap="butt">
        <path id="path42" d="M 0.0000 304.80 L 578.00 304.80" />
      </g>
    </g>
    <clipPath id="clip5">
      <path id="path45" d="M 0.0000 0.0000 L 0.0000 370.00 L 580.00 370.00 L 580.00 0.0000 z" />
    </clipPath>
    <g id="g47" clip-path="url(#clip5)">
      <g id="g49" stroke="#000000" stroke-opacity="1.0000" fill="none" stroke-linecap="butt">
        <path id="path51" d="M 579.00 304.80 L 575.00 300.80" />
      </g>
    </g>
    <clipPath id="clip6">
      <path id="path54" d="M 0.0000 0.0000 L 0.0000 370.00 L 580.00 370.00 L 580.00 0.0000 z" />
    </clipPath>
    <g id="g56" clip-path="url(#clip6)">
      <g id="g58" stroke="#000000" stroke-opacity="1.0000" fill="none" stroke-linecap="butt">
        <path id="path60" d="M 579.00 304.80 L 575.00 308.80" />
      </g>
    </g>
    <clipPath id="clip7">
      <path id="path63" d="M 0.0000 0.0000 L 0.0000 370.00 L 580.00 370.00 L 580.00 0.0000 z" />
    </clipPath>
    <g id="g65" clip-path="url(#clip7)">
      <g id="g67" fill="#000000" stroke="none" fill-rule="nonzero" fill-opacity="1.0000">
        <path id="path69" d="M 18.615 316.82 L 18.615 316.02 L 23.385 316.02 L 23.385 316.82 z M 24.996 320.00 L 24.996 318.99 Q 25.500 317.81 27.035 316.42 L 27.697 315.83 Q 28.975 314.67 28.975 313.54 Q 28.975 312.81 28.538 312.39 Q 28.102 311.98 27.340 311.98 Q 26.438 311.98 25.213 312.68 L 25.213 311.66 Q 26.367 311.11 27.504 311.11 Q 28.723 311.11 29.461 311.77 Q 30.199 312.42 30.199 313.51 Q 30.199 314.29 29.827 314.89 Q 29.455 315.49 28.441 316.36 L 27.996 316.74 Q 26.607 317.91 26.391 318.99 L 30.158 318.99 L 30.158 320.00 z" />
      </g>
    </g>
    <clipPath id="clip8">
      <path id="path72" d="M 0.0000 0.0000 L 0.0000 370.00 L 580.00 370.00 L 580.00 0.0000 z" />
    </clipPath>
    <g id="g74" clip-path="url(#clip8)">
      <g id="g76" stroke="#000000" stroke-opacity="1.0000" fill="none" stroke-linecap="butt">
        <path id="path78" d="M 23.717 304.80 L 23.717 307.80" />
      </g>
    </g>
    <clipPath id="clip9">
      <path id="path81" d="M 0.0000 0.0000 L 0.0000 370.00 L 580.00 370.00 L 580.00 0.0000 z" />
    </clipPath>
    <g id="g83" clip-path="url(#clip9)">
      <g id="g85" fill="#000000" stroke="none" fill-rule="nonzero" fill-opacity="1.0000">
        <path id="path87" d="M 68.615 316.82 L 68.615 316.02 L 73.385 316.02 L 73.385 316.82 z M 75.805 320.00 L 75.805 319.13 L 77.539 319.13 L 77.539 312.29 L 75.805 312.72 L 75.805 311.83 L 78.699 311.11 L 78.699 319.13 L 80.434 319.13 L 80.434 320.00 z" />
      </g>
    </g>
    <clipPath id="clip10">
      <path id="path90" d="M 0.0000 0.0000 L 0.0000 370.00 L 580.00 370.00 L 580.00 0.0000 z" />
    </clipPath>
    <g id="g92" clip-path="url(#clip10)">
      <g id="g94" stroke="#000000" stroke-opacity="1.0000" fill="none" stroke-linecap="butt">
        <path id="path96" d="M 73.943 304.80 L 73.943 307.80" />
      </g>
    </g>
    <clipPath id="clip11">
      <path id="path99" d="M 0.0000 0.0000 L 0.0000 370.00 L 580.00 370.00 L 580.00 0.0000 z" />
    </clipPath>
    <g id="g101" clip-path="url(#clip11)">
      <g id="g103" fill="#000000" stroke="none" fill-rule="nonzero" fill-opacity="1.0000">
        <path id="path105" d="M 133.76 320.22 Q 132.42 320.22 131.59 318.95 Q 130.76 317.69 130.76 315.66 Q 130.76 313.61 131.60 312.36 Q 132.43 311.11 133.80 311.11 Q 135.16 311.11 136.00 312.36 Q 136.83 313.61 136.83 315.64 Q 136.83 317.73 136.00 318.97 Q 135.16 320.22 133.76 320.22 z M 133.77 319.35 Q 135.61 319.35 135.61 315.62 Q 135.61 311.98 133.80 311.98 Q 131.99 311.98 131.99 315.66 Q 131.99 319.35 133.77 319.35 z" />
      </g>
    </g>
    <clipPath id="clip12">
      <path id="path108" d="M 0.0000 0.0000 L 0.0000 370.00 L 580.00 370.00 L 580.00 0.0000 z" />
    </clipPath>
    <g id="g110" clip-path="url(#clip12)">
      <g id="g112" stroke="#000000" stroke-opacity="1.0000" fill="none" stroke-linecap="butt">
        <path id="path114" d="M 124.17 304.80 L 124.17 307.80" />
      </g>
    </g>
    <clipPath id="clip13">
      <path id="path117" d="M 0.0000 0.0000 L 0.0000 370.00 L 580.00 370.00 L 580.00 0.0000 z" />
    </clipPath>
    <g id="g119" clip-path="url(#clip13)">
      <g id="g121" fill="#000000" stroke="none" fill-rule="nonzero" fill-opacity="1.0000">
        <path id="path123" d="M 173.80 320.00 L 173.80 319.13 L 175.54 319.13 L 175.54 312.29 L 173.80 312.72 L 173.80 311.83 L 176.70 311.11 L 176.70 319.13 L 178.43 319.13 L 178.43 320.00 z" />
      </g>
    </g>
    <clipPath id="clip14">
      <path id="path126" d="M 0.0000 0.0000 L 0.0000 370.00 L 580.00 370.00 L 580.00 0.0000 z" />
    </clipPath>
    <g id="g128" clip-path="url(#clip14)">
      <g id="g130" stroke="#000000" stroke-opacity="1.0000" fill="none" stroke-linecap="butt">
        <path id="path132" d="M 174.40 304.80 L 174.40 307.80" />
      </g>
    </g>
    <clipPath id="clip15">
      <path id="path135" d="M 0.0000 0.0000 L 0.0000 370.00 L 580.00 370.00 L 580.00 0.0000 z" />
    </clipPath>
    <g id="g137" clip-path="url(#clip15)">
      <g id="g139" fill="#000000" stroke="none" fill-rule="nonzero" fill-opacity="1.0000">
        <path id="path141" d="M 223.00 320.00 L 223.00 318.99 Q 223.50 317.81 225.04 316.42 L 225.70 315.83 Q 226.97 314.67 226.97 313.54 Q 226.97 312.81 226.54 312.39 Q 226.10 311.98 225.34 311.98 Q 224.44 311.98 223.21 312.68 L 223.21 311.66 Q 224.37 311.11 225.50 311.11 Q 226.72 311.11 227.46 311.77 Q 228.20 312.42 228.20 313.51 Q 228.20 314.29 227.83 314.89 Q 227.46 315.49 226.44 316.36 L 226.00 316.74 Q 224.61 317.91 224.39 318.99 L 228.16 318.99 L 228.16 320.00 z" />
      </g>
    </g>
    <clipPath id="clip16">
      <path id="path144" d="M 0.0000 0.0000 L 0.0000 370.00 L 580.00 370.00 L 580.00 0.0000 z" />
    </clipPath>
    <g id="g146" clip-path="url(#clip16)">
      <g id="g148" stroke="#000000" stroke-opacity="1.0000" fill="none" stroke-linecap="butt">
        <path id="path150" d="M 224.62 304.80 L 224.62 307.80" />
      </g>
    </g>
    <clipPath id="clip17">
      <path id="path153" d="M 0.0000 0.0000 L 0.0000 370.00 L 580.00 370.00 L 580.00 0.0000 z" />
    </clipPath>
    <g id="g155" clip-path="url(#clip17)">
      <g id="g157" fill="#000000" stroke="none" fill-rule="nonzero" fill-opacity="1.0000">
        <path id="path159" d="M 273.22 319.94 L 273.22 318.86 Q 274.46 319.35 275.18 319.35 Q 276.00 319.35 276.52 318.87 Q 277.04 318.38 277.04 317.62 Q 277.04 315.79 274.48 315.79 L 274.02 315.79 L 274.02 315.01 L 274.43 315.00 Q 276.83 315.00 276.83 313.31 Q 276.83 311.98 275.25 311.98 Q 274.38 311.98 273.34 312.46 L 273.34 311.46 Q 274.36 311.11 275.33 311.11 Q 277.99 311.11 277.99 313.12 Q 277.99 314.65 276.18 315.30 Q 278.28 315.79 278.28 317.60 Q 278.28 318.82 277.47 319.52 Q 276.66 320.22 275.25 320.22 Q 274.44 320.22 273.22 319.94 z" />
      </g>
    </g>
    <clipPath id="clip18">
      <path id="path162" d="M 0.0000 0.0000 L 0.0000 370.00 L 580.00 370.00 L 580.00 0.0000 z" />
    </clipPath>
    <g id="g164" clip-path="url(#clip18)">
      <g id="g166" stroke="#000000" stroke-opacity="1.0000" fill="none" stroke-linecap="butt">
        <path id="path168" d="M 274.85 304.80 L 274.85 307.80" />
      </g>
    </g>
    <clipPath id="clip19">
      <path id="path171" d="M 0.0000 0.0000 L 0.0000 370.00 L 580.00 370.00 L 580.00 0.0000 z" />
    </clipPath>
    <g id="g173" clip-path="url(#clip19)">
      <g id="g175" fill="#000000" stroke="none" fill-rule="nonzero" fill-opacity="1.0000">
        <path id="path177" d="M 327.52 320.00 L 327.52 317.54 L 323.62 317.54 L 323.62 316.67 L 327.52 311.33 L 328.60 311.33 L 328.60 316.60 L 329.76 316.60 L 329.76 317.54 L 328.60 317.54 L 328.60 320.00 z M 324.75 316.60 L 327.59 316.60 L 327.59 312.75 z" />
      </g>
    </g>
    <clipPath id="clip20">
      <path id="path180" d="M 0.0000 0.0000 L 0.0000 370.00 L 580.00 370.00 L 580.00 0.0000 z" />
    </clipPath>
    <g id="g182" clip-path="url(#clip20)">
      <g id="g184" stroke="#000000" stroke-opacity="1.0000" fill="none" stroke-linecap="butt">
        <path id="path186" d="M 325.07 304.80 L 325.07 307.80" />
      </g>
    </g>
    <clipPath id="clip21">
      <path id="path189" d="M 0.0000 0.0000 L 0.0000 370.00 L 580.00 370.00 L 580.00 0.0000 z" />
    </clipPath>
    <g id="g191" clip-path="url(#clip21)">
      <g id="g193" fill="#000000" stroke="none" fill-rule="nonzero" fill-opacity="1.0000">
        <path id="path195" d="M 374.46 320.04 L 374.46 319.00 Q 375.32 319.35 376.10 319.35 Q 376.96 319.35 377.44 318.85 Q 377.93 318.34 377.93 317.46 Q 377.93 315.51 375.24 315.51 Q 374.94 315.51 374.61 315.55 L 374.61 311.33 L 378.99 311.33 L 378.99 312.34 L 375.62 312.34 L 375.62 314.62 Q 377.29 314.62 378.23 315.39 Q 379.16 316.16 379.16 317.52 Q 379.16 318.78 378.31 319.50 Q 377.46 320.22 375.95 320.22 Q 375.29 320.22 374.46 320.04 z" />
      </g>
    </g>
    <clipPath id="clip22">
      <path id="path198" d="M 0.0000 0.0000 L 0.0000 370.00 L 580.00 370.00 L 580.00 0.0000 z" />
    </clipPath>
    <g id="g200" clip-path="url(#clip22)">
      <g id="g202" stroke="#000000" stroke-opacity="1.0000" fill="none" stroke-linecap="butt">
        <path id="path204" d="M 375.30 304.80 L 375.30 307.80" />
      </g>
    </g>
    <clipPath id="clip23">
      <path id="path207" d="M 0.0000 0.0000 L 0.0000 370.00 L 580.00 370.00 L 580.00 0.0000 z" />
    </clipPath>
    <g id="g209" clip-path="url(#clip23)">
      <g id="g211" fill="#000000" stroke="none" fill-rule="nonzero" fill-opacity="1.0000">
        <path id="path213" d="M 425.06 315.51 Q 425.89 314.43 427.14 314.43 Q 428.28 314.43 429.00 315.19 Q 429.73 315.94 429.73 317.12 Q 429.73 318.47 428.92 319.34 Q 428.10 320.22 426.86 320.22 Q 425.42 320.22 424.61 319.06 Q 423.80 317.91 423.80 315.86 Q 423.80 313.60 424.73 312.35 Q 425.66 311.11 427.35 311.11 Q 428.12 311.11 429.28 311.43 L 429.28 312.44 Q 428.06 311.97 427.28 311.97 Q 425.06 311.97 425.06 315.51 z M 428.57 317.38 Q 428.57 316.39 428.12 315.83 Q 427.68 315.27 426.90 315.27 Q 426.16 315.27 425.64 315.76 Q 425.11 316.25 425.11 316.94 Q 425.11 318.03 425.61 318.69 Q 426.11 319.35 426.94 319.35 Q 427.68 319.35 428.12 318.81 Q 428.57 318.28 428.57 317.38 z" />
      </g>
    </g>
    <clipPath id="clip24">
      <path id="path216" d="M 0.0000 0.0000 L 0.0000 370.00 L 580.00 370.00 L 580.00 0.0000 z" />
    </clipPath>
    <g id="g218" clip-path="url(#clip24)">
      <g id="g220" stroke="#000000" stroke-opacity="1.0000" fill="none" stroke-linecap="butt">
        <path id="path222" d="M 425.53 304.80 L 425.53 307.80" />
      </g>
    </g>
    <clipPath id="clip25">
      <path id="path225" d="M 0.0000 0.0000 L 0.0000 370.00 L 580.00 370.00 L 580.00 0.0000 z" />
    </clipPath>
    <g id="g227" clip-path="url(#clip25)">
      <g id="g229" fill="#000000" stroke="none" fill-rule="nonzero" fill-opacity="1.0000">
        <path id="path231" d="M 474.80 320.00 Q 474.97 318.99 475.29 318.25 Q 475.60 317.51 476.40 316.22 L 478.77 312.41 L 474.30 312.41 L 474.30 311.33 L 479.87 311.33 L 479.87 312.41 Q 476.53 317.33 476.13 320.00 z" />
      </g>
    </g>
    <clipPath id="clip26">
      <path id="path234" d="M 0.0000 0.0000 L 0.0000 370.00 L 580.00 370.00 L 580.00 0.0000 z" />
    </clipPath>
    <g id="g236" clip-path="url(#clip26)">
      <g id="g238" stroke="#000000" stroke-opacity="1.0000" fill="none" stroke-linecap="butt">
        <path id="path240" d="M 475.75 304.80 L 475.75 307.80" />
      </g>
    </g>
    <clipPath id="clip27">
      <path id="path243" d="M 0.0000 0.0000 L 0.0000 370.00 L 580.00 370.00 L 580.00 0.0000 z" />
    </clipPath>
    <g id="g245" clip-path="url(#clip27)">
      <g id="g247" fill="#000000" stroke="none" fill-rule="nonzero" fill-opacity="1.0000">
        <path id="path249" d="M 525.76 315.28 Q 524.49 314.39 524.49 313.32 Q 524.49 312.34 525.21 311.72 Q 525.93 311.11 527.09 311.11 Q 528.16 311.11 528.83 311.63 Q 529.49 312.15 529.49 312.98 Q 529.49 314.24 527.88 315.28 Q 529.84 316.24 529.84 317.76 Q 529.84 318.85 529.01 319.53 Q 528.19 320.22 526.89 320.22 Q 525.61 320.22 524.83 319.57 Q 524.04 318.92 524.04 317.87 Q 524.04 316.31 525.76 315.28 z M 527.23 314.91 Q 528.44 314.12 528.44 313.14 Q 528.44 312.62 528.04 312.30 Q 527.63 311.98 526.97 311.98 Q 526.33 311.98 525.94 312.29 Q 525.54 312.61 525.54 313.10 Q 525.54 313.59 525.90 313.97 Q 526.26 314.36 527.23 314.91 z M 526.39 315.75 Q 525.69 316.29 525.44 316.69 Q 525.19 317.09 525.19 317.69 Q 525.19 318.43 525.67 318.89 Q 526.15 319.35 526.94 319.35 Q 527.69 319.35 528.17 318.96 Q 528.65 318.56 528.65 317.94 Q 528.65 317.43 528.35 317.08 Q 528.06 316.74 527.21 316.23 z" />
      </g>
    </g>
    <clipPath id="clip28">
      <path id="path252" d="M 0.0000 0.0000 L 0.0000 370.00 L 580.00 370.00 L 580.00 0.0000 z" />
    </clipPath>
    <g id="g254" clip-path="url(#clip28)">
      <g id="g256" stroke="#000000" stroke-opacity="1.0000" fill="none" stroke-linecap="butt">
        <path id="path258" d="M 525.98 304.80 L 525.98 307.80" />
      </g>
    </g>
    <clipPath id="clip29">
      <path id="path261" d="M 0.0000 0.0000 L 0.0000 370.00 L 580.00 370.00 L 580.00 0.0000 z" />
    </clipPath>
    <g id="g263" clip-path="url(#clip29)">
      <g id="g265" fill="#000000" stroke="none" fill-rule="nonzero" fill-opacity="1.0000">
        <path id="path267" d="M 103.62 356.82 L 103.62 356.02 L 108.38 356.02 L 108.38 356.82 z M 110.80 360.00 L 110.80 359.13 L 112.54 359.13 L 112.54 352.29 L 110.80 352.72 L 110.80 351.83 L 113.70 351.11 L 113.70 359.13 L 115.43 359.13 L 115.43 360.00 z" />
      </g>
    </g>
    <clipPath id="clip30">
      <path id="path270" d="M 0.0000 0.0000 L 0.0000 370.00 L 580.00 370.00 L 580.00 0.0000 z" />
    </clipPath>
    <g id="g272" clip-path="url(#clip30)">
      <g id="g274" stroke="#000000" stroke-opacity="1.0000" fill="none" stroke-linecap="butt">
        <path id="path276" d="M 121.17 355.03 L 124.17 355.03" />
      </g>
    </g>
    <clipPath id="clip31">
      <path id="path279" d="M 0.0000 0.0000 L 0.0000 370.00 L 580.00 370.00 L 580.00 0.0000 z" />
    </clipPath>
    <g id="g281" clip-path="url(#clip31)">
      <g id="g283" fill="#000000" stroke="none" fill-rule="nonzero" fill-opacity="1.0000">
        <path id="path285" d="M 112.76 302.22 Q 111.42 302.22 110.59 300.95 Q 109.76 299.69 109.76 297.66 Q 109.76 295.61 110.60 294.36 Q 111.43 293.11 112.80 293.11 Q 114.16 293.11 115.00 294.36 Q 115.83 295.61 115.83 297.64 Q 115.83 299.73 115.00 300.97 Q 114.16 302.22 112.76 302.22 z M 112.77 301.35 Q 114.61 301.35 114.61 297.62 Q 114.61 293.98 112.80 293.98 Q 110.99 293.98 110.99 297.66 Q 110.99 301.35 112.77 301.35 z" />
      </g>
    </g>
    <clipPath id="clip32">
      <path id="path288" d="M 0.0000 0.0000 L 0.0000 370.00 L 580.00 370.00 L 580.00 0.0000 z" />
    </clipPath>
    <g id="g290" clip-path="url(#clip32)">
      <g id="g292" fill="#000000" stroke="none" fill-rule="nonzero" fill-opacity="1.0000">
        <path id="path294" d="M 110.80 259.00 L 110.80 258.13 L 112.54 258.13 L 112.54 251.29 L 110.80 251.72 L 110.80 250.83 L 113.70 250.11 L 113.70 258.13 L 115.43 258.13 L 115.43 259.00 z" />
      </g>
    </g>
    <clipPath id="clip33">
      <path id="path297" d="M 0.0000 0.0000 L 0.0000 370.00 L 580.00 370.00 L 580.00 0.0000 z" />
    </clipPath>
    <g id="g299" clip-path="url(#clip33)">
      <g id="g301" stroke="#000000" stroke-opacity="1.0000" fill="none" stroke-linecap="butt">
        <path id="path303" d="M 121.17 254.57 L 124.17 254.57" />
      </g>
    </g>
    <clipPath id="clip34">
      <path id="path306" d="M 0.0000 0.0000 L 0.0000 370.00 L 580.00 370.00 L 580.00 0.0000 z" />
    </clipPath>
    <g id="g308" clip-path="url(#clip34)">
      <g id="g310" fill="#000000" stroke="none" fill-rule="nonzero" fill-opacity="1.0000">
        <path id="path312" d="M 110.00 209.00 L 110.00 207.99 Q 110.50 206.81 112.04 205.42 L 112.70 204.83 Q 113.97 203.67 113.97 202.54 Q 113.97 201.81 113.54 201.39 Q 113.10 200.98 112.34 200.98 Q 111.44 200.98 110.21 201.68 L 110.21 200.66 Q 111.37 200.11 112.50 200.11 Q 113.72 200.11 114.46 200.77 Q 115.20 201.42 115.20 202.51 Q 115.20 203.29 114.83 203.89 Q 114.46 204.49 113.44 205.36 L 113.00 205.74 Q 111.61 206.91 111.39 207.99 L 115.16 207.99 L 115.16 209.00 z" />
      </g>
    </g>
    <clipPath id="clip35">
      <path id="path315" d="M 0.0000 0.0000 L 0.0000 370.00 L 580.00 370.00 L 580.00 0.0000 z" />
    </clipPath>
    <g id="g317" clip-path="url(#clip35)">
      <g id="g319" stroke="#000000" stroke-opacity="1.0000" fill="none" stroke-linecap="butt">
        <path id="path321" d="M 121.17 204.35 L 124.17 204.35" />
      </g>
    </g>
    <clipPath id="clip36">
      <path id="path324" d="M 0.0000 0.0000 L 0.0000 370.00 L 580.00 370.00 L 580.00 0.0000 z" />
    </clipPath>
    <g id="g326" clip-path="url(#clip36)">
      <g id="g328" fill="#000000" stroke="none" fill-rule="nonzero" fill-opacity="1.0000">
        <path id="path330" d="M 110.22 158.94 L 110.22 157.86 Q 111.46 158.35 112.18 158.35 Q 113.00 158.35 113.52 157.87 Q 114.04 157.38 114.04 156.62 Q 114.04 154.79 111.48 154.79 L 111.02 154.79 L 111.02 154.01 L 111.43 154.00 Q 113.83 154.00 113.83 152.31 Q 113.83 150.98 112.25 150.98 Q 111.38 150.98 110.34 151.46 L 110.34 150.46 Q 111.36 150.11 112.33 150.11 Q 114.99 150.11 114.99 152.12 Q 114.99 153.65 113.18 154.30 Q 115.28 154.79 115.28 156.60 Q 115.28 157.82 114.47 158.52 Q 113.66 159.22 112.25 159.22 Q 111.44 159.22 110.22 158.94 z" />
      </g>
    </g>
    <clipPath id="clip37">
      <path id="path333" d="M 0.0000 0.0000 L 0.0000 370.00 L 580.00 370.00 L 580.00 0.0000 z" />
    </clipPath>
    <g id="g335" clip-path="url(#clip37)">
      <g id="g337" stroke="#000000" stroke-opacity="1.0000" fill="none" stroke-linecap="butt">
        <path id="path339" d="M 121.17 154.12 L 124.17 154.12" />
      </g>
    </g>
    <clipPath id="clip38">
      <path id="path342" d="M 0.0000 0.0000 L 0.0000 370.00 L 580.00 370.00 L 580.00 0.0000 z" />
    </clipPath>
    <g id="g344" clip-path="url(#clip38)">
      <g id="g346" fill="#000000" stroke="none" fill-rule="nonzero" fill-opacity="1.0000">
        <path id="path348" d="M 113.52 108.00 L 113.52 105.54 L 109.62 105.54 L 109.62 104.67 L 113.52 99.328 L 114.60 99.328 L 114.60 104.60 L 115.76 104.60 L 115.76 105.54 L 114.60 105.54 L 114.60 108.00 z M 110.75 104.60 L 113.59 104.60 L 113.59 100.75 z" />
      </g>
    </g>
    <clipPath id="clip39">
      <path id="path351" d="M 0.0000 0.0000 L 0.0000 370.00 L 580.00 370.00 L 580.00 0.0000 z" />
    </clipPath>
    <g id="g353" clip-path="url(#clip39)">
      <g id="g355" stroke="#000000" stroke-opacity="1.0000" fill="none" stroke-linecap="butt">
        <path id="path357" d="M 121.17 103.90 L 124.17 103.90" />
      </g>
    </g>
    <clipPath id="clip40">
      <path id="path360" d="M 0.0000 0.0000 L 0.0000 370.00 L 580.00 370.00 L 580.00 0.0000 z" />
    </clipPath>
    <g id="g362" clip-path="url(#clip40)">
      <g id="g364" fill="#000000" stroke="none" fill-rule="nonzero" fill-opacity="1.0000">
        <path id="path366" d="M 110.46 58.035 L 110.46 57.004 Q 111.32 57.350 112.10 57.350 Q 112.96 57.350 113.44 56.846 Q 113.93 56.342 113.93 55.457 Q 113.93 53.506 111.24 53.506 Q 110.94 53.506 110.61 53.547 L 110.61 49.328 L 114.99 49.328 L 114.99 50.336 L 111.62 50.336 L 111.62 52.621 Q 113.29 52.621 114.23 53.389 Q 115.16 54.156 115.16 55.516 Q 115.16 56.781 114.31 57.499 Q 113.46 58.217 111.95 58.217 Q 111.29 58.217 110.46 58.035 z" />
      </g>
    </g>
    <clipPath id="clip41">
      <path id="path369" d="M 0.0000 0.0000 L 0.0000 370.00 L 580.00 370.00 L 580.00 0.0000 z" />
    </clipPath>
    <g id="g371" clip-path="url(#clip41)">
      <g id="g373" stroke="#000000" stroke-opacity="1.0000" fill="none" stroke-linecap="butt">
        <path id="path375" d="M 121.17 53.670 L 124.17 53.670" />
      </g>
    </g>
    <g id="misc" />
    <g id="layer0">
      <clipPath id="clip42">
        <path id="path380" d="M 0.0000 0.0000 L 0.0000 370.00 L 580.00 370.00 L 580.00 0.0000 z" />
      </clipPath>
      <g id="g382" clip-path="url(#clip42)">
        <g id="g384" fill="#00ffff" stroke="none" fill-rule="nonzero" fill-opacity=".33725">
          <path id="path386" d="M 87.226 270.77 C 78.685 280.05 73.943 292.19 73.943 304.80 L 124.17 304.80 z" />
          <title id="title388">Sector k</title>
          <desc id="desc390">Sector k: CircularSector[E, F, G]</desc>
        </g>
      </g>
      <clipPath id="clip43">
        <path id="path393" d="M 0.0000 0.0000 L 0.0000 370.00 L 580.00 370.00 L 580.00 0.0000 z" />
      </clipPath>
      <g id="g395" clip-path="url(#clip43)">
        <g id="g397" stroke="#00ffff" stroke-opacity="1.0000" fill="none" stroke-linecap="round" stroke-width="2.5000" stroke-linejoin="round">
          <path id="path399" d="M 87.226 270.77 C 78.685 280.05 73.943 292.19 73.943 304.80 L 124.17 304.80 z" />
          <title id="title401">Sector k</title>
          <desc id="desc403">Sector k: CircularSector[E, F, G]</desc>
        </g>
      </g>
      <clipPath id="clip44">
        <path id="path406" d="M 0.0000 0.0000 L 0.0000 370.00 L 580.00 370.00 L 580.00 0.0000 z" />
      </clipPath>
      <g id="g408" clip-path="url(#clip44)">
        <g id="g410" stroke="#000000" stroke-opacity="1.0000" fill="none" stroke-linecap="round" stroke-width="4.5000" stroke-linejoin="round">
          <path id="path412" d="M 87.226 270.77 C 78.685 280.05 73.943 292.19 73.943 304.80" />
          <title id="title414">Arc p</title>
          <desc id="desc416">Arc p: CircularArc[E, F, G]</desc>
        </g>
      </g>
      <clipPath id="clip45">
        <path id="path419" d="M 0.0000 0.0000 L 0.0000 370.00 L 580.00 370.00 L 580.00 0.0000 z" />
      </clipPath>
      <g id="g421" clip-path="url(#clip45)">
        <g id="g423" fill="#7f00ff" stroke="none" fill-rule="nonzero" fill-opacity=".20000">
          <path id="path425" d="M 266.23 162.74 C 228.55 125.06 177.45 103.90 124.17 103.90 L 124.17 304.80 z" />
          <title id="title427">Sector q</title>
          <desc id="desc429">Sector q: CircularSector[H, I, J]</desc>
        </g>
      </g>
      <clipPath id="clip46">
        <path id="path432" d="M 0.0000 0.0000 L 0.0000 370.00 L 580.00 370.00 L 580.00 0.0000 z" />
      </clipPath>
      <g id="g434" clip-path="url(#clip46)">
        <g id="g436" stroke="#7f00ff" stroke-opacity="1.0000" fill="none" stroke-linecap="round" stroke-width="2.5000" stroke-linejoin="round">
          <path id="path438" d="M 266.23 162.74 C 228.55 125.06 177.45 103.90 124.17 103.90 L 124.17 304.80 z" />
          <title id="title440">Sector q</title>
          <desc id="desc442">Sector q: CircularSector[H, I, J]</desc>
        </g>
      </g>
      <clipPath id="clip47">
        <path id="path445" d="M 0.0000 0.0000 L 0.0000 370.00 L 580.00 370.00 L 580.00 0.0000 z" />
      </clipPath>
      <g id="g447" clip-path="url(#clip47)">
        <g id="g449" stroke="#000000" stroke-opacity="1.0000" fill="none" stroke-linecap="round" stroke-width="4.5000" stroke-linejoin="round">
          <path id="path451" d="M 266.23 162.74 C 228.55 125.06 177.45 103.90 124.17 103.90" />
          <title id="title453">Arc r</title>
          <desc id="desc455">Arc r: CircularArc[H, I, J]</desc>
        </g>
      </g>
      <clipPath id="clip48">
        <path id="path458" d="M 0.0000 0.0000 L 0.0000 370.00 L 580.00 370.00 L 580.00 0.0000 z" />
      </clipPath>
      <g id="g460" clip-path="url(#clip48)">
        <g id="g462" fill="#ff00ff" stroke="none" fill-rule="nonzero" fill-opacity=".33725">
          <path id="path464" d="M 525.98 304.80 C 525.98 198.49 483.84 96.508 408.81 21.197 L 124.17 304.80 z" />
          <title id="title466">Sector t</title>
          <desc id="desc468">Sector t: CircularSector[H, D, K]</desc>
        </g>
      </g>
      <clipPath id="clip49">
        <path id="path471" d="M 0.0000 0.0000 L 0.0000 370.00 L 580.00 370.00 L 580.00 0.0000 z" />
      </clipPath>
      <g id="g473" clip-path="url(#clip49)">
        <g id="g475" stroke="#ff00ff" stroke-opacity="1.0000" fill="none" stroke-linecap="round" stroke-width="2.5000" stroke-linejoin="round">
          <path id="path477" d="M 525.98 304.80 C 525.98 198.49 483.84 96.508 408.81 21.197 L 124.17 304.80 z" />
          <title id="title479">Sector t</title>
          <desc id="desc481">Sector t: CircularSector[H, D, K]</desc>
        </g>
      </g>
      <clipPath id="clip50">
        <path id="path484" d="M 0.0000 0.0000 L 0.0000 370.00 L 580.00 370.00 L 580.00 0.0000 z" />
      </clipPath>
      <g id="g486" clip-path="url(#clip50)">
        <g id="g488" stroke="#000000" stroke-opacity="1.0000" fill="none" stroke-linecap="round" stroke-width="4.5000" stroke-linejoin="round">
          <path id="path490" d="M 525.98 304.80 C 525.98 198.49 483.84 96.508 408.81 21.197" />
          <title id="title492">Arc c_1</title>
          <desc id="desc494">Arc c_1: CircularArc[H, D, K]</desc>
        </g>
      </g>
    </g>
    <g id="layer1">
      <clipPath id="clip51">
        <path id="path498" d="M 0.0000 0.0000 L 0.0000 370.00 L 580.00 370.00 L 580.00 0.0000 z" />
      </clipPath>
      <g id="g500" clip-path="url(#clip51)">
        <g id="g502" fill="#0000ff" stroke="none" fill-rule="nonzero" fill-opacity=".36863">
          <path id="path504" d="M 124.17 204.35 C 96.149 204.35 69.403 216.05 50.388 236.63 L 124.17 304.80 z" />
          <title id="title506">Sector g</title>
          <desc id="desc508">Sector g: CircularSector[A, B, C]</desc>
        </g>
      </g>
      <clipPath id="clip52">
        <path id="path511" d="M 0.0000 0.0000 L 0.0000 370.00 L 580.00 370.00 L 580.00 0.0000 z" />
      </clipPath>
      <g id="g513" clip-path="url(#clip52)">
        <g id="g515" stroke="#0000ff" stroke-opacity="1.0000" fill="none" stroke-linecap="round" stroke-width="2.5000" stroke-linejoin="round">
          <path id="path517" d="M 124.17 204.35 C 96.149 204.35 69.403 216.05 50.388 236.63 L 124.17 304.80 z" />
          <title id="title519">Sector g</title>
          <desc id="desc521">Sector g: CircularSector[A, B, C]</desc>
        </g>
      </g>
    </g>
    <g id="layer2">
      <clipPath id="clip53">
        <path id="path525" d="M 0.0000 0.0000 L 0.0000 370.00 L 580.00 370.00 L 580.00 0.0000 z" />
      </clipPath>
      <g id="g527" clip-path="url(#clip53)">
        <g id="g529" stroke="#000000" stroke-opacity="1.0000" fill="none" stroke-linecap="round" stroke-width="4.5000" stroke-linejoin="round">
          <path id="path531" d="M 124.17 204.35 C 96.149 204.35 69.403 216.05 50.388 236.63" />
          <title id="title533">Arc h</title>
          <desc id="desc535">Arc h: CircularArc[A, B, C]</desc>
        </g>
      </g>
    </g>
  </g>
</svg>