<?xml version='1.0' ?><svg xmlns:dc="http://purl.org/dc/elements/1.1/" xmlns:cc="http://creativecommons.org/ns#" xmlns:rdf="http://www.w3.org/1999/02/22-rdf-syntax-ns#" xmlns:svg="http://www.w3.org/2000/svg" xmlns="http://www.w3.org/2000/svg" id="svg2" version="1.1" width="373.24769" height="286.99769" viewBox="0.0 0.6464466003478261 480.35354886956515 369.35354886956515" preserveAspectRatio="none">
  <metadata id="metadata496">
    <rdf:RDF>
      <cc:Work rdf:about="">
        <dc:format>image/svg+xml</dc:format>
        <dc:type rdf:resource="http://purl.org/dc/dcmitype/StillImage" />
      </cc:Work>
    </rdf:RDF>
  </metadata>
  <defs id="defs494" />
  <title id="title4" />
  <g id="g6" stroke-linecap="square" stroke-miterlimit="10.000" stroke-width="1.0000" stroke-dasharray="none" stroke-dashoffset="0.0000" stroke-linejoin="miter">
    <clipPath id="clip1">
      <path id="path9" d="M 0.0000 0.0000 L 0.0000 370.00 L 481.00 370.00 L 481.00 0.0000 z" />
    </clipPath>
    <g id="g11" clip-path="url(#clip1)">
      <g id="g13" stroke="#000000" stroke-opacity="1.0000" fill="none" stroke-linecap="butt">
        <path id="path15" d="M 170.59 2.0000 L 170.59 370.00" />
      </g>
    </g>
    <clipPath id="clip2">
      <path id="path18" d="M 0.0000 0.0000 L 0.0000 370.00 L 481.00 370.00 L 481.00 0.0000 z" />
    </clipPath>
    <g id="g20" clip-path="url(#clip2)">
      <g id="g22" stroke="#000000" stroke-opacity="1.0000" fill="none" stroke-linecap="butt">
        <path id="path24" d="M 170.59 1.0000 L 166.59 5.0000" />
      </g>
    </g>
    <clipPath id="clip3">
      <path id="path27" d="M 0.0000 0.0000 L 0.0000 370.00 L 481.00 370.00 L 481.00 0.0000 z" />
    </clipPath>
    <g id="g29" clip-path="url(#clip3)">
      <g id="g31" stroke="#000000" stroke-opacity="1.0000" fill="none" stroke-linecap="butt">
        <path id="path33" d="M 170.59 1.0000 L 174.59 5.0000" />
      </g>
    </g>
    <clipPath id="clip4">
      <path id="path36" d="M 0.0000 0.0000 L 0.0000 370.00 L 481.00 370.00 L 481.00 0.0000 z" />
    </clipPath>
    <g id="g38" clip-path="url(#clip4)">
      <g id="g40" stroke="#000000" stroke-opacity="1.0000" fill="none" stroke-linecap="butt">
        <path id="path42" d="M 0.0000 153.10 L 479.00 153.10" />
      </g>
    </g>
    <clipPath id="clip5">
      <path id="path45" d="M 0.0000 0.0000 L 0.0000 370.00 L 481.00 370.00 L 481.00 0.0000 z" />
    </clipPath>
    <g id="g47" clip-path="url(#clip5)">
      <g id="g49" stroke="#000000" stroke-opacity="1.0000" fill="none" stroke-linecap="butt">
        <path id="path51" d="M 480.00 153.10 L 476.00 149.10" />
      </g>
    </g>
    <clipPath id="clip6">
      <path id="path54" d="M 0.0000 0.0000 L 0.0000 370.00 L 481.00 370.00 L 481.00 0.0000 z" />
    </clipPath>
    <g id="g56" clip-path="url(#clip6)">
      <g id="g58" stroke="#000000" stroke-opacity="1.0000" fill="none" stroke-linecap="butt">
        <path id="path60" d="M 480.00 153.10 L 476.00 157.10" />
      </g>
    </g>
    <clipPath id="clip7">
      <path id="path63" d="M 0.0000 0.0000 L 0.0000 370.00 L 481.00 370.00 L 481.00 0.0000 z" />
    </clipPath>
    <g id="g65" clip-path="url(#clip7)">
      <g id="g67" fill="#000000" stroke="none" fill-rule="nonzero" fill-opacity="1.0000">
        <path id="path69" d="M 8.6152 165.82 L 8.6152 165.02 L 13.385 165.02 L 13.385 165.82 z M 16.062 164.51 Q 16.889 163.43 18.143 163.43 Q 19.279 163.43 20.003 164.19 Q 20.727 164.94 20.727 166.12 Q 20.727 167.47 19.915 168.34 Q 19.104 169.22 17.855 169.22 Q 16.420 169.22 15.611 168.06 Q 14.803 166.91 14.803 164.86 Q 14.803 162.60 15.731 161.35 Q 16.660 160.11 18.348 160.11 Q 19.121 160.11 20.281 160.43 L 20.281 161.44 Q 19.057 160.97 18.277 160.97 Q 16.062 160.97 16.062 164.51 z M 19.566 166.38 Q 19.566 165.39 19.124 164.83 Q 18.682 164.27 17.896 164.27 Q 17.164 164.27 16.637 164.76 Q 16.109 165.25 16.109 165.94 Q 16.109 167.03 16.610 167.69 Q 17.111 168.35 17.938 168.35 Q 18.682 168.35 19.124 167.81 Q 19.566 167.28 19.566 166.38 z" />
      </g>
    </g>
    <clipPath id="clip8">
      <path id="path72" d="M 0.0000 0.0000 L 0.0000 370.00 L 481.00 370.00 L 481.00 0.0000 z" />
    </clipPath>
    <g id="g74" clip-path="url(#clip8)">
      <g id="g76" stroke="#000000" stroke-opacity="1.0000" fill="none" stroke-linecap="butt">
        <path id="path78" d="M 13.821 153.10 L 13.821 156.10" />
      </g>
    </g>
    <clipPath id="clip9">
      <path id="path81" d="M 0.0000 0.0000 L 0.0000 370.00 L 481.00 370.00 L 481.00 0.0000 z" />
    </clipPath>
    <g id="g83" clip-path="url(#clip9)">
      <g id="g85" fill="#000000" stroke="none" fill-rule="nonzero" fill-opacity="1.0000">
        <path id="path87" d="M 61.615 165.82 L 61.615 165.02 L 66.385 165.02 L 66.385 165.82 z M 71.518 169.00 L 71.518 166.54 L 67.615 166.54 L 67.615 165.67 L 71.518 160.33 L 72.602 160.33 L 72.602 165.60 L 73.762 165.60 L 73.762 166.54 L 72.602 166.54 L 72.602 169.00 z M 68.746 165.60 L 71.594 165.60 L 71.594 161.75 z" />
      </g>
    </g>
    <clipPath id="clip10">
      <path id="path90" d="M 0.0000 0.0000 L 0.0000 370.00 L 481.00 370.00 L 481.00 0.0000 z" />
    </clipPath>
    <g id="g92" clip-path="url(#clip10)">
      <g id="g94" stroke="#000000" stroke-opacity="1.0000" fill="none" stroke-linecap="butt">
        <path id="path96" d="M 66.079 153.10 L 66.079 156.10" />
      </g>
    </g>
    <clipPath id="clip11">
      <path id="path99" d="M 0.0000 0.0000 L 0.0000 370.00 L 481.00 370.00 L 481.00 0.0000 z" />
    </clipPath>
    <g id="g101" clip-path="url(#clip11)">
      <g id="g103" fill="#000000" stroke="none" fill-rule="nonzero" fill-opacity="1.0000">
        <path id="path105" d="M 113.62 165.82 L 113.62 165.02 L 118.38 165.02 L 118.38 165.82 z M 120.00 169.00 L 120.00 167.99 Q 120.50 166.81 122.04 165.42 L 122.70 164.83 Q 123.97 163.67 123.97 162.54 Q 123.97 161.81 123.54 161.39 Q 123.10 160.98 122.34 160.98 Q 121.44 160.98 120.21 161.68 L 120.21 160.66 Q 121.37 160.11 122.50 160.11 Q 123.72 160.11 124.46 160.77 Q 125.20 161.42 125.20 162.51 Q 125.20 163.29 124.83 163.89 Q 124.46 164.49 123.44 165.36 L 123.00 165.74 Q 121.61 166.91 121.39 167.99 L 125.16 167.99 L 125.16 169.00 z" />
      </g>
    </g>
    <clipPath id="clip12">
      <path id="path108" d="M 0.0000 0.0000 L 0.0000 370.00 L 481.00 370.00 L 481.00 0.0000 z" />
    </clipPath>
    <g id="g110" clip-path="url(#clip12)">
      <g id="g112" stroke="#000000" stroke-opacity="1.0000" fill="none" stroke-linecap="butt">
        <path id="path114" d="M 118.34 153.10 L 118.34 156.10" />
      </g>
    </g>
    <clipPath id="clip13">
      <path id="path117" d="M 0.0000 0.0000 L 0.0000 370.00 L 481.00 370.00 L 481.00 0.0000 z" />
    </clipPath>
    <g id="g119" clip-path="url(#clip13)">
      <g id="g121" fill="#000000" stroke="none" fill-rule="nonzero" fill-opacity="1.0000">
        <path id="path123" d="M 179.76 169.22 Q 178.42 169.22 177.59 167.95 Q 176.76 166.69 176.76 164.66 Q 176.76 162.61 177.60 161.36 Q 178.43 160.11 179.80 160.11 Q 181.16 160.11 182.00 161.36 Q 182.83 162.61 182.83 164.64 Q 182.83 166.73 182.00 167.97 Q 181.16 169.22 179.76 169.22 z M 179.77 168.35 Q 181.61 168.35 181.61 164.62 Q 181.61 160.98 179.80 160.98 Q 177.99 160.98 177.99 164.66 Q 177.99 168.35 179.77 168.35 z" />
      </g>
    </g>
    <clipPath id="clip14">
      <path id="path126" d="M 0.0000 0.0000 L 0.0000 370.00 L 481.00 370.00 L 481.00 0.0000 z" />
    </clipPath>
    <g id="g128" clip-path="url(#clip14)">
      <g id="g130" stroke="#000000" stroke-opacity="1.0000" fill="none" stroke-linecap="butt">
        <path id="path132" d="M 170.59 153.10 L 170.59 156.10" />
      </g>
    </g>
    <clipPath id="clip15">
      <path id="path135" d="M 0.0000 0.0000 L 0.0000 370.00 L 481.00 370.00 L 481.00 0.0000 z" />
    </clipPath>
    <g id="g137" clip-path="url(#clip15)">
      <g id="g139" fill="#000000" stroke="none" fill-rule="nonzero" fill-opacity="1.0000">
        <path id="path141" d="M 221.00 169.00 L 221.00 167.99 Q 221.50 166.81 223.04 165.42 L 223.70 164.83 Q 224.97 163.67 224.97 162.54 Q 224.97 161.81 224.54 161.39 Q 224.10 160.98 223.34 160.98 Q 222.44 160.98 221.21 161.68 L 221.21 160.66 Q 222.37 160.11 223.50 160.11 Q 224.72 160.11 225.46 160.77 Q 226.20 161.42 226.20 162.51 Q 226.20 163.29 225.83 163.89 Q 225.46 164.49 224.44 165.36 L 224.00 165.74 Q 222.61 166.91 222.39 167.99 L 226.16 167.99 L 226.16 169.00 z" />
      </g>
    </g>
    <clipPath id="clip16">
      <path id="path144" d="M 0.0000 0.0000 L 0.0000 370.00 L 481.00 370.00 L 481.00 0.0000 z" />
    </clipPath>
    <g id="g146" clip-path="url(#clip16)">
      <g id="g148" stroke="#000000" stroke-opacity="1.0000" fill="none" stroke-linecap="butt">
        <path id="path150" d="M 222.85 153.10 L 222.85 156.10" />
      </g>
    </g>
    <clipPath id="clip17">
      <path id="path153" d="M 0.0000 0.0000 L 0.0000 370.00 L 481.00 370.00 L 481.00 0.0000 z" />
    </clipPath>
    <g id="g155" clip-path="url(#clip17)">
      <g id="g157" fill="#000000" stroke="none" fill-rule="nonzero" fill-opacity="1.0000">
        <path id="path159" d="M 277.52 169.00 L 277.52 166.54 L 273.62 166.54 L 273.62 165.67 L 277.52 160.33 L 278.60 160.33 L 278.60 165.60 L 279.76 165.60 L 279.76 166.54 L 278.60 166.54 L 278.60 169.00 z M 274.75 165.60 L 277.59 165.60 L 277.59 161.75 z" />
      </g>
    </g>
    <clipPath id="clip18">
      <path id="path162" d="M 0.0000 0.0000 L 0.0000 370.00 L 481.00 370.00 L 481.00 0.0000 z" />
    </clipPath>
    <g id="g164" clip-path="url(#clip18)">
      <g id="g166" stroke="#000000" stroke-opacity="1.0000" fill="none" stroke-linecap="butt">
        <path id="path168" d="M 275.11 153.10 L 275.11 156.10" />
      </g>
    </g>
    <clipPath id="clip19">
      <path id="path171" d="M 0.0000 0.0000 L 0.0000 370.00 L 481.00 370.00 L 481.00 0.0000 z" />
    </clipPath>
    <g id="g173" clip-path="url(#clip19)">
      <g id="g175" fill="#000000" stroke="none" fill-rule="nonzero" fill-opacity="1.0000">
        <path id="path177" d="M 327.06 164.51 Q 327.89 163.43 329.14 163.43 Q 330.28 163.43 331.00 164.19 Q 331.73 164.94 331.73 166.12 Q 331.73 167.47 330.92 168.34 Q 330.10 169.22 328.86 169.22 Q 327.42 169.22 326.61 168.06 Q 325.80 166.91 325.80 164.86 Q 325.80 162.60 326.73 161.35 Q 327.66 160.11 329.35 160.11 Q 330.12 160.11 331.28 160.43 L 331.28 161.44 Q 330.06 160.97 329.28 160.97 Q 327.06 160.97 327.06 164.51 z M 330.57 166.38 Q 330.57 165.39 330.12 164.83 Q 329.68 164.27 328.90 164.27 Q 328.16 164.27 327.64 164.76 Q 327.11 165.25 327.11 165.94 Q 327.11 167.03 327.61 167.69 Q 328.11 168.35 328.94 168.35 Q 329.68 168.35 330.12 167.81 Q 330.57 167.28 330.57 166.38 z" />
      </g>
    </g>
    <clipPath id="clip20">
      <path id="path180" d="M 0.0000 0.0000 L 0.0000 370.00 L 481.00 370.00 L 481.00 0.0000 z" />
    </clipPath>
    <g id="g182" clip-path="url(#clip20)">
      <g id="g184" stroke="#000000" stroke-opacity="1.0000" fill="none" stroke-linecap="butt">
        <path id="path186" d="M 327.37 153.10 L 327.37 156.10" />
      </g>
    </g>
    <clipPath id="clip21">
      <path id="path189" d="M 0.0000 0.0000 L 0.0000 370.00 L 481.00 370.00 L 481.00 0.0000 z" />
    </clipPath>
    <g id="g191" clip-path="url(#clip21)">
      <g id="g193" fill="#000000" stroke="none" fill-rule="nonzero" fill-opacity="1.0000">
        <path id="path195" d="M 379.76 164.28 Q 378.49 163.39 378.49 162.32 Q 378.49 161.34 379.21 160.72 Q 379.93 160.11 381.09 160.11 Q 382.16 160.11 382.83 160.63 Q 383.49 161.15 383.49 161.98 Q 383.49 163.24 381.88 164.28 Q 383.84 165.24 383.84 166.76 Q 383.84 167.85 383.01 168.53 Q 382.19 169.22 380.89 169.22 Q 379.61 169.22 378.83 168.57 Q 378.04 167.92 378.04 166.87 Q 378.04 165.31 379.76 164.28 z M 381.23 163.91 Q 382.44 163.12 382.44 162.14 Q 382.44 161.62 382.04 161.30 Q 381.63 160.98 380.97 160.98 Q 380.33 160.98 379.94 161.29 Q 379.54 161.61 379.54 162.10 Q 379.54 162.59 379.90 162.97 Q 380.26 163.36 381.23 163.91 z M 380.39 164.75 Q 379.69 165.29 379.44 165.69 Q 379.19 166.09 379.19 166.69 Q 379.19 167.43 379.67 167.89 Q 380.15 168.35 380.94 168.35 Q 381.69 168.35 382.17 167.96 Q 382.65 167.56 382.65 166.94 Q 382.65 166.43 382.35 166.08 Q 382.06 165.74 381.21 165.23 z" />
      </g>
    </g>
    <clipPath id="clip22">
      <path id="path198" d="M 0.0000 0.0000 L 0.0000 370.00 L 481.00 370.00 L 481.00 0.0000 z" />
    </clipPath>
    <g id="g200" clip-path="url(#clip22)">
      <g id="g202" stroke="#000000" stroke-opacity="1.0000" fill="none" stroke-linecap="butt">
        <path id="path204" d="M 379.62 153.10 L 379.62 156.10" />
      </g>
    </g>
    <clipPath id="clip23">
      <path id="path207" d="M 0.0000 0.0000 L 0.0000 370.00 L 481.00 370.00 L 481.00 0.0000 z" />
    </clipPath>
    <g id="g209" clip-path="url(#clip23)">
      <g id="g211" fill="#000000" stroke="none" fill-rule="nonzero" fill-opacity="1.0000">
        <path id="path213" d="M 427.80 169.00 L 427.80 168.13 L 429.54 168.13 L 429.54 161.29 L 427.80 161.72 L 427.80 160.83 L 430.70 160.11 L 430.70 168.13 L 432.43 168.13 L 432.43 169.00 z M 437.35 169.22 Q 436.01 169.22 435.18 167.95 Q 434.35 166.69 434.35 164.66 Q 434.35 162.61 435.18 161.36 Q 436.02 160.11 437.38 160.11 Q 438.75 160.11 439.58 161.36 Q 440.42 162.61 440.42 164.64 Q 440.42 166.73 439.58 167.97 Q 438.75 169.22 437.35 169.22 z M 437.36 168.35 Q 439.20 168.35 439.20 164.62 Q 439.20 160.98 437.38 160.98 Q 435.58 160.98 435.58 164.66 Q 435.58 168.35 437.36 168.35 z" />
      </g>
    </g>
    <clipPath id="clip24">
      <path id="path216" d="M 0.0000 0.0000 L 0.0000 370.00 L 481.00 370.00 L 481.00 0.0000 z" />
    </clipPath>
    <g id="g218" clip-path="url(#clip24)">
      <g id="g220" stroke="#000000" stroke-opacity="1.0000" fill="none" stroke-linecap="butt">
        <path id="path222" d="M 431.88 153.10 L 431.88 156.10" />
      </g>
    </g>
    <clipPath id="clip25">
      <path id="path225" d="M 0.0000 0.0000 L 0.0000 370.00 L 481.00 370.00 L 481.00 0.0000 z" />
    </clipPath>
    <g id="g227" clip-path="url(#clip25)">
      <g id="g229" stroke="#000000" stroke-opacity="1.0000" fill="none" stroke-linecap="butt">
        <path id="path231" d="M 167.59 362.13 L 170.59 362.13" />
      </g>
    </g>
    <clipPath id="clip26">
      <path id="path234" d="M 0.0000 0.0000 L 0.0000 370.00 L 481.00 370.00 L 481.00 0.0000 z" />
    </clipPath>
    <g id="g236" clip-path="url(#clip26)">
      <g id="g238" fill="#000000" stroke="none" fill-rule="nonzero" fill-opacity="1.0000">
        <path id="path240" d="M 150.62 310.82 L 150.62 310.02 L 155.38 310.02 L 155.38 310.82 z M 158.06 309.51 Q 158.89 308.43 160.14 308.43 Q 161.28 308.43 162.00 309.19 Q 162.73 309.94 162.73 311.12 Q 162.73 312.47 161.92 313.34 Q 161.10 314.22 159.86 314.22 Q 158.42 314.22 157.61 313.06 Q 156.80 311.91 156.80 309.86 Q 156.80 307.60 157.73 306.35 Q 158.66 305.11 160.35 305.11 Q 161.12 305.11 162.28 305.43 L 162.28 306.44 Q 161.06 305.97 160.28 305.97 Q 158.06 305.97 158.06 309.51 z M 161.57 311.38 Q 161.57 310.39 161.12 309.83 Q 160.68 309.27 159.90 309.27 Q 159.16 309.27 158.64 309.76 Q 158.11 310.25 158.11 310.94 Q 158.11 312.03 158.61 312.69 Q 159.11 313.35 159.94 313.35 Q 160.68 313.35 161.12 312.81 Q 161.57 312.28 161.57 311.38 z" />
      </g>
    </g>
    <clipPath id="clip27">
      <path id="path243" d="M 0.0000 0.0000 L 0.0000 370.00 L 481.00 370.00 L 481.00 0.0000 z" />
    </clipPath>
    <g id="g245" clip-path="url(#clip27)">
      <g id="g247" stroke="#000000" stroke-opacity="1.0000" fill="none" stroke-linecap="butt">
        <path id="path249" d="M 167.59 309.87 L 170.59 309.87" />
      </g>
    </g>
    <clipPath id="clip28">
      <path id="path252" d="M 0.0000 0.0000 L 0.0000 370.00 L 481.00 370.00 L 481.00 0.0000 z" />
    </clipPath>
    <g id="g254" clip-path="url(#clip28)">
      <g id="g256" fill="#000000" stroke="none" fill-rule="nonzero" fill-opacity="1.0000">
        <path id="path258" d="M 150.62 258.82 L 150.62 258.02 L 155.38 258.02 L 155.38 258.82 z M 160.52 262.00 L 160.52 259.54 L 156.62 259.54 L 156.62 258.67 L 160.52 253.33 L 161.60 253.33 L 161.60 258.60 L 162.76 258.60 L 162.76 259.54 L 161.60 259.54 L 161.60 262.00 z M 157.75 258.60 L 160.59 258.60 L 160.59 254.75 z" />
      </g>
    </g>
    <clipPath id="clip29">
      <path id="path261" d="M 0.0000 0.0000 L 0.0000 370.00 L 481.00 370.00 L 481.00 0.0000 z" />
    </clipPath>
    <g id="g263" clip-path="url(#clip29)">
      <g id="g265" stroke="#000000" stroke-opacity="1.0000" fill="none" stroke-linecap="butt">
        <path id="path267" d="M 167.59 257.61 L 170.59 257.61" />
      </g>
    </g>
    <clipPath id="clip30">
      <path id="path270" d="M 0.0000 0.0000 L 0.0000 370.00 L 481.00 370.00 L 481.00 0.0000 z" />
    </clipPath>
    <g id="g272" clip-path="url(#clip30)">
      <g id="g274" fill="#000000" stroke="none" fill-rule="nonzero" fill-opacity="1.0000">
        <path id="path276" d="M 150.62 206.82 L 150.62 206.02 L 155.38 206.02 L 155.38 206.82 z M 157.00 210.00 L 157.00 208.99 Q 157.50 207.81 159.04 206.42 L 159.70 205.83 Q 160.97 204.67 160.97 203.54 Q 160.97 202.81 160.54 202.39 Q 160.10 201.98 159.34 201.98 Q 158.44 201.98 157.21 202.68 L 157.21 201.66 Q 158.37 201.11 159.50 201.11 Q 160.72 201.11 161.46 201.77 Q 162.20 202.42 162.20 203.51 Q 162.20 204.29 161.83 204.89 Q 161.46 205.49 160.44 206.36 L 160.00 206.74 Q 158.61 207.91 158.39 208.99 L 162.16 208.99 L 162.16 210.00 z" />
      </g>
    </g>
    <clipPath id="clip31">
      <path id="path279" d="M 0.0000 0.0000 L 0.0000 370.00 L 481.00 370.00 L 481.00 0.0000 z" />
    </clipPath>
    <g id="g281" clip-path="url(#clip31)">
      <g id="g283" stroke="#000000" stroke-opacity="1.0000" fill="none" stroke-linecap="butt">
        <path id="path285" d="M 167.59 205.35 L 170.59 205.35" />
      </g>
    </g>
    <clipPath id="clip32">
      <path id="path288" d="M 0.0000 0.0000 L 0.0000 370.00 L 481.00 370.00 L 481.00 0.0000 z" />
    </clipPath>
    <g id="g290" clip-path="url(#clip32)">
      <g id="g292" fill="#000000" stroke="none" fill-rule="nonzero" fill-opacity="1.0000">
        <path id="path294" d="M 159.76 151.22 Q 158.42 151.22 157.59 149.95 Q 156.76 148.69 156.76 146.66 Q 156.76 144.61 157.60 143.36 Q 158.43 142.11 159.80 142.11 Q 161.16 142.11 162.00 143.36 Q 162.83 144.61 162.83 146.64 Q 162.83 148.73 162.00 149.97 Q 161.16 151.22 159.76 151.22 z M 159.77 150.35 Q 161.61 150.35 161.61 146.62 Q 161.61 142.98 159.80 142.98 Q 157.99 142.98 157.99 146.66 Q 157.99 150.35 159.77 150.35 z" />
      </g>
    </g>
    <clipPath id="clip33">
      <path id="path297" d="M 0.0000 0.0000 L 0.0000 370.00 L 481.00 370.00 L 481.00 0.0000 z" />
    </clipPath>
    <g id="g299" clip-path="url(#clip33)">
      <g id="g301" fill="#000000" stroke="none" fill-rule="nonzero" fill-opacity="1.0000">
        <path id="path303" d="M 157.00 105.00 L 157.00 103.99 Q 157.50 102.81 159.04 101.42 L 159.70 100.83 Q 160.97 99.674 160.97 98.537 Q 160.97 97.811 160.54 97.395 Q 160.10 96.979 159.34 96.979 Q 158.44 96.979 157.21 97.676 L 157.21 96.656 Q 158.37 96.111 159.50 96.111 Q 160.72 96.111 161.46 96.768 Q 162.20 97.424 162.20 98.508 Q 162.20 99.287 161.83 99.891 Q 161.46 100.49 160.44 101.36 L 160.00 101.74 Q 158.61 102.91 158.39 103.99 L 162.16 103.99 L 162.16 105.00 z" />
      </g>
    </g>
    <clipPath id="clip34">
      <path id="path306" d="M 0.0000 0.0000 L 0.0000 370.00 L 481.00 370.00 L 481.00 0.0000 z" />
    </clipPath>
    <g id="g308" clip-path="url(#clip34)">
      <g id="g310" stroke="#000000" stroke-opacity="1.0000" fill="none" stroke-linecap="butt">
        <path id="path312" d="M 167.59 100.84 L 170.59 100.84" />
      </g>
    </g>
    <clipPath id="clip35">
      <path id="path315" d="M 0.0000 0.0000 L 0.0000 370.00 L 481.00 370.00 L 481.00 0.0000 z" />
    </clipPath>
    <g id="g317" clip-path="url(#clip35)">
      <g id="g319" fill="#000000" stroke="none" fill-rule="nonzero" fill-opacity="1.0000">
        <path id="path321" d="M 160.52 53.000 L 160.52 50.545 L 156.62 50.545 L 156.62 49.672 L 160.52 44.328 L 161.60 44.328 L 161.60 49.602 L 162.76 49.602 L 162.76 50.545 L 161.60 50.545 L 161.60 53.000 z M 157.75 49.602 L 160.59 49.602 L 160.59 45.746 z" />
      </g>
    </g>
    <clipPath id="clip36">
      <path id="path324" d="M 0.0000 0.0000 L 0.0000 370.00 L 481.00 370.00 L 481.00 0.0000 z" />
    </clipPath>
    <g id="g326" clip-path="url(#clip36)">
      <g id="g328" stroke="#000000" stroke-opacity="1.0000" fill="none" stroke-linecap="butt">
        <path id="path330" d="M 167.59 48.582 L 170.59 48.582" />
      </g>
    </g>
    <g id="misc" />
    <g id="layer0">
      <clipPath id="clip37">
        <path id="path335" d="M 0.0000 0.0000 L 0.0000 370.00 L 481.00 370.00 L 481.00 0.0000 z" />
      </clipPath>
      <g id="g337" clip-path="url(#clip37)">
        <g id="g339" fill="#00ffff" stroke="none" fill-rule="nonzero" fill-opacity=".33725">
          <path id="path341" d="M 147.99 166.21 C 155.01 178.30 170.31 182.73 182.70 176.25 L 170.59 153.10 z" />
          <title id="title343">Sector k</title>
          <desc id="desc345">Sector k: CircularSector[E, F, G]</desc>
        </g>
      </g>
      <clipPath id="clip38">
        <path id="path348" d="M 0.0000 0.0000 L 0.0000 370.00 L 481.00 370.00 L 481.00 0.0000 z" />
      </clipPath>
      <g id="g350" clip-path="url(#clip38)">
        <g id="g352" stroke="#00ffff" stroke-opacity="1.0000" fill="none" stroke-linecap="round" stroke-width="2.5000" stroke-linejoin="round">
          <path id="path354" d="M 147.99 166.21 C 155.01 178.30 170.31 182.73 182.70 176.25 L 170.59 153.10 z" />
          <title id="title356">Sector k</title>
          <desc id="desc358">Sector k: CircularSector[E, F, G]</desc>
        </g>
      </g>
      <clipPath id="clip39">
        <path id="path361" d="M 0.0000 0.0000 L 0.0000 370.00 L 481.00 370.00 L 481.00 0.0000 z" />
      </clipPath>
      <g id="g363" clip-path="url(#clip39)">
        <g id="g365" stroke="#000000" stroke-opacity="1.0000" fill="none" stroke-linecap="round" stroke-width="4.5000" stroke-linejoin="round">
          <path id="path367" d="M 147.99 166.21 C 155.01 178.30 170.31 182.73 182.70 176.25" />
          <title id="title369">Arc p</title>
          <desc id="desc371">Arc p: CircularArc[E, F, G]</desc>
        </g>
      </g>
      <clipPath id="clip40">
        <path id="path374" d="M 0.0000 0.0000 L 0.0000 370.00 L 481.00 370.00 L 481.00 0.0000 z" />
      </clipPath>
      <g id="g376" clip-path="url(#clip40)">
        <g id="g378" fill="#7f00ff" stroke="none" fill-rule="nonzero" fill-opacity=".20000">
          <path id="path380" d="M 261.82 102.10 C 233.77 51.917 170.45 33.813 120.11 61.581 L 170.59 153.10 z" />
          <title id="title382">Sector q</title>
          <desc id="desc384">Sector q: CircularSector[H, I, J]</desc>
        </g>
      </g>
      <clipPath id="clip41">
        <path id="path387" d="M 0.0000 0.0000 L 0.0000 370.00 L 481.00 370.00 L 481.00 0.0000 z" />
      </clipPath>
      <g id="g389" clip-path="url(#clip41)">
        <g id="g391" stroke="#7f00ff" stroke-opacity="1.0000" fill="none" stroke-linecap="round" stroke-width="2.5000" stroke-linejoin="round">
          <path id="path393" d="M 261.82 102.10 C 233.77 51.917 170.45 33.813 120.11 61.581 L 170.59 153.10 z" />
          <title id="title395">Sector q</title>
          <desc id="desc397">Sector q: CircularSector[H, I, J]</desc>
        </g>
      </g>
      <clipPath id="clip42">
        <path id="path400" d="M 0.0000 0.0000 L 0.0000 370.00 L 481.00 370.00 L 481.00 0.0000 z" />
      </clipPath>
      <g id="g402" clip-path="url(#clip42)">
        <g id="g404" stroke="#000000" stroke-opacity="1.0000" fill="none" stroke-linecap="round" stroke-width="4.5000" stroke-linejoin="round">
          <path id="path406" d="M 261.82 102.10 C 233.77 51.917 170.45 33.813 120.11 61.581" />
          <title id="title408">Arc r</title>
          <desc id="desc410">Arc r: CircularArc[H, I, J]</desc>
        </g>
      </g>
    </g>
    <g id="layer1">
      <clipPath id="clip43">
        <path id="path414" d="M 0.0000 0.0000 L 0.0000 370.00 L 481.00 370.00 L 481.00 0.0000 z" />
      </clipPath>
      <g id="g416" clip-path="url(#clip43)">
        <g id="g418" fill="#0000ff" stroke="none" fill-rule="nonzero" fill-opacity=".36863">
          <path id="path420" d="M 145.50 107.26 C 133.32 113.93 124.29 125.17 120.41 138.51 C 116.54 151.84 118.13 166.17 124.83 178.33 L 170.59 153.10 z" />
          <title id="title422">Sector g</title>
          <desc id="desc424">Sector g: CircularSector[A, B, C]</desc>
        </g>
      </g>
      <clipPath id="clip44">
        <path id="path427" d="M 0.0000 0.0000 L 0.0000 370.00 L 481.00 370.00 L 481.00 0.0000 z" />
      </clipPath>
      <g id="g429" clip-path="url(#clip44)">
        <g id="g431" stroke="#0000ff" stroke-opacity="1.0000" fill="none" stroke-linecap="round" stroke-width="2.5000" stroke-linejoin="round">
          <path id="path433" d="M 145.50 107.26 C 133.32 113.93 124.29 125.17 120.41 138.51 C 116.54 151.84 118.13 166.17 124.83 178.33 L 170.59 153.10 z" />
          <title id="title435">Sector g</title>
          <desc id="desc437">Sector g: CircularSector[A, B, C]</desc>
        </g>
      </g>
    </g>
    <g id="layer2">
      <clipPath id="clip45">
        <path id="path441" d="M 0.0000 0.0000 L 0.0000 370.00 L 481.00 370.00 L 481.00 0.0000 z" />
      </clipPath>
      <g id="g443" clip-path="url(#clip45)">
        <g id="g445" stroke="#000000" stroke-opacity="1.0000" fill="none" stroke-linecap="round" stroke-width="4.5000" stroke-linejoin="round">
          <path id="path447" d="M 145.50 107.26 C 133.32 113.93 124.29 125.17 120.41 138.51 C 116.54 151.84 118.13 166.17 124.83 178.33" />
          <title id="title449">Arc h</title>
          <desc id="desc451">Arc h: CircularArc[A, B, C]</desc>
        </g>
      </g>
      <clipPath id="clip46">
        <path id="path454" d="M 0.0000 0.0000 L 0.0000 370.00 L 481.00 370.00 L 481.00 0.0000 z" />
      </clipPath>
      <g id="g456" clip-path="url(#clip46)">
        <g id="g458" fill="#ff00ff" stroke="none" fill-rule="nonzero" fill-opacity=".29804">
          <path id="path460" d="M 276.00 334.00 C 374.82 276.42 409.15 150.20 353.11 50.502 L 170.59 153.10 z" />
          <title id="title462">Sector t</title>
          <desc id="desc464">Sector t: CircularSector[A, L, M]</desc>
        </g>
      </g>
      <clipPath id="clip47">
        <path id="path467" d="M 0.0000 0.0000 L 0.0000 370.00 L 481.00 370.00 L 481.00 0.0000 z" />
      </clipPath>
      <g id="g469" clip-path="url(#clip47)">
        <g id="g471" stroke="#ff00ff" stroke-opacity="1.0000" fill="none" stroke-linecap="round" stroke-width="2.5000" stroke-linejoin="round">
          <path id="path473" d="M 276.00 334.00 C 374.82 276.42 409.15 150.20 353.11 50.502 L 170.59 153.10 z" />
          <title id="title475">Sector t</title>
          <desc id="desc477">Sector t: CircularSector[A, L, M]</desc>
        </g>
      </g>
      <clipPath id="clip48">
        <path id="path480" d="M 0.0000 0.0000 L 0.0000 370.00 L 481.00 370.00 L 481.00 0.0000 z" />
      </clipPath>
      <g id="g482" clip-path="url(#clip48)">
        <g id="g484" stroke="#000000" stroke-opacity="1.0000" fill="none" stroke-linecap="round" stroke-width="4.5000" stroke-linejoin="round">
          <path id="path486" d="M 276.00 334.00 C 374.82 276.42 409.15 150.20 353.11 50.502" />
          <title id="title488">Arc c_1</title>
          <desc id="desc490">Arc c_1: CircularArc[A, L, M]</desc>
        </g>
      </g>
    </g>
  </g>
</svg>