<?xml version='1.0' ?><svg xmlns:ns0="http://www.iki.fi/pav/software/textext/" xmlns:dc="http://purl.org/dc/elements/1.1/" xmlns:cc="http://creativecommons.org/ns#" xmlns:rdf="http://www.w3.org/1999/02/22-rdf-syntax-ns#" xmlns:svg="http://www.w3.org/2000/svg" xmlns="http://www.w3.org/2000/svg" id="svg2" version="1.1" width="520.0" height="332.66559" viewBox="0.0 6.051564081947471e-6 619.0 396.0000004038462" preserveAspectRatio="none">
  <metadata id="metadata900">
    <rdf:RDF>
      <cc:Work rdf:about="">
        <dc:format>image/svg+xml</dc:format>
        <dc:type rdf:resource="http://purl.org/dc/dcmitype/StillImage" />
      </cc:Work>
    </rdf:RDF>
  </metadata>
  <defs id="defs898" />
  <title id="title4" />
  <g id="g6" stroke-linecap="square" stroke-miterlimit="10.000" stroke-width="1.0000" stroke-dasharray="none" stroke-dashoffset="0.0000" stroke-linejoin="miter">
    <clipPath id="clip1">
      <path id="path9" d="M 0.0000 0.0000 L 0.0000 396.00 L 619.00 396.00 L 619.00 0.0000 z" />
    </clipPath>
    <g id="g11" clip-path="url(#clip1)">
      <g id="g13" stroke="#000000" stroke-opacity="1.0000" fill="none" stroke-linecap="butt" stroke-width="2.0000">
        <path id="path15" d="M 54.477 3.0000 L 54.477 396.00" />
      </g>
    </g>
    <clipPath id="clip2">
      <path id="path18" d="M 0.0000 0.0000 L 0.0000 396.00 L 619.00 396.00 L 619.00 0.0000 z" />
    </clipPath>
    <g id="g20" clip-path="url(#clip2)">
      <g id="g22" fill="#000000" stroke="none" fill-rule="evenodd" fill-opacity="1.0000">
        <path id="path24" d="M 54.477 2.0000 L 48.477 26.000 L 60.477 26.000" />
      </g>
    </g>
    <clipPath id="clip3">
      <path id="path27" d="M 0.0000 0.0000 L 0.0000 396.00 L 619.00 396.00 L 619.00 0.0000 z" />
    </clipPath>
    <g id="g29" clip-path="url(#clip3)">
      <g id="g31" stroke="#000000" stroke-opacity="1.0000" fill="none" stroke-linecap="butt" stroke-width="2.0000">
        <path id="path33" d="M 0.0000 352.09 L 616.00 352.09" />
      </g>
    </g>
    <clipPath id="clip4">
      <path id="path36" d="M 0.0000 0.0000 L 0.0000 396.00 L 619.00 396.00 L 619.00 0.0000 z" />
    </clipPath>
    <g id="g38" clip-path="url(#clip4)">
      <g id="g40" fill="#000000" stroke="none" fill-rule="evenodd" fill-opacity="1.0000">
        <path id="path42" d="M 617.00 352.09 L 593.00 346.09 L 593.00 358.09" />
      </g>
    </g>
    <clipPath id="clip5">
      <path id="path45" d="M 0.0000 0.0000 L 0.0000 396.00 L 619.00 396.00 L 619.00 0.0000 z" />
    </clipPath>
    <g id="g47" clip-path="url(#clip5)">
      <g id="g49" stroke="#000000" stroke-opacity="1.0000" fill="none" stroke-linecap="butt" stroke-width="2.0000">
        <path id="path51" d="M 1.9459 352.09 L 1.9459 355.09" />
      </g>
    </g>
    <clipPath id="clip6">
      <path id="path54" d="M 0.0000 0.0000 L 0.0000 396.00 L 619.00 396.00 L 619.00 0.0000 z" />
    </clipPath>
    <g id="g56" clip-path="url(#clip6)">
      <g id="g58" fill="#000000" stroke="none" fill-rule="nonzero" fill-opacity="1.0000">
        <path id="path60" d="M 64.702 371.27 Q 63.025 371.27 61.989 369.69 Q 60.952 368.11 60.952 365.57 Q 60.952 363.01 61.996 361.45 Q 63.040 359.89 64.746 359.89 Q 66.453 359.89 67.496 361.45 Q 68.540 363.01 68.540 365.55 Q 68.540 368.16 67.496 369.71 Q 66.453 371.27 64.702 371.27 z M 64.717 370.19 Q 67.009 370.19 67.009 365.53 Q 67.009 360.97 64.746 360.97 Q 62.490 360.97 62.490 365.57 Q 62.490 370.19 64.717 370.19 z" />
      </g>
    </g>
    <clipPath id="clip7">
      <path id="path63" d="M 0.0000 0.0000 L 0.0000 396.00 L 619.00 396.00 L 619.00 0.0000 z" />
    </clipPath>
    <g id="g65" clip-path="url(#clip7)">
      <g id="g67" stroke="#000000" stroke-opacity="1.0000" fill="none" stroke-linecap="butt" stroke-width="2.0000">
        <path id="path69" d="M 54.477 352.09 L 54.477 355.09" />
      </g>
    </g>
    <clipPath id="clip8">
      <path id="path72" d="M 0.0000 0.0000 L 0.0000 396.00 L 619.00 396.00 L 619.00 0.0000 z" />
    </clipPath>
    <g id="g74" clip-path="url(#clip8)">
      <g id="g76" fill="#000000" stroke="none" fill-rule="nonzero" fill-opacity="1.0000">
        <path id="path78" d="M 101.25 371.00 L 101.25 369.73 Q 101.88 368.26 103.79 366.52 L 104.62 365.79 Q 106.22 364.34 106.22 362.92 Q 106.22 362.01 105.67 361.49 Q 105.13 360.97 104.17 360.97 Q 103.05 360.97 101.52 361.84 L 101.52 360.57 Q 102.96 359.89 104.38 359.89 Q 105.90 359.89 106.83 360.71 Q 107.75 361.53 107.75 362.88 Q 107.75 363.86 107.28 364.61 Q 106.82 365.37 105.55 366.44 L 105.00 366.92 Q 103.26 368.39 102.99 369.73 L 107.70 369.73 L 107.70 371.00 z M 114.19 371.27 Q 112.51 371.27 111.47 369.69 Q 110.44 368.11 110.44 365.57 Q 110.44 363.01 111.48 361.45 Q 112.52 359.89 114.23 359.89 Q 115.94 359.89 116.98 361.45 Q 118.02 363.01 118.02 365.55 Q 118.02 368.16 116.98 369.71 Q 115.94 371.27 114.19 371.27 z M 114.20 370.19 Q 116.49 370.19 116.49 365.53 Q 116.49 360.97 114.23 360.97 Q 111.98 360.97 111.98 365.57 Q 111.98 370.19 114.20 370.19 z" />
      </g>
    </g>
    <clipPath id="clip9">
      <path id="path81" d="M 0.0000 0.0000 L 0.0000 396.00 L 619.00 396.00 L 619.00 0.0000 z" />
    </clipPath>
    <g id="g83" clip-path="url(#clip9)">
      <g id="g85" stroke="#000000" stroke-opacity="1.0000" fill="none" stroke-linecap="butt" stroke-width="2.0000">
        <path id="path87" d="M 107.01 352.09 L 107.01 355.09" />
      </g>
    </g>
    <clipPath id="clip10">
      <path id="path90" d="M 0.0000 0.0000 L 0.0000 396.00 L 619.00 396.00 L 619.00 0.0000 z" />
    </clipPath>
    <g id="g92" clip-path="url(#clip10)">
      <g id="g94" fill="#000000" stroke="none" fill-rule="nonzero" fill-opacity="1.0000">
        <path id="path96" d="M 158.65 371.00 L 158.65 367.93 L 153.77 367.93 L 153.77 366.84 L 158.65 360.16 L 160.00 360.16 L 160.00 366.75 L 161.45 366.75 L 161.45 367.93 L 160.00 367.93 L 160.00 371.00 z M 155.18 366.75 L 158.74 366.75 L 158.74 361.93 z M 167.19 371.27 Q 165.51 371.27 164.47 369.69 Q 163.44 368.11 163.44 365.57 Q 163.44 363.01 164.48 361.45 Q 165.52 359.89 167.23 359.89 Q 168.94 359.89 169.98 361.45 Q 171.02 363.01 171.02 365.55 Q 171.02 368.16 169.98 369.71 Q 168.94 371.27 167.19 371.27 z M 167.20 370.19 Q 169.49 370.19 169.49 365.53 Q 169.49 360.97 167.23 360.97 Q 164.98 360.97 164.98 365.57 Q 164.98 370.19 167.20 370.19 z" />
      </g>
    </g>
    <clipPath id="clip11">
      <path id="path99" d="M 0.0000 0.0000 L 0.0000 396.00 L 619.00 396.00 L 619.00 0.0000 z" />
    </clipPath>
    <g id="g101" clip-path="url(#clip11)">
      <g id="g103" stroke="#000000" stroke-opacity="1.0000" fill="none" stroke-linecap="butt" stroke-width="2.0000">
        <path id="path105" d="M 159.54 352.09 L 159.54 355.09" />
      </g>
    </g>
    <clipPath id="clip12">
      <path id="path108" d="M 0.0000 0.0000 L 0.0000 396.00 L 619.00 396.00 L 619.00 0.0000 z" />
    </clipPath>
    <g id="g110" clip-path="url(#clip12)">
      <g id="g112" fill="#000000" stroke="none" fill-rule="nonzero" fill-opacity="1.0000">
        <path id="path114" d="M 207.58 365.38 Q 208.61 364.04 210.18 364.04 Q 211.60 364.04 212.50 364.98 Q 213.41 365.92 213.41 367.40 Q 213.41 369.09 212.39 370.18 Q 211.38 371.27 209.82 371.27 Q 208.02 371.27 207.01 369.83 Q 206.00 368.39 206.00 365.82 Q 206.00 363.00 207.16 361.44 Q 208.33 359.88 210.43 359.88 Q 211.40 359.88 212.85 360.29 L 212.85 361.55 Q 211.32 360.97 210.35 360.97 Q 207.58 360.97 207.58 365.38 z M 211.96 367.72 Q 211.96 366.49 211.41 365.79 Q 210.85 365.08 209.87 365.08 Q 208.96 365.08 208.30 365.70 Q 207.64 366.31 207.64 367.18 Q 207.64 368.54 208.26 369.36 Q 208.89 370.19 209.92 370.19 Q 210.85 370.19 211.41 369.52 Q 211.96 368.85 211.96 367.72 z M 219.19 371.27 Q 217.51 371.27 216.47 369.69 Q 215.44 368.11 215.44 365.57 Q 215.44 363.01 216.48 361.45 Q 217.52 359.89 219.23 359.89 Q 220.94 359.89 221.98 361.45 Q 223.02 363.01 223.02 365.55 Q 223.02 368.16 221.98 369.71 Q 220.94 371.27 219.19 371.27 z M 219.20 370.19 Q 221.49 370.19 221.49 365.53 Q 221.49 360.97 219.23 360.97 Q 216.98 360.97 216.98 365.57 Q 216.98 370.19 219.20 370.19 z" />
      </g>
    </g>
    <clipPath id="clip13">
      <path id="path117" d="M 0.0000 0.0000 L 0.0000 396.00 L 619.00 396.00 L 619.00 0.0000 z" />
    </clipPath>
    <g id="g119" clip-path="url(#clip13)">
      <g id="g121" stroke="#000000" stroke-opacity="1.0000" fill="none" stroke-linecap="butt" stroke-width="2.0000">
        <path id="path123" d="M 212.07 352.09 L 212.07 355.09" />
      </g>
    </g>
    <clipPath id="clip14">
      <path id="path126" d="M 0.0000 0.0000 L 0.0000 396.00 L 619.00 396.00 L 619.00 0.0000 z" />
    </clipPath>
    <g id="g128" clip-path="url(#clip14)">
      <g id="g130" fill="#000000" stroke="none" fill-rule="nonzero" fill-opacity="1.0000">
        <path id="path132" d="M 261.45 365.10 Q 259.86 363.99 259.86 362.65 Q 259.86 361.42 260.76 360.65 Q 261.66 359.88 263.11 359.88 Q 264.45 359.88 265.28 360.53 Q 266.12 361.19 266.12 362.23 Q 266.12 363.80 264.09 365.10 Q 266.55 366.30 266.55 368.19 Q 266.55 369.56 265.52 370.41 Q 264.49 371.27 262.86 371.27 Q 261.27 371.27 260.28 370.46 Q 259.30 369.65 259.30 368.33 Q 259.30 366.39 261.45 365.10 z M 263.29 364.64 Q 264.80 363.65 264.80 362.42 Q 264.80 361.77 264.30 361.37 Q 263.79 360.97 262.97 360.97 Q 262.17 360.97 261.67 361.36 Q 261.17 361.76 261.17 362.38 Q 261.17 362.99 261.62 363.47 Q 262.07 363.95 263.29 364.64 z M 262.23 365.68 Q 261.36 366.36 261.05 366.86 Q 260.74 367.36 260.74 368.11 Q 260.74 369.04 261.34 369.61 Q 261.94 370.19 262.92 370.19 Q 263.87 370.19 264.46 369.70 Q 265.06 369.21 265.06 368.42 Q 265.06 367.79 264.69 367.36 Q 264.32 366.92 263.26 366.29 z M 272.19 371.27 Q 270.51 371.27 269.47 369.69 Q 268.44 368.11 268.44 365.57 Q 268.44 363.01 269.48 361.45 Q 270.52 359.89 272.23 359.89 Q 273.94 359.89 274.98 361.45 Q 276.02 363.01 276.02 365.55 Q 276.02 368.16 274.98 369.71 Q 273.94 371.27 272.19 371.27 z M 272.20 370.19 Q 274.49 370.19 274.49 365.53 Q 274.49 360.97 272.23 360.97 Q 269.98 360.97 269.98 365.57 Q 269.98 370.19 272.20 370.19 z" />
      </g>
    </g>
    <clipPath id="clip15">
      <path id="path135" d="M 0.0000 0.0000 L 0.0000 396.00 L 619.00 396.00 L 619.00 0.0000 z" />
    </clipPath>
    <g id="g137" clip-path="url(#clip15)">
      <g id="g139" stroke="#000000" stroke-opacity="1.0000" fill="none" stroke-linecap="butt" stroke-width="2.0000">
        <path id="path141" d="M 264.60 352.09 L 264.60 355.09" />
      </g>
    </g>
    <clipPath id="clip16">
      <path id="path144" d="M 0.0000 0.0000 L 0.0000 396.00 L 619.00 396.00 L 619.00 0.0000 z" />
    </clipPath>
    <g id="g146" clip-path="url(#clip16)">
      <g id="g148" fill="#000000" stroke="none" fill-rule="nonzero" fill-opacity="1.0000">
        <path id="path150" d="M 308.26 371.00 L 308.26 369.92 L 310.42 369.92 L 310.42 361.36 L 308.26 361.90 L 308.26 360.79 L 311.87 359.89 L 311.87 369.92 L 314.04 369.92 L 314.04 371.00 z M 320.19 371.27 Q 318.51 371.27 317.47 369.69 Q 316.44 368.11 316.44 365.57 Q 316.44 363.01 317.48 361.45 Q 318.52 359.89 320.23 359.89 Q 321.94 359.89 322.98 361.45 Q 324.02 363.01 324.02 365.55 Q 324.02 368.16 322.98 369.71 Q 321.94 371.27 320.19 371.27 z M 320.20 370.19 Q 322.49 370.19 322.49 365.53 Q 322.49 360.97 320.23 360.97 Q 317.98 360.97 317.98 365.57 Q 317.98 370.19 320.20 370.19 z M 329.67 371.27 Q 327.99 371.27 326.96 369.69 Q 325.92 368.11 325.92 365.57 Q 325.92 363.01 326.97 361.45 Q 328.01 359.89 329.72 359.89 Q 331.42 359.89 332.47 361.45 Q 333.51 363.01 333.51 365.55 Q 333.51 368.16 332.47 369.71 Q 331.42 371.27 329.67 371.27 z M 329.69 370.19 Q 331.98 370.19 331.98 365.53 Q 331.98 360.97 329.72 360.97 Q 327.46 360.97 327.46 365.57 Q 327.46 370.19 329.69 370.19 z" />
      </g>
    </g>
    <clipPath id="clip17">
      <path id="path153" d="M 0.0000 0.0000 L 0.0000 396.00 L 619.00 396.00 L 619.00 0.0000 z" />
    </clipPath>
    <g id="g155" clip-path="url(#clip17)">
      <g id="g157" stroke="#000000" stroke-opacity="1.0000" fill="none" stroke-linecap="butt" stroke-width="2.0000">
        <path id="path159" d="M 317.13 352.09 L 317.13 355.09" />
      </g>
    </g>
    <clipPath id="clip18">
      <path id="path162" d="M 0.0000 0.0000 L 0.0000 396.00 L 619.00 396.00 L 619.00 0.0000 z" />
    </clipPath>
    <g id="g164" clip-path="url(#clip18)">
      <g id="g166" fill="#000000" stroke="none" fill-rule="nonzero" fill-opacity="1.0000">
        <path id="path168" d="M 361.26 371.00 L 361.26 369.92 L 363.42 369.92 L 363.42 361.36 L 361.26 361.90 L 361.26 360.79 L 364.87 359.89 L 364.87 369.92 L 367.04 369.92 L 367.04 371.00 z M 369.73 371.00 L 369.73 369.73 Q 370.36 368.26 372.28 366.52 L 373.11 365.79 Q 374.70 364.34 374.70 362.92 Q 374.70 362.01 374.16 361.49 Q 373.61 360.97 372.66 360.97 Q 371.53 360.97 370.00 361.84 L 370.00 360.57 Q 371.44 359.89 372.86 359.89 Q 374.39 359.89 375.31 360.71 Q 376.23 361.53 376.23 362.88 Q 376.23 363.86 375.77 364.61 Q 375.30 365.37 374.04 366.44 L 373.48 366.92 Q 371.74 368.39 371.47 369.73 L 376.18 369.73 L 376.18 371.00 z M 382.67 371.27 Q 380.99 371.27 379.96 369.69 Q 378.92 368.11 378.92 365.57 Q 378.92 363.01 379.97 361.45 Q 381.01 359.89 382.72 359.89 Q 384.42 359.89 385.47 361.45 Q 386.51 363.01 386.51 365.55 Q 386.51 368.16 385.47 369.71 Q 384.42 371.27 382.67 371.27 z M 382.69 370.19 Q 384.98 370.19 384.98 365.53 Q 384.98 360.97 382.72 360.97 Q 380.46 360.97 380.46 365.57 Q 380.46 370.19 382.69 370.19 z" />
      </g>
    </g>
    <clipPath id="clip19">
      <path id="path171" d="M 0.0000 0.0000 L 0.0000 396.00 L 619.00 396.00 L 619.00 0.0000 z" />
    </clipPath>
    <g id="g173" clip-path="url(#clip19)">
      <g id="g175" stroke="#000000" stroke-opacity="1.0000" fill="none" stroke-linecap="butt" stroke-width="2.0000">
        <path id="path177" d="M 369.67 352.09 L 369.67 355.09" />
      </g>
    </g>
    <clipPath id="clip20">
      <path id="path180" d="M 0.0000 0.0000 L 0.0000 396.00 L 619.00 396.00 L 619.00 0.0000 z" />
    </clipPath>
    <g id="g182" clip-path="url(#clip20)">
      <g id="g184" fill="#000000" stroke="none" fill-rule="nonzero" fill-opacity="1.0000">
        <path id="path186" d="M 413.26 371.00 L 413.26 369.92 L 415.42 369.92 L 415.42 361.36 L 413.26 361.90 L 413.26 360.79 L 416.87 359.89 L 416.87 369.92 L 419.04 369.92 L 419.04 371.00 z M 426.13 371.00 L 426.13 367.93 L 421.25 367.93 L 421.25 366.84 L 426.13 360.16 L 427.49 360.16 L 427.49 366.75 L 428.94 366.75 L 428.94 367.93 L 427.49 367.93 L 427.49 371.00 z M 422.67 366.75 L 426.23 366.75 L 426.23 361.93 z M 434.67 371.27 Q 432.99 371.27 431.96 369.69 Q 430.92 368.11 430.92 365.57 Q 430.92 363.01 431.97 361.45 Q 433.01 359.89 434.72 359.89 Q 436.42 359.89 437.47 361.45 Q 438.51 363.01 438.51 365.55 Q 438.51 368.16 437.47 369.71 Q 436.42 371.27 434.67 371.27 z M 434.69 370.19 Q 436.98 370.19 436.98 365.53 Q 436.98 360.97 434.72 360.97 Q 432.46 360.97 432.46 365.57 Q 432.46 370.19 434.69 370.19 z" />
      </g>
    </g>
    <clipPath id="clip21">
      <path id="path189" d="M 0.0000 0.0000 L 0.0000 396.00 L 619.00 396.00 L 619.00 0.0000 z" />
    </clipPath>
    <g id="g191" clip-path="url(#clip21)">
      <g id="g193" stroke="#000000" stroke-opacity="1.0000" fill="none" stroke-linecap="butt" stroke-width="2.0000">
        <path id="path195" d="M 422.20 352.09 L 422.20 355.09" />
      </g>
    </g>
    <clipPath id="clip22">
      <path id="path198" d="M 0.0000 0.0000 L 0.0000 396.00 L 619.00 396.00 L 619.00 0.0000 z" />
    </clipPath>
    <g id="g200" clip-path="url(#clip22)">
      <g id="g202" fill="#000000" stroke="none" fill-rule="nonzero" fill-opacity="1.0000">
        <path id="path204" d="M 466.26 371.00 L 466.26 369.92 L 468.42 369.92 L 468.42 361.36 L 466.26 361.90 L 466.26 360.79 L 469.87 359.89 L 469.87 369.92 L 472.04 369.92 L 472.04 371.00 z M 476.06 365.38 Q 477.10 364.04 478.66 364.04 Q 480.08 364.04 480.99 364.98 Q 481.89 365.92 481.89 367.40 Q 481.89 369.09 480.88 370.18 Q 479.86 371.27 478.30 371.27 Q 476.51 371.27 475.50 369.83 Q 474.49 368.39 474.49 365.82 Q 474.49 363.00 475.65 361.44 Q 476.81 359.88 478.92 359.88 Q 479.89 359.88 481.34 360.29 L 481.34 361.55 Q 479.81 360.97 478.83 360.97 Q 476.06 360.97 476.06 365.38 z M 480.44 367.72 Q 480.44 366.49 479.89 365.79 Q 479.34 365.08 478.36 365.08 Q 477.44 365.08 476.78 365.70 Q 476.12 366.31 476.12 367.18 Q 476.12 368.54 476.75 369.36 Q 477.37 370.19 478.41 370.19 Q 479.34 370.19 479.89 369.52 Q 480.44 368.85 480.44 367.72 z M 487.67 371.27 Q 485.99 371.27 484.96 369.69 Q 483.92 368.11 483.92 365.57 Q 483.92 363.01 484.97 361.45 Q 486.01 359.89 487.72 359.89 Q 489.42 359.89 490.47 361.45 Q 491.51 363.01 491.51 365.55 Q 491.51 368.16 490.47 369.71 Q 489.42 371.27 487.67 371.27 z M 487.69 370.19 Q 489.98 370.19 489.98 365.53 Q 489.98 360.97 487.72 360.97 Q 485.46 360.97 485.46 365.57 Q 485.46 370.19 487.69 370.19 z" />
      </g>
    </g>
    <clipPath id="clip23">
      <path id="path207" d="M 0.0000 0.0000 L 0.0000 396.00 L 619.00 396.00 L 619.00 0.0000 z" />
    </clipPath>
    <g id="g209" clip-path="url(#clip23)">
      <g id="g211" stroke="#000000" stroke-opacity="1.0000" fill="none" stroke-linecap="butt" stroke-width="2.0000">
        <path id="path213" d="M 474.73 352.09 L 474.73 355.09" />
      </g>
    </g>
    <clipPath id="clip24">
      <path id="path216" d="M 0.0000 0.0000 L 0.0000 396.00 L 619.00 396.00 L 619.00 0.0000 z" />
    </clipPath>
    <g id="g218" clip-path="url(#clip24)">
      <g id="g220" fill="#000000" stroke="none" fill-rule="nonzero" fill-opacity="1.0000">
        <path id="path222" d="M 519.26 371.00 L 519.26 369.92 L 521.42 369.92 L 521.42 361.36 L 519.26 361.90 L 519.26 360.79 L 522.87 359.89 L 522.87 369.92 L 525.04 369.92 L 525.04 371.00 z M 529.93 365.10 Q 528.35 363.99 528.35 362.65 Q 528.35 361.42 529.25 360.65 Q 530.15 359.88 531.60 359.88 Q 532.94 359.88 533.77 360.53 Q 534.60 361.19 534.60 362.23 Q 534.60 363.80 532.58 365.10 Q 535.03 366.30 535.03 368.19 Q 535.03 369.56 534.00 370.41 Q 532.97 371.27 531.35 371.27 Q 529.75 371.27 528.77 370.46 Q 527.78 369.65 527.78 368.33 Q 527.78 366.39 529.93 365.10 z M 531.77 364.64 Q 533.29 363.65 533.29 362.42 Q 533.29 361.77 532.78 361.37 Q 532.28 360.97 531.45 360.97 Q 530.65 360.97 530.15 361.36 Q 529.66 361.76 529.66 362.38 Q 529.66 362.99 530.11 363.47 Q 530.56 363.95 531.77 364.64 z M 530.72 365.68 Q 529.85 366.36 529.54 366.86 Q 529.22 367.36 529.22 368.11 Q 529.22 369.04 529.82 369.61 Q 530.43 370.19 531.41 370.19 Q 532.35 370.19 532.95 369.70 Q 533.55 369.21 533.55 368.42 Q 533.55 367.79 533.18 367.36 Q 532.81 366.92 531.74 366.29 z M 540.67 371.27 Q 538.99 371.27 537.96 369.69 Q 536.92 368.11 536.92 365.57 Q 536.92 363.01 537.97 361.45 Q 539.01 359.89 540.72 359.89 Q 542.42 359.89 543.47 361.45 Q 544.51 363.01 544.51 365.55 Q 544.51 368.16 543.47 369.71 Q 542.42 371.27 540.67 371.27 z M 540.69 370.19 Q 542.98 370.19 542.98 365.53 Q 542.98 360.97 540.72 360.97 Q 538.46 360.97 538.46 365.57 Q 538.46 370.19 540.69 370.19 z" />
      </g>
    </g>
    <clipPath id="clip25">
      <path id="path225" d="M 0.0000 0.0000 L 0.0000 396.00 L 619.00 396.00 L 619.00 0.0000 z" />
    </clipPath>
    <g id="g227" clip-path="url(#clip25)">
      <g id="g229" stroke="#000000" stroke-opacity="1.0000" fill="none" stroke-linecap="butt" stroke-width="2.0000">
        <path id="path231" d="M 527.26 352.09 L 527.26 355.09" />
      </g>
    </g>
    <clipPath id="clip26">
      <path id="path234" d="M 0.0000 0.0000 L 0.0000 396.00 L 619.00 396.00 L 619.00 0.0000 z" />
    </clipPath>
    <g id="g236" clip-path="url(#clip26)">
      <g id="g238" fill="#000000" stroke="none" fill-rule="nonzero" fill-opacity="1.0000">
        <path id="path240" d="M 570.25 371.00 L 570.25 369.73 Q 570.88 368.26 572.79 366.52 L 573.62 365.79 Q 575.22 364.34 575.22 362.92 Q 575.22 362.01 574.67 361.49 Q 574.13 360.97 573.17 360.97 Q 572.05 360.97 570.52 361.84 L 570.52 360.57 Q 571.96 359.89 573.38 359.89 Q 574.90 359.89 575.83 360.71 Q 576.75 361.53 576.75 362.88 Q 576.75 363.86 576.28 364.61 Q 575.82 365.37 574.55 366.44 L 574.00 366.92 Q 572.26 368.39 571.99 369.73 L 576.70 369.73 L 576.70 371.00 z M 583.19 371.27 Q 581.51 371.27 580.47 369.69 Q 579.44 368.11 579.44 365.57 Q 579.44 363.01 580.48 361.45 Q 581.52 359.89 583.23 359.89 Q 584.94 359.89 585.98 361.45 Q 587.02 363.01 587.02 365.55 Q 587.02 368.16 585.98 369.71 Q 584.94 371.27 583.19 371.27 z M 583.20 370.19 Q 585.49 370.19 585.49 365.53 Q 585.49 360.97 583.23 360.97 Q 580.98 360.97 580.98 365.57 Q 580.98 370.19 583.20 370.19 z M 592.67 371.27 Q 590.99 371.27 589.96 369.69 Q 588.92 368.11 588.92 365.57 Q 588.92 363.01 589.97 361.45 Q 591.01 359.89 592.72 359.89 Q 594.42 359.89 595.47 361.45 Q 596.51 363.01 596.51 365.55 Q 596.51 368.16 595.47 369.71 Q 594.42 371.27 592.67 371.27 z M 592.69 370.19 Q 594.98 370.19 594.98 365.53 Q 594.98 360.97 592.72 360.97 Q 590.46 360.97 590.46 365.57 Q 590.46 370.19 592.69 370.19 z" />
      </g>
    </g>
    <clipPath id="clip27">
      <path id="path243" d="M 0.0000 0.0000 L 0.0000 396.00 L 619.00 396.00 L 619.00 0.0000 z" />
    </clipPath>
    <g id="g245" clip-path="url(#clip27)">
      <g id="g247" stroke="#000000" stroke-opacity="1.0000" fill="none" stroke-linecap="butt" stroke-width="2.0000">
        <path id="path249" d="M 579.79 352.09 L 579.79 355.09" />
      </g>
    </g>
    <clipPath id="clip28">
      <path id="path252" d="M 0.0000 0.0000 L 0.0000 396.00 L 619.00 396.00 L 619.00 0.0000 z" />
    </clipPath>
    <g id="g254" clip-path="url(#clip28)">
      <g id="g256" fill="#000000" stroke="none" fill-rule="nonzero" fill-opacity="1.0000">
        <path id="path258" d="M 41.702 350.27 Q 40.025 350.27 38.989 348.69 Q 37.952 347.11 37.952 344.57 Q 37.952 342.01 38.996 340.45 Q 40.040 338.89 41.746 338.89 Q 43.453 338.89 44.496 340.45 Q 45.540 342.01 45.540 344.55 Q 45.540 347.16 44.496 348.71 Q 43.453 350.27 41.702 350.27 z M 41.717 349.19 Q 44.009 349.19 44.009 344.53 Q 44.009 339.97 41.746 339.97 Q 39.490 339.97 39.490 344.57 Q 39.490 349.19 41.717 349.19 z" />
      </g>
    </g>
    <clipPath id="clip29">
      <path id="path261" d="M 0.0000 0.0000 L 0.0000 396.00 L 619.00 396.00 L 619.00 0.0000 z" />
    </clipPath>
    <g id="g263" clip-path="url(#clip29)">
      <g id="g265" fill="#000000" stroke="none" fill-rule="nonzero" fill-opacity="1.0000">
        <path id="path267" d="M 29.245 296.00 L 29.245 294.73 Q 29.875 293.26 31.794 291.52 L 32.622 290.79 Q 34.218 289.34 34.218 287.92 Q 34.218 287.01 33.673 286.49 Q 33.127 285.97 32.175 285.97 Q 31.047 285.97 29.516 286.84 L 29.516 285.57 Q 30.959 284.89 32.380 284.89 Q 33.903 284.89 34.826 285.71 Q 35.749 286.53 35.749 287.88 Q 35.749 288.86 35.284 289.61 Q 34.819 290.37 33.552 291.44 L 32.995 291.92 Q 31.259 293.39 30.988 294.73 L 35.698 294.73 L 35.698 296.00 z M 42.187 296.27 Q 40.510 296.27 39.473 294.69 Q 38.437 293.11 38.437 290.57 Q 38.437 288.01 39.481 286.45 Q 40.524 284.89 42.231 284.89 Q 43.938 284.89 44.981 286.45 Q 46.025 288.01 46.025 290.55 Q 46.025 293.16 44.981 294.71 Q 43.938 296.27 42.187 296.27 z M 42.202 295.19 Q 44.494 295.19 44.494 290.53 Q 44.494 285.97 42.231 285.97 Q 39.975 285.97 39.975 290.57 Q 39.975 295.19 42.202 295.19 z" />
      </g>
    </g>
    <clipPath id="clip30">
      <path id="path270" d="M 0.0000 0.0000 L 0.0000 396.00 L 619.00 396.00 L 619.00 0.0000 z" />
    </clipPath>
    <g id="g272" clip-path="url(#clip30)">
      <g id="g274" stroke="#000000" stroke-opacity="1.0000" fill="none" stroke-linecap="butt" stroke-width="2.0000">
        <path id="path276" d="M 51.477 290.75 L 54.477 290.75" />
      </g>
    </g>
    <clipPath id="clip31">
      <path id="path279" d="M 0.0000 0.0000 L 0.0000 396.00 L 619.00 396.00 L 619.00 0.0000 z" />
    </clipPath>
    <g id="g281" clip-path="url(#clip31)">
      <g id="g283" fill="#000000" stroke="none" fill-rule="nonzero" fill-opacity="1.0000">
        <path id="path285" d="M 33.647 235.00 L 33.647 231.93 L 28.769 231.93 L 28.769 230.84 L 33.647 224.16 L 35.002 224.16 L 35.002 230.75 L 36.452 230.75 L 36.452 231.93 L 35.002 231.93 L 35.002 235.00 z M 30.183 230.75 L 33.742 230.75 L 33.742 225.93 z M 42.187 235.27 Q 40.510 235.27 39.473 233.69 Q 38.437 232.11 38.437 229.57 Q 38.437 227.01 39.481 225.45 Q 40.524 223.89 42.231 223.89 Q 43.938 223.89 44.981 225.45 Q 46.025 227.01 46.025 229.55 Q 46.025 232.16 44.981 233.71 Q 43.938 235.27 42.187 235.27 z M 42.202 234.19 Q 44.494 234.19 44.494 229.53 Q 44.494 224.97 42.231 224.97 Q 39.975 224.97 39.975 229.57 Q 39.975 234.19 42.202 234.19 z" />
      </g>
    </g>
    <clipPath id="clip32">
      <path id="path288" d="M 0.0000 0.0000 L 0.0000 396.00 L 619.00 396.00 L 619.00 0.0000 z" />
    </clipPath>
    <g id="g290" clip-path="url(#clip32)">
      <g id="g292" stroke="#000000" stroke-opacity="1.0000" fill="none" stroke-linecap="butt" stroke-width="2.0000">
        <path id="path294" d="M 51.477 229.40 L 54.477 229.40" />
      </g>
    </g>
    <clipPath id="clip33">
      <path id="path297" d="M 0.0000 0.0000 L 0.0000 396.00 L 619.00 396.00 L 619.00 0.0000 z" />
    </clipPath>
    <g id="g299" clip-path="url(#clip33)">
      <g id="g301" fill="#000000" stroke="none" fill-rule="nonzero" fill-opacity="1.0000">
        <path id="path303" d="M 30.578 168.38 Q 31.611 167.04 33.178 167.04 Q 34.599 167.04 35.504 167.98 Q 36.408 168.92 36.408 170.40 Q 36.408 172.09 35.394 173.18 Q 34.379 174.27 32.819 174.27 Q 31.025 174.27 30.014 172.83 Q 29.003 171.39 29.003 168.82 Q 29.003 166.00 30.164 164.44 Q 31.325 162.88 33.435 162.88 Q 34.401 162.88 35.852 163.29 L 35.852 164.55 Q 34.321 163.97 33.347 163.97 Q 30.578 163.97 30.578 168.38 z M 34.958 170.72 Q 34.958 169.49 34.405 168.79 Q 33.852 168.08 32.871 168.08 Q 31.955 168.08 31.296 168.70 Q 30.637 169.31 30.637 170.18 Q 30.637 171.54 31.263 172.36 Q 31.889 173.19 32.922 173.19 Q 33.852 173.19 34.405 172.52 Q 34.958 171.85 34.958 170.72 z M 42.187 174.27 Q 40.510 174.27 39.473 172.69 Q 38.437 171.11 38.437 168.57 Q 38.437 166.01 39.481 164.45 Q 40.524 162.89 42.231 162.89 Q 43.938 162.89 44.981 164.45 Q 46.025 166.01 46.025 168.55 Q 46.025 171.16 44.981 172.71 Q 43.938 174.27 42.187 174.27 z M 42.202 173.19 Q 44.494 173.19 44.494 168.53 Q 44.494 163.97 42.231 163.97 Q 39.975 163.97 39.975 168.57 Q 39.975 173.19 42.202 173.19 z" />
      </g>
    </g>
    <clipPath id="clip34">
      <path id="path306" d="M 0.0000 0.0000 L 0.0000 396.00 L 619.00 396.00 L 619.00 0.0000 z" />
    </clipPath>
    <g id="g308" clip-path="url(#clip34)">
      <g id="g310" stroke="#000000" stroke-opacity="1.0000" fill="none" stroke-linecap="butt" stroke-width="2.0000">
        <path id="path312" d="M 51.477 168.06 L 54.477 168.06" />
      </g>
    </g>
    <clipPath id="clip35">
      <path id="path315" d="M 0.0000 0.0000 L 0.0000 396.00 L 619.00 396.00 L 619.00 0.0000 z" />
    </clipPath>
    <g id="g317" clip-path="url(#clip35)">
      <g id="g319" fill="#000000" stroke="none" fill-rule="nonzero" fill-opacity="1.0000">
        <path id="path321" d="M 31.450 106.10 Q 29.860 104.99 29.860 103.65 Q 29.860 102.42 30.761 101.65 Q 31.662 100.88 33.112 100.88 Q 34.453 100.88 35.284 101.53 Q 36.115 102.19 36.115 103.23 Q 36.115 104.80 34.094 106.10 Q 36.547 107.30 36.547 109.19 Q 36.547 110.56 35.518 111.41 Q 34.489 112.27 32.863 112.27 Q 31.267 112.27 30.281 111.46 Q 29.296 110.65 29.296 109.33 Q 29.296 107.39 31.450 106.10 z M 33.288 105.64 Q 34.804 104.65 34.804 103.42 Q 34.804 102.77 34.299 102.37 Q 33.793 101.97 32.966 101.97 Q 32.167 101.97 31.669 102.36 Q 31.171 102.76 31.171 103.38 Q 31.171 103.99 31.622 104.47 Q 32.072 104.95 33.288 105.64 z M 32.233 106.68 Q 31.362 107.36 31.051 107.86 Q 30.739 108.36 30.739 109.11 Q 30.739 110.04 31.340 110.61 Q 31.940 111.19 32.922 111.19 Q 33.867 111.19 34.464 110.70 Q 35.061 110.21 35.061 109.42 Q 35.061 108.79 34.691 108.36 Q 34.321 107.92 33.259 107.29 z M 42.187 112.27 Q 40.510 112.27 39.473 110.69 Q 38.437 109.11 38.437 106.57 Q 38.437 104.01 39.481 102.45 Q 40.524 100.89 42.231 100.89 Q 43.938 100.89 44.981 102.45 Q 46.025 104.01 46.025 106.55 Q 46.025 109.16 44.981 110.71 Q 43.938 112.27 42.187 112.27 z M 42.202 111.19 Q 44.494 111.19 44.494 106.53 Q 44.494 101.97 42.231 101.97 Q 39.975 101.97 39.975 106.57 Q 39.975 111.19 42.202 111.19 z" />
      </g>
    </g>
    <clipPath id="clip36">
      <path id="path324" d="M 0.0000 0.0000 L 0.0000 396.00 L 619.00 396.00 L 619.00 0.0000 z" />
    </clipPath>
    <g id="g326" clip-path="url(#clip36)">
      <g id="g328" stroke="#000000" stroke-opacity="1.0000" fill="none" stroke-linecap="butt" stroke-width="2.0000">
        <path id="path330" d="M 51.477 106.72 L 54.477 106.72" />
      </g>
    </g>
    <clipPath id="clip37">
      <path id="path333" d="M 0.0000 0.0000 L 0.0000 396.00 L 619.00 396.00 L 619.00 0.0000 z" />
    </clipPath>
    <g id="g335" clip-path="url(#clip37)">
      <g id="g337" fill="#000000" stroke="none" fill-rule="nonzero" fill-opacity="1.0000">
        <path id="path339" d="M 21.256 51.000 L 21.256 49.916 L 23.424 49.916 L 23.424 41.361 L 21.256 41.903 L 21.256 40.790 L 24.874 39.889 L 24.874 49.916 L 27.042 49.916 L 27.042 51.000 z M 33.187 51.271 Q 31.510 51.271 30.473 49.693 Q 29.437 48.114 29.437 45.573 Q 29.437 43.009 30.481 41.449 Q 31.524 39.889 33.231 39.889 Q 34.938 39.889 35.981 41.449 Q 37.025 43.009 37.025 45.551 Q 37.025 48.158 35.981 49.715 Q 34.938 51.271 33.187 51.271 z M 33.202 50.187 Q 35.494 50.187 35.494 45.529 Q 35.494 40.973 33.231 40.973 Q 30.975 40.973 30.975 45.573 Q 30.975 50.187 33.202 50.187 z M 42.672 51.271 Q 40.995 51.271 39.958 49.693 Q 38.922 48.114 38.922 45.573 Q 38.922 43.009 39.966 41.449 Q 41.009 39.889 42.716 39.889 Q 44.422 39.889 45.466 41.449 Q 46.510 43.009 46.510 45.551 Q 46.510 48.158 45.466 49.715 Q 44.422 51.271 42.672 51.271 z M 42.687 50.187 Q 44.979 50.187 44.979 45.529 Q 44.979 40.973 42.716 40.973 Q 40.460 40.973 40.460 45.573 Q 40.460 50.187 42.687 50.187 z" />
      </g>
    </g>
    <clipPath id="clip38">
      <path id="path342" d="M 0.0000 0.0000 L 0.0000 396.00 L 619.00 396.00 L 619.00 0.0000 z" />
    </clipPath>
    <g id="g344" clip-path="url(#clip38)">
      <g id="g346" stroke="#000000" stroke-opacity="1.0000" fill="none" stroke-linecap="butt" stroke-width="2.0000">
        <path id="path348" d="M 51.477 45.372 L 54.477 45.372" />
      </g>
    </g>
    <clipPath id="clip39">
      <path id="path351" d="M 0.0000 0.0000 L 0.0000 396.00 L 619.00 396.00 L 619.00 0.0000 z" />
    </clipPath>
    <g id="g353" clip-path="url(#clip39)">
      <g id="g355" stroke="#c0c0c0" stroke-opacity="1.0000" fill="none" stroke-linecap="round" stroke-linejoin="round">
        <path id="path357" d="M 1.9459 0.0000 L 1.9459 396.00" />
      </g>
    </g>
    <clipPath id="clip40">
      <path id="path360" d="M 0.0000 0.0000 L 0.0000 396.00 L 619.00 396.00 L 619.00 0.0000 z" />
    </clipPath>
    <g id="g362" clip-path="url(#clip40)">
      <g id="g364" stroke="#c0c0c0" stroke-opacity="1.0000" fill="none" stroke-linecap="round" stroke-linejoin="round">
        <path id="path366" d="M 107.01 0.0000 L 107.01 352.09" />
      </g>
    </g>
    <clipPath id="clip41">
      <path id="path369" d="M 0.0000 0.0000 L 0.0000 396.00 L 619.00 396.00 L 619.00 0.0000 z" />
    </clipPath>
    <g id="g371" clip-path="url(#clip41)">
      <g id="g373" stroke="#c0c0c0" stroke-opacity="1.0000" fill="none" stroke-linecap="round" stroke-linejoin="round">
        <path id="path375" d="M 107.01 378.09 L 107.01 396.00" />
      </g>
    </g>
    <clipPath id="clip42">
      <path id="path378" d="M 0.0000 0.0000 L 0.0000 396.00 L 619.00 396.00 L 619.00 0.0000 z" />
    </clipPath>
    <g id="g380" clip-path="url(#clip42)">
      <g id="g382" stroke="#c0c0c0" stroke-opacity="1.0000" fill="none" stroke-linecap="round" stroke-linejoin="round">
        <path id="path384" d="M 159.54 0.0000 L 159.54 352.09" />
      </g>
    </g>
    <clipPath id="clip43">
      <path id="path387" d="M 0.0000 0.0000 L 0.0000 396.00 L 619.00 396.00 L 619.00 0.0000 z" />
    </clipPath>
    <g id="g389" clip-path="url(#clip43)">
      <g id="g391" stroke="#c0c0c0" stroke-opacity="1.0000" fill="none" stroke-linecap="round" stroke-linejoin="round">
        <path id="path393" d="M 159.54 378.09 L 159.54 396.00" />
      </g>
    </g>
    <clipPath id="clip44">
      <path id="path396" d="M 0.0000 0.0000 L 0.0000 396.00 L 619.00 396.00 L 619.00 0.0000 z" />
    </clipPath>
    <g id="g398" clip-path="url(#clip44)">
      <g id="g400" stroke="#c0c0c0" stroke-opacity="1.0000" fill="none" stroke-linecap="round" stroke-linejoin="round">
        <path id="path402" d="M 212.07 0.0000 L 212.07 352.09" />
      </g>
    </g>
    <clipPath id="clip45">
      <path id="path405" d="M 0.0000 0.0000 L 0.0000 396.00 L 619.00 396.00 L 619.00 0.0000 z" />
    </clipPath>
    <g id="g407" clip-path="url(#clip45)">
      <g id="g409" stroke="#c0c0c0" stroke-opacity="1.0000" fill="none" stroke-linecap="round" stroke-linejoin="round">
        <path id="path411" d="M 212.07 378.09 L 212.07 396.00" />
      </g>
    </g>
    <clipPath id="clip46">
      <path id="path414" d="M 0.0000 0.0000 L 0.0000 396.00 L 619.00 396.00 L 619.00 0.0000 z" />
    </clipPath>
    <g id="g416" clip-path="url(#clip46)">
      <g id="g418" stroke="#c0c0c0" stroke-opacity="1.0000" fill="none" stroke-linecap="round" stroke-linejoin="round">
        <path id="path420" d="M 264.60 0.0000 L 264.60 352.09" />
      </g>
    </g>
    <clipPath id="clip47">
      <path id="path423" d="M 0.0000 0.0000 L 0.0000 396.00 L 619.00 396.00 L 619.00 0.0000 z" />
    </clipPath>
    <g id="g425" clip-path="url(#clip47)">
      <g id="g427" stroke="#c0c0c0" stroke-opacity="1.0000" fill="none" stroke-linecap="round" stroke-linejoin="round">
        <path id="path429" d="M 264.60 378.09 L 264.60 396.00" />
      </g>
    </g>
    <clipPath id="clip48">
      <path id="path432" d="M 0.0000 0.0000 L 0.0000 396.00 L 619.00 396.00 L 619.00 0.0000 z" />
    </clipPath>
    <g id="g434" clip-path="url(#clip48)">
      <g id="g436" stroke="#c0c0c0" stroke-opacity="1.0000" fill="none" stroke-linecap="round" stroke-linejoin="round">
        <path id="path438" d="M 317.13 0.0000 L 317.13 352.09" />
      </g>
    </g>
    <clipPath id="clip49">
      <path id="path441" d="M 0.0000 0.0000 L 0.0000 396.00 L 619.00 396.00 L 619.00 0.0000 z" />
    </clipPath>
    <g id="g443" clip-path="url(#clip49)">
      <g id="g445" stroke="#c0c0c0" stroke-opacity="1.0000" fill="none" stroke-linecap="round" stroke-linejoin="round">
        <path id="path447" d="M 317.13 378.09 L 317.13 396.00" />
      </g>
    </g>
    <clipPath id="clip50">
      <path id="path450" d="M 0.0000 0.0000 L 0.0000 396.00 L 619.00 396.00 L 619.00 0.0000 z" />
    </clipPath>
    <g id="g452" clip-path="url(#clip50)">
      <g id="g454" stroke="#c0c0c0" stroke-opacity="1.0000" fill="none" stroke-linecap="round" stroke-linejoin="round">
        <path id="path456" d="M 369.67 0.0000 L 369.67 352.09" />
      </g>
    </g>
    <clipPath id="clip51">
      <path id="path459" d="M 0.0000 0.0000 L 0.0000 396.00 L 619.00 396.00 L 619.00 0.0000 z" />
    </clipPath>
    <g id="g461" clip-path="url(#clip51)">
      <g id="g463" stroke="#c0c0c0" stroke-opacity="1.0000" fill="none" stroke-linecap="round" stroke-linejoin="round">
        <path id="path465" d="M 369.67 378.09 L 369.67 396.00" />
      </g>
    </g>
    <clipPath id="clip52">
      <path id="path468" d="M 0.0000 0.0000 L 0.0000 396.00 L 619.00 396.00 L 619.00 0.0000 z" />
    </clipPath>
    <g id="g470" clip-path="url(#clip52)">
      <g id="g472" stroke="#c0c0c0" stroke-opacity="1.0000" fill="none" stroke-linecap="round" stroke-linejoin="round">
        <path id="path474" d="M 422.20 0.0000 L 422.20 352.09" />
      </g>
    </g>
    <clipPath id="clip53">
      <path id="path477" d="M 0.0000 0.0000 L 0.0000 396.00 L 619.00 396.00 L 619.00 0.0000 z" />
    </clipPath>
    <g id="g479" clip-path="url(#clip53)">
      <g id="g481" stroke="#c0c0c0" stroke-opacity="1.0000" fill="none" stroke-linecap="round" stroke-linejoin="round">
        <path id="path483" d="M 422.20 378.09 L 422.20 396.00" />
      </g>
    </g>
    <clipPath id="clip54">
      <path id="path486" d="M 0.0000 0.0000 L 0.0000 396.00 L 619.00 396.00 L 619.00 0.0000 z" />
    </clipPath>
    <g id="g488" clip-path="url(#clip54)">
      <g id="g490" stroke="#c0c0c0" stroke-opacity="1.0000" fill="none" stroke-linecap="round" stroke-linejoin="round">
        <path id="path492" d="M 474.73 0.0000 L 474.73 352.09" />
      </g>
    </g>
    <clipPath id="clip55">
      <path id="path495" d="M 0.0000 0.0000 L 0.0000 396.00 L 619.00 396.00 L 619.00 0.0000 z" />
    </clipPath>
    <g id="g497" clip-path="url(#clip55)">
      <g id="g499" stroke="#c0c0c0" stroke-opacity="1.0000" fill="none" stroke-linecap="round" stroke-linejoin="round">
        <path id="path501" d="M 474.73 378.09 L 474.73 396.00" />
      </g>
    </g>
    <clipPath id="clip56">
      <path id="path504" d="M 0.0000 0.0000 L 0.0000 396.00 L 619.00 396.00 L 619.00 0.0000 z" />
    </clipPath>
    <g id="g506" clip-path="url(#clip56)">
      <g id="g508" stroke="#c0c0c0" stroke-opacity="1.0000" fill="none" stroke-linecap="round" stroke-linejoin="round">
        <path id="path510" d="M 527.26 0.0000 L 527.26 352.09" />
      </g>
    </g>
    <clipPath id="clip57">
      <path id="path513" d="M 0.0000 0.0000 L 0.0000 396.00 L 619.00 396.00 L 619.00 0.0000 z" />
    </clipPath>
    <g id="g515" clip-path="url(#clip57)">
      <g id="g517" stroke="#c0c0c0" stroke-opacity="1.0000" fill="none" stroke-linecap="round" stroke-linejoin="round">
        <path id="path519" d="M 527.26 378.09 L 527.26 396.00" />
      </g>
    </g>
    <clipPath id="clip58">
      <path id="path522" d="M 0.0000 0.0000 L 0.0000 396.00 L 619.00 396.00 L 619.00 0.0000 z" />
    </clipPath>
    <g id="g524" clip-path="url(#clip58)">
      <g id="g526" stroke="#c0c0c0" stroke-opacity="1.0000" fill="none" stroke-linecap="round" stroke-linejoin="round">
        <path id="path528" d="M 579.79 0.0000 L 579.79 352.09" />
      </g>
    </g>
    <clipPath id="clip59">
      <path id="path531" d="M 0.0000 0.0000 L 0.0000 396.00 L 619.00 396.00 L 619.00 0.0000 z" />
    </clipPath>
    <g id="g533" clip-path="url(#clip59)">
      <g id="g535" stroke="#c0c0c0" stroke-opacity="1.0000" fill="none" stroke-linecap="round" stroke-linejoin="round">
        <path id="path537" d="M 579.79 378.09 L 579.79 396.00" />
      </g>
    </g>
    <clipPath id="clip60">
      <path id="path540" d="M 0.0000 0.0000 L 0.0000 396.00 L 619.00 396.00 L 619.00 0.0000 z" />
    </clipPath>
    <g id="g542" clip-path="url(#clip60)">
      <g id="g544" stroke="#c0c0c0" stroke-opacity="1.0000" fill="none" stroke-linecap="round" stroke-linejoin="round">
        <path id="path546" d="M 0.0000 45.372 L 16.023 45.372" />
      </g>
    </g>
    <clipPath id="clip61">
      <path id="path549" d="M 0.0000 0.0000 L 0.0000 396.00 L 619.00 396.00 L 619.00 0.0000 z" />
    </clipPath>
    <g id="g551" clip-path="url(#clip61)">
      <g id="g553" stroke="#c0c0c0" stroke-opacity="1.0000" fill="none" stroke-linecap="round" stroke-linejoin="round">
        <path id="path555" d="M 54.477 45.372 L 619.00 45.372" />
      </g>
    </g>
    <clipPath id="clip62">
      <path id="path558" d="M 0.0000 0.0000 L 0.0000 396.00 L 619.00 396.00 L 619.00 0.0000 z" />
    </clipPath>
    <g id="g560" clip-path="url(#clip62)">
      <g id="g562" stroke="#c0c0c0" stroke-opacity="1.0000" fill="none" stroke-linecap="round" stroke-linejoin="round">
        <path id="path564" d="M 0.0000 45.372 L 16.023 45.372" />
      </g>
    </g>
    <clipPath id="clip63">
      <path id="path567" d="M 0.0000 0.0000 L 0.0000 396.00 L 619.00 396.00 L 619.00 0.0000 z" />
    </clipPath>
    <g id="g569" clip-path="url(#clip63)">
      <g id="g571" stroke="#c0c0c0" stroke-opacity="1.0000" fill="none" stroke-linecap="round" stroke-linejoin="round">
        <path id="path573" d="M 54.477 45.372 L 619.00 45.372" />
      </g>
    </g>
    <clipPath id="clip64">
      <path id="path576" d="M 0.0000 0.0000 L 0.0000 396.00 L 619.00 396.00 L 619.00 0.0000 z" />
    </clipPath>
    <g id="g578" clip-path="url(#clip64)">
      <g id="g580" stroke="#c0c0c0" stroke-opacity="1.0000" fill="none" stroke-linecap="round" stroke-linejoin="round">
        <path id="path582" d="M 0.0000 106.72 L 16.023 106.72" />
      </g>
    </g>
    <clipPath id="clip65">
      <path id="path585" d="M 0.0000 0.0000 L 0.0000 396.00 L 619.00 396.00 L 619.00 0.0000 z" />
    </clipPath>
    <g id="g587" clip-path="url(#clip65)">
      <g id="g589" stroke="#c0c0c0" stroke-opacity="1.0000" fill="none" stroke-linecap="round" stroke-linejoin="round">
        <path id="path591" d="M 54.477 106.72 L 619.00 106.72" />
      </g>
    </g>
    <clipPath id="clip66">
      <path id="path594" d="M 0.0000 0.0000 L 0.0000 396.00 L 619.00 396.00 L 619.00 0.0000 z" />
    </clipPath>
    <g id="g596" clip-path="url(#clip66)">
      <g id="g598" stroke="#c0c0c0" stroke-opacity="1.0000" fill="none" stroke-linecap="round" stroke-linejoin="round">
        <path id="path600" d="M 0.0000 168.06 L 16.023 168.06" />
      </g>
    </g>
    <clipPath id="clip67">
      <path id="path603" d="M 0.0000 0.0000 L 0.0000 396.00 L 619.00 396.00 L 619.00 0.0000 z" />
    </clipPath>
    <g id="g605" clip-path="url(#clip67)">
      <g id="g607" stroke="#c0c0c0" stroke-opacity="1.0000" fill="none" stroke-linecap="round" stroke-linejoin="round">
        <path id="path609" d="M 54.477 168.06 L 619.00 168.06" />
      </g>
    </g>
    <clipPath id="clip68">
      <path id="path612" d="M 0.0000 0.0000 L 0.0000 396.00 L 619.00 396.00 L 619.00 0.0000 z" />
    </clipPath>
    <g id="g614" clip-path="url(#clip68)">
      <g id="g616" stroke="#c0c0c0" stroke-opacity="1.0000" fill="none" stroke-linecap="round" stroke-linejoin="round">
        <path id="path618" d="M 0.0000 229.40 L 16.023 229.40" />
      </g>
    </g>
    <clipPath id="clip69">
      <path id="path621" d="M 0.0000 0.0000 L 0.0000 396.00 L 619.00 396.00 L 619.00 0.0000 z" />
    </clipPath>
    <g id="g623" clip-path="url(#clip69)">
      <g id="g625" stroke="#c0c0c0" stroke-opacity="1.0000" fill="none" stroke-linecap="round" stroke-linejoin="round">
        <path id="path627" d="M 54.477 229.40 L 619.00 229.40" />
      </g>
    </g>
    <clipPath id="clip70">
      <path id="path630" d="M 0.0000 0.0000 L 0.0000 396.00 L 619.00 396.00 L 619.00 0.0000 z" />
    </clipPath>
    <g id="g632" clip-path="url(#clip70)">
      <g id="g634" stroke="#c0c0c0" stroke-opacity="1.0000" fill="none" stroke-linecap="round" stroke-linejoin="round">
        <path id="path636" d="M 0.0000 290.75 L 16.023 290.75" />
      </g>
    </g>
    <clipPath id="clip71">
      <path id="path639" d="M 0.0000 0.0000 L 0.0000 396.00 L 619.00 396.00 L 619.00 0.0000 z" />
    </clipPath>
    <g id="g641" clip-path="url(#clip71)">
      <g id="g643" stroke="#c0c0c0" stroke-opacity="1.0000" fill="none" stroke-linecap="round" stroke-linejoin="round">
        <path id="path645" d="M 54.477 290.75 L 619.00 290.75" />
      </g>
    </g>
    <g id="misc" />
    <g id="layer0">
      <clipPath id="clip72">
        <path id="path650" d="M 0.0000 0.0000 L 0.0000 396.00 L 619.00 396.00 L 619.00 0.0000 z" />
      </clipPath>
      <g id="g652" clip-path="url(#clip72)">
        <g id="g654" stroke="#0000ff" stroke-opacity="1.0000" fill="none" stroke-linecap="round" stroke-width="3.5000" stroke-linejoin="round">
          <path id="path656" d="M -5.0000 379.15 L 624.00 11.892" />
          <title id="title658">Line f</title>
          <desc id="desc660">f: y = 0.5x + 2.5</desc>
        </g>
      </g>
      <clipPath id="clip73">
        <path id="path663" d="M 0.0000 0.0000 L 0.0000 396.00 L 619.00 396.00 L 619.00 0.0000 z" />
      </clipPath>
      <g id="g665" clip-path="url(#clip73)">
        <g id="g667" stroke="#000000" stroke-opacity="1.0000" fill="none" stroke-linecap="butt" stroke-width="3.5000" stroke-dasharray="11.500,8.0000" stroke-linejoin="round">
          <path id="path669" d="M 54.477 45.372 L 566.66 45.372" />
          <title id="title671">Segment g</title>
          <desc id="desc673">Segment g: Segment [E, D]</desc>
        </g>
      </g>
      <clipPath id="clip74">
        <path id="path676" d="M 0.0000 0.0000 L 0.0000 396.00 L 619.00 396.00 L 619.00 0.0000 z" />
      </clipPath>
      <g id="g678" clip-path="url(#clip74)">
        <g id="g680" stroke="#000000" stroke-opacity="1.0000" fill="none" stroke-linecap="butt" stroke-width="3.5000" stroke-dasharray="11.500,8.0000" stroke-linejoin="round">
          <path id="path682" d="M 566.66 45.372 L 566.66 352.09" />
          <title id="title684">Segment h</title>
          <desc id="desc686">Segment h: Segment [D, F]</desc>
        </g>
      </g>
      <clipPath id="clip75">
        <path id="path689" d="M 0.0000 0.0000 L 0.0000 396.00 L 619.00 396.00 L 619.00 0.0000 z" />
      </clipPath>
      <g id="g691" clip-path="url(#clip75)">
        <g id="g693" stroke="#000000" stroke-opacity="1.0000" fill="none" stroke-linecap="butt" stroke-width="3.5000" stroke-dasharray="11.500,8.0000" stroke-linejoin="round">
          <path id="path695" d="M 54.477 306.08 L 120.14 306.08" />
          <title id="title697">Segment i</title>
          <desc id="desc699">Segment i: Segment [I, A]</desc>
        </g>
      </g>
      <clipPath id="clip76">
        <path id="path702" d="M 0.0000 0.0000 L 0.0000 396.00 L 619.00 396.00 L 619.00 0.0000 z" />
      </clipPath>
      <g id="g704" clip-path="url(#clip76)">
        <g id="g706" stroke="#000000" stroke-opacity="1.0000" fill="none" stroke-linecap="butt" stroke-width="3.5000" stroke-dasharray="11.500,8.0000" stroke-linejoin="round">
          <path id="path708" d="M 120.14 306.08 L 120.14 352.09" />
          <title id="title710">Segment j</title>
          <desc id="desc712">Segment j: Segment [A, H]</desc>
        </g>
      </g>
      <clipPath id="clip77">
        <path id="path715" d="M 0.0000 0.0000 L 0.0000 396.00 L 619.00 396.00 L 619.00 0.0000 z" />
      </clipPath>
      <g id="g717" clip-path="url(#clip77)">
        <g id="g719" fill="#000000" stroke="none" fill-rule="nonzero" fill-opacity="1.0000">
          <path id="path721" d="M 125.14 306.08 C 125.14 308.85 122.90 311.08 120.14 311.08 C 117.38 311.08 115.14 308.85 115.14 306.08 C 115.14 303.32 117.38 301.08 120.14 301.08 C 122.90 301.08 125.14 303.32 125.14 306.08 z" />
          <title id="title723">Point A</title>
          <desc id="desc725">Point A: Point on f</desc>
        </g>
      </g>
      <clipPath id="clip78">
        <path id="path728" d="M 0.0000 0.0000 L 0.0000 396.00 L 619.00 396.00 L 619.00 0.0000 z" />
      </clipPath>
      <g id="g730" clip-path="url(#clip78)">
        <g id="g732" stroke="#000000" stroke-opacity="1.0000" fill="none" stroke-linecap="round" stroke-linejoin="round">
          <path id="path734" d="M 125.14 306.08 C 125.14 308.85 122.90 311.08 120.14 311.08 C 117.38 311.08 115.14 308.85 115.14 306.08 C 115.14 303.32 117.38 301.08 120.14 301.08 C 122.90 301.08 125.14 303.32 125.14 306.08 z" />
          <title id="title736">Point A</title>
          <desc id="desc738">Point A: Point on f</desc>
        </g>
      </g>
      <clipPath id="clip79">
        <path id="path741" d="M 0.0000 0.0000 L 0.0000 396.00 L 619.00 396.00 L 619.00 0.0000 z" />
      </clipPath>
      <g id="g743" clip-path="url(#clip79)">
        <g id="g745" fill="#000000" stroke="none" fill-rule="nonzero" fill-opacity="1.0000">
          <path id="path747" d="M 57.477 344.42 C 57.477 346.08 56.134 347.42 54.477 347.42 C 52.820 347.42 51.477 346.08 51.477 344.42 C 51.477 342.77 52.820 341.42 54.477 341.42 C 56.134 341.42 57.477 342.77 57.477 344.42 z" />
          <title id="title749">Point G</title>
          <desc id="desc751">Point G: Intersection point of f, yAxis</desc>
        </g>
      </g>
      <clipPath id="clip80">
        <path id="path754" d="M 0.0000 0.0000 L 0.0000 396.00 L 619.00 396.00 L 619.00 0.0000 z" />
      </clipPath>
      <g id="g756" clip-path="url(#clip80)">
        <g id="g758" stroke="#000000" stroke-opacity="1.0000" fill="none" stroke-linecap="round" stroke-linejoin="round">
          <path id="path760" d="M 57.477 344.42 C 57.477 346.08 56.134 347.42 54.477 347.42 C 52.820 347.42 51.477 346.08 51.477 344.42 C 51.477 342.77 52.820 341.42 54.477 341.42 C 56.134 341.42 57.477 342.77 57.477 344.42 z" />
          <title id="title762">Point G</title>
          <desc id="desc764">Point G: Intersection point of f, yAxis</desc>
        </g>
      </g>
      <clipPath id="clip81">
        <path id="path767" d="M 0.0000 0.0000 L 0.0000 396.00 L 619.00 396.00 L 619.00 0.0000 z" />
      </clipPath>
      <g id="g769" clip-path="url(#clip81)">
        <g id="g771" fill="#000000" stroke="none" fill-rule="nonzero" fill-opacity="1.0000">
          <path id="path773" d="M 571.66 45.372 C 571.66 48.134 569.42 50.372 566.66 50.372 C 563.90 50.372 561.66 48.134 561.66 45.372 C 561.66 42.611 563.90 40.372 566.66 40.372 C 569.42 40.372 571.66 42.611 571.66 45.372 z" />
          <title id="title775">Point D</title>
          <desc id="desc777">D = (195, 100)</desc>
        </g>
      </g>
      <clipPath id="clip82">
        <path id="path780" d="M 0.0000 0.0000 L 0.0000 396.00 L 619.00 396.00 L 619.00 0.0000 z" />
      </clipPath>
      <g id="g782" clip-path="url(#clip82)">
        <g id="g784" stroke="#000000" stroke-opacity="1.0000" fill="none" stroke-linecap="round" stroke-linejoin="round">
          <path id="path786" d="M 571.66 45.372 C 571.66 48.134 569.42 50.372 566.66 50.372 C 563.90 50.372 561.66 48.134 561.66 45.372 C 561.66 42.611 563.90 40.372 566.66 40.372 C 569.42 40.372 571.66 42.611 571.66 45.372 z" />
          <title id="title788">Point D</title>
          <desc id="desc790">D = (195, 100)</desc>
        </g>
      </g>
      <clipPath id="clip83">
        <path id="path793" d="M 0.0000 0.0000 L 0.0000 396.00 L 619.00 396.00 L 619.00 0.0000 z" />
      </clipPath>
      <g id="g795" clip-path="url(#clip83)">
        <g id="g797" fill="#000000" stroke="none" fill-rule="nonzero" fill-opacity="1.0000">
          <path id="path799" d="M 59.477 45.372 C 59.477 48.134 57.239 50.372 54.477 50.372 C 51.716 50.372 49.477 48.134 49.477 45.372 C 49.477 42.611 51.716 40.372 54.477 40.372 C 57.239 40.372 59.477 42.611 59.477 45.372 z" />
          <title id="title801">Point E</title>
          <desc id="desc803">Point E: Point on yAxis</desc>
        </g>
      </g>
      <clipPath id="clip84">
        <path id="path806" d="M 0.0000 0.0000 L 0.0000 396.00 L 619.00 396.00 L 619.00 0.0000 z" />
      </clipPath>
      <g id="g808" clip-path="url(#clip84)">
        <g id="g810" stroke="#000000" stroke-opacity="1.0000" fill="none" stroke-linecap="round" stroke-linejoin="round">
          <path id="path812" d="M 59.477 45.372 C 59.477 48.134 57.239 50.372 54.477 50.372 C 51.716 50.372 49.477 48.134 49.477 45.372 C 49.477 42.611 51.716 40.372 54.477 40.372 C 57.239 40.372 59.477 42.611 59.477 45.372 z" />
          <title id="title814">Point E</title>
          <desc id="desc816">Point E: Point on yAxis</desc>
        </g>
      </g>
      <clipPath id="clip85">
        <path id="path819" d="M 0.0000 0.0000 L 0.0000 396.00 L 619.00 396.00 L 619.00 0.0000 z" />
      </clipPath>
      <g id="g821" clip-path="url(#clip85)">
        <g id="g823" fill="#000000" stroke="none" fill-rule="nonzero" fill-opacity="1.0000">
          <path id="path825" d="M 571.66 352.09 C 571.66 354.85 569.42 357.09 566.66 357.09 C 563.90 357.09 561.66 354.85 561.66 352.09 C 561.66 349.33 563.90 347.09 566.66 347.09 C 569.42 347.09 571.66 349.33 571.66 352.09 z" />
          <title id="title827">Point F</title>
          <desc id="desc829">F = (195, 0)</desc>
        </g>
      </g>
      <clipPath id="clip86">
        <path id="path832" d="M 0.0000 0.0000 L 0.0000 396.00 L 619.00 396.00 L 619.00 0.0000 z" />
      </clipPath>
      <g id="g834" clip-path="url(#clip86)">
        <g id="g836" stroke="#000000" stroke-opacity="1.0000" fill="none" stroke-linecap="round" stroke-linejoin="round">
          <path id="path838" d="M 571.66 352.09 C 571.66 354.85 569.42 357.09 566.66 357.09 C 563.90 357.09 561.66 354.85 561.66 352.09 C 561.66 349.33 563.90 347.09 566.66 347.09 C 569.42 347.09 571.66 349.33 571.66 352.09 z" />
          <title id="title840">Point F</title>
          <desc id="desc842">F = (195, 0)</desc>
        </g>
      </g>
      <clipPath id="clip87">
        <path id="path845" d="M 0.0000 0.0000 L 0.0000 396.00 L 619.00 396.00 L 619.00 0.0000 z" />
      </clipPath>
      <g id="g847" clip-path="url(#clip87)">
        <g id="g849" fill="#000000" stroke="none" fill-rule="nonzero" fill-opacity="1.0000">
          <path id="path851" d="M 125.14 352.09 C 125.14 354.85 122.90 357.09 120.14 357.09 C 117.38 357.09 115.14 354.85 115.14 352.09 C 115.14 349.33 117.38 347.09 120.14 347.09 C 122.90 347.09 125.14 349.33 125.14 352.09 z" />
          <title id="title853">Point H</title>
          <desc id="desc855">H = (25, 0)</desc>
        </g>
      </g>
      <clipPath id="clip88">
        <path id="path858" d="M 0.0000 0.0000 L 0.0000 396.00 L 619.00 396.00 L 619.00 0.0000 z" />
      </clipPath>
      <g id="g860" clip-path="url(#clip88)">
        <g id="g862" stroke="#000000" stroke-opacity="1.0000" fill="none" stroke-linecap="round" stroke-linejoin="round">
          <path id="path864" d="M 125.14 352.09 C 125.14 354.85 122.90 357.09 120.14 357.09 C 117.38 357.09 115.14 354.85 115.14 352.09 C 115.14 349.33 117.38 347.09 120.14 347.09 C 122.90 347.09 125.14 349.33 125.14 352.09 z" />
          <title id="title866">Point H</title>
          <desc id="desc868">H = (25, 0)</desc>
        </g>
      </g>
      <clipPath id="clip89">
        <path id="path871" d="M 0.0000 0.0000 L 0.0000 396.00 L 619.00 396.00 L 619.00 0.0000 z" />
      </clipPath>
      <g id="g873" clip-path="url(#clip89)">
        <g id="g875" fill="#000000" stroke="none" fill-rule="nonzero" fill-opacity="1.0000">
          <path id="path877" d="M 59.477 306.08 C 59.477 308.85 57.239 311.08 54.477 311.08 C 51.716 311.08 49.477 308.85 49.477 306.08 C 49.477 303.32 51.716 301.08 54.477 301.08 C 57.239 301.08 59.477 303.32 59.477 306.08 z" />
          <title id="title879">Point I</title>
          <desc id="desc881">I = (0, 15)</desc>
        </g>
      </g>
      <clipPath id="clip90">
        <path id="path884" d="M 0.0000 0.0000 L 0.0000 396.00 L 619.00 396.00 L 619.00 0.0000 z" />
      </clipPath>
      <g id="g886" clip-path="url(#clip90)">
        <g id="g888" stroke="#000000" stroke-opacity="1.0000" fill="none" stroke-linecap="round" stroke-linejoin="round">
          <path id="path890" d="M 59.477 306.08 C 59.477 308.85 57.239 311.08 54.477 311.08 C 51.716 311.08 49.477 308.85 49.477 306.08 C 49.477 303.32 51.716 301.08 54.477 301.08 C 57.239 301.08 59.477 303.32 59.477 306.08 z" />
          <title id="title892">Point I</title>
          <desc id="desc894">I = (0, 15)</desc>
        </g>
      </g>
    </g>
  </g>
  <g style="font-style:normal;font-variant:normal;font-weight:normal;font-stretch:normal;letter-spacing:normal;word-spacing:normal;text-anchor:start;fill:none;fill-opacity:1;fill-rule:evenodd;stroke:#000000;stroke-linecap:butt;stroke-linejoin:miter;stroke-miterlimit:10.43299961;stroke-dasharray:none;stroke-dashoffset:0;stroke-opacity:1" id="content" transform="matrix(2.5000001,0,0,-2.5000001,-318.11724,1325.9712)" xml:space="preserve" stroke-miterlimit="10.433" font-style="normal" font-variant="normal" font-weight="normal" font-stretch="normal" font-size-adjust="none" letter-spacing="normal" word-spacing="normal" ns0:text="$y = \\frac{1}{2}x+2\\frac{1}{2}$" ns0:preamble="/Users/ABaker/cmep/Inkscape/underground-inkscape-preamble.tex"><path style="fill:#000000;stroke-width:0" d="m 226.62,480.03 -0.01,0.08 -0.01,0.08 -0.01,0.07 -0.01,0.08 -0.01,0.06 -0.01,0.07 -0.01,0.06 -0.01,0.06 -0.01,0.06 -0.01,0.06 -0.01,0.05 -0.01,0.05 -0.01,0.05 -0.01,0.05 -0.02,0.05 -0.01,0.04 -0.01,0.04 -0.02,0.05 -0.01,0.04 -0.01,0.04 -0.04,0.07 -0.03,0.08 -0.04,0.07 -0.04,0.07 -0.04,0.07 -0.05,0.07 -1.77,-0.29 0.02,-0.19 c 0.11,0.01 0.3,0.05 0.43,0.05 0.66,0 0.76,-0.71 0.82,-1.24 l 0.45,-3.71 c -0.31,-0.47 -0.98,-1.2 -1.18,-1.2 -0.19,0 -0.16,0.36 -0.67,0.36 -0.16,0 -0.47,-0.13 -0.47,-0.48 0,-0.29 0.22,-0.65 0.66,-0.65 0.8,0 1.57,1.16 2.43,2.24 0.5,0.63 2.41,3.46 2.41,4.38 0,0.46 -0.3,0.73 -0.67,0.73 -0.35,0 -0.56,-0.21 -0.56,-0.47 0,-0.45 0.61,-0.56 0.61,-0.81 0,-0.22 -0.09,-0.45 -0.33,-0.89 -0.26,-0.48 -0.67,-1.19 -1.39,-2.17 z" id="path6401" /><polygon style="fill:#000000;stroke-width:0" points="239.59,480.19 239.59,480.97 232.64,480.97 232.64,480.19 " id="polygon6403" /><polygon style="fill:#000000;stroke-width:0" points="239.59,477.83 239.59,478.61 232.64,478.61 232.64,477.83 " id="polygon6405" /><path style="fill:#000000;stroke-width:0" d="m 247.65,481.19 0,0.13 c -0.66,0 -0.84,0.16 -0.84,0.54 l 0,5.3 -0.08,0.02 -1.59,-0.8 0,-0.13 0.24,0.09 c 0.16,0.06 0.31,0.11 0.4,0.11 0.19,0 0.27,-0.14 0.27,-0.44 l 0,-3.98 c 0,-0.48 -0.19,-0.67 -0.85,-0.71 l 0,-0.13 z" id="path6407" /><line style="stroke-width:0.65799999" x1="244.14999" y1="478.89999" x2="248.60001" y2="478.89999" id="line6409" /><path style="fill:#000000;stroke-width:0" d="m 248.36,472.84 -0.12,0.05 c -0.29,-0.49 -0.48,-0.59 -0.85,-0.59 l -2.08,0 1.46,1.56 c 0.79,0.83 1.14,1.5 1.14,2.2 0,0.88 -0.64,1.56 -1.64,1.56 -1.09,0 -1.66,-0.73 -1.85,-1.76 l 0.19,-0.05 c 0.35,0.87 0.66,1.15 1.3,1.15 0.76,0 1.24,-0.44 1.24,-1.25 0,-0.75 -0.32,-1.42 -1.16,-2.3 l -1.58,-1.68 0,-0.1 3.47,0 z" id="path6411" /><path style="fill:#000000;stroke-width:0" d="m 253.39,479.81 -0.23,0.65 c -0.14,0.39 -0.37,0.87 -0.89,1.15 l -1.56,-0.38 0.04,-0.22 c 0.12,0.05 0.29,0.07 0.45,0.07 0.65,0 0.95,-0.48 1.15,-1.05 l 0.39,-1.08 -0.76,-1.19 c -0.38,-0.58 -0.69,-0.7 -0.83,-0.7 -0.29,0 -0.25,0.23 -0.55,0.23 -0.3,0 -0.45,-0.24 -0.45,-0.43 0,-0.26 0.19,-0.56 0.61,-0.56 0.66,0 1,0.51 1.38,1.09 l 0.75,1.16 0.47,-1.34 c 0.15,-0.42 0.38,-0.91 0.86,-0.91 0.68,0 1.22,1.14 1.36,1.31 l -0.17,0.12 c -0.25,-0.51 -0.53,-0.67 -0.72,-0.67 -0.53,0 -0.8,1.59 -1.15,2.32 l 0.64,1.01 c 0.17,0.26 0.3,0.45 0.65,0.45 0.21,0 0.26,-0.11 0.52,-0.11 0.31,0 0.46,0.27 0.46,0.5 0,0.24 -0.2,0.38 -0.57,0.38 -0.59,0 -1.01,-0.51 -1.31,-0.99 z" id="path6413" /><polygon style="fill:#000000;stroke-width:0" points="262.16,479.01 262.16,475.92 262.94,475.92 262.94,479.01 266.02,479.01 266.02,479.79 262.94,479.79 262.94,482.87 262.16,482.87 262.16,479.79 259.08,479.79 259.08,479.01 " id="polygon6415" /><path style="fill:#000000;stroke-width:0" d="m 274.44,478.03 -0.17,0.07 c -0.38,-0.66 -0.63,-0.79 -1.13,-0.79 l -2.76,0 1.95,2.07 c 1.05,1.11 1.51,2 1.51,2.93 0,1.17 -0.85,2.08 -2.19,2.08 -1.45,0 -2.2,-0.97 -2.45,-2.35 l 0.25,-0.06 c 0.47,1.16 0.88,1.54 1.73,1.54 1.01,0 1.64,-0.59 1.64,-1.67 0,-1 -0.42,-1.9 -1.53,-3.07 l -2.1,-2.23 0,-0.14 4.61,0 z" id="path6417" /><path style="fill:#000000;stroke-width:0" d="m 279.47,481.19 0,0.13 c -0.67,0 -0.84,0.16 -0.84,0.54 l 0,5.3 -0.08,0.02 -1.59,-0.8 0,-0.13 0.24,0.09 c 0.16,0.06 0.31,0.11 0.4,0.11 0.18,0 0.26,-0.14 0.26,-0.44 l 0,-3.98 c 0,-0.48 -0.18,-0.67 -0.84,-0.71 l 0,-0.13 z" id="path6419" /><line style="stroke-width:0.65799999" x1="275.97" y1="478.89999" x2="280.42001" y2="478.89999" id="line6421" /><path style="fill:#000000;stroke-width:0" d="m 280.18,472.84 -0.12,0.05 c -0.3,-0.49 -0.48,-0.59 -0.86,-0.59 l -2.07,0 1.46,1.56 c 0.79,0.83 1.14,1.5 1.14,2.2 0,0.88 -0.64,1.56 -1.64,1.56 -1.1,0 -1.66,-0.73 -1.85,-1.76 l 0.19,-0.05 c 0.35,0.87 0.66,1.15 1.3,1.15 0.75,0 1.23,-0.44 1.23,-1.25 0,-0.75 -0.32,-1.42 -1.15,-2.3 l -1.58,-1.68 0,-0.1 3.47,0 z" id="path6423" /></g></svg>