<?xml version='1.0' ?><svg xmlns:ns0="http://www.iki.fi/pav/software/textext/" xmlns:dc="http://purl.org/dc/elements/1.1/" xmlns:cc="http://creativecommons.org/ns#" xmlns:rdf="http://www.w3.org/1999/02/22-rdf-syntax-ns#" xmlns:svg="http://www.w3.org/2000/svg" xmlns="http://www.w3.org/2000/svg" id="svg2" version="1.1" width="520.0" height="332.66559" viewBox="0.0 6.051564081947471e-6 619.0 396.0000004038462" preserveAspectRatio="none">
  <metadata id="metadata785">
    <rdf:RDF>
      <cc:Work rdf:about="">
        <dc:format>image/svg+xml</dc:format>
        <dc:type rdf:resource="http://purl.org/dc/dcmitype/StillImage" />
      </cc:Work>
    </rdf:RDF>
  </metadata>
  <defs id="defs783" />
  <title id="title4" />
  <g stroke-linejoin="miter" stroke-dashoffset="0.0000" stroke-dasharray="none" stroke-width="1.0000" stroke-miterlimit="10.000" stroke-linecap="square" id="g6">
    <clipPath id="clip1">
      <path d="M 0.0000 0.0000 L 0.0000 396.00 L 619.00 396.00 L 619.00 0.0000 z" id="path9" />
    </clipPath>
    <g clip-path="url(#clip1)" id="g11">
      <g stroke-width="2.0000" stroke-linecap="butt" fill="none" stroke-opacity="1.0000" stroke="#000000" id="g13">
        <path d="M 64.814 3.0000 L 64.814 396.00" id="path15" />
      </g>
    </g>
    <clipPath id="clip2">
      <path d="M 0.0000 0.0000 L 0.0000 396.00 L 619.00 396.00 L 619.00 0.0000 z" id="path18" />
    </clipPath>
    <g clip-path="url(#clip2)" id="g20">
      <g fill-opacity="1.0000" fill-rule="evenodd" stroke="none" fill="#000000" id="g22">
        <path d="M 64.814 2.0000 L 58.814 26.000 L 70.814 26.000" id="path24" />
      </g>
    </g>
    <clipPath id="clip3">
      <path d="M 0.0000 0.0000 L 0.0000 396.00 L 619.00 396.00 L 619.00 0.0000 z" id="path27" />
    </clipPath>
    <g clip-path="url(#clip3)" id="g29">
      <g stroke-width="2.0000" stroke-linecap="butt" fill="none" stroke-opacity="1.0000" stroke="#000000" id="g31">
        <path d="M 0.0000 344.04 L 616.00 344.04" id="path33" />
      </g>
    </g>
    <clipPath id="clip4">
      <path d="M 0.0000 0.0000 L 0.0000 396.00 L 619.00 396.00 L 619.00 0.0000 z" id="path36" />
    </clipPath>
    <g clip-path="url(#clip4)" id="g38">
      <g fill-opacity="1.0000" fill-rule="evenodd" stroke="none" fill="#000000" id="g40">
        <path d="M 617.00 344.04 L 593.00 338.04 L 593.00 350.04" id="path42" />
      </g>
    </g>
    <clipPath id="clip5">
      <path d="M 0.0000 0.0000 L 0.0000 396.00 L 619.00 396.00 L 619.00 0.0000 z" id="path45" />
    </clipPath>
    <g clip-path="url(#clip5)" id="g47">
      <g stroke-width="2.0000" stroke-linecap="butt" fill="none" stroke-opacity="1.0000" stroke="#000000" id="g49">
        <path d="M 3.6231 344.04 L 3.6231 347.04" id="path51" />
      </g>
    </g>
    <clipPath id="clip6">
      <path d="M 0.0000 0.0000 L 0.0000 396.00 L 619.00 396.00 L 619.00 0.0000 z" id="path54" />
    </clipPath>
    <g clip-path="url(#clip6)" id="g56">
      <g fill-opacity="1.0000" fill-rule="nonzero" stroke="none" fill="#000000" id="g58">
        <path d="M 74.702 363.27 Q 73.025 363.27 71.989 361.69 Q 70.952 360.11 70.952 357.57 Q 70.952 355.01 71.996 353.45 Q 73.040 351.89 74.746 351.89 Q 76.453 351.89 77.496 353.45 Q 78.540 355.01 78.540 357.55 Q 78.540 360.16 77.496 361.71 Q 76.453 363.27 74.702 363.27 z M 74.717 362.19 Q 77.009 362.19 77.009 357.53 Q 77.009 352.97 74.746 352.97 Q 72.490 352.97 72.490 357.57 Q 72.490 362.19 74.717 362.19 z" id="path60" />
      </g>
    </g>
    <clipPath id="clip7">
      <path d="M 0.0000 0.0000 L 0.0000 396.00 L 619.00 396.00 L 619.00 0.0000 z" id="path63" />
    </clipPath>
    <g clip-path="url(#clip7)" id="g65">
      <g stroke-width="2.0000" stroke-linecap="butt" fill="none" stroke-opacity="1.0000" stroke="#000000" id="g67">
        <path d="M 64.814 344.04 L 64.814 347.04" id="path69" />
      </g>
    </g>
    <clipPath id="clip8">
      <path d="M 0.0000 0.0000 L 0.0000 396.00 L 619.00 396.00 L 619.00 0.0000 z" id="path72" />
    </clipPath>
    <g clip-path="url(#clip8)" id="g74">
      <g fill-opacity="1.0000" fill-rule="nonzero" stroke="none" fill="#000000" id="g76">
        <path d="M 124.82 363.04 L 124.82 361.75 Q 125.90 362.19 126.87 362.19 Q 127.94 362.19 128.56 361.56 Q 129.17 360.93 129.17 359.82 Q 129.17 357.38 125.81 357.38 Q 125.42 357.38 125.01 357.43 L 125.01 352.16 L 130.49 352.16 L 130.49 353.42 L 126.27 353.42 L 126.27 356.28 Q 128.36 356.28 129.53 357.24 Q 130.71 358.20 130.71 359.89 Q 130.71 361.48 129.64 362.37 Q 128.57 363.27 126.68 363.27 Q 125.86 363.27 124.82 363.04 z" id="path78" />
      </g>
    </g>
    <clipPath id="clip9">
      <path d="M 0.0000 0.0000 L 0.0000 396.00 L 619.00 396.00 L 619.00 0.0000 z" id="path81" />
    </clipPath>
    <g clip-path="url(#clip9)" id="g83">
      <g stroke-width="2.0000" stroke-linecap="butt" fill="none" stroke-opacity="1.0000" stroke="#000000" id="g85">
        <path d="M 126.01 344.04 L 126.01 347.04" id="path87" />
      </g>
    </g>
    <clipPath id="clip10">
      <path d="M 0.0000 0.0000 L 0.0000 396.00 L 619.00 396.00 L 619.00 0.0000 z" id="path90" />
    </clipPath>
    <g clip-path="url(#clip10)" id="g92">
      <g fill-opacity="1.0000" fill-rule="nonzero" stroke="none" fill="#000000" id="g94">
        <path d="M 182.26 363.00 L 182.26 361.92 L 184.42 361.92 L 184.42 353.36 L 182.26 353.90 L 182.26 352.79 L 185.87 351.89 L 185.87 361.92 L 188.04 361.92 L 188.04 363.00 z M 194.19 363.27 Q 192.51 363.27 191.47 361.69 Q 190.44 360.11 190.44 357.57 Q 190.44 355.01 191.48 353.45 Q 192.52 351.89 194.23 351.89 Q 195.94 351.89 196.98 353.45 Q 198.02 355.01 198.02 357.55 Q 198.02 360.16 196.98 361.71 Q 195.94 363.27 194.19 363.27 z M 194.20 362.19 Q 196.49 362.19 196.49 357.53 Q 196.49 352.97 194.23 352.97 Q 191.98 352.97 191.98 357.57 Q 191.98 362.19 194.20 362.19 z" id="path96" />
      </g>
    </g>
    <clipPath id="clip11">
      <path d="M 0.0000 0.0000 L 0.0000 396.00 L 619.00 396.00 L 619.00 0.0000 z" id="path99" />
    </clipPath>
    <g clip-path="url(#clip11)" id="g101">
      <g stroke-width="2.0000" stroke-linecap="butt" fill="none" stroke-opacity="1.0000" stroke="#000000" id="g103">
        <path d="M 187.20 344.04 L 187.20 347.04" id="path105" />
      </g>
    </g>
    <clipPath id="clip12">
      <path d="M 0.0000 0.0000 L 0.0000 396.00 L 619.00 396.00 L 619.00 0.0000 z" id="path108" />
    </clipPath>
    <g clip-path="url(#clip12)" id="g110">
      <g fill-opacity="1.0000" fill-rule="nonzero" stroke="none" fill="#000000" id="g112">
        <path d="M 243.26 363.00 L 243.26 361.92 L 245.42 361.92 L 245.42 353.36 L 243.26 353.90 L 243.26 352.79 L 246.87 351.89 L 246.87 361.92 L 249.04 361.92 L 249.04 363.00 z M 252.31 363.04 L 252.31 361.75 Q 253.39 362.19 254.36 362.19 Q 255.43 362.19 256.04 361.56 Q 256.65 360.93 256.65 359.82 Q 256.65 357.38 253.29 357.38 Q 252.91 357.38 252.49 357.43 L 252.49 352.16 L 257.98 352.16 L 257.98 353.42 L 253.76 353.42 L 253.76 356.28 Q 255.85 356.28 257.02 357.24 Q 258.19 358.20 258.19 359.89 Q 258.19 361.48 257.12 362.37 Q 256.06 363.27 254.17 363.27 Q 253.35 363.27 252.31 363.04 z" id="path114" />
      </g>
    </g>
    <clipPath id="clip13">
      <path d="M 0.0000 0.0000 L 0.0000 396.00 L 619.00 396.00 L 619.00 0.0000 z" id="path117" />
    </clipPath>
    <g clip-path="url(#clip13)" id="g119">
      <g stroke-width="2.0000" stroke-linecap="butt" fill="none" stroke-opacity="1.0000" stroke="#000000" id="g121">
        <path d="M 248.39 344.04 L 248.39 347.04" id="path123" />
      </g>
    </g>
    <clipPath id="clip14">
      <path d="M 0.0000 0.0000 L 0.0000 396.00 L 619.00 396.00 L 619.00 0.0000 z" id="path126" />
    </clipPath>
    <g clip-path="url(#clip14)" id="g128">
      <g fill-opacity="1.0000" fill-rule="nonzero" stroke="none" fill="#000000" id="g130">
        <path d="M 304.25 363.00 L 304.25 361.73 Q 304.88 360.26 306.79 358.52 L 307.62 357.79 Q 309.22 356.34 309.22 354.92 Q 309.22 354.01 308.67 353.49 Q 308.13 352.97 307.17 352.97 Q 306.05 352.97 304.52 353.84 L 304.52 352.57 Q 305.96 351.89 307.38 351.89 Q 308.90 351.89 309.83 352.71 Q 310.75 353.53 310.75 354.88 Q 310.75 355.86 310.28 356.61 Q 309.82 357.37 308.55 358.44 L 308.00 358.92 Q 306.26 360.39 305.99 361.73 L 310.70 361.73 L 310.70 363.00 z M 317.19 363.27 Q 315.51 363.27 314.47 361.69 Q 313.44 360.11 313.44 357.57 Q 313.44 355.01 314.48 353.45 Q 315.52 351.89 317.23 351.89 Q 318.94 351.89 319.98 353.45 Q 321.02 355.01 321.02 357.55 Q 321.02 360.16 319.98 361.71 Q 318.94 363.27 317.19 363.27 z M 317.20 362.19 Q 319.49 362.19 319.49 357.53 Q 319.49 352.97 317.23 352.97 Q 314.98 352.97 314.98 357.57 Q 314.98 362.19 317.20 362.19 z" id="path132" />
      </g>
    </g>
    <clipPath id="clip15">
      <path d="M 0.0000 0.0000 L 0.0000 396.00 L 619.00 396.00 L 619.00 0.0000 z" id="path135" />
    </clipPath>
    <g clip-path="url(#clip15)" id="g137">
      <g stroke-width="2.0000" stroke-linecap="butt" fill="none" stroke-opacity="1.0000" stroke="#000000" id="g139">
        <path d="M 309.58 344.04 L 309.58 347.04" id="path141" />
      </g>
    </g>
    <clipPath id="clip16">
      <path d="M 0.0000 0.0000 L 0.0000 396.00 L 619.00 396.00 L 619.00 0.0000 z" id="path144" />
    </clipPath>
    <g clip-path="url(#clip16)" id="g146">
      <g fill-opacity="1.0000" fill-rule="nonzero" stroke="none" fill="#000000" id="g148">
        <path d="M 365.25 363.00 L 365.25 361.73 Q 365.88 360.26 367.79 358.52 L 368.62 357.79 Q 370.22 356.34 370.22 354.92 Q 370.22 354.01 369.67 353.49 Q 369.13 352.97 368.17 352.97 Q 367.05 352.97 365.52 353.84 L 365.52 352.57 Q 366.96 351.89 368.38 351.89 Q 369.90 351.89 370.83 352.71 Q 371.75 353.53 371.75 354.88 Q 371.75 355.86 371.28 356.61 Q 370.82 357.37 369.55 358.44 L 369.00 358.92 Q 367.26 360.39 366.99 361.73 L 371.70 361.73 L 371.70 363.00 z M 375.31 363.04 L 375.31 361.75 Q 376.39 362.19 377.36 362.19 Q 378.43 362.19 379.04 361.56 Q 379.65 360.93 379.65 359.82 Q 379.65 357.38 376.29 357.38 Q 375.91 357.38 375.49 357.43 L 375.49 352.16 L 380.98 352.16 L 380.98 353.42 L 376.76 353.42 L 376.76 356.28 Q 378.85 356.28 380.02 357.24 Q 381.19 358.20 381.19 359.89 Q 381.19 361.48 380.12 362.37 Q 379.06 363.27 377.17 363.27 Q 376.35 363.27 375.31 363.04 z" id="path150" />
      </g>
    </g>
    <clipPath id="clip17">
      <path d="M 0.0000 0.0000 L 0.0000 396.00 L 619.00 396.00 L 619.00 0.0000 z" id="path153" />
    </clipPath>
    <g clip-path="url(#clip17)" id="g155">
      <g stroke-width="2.0000" stroke-linecap="butt" fill="none" stroke-opacity="1.0000" stroke="#000000" id="g157">
        <path d="M 370.77 344.04 L 370.77 347.04" id="path159" />
      </g>
    </g>
    <clipPath id="clip18">
      <path d="M 0.0000 0.0000 L 0.0000 396.00 L 619.00 396.00 L 619.00 0.0000 z" id="path162" />
    </clipPath>
    <g clip-path="url(#clip18)" id="g164">
      <g fill-opacity="1.0000" fill-rule="nonzero" stroke="none" fill="#000000" id="g166">
        <path d="M 426.52 362.92 L 426.52 361.57 Q 428.08 362.19 428.97 362.19 Q 430.00 362.19 430.65 361.58 Q 431.30 360.98 431.30 360.02 Q 431.30 357.73 428.10 357.73 L 427.53 357.73 L 427.53 356.76 L 428.03 356.75 Q 431.04 356.75 431.04 354.64 Q 431.04 352.97 429.06 352.97 Q 427.97 352.97 426.67 353.58 L 426.67 352.32 Q 427.95 351.89 429.16 351.89 Q 432.49 351.89 432.49 354.40 Q 432.49 356.31 430.22 357.13 Q 432.84 357.73 432.84 360.00 Q 432.84 361.53 431.83 362.40 Q 430.82 363.27 429.06 363.27 Q 428.05 363.27 426.52 362.92 z M 439.19 363.27 Q 437.51 363.27 436.47 361.69 Q 435.44 360.11 435.44 357.57 Q 435.44 355.01 436.48 353.45 Q 437.52 351.89 439.23 351.89 Q 440.94 351.89 441.98 353.45 Q 443.02 355.01 443.02 357.55 Q 443.02 360.16 441.98 361.71 Q 440.94 363.27 439.19 363.27 z M 439.20 362.19 Q 441.49 362.19 441.49 357.53 Q 441.49 352.97 439.23 352.97 Q 436.98 352.97 436.98 357.57 Q 436.98 362.19 439.20 362.19 z" id="path168" />
      </g>
    </g>
    <clipPath id="clip19">
      <path d="M 0.0000 0.0000 L 0.0000 396.00 L 619.00 396.00 L 619.00 0.0000 z" id="path171" />
    </clipPath>
    <g clip-path="url(#clip19)" id="g173">
      <g stroke-width="2.0000" stroke-linecap="butt" fill="none" stroke-opacity="1.0000" stroke="#000000" id="g175">
        <path d="M 431.96 344.04 L 431.96 347.04" id="path177" />
      </g>
    </g>
    <clipPath id="clip20">
      <path d="M 0.0000 0.0000 L 0.0000 396.00 L 619.00 396.00 L 619.00 0.0000 z" id="path180" />
    </clipPath>
    <g clip-path="url(#clip20)" id="g182">
      <g fill-opacity="1.0000" fill-rule="nonzero" stroke="none" fill="#000000" id="g184">
        <path d="M 487.52 362.92 L 487.52 361.57 Q 489.08 362.19 489.97 362.19 Q 491.00 362.19 491.65 361.58 Q 492.30 360.98 492.30 360.02 Q 492.30 357.73 489.10 357.73 L 488.53 357.73 L 488.53 356.76 L 489.03 356.75 Q 492.04 356.75 492.04 354.64 Q 492.04 352.97 490.06 352.97 Q 488.97 352.97 487.67 353.58 L 487.67 352.32 Q 488.95 351.89 490.16 351.89 Q 493.49 351.89 493.49 354.40 Q 493.49 356.31 491.22 357.13 Q 493.84 357.73 493.84 360.00 Q 493.84 361.53 492.83 362.40 Q 491.82 363.27 490.06 363.27 Q 489.05 363.27 487.52 362.92 z M 497.31 363.04 L 497.31 361.75 Q 498.39 362.19 499.36 362.19 Q 500.43 362.19 501.04 361.56 Q 501.65 360.93 501.65 359.82 Q 501.65 357.38 498.29 357.38 Q 497.91 357.38 497.49 357.43 L 497.49 352.16 L 502.98 352.16 L 502.98 353.42 L 498.76 353.42 L 498.76 356.28 Q 500.85 356.28 502.02 357.24 Q 503.19 358.20 503.19 359.89 Q 503.19 361.48 502.12 362.37 Q 501.06 363.27 499.17 363.27 Q 498.35 363.27 497.31 363.04 z" id="path186" />
      </g>
    </g>
    <clipPath id="clip21">
      <path d="M 0.0000 0.0000 L 0.0000 396.00 L 619.00 396.00 L 619.00 0.0000 z" id="path189" />
    </clipPath>
    <g clip-path="url(#clip21)" id="g191">
      <g stroke-width="2.0000" stroke-linecap="butt" fill="none" stroke-opacity="1.0000" stroke="#000000" id="g193">
        <path d="M 493.15 344.04 L 493.15 347.04" id="path195" />
      </g>
    </g>
    <clipPath id="clip22">
      <path d="M 0.0000 0.0000 L 0.0000 396.00 L 619.00 396.00 L 619.00 0.0000 z" id="path198" />
    </clipPath>
    <g clip-path="url(#clip22)" id="g200">
      <g fill-opacity="1.0000" fill-rule="nonzero" stroke="none" fill="#000000" id="g202">
        <path d="M 552.65 363.00 L 552.65 359.93 L 547.77 359.93 L 547.77 358.84 L 552.65 352.16 L 554.00 352.16 L 554.00 358.75 L 555.45 358.75 L 555.45 359.93 L 554.00 359.93 L 554.00 363.00 z M 549.18 358.75 L 552.74 358.75 L 552.74 353.93 z M 561.19 363.27 Q 559.51 363.27 558.47 361.69 Q 557.44 360.11 557.44 357.57 Q 557.44 355.01 558.48 353.45 Q 559.52 351.89 561.23 351.89 Q 562.94 351.89 563.98 353.45 Q 565.02 355.01 565.02 357.55 Q 565.02 360.16 563.98 361.71 Q 562.94 363.27 561.19 363.27 z M 561.20 362.19 Q 563.49 362.19 563.49 357.53 Q 563.49 352.97 561.23 352.97 Q 558.98 352.97 558.98 357.57 Q 558.98 362.19 561.20 362.19 z" id="path204" />
      </g>
    </g>
    <clipPath id="clip23">
      <path d="M 0.0000 0.0000 L 0.0000 396.00 L 619.00 396.00 L 619.00 0.0000 z" id="path207" />
    </clipPath>
    <g clip-path="url(#clip23)" id="g209">
      <g stroke-width="2.0000" stroke-linecap="butt" fill="none" stroke-opacity="1.0000" stroke="#000000" id="g211">
        <path d="M 554.34 344.04 L 554.34 347.04" id="path213" />
      </g>
    </g>
    <clipPath id="clip24">
      <path d="M 0.0000 0.0000 L 0.0000 396.00 L 619.00 396.00 L 619.00 0.0000 z" id="path216" />
    </clipPath>
    <g clip-path="url(#clip24)" id="g218">
      <g fill-opacity="1.0000" fill-rule="nonzero" stroke="none" fill="#000000" id="g220">
        <path d="M 52.702 342.27 Q 51.025 342.27 49.989 340.69 Q 48.952 339.11 48.952 336.57 Q 48.952 334.01 49.996 332.45 Q 51.040 330.89 52.746 330.89 Q 54.453 330.89 55.496 332.45 Q 56.540 334.01 56.540 336.55 Q 56.540 339.16 55.496 340.71 Q 54.453 342.27 52.702 342.27 z M 52.717 341.19 Q 55.009 341.19 55.009 336.53 Q 55.009 331.97 52.746 331.97 Q 50.490 331.97 50.490 336.57 Q 50.490 341.19 52.717 341.19 z" id="path222" />
      </g>
    </g>
    <clipPath id="clip25">
      <path d="M 0.0000 0.0000 L 0.0000 396.00 L 619.00 396.00 L 619.00 0.0000 z" id="path225" />
    </clipPath>
    <g clip-path="url(#clip25)" id="g227">
      <g fill-opacity="1.0000" fill-rule="nonzero" stroke="none" fill="#000000" id="g229">
        <path d="M 39.245 290.00 L 39.245 288.73 Q 39.875 287.26 41.794 285.52 L 42.622 284.79 Q 44.218 283.34 44.218 281.92 Q 44.218 281.01 43.673 280.49 Q 43.127 279.97 42.175 279.97 Q 41.047 279.97 39.516 280.84 L 39.516 279.57 Q 40.959 278.89 42.380 278.89 Q 43.903 278.89 44.826 279.71 Q 45.749 280.53 45.749 281.88 Q 45.749 282.86 45.284 283.61 Q 44.819 284.37 43.552 285.44 L 42.995 285.92 Q 41.259 287.39 40.988 288.73 L 45.698 288.73 L 45.698 290.00 z M 52.187 290.27 Q 50.510 290.27 49.473 288.69 Q 48.437 287.11 48.437 284.57 Q 48.437 282.01 49.481 280.45 Q 50.524 278.89 52.231 278.89 Q 53.938 278.89 54.981 280.45 Q 56.025 282.01 56.025 284.55 Q 56.025 287.16 54.981 288.71 Q 53.938 290.27 52.187 290.27 z M 52.202 289.19 Q 54.494 289.19 54.494 284.53 Q 54.494 279.97 52.231 279.97 Q 49.975 279.97 49.975 284.57 Q 49.975 289.19 52.202 289.19 z" id="path231" />
      </g>
    </g>
    <clipPath id="clip26">
      <path d="M 0.0000 0.0000 L 0.0000 396.00 L 619.00 396.00 L 619.00 0.0000 z" id="path234" />
    </clipPath>
    <g clip-path="url(#clip26)" id="g236">
      <g stroke-width="2.0000" stroke-linecap="butt" fill="none" stroke-opacity="1.0000" stroke="#000000" id="g238">
        <path d="M 61.814 284.70 L 64.814 284.70" id="path240" />
      </g>
    </g>
    <clipPath id="clip27">
      <path d="M 0.0000 0.0000 L 0.0000 396.00 L 619.00 396.00 L 619.00 0.0000 z" id="path243" />
    </clipPath>
    <g clip-path="url(#clip27)" id="g245">
      <g fill-opacity="1.0000" fill-rule="nonzero" stroke="none" fill="#000000" id="g247">
        <path d="M 43.647 231.00 L 43.647 227.93 L 38.769 227.93 L 38.769 226.84 L 43.647 220.16 L 45.002 220.16 L 45.002 226.75 L 46.452 226.75 L 46.452 227.93 L 45.002 227.93 L 45.002 231.00 z M 40.183 226.75 L 43.742 226.75 L 43.742 221.93 z M 52.187 231.27 Q 50.510 231.27 49.473 229.69 Q 48.437 228.11 48.437 225.57 Q 48.437 223.01 49.481 221.45 Q 50.524 219.89 52.231 219.89 Q 53.938 219.89 54.981 221.45 Q 56.025 223.01 56.025 225.55 Q 56.025 228.16 54.981 229.71 Q 53.938 231.27 52.187 231.27 z M 52.202 230.19 Q 54.494 230.19 54.494 225.53 Q 54.494 220.97 52.231 220.97 Q 49.975 220.97 49.975 225.57 Q 49.975 230.19 52.202 230.19 z" id="path249" />
      </g>
    </g>
    <clipPath id="clip28">
      <path d="M 0.0000 0.0000 L 0.0000 396.00 L 619.00 396.00 L 619.00 0.0000 z" id="path252" />
    </clipPath>
    <g clip-path="url(#clip28)" id="g254">
      <g stroke-width="2.0000" stroke-linecap="butt" fill="none" stroke-opacity="1.0000" stroke="#000000" id="g256">
        <path d="M 61.814 225.36 L 64.814 225.36" id="path258" />
      </g>
    </g>
    <clipPath id="clip29">
      <path d="M 0.0000 0.0000 L 0.0000 396.00 L 619.00 396.00 L 619.00 0.0000 z" id="path261" />
    </clipPath>
    <g clip-path="url(#clip29)" id="g263">
      <g fill-opacity="1.0000" fill-rule="nonzero" stroke="none" fill="#000000" id="g265">
        <path d="M 40.578 166.38 Q 41.611 165.04 43.178 165.04 Q 44.599 165.04 45.504 165.98 Q 46.408 166.92 46.408 168.40 Q 46.408 170.09 45.394 171.18 Q 44.379 172.27 42.819 172.27 Q 41.025 172.27 40.014 170.83 Q 39.003 169.39 39.003 166.82 Q 39.003 164.00 40.164 162.44 Q 41.325 160.88 43.435 160.88 Q 44.401 160.88 45.852 161.29 L 45.852 162.55 Q 44.321 161.97 43.347 161.97 Q 40.578 161.97 40.578 166.38 z M 44.958 168.72 Q 44.958 167.49 44.405 166.79 Q 43.852 166.08 42.871 166.08 Q 41.955 166.08 41.296 166.70 Q 40.637 167.31 40.637 168.18 Q 40.637 169.54 41.263 170.36 Q 41.889 171.19 42.922 171.19 Q 43.852 171.19 44.405 170.52 Q 44.958 169.85 44.958 168.72 z M 52.187 172.27 Q 50.510 172.27 49.473 170.69 Q 48.437 169.11 48.437 166.57 Q 48.437 164.01 49.481 162.45 Q 50.524 160.89 52.231 160.89 Q 53.938 160.89 54.981 162.45 Q 56.025 164.01 56.025 166.55 Q 56.025 169.16 54.981 170.71 Q 53.938 172.27 52.187 172.27 z M 52.202 171.19 Q 54.494 171.19 54.494 166.53 Q 54.494 161.97 52.231 161.97 Q 49.975 161.97 49.975 166.57 Q 49.975 171.19 52.202 171.19 z" id="path267" />
      </g>
    </g>
    <clipPath id="clip30">
      <path d="M 0.0000 0.0000 L 0.0000 396.00 L 619.00 396.00 L 619.00 0.0000 z" id="path270" />
    </clipPath>
    <g clip-path="url(#clip30)" id="g272">
      <g stroke-width="2.0000" stroke-linecap="butt" fill="none" stroke-opacity="1.0000" stroke="#000000" id="g274">
        <path d="M 61.814 166.02 L 64.814 166.02" id="path276" />
      </g>
    </g>
    <clipPath id="clip31">
      <path d="M 0.0000 0.0000 L 0.0000 396.00 L 619.00 396.00 L 619.00 0.0000 z" id="path279" />
    </clipPath>
    <g clip-path="url(#clip31)" id="g281">
      <g fill-opacity="1.0000" fill-rule="nonzero" stroke="none" fill="#000000" id="g283">
        <path d="M 41.450 106.10 Q 39.860 104.99 39.860 103.65 Q 39.860 102.42 40.761 101.65 Q 41.662 100.88 43.112 100.88 Q 44.453 100.88 45.284 101.53 Q 46.115 102.19 46.115 103.23 Q 46.115 104.80 44.094 106.10 Q 46.547 107.30 46.547 109.19 Q 46.547 110.56 45.518 111.41 Q 44.489 112.27 42.863 112.27 Q 41.267 112.27 40.281 111.46 Q 39.296 110.65 39.296 109.33 Q 39.296 107.39 41.450 106.10 z M 43.288 105.64 Q 44.804 104.65 44.804 103.42 Q 44.804 102.77 44.299 102.37 Q 43.793 101.97 42.966 101.97 Q 42.167 101.97 41.669 102.36 Q 41.171 102.76 41.171 103.38 Q 41.171 103.99 41.622 104.47 Q 42.072 104.95 43.288 105.64 z M 42.233 106.68 Q 41.362 107.36 41.051 107.86 Q 40.739 108.36 40.739 109.11 Q 40.739 110.04 41.340 110.61 Q 41.940 111.19 42.922 111.19 Q 43.867 111.19 44.464 110.70 Q 45.061 110.21 45.061 109.42 Q 45.061 108.79 44.691 108.36 Q 44.321 107.92 43.259 107.29 z M 52.187 112.27 Q 50.510 112.27 49.473 110.69 Q 48.437 109.11 48.437 106.57 Q 48.437 104.01 49.481 102.45 Q 50.524 100.89 52.231 100.89 Q 53.938 100.89 54.981 102.45 Q 56.025 104.01 56.025 106.55 Q 56.025 109.16 54.981 110.71 Q 53.938 112.27 52.187 112.27 z M 52.202 111.19 Q 54.494 111.19 54.494 106.53 Q 54.494 101.97 52.231 101.97 Q 49.975 101.97 49.975 106.57 Q 49.975 111.19 52.202 111.19 z" id="path285" />
      </g>
    </g>
    <clipPath id="clip32">
      <path d="M 0.0000 0.0000 L 0.0000 396.00 L 619.00 396.00 L 619.00 0.0000 z" id="path288" />
    </clipPath>
    <g clip-path="url(#clip32)" id="g290">
      <g stroke-width="2.0000" stroke-linecap="butt" fill="none" stroke-opacity="1.0000" stroke="#000000" id="g292">
        <path d="M 61.814 106.68 L 64.814 106.68" id="path294" />
      </g>
    </g>
    <clipPath id="clip33">
      <path d="M 0.0000 0.0000 L 0.0000 396.00 L 619.00 396.00 L 619.00 0.0000 z" id="path297" />
    </clipPath>
    <g clip-path="url(#clip33)" id="g299">
      <g fill-opacity="1.0000" fill-rule="nonzero" stroke="none" fill="#000000" id="g301">
        <path d="M 31.256 53.000 L 31.256 51.916 L 33.424 51.916 L 33.424 43.361 L 31.256 43.903 L 31.256 42.790 L 34.874 41.889 L 34.874 51.916 L 37.042 51.916 L 37.042 53.000 z M 43.187 53.271 Q 41.510 53.271 40.473 51.693 Q 39.437 50.114 39.437 47.573 Q 39.437 45.009 40.481 43.449 Q 41.524 41.889 43.231 41.889 Q 44.938 41.889 45.981 43.449 Q 47.025 45.009 47.025 47.551 Q 47.025 50.158 45.981 51.715 Q 44.938 53.271 43.187 53.271 z M 43.202 52.187 Q 45.494 52.187 45.494 47.529 Q 45.494 42.973 43.231 42.973 Q 40.975 42.973 40.975 47.573 Q 40.975 52.187 43.202 52.187 z M 52.672 53.271 Q 50.995 53.271 49.958 51.693 Q 48.922 50.114 48.922 47.573 Q 48.922 45.009 49.966 43.449 Q 51.009 41.889 52.716 41.889 Q 54.422 41.889 55.466 43.449 Q 56.510 45.009 56.510 47.551 Q 56.510 50.158 55.466 51.715 Q 54.422 53.271 52.672 53.271 z M 52.687 52.187 Q 54.979 52.187 54.979 47.529 Q 54.979 42.973 52.716 42.973 Q 50.460 42.973 50.460 47.573 Q 50.460 52.187 52.687 52.187 z" id="path303" />
      </g>
    </g>
    <clipPath id="clip34">
      <path d="M 0.0000 0.0000 L 0.0000 396.00 L 619.00 396.00 L 619.00 0.0000 z" id="path306" />
    </clipPath>
    <g clip-path="url(#clip34)" id="g308">
      <g stroke-width="2.0000" stroke-linecap="butt" fill="none" stroke-opacity="1.0000" stroke="#000000" id="g310">
        <path d="M 61.814 47.338 L 64.814 47.338" id="path312" />
      </g>
    </g>
    <clipPath id="clip35">
      <path d="M 0.0000 0.0000 L 0.0000 396.00 L 619.00 396.00 L 619.00 0.0000 z" id="path315" />
    </clipPath>
    <g clip-path="url(#clip35)" id="g317">
      <g stroke-linejoin="round" stroke-linecap="round" fill="none" stroke-opacity="1.0000" stroke="#c0c0c0" id="g319">
        <path d="M 3.6231 0.0000 L 3.6231 396.00" id="path321" />
      </g>
    </g>
    <clipPath id="clip36">
      <path d="M 0.0000 0.0000 L 0.0000 396.00 L 619.00 396.00 L 619.00 0.0000 z" id="path324" />
    </clipPath>
    <g clip-path="url(#clip36)" id="g326">
      <g stroke-linejoin="round" stroke-linecap="round" fill="none" stroke-opacity="1.0000" stroke="#c0c0c0" id="g328">
        <path d="M 126.01 0.0000 L 126.01 344.04" id="path330" />
      </g>
    </g>
    <clipPath id="clip37">
      <path d="M 0.0000 0.0000 L 0.0000 396.00 L 619.00 396.00 L 619.00 0.0000 z" id="path333" />
    </clipPath>
    <g clip-path="url(#clip37)" id="g335">
      <g stroke-linejoin="round" stroke-linecap="round" fill="none" stroke-opacity="1.0000" stroke="#c0c0c0" id="g337">
        <path d="M 126.01 370.04 L 126.01 396.00" id="path339" />
      </g>
    </g>
    <clipPath id="clip38">
      <path d="M 0.0000 0.0000 L 0.0000 396.00 L 619.00 396.00 L 619.00 0.0000 z" id="path342" />
    </clipPath>
    <g clip-path="url(#clip38)" id="g344">
      <g stroke-linejoin="round" stroke-linecap="round" fill="none" stroke-opacity="1.0000" stroke="#c0c0c0" id="g346">
        <path d="M 187.20 0.0000 L 187.20 344.04" id="path348" />
      </g>
    </g>
    <clipPath id="clip39">
      <path d="M 0.0000 0.0000 L 0.0000 396.00 L 619.00 396.00 L 619.00 0.0000 z" id="path351" />
    </clipPath>
    <g clip-path="url(#clip39)" id="g353">
      <g stroke-linejoin="round" stroke-linecap="round" fill="none" stroke-opacity="1.0000" stroke="#c0c0c0" id="g355">
        <path d="M 187.20 370.04 L 187.20 396.00" id="path357" />
      </g>
    </g>
    <clipPath id="clip40">
      <path d="M 0.0000 0.0000 L 0.0000 396.00 L 619.00 396.00 L 619.00 0.0000 z" id="path360" />
    </clipPath>
    <g clip-path="url(#clip40)" id="g362">
      <g stroke-linejoin="round" stroke-linecap="round" fill="none" stroke-opacity="1.0000" stroke="#c0c0c0" id="g364">
        <path d="M 248.39 0.0000 L 248.39 344.04" id="path366" />
      </g>
    </g>
    <clipPath id="clip41">
      <path d="M 0.0000 0.0000 L 0.0000 396.00 L 619.00 396.00 L 619.00 0.0000 z" id="path369" />
    </clipPath>
    <g clip-path="url(#clip41)" id="g371">
      <g stroke-linejoin="round" stroke-linecap="round" fill="none" stroke-opacity="1.0000" stroke="#c0c0c0" id="g373">
        <path d="M 248.39 370.04 L 248.39 396.00" id="path375" />
      </g>
    </g>
    <clipPath id="clip42">
      <path d="M 0.0000 0.0000 L 0.0000 396.00 L 619.00 396.00 L 619.00 0.0000 z" id="path378" />
    </clipPath>
    <g clip-path="url(#clip42)" id="g380">
      <g stroke-linejoin="round" stroke-linecap="round" fill="none" stroke-opacity="1.0000" stroke="#c0c0c0" id="g382">
        <path d="M 309.58 0.0000 L 309.58 344.04" id="path384" />
      </g>
    </g>
    <clipPath id="clip43">
      <path d="M 0.0000 0.0000 L 0.0000 396.00 L 619.00 396.00 L 619.00 0.0000 z" id="path387" />
    </clipPath>
    <g clip-path="url(#clip43)" id="g389">
      <g stroke-linejoin="round" stroke-linecap="round" fill="none" stroke-opacity="1.0000" stroke="#c0c0c0" id="g391">
        <path d="M 309.58 370.04 L 309.58 396.00" id="path393" />
      </g>
    </g>
    <clipPath id="clip44">
      <path d="M 0.0000 0.0000 L 0.0000 396.00 L 619.00 396.00 L 619.00 0.0000 z" id="path396" />
    </clipPath>
    <g clip-path="url(#clip44)" id="g398">
      <g stroke-linejoin="round" stroke-linecap="round" fill="none" stroke-opacity="1.0000" stroke="#c0c0c0" id="g400">
        <path d="M 370.77 0.0000 L 370.77 344.04" id="path402" />
      </g>
    </g>
    <clipPath id="clip45">
      <path d="M 0.0000 0.0000 L 0.0000 396.00 L 619.00 396.00 L 619.00 0.0000 z" id="path405" />
    </clipPath>
    <g clip-path="url(#clip45)" id="g407">
      <g stroke-linejoin="round" stroke-linecap="round" fill="none" stroke-opacity="1.0000" stroke="#c0c0c0" id="g409">
        <path d="M 370.77 370.04 L 370.77 396.00" id="path411" />
      </g>
    </g>
    <clipPath id="clip46">
      <path d="M 0.0000 0.0000 L 0.0000 396.00 L 619.00 396.00 L 619.00 0.0000 z" id="path414" />
    </clipPath>
    <g clip-path="url(#clip46)" id="g416">
      <g stroke-linejoin="round" stroke-linecap="round" fill="none" stroke-opacity="1.0000" stroke="#c0c0c0" id="g418">
        <path d="M 431.96 0.0000 L 431.96 344.04" id="path420" />
      </g>
    </g>
    <clipPath id="clip47">
      <path d="M 0.0000 0.0000 L 0.0000 396.00 L 619.00 396.00 L 619.00 0.0000 z" id="path423" />
    </clipPath>
    <g clip-path="url(#clip47)" id="g425">
      <g stroke-linejoin="round" stroke-linecap="round" fill="none" stroke-opacity="1.0000" stroke="#c0c0c0" id="g427">
        <path d="M 431.96 370.04 L 431.96 396.00" id="path429" />
      </g>
    </g>
    <clipPath id="clip48">
      <path d="M 0.0000 0.0000 L 0.0000 396.00 L 619.00 396.00 L 619.00 0.0000 z" id="path432" />
    </clipPath>
    <g clip-path="url(#clip48)" id="g434">
      <g stroke-linejoin="round" stroke-linecap="round" fill="none" stroke-opacity="1.0000" stroke="#c0c0c0" id="g436">
        <path d="M 493.15 0.0000 L 493.15 344.04" id="path438" />
      </g>
    </g>
    <clipPath id="clip49">
      <path d="M 0.0000 0.0000 L 0.0000 396.00 L 619.00 396.00 L 619.00 0.0000 z" id="path441" />
    </clipPath>
    <g clip-path="url(#clip49)" id="g443">
      <g stroke-linejoin="round" stroke-linecap="round" fill="none" stroke-opacity="1.0000" stroke="#c0c0c0" id="g445">
        <path d="M 493.15 370.04 L 493.15 396.00" id="path447" />
      </g>
    </g>
    <clipPath id="clip50">
      <path d="M 0.0000 0.0000 L 0.0000 396.00 L 619.00 396.00 L 619.00 0.0000 z" id="path450" />
    </clipPath>
    <g clip-path="url(#clip50)" id="g452">
      <g stroke-linejoin="round" stroke-linecap="round" fill="none" stroke-opacity="1.0000" stroke="#c0c0c0" id="g454">
        <path d="M 554.34 0.0000 L 554.34 344.04" id="path456" />
      </g>
    </g>
    <clipPath id="clip51">
      <path d="M 0.0000 0.0000 L 0.0000 396.00 L 619.00 396.00 L 619.00 0.0000 z" id="path459" />
    </clipPath>
    <g clip-path="url(#clip51)" id="g461">
      <g stroke-linejoin="round" stroke-linecap="round" fill="none" stroke-opacity="1.0000" stroke="#c0c0c0" id="g463">
        <path d="M 554.34 370.04 L 554.34 396.00" id="path465" />
      </g>
    </g>
    <clipPath id="clip52">
      <path d="M 0.0000 0.0000 L 0.0000 396.00 L 619.00 396.00 L 619.00 0.0000 z" id="path468" />
    </clipPath>
    <g clip-path="url(#clip52)" id="g470">
      <g stroke-linejoin="round" stroke-linecap="round" fill="none" stroke-opacity="1.0000" stroke="#c0c0c0" id="g472">
        <path d="M 615.54 0.0000 L 615.54 396.00" id="path474" />
      </g>
    </g>
    <clipPath id="clip53">
      <path d="M 0.0000 0.0000 L 0.0000 396.00 L 619.00 396.00 L 619.00 0.0000 z" id="path477" />
    </clipPath>
    <g clip-path="url(#clip53)" id="g479">
      <g stroke-linejoin="round" stroke-linecap="round" fill="none" stroke-opacity="1.0000" stroke="#c0c0c0" id="g481">
        <path d="M 0.0000 47.338 L 26.360 47.338" id="path483" />
      </g>
    </g>
    <clipPath id="clip54">
      <path d="M 0.0000 0.0000 L 0.0000 396.00 L 619.00 396.00 L 619.00 0.0000 z" id="path486" />
    </clipPath>
    <g clip-path="url(#clip54)" id="g488">
      <g stroke-linejoin="round" stroke-linecap="round" fill="none" stroke-opacity="1.0000" stroke="#c0c0c0" id="g490">
        <path d="M 64.814 47.338 L 619.00 47.338" id="path492" />
      </g>
    </g>
    <clipPath id="clip55">
      <path d="M 0.0000 0.0000 L 0.0000 396.00 L 619.00 396.00 L 619.00 0.0000 z" id="path495" />
    </clipPath>
    <g clip-path="url(#clip55)" id="g497">
      <g stroke-linejoin="round" stroke-linecap="round" fill="none" stroke-opacity="1.0000" stroke="#c0c0c0" id="g499">
        <path d="M 0.0000 47.338 L 26.360 47.338" id="path501" />
      </g>
    </g>
    <clipPath id="clip56">
      <path d="M 0.0000 0.0000 L 0.0000 396.00 L 619.00 396.00 L 619.00 0.0000 z" id="path504" />
    </clipPath>
    <g clip-path="url(#clip56)" id="g506">
      <g stroke-linejoin="round" stroke-linecap="round" fill="none" stroke-opacity="1.0000" stroke="#c0c0c0" id="g508">
        <path d="M 64.814 47.338 L 619.00 47.338" id="path510" />
      </g>
    </g>
    <clipPath id="clip57">
      <path d="M 0.0000 0.0000 L 0.0000 396.00 L 619.00 396.00 L 619.00 0.0000 z" id="path513" />
    </clipPath>
    <g clip-path="url(#clip57)" id="g515">
      <g stroke-linejoin="round" stroke-linecap="round" fill="none" stroke-opacity="1.0000" stroke="#c0c0c0" id="g517">
        <path d="M 0.0000 106.68 L 26.360 106.68" id="path519" />
      </g>
    </g>
    <clipPath id="clip58">
      <path d="M 0.0000 0.0000 L 0.0000 396.00 L 619.00 396.00 L 619.00 0.0000 z" id="path522" />
    </clipPath>
    <g clip-path="url(#clip58)" id="g524">
      <g stroke-linejoin="round" stroke-linecap="round" fill="none" stroke-opacity="1.0000" stroke="#c0c0c0" id="g526">
        <path d="M 64.814 106.68 L 619.00 106.68" id="path528" />
      </g>
    </g>
    <clipPath id="clip59">
      <path d="M 0.0000 0.0000 L 0.0000 396.00 L 619.00 396.00 L 619.00 0.0000 z" id="path531" />
    </clipPath>
    <g clip-path="url(#clip59)" id="g533">
      <g stroke-linejoin="round" stroke-linecap="round" fill="none" stroke-opacity="1.0000" stroke="#c0c0c0" id="g535">
        <path d="M 0.0000 166.02 L 26.360 166.02" id="path537" />
      </g>
    </g>
    <clipPath id="clip60">
      <path d="M 0.0000 0.0000 L 0.0000 396.00 L 619.00 396.00 L 619.00 0.0000 z" id="path540" />
    </clipPath>
    <g clip-path="url(#clip60)" id="g542">
      <g stroke-linejoin="round" stroke-linecap="round" fill="none" stroke-opacity="1.0000" stroke="#c0c0c0" id="g544">
        <path d="M 64.814 166.02 L 619.00 166.02" id="path546" />
      </g>
    </g>
    <clipPath id="clip61">
      <path d="M 0.0000 0.0000 L 0.0000 396.00 L 619.00 396.00 L 619.00 0.0000 z" id="path549" />
    </clipPath>
    <g clip-path="url(#clip61)" id="g551">
      <g stroke-linejoin="round" stroke-linecap="round" fill="none" stroke-opacity="1.0000" stroke="#c0c0c0" id="g553">
        <path d="M 0.0000 225.36 L 26.360 225.36" id="path555" />
      </g>
    </g>
    <clipPath id="clip62">
      <path d="M 0.0000 0.0000 L 0.0000 396.00 L 619.00 396.00 L 619.00 0.0000 z" id="path558" />
    </clipPath>
    <g clip-path="url(#clip62)" id="g560">
      <g stroke-linejoin="round" stroke-linecap="round" fill="none" stroke-opacity="1.0000" stroke="#c0c0c0" id="g562">
        <path d="M 64.814 225.36 L 619.00 225.36" id="path564" />
      </g>
    </g>
    <clipPath id="clip63">
      <path d="M 0.0000 0.0000 L 0.0000 396.00 L 619.00 396.00 L 619.00 0.0000 z" id="path567" />
    </clipPath>
    <g clip-path="url(#clip63)" id="g569">
      <g stroke-linejoin="round" stroke-linecap="round" fill="none" stroke-opacity="1.0000" stroke="#c0c0c0" id="g571">
        <path d="M 0.0000 284.70 L 26.360 284.70" id="path573" />
      </g>
    </g>
    <clipPath id="clip64">
      <path d="M 0.0000 0.0000 L 0.0000 396.00 L 619.00 396.00 L 619.00 0.0000 z" id="path576" />
    </clipPath>
    <g clip-path="url(#clip64)" id="g578">
      <g stroke-linejoin="round" stroke-linecap="round" fill="none" stroke-opacity="1.0000" stroke="#c0c0c0" id="g580">
        <path d="M 64.814 284.70 L 619.00 284.70" id="path582" />
      </g>
    </g>
    <g id="misc" />
    <g id="layer0">
      <clipPath id="clip65">
        <path d="M 0.0000 0.0000 L 0.0000 396.00 L 619.00 396.00 L 619.00 0.0000 z" id="path587" />
      </clipPath>
      <g clip-path="url(#clip65)" id="g589">
        <g stroke-linejoin="round" stroke-width="3.5000" stroke-linecap="round" fill="none" stroke-opacity="1.0000" stroke="#0000ff" id="g591">
          <path d="M -5.0000 345.09 L 624.00 268.84" id="path593" />
          <title id="title595">Line f</title>
          <desc id="desc597">f: y = 0.5x + 2.5</desc>
        </g>
      </g>
      <clipPath id="clip66">
        <path d="M 0.0000 0.0000 L 0.0000 396.00 L 619.00 396.00 L 619.00 0.0000 z" id="path600" />
      </clipPath>
      <g clip-path="url(#clip66)" id="g602">
        <g stroke-linejoin="round" stroke-width="3.5000" stroke-linecap="round" fill="none" stroke-opacity="1.0000" stroke="#0000ff" id="g604">
          <path d="M 9.8388 401.00 L 424.18 -5.0000" id="path606" />
          <title id="title608">Line k</title>
          <desc id="desc610">Line k: Line through (1, 3), (25, 100)</desc>
        </g>
      </g>
      <clipPath id="clip67">
        <path d="M 0.0000 0.0000 L 0.0000 396.00 L 619.00 396.00 L 619.00 0.0000 z" id="path613" />
      </clipPath>
      <g clip-path="url(#clip67)" id="g615">
        <g stroke-linejoin="round" stroke-dasharray="11.500,8.0000" stroke-width="3.5000" stroke-linecap="butt" fill="none" stroke-opacity="1.0000" stroke="#000000" id="g617">
          <path d="M 370.77 299.54 L 370.77 344.04" id="path619" />
          <title id="title621">Segment j</title>
          <desc id="desc623">Segment j: Segment [A, H]</desc>
        </g>
      </g>
      <clipPath id="clip68">
        <path d="M 0.0000 0.0000 L 0.0000 396.00 L 619.00 396.00 L 619.00 0.0000 z" id="path626" />
      </clipPath>
      <g clip-path="url(#clip68)" id="g628">
        <g stroke-linejoin="round" stroke-dasharray="11.500,8.0000" stroke-width="3.5000" stroke-linecap="butt" fill="none" stroke-opacity="1.0000" stroke="#000000" id="g630">
          <path d="M 370.77 47.338 L 64.814 47.338" id="path632" />
          <title id="title634">Segment g</title>
          <desc id="desc636">Segment g: Segment [I, E]</desc>
        </g>
      </g>
      <clipPath id="clip69">
        <path d="M 0.0000 0.0000 L 0.0000 396.00 L 619.00 396.00 L 619.00 0.0000 z" id="path639" />
      </clipPath>
      <g clip-path="url(#clip69)" id="g641">
        <g stroke-linejoin="round" stroke-dasharray="11.500,8.0000" stroke-width="3.5000" stroke-linecap="butt" fill="none" stroke-opacity="1.0000" stroke="#000000" id="g643">
          <path d="M 370.77 47.338 L 370.77 299.54" id="path645" />
          <title id="title647">Segment h</title>
          <desc id="desc649">Segment h: Segment [I, A]</desc>
        </g>
      </g>
      <clipPath id="clip70">
        <path d="M 0.0000 0.0000 L 0.0000 396.00 L 619.00 396.00 L 619.00 0.0000 z" id="path652" />
      </clipPath>
      <g clip-path="url(#clip70)" id="g654">
        <g fill-opacity="1.0000" fill-rule="nonzero" stroke="none" fill="#000000" id="g656">
          <path d="M 375.77 299.54 C 375.77 302.30 373.53 304.54 370.77 304.54 C 368.01 304.54 365.77 302.30 365.77 299.54 C 365.77 296.77 368.01 294.54 370.77 294.54 C 373.53 294.54 375.77 296.77 375.77 299.54 z" id="path658" />
          <title id="title660">Point A</title>
          <desc id="desc662">Point A: Point on f</desc>
        </g>
      </g>
      <clipPath id="clip71">
        <path d="M 0.0000 0.0000 L 0.0000 396.00 L 619.00 396.00 L 619.00 0.0000 z" id="path665" />
      </clipPath>
      <g clip-path="url(#clip71)" id="g667">
        <g stroke-linejoin="round" stroke-linecap="round" fill="none" stroke-opacity="1.0000" stroke="#000000" id="g669">
          <path d="M 375.77 299.54 C 375.77 302.30 373.53 304.54 370.77 304.54 C 368.01 304.54 365.77 302.30 365.77 299.54 C 365.77 296.77 368.01 294.54 370.77 294.54 C 373.53 294.54 375.77 296.77 375.77 299.54 z" id="path671" />
          <title id="title673">Point A</title>
          <desc id="desc675">Point A: Point on f</desc>
        </g>
      </g>
      <clipPath id="clip72">
        <path d="M 0.0000 0.0000 L 0.0000 396.00 L 619.00 396.00 L 619.00 0.0000 z" id="path678" />
      </clipPath>
      <g clip-path="url(#clip72)" id="g680">
        <g fill-opacity="1.0000" fill-rule="nonzero" stroke="none" fill="#000000" id="g682">
          <path d="M 69.814 47.338 C 69.814 50.099 67.576 52.338 64.814 52.338 C 62.053 52.338 59.814 50.099 59.814 47.338 C 59.814 44.576 62.053 42.338 64.814 42.338 C 67.576 42.338 69.814 44.576 69.814 47.338 z" id="path684" />
          <title id="title686">Point E</title>
          <desc id="desc688">Point E: Point on yAxis</desc>
        </g>
      </g>
      <clipPath id="clip73">
        <path d="M 0.0000 0.0000 L 0.0000 396.00 L 619.00 396.00 L 619.00 0.0000 z" id="path691" />
      </clipPath>
      <g clip-path="url(#clip73)" id="g693">
        <g stroke-linejoin="round" stroke-linecap="round" fill="none" stroke-opacity="1.0000" stroke="#000000" id="g695">
          <path d="M 69.814 47.338 C 69.814 50.099 67.576 52.338 64.814 52.338 C 62.053 52.338 59.814 50.099 59.814 47.338 C 59.814 44.576 62.053 42.338 64.814 42.338 C 67.576 42.338 69.814 44.576 69.814 47.338 z" id="path697" />
          <title id="title699">Point E</title>
          <desc id="desc701">Point E: Point on yAxis</desc>
        </g>
      </g>
      <clipPath id="clip74">
        <path d="M 0.0000 0.0000 L 0.0000 396.00 L 619.00 396.00 L 619.00 0.0000 z" id="path704" />
      </clipPath>
      <g clip-path="url(#clip74)" id="g706">
        <g fill-opacity="1.0000" fill-rule="nonzero" stroke="none" fill="#000000" id="g708">
          <path d="M 375.77 344.04 C 375.77 346.80 373.53 349.04 370.77 349.04 C 368.01 349.04 365.77 346.80 365.77 344.04 C 365.77 341.28 368.01 339.04 370.77 339.04 C 373.53 339.04 375.77 341.28 375.77 344.04 z" id="path710" />
          <title id="title712">Point H</title>
          <desc id="desc714">H = (25, 0)</desc>
        </g>
      </g>
      <clipPath id="clip75">
        <path d="M 0.0000 0.0000 L 0.0000 396.00 L 619.00 396.00 L 619.00 0.0000 z" id="path717" />
      </clipPath>
      <g clip-path="url(#clip75)" id="g719">
        <g stroke-linejoin="round" stroke-linecap="round" fill="none" stroke-opacity="1.0000" stroke="#000000" id="g721">
          <path d="M 375.77 344.04 C 375.77 346.80 373.53 349.04 370.77 349.04 C 368.01 349.04 365.77 346.80 365.77 344.04 C 365.77 341.28 368.01 339.04 370.77 339.04 C 373.53 339.04 375.77 341.28 375.77 344.04 z" id="path723" />
          <title id="title725">Point H</title>
          <desc id="desc727">H = (25, 0)</desc>
        </g>
      </g>
      <clipPath id="clip76">
        <path d="M 0.0000 0.0000 L 0.0000 396.00 L 619.00 396.00 L 619.00 0.0000 z" id="path730" />
      </clipPath>
      <g clip-path="url(#clip76)" id="g732">
        <g fill-opacity="1.0000" fill-rule="nonzero" stroke="none" fill="#000000" id="g734">
          <path d="M 82.053 335.14 C 82.053 337.90 79.814 340.14 77.053 340.14 C 74.291 340.14 72.053 337.90 72.053 335.14 C 72.053 332.38 74.291 330.14 77.053 330.14 C 79.814 330.14 82.053 332.38 82.053 335.14 z" id="path736" />
          <title id="title738">Point G</title>
          <desc id="desc740">Point G: Intersection point of f, k</desc>
        </g>
      </g>
      <clipPath id="clip77">
        <path d="M 0.0000 0.0000 L 0.0000 396.00 L 619.00 396.00 L 619.00 0.0000 z" id="path743" />
      </clipPath>
      <g clip-path="url(#clip77)" id="g745">
        <g stroke-linejoin="round" stroke-linecap="round" fill="none" stroke-opacity="1.0000" stroke="#000000" id="g747">
          <path d="M 82.053 335.14 C 82.053 337.90 79.814 340.14 77.053 340.14 C 74.291 340.14 72.053 337.90 72.053 335.14 C 72.053 332.38 74.291 330.14 77.053 330.14 C 79.814 330.14 82.053 332.38 82.053 335.14 z" id="path749" />
          <title id="title751">Point G</title>
          <desc id="desc753">Point G: Intersection point of f, k</desc>
        </g>
      </g>
      <clipPath id="clip78">
        <path d="M 0.0000 0.0000 L 0.0000 396.00 L 619.00 396.00 L 619.00 0.0000 z" id="path756" />
      </clipPath>
      <g clip-path="url(#clip78)" id="g758">
        <g fill-opacity="1.0000" fill-rule="nonzero" stroke="none" fill="#000000" id="g760">
          <path d="M 375.77 47.338 C 375.77 50.099 373.53 52.338 370.77 52.338 C 368.01 52.338 365.77 50.099 365.77 47.338 C 365.77 44.576 368.01 42.338 370.77 42.338 C 373.53 42.338 375.77 44.576 375.77 47.338 z" id="path762" />
          <title id="title764">Point I</title>
          <desc id="desc766">I = (25, 100)</desc>
        </g>
      </g>
      <clipPath id="clip79">
        <path d="M 0.0000 0.0000 L 0.0000 396.00 L 619.00 396.00 L 619.00 0.0000 z" id="path769" />
      </clipPath>
      <g clip-path="url(#clip79)" id="g771">
        <g stroke-linejoin="round" stroke-linecap="round" fill="none" stroke-opacity="1.0000" stroke="#000000" id="g773">
          <path d="M 375.77 47.338 C 375.77 50.099 373.53 52.338 370.77 52.338 C 368.01 52.338 365.77 50.099 365.77 47.338 C 365.77 44.576 368.01 42.338 370.77 42.338 C 373.53 42.338 375.77 44.576 375.77 47.338 z" id="path775" />
          <title id="title777">Point I</title>
          <desc id="desc779">I = (25, 100)</desc>
        </g>
      </g>
    </g>
  </g>
  <g ns0:preamble="/Users/ABaker/cmep/Inkscape/underground-inkscape-preamble.tex" ns0:text="$y = \\frac{1}{2}x+2\\frac{1}{2}$" word-spacing="normal" letter-spacing="normal" font-size-adjust="none" font-stretch="normal" font-weight="normal" font-variant="normal" font-style="normal" stroke-miterlimit="10.433" xml:space="preserve" transform="matrix(2.5000001,0,0,-2.5000001,-133.07139,1449.8959)" id="content" style="font-style:normal;font-variant:normal;font-weight:normal;font-stretch:normal;letter-spacing:normal;word-spacing:normal;text-anchor:start;fill:none;fill-opacity:1;fill-rule:evenodd;stroke:#000000;stroke-linecap:butt;stroke-linejoin:miter;stroke-miterlimit:10.43299961;stroke-dasharray:none;stroke-dashoffset:0;stroke-opacity:1"><path id="path6401" d="m 226.62,480.03 -0.01,0.08 -0.01,0.08 -0.01,0.07 -0.01,0.08 -0.01,0.06 -0.01,0.07 -0.01,0.06 -0.01,0.06 -0.01,0.06 -0.01,0.06 -0.01,0.05 -0.01,0.05 -0.01,0.05 -0.01,0.05 -0.02,0.05 -0.01,0.04 -0.01,0.04 -0.02,0.05 -0.01,0.04 -0.01,0.04 -0.04,0.07 -0.03,0.08 -0.04,0.07 -0.04,0.07 -0.04,0.07 -0.05,0.07 -1.77,-0.29 0.02,-0.19 c 0.11,0.01 0.3,0.05 0.43,0.05 0.66,0 0.76,-0.71 0.82,-1.24 l 0.45,-3.71 c -0.31,-0.47 -0.98,-1.2 -1.18,-1.2 -0.19,0 -0.16,0.36 -0.67,0.36 -0.16,0 -0.47,-0.13 -0.47,-0.48 0,-0.29 0.22,-0.65 0.66,-0.65 0.8,0 1.57,1.16 2.43,2.24 0.5,0.63 2.41,3.46 2.41,4.38 0,0.46 -0.3,0.73 -0.67,0.73 -0.35,0 -0.56,-0.21 -0.56,-0.47 0,-0.45 0.61,-0.56 0.61,-0.81 0,-0.22 -0.09,-0.45 -0.33,-0.89 -0.26,-0.48 -0.67,-1.19 -1.39,-2.17 z" style="fill:#000000;stroke-width:0" /><polygon id="polygon6403" points="239.59,480.19 239.59,480.97 232.64,480.97 232.64,480.19 " style="fill:#000000;stroke-width:0" /><polygon id="polygon6405" points="239.59,477.83 239.59,478.61 232.64,478.61 232.64,477.83 " style="fill:#000000;stroke-width:0" /><path id="path6407" d="m 247.65,481.19 0,0.13 c -0.66,0 -0.84,0.16 -0.84,0.54 l 0,5.3 -0.08,0.02 -1.59,-0.8 0,-0.13 0.24,0.09 c 0.16,0.06 0.31,0.11 0.4,0.11 0.19,0 0.27,-0.14 0.27,-0.44 l 0,-3.98 c 0,-0.48 -0.19,-0.67 -0.85,-0.71 l 0,-0.13 z" style="fill:#000000;stroke-width:0" /><line id="line6409" y2="478.89999" x2="248.60001" y1="478.89999" x1="244.14999" style="stroke-width:0.65799999" /><path id="path6411" d="m 248.36,472.84 -0.12,0.05 c -0.29,-0.49 -0.48,-0.59 -0.85,-0.59 l -2.08,0 1.46,1.56 c 0.79,0.83 1.14,1.5 1.14,2.2 0,0.88 -0.64,1.56 -1.64,1.56 -1.09,0 -1.66,-0.73 -1.85,-1.76 l 0.19,-0.05 c 0.35,0.87 0.66,1.15 1.3,1.15 0.76,0 1.24,-0.44 1.24,-1.25 0,-0.75 -0.32,-1.42 -1.16,-2.3 l -1.58,-1.68 0,-0.1 3.47,0 z" style="fill:#000000;stroke-width:0" /><path id="path6413" d="m 253.39,479.81 -0.23,0.65 c -0.14,0.39 -0.37,0.87 -0.89,1.15 l -1.56,-0.38 0.04,-0.22 c 0.12,0.05 0.29,0.07 0.45,0.07 0.65,0 0.95,-0.48 1.15,-1.05 l 0.39,-1.08 -0.76,-1.19 c -0.38,-0.58 -0.69,-0.7 -0.83,-0.7 -0.29,0 -0.25,0.23 -0.55,0.23 -0.3,0 -0.45,-0.24 -0.45,-0.43 0,-0.26 0.19,-0.56 0.61,-0.56 0.66,0 1,0.51 1.38,1.09 l 0.75,1.16 0.47,-1.34 c 0.15,-0.42 0.38,-0.91 0.86,-0.91 0.68,0 1.22,1.14 1.36,1.31 l -0.17,0.12 c -0.25,-0.51 -0.53,-0.67 -0.72,-0.67 -0.53,0 -0.8,1.59 -1.15,2.32 l 0.64,1.01 c 0.17,0.26 0.3,0.45 0.65,0.45 0.21,0 0.26,-0.11 0.52,-0.11 0.31,0 0.46,0.27 0.46,0.5 0,0.24 -0.2,0.38 -0.57,0.38 -0.59,0 -1.01,-0.51 -1.31,-0.99 z" style="fill:#000000;stroke-width:0" /><polygon id="polygon6415" points="262.16,479.01 262.16,475.92 262.94,475.92 262.94,479.01 266.02,479.01 266.02,479.79 262.94,479.79 262.94,482.87 262.16,482.87 262.16,479.79 259.08,479.79 259.08,479.01 " style="fill:#000000;stroke-width:0" /><path id="path6417" d="m 274.44,478.03 -0.17,0.07 c -0.38,-0.66 -0.63,-0.79 -1.13,-0.79 l -2.76,0 1.95,2.07 c 1.05,1.11 1.51,2 1.51,2.93 0,1.17 -0.85,2.08 -2.19,2.08 -1.45,0 -2.2,-0.97 -2.45,-2.35 l 0.25,-0.06 c 0.47,1.16 0.88,1.54 1.73,1.54 1.01,0 1.64,-0.59 1.64,-1.67 0,-1 -0.42,-1.9 -1.53,-3.07 l -2.1,-2.23 0,-0.14 4.61,0 z" style="fill:#000000;stroke-width:0" /><path id="path6419" d="m 279.47,481.19 0,0.13 c -0.67,0 -0.84,0.16 -0.84,0.54 l 0,5.3 -0.08,0.02 -1.59,-0.8 0,-0.13 0.24,0.09 c 0.16,0.06 0.31,0.11 0.4,0.11 0.18,0 0.26,-0.14 0.26,-0.44 l 0,-3.98 c 0,-0.48 -0.18,-0.67 -0.84,-0.71 l 0,-0.13 z" style="fill:#000000;stroke-width:0" /><line id="line6421" y2="478.89999" x2="280.42001" y1="478.89999" x1="275.97" style="stroke-width:0.65799999" /><path id="path6423" d="m 280.18,472.84 -0.12,0.05 c -0.3,-0.49 -0.48,-0.59 -0.86,-0.59 l -2.07,0 1.46,1.56 c 0.79,0.83 1.14,1.5 1.14,2.2 0,0.88 -0.64,1.56 -1.64,1.56 -1.1,0 -1.66,-0.73 -1.85,-1.76 l 0.19,-0.05 c 0.35,0.87 0.66,1.15 1.3,1.15 0.75,0 1.23,-0.44 1.23,-1.25 0,-0.75 -0.32,-1.42 -1.15,-2.3 l -1.58,-1.68 0,-0.1 3.47,0 z" style="fill:#000000;stroke-width:0" /></g>  <g style="font-style:normal;font-variant:normal;font-weight:normal;font-stretch:normal;letter-spacing:normal;word-spacing:normal;text-anchor:start;fill:none;fill-opacity:1;fill-rule:evenodd;stroke:#000000;stroke-linecap:butt;stroke-linejoin:miter;stroke-miterlimit:10.43299961;stroke-dasharray:none;stroke-dashoffset:0;stroke-opacity:1" id="g4589" transform="matrix(2.5,0,0,-2.5,-177.30383,1268.65)" xml:space="preserve" stroke-miterlimit="10.433" font-style="normal" font-variant="normal" font-weight="normal" font-stretch="normal" font-size-adjust="none" letter-spacing="normal" word-spacing="normal" ns0:text="$y = \\frac{97}{24}x - \\frac{25}{24}$" ns0:preamble="/Users/ABaker/cmep/Inkscape/underground-inkscape-preamble.tex"><path style="fill:#000000;stroke-width:0" d="m 226.62,479.93 -0.01,0.08 -0.01,0.07 -0.01,0.08 -0.01,0.07 -0.01,0.07 -0.01,0.06 -0.01,0.06 -0.01,0.07 -0.01,0.05 -0.01,0.06 -0.01,0.05 -0.01,0.05 -0.01,0.05 -0.01,0.05 -0.02,0.05 -0.01,0.04 -0.01,0.05 -0.02,0.04 -0.01,0.04 -0.01,0.04 -0.04,0.08 -0.03,0.07 -0.04,0.07 -0.04,0.07 -0.04,0.07 -0.05,0.08 -1.77,-0.3 0.02,-0.19 c 0.11,0.01 0.3,0.05 0.43,0.05 0.66,0 0.76,-0.71 0.82,-1.24 l 0.45,-3.71 c -0.31,-0.47 -0.98,-1.2 -1.18,-1.2 -0.19,0 -0.16,0.36 -0.67,0.36 -0.16,0 -0.47,-0.13 -0.47,-0.48 0,-0.28 0.22,-0.65 0.66,-0.65 0.8,0 1.57,1.16 2.43,2.25 0.5,0.62 2.41,3.45 2.41,4.38 0,0.46 -0.3,0.73 -0.67,0.73 -0.35,0 -0.56,-0.22 -0.56,-0.48 0,-0.44 0.61,-0.56 0.61,-0.81 0,-0.21 -0.09,-0.45 -0.33,-0.89 -0.26,-0.48 -0.67,-1.19 -1.39,-2.17 z" id="path4591" /><polygon style="fill:#000000;stroke-width:0" points="232.64,480.08 239.59,480.08 239.59,480.86 232.64,480.86 " id="polygon4593" /><polygon style="fill:#000000;stroke-width:0" points="232.64,477.72 239.59,477.72 239.59,478.5 232.64,478.5 " id="polygon4595" /><path style="fill:#000000;stroke-width:0" d="m 244.68,480.89 0.11,0.01 0.1,0.02 0.1,0.02 0.1,0.01 0.09,0.02 0.09,0.02 0.09,0.02 0.09,0.01 0.08,0.03 0.08,0.02 0.09,0.02 0.07,0.02 0.08,0.03 0.08,0.02 0.14,0.06 0.14,0.06 0.14,0.07 0.14,0.08 0.06,0.04 0.07,0.04 0.07,0.05 0.06,0.05 0.07,0.05 0.07,0.05 0.07,0.05 0.07,0.06 0.06,0.06 0.07,0.06 c 0.72,0.65 1.07,1.62 1.07,2.64 0,0.74 -0.21,1.38 -0.57,1.82 -0.34,0.43 -0.82,0.68 -1.39,0.68 l -0.07,-0.25 c 0.77,0 1.17,-0.76 1.17,-2.25 l 0,-0.35 c 0,-0.47 -0.65,-0.66 -1.04,-0.66 -0.67,0 -1.09,0.66 -1.09,1.72 0,0.47 0.13,1 0.31,1.24 0.15,0.19 0.38,0.3 0.65,0.3 l 0.07,0.25 c -1.06,0 -1.85,-0.9 -1.85,-2.1 0,-1.08 0.64,-1.8 1.6,-1.8 0.52,0 0.95,0.14 1.33,0.51 -0.35,-1.45 -1.35,-2.38 -2.7,-2.62 z" id="path4597" /><path style="fill:#000000;stroke-width:0" d="m 252.58,486.81 0,0.14 -3.27,0 -0.53,-1.3 0.15,-0.08 c 0.38,0.6 0.53,0.73 1.04,0.73 l 1.91,0 -1.76,-5.29 0.58,0 z" id="path4599" /><line style="stroke-width:0.65799999" x1="244.14999" y1="478.79001" x2="253.03999" y2="478.79001" id="line4601" /><path style="fill:#000000;stroke-width:0" d="m 248.36,472.73 -0.12,0.06 c -0.29,-0.5 -0.48,-0.6 -0.85,-0.6 l -2.08,0 1.46,1.56 c 0.79,0.84 1.14,1.5 1.14,2.2 0,0.88 -0.64,1.56 -1.64,1.56 -1.09,0 -1.66,-0.72 -1.85,-1.76 l 0.19,-0.05 c 0.35,0.87 0.66,1.16 1.3,1.16 0.76,0 1.24,-0.45 1.24,-1.25 0,-0.76 -0.32,-1.43 -1.16,-2.31 l -1.58,-1.67 0,-0.11 3.47,0 z" id="path4603" /><polygon style="fill:#000000;stroke-width:0" points="251.88,477.51 251.49,477.51 248.7,473.57 249.06,473.57 251.19,476.61 251.19,473.57 249.06,473.57 248.7,473.57 248.7,473 251.19,473 251.19,471.52 251.88,471.52 251.88,473 252.8,473 252.8,473.57 251.88,473.57 " id="polygon4605" /><path style="fill:#000000;stroke-width:0" d="m 257.84,479.7 -0.24,0.65 c -0.14,0.39 -0.37,0.88 -0.89,1.16 l -1.55,-0.39 0.03,-0.21 c 0.12,0.04 0.3,0.07 0.45,0.07 0.65,0 0.96,-0.49 1.16,-1.05 l 0.39,-1.09 -0.77,-1.19 c -0.38,-0.58 -0.68,-0.7 -0.83,-0.7 -0.29,0 -0.24,0.24 -0.55,0.24 -0.3,0 -0.45,-0.25 -0.45,-0.44 0,-0.26 0.19,-0.55 0.61,-0.55 0.67,0 1.01,0.5 1.38,1.08 l 0.75,1.16 0.47,-1.33 c 0.15,-0.43 0.38,-0.91 0.86,-0.91 0.69,0 1.22,1.13 1.36,1.31 l -0.16,0.11 c -0.25,-0.5 -0.54,-0.67 -0.72,-0.67 -0.54,0 -0.81,1.6 -1.16,2.33 l 0.65,1 c 0.16,0.26 0.29,0.45 0.65,0.45 0.2,0 0.26,-0.11 0.52,-0.11 0.3,0 0.46,0.27 0.46,0.5 0,0.25 -0.2,0.39 -0.58,0.39 -0.59,0 -1.01,-0.52 -1.31,-0.99 z" id="path4607" /><polygon style="fill:#000000;stroke-width:0" points="263.71,478.9 270.29,478.9 270.29,479.68 263.71,479.68 " id="polygon4609" /><path style="fill:#000000;stroke-width:0" d="m 278.7,482.3 -0.12,0.05 c -0.3,-0.49 -0.48,-0.59 -0.86,-0.59 l -2.07,0 1.46,1.56 c 0.79,0.83 1.14,1.5 1.14,2.2 0,0.87 -0.64,1.56 -1.64,1.56 -1.1,0 -1.66,-0.73 -1.85,-1.77 l 0.19,-0.04 c 0.35,0.87 0.66,1.15 1.3,1.15 0.75,0 1.23,-0.44 1.23,-1.25 0,-0.75 -0.32,-1.43 -1.15,-2.3 l -1.58,-1.68 0,-0.11 3.47,0 z" id="path4611" /><path style="fill:#000000;stroke-width:0" d="m 282.82,487.12 -0.08,0.06 c -0.14,-0.18 -0.22,-0.23 -0.42,-0.23 l -1.84,0 -0.97,-2.1 c 0,0 -0.01,-0.02 -0.01,-0.04 0,-0.06 0.03,-0.07 0.11,-0.07 0.85,0 1.47,-0.29 1.89,-0.62 0.4,-0.32 0.6,-0.77 0.6,-1.33 0,-0.77 -0.58,-1.5 -1.2,-1.5 -0.18,0 -0.38,0.08 -0.63,0.28 -0.29,0.23 -0.46,0.28 -0.66,0.28 -0.25,0 -0.4,-0.12 -0.4,-0.34 0,-0.34 0.46,-0.55 1.13,-0.55 0.6,0 1.09,0.13 1.51,0.43 0.6,0.45 0.87,1 0.87,1.85 0,0.47 -0.08,0.81 -0.31,1.12 -0.51,0.7 -0.95,0.9 -2.22,1.14 l 0.35,0.75 1.72,0 c 0.15,0 0.22,0.05 0.24,0.12 z" id="path4613" /><line style="stroke-width:0.65799999" x1="274.48999" y1="478.79001" x2="283.38" y2="478.79001" id="line4615" /><path style="fill:#000000;stroke-width:0" d="m 278.7,472.73 -0.12,0.06 c -0.3,-0.5 -0.48,-0.6 -0.86,-0.6 l -2.07,0 1.46,1.56 c 0.79,0.84 1.14,1.5 1.14,2.2 0,0.88 -0.64,1.56 -1.64,1.56 -1.1,0 -1.66,-0.72 -1.85,-1.76 l 0.19,-0.05 c 0.35,0.87 0.66,1.16 1.3,1.16 0.75,0 1.23,-0.45 1.23,-1.25 0,-0.76 -0.32,-1.43 -1.15,-2.31 l -1.58,-1.67 0,-0.11 3.47,0 z" id="path4617" /><polygon style="fill:#000000;stroke-width:0" points="282.22,477.51 281.83,477.51 279.04,473.57 279.4,473.57 281.53,476.61 281.53,473.57 279.4,473.57 279.04,473.57 279.04,473 281.53,473 281.53,471.52 282.22,471.52 282.22,473 283.13,473 283.13,473.57 282.22,473.57 " id="polygon4619" /></g></svg>