<?xml version='1.0' ?><svg xmlns:dc="http://purl.org/dc/elements/1.1/" xmlns:cc="http://creativecommons.org/ns#" xmlns:rdf="http://www.w3.org/1999/02/22-rdf-syntax-ns#" xmlns:svg="http://www.w3.org/2000/svg" xmlns="http://www.w3.org/2000/svg" id="svg598" version="1.1" width="520.0" height="332.66559" viewBox="0.0 6.051564081947471e-6 619.0 396.0000004038462" preserveAspectRatio="none">
  <metadata id="metadata604">
    <rdf:RDF>
      <cc:Work rdf:about="">
        <dc:format>image/svg+xml</dc:format>
        <dc:type rdf:resource="http://purl.org/dc/dcmitype/StillImage" />
      </cc:Work>
    </rdf:RDF>
  </metadata>
  <defs id="defs602" />
  <title id="title2" />
  <g id="g596" stroke-linecap="square" stroke-miterlimit="10.000" stroke-width="1.0000" stroke-dasharray="none" stroke-dashoffset="0.0000" stroke-linejoin="miter">
    <clipPath id="clip1">
      <path id="path4" d="M 0.0000 0.0000 L 0.0000 396.00 L 619.00 396.00 L 619.00 0.0000 z" />
    </clipPath>
    <g id="g11" clip-path="url(#clip1)">
      <g id="g9" stroke="#000000" stroke-opacity="1.0000" fill="none" stroke-linecap="butt" stroke-width="2.0000">
        <path id="path7" d="M 48.410 3.0000 L 48.410 396.00" />
      </g>
    </g>
    <clipPath id="clip2">
      <path id="path13" d="M 0.0000 0.0000 L 0.0000 396.00 L 619.00 396.00 L 619.00 0.0000 z" />
    </clipPath>
    <g id="g20" clip-path="url(#clip2)">
      <g id="g18" fill="#000000" stroke="none" fill-rule="evenodd" fill-opacity="1.0000">
        <path id="path16" d="M 48.410 2.0000 L 42.410 26.000 L 54.410 26.000" />
      </g>
    </g>
    <clipPath id="clip3">
      <path id="path22" d="M 0.0000 0.0000 L 0.0000 396.00 L 619.00 396.00 L 619.00 0.0000 z" />
    </clipPath>
    <g id="g29" clip-path="url(#clip3)">
      <g id="g27" stroke="#000000" stroke-opacity="1.0000" fill="none" stroke-linecap="butt" stroke-width="2.0000">
        <path id="path25" d="M 0.0000 351.22 L 616.00 351.22" />
      </g>
    </g>
    <clipPath id="clip4">
      <path id="path31" d="M 0.0000 0.0000 L 0.0000 396.00 L 619.00 396.00 L 619.00 0.0000 z" />
    </clipPath>
    <g id="g38" clip-path="url(#clip4)">
      <g id="g36" fill="#000000" stroke="none" fill-rule="evenodd" fill-opacity="1.0000">
        <path id="path34" d="M 617.00 351.22 L 593.00 345.22 L 593.00 357.22" />
      </g>
    </g>
    <clipPath id="clip5">
      <path id="path40" d="M 0.0000 0.0000 L 0.0000 396.00 L 619.00 396.00 L 619.00 0.0000 z" />
    </clipPath>
    <g id="g47" clip-path="url(#clip5)">
      <g id="g45" fill="#000000" stroke="none" fill-rule="nonzero" fill-opacity="1.0000">
        <path id="path43" d="M 58.702 370.27 Q 57.025 370.27 55.989 368.69 Q 54.952 367.11 54.952 364.57 Q 54.952 362.01 55.996 360.45 Q 57.040 358.89 58.746 358.89 Q 60.453 358.89 61.496 360.45 Q 62.540 362.01 62.540 364.55 Q 62.540 367.16 61.496 368.71 Q 60.453 370.27 58.702 370.27 z M 58.717 369.19 Q 61.009 369.19 61.009 364.53 Q 61.009 359.97 58.746 359.97 Q 56.490 359.97 56.490 364.57 Q 56.490 369.19 58.717 369.19 z" />
      </g>
    </g>
    <clipPath id="clip6">
      <path id="path49" d="M 0.0000 0.0000 L 0.0000 396.00 L 619.00 396.00 L 619.00 0.0000 z" />
    </clipPath>
    <g id="g56" clip-path="url(#clip6)">
      <g id="g54" stroke="#000000" stroke-opacity="1.0000" fill="none" stroke-linecap="butt" stroke-width="2.0000">
        <path id="path52" d="M 48.410 351.22 L 48.410 354.22" />
      </g>
    </g>
    <clipPath id="clip7">
      <path id="path58" d="M 0.0000 0.0000 L 0.0000 396.00 L 619.00 396.00 L 619.00 0.0000 z" />
    </clipPath>
    <g id="g65" clip-path="url(#clip7)">
      <g id="g63" fill="#000000" stroke="none" fill-rule="nonzero" fill-opacity="1.0000">
        <path id="path61" d="M 145.82 370.04 L 145.82 368.75 Q 146.90 369.19 147.87 369.19 Q 148.94 369.19 149.56 368.56 Q 150.17 367.93 150.17 366.82 Q 150.17 364.38 146.81 364.38 Q 146.42 364.38 146.01 364.43 L 146.01 359.16 L 151.49 359.16 L 151.49 360.42 L 147.27 360.42 L 147.27 363.28 Q 149.36 363.28 150.53 364.24 Q 151.71 365.20 151.71 366.89 Q 151.71 368.48 150.64 369.37 Q 149.57 370.27 147.68 370.27 Q 146.86 370.27 145.82 370.04 z" />
      </g>
    </g>
    <clipPath id="clip8">
      <path id="path67" d="M 0.0000 0.0000 L 0.0000 396.00 L 619.00 396.00 L 619.00 0.0000 z" />
    </clipPath>
    <g id="g74" clip-path="url(#clip8)">
      <g id="g72" stroke="#000000" stroke-opacity="1.0000" fill="none" stroke-linecap="butt" stroke-width="2.0000">
        <path id="path70" d="M 147.69 351.22 L 147.69 354.22" />
      </g>
    </g>
    <clipPath id="clip9">
      <path id="path76" d="M 0.0000 0.0000 L 0.0000 396.00 L 619.00 396.00 L 619.00 0.0000 z" />
    </clipPath>
    <g id="g83" clip-path="url(#clip9)">
      <g id="g81" fill="#000000" stroke="none" fill-rule="nonzero" fill-opacity="1.0000">
        <path id="path79" d="M 242.26 370.00 L 242.26 368.92 L 244.42 368.92 L 244.42 360.36 L 242.26 360.90 L 242.26 359.79 L 245.87 358.89 L 245.87 368.92 L 248.04 368.92 L 248.04 370.00 z M 254.19 370.27 Q 252.51 370.27 251.47 368.69 Q 250.44 367.11 250.44 364.57 Q 250.44 362.01 251.48 360.45 Q 252.52 358.89 254.23 358.89 Q 255.94 358.89 256.98 360.45 Q 258.02 362.01 258.02 364.55 Q 258.02 367.16 256.98 368.71 Q 255.94 370.27 254.19 370.27 z M 254.20 369.19 Q 256.49 369.19 256.49 364.53 Q 256.49 359.97 254.23 359.97 Q 251.98 359.97 251.98 364.57 Q 251.98 369.19 254.20 369.19 z" />
      </g>
    </g>
    <clipPath id="clip10">
      <path id="path85" d="M 0.0000 0.0000 L 0.0000 396.00 L 619.00 396.00 L 619.00 0.0000 z" />
    </clipPath>
    <g id="g92" clip-path="url(#clip10)">
      <g id="g90" stroke="#000000" stroke-opacity="1.0000" fill="none" stroke-linecap="butt" stroke-width="2.0000">
        <path id="path88" d="M 246.97 351.22 L 246.97 354.22" />
      </g>
    </g>
    <clipPath id="clip11">
      <path id="path94" d="M 0.0000 0.0000 L 0.0000 396.00 L 619.00 396.00 L 619.00 0.0000 z" />
    </clipPath>
    <g id="g101" clip-path="url(#clip11)">
      <g id="g99" fill="#000000" stroke="none" fill-rule="nonzero" fill-opacity="1.0000">
        <path id="path97" d="M 341.26 370.00 L 341.26 368.92 L 343.42 368.92 L 343.42 360.36 L 341.26 360.90 L 341.26 359.79 L 344.87 358.89 L 344.87 368.92 L 347.04 368.92 L 347.04 370.00 z M 350.31 370.04 L 350.31 368.75 Q 351.39 369.19 352.36 369.19 Q 353.43 369.19 354.04 368.56 Q 354.65 367.93 354.65 366.82 Q 354.65 364.38 351.29 364.38 Q 350.91 364.38 350.49 364.43 L 350.49 359.16 L 355.98 359.16 L 355.98 360.42 L 351.76 360.42 L 351.76 363.28 Q 353.85 363.28 355.02 364.24 Q 356.19 365.20 356.19 366.89 Q 356.19 368.48 355.12 369.37 Q 354.06 370.27 352.17 370.27 Q 351.35 370.27 350.31 370.04 z" />
      </g>
    </g>
    <clipPath id="clip12">
      <path id="path103" d="M 0.0000 0.0000 L 0.0000 396.00 L 619.00 396.00 L 619.00 0.0000 z" />
    </clipPath>
    <g id="g110" clip-path="url(#clip12)">
      <g id="g108" stroke="#000000" stroke-opacity="1.0000" fill="none" stroke-linecap="butt" stroke-width="2.0000">
        <path id="path106" d="M 346.25 351.22 L 346.25 354.22" />
      </g>
    </g>
    <clipPath id="clip13">
      <path id="path112" d="M 0.0000 0.0000 L 0.0000 396.00 L 619.00 396.00 L 619.00 0.0000 z" />
    </clipPath>
    <g id="g119" clip-path="url(#clip13)">
      <g id="g117" fill="#000000" stroke="none" fill-rule="nonzero" fill-opacity="1.0000">
        <path id="path115" d="M 440.25 370.00 L 440.25 368.73 Q 440.88 367.26 442.79 365.52 L 443.62 364.79 Q 445.22 363.34 445.22 361.92 Q 445.22 361.01 444.67 360.49 Q 444.13 359.97 443.17 359.97 Q 442.05 359.97 440.52 360.84 L 440.52 359.57 Q 441.96 358.89 443.38 358.89 Q 444.90 358.89 445.83 359.71 Q 446.75 360.53 446.75 361.88 Q 446.75 362.86 446.28 363.61 Q 445.82 364.37 444.55 365.44 L 444.00 365.92 Q 442.26 367.39 441.99 368.73 L 446.70 368.73 L 446.70 370.00 z M 453.19 370.27 Q 451.51 370.27 450.47 368.69 Q 449.44 367.11 449.44 364.57 Q 449.44 362.01 450.48 360.45 Q 451.52 358.89 453.23 358.89 Q 454.94 358.89 455.98 360.45 Q 457.02 362.01 457.02 364.55 Q 457.02 367.16 455.98 368.71 Q 454.94 370.27 453.19 370.27 z M 453.20 369.19 Q 455.49 369.19 455.49 364.53 Q 455.49 359.97 453.23 359.97 Q 450.98 359.97 450.98 364.57 Q 450.98 369.19 453.20 369.19 z" />
      </g>
    </g>
    <clipPath id="clip14">
      <path id="path121" d="M 0.0000 0.0000 L 0.0000 396.00 L 619.00 396.00 L 619.00 0.0000 z" />
    </clipPath>
    <g id="g128" clip-path="url(#clip14)">
      <g id="g126" stroke="#000000" stroke-opacity="1.0000" fill="none" stroke-linecap="butt" stroke-width="2.0000">
        <path id="path124" d="M 445.52 351.22 L 445.52 354.22" />
      </g>
    </g>
    <clipPath id="clip15">
      <path id="path130" d="M 0.0000 0.0000 L 0.0000 396.00 L 619.00 396.00 L 619.00 0.0000 z" />
    </clipPath>
    <g id="g137" clip-path="url(#clip15)">
      <g id="g135" fill="#000000" stroke="none" fill-rule="nonzero" fill-opacity="1.0000">
        <path id="path133" d="M 539.25 370.00 L 539.25 368.73 Q 539.88 367.26 541.79 365.52 L 542.62 364.79 Q 544.22 363.34 544.22 361.92 Q 544.22 361.01 543.67 360.49 Q 543.13 359.97 542.17 359.97 Q 541.05 359.97 539.52 360.84 L 539.52 359.57 Q 540.96 358.89 542.38 358.89 Q 543.90 358.89 544.83 359.71 Q 545.75 360.53 545.75 361.88 Q 545.75 362.86 545.28 363.61 Q 544.82 364.37 543.55 365.44 L 543.00 365.92 Q 541.26 367.39 540.99 368.73 L 545.70 368.73 L 545.70 370.00 z M 549.31 370.04 L 549.31 368.75 Q 550.39 369.19 551.36 369.19 Q 552.43 369.19 553.04 368.56 Q 553.65 367.93 553.65 366.82 Q 553.65 364.38 550.29 364.38 Q 549.91 364.38 549.49 364.43 L 549.49 359.16 L 554.98 359.16 L 554.98 360.42 L 550.76 360.42 L 550.76 363.28 Q 552.85 363.28 554.02 364.24 Q 555.19 365.20 555.19 366.89 Q 555.19 368.48 554.12 369.37 Q 553.06 370.27 551.17 370.27 Q 550.35 370.27 549.31 370.04 z" />
      </g>
    </g>
    <clipPath id="clip16">
      <path id="path139" d="M 0.0000 0.0000 L 0.0000 396.00 L 619.00 396.00 L 619.00 0.0000 z" />
    </clipPath>
    <g id="g146" clip-path="url(#clip16)">
      <g id="g144" stroke="#000000" stroke-opacity="1.0000" fill="none" stroke-linecap="butt" stroke-width="2.0000">
        <path id="path142" d="M 544.80 351.22 L 544.80 354.22" />
      </g>
    </g>
    <clipPath id="clip17">
      <path id="path148" d="M 0.0000 0.0000 L 0.0000 396.00 L 619.00 396.00 L 619.00 0.0000 z" />
    </clipPath>
    <g id="g155" clip-path="url(#clip17)">
      <g id="g153" fill="#000000" stroke="none" fill-rule="nonzero" fill-opacity="1.0000">
        <path id="path151" d="M 35.702 349.27 Q 34.025 349.27 32.989 347.69 Q 31.952 346.11 31.952 343.57 Q 31.952 341.01 32.996 339.45 Q 34.040 337.89 35.746 337.89 Q 37.453 337.89 38.496 339.45 Q 39.540 341.01 39.540 343.55 Q 39.540 346.16 38.496 347.71 Q 37.453 349.27 35.702 349.27 z M 35.717 348.19 Q 38.009 348.19 38.009 343.53 Q 38.009 338.97 35.746 338.97 Q 33.490 338.97 33.490 343.57 Q 33.490 348.19 35.717 348.19 z" />
      </g>
    </g>
    <clipPath id="clip18">
      <path id="path157" d="M 0.0000 0.0000 L 0.0000 396.00 L 619.00 396.00 L 619.00 0.0000 z" />
    </clipPath>
    <g id="g164" clip-path="url(#clip18)">
      <g id="g162" fill="#000000" stroke="none" fill-rule="nonzero" fill-opacity="1.0000">
        <path id="path160" d="M 32.824 257.04 L 32.824 255.75 Q 33.900 256.19 34.875 256.19 Q 35.944 256.19 36.555 255.56 Q 37.167 254.93 37.167 253.82 Q 37.167 251.38 33.805 251.38 Q 33.424 251.38 33.007 251.43 L 33.007 246.16 L 38.493 246.16 L 38.493 247.42 L 34.274 247.42 L 34.274 250.28 Q 36.361 250.28 37.533 251.24 Q 38.705 252.20 38.705 253.89 Q 38.705 255.48 37.639 256.37 Q 36.574 257.27 34.684 257.27 Q 33.864 257.27 32.824 257.04 z" />
      </g>
    </g>
    <clipPath id="clip19">
      <path id="path166" d="M 0.0000 0.0000 L 0.0000 396.00 L 619.00 396.00 L 619.00 0.0000 z" />
    </clipPath>
    <g id="g173" clip-path="url(#clip19)">
      <g id="g171" stroke="#000000" stroke-opacity="1.0000" fill="none" stroke-linecap="butt" stroke-width="2.0000">
        <path id="path169" d="M 45.410 251.94 L 48.410 251.94" />
      </g>
    </g>
    <clipPath id="clip20">
      <path id="path175" d="M 0.0000 0.0000 L 0.0000 396.00 L 619.00 396.00 L 619.00 0.0000 z" />
    </clipPath>
    <g id="g182" clip-path="url(#clip20)">
      <g id="g180" fill="#000000" stroke="none" fill-rule="nonzero" fill-opacity="1.0000">
        <path id="path178" d="M 24.256 158.00 L 24.256 156.92 L 26.424 156.92 L 26.424 148.36 L 24.256 148.90 L 24.256 147.79 L 27.874 146.89 L 27.874 156.92 L 30.042 156.92 L 30.042 158.00 z M 36.187 158.27 Q 34.510 158.27 33.473 156.69 Q 32.437 155.11 32.437 152.57 Q 32.437 150.01 33.481 148.45 Q 34.524 146.89 36.231 146.89 Q 37.938 146.89 38.981 148.45 Q 40.025 150.01 40.025 152.55 Q 40.025 155.16 38.981 156.71 Q 37.938 158.27 36.187 158.27 z M 36.202 157.19 Q 38.494 157.19 38.494 152.53 Q 38.494 147.97 36.231 147.97 Q 33.975 147.97 33.975 152.57 Q 33.975 157.19 36.202 157.19 z" />
      </g>
    </g>
    <clipPath id="clip21">
      <path id="path184" d="M 0.0000 0.0000 L 0.0000 396.00 L 619.00 396.00 L 619.00 0.0000 z" />
    </clipPath>
    <g id="g191" clip-path="url(#clip21)">
      <g id="g189" stroke="#000000" stroke-opacity="1.0000" fill="none" stroke-linecap="butt" stroke-width="2.0000">
        <path id="path187" d="M 45.410 152.66 L 48.410 152.66" />
      </g>
    </g>
    <clipPath id="clip22">
      <path id="path193" d="M 0.0000 0.0000 L 0.0000 396.00 L 619.00 396.00 L 619.00 0.0000 z" />
    </clipPath>
    <g id="g200" clip-path="url(#clip22)">
      <g id="g198" fill="#000000" stroke="none" fill-rule="nonzero" fill-opacity="1.0000">
        <path id="path196" d="M 24.256 59.000 L 24.256 57.916 L 26.424 57.916 L 26.424 49.361 L 24.256 49.903 L 24.256 48.790 L 27.874 47.889 L 27.874 57.916 L 30.042 57.916 L 30.042 59.000 z M 33.309 59.044 L 33.309 57.755 Q 34.385 58.187 35.359 58.187 Q 36.429 58.187 37.040 57.557 Q 37.652 56.927 37.652 55.821 Q 37.652 53.382 34.290 53.382 Q 33.909 53.382 33.492 53.434 L 33.492 48.160 L 38.978 48.160 L 38.978 49.420 L 34.759 49.420 L 34.759 52.276 Q 36.846 52.276 38.018 53.236 Q 39.190 54.195 39.190 55.895 Q 39.190 57.477 38.124 58.374 Q 37.059 59.271 35.169 59.271 Q 34.349 59.271 33.309 59.044 z" />
      </g>
    </g>
    <clipPath id="clip23">
      <path id="path202" d="M 0.0000 0.0000 L 0.0000 396.00 L 619.00 396.00 L 619.00 0.0000 z" />
    </clipPath>
    <g id="g209" clip-path="url(#clip23)">
      <g id="g207" stroke="#000000" stroke-opacity="1.0000" fill="none" stroke-linecap="butt" stroke-width="2.0000">
        <path id="path205" d="M 45.410 53.383 L 48.410 53.383" />
      </g>
    </g>
    <clipPath id="clip24">
      <path id="path211" d="M 0.0000 0.0000 L 0.0000 396.00 L 619.00 396.00 L 619.00 0.0000 z" />
    </clipPath>
    <g id="g218" clip-path="url(#clip24)">
      <g id="g216" stroke="#c0c0c0" stroke-opacity="1.0000" fill="none" stroke-linecap="round" stroke-linejoin="round">
        <path id="path214" d="M 147.69 0.0000 L 147.69 351.22" />
      </g>
    </g>
    <clipPath id="clip25">
      <path id="path220" d="M 0.0000 0.0000 L 0.0000 396.00 L 619.00 396.00 L 619.00 0.0000 z" />
    </clipPath>
    <g id="g227" clip-path="url(#clip25)">
      <g id="g225" stroke="#c0c0c0" stroke-opacity="1.0000" fill="none" stroke-linecap="round" stroke-linejoin="round">
        <path id="path223" d="M 147.69 377.22 L 147.69 396.00" />
      </g>
    </g>
    <clipPath id="clip26">
      <path id="path229" d="M 0.0000 0.0000 L 0.0000 396.00 L 619.00 396.00 L 619.00 0.0000 z" />
    </clipPath>
    <g id="g236" clip-path="url(#clip26)">
      <g id="g234" stroke="#c0c0c0" stroke-opacity="1.0000" fill="none" stroke-linecap="round" stroke-linejoin="round">
        <path id="path232" d="M 246.97 0.0000 L 246.97 351.22" />
      </g>
    </g>
    <clipPath id="clip27">
      <path id="path238" d="M 0.0000 0.0000 L 0.0000 396.00 L 619.00 396.00 L 619.00 0.0000 z" />
    </clipPath>
    <g id="g245" clip-path="url(#clip27)">
      <g id="g243" stroke="#c0c0c0" stroke-opacity="1.0000" fill="none" stroke-linecap="round" stroke-linejoin="round">
        <path id="path241" d="M 246.97 377.22 L 246.97 396.00" />
      </g>
    </g>
    <clipPath id="clip28">
      <path id="path247" d="M 0.0000 0.0000 L 0.0000 396.00 L 619.00 396.00 L 619.00 0.0000 z" />
    </clipPath>
    <g id="g254" clip-path="url(#clip28)">
      <g id="g252" stroke="#c0c0c0" stroke-opacity="1.0000" fill="none" stroke-linecap="round" stroke-linejoin="round">
        <path id="path250" d="M 346.25 0.0000 L 346.25 351.22" />
      </g>
    </g>
    <clipPath id="clip29">
      <path id="path256" d="M 0.0000 0.0000 L 0.0000 396.00 L 619.00 396.00 L 619.00 0.0000 z" />
    </clipPath>
    <g id="g263" clip-path="url(#clip29)">
      <g id="g261" stroke="#c0c0c0" stroke-opacity="1.0000" fill="none" stroke-linecap="round" stroke-linejoin="round">
        <path id="path259" d="M 346.25 377.22 L 346.25 396.00" />
      </g>
    </g>
    <clipPath id="clip30">
      <path id="path265" d="M 0.0000 0.0000 L 0.0000 396.00 L 619.00 396.00 L 619.00 0.0000 z" />
    </clipPath>
    <g id="g272" clip-path="url(#clip30)">
      <g id="g270" stroke="#c0c0c0" stroke-opacity="1.0000" fill="none" stroke-linecap="round" stroke-linejoin="round">
        <path id="path268" d="M 445.52 0.0000 L 445.52 351.22" />
      </g>
    </g>
    <clipPath id="clip31">
      <path id="path274" d="M 0.0000 0.0000 L 0.0000 396.00 L 619.00 396.00 L 619.00 0.0000 z" />
    </clipPath>
    <g id="g281" clip-path="url(#clip31)">
      <g id="g279" stroke="#c0c0c0" stroke-opacity="1.0000" fill="none" stroke-linecap="round" stroke-linejoin="round">
        <path id="path277" d="M 445.52 377.22 L 445.52 396.00" />
      </g>
    </g>
    <clipPath id="clip32">
      <path id="path283" d="M 0.0000 0.0000 L 0.0000 396.00 L 619.00 396.00 L 619.00 0.0000 z" />
    </clipPath>
    <g id="g290" clip-path="url(#clip32)">
      <g id="g288" stroke="#c0c0c0" stroke-opacity="1.0000" fill="none" stroke-linecap="round" stroke-linejoin="round">
        <path id="path286" d="M 544.80 0.0000 L 544.80 351.22" />
      </g>
    </g>
    <clipPath id="clip33">
      <path id="path292" d="M 0.0000 0.0000 L 0.0000 396.00 L 619.00 396.00 L 619.00 0.0000 z" />
    </clipPath>
    <g id="g299" clip-path="url(#clip33)">
      <g id="g297" stroke="#c0c0c0" stroke-opacity="1.0000" fill="none" stroke-linecap="round" stroke-linejoin="round">
        <path id="path295" d="M 544.80 377.22 L 544.80 396.00" />
      </g>
    </g>
    <clipPath id="clip34">
      <path id="path301" d="M 0.0000 0.0000 L 0.0000 396.00 L 619.00 396.00 L 619.00 0.0000 z" />
    </clipPath>
    <g id="g308" clip-path="url(#clip34)">
      <g id="g306" stroke="#c0c0c0" stroke-opacity="1.0000" fill="none" stroke-linecap="round" stroke-linejoin="round">
        <path id="path304" d="M 0.0000 53.383 L 19.440 53.383" />
      </g>
    </g>
    <clipPath id="clip35">
      <path id="path310" d="M 0.0000 0.0000 L 0.0000 396.00 L 619.00 396.00 L 619.00 0.0000 z" />
    </clipPath>
    <g id="g317" clip-path="url(#clip35)">
      <g id="g315" stroke="#c0c0c0" stroke-opacity="1.0000" fill="none" stroke-linecap="round" stroke-linejoin="round">
        <path id="path313" d="M 48.410 53.383 L 619.00 53.383" />
      </g>
    </g>
    <clipPath id="clip36">
      <path id="path319" d="M 0.0000 0.0000 L 0.0000 396.00 L 619.00 396.00 L 619.00 0.0000 z" />
    </clipPath>
    <g id="g326" clip-path="url(#clip36)">
      <g id="g324" stroke="#c0c0c0" stroke-opacity="1.0000" fill="none" stroke-linecap="round" stroke-linejoin="round">
        <path id="path322" d="M 0.0000 53.383 L 19.440 53.383" />
      </g>
    </g>
    <clipPath id="clip37">
      <path id="path328" d="M 0.0000 0.0000 L 0.0000 396.00 L 619.00 396.00 L 619.00 0.0000 z" />
    </clipPath>
    <g id="g335" clip-path="url(#clip37)">
      <g id="g333" stroke="#c0c0c0" stroke-opacity="1.0000" fill="none" stroke-linecap="round" stroke-linejoin="round">
        <path id="path331" d="M 48.410 53.383 L 619.00 53.383" />
      </g>
    </g>
    <clipPath id="clip38">
      <path id="path337" d="M 0.0000 0.0000 L 0.0000 396.00 L 619.00 396.00 L 619.00 0.0000 z" />
    </clipPath>
    <g id="g344" clip-path="url(#clip38)">
      <g id="g342" stroke="#c0c0c0" stroke-opacity="1.0000" fill="none" stroke-linecap="round" stroke-linejoin="round">
        <path id="path340" d="M 0.0000 152.66 L 19.440 152.66" />
      </g>
    </g>
    <clipPath id="clip39">
      <path id="path346" d="M 0.0000 0.0000 L 0.0000 396.00 L 619.00 396.00 L 619.00 0.0000 z" />
    </clipPath>
    <g id="g353" clip-path="url(#clip39)">
      <g id="g351" stroke="#c0c0c0" stroke-opacity="1.0000" fill="none" stroke-linecap="round" stroke-linejoin="round">
        <path id="path349" d="M 48.410 152.66 L 619.00 152.66" />
      </g>
    </g>
    <clipPath id="clip40">
      <path id="path355" d="M 0.0000 0.0000 L 0.0000 396.00 L 619.00 396.00 L 619.00 0.0000 z" />
    </clipPath>
    <g id="g362" clip-path="url(#clip40)">
      <g id="g360" stroke="#c0c0c0" stroke-opacity="1.0000" fill="none" stroke-linecap="round" stroke-linejoin="round">
        <path id="path358" d="M 0.0000 251.94 L 19.440 251.94" />
      </g>
    </g>
    <clipPath id="clip41">
      <path id="path364" d="M 0.0000 0.0000 L 0.0000 396.00 L 619.00 396.00 L 619.00 0.0000 z" />
    </clipPath>
    <g id="g371" clip-path="url(#clip41)">
      <g id="g369" stroke="#c0c0c0" stroke-opacity="1.0000" fill="none" stroke-linecap="round" stroke-linejoin="round">
        <path id="path367" d="M 48.410 251.94 L 619.00 251.94" />
      </g>
    </g>
    <g id="misc" />
    <g id="layer0">
      <clipPath id="clip42">
        <path id="path374" d="M 0.0000 0.0000 L 0.0000 396.00 L 619.00 396.00 L 619.00 0.0000 z" />
      </clipPath>
      <g id="g385" clip-path="url(#clip42)">
        <g id="g383" stroke="#0000ff" stroke-opacity="1.0000" fill="none" stroke-linecap="round" stroke-width="3.5000" stroke-linejoin="round">
          <path id="path377" d="M -5.0000 328.28 L 624.00 13.784" />
          <title id="title379">Line f</title>
          <desc id="desc381">f: y = 0.5x + 2.5</desc>
        </g>
      </g>
      <clipPath id="clip43">
        <path id="path387" d="M 0.0000 0.0000 L 0.0000 396.00 L 619.00 396.00 L 619.00 0.0000 z" />
      </clipPath>
      <g id="g398" clip-path="url(#clip43)">
        <g id="g396" stroke="#000000" stroke-opacity="1.0000" fill="none" stroke-linecap="butt" stroke-width="3.5000" stroke-dasharray="11.500,8.0000" stroke-linejoin="round">
          <path id="path390" d="M 544.80 53.383 L 544.80 351.22" />
          <title id="title392">Segment g</title>
          <desc id="desc394">Segment g: Segment [A, B]</desc>
        </g>
      </g>
      <clipPath id="clip44">
        <path id="path400" d="M 0.0000 0.0000 L 0.0000 396.00 L 619.00 396.00 L 619.00 0.0000 z" />
      </clipPath>
      <g id="g411" clip-path="url(#clip44)">
        <g id="g409" stroke="#000000" stroke-opacity="1.0000" fill="none" stroke-linecap="butt" stroke-width="3.5000" stroke-dasharray="11.500,8.0000" stroke-linejoin="round">
          <path id="path403" d="M 544.80 53.383 L 48.410 53.383" />
          <title id="title405">Segment h</title>
          <desc id="desc407">Segment h: Segment [A, C]</desc>
        </g>
      </g>
      <clipPath id="clip45">
        <path id="path413" d="M 0.0000 0.0000 L 0.0000 396.00 L 619.00 396.00 L 619.00 0.0000 z" />
      </clipPath>
      <g id="g424" clip-path="url(#clip45)">
        <g id="g422" fill="#444444" stroke="none" fill-rule="nonzero" fill-opacity="1.0000">
          <path id="path416" d="M 73.265 291.65 C 73.265 294.41 71.027 296.65 68.265 296.65 C 65.504 296.65 63.265 294.41 63.265 291.65 C 63.265 288.89 65.504 286.65 68.265 286.65 C 71.027 286.65 73.265 288.89 73.265 291.65 z" />
          <title id="title418">Point C2</title>
          <desc id="desc420">Point C2: (A2, B2)</desc>
        </g>
      </g>
      <clipPath id="clip46">
        <path id="path426" d="M 0.0000 0.0000 L 0.0000 396.00 L 619.00 396.00 L 619.00 0.0000 z" />
      </clipPath>
      <g id="g437" clip-path="url(#clip46)">
        <g id="g435" stroke="#000000" stroke-opacity="1.0000" fill="none" stroke-linecap="round" stroke-linejoin="round">
          <path id="path429" d="M 73.265 291.65 C 73.265 294.41 71.027 296.65 68.265 296.65 C 65.504 296.65 63.265 294.41 63.265 291.65 C 63.265 288.89 65.504 286.65 68.265 286.65 C 71.027 286.65 73.265 288.89 73.265 291.65 z" />
          <title id="title431">Point C2</title>
          <desc id="desc433">Point C2: (A2, B2)</desc>
        </g>
      </g>
      <clipPath id="clip47">
        <path id="path439" d="M 0.0000 0.0000 L 0.0000 396.00 L 619.00 396.00 L 619.00 0.0000 z" />
      </clipPath>
      <g id="g450" clip-path="url(#clip47)">
        <g id="g448" fill="#444444" stroke="none" fill-rule="nonzero" fill-opacity="1.0000">
          <path id="path442" d="M 93.121 281.72 C 93.121 284.48 90.882 286.72 88.121 286.72 C 85.360 286.72 83.121 284.48 83.121 281.72 C 83.121 278.96 85.360 276.72 88.121 276.72 C 90.882 276.72 93.121 278.96 93.121 281.72 z" />
          <title id="title444">Point C3</title>
          <desc id="desc446">Point C3: (A3, B3)</desc>
        </g>
      </g>
      <clipPath id="clip48">
        <path id="path452" d="M 0.0000 0.0000 L 0.0000 396.00 L 619.00 396.00 L 619.00 0.0000 z" />
      </clipPath>
      <g id="g463" clip-path="url(#clip48)">
        <g id="g461" stroke="#000000" stroke-opacity="1.0000" fill="none" stroke-linecap="round" stroke-linejoin="round">
          <path id="path455" d="M 93.121 281.72 C 93.121 284.48 90.882 286.72 88.121 286.72 C 85.360 286.72 83.121 284.48 83.121 281.72 C 83.121 278.96 85.360 276.72 88.121 276.72 C 90.882 276.72 93.121 278.96 93.121 281.72 z" />
          <title id="title457">Point C3</title>
          <desc id="desc459">Point C3: (A3, B3)</desc>
        </g>
      </g>
      <clipPath id="clip49">
        <path id="path465" d="M 0.0000 0.0000 L 0.0000 396.00 L 619.00 396.00 L 619.00 0.0000 z" />
      </clipPath>
      <g id="g476" clip-path="url(#clip49)">
        <g id="g474" fill="#444444" stroke="none" fill-rule="nonzero" fill-opacity="1.0000">
          <path id="path468" d="M 112.98 271.80 C 112.98 274.56 110.74 276.80 107.98 276.80 C 105.22 276.80 102.98 274.56 102.98 271.80 C 102.98 269.03 105.22 266.80 107.98 266.80 C 110.74 266.80 112.98 269.03 112.98 271.80 z" />
          <title id="title470">Point C4</title>
          <desc id="desc472">Point C4: (A4, B4)</desc>
        </g>
      </g>
      <clipPath id="clip50">
        <path id="path478" d="M 0.0000 0.0000 L 0.0000 396.00 L 619.00 396.00 L 619.00 0.0000 z" />
      </clipPath>
      <g id="g489" clip-path="url(#clip50)">
        <g id="g487" stroke="#000000" stroke-opacity="1.0000" fill="none" stroke-linecap="round" stroke-linejoin="round">
          <path id="path481" d="M 112.98 271.80 C 112.98 274.56 110.74 276.80 107.98 276.80 C 105.22 276.80 102.98 274.56 102.98 271.80 C 102.98 269.03 105.22 266.80 107.98 266.80 C 110.74 266.80 112.98 269.03 112.98 271.80 z" />
          <title id="title483">Point C4</title>
          <desc id="desc485">Point C4: (A4, B4)</desc>
        </g>
      </g>
      <clipPath id="clip51">
        <path id="path491" d="M 0.0000 0.0000 L 0.0000 396.00 L 619.00 396.00 L 619.00 0.0000 z" />
      </clipPath>
      <g id="g502" clip-path="url(#clip51)">
        <g id="g500" fill="#444444" stroke="none" fill-rule="nonzero" fill-opacity="1.0000">
          <path id="path494" d="M 132.83 261.87 C 132.83 264.63 130.59 266.87 127.83 266.87 C 125.07 266.87 122.83 264.63 122.83 261.87 C 122.83 259.11 125.07 256.87 127.83 256.87 C 130.59 256.87 132.83 259.11 132.83 261.87 z" />
          <title id="title496">Point C5</title>
          <desc id="desc498">Point C5: (A5, B5)</desc>
        </g>
      </g>
      <clipPath id="clip52">
        <path id="path504" d="M 0.0000 0.0000 L 0.0000 396.00 L 619.00 396.00 L 619.00 0.0000 z" />
      </clipPath>
      <g id="g515" clip-path="url(#clip52)">
        <g id="g513" stroke="#000000" stroke-opacity="1.0000" fill="none" stroke-linecap="round" stroke-linejoin="round">
          <path id="path507" d="M 132.83 261.87 C 132.83 264.63 130.59 266.87 127.83 266.87 C 125.07 266.87 122.83 264.63 122.83 261.87 C 122.83 259.11 125.07 256.87 127.83 256.87 C 130.59 256.87 132.83 259.11 132.83 261.87 z" />
          <title id="title509">Point C5</title>
          <desc id="desc511">Point C5: (A5, B5)</desc>
        </g>
      </g>
      <clipPath id="clip53">
        <path id="path517" d="M 0.0000 0.0000 L 0.0000 396.00 L 619.00 396.00 L 619.00 0.0000 z" />
      </clipPath>
      <g id="g528" clip-path="url(#clip53)">
        <g id="g526" fill="#444444" stroke="none" fill-rule="nonzero" fill-opacity="1.0000">
          <path id="path520" d="M 152.69 251.94 C 152.69 254.70 150.45 256.94 147.69 256.94 C 144.93 256.94 142.69 254.70 142.69 251.94 C 142.69 249.18 144.93 246.94 147.69 246.94 C 150.45 246.94 152.69 249.18 152.69 251.94 z" />
          <title id="title522">Point C6</title>
          <desc id="desc524">Point C6: (A6, B6)</desc>
        </g>
      </g>
      <clipPath id="clip54">
        <path id="path530" d="M 0.0000 0.0000 L 0.0000 396.00 L 619.00 396.00 L 619.00 0.0000 z" />
      </clipPath>
      <g id="g541" clip-path="url(#clip54)">
        <g id="g539" stroke="#000000" stroke-opacity="1.0000" fill="none" stroke-linecap="round" stroke-linejoin="round">
          <path id="path533" d="M 152.69 251.94 C 152.69 254.70 150.45 256.94 147.69 256.94 C 144.93 256.94 142.69 254.70 142.69 251.94 C 142.69 249.18 144.93 246.94 147.69 246.94 C 150.45 246.94 152.69 249.18 152.69 251.94 z" />
          <title id="title535">Point C6</title>
          <desc id="desc537">Point C6: (A6, B6)</desc>
        </g>
      </g>
      <clipPath id="clip55">
        <path id="path543" d="M 0.0000 0.0000 L 0.0000 396.00 L 619.00 396.00 L 619.00 0.0000 z" />
      </clipPath>
      <g id="g554" clip-path="url(#clip55)">
        <g id="g552" fill="#444444" stroke="none" fill-rule="nonzero" fill-opacity="1.0000">
          <path id="path546" d="M 172.54 242.01 C 172.54 244.77 170.31 247.01 167.54 247.01 C 164.78 247.01 162.54 244.77 162.54 242.01 C 162.54 239.25 164.78 237.01 167.54 237.01 C 170.31 237.01 172.54 239.25 172.54 242.01 z" />
          <title id="title548">Point C7</title>
          <desc id="desc550">Point C7: (A7, B7)</desc>
        </g>
      </g>
      <clipPath id="clip56">
        <path id="path556" d="M 0.0000 0.0000 L 0.0000 396.00 L 619.00 396.00 L 619.00 0.0000 z" />
      </clipPath>
      <g id="g567" clip-path="url(#clip56)">
        <g id="g565" stroke="#000000" stroke-opacity="1.0000" fill="none" stroke-linecap="round" stroke-linejoin="round">
          <path id="path559" d="M 172.54 242.01 C 172.54 244.77 170.31 247.01 167.54 247.01 C 164.78 247.01 162.54 244.77 162.54 242.01 C 162.54 239.25 164.78 237.01 167.54 237.01 C 170.31 237.01 172.54 239.25 172.54 242.01 z" />
          <title id="title561">Point C7</title>
          <desc id="desc563">Point C7: (A7, B7)</desc>
        </g>
      </g>
      <clipPath id="clip57">
        <path id="path569" d="M 0.0000 0.0000 L 0.0000 396.00 L 619.00 396.00 L 619.00 0.0000 z" />
      </clipPath>
      <g id="g580" clip-path="url(#clip57)">
        <g id="g578" fill="#000000" stroke="none" fill-rule="nonzero" fill-opacity="1.0000">
          <path id="path572" d="M 549.80 53.383 C 549.80 56.144 547.56 58.383 544.80 58.383 C 542.04 58.383 539.80 56.144 539.80 53.383 C 539.80 50.621 542.04 48.383 544.80 48.383 C 547.56 48.383 549.80 50.621 549.80 53.383 z" />
          <title id="title574">Point A</title>
          <desc id="desc576">Point A: Point on f</desc>
        </g>
      </g>
      <clipPath id="clip58">
        <path id="path582" d="M 0.0000 0.0000 L 0.0000 396.00 L 619.00 396.00 L 619.00 0.0000 z" />
      </clipPath>
      <g id="g593" clip-path="url(#clip58)">
        <g id="g591" stroke="#000000" stroke-opacity="1.0000" fill="none" stroke-linecap="round" stroke-linejoin="round">
          <path id="path585" d="M 549.80 53.383 C 549.80 56.144 547.56 58.383 544.80 58.383 C 542.04 58.383 539.80 56.144 539.80 53.383 C 539.80 50.621 542.04 48.383 544.80 48.383 C 547.56 48.383 549.80 50.621 549.80 53.383 z" />
          <title id="title587">Point A</title>
          <desc id="desc589">Point A: Point on f</desc>
        </g>
      </g>
    </g>
  </g>
</svg>