<?xml version='1.0' ?><svg xmlns:ns0="http://www.iki.fi/pav/software/textext/" xmlns:dc="http://purl.org/dc/elements/1.1/" xmlns:cc="http://creativecommons.org/ns#" xmlns:rdf="http://www.w3.org/1999/02/22-rdf-syntax-ns#" xmlns:svg="http://www.w3.org/2000/svg" xmlns="http://www.w3.org/2000/svg" id="svg2" version="1.1" width="319.66009" height="319.66009" viewBox="0.0 0.0 469.0000016066839 469.0000016066839" preserveAspectRatio="none">
  <metadata id="metadata355">
    <rdf:RDF>
      <cc:Work rdf:about="">
        <dc:format>image/svg+xml</dc:format>
        <dc:type rdf:resource="http://purl.org/dc/dcmitype/StillImage" />
      </cc:Work>
    </rdf:RDF>
  </metadata>
  <defs id="defs353" />
  <title id="title4" />
  <g id="g6" stroke-linecap="square" stroke-miterlimit="10.000" stroke-width="1.0000" stroke-dasharray="none" stroke-dashoffset="0.0000" stroke-linejoin="miter">
    <clipPath id="clip1">
      <path id="path9" d="M 0.0000 0.0000 L 0.0000 469.00 L 469.00 469.00 L 469.00 0.0000 z" />
    </clipPath>
    <g id="g11" clip-path="url(#clip1)">
      <g id="g13" stroke="#000000" stroke-opacity="1.0000" fill="none" stroke-linecap="butt">
        <path id="path15" d="M 131.01 2.0000 L 131.01 469.00" />
      </g>
    </g>
    <clipPath id="clip2">
      <path id="path18" d="M 0.0000 0.0000 L 0.0000 469.00 L 469.00 469.00 L 469.00 0.0000 z" />
    </clipPath>
    <g id="g20" clip-path="url(#clip2)">
      <g id="g22" fill="#000000" stroke="none" fill-rule="evenodd" fill-opacity="1.0000">
        <path id="path24" d="M 131.01 1.0000 L 127.01 17.000 L 135.01 17.000" />
      </g>
    </g>
    <clipPath id="clip3">
      <path id="path27" d="M 0.0000 0.0000 L 0.0000 469.00 L 469.00 469.00 L 469.00 0.0000 z" />
    </clipPath>
    <g id="g29" clip-path="url(#clip3)">
      <g id="g31" stroke="#000000" stroke-opacity="1.0000" fill="none" stroke-linecap="butt">
        <path id="path33" d="M 0.0000 336.59 L 467.00 336.59" />
      </g>
    </g>
    <clipPath id="clip4">
      <path id="path36" d="M 0.0000 0.0000 L 0.0000 469.00 L 469.00 469.00 L 469.00 0.0000 z" />
    </clipPath>
    <g id="g38" clip-path="url(#clip4)">
      <g id="g40" fill="#000000" stroke="none" fill-rule="evenodd" fill-opacity="1.0000">
        <path id="path42" d="M 468.00 336.59 L 452.00 332.59 L 452.00 340.59" />
      </g>
    </g>
    <clipPath id="clip5">
      <path id="path45" d="M 0.0000 0.0000 L 0.0000 469.00 L 469.00 469.00 L 469.00 0.0000 z" />
    </clipPath>
    <g id="g47" clip-path="url(#clip5)">
      <g id="g49" fill="#000000" stroke="none" fill-rule="nonzero" fill-opacity="1.0000">
        <path id="path51" d="M 14.615 348.82 L 14.615 348.02 L 19.385 348.02 L 19.385 348.82 z M 20.996 352.00 L 20.996 350.99 Q 21.500 349.81 23.035 348.42 L 23.697 347.83 Q 24.975 346.67 24.975 345.54 Q 24.975 344.81 24.538 344.39 Q 24.102 343.98 23.340 343.98 Q 22.438 343.98 21.213 344.68 L 21.213 343.66 Q 22.367 343.11 23.504 343.11 Q 24.723 343.11 25.461 343.77 Q 26.199 344.42 26.199 345.51 Q 26.199 346.29 25.827 346.89 Q 25.455 347.49 24.441 348.36 L 23.996 348.74 Q 22.607 349.91 22.391 350.99 L 26.158 350.99 L 26.158 352.00 z" />
      </g>
    </g>
    <clipPath id="clip6">
      <path id="path54" d="M 0.0000 0.0000 L 0.0000 469.00 L 469.00 469.00 L 469.00 0.0000 z" />
    </clipPath>
    <g id="g56" clip-path="url(#clip6)">
      <g id="g58" stroke="#000000" stroke-opacity="1.0000" fill="none" stroke-linecap="butt">
        <path id="path60" d="M 19.864 336.59 L 19.864 339.59" />
      </g>
    </g>
    <clipPath id="clip7">
      <path id="path63" d="M 0.0000 0.0000 L 0.0000 469.00 L 469.00 469.00 L 469.00 0.0000 z" />
    </clipPath>
    <g id="g65" clip-path="url(#clip7)">
      <g id="g67" fill="#000000" stroke="none" fill-rule="nonzero" fill-opacity="1.0000">
        <path id="path69" d="M 70.615 348.82 L 70.615 348.02 L 75.385 348.02 L 75.385 348.82 z M 77.805 352.00 L 77.805 351.13 L 79.539 351.13 L 79.539 344.29 L 77.805 344.72 L 77.805 343.83 L 80.699 343.11 L 80.699 351.13 L 82.434 351.13 L 82.434 352.00 z" />
      </g>
    </g>
    <clipPath id="clip8">
      <path id="path72" d="M 0.0000 0.0000 L 0.0000 469.00 L 469.00 469.00 L 469.00 0.0000 z" />
    </clipPath>
    <g id="g74" clip-path="url(#clip8)">
      <g id="g76" stroke="#000000" stroke-opacity="1.0000" fill="none" stroke-linecap="butt">
        <path id="path78" d="M 75.435 336.59 L 75.435 339.59" />
      </g>
    </g>
    <clipPath id="clip9">
      <path id="path81" d="M 0.0000 0.0000 L 0.0000 469.00 L 469.00 469.00 L 469.00 0.0000 z" />
    </clipPath>
    <g id="g83" clip-path="url(#clip9)">
      <g id="g85" fill="#000000" stroke="none" fill-rule="nonzero" fill-opacity="1.0000">
        <path id="path87" d="M 140.76 352.22 Q 139.42 352.22 138.59 350.95 Q 137.76 349.69 137.76 347.66 Q 137.76 345.61 138.60 344.36 Q 139.43 343.11 140.80 343.11 Q 142.16 343.11 143.00 344.36 Q 143.83 345.61 143.83 347.64 Q 143.83 349.73 143.00 350.97 Q 142.16 352.22 140.76 352.22 z M 140.77 351.35 Q 142.61 351.35 142.61 347.62 Q 142.61 343.98 140.80 343.98 Q 138.99 343.98 138.99 347.66 Q 138.99 351.35 140.77 351.35 z" />
      </g>
    </g>
    <clipPath id="clip10">
      <path id="path90" d="M 0.0000 0.0000 L 0.0000 469.00 L 469.00 469.00 L 469.00 0.0000 z" />
    </clipPath>
    <g id="g92" clip-path="url(#clip10)">
      <g id="g94" stroke="#000000" stroke-opacity="1.0000" fill="none" stroke-linecap="butt">
        <path id="path96" d="M 131.01 336.59 L 131.01 339.59" />
      </g>
    </g>
    <clipPath id="clip11">
      <path id="path99" d="M 0.0000 0.0000 L 0.0000 469.00 L 469.00 469.00 L 469.00 0.0000 z" />
    </clipPath>
    <g id="g101" clip-path="url(#clip11)">
      <g id="g103" fill="#000000" stroke="none" fill-rule="nonzero" fill-opacity="1.0000">
        <path id="path105" d="M 185.80 352.00 L 185.80 351.13 L 187.54 351.13 L 187.54 344.29 L 185.80 344.72 L 185.80 343.83 L 188.70 343.11 L 188.70 351.13 L 190.43 351.13 L 190.43 352.00 z" />
      </g>
    </g>
    <clipPath id="clip12">
      <path id="path108" d="M 0.0000 0.0000 L 0.0000 469.00 L 469.00 469.00 L 469.00 0.0000 z" />
    </clipPath>
    <g id="g110" clip-path="url(#clip12)">
      <g id="g112" stroke="#000000" stroke-opacity="1.0000" fill="none" stroke-linecap="butt">
        <path id="path114" d="M 186.58 336.59 L 186.58 339.59" />
      </g>
    </g>
    <clipPath id="clip13">
      <path id="path117" d="M 0.0000 0.0000 L 0.0000 469.00 L 469.00 469.00 L 469.00 0.0000 z" />
    </clipPath>
    <g id="g119" clip-path="url(#clip13)">
      <g id="g121" fill="#000000" stroke="none" fill-rule="nonzero" fill-opacity="1.0000">
        <path id="path123" d="M 241.00 352.00 L 241.00 350.99 Q 241.50 349.81 243.04 348.42 L 243.70 347.83 Q 244.97 346.67 244.97 345.54 Q 244.97 344.81 244.54 344.39 Q 244.10 343.98 243.34 343.98 Q 242.44 343.98 241.21 344.68 L 241.21 343.66 Q 242.37 343.11 243.50 343.11 Q 244.72 343.11 245.46 343.77 Q 246.20 344.42 246.20 345.51 Q 246.20 346.29 245.83 346.89 Q 245.46 347.49 244.44 348.36 L 244.00 348.74 Q 242.61 349.91 242.39 350.99 L 246.16 350.99 L 246.16 352.00 z" />
      </g>
    </g>
    <clipPath id="clip14">
      <path id="path126" d="M 0.0000 0.0000 L 0.0000 469.00 L 469.00 469.00 L 469.00 0.0000 z" />
    </clipPath>
    <g id="g128" clip-path="url(#clip14)">
      <g id="g130" stroke="#000000" stroke-opacity="1.0000" fill="none" stroke-linecap="butt">
        <path id="path132" d="M 242.15 336.59 L 242.15 339.59" />
      </g>
    </g>
    <clipPath id="clip15">
      <path id="path135" d="M 0.0000 0.0000 L 0.0000 469.00 L 469.00 469.00 L 469.00 0.0000 z" />
    </clipPath>
    <g id="g137" clip-path="url(#clip15)">
      <g id="g139" fill="#000000" stroke="none" fill-rule="nonzero" fill-opacity="1.0000">
        <path id="path141" d="M 296.22 351.94 L 296.22 350.86 Q 297.46 351.35 298.18 351.35 Q 299.00 351.35 299.52 350.87 Q 300.04 350.38 300.04 349.62 Q 300.04 347.79 297.48 347.79 L 297.02 347.79 L 297.02 347.01 L 297.43 347.00 Q 299.83 347.00 299.83 345.31 Q 299.83 343.98 298.25 343.98 Q 297.38 343.98 296.34 344.46 L 296.34 343.46 Q 297.36 343.11 298.33 343.11 Q 300.99 343.11 300.99 345.12 Q 300.99 346.65 299.18 347.30 Q 301.28 347.79 301.28 349.60 Q 301.28 350.82 300.47 351.52 Q 299.66 352.22 298.25 352.22 Q 297.44 352.22 296.22 351.94 z" />
      </g>
    </g>
    <clipPath id="clip16">
      <path id="path144" d="M 0.0000 0.0000 L 0.0000 469.00 L 469.00 469.00 L 469.00 0.0000 z" />
    </clipPath>
    <g id="g146" clip-path="url(#clip16)">
      <g id="g148" stroke="#000000" stroke-opacity="1.0000" fill="none" stroke-linecap="butt">
        <path id="path150" d="M 297.72 336.59 L 297.72 339.59" />
      </g>
    </g>
    <clipPath id="clip17">
      <path id="path153" d="M 0.0000 0.0000 L 0.0000 469.00 L 469.00 469.00 L 469.00 0.0000 z" />
    </clipPath>
    <g id="g155" clip-path="url(#clip17)">
      <g id="g157" fill="#000000" stroke="none" fill-rule="nonzero" fill-opacity="1.0000">
        <path id="path159" d="M 355.52 352.00 L 355.52 349.54 L 351.62 349.54 L 351.62 348.67 L 355.52 343.33 L 356.60 343.33 L 356.60 348.60 L 357.76 348.60 L 357.76 349.54 L 356.60 349.54 L 356.60 352.00 z M 352.75 348.60 L 355.59 348.60 L 355.59 344.75 z" />
      </g>
    </g>
    <clipPath id="clip18">
      <path id="path162" d="M 0.0000 0.0000 L 0.0000 469.00 L 469.00 469.00 L 469.00 0.0000 z" />
    </clipPath>
    <g id="g164" clip-path="url(#clip18)">
      <g id="g166" stroke="#000000" stroke-opacity="1.0000" fill="none" stroke-linecap="butt">
        <path id="path168" d="M 353.29 336.59 L 353.29 339.59" />
      </g>
    </g>
    <clipPath id="clip19">
      <path id="path171" d="M 0.0000 0.0000 L 0.0000 469.00 L 469.00 469.00 L 469.00 0.0000 z" />
    </clipPath>
    <g id="g173" clip-path="url(#clip19)">
      <g id="g175" fill="#000000" stroke="none" fill-rule="nonzero" fill-opacity="1.0000">
        <path id="path177" d="M 407.46 352.04 L 407.46 351.00 Q 408.32 351.35 409.10 351.35 Q 409.96 351.35 410.44 350.85 Q 410.93 350.34 410.93 349.46 Q 410.93 347.51 408.24 347.51 Q 407.94 347.51 407.61 347.55 L 407.61 343.33 L 411.99 343.33 L 411.99 344.34 L 408.62 344.34 L 408.62 346.62 Q 410.29 346.62 411.23 347.39 Q 412.16 348.16 412.16 349.52 Q 412.16 350.78 411.31 351.50 Q 410.46 352.22 408.95 352.22 Q 408.29 352.22 407.46 352.04 z" />
      </g>
    </g>
    <clipPath id="clip20">
      <path id="path180" d="M 0.0000 0.0000 L 0.0000 469.00 L 469.00 469.00 L 469.00 0.0000 z" />
    </clipPath>
    <g id="g182" clip-path="url(#clip20)">
      <g id="g184" stroke="#000000" stroke-opacity="1.0000" fill="none" stroke-linecap="butt">
        <path id="path186" d="M 408.86 336.59 L 408.86 339.59" />
      </g>
    </g>
    <clipPath id="clip21">
      <path id="path189" d="M 0.0000 0.0000 L 0.0000 469.00 L 469.00 469.00 L 469.00 0.0000 z" />
    </clipPath>
    <g id="g191" clip-path="url(#clip21)">
      <g id="g193" fill="#000000" stroke="none" fill-rule="nonzero" fill-opacity="1.0000">
        <path id="path195" d="M 110.62 448.82 L 110.62 448.02 L 115.38 448.02 L 115.38 448.82 z M 117.00 452.00 L 117.00 450.99 Q 117.50 449.81 119.04 448.42 L 119.70 447.83 Q 120.97 446.67 120.97 445.54 Q 120.97 444.81 120.54 444.39 Q 120.10 443.98 119.34 443.98 Q 118.44 443.98 117.21 444.68 L 117.21 443.66 Q 118.37 443.11 119.50 443.11 Q 120.72 443.11 121.46 443.77 Q 122.20 444.42 122.20 445.51 Q 122.20 446.29 121.83 446.89 Q 121.46 447.49 120.44 448.36 L 120.00 448.74 Q 118.61 449.91 118.39 450.99 L 122.16 450.99 L 122.16 452.00 z" />
      </g>
    </g>
    <clipPath id="clip22">
      <path id="path198" d="M 0.0000 0.0000 L 0.0000 469.00 L 469.00 469.00 L 469.00 0.0000 z" />
    </clipPath>
    <g id="g200" clip-path="url(#clip22)">
      <g id="g202" stroke="#000000" stroke-opacity="1.0000" fill="none" stroke-linecap="butt">
        <path id="path204" d="M 128.01 447.73 L 131.01 447.73" />
      </g>
    </g>
    <clipPath id="clip23">
      <path id="path207" d="M 0.0000 0.0000 L 0.0000 469.00 L 469.00 469.00 L 469.00 0.0000 z" />
    </clipPath>
    <g id="g209" clip-path="url(#clip23)">
      <g id="g211" fill="#000000" stroke="none" fill-rule="nonzero" fill-opacity="1.0000">
        <path id="path213" d="M 110.62 393.82 L 110.62 393.02 L 115.38 393.02 L 115.38 393.82 z M 117.80 397.00 L 117.80 396.13 L 119.54 396.13 L 119.54 389.29 L 117.80 389.72 L 117.80 388.83 L 120.70 388.11 L 120.70 396.13 L 122.43 396.13 L 122.43 397.00 z" />
      </g>
    </g>
    <clipPath id="clip24">
      <path id="path216" d="M 0.0000 0.0000 L 0.0000 469.00 L 469.00 469.00 L 469.00 0.0000 z" />
    </clipPath>
    <g id="g218" clip-path="url(#clip24)">
      <g id="g220" stroke="#000000" stroke-opacity="1.0000" fill="none" stroke-linecap="butt">
        <path id="path222" d="M 128.01 392.16 L 131.01 392.16" />
      </g>
    </g>
    <clipPath id="clip25">
      <path id="path225" d="M 0.0000 0.0000 L 0.0000 469.00 L 469.00 469.00 L 469.00 0.0000 z" />
    </clipPath>
    <g id="g227" clip-path="url(#clip25)">
      <g id="g229" fill="#000000" stroke="none" fill-rule="nonzero" fill-opacity="1.0000">
        <path id="path231" d="M 119.76 334.22 Q 118.42 334.22 117.59 332.95 Q 116.76 331.69 116.76 329.66 Q 116.76 327.61 117.60 326.36 Q 118.43 325.11 119.80 325.11 Q 121.16 325.11 122.00 326.36 Q 122.83 327.61 122.83 329.64 Q 122.83 331.73 122.00 332.97 Q 121.16 334.22 119.76 334.22 z M 119.77 333.35 Q 121.61 333.35 121.61 329.62 Q 121.61 325.98 119.80 325.98 Q 117.99 325.98 117.99 329.66 Q 117.99 333.35 119.77 333.35 z" />
      </g>
    </g>
    <clipPath id="clip26">
      <path id="path234" d="M 0.0000 0.0000 L 0.0000 469.00 L 469.00 469.00 L 469.00 0.0000 z" />
    </clipPath>
    <g id="g236" clip-path="url(#clip26)">
      <g id="g238" fill="#000000" stroke="none" fill-rule="nonzero" fill-opacity="1.0000">
        <path id="path240" d="M 117.80 286.00 L 117.80 285.13 L 119.54 285.13 L 119.54 278.29 L 117.80 278.72 L 117.80 277.83 L 120.70 277.11 L 120.70 285.13 L 122.43 285.13 L 122.43 286.00 z" />
      </g>
    </g>
    <clipPath id="clip27">
      <path id="path243" d="M 0.0000 0.0000 L 0.0000 469.00 L 469.00 469.00 L 469.00 0.0000 z" />
    </clipPath>
    <g id="g245" clip-path="url(#clip27)">
      <g id="g247" stroke="#000000" stroke-opacity="1.0000" fill="none" stroke-linecap="butt">
        <path id="path249" d="M 128.01 281.02 L 131.01 281.02" />
      </g>
    </g>
    <clipPath id="clip28">
      <path id="path252" d="M 0.0000 0.0000 L 0.0000 469.00 L 469.00 469.00 L 469.00 0.0000 z" />
    </clipPath>
    <g id="g254" clip-path="url(#clip28)">
      <g id="g256" fill="#000000" stroke="none" fill-rule="nonzero" fill-opacity="1.0000">
        <path id="path258" d="M 117.00 230.00 L 117.00 228.99 Q 117.50 227.81 119.04 226.42 L 119.70 225.83 Q 120.97 224.67 120.97 223.54 Q 120.97 222.81 120.54 222.39 Q 120.10 221.98 119.34 221.98 Q 118.44 221.98 117.21 222.68 L 117.21 221.66 Q 118.37 221.11 119.50 221.11 Q 120.72 221.11 121.46 221.77 Q 122.20 222.42 122.20 223.51 Q 122.20 224.29 121.83 224.89 Q 121.46 225.49 120.44 226.36 L 120.00 226.74 Q 118.61 227.91 118.39 228.99 L 122.16 228.99 L 122.16 230.00 z" />
      </g>
    </g>
    <clipPath id="clip29">
      <path id="path261" d="M 0.0000 0.0000 L 0.0000 469.00 L 469.00 469.00 L 469.00 0.0000 z" />
    </clipPath>
    <g id="g263" clip-path="url(#clip29)">
      <g id="g265" stroke="#000000" stroke-opacity="1.0000" fill="none" stroke-linecap="butt">
        <path id="path267" d="M 128.01 225.45 L 131.01 225.45" />
      </g>
    </g>
    <clipPath id="clip30">
      <path id="path270" d="M 0.0000 0.0000 L 0.0000 469.00 L 469.00 469.00 L 469.00 0.0000 z" />
    </clipPath>
    <g id="g272" clip-path="url(#clip30)">
      <g id="g274" fill="#000000" stroke="none" fill-rule="nonzero" fill-opacity="1.0000">
        <path id="path276" d="M 117.22 173.94 L 117.22 172.86 Q 118.46 173.35 119.18 173.35 Q 120.00 173.35 120.52 172.87 Q 121.04 172.38 121.04 171.62 Q 121.04 169.79 118.48 169.79 L 118.02 169.79 L 118.02 169.01 L 118.43 169.00 Q 120.83 169.00 120.83 167.31 Q 120.83 165.98 119.25 165.98 Q 118.38 165.98 117.34 166.46 L 117.34 165.46 Q 118.36 165.11 119.33 165.11 Q 121.99 165.11 121.99 167.12 Q 121.99 168.65 120.18 169.30 Q 122.28 169.79 122.28 171.60 Q 122.28 172.82 121.47 173.52 Q 120.66 174.22 119.25 174.22 Q 118.44 174.22 117.22 173.94 z" />
      </g>
    </g>
    <clipPath id="clip31">
      <path id="path279" d="M 0.0000 0.0000 L 0.0000 469.00 L 469.00 469.00 L 469.00 0.0000 z" />
    </clipPath>
    <g id="g281" clip-path="url(#clip31)">
      <g id="g283" stroke="#000000" stroke-opacity="1.0000" fill="none" stroke-linecap="butt">
        <path id="path285" d="M 128.01 169.88 L 131.01 169.88" />
      </g>
    </g>
    <clipPath id="clip32">
      <path id="path288" d="M 0.0000 0.0000 L 0.0000 469.00 L 469.00 469.00 L 469.00 0.0000 z" />
    </clipPath>
    <g id="g290" clip-path="url(#clip32)">
      <g id="g292" fill="#000000" stroke="none" fill-rule="nonzero" fill-opacity="1.0000">
        <path id="path294" d="M 120.52 119.00 L 120.52 116.54 L 116.62 116.54 L 116.62 115.67 L 120.52 110.33 L 121.60 110.33 L 121.60 115.60 L 122.76 115.60 L 122.76 116.54 L 121.60 116.54 L 121.60 119.00 z M 117.75 115.60 L 120.59 115.60 L 120.59 111.75 z" />
      </g>
    </g>
    <clipPath id="clip33">
      <path id="path297" d="M 0.0000 0.0000 L 0.0000 469.00 L 469.00 469.00 L 469.00 0.0000 z" />
    </clipPath>
    <g id="g299" clip-path="url(#clip33)">
      <g id="g301" stroke="#000000" stroke-opacity="1.0000" fill="none" stroke-linecap="butt">
        <path id="path303" d="M 128.01 114.31 L 131.01 114.31" />
      </g>
    </g>
    <clipPath id="clip34">
      <path id="path306" d="M 0.0000 0.0000 L 0.0000 469.00 L 469.00 469.00 L 469.00 0.0000 z" />
    </clipPath>
    <g id="g308" clip-path="url(#clip34)">
      <g id="g310" fill="#000000" stroke="none" fill-rule="nonzero" fill-opacity="1.0000">
        <path id="path312" d="M 117.46 63.035 L 117.46 62.004 Q 118.32 62.350 119.10 62.350 Q 119.96 62.350 120.44 61.846 Q 120.93 61.342 120.93 60.457 Q 120.93 58.506 118.24 58.506 Q 117.94 58.506 117.61 58.547 L 117.61 54.328 L 121.99 54.328 L 121.99 55.336 L 118.62 55.336 L 118.62 57.621 Q 120.29 57.621 121.23 58.389 Q 122.16 59.156 122.16 60.516 Q 122.16 61.781 121.31 62.499 Q 120.46 63.217 118.95 63.217 Q 118.29 63.217 117.46 63.035 z" />
      </g>
    </g>
    <clipPath id="clip35">
      <path id="path315" d="M 0.0000 0.0000 L 0.0000 469.00 L 469.00 469.00 L 469.00 0.0000 z" />
    </clipPath>
    <g id="g317" clip-path="url(#clip35)">
      <g id="g319" stroke="#000000" stroke-opacity="1.0000" fill="none" stroke-linecap="butt">
        <path id="path321" d="M 128.01 58.735 L 131.01 58.735" />
      </g>
    </g>
    <g id="misc" />
    <g style="stroke-width:3.12999148;stroke-miterlimit:10.43299961;stroke-dasharray:none" id="layer0">
      <clipPath id="clip36">
        <path id="path326" d="M 0.0000 0.0000 L 0.0000 469.00 L 469.00 469.00 L 469.00 0.0000 z" />
      </clipPath>
      <g style="stroke-width:3.12999148;stroke-miterlimit:10.43299961;stroke-dasharray:none;stroke:#0000ff;stroke-opacity:1" id="g328" clip-path="url(#clip36)">
        <g style="stroke-width:3.12999148;stroke-miterlimit:10.43299961;stroke-dasharray:none;stroke:#0000ff;stroke-opacity:1" id="g330" stroke="#9933ff" stroke-opacity="1.0000" fill="none" stroke-linecap="round" stroke-width="1.5000" stroke-linejoin="round">
          <path style="stroke-width:3.12999148;stroke-miterlimit:10.43299961;stroke-dasharray:none;stroke:#0000ff;stroke-opacity:1" id="path332" d="M 186.58 225.45 L 186.87 225.45 M 186.87 225.45 L 190.53 225.17 M 190.53 225.17 L 194.20 224.40 L 197.86 223.16 L 201.52 221.43 L 205.19 219.22 M 205.19 219.22 L 208.85 216.52 L 212.52 213.34 L 216.18 209.68 L 219.84 205.53 L 223.51 200.91 L 227.17 195.79 L 230.84 190.20 L 234.50 184.12 M 234.50 184.12 L 238.16 177.56 L 241.83 170.52 L 245.49 162.99 L 249.16 154.98 L 252.82 146.48 L 256.48 137.51 L 260.15 128.05 L 263.81 118.10 L 265.64 112.95 L 267.48 107.68 L 269.31 102.28 L 271.14 96.767 L 272.97 91.131 L 274.80 85.374 L 276.64 79.497 L 278.47 73.498 L 280.30 67.379 L 282.13 61.139 L 283.96 54.778 L 285.80 48.297 L 287.63 41.694 L 289.46 34.971 L 291.29 28.127 L 293.12 21.162 L 294.96 14.077 L 296.79 6.8703 L 298.62 -.45684 L 300.45 -7.9048" />
          <title id="title334">Function d1</title>
          <desc id="desc336">d1(x) = If[x Ã&#131;Â¢Ã&#130;Â&#137;Ã&#130;Â¥ 1, (x - 1)Ã&#131;Â&#130;Ã&#130;Â² + 2]</desc>
        </g>
      </g>
      <clipPath id="clip37">
        <path id="path339" d="M 0.0000 0.0000 L 0.0000 469.00 L 469.00 469.00 L 469.00 0.0000 z" />
      </clipPath>
      <g style="stroke-width:3.12999148;stroke-miterlimit:10.43299961;stroke-dasharray:none;stroke:#cc5522;stroke-opacity:1" id="g341" clip-path="url(#clip37)">
        <g style="stroke-width:3.12999148;stroke-miterlimit:10.43299961;stroke-dasharray:none;stroke:#cc5522;stroke-opacity:1" id="g343" stroke="#000000" stroke-opacity="1.0000" fill="none" stroke-linecap="round" stroke-width="1.5000" stroke-linejoin="round">
          <path style="stroke-width:3.12999148;stroke-miterlimit:10.43299961;stroke-dasharray:none;stroke:#cc5522;stroke-opacity:1" id="path345" d="M 242.15 281.02 L 243.82 271.38 L 244.03 270.80 L 244.24 270.24 L 244.66 269.21 L 245.49 267.39 M 245.49 267.39 L 249.16 261.29 M 249.16 261.29 L 252.82 256.67 L 256.48 252.79 L 260.15 249.39 L 263.81 246.32 M 263.81 246.32 L 267.48 243.50 L 271.14 240.88 L 274.80 238.42 L 278.47 236.09 L 282.13 233.88 L 285.80 231.77 L 289.46 229.74 L 293.12 227.80 M 293.12 227.80 L 296.79 225.92 L 300.45 224.10 L 304.12 222.34 L 307.78 220.63 L 311.45 218.96 L 315.11 217.34 L 318.77 215.77 L 322.44 214.22 L 326.10 212.72 L 329.77 211.24 L 333.43 209.80 L 337.09 208.38 L 340.76 206.99 L 344.42 205.63 L 348.09 204.29 L 351.75 202.98 M 351.75 202.98 L 355.41 201.68 L 359.08 200.41 L 362.74 199.16 L 366.41 197.92 L 370.07 196.71 L 373.73 195.51 L 377.40 194.32 L 381.06 193.16 L 384.73 192.01 L 388.39 190.87 L 392.05 189.75 L 395.72 188.64 L 399.38 187.54 L 403.05 186.46 L 406.71 185.39 L 410.38 184.33 L 414.04 183.28 L 417.70 182.25 L 421.37 181.22 L 425.03 180.21 L 428.70 179.20 L 432.36 178.21 L 436.02 177.22 L 439.69 176.25 L 443.35 175.28 L 447.02 174.32 L 450.68 173.37 L 454.34 172.43 L 458.01 171.50 L 461.67 170.57 L 465.34 169.65 L 469.00 168.74" />
          <title id="title347">Function d</title>
          <desc id="desc349">d(x) = 1 + sqrt(x - 2)</desc>
        </g>
      </g>
    </g>
  </g>
  <g style="font-style:normal;font-variant:normal;font-weight:normal;font-stretch:normal;letter-spacing:normal;word-spacing:normal;text-anchor:start;fill:none;fill-opacity:1;fill-rule:evenodd;stroke:#000000;stroke-linecap:butt;stroke-linejoin:miter;stroke-miterlimit:10.43299961;stroke-dasharray:none;stroke-dashoffset:0;stroke-opacity:1" ns0:preamble="/Users/prmb/CMEP/underground-inkscape-preamble.tex" ns0:text="$y=d(x)$" word-spacing="normal" letter-spacing="normal" font-size-adjust="none" font-stretch="normal" font-weight="normal" font-variant="normal" font-style="normal" stroke-miterlimit="10.433" xml:space="preserve" transform="matrix(2,0,0,-2,-100.55931,1186.6779)" id="content"><path style="fill:#000000;stroke-width:0" id="path4681" d="m 226.62,480.86 -0.01,0.08 -0.01,0.08 -0.01,0.07 -0.01,0.07 -0.01,0.07 -0.01,0.07 -0.01,0.06 -0.01,0.06 -0.01,0.06 -0.01,0.05 -0.01,0.06 -0.01,0.05 -0.01,0.05 -0.01,0.04 -0.02,0.05 -0.01,0.05 -0.01,0.04 -0.02,0.04 -0.01,0.04 -0.01,0.04 -0.04,0.08 -0.03,0.07 -0.04,0.08 -0.04,0.07 -0.04,0.07 -0.05,0.07 -1.77,-0.3 0.02,-0.18 c 0.11,0.01 0.3,0.04 0.43,0.04 0.66,0 0.76,-0.71 0.82,-1.24 l 0.45,-3.7 c -0.31,-0.48 -0.98,-1.21 -1.18,-1.21 -0.19,0 -0.16,0.37 -0.67,0.37 -0.16,0 -0.47,-0.13 -0.47,-0.49 0,-0.28 0.22,-0.64 0.66,-0.64 0.8,0 1.57,1.15 2.43,2.24 0.5,0.62 2.41,3.46 2.41,4.38 0,0.46 -0.3,0.73 -0.67,0.73 -0.35,0 -0.56,-0.21 -0.56,-0.47 0,-0.45 0.61,-0.57 0.61,-0.82 0,-0.21 -0.09,-0.45 -0.33,-0.88 -0.26,-0.49 -0.67,-1.19 -1.39,-2.18 z" /><polygon style="fill:#000000;stroke-width:0" id="polygon4683" points="240.11,481.79 233.16,481.79 233.16,481.01 240.11,481.01 " /><polygon style="fill:#000000;stroke-width:0" id="polygon4685" points="240.11,479.43 233.16,479.43 233.16,478.65 240.11,478.65 " /><path style="fill:#000000;stroke-width:0" id="path4687" d="m 250.22,485.12 -1.84,-0.28 0.05,-0.18 c 0.08,0.01 0.21,0.04 0.32,0.04 0.3,0 0.39,-0.09 0.39,-0.24 0,-0.05 -0.02,-0.09 -0.03,-0.14 l -0.62,-2.47 -0.03,0 c -0.01,0.28 -0.28,0.59 -0.95,0.59 l 0.11,-0.35 c 0.49,0 0.67,-0.29 0.67,-0.84 l 0,0 c 0,-0.37 -0.06,-0.83 -0.19,-1.24 -0.33,-1.09 -1.11,-2.2 -1.94,-2.2 -0.33,0 -0.66,0.2 -0.66,0.78 0,1.14 0.96,3.5 2.12,3.5 l -0.11,0.35 c -1.82,0 -3.04,-2.63 -3.04,-3.85 0,-0.62 0.18,-1.5 1.04,-1.5 0.44,0 1.15,0.14 2.02,1.24 l 0.06,0 c -0.1,-0.35 -0.12,-0.52 -0.12,-0.75 0,-0.22 0.1,-0.49 0.47,-0.49 0.56,0 1.18,0.71 1.54,1.24 l -0.13,0.15 c -0.17,-0.25 -0.5,-0.67 -0.73,-0.67 -0.12,0 -0.18,0.04 -0.18,0.11 0,0.03 0.01,0.11 0.02,0.14 z" /><path style="fill:#000000;stroke-width:0" id="path4689" d="m 253.89,475.33 -0.15,0.13 -0.14,0.13 -0.14,0.13 -0.13,0.13 -0.12,0.13 -0.12,0.13 -0.11,0.13 -0.1,0.14 -0.1,0.13 -0.09,0.13 -0.08,0.14 -0.08,0.14 -0.07,0.14 -0.07,0.14 -0.06,0.14 -0.06,0.14 -0.05,0.15 -0.05,0.15 -0.05,0.16 -0.04,0.15 -0.03,0.16 -0.03,0.16 -0.03,0.17 -0.02,0.17 -0.02,0.17 -0.02,0.18 -0.02,0.18 -0.01,0.18 0,0.19 -0.01,0.19 0,0.2 -0.01,0.21 c 0,2.27 0.37,3.37 2.01,4.78 l -0.1,0.19 c -1.89,-1.13 -2.92,-2.83 -2.92,-5.01 0,-2.01 1.01,-4 2.88,-5.07 z" /><path style="fill:#000000;stroke-width:0" id="path4691" d="m 257.85,480.64 -0.24,0.64 c -0.14,0.39 -0.36,0.88 -0.88,1.16 l -1.56,-0.39 0.04,-0.21 c 0.11,0.05 0.29,0.07 0.44,0.07 0.65,0 0.96,-0.48 1.16,-1.05 l 0.39,-1.09 -0.77,-1.19 c -0.38,-0.58 -0.68,-0.7 -0.82,-0.7 -0.3,0 -0.25,0.24 -0.56,0.24 -0.29,0 -0.45,-0.25 -0.45,-0.44 0,-0.26 0.19,-0.55 0.62,-0.55 0.66,0 1,0.51 1.38,1.08 l 0.74,1.16 0.47,-1.33 c 0.16,-0.43 0.38,-0.91 0.87,-0.91 0.68,0 1.21,1.13 1.35,1.31 l -0.16,0.12 c -0.25,-0.51 -0.53,-0.68 -0.72,-0.68 -0.53,0 -0.8,1.6 -1.16,2.33 l 0.65,1 c 0.17,0.26 0.3,0.45 0.65,0.45 0.2,0 0.26,-0.1 0.52,-0.1 0.31,0 0.46,0.27 0.46,0.49 0,0.25 -0.2,0.39 -0.58,0.39 -0.59,0 -1,-0.52 -1.31,-0.99 z" /><path style="fill:#000000;stroke-width:0" id="path4693" d="m 261.11,485.03 0.15,-0.13 0.15,-0.13 0.14,-0.12 0.13,-0.13 0.13,-0.13 0.12,-0.13 0.11,-0.13 0.1,-0.13 0.1,-0.13 0.09,-0.13 0.09,-0.14 0.07,-0.14 0.08,-0.14 0.06,-0.14 0.07,-0.14 0.05,-0.15 0.05,-0.14 0.05,-0.15 0.04,-0.16 0.04,-0.16 0.03,-0.15 0.03,-0.17 0.03,-0.16 0.02,-0.17 0.02,-0.18 0.02,-0.18 0.01,-0.18 0.01,-0.18 0.01,-0.19 0,-0.2 0,-0.2 0,-0.2 c 0,-2.29 -0.33,-3.41 -2,-4.79 l 0.1,-0.19 c 1.88,1.15 2.92,2.83 2.92,5.01 0,2.01 -1.08,3.98 -2.88,5.07 z" /></g>  <g style="font-style:normal;font-variant:normal;font-weight:normal;font-stretch:normal;letter-spacing:normal;word-spacing:normal;text-anchor:start;fill:none;fill-opacity:1;fill-rule:evenodd;stroke:#000000;stroke-linecap:butt;stroke-linejoin:miter;stroke-miterlimit:10.43299961;stroke-dasharray:none;stroke-dashoffset:0;stroke-opacity:1" id="g5103" transform="matrix(2,0,0,-2,-150.13558,1010.1864)" xml:space="preserve" stroke-miterlimit="10.433" font-style="normal" font-variant="normal" font-weight="normal" font-stretch="normal" font-size-adjust="none" letter-spacing="normal" word-spacing="normal" ns0:text="$y=d^{-1}(x)$" ns0:preamble="/Users/prmb/CMEP/underground-inkscape-preamble.tex"><path style="fill:#000000;stroke-width:0" d="m 226.62,480.48 -0.01,0.08 -0.01,0.07 -0.01,0.08 -0.01,0.07 -0.01,0.07 -0.01,0.06 -0.01,0.06 -0.01,0.07 -0.01,0.05 -0.01,0.06 -0.01,0.05 -0.01,0.05 -0.01,0.05 -0.01,0.05 -0.02,0.05 -0.01,0.04 -0.01,0.05 -0.02,0.04 -0.01,0.04 -0.01,0.04 -0.04,0.08 -0.03,0.07 -0.04,0.07 -0.04,0.07 -0.04,0.07 -0.05,0.08 -1.77,-0.3 0.02,-0.19 c 0.11,0.01 0.3,0.05 0.43,0.05 0.66,0 0.76,-0.71 0.82,-1.24 l 0.45,-3.71 c -0.31,-0.47 -0.98,-1.2 -1.18,-1.2 -0.19,0 -0.16,0.37 -0.67,0.37 -0.16,0 -0.47,-0.13 -0.47,-0.49 0,-0.28 0.22,-0.65 0.66,-0.65 0.8,0 1.57,1.16 2.43,2.24 0.5,0.63 2.41,3.46 2.41,4.39 0,0.45 -0.3,0.73 -0.67,0.73 -0.35,0 -0.56,-0.22 -0.56,-0.48 0,-0.44 0.61,-0.56 0.61,-0.81 0,-0.21 -0.09,-0.45 -0.33,-0.89 -0.26,-0.48 -0.67,-1.19 -1.39,-2.17 z" id="path5105" /><polygon style="fill:#000000;stroke-width:0" points="240.11,481.41 233.16,481.41 233.16,480.63 240.11,480.63 " id="polygon5107" /><polygon style="fill:#000000;stroke-width:0" points="240.11,479.05 233.16,479.05 233.16,478.27 240.11,478.27 " id="polygon5109" /><path style="fill:#000000;stroke-width:0" d="m 250.22,484.74 -1.84,-0.29 0.05,-0.17 c 0.08,0.01 0.21,0.03 0.32,0.03 0.3,0 0.39,-0.08 0.39,-0.23 0,-0.05 -0.02,-0.1 -0.03,-0.14 l -0.62,-2.47 -0.03,0 c -0.01,0.28 -0.28,0.59 -0.95,0.59 l 0.11,-0.36 c 0.49,0 0.67,-0.28 0.67,-0.83 l 0,0 c 0,-0.37 -0.06,-0.83 -0.19,-1.24 -0.33,-1.09 -1.11,-2.2 -1.94,-2.2 -0.33,0 -0.66,0.2 -0.66,0.78 0,1.13 0.96,3.49 2.12,3.49 l -0.11,0.36 c -1.82,0 -3.04,-2.63 -3.04,-3.85 0,-0.63 0.18,-1.5 1.04,-1.5 0.44,0 1.15,0.14 2.02,1.24 l 0.06,0 c -0.1,-0.35 -0.12,-0.52 -0.12,-0.76 0,-0.21 0.1,-0.48 0.47,-0.48 0.56,0 1.18,0.71 1.54,1.24 l -0.13,0.14 c -0.17,-0.25 -0.5,-0.66 -0.73,-0.66 -0.12,0 -0.18,0.04 -0.18,0.11 0,0.03 0.01,0.1 0.02,0.14 z" id="path5111" /><polygon style="fill:#000000;stroke-width:0" points="255.47,483.96 250.84,483.96 250.84,483.42 255.47,483.42 " id="polygon5113" /><path style="fill:#000000;stroke-width:0" d="m 259.26,481.59 0,0.13 c -0.62,0 -0.79,0.15 -0.79,0.5 l 0,4.95 -0.07,0.03 -1.49,-0.76 0,-0.11 0.23,0.08 c 0.15,0.06 0.29,0.1 0.37,0.1 0.17,0 0.25,-0.13 0.25,-0.41 l 0,-3.72 c 0,-0.46 -0.18,-0.63 -0.79,-0.66 l 0,-0.13 z" id="path5115" /><path style="fill:#000000;stroke-width:0" d="m 264.21,474.95 -0.15,0.13 -0.14,0.13 -0.14,0.13 -0.13,0.13 -0.12,0.13 -0.12,0.13 -0.11,0.13 -0.1,0.13 -0.1,0.14 -0.09,0.13 -0.08,0.14 -0.08,0.13 -0.07,0.14 -0.07,0.14 -0.06,0.15 -0.06,0.14 -0.05,0.15 -0.05,0.15 -0.05,0.15 -0.04,0.16 -0.03,0.16 -0.03,0.16 -0.03,0.16 -0.02,0.17 -0.02,0.18 -0.02,0.17 -0.02,0.18 -0.01,0.19 0,0.19 -0.01,0.19 0,0.2 -0.01,0.2 c 0,2.28 0.37,3.38 2.01,4.78 l -0.1,0.19 c -1.89,-1.12 -2.92,-2.82 -2.92,-5 0,-2.01 1.01,-4 2.88,-5.07 z" id="path5117" /><path style="fill:#000000;stroke-width:0" d="m 268.17,480.25 -0.24,0.65 c -0.14,0.39 -0.36,0.87 -0.88,1.16 l -1.56,-0.39 0.03,-0.21 c 0.12,0.04 0.3,0.07 0.45,0.07 0.65,0 0.96,-0.49 1.16,-1.05 l 0.39,-1.09 -0.77,-1.19 c -0.37,-0.58 -0.68,-0.7 -0.82,-0.7 -0.3,0 -0.25,0.24 -0.56,0.24 -0.29,0 -0.45,-0.25 -0.45,-0.44 0,-0.26 0.19,-0.55 0.62,-0.55 0.66,0 1,0.5 1.38,1.08 l 0.74,1.16 0.47,-1.34 c 0.16,-0.42 0.38,-0.9 0.87,-0.9 0.68,0 1.21,1.13 1.35,1.31 l -0.16,0.11 c -0.25,-0.5 -0.53,-0.67 -0.72,-0.67 -0.53,0 -0.8,1.6 -1.16,2.33 l 0.65,1 c 0.16,0.26 0.3,0.45 0.65,0.45 0.2,0 0.26,-0.11 0.52,-0.11 0.31,0 0.46,0.28 0.46,0.5 0,0.25 -0.2,0.39 -0.58,0.39 -0.59,0 -1,-0.52 -1.31,-0.99 z" id="path5119" /><path style="fill:#000000;stroke-width:0" d="m 271.43,484.64 0.15,-0.12 0.15,-0.13 0.14,-0.13 0.13,-0.12 0.13,-0.13 0.12,-0.13 0.11,-0.13 0.1,-0.13 0.1,-0.13 0.09,-0.14 0.09,-0.13 0.07,-0.14 0.08,-0.14 0.06,-0.14 0.07,-0.14 0.05,-0.15 0.05,-0.15 0.05,-0.15 0.04,-0.15 0.04,-0.16 0.03,-0.16 0.03,-0.16 0.03,-0.17 0.02,-0.17 0.02,-0.17 0.02,-0.18 0.01,-0.18 0.01,-0.19 0.01,-0.19 0,-0.19 0,-0.2 0,-0.21 c 0,-2.29 -0.33,-3.4 -2,-4.78 l 0.1,-0.19 c 1.88,1.15 2.92,2.82 2.92,5.01 0,2 -1.07,3.98 -2.88,5.06 z" id="path5121" /></g></svg>