<?xml version='1.0' ?><svg xmlns:ns0="http://www.iki.fi/pav/software/textext/" xmlns:dc="http://purl.org/dc/elements/1.1/" xmlns:cc="http://creativecommons.org/ns#" xmlns:rdf="http://www.w3.org/1999/02/22-rdf-syntax-ns#" xmlns:svg="http://www.w3.org/2000/svg" xmlns="http://www.w3.org/2000/svg" id="svg2" version="1.1" width="319.66009" height="319.66009" viewBox="0.0 0.0 469.0000016066839 469.0000016066839" preserveAspectRatio="none">
  <metadata id="metadata355">
    <rdf:RDF>
      <cc:Work rdf:about="">
        <dc:format>image/svg+xml</dc:format>
        <dc:type rdf:resource="http://purl.org/dc/dcmitype/StillImage" />
      </cc:Work>
    </rdf:RDF>
  </metadata>
  <defs id="defs353" />
  <title id="title4" />
  <g stroke-linejoin="miter" stroke-dashoffset="0.0000" stroke-dasharray="none" stroke-width="1.0000" stroke-miterlimit="10.000" stroke-linecap="square" id="g6">
    <clipPath id="clip1">
      <path d="M 0.0000 0.0000 L 0.0000 469.00 L 469.00 469.00 L 469.00 0.0000 z" id="path9" />
    </clipPath>
    <g clip-path="url(#clip1)" id="g11">
      <g stroke-linecap="butt" fill="none" stroke-opacity="1.0000" stroke="#000000" id="g13">
        <path d="M 131.01 2.0000 L 131.01 469.00" id="path15" />
      </g>
    </g>
    <clipPath id="clip2">
      <path d="M 0.0000 0.0000 L 0.0000 469.00 L 469.00 469.00 L 469.00 0.0000 z" id="path18" />
    </clipPath>
    <g clip-path="url(#clip2)" id="g20">
      <g fill-opacity="1.0000" fill-rule="evenodd" stroke="none" fill="#000000" id="g22">
        <path d="M 131.01 1.0000 L 127.01 17.000 L 135.01 17.000" id="path24" />
      </g>
    </g>
    <clipPath id="clip3">
      <path d="M 0.0000 0.0000 L 0.0000 469.00 L 469.00 469.00 L 469.00 0.0000 z" id="path27" />
    </clipPath>
    <g clip-path="url(#clip3)" id="g29">
      <g stroke-linecap="butt" fill="none" stroke-opacity="1.0000" stroke="#000000" id="g31">
        <path d="M 0.0000 336.59 L 467.00 336.59" id="path33" />
      </g>
    </g>
    <clipPath id="clip4">
      <path d="M 0.0000 0.0000 L 0.0000 469.00 L 469.00 469.00 L 469.00 0.0000 z" id="path36" />
    </clipPath>
    <g clip-path="url(#clip4)" id="g38">
      <g fill-opacity="1.0000" fill-rule="evenodd" stroke="none" fill="#000000" id="g40">
        <path d="M 468.00 336.59 L 452.00 332.59 L 452.00 340.59" id="path42" />
      </g>
    </g>
    <clipPath id="clip5">
      <path d="M 0.0000 0.0000 L 0.0000 469.00 L 469.00 469.00 L 469.00 0.0000 z" id="path45" />
    </clipPath>
    <g clip-path="url(#clip5)" id="g47">
      <g fill-opacity="1.0000" fill-rule="nonzero" stroke="none" fill="#000000" id="g49">
        <path d="M 14.615 348.82 L 14.615 348.02 L 19.385 348.02 L 19.385 348.82 z M 20.996 352.00 L 20.996 350.99 Q 21.500 349.81 23.035 348.42 L 23.697 347.83 Q 24.975 346.67 24.975 345.54 Q 24.975 344.81 24.538 344.39 Q 24.102 343.98 23.340 343.98 Q 22.438 343.98 21.213 344.68 L 21.213 343.66 Q 22.367 343.11 23.504 343.11 Q 24.723 343.11 25.461 343.77 Q 26.199 344.42 26.199 345.51 Q 26.199 346.29 25.827 346.89 Q 25.455 347.49 24.441 348.36 L 23.996 348.74 Q 22.607 349.91 22.391 350.99 L 26.158 350.99 L 26.158 352.00 z" id="path51" />
      </g>
    </g>
    <clipPath id="clip6">
      <path d="M 0.0000 0.0000 L 0.0000 469.00 L 469.00 469.00 L 469.00 0.0000 z" id="path54" />
    </clipPath>
    <g clip-path="url(#clip6)" id="g56">
      <g stroke-linecap="butt" fill="none" stroke-opacity="1.0000" stroke="#000000" id="g58">
        <path d="M 19.864 336.59 L 19.864 339.59" id="path60" />
      </g>
    </g>
    <clipPath id="clip7">
      <path d="M 0.0000 0.0000 L 0.0000 469.00 L 469.00 469.00 L 469.00 0.0000 z" id="path63" />
    </clipPath>
    <g clip-path="url(#clip7)" id="g65">
      <g fill-opacity="1.0000" fill-rule="nonzero" stroke="none" fill="#000000" id="g67">
        <path d="M 70.615 348.82 L 70.615 348.02 L 75.385 348.02 L 75.385 348.82 z M 77.805 352.00 L 77.805 351.13 L 79.539 351.13 L 79.539 344.29 L 77.805 344.72 L 77.805 343.83 L 80.699 343.11 L 80.699 351.13 L 82.434 351.13 L 82.434 352.00 z" id="path69" />
      </g>
    </g>
    <clipPath id="clip8">
      <path d="M 0.0000 0.0000 L 0.0000 469.00 L 469.00 469.00 L 469.00 0.0000 z" id="path72" />
    </clipPath>
    <g clip-path="url(#clip8)" id="g74">
      <g stroke-linecap="butt" fill="none" stroke-opacity="1.0000" stroke="#000000" id="g76">
        <path d="M 75.435 336.59 L 75.435 339.59" id="path78" />
      </g>
    </g>
    <clipPath id="clip9">
      <path d="M 0.0000 0.0000 L 0.0000 469.00 L 469.00 469.00 L 469.00 0.0000 z" id="path81" />
    </clipPath>
    <g clip-path="url(#clip9)" id="g83">
      <g fill-opacity="1.0000" fill-rule="nonzero" stroke="none" fill="#000000" id="g85">
        <path d="M 140.76 352.22 Q 139.42 352.22 138.59 350.95 Q 137.76 349.69 137.76 347.66 Q 137.76 345.61 138.60 344.36 Q 139.43 343.11 140.80 343.11 Q 142.16 343.11 143.00 344.36 Q 143.83 345.61 143.83 347.64 Q 143.83 349.73 143.00 350.97 Q 142.16 352.22 140.76 352.22 z M 140.77 351.35 Q 142.61 351.35 142.61 347.62 Q 142.61 343.98 140.80 343.98 Q 138.99 343.98 138.99 347.66 Q 138.99 351.35 140.77 351.35 z" id="path87" />
      </g>
    </g>
    <clipPath id="clip10">
      <path d="M 0.0000 0.0000 L 0.0000 469.00 L 469.00 469.00 L 469.00 0.0000 z" id="path90" />
    </clipPath>
    <g clip-path="url(#clip10)" id="g92">
      <g stroke-linecap="butt" fill="none" stroke-opacity="1.0000" stroke="#000000" id="g94">
        <path d="M 131.01 336.59 L 131.01 339.59" id="path96" />
      </g>
    </g>
    <clipPath id="clip11">
      <path d="M 0.0000 0.0000 L 0.0000 469.00 L 469.00 469.00 L 469.00 0.0000 z" id="path99" />
    </clipPath>
    <g clip-path="url(#clip11)" id="g101">
      <g fill-opacity="1.0000" fill-rule="nonzero" stroke="none" fill="#000000" id="g103">
        <path d="M 185.80 352.00 L 185.80 351.13 L 187.54 351.13 L 187.54 344.29 L 185.80 344.72 L 185.80 343.83 L 188.70 343.11 L 188.70 351.13 L 190.43 351.13 L 190.43 352.00 z" id="path105" />
      </g>
    </g>
    <clipPath id="clip12">
      <path d="M 0.0000 0.0000 L 0.0000 469.00 L 469.00 469.00 L 469.00 0.0000 z" id="path108" />
    </clipPath>
    <g clip-path="url(#clip12)" id="g110">
      <g stroke-linecap="butt" fill="none" stroke-opacity="1.0000" stroke="#000000" id="g112">
        <path d="M 186.58 336.59 L 186.58 339.59" id="path114" />
      </g>
    </g>
    <clipPath id="clip13">
      <path d="M 0.0000 0.0000 L 0.0000 469.00 L 469.00 469.00 L 469.00 0.0000 z" id="path117" />
    </clipPath>
    <g clip-path="url(#clip13)" id="g119">
      <g fill-opacity="1.0000" fill-rule="nonzero" stroke="none" fill="#000000" id="g121">
        <path d="M 241.00 352.00 L 241.00 350.99 Q 241.50 349.81 243.04 348.42 L 243.70 347.83 Q 244.97 346.67 244.97 345.54 Q 244.97 344.81 244.54 344.39 Q 244.10 343.98 243.34 343.98 Q 242.44 343.98 241.21 344.68 L 241.21 343.66 Q 242.37 343.11 243.50 343.11 Q 244.72 343.11 245.46 343.77 Q 246.20 344.42 246.20 345.51 Q 246.20 346.29 245.83 346.89 Q 245.46 347.49 244.44 348.36 L 244.00 348.74 Q 242.61 349.91 242.39 350.99 L 246.16 350.99 L 246.16 352.00 z" id="path123" />
      </g>
    </g>
    <clipPath id="clip14">
      <path d="M 0.0000 0.0000 L 0.0000 469.00 L 469.00 469.00 L 469.00 0.0000 z" id="path126" />
    </clipPath>
    <g clip-path="url(#clip14)" id="g128">
      <g stroke-linecap="butt" fill="none" stroke-opacity="1.0000" stroke="#000000" id="g130">
        <path d="M 242.15 336.59 L 242.15 339.59" id="path132" />
      </g>
    </g>
    <clipPath id="clip15">
      <path d="M 0.0000 0.0000 L 0.0000 469.00 L 469.00 469.00 L 469.00 0.0000 z" id="path135" />
    </clipPath>
    <g clip-path="url(#clip15)" id="g137">
      <g fill-opacity="1.0000" fill-rule="nonzero" stroke="none" fill="#000000" id="g139">
        <path d="M 296.22 351.94 L 296.22 350.86 Q 297.46 351.35 298.18 351.35 Q 299.00 351.35 299.52 350.87 Q 300.04 350.38 300.04 349.62 Q 300.04 347.79 297.48 347.79 L 297.02 347.79 L 297.02 347.01 L 297.43 347.00 Q 299.83 347.00 299.83 345.31 Q 299.83 343.98 298.25 343.98 Q 297.38 343.98 296.34 344.46 L 296.34 343.46 Q 297.36 343.11 298.33 343.11 Q 300.99 343.11 300.99 345.12 Q 300.99 346.65 299.18 347.30 Q 301.28 347.79 301.28 349.60 Q 301.28 350.82 300.47 351.52 Q 299.66 352.22 298.25 352.22 Q 297.44 352.22 296.22 351.94 z" id="path141" />
      </g>
    </g>
    <clipPath id="clip16">
      <path d="M 0.0000 0.0000 L 0.0000 469.00 L 469.00 469.00 L 469.00 0.0000 z" id="path144" />
    </clipPath>
    <g clip-path="url(#clip16)" id="g146">
      <g stroke-linecap="butt" fill="none" stroke-opacity="1.0000" stroke="#000000" id="g148">
        <path d="M 297.72 336.59 L 297.72 339.59" id="path150" />
      </g>
    </g>
    <clipPath id="clip17">
      <path d="M 0.0000 0.0000 L 0.0000 469.00 L 469.00 469.00 L 469.00 0.0000 z" id="path153" />
    </clipPath>
    <g clip-path="url(#clip17)" id="g155">
      <g fill-opacity="1.0000" fill-rule="nonzero" stroke="none" fill="#000000" id="g157">
        <path d="M 355.52 352.00 L 355.52 349.54 L 351.62 349.54 L 351.62 348.67 L 355.52 343.33 L 356.60 343.33 L 356.60 348.60 L 357.76 348.60 L 357.76 349.54 L 356.60 349.54 L 356.60 352.00 z M 352.75 348.60 L 355.59 348.60 L 355.59 344.75 z" id="path159" />
      </g>
    </g>
    <clipPath id="clip18">
      <path d="M 0.0000 0.0000 L 0.0000 469.00 L 469.00 469.00 L 469.00 0.0000 z" id="path162" />
    </clipPath>
    <g clip-path="url(#clip18)" id="g164">
      <g stroke-linecap="butt" fill="none" stroke-opacity="1.0000" stroke="#000000" id="g166">
        <path d="M 353.29 336.59 L 353.29 339.59" id="path168" />
      </g>
    </g>
    <clipPath id="clip19">
      <path d="M 0.0000 0.0000 L 0.0000 469.00 L 469.00 469.00 L 469.00 0.0000 z" id="path171" />
    </clipPath>
    <g clip-path="url(#clip19)" id="g173">
      <g fill-opacity="1.0000" fill-rule="nonzero" stroke="none" fill="#000000" id="g175">
        <path d="M 407.46 352.04 L 407.46 351.00 Q 408.32 351.35 409.10 351.35 Q 409.96 351.35 410.44 350.85 Q 410.93 350.34 410.93 349.46 Q 410.93 347.51 408.24 347.51 Q 407.94 347.51 407.61 347.55 L 407.61 343.33 L 411.99 343.33 L 411.99 344.34 L 408.62 344.34 L 408.62 346.62 Q 410.29 346.62 411.23 347.39 Q 412.16 348.16 412.16 349.52 Q 412.16 350.78 411.31 351.50 Q 410.46 352.22 408.95 352.22 Q 408.29 352.22 407.46 352.04 z" id="path177" />
      </g>
    </g>
    <clipPath id="clip20">
      <path d="M 0.0000 0.0000 L 0.0000 469.00 L 469.00 469.00 L 469.00 0.0000 z" id="path180" />
    </clipPath>
    <g clip-path="url(#clip20)" id="g182">
      <g stroke-linecap="butt" fill="none" stroke-opacity="1.0000" stroke="#000000" id="g184">
        <path d="M 408.86 336.59 L 408.86 339.59" id="path186" />
      </g>
    </g>
    <clipPath id="clip21">
      <path d="M 0.0000 0.0000 L 0.0000 469.00 L 469.00 469.00 L 469.00 0.0000 z" id="path189" />
    </clipPath>
    <g clip-path="url(#clip21)" id="g191">
      <g fill-opacity="1.0000" fill-rule="nonzero" stroke="none" fill="#000000" id="g193">
        <path d="M 110.62 448.82 L 110.62 448.02 L 115.38 448.02 L 115.38 448.82 z M 117.00 452.00 L 117.00 450.99 Q 117.50 449.81 119.04 448.42 L 119.70 447.83 Q 120.97 446.67 120.97 445.54 Q 120.97 444.81 120.54 444.39 Q 120.10 443.98 119.34 443.98 Q 118.44 443.98 117.21 444.68 L 117.21 443.66 Q 118.37 443.11 119.50 443.11 Q 120.72 443.11 121.46 443.77 Q 122.20 444.42 122.20 445.51 Q 122.20 446.29 121.83 446.89 Q 121.46 447.49 120.44 448.36 L 120.00 448.74 Q 118.61 449.91 118.39 450.99 L 122.16 450.99 L 122.16 452.00 z" id="path195" />
      </g>
    </g>
    <clipPath id="clip22">
      <path d="M 0.0000 0.0000 L 0.0000 469.00 L 469.00 469.00 L 469.00 0.0000 z" id="path198" />
    </clipPath>
    <g clip-path="url(#clip22)" id="g200">
      <g stroke-linecap="butt" fill="none" stroke-opacity="1.0000" stroke="#000000" id="g202">
        <path d="M 128.01 447.73 L 131.01 447.73" id="path204" />
      </g>
    </g>
    <clipPath id="clip23">
      <path d="M 0.0000 0.0000 L 0.0000 469.00 L 469.00 469.00 L 469.00 0.0000 z" id="path207" />
    </clipPath>
    <g clip-path="url(#clip23)" id="g209">
      <g fill-opacity="1.0000" fill-rule="nonzero" stroke="none" fill="#000000" id="g211">
        <path d="M 110.62 393.82 L 110.62 393.02 L 115.38 393.02 L 115.38 393.82 z M 117.80 397.00 L 117.80 396.13 L 119.54 396.13 L 119.54 389.29 L 117.80 389.72 L 117.80 388.83 L 120.70 388.11 L 120.70 396.13 L 122.43 396.13 L 122.43 397.00 z" id="path213" />
      </g>
    </g>
    <clipPath id="clip24">
      <path d="M 0.0000 0.0000 L 0.0000 469.00 L 469.00 469.00 L 469.00 0.0000 z" id="path216" />
    </clipPath>
    <g clip-path="url(#clip24)" id="g218">
      <g stroke-linecap="butt" fill="none" stroke-opacity="1.0000" stroke="#000000" id="g220">
        <path d="M 128.01 392.16 L 131.01 392.16" id="path222" />
      </g>
    </g>
    <clipPath id="clip25">
      <path d="M 0.0000 0.0000 L 0.0000 469.00 L 469.00 469.00 L 469.00 0.0000 z" id="path225" />
    </clipPath>
    <g clip-path="url(#clip25)" id="g227">
      <g fill-opacity="1.0000" fill-rule="nonzero" stroke="none" fill="#000000" id="g229">
        <path d="M 119.76 334.22 Q 118.42 334.22 117.59 332.95 Q 116.76 331.69 116.76 329.66 Q 116.76 327.61 117.60 326.36 Q 118.43 325.11 119.80 325.11 Q 121.16 325.11 122.00 326.36 Q 122.83 327.61 122.83 329.64 Q 122.83 331.73 122.00 332.97 Q 121.16 334.22 119.76 334.22 z M 119.77 333.35 Q 121.61 333.35 121.61 329.62 Q 121.61 325.98 119.80 325.98 Q 117.99 325.98 117.99 329.66 Q 117.99 333.35 119.77 333.35 z" id="path231" />
      </g>
    </g>
    <clipPath id="clip26">
      <path d="M 0.0000 0.0000 L 0.0000 469.00 L 469.00 469.00 L 469.00 0.0000 z" id="path234" />
    </clipPath>
    <g clip-path="url(#clip26)" id="g236">
      <g fill-opacity="1.0000" fill-rule="nonzero" stroke="none" fill="#000000" id="g238">
        <path d="M 117.80 286.00 L 117.80 285.13 L 119.54 285.13 L 119.54 278.29 L 117.80 278.72 L 117.80 277.83 L 120.70 277.11 L 120.70 285.13 L 122.43 285.13 L 122.43 286.00 z" id="path240" />
      </g>
    </g>
    <clipPath id="clip27">
      <path d="M 0.0000 0.0000 L 0.0000 469.00 L 469.00 469.00 L 469.00 0.0000 z" id="path243" />
    </clipPath>
    <g clip-path="url(#clip27)" id="g245">
      <g stroke-linecap="butt" fill="none" stroke-opacity="1.0000" stroke="#000000" id="g247">
        <path d="M 128.01 281.02 L 131.01 281.02" id="path249" />
      </g>
    </g>
    <clipPath id="clip28">
      <path d="M 0.0000 0.0000 L 0.0000 469.00 L 469.00 469.00 L 469.00 0.0000 z" id="path252" />
    </clipPath>
    <g clip-path="url(#clip28)" id="g254">
      <g fill-opacity="1.0000" fill-rule="nonzero" stroke="none" fill="#000000" id="g256">
        <path d="M 117.00 230.00 L 117.00 228.99 Q 117.50 227.81 119.04 226.42 L 119.70 225.83 Q 120.97 224.67 120.97 223.54 Q 120.97 222.81 120.54 222.39 Q 120.10 221.98 119.34 221.98 Q 118.44 221.98 117.21 222.68 L 117.21 221.66 Q 118.37 221.11 119.50 221.11 Q 120.72 221.11 121.46 221.77 Q 122.20 222.42 122.20 223.51 Q 122.20 224.29 121.83 224.89 Q 121.46 225.49 120.44 226.36 L 120.00 226.74 Q 118.61 227.91 118.39 228.99 L 122.16 228.99 L 122.16 230.00 z" id="path258" />
      </g>
    </g>
    <clipPath id="clip29">
      <path d="M 0.0000 0.0000 L 0.0000 469.00 L 469.00 469.00 L 469.00 0.0000 z" id="path261" />
    </clipPath>
    <g clip-path="url(#clip29)" id="g263">
      <g stroke-linecap="butt" fill="none" stroke-opacity="1.0000" stroke="#000000" id="g265">
        <path d="M 128.01 225.45 L 131.01 225.45" id="path267" />
      </g>
    </g>
    <clipPath id="clip30">
      <path d="M 0.0000 0.0000 L 0.0000 469.00 L 469.00 469.00 L 469.00 0.0000 z" id="path270" />
    </clipPath>
    <g clip-path="url(#clip30)" id="g272">
      <g fill-opacity="1.0000" fill-rule="nonzero" stroke="none" fill="#000000" id="g274">
        <path d="M 117.22 173.94 L 117.22 172.86 Q 118.46 173.35 119.18 173.35 Q 120.00 173.35 120.52 172.87 Q 121.04 172.38 121.04 171.62 Q 121.04 169.79 118.48 169.79 L 118.02 169.79 L 118.02 169.01 L 118.43 169.00 Q 120.83 169.00 120.83 167.31 Q 120.83 165.98 119.25 165.98 Q 118.38 165.98 117.34 166.46 L 117.34 165.46 Q 118.36 165.11 119.33 165.11 Q 121.99 165.11 121.99 167.12 Q 121.99 168.65 120.18 169.30 Q 122.28 169.79 122.28 171.60 Q 122.28 172.82 121.47 173.52 Q 120.66 174.22 119.25 174.22 Q 118.44 174.22 117.22 173.94 z" id="path276" />
      </g>
    </g>
    <clipPath id="clip31">
      <path d="M 0.0000 0.0000 L 0.0000 469.00 L 469.00 469.00 L 469.00 0.0000 z" id="path279" />
    </clipPath>
    <g clip-path="url(#clip31)" id="g281">
      <g stroke-linecap="butt" fill="none" stroke-opacity="1.0000" stroke="#000000" id="g283">
        <path d="M 128.01 169.88 L 131.01 169.88" id="path285" />
      </g>
    </g>
    <clipPath id="clip32">
      <path d="M 0.0000 0.0000 L 0.0000 469.00 L 469.00 469.00 L 469.00 0.0000 z" id="path288" />
    </clipPath>
    <g clip-path="url(#clip32)" id="g290">
      <g fill-opacity="1.0000" fill-rule="nonzero" stroke="none" fill="#000000" id="g292">
        <path d="M 120.52 119.00 L 120.52 116.54 L 116.62 116.54 L 116.62 115.67 L 120.52 110.33 L 121.60 110.33 L 121.60 115.60 L 122.76 115.60 L 122.76 116.54 L 121.60 116.54 L 121.60 119.00 z M 117.75 115.60 L 120.59 115.60 L 120.59 111.75 z" id="path294" />
      </g>
    </g>
    <clipPath id="clip33">
      <path d="M 0.0000 0.0000 L 0.0000 469.00 L 469.00 469.00 L 469.00 0.0000 z" id="path297" />
    </clipPath>
    <g clip-path="url(#clip33)" id="g299">
      <g stroke-linecap="butt" fill="none" stroke-opacity="1.0000" stroke="#000000" id="g301">
        <path d="M 128.01 114.31 L 131.01 114.31" id="path303" />
      </g>
    </g>
    <clipPath id="clip34">
      <path d="M 0.0000 0.0000 L 0.0000 469.00 L 469.00 469.00 L 469.00 0.0000 z" id="path306" />
    </clipPath>
    <g clip-path="url(#clip34)" id="g308">
      <g fill-opacity="1.0000" fill-rule="nonzero" stroke="none" fill="#000000" id="g310">
        <path d="M 117.46 63.035 L 117.46 62.004 Q 118.32 62.350 119.10 62.350 Q 119.96 62.350 120.44 61.846 Q 120.93 61.342 120.93 60.457 Q 120.93 58.506 118.24 58.506 Q 117.94 58.506 117.61 58.547 L 117.61 54.328 L 121.99 54.328 L 121.99 55.336 L 118.62 55.336 L 118.62 57.621 Q 120.29 57.621 121.23 58.389 Q 122.16 59.156 122.16 60.516 Q 122.16 61.781 121.31 62.499 Q 120.46 63.217 118.95 63.217 Q 118.29 63.217 117.46 63.035 z" id="path312" />
      </g>
    </g>
    <clipPath id="clip35">
      <path d="M 0.0000 0.0000 L 0.0000 469.00 L 469.00 469.00 L 469.00 0.0000 z" id="path315" />
    </clipPath>
    <g clip-path="url(#clip35)" id="g317">
      <g stroke-linecap="butt" fill="none" stroke-opacity="1.0000" stroke="#000000" id="g319">
        <path d="M 128.01 58.735 L 131.01 58.735" id="path321" />
      </g>
    </g>
    <g id="misc" />
    <g id="layer0" style="stroke-width:3.12999148;stroke-miterlimit:4;stroke-dasharray:none">
      <clipPath id="clip36">
        <path d="M 0.0000 0.0000 L 0.0000 469.00 L 469.00 469.00 L 469.00 0.0000 z" id="path326" />
      </clipPath>
      <g clip-path="url(#clip36)" id="g328" style="stroke-width:3.12999148;stroke-miterlimit:4;stroke-dasharray:none;stroke:#0000ff;stroke-opacity:1">
        <g stroke-linejoin="round" stroke-width="1.5000" stroke-linecap="round" fill="none" stroke-opacity="1.0000" stroke="#006400" id="g330" style="stroke-width:3.12999148;stroke-miterlimit:4;stroke-dasharray:none;stroke:#0000ff;stroke-opacity:1">
          <path d="M 186.58 225.45 L 186.87 221.43 M 186.87 221.43 L 188.70 214.59 L 190.53 210.63 M 190.53 210.63 L 194.20 204.87 L 197.86 200.41 L 201.52 196.63 L 205.19 193.29 M 205.19 193.29 L 208.85 190.27 L 212.52 187.48 L 216.18 184.89 L 219.84 182.45 L 223.51 180.15 L 227.17 177.95 L 230.84 175.86 L 234.50 173.84 M 234.50 173.84 L 238.16 171.91 L 241.83 170.04 L 245.49 168.23 L 249.16 166.48 L 252.82 164.78 L 256.48 163.12 L 260.15 161.51 L 263.81 159.93 L 267.48 158.40 L 271.14 156.90 L 274.80 155.43 L 278.47 153.99 L 282.13 152.58 L 285.80 151.19 L 289.46 149.84 L 293.12 148.50 L 296.79 147.19 L 300.45 145.90 L 304.12 144.63 L 307.78 143.38 L 311.45 142.15 L 315.11 140.93 L 318.77 139.74 L 322.44 138.56 L 326.10 137.39 L 329.77 136.25 L 333.43 135.11 L 337.09 133.99 L 340.76 132.89 L 344.42 131.79 L 348.09 130.71 L 351.75 129.64 L 355.41 128.59 L 359.08 127.54 L 362.74 126.51 L 366.41 125.48 L 370.07 124.47 L 373.73 123.47 L 377.40 122.47 L 381.06 121.49 L 384.73 120.51 L 388.39 119.55 L 392.05 118.59 L 395.72 117.64 L 399.38 116.70 L 403.05 115.77 L 406.71 114.85 L 410.38 113.93 L 414.04 113.02 L 417.70 112.12 L 421.37 111.22 L 425.03 110.33 L 428.70 109.45 L 432.36 108.58 L 436.02 107.71 L 439.69 106.85 L 443.35 105.99 L 447.02 105.15 L 450.68 104.30 L 454.34 103.46 L 458.01 102.63 L 461.67 101.81 L 465.34 100.99 L 469.00 100.17" id="path332" style="stroke-width:3.12999148;stroke-miterlimit:4;stroke-dasharray:none;stroke:#0000ff;stroke-opacity:1" />
          <title id="title334">Function j</title>
          <desc id="desc336">j(x) = 2 + sqrt(x - 1)</desc>
        </g>
      </g>
      <clipPath id="clip37">
        <path d="M 0.0000 0.0000 L 0.0000 469.00 L 469.00 469.00 L 469.00 0.0000 z" id="path339" />
      </clipPath>
      <g clip-path="url(#clip37)" id="g341" style="stroke-width:3.12999148;stroke-miterlimit:4;stroke-dasharray:none;stroke:#cc5522;stroke-opacity:1">
        <g stroke-linejoin="round" stroke-width="1.5000" stroke-linecap="round" fill="none" stroke-opacity="1.0000" stroke="#0000ff" id="g343" style="stroke-width:3.12999148;stroke-miterlimit:4;stroke-dasharray:none;stroke:#cc5522;stroke-opacity:1">
          <path d="M 242.15 281.02 L 245.49 280.82 M 245.49 280.82 L 249.16 280.14 M 249.16 280.14 L 252.82 278.97 L 256.48 277.32 L 260.15 275.19 L 263.81 272.57 M 263.81 272.57 L 267.48 269.48 L 271.14 265.89 L 274.80 261.83 L 278.47 257.28 L 282.13 252.25 L 285.80 246.74 L 289.46 240.74 L 293.12 234.26 M 293.12 234.26 L 296.79 227.29 L 300.45 219.85 L 304.12 211.92 L 307.78 203.50 L 311.45 194.61 L 315.11 185.23 L 318.77 175.36 L 320.61 170.25 L 322.44 165.02 L 324.27 159.66 L 326.10 154.19 L 327.93 148.59 L 329.77 142.88 L 331.60 137.04 L 333.43 131.08 L 335.26 125.00 L 337.09 118.80 L 338.93 112.48 L 340.76 106.04 L 342.59 99.478 L 344.42 92.795 L 346.25 85.991 L 348.09 79.066 L 349.92 72.021 L 351.75 64.855 M 351.75 64.855 L 353.58 57.568 L 355.41 50.160 L 357.25 42.632 L 359.08 34.982 L 360.91 27.212 L 362.74 19.321 L 364.57 11.310 L 366.41 3.1771 L 368.24 -5.0762" id="path345" style="stroke-width:3.12999148;stroke-miterlimit:4;stroke-dasharray:none;stroke:#cc5522;stroke-opacity:1" />
          <title id="title347">Function b</title>
          <desc id="desc349">b(x) = If[x Ã&#131;Â¢Ã&#130;Â&#137;Ã&#130;Â¥ 2, (x - 2)Ã&#131;Â&#130;Ã&#130;Â² + 1]</desc>
        </g>
      </g>
    </g>
    <g ns0:preamble="/Users/prmb/CMEP/underground-inkscape-preamble.tex" ns0:text="$y=b(x)$" word-spacing="normal" letter-spacing="normal" font-size-adjust="none" font-stretch="normal" font-weight="normal" font-variant="normal" font-style="normal" stroke-miterlimit="10.433" xml:space="preserve" transform="matrix(2,0,0,-2,-150.13558,1220.3898)" id="g5107" style="font-style:normal;font-variant:normal;font-weight:normal;font-stretch:normal;letter-spacing:normal;word-spacing:normal;text-anchor:start;fill:none;fill-opacity:1;fill-rule:evenodd;stroke:#000000;stroke-linecap:butt;stroke-linejoin:miter;stroke-miterlimit:10.43299961;stroke-dasharray:none;stroke-dashoffset:0;stroke-opacity:1"><path id="path5109" d="m 226.62,480.86 -0.01,0.08 -0.01,0.08 -0.01,0.07 -0.01,0.07 -0.01,0.07 -0.01,0.07 -0.01,0.06 -0.01,0.06 -0.01,0.06 -0.01,0.05 -0.01,0.06 -0.01,0.05 -0.01,0.05 -0.01,0.04 -0.02,0.05 -0.01,0.05 -0.01,0.04 -0.02,0.04 -0.01,0.04 -0.01,0.04 -0.04,0.08 -0.03,0.07 -0.04,0.08 -0.04,0.07 -0.04,0.07 -0.05,0.07 -1.77,-0.3 0.02,-0.18 c 0.11,0.01 0.3,0.04 0.43,0.04 0.66,0 0.76,-0.71 0.82,-1.24 l 0.45,-3.7 c -0.31,-0.48 -0.98,-1.21 -1.18,-1.21 -0.19,0 -0.16,0.37 -0.67,0.37 -0.16,0 -0.47,-0.13 -0.47,-0.49 0,-0.28 0.22,-0.64 0.66,-0.64 0.8,0 1.57,1.15 2.43,2.24 0.5,0.62 2.41,3.46 2.41,4.38 0,0.46 -0.3,0.73 -0.67,0.73 -0.35,0 -0.56,-0.21 -0.56,-0.47 0,-0.45 0.61,-0.57 0.61,-0.82 0,-0.21 -0.09,-0.45 -0.33,-0.88 -0.26,-0.49 -0.67,-1.19 -1.39,-2.18 z" style="fill:#000000;stroke-width:0" /><polygon id="polygon5111" points="240.11,481.79 233.16,481.79 233.16,481.01 240.11,481.01 " style="fill:#000000;stroke-width:0" /><polygon id="polygon5113" points="240.11,479.43 233.16,479.43 233.16,478.65 240.11,478.65 " style="fill:#000000;stroke-width:0" /><path id="path5115" d="m 246.53,481.74 0.86,3.38 -1.87,-0.28 0.04,-0.19 c 0.09,0.03 0.23,0.05 0.35,0.05 0.16,0 0.33,-0.1 0.35,-0.25 0,-0.04 -0.02,-0.08 -0.03,-0.13 l -1.7,-6.65 c 0.53,-0.35 1.02,-0.56 1.64,-0.56 l -0.06,0.34 c -0.27,0 -0.65,0.14 -0.65,0.22 l 0.65,2.54 c 0.13,0.53 0.54,1.58 1.38,1.58 0.39,0 0.84,-0.26 0.84,-1.08 0,-1.21 -0.78,-3.26 -2.22,-3.26 l 0.06,-0.34 c 1.86,0 3.14,2.12 3.14,3.55 0,0.97 -0.48,1.78 -1.31,1.78 -0.58,0 -1.04,-0.36 -1.43,-0.74 z" style="fill:#000000;stroke-width:0" /><path id="path5117" d="m 253.16,475.33 -0.15,0.13 -0.15,0.13 -0.13,0.13 -0.13,0.13 -0.13,0.13 -0.11,0.13 -0.11,0.13 -0.1,0.14 -0.1,0.13 -0.09,0.13 -0.08,0.14 -0.08,0.14 -0.08,0.14 -0.06,0.14 -0.07,0.14 -0.06,0.14 -0.05,0.15 -0.05,0.15 -0.04,0.16 -0.04,0.15 -0.04,0.16 -0.03,0.16 -0.02,0.17 -0.03,0.17 -0.02,0.17 -0.02,0.18 -0.01,0.18 -0.01,0.18 -0.01,0.19 0,0.19 -0.01,0.2 0,0.21 c 0,2.27 0.37,3.37 2.01,4.78 l -0.11,0.19 c -1.89,-1.13 -2.92,-2.83 -2.92,-5.01 0,-2.01 1.02,-4 2.89,-5.07 z" style="fill:#000000;stroke-width:0" /><path id="path5119" d="m 257.11,480.64 -0.23,0.64 c -0.14,0.39 -0.37,0.88 -0.89,1.16 l -1.56,-0.39 0.04,-0.21 c 0.12,0.05 0.29,0.07 0.45,0.07 0.65,0 0.96,-0.48 1.16,-1.05 l 0.38,-1.09 -0.76,-1.19 c -0.38,-0.58 -0.69,-0.7 -0.83,-0.7 -0.29,0 -0.25,0.24 -0.55,0.24 -0.3,0 -0.45,-0.25 -0.45,-0.44 0,-0.26 0.19,-0.55 0.61,-0.55 0.66,0 1.01,0.51 1.38,1.08 l 0.75,1.16 0.47,-1.33 c 0.15,-0.43 0.38,-0.91 0.86,-0.91 0.69,0 1.22,1.13 1.36,1.31 l -0.17,0.12 c -0.24,-0.51 -0.53,-0.68 -0.72,-0.68 -0.53,0 -0.8,1.6 -1.15,2.33 l 0.65,1 c 0.16,0.26 0.29,0.45 0.64,0.45 0.21,0 0.27,-0.1 0.53,-0.1 0.3,0 0.46,0.27 0.46,0.49 0,0.25 -0.21,0.39 -0.58,0.39 -0.59,0 -1.01,-0.52 -1.31,-0.99 z" style="fill:#000000;stroke-width:0" /><path id="path5121" d="m 260.37,485.03 0.16,-0.13 0.15,-0.13 0.14,-0.12 0.13,-0.13 0.13,-0.13 0.11,-0.13 0.11,-0.13 0.11,-0.13 0.1,-0.13 0.09,-0.13 0.08,-0.14 0.08,-0.14 0.07,-0.14 0.07,-0.14 0.06,-0.14 0.06,-0.15 0.05,-0.14 0.05,-0.15 0.04,-0.16 0.04,-0.16 0.03,-0.15 0.03,-0.17 0.03,-0.16 0.02,-0.17 0.02,-0.18 0.01,-0.18 0.01,-0.18 0.01,-0.18 0.01,-0.19 0.01,-0.2 0,-0.2 0,-0.2 c 0,-2.29 -0.33,-3.41 -2.01,-4.79 l 0.11,-0.19 c 1.88,1.15 2.91,2.83 2.91,5.01 0,2.01 -1.07,3.98 -2.88,5.07 z" style="fill:#000000;stroke-width:0" /></g>    <g id="content" transform="matrix(2,0,0,-2,-284.98304,1111.322)" xml:space="preserve" stroke="black" stroke-linecap="butt" stroke-linejoin="miter" stroke-miterlimit="10.433" stroke-dasharray="none" stroke-dashoffset="0" stroke-opacity="1" fill="none" fill-rule="evenodd" fill-opacity="1" font-style="normal" font-variant="normal" font-weight="normal" font-stretch="normal" font-size-adjust="none" letter-spacing="normal" word-spacing="normal" text-anchor="start" ns0:text="$y=h(x)$" ns0:preamble="/Users/prmb/CMEP/underground-inkscape-preamble.tex" style="font-style:normal;font-variant:normal;font-weight:normal;font-stretch:normal;letter-spacing:normal;word-spacing:normal;text-anchor:start;fill:none;fill-opacity:1;fill-rule:evenodd;stroke:#000000;stroke-linecap:butt;stroke-linejoin:miter;stroke-miterlimit:10.43299961;stroke-dasharray:none;stroke-dashoffset:0;stroke-opacity:1"><path d="M226.62,480.86 L226.61,480.94 L226.6,481.02 L226.59,481.09 L226.58,481.16 L226.57,481.23 L226.56,481.3 L226.55,481.36 L226.54,481.42 L226.53,481.48 L226.52,481.53 L226.51,481.59 L226.5,481.64 L226.49,481.69 L226.48,481.73 L226.46,481.78 L226.45,481.83 L226.44,481.87 L226.42,481.91 L226.41,481.95 L226.4,481.99 L226.36,482.07 L226.33,482.14 L226.29,482.22 L226.25,482.29 L226.21,482.36 L226.16,482.43 L224.39,482.13 L224.41,481.95 C224.52,481.96,224.71,481.99,224.84,481.99 C225.5,481.99,225.6,481.28,225.66,480.75 L226.11,477.05 C225.8,476.57,225.13,475.84,224.93,475.84 C224.74,475.84,224.77,476.21,224.26,476.21 C224.1,476.21,223.79,476.08,223.79,475.72 C223.79,475.44,224.01,475.08,224.45,475.08 C225.25,475.08,226.02,476.23,226.88,477.32 C227.38,477.94,229.29,480.78,229.29,481.7 C229.29,482.16,228.99,482.43,228.62,482.43 C228.27,482.43,228.06,482.22,228.06,481.96 C228.06,481.51,228.67,481.39,228.67,481.14 C228.67,480.93,228.58,480.69,228.34,480.26 C228.08,479.77,227.67,479.07,226.95,478.08 Z " stroke-width="0" fill="black" id="path4548" /><polygon points="239.59,481.01 239.59,481.79 232.64,481.79 232.64,481.01 " stroke-width="0" fill="black" id="polygon4550" /><polygon points="239.59,478.65 239.59,479.43 232.64,479.43 232.64,478.65 " stroke-width="0" fill="black" id="polygon4552" /><path d="M249.25,478.62 L249.2,478.55 L249.15,478.49 L249.1,478.44 L249.05,478.39 L249,478.34 L248.96,478.29 L248.91,478.25 L248.87,478.2 L248.83,478.17 L248.79,478.13 L248.75,478.1 L248.72,478.07 L248.68,478.04 L248.65,478.01 L248.61,477.99 L248.58,477.96 L248.55,477.94 L248.52,477.93 L248.49,477.91 L248.47,477.89 L248.44,477.88 L248.42,477.87 L248.39,477.86 L248.37,477.85 L248.34,477.85 L248.32,477.84 L248.3,477.83 L248.28,477.83 L248.26,477.83 L248.24,477.83 L248.2,477.83 C248.09,477.83,248.05,477.91,248.05,478.03 C248.05,478.19,248.12,478.48,248.18,478.67 L248.78,480.79 C248.87,481.11,248.91,481.39,248.91,481.63 C248.91,482.31,248.58,482.67,247.87,482.67 C247.17,482.67,246.27,482.06,245.28,480.14 H245.27 L246.69,485.27 L246.59,485.3 C246.15,485.12,245.74,484.98,244.75,484.78 V484.6 C245.11,484.6,245.43,484.58,245.43,484.34 C245.43,484.26,245.41,484.14,245.38,484 L243.51,477.23 H244.5 C245.02,479.08,245.28,479.69,245.8,480.46 C246.45,481.41,247.08,482.03,247.46,482.03 C247.8,482.03,247.89,481.82,247.89,481.51 C247.89,481.28,247.83,480.95,247.79,480.78 L247.31,479.08 C247.17,478.57,247.03,478.01,247.03,477.78 C247.03,477.34,247.27,477.12,247.66,477.12 C248.09,477.12,248.68,477.44,249.39,478.49 Z " stroke-width="0" fill="black" id="path4554" /><path d="M253.38,475.33 L253.23,475.46 L253.09,475.59 L252.95,475.72 L252.82,475.85 L252.7,475.98 L252.58,476.11 L252.47,476.24 L252.37,476.38 L252.28,476.51 L252.19,476.64 L252.1,476.78 L252.02,476.92 L251.95,477.06 L251.88,477.2 L251.82,477.34 L251.76,477.48 L251.71,477.63 L251.66,477.78 L251.61,477.94 L251.58,478.09 L251.54,478.25 L251.51,478.41 L251.48,478.58 L251.46,478.75 L251.44,478.92 L251.42,479.1 L251.41,479.28 L251.39,479.46 L251.39,479.65 L251.38,479.84 L251.38,480.04 L251.38,480.25 C251.38,482.52,251.74,483.62,253.38,485.03 L253.28,485.22 C251.39,484.09,250.36,482.39,250.36,480.21 C250.36,478.2,251.38,476.21,253.24,475.14 Z " stroke-width="0" fill="black" id="path4556" /><path d="M257.34,480.64 L257.1,481.28 C256.96,481.67,256.74,482.16,256.22,482.44 L254.66,482.05 L254.7,481.84 C254.81,481.89,254.99,481.91,255.14,481.91 C255.79,481.91,256.1,481.43,256.3,480.86 L256.69,479.77 L255.92,478.58 C255.54,478,255.24,477.88,255.1,477.88 C254.8,477.88,254.85,478.12,254.54,478.12 C254.25,478.12,254.09,477.87,254.09,477.68 C254.09,477.42,254.28,477.13,254.71,477.13 C255.37,477.13,255.71,477.64,256.09,478.21 L256.83,479.37 L257.3,478.04 C257.46,477.61,257.68,477.13,258.17,477.13 C258.85,477.13,259.38,478.26,259.52,478.44 L259.36,478.56 C259.11,478.05,258.83,477.88,258.64,477.88 C258.11,477.88,257.84,479.48,257.48,480.21 L258.13,481.21 C258.3,481.47,258.43,481.66,258.78,481.66 C258.98,481.66,259.04,481.56,259.3,481.56 C259.61,481.56,259.76,481.83,259.76,482.05 C259.76,482.3,259.56,482.44,259.18,482.44 C258.59,482.44,258.18,481.92,257.87,481.45 Z " stroke-width="0" fill="black" id="path4558" /><path d="M260.6,485.03 L260.75,484.9 L260.9,484.77 L261.04,484.65 L261.18,484.52 L261.3,484.39 L261.42,484.26 L261.53,484.13 L261.63,484 L261.73,483.87 L261.82,483.74 L261.91,483.6 L261.99,483.46 L262.06,483.32 L262.13,483.18 L262.19,483.04 L262.24,482.89 L262.29,482.75 L262.34,482.6 L262.38,482.44 L262.42,482.28 L262.45,482.13 L262.48,481.96 L262.51,481.8 L262.53,481.63 L262.55,481.45 L262.57,481.27 L262.58,481.09 L262.59,480.91 L262.6,480.72 L262.6,480.52 L262.6,480.32 L262.61,480.12 C262.61,477.83,262.27,476.71,260.6,475.33 L260.7,475.14 C262.58,476.29,263.62,477.97,263.62,480.15 C263.62,482.16,262.55,484.13,260.74,485.22 Z " stroke-width="0" fill="black" id="path4560" /></g>  </g>
</svg>