<?xml version='1.0' ?><svg xmlns:ns0="http://www.iki.fi/pav/software/textext/" xmlns:dc="http://purl.org/dc/elements/1.1/" xmlns:cc="http://creativecommons.org/ns#" xmlns:rdf="http://www.w3.org/1999/02/22-rdf-syntax-ns#" xmlns:svg="http://www.w3.org/2000/svg" xmlns="http://www.w3.org/2000/svg" xml:space="preserve" version="1.1" id="svg8193" width="653.97645" height="179.0847" viewBox="222.98014 260.715235 653.97645 179.0847" preserveAspectRatio="none"><metadata id="metadata8199"><rdf:RDF><cc:Work rdf:about=""><dc:format>image/svg+xml</dc:format><dc:type rdf:resource="http://purl.org/dc/dcmitype/StillImage" /><dc:title /></cc:Work></rdf:RDF></metadata><defs id="defs8197" /><g id="g8201" transform="matrix(1.25,0,0,-1.25,0,744.09492)"><g style="font-style:normal;font-variant:normal;font-weight:normal;font-stretch:normal;letter-spacing:normal;word-spacing:normal;text-anchor:start;fill:none;fill-opacity:1;fill-rule:evenodd;stroke:#000000;stroke-linecap:butt;stroke-linejoin:miter;stroke-miterlimit:10.43299961;stroke-dasharray:none;stroke-dashoffset:0;stroke-opacity:1" id="content" transform="matrix(2.5007464,0,0,2.5007464,-383.65864,-830.68462)" xml:space="preserve" stroke-miterlimit="10.433" font-style="normal" font-variant="normal" font-weight="normal" font-stretch="normal" font-size-adjust="none" letter-spacing="normal" word-spacing="normal" ns0:text="$1, \\quad 1 + \\cfrac{1}{1}, \\quad 1 + \\cfrac{1}{1 + \\cfrac{1}{1}}, \\quad 1 + \\cfrac{1}{1 + \\cfrac{1}{1 + \\cfrac{1}{1}}}, \\quad \\dotsc $" ns0:preamble="/Users/Lizzie/Documents/Old mac/CMEP folder/underground-inkscape-preamble.tex"><path style="fill:#000000;stroke-width:0" d="m 228.1,470.45 0,0.18 c -0.89,0 -1.13,0.21 -1.13,0.72 l 0,7.05 -0.1,0.03 -2.12,-1.07 0,-0.17 0.32,0.12 c 0.21,0.08 0.41,0.14 0.53,0.14 0.25,0 0.36,-0.18 0.36,-0.58 l 0,-5.3 c 0,-0.65 -0.25,-0.9 -1.13,-0.94 l 0,-0.18 z" id="path9401" /><path style="fill:#000000;stroke-width:0" d="m 230.34,468.79 0.07,0.03 0.08,0.04 0.07,0.04 0.07,0.05 0.07,0.04 0.06,0.05 0.07,0.05 0.06,0.05 0.06,0.05 0.06,0.05 0.05,0.06 0.06,0.05 0.05,0.06 0.05,0.06 0.04,0.06 0.05,0.06 0.04,0.06 0.04,0.06 0.04,0.06 0.03,0.07 0.03,0.06 0.03,0.07 0.03,0.06 0.02,0.07 0.02,0.06 0.02,0.07 0.02,0.06 0.01,0.07 0.01,0.07 0.01,0.06 0,0.07 0.01,0.07 c 0,0.61 -0.42,1.02 -0.95,1.02 -0.43,0 -0.71,-0.27 -0.71,-0.67 0,-0.4 0.25,-0.6 0.68,-0.6 0.13,0 0.25,0.05 0.35,0.05 0.09,0 0.16,-0.07 0.16,-0.16 0,-0.39 -0.33,-0.82 -0.98,-1.26 z" id="path9403" /><path style="fill:#000000;stroke-width:0" d="m 248.61,470.45 0,0.18 c -0.89,0 -1.13,0.21 -1.13,0.72 l 0,7.05 -0.1,0.03 -2.12,-1.07 0,-0.17 0.31,0.12 c 0.22,0.08 0.42,0.14 0.54,0.14 0.25,0 0.35,-0.18 0.35,-0.58 l 0,-5.3 c 0,-0.65 -0.25,-0.9 -1.12,-0.94 l 0,-0.18 z" id="path9405" /><polygon style="fill:#000000;stroke-width:0" points="255.73,473.05 255.73,469.97 256.51,469.97 256.51,473.05 259.6,473.05 259.6,473.83 256.51,473.83 256.51,476.91 255.73,476.91 255.73,473.83 252.64,473.83 252.64,473.05 " id="polygon9407" /><path style="fill:#000000;stroke-width:0" d="m 268.27,478.83 0,0.18 c -0.89,0 -1.13,0.21 -1.13,0.72 l 0,7.04 -0.1,0.04 -2.12,-1.07 0,-0.17 0.32,0.12 c 0.21,0.08 0.41,0.14 0.53,0.14 0.25,0 0.36,-0.18 0.36,-0.58 l 0,-5.3 c 0,-0.65 -0.25,-0.9 -1.13,-0.94 l 0,-0.18 z" id="path9409" /><line style="stroke-width:0.65799999" x1="263.60001" y1="472.94" x2="269.53" y2="472.94" id="line9411" /><path style="fill:#000000;stroke-width:0" d="m 268.27,462.63 0,0.18 c -0.89,0 -1.13,0.21 -1.13,0.72 l 0,7.05 -0.1,0.03 -2.12,-1.07 0,-0.17 0.32,0.12 c 0.21,0.08 0.41,0.14 0.53,0.14 0.25,0 0.36,-0.18 0.36,-0.58 l 0,-5.3 c 0,-0.65 -0.25,-0.89 -1.13,-0.94 l 0,-0.18 z" id="path9413" /><path style="fill:#000000;stroke-width:0" d="m 270.51,468.79 0.08,0.03 0.07,0.04 0.07,0.04 0.07,0.05 0.07,0.04 0.07,0.05 0.06,0.05 0.06,0.05 0.06,0.05 0.06,0.05 0.06,0.06 0.05,0.05 0.05,0.06 0.05,0.06 0.05,0.06 0.04,0.06 0.04,0.06 0.04,0.06 0.04,0.06 0.03,0.07 0.04,0.06 0.02,0.07 0.03,0.06 0.03,0.07 0.02,0.06 0.02,0.07 0.01,0.06 0.01,0.07 0.01,0.07 0.01,0.06 0.01,0.07 0,0.07 c 0,0.61 -0.42,1.02 -0.95,1.02 -0.43,0 -0.71,-0.27 -0.71,-0.67 0,-0.4 0.25,-0.6 0.69,-0.6 0.13,0 0.24,0.05 0.34,0.05 0.09,0 0.17,-0.07 0.17,-0.16 0,-0.39 -0.34,-0.82 -0.99,-1.26 z" id="path9415" /><path style="fill:#000000;stroke-width:0" d="m 288.78,470.45 0,0.18 c -0.89,0 -1.13,0.21 -1.13,0.72 l 0,7.05 -0.1,0.03 -2.12,-1.07 0,-0.17 0.32,0.12 c 0.21,0.08 0.41,0.14 0.53,0.14 0.25,0 0.36,-0.18 0.36,-0.58 l 0,-5.3 c 0,-0.65 -0.25,-0.9 -1.13,-0.94 l 0,-0.18 z" id="path9417" /><polygon style="fill:#000000;stroke-width:0" points="295.9,473.05 295.9,469.97 296.68,469.97 296.68,473.05 299.77,473.05 299.77,473.83 296.68,473.83 296.68,476.91 295.9,476.91 295.9,473.83 292.81,473.83 292.81,473.05 " id="polygon9419" /><path style="fill:#000000;stroke-width:0" d="m 318.27,478.83 0,0.18 c -0.88,0 -1.12,0.21 -1.12,0.72 l 0,7.04 -0.11,0.04 -2.12,-1.07 0,-0.17 0.32,0.12 c 0.22,0.08 0.42,0.14 0.54,0.14 0.24,0 0.35,-0.18 0.35,-0.58 l 0,-5.3 c 0,-0.65 -0.25,-0.9 -1.12,-0.94 l 0,-0.18 z" id="path9421" /><line style="stroke-width:0.65799999" x1="303.78" y1="472.94" x2="329.35999" y2="472.94" id="line9423" /><path style="fill:#000000;stroke-width:0" d="m 308.44,453.89 0,0.18 c -0.89,0 -1.12,0.21 -1.12,0.72 l 0,7.05 -0.11,0.03 -2.12,-1.07 0,-0.17 0.32,0.12 c 0.21,0.08 0.42,0.14 0.53,0.14 0.25,0 0.36,-0.17 0.36,-0.57 l 0,-5.3 c 0,-0.66 -0.25,-0.9 -1.13,-0.95 l 0,-0.18 z" id="path9425" /><polygon style="fill:#000000;stroke-width:0" points="315.56,456.49 315.56,453.41 316.35,453.41 316.35,456.49 319.44,456.49 319.44,457.27 316.35,457.27 316.35,460.35 315.56,460.35 315.56,457.27 312.47,457.27 312.47,456.49 " id="polygon9427" /><path style="fill:#000000;stroke-width:0" d="m 328.11,462.27 0,0.18 c -0.89,0 -1.13,0.21 -1.13,0.72 l 0,7.05 -0.11,0.03 -2.12,-1.07 0,-0.17 0.32,0.12 c 0.22,0.08 0.42,0.14 0.54,0.14 0.25,0 0.35,-0.17 0.35,-0.58 l 0,-5.3 c 0,-0.65 -0.25,-0.89 -1.12,-0.94 l 0,-0.18 z" id="path9429" /><line style="stroke-width:0.65799999" x1="323.44" y1="456.38" x2="329.35999" y2="456.38" id="line9431" /><path style="fill:#000000;stroke-width:0" d="m 328.11,446.07 0,0.18 c -0.89,0 -1.13,0.21 -1.13,0.72 l 0,7.05 -0.11,0.03 -2.12,-1.07 0,-0.17 0.32,0.12 c 0.22,0.09 0.42,0.14 0.54,0.14 0.25,0 0.35,-0.17 0.35,-0.58 l 0,-5.29 c 0,-0.65 -0.25,-0.9 -1.12,-0.95 l 0,-0.18 z" id="path9433" /><path style="fill:#000000;stroke-width:0" d="m 330.35,468.79 0.07,0.03 0.08,0.04 0.07,0.04 0.07,0.05 0.07,0.04 0.06,0.05 0.07,0.05 0.06,0.05 0.06,0.05 0.06,0.05 0.05,0.06 0.05,0.05 0.06,0.06 0.05,0.06 0.04,0.06 0.05,0.06 0.04,0.06 0.04,0.06 0.03,0.06 0.04,0.07 0.03,0.06 0.03,0.07 0.03,0.06 0.02,0.07 0.02,0.06 0.02,0.07 0.02,0.06 0.01,0.07 0.01,0.07 0.01,0.06 0,0.07 0,0.07 c 0,0.61 -0.41,1.02 -0.94,1.02 -0.43,0 -0.72,-0.27 -0.72,-0.67 0,-0.4 0.25,-0.6 0.69,-0.6 0.13,0 0.25,0.05 0.35,0.05 0.09,0 0.16,-0.07 0.16,-0.16 0,-0.39 -0.33,-0.82 -0.98,-1.26 z" id="path9435" /><path style="fill:#000000;stroke-width:0" d="m 348.61,470.45 0,0.18 c -0.88,0 -1.12,0.21 -1.12,0.72 l 0,7.05 -0.11,0.03 -2.12,-1.07 0,-0.17 0.32,0.12 c 0.22,0.08 0.42,0.14 0.53,0.14 0.25,0 0.36,-0.18 0.36,-0.58 l 0,-5.3 c 0,-0.65 -0.25,-0.9 -1.12,-0.94 l 0,-0.18 z" id="path9437" /><polygon style="fill:#000000;stroke-width:0" points="355.73,473.05 355.73,469.97 356.52,469.97 356.52,473.05 359.61,473.05 359.61,473.83 356.52,473.83 356.52,476.91 355.73,476.91 355.73,473.83 352.64,473.83 352.64,473.05 " id="polygon9439" /><path style="fill:#000000;stroke-width:0" d="m 387.94,478.83 0,0.18 c -0.89,0 -1.12,0.21 -1.12,0.72 l 0,7.04 -0.11,0.04 -2.12,-1.07 0,-0.17 0.32,0.12 c 0.21,0.08 0.41,0.14 0.53,0.14 0.25,0 0.36,-0.18 0.36,-0.58 l 0,-5.3 c 0,-0.65 -0.25,-0.9 -1.13,-0.94 l 0,-0.18 z" id="path9441" /><line style="stroke-width:0.65799999" x1="363.60999" y1="472.94" x2="408.85999" y2="472.94" id="line9443" /><path style="fill:#000000;stroke-width:0" d="m 368.28,453.89 0,0.18 c -0.89,0 -1.13,0.21 -1.13,0.72 l 0,7.05 -0.1,0.03 -2.12,-1.07 0,-0.17 0.32,0.12 c 0.21,0.08 0.41,0.14 0.53,0.14 0.25,0 0.35,-0.17 0.35,-0.57 l 0,-5.3 c 0,-0.66 -0.24,-0.9 -1.12,-0.95 l 0,-0.18 z" id="path9445" /><polygon style="fill:#000000;stroke-width:0" points="375.4,456.49 375.4,453.41 376.18,453.41 376.18,456.49 379.27,456.49 379.27,457.27 376.18,457.27 376.18,460.35 375.4,460.35 375.4,457.27 372.31,457.27 372.31,456.49 " id="polygon9447" /><path style="fill:#000000;stroke-width:0" d="m 397.77,462.27 0,0.18 c -0.89,0 -1.12,0.21 -1.12,0.72 l 0,7.05 -0.11,0.03 -2.12,-1.07 0,-0.17 0.32,0.12 c 0.21,0.08 0.41,0.14 0.53,0.14 0.25,0 0.36,-0.17 0.36,-0.58 l 0,-5.3 c 0,-0.65 -0.25,-0.89 -1.13,-0.94 l 0,-0.18 z" id="path9449" /><line style="stroke-width:0.65799999" x1="383.26999" y1="456.38" x2="408.85999" y2="456.38" id="line9451" /><path style="fill:#000000;stroke-width:0" d="m 387.94,437.33 0,0.18 c -0.89,0 -1.12,0.22 -1.12,0.72 l 0,7.05 -0.11,0.04 -2.12,-1.08 0,-0.16 0.32,0.11 c 0.21,0.09 0.41,0.15 0.53,0.15 0.25,0 0.36,-0.18 0.36,-0.58 l 0,-5.3 c 0,-0.65 -0.25,-0.9 -1.13,-0.95 l 0,-0.18 z" id="path9453" /><polygon style="fill:#000000;stroke-width:0" points="395.06,439.93 395.06,436.85 395.84,436.85 395.84,439.93 398.94,439.93 398.94,440.71 395.84,440.71 395.84,443.79 395.06,443.79 395.06,440.71 391.97,440.71 391.97,439.93 " id="polygon9455" /><path style="fill:#000000;stroke-width:0" d="m 407.61,445.71 0,0.18 c -0.89,0 -1.13,0.21 -1.13,0.72 l 0,7.05 -0.11,0.04 -2.12,-1.08 0,-0.17 0.32,0.12 c 0.22,0.09 0.42,0.14 0.54,0.14 0.24,0 0.35,-0.17 0.35,-0.57 l 0,-5.3 c 0,-0.65 -0.25,-0.9 -1.12,-0.95 l 0,-0.18 z" id="path9457" /><line style="stroke-width:0.65799999" x1="402.94" y1="439.82999" x2="408.85999" y2="439.82999" id="line9459" /><path style="fill:#000000;stroke-width:0" d="m 407.61,429.52 0,0.17 c -0.89,0 -1.13,0.21 -1.13,0.72 l 0,7.05 -0.11,0.04 -2.12,-1.08 0,-0.16 0.32,0.11 c 0.22,0.09 0.42,0.15 0.54,0.15 0.24,0 0.35,-0.18 0.35,-0.58 l 0,-5.3 c 0,-0.65 -0.25,-0.9 -1.12,-0.95 l 0,-0.17 z" id="path9461" /><path style="fill:#000000;stroke-width:0" d="m 409.85,468.79 0.07,0.03 0.07,0.04 0.08,0.04 0.07,0.05 0.06,0.04 0.07,0.05 0.06,0.05 0.07,0.05 0.06,0.05 0.05,0.05 0.06,0.06 0.05,0.05 0.06,0.06 0.04,0.06 0.05,0.06 0.04,0.06 0.05,0.06 0.04,0.06 0.03,0.06 0.04,0.07 0.03,0.06 0.03,0.07 0.03,0.06 0.02,0.07 0.02,0.06 0.02,0.07 0.02,0.06 0.01,0.07 0.01,0.07 0.01,0.06 0,0.07 0,0.07 c 0,0.61 -0.41,1.02 -0.95,1.02 -0.42,0 -0.71,-0.27 -0.71,-0.67 0,-0.4 0.25,-0.6 0.69,-0.6 0.13,0 0.25,0.05 0.34,0.05 0.1,0 0.17,-0.07 0.17,-0.16 0,-0.39 -0.33,-0.82 -0.98,-1.26 z" id="path9463" /><path style="fill:#000000;stroke-width:0" d="m 433.96,470.96 0,0.03 0,0.03 0,0.04 -0.01,0.03 -0.01,0.03 -0.01,0.03 -0.01,0.03 -0.01,0.03 -0.01,0.03 -0.02,0.03 -0.01,0.03 -0.02,0.03 -0.02,0.02 -0.02,0.03 -0.02,0.02 -0.02,0.03 -0.02,0.02 -0.03,0.02 -0.02,0.02 -0.03,0.02 -0.03,0.02 -0.02,0.02 -0.03,0.01 -0.03,0.02 -0.03,0.01 -0.03,0.01 -0.03,0.01 -0.03,0.01 -0.03,0 -0.03,0.01 -0.03,0 -0.04,0 c -0.36,0 -0.66,-0.29 -0.66,-0.66 0,-0.36 0.28,-0.65 0.65,-0.65 0.36,0 0.66,0.3 0.66,0.64 z" id="path9465" /><path style="fill:#000000;stroke-width:0" d="m 430.02,470.96 0,0.03 0,0.03 -0.01,0.04 0,0.03 -0.01,0.03 -0.01,0.03 -0.01,0.03 -0.01,0.03 -0.02,0.03 -0.01,0.03 -0.02,0.03 -0.02,0.03 -0.01,0.02 -0.02,0.03 -0.02,0.02 -0.03,0.03 -0.02,0.02 -0.02,0.02 -0.03,0.02 -0.02,0.02 -0.03,0.02 -0.03,0.02 -0.03,0.01 -0.02,0.02 -0.03,0.01 -0.03,0.01 -0.03,0.01 -0.03,0.01 -0.04,0 -0.03,0.01 -0.03,0 -0.03,0 c -0.37,0 -0.66,-0.29 -0.66,-0.66 0,-0.36 0.28,-0.65 0.65,-0.65 0.35,0 0.66,0.3 0.66,0.64 z" id="path9467" /><path style="fill:#000000;stroke-width:0" d="m 426.08,470.96 0,0.03 -0.01,0.03 0,0.04 -0.01,0.03 -0.01,0.03 0,0.03 -0.02,0.03 -0.01,0.03 -0.01,0.03 -0.02,0.03 -0.01,0.03 -0.02,0.03 -0.02,0.02 -0.02,0.03 -0.02,0.02 -0.02,0.03 -0.02,0.02 -0.03,0.02 -0.02,0.02 -0.03,0.02 -0.02,0.02 -0.03,0.02 -0.03,0.01 -0.03,0.02 -0.03,0.01 -0.03,0.01 -0.03,0.01 -0.03,0.01 -0.03,0 -0.03,0.01 -0.03,0 -0.04,0 c -0.36,0 -0.66,-0.29 -0.66,-0.66 0,-0.36 0.29,-0.65 0.65,-0.65 0.36,0 0.67,0.3 0.67,0.64 z" id="path9469" /></g></g></svg>