<?xml version='1.0' ?><svg xmlns:ns0="http://www.iki.fi/pav/software/textext/" xmlns:dc="http://purl.org/dc/elements/1.1/" xmlns:cc="http://creativecommons.org/ns#" xmlns:rdf="http://www.w3.org/1999/02/22-rdf-syntax-ns#" xmlns:svg="http://www.w3.org/2000/svg" xmlns="http://www.w3.org/2000/svg" id="svg2" version="1.1" width="297.2769" height="240.32077" viewBox="-1.1078034421001904e-13 1720.9068390543653 579.3535625942453 468.353559475668" preserveAspectRatio="none">
  <metadata id="metadata510">
    <rdf:RDF>
      <cc:Work rdf:about="">
        <dc:format>image/svg+xml</dc:format>
        <dc:type rdf:resource="http://purl.org/dc/dcmitype/StillImage" />
        <dc:title />
      </cc:Work>
    </rdf:RDF>
  </metadata>
  <defs id="defs508">
    <clipPath id="clip1">
      <path d="m 0,0 0,469 580,0 0,-469 z" id="path9" />
    </clipPath>
    <clipPath id="clip2">
      <path d="m 0,0 0,469 580,0 0,-469 z" id="path18" />
    </clipPath>
    <clipPath id="clip3">
      <path d="m 0,0 0,469 580,0 0,-469 z" id="path27" />
    </clipPath>
    <clipPath id="clip4">
      <path d="m 0,0 0,469 580,0 0,-469 z" id="path36" />
    </clipPath>
    <clipPath id="clip5">
      <path d="m 0,0 0,469 580,0 0,-469 z" id="path45" />
    </clipPath>
    <clipPath id="clip6">
      <path d="m 0,0 0,469 580,0 0,-469 z" id="path54" />
    </clipPath>
    <clipPath id="clip7">
      <path id="path65" d="m 0,0 0,469 580,0 0,-469 z" />
    </clipPath>
    <clipPath id="clip8">
      <path id="path78" d="m 0,0 0,469 580,0 0,-469 z" />
    </clipPath>
    <clipPath id="clip9">
      <path id="path91" d="m 0,0 0,469 580,0 0,-469 z" />
    </clipPath>
    <clipPath id="clip10">
      <path id="path104" d="m 0,0 0,469 580,0 0,-469 z" />
    </clipPath>
    <clipPath id="clip11">
      <path id="path117" d="m 0,0 0,469 580,0 0,-469 z" />
    </clipPath>
    <clipPath id="clip12">
      <path id="path130" d="m 0,0 0,469 580,0 0,-469 z" />
    </clipPath>
    <clipPath id="clip13">
      <path id="path143" d="m 0,0 0,469 580,0 0,-469 z" />
    </clipPath>
    <clipPath id="clip14">
      <path id="path156" d="m 0,0 0,469 580,0 0,-469 z" />
    </clipPath>
    <clipPath id="clip15">
      <path id="path169" d="m 0,0 0,469 580,0 0,-469 z" />
    </clipPath>
    <clipPath id="clip16">
      <path id="path182" d="m 0,0 0,469 580,0 0,-469 z" />
    </clipPath>
    <clipPath id="clip17">
      <path id="path195" d="m 0,0 0,469 580,0 0,-469 z" />
    </clipPath>
    <clipPath id="clip18">
      <path id="path208" d="m 0,0 0,469 580,0 0,-469 z" />
    </clipPath>
    <clipPath id="clip19">
      <path id="path221" d="m 0,0 0,469 580,0 0,-469 z" />
    </clipPath>
    <clipPath id="clip20">
      <path id="path234" d="m 0,0 0,469 580,0 0,-469 z" />
    </clipPath>
    <clipPath id="clip21">
      <path id="path247" d="m 0,0 0,469 580,0 0,-469 z" />
    </clipPath>
    <clipPath id="clip22">
      <path id="path260" d="m 0,0 0,469 580,0 0,-469 z" />
    </clipPath>
    <clipPath id="clip23">
      <path id="path273" d="m 0,0 0,469 580,0 0,-469 z" />
    </clipPath>
    <clipPath id="clip24">
      <path id="path286" d="m 0,0 0,469 580,0 0,-469 z" />
    </clipPath>
    <clipPath id="clip25">
      <path id="path299" d="m 0,0 0,469 580,0 0,-469 z" />
    </clipPath>
    <clipPath id="clip26">
      <path id="path312" d="m 0,0 0,469 580,0 0,-469 z" />
    </clipPath>
    <clipPath id="clip27">
      <path id="path325" d="m 0,0 0,469 580,0 0,-469 z" />
    </clipPath>
    <clipPath id="clip29">
      <path id="path351" d="m 0,0 0,469 580,0 0,-469 z" />
    </clipPath>
    <clipPath id="clip30">
      <path id="path364" d="m 0,0 0,469 580,0 0,-469 z" />
    </clipPath>
    <clipPath id="clip32">
      <path id="path390" d="m 0,0 0,469 580,0 0,-469 z" />
    </clipPath>
    <clipPath id="clip33">
      <path id="path403" d="m 0,0 0,469 580,0 0,-469 z" />
    </clipPath>
    <clipPath id="clip34">
      <path id="path416" d="m 0,0 0,469 580,0 0,-469 z" />
    </clipPath>
    <clipPath id="clip35">
      <path id="path429" d="m 0,0 0,469 580,0 0,-469 z" />
    </clipPath>
    <clipPath id="clip36">
      <path id="path442" d="m 0,0 0,469 580,0 0,-469 z" />
    </clipPath>
    <clipPath id="clip38">
      <path id="path468" d="m 0,0 0,469 580,0 0,-469 z" />
    </clipPath>
    <clipPath id="clip39">
      <path id="path481" d="m 0,0 0,469 580,0 0,-469 z" />
    </clipPath>
    <clipPath id="clip40">
      <path id="path494" d="m 0,0 0,469 580,0 0,-469 z" />
    </clipPath>
  </defs>
  <g transform="translate(0,1720.2604)" clip-path="url(#clip1)" id="g11" style="stroke-width:1;stroke-linecap:square;stroke-linejoin:miter;stroke-miterlimit:10;stroke-dasharray:none;stroke-dashoffset:0">
    <g id="g13" style="fill:none;stroke:#000000;stroke-linecap:butt;stroke-opacity:1">
      <path d="m 56.882,2 0,467" id="path15" />
    </g>
  </g>
  <g transform="translate(0,1720.2604)" clip-path="url(#clip2)" id="g20" style="stroke-width:1;stroke-linecap:square;stroke-linejoin:miter;stroke-miterlimit:10;stroke-dasharray:none;stroke-dashoffset:0">
    <g id="g22" style="fill:none;stroke:#000000;stroke-linecap:butt;stroke-opacity:1">
      <path d="m 56.882,1 -4,4" id="path24" />
    </g>
  </g>
  <g transform="translate(0,1720.2604)" clip-path="url(#clip3)" id="g29" style="stroke-width:1;stroke-linecap:square;stroke-linejoin:miter;stroke-miterlimit:10;stroke-dasharray:none;stroke-dashoffset:0">
    <g id="g31" style="fill:none;stroke:#000000;stroke-linecap:butt;stroke-opacity:1">
      <path d="m 56.882,1 4,4" id="path33" />
    </g>
  </g>
  <g transform="translate(0,1720.2604)" clip-path="url(#clip4)" id="g38" style="stroke-width:1;stroke-linecap:square;stroke-linejoin:miter;stroke-miterlimit:10;stroke-dasharray:none;stroke-dashoffset:0">
    <g id="g40" style="fill:none;stroke:#000000;stroke-linecap:butt;stroke-opacity:1">
      <path d="m 0,317.99 578,0" id="path42" />
    </g>
  </g>
  <g transform="translate(0,1720.2604)" clip-path="url(#clip5)" id="g47" style="stroke-width:1;stroke-linecap:square;stroke-linejoin:miter;stroke-miterlimit:10;stroke-dasharray:none;stroke-dashoffset:0">
    <g id="g49" style="fill:none;stroke:#000000;stroke-linecap:butt;stroke-opacity:1">
      <path d="m 579,317.99 -4,-4" id="path51" />
    </g>
  </g>
  <g transform="translate(0,1720.2604)" clip-path="url(#clip6)" id="g56" style="stroke-width:1;stroke-linecap:square;stroke-linejoin:miter;stroke-miterlimit:10;stroke-dasharray:none;stroke-dashoffset:0">
    <g id="g58" style="fill:none;stroke:#000000;stroke-linecap:butt;stroke-opacity:1">
      <path d="m 579,317.99 -4,4" id="path60" />
    </g>
  </g>
  <g transform="translate(0,1720.2604)" id="misc" style="stroke-width:1;stroke-linecap:square;stroke-linejoin:miter;stroke-miterlimit:10;stroke-dasharray:none;stroke-dashoffset:0" />
  <g transform="translate(0,1720.2604)" id="g67" clip-path="url(#clip7)" style="stroke-width:1;stroke-linecap:square;stroke-linejoin:miter;stroke-miterlimit:10;stroke-dasharray:none;stroke-dashoffset:0">
    <g style="fill:none;stroke:#000000;stroke-linecap:round;stroke-linejoin:round;stroke-opacity:1" id="g69">
      <path id="path71" d="M 56.882,317.99 278.62,59.293" />
      <title id="title73">Segment f</title>
      <desc id="desc75">Segment f: Segment [O, A]</desc>
    </g>
  </g>
  <g transform="matrix(1.5,0,0,1.5,-85.12965,1627.4401)" id="g80" clip-path="url(#clip8)" style="stroke-width:1;stroke-linecap:square;stroke-linejoin:miter;stroke-miterlimit:10;stroke-dasharray:none;stroke-dashoffset:0">
    <g style="fill:none;stroke:#000000;stroke-linecap:round;stroke-linejoin:round;stroke-opacity:1" id="g82">
      <path id="path84" d="m 170.03,185.98 1.14,5.59" />
      <title id="title86">Segment f</title>
      <desc id="desc88">Segment f: Segment [O, A]</desc>
    </g>
  </g>
  <g transform="matrix(1.5,0,0,1.5,-85.12965,1627.4401)" id="g93" clip-path="url(#clip9)" style="stroke-width:1;stroke-linecap:square;stroke-linejoin:miter;stroke-miterlimit:10;stroke-dasharray:none;stroke-dashoffset:0">
    <g style="fill:none;stroke:#000000;stroke-linecap:round;stroke-linejoin:round;stroke-opacity:1" id="g95">
      <path id="path97" d="m 170.03,185.98 -5.7,-0.27" />
      <title id="title99">Segment f</title>
      <desc id="desc101">Segment f: Segment [O, A]</desc>
    </g>
  </g>
  <g transform="translate(0,1720.2604)" id="g106" clip-path="url(#clip10)" style="stroke-width:1;stroke-linecap:square;stroke-linejoin:miter;stroke-miterlimit:10;stroke-dasharray:none;stroke-dashoffset:0">
    <g style="fill:none;stroke:#000000;stroke-linecap:round;stroke-linejoin:round;stroke-opacity:1" id="g108">
      <path id="path110" d="M 56.882,317.99 500.36,428.86" />
      <title id="title112">Segment g</title>
      <desc id="desc114">Segment g: Segment [O, B]</desc>
    </g>
  </g>
  <g transform="matrix(1.5,0,0,1.5,-157.07877,1529.1328)" id="g119" clip-path="url(#clip11)" style="stroke-width:1;stroke-linecap:square;stroke-linejoin:miter;stroke-miterlimit:10;stroke-dasharray:none;stroke-dashoffset:0">
    <g style="fill:none;stroke:#000000;stroke-linecap:round;stroke-linejoin:round;stroke-opacity:1" id="g121">
      <path id="path123" d="m 282.02,374.27 -4.49,3.52" />
      <title id="title125">Segment g</title>
      <desc id="desc127">Segment g: Segment [O, B]</desc>
    </g>
  </g>
  <g transform="matrix(1.5,0,0,1.5,-157.07877,1529.1328)" id="g132" clip-path="url(#clip12)" style="stroke-width:1;stroke-linecap:square;stroke-linejoin:miter;stroke-miterlimit:10;stroke-dasharray:none;stroke-dashoffset:0">
    <g style="fill:none;stroke:#000000;stroke-linecap:round;stroke-linejoin:round;stroke-opacity:1" id="g134">
      <path id="path136" d="m 282.02,374.27 -2.31,-5.21" />
      <title id="title138">Segment g</title>
      <desc id="desc140">Segment g: Segment [O, B]</desc>
    </g>
  </g>
  <g transform="translate(0,1720.2604)" id="g145" clip-path="url(#clip13)" style="stroke-width:1;stroke-linecap:square;stroke-linejoin:miter;stroke-miterlimit:10;stroke-dasharray:none;stroke-dashoffset:0">
    <g style="fill:none;stroke:#000000;stroke-linecap:round;stroke-linejoin:round;stroke-opacity:1" id="g147">
      <path id="path149" d="M 278.62,59.293 500.36,428.86" />
      <title id="title151">Segment h</title>
      <desc id="desc153">Segment h: Segment [A, B]</desc>
    </g>
  </g>
  <g transform="matrix(1.5,0,0,1.5,-194.78946,1597.7049)" id="g158" clip-path="url(#clip14)" style="stroke-width:1;stroke-linecap:square;stroke-linejoin:miter;stroke-miterlimit:10;stroke-dasharray:none;stroke-dashoffset:0">
    <g style="fill:none;stroke:#000000;stroke-linecap:round;stroke-linejoin:round;stroke-opacity:1" id="g160">
      <path id="path162" d="m 391.29,247.08 -5.66,-0.69" />
      <title id="title164">Segment h</title>
      <desc id="desc166">Segment h: Segment [A, B]</desc>
    </g>
  </g>
  <g transform="matrix(1.5,0,0,1.5,-194.78946,1597.7049)" id="g171" clip-path="url(#clip15)" style="stroke-width:1;stroke-linecap:square;stroke-linejoin:miter;stroke-miterlimit:10;stroke-dasharray:none;stroke-dashoffset:0">
    <g style="fill:none;stroke:#000000;stroke-linecap:round;stroke-linejoin:round;stroke-opacity:1" id="g173">
      <path id="path175" d="m 391.29,247.08 2.06,-5.32" />
      <title id="title177">Segment h</title>
      <desc id="desc179">Segment h: Segment [A, B]</desc>
    </g>
  </g>
  <g transform="translate(0,1720.2604)" id="g184" clip-path="url(#clip16)" style="stroke-width:1;stroke-linecap:square;stroke-linejoin:miter;stroke-miterlimit:10;stroke-dasharray:none;stroke-dashoffset:0">
    <g style="fill:none;stroke:#000000;stroke-linecap:round;stroke-linejoin:round;stroke-opacity:1" id="g186">
      <path id="path188" d="M 56.882,317.99 334.06,151.68" />
      <title id="title190">Segment i</title>
      <desc id="desc192">Segment i: Segment [O, E]</desc>
    </g>
  </g>
  <g transform="matrix(1.5,0,0,1.5,-96.816787,1602.3898)" id="g197" clip-path="url(#clip17)" style="stroke-width:1;stroke-linecap:square;stroke-linejoin:miter;stroke-miterlimit:10;stroke-dasharray:none;stroke-dashoffset:0">
    <g style="fill:none;stroke:#000000;stroke-linecap:round;stroke-linejoin:round;stroke-opacity:1" id="g199">
      <path id="path201" d="m 198.47,233.04 -0.69,5.66" />
      <title id="title203">Segment i</title>
      <desc id="desc205">Segment i: Segment [O, E]</desc>
    </g>
  </g>
  <g transform="matrix(1.5,0,0,1.5,-96.816787,1602.3898)" id="g210" clip-path="url(#clip18)" style="stroke-width:1;stroke-linecap:square;stroke-linejoin:miter;stroke-miterlimit:10;stroke-dasharray:none;stroke-dashoffset:0">
    <g style="fill:none;stroke:#000000;stroke-linecap:round;stroke-linejoin:round;stroke-opacity:1" id="g212">
      <path id="path214" d="m 198.47,233.04 -5.32,-2.06" />
      <title id="title216">Segment i</title>
      <desc id="desc218">Segment i: Segment [O, E]</desc>
    </g>
  </g>
  <g transform="translate(0,1720.2604)" id="g223" clip-path="url(#clip19)" style="stroke-width:1;stroke-linecap:square;stroke-linejoin:miter;stroke-miterlimit:10;stroke-dasharray:none;stroke-dashoffset:0">
    <g style="fill:none;stroke:#000000;stroke-linecap:round;stroke-linejoin:round;stroke-opacity:1" id="g225">
      <path id="path227" d="M 278.62,59.293 204.88,354.99" />
      <title id="title229">Segment j</title>
      <desc id="desc231">Segment j: Segment [A, D]</desc>
    </g>
  </g>
  <g transform="translate(0,1720.2604)" id="g236" clip-path="url(#clip20)" style="stroke-width:1;stroke-linecap:square;stroke-linejoin:miter;stroke-miterlimit:10;stroke-dasharray:none;stroke-dashoffset:0">
    <g style="fill:none;stroke:#000000;stroke-linecap:round;stroke-linejoin:round;stroke-opacity:1" id="g238">
      <path id="path240" d="m 56.882,317.99 147.998,37" />
      <title id="title242">Segment k</title>
      <desc id="desc244">Segment k: Segment [O, D]</desc>
    </g>
  </g>
  <g transform="matrix(1.5,0,0,1.5,-73.801704,1549.8308)" id="g249" clip-path="url(#clip21)" style="stroke-width:1;stroke-linecap:square;stroke-linejoin:miter;stroke-miterlimit:10;stroke-dasharray:none;stroke-dashoffset:0">
    <g style="fill:none;stroke:#000000;stroke-linecap:round;stroke-linejoin:round;stroke-opacity:1" id="g251">
      <path id="path253" d="m 134.28,337.34 -4.49,3.51" />
      <title id="title255">Segment k</title>
      <desc id="desc257">Segment k: Segment [O, D]</desc>
    </g>
  </g>
  <g transform="matrix(1.5,0,0,1.5,-73.801704,1549.8308)" id="g262" clip-path="url(#clip22)" style="stroke-width:1;stroke-linecap:square;stroke-linejoin:miter;stroke-miterlimit:10;stroke-dasharray:none;stroke-dashoffset:0">
    <g style="fill:none;stroke:#000000;stroke-linecap:round;stroke-linejoin:round;stroke-opacity:1" id="g264">
      <path id="path266" d="m 134.28,337.34 -2.31,-5.22" />
      <title id="title268">Segment k</title>
      <desc id="desc270">Segment k: Segment [O, D]</desc>
    </g>
  </g>
  <g transform="translate(0,1720.2604)" id="g275" clip-path="url(#clip23)" style="stroke-width:1;stroke-linecap:square;stroke-linejoin:miter;stroke-miterlimit:10;stroke-dasharray:none;stroke-dashoffset:0">
    <g style="fill:none;stroke:#000000;stroke-linecap:round;stroke-linejoin:round;stroke-opacity:1" id="g277">
      <path id="path279" d="m 278.62,59.293 55.44,92.387" />
      <title id="title281">Segment l</title>
      <desc id="desc283">Segment l: Segment [A, E]</desc>
    </g>
  </g>
  <g transform="matrix(1.5,0,0,1.5,-153.46201,1666.5048)" id="g288" clip-path="url(#clip24)" style="stroke-width:1;stroke-linecap:square;stroke-linejoin:miter;stroke-miterlimit:10;stroke-dasharray:none;stroke-dashoffset:0">
    <g style="fill:none;stroke:#000000;stroke-linecap:round;stroke-linejoin:round;stroke-opacity:1" id="g290">
      <path id="path292" d="m 308.14,108.49 -5.66,-0.69" />
      <title id="title294">Segment l</title>
      <desc id="desc296">Segment l: Segment [A, E]</desc>
    </g>
  </g>
  <g transform="matrix(1.5,0,0,1.5,-153.46201,1666.5048)" id="g301" clip-path="url(#clip25)" style="stroke-width:1;stroke-linecap:square;stroke-linejoin:miter;stroke-miterlimit:10;stroke-dasharray:none;stroke-dashoffset:0">
    <g style="fill:none;stroke:#000000;stroke-linecap:round;stroke-linejoin:round;stroke-opacity:1" id="g303">
      <path id="path305" d="m 308.14,108.49 2.06,-5.32" />
      <title id="title307">Segment l</title>
      <desc id="desc309">Segment l: Segment [A, E]</desc>
    </g>
  </g>
  <g transform="translate(0,1720.2604)" id="g314" clip-path="url(#clip26)" style="stroke-width:1;stroke-linecap:square;stroke-linejoin:miter;stroke-miterlimit:10;stroke-dasharray:none;stroke-dashoffset:0">
    <g style="fill:#0000ff;fill-opacity:1;fill-rule:nonzero;stroke:none" id="g316">
      <path id="path318" d="m 283.62,59.293 c 0,2.762 -2.24,5 -5,5 -2.76,0 -5,-2.238 -5,-5 0,-2.761 2.24,-5 5,-5 2.76,0 5,2.239 5,5 z" />
      <title id="title320">Point A</title>
      <desc id="desc322">A = (3, 3.5)</desc>
    </g>
  </g>
  <g transform="translate(0,1720.2604)" id="g327" clip-path="url(#clip27)" style="stroke-width:1;stroke-linecap:square;stroke-linejoin:miter;stroke-miterlimit:10;stroke-dasharray:none;stroke-dashoffset:0">
    <g style="fill:none;stroke:#000000;stroke-linecap:round;stroke-linejoin:round;stroke-opacity:1" id="g329">
      <path id="path331" d="m 283.62,59.293 c 0,2.762 -2.24,5 -5,5 -2.76,0 -5,-2.238 -5,-5 0,-2.761 2.24,-5 5,-5 2.76,0 5,2.239 5,5 z" />
      <title id="title333">Point A</title>
      <desc id="desc335">A = (3, 3.5)</desc>
    </g>
  </g>
  <g transform="translate(0,1720.2604)" id="g353" clip-path="url(#clip29)" style="stroke-width:1;stroke-linecap:square;stroke-linejoin:miter;stroke-miterlimit:10;stroke-dasharray:none;stroke-dashoffset:0">
    <g style="fill:#0000ff;fill-opacity:1;fill-rule:nonzero;stroke:none" id="g355">
      <path id="path357" d="m 505.36,428.86 c 0,2.76 -2.24,5 -5,5 -2.76,0 -5,-2.24 -5,-5 0,-2.76 2.24,-5 5,-5 2.76,0 5,2.24 5,5 z" />
      <title id="title359">Point B</title>
      <desc id="desc361">B = (6, -1.5)</desc>
    </g>
  </g>
  <g transform="translate(0,1720.2604)" id="g366" clip-path="url(#clip30)" style="stroke-width:1;stroke-linecap:square;stroke-linejoin:miter;stroke-miterlimit:10;stroke-dasharray:none;stroke-dashoffset:0">
    <g style="fill:none;stroke:#000000;stroke-linecap:round;stroke-linejoin:round;stroke-opacity:1" id="g368">
      <path id="path370" d="m 505.36,428.86 c 0,2.76 -2.24,5 -5,5 -2.76,0 -5,-2.24 -5,-5 0,-2.76 2.24,-5 5,-5 2.76,0 5,2.24 5,5 z" />
      <title id="title372">Point B</title>
      <desc id="desc374">B = (6, -1.5)</desc>
    </g>
  </g>
  <g transform="translate(0,1720.2604)" id="g392" clip-path="url(#clip32)" style="stroke-width:1;stroke-linecap:square;stroke-linejoin:miter;stroke-miterlimit:10;stroke-dasharray:none;stroke-dashoffset:0">
    <g style="fill:#0000ff;fill-opacity:1;fill-rule:nonzero;stroke:none" id="g394">
      <path id="path396" d="m 61.882,317.99 c 0,2.76 -2.238,5 -5,5 -2.761,0 -5,-2.24 -5,-5 0,-2.76 2.239,-5 5,-5 2.762,0 5,2.24 5,5 z" />
      <title id="title398">Point O</title>
      <desc id="desc400">O = (0, 0)</desc>
    </g>
  </g>
  <g transform="translate(0,1720.2604)" id="g405" clip-path="url(#clip33)" style="stroke-width:1;stroke-linecap:square;stroke-linejoin:miter;stroke-miterlimit:10;stroke-dasharray:none;stroke-dashoffset:0">
    <g style="fill:none;stroke:#000000;stroke-linecap:round;stroke-linejoin:round;stroke-opacity:1" id="g407">
      <path id="path409" d="m 61.882,317.99 c 0,2.76 -2.238,5 -5,5 -2.761,0 -5,-2.24 -5,-5 0,-2.76 2.239,-5 5,-5 2.762,0 5,2.24 5,5 z" />
      <title id="title411">Point O</title>
      <desc id="desc413">O = (0, 0)</desc>
    </g>
  </g>
  <g transform="translate(0,1720.2604)" id="g418" clip-path="url(#clip34)" style="stroke-width:1;stroke-linecap:square;stroke-linejoin:miter;stroke-miterlimit:10;stroke-dasharray:none;stroke-dashoffset:0" />
  <g transform="translate(0,1720.2604)" id="g431" clip-path="url(#clip35)" style="stroke-width:1;stroke-linecap:square;stroke-linejoin:miter;stroke-miterlimit:10;stroke-dasharray:none;stroke-dashoffset:0">
    <g style="fill:#7d7dff;fill-opacity:1;fill-rule:nonzero;stroke:none" id="g433">
      <path id="path435" d="m 209.88,354.99 c 0,2.76 -2.24,5 -5,5 -2.76,0 -5,-2.24 -5,-5 0,-2.76 2.24,-5 5,-5 2.76,0 5,2.24 5,5 z" />
      <title id="title437">Point D</title>
      <desc id="desc439">Point D: Point on g</desc>
    </g>
  </g>
  <g transform="translate(0,1720.2604)" id="g444" clip-path="url(#clip36)" style="stroke-width:1;stroke-linecap:square;stroke-linejoin:miter;stroke-miterlimit:10;stroke-dasharray:none;stroke-dashoffset:0">
    <g style="fill:none;stroke:#000000;stroke-linecap:round;stroke-linejoin:round;stroke-opacity:1" id="g446">
      <path id="path448" d="m 209.88,354.99 c 0,2.76 -2.24,5 -5,5 -2.76,0 -5,-2.24 -5,-5 0,-2.76 2.24,-5 5,-5 2.76,0 5,2.24 5,5 z" />
      <title id="title450">Point D</title>
      <desc id="desc452">Point D: Point on g</desc>
    </g>
  </g>
  <g transform="translate(0,1720.2604)" id="g470" clip-path="url(#clip38)" style="stroke-width:1;stroke-linecap:square;stroke-linejoin:miter;stroke-miterlimit:10;stroke-dasharray:none;stroke-dashoffset:0">
    <g style="fill:#7d7dff;fill-opacity:1;fill-rule:nonzero;stroke:none" id="g472">
      <path id="path474" d="m 339.06,151.68 c 0,2.77 -2.24,5 -5,5 -2.77,0 -5,-2.23 -5,-5 0,-2.76 2.23,-5 5,-5 2.76,0 5,2.24 5,5 z" />
      <title id="title476">Point E</title>
      <desc id="desc478">Point E: Point on h</desc>
    </g>
  </g>
  <g transform="translate(0,1720.2604)" id="g483" clip-path="url(#clip39)" style="stroke-width:1;stroke-linecap:square;stroke-linejoin:miter;stroke-miterlimit:10;stroke-dasharray:none;stroke-dashoffset:0">
    <g style="fill:none;stroke:#000000;stroke-linecap:round;stroke-linejoin:round;stroke-opacity:1" id="g485">
      <path id="path487" d="m 339.06,151.68 c 0,2.77 -2.24,5 -5,5 -2.77,0 -5,-2.23 -5,-5 0,-2.76 2.23,-5 5,-5 2.76,0 5,2.24 5,5 z" />
      <title id="title489">Point E</title>
      <desc id="desc491">Point E: Point on h</desc>
    </g>
  </g>
  <g transform="translate(0,1720.2604)" id="g496" clip-path="url(#clip40)" style="stroke-width:1;stroke-linecap:square;stroke-linejoin:miter;stroke-miterlimit:10;stroke-dasharray:none;stroke-dashoffset:0" />
  <g style="font-style:normal;font-variant:normal;font-weight:normal;font-stretch:normal;letter-spacing:normal;word-spacing:normal;text-anchor:start;fill:none;fill-opacity:1;fill-rule:evenodd;stroke:#000000;stroke-linecap:butt;stroke-linejoin:miter;stroke-miterlimit:10.43299961;stroke-dasharray:none;stroke-dashoffset:0;stroke-opacity:1" ns0:preamble="/Users/prmb/CMEP/underground-inkscape-preamble.tex" ns0:text="$O$" word-spacing="normal" letter-spacing="normal" font-size-adjust="none" font-stretch="normal" font-weight="normal" font-variant="normal" font-style="normal" stroke-miterlimit="10.433" xml:space="preserve" transform="matrix(2,0,0,-2,-413.12038,2986.3168)" id="content"><path style="fill:#000000;stroke-width:0" id="path4914" d="m 231.84,482.19 0,0.14 -0.01,0.14 -0.02,0.14 -0.02,0.14 -0.02,0.13 -0.03,0.14 -0.04,0.13 -0.04,0.13 -0.05,0.13 -0.06,0.12 -0.06,0.13 -0.06,0.12 -0.07,0.11 -0.08,0.12 -0.08,0.11 -0.09,0.1 -0.1,0.1 -0.1,0.1 -0.1,0.09 -0.12,0.09 -0.11,0.08 -0.13,0.07 -0.13,0.07 -0.13,0.06 -0.14,0.06 -0.15,0.05 -0.15,0.04 -0.16,0.04 -0.16,0.03 -0.17,0.02 -0.18,0.01 -0.18,0 -0.1,-0.43 c 1.2,0 1.67,-0.97 1.67,-2.24 l 0,0 c 0,-1.66 -0.86,-4.91 -3.37,-4.91 -0.92,0 -1.65,0.63 -1.65,1.78 0,1.67 0.62,5.37 3.35,5.37 l 0.1,0.43 c -3.01,0 -4.88,-2.88 -4.88,-5.27 0,-1.62 1.23,-2.75 2.99,-2.75 2.99,0 4.83,2.75 4.83,5.08 z" /></g>  <g style="font-style:normal;font-variant:normal;font-weight:normal;font-stretch:normal;letter-spacing:normal;word-spacing:normal;text-anchor:start;fill:none;fill-opacity:1;fill-rule:evenodd;stroke:#000000;stroke-linecap:butt;stroke-linejoin:miter;stroke-miterlimit:10.43299961;stroke-dasharray:none;stroke-dashoffset:0;stroke-opacity:1" id="g5468" transform="matrix(2,0,0,-2,-163.09042,2727.3749)" xml:space="preserve" stroke-miterlimit="10.433" font-style="normal" font-variant="normal" font-weight="normal" font-stretch="normal" font-size-adjust="none" letter-spacing="normal" word-spacing="normal" ns0:text="$A$" ns0:preamble="/Users/prmb/CMEP/underground-inkscape-preamble.tex"><path style="fill:#000000;stroke-width:0" d="m 231.52,477.23 0,0.19 -0.19,0 c -0.5,0 -0.79,0.25 -0.87,0.83 l -0.92,6.86 -0.22,0 -4.2,-6.81 c -0.42,-0.69 -0.86,-0.83 -1.27,-0.88 l 0,-0.19 2.57,0 0,0.19 -0.34,0 c -0.31,0 -0.5,0.13 -0.51,0.35 0,0.08 0.03,0.21 0.12,0.3 l 0.99,1.66 2.34,0 -0.09,0.43 -2,0 1.64,2.68 0.07,0 0.29,-2.68 0.09,-0.43 0.15,-1.34 c 0.01,-0.08 0.02,-0.18 0.02,-0.25 0,-0.47 -0.19,-0.72 -0.85,-0.72 l -0.19,0 0,-0.19 z" id="path5470" /></g>  <g style="font-style:normal;font-variant:normal;font-weight:normal;font-stretch:normal;letter-spacing:normal;word-spacing:normal;text-anchor:start;fill:none;fill-opacity:1;fill-rule:evenodd;stroke:#000000;stroke-linecap:butt;stroke-linejoin:miter;stroke-miterlimit:10.43299961;stroke-dasharray:none;stroke-dashoffset:0;stroke-opacity:1" ns0:preamble="/Users/prmb/CMEP/underground-inkscape-preamble.tex" ns0:text="$B$" word-spacing="normal" letter-spacing="normal" font-size-adjust="none" font-stretch="normal" font-weight="normal" font-variant="normal" font-style="normal" stroke-miterlimit="10.433" xml:space="preserve" transform="matrix(2,0,0,-2,60.946331,3110.3415)" id="g6028"><path style="fill:#000000;stroke-width:0" id="path6030" d="m 225.77,484.94 -0.06,-0.18 0.22,0 c 0.7,0 0.93,-0.19 0.93,-0.5 0,-0.07 -0.02,-0.19 -0.03,-0.25 l -1.45,-5.84 c -0.09,-0.4 -0.32,-0.75 -1.22,-0.75 l -0.23,0 -0.05,-0.19 3.83,0 c 2.44,0 3.41,1.12 3.41,2.28 0,1.01 -0.79,1.5 -1.5,1.63 l -0.04,0.05 c 0.24,0.06 0.58,0.15 0.88,0.31 0.56,0.28 1.07,0.81 1.07,1.73 0,1.61 -1.79,1.71 -2.79,1.71 l -0.01,-0.46 c 0.64,0 1.41,-0.24 1.41,-1.15 0,-1.15 -0.66,-1.93 -1.99,-1.93 l -0.13,-0.41 c 0.93,0 1.68,-0.41 1.68,-1.28 0,-1.53 -1.13,-2.03 -2.24,-2.03 -0.31,0 -0.55,0.03 -0.84,0.11 l 0.8,3.15 c 0.18,0.05 0.42,0.05 0.6,0.05 l 0.13,0.41 c -0.17,0 -0.39,0.03 -0.62,0.07 l 0.7,2.98 c 0.15,0.02 0.33,0.03 0.5,0.03 l 0.01,0.46 z" /></g>  <g style="font-style:normal;font-variant:normal;font-weight:normal;font-stretch:normal;letter-spacing:normal;word-spacing:normal;text-anchor:start;fill:none;fill-opacity:1;fill-rule:evenodd;stroke:#000000;stroke-linecap:butt;stroke-linejoin:miter;stroke-miterlimit:10.43299961;stroke-dasharray:none;stroke-dashoffset:0;stroke-opacity:1" id="g6592" transform="matrix(2,0,0,-2,-261.36952,3053.1564)" xml:space="preserve" stroke-miterlimit="10.433" font-style="normal" font-variant="normal" font-weight="normal" font-stretch="normal" font-size-adjust="none" letter-spacing="normal" word-spacing="normal" ns0:text="$D$" ns0:preamble="/Users/prmb/CMEP/underground-inkscape-preamble.tex"><path style="fill:#000000;stroke-width:0" d="m 225.72,484.94 -0.06,-0.2 0.3,0 c 0.69,0 0.91,-0.17 0.91,-0.43 0,-0.09 -0.03,-0.19 -0.05,-0.29 l -1.44,-5.86 c -0.09,-0.41 -0.37,-0.74 -1.24,-0.74 l -0.21,0 -0.05,-0.19 3.61,0 c 3.05,0 4.97,1.98 4.97,4.47 0,2.03 -1.19,3.24 -3.41,3.24 l -0.14,-0.44 c 1.74,0 2.13,-1.62 2.13,-2.98 0,-1.66 -0.94,-3.84 -3.2,-3.84 -0.42,0 -1.13,0.03 -1.13,0.51 0,0.04 0,0.1 0.06,0.32 l 1.44,5.95 c 0.19,0.02 0.46,0.04 0.7,0.04 l 0.14,0.44 z" id="path6594" /></g>  <g style="font-style:normal;font-variant:normal;font-weight:normal;font-stretch:normal;letter-spacing:normal;word-spacing:normal;text-anchor:start;fill:none;fill-opacity:1;fill-rule:evenodd;stroke:#000000;stroke-linecap:butt;stroke-linejoin:miter;stroke-miterlimit:10.43299961;stroke-dasharray:none;stroke-dashoffset:0;stroke-opacity:1" ns0:preamble="/Users/prmb/CMEP/underground-inkscape-preamble.tex" ns0:text="$E$" word-spacing="normal" letter-spacing="normal" font-size-adjust="none" font-stretch="normal" font-weight="normal" font-variant="normal" font-style="normal" stroke-miterlimit="10.433" xml:space="preserve" transform="matrix(2,0,0,-2,-107.88578,2819.7126)" id="g7160"><path style="fill:#000000;stroke-width:0" id="path7162" d="m 232.1,484.94 -6.31,0 -0.04,-0.18 0.22,0 c 0.7,0 0.89,-0.13 0.89,-0.42 0,-0.08 -0.02,-0.21 -0.06,-0.42 l -1.42,-5.76 c -0.09,-0.41 -0.37,-0.74 -1.23,-0.74 l -0.22,0 -0.05,-0.19 6.74,0 0.78,2.34 -0.19,0 c -0.5,-1.33 -1.17,-1.89 -3.03,-1.89 l -0.79,0 c -0.56,0 -0.75,0.13 -0.75,0.32 0,0.04 0.01,0.07 0.03,0.12 l 0.78,3.05 1.06,0 c 0.37,0 0.85,-0.05 0.85,-0.61 0,-0.2 -0.06,-0.55 -0.07,-0.7 l 0.2,0 0.68,2.85 -0.19,0 c -0.25,-0.97 -0.77,-1.12 -1.48,-1.12 l -0.95,0 0.71,2.93 1.89,0 c 0.6,0 1.25,-0.15 1.29,-1.03 0,-0.13 -0.01,-0.26 -0.03,-0.41 l 0.19,0 z" /></g>  <g style="font-style:normal;font-variant:normal;font-weight:normal;font-stretch:normal;letter-spacing:normal;word-spacing:normal;text-anchor:start;fill:none;fill-opacity:1;fill-rule:evenodd;stroke:#000000;stroke-linecap:butt;stroke-linejoin:miter;stroke-miterlimit:10.43299961;stroke-dasharray:none;stroke-dashoffset:0;stroke-opacity:1" id="g7732" transform="matrix(2,0,0,-2,-201.70891,2902.891)" xml:space="preserve" stroke-miterlimit="10.433" font-style="normal" font-variant="normal" font-weight="normal" font-stretch="normal" font-size-adjust="none" letter-spacing="normal" word-spacing="normal" ns0:text="$X$" ns0:preamble="/Users/prmb/CMEP/underground-inkscape-preamble.tex"><path style="fill:#000000;stroke-width:0" d="m 232.99,484.94 -2.62,0 -0.04,-0.18 0.1,0 c 0.38,0 0.52,-0.1 0.53,-0.29 0,-0.13 -0.07,-0.27 -0.17,-0.4 l -1.94,-2.17 -0.71,2.11 c -0.04,0.13 -0.07,0.24 -0.07,0.33 0,0.37 0.26,0.42 0.62,0.42 l 0.22,0 0.05,0.18 -3.34,0 -0.05,-0.18 0.11,0 c 0.87,0 1.07,-0.62 1.2,-0.98 l 1,-2.73 -2.45,-2.72 c -0.44,-0.47 -1.02,-0.82 -1.66,-0.91 l -0.04,-0.19 2.94,0 0.04,0.19 -0.26,0 c -0.44,0 -0.66,0.16 -0.66,0.38 0,0.11 0.04,0.21 0.14,0.33 l 2.14,2.38 0.82,-2.3 c 0.03,-0.11 0.04,-0.21 0.04,-0.3 0,-0.44 -0.34,-0.49 -0.79,-0.49 l -0.13,0 -0.04,-0.19 3.31,0 0.05,0.19 -0.17,0 c -0.59,0 -0.79,0.41 -0.93,0.81 l -1.13,3.14 2.21,2.51 c 0.43,0.5 0.78,0.88 1.59,0.88 l 0.05,0 z" id="path7734" /></g>  <g style="font-style:normal;font-variant:normal;font-weight:normal;font-stretch:normal;letter-spacing:normal;word-spacing:normal;text-anchor:start;fill:none;fill-opacity:1;fill-rule:evenodd;stroke:#000000;stroke-linecap:butt;stroke-linejoin:miter;stroke-miterlimit:10.43299961;stroke-dasharray:none;stroke-dashoffset:0;stroke-opacity:1" ns0:preamble="/Users/prmb/CMEP/underground-inkscape-preamble.tex" ns0:text="$\\mathbf{a}$" word-spacing="normal" letter-spacing="normal" font-size-adjust="none" font-stretch="normal" font-weight="normal" font-variant="normal" font-style="normal" stroke-miterlimit="10.433" xml:space="preserve" transform="matrix(2,0,0,-2,-297.76003,2855.3605)" id="g8308"><path style="fill:#000000;stroke-width:0" id="path8310" d="m 229.02,477.99 -0.12,-0.12 c -0.04,-0.03 -0.07,-0.04 -0.13,-0.04 -0.17,0 -0.25,0.12 -0.25,0.33 l 0,3.08 c 0,1.01 -0.87,1.58 -2.31,1.58 -1.34,0 -2.26,-0.54 -2.26,-1.49 0,-0.49 0.29,-0.8 0.77,-0.8 0.47,0 0.8,0.31 0.8,0.71 0,0.16 -0.07,0.3 -0.22,0.49 -0.11,0.12 -0.13,0.2 -0.13,0.28 0,0.28 0.34,0.43 0.76,0.43 0.7,0 0.96,-0.34 0.96,-1.1 l 0,-0.8 0,-0.41 0,-1.75 c -0.26,-0.37 -0.54,-0.47 -0.82,-0.47 -0.36,0 -0.62,0.27 -0.62,0.79 0,0.68 0.5,1.17 1.44,1.43 l 0,0.41 c -1.37,-0.39 -1.92,-0.6 -2.37,-0.9 -0.53,-0.35 -0.79,-0.8 -0.79,-1.32 0,-0.87 0.54,-1.25 1.3,-1.25 0.68,0 1.22,0.22 1.87,0.81 0.13,-0.6 0.39,-0.81 0.97,-0.81 0.51,0 0.87,0.19 1.32,0.67 z" /></g>  <g style="font-style:normal;font-variant:normal;font-weight:normal;font-stretch:normal;letter-spacing:normal;word-spacing:normal;text-anchor:start;fill:none;fill-opacity:1;fill-rule:evenodd;stroke:#000000;stroke-linecap:butt;stroke-linejoin:miter;stroke-miterlimit:10.43299961;stroke-dasharray:none;stroke-dashoffset:0;stroke-opacity:1" id="g8888" transform="matrix(2,0,0,-2,-194.03472,3072.4657)" xml:space="preserve" stroke-miterlimit="10.433" font-style="normal" font-variant="normal" font-weight="normal" font-stretch="normal" font-size-adjust="none" letter-spacing="normal" word-spacing="normal" ns0:text="$\\mathbf{b}$" ns0:preamble="/Users/prmb/CMEP/underground-inkscape-preamble.tex"><path style="fill:#000000;stroke-width:0" d="m 225.92,485.22 -2.29,0 0,-0.29 c 0.55,-0.1 0.65,-0.21 0.65,-0.68 l 0,-7.17 0.14,0 0.94,0.66 c 0.54,-0.49 0.96,-0.67 1.55,-0.67 l -0.17,0.38 c -0.5,0 -0.82,0.36 -0.82,0.93 l 0,3.1 c 0.22,0.51 0.44,0.7 0.83,0.7 0.73,0 1.1,-0.78 1.1,-2.34 0,-1.64 -0.36,-2.39 -1.11,-2.39 l 0.17,-0.38 c 1.59,0 2.67,1.22 2.67,2.99 0,1.64 -0.91,2.76 -2.22,2.76 -0.57,0 -0.99,-0.19 -1.44,-0.66 z" id="path8890" /></g>  <g style="font-style:normal;font-variant:normal;font-weight:normal;font-stretch:normal;letter-spacing:normal;word-spacing:normal;text-anchor:start;fill:none;fill-opacity:1;fill-rule:evenodd;stroke:#000000;stroke-linecap:butt;stroke-linejoin:miter;stroke-miterlimit:10.43299961;stroke-dasharray:none;stroke-dashoffset:0;stroke-opacity:1" ns0:preamble="/Users/prmb/CMEP/underground-inkscape-preamble.tex" ns0:text="$\\mathbf{d}$" word-spacing="normal" letter-spacing="normal" font-size-adjust="none" font-stretch="normal" font-weight="normal" font-variant="normal" font-style="normal" stroke-miterlimit="10.433" xml:space="preserve" transform="matrix(2,0,0,-2,-334.64564,3038.7983)" id="g9449"><path style="fill:#000000;stroke-width:0" id="path9451" d="m 229.74,477.47 0,0.27 c -0.55,0.04 -0.7,0.19 -0.7,0.69 l 0,6.79 -2.54,0 0,-0.29 c 0.79,-0.06 0.9,-0.14 0.9,-0.68 l 0,-2.16 c -0.51,0.54 -0.86,0.73 -1.41,0.73 -1.29,0 -2.26,-1.26 -2.26,-2.98 0,-1.61 0.89,-2.77 2.13,-2.77 0.63,0 1.02,0.19 1.57,0.78 l -0.25,0.32 c -0.24,-0.3 -0.51,-0.44 -0.78,-0.44 -0.63,0 -0.93,0.71 -0.93,2.21 0,1.52 0.32,2.22 1.01,2.22 0.39,0 0.74,-0.28 0.92,-0.73 l 0,-2.87 c 0,-0.06 -0.11,-0.24 -0.22,-0.39 l 0.25,-0.32 0,-0.77 c 0.55,0.15 0.84,0.2 1.57,0.3 z" /></g>  <g style="font-style:normal;font-variant:normal;font-weight:normal;font-stretch:normal;letter-spacing:normal;word-spacing:normal;text-anchor:start;fill:none;fill-opacity:1;fill-rule:evenodd;stroke:#000000;stroke-linecap:butt;stroke-linejoin:miter;stroke-miterlimit:10.43299961;stroke-dasharray:none;stroke-dashoffset:0;stroke-opacity:1" id="g9991" transform="matrix(2,0,0,-2,-262.35974,2895.2168)" xml:space="preserve" stroke-miterlimit="10.433" font-style="normal" font-variant="normal" font-weight="normal" font-stretch="normal" font-size-adjust="none" letter-spacing="normal" word-spacing="normal" ns0:text="$\\mathbf{e}$" ns0:preamble="/Users/prmb/CMEP/underground-inkscape-preamble.tex"><path style="fill:#000000;stroke-width:0" d="m 228.19,478.72 -0.05,-0.05 -0.04,-0.05 -0.04,-0.05 -0.05,-0.05 -0.04,-0.04 -0.04,-0.05 -0.04,-0.04 -0.04,-0.04 -0.05,-0.03 -0.04,-0.04 -0.04,-0.03 -0.04,-0.04 -0.04,-0.03 -0.04,-0.02 -0.04,-0.03 -0.04,-0.03 -0.04,-0.02 -0.04,-0.02 -0.04,-0.02 -0.04,-0.02 -0.04,-0.02 -0.05,-0.01 -0.04,-0.01 -0.04,-0.02 -0.04,-0.01 -0.05,-0.01 -0.04,0 -0.04,-0.01 -0.05,0 -0.04,-0.01 -0.05,0 -0.05,0 c -1.15,0 -1.33,1.09 -1.4,2.21 l 2.97,0 c -0.05,0.87 -0.26,1.61 -0.69,2.1 -0.35,0.38 -0.83,0.59 -1.51,0.59 l 0,-0.37 c 0.34,0 0.48,-0.2 0.64,-0.55 0.11,-0.23 0.11,-0.47 0.11,-1.09 l 0,-0.25 -1.58,0 c 0,1.42 0.28,1.89 0.83,1.89 l 0,0.37 c -1.48,0 -2.47,-1.18 -2.47,-2.94 0,-1.62 0.98,-2.81 2.41,-2.81 1,0 1.62,0.37 2.33,1.49 z" id="path9993" /></g></svg>