<?xml version='1.0' ?><svg xmlns:ns0="http://www.iki.fi/pav/software/textext/" xmlns:dc="http://purl.org/dc/elements/1.1/" xmlns:cc="http://creativecommons.org/ns#" xmlns:rdf="http://www.w3.org/1999/02/22-rdf-syntax-ns#" xmlns:svg="http://www.w3.org/2000/svg" xmlns="http://www.w3.org/2000/svg" id="svg2" version="1.1" width="362.82402" height="107.10155" viewBox="215.16416313815688 1214.9622880387092 526.5965095158764 155.445337918201" preserveAspectRatio="none">
  <metadata id="metadata339">
    <rdf:RDF>
      <cc:Work rdf:about="">
        <dc:format>image/svg+xml</dc:format>
        <dc:type rdf:resource="http://purl.org/dc/dcmitype/StillImage" />
        <dc:title />
      </cc:Work>
    </rdf:RDF>
  </metadata>
  <defs id="defs337">
    <marker orient="auto" refY="0.0" refX="0.0" id="marker5900" style="overflow:visible;">
      <path id="path5902" style="fill-rule:evenodd;stroke-width:0.625;stroke-linejoin:round;stroke:#000000;stroke-opacity:1;fill:#000000;fill-opacity:1" d="M 8.7185878,4.0337352 L -2.2072895,0.016013256 L 8.7185884,-4.0017078 C 6.9730900,-1.6296469 6.9831476,1.6157441 8.7185878,4.0337352 z " transform="scale(0.6) rotate(180) translate(0,0)" />
    </marker>
    <marker style="overflow:visible;" id="Arrow2Mend" refX="0.0" refY="0.0" orient="auto">
      <path transform="scale(0.6) rotate(180) translate(0,0)" d="M 8.7185878,4.0337352 L -2.2072895,0.016013256 L 8.7185884,-4.0017078 C 6.9730900,-1.6296469 6.9831476,1.6157441 8.7185878,4.0337352 z " style="fill-rule:evenodd;stroke-width:0.625;stroke-linejoin:round;stroke:#000000;stroke-opacity:1;fill:#000000;fill-opacity:1" id="path4275" />
    </marker>
  </defs>
  <path style="fill:none;fill-rule:evenodd;stroke:#000000;stroke-width:1.09047544px;stroke-linecap:butt;stroke-linejoin:miter;stroke-opacity:1" id="path6760" d="m 652.62313,1262.3795 a 451.58896,429.27435 0 0 1 14.3845,107.4829 l -451.58896,0 z" />
  <path d="m 306.9733,1347.6479 a 94.697723,88.312737 0 0 1 3.01642,22.112 l -94.69773,0 z" id="path6762" style="fill:none;fill-rule:evenodd;stroke:#000000;stroke-width:1.09047544px;stroke-linecap:butt;stroke-linejoin:miter;stroke-opacity:1" />
  <path style="fill:none;fill-rule:evenodd;stroke:#000000;stroke-width:0.87238038;stroke-linecap:butt;stroke-linejoin:miter;stroke-miterlimit:4;stroke-dasharray:2.6171411, 2.6171411;stroke-dashoffset:0;stroke-opacity:1" d="m 652.46357,1262.3874 0,107.5615" id="path6766" />
  <path style="fill:none;stroke:#000000;stroke-width:0.76333278;stroke-linejoin:miter;stroke-miterlimit:4;stroke-dasharray:none;stroke-dashoffset:0;fill-opacity:1.0;stroke-opacity:1.0" d="m 641.70754,1369.7186 0,-10.1694 10.68652,0" id="rect6770" />
  <g style="font-style:normal;font-variant:normal;font-weight:normal;font-stretch:normal;letter-spacing:normal;word-spacing:normal;text-anchor:start;fill:none;fill-opacity:1;fill-rule:evenodd;stroke:#000000;stroke-width:0.48971367;stroke-linecap:butt;stroke-linejoin:miter;stroke-miterlimit:10.43299961;stroke-dasharray:none;stroke-dashoffset:0;stroke-opacity:1" id="content" transform="matrix(2.2128829,0,0,-2.1035367,-32.226677,2301.1727)" xml:space="preserve" stroke-miterlimit="10.433" font-style="normal" font-variant="normal" font-weight="normal" font-stretch="normal" font-size-adjust="none" letter-spacing="normal" word-spacing="normal" ns0:text="$1$" ns0:preamble="/Users/prmb/CMEP/underground-inkscape-preamble.tex"><path style="fill:#000000;stroke-width:0" d="m 228.08,477.23 0,0.18 c -0.88,0 -1.12,0.21 -1.12,0.72 l 0,7.05 -0.1,0.04 -2.12,-1.08 0,-0.16 0.32,0.11 c 0.21,0.09 0.41,0.15 0.53,0.15 0.25,0 0.36,-0.18 0.36,-0.58 l 0,-5.3 c 0,-0.65 -0.25,-0.9 -1.13,-0.95 l 0,-0.18 z" id="path6832" /></g>  <g style="font-style:normal;font-variant:normal;font-weight:normal;font-stretch:normal;letter-spacing:normal;word-spacing:normal;text-anchor:start;fill:none;fill-opacity:1;fill-rule:evenodd;stroke:#000000;stroke-width:0.48971376;stroke-linecap:butt;stroke-linejoin:miter;stroke-miterlimit:10.43299961;stroke-dasharray:none;stroke-dashoffset:0;stroke-opacity:1" ns0:preamble="/Users/prmb/CMEP/underground-inkscape-preamble.tex" ns0:text="$\\theta$" word-spacing="normal" letter-spacing="normal" font-size-adjust="none" font-stretch="normal" font-weight="normal" font-variant="normal" font-style="normal" stroke-miterlimit="10.433" xml:space="preserve" transform="matrix(2.2128825,0,0,-2.1035367,-165.75535,2366.9974)" id="g6954"><path style="fill:#000000;stroke-width:0" id="path6956" d="m 229.03,482.81 0,0.14 -0.01,0.14 -0.01,0.14 -0.01,0.13 -0.02,0.12 -0.02,0.12 -0.02,0.12 -0.03,0.11 -0.03,0.11 -0.03,0.1 -0.03,0.1 -0.04,0.09 -0.04,0.09 -0.05,0.08 -0.04,0.08 -0.05,0.07 -0.06,0.07 -0.05,0.07 -0.06,0.06 -0.06,0.05 -0.06,0.05 -0.06,0.05 -0.07,0.04 -0.06,0.04 -0.07,0.03 -0.07,0.03 -0.08,0.03 -0.07,0.02 -0.08,0.01 -0.07,0.01 -0.08,0.01 -0.08,0 -0.09,-0.34 c 0.49,0 0.61,-0.66 0.61,-1.52 0,-0.49 -0.12,-1.14 -0.3,-1.96 l -2.43,0 c 0.31,1.4 1.27,3.48 2.12,3.48 l 0.09,0.34 c -2.25,0 -3.62,-3.85 -3.62,-5.9 0,-1.42 0.5,-2.11 1.62,-2.11 l 0.06,0.34 c -0.51,0 -0.68,0.66 -0.68,1.47 0,0.57 0.1,1.36 0.29,1.95 l 2.44,0 c -0.03,-0.1 -0.1,-0.44 -0.18,-0.71 -0.37,-1.17 -1.08,-2.71 -1.87,-2.71 l -0.06,-0.34 c 1.82,0 3.51,3.38 3.51,5.7 z" /></g>  <g style="font-style:normal;font-variant:normal;font-weight:normal;font-stretch:normal;letter-spacing:normal;word-spacing:normal;text-anchor:start;fill:none;fill-opacity:1;fill-rule:evenodd;stroke:#000000;stroke-width:0.48971382;stroke-linecap:butt;stroke-linejoin:miter;stroke-miterlimit:10.43299961;stroke-dasharray:none;stroke-dashoffset:0;stroke-opacity:1" id="g7082" transform="matrix(2.212882,0,0,-2.1035367,105.15135,2323.5427)" xml:space="preserve" stroke-miterlimit="10.433" font-style="normal" font-variant="normal" font-weight="normal" font-stretch="normal" font-size-adjust="none" letter-spacing="normal" word-spacing="normal" ns0:text="$\\sin \\theta$" ns0:preamble="/Users/prmb/CMEP/underground-inkscape-preamble.tex"><path style="fill:#000000;stroke-width:0" d="m 225.27,480.79 -0.03,0.02 -0.03,0.02 -0.03,0.02 -0.02,0.02 -0.03,0.02 -0.03,0.03 -0.02,0.02 -0.03,0.02 -0.02,0.03 -0.02,0.02 -0.02,0.03 -0.02,0.02 -0.02,0.03 -0.02,0.02 -0.02,0.03 -0.01,0.03 -0.02,0.02 -0.01,0.03 -0.02,0.03 -0.01,0.03 -0.01,0.02 -0.01,0.03 -0.01,0.03 -0.01,0.02 -0.01,0.03 -0.01,0.03 0,0.02 -0.01,0.03 0,0.03 0,0.02 0,0.03 0,0.02 c 0,0.56 0.37,0.8 0.88,0.8 0.71,0 1.06,-0.38 1.34,-1.45 l 0.17,0 -0.06,1.61 -0.13,0 c -0.09,-0.11 -0.14,-0.12 -0.18,-0.12 -0.09,0 -0.21,0.03 -0.34,0.09 -0.24,0.12 -0.5,0.13 -0.79,0.13 -0.96,0 -1.63,-0.52 -1.63,-1.45 0,-0.6 0.44,-1.17 1.42,-1.71 l 0.64,-0.35 c 0.39,-0.22 0.62,-0.52 0.62,-0.89 0,-0.48 -0.37,-0.87 -0.98,-0.87 -0.81,0 -1.25,0.52 -1.49,1.66 l -0.19,0 0,-1.85 0.15,0 c 0.07,0.12 0.14,0.14 0.28,0.14 0.13,0 0.26,-0.01 0.55,-0.11 0.27,-0.09 0.61,-0.1 0.86,-0.1 0.9,0 1.65,0.68 1.65,1.47 0,0.68 -0.28,0.99 -1.04,1.46 z" id="path7084" /><path style="fill:#000000;stroke-width:0" d="m 230.17,484.7 0,0.03 -0.01,0.03 0,0.03 -0.01,0.03 0,0.03 -0.01,0.02 -0.01,0.03 -0.01,0.03 -0.01,0.03 -0.01,0.02 -0.02,0.03 -0.01,0.02 -0.02,0.03 -0.02,0.02 -0.02,0.02 -0.02,0.02 -0.02,0.02 -0.02,0.02 -0.02,0.02 -0.03,0.02 -0.02,0.01 -0.02,0.02 -0.03,0.01 -0.03,0.01 -0.03,0.01 -0.02,0.01 -0.03,0.01 -0.03,0.01 -0.03,0 -0.03,0.01 -0.03,0 -0.04,0 c -0.33,0 -0.6,-0.27 -0.6,-0.6 0,-0.35 0.26,-0.61 0.59,-0.61 0.36,0 0.62,0.26 0.62,0.61 z" id="path7086" /><path style="fill:#000000;stroke-width:0" d="m 231.03,477.23 0,0.18 c -0.78,0.06 -0.88,0.19 -0.88,1.07 l 0,4.14 -0.04,0.05 -1.83,-0.65 0,-0.19 c 0.21,0.06 0.39,0.06 0.49,0.06 0.3,0 0.39,-0.19 0.39,-0.75 l 0,-2.68 c 0,-0.89 -0.12,-1 -0.93,-1.05 l 0,-0.18 z" id="path7088" /><path style="fill:#000000;stroke-width:0" d="m 237.06,477.23 0,0.18 c -0.58,0.06 -0.72,0.19 -0.72,0.83 l 0,2.61 c 0,1.17 -0.5,1.82 -1.39,1.82 -0.55,0 -1.09,-0.26 -1.7,-0.96 l -0.01,0 0,0.92 -0.1,0.04 c -0.58,-0.22 -0.97,-0.35 -1.62,-0.54 l 0,-0.2 c 0.09,0.04 0.22,0.05 0.35,0.05 0.33,0 0.41,-0.19 0.41,-0.77 l 0,-2.86 c 0,-0.7 -0.13,-0.89 -0.73,-0.94 l 0,-0.18 2.49,0 0,0.18 c -0.6,0.05 -0.77,0.21 -0.77,0.67 l 0,3.26 c 0.54,0.54 0.83,0.68 1.22,0.68 0.58,0 0.86,-0.36 0.86,-1.2 l 0,-2.34 c 0,-0.78 -0.14,-1.02 -0.73,-1.07 l -0.02,-0.18 z" id="path7090" /><path style="fill:#000000;stroke-width:0" d="m 244.51,482.81 0,0.14 0,0.14 -0.01,0.14 -0.02,0.13 -0.01,0.12 -0.02,0.12 -0.03,0.12 -0.02,0.11 -0.03,0.11 -0.03,0.1 -0.04,0.1 -0.04,0.09 -0.04,0.09 -0.04,0.08 -0.05,0.08 -0.05,0.07 -0.05,0.07 -0.06,0.07 -0.05,0.06 -0.06,0.05 -0.06,0.05 -0.07,0.05 -0.06,0.04 -0.07,0.04 -0.07,0.03 -0.07,0.03 -0.07,0.03 -0.08,0.02 -0.07,0.01 -0.08,0.01 -0.08,0.01 -0.08,0 -0.08,-0.34 c 0.48,0 0.6,-0.66 0.6,-1.52 0,-0.49 -0.12,-1.14 -0.29,-1.96 l -2.44,0 c 0.31,1.4 1.28,3.48 2.13,3.48 l 0.08,0.34 c -2.24,0 -3.61,-3.85 -3.61,-5.9 0,-1.42 0.49,-2.11 1.62,-2.11 l 0.06,0.34 c -0.51,0 -0.69,0.66 -0.69,1.47 0,0.57 0.11,1.36 0.3,1.95 l 2.44,0 c -0.03,-0.1 -0.11,-0.44 -0.19,-0.71 -0.36,-1.17 -1.07,-2.71 -1.86,-2.71 l -0.06,-0.34 c 1.81,0 3.5,3.38 3.5,5.7 z" id="path7092" /></g>  <path id="rect7161" d="m 641.22987,1265.0569 -3.23768,-11.657 11.91473,-2.9158" style="fill:none;stroke:#000000;stroke-width:0.76333284;stroke-linejoin:miter;stroke-miterlimit:4;stroke-dasharray:none;stroke-dashoffset:0;fill-opacity:1.0;stroke-opacity:1.0" />
  <path id="path7163" d="M 682.97992,1369.6825 640.01114,1215.0791" style="fill:none;fill-rule:evenodd;stroke:#000000;stroke-width:0.87238038;stroke-linecap:butt;stroke-linejoin:miter;stroke-miterlimit:4;stroke-dasharray:2.6171411, 2.6171411;stroke-dashoffset:0;stroke-opacity:1" />
  <path id="path7166" d="m 667.12666,1369.894 25.53697,-0.2405" style="fill:none;fill-rule:evenodd;stroke:#000000;stroke-width:0.87238044;stroke-linecap:butt;stroke-linejoin:miter;stroke-miterlimit:4;stroke-dasharray:2.61714114, 2.61714114;stroke-dashoffset:0;stroke-opacity:1" />
  <g ns0:preamble="/Users/prmb/CMEP/underground-inkscape-preamble.tex" ns0:text="$\\tan\\theta$" word-spacing="normal" letter-spacing="normal" font-size-adjust="none" font-stretch="normal" font-weight="normal" font-variant="normal" font-style="normal" stroke-miterlimit="10.433" xml:space="preserve" transform="matrix(2.212882,0,0,-2.1035367,198.98495,2329.7189)" id="g7240" style="font-style:normal;font-variant:normal;font-weight:normal;font-stretch:normal;letter-spacing:normal;word-spacing:normal;text-anchor:start;fill:none;fill-opacity:1;fill-rule:evenodd;stroke:#000000;stroke-width:0.48971382;stroke-linecap:butt;stroke-linejoin:miter;stroke-miterlimit:10.43299961;stroke-dasharray:none;stroke-dashoffset:0;stroke-opacity:1"><path id="path7242" d="m 226.57,478.14 -0.02,-0.02 -0.03,-0.03 -0.02,-0.03 -0.02,-0.02 -0.02,-0.03 -0.03,-0.02 -0.02,-0.02 -0.02,-0.02 -0.02,-0.02 -0.02,-0.02 -0.03,-0.02 -0.02,-0.01 -0.02,-0.02 -0.02,-0.01 -0.02,-0.02 -0.02,-0.01 -0.02,-0.01 -0.02,-0.01 -0.02,-0.01 -0.03,-0.01 -0.02,-0.01 -0.02,-0.01 -0.02,0 -0.02,-0.01 -0.02,0 -0.03,-0.01 -0.02,0 -0.02,0 -0.02,-0.01 -0.03,0 -0.02,0 -0.03,0 c -0.43,0 -0.61,0.31 -0.61,1.06 l 0,3.38 1.19,0 0,0.38 -1.19,0 0,1.37 c 0,0.12 -0.02,0.15 -0.08,0.15 -0.07,-0.12 -0.17,-0.22 -0.24,-0.33 -0.45,-0.65 -0.84,-1.09 -1.14,-1.26 -0.13,-0.09 -0.2,-0.16 -0.2,-0.23 0,-0.03 0.01,-0.06 0.04,-0.08 l 0.63,0 0,-3.55 c 0,-1 0.35,-1.5 1.04,-1.5 0.59,0 1.04,0.28 1.43,0.89 z" style="fill:#000000;stroke-width:0" /><path id="path7244" d="m 232.06,478.01 -0.02,-0.01 -0.01,-0.02 -0.02,-0.01 -0.02,-0.01 -0.02,-0.02 -0.01,-0.01 -0.02,-0.01 -0.02,-0.01 -0.01,-0.01 -0.02,-0.01 -0.01,-0.01 -0.02,-0.01 -0.01,-0.01 -0.02,-0.01 -0.01,0 -0.02,-0.01 -0.01,-0.01 -0.01,0 -0.02,-0.01 -0.01,0 -0.02,-0.01 -0.01,0 -0.02,0 -0.01,-0.01 -0.02,0 -0.02,0 -0.01,-0.01 -0.02,0 -0.01,0 -0.02,0 -0.02,0 -0.02,0 c -0.21,0 -0.36,0.24 -0.36,0.78 l 0,2.25 c 0,0.72 -0.05,0.97 -0.33,1.31 -0.29,0.35 -0.73,0.54 -1.4,0.54 -0.53,0 -1.02,-0.15 -1.35,-0.36 -0.42,-0.26 -0.6,-0.64 -0.6,-0.94 0,-0.32 0.25,-0.55 0.5,-0.55 0.31,0 0.55,0.26 0.55,0.49 0,0.25 -0.07,0.28 -0.07,0.49 0,0.32 0.35,0.58 0.82,0.58 0.53,0 0.92,-0.33 0.92,-1.06 l 0,-0.64 0,-0.28 0,-1.67 c 0,-0.34 -0.07,-0.5 -0.41,-0.74 -0.2,-0.13 -0.45,-0.19 -0.69,-0.19 -0.46,0 -0.81,0.28 -0.81,0.91 0,0.37 0.12,0.65 0.4,0.91 0.3,0.27 0.78,0.52 1.51,0.78 l 0,0.28 c -1.33,-0.49 -1.77,-0.72 -2.12,-0.95 -0.46,-0.31 -0.83,-0.77 -0.83,-1.38 0,-0.78 0.51,-1.23 1.24,-1.23 0.51,0 1.09,0.15 1.71,0.86 l 0.01,0 c 0.06,-0.63 0.32,-0.86 0.76,-0.86 0.4,0 0.71,0.11 1.06,0.56 z" style="fill:#000000;stroke-width:0" /><path id="path7246" d="m 237.83,477.23 0,0.18 c -0.58,0.06 -0.72,0.19 -0.72,0.83 l 0,2.61 c 0,1.17 -0.49,1.82 -1.39,1.82 -0.55,0 -1.09,-0.26 -1.7,-0.96 l -0.01,0 0,0.92 -0.1,0.04 c -0.58,-0.22 -0.97,-0.35 -1.62,-0.54 l 0,-0.2 c 0.09,0.04 0.22,0.05 0.35,0.05 0.33,0 0.41,-0.19 0.41,-0.77 l 0,-2.86 c 0,-0.7 -0.13,-0.89 -0.73,-0.94 l 0,-0.18 2.49,0 0,0.18 c -0.6,0.05 -0.77,0.21 -0.77,0.67 l 0,3.26 c 0.54,0.54 0.83,0.68 1.22,0.68 0.58,0 0.86,-0.36 0.86,-1.2 l 0,-2.34 c 0,-0.78 -0.14,-1.02 -0.73,-1.07 l -0.01,-0.18 z" style="fill:#000000;stroke-width:0" /><path id="path7248" d="m 245.28,482.81 0,0.14 0,0.14 -0.01,0.14 -0.02,0.13 -0.01,0.12 -0.02,0.12 -0.03,0.12 -0.02,0.11 -0.03,0.11 -0.03,0.1 -0.04,0.1 -0.04,0.09 -0.04,0.09 -0.04,0.08 -0.05,0.08 -0.05,0.07 -0.05,0.07 -0.06,0.07 -0.05,0.06 -0.06,0.05 -0.06,0.05 -0.07,0.05 -0.06,0.04 -0.07,0.04 -0.07,0.03 -0.07,0.03 -0.07,0.03 -0.08,0.02 -0.07,0.01 -0.08,0.01 -0.08,0.01 -0.08,0 -0.08,-0.34 c 0.48,0 0.6,-0.66 0.6,-1.52 0,-0.49 -0.12,-1.14 -0.29,-1.96 l -2.43,0 c 0.3,1.4 1.27,3.48 2.12,3.48 l 0.08,0.34 c -2.24,0 -3.61,-3.85 -3.61,-5.9 0,-1.42 0.5,-2.11 1.62,-2.11 l 0.06,0.34 c -0.51,0 -0.69,0.66 -0.69,1.47 0,0.57 0.11,1.36 0.3,1.95 l 2.44,0 c -0.04,-0.1 -0.11,-0.44 -0.19,-0.71 -0.36,-1.17 -1.07,-2.71 -1.86,-2.71 l -0.06,-0.34 c 1.82,0 3.5,3.38 3.5,5.7 z" style="fill:#000000;stroke-width:0" /></g>  <g style="font-style:normal;font-variant:normal;font-weight:normal;font-stretch:normal;letter-spacing:normal;word-spacing:normal;text-anchor:start;fill:none;fill-opacity:1;fill-rule:evenodd;stroke:#000000;stroke-width:0.48971382;stroke-linecap:butt;stroke-linejoin:miter;stroke-miterlimit:10.43299961;stroke-dasharray:none;stroke-dashoffset:0;stroke-opacity:1" id="g7422" transform="matrix(2.212882,0,0,-2.1035367,-23.948777,2365.5713)" xml:space="preserve" stroke-miterlimit="10.433" font-style="normal" font-variant="normal" font-weight="normal" font-stretch="normal" font-size-adjust="none" letter-spacing="normal" word-spacing="normal" ns0:text="$\\cos\\theta$" ns0:preamble="/Users/prmb/CMEP/underground-inkscape-preamble.tex"><path style="fill:#000000;stroke-width:0" d="m 228.13,479.08 -0.05,-0.08 -0.05,-0.07 -0.06,-0.07 -0.05,-0.07 -0.05,-0.06 -0.05,-0.06 -0.04,-0.06 -0.05,-0.06 -0.05,-0.05 -0.05,-0.05 -0.05,-0.04 -0.05,-0.05 -0.05,-0.04 -0.04,-0.04 -0.05,-0.03 -0.05,-0.04 -0.05,-0.03 -0.05,-0.03 -0.05,-0.03 -0.05,-0.02 -0.05,-0.02 -0.05,-0.02 -0.06,-0.02 -0.05,-0.02 -0.05,-0.01 -0.06,-0.01 -0.06,-0.01 -0.05,-0.01 -0.06,-0.01 -0.06,0 -0.06,0 -0.06,0 c -1.09,0 -1.83,0.94 -1.83,2.3 0,1.23 0.65,2.05 1.6,2.05 0.43,0 0.58,-0.13 0.7,-0.56 l 0.07,-0.26 c 0.09,-0.35 0.31,-0.55 0.57,-0.55 0.3,0 0.55,0.23 0.55,0.5 0,0.66 -0.83,1.22 -1.82,1.22 -0.55,0 -1.12,-0.22 -1.59,-0.61 -0.64,-0.53 -0.99,-1.34 -0.99,-2.32 0,-1.53 0.93,-2.62 2.24,-2.62 0.51,0 0.96,0.16 1.36,0.49 0.35,0.29 0.59,0.63 0.97,1.36 z" id="path7424" /><path style="fill:#000000;stroke-width:0" d="m 234.24,479.96 0,0.15 -0.01,0.15 -0.02,0.15 -0.02,0.14 -0.03,0.13 -0.03,0.14 -0.04,0.13 -0.04,0.12 -0.05,0.12 -0.06,0.12 -0.06,0.11 -0.07,0.11 -0.07,0.11 -0.07,0.1 -0.08,0.09 -0.08,0.09 -0.09,0.09 -0.09,0.08 -0.1,0.08 -0.1,0.07 -0.1,0.07 -0.11,0.06 -0.11,0.05 -0.11,0.05 -0.12,0.05 -0.12,0.04 -0.12,0.03 -0.13,0.03 -0.12,0.02 -0.13,0.01 -0.13,0.01 -0.14,0.01 c -1.59,0 -2.65,-1.1 -2.65,-2.74 0,-1.64 1.12,-2.81 2.55,-2.81 l 0.2,0.33 c -0.43,0 -0.81,0.21 -1.07,0.59 -0.43,0.63 -0.62,1.48 -0.62,2.42 0,1.18 0.55,1.87 1.37,1.87 0.51,0 0.83,-0.23 1.12,-0.59 0.38,-0.48 0.59,-1.29 0.59,-2.1 l 0,0 c 0,-1.37 -0.52,-2.19 -1.39,-2.19 l -0.2,-0.33 c 1.59,0 2.65,1.2 2.65,2.84 z" id="path7426" /><path style="fill:#000000;stroke-width:0" d="m 236.46,480.79 -0.03,0.02 -0.03,0.02 -0.03,0.02 -0.03,0.02 -0.03,0.02 -0.02,0.03 -0.03,0.02 -0.02,0.02 -0.02,0.03 -0.03,0.02 -0.02,0.03 -0.02,0.02 -0.02,0.03 -0.02,0.02 -0.01,0.03 -0.02,0.03 -0.01,0.02 -0.02,0.03 -0.01,0.03 -0.02,0.03 -0.01,0.02 -0.01,0.03 -0.01,0.03 -0.01,0.02 0,0.03 -0.01,0.03 -0.01,0.02 0,0.03 0,0.03 -0.01,0.02 0,0.03 0,0.02 c 0,0.56 0.38,0.8 0.89,0.8 0.7,0 1.06,-0.38 1.33,-1.45 l 0.18,0 -0.06,1.61 -0.13,0 c -0.1,-0.11 -0.14,-0.12 -0.19,-0.12 -0.08,0 -0.2,0.03 -0.33,0.09 -0.25,0.12 -0.51,0.13 -0.79,0.13 -0.97,0 -1.63,-0.52 -1.63,-1.45 0,-0.6 0.43,-1.17 1.41,-1.71 l 0.64,-0.35 c 0.39,-0.22 0.63,-0.52 0.63,-0.89 0,-0.48 -0.38,-0.87 -0.98,-0.87 -0.82,0 -1.25,0.52 -1.5,1.66 l -0.19,0 0,-1.85 0.15,0 c 0.08,0.12 0.14,0.14 0.29,0.14 0.13,0 0.26,-0.01 0.54,-0.11 0.27,-0.09 0.61,-0.1 0.86,-0.1 0.9,0 1.66,0.68 1.66,1.47 0,0.68 -0.29,0.99 -1.04,1.46 z" id="path7428" /><path style="fill:#000000;stroke-width:0" d="m 246.48,482.81 0,0.14 -0.01,0.14 -0.01,0.14 -0.01,0.13 -0.02,0.12 -0.02,0.12 -0.02,0.12 -0.02,0.11 -0.03,0.11 -0.04,0.1 -0.03,0.1 -0.04,0.09 -0.04,0.09 -0.05,0.08 -0.04,0.08 -0.05,0.07 -0.05,0.07 -0.06,0.07 -0.06,0.06 -0.05,0.05 -0.07,0.05 -0.06,0.05 -0.06,0.04 -0.07,0.04 -0.07,0.03 -0.07,0.03 -0.07,0.03 -0.08,0.02 -0.07,0.01 -0.08,0.01 -0.08,0.01 -0.08,0 -0.08,-0.34 c 0.48,0 0.6,-0.66 0.6,-1.52 0,-0.49 -0.12,-1.14 -0.3,-1.96 l -2.43,0 c 0.31,1.4 1.28,3.48 2.13,3.48 l 0.08,0.34 c -2.24,0 -3.61,-3.85 -3.61,-5.9 0,-1.42 0.49,-2.11 1.61,-2.11 l 0.06,0.34 c -0.51,0 -0.68,0.66 -0.68,1.47 0,0.57 0.1,1.36 0.29,1.95 l 2.45,0 c -0.04,-0.1 -0.11,-0.44 -0.19,-0.71 -0.37,-1.17 -1.08,-2.71 -1.87,-2.71 l -0.06,-0.34 c 1.82,0 3.51,3.38 3.51,5.7 z" id="path7430" /></g>  <g id="g4238" transform="matrix(2.2128825,0,0,-2.1035367,209.03176,2361.9146)" xml:space="preserve" stroke-miterlimit="10.433" font-style="normal" font-variant="normal" font-weight="normal" font-stretch="normal" font-size-adjust="none" letter-spacing="normal" word-spacing="normal" ns0:text="$\\theta$" ns0:preamble="/Users/prmb/CMEP/underground-inkscape-preamble.tex" style="font-style:normal;font-variant:normal;font-weight:normal;font-stretch:normal;letter-spacing:normal;word-spacing:normal;text-anchor:start;fill:none;fill-opacity:1;fill-rule:evenodd;stroke:#000000;stroke-width:0.48971376;stroke-linecap:butt;stroke-linejoin:miter;stroke-miterlimit:10.43299961;stroke-dasharray:none;stroke-dashoffset:0;stroke-opacity:1"><path d="m 229.03,482.81 0,0.14 -0.01,0.14 -0.01,0.14 -0.01,0.13 -0.02,0.12 -0.02,0.12 -0.02,0.12 -0.03,0.11 -0.03,0.11 -0.03,0.1 -0.03,0.1 -0.04,0.09 -0.04,0.09 -0.05,0.08 -0.04,0.08 -0.05,0.07 -0.06,0.07 -0.05,0.07 -0.06,0.06 -0.06,0.05 -0.06,0.05 -0.06,0.05 -0.07,0.04 -0.06,0.04 -0.07,0.03 -0.07,0.03 -0.08,0.03 -0.07,0.02 -0.08,0.01 -0.07,0.01 -0.08,0.01 -0.08,0 -0.09,-0.34 c 0.49,0 0.61,-0.66 0.61,-1.52 0,-0.49 -0.12,-1.14 -0.3,-1.96 l -2.43,0 c 0.31,1.4 1.27,3.48 2.12,3.48 l 0.09,0.34 c -2.25,0 -3.62,-3.85 -3.62,-5.9 0,-1.42 0.5,-2.11 1.62,-2.11 l 0.06,0.34 c -0.51,0 -0.68,0.66 -0.68,1.47 0,0.57 0.1,1.36 0.29,1.95 l 2.44,0 c -0.03,-0.1 -0.1,-0.44 -0.18,-0.71 -0.37,-1.17 -1.08,-2.71 -1.87,-2.71 l -0.06,-0.34 c 1.82,0 3.51,3.38 3.51,5.7 z" id="path4240" style="fill:#000000;stroke-width:0" /></g>  <path id="path4242" d="m 700.88664,1352.6861 -29.69405,2.4076" style="fill:none;fill-rule:evenodd;stroke:#000000;stroke-width:1.54814148;stroke-linecap:butt;stroke-linejoin:miter;stroke-miterlimit:4;stroke-dasharray:none;stroke-opacity:1;marker-end:url(#Arrow2Mend)" />
  <path style="fill:none;fill-rule:evenodd;stroke:#000000;stroke-width:1.54814148;stroke-linecap:butt;stroke-linejoin:miter;stroke-miterlimit:4;stroke-dasharray:none;stroke-opacity:1;marker-end:url(#marker5900)" d="m 697.21308,1329.7778 -18.8344,9.5911" id="path5898" />
</svg>