<?xml version='1.0' ?><svg xmlns:ns0="http://www.iki.fi/pav/software/textext/" xmlns:dc="http://purl.org/dc/elements/1.1/" xmlns:cc="http://creativecommons.org/ns#" xmlns:rdf="http://www.w3.org/1999/02/22-rdf-syntax-ns#" xmlns:svg="http://www.w3.org/2000/svg" xmlns="http://www.w3.org/2000/svg" id="svg2" version="1.1" width="384.25999" height="310.87581" viewBox="0.0 204.1390764827848 96.23639323764672 77.85761587937361" preserveAspectRatio="none">
  <metadata id="metadata326">
    <rdf:RDF>
      <cc:Work rdf:about="">
        <dc:format>image/svg+xml</dc:format>
        <dc:type rdf:resource="http://purl.org/dc/dcmitype/StillImage" />
        <dc:title />
      </cc:Work>
    </rdf:RDF>
  </metadata>
  <defs id="defs324" />
  <g stroke-miterlimit="10.000" id="g6" style="stroke-width:1;stroke-linecap:square;stroke-linejoin:miter;stroke-miterlimit:10;stroke-dasharray:none;stroke-dashoffset:0" transform="matrix(0.16557458,0,0,0.16557458,0,204.28476)">
    <clipPath id="clip1">
      <path d="m 0,0 0,469 580,0 0,-469 z" id="path9" />
    </clipPath>
    <g clip-path="url(#clip1)" id="g11">
      <g id="g13" style="fill:none;stroke:#000000;stroke-width:2;stroke-linecap:butt;stroke-opacity:1">
        <path d="m 39.182,3 0,466" id="path15" />
      </g>
    </g>
    <clipPath id="clip2">
      <path d="m 0,0 0,469 580,0 0,-469 z" id="path18" />
    </clipPath>
    <g clip-path="url(#clip2)" id="g20" transform="translate(0,-3.2268532)">
      <g id="g22" style="fill:#000000;fill-opacity:1;fill-rule:evenodd;stroke:none">
        <path d="m 39.182,2 -5,20 10,0" id="path24" />
      </g>
    </g>
    <clipPath id="clip3">
      <path d="m 0,0 0,469 580,0 0,-469 z" id="path27" />
    </clipPath>
    <g clip-path="url(#clip3)" id="g29">
      <g id="g31" style="fill:none;stroke:#000000;stroke-width:2;stroke-linecap:butt;stroke-opacity:1">
        <path d="m 0,237.03 577,0" id="path33" />
      </g>
    </g>
    <clipPath id="clip4">
      <path d="m 0,0 0,469 580,0 0,-469 z" id="path36" />
    </clipPath>
    <g clip-path="url(#clip4)" id="g38" transform="translate(3.2268534,0)">
      <g id="g40" style="fill:#000000;fill-opacity:1;fill-rule:evenodd;stroke:none">
        <path d="m 578,237.03 -20,-5 0,10" id="path42" />
      </g>
    </g>
    <clipPath id="clip5">
      <path d="m 0,0 0,469 580,0 0,-469 z" id="path45" />
    </clipPath>
    <g clip-path="url(#clip5)" id="g47">
      <g id="g49" style="fill:#000000;fill-opacity:1;fill-rule:nonzero;stroke:none">
        <path d="m 48.762,253.22 q -1.342,0 -2.171,-1.27 -0.829,-1.26 -0.829,-3.29 0,-2.05 0.835,-3.3 0.835,-1.25 2.2,-1.25 1.365,0 2.2,1.25 0.835,1.25 0.835,3.28 0,2.09 -0.835,3.33 -0.835,1.25 -2.235,1.25 z m 0.011,-0.87 q 1.834,0 1.834,-3.73 0,-3.64 -1.81,-3.64 -1.805,0 -1.805,3.68 0,3.69 1.781,3.69 z" id="path51" />
      </g>
    </g>
    <clipPath id="clip6">
      <path d="m 0,0 0,469 580,0 0,-469 z" id="path54" />
    </clipPath>
    <g clip-path="url(#clip6)" id="g56">
      <g id="g58" style="fill:none;stroke:#000000;stroke-width:2;stroke-linecap:butt;stroke-opacity:1">
        <path d="m 39.182,237.03 0,3" id="path60" />
      </g>
    </g>
    <clipPath id="clip7">
      <path d="m 0,0 0,469 580,0 0,-469 z" id="path63" />
    </clipPath>
    <g clip-path="url(#clip7)" id="g65">
      <g id="g67" style="fill:#000000;fill-opacity:1;fill-rule:nonzero;stroke:none">
        <path d="m 127.8,253 0,-0.87 1.74,0 0,-6.84 -1.74,0.43 0,-0.89 2.9,-0.72 0,8.02 1.73,0 0,0.87 z m 9.55,0.22 q -1.34,0 -2.17,-1.27 -0.83,-1.26 -0.83,-3.29 0,-2.05 0.83,-3.3 0.84,-1.25 2.2,-1.25 1.37,0 2.2,1.25 0.84,1.25 0.84,3.28 0,2.09 -0.84,3.33 -0.83,1.25 -2.23,1.25 z m 0.01,-0.87 q 1.84,0 1.84,-3.73 0,-3.64 -1.82,-3.64 -1.8,0 -1.8,3.68 0,3.69 1.78,3.69 z m 7.58,0.87 q -1.34,0 -2.17,-1.27 -0.83,-1.26 -0.83,-3.29 0,-2.05 0.83,-3.3 0.84,-1.25 2.2,-1.25 1.37,0 2.2,1.25 0.84,1.25 0.84,3.28 0,2.09 -0.84,3.33 -0.83,1.25 -2.23,1.25 z m 0.01,-0.87 q 1.83,0 1.83,-3.73 0,-3.64 -1.81,-3.64 -1.8,0 -1.8,3.68 0,3.69 1.78,3.69 z" id="path69" />
      </g>
    </g>
    <clipPath id="clip8">
      <path d="m 0,0 0,469 580,0 0,-469 z" id="path72" />
    </clipPath>
    <g clip-path="url(#clip8)" id="g74">
      <g id="g76" style="fill:none;stroke:#000000;stroke-width:2;stroke-linecap:butt;stroke-opacity:1">
        <path d="m 134,237.03 0,3" id="path78" />
      </g>
    </g>
    <clipPath id="clip9">
      <path d="m 0,0 0,469 580,0 0,-469 z" id="path81" />
    </clipPath>
    <g clip-path="url(#clip9)" id="g83">
      <g id="g85" style="fill:#000000;fill-opacity:1;fill-rule:nonzero;stroke:none">
        <path d="m 221,253 0,-1.01 q 0.5,-1.18 2.04,-2.57 l 0.66,-0.59 q 1.27,-1.16 1.27,-2.29 0,-0.73 -0.43,-1.15 -0.44,-0.41 -1.2,-0.41 -0.9,0 -2.13,0.7 l 0,-1.02 q 1.16,-0.55 2.29,-0.55 1.22,0 1.96,0.66 0.74,0.65 0.74,1.74 0,0.78 -0.37,1.38 -0.37,0.6 -1.39,1.47 l -0.44,0.38 q -1.39,1.17 -1.61,2.25 l 3.77,0 0,1.01 z m 10.35,0.22 q -1.34,0 -2.17,-1.27 -0.83,-1.26 -0.83,-3.29 0,-2.05 0.83,-3.3 0.84,-1.25 2.2,-1.25 1.37,0 2.2,1.25 0.84,1.25 0.84,3.28 0,2.09 -0.84,3.33 -0.83,1.25 -2.23,1.25 z m 0.01,-0.87 q 1.84,0 1.84,-3.73 0,-3.64 -1.82,-3.64 -1.8,0 -1.8,3.68 0,3.69 1.78,3.69 z m 7.58,0.87 q -1.34,0 -2.17,-1.27 -0.83,-1.26 -0.83,-3.29 0,-2.05 0.83,-3.3 0.84,-1.25 2.2,-1.25 1.37,0 2.2,1.25 0.84,1.25 0.84,3.28 0,2.09 -0.84,3.33 -0.83,1.25 -2.23,1.25 z m 0.01,-0.87 q 1.83,0 1.83,-3.73 0,-3.64 -1.81,-3.64 -1.8,0 -1.8,3.68 0,3.69 1.78,3.69 z" id="path87" />
      </g>
    </g>
    <clipPath id="clip10">
      <path d="m 0,0 0,469 580,0 0,-469 z" id="path90" />
    </clipPath>
    <g clip-path="url(#clip10)" id="g92">
      <g id="g94" style="fill:none;stroke:#000000;stroke-width:2;stroke-linecap:butt;stroke-opacity:1">
        <path d="m 228.82,237.03 0,3" id="path96" />
      </g>
    </g>
    <clipPath id="clip11">
      <path d="m 0,0 0,469 580,0 0,-469 z" id="path99" />
    </clipPath>
    <g clip-path="url(#clip11)" id="g101">
      <g id="g103" style="fill:#000000;fill-opacity:1;fill-rule:nonzero;stroke:none">
        <path d="m 316.22,252.94 0,-1.08 q 1.24,0.49 1.96,0.49 0.82,0 1.34,-0.48 0.52,-0.49 0.52,-1.25 0,-1.83 -2.56,-1.83 l -0.46,0 0,-0.78 0.41,-0.01 q 2.4,0 2.4,-1.69 0,-1.33 -1.58,-1.33 -0.87,0 -1.91,0.48 l 0,-1 q 1.02,-0.35 1.99,-0.35 2.66,0 2.66,2.01 0,1.53 -1.81,2.18 2.1,0.49 2.1,2.3 0,1.22 -0.81,1.92 -0.81,0.7 -2.22,0.7 -0.81,0 -2.03,-0.28 z m 10.13,0.28 q -1.34,0 -2.17,-1.27 -0.83,-1.26 -0.83,-3.29 0,-2.05 0.83,-3.3 0.84,-1.25 2.2,-1.25 1.37,0 2.2,1.25 0.84,1.25 0.84,3.28 0,2.09 -0.84,3.33 -0.83,1.25 -2.23,1.25 z m 0.01,-0.87 q 1.84,0 1.84,-3.73 0,-3.64 -1.82,-3.64 -1.8,0 -1.8,3.68 0,3.69 1.78,3.69 z m 7.58,0.87 q -1.34,0 -2.17,-1.27 -0.83,-1.26 -0.83,-3.29 0,-2.05 0.83,-3.3 0.84,-1.25 2.2,-1.25 1.37,0 2.2,1.25 0.84,1.25 0.84,3.28 0,2.09 -0.84,3.33 -0.83,1.25 -2.23,1.25 z m 0.01,-0.87 q 1.83,0 1.83,-3.73 0,-3.64 -1.81,-3.64 -1.8,0 -1.8,3.68 0,3.69 1.78,3.69 z" id="path105" />
      </g>
    </g>
    <clipPath id="clip12">
      <path d="m 0,0 0,469 580,0 0,-469 z" id="path108" />
    </clipPath>
    <g clip-path="url(#clip12)" id="g110">
      <g id="g112" style="fill:none;stroke:#000000;stroke-width:2;stroke-linecap:butt;stroke-opacity:1">
        <path d="m 323.64,237.03 0,3" id="path114" />
      </g>
    </g>
    <clipPath id="clip13">
      <path d="m 0,0 0,469 580,0 0,-469 z" id="path117" />
    </clipPath>
    <g clip-path="url(#clip13)" id="g119">
      <g id="g121" style="fill:#000000;fill-opacity:1;fill-rule:nonzero;stroke:none">
        <path d="m 414.52,253 0,-2.46 -3.9,0 0,-0.87 3.9,-5.34 1.08,0 0,5.27 1.16,0 0,0.94 -1.16,0 0,2.46 z m -2.77,-3.4 2.84,0 0,-3.85 z m 9.6,3.62 q -1.34,0 -2.17,-1.27 -0.83,-1.26 -0.83,-3.29 0,-2.05 0.83,-3.3 0.84,-1.25 2.2,-1.25 1.37,0 2.2,1.25 0.84,1.25 0.84,3.28 0,2.09 -0.84,3.33 -0.83,1.25 -2.23,1.25 z m 0.01,-0.87 q 1.84,0 1.84,-3.73 0,-3.64 -1.82,-3.64 -1.8,0 -1.8,3.68 0,3.69 1.78,3.69 z m 7.58,0.87 q -1.34,0 -2.17,-1.27 -0.83,-1.26 -0.83,-3.29 0,-2.05 0.83,-3.3 0.84,-1.25 2.2,-1.25 1.37,0 2.2,1.25 0.84,1.25 0.84,3.28 0,2.09 -0.84,3.33 -0.83,1.25 -2.23,1.25 z m 0.01,-0.87 q 1.83,0 1.83,-3.73 0,-3.64 -1.81,-3.64 -1.8,0 -1.8,3.68 0,3.69 1.78,3.69 z" id="path123" />
      </g>
    </g>
    <clipPath id="clip14">
      <path d="m 0,0 0,469 580,0 0,-469 z" id="path126" />
    </clipPath>
    <g clip-path="url(#clip14)" id="g128">
      <g id="g130" style="fill:none;stroke:#000000;stroke-width:2;stroke-linecap:butt;stroke-opacity:1">
        <path d="m 418.46,237.03 0,3" id="path132" />
      </g>
    </g>
    <clipPath id="clip15">
      <path d="m 0,0 0,469 580,0 0,-469 z" id="path135" />
    </clipPath>
    <g clip-path="url(#clip15)" id="g137">
      <g id="g139" style="fill:#000000;fill-opacity:1;fill-rule:nonzero;stroke:none">
        <path d="m 506.46,253.04 0,-1.04 q 0.86,0.35 1.64,0.35 0.86,0 1.34,-0.5 0.49,-0.51 0.49,-1.39 0,-1.95 -2.69,-1.95 -0.3,0 -0.63,0.04 l 0,-4.22 4.38,0 0,1.01 -3.37,0 0,2.28 q 1.67,0 2.61,0.77 0.93,0.77 0.93,2.13 0,1.26 -0.85,1.98 -0.85,0.72 -2.36,0.72 -0.66,0 -1.49,-0.18 z m 9.89,0.18 q -1.34,0 -2.17,-1.27 -0.83,-1.26 -0.83,-3.29 0,-2.05 0.83,-3.3 0.84,-1.25 2.2,-1.25 1.37,0 2.2,1.25 0.84,1.25 0.84,3.28 0,2.09 -0.84,3.33 -0.83,1.25 -2.23,1.25 z m 0.01,-0.87 q 1.84,0 1.84,-3.73 0,-3.64 -1.82,-3.64 -1.8,0 -1.8,3.68 0,3.69 1.78,3.69 z m 7.58,0.87 q -1.34,0 -2.17,-1.27 -0.83,-1.26 -0.83,-3.29 0,-2.05 0.83,-3.3 0.84,-1.25 2.2,-1.25 1.37,0 2.2,1.25 0.84,1.25 0.84,3.28 0,2.09 -0.84,3.33 -0.83,1.25 -2.23,1.25 z m 0.01,-0.87 q 1.83,0 1.83,-3.73 0,-3.64 -1.81,-3.64 -1.8,0 -1.8,3.68 0,3.69 1.78,3.69 z" id="path141" />
      </g>
    </g>
    <clipPath id="clip16">
      <path d="m 0,0 0,469 580,0 0,-469 z" id="path144" />
    </clipPath>
    <g clip-path="url(#clip16)" id="g146">
      <g id="g148" style="fill:none;stroke:#000000;stroke-width:2;stroke-linecap:butt;stroke-opacity:1">
        <path d="m 513.28,237.03 0,3" id="path150" />
      </g>
    </g>
    <clipPath id="clip17">
      <path d="m 0,0 0,469 580,0 0,-469 z" id="path153" />
    </clipPath>
    <g clip-path="url(#clip17)" id="g155">
      <g id="g157" style="fill:none;stroke:#000000;stroke-width:2;stroke-linecap:butt;stroke-opacity:1">
        <path d="m 36.182,465.75 3,0" id="path159" />
      </g>
    </g>
    <clipPath id="clip18">
      <path d="m 0,0 0,469 580,0 0,-469 z" id="path162" />
    </clipPath>
    <g clip-path="url(#clip18)" id="g164">
      <g id="g166" style="fill:#000000;fill-opacity:1;fill-rule:nonzero;stroke:none">
        <path d="m 18.615,390.82 0,-0.8 4.77,0 0,0.8 z m 9.903,3.18 0,-2.46 -3.903,0 0,-0.87 3.903,-5.34 1.084,0 0,5.27 1.16,0 0,0.94 -1.16,0 0,2.46 z m -2.772,-3.4 2.848,0 0,-3.85 z" id="path168" />
      </g>
    </g>
    <clipPath id="clip19">
      <path d="m 0,0 0,469 580,0 0,-469 z" id="path171" />
    </clipPath>
    <g clip-path="url(#clip19)" id="g173">
      <g id="g175" style="fill:none;stroke:#000000;stroke-width:2;stroke-linecap:butt;stroke-opacity:1">
        <path d="m 36.182,389.51 3,0" id="path177" />
      </g>
    </g>
    <clipPath id="clip20">
      <path d="m 0,0 0,469 580,0 0,-469 z" id="path180" />
    </clipPath>
    <g clip-path="url(#clip20)" id="g182">
      <g id="g184" style="fill:#000000;fill-opacity:1;fill-rule:nonzero;stroke:none">
        <path d="m 18.615,314.82 0,-0.8 4.77,0 0,0.8 z m 6.381,3.18 0,-1.01 q 0.504,-1.18 2.039,-2.57 l 0.662,-0.59 q 1.278,-1.16 1.278,-2.29 0,-0.73 -0.437,-1.15 -0.436,-0.41 -1.198,-0.41 -0.902,0 -2.127,0.7 l 0,-1.02 q 1.154,-0.55 2.291,-0.55 1.219,0 1.957,0.66 0.738,0.65 0.738,1.74 0,0.78 -0.372,1.38 -0.372,0.6 -1.386,1.47 l -0.445,0.38 q -1.389,1.17 -1.605,2.25 l 3.767,0 0,1.01 z" id="path186" />
      </g>
    </g>
    <clipPath id="clip21">
      <path d="m 0,0 0,469 580,0 0,-469 z" id="path189" />
    </clipPath>
    <g clip-path="url(#clip21)" id="g191">
      <g id="g193" style="fill:none;stroke:#000000;stroke-width:2;stroke-linecap:butt;stroke-opacity:1">
        <path d="m 36.182,313.27 3,0" id="path195" />
      </g>
    </g>
    <clipPath id="clip22">
      <path d="m 0,0 0,469 580,0 0,-469 z" id="path198" />
    </clipPath>
    <g clip-path="url(#clip22)" id="g200">
      <g id="g202" style="fill:#000000;fill-opacity:1;fill-rule:nonzero;stroke:none">
        <path d="m 27.762,235.22 q -1.342,0 -2.171,-1.27 -0.829,-1.26 -0.829,-3.29 0,-2.05 0.835,-3.3 0.835,-1.25 2.2,-1.25 1.365,0 2.2,1.25 0.835,1.25 0.835,3.28 0,2.09 -0.835,3.33 -0.835,1.25 -2.235,1.25 z m 0.011,-0.87 q 1.834,0 1.834,-3.73 0,-3.64 -1.81,-3.64 -1.805,0 -1.805,3.68 0,3.69 1.781,3.69 z" id="path204" />
      </g>
    </g>
    <clipPath id="clip23">
      <path d="m 0,0 0,469 580,0 0,-469 z" id="path207" />
    </clipPath>
    <g clip-path="url(#clip23)" id="g209">
      <g id="g211" style="fill:#000000;fill-opacity:1;fill-rule:nonzero;stroke:none">
        <path d="m 24.996,165 0,-1.01 q 0.504,-1.18 2.039,-2.57 l 0.662,-0.59 q 1.278,-1.16 1.278,-2.29 0,-0.73 -0.437,-1.15 -0.436,-0.41 -1.198,-0.41 -0.902,0 -2.127,0.7 l 0,-1.02 q 1.154,-0.55 2.291,-0.55 1.219,0 1.957,0.66 0.738,0.65 0.738,1.74 0,0.78 -0.372,1.38 -0.372,0.6 -1.386,1.47 l -0.445,0.38 q -1.389,1.17 -1.605,2.25 l 3.767,0 0,1.01 z" id="path213" />
      </g>
    </g>
    <clipPath id="clip24">
      <path d="m 0,0 0,469 580,0 0,-469 z" id="path216" />
    </clipPath>
    <g clip-path="url(#clip24)" id="g218">
      <g id="g220" style="fill:none;stroke:#000000;stroke-width:2;stroke-linecap:butt;stroke-opacity:1">
        <path d="m 36.182,160.79 3,0" id="path222" />
      </g>
    </g>
    <clipPath id="clip25">
      <path d="m 0,0 0,469 580,0 0,-469 z" id="path225" />
    </clipPath>
    <g clip-path="url(#clip25)" id="g227">
      <g id="g229" style="fill:#000000;fill-opacity:1;fill-rule:nonzero;stroke:none">
        <path d="m 28.518,89 0,-2.455 -3.903,0 0,-0.873 3.903,-5.344 1.084,0 0,5.274 1.16,0 0,0.943 -1.16,0 0,2.455 z m -2.772,-3.398 2.848,0 0,-3.856 z" id="path231" />
      </g>
    </g>
    <clipPath id="clip26">
      <path d="m 0,0 0,469 580,0 0,-469 z" id="path234" />
    </clipPath>
    <g clip-path="url(#clip26)" id="g236">
      <g id="g238" style="fill:none;stroke:#000000;stroke-width:2;stroke-linecap:butt;stroke-opacity:1">
        <path d="m 36.182,84.546 3,0" id="path240" />
      </g>
    </g>
    <g id="misc" />
    <g id="layer0">
      <clipPath id="clip27">
        <path d="m 0,0 0,469 580,0 0,-469 z" id="path245" />
      </clipPath>
      <g clip-path="url(#clip27)" id="g247">
        <g id="g249" style="fill:none;stroke:#006400;stroke-width:2.5;stroke-linecap:round;stroke-linejoin:round;stroke-opacity:1">
          <path d="m 0,251.82 2.2656,-7.93 2.2656,-7.95 2.2657,-7.94 2.2656,-7.93 2.2655,-7.9 2.266,-7.86 2.265,-7.8 2.266,-7.73 2.266,-7.64 2.265,-7.55 2.266,-7.44 2.266,-7.32 2.265,-7.17 2.266,-7.03 2.265,-6.87 2.266,-6.7 2.266,-6.51 2.265,-6.32 2.266,-6.11 2.265,-5.9 2.266,-5.66 2.266,-5.431 2.265,-5.182 2.266,-4.926 4.531,-9.051 4.532,-7.932 4.531,-6.756 4.531,-5.535 4.531,-4.275 4.531,-2.984 2.266,-1.002 2.266,-0.672 2.265,-0.341 2.266,-0.01 2.266,0.321 2.265,0.652 2.266,0.982 2.266,1.31 4.532,3.594 4.53,4.871 4.53,6.115 4.53,7.315 4.53,8.465 4.54,9.556 2.26,5.167 2.27,5.419 2.26,5.65 2.27,5.88 2.26,6.1 2.27,6.3 2.26,6.5 2.27,6.69 2.27,6.86 2.26,7.02 2.27,7.17 2.26,7.31 2.27,7.43 2.26,7.54 2.27,7.64 2.26,7.72 2.27,7.8 2.27,7.85 2.26,7.9 2.27,7.93 2.26,7.94 2.27,7.95 2.26,7.94 2.27,7.91 2.27,7.87 2.26,7.82 2.27,7.76 2.26,7.67 2.27,7.58 2.26,7.48 2.27,7.36 2.27,7.22 2.26,7.08 2.27,6.93 2.26,6.75 2.27,6.58 2.26,6.38 2.27,6.18 2.26,5.97 2.27,5.74 2.27,5.51 2.26,5.27 4.53,9.76 4.53,8.69 4.53,7.54 4.54,6.36 4.53,5.11 4.53,3.85 2.26,1.44 2.27,1.11 2.27,0.78 2.26,0.45 2.27,0.12 2.26,-0.21 2.27,-0.54 2.26,-0.87 4.54,-2.73 2.26,-1.85 2.27,-2.17 4.53,-5.29 4.53,-6.52 4.53,-7.71 4.53,-8.83 4.53,-9.91 2.27,-5.33 2.26,-5.58 2.27,-5.8 2.26,-6.03 2.27,-6.23 2.27,-6.44 2.26,-6.63 2.27,-6.8 2.26,-6.97 2.27,-7.12 2.26,-7.26 2.27,-7.4 2.27,-7.5 2.26,-7.61 2.27,-7.7 2.26,-7.77 2.27,-7.84 2.26,-7.88 2.27,-7.92 2.27,-7.94 2.26,-7.95 2.27,-7.94 2.26,-7.92 2.27,-7.89 2.26,-7.84 2.27,-7.78 2.26,-7.7 2.27,-7.62 2.27,-7.51 2.26,-7.4 2.27,-7.27 2.26,-7.13 2.27,-6.98 2.26,-6.81 2.27,-6.64 2.26,-6.45 2.27,-6.25 2.27,-6.03 2.26,-5.82 2.27,-5.591 2.26,-5.348 2.27,-5.097 4.53,-9.411 4.53,-8.311 4.53,-7.154 4.53,-5.946 4.54,-4.698 4.53,-3.417 2.26,-1.22 2.27,-0.892 2.26,-0.562 2.27,-0.231 2.26,0.101 2.27,0.432 2.27,0.763 2.26,1.091 4.53,3.163 4.53,4.449 4.53,5.704 4.54,6.921 4.53,8.088 4.53,9.2 2.26,4.998 2.27,5.25 2.27,5.498 2.26,5.73 2.27,5.95 2.26,6.17 2.27,6.37 2.26,6.56 2.27,6.75 2.27,6.91 2.26,7.08 2.27,7.21 2.26,7.35 2.27,7.47 2.26,7.58 2.27,7.67 2.26,7.75 2.27,7.82 2.27,7.87 2.26,7.91 2.27,7.93 2.26,7.95 2.27,7.94 2.26,7.93 2.27,7.9 2.26,7.86 2.27,7.8 2.27,7.73 2.26,7.64 2.27,7.55 2.26,7.44 2.27,7.32 2.26,7.17 2.27,7.03 2.27,6.87 2.26,6.7 2.27,6.51 2.26,6.32 2.27,6.11 2.26,5.89 2.27,5.67 2.27,5.43 2.26,5.18 2.27,4.93 4.53,9.05 4.53,7.93 4.53,6.75" id="path251" />
          <title id="title253">Function f</title>
          <desc id="desc255">f(x) = 3cos(x Ã&#131;Â&#143;Ã&#130;Â&#128; / 180) + 4sin(x Ã&#131;Â&#143;Ã&#130;Â&#128; / 180)</desc>
        </g>
      </g>
      <clipPath id="clip28">
        <path d="m 0,0 0,469 580,0 0,-469 z" id="path258" />
      </clipPath>
      <g clip-path="url(#clip28)" id="g260">
        <g id="g262" style="fill:none;stroke:#0000ff;stroke-width:2.5;stroke-linecap:round;stroke-linejoin:round;stroke-opacity:1">
          <path d="m -5,160.79 590,0" id="path264" />
          <title id="title266">Line g</title>
          <desc id="desc268">g: y = 2</desc>
        </g>
      </g>
      <clipPath id="clip29">
        <path d="m 0,0 0,469 580,0 0,-469 z" id="path271" />
      </clipPath>
      <g clip-path="url(#clip29)" id="g273">
        <g id="g275" style="fill:none;stroke:#000000;stroke-linecap:butt;stroke-linejoin:round;stroke-dasharray:9, 8;stroke-opacity:1">
          <path d="m 513.28,474 0,-479" id="path277" />
          <title id="title279">Line h</title>
          <desc id="desc281">h: x = 500</desc>
        </g>
      </g>
      <clipPath id="clip30">
        <path d="m 0,0 0,469 580,0 0,-469 z" id="path284" />
      </clipPath>
      <g clip-path="url(#clip30)" id="g286">
        <g id="g288" style="fill:none;stroke:#000000;stroke-width:1.5;stroke-linecap:butt;stroke-linejoin:round;stroke-dasharray:9.5, 8;stroke-opacity:1">
          <path d="m 152.54,160.79 0,76.24" id="path290" />
          <title id="title292">Segment l</title>
          <desc id="desc294">Segment l: Segment [C, D]</desc>
        </g>
      </g>
      <clipPath id="clip31">
        <path d="m 0,0 0,469 580,0 0,-469 z" id="path297" />
      </clipPath>
      <g clip-path="url(#clip31)" id="g299">
        <g id="g301" style="fill:none;stroke:#000000;stroke-width:1.5;stroke-linecap:butt;stroke-linejoin:round;stroke-dasharray:9.5, 8;stroke-opacity:1">
          <path d="m 367.93,160.79 0,76.24" id="path303" />
          <title id="title305">Segment m</title>
          <desc id="desc307">Segment m: Segment [A, E]</desc>
        </g>
      </g>
      <clipPath id="clip32">
        <path d="m 0,0 0,469 580,0 0,-469 z" id="path310" />
      </clipPath>
      <g clip-path="url(#clip32)" id="g312">
        <g id="g314" style="fill:none;stroke:#000000;stroke-width:1.5;stroke-linecap:butt;stroke-linejoin:round;stroke-dasharray:9.5, 8;stroke-opacity:1">
          <path d="m 493.89,160.79 0,76.24" id="path316" />
          <title id="title318">Segment n</title>
          <desc id="desc320">Segment n: Segment [B, F]</desc>
        </g>
      </g>
    </g>
    <g id="content" transform="matrix(2,0,0,-2,-428.45649,967.56407)" xml:space="preserve" stroke-miterlimit="10.433" font-style="normal" font-variant="normal" font-weight="normal" font-stretch="normal" font-size-adjust="none" letter-spacing="normal" word-spacing="normal" ns0:text="$y$" ns0:preamble="/Users/prmb/CMEP/underground-inkscape-preamble.tex" style="font-style:normal;font-variant:normal;font-weight:normal;font-stretch:normal;letter-spacing:normal;word-spacing:normal;text-anchor:start;fill:none;fill-opacity:1;fill-rule:evenodd;stroke:#000000;stroke-linecap:butt;stroke-linejoin:miter;stroke-miterlimit:10.43299961;stroke-dasharray:none;stroke-dashoffset:0;stroke-opacity:1"><path d="m 226.62,480.86 -0.01,0.08 -0.01,0.08 -0.01,0.07 -0.01,0.07 -0.01,0.07 -0.01,0.07 -0.01,0.06 -0.01,0.06 -0.01,0.06 -0.01,0.05 -0.01,0.06 -0.01,0.05 -0.01,0.05 -0.01,0.04 -0.02,0.05 -0.01,0.05 -0.01,0.04 -0.02,0.04 -0.01,0.04 -0.01,0.04 -0.04,0.08 -0.03,0.07 -0.04,0.08 -0.04,0.07 -0.04,0.07 -0.05,0.07 -1.77,-0.3 0.02,-0.18 c 0.11,0.01 0.3,0.04 0.43,0.04 0.66,0 0.76,-0.71 0.82,-1.24 l 0.45,-3.7 c -0.31,-0.48 -0.98,-1.21 -1.18,-1.21 -0.19,0 -0.16,0.37 -0.67,0.37 -0.16,0 -0.47,-0.13 -0.47,-0.49 0,-0.28 0.22,-0.64 0.66,-0.64 0.8,0 1.57,1.15 2.43,2.24 0.5,0.62 2.41,3.46 2.41,4.38 0,0.46 -0.3,0.73 -0.67,0.73 -0.35,0 -0.56,-0.21 -0.56,-0.47 0,-0.45 0.61,-0.57 0.61,-0.82 0,-0.21 -0.09,-0.45 -0.33,-0.88 -0.26,-0.49 -0.67,-1.19 -1.39,-2.18 z" id="path4634" style="fill:#000000;stroke-width:0" /></g>    <g id="g5362" transform="matrix(2,0,0,-2,113.71458,1180.2389)" xml:space="preserve" stroke="black" stroke-linecap="butt" stroke-linejoin="miter" stroke-miterlimit="10.433" stroke-dasharray="none" stroke-dashoffset="0" stroke-opacity="1" fill="none" fill-rule="evenodd" fill-opacity="1" font-style="normal" font-variant="normal" font-weight="normal" font-stretch="normal" font-size-adjust="none" letter-spacing="normal" word-spacing="normal" text-anchor="start" ns0:text="$\\theta$" ns0:preamble="/Users/prmb/CMEP/underground-inkscape-preamble.tex" style="font-style:normal;font-variant:normal;font-weight:normal;font-stretch:normal;letter-spacing:normal;word-spacing:normal;text-anchor:start;fill:none;fill-opacity:1;fill-rule:evenodd;stroke:#000000;stroke-linecap:butt;stroke-linejoin:miter;stroke-miterlimit:10.43299961;stroke-dasharray:none;stroke-dashoffset:0;stroke-opacity:1"><path d="M229.03,482.81 L229.03,482.95 L229.02,483.09 L229.01,483.23 L229,483.36 L228.98,483.48 L228.96,483.6 L228.94,483.72 L228.91,483.83 L228.88,483.94 L228.85,484.04 L228.82,484.14 L228.78,484.23 L228.74,484.32 L228.69,484.4 L228.65,484.48 L228.6,484.55 L228.54,484.62 L228.49,484.69 L228.43,484.75 L228.37,484.8 L228.31,484.85 L228.25,484.9 L228.18,484.94 L228.12,484.98 L228.05,485.01 L227.98,485.04 L227.9,485.07 L227.83,485.09 L227.75,485.1 L227.68,485.11 L227.6,485.12 L227.52,485.12 L227.43,484.78 C227.92,484.78,228.04,484.12,228.04,483.26 C228.04,482.77,227.92,482.12,227.74,481.3 H225.31 C225.62,482.7,226.58,484.78,227.43,484.78 L227.52,485.12 C225.27,485.12,223.9,481.27,223.9,479.22 C223.9,477.8,224.4,477.11,225.52,477.11 L225.58,477.45 C225.07,477.45,224.9,478.11,224.9,478.92 C224.9,479.49,225,480.28,225.19,480.87 H227.63 C227.6,480.77,227.53,480.43,227.45,480.16 C227.08,478.99,226.37,477.45,225.58,477.45 L225.52,477.11 C227.34,477.11,229.03,480.49,229.03,482.81 Z " stroke-width="0" fill="black" id="path5364" /></g>  </g>
</svg>