<?xml version='1.0' ?><svg xmlns:dc="http://purl.org/dc/elements/1.1/" xmlns:cc="http://creativecommons.org/ns#" xmlns:rdf="http://www.w3.org/1999/02/22-rdf-syntax-ns#" xmlns:svg="http://www.w3.org/2000/svg" xmlns="http://www.w3.org/2000/svg" version="1.1" id="svg2" width="366.01009" height="227.59884" viewBox="176.86362 94.842879 366.01009 227.59884" preserveAspectRatio="none">
  <defs id="defs4">
    <marker style="overflow:visible" id="Arrow1Mend" refX="0" refY="0" orient="auto">
      <path transform="matrix(-0.4,0,0,-0.4,-4,0)" style="fill-rule:evenodd;stroke:#000000;stroke-width:1pt" d="M 0,0 5,-5 -12.5,0 5,5 0,0 z" id="path4148" />
    </marker>
  </defs>
  <metadata id="metadata7">
    <rdf:RDF>
      <cc:Work rdf:about="">
        <dc:format>image/svg+xml</dc:format>
        <dc:type rdf:resource="http://purl.org/dc/dcmitype/StillImage" />
        <dc:title />
      </cc:Work>
    </rdf:RDF>
  </metadata>
  <g transform="translate(-35.467018,599.9286)" id="layer1">
    <path id="path3242" title="y=4/5" d="" style="fill:none;stroke:#ff0000;stroke-width:2;stroke-linecap:round;stroke-linejoin:round;stroke-miterlimit:4;stroke-opacity:1;stroke-dasharray:none;stroke-dashoffset:0" />
    <path id="path5358" d="m 312.23326,-389.06166 0,63.29915 183.0868,-63.59963 z" style="fill:#0000ff;stroke:none;fill-opacity:0.58823532;stroke-opacity:1.0" />
    <path id="path5356" d="m 312.1331,-412.49838 0,23.48679 183.18696,0 0,-86.68608 z" style="fill:#7fff2a;stroke:none;fill-opacity:0.84829724;stroke-opacity:1.0" />
    <path style="fill:none;stroke:#000000;stroke-width:1.68263578;stroke-linecap:butt;stroke-linejoin:miter;stroke-miterlimit:4;stroke-dasharray:none;stroke-opacity:1;marker-end:url(#Arrow1Mend)" d="m 245.72908,-277.48688 0,-222.74893" id="path3042" />
    <path id="path3183" d="m 212.89919,-291.22152 c 121.62433,-42.27578 243.24866,-84.55157 364.87299,-126.82735" style="fill:none;stroke:#000000;stroke-width:1.12175715;stroke-linecap:round;stroke-linejoin:round;stroke-miterlimit:4;stroke-dasharray:none;stroke-dashoffset:0;stroke-opacity:1" />
    <path id="path3365" d="m 312.28018,-389.35018 0,63.47819" style="fill:#00aad4;stroke:#0000ff;stroke-width:1.12175715;stroke-linecap:butt;stroke-linejoin:miter;stroke-miterlimit:4;stroke-dasharray:none;stroke-opacity:1" />
    <g transform="matrix(1.1845681,0,0,1.1845681,406.02387,-500.29438)" id="g4959">
      <g style="font-style:normal;font-variant:normal;font-weight:normal;font-stretch:normal;letter-spacing:normal;word-spacing:normal;text-anchor:start;fill:none;stroke:#000000;stroke-linecap:butt;stroke-linejoin:miter;stroke-miterlimit:10.43299961;stroke-dasharray:none;stroke-dashoffset:0;stroke-opacity:1" word-spacing="normal" letter-spacing="normal" font-size-adjust="none" font-stretch="normal" font-weight="normal" font-variant="normal" font-style="normal" stroke-miterlimit="10.433" xml:space="preserve" transform="matrix(1.0629921,0,0,-1.0629921,-186.02362,789.27165)" id="content"><path style="fill:#000000;stroke-width:0" id="path4962" d="m 305.99,648.62 -0.24,0.65 c -0.14,0.37 -0.36,0.85 -0.89,1.14 l -1.53,-0.39 0.05,-0.21 c 0.12,0.05 0.3,0.07 0.44,0.07 0.64,0 0.95,-0.47 1.14,-1.04 l 0.37,-1.06 -0.73,-1.17 c -0.38,-0.58 -0.69,-0.69 -0.83,-0.69 -0.28,0 -0.23,0.24 -0.53,0.24 -0.3,0 -0.45,-0.25 -0.45,-0.44 0,-0.25 0.18,-0.55 0.6,-0.55 0.66,0 0.99,0.5 1.36,1.08 l 0.74,1.14 0.45,-1.31 c 0.16,-0.42 0.38,-0.91 0.86,-0.91 0.67,0 1.19,1.13 1.33,1.3 l -0.16,0.11 c -0.25,-0.5 -0.53,-0.66 -0.72,-0.66 -0.51,0 -0.78,1.56 -1.12,2.28 l 0.64,1 c 0.16,0.25 0.28,0.44 0.62,0.44 0.21,0 0.27,-0.11 0.52,-0.11 0.3,0 0.45,0.27 0.45,0.49 0,0.25 -0.2,0.39 -0.56,0.39 -0.58,0 -1,-0.52 -1.3,-0.99 l -0.53,-0.8 z" /></g>    </g>
    <g transform="matrix(1.1845681,0,0,1.1845681,74.939558,-618.73433)" id="g4996">
      <g style="font-style:normal;font-variant:normal;font-weight:normal;font-stretch:normal;letter-spacing:normal;word-spacing:normal;text-anchor:start;fill:none;stroke:#000000;stroke-linecap:butt;stroke-linejoin:miter;stroke-miterlimit:10.43299961;stroke-dasharray:none;stroke-dashoffset:0;stroke-opacity:1" id="g4998" transform="matrix(1.0629921,0,0,-1.0629921,-186.02362,789.27165)" xml:space="preserve" stroke-miterlimit="10.433" font-style="normal" font-variant="normal" font-weight="normal" font-stretch="normal" font-size-adjust="none" letter-spacing="normal" word-spacing="normal"><path style="fill:#000000;stroke-width:0" d="m 305.89,648.84 -0.01,0.08 -0.01,0.08 -0.01,0.07 -0.01,0.07 -0.01,0.07 -0.01,0.06 -0.01,0.07 -0.01,0.06 -0.01,0.05 -0.01,0.06 -0.01,0.05 -0.01,0.05 -0.01,0.05 -0.01,0.05 -0.01,0.04 -0.02,0.05 -0.01,0.04 -0.01,0.04 -0.02,0.04 -0.01,0.04 -0.03,0.08 -0.04,0.07 -0.04,0.07 -0.04,0.07 -0.04,0.07 -0.03,0.04 -0.02,0.03 -1.75,-0.3 0.04,-0.17 c 0.1,0 0.28,0.05 0.41,0.05 0.66,0 0.76,-0.7 0.81,-1.22 l 0.44,-3.66 c -0.3,-0.47 -0.95,-1.18 -1.16,-1.18 -0.17,0 -0.15,0.36 -0.65,0.36 -0.16,0 -0.47,-0.13 -0.47,-0.47 0,-0.28 0.22,-0.64 0.65,-0.64 0.79,0 1.55,1.14 2.39,2.2 0.49,0.62 2.38,3.41 2.38,4.31 0,0.45 -0.3,0.72 -0.67,0.72 -0.33,0 -0.55,-0.2 -0.55,-0.47 0,-0.44 0.61,-0.54 0.61,-0.8 0,-0.2 -0.09,-0.43 -0.33,-0.87 -0.25,-0.47 -0.65,-1.17 -1.37,-2.13 z" id="path5000" /></g>    </g>
    <g transform="matrix(1.1845681,0,0,1.1845681,342.3215,-616.05561)" id="g5040">
      <g style="font-style:normal;font-variant:normal;font-weight:normal;font-stretch:normal;letter-spacing:normal;word-spacing:normal;text-anchor:start;fill:none;stroke:#000000;stroke-linecap:butt;stroke-linejoin:miter;stroke-miterlimit:10.43299961;stroke-dasharray:none;stroke-dashoffset:0;stroke-opacity:1" word-spacing="normal" letter-spacing="normal" font-size-adjust="none" font-stretch="normal" font-weight="normal" font-variant="normal" font-style="normal" stroke-miterlimit="10.433" xml:space="preserve" transform="matrix(1.0629921,0,0,-1.0629921,-186.02362,789.27165)" id="g5042"><path style="fill:#000000;stroke-width:0" id="path5044" d="m 288.21,648.84 -0.01,0.08 -0.01,0.08 -0.01,0.07 -0.01,0.07 -0.01,0.07 -0.01,0.06 -0.01,0.07 -0.01,0.06 -0.01,0.05 -0.01,0.06 -0.01,0.05 -0.01,0.05 -0.01,0.05 -0.01,0.05 -0.01,0.04 -0.02,0.05 -0.01,0.04 -0.01,0.04 -0.02,0.04 -0.01,0.04 -0.03,0.08 -0.04,0.07 -0.04,0.07 -0.04,0.07 -0.04,0.07 -0.03,0.04 -0.02,0.03 -1.75,-0.3 0.04,-0.17 c 0.1,0 0.28,0.05 0.41,0.05 0.66,0 0.76,-0.7 0.81,-1.22 l 0.44,-3.66 c -0.3,-0.47 -0.95,-1.18 -1.16,-1.18 -0.17,0 -0.15,0.36 -0.65,0.36 -0.16,0 -0.47,-0.13 -0.47,-0.47 0,-0.28 0.22,-0.64 0.65,-0.64 0.79,0 1.55,1.14 2.39,2.2 0.49,0.62 2.38,3.41 2.38,4.31 0,0.45 -0.3,0.72 -0.67,0.72 -0.33,0 -0.55,-0.2 -0.55,-0.47 0,-0.44 0.61,-0.54 0.61,-0.8 0,-0.2 -0.09,-0.43 -0.33,-0.87 -0.25,-0.47 -0.65,-1.17 -1.37,-2.13 z" /><polygon style="fill:#000000;stroke-width:0" id="polygon5046" points="294.14,649.77 294.14,649 300.99,649 300.99,649 300.99,649.77 " /><polygon style="fill:#000000;stroke-width:0" id="polygon5048" points="294.14,647.44 294.14,646.67 300.99,646.67 300.99,646.67 300.99,647.44 " /><path style="fill:#000000;stroke-width:0" id="path5050" d="m 307.15,650.36 -0.09,-0.44 0.89,0 -1.02,-3.98 c -0.17,-0.66 -0.51,-2.49 -1.28,-2.49 -0.09,0 -0.17,0.03 -0.17,0.1 0,0.14 0.19,0.15 0.19,0.37 0,0.17 -0.11,0.39 -0.42,0.39 -0.35,0 -0.5,-0.29 -0.5,-0.58 0,-0.34 0.28,-0.62 0.82,-0.62 1.04,0 1.66,1.11 2.04,2.06 0.17,0.44 0.26,0.88 0.35,1.19 l 0.91,3.56 0.88,0 0.15,0.44 -0.94,0 0.22,0.81 c 0.25,0.91 0.71,1.53 1.28,1.53 0.15,0 0.18,-0.03 0.18,-0.09 0,-0.09 -0.1,-0.27 -0.1,-0.42 0,-0.17 0.08,-0.3 0.41,-0.3 0.23,0 0.47,0.14 0.47,0.47 0,0.41 -0.33,0.69 -0.92,0.69 -0.88,0 -1.38,-0.5 -1.74,-1.05 -0.5,-0.75 -0.44,-1.64 -1.17,-1.64 l -0.44,0 z" /><path style="fill:#000000;stroke-width:0" id="path5052" d="m 315.62,643.41 -0.15,0.12 -0.14,0.13 -0.13,0.13 -0.13,0.13 -0.12,0.12 -0.11,0.13 -0.11,0.13 -0.1,0.13 -0.1,0.13 -0.09,0.13 -0.08,0.14 -0.08,0.13 -0.07,0.14 -0.06,0.14 -0.07,0.14 -0.05,0.14 -0.05,0.15 -0.05,0.15 -0.04,0.15 -0.04,0.15 -0.04,0.16 -0.03,0.16 -0.03,0.16 -0.02,0.17 -0.02,0.17 -0.02,0.17 -0.01,0.18 -0.01,0.18 -0.01,0.19 0,0.19 -0.01,0.2 0,0.2 c 0,2.23 0.36,3.31 1.97,4.7 l -0.11,0.19 c -1.86,-1.11 -2.86,-2.78 -2.86,-4.94 0,-1.97 1,-3.93 2.83,-4.98 l 0.14,0.19 z" /><path style="fill:#000000;stroke-width:0" id="path5054" d="m 319.49,648.62 -0.24,0.65 c -0.14,0.37 -0.36,0.85 -0.89,1.14 l -1.53,-0.39 0.05,-0.21 c 0.12,0.05 0.3,0.07 0.44,0.07 0.64,0 0.95,-0.47 1.14,-1.04 l 0.37,-1.06 -0.73,-1.17 c -0.38,-0.58 -0.69,-0.69 -0.83,-0.69 -0.28,0 -0.23,0.24 -0.53,0.24 -0.3,0 -0.45,-0.25 -0.45,-0.44 0,-0.25 0.18,-0.55 0.6,-0.55 0.66,0 0.99,0.5 1.36,1.08 l 0.74,1.14 0.45,-1.31 c 0.16,-0.42 0.38,-0.91 0.86,-0.91 0.67,0 1.19,1.13 1.33,1.3 l -0.16,0.11 c -0.25,-0.5 -0.53,-0.66 -0.72,-0.66 -0.51,0 -0.78,1.56 -1.12,2.28 l 0.64,1 c 0.16,0.25 0.28,0.44 0.62,0.44 0.21,0 0.27,-0.11 0.52,-0.11 0.3,0 0.45,0.27 0.45,0.49 0,0.25 -0.2,0.39 -0.56,0.39 -0.58,0 -1,-0.52 -1.3,-0.99 l -0.53,-0.8 z" /><path style="fill:#000000;stroke-width:0" id="path5056" d="m 322.65,652.95 0.15,-0.12 0.15,-0.13 0.14,-0.12 0.13,-0.13 0.12,-0.12 0.11,-0.13 0.11,-0.13 0.11,-0.13 0.09,-0.13 0.09,-0.13 0.08,-0.14 0.08,-0.13 0.07,-0.14 0.07,-0.14 0.06,-0.14 0.05,-0.14 0.05,-0.15 0.05,-0.15 0.04,-0.15 0.04,-0.15 0.03,-0.16 0.03,-0.16 0.03,-0.17 0.02,-0.16 0.02,-0.18 0.01,-0.17 0.02,-0.18 0,-0.18 0.01,-0.19 0.01,-0.19 0,-0.2 0,-0.2 c 0,-2.25 -0.33,-3.34 -1.98,-4.7 l 0.11,-0.19 c 1.84,1.14 2.87,2.78 2.87,4.94 0,1.96 -1.06,3.9 -2.84,4.98 l -0.14,-0.19 z" /></g>    </g>
    <g transform="matrix(1.1845681,0,0,1.1845681,260.79883,-459.82754)" id="g5114">
      <g style="font-style:normal;font-variant:normal;font-weight:normal;font-stretch:normal;letter-spacing:normal;word-spacing:normal;text-anchor:start;fill:none;stroke:#000000;stroke-linecap:butt;stroke-linejoin:miter;stroke-miterlimit:10.43299961;stroke-dasharray:none;stroke-dashoffset:0;stroke-opacity:1" id="g5116" transform="matrix(1.0629921,0,0,-1.0629921,-186.02362,789.27165)" xml:space="preserve" stroke-miterlimit="10.433" font-style="normal" font-variant="normal" font-weight="normal" font-stretch="normal" font-size-adjust="none" letter-spacing="normal" word-spacing="normal"><path style="fill:#000000;stroke-width:0" d="m 278.9,648.84 -0.01,0.08 -0.01,0.08 -0.01,0.07 -0.01,0.07 -0.01,0.07 -0.01,0.06 -0.01,0.07 -0.01,0.06 -0.01,0.05 -0.01,0.06 -0.01,0.05 -0.01,0.05 -0.02,0.05 -0.01,0.05 -0.01,0.04 -0.01,0.05 -0.01,0.04 -0.02,0.04 -0.01,0.04 -0.02,0.04 -0.03,0.08 -0.03,0.07 -0.04,0.07 -0.04,0.07 -0.05,0.07 -0.02,0.04 -0.03,0.03 -1.75,-0.3 0.05,-0.17 c 0.09,0 0.28,0.05 0.4,0.05 0.66,0 0.77,-0.7 0.82,-1.22 l 0.43,-3.66 c -0.29,-0.47 -0.95,-1.18 -1.15,-1.18 -0.18,0 -0.16,0.36 -0.66,0.36 -0.16,0 -0.47,-0.13 -0.47,-0.47 0,-0.28 0.22,-0.64 0.66,-0.64 0.78,0 1.54,1.14 2.39,2.2 0.48,0.62 2.37,3.41 2.37,4.31 0,0.45 -0.29,0.72 -0.67,0.72 -0.33,0 -0.55,-0.2 -0.55,-0.47 0,-0.44 0.61,-0.54 0.61,-0.8 0,-0.2 -0.09,-0.43 -0.32,-0.87 -0.25,-0.47 -0.66,-1.17 -1.38,-2.13 z" id="path5118" /><polygon style="fill:#000000;stroke-width:0" points="291.67,649.77 284.83,649.77 284.83,649 291.67,649 291.67,649 " id="polygon5120" /><polygon style="fill:#000000;stroke-width:0" points="291.67,647.44 284.83,647.44 284.83,646.67 291.67,646.67 291.67,646.67 " id="polygon5122" /><path style="fill:#000000;stroke-width:0" d="m 297.84,650.36 -0.1,-0.44 0.89,0 -1.01,-3.98 c -0.17,-0.66 -0.52,-2.49 -1.28,-2.49 -0.1,0 -0.18,0.03 -0.18,0.1 0,0.14 0.19,0.15 0.19,0.37 0,0.17 -0.11,0.39 -0.42,0.39 -0.34,0 -0.5,-0.29 -0.5,-0.58 0,-0.34 0.28,-0.62 0.83,-0.62 1.03,0 1.65,1.11 2.03,2.06 0.17,0.44 0.26,0.88 0.36,1.19 l 0.9,3.56 0.88,0 0.16,0.44 -0.94,0 0.22,0.81 c 0.25,0.91 0.7,1.53 1.28,1.53 0.14,0 0.17,-0.03 0.17,-0.09 0,-0.09 -0.09,-0.27 -0.09,-0.42 0,-0.17 0.07,-0.3 0.4,-0.3 0.24,0 0.47,0.14 0.47,0.47 0,0.41 -0.33,0.69 -0.92,0.69 -0.88,0 -1.38,-0.5 -1.73,-1.05 -0.5,-0.75 -0.44,-1.64 -1.18,-1.64 l -0.43,0 z" id="path5124" /><path style="fill:#000000;stroke-width:0" d="m 306.3,643.41 -0.14,0.12 -0.14,0.13 -0.14,0.13 -0.13,0.13 -0.12,0.12 -0.11,0.13 -0.11,0.13 -0.1,0.13 -0.09,0.13 -0.09,0.13 -0.08,0.14 -0.08,0.13 -0.07,0.14 -0.07,0.14 -0.06,0.14 -0.06,0.14 -0.05,0.15 -0.05,0.15 -0.04,0.15 -0.04,0.15 -0.03,0.16 -0.03,0.16 -0.03,0.16 -0.02,0.17 -0.02,0.17 -0.02,0.17 -0.02,0.18 -0.01,0.18 0,0.19 -0.01,0.19 0,0.2 0,0.2 c 0,2.23 0.36,3.31 1.96,4.7 l -0.1,0.19 c -1.86,-1.11 -2.86,-2.78 -2.86,-4.94 0,-1.97 1,-3.93 2.82,-4.98 l 0.14,0.19 z" id="path5126" /><path style="fill:#000000;stroke-width:0" d="m 310.17,648.62 -0.23,0.65 c -0.14,0.37 -0.36,0.85 -0.89,1.14 l -1.53,-0.39 0.04,-0.21 c 0.13,0.05 0.3,0.07 0.44,0.07 0.64,0 0.95,-0.47 1.14,-1.04 l 0.38,-1.06 -0.74,-1.17 c -0.37,-0.58 -0.69,-0.69 -0.83,-0.69 -0.28,0 -0.23,0.24 -0.53,0.24 -0.3,0 -0.45,-0.25 -0.45,-0.44 0,-0.25 0.19,-0.55 0.61,-0.55 0.65,0 0.98,0.5 1.36,1.08 l 0.73,1.14 0.45,-1.31 c 0.16,-0.42 0.38,-0.91 0.86,-0.91 0.68,0 1.19,1.13 1.33,1.3 l -0.15,0.11 c -0.25,-0.5 -0.54,-0.66 -0.72,-0.66 -0.52,0 -0.78,1.56 -1.13,2.28 l 0.64,1 c 0.16,0.25 0.28,0.44 0.63,0.44 0.2,0 0.26,-0.11 0.51,-0.11 0.3,0 0.46,0.27 0.46,0.49 0,0.25 -0.21,0.39 -0.57,0.39 -0.57,0 -1,-0.52 -1.29,-0.99 l -0.53,-0.8 z" id="path5128" /><path style="fill:#000000;stroke-width:0" d="m 313.34,652.95 0.15,-0.12 0.14,-0.13 0.14,-0.12 0.13,-0.13 0.12,-0.12 0.12,-0.13 0.11,-0.13 0.1,-0.13 0.09,-0.13 0.09,-0.13 0.09,-0.14 0.07,-0.13 0.08,-0.14 0.06,-0.14 0.06,-0.14 0.06,-0.14 0.05,-0.15 0.04,-0.15 0.05,-0.15 0.03,-0.15 0.04,-0.16 0.03,-0.16 0.02,-0.17 0.02,-0.16 0.02,-0.18 0.02,-0.17 0.01,-0.18 0.01,-0.18 0.01,-0.19 0,-0.19 0,-0.2 0,-0.2 c 0,-2.25 -0.32,-3.34 -1.98,-4.7 l 0.11,-0.19 c 1.84,1.14 2.87,2.78 2.87,4.94 0,1.96 -1.06,3.9 -2.84,4.98 l -0.14,-0.19 z" id="path5130" /><polygon style="fill:#000000;stroke-width:0" points="326.27,648.61 319.8,648.61 319.8,647.84 326.27,647.84 326.27,647.84 " id="polygon5132" /><path style="fill:#000000;stroke-width:0" d="m 335.32,650.25 -2.25,0 -0.05,-0.14 0.13,0 c 0.12,0 0.31,-0.08 0.31,-0.22 0,-0.16 -0.12,-0.3 -0.25,-0.42 l -1.94,-1.72 1.32,5.3 -1.85,-0.3 0.05,-0.16 c 0.09,0.02 0.2,0.02 0.31,0.02 0.25,0 0.38,-0.13 0.38,-0.25 0,-0.09 -0.02,-0.17 -0.05,-0.24 l -1.72,-6.84 0.88,0 0.53,1.92 0.65,0.58 0.74,-1.7 c 0.12,-0.31 0.37,-0.92 0.9,-0.92 0.79,0 1.33,1.23 1.47,1.48 l -0.17,0.13 c -0.25,-0.35 -0.51,-0.85 -0.86,-0.85 -0.3,0 -0.44,0.28 -0.61,0.69 l -0.75,1.77 1.24,1.06 c 0.43,0.39 0.76,0.59 1.53,0.65 l 0.06,0.16 z" id="path5134" /></g>    </g>
    <g transform="matrix(1.1845681,0,0,1.1845681,143.28358,-498.14543)" id="g5214">
      <g style="font-style:normal;font-variant:normal;font-weight:normal;font-stretch:normal;letter-spacing:normal;word-spacing:normal;text-anchor:start;fill:none;stroke:#000000;stroke-linecap:butt;stroke-linejoin:miter;stroke-miterlimit:10.43299961;stroke-dasharray:none;stroke-dashoffset:0;stroke-opacity:1" word-spacing="normal" letter-spacing="normal" font-size-adjust="none" font-stretch="normal" font-weight="normal" font-variant="normal" font-style="normal" stroke-miterlimit="10.433" xml:space="preserve" transform="matrix(1.0629921,0,0,-1.0629921,-186.02362,789.27165)" id="g5216"><path style="fill:#000000;stroke-width:0" id="path5218" d="m 308.23,646.88 -0.16,0.06 c -0.39,-0.64 -0.62,-0.78 -1.11,-0.78 l -2.71,0 1.9,2.04 c 1.03,1.1 1.49,1.97 1.49,2.89 0,1.14 -0.83,2.05 -2.14,2.05 -1.44,0 -2.18,-0.95 -2.43,-2.31 l 0.24,-0.06 c 0.48,1.14 0.89,1.5 1.72,1.5 0.98,0 1.62,-0.58 1.62,-1.63 0,-1 -0.42,-1.87 -1.51,-3.03 l -2.07,-2.19 0,-0.14 4.52,0 0.64,1.6 z" /></g>    </g>
    <g transform="matrix(1.1845681,0,0,1.1845681,330.83941,-498.24617)" id="g5304">
      <g style="font-style:normal;font-variant:normal;font-weight:normal;font-stretch:normal;letter-spacing:normal;word-spacing:normal;text-anchor:start;fill:none;stroke:#000000;stroke-linecap:butt;stroke-linejoin:miter;stroke-miterlimit:10.43299961;stroke-dasharray:none;stroke-dashoffset:0;stroke-opacity:1" id="g5306" transform="matrix(1.0629921,0,0,-1.0629921,-186.02362,789.27165)" xml:space="preserve" stroke-miterlimit="10.433" font-style="normal" font-variant="normal" font-weight="normal" font-stretch="normal" font-size-adjust="none" letter-spacing="normal" word-spacing="normal"><path style="fill:#000000;stroke-width:0" d="m 307.9,647.08 0,0.09 0,0.08 -0.01,0.08 -0.01,0.09 -0.01,0.08 -0.01,0.08 -0.02,0.08 -0.02,0.07 -0.02,0.08 -0.03,0.08 -0.03,0.07 -0.03,0.08 -0.04,0.07 -0.04,0.07 -0.04,0.08 -0.05,0.07 -0.06,0.07 -0.05,0.08 -0.07,0.07 -0.06,0.08 -0.07,0.07 -0.08,0.08 -0.08,0.07 -0.08,0.08 -0.1,0.08 -0.09,0.08 -0.1,0.08 -0.11,0.08 -0.11,0.08 -0.12,0.09 -0.12,0.09 -0.13,0.08 c 1.14,0.61 1.54,1 1.54,1.88 0,0.91 -0.79,1.67 -1.95,1.67 l -0.11,-0.33 c 0.78,0 1.27,-0.54 1.27,-1.34 l 0,0 c 0,-0.72 -0.3,-1.2 -1.1,-1.67 -1.01,0.61 -1.45,1.14 -1.45,1.86 0,0.72 0.5,1.15 1.28,1.15 l 0.11,0.33 c -1.28,0 -2.25,-0.7 -2.25,-1.81 0,-0.77 0.25,-1.21 1.44,-2.19 -1.24,-0.87 -1.5,-1.33 -1.5,-2.12 0,-1.1 0.9,-1.9 2.22,-1.9 l 0.14,0.32 c -0.89,0 -1.49,0.61 -1.49,1.67 0,0.77 0.25,1.23 0.94,1.8 l 0.67,-0.47 c 0.8,-0.53 1.14,-1 1.14,-1.72 0,-0.75 -0.51,-1.28 -1.26,-1.28 l -0.14,-0.32 c 1.4,0 2.29,0.77 2.29,1.96 z" id="path5308" /></g>    </g>
    <path style="fill:#00d400;stroke:#55d400;stroke-width:1.12175715;stroke-linecap:butt;stroke-linejoin:miter;stroke-miterlimit:4;stroke-dasharray:none;stroke-opacity:1" d="m 495.34584,-475.47195 0,85.68643" id="path5354" />
    <path id="path5360" d="m 312.28018,-412.1704 0,22.77826" style="fill:none;stroke:#55d400;stroke-width:1.12736595;stroke-linecap:butt;stroke-linejoin:miter;stroke-miterlimit:4;stroke-dasharray:none;stroke-opacity:1" />
    <path id="path3149" d="m 212.89919,-377.69471 c 121.62433,-42.27579 243.24866,-84.55157 364.87299,-126.82735" style="fill:none;stroke:#000000;stroke-width:1.12199998;stroke-linecap:round;stroke-linejoin:round;stroke-miterlimit:4;stroke-dasharray:none;stroke-dashoffset:0;stroke-opacity:1" />
    <path style="fill:none;stroke:#000000;stroke-width:1.68263578;stroke-linecap:butt;stroke-linejoin:miter;stroke-miterlimit:4;stroke-dasharray:none;stroke-opacity:1;marker-end:url(#Arrow1Mend)" d="m 215.68202,-389.21337 359.16262,0" id="path3040" />
  </g>
</svg>