<?xml version='1.0' ?><svg xmlns:ns0="http://www.iki.fi/pav/software/textext/" xmlns:dc="http://purl.org/dc/elements/1.1/" xmlns:cc="http://creativecommons.org/ns#" xmlns:rdf="http://www.w3.org/1999/02/22-rdf-syntax-ns#" xmlns:svg="http://www.w3.org/2000/svg" xmlns="http://www.w3.org/2000/svg" version="1.1" id="svg2" width="250.79076" height="259.19191" viewBox="200.4355000002757 121.35499000016694 250.790760000345 259.19191000035653" preserveAspectRatio="none">
  <defs id="defs4">
    <marker style="overflow:visible;" id="marker6170" refX="0.0" refY="0.0" orient="auto">
      <path transform="scale(0.4) rotate(180) translate(10,0)" style="fill-rule:evenodd;stroke:#000000;stroke-width:1pt;stroke-opacity:1;fill:#000000;fill-opacity:1" d="M 0.0,0.0 L 5.0,-5.0 L -12.5,0.0 L 5.0,5.0 L 0.0,0.0 z " id="path6172" />
    </marker>
    <marker orient="auto" refY="0.0" refX="0.0" id="Arrow1Mend" style="overflow:visible;">
      <path id="path5759" d="M 0.0,0.0 L 5.0,-5.0 L -12.5,0.0 L 5.0,5.0 L 0.0,0.0 z " style="fill-rule:evenodd;stroke:#000000;stroke-width:1pt;stroke-opacity:1;fill:#000000;fill-opacity:1" transform="scale(0.4) rotate(180) translate(10,0)" />
    </marker>
  </defs>
  <metadata id="metadata7">
    <rdf:RDF>
      <cc:Work rdf:about="">
        <dc:format>image/svg+xml</dc:format>
        <dc:type rdf:resource="http://purl.org/dc/dcmitype/StillImage" />
        <dc:title />
      </cc:Work>
    </rdf:RDF>
  </metadata>
  <g id="layer1">
    <path style="fill:none;stroke:#000000;stroke-width:1;stroke-linecap:butt;stroke-linejoin:miter;stroke-miterlimit:10;stroke-dasharray:none;stroke-dashoffset:0;stroke-opacity:1;marker-end:url(#marker6170)" d="m 321.1186,380.5469 0,-257.09003" id="path4655" />
    <path style="fill:none;stroke:#000000;stroke-width:1;stroke-linecap:butt;stroke-linejoin:miter;stroke-miterlimit:10;stroke-dasharray:none;stroke-dashoffset:0;stroke-opacity:1;marker-end:url(#Arrow1Mend)" d="m 200.4355,252.75582 248.88075,0" id="path4682" />
    <path style="fill:#000000;fill-opacity:1;fill-rule:nonzero;stroke:none;stroke-width:1;stroke-linecap:square;stroke-linejoin:miter;stroke-miterlimit:10;stroke-dasharray:none;stroke-dashoffset:0" d="m 211.33335,261.8723 0,-0.56889 3.39201,0 0,0.56889 z m 4.69619,2.21867 0,-0.768 q 0.8832,0.34845 1.39165,0.34845 0.58738,0 0.95645,-0.34134 0.36835,-0.34844 0.36835,-0.88889 0,-1.30134 -1.82045,-1.30134 l -0.32569,0 0,-0.55467 0.288,-0.007 q 1.7081,0 1.7081,-1.20178 0,-0.94578 -1.12498,-0.94578 -0.61654,0 -1.35823,0.34133 l 0,-0.71111 q 0.72889,-0.24889 1.41654,-0.24889 1.89156,0 1.89156,1.42934 0,1.088 -1.28712,1.55023 1.49121,0.34844 1.49121,1.63556 0,0.86756 -0.57458,1.36534 -0.57529,0.49778 -1.57938,0.49778 -0.57103,0 -1.44143,-0.19912 z" id="path4727" />
    <path style="fill:none;stroke:#000000;stroke-width:0.71111351;stroke-linecap:butt;stroke-linejoin:miter;stroke-miterlimit:10;stroke-dasharray:none;stroke-dashoffset:0;stroke-opacity:1" d="m 214.45158,252.75582 0,2.13334" id="path4736" />
    <path style="fill:#000000;fill-opacity:1;fill-rule:nonzero;stroke:none;stroke-width:1;stroke-linecap:square;stroke-linejoin:miter;stroke-miterlimit:10;stroke-dasharray:none;stroke-dashoffset:0" d="m 246.89258,261.8723 0,-0.56889 3.3849,0 0,0.56889 z m 4.5369,2.26134 0,-0.71822 q 0.35556,-0.83912 1.45067,-1.82757 l 0.46934,-0.41955 q 0.90311,-0.8249 0.90311,-1.62845 0,-0.51912 -0.30578,-0.81778 -0.31289,-0.29156 -0.85333,-0.29156 -0.64001,0 -1.51468,0.49778 l 0,-0.72534 q 0.8249,-0.39111 1.62845,-0.39111 0.86756,0 1.39379,0.46934 0.52622,0.46222 0.52622,1.23733 0,0.55467 -0.26311,0.98134 -0.26311,0.42667 -0.98845,1.04534 l -0.31289,0.27022 q -0.98845,0.832 -1.14489,1.60001 l 2.6809,0 0,0.71822 z" id="path4745" />
    <path style="fill:none;stroke:#000000;stroke-width:0.71111351;stroke-linecap:butt;stroke-linejoin:miter;stroke-miterlimit:10;stroke-dasharray:none;stroke-dashoffset:0;stroke-opacity:1" d="m 250.00725,252.75582 0,2.13334" id="path4754" />
    <path style="fill:#000000;fill-opacity:1;fill-rule:nonzero;stroke:none;stroke-width:1;stroke-linecap:square;stroke-linejoin:miter;stroke-miterlimit:10;stroke-dasharray:none;stroke-dashoffset:0" d="m 282.44825,261.8723 0,-0.56889 3.3849,0 0,0.56889 z m 5.1058,2.26134 0,-0.61867 1.23733,0 0,-4.86402 -1.23733,0.30578 0,-0.63289 2.06223,-0.512 0,5.70313 1.23022,0 0,0.61867 z" id="path4763" />
    <path style="fill:none;stroke:#000000;stroke-width:0.71111351;stroke-linecap:butt;stroke-linejoin:miter;stroke-miterlimit:10;stroke-dasharray:none;stroke-dashoffset:0;stroke-opacity:1" d="m 285.56293,252.75582 0,2.13334" id="path4772" />
    <path style="fill:#000000;fill-opacity:1;fill-rule:nonzero;stroke:none;stroke-width:1;stroke-linecap:square;stroke-linejoin:miter;stroke-miterlimit:10;stroke-dasharray:none;stroke-dashoffset:0" d="m 328.05907,264.29009 q -0.95289,0 -1.54311,-0.90312 -0.59023,-0.896 -0.59023,-2.33956 0,-1.45779 0.59734,-2.34668 0.59022,-0.88889 1.56445,-0.88889 0.96711,0 1.56445,0.88889 0.59022,0.88889 0.59022,2.33246 0,1.48622 -0.59022,2.368 -0.59734,0.8889 -1.5929,0.8889 z m 0.007,-0.61867 q 1.30845,0 1.30845,-2.65246 0,-2.58845 -1.28711,-2.58845 -1.28712,0 -1.28712,2.6169 0,2.62401 1.26578,2.62401 z" id="path4781" />
    <path style="fill:#000000;fill-opacity:1;fill-rule:nonzero;stroke:none;stroke-width:1;stroke-linecap:square;stroke-linejoin:miter;stroke-miterlimit:10;stroke-dasharray:none;stroke-dashoffset:0" d="m 356.53206,264.13364 0,-0.61867 1.23734,0 0,-4.86402 -1.23734,0.30578 0,-0.63289 2.06223,-0.512 0,5.70313 1.23022,0 0,0.61867 z" id="path4790" />
    <path style="fill:none;stroke:#000000;stroke-width:0.71111351;stroke-linecap:butt;stroke-linejoin:miter;stroke-miterlimit:10;stroke-dasharray:none;stroke-dashoffset:0;stroke-opacity:1" d="m 356.67428,252.75582 0,2.13334" id="path4799" />
    <path style="fill:#000000;fill-opacity:1;fill-rule:nonzero;stroke:none;stroke-width:1;stroke-linecap:square;stroke-linejoin:miter;stroke-miterlimit:10;stroke-dasharray:none;stroke-dashoffset:0" d="m 391.51884,264.13364 0,-0.71822 q 0.35556,-0.83912 1.45067,-1.82757 l 0.46934,-0.41955 q 0.90311,-0.8249 0.90311,-1.62845 0,-0.51912 -0.30578,-0.81778 -0.31289,-0.29156 -0.85333,-0.29156 -0.64,0 -1.51467,0.49778 l 0,-0.72534 q 0.82489,-0.39111 1.62845,-0.39111 0.86755,0 1.39378,0.46934 0.52622,0.46222 0.52622,1.23733 0,0.55467 -0.26311,0.98134 -0.26311,0.42667 -0.98845,1.04534 l -0.31289,0.27022 q -0.98844,0.832 -1.14489,1.60001 l 2.6809,0 0,0.71822 z" id="path4808" />
    <path style="fill:none;stroke:#000000;stroke-width:0.71111351;stroke-linecap:butt;stroke-linejoin:miter;stroke-miterlimit:10;stroke-dasharray:none;stroke-dashoffset:0;stroke-opacity:1" d="m 392.22996,252.75582 0,2.13334" id="path4817" />
    <path style="fill:#000000;fill-opacity:1;fill-rule:nonzero;stroke:none;stroke-width:1;stroke-linecap:square;stroke-linejoin:miter;stroke-miterlimit:10;stroke-dasharray:none;stroke-dashoffset:0" d="m 427.23096,264.09097 0,-0.768 q 0.88178,0.34845 1.39379,0.34845 0.58311,0 0.95289,-0.34134 0.36978,-0.34844 0.36978,-0.88889 0,-1.30134 -1.82045,-1.30134 l -0.32712,0 0,-0.55467 0.29156,-0.007 q 1.70667,0 1.70667,-1.20178 0,-0.94578 -1.12356,-0.94578 -0.61867,0 -1.35822,0.34133 l 0,-0.71111 q 0.72533,-0.24889 1.41511,-0.24889 1.89156,0 1.89156,1.42934 0,1.088 -1.28711,1.55023 1.49334,0.34844 1.49334,1.63556 0,0.86756 -0.576,1.36534 -0.57601,0.49778 -1.57868,0.49778 -0.576,0 -1.44356,-0.19912 z" id="path4826" />
    <path style="fill:none;stroke:#000000;stroke-width:0.71111351;stroke-linecap:butt;stroke-linejoin:miter;stroke-miterlimit:10;stroke-dasharray:none;stroke-dashoffset:0;stroke-opacity:1" d="m 427.78563,252.75582 0,2.13334" id="path4835" />
    <path style="fill:#000000;fill-opacity:1;fill-rule:nonzero;stroke:none;stroke-width:1;stroke-linecap:square;stroke-linejoin:miter;stroke-miterlimit:10;stroke-dasharray:none;stroke-dashoffset:0" d="m 306.62611,360.71709 0,-0.5689 3.3849,0 0,0.5689 z m 4.69335,2.21867 0,-0.768 q 0.88178,0.34844 1.39378,0.34844 0.58312,0 0.9529,-0.34133 0.36977,-0.34845 0.36977,-0.88889 0,-1.30134 -1.82045,-1.30134 l -0.32711,0 0,-0.55467 0.29156,-0.007 q 1.70667,0 1.70667,-1.20178 0,-0.94578 -1.12356,-0.94578 -0.61867,0 -1.35823,0.34133 l 0,-0.71111 q 0.72534,-0.24889 1.41512,-0.24889 1.89156,0 1.89156,1.42934 0,1.088 -1.28711,1.55022 1.49334,0.34845 1.49334,1.63556 0,0.86756 -0.57601,1.36534 -0.576,0.49778 -1.57867,0.49778 -0.576,0 -1.44356,-0.19911 z" id="path4916" />
    <path style="fill:none;stroke:#000000;stroke-width:0.71111351;stroke-linecap:butt;stroke-linejoin:miter;stroke-miterlimit:10;stroke-dasharray:none;stroke-dashoffset:0;stroke-opacity:1" d="m 318.98526,359.42286 2.13334,0" id="path4925" />
    <path style="fill:#000000;fill-opacity:1;fill-rule:nonzero;stroke:none;stroke-width:1;stroke-linecap:square;stroke-linejoin:miter;stroke-miterlimit:10;stroke-dasharray:none;stroke-dashoffset:0" d="m 306.62611,325.16141 0,-0.56889 3.3849,0 0,0.56889 z m 4.53691,2.26134 0,-0.71823 q 0.35555,-0.83911 1.45067,-1.82756 l 0.46933,-0.41956 q 0.90312,-0.82489 0.90312,-1.62845 0,-0.51911 -0.30578,-0.81778 -0.31289,-0.29155 -0.85334,-0.29155 -0.64,0 -1.51467,0.49778 l 0,-0.72534 q 0.82489,-0.39111 1.62845,-0.39111 0.86756,0 1.39378,0.46933 0.52623,0.46223 0.52623,1.23734 0,0.55467 -0.26312,0.98134 -0.26311,0.42667 -0.98844,1.04533 l -0.31289,0.27023 q -0.98845,0.832 -1.1449,1.6 l 2.6809,0 0,0.71823 z" id="path4934" />
    <path style="fill:none;stroke:#000000;stroke-width:0.71111351;stroke-linecap:butt;stroke-linejoin:miter;stroke-miterlimit:10;stroke-dasharray:none;stroke-dashoffset:0;stroke-opacity:1" d="m 318.98526,323.86718 2.13334,0" id="path4943" />
    <path style="fill:#000000;fill-opacity:1;fill-rule:nonzero;stroke:none;stroke-width:1;stroke-linecap:square;stroke-linejoin:miter;stroke-miterlimit:10;stroke-dasharray:none;stroke-dashoffset:0" d="m 306.62611,289.60573 0,-0.56889 3.3849,0 0,0.56889 z m 5.1058,2.26134 0,-0.61867 1.23733,0 0,-4.86402 -1.23733,0.30578 0,-0.63289 2.06223,-0.512 0,5.70313 1.23022,0 0,0.61867 z" id="path4952" />
    <path style="fill:none;stroke:#000000;stroke-width:0.71111351;stroke-linecap:butt;stroke-linejoin:miter;stroke-miterlimit:10;stroke-dasharray:none;stroke-dashoffset:0;stroke-opacity:1" d="m 318.98526,288.3115 2.13334,0" id="path4961" />
    <path style="fill:#000000;fill-opacity:1;fill-rule:nonzero;stroke:none;stroke-width:1;stroke-linecap:square;stroke-linejoin:miter;stroke-miterlimit:10;stroke-dasharray:none;stroke-dashoffset:0" d="m 313.12569,251.49004 q -0.95289,0 -1.54312,-0.90311 -0.59022,-0.89601 -0.59022,-2.33957 0,-1.45778 0.59733,-2.34667 0.59023,-0.88889 1.56445,-0.88889 0.96712,0 1.56445,0.88889 0.59023,0.88889 0.59023,2.33245 0,1.48623 -0.59023,2.36801 -0.59733,0.88889 -1.59289,0.88889 z m 0.007,-0.61867 q 1.30845,0 1.30845,-2.65245 0,-2.58845 -1.28712,-2.58845 -1.28711,0 -1.28711,2.61689 0,2.62401 1.26578,2.62401 z" id="path4970" />
    <path style="fill:#000000;fill-opacity:1;fill-rule:nonzero;stroke:none;stroke-width:1;stroke-linecap:square;stroke-linejoin:miter;stroke-miterlimit:10;stroke-dasharray:none;stroke-dashoffset:0" d="m 311.73191,220.75571 0,-0.61867 1.23733,0 0,-4.86401 -1.23733,0.30578 0,-0.6329 2.06223,-0.512 0,5.70313 1.23022,0 0,0.61867 z" id="path4979" />
    <path style="fill:none;stroke:#000000;stroke-width:0.71111351;stroke-linecap:butt;stroke-linejoin:miter;stroke-miterlimit:10;stroke-dasharray:none;stroke-dashoffset:0;stroke-opacity:1" d="m 318.98526,217.20014 2.13334,0" id="path4988" />
    <path style="fill:#000000;fill-opacity:1;fill-rule:nonzero;stroke:none;stroke-width:1;stroke-linecap:square;stroke-linejoin:miter;stroke-miterlimit:10;stroke-dasharray:none;stroke-dashoffset:0" d="m 311.16302,185.20003 0,-0.71822 q 0.35555,-0.83911 1.45067,-1.82756 l 0.46933,-0.41956 q 0.90312,-0.82489 0.90312,-1.62845 0,-0.51911 -0.30578,-0.81778 -0.31289,-0.29156 -0.85334,-0.29156 -0.64,0 -1.51467,0.49778 l 0,-0.72533 q 0.82489,-0.39112 1.62845,-0.39112 0.86756,0 1.39378,0.46934 0.52623,0.46222 0.52623,1.23734 0,0.55467 -0.26312,0.98133 -0.26311,0.42667 -0.98844,1.04534 l -0.31289,0.27022 q -0.98845,0.83201 -1.1449,1.60001 l 2.6809,0 0,0.71822 z" id="path4997" />
    <path style="fill:none;stroke:#000000;stroke-width:0.71111351;stroke-linecap:butt;stroke-linejoin:miter;stroke-miterlimit:10;stroke-dasharray:none;stroke-dashoffset:0;stroke-opacity:1" d="m 318.98526,181.64447 2.13334,0" id="path5006" />
    <path style="fill:#000000;fill-opacity:1;fill-rule:nonzero;stroke:none;stroke-width:1;stroke-linecap:square;stroke-linejoin:miter;stroke-miterlimit:10;stroke-dasharray:none;stroke-dashoffset:0" d="m 311.31946,149.59884 0,-0.76729 q 0.88178,0.35058 1.39378,0.35058 0.58312,0 0.9529,-0.34418 0.36977,-0.34347 0.36977,-0.8896 0,-1.29992 -1.82045,-1.29992 l -0.32711,0 0,-0.55395 0.29156,-0.004 q 1.70667,0 1.70667,-1.20392 0,-0.94578 -1.12356,-0.94578 -0.61867,0 -1.35823,0.3456 l 0,-0.7168 q 0.72534,-0.24604 1.41512,-0.24604 1.89156,0 1.89156,1.42934 0,1.08729 -1.28711,1.55022 1.49334,0.3456 1.49334,1.63343 0,0.8704 -0.57601,1.36676 -0.576,0.49565 -1.57867,0.49565 -0.576,0 -1.44356,-0.19983 z" id="path5015" />
    <path style="fill:none;stroke:#000000;stroke-width:0.71111351;stroke-linecap:butt;stroke-linejoin:miter;stroke-miterlimit:10;stroke-dasharray:none;stroke-dashoffset:0;stroke-opacity:1" d="m 318.98526,146.08879 2.13334,0" id="path5024" />
    <g style="font-style:normal;font-variant:normal;font-weight:normal;font-stretch:normal;letter-spacing:normal;word-spacing:normal;text-anchor:start;fill:none;fill-opacity:1;fill-rule:evenodd;stroke:#000000;stroke-linecap:butt;stroke-linejoin:miter;stroke-miterlimit:10.43299961;stroke-dasharray:none;stroke-dashoffset:0;stroke-opacity:1" ns0:preamble="/Users/jdg18/CMEP/Miscellaneous/underground-inkscape-preamble.tex" ns0:text="$x$" word-spacing="normal" letter-spacing="normal" font-size-adjust="none" font-stretch="normal" font-weight="normal" font-variant="normal" font-style="normal" stroke-miterlimit="10.433" xml:space="preserve" transform="matrix(1.5,0,0,-1.5,105,962.14286)" id="g6646"><path style="fill:#000000;stroke-width:0" id="path6648" d="m 227.04,480.64 -0.23,0.64 c -0.15,0.39 -0.37,0.88 -0.89,1.16 l -1.56,-0.39 0.03,-0.21 c 0.12,0.05 0.3,0.07 0.45,0.07 0.65,0 0.96,-0.48 1.16,-1.05 l 0.39,-1.09 -0.77,-1.19 c -0.38,-0.58 -0.68,-0.7 -0.83,-0.7 -0.29,0 -0.25,0.24 -0.55,0.24 -0.3,0 -0.45,-0.25 -0.45,-0.44 0,-0.26 0.19,-0.55 0.61,-0.55 0.67,0 1.01,0.51 1.39,1.08 l 0.75,1.16 0.47,-1.33 c 0.15,-0.43 0.38,-0.91 0.86,-0.91 0.69,0 1.22,1.13 1.37,1.31 l -0.17,0.12 c -0.25,-0.51 -0.53,-0.68 -0.72,-0.68 -0.54,0 -0.81,1.6 -1.16,2.33 l 0.65,1 c 0.16,0.26 0.29,0.45 0.65,0.45 0.2,0 0.26,-0.1 0.52,-0.1 0.31,0 0.46,0.27 0.46,0.49 0,0.25 -0.2,0.39 -0.58,0.39 -0.59,0 -1.01,-0.52 -1.31,-0.99 z" /></g>    <g style="font-style:normal;font-variant:normal;font-weight:normal;font-stretch:normal;letter-spacing:normal;word-spacing:normal;text-anchor:start;fill:none;fill-opacity:1;fill-rule:evenodd;stroke:#000000;stroke-linecap:butt;stroke-linejoin:miter;stroke-miterlimit:10.43299961;stroke-dasharray:none;stroke-dashoffset:0;stroke-opacity:1" id="g6942" transform="matrix(1.5,0,0,-1.5,-6.4285711,845)" xml:space="preserve" stroke-miterlimit="10.433" font-style="normal" font-variant="normal" font-weight="normal" font-stretch="normal" font-size-adjust="none" letter-spacing="normal" word-spacing="normal" ns0:text="$y$" ns0:preamble="/Users/jdg18/CMEP/Miscellaneous/underground-inkscape-preamble.tex"><path style="fill:#000000;stroke-width:0" d="m 226.63,480.86 -0.01,0.08 -0.01,0.08 -0.01,0.07 -0.01,0.07 -0.01,0.07 -0.01,0.07 -0.01,0.06 -0.01,0.06 -0.01,0.06 -0.01,0.05 -0.01,0.06 -0.01,0.05 -0.01,0.05 -0.01,0.04 -0.02,0.05 -0.01,0.05 -0.01,0.04 -0.02,0.04 -0.01,0.04 -0.01,0.04 -0.04,0.08 -0.03,0.07 -0.04,0.08 -0.04,0.07 -0.04,0.07 -0.05,0.07 -1.78,-0.3 0.02,-0.18 c 0.11,0.01 0.3,0.04 0.43,0.04 0.67,0 0.77,-0.71 0.83,-1.24 l 0.45,-3.7 c -0.31,-0.48 -0.98,-1.21 -1.18,-1.21 -0.19,0 -0.17,0.37 -0.68,0.37 -0.15,0 -0.47,-0.13 -0.47,-0.49 0,-0.28 0.22,-0.64 0.66,-0.64 0.81,0 1.58,1.15 2.44,2.24 0.5,0.62 2.42,3.46 2.42,4.38 0,0.46 -0.3,0.73 -0.68,0.73 -0.34,0 -0.56,-0.21 -0.56,-0.47 0,-0.45 0.62,-0.57 0.62,-0.82 0,-0.21 -0.09,-0.45 -0.33,-0.88 -0.26,-0.49 -0.68,-1.19 -1.4,-2.18 z" id="path6944" /></g>    <path id="path7579" d="m 250.71429,214.50504 c 0,0 25.08727,-46.37726 47.14285,-46.42857 59.37719,-0.13814 92.85714,169.99999 92.85714,169.99999" style="fill:none;fill-rule:evenodd;stroke:#ff0000;stroke-width:1px;stroke-linecap:butt;stroke-linejoin:miter;stroke-opacity:1" />
  </g>
</svg>