<?xml version='1.0' ?><svg xmlns:dc="http://purl.org/dc/elements/1.1/" xmlns:cc="http://creativecommons.org/ns#" xmlns:rdf="http://www.w3.org/1999/02/22-rdf-syntax-ns#" xmlns:svg="http://www.w3.org/2000/svg" xmlns="http://www.w3.org/2000/svg" id="svg2" version="1.1" width="278.46357" height="257.65764" viewBox="389.68550626566 982.5100445885677 642.5651989639501 594.5547301256745" preserveAspectRatio="none">
  <metadata id="metadata495">
    <rdf:RDF>
      <cc:Work rdf:about="">
        <dc:format>image/svg+xml</dc:format>
        <dc:type rdf:resource="http://purl.org/dc/dcmitype/StillImage" />
        <dc:title />
      </cc:Work>
    </rdf:RDF>
  </metadata>
  <defs id="defs493">
    <clipPath id="clip1">
      <path d="m 0,0 0,509 574,0 0,-509 z" id="path9" />
    </clipPath>
    <clipPath id="clip2">
      <path d="m 0,0 0,509 574,0 0,-509 z" id="path18" />
    </clipPath>
    <clipPath id="clip3">
      <path d="m 0,0 0,509 574,0 0,-509 z" id="path27" />
    </clipPath>
    <clipPath id="clip4">
      <path d="m 0,0 0,509 574,0 0,-509 z" id="path36" />
    </clipPath>
    <clipPath id="clip5">
      <path d="m 0,0 0,509 574,0 0,-509 z" id="path45" />
    </clipPath>
    <clipPath id="clip6">
      <path d="m 0,0 0,509 574,0 0,-509 z" id="path54" />
    </clipPath>
    <clipPath id="clip7">
      <path d="m 0,0 0,509 574,0 0,-509 z" id="path63" />
    </clipPath>
    <clipPath id="clip8">
      <path d="m 0,0 0,509 574,0 0,-509 z" id="path72" />
    </clipPath>
    <clipPath id="clip10">
      <path id="path96" d="m 0,0 0,509 574,0 0,-509 z" />
    </clipPath>
    <clipPath id="clip11">
      <path id="path109" d="m 0,0 0,509 574,0 0,-509 z" />
    </clipPath>
    <clipPath id="clip18">
      <path id="path204" d="m 0,0 0,509 574,0 0,-509 z" />
    </clipPath>
    <clipPath id="clip19">
      <path id="path217" d="m 0,0 0,509 574,0 0,-509 z" />
    </clipPath>
    <clipPath id="clip21">
      <path id="path245" d="m 0,0 0,509 574,0 0,-509 z" />
    </clipPath>
    <clipPath id="clip22">
      <path id="path258" d="m 0,0 0,509 574,0 0,-509 z" />
    </clipPath>
    <clipPath id="clip35">
      <path id="path451" d="m 0,0 0,509 574,0 0,-509 z" />
    </clipPath>
  </defs>
  <g transform="matrix(1.2,0,0,1.2,315.84423,978.8193)" id="misc" style="stroke-width:1;stroke-linecap:square;stroke-linejoin:miter;stroke-miterlimit:10;stroke-dasharray:none;stroke-dashoffset:0" />
  <g transform="matrix(1.6409213,0,0,1.6409213,-131.53748,1039.4953)" id="misc-4" style="stroke-width:1;stroke-linecap:square;stroke-linejoin:miter;stroke-miterlimit:10;stroke-dasharray:none;stroke-dashoffset:0" />
  <g id="g3466">
    <g style="stroke-width:1;stroke-linecap:square;stroke-linejoin:miter;stroke-miterlimit:10;stroke-dasharray:none;stroke-dashoffset:0" id="g11" clip-path="url(#clip1)" transform="matrix(1.2384609,0,0,1.1724061,305.2476,979.01936)">
      <g style="fill:none;stroke:#000000;stroke-width:2;stroke-linecap:butt;stroke-opacity:1" id="g13">
        <path id="path15" d="m 276.49,3 0,506" />
      </g>
    </g>
    <g style="stroke-width:1;stroke-linecap:square;stroke-linejoin:miter;stroke-miterlimit:10;stroke-dasharray:none;stroke-dashoffset:0" id="g20" clip-path="url(#clip2)" transform="matrix(1.2,0,0,1.2,315.84423,978.8193)">
      <g style="fill:#000000;fill-opacity:1;fill-rule:evenodd;stroke:none" id="g22">
        <path id="path24" d="m 276.49,2 -5,20 10,0" />
      </g>
    </g>
    <g style="stroke-width:1;stroke-linecap:square;stroke-linejoin:miter;stroke-miterlimit:10;stroke-dasharray:none;stroke-dashoffset:0" id="g29" clip-path="url(#clip3)" transform="matrix(1.0793891,0,0,1.1134273,389.68551,1001.4087)">
      <g style="fill:none;stroke:#000000;stroke-width:2;stroke-linecap:butt;stroke-opacity:1" id="g31">
        <path id="path33" d="m 0,259.93 571,0" />
      </g>
    </g>
    <g style="stroke-width:1;stroke-linecap:square;stroke-linejoin:miter;stroke-miterlimit:10;stroke-dasharray:none;stroke-dashoffset:0" id="g38" clip-path="url(#clip4)" transform="matrix(1.2,0,0,1.2,338.91963,978.8193)">
      <g style="fill:#000000;fill-opacity:1;fill-rule:evenodd;stroke:none" id="g40">
        <path id="path42" d="m 572,259.93 -20,-5 0,10" />
      </g>
    </g>
    <g style="stroke-width:1;stroke-linecap:square;stroke-linejoin:miter;stroke-miterlimit:10;stroke-dasharray:none;stroke-dashoffset:0" id="g47" clip-path="url(#clip5)" transform="matrix(1.2,0,0,1.2,315.84423,978.8193)">
      <g style="fill:none;stroke:#000000;stroke-width:2;stroke-linecap:butt;stroke-opacity:1" id="g49">
        <path id="path51" d="m 104.19,259.93 0,3" />
      </g>
    </g>
    <g style="stroke-width:1;stroke-linecap:square;stroke-linejoin:miter;stroke-miterlimit:10;stroke-dasharray:none;stroke-dashoffset:0" id="g56" clip-path="url(#clip6)" transform="matrix(1.2,0,0,1.2,315.84423,978.8193)">
      <g style="fill:none;stroke:#000000;stroke-width:2;stroke-linecap:butt;stroke-opacity:1" id="g58">
        <path id="path60" d="m 448.79,259.93 0,3" />
      </g>
    </g>
    <g style="stroke-width:1;stroke-linecap:square;stroke-linejoin:miter;stroke-miterlimit:10;stroke-dasharray:none;stroke-dashoffset:0" id="g65" clip-path="url(#clip7)" transform="matrix(1.2,0,0,1.2,315.84423,978.8193)">
      <g style="fill:none;stroke:#000000;stroke-width:2;stroke-linecap:butt;stroke-opacity:1" id="g67">
        <path id="path69" d="m 273.49,432.23 3,0" />
      </g>
    </g>
    <g style="stroke-width:1;stroke-linecap:square;stroke-linejoin:miter;stroke-miterlimit:10;stroke-dasharray:none;stroke-dashoffset:0" id="g74" clip-path="url(#clip8)" transform="matrix(1.2,0,0,1.2,315.84423,978.8193)">
      <g style="fill:none;stroke:#000000;stroke-width:2;stroke-linecap:butt;stroke-opacity:1" id="g76">
        <path id="path78" d="m 273.49,87.633 3,0" />
      </g>
    </g>
    <g style="fill:none;stroke:#000000;stroke-width:2;stroke-linecap:round;stroke-linejoin:round;stroke-miterlimit:10;stroke-opacity:1;stroke-dasharray:none;stroke-dashoffset:0" id="g87" transform="matrix(1.2,0,0,1.2,315.84423,978.8193)">
      <path id="path89" d="m 448.79,259.93 c 0,95.16 -77.14,172.3 -172.3,172.3 -95.16,0 -172.3,-77.14 -172.3,-172.3 0,-95.16 77.14,-172.297 172.3,-172.297 95.16,0 172.3,77.137 172.3,172.297 z" />
      <title id="title91">Circle c</title>
      <desc id="desc93">Circle c: Circle through B with center A</desc>
    </g>
    <g style="stroke-width:1;stroke-linecap:square;stroke-linejoin:miter;stroke-miterlimit:10;stroke-dasharray:none;stroke-dashoffset:0" clip-path="url(#clip10)" id="g98" transform="matrix(1.2,0,0,1.2,315.84423,978.8193)">
      <g id="g100" style="fill:#2b83ba;fill-opacity:0.09803898;fill-rule:nonzero;stroke:none">
        <path d="m 306.49,259.93 c 0,-5.71 -1.63,-11.31 -4.7,-16.12 l -25.3,16.12 z" id="path102" />
        <title id="title104">Angle Ã&#131;Â&#142;Ã&#130;Â³</title>
        <desc id="desc106">Angle Ã&#131;Â&#142;Ã&#130;Â³: Angle between B, A, C</desc>
      </g>
    </g>
    <g style="stroke-width:1;stroke-linecap:square;stroke-linejoin:miter;stroke-miterlimit:10;stroke-dasharray:none;stroke-dashoffset:0" clip-path="url(#clip11)" id="g111" transform="matrix(1.2,0,0,1.2,315.84423,978.8193)">
      <g id="g113" style="fill:none;stroke:#2b83ba;stroke-linecap:round;stroke-linejoin:round;stroke-opacity:1">
        <path d="m 306.49,259.93 c 0,-5.71 -1.63,-11.31 -4.7,-16.12 l -25.3,16.12 z" id="path115" />
        <title id="title117">Angle Ã&#131;Â&#142;Ã&#130;Â³</title>
        <desc id="desc119">Angle Ã&#131;Â&#142;Ã&#130;Â³: Angle between B, A, C</desc>
      </g>
    </g>
    <g style="stroke-width:1;stroke-linecap:square;stroke-linejoin:miter;stroke-miterlimit:10;stroke-dasharray:none;stroke-dashoffset:0" transform="matrix(37.8,0,0,37.8,705.27751,1283.3264)" id="g121">
      <clipPath id="clip12">
        <path d="m -15.095,-12.091 0,24.238 27.333,0 0,-24.238 z" id="path124" />
      </clipPath>
      <g clip-path="url(#clip12)" id="g126">
        <g id="g128" style="fill:#2b83ba;fill-opacity:1;fill-rule:nonzero;stroke:none">
          <path d="M 0.20312,-0.40625 0.125,-0.10938 q 0,0.031255 0,0.04688 0,0.046875 0.03125,0.046875 0.0625,0 0.10937,-0.093755 l 0.01563,-0.03124 q 0.01563,-0.01563 0.01563,-0.01563 0.01562,0 0.01562,0.01563 0,0.01562 -0.03125,0.04687 -0.04687,0.109375 -0.125,0.109375 -0.0625,0 -0.078125,-0.046875 Q 0.0625,-0.0625 0.0625,-0.078125 q 0,-0.015625 0.0625,-0.265625 l 0.01562,-0.0625 -0.093745,0 q -0.015625,0 -0.015625,0 l -0.015625,0 0,0 q 0,-0.01563 0.015625,-0.03125 l 0.015625,0 0.093745,0 0.04688,-0.15625 q 0,-0.03125 0.03125,-0.03125 0.03125,0 0.03125,0.03125 0,0 -0.03125,0.15625 l 0.07813,0 q 0.03124,0 0.03124,0.01562 0,0.01563 -0.01562,0.01563 l 0,0 -0.01562,0 -0.09376,0 z" id="path130" />
          <title id="title132">Angle Ã&#131;Â&#142;Ã&#130;Â³</title>
          <desc id="desc134">Angle Ã&#131;Â&#142;Ã&#130;Â³: Angle between B, A, C</desc>
        </g>
      </g>
    </g>
    <g style="fill:none;stroke:#2b83ba;stroke-width:2.5;stroke-linecap:round;stroke-linejoin:round;stroke-miterlimit:10;stroke-opacity:1;stroke-dasharray:none;stroke-dashoffset:0" id="g154" transform="matrix(1.2,0,0,1.2,315.84423,978.8193)">
      <path id="path156" d="M 276.49,259.93 421.78,167.32" />
      <title id="title158">Segment a</title>
      <desc id="desc160">Segment a: Segment [A, C]</desc>
    </g>
    <g style="stroke-width:1;stroke-linecap:square;stroke-linejoin:miter;stroke-miterlimit:10;stroke-dasharray:none;stroke-dashoffset:0" clip-path="url(#clip18)" id="g206" transform="matrix(1.2,0,0,1.2,315.84423,978.8193)">
      <g id="g208" style="fill:#2b83ba;fill-opacity:1;fill-rule:nonzero;stroke:none">
        <path d="m 277.49,259.93 c 0,0.55 -0.45,1 -1,1 -0.55,0 -1,-0.45 -1,-1 0,-0.55 0.45,-1 1,-1 0.55,0 1,0.45 1,1 z" id="path210" />
        <title id="title212">Point A</title>
        <desc id="desc214">Point A: Point on yAxis</desc>
      </g>
    </g>
    <g style="stroke-width:1;stroke-linecap:square;stroke-linejoin:miter;stroke-miterlimit:10;stroke-dasharray:none;stroke-dashoffset:0" clip-path="url(#clip19)" id="g219" transform="matrix(1.2,0,0,1.2,315.84423,978.8193)">
      <g id="g221" style="fill:none;stroke:#000000;stroke-linecap:round;stroke-linejoin:round;stroke-opacity:1">
        <path d="m 277.49,259.93 c 0,0.55 -0.45,1 -1,1 -0.55,0 -1,-0.45 -1,-1 0,-0.55 0.45,-1 1,-1 0.55,0 1,0.45 1,1 z" id="path223" />
        <title id="title225">Point A</title>
        <desc id="desc227">Point A: Point on yAxis</desc>
      </g>
    </g>
    <g style="fill:#000000;fill-opacity:1;stroke-width:1;stroke-linecap:square;stroke-linejoin:miter;stroke-miterlimit:10;stroke-dasharray:none;stroke-dashoffset:0" transform="matrix(37.8,0,0,37.8,615.43852,1324.4575)" id="g229">
      <clipPath id="clip20">
        <path d="m -12.095,-13.54 0,24.238 27.333,0 0,-24.238 z" id="path232" />
      </clipPath>
      <g clip-path="url(#clip20)" id="g234" style="fill:#000000;fill-opacity:1">
        <g id="g236" style="fill:#000000;fill-opacity:1;fill-rule:nonzero;stroke:none">
          <path d="m 0.73438,-0.4375 0,0 q 0,0.15625 -0.10938,0.28125 -0.09375,0.125 -0.23438,0.171875 -0.04687,0 -0.07812,0 -0.125,0 -0.20312,-0.078125 -0.062505,-0.07812 -0.062505,-0.1875 0,-0.14062 0.109375,-0.28125 0.09375,-0.125 0.23437,-0.15625 0.04688,-0.01562 0.09376,-0.01562 0.125,0 0.20312,0.09374 0.04688,0.0625 0.04688,0.17188 z M 0.3125,0 l 0,0 Q 0.40625,0 0.48438,-0.09375 0.51562,-0.10938 0.53125,-0.125 0.625,-0.25 0.64062,-0.42188 q 0.01563,-0.03124 0.01563,-0.04687 0,-0.14063 -0.09375,-0.1875 0,0 0,0 -0.04688,-0.03125 -0.07812,-0.03125 -0.09376,0 -0.1875,0.09375 -0.03126,0.03125 -0.0625,0.0625 -0.07813,0.125 -0.09376,0.28125 0,0.01562 0,0.03125 0,0.125 0.07813,0.1875 Q 0.26562,0 0.3125,0 z" id="path238" style="fill:#000000;fill-opacity:1" />
          <title id="title240">Point A</title>
          <desc id="desc242">Point A: Point on yAxis</desc>
        </g>
      </g>
    </g>
    <g style="stroke-width:1;stroke-linecap:square;stroke-linejoin:miter;stroke-miterlimit:10;stroke-dasharray:none;stroke-dashoffset:0" clip-path="url(#clip21)" id="g247" transform="matrix(1.2,0,0,1.2,315.84423,978.8193)">
      <g id="g249" style="fill:#2b83ba;fill-opacity:1;fill-rule:nonzero;stroke:none">
        <path d="m 424.78,167.32 c 0,1.66 -1.34,3 -3,3 -1.65,0 -3,-1.34 -3,-3 0,-1.66 1.35,-3 3,-3 1.66,0 3,1.34 3,3 z" id="path251" />
        <title id="title253">Point C</title>
        <desc id="desc255">Point C: Point on c</desc>
      </g>
    </g>
    <g style="stroke-width:1;stroke-linecap:square;stroke-linejoin:miter;stroke-miterlimit:10;stroke-dasharray:none;stroke-dashoffset:0" clip-path="url(#clip22)" id="g260" transform="matrix(1.2,0,0,1.2,315.84423,978.8193)">
      <g id="g262" style="fill:none;stroke:#000000;stroke-linecap:round;stroke-linejoin:round;stroke-opacity:1">
        <path d="m 424.78,167.32 c 0,1.66 -1.34,3 -3,3 -1.65,0 -3,-1.34 -3,-3 0,-1.66 1.35,-3 3,-3 1.66,0 3,1.34 3,3 z" id="path264" />
        <title id="title266">Point C</title>
        <desc id="desc268">Point C: Point on c</desc>
      </g>
    </g>
    <g id="g4495" transform="matrix(1.5,0,0,1.5,-428.1429,-595.00965)">
      <g id="g270" transform="matrix(25.2,0,0,25.2,836.64423,1183.7193)" style="stroke-width:1;stroke-linecap:square;stroke-linejoin:miter;stroke-miterlimit:10;stroke-dasharray:none;stroke-dashoffset:0">
        <clipPath id="clip23">
          <path id="path273" d="m -20.667,-8.131 0,24.238 27.3337,0 0,-24.238 z" />
        </clipPath>
        <g id="g275" clip-path="url(#clip23)">
          <g style="fill:#2b83ba;fill-opacity:1;fill-rule:nonzero;stroke:none" id="g277">
            <path id="path279" d="m 0.29688,-0.3125 0,0 -0.0625,0.25 0,0.015625 q 0,0.015625 0.04687,0.015625 l 0,0 0,0 0.01563,0 q 0.03124,0 0.03124,0.015625 Q 0.32812,0 0.3125,0 L 0.25,0 l 0,0 -0.0625,0 0,0 -0.125,0 0,0 q -0.015625,0 -0.015625,-0.015625 0,-0.015625 0.015625,-0.015625 l 0,0 q 0.07812,0 0.07812,-0.015625 0.01563,0 0.01563,-0.03125 0,0 0,0 L 0.29688,-0.60938 q 0,-0.01562 0,-0.03124 0,0 -0.01563,-0.01563 l 0,0 0,0 q 0,0 0,0 -0.03125,0 -0.04687,0 -0.03126,0 -0.03126,0 0,0 0,0 0,-0.03125 0.01563,-0.03125 l 0,0 0.01563,0 0.32812,0 q 0.10938,0 0.17188,0.07812 0.01562,0.03126 0.01562,0.07813 0,0.07813 -0.07812,0.14063 -0.09376,0.07812 -0.20313,0.07812 l -0.17187,0 z m 0.07812,-0.29688 -0.0625,0.26563 0.14062,0 q 0.09376,0 0.15626,-0.04687 0.03124,-0.04688 0.04687,-0.125 l 0,0 q 0,-0.03126 0,-0.04688 0,-0.09375 -0.125,-0.09375 l -0.10937,0 q -0.03126,0 -0.03126,0.01563 l 0,0 0,0 0,0 0,0 q -0.01562,0 -0.01562,0.03124 z" />
            <title id="title281">Point C</title>
            <desc id="desc283">Point C: Point on c</desc>
          </g>
        </g>
      </g>
      <g id="g285" transform="matrix(25.2,0,0,25.2,852.82023,1183.7193)" style="stroke-width:1;stroke-linecap:square;stroke-linejoin:miter;stroke-miterlimit:10;stroke-dasharray:none;stroke-dashoffset:0">
        <clipPath id="clip24">
          <path id="path288" d="m -21.309,-8.131 0,24.238 27.3337,0 0,-24.238 z" />
        </clipPath>
        <g id="g290" clip-path="url(#clip24)">
          <g style="fill:#2b83ba;fill-opacity:1;fill-rule:nonzero;stroke:none" id="g292">
            <path id="path294" d="m 0.32812,0.23438 0,0 q 0,0.01562 0,0.01562 Q 0.3125,0.25 0.26562,0.20312 0.20312,0.14062 0.17188,0.0625 0.09375,-0.078125 0.09375,-0.25 q 0,-0.17188 0.0625,-0.3125 0.0625,-0.10938 0.14063,-0.17188 Q 0.3125,-0.75 0.32812,-0.75 q 0,0 0,0.01562 0,0 -0.01562,0.01563 -0.15625,0.15625 -0.15625,0.46875 0,0.3125 0.15625,0.46875 0.01562,0.01563 0.01562,0.01563 z" />
            <title id="title296">Point C</title>
            <desc id="desc298">Point C: Point on c</desc>
          </g>
        </g>
      </g>
      <g id="g300" transform="matrix(25.2,0,0,25.2,862.62423,1183.7193)" style="stroke-width:1;stroke-linecap:square;stroke-linejoin:miter;stroke-miterlimit:10;stroke-dasharray:none;stroke-dashoffset:0">
        <clipPath id="clip25">
          <path id="path303" d="m -21.698,-8.131 0,24.238 27.3338,0 0,-24.238 z" />
        </clipPath>
        <g id="g305" clip-path="url(#clip25)">
          <g style="fill:#2b83ba;fill-opacity:1;fill-rule:nonzero;stroke:none" id="g307">
            <path id="path309" d="M 0.35938,-0.39062 Q 0.32812,-0.42188 0.25,-0.42188 q -0.0625,0 -0.09375,0.0625 -0.04687,0.04688 -0.04687,0.14063 0,0.140625 0.09374,0.1875 0.03126,0.015625 0.0625,0.015625 0.09376,0 0.125,-0.109375 0,0 0.01563,0 0.01563,0 0.01563,0 0,0.03125 -0.03126,0.0625 Q 0.34375,0.015625 0.25,0.015625 q -0.09375,0 -0.15625,-0.078125 -0.0625,-0.0625 -0.0625,-0.15625 0,-0.09375 0.07813,-0.17187 0.0625,-0.0625 0.14062,-0.0625 0.07812,0 0.125,0.04687 0.03125,0.03125 0.03125,0.0625 0,0.04687 -0.03125,0.04687 -0.01562,0 -0.01562,0 -0.03126,0 -0.04688,-0.03124 0,0 0,-0.01563 0,-0.03125 0.03125,-0.04687 0.01563,0 0.01563,0 z" />
            <title id="title311">Point C</title>
            <desc id="desc313">Point C: Point on c</desc>
          </g>
        </g>
      </g>
      <g id="g315" transform="matrix(25.2,0,0,25.2,873.82023,1183.7193)" style="stroke-width:1;stroke-linecap:square;stroke-linejoin:miter;stroke-miterlimit:10;stroke-dasharray:none;stroke-dashoffset:0">
        <clipPath id="clip26">
          <path id="path318" d="m -22.142,-8.131 0,24.238 27.3333,0 0,-24.238 z" />
        </clipPath>
        <g id="g320" clip-path="url(#clip26)">
          <g style="fill:#2b83ba;fill-opacity:1;fill-rule:nonzero;stroke:none" id="g322">
            <path id="path324" d="m 0.46875,-0.21875 0,0 q 0,0.10937 -0.07813,0.171875 -0.0625,0.0625 -0.14062,0.0625 -0.09375,0 -0.15625,-0.078125 -0.0625,-0.0625 -0.0625,-0.15625 0,-0.09375 0.0625,-0.17187 0.0625,-0.0625 0.15625,-0.0625 0.09375,0 0.15625,0.07812 0.0625,0.07812 0.0625,0.15625 z M 0.25,-0.015625 l 0,0 q 0.0625,0 0.10938,-0.046875 l 0,-0.03125 q 0.03124,-0.03125 0.03124,-0.125 0,-0.09375 -0.03124,-0.14063 -0.04688,-0.0625 -0.10938,-0.0625 -0.0625,0 -0.10938,0.04688 0,0 0,0.01562 -0.03124,0.04688 -0.03124,0.14063 0,0.09375 0.03124,0.140625 0.03126,0.0625 0.10938,0.0625 z" />
            <title id="title326">Point C</title>
            <desc id="desc328">Point C: Point on c</desc>
          </g>
        </g>
      </g>
      <g id="g330" transform="matrix(25.2,0,0,25.2,886.42023,1183.7193)" style="stroke-width:1;stroke-linecap:square;stroke-linejoin:miter;stroke-miterlimit:10;stroke-dasharray:none;stroke-dashoffset:0">
        <clipPath id="clip27">
          <path id="path333" d="m -22.642,-8.131 0,24.238 27.3333,0 0,-24.238 z" />
        </clipPath>
        <g id="g335" clip-path="url(#clip27)">
          <g style="fill:#2b83ba;fill-opacity:1;fill-rule:nonzero;stroke:none" id="g337">
            <path id="path339" d="m 0.20312,-0.1875 0,0 Q 0.125,-0.21875 0.09375,-0.23438 q -0.015625,0 -0.015625,0 -0.046875,-0.04687 -0.046875,-0.09374 0,-0.0625 0.0625,-0.09376 0.04687,-0.03124 0.09375,-0.03124 0.0625,0 0.09375,0.03124 0.01563,0 0.01563,-0.01562 0.01562,-0.01562 0.03124,-0.01562 0,0.01562 0,0.03124 l 0,0.09376 q 0,0.03124 0,0.03124 l 0,0 0,0 0,0 q -0.01562,0 -0.01562,-0.01562 -0.01562,-0.09375 -0.07812,-0.10938 -0.01563,0 -0.04688,0 -0.09375,0 -0.109375,0.04688 0,0.01562 0,0.01562 0,0.0625 0.078125,0.07813 0.01563,0 0.04687,0.01563 0.07813,0.01562 0.10938,0.03124 0,0 0,0.01563 0.04688,0.03125 0.04688,0.09375 0,0.078125 -0.0625,0.109375 -0.04688,0.03125 -0.09376,0.03125 -0.0625,0 -0.10937,-0.046875 L 0.0625,-0.015625 Q 0.046875,0.015625 0.046875,0.015625 0.03125,0 0.03125,-0.015625 l 0,-0.124995 q 0,-0.03126 0.015625,-0.03126 l 0,0 0,0 0,0 q 0.015625,0 0.015625,0.01563 0,0 0,0 0.03125,0.125 0.09375,0.140625 0.01563,0 0.04687,0 0.07813,0 0.10938,-0.0625 0,-0.015625 0,-0.031255 0,-0.0625 -0.10938,-0.07812 z" />
            <title id="title341">Point C</title>
            <desc id="desc343">Point C: Point on c</desc>
          </g>
        </g>
      </g>
      <g id="g345" transform="matrix(25.2,0,0,25.2,900.56823,1183.7193)" style="stroke-width:1;stroke-linecap:square;stroke-linejoin:miter;stroke-miterlimit:10;stroke-dasharray:none;stroke-dashoffset:0">
        <clipPath id="clip28">
          <path id="path348" d="m -23.203,-8.131 0,24.238 27.3332,0 0,-24.238 z" />
        </clipPath>
        <g id="g350" clip-path="url(#clip28)">
          <g style="fill:#2b83ba;fill-opacity:1;fill-rule:nonzero;stroke:none" id="g352">
            <path id="path354" d="M 0.20312,-0.40625 0.125,-0.10938 q 0,0.031255 0,0.04688 0,0.046875 0.03125,0.046875 0.0625,0 0.10937,-0.093755 l 0.01563,-0.03124 q 0.01563,-0.01563 0.01563,-0.01563 0.01562,0 0.01562,0.01563 0,0.01562 -0.03125,0.04687 -0.04687,0.109375 -0.125,0.109375 -0.0625,0 -0.078125,-0.046875 Q 0.0625,-0.0625 0.0625,-0.078125 q 0,-0.015625 0.0625,-0.265625 l 0.01562,-0.0625 -0.093745,0 q -0.015625,0 -0.015625,0 l -0.015625,0 0,0 q 0,-0.01563 0.015625,-0.03125 l 0.015625,0 0.093745,0 0.04688,-0.15625 q 0,-0.03125 0.03125,-0.03125 0.03125,0 0.03125,0.03125 0,0 -0.03125,0.15625 l 0.07813,0 q 0.03124,0 0.03124,0.01562 0,0.01563 -0.01562,0.01563 l 0,0 -0.01562,0 -0.09376,0 z" />
            <title id="title356">Point C</title>
            <desc id="desc358">Point C: Point on c</desc>
          </g>
        </g>
      </g>
      <g id="g360" transform="matrix(25.2,0,0,25.2,909.66423,1183.7193)" style="stroke-width:1;stroke-linecap:square;stroke-linejoin:miter;stroke-miterlimit:10;stroke-dasharray:none;stroke-dashoffset:0">
        <clipPath id="clip29">
          <path id="path363" d="m -23.564,-8.131 0,24.238 27.3331,0 0,-24.238 z" />
        </clipPath>
        <g id="g365" clip-path="url(#clip29)">
          <g style="fill:#2b83ba;fill-opacity:1;fill-rule:nonzero;stroke:none" id="g367">
            <path id="path369" d="m 0.20312,0 0,0 q 0,0.09375 -0.0625,0.17188 Q 0.125,0.1875 0.10938,0.1875 q 0,0 0,0 0,-0.01562 0,-0.01562 0.0625,-0.0625 0.07812,-0.156255 0,0 0,-0.015625 0,-0.015625 -0.01562,-0.015625 0,0 0,0 Q 0.15625,0 0.14062,0 0.10938,0 0.09375,-0.03125 q 0,-0.015625 0,-0.015625 0,-0.046875 0.01563,-0.062505 0.01562,0 0.03124,0 0.04688,0 0.0625,0.062505 0,0.015625 0,0.046875 z" />
            <title id="title371">Point C</title>
            <desc id="desc373">Point C: Point on c</desc>
          </g>
        </g>
      </g>
      <g id="g375" transform="matrix(25.2,0,0,25.2,922.26423,1183.7193)" style="stroke-width:1;stroke-linecap:square;stroke-linejoin:miter;stroke-miterlimit:10;stroke-dasharray:none;stroke-dashoffset:0">
        <clipPath id="clip30">
          <path id="path378" d="m -24.064,-8.131 0,24.238 27.3331,0 0,-24.238 z" />
        </clipPath>
        <g id="g380" clip-path="url(#clip30)">
          <g style="fill:#2b83ba;fill-opacity:1;fill-rule:nonzero;stroke:none" id="g382">
            <path id="path384" d="m 0.20312,-0.1875 0,0 Q 0.125,-0.21875 0.09375,-0.23438 q -0.015625,0 -0.015625,0 -0.046875,-0.04687 -0.046875,-0.09374 0,-0.0625 0.0625,-0.09376 0.04687,-0.03124 0.09375,-0.03124 0.0625,0 0.09375,0.03124 0.01563,0 0.01563,-0.01562 0.01562,-0.01562 0.03124,-0.01562 0,0.01562 0,0.03124 l 0,0.09376 q 0,0.03124 0,0.03124 l 0,0 0,0 0,0 q -0.01562,0 -0.01562,-0.01562 -0.01562,-0.09375 -0.07812,-0.10938 -0.01563,0 -0.04688,0 -0.09375,0 -0.109375,0.04688 0,0.01562 0,0.01562 0,0.0625 0.078125,0.07813 0.01563,0 0.04687,0.01563 0.07813,0.01562 0.10938,0.03124 0,0 0,0.01563 0.04688,0.03125 0.04688,0.09375 0,0.078125 -0.0625,0.109375 -0.04688,0.03125 -0.09376,0.03125 -0.0625,0 -0.10937,-0.046875 L 0.0625,-0.015625 Q 0.046875,0.015625 0.046875,0.015625 0.03125,0 0.03125,-0.015625 l 0,-0.124995 q 0,-0.03126 0.015625,-0.03126 l 0,0 0,0 0,0 q 0.015625,0 0.015625,0.01563 0,0 0,0 0.03125,0.125 0.09375,0.140625 0.01563,0 0.04687,0 0.07813,0 0.10938,-0.0625 0,-0.015625 0,-0.031255 0,-0.0625 -0.10938,-0.07812 z" />
            <title id="title386">Point C</title>
            <desc id="desc388">Point C: Point on c</desc>
          </g>
        </g>
      </g>
      <g id="g390" transform="matrix(25.2,0,0,25.2,932.20023,1183.7193)" style="stroke-width:1;stroke-linecap:square;stroke-linejoin:miter;stroke-miterlimit:10;stroke-dasharray:none;stroke-dashoffset:0">
        <clipPath id="clip31">
          <path id="path393" d="m -24.459,-8.131 0,24.238 27.3336,0 0,-24.238 z" />
        </clipPath>
        <g id="g395" clip-path="url(#clip31)">
          <g style="fill:#2b83ba;fill-opacity:1;fill-rule:nonzero;stroke:none" id="g397">
            <path id="path399" d="m 0.17188,-0.4375 0,0 0,0.359375 q 0,0.03125 0.01562,0.046875 l 0,0 q 0.01562,0 0.0625,0 L 0.25,0 Q 0.14062,0 0.14062,0 0.125,0 0.03125,0 l 0,-0.03125 q 0.0625,0 0.07813,-0.015625 l 0,0 q 0,0 0,-0.03125 l 0,-0.265625 q 0,-0.04687 -0.01563,-0.04687 l 0,0 0,0 0,0 0,0 Q 0.078125,-0.40625 0.03125,-0.40625 l 0,-0.03125 0.14063,0 z M 0.1875,-0.60938 q 0,0.03126 -0.04688,0.04688 0,0 -0.01562,0 -0.03125,0 -0.046875,-0.03125 l 0,0 q 0,-0.01563 0,-0.01563 0,-0.03124 0.031255,-0.04687 0,-0.01563 0.01562,-0.01563 0.03125,0 0.04688,0.03126 0.01562,0.01562 0.01562,0.03124 z" />
            <title id="title401">Point C</title>
            <desc id="desc403">Point C: Point on c</desc>
          </g>
        </g>
      </g>
      <g id="g405" transform="matrix(25.2,0,0,25.2,939.20823,1183.7193)" style="stroke-width:1;stroke-linecap:square;stroke-linejoin:miter;stroke-miterlimit:10;stroke-dasharray:none;stroke-dashoffset:0">
        <clipPath id="clip32">
          <path id="path408" d="m -24.736,-8.131 0,24.238 27.3329,0 0,-24.238 z" />
        </clipPath>
        <g id="g410" clip-path="url(#clip32)">
          <g style="fill:#2b83ba;fill-opacity:1;fill-rule:nonzero;stroke:none" id="g412">
            <path id="path414" d="m 0.10938,-0.34375 q 0,-0.04687 -0.01563,-0.04687 -0.015625,-0.01563 -0.046875,-0.01563 l -0.015625,0 0,-0.03125 0.14063,0 0,0.09375 q 0.04687,-0.09375 0.15624,-0.09375 0.0625,0 0.09376,0.03125 0.03124,0.03125 0.03124,0.09375 0,0.01562 0,0.0625 l 0,0.1875 q 0,0.03125 0.03126,0.03125 0.01562,0 0.04687,0 L 0.53125,0 Q 0.4375,0 0.42188,0 q 0,0 -0.10938,0 l 0,-0.03125 q 0.0625,0 0.0625,-0.015625 l 0,0 q 0.01562,0 0.01562,-0.03125 l 0,-0.234375 q 0,-0.09375 -0.0625,-0.10938 0,0 -0.01562,0 -0.0625,0 -0.09375,0.0625 -0.04687,0.03126 -0.04687,0.09376 l 0,0.187495 q 0,0.03125 0.01562,0.046875 0.01562,0 0.0625,0 L 0.25,0 q -0.09375,0 -0.10938,0 0,0 -0.10937,0 l 0,-0.03125 q 0.0625,0 0.0625,-0.015625 l 0.01563,0 q 0,0 0,-0.03125 l 0,-0.265625 z" />
            <title id="title416">Point C</title>
            <desc id="desc418">Point C: Point on c</desc>
          </g>
        </g>
      </g>
      <g id="g420" transform="matrix(25.2,0,0,25.2,957.40023,1183.7193)" style="stroke-width:1;stroke-linecap:square;stroke-linejoin:miter;stroke-miterlimit:10;stroke-dasharray:none;stroke-dashoffset:0">
        <clipPath id="clip33">
          <path id="path423" d="m -25.459,-8.131 0,24.238 27.3336,0 0,-24.238 z" />
        </clipPath>
        <g id="g425" clip-path="url(#clip33)">
          <g style="fill:#2b83ba;fill-opacity:1;fill-rule:nonzero;stroke:none" id="g427">
            <path id="path429" d="M 0.20312,-0.40625 0.125,-0.10938 q 0,0.031255 0,0.04688 0,0.046875 0.03125,0.046875 0.0625,0 0.10937,-0.093755 l 0.01563,-0.03124 q 0.01563,-0.01563 0.01563,-0.01563 0.01562,0 0.01562,0.01563 0,0.01562 -0.03125,0.04687 -0.04687,0.109375 -0.125,0.109375 -0.0625,0 -0.078125,-0.046875 Q 0.0625,-0.0625 0.0625,-0.078125 q 0,-0.015625 0.0625,-0.265625 l 0.01562,-0.0625 -0.093745,0 q -0.015625,0 -0.015625,0 l -0.015625,0 0,0 q 0,-0.01563 0.015625,-0.03125 l 0.015625,0 0.093745,0 0.04688,-0.15625 q 0,-0.03125 0.03125,-0.03125 0.03125,0 0.03125,0.03125 0,0 -0.03125,0.15625 l 0.07813,0 q 0.03124,0 0.03124,0.01562 0,0.01563 -0.01562,0.01563 l 0,0 -0.01562,0 -0.09376,0 z" />
            <title id="title431">Point C</title>
            <desc id="desc433">Point C: Point on c</desc>
          </g>
        </g>
      </g>
      <g id="g435" transform="matrix(25.2,0,0,25.2,966.50823,1183.7193)" style="stroke-width:1;stroke-linecap:square;stroke-linejoin:miter;stroke-miterlimit:10;stroke-dasharray:none;stroke-dashoffset:0">
        <clipPath id="clip34">
          <path id="path438" d="m -25.82,-8.131 0,24.238 27.3335,0 0,-24.238 z" />
        </clipPath>
        <g id="g440" clip-path="url(#clip34)">
          <g style="fill:#2b83ba;fill-opacity:1;fill-rule:nonzero;stroke:none" id="g442">
            <path id="path444" d="m 0.28125,-0.25 0,0 q 0,0.171875 -0.0625,0.3125 Q 0.17188,0.17188 0.09375,0.23438 0.078125,0.25 0.0625,0.25 q 0,0 0,-0.01562 0,0 0,-0.01563 Q 0.23438,0.0625 0.23438,-0.25 q 0,-0.3125 -0.156255,-0.46875 l 0,0 Q 0.0625,-0.73438 0.0625,-0.73438 q 0,-0.01562 0,-0.01562 0.015625,0 0.0625,0.04688 0.0625,0.0625 0.09375,0.14062 0.0625,0.14062 0.0625,0.3125 z" />
            <title id="title446">Point C</title>
            <desc id="desc448">Point C: Point on c</desc>
          </g>
        </g>
      </g>
    </g>
    <g style="stroke-width:1;stroke-linecap:square;stroke-linejoin:miter;stroke-miterlimit:10;stroke-dasharray:none;stroke-dashoffset:0" clip-path="url(#clip35)" id="g453" transform="matrix(1.2,0,0,1.2,315.84423,978.8193)">
      <g id="g455" style="fill:#2b83ba;fill-opacity:1;fill-rule:nonzero;stroke:none">
        <path d="m 184.88,114.64 c 0,0.55 -0.45,1 -1,1 -0.55,0 -1,-0.45 -1,-1 0,-0.55 0.45,-1 1,-1 0.55,0 1,0.45 1,1 z" id="path457" />
        <title id="title459">Point C&#39;_1</title>
        <desc id="desc461">Point C&#39;_1: C rotated by angle 90Ã&#131;Â&#130;Ã&#130;Â°</desc>
      </g>
    </g>
    <g style="stroke-width:1;stroke-linecap:square;stroke-linejoin:miter;stroke-miterlimit:10;stroke-dasharray:none;stroke-dashoffset:0" transform="matrix(37.8,0,0,37.8,742.0479,1323.4855)" id="g476">
      <clipPath id="clip37">
        <path d="m -17.143,-13.311 0,24.238 27.333,0 0,-24.238 z" id="path479" />
      </clipPath>
      <g clip-path="url(#clip37)" id="g481">
        <g id="g483" style="fill:#000000;fill-opacity:1;fill-rule:nonzero;stroke:none">
          <path d="m 0.29688,-0.64062 0,0.562495 q 0,0.03125 0.01562,0.03125 0.01562,0.015625 0.07812,0.015625 l 0.03126,0 0,0.03125 Q 0.39062,0 0.25,0 0.125,0 0.09375,0 l 0,-0.03125 0.03125,0 q 0.07812,0 0.09375,-0.015625 l 0,0 q 0,-0.015625 0,-0.03125 l 0,-0.515625 q -0.04687,0.01563 -0.125,0.01563 l 0,-0.03126 q 0.10937,0 0.17187,-0.0625 0.03126,0 0.03126,0.01563 l 0,0 0,0 q 0,0 0,0.01563 z" id="path485" />
          <title id="title487">$1$</title>
          <desc id="desc489">text1 = &quot;$1$&quot;</desc>
        </g>
      </g>
    </g>
    <g style="stroke-width:1;stroke-linecap:square;stroke-linejoin:miter;stroke-miterlimit:10;stroke-dasharray:none;stroke-dashoffset:0" id="g5334" transform="matrix(36.92073,0,0,36.92073,986.11293,1323.1261)">
      <clipPath id="clip1-0">
        <path id="path5337" d="m -11.333,-8.6306 0,29.8666 38.666,0 0,-29.8666 z" />
      </clipPath>
      <g id="g5339" clip-path="url(#clip1-0)">
        <g id="g5341" style="fill:#000000;fill-opacity:1;fill-rule:nonzero;stroke:none">
          <path id="path5343" d="m 0.32812,-0.29688 -0.03124,0.125 q -0.01563,0.07813 -0.01563,0.093755 0,0.046875 0.03125,0.0625 0.01562,0 0.03125,0 0.04687,0 0.07813,-0.046875 0.03124,-0.03125 0.04687,-0.07812 0,-0.01563 0.01563,-0.01563 0.01562,0 0.01562,0.01563 0,0.01562 -0.03125,0.062495 -0.0625,0.09375 -0.125,0.09375 -0.07813,0 -0.10937,-0.0625 0,-0.015625 0,-0.015625 Q 0.20312,-0.015625 0.15625,0 0.14062,0.015625 0.125,0.015625 q -0.0625,0 -0.09375,-0.046875 0,0 0,-0.03125 0,-0.03125 0.03125,-0.04688 0.015625,0 0.015625,0 0.031255,0 0.046875,0.01563 0,0.015625 0,0.015625 0,0.03125 -0.03125,0.046875 -0.015625,0 -0.015625,0 0.015625,0.015625 0.046875,0.015625 0.04688,0 0.07812,-0.0625 0.01563,-0.015625 0.01563,-0.031255 0.04687,-0.20312 0.04687,-0.25 0,-0.0625 -0.04687,-0.0625 -0.04687,0 -0.09375,0.0625 l 0,0 q 0,0 0,0 -0.01562,0.01563 -0.03125,0.04688 0,0 0,0.01562 l -0.015625,0.01563 q 0,0 0,0 -0.015625,0 -0.015625,0 0,-0.03125 0.03125,-0.07813 0.04687,-0.07812 0.125,-0.07812 0.07813,0 0.10937,0.07812 0.03126,-0.0625 0.07813,-0.07812 0.01563,0 0.03125,0 0.0625,0 0.07812,0.03125 0.01563,0.01563 0.01563,0.03125 0,0.04688 -0.04687,0.04688 0,0.01562 -0.01563,0.01562 -0.03125,0 -0.03125,-0.03125 0,0 0,-0.01563 0,-0.03124 0.03125,-0.04687 0,0 0.01563,0 -0.01563,-0.01563 -0.04688,-0.01563 -0.07812,0 -0.09375,0.10938 -0.01563,0 -0.01563,0.01562 z" />
          <title id="title5345">$x$</title>
          <desc id="desc5347">text1 = &quot;$x$&quot;</desc>
        </g>
      </g>
    </g>
    <g style="stroke-width:1;stroke-linecap:square;stroke-linejoin:miter;stroke-miterlimit:10;stroke-dasharray:none;stroke-dashoffset:0" id="g5349" transform="matrix(36.92073,0,0,36.92073,609.38817,1015.9997)">
      <clipPath id="clip2-5">
        <path id="path5352" d="m -11.133,-13.297 0,29.866 38.666,0 0,-29.866 z" />
      </clipPath>
      <g id="g5354" clip-path="url(#clip2-5)">
        <g id="g5356" style="fill:#000000;fill-opacity:1;fill-rule:nonzero;stroke:none">
          <path id="path5358" d="M 0.48438,-0.375 0.39062,0 Q 0.35938,0.09375 0.28125,0.15625 0.21875,0.20312 0.15625,0.20312 0.09375,0.20312 0.0625,0.15625 0.046875,0.14062 0.046875,0.125 q 0,-0.0625 0.046875,-0.0625 0,-0.015625 0.01563,-0.015625 0.03124,0 0.03124,0.03125 0,0 0,0.015625 0,0.01563 -0.01562,0.03125 Q 0.10938,0.14062 0.078125,0.14062 0.09375,0.1875 0.15625,0.1875 q 0.0625,0 0.10937,-0.0625 0.04688,-0.0625 0.0625,-0.140625 0,-0.015625 0,-0.015625 -0.04687,0.046875 -0.09374,0.046875 -0.07813,0 -0.10938,-0.0625 -0.01562,-0.03125 -0.01562,-0.062505 0,-0.04687 0.04687,-0.20312 0,0 0.01563,0 0.01562,-0.04688 0.01562,-0.07812 0,-0.03126 -0.03125,-0.03126 -0.04687,0 -0.09375,0.09376 l 0,0 q 0,0.01562 0,0.03124 -0.015625,0.01563 -0.015625,0.01563 -0.015625,0 -0.015625,0 0,-0.03125 0.015625,-0.0625 0.046875,-0.09375 0.109375,-0.09375 0.0625,0 0.07813,0.04688 Q 0.25,-0.375 0.25,-0.35938 q 0,0.01563 -0.03125,0.07813 -0.04687,0.125 -0.04687,0.1875 0,0.078125 0.0625,0.078125 0.0625,0 0.09374,-0.0625 0.01563,-0.015625 0.01563,-0.015625 l 0.04687,-0.1875 Q 0.40625,-0.3125 0.40625,-0.35938 0.42188,-0.40625 0.42188,-0.40625 0.4375,-0.4375 0.46875,-0.4375 q 0.01563,0.01562 0.01563,0.03125 0,0.01563 0,0.03125 z" />
          <title id="title5360">$y$</title>
          <desc id="desc5362">text2 = &quot;$y$&quot;</desc>
        </g>
      </g>
    </g>
    <g style="stroke-width:1;stroke-linecap:square;stroke-linejoin:miter;stroke-miterlimit:10;stroke-dasharray:none;stroke-dashoffset:0" id="g5364" transform="matrix(37.413006,0,0,37.413006,855.9373,1326.6975)">
      <clipPath id="clip3-2">
        <path id="path5367" d="m -17.316,-9.4202 0,23.5792 30.527,0 0,-23.5792 z" />
      </clipPath>
      <g id="g5369" clip-path="url(#clip3-2)">
        <g id="g5371" style="fill:#000000;fill-opacity:1;fill-rule:nonzero;stroke:none">
          <path id="path5373" d="m 0.17188,-0.10938 0.35937,-0.59374 q 0,-0.01563 0.01563,-0.01563 0.01562,0 0.01562,0.01563 0.01562,0 0.01562,0.01562 l 0.0625,0.625 q 0,0.015625 0,0.03125 l 0,0 0,0 0,0 0,0 0,0 q 0.01563,0 0.0625,0 0.01563,0 0.01563,0.015625 Q 0.71875,0 0.70312,0 l -0.10937,0 0,0 -0.125,0 0,0 q -0.01563,0 -0.01563,-0.015625 0,-0.015625 0.01563,-0.015625 0.07813,0 0.07813,-0.03125 0,0 -0.01563,-0.17188 l -0.25,0 -0.07813,0.125 Q 0.1875,-0.078125 0.1875,-0.0625 q 0,0.03125 0.04688,0.03125 0.01562,0 0.01562,0.015625 Q 0.25,0 0.23438,0 l -0.09376,0 0,0 -0.093745,0 0,0 Q 0.03125,0 0.03125,-0.015625 q 0,-0.015625 0.015625,-0.015625 l 0,0 0.015625,0 q 0.0625,0 0.09375,-0.046875 0.01563,-0.015625 0.01563,-0.031255 z m 0.125,-0.15624 0.23437,0 L 0.5,-0.59375 0.29688,-0.26562 z" />
          <title id="title5375">$A$</title>
          <desc id="desc5377">text3 = &quot;$A$&quot;</desc>
        </g>
      </g>
    </g>
  </g>
</svg>