<?xml version='1.0' ?><svg xmlns:dc="http://purl.org/dc/elements/1.1/" xmlns:cc="http://creativecommons.org/ns#" xmlns:rdf="http://www.w3.org/1999/02/22-rdf-syntax-ns#" xmlns:svg="http://www.w3.org/2000/svg" xmlns="http://www.w3.org/2000/svg" id="svg8954" version="1.1" width="277.71361" height="258.03262" viewBox="80.18693440377882 1819.7135142278896 640.8346379551439 595.4200106300776" preserveAspectRatio="none">
  <metadata id="metadata9514">
    <rdf:RDF>
      <cc:Work rdf:about="">
        <dc:format>image/svg+xml</dc:format>
        <dc:type rdf:resource="http://purl.org/dc/dcmitype/StillImage" />
      </cc:Work>
    </rdf:RDF>
  </metadata>
  <defs id="defs9512">
    <clipPath id="clip1">
      <path d="m 0,0 0,509 574,0 0,-509 z" id="path8961" />
    </clipPath>
    <clipPath id="clip2">
      <path d="m 0,0 0,509 574,0 0,-509 z" id="path8970" />
    </clipPath>
    <clipPath id="clip3">
      <path d="m 0,0 0,509 574,0 0,-509 z" id="path8979" />
    </clipPath>
    <clipPath id="clip4">
      <path d="m 0,0 0,509 574,0 0,-509 z" id="path8988" />
    </clipPath>
    <clipPath id="clip5">
      <path d="m 0,0 0,509 574,0 0,-509 z" id="path8997" />
    </clipPath>
    <clipPath id="clip6">
      <path d="m 0,0 0,509 574,0 0,-509 z" id="path9006" />
    </clipPath>
    <clipPath id="clip7">
      <path d="m 0,0 0,509 574,0 0,-509 z" id="path9015" />
    </clipPath>
    <clipPath id="clip8">
      <path d="m 0,0 0,509 574,0 0,-509 z" id="path9024" />
    </clipPath>
    <clipPath id="clip9">
      <path id="path9035" d="m 0,0 0,509 574,0 0,-509 z" />
    </clipPath>
    <clipPath id="clip10">
      <path id="path9048" d="m 0,0 0,509 574,0 0,-509 z" />
    </clipPath>
    <clipPath id="clip11">
      <path id="path9061" d="m 0,0 0,509 574,0 0,-509 z" />
    </clipPath>
    <clipPath id="clip12">
      <path id="path9074" d="m 0,0 0,509 574,0 0,-509 z" />
    </clipPath>
    <clipPath id="clip13">
      <path id="path9087" d="m 0,0 0,509 574,0 0,-509 z" />
    </clipPath>
    <clipPath id="clip14">
      <path id="path9100" d="m 0,0 0,509 574,0 0,-509 z" />
    </clipPath>
    <clipPath id="clip15">
      <path id="path9113" d="m 0,0 0,509 574,0 0,-509 z" />
    </clipPath>
    <clipPath id="clip18">
      <path id="path9154" d="m 0,0 0,509 574,0 0,-509 z" />
    </clipPath>
    <clipPath id="clip19">
      <path id="path9167" d="m 0,0 0,509 574,0 0,-509 z" />
    </clipPath>
    <clipPath id="clip20">
      <path id="path9180" d="m 0,0 0,509 574,0 0,-509 z" />
    </clipPath>
    <clipPath id="clip22">
      <path id="path9208" d="m 0,0 0,509 574,0 0,-509 z" />
    </clipPath>
    <clipPath id="clip23">
      <path id="path9221" d="m 0,0 0,509 574,0 0,-509 z" />
    </clipPath>
    <clipPath id="clip25">
      <path id="path9249" d="m 0,0 0,509 574,0 0,-509 z" />
    </clipPath>
    <clipPath id="clip26">
      <path id="path9262" d="m 0,0 0,509 574,0 0,-509 z" />
    </clipPath>
    <clipPath id="clip39">
      <path id="path9455" d="m 0,0 0,509 574,0 0,-509 z" />
    </clipPath>
    <clipPath id="clip40">
      <path id="path9468" d="m 0,0 0,509 574,0 0,-509 z" />
    </clipPath>
  </defs>
  <title id="title8956" />
  <g transform="matrix(1.2,0,0,1.2,0,1816.0228)" id="misc" style="stroke-width:1;stroke-linecap:square;stroke-linejoin:miter;stroke-miterlimit:10;stroke-dasharray:none;stroke-dashoffset:0" />
  <g transform="matrix(1.6409213,0,0,1.6409213,491.49771,1861.5556)" id="misc-2" style="stroke-width:1;stroke-linecap:square;stroke-linejoin:miter;stroke-miterlimit:10;stroke-dasharray:none;stroke-dashoffset:0" />
  <g id="g12320">
    <g style="stroke-width:1;stroke-linecap:square;stroke-linejoin:miter;stroke-miterlimit:10;stroke-dasharray:none;stroke-dashoffset:0" id="g8963" clip-path="url(#clip1)" transform="matrix(1.2,0,0,1.174348,0,1816.0997)">
      <g style="fill:none;stroke:#000000;stroke-width:2;stroke-linecap:butt;stroke-opacity:1" id="g8965">
        <path id="path8967" d="m 276.49,3 0,506" />
      </g>
    </g>
    <g style="stroke-width:1;stroke-linecap:square;stroke-linejoin:miter;stroke-miterlimit:10;stroke-dasharray:none;stroke-dashoffset:0" id="g8972" clip-path="url(#clip2)" transform="matrix(1.2,0,0,1.2,0,1816.0228)">
      <g style="fill:#000000;fill-opacity:1;fill-rule:evenodd;stroke:none" id="g8974">
        <path id="path8976" d="m 276.49,2 -5,20 10,0" />
      </g>
    </g>
    <g id="g12312" transform="translate(-4.6150755,0)">
      <g transform="matrix(1.0712818,0,0,1.2,84.802008,1816.0228)" clip-path="url(#clip3)" id="g8981" style="stroke-width:1;stroke-linecap:square;stroke-linejoin:miter;stroke-miterlimit:10;stroke-dasharray:none;stroke-dashoffset:0">
        <g id="g8983" style="fill:none;stroke:#000000;stroke-width:2;stroke-linecap:butt;stroke-opacity:1">
          <path d="m 0,259.93 571,0" id="path8985" />
        </g>
      </g>
      <g transform="matrix(1.2,0,0,1.2,28.123116,1816.0228)" clip-path="url(#clip4)" id="g8990" style="stroke-width:1;stroke-linecap:square;stroke-linejoin:miter;stroke-miterlimit:10;stroke-dasharray:none;stroke-dashoffset:0">
        <g id="g8992" style="fill:#000000;fill-opacity:1;fill-rule:evenodd;stroke:none">
          <path d="m 572,259.93 -20,-5 0,10" id="path8994" />
        </g>
      </g>
    </g>
    <g style="stroke-width:1;stroke-linecap:square;stroke-linejoin:miter;stroke-miterlimit:10;stroke-dasharray:none;stroke-dashoffset:0" id="g8999" clip-path="url(#clip5)" transform="matrix(1.2,0,0,1.2,0,1816.0228)">
      <g style="fill:none;stroke:#000000;stroke-width:2;stroke-linecap:butt;stroke-opacity:1" id="g9001">
        <path id="path9003" d="m 104.19,259.93 0,3" />
      </g>
    </g>
    <g style="stroke-width:1;stroke-linecap:square;stroke-linejoin:miter;stroke-miterlimit:10;stroke-dasharray:none;stroke-dashoffset:0" id="g9008" clip-path="url(#clip6)" transform="matrix(1.2,0,0,1.2,0,1816.0228)">
      <g style="fill:none;stroke:#000000;stroke-width:2;stroke-linecap:butt;stroke-opacity:1" id="g9010">
        <path id="path9012" d="m 448.79,259.93 0,3" />
      </g>
    </g>
    <g style="stroke-width:1;stroke-linecap:square;stroke-linejoin:miter;stroke-miterlimit:10;stroke-dasharray:none;stroke-dashoffset:0" id="g9017" clip-path="url(#clip7)" transform="matrix(1.2,0,0,1.2,0,1816.0228)">
      <g style="fill:none;stroke:#000000;stroke-width:2;stroke-linecap:butt;stroke-opacity:1" id="g9019">
        <path id="path9021" d="m 273.49,432.23 3,0" />
      </g>
    </g>
    <g style="stroke-width:1;stroke-linecap:square;stroke-linejoin:miter;stroke-miterlimit:10;stroke-dasharray:none;stroke-dashoffset:0" id="g9026" clip-path="url(#clip8)" transform="matrix(1.2,0,0,1.2,0,1816.0228)">
      <g style="fill:none;stroke:#000000;stroke-width:2;stroke-linecap:butt;stroke-opacity:1" id="g9028">
        <path id="path9030" d="m 273.49,87.633 3,0" />
      </g>
    </g>
    <g style="stroke-width:1;stroke-linecap:square;stroke-linejoin:miter;stroke-miterlimit:10;stroke-dasharray:none;stroke-dashoffset:0" clip-path="url(#clip9)" id="g9037" transform="matrix(1.2,0,0,1.2,0,1816.0228)">
      <g id="g9039" style="fill:none;stroke:#000000;stroke-width:2;stroke-linecap:round;stroke-linejoin:round;stroke-opacity:1">
        <path d="m 448.79,259.93 c 0,95.16 -77.14,172.3 -172.3,172.3 -95.16,0 -172.3,-77.14 -172.3,-172.3 0,-95.16 77.14,-172.297 172.3,-172.297 95.16,0 172.3,77.137 172.3,172.297 z" id="path9041" />
        <title id="title9043">Circle c</title>
        <desc id="desc9045">Circle c: Circle through B with center A</desc>
      </g>
    </g>
    <g style="stroke-width:1;stroke-linecap:square;stroke-linejoin:miter;stroke-miterlimit:10;stroke-dasharray:none;stroke-dashoffset:0" clip-path="url(#clip10)" id="g9050" transform="matrix(1.2,0,0,1.2,0,1816.0228)">
      <g id="g9052" style="fill:#444444;fill-opacity:0.09803898;fill-rule:evenodd;stroke:none">
        <path d="m 276.49,259.93 17.89,-11.4 -11.4,-17.89 -17.89,11.4 11.4,17.89" id="path9054" />
        <title id="title9056">Angle Ã&#131;Â&#142;Ã&#130;Â±</title>
        <desc id="desc9058">Angle Ã&#131;Â&#142;Ã&#130;Â±: Angle between a, a&#39;_1</desc>
      </g>
    </g>
    <g style="stroke-width:1;stroke-linecap:square;stroke-linejoin:miter;stroke-miterlimit:10;stroke-dasharray:none;stroke-dashoffset:0" clip-path="url(#clip11)" id="g9063" transform="matrix(1.2,0,0,1.2,0,1816.0228)">
      <g id="g9065" style="fill:none;stroke:#444444;stroke-linecap:round;stroke-linejoin:round;stroke-opacity:1">
        <path d="m 276.49,259.93 17.89,-11.4 -11.4,-17.89 -17.89,11.4 11.4,17.89" id="path9067" />
        <title id="title9069">Angle Ã&#131;Â&#142;Ã&#130;Â±</title>
        <desc id="desc9071">Angle Ã&#131;Â&#142;Ã&#130;Â±: Angle between a, a&#39;_1</desc>
      </g>
    </g>
    <g style="stroke-width:1;stroke-linecap:square;stroke-linejoin:miter;stroke-miterlimit:10;stroke-dasharray:none;stroke-dashoffset:0" clip-path="url(#clip12)" id="g9076" transform="matrix(1.2,0,0,1.2,0,1816.0228)">
      <g id="g9078" style="fill:#000000;fill-opacity:0.09803898;fill-rule:evenodd;stroke:none">
        <path d="m 421.78,167.32 -11.4,-17.89 -17.89,11.4 11.41,17.89 17.88,-11.4" id="path9080" />
        <title id="title9082">Angle Ã&#131;Â&#142;Ã&#130;Â²</title>
        <desc id="desc9084">Angle Ã&#131;Â&#142;Ã&#130;Â²: Angle between A&#39;_2, C, A</desc>
      </g>
    </g>
    <g style="stroke-width:1;stroke-linecap:square;stroke-linejoin:miter;stroke-miterlimit:10;stroke-dasharray:none;stroke-dashoffset:0" clip-path="url(#clip13)" id="g9089" transform="matrix(1.2,0,0,1.2,0,1816.0228)">
      <g id="g9091" style="fill:none;stroke:#000000;stroke-linecap:round;stroke-linejoin:round;stroke-opacity:1">
        <path d="m 421.78,167.32 -11.4,-17.89 -17.89,11.4 11.41,17.89 17.88,-11.4" id="path9093" />
        <title id="title9095">Angle Ã&#131;Â&#142;Ã&#130;Â²</title>
        <desc id="desc9097">Angle Ã&#131;Â&#142;Ã&#130;Â²: Angle between A&#39;_2, C, A</desc>
      </g>
    </g>
    <g style="stroke-width:1;stroke-linecap:square;stroke-linejoin:miter;stroke-miterlimit:10;stroke-dasharray:none;stroke-dashoffset:0" clip-path="url(#clip14)" id="g9102" transform="matrix(1.2,0,0,1.2,0,1816.0228)">
      <g id="g9104" style="fill:#2b83ba;fill-opacity:0.09803898;fill-rule:nonzero;stroke:none">
        <path d="m 306.49,259.93 c 0,-5.71 -1.63,-11.31 -4.7,-16.12 l -25.3,16.12 z" id="path9106" />
        <title id="title9108">Angle Ã&#131;Â&#142;Ã&#130;Â³</title>
        <desc id="desc9110">Angle Ã&#131;Â&#142;Ã&#130;Â³: Angle between B, A, C</desc>
      </g>
    </g>
    <g style="stroke-width:1;stroke-linecap:square;stroke-linejoin:miter;stroke-miterlimit:10;stroke-dasharray:none;stroke-dashoffset:0" clip-path="url(#clip15)" id="g9115" transform="matrix(1.2,0,0,1.2,0,1816.0228)">
      <g id="g9117" style="fill:none;stroke:#2b83ba;stroke-linecap:round;stroke-linejoin:round;stroke-opacity:1">
        <path d="m 306.49,259.93 c 0,-5.71 -1.63,-11.31 -4.7,-16.12 l -25.3,16.12 z" id="path9119" />
        <title id="title9121">Angle Ã&#131;Â&#142;Ã&#130;Â³</title>
        <desc id="desc9123">Angle Ã&#131;Â&#142;Ã&#130;Â³: Angle between B, A, C</desc>
      </g>
    </g>
    <g style="stroke-width:1;stroke-linecap:square;stroke-linejoin:miter;stroke-miterlimit:10;stroke-dasharray:none;stroke-dashoffset:0" transform="matrix(37.8,0,0,37.8,384.8182,2120.5299)" id="g9125">
      <clipPath id="clip16">
        <path d="m -15.095,-12.091 0,24.238 27.333,0 0,-24.238 z" id="path9128" />
      </clipPath>
      <g clip-path="url(#clip16)" id="g9130">
        <g id="g9132" style="fill:#2b83ba;fill-opacity:1;fill-rule:nonzero;stroke:none">
          <path d="M 0.20312,-0.40625 0.125,-0.10938 q 0,0.031255 0,0.04688 0,0.046875 0.03125,0.046875 0.0625,0 0.10937,-0.093755 l 0.01563,-0.03124 q 0.01563,-0.01563 0.01563,-0.01563 0.01562,0 0.01562,0.01563 0,0.01562 -0.03125,0.04687 -0.04687,0.109375 -0.125,0.109375 -0.0625,0 -0.078125,-0.046875 Q 0.0625,-0.0625 0.0625,-0.078125 q 0,-0.015625 0.0625,-0.265625 l 0.01562,-0.0625 -0.093745,0 q -0.015625,0 -0.015625,0 l -0.015625,0 0,0 q 0,-0.01563 0.015625,-0.03125 l 0.015625,0 0.093745,0 0.04688,-0.15625 q 0,-0.03125 0.03125,-0.03125 0.03125,0 0.03125,0.03125 0,0 -0.03125,0.15625 l 0.07813,0 q 0.03124,0 0.03124,0.01562 0,0.01563 -0.01562,0.01563 l 0,0 -0.01562,0 -0.09376,0 z" id="path9134" />
          <title id="title9136">Angle Ã&#131;Â&#142;Ã&#130;Â³</title>
          <desc id="desc9138">Angle Ã&#131;Â&#142;Ã&#130;Â³: Angle between B, A, C</desc>
        </g>
      </g>
    </g>
    <g style="fill:none;stroke:#2b83ba;stroke-width:2.5;stroke-linecap:round;stroke-linejoin:round;stroke-miterlimit:10;stroke-opacity:1;stroke-dasharray:none;stroke-dashoffset:0" id="g9145" transform="matrix(1.2,0,0,1.2,0,1816.0228)">
      <path id="path9147" d="M 276.49,259.93 421.78,167.32" />
      <title id="title9149">Segment a</title>
      <desc id="desc9151">Segment a: Segment [A, C]</desc>
    </g>
    <g style="stroke-width:1;stroke-linecap:square;stroke-linejoin:miter;stroke-miterlimit:10;stroke-dasharray:none;stroke-dashoffset:0" clip-path="url(#clip18)" id="g9156" transform="matrix(1.2,0,0,1.2,0,1816.0228)">
      <g id="g9158" style="fill:none;stroke:#2b83ba;stroke-width:2.5;stroke-linecap:round;stroke-linejoin:round;stroke-opacity:1">
        <path d="M 276.49,259.93 183.88,114.64" id="path9160" />
        <title id="title9162">Segment a&#39;_1</title>
        <desc id="desc9164">Segment a&#39;_1: Segment [A&#39;_1, C&#39;_1]</desc>
      </g>
    </g>
    <g style="stroke-width:1;stroke-linecap:square;stroke-linejoin:miter;stroke-miterlimit:10;stroke-dasharray:none;stroke-dashoffset:0" clip-path="url(#clip19)" id="g9169" transform="matrix(1.2,0,0,1.2,0,1816.0228)">
      <g id="g9171" style="fill:none;stroke:#d7191c;stroke-width:2.5;stroke-linecap:round;stroke-linejoin:round;stroke-opacity:1">
        <path d="M 421.78,167.32 338.31,36.363" id="path9173" />
        <title id="title9175">Vector u</title>
        <desc id="desc9177">Vector u: Vector[C, A&#39;]</desc>
      </g>
    </g>
    <g style="stroke-width:1;stroke-linecap:square;stroke-linejoin:miter;stroke-miterlimit:10;stroke-dasharray:none;stroke-dashoffset:0" clip-path="url(#clip20)" id="g9182" transform="matrix(1.2,0,0,1.2,0,1816.0228)">
      <g id="g9184" style="fill:#d7191c;fill-opacity:1;fill-rule:evenodd;stroke:none">
        <path d="m 329.17,22.027 12.72,12.051 -7.17,4.569 z" id="path9186" />
        <title id="title9188">Vector u</title>
        <desc id="desc9190">Vector u: Vector[C, A&#39;]</desc>
      </g>
    </g>
    <g style="stroke-width:1;stroke-linecap:square;stroke-linejoin:miter;stroke-miterlimit:10;stroke-dasharray:none;stroke-dashoffset:0" transform="matrix(37.8,0,0,37.8,448.40625,1912.4224)" id="g9192">
      <clipPath id="clip21">
        <path d="m -17.81,-3.8254 0,24.2384 27.3338,0 0,-24.2384 z" id="path9195" />
      </clipPath>
      <g clip-path="url(#clip21)" id="g9197">
        <g id="g9199" style="fill:#d7191c;fill-opacity:1;fill-rule:nonzero;stroke:none">
          <path d="M 0.5,-0.375 0.34375,-0.015625 Q 0.32812,0 0.30469,0 0.28125,0 0.26562,-0.015625 l -0.17187,-0.374995 -0.0625,0 0,-0.04688 q 0,0 0.046875,0 0.046875,0 0.062495,0 0.07813,0 0.125,0 l 0,0.04688 -0.0625,0 0.14063,0.26562 0.10937,-0.25 q 0,-0.01562 0,-0.01562 0,0 -0.04687,0 l 0,-0.04688 q 0.0625,0 0.09375,0 0.04688,0 0.07812,0 l 0,0.04688 q -0.04687,0 -0.05468,0 -0.00782,0 -0.02344,0.01562 z" id="path9201" />
          <title id="title9203">Vector u</title>
          <desc id="desc9205">Vector u: Vector[C, A&#39;]</desc>
        </g>
      </g>
    </g>
    <g style="stroke-width:1;stroke-linecap:square;stroke-linejoin:miter;stroke-miterlimit:10;stroke-dasharray:none;stroke-dashoffset:0" clip-path="url(#clip22)" id="g9210" transform="matrix(1.2,0,0,1.2,0,1816.0228)">
      <g id="g9212" style="fill:#2b83ba;fill-opacity:1;fill-rule:nonzero;stroke:none">
        <path d="m 277.49,259.93 c 0,0.55 -0.45,1 -1,1 -0.55,0 -1,-0.45 -1,-1 0,-0.55 0.45,-1 1,-1 0.55,0 1,0.45 1,1 z" id="path9214" />
        <title id="title9216">Point A</title>
        <desc id="desc9218">Point A: Point on yAxis</desc>
      </g>
    </g>
    <g style="stroke-width:1;stroke-linecap:square;stroke-linejoin:miter;stroke-miterlimit:10;stroke-dasharray:none;stroke-dashoffset:0" clip-path="url(#clip23)" id="g9223" transform="matrix(1.2,0,0,1.2,0,1816.0228)">
      <g id="g9225" style="fill:none;stroke:#000000;stroke-linecap:round;stroke-linejoin:round;stroke-opacity:1">
        <path d="m 277.49,259.93 c 0,0.55 -0.45,1 -1,1 -0.55,0 -1,-0.45 -1,-1 0,-0.55 0.45,-1 1,-1 0.55,0 1,0.45 1,1 z" id="path9227" />
        <title id="title9229">Point A</title>
        <desc id="desc9231">Point A: Point on yAxis</desc>
      </g>
    </g>
    <g style="fill:#000000;fill-opacity:1;stroke-width:1;stroke-linecap:square;stroke-linejoin:miter;stroke-miterlimit:10;stroke-dasharray:none;stroke-dashoffset:0" transform="matrix(37.8,0,0,37.8,299.5943,2161.661)" id="g9233">
      <clipPath id="clip24">
        <path d="m -12.095,-13.54 0,24.238 27.333,0 0,-24.238 z" id="path9236" />
      </clipPath>
      <g clip-path="url(#clip24)" id="g9238" style="fill:#000000;fill-opacity:1">
        <g id="g9240" style="fill:#000000;fill-opacity:1;fill-rule:nonzero;stroke:none">
          <path d="m 0.73438,-0.4375 0,0 q 0,0.15625 -0.10938,0.28125 -0.09375,0.125 -0.23438,0.171875 -0.04687,0 -0.07812,0 -0.125,0 -0.20312,-0.078125 -0.062505,-0.07812 -0.062505,-0.1875 0,-0.14062 0.109375,-0.28125 0.09375,-0.125 0.23437,-0.15625 0.04688,-0.01562 0.09376,-0.01562 0.125,0 0.20312,0.09374 0.04688,0.0625 0.04688,0.17188 z M 0.3125,0 l 0,0 Q 0.40625,0 0.48438,-0.09375 0.51562,-0.10938 0.53125,-0.125 0.625,-0.25 0.64062,-0.42188 q 0.01563,-0.03124 0.01563,-0.04687 0,-0.14063 -0.09375,-0.1875 0,0 0,0 -0.04688,-0.03125 -0.07812,-0.03125 -0.09376,0 -0.1875,0.09375 -0.03126,0.03125 -0.0625,0.0625 -0.07813,0.125 -0.09376,0.28125 0,0.01562 0,0.03125 0,0.125 0.07813,0.1875 Q 0.26562,0 0.3125,0 z" id="path9242" style="fill:#000000;fill-opacity:1" />
          <title id="title9244">Point A</title>
          <desc id="desc9246">Point A: Point on yAxis</desc>
        </g>
      </g>
    </g>
    <g style="stroke-width:1;stroke-linecap:square;stroke-linejoin:miter;stroke-miterlimit:10;stroke-dasharray:none;stroke-dashoffset:0" clip-path="url(#clip25)" id="g9251" transform="matrix(1.2,0,0,1.2,0,1816.0228)">
      <g id="g9253" style="fill:#2b83ba;fill-opacity:1;fill-rule:nonzero;stroke:none">
        <path d="m 424.78,167.32 c 0,1.66 -1.34,3 -3,3 -1.65,0 -3,-1.34 -3,-3 0,-1.66 1.35,-3 3,-3 1.66,0 3,1.34 3,3 z" id="path9255" />
        <title id="title9257">Point C</title>
        <desc id="desc9259">Point C: Point on c</desc>
      </g>
    </g>
    <g style="stroke-width:1;stroke-linecap:square;stroke-linejoin:miter;stroke-miterlimit:10;stroke-dasharray:none;stroke-dashoffset:0" clip-path="url(#clip26)" id="g9264" transform="matrix(1.2,0,0,1.2,0,1816.0228)">
      <g id="g9266" style="fill:none;stroke:#000000;stroke-linecap:round;stroke-linejoin:round;stroke-opacity:1">
        <path d="m 424.78,167.32 c 0,1.66 -1.34,3 -3,3 -1.65,0 -3,-1.34 -3,-3 0,-1.66 1.35,-3 3,-3 1.66,0 3,1.34 3,3 z" id="path9268" />
        <title id="title9270">Point C</title>
        <desc id="desc9272">Point C: Point on c</desc>
      </g>
    </g>
    <g id="g10068" transform="matrix(1.5,0,0,1.5,-265.6057,-1013.6114)">
      <g id="g9274" transform="matrix(25.2,0,0,25.2,520.8,2020.9228)" style="stroke-width:1;stroke-linecap:square;stroke-linejoin:miter;stroke-miterlimit:10;stroke-dasharray:none;stroke-dashoffset:0">
        <clipPath id="clip27">
          <path id="path9277" d="m -20.667,-8.131 0,24.238 27.3337,0 0,-24.238 z" />
        </clipPath>
        <g id="g9279" clip-path="url(#clip27)">
          <g style="fill:#2b83ba;fill-opacity:1;fill-rule:nonzero;stroke:none" id="g9281">
            <path id="path9283" d="m 0.29688,-0.3125 0,0 -0.0625,0.25 0,0.015625 q 0,0.015625 0.04687,0.015625 l 0,0 0,0 0.01563,0 q 0.03124,0 0.03124,0.015625 Q 0.32812,0 0.3125,0 L 0.25,0 l 0,0 -0.0625,0 0,0 -0.125,0 0,0 q -0.015625,0 -0.015625,-0.015625 0,-0.015625 0.015625,-0.015625 l 0,0 q 0.07812,0 0.07812,-0.015625 0.01563,0 0.01563,-0.03125 0,0 0,0 L 0.29688,-0.60938 q 0,-0.01562 0,-0.03124 0,0 -0.01563,-0.01563 l 0,0 0,0 q 0,0 0,0 -0.03125,0 -0.04687,0 -0.03126,0 -0.03126,0 0,0 0,0 0,-0.03125 0.01563,-0.03125 l 0,0 0.01563,0 0.32812,0 q 0.10938,0 0.17188,0.07812 0.01562,0.03126 0.01562,0.07813 0,0.07813 -0.07812,0.14063 -0.09376,0.07812 -0.20313,0.07812 l -0.17187,0 z m 0.07812,-0.29688 -0.0625,0.26563 0.14062,0 q 0.09376,0 0.15626,-0.04687 0.03124,-0.04688 0.04687,-0.125 l 0,0 q 0,-0.03126 0,-0.04688 0,-0.09375 -0.125,-0.09375 l -0.10937,0 q -0.03126,0 -0.03126,0.01563 l 0,0 0,0 0,0 0,0 q -0.01562,0 -0.01562,0.03124 z" />
            <title id="title9285">Point C</title>
            <desc id="desc9287">Point C: Point on c</desc>
          </g>
        </g>
      </g>
      <g id="g9289" transform="matrix(25.2,0,0,25.2,536.976,2020.9228)" style="stroke-width:1;stroke-linecap:square;stroke-linejoin:miter;stroke-miterlimit:10;stroke-dasharray:none;stroke-dashoffset:0">
        <clipPath id="clip28">
          <path id="path9292" d="m -21.309,-8.131 0,24.238 27.3337,0 0,-24.238 z" />
        </clipPath>
        <g id="g9294" clip-path="url(#clip28)">
          <g style="fill:#2b83ba;fill-opacity:1;fill-rule:nonzero;stroke:none" id="g9296">
            <path id="path9298" d="m 0.32812,0.23438 0,0 q 0,0.01562 0,0.01562 Q 0.3125,0.25 0.26562,0.20312 0.20312,0.14062 0.17188,0.0625 0.09375,-0.078125 0.09375,-0.25 q 0,-0.17188 0.0625,-0.3125 0.0625,-0.10938 0.14063,-0.17188 Q 0.3125,-0.75 0.32812,-0.75 q 0,0 0,0.01562 0,0 -0.01562,0.01563 -0.15625,0.15625 -0.15625,0.46875 0,0.3125 0.15625,0.46875 0.01562,0.01563 0.01562,0.01563 z" />
            <title id="title9300">Point C</title>
            <desc id="desc9302">Point C: Point on c</desc>
          </g>
        </g>
      </g>
      <g id="g9304" transform="matrix(25.2,0,0,25.2,546.78,2020.9228)" style="stroke-width:1;stroke-linecap:square;stroke-linejoin:miter;stroke-miterlimit:10;stroke-dasharray:none;stroke-dashoffset:0">
        <clipPath id="clip29">
          <path id="path9307" d="m -21.698,-8.131 0,24.238 27.3338,0 0,-24.238 z" />
        </clipPath>
        <g id="g9309" clip-path="url(#clip29)">
          <g style="fill:#2b83ba;fill-opacity:1;fill-rule:nonzero;stroke:none" id="g9311">
            <path id="path9313" d="M 0.35938,-0.39062 Q 0.32812,-0.42188 0.25,-0.42188 q -0.0625,0 -0.09375,0.0625 -0.04687,0.04688 -0.04687,0.14063 0,0.140625 0.09374,0.1875 0.03126,0.015625 0.0625,0.015625 0.09376,0 0.125,-0.109375 0,0 0.01563,0 0.01563,0 0.01563,0 0,0.03125 -0.03126,0.0625 Q 0.34375,0.015625 0.25,0.015625 q -0.09375,0 -0.15625,-0.078125 -0.0625,-0.0625 -0.0625,-0.15625 0,-0.09375 0.07813,-0.17187 0.0625,-0.0625 0.14062,-0.0625 0.07812,0 0.125,0.04687 0.03125,0.03125 0.03125,0.0625 0,0.04687 -0.03125,0.04687 -0.01562,0 -0.01562,0 -0.03126,0 -0.04688,-0.03124 0,0 0,-0.01563 0,-0.03125 0.03125,-0.04687 0.01563,0 0.01563,0 z" />
            <title id="title9315">Point C</title>
            <desc id="desc9317">Point C: Point on c</desc>
          </g>
        </g>
      </g>
      <g id="g9319" transform="matrix(25.2,0,0,25.2,557.976,2020.9228)" style="stroke-width:1;stroke-linecap:square;stroke-linejoin:miter;stroke-miterlimit:10;stroke-dasharray:none;stroke-dashoffset:0">
        <clipPath id="clip30">
          <path id="path9322" d="m -22.142,-8.131 0,24.238 27.3333,0 0,-24.238 z" />
        </clipPath>
        <g id="g9324" clip-path="url(#clip30)">
          <g style="fill:#2b83ba;fill-opacity:1;fill-rule:nonzero;stroke:none" id="g9326">
            <path id="path9328" d="m 0.46875,-0.21875 0,0 q 0,0.10937 -0.07813,0.171875 -0.0625,0.0625 -0.14062,0.0625 -0.09375,0 -0.15625,-0.078125 -0.0625,-0.0625 -0.0625,-0.15625 0,-0.09375 0.0625,-0.17187 0.0625,-0.0625 0.15625,-0.0625 0.09375,0 0.15625,0.07812 0.0625,0.07812 0.0625,0.15625 z M 0.25,-0.015625 l 0,0 q 0.0625,0 0.10938,-0.046875 l 0,-0.03125 q 0.03124,-0.03125 0.03124,-0.125 0,-0.09375 -0.03124,-0.14063 -0.04688,-0.0625 -0.10938,-0.0625 -0.0625,0 -0.10938,0.04688 0,0 0,0.01562 -0.03124,0.04688 -0.03124,0.14063 0,0.09375 0.03124,0.140625 0.03126,0.0625 0.10938,0.0625 z" />
            <title id="title9330">Point C</title>
            <desc id="desc9332">Point C: Point on c</desc>
          </g>
        </g>
      </g>
      <g id="g9334" transform="matrix(25.2,0,0,25.2,570.576,2020.9228)" style="stroke-width:1;stroke-linecap:square;stroke-linejoin:miter;stroke-miterlimit:10;stroke-dasharray:none;stroke-dashoffset:0">
        <clipPath id="clip31">
          <path id="path9337" d="m -22.642,-8.131 0,24.238 27.3333,0 0,-24.238 z" />
        </clipPath>
        <g id="g9339" clip-path="url(#clip31)">
          <g style="fill:#2b83ba;fill-opacity:1;fill-rule:nonzero;stroke:none" id="g9341">
            <path id="path9343" d="m 0.20312,-0.1875 0,0 Q 0.125,-0.21875 0.09375,-0.23438 q -0.015625,0 -0.015625,0 -0.046875,-0.04687 -0.046875,-0.09374 0,-0.0625 0.0625,-0.09376 0.04687,-0.03124 0.09375,-0.03124 0.0625,0 0.09375,0.03124 0.01563,0 0.01563,-0.01562 0.01562,-0.01562 0.03124,-0.01562 0,0.01562 0,0.03124 l 0,0.09376 q 0,0.03124 0,0.03124 l 0,0 0,0 0,0 q -0.01562,0 -0.01562,-0.01562 -0.01562,-0.09375 -0.07812,-0.10938 -0.01563,0 -0.04688,0 -0.09375,0 -0.109375,0.04688 0,0.01562 0,0.01562 0,0.0625 0.078125,0.07813 0.01563,0 0.04687,0.01563 0.07813,0.01562 0.10938,0.03124 0,0 0,0.01563 0.04688,0.03125 0.04688,0.09375 0,0.078125 -0.0625,0.109375 -0.04688,0.03125 -0.09376,0.03125 -0.0625,0 -0.10937,-0.046875 L 0.0625,-0.015625 Q 0.046875,0.015625 0.046875,0.015625 0.03125,0 0.03125,-0.015625 l 0,-0.124995 q 0,-0.03126 0.015625,-0.03126 l 0,0 0,0 0,0 q 0.015625,0 0.015625,0.01563 0,0 0,0 0.03125,0.125 0.09375,0.140625 0.01563,0 0.04687,0 0.07813,0 0.10938,-0.0625 0,-0.015625 0,-0.031255 0,-0.0625 -0.10938,-0.07812 z" />
            <title id="title9345">Point C</title>
            <desc id="desc9347">Point C: Point on c</desc>
          </g>
        </g>
      </g>
      <g id="g9349" transform="matrix(25.2,0,0,25.2,584.724,2020.9228)" style="stroke-width:1;stroke-linecap:square;stroke-linejoin:miter;stroke-miterlimit:10;stroke-dasharray:none;stroke-dashoffset:0">
        <clipPath id="clip32">
          <path id="path9352" d="m -23.203,-8.131 0,24.238 27.3332,0 0,-24.238 z" />
        </clipPath>
        <g id="g9354" clip-path="url(#clip32)">
          <g style="fill:#2b83ba;fill-opacity:1;fill-rule:nonzero;stroke:none" id="g9356">
            <path id="path9358" d="M 0.20312,-0.40625 0.125,-0.10938 q 0,0.031255 0,0.04688 0,0.046875 0.03125,0.046875 0.0625,0 0.10937,-0.093755 l 0.01563,-0.03124 q 0.01563,-0.01563 0.01563,-0.01563 0.01562,0 0.01562,0.01563 0,0.01562 -0.03125,0.04687 -0.04687,0.109375 -0.125,0.109375 -0.0625,0 -0.078125,-0.046875 Q 0.0625,-0.0625 0.0625,-0.078125 q 0,-0.015625 0.0625,-0.265625 l 0.01562,-0.0625 -0.093745,0 q -0.015625,0 -0.015625,0 l -0.015625,0 0,0 q 0,-0.01563 0.015625,-0.03125 l 0.015625,0 0.093745,0 0.04688,-0.15625 q 0,-0.03125 0.03125,-0.03125 0.03125,0 0.03125,0.03125 0,0 -0.03125,0.15625 l 0.07813,0 q 0.03124,0 0.03124,0.01562 0,0.01563 -0.01562,0.01563 l 0,0 -0.01562,0 -0.09376,0 z" />
            <title id="title9360">Point C</title>
            <desc id="desc9362">Point C: Point on c</desc>
          </g>
        </g>
      </g>
      <g id="g9364" transform="matrix(25.2,0,0,25.2,593.82,2020.9228)" style="stroke-width:1;stroke-linecap:square;stroke-linejoin:miter;stroke-miterlimit:10;stroke-dasharray:none;stroke-dashoffset:0">
        <clipPath id="clip33">
          <path id="path9367" d="m -23.564,-8.131 0,24.238 27.3331,0 0,-24.238 z" />
        </clipPath>
        <g id="g9369" clip-path="url(#clip33)">
          <g style="fill:#2b83ba;fill-opacity:1;fill-rule:nonzero;stroke:none" id="g9371">
            <path id="path9373" d="m 0.20312,0 0,0 q 0,0.09375 -0.0625,0.17188 Q 0.125,0.1875 0.10938,0.1875 q 0,0 0,0 0,-0.01562 0,-0.01562 0.0625,-0.0625 0.07812,-0.156255 0,0 0,-0.015625 0,-0.015625 -0.01562,-0.015625 0,0 0,0 Q 0.15625,0 0.14062,0 0.10938,0 0.09375,-0.03125 q 0,-0.015625 0,-0.015625 0,-0.046875 0.01563,-0.062505 0.01562,0 0.03124,0 0.04688,0 0.0625,0.062505 0,0.015625 0,0.046875 z" />
            <title id="title9375">Point C</title>
            <desc id="desc9377">Point C: Point on c</desc>
          </g>
        </g>
      </g>
      <g id="g9379" transform="matrix(25.2,0,0,25.2,606.42,2020.9228)" style="stroke-width:1;stroke-linecap:square;stroke-linejoin:miter;stroke-miterlimit:10;stroke-dasharray:none;stroke-dashoffset:0">
        <clipPath id="clip34">
          <path id="path9382" d="m -24.064,-8.131 0,24.238 27.3331,0 0,-24.238 z" />
        </clipPath>
        <g id="g9384" clip-path="url(#clip34)">
          <g style="fill:#2b83ba;fill-opacity:1;fill-rule:nonzero;stroke:none" id="g9386">
            <path id="path9388" d="m 0.20312,-0.1875 0,0 Q 0.125,-0.21875 0.09375,-0.23438 q -0.015625,0 -0.015625,0 -0.046875,-0.04687 -0.046875,-0.09374 0,-0.0625 0.0625,-0.09376 0.04687,-0.03124 0.09375,-0.03124 0.0625,0 0.09375,0.03124 0.01563,0 0.01563,-0.01562 0.01562,-0.01562 0.03124,-0.01562 0,0.01562 0,0.03124 l 0,0.09376 q 0,0.03124 0,0.03124 l 0,0 0,0 0,0 q -0.01562,0 -0.01562,-0.01562 -0.01562,-0.09375 -0.07812,-0.10938 -0.01563,0 -0.04688,0 -0.09375,0 -0.109375,0.04688 0,0.01562 0,0.01562 0,0.0625 0.078125,0.07813 0.01563,0 0.04687,0.01563 0.07813,0.01562 0.10938,0.03124 0,0 0,0.01563 0.04688,0.03125 0.04688,0.09375 0,0.078125 -0.0625,0.109375 -0.04688,0.03125 -0.09376,0.03125 -0.0625,0 -0.10937,-0.046875 L 0.0625,-0.015625 Q 0.046875,0.015625 0.046875,0.015625 0.03125,0 0.03125,-0.015625 l 0,-0.124995 q 0,-0.03126 0.015625,-0.03126 l 0,0 0,0 0,0 q 0.015625,0 0.015625,0.01563 0,0 0,0 0.03125,0.125 0.09375,0.140625 0.01563,0 0.04687,0 0.07813,0 0.10938,-0.0625 0,-0.015625 0,-0.031255 0,-0.0625 -0.10938,-0.07812 z" />
            <title id="title9390">Point C</title>
            <desc id="desc9392">Point C: Point on c</desc>
          </g>
        </g>
      </g>
      <g id="g9394" transform="matrix(25.2,0,0,25.2,616.356,2020.9228)" style="stroke-width:1;stroke-linecap:square;stroke-linejoin:miter;stroke-miterlimit:10;stroke-dasharray:none;stroke-dashoffset:0">
        <clipPath id="clip35">
          <path id="path9397" d="m -24.459,-8.131 0,24.238 27.3336,0 0,-24.238 z" />
        </clipPath>
        <g id="g9399" clip-path="url(#clip35)">
          <g style="fill:#2b83ba;fill-opacity:1;fill-rule:nonzero;stroke:none" id="g9401">
            <path id="path9403" d="m 0.17188,-0.4375 0,0 0,0.359375 q 0,0.03125 0.01562,0.046875 l 0,0 q 0.01562,0 0.0625,0 L 0.25,0 Q 0.14062,0 0.14062,0 0.125,0 0.03125,0 l 0,-0.03125 q 0.0625,0 0.07813,-0.015625 l 0,0 q 0,0 0,-0.03125 l 0,-0.265625 q 0,-0.04687 -0.01563,-0.04687 l 0,0 0,0 0,0 0,0 Q 0.078125,-0.40625 0.03125,-0.40625 l 0,-0.03125 0.14063,0 z M 0.1875,-0.60938 q 0,0.03126 -0.04688,0.04688 0,0 -0.01562,0 -0.03125,0 -0.046875,-0.03125 l 0,0 q 0,-0.01563 0,-0.01563 0,-0.03124 0.031255,-0.04687 0,-0.01563 0.01562,-0.01563 0.03125,0 0.04688,0.03126 0.01562,0.01562 0.01562,0.03124 z" />
            <title id="title9405">Point C</title>
            <desc id="desc9407">Point C: Point on c</desc>
          </g>
        </g>
      </g>
      <g id="g9409" transform="matrix(25.2,0,0,25.2,623.364,2020.9228)" style="stroke-width:1;stroke-linecap:square;stroke-linejoin:miter;stroke-miterlimit:10;stroke-dasharray:none;stroke-dashoffset:0">
        <clipPath id="clip36">
          <path id="path9412" d="m -24.736,-8.131 0,24.238 27.3329,0 0,-24.238 z" />
        </clipPath>
        <g id="g9414" clip-path="url(#clip36)">
          <g style="fill:#2b83ba;fill-opacity:1;fill-rule:nonzero;stroke:none" id="g9416">
            <path id="path9418" d="m 0.10938,-0.34375 q 0,-0.04687 -0.01563,-0.04687 -0.015625,-0.01563 -0.046875,-0.01563 l -0.015625,0 0,-0.03125 0.14063,0 0,0.09375 q 0.04687,-0.09375 0.15624,-0.09375 0.0625,0 0.09376,0.03125 0.03124,0.03125 0.03124,0.09375 0,0.01562 0,0.0625 l 0,0.1875 q 0,0.03125 0.03126,0.03125 0.01562,0 0.04687,0 L 0.53125,0 Q 0.4375,0 0.42188,0 q 0,0 -0.10938,0 l 0,-0.03125 q 0.0625,0 0.0625,-0.015625 l 0,0 q 0.01562,0 0.01562,-0.03125 l 0,-0.234375 q 0,-0.09375 -0.0625,-0.10938 0,0 -0.01562,0 -0.0625,0 -0.09375,0.0625 -0.04687,0.03126 -0.04687,0.09376 l 0,0.187495 q 0,0.03125 0.01562,0.046875 0.01562,0 0.0625,0 L 0.25,0 q -0.09375,0 -0.10938,0 0,0 -0.10937,0 l 0,-0.03125 q 0.0625,0 0.0625,-0.015625 l 0.01563,0 q 0,0 0,-0.03125 l 0,-0.265625 z" />
            <title id="title9420">Point C</title>
            <desc id="desc9422">Point C: Point on c</desc>
          </g>
        </g>
      </g>
      <g id="g9424" transform="matrix(25.2,0,0,25.2,641.556,2020.9228)" style="stroke-width:1;stroke-linecap:square;stroke-linejoin:miter;stroke-miterlimit:10;stroke-dasharray:none;stroke-dashoffset:0">
        <clipPath id="clip37">
          <path id="path9427" d="m -25.459,-8.131 0,24.238 27.3336,0 0,-24.238 z" />
        </clipPath>
        <g id="g9429" clip-path="url(#clip37)">
          <g style="fill:#2b83ba;fill-opacity:1;fill-rule:nonzero;stroke:none" id="g9431">
            <path id="path9433" d="M 0.20312,-0.40625 0.125,-0.10938 q 0,0.031255 0,0.04688 0,0.046875 0.03125,0.046875 0.0625,0 0.10937,-0.093755 l 0.01563,-0.03124 q 0.01563,-0.01563 0.01563,-0.01563 0.01562,0 0.01562,0.01563 0,0.01562 -0.03125,0.04687 -0.04687,0.109375 -0.125,0.109375 -0.0625,0 -0.078125,-0.046875 Q 0.0625,-0.0625 0.0625,-0.078125 q 0,-0.015625 0.0625,-0.265625 l 0.01562,-0.0625 -0.093745,0 q -0.015625,0 -0.015625,0 l -0.015625,0 0,0 q 0,-0.01563 0.015625,-0.03125 l 0.015625,0 0.093745,0 0.04688,-0.15625 q 0,-0.03125 0.03125,-0.03125 0.03125,0 0.03125,0.03125 0,0 -0.03125,0.15625 l 0.07813,0 q 0.03124,0 0.03124,0.01562 0,0.01563 -0.01562,0.01563 l 0,0 -0.01562,0 -0.09376,0 z" />
            <title id="title9435">Point C</title>
            <desc id="desc9437">Point C: Point on c</desc>
          </g>
        </g>
      </g>
      <g id="g9439" transform="matrix(25.2,0,0,25.2,650.664,2020.9228)" style="stroke-width:1;stroke-linecap:square;stroke-linejoin:miter;stroke-miterlimit:10;stroke-dasharray:none;stroke-dashoffset:0">
        <clipPath id="clip38">
          <path id="path9442" d="m -25.82,-8.131 0,24.238 27.3335,0 0,-24.238 z" />
        </clipPath>
        <g id="g9444" clip-path="url(#clip38)">
          <g style="fill:#2b83ba;fill-opacity:1;fill-rule:nonzero;stroke:none" id="g9446">
            <path id="path9448" d="m 0.28125,-0.25 0,0 q 0,0.171875 -0.0625,0.3125 Q 0.17188,0.17188 0.09375,0.23438 0.078125,0.25 0.0625,0.25 q 0,0 0,-0.01562 0,0 0,-0.01563 Q 0.23438,0.0625 0.23438,-0.25 q 0,-0.3125 -0.156255,-0.46875 l 0,0 Q 0.0625,-0.73438 0.0625,-0.73438 q 0,-0.01562 0,-0.01562 0.015625,0 0.0625,0.04688 0.0625,0.0625 0.09375,0.14062 0.0625,0.14062 0.0625,0.3125 z" />
            <title id="title9450">Point C</title>
            <desc id="desc9452">Point C: Point on c</desc>
          </g>
        </g>
      </g>
    </g>
    <g style="stroke-width:1;stroke-linecap:square;stroke-linejoin:miter;stroke-miterlimit:10;stroke-dasharray:none;stroke-dashoffset:0" clip-path="url(#clip39)" id="g9457" transform="matrix(1.2,0,0,1.2,0,1816.0228)">
      <g id="g9459" style="fill:#2b83ba;fill-opacity:1;fill-rule:nonzero;stroke:none">
        <path d="m 184.88,114.64 c 0,0.55 -0.45,1 -1,1 -0.55,0 -1,-0.45 -1,-1 0,-0.55 0.45,-1 1,-1 0.55,0 1,0.45 1,1 z" id="path9461" />
        <title id="title9463">Point C&#39;_1</title>
        <desc id="desc9465">Point C&#39;_1: C rotated by angle 90Ã&#131;Â&#130;Ã&#130;Â°</desc>
      </g>
    </g>
    <g style="stroke-width:1;stroke-linecap:square;stroke-linejoin:miter;stroke-miterlimit:10;stroke-dasharray:none;stroke-dashoffset:0" clip-path="url(#clip40)" id="g9470" transform="matrix(1.2,0,0,1.2,0,1816.0228)">
      <g id="g9472" style="fill:none;stroke:#000000;stroke-linecap:round;stroke-linejoin:round;stroke-opacity:1">
        <path d="m 184.88,114.64 c 0,0.55 -0.45,1 -1,1 -0.55,0 -1,-0.45 -1,-1 0,-0.55 0.45,-1 1,-1 0.55,0 1,0.45 1,1 z" id="path9474" />
        <title id="title9476">Point C&#39;_1</title>
        <desc id="desc9478">Point C&#39;_1: C rotated by angle 90Ã&#131;Â&#130;Ã&#130;Â°</desc>
      </g>
    </g>
    <g style="stroke-width:1;stroke-linecap:square;stroke-linejoin:miter;stroke-miterlimit:10;stroke-dasharray:none;stroke-dashoffset:0" transform="matrix(37.8,0,0,37.8,193.80937,1948.4803)" id="g9480">
      <clipPath id="clip41">
        <path d="m -7.7143,-5.35 0,24.238 27.3333,0 0,-24.238 z" id="path9483" />
      </clipPath>
      <g clip-path="url(#clip41)" id="g9485">
        <g id="g9487" style="fill:#2b83ba;fill-opacity:1;fill-rule:nonzero;stroke:none">
          <path d="m 0.4375,0 0,0 q 0.01562,0.078125 0.03125,0.09375 0.01563,0 0.04687,0 0.04688,0 0.07813,-0.046875 Q 0.60938,0.03125 0.625,0 q 0,-0.015625 0.01562,-0.015625 0.01563,0 0.01563,0.015625 0,0.015625 -0.03125,0.078125 Q 0.5625,0.1875 0.48438,0.1875 q -0.07813,0 -0.07813,-0.109375 0,-0.015625 0,-0.078125 -0.0625,0.015625 -0.09375,0.015625 -0.125,0 -0.20312,-0.078125 -0.062505,-0.07812 -0.062505,-0.1875 0,-0.14062 0.109375,-0.28125 0.09375,-0.125 0.23437,-0.15625 0.04688,-0.01562 0.09376,-0.01562 0.125,0 0.20312,0.09374 0.04688,0.0625 0.04688,0.17188 0,0.15625 -0.10938,0.28125 Q 0.54688,-0.046875 0.4375,0 z M 0.25,-0.015625 l 0,-0.015625 0,-0.015625 q 0,-0.046875 0.03125,-0.078125 0.03125,-0.01562 0.0625,-0.01562 0.07813,0 0.09375,0.093745 0,0 0,0 0.125,-0.062505 0.1875,-0.265625 0.03125,-0.07812 0.03125,-0.15625 0,-0.125 -0.07813,-0.1875 l 0,0 0,0 Q 0.53125,-0.6875 0.48438,-0.6875 q -0.09376,0 -0.1875,0.09375 -0.03126,0.03125 -0.0625,0.0625 -0.07813,0.10937 -0.09376,0.26563 0,0.03124 0,0.04687 0,0.140625 0.07813,0.1875 0.01563,0.015625 0.03125,0.015625 z M 0.3125,0 l 0,0 q 0.04688,0 0.07812,-0.015625 0.01563,-0.015625 0.01563,-0.03125 0,-0.062505 -0.04687,-0.078125 l 0,0 q 0,0 -0.01563,0 -0.04687,0 -0.0625,0.03125 Q 0.26562,-0.0625 0.26562,-0.046875 0.26562,0 0.3125,0 z" id="path9489" />
          <title id="title9491">Point C&#39;_1</title>
          <desc id="desc9493">Point C&#39;_1: C rotated by angle 90Ã&#131;Â&#130;Ã&#130;Â°</desc>
        </g>
      </g>
    </g>
    <g style="stroke-width:1;stroke-linecap:square;stroke-linejoin:miter;stroke-miterlimit:10;stroke-dasharray:none;stroke-dashoffset:0" transform="matrix(37.8,0,0,37.8,430.81875,2160.689)" id="g9495">
      <clipPath id="clip42">
        <path d="m -17.143,-13.311 0,24.238 27.333,0 0,-24.238 z" id="path9498" />
      </clipPath>
      <g clip-path="url(#clip42)" id="g9500">
        <g id="g9502" style="fill:#000000;fill-opacity:1;fill-rule:nonzero;stroke:none">
          <path d="m 0.29688,-0.64062 0,0.562495 q 0,0.03125 0.01562,0.03125 0.01562,0.015625 0.07812,0.015625 l 0.03126,0 0,0.03125 Q 0.39062,0 0.25,0 0.125,0 0.09375,0 l 0,-0.03125 0.03125,0 q 0.07812,0 0.09375,-0.015625 l 0,0 q 0,-0.015625 0,-0.03125 l 0,-0.515625 q -0.04687,0.01563 -0.125,0.01563 l 0,-0.03126 q 0.10937,0 0.17187,-0.0625 0.03126,0 0.03126,0.01563 l 0,0 0,0 q 0,0 0,0.01563 z" id="path9504" />
          <title id="title9506">$1$</title>
          <desc id="desc9508">text1 = &quot;$1$&quot;</desc>
        </g>
      </g>
    </g>
    <g style="stroke-width:1;stroke-linecap:square;stroke-linejoin:miter;stroke-miterlimit:10;stroke-dasharray:none;stroke-dashoffset:0" id="g11403" transform="matrix(36.92073,0,0,36.92073,672.72049,2162.493)">
      <clipPath id="clip1-1">
        <path id="path11406" d="m -11.333,-8.6306 0,29.8666 38.666,0 0,-29.8666 z" />
      </clipPath>
      <g id="g11408" clip-path="url(#clip1-1)">
        <g id="g11410" style="fill:#000000;fill-opacity:1;fill-rule:nonzero;stroke:none">
          <path id="path11412" d="m 0.32812,-0.29688 -0.03124,0.125 q -0.01563,0.07813 -0.01563,0.093755 0,0.046875 0.03125,0.0625 0.01562,0 0.03125,0 0.04687,0 0.07813,-0.046875 0.03124,-0.03125 0.04687,-0.07812 0,-0.01563 0.01563,-0.01563 0.01562,0 0.01562,0.01563 0,0.01562 -0.03125,0.062495 -0.0625,0.09375 -0.125,0.09375 -0.07813,0 -0.10937,-0.0625 0,-0.015625 0,-0.015625 Q 0.20312,-0.015625 0.15625,0 0.14062,0.015625 0.125,0.015625 q -0.0625,0 -0.09375,-0.046875 0,0 0,-0.03125 0,-0.03125 0.03125,-0.04688 0.015625,0 0.015625,0 0.031255,0 0.046875,0.01563 0,0.015625 0,0.015625 0,0.03125 -0.03125,0.046875 -0.015625,0 -0.015625,0 0.015625,0.015625 0.046875,0.015625 0.04688,0 0.07812,-0.0625 0.01563,-0.015625 0.01563,-0.031255 0.04687,-0.20312 0.04687,-0.25 0,-0.0625 -0.04687,-0.0625 -0.04687,0 -0.09375,0.0625 l 0,0 q 0,0 0,0 -0.01562,0.01563 -0.03125,0.04688 0,0 0,0.01562 l -0.015625,0.01563 q 0,0 0,0 -0.015625,0 -0.015625,0 0,-0.03125 0.03125,-0.07813 0.04687,-0.07812 0.125,-0.07812 0.07813,0 0.10937,0.07812 0.03126,-0.0625 0.07813,-0.07812 0.01563,0 0.03125,0 0.0625,0 0.07812,0.03125 0.01563,0.01563 0.01563,0.03125 0,0.04688 -0.04687,0.04688 0,0.01562 -0.01563,0.01562 -0.03125,0 -0.03125,-0.03125 0,0 0,-0.01563 0,-0.03124 0.03125,-0.04687 0,0 0.01563,0 -0.01563,-0.01563 -0.04688,-0.01563 -0.07812,0 -0.09375,0.10938 -0.01563,0 -0.01563,0.01562 z" />
          <title id="title11414">$x$</title>
          <desc id="desc11416">text1 = &quot;$x$&quot;</desc>
        </g>
      </g>
    </g>
    <g style="stroke-width:1;stroke-linecap:square;stroke-linejoin:miter;stroke-miterlimit:10;stroke-dasharray:none;stroke-dashoffset:0" id="g11418" transform="matrix(36.92073,0,0,36.92073,297.87059,1846.7133)">
      <clipPath id="clip2-2">
        <path id="path11421" d="m -11.133,-13.297 0,29.866 38.666,0 0,-29.866 z" />
      </clipPath>
      <g id="g11423" clip-path="url(#clip2-2)">
        <g id="g11425" style="fill:#000000;fill-opacity:1;fill-rule:nonzero;stroke:none">
          <path id="path11427" d="M 0.48438,-0.375 0.39062,0 Q 0.35938,0.09375 0.28125,0.15625 0.21875,0.20312 0.15625,0.20312 0.09375,0.20312 0.0625,0.15625 0.046875,0.14062 0.046875,0.125 q 0,-0.0625 0.046875,-0.0625 0,-0.015625 0.01563,-0.015625 0.03124,0 0.03124,0.03125 0,0 0,0.015625 0,0.01563 -0.01562,0.03125 Q 0.10938,0.14062 0.078125,0.14062 0.09375,0.1875 0.15625,0.1875 q 0.0625,0 0.10937,-0.0625 0.04688,-0.0625 0.0625,-0.140625 0,-0.015625 0,-0.015625 -0.04687,0.046875 -0.09374,0.046875 -0.07813,0 -0.10938,-0.0625 -0.01562,-0.03125 -0.01562,-0.062505 0,-0.04687 0.04687,-0.20312 0,0 0.01563,0 0.01562,-0.04688 0.01562,-0.07812 0,-0.03126 -0.03125,-0.03126 -0.04687,0 -0.09375,0.09376 l 0,0 q 0,0.01562 0,0.03124 -0.015625,0.01563 -0.015625,0.01563 -0.015625,0 -0.015625,0 0,-0.03125 0.015625,-0.0625 0.046875,-0.09375 0.109375,-0.09375 0.0625,0 0.07813,0.04688 Q 0.25,-0.375 0.25,-0.35938 q 0,0.01563 -0.03125,0.07813 -0.04687,0.125 -0.04687,0.1875 0,0.078125 0.0625,0.078125 0.0625,0 0.09374,-0.0625 0.01563,-0.015625 0.01563,-0.015625 l 0.04687,-0.1875 Q 0.40625,-0.3125 0.40625,-0.35938 0.42188,-0.40625 0.42188,-0.40625 0.4375,-0.4375 0.46875,-0.4375 q 0.01563,0.01562 0.01563,0.03125 0,0.01563 0,0.03125 z" />
          <title id="title11429">$y$</title>
          <desc id="desc11431">text2 = &quot;$y$&quot;</desc>
        </g>
      </g>
    </g>
    <g style="stroke-width:1;stroke-linecap:square;stroke-linejoin:miter;stroke-miterlimit:10;stroke-dasharray:none;stroke-dashoffset:0" id="g11433" transform="matrix(31.177505,0,0,31.177505,540.28792,2163.901)">
      <clipPath id="clip3-3">
        <path id="path11436" d="m -17.316,-9.4202 0,23.5792 30.527,0 0,-23.5792 z" />
      </clipPath>
      <g id="g11438" clip-path="url(#clip3-3)">
        <g id="g11440" style="fill:#000000;fill-opacity:1;fill-rule:nonzero;stroke:none">
          <path id="path11442" d="m 0.17188,-0.10938 0.35937,-0.59374 q 0,-0.01563 0.01563,-0.01563 0.01562,0 0.01562,0.01563 0.01562,0 0.01562,0.01562 l 0.0625,0.625 q 0,0.015625 0,0.03125 l 0,0 0,0 0,0 0,0 0,0 q 0.01563,0 0.0625,0 0.01563,0 0.01563,0.015625 Q 0.71875,0 0.70312,0 l -0.10937,0 0,0 -0.125,0 0,0 q -0.01563,0 -0.01563,-0.015625 0,-0.015625 0.01563,-0.015625 0.07813,0 0.07813,-0.03125 0,0 -0.01563,-0.17188 l -0.25,0 -0.07813,0.125 Q 0.1875,-0.078125 0.1875,-0.0625 q 0,0.03125 0.04688,0.03125 0.01562,0 0.01562,0.015625 Q 0.25,0 0.23438,0 l -0.09376,0 0,0 -0.093745,0 0,0 Q 0.03125,0 0.03125,-0.015625 q 0,-0.015625 0.015625,-0.015625 l 0,0 0.015625,0 q 0.0625,0 0.09375,-0.046875 0.01563,-0.015625 0.01563,-0.031255 z m 0.125,-0.15624 0.23437,0 L 0.5,-0.59375 0.29688,-0.26562 z" />
          <title id="title11444">$A$</title>
          <desc id="desc11446">text3 = &quot;$A$&quot;</desc>
        </g>
      </g>
    </g>
  </g>
</svg>