<?xml version='1.0' ?><svg xmlns:ns0="http://www.iki.fi/pav/software/textext/" xmlns:dc="http://purl.org/dc/elements/1.1/" xmlns:cc="http://creativecommons.org/ns#" xmlns:rdf="http://www.w3.org/1999/02/22-rdf-syntax-ns#" xmlns:svg="http://www.w3.org/2000/svg" xmlns="http://www.w3.org/2000/svg" id="svg2" version="1.1" width="429.5325" height="251.48794" viewBox="0.0 29.239409544158363 140.68261020236386 82.3685747495602" preserveAspectRatio="none">
  <metadata id="metadata63">
    <rdf:RDF>
      <cc:Work rdf:about="">
        <dc:format>image/svg+xml</dc:format>
        <dc:type rdf:resource="http://purl.org/dc/dcmitype/StillImage" />
        <dc:title />
      </cc:Work>
    </rdf:RDF>
  </metadata>
  <defs id="defs61">
    <marker style="overflow:visible" id="marker4917" refX="0" refY="0" orient="auto">
      <path transform="scale(-0.6,-0.6)" d="M 8.7185878,4.0337352 -2.2072895,0.01601326 8.7185884,-4.0017078 c -1.7454984,2.3720609 -1.7354408,5.6174519 -6e-7,8.035443 z" style="fill:#e50000;fill-opacity:1;fill-rule:evenodd;stroke:#e50000;stroke-width:0.625;stroke-linejoin:round;stroke-opacity:1" id="path4919" />
    </marker>
  </defs>
  <g stroke-miterlimit="10.000" id="g6" style="stroke-width:1;stroke-linecap:square;stroke-linejoin:miter;stroke-miterlimit:10;stroke-dasharray:none;stroke-dashoffset:0" transform="matrix(0.24297514,0,0,0.24297514,0,28.996443)">
    <clipPath id="clip1">
      <path d="m 0,0 0,340 580,0 0,-340 z" id="path9" />
    </clipPath>
    <g clip-path="url(#clip1)" id="g11">
      <g id="g13" style="fill:none;stroke:#000000;stroke-linecap:butt;stroke-opacity:1">
        <path d="m 95.284,2 0,338" id="path15" />
      </g>
    </g>
    <clipPath id="clip2">
      <path d="m 0,0 0,340 580,0 0,-340 z" id="path18" />
    </clipPath>
    <g clip-path="url(#clip2)" id="g20">
      <g id="g22" style="fill:#000000;fill-opacity:1;fill-rule:evenodd;stroke:none">
        <path d="m 95.284,1 -4,16 8,0" id="path24" />
      </g>
    </g>
    <clipPath id="clip3">
      <path d="m 0,0 0,340 580,0 0,-340 z" id="path27" />
    </clipPath>
    <g clip-path="url(#clip3)" id="g29">
      <g id="g31" style="fill:none;stroke:#000000;stroke-linecap:butt;stroke-opacity:1">
        <path d="m 0,286.76 578,0" id="path33" />
      </g>
    </g>
    <clipPath id="clip4">
      <path d="m 0,0 0,340 580,0 0,-340 z" id="path36" />
    </clipPath>
    <g clip-path="url(#clip4)" id="g38">
      <g id="g40" style="fill:#000000;fill-opacity:1;fill-rule:evenodd;stroke:none">
        <path d="m 579,286.76 -16,-4 0,8" id="path42" />
      </g>
    </g>
    <g id="misc" />
    <g id="layer0">
      <clipPath id="clip5">
        <path d="m 0,0 0,340 580,0 0,-340 z" id="path47" />
      </clipPath>
      <g clip-path="url(#clip5)" id="g49">
        <g id="g51" style="fill:none;stroke:#000000;stroke-width:2;stroke-linecap:round;stroke-linejoin:round;stroke-opacity:1">
          <path d="m 95.284,286.76 3.1,-5.39 3.096,-5.3 3.1,-5.22 3.1,-5.14 3.1,-5.05 3.1,-4.96 3.1,-4.89 3.1,-4.79 3.1,-4.71 3.1,-4.63 3.1,-4.54 3.11,-4.46 3.1,-4.37 3.1,-4.28 3.1,-4.21 3.1,-4.11 3.1,-4.03 3.1,-3.95 3.1,-3.86 3.1,-3.78 3.1,-3.69 3.1,-3.61 3.1,-3.52 3.1,-3.44 3.1,-3.35 3.1,-3.27 3.1,-3.19 3.1,-3.09 3.1,-3.02 3.1,-2.93 3.1,-2.84 3.1,-2.76 3.1,-2.67 3.1,-2.59 3.1,-2.5 3.1,-2.42 3.1,-2.34 3.1,-2.25 3.1,-2.16 3.1,-2.08 3.1,-2 3.1,-1.91 3.1,-1.82 3.1,-1.74 3.1,-1.66 3.1,-1.57 3.1,-1.48 3.1,-1.4 3.1,-1.32 3.1,-1.23 3.1,-1.15 3.1,-1.06 3.1,-0.97 3.1,-0.89 3.1,-0.81 3.1,-0.72 3.1,-0.64 3.1,-0.55 3.1,-0.47 3.1,-0.38 3.1,-0.3 3.1,-0.21 3.1,-0.13 3.1,-0.04 3.1,0.04 3.1,0.13 3.1,0.21 3.1,0.3 3.1,0.38 3.1,0.47 3.1,0.55 3.1,0.64 3.1,0.72 3.1,0.81 3.1,0.89 3.1,0.97 3.1,1.06 3.1,1.15 3.1,1.23 3.1,1.32 3.1,1.4 3.1,1.48 3.1,1.57 3.1,1.66 3.1,1.74 3.1,1.82 3.1,1.91 3.1,2 3.1,2.08 3.1,2.16 3.1,2.25 3.1,2.34 3.1,2.42 3.1,2.5 3.1,2.59 3.1,2.67 3.1,2.76 3.1,2.84 3.1,2.93 3.1,3.02 3.1,3.09 3.1,3.19 3.1,3.27 3.1,3.35 3.1,3.44 3.1,3.52 3.1,3.61 3.1,3.69 3.1,3.78 3.1,3.86 3.1,3.95 3.1,4.03 3.1,4.11 3.1,4.21 3.1,4.28 3.1,4.37 3.1,4.46 3.1,4.54 3.1,4.63 3.1,4.71 3.1,4.79 3.1,4.89 3.1,4.96 3.1,5.05 3.1,5.14 3.1,5.22 3.1,5.3 3.1,5.39" id="path53" />
          <title id="title55">Curve b</title>
          <desc id="desc57">Curve b: Curve[4t - w / 2 tÃ&#131;Â&#130;Ã&#130;Â², 4t - 5tÃ&#131;Â&#130;Ã&#130;Â², t, 0, 0.8]</desc>
        </g>
      </g>
    </g>
  </g>
  <path id="path4915" d="m 22.991444,98.770793 8.75379,-14.913611" style="fill:none;fill-rule:evenodd;stroke:#e50000;stroke-width:0.52792233;stroke-linecap:butt;stroke-linejoin:miter;stroke-miterlimit:4;stroke-dasharray:none;stroke-opacity:1;marker-end:url(#marker4917)" />
  <g style="font-style:normal;font-variant:normal;font-weight:normal;font-stretch:normal;letter-spacing:normal;word-spacing:normal;text-anchor:start;fill:none;fill-opacity:1;fill-rule:evenodd;stroke:#000000;stroke-linecap:butt;stroke-linejoin:miter;stroke-miterlimit:10.43299961;stroke-dasharray:none;stroke-dashoffset:0;stroke-opacity:1" id="g6992" transform="matrix(0.48595028,0,0,-0.48595028,-91.376727,335.55836)" xml:space="preserve" stroke-miterlimit="10.433" font-style="normal" font-variant="normal" font-weight="normal" font-stretch="normal" font-size-adjust="none" letter-spacing="normal" word-spacing="normal" ns0:text="$O$" ns0:preamble="/Users/prmb/CMEP/underground-inkscape-preamble.tex"><path style="fill:#000000;stroke-width:0" d="m 231.84,482.19 0,0.14 -0.01,0.14 -0.02,0.14 -0.02,0.14 -0.02,0.13 -0.03,0.14 -0.04,0.13 -0.04,0.13 -0.05,0.13 -0.06,0.12 -0.06,0.13 -0.06,0.12 -0.07,0.11 -0.08,0.12 -0.08,0.11 -0.09,0.1 -0.1,0.1 -0.1,0.1 -0.1,0.09 -0.12,0.09 -0.11,0.08 -0.13,0.07 -0.13,0.07 -0.13,0.06 -0.14,0.06 -0.15,0.05 -0.15,0.04 -0.16,0.04 -0.16,0.03 -0.17,0.02 -0.18,0.01 -0.18,0 -0.1,-0.43 c 1.2,0 1.67,-0.97 1.67,-2.24 l 0,0 c 0,-1.66 -0.86,-4.91 -3.37,-4.91 -0.92,0 -1.65,0.63 -1.65,1.78 0,1.67 0.62,5.37 3.35,5.37 l 0.1,0.43 c -3.01,0 -4.88,-2.88 -4.88,-5.27 0,-1.62 1.23,-2.75 2.99,-2.75 2.99,0 4.83,2.75 4.83,5.08 z" id="path6994" /></g>  <g style="font-style:normal;font-variant:normal;font-weight:normal;font-stretch:normal;letter-spacing:normal;word-spacing:normal;text-anchor:start;fill:none;fill-opacity:1;fill-rule:evenodd;stroke:#000000;stroke-linecap:butt;stroke-linejoin:miter;stroke-miterlimit:10.43299961;stroke-dasharray:none;stroke-dashoffset:0;stroke-opacity:1" ns0:preamble="/Users/prmb/CMEP/underground-inkscape-preamble.tex" ns0:text="$x$" word-spacing="normal" letter-spacing="normal" font-size-adjust="none" font-stretch="normal" font-weight="normal" font-variant="normal" font-style="normal" stroke-miterlimit="10.433" xml:space="preserve" transform="matrix(0.48595028,0,0,-0.48595028,24.889892,327.88477)" id="g7106"><path style="fill:#000000;stroke-width:0" id="path7108" d="m 227.03,480.64 -0.23,0.64 c -0.15,0.39 -0.37,0.88 -0.89,1.16 l -1.56,-0.39 0.04,-0.21 c 0.12,0.05 0.29,0.07 0.45,0.07 0.65,0 0.95,-0.48 1.15,-1.05 l 0.39,-1.09 -0.76,-1.19 c -0.38,-0.58 -0.69,-0.7 -0.83,-0.7 -0.3,0 -0.25,0.24 -0.55,0.24 -0.3,0 -0.45,-0.25 -0.45,-0.44 0,-0.26 0.19,-0.55 0.61,-0.55 0.66,0 1,0.51 1.38,1.08 l 0.74,1.16 0.48,-1.33 c 0.15,-0.43 0.38,-0.91 0.86,-0.91 0.68,0 1.21,1.13 1.36,1.31 l -0.17,0.12 c -0.25,-0.51 -0.53,-0.68 -0.72,-0.68 -0.53,0 -0.8,1.6 -1.15,2.33 l 0.64,1 c 0.17,0.26 0.3,0.45 0.65,0.45 0.2,0 0.26,-0.1 0.52,-0.1 0.31,0 0.46,0.27 0.46,0.49 0,0.25 -0.2,0.39 -0.57,0.39 -0.6,0 -1.01,-0.52 -1.32,-0.99 z" /></g>  <g style="font-style:normal;font-variant:normal;font-weight:normal;font-stretch:normal;letter-spacing:normal;word-spacing:normal;text-anchor:start;fill:none;fill-opacity:1;fill-rule:evenodd;stroke:#000000;stroke-linecap:butt;stroke-linejoin:miter;stroke-miterlimit:10.43299961;stroke-dasharray:none;stroke-dashoffset:0;stroke-opacity:1" id="g7224" transform="matrix(0.48595028,0,0,-0.48595028,-92.306855,265.56588)" xml:space="preserve" stroke-miterlimit="10.433" font-style="normal" font-variant="normal" font-weight="normal" font-stretch="normal" font-size-adjust="none" letter-spacing="normal" word-spacing="normal" ns0:text="$y$" ns0:preamble="/Users/prmb/CMEP/underground-inkscape-preamble.tex"><path style="fill:#000000;stroke-width:0" d="m 226.62,480.86 -0.01,0.08 -0.01,0.08 -0.01,0.07 -0.01,0.07 -0.01,0.07 -0.01,0.07 -0.01,0.06 -0.01,0.06 -0.01,0.06 -0.01,0.05 -0.01,0.06 -0.01,0.05 -0.01,0.05 -0.01,0.04 -0.02,0.05 -0.01,0.05 -0.01,0.04 -0.02,0.04 -0.01,0.04 -0.01,0.04 -0.04,0.08 -0.03,0.07 -0.04,0.08 -0.04,0.07 -0.04,0.07 -0.05,0.07 -1.77,-0.3 0.02,-0.18 c 0.11,0.01 0.3,0.04 0.43,0.04 0.66,0 0.76,-0.71 0.82,-1.24 l 0.45,-3.7 c -0.31,-0.48 -0.98,-1.21 -1.18,-1.21 -0.19,0 -0.16,0.37 -0.67,0.37 -0.16,0 -0.47,-0.13 -0.47,-0.49 0,-0.28 0.22,-0.64 0.66,-0.64 0.8,0 1.57,1.15 2.43,2.24 0.5,0.62 2.41,3.46 2.41,4.38 0,0.46 -0.3,0.73 -0.67,0.73 -0.35,0 -0.56,-0.21 -0.56,-0.47 0,-0.45 0.61,-0.57 0.61,-0.82 0,-0.21 -0.09,-0.45 -0.33,-0.88 -0.26,-0.49 -0.67,-1.19 -1.39,-2.18 z" id="path7226" /></g>  <path id="path8572" d="m 71.563012,98.602571 0,-42.294923 -48.385394,0" style="fill:none;fill-rule:evenodd;stroke:#000000;stroke-width:0.34935996;stroke-linecap:butt;stroke-linejoin:miter;stroke-opacity:1;stroke-miterlimit:4;stroke-dasharray:0.69871991,0.69871991;stroke-dashoffset:0" />
  <g style="font-style:normal;font-variant:normal;font-weight:normal;font-stretch:normal;letter-spacing:normal;word-spacing:normal;text-anchor:start;fill:none;fill-opacity:1;fill-rule:evenodd;stroke:#000000;stroke-linecap:butt;stroke-linejoin:miter;stroke-miterlimit:10.43299961;stroke-dasharray:none;stroke-dashoffset:0;stroke-opacity:1" ns0:preamble="/Users/prmb/CMEP/underground-inkscape-preamble.tex" ns0:text="$6$" word-spacing="normal" letter-spacing="normal" font-size-adjust="none" font-stretch="normal" font-weight="normal" font-variant="normal" font-style="normal" stroke-miterlimit="10.433" xml:space="preserve" transform="matrix(0.45023666,0,0,-0.45023666,17.438115,319.77216)" id="content"><path id="path4280" d="m 228.7,485.31 -0.15,-0.02 -0.15,-0.01 -0.14,-0.02 -0.14,-0.02 -0.14,-0.02 -0.13,-0.03 -0.13,-0.02 -0.13,-0.02 -0.12,-0.03 -0.12,-0.03 -0.12,-0.03 -0.11,-0.03 -0.12,-0.03 -0.11,-0.04 -0.1,-0.04 -0.11,-0.04 -0.11,-0.04 -0.1,-0.05 -0.1,-0.05 -0.1,-0.05 -0.1,-0.06 -0.1,-0.05 -0.1,-0.07 -0.09,-0.06 -0.1,-0.07 -0.09,-0.07 -0.1,-0.08 -0.09,-0.08 -0.1,-0.08 -0.09,-0.09 -0.09,-0.1 -0.1,-0.09 c -0.84,-0.87 -1.29,-1.99 -1.29,-3.26 0,-0.83 0.23,-1.67 0.56,-2.27 0.41,-0.75 1.15,-1.19 2.09,-1.19 l 0.13,0.33 c -1.11,0 -1.68,1.18 -1.68,2.98 0,1.08 0.7,1.36 1.37,1.36 1.1,0 1.6,-0.77 1.6,-2.29 l 0,0 c 0,-1.2 -0.44,-2.05 -1.29,-2.05 l -0.13,-0.33 c 0.78,0 1.44,0.32 1.87,0.86 0.39,0.47 0.61,1.14 0.61,1.89 0,1.52 -0.85,2.47 -2.23,2.47 -0.52,0 -0.93,-0.09 -1.5,-0.53 0.31,1.78 1.64,3.05 3.49,3.36 z" style="fill:#000000;stroke-width:0" /></g>  <g id="g4402" transform="matrix(0.45023666,0,0,-0.45023666,-30.152816,319.56914)" xml:space="preserve" stroke-miterlimit="10.433" font-style="normal" font-variant="normal" font-weight="normal" font-stretch="normal" font-size-adjust="none" letter-spacing="normal" word-spacing="normal" ns0:text="$3$" ns0:preamble="/Users/prmb/CMEP/underground-inkscape-preamble.tex" style="font-style:normal;font-variant:normal;font-weight:normal;font-stretch:normal;letter-spacing:normal;word-spacing:normal;text-anchor:start;fill:none;fill-opacity:1;fill-rule:evenodd;stroke:#000000;stroke-linecap:butt;stroke-linejoin:miter;stroke-miterlimit:10.43299961;stroke-dasharray:none;stroke-dashoffset:0;stroke-opacity:1"><path d="m 224.15,483.26 0.05,0.08 0.04,0.07 0.05,0.08 0.05,0.07 0.04,0.07 0.05,0.07 0.05,0.06 0.05,0.06 0.05,0.06 0.05,0.05 0.05,0.06 0.05,0.05 0.05,0.04 0.05,0.05 0.05,0.04 0.06,0.04 0.05,0.04 0.06,0.03 0.05,0.03 0.06,0.03 0.06,0.03 0.06,0.02 0.06,0.03 0.06,0.02 0.06,0.01 0.06,0.02 0.06,0.01 0.07,0.01 0.06,0.01 0.07,0 0.06,0.01 0.07,0 c 0.78,0 1.28,-0.4 1.28,-1.21 0,-0.72 -0.38,-1.25 -0.96,-1.58 -0.24,-0.14 -0.54,-0.27 -0.99,-0.42 l 0,-0.17 c 0.67,0 0.94,-0.03 1.2,-0.12 0.82,-0.23 1.23,-0.81 1.23,-1.71 0,-1 -0.66,-1.81 -1.53,-1.81 -0.34,0 -0.58,0.06 -1.02,0.37 -0.33,0.24 -0.52,0.31 -0.72,0.31 -0.27,0 -0.48,-0.18 -0.48,-0.43 0,-0.42 0.46,-0.67 1.32,-0.67 1.05,0 2.17,0.34 2.74,1.1 0.34,0.45 0.54,1.03 0.54,1.65 0,0.61 -0.19,1.16 -0.52,1.52 -0.25,0.26 -0.46,0.4 -0.98,0.63 0.79,0.47 1.1,1.06 1.1,1.63 0,0.97 -0.74,1.62 -1.84,1.62 -1.23,0 -1.97,-0.8 -2.32,-1.92 z" id="path4404" style="fill:#000000;stroke-width:0" /></g>  <g style="font-style:normal;font-variant:normal;font-weight:normal;font-stretch:normal;letter-spacing:normal;word-spacing:normal;text-anchor:start;fill:none;fill-opacity:1;fill-rule:evenodd;stroke:#000000;stroke-width:1.09438622;stroke-linecap:butt;stroke-linejoin:miter;stroke-miterlimit:10.43299961;stroke-dasharray:none;stroke-dashoffset:0;stroke-opacity:1" ns0:preamble="/Users/prmb/CMEP/underground-inkscape-preamble.tex" ns0:text="$1.8$" word-spacing="normal" letter-spacing="normal" font-size-adjust="none" font-stretch="normal" font-weight="normal" font-variant="normal" font-style="normal" stroke-miterlimit="10.433" xml:space="preserve" transform="matrix(0.45425304,0,0,-0.45425302,-87.236864,274.80356)" id="g4522"><path id="path4524" d="m 228.08,477.23 0,0.18 c -0.88,0 -1.12,0.21 -1.12,0.72 l 0,7.05 -0.1,0.04 -2.12,-1.08 0,-0.16 0.32,0.11 c 0.21,0.09 0.41,0.15 0.53,0.15 0.25,0 0.36,-0.18 0.36,-0.58 l 0,-5.3 c 0,-0.65 -0.25,-0.9 -1.13,-0.95 l 0,-0.18 z" style="fill:#000000;stroke-width:0" /><path id="path4526" d="m 231.49,477.74 0,0.04 0,0.03 0,0.03 -0.01,0.03 -0.01,0.04 -0.01,0.03 -0.01,0.03 -0.01,0.03 -0.01,0.03 -0.02,0.03 -0.01,0.02 -0.02,0.03 -0.02,0.03 -0.02,0.02 -0.02,0.03 -0.02,0.02 -0.03,0.02 -0.02,0.03 -0.02,0.02 -0.03,0.02 -0.03,0.01 -0.02,0.02 -0.03,0.02 -0.03,0.01 -0.03,0.01 -0.03,0.01 -0.03,0.01 -0.03,0.01 -0.03,0.01 -0.03,0 -0.03,0.01 -0.04,0 c -0.36,0 -0.66,-0.3 -0.66,-0.67 0,-0.36 0.29,-0.64 0.65,-0.64 0.36,0 0.66,0.29 0.66,0.63 z" style="fill:#000000;stroke-width:0" /><path id="path4528" d="m 237.57,479.07 0,0.08 0,0.09 -0.01,0.08 -0.01,0.09 -0.01,0.08 -0.01,0.08 -0.02,0.08 -0.02,0.08 -0.02,0.07 -0.03,0.08 -0.03,0.08 -0.03,0.07 -0.04,0.08 -0.04,0.07 -0.05,0.08 -0.05,0.07 -0.05,0.08 -0.06,0.07 -0.06,0.08 -0.07,0.07 -0.07,0.08 -0.08,0.07 -0.08,0.08 -0.09,0.08 -0.09,0.08 -0.1,0.08 -0.1,0.08 -0.11,0.09 -0.12,0.08 -0.12,0.09 -0.12,0.09 -0.14,0.08 c 1.17,0.63 1.58,1.03 1.58,1.92 0,0.92 -0.81,1.69 -1.98,1.69 l -0.12,-0.33 c 0.8,0 1.29,-0.55 1.29,-1.36 l 0,0 c 0,-0.73 -0.31,-1.23 -1.11,-1.7 -1.04,0.61 -1.48,1.15 -1.48,1.89 0,0.73 0.51,1.17 1.3,1.17 l 0.12,0.33 c -1.31,0 -2.29,-0.71 -2.29,-1.85 0,-0.76 0.25,-1.21 1.46,-2.22 -1.26,-0.88 -1.53,-1.34 -1.53,-2.16 0,-1.11 0.93,-1.92 2.27,-1.92 l 0.13,0.33 c -0.9,0 -1.5,0.61 -1.5,1.7 0,0.77 0.24,1.25 0.94,1.82 l 0.7,-0.47 c 0.8,-0.55 1.15,-1.02 1.15,-1.75 0,-0.77 -0.53,-1.3 -1.29,-1.3 l -0.13,-0.33 c 1.41,0 2.32,0.78 2.32,2 z" style="fill:#000000;stroke-width:0" /></g>  <g id="g4271" transform="matrix(0.48595028,0,0,-0.48595028,-77.424731,323.2341)" xml:space="preserve" stroke="black" stroke-linecap="butt" stroke-linejoin="miter" stroke-miterlimit="10.433" stroke-dasharray="none" stroke-dashoffset="0" stroke-opacity="1" fill="none" fill-rule="evenodd" fill-opacity="1" font-style="normal" font-variant="normal" font-weight="normal" font-stretch="normal" font-size-adjust="none" letter-spacing="normal" word-spacing="normal" text-anchor="start" ns0:text="$\\mathbf{u}$" ns0:preamble="/Users/prmb/CMEP/underground-inkscape-preamble.tex" style="font-style:normal;font-variant:normal;font-weight:normal;font-stretch:normal;letter-spacing:normal;word-spacing:normal;text-anchor:start;fill:none;fill-opacity:1;fill-rule:evenodd;stroke:#000000;stroke-linecap:butt;stroke-linejoin:miter;stroke-miterlimit:10.43299961;stroke-dasharray:none;stroke-dashoffset:0;stroke-opacity:1"><path d="M229.78,477.47 V477.74 C229.26,477.77,229.11,477.95,229.11,478.48 V482.68 H226.75 V482.39 C227.34,482.35,227.47,482.18,227.47,481.65 V478.39 C227.1,477.99,226.84,477.84,226.5,477.84 C226.08,477.84,225.84,478.07,225.84,478.73 V482.68 H223.62 V482.39 C224.1,482.3,224.2,482.17,224.2,481.63 V478.78 C224.2,477.68,224.79,477.07,225.77,477.07 C226.42,477.07,226.87,477.27,227.48,477.85 V477.08 C227.99,477.26,228.27,477.31,229.04,477.39 Z " stroke-width="0" fill="black" id="path4273" /></g></svg>