<?xml version='1.0' ?><svg xmlns:dc="http://purl.org/dc/elements/1.1/" xmlns:cc="http://creativecommons.org/ns#" xmlns:rdf="http://www.w3.org/1999/02/22-rdf-syntax-ns#" xmlns:svg="http://www.w3.org/2000/svg" xmlns="http://www.w3.org/2000/svg" id="svg2" version="1.1" width="314.73447" height="196.4744" viewBox="0.0 1369.482449067861 502.9999965710038 313.99999665206684" preserveAspectRatio="none">
  <metadata id="metadata314">
    <rdf:RDF>
      <cc:Work rdf:about="">
        <dc:format>image/svg+xml</dc:format>
        <dc:type rdf:resource="http://purl.org/dc/dcmitype/StillImage" />
        <dc:title />
      </cc:Work>
    </rdf:RDF>
  </metadata>
  <defs id="defs312" />
  <g transform="translate(0,1367.4827)" style="stroke-width:1;stroke-linecap:square;stroke-linejoin:miter;stroke-miterlimit:10;stroke-dasharray:none;stroke-dashoffset:0" id="g6" stroke-miterlimit="10.000">
    <clipPath id="clip1">
      <path id="path9" d="m 0,0 0,315 503,0 0,-315 z" />
    </clipPath>
    <g id="g11" clip-path="url(#clip1)">
      <g style="fill:none;stroke:#000000;stroke-linecap:butt;stroke-opacity:1" id="g13">
        <path id="path15" d="m 126.55,2 0,313" />
      </g>
    </g>
    <clipPath id="clip2">
      <path id="path18" d="m 0,0 0,315 503,0 0,-315 z" />
    </clipPath>
    <g id="g20" clip-path="url(#clip2)">
      <g style="fill:#000000;fill-opacity:1;fill-rule:evenodd;stroke:none" id="g22">
        <path id="path24" d="m 126.55,1 -4,16 8,0" />
      </g>
    </g>
    <clipPath id="clip3">
      <path id="path27" d="m 0,0 0,315 503,0 0,-315 z" />
    </clipPath>
    <g id="g29" clip-path="url(#clip3)">
      <g style="fill:none;stroke:#000000;stroke-linecap:butt;stroke-opacity:1" id="g31">
        <path id="path33" d="m 0,213.81 501,0" />
      </g>
    </g>
    <clipPath id="clip4">
      <path id="path36" d="m 0,0 0,315 503,0 0,-315 z" />
    </clipPath>
    <g id="g38" clip-path="url(#clip4)">
      <g style="fill:#000000;fill-opacity:1;fill-rule:evenodd;stroke:none" id="g40">
        <path id="path42" d="m 502,213.81 -16,-4 0,8" />
      </g>
    </g>
    <clipPath id="clip5">
      <path id="path45" d="m 0,0 0,315 503,0 0,-315 z" />
    </clipPath>
    <g id="g47" clip-path="url(#clip5)">
      <g style="fill:#000000;fill-opacity:1;fill-rule:nonzero;stroke:none" id="g49">
        <path id="path51" d="m 8.6152,225.82 0,-0.8 4.7698,0 0,0.8 z m 6.3808,3.18 0,-1.01 q 0.504,-1.18 2.039,-2.57 l 0.662,-0.59 q 1.278,-1.16 1.278,-2.29 0,-0.73 -0.437,-1.15 -0.436,-0.41 -1.198,-0.41 -0.902,0 -2.127,0.7 l 0,-1.02 q 1.154,-0.55 2.291,-0.55 1.219,0 1.957,0.66 0.738,0.65 0.738,1.74 0,0.78 -0.372,1.38 -0.372,0.6 -1.386,1.47 l -0.445,0.38 q -1.389,1.17 -1.605,2.25 l 3.767,0 0,1.01 z" />
      </g>
    </g>
    <clipPath id="clip6">
      <path id="path54" d="m 0,0 0,315 503,0 0,-315 z" />
    </clipPath>
    <g id="g56" clip-path="url(#clip6)">
      <g style="fill:none;stroke:#000000;stroke-linecap:butt;stroke-opacity:1" id="g58">
        <path id="path60" d="m 13.071,213.81 0,3" />
      </g>
    </g>
    <clipPath id="clip7">
      <path id="path63" d="m 0,0 0,315 503,0 0,-315 z" />
    </clipPath>
    <g id="g65" clip-path="url(#clip7)">
      <g style="fill:#000000;fill-opacity:1;fill-rule:nonzero;stroke:none" id="g67">
        <path id="path69" d="m 64.615,225.82 0,-0.8 4.77,0 0,0.8 z m 7.19,3.18 0,-0.87 1.734,0 0,-6.84 -1.734,0.43 0,-0.89 2.894,-0.72 0,8.02 1.735,0 0,0.87 z" />
      </g>
    </g>
    <clipPath id="clip8">
      <path id="path72" d="m 0,0 0,315 503,0 0,-315 z" />
    </clipPath>
    <g id="g74" clip-path="url(#clip8)">
      <g style="fill:none;stroke:#000000;stroke-linecap:butt;stroke-opacity:1" id="g76">
        <path id="path78" d="m 69.812,213.81 0,3" />
      </g>
    </g>
    <clipPath id="clip9">
      <path id="path81" d="m 0,0 0,315 503,0 0,-315 z" />
    </clipPath>
    <g id="g83" clip-path="url(#clip9)">
      <g style="fill:#000000;fill-opacity:1;fill-rule:nonzero;stroke:none" id="g85">
        <path id="path87" d="m 135.76,229.22 q -1.34,0 -2.17,-1.27 -0.83,-1.26 -0.83,-3.29 0,-2.05 0.84,-3.3 0.83,-1.25 2.2,-1.25 1.36,0 2.2,1.25 0.83,1.25 0.83,3.28 0,2.09 -0.83,3.33 -0.84,1.25 -2.24,1.25 z m 0.01,-0.87 q 1.84,0 1.84,-3.73 0,-3.64 -1.81,-3.64 -1.81,0 -1.81,3.68 0,3.69 1.78,3.69 z" />
      </g>
    </g>
    <clipPath id="clip10">
      <path id="path90" d="m 0,0 0,315 503,0 0,-315 z" />
    </clipPath>
    <g id="g92" clip-path="url(#clip10)">
      <g style="fill:none;stroke:#000000;stroke-linecap:butt;stroke-opacity:1" id="g94">
        <path id="path96" d="m 126.55,213.81 0,3" />
      </g>
    </g>
    <clipPath id="clip11">
      <path id="path99" d="m 0,0 0,315 503,0 0,-315 z" />
    </clipPath>
    <g id="g101" clip-path="url(#clip11)">
      <g style="fill:#000000;fill-opacity:1;fill-rule:nonzero;stroke:none" id="g103">
        <path id="path105" d="m 182.8,229 0,-0.87 1.74,0 0,-6.84 -1.74,0.43 0,-0.89 2.9,-0.72 0,8.02 1.73,0 0,0.87 z" />
      </g>
    </g>
    <clipPath id="clip12">
      <path id="path108" d="m 0,0 0,315 503,0 0,-315 z" />
    </clipPath>
    <g id="g110" clip-path="url(#clip12)">
      <g style="fill:none;stroke:#000000;stroke-linecap:butt;stroke-opacity:1" id="g112">
        <path id="path114" d="m 183.29,213.81 0,3" />
      </g>
    </g>
    <clipPath id="clip13">
      <path id="path117" d="m 0,0 0,315 503,0 0,-315 z" />
    </clipPath>
    <g id="g119" clip-path="url(#clip13)">
      <g style="fill:#000000;fill-opacity:1;fill-rule:nonzero;stroke:none" id="g121">
        <path id="path123" d="m 239,229 0,-1.01 q 0.5,-1.18 2.04,-2.57 l 0.66,-0.59 q 1.27,-1.16 1.27,-2.29 0,-0.73 -0.43,-1.15 -0.44,-0.41 -1.2,-0.41 -0.9,0 -2.13,0.7 l 0,-1.02 q 1.16,-0.55 2.29,-0.55 1.22,0 1.96,0.66 0.74,0.65 0.74,1.74 0,0.78 -0.37,1.38 -0.37,0.6 -1.39,1.47 l -0.44,0.38 q -1.39,1.17 -1.61,2.25 l 3.77,0 0,1.01 z" />
      </g>
    </g>
    <clipPath id="clip14">
      <path id="path126" d="m 0,0 0,315 503,0 0,-315 z" />
    </clipPath>
    <g id="g128" clip-path="url(#clip14)">
      <g style="fill:none;stroke:#000000;stroke-linecap:butt;stroke-opacity:1" id="g130">
        <path id="path132" d="m 240.03,213.81 0,3" />
      </g>
    </g>
    <clipPath id="clip15">
      <path id="path135" d="m 0,0 0,315 503,0 0,-315 z" />
    </clipPath>
    <g id="g137" clip-path="url(#clip15)">
      <g style="fill:#000000;fill-opacity:1;fill-rule:nonzero;stroke:none" id="g139">
        <path id="path141" d="m 295.22,228.94 0,-1.08 q 1.24,0.49 1.96,0.49 0.82,0 1.34,-0.48 0.52,-0.49 0.52,-1.25 0,-1.83 -2.56,-1.83 l -0.46,0 0,-0.78 0.41,-0.01 q 2.4,0 2.4,-1.69 0,-1.33 -1.58,-1.33 -0.87,0 -1.91,0.48 l 0,-1 q 1.02,-0.35 1.99,-0.35 2.66,0 2.66,2.01 0,1.53 -1.81,2.18 2.1,0.49 2.1,2.3 0,1.22 -0.81,1.92 -0.81,0.7 -2.22,0.7 -0.81,0 -2.03,-0.28 z" />
      </g>
    </g>
    <clipPath id="clip16">
      <path id="path144" d="m 0,0 0,315 503,0 0,-315 z" />
    </clipPath>
    <g id="g146" clip-path="url(#clip16)">
      <g style="fill:none;stroke:#000000;stroke-linecap:butt;stroke-opacity:1" id="g148">
        <path id="path150" d="m 296.78,213.81 0,3" />
      </g>
    </g>
    <clipPath id="clip17">
      <path id="path153" d="m 0,0 0,315 503,0 0,-315 z" />
    </clipPath>
    <g id="g155" clip-path="url(#clip17)">
      <g style="fill:#000000;fill-opacity:1;fill-rule:nonzero;stroke:none" id="g157">
        <path id="path159" d="m 355.52,229 0,-2.46 -3.9,0 0,-0.87 3.9,-5.34 1.08,0 0,5.27 1.16,0 0,0.94 -1.16,0 0,2.46 z m -2.77,-3.4 2.84,0 0,-3.85 z" />
      </g>
    </g>
    <clipPath id="clip18">
      <path id="path162" d="m 0,0 0,315 503,0 0,-315 z" />
    </clipPath>
    <g id="g164" clip-path="url(#clip18)">
      <g style="fill:none;stroke:#000000;stroke-linecap:butt;stroke-opacity:1" id="g166">
        <path id="path168" d="m 353.52,213.81 0,3" />
      </g>
    </g>
    <clipPath id="clip19">
      <path id="path171" d="m 0,0 0,315 503,0 0,-315 z" />
    </clipPath>
    <g id="g173" clip-path="url(#clip19)">
      <g style="fill:#000000;fill-opacity:1;fill-rule:nonzero;stroke:none" id="g175">
        <path id="path177" d="m 409.46,229.04 0,-1.04 q 0.86,0.35 1.64,0.35 0.86,0 1.34,-0.5 0.49,-0.51 0.49,-1.39 0,-1.95 -2.69,-1.95 -0.3,0 -0.63,0.04 l 0,-4.22 4.38,0 0,1.01 -3.37,0 0,2.28 q 1.67,0 2.61,0.77 0.93,0.77 0.93,2.13 0,1.26 -0.85,1.98 -0.85,0.72 -2.36,0.72 -0.66,0 -1.49,-0.18 z" />
      </g>
    </g>
    <clipPath id="clip20">
      <path id="path180" d="m 0,0 0,315 503,0 0,-315 z" />
    </clipPath>
    <g id="g182" clip-path="url(#clip20)">
      <g style="fill:none;stroke:#000000;stroke-linecap:butt;stroke-opacity:1" id="g184">
        <path id="path186" d="m 410.26,213.81 0,3" />
      </g>
    </g>
    <clipPath id="clip21">
      <path id="path189" d="m 0,0 0,315 503,0 0,-315 z" />
    </clipPath>
    <g id="g191" clip-path="url(#clip21)">
      <g style="fill:#000000;fill-opacity:1;fill-rule:nonzero;stroke:none" id="g193">
        <path id="path195" d="m 466.06,224.51 q 0.83,-1.08 2.08,-1.08 1.14,0 1.86,0.76 0.73,0.75 0.73,1.93 0,1.35 -0.81,2.22 -0.82,0.88 -2.06,0.88 -1.44,0 -2.25,-1.16 -0.81,-1.15 -0.81,-3.2 0,-2.26 0.93,-3.51 0.93,-1.24 2.62,-1.24 0.77,0 1.93,0.32 l 0,1.01 q -1.22,-0.47 -2,-0.47 -2.22,0 -2.22,3.54 z m 3.51,1.87 q 0,-0.99 -0.45,-1.55 -0.44,-0.56 -1.22,-0.56 -0.74,0 -1.26,0.49 -0.53,0.49 -0.53,1.18 0,1.09 0.5,1.75 0.5,0.66 1.33,0.66 0.74,0 1.18,-0.54 0.45,-0.53 0.45,-1.43 z" />
      </g>
    </g>
    <clipPath id="clip22">
      <path id="path198" d="m 0,0 0,315 503,0 0,-315 z" />
    </clipPath>
    <g id="g200" clip-path="url(#clip22)">
      <g style="fill:none;stroke:#000000;stroke-linecap:butt;stroke-opacity:1" id="g202">
        <path id="path204" d="m 467,213.81 0,3" />
      </g>
    </g>
    <clipPath id="clip23">
      <path id="path207" d="m 0,0 0,315 503,0 0,-315 z" />
    </clipPath>
    <g id="g209" clip-path="url(#clip23)">
      <g style="fill:#000000;fill-opacity:1;fill-rule:nonzero;stroke:none" id="g211">
        <path id="path213" d="m 105.62,290.82 0,-0.8 4.76,0 0,0.8 z m 7.18,3.18 0,-0.87 1.74,0 0,-6.84 -1.74,0.43 0,-0.89 2.9,-0.72 0,8.02 1.73,0 0,0.87 z" />
      </g>
    </g>
    <clipPath id="clip24">
      <path id="path216" d="m 0,0 0,315 503,0 0,-315 z" />
    </clipPath>
    <g id="g218" clip-path="url(#clip24)">
      <g style="fill:none;stroke:#000000;stroke-linecap:butt;stroke-opacity:1" id="g220">
        <path id="path222" d="m 123.55,289.97 3,0" />
      </g>
    </g>
    <clipPath id="clip25">
      <path id="path225" d="m 0,0 0,315 503,0 0,-315 z" />
    </clipPath>
    <g id="g227" clip-path="url(#clip25)">
      <g style="fill:#000000;fill-opacity:1;fill-rule:nonzero;stroke:none" id="g229">
        <path id="path231" d="m 114.76,211.22 q -1.34,0 -2.17,-1.27 -0.83,-1.26 -0.83,-3.29 0,-2.05 0.84,-3.3 0.83,-1.25 2.2,-1.25 1.36,0 2.2,1.25 0.83,1.25 0.83,3.28 0,2.09 -0.83,3.33 -0.84,1.25 -2.24,1.25 z m 0.01,-0.87 q 1.84,0 1.84,-3.73 0,-3.64 -1.81,-3.64 -1.81,0 -1.81,3.68 0,3.69 1.78,3.69 z" />
      </g>
    </g>
    <clipPath id="clip26">
      <path id="path234" d="m 0,0 0,315 503,0 0,-315 z" />
    </clipPath>
    <g id="g236" clip-path="url(#clip26)">
      <g style="fill:#000000;fill-opacity:1;fill-rule:nonzero;stroke:none" id="g238">
        <path id="path240" d="m 112.8,142 0,-0.87 1.74,0 0,-6.84 -1.74,0.43 0,-0.89 2.9,-0.72 0,8.02 1.73,0 0,0.87 z" />
      </g>
    </g>
    <clipPath id="clip27">
      <path id="path243" d="m 0,0 0,315 503,0 0,-315 z" />
    </clipPath>
    <g id="g245" clip-path="url(#clip27)">
      <g style="fill:none;stroke:#000000;stroke-linecap:butt;stroke-opacity:1" id="g247">
        <path id="path249" d="m 123.55,137.64 3,0" />
      </g>
    </g>
    <clipPath id="clip28">
      <path id="path252" d="m 0,0 0,315 503,0 0,-315 z" />
    </clipPath>
    <g id="g254" clip-path="url(#clip28)">
      <g style="fill:#000000;fill-opacity:1;fill-rule:nonzero;stroke:none" id="g256">
        <path id="path258" d="m 112,66 0,-1.014 q 0.5,-1.177 2.04,-2.566 l 0.66,-0.592 q 1.27,-1.154 1.27,-2.291 0,-0.726 -0.43,-1.142 -0.44,-0.416 -1.2,-0.416 -0.9,0 -2.13,0.697 l 0,-1.02 q 1.16,-0.545 2.29,-0.545 1.22,0 1.96,0.657 0.74,0.656 0.74,1.74 0,0.779 -0.37,1.383 -0.37,0.603 -1.39,1.464 L 115,62.736 q -1.39,1.178 -1.61,2.25 l 3.77,0 0,1.014 z" />
      </g>
    </g>
    <clipPath id="clip29">
      <path id="path261" d="m 0,0 0,315 503,0 0,-315 z" />
    </clipPath>
    <g id="g263" clip-path="url(#clip29)">
      <g style="fill:none;stroke:#000000;stroke-linecap:butt;stroke-opacity:1" id="g265">
        <path id="path267" d="m 123.55,61.48 3,0" />
      </g>
    </g>
    <g id="misc" />
    <g id="layer0">
      <clipPath id="clip30">
        <path id="path272" d="m 0,0 0,315 503,0 0,-315 z" />
      </clipPath>
      <g id="g274" clip-path="url(#clip30)">
        <g style="fill:none;stroke:#000000;stroke-width:1.5;stroke-linecap:butt;stroke-linejoin:round;stroke-dasharray:9.5, 8;stroke-opacity:1" id="g276">
          <path id="path278" d="M -270.63,1600 C 107.64,-431.04 485.91,-431.04 864.19,1600" />
          <title id="title280">Parabola c</title>
          <desc id="desc282">c: y = -0.2xÃ&#131;Â&#130;Ã&#130;Â² + 1.2x</desc>
        </g>
      </g>
      <clipPath id="clip31">
        <path id="path285" d="m 0,0 0,315 503,0 0,-315 z" />
      </clipPath>
      <g id="g287" clip-path="url(#clip31)">
        <g style="fill:#000000;fill-opacity:1;fill-rule:nonzero;stroke:none" id="g289">
          <path id="path291" d="m 31.852,457.2 q -1.719,0 -2.852,-1.28 -1.133,-1.27 -1.133,-3.21 0,-2.07 1.121,-3.23 1.121,-1.15 3.129,-1.15 0.992,0 2.219,0.27 l 0,1.29 q -1.305,-0.38 -2.125,-0.38 -1.18,0 -1.895,0.88 -0.714,0.89 -0.714,2.37 0,1.43 0.734,2.31 0.734,0.88 1.922,0.88 1.054,0 2.172,-0.54 l 0,1.33 q -1.492,0.46 -2.578,0.46 z" />
          <title id="title293">Parabola c</title>
          <desc id="desc295">c: y = -0.2xÃ&#131;Â&#130;Ã&#130;Â² + 1.2x</desc>
        </g>
      </g>
      <clipPath id="clip32">
        <path id="path298" d="m 0,0 0,315 503,0 0,-315 z" />
      </clipPath>
      <g id="g300" clip-path="url(#clip32)">
        <g style="fill:none;stroke:#000000;stroke-width:2;stroke-linecap:round;stroke-linejoin:round;stroke-opacity:1" id="g302">
          <path id="path304" d="m 126.55,213.81 2.66,-4.26 2.64,-4.18 2.63,-4.12 2.61,-4.05 2.61,-3.98 2.59,-3.91 2.58,-3.85 2.56,-3.79 2.56,-3.71 2.54,-3.65 2.53,-3.58 2.51,-3.51 2.51,-3.45 2.49,-3.38 2.48,-3.32 2.46,-3.24 2.46,-3.18 2.44,-3.11 2.43,-3.05 2.41,-2.98 2.41,-2.91 2.39,-2.85 2.38,-2.77 2.37,-2.72 2.35,-2.64 2.34,-2.58 2.33,-2.51 2.32,-2.44 2.3,-2.38 2.29,-2.31 2.28,-2.24 2.27,-2.17 2.26,-2.11 2.24,-2.04 2.23,-1.98 2.21,-1.91 2.21,-1.84 2.19,-1.771 2.18,-1.707 2.17,-1.64 2.15,-1.574 2.15,-1.506 2.13,-1.439 2.11,-1.372 2.11,-1.305 2.09,-1.239 2.08,-1.171 2.07,-1.105 2.05,-1.037 2.05,-0.971 2.03,-0.904 2.01,-0.836 2.01,-0.77 1.99,-0.703 1.98,-0.636 1.97,-0.569 1.95,-0.502 1.95,-0.435 1.93,-0.368 1.92,-0.302 1.9,-0.234 1.89,-0.167 1.88,-0.101 1.87,-0.033 1.86,0.033 1.84,0.101 1.83,0.167 1.82,0.234 1.81,0.302 1.79,0.368 1.78,0.435 1.77,0.502 1.75,0.569 1.75,0.636 1.73,0.703 1.72,0.77 1.7,0.836 1.7,0.904 1.68,0.971 1.67,1.037 1.65,1.105 1.65,1.171 1.63,1.239 1.61,1.305 1.61,1.372 1.59,1.439 1.59,1.506 1.57,1.574 1.55,1.64 1.55,1.707 1.53,1.771 1.52,1.84 1.5,1.91 1.5,1.98 1.48,2.04 1.47,2.11 1.45,2.17 1.45,2.24 1.43,2.31 1.42,2.38 1.41,2.44 1.39,2.51 1.38,2.58 1.37,2.64 1.36,2.72 1.34,2.77 1.33,2.85 1.32,2.91 1.31,2.98 1.3,3.05 1.28,3.11 1.27,3.18 1.25,3.24 1.25,3.32 1.23,3.38 1.22,3.45 1.21,3.51 1.19,3.58 1.18,3.65 1.17,3.71 1.16,3.79 1.15,3.85 1.13,3.91 1.12,3.98 1.11,4.05 1.09,4.12 1.08,4.18 1.07,4.26" />
          <title id="title306">Curve b</title>
          <desc id="desc308">Curve b: Curve[5t - w / 2 tÃ&#131;Â&#130;Ã&#130;Â², 6t - 5tÃ&#131;Â&#130;Ã&#130;Â², t, 0, 1.2]</desc>
        </g>
      </g>
    </g>
  </g>
</svg>