<?xml version='1.0' ?><svg xmlns:dc="http://purl.org/dc/elements/1.1/" xmlns:cc="http://creativecommons.org/ns#" xmlns:rdf="http://www.w3.org/1999/02/22-rdf-syntax-ns#" xmlns:svg="http://www.w3.org/2000/svg" xmlns="http://www.w3.org/2000/svg" id="svg2" version="1.1" width="314.73447" height="196.4744" viewBox="0.0 1.1868591062300413 503.0000018501491 313.9999999475969" preserveAspectRatio="none">
  <metadata id="metadata314">
    <rdf:RDF>
      <cc:Work rdf:about="">
        <dc:format>image/svg+xml</dc:format>
        <dc:type rdf:resource="http://purl.org/dc/dcmitype/StillImage" />
      </cc:Work>
    </rdf:RDF>
  </metadata>
  <defs id="defs312" />
  <title id="title4" />
  <g id="g6" stroke-linecap="square" stroke-miterlimit="10.000" stroke-width="1.0000" stroke-dasharray="none" stroke-dashoffset="0.0000" stroke-linejoin="miter">
    <clipPath id="clip1">
      <path id="path9" d="M 0.0000 0.0000 L 0.0000 315.00 L 503.00 315.00 L 503.00 0.0000 z" />
    </clipPath>
    <g id="g11" clip-path="url(#clip1)">
      <g id="g13" stroke="#000000" stroke-opacity="1.0000" fill="none" stroke-linecap="butt">
        <path id="path15" d="M 126.55 2.0000 L 126.55 315.00" />
      </g>
    </g>
    <clipPath id="clip2">
      <path id="path18" d="M 0.0000 0.0000 L 0.0000 315.00 L 503.00 315.00 L 503.00 0.0000 z" />
    </clipPath>
    <g id="g20" clip-path="url(#clip2)">
      <g id="g22" fill="#000000" stroke="none" fill-rule="evenodd" fill-opacity="1.0000">
        <path id="path24" d="M 126.55 1.0000 L 122.55 17.000 L 130.55 17.000" />
      </g>
    </g>
    <clipPath id="clip3">
      <path id="path27" d="M 0.0000 0.0000 L 0.0000 315.00 L 503.00 315.00 L 503.00 0.0000 z" />
    </clipPath>
    <g id="g29" clip-path="url(#clip3)">
      <g id="g31" stroke="#000000" stroke-opacity="1.0000" fill="none" stroke-linecap="butt">
        <path id="path33" d="M 0.0000 213.81 L 501.00 213.81" />
      </g>
    </g>
    <clipPath id="clip4">
      <path id="path36" d="M 0.0000 0.0000 L 0.0000 315.00 L 503.00 315.00 L 503.00 0.0000 z" />
    </clipPath>
    <g id="g38" clip-path="url(#clip4)">
      <g id="g40" fill="#000000" stroke="none" fill-rule="evenodd" fill-opacity="1.0000">
        <path id="path42" d="M 502.00 213.81 L 486.00 209.81 L 486.00 217.81" />
      </g>
    </g>
    <clipPath id="clip5">
      <path id="path45" d="M 0.0000 0.0000 L 0.0000 315.00 L 503.00 315.00 L 503.00 0.0000 z" />
    </clipPath>
    <g id="g47" clip-path="url(#clip5)">
      <g id="g49" fill="#000000" stroke="none" fill-rule="nonzero" fill-opacity="1.0000">
        <path id="path51" d="M 8.6152 225.82 L 8.6152 225.02 L 13.385 225.02 L 13.385 225.82 z M 14.996 229.00 L 14.996 227.99 Q 15.500 226.81 17.035 225.42 L 17.697 224.83 Q 18.975 223.67 18.975 222.54 Q 18.975 221.81 18.538 221.39 Q 18.102 220.98 17.340 220.98 Q 16.438 220.98 15.213 221.68 L 15.213 220.66 Q 16.367 220.11 17.504 220.11 Q 18.723 220.11 19.461 220.77 Q 20.199 221.42 20.199 222.51 Q 20.199 223.29 19.827 223.89 Q 19.455 224.49 18.441 225.36 L 17.996 225.74 Q 16.607 226.91 16.391 227.99 L 20.158 227.99 L 20.158 229.00 z" />
      </g>
    </g>
    <clipPath id="clip6">
      <path id="path54" d="M 0.0000 0.0000 L 0.0000 315.00 L 503.00 315.00 L 503.00 0.0000 z" />
    </clipPath>
    <g id="g56" clip-path="url(#clip6)">
      <g id="g58" stroke="#000000" stroke-opacity="1.0000" fill="none" stroke-linecap="butt">
        <path id="path60" d="M 13.071 213.81 L 13.071 216.81" />
      </g>
    </g>
    <clipPath id="clip7">
      <path id="path63" d="M 0.0000 0.0000 L 0.0000 315.00 L 503.00 315.00 L 503.00 0.0000 z" />
    </clipPath>
    <g id="g65" clip-path="url(#clip7)">
      <g id="g67" fill="#000000" stroke="none" fill-rule="nonzero" fill-opacity="1.0000">
        <path id="path69" d="M 64.615 225.82 L 64.615 225.02 L 69.385 225.02 L 69.385 225.82 z M 71.805 229.00 L 71.805 228.13 L 73.539 228.13 L 73.539 221.29 L 71.805 221.72 L 71.805 220.83 L 74.699 220.11 L 74.699 228.13 L 76.434 228.13 L 76.434 229.00 z" />
      </g>
    </g>
    <clipPath id="clip8">
      <path id="path72" d="M 0.0000 0.0000 L 0.0000 315.00 L 503.00 315.00 L 503.00 0.0000 z" />
    </clipPath>
    <g id="g74" clip-path="url(#clip8)">
      <g id="g76" stroke="#000000" stroke-opacity="1.0000" fill="none" stroke-linecap="butt">
        <path id="path78" d="M 69.812 213.81 L 69.812 216.81" />
      </g>
    </g>
    <clipPath id="clip9">
      <path id="path81" d="M 0.0000 0.0000 L 0.0000 315.00 L 503.00 315.00 L 503.00 0.0000 z" />
    </clipPath>
    <g id="g83" clip-path="url(#clip9)">
      <g id="g85" fill="#000000" stroke="none" fill-rule="nonzero" fill-opacity="1.0000">
        <path id="path87" d="M 135.76 229.22 Q 134.42 229.22 133.59 227.95 Q 132.76 226.69 132.76 224.66 Q 132.76 222.61 133.60 221.36 Q 134.43 220.11 135.80 220.11 Q 137.16 220.11 138.00 221.36 Q 138.83 222.61 138.83 224.64 Q 138.83 226.73 138.00 227.97 Q 137.16 229.22 135.76 229.22 z M 135.77 228.35 Q 137.61 228.35 137.61 224.62 Q 137.61 220.98 135.80 220.98 Q 133.99 220.98 133.99 224.66 Q 133.99 228.35 135.77 228.35 z" />
      </g>
    </g>
    <clipPath id="clip10">
      <path id="path90" d="M 0.0000 0.0000 L 0.0000 315.00 L 503.00 315.00 L 503.00 0.0000 z" />
    </clipPath>
    <g id="g92" clip-path="url(#clip10)">
      <g id="g94" stroke="#000000" stroke-opacity="1.0000" fill="none" stroke-linecap="butt">
        <path id="path96" d="M 126.55 213.81 L 126.55 216.81" />
      </g>
    </g>
    <clipPath id="clip11">
      <path id="path99" d="M 0.0000 0.0000 L 0.0000 315.00 L 503.00 315.00 L 503.00 0.0000 z" />
    </clipPath>
    <g id="g101" clip-path="url(#clip11)">
      <g id="g103" fill="#000000" stroke="none" fill-rule="nonzero" fill-opacity="1.0000">
        <path id="path105" d="M 182.80 229.00 L 182.80 228.13 L 184.54 228.13 L 184.54 221.29 L 182.80 221.72 L 182.80 220.83 L 185.70 220.11 L 185.70 228.13 L 187.43 228.13 L 187.43 229.00 z" />
      </g>
    </g>
    <clipPath id="clip12">
      <path id="path108" d="M 0.0000 0.0000 L 0.0000 315.00 L 503.00 315.00 L 503.00 0.0000 z" />
    </clipPath>
    <g id="g110" clip-path="url(#clip12)">
      <g id="g112" stroke="#000000" stroke-opacity="1.0000" fill="none" stroke-linecap="butt">
        <path id="path114" d="M 183.29 213.81 L 183.29 216.81" />
      </g>
    </g>
    <clipPath id="clip13">
      <path id="path117" d="M 0.0000 0.0000 L 0.0000 315.00 L 503.00 315.00 L 503.00 0.0000 z" />
    </clipPath>
    <g id="g119" clip-path="url(#clip13)">
      <g id="g121" fill="#000000" stroke="none" fill-rule="nonzero" fill-opacity="1.0000">
        <path id="path123" d="M 239.00 229.00 L 239.00 227.99 Q 239.50 226.81 241.04 225.42 L 241.70 224.83 Q 242.97 223.67 242.97 222.54 Q 242.97 221.81 242.54 221.39 Q 242.10 220.98 241.34 220.98 Q 240.44 220.98 239.21 221.68 L 239.21 220.66 Q 240.37 220.11 241.50 220.11 Q 242.72 220.11 243.46 220.77 Q 244.20 221.42 244.20 222.51 Q 244.20 223.29 243.83 223.89 Q 243.46 224.49 242.44 225.36 L 242.00 225.74 Q 240.61 226.91 240.39 227.99 L 244.16 227.99 L 244.16 229.00 z" />
      </g>
    </g>
    <clipPath id="clip14">
      <path id="path126" d="M 0.0000 0.0000 L 0.0000 315.00 L 503.00 315.00 L 503.00 0.0000 z" />
    </clipPath>
    <g id="g128" clip-path="url(#clip14)">
      <g id="g130" stroke="#000000" stroke-opacity="1.0000" fill="none" stroke-linecap="butt">
        <path id="path132" d="M 240.03 213.81 L 240.03 216.81" />
      </g>
    </g>
    <clipPath id="clip15">
      <path id="path135" d="M 0.0000 0.0000 L 0.0000 315.00 L 503.00 315.00 L 503.00 0.0000 z" />
    </clipPath>
    <g id="g137" clip-path="url(#clip15)">
      <g id="g139" fill="#000000" stroke="none" fill-rule="nonzero" fill-opacity="1.0000">
        <path id="path141" d="M 295.22 228.94 L 295.22 227.86 Q 296.46 228.35 297.18 228.35 Q 298.00 228.35 298.52 227.87 Q 299.04 227.38 299.04 226.62 Q 299.04 224.79 296.48 224.79 L 296.02 224.79 L 296.02 224.01 L 296.43 224.00 Q 298.83 224.00 298.83 222.31 Q 298.83 220.98 297.25 220.98 Q 296.38 220.98 295.34 221.46 L 295.34 220.46 Q 296.36 220.11 297.33 220.11 Q 299.99 220.11 299.99 222.12 Q 299.99 223.65 298.18 224.30 Q 300.28 224.79 300.28 226.60 Q 300.28 227.82 299.47 228.52 Q 298.66 229.22 297.25 229.22 Q 296.44 229.22 295.22 228.94 z" />
      </g>
    </g>
    <clipPath id="clip16">
      <path id="path144" d="M 0.0000 0.0000 L 0.0000 315.00 L 503.00 315.00 L 503.00 0.0000 z" />
    </clipPath>
    <g id="g146" clip-path="url(#clip16)">
      <g id="g148" stroke="#000000" stroke-opacity="1.0000" fill="none" stroke-linecap="butt">
        <path id="path150" d="M 296.78 213.81 L 296.78 216.81" />
      </g>
    </g>
    <clipPath id="clip17">
      <path id="path153" d="M 0.0000 0.0000 L 0.0000 315.00 L 503.00 315.00 L 503.00 0.0000 z" />
    </clipPath>
    <g id="g155" clip-path="url(#clip17)">
      <g id="g157" fill="#000000" stroke="none" fill-rule="nonzero" fill-opacity="1.0000">
        <path id="path159" d="M 355.52 229.00 L 355.52 226.54 L 351.62 226.54 L 351.62 225.67 L 355.52 220.33 L 356.60 220.33 L 356.60 225.60 L 357.76 225.60 L 357.76 226.54 L 356.60 226.54 L 356.60 229.00 z M 352.75 225.60 L 355.59 225.60 L 355.59 221.75 z" />
      </g>
    </g>
    <clipPath id="clip18">
      <path id="path162" d="M 0.0000 0.0000 L 0.0000 315.00 L 503.00 315.00 L 503.00 0.0000 z" />
    </clipPath>
    <g id="g164" clip-path="url(#clip18)">
      <g id="g166" stroke="#000000" stroke-opacity="1.0000" fill="none" stroke-linecap="butt">
        <path id="path168" d="M 353.52 213.81 L 353.52 216.81" />
      </g>
    </g>
    <clipPath id="clip19">
      <path id="path171" d="M 0.0000 0.0000 L 0.0000 315.00 L 503.00 315.00 L 503.00 0.0000 z" />
    </clipPath>
    <g id="g173" clip-path="url(#clip19)">
      <g id="g175" fill="#000000" stroke="none" fill-rule="nonzero" fill-opacity="1.0000">
        <path id="path177" d="M 409.46 229.04 L 409.46 228.00 Q 410.32 228.35 411.10 228.35 Q 411.96 228.35 412.44 227.85 Q 412.93 227.34 412.93 226.46 Q 412.93 224.51 410.24 224.51 Q 409.94 224.51 409.61 224.55 L 409.61 220.33 L 413.99 220.33 L 413.99 221.34 L 410.62 221.34 L 410.62 223.62 Q 412.29 223.62 413.23 224.39 Q 414.16 225.16 414.16 226.52 Q 414.16 227.78 413.31 228.50 Q 412.46 229.22 410.95 229.22 Q 410.29 229.22 409.46 229.04 z" />
      </g>
    </g>
    <clipPath id="clip20">
      <path id="path180" d="M 0.0000 0.0000 L 0.0000 315.00 L 503.00 315.00 L 503.00 0.0000 z" />
    </clipPath>
    <g id="g182" clip-path="url(#clip20)">
      <g id="g184" stroke="#000000" stroke-opacity="1.0000" fill="none" stroke-linecap="butt">
        <path id="path186" d="M 410.26 213.81 L 410.26 216.81" />
      </g>
    </g>
    <clipPath id="clip21">
      <path id="path189" d="M 0.0000 0.0000 L 0.0000 315.00 L 503.00 315.00 L 503.00 0.0000 z" />
    </clipPath>
    <g id="g191" clip-path="url(#clip21)">
      <g id="g193" fill="#000000" stroke="none" fill-rule="nonzero" fill-opacity="1.0000">
        <path id="path195" d="M 466.06 224.51 Q 466.89 223.43 468.14 223.43 Q 469.28 223.43 470.00 224.19 Q 470.73 224.94 470.73 226.12 Q 470.73 227.47 469.92 228.34 Q 469.10 229.22 467.86 229.22 Q 466.42 229.22 465.61 228.06 Q 464.80 226.91 464.80 224.86 Q 464.80 222.60 465.73 221.35 Q 466.66 220.11 468.35 220.11 Q 469.12 220.11 470.28 220.43 L 470.28 221.44 Q 469.06 220.97 468.28 220.97 Q 466.06 220.97 466.06 224.51 z M 469.57 226.38 Q 469.57 225.39 469.12 224.83 Q 468.68 224.27 467.90 224.27 Q 467.16 224.27 466.64 224.76 Q 466.11 225.25 466.11 225.94 Q 466.11 227.03 466.61 227.69 Q 467.11 228.35 467.94 228.35 Q 468.68 228.35 469.12 227.81 Q 469.57 227.28 469.57 226.38 z" />
      </g>
    </g>
    <clipPath id="clip22">
      <path id="path198" d="M 0.0000 0.0000 L 0.0000 315.00 L 503.00 315.00 L 503.00 0.0000 z" />
    </clipPath>
    <g id="g200" clip-path="url(#clip22)">
      <g id="g202" stroke="#000000" stroke-opacity="1.0000" fill="none" stroke-linecap="butt">
        <path id="path204" d="M 467.00 213.81 L 467.00 216.81" />
      </g>
    </g>
    <clipPath id="clip23">
      <path id="path207" d="M 0.0000 0.0000 L 0.0000 315.00 L 503.00 315.00 L 503.00 0.0000 z" />
    </clipPath>
    <g id="g209" clip-path="url(#clip23)">
      <g id="g211" fill="#000000" stroke="none" fill-rule="nonzero" fill-opacity="1.0000">
        <path id="path213" d="M 105.62 290.82 L 105.62 290.02 L 110.38 290.02 L 110.38 290.82 z M 112.80 294.00 L 112.80 293.13 L 114.54 293.13 L 114.54 286.29 L 112.80 286.72 L 112.80 285.83 L 115.70 285.11 L 115.70 293.13 L 117.43 293.13 L 117.43 294.00 z" />
      </g>
    </g>
    <clipPath id="clip24">
      <path id="path216" d="M 0.0000 0.0000 L 0.0000 315.00 L 503.00 315.00 L 503.00 0.0000 z" />
    </clipPath>
    <g id="g218" clip-path="url(#clip24)">
      <g id="g220" stroke="#000000" stroke-opacity="1.0000" fill="none" stroke-linecap="butt">
        <path id="path222" d="M 123.55 289.97 L 126.55 289.97" />
      </g>
    </g>
    <clipPath id="clip25">
      <path id="path225" d="M 0.0000 0.0000 L 0.0000 315.00 L 503.00 315.00 L 503.00 0.0000 z" />
    </clipPath>
    <g id="g227" clip-path="url(#clip25)">
      <g id="g229" fill="#000000" stroke="none" fill-rule="nonzero" fill-opacity="1.0000">
        <path id="path231" d="M 114.76 211.22 Q 113.42 211.22 112.59 209.95 Q 111.76 208.69 111.76 206.66 Q 111.76 204.61 112.60 203.36 Q 113.43 202.11 114.80 202.11 Q 116.16 202.11 117.00 203.36 Q 117.83 204.61 117.83 206.64 Q 117.83 208.73 117.00 209.97 Q 116.16 211.22 114.76 211.22 z M 114.77 210.35 Q 116.61 210.35 116.61 206.62 Q 116.61 202.98 114.80 202.98 Q 112.99 202.98 112.99 206.66 Q 112.99 210.35 114.77 210.35 z" />
      </g>
    </g>
    <clipPath id="clip26">
      <path id="path234" d="M 0.0000 0.0000 L 0.0000 315.00 L 503.00 315.00 L 503.00 0.0000 z" />
    </clipPath>
    <g id="g236" clip-path="url(#clip26)">
      <g id="g238" fill="#000000" stroke="none" fill-rule="nonzero" fill-opacity="1.0000">
        <path id="path240" d="M 112.80 142.00 L 112.80 141.13 L 114.54 141.13 L 114.54 134.29 L 112.80 134.72 L 112.80 133.83 L 115.70 133.11 L 115.70 141.13 L 117.43 141.13 L 117.43 142.00 z" />
      </g>
    </g>
    <clipPath id="clip27">
      <path id="path243" d="M 0.0000 0.0000 L 0.0000 315.00 L 503.00 315.00 L 503.00 0.0000 z" />
    </clipPath>
    <g id="g245" clip-path="url(#clip27)">
      <g id="g247" stroke="#000000" stroke-opacity="1.0000" fill="none" stroke-linecap="butt">
        <path id="path249" d="M 123.55 137.64 L 126.55 137.64" />
      </g>
    </g>
    <clipPath id="clip28">
      <path id="path252" d="M 0.0000 0.0000 L 0.0000 315.00 L 503.00 315.00 L 503.00 0.0000 z" />
    </clipPath>
    <g id="g254" clip-path="url(#clip28)">
      <g id="g256" fill="#000000" stroke="none" fill-rule="nonzero" fill-opacity="1.0000">
        <path id="path258" d="M 112.00 66.000 L 112.00 64.986 Q 112.50 63.809 114.04 62.420 L 114.70 61.828 Q 115.97 60.674 115.97 59.537 Q 115.97 58.811 115.54 58.395 Q 115.10 57.979 114.34 57.979 Q 113.44 57.979 112.21 58.676 L 112.21 57.656 Q 113.37 57.111 114.50 57.111 Q 115.72 57.111 116.46 57.768 Q 117.20 58.424 117.20 59.508 Q 117.20 60.287 116.83 60.891 Q 116.46 61.494 115.44 62.355 L 115.00 62.736 Q 113.61 63.914 113.39 64.986 L 117.16 64.986 L 117.16 66.000 z" />
      </g>
    </g>
    <clipPath id="clip29">
      <path id="path261" d="M 0.0000 0.0000 L 0.0000 315.00 L 503.00 315.00 L 503.00 0.0000 z" />
    </clipPath>
    <g id="g263" clip-path="url(#clip29)">
      <g id="g265" stroke="#000000" stroke-opacity="1.0000" fill="none" stroke-linecap="butt">
        <path id="path267" d="M 123.55 61.480 L 126.55 61.480" />
      </g>
    </g>
    <g id="misc" />
    <g id="layer0">
      <clipPath id="clip30">
        <path id="path272" d="M 0.0000 0.0000 L 0.0000 315.00 L 503.00 315.00 L 503.00 0.0000 z" />
      </clipPath>
      <g id="g274" clip-path="url(#clip30)">
        <g id="g276" stroke="#000000" stroke-opacity="1.0000" fill="none" stroke-linecap="butt" stroke-width="1.5000" stroke-dasharray="9.5000,8.0000" stroke-linejoin="round">
          <path id="path278" d="M -270.63 1600.0 C 107.64 -431.04 485.91 -431.04 864.19 1600.0" />
          <title id="title280">Parabola c</title>
          <desc id="desc282">c: y = -0.2xÃ&#130;Â² + 1.2x</desc>
        </g>
      </g>
      <clipPath id="clip31">
        <path id="path285" d="M 0.0000 0.0000 L 0.0000 315.00 L 503.00 315.00 L 503.00 0.0000 z" />
      </clipPath>
      <g id="g287" clip-path="url(#clip31)">
        <g id="g289" fill="#000000" stroke="none" fill-rule="nonzero" fill-opacity="1.0000">
          <path id="path291" d="M 31.852 457.20 Q 30.133 457.20 29.000 455.92 Q 27.867 454.65 27.867 452.71 Q 27.867 450.64 28.988 449.48 Q 30.109 448.33 32.117 448.33 Q 33.109 448.33 34.336 448.60 L 34.336 449.89 Q 33.031 449.51 32.211 449.51 Q 31.031 449.51 30.316 450.39 Q 29.602 451.28 29.602 452.76 Q 29.602 454.19 30.336 455.07 Q 31.070 455.95 32.258 455.95 Q 33.312 455.95 34.430 455.41 L 34.430 456.74 Q 32.938 457.20 31.852 457.20 z" />
          <title id="title293">Parabola c</title>
          <desc id="desc295">c: y = -0.2xÃ&#130;Â² + 1.2x</desc>
        </g>
      </g>
      <clipPath id="clip32">
        <path id="path298" d="M 0.0000 0.0000 L 0.0000 315.00 L 503.00 315.00 L 503.00 0.0000 z" />
      </clipPath>
      <g id="g300" clip-path="url(#clip32)">
        <g id="g302" stroke="#000000" stroke-opacity="1.0000" fill="none" stroke-linecap="round" stroke-width="2.0000" stroke-linejoin="round">
          <path id="path304" d="M 126.55 213.81 L 129.20 209.55 L 131.82 205.37 L 134.42 201.25 L 136.99 197.20 L 139.54 193.22 L 142.06 189.31 L 144.56 185.46 L 147.03 181.67 L 149.48 177.96 L 151.90 174.31 L 154.30 170.73 L 156.67 167.22 L 159.02 163.77 L 161.35 160.39 L 163.64 157.07 L 165.92 153.83 L 168.17 150.65 L 170.39 147.54 L 172.59 144.49 L 174.76 141.51 L 176.91 138.60 L 179.03 135.75 L 181.13 132.98 L 183.21 130.26 L 185.25 127.62 L 187.28 125.04 L 189.28 122.53 L 191.25 120.09 L 193.20 117.71 L 195.12 115.40 L 197.02 113.16 L 198.90 110.99 L 200.75 108.88 L 202.57 106.84 L 204.37 104.86 L 206.15 102.95 L 207.89 101.11 L 209.62 99.339 L 211.32 97.632 L 212.99 95.992 L 214.64 94.418 L 216.27 92.912 L 217.87 91.473 L 219.44 90.101 L 220.99 88.796 L 222.52 87.557 L 224.02 86.386 L 225.49 85.281 L 226.95 84.244 L 228.37 83.273 L 229.77 82.369 L 231.15 81.533 L 232.50 80.763 L 233.82 80.060 L 235.12 79.424 L 236.40 78.855 L 237.65 78.353 L 238.88 77.918 L 240.08 77.550 L 241.25 77.248 L 242.40 77.014 L 243.53 76.847 L 244.63 76.746 L 245.71 76.713 L 246.76 76.746 L 247.79 76.847 L 248.79 77.014 L 249.76 77.248 L 250.72 77.550 L 251.64 77.918 L 252.55 78.353 L 253.42 78.855 L 254.27 79.424 L 255.10 80.060 L 255.90 80.763 L 256.68 81.533 L 257.43 82.369 L 258.16 83.273 L 258.86 84.244 L 259.54 85.281 L 260.19 86.386 L 260.82 87.557 L 261.42 88.796 L 262.00 90.101 L 262.55 91.473 L 263.08 92.912 L 263.58 94.418 L 264.06 95.992 L 264.51 97.632 L 264.94 99.339 L 265.35 101.11 L 265.72 102.95 L 266.08 104.86 L 266.40 106.84 L 266.71 108.88 L 266.99 110.99 L 267.24 113.16 L 267.47 115.40 L 267.67 117.71 L 267.85 120.09 L 268.00 122.53 L 268.13 125.04 L 268.24 127.62 L 268.32 130.26 L 268.37 132.98 L 268.40 135.75 L 268.40 138.60 L 268.38 141.51 L 268.34 144.49 L 268.27 147.54 L 268.17 150.65 L 268.05 153.83 L 267.91 157.07 L 267.73 160.39 L 267.54 163.77 L 267.32 167.22 L 267.07 170.73 L 266.80 174.31 L 266.51 177.96 L 266.19 181.67 L 265.84 185.46 L 265.47 189.31 L 265.08 193.22 L 264.66 197.20 L 264.21 201.25 L 263.75 205.37 L 263.25 209.55 L 262.73 213.81" />
          <title id="title306">Curve b</title>
          <desc id="desc308">Curve b: Curve[5t - w / 2 tÃ&#130;Â², 6t - 5tÃ&#130;Â², t, 0, 1.2]</desc>
        </g>
      </g>
    </g>
  </g>
</svg>