<?xml version='1.0' ?><svg xmlns:ns0="http://www.iki.fi/pav/software/textext/" xmlns:dc="http://purl.org/dc/elements/1.1/" xmlns:cc="http://creativecommons.org/ns#" xmlns:rdf="http://www.w3.org/1999/02/22-rdf-syntax-ns#" xmlns:svg="http://www.w3.org/2000/svg" xmlns="http://www.w3.org/2000/svg" id="svg2" version="1.1" width="449.99999" height="400.63205" viewBox="0.0 619.6067618916173 426.3999868101588 379.62112140430685" preserveAspectRatio="none">
  <metadata id="metadata877">
    <rdf:RDF>
      <cc:Work rdf:about="">
        <dc:format>image/svg+xml</dc:format>
        <dc:type rdf:resource="http://purl.org/dc/dcmitype/StillImage" />
        <dc:title />
      </cc:Work>
    </rdf:RDF>
  </metadata>
  <defs id="defs875" />
  <g stroke-miterlimit="10.000" id="g6" style="stroke-width:1;stroke-linecap:square;stroke-linejoin:miter;stroke-miterlimit:10;stroke-dasharray:none;stroke-dashoffset:0" transform="matrix(0.78522687,0,0,0.78522687,0,630.04474)">
    <clipPath id="clip1">
      <path d="m 0,0 0,469 533,0 0,-469 z" id="path9" />
    </clipPath>
    <g clip-path="url(#clip1)" id="g11">
      <g id="g13" style="fill:none;stroke:#000000;stroke-width:2;stroke-linecap:butt;stroke-opacity:1">
        <path d="m 65.218,3 0,466" id="path15" />
      </g>
      
    </g>
    
    <clipPath id="clip2">
      <path d="m 0,0 0,469 533,0 0,-469 z" id="path18" />
    </clipPath>
    <g clip-path="url(#clip2)" id="g20">
      <g id="g22" style="fill:#000000;fill-opacity:1;fill-rule:evenodd;stroke:none">
        <path d="m 65.218,2 -5,20 10,0" id="path24" />
      </g>
      
    </g>
    
    <clipPath id="clip3">
      <path d="m 0,0 0,469 533,0 0,-469 z" id="path27" />
    </clipPath>
    <g clip-path="url(#clip3)" id="g29">
      <g id="g31" style="fill:none;stroke:#000000;stroke-width:2;stroke-linecap:butt;stroke-opacity:1">
        <path d="m 0,300.88 530,0" id="path33" />
      </g>
      
    </g>
    
    <clipPath id="clip4">
      <path d="m 0,0 0,469 533,0 0,-469 z" id="path36" />
    </clipPath>
    <g clip-path="url(#clip4)" id="g38">
      <g id="g40" style="fill:#000000;fill-opacity:1;fill-rule:evenodd;stroke:none">
        <path d="m 531,300.88 -20,-5 0,10" id="path42" />
      </g>
      
    </g>
    
    <clipPath id="clip5">
      <path d="m 0,0 0,469 533,0 0,-469 z" id="path45" />
    </clipPath>
    <g clip-path="url(#clip5)" id="g47">
      <g id="g49" style="fill:#000000;fill-opacity:1;fill-rule:nonzero;stroke:none">
        <path d="m 74.762,316.22 q -1.342,0 -2.171,-1.27 -0.829,-1.26 -0.829,-3.29 0,-2.05 0.835,-3.3 0.835,-1.25 2.2,-1.25 1.365,0 2.2,1.25 0.835,1.25 0.835,3.28 0,2.09 -0.835,3.33 -0.835,1.25 -2.235,1.25 z m 0.011,-0.87 q 1.834,0 1.834,-3.73 0,-3.64 -1.81,-3.64 -1.805,0 -1.805,3.68 0,3.69 1.781,3.69 z" id="path51" />
      </g>
      
    </g>
    
    <clipPath id="clip6">
      <path d="m 0,0 0,469 533,0 0,-469 z" id="path54" />
    </clipPath>
    <g clip-path="url(#clip6)" id="g56">
      <g id="g58" style="fill:#000000;fill-opacity:1;fill-rule:nonzero;stroke:none">
        <path d="m 137,316 0,-1.01 q 0.5,-1.18 2.04,-2.57 l 0.66,-0.59 q 1.27,-1.16 1.27,-2.29 0,-0.73 -0.43,-1.15 -0.44,-0.41 -1.2,-0.41 -0.9,0 -2.13,0.7 l 0,-1.02 q 1.16,-0.55 2.29,-0.55 1.22,0 1.96,0.66 0.74,0.65 0.74,1.74 0,0.78 -0.37,1.38 -0.37,0.6 -1.39,1.47 l -0.44,0.38 q -1.39,1.17 -1.61,2.25 l 3.77,0 0,1.01 z" id="path60" />
      </g>
      
    </g>
    
    <clipPath id="clip7">
      <path d="m 0,0 0,469 533,0 0,-469 z" id="path63" />
    </clipPath>
    <g clip-path="url(#clip7)" id="g65">
      <g id="g67" style="fill:none;stroke:#000000;stroke-width:2;stroke-linecap:butt;stroke-opacity:1">
        <path d="m 138.21,300.88 0,3" id="path69" />
      </g>
      
    </g>
    
    <clipPath id="clip8">
      <path d="m 0,0 0,469 533,0 0,-469 z" id="path72" />
    </clipPath>
    <g clip-path="url(#clip8)" id="g74">
      <g id="g76" style="fill:#000000;fill-opacity:1;fill-rule:nonzero;stroke:none">
        <path d="m 213.52,316 0,-2.46 -3.9,0 0,-0.87 3.9,-5.34 1.08,0 0,5.27 1.16,0 0,0.94 -1.16,0 0,2.46 z m -2.77,-3.4 2.84,0 0,-3.85 z" id="path78" />
      </g>
      
    </g>
    
    <clipPath id="clip9">
      <path d="m 0,0 0,469 533,0 0,-469 z" id="path81" />
    </clipPath>
    <g clip-path="url(#clip9)" id="g83">
      <g id="g85" style="fill:none;stroke:#000000;stroke-width:2;stroke-linecap:butt;stroke-opacity:1">
        <path d="m 211.21,300.88 0,3" id="path87" />
      </g>
      
    </g>
    
    <clipPath id="clip10">
      <path d="m 0,0 0,469 533,0 0,-469 z" id="path90" />
    </clipPath>
    <g clip-path="url(#clip10)" id="g92">
      <g id="g94" style="fill:#000000;fill-opacity:1;fill-rule:nonzero;stroke:none">
        <path d="m 284.06,311.51 q 0.83,-1.08 2.08,-1.08 1.14,0 1.86,0.76 0.73,0.75 0.73,1.93 0,1.35 -0.81,2.22 -0.82,0.88 -2.06,0.88 -1.44,0 -2.25,-1.16 -0.81,-1.15 -0.81,-3.2 0,-2.26 0.93,-3.51 0.93,-1.24 2.62,-1.24 0.77,0 1.93,0.32 l 0,1.01 q -1.22,-0.47 -2,-0.47 -2.22,0 -2.22,3.54 z m 3.51,1.87 q 0,-0.99 -0.45,-1.55 -0.44,-0.56 -1.22,-0.56 -0.74,0 -1.26,0.49 -0.53,0.49 -0.53,1.18 0,1.09 0.5,1.75 0.5,0.66 1.33,0.66 0.74,0 1.18,-0.54 0.45,-0.53 0.45,-1.43 z" id="path96" />
      </g>
      
    </g>
    
    <clipPath id="clip11">
      <path d="m 0,0 0,469 533,0 0,-469 z" id="path99" />
    </clipPath>
    <g clip-path="url(#clip11)" id="g101">
      <g id="g103" style="fill:none;stroke:#000000;stroke-width:2;stroke-linecap:butt;stroke-opacity:1">
        <path d="m 284.2,300.88 0,3" id="path105" />
      </g>
      
    </g>
    
    <clipPath id="clip12">
      <path d="m 0,0 0,469 533,0 0,-469 z" id="path108" />
    </clipPath>
    <g clip-path="url(#clip12)" id="g110">
      <g id="g112" style="fill:#000000;fill-opacity:1;fill-rule:nonzero;stroke:none">
        <path d="m 357.76,311.28 q -1.27,-0.89 -1.27,-1.96 0,-0.98 0.72,-1.6 0.72,-0.61 1.88,-0.61 1.07,0 1.74,0.52 0.66,0.52 0.66,1.35 0,1.26 -1.61,2.3 1.96,0.96 1.96,2.48 0,1.09 -0.83,1.77 -0.82,0.69 -2.12,0.69 -1.28,0 -2.06,-0.65 -0.79,-0.65 -0.79,-1.7 0,-1.56 1.72,-2.59 z m 1.47,-0.37 q 1.21,-0.79 1.21,-1.77 0,-0.52 -0.4,-0.84 -0.41,-0.32 -1.07,-0.32 -0.64,0 -1.03,0.31 -0.4,0.32 -0.4,0.81 0,0.49 0.36,0.87 0.36,0.39 1.33,0.94 z m -0.84,0.84 q -0.7,0.54 -0.95,0.94 -0.25,0.4 -0.25,1 0,0.74 0.48,1.2 0.48,0.46 1.27,0.46 0.75,0 1.23,-0.39 0.48,-0.4 0.48,-1.02 0,-0.51 -0.3,-0.86 -0.29,-0.34 -1.14,-0.85 z" id="path114" />
      </g>
      
    </g>
    
    <clipPath id="clip13">
      <path d="m 0,0 0,469 533,0 0,-469 z" id="path117" />
    </clipPath>
    <g clip-path="url(#clip13)" id="g119">
      <g id="g121" style="fill:none;stroke:#000000;stroke-width:2;stroke-linecap:butt;stroke-opacity:1">
        <path d="m 357.2,300.88 0,3" id="path123" />
      </g>
      
    </g>
    
    <clipPath id="clip14">
      <path d="m 0,0 0,469 533,0 0,-469 z" id="path126" />
    </clipPath>
    <g clip-path="url(#clip14)" id="g128">
      <g id="g130" style="fill:#000000;fill-opacity:1;fill-rule:nonzero;stroke:none">
        <path d="m 426.8,316 0,-0.87 1.74,0 0,-6.84 -1.74,0.43 0,-0.89 2.9,-0.72 0,8.02 1.73,0 0,0.87 z m 9.55,0.22 q -1.34,0 -2.17,-1.27 -0.83,-1.26 -0.83,-3.29 0,-2.05 0.83,-3.3 0.84,-1.25 2.2,-1.25 1.37,0 2.2,1.25 0.84,1.25 0.84,3.28 0,2.09 -0.84,3.33 -0.83,1.25 -2.23,1.25 z m 0.01,-0.87 q 1.84,0 1.84,-3.73 0,-3.64 -1.82,-3.64 -1.8,0 -1.8,3.68 0,3.69 1.78,3.69 z" id="path132" />
      </g>
      
    </g>
    
    <clipPath id="clip15">
      <path d="m 0,0 0,469 533,0 0,-469 z" id="path135" />
    </clipPath>
    <g clip-path="url(#clip15)" id="g137">
      <g id="g139" style="fill:none;stroke:#000000;stroke-width:2;stroke-linecap:butt;stroke-opacity:1">
        <path d="m 430.19,300.88 0,3" id="path141" />
      </g>
      
    </g>
    
    <clipPath id="clip16">
      <path d="m 0,0 0,469 533,0 0,-469 z" id="path144" />
    </clipPath>
    <g clip-path="url(#clip16)" id="g146">
      <g id="g148" style="fill:#000000;fill-opacity:1;fill-rule:nonzero;stroke:none">
        <path d="m 499.8,316 0,-0.87 1.74,0 0,-6.84 -1.74,0.43 0,-0.89 2.9,-0.72 0,8.02 1.73,0 0,0.87 z m 6.78,0 0,-1.01 q 0.51,-1.18 2.04,-2.57 l 0.67,-0.59 q 1.27,-1.16 1.27,-2.29 0,-0.73 -0.43,-1.15 -0.44,-0.41 -1.2,-0.41 -0.9,0 -2.13,0.7 l 0,-1.02 q 1.16,-0.55 2.29,-0.55 1.22,0 1.96,0.66 0.74,0.65 0.74,1.74 0,0.78 -0.37,1.38 -0.38,0.6 -1.39,1.47 l -0.45,0.38 q -1.38,1.17 -1.6,2.25 l 3.77,0 0,1.01 z" id="path150" />
      </g>
      
    </g>
    
    <clipPath id="clip17">
      <path d="m 0,0 0,469 533,0 0,-469 z" id="path153" />
    </clipPath>
    <g clip-path="url(#clip17)" id="g155">
      <g id="g157" style="fill:none;stroke:#000000;stroke-width:2;stroke-linecap:butt;stroke-opacity:1">
        <path d="m 503.19,300.88 0,3" id="path159" />
      </g>
      
    </g>
    
    <clipPath id="clip18">
      <path d="m 0,0 0,469 533,0 0,-469 z" id="path162" />
    </clipPath>
    <g clip-path="url(#clip18)" id="g164">
      <g id="g166" style="fill:#000000;fill-opacity:1;fill-rule:nonzero;stroke:none">
        <path d="m 44.615,458.82 0,-0.8 4.77,0 0,0.8 z m 7.447,-1.31 q 0.827,-1.08 2.081,-1.08 1.136,0 1.86,0.76 0.724,0.75 0.724,1.93 0,1.35 -0.812,2.22 -0.811,0.88 -2.06,0.88 -1.435,0 -2.244,-1.16 -0.808,-1.15 -0.808,-3.2 0,-2.26 0.928,-3.51 0.929,-1.24 2.617,-1.24 0.773,0 1.933,0.32 l 0,1.01 q -1.224,-0.47 -2.004,-0.47 -2.215,0 -2.215,3.54 z m 3.504,1.87 q 0,-0.99 -0.442,-1.55 -0.442,-0.56 -1.228,-0.56 -0.732,0 -1.259,0.49 -0.528,0.49 -0.528,1.18 0,1.09 0.501,1.75 0.501,0.66 1.328,0.66 0.744,0 1.186,-0.54 0.442,-0.53 0.442,-1.43 z" id="path168" />
      </g>
      
    </g>
    
    <clipPath id="clip19">
      <path d="m 0,0 0,469 533,0 0,-469 z" id="path171" />
    </clipPath>
    <g clip-path="url(#clip19)" id="g173">
      <g id="g175" style="fill:none;stroke:#000000;stroke-width:2;stroke-linecap:butt;stroke-opacity:1">
        <path d="m 62.218,457.3 3,0" id="path177" />
      </g>
      
    </g>
    
    <clipPath id="clip20">
      <path d="m 0,0 0,469 533,0 0,-469 z" id="path180" />
    </clipPath>
    <g clip-path="url(#clip20)" id="g182">
      <g id="g184" style="fill:#000000;fill-opacity:1;fill-rule:nonzero;stroke:none">
        <path d="m 44.615,406.82 0,-0.8 4.77,0 0,0.8 z m 9.903,3.18 0,-2.46 -3.903,0 0,-0.87 3.903,-5.34 1.084,0 0,5.27 1.16,0 0,0.94 -1.16,0 0,2.46 z m -2.772,-3.4 2.848,0 0,-3.85 z" id="path186" />
      </g>
      
    </g>
    
    <clipPath id="clip21">
      <path d="m 0,0 0,469 533,0 0,-469 z" id="path189" />
    </clipPath>
    <g clip-path="url(#clip21)" id="g191">
      <g id="g193" style="fill:none;stroke:#000000;stroke-width:2;stroke-linecap:butt;stroke-opacity:1">
        <path d="m 62.218,405.16 3,0" id="path195" />
      </g>
      
    </g>
    
    <clipPath id="clip22">
      <path d="m 0,0 0,469 533,0 0,-469 z" id="path198" />
    </clipPath>
    <g clip-path="url(#clip22)" id="g200">
      <g id="g202" style="fill:#000000;fill-opacity:1;fill-rule:nonzero;stroke:none">
        <path d="m 44.615,354.82 0,-0.8 4.77,0 0,0.8 z m 6.381,3.18 0,-1.01 q 0.504,-1.18 2.039,-2.57 l 0.662,-0.59 q 1.278,-1.16 1.278,-2.29 0,-0.73 -0.437,-1.15 -0.436,-0.41 -1.198,-0.41 -0.902,0 -2.127,0.7 l 0,-1.02 q 1.154,-0.55 2.291,-0.55 1.219,0 1.957,0.66 0.738,0.65 0.738,1.74 0,0.78 -0.372,1.38 -0.372,0.6 -1.386,1.47 l -0.445,0.38 q -1.389,1.17 -1.605,2.25 l 3.767,0 0,1.01 z" id="path204" />
      </g>
      
    </g>
    
    <clipPath id="clip23">
      <path d="m 0,0 0,469 533,0 0,-469 z" id="path207" />
    </clipPath>
    <g clip-path="url(#clip23)" id="g209">
      <g id="g211" style="fill:none;stroke:#000000;stroke-width:2;stroke-linecap:butt;stroke-opacity:1">
        <path d="m 62.218,353.02 3,0" id="path213" />
      </g>
      
    </g>
    
    <clipPath id="clip24">
      <path d="m 0,0 0,469 533,0 0,-469 z" id="path216" />
    </clipPath>
    <g clip-path="url(#clip24)" id="g218">
      <g id="g220" style="fill:#000000;fill-opacity:1;fill-rule:nonzero;stroke:none">
        <path d="m 53.762,298.22 q -1.342,0 -2.171,-1.27 -0.829,-1.26 -0.829,-3.29 0,-2.05 0.835,-3.3 0.835,-1.25 2.2,-1.25 1.365,0 2.2,1.25 0.835,1.25 0.835,3.28 0,2.09 -0.835,3.33 -0.835,1.25 -2.235,1.25 z m 0.011,-0.87 q 1.834,0 1.834,-3.73 0,-3.64 -1.81,-3.64 -1.805,0 -1.805,3.68 0,3.69 1.781,3.69 z" id="path222" />
      </g>
      
    </g>
    
    <clipPath id="clip25">
      <path d="m 0,0 0,469 533,0 0,-469 z" id="path225" />
    </clipPath>
    <g clip-path="url(#clip25)" id="g227">
      <g id="g229" style="fill:#000000;fill-opacity:1;fill-rule:nonzero;stroke:none">
        <path d="m 50.996,253 0,-1.01 q 0.504,-1.18 2.039,-2.57 l 0.662,-0.59 q 1.278,-1.16 1.278,-2.29 0,-0.73 -0.437,-1.15 -0.436,-0.41 -1.198,-0.41 -0.902,0 -2.127,0.7 l 0,-1.02 q 1.154,-0.55 2.291,-0.55 1.219,0 1.957,0.66 0.738,0.65 0.738,1.74 0,0.78 -0.372,1.38 -0.372,0.6 -1.386,1.47 l -0.445,0.38 q -1.389,1.17 -1.605,2.25 l 3.767,0 0,1.01 z" id="path231" />
      </g>
      
    </g>
    
    <clipPath id="clip26">
      <path d="m 0,0 0,469 533,0 0,-469 z" id="path234" />
    </clipPath>
    <g clip-path="url(#clip26)" id="g236">
      <g id="g238" style="fill:none;stroke:#000000;stroke-width:2;stroke-linecap:butt;stroke-opacity:1">
        <path d="m 62.218,248.74 3,0" id="path240" />
      </g>
      
    </g>
    
    <clipPath id="clip27">
      <path d="m 0,0 0,469 533,0 0,-469 z" id="path243" />
    </clipPath>
    <g clip-path="url(#clip27)" id="g245">
      <g id="g247" style="fill:#000000;fill-opacity:1;fill-rule:nonzero;stroke:none">
        <path d="m 54.518,201 0,-2.46 -3.903,0 0,-0.87 3.903,-5.34 1.084,0 0,5.27 1.16,0 0,0.94 -1.16,0 0,2.46 z m -2.772,-3.4 2.848,0 0,-3.85 z" id="path249" />
      </g>
      
    </g>
    
    <clipPath id="clip28">
      <path d="m 0,0 0,469 533,0 0,-469 z" id="path252" />
    </clipPath>
    <g clip-path="url(#clip28)" id="g254">
      <g id="g256" style="fill:none;stroke:#000000;stroke-width:2;stroke-linecap:butt;stroke-opacity:1">
        <path d="m 62.218,196.6 3,0" id="path258" />
      </g>
      
    </g>
    
    <clipPath id="clip29">
      <path d="m 0,0 0,469 533,0 0,-469 z" id="path261" />
    </clipPath>
    <g clip-path="url(#clip29)" id="g263">
      <g id="g265" style="fill:#000000;fill-opacity:1;fill-rule:nonzero;stroke:none">
        <path d="m 52.062,144.51 q 0.827,-1.08 2.081,-1.08 1.136,0 1.86,0.76 0.724,0.75 0.724,1.93 0,1.35 -0.812,2.22 -0.811,0.88 -2.06,0.88 -1.435,0 -2.244,-1.16 -0.808,-1.15 -0.808,-3.2 0,-2.26 0.928,-3.51 0.929,-1.24 2.617,-1.24 0.773,0 1.933,0.32 l 0,1.01 q -1.224,-0.47 -2.004,-0.47 -2.215,0 -2.215,3.54 z m 3.504,1.87 q 0,-0.99 -0.442,-1.55 -0.442,-0.56 -1.228,-0.56 -0.732,0 -1.259,0.49 -0.528,0.49 -0.528,1.18 0,1.09 0.501,1.75 0.501,0.66 1.328,0.66 0.744,0 1.186,-0.54 0.442,-0.53 0.442,-1.43 z" id="path267" />
      </g>
      
    </g>
    
    <clipPath id="clip30">
      <path d="m 0,0 0,469 533,0 0,-469 z" id="path270" />
    </clipPath>
    <g clip-path="url(#clip30)" id="g272">
      <g id="g274" style="fill:none;stroke:#000000;stroke-width:2;stroke-linecap:butt;stroke-opacity:1">
        <path d="m 62.218,144.46 3,0" id="path276" />
      </g>
      
    </g>
    
    <clipPath id="clip31">
      <path d="m 0,0 0,469 533,0 0,-469 z" id="path279" />
    </clipPath>
    <g clip-path="url(#clip31)" id="g281">
      <g id="g283" style="fill:#000000;fill-opacity:1;fill-rule:nonzero;stroke:none">
        <path d="m 52.76,92.277 q -1.272,-0.884 -1.272,-1.957 0,-0.984 0.721,-1.599 0.721,-0.616 1.881,-0.616 1.072,0 1.737,0.522 0.665,0.521 0.665,1.353 0,1.26 -1.617,2.297 1.963,0.961 1.963,2.479 0,1.09 -0.823,1.775 -0.824,0.686 -2.124,0.686 -1.278,0 -2.066,-0.648 -0.788,-0.647 -0.788,-1.702 0,-1.558 1.723,-2.59 z m 1.47,-0.363 q 1.213,-0.797 1.213,-1.775 0,-0.522 -0.404,-0.841 -0.404,-0.319 -1.066,-0.319 -0.639,0 -1.037,0.313 -0.399,0.313 -0.399,0.812 0,0.486 0.36,0.87 0.361,0.383 1.333,0.94 z m -0.843,0.832 q -0.698,0.539 -0.947,0.941 -0.249,0.401 -0.249,0.999 0,0.744 0.481,1.204 0.48,0.46 1.266,0.46 0.755,0 1.233,-0.393 0.477,-0.393 0.477,-1.019 0,-0.504 -0.295,-0.853 -0.296,-0.349 -1.146,-0.853 z" id="path285" />
      </g>
      
    </g>
    
    <clipPath id="clip32">
      <path d="m 0,0 0,469 533,0 0,-469 z" id="path288" />
    </clipPath>
    <g clip-path="url(#clip32)" id="g290">
      <g id="g292" style="fill:none;stroke:#000000;stroke-width:2;stroke-linecap:butt;stroke-opacity:1">
        <path d="m 62.218,92.325 3,0" id="path294" />
      </g>
      
    </g>
    
    <clipPath id="clip33">
      <path d="m 0,0 0,469 533,0 0,-469 z" id="path297" />
    </clipPath>
    <g clip-path="url(#clip33)" id="g299">
      <g id="g301" style="fill:#000000;fill-opacity:1;fill-rule:nonzero;stroke:none">
        <path d="m 44.805,45 0,-0.867 1.734,0 0,-6.844 -1.734,0.434 0,-0.891 2.894,-0.721 0,8.022 1.735,0 0,0.867 z m 9.545,0.217 q -1.342,0 -2.171,-1.263 -0.829,-1.263 -0.829,-3.296 0,-2.051 0.835,-3.299 0.835,-1.248 2.2,-1.248 1.365,0 2.2,1.248 0.835,1.248 0.835,3.282 0,2.086 -0.835,3.331 -0.835,1.245 -2.235,1.245 z m 0.011,-0.867 q 1.834,0 1.834,-3.727 0,-3.644 -1.81,-3.644 -1.805,0 -1.805,3.679 0,3.692 1.781,3.692 z" id="path303" />
      </g>
      
    </g>
    
    <clipPath id="clip34">
      <path d="m 0,0 0,469 533,0 0,-469 z" id="path306" />
    </clipPath>
    <g clip-path="url(#clip34)" id="g308">
      <g id="g310" style="fill:none;stroke:#000000;stroke-width:2;stroke-linecap:butt;stroke-opacity:1">
        <path d="m 62.218,40.186 3,0" id="path312" />
      </g>
      
    </g>
    
    <clipPath id="clip35">
      <path d="m 0,0 0,469 533,0 0,-469 z" id="path315" />
    </clipPath>
    <g clip-path="url(#clip35)" id="g317">
      <g id="g319" style="fill:none;stroke:#c0c0c0;stroke-linecap:butt;stroke-linejoin:round;stroke-dasharray:9, 8;stroke-opacity:1">
        <path d="m 28.721,0 0,469" id="path321" />
      </g>
      
    </g>
    
    <clipPath id="clip36">
      <path d="m 0,0 0,469 533,0 0,-469 z" id="path324" />
    </clipPath>
    <g clip-path="url(#clip36)" id="g326">
      <g id="g328" style="fill:none;stroke:#c0c0c0;stroke-linecap:butt;stroke-linejoin:round;stroke-dasharray:9, 8;stroke-opacity:1">
        <path d="m 28.721,0 0,469" id="path330" />
      </g>
      
    </g>
    
    <clipPath id="clip37">
      <path d="m 0,0 0,469 533,0 0,-469 z" id="path333" />
    </clipPath>
    <g clip-path="url(#clip37)" id="g335">
      <g id="g337" style="fill:none;stroke:#c0c0c0;stroke-linecap:butt;stroke-linejoin:round;stroke-dasharray:9, 8;stroke-opacity:1">
        <path d="m 101.72,0 0,469" id="path339" />
      </g>
      
    </g>
    
    <clipPath id="clip38">
      <path d="m 0,0 0,469 533,0 0,-469 z" id="path342" />
    </clipPath>
    <g clip-path="url(#clip38)" id="g344">
      <g id="g346" style="fill:none;stroke:#c0c0c0;stroke-linecap:butt;stroke-linejoin:round;stroke-dasharray:9, 8;stroke-opacity:1">
        <path d="m 138.21,0 0,300.88" id="path348" />
      </g>
      
    </g>
    
    <clipPath id="clip39">
      <path d="m 0,0 0,469 533,0 0,-469 z" id="path351" />
    </clipPath>
    <g clip-path="url(#clip39)" id="g353">
      <g id="g355" style="fill:none;stroke:#c0c0c0;stroke-linecap:butt;stroke-linejoin:round;stroke-dasharray:9, 8;stroke-opacity:1">
        <path d="m 138.21,322.68 0,146.32" id="path357" />
      </g>
      
    </g>
    
    <clipPath id="clip40">
      <path d="m 0,0 0,469 533,0 0,-469 z" id="path360" />
    </clipPath>
    <g clip-path="url(#clip40)" id="g362">
      <g id="g364" style="fill:none;stroke:#c0c0c0;stroke-linecap:butt;stroke-linejoin:round;stroke-dasharray:9, 8;stroke-opacity:1">
        <path d="m 174.71,0 0,469" id="path366" />
      </g>
      
    </g>
    
    <clipPath id="clip41">
      <path d="m 0,0 0,469 533,0 0,-469 z" id="path369" />
    </clipPath>
    <g clip-path="url(#clip41)" id="g371">
      <g id="g373" style="fill:none;stroke:#c0c0c0;stroke-linecap:butt;stroke-linejoin:round;stroke-dasharray:9, 8;stroke-opacity:1">
        <path d="m 211.21,0 0,300.88" id="path375" />
      </g>
      
    </g>
    
    <clipPath id="clip42">
      <path d="m 0,0 0,469 533,0 0,-469 z" id="path378" />
    </clipPath>
    <g clip-path="url(#clip42)" id="g380">
      <g id="g382" style="fill:none;stroke:#c0c0c0;stroke-linecap:butt;stroke-linejoin:round;stroke-dasharray:9, 8;stroke-opacity:1">
        <path d="m 211.21,322.68 0,146.32" id="path384" />
      </g>
      
    </g>
    
    <clipPath id="clip43">
      <path d="m 0,0 0,469 533,0 0,-469 z" id="path387" />
    </clipPath>
    <g clip-path="url(#clip43)" id="g389">
      <g id="g391" style="fill:none;stroke:#c0c0c0;stroke-linecap:butt;stroke-linejoin:round;stroke-dasharray:9, 8;stroke-opacity:1">
        <path d="m 247.7,0 0,469" id="path393" />
      </g>
      
    </g>
    
    <clipPath id="clip44">
      <path d="m 0,0 0,469 533,0 0,-469 z" id="path396" />
    </clipPath>
    <g clip-path="url(#clip44)" id="g398">
      <g id="g400" style="fill:none;stroke:#c0c0c0;stroke-linecap:butt;stroke-linejoin:round;stroke-dasharray:9, 8;stroke-opacity:1">
        <path d="m 284.2,0 0,300.88" id="path402" />
      </g>
      
    </g>
    
    <clipPath id="clip45">
      <path d="m 0,0 0,469 533,0 0,-469 z" id="path405" />
    </clipPath>
    <g clip-path="url(#clip45)" id="g407">
      <g id="g409" style="fill:none;stroke:#c0c0c0;stroke-linecap:butt;stroke-linejoin:round;stroke-dasharray:9, 8;stroke-opacity:1">
        <path d="m 284.2,322.68 0,146.32" id="path411" />
      </g>
      
    </g>
    
    <clipPath id="clip46">
      <path d="m 0,0 0,469 533,0 0,-469 z" id="path414" />
    </clipPath>
    <g clip-path="url(#clip46)" id="g416">
      <g id="g418" style="fill:none;stroke:#c0c0c0;stroke-linecap:butt;stroke-linejoin:round;stroke-dasharray:9, 8;stroke-opacity:1">
        <path d="m 320.7,0 0,469" id="path420" />
      </g>
      
    </g>
    
    <clipPath id="clip47">
      <path d="m 0,0 0,469 533,0 0,-469 z" id="path423" />
    </clipPath>
    <g clip-path="url(#clip47)" id="g425">
      <g id="g427" style="fill:none;stroke:#c0c0c0;stroke-linecap:butt;stroke-linejoin:round;stroke-dasharray:9, 8;stroke-opacity:1">
        <path d="m 357.2,0 0,300.88" id="path429" />
      </g>
      
    </g>
    
    <clipPath id="clip48">
      <path d="m 0,0 0,469 533,0 0,-469 z" id="path432" />
    </clipPath>
    <g clip-path="url(#clip48)" id="g434">
      <g id="g436" style="fill:none;stroke:#c0c0c0;stroke-linecap:butt;stroke-linejoin:round;stroke-dasharray:9, 8;stroke-opacity:1">
        <path d="m 357.2,322.68 0,146.32" id="path438" />
      </g>
      
    </g>
    
    <clipPath id="clip49">
      <path d="m 0,0 0,469 533,0 0,-469 z" id="path441" />
    </clipPath>
    <g clip-path="url(#clip49)" id="g443">
      <g id="g445" style="fill:none;stroke:#c0c0c0;stroke-linecap:butt;stroke-linejoin:round;stroke-dasharray:9, 8;stroke-opacity:1">
        <path d="m 393.69,0 0,469" id="path447" />
      </g>
      
    </g>
    
    <clipPath id="clip50">
      <path d="m 0,0 0,469 533,0 0,-469 z" id="path450" />
    </clipPath>
    <g clip-path="url(#clip50)" id="g452">
      <g id="g454" style="fill:none;stroke:#c0c0c0;stroke-linecap:butt;stroke-linejoin:round;stroke-dasharray:9, 8;stroke-opacity:1">
        <path d="m 430.19,0 0,300.88" id="path456" />
      </g>
      
    </g>
    
    <clipPath id="clip51">
      <path d="m 0,0 0,469 533,0 0,-469 z" id="path459" />
    </clipPath>
    <g clip-path="url(#clip51)" id="g461">
      <g id="g463" style="fill:none;stroke:#c0c0c0;stroke-linecap:butt;stroke-linejoin:round;stroke-dasharray:9, 8;stroke-opacity:1">
        <path d="m 430.19,322.68 0,146.32" id="path465" />
      </g>
      
    </g>
    
    <clipPath id="clip52">
      <path d="m 0,0 0,469 533,0 0,-469 z" id="path468" />
    </clipPath>
    <g clip-path="url(#clip52)" id="g470">
      <g id="g472" style="fill:none;stroke:#c0c0c0;stroke-linecap:butt;stroke-linejoin:round;stroke-dasharray:9, 8;stroke-opacity:1">
        <path d="m 466.69,0 0,469" id="path474" />
      </g>
      
    </g>
    
    <clipPath id="clip53">
      <path d="m 0,0 0,469 533,0 0,-469 z" id="path477" />
    </clipPath>
    <g clip-path="url(#clip53)" id="g479">
      <g id="g481" style="fill:none;stroke:#c0c0c0;stroke-linecap:butt;stroke-linejoin:round;stroke-dasharray:9, 8;stroke-opacity:1">
        <path d="m 503.19,0 0,300.88" id="path483" />
      </g>
      
    </g>
    
    <clipPath id="clip54">
      <path d="m 0,0 0,469 533,0 0,-469 z" id="path486" />
    </clipPath>
    <g clip-path="url(#clip54)" id="g488">
      <g id="g490" style="fill:none;stroke:#c0c0c0;stroke-linecap:butt;stroke-linejoin:round;stroke-dasharray:9, 8;stroke-opacity:1">
        <path d="m 503.19,322.68 0,146.32" id="path492" />
      </g>
      
    </g>
    
    <clipPath id="clip55">
      <path d="m 0,0 0,469 533,0 0,-469 z" id="path495" />
    </clipPath>
    <g clip-path="url(#clip55)" id="g497">
      <g id="g499" style="fill:none;stroke:#c0c0c0;stroke-linecap:butt;stroke-linejoin:round;stroke-dasharray:9, 8;stroke-opacity:1">
        <path d="m 0,14.117 533,0" id="path501" />
      </g>
      
    </g>
    
    <clipPath id="clip56">
      <path d="m 0,0 0,469 533,0 0,-469 z" id="path504" />
    </clipPath>
    <g clip-path="url(#clip56)" id="g506">
      <g id="g508" style="fill:none;stroke:#c0c0c0;stroke-linecap:butt;stroke-linejoin:round;stroke-dasharray:9, 8;stroke-opacity:1">
        <path d="m 0,14.117 533,0" id="path510" />
      </g>
      
    </g>
    
    <clipPath id="clip57">
      <path d="m 0,0 0,469 533,0 0,-469 z" id="path513" />
    </clipPath>
    <g clip-path="url(#clip57)" id="g515">
      <g id="g517" style="fill:none;stroke:#c0c0c0;stroke-linecap:butt;stroke-linejoin:round;stroke-dasharray:9, 8;stroke-opacity:1">
        <path d="m 0,40.186 40.042,0" id="path519" />
      </g>
      
    </g>
    
    <clipPath id="clip58">
      <path d="m 0,0 0,469 533,0 0,-469 z" id="path522" />
    </clipPath>
    <g clip-path="url(#clip58)" id="g524">
      <g id="g526" style="fill:none;stroke:#c0c0c0;stroke-linecap:butt;stroke-linejoin:round;stroke-dasharray:9, 8;stroke-opacity:1">
        <path d="m 65.218,40.186 467.782,0" id="path528" />
      </g>
      
    </g>
    
    <clipPath id="clip59">
      <path d="m 0,0 0,469 533,0 0,-469 z" id="path531" />
    </clipPath>
    <g clip-path="url(#clip59)" id="g533">
      <g id="g535" style="fill:none;stroke:#c0c0c0;stroke-linecap:butt;stroke-linejoin:round;stroke-dasharray:9, 8;stroke-opacity:1">
        <path d="m 0,66.256 533,0" id="path537" />
      </g>
      
    </g>
    
    <clipPath id="clip60">
      <path d="m 0,0 0,469 533,0 0,-469 z" id="path540" />
    </clipPath>
    <g clip-path="url(#clip60)" id="g542">
      <g id="g544" style="fill:none;stroke:#c0c0c0;stroke-linecap:butt;stroke-linejoin:round;stroke-dasharray:9, 8;stroke-opacity:1">
        <path d="m 0,92.325 40.042,0" id="path546" />
      </g>
      
    </g>
    
    <clipPath id="clip61">
      <path d="m 0,0 0,469 533,0 0,-469 z" id="path549" />
    </clipPath>
    <g clip-path="url(#clip61)" id="g551">
      <g id="g553" style="fill:none;stroke:#c0c0c0;stroke-linecap:butt;stroke-linejoin:round;stroke-dasharray:9, 8;stroke-opacity:1">
        <path d="m 65.218,92.325 467.782,0" id="path555" />
      </g>
      
    </g>
    
    <clipPath id="clip62">
      <path d="m 0,0 0,469 533,0 0,-469 z" id="path558" />
    </clipPath>
    <g clip-path="url(#clip62)" id="g560">
      <g id="g562" style="fill:none;stroke:#c0c0c0;stroke-linecap:butt;stroke-linejoin:round;stroke-dasharray:9, 8;stroke-opacity:1">
        <path d="m 0,118.39 533,0" id="path564" />
      </g>
      
    </g>
    
    <clipPath id="clip63">
      <path d="m 0,0 0,469 533,0 0,-469 z" id="path567" />
    </clipPath>
    <g clip-path="url(#clip63)" id="g569">
      <g id="g571" style="fill:none;stroke:#c0c0c0;stroke-linecap:butt;stroke-linejoin:round;stroke-dasharray:9, 8;stroke-opacity:1">
        <path d="m 0,144.46 40.042,0" id="path573" />
      </g>
      
    </g>
    
    <clipPath id="clip64">
      <path d="m 0,0 0,469 533,0 0,-469 z" id="path576" />
    </clipPath>
    <g clip-path="url(#clip64)" id="g578">
      <g id="g580" style="fill:none;stroke:#c0c0c0;stroke-linecap:butt;stroke-linejoin:round;stroke-dasharray:9, 8;stroke-opacity:1">
        <path d="m 65.218,144.46 467.782,0" id="path582" />
      </g>
      
    </g>
    
    <clipPath id="clip65">
      <path d="m 0,0 0,469 533,0 0,-469 z" id="path585" />
    </clipPath>
    <g clip-path="url(#clip65)" id="g587">
      <g id="g589" style="fill:none;stroke:#c0c0c0;stroke-linecap:butt;stroke-linejoin:round;stroke-dasharray:9, 8;stroke-opacity:1">
        <path d="m 0,170.53 533,0" id="path591" />
      </g>
      
    </g>
    
    <clipPath id="clip66">
      <path d="m 0,0 0,469 533,0 0,-469 z" id="path594" />
    </clipPath>
    <g clip-path="url(#clip66)" id="g596">
      <g id="g598" style="fill:none;stroke:#c0c0c0;stroke-linecap:butt;stroke-linejoin:round;stroke-dasharray:9, 8;stroke-opacity:1">
        <path d="m 0,196.6 40.042,0" id="path600" />
      </g>
      
    </g>
    
    <clipPath id="clip67">
      <path d="m 0,0 0,469 533,0 0,-469 z" id="path603" />
    </clipPath>
    <g clip-path="url(#clip67)" id="g605">
      <g id="g607" style="fill:none;stroke:#c0c0c0;stroke-linecap:butt;stroke-linejoin:round;stroke-dasharray:9, 8;stroke-opacity:1">
        <path d="M 65.218,196.6 533,196.6" id="path609" />
      </g>
      
    </g>
    
    <clipPath id="clip68">
      <path d="m 0,0 0,469 533,0 0,-469 z" id="path612" />
    </clipPath>
    <g clip-path="url(#clip68)" id="g614">
      <g id="g616" style="fill:none;stroke:#c0c0c0;stroke-linecap:butt;stroke-linejoin:round;stroke-dasharray:9, 8;stroke-opacity:1">
        <path d="m 0,222.67 533,0" id="path618" />
      </g>
      
    </g>
    
    <clipPath id="clip69">
      <path d="m 0,0 0,469 533,0 0,-469 z" id="path621" />
    </clipPath>
    <g clip-path="url(#clip69)" id="g623">
      <g id="g625" style="fill:none;stroke:#c0c0c0;stroke-linecap:butt;stroke-linejoin:round;stroke-dasharray:9, 8;stroke-opacity:1">
        <path d="m 0,248.74 40.042,0" id="path627" />
      </g>
      
    </g>
    
    <clipPath id="clip70">
      <path d="m 0,0 0,469 533,0 0,-469 z" id="path630" />
    </clipPath>
    <g clip-path="url(#clip70)" id="g632">
      <g id="g634" style="fill:none;stroke:#c0c0c0;stroke-linecap:butt;stroke-linejoin:round;stroke-dasharray:9, 8;stroke-opacity:1">
        <path d="m 65.218,248.74 467.782,0" id="path636" />
      </g>
      
    </g>
    
    <clipPath id="clip71">
      <path d="m 0,0 0,469 533,0 0,-469 z" id="path639" />
    </clipPath>
    <g clip-path="url(#clip71)" id="g641">
      <g id="g643" style="fill:none;stroke:#c0c0c0;stroke-linecap:butt;stroke-linejoin:round;stroke-dasharray:9, 8;stroke-opacity:1">
        <path d="m 0,274.81 533,0" id="path645" />
      </g>
      
    </g>
    
    <clipPath id="clip72">
      <path d="m 0,0 0,469 533,0 0,-469 z" id="path648" />
    </clipPath>
    <g clip-path="url(#clip72)" id="g650">
      <g id="g652" style="fill:none;stroke:#c0c0c0;stroke-linecap:butt;stroke-linejoin:round;stroke-dasharray:9, 8;stroke-opacity:1">
        <path d="m 0,326.95 533,0" id="path654" />
      </g>
      
    </g>
    
    <clipPath id="clip73">
      <path d="m 0,0 0,469 533,0 0,-469 z" id="path657" />
    </clipPath>
    <g clip-path="url(#clip73)" id="g659">
      <g id="g661" style="fill:none;stroke:#c0c0c0;stroke-linecap:butt;stroke-linejoin:round;stroke-dasharray:9, 8;stroke-opacity:1">
        <path d="m 0,353.02 41.63,0" id="path663" />
      </g>
      
    </g>
    
    <clipPath id="clip74">
      <path d="m 0,0 0,469 533,0 0,-469 z" id="path666" />
    </clipPath>
    <g clip-path="url(#clip74)" id="g668">
      <g id="g670" style="fill:none;stroke:#c0c0c0;stroke-linecap:butt;stroke-linejoin:round;stroke-dasharray:9, 8;stroke-opacity:1">
        <path d="m 65.218,353.02 467.782,0" id="path672" />
      </g>
      
    </g>
    
    <clipPath id="clip75">
      <path d="m 0,0 0,469 533,0 0,-469 z" id="path675" />
    </clipPath>
    <g clip-path="url(#clip75)" id="g677">
      <g id="g679" style="fill:none;stroke:#c0c0c0;stroke-linecap:butt;stroke-linejoin:round;stroke-dasharray:9, 8;stroke-opacity:1">
        <path d="m 0,379.09 533,0" id="path681" />
      </g>
      
    </g>
    
    <clipPath id="clip76">
      <path d="m 0,0 0,469 533,0 0,-469 z" id="path684" />
    </clipPath>
    <g clip-path="url(#clip76)" id="g686">
      <g id="g688" style="fill:none;stroke:#c0c0c0;stroke-linecap:butt;stroke-linejoin:round;stroke-dasharray:9, 8;stroke-opacity:1">
        <path d="m 0,405.16 41.63,0" id="path690" />
      </g>
      
    </g>
    
    <clipPath id="clip77">
      <path d="m 0,0 0,469 533,0 0,-469 z" id="path693" />
    </clipPath>
    <g clip-path="url(#clip77)" id="g695">
      <g id="g697" style="fill:none;stroke:#c0c0c0;stroke-linecap:butt;stroke-linejoin:round;stroke-dasharray:9, 8;stroke-opacity:1">
        <path d="m 65.218,405.16 467.782,0" id="path699" />
      </g>
      
    </g>
    
    <clipPath id="clip78">
      <path d="m 0,0 0,469 533,0 0,-469 z" id="path702" />
    </clipPath>
    <g clip-path="url(#clip78)" id="g704">
      <g id="g706" style="fill:none;stroke:#c0c0c0;stroke-linecap:butt;stroke-linejoin:round;stroke-dasharray:9, 8;stroke-opacity:1">
        <path d="m 0,431.23 533,0" id="path708" />
      </g>
      
    </g>
    
    <clipPath id="clip79">
      <path d="m 0,0 0,469 533,0 0,-469 z" id="path711" />
    </clipPath>
    <g clip-path="url(#clip79)" id="g713">
      <g id="g715" style="fill:none;stroke:#c0c0c0;stroke-linecap:butt;stroke-linejoin:round;stroke-dasharray:9, 8;stroke-opacity:1">
        <path d="m 0,457.3 41.63,0" id="path717" />
      </g>
      
    </g>
    
    <clipPath id="clip80">
      <path d="m 0,0 0,469 533,0 0,-469 z" id="path720" />
    </clipPath>
    <g clip-path="url(#clip80)" id="g722">
      <g id="g724" style="fill:none;stroke:#c0c0c0;stroke-linecap:butt;stroke-linejoin:round;stroke-dasharray:9, 8;stroke-opacity:1">
        <path d="M 65.218,457.3 533,457.3" id="path726" />
      </g>
      
    </g>
    
    <g id="misc" />
    
    <g id="layer0">
      <clipPath id="clip81">
        <path d="m 0,0 0,469 533,0 0,-469 z" id="path731" />
      </clipPath>
      <g clip-path="url(#clip81)" id="g733">
        <g id="g735" style="fill:none;stroke:#990033;stroke-width:2.5;stroke-linecap:round;stroke-linejoin:round;stroke-opacity:1">
          <path d="M 7.814,474 451.63,-5" id="path737" />
          <title id="title739">Line f</title>
          <desc id="desc741">Line f: FitLine[{A, B, C, D, E}]</desc>
        </g>
        
      </g>
      
      <clipPath id="clip82">
        <path d="m 0,0 0,469 533,0 0,-469 z" id="path744" />
      </clipPath>
      <g clip-path="url(#clip82)" id="g746">
        <g id="g748" style="fill:#0000ff;fill-opacity:1;fill-rule:nonzero;stroke:none">
          <path d="m 354.9,97.539 c 0,2.761 -2.24,5.001 -5,5.001 -2.76,0 -5,-2.24 -5,-5.001 0,-2.761 2.24,-5 5,-5 2.76,0 5,2.239 5,5 z" id="path750" />
          <title id="title752">Point A</title>
          <desc id="desc754">A = (7.8, 7.8)</desc>
        </g>
        
      </g>
      
      <clipPath id="clip83">
        <path d="m 0,0 0,469 533,0 0,-469 z" id="path757" />
      </clipPath>
      <g clip-path="url(#clip83)" id="g759">
        <g id="g761" style="fill:none;stroke:#000000;stroke-linecap:round;stroke-linejoin:round;stroke-opacity:1">
          <path d="m 354.9,97.539 c 0,2.761 -2.24,5.001 -5,5.001 -2.76,0 -5,-2.24 -5,-5.001 0,-2.761 2.24,-5 5,-5 2.76,0 5,2.239 5,5 z" id="path763" />
          <title id="title765">Point A</title>
          <desc id="desc767">A = (7.8, 7.8)</desc>
        </g>
        
      </g>
      
      <clipPath id="clip84">
        <path d="m 0,0 0,469 533,0 0,-469 z" id="path770" />
      </clipPath>
      <g clip-path="url(#clip84)" id="g772">
        <g id="g774" style="fill:#0000ff;fill-opacity:1;fill-rule:nonzero;stroke:none">
          <path d="m 416.94,40.186 c 0,2.762 -2.24,5 -5,5 -2.76,0 -5,-2.238 -5,-5 0,-2.761 2.24,-5 5,-5 2.76,0 5,2.239 5,5 z" id="path776" />
          <title id="title778">Point B</title>
          <desc id="desc780">B = (9.5, 10)</desc>
        </g>
        
      </g>
      
      <clipPath id="clip85">
        <path d="m 0,0 0,469 533,0 0,-469 z" id="path783" />
      </clipPath>
      <g clip-path="url(#clip85)" id="g785">
        <g id="g787" style="fill:none;stroke:#000000;stroke-linecap:round;stroke-linejoin:round;stroke-opacity:1">
          <path d="m 416.94,40.186 c 0,2.762 -2.24,5 -5,5 -2.76,0 -5,-2.238 -5,-5 0,-2.761 2.24,-5 5,-5 2.76,0 5,2.239 5,5 z" id="path789" />
          <title id="title791">Point B</title>
          <desc id="desc793">B = (9.5, 10)</desc>
        </g>
        
      </g>
      
      <clipPath id="clip86">
        <path d="m 0,0 0,469 533,0 0,-469 z" id="path796" />
      </clipPath>
      <g clip-path="url(#clip86)" id="g798">
        <g id="g800" style="fill:#0000ff;fill-opacity:1;fill-rule:nonzero;stroke:none">
          <path d="m 322.05,144.46 c 0,2.77 -2.24,5 -5,5 -2.76,0 -5,-2.23 -5,-5 0,-2.76 2.24,-5 5,-5 2.76,0 5,2.24 5,5 z" id="path802" />
          <title id="title804">Point C</title>
          <desc id="desc806">C = (6.9, 6)</desc>
        </g>
        
      </g>
      
      <clipPath id="clip87">
        <path d="m 0,0 0,469 533,0 0,-469 z" id="path809" />
      </clipPath>
      <g clip-path="url(#clip87)" id="g811">
        <g id="g813" style="fill:none;stroke:#000000;stroke-linecap:round;stroke-linejoin:round;stroke-opacity:1">
          <path d="m 322.05,144.46 c 0,2.77 -2.24,5 -5,5 -2.76,0 -5,-2.23 -5,-5 0,-2.76 2.24,-5 5,-5 2.76,0 5,2.24 5,5 z" id="path815" />
          <title id="title817">Point C</title>
          <desc id="desc819">C = (6.9, 6)</desc>
        </g>
        
      </g>
      
      <clipPath id="clip88">
        <path d="m 0,0 0,469 533,0 0,-469 z" id="path822" />
      </clipPath>
      <g clip-path="url(#clip88)" id="g824">
        <g id="g826" style="fill:#0000ff;fill-opacity:1;fill-rule:nonzero;stroke:none">
          <path d="m 227.16,240.92 c 0,2.76 -2.24,5 -5,5 -2.77,0 -5,-2.24 -5,-5 0,-2.76 2.23,-5 5,-5 2.76,0 5,2.24 5,5 z" id="path828" />
          <title id="title830">Point D</title>
          <desc id="desc832">D = (4.3, 2.3)</desc>
        </g>
        
      </g>
      
      <clipPath id="clip89">
        <path d="m 0,0 0,469 533,0 0,-469 z" id="path835" />
      </clipPath>
      <g clip-path="url(#clip89)" id="g837">
        <g id="g839" style="fill:none;stroke:#000000;stroke-linecap:round;stroke-linejoin:round;stroke-opacity:1">
          <path d="m 227.16,240.92 c 0,2.76 -2.24,5 -5,5 -2.77,0 -5,-2.24 -5,-5 0,-2.76 2.23,-5 5,-5 2.76,0 5,2.24 5,5 z" id="path841" />
          <title id="title843">Point D</title>
          <desc id="desc845">D = (4.3, 2.3)</desc>
        </g>
        
      </g>
      
      <clipPath id="clip90">
        <path d="m 0,0 0,469 533,0 0,-469 z" id="path848" />
      </clipPath>
      <g clip-path="url(#clip90)" id="g850">
        <g id="g852" style="fill:#0000ff;fill-opacity:1;fill-rule:nonzero;stroke:none">
          <path d="m 260,209.64 c 0,2.76 -2.23,5 -5,5 -2.76,0 -5,-2.24 -5,-5 0,-2.76 2.24,-5 5,-5 2.77,0 5,2.24 5,5 z" id="path854" />
          <title id="title856">Point E</title>
          <desc id="desc858">E = (5.2, 3.5)</desc>
        </g>
        
      </g>
      
      <clipPath id="clip91">
        <path d="m 0,0 0,469 533,0 0,-469 z" id="path861" />
      </clipPath>
      <g clip-path="url(#clip91)" id="g863">
        <g id="g865" style="fill:none;stroke:#000000;stroke-linecap:round;stroke-linejoin:round;stroke-opacity:1">
          <path d="m 260,209.64 c 0,2.76 -2.23,5 -5,5 -2.76,0 -5,-2.24 -5,-5 0,-2.76 2.24,-5 5,-5 2.77,0 5,2.24 5,5 z" id="path867" />
          <title id="title869">Point E</title>
          <desc id="desc871">E = (5.2, 3.5)</desc>
        </g>
        
      </g>
      
    </g>
    
  </g>
  
  <g id="content" transform="matrix(1.5704537,0,0,-1.5704537,-295.92874,1380.8362)" xml:space="preserve" stroke-miterlimit="10.433" font-style="normal" font-variant="normal" font-weight="normal" font-stretch="normal" font-size-adjust="none" letter-spacing="normal" word-spacing="normal" ns0:text="$\\log_{10}E$" ns0:preamble="/Users/prmb/CMEP/underground-inkscape-preamble.tex" style="font-style:normal;font-variant:normal;font-weight:normal;font-stretch:normal;letter-spacing:normal;word-spacing:normal;text-anchor:start;fill:none;fill-opacity:1;fill-rule:evenodd;stroke:#000000;stroke-linecap:butt;stroke-linejoin:miter;stroke-miterlimit:10.43299961;stroke-dasharray:none;stroke-dashoffset:0;stroke-opacity:1"><path d="m 226.47,477.23 0,0.18 c -0.76,0.05 -0.89,0.2 -0.89,0.85 l 0,6.99 -0.06,0.05 c -0.61,-0.2 -1.05,-0.32 -1.86,-0.52 l 0,-0.19 c 0.19,0.02 0.34,0.02 0.43,0.02 0.38,0 0.5,-0.19 0.5,-0.75 l 0,-5.54 c 0,-0.65 -0.17,-0.85 -0.91,-0.91 l 0,-0.18 z" id="path5490" style="fill:#000000;stroke-width:0" /><path d="m 232.27,479.96 0,0.15 -0.01,0.15 -0.01,0.15 -0.03,0.14 -0.02,0.13 -0.04,0.14 -0.04,0.13 -0.04,0.12 -0.05,0.12 -0.06,0.12 -0.06,0.11 -0.06,0.11 -0.07,0.11 -0.08,0.1 -0.08,0.09 -0.08,0.09 -0.09,0.09 -0.09,0.08 -0.1,0.08 -0.1,0.07 -0.1,0.07 -0.11,0.06 -0.11,0.05 -0.11,0.05 -0.12,0.05 -0.12,0.04 -0.12,0.03 -0.12,0.03 -0.13,0.02 -0.13,0.01 -0.13,0.01 -0.14,0.01 c -1.59,0 -2.65,-1.1 -2.65,-2.74 0,-1.64 1.12,-2.81 2.55,-2.81 l 0.2,0.33 c -0.43,0 -0.8,0.21 -1.06,0.59 -0.44,0.63 -0.63,1.48 -0.63,2.42 0,1.18 0.56,1.87 1.37,1.87 0.51,0 0.84,-0.23 1.12,-0.59 0.38,-0.48 0.59,-1.29 0.59,-2.1 l 0,0 c 0,-1.37 -0.52,-2.19 -1.39,-2.19 l -0.2,-0.33 c 1.59,0 2.65,1.2 2.65,2.84 z" id="path5492" style="fill:#000000;stroke-width:0" /><path d="m 238.2,481.82 0,0.46 -0.91,0 c -0.24,0 -0.41,0.03 -0.65,0.11 l -0.26,0.1 c -0.32,0.12 -0.64,0.18 -0.94,0.18 -1.1,0 -1.98,-0.85 -1.98,-1.93 0,-0.74 0.31,-1.19 1.1,-1.58 -0.16,-0.17 -0.33,-0.32 -0.51,-0.47 -0.39,-0.34 -0.54,-0.58 -0.54,-0.82 0,-0.26 0.13,-0.39 0.63,-0.62 l 0.24,-0.04 c 0.41,-0.08 1.34,-0.15 1.92,-0.15 1.07,0 1.46,-0.14 1.46,-0.58 l 0,0 c 0,-0.68 -0.9,-1.15 -2.24,-1.15 -1.04,0 -1.71,0.35 -1.71,0.87 0,0.27 0.1,0.44 0.57,1.01 l -0.24,0.04 c -0.85,-0.62 -1.16,-1.01 -1.16,-1.44 0,-0.63 0.91,-1.15 2.04,-1.15 0.85,0 1.75,0.29 2.36,0.76 0.49,0.38 0.71,0.76 0.71,1.24 0,0.73 -0.55,1.22 -1.43,1.26 l -1.52,0.07 c -0.64,0.04 -0.92,0.13 -0.92,0.32 0,0.24 0.39,0.65 0.71,0.74 l 0.22,-0.02 c 0.22,-0.02 0.38,-0.04 0.45,-0.04 l 0.06,0.3 c -0.73,0 -1.22,0.77 -1.22,1.9 l 0,0.04 c 0,0.69 0.33,1.1 0.88,1.1 0.36,0 0.67,-0.2 0.86,-0.55 0.22,-0.41 0.35,-0.94 0.35,-1.43 0,-0.65 -0.34,-1.06 -0.87,-1.06 l -0.06,-0.3 c 0.41,0 0.85,0.18 1.23,0.46 0.42,0.32 0.61,0.76 0.61,1.37 0,0.35 -0.06,0.62 -0.22,1 z" id="path5494" style="fill:#000000;stroke-width:0" /><path d="m 242.07,474.15 0,0.14 c -0.66,0 -0.84,0.16 -0.84,0.54 l 0,5.29 -0.08,0.03 -1.59,-0.81 0,-0.13 0.24,0.09 c 0.16,0.07 0.31,0.11 0.4,0.11 0.18,0 0.26,-0.13 0.26,-0.43 l 0,-3.98 c 0,-0.49 -0.18,-0.68 -0.84,-0.71 l 0,-0.14 z" id="path5496" style="fill:#000000;stroke-width:0" /><path d="m 247.24,477.08 0,0.17 -0.01,0.16 -0.01,0.16 -0.01,0.16 -0.02,0.16 -0.03,0.15 -0.03,0.14 -0.03,0.14 -0.04,0.14 -0.04,0.14 -0.05,0.12 -0.04,0.13 -0.06,0.12 -0.05,0.11 -0.06,0.11 -0.07,0.1 -0.06,0.1 -0.07,0.1 -0.08,0.08 -0.07,0.08 -0.08,0.08 -0.09,0.07 -0.08,0.06 -0.09,0.06 -0.09,0.05 -0.09,0.05 -0.1,0.04 -0.1,0.03 -0.1,0.02 -0.1,0.02 -0.11,0.01 -0.11,0.01 c -1.43,0 -2.04,-1.45 -2.04,-3.02 0,-1.45 0.49,-3.1 2.01,-3.1 l 0,0.23 c -0.77,0 -1.16,1.01 -1.16,2.81 0,1.8 0.4,2.85 1.14,2.85 0.78,0 1.17,-1.04 1.17,-2.88 l 0,0 c 0,-1.76 -0.4,-2.78 -1.15,-2.78 l 0,-0.23 c 1.44,0 2,1.52 2,3.05 z" id="path5498" style="fill:#000000;stroke-width:0" /><path d="m 258.2,484.94 -6.31,0 -0.05,-0.18 0.23,0 c 0.69,0 0.88,-0.13 0.88,-0.42 0,-0.08 -0.01,-0.21 -0.06,-0.42 l -1.41,-5.76 c -0.1,-0.41 -0.37,-0.74 -1.23,-0.74 l -0.23,0 -0.04,-0.19 6.74,0 0.78,2.34 -0.19,0 c -0.51,-1.33 -1.17,-1.89 -3.04,-1.89 l -0.79,0 c -0.55,0 -0.74,0.13 -0.74,0.32 0,0.04 0.01,0.07 0.02,0.12 l 0.78,3.05 1.07,0 c 0.36,0 0.85,-0.05 0.85,-0.61 0,-0.2 -0.06,-0.55 -0.08,-0.7 l 0.21,0 0.68,2.85 -0.19,0 c -0.26,-0.97 -0.78,-1.12 -1.49,-1.12 l -0.94,0 0.71,2.93 1.89,0 c 0.6,0 1.25,-0.15 1.28,-1.03 0,-0.13 -0.01,-0.26 -0.02,-0.41 l 0.19,0 z" id="path5500" style="fill:#000000;stroke-width:0" /></g>  <g ns0:preamble="/Users/prmb/CMEP/underground-inkscape-preamble.tex" ns0:text="$M_L$" word-spacing="normal" letter-spacing="normal" font-size-adjust="none" font-stretch="normal" font-weight="normal" font-variant="normal" font-style="normal" stroke-miterlimit="10.433" xml:space="preserve" transform="matrix(1.5704537,0,0,-1.5704537,31.77754,1604.3739)" id="g6482" style="font-style:normal;font-variant:normal;font-weight:normal;font-stretch:normal;letter-spacing:normal;word-spacing:normal;text-anchor:start;fill:none;fill-opacity:1;fill-rule:evenodd;stroke:#000000;stroke-linecap:butt;stroke-linejoin:miter;stroke-miterlimit:10.43299961;stroke-dasharray:none;stroke-dashoffset:0;stroke-opacity:1"><path id="path6484" d="m 235.89,484.94 -2.54,0 -3.93,-5.82 -0.05,0 -1.05,5.82 -2.52,0 -0.04,-0.18 0.22,0 c 0.73,0 0.91,-0.18 0.91,-0.42 0,-0.1 -0.01,-0.25 -0.06,-0.45 l -1.4,-5.6 c -0.12,-0.48 -0.34,-0.87 -1.28,-0.87 l -0.22,0 -0.05,-0.19 3.15,0 0.05,0.19 -0.24,0 c -0.69,0 -0.89,0.15 -0.89,0.39 0,0.14 0.02,0.32 0.06,0.48 l 1.28,5.05 0.04,0 1.11,-6.11 0.29,0 4.08,6.11 0.07,0 -1.33,-5.18 c -0.09,-0.38 -0.3,-0.74 -1.23,-0.74 l -0.21,0 -0.04,-0.19 3.89,0 0.05,0.19 -0.22,0 c -0.69,0 -0.91,0.18 -0.91,0.41 0,0.1 0,0.24 0.02,0.33 l 1.5,5.88 c 0.11,0.42 0.3,0.72 1.24,0.72 l 0.2,0 z" style="fill:#000000;stroke-width:0" /><path id="path6486" d="m 241.27,476.43 -0.14,0 c -0.05,-0.13 -0.09,-0.23 -0.15,-0.33 -0.41,-0.82 -0.86,-1.02 -1.77,-1.02 l -1.08,0 c -0.11,0 -0.36,0.02 -0.36,0.22 0,0.01 0.01,0.14 0.05,0.27 l 1.08,4.26 c 0.08,0.33 0.26,0.56 0.93,0.56 l 0.16,0 0.04,0.14 -2.91,0 -0.03,-0.14 0.16,0 c 0.55,0 0.67,-0.16 0.67,-0.33 0,-0.08 -0.02,-0.25 -0.06,-0.39 l -1.05,-4.23 c -0.07,-0.3 -0.28,-0.55 -0.95,-0.55 l -0.15,0 -0.03,-0.15 5.05,0 z" style="fill:#000000;stroke-width:0" /></g>  <g style="font-style:normal;font-variant:normal;font-weight:normal;font-stretch:normal;letter-spacing:normal;word-spacing:normal;text-anchor:start;fill:none;fill-opacity:1;fill-rule:evenodd;stroke:#000000;stroke-linecap:butt;stroke-linejoin:miter;stroke-miterlimit:10.43299961;stroke-dasharray:none;stroke-dashoffset:0;stroke-opacity:1" id="g7474" transform="matrix(1.5704537,0,0,-1.5704537,-22.994544,1426.4984)" xml:space="preserve" stroke-miterlimit="10.433" font-style="normal" font-variant="normal" font-weight="normal" font-stretch="normal" font-size-adjust="none" letter-spacing="normal" word-spacing="normal" ns0:text="Chile, 1960" ns0:preamble="/Users/prmb/CMEP/underground-inkscape-preamble.tex"><path style="fill:#000000;stroke-width:0" d="m 227.46,483.72 -0.07,0 -0.07,-0.01 -0.07,0 -0.07,-0.01 -0.07,0 -0.07,-0.01 -0.07,-0.01 -0.07,-0.01 -0.06,-0.02 -0.06,-0.01 -0.07,-0.02 -0.06,-0.01 -0.06,-0.02 -0.06,-0.02 -0.06,-0.03 -0.06,-0.02 -0.06,-0.02 -0.05,-0.03 -0.06,-0.03 -0.05,-0.03 -0.06,-0.03 -0.05,-0.03 -0.05,-0.04 -0.05,-0.03 -0.05,-0.04 -0.05,-0.04 -0.05,-0.04 -0.05,-0.04 -0.04,-0.04 -0.05,-0.05 -0.04,-0.05 -0.04,-0.04 c -0.46,-0.52 -0.68,-1.24 -0.68,-2.14 0,-0.93 0.22,-1.65 0.65,-2.16 0.44,-0.51 1.06,-0.76 1.87,-0.76 0.5,0 1.07,0.09 1.7,0.27 l 0,-0.73 c -0.49,-0.18 -1.1,-0.28 -1.82,-0.28 -1.05,0 -1.86,0.32 -2.43,0.96 -0.57,0.63 -0.86,1.54 -0.86,2.71 0,0.73 0.14,1.37 0.41,1.92 0.28,0.56 0.67,0.98 1.19,1.28 0.52,0.3 1.13,0.45 1.83,0.45 0.75,-0.01 1.4,-0.14 1.96,-0.41 l -0.35,-0.71 c -0.54,0.25 -1.08,0.38 -1.62,0.38 z" id="path7476" /><path style="fill:#000000;stroke-width:0" d="m 234.22,477.23 0,3.46 c 0,0.43 -0.1,0.76 -0.29,0.98 -0.2,0.21 -0.51,0.32 -0.93,0.32 -0.57,0 -0.97,-0.15 -1.23,-0.46 -0.26,-0.31 -0.39,-0.8 -0.39,-1.5 l 0,-2.8 -0.81,0 0,7.58 0.81,0 0,-2.29 c 0,-0.27 -0.01,-0.5 -0.04,-0.68 l 0.05,0 c 0.16,0.25 0.39,0.46 0.68,0.6 0.29,0.15 0.63,0.23 1,0.23 0.66,0 1.15,-0.16 1.47,-0.47 0.33,-0.31 0.49,-0.8 0.49,-1.48 l 0,-3.49 z" id="path7478" /><polygon style="fill:#000000;stroke-width:0" points="237.49,482.58 237.49,477.23 236.68,477.23 236.68,482.58 " id="polygon7480" /><path style="fill:#000000;stroke-width:0" d="m 236.62,484.01 0,0.02 0,0.02 0,0.01 0,0.02 0,0.01 0,0.02 0,0.02 0,0.01 0.01,0.02 0,0.01 0,0.01 0,0.02 0.01,0.01 0,0.02 0.01,0.01 0,0.01 0,0.01 0.01,0.02 0,0.01 0.01,0.01 0,0.01 0.01,0.01 0.01,0.01 0,0.01 0.01,0.01 0.01,0.01 0,0.01 0.01,0.01 0.01,0.01 0.01,0.01 0,0.01 0.01,0.01 c 0.09,0.08 0.21,0.13 0.34,0.13 0.13,0 0.25,-0.05 0.34,-0.13 0.09,-0.09 0.14,-0.23 0.14,-0.41 0,-0.18 -0.05,-0.32 -0.14,-0.4 -0.1,-0.09 -0.21,-0.14 -0.34,-0.14 -0.13,0 -0.25,0.05 -0.34,0.14 -0.09,0.08 -0.13,0.22 -0.13,0.4 z" id="path7482" /><polygon style="fill:#000000;stroke-width:0" points="240.01,484.81 240.01,477.23 239.2,477.23 239.2,484.81 " id="polygon7484" /><path style="fill:#000000;stroke-width:0" d="m 243.98,477.14 -0.08,0.01 -0.07,0 -0.07,0 -0.07,0.01 -0.07,0 -0.07,0.01 -0.07,0.01 -0.06,0.01 -0.07,0.01 -0.07,0.02 -0.06,0.01 -0.06,0.02 -0.06,0.01 -0.06,0.02 -0.06,0.02 -0.06,0.02 -0.06,0.03 -0.06,0.02 -0.05,0.03 -0.06,0.03 -0.05,0.03 -0.05,0.03 -0.06,0.03 -0.05,0.03 -0.05,0.03 -0.04,0.04 -0.05,0.04 -0.05,0.04 -0.05,0.04 -0.04,0.04 -0.04,0.04 -0.05,0.04 c -0.45,0.48 -0.68,1.15 -0.68,2 0,0.86 0.21,1.54 0.63,2.05 0.42,0.5 0.99,0.76 1.71,0.76 0.66,0 1.19,-0.22 1.58,-0.66 0.39,-0.44 0.58,-1.01 0.58,-1.73 l 0,-0.51 -3.66,0 0.02,0.66 2.78,0 c 0,0.5 -0.12,0.89 -0.34,1.16 -0.23,0.27 -0.55,0.4 -0.97,0.4 l 0,0 c -0.43,0 -0.77,-0.14 -1.02,-0.41 -0.26,-0.28 -0.41,-0.66 -0.45,-1.15 l -0.02,-0.66 c 0.01,-0.63 0.17,-1.1 0.47,-1.43 0.3,-0.33 0.72,-0.49 1.27,-0.49 0.57,0 1.13,0.12 1.69,0.36 l 0,-0.72 c -0.28,-0.12 -0.55,-0.21 -0.8,-0.26 -0.26,-0.06 -0.57,-0.09 -0.92,-0.09 z" id="path7486" /><path style="fill:#000000;stroke-width:0" d="m 248.17,478.4 0.07,-0.11 c -0.09,-0.33 -0.21,-0.71 -0.37,-1.14 -0.16,-0.43 -0.32,-0.83 -0.49,-1.2 l -0.61,0 c 0.08,0.34 0.18,0.76 0.29,1.25 0.1,0.5 0.18,0.9 0.22,1.2 z" id="path7488" /><path style="fill:#000000;stroke-width:0" d="m 254.96,477.23 -0.79,0 0,5.07 c 0,0.42 0.02,0.82 0.04,1.19 -0.06,-0.07 -0.14,-0.13 -0.22,-0.21 -0.09,-0.07 -0.48,-0.39 -1.16,-0.94 l -0.43,0.55 1.88,1.45 0.68,0 z" id="path7490" /><path style="fill:#000000;stroke-width:0" d="m 262.34,481.32 0,-0.26 -0.01,-0.25 -0.02,-0.24 -0.02,-0.23 -0.03,-0.22 -0.03,-0.22 -0.04,-0.21 -0.05,-0.2 -0.05,-0.19 -0.06,-0.18 -0.07,-0.18 -0.07,-0.17 -0.08,-0.15 -0.09,-0.15 -0.09,-0.15 -0.1,-0.13 -0.1,-0.13 -0.11,-0.12 -0.12,-0.11 -0.12,-0.1 -0.13,-0.09 -0.13,-0.09 -0.15,-0.08 -0.15,-0.06 -0.15,-0.07 -0.16,-0.05 -0.17,-0.04 -0.17,-0.04 -0.18,-0.03 -0.19,-0.02 -0.19,-0.01 -0.2,-0.01 c -0.38,0 -0.67,0.04 -0.89,0.1 l 0,0.7 c 0.26,-0.09 0.55,-0.13 0.88,-0.13 0.78,0 1.37,0.24 1.77,0.72 0.39,0.49 0.61,1.22 0.65,2.22 l -0.06,0 -0.15,0.49 c 0.14,0.21 0.22,0.42 0.22,0.65 -0.01,0.34 -0.07,0.66 -0.2,0.94 -0.14,0.29 -0.32,0.52 -0.56,0.69 -0.24,0.16 -0.51,0.25 -0.82,0.25 l 0,0 c -0.47,-0.01 -0.82,-0.15 -1.08,-0.45 -0.25,-0.3 -0.38,-0.72 -0.38,-1.25 0,-0.47 0.12,-0.83 0.35,-1.1 0.24,-0.27 0.59,-0.4 1.07,-0.4 0.29,0 0.57,0.06 0.82,0.18 0.24,0.12 0.44,0.28 0.58,0.49 l 0.15,-0.49 c -0.18,-0.27 -0.42,-0.48 -0.71,-0.62 -0.3,-0.14 -0.63,-0.21 -1,-0.21 -0.63,0 -1.13,0.19 -1.5,0.56 -0.37,0.38 -0.55,0.91 -0.55,1.58 -0.01,0.74 0.2,1.33 0.62,1.75 0.41,0.43 0.95,0.65 1.63,0.65 0.48,-0.01 0.91,-0.13 1.27,-0.38 0.36,-0.24 0.64,-0.61 0.83,-1.08 0.19,-0.48 0.29,-1.04 0.29,-1.68 z" id="path7492" /><path style="fill:#000000;stroke-width:0" d="m 263.45,480.28 0,0.13 0,0.13 0,0.13 0.01,0.12 0,0.12 0.01,0.12 0.01,0.12 0.02,0.11 0.01,0.12 0.01,0.11 0.02,0.11 0.02,0.11 0.02,0.1 0.02,0.1 0.02,0.11 0.03,0.09 0.02,0.1 0.03,0.1 0.03,0.09 0.03,0.09 0.04,0.09 0.03,0.08 0.04,0.09 0.03,0.08 0.04,0.08 0.04,0.08 0.05,0.08 0.04,0.07 0.04,0.07 0.05,0.07 0.05,0.07 0.05,0.07 c 0.54,0.69 1.35,1.04 2.41,1.04 0.37,-0.01 0.66,-0.04 0.87,-0.1 l 0,-0.69 c -0.25,0.08 -0.54,0.12 -0.86,0.12 -0.76,0 -1.34,-0.24 -1.75,-0.71 -0.4,-0.48 -0.62,-1.22 -0.66,-2.24 l 0.06,0 0.16,-0.47 c -0.14,-0.22 -0.22,-0.43 -0.22,-0.66 0,-0.34 0.07,-0.65 0.2,-0.94 0.13,-0.29 0.31,-0.52 0.55,-0.69 0.24,-0.16 0.51,-0.25 0.81,-0.25 l 0,0 c 0.46,0 0.82,0.15 1.08,0.44 0.25,0.29 0.38,0.71 0.38,1.26 0,0.47 -0.12,0.84 -0.36,1.11 -0.23,0.27 -0.59,0.4 -1.06,0.4 -0.29,0 -0.56,-0.06 -0.8,-0.18 -0.24,-0.12 -0.44,-0.28 -0.58,-0.49 l -0.16,0.47 c 0.36,0.56 0.92,0.84 1.69,0.84 0.64,0 1.15,-0.19 1.52,-0.58 0.36,-0.39 0.55,-0.91 0.55,-1.57 0,-0.74 -0.2,-1.33 -0.61,-1.75 -0.4,-0.42 -0.95,-0.64 -1.63,-0.64 -0.74,0 -1.33,0.28 -1.76,0.84 -0.43,0.55 -0.64,1.32 -0.64,2.3 z" id="path7494" /><path style="fill:#000000;stroke-width:0" d="m 273.77,480.8 0,-0.11 0,-0.11 0,-0.11 0,-0.11 -0.01,-0.11 -0.01,-0.11 0,-0.1 -0.01,-0.1 -0.01,-0.1 -0.01,-0.1 -0.01,-0.09 -0.02,-0.1 -0.01,-0.09 -0.02,-0.09 -0.01,-0.09 -0.02,-0.09 -0.02,-0.08 -0.02,-0.08 -0.02,-0.08 -0.02,-0.08 -0.03,-0.08 -0.02,-0.08 -0.03,-0.07 -0.02,-0.07 -0.03,-0.07 -0.03,-0.07 -0.03,-0.07 -0.03,-0.06 -0.03,-0.07 -0.04,-0.06 -0.03,-0.06 -0.04,-0.06 c -0.38,-0.6 -0.98,-0.91 -1.77,-0.91 l 0,0.7 c 0.53,0 0.92,0.24 1.16,0.72 0.25,0.47 0.37,1.22 0.37,2.24 0,1.02 -0.12,1.77 -0.37,2.24 -0.24,0.48 -0.63,0.72 -1.16,0.72 -0.54,-0.01 -0.93,-0.24 -1.17,-0.71 -0.24,-0.47 -0.36,-1.21 -0.36,-2.25 l 0,0 c 0,-1.03 0.12,-1.78 0.36,-2.25 0.24,-0.47 0.63,-0.71 1.17,-0.71 l 0,-0.7 c -0.77,0 -1.35,0.31 -1.75,0.94 -0.4,0.62 -0.6,1.53 -0.6,2.72 0,1.24 0.19,2.16 0.58,2.76 0.38,0.6 0.97,0.9 1.77,0.9 0.76,-0.01 1.35,-0.32 1.75,-0.94 0.4,-0.63 0.6,-1.53 0.6,-2.72 z" id="path7496" /></g>  <g ns0:preamble="/Users/prmb/CMEP/underground-inkscape-preamble.tex" ns0:text="San Francisco, 1906" word-spacing="normal" letter-spacing="normal" font-size-adjust="none" font-stretch="normal" font-weight="normal" font-variant="normal" font-style="normal" stroke-miterlimit="10.433" xml:space="preserve" transform="matrix(1.5704537,0,0,-1.5704537,-66.581138,1468.5283)" id="g8508" style="font-style:normal;font-variant:normal;font-weight:normal;font-stretch:normal;letter-spacing:normal;word-spacing:normal;text-anchor:start;fill:none;fill-opacity:1;fill-rule:evenodd;stroke:#000000;stroke-linecap:butt;stroke-linejoin:miter;stroke-miterlimit:10.43299961;stroke-dasharray:none;stroke-dashoffset:0;stroke-opacity:1"><path id="path8510" d="m 228.42,479.14 0,-0.06 -0.01,-0.06 0,-0.06 0,-0.05 -0.01,-0.06 -0.01,-0.05 -0.01,-0.06 -0.01,-0.05 -0.01,-0.05 -0.01,-0.05 -0.01,-0.05 -0.02,-0.05 -0.02,-0.05 -0.01,-0.05 -0.02,-0.04 -0.02,-0.05 -0.03,-0.05 -0.02,-0.04 -0.02,-0.04 -0.03,-0.05 -0.03,-0.04 -0.02,-0.04 -0.03,-0.04 -0.04,-0.04 -0.03,-0.04 -0.03,-0.04 -0.04,-0.03 -0.03,-0.04 -0.04,-0.04 -0.04,-0.03 -0.04,-0.04 -0.04,-0.03 c -0.46,-0.35 -1.07,-0.53 -1.85,-0.53 -0.84,0 -1.49,0.11 -1.94,0.33 l 0,0.8 c 0.29,-0.13 0.61,-0.22 0.95,-0.29 0.34,-0.07 0.68,-0.11 1.02,-0.11 0.55,0 0.96,0.11 1.24,0.31 0.28,0.21 0.42,0.5 0.42,0.88 0,0.24 -0.05,0.45 -0.15,0.6 -0.1,0.16 -0.26,0.3 -0.49,0.44 -0.24,0.13 -0.59,0.28 -1.06,0.45 -0.66,0.24 -1.13,0.52 -1.42,0.84 -0.28,0.33 -0.42,0.75 -0.42,1.27 0,0.55 0.2,0.99 0.62,1.31 0.41,0.32 0.95,0.49 1.63,0.49 0.7,-0.01 1.35,-0.13 1.95,-0.39 l -0.26,-0.72 c -0.59,0.24 -1.16,0.37 -1.71,0.37 -0.44,0 -0.78,-0.1 -1.03,-0.29 -0.24,-0.19 -0.36,-0.44 -0.36,-0.78 0,-0.25 0.04,-0.45 0.13,-0.6 0.09,-0.16 0.25,-0.31 0.46,-0.44 0.21,-0.13 0.55,-0.27 0.99,-0.43 0.74,-0.27 1.26,-0.55 1.54,-0.86 0.27,-0.3 0.42,-0.7 0.42,-1.18 z" style="fill:#000000;stroke-width:0" /><path id="path8512" d="m 233.04,477.23 -0.16,0.76 -0.04,0 -0.44,0.23 c 0.29,0.28 0.43,0.66 0.43,1.16 l 0,0.47 -0.81,-0.03 c -0.64,-0.02 -1.11,-0.12 -1.39,-0.3 -0.29,-0.18 -0.43,-0.45 -0.43,-0.82 0,-0.29 0.09,-0.51 0.27,-0.66 0.18,-0.15 0.43,-0.23 0.74,-0.23 l 0,0 c 0.51,0 0.9,0.14 1.19,0.41 l 0.44,-0.23 c -0.27,-0.33 -0.53,-0.55 -0.8,-0.67 -0.26,-0.12 -0.59,-0.18 -0.99,-0.18 -0.53,0 -0.94,0.14 -1.24,0.41 -0.3,0.27 -0.45,0.66 -0.45,1.16 0,1.07 0.86,1.64 2.59,1.69 l 0.9,0.03 0,0.33 c 0,0.42 -0.09,0.74 -0.27,0.94 -0.18,0.2 -0.47,0.3 -0.86,0.3 -0.45,0 -0.95,-0.14 -1.51,-0.41 l -0.25,0.62 c 0.26,0.14 0.55,0.25 0.86,0.33 0.31,0.08 0.63,0.13 0.94,0.13 0.64,0 1.11,-0.15 1.42,-0.43 0.31,-0.28 0.46,-0.73 0.46,-1.36 l 0,-3.65 z" style="fill:#000000;stroke-width:0" /><path id="path8514" d="m 238.95,477.23 0,3.45 c 0,0.44 -0.1,0.76 -0.3,0.98 -0.2,0.21 -0.51,0.32 -0.93,0.32 -0.56,0 -0.97,-0.15 -1.23,-0.45 -0.26,-0.3 -0.39,-0.8 -0.39,-1.5 l 0,-2.8 -0.8,0 0,5.35 0.65,0 0.14,-0.74 0.03,0 c 0.17,0.26 0.4,0.46 0.7,0.61 0.3,0.14 0.63,0.22 1,0.22 0.64,0 1.12,-0.16 1.45,-0.47 0.32,-0.31 0.49,-0.8 0.49,-1.49 l 0,-3.48 z" style="fill:#000000;stroke-width:0" /><polygon id="polygon8516" points="248.07,484.34 248.07,483.6 244.94,483.6 244.94,480.99 247.88,480.99 247.88,480.26 244.94,480.26 244.94,477.23 244.11,477.23 244.11,484.34 " style="fill:#000000;stroke-width:0" /><path id="path8518" d="m 251.56,482.67 0.04,0 0.05,-0.01 0.04,0 0.04,0 0.04,0 0.04,0 0.05,-0.01 0.04,0 0.03,0 0.04,-0.01 0.04,0 0.04,-0.01 0.04,0 0.03,-0.01 0.04,-0.01 0.04,0 -0.12,-0.75 c -0.22,0.05 -0.41,0.07 -0.58,0.07 -0.43,0 -0.8,-0.17 -1.1,-0.52 -0.31,-0.36 -0.46,-0.79 -0.46,-1.31 l 0,-2.87 -0.81,0 0,5.35 0.67,0 0.09,-1 0.04,0 c 0.2,0.35 0.44,0.62 0.71,0.8 0.28,0.19 0.59,0.29 0.92,0.29 z" style="fill:#000000;stroke-width:0" /><path id="path8520" d="m 256.3,477.23 -0.16,0.76 -0.04,0 -0.44,0.23 c 0.28,0.28 0.43,0.66 0.43,1.16 l 0,0.47 -0.81,-0.03 c -0.65,-0.02 -1.11,-0.12 -1.39,-0.3 -0.29,-0.18 -0.43,-0.45 -0.43,-0.82 0,-0.29 0.09,-0.51 0.27,-0.66 0.17,-0.15 0.42,-0.23 0.74,-0.23 l 0,0 c 0.5,0 0.9,0.14 1.19,0.41 l 0.44,-0.23 c -0.27,-0.33 -0.53,-0.55 -0.8,-0.67 -0.26,-0.12 -0.59,-0.18 -0.99,-0.18 -0.53,0 -0.95,0.14 -1.25,0.41 -0.3,0.27 -0.45,0.66 -0.45,1.16 0,1.07 0.87,1.64 2.59,1.69 l 0.91,0.03 0,0.33 c 0,0.42 -0.09,0.74 -0.27,0.94 -0.19,0.2 -0.47,0.3 -0.87,0.3 -0.44,0 -0.95,-0.14 -1.51,-0.41 l -0.25,0.62 c 0.26,0.14 0.55,0.25 0.87,0.33 0.31,0.08 0.63,0.13 0.94,0.13 0.64,0 1.11,-0.15 1.42,-0.43 0.3,-0.28 0.46,-0.73 0.46,-1.36 l 0,-3.65 z" style="fill:#000000;stroke-width:0" /><path id="path8522" d="m 262.2,477.23 0,3.45 c 0,0.44 -0.1,0.76 -0.29,0.98 -0.2,0.21 -0.51,0.32 -0.93,0.32 -0.56,0 -0.97,-0.15 -1.23,-0.45 -0.26,-0.3 -0.39,-0.8 -0.39,-1.5 l 0,-2.8 -0.81,0 0,5.35 0.66,0 0.13,-0.74 0.04,0 c 0.16,0.26 0.4,0.46 0.7,0.61 0.29,0.14 0.63,0.22 0.99,0.22 0.64,0 1.13,-0.16 1.45,-0.47 0.33,-0.31 0.49,-0.8 0.49,-1.49 l 0,-3.48 z" style="fill:#000000;stroke-width:0" /><path id="path8524" d="m 266.8,477.14 -0.07,0.01 -0.07,0 -0.07,0 -0.07,0.01 -0.07,0 -0.07,0.01 -0.06,0.01 -0.07,0.01 -0.06,0.01 -0.06,0.01 -0.07,0.02 -0.06,0.02 -0.06,0.01 -0.05,0.02 -0.06,0.02 -0.06,0.02 -0.05,0.03 -0.06,0.02 -0.05,0.03 -0.05,0.02 -0.06,0.03 -0.05,0.03 -0.05,0.03 -0.04,0.04 -0.05,0.03 -0.05,0.04 -0.04,0.03 -0.05,0.04 -0.04,0.04 -0.04,0.04 -0.04,0.04 -0.04,0.05 c -0.43,0.47 -0.64,1.14 -0.64,2.01 0,0.89 0.22,1.58 0.65,2.07 0.42,0.48 1.04,0.73 1.83,0.73 0.26,0 0.51,-0.03 0.77,-0.09 0.26,-0.05 0.46,-0.12 0.61,-0.19 l -0.25,-0.69 c -0.18,0.07 -0.38,0.13 -0.59,0.18 -0.21,0.05 -0.4,0.07 -0.56,0.07 -1.08,0 -1.62,-0.69 -1.62,-2.07 0,-0.65 0.13,-1.15 0.4,-1.5 0.26,-0.35 0.65,-0.53 1.17,-0.53 0.44,0 0.9,0.1 1.37,0.29 l 0,-0.72 c -0.36,-0.18 -0.81,-0.28 -1.35,-0.28 z" style="fill:#000000;stroke-width:0" /><polygon id="polygon8526" points="270.21,482.58 270.21,477.23 269.41,477.23 269.41,482.58 " style="fill:#000000;stroke-width:0" /><path id="path8528" d="m 269.34,484.01 0,0.02 0,0.02 0,0.01 0,0.02 0,0.01 0,0.02 0,0.02 0.01,0.01 0,0.02 0,0.01 0,0.01 0.01,0.02 0,0.01 0,0.02 0.01,0.01 0,0.01 0.01,0.01 0,0.02 0.01,0.01 0,0.01 0.01,0.01 0,0.01 0.01,0.01 0.01,0.01 0,0.01 0.01,0.01 0.01,0.01 0,0.01 0.01,0.01 0.01,0.01 0.01,0.01 0.01,0.01 c 0.08,0.08 0.2,0.13 0.34,0.13 0.13,0 0.24,-0.05 0.33,-0.13 0.09,-0.09 0.14,-0.23 0.14,-0.41 0,-0.18 -0.05,-0.32 -0.14,-0.4 -0.1,-0.09 -0.2,-0.14 -0.33,-0.14 -0.14,0 -0.25,0.05 -0.34,0.14 -0.1,0.08 -0.14,0.22 -0.14,0.4 z" style="fill:#000000;stroke-width:0" /><path id="path8530" d="m 275.36,478.7 0,-0.05 0,-0.05 0,-0.04 -0.01,-0.05 0,-0.04 -0.01,-0.04 -0.01,-0.04 0,-0.05 -0.01,-0.04 -0.01,-0.04 -0.01,-0.04 -0.02,-0.03 -0.01,-0.04 -0.01,-0.04 -0.02,-0.04 -0.02,-0.03 -0.01,-0.04 -0.02,-0.03 -0.02,-0.04 -0.02,-0.03 -0.03,-0.03 -0.02,-0.04 -0.02,-0.03 -0.03,-0.03 -0.03,-0.03 -0.02,-0.03 -0.03,-0.03 -0.03,-0.02 -0.03,-0.03 -0.03,-0.03 -0.04,-0.03 -0.03,-0.02 c -0.37,-0.27 -0.89,-0.41 -1.56,-0.41 -0.7,0 -1.25,0.12 -1.65,0.34 l 0,0.74 c 0.26,-0.13 0.53,-0.23 0.83,-0.3 0.29,-0.07 0.57,-0.11 0.84,-0.11 0.42,0 0.75,0.07 0.97,0.2 0.23,0.14 0.34,0.34 0.34,0.62 0,0.2 -0.09,0.38 -0.27,0.53 -0.18,0.14 -0.53,0.32 -1.05,0.52 -0.49,0.19 -0.84,0.35 -1.05,0.49 -0.21,0.13 -0.37,0.29 -0.47,0.47 -0.1,0.17 -0.15,0.38 -0.15,0.62 0,0.43 0.18,0.78 0.53,1.03 0.35,0.25 0.83,0.38 1.45,0.38 0.57,0 1.13,-0.12 1.68,-0.35 l -0.29,-0.66 c -0.53,0.22 -1.01,0.33 -1.45,0.33 -0.38,0 -0.67,-0.06 -0.86,-0.18 -0.2,-0.12 -0.29,-0.29 -0.29,-0.49 0,-0.15 0.03,-0.27 0.11,-0.37 0.07,-0.1 0.19,-0.2 0.35,-0.29 0.16,-0.09 0.47,-0.22 0.93,-0.39 0.63,-0.23 1.06,-0.46 1.28,-0.69 0.22,-0.24 0.33,-0.53 0.33,-0.88 z" style="fill:#000000;stroke-width:0" /><path id="path8532" d="m 278.82,477.14 -0.08,0.01 -0.07,0 -0.07,0 -0.07,0.01 -0.06,0 -0.07,0.01 -0.07,0.01 -0.06,0.01 -0.07,0.01 -0.06,0.01 -0.06,0.02 -0.06,0.02 -0.06,0.01 -0.06,0.02 -0.06,0.02 -0.05,0.02 -0.06,0.03 -0.05,0.02 -0.06,0.03 -0.05,0.02 -0.05,0.03 -0.05,0.03 -0.05,0.03 -0.05,0.04 -0.05,0.03 -0.04,0.04 -0.05,0.03 -0.04,0.04 -0.04,0.04 -0.05,0.04 -0.04,0.04 -0.04,0.05 c -0.42,0.47 -0.63,1.14 -0.63,2.01 0,0.89 0.21,1.58 0.64,2.07 0.43,0.48 1.04,0.73 1.84,0.73 0.25,0 0.51,-0.03 0.77,-0.09 0.25,-0.05 0.46,-0.12 0.6,-0.19 l -0.25,-0.69 c -0.18,0.07 -0.37,0.13 -0.58,0.18 -0.21,0.05 -0.4,0.07 -0.56,0.07 -1.09,0 -1.63,-0.69 -1.63,-2.07 0,-0.65 0.14,-1.15 0.4,-1.5 0.27,-0.35 0.66,-0.53 1.18,-0.53 0.44,0 0.9,0.1 1.36,0.29 l 0,-0.72 c -0.35,-0.18 -0.8,-0.28 -1.34,-0.28 z" style="fill:#000000;stroke-width:0" /><path id="path8534" d="m 286.04,479.91 0,-0.08 -0.01,-0.08 0,-0.08 0,-0.08 -0.01,-0.07 -0.01,-0.08 0,-0.07 -0.01,-0.08 -0.02,-0.07 -0.01,-0.07 -0.01,-0.07 -0.02,-0.07 -0.01,-0.06 -0.02,-0.07 -0.02,-0.07 -0.02,-0.06 -0.02,-0.06 -0.02,-0.06 -0.03,-0.07 -0.02,-0.06 -0.03,-0.05 -0.02,-0.06 -0.03,-0.06 -0.03,-0.05 -0.03,-0.06 -0.04,-0.05 -0.03,-0.05 -0.04,-0.05 -0.03,-0.05 -0.04,-0.05 -0.04,-0.05 -0.04,-0.04 c -0.44,-0.49 -1.05,-0.74 -1.82,-0.74 l 0.02,0.68 c 0.53,0 0.93,0.18 1.21,0.53 0.27,0.36 0.41,0.88 0.41,1.56 0,0.67 -0.14,1.19 -0.41,1.54 -0.28,0.35 -0.68,0.53 -1.22,0.53 -0.53,0 -0.93,-0.17 -1.2,-0.52 -0.27,-0.35 -0.4,-0.86 -0.4,-1.55 l 0,0 c 0,-0.68 0.14,-1.2 0.41,-1.55 0.27,-0.36 0.67,-0.54 1.2,-0.54 l -0.02,-0.68 c -0.48,0 -0.9,0.12 -1.27,0.34 -0.37,0.22 -0.66,0.54 -0.86,0.96 -0.2,0.42 -0.3,0.91 -0.3,1.47 0,0.87 0.22,1.54 0.65,2.03 0.44,0.48 1.04,0.73 1.82,0.73 0.74,0 1.34,-0.25 1.78,-0.75 0.44,-0.5 0.66,-1.16 0.66,-2.01 z" style="fill:#000000;stroke-width:0" /><path id="path8536" d="m 288.29,478.4 0.08,-0.11 c -0.09,-0.33 -0.21,-0.71 -0.37,-1.14 -0.16,-0.43 -0.32,-0.83 -0.49,-1.2 l -0.62,0 c 0.09,0.34 0.19,0.76 0.29,1.25 0.11,0.5 0.18,0.9 0.23,1.2 z" style="fill:#000000;stroke-width:0" /><path id="path8538" d="m 295.09,477.23 -0.79,0 0,5.07 c 0,0.42 0.02,0.82 0.04,1.19 -0.07,-0.07 -0.14,-0.13 -0.23,-0.21 -0.08,-0.07 -0.47,-0.39 -1.16,-0.94 l -0.43,0.55 1.89,1.45 0.68,0 z" style="fill:#000000;stroke-width:0" /><path id="path8540" d="m 302.47,481.32 0,-0.26 -0.01,-0.25 -0.02,-0.24 -0.02,-0.23 -0.03,-0.22 -0.03,-0.22 -0.04,-0.21 -0.05,-0.2 -0.06,-0.19 -0.06,-0.18 -0.06,-0.18 -0.07,-0.17 -0.08,-0.15 -0.09,-0.15 -0.09,-0.15 -0.1,-0.13 -0.1,-0.13 -0.11,-0.12 -0.12,-0.11 -0.12,-0.1 -0.13,-0.09 -0.14,-0.09 -0.14,-0.08 -0.15,-0.06 -0.15,-0.07 -0.16,-0.05 -0.17,-0.04 -0.17,-0.04 -0.18,-0.03 -0.19,-0.02 -0.19,-0.01 -0.2,-0.01 c -0.38,0 -0.68,0.04 -0.9,0.1 l 0,0.7 c 0.26,-0.09 0.56,-0.13 0.89,-0.13 0.78,0 1.37,0.24 1.76,0.72 0.4,0.49 0.62,1.22 0.65,2.22 l -0.05,0 -0.15,0.49 c 0.14,0.21 0.21,0.42 0.21,0.65 0,0.34 -0.06,0.66 -0.2,0.94 -0.13,0.29 -0.31,0.52 -0.55,0.69 -0.24,0.16 -0.51,0.25 -0.82,0.25 l 0,0 c -0.47,-0.01 -0.83,-0.15 -1.08,-0.45 -0.26,-0.3 -0.38,-0.72 -0.38,-1.25 0,-0.47 0.12,-0.83 0.35,-1.1 0.23,-0.27 0.59,-0.4 1.07,-0.4 0.29,0 0.57,0.06 0.81,0.18 0.25,0.12 0.45,0.28 0.59,0.49 l 0.15,-0.49 c -0.18,-0.27 -0.42,-0.48 -0.71,-0.62 -0.3,-0.14 -0.63,-0.21 -1,-0.21 -0.63,0 -1.13,0.19 -1.5,0.56 -0.37,0.38 -0.56,0.91 -0.56,1.58 0,0.74 0.21,1.33 0.62,1.75 0.42,0.43 0.96,0.65 1.64,0.65 0.48,-0.01 0.9,-0.13 1.26,-0.38 0.36,-0.24 0.64,-0.61 0.84,-1.08 0.19,-0.48 0.29,-1.04 0.29,-1.68 z" style="fill:#000000;stroke-width:0" /><path id="path8542" d="m 308.21,480.8 0,-0.11 -0.01,-0.11 0,-0.11 0,-0.11 -0.01,-0.11 -0.01,-0.11 0,-0.1 -0.01,-0.1 -0.01,-0.1 -0.01,-0.1 -0.01,-0.09 -0.02,-0.1 -0.01,-0.09 -0.02,-0.09 -0.01,-0.09 -0.02,-0.09 -0.02,-0.08 -0.02,-0.08 -0.02,-0.08 -0.02,-0.08 -0.02,-0.08 -0.03,-0.08 -0.02,-0.07 -0.03,-0.07 -0.03,-0.07 -0.03,-0.07 -0.03,-0.07 -0.03,-0.06 -0.03,-0.07 -0.03,-0.06 -0.04,-0.06 -0.04,-0.06 c -0.38,-0.6 -0.98,-0.91 -1.77,-0.91 l 0,0.7 c 0.53,0 0.92,0.24 1.17,0.72 0.24,0.47 0.36,1.22 0.36,2.24 0,1.02 -0.12,1.77 -0.36,2.24 -0.25,0.48 -0.64,0.72 -1.17,0.72 -0.54,-0.01 -0.92,-0.24 -1.17,-0.71 -0.24,-0.47 -0.36,-1.21 -0.36,-2.25 l 0,0 c 0,-1.03 0.12,-1.78 0.36,-2.25 0.24,-0.47 0.63,-0.71 1.17,-0.71 l 0,-0.7 c -0.77,0 -1.35,0.31 -1.75,0.94 -0.4,0.62 -0.6,1.53 -0.6,2.72 0,1.24 0.19,2.16 0.58,2.76 0.38,0.6 0.97,0.9 1.77,0.9 0.77,-0.01 1.35,-0.32 1.76,-0.94 0.39,-0.63 0.6,-1.53 0.6,-2.72 z" style="fill:#000000;stroke-width:0" /><path id="path8544" d="m 309.27,480.28 0,0.13 0,0.13 0.01,0.13 0,0.12 0.01,0.12 0.01,0.12 0.01,0.12 0.01,0.11 0.01,0.12 0.02,0.11 0.01,0.11 0.02,0.11 0.02,0.1 0.02,0.1 0.03,0.11 0.02,0.09 0.03,0.1 0.03,0.1 0.03,0.09 0.03,0.09 0.03,0.09 0.03,0.08 0.04,0.09 0.04,0.08 0.04,0.08 0.04,0.08 0.04,0.08 0.04,0.07 0.05,0.07 0.05,0.07 0.04,0.07 0.05,0.07 c 0.55,0.69 1.35,1.04 2.42,1.04 0.36,-0.01 0.65,-0.04 0.86,-0.1 l 0,-0.69 c -0.25,0.08 -0.53,0.12 -0.85,0.12 -0.77,0 -1.35,-0.24 -1.75,-0.71 -0.4,-0.48 -0.62,-1.22 -0.66,-2.24 l 0.05,0 0.16,-0.47 c -0.14,-0.22 -0.21,-0.43 -0.21,-0.66 0,-0.34 0.06,-0.65 0.19,-0.94 0.13,-0.29 0.32,-0.52 0.55,-0.69 0.24,-0.16 0.51,-0.25 0.82,-0.25 l 0,0 c 0.46,0 0.82,0.15 1.07,0.44 0.25,0.29 0.38,0.71 0.38,1.26 0,0.47 -0.11,0.84 -0.35,1.11 -0.24,0.27 -0.59,0.4 -1.06,0.4 -0.3,0 -0.56,-0.06 -0.81,-0.18 -0.24,-0.12 -0.43,-0.28 -0.58,-0.49 l -0.16,0.47 c 0.36,0.56 0.93,0.84 1.7,0.84 0.64,0 1.14,-0.19 1.51,-0.58 0.37,-0.39 0.55,-0.91 0.55,-1.57 0,-0.74 -0.2,-1.33 -0.6,-1.75 -0.41,-0.42 -0.95,-0.64 -1.64,-0.64 -0.74,0 -1.32,0.28 -1.75,0.84 -0.44,0.55 -0.65,1.32 -0.65,2.3 z" style="fill:#000000;stroke-width:0" /></g>  <g style="font-style:normal;font-variant:normal;font-weight:normal;font-stretch:normal;letter-spacing:normal;word-spacing:normal;text-anchor:start;fill:none;fill-opacity:1;fill-rule:evenodd;stroke:#000000;stroke-linecap:butt;stroke-linejoin:miter;stroke-miterlimit:10.43299961;stroke-dasharray:none;stroke-dashoffset:0;stroke-opacity:1" id="g9594" transform="matrix(1.5704537,0,0,-1.5704537,-97.714425,1508.2233)" xml:space="preserve" stroke-miterlimit="10.433" font-style="normal" font-variant="normal" font-weight="normal" font-stretch="normal" font-size-adjust="none" letter-spacing="normal" word-spacing="normal" ns0:text="Kobe, 1995" ns0:preamble="/Users/prmb/CMEP/underground-inkscape-preamble.tex"><polygon style="fill:#000000;stroke-width:0" points="225.98,480.68 225.24,480.02 225.24,477.23 224.41,477.23 224.41,484.34 225.24,484.34 225.24,480.82 228.46,484.34 229.44,484.34 226.58,481.25 229.55,477.23 228.58,477.23 " id="polygon9596" /><path style="fill:#000000;stroke-width:0" d="m 235.01,479.91 0,-0.08 0,-0.08 0,-0.08 -0.01,-0.08 0,-0.07 -0.01,-0.08 -0.01,-0.07 -0.01,-0.08 -0.01,-0.07 -0.01,-0.07 -0.01,-0.07 -0.02,-0.07 -0.02,-0.06 -0.01,-0.07 -0.02,-0.07 -0.02,-0.06 -0.02,-0.06 -0.02,-0.06 -0.03,-0.07 -0.02,-0.06 -0.03,-0.05 -0.03,-0.06 -0.03,-0.06 -0.03,-0.05 -0.03,-0.06 -0.03,-0.05 -0.03,-0.05 -0.04,-0.05 -0.04,-0.05 -0.03,-0.05 -0.04,-0.05 -0.04,-0.04 c -0.44,-0.49 -1.05,-0.74 -1.82,-0.74 l 0.02,0.68 c 0.53,0 0.93,0.18 1.2,0.53 0.28,0.36 0.42,0.88 0.42,1.56 0,0.67 -0.14,1.19 -0.42,1.54 -0.27,0.35 -0.67,0.53 -1.21,0.53 -0.53,0 -0.93,-0.17 -1.2,-0.52 -0.27,-0.35 -0.4,-0.86 -0.4,-1.55 l 0,0 c -0.01,-0.68 0.13,-1.2 0.4,-1.55 0.27,-0.36 0.68,-0.54 1.21,-0.54 l -0.02,-0.68 c -0.48,0 -0.9,0.12 -1.27,0.34 -0.37,0.22 -0.66,0.54 -0.86,0.96 -0.2,0.42 -0.3,0.91 -0.3,1.47 0,0.87 0.21,1.54 0.65,2.03 0.43,0.48 1.04,0.73 1.81,0.73 0.75,0 1.34,-0.25 1.78,-0.75 0.44,-0.5 0.66,-1.16 0.66,-2.01 z" id="path9598" /><path style="fill:#000000;stroke-width:0" d="m 238.91,482.67 0.06,0 0.07,-0.01 0.06,0 0.06,-0.01 0.06,0 0.07,-0.01 0.06,-0.01 0.05,-0.01 0.06,-0.01 0.06,-0.01 0.06,-0.02 0.05,-0.02 0.05,-0.01 0.06,-0.02 0.05,-0.02 0.05,-0.02 0.05,-0.03 0.05,-0.02 0.05,-0.03 0.05,-0.03 0.05,-0.02 0.04,-0.03 0.05,-0.04 0.04,-0.03 0.05,-0.03 0.04,-0.04 0.04,-0.04 0.04,-0.03 0.04,-0.04 0.04,-0.05 0.04,-0.04 0.03,-0.04 c 0.39,-0.48 0.59,-1.16 0.59,-2.03 -0.01,-0.88 -0.2,-1.56 -0.59,-2.05 -0.39,-0.48 -0.94,-0.73 -1.63,-0.73 -0.35,0 -0.67,0.07 -0.96,0.2 -0.29,0.12 -0.52,0.32 -0.72,0.59 l -0.06,0 -0.17,-0.7 -0.58,0 0,7.58 0.81,0 0,-1.83 c 0,-0.42 -0.01,-0.78 -0.04,-1.11 l 0.04,0 0.37,-0.35 c -0.25,-0.32 -0.37,-0.85 -0.37,-1.6 0,-0.75 0.13,-1.29 0.38,-1.61 0.25,-0.33 0.65,-0.49 1.2,-0.49 0.5,0 0.87,0.18 1.11,0.54 0.25,0.37 0.37,0.89 0.37,1.56 0,0.7 -0.12,1.22 -0.37,1.56 -0.24,0.34 -0.62,0.51 -1.13,0.51 l 0,0 c -0.55,0 -0.95,-0.16 -1.19,-0.47 l -0.37,0.35 c 0.38,0.53 0.94,0.8 1.68,0.8 z" id="path9600" /><path style="fill:#000000;stroke-width:0" d="m 244.77,477.14 -0.07,0.01 -0.07,0 -0.07,0 -0.07,0.01 -0.07,0 -0.07,0.01 -0.07,0.01 -0.07,0.01 -0.06,0.01 -0.07,0.02 -0.06,0.01 -0.06,0.02 -0.06,0.01 -0.07,0.02 -0.06,0.02 -0.05,0.02 -0.06,0.03 -0.06,0.02 -0.05,0.03 -0.06,0.03 -0.05,0.03 -0.06,0.03 -0.05,0.03 -0.05,0.03 -0.05,0.03 -0.05,0.04 -0.04,0.04 -0.05,0.04 -0.05,0.04 -0.04,0.04 -0.05,0.04 -0.04,0.04 c -0.46,0.48 -0.68,1.15 -0.68,2 0,0.86 0.21,1.54 0.63,2.05 0.42,0.5 0.99,0.76 1.7,0.76 0.67,0 1.2,-0.22 1.59,-0.66 0.38,-0.44 0.58,-1.01 0.58,-1.73 l 0,-0.51 -3.66,0 0.02,0.66 2.77,0 c 0,0.5 -0.11,0.89 -0.34,1.16 -0.23,0.27 -0.54,0.4 -0.97,0.4 l 0,0 c -0.42,0 -0.76,-0.14 -1.02,-0.41 -0.25,-0.28 -0.4,-0.66 -0.44,-1.15 l -0.02,-0.66 c 0.01,-0.63 0.17,-1.1 0.47,-1.43 0.3,-0.33 0.72,-0.49 1.26,-0.49 0.57,0 1.14,0.12 1.7,0.36 l 0,-0.72 c -0.28,-0.12 -0.55,-0.21 -0.81,-0.26 -0.25,-0.06 -0.56,-0.09 -0.92,-0.09 z" id="path9602" /><path style="fill:#000000;stroke-width:0" d="m 248.96,478.4 0.08,-0.11 c -0.09,-0.33 -0.21,-0.71 -0.37,-1.14 -0.16,-0.43 -0.32,-0.83 -0.49,-1.2 l -0.61,0 c 0.08,0.34 0.18,0.76 0.29,1.25 0.1,0.5 0.18,0.9 0.22,1.2 z" id="path9604" /><path style="fill:#000000;stroke-width:0" d="m 255.76,477.23 -0.79,0 0,5.07 c 0,0.42 0.02,0.82 0.04,1.19 -0.07,-0.07 -0.14,-0.13 -0.23,-0.21 -0.08,-0.07 -0.47,-0.39 -1.16,-0.94 l -0.42,0.55 1.88,1.45 0.68,0 z" id="path9606" /><path style="fill:#000000;stroke-width:0" d="m 263.14,481.32 0,-0.26 -0.01,-0.25 -0.02,-0.24 -0.02,-0.23 -0.03,-0.22 -0.03,-0.22 -0.04,-0.21 -0.05,-0.2 -0.06,-0.19 -0.05,-0.18 -0.07,-0.18 -0.07,-0.17 -0.08,-0.15 -0.09,-0.15 -0.09,-0.15 -0.1,-0.13 -0.1,-0.13 -0.11,-0.12 -0.12,-0.11 -0.12,-0.1 -0.13,-0.09 -0.14,-0.09 -0.14,-0.08 -0.15,-0.06 -0.15,-0.07 -0.16,-0.05 -0.17,-0.04 -0.17,-0.04 -0.18,-0.03 -0.19,-0.02 -0.19,-0.01 -0.2,-0.01 c -0.38,0 -0.68,0.04 -0.9,0.1 l 0,0.7 c 0.26,-0.09 0.56,-0.13 0.89,-0.13 0.78,0 1.37,0.24 1.76,0.72 0.4,0.49 0.62,1.22 0.65,2.22 l -0.05,0 -0.15,0.49 c 0.14,0.21 0.21,0.42 0.21,0.65 0,0.34 -0.06,0.66 -0.2,0.94 -0.13,0.29 -0.31,0.52 -0.55,0.69 -0.24,0.16 -0.52,0.25 -0.82,0.25 l 0,0 c -0.47,-0.01 -0.83,-0.15 -1.08,-0.45 -0.25,-0.3 -0.38,-0.72 -0.38,-1.25 0,-0.47 0.12,-0.83 0.35,-1.1 0.23,-0.27 0.59,-0.4 1.07,-0.4 0.29,0 0.56,0.06 0.81,0.18 0.25,0.12 0.45,0.28 0.59,0.49 l 0.15,-0.49 c -0.18,-0.27 -0.42,-0.48 -0.71,-0.62 -0.3,-0.14 -0.63,-0.21 -1,-0.21 -0.63,0 -1.13,0.19 -1.5,0.56 -0.37,0.38 -0.56,0.91 -0.56,1.58 0,0.74 0.21,1.33 0.62,1.75 0.42,0.43 0.96,0.65 1.64,0.65 0.48,-0.01 0.9,-0.13 1.27,-0.38 0.36,-0.24 0.63,-0.61 0.83,-1.08 0.19,-0.48 0.29,-1.04 0.29,-1.68 z" id="path9608" /><path style="fill:#000000;stroke-width:0" d="m 268.84,481.32 -0.01,-0.26 0,-0.25 -0.02,-0.24 -0.02,-0.23 -0.03,-0.22 -0.04,-0.22 -0.04,-0.21 -0.04,-0.2 -0.06,-0.19 -0.06,-0.18 -0.06,-0.18 -0.08,-0.17 -0.08,-0.15 -0.08,-0.15 -0.09,-0.15 -0.1,-0.13 -0.1,-0.13 -0.11,-0.12 -0.12,-0.11 -0.12,-0.1 -0.13,-0.09 -0.14,-0.09 -0.14,-0.08 -0.15,-0.06 -0.15,-0.07 -0.17,-0.05 -0.16,-0.04 -0.18,-0.04 -0.18,-0.03 -0.18,-0.02 -0.2,-0.01 -0.19,-0.01 c -0.38,0 -0.68,0.04 -0.9,0.1 l 0,0.7 c 0.26,-0.09 0.56,-0.13 0.89,-0.13 0.77,0 1.36,0.24 1.76,0.72 0.4,0.49 0.62,1.22 0.65,2.22 l -0.06,0 -0.14,0.49 c 0.14,0.21 0.21,0.42 0.21,0.65 0,0.34 -0.07,0.66 -0.2,0.94 -0.13,0.29 -0.32,0.52 -0.56,0.69 -0.24,0.16 -0.51,0.25 -0.82,0.25 l 0,0 c -0.46,-0.01 -0.82,-0.15 -1.07,-0.45 -0.26,-0.3 -0.38,-0.72 -0.38,-1.25 0,-0.47 0.12,-0.83 0.35,-1.1 0.23,-0.27 0.59,-0.4 1.06,-0.4 0.3,0 0.57,0.06 0.82,0.18 0.25,0.12 0.44,0.28 0.59,0.49 l 0.14,-0.49 c -0.18,-0.27 -0.41,-0.48 -0.71,-0.62 -0.29,-0.14 -0.63,-0.21 -1,-0.21 -0.63,0 -1.13,0.19 -1.5,0.56 -0.37,0.38 -0.55,0.91 -0.55,1.58 0,0.74 0.21,1.33 0.62,1.75 0.41,0.43 0.96,0.65 1.63,0.65 0.49,-0.01 0.91,-0.13 1.27,-0.38 0.36,-0.24 0.64,-0.61 0.84,-1.08 0.19,-0.48 0.29,-1.04 0.29,-1.68 z" id="path9610" /><path style="fill:#000000;stroke-width:0" d="m 272.08,481.56 0.07,0 0.07,0 0.07,0 0.06,-0.01 0.07,0 0.07,-0.01 0.06,-0.01 0.06,0 0.07,-0.01 0.06,-0.01 0.06,-0.01 0.06,-0.02 0.06,-0.01 0.05,-0.02 0.06,-0.01 0.06,-0.02 0.05,-0.02 0.05,-0.01 0.06,-0.02 0.05,-0.03 0.05,-0.02 0.05,-0.02 0.05,-0.02 0.05,-0.03 0.05,-0.03 0.04,-0.02 0.05,-0.03 0.04,-0.03 0.05,-0.03 0.04,-0.04 0.04,-0.03 0.04,-0.03 c 0.43,-0.37 0.65,-0.88 0.65,-1.52 -0.01,-0.73 -0.24,-1.3 -0.71,-1.72 -0.47,-0.42 -1.11,-0.63 -1.94,-0.63 -0.8,0 -1.41,0.13 -1.83,0.39 l 0,0.78 c 0.22,-0.15 0.51,-0.26 0.84,-0.34 0.34,-0.09 0.68,-0.13 1,-0.13 0.57,0 1.02,0.14 1.33,0.4 0.32,0.27 0.48,0.65 0.48,1.16 0,0.98 -0.61,1.48 -1.83,1.48 -0.31,-0.01 -0.72,-0.05 -1.23,-0.15 l -0.42,0.27 0.27,3.34 3.53,0 0,-0.75 -2.84,0 -0.18,-2.14 c 0.37,0.07 0.74,0.11 1.11,0.11 z" id="path9612" /></g>  <g ns0:preamble="/Users/prmb/CMEP/underground-inkscape-preamble.tex" ns0:text="Lincolnshire, 2008" word-spacing="normal" letter-spacing="normal" font-size-adjust="none" font-stretch="normal" font-weight="normal" font-variant="normal" font-style="normal" stroke-miterlimit="10.433" xml:space="preserve" transform="matrix(1.5704537,0,0,-1.5704537,-144.41435,1551.8099)" id="g10682" style="font-style:normal;font-variant:normal;font-weight:normal;font-stretch:normal;letter-spacing:normal;word-spacing:normal;text-anchor:start;fill:none;fill-opacity:1;fill-rule:evenodd;stroke:#000000;stroke-linecap:butt;stroke-linejoin:miter;stroke-miterlimit:10.43299961;stroke-dasharray:none;stroke-dashoffset:0;stroke-opacity:1"><polygon id="polygon10684" points="225.24,484.34 225.24,477.98 228.37,477.98 228.37,477.23 224.41,477.23 224.41,484.34 " style="fill:#000000;stroke-width:0" /><polygon id="polygon10686" points="229.45,482.58 230.26,482.58 230.26,477.23 229.45,477.23 " style="fill:#000000;stroke-width:0" /><path id="path10688" d="m 229.39,484.01 0,0.02 0,0.02 0,0.01 0,0.02 0,0.01 0,0.02 0,0.02 0,0.01 0.01,0.02 0,0.01 0,0.01 0,0.02 0.01,0.01 0,0.02 0.01,0.01 0,0.01 0,0.01 0.01,0.02 0,0.01 0.01,0.01 0,0.01 0.01,0.01 0.01,0.01 0,0.01 0.01,0.01 0.01,0.01 0,0.01 0.01,0.01 0.01,0.01 0.01,0.01 0,0.01 0.01,0.01 c 0.09,0.08 0.21,0.13 0.34,0.13 0.13,0 0.24,-0.05 0.34,-0.13 0.09,-0.09 0.14,-0.23 0.14,-0.41 0,-0.18 -0.05,-0.32 -0.14,-0.4 -0.1,-0.09 -0.21,-0.14 -0.34,-0.14 -0.13,0 -0.25,0.05 -0.34,0.14 -0.09,0.08 -0.13,0.22 -0.13,0.4 z" style="fill:#000000;stroke-width:0" /><path id="path10690" d="m 235.63,477.23 0,3.45 c 0,0.44 -0.1,0.76 -0.3,0.98 -0.2,0.21 -0.51,0.32 -0.93,0.32 -0.56,0 -0.97,-0.15 -1.22,-0.45 -0.27,-0.3 -0.39,-0.8 -0.39,-1.5 l 0,-2.8 -0.81,0 0,5.35 0.66,0 0.13,-0.74 0.04,0 c 0.16,0.26 0.39,0.46 0.69,0.61 0.3,0.14 0.63,0.22 1,0.22 0.64,0 1.12,-0.16 1.45,-0.47 0.32,-0.31 0.49,-0.8 0.49,-1.49 l 0,-3.48 z" style="fill:#000000;stroke-width:0" /><path id="path10692" d="m 240.23,477.14 -0.08,0.01 -0.07,0 -0.07,0 -0.07,0.01 -0.06,0 -0.07,0.01 -0.07,0.01 -0.06,0.01 -0.07,0.01 -0.06,0.01 -0.06,0.02 -0.06,0.02 -0.06,0.01 -0.06,0.02 -0.06,0.02 -0.05,0.02 -0.06,0.03 -0.05,0.02 -0.06,0.03 -0.05,0.02 -0.05,0.03 -0.05,0.03 -0.05,0.03 -0.05,0.04 -0.05,0.03 -0.04,0.04 -0.05,0.03 -0.04,0.04 -0.04,0.04 -0.05,0.04 -0.04,0.04 -0.04,0.05 c -0.42,0.47 -0.63,1.14 -0.63,2.01 -0.01,0.89 0.21,1.58 0.64,2.07 0.43,0.48 1.04,0.73 1.84,0.73 0.25,0 0.51,-0.03 0.77,-0.09 0.25,-0.05 0.46,-0.12 0.6,-0.19 l -0.25,-0.69 c -0.18,0.07 -0.37,0.13 -0.58,0.18 -0.21,0.05 -0.4,0.07 -0.56,0.07 -1.09,0 -1.63,-0.69 -1.63,-2.07 0,-0.65 0.14,-1.15 0.4,-1.5 0.26,-0.35 0.66,-0.53 1.18,-0.53 0.44,0 0.9,0.1 1.36,0.29 l 0,-0.72 c -0.35,-0.18 -0.8,-0.28 -1.34,-0.28 z" style="fill:#000000;stroke-width:0" /><path id="path10694" d="m 247.45,479.91 0,-0.08 -0.01,-0.08 0,-0.08 0,-0.08 -0.01,-0.07 -0.01,-0.08 0,-0.07 -0.01,-0.08 -0.02,-0.07 -0.01,-0.07 -0.01,-0.07 -0.02,-0.07 -0.01,-0.06 -0.02,-0.07 -0.02,-0.07 -0.02,-0.06 -0.02,-0.06 -0.02,-0.06 -0.03,-0.07 -0.02,-0.06 -0.03,-0.05 -0.02,-0.06 -0.03,-0.06 -0.03,-0.05 -0.03,-0.06 -0.04,-0.05 -0.03,-0.05 -0.04,-0.05 -0.03,-0.05 -0.04,-0.05 -0.04,-0.05 -0.04,-0.04 c -0.44,-0.49 -1.05,-0.74 -1.82,-0.74 l 0.02,0.68 c 0.53,0 0.93,0.18 1.21,0.53 0.27,0.36 0.41,0.88 0.41,1.56 0,0.67 -0.14,1.19 -0.41,1.54 -0.28,0.35 -0.68,0.53 -1.22,0.53 -0.53,0 -0.93,-0.17 -1.2,-0.52 -0.27,-0.35 -0.4,-0.86 -0.4,-1.55 l 0,0 c 0,-0.68 0.13,-1.2 0.41,-1.55 0.27,-0.36 0.67,-0.54 1.2,-0.54 l -0.02,-0.68 c -0.48,0 -0.9,0.12 -1.27,0.34 -0.37,0.22 -0.66,0.54 -0.86,0.96 -0.2,0.42 -0.3,0.91 -0.3,1.47 0,0.87 0.22,1.54 0.65,2.03 0.44,0.48 1.04,0.73 1.82,0.73 0.74,0 1.34,-0.25 1.78,-0.75 0.44,-0.5 0.66,-1.16 0.66,-2.01 z" style="fill:#000000;stroke-width:0" /><polygon id="polygon10696" points="248.85,484.81 249.66,484.81 249.66,477.23 248.85,477.23 " style="fill:#000000;stroke-width:0" /><path id="path10698" d="m 255.02,477.23 0,3.45 c 0,0.44 -0.09,0.76 -0.29,0.98 -0.2,0.21 -0.51,0.32 -0.93,0.32 -0.56,0 -0.97,-0.15 -1.23,-0.45 -0.26,-0.3 -0.39,-0.8 -0.39,-1.5 l 0,-2.8 -0.81,0 0,5.35 0.66,0 0.13,-0.74 0.04,0 c 0.17,0.26 0.4,0.46 0.7,0.61 0.3,0.14 0.63,0.22 1,0.22 0.64,0 1.12,-0.16 1.45,-0.47 0.32,-0.31 0.48,-0.8 0.48,-1.49 l 0,-3.48 z" style="fill:#000000;stroke-width:0" /><path id="path10700" d="m 260.92,478.7 0,-0.05 0,-0.05 -0.01,-0.04 0,-0.05 0,-0.04 -0.01,-0.04 -0.01,-0.04 0,-0.05 -0.01,-0.04 -0.01,-0.04 -0.02,-0.04 -0.01,-0.03 -0.01,-0.04 -0.02,-0.04 -0.01,-0.04 -0.02,-0.03 -0.02,-0.04 -0.02,-0.03 -0.02,-0.04 -0.02,-0.03 -0.02,-0.03 -0.02,-0.04 -0.03,-0.03 -0.02,-0.03 -0.03,-0.03 -0.03,-0.03 -0.02,-0.03 -0.03,-0.02 -0.03,-0.03 -0.04,-0.03 -0.03,-0.03 -0.03,-0.02 c -0.38,-0.27 -0.89,-0.41 -1.56,-0.41 -0.7,0 -1.25,0.12 -1.65,0.34 l 0,0.74 c 0.26,-0.13 0.53,-0.23 0.82,-0.3 0.3,-0.07 0.58,-0.11 0.85,-0.11 0.42,0 0.75,0.07 0.97,0.2 0.23,0.14 0.34,0.34 0.34,0.62 0,0.2 -0.09,0.38 -0.27,0.53 -0.18,0.14 -0.53,0.32 -1.05,0.52 -0.5,0.19 -0.84,0.35 -1.05,0.49 -0.21,0.13 -0.37,0.29 -0.47,0.47 -0.1,0.17 -0.15,0.38 -0.15,0.62 0,0.43 0.17,0.78 0.53,1.03 0.35,0.25 0.83,0.38 1.45,0.38 0.57,0 1.13,-0.12 1.68,-0.35 l -0.29,-0.66 c -0.53,0.22 -1.01,0.33 -1.45,0.33 -0.38,0 -0.67,-0.06 -0.86,-0.18 -0.2,-0.12 -0.29,-0.29 -0.29,-0.49 0,-0.15 0.03,-0.27 0.11,-0.37 0.07,-0.1 0.19,-0.2 0.35,-0.29 0.16,-0.09 0.47,-0.22 0.93,-0.39 0.63,-0.23 1.06,-0.46 1.28,-0.69 0.22,-0.24 0.33,-0.53 0.33,-0.88 z" style="fill:#000000;stroke-width:0" /><path id="path10702" d="m 265.89,477.23 0,3.46 c 0,0.43 -0.1,0.76 -0.29,0.98 -0.2,0.21 -0.51,0.32 -0.93,0.32 -0.57,0 -0.97,-0.15 -1.23,-0.46 -0.26,-0.31 -0.39,-0.8 -0.39,-1.5 l 0,-2.8 -0.81,0 0,7.58 0.81,0 0,-2.29 c 0,-0.27 -0.01,-0.5 -0.04,-0.68 l 0.05,0 c 0.16,0.25 0.39,0.46 0.68,0.6 0.29,0.15 0.63,0.23 1,0.23 0.65,0 1.15,-0.16 1.47,-0.47 0.33,-0.31 0.49,-0.8 0.49,-1.48 l 0,-3.49 z" style="fill:#000000;stroke-width:0" /><polygon id="polygon10704" points="268.35,482.58 269.16,482.58 269.16,477.23 268.35,477.23 " style="fill:#000000;stroke-width:0" /><path id="path10706" d="m 268.28,484.01 0,0.02 0,0.02 0,0.01 0.01,0.02 0,0.01 0,0.02 0,0.02 0,0.01 0,0.02 0.01,0.01 0,0.01 0,0.02 0.01,0.01 0,0.02 0,0.01 0.01,0.01 0,0.01 0.01,0.02 0,0.01 0.01,0.01 0,0.01 0.01,0.01 0,0.01 0.01,0.01 0.01,0.01 0,0.01 0.01,0.01 0.01,0.01 0.01,0.01 0,0.01 0.01,0.01 0.01,0.01 c 0.09,0.08 0.2,0.13 0.34,0.13 0.13,0 0.24,-0.05 0.34,-0.13 0.09,-0.09 0.14,-0.23 0.14,-0.41 0,-0.18 -0.05,-0.32 -0.14,-0.4 -0.1,-0.09 -0.21,-0.14 -0.34,-0.14 -0.14,0 -0.25,0.05 -0.34,0.14 -0.09,0.08 -0.14,0.22 -0.14,0.4 z" style="fill:#000000;stroke-width:0" /><path id="path10708" d="m 273.3,482.67 0.05,0 0.04,-0.01 0.04,0 0.04,0 0.05,0 0.04,0 0.04,-0.01 0.04,0 0.04,0 0.04,-0.01 0.03,0 0.04,-0.01 0.04,0 0.04,-0.01 0.03,-0.01 0.04,0 -0.11,-0.75 c -0.22,0.05 -0.42,0.07 -0.59,0.07 -0.43,0 -0.79,-0.17 -1.1,-0.52 -0.31,-0.36 -0.46,-0.79 -0.46,-1.31 l 0,-2.87 -0.81,0 0,5.35 0.67,0 0.09,-1 0.04,0 c 0.2,0.35 0.44,0.62 0.72,0.8 0.27,0.19 0.58,0.29 0.91,0.29 z" style="fill:#000000;stroke-width:0" /><path id="path10710" d="m 276.99,477.14 -0.07,0.01 -0.07,0 -0.08,0 -0.07,0.01 -0.07,0 -0.06,0.01 -0.07,0.01 -0.07,0.01 -0.06,0.01 -0.07,0.02 -0.06,0.01 -0.07,0.02 -0.06,0.01 -0.06,0.02 -0.06,0.02 -0.06,0.02 -0.05,0.03 -0.06,0.02 -0.06,0.03 -0.05,0.03 -0.05,0.03 -0.06,0.03 -0.05,0.03 -0.05,0.03 -0.05,0.03 -0.05,0.04 -0.05,0.04 -0.04,0.04 -0.05,0.04 -0.04,0.04 -0.05,0.04 -0.04,0.04 c -0.46,0.48 -0.68,1.15 -0.68,2 0,0.86 0.21,1.54 0.63,2.05 0.42,0.5 0.99,0.76 1.7,0.76 0.67,0 1.2,-0.22 1.58,-0.66 0.39,-0.44 0.59,-1.01 0.59,-1.73 l 0,-0.51 -3.67,0 0.02,0.66 2.78,0 c 0,0.5 -0.11,0.89 -0.34,1.16 -0.23,0.27 -0.55,0.4 -0.97,0.4 l 0,0 c -0.43,0 -0.76,-0.14 -1.02,-0.41 -0.25,-0.28 -0.4,-0.66 -0.45,-1.15 l -0.02,-0.66 c 0.02,-0.63 0.18,-1.1 0.48,-1.43 0.3,-0.33 0.72,-0.49 1.26,-0.49 0.57,0 1.14,0.12 1.7,0.36 l 0,-0.72 c -0.29,-0.12 -0.55,-0.21 -0.81,-0.26 -0.25,-0.06 -0.56,-0.09 -0.92,-0.09 z" style="fill:#000000;stroke-width:0" /><path id="path10712" d="m 281.18,478.4 0.08,-0.11 c -0.09,-0.33 -0.21,-0.71 -0.37,-1.14 -0.16,-0.43 -0.32,-0.83 -0.5,-1.2 l -0.61,0 c 0.09,0.34 0.19,0.76 0.29,1.25 0.11,0.5 0.18,0.9 0.23,1.2 z" style="fill:#000000;stroke-width:0" /><path id="path10714" d="m 289.66,477.23 -4.67,0 0,0.7 1.87,1.89 c 0.57,0.57 0.95,0.99 1.13,1.23 0.18,0.25 0.32,0.49 0.41,0.72 0.09,0.24 0.13,0.49 0.13,0.76 0,0.38 -0.11,0.68 -0.34,0.9 -0.23,0.22 -0.55,0.34 -0.96,0.34 -0.3,-0.01 -0.58,-0.05 -0.84,-0.15 -0.27,-0.1 -0.56,-0.27 -0.88,-0.53 l -0.43,0.55 c 0.65,0.54 1.37,0.82 2.14,0.82 0.67,-0.01 1.19,-0.17 1.57,-0.52 0.38,-0.34 0.57,-0.8 0.57,-1.38 0,-0.45 -0.13,-0.9 -0.38,-1.34 -0.25,-0.44 -0.72,-1 -1.42,-1.67 l -1.56,-1.53 0,-0.04 3.66,0 z" style="fill:#000000;stroke-width:0" /><path id="path10716" d="m 295.4,480.8 0,-0.11 0,-0.11 -0.01,-0.11 0,-0.11 -0.01,-0.11 0,-0.11 -0.01,-0.1 -0.01,-0.1 -0.01,-0.1 -0.01,-0.1 -0.01,-0.09 -0.01,-0.1 -0.02,-0.09 -0.01,-0.09 -0.02,-0.09 -0.02,-0.09 -0.02,-0.08 -0.02,-0.08 -0.02,-0.08 -0.02,-0.08 -0.02,-0.08 -0.03,-0.08 -0.02,-0.07 -0.03,-0.07 -0.03,-0.07 -0.03,-0.07 -0.03,-0.07 -0.03,-0.06 -0.03,-0.07 -0.03,-0.06 -0.04,-0.06 -0.03,-0.06 c -0.39,-0.6 -0.98,-0.91 -1.78,-0.91 l 0,0.7 c 0.53,0 0.93,0.24 1.17,0.72 0.24,0.47 0.36,1.22 0.36,2.24 0,1.02 -0.12,1.77 -0.36,2.24 -0.24,0.48 -0.63,0.72 -1.17,0.72 -0.54,-0.01 -0.92,-0.24 -1.17,-0.71 -0.24,-0.47 -0.36,-1.21 -0.36,-2.25 l 0,0 c 0,-1.03 0.12,-1.78 0.36,-2.25 0.25,-0.47 0.64,-0.71 1.17,-0.71 l 0,-0.7 c -0.77,0 -1.35,0.31 -1.75,0.94 -0.4,0.62 -0.6,1.53 -0.6,2.72 0,1.24 0.2,2.16 0.58,2.76 0.39,0.6 0.98,0.9 1.77,0.9 0.77,-0.01 1.36,-0.32 1.76,-0.94 0.4,-0.63 0.6,-1.53 0.6,-2.72 z" style="fill:#000000;stroke-width:0" /><path id="path10718" d="m 301.1,480.8 -0.01,-0.11 0,-0.11 0,-0.11 0,-0.11 -0.01,-0.11 -0.01,-0.11 0,-0.1 -0.01,-0.1 -0.01,-0.1 -0.01,-0.1 -0.01,-0.09 -0.02,-0.1 -0.01,-0.09 -0.02,-0.09 -0.01,-0.09 -0.02,-0.09 -0.02,-0.08 -0.02,-0.08 -0.02,-0.08 -0.02,-0.08 -0.03,-0.08 -0.02,-0.08 -0.03,-0.07 -0.02,-0.07 -0.03,-0.07 -0.03,-0.07 -0.03,-0.07 -0.03,-0.06 -0.03,-0.07 -0.04,-0.06 -0.03,-0.06 -0.04,-0.06 c -0.39,-0.6 -0.98,-0.91 -1.78,-0.91 l 0,0.7 c 0.54,0 0.93,0.24 1.17,0.72 0.25,0.47 0.37,1.22 0.37,2.24 0,1.02 -0.12,1.77 -0.37,2.24 -0.24,0.48 -0.63,0.72 -1.17,0.72 -0.53,-0.01 -0.92,-0.24 -1.16,-0.71 -0.24,-0.47 -0.36,-1.21 -0.36,-2.25 l 0,0 c 0,-1.03 0.12,-1.78 0.36,-2.25 0.24,-0.47 0.63,-0.71 1.16,-0.71 l 0,-0.7 c -0.76,0 -1.34,0.31 -1.74,0.94 -0.4,0.62 -0.6,1.53 -0.6,2.72 0,1.24 0.19,2.16 0.58,2.76 0.38,0.6 0.97,0.9 1.76,0.9 0.77,-0.01 1.36,-0.32 1.76,-0.94 0.4,-0.63 0.61,-1.53 0.61,-2.72 z" style="fill:#000000;stroke-width:0" /><path id="path10720" d="m 304.43,484.46 -0.01,-0.66 c -0.41,0 -0.72,-0.1 -0.95,-0.29 -0.23,-0.2 -0.35,-0.46 -0.35,-0.78 0,-0.3 0.1,-0.55 0.29,-0.77 0.19,-0.21 0.54,-0.42 1.06,-0.64 0.46,0.2 0.79,0.41 0.99,0.63 0.19,0.22 0.29,0.48 0.29,0.78 -0.01,0.33 -0.12,0.59 -0.36,0.78 -0.23,0.19 -0.56,0.29 -0.97,0.29 l 0,0 0.01,0.66 c 0.65,-0.01 1.16,-0.15 1.54,-0.46 0.38,-0.3 0.57,-0.71 0.57,-1.24 0,-0.35 -0.11,-0.67 -0.32,-0.96 -0.22,-0.29 -0.57,-0.55 -1.05,-0.79 0.58,-0.28 0.99,-0.56 1.24,-0.87 0.24,-0.3 0.36,-0.65 0.36,-1.05 0,-0.59 -0.2,-1.06 -0.62,-1.42 -0.41,-0.35 -0.97,-0.53 -1.69,-0.53 l -0.02,0.66 c 0.48,0 0.86,0.12 1.13,0.34 0.27,0.23 0.4,0.54 0.4,0.94 0,0.31 -0.12,0.59 -0.38,0.84 -0.25,0.24 -0.69,0.48 -1.32,0.71 -0.48,-0.21 -0.83,-0.44 -1.05,-0.69 -0.22,-0.25 -0.33,-0.55 -0.33,-0.9 l 0,0 c 0,-0.39 0.14,-0.69 0.41,-0.91 0.27,-0.22 0.65,-0.33 1.14,-0.33 l 0.02,-0.66 c -0.76,0 -1.34,0.17 -1.75,0.5 -0.41,0.34 -0.61,0.81 -0.61,1.42 -0.01,0.81 0.49,1.45 1.48,1.9 -0.44,0.26 -0.76,0.53 -0.96,0.82 -0.2,0.29 -0.29,0.62 -0.29,0.99 0,0.51 0.19,0.92 0.57,1.23 0.38,0.3 0.89,0.46 1.53,0.46 z" style="fill:#000000;stroke-width:0" /></g>  <g style="font-style:normal;font-variant:normal;font-weight:normal;font-stretch:normal;letter-spacing:normal;word-spacing:normal;text-anchor:start;fill:none;fill-opacity:1;fill-rule:evenodd;stroke:#000000;stroke-linecap:butt;stroke-linejoin:miter;stroke-miterlimit:10.43299961;stroke-dasharray:none;stroke-dashoffset:0;stroke-opacity:1" id="g11830" transform="matrix(1.5704537,0,0,-1.5704537,-171.65597,1586.8348)" xml:space="preserve" stroke-miterlimit="10.433" font-style="normal" font-variant="normal" font-weight="normal" font-stretch="normal" font-size-adjust="none" letter-spacing="normal" word-spacing="normal" ns0:text="Kent, 2007" ns0:preamble="/Users/prmb/CMEP/underground-inkscape-preamble.tex"><polygon style="fill:#000000;stroke-width:0" points="225.98,480.68 225.24,480.02 225.24,477.23 224.41,477.23 224.41,484.34 225.24,484.34 225.24,480.82 228.46,484.34 229.44,484.34 226.58,481.25 229.55,477.23 228.58,477.23 " id="polygon11832" /><path style="fill:#000000;stroke-width:0" d="m 232.65,477.14 -0.07,0.01 -0.08,0 -0.07,0 -0.07,0.01 -0.07,0 -0.07,0.01 -0.06,0.01 -0.07,0.01 -0.06,0.01 -0.07,0.02 -0.06,0.01 -0.07,0.02 -0.06,0.01 -0.06,0.02 -0.06,0.02 -0.06,0.02 -0.05,0.03 -0.06,0.02 -0.06,0.03 -0.05,0.03 -0.05,0.03 -0.06,0.03 -0.05,0.03 -0.05,0.03 -0.05,0.03 -0.05,0.04 -0.05,0.04 -0.04,0.04 -0.05,0.04 -0.04,0.04 -0.05,0.04 -0.04,0.04 c -0.46,0.48 -0.68,1.15 -0.68,2 -0.01,0.86 0.21,1.54 0.63,2.05 0.42,0.5 0.99,0.76 1.7,0.76 0.67,0 1.2,-0.22 1.58,-0.66 0.39,-0.44 0.59,-1.01 0.59,-1.73 l 0,-0.51 -3.67,0 0.02,0.66 2.78,0 c 0,0.5 -0.11,0.89 -0.34,1.16 -0.23,0.27 -0.55,0.4 -0.97,0.4 l 0,0 c -0.43,0 -0.77,-0.14 -1.02,-0.41 -0.25,-0.28 -0.4,-0.66 -0.45,-1.15 l -0.02,-0.66 c 0.02,-0.63 0.18,-1.1 0.48,-1.43 0.29,-0.33 0.72,-0.49 1.26,-0.49 0.57,0 1.14,0.12 1.7,0.36 l 0,-0.72 c -0.29,-0.12 -0.56,-0.21 -0.81,-0.26 -0.25,-0.06 -0.56,-0.09 -0.92,-0.09 z" id="path11834" /><path style="fill:#000000;stroke-width:0" d="m 239.64,477.23 0,3.45 c 0,0.44 -0.1,0.76 -0.29,0.98 -0.2,0.21 -0.51,0.32 -0.93,0.32 -0.56,0 -0.97,-0.15 -1.23,-0.45 -0.26,-0.3 -0.39,-0.8 -0.39,-1.5 l 0,-2.8 -0.81,0 0,5.35 0.66,0 0.13,-0.74 0.04,0 c 0.16,0.26 0.4,0.46 0.7,0.61 0.29,0.14 0.63,0.22 0.99,0.22 0.64,0 1.13,-0.16 1.45,-0.47 0.33,-0.31 0.49,-0.8 0.49,-1.49 l 0,-3.48 z" id="path11836" /><path style="fill:#000000;stroke-width:0" d="m 243.83,477.81 0.03,0 0.03,0 0.02,0 0.03,0 0.02,0 0.03,0.01 0.03,0 0.02,0 0.05,0 0.06,0.01 0.05,0.01 0.05,0 c 0.13,0.02 0.24,0.05 0.31,0.07 l 0,-0.62 c -0.09,-0.04 -0.21,-0.08 -0.38,-0.1 -0.18,-0.03 -0.33,-0.05 -0.46,-0.05 -1.04,0 -1.55,0.55 -1.55,1.64 l 0,3.17 -0.77,0 0,0.38 0.77,0.34 0.34,1.13 0.47,0 0,-1.22 1.54,0 0,-0.63 -1.54,0 0,-3.14 c -0.01,-0.32 0.07,-0.57 0.22,-0.74 0.15,-0.17 0.37,-0.26 0.63,-0.26 z" id="path11838" /><path style="fill:#000000;stroke-width:0" d="m 246.47,478.4 0.08,-0.11 c -0.09,-0.33 -0.21,-0.71 -0.37,-1.14 -0.16,-0.43 -0.32,-0.83 -0.5,-1.2 l -0.61,0 c 0.09,0.34 0.19,0.76 0.3,1.25 0.1,0.5 0.17,0.9 0.22,1.2 z" id="path11840" /><path style="fill:#000000;stroke-width:0" d="m 254.95,477.23 -4.67,0 0,0.7 1.87,1.89 c 0.57,0.57 0.95,0.99 1.13,1.23 0.18,0.25 0.32,0.49 0.41,0.72 0.09,0.24 0.13,0.49 0.13,0.76 0,0.38 -0.11,0.68 -0.34,0.9 -0.23,0.22 -0.55,0.34 -0.96,0.34 -0.29,-0.01 -0.57,-0.05 -0.84,-0.15 -0.26,-0.1 -0.56,-0.27 -0.88,-0.53 l -0.43,0.55 c 0.65,0.54 1.37,0.82 2.14,0.82 0.67,-0.01 1.19,-0.17 1.57,-0.52 0.38,-0.34 0.57,-0.8 0.57,-1.38 0,-0.45 -0.12,-0.9 -0.38,-1.34 -0.25,-0.44 -0.72,-1 -1.42,-1.67 l -1.56,-1.53 0,-0.04 3.66,0 z" id="path11842" /><path style="fill:#000000;stroke-width:0" d="m 260.69,480.8 0,-0.11 0,-0.11 -0.01,-0.11 0,-0.11 -0.01,-0.11 0,-0.11 -0.01,-0.1 -0.01,-0.1 -0.01,-0.1 -0.01,-0.1 -0.01,-0.09 -0.01,-0.1 -0.02,-0.09 -0.01,-0.09 -0.02,-0.09 -0.02,-0.09 -0.02,-0.08 -0.01,-0.08 -0.03,-0.08 -0.02,-0.08 -0.02,-0.08 -0.03,-0.08 -0.02,-0.07 -0.03,-0.07 -0.03,-0.07 -0.02,-0.07 -0.03,-0.07 -0.04,-0.06 -0.03,-0.07 -0.03,-0.06 -0.04,-0.06 -0.03,-0.06 c -0.39,-0.6 -0.98,-0.91 -1.78,-0.91 l 0,0.7 c 0.53,0 0.93,0.24 1.17,0.72 0.24,0.47 0.36,1.22 0.36,2.24 0,1.02 -0.12,1.77 -0.36,2.24 -0.24,0.48 -0.63,0.72 -1.17,0.72 -0.54,-0.01 -0.92,-0.24 -1.16,-0.71 -0.25,-0.47 -0.37,-1.21 -0.37,-2.25 l 0,0 c 0,-1.03 0.12,-1.78 0.37,-2.25 0.24,-0.47 0.63,-0.71 1.16,-0.71 l 0,-0.7 c -0.77,0 -1.35,0.31 -1.75,0.94 -0.4,0.62 -0.6,1.53 -0.6,2.72 0,1.24 0.2,2.16 0.58,2.76 0.39,0.6 0.98,0.9 1.77,0.9 0.77,-0.01 1.36,-0.32 1.76,-0.94 0.4,-0.63 0.6,-1.53 0.6,-2.72 z" id="path11844" /><path style="fill:#000000;stroke-width:0" d="m 266.39,480.8 0,-0.11 -0.01,-0.11 0,-0.11 0,-0.11 -0.01,-0.11 -0.01,-0.11 0,-0.1 -0.01,-0.1 -0.01,-0.1 -0.01,-0.1 -0.01,-0.09 -0.02,-0.1 -0.01,-0.09 -0.02,-0.09 -0.01,-0.09 -0.02,-0.09 -0.02,-0.08 -0.02,-0.08 -0.02,-0.08 -0.02,-0.08 -0.02,-0.08 -0.03,-0.08 -0.02,-0.07 -0.03,-0.07 -0.03,-0.07 -0.03,-0.07 -0.03,-0.07 -0.03,-0.06 -0.03,-0.07 -0.03,-0.06 -0.04,-0.06 -0.04,-0.06 c -0.38,-0.6 -0.98,-0.91 -1.77,-0.91 l 0,0.7 c 0.53,0 0.92,0.24 1.17,0.72 0.24,0.47 0.36,1.22 0.36,2.24 0,1.02 -0.12,1.77 -0.36,2.24 -0.25,0.48 -0.64,0.72 -1.17,0.72 -0.54,-0.01 -0.92,-0.24 -1.17,-0.71 -0.24,-0.47 -0.36,-1.21 -0.36,-2.25 l 0,0 c 0,-1.03 0.12,-1.78 0.36,-2.25 0.24,-0.47 0.63,-0.71 1.17,-0.71 l 0,-0.7 c -0.77,0 -1.35,0.31 -1.75,0.94 -0.4,0.62 -0.6,1.53 -0.6,2.72 0,1.24 0.19,2.16 0.58,2.76 0.38,0.6 0.97,0.9 1.77,0.9 0.77,-0.01 1.35,-0.32 1.76,-0.94 0.39,-0.63 0.6,-1.53 0.6,-2.72 z" id="path11846" /><polygon style="fill:#000000;stroke-width:0" points="267.34,483.59 267.34,484.34 272.07,484.34 272.07,483.69 269.16,477.23 268.27,477.23 271.22,483.59 " id="polygon11848" /></g></svg>