<?xml version='1.0' ?><svg xmlns:ns0="http://www.iki.fi/pav/software/textext/" xmlns:dc="http://purl.org/dc/elements/1.1/" xmlns:cc="http://creativecommons.org/ns#" xmlns:rdf="http://www.w3.org/1999/02/22-rdf-syntax-ns#" xmlns:svg="http://www.w3.org/2000/svg" xmlns="http://www.w3.org/2000/svg" version="1.1" id="svg2" width="286.58001" height="205.35335" viewBox="231.82995 66.062439 286.58001 205.35335" preserveAspectRatio="none">
  <defs id="defs4">
    <marker style="overflow:visible" id="TriangleInM" refX="0" refY="0" orient="auto">
      <path transform="scale(-0.4,-0.4)" style="fill-rule:evenodd;stroke:#000000;stroke-width:1pt" d="m 5.77,0 -8.65,5 0,-10 8.65,5 z" id="path3948" />
    </marker>
    <marker style="overflow:visible" id="TriangleOutM" refX="0" refY="0" orient="auto">
      <path transform="scale(0.4,0.4)" style="fill-rule:evenodd;stroke:#000000;stroke-width:1pt" d="m 5.77,0 -8.65,5 0,-10 8.65,5 z" id="path3957" />
    </marker>
    <marker style="overflow:visible" id="TriangleInM-9" refX="0" refY="0" orient="auto">
      <path transform="scale(-0.4,-0.4)" style="fill-rule:evenodd;stroke:#000000;stroke-width:1pt" d="m 5.77,0 -8.65,5 0,-10 8.65,5 z" id="path3948-19" />
    </marker>
    <marker style="overflow:visible" id="TriangleOutM-4" refX="0" refY="0" orient="auto">
      <path transform="scale(0.4,0.4)" style="fill-rule:evenodd;stroke:#000000;stroke-width:1pt" d="m 5.77,0 -8.65,5 0,-10 8.65,5 z" id="path3957-6" />
    </marker>
    <marker style="overflow:visible" id="TriangleInM-60" refX="0" refY="0" orient="auto">
      <path transform="scale(-0.4,-0.4)" style="fill-rule:evenodd;stroke:#000000;stroke-width:1pt" d="m 5.77,0 -8.65,5 0,-10 8.65,5 z" id="path3948-4" />
    </marker>
    <marker style="overflow:visible" id="TriangleOutM-0" refX="0" refY="0" orient="auto">
      <path transform="scale(0.4,0.4)" style="fill-rule:evenodd;stroke:#000000;stroke-width:1pt" d="m 5.77,0 -8.65,5 0,-10 8.65,5 z" id="path3957-4" />
    </marker>
  </defs>
  <metadata id="metadata7">
    <rdf:RDF>
      <cc:Work rdf:about="">
        <dc:format>image/svg+xml</dc:format>
        <dc:type rdf:resource="http://purl.org/dc/dcmitype/StillImage" />
        <dc:title />
      </cc:Work>
    </rdf:RDF>
  </metadata>
  <g id="layer1">
    <text xml:space="preserve" style="font-style:normal;font-weight:normal;font-size:15.69018269px;line-height:125%;font-family:Sans;letter-spacing:0px;word-spacing:0px;fill:#000000;fill-opacity:1;stroke:none" x="346.46906" y="-13.549286" id="text4845"><tspan id="tspan4847" x="346.46906" y="-13.549286" /></text>
    <text xml:space="preserve" style="font-style:normal;font-weight:normal;font-size:15.69018269px;line-height:125%;font-family:Sans;letter-spacing:0px;word-spacing:0px;fill:#000000;fill-opacity:1;stroke:none" x="128.55815" y="-13.549286" id="text4845-9"><tspan id="tspan4847-5" x="128.55815" y="-13.549286" /></text>
    <text id="text4845-1" y="219.56682" x="259.52472" style="font-style:normal;font-weight:normal;font-size:17.37555885px;line-height:125%;font-family:Sans;letter-spacing:0px;word-spacing:0px;fill:#000000;fill-opacity:1;stroke:none" xml:space="preserve"><tspan y="219.56682" x="259.52472" id="tspan4847-1" /></text>
    <text id="text4845-9-7" y="219.56682" x="18.206751" style="font-style:normal;font-weight:normal;font-size:17.37555885px;line-height:125%;font-family:Sans;letter-spacing:0px;word-spacing:0px;fill:#000000;fill-opacity:1;stroke:none" xml:space="preserve"><tspan y="219.56682" x="18.206751" id="tspan4847-5-7" /></text>
    <path id="path4685-2-7" d="m 231.82995,245.71338 141.39647,0" style="fill:none;fill-rule:evenodd;stroke:#ffffff;stroke-width:0.53222573;stroke-linecap:butt;stroke-linejoin:miter;stroke-miterlimit:4;stroke-dasharray:1.06445139, 2.12890276;stroke-dashoffset:0;stroke-opacity:1" />
    <g id="g3262" transform="matrix(1.7215322,0,0,1.7215322,379.65241,-54.538119)">
      <g word-spacing="normal" letter-spacing="normal" font-size-adjust="none" font-stretch="normal" font-weight="normal" font-variant="normal" font-style="normal" stroke-miterlimit="10.433" xml:space="preserve" transform="matrix(1.0629921,0,0,-1.0629921,-186.02362,789.27165)" id="g3264" style="font-style:normal;font-variant:normal;font-weight:normal;font-stretch:normal;letter-spacing:normal;word-spacing:normal;text-anchor:start;fill:none;stroke:#000000;stroke-linecap:butt;stroke-linejoin:miter;stroke-miterlimit:10.43299961;stroke-dasharray:none;stroke-dashoffset:0;stroke-opacity:1"><path id="path3266" d="m 151.95,665 -1.83,-0.28 0.03,-0.17 c 0.09,0.01 0.23,0.04 0.31,0.04 0.27,0 0.36,-0.12 0.36,-0.26 0,-0.03 0,-0.13 -0.03,-0.28 l -1.49,-5.92 c -0.03,-0.11 -0.07,-0.29 -0.07,-0.43 0,-0.28 0.11,-0.57 0.45,-0.57 0.69,0 1.19,0.76 1.58,1.21 l -0.19,0.14 c -0.11,-0.18 -0.45,-0.64 -0.72,-0.64 -0.09,0 -0.14,0.08 -0.14,0.16 0,0.08 0.02,0.13 0.02,0.13 z" style="fill:#000000;stroke-width:0" /></g>    </g>
    <g id="g3418" transform="matrix(1.6260084,0,0,1.6260084,479.44515,-2.4821238)">
      <g id="g3420" transform="matrix(1.0629921,0,0,-1.0629921,-186.02362,789.27165)" xml:space="preserve" stroke-miterlimit="10.433" font-style="normal" font-variant="normal" font-weight="normal" font-stretch="normal" font-size-adjust="none" letter-spacing="normal" word-spacing="normal" style="font-style:normal;font-variant:normal;font-weight:normal;font-stretch:normal;letter-spacing:normal;word-spacing:normal;text-anchor:start;fill:none;stroke:#000000;stroke-linecap:butt;stroke-linejoin:miter;stroke-miterlimit:10.43299961;stroke-dasharray:none;stroke-dashoffset:0;stroke-opacity:1"><path d="m 156.48,659.44 -0.19,0 c -0.06,-0.16 -0.13,-0.3 -0.2,-0.42 -0.54,-1.08 -1.13,-1.35 -2.32,-1.35 l -1.42,0 c -0.14,0 -0.45,0.03 -0.45,0.28 0,0.03 0,0.19 0.05,0.36 l 1.42,5.6 c 0.11,0.42 0.34,0.73 1.22,0.73 l 0.21,0 0.04,0.17 -3.8,0 -0.05,-0.17 0.22,0 c 0.72,0 0.88,-0.22 0.88,-0.44 0,-0.11 -0.04,-0.34 -0.08,-0.51 l -1.38,-5.55 c -0.09,-0.39 -0.36,-0.72 -1.23,-0.72 l -0.2,0 -0.05,-0.19 6.61,0 z" id="path3422" style="fill:#000000;stroke-width:0" /></g>    </g>
    <g id="g3580" transform="matrix(1.4498173,0,0,1.4498173,399.20682,-21.895225)">
      <g word-spacing="normal" letter-spacing="normal" font-size-adjust="none" font-stretch="normal" font-weight="normal" font-variant="normal" font-style="normal" stroke-miterlimit="10.433" xml:space="preserve" transform="matrix(1.0629921,0,0,-1.0629921,-186.02362,789.27165)" id="g3582" style="font-style:normal;font-variant:normal;font-weight:normal;font-stretch:normal;letter-spacing:normal;word-spacing:normal;text-anchor:start;fill:none;stroke:#000000;stroke-linecap:butt;stroke-linejoin:miter;stroke-miterlimit:10.43299961;stroke-dasharray:none;stroke-dashoffset:0;stroke-opacity:1"><path id="path3584" d="m 154.21,662.72 0,0.14 -0.01,0.14 -0.01,0.13 -0.01,0.13 -0.01,0.12 -0.02,0.12 -0.03,0.12 -0.02,0.11 -0.03,0.1 -0.03,0.1 -0.04,0.1 -0.04,0.09 -0.04,0.09 -0.04,0.08 -0.05,0.08 -0.04,0.07 -0.06,0.07 -0.05,0.06 -0.06,0.06 -0.05,0.06 -0.06,0.05 -0.07,0.04 -0.06,0.04 -0.07,0.04 -0.06,0.03 -0.07,0.03 -0.07,0.03 -0.08,0.02 -0.07,0.01 -0.08,0.01 -0.07,0.01 -0.08,0 -0.08,-0.34 c 0.47,0 0.59,-0.66 0.59,-1.5 0,-0.47 -0.12,-1.11 -0.29,-1.93 l -2.4,0 c 0.32,1.38 1.25,3.43 2.1,3.43 l 0.08,0.34 c -2.21,0 -3.55,-3.8 -3.55,-5.81 0,-1.39 0.48,-2.08 1.59,-2.08 l 0.05,0.33 c -0.5,0 -0.67,0.65 -0.67,1.45 0,0.56 0.11,1.34 0.3,1.92 l 2.4,0 c -0.05,-0.11 -0.11,-0.43 -0.19,-0.7 -0.36,-1.14 -1.06,-2.67 -1.84,-2.67 l -0.05,-0.33 c 1.78,0 3.44,3.33 3.44,5.61 z" style="fill:#000000;stroke-width:0" /></g>    </g>
    <g id="g3748" transform="matrix(1.7215322,0,0,1.7215322,400.45327,-21.614038)">
      <g id="g3750" transform="matrix(1.0629921,0,0,-1.0629921,-186.02362,789.27165)" xml:space="preserve" stroke-miterlimit="10.433" font-style="normal" font-variant="normal" font-weight="normal" font-stretch="normal" font-size-adjust="none" letter-spacing="normal" word-spacing="normal" style="font-style:normal;font-variant:normal;font-weight:normal;font-stretch:normal;letter-spacing:normal;word-spacing:normal;text-anchor:start;fill:none;stroke:#000000;stroke-linecap:butt;stroke-linejoin:miter;stroke-miterlimit:10.43299961;stroke-dasharray:none;stroke-dashoffset:0;stroke-opacity:1"><path d="m 150.74,660.33 0.53,2.03 -1.81,-0.27 0.02,-0.17 c 0.07,0 0.23,0.03 0.31,0.03 0.25,0 0.39,-0.07 0.39,-0.22 0,-0.06 -0.02,-0.14 -0.05,-0.26 l -1.08,-4.24 0.91,0 0.24,0.88 c 0.06,0.2 1.07,3.17 1.78,3.17 0.2,0 0.09,-0.44 0.54,-0.44 0.47,0 0.75,0.52 0.75,0.96 0,0.31 -0.17,0.56 -0.51,0.56 -0.63,0 -1.19,-0.77 -1.58,-1.39 -0.14,-0.2 -0.28,-0.44 -0.38,-0.64 z" id="path3752" style="fill:#000000;stroke-width:0" /></g>    </g>
    <g id="g3922" transform="matrix(1.7215322,0,0,1.7215322,331.18717,25.91676)">
      <g word-spacing="normal" letter-spacing="normal" font-size-adjust="none" font-stretch="normal" font-weight="normal" font-variant="normal" font-style="normal" stroke-miterlimit="10.433" xml:space="preserve" transform="matrix(1.0629921,0,0,-1.0629921,-186.02362,789.27165)" id="g3924" style="font-style:normal;font-variant:normal;font-weight:normal;font-stretch:normal;letter-spacing:normal;word-spacing:normal;text-anchor:start;fill:none;stroke:#000000;stroke-linecap:butt;stroke-linejoin:miter;stroke-miterlimit:10.43299961;stroke-dasharray:none;stroke-dashoffset:0;stroke-opacity:1"><path id="path3926" d="m 153.24,662.36 -0.19,0 c -0.09,-0.13 -0.21,-0.23 -0.34,-0.23 -0.34,0 -0.58,0.23 -1.08,0.23 -0.64,0 -1.31,-0.33 -1.31,-1.25 0,-1.14 1.5,-1.72 1.5,-2.67 0,-0.46 -0.16,-1.03 -0.84,-1.03 -0.74,0 -1.21,0.78 -1.21,1.51 l -0.18,0 -0.3,-1.81 0.2,0 c 0.14,0.19 0.24,0.23 0.35,0.23 0.14,0 0.89,-0.21 1.28,-0.21 1.01,0 1.56,0.71 1.56,1.43 0,1.11 -1.55,2.17 -1.55,2.82 0,0.48 0.3,0.67 0.6,0.67 0.64,0 1.06,-0.64 1.06,-1.39 l 0.17,0 z" style="fill:#000000;stroke-width:0" /></g>    </g>
    <g id="g4102" transform="matrix(1.7215322,0,0,1.7215322,422.33028,38.580907)">
      <g id="g4104" transform="matrix(1.0629921,0,0,-1.0629921,-186.02362,789.27165)" xml:space="preserve" stroke-miterlimit="10.433" font-style="normal" font-variant="normal" font-weight="normal" font-stretch="normal" font-size-adjust="none" letter-spacing="normal" word-spacing="normal" style="font-style:normal;font-variant:normal;font-weight:normal;font-stretch:normal;letter-spacing:normal;word-spacing:normal;text-anchor:start;fill:none;stroke:#000000;stroke-linecap:butt;stroke-linejoin:miter;stroke-miterlimit:10.43299961;stroke-dasharray:none;stroke-dashoffset:0;stroke-opacity:1"><path d="m 154.9,658.59 -0.05,-0.06 -0.05,-0.06 -0.05,-0.05 -0.05,-0.05 -0.04,-0.05 -0.05,-0.05 -0.04,-0.04 -0.04,-0.04 -0.04,-0.04 -0.04,-0.03 -0.04,-0.04 -0.03,-0.03 -0.04,-0.03 -0.03,-0.02 -0.03,-0.03 -0.03,-0.02 -0.03,-0.02 -0.03,-0.02 -0.03,-0.01 -0.03,-0.02 -0.02,-0.01 -0.03,-0.01 -0.02,-0.01 -0.03,-0.01 -0.02,-0.01 -0.02,0 -0.02,-0.01 -0.02,0 -0.02,0 -0.02,-0.01 -0.04,0 c -0.11,0 -0.16,0.08 -0.16,0.21 0,0.15 0.08,0.43 0.14,0.64 l 0.58,2.07 c 0.09,0.32 0.14,0.6 0.14,0.83 0,0.67 -0.33,1.02 -1.03,1.02 -0.69,0 -1.56,-0.6 -2.55,-2.49 l 0,0 1.39,5.05 -0.09,0.03 c -0.44,-0.17 -0.84,-0.31 -1.81,-0.51 l 0,-0.18 c 0.34,0 0.65,-0.03 0.65,-0.26 0,-0.08 0,-0.19 -0.04,-0.33 l -1.83,-6.66 0.97,0 c 0.51,1.82 0.76,2.43 1.28,3.18 0.64,0.93 1.25,1.54 1.62,1.54 0.35,0 0.44,-0.22 0.44,-0.51 0,-0.22 -0.06,-0.55 -0.11,-0.72 l -0.47,-1.67 c -0.14,-0.5 -0.28,-1.05 -0.28,-1.28 0,-0.43 0.24,-0.64 0.63,-0.64 0.42,0 1.01,0.31 1.7,1.34 z" id="path4106" style="fill:#000000;stroke-width:0" /></g>    </g>
    <g id="g4288" transform="matrix(1.6260084,0,0,1.6260084,366.30628,94.463168)">
      <g word-spacing="normal" letter-spacing="normal" font-size-adjust="none" font-stretch="normal" font-weight="normal" font-variant="normal" font-style="normal" stroke-miterlimit="10.433" xml:space="preserve" transform="matrix(1.0629921,0,0,-1.0629921,-186.02362,789.27165)" id="g4290" style="font-style:normal;font-variant:normal;font-weight:normal;font-stretch:normal;letter-spacing:normal;word-spacing:normal;text-anchor:start;fill:none;stroke:#000000;stroke-linecap:butt;stroke-linejoin:miter;stroke-miterlimit:10.43299961;stroke-dasharray:none;stroke-dashoffset:0;stroke-opacity:1"><path id="path4292" d="m 157.13,657.42 -0.06,0.01 -0.06,0.01 -0.05,0.01 -0.06,0.01 -0.05,0.02 -0.05,0.02 -0.05,0.02 -0.05,0.02 -0.04,0.02 -0.05,0.03 -0.04,0.03 -0.04,0.03 -0.04,0.03 -0.04,0.03 -0.04,0.03 -0.03,0.04 -0.04,0.03 -0.03,0.04 -0.03,0.03 -0.04,0.04 -0.03,0.04 -0.02,0.04 -0.03,0.04 -0.03,0.04 -0.05,0.09 -0.05,0.08 -0.04,0.09 -0.04,0.08 -1.33,2.66 c 1.23,0.25 2.06,1.01 2.06,1.98 0,0.99 -0.66,1.75 -2.52,1.75 l -3.14,0 -0.04,-0.17 0.23,0 c 0.69,0 0.89,-0.19 0.89,-0.44 0,-0.09 -0.03,-0.2 -0.06,-0.29 l -1.44,-5.77 c -0.11,-0.39 -0.33,-0.72 -1.22,-0.72 l -0.18,0 -0.05,-0.19 3.78,0 0.05,0.19 -0.22,0 c -0.67,0 -0.89,0.17 -0.89,0.46 0,0.09 0.01,0.17 0.03,0.26 l 0.73,2.78 c 0.16,-0.03 0.27,-0.04 0.44,-0.04 l 0.03,0.4 c -0.11,0 -0.22,0.02 -0.37,0.05 l 0.75,3.03 c 0.12,0.02 0.23,0.03 0.39,0.03 0.73,0 1.45,-0.2 1.45,-1.45 0,-0.97 -0.67,-1.66 -2.22,-1.66 l -0.03,-0.4 c 0.09,0 0.22,0 0.33,0.01 l 1.75,-3.66 1.95,0 z" style="fill:#000000;stroke-width:0" /></g>    </g>
    <path d="m 472.46652,244.23812 a 99.451118,24.490829 0 0 1 -44.96,22.73687 99.451118,24.490829 0 0 1 -102.63917,0.82386 99.451118,24.490829 0 0 1 -50.87705,-21.9676" id="path2985-4" style="fill:none;stroke:#000000;stroke-width:0.99949706;stroke-miterlimit:4;stroke-dasharray:none;stroke-dashoffset:0;stroke-opacity:1" />
    <path id="path3755-3" d="M 274.08001,245.19881 372.90617,70.672947" style="fill:none;stroke:#000000;stroke-width:0.99949718;stroke-linecap:butt;stroke-linejoin:miter;stroke-miterlimit:4;stroke-dasharray:none;stroke-opacity:1" />
    <path id="path3755-1-1" d="M 472.65042,244.78108 372.973,69.950036" style="fill:none;stroke:#000000;stroke-width:0.99949718;stroke-linecap:butt;stroke-linejoin:miter;stroke-miterlimit:4;stroke-dasharray:none;stroke-opacity:1" />
    <path id="path3775-2" d="m 373.41229,138.15261 0,107.42254" style="fill:none;stroke:#000000;stroke-width:0.99949718;stroke-linecap:butt;stroke-linejoin:miter;stroke-miterlimit:4;stroke-dasharray:none;stroke-opacity:1" />
    <path id="path3777-3" d="m 273.47458,245.48017 100.30189,0" style="fill:none;stroke:#000000;stroke-width:0.99864131;stroke-linecap:butt;stroke-linejoin:miter;stroke-miterlimit:4;stroke-dasharray:none;stroke-opacity:1" />
    <path d="M 274.65213,243.71434 A 99.451118,24.490829 0 0 1 371.42687,222.10715 99.451118,24.490829 0 0 1 471.62965,242.745" id="path2985-7-3" style="fill:none;stroke:#000000;stroke-width:0.99947047;stroke-miterlimit:4;stroke-dasharray:1.99894106, 5.99682319;stroke-dashoffset:0;stroke-opacity:1" />
    <path transform="scale(-1,-1)" d="m -372.72714,-93.625982 a 21.800802,21.800802 0 0 1 10.68959,2.8006" id="path3811-4" style="fill:none;stroke:#000000;stroke-width:1.27171338;stroke-miterlimit:4;stroke-dasharray:none;stroke-dashoffset:0;stroke-opacity:1" />
    <rect y="235.53389" x="363.49161" height="10.080173" width="10.080173" id="rect4857-3" style="fill:none;stroke:#000000;stroke-width:0.6335395;stroke-miterlimit:4;stroke-dasharray:none;stroke-dashoffset:0;stroke-opacity:1" />
    <path d="m 411.74602,138.0852 a 38.470337,9.4737053 0 0 1 -17.66804,8.6885 38.470337,9.4737053 0 0 1 -39.4412,0.28709 38.470337,9.4737053 0 0 1 -19.72109,-8.41635" id="path2985-74-8" style="fill:none;stroke:#000000;stroke-width:0.99949706;stroke-miterlimit:4;stroke-dasharray:none;stroke-dashoffset:0;stroke-opacity:1" />
    <path id="path3777-9-7" d="m 335.56234,138.10762 38.32521,0" style="fill:none;stroke:#000000;stroke-width:0.99684858;stroke-linecap:butt;stroke-linejoin:miter;stroke-miterlimit:4;stroke-dasharray:none;stroke-opacity:1" />
    <path id="path3755-1-5-4" d="M 479.5858,239.61651 383.14226,70.171313" style="fill:none;stroke:#000000;stroke-width:0.99951994;stroke-linecap:butt;stroke-linejoin:miter;stroke-miterlimit:4;stroke-dasharray:none;stroke-opacity:1;marker-start:url(#TriangleInM);marker-end:url(#TriangleOutM)" />
    <path id="path3755-1-5-5-2" d="M 325.21347,132.99823 361.9234,68.501221" style="fill:none;stroke:#000000;stroke-width:0.99949718;stroke-linecap:butt;stroke-linejoin:miter;stroke-miterlimit:4;stroke-dasharray:none;stroke-opacity:1;marker-start:url(#TriangleInM);marker-end:url(#TriangleOutM)" />
    <path id="path3775-9-9" d="m 373.19832,72.572928 0,65.897562" style="fill:none;stroke:#000000;stroke-width:0.99949718;stroke-linecap:butt;stroke-linejoin:miter;stroke-miterlimit:4;stroke-dasharray:1.99899423, 3.99798846;stroke-dashoffset:0;stroke-opacity:1" />
    <g style="font-style:normal;font-variant:normal;font-weight:normal;font-stretch:normal;letter-spacing:normal;word-spacing:normal;text-anchor:start;fill:none;fill-opacity:1;fill-rule:evenodd;stroke:#000000;stroke-linecap:butt;stroke-linejoin:miter;stroke-miterlimit:10.43299961;stroke-dasharray:none;stroke-dashoffset:0;stroke-opacity:1" id="content" transform="matrix(1.5966771,0,0,-1.5966771,144.2127,926.36827)" xml:space="preserve" stroke-miterlimit="10.433" font-style="normal" font-variant="normal" font-weight="normal" font-stretch="normal" font-size-adjust="none" letter-spacing="normal" word-spacing="normal" ns0:text="$H$" ns0:preamble="/Users/jdg18/CMEP/Miscellaneous/underground-inkscape-preamble.tex"><path style="fill:#000000;stroke-width:0" d="m 234.36,484.94 -3.9,0 -0.05,-0.18 0.24,0 c 0.67,0 0.89,-0.18 0.89,-0.46 0,-0.09 -0.02,-0.17 -0.04,-0.29 l -0.63,-2.56 -3.29,0 0.61,2.56 c 0.1,0.41 0.31,0.75 1.25,0.75 l 0.21,0 0.05,0.18 -3.91,0 -0.05,-0.18 0.24,0 c 0.73,0 0.92,-0.22 0.92,-0.46 0,-0.09 -0.02,-0.22 -0.05,-0.29 l -1.45,-5.85 c -0.1,-0.41 -0.37,-0.74 -1.26,-0.74 l -0.21,0 -0.05,-0.19 3.91,0 0.05,0.19 -0.24,0 c -0.7,0 -0.91,0.17 -0.91,0.45 0,0.1 0.02,0.21 0.05,0.29 l 0.72,2.85 3.31,0 -0.72,-2.85 c -0.1,-0.44 -0.39,-0.74 -1.24,-0.74 l -0.21,0 -0.05,-0.19 3.9,0 0.04,0.19 -0.22,0 c -0.7,0 -0.93,0.16 -0.93,0.41 0,0.11 0.03,0.22 0.05,0.33 l 1.46,5.85 c 0.11,0.41 0.35,0.75 1.25,0.75 l 0.22,0 z" id="path4536" /></g>    <path id="path3755-1-5-5-2-1" d="M 268.00491,238.54501 325.19802,138.0603" style="fill:none;stroke:#000000;stroke-width:0.99951994;stroke-linecap:butt;stroke-linejoin:miter;stroke-miterlimit:4;stroke-dasharray:none;stroke-opacity:1;marker-start:url(#TriangleInM-9);marker-end:url(#TriangleOutM-4)" />
    <path id="path3755-1-5-4-3" d="m 497.00854,243.69287 5e-4,-171.532515" style="fill:none;stroke:#000000;stroke-width:0.99949718;stroke-linecap:butt;stroke-linejoin:miter;stroke-miterlimit:4;stroke-dasharray:none;stroke-opacity:1;marker-start:url(#TriangleInM-60);marker-end:url(#TriangleOutM-0)" />
    <path id="path4685" d="m 373.22642,70.024252 141.39647,0" style="fill:none;fill-rule:evenodd;stroke:#000000;stroke-width:0.53222573;stroke-linecap:butt;stroke-linejoin:miter;stroke-miterlimit:4;stroke-dasharray:1.06445139, 2.12890276;stroke-dashoffset:0;stroke-opacity:1" />
    <path id="path4685-2" d="m 373.22642,245.71338 141.39647,0" style="fill:none;fill-rule:evenodd;stroke:#000000;stroke-width:0.53222573;stroke-linecap:butt;stroke-linejoin:miter;stroke-miterlimit:4;stroke-dasharray:1.06445139, 2.12890276;stroke-dashoffset:0;stroke-opacity:1" />
    <path d="m 335.26039,137.51536 a 38.470337,9.4737053 0 0 1 12.96363,-5.89415" id="path2985-74-8-4" style="fill:none;stroke:#000000;stroke-width:0.99949706;stroke-miterlimit:4;stroke-dasharray:1.99899416, 3.99798831;stroke-dashoffset:0;stroke-opacity:1" />
    <path d="m 364.41738,129.5755 a 38.470337,9.4737053 0 0 1 31.63858,1.55961 38.470337,9.4737053 0 0 1 15.68804,6.94346" id="path2985-74-8-4-0" style="fill:none;stroke:#000000;stroke-width:0.99949706;stroke-miterlimit:4;stroke-dasharray:1.99899416, 3.99798831;stroke-dashoffset:0;stroke-opacity:1" />
  </g>
</svg>