<?xml version='1.0' ?><svg xmlns:dc="http://purl.org/dc/elements/1.1/" xmlns:cc="http://creativecommons.org/ns#" xmlns:rdf="http://www.w3.org/1999/02/22-rdf-syntax-ns#" xmlns:svg="http://www.w3.org/2000/svg" xmlns="http://www.w3.org/2000/svg" version="1.1" id="svg2" width="200.20071" height="129.21404" viewBox="266.33114 85.336765 200.20071 129.21404" preserveAspectRatio="none">
  <defs id="defs4" />
  <metadata id="metadata7">
    <rdf:RDF>
      <cc:Work rdf:about="">
        <dc:format>image/svg+xml</dc:format>
        <dc:type rdf:resource="http://purl.org/dc/dcmitype/StillImage" />
        <dc:title />
      </cc:Work>
    </rdf:RDF>
  </metadata>
  <g id="layer1">
    <g id="g7183">
      <path style="fill:none;stroke:#000000;stroke-width:1.5;stroke-miterlimit:4;stroke-opacity:1;stroke-dasharray:none;stroke-dashoffset:0" id="path3020" d="m 179.37448,336.1462 a 277.79196,277.79196 0 0 1 500.16145,0.58054 L 429.31482,457.38232 z" transform="matrix(0.39867524,0,0,-0.39867524,195.2185,268.01591)" />
      <path transform="matrix(0.10192156,0,0,0.10192156,326.08642,62.890104)" d="m 492.5831,268.63995 a 115.15739,115.15739 0 0 1 -205.66293,7.37572" id="path7193" style="fill:none;stroke:#000000;stroke-width:5.48350191;stroke-miterlimit:4;stroke-opacity:1;stroke-dasharray:none" />
      <g id="g6630" transform="matrix(1.7897296,0,0,1.7897296,471.78441,-55.416572)">
        <g word-spacing="normal" letter-spacing="normal" font-size-adjust="none" font-stretch="normal" font-weight="normal" font-variant="normal" font-style="normal" stroke-miterlimit="10.433" xml:space="preserve" transform="matrix(1.0629921,0,0,-1.0629921,-186.02362,789.27165)" id="g6632" style="font-style:normal;font-variant:normal;font-weight:normal;font-stretch:normal;letter-spacing:normal;word-spacing:normal;text-anchor:start;fill:none;stroke:#000000;stroke-linecap:butt;stroke-linejoin:miter;stroke-miterlimit:10.43299961;stroke-opacity:1;stroke-dasharray:none;stroke-dashoffset:0"><path id="path6634" d="m 151.95,665 -1.83,-0.28 0.03,-0.17 c 0.09,0.01 0.23,0.04 0.31,0.04 0.27,0 0.36,-0.12 0.36,-0.26 0,-0.03 0,-0.13 -0.03,-0.28 l -1.49,-5.92 c -0.03,-0.11 -0.07,-0.29 -0.07,-0.43 0,-0.28 0.11,-0.57 0.45,-0.57 0.69,0 1.19,0.76 1.58,1.21 l -0.19,0.14 c -0.11,-0.18 -0.45,-0.64 -0.72,-0.64 -0.09,0 -0.14,0.08 -0.14,0.16 0,0.08 0.02,0.13 0.02,0.13 z" style="fill:#000000;stroke-width:0" /></g>      </g>
      <g id="g6838" transform="matrix(1.5401168,0,0,1.5401168,400.82628,-26.102992)">
        <g id="g6840" transform="matrix(1.0629921,0,0,-1.0629921,-186.02362,789.27165)" xml:space="preserve" stroke-miterlimit="10.433" font-style="normal" font-variant="normal" font-weight="normal" font-stretch="normal" font-size-adjust="none" letter-spacing="normal" word-spacing="normal" style="font-style:normal;font-variant:normal;font-weight:normal;font-stretch:normal;letter-spacing:normal;word-spacing:normal;text-anchor:start;fill:none;stroke:#000000;stroke-linecap:butt;stroke-linejoin:miter;stroke-miterlimit:10.43299961;stroke-opacity:1;stroke-dasharray:none;stroke-dashoffset:0"><path d="m 154.29,665 h -0.95 c -0.19,-0.89 -0.39,-1.77 -0.63,-2.66 l -0.06,-0.32 -1.16,-4.57 c -0.81,0 -1.34,0.89 -1.34,1.61 0,1.39 0.98,2.96 2.5,2.96 l 0.06,0.32 h -0.17 c -0.94,0 -1.74,-0.31 -2.39,-0.96 -0.61,-0.65 -0.97,-1.41 -0.97,-2.29 0,-1.34 0.95,-1.98 2.22,-1.98 l -0.53,-2 h 0.93 l 0.55,2 c 1.02,0 1.94,0.31 2.63,1.06 0.62,0.67 0.93,1.47 0.93,2.38 0,1.36 -1.07,1.79 -2.26,1.79 l -0.08,-0.32 c 0.98,0 1.36,-0.61 1.36,-1.54 0,-1.28 -1.08,-3.03 -2.48,-3.03 l 1.12,4.57 0.08,0.32 z" id="path6842" style="fill:#000000;stroke-width:0" /></g>      </g>
      <g id="g7052" transform="matrix(1.7897296,0,0,1.7897296,398.7487,52.041919)">
        <g word-spacing="normal" letter-spacing="normal" font-size-adjust="none" font-stretch="normal" font-weight="normal" font-variant="normal" font-style="normal" stroke-miterlimit="10.433" xml:space="preserve" transform="matrix(1.0629921,0,0,-1.0629921,-186.02362,789.27165)" id="g7054" style="font-style:normal;font-variant:normal;font-weight:normal;font-stretch:normal;letter-spacing:normal;word-spacing:normal;text-anchor:start;fill:none;stroke:#000000;stroke-linecap:butt;stroke-linejoin:miter;stroke-miterlimit:10.43299961;stroke-opacity:1;stroke-dasharray:none;stroke-dashoffset:0"><path id="path7056" d="m 154.21,658.83 -0.16,0.06 c -0.39,-0.64 -0.62,-0.78 -1.1,-0.78 h -2.72 l 1.9,2.05 c 1.03,1.09 1.49,1.97 1.49,2.89 0,1.14 -0.83,2.04 -2.14,2.04 -1.44,0 -2.18,-0.95 -2.43,-2.31 l 0.25,-0.06 c 0.47,1.14 0.88,1.5 1.71,1.5 0.98,0 1.62,-0.58 1.62,-1.63 0,-1 -0.42,-1.87 -1.51,-3.03 l -2.07,-2.18 v -0.15 h 4.54 z" style="fill:#000000;stroke-width:0" /><path id="path7058" d="m 161.09,662.2 h -3.27 c -1.22,0 -1.95,-0.53 -2.47,-1.47 h 0.19 c 0.52,0.63 0.94,0.63 1.61,0.63 l -1.03,-2.39 c -0.16,-0.34 -0.36,-0.67 -0.86,-0.81 -0.3,-0.08 -0.36,-0.39 -0.36,-0.57 0,-0.28 0.3,-0.51 0.6,-0.51 0.14,0 0.31,0.03 0.43,0.14 0.99,0.72 1.35,2.72 1.88,4.14 h 1.09 c -0.3,-0.98 -0.64,-1.8 -0.9,-2.61 -0.08,-0.22 -0.11,-0.45 -0.11,-0.72 0,-0.45 0.2,-0.87 0.65,-0.87 0.81,0 1.44,0.81 1.67,1.64 h -0.17 c -0.28,-0.63 -0.61,-0.77 -0.86,-0.77 -0.25,0 -0.43,0.3 -0.43,0.56 0,0.79 0.6,2.27 0.78,2.77 h 1.29 z" style="fill:#000000;stroke-width:0" /><path id="path7060" d="m 163.56,660.33 0.53,2.03 -1.81,-0.27 0.02,-0.17 c 0.08,0 0.23,0.03 0.31,0.03 0.25,0 0.39,-0.07 0.39,-0.22 0,-0.06 -0.02,-0.14 -0.05,-0.26 l -1.07,-4.24 h 0.9 l 0.24,0.88 c 0.06,0.2 1.07,3.17 1.78,3.17 0.2,0 0.09,-0.44 0.54,-0.44 0.47,0 0.75,0.52 0.75,0.96 0,0.31 -0.17,0.56 -0.51,0.56 -0.63,0 -1.19,-0.77 -1.58,-1.39 -0.14,-0.2 -0.28,-0.44 -0.37,-0.64 z" style="fill:#000000;stroke-width:0" /></g>      </g>
    </g>
  </g>
</svg>