<?xml version='1.0' ?><svg xmlns:dc="http://purl.org/dc/elements/1.1/" xmlns:cc="http://creativecommons.org/ns#" xmlns:rdf="http://www.w3.org/1999/02/22-rdf-syntax-ns#" xmlns:svg="http://www.w3.org/2000/svg" xmlns="http://www.w3.org/2000/svg" id="svg2" version="1.1" width="246.81818" height="159.20455" viewBox="0.0 0.1666605629333333 723.9999946666667 467.00001333333336" preserveAspectRatio="none">
  <g stroke-linejoin="miter" stroke-dashoffset="0.0000" stroke-dasharray="none" stroke-width="1.0000" stroke-miterlimit="10.000" stroke-linecap="square" id="g6">
    <clipPath id="clip1">
      <path d="M 0.0000 0.0000 L 0.0000 467.00 L 726.00 467.00 L 726.00 0.0000 z" id="path9" />
    </clipPath>
    <g clip-path="url(#clip1)" id="g11">
      <g stroke-width="2.0000" stroke-linecap="butt" fill="none" stroke-opacity="1.0000" stroke="#000000" id="g13">
        <path d="M 367.14 3.0000 L 367.14 467.00" id="path15" />
      </g>
    </g>
    <clipPath id="clip2">
      <path d="M 0.0000 0.0000 L 0.0000 467.00 L 726.00 467.00 L 726.00 0.0000 z" id="path18" />
    </clipPath>
    <g clip-path="url(#clip2)" id="g20">
      <g fill-opacity="1.0000" fill-rule="evenodd" stroke="none" fill="#000000" id="g22">
        <path d="M 367.14 2.0000 L 362.14 22.000 L 372.14 22.000" id="path24" />
      </g>
    </g>
    <clipPath id="clip3">
      <path d="M 0.0000 0.0000 L 0.0000 467.00 L 726.00 467.00 L 726.00 0.0000 z" id="path27" />
    </clipPath>
    <g clip-path="url(#clip3)" id="g29">
      <g stroke-width="2.0000" stroke-linecap="butt" fill="none" stroke-opacity="1.0000" stroke="#000000" id="g31">
        <path d="M 0.0000 404.36 L 723.00 404.36" id="path33" />
      </g>
    </g>
    <clipPath id="clip4">
      <path d="M 0.0000 0.0000 L 0.0000 467.00 L 726.00 467.00 L 726.00 0.0000 z" id="path36" />
    </clipPath>
    <g clip-path="url(#clip4)" id="g38">
      <g fill-opacity="1.0000" fill-rule="evenodd" stroke="none" fill="#000000" id="g40">
        <path d="M 724.00 404.36 L 704.00 399.36 L 704.00 409.36" id="path42" />
      </g>
    </g>
    <g id="misc" />
    <g id="layer0">
      <clipPath id="clip5">
        <path d="M 0.0000 0.0000 L 0.0000 467.00 L 726.00 467.00 L 726.00 0.0000 z" id="path47" />
      </clipPath>
      <g clip-path="url(#clip5)" id="g49">
        <g stroke-linejoin="round" stroke-width="2.5000" stroke-linecap="round" fill="none" stroke-opacity="1.0000" stroke="#000000" id="g51">
          <path d="M 0.0000 401.32 L 5.6719 401.32 L 11.344 401.31 L 17.016 401.30 L 22.688 401.29 L 28.359 401.29 L 34.031 401.28 L 39.703 401.26 L 45.375 401.25 L 51.047 401.24 L 56.719 401.22 L 62.391 401.20 L 68.062 401.18 L 73.734 401.16 L 79.406 401.13 L 85.078 401.10 L 90.750 401.07 L 96.422 401.03 L 102.09 400.98 L 107.77 400.93 L 113.44 400.87 L 119.11 400.81 L 124.78 400.73 L 130.45 400.65 L 136.12 400.55 L 141.80 400.44 L 147.47 400.32 L 153.14 400.18 L 158.81 400.02 L 164.48 399.84 L 170.16 399.64 L 175.83 399.41 L 181.50 399.14 L 187.17 398.84 L 192.84 398.51 L 198.52 398.12 L 204.19 397.69 L 209.86 397.19 L 215.53 396.63 L 221.20 396.00 L 226.88 395.28 L 232.55 394.46 L 238.22 393.53 L 243.89 392.48 L 249.56 391.28 L 255.23 389.93 L 260.91 388.39 L 266.58 386.65 L 272.25 384.67 L 277.92 382.43 L 283.59 379.88 L 289.27 376.99 L 294.94 373.72 L 300.61 370.00 L 306.28 365.79 L 311.95 361.00 L 317.62 355.58 L 323.30 349.42 L 328.97 342.44 L 334.64 334.52 L 340.31 325.53 L 343.15 320.59 L 345.98 315.33 L 348.82 309.73 L 351.66 303.77 L 354.49 297.41 L 357.33 290.65 L 360.16 283.44 L 363.00 275.76 L 365.84 267.58 L 368.67 258.87 L 371.51 249.60 L 374.34 239.71 L 375.76 234.54 L 377.18 229.19 L 378.60 223.67 L 380.02 217.98 L 381.43 212.11 L 382.85 206.04 L 384.27 199.78 L 385.69 193.33 L 387.11 186.66 L 388.52 179.78 L 389.94 172.68 L 391.36 165.36 L 392.78 157.79 L 394.20 149.99 L 395.61 141.94 L 397.03 133.62 L 398.45 125.05 L 399.87 116.19 L 401.29 107.06 L 402.70 97.628 L 404.12 87.896 L 404.83 82.914 L 405.54 77.853 L 406.25 72.711 L 406.96 67.488 L 407.67 62.182 L 408.38 56.791 L 409.08 51.314 L 409.79 45.751 L 410.50 40.099 L 411.21 34.357 L 411.92 28.524 L 412.63 22.599 L 413.34 16.579 L 414.05 10.463 L 414.76 4.2506 L 415.46 -2.0609 L 416.17 -8.4727" id="path53" />
          <title id="title55">Function r</title>
          <desc id="desc57">r(x) = Ã&#131;Â¢Ã&#130;Â&#132;Ã&#130;Â¯^(5x) + 0.02</desc>
        </g>
      </g>
    </g>
  </g>
  <metadata id="metadata63">
    <rdf:RDF>
      <cc:Work rdf:about="">
        <dc:format>image/svg+xml</dc:format>
        <dc:type rdf:resource="http://purl.org/dc/dcmitype/StillImage" />
      </cc:Work>
    </rdf:RDF>
  </metadata>
  <defs id="defs61" />
  <title id="title4" />
  <path id="path3427" d="m 350.36242,274.49368 0,-0.66083 c -3.26742,0 -4.14852,-0.77096 -4.14852,-2.6433 l 0,-25.88233 -0.36712,-0.14685 -7.78306,3.96495 0,0.5874 1.1748,-0.40384 c 0.77097,-0.33041 1.50522,-0.55068 1.94577,-0.55068 0.91781,0 1.32165,0.66082 1.32165,2.12932 l 0,19.45764 c 0,2.38632 -0.91782,3.30413 -4.14852,3.48769 l 0,0.66083 z" style="font-style:normal;font-variant:normal;font-weight:normal;font-stretch:normal;letter-spacing:normal;word-spacing:normal;text-anchor:start;fill:#000000;fill-opacity:1;fill-rule:evenodd;stroke:#000000;stroke-width:0;stroke-linecap:butt;stroke-linejoin:miter;stroke-miterlimit:10.43299961;stroke-dasharray:none;stroke-dashoffset:0;stroke-opacity:1" />
  <path id="path3429" d="m 690.74687,426.20387 -1.16643,-3.1105 c -0.68043,-1.89546 -1.74966,-4.27694 -4.27694,-5.63778 l -7.63045,1.89546 0.19441,1.02063 c 0.58322,-0.24301 1.40944,-0.34021 2.18707,-0.34021 3.1591,0 4.66575,2.33287 5.63778,5.10316 l 1.89546,5.29757 -3.74232,5.78359 c -1.84686,2.81889 -3.35351,3.40211 -4.03393,3.40211 -1.40945,0 -1.21504,-1.16644 -2.72169,-1.16644 -1.40944,0 -2.18707,1.21504 -2.18707,2.13847 0,1.26364 0.92343,2.67309 3.0133,2.67309 3.2077,0 4.90876,-2.47868 6.75562,-5.24897 l 3.59651,-5.63778 2.33288,6.46401 c 0.72902,2.08986 1.84686,4.42274 4.17973,4.42274 3.35351,0 5.92939,-5.49198 6.60982,-6.36681 l -0.77763,-0.58322 c -1.21504,2.47868 -2.62448,3.30491 -3.54791,3.30491 -2.57589,0 -3.88813,-7.77625 -5.63778,-11.32416 l 3.2077,-4.86016 c 0.77762,-1.26364 1.40944,-2.18707 3.1591,-2.18707 0.97203,0 1.26364,0.48601 2.52728,0.48601 1.45805,0 2.23567,-1.31224 2.23567,-2.38147 0,-1.21504 -0.97203,-1.89546 -2.81889,-1.89546 -2.86749,0 -4.90876,2.52728 -6.4154,4.81155 z" style="font-style:normal;font-variant:normal;font-weight:normal;font-stretch:normal;letter-spacing:normal;word-spacing:normal;text-anchor:start;fill:#000000;fill-opacity:1;fill-rule:evenodd;stroke:#000000;stroke-width:0;stroke-linecap:butt;stroke-linejoin:miter;stroke-miterlimit:10.43299961;stroke-dasharray:none;stroke-dashoffset:0;stroke-opacity:1" />
  <path id="path3431" d="m 334.18175,20.005717 -0.0508,-0.40656 -0.0508,-0.40656 -0.0508,-0.35575 -0.0508,-0.35574 -0.0508,-0.35574 -0.0508,-0.35575 -0.0508,-0.30492 -0.0508,-0.30492 -0.0508,-0.30492 -0.0508,-0.25411 -0.0508,-0.30492 -0.10164,-0.2541 -0.0508,-0.2541 -0.0508,-0.20328 -0.0508,-0.25411 -0.0508,-0.2541 -0.10164,-0.20328 -0.0508,-0.20328 -0.0508,-0.20328 -0.10165,-0.20329 -0.15246,-0.40656 -0.15246,-0.35574 -0.20328,-0.40657 -0.20328,-0.35574 -0.2541,-0.35574 -0.25411,-0.35575 -8.99522,1.52462 0.10164,0.91477 c 0.55903,-0.0508 1.52462,-0.20329 2.18528,-0.20329 3.35415,0 3.91318,3.60826 4.2181,6.30174 l 2.28692,18.80357 c -1.57543,2.43938 -5.03122,6.14927 -6.04763,6.14927 -0.96559,0 -0.81313,-1.88036 -3.40497,-1.88036 -0.81313,0 -2.43938,0.66067 -2.43938,2.49021 0,1.42297 1.16887,3.2525 3.40497,3.2525 4.06563,0 7.97881,-5.84435 12.40019,-11.38378 2.4902,-3.15086 12.24773,-17.58387 12.24773,-22.25935 0,-2.33774 -1.47379,-3.7099 -3.40497,-3.7099 -1.77872,0 -2.84594,1.06723 -2.84594,2.38857 0,2.28692 3.15086,2.89676 3.15086,4.16727 0,1.06723 -0.5082,2.28692 -1.72789,4.4722 -1.27051,2.4902 -3.40498,6.04764 -7.06405,11.07886 z" style="font-style:normal;font-variant:normal;font-weight:normal;font-stretch:normal;letter-spacing:normal;word-spacing:normal;text-anchor:start;fill:#000000;fill-opacity:1;fill-rule:evenodd;stroke:#000000;stroke-width:0;stroke-linecap:butt;stroke-linejoin:miter;stroke-miterlimit:10.43299961;stroke-dasharray:none;stroke-dashoffset:0;stroke-opacity:1" />
</svg>