<?xml version='1.0' ?><svg xmlns:dc="http://purl.org/dc/elements/1.1/" xmlns:cc="http://creativecommons.org/ns#" xmlns:rdf="http://www.w3.org/1999/02/22-rdf-syntax-ns#" xmlns:svg="http://www.w3.org/2000/svg" xmlns="http://www.w3.org/2000/svg" id="svg2" version="1.1" width="246.81818" height="159.20455" viewBox="0.0 0.1666605629333333 723.9999946666667 467.00001333333336" preserveAspectRatio="none">
  <metadata id="metadata63">
    <rdf:RDF>
      <cc:Work rdf:about="">
        <dc:format>image/svg+xml</dc:format>
        <dc:type rdf:resource="http://purl.org/dc/dcmitype/StillImage" />
      </cc:Work>
    </rdf:RDF>
  </metadata>
  <defs id="defs61" />
  <title id="title4" />
  <g stroke-linejoin="miter" stroke-dashoffset="0.0000" stroke-dasharray="none" stroke-width="1.0000" stroke-miterlimit="10.000" stroke-linecap="square" id="g6">
    <clipPath id="clip1">
      <path d="M 0.0000 0.0000 L 0.0000 467.00 L 726.00 467.00 L 726.00 0.0000 z" id="path9" />
    </clipPath>
    <g clip-path="url(#clip1)" id="g11">
      <g stroke-width="2.0000" stroke-linecap="butt" fill="none" stroke-opacity="1.0000" stroke="#000000" id="g13">
        <path d="M 363.36 3.0000 L 363.36 467.00" id="path15" />
      </g>
    </g>
    <clipPath id="clip2">
      <path d="M 0.0000 0.0000 L 0.0000 467.00 L 726.00 467.00 L 726.00 0.0000 z" id="path18" />
    </clipPath>
    <g clip-path="url(#clip2)" id="g20">
      <g fill-opacity="1.0000" fill-rule="evenodd" stroke="none" fill="#000000" id="g22">
        <path d="M 363.36 2.0000 L 358.36 22.000 L 368.36 22.000" id="path24" />
      </g>
    </g>
    <clipPath id="clip3">
      <path d="M 0.0000 0.0000 L 0.0000 467.00 L 726.00 467.00 L 726.00 0.0000 z" id="path27" />
    </clipPath>
    <g clip-path="url(#clip3)" id="g29">
      <g stroke-width="2.0000" stroke-linecap="butt" fill="none" stroke-opacity="1.0000" stroke="#000000" id="g31">
        <path d="M 0.0000 396.46 L 723.00 396.46" id="path33" />
      </g>
    </g>
    <clipPath id="clip4">
      <path d="M 0.0000 0.0000 L 0.0000 467.00 L 726.00 467.00 L 726.00 0.0000 z" id="path36" />
    </clipPath>
    <g clip-path="url(#clip4)" id="g38">
      <g fill-opacity="1.0000" fill-rule="evenodd" stroke="none" fill="#000000" id="g40">
        <path d="M 724.00 396.46 L 704.00 391.46 L 704.00 401.46" id="path42" />
      </g>
    </g>
    <g id="misc" />
    <g id="layer0">
      <clipPath id="clip5">
        <path d="M 0.0000 0.0000 L 0.0000 467.00 L 726.00 467.00 L 726.00 0.0000 z" id="path47" />
      </clipPath>
      <g clip-path="url(#clip5)" id="g49">
        <g stroke-linejoin="round" stroke-width="2.5000" stroke-linecap="round" fill="none" stroke-opacity="1.0000" stroke="#000000" id="g51">
          <path d="M 0.0000 385.58 L 5.6719 385.02 L 11.344 384.43 L 17.016 383.82 L 22.688 383.17 L 28.359 382.49 L 34.031 381.78 L 39.703 381.03 L 45.375 380.24 L 51.047 379.41 L 56.719 378.54 L 62.391 377.62 L 68.062 376.66 L 73.734 375.65 L 79.406 374.58 L 85.078 373.46 L 90.750 372.29 L 96.422 371.05 L 102.09 369.75 L 107.77 368.39 L 113.44 366.95 L 119.11 365.44 L 124.78 363.86 L 130.45 362.19 L 136.12 360.44 L 141.80 358.60 L 147.47 356.66 L 153.14 354.62 L 158.81 352.49 L 164.48 350.24 L 170.16 347.87 L 175.83 345.39 L 181.50 342.78 L 187.17 340.03 L 192.84 337.15 L 198.52 334.11 L 204.19 330.93 L 209.86 327.58 L 215.53 324.05 L 221.20 320.35 L 226.88 316.46 L 232.55 312.37 L 238.22 308.07 L 243.89 303.55 L 249.56 298.80 L 255.23 293.80 L 260.91 288.55 L 266.58 283.04 L 272.25 277.24 L 277.92 271.14 L 283.59 264.73 L 289.27 258.00 L 294.94 250.92 L 300.61 243.47 L 306.28 235.65 L 311.95 227.43 L 317.62 218.79 L 323.30 209.70 L 328.97 200.15 L 331.80 195.19 L 334.64 190.11 L 337.48 184.90 L 340.31 179.56 L 343.15 174.08 L 345.98 168.47 L 348.82 162.71 L 351.66 156.81 L 354.49 150.76 L 357.33 144.56 L 360.16 138.20 L 363.00 131.68 L 365.84 124.99 L 368.67 118.14 L 371.51 111.11 L 374.34 103.91 L 377.18 96.519 L 380.02 88.946 L 382.85 81.182 L 385.69 73.222 L 388.52 65.061 L 391.36 56.693 L 394.20 48.115 L 397.03 39.320 L 399.87 30.303 L 402.70 21.058 L 405.54 11.579 L 408.38 1.8619 L 411.21 -8.1010" id="path53" />
          <title id="title55">Function t</title>
          <desc id="desc57">t(x) = Ã&#131;Â¢Ã&#130;Â&#132;Ã&#130;Â¯^(x + 4)</desc>
        </g>
      </g>
    </g>
  </g>
  <path id="path3427" d="m 688.21194,415.91289 -1.11784,-3.1591 c -0.72903,-1.84686 -1.79826,-4.22834 -4.32554,-5.58918 l -7.58185,1.89546 0.14581,1.02064 c 0.58322,-0.24302 1.45805,-0.34023 2.18707,-0.34023 3.1591,0 4.66575,2.33288 5.63779,5.10317 l 1.89546,5.29758 -3.74232,5.78359 c -1.84686,2.81889 -3.30491,3.35351 -4.03394,3.35351 -1.40944,0 -1.21504,-1.11784 -2.67308,-1.11784 -1.45805,0 -2.18707,1.21503 -2.18707,2.13846 0,1.26366 0.92343,2.6731 2.96469,2.6731 3.25631,0 4.90876,-2.47868 6.75562,-5.29758 l 3.64512,-5.58918 2.28428,6.46401 c 0.72902,2.08988 1.84686,4.42275 4.17973,4.42275 3.35351,0 5.9294,-5.49197 6.65842,-6.36682 l -0.82622,-0.58321 c -1.21504,2.47868 -2.57589,3.25631 -3.49932,3.25631 -2.62449,0 -3.93673,-7.72765 -5.63778,-11.27558 l 3.1591,-4.86015 c 0.77763,-1.26364 1.40945,-2.18707 3.1591,-2.18707 0.97203,0 1.26365,0.48602 2.52729,0.48602 1.50664,0 2.23567,-1.31224 2.23567,-2.38148 0,-1.21503 -0.97203,-1.89546 -2.81889,-1.89546 -2.8675,0 -4.90876,2.52727 -6.36681,4.81154 z" style="font-style:normal;font-variant:normal;font-weight:normal;font-stretch:normal;letter-spacing:normal;word-spacing:normal;text-anchor:start;fill:#000000;fill-opacity:1;fill-rule:evenodd;stroke:#000000;stroke-width:0;stroke-linecap:butt;stroke-linejoin:miter;stroke-miterlimit:10.43299961;stroke-dasharray:none;stroke-dashoffset:0;stroke-opacity:1" />
  <path id="path3429" d="m 337.56076,16.664704 -0.0486,-0.38932 -0.0487,-0.38931 -0.0486,-0.34066 -0.0487,-0.34067 -0.0486,-0.34066 -0.0486,-0.34065 -0.0487,-0.29198 -0.0486,-0.29201 -0.0486,-0.29199 -0.0487,-0.24333 -0.0486,-0.29199 -0.0486,-0.24332 -0.0487,-0.24333 -0.0486,-0.24331 -0.0972,-0.19468 -0.0486,-0.24332 -0.0487,-0.19465 -0.0972,-0.19469 -0.0486,-0.19464 -0.0486,-0.19468 -0.19467,-0.38932 -0.14606,-0.34065 -0.19465,-0.38932 -0.19468,-0.3406701 -0.19465,-0.34066 -0.24333,-0.34065 -8.66244,1.4113001 0.0972,0.92465 c 0.53532,-0.0487 1.45997,-0.19468 2.09261,-0.19468 3.21192,0 3.74724,3.40659 4.03923,6.03452 l 2.18995,18.00619 c -1.50864,2.28727 -4.76921,5.8885 -5.74253,5.8885 -0.92464,0 -0.8273,-1.80061 -3.30925,-1.80061 -0.72996,0 -2.28727,0.63263 -2.28727,2.33593 0,1.41131 1.07065,3.16326 3.21192,3.16326 3.89324,0 7.64048,-5.59652 11.87436,-10.90105 2.43326,-3.01726 11.77703,-16.83823 11.77703,-21.31544 0,-2.2386 -1.45997,-3.5525701 -3.30925,-3.5525701 -1.65463,0 -2.72527,1.0219801 -2.72527,2.2872801 0,2.18994 3.01724,2.77392 3.01724,3.99055 0,1.02198 -0.43798,2.14129 -1.60593,4.28256 -1.2653,2.38461 -3.30925,5.79118 -6.81315,10.56039 z" style="font-style:normal;font-variant:normal;font-weight:normal;font-stretch:normal;letter-spacing:normal;word-spacing:normal;text-anchor:start;fill:#000000;fill-opacity:1;fill-rule:evenodd;stroke:#000000;stroke-width:0;stroke-linecap:butt;stroke-linejoin:miter;stroke-miterlimit:10.43299961;stroke-dasharray:none;stroke-dashoffset:0;stroke-opacity:1" />
  <g transform="matrix(1.6747875,0,0,1.6747875,82.544274,-113.37136)" id="g3554">
    <path style="font-style:normal;font-variant:normal;font-weight:normal;font-stretch:normal;letter-spacing:normal;word-spacing:normal;text-anchor:start;fill:#000000;fill-opacity:1;fill-rule:evenodd;stroke:#000000;stroke-width:0;stroke-linecap:butt;stroke-linejoin:miter;stroke-miterlimit:10.43299961;stroke-dasharray:none;stroke-dashoffset:0;stroke-opacity:1" d="m 142.78768,158.89461 -0.11608,0.14509 -0.11608,0.1451 -0.11607,0.14509 -0.1451,0.11608 -0.11607,0.11607 -0.11608,0.11608 -0.14509,0.11607 -0.11608,0.11608 -0.14509,0.0871 -0.11608,0.11607 -0.14509,0.0871 -0.1451,0.0871 -0.14509,0.0871 -0.11608,0.058 -0.14509,0.0871 -0.1451,0.058 -0.14509,0.058 -0.1451,0.0871 -0.14509,0.029 -0.11608,0.058 -0.14509,0.058 -0.1451,0.029 -0.14509,0.029 -0.1451,0.058 -0.14509,0.029 -0.1451,0 -0.11607,0.029 -0.1451,0.029 -0.14509,0 -0.1451,0 -0.14509,0.029 -0.11608,0 c -2.11838,0 -3.88853,-1.47997 -3.88853,-3.68541 l 0,-0.95762 0,-0.95763 c 0.98664,-2.90189 3.04698,-6.84847 5.60065,-6.84847 0.87057,0 1.50899,0.6094 1.50899,1.47997 0,3.01797 -3.22111,5.3685 -6.79044,5.3685 l -0.3192,0 0,0.95763 c 4.09167,-0.20314 9.83742,-1.88623 9.83742,-6.23907 0,-2.11839 -2.06035,-2.58269 -3.5113,-2.58269 -4.38185,0 -8.15432,4.26578 -8.99587,8.06726 -0.17411,0.78352 -0.23215,1.27684 -0.23215,2.06035 0,2.46661 1.36389,5.33948 4.73009,5.33948 2.11838,0 4.46892,-0.81253 6.87749,-3.77246 z" id="path3431" />
    <polygon style="font-style:normal;font-variant:normal;font-weight:normal;font-stretch:normal;letter-spacing:normal;word-spacing:normal;text-anchor:start;fill:#000000;fill-opacity:1;fill-rule:evenodd;stroke:#000000;stroke-width:0;stroke-linecap:butt;stroke-linejoin:miter;stroke-miterlimit:10.43299961;stroke-dasharray:none;stroke-dashoffset:0;stroke-opacity:1" points="246.73,483.24 248.86,486.28 248.86,483.24 246.73,483.24 246.38,483.24 246.38,482.67 248.86,482.67 248.86,481.19 249.55,481.19 249.55,482.67 250.47,482.67 250.47,483.24 249.55,483.24 249.55,487.18 249.16,487.18 246.38,483.24 " id="polygon3433" transform="matrix(2.9018937,0,0,-2.9018937,-569.01783,1547.5378)" />
  </g>
</svg>