<?xml version='1.0' ?><svg xmlns:dc="http://purl.org/dc/elements/1.1/" xmlns:cc="http://creativecommons.org/ns#" xmlns:rdf="http://www.w3.org/1999/02/22-rdf-syntax-ns#" xmlns:svg="http://www.w3.org/2000/svg" xmlns="http://www.w3.org/2000/svg" id="svg4760" version="1.1" width="247.5" height="158.52273" viewBox="0.0 2.1666605839999997 726.0 465.000008" preserveAspectRatio="none">
  <metadata id="metadata4851">
    <rdf:RDF>
      <cc:Work rdf:about="">
        <dc:format>image/svg+xml</dc:format>
        <dc:type rdf:resource="http://purl.org/dc/dcmitype/StillImage" />
      </cc:Work>
    </rdf:RDF>
  </metadata>
  <defs id="defs4849">
    <clipPath id="clip5">
      <path d="m 0,0 0,467 726,0 0,-467 z" id="path4805" />
    </clipPath>
  </defs>
  <title id="title4762" />
  <g id="g4771" style="fill:none;stroke:#000000;stroke-width:2;stroke-linecap:butt;stroke-linejoin:miter;stroke-miterlimit:10;stroke-dasharray:none;stroke-dashoffset:0;stroke-opacity:1">
    <path d="m 359.8,3 0,464" id="path4773" />
  </g>
  <g id="g4780" style="fill:#000000;fill-opacity:1;fill-rule:evenodd;stroke:none;stroke-width:1;stroke-linecap:square;stroke-linejoin:miter;stroke-miterlimit:10;stroke-dasharray:none;stroke-dashoffset:0">
    <path d="m 359.8,2 -5,20 10,0" id="path4782" />
  </g>
  <g id="g4789" style="fill:none;stroke:#000000;stroke-width:2;stroke-linecap:butt;stroke-linejoin:miter;stroke-miterlimit:10;stroke-dasharray:none;stroke-dashoffset:0;stroke-opacity:1">
    <path d="m 0,235.66 723,0" id="path4791" />
  </g>
  <g id="g4798" style="fill:#000000;fill-opacity:1;fill-rule:evenodd;stroke:none;stroke-width:1;stroke-linecap:square;stroke-linejoin:miter;stroke-miterlimit:10;stroke-dasharray:none;stroke-dashoffset:0">
    <path d="m 724,235.66 -20,-5 0,10" id="path4800" />
  </g>
  <g style="stroke-width:1;stroke-linecap:square;stroke-linejoin:miter;stroke-miterlimit:10;stroke-dasharray:none;stroke-dashoffset:0" clip-path="url(#clip5)" id="g4807">
    <g id="g4809" style="fill:none;stroke:#000000;stroke-width:2.5;stroke-linecap:round;stroke-linejoin:round;stroke-opacity:1">
      <path d="m 0,11.042 5.6719,2.115 5.6721,2.149 5.672,2.184 5.672,2.221 5.671,2.258 5.672,2.298 5.672,2.338 5.672,2.379 5.672,2.423 5.672,2.468 5.672,2.514 5.671,2.563 5.672,2.613 5.672,2.666 5.672,2.72 5.672,2.777 5.672,2.836 5.668,2.897 5.68,2.963 5.67,3.029 5.67,3.1 5.67,3.174 5.67,3.252 5.67,3.333 5.68,3.419 5.67,3.508 5.67,3.604 5.67,3.704 5.67,3.81 5.68,3.923 5.67,4.04 5.67,4.17 5.67,4.3 5.67,4.45 5.68,4.6 5.67,4.76 5.67,4.95 5.67,5.13 5.67,5.34 5.68,5.56 5.67,5.8 5.67,6.07 5.67,6.36 5.67,6.68 5.67,7.03 5.68,7.42 5.67,7.86 5.67,8.36 5.67,8.91 5.67,9.56 2.84,5.05 2.84,5.24 2.83,5.47 2.84,5.69 2.83,5.95 2.84,6.23 2.84,6.54 2.83,6.87 2.84,7.25 2.83,7.66 2.84,8.13 2.83,8.67 2.84,9.26 2.84,9.96 1.41,5.27 1.42,5.5 1.42,5.72 1.42,5.99 1.42,6.27 1.41,6.57 1.42,6.92 1.42,7.3 1.42,7.72 1.42,8.2 1.41,8.73 1.42,9.35 0.71,4.94 0.71,5.12 0.71,5.33 0.71,5.55 0.71,5.79 0.71,6.06 0.71,6.34 0.7,6.66 0.71,7.02 0.71,7.4 0.71,7.84 0.71,8.33 m 21.98,-0.28 0.71,-8.32 0.71,-7.82 0.71,-7.39 0.7,-7 0.71,-6.65 0.71,-6.34 0.71,-6.04 0.71,-5.79 0.71,-5.54 0.71,-5.32 0.71,-5.12 1.42,-9.67 1.41,-9.03 1.42,-8.45 1.42,-7.94 1.42,-7.5 1.42,-7.1 1.41,-6.73 1.42,-6.42 1.42,-6.11 1.42,-5.85 1.42,-5.61 1.41,-5.37 1.42,-5.17 2.84,-9.77 2.83,-9.1 2.84,-8.52 2.84,-8.01 2.83,-7.55 2.84,-7.15 2.83,-6.78 2.84,-6.45 2.83,-6.16 2.84,-5.88 2.84,-5.64 2.83,-5.4 2.84,-5.19 2.83,-5 5.68,-9.47 5.67,-8.84 5.67,-8.29 5.67,-7.8 5.67,-7.37 5.68,-6.98 5.67,-6.64 5.67,-6.32 5.67,-6.03 5.67,-5.77 5.67,-5.53 5.68,-5.31 5.67,-5.11 5.67,-4.92 5.67,-4.74 5.67,-4.58 5.68,-4.43 5.67,-4.29 5.67,-4.147 5.67,-4.026 5.67,-3.908 5.68,-3.796 5.67,-3.69 5.67,-3.592 5.67,-3.497 5.67,-3.407 5.68,-3.322 5.67,-3.242 5.67,-3.164 5.67,-3.091 5.67,-3.021 5.67,-2.953 5.68,-2.89 5.67,-2.828 5.67,-2.769 5.67,-2.713 5.67,-2.659 5.68,-2.606 5.67,-2.557 5.67,-2.508 5.67,-2.462 5.67,-2.417 5.67,-2.374 5.68,-2.333 5.67,-2.292 5.67,-2.254 5.67,-2.216 5.67,-2.18 5.68,-2.144 5.67,-2.111 5.67,-2.0773" id="path4811" />
      <title id="title4813">Function g</title>
      <desc id="desc4815">g(x) = ln(xÃ&#131;Â&#130;Ã&#130;Â²)</desc>
    </g>
  </g>
  <path id="path4958" d="m 702.52624,252.795 -1.1178,-3.1104 c -0.729,-1.8954 -1.7982,-4.2768 -4.3254,-5.6376 l -7.5816,1.8954 0.1458,1.0206 c 0.5832,-0.243 1.458,-0.3402 2.187,-0.3402 3.159,0 4.6656,2.3328 5.6376,5.103 l 1.8954,5.2974 -3.7422,5.7834 c -1.8468,2.8188 -3.3048,3.402 -4.0338,3.402 -1.4094,0 -1.215,-1.1664 -2.673,-1.1664 -1.458,0 -2.187,1.215 -2.187,2.1384 0,1.2636 0.9234,2.673 2.9646,2.673 3.2562,0 4.9086,-2.4786 6.7554,-5.2488 l 3.645,-5.6376 2.2842,6.4638 c 0.729,2.0898 1.8468,4.4226 4.1796,4.4226 3.3534,0 5.9292,-5.4918 6.6582,-6.3666 l -0.8262,-0.5832 c -1.215,2.4786 -2.5758,3.3048 -3.4992,3.3048 -2.6244,0 -3.9366,-7.776 -5.6376,-11.3238 l 3.159,-4.86 c 0.7776,-1.2636 1.4094,-2.187 3.159,-2.187 0.972,0 1.2636,0.486 2.5272,0.486 1.5066,0 2.2356,-1.3122 2.2356,-2.3814 0,-1.215 -0.972,-1.8954 -2.8188,-1.8954 -2.8674,0 -4.9086,2.5272 -6.3666,4.8114 z" style="font-style:normal;font-variant:normal;font-weight:normal;font-stretch:normal;letter-spacing:normal;word-spacing:normal;text-anchor:start;fill:#000000;fill-opacity:1;fill-rule:evenodd;stroke:#000000;stroke-width:0;stroke-linecap:butt;stroke-linejoin:miter;stroke-miterlimit:10.43299961;stroke-dasharray:none;stroke-dashoffset:0;stroke-opacity:1" />
  <path id="path4960" d="m 336.33051,21.324675 -0.0486,-0.3888 -0.0486,-0.3888 -0.0486,-0.3402 -0.0486,-0.3402 -0.0486,-0.3402 -0.0486,-0.3402 -0.0486,-0.2916 -0.0486,-0.2916 -0.0486,-0.2916 -0.0486,-0.243 -0.0486,-0.2916 -0.0486,-0.243 -0.0486,-0.243 -0.0486,-0.1944 -0.0972,-0.243 -0.0486,-0.243 -0.0486,-0.1944 -0.0972,-0.1944 -0.0486,-0.1944 -0.0486,-0.1944 -0.1944,-0.3888 -0.1458,-0.3402 -0.1944,-0.3888 -0.1944,-0.3402 -0.1944,-0.3402 -0.243,-0.3402 -8.6508,1.458 0.0972,0.8748 c 0.5346,-0.0486 1.458,-0.1944 2.0898,-0.1944 3.2076,0 3.7422,3.4506 4.0338,6.026401 l 2.187,17.982 c -1.5066,2.3328 -4.7628,5.8806 -5.7348,5.8806 -0.9234,0 -0.8262,-1.7982 -3.3048,-1.7982 -0.729,0 -2.2842,0.6318 -2.2842,2.3814 0,1.3608 1.0692,3.1104 3.2076,3.1104 3.888,0 7.6302,-5.589 11.8584,-10.8864 2.43,-3.0132 11.7612,-16.815601 11.7612,-21.286801 0,-2.2356 -1.458,-3.5478 -3.3048,-3.5478 -1.6524,0 -2.7216,1.0206 -2.7216,2.2842 0,2.187 3.0132,2.7702 3.0132,3.9852 0,1.0206 -0.4374,2.187001 -1.6038,4.276801 -1.2636,2.3814 -3.3048,5.7834 -6.804,10.5948 z" style="font-style:normal;font-variant:normal;font-weight:normal;font-stretch:normal;letter-spacing:normal;word-spacing:normal;text-anchor:start;fill:#000000;fill-opacity:1;fill-rule:evenodd;stroke:#000000;stroke-width:0;stroke-linecap:butt;stroke-linejoin:miter;stroke-miterlimit:10.43299961;stroke-dasharray:none;stroke-dashoffset:0;stroke-opacity:1" />
  <path id="path4962" d="m 445.08515,284.82984 0,-0.8748 c -4.3254,0 -5.4918,-1.0206 -5.4918,-3.4992 l 0,-34.263 -0.486,-0.1944 -10.3518,5.2488 0,0.7776 1.5552,-0.5346 c 1.0692,-0.4374 2.0412,-0.729 2.6244,-0.729 1.215,0 1.701,0.8748 1.701,2.8188 l 0,25.758 c 0,3.159 -1.215,4.374 -5.4432,4.617 l 0,0.8748 z" style="font-style:normal;font-variant:normal;font-weight:normal;font-stretch:normal;letter-spacing:normal;word-spacing:normal;text-anchor:start;fill:#000000;fill-opacity:1;fill-rule:evenodd;stroke:#000000;stroke-width:0;stroke-linecap:butt;stroke-linejoin:miter;stroke-miterlimit:10.43299961;stroke-dasharray:none;stroke-dashoffset:0;stroke-opacity:1" />
  <g transform="matrix(1.8,0,0,1.8,39.489616,-447.01699)" id="g5005">
    <polygon style="font-style:normal;font-variant:normal;font-weight:normal;font-stretch:normal;letter-spacing:normal;word-spacing:normal;text-anchor:start;fill:#000000;fill-opacity:1;fill-rule:evenodd;stroke:#000000;stroke-width:0;stroke-linecap:butt;stroke-linejoin:miter;stroke-miterlimit:10.43299961;stroke-dasharray:none;stroke-dashoffset:0;stroke-opacity:1" points="256.86,479.83 256.86,480.61 250.27,480.61 250.27,479.83 " id="polygon4964" transform="matrix(2.7,0,0,-2.7,-568.548,1695.096)" />
    <path style="font-style:normal;font-variant:normal;font-weight:normal;font-stretch:normal;letter-spacing:normal;word-spacing:normal;text-anchor:start;fill:#000000;fill-opacity:1;fill-rule:evenodd;stroke:#000000;stroke-width:0;stroke-linecap:butt;stroke-linejoin:miter;stroke-miterlimit:10.43299961;stroke-dasharray:none;stroke-dashoffset:0;stroke-opacity:1" d="m 139.635,406.575 0,-0.486 c -2.403,0 -3.024,-0.567 -3.024,-1.944 l 0,-19.035 -0.297,-0.108 -5.724,2.916 0,0.432 0.864,-0.297 c 0.567,-0.243 1.107,-0.405 1.431,-0.405 0.675,0 0.972,0.486 0.972,1.566 l 0,14.31 c 0,1.755 -0.675,2.43 -3.051,2.565 l 0,0.486 z" id="path4966" />
  </g>
</svg>