<?xml version='1.0' ?><svg xmlns:dc="http://purl.org/dc/elements/1.1/" xmlns:cc="http://creativecommons.org/ns#" xmlns:rdf="http://www.w3.org/1999/02/22-rdf-syntax-ns#" xmlns:svg="http://www.w3.org/2000/svg" xmlns="http://www.w3.org/2000/svg" id="svg2" version="1.1" width="246.81818" height="159.20455" viewBox="0.0 0.1666605629333333 723.9999946666667 467.00001333333336" preserveAspectRatio="none">
  <metadata id="metadata145">
    <rdf:RDF>
      <cc:Work rdf:about="">
        <dc:format>image/svg+xml</dc:format>
        <dc:type rdf:resource="http://purl.org/dc/dcmitype/StillImage" />
      </cc:Work>
    </rdf:RDF>
  </metadata>
  <defs id="defs143">
    <clipPath id="clip1">
      <path d="M 0.0000 0.0000 L 0.0000 467.00 L 726.00 467.00 L 726.00 0.0000 z" id="path9" />
    </clipPath>
    <clipPath id="clip2">
      <path d="M 0.0000 0.0000 L 0.0000 467.00 L 726.00 467.00 L 726.00 0.0000 z" id="path18" />
    </clipPath>
    <clipPath id="clip3">
      <path d="M 0.0000 0.0000 L 0.0000 467.00 L 726.00 467.00 L 726.00 0.0000 z" id="path27" />
    </clipPath>
    <clipPath id="clip4">
      <path d="M 0.0000 0.0000 L 0.0000 467.00 L 726.00 467.00 L 726.00 0.0000 z" id="path36" />
    </clipPath>
    <clipPath id="clip5">
      <path id="path47" d="m 0,0 0,467 726,0 0,-467 z" />
    </clipPath>
    <clipPath id="clip6">
      <path id="path60" d="m 0,0 0,467 726,0 0,-467 z" />
    </clipPath>
    <clipPath id="clip7">
      <path id="path73" d="m 0,0 0,467 726,0 0,-467 z" />
    </clipPath>
    <clipPath id="clip8">
      <path id="path86" d="m 0,0 0,467 726,0 0,-467 z" />
    </clipPath>
    <clipPath id="clip9">
      <path id="path99" d="m 0,0 0,467 726,0 0,-467 z" />
    </clipPath>
  </defs>
  <title id="title4" />
  <g clip-path="url(#clip1)" id="g11" style="stroke-width:1;stroke-linecap:square;stroke-linejoin:miter;stroke-miterlimit:10;stroke-dasharray:none;stroke-dashoffset:0">
    <g id="g13" style="fill:none;stroke:#000000;stroke-width:2;stroke-linecap:butt;stroke-opacity:1">
      <path d="m 359.8,3 0,464" id="path15" />
    </g>
  </g>
  <g clip-path="url(#clip2)" id="g20" style="stroke-width:1;stroke-linecap:square;stroke-linejoin:miter;stroke-miterlimit:10;stroke-dasharray:none;stroke-dashoffset:0">
    <g id="g22" style="fill:#000000;fill-opacity:1;fill-rule:evenodd;stroke:none">
      <path d="m 359.8,2 -5,20 10,0" id="path24" />
    </g>
  </g>
  <g id="g49" clip-path="url(#clip5)" style="stroke-width:1;stroke-linecap:square;stroke-linejoin:miter;stroke-miterlimit:10;stroke-dasharray:none;stroke-dashoffset:0">
    <g style="fill:none;stroke:#000000;stroke-width:2.5;stroke-linecap:round;stroke-linejoin:round;stroke-opacity:1" id="g51">
      <path id="path53" d="m 84.724,473.79 0.354,-8.14 0.355,-7.84 0.354,-7.53 0.355,-7.25 0.354,-6.97 0.355,-6.72 0.354,-6.46 0.355,-6.23 0.354,-5.99 0.355,-5.78 0.354,-5.57 0.355,-5.37 0.354,-5.17 0.709,-9.81 0.709,-9.13 0.709,-8.51 0.709,-7.94 0.709,-7.4 0.709,-6.91 0.709,-6.46 0.709,-6.04 0.709,-5.66 0.709,-5.29 1.418,-9.6 1.418,-8.45 1.422,-7.43 1.41,-6.57 1.42,-5.79 1.42,-5.13 2.84,-8.56 2.83,-6.72 2.84,-5.28 5.67,-7.37 1.42,-1.34 1.42,-1.17 2.83,-1.93 2.84,-1.47 2.83,-1.08 5.67,-1.33 5.68,-0.58 5.67,-0.15 5.67,-0.01 5.67,-0.12 5.67,-0.49 5.68,-1.2 2.83,-0.99 2.84,-1.34 2.83,-1.78 2.84,-2.32 5.67,-6.86 2.84,-4.91 2.83,-6.26 2.84,-7.96 1.42,-4.77 1.42,-5.39 1.41,-6.1 1.42,-6.9 1.42,-7.83 1.42,-8.9 0.71,-4.9 0.71,-5.22 0.7,-5.59 0.71,-5.96 0.71,-6.38 0.71,-6.83 0.71,-7.31 0.71,-7.83 0.71,-8.4 0.71,-9.012 0.71,-9.678 0.35,-5.108 0.36,-5.296 0.35,-5.493 0.35,-5.7 0.36,-5.914 0.35,-6.14 0.36,-6.373 0.35,-6.62 0.36,-6.876 0.35,-7.145 0.36,-7.426 0.35,-7.7198 0.35,-8.02841 0.36,-8.35139 M 293.52,477 l 0.14,0 0.21,-5.01 0.36,-8.08 0.35,-7.77 0.36,-7.47 0.35,-7.18 0.36,-6.92 0.35,-6.66 0.36,-6.41 0.35,-6.17 0.35,-5.95 0.36,-5.73 0.35,-5.53 0.36,-5.32 0.35,-5.14 0.71,-9.73 0.71,-9.06 0.71,-8.45 0.71,-7.87 0.71,-7.35 0.71,-6.86 0.71,-6.41 0.7,-6 0.71,-5.61 0.71,-5.26 0.71,-4.92 1.42,-8.94 1.42,-7.87 1.42,-6.93 1.41,-6.13 1.42,-5.41 1.42,-4.79 2.83,-8.01 2.84,-6.28 2.84,-4.94 5.67,-6.89 1.42,-1.24 1.41,-1.09 2.84,-1.79 5.67,-2.35 2.84,-0.71 2.83,-0.49 5.68,-0.5 5.67,-0.12 5.67,-0.01 5.67,-0.15 5.67,-0.57 5.68,-1.32 2.83,-1.08 2.84,-1.45 2.83,-1.92 2.84,-2.5 2.84,-3.22 2.83,-4.12 2.84,-5.26 2.83,-6.69 2.84,-8.52 1.42,-5.1 1.42,-5.77 1.41,-6.53 1.42,-7.4 1.42,-8.4 1.42,-9.56 0.71,-5.26 0.7,-5.63 0.71,-6.01 0.71,-6.43 0.71,-6.87 0.71,-7.37 0.71,-7.89 0.71,-8.46 0.71,-9.085 0.71,-9.755 0.35,-5.148 0.36,-5.338 0.35,-5.538 0.35,-5.745 0.36,-5.963 0.35,-6.19 0.36,-6.426 0.35,-6.675 0.36,-6.934 0.35,-7.205 0.36,-7.489 0.35,-7.7859 0.36,-8.0977 0.35,-8.424 M 502.67,477 l 0.06,0 0.29,-6.8 0.36,-8.01 0.35,-7.7 0.36,-7.41 0.35,-7.13 0.36,-6.86 0.35,-6.6 0.36,-6.36 0.35,-6.12 0.35,-5.9 0.36,-5.69 0.35,-5.48 0.36,-5.28 0.35,-5.1 0.71,-9.65 0.71,-8.99 0.71,-8.38 0.71,-7.82 0.71,-7.29 0.71,-6.81 0.71,-6.37 0.7,-5.95 0.71,-5.57 0.71,-5.22 1.42,-9.47 1.42,-8.33 1.42,-7.33 1.41,-6.47 1.42,-5.72 2.84,-9.54 2.83,-7.48 2.84,-5.88 2.84,-4.62 5.67,-6.43 1.42,-1.15 1.41,-1.02 2.84,-1.66 5.67,-2.15 2.84,-0.65 2.83,-0.43 5.68,-0.43 5.67,-0.09 5.67,-0.01 5.67,-0.2 5.67,-0.65 5.68,-1.46 2.83,-1.17 2.84,-1.57 2.83,-2.07 2.84,-2.69 2.83,-3.45 2.84,-4.41 2.84,-5.61 2.83,-7.16 2.84,-9.11 1.42,-5.46 1.41,-6.18 1.42,-7 1.42,-7.94 1.42,-9.02 0.71,-4.97 0.71,-5.3 0.71,-5.67 0.7,-6.05 0.71,-6.48 0.71,-6.92 0.71,-7.42 0.71,-7.96 0.71,-8.52 0.71,-9.156 0.71,-9.832 0.35,-5.189 0.36,-5.381 0.35,-5.582 0.36,-5.793 0.35,-6.011 0.35,-6.24 0.36,-6.48 0.35,-6.73 0.36,-6.992 0.35,-7.266 0.36,-7.553 0.35,-7.8529 0.36,-8.1676 0.29,-6.9845 0.06,0 m 34.03,0" />
      <title id="title55">Function h</title>
      <desc id="desc57">h(x) = If[-3Ã&#131;Â&#143;Ã&#130;Â&#128; / 2 Ã&#131;Â¢Ã&#130;Â&#137;Ã&#130;Â¤ x Ã&#131;Â¢Ã&#130;Â&#137;Ã&#130;Â¤ 3Ã&#131;Â&#143;Ã&#130;Â&#128; / 2, tan(x)Ã&#131;Â&#130;Ã&#130;Â³]</desc>
    </g>
  </g>
  <g clip-path="url(#clip3)" id="g29" style="stroke-width:1;stroke-linecap:square;stroke-linejoin:miter;stroke-miterlimit:10;stroke-dasharray:none;stroke-dashoffset:0">
    <g id="g31" style="fill:none;stroke:#000000;stroke-width:2;stroke-linecap:butt;stroke-opacity:1">
      <path d="m 0,235.66 723,0" id="path33" />
    </g>
  </g>
  <g clip-path="url(#clip4)" id="g38" style="stroke-width:1;stroke-linecap:square;stroke-linejoin:miter;stroke-miterlimit:10;stroke-dasharray:none;stroke-dashoffset:0">
    <g id="g40" style="fill:#000000;fill-opacity:1;fill-rule:evenodd;stroke:none">
      <path d="m 724,235.66 -20,-5 0,10" id="path42" />
    </g>
  </g>
  <g id="misc" style="stroke-width:1;stroke-linecap:square;stroke-linejoin:miter;stroke-miterlimit:10;stroke-dasharray:none;stroke-dashoffset:0" />
  <g id="g62" clip-path="url(#clip6)" style="stroke-width:1;stroke-linecap:square;stroke-linejoin:miter;stroke-miterlimit:10;stroke-dasharray:none;stroke-dashoffset:0">
    <g style="fill:none;stroke:#000000;stroke-width:2;stroke-linecap:butt;stroke-linejoin:round;stroke-dasharray:10, 8;stroke-opacity:1" id="g64">
      <path id="path66" d="m 464.33,472 0,-477" />
      <title id="title68">Line i</title>
      <desc id="desc70">i: x = 1.57</desc>
    </g>
  </g>
  <g id="g75" clip-path="url(#clip7)" style="stroke-width:1;stroke-linecap:square;stroke-linejoin:miter;stroke-miterlimit:10;stroke-dasharray:none;stroke-dashoffset:0">
    <g style="fill:none;stroke:#000000;stroke-width:2;stroke-linecap:butt;stroke-linejoin:round;stroke-dasharray:10, 8;stroke-opacity:1" id="g77">
      <path id="path79" d="m 673.41,472 0,-477" />
      <title id="title81">Line j</title>
      <desc id="desc83">j: x = 4.71</desc>
    </g>
  </g>
  <g id="g88" clip-path="url(#clip8)" style="stroke-width:1;stroke-linecap:square;stroke-linejoin:miter;stroke-miterlimit:10;stroke-dasharray:none;stroke-dashoffset:0">
    <g style="fill:none;stroke:#000000;stroke-width:2;stroke-linecap:butt;stroke-linejoin:round;stroke-dasharray:10, 8;stroke-opacity:1" id="g90">
      <path id="path92" d="m 255.26,472 0,-477" />
      <title id="title94">Line k</title>
      <desc id="desc96">k: x = -1.57</desc>
    </g>
  </g>
  <g id="g101" clip-path="url(#clip9)" style="stroke-width:1;stroke-linecap:square;stroke-linejoin:miter;stroke-miterlimit:10;stroke-dasharray:none;stroke-dashoffset:0">
    <g style="fill:none;stroke:#000000;stroke-width:2;stroke-linecap:butt;stroke-linejoin:round;stroke-dasharray:10, 8;stroke-opacity:1" id="g103">
      <path id="path105" d="m 46.189,472 0,-477" />
      <title id="title107">Line l</title>
      <desc id="desc109">l: x = -4.71</desc>
    </g>
  </g>
  <path style="font-style:normal;font-variant:normal;font-weight:normal;font-stretch:normal;letter-spacing:normal;word-spacing:normal;text-anchor:start;fill:#000000;fill-opacity:1;fill-rule:evenodd;stroke:#000000;stroke-width:0;stroke-linecap:butt;stroke-linejoin:miter;stroke-miterlimit:10.43299961;stroke-dasharray:none;stroke-dashoffset:0;stroke-opacity:1" d="m 337.49815,17.071913 -0.0486,-0.3888 -0.0486,-0.3888 -0.0486,-0.3402 -0.0486,-0.388801 -0.0486,-0.2916 -0.0486,-0.3402 -0.0486,-0.2916 -0.0486,-0.2916 -0.0486,-0.2916 -0.0486,-0.2916 -0.0486,-0.243 -0.0486,-0.243 -0.0486,-0.243 -0.0486,-0.243 -0.0972,-0.243 -0.0486,-0.1944 -0.0486,-0.1944 -0.0972,-0.243 -0.0486,-0.1944 -0.0486,-0.1944 -0.1944,-0.3402 -0.1458,-0.3888 -0.1944,-0.3402 -0.1944,-0.3402 -0.1944,-0.3401998 -0.243,-0.3402 -8.6508,1.4093998 0.0972,0.9234 c 0.5346,-0.0486 1.458,-0.243 2.0898,-0.243 3.2562,0 3.7422,3.4506 4.0338,6.026401 l 2.187,18.0306 c -1.5066,2.2842 -4.7628,5.832 -5.7348,5.832 -0.9234,0 -0.8262,-1.7496 -3.3048,-1.7496 -0.729,0 -2.2842,0.6318 -2.2842,2.3328 0,1.4094 1.0692,3.159 3.2076,3.159 3.9366,0 7.6788,-5.6376 11.8584,-10.8864 2.43,-3.0618 11.7612,-16.8156 11.7612,-21.286801 0,-2.2356 -1.458,-3.5477998 -3.3048,-3.5477998 -1.6524,0 -2.7216,1.0205998 -2.7216,2.2841998 0,2.187 3.0132,2.7216 3.0132,3.9366 0,1.069201 -0.4374,2.187001 -1.6038,4.325401 -1.2636,2.3328 -3.3048,5.7834 -6.804,10.5462 z" id="path3659" />
  <path style="font-style:normal;font-variant:normal;font-weight:normal;font-stretch:normal;letter-spacing:normal;word-spacing:normal;text-anchor:start;fill:#000000;fill-opacity:1;fill-rule:evenodd;stroke:#000000;stroke-width:0;stroke-linecap:butt;stroke-linejoin:miter;stroke-miterlimit:10.43299961;stroke-dasharray:none;stroke-dashoffset:0;stroke-opacity:1" d="m 694.91125,254.40891 -1.1178,-3.159 c -0.729,-1.8954 -1.7982,-4.2282 -4.3254,-5.589 l -7.5816,1.8468 0.1458,1.0692 c 0.5832,-0.243 1.458,-0.3402 2.187,-0.3402 3.159,0 4.6656,2.3328 5.6376,5.103 l 1.8954,5.2488 -3.7422,5.7834 c -1.8468,2.8188 -3.3048,3.402 -4.0338,3.402 -1.4094,0 -1.1664,-1.1178 -2.673,-1.1178 -1.458,0 -2.187,1.1664 -2.187,2.0898 0,1.2636 0.9234,2.7216 2.9646,2.7216 3.2562,0 4.9086,-2.4786 6.7554,-5.2974 l 3.5964,-5.6376 2.3328,6.5124 c 0.729,2.0412 1.8468,4.4226 4.1796,4.4226 3.3534,0 5.9292,-5.5404 6.6582,-6.3666 l -0.8262,-0.5832 c -1.215,2.4786 -2.5758,3.2562 -3.4992,3.2562 -2.6244,0 -3.9366,-7.7274 -5.6376,-11.2752 l 3.159,-4.9086 c 0.7776,-1.2636 1.4094,-2.187 3.159,-2.187 0.972,0 1.2636,0.5346 2.5272,0.5346 1.5066,0 2.2356,-1.3122 2.2356,-2.43 0,-1.1664 -0.972,-1.8468 -2.8188,-1.8468 -2.8674,0 -4.86,2.4786 -6.3666,4.8114 z" id="path3661" />
  <g id="g3809" transform="matrix(1.44,0,0,1.44,310.18129,-304.29838)">
    <g id="g3791">
      <path style="font-style:normal;font-variant:normal;font-weight:normal;font-stretch:normal;letter-spacing:normal;word-spacing:normal;text-anchor:start;fill:#000000;fill-opacity:1;fill-rule:evenodd;stroke:#000000;stroke-width:0;stroke-linecap:butt;stroke-linejoin:miter;stroke-miterlimit:10.43299961;stroke-dasharray:none;stroke-dashoffset:0;stroke-opacity:1" d="m 98.973,381.51 -6.75,0 c -2.484,0 -4.023,1.08 -5.076,2.997 l 0.378,0 c 1.053,-1.269 1.944,-1.269 3.348,-1.269 l -2.133,4.941 c -0.324,0.675 -0.756,1.377 -1.782,1.674 -0.621,0.162 -0.729,0.783 -0.729,1.134 0,0.594 0.594,1.053 1.215,1.053 0.297,0 0.648,-0.027 0.891,-0.243 2.025,-1.512 2.781,-5.643 3.861,-8.559 l 2.268,0 c -0.621,2.025 -1.323,3.699 -1.89,5.4 -0.135,0.459 -0.216,0.918 -0.216,1.485 0,0.918 0.405,1.782 1.377,1.782 1.674,0 2.943,-1.674 3.456,-3.402 l -0.405,0 c -0.567,1.296 -1.242,1.593 -1.728,1.593 -0.54,0 -0.918,-0.594 -0.918,-1.161 0,-1.593 1.269,-4.671 1.593,-5.697 l 2.7,0 z" id="path3663" />
      <line style="font-style:normal;font-variant:normal;font-weight:normal;font-stretch:normal;letter-spacing:normal;word-spacing:normal;text-anchor:start;fill:none;fill-opacity:1;fill-rule:evenodd;stroke:#000000;stroke-width:1.7766;stroke-linecap:butt;stroke-linejoin:miter;stroke-miterlimit:10.43299961;stroke-dasharray:none;stroke-dashoffset:0;stroke-opacity:1" x1="85.391991" y1="397.92603" x2="98.756981" y2="397.92603" id="line3665" />
      <path style="font-style:normal;font-variant:normal;font-weight:normal;font-stretch:normal;letter-spacing:normal;word-spacing:normal;text-anchor:start;fill:#000000;fill-opacity:1;fill-rule:evenodd;stroke:#000000;stroke-width:0;stroke-linecap:butt;stroke-linejoin:miter;stroke-miterlimit:10.43299961;stroke-dasharray:none;stroke-dashoffset:0;stroke-opacity:1" d="m 97.434,414.288 -0.351,-0.135 c -0.783,1.323 -1.296,1.593 -2.295,1.593 l -5.589,0 3.942,-4.212 c 2.133,-2.241 3.051,-4.05 3.051,-5.94 0,-2.376 -1.701,-4.212 -4.428,-4.212 -2.943,0 -4.455,1.971 -4.968,4.752 l 0.513,0.135 c 0.945,-2.349 1.782,-3.105 3.51,-3.105 2.025,0 3.321,1.188 3.321,3.375 0,2.025 -0.864,3.834 -3.105,6.21 l -4.266,4.536 0,0.27 9.369,0 z" id="path3667" />
    </g>
  </g>
  <g transform="matrix(1.8,0,0,1.8,-535.46822,-207.77819)" id="g3466">
    <path id="path3669" d="m 648.52326,251.30994 0.0648,-0.1296 0.0648,-0.1296 0.0864,-0.1296 0.0648,-0.108 0.0864,-0.108 0.0648,-0.108 0.0864,-0.108 0.0864,-0.108 0.0648,-0.0864 0.0864,-0.0864 0.0864,-0.0864 0.0864,-0.0864 0.0864,-0.0648 0.0864,-0.0864 0.0864,-0.0648 0.0864,-0.0648 0.0864,-0.0648 0.0864,-0.0432 0.0864,-0.0432 0.0864,-0.0648 0.0864,-0.0432 0.108,-0.0432 0.0864,-0.0216 0.108,-0.0432 0.0864,-0.0216 0.108,-0.0216 0.108,-0.0216 0.108,-0.0216 0.0864,0 0.108,-0.0216 0.108,0 0.108,0 c 1.2744,0 2.0736,0.648 2.0736,1.944 0,1.1664 -0.6048,2.0304 -1.5336,2.5704 -0.3888,0.2376 -0.8856,0.432 -1.62,0.6912 l 0,0.2592 c 1.08,0 1.5336,0.0648 1.944,0.1944 1.3392,0.3888 2.0088,1.3176 2.0088,2.7864 0,1.62 -1.08,2.916 -2.5056,2.916 -0.5184,0 -0.9288,-0.0864 -1.6416,-0.5832 -0.54,-0.3888 -0.8424,-0.4968 -1.1664,-0.4968 -0.432,0 -0.7776,0.2808 -0.7776,0.6912 0,0.6912 0.7344,1.08 2.1384,1.08 1.7064,0 3.5208,-0.54 4.4496,-1.7712 0.54,-0.7344 0.864,-1.6632 0.864,-2.6784 0,-0.9936 -0.3024,-1.8792 -0.8424,-2.484 -0.3888,-0.4104 -0.7344,-0.648 -1.5768,-1.0152 1.2744,-0.756 1.7712,-1.7064 1.7712,-2.6352 0,-1.5768 -1.188,-2.6136 -2.9808,-2.6136 -1.9872,0 -3.1968,1.2744 -3.7584,3.0888 z" style="font-style:normal;font-variant:normal;font-weight:normal;font-stretch:normal;letter-spacing:normal;word-spacing:normal;text-anchor:start;fill:#000000;fill-opacity:1;fill-rule:evenodd;stroke:#000000;stroke-width:0;stroke-linecap:butt;stroke-linejoin:miter;stroke-miterlimit:10.43299961;stroke-dasharray:none;stroke-dashoffset:0;stroke-opacity:1" />
    <path id="path3671" d="m 667.81206,252.88674 -5.4,0 c -1.9872,0 -3.2184,0.864 -4.0608,2.3976 l 0.324,0 c 0.8424,-1.0152 1.5336,-1.0152 2.6568,-1.0152 l -1.7064,3.9528 c -0.2592,0.54 -0.6048,1.1016 -1.4256,1.3392 -0.4968,0.1296 -0.5832,0.6264 -0.5832,0.9072 0,0.4752 0.4752,0.8424 0.972,0.8424 0.2376,0 0.5184,-0.0216 0.7344,-0.1944 1.5984,-1.2096 2.2032,-4.5144 3.0672,-6.8472 l 1.8144,0 c -0.4968,1.62 -1.0584,2.9592 -1.512,4.32 -0.108,0.3672 -0.1512,0.7344 -0.1512,1.188 0,0.7344 0.324,1.4256 1.08,1.4256 1.3392,0 2.3544,-1.3392 2.7648,-2.7216 l -0.324,0 c -0.4536,1.0368 -0.9936,1.2744 -1.3824,1.2744 -0.432,0 -0.7344,-0.4752 -0.7344,-0.9288 0,-1.2744 1.0152,-3.7368 1.296,-4.5576 l 2.1384,0 z" style="font-style:normal;font-variant:normal;font-weight:normal;font-stretch:normal;letter-spacing:normal;word-spacing:normal;text-anchor:start;fill:#000000;fill-opacity:1;fill-rule:evenodd;stroke:#000000;stroke-width:0;stroke-linecap:butt;stroke-linejoin:miter;stroke-miterlimit:10.43299961;stroke-dasharray:none;stroke-dashoffset:0;stroke-opacity:1" />
    <line id="line3673" y2="266.01959" x2="667.66089" y1="266.01959" x1="647.33527" style="font-style:normal;font-variant:normal;font-weight:normal;font-stretch:normal;letter-spacing:normal;word-spacing:normal;text-anchor:start;fill:none;fill-opacity:1;fill-rule:evenodd;stroke:#000000;stroke-width:1.42128003;stroke-linecap:butt;stroke-linejoin:miter;stroke-miterlimit:10.43299961;stroke-dasharray:none;stroke-dashoffset:0;stroke-opacity:1" />
    <path id="path3675" d="m 661.78566,279.10914 -0.2808,-0.108 c -0.6264,1.0584 -1.0368,1.2744 -1.836,1.2744 l -4.4928,0 3.1752,-3.3696 c 1.7064,-1.7928 2.4408,-3.24 2.4408,-4.752 0,-1.9008 -1.3824,-3.3696 -3.5424,-3.3696 -2.3544,0 -3.564,1.5768 -3.9744,3.8016 l 0.4104,0.108 c 0.756,-1.8792 1.4256,-2.484 2.808,-2.484 1.62,0 2.6568,0.9504 2.6568,2.7 0,1.62 -0.6912,3.0672 -2.484,4.968 l -3.4128,3.6288 0,0.216 7.4952,0 z" style="font-style:normal;font-variant:normal;font-weight:normal;font-stretch:normal;letter-spacing:normal;word-spacing:normal;text-anchor:start;fill:#000000;fill-opacity:1;fill-rule:evenodd;stroke:#000000;stroke-width:0;stroke-linecap:butt;stroke-linejoin:miter;stroke-miterlimit:10.43299961;stroke-dasharray:none;stroke-dashoffset:0;stroke-opacity:1" />
  </g>
  <g id="g3803" transform="matrix(1.44,0,0,1.44,-21.492451,-304.28656)">
    <polygon transform="matrix(2.7,0,0,-2.7,-568.548,1690.956)" id="polygon3677" points="266.08,479.01 272.67,479.01 272.67,479.79 266.08,479.79 " style="font-style:normal;font-variant:normal;font-weight:normal;font-stretch:normal;letter-spacing:normal;word-spacing:normal;text-anchor:start;fill:#000000;fill-opacity:1;fill-rule:evenodd;stroke:#000000;stroke-width:0;stroke-linecap:butt;stroke-linejoin:miter;stroke-miterlimit:10.43299961;stroke-dasharray:none;stroke-dashoffset:0;stroke-opacity:1" />
    <path id="path3679" d="m 186.561,381.51 -6.75,0 c -2.511,0 -4.023,1.08 -5.076,2.997 l 0.378,0 c 1.053,-1.269 1.944,-1.269 3.321,-1.269 l -2.133,4.941 c -0.297,0.675 -0.729,1.377 -1.782,1.674 -0.621,0.162 -0.729,0.783 -0.729,1.134 0,0.594 0.594,1.053 1.215,1.053 0.297,0 0.648,-0.027 0.918,-0.243 1.998,-1.512 2.754,-5.643 3.861,-8.559 l 2.241,0 c -0.594,2.025 -1.323,3.699 -1.863,5.4 -0.162,0.459 -0.216,0.918 -0.216,1.485 0,0.918 0.405,1.782 1.35,1.782 1.674,0 2.943,-1.674 3.456,-3.402 l -0.378,0 c -0.594,1.296 -1.242,1.593 -1.755,1.593 -0.513,0 -0.918,-0.594 -0.918,-1.161 0,-1.593 1.269,-4.671 1.62,-5.697 l 2.673,0 z" style="font-style:normal;font-variant:normal;font-weight:normal;font-stretch:normal;letter-spacing:normal;word-spacing:normal;text-anchor:start;fill:#000000;fill-opacity:1;fill-rule:evenodd;stroke:#000000;stroke-width:0;stroke-linecap:butt;stroke-linejoin:miter;stroke-miterlimit:10.43299961;stroke-dasharray:none;stroke-dashoffset:0;stroke-opacity:1" />
    <line id="line3681" y2="397.92603" x2="186.34499" y1="397.92603" x1="172.95302" style="font-style:normal;font-variant:normal;font-weight:normal;font-stretch:normal;letter-spacing:normal;word-spacing:normal;text-anchor:start;fill:none;fill-opacity:1;fill-rule:evenodd;stroke:#000000;stroke-width:1.7766;stroke-linecap:butt;stroke-linejoin:miter;stroke-miterlimit:10.43299961;stroke-dasharray:none;stroke-dashoffset:0;stroke-opacity:1" />
    <path id="path3683" d="m 184.995,414.288 -0.351,-0.135 c -0.783,1.323 -1.269,1.593 -2.295,1.593 l -5.589,0 3.942,-4.212 c 2.133,-2.241 3.078,-4.05 3.078,-5.94 0,-2.376 -1.728,-4.212 -4.428,-4.212 -2.943,0 -4.482,1.971 -4.995,4.752 l 0.513,0.135 c 0.972,-2.349 1.809,-3.105 3.51,-3.105 2.052,0 3.348,1.188 3.348,3.375 0,2.025 -0.864,3.834 -3.132,6.21 l -4.266,4.536 0,0.27 9.369,0 z" style="font-style:normal;font-variant:normal;font-weight:normal;font-stretch:normal;letter-spacing:normal;word-spacing:normal;text-anchor:start;fill:#000000;fill-opacity:1;fill-rule:evenodd;stroke:#000000;stroke-width:0;stroke-linecap:butt;stroke-linejoin:miter;stroke-miterlimit:10.43299961;stroke-dasharray:none;stroke-dashoffset:0;stroke-opacity:1" />
  </g>
  <path id="path3899" d="m 586.64171,248.70805 -11.4276,0 c -4.20838,0 -6.80868,1.88179 -8.58782,5.09794 l 0.65007,0 c 1.77916,-2.1555 3.28459,-2.1555 5.61116,-2.1555 l -3.59251,8.34831 c -0.51322,1.16329 -1.26593,2.32657 -3.01086,2.80559 -1.02644,0.30793 -1.23173,1.33436 -1.23173,1.95021 0,0.95801 0.99222,1.77916 2.05287,1.77916 0.479,0 1.09487,-0.1026 1.53965,-0.4448 3.42144,-2.53186 4.65316,-9.5116 6.53495,-14.43847 l 3.7978,0 c -1.02643,3.42144 -2.22393,6.22701 -3.14773,9.10104 -0.23951,0.7527 -0.37636,1.57384 -0.37636,2.49764 0,1.57387 0.68429,3.04508 2.32659,3.04508 2.83979,0 4.96109,-2.83979 5.81645,-5.74801 l -0.65009,0 c -0.958,2.18971 -2.08707,2.66871 -2.94243,2.66871 -0.88957,0 -1.53964,-1.02643 -1.53964,-1.95021 0,-2.70295 2.1555,-7.86931 2.70293,-9.61425 l 4.55051,0 z" style="font-style:normal;font-variant:normal;font-weight:normal;font-stretch:normal;letter-spacing:normal;word-spacing:normal;text-anchor:start;fill:#000000;fill-opacity:1;fill-rule:evenodd;stroke:#000000;stroke-width:0;stroke-linecap:butt;stroke-linejoin:miter;stroke-miterlimit:10.43299961;stroke-dasharray:none;stroke-dashoffset:0;stroke-opacity:1" />
  <g transform="matrix(1.98,0,0,1.98,-221.38254,-474.48315)" id="g4017">
    <polygon style="font-style:normal;font-variant:normal;font-weight:normal;font-stretch:normal;letter-spacing:normal;word-spacing:normal;text-anchor:start;fill:#000000;fill-opacity:1;fill-rule:evenodd;stroke:#000000;stroke-width:0;stroke-linecap:butt;stroke-linejoin:miter;stroke-miterlimit:10.43299961;stroke-dasharray:none;stroke-dashoffset:0;stroke-opacity:1" points="248.5,479.83 255.1,479.83 255.1,480.61 248.5,480.61 " id="polygon3905" transform="matrix(1.728,0,0,-1.728,-259.70232,1198.6452)" />
    <path style="font-style:normal;font-variant:normal;font-weight:normal;font-stretch:normal;letter-spacing:normal;word-spacing:normal;text-anchor:start;fill:#000000;fill-opacity:1;fill-rule:evenodd;stroke:#000000;stroke-width:0;stroke-linecap:butt;stroke-linejoin:miter;stroke-miterlimit:10.43299961;stroke-dasharray:none;stroke-dashoffset:0;stroke-opacity:1" d="m 194.0532,365.24808 -5.77152,0 c -2.12544,0 -3.43872,0.9504 -4.33728,2.57472 l 0.32832,0 c 0.89856,-1.08864 1.65888,-1.08864 2.83392,-1.08864 l -1.8144,4.21632 c -0.27648,0.58752 -0.63936,1.17504 -1.52064,1.41696 -0.53568,0.15552 -0.63936,0.67392 -0.63936,0.98496 0,0.48384 0.5184,0.89856 1.05408,0.89856 0.24192,0 0.55296,-0.0518 0.7776,-0.22464 1.71072,-1.27872 2.35008,-4.80384 3.2832,-7.29216 l 1.93536,0 c -0.5184,1.728 -1.1232,3.14496 -1.60704,4.59648 -0.12096,0.38016 -0.1728,0.79488 -0.1728,1.26144 0,0.79488 0.3456,1.53792 1.15776,1.53792 1.43424,0 2.52288,-1.43424 2.95488,-2.90304 l -0.32832,0 c -0.48384,1.10592 -1.07136,1.34784 -1.50336,1.34784 -0.44928,0 -0.76032,-0.5184 -0.76032,-0.98496 0,-1.36512 1.07136,-3.9744 1.36512,-4.85568 l 2.29824,0 z" id="path3907" />
  </g>
</svg>