<?xml version='1.0' ?><svg xmlns:ns0="http://www.iki.fi/pav/software/textext/" xmlns:dc="http://purl.org/dc/elements/1.1/" xmlns:cc="http://creativecommons.org/ns#" xmlns:rdf="http://www.w3.org/1999/02/22-rdf-syntax-ns#" xmlns:svg="http://www.w3.org/2000/svg" xmlns="http://www.w3.org/2000/svg" id="svg2" version="1.1" width="247.5" height="159.20455" viewBox="0.0 0.1666605629333333 726.0 467.00001333333336" preserveAspectRatio="none">
  <metadata id="metadata106">
    <rdf:RDF>
      <cc:Work rdf:about="">
        <dc:format>image/svg+xml</dc:format>
        <dc:type rdf:resource="http://purl.org/dc/dcmitype/StillImage" />
      </cc:Work>
    </rdf:RDF>
  </metadata>
  <defs id="defs104">
    <clipPath id="clip1">
      <path id="path9" d="M 0.0000 0.0000 L 0.0000 467.00 L 726.00 467.00 L 726.00 0.0000 z" />
    </clipPath>
    <clipPath id="clip2">
      <path id="path18" d="M 0.0000 0.0000 L 0.0000 467.00 L 726.00 467.00 L 726.00 0.0000 z" />
    </clipPath>
    <clipPath id="clip3">
      <path id="path27" d="M 0.0000 0.0000 L 0.0000 467.00 L 726.00 467.00 L 726.00 0.0000 z" />
    </clipPath>
    <clipPath id="clip4">
      <path id="path36" d="M 0.0000 0.0000 L 0.0000 467.00 L 726.00 467.00 L 726.00 0.0000 z" />
    </clipPath>
    <clipPath id="clip5">
      <path d="m 0,0 0,467 726,0 0,-467 z" id="path47" />
    </clipPath>
    <clipPath id="clip6">
      <path d="m 0,0 0,467 726,0 0,-467 z" id="path60" />
    </clipPath>
  </defs>
  <title id="title4" />
  <g id="g11" clip-path="url(#clip1)" style="stroke-width:1;stroke-linecap:square;stroke-linejoin:miter;stroke-miterlimit:10;stroke-dasharray:none;stroke-dashoffset:0">
    <g id="g13" style="fill:none;stroke:#000000;stroke-width:2;stroke-linecap:butt;stroke-opacity:1">
      <path id="path15" d="m 458.36,3 0,464" />
    </g>
  </g>
  <g id="g20" clip-path="url(#clip2)" style="stroke-width:1;stroke-linecap:square;stroke-linejoin:miter;stroke-miterlimit:10;stroke-dasharray:none;stroke-dashoffset:0">
    <g id="g22" style="fill:#000000;fill-opacity:1;fill-rule:evenodd;stroke:none">
      <path id="path24" d="m 458.36,2 -5,20 10,0" />
    </g>
  </g>
  <g id="g29" clip-path="url(#clip3)" style="stroke-width:1;stroke-linecap:square;stroke-linejoin:miter;stroke-miterlimit:10;stroke-dasharray:none;stroke-dashoffset:0">
    <g id="g31" style="fill:none;stroke:#000000;stroke-width:2;stroke-linecap:butt;stroke-opacity:1">
      <path id="path33" d="m 0,387.46 723,0" />
    </g>
  </g>
  <g id="g38" clip-path="url(#clip4)" style="stroke-width:1;stroke-linecap:square;stroke-linejoin:miter;stroke-miterlimit:10;stroke-dasharray:none;stroke-dashoffset:0">
    <g id="g40" style="fill:#000000;fill-opacity:1;fill-rule:evenodd;stroke:none">
      <path id="path42" d="m 724,387.46 -20,-5 0,10" />
    </g>
  </g>
  <g id="misc" style="stroke-width:1;stroke-linecap:square;stroke-linejoin:miter;stroke-miterlimit:10;stroke-dasharray:none;stroke-dashoffset:0" />
  <g clip-path="url(#clip5)" id="g49" style="stroke-width:1;stroke-linecap:square;stroke-linejoin:miter;stroke-miterlimit:10;stroke-dasharray:none;stroke-dashoffset:0">
    <g style="fill:none;stroke:#000000;stroke-width:2.5;stroke-linecap:round;stroke-linejoin:round;stroke-opacity:1" id="g51">
      <path d="m 0,381.01 5.6719,-0.25 5.6721,-0.26 5.672,-0.27 5.672,-0.29 5.671,-0.31 5.672,-0.33 5.672,-0.35 5.672,-0.37 5.672,-0.4 5.672,-0.42 5.672,-0.45 5.671,-0.49 5.672,-0.52 5.672,-0.56 5.672,-0.61 5.672,-0.65 5.672,-0.71 5.668,-0.76 5.68,-0.83 5.67,-0.91 5.67,-0.99 5.67,-1.08 5.67,-1.18 5.67,-1.31 5.68,-1.44 5.67,-1.6 5.67,-1.78 5.67,-1.98 5.67,-2.23 5.68,-2.5 5.67,-2.84 5.67,-3.22 5.67,-3.69 5.67,-4.25 5.68,-4.93 5.67,-5.76 5.67,-6.79 5.67,-8.09 5.67,-9.72 2.84,-5.62 2.84,-6.21 2.83,-6.91 2.84,-7.71 2.83,-8.63 2.84,-9.7 1.42,-5.31 1.41,-5.66 1.42,-6.03 1.42,-6.43 1.42,-6.87 1.42,-7.36 1.41,-7.9 1.42,-8.47 1.42,-9.12 1.42,-9.83 0.71,-5.2 0.71,-5.41 0.71,-5.62 0.7,-5.86 0.71,-6.1 0.71,-6.35 0.71,-6.62 0.71,-6.91 0.71,-7.21 0.71,-7.53 0.71,-7.87 0.71,-8.23 0.71,-8.61 0.7,-9.018 0.71,-9.449 0.71,-9.909 0.36,-5.136 0.35,-5.263 0.36,-5.394 0.35,-5.529 0.35,-5.668 0.36,-5.813 0.35,-5.962 0.36,-6.117 0.35,-6.276 0.36,-6.443 0.35,-6.6134 0.36,-6.7912 0.35,-6.9751 m 78.7,-3.452 0.35,7.0668 0.36,6.8796 0.35,6.6993 0.36,6.524 0.35,6.357 0.35,6.193 0.36,6.037 0.35,5.884 0.36,5.738 0.35,5.596 0.36,5.459 0.35,5.326 0.36,5.197 0.35,5.073 0.36,4.952 0.7,9.557 0.71,9.12 0.71,8.71 0.71,8.32 0.71,7.95 0.71,7.61 0.71,7.29 0.71,6.98 0.71,6.69 0.71,6.42 0.7,6.15 0.71,5.92 0.71,5.68 0.71,5.46 0.71,5.25 1.42,9.92 1.42,9.2 1.41,8.55 1.42,7.96 1.42,7.42 1.42,6.93 1.42,6.49 1.41,6.07 1.42,5.7 1.42,5.35 2.84,9.78 2.83,8.69 2.84,7.75 2.83,6.96 2.84,6.25 2.84,5.66 2.83,5.12 5.67,8.9 5.68,7.44 5.67,6.28 5.67,5.35 5.67,4.59 5.67,3.97 5.67,3.47 5.68,3.03 5.67,2.67 5.67,2.37 5.67,2.11 5.67,1.88 5.68,1.69 5.67,1.52 5.67,1.38 5.67,1.25 5.67,1.13 5.67,1.04 5.68,0.95 5.67,0.87 5.67,0.79 5.67,0.74 5.67,0.68 5.68,0.63 5.67,0.59 5.67,0.54 5.67,0.5 5.67,0.47 5.68,0.44 5.67,0.41 5.67,0.39 5.67,0.36 5.67,0.34 5.68,0.32 5.67,0.3 5.67,0.28 5.67,0.27 5.67,0.25 5.67,0.24 5.68,0.22 5.67,0.22 5.67,0.2 5.67,0.19 5.67,0.18 5.68,0.18 5.67,0.16 5.67,0.16 5.67,0.15 5.67,0.14 5.67,0.14 5.68,0.13 5.67,0.13 5.67,0.12 5.67,0.11 5.67,0.11 5.68,0.11 5.67,0.1 5.67,0.09" id="path53" />
      <title id="title55">Function s</title>
      <desc id="desc57">s(x) = (x + 2)Ã&#131;Â¢Ã&#130;Â&#129;Ã&#130;Â»Ã&#131;Â&#130;Ã&#130;Â²</desc>
    </g>
  </g>
  <g clip-path="url(#clip6)" id="g62" style="stroke-width:1;stroke-linecap:square;stroke-linejoin:miter;stroke-miterlimit:10;stroke-dasharray:none;stroke-dashoffset:0">
    <g style="fill:none;stroke:#000000;stroke-width:2;stroke-linecap:butt;stroke-linejoin:round;stroke-dasharray:10, 8;stroke-opacity:1" id="g64">
      <path d="m 307.79,472 0,-477" id="path66" />
      <title id="title68">Line m</title>
      <desc id="desc70">m: x = -2</desc>
    </g>
  </g>
  <g transform="matrix(0.75540221,0,0,0.75540221,74.4425,94.593103)" id="g3754">
    <polygon style="font-style:normal;font-variant:normal;font-weight:normal;font-stretch:normal;letter-spacing:normal;word-spacing:normal;text-anchor:start;fill:#000000;fill-opacity:1;fill-rule:evenodd;stroke:#000000;stroke-width:0;stroke-linecap:butt;stroke-linejoin:miter;stroke-miterlimit:10.43299961;stroke-dasharray:none;stroke-dashoffset:0;stroke-opacity:1" points="244.35,480.61 244.35,479.83 250.95,479.83 250.95,480.61 " id="polygon3499" transform="matrix(4.86,0,0,-4.86,-955.14926,2754.0369)" />
    <path style="font-style:normal;font-variant:normal;font-weight:normal;font-stretch:normal;letter-spacing:normal;word-spacing:normal;text-anchor:start;fill:#000000;fill-opacity:1;fill-rule:evenodd;stroke:#000000;stroke-width:0;stroke-linecap:butt;stroke-linejoin:miter;stroke-miterlimit:10.43299961;stroke-dasharray:none;stroke-dashoffset:0;stroke-opacity:1" d="m 295.47454,426.8259 -0.8262,-0.3402 c -1.8954,3.2076 -3.1104,3.8394 -5.5404,3.8394 l -13.4622,0 9.5256,-10.1088 c 5.103,-5.3946 7.3386,-9.6714 7.3386,-14.2398 0,-5.6862 -4.131,-10.1088 -10.6434,-10.1088 -7.0956,0 -10.7406,4.7142 -11.9556,11.421 l 1.215,0.2916 c 2.2842,-5.589 4.3254,-7.4358 8.4564,-7.4358 4.9086,0 8.019,2.8674 8.019,8.0676 0,4.9086 -2.0898,9.234 -7.533,14.9202 l -10.206,10.8378 0,0.729 22.5018,0 z" id="path3501" />
  </g>
  <g ns0:preamble="/Users/Lizzie/Documents/Old mac/CMEP folder/underground-inkscape-preamble.tex" ns0:text="$x$" word-spacing="normal" letter-spacing="normal" font-size-adjust="none" font-stretch="normal" font-weight="normal" font-variant="normal" font-style="normal" stroke-miterlimit="10.433" xml:space="preserve" transform="matrix(4.86,0,0,-4.86,-402.09634,2744.0302)" id="g3693" style="font-style:normal;font-variant:normal;font-weight:normal;font-stretch:normal;letter-spacing:normal;word-spacing:normal;text-anchor:start;fill:none;fill-opacity:1;fill-rule:evenodd;stroke:#000000;stroke-linecap:butt;stroke-linejoin:miter;stroke-miterlimit:10.43299961;stroke-dasharray:none;stroke-dashoffset:0;stroke-opacity:1"><path id="path3695" d="m 227.04,480.64 -0.23,0.64 c -0.15,0.39 -0.37,0.88 -0.89,1.16 l -1.56,-0.39 0.03,-0.21 c 0.12,0.05 0.3,0.07 0.45,0.07 0.65,0 0.96,-0.48 1.16,-1.05 l 0.39,-1.09 -0.77,-1.19 c -0.38,-0.58 -0.68,-0.7 -0.83,-0.7 -0.29,0 -0.25,0.24 -0.55,0.24 -0.3,0 -0.45,-0.25 -0.45,-0.44 0,-0.26 0.19,-0.55 0.61,-0.55 0.67,0 1.01,0.51 1.39,1.08 l 0.75,1.16 0.47,-1.33 c 0.15,-0.43 0.38,-0.91 0.86,-0.91 0.69,0 1.22,1.13 1.37,1.31 l -0.17,0.12 c -0.25,-0.51 -0.53,-0.68 -0.72,-0.68 -0.54,0 -0.81,1.6 -1.16,2.33 l 0.65,1 c 0.16,0.26 0.29,0.45 0.65,0.45 0.2,0 0.26,-0.1 0.52,-0.1 0.31,0 0.46,0.27 0.46,0.49 0,0.25 -0.2,0.39 -0.58,0.39 -0.59,0 -1.01,-0.52 -1.31,-0.99 z" style="fill:#000000;stroke-width:0" /></g>  <g style="font-style:normal;font-variant:normal;font-weight:normal;font-stretch:normal;letter-spacing:normal;word-spacing:normal;text-anchor:start;fill:none;fill-opacity:1;fill-rule:evenodd;stroke:#000000;stroke-linecap:butt;stroke-linejoin:miter;stroke-miterlimit:10.43299961;stroke-dasharray:none;stroke-dashoffset:0;stroke-opacity:1" id="g3791" transform="matrix(4.86,0,0,-4.86,-671.19609,2356.2625)" xml:space="preserve" stroke-miterlimit="10.433" font-style="normal" font-variant="normal" font-weight="normal" font-stretch="normal" font-size-adjust="none" letter-spacing="normal" word-spacing="normal" ns0:text="$y$" ns0:preamble="/Users/Lizzie/Documents/Old mac/CMEP folder/underground-inkscape-preamble.tex"><path style="fill:#000000;stroke-width:0" d="m 226.63,480.86 -0.01,0.08 -0.01,0.08 -0.01,0.07 -0.01,0.07 -0.01,0.07 -0.01,0.07 -0.01,0.06 -0.01,0.06 -0.01,0.06 -0.01,0.05 -0.01,0.06 -0.01,0.05 -0.01,0.05 -0.01,0.04 -0.02,0.05 -0.01,0.05 -0.01,0.04 -0.02,0.04 -0.01,0.04 -0.01,0.04 -0.04,0.08 -0.03,0.07 -0.04,0.08 -0.04,0.07 -0.04,0.07 -0.05,0.07 -1.78,-0.3 0.02,-0.18 c 0.11,0.01 0.3,0.04 0.43,0.04 0.67,0 0.77,-0.71 0.83,-1.24 l 0.45,-3.7 c -0.31,-0.48 -0.98,-1.21 -1.18,-1.21 -0.19,0 -0.17,0.37 -0.68,0.37 -0.15,0 -0.47,-0.13 -0.47,-0.49 0,-0.28 0.22,-0.64 0.66,-0.64 0.81,0 1.58,1.15 2.44,2.24 0.5,0.62 2.42,3.46 2.42,4.38 0,0.46 -0.3,0.73 -0.68,0.73 -0.34,0 -0.56,-0.21 -0.56,-0.47 0,-0.45 0.62,-0.57 0.62,-0.82 0,-0.21 -0.09,-0.45 -0.33,-0.88 -0.26,-0.49 -0.68,-1.19 -1.4,-2.18 z" id="path3793" /></g></svg>