<?xml version='1.0' ?><svg xmlns:dc="http://purl.org/dc/elements/1.1/" xmlns:cc="http://creativecommons.org/ns#" xmlns:rdf="http://www.w3.org/1999/02/22-rdf-syntax-ns#" xmlns:svg="http://www.w3.org/2000/svg" xmlns="http://www.w3.org/2000/svg" id="svg2" version="1.1" width="222.02082" height="163.28991" viewBox="67.19999946666664 461.6767593282024 177.616658819312 130.63193007352265" preserveAspectRatio="none">
  <metadata id="metadata79">
    <rdf:RDF>
      <cc:Work rdf:about="">
        <dc:format>image/svg+xml</dc:format>
        <dc:type rdf:resource="http://purl.org/dc/dcmitype/StillImage" />
        <dc:title />
      </cc:Work>
    </rdf:RDF>
  </metadata>
  <defs id="defs77">
    <marker orient="auto" refY="0.0" refX="0.0" id="Arrow2Mend" style="overflow:visible;">
      <path id="path4396" style="fill-rule:evenodd;stroke-width:0.625;stroke-linejoin:round;stroke:#000000;stroke-opacity:1;fill:#000000;fill-opacity:1" d="M 8.7185878,4.0337352 L -2.2072895,0.016013256 L 8.7185884,-4.0017078 C 6.9730900,-1.6296469 6.9831476,1.6157441 8.7185878,4.0337352 z " transform="scale(0.6) rotate(180) translate(0,0)" />
    </marker>
    <clipPath id="clip4">
      <path d="m 0,0 0,575 1060,0 0,-575 z" id="path50" />
    </clipPath>
    <clipPath id="clip5">
      <path d="m 0,0 0,575 1060,0 0,-575 z" id="path63" />
    </clipPath>
  </defs>
  <g style="stroke-width:1;stroke-linecap:square;stroke-linejoin:miter;stroke-miterlimit:10;stroke-dasharray:none;stroke-dashoffset:0" id="misc" transform="matrix(0.31195933,0,0,0.31195933,-4.5217711,423.87833)" />
  <path style="fill:none;fill-rule:evenodd;stroke:#000000;stroke-width:1.60000014;stroke-linecap:butt;stroke-linejoin:miter;stroke-miterlimit:4;stroke-dasharray:none;stroke-opacity:1;marker-end:url(#Arrow2Mend)" d="m 155.99999,529.8898 0,60" id="path4769" />
  <path style="fill:none;fill-rule:evenodd;stroke:#000000;stroke-width:0.72720009;stroke-linecap:butt;stroke-linejoin:miter;stroke-miterlimit:4;stroke-dasharray:2.90880028, 2.90880028;stroke-dashoffset:0;stroke-opacity:1" d="m 67.19998,525.8898 177.61667,0" id="path5065" />
  <path style="fill:none;fill-rule:evenodd;stroke:#000000;stroke-width:0.72736752;stroke-linecap:butt;stroke-linejoin:miter;stroke-miterlimit:4;stroke-dasharray:2.90947008, 2.90947008;stroke-dashoffset:0;stroke-opacity:1" d="m 155.99999,461.6768 0,56.213" id="path5067" />
  <g id="g3553" transform="matrix(3.0707965,0,0,3.0707965,-323.54481,-1088.6925)">
    <g transform="matrix(0.31195933,0,0,0.31195933,-4.5217711,427.80733)" id="g52" clip-path="url(#clip4)" style="stroke-width:1;stroke-linecap:square;stroke-linejoin:miter;stroke-miterlimit:10;stroke-dasharray:none;stroke-dashoffset:0">
      <g style="fill:#2b83ba;fill-opacity:1;fill-rule:nonzero;stroke:none" id="g54">
        <path id="path56" d="m 524.01,314.24 c 0,4.97 -4.03,9 -9,9 -4.97,0 -9,-4.03 -9,-9 0,-4.97 4.03,-9 9,-9 4.97,0 9,4.03 9,9 z" />
        <title id="title58">Point E</title>
        <desc id="desc60">Point E: Intersection point of f, g</desc>
      </g>
    </g>
    <g transform="matrix(0.31195933,0,0,0.31195933,-4.5217711,427.80733)" id="g65" clip-path="url(#clip5)" style="stroke-width:1;stroke-linecap:square;stroke-linejoin:miter;stroke-miterlimit:10;stroke-dasharray:none;stroke-dashoffset:0">
      <g style="fill:none;stroke:#000000;stroke-linecap:round;stroke-linejoin:round;stroke-opacity:1" id="g67">
        <path id="path69" d="m 524.01,314.24 c 0,4.97 -4.03,9 -9,9 -4.97,0 -9,-4.03 -9,-9 0,-4.97 4.03,-9 9,-9 4.97,0 9,4.03 9,9 z" />
        <title id="title71">Point E</title>
        <desc id="desc73">Point E: Intersection point of f, g</desc>
      </g>
    </g>
  </g>
  <g transform="matrix(0.9,0,0,0.9,87.898491,204.14432)" id="g7915">
    <path style="font-style:normal;font-variant:normal;font-weight:normal;font-stretch:normal;letter-spacing:normal;word-spacing:normal;text-anchor:start;fill:#000000;fill-opacity:1;fill-rule:evenodd;stroke:#000000;stroke-width:0;stroke-linecap:butt;stroke-linejoin:miter;stroke-miterlimit:10.43299961;stroke-dasharray:none;stroke-dashoffset:0;stroke-opacity:1" d="m 43.065,397.035 -0.225,0.03 -0.21,0.015 -0.225,0.03 -0.21,0.03 -0.195,0.03 -0.21,0.045 -0.195,0.03 -0.18,0.03 -0.195,0.045 -0.18,0.045 -0.18,0.045 -0.165,0.045 -0.165,0.045 -0.165,0.06 -0.165,0.06 -0.165,0.06 -0.165,0.06 -0.15,0.075 -0.15,0.075 -0.15,0.075 -0.15,0.09 -0.15,0.075 -0.15,0.105 -0.135,0.09 -0.15,0.105 -0.135,0.105 -0.15,0.12 -0.135,0.12 -0.15,0.12 -0.135,0.135 -0.15,0.15 -0.135,0.135 c -1.26,1.305 -1.935,2.985 -1.935,4.89 0,1.245 0.33,2.505 0.825,3.405 0.63,1.125 1.74,1.785 3.15,1.785 L 39.93,408.9 c -1.665,0 -2.52,-1.77 -2.52,-4.47 0,-1.62 1.035,-2.04 2.055,-2.04 1.65,0 2.4,1.155 2.4,3.435 l 0,0 c 0,1.8 -0.66,3.075 -1.935,3.075 l -0.195,0.495 c 1.17,0 2.16,-0.48 2.82,-1.29 0.585,-0.705 0.915,-1.71 0.915,-2.835 0,-2.28 -1.29,-3.705 -3.36,-3.705 -0.795,0 -1.395,0.135 -2.265,0.795 0.48,-2.67 2.475,-4.575 5.265,-5.04 z" id="path7836" />
    <path style="font-style:normal;font-variant:normal;font-weight:normal;font-stretch:normal;letter-spacing:normal;word-spacing:normal;text-anchor:start;fill:#000000;fill-opacity:1;fill-rule:evenodd;stroke:#000000;stroke-width:0;stroke-linecap:butt;stroke-linejoin:miter;stroke-miterlimit:10.43299961;stroke-dasharray:none;stroke-dashoffset:0;stroke-opacity:1" d="m 52.485,403.305 0,-0.345 -0.015,-0.33 -0.015,-0.315 -0.045,-0.315 -0.03,-0.315 -0.06,-0.3 -0.045,-0.285 -0.075,-0.285 -0.075,-0.27 -0.075,-0.27 -0.09,-0.255 -0.105,-0.255 -0.105,-0.24 -0.105,-0.225 -0.12,-0.21 -0.135,-0.21 -0.135,-0.195 -0.135,-0.195 -0.15,-0.165 -0.15,-0.165 -0.165,-0.15 -0.165,-0.15 -0.165,-0.12 -0.18,-0.12 -0.18,-0.105 -0.195,-0.09 -0.195,-0.075 -0.195,-0.06 -0.195,-0.045 -0.21,-0.045 -0.21,-0.015 -0.225,-0.015 c -2.85,0 -4.08,2.895 -4.08,6.03 0,2.895 0.975,6.195 4.02,6.195 l 0,-0.465 c -1.53,0 -2.31,-2.01 -2.31,-5.61 0,-3.6 0.795,-5.685 2.265,-5.685 1.575,0 2.355,2.07 2.355,5.76 l 0,0 c 0,3.51 -0.81,5.535 -2.31,5.535 l 0,0.465 c 2.895,0 4.005,-3.045 4.005,-6.09 z" id="path7838" />
    <path style="font-style:normal;font-variant:normal;font-weight:normal;font-stretch:normal;letter-spacing:normal;word-spacing:normal;text-anchor:start;fill:#000000;fill-opacity:1;fill-rule:evenodd;stroke:#000000;stroke-width:0;stroke-linecap:butt;stroke-linejoin:miter;stroke-miterlimit:10.43299961;stroke-dasharray:none;stroke-dashoffset:0;stroke-opacity:1" d="m 67.965,397.425 -4.2,0 0,0.33 c 0.78,0.09 1.095,0.135 1.395,0.465 0.27,0.3 0.345,0.84 0.345,1.74 l 0,6.015 -6.87,-8.55 -3.015,0 0,0.33 c 0.87,0 1.14,0.225 1.725,0.945 l 0,7.785 c 0,1.905 -0.27,2.16 -1.725,2.325 l 0,0.345 4.155,0 0,-0.345 c -1.365,-0.195 -1.65,-0.495 -1.65,-2.325 l 0,-6.87 7.83,9.72 0.33,0 0,-9.165 c 0,-1.395 0.18,-1.785 0.51,-2.085 0.225,-0.195 0.495,-0.255 1.17,-0.33 z" id="path7840" />
  </g>
  <g transform="matrix(0.9,0,0,0.9,98.848038,147.9886)" id="g7910">
    <path style="font-style:normal;font-variant:normal;font-weight:normal;font-stretch:normal;letter-spacing:normal;word-spacing:normal;text-anchor:start;fill:#000000;fill-opacity:1;fill-rule:evenodd;stroke:#000000;stroke-width:0;stroke-linecap:butt;stroke-linejoin:miter;stroke-miterlimit:10.43299961;stroke-dasharray:none;stroke-dashoffset:0;stroke-opacity:1" d="m 80.04,397.035 -0.225,0.03 -0.225,0.015 -0.21,0.03 -0.21,0.03 -0.21,0.03 -0.195,0.045 -0.195,0.03 -0.195,0.03 -0.18,0.045 -0.18,0.045 -0.18,0.045 -0.18,0.045 -0.165,0.045 -0.165,0.06 -0.165,0.06 -0.165,0.06 -0.15,0.06 -0.165,0.075 -0.15,0.075 -0.15,0.075 -0.15,0.09 -0.15,0.075 -0.135,0.105 -0.15,0.09 -0.15,0.105 -0.135,0.105 -0.15,0.12 -0.135,0.12 -0.15,0.12 -0.135,0.135 -0.15,0.15 -0.135,0.135 c -1.26,1.305 -1.935,2.985 -1.935,4.89 0,1.245 0.33,2.505 0.84,3.405 0.615,1.125 1.74,1.785 3.135,1.785 L 76.89,408.9 c -1.665,0 -2.52,-1.77 -2.52,-4.47 0,-1.62 1.05,-2.04 2.055,-2.04 1.65,0 2.4,1.155 2.4,3.435 l 0,0 c 0,1.8 -0.645,3.075 -1.935,3.075 l -0.195,0.495 c 1.17,0 2.175,-0.48 2.82,-1.29 0.6,-0.705 0.915,-1.71 0.915,-2.835 0,-2.28 -1.275,-3.705 -3.36,-3.705 -0.78,0 -1.38,0.135 -2.25,0.795 0.48,-2.67 2.46,-4.575 5.25,-5.04 z" id="path7842" />
    <path style="font-style:normal;font-variant:normal;font-weight:normal;font-stretch:normal;letter-spacing:normal;word-spacing:normal;text-anchor:start;fill:#000000;fill-opacity:1;fill-rule:evenodd;stroke:#000000;stroke-width:0;stroke-linecap:butt;stroke-linejoin:miter;stroke-miterlimit:10.43299961;stroke-dasharray:none;stroke-dashoffset:0;stroke-opacity:1" d="m 92.46,409.155 0,-0.27 c -0.78,-0.06 -1.35,-0.375 -2.085,-1.29 l -2.715,-3.435 0.525,-0.48 c 2.175,-2.025 2.7,-2.235 3.825,-2.235 l 0,-0.27 -3.615,0 0,0.255 c 0.69,0.015 0.885,0.09 0.885,0.315 0,0.165 -0.165,0.39 -0.405,0.615 l -2.445,2.16 0,-7.425 -0.06,-0.045 c -0.705,0.21 -1.155,0.36 -2.22,0.645 l -0.54,0.135 0,0.285 c 0.24,-0.015 0.39,-0.03 0.57,-0.03 0.6,0 0.765,0.225 0.765,1.08 l 0,8.535 c 0,0.915 -0.06,0.975 -1.335,1.185 l 0,0.27 4.155,0 0,-0.27 -0.345,-0.015 c -0.72,-0.045 -0.99,-0.285 -0.99,-0.915 l 0,-3.255 2.67,3.51 c 0.15,0.18 0.195,0.315 0.195,0.405 0,0.165 -0.165,0.27 -0.375,0.27 l -0.33,0 0,0.27 z" id="path7844" />
    <path style="font-style:normal;font-variant:normal;font-weight:normal;font-stretch:normal;letter-spacing:normal;word-spacing:normal;text-anchor:start;fill:#000000;fill-opacity:1;fill-rule:evenodd;stroke:#000000;stroke-width:0;stroke-linecap:butt;stroke-linejoin:miter;stroke-miterlimit:10.43299961;stroke-dasharray:none;stroke-dashoffset:0;stroke-opacity:1" d="m 100.605,402.27 0,-0.69 -1.38,0 c -0.345,0 -0.615,-0.045 -0.975,-0.165 l -0.39,-0.15 c -0.48,-0.18 -0.96,-0.27 -1.41,-0.27 -1.665,0 -2.97,1.275 -2.97,2.895 0,1.11 0.45,1.785 1.65,2.37 -0.255,0.255 -0.495,0.48 -0.765,0.705 -0.585,0.51 -0.825,0.87 -0.825,1.23 0,0.39 0.195,0.585 0.945,0.93 l 0.375,0.06 c 0.6,0.12 2.01,0.225 2.88,0.225 1.62,0 2.205,0.21 2.205,0.87 l 0,0 c 0,1.02 -1.35,1.725 -3.375,1.725 -1.575,0 -2.58,-0.525 -2.58,-1.305 0,-0.405 0.165,-0.66 0.87,-1.515 l -0.375,-0.06 c -1.275,0.93 -1.74,1.515 -1.74,2.16 0,0.945 1.365,1.725 3.075,1.725 1.275,0 2.625,-0.435 3.555,-1.14 0.72,-0.57 1.065,-1.14 1.065,-1.86 0,-1.095 -0.84,-1.83 -2.145,-1.89 L 96,408.015 c -0.96,-0.06 -1.38,-0.195 -1.38,-0.48 0,-0.36 0.585,-0.975 1.065,-1.11 l 0.33,0.03 c 0.315,0.03 0.57,0.06 0.675,0.06 l 0.09,-0.45 c -1.095,0 -1.83,-1.155 -1.83,-2.85 l 0,-0.06 c 0,-1.035 0.495,-1.65 1.32,-1.65 0.54,0 1.005,0.3 1.29,0.825 0.345,0.615 0.54,1.41 0.54,2.145 0,0.975 -0.525,1.59 -1.32,1.59 l -0.09,0.45 c 0.63,0 1.275,-0.27 1.845,-0.69 0.645,-0.48 0.93,-1.14 0.93,-2.055 0,-0.525 -0.09,-0.93 -0.345,-1.5 z" id="path7846" />
  </g>
</svg>