<?xml version='1.0' ?><svg xmlns:ns0="http://www.iki.fi/pav/software/textext/" xmlns:dc="http://purl.org/dc/elements/1.1/" xmlns:cc="http://creativecommons.org/ns#" xmlns:rdf="http://www.w3.org/1999/02/22-rdf-syntax-ns#" xmlns:svg="http://www.w3.org/2000/svg" xmlns="http://www.w3.org/2000/svg" id="svg3567" version="1.1" width="236.71791" height="213.12357" viewBox="172.02999562055655 324.02275994360053 177.53843830052813 159.84268272237318" preserveAspectRatio="none">
  <metadata id="metadata3683">
    <rdf:RDF>
      <cc:Work rdf:about="">
        <dc:format>image/svg+xml</dc:format>
        <dc:type rdf:resource="http://purl.org/dc/dcmitype/StillImage" />
        <dc:title />
      </cc:Work>
    </rdf:RDF>
  </metadata>
  <defs id="defs3681">
    <marker style="overflow:visible;" id="marker6892" refX="0.0" refY="0.0" orient="auto">
      <path transform="scale(0.6) rotate(180) translate(0,0)" d="M 8.7185878,4.0337352 L -2.2072895,0.016013256 L 8.7185884,-4.0017078 C 6.9730900,-1.6296469 6.9831476,1.6157441 8.7185878,4.0337352 z " style="fill-rule:evenodd;stroke-width:0.625;stroke-linejoin:round;stroke:#000000;stroke-opacity:1;fill:#000000;fill-opacity:1" id="path6894" />
    </marker>
    <marker orient="auto" refY="0.0" refX="0.0" id="Arrow2Mend" style="overflow:visible;">
      <path id="path5565" style="fill-rule:evenodd;stroke-width:0.625;stroke-linejoin:round;stroke:#000000;stroke-opacity:1;fill:#000000;fill-opacity:1" d="M 8.7185878,4.0337352 L -2.2072895,0.016013256 L 8.7185884,-4.0017078 C 6.9730900,-1.6296469 6.9831476,1.6157441 8.7185878,4.0337352 z " transform="scale(0.6) rotate(180) translate(0,0)" />
    </marker>
    <clipPath id="clip1">
      <path id="path3576" d="m 0,0 0,575 1060,0 0,-575 z" />
    </clipPath>
    <clipPath id="clip2">
      <path id="path3589" d="m 0,0 0,575 1060,0 0,-575 z" />
    </clipPath>
    <clipPath id="clip3">
      <path id="path3602" d="m 0,0 0,575 1060,0 0,-575 z" />
    </clipPath>
    <clipPath id="clip4">
      <path id="path3615" d="m 0,0 0,575 1060,0 0,-575 z" />
    </clipPath>
    <clipPath id="clip7">
      <path id="path3654" d="m 0,0 0,575 1060,0 0,-575 z" />
    </clipPath>
    <clipPath id="clip8">
      <path id="path3667" d="m 0,0 0,575 1060,0 0,-575 z" />
    </clipPath>
    <marker orient="auto" refY="0.0" refX="0.0" id="marker4972" style="overflow:visible;">
      <path id="path4974" style="fill-rule:evenodd;stroke-width:0.625;stroke-linejoin:round;stroke:#d7191c;stroke-opacity:1;fill:#d7191c;fill-opacity:1" d="M 8.7185878,4.0337352 L -2.2072895,0.016013256 L 8.7185884,-4.0017078 C 6.9730900,-1.6296469 6.9831476,1.6157441 8.7185878,4.0337352 z " transform="scale(0.6) rotate(180) translate(0,0)" />
    </marker>
    <marker style="overflow:visible;" id="marker5243" refX="0.0" refY="0.0" orient="auto">
      <path transform="scale(0.6) rotate(180) translate(0,0)" d="M 8.7185878,4.0337352 L -2.2072895,0.016013256 L 8.7185884,-4.0017078 C 6.9730900,-1.6296469 6.9831476,1.6157441 8.7185878,4.0337352 z " style="fill-rule:evenodd;stroke-width:0.625;stroke-linejoin:round;stroke:#000000;stroke-opacity:1;fill:#000000;fill-opacity:1" id="path5245" />
    </marker>
  </defs>
  <g transform="translate(0,266.88979)" id="misc" style="stroke-width:1;stroke-linecap:square;stroke-linejoin:miter;stroke-miterlimit:10;stroke-dasharray:none;stroke-dashoffset:0" />
  <g transform="matrix(0.39447331,0,0,0.39447331,56.893709,275.05212)" id="g3578" clip-path="url(#clip1)" style="stroke-width:1;stroke-linecap:square;stroke-linejoin:miter;stroke-miterlimit:10;stroke-dasharray:none;stroke-dashoffset:0">
    <g style="fill:#fdae61;fill-opacity:0.24706002;fill-rule:nonzero;stroke:none" id="g3580">
      <path id="path3582" d="m 488.83,260.25 c -20.69,10.03 -33.82,31 -33.82,53.99 l 60,0 z" />
      <title id="title3584">Angle Ã&#131;Â&#142;Ã&#130;Â²</title>
      <desc id="desc3586">Angle Ã&#131;Â&#142;Ã&#130;Â²: Angle between R, O, S</desc>
    </g>
  </g>
  <g transform="matrix(0.39544837,0,0,0.39544837,56.269685,274.62385)" id="g3591" clip-path="url(#clip2)" style="stroke-width:1;stroke-linecap:square;stroke-linejoin:miter;stroke-miterlimit:10;stroke-dasharray:none;stroke-dashoffset:0">
    <g style="fill:none;stroke:#fdae61;stroke-width:2;stroke-linecap:round;stroke-linejoin:round;stroke-opacity:1" id="g3593">
      <path id="path3595" d="m 488.83,260.25 c -20.69,10.03 -33.82,31 -33.82,53.99 l 60,0 z" />
      <title id="title3597">Angle Ã&#131;Â&#142;Ã&#130;Â²</title>
      <desc id="desc3599">Angle Ã&#131;Â&#142;Ã&#130;Â²: Angle between R, O, S</desc>
    </g>
  </g>
  <path style="fill:none;fill-rule:evenodd;stroke:#000000;stroke-width:1.60000015;stroke-linecap:butt;stroke-linejoin:miter;stroke-miterlimit:4;stroke-dasharray:none;stroke-opacity:1;marker-end:url(#marker6892)" d="M 257.1781,393.0664 226.70924,331.19594" id="path6872" />
  <g transform="matrix(0.25291457,0,0,0.27358084,130.54442,313.04136)" id="g3604" clip-path="url(#clip3)" style="stroke:#000000;stroke-width:2.76454808;stroke-linecap:square;stroke-linejoin:miter;stroke-miterlimit:4;stroke-dasharray:11.05819233,11.05819233;stroke-dashoffset:0;stroke-opacity:1">
    <g style="fill:none;stroke:#000000;stroke-width:2.76454808;stroke-linecap:butt;stroke-linejoin:round;stroke-miterlimit:4;stroke-dasharray:11.05819233,11.05819233;stroke-dashoffset:0;stroke-opacity:1" id="g3606">
      <path id="path3608" d="m 164.03,314.24 701.97,0" style="stroke:#000000;stroke-width:2.76454808;stroke-miterlimit:4;stroke-dasharray:11.05819233,11.05819233;stroke-dashoffset:0;stroke-opacity:1" />
      <title id="title3610">Segment f</title>
      <desc id="desc3612">Segment f: Segment [A, B]</desc>
    </g>
  </g>
  <g transform="matrix(0.27358084,0,0,0.3187883,119.15454,303.76919)" id="g3617" clip-path="url(#clip4)" style="stroke:#000000;stroke-width:2.46240735;stroke-linecap:square;stroke-linejoin:miter;stroke-miterlimit:4;stroke-dasharray:9.8496291, 9.8496291;stroke-dashoffset:0;stroke-opacity:1">
    <g style="fill:none;stroke:#000000;stroke-width:2.46240735;stroke-linecap:butt;stroke-linejoin:round;stroke-miterlimit:4;stroke-dasharray:9.8496291, 9.8496291;stroke-dashoffset:0;stroke-opacity:1" id="g3619">
      <path id="path3621" d="m 515.01,63.533 0,501.407" style="stroke:#000000;stroke-width:2.46240735;stroke-miterlimit:4;stroke-dasharray:9.8496291, 9.8496291;stroke-dashoffset:0;stroke-opacity:1" />
      <title id="title3623">Segment g</title>
      <desc id="desc3625">Segment g: Segment [C, D]</desc>
    </g>
  </g>
  <path style="fill:none;fill-rule:evenodd;stroke:#000000;stroke-width:1.60000015;stroke-linecap:butt;stroke-linejoin:miter;stroke-miterlimit:4;stroke-dasharray:none;stroke-opacity:1;marker-end:url(#Arrow2Mend)" d="m 268.00003,399.09866 59.36618,0" id="path5836" />
  <g style="font-style:normal;font-variant:normal;font-weight:normal;font-stretch:normal;letter-spacing:normal;word-spacing:normal;text-anchor:start;fill:none;fill-opacity:1;fill-rule:evenodd;stroke:#000000;stroke-linecap:butt;stroke-linejoin:miter;stroke-miterlimit:10.43299961;stroke-dasharray:none;stroke-dashoffset:0;stroke-opacity:1" id="g7155" transform="matrix(1.35,0,0,-1.35,-6.8439087,1063.2642)" xml:space="preserve" stroke-miterlimit="10.433" font-style="normal" font-variant="normal" font-weight="normal" font-stretch="normal" font-size-adjust="none" letter-spacing="normal" word-spacing="normal" ns0:text="$\\quantity{12}{N}$" ns0:preamble="/Users/Lizzie/Documents/Old mac/CMEP folder/underground-inkscape-preamble.tex"><path style="fill:#000000;stroke-width:0" d="m 228.1,477.23 0,0.18 c -0.89,0 -1.13,0.21 -1.13,0.72 l 0,7.05 -0.1,0.04 -2.12,-1.08 0,-0.16 0.32,0.11 c 0.21,0.09 0.41,0.15 0.53,0.15 0.25,0 0.36,-0.18 0.36,-0.58 l 0,-5.3 c 0,-0.65 -0.25,-0.9 -1.13,-0.95 l 0,-0.18 z" id="path7157" /><path style="fill:#000000;stroke-width:0" d="m 234.97,478.85 -0.17,0.07 c -0.39,-0.66 -0.64,-0.79 -1.13,-0.79 l -2.77,0 1.95,2.08 c 1.05,1.11 1.52,1.99 1.52,2.93 0,1.17 -0.86,2.08 -2.19,2.08 -1.46,0 -2.22,-0.97 -2.47,-2.35 l 0.25,-0.06 c 0.47,1.15 0.89,1.53 1.74,1.53 1.01,0 1.65,-0.59 1.65,-1.66 0,-1.01 -0.43,-1.9 -1.54,-3.07 l -2.11,-2.23 0,-0.15 4.63,0 z" id="path7159" /><path style="fill:#000000;stroke-width:0" d="m 245.31,485.05 -2.8,0 0,-0.22 c 0.52,-0.06 0.73,-0.09 0.93,-0.31 0.18,-0.2 0.23,-0.56 0.23,-1.16 l 0,-4.01 -4.58,5.7 -2.01,0 0,-0.22 c 0.58,0 0.76,-0.15 1.15,-0.63 l 0,-5.19 c 0,-1.27 -0.18,-1.44 -1.15,-1.55 l 0,-0.23 2.77,0 0,0.23 c -0.91,0.13 -1.1,0.33 -1.1,1.55 l 0,4.58 5.22,-6.48 0.22,0 0,6.11 c 0,0.93 0.12,1.19 0.34,1.39 0.15,0.13 0.33,0.17 0.78,0.22 z" id="path7161" /></g>  <g id="g7506" transform="matrix(0.8,0,0,0.8,187.09558,64.354808)">
    <path id="path7407" d="m 43.065,397.035 -0.225,0.03 -0.21,0.015 -0.225,0.03 -0.21,0.03 -0.195,0.03 -0.21,0.045 -0.195,0.03 -0.18,0.03 -0.195,0.045 -0.18,0.045 -0.18,0.045 -0.165,0.045 -0.165,0.045 -0.165,0.06 -0.165,0.06 -0.165,0.06 -0.165,0.06 -0.15,0.075 -0.15,0.075 -0.15,0.075 -0.15,0.09 -0.15,0.075 -0.15,0.105 -0.135,0.09 -0.15,0.105 -0.135,0.105 -0.15,0.12 -0.135,0.12 -0.15,0.12 -0.135,0.135 -0.15,0.15 -0.135,0.135 c -1.26,1.305 -1.935,2.985 -1.935,4.89 0,1.245 0.33,2.505 0.825,3.405 0.63,1.125 1.74,1.785 3.15,1.785 L 39.93,408.9 c -1.665,0 -2.52,-1.77 -2.52,-4.47 0,-1.62 1.035,-2.04 2.055,-2.04 1.65,0 2.4,1.155 2.4,3.435 l 0,0 c 0,1.8 -0.66,3.075 -1.935,3.075 l -0.195,0.495 c 1.17,0 2.16,-0.48 2.82,-1.29 0.585,-0.705 0.915,-1.71 0.915,-2.835 0,-2.28 -1.29,-3.705 -3.36,-3.705 -0.795,0 -1.395,0.135 -2.265,0.795 0.48,-2.67 2.475,-4.575 5.265,-5.04 z" style="font-style:normal;font-variant:normal;font-weight:normal;font-stretch:normal;letter-spacing:normal;word-spacing:normal;text-anchor:start;fill:#000000;fill-opacity:1;fill-rule:evenodd;stroke:#000000;stroke-width:0;stroke-linecap:butt;stroke-linejoin:miter;stroke-miterlimit:10.43299961;stroke-dasharray:none;stroke-dashoffset:0;stroke-opacity:1" />
    <path id="path7409" d="m 52.485,403.305 0,-0.345 -0.015,-0.33 -0.015,-0.315 -0.045,-0.315 -0.03,-0.315 -0.06,-0.3 -0.045,-0.285 -0.075,-0.285 -0.075,-0.27 -0.075,-0.27 -0.09,-0.255 -0.105,-0.255 -0.105,-0.24 -0.105,-0.225 -0.12,-0.21 -0.135,-0.21 -0.135,-0.195 -0.135,-0.195 -0.15,-0.165 -0.15,-0.165 -0.165,-0.15 -0.165,-0.15 -0.165,-0.12 -0.18,-0.12 -0.18,-0.105 -0.195,-0.09 -0.195,-0.075 -0.195,-0.06 -0.195,-0.045 -0.21,-0.045 -0.21,-0.015 -0.225,-0.015 c -2.85,0 -4.08,2.895 -4.08,6.03 0,2.895 0.975,6.195 4.02,6.195 l 0,-0.465 c -1.53,0 -2.31,-2.01 -2.31,-5.61 0,-3.6 0.795,-5.685 2.265,-5.685 1.575,0 2.355,2.07 2.355,5.76 l 0,0 c 0,3.51 -0.81,5.535 -2.31,5.535 l 0,0.465 c 2.895,0 4.005,-3.045 4.005,-6.09 z" style="font-style:normal;font-variant:normal;font-weight:normal;font-stretch:normal;letter-spacing:normal;word-spacing:normal;text-anchor:start;fill:#000000;fill-opacity:1;fill-rule:evenodd;stroke:#000000;stroke-width:0;stroke-linecap:butt;stroke-linejoin:miter;stroke-miterlimit:10.43299961;stroke-dasharray:none;stroke-dashoffset:0;stroke-opacity:1" />
    <path id="path7411" d="m 57.045,399.825 0,-0.105 -0.015,-0.09 -0.015,-0.09 -0.015,-0.075 -0.015,-0.09 -0.03,-0.09 -0.015,-0.075 -0.045,-0.09 -0.03,-0.075 -0.045,-0.075 -0.03,-0.075 -0.045,-0.075 -0.06,-0.075 -0.045,-0.06 -0.06,-0.075 -0.06,-0.06 -0.06,-0.06 -0.06,-0.06 -0.075,-0.045 -0.06,-0.045 -0.075,-0.06 -0.075,-0.03 -0.075,-0.045 -0.075,-0.045 -0.09,-0.03 -0.075,-0.03 -0.09,-0.015 -0.075,-0.03 -0.09,-0.015 -0.09,0 -0.09,-0.015 -0.09,0 0,0.87 c 0.48,0 0.885,0.405 0.885,0.93 l 0,0 c 0,0.51 -0.39,0.915 -0.915,0.915 -0.51,0 -0.915,-0.39 -0.915,-0.945 0,-0.495 0.39,-0.9 0.945,-0.9 l 0,-0.87 c -1.02,0 -1.83,0.765 -1.83,1.77 0,1.02 0.795,1.815 1.8,1.815 1.005,0 1.8,-0.795 1.8,-1.785 z" style="font-style:normal;font-variant:normal;font-weight:normal;font-stretch:normal;letter-spacing:normal;word-spacing:normal;text-anchor:start;fill:#000000;fill-opacity:1;fill-rule:evenodd;stroke:#000000;stroke-width:0;stroke-linecap:butt;stroke-linejoin:miter;stroke-miterlimit:10.43299961;stroke-dasharray:none;stroke-dashoffset:0;stroke-opacity:1" />
  </g>
  <g id="g7501" transform="matrix(0.9,0,0,0.9,211.99443,24.213124)">
    <path id="path7413" d="m 63.165,400.11 0.06,-0.12 0.075,-0.105 0.075,-0.12 0.06,-0.105 0.075,-0.105 0.075,-0.105 0.075,-0.09 0.075,-0.09 0.075,-0.09 0.075,-0.075 0.075,-0.09 0.075,-0.075 0.075,-0.06 0.075,-0.075 0.075,-0.06 0.09,-0.06 0.075,-0.06 0.09,-0.045 0.075,-0.045 0.09,-0.045 0.09,-0.045 0.09,-0.03 0.09,-0.045 0.09,-0.03 0.09,-0.015 0.09,-0.03 0.09,-0.015 0.105,-0.015 0.09,-0.015 0.105,0 0.105,-0.015 0.09,0 c 1.185,0 1.92,0.6 1.92,1.815 0,1.08 -0.57,1.875 -1.44,2.37 -0.345,0.21 -0.81,0.405 -1.485,0.63 l 0,0.255 c 1.005,0 1.425,0.045 1.815,0.18 1.23,0.345 1.845,1.215 1.845,2.565 0,1.5 -0.99,2.715 -2.31,2.715 -0.495,0 -0.87,-0.09 -1.53,-0.555 -0.495,-0.36 -0.78,-0.465 -1.08,-0.465 -0.405,0 -0.735,0.27 -0.735,0.645 0,0.63 0.705,1.005 1.995,1.005 1.575,0 3.27,-0.51 4.125,-1.65 0.51,-0.675 0.81,-1.545 0.81,-2.475 0,-0.915 -0.285,-1.74 -0.78,-2.28 -0.375,-0.39 -0.69,-0.6 -1.47,-0.945 1.185,-0.705 1.65,-1.59 1.65,-2.445 0,-1.455 -1.125,-2.43 -2.775,-2.43 -1.845,0 -2.97,1.2 -3.48,2.88 z" style="font-style:normal;font-variant:normal;font-weight:normal;font-stretch:normal;letter-spacing:normal;word-spacing:normal;text-anchor:start;fill:#000000;fill-opacity:1;fill-rule:evenodd;stroke:#000000;stroke-width:0;stroke-linecap:butt;stroke-linejoin:miter;stroke-miterlimit:10.43299961;stroke-dasharray:none;stroke-dashoffset:0;stroke-opacity:1" />
    <path id="path7415" d="m 82.425,409.155 0,-0.27 c -0.78,-0.06 -1.35,-0.375 -2.07,-1.29 l -2.73,-3.435 0.525,-0.48 c 2.175,-2.025 2.7,-2.235 3.825,-2.235 l 0,-0.27 -3.615,0 0,0.255 c 0.69,0.015 0.885,0.09 0.885,0.315 0,0.165 -0.165,0.39 -0.405,0.615 l -2.43,2.16 0,-7.425 -0.075,-0.045 c -0.69,0.21 -1.155,0.36 -2.22,0.645 l -0.54,0.135 0,0.285 c 0.24,-0.015 0.39,-0.03 0.57,-0.03 0.6,0 0.765,0.225 0.765,1.08 l 0,8.535 c 0,0.915 -0.06,0.975 -1.335,1.185 l 0,0.27 4.155,0 0,-0.27 -0.345,-0.015 c -0.72,-0.045 -0.975,-0.285 -0.975,-0.915 l 0,-3.255 2.655,3.51 c 0.15,0.18 0.195,0.315 0.195,0.405 0,0.165 -0.15,0.27 -0.375,0.27 l -0.33,0 0,0.27 z" style="font-style:normal;font-variant:normal;font-weight:normal;font-stretch:normal;letter-spacing:normal;word-spacing:normal;text-anchor:start;fill:#000000;fill-opacity:1;fill-rule:evenodd;stroke:#000000;stroke-width:0;stroke-linecap:butt;stroke-linejoin:miter;stroke-miterlimit:10.43299961;stroke-dasharray:none;stroke-dashoffset:0;stroke-opacity:1" />
    <path id="path7417" d="m 90.57,402.27 0,-0.69 -1.365,0 c -0.36,0 -0.63,-0.045 -0.99,-0.165 l -0.39,-0.15 c -0.48,-0.18 -0.96,-0.27 -1.41,-0.27 -1.665,0 -2.97,1.275 -2.97,2.895 0,1.11 0.465,1.785 1.65,2.37 -0.255,0.255 -0.495,0.48 -0.765,0.705 -0.585,0.51 -0.81,0.87 -0.81,1.23 0,0.39 0.195,0.585 0.93,0.93 l 0.375,0.06 c 0.6,0.12 2.01,0.225 2.88,0.225 1.62,0 2.205,0.21 2.205,0.87 l 0,0 c 0,1.02 -1.35,1.725 -3.375,1.725 -1.56,0 -2.58,-0.525 -2.58,-1.305 0,-0.405 0.165,-0.66 0.87,-1.515 l -0.375,-0.06 c -1.275,0.93 -1.74,1.515 -1.74,2.16 0,0.945 1.365,1.725 3.075,1.725 1.275,0 2.625,-0.435 3.555,-1.14 0.735,-0.57 1.065,-1.14 1.065,-1.86 0,-1.095 -0.84,-1.83 -2.145,-1.89 l -2.295,-0.105 c -0.96,-0.06 -1.38,-0.195 -1.38,-0.48 0,-0.36 0.585,-0.975 1.065,-1.11 l 0.33,0.03 c 0.33,0.03 0.57,0.06 0.675,0.06 l 0.09,-0.45 c -1.095,0 -1.83,-1.155 -1.83,-2.85 l 0,-0.06 c 0,-1.035 0.495,-1.65 1.32,-1.65 0.555,0 1.005,0.3 1.29,0.825 0.345,0.615 0.54,1.41 0.54,2.145 0,0.975 -0.525,1.59 -1.32,1.59 l -0.09,0.45 c 0.63,0 1.275,-0.27 1.845,-0.69 0.645,-0.48 0.93,-1.14 0.93,-2.055 0,-0.525 -0.09,-0.93 -0.345,-1.5 z" style="font-style:normal;font-variant:normal;font-weight:normal;font-stretch:normal;letter-spacing:normal;word-spacing:normal;text-anchor:start;fill:#000000;fill-opacity:1;fill-rule:evenodd;stroke:#000000;stroke-width:0;stroke-linecap:butt;stroke-linejoin:miter;stroke-miterlimit:10.43299961;stroke-dasharray:none;stroke-dashoffset:0;stroke-opacity:1" />
  </g>
  <g style="stroke-width:1;stroke-linecap:square;stroke-linejoin:miter;stroke-miterlimit:10;stroke-dasharray:none;stroke-dashoffset:0" id="misc-7" transform="matrix(0.31195933,0,0,0.31195933,47.291534,394.72752)" />
  <path id="path4904" d="m 260.28948,397.58038 -0.11686,64.64216" style="fill:none;fill-rule:evenodd;stroke:#d7191c;stroke-width:1.60000015;stroke-linecap:butt;stroke-linejoin:miter;stroke-miterlimit:4;stroke-dasharray:none;stroke-opacity:1;marker-end:url(#marker4972)" />
  <g transform="matrix(0.95797895,0,0,0.95797895,-233.51778,97.874361)" id="g4761">
    <g style="stroke-width:1;stroke-linecap:square;stroke-linejoin:miter;stroke-miterlimit:10;stroke-dasharray:none;stroke-dashoffset:0" clip-path="url(#clip7)" id="g3656">
      <g id="g3658" style="fill:#2b83ba;fill-opacity:1;fill-rule:nonzero;stroke:none">
        <path d="m 524.01,314.24 c 0,4.97 -4.03,9 -9,9 -4.97,0 -9,-4.03 -9,-9 0,-4.97 4.03,-9 9,-9 4.97,0 9,4.03 9,9 z" id="path3660" />
        <title id="title3662">Point O</title>
        <desc id="desc3664">Point O: Intersection point of f, g</desc>
      </g>
    </g>
    <g style="stroke-width:1;stroke-linecap:square;stroke-linejoin:miter;stroke-miterlimit:10;stroke-dasharray:none;stroke-dashoffset:0" clip-path="url(#clip8)" id="g3669">
      <g id="g3671" style="fill:none;stroke:#000000;stroke-linecap:round;stroke-linejoin:round;stroke-opacity:1">
        <path d="m 524.01,314.24 c 0,4.97 -4.03,9 -9,9 -4.97,0 -9,-4.03 -9,-9 0,-4.97 4.03,-9 9,-9 4.97,0 9,4.03 9,9 z" id="path3673" />
        <title id="title3675">Point O</title>
        <desc id="desc3677">Point O: Intersection point of f, g</desc>
      </g>
    </g>
  </g>
  <g id="content" transform="matrix(1.35,0,0,-1.35,-112.07853,986.2205)" xml:space="preserve" stroke="black" stroke-linecap="butt" stroke-linejoin="miter" stroke-miterlimit="10.433" stroke-dasharray="none" stroke-dashoffset="0" stroke-opacity="1" fill="none" fill-rule="evenodd" fill-opacity="1" font-style="normal" font-variant="normal" font-weight="normal" font-stretch="normal" font-size-adjust="none" letter-spacing="normal" word-spacing="normal" text-anchor="start" ns0:text="$\\quantity{14}{N}$" ns0:preamble="/Users/Lizzie/Documents/Old mac/CMEP folder/underground-inkscape-preamble.tex" style="font-style:normal;font-variant:normal;font-weight:normal;font-stretch:normal;letter-spacing:normal;word-spacing:normal;text-anchor:start;fill:none;fill-opacity:1;fill-rule:evenodd;stroke:#000000;stroke-linecap:butt;stroke-linejoin:miter;stroke-miterlimit:10.43299961;stroke-dasharray:none;stroke-dashoffset:0;stroke-opacity:1"><path d="M228.1,477.23 V477.41 C227.21,477.41,226.97,477.62,226.97,478.13 V485.18 L226.87,485.22 L224.75,484.14 V483.98 L225.07,484.09 C225.28,484.18,225.48,484.24,225.6,484.24 C225.85,484.24,225.96,484.06,225.96,483.66 V478.36 C225.96,477.71,225.71,477.46,224.83,477.41 V477.23 Z " stroke-width="0" fill="black" id="path5264" /><polygon points="234.96,479.21 234.96,479.96 233.74,479.96 233.74,485.22 233.22,485.22 229.5,479.96 229.97,479.96 232.82,484.01 232.82,479.96 229.97,479.96 229.5,479.96 229.5,479.21 232.82,479.21 232.82,477.23 233.74,477.23 233.74,479.21 " stroke-width="0" fill="black" id="polygon5266" /><path d="M245.31,485.05 H242.51 V484.83 C243.03,484.77,243.24,484.74,243.44,484.52 C243.62,484.32,243.67,483.96,243.67,483.36 V479.35 L239.09,485.05 H237.08 V484.83 C237.66,484.83,237.84,484.68,238.23,484.2 V479.01 C238.23,477.74,238.05,477.57,237.08,477.46 V477.23 H239.85 V477.46 C238.94,477.59,238.75,477.79,238.75,479.01 V483.59 L243.97,477.11 H244.19 V483.22 C244.19,484.15,244.31,484.41,244.53,484.61 C244.68,484.74,244.86,484.78,245.31,484.83 Z " stroke-width="0" fill="black" id="path5268" /></g>  <g transform="translate(-6.2894225,583.97505)" id="misc-5" style="stroke-width:1;stroke-linecap:square;stroke-linejoin:miter;stroke-miterlimit:10;stroke-dasharray:none;stroke-dashoffset:0" />
  <path id="path4738" d="m 302.15991,363.6647 -53.57889,0" style="fill:none;fill-rule:evenodd;stroke:#000000;stroke-width:1.60000014;stroke-linecap:butt;stroke-linejoin:miter;stroke-miterlimit:4;stroke-dasharray:none;stroke-opacity:1;marker-end:url(#marker5243)" />
  <g style="font-style:normal;font-variant:normal;font-weight:normal;font-stretch:normal;letter-spacing:normal;word-spacing:normal;text-anchor:start;fill:#d7191c;fill-opacity:1;fill-rule:evenodd;stroke:#d7191c;stroke-linecap:butt;stroke-linejoin:miter;stroke-miterlimit:10.43299961;stroke-dasharray:none;stroke-dashoffset:0;stroke-opacity:1" ns0:preamble="/Users/Lizzie/Documents/Old mac/CMEP folder/underground-inkscape-preamble.tex" ns0:text="$\\quantity{7\\sqrt{3}}{N}$" word-spacing="normal" letter-spacing="normal" font-size-adjust="none" font-stretch="normal" font-weight="normal" font-variant="normal" font-style="normal" stroke-miterlimit="10.433" xml:space="preserve" transform="matrix(1.35,0,0,-1.35,-92.670818,1081.2548)" id="g5920"><path id="path5922" d="m 228.75,482.21 0,0.19 -4.37,0 -0.71,-1.74 0.21,-0.1 c 0.5,0.8 0.7,0.96 1.39,0.96 l 2.54,0 -2.34,-7.03 0.77,0 z" style="fill:#d7191c;stroke-width:0;stroke:#d7191c;stroke-opacity:1;fill-opacity:1" /><path id="path5924" d="m 240.76,486.5 -0.64,0 -4.9,-12.59 -0.05,0 -2.41,6.33 -0.23,0 -1.85,-1.46 0.14,-0.24 c 0.27,0.24 0.57,0.37 0.78,0.37 0.29,0 0.53,-0.17 0.73,-0.7 l 2.39,-6.26 0.38,0 z" style="fill:#d7191c;stroke-width:0;stroke:#d7191c;stroke-opacity:1;fill-opacity:1" /><line id="line5926" y2="486.20999" x2="246.27" y1="486.20999" x1="240.35001" style="stroke-width:0.65799999;stroke:#d7191c;stroke-opacity:1;fill:#d7191c;fill-opacity:1" /><path id="path5928" d="m 241.07,480.6 0.05,0.08 0.04,0.08 0.05,0.08 0.05,0.07 0.05,0.07 0.04,0.06 0.05,0.07 0.05,0.06 0.05,0.06 0.05,0.05 0.05,0.05 0.05,0.05 0.05,0.05 0.06,0.05 0.05,0.04 0.05,0.04 0.06,0.03 0.05,0.04 0.06,0.03 0.06,0.03 0.05,0.03 0.06,0.02 0.06,0.02 0.06,0.02 0.06,0.02 0.06,0.02 0.07,0.01 0.06,0.01 0.07,0.01 0.06,0 0.07,0 0.07,0.01 c 0.78,0 1.28,-0.41 1.28,-1.21 0,-0.72 -0.38,-1.25 -0.96,-1.58 -0.24,-0.14 -0.55,-0.27 -1,-0.43 l 0,-0.16 c 0.68,0 0.95,-0.04 1.21,-0.12 0.82,-0.24 1.23,-0.81 1.23,-1.71 0,-1 -0.66,-1.81 -1.54,-1.81 -0.33,0 -0.58,0.06 -1.02,0.37 -0.33,0.24 -0.52,0.31 -0.72,0.31 -0.27,0 -0.48,-0.18 -0.48,-0.43 0,-0.42 0.46,-0.67 1.32,-0.67 1.06,0 2.18,0.34 2.75,1.1 0.34,0.44 0.55,1.02 0.55,1.65 0,0.61 -0.19,1.16 -0.53,1.52 -0.24,0.26 -0.46,0.4 -0.98,0.63 0.79,0.47 1.1,1.06 1.1,1.63 0,0.96 -0.74,1.61 -1.84,1.61 -1.24,0 -1.98,-0.79 -2.33,-1.91 z" style="fill:#d7191c;stroke-width:0;stroke:#d7191c;stroke-opacity:1;fill-opacity:1" /><path id="path5930" d="m 256.31,482.4 -2.81,0 0,-0.23 c 0.52,-0.06 0.74,-0.08 0.94,-0.3 0.17,-0.2 0.22,-0.56 0.22,-1.16 l 0,-4.01 -4.57,5.7 -2.01,0 0,-0.23 c 0.58,0 0.75,-0.14 1.15,-0.62 l 0,-5.2 c 0,-1.26 -0.18,-1.44 -1.15,-1.54 l 0,-0.23 2.77,0 0,0.23 c -0.92,0.13 -1.1,0.33 -1.1,1.54 l 0,4.58 5.22,-6.48 0.21,0 0,6.12 c 0,0.93 0.12,1.19 0.35,1.39 0.15,0.13 0.33,0.17 0.78,0.21 z" style="fill:#d7191c;stroke-width:0;stroke:#d7191c;stroke-opacity:1;fill-opacity:1" /></g>  <g id="g4648" transform="matrix(1.35,0,0,-1.35,-37.067948,1001.5051)" xml:space="preserve" stroke="black" stroke-linecap="butt" stroke-linejoin="miter" stroke-miterlimit="10.433" stroke-dasharray="none" stroke-dashoffset="0" stroke-opacity="1" fill="none" fill-rule="evenodd" fill-opacity="1" font-style="normal" font-variant="normal" font-weight="normal" font-stretch="normal" font-size-adjust="none" letter-spacing="normal" word-spacing="normal" text-anchor="start" ns0:text="$\\quantity{5}{m\\,s^{-1}}$" ns0:preamble="/Users/jdg18/CMEP/Miscellaneous/underground-inkscape-preamble.tex" style="font-style:normal;font-variant:normal;font-weight:normal;font-stretch:normal;letter-spacing:normal;word-spacing:normal;text-anchor:start;fill:none;fill-opacity:1;fill-rule:evenodd;stroke:#000000;stroke-linecap:butt;stroke-linejoin:miter;stroke-miterlimit:10.43299961;stroke-dasharray:none;stroke-dashoffset:0;stroke-opacity:1"><path d="M228.62,485 L228.51,485.08 C228.32,484.83,228.22,484.77,227.95,484.77 H225.49 L224.2,481.98 C224.2,481.98,224.19,481.94,224.19,481.92 C224.19,481.85,224.23,481.82,224.33,481.82 C225.47,481.82,226.3,481.44,226.85,481 C227.39,480.57,227.65,479.98,227.65,479.23 C227.65,478.21,226.88,477.23,226.05,477.23 C225.81,477.23,225.54,477.34,225.21,477.61 C224.83,477.91,224.6,477.97,224.33,477.97 C224,477.97,223.8,477.82,223.8,477.52 C223.8,477.08,224.41,476.79,225.3,476.79 C226.11,476.79,226.76,476.97,227.32,477.37 C228.12,477.96,228.48,478.69,228.48,479.83 C228.48,480.45,228.37,480.9,228.06,481.33 C227.39,482.26,226.8,482.52,225.1,482.84 L225.58,483.84 H227.87 C228.06,483.84,228.16,483.91,228.19,483.99 Z " stroke-width="0" fill="black" id="path4650" /><path d="M241.48,476.96 V477.34 C240.84,477.34,240.53,477.34,240.52,477.71 V480.07 C240.52,481.13,240.52,481.51,240.13,481.96 C239.96,482.17,239.55,482.41,238.83,482.41 C237.79,482.41,237.25,481.67,237.04,481.2 C236.87,482.28,235.95,482.41,235.39,482.41 C234.49,482.41,233.91,481.88,233.56,481.12 V482.41 L231.81,482.28 V481.89 C232.68,481.89,232.78,481.81,232.78,481.2 V477.9 C232.78,477.34,232.64,477.34,231.81,477.34 V476.96 L233.21,476.99 L234.6,476.96 V477.34 C233.77,477.34,233.63,477.34,233.63,477.9 V480.17 C233.63,481.45,234.51,482.14,235.3,482.14 C236.09,482.14,236.22,481.48,236.22,480.77 V477.9 C236.22,477.34,236.09,477.34,235.26,477.34 V476.96 L236.65,476.99 L238.04,476.96 V477.34 C237.21,477.34,237.07,477.34,237.07,477.9 V480.17 C237.07,481.45,237.95,482.14,238.75,482.14 C239.53,482.14,239.66,481.48,239.66,480.77 V477.9 C239.66,477.34,239.53,477.34,238.7,477.34 V476.96 L240.1,476.99 Z " stroke-width="0" fill="black" id="path4652" /><path d="M248.23,478.54 L248.23,478.6 L248.23,478.66 L248.22,478.71 L248.22,478.77 L248.21,478.82 L248.2,478.88 L248.18,478.93 L248.17,478.98 L248.16,479.02 L248.14,479.07 L248.12,479.11 L248.11,479.16 L248.09,479.2 L248.07,479.24 L248.05,479.28 L248.03,479.31 L248.01,479.35 L247.99,479.38 L247.96,479.42 L247.94,479.45 L247.92,479.48 L247.9,479.5 L247.88,479.53 L247.86,479.56 L247.84,479.58 L247.82,479.6 L247.8,479.62 L247.78,479.64 L247.76,479.66 L247.74,479.68 L247.73,479.7 L247.71,479.71 C247.3,480.11,246.82,480.2,246.3,480.3 C245.61,480.44,244.78,480.6,244.78,481.31 C244.78,481.75,245.1,482.25,246.16,482.25 C247.53,482.25,247.59,481.14,247.61,480.76 C247.63,480.65,247.76,480.65,247.76,480.65 C247.92,480.65,247.92,480.71,247.92,480.94 V482.19 C247.92,482.4,247.92,482.49,247.79,482.49 C247.73,482.49,247.7,482.49,247.54,482.34 C247.5,482.29,247.38,482.18,247.33,482.14 C246.86,482.49,246.35,482.49,246.16,482.49 C244.65,482.49,244.18,481.66,244.18,480.97 C244.18,480.54,244.38,480.19,244.72,479.92 C245.11,479.6,245.46,479.52,246.35,479.35 C246.62,479.3,247.64,479.11,247.64,478.22 C247.64,477.59,247.21,477.09,246.24,477.09 C245.2,477.09,244.75,477.8,244.52,478.85 C244.48,479.01,244.47,479.06,244.35,479.06 C244.18,479.06,244.18,478.97,244.18,478.75 V477.12 C244.18,476.91,244.18,476.82,244.32,476.82 C244.38,476.82,244.4,476.83,244.63,477.07 C244.65,477.09,244.65,477.12,244.88,477.35 C245.42,476.83,245.98,476.82,246.24,476.82 C247.66,476.82,248.23,477.65,248.23,478.54 Z " stroke-width="0" fill="black" id="path4654" /><polygon points="253.81,483.27 253.81,483.82 249.19,483.82 249.19,483.27 " stroke-width="0" fill="black" id="polygon4656" /><path d="M258.42,481.45 V481.76 H258.1 C257.23,481.76,257.23,481.87,257.23,482.16 V486.94 C257.23,487.17,257.21,487.18,256.97,487.18 C256.42,486.64,255.63,486.63,255.28,486.63 V486.32 C255.49,486.32,256.06,486.32,256.53,486.56 V482.16 C256.53,481.87,256.53,481.76,255.67,481.76 H255.34 V481.45 L256.88,481.48 Z " stroke-width="0" fill="black" id="path4658" /></g></svg>