<?xml version='1.0' ?><svg xmlns:ns0="http://www.iki.fi/pav/software/textext/" xmlns:dc="http://purl.org/dc/elements/1.1/" xmlns:cc="http://creativecommons.org/ns#" xmlns:rdf="http://www.w3.org/1999/02/22-rdf-syntax-ns#" xmlns:svg="http://www.w3.org/2000/svg" xmlns="http://www.w3.org/2000/svg" xmlns:xlink="http://www.w3.org/1999/xlink" id="svg2" version="1.1" width="239.1053" height="187.37606" viewBox="67.19996957317498 451.7766998029282 179.32898484531503 140.5320527153302" preserveAspectRatio="none">
  <metadata id="metadata79">
    <rdf:RDF>
      <cc:Work rdf:about="">
        <dc:format>image/svg+xml</dc:format>
        <dc:type rdf:resource="http://purl.org/dc/dcmitype/StillImage" />
        <dc:title />
      </cc:Work>
    </rdf:RDF>
  </metadata>
  <defs id="defs77">
    <marker style="overflow:visible;" id="marker16854" refX="0.0" refY="0.0" orient="auto">
      <path transform="scale(0.6) rotate(180) translate(0,0)" d="M 8.7185878,4.0337352 L -2.2072895,0.016013256 L 8.7185884,-4.0017078 C 6.9730900,-1.6296469 6.9831476,1.6157441 8.7185878,4.0337352 z " style="fill-rule:evenodd;stroke-width:0.625;stroke-linejoin:round;stroke:#d7191c;stroke-opacity:1;fill:#d7191c;fill-opacity:1" id="path16856" />
    </marker>
    <marker orient="auto" refY="0.0" refX="0.0" id="marker4690" style="overflow:visible;">
      <path id="path4692" style="fill-rule:evenodd;stroke-width:0.625;stroke-linejoin:round;stroke:#000000;stroke-opacity:1;fill:#000000;fill-opacity:1" d="M 8.7185878,4.0337352 L -2.2072895,0.016013256 L 8.7185884,-4.0017078 C 6.9730900,-1.6296469 6.9831476,1.6157441 8.7185878,4.0337352 z " transform="scale(0.6) rotate(180) translate(0,0)" />
    </marker>
    <marker style="overflow:visible;" id="Arrow2Mend" refX="0.0" refY="0.0" orient="auto">
      <path transform="scale(0.6) rotate(180) translate(0,0)" d="M 8.7185878,4.0337352 L -2.2072895,0.016013256 L 8.7185884,-4.0017078 C 6.9730900,-1.6296469 6.9831476,1.6157441 8.7185878,4.0337352 z " style="fill-rule:evenodd;stroke-width:0.625;stroke-linejoin:round;stroke:#000000;stroke-opacity:1;fill:#000000;fill-opacity:1" id="path4396" />
    </marker>
    <clipPath id="clip4">
      <path id="path50" d="m 0,0 0,575 1060,0 0,-575 z" />
    </clipPath>
    <clipPath id="clip5">
      <path id="path63" d="m 0,0 0,575 1060,0 0,-575 z" />
    </clipPath>
  </defs>
  <g transform="matrix(0.31195933,0,0,0.31195933,-4.5217711,423.87833)" id="misc" style="stroke-width:1;stroke-linecap:square;stroke-linejoin:miter;stroke-miterlimit:10;stroke-dasharray:none;stroke-dashoffset:0" />
  <path id="path4769" d="m 155.99999,529.8898 0,60" style="fill:none;fill-rule:evenodd;stroke:#000000;stroke-width:1.60000014;stroke-linecap:butt;stroke-linejoin:miter;stroke-miterlimit:4;stroke-dasharray:none;stroke-opacity:1;marker-end:url(#Arrow2Mend)" />
  <path id="path5065" d="m 67.19998,525.8898 177.61667,0" style="fill:none;fill-rule:evenodd;stroke:#000000;stroke-width:0.72720009;stroke-linecap:butt;stroke-linejoin:miter;stroke-miterlimit:4;stroke-dasharray:2.90880028, 2.90880028;stroke-dashoffset:0;stroke-opacity:1" />
  <path id="path5067" d="m 155.99999,453.21433 0,64.67547" style="fill:none;fill-rule:evenodd;stroke:#000000;stroke-width:0.72720007;stroke-linecap:butt;stroke-linejoin:miter;stroke-miterlimit:4;stroke-dasharray:2.90880028,2.90880028;stroke-dashoffset:0;stroke-opacity:1" />
  <g transform="matrix(3.0707965,0,0,3.0707965,-323.54481,-1088.6925)" id="g3553">
    <g style="stroke-width:1;stroke-linecap:square;stroke-linejoin:miter;stroke-miterlimit:10;stroke-dasharray:none;stroke-dashoffset:0" clip-path="url(#clip4)" id="g52" transform="matrix(0.31195933,0,0,0.31195933,-4.5217711,427.80733)">
      <g id="g54" style="fill:#2b83ba;fill-opacity:1;fill-rule:nonzero;stroke:none">
        <path d="m 524.01,314.24 c 0,4.97 -4.03,9 -9,9 -4.97,0 -9,-4.03 -9,-9 0,-4.97 4.03,-9 9,-9 4.97,0 9,4.03 9,9 z" id="path56" />
        <title id="title58">Point E</title>
        <desc id="desc60">Point E: Intersection point of f, g</desc>
      </g>
    </g>
    <g style="stroke-width:1;stroke-linecap:square;stroke-linejoin:miter;stroke-miterlimit:10;stroke-dasharray:none;stroke-dashoffset:0" clip-path="url(#clip5)" id="g65" transform="matrix(0.31195933,0,0,0.31195933,-4.5217711,427.80733)">
      <g id="g67" style="fill:none;stroke:#000000;stroke-linecap:round;stroke-linejoin:round;stroke-opacity:1">
        <path d="m 524.01,314.24 c 0,4.97 -4.03,9 -9,9 -4.97,0 -9,-4.03 -9,-9 0,-4.97 4.03,-9 9,-9 4.97,0 9,4.03 9,9 z" id="path69" />
        <title id="title71">Point E</title>
        <desc id="desc73">Point E: Intersection point of f, g</desc>
      </g>
    </g>
  </g>
  <g id="g16864">
    <path id="path4476" d="m 224.8357,520.28941 20,0" style="fill:none;fill-rule:evenodd;stroke:#d7191c;stroke-width:1.12000012;stroke-linecap:butt;stroke-linejoin:miter;stroke-miterlimit:2.79999995;stroke-dasharray:none;stroke-opacity:1;marker-end:url(#marker16854)" />
    <g id="g11199" transform="translate(196.45025,106.6876)">
      <path id="path11048" d="m 38.6145,399.7845 0,-0.0675 -0.0135,-0.0675 0,-0.054 -0.0135,-0.0675 -0.0135,-0.054 -0.0135,-0.0675 -0.027,-0.054 -0.0135,-0.054 -0.027,-0.054 -0.027,-0.054 -0.027,-0.054 -0.027,-0.054 -0.0405,-0.0405 -0.0405,-0.054 -0.027,-0.0405 -0.0405,-0.0405 -0.054,-0.0405 -0.0405,-0.0405 -0.0405,-0.0405 -0.054,-0.0405 -0.0405,-0.027 -0.054,-0.027 -0.054,-0.027 -0.054,-0.027 -0.054,-0.027 -0.054,-0.0135 -0.0675,-0.0135 -0.054,-0.027 -0.054,0 -0.0675,-0.0135 -0.0675,0 -0.054,0 c -0.729,0 -1.269,0.54 -1.269,1.242 0,0.702 0.5265,1.2285 1.2285,1.2285 0.7155,0 1.2555,-0.5265 1.2555,-1.2285 z" style="font-style:normal;font-variant:normal;font-weight:normal;font-stretch:normal;letter-spacing:normal;word-spacing:normal;text-anchor:start;fill:#d7191c;fill-opacity:1;fill-rule:evenodd;stroke:#000000;stroke-width:0;stroke-linecap:butt;stroke-linejoin:miter;stroke-miterlimit:10.43299961;stroke-dasharray:none;stroke-dashoffset:0;stroke-opacity:1" />
      <path id="path11050" d="m 39.2625,409.545 0,-0.378 c -0.5535,-0.081 -0.756,-0.2835 -0.756,-0.972 l 0,-5.994 -3.0915,0 0,0.3915 c 0.702,0.135 0.864,0.297 0.864,1.0125 l 0,4.5495 c 0,0.729 -0.108,0.837 -0.8505,1.0125 l 0,0.378 z" style="font-style:normal;font-variant:normal;font-weight:normal;font-stretch:normal;letter-spacing:normal;word-spacing:normal;text-anchor:start;fill:#d7191c;fill-opacity:1;fill-rule:evenodd;stroke:#d7191c;stroke-width:0;stroke-linecap:butt;stroke-linejoin:miter;stroke-miterlimit:10.43299961;stroke-dasharray:none;stroke-dashoffset:0;stroke-opacity:1" />
    </g>
  </g>
  <g transform="translate(5.7423919,-9.6713967)" id="g16870">
    <use height="100%" width="100%" transform="matrix(0,-1,1,0,-375.82082,707.97705)" id="use5405" xlink:href="#path4476" y="0" x="0" />
    <g id="g11203" style="fill:#d7191c;fill-opacity:1" transform="translate(90.669344,65.88639)">
      <path id="path11052" d="m 47.3085,399.7845 0,-0.0675 0,-0.0675 -0.0135,-0.054 0,-0.054 -0.027,-0.0675 -0.0135,-0.054 -0.0135,-0.054 -0.027,-0.0675 -0.027,-0.054 -0.027,-0.054 -0.027,-0.0405 -0.027,-0.054 -0.0405,-0.054 -0.0405,-0.0405 -0.0405,-0.054 -0.0405,-0.0405 -0.0405,-0.0405 -0.0405,-0.0405 -0.054,-0.0405 -0.0405,-0.027 -0.054,-0.0405 -0.054,-0.027 -0.054,-0.027 -0.054,-0.027 -0.054,-0.027 -0.054,-0.0135 -0.054,-0.0135 -0.0675,-0.0135 -0.054,-0.0135 -0.0675,-0.0135 -0.054,0 -0.0675,0 c -0.702,0 -1.242,0.54 -1.242,1.242 0,0.702 0.513,1.2285 1.215,1.2285 0.7155,0 1.2555,-0.5265 1.2555,-1.2285 z" style="font-style:normal;font-variant:normal;font-weight:normal;font-stretch:normal;letter-spacing:normal;word-spacing:normal;text-anchor:start;fill:#d7191c;fill-opacity:1;fill-rule:evenodd;stroke:#000000;stroke-width:0;stroke-linecap:butt;stroke-linejoin:miter;stroke-miterlimit:10.43299961;stroke-dasharray:none;stroke-dashoffset:0;stroke-opacity:1" />
      <path id="path11054" d="m 47.268,402.201 -3.2265,0 0,0.3915 c 0.81,0.054 0.999,0.243 0.999,0.9315 l 0,7.56 c 0,0.837 -0.216,1.215 -0.7695,1.215 -0.297,0 -0.513,-0.1215 -0.513,-0.2835 0,-0.0675 0.054,-0.189 0.1485,-0.351 0.162,-0.2295 0.2295,-0.4185 0.2295,-0.5805 0,-0.486 -0.4185,-0.864 -0.945,-0.864 -0.594,0 -0.999,0.3915 -0.999,0.972 0,0.945 0.9315,1.593 2.241,1.593 1.107,0 1.9575,-0.432 2.403,-1.215 0.297,-0.4995 0.432,-1.107 0.432,-2.052 z" style="font-style:normal;font-variant:normal;font-weight:normal;font-stretch:normal;letter-spacing:normal;word-spacing:normal;text-anchor:start;fill:#d7191c;fill-opacity:1;fill-rule:evenodd;stroke:#000000;stroke-width:0;stroke-linecap:butt;stroke-linejoin:miter;stroke-miterlimit:10.43299961;stroke-dasharray:none;stroke-dashoffset:0;stroke-opacity:1" />
    </g>
  </g>
  <path style="fill:#d7191c;fill-rule:nonzero;stroke:#d7191c;stroke-width:0.40000004;stroke-linecap:square;stroke-miterlimit:4;stroke-dasharray:none;stroke-dashoffset:0;fill-opacity:0.39102563;stroke-opacity:1.0" id="path18252" d="m 272.13624,462.86371 a 12.000002,12.000001 0 0 1 -3.1,-4.57953 l 11.21989,-4.25604 z" transform="matrix(-0.67014085,0.74223395,0.74223395,0.67014085,0,0)" />
  <path id="path15578" d="M 149.83976,512.30469 196.71839,486.1427" style="fill:none;fill-rule:evenodd;stroke:#000000;stroke-width:1.60000014;stroke-linecap:butt;stroke-linejoin:miter;stroke-miterlimit:4;stroke-dasharray:none;stroke-opacity:1;marker-end:url(#marker4690)" />
  <path style="fill:none;fill-rule:evenodd;stroke:#000000;stroke-width:0.72720007;stroke-linecap:butt;stroke-linejoin:miter;stroke-miterlimit:4;stroke-dasharray:2.90880028,2.90880028;stroke-dashoffset:0;stroke-opacity:1" d="m 149.51115,512.30764 42.64909,0" id="path18250" />
  <g style="font-style:normal;font-variant:normal;font-weight:normal;font-stretch:normal;letter-spacing:normal;word-spacing:normal;text-anchor:start;fill:none;fill-opacity:1;fill-rule:evenodd;stroke:#000000;stroke-linecap:butt;stroke-linejoin:miter;stroke-miterlimit:10.43299961;stroke-dasharray:none;stroke-dashoffset:0;stroke-opacity:1" id="g18415" transform="matrix(1.2,0,0,-1.2,-97.424449,1083.1265)" xml:space="preserve" stroke-miterlimit="10.433" font-style="normal" font-variant="normal" font-weight="normal" font-stretch="normal" font-size-adjust="none" letter-spacing="normal" word-spacing="normal" ns0:text="$30^{\\circ}$" ns0:preamble="/Users/Lizzie/Documents/Old mac/CMEP folder/underground-inkscape-preamble.tex"><path style="fill:#000000;stroke-width:0" d="m 224.15,483.26 0.05,0.08 0.05,0.07 0.04,0.08 0.05,0.07 0.05,0.07 0.04,0.07 0.05,0.06 0.05,0.06 0.05,0.06 0.05,0.05 0.05,0.06 0.05,0.05 0.05,0.04 0.06,0.05 0.05,0.04 0.05,0.04 0.06,0.04 0.05,0.03 0.06,0.03 0.06,0.03 0.05,0.03 0.06,0.02 0.06,0.03 0.06,0.02 0.06,0.01 0.07,0.02 0.06,0.01 0.06,0.01 0.07,0.01 0.06,0 0.07,0.01 0.07,0 c 0.78,0 1.28,-0.4 1.28,-1.21 0,-0.72 -0.38,-1.25 -0.96,-1.58 -0.24,-0.14 -0.55,-0.27 -1,-0.42 l 0,-0.17 c 0.68,0 0.95,-0.03 1.21,-0.12 0.82,-0.23 1.23,-0.81 1.23,-1.71 0,-1 -0.66,-1.81 -1.54,-1.81 -0.33,0 -0.58,0.06 -1.01,0.37 -0.34,0.24 -0.53,0.31 -0.73,0.31 -0.27,0 -0.48,-0.18 -0.48,-0.43 0,-0.42 0.46,-0.67 1.32,-0.67 1.06,0 2.18,0.34 2.75,1.1 0.35,0.45 0.55,1.03 0.55,1.65 0,0.61 -0.19,1.16 -0.52,1.52 -0.25,0.26 -0.47,0.4 -0.99,0.63 0.8,0.47 1.1,1.06 1.1,1.63 0,0.97 -0.74,1.62 -1.84,1.62 -1.24,0 -1.98,-0.8 -2.33,-1.92 z" id="path18417" /><path style="fill:#000000;stroke-width:0" d="m 234.99,481.13 0,0.23 -0.01,0.22 -0.01,0.21 -0.03,0.21 -0.02,0.21 -0.04,0.2 -0.03,0.19 -0.05,0.19 -0.05,0.18 -0.05,0.18 -0.06,0.17 -0.07,0.17 -0.07,0.16 -0.07,0.15 -0.08,0.14 -0.09,0.14 -0.09,0.13 -0.09,0.13 -0.1,0.11 -0.1,0.11 -0.11,0.1 -0.11,0.1 -0.11,0.08 -0.12,0.08 -0.12,0.07 -0.13,0.06 -0.13,0.05 -0.13,0.04 -0.13,0.03 -0.14,0.03 -0.14,0.01 -0.15,0.01 c -1.9,0 -2.72,-1.93 -2.72,-4.02 0,-1.93 0.65,-4.13 2.68,-4.13 l 0,0.31 c -1.02,0 -1.54,1.34 -1.54,3.74 0,2.4 0.53,3.79 1.51,3.79 1.05,0 1.57,-1.38 1.57,-3.84 l 0,0 c 0,-2.34 -0.54,-3.69 -1.54,-3.69 l 0,-0.31 c 1.93,0 2.67,2.03 2.67,4.06 z" id="path18419" /><path style="fill:#000000;stroke-width:0" d="m 238.03,483.45 0,0.07 -0.01,0.06 -0.01,0.06 -0.01,0.05 -0.01,0.06 -0.02,0.06 -0.01,0.05 -0.03,0.06 -0.02,0.05 -0.03,0.05 -0.02,0.05 -0.03,0.05 -0.04,0.05 -0.03,0.04 -0.04,0.05 -0.04,0.04 -0.04,0.04 -0.04,0.04 -0.05,0.03 -0.04,0.03 -0.05,0.04 -0.05,0.02 -0.05,0.03 -0.05,0.03 -0.06,0.02 -0.05,0.02 -0.06,0.01 -0.05,0.02 -0.06,0.01 -0.06,0 -0.06,0.01 -0.06,0 0,-0.58 c 0.32,0 0.59,-0.27 0.59,-0.62 l 0,0 c 0,-0.34 -0.26,-0.61 -0.61,-0.61 -0.34,0 -0.61,0.26 -0.61,0.63 0,0.33 0.26,0.6 0.63,0.6 l 0,0.58 c -0.68,0 -1.22,-0.51 -1.22,-1.18 0,-0.68 0.53,-1.21 1.2,-1.21 0.67,0 1.2,0.53 1.2,1.19 z" id="path18421" /></g>  <g ns0:preamble="/Users/Lizzie/Documents/Old mac/CMEP folder/underground-inkscape-preamble.tex" ns0:text="$\\quantity{5}{kg}$" word-spacing="normal" letter-spacing="normal" font-size-adjust="none" font-stretch="normal" font-weight="normal" font-variant="normal" font-style="normal" stroke-miterlimit="10.433" xml:space="preserve" transform="matrix(1.35,0,0,-1.35,-183.61867,1186.4805)" id="content" style="font-style:normal;font-variant:normal;font-weight:normal;font-stretch:normal;letter-spacing:normal;word-spacing:normal;text-anchor:start;fill:none;fill-opacity:1;fill-rule:evenodd;stroke:#000000;stroke-linecap:butt;stroke-linejoin:miter;stroke-miterlimit:10.43299961;stroke-dasharray:none;stroke-dashoffset:0;stroke-opacity:1"><path id="path18600" d="m 228.62,485.27 -0.11,0.09 c -0.19,-0.25 -0.29,-0.31 -0.56,-0.31 l -2.46,0 -1.29,-2.8 c 0,0 -0.01,-0.03 -0.01,-0.06 0,-0.07 0.04,-0.09 0.14,-0.09 1.14,0 1.97,-0.38 2.52,-0.83 0.54,-0.42 0.8,-1.01 0.8,-1.77 0,-1.01 -0.77,-1.99 -1.6,-1.99 -0.24,0 -0.51,0.1 -0.84,0.37 -0.38,0.31 -0.61,0.37 -0.88,0.37 -0.33,0 -0.53,-0.15 -0.53,-0.45 0,-0.45 0.61,-0.73 1.5,-0.73 0.81,0 1.46,0.18 2.02,0.58 0.8,0.59 1.16,1.32 1.16,2.45 0,0.63 -0.11,1.08 -0.42,1.5 -0.67,0.94 -1.26,1.2 -2.96,1.51 l 0.48,1.01 2.29,0 c 0.19,0 0.29,0.07 0.32,0.15 z" style="fill:#000000;stroke-width:0" /><path id="path18602" d="m 237,477.23 0,0.18 c -0.52,0.04 -0.9,0.25 -1.39,0.86 l -1.81,2.29 0.34,0.32 c 1.46,1.35 1.8,1.49 2.56,1.49 l 0,0.18 -2.42,0 0,-0.17 c 0.47,-0.01 0.6,-0.06 0.6,-0.21 0,-0.11 -0.11,-0.26 -0.28,-0.41 l -1.62,-1.44 0,4.95 -0.05,0.03 c -0.46,-0.14 -0.77,-0.24 -1.48,-0.43 l -0.35,-0.09 0,-0.19 c 0.15,0.01 0.26,0.02 0.38,0.02 0.4,0 0.51,-0.15 0.51,-0.72 l 0,-5.69 c 0,-0.61 -0.04,-0.65 -0.89,-0.79 l 0,-0.18 2.77,0 0,0.18 -0.24,0.01 c -0.47,0.03 -0.65,0.19 -0.65,0.61 l 0,2.17 1.78,-2.34 c 0.09,-0.12 0.13,-0.21 0.13,-0.27 0,-0.11 -0.11,-0.18 -0.25,-0.18 l -0.23,0 0,-0.18 z" style="fill:#000000;stroke-width:0" /><path id="path18604" d="m 242.42,481.82 0,0.46 -0.91,0 c -0.24,0 -0.41,0.03 -0.65,0.11 l -0.26,0.1 c -0.32,0.12 -0.64,0.18 -0.95,0.18 -1.1,0 -1.98,-0.85 -1.98,-1.93 0,-0.74 0.31,-1.19 1.1,-1.58 -0.16,-0.17 -0.33,-0.32 -0.51,-0.47 -0.39,-0.34 -0.54,-0.58 -0.54,-0.82 0,-0.26 0.13,-0.39 0.63,-0.62 l 0.25,-0.04 c 0.4,-0.08 1.33,-0.15 1.92,-0.15 1.07,0 1.46,-0.14 1.46,-0.58 l 0,0 c 0,-0.68 -0.9,-1.15 -2.25,-1.15 -1.04,0 -1.71,0.35 -1.71,0.87 0,0.27 0.1,0.44 0.58,1.01 l -0.25,0.04 c -0.86,-0.62 -1.16,-1.01 -1.16,-1.44 0,-0.63 0.91,-1.15 2.05,-1.15 0.85,0 1.75,0.29 2.36,0.76 0.49,0.38 0.72,0.76 0.72,1.24 0,0.73 -0.56,1.22 -1.44,1.26 l -1.53,0.07 c -0.64,0.04 -0.92,0.13 -0.92,0.32 0,0.24 0.39,0.65 0.71,0.74 l 0.23,-0.02 c 0.21,-0.02 0.38,-0.04 0.45,-0.04 l 0.06,0.3 c -0.74,0 -1.22,0.77 -1.22,1.9 l 0,0.04 c 0,0.69 0.33,1.1 0.87,1.1 0.37,0 0.68,-0.2 0.87,-0.55 0.22,-0.41 0.35,-0.94 0.35,-1.43 0,-0.65 -0.34,-1.06 -0.87,-1.06 l -0.06,-0.3 c 0.41,0 0.85,0.18 1.23,0.46 0.43,0.32 0.61,0.76 0.61,1.37 0,0.35 -0.06,0.62 -0.22,1 z" style="fill:#000000;stroke-width:0" /></g>  <g style="font-style:normal;font-variant:normal;font-weight:normal;font-stretch:normal;letter-spacing:normal;word-spacing:normal;text-anchor:start;fill:none;fill-opacity:1;fill-rule:evenodd;stroke:#000000;stroke-linecap:butt;stroke-linejoin:miter;stroke-miterlimit:10.43299961;stroke-dasharray:none;stroke-dashoffset:0;stroke-opacity:1" ns0:preamble="/Users/Lizzie/Documents/Old mac/CMEP folder/underground-inkscape-preamble.tex" ns0:text="$\\quantity{30}{N}$" text-anchor="start" word-spacing="normal" letter-spacing="normal" font-size-adjust="none" font-stretch="normal" font-weight="normal" font-variant="normal" font-style="normal" fill-opacity="1" fill-rule="evenodd" fill="none" stroke-opacity="1" stroke-dashoffset="0" stroke-dasharray="none" stroke-miterlimit="10.433" stroke-linejoin="miter" stroke-linecap="butt" stroke="black" xml:space="preserve" transform="matrix(1.35,0,0,-1.35,-141.94526,1219.9824)" id="g5200"><path id="path5202" fill="black" stroke-width="0" d="M224.15,483.26 L224.2,483.34 L224.25,483.41 L224.29,483.49 L224.34,483.56 L224.39,483.63 L224.43,483.7 L224.48,483.76 L224.53,483.82 L224.58,483.88 L224.63,483.93 L224.68,483.99 L224.73,484.04 L224.78,484.08 L224.84,484.13 L224.89,484.17 L224.94,484.21 L225,484.25 L225.05,484.28 L225.11,484.31 L225.17,484.34 L225.22,484.37 L225.28,484.39 L225.34,484.42 L225.4,484.44 L225.46,484.45 L225.53,484.47 L225.59,484.48 L225.65,484.49 L225.72,484.5 L225.78,484.5 L225.85,484.51 L225.92,484.51 C226.7,484.51,227.2,484.11,227.2,483.3 C227.2,482.58,226.82,482.05,226.24,481.72 C226,481.58,225.69,481.45,225.24,481.3 V481.13 C225.92,481.13,226.19,481.1,226.45,481.01 C227.27,480.78,227.68,480.2,227.68,479.3 C227.68,478.3,227.02,477.49,226.14,477.49 C225.81,477.49,225.56,477.55,225.13,477.86 C224.79,478.1,224.6,478.17,224.4,478.17 C224.13,478.17,223.92,477.99,223.92,477.74 C223.92,477.32,224.38,477.07,225.24,477.07 C226.3,477.07,227.42,477.41,227.99,478.17 C228.34,478.62,228.54,479.2,228.54,479.82 C228.54,480.43,228.35,480.98,228.02,481.34 C227.77,481.6,227.55,481.74,227.03,481.97 C227.83,482.44,228.13,483.03,228.13,483.6 C228.13,484.57,227.39,485.22,226.29,485.22 C225.05,485.22,224.31,484.42,223.96,483.3 Z " /><path id="path5204" fill="black" stroke-width="0" d="M234.99,481.13 L234.99,481.36 L234.98,481.58 L234.97,481.79 L234.94,482 L234.92,482.21 L234.88,482.41 L234.85,482.6 L234.8,482.79 L234.75,482.97 L234.7,483.15 L234.64,483.32 L234.57,483.49 L234.5,483.65 L234.43,483.8 L234.35,483.94 L234.26,484.08 L234.17,484.21 L234.08,484.34 L233.98,484.45 L233.88,484.56 L233.77,484.66 L233.66,484.76 L233.55,484.84 L233.43,484.92 L233.31,484.99 L233.18,485.05 L233.05,485.1 L232.92,485.14 L232.79,485.17 L232.65,485.2 L232.51,485.21 L232.36,485.22 C230.46,485.22,229.64,483.29,229.64,481.2 C229.64,479.27,230.29,477.07,232.32,477.07 V477.38 C231.3,477.38,230.78,478.72,230.78,481.12 C230.78,483.52,231.31,484.91,232.29,484.91 C233.34,484.91,233.86,483.53,233.86,481.07 H233.86 C233.86,478.73,233.32,477.38,232.32,477.38 V477.07 C234.25,477.07,234.99,479.1,234.99,481.13 Z " /><path id="path5206" fill="black" stroke-width="0" d="M245.31,485.05 H242.51 V484.83 C243.03,484.77,243.24,484.74,243.44,484.52 C243.62,484.32,243.67,483.96,243.67,483.36 V479.35 L239.09,485.05 H237.08 V484.83 C237.66,484.83,237.84,484.68,238.23,484.2 V479.01 C238.23,477.74,238.05,477.57,237.08,477.46 V477.23 H239.85 V477.46 C238.94,477.59,238.75,477.79,238.75,479.01 V483.59 L243.97,477.11 H244.19 V483.22 C244.19,484.15,244.31,484.41,244.53,484.61 C244.68,484.74,244.86,484.78,245.31,484.83 Z " /></g>  <g id="g4404" transform="matrix(1.35,0,0,-1.35,-164.02829,1138.3844)" xml:space="preserve" stroke-miterlimit="10.433" font-style="normal" font-variant="normal" font-weight="normal" font-stretch="normal" font-size-adjust="none" letter-spacing="normal" word-spacing="normal" ns0:text="$\\quantity{6}{m\\,s^{-1}}$" ns0:preamble="/Users/jdg18/CMEP/Miscellaneous/underground-inkscape-preamble.tex" style="font-style:normal;font-variant:normal;font-weight:normal;font-stretch:normal;letter-spacing:normal;word-spacing:normal;text-anchor:start;fill:none;fill-opacity:1;fill-rule:evenodd;stroke:#000000;stroke-linecap:butt;stroke-linejoin:miter;stroke-miterlimit:10.43299961;stroke-dasharray:none;stroke-dashoffset:0;stroke-opacity:1"><path style="fill:#000000;stroke-width:0" d="m 228.71,485.03 -0.15,-0.01 -0.14,-0.02 -0.15,-0.02 -0.14,-0.02 -0.13,-0.02 -0.14,-0.02 -0.13,-0.03 -0.12,-0.02 -0.13,-0.03 -0.12,-0.02 -0.12,-0.03 -0.11,-0.04 -0.11,-0.03 -0.11,-0.04 -0.11,-0.04 -0.11,-0.04 -0.11,-0.04 -0.1,-0.05 -0.1,-0.05 -0.1,-0.05 -0.1,-0.05 -0.1,-0.06 -0.1,-0.06 -0.09,-0.07 -0.1,-0.07 -0.09,-0.07 -0.1,-0.08 -0.09,-0.08 -0.1,-0.08 -0.09,-0.09 -0.1,-0.09 -0.09,-0.1 c -0.84,-0.86 -1.29,-1.98 -1.29,-3.26 0,-0.82 0.22,-1.66 0.55,-2.27 0.42,-0.75 1.16,-1.19 2.1,-1.19 l 0.13,0.33 c -1.11,0 -1.68,1.18 -1.68,2.98 0,1.08 0.69,1.37 1.37,1.37 1.1,0 1.6,-0.78 1.6,-2.29 l 0,0 c 0,-1.21 -0.44,-2.06 -1.29,-2.06 l -0.13,-0.33 c 0.78,0 1.44,0.32 1.88,0.86 0.39,0.48 0.61,1.14 0.61,1.89 0,1.53 -0.86,2.47 -2.24,2.47 -0.53,0 -0.93,-0.08 -1.51,-0.53 0.32,1.78 1.65,3.06 3.51,3.36 z" id="path4406" /><path style="fill:#000000;stroke-width:0" d="m 241.48,476.96 0,0.38 c -0.64,0 -0.95,0 -0.96,0.37 l 0,2.36 c 0,1.06 0,1.44 -0.39,1.89 -0.17,0.21 -0.58,0.45 -1.3,0.45 -1.04,0 -1.58,-0.74 -1.79,-1.21 -0.17,1.08 -1.09,1.21 -1.65,1.21 -0.9,0 -1.48,-0.53 -1.83,-1.29 l 0,1.29 -1.75,-0.13 0,-0.39 c 0.87,0 0.97,-0.08 0.97,-0.69 l 0,-3.3 c 0,-0.56 -0.14,-0.56 -0.97,-0.56 l 0,-0.38 1.4,0.03 1.39,-0.03 0,0.38 c -0.83,0 -0.97,0 -0.97,0.56 l 0,2.27 c 0,1.28 0.88,1.97 1.67,1.97 0.79,0 0.92,-0.66 0.92,-1.37 l 0,-2.87 c 0,-0.56 -0.13,-0.56 -0.96,-0.56 l 0,-0.38 1.39,0.03 1.39,-0.03 0,0.38 c -0.83,0 -0.97,0 -0.97,0.56 l 0,2.27 c 0,1.28 0.88,1.97 1.68,1.97 0.78,0 0.91,-0.66 0.91,-1.37 l 0,-2.87 c 0,-0.56 -0.13,-0.56 -0.96,-0.56 l 0,-0.38 1.4,0.03 z" id="path4408" /><path style="fill:#000000;stroke-width:0" d="m 248.23,478.54 0,0.06 0,0.06 -0.01,0.05 0,0.06 -0.01,0.05 -0.01,0.06 -0.02,0.05 -0.01,0.05 -0.01,0.04 -0.02,0.05 -0.02,0.04 -0.01,0.05 -0.02,0.04 -0.02,0.04 -0.02,0.04 -0.02,0.03 -0.02,0.04 -0.02,0.03 -0.03,0.04 -0.02,0.03 -0.02,0.03 -0.02,0.02 -0.02,0.03 -0.02,0.03 -0.02,0.02 -0.02,0.02 -0.02,0.02 -0.02,0.02 -0.02,0.02 -0.02,0.02 -0.01,0.02 -0.02,0.01 c -0.41,0.4 -0.89,0.49 -1.41,0.59 -0.69,0.14 -1.52,0.3 -1.52,1.01 0,0.44 0.32,0.94 1.38,0.94 1.37,0 1.43,-1.11 1.45,-1.49 0.02,-0.11 0.15,-0.11 0.15,-0.11 0.16,0 0.16,0.06 0.16,0.29 l 0,1.25 c 0,0.21 0,0.3 -0.13,0.3 -0.06,0 -0.09,0 -0.25,-0.15 -0.04,-0.05 -0.16,-0.16 -0.21,-0.2 -0.47,0.35 -0.98,0.35 -1.17,0.35 -1.51,0 -1.98,-0.83 -1.98,-1.52 0,-0.43 0.2,-0.78 0.54,-1.05 0.39,-0.32 0.74,-0.4 1.63,-0.57 0.27,-0.05 1.29,-0.24 1.29,-1.13 0,-0.63 -0.43,-1.13 -1.4,-1.13 -1.04,0 -1.49,0.71 -1.72,1.76 -0.04,0.16 -0.05,0.21 -0.17,0.21 -0.17,0 -0.17,-0.09 -0.17,-0.31 l 0,-1.63 c 0,-0.21 0,-0.3 0.14,-0.3 0.06,0 0.08,0.01 0.31,0.25 0.02,0.02 0.02,0.05 0.25,0.28 0.54,-0.52 1.1,-0.53 1.36,-0.53 1.42,0 1.99,0.83 1.99,1.72 z" id="path4410" /><polygon style="fill:#000000;stroke-width:0" points="253.81,483.27 253.81,483.82 249.19,483.82 249.19,483.27 " id="polygon4412" /><path style="fill:#000000;stroke-width:0" d="m 258.42,481.45 0,0.31 -0.32,0 c -0.87,0 -0.87,0.11 -0.87,0.4 l 0,4.78 c 0,0.23 -0.02,0.24 -0.26,0.24 -0.55,-0.54 -1.34,-0.55 -1.69,-0.55 l 0,-0.31 c 0.21,0 0.78,0 1.25,0.24 l 0,-4.4 c 0,-0.29 0,-0.4 -0.86,-0.4 l -0.33,0 0,-0.31 1.54,0.03 z" id="path4414" /></g></svg>