<?xml version='1.0' ?><svg xmlns:ns0="http://www.iki.fi/pav/software/textext/" xmlns:dc="http://purl.org/dc/elements/1.1/" xmlns:cc="http://creativecommons.org/ns#" xmlns:rdf="http://www.w3.org/1999/02/22-rdf-syntax-ns#" xmlns:svg="http://www.w3.org/2000/svg" xmlns="http://www.w3.org/2000/svg" id="svg8368" version="1.1" width="249.0889" height="196.45707" viewBox="146.39998142132356 176.20131967360354 186.8166852563962 147.34281058924662" preserveAspectRatio="none">
  <metadata id="metadata8562">
    <rdf:RDF>
      <cc:Work rdf:about="">
        <dc:format>image/svg+xml</dc:format>
        <dc:type rdf:resource="http://purl.org/dc/dcmitype/StillImage" />
        <dc:title />
      </cc:Work>
    </rdf:RDF>
  </metadata>
  <defs id="defs8560">
    <marker style="overflow:visible;" id="marker9633" refX="0.0" refY="0.0" orient="auto">
      <path transform="scale(0.6) rotate(180) translate(0,0)" d="M 8.7185878,4.0337352 L -2.2072895,0.016013256 L 8.7185884,-4.0017078 C 6.9730900,-1.6296469 6.9831476,1.6157441 8.7185878,4.0337352 z " style="fill-rule:evenodd;stroke-width:0.625;stroke-linejoin:round;stroke:#000000;stroke-opacity:1;fill:#000000;fill-opacity:1" id="path9635" />
    </marker>
    <marker orient="auto" refY="0.0" refX="0.0" id="marker9591" style="overflow:visible;">
      <path id="path9593" style="fill-rule:evenodd;stroke-width:0.625;stroke-linejoin:round;stroke:#000000;stroke-opacity:1;fill:#000000;fill-opacity:1" d="M 8.7185878,4.0337352 L -2.2072895,0.016013256 L 8.7185884,-4.0017078 C 6.9730900,-1.6296469 6.9831476,1.6157441 8.7185878,4.0337352 z " transform="scale(0.6) rotate(180) translate(0,0)" />
    </marker>
    <marker style="overflow:visible;" id="Arrow2Mend" refX="0.0" refY="0.0" orient="auto">
      <path transform="scale(0.6) rotate(180) translate(0,0)" d="M 8.7185878,4.0337352 L -2.2072895,0.016013256 L 8.7185884,-4.0017078 C 6.9730900,-1.6296469 6.9831476,1.6157441 8.7185878,4.0337352 z " style="fill-rule:evenodd;stroke-width:0.625;stroke-linejoin:round;stroke:#000000;stroke-opacity:1;fill:#000000;fill-opacity:1" id="path5565" />
    </marker>
    <clipPath id="clip1">
      <path id="path8377" d="m 0,0 0,575 1060,0 0,-575 z" />
    </clipPath>
    <clipPath id="clip13">
      <path id="path8533" d="m 0,0 0,575 1060,0 0,-575 z" />
    </clipPath>
    <clipPath id="clip14">
      <path id="path8546" d="m 0,0 0,575 1060,0 0,-575 z" />
    </clipPath>
    <marker orient="auto" refY="0.0" refX="0.0" id="marker4972" style="overflow:visible;">
      <path id="path4974" style="fill-rule:evenodd;stroke-width:0.625;stroke-linejoin:round;stroke:#d7191c;stroke-opacity:1;fill:#d7191c;fill-opacity:1" d="M 8.7185878,4.0337352 L -2.2072895,0.016013256 L 8.7185884,-4.0017078 C 6.9730900,-1.6296469 6.9831476,1.6157441 8.7185878,4.0337352 z " transform="scale(0.6) rotate(180) translate(0,0)" />
    </marker>
    <marker style="overflow:visible;" id="marker5243" refX="0.0" refY="0.0" orient="auto">
      <path transform="scale(0.6) rotate(180) translate(0,0)" d="M 8.7185878,4.0337352 L -2.2072895,0.016013256 L 8.7185884,-4.0017078 C 6.9730900,-1.6296469 6.9831476,1.6157441 8.7185878,4.0337352 z " style="fill-rule:evenodd;stroke-width:0.625;stroke-linejoin:round;stroke:#000000;stroke-opacity:1;fill:#000000;fill-opacity:1" id="path5245" />
    </marker>
  </defs>
  <g transform="matrix(0.25325898,0,0,0.25325898,99.518365,160.79905)" id="misc" style="stroke-width:1;stroke-linecap:square;stroke-linejoin:miter;stroke-miterlimit:10;stroke-dasharray:none;stroke-dashoffset:0" />
  <path id="path9481" d="m 228,176.20132 0,147.34281" style="fill:none;fill-rule:evenodd;stroke:#000000;stroke-width:0.73171681;stroke-linecap:butt;stroke-linejoin:miter;stroke-miterlimit:4;stroke-dasharray:2.92686692, 2.92686692;stroke-dashoffset:0;stroke-opacity:1" />
  <g transform="matrix(0.53534138,0,0,0.53534138,-47.356892,70.255264)" id="g8379" clip-path="url(#clip1)" style="stroke:#ffae61;stroke-width:1.4943737;stroke-linecap:square;stroke-linejoin:miter;stroke-miterlimit:10;stroke-dasharray:none;stroke-dashoffset:0;stroke-opacity:1">
    <g style="fill:#fdae61;fill-opacity:0.24706002;fill-rule:nonzero;stroke:#ffae61;stroke-width:1.4943737;stroke-miterlimit:10;stroke-dasharray:none;stroke-opacity:1" id="g8381">
      <path id="path8383" d="m 575.01,314.24 c 0,-8.82 -1.94,-17.52 -5.69,-25.5 l -54.31,25.5 z" style="stroke:#ffae61;stroke-width:1.4943737;stroke-miterlimit:10;stroke-dasharray:none;stroke-opacity:1" />
      <title id="title8385">Angle Ã&#131;Â&#142;Ã&#130;Â³</title>
      <desc id="desc8387">Angle Ã&#131;Â&#142;Ã&#130;Â³: Angle between f, h</desc>
    </g>
  </g>
  <path style="fill:#fdae61;fill-rule:nonzero;stroke:#fdae61;stroke-width:0.80000007;stroke-linecap:square;stroke-miterlimit:4;stroke-dasharray:none;stroke-dashoffset:0;fill-opacity:0.24705882;stroke-opacity:1.0" id="path11112" d="m 213.93114,226.65661 a 27.206646,33.578354 0 0 1 1.22524,-11.58501 l 25.95379,10.07234 z" transform="matrix(0.9984566,0.05553754,-0.05553754,0.9984566,0,0)" />
  <path id="path9460" d="m 146.39999,238.36969 176.00002,0" style="fill:none;fill-rule:evenodd;stroke:#000000;stroke-width:0.72720009;stroke-linecap:butt;stroke-linejoin:miter;stroke-miterlimit:4;stroke-dasharray:2.90880041, 2.90880041;stroke-dashoffset:0;stroke-opacity:1" />
  <path id="path9505" d="M 227.67496,238.92071 298.3663,205.94822" style="fill:none;fill-rule:evenodd;stroke:#000000;stroke-width:1.60000015;stroke-linecap:butt;stroke-linejoin:miter;stroke-miterlimit:4;stroke-dasharray:none;stroke-opacity:1;marker-end:url(#Arrow2Mend)" />
  <path transform="matrix(-0.39799897,-0.91738586,0.91738586,-0.39799897,0,0)" d="m -341.47831,114.95373 a 30.161663,27.747797 0 0 1 2.96265,-13.30121 l 27.1684,12.05138 z" id="path5101" style="fill:#ffae61;fill-rule:nonzero;stroke:#ffae61;stroke-width:0.77632844;stroke-linecap:square;stroke-miterlimit:4;stroke-dasharray:none;stroke-dashoffset:0;fill-opacity:0.24705882;stroke-opacity:1.0" />
  <path id="path9583" d="m 231.20971,245.16613 25.297,51.38869" style="fill:none;fill-rule:evenodd;stroke:#000000;stroke-width:1.60000015;stroke-linecap:butt;stroke-linejoin:miter;stroke-miterlimit:4;stroke-dasharray:none;stroke-opacity:1;marker-end:url(#marker9591)" />
  <g id="g12736" transform="matrix(0.8,0,0,0.8,213.24248,-92.810606)">
    <path id="path12479" d="m 63.165,400.11 0.06,-0.12 0.075,-0.105 0.075,-0.12 0.06,-0.105 0.075,-0.105 0.075,-0.105 0.075,-0.09 0.075,-0.09 0.075,-0.09 0.075,-0.075 0.075,-0.09 0.075,-0.075 0.075,-0.06 0.075,-0.075 0.075,-0.06 0.09,-0.06 0.075,-0.06 0.09,-0.045 0.075,-0.045 0.09,-0.045 0.09,-0.045 0.09,-0.03 0.09,-0.045 0.09,-0.03 0.09,-0.015 0.09,-0.03 0.09,-0.015 0.105,-0.015 0.09,-0.015 0.105,0 0.105,-0.015 0.09,0 c 1.185,0 1.92,0.6 1.92,1.815 0,1.08 -0.57,1.875 -1.44,2.37 -0.345,0.21 -0.81,0.405 -1.485,0.63 l 0,0.255 c 1.005,0 1.425,0.045 1.815,0.18 1.23,0.345 1.845,1.215 1.845,2.565 0,1.5 -0.99,2.715 -2.31,2.715 -0.495,0 -0.87,-0.09 -1.53,-0.555 -0.495,-0.36 -0.78,-0.465 -1.08,-0.465 -0.405,0 -0.735,0.27 -0.735,0.645 0,0.63 0.705,1.005 1.995,1.005 1.575,0 3.27,-0.51 4.125,-1.65 0.51,-0.675 0.81,-1.545 0.81,-2.475 0,-0.915 -0.285,-1.74 -0.78,-2.28 -0.375,-0.39 -0.69,-0.6 -1.47,-0.945 1.185,-0.705 1.65,-1.59 1.65,-2.445 0,-1.455 -1.125,-2.43 -2.775,-2.43 -1.845,0 -2.97,1.2 -3.48,2.88 z" style="font-style:normal;font-variant:normal;font-weight:normal;font-stretch:normal;letter-spacing:normal;word-spacing:normal;text-anchor:start;fill:#000000;fill-opacity:1;fill-rule:evenodd;stroke:#000000;stroke-width:0;stroke-linecap:butt;stroke-linejoin:miter;stroke-miterlimit:10.43299961;stroke-dasharray:none;stroke-dashoffset:0;stroke-opacity:1" />
    <path id="path12481" d="m 79.425,403.305 0,-0.345 -0.015,-0.33 -0.03,-0.315 -0.03,-0.315 -0.045,-0.315 -0.045,-0.3 -0.06,-0.285 -0.06,-0.285 -0.075,-0.27 -0.09,-0.27 -0.09,-0.255 -0.09,-0.255 -0.105,-0.24 -0.12,-0.225 -0.12,-0.21 -0.12,-0.21 -0.135,-0.195 -0.15,-0.195 -0.135,-0.165 -0.165,-0.165 -0.15,-0.15 -0.165,-0.15 -0.18,-0.12 -0.18,-0.12 -0.18,-0.105 -0.18,-0.09 -0.195,-0.075 -0.195,-0.06 -0.21,-0.045 -0.21,-0.045 -0.21,-0.015 -0.21,-0.015 c -2.865,0 -4.08,2.895 -4.08,6.03 0,2.895 0.975,6.195 4.005,6.195 l 0,-0.465 c -1.53,0 -2.31,-2.01 -2.31,-5.61 0,-3.6 0.795,-5.685 2.28,-5.685 1.56,0 2.34,2.07 2.34,5.76 l 0,0 c 0,3.51 -0.795,5.535 -2.31,5.535 l 0,0.465 c 2.895,0 4.02,-3.045 4.02,-6.09 z" style="font-style:normal;font-variant:normal;font-weight:normal;font-stretch:normal;letter-spacing:normal;word-spacing:normal;text-anchor:start;fill:#000000;fill-opacity:1;fill-rule:evenodd;stroke:#000000;stroke-width:0;stroke-linecap:butt;stroke-linejoin:miter;stroke-miterlimit:10.43299961;stroke-dasharray:none;stroke-dashoffset:0;stroke-opacity:1" />
    <path id="path12483" d="m 83.97,399.825 0,-0.105 0,-0.09 -0.015,-0.09 -0.015,-0.075 -0.015,-0.09 -0.03,-0.09 -0.03,-0.075 -0.03,-0.09 -0.03,-0.075 -0.045,-0.075 -0.045,-0.075 -0.045,-0.075 -0.045,-0.075 -0.06,-0.06 -0.045,-0.075 -0.06,-0.06 -0.06,-0.06 -0.075,-0.06 -0.06,-0.045 -0.075,-0.045 -0.075,-0.06 -0.075,-0.03 -0.075,-0.045 -0.075,-0.045 -0.075,-0.03 -0.09,-0.03 -0.075,-0.015 -0.09,-0.03 -0.09,-0.015 -0.09,0 -0.09,-0.015 -0.09,0 0,0.87 c 0.48,0 0.9,0.405 0.9,0.93 l 0,0 c 0,0.51 -0.405,0.915 -0.915,0.915 -0.525,0 -0.915,-0.39 -0.915,-0.945 0,-0.495 0.375,-0.9 0.93,-0.9 l 0,-0.87 c -1.02,0 -1.815,0.765 -1.815,1.77 0,1.02 0.78,1.815 1.8,1.815 0.99,0 1.785,-0.795 1.785,-1.785 z" style="font-style:normal;font-variant:normal;font-weight:normal;font-stretch:normal;letter-spacing:normal;word-spacing:normal;text-anchor:start;fill:#000000;fill-opacity:1;fill-rule:evenodd;stroke:#000000;stroke-width:0;stroke-linecap:butt;stroke-linejoin:miter;stroke-miterlimit:10.43299961;stroke-dasharray:none;stroke-dashoffset:0;stroke-opacity:1" />
  </g>
  <g id="g10166" transform="matrix(1.2,0,0,-1.2,-39.420069,860.68428)" xml:space="preserve" stroke-miterlimit="10.433" font-style="normal" font-variant="normal" font-weight="normal" font-stretch="normal" font-size-adjust="none" letter-spacing="normal" word-spacing="normal" ns0:text="$30^{\\circ}$" ns0:preamble="/Users/Lizzie/Documents/Old mac/CMEP folder/underground-inkscape-preamble.tex" style="font-style:normal;font-variant:normal;font-weight:normal;font-stretch:normal;letter-spacing:normal;word-spacing:normal;text-anchor:start;fill:none;fill-opacity:1;fill-rule:evenodd;stroke:#000000;stroke-linecap:butt;stroke-linejoin:miter;stroke-miterlimit:10.43299961;stroke-dasharray:none;stroke-dashoffset:0;stroke-opacity:1"><path style="fill:#000000;stroke-width:0" d="m 224.15,483.26 0.05,0.08 0.05,0.07 0.04,0.08 0.05,0.07 0.05,0.07 0.04,0.07 0.05,0.06 0.05,0.06 0.05,0.06 0.05,0.05 0.05,0.06 0.05,0.05 0.05,0.04 0.06,0.05 0.05,0.04 0.05,0.04 0.06,0.04 0.05,0.03 0.06,0.03 0.06,0.03 0.05,0.03 0.06,0.02 0.06,0.03 0.06,0.02 0.06,0.01 0.07,0.02 0.06,0.01 0.06,0.01 0.07,0.01 0.06,0 0.07,0.01 0.07,0 c 0.78,0 1.28,-0.4 1.28,-1.21 0,-0.72 -0.38,-1.25 -0.96,-1.58 -0.24,-0.14 -0.55,-0.27 -1,-0.42 l 0,-0.17 c 0.68,0 0.95,-0.03 1.21,-0.12 0.82,-0.23 1.23,-0.81 1.23,-1.71 0,-1 -0.66,-1.81 -1.54,-1.81 -0.33,0 -0.58,0.06 -1.01,0.37 -0.34,0.24 -0.53,0.31 -0.73,0.31 -0.27,0 -0.48,-0.18 -0.48,-0.43 0,-0.42 0.46,-0.67 1.32,-0.67 1.06,0 2.18,0.34 2.75,1.1 0.35,0.45 0.55,1.03 0.55,1.65 0,0.61 -0.19,1.16 -0.52,1.52 -0.25,0.26 -0.47,0.4 -0.99,0.63 0.8,0.47 1.1,1.06 1.1,1.63 0,0.97 -0.74,1.62 -1.84,1.62 -1.24,0 -1.98,-0.8 -2.33,-1.92 z" id="path10168" /><path style="fill:#000000;stroke-width:0" d="m 234.99,481.13 0,0.23 -0.01,0.22 -0.01,0.21 -0.03,0.21 -0.02,0.21 -0.04,0.2 -0.03,0.19 -0.05,0.19 -0.05,0.18 -0.05,0.18 -0.06,0.17 -0.07,0.17 -0.07,0.16 -0.07,0.15 -0.08,0.14 -0.09,0.14 -0.09,0.13 -0.09,0.13 -0.1,0.11 -0.1,0.11 -0.11,0.1 -0.11,0.1 -0.11,0.08 -0.12,0.08 -0.12,0.07 -0.13,0.06 -0.13,0.05 -0.13,0.04 -0.13,0.03 -0.14,0.03 -0.14,0.01 -0.15,0.01 c -1.9,0 -2.72,-1.93 -2.72,-4.02 0,-1.93 0.65,-4.13 2.68,-4.13 l 0,0.31 c -1.02,0 -1.54,1.34 -1.54,3.74 0,2.4 0.53,3.79 1.51,3.79 1.05,0 1.57,-1.38 1.57,-3.84 l 0,0 c 0,-2.34 -0.54,-3.69 -1.54,-3.69 l 0,-0.31 c 1.93,0 2.67,2.03 2.67,4.06 z" id="path10170" /><path style="fill:#000000;stroke-width:0" d="m 238.03,483.45 0,0.07 -0.01,0.06 -0.01,0.06 -0.01,0.05 -0.01,0.06 -0.02,0.06 -0.01,0.05 -0.03,0.06 -0.02,0.05 -0.03,0.05 -0.02,0.05 -0.03,0.05 -0.04,0.05 -0.03,0.04 -0.04,0.05 -0.04,0.04 -0.04,0.04 -0.04,0.04 -0.05,0.03 -0.04,0.03 -0.05,0.04 -0.05,0.02 -0.05,0.03 -0.05,0.03 -0.06,0.02 -0.05,0.02 -0.06,0.01 -0.05,0.02 -0.06,0.01 -0.06,0 -0.06,0.01 -0.06,0 0,-0.58 c 0.32,0 0.59,-0.27 0.59,-0.62 l 0,0 c 0,-0.34 -0.26,-0.61 -0.61,-0.61 -0.34,0 -0.61,0.26 -0.61,0.63 0,0.33 0.26,0.6 0.63,0.6 l 0,0.58 c -0.68,0 -1.22,-0.51 -1.22,-1.18 0,-0.68 0.53,-1.21 1.2,-1.21 0.67,0 1.2,0.53 1.2,1.19 z" id="path10172" /></g>  <g style="font-style:normal;font-variant:normal;font-weight:normal;font-stretch:normal;letter-spacing:normal;word-spacing:normal;text-anchor:start;fill:none;fill-opacity:1;fill-rule:evenodd;stroke:#000000;stroke-linecap:butt;stroke-linejoin:miter;stroke-miterlimit:10.43299961;stroke-dasharray:none;stroke-dashoffset:0;stroke-opacity:1" ns0:preamble="/Users/Lizzie/Documents/Old mac/CMEP folder/underground-inkscape-preamble.tex" ns0:text="$\\quantity{6\\sqrt{2}}{N}$" word-spacing="normal" letter-spacing="normal" font-size-adjust="none" font-stretch="normal" font-weight="normal" font-variant="normal" font-style="normal" stroke-miterlimit="10.433" xml:space="preserve" transform="matrix(1.35,0,0,-1.35,-12.80183,839.44568)" id="g10416"><path id="path10418" d="m 228.71,482.58 -0.15,-0.02 -0.14,-0.02 -0.15,-0.02 -0.14,-0.02 -0.13,-0.02 -0.14,-0.02 -0.13,-0.02 -0.12,-0.03 -0.13,-0.02 -0.12,-0.03 -0.12,-0.03 -0.11,-0.03 -0.11,-0.04 -0.11,-0.03 -0.11,-0.04 -0.11,-0.04 -0.11,-0.05 -0.1,-0.04 -0.1,-0.05 -0.1,-0.06 -0.1,-0.05 -0.1,-0.06 -0.1,-0.06 -0.09,-0.07 -0.1,-0.07 -0.09,-0.07 -0.1,-0.07 -0.09,-0.08 -0.1,-0.09 -0.09,-0.09 -0.1,-0.09 -0.09,-0.1 c -0.84,-0.86 -1.29,-1.98 -1.29,-3.26 0,-0.82 0.22,-1.66 0.55,-2.26 0.42,-0.76 1.16,-1.2 2.1,-1.2 l 0.13,0.34 c -1.11,0 -1.68,1.18 -1.68,2.97 0,1.09 0.69,1.37 1.37,1.37 1.1,0 1.6,-0.78 1.6,-2.29 l 0,0 c 0,-1.2 -0.44,-2.05 -1.29,-2.05 l -0.13,-0.34 c 0.78,0 1.44,0.32 1.88,0.87 0.39,0.47 0.61,1.13 0.61,1.89 0,1.52 -0.86,2.46 -2.24,2.46 -0.53,0 -0.93,-0.08 -1.51,-0.53 0.32,1.78 1.65,3.06 3.51,3.37 z" style="fill:#000000;stroke-width:0" /><path id="path10420" d="m 240.76,486.5 -0.64,0 -4.9,-12.59 -0.05,0 -2.41,6.33 -0.23,0 -1.85,-1.46 0.14,-0.24 c 0.27,0.24 0.57,0.37 0.78,0.37 0.29,0 0.53,-0.17 0.73,-0.7 l 2.39,-6.26 0.38,0 z" style="fill:#000000;stroke-width:0" /><line id="line10422" y2="486.20999" x2="246.27" y1="486.20999" x1="240.35001" style="stroke-width:0.65799999" /><path id="path10424" d="m 245.96,476.12 -0.16,0.07 c -0.39,-0.66 -0.64,-0.79 -1.14,-0.79 l -2.77,0 1.96,2.08 c 1.05,1.1 1.51,1.99 1.51,2.92 0,1.17 -0.85,2.08 -2.19,2.08 -1.46,0 -2.21,-0.97 -2.46,-2.35 l 0.25,-0.06 c 0.47,1.16 0.88,1.54 1.74,1.54 1,0 1.64,-0.59 1.64,-1.67 0,-1 -0.42,-1.9 -1.54,-3.07 l -2.11,-2.23 0,-0.14 4.64,0 z" style="fill:#000000;stroke-width:0" /><path id="path10426" d="m 256.31,482.32 -2.81,0 0,-0.23 c 0.52,-0.06 0.74,-0.08 0.94,-0.31 0.17,-0.2 0.22,-0.55 0.22,-1.15 l 0,-4.02 -4.57,5.71 -2.01,0 0,-0.23 c 0.58,0 0.75,-0.14 1.15,-0.62 l 0,-5.2 c 0,-1.26 -0.18,-1.44 -1.15,-1.55 l 0,-0.22 2.77,0 0,0.22 c -0.92,0.13 -1.1,0.33 -1.1,1.55 l 0,4.58 5.22,-6.48 0.21,0 0,6.12 c 0,0.93 0.12,1.19 0.35,1.39 0.15,0.13 0.33,0.16 0.78,0.21 z" style="fill:#000000;stroke-width:0" /></g>  <g id="content" transform="matrix(1.35,0,0,-1.35,-39.702297,936.33727)" xml:space="preserve" stroke-miterlimit="10.433" font-style="normal" font-variant="normal" font-weight="normal" font-stretch="normal" font-size-adjust="none" letter-spacing="normal" word-spacing="normal" ns0:text="$\\quantity{6\\sqrt{2}}{N}$" ns0:preamble="/Users/Lizzie/Documents/Old mac/CMEP folder/underground-inkscape-preamble.tex" style="font-style:normal;font-variant:normal;font-weight:normal;font-stretch:normal;letter-spacing:normal;word-spacing:normal;text-anchor:start;fill:none;fill-opacity:1;fill-rule:evenodd;stroke:#000000;stroke-linecap:butt;stroke-linejoin:miter;stroke-miterlimit:10.43299961;stroke-dasharray:none;stroke-dashoffset:0;stroke-opacity:1"><path style="fill:#000000;stroke-width:0" d="m 228.71,482.58 -0.15,-0.02 -0.14,-0.02 -0.15,-0.02 -0.14,-0.02 -0.13,-0.02 -0.14,-0.02 -0.13,-0.02 -0.12,-0.03 -0.13,-0.02 -0.12,-0.03 -0.12,-0.03 -0.11,-0.03 -0.11,-0.04 -0.11,-0.03 -0.11,-0.04 -0.11,-0.04 -0.11,-0.05 -0.1,-0.04 -0.1,-0.05 -0.1,-0.06 -0.1,-0.05 -0.1,-0.06 -0.1,-0.06 -0.09,-0.07 -0.1,-0.07 -0.09,-0.07 -0.1,-0.07 -0.09,-0.08 -0.1,-0.09 -0.09,-0.09 -0.1,-0.09 -0.09,-0.1 c -0.84,-0.86 -1.29,-1.98 -1.29,-3.26 0,-0.82 0.22,-1.66 0.55,-2.26 0.42,-0.76 1.16,-1.2 2.1,-1.2 l 0.13,0.34 c -1.11,0 -1.68,1.18 -1.68,2.97 0,1.09 0.69,1.37 1.37,1.37 1.1,0 1.6,-0.78 1.6,-2.29 l 0,0 c 0,-1.2 -0.44,-2.05 -1.29,-2.05 l -0.13,-0.34 c 0.78,0 1.44,0.32 1.88,0.87 0.39,0.47 0.61,1.13 0.61,1.89 0,1.52 -0.86,2.46 -2.24,2.46 -0.53,0 -0.93,-0.08 -1.51,-0.53 0.32,1.78 1.65,3.06 3.51,3.37 z" id="path10767" /><path style="fill:#000000;stroke-width:0" d="m 240.76,486.5 -0.64,0 -4.9,-12.59 -0.05,0 -2.41,6.33 -0.23,0 -1.85,-1.46 0.14,-0.24 c 0.27,0.24 0.57,0.37 0.78,0.37 0.29,0 0.53,-0.17 0.73,-0.7 l 2.39,-6.26 0.38,0 z" id="path10769" /><line style="stroke-width:0.65799999" x1="240.35001" y1="486.20999" x2="246.27" y2="486.20999" id="line10771" /><path style="fill:#000000;stroke-width:0" d="m 245.96,476.12 -0.16,0.07 c -0.39,-0.66 -0.64,-0.79 -1.14,-0.79 l -2.77,0 1.96,2.08 c 1.05,1.1 1.51,1.99 1.51,2.92 0,1.17 -0.85,2.08 -2.19,2.08 -1.46,0 -2.21,-0.97 -2.46,-2.35 l 0.25,-0.06 c 0.47,1.16 0.88,1.54 1.74,1.54 1,0 1.64,-0.59 1.64,-1.67 0,-1 -0.42,-1.9 -1.54,-3.07 l -2.11,-2.23 0,-0.14 4.64,0 z" id="path10773" /><path style="fill:#000000;stroke-width:0" d="m 256.31,482.32 -2.81,0 0,-0.23 c 0.52,-0.06 0.74,-0.08 0.94,-0.31 0.17,-0.2 0.22,-0.55 0.22,-1.15 l 0,-4.02 -4.57,5.71 -2.01,0 0,-0.23 c 0.58,0 0.75,-0.14 1.15,-0.62 l 0,-5.2 c 0,-1.26 -0.18,-1.44 -1.15,-1.55 l 0,-0.22 2.77,0 0,0.22 c -0.92,0.13 -1.1,0.33 -1.1,1.55 l 0,4.58 5.22,-6.48 0.21,0 0,6.12 c 0,0.93 0.12,1.19 0.35,1.39 0.15,0.13 0.33,0.16 0.78,0.21 z" id="path10775" /></g>  <g style="font-style:normal;font-variant:normal;font-weight:normal;font-stretch:normal;letter-spacing:normal;word-spacing:normal;text-anchor:start;fill:none;fill-opacity:1;fill-rule:evenodd;stroke:#000000;stroke-linecap:butt;stroke-linejoin:miter;stroke-miterlimit:10.43299961;stroke-dasharray:none;stroke-dashoffset:0;stroke-opacity:1" ns0:preamble="/Users/Lizzie/Documents/Old mac/CMEP folder/underground-inkscape-preamble.tex" ns0:text="$\\quantity{12}{N}$" word-spacing="normal" letter-spacing="normal" font-size-adjust="none" font-stretch="normal" font-weight="normal" font-variant="normal" font-style="normal" stroke-miterlimit="10.433" xml:space="preserve" transform="matrix(1.35,0,0,-1.35,-146.64704,843.03679)" id="g10995"><path id="path10997" d="m 228.1,477.23 0,0.18 c -0.89,0 -1.13,0.21 -1.13,0.72 l 0,7.05 -0.1,0.04 -2.12,-1.08 0,-0.16 0.32,0.11 c 0.21,0.09 0.41,0.15 0.53,0.15 0.25,0 0.36,-0.18 0.36,-0.58 l 0,-5.3 c 0,-0.65 -0.25,-0.9 -1.13,-0.95 l 0,-0.18 z" style="fill:#000000;stroke-width:0" /><path id="path10999" d="m 234.97,478.85 -0.17,0.07 c -0.39,-0.66 -0.64,-0.79 -1.13,-0.79 l -2.77,0 1.95,2.08 c 1.05,1.11 1.52,1.99 1.52,2.93 0,1.17 -0.86,2.08 -2.19,2.08 -1.46,0 -2.22,-0.97 -2.47,-2.35 l 0.25,-0.06 c 0.47,1.15 0.89,1.53 1.74,1.53 1.01,0 1.65,-0.59 1.65,-1.66 0,-1.01 -0.43,-1.9 -1.54,-3.07 l -2.11,-2.23 0,-0.15 4.63,0 z" style="fill:#000000;stroke-width:0" /><path id="path11001" d="m 245.31,485.05 -2.8,0 0,-0.22 c 0.52,-0.06 0.73,-0.09 0.93,-0.31 0.18,-0.2 0.23,-0.56 0.23,-1.16 l 0,-4.01 -4.58,5.7 -2.01,0 0,-0.22 c 0.58,0 0.76,-0.15 1.15,-0.63 l 0,-5.19 c 0,-1.27 -0.18,-1.44 -1.15,-1.55 l 0,-0.23 2.77,0 0,0.23 c -0.91,0.13 -1.1,0.33 -1.1,1.55 l 0,4.58 5.22,-6.48 0.22,0 0,6.11 c 0,0.93 0.12,1.19 0.34,1.39 0.15,0.13 0.33,0.17 0.78,0.22 z" style="fill:#000000;stroke-width:0" /></g>  <g id="g11212" transform="matrix(1.2,0,0,-1.2,-90.880362,808.39828)" xml:space="preserve" stroke-miterlimit="10.433" font-style="normal" font-variant="normal" font-weight="normal" font-stretch="normal" font-size-adjust="none" letter-spacing="normal" word-spacing="normal" ns0:text="$15^{\\circ}$" ns0:preamble="/Users/Lizzie/Documents/Old mac/CMEP folder/underground-inkscape-preamble.tex" style="font-style:normal;font-variant:normal;font-weight:normal;font-stretch:normal;letter-spacing:normal;word-spacing:normal;text-anchor:start;fill:none;fill-opacity:1;fill-rule:evenodd;stroke:#000000;stroke-linecap:butt;stroke-linejoin:miter;stroke-miterlimit:10.43299961;stroke-dasharray:none;stroke-dashoffset:0;stroke-opacity:1"><path style="fill:#000000;stroke-width:0" d="m 228.1,477.23 0,0.18 c -0.89,0 -1.13,0.21 -1.13,0.72 l 0,7.05 -0.1,0.04 -2.12,-1.08 0,-0.16 0.32,0.11 c 0.21,0.09 0.41,0.15 0.53,0.15 0.25,0 0.36,-0.18 0.36,-0.58 l 0,-5.3 c 0,-0.65 -0.25,-0.9 -1.13,-0.95 l 0,-0.18 z" id="path11214" /><path style="fill:#000000;stroke-width:0" d="m 234.54,485.27 -0.1,0.09 c -0.19,-0.25 -0.3,-0.31 -0.57,-0.31 l -2.45,0 -1.29,-2.8 c 0,0 -0.02,-0.03 -0.02,-0.06 0,-0.07 0.04,-0.09 0.15,-0.09 1.13,0 1.96,-0.38 2.52,-0.83 0.53,-0.42 0.79,-1.01 0.79,-1.77 0,-1.01 -0.77,-1.99 -1.6,-1.99 -0.23,0 -0.51,0.1 -0.84,0.37 -0.38,0.31 -0.6,0.37 -0.87,0.37 -0.34,0 -0.54,-0.15 -0.54,-0.45 0,-0.45 0.62,-0.73 1.51,-0.73 0.8,0 1.45,0.18 2.01,0.58 0.81,0.59 1.16,1.32 1.16,2.45 0,0.63 -0.11,1.08 -0.41,1.5 -0.68,0.94 -1.27,1.2 -2.96,1.51 l 0.47,1.01 2.3,0 c 0.19,0 0.28,0.07 0.32,0.15 z" id="path11216" /><path style="fill:#000000;stroke-width:0" d="m 238.03,483.45 0,0.07 -0.01,0.06 -0.01,0.06 -0.01,0.05 -0.01,0.06 -0.02,0.06 -0.01,0.05 -0.03,0.06 -0.02,0.05 -0.03,0.05 -0.02,0.05 -0.03,0.05 -0.04,0.05 -0.03,0.04 -0.04,0.05 -0.04,0.04 -0.04,0.04 -0.04,0.04 -0.05,0.03 -0.04,0.03 -0.05,0.04 -0.05,0.02 -0.05,0.03 -0.05,0.03 -0.06,0.02 -0.05,0.02 -0.06,0.01 -0.05,0.02 -0.06,0.01 -0.06,0 -0.06,0.01 -0.06,0 0,-0.58 c 0.32,0 0.59,-0.27 0.59,-0.62 l 0,0 c 0,-0.34 -0.26,-0.61 -0.61,-0.61 -0.34,0 -0.61,0.26 -0.61,0.63 0,0.33 0.26,0.6 0.63,0.6 l 0,0.58 c -0.68,0 -1.22,-0.51 -1.22,-1.18 0,-0.68 0.53,-1.21 1.2,-1.21 0.67,0 1.2,0.53 1.2,1.19 z" id="path11218" /></g>  <path id="path9625" d="m 226.14387,237.52246 -73.7518,-35.10409" style="fill:none;fill-rule:evenodd;stroke:#000000;stroke-width:1.60000014;stroke-linecap:butt;stroke-linejoin:miter;stroke-miterlimit:4;stroke-dasharray:none;stroke-opacity:1;marker-end:url(#marker9633)" />
  <g style="stroke-width:1;stroke-linecap:square;stroke-linejoin:miter;stroke-miterlimit:10;stroke-dasharray:none;stroke-dashoffset:0" id="misc-9" transform="translate(171.8946,218.32287)" />
  <g transform="matrix(0.31195933,0,0,0.31195933,219.18613,346.1606)" id="misc-7" style="stroke-width:1;stroke-linecap:square;stroke-linejoin:miter;stroke-miterlimit:10;stroke-dasharray:none;stroke-dashoffset:0" />
  <path style="fill:none;fill-rule:evenodd;stroke:#d7191c;stroke-width:1.60000014;stroke-linecap:butt;stroke-linejoin:miter;stroke-miterlimit:4;stroke-dasharray:none;stroke-opacity:1;marker-end:url(#marker4972)" d="m 227.87582,245.04595 -0.11686,64.64216" id="path4904" />
  <g transform="matrix(3.7826064,0,0,3.7826064,-641.41257,-670.83964)" id="g8762">
    <g style="stroke-width:1;stroke-linecap:square;stroke-linejoin:miter;stroke-miterlimit:10;stroke-dasharray:none;stroke-dashoffset:0" clip-path="url(#clip13)" id="g8535" transform="matrix(0.25325898,0,0,0.25325898,99.518365,160.79905)">
      <g id="g8537" style="fill:#2b83ba;fill-opacity:1;fill-rule:nonzero;stroke:none">
        <path d="m 524.01,314.24 c 0,4.97 -4.03,9 -9,9 -4.97,0 -9,-4.03 -9,-9 0,-4.97 4.03,-9 9,-9 4.97,0 9,4.03 9,9 z" id="path8539" />
        <title id="title8541">Point O</title>
        <desc id="desc8543">Point O: Intersection point of f, g</desc>
      </g>
    </g>
    <g style="stroke-width:1;stroke-linecap:square;stroke-linejoin:miter;stroke-miterlimit:10;stroke-dasharray:none;stroke-dashoffset:0" clip-path="url(#clip14)" id="g8548" transform="matrix(0.25325898,0,0,0.25325898,99.518365,160.79905)">
      <g id="g8550" style="fill:none;stroke:#000000;stroke-linecap:round;stroke-linejoin:round;stroke-opacity:1">
        <path d="m 524.01,314.24 c 0,4.97 -4.03,9 -9,9 -4.97,0 -9,-4.03 -9,-9 0,-4.97 4.03,-9 9,-9 4.97,0 9,4.03 9,9 z" id="path8552" />
        <title id="title8554">Point O</title>
        <desc id="desc8556">Point O: Intersection point of f, g</desc>
      </g>
    </g>
  </g>
  <g style="stroke-width:1;stroke-linecap:square;stroke-linejoin:miter;stroke-miterlimit:10;stroke-dasharray:none;stroke-dashoffset:0" id="misc-5" transform="translate(165.60518,535.40813)" />
  <path style="fill:none;fill-rule:evenodd;stroke:#000000;stroke-width:1.60000014;stroke-linecap:butt;stroke-linejoin:miter;stroke-miterlimit:4;stroke-dasharray:none;stroke-opacity:1;marker-end:url(#marker5243)" d="m 247.79251,262.70264 0,-53.57889" id="path4738" />
  <g style="font-style:normal;font-variant:normal;font-weight:normal;font-stretch:normal;letter-spacing:normal;word-spacing:normal;text-anchor:start;fill:none;fill-opacity:1;fill-rule:evenodd;stroke:#000000;stroke-linecap:butt;stroke-linejoin:miter;stroke-miterlimit:10.43299961;stroke-dasharray:none;stroke-dashoffset:0;stroke-opacity:1" ns0:preamble="/Users/Lizzie/Documents/Old mac/CMEP folder/underground-inkscape-preamble.tex" ns0:text="$\\quantity{4}{kg}$" word-spacing="normal" letter-spacing="normal" font-size-adjust="none" font-stretch="normal" font-weight="normal" font-variant="normal" font-style="normal" stroke-miterlimit="10.433" xml:space="preserve" transform="matrix(1.35,0,0,-1.35,-102.62523,861.88419)" id="g13890"><polygon id="polygon13892" points="227.81,479.96 227.81,485.22 227.29,485.22 223.57,479.96 224.05,479.96 226.89,484.01 226.89,479.96 224.05,479.96 223.57,479.96 223.57,479.21 226.89,479.21 226.89,477.23 227.81,477.23 227.81,479.21 229.03,479.21 229.03,479.96 " style="fill:#000000;stroke-width:0" /><path id="path13894" d="m 237,477.23 0,0.18 c -0.52,0.04 -0.9,0.25 -1.39,0.86 l -1.81,2.29 0.34,0.32 c 1.46,1.35 1.8,1.49 2.56,1.49 l 0,0.18 -2.42,0 0,-0.17 c 0.47,-0.01 0.6,-0.06 0.6,-0.21 0,-0.11 -0.11,-0.26 -0.28,-0.41 l -1.62,-1.44 0,4.95 -0.05,0.03 c -0.46,-0.14 -0.77,-0.24 -1.48,-0.43 l -0.35,-0.09 0,-0.19 c 0.15,0.01 0.26,0.02 0.38,0.02 0.4,0 0.51,-0.15 0.51,-0.72 l 0,-5.69 c 0,-0.61 -0.04,-0.65 -0.89,-0.79 l 0,-0.18 2.77,0 0,0.18 -0.24,0.01 c -0.47,0.03 -0.65,0.19 -0.65,0.61 l 0,2.17 1.78,-2.34 c 0.09,-0.12 0.13,-0.21 0.13,-0.27 0,-0.11 -0.11,-0.18 -0.25,-0.18 l -0.23,0 0,-0.18 z" style="fill:#000000;stroke-width:0" /><path id="path13896" d="m 242.42,481.82 0,0.46 -0.91,0 c -0.24,0 -0.41,0.03 -0.65,0.11 l -0.26,0.1 c -0.32,0.12 -0.64,0.18 -0.95,0.18 -1.1,0 -1.98,-0.85 -1.98,-1.93 0,-0.74 0.31,-1.19 1.1,-1.58 -0.16,-0.17 -0.33,-0.32 -0.51,-0.47 -0.39,-0.34 -0.54,-0.58 -0.54,-0.82 0,-0.26 0.13,-0.39 0.63,-0.62 l 0.25,-0.04 c 0.4,-0.08 1.33,-0.15 1.92,-0.15 1.07,0 1.46,-0.14 1.46,-0.58 l 0,0 c 0,-0.68 -0.9,-1.15 -2.25,-1.15 -1.04,0 -1.71,0.35 -1.71,0.87 0,0.27 0.1,0.44 0.58,1.01 l -0.25,0.04 c -0.86,-0.62 -1.16,-1.01 -1.16,-1.44 0,-0.63 0.91,-1.15 2.05,-1.15 0.85,0 1.75,0.29 2.36,0.76 0.49,0.38 0.72,0.76 0.72,1.24 0,0.73 -0.56,1.22 -1.44,1.26 l -1.53,0.07 c -0.64,0.04 -0.92,0.13 -0.92,0.32 0,0.24 0.39,0.65 0.71,0.74 l 0.23,-0.02 c 0.21,-0.02 0.38,-0.04 0.45,-0.04 l 0.06,0.3 c -0.74,0 -1.22,0.77 -1.22,1.9 l 0,0.04 c 0,0.69 0.33,1.1 0.87,1.1 0.37,0 0.68,-0.2 0.87,-0.55 0.22,-0.41 0.35,-0.94 0.35,-1.43 0,-0.65 -0.34,-1.06 -0.87,-1.06 l -0.06,-0.3 c 0.41,0 0.85,0.18 1.23,0.46 0.43,0.32 0.61,0.76 0.61,1.37 0,0.35 -0.06,0.62 -0.22,1 z" style="fill:#000000;stroke-width:0" /></g>  <g id="g14492" transform="matrix(1.35,0,0,-1.35,-110.57738,933.55612)" xml:space="preserve" stroke-miterlimit="10.433" font-style="normal" font-variant="normal" font-weight="normal" font-stretch="normal" font-size-adjust="none" letter-spacing="normal" word-spacing="normal" ns0:text="$\\quantity{16}{N}$" ns0:preamble="/Users/Lizzie/Documents/Old mac/CMEP folder/underground-inkscape-preamble.tex" style="font-style:normal;font-variant:normal;font-weight:normal;font-stretch:normal;letter-spacing:normal;word-spacing:normal;text-anchor:start;fill:#d7191c;fill-opacity:1;fill-rule:evenodd;stroke:#e6191c;stroke-linecap:butt;stroke-linejoin:miter;stroke-miterlimit:10.43299961;stroke-dasharray:none;stroke-dashoffset:0;stroke-opacity:1"><path style="fill:#d7191c;stroke-width:0;stroke:#e6191c;stroke-opacity:1;fill-opacity:1" d="m 228.1,477.23 0,0.18 c -0.89,0 -1.13,0.21 -1.13,0.72 l 0,7.05 -0.1,0.04 -2.12,-1.08 0,-0.16 0.32,0.11 c 0.21,0.09 0.41,0.15 0.53,0.15 0.25,0 0.36,-0.18 0.36,-0.58 l 0,-5.3 c 0,-0.65 -0.25,-0.9 -1.13,-0.95 l 0,-0.18 z" id="path14494" /><path style="fill:#d7191c;stroke-width:0;stroke:#e6191c;stroke-opacity:1;fill-opacity:1" d="m 234.64,485.31 -0.15,-0.02 -0.15,-0.01 -0.14,-0.02 -0.14,-0.02 -0.14,-0.02 -0.13,-0.03 -0.13,-0.02 -0.13,-0.02 -0.12,-0.03 -0.12,-0.03 -0.12,-0.03 -0.12,-0.03 -0.11,-0.03 -0.11,-0.04 -0.11,-0.04 -0.11,-0.04 -0.1,-0.04 -0.11,-0.05 -0.1,-0.05 -0.1,-0.05 -0.1,-0.06 -0.1,-0.05 -0.09,-0.07 -0.1,-0.06 -0.1,-0.07 -0.09,-0.07 -0.1,-0.08 -0.09,-0.08 -0.1,-0.08 -0.09,-0.09 -0.09,-0.1 -0.1,-0.09 c -0.84,-0.87 -1.29,-1.99 -1.29,-3.26 0,-0.83 0.22,-1.67 0.56,-2.27 0.41,-0.75 1.16,-1.19 2.09,-1.19 l 0.13,0.33 c -1.11,0 -1.68,1.18 -1.68,2.98 0,1.08 0.7,1.36 1.37,1.36 1.11,0 1.6,-0.77 1.6,-2.29 l 0,0 c 0,-1.2 -0.43,-2.05 -1.29,-2.05 l -0.13,-0.33 c 0.78,0 1.45,0.32 1.88,0.86 0.4,0.47 0.61,1.14 0.61,1.89 0,1.52 -0.85,2.47 -2.24,2.47 -0.52,0 -0.92,-0.09 -1.5,-0.53 0.32,1.78 1.64,3.05 3.5,3.36 z" id="path14496" /><path style="fill:#d7191c;stroke-width:0;stroke:#e6191c;stroke-opacity:1;fill-opacity:1" d="m 245.31,485.05 -2.8,0 0,-0.22 c 0.52,-0.06 0.73,-0.09 0.93,-0.31 0.18,-0.2 0.23,-0.56 0.23,-1.16 l 0,-4.01 -4.58,5.7 -2.01,0 0,-0.22 c 0.58,0 0.76,-0.15 1.15,-0.63 l 0,-5.19 c 0,-1.27 -0.18,-1.44 -1.15,-1.55 l 0,-0.23 2.77,0 0,0.23 c -0.91,0.13 -1.1,0.33 -1.1,1.55 l 0,4.58 5.22,-6.48 0.22,0 0,6.11 c 0,0.93 0.12,1.19 0.34,1.39 0.15,0.13 0.33,0.17 0.78,0.22 z" id="path14498" /></g>  <g id="g4744" transform="matrix(1.35,0,0,-1.35,-48.325427,899.74549)" xml:space="preserve" stroke="black" stroke-linecap="butt" stroke-linejoin="miter" stroke-miterlimit="10.433" stroke-dasharray="none" stroke-dashoffset="0" stroke-opacity="1" fill="none" fill-rule="evenodd" fill-opacity="1" font-style="normal" font-variant="normal" font-weight="normal" font-stretch="normal" font-size-adjust="none" letter-spacing="normal" word-spacing="normal" text-anchor="start" ns0:text="$\\quantity{8}{m\\,s^{-1}}$" ns0:preamble="/Users/jdg18/CMEP/Miscellaneous/underground-inkscape-preamble.tex" style="font-style:normal;font-variant:normal;font-weight:normal;font-stretch:normal;letter-spacing:normal;word-spacing:normal;text-anchor:start;fill:none;fill-opacity:1;fill-rule:evenodd;stroke:#000000;stroke-linecap:butt;stroke-linejoin:miter;stroke-miterlimit:10.43299961;stroke-dasharray:none;stroke-dashoffset:0;stroke-opacity:1"><path d="M228.7,478.79 L228.7,478.88 L228.7,478.96 L228.69,479.05 L228.68,479.13 L228.67,479.21 L228.66,479.29 L228.64,479.37 L228.62,479.45 L228.6,479.53 L228.57,479.6 L228.54,479.68 L228.51,479.75 L228.47,479.83 L228.43,479.9 L228.38,479.98 L228.33,480.05 L228.28,480.13 L228.22,480.2 L228.16,480.28 L228.09,480.35 L228.02,480.43 L227.94,480.51 L227.86,480.59 L227.77,480.66 L227.68,480.74 L227.58,480.82 L227.47,480.91 L227.36,480.99 L227.25,481.07 L227.13,481.16 L227,481.25 L226.87,481.34 C228.04,481.96,228.45,482.36,228.45,483.25 C228.45,484.17,227.64,484.94,226.46,484.94 L226.35,484.61 C227.15,484.61,227.64,484.07,227.64,483.25 H227.64 C227.64,482.52,227.33,482.02,226.52,481.55 C225.48,482.16,225.04,482.71,225.04,483.44 C225.04,484.17,225.55,484.61,226.35,484.61 L226.46,484.94 C225.15,484.94,224.17,484.23,224.17,483.1 C224.17,482.33,224.41,481.88,225.63,480.88 C224.37,479.99,224.1,479.53,224.1,478.72 C224.1,477.61,225.03,476.79,226.37,476.79 L226.5,477.12 C225.6,477.12,224.99,477.74,224.99,478.82 C224.99,479.59,225.24,480.08,225.94,480.64 L226.64,480.17 C227.45,479.63,227.8,479.15,227.8,478.42 C227.8,477.65,227.27,477.12,226.5,477.12 L226.37,476.79 C227.79,476.79,228.7,477.57,228.7,478.79 Z " stroke-width="0" fill="black" id="path4746" /><path d="M241.48,476.96 V477.34 C240.84,477.34,240.53,477.34,240.52,477.71 V480.07 C240.52,481.13,240.52,481.51,240.13,481.96 C239.96,482.17,239.55,482.41,238.83,482.41 C237.79,482.41,237.25,481.67,237.04,481.2 C236.87,482.28,235.95,482.41,235.39,482.41 C234.49,482.41,233.91,481.88,233.56,481.12 V482.41 L231.81,482.28 V481.89 C232.68,481.89,232.78,481.81,232.78,481.2 V477.9 C232.78,477.34,232.64,477.34,231.81,477.34 V476.96 L233.21,476.99 L234.6,476.96 V477.34 C233.77,477.34,233.63,477.34,233.63,477.9 V480.17 C233.63,481.45,234.51,482.14,235.3,482.14 C236.09,482.14,236.22,481.48,236.22,480.77 V477.9 C236.22,477.34,236.09,477.34,235.26,477.34 V476.96 L236.65,476.99 L238.04,476.96 V477.34 C237.21,477.34,237.07,477.34,237.07,477.9 V480.17 C237.07,481.45,237.95,482.14,238.75,482.14 C239.53,482.14,239.66,481.48,239.66,480.77 V477.9 C239.66,477.34,239.53,477.34,238.7,477.34 V476.96 L240.1,476.99 Z " stroke-width="0" fill="black" id="path4748" /><path d="M248.23,478.54 L248.23,478.6 L248.23,478.66 L248.22,478.71 L248.22,478.77 L248.21,478.82 L248.2,478.88 L248.18,478.93 L248.17,478.98 L248.16,479.02 L248.14,479.07 L248.12,479.11 L248.11,479.16 L248.09,479.2 L248.07,479.24 L248.05,479.28 L248.03,479.31 L248.01,479.35 L247.99,479.38 L247.96,479.42 L247.94,479.45 L247.92,479.48 L247.9,479.5 L247.88,479.53 L247.86,479.56 L247.84,479.58 L247.82,479.6 L247.8,479.62 L247.78,479.64 L247.76,479.66 L247.74,479.68 L247.73,479.7 L247.71,479.71 C247.3,480.11,246.82,480.2,246.3,480.3 C245.61,480.44,244.78,480.6,244.78,481.31 C244.78,481.75,245.1,482.25,246.16,482.25 C247.53,482.25,247.59,481.14,247.61,480.76 C247.63,480.65,247.76,480.65,247.76,480.65 C247.92,480.65,247.92,480.71,247.92,480.94 V482.19 C247.92,482.4,247.92,482.49,247.79,482.49 C247.73,482.49,247.7,482.49,247.54,482.34 C247.5,482.29,247.38,482.18,247.33,482.14 C246.86,482.49,246.35,482.49,246.16,482.49 C244.65,482.49,244.18,481.66,244.18,480.97 C244.18,480.54,244.38,480.19,244.72,479.92 C245.11,479.6,245.46,479.52,246.35,479.35 C246.62,479.3,247.64,479.11,247.64,478.22 C247.64,477.59,247.21,477.09,246.24,477.09 C245.2,477.09,244.75,477.8,244.52,478.85 C244.48,479.01,244.47,479.06,244.35,479.06 C244.18,479.06,244.18,478.97,244.18,478.75 V477.12 C244.18,476.91,244.18,476.82,244.32,476.82 C244.38,476.82,244.4,476.83,244.63,477.07 C244.65,477.09,244.65,477.12,244.88,477.35 C245.42,476.83,245.98,476.82,246.24,476.82 C247.66,476.82,248.23,477.65,248.23,478.54 Z " stroke-width="0" fill="black" id="path4750" /><polygon points="253.81,483.27 253.81,483.82 249.19,483.82 249.19,483.27 " stroke-width="0" fill="black" id="polygon4752" /><path d="M258.42,481.45 V481.76 H258.1 C257.23,481.76,257.23,481.87,257.23,482.16 V486.94 C257.23,487.17,257.21,487.18,256.97,487.18 C256.42,486.64,255.63,486.63,255.28,486.63 V486.32 C255.49,486.32,256.06,486.32,256.53,486.56 V482.16 C256.53,481.87,256.53,481.76,255.67,481.76 H255.34 V481.45 L256.88,481.48 Z " stroke-width="0" fill="black" id="path4754" /></g></svg>