<?xml version='1.0' ?><svg xmlns:ns0="http://www.iki.fi/pav/software/textext/" xmlns:dc="http://purl.org/dc/elements/1.1/" xmlns:cc="http://creativecommons.org/ns#" xmlns:rdf="http://www.w3.org/1999/02/22-rdf-syntax-ns#" xmlns:svg="http://www.w3.org/2000/svg" xmlns="http://www.w3.org/2000/svg" id="svg2" version="1.1" width="222.02082" height="170.52317" viewBox="67.19999946666664 455.8901592363517 177.616658819312 136.41853816537358" preserveAspectRatio="none">
  <path transform="matrix(0.67418278,0.73856454,-0.73856454,0.67418278,0,0)" d="m 478.96918,255.02776 a 22.000002,22.000008 0 0 1 -5.84284,-23.56679 l 20.7294,7.36831 z" id="path5228" style="fill:#d7191c;fill-rule:nonzero;stroke:#d7191c;stroke-width:0.80000007;stroke-linecap:square;stroke-miterlimit:4;stroke-dasharray:none;stroke-dashoffset:0;fill-opacity:0.24705882;stroke-opacity:1.0" />
  <metadata id="metadata79">
    <rdf:RDF>
      <cc:Work rdf:about="">
        <dc:format>image/svg+xml</dc:format>
        <dc:type rdf:resource="http://purl.org/dc/dcmitype/StillImage" />
        <dc:title />
      </cc:Work>
    </rdf:RDF>
  </metadata>
  <defs id="defs77">
    <marker orient="auto" refY="0.0" refX="0.0" id="marker4972" style="overflow:visible;">
      <path id="path4974" style="fill-rule:evenodd;stroke-width:0.625;stroke-linejoin:round;stroke:#d7191c;stroke-opacity:1;fill:#d7191c;fill-opacity:1" d="M 8.7185878,4.0337352 L -2.2072895,0.016013256 L 8.7185884,-4.0017078 C 6.9730900,-1.6296469 6.9831476,1.6157441 8.7185878,4.0337352 z " transform="scale(0.6) rotate(180) translate(0,0)" />
    </marker>
    <marker style="overflow:visible;" id="Arrow2Mend" refX="0.0" refY="0.0" orient="auto">
      <path transform="scale(0.6) rotate(180) translate(0,0)" d="M 8.7185878,4.0337352 L -2.2072895,0.016013256 L 8.7185884,-4.0017078 C 6.9730900,-1.6296469 6.9831476,1.6157441 8.7185878,4.0337352 z " style="fill-rule:evenodd;stroke-width:0.625;stroke-linejoin:round;stroke:#000000;stroke-opacity:1;fill:#000000;fill-opacity:1" id="path4396" />
    </marker>
    <clipPath id="clip4">
      <path id="path50" d="m 0,0 0,575 1060,0 0,-575 z" />
    </clipPath>
    <clipPath id="clip5">
      <path id="path63" d="m 0,0 0,575 1060,0 0,-575 z" />
    </clipPath>
  </defs>
  <g transform="matrix(0.31195933,0,0,0.31195933,-4.5217711,423.87833)" id="misc" style="stroke-width:1;stroke-linecap:square;stroke-linejoin:miter;stroke-miterlimit:10;stroke-dasharray:none;stroke-dashoffset:0" />
  <path id="path4769" d="m 155.99999,529.8898 0,60" style="fill:none;fill-rule:evenodd;stroke:#000000;stroke-width:1.60000014;stroke-linecap:butt;stroke-linejoin:miter;stroke-miterlimit:4;stroke-dasharray:none;stroke-opacity:1;marker-end:url(#Arrow2Mend)" />
  <path id="path5065" d="m 67.19998,525.8898 177.61667,0" style="fill:none;fill-rule:evenodd;stroke:#000000;stroke-width:0.72720009;stroke-linecap:butt;stroke-linejoin:miter;stroke-miterlimit:4;stroke-dasharray:2.90880028, 2.90880028;stroke-dashoffset:0;stroke-opacity:1" />
  <path id="path5067" d="m 155.99999,461.6768 0,56.213" style="fill:none;fill-rule:evenodd;stroke:#000000;stroke-width:0.72736752;stroke-linecap:butt;stroke-linejoin:miter;stroke-miterlimit:4;stroke-dasharray:2.90947008, 2.90947008;stroke-dashoffset:0;stroke-opacity:1" />
  <path style="fill:none;fill-rule:evenodd;stroke:#d7191c;stroke-width:1.60000015;stroke-linecap:butt;stroke-linejoin:miter;stroke-opacity:1;stroke-miterlimit:4;stroke-dasharray:none;marker-end:url(#marker4972)" d="m 155.99999,525.88981 -24,-64" id="path4904" />
  <g id="g7915" transform="matrix(0.9,0,0,0.9,87.898491,204.14432)">
    <path id="path7836" d="m 43.065,397.035 -0.225,0.03 -0.21,0.015 -0.225,0.03 -0.21,0.03 -0.195,0.03 -0.21,0.045 -0.195,0.03 -0.18,0.03 -0.195,0.045 -0.18,0.045 -0.18,0.045 -0.165,0.045 -0.165,0.045 -0.165,0.06 -0.165,0.06 -0.165,0.06 -0.165,0.06 -0.15,0.075 -0.15,0.075 -0.15,0.075 -0.15,0.09 -0.15,0.075 -0.15,0.105 -0.135,0.09 -0.15,0.105 -0.135,0.105 -0.15,0.12 -0.135,0.12 -0.15,0.12 -0.135,0.135 -0.15,0.15 -0.135,0.135 c -1.26,1.305 -1.935,2.985 -1.935,4.89 0,1.245 0.33,2.505 0.825,3.405 0.63,1.125 1.74,1.785 3.15,1.785 L 39.93,408.9 c -1.665,0 -2.52,-1.77 -2.52,-4.47 0,-1.62 1.035,-2.04 2.055,-2.04 1.65,0 2.4,1.155 2.4,3.435 l 0,0 c 0,1.8 -0.66,3.075 -1.935,3.075 l -0.195,0.495 c 1.17,0 2.16,-0.48 2.82,-1.29 0.585,-0.705 0.915,-1.71 0.915,-2.835 0,-2.28 -1.29,-3.705 -3.36,-3.705 -0.795,0 -1.395,0.135 -2.265,0.795 0.48,-2.67 2.475,-4.575 5.265,-5.04 z" style="font-style:normal;font-variant:normal;font-weight:normal;font-stretch:normal;letter-spacing:normal;word-spacing:normal;text-anchor:start;fill:#000000;fill-opacity:1;fill-rule:evenodd;stroke:#000000;stroke-width:0;stroke-linecap:butt;stroke-linejoin:miter;stroke-miterlimit:10.43299961;stroke-dasharray:none;stroke-dashoffset:0;stroke-opacity:1" />
    <path id="path7838" d="m 52.485,403.305 0,-0.345 -0.015,-0.33 -0.015,-0.315 -0.045,-0.315 -0.03,-0.315 -0.06,-0.3 -0.045,-0.285 -0.075,-0.285 -0.075,-0.27 -0.075,-0.27 -0.09,-0.255 -0.105,-0.255 -0.105,-0.24 -0.105,-0.225 -0.12,-0.21 -0.135,-0.21 -0.135,-0.195 -0.135,-0.195 -0.15,-0.165 -0.15,-0.165 -0.165,-0.15 -0.165,-0.15 -0.165,-0.12 -0.18,-0.12 -0.18,-0.105 -0.195,-0.09 -0.195,-0.075 -0.195,-0.06 -0.195,-0.045 -0.21,-0.045 -0.21,-0.015 -0.225,-0.015 c -2.85,0 -4.08,2.895 -4.08,6.03 0,2.895 0.975,6.195 4.02,6.195 l 0,-0.465 c -1.53,0 -2.31,-2.01 -2.31,-5.61 0,-3.6 0.795,-5.685 2.265,-5.685 1.575,0 2.355,2.07 2.355,5.76 l 0,0 c 0,3.51 -0.81,5.535 -2.31,5.535 l 0,0.465 c 2.895,0 4.005,-3.045 4.005,-6.09 z" style="font-style:normal;font-variant:normal;font-weight:normal;font-stretch:normal;letter-spacing:normal;word-spacing:normal;text-anchor:start;fill:#000000;fill-opacity:1;fill-rule:evenodd;stroke:#000000;stroke-width:0;stroke-linecap:butt;stroke-linejoin:miter;stroke-miterlimit:10.43299961;stroke-dasharray:none;stroke-dashoffset:0;stroke-opacity:1" />
    <path id="path7840" d="m 67.965,397.425 -4.2,0 0,0.33 c 0.78,0.09 1.095,0.135 1.395,0.465 0.27,0.3 0.345,0.84 0.345,1.74 l 0,6.015 -6.87,-8.55 -3.015,0 0,0.33 c 0.87,0 1.14,0.225 1.725,0.945 l 0,7.785 c 0,1.905 -0.27,2.16 -1.725,2.325 l 0,0.345 4.155,0 0,-0.345 c -1.365,-0.195 -1.65,-0.495 -1.65,-2.325 l 0,-6.87 7.83,9.72 0.33,0 0,-9.165 c 0,-1.395 0.18,-1.785 0.51,-2.085 0.225,-0.195 0.495,-0.255 1.17,-0.33 z" style="font-style:normal;font-variant:normal;font-weight:normal;font-stretch:normal;letter-spacing:normal;word-spacing:normal;text-anchor:start;fill:#000000;fill-opacity:1;fill-rule:evenodd;stroke:#000000;stroke-width:0;stroke-linecap:butt;stroke-linejoin:miter;stroke-miterlimit:10.43299961;stroke-dasharray:none;stroke-dashoffset:0;stroke-opacity:1" />
  </g>
  <g id="g7910" transform="matrix(0.9,0,0,0.9,98.848038,147.9886)">
    <path id="path7842" d="m 80.04,397.035 -0.225,0.03 -0.225,0.015 -0.21,0.03 -0.21,0.03 -0.21,0.03 -0.195,0.045 -0.195,0.03 -0.195,0.03 -0.18,0.045 -0.18,0.045 -0.18,0.045 -0.18,0.045 -0.165,0.045 -0.165,0.06 -0.165,0.06 -0.165,0.06 -0.15,0.06 -0.165,0.075 -0.15,0.075 -0.15,0.075 -0.15,0.09 -0.15,0.075 -0.135,0.105 -0.15,0.09 -0.15,0.105 -0.135,0.105 -0.15,0.12 -0.135,0.12 -0.15,0.12 -0.135,0.135 -0.15,0.15 -0.135,0.135 c -1.26,1.305 -1.935,2.985 -1.935,4.89 0,1.245 0.33,2.505 0.84,3.405 0.615,1.125 1.74,1.785 3.135,1.785 L 76.89,408.9 c -1.665,0 -2.52,-1.77 -2.52,-4.47 0,-1.62 1.05,-2.04 2.055,-2.04 1.65,0 2.4,1.155 2.4,3.435 l 0,0 c 0,1.8 -0.645,3.075 -1.935,3.075 l -0.195,0.495 c 1.17,0 2.175,-0.48 2.82,-1.29 0.6,-0.705 0.915,-1.71 0.915,-2.835 0,-2.28 -1.275,-3.705 -3.36,-3.705 -0.78,0 -1.38,0.135 -2.25,0.795 0.48,-2.67 2.46,-4.575 5.25,-5.04 z" style="font-style:normal;font-variant:normal;font-weight:normal;font-stretch:normal;letter-spacing:normal;word-spacing:normal;text-anchor:start;fill:#000000;fill-opacity:1;fill-rule:evenodd;stroke:#000000;stroke-width:0;stroke-linecap:butt;stroke-linejoin:miter;stroke-miterlimit:10.43299961;stroke-dasharray:none;stroke-dashoffset:0;stroke-opacity:1" />
    <path id="path7844" d="m 92.46,409.155 0,-0.27 c -0.78,-0.06 -1.35,-0.375 -2.085,-1.29 l -2.715,-3.435 0.525,-0.48 c 2.175,-2.025 2.7,-2.235 3.825,-2.235 l 0,-0.27 -3.615,0 0,0.255 c 0.69,0.015 0.885,0.09 0.885,0.315 0,0.165 -0.165,0.39 -0.405,0.615 l -2.445,2.16 0,-7.425 -0.06,-0.045 c -0.705,0.21 -1.155,0.36 -2.22,0.645 l -0.54,0.135 0,0.285 c 0.24,-0.015 0.39,-0.03 0.57,-0.03 0.6,0 0.765,0.225 0.765,1.08 l 0,8.535 c 0,0.915 -0.06,0.975 -1.335,1.185 l 0,0.27 4.155,0 0,-0.27 -0.345,-0.015 c -0.72,-0.045 -0.99,-0.285 -0.99,-0.915 l 0,-3.255 2.67,3.51 c 0.15,0.18 0.195,0.315 0.195,0.405 0,0.165 -0.165,0.27 -0.375,0.27 l -0.33,0 0,0.27 z" style="font-style:normal;font-variant:normal;font-weight:normal;font-stretch:normal;letter-spacing:normal;word-spacing:normal;text-anchor:start;fill:#000000;fill-opacity:1;fill-rule:evenodd;stroke:#000000;stroke-width:0;stroke-linecap:butt;stroke-linejoin:miter;stroke-miterlimit:10.43299961;stroke-dasharray:none;stroke-dashoffset:0;stroke-opacity:1" />
    <path id="path7846" d="m 100.605,402.27 0,-0.69 -1.38,0 c -0.345,0 -0.615,-0.045 -0.975,-0.165 l -0.39,-0.15 c -0.48,-0.18 -0.96,-0.27 -1.41,-0.27 -1.665,0 -2.97,1.275 -2.97,2.895 0,1.11 0.45,1.785 1.65,2.37 -0.255,0.255 -0.495,0.48 -0.765,0.705 -0.585,0.51 -0.825,0.87 -0.825,1.23 0,0.39 0.195,0.585 0.945,0.93 l 0.375,0.06 c 0.6,0.12 2.01,0.225 2.88,0.225 1.62,0 2.205,0.21 2.205,0.87 l 0,0 c 0,1.02 -1.35,1.725 -3.375,1.725 -1.575,0 -2.58,-0.525 -2.58,-1.305 0,-0.405 0.165,-0.66 0.87,-1.515 l -0.375,-0.06 c -1.275,0.93 -1.74,1.515 -1.74,2.16 0,0.945 1.365,1.725 3.075,1.725 1.275,0 2.625,-0.435 3.555,-1.14 0.72,-0.57 1.065,-1.14 1.065,-1.86 0,-1.095 -0.84,-1.83 -2.145,-1.89 L 96,408.015 c -0.96,-0.06 -1.38,-0.195 -1.38,-0.48 0,-0.36 0.585,-0.975 1.065,-1.11 l 0.33,0.03 c 0.315,0.03 0.57,0.06 0.675,0.06 l 0.09,-0.45 c -1.095,0 -1.83,-1.155 -1.83,-2.85 l 0,-0.06 c 0,-1.035 0.495,-1.65 1.32,-1.65 0.54,0 1.005,0.3 1.29,0.825 0.345,0.615 0.54,1.41 0.54,2.145 0,0.975 -0.525,1.59 -1.32,1.59 l -0.09,0.45 c 0.63,0 1.275,-0.27 1.845,-0.69 0.645,-0.48 0.93,-1.14 0.93,-2.055 0,-0.525 -0.09,-0.93 -0.345,-1.5 z" style="font-style:normal;font-variant:normal;font-weight:normal;font-stretch:normal;letter-spacing:normal;word-spacing:normal;text-anchor:start;fill:#000000;fill-opacity:1;fill-rule:evenodd;stroke:#000000;stroke-width:0;stroke-linecap:butt;stroke-linejoin:miter;stroke-miterlimit:10.43299961;stroke-dasharray:none;stroke-dashoffset:0;stroke-opacity:1" />
  </g>
  <g ns0:preamble="/Users/Lizzie/Documents/Old mac/CMEP folder/underground-inkscape-preamble.tex" ns0:text="$\\theta$" word-spacing="normal" letter-spacing="normal" font-size-adjust="none" font-stretch="normal" font-weight="normal" font-variant="normal" font-style="normal" stroke-miterlimit="10.433" xml:space="preserve" transform="matrix(1.5,0,0,-1.5,-211.52419,1232.7097)" id="g5294" style="font-style:normal;font-variant:normal;font-weight:normal;font-stretch:normal;letter-spacing:normal;word-spacing:normal;text-anchor:start;fill:#d7191c;fill-opacity:1;fill-rule:evenodd;stroke:#000000;stroke-linecap:butt;stroke-linejoin:miter;stroke-miterlimit:10.43299961;stroke-dasharray:none;stroke-dashoffset:0;stroke-opacity:1"><path id="path5296" d="m 229.05,482.81 -0.01,0.14 0,0.14 -0.01,0.14 -0.01,0.13 -0.02,0.12 -0.02,0.12 -0.02,0.12 -0.03,0.11 -0.03,0.11 -0.03,0.1 -0.04,0.1 -0.04,0.09 -0.04,0.09 -0.04,0.08 -0.05,0.08 -0.05,0.07 -0.05,0.07 -0.05,0.07 -0.06,0.06 -0.06,0.05 -0.06,0.05 -0.07,0.05 -0.06,0.04 -0.07,0.04 -0.07,0.03 -0.07,0.03 -0.07,0.03 -0.08,0.02 -0.07,0.01 -0.08,0.01 -0.08,0.01 -0.08,0 -0.08,-0.34 c 0.48,0 0.6,-0.66 0.6,-1.52 0,-0.49 -0.12,-1.14 -0.29,-1.96 l -2.44,0 c 0.3,1.4 1.27,3.48 2.13,3.48 l 0.08,0.34 c -2.25,0 -3.62,-3.85 -3.62,-5.9 0,-1.42 0.49,-2.11 1.62,-2.11 l 0.06,0.34 c -0.51,0 -0.69,0.66 -0.69,1.47 0,0.57 0.11,1.36 0.3,1.95 l 2.45,0 c -0.04,-0.1 -0.11,-0.44 -0.19,-0.71 -0.37,-1.17 -1.08,-2.71 -1.87,-2.71 l -0.06,-0.34 c 1.82,0 3.52,3.38 3.52,5.7 z" style="fill:#d7191c;fill-opacity:1;stroke-width:0" /></g>  <g style="font-style:normal;font-variant:normal;font-weight:normal;font-stretch:normal;letter-spacing:normal;word-spacing:normal;text-anchor:start;fill:#d7191c;fill-opacity:1;fill-rule:evenodd;stroke:#000000;stroke-linecap:butt;stroke-linejoin:miter;stroke-miterlimit:10.43299961;stroke-dasharray:none;stroke-dashoffset:0;stroke-opacity:1" id="content" transform="matrix(1.35,0,0,-1.35,-198.88574,1110.7077)" xml:space="preserve" stroke-miterlimit="10.433" font-style="normal" font-variant="normal" font-weight="normal" font-stretch="normal" font-size-adjust="none" letter-spacing="normal" word-spacing="normal" ns0:text="$\\quantity{F}{N}$" ns0:preamble="/Users/Lizzie/Documents/Old mac/CMEP folder/underground-inkscape-preamble.tex"><path style="fill:#d7191c;stroke-width:0;fill-opacity:1" d="m 231.99,484.94 -6.15,0 -0.05,-0.17 0.22,0 c 0.72,0 0.9,-0.22 0.9,-0.46 0,-0.09 -0.02,-0.19 -0.04,-0.29 l -1.47,-5.86 c -0.11,-0.41 -0.36,-0.74 -1.26,-0.74 l -0.21,0 -0.05,-0.19 4.05,0 0.05,0.19 -0.38,0 c -0.71,0 -0.94,0.19 -0.94,0.49 0,0.08 0.04,0.17 0.05,0.25 l 0.74,2.99 1.15,0 c 0.34,0 0.83,-0.03 0.83,-0.59 0,-0.21 -0.03,-0.55 -0.06,-0.72 l 0.19,0 0.71,2.86 -0.19,0 c -0.25,-1 -0.8,-1.12 -1.53,-1.12 l -0.98,0 0.73,2.93 1.74,0 c 0.56,0 1.27,-0.11 1.3,-1.03 0,-0.16 0,-0.33 -0.01,-0.43 l 0.19,0 z" id="path4391" /><path style="fill:#d7191c;stroke-width:0;fill-opacity:1" d="m 240.79,485.05 -2.81,0 0,-0.22 c 0.52,-0.06 0.73,-0.09 0.93,-0.31 0.18,-0.2 0.23,-0.56 0.23,-1.16 l 0,-4.01 -4.57,5.7 -2.02,0 0,-0.22 c 0.58,0 0.76,-0.15 1.15,-0.63 l 0,-5.19 c 0,-1.27 -0.17,-1.44 -1.15,-1.55 l 0,-0.23 2.78,0 0,0.23 c -0.92,0.13 -1.1,0.33 -1.1,1.55 l 0,4.58 5.22,-6.48 0.21,0 0,6.11 c 0,0.93 0.12,1.19 0.35,1.39 0.15,0.13 0.33,0.17 0.78,0.22 z" id="path4393" /></g>  <g transform="matrix(3.0707965,0,0,3.0707965,-323.54481,-1088.6925)" id="g3553">
    <g style="stroke-width:1;stroke-linecap:square;stroke-linejoin:miter;stroke-miterlimit:10;stroke-dasharray:none;stroke-dashoffset:0" clip-path="url(#clip4)" id="g52" transform="matrix(0.31195933,0,0,0.31195933,-4.5217711,427.80733)">
      <g id="g54" style="fill:#2b83ba;fill-opacity:1;fill-rule:nonzero;stroke:none">
        <path d="m 524.01,314.24 c 0,4.97 -4.03,9 -9,9 -4.97,0 -9,-4.03 -9,-9 0,-4.97 4.03,-9 9,-9 4.97,0 9,4.03 9,9 z" id="path56" />
        <title id="title58">Point E</title>
        <desc id="desc60">Point E: Intersection point of f, g</desc>
      </g>
    </g>
    <g style="stroke-width:1;stroke-linecap:square;stroke-linejoin:miter;stroke-miterlimit:10;stroke-dasharray:none;stroke-dashoffset:0" clip-path="url(#clip5)" id="g65" transform="matrix(0.31195933,0,0,0.31195933,-4.5217711,427.80733)">
      <g id="g67" style="fill:none;stroke:#000000;stroke-linecap:round;stroke-linejoin:round;stroke-opacity:1">
        <path d="m 524.01,314.24 c 0,4.97 -4.03,9 -9,9 -4.97,0 -9,-4.03 -9,-9 0,-4.97 4.03,-9 9,-9 4.97,0 9,4.03 9,9 z" id="path69" />
        <title id="title71">Point E</title>
        <desc id="desc73">Point E: Intersection point of f, g</desc>
      </g>
    </g>
  </g>
</svg>