<?xml version='1.0' ?><svg xmlns:ns0="http://www.iki.fi/pav/software/textext/" xmlns:dc="http://purl.org/dc/elements/1.1/" xmlns:cc="http://creativecommons.org/ns#" xmlns:rdf="http://www.w3.org/1999/02/22-rdf-syntax-ns#" xmlns:svg="http://www.w3.org/2000/svg" xmlns="http://www.w3.org/2000/svg" id="svg8368" version="1.1" width="220.0" height="160.0" viewBox="146.40000232380953 173.88974676015465 176.0000027936508 128.00000203174602" preserveAspectRatio="none">
  <metadata id="metadata8562">
    <rdf:RDF>
      <cc:Work rdf:about="">
        <dc:format>image/svg+xml</dc:format>
        <dc:type rdf:resource="http://purl.org/dc/dcmitype/StillImage" />
        <dc:title />
      </cc:Work>
    </rdf:RDF>
  </metadata>
  <defs id="defs8560">
    <marker orient="auto" refY="0.0" refX="0.0" id="marker9633" style="overflow:visible;">
      <path id="path9635" style="fill-rule:evenodd;stroke-width:0.625;stroke-linejoin:round;stroke:#000000;stroke-opacity:1;fill:#000000;fill-opacity:1" d="M 8.7185878,4.0337352 L -2.2072895,0.016013256 L 8.7185884,-4.0017078 C 6.9730900,-1.6296469 6.9831476,1.6157441 8.7185878,4.0337352 z " transform="scale(0.6) rotate(180) translate(0,0)" />
    </marker>
    <marker style="overflow:visible;" id="marker9591" refX="0.0" refY="0.0" orient="auto">
      <path transform="scale(0.6) rotate(180) translate(0,0)" d="M 8.7185878,4.0337352 L -2.2072895,0.016013256 L 8.7185884,-4.0017078 C 6.9730900,-1.6296469 6.9831476,1.6157441 8.7185878,4.0337352 z " style="fill-rule:evenodd;stroke-width:0.625;stroke-linejoin:round;stroke:#000000;stroke-opacity:1;fill:#000000;fill-opacity:1" id="path9593" />
    </marker>
    <marker orient="auto" refY="0.0" refX="0.0" id="Arrow2Mend" style="overflow:visible;">
      <path id="path5565" style="fill-rule:evenodd;stroke-width:0.625;stroke-linejoin:round;stroke:#000000;stroke-opacity:1;fill:#000000;fill-opacity:1" d="M 8.7185878,4.0337352 L -2.2072895,0.016013256 L 8.7185884,-4.0017078 C 6.9730900,-1.6296469 6.9831476,1.6157441 8.7185878,4.0337352 z " transform="scale(0.6) rotate(180) translate(0,0)" />
    </marker>
    <clipPath id="clip1">
      <path d="m 0,0 0,575 1060,0 0,-575 z" id="path8377" />
    </clipPath>
    <clipPath id="clip13">
      <path d="m 0,0 0,575 1060,0 0,-575 z" id="path8533" />
    </clipPath>
    <clipPath id="clip14">
      <path d="m 0,0 0,575 1060,0 0,-575 z" id="path8546" />
    </clipPath>
  </defs>
  <g style="stroke-width:1;stroke-linecap:square;stroke-linejoin:miter;stroke-miterlimit:10;stroke-dasharray:none;stroke-dashoffset:0" id="misc" transform="matrix(0.25325898,0,0,0.25325898,99.518365,160.79905)" />
  <path style="fill:none;fill-rule:evenodd;stroke:#000000;stroke-width:0.72720009;stroke-linecap:butt;stroke-linejoin:miter;stroke-miterlimit:4;stroke-dasharray:2.90880041, 2.90880041;stroke-dashoffset:0;stroke-opacity:1" d="m 228,173.88976 0,128.00001" id="path9481" />
  <g style="stroke:#ffae61;stroke-width:1.4943737;stroke-linecap:square;stroke-linejoin:miter;stroke-miterlimit:10;stroke-dasharray:none;stroke-dashoffset:0;stroke-opacity:1" clip-path="url(#clip1)" id="g8379" transform="matrix(0.53534138,0,0,0.53534138,-47.356892,70.255264)">
    <g id="g8381" style="fill:#fdae61;fill-opacity:0.24706002;fill-rule:nonzero;stroke:#ffae61;stroke-width:1.4943737;stroke-miterlimit:10;stroke-dasharray:none;stroke-opacity:1">
      <path style="stroke:#ffae61;stroke-width:1.4943737;stroke-miterlimit:10;stroke-dasharray:none;stroke-opacity:1" d="m 575.01,314.24 c 0,-8.82 -1.94,-17.52 -5.69,-25.5 l -54.31,25.5 z" id="path8383" />
      <title id="title8385">Angle Ã&#131;Â&#142;Ã&#130;Â³</title>
      <desc id="desc8387">Angle Ã&#131;Â&#142;Ã&#130;Â³: Angle between f, h</desc>
    </g>
  </g>
  <path transform="matrix(0.9984566,0.05553754,-0.05553754,0.9984566,0,0)" d="m 213.93114,226.65661 a 27.206646,33.578354 0 0 1 1.22524,-11.58501 l 25.95379,10.07234 z" id="path11112" style="fill:#fdae61;fill-rule:nonzero;stroke:#fdae61;stroke-width:0.80000007;stroke-linecap:square;stroke-miterlimit:4;stroke-dasharray:none;stroke-dashoffset:0;fill-opacity:0.24705882;stroke-opacity:1.0" />
  <path style="fill:none;fill-rule:evenodd;stroke:#000000;stroke-width:0.72720009;stroke-linecap:butt;stroke-linejoin:miter;stroke-miterlimit:4;stroke-dasharray:2.90880041, 2.90880041;stroke-dashoffset:0;stroke-opacity:1" d="m 146.39999,238.36969 176.00002,0" id="path9460" />
  <path style="fill:none;fill-rule:evenodd;stroke:#000000;stroke-width:1.60000015;stroke-linecap:butt;stroke-linejoin:miter;stroke-miterlimit:4;stroke-dasharray:none;stroke-opacity:1;marker-end:url(#Arrow2Mend)" d="M 227.67496,238.92071 298.3663,205.94822" id="path9505" />
  <path style="fill:#ffae61;fill-rule:nonzero;stroke:#ffae61;stroke-width:0.77632844;stroke-linecap:square;stroke-miterlimit:4;stroke-dasharray:none;stroke-dashoffset:0;fill-opacity:0.24705882;stroke-opacity:1.0" id="path5101" d="m -341.47831,114.95373 a 30.161663,27.747797 0 0 1 2.96265,-13.30121 l 27.1684,12.05138 z" transform="matrix(-0.39799897,-0.91738586,0.91738586,-0.39799897,0,0)" />
  <path style="fill:none;fill-rule:evenodd;stroke:#000000;stroke-width:1.60000015;stroke-linecap:butt;stroke-linejoin:miter;stroke-miterlimit:4;stroke-dasharray:none;stroke-opacity:1;marker-end:url(#marker9591)" d="m 231.20971,245.16613 25.297,51.38869" id="path9583" />
  <g transform="matrix(0.8,0,0,0.8,213.24248,-92.810606)" id="g12736">
    <path style="font-style:normal;font-variant:normal;font-weight:normal;font-stretch:normal;letter-spacing:normal;word-spacing:normal;text-anchor:start;fill:#000000;fill-opacity:1;fill-rule:evenodd;stroke:#000000;stroke-width:0;stroke-linecap:butt;stroke-linejoin:miter;stroke-miterlimit:10.43299961;stroke-dasharray:none;stroke-dashoffset:0;stroke-opacity:1" d="m 63.165,400.11 0.06,-0.12 0.075,-0.105 0.075,-0.12 0.06,-0.105 0.075,-0.105 0.075,-0.105 0.075,-0.09 0.075,-0.09 0.075,-0.09 0.075,-0.075 0.075,-0.09 0.075,-0.075 0.075,-0.06 0.075,-0.075 0.075,-0.06 0.09,-0.06 0.075,-0.06 0.09,-0.045 0.075,-0.045 0.09,-0.045 0.09,-0.045 0.09,-0.03 0.09,-0.045 0.09,-0.03 0.09,-0.015 0.09,-0.03 0.09,-0.015 0.105,-0.015 0.09,-0.015 0.105,0 0.105,-0.015 0.09,0 c 1.185,0 1.92,0.6 1.92,1.815 0,1.08 -0.57,1.875 -1.44,2.37 -0.345,0.21 -0.81,0.405 -1.485,0.63 l 0,0.255 c 1.005,0 1.425,0.045 1.815,0.18 1.23,0.345 1.845,1.215 1.845,2.565 0,1.5 -0.99,2.715 -2.31,2.715 -0.495,0 -0.87,-0.09 -1.53,-0.555 -0.495,-0.36 -0.78,-0.465 -1.08,-0.465 -0.405,0 -0.735,0.27 -0.735,0.645 0,0.63 0.705,1.005 1.995,1.005 1.575,0 3.27,-0.51 4.125,-1.65 0.51,-0.675 0.81,-1.545 0.81,-2.475 0,-0.915 -0.285,-1.74 -0.78,-2.28 -0.375,-0.39 -0.69,-0.6 -1.47,-0.945 1.185,-0.705 1.65,-1.59 1.65,-2.445 0,-1.455 -1.125,-2.43 -2.775,-2.43 -1.845,0 -2.97,1.2 -3.48,2.88 z" id="path12479" />
    <path style="font-style:normal;font-variant:normal;font-weight:normal;font-stretch:normal;letter-spacing:normal;word-spacing:normal;text-anchor:start;fill:#000000;fill-opacity:1;fill-rule:evenodd;stroke:#000000;stroke-width:0;stroke-linecap:butt;stroke-linejoin:miter;stroke-miterlimit:10.43299961;stroke-dasharray:none;stroke-dashoffset:0;stroke-opacity:1" d="m 79.425,403.305 0,-0.345 -0.015,-0.33 -0.03,-0.315 -0.03,-0.315 -0.045,-0.315 -0.045,-0.3 -0.06,-0.285 -0.06,-0.285 -0.075,-0.27 -0.09,-0.27 -0.09,-0.255 -0.09,-0.255 -0.105,-0.24 -0.12,-0.225 -0.12,-0.21 -0.12,-0.21 -0.135,-0.195 -0.15,-0.195 -0.135,-0.165 -0.165,-0.165 -0.15,-0.15 -0.165,-0.15 -0.18,-0.12 -0.18,-0.12 -0.18,-0.105 -0.18,-0.09 -0.195,-0.075 -0.195,-0.06 -0.21,-0.045 -0.21,-0.045 -0.21,-0.015 -0.21,-0.015 c -2.865,0 -4.08,2.895 -4.08,6.03 0,2.895 0.975,6.195 4.005,6.195 l 0,-0.465 c -1.53,0 -2.31,-2.01 -2.31,-5.61 0,-3.6 0.795,-5.685 2.28,-5.685 1.56,0 2.34,2.07 2.34,5.76 l 0,0 c 0,3.51 -0.795,5.535 -2.31,5.535 l 0,0.465 c 2.895,0 4.02,-3.045 4.02,-6.09 z" id="path12481" />
    <path style="font-style:normal;font-variant:normal;font-weight:normal;font-stretch:normal;letter-spacing:normal;word-spacing:normal;text-anchor:start;fill:#000000;fill-opacity:1;fill-rule:evenodd;stroke:#000000;stroke-width:0;stroke-linecap:butt;stroke-linejoin:miter;stroke-miterlimit:10.43299961;stroke-dasharray:none;stroke-dashoffset:0;stroke-opacity:1" d="m 83.97,399.825 0,-0.105 0,-0.09 -0.015,-0.09 -0.015,-0.075 -0.015,-0.09 -0.03,-0.09 -0.03,-0.075 -0.03,-0.09 -0.03,-0.075 -0.045,-0.075 -0.045,-0.075 -0.045,-0.075 -0.045,-0.075 -0.06,-0.06 -0.045,-0.075 -0.06,-0.06 -0.06,-0.06 -0.075,-0.06 -0.06,-0.045 -0.075,-0.045 -0.075,-0.06 -0.075,-0.03 -0.075,-0.045 -0.075,-0.045 -0.075,-0.03 -0.09,-0.03 -0.075,-0.015 -0.09,-0.03 -0.09,-0.015 -0.09,0 -0.09,-0.015 -0.09,0 0,0.87 c 0.48,0 0.9,0.405 0.9,0.93 l 0,0 c 0,0.51 -0.405,0.915 -0.915,0.915 -0.525,0 -0.915,-0.39 -0.915,-0.945 0,-0.495 0.375,-0.9 0.93,-0.9 l 0,-0.87 c -1.02,0 -1.815,0.765 -1.815,1.77 0,1.02 0.78,1.815 1.8,1.815 0.99,0 1.785,-0.795 1.785,-1.785 z" id="path12483" />
  </g>
  <g style="font-style:normal;font-variant:normal;font-weight:normal;font-stretch:normal;letter-spacing:normal;word-spacing:normal;text-anchor:start;fill:none;fill-opacity:1;fill-rule:evenodd;stroke:#000000;stroke-linecap:butt;stroke-linejoin:miter;stroke-miterlimit:10.43299961;stroke-dasharray:none;stroke-dashoffset:0;stroke-opacity:1" ns0:preamble="/Users/Lizzie/Documents/Old mac/CMEP folder/underground-inkscape-preamble.tex" ns0:text="$30^{\\circ}$" word-spacing="normal" letter-spacing="normal" font-size-adjust="none" font-stretch="normal" font-weight="normal" font-variant="normal" font-style="normal" stroke-miterlimit="10.433" xml:space="preserve" transform="matrix(1.2,0,0,-1.2,-39.420069,860.68428)" id="g10166"><path id="path10168" d="m 224.15,483.26 0.05,0.08 0.05,0.07 0.04,0.08 0.05,0.07 0.05,0.07 0.04,0.07 0.05,0.06 0.05,0.06 0.05,0.06 0.05,0.05 0.05,0.06 0.05,0.05 0.05,0.04 0.06,0.05 0.05,0.04 0.05,0.04 0.06,0.04 0.05,0.03 0.06,0.03 0.06,0.03 0.05,0.03 0.06,0.02 0.06,0.03 0.06,0.02 0.06,0.01 0.07,0.02 0.06,0.01 0.06,0.01 0.07,0.01 0.06,0 0.07,0.01 0.07,0 c 0.78,0 1.28,-0.4 1.28,-1.21 0,-0.72 -0.38,-1.25 -0.96,-1.58 -0.24,-0.14 -0.55,-0.27 -1,-0.42 l 0,-0.17 c 0.68,0 0.95,-0.03 1.21,-0.12 0.82,-0.23 1.23,-0.81 1.23,-1.71 0,-1 -0.66,-1.81 -1.54,-1.81 -0.33,0 -0.58,0.06 -1.01,0.37 -0.34,0.24 -0.53,0.31 -0.73,0.31 -0.27,0 -0.48,-0.18 -0.48,-0.43 0,-0.42 0.46,-0.67 1.32,-0.67 1.06,0 2.18,0.34 2.75,1.1 0.35,0.45 0.55,1.03 0.55,1.65 0,0.61 -0.19,1.16 -0.52,1.52 -0.25,0.26 -0.47,0.4 -0.99,0.63 0.8,0.47 1.1,1.06 1.1,1.63 0,0.97 -0.74,1.62 -1.84,1.62 -1.24,0 -1.98,-0.8 -2.33,-1.92 z" style="fill:#000000;stroke-width:0" /><path id="path10170" d="m 234.99,481.13 0,0.23 -0.01,0.22 -0.01,0.21 -0.03,0.21 -0.02,0.21 -0.04,0.2 -0.03,0.19 -0.05,0.19 -0.05,0.18 -0.05,0.18 -0.06,0.17 -0.07,0.17 -0.07,0.16 -0.07,0.15 -0.08,0.14 -0.09,0.14 -0.09,0.13 -0.09,0.13 -0.1,0.11 -0.1,0.11 -0.11,0.1 -0.11,0.1 -0.11,0.08 -0.12,0.08 -0.12,0.07 -0.13,0.06 -0.13,0.05 -0.13,0.04 -0.13,0.03 -0.14,0.03 -0.14,0.01 -0.15,0.01 c -1.9,0 -2.72,-1.93 -2.72,-4.02 0,-1.93 0.65,-4.13 2.68,-4.13 l 0,0.31 c -1.02,0 -1.54,1.34 -1.54,3.74 0,2.4 0.53,3.79 1.51,3.79 1.05,0 1.57,-1.38 1.57,-3.84 l 0,0 c 0,-2.34 -0.54,-3.69 -1.54,-3.69 l 0,-0.31 c 1.93,0 2.67,2.03 2.67,4.06 z" style="fill:#000000;stroke-width:0" /><path id="path10172" d="m 238.03,483.45 0,0.07 -0.01,0.06 -0.01,0.06 -0.01,0.05 -0.01,0.06 -0.02,0.06 -0.01,0.05 -0.03,0.06 -0.02,0.05 -0.03,0.05 -0.02,0.05 -0.03,0.05 -0.04,0.05 -0.03,0.04 -0.04,0.05 -0.04,0.04 -0.04,0.04 -0.04,0.04 -0.05,0.03 -0.04,0.03 -0.05,0.04 -0.05,0.02 -0.05,0.03 -0.05,0.03 -0.06,0.02 -0.05,0.02 -0.06,0.01 -0.05,0.02 -0.06,0.01 -0.06,0 -0.06,0.01 -0.06,0 0,-0.58 c 0.32,0 0.59,-0.27 0.59,-0.62 l 0,0 c 0,-0.34 -0.26,-0.61 -0.61,-0.61 -0.34,0 -0.61,0.26 -0.61,0.63 0,0.33 0.26,0.6 0.63,0.6 l 0,0.58 c -0.68,0 -1.22,-0.51 -1.22,-1.18 0,-0.68 0.53,-1.21 1.2,-1.21 0.67,0 1.2,0.53 1.2,1.19 z" style="fill:#000000;stroke-width:0" /></g>  <g id="g10416" transform="matrix(1.35,0,0,-1.35,-43.629407,838.84122)" xml:space="preserve" stroke-miterlimit="10.433" font-style="normal" font-variant="normal" font-weight="normal" font-stretch="normal" font-size-adjust="none" letter-spacing="normal" word-spacing="normal" ns0:text="$\\quantity{6\\sqrt{2}}{N}$" ns0:preamble="/Users/Lizzie/Documents/Old mac/CMEP folder/underground-inkscape-preamble.tex" style="font-style:normal;font-variant:normal;font-weight:normal;font-stretch:normal;letter-spacing:normal;word-spacing:normal;text-anchor:start;fill:none;fill-opacity:1;fill-rule:evenodd;stroke:#000000;stroke-linecap:butt;stroke-linejoin:miter;stroke-miterlimit:10.43299961;stroke-dasharray:none;stroke-dashoffset:0;stroke-opacity:1"><path style="fill:#000000;stroke-width:0" d="m 228.71,482.58 -0.15,-0.02 -0.14,-0.02 -0.15,-0.02 -0.14,-0.02 -0.13,-0.02 -0.14,-0.02 -0.13,-0.02 -0.12,-0.03 -0.13,-0.02 -0.12,-0.03 -0.12,-0.03 -0.11,-0.03 -0.11,-0.04 -0.11,-0.03 -0.11,-0.04 -0.11,-0.04 -0.11,-0.05 -0.1,-0.04 -0.1,-0.05 -0.1,-0.06 -0.1,-0.05 -0.1,-0.06 -0.1,-0.06 -0.09,-0.07 -0.1,-0.07 -0.09,-0.07 -0.1,-0.07 -0.09,-0.08 -0.1,-0.09 -0.09,-0.09 -0.1,-0.09 -0.09,-0.1 c -0.84,-0.86 -1.29,-1.98 -1.29,-3.26 0,-0.82 0.22,-1.66 0.55,-2.26 0.42,-0.76 1.16,-1.2 2.1,-1.2 l 0.13,0.34 c -1.11,0 -1.68,1.18 -1.68,2.97 0,1.09 0.69,1.37 1.37,1.37 1.1,0 1.6,-0.78 1.6,-2.29 l 0,0 c 0,-1.2 -0.44,-2.05 -1.29,-2.05 l -0.13,-0.34 c 0.78,0 1.44,0.32 1.88,0.87 0.39,0.47 0.61,1.13 0.61,1.89 0,1.52 -0.86,2.46 -2.24,2.46 -0.53,0 -0.93,-0.08 -1.51,-0.53 0.32,1.78 1.65,3.06 3.51,3.37 z" id="path10418" /><path style="fill:#000000;stroke-width:0" d="m 240.76,486.5 -0.64,0 -4.9,-12.59 -0.05,0 -2.41,6.33 -0.23,0 -1.85,-1.46 0.14,-0.24 c 0.27,0.24 0.57,0.37 0.78,0.37 0.29,0 0.53,-0.17 0.73,-0.7 l 2.39,-6.26 0.38,0 z" id="path10420" /><line style="stroke-width:0.65799999" x1="240.35001" y1="486.20999" x2="246.27" y2="486.20999" id="line10422" /><path style="fill:#000000;stroke-width:0" d="m 245.96,476.12 -0.16,0.07 c -0.39,-0.66 -0.64,-0.79 -1.14,-0.79 l -2.77,0 1.96,2.08 c 1.05,1.1 1.51,1.99 1.51,2.92 0,1.17 -0.85,2.08 -2.19,2.08 -1.46,0 -2.21,-0.97 -2.46,-2.35 l 0.25,-0.06 c 0.47,1.16 0.88,1.54 1.74,1.54 1,0 1.64,-0.59 1.64,-1.67 0,-1 -0.42,-1.9 -1.54,-3.07 l -2.11,-2.23 0,-0.14 4.64,0 z" id="path10424" /><path style="fill:#000000;stroke-width:0" d="m 256.31,482.32 -2.81,0 0,-0.23 c 0.52,-0.06 0.74,-0.08 0.94,-0.31 0.17,-0.2 0.22,-0.55 0.22,-1.15 l 0,-4.02 -4.57,5.71 -2.01,0 0,-0.23 c 0.58,0 0.75,-0.14 1.15,-0.62 l 0,-5.2 c 0,-1.26 -0.18,-1.44 -1.15,-1.55 l 0,-0.22 2.77,0 0,0.22 c -0.92,0.13 -1.1,0.33 -1.1,1.55 l 0,4.58 5.22,-6.48 0.21,0 0,6.12 c 0,0.93 0.12,1.19 0.35,1.39 0.15,0.13 0.33,0.16 0.78,0.21 z" id="path10426" /></g>  <g style="font-style:normal;font-variant:normal;font-weight:normal;font-stretch:normal;letter-spacing:normal;word-spacing:normal;text-anchor:start;fill:none;fill-opacity:1;fill-rule:evenodd;stroke:#000000;stroke-linecap:butt;stroke-linejoin:miter;stroke-miterlimit:10.43299961;stroke-dasharray:none;stroke-dashoffset:0;stroke-opacity:1" ns0:preamble="/Users/Lizzie/Documents/Old mac/CMEP folder/underground-inkscape-preamble.tex" ns0:text="$\\quantity{6\\sqrt{2}}{N}$" word-spacing="normal" letter-spacing="normal" font-size-adjust="none" font-stretch="normal" font-weight="normal" font-variant="normal" font-style="normal" stroke-miterlimit="10.433" xml:space="preserve" transform="matrix(1.35,0,0,-1.35,-39.702297,936.33727)" id="content"><path id="path10767" d="m 228.71,482.58 -0.15,-0.02 -0.14,-0.02 -0.15,-0.02 -0.14,-0.02 -0.13,-0.02 -0.14,-0.02 -0.13,-0.02 -0.12,-0.03 -0.13,-0.02 -0.12,-0.03 -0.12,-0.03 -0.11,-0.03 -0.11,-0.04 -0.11,-0.03 -0.11,-0.04 -0.11,-0.04 -0.11,-0.05 -0.1,-0.04 -0.1,-0.05 -0.1,-0.06 -0.1,-0.05 -0.1,-0.06 -0.1,-0.06 -0.09,-0.07 -0.1,-0.07 -0.09,-0.07 -0.1,-0.07 -0.09,-0.08 -0.1,-0.09 -0.09,-0.09 -0.1,-0.09 -0.09,-0.1 c -0.84,-0.86 -1.29,-1.98 -1.29,-3.26 0,-0.82 0.22,-1.66 0.55,-2.26 0.42,-0.76 1.16,-1.2 2.1,-1.2 l 0.13,0.34 c -1.11,0 -1.68,1.18 -1.68,2.97 0,1.09 0.69,1.37 1.37,1.37 1.1,0 1.6,-0.78 1.6,-2.29 l 0,0 c 0,-1.2 -0.44,-2.05 -1.29,-2.05 l -0.13,-0.34 c 0.78,0 1.44,0.32 1.88,0.87 0.39,0.47 0.61,1.13 0.61,1.89 0,1.52 -0.86,2.46 -2.24,2.46 -0.53,0 -0.93,-0.08 -1.51,-0.53 0.32,1.78 1.65,3.06 3.51,3.37 z" style="fill:#000000;stroke-width:0" /><path id="path10769" d="m 240.76,486.5 -0.64,0 -4.9,-12.59 -0.05,0 -2.41,6.33 -0.23,0 -1.85,-1.46 0.14,-0.24 c 0.27,0.24 0.57,0.37 0.78,0.37 0.29,0 0.53,-0.17 0.73,-0.7 l 2.39,-6.26 0.38,0 z" style="fill:#000000;stroke-width:0" /><line id="line10771" y2="486.20999" x2="246.27" y1="486.20999" x1="240.35001" style="stroke-width:0.65799999" /><path id="path10773" d="m 245.96,476.12 -0.16,0.07 c -0.39,-0.66 -0.64,-0.79 -1.14,-0.79 l -2.77,0 1.96,2.08 c 1.05,1.1 1.51,1.99 1.51,2.92 0,1.17 -0.85,2.08 -2.19,2.08 -1.46,0 -2.21,-0.97 -2.46,-2.35 l 0.25,-0.06 c 0.47,1.16 0.88,1.54 1.74,1.54 1,0 1.64,-0.59 1.64,-1.67 0,-1 -0.42,-1.9 -1.54,-3.07 l -2.11,-2.23 0,-0.14 4.64,0 z" style="fill:#000000;stroke-width:0" /><path id="path10775" d="m 256.31,482.32 -2.81,0 0,-0.23 c 0.52,-0.06 0.74,-0.08 0.94,-0.31 0.17,-0.2 0.22,-0.55 0.22,-1.15 l 0,-4.02 -4.57,5.71 -2.01,0 0,-0.23 c 0.58,0 0.75,-0.14 1.15,-0.62 l 0,-5.2 c 0,-1.26 -0.18,-1.44 -1.15,-1.55 l 0,-0.22 2.77,0 0,0.22 c -0.92,0.13 -1.1,0.33 -1.1,1.55 l 0,4.58 5.22,-6.48 0.21,0 0,6.12 c 0,0.93 0.12,1.19 0.35,1.39 0.15,0.13 0.33,0.16 0.78,0.21 z" style="fill:#000000;stroke-width:0" /></g>  <g id="g10995" transform="matrix(1.35,0,0,-1.35,-146.64704,843.03679)" xml:space="preserve" stroke-miterlimit="10.433" font-style="normal" font-variant="normal" font-weight="normal" font-stretch="normal" font-size-adjust="none" letter-spacing="normal" word-spacing="normal" ns0:text="$\\quantity{12}{N}$" ns0:preamble="/Users/Lizzie/Documents/Old mac/CMEP folder/underground-inkscape-preamble.tex" style="font-style:normal;font-variant:normal;font-weight:normal;font-stretch:normal;letter-spacing:normal;word-spacing:normal;text-anchor:start;fill:none;fill-opacity:1;fill-rule:evenodd;stroke:#000000;stroke-linecap:butt;stroke-linejoin:miter;stroke-miterlimit:10.43299961;stroke-dasharray:none;stroke-dashoffset:0;stroke-opacity:1"><path style="fill:#000000;stroke-width:0" d="m 228.1,477.23 0,0.18 c -0.89,0 -1.13,0.21 -1.13,0.72 l 0,7.05 -0.1,0.04 -2.12,-1.08 0,-0.16 0.32,0.11 c 0.21,0.09 0.41,0.15 0.53,0.15 0.25,0 0.36,-0.18 0.36,-0.58 l 0,-5.3 c 0,-0.65 -0.25,-0.9 -1.13,-0.95 l 0,-0.18 z" id="path10997" /><path style="fill:#000000;stroke-width:0" d="m 234.97,478.85 -0.17,0.07 c -0.39,-0.66 -0.64,-0.79 -1.13,-0.79 l -2.77,0 1.95,2.08 c 1.05,1.11 1.52,1.99 1.52,2.93 0,1.17 -0.86,2.08 -2.19,2.08 -1.46,0 -2.22,-0.97 -2.47,-2.35 l 0.25,-0.06 c 0.47,1.15 0.89,1.53 1.74,1.53 1.01,0 1.65,-0.59 1.65,-1.66 0,-1.01 -0.43,-1.9 -1.54,-3.07 l -2.11,-2.23 0,-0.15 4.63,0 z" id="path10999" /><path style="fill:#000000;stroke-width:0" d="m 245.31,485.05 -2.8,0 0,-0.22 c 0.52,-0.06 0.73,-0.09 0.93,-0.31 0.18,-0.2 0.23,-0.56 0.23,-1.16 l 0,-4.01 -4.58,5.7 -2.01,0 0,-0.22 c 0.58,0 0.76,-0.15 1.15,-0.63 l 0,-5.19 c 0,-1.27 -0.18,-1.44 -1.15,-1.55 l 0,-0.23 2.77,0 0,0.23 c -0.91,0.13 -1.1,0.33 -1.1,1.55 l 0,4.58 5.22,-6.48 0.22,0 0,6.11 c 0,0.93 0.12,1.19 0.34,1.39 0.15,0.13 0.33,0.17 0.78,0.22 z" id="path11001" /></g>  <g style="font-style:normal;font-variant:normal;font-weight:normal;font-stretch:normal;letter-spacing:normal;word-spacing:normal;text-anchor:start;fill:none;fill-opacity:1;fill-rule:evenodd;stroke:#000000;stroke-linecap:butt;stroke-linejoin:miter;stroke-miterlimit:10.43299961;stroke-dasharray:none;stroke-dashoffset:0;stroke-opacity:1" ns0:preamble="/Users/Lizzie/Documents/Old mac/CMEP folder/underground-inkscape-preamble.tex" ns0:text="$15^{\\circ}$" word-spacing="normal" letter-spacing="normal" font-size-adjust="none" font-stretch="normal" font-weight="normal" font-variant="normal" font-style="normal" stroke-miterlimit="10.433" xml:space="preserve" transform="matrix(1.2,0,0,-1.2,-90.880362,808.39828)" id="g11212"><path id="path11214" d="m 228.1,477.23 0,0.18 c -0.89,0 -1.13,0.21 -1.13,0.72 l 0,7.05 -0.1,0.04 -2.12,-1.08 0,-0.16 0.32,0.11 c 0.21,0.09 0.41,0.15 0.53,0.15 0.25,0 0.36,-0.18 0.36,-0.58 l 0,-5.3 c 0,-0.65 -0.25,-0.9 -1.13,-0.95 l 0,-0.18 z" style="fill:#000000;stroke-width:0" /><path id="path11216" d="m 234.54,485.27 -0.1,0.09 c -0.19,-0.25 -0.3,-0.31 -0.57,-0.31 l -2.45,0 -1.29,-2.8 c 0,0 -0.02,-0.03 -0.02,-0.06 0,-0.07 0.04,-0.09 0.15,-0.09 1.13,0 1.96,-0.38 2.52,-0.83 0.53,-0.42 0.79,-1.01 0.79,-1.77 0,-1.01 -0.77,-1.99 -1.6,-1.99 -0.23,0 -0.51,0.1 -0.84,0.37 -0.38,0.31 -0.6,0.37 -0.87,0.37 -0.34,0 -0.54,-0.15 -0.54,-0.45 0,-0.45 0.62,-0.73 1.51,-0.73 0.8,0 1.45,0.18 2.01,0.58 0.81,0.59 1.16,1.32 1.16,2.45 0,0.63 -0.11,1.08 -0.41,1.5 -0.68,0.94 -1.27,1.2 -2.96,1.51 l 0.47,1.01 2.3,0 c 0.19,0 0.28,0.07 0.32,0.15 z" style="fill:#000000;stroke-width:0" /><path id="path11218" d="m 238.03,483.45 0,0.07 -0.01,0.06 -0.01,0.06 -0.01,0.05 -0.01,0.06 -0.02,0.06 -0.01,0.05 -0.03,0.06 -0.02,0.05 -0.03,0.05 -0.02,0.05 -0.03,0.05 -0.04,0.05 -0.03,0.04 -0.04,0.05 -0.04,0.04 -0.04,0.04 -0.04,0.04 -0.05,0.03 -0.04,0.03 -0.05,0.04 -0.05,0.02 -0.05,0.03 -0.05,0.03 -0.06,0.02 -0.05,0.02 -0.06,0.01 -0.05,0.02 -0.06,0.01 -0.06,0 -0.06,0.01 -0.06,0 0,-0.58 c 0.32,0 0.59,-0.27 0.59,-0.62 l 0,0 c 0,-0.34 -0.26,-0.61 -0.61,-0.61 -0.34,0 -0.61,0.26 -0.61,0.63 0,0.33 0.26,0.6 0.63,0.6 l 0,0.58 c -0.68,0 -1.22,-0.51 -1.22,-1.18 0,-0.68 0.53,-1.21 1.2,-1.21 0.67,0 1.2,0.53 1.2,1.19 z" style="fill:#000000;stroke-width:0" /></g>  <path style="fill:none;fill-rule:evenodd;stroke:#000000;stroke-width:1.60000014;stroke-linecap:butt;stroke-linejoin:miter;stroke-miterlimit:4;stroke-dasharray:none;stroke-opacity:1;marker-end:url(#marker9633)" d="m 226.14387,237.52246 -73.7518,-35.10409" id="path9625" />
  <g id="g8762" transform="matrix(3.7826064,0,0,3.7826064,-641.41257,-670.83964)">
    <g transform="matrix(0.25325898,0,0,0.25325898,99.518365,160.79905)" id="g8535" clip-path="url(#clip13)" style="stroke-width:1;stroke-linecap:square;stroke-linejoin:miter;stroke-miterlimit:10;stroke-dasharray:none;stroke-dashoffset:0">
      <g style="fill:#2b83ba;fill-opacity:1;fill-rule:nonzero;stroke:none" id="g8537">
        <path id="path8539" d="m 524.01,314.24 c 0,4.97 -4.03,9 -9,9 -4.97,0 -9,-4.03 -9,-9 0,-4.97 4.03,-9 9,-9 4.97,0 9,4.03 9,9 z" />
        <title id="title8541">Point O</title>
        <desc id="desc8543">Point O: Intersection point of f, g</desc>
      </g>
    </g>
    <g transform="matrix(0.25325898,0,0,0.25325898,99.518365,160.79905)" id="g8548" clip-path="url(#clip14)" style="stroke-width:1;stroke-linecap:square;stroke-linejoin:miter;stroke-miterlimit:10;stroke-dasharray:none;stroke-dashoffset:0">
      <g style="fill:none;stroke:#000000;stroke-linecap:round;stroke-linejoin:round;stroke-opacity:1" id="g8550">
        <path id="path8552" d="m 524.01,314.24 c 0,4.97 -4.03,9 -9,9 -4.97,0 -9,-4.03 -9,-9 0,-4.97 4.03,-9 9,-9 4.97,0 9,4.03 9,9 z" />
        <title id="title8554">Point O</title>
        <desc id="desc8556">Point O: Intersection point of f, g</desc>
      </g>
    </g>
  </g>
  <g id="g16912" transform="matrix(1.35,0,0,-1.35,-104.43862,901.7787)" xml:space="preserve" stroke="black" stroke-linecap="butt" stroke-linejoin="miter" stroke-miterlimit="10.433" stroke-dasharray="none" stroke-dashoffset="0" stroke-opacity="1" fill="none" fill-rule="evenodd" fill-opacity="1" font-style="normal" font-variant="normal" font-weight="normal" font-stretch="normal" font-size-adjust="none" letter-spacing="normal" word-spacing="normal" text-anchor="start" ns0:text="$\\quantity{4}{kg}$" ns0:preamble="/Users/Lizzie/Documents/Old mac/CMEP folder/underground-inkscape-preamble.tex" style="font-style:normal;font-variant:normal;font-weight:normal;font-stretch:normal;letter-spacing:normal;word-spacing:normal;text-anchor:start;fill:none;fill-opacity:1;fill-rule:evenodd;stroke:#000000;stroke-linecap:butt;stroke-linejoin:miter;stroke-miterlimit:10.43299961;stroke-dasharray:none;stroke-dashoffset:0;stroke-opacity:1"><polygon points="229.03,479.21 229.03,479.96 227.81,479.96 227.81,485.22 227.29,485.22 223.57,479.96 224.05,479.96 226.89,484.01 226.89,479.96 224.05,479.96 223.57,479.96 223.57,479.21 226.89,479.21 226.89,477.23 227.81,477.23 227.81,479.21 " stroke-width="0" fill="black" id="polygon16914" /><path d="M237,477.23 V477.41 C236.48,477.45,236.1,477.66,235.61,478.27 L233.8,480.56 L234.14,480.88 C235.6,482.23,235.94,482.37,236.7,482.37 V482.55 H234.28 V482.38 C234.75,482.37,234.88,482.32,234.88,482.17 C234.88,482.06,234.77,481.91,234.6,481.76 L232.98,480.32 V485.27 L232.93,485.3 C232.47,485.16,232.16,485.06,231.45,484.87 L231.1,484.78 V484.59 C231.25,484.6,231.36,484.61,231.48,484.61 C231.88,484.61,231.99,484.46,231.99,483.89 V478.2 C231.99,477.59,231.95,477.55,231.1,477.41 V477.23 H233.87 V477.41 L233.63,477.42 C233.16,477.45,232.98,477.61,232.98,478.03 V480.2 L234.76,477.86 C234.85,477.74,234.89,477.65,234.89,477.59 C234.89,477.48,234.78,477.41,234.64,477.41 H234.41 V477.23 Z " stroke-width="0" fill="black" id="path16916" /><path d="M242.42,481.82 V482.28 H241.51 C241.27,482.28,241.1,482.31,240.86,482.39 L240.6,482.49 C240.28,482.61,239.96,482.67,239.65,482.67 C238.55,482.67,237.67,481.82,237.67,480.74 C237.67,480,237.98,479.55,238.77,479.16 C238.61,478.99,238.44,478.84,238.26,478.69 C237.87,478.35,237.72,478.11,237.72,477.87 C237.72,477.61,237.85,477.48,238.35,477.25 L238.6,477.21 C239,477.13,239.93,477.06,240.52,477.06 C241.59,477.06,241.98,476.92,241.98,476.48 H241.98 C241.98,475.8,241.08,475.33,239.73,475.33 C238.69,475.33,238.02,475.68,238.02,476.2 C238.02,476.47,238.12,476.64,238.6,477.21 L238.35,477.25 C237.49,476.63,237.19,476.24,237.19,475.81 C237.19,475.18,238.1,474.66,239.24,474.66 C240.09,474.66,240.99,474.95,241.6,475.42 C242.09,475.8,242.32,476.18,242.32,476.66 C242.32,477.39,241.76,477.88,240.88,477.92 L239.35,477.99 C238.71,478.03,238.43,478.12,238.43,478.31 C238.43,478.55,238.82,478.96,239.14,479.05 L239.37,479.03 C239.58,479.01,239.75,478.99,239.82,478.99 L239.88,479.29 C239.14,479.29,238.66,480.06,238.66,481.19 V481.23 C238.66,481.92,238.99,482.33,239.53,482.33 C239.9,482.33,240.21,482.13,240.4,481.78 C240.62,481.37,240.75,480.84,240.75,480.35 C240.75,479.7,240.41,479.29,239.88,479.29 L239.82,478.99 C240.23,478.99,240.67,479.17,241.05,479.45 C241.48,479.77,241.66,480.21,241.66,480.82 C241.66,481.17,241.6,481.44,241.44,481.82 Z " stroke-width="0" fill="black" id="path16918" /></g></svg>