<?xml version='1.0' ?><svg xmlns:ns0="http://www.iki.fi/pav/software/textext/" xmlns:dc="http://purl.org/dc/elements/1.1/" xmlns:cc="http://creativecommons.org/ns#" xmlns:rdf="http://www.w3.org/1999/02/22-rdf-syntax-ns#" xmlns:svg="http://www.w3.org/2000/svg" xmlns="http://www.w3.org/2000/svg" version="1.1" id="svg2" width="87.037163" height="162.79844" viewBox="84.83995334666591 57.01119850493965 69.62973150523382 130.23875406728177" preserveAspectRatio="none">
  <metadata id="metadata368">
    <rdf:RDF>
      <cc:Work rdf:about="">
        <dc:format>image/svg+xml</dc:format>
        <dc:type rdf:resource="http://purl.org/dc/dcmitype/StillImage" />
        <dc:title />
      </cc:Work>
    </rdf:RDF>
  </metadata>
  <defs id="defs366" />
  <g style="stroke-width:1;stroke-linecap:square;stroke-linejoin:miter;stroke-miterlimit:10;stroke-dasharray:none;stroke-dashoffset:0" id="misc" transform="translate(0,266.88981)" />
  <g transform="matrix(0.54671989,0,0,0.54671989,1.0299912,210.65628)" id="misc-7" style="stroke-width:1;stroke-linecap:square;stroke-linejoin:miter;stroke-miterlimit:10;stroke-dasharray:none;stroke-dashoffset:0" />
  <g transform="matrix(0.31195933,0,0,0.31195933,-141.90969,88.7477)" id="misc-8" style="stroke-width:1;stroke-linecap:square;stroke-linejoin:miter;stroke-miterlimit:10;stroke-dasharray:none;stroke-dashoffset:0" />
  <rect y="158.89499" x="105.37093" height="10.922644" width="10.01834" id="rect18741" style="fill:none;fill-rule:nonzero;stroke:#2b83ba;stroke-width:1.29065728;stroke-linecap:round;stroke-miterlimit:4;stroke-dasharray:none;stroke-dashoffset:0;fill-opacity:1.0;stroke-opacity:1.0" />
  <path style="fill:#d7191c;fill-rule:nonzero;stroke:#d7191c;stroke-width:0.77884096;stroke-linecap:square;stroke-miterlimit:4;stroke-dasharray:none;stroke-dashoffset:0;fill-opacity:0.11764706;stroke-opacity:1.0" id="path6680" d="m 206.83569,64.642822 a 23.850712,23.498518 0 0 1 -1.17767,-26.769805 l 20.16493,12.548946 z" transform="matrix(0.81846021,0.57456321,-0.61361784,0.78960316,0,0)" />
  <path style="fill:none;fill-rule:evenodd;stroke:#2b83ba;stroke-width:1.20000011;stroke-linecap:butt;stroke-linejoin:miter;stroke-miterlimit:4;stroke-dasharray:none;stroke-opacity:1;marker-end:" d="m 153.59999,169.88976 -48,0" id="path7118" />
  <path style="fill:none;fill-rule:evenodd;stroke:#2b83ba;stroke-width:1.21472895;stroke-linecap:butt;stroke-linejoin:miter;stroke-miterlimit:4;stroke-dasharray:none;stroke-opacity:1" d="m 105.03959,170.13248 0,-112.851314" id="path6474" />
  <g style="font-style:normal;font-variant:normal;font-weight:normal;font-stretch:normal;letter-spacing:normal;word-spacing:normal;text-anchor:start;fill:#2b83ba;fill-opacity:1;fill-rule:evenodd;stroke:#2b83ba;stroke-linecap:butt;stroke-linejoin:miter;stroke-miterlimit:10.43299961;stroke-dasharray:none;stroke-dashoffset:0;stroke-opacity:1" ns0:preamble="/Users/Lizzie/Documents/Old mac/CMEP folder/underground-inkscape-preamble.tex" ns0:text="$12$" word-spacing="normal" letter-spacing="normal" font-size-adjust="none" font-stretch="normal" font-weight="normal" font-variant="normal" font-style="normal" stroke-miterlimit="10.433" xml:space="preserve" transform="matrix(1.35,0,0,-1.35,-179.26293,831.51046)" id="g7814"><path id="path7816" d="m 228.1,477.23 0,0.18 c -0.89,0 -1.13,0.21 -1.13,0.72 l 0,7.05 -0.1,0.04 -2.12,-1.08 0,-0.16 0.32,0.11 c 0.21,0.09 0.41,0.15 0.53,0.15 0.25,0 0.36,-0.18 0.36,-0.58 l 0,-5.3 c 0,-0.65 -0.25,-0.9 -1.13,-0.95 l 0,-0.18 z" style="fill:#2b83ba;fill-opacity:1;stroke:#2b83ba;stroke-width:0;stroke-opacity:1" /><path id="path7818" d="m 234.97,478.85 -0.17,0.07 c -0.39,-0.66 -0.64,-0.79 -1.13,-0.79 l -2.77,0 1.95,2.08 c 1.05,1.11 1.52,1.99 1.52,2.93 0,1.17 -0.86,2.08 -2.19,2.08 -1.46,0 -2.22,-0.97 -2.47,-2.35 l 0.25,-0.06 c 0.47,1.15 0.89,1.53 1.74,1.53 1.01,0 1.65,-0.59 1.65,-1.66 0,-1.01 -0.43,-1.9 -1.54,-3.07 l -2.11,-2.23 0,-0.15 4.63,0 z" style="fill:#2b83ba;fill-opacity:1;stroke:#2b83ba;stroke-width:0;stroke-opacity:1" /></g>  <g style="font-style:normal;font-variant:normal;font-weight:normal;font-stretch:normal;letter-spacing:normal;word-spacing:normal;text-anchor:start;fill:#d7191c;fill-opacity:1;fill-rule:evenodd;stroke:#2b83ba;stroke-linecap:butt;stroke-linejoin:miter;stroke-miterlimit:10.43299961;stroke-dasharray:none;stroke-dashoffset:0;stroke-opacity:1" id="g8224" transform="matrix(1.5,0,0,-1.5,-212.35297,869.91692)" xml:space="preserve" stroke-miterlimit="10.433" font-style="normal" font-variant="normal" font-weight="normal" font-stretch="normal" font-size-adjust="none" letter-spacing="normal" word-spacing="normal" ns0:text="$\\theta$" ns0:preamble="/Users/Lizzie/Documents/Old mac/CMEP folder/underground-inkscape-preamble.tex"><path style="fill:#d7191c;fill-opacity:1;stroke:#2b83ba;stroke-width:0;stroke-opacity:1" d="m 229.05,482.81 -0.01,0.14 0,0.14 -0.01,0.14 -0.01,0.13 -0.02,0.12 -0.02,0.12 -0.02,0.12 -0.03,0.11 -0.03,0.11 -0.03,0.1 -0.04,0.1 -0.04,0.09 -0.04,0.09 -0.04,0.08 -0.05,0.08 -0.05,0.07 -0.05,0.07 -0.05,0.07 -0.06,0.06 -0.06,0.05 -0.06,0.05 -0.07,0.05 -0.06,0.04 -0.07,0.04 -0.07,0.03 -0.07,0.03 -0.07,0.03 -0.08,0.02 -0.07,0.01 -0.08,0.01 -0.08,0.01 -0.08,0 -0.08,-0.34 c 0.48,0 0.6,-0.66 0.6,-1.52 0,-0.49 -0.12,-1.14 -0.29,-1.96 l -2.44,0 c 0.3,1.4 1.27,3.48 2.13,3.48 l 0.08,0.34 c -2.25,0 -3.62,-3.85 -3.62,-5.9 0,-1.42 0.49,-2.11 1.62,-2.11 l 0.06,0.34 c -0.51,0 -0.69,0.66 -0.69,1.47 0,0.57 0.11,1.36 0.3,1.95 l 2.45,0 c -0.04,-0.1 -0.11,-0.44 -0.19,-0.71 -0.37,-1.17 -1.08,-2.71 -1.87,-2.71 l -0.06,-0.34 c 1.82,0 3.52,3.38 3.52,5.7 z" id="path8226" /></g>  <g style="font-style:normal;font-variant:normal;font-weight:normal;font-stretch:normal;letter-spacing:normal;word-spacing:normal;text-anchor:start;fill:#2b83ba;fill-opacity:1;fill-rule:evenodd;stroke:#2b83ba;stroke-linecap:butt;stroke-linejoin:miter;stroke-miterlimit:10.43299961;stroke-dasharray:none;stroke-dashoffset:0;stroke-opacity:1;stroke-width:0" ns0:preamble="/Users/Lizzie/Documents/Old mac/CMEP folder/underground-inkscape-preamble.tex" ns0:text="$60$" word-spacing="normal" letter-spacing="normal" font-size-adjust="none" font-stretch="normal" font-weight="normal" font-variant="normal" font-style="normal" stroke-miterlimit="10.433" xml:space="preserve" transform="matrix(1.35,0,0,-1.35,-217.34406,768.98089)" id="content"><path id="path8605" d="m 228.71,485.31 -0.15,-0.02 -0.14,-0.01 -0.15,-0.02 -0.14,-0.02 -0.13,-0.02 -0.14,-0.03 -0.13,-0.02 -0.12,-0.02 -0.13,-0.03 -0.12,-0.03 -0.12,-0.03 -0.11,-0.03 -0.11,-0.03 -0.11,-0.04 -0.11,-0.04 -0.11,-0.04 -0.11,-0.04 -0.1,-0.05 -0.1,-0.05 -0.1,-0.05 -0.1,-0.06 -0.1,-0.05 -0.1,-0.07 -0.09,-0.06 -0.1,-0.07 -0.09,-0.07 -0.1,-0.08 -0.09,-0.08 -0.1,-0.08 -0.09,-0.09 -0.1,-0.1 -0.09,-0.09 c -0.84,-0.87 -1.29,-1.99 -1.29,-3.26 0,-0.83 0.22,-1.67 0.55,-2.27 0.42,-0.75 1.16,-1.19 2.1,-1.19 l 0.13,0.33 c -1.11,0 -1.68,1.18 -1.68,2.98 0,1.08 0.69,1.36 1.37,1.36 1.1,0 1.6,-0.77 1.6,-2.29 l 0,0 c 0,-1.2 -0.44,-2.05 -1.29,-2.05 l -0.13,-0.33 c 0.78,0 1.44,0.32 1.88,0.86 0.39,0.47 0.61,1.14 0.61,1.89 0,1.52 -0.86,2.47 -2.24,2.47 -0.53,0 -0.93,-0.09 -1.51,-0.53 0.32,1.78 1.65,3.05 3.51,3.36 z" style="fill:#2b83ba;stroke:#2b83ba;stroke-width:0;stroke-opacity:1;stroke-miterlimit:10.43299961;stroke-dasharray:none;fill-opacity:1" /><path id="path8607" d="m 234.99,481.13 0,0.23 -0.01,0.22 -0.01,0.21 -0.03,0.21 -0.02,0.21 -0.04,0.2 -0.03,0.19 -0.05,0.19 -0.05,0.18 -0.05,0.18 -0.06,0.17 -0.07,0.17 -0.07,0.16 -0.07,0.15 -0.08,0.14 -0.09,0.14 -0.09,0.13 -0.09,0.13 -0.1,0.11 -0.1,0.11 -0.11,0.1 -0.11,0.1 -0.11,0.08 -0.12,0.08 -0.12,0.07 -0.13,0.06 -0.13,0.05 -0.13,0.04 -0.13,0.03 -0.14,0.03 -0.14,0.01 -0.15,0.01 c -1.9,0 -2.72,-1.93 -2.72,-4.02 0,-1.93 0.65,-4.13 2.68,-4.13 l 0,0.31 c -1.02,0 -1.54,1.34 -1.54,3.74 0,2.4 0.53,3.79 1.51,3.79 1.05,0 1.57,-1.38 1.57,-3.84 l 0,0 c 0,-2.34 -0.54,-3.69 -1.54,-3.69 l 0,-0.31 c 1.93,0 2.67,2.03 2.67,4.06 z" style="fill:#2b83ba;stroke:#2b83ba;stroke-width:0;stroke-opacity:1;stroke-miterlimit:10.43299961;stroke-dasharray:none;fill-opacity:1" /></g>  <g id="g5082" transform="matrix(1.35,0,0,-1.35,-164.90132,758.19493)" xml:space="preserve" stroke="black" stroke-linecap="butt" stroke-linejoin="miter" stroke-miterlimit="10.433" stroke-dasharray="none" stroke-dashoffset="0" stroke-opacity="1" fill="none" fill-rule="evenodd" fill-opacity="1" font-style="normal" font-variant="normal" font-weight="normal" font-stretch="normal" font-size-adjust="none" letter-spacing="normal" word-spacing="normal" text-anchor="start" ns0:text="$F$" ns0:preamble="/Users/Lizzie/Documents/Old mac/CMEP folder/underground-inkscape-preamble.tex" style="font-style:normal;font-variant:normal;font-weight:normal;font-stretch:normal;letter-spacing:normal;word-spacing:normal;text-anchor:start;fill:#d7191c;fill-opacity:1;fill-rule:evenodd;stroke:#d7191c;stroke-linecap:butt;stroke-linejoin:miter;stroke-miterlimit:10.43299961;stroke-dasharray:none;stroke-dashoffset:0;stroke-opacity:1"><path style="fill:#d7191c;fill-opacity:1" d="M231.99,484.94 H225.84 L225.79,484.77 H226.01 C226.73,484.77,226.91,484.55,226.91,484.31 C226.91,484.22,226.89,484.12,226.87,484.02 L225.4,478.16 C225.29,477.75,225.04,477.42,224.14,477.42 H223.93 L223.88,477.23 H227.93 L227.98,477.42 H227.6 C226.89,477.42,226.66,477.61,226.66,477.91 C226.66,477.99,226.7,478.08,226.71,478.16 L227.45,481.15 H228.6 C228.94,481.15,229.43,481.12,229.43,480.56 C229.43,480.35,229.4,480.01,229.37,479.84 H229.56 L230.27,482.7 H230.08 C229.83,481.7,229.28,481.58,228.55,481.58 H227.57 L228.3,484.51 H230.04 C230.6,484.51,231.31,484.4,231.34,483.48 C231.34,483.32,231.34,483.15,231.33,483.05 H231.52 Z " stroke-width="0" fill="black" id="path5084" /></g>  <path style="fill:none;fill-rule:evenodd;stroke:#d7191c;stroke-width:1.88832283;stroke-linecap:round;stroke-linejoin:miter;stroke-miterlimit:4;stroke-dasharray:none;stroke-opacity:1" d="M 153.12062,168.5323 105.33309,57.967716" id="path17505" />
</svg>