<?xml version='1.0' ?><svg xmlns:ns0="http://www.iki.fi/pav/software/textext/" xmlns:dc="http://purl.org/dc/elements/1.1/" xmlns:cc="http://creativecommons.org/ns#" xmlns:rdf="http://www.w3.org/1999/02/22-rdf-syntax-ns#" xmlns:svg="http://www.w3.org/2000/svg" xmlns="http://www.w3.org/2000/svg" xmlns:xlink="http://www.w3.org/1999/xlink" version="1.1" id="svg2" width="253.24544" height="163.40886" viewBox="111.69776177298031 105.20728166995681 202.59635521581512 130.72709007503315" preserveAspectRatio="none">
  <metadata id="metadata368">
    <rdf:RDF>
      <cc:Work rdf:about="">
        <dc:format>image/svg+xml</dc:format>
        <dc:type rdf:resource="http://purl.org/dc/dcmitype/StillImage" />
        <dc:title />
      </cc:Work>
    </rdf:RDF>
  </metadata>
  <defs id="defs366">
    <marker orient="auto" refY="0.0" refX="0.0" id="marker6997" style="overflow:visible;">
      <path id="path6999" style="fill-rule:evenodd;stroke-width:0.625;stroke-linejoin:round;stroke:#2b83ba;stroke-opacity:1;fill:#2b83ba;fill-opacity:1" d="M 8.7185878,4.0337352 L -2.2072895,0.016013256 L 8.7185884,-4.0017078 C 6.9730900,-1.6296469 6.9831476,1.6157441 8.7185878,4.0337352 z " transform="scale(0.6) rotate(180) translate(0,0)" />
    </marker>
    <marker style="overflow:visible;" id="marker15723" refX="0.0" refY="0.0" orient="auto">
      <path transform="scale(0.6) rotate(180) translate(0,0)" d="M 8.7185878,4.0337352 L -2.2072895,0.016013256 L 8.7185884,-4.0017078 C 6.9730900,-1.6296469 6.9831476,1.6157441 8.7185878,4.0337352 z " style="fill-rule:evenodd;stroke-width:0.625;stroke-linejoin:round;stroke:#000000;stroke-opacity:1;fill:#000000;fill-opacity:1" id="path15725" />
    </marker>
    <marker orient="auto" refY="0.0" refX="0.0" id="Arrow2Mend" style="overflow:visible;">
      <path id="path4771" style="fill-rule:evenodd;stroke-width:0.625;stroke-linejoin:round;stroke:#000000;stroke-opacity:1;fill:#000000;fill-opacity:1" d="M 8.7185878,4.0337352 L -2.2072895,0.016013256 L 8.7185884,-4.0017078 C 6.9730900,-1.6296469 6.9831476,1.6157441 8.7185878,4.0337352 z " transform="scale(0.6) rotate(180) translate(0,0)" />
    </marker>
    <clipPath id="clip1-4">
      <path d="m 0,0 0,575 1060,0 0,-575 z" id="path6455" />
    </clipPath>
    <clipPath id="clip2-4">
      <path d="m 0,0 0,575 1060,0 0,-575 z" id="path6468" />
    </clipPath>
    <marker orient="auto" refY="0.0" refX="0.0" id="marker16854-5" style="overflow:visible;">
      <path id="path16856-6" style="fill-rule:evenodd;stroke-width:0.625;stroke-linejoin:round;stroke:#d7191c;stroke-opacity:1;fill:#d7191c;fill-opacity:1" d="M 8.7185878,4.0337352 L -2.2072895,0.016013256 L 8.7185884,-4.0017078 C 6.9730900,-1.6296469 6.9831476,1.6157441 8.7185878,4.0337352 z " transform="scale(0.6) rotate(180) translate(0,0)" />
    </marker>
  </defs>
  <g style="stroke-width:1;stroke-linecap:square;stroke-linejoin:miter;stroke-miterlimit:10;stroke-dasharray:none;stroke-dashoffset:0" id="misc" transform="translate(0,266.88981)" />
  <path style="fill:none;fill-rule:evenodd;stroke:#000000;stroke-width:0.72720009;stroke-linecap:butt;stroke-linejoin:miter;stroke-miterlimit:4;stroke-dasharray:2.90880028, 2.90880028;stroke-dashoffset:0;stroke-opacity:1" d="m 153.59999,235.93439 0,-130.04464" id="path4736" />
  <g transform="matrix(0.54671989,0,0,0.54671989,1.0299912,210.65628)" id="misc-7" style="stroke-width:1;stroke-linecap:square;stroke-linejoin:miter;stroke-miterlimit:10;stroke-dasharray:none;stroke-dashoffset:0" />
  <path style="fill:none;fill-rule:evenodd;stroke:#000000;stroke-width:0.72720007;stroke-linecap:butt;stroke-linejoin:miter;stroke-miterlimit:4;stroke-dasharray:2.90880028,2.90880028;stroke-dashoffset:0;stroke-opacity:1" d="m 111.69775,169.88976 202.59637,0" id="path4734" />
  <g transform="matrix(0.31195933,0,0,0.31195933,-141.90969,88.7477)" id="misc-8" style="stroke-width:1;stroke-linecap:square;stroke-linejoin:miter;stroke-miterlimit:10;stroke-dasharray:none;stroke-dashoffset:0" />
  <g id="g6980" transform="matrix(0.8,0,0,0.8,34.824722,-6.9679689)">
    <path id="path6844" d="m 200.1583,203.70473 0.075,-0.12 0.06,-0.12 0.075,-0.105 0.075,-0.105 0.06,-0.105 0.075,-0.105 0.075,-0.09 0.075,-0.09 0.075,-0.09 0.075,-0.075 0.075,-0.09 0.075,-0.075 0.075,-0.06 0.075,-0.075 0.09,-0.06 0.075,-0.06 0.09,-0.06 0.075,-0.045 0.09,-0.045 0.075,-0.045 0.09,-0.045 0.09,-0.03 0.09,-0.045 0.09,-0.03 0.09,-0.015 0.09,-0.03 0.105,-0.015 0.09,-0.015 0.09,-0.015 0.105,0 0.105,-0.015 0.105,0 c 1.17,0 1.92,0.6 1.92,1.815 0,1.08 -0.57,1.875 -1.44,2.37 -0.36,0.21 -0.825,0.405 -1.5,0.63 l 0,0.255 c 1.02,0 1.425,0.045 1.815,0.18 1.23,0.345 1.845,1.215 1.845,2.565 0,1.5 -0.99,2.7 -2.31,2.7 -0.495,0 -0.87,-0.075 -1.53,-0.54 -0.495,-0.36 -0.78,-0.465 -1.08,-0.465 -0.405,0 -0.72,0.27 -0.72,0.645 0,0.63 0.69,1.005 1.98,1.005 1.575,0 3.27,-0.51 4.125,-1.65 0.51,-0.675 0.81,-1.545 0.81,-2.475 0,-0.915 -0.285,-1.74 -0.78,-2.28 -0.375,-0.39 -0.69,-0.615 -1.47,-0.945 1.185,-0.705 1.65,-1.59 1.65,-2.445 0,-1.455 -1.11,-2.43 -2.775,-2.43 -1.845,0 -2.97,1.185 -3.48,2.88 z" style="font-style:normal;font-variant:normal;font-weight:normal;font-stretch:normal;letter-spacing:normal;word-spacing:normal;text-anchor:start;fill:#000000;fill-opacity:1;fill-rule:evenodd;stroke:#000000;stroke-width:0;stroke-linecap:butt;stroke-linejoin:miter;stroke-miterlimit:10.43299961;stroke-dasharray:none;stroke-dashoffset:0;stroke-opacity:1" />
    <path id="path6846" d="m 216.4183,206.89973 0,-0.345 -0.015,-0.33 -0.03,-0.315 -0.03,-0.315 -0.045,-0.315 -0.045,-0.3 -0.06,-0.285 -0.06,-0.285 -0.075,-0.27 -0.09,-0.27 -0.09,-0.255 -0.09,-0.255 -0.105,-0.24 -0.12,-0.225 -0.12,-0.21 -0.12,-0.21 -0.135,-0.195 -0.135,-0.195 -0.15,-0.165 -0.15,-0.165 -0.165,-0.15 -0.165,-0.15 -0.18,-0.12 -0.165,-0.12 -0.18,-0.105 -0.195,-0.09 -0.195,-0.075 -0.195,-0.06 -0.21,-0.045 -0.195,-0.045 -0.21,-0.015 -0.225,-0.015 c -2.865,0 -4.08,2.895 -4.08,6.03 0,2.895 0.975,6.195 4.005,6.195 l 0,-0.465 c -1.53,0 -2.31,-2.01 -2.31,-5.61 0,-3.6 0.81,-5.685 2.28,-5.685 1.56,0 2.34,2.07 2.34,5.76 l 0,0 c 0,3.51 -0.795,5.535 -2.31,5.535 l 0,0.465 c 2.895,0 4.02,-3.045 4.02,-6.09 z" style="font-style:normal;font-variant:normal;font-weight:normal;font-stretch:normal;letter-spacing:normal;word-spacing:normal;text-anchor:start;fill:#000000;fill-opacity:1;fill-rule:evenodd;stroke:#000000;stroke-width:0;stroke-linecap:butt;stroke-linejoin:miter;stroke-miterlimit:10.43299961;stroke-dasharray:none;stroke-dashoffset:0;stroke-opacity:1" />
    <path id="path6848" d="m 220.9633,203.41973 -0.87,0 c 0,0.51 -0.405,0.915 -0.915,0.915 -0.525,0 -0.915,-0.39 -0.915,-0.945 0,-0.495 0.375,-0.9 0.945,-0.9 0.48,0 0.885,0.405 0.885,0.93 l 0,0 0.87,0 c 0,-0.99 -0.795,-1.8 -1.755,-1.8 -1.035,0 -1.83,0.765 -1.83,1.77 0,1.02 0.795,1.815 1.8,1.815 0.99,0 1.785,-0.795 1.785,-1.785 z" style="font-style:normal;font-variant:normal;font-weight:normal;font-stretch:normal;letter-spacing:normal;word-spacing:normal;text-anchor:start;fill:#000000;fill-opacity:1;fill-rule:evenodd;stroke:#000000;stroke-width:0;stroke-linecap:butt;stroke-linejoin:miter;stroke-miterlimit:10.43299961;stroke-dasharray:none;stroke-dashoffset:0;stroke-opacity:1" />
  </g>
  <g id="use17517" transform="matrix(1.9865087,0,0,1.9865087,-100.85661,-218.92466)">
    <g transform="matrix(0.34119916,0,0,0.34119916,-47.62689,88.43038)" clip-path="url(#clip1-4)" id="g4680" style="stroke-width:1;stroke-linecap:square;stroke-linejoin:miter;stroke-miterlimit:10;stroke-dasharray:none;stroke-dashoffset:0">
      <g style="fill:#d7191c;fill-opacity:0.09803898;fill-rule:nonzero;stroke:none" id="g4682">
        <path d="m 575.01,314.24 c 0,-9.45 -2.23,-18.76 -6.51,-27.19 l -53.49,27.19 z" id="path4684" />
        <title id="title4686">Angle Ã&#131;Â&#142;Ã&#130;Â±</title>
        <desc id="desc4688">Angle Ã&#131;Â&#142;Ã&#130;Â±: Angle between f, l</desc>
      </g>
    </g>
    <g transform="matrix(0.34119916,0,0,0.34119916,-47.62689,88.43038)" clip-path="url(#clip2-4)" id="g4690" style="stroke-width:1;stroke-linecap:square;stroke-linejoin:miter;stroke-miterlimit:10;stroke-dasharray:none;stroke-dashoffset:0">
      <g style="fill:none;stroke:#d7191c;stroke-width:2;stroke-linecap:round;stroke-linejoin:round;stroke-opacity:1" id="g4692">
        <path d="m 575.01,314.24 c 0,-9.45 -2.23,-18.76 -6.51,-27.19 l -53.49,27.19 z" id="path4694" />
        <title id="title4696">Angle Ã&#131;Â&#142;Ã&#130;Â±</title>
        <desc id="desc4698">Angle Ã&#131;Â&#142;Ã&#130;Â±: Angle between f, l</desc>
      </g>
    </g>
  </g>
  <path style="fill:none;fill-rule:evenodd;stroke:#000000;stroke-width:1.19211018;stroke-linecap:round;stroke-linejoin:miter;stroke-miterlimit:4;stroke-dasharray:none;stroke-opacity:1;marker-end:url(#Arrow2Mend)" d="m 259.95925,117.51836 0,52.60072 -107.11878,0 106.93143,-0.19528" id="path17519" />
  <rect transform="scale(-1,1)" y="159.03699" x="-259.64236" height="10.922644" width="10.01834" id="rect18741" style="fill:none;fill-rule:nonzero;stroke:#000000;stroke-width:1.29065728;stroke-linecap:round;stroke-miterlimit:4;stroke-dasharray:none;stroke-dashoffset:0;fill-opacity:1.0;stroke-opacity:1.0" />
  <path style="fill:none;fill-rule:evenodd;stroke:#000000;stroke-width:1.19200011;stroke-linecap:butt;stroke-linejoin:miter;stroke-miterlimit:4;stroke-dasharray:none;stroke-opacity:1;marker-end:url(#marker15723)" d="m 259.78194,169.79292 0,-53.86455" id="path6474" />
  <g style="font-style:normal;font-variant:normal;font-weight:normal;font-stretch:normal;letter-spacing:normal;word-spacing:normal;text-anchor:start;fill:#2b83ba;fill-opacity:1;fill-rule:evenodd;stroke:#000000;stroke-linecap:butt;stroke-linejoin:miter;stroke-miterlimit:10.43299961;stroke-dasharray:none;stroke-dashoffset:0;stroke-opacity:1" ns0:preamble="/Users/Lizzie/Documents/Old mac/CMEP folder/underground-inkscape-preamble.tex" ns0:text="$6$" word-spacing="normal" letter-spacing="normal" font-size-adjust="none" font-stretch="normal" font-weight="normal" font-variant="normal" font-style="normal" stroke-miterlimit="10.433" xml:space="preserve" transform="matrix(1.35,0,0,-1.35,-102.94394,779.35111)" id="g5440"><path id="path5442" d="m 228.71,485.31 -0.15,-0.02 -0.14,-0.01 -0.15,-0.02 -0.14,-0.02 -0.13,-0.02 -0.14,-0.03 -0.13,-0.02 -0.12,-0.02 -0.13,-0.03 -0.12,-0.03 -0.12,-0.03 -0.11,-0.03 -0.11,-0.03 -0.11,-0.04 -0.11,-0.04 -0.11,-0.04 -0.11,-0.04 -0.1,-0.05 -0.1,-0.05 -0.1,-0.05 -0.1,-0.06 -0.1,-0.05 -0.1,-0.07 -0.09,-0.06 -0.1,-0.07 -0.09,-0.07 -0.1,-0.08 -0.09,-0.08 -0.1,-0.08 -0.09,-0.09 -0.1,-0.1 -0.09,-0.09 c -0.84,-0.87 -1.29,-1.99 -1.29,-3.26 0,-0.83 0.22,-1.67 0.55,-2.27 0.42,-0.75 1.16,-1.19 2.1,-1.19 l 0.13,0.33 c -1.11,0 -1.68,1.18 -1.68,2.98 0,1.08 0.69,1.36 1.37,1.36 1.1,0 1.6,-0.77 1.6,-2.29 l 0,0 c 0,-1.2 -0.44,-2.05 -1.29,-2.05 l -0.13,-0.33 c 0.78,0 1.44,0.32 1.88,0.86 0.39,0.47 0.61,1.14 0.61,1.89 0,1.52 -0.86,2.47 -2.24,2.47 -0.53,0 -0.93,-0.09 -1.51,-0.53 0.32,1.78 1.65,3.05 3.51,3.36 z" style="fill:#000000;stroke-width:0" /></g>  <path style="fill:none;fill-rule:evenodd;stroke:#2b83ba;stroke-width:1.76000023;stroke-linecap:round;stroke-linejoin:miter;stroke-miterlimit:4;stroke-dasharray:none;stroke-opacity:1;marker-end:url(#marker6997)" d="M 154.56082,169.19436 257.537,115.62233" id="path17505" />
  <g transform="matrix(0.31195933,0,0,0.31195933,85.435139,220.26426)" id="misc-80" style="stroke-width:1;stroke-linecap:square;stroke-linejoin:miter;stroke-miterlimit:10;stroke-dasharray:none;stroke-dashoffset:0" />
  <g id="g16864" transform="translate(65.778419,-331.15561)">
    <path id="path4476" d="m 224.8357,520.28941 20,0" style="fill:none;fill-rule:evenodd;stroke:#d7191c;stroke-width:1.12000012;stroke-linecap:butt;stroke-linejoin:miter;stroke-miterlimit:2.79999995;stroke-dasharray:none;stroke-opacity:1;marker-end:url(#marker16854-5)" />
    <g id="g11199" transform="translate(196.45025,106.6876)">
      <path id="path11048" d="m 38.6145,399.7845 0,-0.0675 -0.0135,-0.0675 0,-0.054 -0.0135,-0.0675 -0.0135,-0.054 -0.0135,-0.0675 -0.027,-0.054 -0.0135,-0.054 -0.027,-0.054 -0.027,-0.054 -0.027,-0.054 -0.027,-0.054 -0.0405,-0.0405 -0.0405,-0.054 -0.027,-0.0405 -0.0405,-0.0405 -0.054,-0.0405 -0.0405,-0.0405 -0.0405,-0.0405 -0.054,-0.0405 -0.0405,-0.027 -0.054,-0.027 -0.054,-0.027 -0.054,-0.027 -0.054,-0.027 -0.054,-0.0135 -0.0675,-0.0135 -0.054,-0.027 -0.054,0 -0.0675,-0.0135 -0.0675,0 -0.054,0 c -0.729,0 -1.269,0.54 -1.269,1.242 0,0.702 0.5265,1.2285 1.2285,1.2285 0.7155,0 1.2555,-0.5265 1.2555,-1.2285 z" style="font-style:normal;font-variant:normal;font-weight:normal;font-stretch:normal;letter-spacing:normal;word-spacing:normal;text-anchor:start;fill:#d7191c;fill-opacity:1;fill-rule:evenodd;stroke:#000000;stroke-width:0;stroke-linecap:butt;stroke-linejoin:miter;stroke-miterlimit:10.43299961;stroke-dasharray:none;stroke-dashoffset:0;stroke-opacity:1" />
      <path id="path11050" d="m 39.2625,409.545 0,-0.378 c -0.5535,-0.081 -0.756,-0.2835 -0.756,-0.972 l 0,-5.994 -3.0915,0 0,0.3915 c 0.702,0.135 0.864,0.297 0.864,1.0125 l 0,4.5495 c 0,0.729 -0.108,0.837 -0.8505,1.0125 l 0,0.378 z" style="font-style:normal;font-variant:normal;font-weight:normal;font-stretch:normal;letter-spacing:normal;word-spacing:normal;text-anchor:start;fill:#d7191c;fill-opacity:1;fill-rule:evenodd;stroke:#d7191c;stroke-width:0;stroke-linecap:butt;stroke-linejoin:miter;stroke-miterlimit:10.43299961;stroke-dasharray:none;stroke-dashoffset:0;stroke-opacity:1" />
    </g>
  </g>
  <g transform="translate(1.1009578,-356.2408)" id="g16870">
    <use height="100%" width="100%" transform="matrix(0,-1,1,0,-375.82082,707.97705)" id="use5405" xlink:href="#path4476" y="0" x="0" />
    <g id="g11203" style="fill:#d7191c;fill-opacity:1" transform="translate(90.669344,65.88639)">
      <path id="path11052" d="m 47.3085,399.7845 0,-0.0675 0,-0.0675 -0.0135,-0.054 0,-0.054 -0.027,-0.0675 -0.0135,-0.054 -0.0135,-0.054 -0.027,-0.0675 -0.027,-0.054 -0.027,-0.054 -0.027,-0.0405 -0.027,-0.054 -0.0405,-0.054 -0.0405,-0.0405 -0.0405,-0.054 -0.0405,-0.0405 -0.0405,-0.0405 -0.0405,-0.0405 -0.054,-0.0405 -0.0405,-0.027 -0.054,-0.0405 -0.054,-0.027 -0.054,-0.027 -0.054,-0.027 -0.054,-0.027 -0.054,-0.0135 -0.054,-0.0135 -0.0675,-0.0135 -0.054,-0.0135 -0.0675,-0.0135 -0.054,0 -0.0675,0 c -0.702,0 -1.242,0.54 -1.242,1.242 0,0.702 0.513,1.2285 1.215,1.2285 0.7155,0 1.2555,-0.5265 1.2555,-1.2285 z" style="font-style:normal;font-variant:normal;font-weight:normal;font-stretch:normal;letter-spacing:normal;word-spacing:normal;text-anchor:start;fill:#d7191c;fill-opacity:1;fill-rule:evenodd;stroke:#000000;stroke-width:0;stroke-linecap:butt;stroke-linejoin:miter;stroke-miterlimit:10.43299961;stroke-dasharray:none;stroke-dashoffset:0;stroke-opacity:1" />
      <path id="path11054" d="m 47.268,402.201 -3.2265,0 0,0.3915 c 0.81,0.054 0.999,0.243 0.999,0.9315 l 0,7.56 c 0,0.837 -0.216,1.215 -0.7695,1.215 -0.297,0 -0.513,-0.1215 -0.513,-0.2835 0,-0.0675 0.054,-0.189 0.1485,-0.351 0.162,-0.2295 0.2295,-0.4185 0.2295,-0.5805 0,-0.486 -0.4185,-0.864 -0.945,-0.864 -0.594,0 -0.999,0.3915 -0.999,0.972 0,0.945 0.9315,1.593 2.241,1.593 1.107,0 1.9575,-0.432 2.403,-1.215 0.297,-0.4995 0.432,-1.107 0.432,-2.052 z" style="font-style:normal;font-variant:normal;font-weight:normal;font-stretch:normal;letter-spacing:normal;word-spacing:normal;text-anchor:start;fill:#d7191c;fill-opacity:1;fill-rule:evenodd;stroke:#000000;stroke-width:0;stroke-linecap:butt;stroke-linejoin:miter;stroke-miterlimit:10.43299961;stroke-dasharray:none;stroke-dashoffset:0;stroke-opacity:1" />
    </g>
  </g>
  <g style="font-style:normal;font-variant:normal;font-weight:normal;font-stretch:normal;letter-spacing:normal;word-spacing:normal;text-anchor:start;fill:none;fill-opacity:1;fill-rule:evenodd;stroke:#000000;stroke-linecap:butt;stroke-linejoin:miter;stroke-miterlimit:10.43299961;stroke-dasharray:none;stroke-dashoffset:0;stroke-opacity:1" ns0:preamble="/Users/Lizzie/Documents/Old mac/CMEP folder/underground-inkscape-preamble.tex" ns0:text="$6\\times \\dfrac{1}{2}$" word-spacing="normal" letter-spacing="normal" font-size-adjust="none" font-stretch="normal" font-weight="normal" font-variant="normal" font-style="normal" stroke-miterlimit="10.433" xml:space="preserve" transform="matrix(1.35,0,0,-1.35,-36.912066,784.48694)" id="g6266"><path style="fill:#000000;stroke-width:0" id="path6268" d="m 228.71,481.49 -0.15,-0.02 -0.14,-0.02 -0.15,-0.02 -0.14,-0.02 -0.13,-0.02 -0.14,-0.02 -0.13,-0.02 -0.12,-0.03 -0.13,-0.02 -0.12,-0.03 -0.12,-0.03 -0.11,-0.03 -0.11,-0.04 -0.11,-0.03 -0.11,-0.04 -0.11,-0.04 -0.11,-0.05 -0.1,-0.04 -0.1,-0.05 -0.1,-0.05 -0.1,-0.06 -0.1,-0.06 -0.1,-0.06 -0.09,-0.07 -0.1,-0.06 -0.09,-0.08 -0.1,-0.07 -0.09,-0.08 -0.1,-0.09 -0.09,-0.09 -0.1,-0.09 -0.09,-0.1 c -0.84,-0.86 -1.29,-1.98 -1.29,-3.26 0,-0.82 0.22,-1.66 0.55,-2.26 0.42,-0.76 1.16,-1.19 2.1,-1.19 l 0.13,0.33 c -1.11,0 -1.68,1.18 -1.68,2.97 0,1.09 0.69,1.37 1.37,1.37 1.1,0 1.6,-0.78 1.6,-2.29 l 0,0 c 0,-1.2 -0.44,-2.05 -1.29,-2.05 l -0.13,-0.33 c 0.78,0 1.44,0.32 1.88,0.86 0.39,0.47 0.61,1.13 0.61,1.89 0,1.52 -0.86,2.46 -2.24,2.46 -0.53,0 -0.93,-0.08 -1.51,-0.53 0.32,1.78 1.65,3.06 3.51,3.37 z" /><polygon style="fill:#000000;stroke-width:0" id="polygon6270" points="238.63,479.12 238.09,479.66 235.35,476.94 232.63,479.66 232.07,479.11 234.79,476.39 232.07,473.66 232.61,473.12 235.35,475.83 238.09,473.12 238.63,473.67 235.91,476.39 " /><path style="fill:#000000;stroke-width:0" id="path6272" d="m 247.23,479.19 0,0.18 c -0.89,0 -1.13,0.21 -1.13,0.72 l 0,7.04 -0.1,0.04 -2.12,-1.07 0,-0.17 0.32,0.12 c 0.21,0.08 0.41,0.14 0.53,0.14 0.25,0 0.36,-0.18 0.36,-0.58 l 0,-5.3 c 0,-0.65 -0.25,-0.9 -1.13,-0.94 l 0,-0.18 z" /><line style="stroke-width:0.65799999" id="line6274" y2="475.89999" x2="248.49001" y1="475.89999" x1="242.56" /><path style="fill:#000000;stroke-width:0" id="path6276" d="m 248.18,467.21 -0.17,0.07 c -0.39,-0.66 -0.64,-0.79 -1.14,-0.79 l -2.77,0 1.96,2.08 c 1.05,1.11 1.51,1.99 1.51,2.92 0,1.17 -0.85,2.08 -2.19,2.08 -1.46,0 -2.21,-0.97 -2.46,-2.35 l 0.25,-0.06 c 0.47,1.16 0.88,1.54 1.74,1.54 1,0 1.64,-0.59 1.64,-1.67 0,-1 -0.42,-1.9 -1.54,-3.07 l -2.11,-2.23 0,-0.14 4.64,0 z" /></g>  <g id="content" transform="matrix(1.35,0,0,-1.35,-123.65241,833.65834)" xml:space="preserve" stroke="black" stroke-linecap="butt" stroke-linejoin="miter" stroke-miterlimit="10.433" stroke-dasharray="none" stroke-dashoffset="0" stroke-opacity="1" fill="none" fill-rule="evenodd" fill-opacity="1" font-style="normal" font-variant="normal" font-weight="normal" font-stretch="normal" font-size-adjust="none" letter-spacing="normal" word-spacing="normal" text-anchor="start" ns0:text="$6\\times \\dfrac{\\sqrt{3}}{2}$" ns0:preamble="/Users/Lizzie/Documents/Old mac/CMEP folder/underground-inkscape-preamble.tex" style="font-style:normal;font-variant:normal;font-weight:normal;font-stretch:normal;letter-spacing:normal;word-spacing:normal;text-anchor:start;fill:none;fill-opacity:1;fill-rule:evenodd;stroke:#000000;stroke-linecap:butt;stroke-linejoin:miter;stroke-miterlimit:10.43299961;stroke-dasharray:none;stroke-dashoffset:0;stroke-opacity:1"><path d="M228.71,475.23 L228.56,475.21 L228.42,475.19 L228.27,475.17 L228.13,475.15 L228,475.13 L227.86,475.11 L227.73,475.09 L227.61,475.06 L227.48,475.04 L227.36,475.01 L227.24,474.98 L227.13,474.95 L227.02,474.91 L226.91,474.88 L226.8,474.84 L226.69,474.8 L226.58,474.75 L226.48,474.71 L226.38,474.66 L226.28,474.61 L226.18,474.55 L226.08,474.49 L225.98,474.43 L225.89,474.37 L225.79,474.3 L225.7,474.22 L225.6,474.15 L225.51,474.07 L225.41,473.98 L225.32,473.89 L225.22,473.8 L225.13,473.7 C224.29,472.84,223.84,471.72,223.84,470.45 C223.84,469.62,224.06,468.78,224.39,468.18 C224.81,467.42,225.55,466.99,226.49,466.99 L226.62,467.32 C225.51,467.32,224.94,468.5,224.94,470.29 C224.94,471.38,225.63,471.66,226.31,471.66 C227.41,471.66,227.91,470.88,227.91,469.37 H227.91 C227.91,468.17,227.47,467.32,226.62,467.32 L226.49,466.99 C227.27,466.99,227.93,467.31,228.37,467.85 C228.76,468.32,228.98,468.98,228.98,469.74 C228.98,471.26,228.12,472.2,226.74,472.2 C226.21,472.2,225.81,472.12,225.23,471.67 C225.55,473.46,226.88,474.73,228.74,475.04 Z " stroke-width="0" fill="black" id="path6795" /><polygon points="238.63,467.41 235.91,470.13 238.63,472.87 238.09,473.4 235.35,470.68 232.63,473.4 232.07,472.85 234.79,470.13 232.07,467.4 232.61,466.86 235.35,469.57 238.09,466.86 " stroke-width="0" fill="black" id="polygon6797" /><path d="M253.97,486.5 H253.33 L248.43,473.91 H248.38 L245.96,480.24 H245.74 L243.89,478.78 L244.03,478.54 C244.29,478.78,244.6,478.91,244.8,478.91 C245.1,478.91,245.33,478.74,245.54,478.21 L247.93,471.95 H248.31 Z " stroke-width="0" fill="black" id="path6799" /><line x1="253.56" y1="486.21" x2="259.48" y2="486.21" stroke-width="0.658" id="line6801" /><path d="M254.28,480.6 L254.32,480.68 L254.37,480.76 L254.42,480.84 L254.46,480.91 L254.51,480.98 L254.56,481.04 L254.61,481.11 L254.66,481.17 L254.71,481.23 L254.76,481.28 L254.81,481.33 L254.86,481.38 L254.91,481.43 L254.96,481.48 L255.01,481.52 L255.07,481.56 L255.12,481.59 L255.18,481.63 L255.23,481.66 L255.29,481.69 L255.35,481.72 L255.41,481.74 L255.47,481.76 L255.53,481.78 L255.59,481.8 L255.65,481.82 L255.71,481.83 L255.78,481.84 L255.84,481.85 L255.91,481.85 L255.98,481.85 L256.04,481.86 C256.83,481.86,257.32,481.45,257.32,480.65 C257.32,479.93,256.94,479.4,256.36,479.07 C256.13,478.93,255.82,478.8,255.37,478.64 V478.48 C256.04,478.48,256.32,478.44,256.58,478.36 C257.39,478.12,257.81,477.55,257.81,476.65 C257.81,475.65,257.15,474.84,256.27,474.84 C255.94,474.84,255.69,474.9,255.25,475.21 C254.92,475.45,254.73,475.52,254.53,475.52 C254.26,475.52,254.04,475.34,254.04,475.09 C254.04,474.67,254.51,474.42,255.37,474.42 C256.42,474.42,257.55,474.76,258.12,475.52 C258.46,475.96,258.66,476.54,258.66,477.17 C258.66,477.78,258.47,478.33,258.14,478.69 C257.89,478.95,257.68,479.09,257.16,479.32 C257.95,479.79,258.26,480.38,258.26,480.95 C258.26,481.91,257.51,482.56,256.41,482.56 C255.18,482.56,254.43,481.77,254.09,480.65 Z " stroke-width="0" fill="black" id="path6803" /><line x1="242.56" y1="469.64" x2="259.48" y2="469.64" stroke-width="0.658" id="line6805" /><path d="M253.67,460.95 L253.51,461.02 C253.12,460.36,252.87,460.23,252.37,460.23 H249.6 L251.55,462.31 C252.61,463.42,253.07,464.3,253.07,465.23 C253.07,466.4,252.22,467.31,250.88,467.31 C249.42,467.31,248.66,466.35,248.41,464.96 L248.66,464.9 C249.14,466.06,249.55,466.44,250.4,466.44 C251.41,466.44,252.05,465.85,252.05,464.77 C252.05,463.77,251.62,462.87,250.51,461.7 L248.4,459.47 V459.33 H253.04 Z " stroke-width="0" fill="black" id="path6807" /></g></svg>