<?xml version='1.0' ?><svg xmlns:ns0="http://www.iki.fi/pav/software/textext/" xmlns:dc="http://purl.org/dc/elements/1.1/" xmlns:cc="http://creativecommons.org/ns#" xmlns:rdf="http://www.w3.org/1999/02/22-rdf-syntax-ns#" xmlns:svg="http://www.w3.org/2000/svg" xmlns="http://www.w3.org/2000/svg" id="svg2" version="1.1" width="234.66668" height="165.33335" viewBox="46.399969431237146 105.88975331343825 176.000019662552 124.00001930770738" preserveAspectRatio="none">
  <metadata id="metadata368">
    <rdf:RDF>
      <cc:Work rdf:about="">
        <dc:format>image/svg+xml</dc:format>
        <dc:type rdf:resource="http://purl.org/dc/dcmitype/StillImage" />
        <dc:title />
      </cc:Work>
    </rdf:RDF>
  </metadata>
  <defs id="defs366">
    <marker orient="auto" refY="0.0" refX="0.0" id="marker5243" style="overflow:visible;">
      <path id="path5245" style="fill-rule:evenodd;stroke-width:0.625;stroke-linejoin:round;stroke:#000000;stroke-opacity:1;fill:#000000;fill-opacity:1" d="M 8.7185878,4.0337352 L -2.2072895,0.016013256 L 8.7185884,-4.0017078 C 6.9730900,-1.6296469 6.9831476,1.6157441 8.7185878,4.0337352 z " transform="scale(0.6) rotate(180) translate(0,0)" />
    </marker>
  </defs>
  <g transform="translate(0,266.88981)" id="misc" style="stroke-width:1;stroke-linecap:square;stroke-linejoin:miter;stroke-miterlimit:10;stroke-dasharray:none;stroke-dashoffset:0" />
  <path id="path4734" d="m 46.39998,169.88976 176.00002,0" style="fill:none;fill-rule:evenodd;stroke:#000000;stroke-width:0.72720009;stroke-linecap:butt;stroke-linejoin:miter;stroke-miterlimit:4;stroke-dasharray:2.90880041, 2.90880041;stroke-dashoffset:0;stroke-opacity:1" />
  <path id="path4736" d="m 127.99999,229.88977 0,-124.00002" style="fill:none;fill-rule:evenodd;stroke:#000000;stroke-width:0.72720009;stroke-linecap:butt;stroke-linejoin:miter;stroke-miterlimit:4;stroke-dasharray:2.90880041, 2.90880041;stroke-dashoffset:0;stroke-opacity:1" />
  <path id="path4738" d="m 127.7809,170.12618 0,-53.5444" style="fill:none;fill-rule:evenodd;stroke:#000000;stroke-width:1.60000015;stroke-linecap:butt;stroke-linejoin:miter;stroke-miterlimit:4;stroke-dasharray:none;stroke-opacity:1;marker-end:url(#marker5243)" />
  <g id="content" transform="matrix(1.35,0,0,-1.35,-165.74202,791.71187)" xml:space="preserve" stroke="black" stroke-linecap="butt" stroke-linejoin="miter" stroke-miterlimit="10.433" stroke-dasharray="none" stroke-dashoffset="0" stroke-opacity="1" fill="none" fill-rule="evenodd" fill-opacity="1" font-style="normal" font-variant="normal" font-weight="normal" font-stretch="normal" font-size-adjust="none" letter-spacing="normal" word-spacing="normal" text-anchor="start" ns0:text="$\\quantity{8}{m\\,s^{-1}}$" ns0:preamble="/Users/jdg18/CMEP/Miscellaneous/underground-inkscape-preamble.tex" style="font-style:normal;font-variant:normal;font-weight:normal;font-stretch:normal;letter-spacing:normal;word-spacing:normal;text-anchor:start;fill:none;fill-opacity:1;fill-rule:evenodd;stroke:#000000;stroke-linecap:butt;stroke-linejoin:miter;stroke-miterlimit:10.43299961;stroke-dasharray:none;stroke-dashoffset:0;stroke-opacity:1"><path d="M228.7,478.79 L228.7,478.88 L228.7,478.96 L228.69,479.05 L228.68,479.13 L228.67,479.21 L228.66,479.29 L228.64,479.37 L228.62,479.45 L228.6,479.53 L228.57,479.6 L228.54,479.68 L228.51,479.75 L228.47,479.83 L228.43,479.9 L228.38,479.98 L228.33,480.05 L228.28,480.13 L228.22,480.2 L228.16,480.28 L228.09,480.35 L228.02,480.43 L227.94,480.51 L227.86,480.59 L227.77,480.66 L227.68,480.74 L227.58,480.82 L227.47,480.91 L227.36,480.99 L227.25,481.07 L227.13,481.16 L227,481.25 L226.87,481.34 C228.04,481.96,228.45,482.36,228.45,483.25 C228.45,484.17,227.64,484.94,226.46,484.94 L226.35,484.61 C227.15,484.61,227.64,484.07,227.64,483.25 H227.64 C227.64,482.52,227.33,482.02,226.52,481.55 C225.48,482.16,225.04,482.71,225.04,483.44 C225.04,484.17,225.55,484.61,226.35,484.61 L226.46,484.94 C225.15,484.94,224.17,484.23,224.17,483.1 C224.17,482.33,224.41,481.88,225.63,480.88 C224.37,479.99,224.1,479.53,224.1,478.72 C224.1,477.61,225.03,476.79,226.37,476.79 L226.5,477.12 C225.6,477.12,224.99,477.74,224.99,478.82 C224.99,479.59,225.24,480.08,225.94,480.64 L226.64,480.17 C227.45,479.63,227.8,479.15,227.8,478.42 C227.8,477.65,227.27,477.12,226.5,477.12 L226.37,476.79 C227.79,476.79,228.7,477.57,228.7,478.79 Z " stroke-width="0" fill="black" id="path4421" /><path d="M241.48,476.96 V477.34 C240.84,477.34,240.53,477.34,240.52,477.71 V480.07 C240.52,481.13,240.52,481.51,240.13,481.96 C239.96,482.17,239.55,482.41,238.83,482.41 C237.79,482.41,237.25,481.67,237.04,481.2 C236.87,482.28,235.95,482.41,235.39,482.41 C234.49,482.41,233.91,481.88,233.56,481.12 V482.41 L231.81,482.28 V481.89 C232.68,481.89,232.78,481.81,232.78,481.2 V477.9 C232.78,477.34,232.64,477.34,231.81,477.34 V476.96 L233.21,476.99 L234.6,476.96 V477.34 C233.77,477.34,233.63,477.34,233.63,477.9 V480.17 C233.63,481.45,234.51,482.14,235.3,482.14 C236.09,482.14,236.22,481.48,236.22,480.77 V477.9 C236.22,477.34,236.09,477.34,235.26,477.34 V476.96 L236.65,476.99 L238.04,476.96 V477.34 C237.21,477.34,237.07,477.34,237.07,477.9 V480.17 C237.07,481.45,237.95,482.14,238.75,482.14 C239.53,482.14,239.66,481.48,239.66,480.77 V477.9 C239.66,477.34,239.53,477.34,238.7,477.34 V476.96 L240.1,476.99 Z " stroke-width="0" fill="black" id="path4423" /><path d="M248.23,478.54 L248.23,478.6 L248.23,478.66 L248.22,478.71 L248.22,478.77 L248.21,478.82 L248.2,478.88 L248.18,478.93 L248.17,478.98 L248.16,479.02 L248.14,479.07 L248.12,479.11 L248.11,479.16 L248.09,479.2 L248.07,479.24 L248.05,479.28 L248.03,479.31 L248.01,479.35 L247.99,479.38 L247.96,479.42 L247.94,479.45 L247.92,479.48 L247.9,479.5 L247.88,479.53 L247.86,479.56 L247.84,479.58 L247.82,479.6 L247.8,479.62 L247.78,479.64 L247.76,479.66 L247.74,479.68 L247.73,479.7 L247.71,479.71 C247.3,480.11,246.82,480.2,246.3,480.3 C245.61,480.44,244.78,480.6,244.78,481.31 C244.78,481.75,245.1,482.25,246.16,482.25 C247.53,482.25,247.59,481.14,247.61,480.76 C247.63,480.65,247.76,480.65,247.76,480.65 C247.92,480.65,247.92,480.71,247.92,480.94 V482.19 C247.92,482.4,247.92,482.49,247.79,482.49 C247.73,482.49,247.7,482.49,247.54,482.34 C247.5,482.29,247.38,482.18,247.33,482.14 C246.86,482.49,246.35,482.49,246.16,482.49 C244.65,482.49,244.18,481.66,244.18,480.97 C244.18,480.54,244.38,480.19,244.72,479.92 C245.11,479.6,245.46,479.52,246.35,479.35 C246.62,479.3,247.64,479.11,247.64,478.22 C247.64,477.59,247.21,477.09,246.24,477.09 C245.2,477.09,244.75,477.8,244.52,478.85 C244.48,479.01,244.47,479.06,244.35,479.06 C244.18,479.06,244.18,478.97,244.18,478.75 V477.12 C244.18,476.91,244.18,476.82,244.32,476.82 C244.38,476.82,244.4,476.83,244.63,477.07 C244.65,477.09,244.65,477.12,244.88,477.35 C245.42,476.83,245.98,476.82,246.24,476.82 C247.66,476.82,248.23,477.65,248.23,478.54 Z " stroke-width="0" fill="black" id="path4425" /><polygon points="253.81,483.27 253.81,483.82 249.19,483.82 249.19,483.27 " stroke-width="0" fill="black" id="polygon4427" /><path d="M258.42,481.45 V481.76 H258.1 C257.23,481.76,257.23,481.87,257.23,482.16 V486.94 C257.23,487.17,257.21,487.18,256.97,487.18 C256.42,486.64,255.63,486.63,255.28,486.63 V486.32 C255.49,486.32,256.06,486.32,256.53,486.56 V482.16 C256.53,481.87,256.53,481.76,255.67,481.76 H255.34 V481.45 L256.88,481.48 Z " stroke-width="0" fill="black" id="path4429" /></g></svg>