<?xml version='1.0' ?><svg xmlns:ns0="http://www.iki.fi/pav/software/textext/" xmlns:dc="http://purl.org/dc/elements/1.1/" xmlns:cc="http://creativecommons.org/ns#" xmlns:rdf="http://www.w3.org/1999/02/22-rdf-syntax-ns#" xmlns:svg="http://www.w3.org/2000/svg" xmlns="http://www.w3.org/2000/svg" id="svg2" version="1.1" width="234.66668" height="169.36309" viewBox="39.999969329871654 97.46297785080104 176.000019662552 127.02232447363453" preserveAspectRatio="none">
  <metadata id="metadata368">
    <rdf:RDF>
      <cc:Work rdf:about="">
        <dc:format>image/svg+xml</dc:format>
        <dc:type rdf:resource="http://purl.org/dc/dcmitype/StillImage" />
        <dc:title />
      </cc:Work>
    </rdf:RDF>
  </metadata>
  <defs id="defs366">
    <marker style="overflow:visible;" id="marker5243" refX="0.0" refY="0.0" orient="auto">
      <path transform="scale(0.6) rotate(180) translate(0,0)" d="M 8.7185878,4.0337352 L -2.2072895,0.016013256 L 8.7185884,-4.0017078 C 6.9730900,-1.6296469 6.9831476,1.6157441 8.7185878,4.0337352 z " style="fill-rule:evenodd;stroke-width:0.625;stroke-linejoin:round;stroke:#000000;stroke-opacity:1;fill:#000000;fill-opacity:1" id="path5245" />
    </marker>
  </defs>
  <g style="stroke-width:1;stroke-linecap:square;stroke-linejoin:miter;stroke-miterlimit:10;stroke-dasharray:none;stroke-dashoffset:0" id="misc" transform="translate(0,266.88981)" />
  <path style="fill:none;fill-rule:evenodd;stroke:#000000;stroke-width:0.7272001;stroke-linecap:butt;stroke-linejoin:miter;stroke-opacity:1;stroke-miterlimit:4;stroke-dasharray:2.90880041,2.90880041;stroke-dashoffset:0" d="m 39.99998,169.88976 176.00002,0" id="path4734" />
  <path style="fill:none;fill-rule:evenodd;stroke:#000000;stroke-width:0.72720007;stroke-linecap:butt;stroke-linejoin:miter;stroke-miterlimit:4;stroke-dasharray:2.90880028,2.90880028;stroke-dashoffset:0;stroke-opacity:1" d="m 127.99999,224.4853 0,-127.022323" id="path4736" />
  <path style="fill:none;fill-rule:evenodd;stroke:#000000;stroke-width:1.60000015;stroke-linecap:butt;stroke-linejoin:miter;stroke-miterlimit:4;stroke-dasharray:none;stroke-opacity:1;marker-end:url(#marker5243)" d="m 128.31955,169.88976 -68.17262,0" id="path4738" />
  <g id="content" transform="matrix(1.35,0,0,-1.35,-230.60648,802.28994)" xml:space="preserve" stroke-miterlimit="10.433" font-style="normal" font-variant="normal" font-weight="normal" font-stretch="normal" font-size-adjust="none" letter-spacing="normal" word-spacing="normal" ns0:text="$\\quantity{5}{m\\,s^{-1}}$" ns0:preamble="/Users/jdg18/CMEP/Miscellaneous/underground-inkscape-preamble.tex" style="font-style:normal;font-variant:normal;font-weight:normal;font-stretch:normal;letter-spacing:normal;word-spacing:normal;text-anchor:start;fill:none;fill-opacity:1;fill-rule:evenodd;stroke:#000000;stroke-linecap:butt;stroke-linejoin:miter;stroke-miterlimit:10.43299961;stroke-dasharray:none;stroke-dashoffset:0;stroke-opacity:1"><path style="fill:#000000;stroke-width:0" d="m 228.62,485 -0.11,0.08 c -0.19,-0.25 -0.29,-0.31 -0.56,-0.31 l -2.46,0 -1.29,-2.79 c 0,0 -0.01,-0.04 -0.01,-0.06 0,-0.07 0.04,-0.1 0.14,-0.1 1.14,0 1.97,-0.38 2.52,-0.82 0.54,-0.43 0.8,-1.02 0.8,-1.77 0,-1.02 -0.77,-2 -1.6,-2 -0.24,0 -0.51,0.11 -0.84,0.38 -0.38,0.3 -0.61,0.36 -0.88,0.36 -0.33,0 -0.53,-0.15 -0.53,-0.45 0,-0.44 0.61,-0.73 1.5,-0.73 0.81,0 1.46,0.18 2.02,0.58 0.8,0.59 1.16,1.32 1.16,2.46 0,0.62 -0.11,1.07 -0.42,1.5 -0.67,0.93 -1.26,1.19 -2.96,1.51 l 0.48,1 2.29,0 c 0.19,0 0.29,0.07 0.32,0.15 z" id="path4407" /><path style="fill:#000000;stroke-width:0" d="m 241.48,476.96 0,0.38 c -0.64,0 -0.95,0 -0.96,0.37 l 0,2.36 c 0,1.06 0,1.44 -0.39,1.89 -0.17,0.21 -0.58,0.45 -1.3,0.45 -1.04,0 -1.58,-0.74 -1.79,-1.21 -0.17,1.08 -1.09,1.21 -1.65,1.21 -0.9,0 -1.48,-0.53 -1.83,-1.29 l 0,1.29 -1.75,-0.13 0,-0.39 c 0.87,0 0.97,-0.08 0.97,-0.69 l 0,-3.3 c 0,-0.56 -0.14,-0.56 -0.97,-0.56 l 0,-0.38 1.4,0.03 1.39,-0.03 0,0.38 c -0.83,0 -0.97,0 -0.97,0.56 l 0,2.27 c 0,1.28 0.88,1.97 1.67,1.97 0.79,0 0.92,-0.66 0.92,-1.37 l 0,-2.87 c 0,-0.56 -0.13,-0.56 -0.96,-0.56 l 0,-0.38 1.39,0.03 1.39,-0.03 0,0.38 c -0.83,0 -0.97,0 -0.97,0.56 l 0,2.27 c 0,1.28 0.88,1.97 1.68,1.97 0.78,0 0.91,-0.66 0.91,-1.37 l 0,-2.87 c 0,-0.56 -0.13,-0.56 -0.96,-0.56 l 0,-0.38 1.4,0.03 z" id="path4409" /><path style="fill:#000000;stroke-width:0" d="m 248.23,478.54 0,0.06 0,0.06 -0.01,0.05 0,0.06 -0.01,0.05 -0.01,0.06 -0.02,0.05 -0.01,0.05 -0.01,0.04 -0.02,0.05 -0.02,0.04 -0.01,0.05 -0.02,0.04 -0.02,0.04 -0.02,0.04 -0.02,0.03 -0.02,0.04 -0.02,0.03 -0.03,0.04 -0.02,0.03 -0.02,0.03 -0.02,0.02 -0.02,0.03 -0.02,0.03 -0.02,0.02 -0.02,0.02 -0.02,0.02 -0.02,0.02 -0.02,0.02 -0.02,0.02 -0.01,0.02 -0.02,0.01 c -0.41,0.4 -0.89,0.49 -1.41,0.59 -0.69,0.14 -1.52,0.3 -1.52,1.01 0,0.44 0.32,0.94 1.38,0.94 1.37,0 1.43,-1.11 1.45,-1.49 0.02,-0.11 0.15,-0.11 0.15,-0.11 0.16,0 0.16,0.06 0.16,0.29 l 0,1.25 c 0,0.21 0,0.3 -0.13,0.3 -0.06,0 -0.09,0 -0.25,-0.15 -0.04,-0.05 -0.16,-0.16 -0.21,-0.2 -0.47,0.35 -0.98,0.35 -1.17,0.35 -1.51,0 -1.98,-0.83 -1.98,-1.52 0,-0.43 0.2,-0.78 0.54,-1.05 0.39,-0.32 0.74,-0.4 1.63,-0.57 0.27,-0.05 1.29,-0.24 1.29,-1.13 0,-0.63 -0.43,-1.13 -1.4,-1.13 -1.04,0 -1.49,0.71 -1.72,1.76 -0.04,0.16 -0.05,0.21 -0.17,0.21 -0.17,0 -0.17,-0.09 -0.17,-0.31 l 0,-1.63 c 0,-0.21 0,-0.3 0.14,-0.3 0.06,0 0.08,0.01 0.31,0.25 0.02,0.02 0.02,0.05 0.25,0.28 0.54,-0.52 1.1,-0.53 1.36,-0.53 1.42,0 1.99,0.83 1.99,1.72 z" id="path4411" /><polygon style="fill:#000000;stroke-width:0" points="253.81,483.27 253.81,483.82 249.19,483.82 249.19,483.27 " id="polygon4413" /><path style="fill:#000000;stroke-width:0" d="m 258.42,481.45 0,0.31 -0.32,0 c -0.87,0 -0.87,0.11 -0.87,0.4 l 0,4.78 c 0,0.23 -0.02,0.24 -0.26,0.24 -0.55,-0.54 -1.34,-0.55 -1.69,-0.55 l 0,-0.31 c 0.21,0 0.78,0 1.25,0.24 l 0,-4.4 c 0,-0.29 0,-0.4 -0.86,-0.4 l -0.33,0 0,-0.31 1.54,0.03 z" id="path4415" /></g></svg>