<?xml version='1.0' ?><svg xmlns:ns0="http://www.iki.fi/pav/software/textext/" xmlns:dc="http://purl.org/dc/elements/1.1/" xmlns:cc="http://creativecommons.org/ns#" xmlns:rdf="http://www.w3.org/1999/02/22-rdf-syntax-ns#" xmlns:svg="http://www.w3.org/2000/svg" xmlns="http://www.w3.org/2000/svg" id="svg2" version="1.1" width="234.66668" height="173.39285" viewBox="39.999969329871654 105.88975331343825 176.000019662552 130.0446446395625" preserveAspectRatio="none">
  <metadata id="metadata368">
    <rdf:RDF>
      <cc:Work rdf:about="">
        <dc:format>image/svg+xml</dc:format>
        <dc:type rdf:resource="http://purl.org/dc/dcmitype/StillImage" />
        <dc:title />
      </cc:Work>
    </rdf:RDF>
  </metadata>
  <defs id="defs366">
    <marker style="overflow:visible;" id="marker5243" refX="0.0" refY="0.0" orient="auto">
      <path transform="scale(0.6) rotate(180) translate(0,0)" d="M 8.7185878,4.0337352 L -2.2072895,0.016013256 L 8.7185884,-4.0017078 C 6.9730900,-1.6296469 6.9831476,1.6157441 8.7185878,4.0337352 z " style="fill-rule:evenodd;stroke-width:0.625;stroke-linejoin:round;stroke:#000000;stroke-opacity:1;fill:#000000;fill-opacity:1" id="path5245" />
    </marker>
    <clipPath id="clip1-4">
      <path d="m 0,0 0,575 1060,0 0,-575 z" id="path6455" />
    </clipPath>
    <clipPath id="clip2-4">
      <path d="m 0,0 0,575 1060,0 0,-575 z" id="path6468" />
    </clipPath>
  </defs>
  <g style="stroke-width:1;stroke-linecap:square;stroke-linejoin:miter;stroke-miterlimit:10;stroke-dasharray:none;stroke-dashoffset:0" id="misc" transform="translate(0,266.88981)" />
  <path style="fill:none;fill-rule:evenodd;stroke:#000000;stroke-width:0.72720007;stroke-linecap:butt;stroke-linejoin:miter;stroke-miterlimit:4;stroke-dasharray:2.90880028,2.90880028;stroke-dashoffset:0;stroke-opacity:1" d="m 127.99999,235.93439 0,-130.04464" id="path4736" />
  <g transform="matrix(0.54671989,0,0,0.54671989,1.0299912,210.65628)" id="misc-7" style="stroke-width:1;stroke-linecap:square;stroke-linejoin:miter;stroke-miterlimit:10;stroke-dasharray:none;stroke-dashoffset:0" />
  <g transform="matrix(1.5286199,0,0,1.5286199,-67.532779,-129.20421)" id="g6687">
    <g style="stroke-width:1;stroke-linecap:square;stroke-linejoin:miter;stroke-miterlimit:10;stroke-dasharray:none;stroke-dashoffset:0" id="g6457" clip-path="url(#clip1-4)" transform="matrix(0.34119916,0,0,0.34119916,-47.62689,88.43038)">
      <g id="g6459" style="fill:#d7191c;fill-opacity:0.09803898;fill-rule:nonzero;stroke:none">
        <path id="path6461" d="m 575.01,314.24 c 0,-9.45 -2.23,-18.76 -6.51,-27.19 l -53.49,27.19 z" />
        <title id="title6463">Angle Ã&#131;Â&#142;Ã&#130;Â±</title>
        <desc id="desc6465">Angle Ã&#131;Â&#142;Ã&#130;Â±: Angle between f, l</desc>
      </g>
    </g>
    <g style="stroke-width:1;stroke-linecap:square;stroke-linejoin:miter;stroke-miterlimit:10;stroke-dasharray:none;stroke-dashoffset:0" id="g6470" clip-path="url(#clip2-4)" transform="matrix(0.34119916,0,0,0.34119916,-47.62689,88.43038)">
      <g id="g6472" style="fill:none;stroke:#d7191c;stroke-width:2;stroke-linecap:round;stroke-linejoin:round;stroke-opacity:1">
        <path id="path6474" d="m 575.01,314.24 c 0,-9.45 -2.23,-18.76 -6.51,-27.19 l -53.49,27.19 z" />
        <title id="title6476">Angle Ã&#131;Â&#142;Ã&#130;Â±</title>
        <desc id="desc6478">Angle Ã&#131;Â&#142;Ã&#130;Â±: Angle between f, l</desc>
      </g>
    </g>
  </g>
  <path style="fill:none;fill-rule:evenodd;stroke:#000000;stroke-width:0.7272001;stroke-linecap:butt;stroke-linejoin:miter;stroke-opacity:1;stroke-miterlimit:4;stroke-dasharray:2.90880041,2.90880041;stroke-dashoffset:0" d="m 39.99998,169.88976 176.00002,0" id="path4734" />
  <path id="path6658" d="m 127.99999,169.88976 72.00001,-36" style="fill:none;fill-rule:evenodd;stroke:#000000;stroke-width:1.60000015;stroke-linecap:butt;stroke-linejoin:miter;stroke-opacity:1;stroke-miterlimit:4;stroke-dasharray:none;marker-end:url(#marker5243)" />
  <g id="g6980" transform="matrix(0.8,0,0,0.8,4.9038461,-4.5501158)">
    <path id="path6844" d="m 200.1583,203.70473 0.075,-0.12 0.06,-0.12 0.075,-0.105 0.075,-0.105 0.06,-0.105 0.075,-0.105 0.075,-0.09 0.075,-0.09 0.075,-0.09 0.075,-0.075 0.075,-0.09 0.075,-0.075 0.075,-0.06 0.075,-0.075 0.09,-0.06 0.075,-0.06 0.09,-0.06 0.075,-0.045 0.09,-0.045 0.075,-0.045 0.09,-0.045 0.09,-0.03 0.09,-0.045 0.09,-0.03 0.09,-0.015 0.09,-0.03 0.105,-0.015 0.09,-0.015 0.09,-0.015 0.105,0 0.105,-0.015 0.105,0 c 1.17,0 1.92,0.6 1.92,1.815 0,1.08 -0.57,1.875 -1.44,2.37 -0.36,0.21 -0.825,0.405 -1.5,0.63 l 0,0.255 c 1.02,0 1.425,0.045 1.815,0.18 1.23,0.345 1.845,1.215 1.845,2.565 0,1.5 -0.99,2.7 -2.31,2.7 -0.495,0 -0.87,-0.075 -1.53,-0.54 -0.495,-0.36 -0.78,-0.465 -1.08,-0.465 -0.405,0 -0.72,0.27 -0.72,0.645 0,0.63 0.69,1.005 1.98,1.005 1.575,0 3.27,-0.51 4.125,-1.65 0.51,-0.675 0.81,-1.545 0.81,-2.475 0,-0.915 -0.285,-1.74 -0.78,-2.28 -0.375,-0.39 -0.69,-0.615 -1.47,-0.945 1.185,-0.705 1.65,-1.59 1.65,-2.445 0,-1.455 -1.11,-2.43 -2.775,-2.43 -1.845,0 -2.97,1.185 -3.48,2.88 z" style="font-style:normal;font-variant:normal;font-weight:normal;font-stretch:normal;letter-spacing:normal;word-spacing:normal;text-anchor:start;fill:#000000;fill-opacity:1;fill-rule:evenodd;stroke:#000000;stroke-width:0;stroke-linecap:butt;stroke-linejoin:miter;stroke-miterlimit:10.43299961;stroke-dasharray:none;stroke-dashoffset:0;stroke-opacity:1" />
    <path id="path6846" d="m 216.4183,206.89973 0,-0.345 -0.015,-0.33 -0.03,-0.315 -0.03,-0.315 -0.045,-0.315 -0.045,-0.3 -0.06,-0.285 -0.06,-0.285 -0.075,-0.27 -0.09,-0.27 -0.09,-0.255 -0.09,-0.255 -0.105,-0.24 -0.12,-0.225 -0.12,-0.21 -0.12,-0.21 -0.135,-0.195 -0.135,-0.195 -0.15,-0.165 -0.15,-0.165 -0.165,-0.15 -0.165,-0.15 -0.18,-0.12 -0.165,-0.12 -0.18,-0.105 -0.195,-0.09 -0.195,-0.075 -0.195,-0.06 -0.21,-0.045 -0.195,-0.045 -0.21,-0.015 -0.225,-0.015 c -2.865,0 -4.08,2.895 -4.08,6.03 0,2.895 0.975,6.195 4.005,6.195 l 0,-0.465 c -1.53,0 -2.31,-2.01 -2.31,-5.61 0,-3.6 0.81,-5.685 2.28,-5.685 1.56,0 2.34,2.07 2.34,5.76 l 0,0 c 0,3.51 -0.795,5.535 -2.31,5.535 l 0,0.465 c 2.895,0 4.02,-3.045 4.02,-6.09 z" style="font-style:normal;font-variant:normal;font-weight:normal;font-stretch:normal;letter-spacing:normal;word-spacing:normal;text-anchor:start;fill:#000000;fill-opacity:1;fill-rule:evenodd;stroke:#000000;stroke-width:0;stroke-linecap:butt;stroke-linejoin:miter;stroke-miterlimit:10.43299961;stroke-dasharray:none;stroke-dashoffset:0;stroke-opacity:1" />
    <path id="path6848" d="m 220.9633,203.41973 -0.87,0 c 0,0.51 -0.405,0.915 -0.915,0.915 -0.525,0 -0.915,-0.39 -0.915,-0.945 0,-0.495 0.375,-0.9 0.945,-0.9 0.48,0 0.885,0.405 0.885,0.93 l 0,0 0.87,0 c 0,-0.99 -0.795,-1.8 -1.755,-1.8 -1.035,0 -1.83,0.765 -1.83,1.77 0,1.02 0.795,1.815 1.8,1.815 0.99,0 1.785,-0.795 1.785,-1.785 z" style="font-style:normal;font-variant:normal;font-weight:normal;font-stretch:normal;letter-spacing:normal;word-spacing:normal;text-anchor:start;fill:#000000;fill-opacity:1;fill-rule:evenodd;stroke:#000000;stroke-width:0;stroke-linecap:butt;stroke-linejoin:miter;stroke-miterlimit:10.43299961;stroke-dasharray:none;stroke-dashoffset:0;stroke-opacity:1" />
  </g>
  <g id="content" transform="matrix(1.35,0,0,-1.35,-157.87533,778.71587)" xml:space="preserve" stroke-miterlimit="10.433" font-style="normal" font-variant="normal" font-weight="normal" font-stretch="normal" font-size-adjust="none" letter-spacing="normal" word-spacing="normal" ns0:text="$\\quantity{6}{m\\,s^{-1}}$" ns0:preamble="/Users/jdg18/CMEP/Miscellaneous/underground-inkscape-preamble.tex" style="font-style:normal;font-variant:normal;font-weight:normal;font-stretch:normal;letter-spacing:normal;word-spacing:normal;text-anchor:start;fill:none;fill-opacity:1;fill-rule:evenodd;stroke:#000000;stroke-linecap:butt;stroke-linejoin:miter;stroke-miterlimit:10.43299961;stroke-dasharray:none;stroke-dashoffset:0;stroke-opacity:1"><path style="fill:#000000;stroke-width:0" d="m 228.71,485.03 -0.15,-0.01 -0.14,-0.02 -0.15,-0.02 -0.14,-0.02 -0.13,-0.02 -0.14,-0.02 -0.13,-0.03 -0.12,-0.02 -0.13,-0.03 -0.12,-0.02 -0.12,-0.03 -0.11,-0.04 -0.11,-0.03 -0.11,-0.04 -0.11,-0.04 -0.11,-0.04 -0.11,-0.04 -0.1,-0.05 -0.1,-0.05 -0.1,-0.05 -0.1,-0.05 -0.1,-0.06 -0.1,-0.06 -0.09,-0.07 -0.1,-0.07 -0.09,-0.07 -0.1,-0.08 -0.09,-0.08 -0.1,-0.08 -0.09,-0.09 -0.1,-0.09 -0.09,-0.1 c -0.84,-0.86 -1.29,-1.98 -1.29,-3.26 0,-0.82 0.22,-1.66 0.55,-2.27 0.42,-0.75 1.16,-1.19 2.1,-1.19 l 0.13,0.33 c -1.11,0 -1.68,1.18 -1.68,2.98 0,1.08 0.69,1.37 1.37,1.37 1.1,0 1.6,-0.78 1.6,-2.29 l 0,0 c 0,-1.21 -0.44,-2.06 -1.29,-2.06 l -0.13,-0.33 c 0.78,0 1.44,0.32 1.88,0.86 0.39,0.48 0.61,1.14 0.61,1.89 0,1.53 -0.86,2.47 -2.24,2.47 -0.53,0 -0.93,-0.08 -1.51,-0.53 0.32,1.78 1.65,3.06 3.51,3.36 z" id="path4517" /><path style="fill:#000000;stroke-width:0" d="m 241.48,476.96 0,0.38 c -0.64,0 -0.95,0 -0.96,0.37 l 0,2.36 c 0,1.06 0,1.44 -0.39,1.89 -0.17,0.21 -0.58,0.45 -1.3,0.45 -1.04,0 -1.58,-0.74 -1.79,-1.21 -0.17,1.08 -1.09,1.21 -1.65,1.21 -0.9,0 -1.48,-0.53 -1.83,-1.29 l 0,1.29 -1.75,-0.13 0,-0.39 c 0.87,0 0.97,-0.08 0.97,-0.69 l 0,-3.3 c 0,-0.56 -0.14,-0.56 -0.97,-0.56 l 0,-0.38 1.4,0.03 1.39,-0.03 0,0.38 c -0.83,0 -0.97,0 -0.97,0.56 l 0,2.27 c 0,1.28 0.88,1.97 1.67,1.97 0.79,0 0.92,-0.66 0.92,-1.37 l 0,-2.87 c 0,-0.56 -0.13,-0.56 -0.96,-0.56 l 0,-0.38 1.39,0.03 1.39,-0.03 0,0.38 c -0.83,0 -0.97,0 -0.97,0.56 l 0,2.27 c 0,1.28 0.88,1.97 1.68,1.97 0.78,0 0.91,-0.66 0.91,-1.37 l 0,-2.87 c 0,-0.56 -0.13,-0.56 -0.96,-0.56 l 0,-0.38 1.4,0.03 z" id="path4519" /><path style="fill:#000000;stroke-width:0" d="m 248.23,478.54 0,0.06 0,0.06 -0.01,0.05 0,0.06 -0.01,0.05 -0.01,0.06 -0.02,0.05 -0.01,0.05 -0.01,0.04 -0.02,0.05 -0.02,0.04 -0.01,0.05 -0.02,0.04 -0.02,0.04 -0.02,0.04 -0.02,0.03 -0.02,0.04 -0.02,0.03 -0.03,0.04 -0.02,0.03 -0.02,0.03 -0.02,0.02 -0.02,0.03 -0.02,0.03 -0.02,0.02 -0.02,0.02 -0.02,0.02 -0.02,0.02 -0.02,0.02 -0.02,0.02 -0.01,0.02 -0.02,0.01 c -0.41,0.4 -0.89,0.49 -1.41,0.59 -0.69,0.14 -1.52,0.3 -1.52,1.01 0,0.44 0.32,0.94 1.38,0.94 1.37,0 1.43,-1.11 1.45,-1.49 0.02,-0.11 0.15,-0.11 0.15,-0.11 0.16,0 0.16,0.06 0.16,0.29 l 0,1.25 c 0,0.21 0,0.3 -0.13,0.3 -0.06,0 -0.09,0 -0.25,-0.15 -0.04,-0.05 -0.16,-0.16 -0.21,-0.2 -0.47,0.35 -0.98,0.35 -1.17,0.35 -1.51,0 -1.98,-0.83 -1.98,-1.52 0,-0.43 0.2,-0.78 0.54,-1.05 0.39,-0.32 0.74,-0.4 1.63,-0.57 0.27,-0.05 1.29,-0.24 1.29,-1.13 0,-0.63 -0.43,-1.13 -1.4,-1.13 -1.04,0 -1.49,0.71 -1.72,1.76 -0.04,0.16 -0.05,0.21 -0.17,0.21 -0.17,0 -0.17,-0.09 -0.17,-0.31 l 0,-1.63 c 0,-0.21 0,-0.3 0.14,-0.3 0.06,0 0.08,0.01 0.31,0.25 0.02,0.02 0.02,0.05 0.25,0.28 0.54,-0.52 1.1,-0.53 1.36,-0.53 1.42,0 1.99,0.83 1.99,1.72 z" id="path4521" /><polygon style="fill:#000000;stroke-width:0" points="249.19,483.27 253.81,483.27 253.81,483.82 249.19,483.82 " id="polygon4523" /><path style="fill:#000000;stroke-width:0" d="m 258.42,481.45 0,0.31 -0.32,0 c -0.87,0 -0.87,0.11 -0.87,0.4 l 0,4.78 c 0,0.23 -0.02,0.24 -0.26,0.24 -0.55,-0.54 -1.34,-0.55 -1.69,-0.55 l 0,-0.31 c 0.21,0 0.78,0 1.25,0.24 l 0,-4.4 c 0,-0.29 0,-0.4 -0.86,-0.4 l -0.33,0 0,-0.31 1.54,0.03 z" id="path4525" /></g></svg>