<?xml version='1.0' ?><svg xmlns:dc="http://purl.org/dc/elements/1.1/" xmlns:cc="http://creativecommons.org/ns#" xmlns:rdf="http://www.w3.org/1999/02/22-rdf-syntax-ns#" xmlns:svg="http://www.w3.org/2000/svg" xmlns="http://www.w3.org/2000/svg" version="1.1" id="svg2" width="366.66438" height="97.703984" viewBox="185.78313 200.25055 366.66438 97.703984" preserveAspectRatio="none">
  <defs id="defs4">
    <marker style="overflow:visible" id="Arrow1Mstart" refX="0" refY="0" orient="auto">
      <path transform="matrix(0.4,0,0,0.4,4,0)" style="fill-rule:evenodd;stroke:#000000;stroke-width:1pt" d="M 0,0 5,-5 -12.5,0 5,5 0,0 z" id="path3899" />
    </marker>
    <marker style="overflow:visible" id="Arrow1Mend" refX="0" refY="0" orient="auto">
      <path transform="matrix(-0.4,0,0,-0.4,-4,0)" style="fill-rule:evenodd;stroke:#000000;stroke-width:1pt" d="M 0,0 5,-5 -12.5,0 5,5 0,0 z" id="path3902" />
    </marker>
    <marker orient="auto" refY="0" refX="0" id="Arrow1Mstart-91" style="overflow:visible">
      <path id="path3899-5" d="M 0,0 5,-5 -12.5,0 5,5 0,0 z" style="fill-rule:evenodd;stroke:#000000;stroke-width:1pt" transform="matrix(0.4,0,0,0.4,4,0)" />
    </marker>
    <marker orient="auto" refY="0" refX="0" id="Arrow1Mend-1" style="overflow:visible">
      <path id="path3902-2" d="M 0,0 5,-5 -12.5,0 5,5 0,0 z" style="fill-rule:evenodd;stroke:#000000;stroke-width:1pt" transform="matrix(-0.4,0,0,-0.4,-4,0)" />
    </marker>
  </defs>
  <metadata id="metadata7">
    <rdf:RDF>
      <cc:Work rdf:about="">
        <dc:format>image/svg+xml</dc:format>
        <dc:type rdf:resource="http://purl.org/dc/dcmitype/StillImage" />
        <dc:title />
      </cc:Work>
    </rdf:RDF>
  </metadata>
  <g transform="translate(184.71578,221.43775)" id="layer1">
    <path id="path3117" d="m 9.1852456,-18.344709 0,93.966833" style="fill:none;stroke:#000000;stroke-width:1.48820436;stroke-linecap:butt;stroke-linejoin:miter;stroke-miterlimit:4;stroke-dasharray:none;stroke-opacity:1;marker-start:url(#Arrow1Mstart);marker-end:none" />
    <path id="path3119" d="m 1.067353,6.0247396 161.756517,0" style="fill:none;stroke:#000000;stroke-width:1.48820436;stroke-linecap:butt;stroke-linejoin:miter;stroke-miterlimit:4;stroke-dasharray:none;stroke-opacity:1;marker-end:url(#Arrow1Mend)" />
    <path style="fill:none;stroke:#000000;stroke-width:1.48820436;stroke-linecap:butt;stroke-linejoin:miter;stroke-miterlimit:4;stroke-dasharray:none;stroke-dashoffset:0;stroke-opacity:1" d="" title="(x**4)/16-x**3+4x**2+x" id="path5083" />
    <path id="path5109" title="(x**4)/16-x**3+4x**2+x" d="" style="fill:none;stroke:#000000;stroke-width:1.48820436;stroke-linecap:butt;stroke-linejoin:miter;stroke-miterlimit:4;stroke-dasharray:none;stroke-dashoffset:0;stroke-opacity:1" />
    <path id="path6658" title="(x/4)*log(x/4)-x/4" d="m 9.2527118,6.9265304 c 0.5078063,3.4700666 1.0156112,5.4805716 1.5234182,7.5590946 0.507806,2.078523 1.015612,3.90861 1.523418,5.61196 0.507806,1.703351 1.015612,3.271472 1.523418,4.748943 0.507806,1.47747 1.015613,2.862313 1.523418,4.177656 0.507807,1.315343 1.015613,2.560322 1.523419,3.749114 0.507806,1.188792 1.015612,2.320879 1.523418,3.40586 0.507806,1.084981 1.015612,2.122483 1.523418,3.11945 0.507806,0.996967 1.015612,1.953106 1.523418,2.873678 0.507806,0.920572 1.015613,1.805334 1.523418,2.658418 0.507807,0.853083 1.015613,1.674279 1.523418,2.466917 0.507807,0.79264 1.015613,1.556538 1.523419,2.294445 0.507806,0.737907 1.015612,1.449657 1.523418,2.137557 0.507806,0.687898 1.015612,1.351799 1.523418,1.993665 0.507807,0.641866 1.015612,1.261562 1.523418,1.860781 0.507807,0.599221 1.015613,1.177841 1.523419,1.73734 0.507806,0.559498 1.015612,1.099759 1.523417,1.622085 0.507806,0.522325 1.015613,1.026607 1.52342,1.513999 0.507807,0.487393 1.015613,0.957795 1.52342,1.412242 0.507802,0.454446 1.015608,0.892839 1.523415,1.316112 0.507807,0.423273 1.015613,0.831331 1.52342,1.225022 0.507807,0.39369 1.015608,0.772921 1.523415,1.138466 0.507807,0.365543 1.015614,0.717314 1.52342,1.056016 0.507807,0.338701 1.015614,0.664253 1.523415,0.9773 0.507807,0.313047 1.015614,0.613513 1.523421,0.901994 0.507806,0.28848 1.015613,0.564902 1.52342,0.829814 0.507806,0.264912 1.015613,0.518246 1.52342,0.760513 0.507801,0.242265 1.015608,0.473395 1.523415,0.693864 0.507807,0.220472 1.015613,0.430218 1.52342,0.629682 0.507802,0.199466 1.015608,0.388588 1.523415,0.567781 0.507807,0.179195 1.015614,0.348401 1.52342,0.508011 0.507807,0.159608 1.015614,0.30956 1.52342,0.450223 0.507802,0.140664 1.015609,0.27198 1.523415,0.394298 0.507807,0.122318 1.015614,0.23558 1.523421,0.340113 0.507806,0.104535 1.015613,0.200289 1.523415,0.287569 0.507806,0.08728 1.015613,0.166037 1.52342,0.236563 0.507807,0.07053 1.015613,0.13277 1.52342,0.187011 0.507802,0.05424 1.015608,0.100432 1.523415,0.138835 0.507807,0.0384 1.015613,0.06897 1.52342,0.09195 0.507807,0.02298 1.015614,0.03834 1.52342,0.04631 0.507802,0.008 1.015609,0.0085 1.523415,0.0018 0.507807,-0.0067 1.015614,-0.02059 1.523421,-0.04154 0.507806,-0.02095 1.015608,-0.04897 1.523415,-0.08386 0.507806,-0.03489 1.015613,-0.07668 1.52342,-0.125172 0.507806,-0.0485 1.015613,-0.103734 1.52342,-0.165524 0.507807,-0.06179 1.015608,-0.130171 1.523415,-0.204958 0.507807,-0.07479 1.015613,-0.156022 1.52342,-0.243523 0.507807,-0.0875 1.015608,-0.181306 1.523415,-0.281247 0.507807,-0.09994 1.015614,-0.206052 1.52342,-0.31817 0.507807,-0.11212 1.015614,-0.230282 1.52342,-0.354328 0.507807,-0.124047 1.015609,-0.254013 1.523416,-0.389747 0.507806,-0.135735 1.015613,-0.277271 1.52342,-0.42446 0.507806,-0.147191 1.015613,-0.30007 1.52342,-0.458494 0.507801,-0.158425 1.015608,-0.322428 1.523415,-0.491873 0.507807,-0.169446 1.015613,-0.344365 1.52342,-0.524625 0.507807,-0.18026 1.015608,-0.365894 1.523415,-0.556772 0.507807,-0.190877 1.015614,-0.387029 1.52342,-0.588333 0.507807,-0.201303 1.015614,-0.407787 1.52342,-0.619332 0.507807,-0.211546 1.015609,-0.428182 1.523415,-0.649791 0.507807,-0.221608 1.015614,-0.448221 1.523421,-0.679722 0.507806,-0.231501 1.015613,-0.467921 1.523413,-0.709149 0.50781,-0.241226 1.01562,-0.48729 1.52342,-0.738084 0.50781,-0.250793 1.01562,-0.506343 1.52342,-0.766547 0.50781,-0.260203 1.01562,-0.525087 1.52342,-0.794551 0.5078,-0.269464 1.01561,-0.543534 1.52342,-0.822112 0.5078,-0.278578 1.01561,-0.561691 1.52341,-0.849242 0.50781,-0.287551 1.01562,-0.579568 1.52342,-0.875956 0.50781,-0.296388 1.01562,-0.597173 1.52342,-0.902265 0.50781,-0.305093 1.01562,-0.614516 1.52342,-0.928183 0.5078,-0.313667 1.01561,-0.631603 1.52342,-0.953719 0.5078,-0.322117 1.01561,-0.648441 1.52342,-0.978887 0.5078,-0.330445 1.01561,-0.665038 1.52341,-1.003694 0.50781,-0.338657 1.01562,-0.681401 1.52342,-1.028154 0.50781,-0.346752 1.01562,-0.697536 1.52342,-1.052274 0.5078,-0.354737 1.01561,-0.713449 1.52342,-1.076062 0.5078,-0.362614 1.01561,-0.72915 1.52342,-1.099533 0.50781,-0.370383 1.01561,-0.744638 1.52342,-1.122688 0.5078,-0.378051 1.01561,-0.759921 1.52341,-1.145541 0.50781,-0.385619 1.01562,-0.775008 1.52342,-1.168096 0.50781,-0.393088 1.01561,-0.7899 1.52342,-1.190362 0.50781,-0.400464 1.01561,-0.804602 1.52342,-1.212348 0.50781,-0.407747 1.01561,-0.819121 1.52342,-1.234059 0.5078,-0.414938 1.01561,-0.83346 1.52341,-1.255501 0.50781,-0.422043 1.01562,-0.847625 1.52342,-1.276685 0.50781,-0.429059 1.01561,-0.861616 1.52342,-1.29761 0.50781,-0.435993 1.01561,-0.875443 1.52342,-1.318288 0.50781,-0.442845 1.01561,-0.889107 1.52342,-1.338723 0.5078,-0.449618 1.01561,-0.902611 1.52341,-1.358923 0.50781,-0.45631 1.01562,-0.915958 1.52342,-1.378887 0.50781,-0.462928 1.01562,-0.929155 1.52342,-1.398626 0.50781,-0.46947 1.01561,-0.942203 1.52342,-1.418142 0.50781,-0.475942 1.01561,-0.955108 1.52342,-1.437447 0.50781,-0.482337 1.01561,-0.967866 1.52342,-1.456534 0.5078,-0.488665 1.01561,-0.980488 1.52342,-1.475414 0.5078,-0.494926 1.01561,-0.992976 1.52342,-1.494095 0.5078,-0.50112 1.0156,-1.005328 1.52341,-1.512575 0.50781,-0.507247 1.01561,-1.017551 1.52342,-1.530862 0.50781,-0.51331 1.01561,-1.029645 1.52342,-1.548957 0.5078,-0.519311 1.01561,-1.041615 1.52342,-1.566867 0.5078,-0.525249 1.01561,-1.053464 1.52342,-1.584594" style="fill:none;stroke:#000000;stroke-width:1.48820436;stroke-linecap:butt;stroke-linejoin:miter;stroke-miterlimit:4;stroke-dasharray:none;stroke-dashoffset:0;stroke-opacity:1" />
    <g style="stroke-width:1;stroke-linecap:square;stroke-linejoin:miter;stroke-miterlimit:10;stroke-dasharray:none;stroke-dashoffset:0" id="misc" transform="matrix(1.25,0,0,1.25,-78.552564,-50.09083)" />
    <g style="stroke-width:1;stroke-linecap:square;stroke-linejoin:miter;stroke-miterlimit:10;stroke-dasharray:none;stroke-dashoffset:0" id="misc-6" transform="matrix(1.25,0,0,1.25,145.92723,-47.08921)" />
    <g id="g3118" transform="matrix(0.14882043,0,0,0.14882043,228.53872,-45.096004)">
      <path style="fill:none;stroke:#000000;stroke-width:10;stroke-linecap:butt;stroke-linejoin:miter;stroke-miterlimit:4;stroke-dasharray:none;stroke-opacity:1;marker-start:url(#Arrow1Mstart-91);marker-end:none" d="m -116.16754,185.51363 0,631.41085" id="path3117-9" />
      <path style="fill:none;stroke:#000000;stroke-width:10;stroke-linecap:butt;stroke-linejoin:miter;stroke-miterlimit:4;stroke-dasharray:none;stroke-opacity:1;marker-end:url(#Arrow1Mend-1)" d="m -170.71578,338.50932 1086.92414,0" id="path3119-3" />
      <path id="path5083-5" title="(x**4)/16-x**3+4x**2+x" d="" style="fill:none;stroke:#000000;stroke-width:10;stroke-linecap:butt;stroke-linejoin:miter;stroke-miterlimit:4;stroke-dasharray:none;stroke-dashoffset:0;stroke-opacity:1" />
      <path style="fill:none;stroke:#000000;stroke-width:10;stroke-linecap:butt;stroke-linejoin:miter;stroke-miterlimit:4;stroke-dasharray:none;stroke-dashoffset:0;stroke-opacity:1" d="" title="(x**4)/16-x**3+4x**2+x" id="path5109-9" />
      <path style="fill:none;stroke:#000000;stroke-width:10;stroke-linecap:butt;stroke-linejoin:miter;stroke-miterlimit:4;stroke-dasharray:none;stroke-dashoffset:0;stroke-opacity:1" d="m -104.94685,816.93986 c 3.41221,-71.5478 6.824413,-93.98854 10.236623,-117.78961 3.412207,-23.80106 6.824414,-40.40455 10.23662,-54.6737 3.412207,-14.26915 6.824414,-25.80739 10.236621,-35.99613 3.412206,-10.18874 6.824413,-18.95692 10.23662,-26.87998 3.412207,-7.92306 6.824413,-14.97877 10.23662,-21.46048 3.412207,-6.48172 6.824413,-12.37981 10.23662,-17.86388 3.412207,-5.48406 6.824414,-10.54895 10.23662,-15.30151 3.412207,-4.75256 6.824414,-9.18963 10.236621,-13.38286 3.412206,-4.19324 6.824413,-8.1405 10.23662,-11.8922 3.4122069,-3.75171 6.8244132,-7.30629 10.2366199,-10.70059 3.41220676,-3.39429 6.8244135,-6.6271 10.2366202,-9.72617 3.4122069,-3.09906 6.8244139,-6.06342 10.2366199,-8.9145 3.412207,-2.85108 6.824414,-5.58809 10.236621,-8.22793 3.412206,-2.63984 6.824413,-5.18185 10.23662,-7.6396 3.412207,-2.45774 6.824413,-4.83066 10.23662,-7.12981 3.412207,-2.29915 6.824414,-4.52405 10.23662,-6.68384 3.412207,-2.15978 6.824414,-4.25402 10.23662,-6.29037 3.412207,-2.03634 6.824414,-4.01442 10.236621,-5.94067 3.412206,-1.92625 6.824413,-3.80036 10.23662,-5.62782 3.412207,-1.82745 6.824413,-3.60797 10.23662,-5.34627 3.412203,-1.7383 6.824413,-3.43412 10.236613,-5.09155 3.41221,-1.65744 6.82442,-3.27625 10.23662,-4.86002 3.41221,-1.58376 6.82442,-3.13226 10.23662,-4.64862 3.41221,-1.51636 6.82442,-3.00038 10.23662,-4.45484 3.41221,-1.45446 6.82442,-2.87917 10.23663,-4.27659 3.4122,-1.39742 6.82441,-2.76737 10.23662,-4.11205 3.4122,-1.34467 6.82441,-2.66392 10.23662,-3.95969 3.4122,-1.29578 6.82441,-2.56794 10.23662,-3.81824 3.4122,-1.25031 6.82441,-2.47862 10.23662,-3.68654 3.4122,-1.20791 6.82441,-2.39531 10.23662,-3.56362 3.4122,-1.1683 6.82441,-2.31741 10.23662,-3.44863 3.4122,-1.13121 6.82441,-2.24443 10.23662,-3.34084 3.4122,-1.0964 6.82441,-2.1759 10.23662,-3.23957 3.4122,-1.06368 6.82441,-2.11143 10.23662,-3.14427 3.4122,-1.03285 6.82441,-2.05068 10.23662,-3.05442 3.4122,-1.00375 6.82441,-1.99332 10.23662,-2.96956 3.4122,-0.97624 6.82441,-1.93907 10.23662,-2.88928 3.4122,-0.95021 6.82441,-1.88771 10.23662,-2.81324 3.4122,-0.92552 6.82441,-1.83899 10.23662,-2.74108 3.4122,-0.9021 6.82441,-1.79274 10.23662,-2.67255 3.4122,-0.87982 6.82441,-1.74874 10.23662,-2.60736 3.41221,-0.85861 6.82441,-1.70685 10.23662,-2.54526 3.41221,-0.83841 6.82441,-1.66693 10.23662,-2.48607 3.41221,-0.81913 6.82441,-1.62882 10.23662,-2.42955 3.41221,-0.80073 6.82441,-1.59243 10.23662,-2.37556 3.41221,-0.78312 6.82441,-1.55762 10.23662,-2.3239 3.41221,-0.76629 6.82441,-1.52431 10.23662,-2.27446 3.41221,-0.75015 6.82441,-1.49238 10.23662,-2.22707 3.41221,-0.73468 6.82441,-1.46177 10.23662,-2.18161 3.41221,-0.71983 6.82441,-1.43238 10.23662,-2.13797 3.41221,-0.70558 6.82441,-1.40416 10.23662,-2.09604 3.41221,-0.69189 6.82441,-1.37703 10.23662,-2.05574 3.41221,-0.6787 6.82441,-1.35092 10.23662,-2.01694 3.41221,-0.66602 6.82441,-1.32579 10.23662,-1.97959 3.41221,-0.65379 6.82441,-1.30157 10.23662,-1.94359 3.41221,-0.64201 6.82441,-1.27823 10.23662,-1.90888 3.41221,-0.63065 6.82441,-1.2557 10.23662,-1.87539 3.41221,-0.61968 6.82441,-1.23396 10.23662,-1.84305 3.41221,-0.60909 6.82442,-1.21296 10.23662,-1.81181 3.41221,-0.59885 6.82442,-1.19266 10.23662,-1.78161 3.41221,-0.58895 6.82442,-1.17302 10.23662,-1.7524 3.41221,-0.57938 6.82442,-1.15403 10.23662,-1.72413 3.41221,-0.57011 6.82442,-1.13564 10.23662,-1.69677 3.41221,-0.56113 6.82442,-1.11782 10.23662,-1.67025 3.41221,-0.55243 6.82442,-1.10056 10.23662,-1.64455 3.41221,-0.544 6.82442,-1.08382 10.23662,-1.61964 3.41221,-0.53581 6.82442,-1.06758 10.23662,-1.59545 3.41221,-0.52788 6.82442,-1.05183 10.23662,-1.572 3.41221,-0.52016 6.82442,-1.03652 10.23662,-1.54921 3.41221,-0.51268 6.82442,-1.02166 10.23662,-1.52707 3.41221,-0.50541 6.82442,-1.00723 10.23662,-1.50557 3.41221,-0.49834 6.82442,-0.99319 10.23662,-1.48465 3.41221,-0.49147 6.82442,-0.97954 10.23662,-1.46432 3.41221,-0.48478 6.82442,-0.96625 10.23662,-1.44453 3.41221,-0.47827 6.82442,-0.95332 10.23663,-1.42526 3.4122,-0.47194 6.82441,-0.94074 10.23662,-1.40651 3.4122,-0.46577 6.82441,-0.92848 10.23662,-1.38824 3.4122,-0.45976 6.82441,-0.91654 10.23662,-1.37045 3.4122,-0.4539 6.82441,-0.9049 10.23662,-1.35309 3.4122,-0.44819 6.82441,-0.89356 10.23662,-1.33618 3.4122,-0.44263 6.82441,-0.88249 10.23662,-1.31969 3.4122,-0.43719 6.82441,-0.87169 10.23662,-1.30358 3.4122,-0.4319 6.82441,-0.86117 10.23662,-1.28789 3.4122,-0.42672 6.82441,-0.85087 10.23662,-1.27255 3.4122,-0.42167 6.82441,-0.84083 10.23662,-1.25757 3.4122,-0.41674 6.82441,-0.83104 10.23662,-1.24296 3.4122,-0.41192 6.82441,-0.82145 10.23662,-1.22866 3.4122,-0.40722 6.82441,-0.81209 10.23662,-1.21471 3.4122,-0.40261 6.82441,-0.80294 10.23662,-1.20105 3.4122,-0.39811 6.82441,-0.79399 10.23662,-1.18771 3.4122,-0.39371 6.82441,-0.78524 10.23662,-1.17465 3.41221,-0.38941 6.82441,-0.77669 10.23662,-1.16189 3.41221,-0.3852 6.82441,-0.76831 10.23662,-1.1494 3.41221,-0.38108 6.82441,-0.76011 10.23662,-1.13716 3.41221,-0.37705 6.82441,-0.7521 10.23662,-1.1252 3.41221,-0.3731 6.82441,-0.74424 10.23662,-1.11347 3.41221,-0.36923 6.82441,-0.73655 10.23662,-1.10199 3.41221,-0.36545 6.82441,-0.72902 10.23662,-1.09075 3.41221,-0.36174 6.82441,-0.72163 10.23662,-1.07973" title="0.25*log(x/4)" id="path5657" />
    </g>
  </g>
</svg>