<?xml version='1.0' ?><svg xmlns:ns0="http://www.iki.fi/pav/software/textext/" xmlns:dc="http://purl.org/dc/elements/1.1/" xmlns:cc="http://creativecommons.org/ns#" xmlns:rdf="http://www.w3.org/1999/02/22-rdf-syntax-ns#" xmlns:svg="http://www.w3.org/2000/svg" xmlns="http://www.w3.org/2000/svg" xml:space="preserve" version="1.1" id="svg2" width="392.5182" height="131.19668" viewBox="6.61287691467315 923.515442985444 367.98584581558794 122.99689863552067" preserveAspectRatio="none"><metadata id="metadata8"><rdf:RDF><cc:Work rdf:about=""><dc:format>image/svg+xml</dc:format><dc:type rdf:resource="http://purl.org/dc/dcmitype/StillImage" /><dc:title /></cc:Work></rdf:RDF></metadata><defs id="defs6"><clipPath clipPathUnits="userSpaceOnUse" id="clipPath46"><path d="M 112.98872,0.29889 0.3985,84.74152 C 0.17842,84.9066 0,84.8174 0,84.54228 L 0,0.49814 C 0,0.22302 0.22302,0 0.49814,0 L 112.8891,0 c 0.2751,0 0.3197,0.13382 0.0996,0.29889 z" id="path48" /></clipPath></defs><g id="g10" transform="matrix(1.25,0,0,-1.25,0,1052.3622)"><g transform="translate(15.115,17.755)" id="g18" /><g transform="translate(15.115,17.755)" id="g20" /><g transform="translate(15.115,17.755)" id="g22" /><g transform="translate(15.115,17.755)" id="g24" /><g transform="translate(15.115,17.755)" id="g26" /><g transform="translate(15.115,17.755)" id="g28" /><g transform="translate(15.115,17.755)" id="g30" /><g transform="translate(15.115,17.755)" id="g32" /><g transform="translate(15.115,17.755)" id="g34" /><g transform="translate(15.115,17.755)" id="g36" /><g transform="translate(15.115,17.755)" id="g38" /><g transform="translate(15.115,17.755)" id="g40" /><g transform="translate(15.115,17.755)" id="g42"><g clip-path="url(#clipPath46)" id="g44"><g id="g50" /><g id="g52" /><g id="g54" /></g></g><g transform="translate(15.115,17.755)" id="g56"><path id="path58" style="fill:#3ab0fb;fill-opacity:1;fill-rule:nonzero;stroke:#000000;stroke-width:0.99628001;stroke-linecap:butt;stroke-linejoin:miter;stroke-miterlimit:10;stroke-dasharray:none;stroke-opacity:1" d="M 0,84.54228 0,0.49814 C 0,0.22302 0.13446,0.17928 0.30031,0.4004 l 40.21884,53.62499 c 0.16585,0.22115 0.12103,0.53488 -0.10011,0.70071 L 0.4004,84.74013 C 0.17928,84.90596 0,84.8174 0,84.54228 Z" /></g><g transform="translate(15.115,17.755)" id="g60"><path id="path62" style="fill:#bcf3b4;fill-opacity:1;fill-rule:nonzero;stroke:#000000;stroke-width:0.99628001;stroke-linecap:butt;stroke-linejoin:miter;stroke-miterlimit:10;stroke-dasharray:none;stroke-opacity:1" d="M 0.49814,0 112.8891,0 c 0.2751,0 0.31886,0.13446 0.0977,0.30031 L 41.21988,54.1255 C 40.99873,54.29135 40.685,54.24654 40.51915,54.02539 L 0.30031,0.4004 C 0.13446,0.17928 0.22302,0 0.49814,0 Z" /></g><g transform="translate(15.115,17.755)" id="g64"><path id="path66" style="fill:none;stroke:#000000;stroke-width:0.99628001;stroke-linecap:butt;stroke-linejoin:miter;stroke-miterlimit:10;stroke-dasharray:none;stroke-opacity:1" d="M 112.98872,0.29889 0.3985,84.74152 C 0.17842,84.9066 0,84.8174 0,84.54228 L 0,0.49814 C 0,0.22302 0.22302,0 0.49814,0 L 112.8891,0 c 0.2751,0 0.3197,0.13382 0.0996,0.29889 z" /></g><g transform="translate(15.115,17.755)" id="g68" /><g transform="translate(15.115,17.755)" id="g70" /><g transform="translate(15.115,17.755)" id="g72" /><path id="path74" style="fill:none;stroke:#000000;stroke-width:0.3985;stroke-linecap:butt;stroke-linejoin:miter;stroke-miterlimit:10;stroke-dasharray:none;stroke-opacity:1" d="m 55.63417,71.78039 -3.14086,-4.18803 c -0.16583,-0.22115 -0.12101,-0.53489 0.10013,-0.70073 l 4.18803,-3.14084 c 0.22115,-0.16585 0.53488,-0.12103 0.70072,0.10011 l 3.14085,4.18804 c 0.16583,0.22114 0.12102,0.53488 -0.10011,0.70072 l -4.18805,3.14086 C 56.11373,72.04635 55.8,72.00154 55.63417,71.78039 Z" /><g transform="translate(15.115,17.755)" id="g76"><g id="g78"><g id="g80"><g id="g82" /></g></g></g><g transform="translate(15.115,17.755)" id="g84"><path id="path86" style="fill:none;stroke:#000000;stroke-width:0.3985;stroke-linecap:butt;stroke-linejoin:miter;stroke-miterlimit:10;stroke-dasharray:none;stroke-opacity:1" d="M 102.04892,8.50389 C 100.20932,6.05115 99.21384,3.06604 99.21384,0" /></g><g transform="translate(15.115,17.755)" id="g88"><g id="g90"><g id="g92" /><g transform="translate(86.495,8.963)" id="g94"><g id="g96" /><g transform="translate(-86.495,-8.963)" id="g98" /></g></g></g><g transform="translate(15.115,17.755)" id="g100"><g id="g102"><g id="g104"><g id="g106" /></g></g></g><g transform="translate(15.115,17.755)" id="g108"><path id="path110" style="fill:none;stroke:#000000;stroke-width:0.3985;stroke-linecap:butt;stroke-linejoin:miter;stroke-miterlimit:10;stroke-dasharray:none;stroke-opacity:1" d="M 8.50389,11.33832 C 6.05115,13.1779 3.06604,14.17339 0,14.17339" /></g><g transform="translate(15.115,17.755)" id="g112"><g id="g114"><g id="g116" /><g transform="translate(8.963,26.89)" id="g118"><g id="g120" /><g transform="translate(-8.963,-26.89)" id="g122" /></g></g></g><g transform="translate(15.115,17.755)" id="g124"><g id="g126"><g id="g128"><g id="g130" /></g></g></g><g transform="translate(15.115,17.755)" id="g132"><path id="path134" style="fill:none;stroke:#000000;stroke-width:0.3985;stroke-linecap:butt;stroke-linejoin:miter;stroke-miterlimit:10;stroke-dasharray:none;stroke-opacity:1" d="m 12.67897,0 c 0,3.99022 -1.87964,7.74873 -5.07172,10.14282" /><path id="path136" style="fill:none;stroke:#000000;stroke-width:0.3985;stroke-linecap:butt;stroke-linejoin:miter;stroke-miterlimit:10;stroke-dasharray:none;stroke-opacity:1" d="m 15.6678,0 c 0,4.93085 -2.32274,9.57535 -6.26727,12.53381" /></g><g transform="translate(15.115,17.755)" id="g138"><g id="g140"><g id="g142" /><g transform="translate(25.352,12.676)" id="g144"><g id="g146" /><g transform="translate(-25.352,-12.676)" id="g148" /></g></g></g><g transform="translate(15.115,17.755)" id="g150"><g id="g152"><g id="g154"><g id="g156" /></g></g></g><g transform="translate(15.115,17.755)" id="g158"><path id="path160" style="fill:none;stroke:#000000;stroke-width:0.3985;stroke-linecap:butt;stroke-linejoin:miter;stroke-miterlimit:10;stroke-dasharray:none;stroke-opacity:1" d="m 0,72.36143 c 3.99022,0 7.74873,1.87966 10.14282,5.07172" /><path id="path162" style="fill:none;stroke:#000000;stroke-width:0.3985;stroke-linecap:butt;stroke-linejoin:miter;stroke-miterlimit:10;stroke-dasharray:none;stroke-opacity:1" d="m 0,69.3726 c 4.93085,0 9.57535,2.32274 12.53381,6.26728" /></g><g transform="translate(15.115,17.755)" id="g164"><g id="g166"><g id="g168" /><g transform="translate(12.676,59.687)" id="g170"><g id="g172" /><g transform="translate(-12.676,-59.687)" id="g174" /></g></g></g><g transform="translate(15.115,17.755)" id="g224"><path id="path226" style="fill:#d7191c;fill-opacity:1;fill-rule:nonzero;stroke:#000000;stroke-width:0.99628001;stroke-linecap:butt;stroke-linejoin:miter;stroke-miterlimit:10;stroke-dasharray:none;stroke-opacity:1" d="M 283.06958,0.29889 170.47935,84.74152 c -0.22007,0.16508 -0.39849,0.07588 -0.39849,-0.19924 l 0,-84.04414 C 170.08086,0.22302 170.30388,0 170.579,0 l 112.39096,0 c 0.2751,0 0.31971,0.13382 0.0996,0.29889 z" /></g><g transform="translate(15.115,17.755)" id="g276" /><g transform="translate(15.115,17.755)" id="g278" /><g transform="translate(15.115,17.755)" id="g280" /><path id="path282" style="fill:none;stroke:#000000;stroke-width:0.3985;stroke-linecap:butt;stroke-linejoin:miter;stroke-miterlimit:10;stroke-dasharray:none;stroke-opacity:1" d="m 185.694,17.755 5.24003,0 c 0.27512,0 0.49814,0.22302 0.49814,0.49814 l 0,5.24003 c 0,0.27512 -0.22302,0.49814 -0.49814,0.49814 l -5.24003,0 c -0.27512,0 -0.49814,-0.22302 -0.49814,-0.49814 l 0,-5.24003 c 0,-0.27512 0.22302,-0.49814 0.49814,-0.49814 z" /><g transform="translate(15.115,17.755)" id="g284"><g id="g286"><g id="g288"><g id="g290" /></g></g></g><g transform="translate(15.115,17.755)" id="g292"><path id="path294" style="fill:none;stroke:#000000;stroke-width:0.3985;stroke-linecap:butt;stroke-linejoin:miter;stroke-miterlimit:10;stroke-dasharray:none;stroke-opacity:1" d="M 272.12978,8.50389 C 270.29018,6.05115 269.2947,3.06604 269.2947,0" /></g><g transform="translate(15.115,17.755)" id="g296"><g id="g298"><g id="g300" /><g transform="translate(256.574,8.963)" id="g302"><g id="g304" /><g transform="translate(-256.574,-8.963)" id="g306" /></g></g></g><g transform="translate(15.115,17.755)" id="g308"><g id="g310"><g id="g312"><g id="g314" /></g></g></g><g transform="translate(15.115,17.755)" id="g316"><path id="path318" style="fill:none;stroke:#000000;stroke-width:0.3985;stroke-linecap:butt;stroke-linejoin:miter;stroke-miterlimit:10;stroke-dasharray:none;stroke-opacity:1" d="m 170.08086,72.36143 c 3.99022,0 7.74873,1.87966 10.14284,5.07172" /><path id="path320" style="fill:none;stroke:#000000;stroke-width:0.3985;stroke-linecap:butt;stroke-linejoin:miter;stroke-miterlimit:10;stroke-dasharray:none;stroke-opacity:1" d="m 170.08086,69.3726 c 4.93084,0 9.57536,2.32274 12.53381,6.26728" /></g><g transform="translate(15.115,17.755)" id="g322"><g id="g324"><g id="g326" /><g transform="translate(182.755,59.687)" id="g328"><g id="g330" /><g transform="translate(-182.755,-59.687)" id="g332" /></g></g></g><g style="font-style:normal;font-variant:normal;font-weight:normal;font-stretch:normal;letter-spacing:normal;word-spacing:normal;text-anchor:start;fill:none;fill-opacity:1;fill-rule:evenodd;stroke:#000000;stroke-linecap:butt;stroke-linejoin:miter;stroke-miterlimit:10.43299961;stroke-dasharray:none;stroke-dashoffset:0;stroke-opacity:1" id="content" transform="matrix(1.2,0,0,1.2,-263.30566,-518.19411)" xml:space="preserve" stroke-miterlimit="10.433" font-style="normal" font-variant="normal" font-weight="normal" font-stretch="normal" font-size-adjust="none" letter-spacing="normal" word-spacing="normal" ns0:text="$6$" ns0:preamble="/Users/prmb/CMEP/underground-inkscape-preamble.tex"><path style="fill:#000000;stroke-width:0" d="m 228.7,485.31 -0.15,-0.02 -0.15,-0.01 -0.14,-0.02 -0.14,-0.02 -0.14,-0.02 -0.13,-0.03 -0.13,-0.02 -0.13,-0.02 -0.12,-0.03 -0.12,-0.03 -0.12,-0.03 -0.11,-0.03 -0.12,-0.03 -0.11,-0.04 -0.1,-0.04 -0.11,-0.04 -0.11,-0.04 -0.1,-0.05 -0.1,-0.05 -0.1,-0.05 -0.1,-0.06 -0.1,-0.05 -0.1,-0.07 -0.09,-0.06 -0.1,-0.07 -0.09,-0.07 -0.1,-0.08 -0.09,-0.08 -0.1,-0.08 -0.09,-0.09 -0.09,-0.1 -0.1,-0.09 c -0.84,-0.87 -1.29,-1.99 -1.29,-3.26 0,-0.83 0.23,-1.67 0.56,-2.27 0.41,-0.75 1.15,-1.19 2.09,-1.19 l 0.13,0.33 c -1.11,0 -1.68,1.18 -1.68,2.98 0,1.08 0.7,1.36 1.37,1.36 1.1,0 1.6,-0.77 1.6,-2.29 l 0,0 c 0,-1.2 -0.44,-2.05 -1.29,-2.05 l -0.13,-0.33 c 0.78,0 1.44,0.32 1.87,0.86 0.39,0.47 0.61,1.14 0.61,1.89 0,1.52 -0.85,2.47 -2.23,2.47 -0.52,0 -0.93,-0.09 -1.5,-0.53 0.31,1.78 1.64,3.05 3.49,3.36 z" id="path4627" /></g><g style="font-style:normal;font-variant:normal;font-weight:normal;font-stretch:normal;letter-spacing:normal;word-spacing:normal;text-anchor:start;fill:none;fill-opacity:1;fill-rule:evenodd;stroke:#000000;stroke-linecap:butt;stroke-linejoin:miter;stroke-miterlimit:10.43299961;stroke-dasharray:none;stroke-dashoffset:0;stroke-opacity:1" ns0:preamble="/Users/prmb/CMEP/underground-inkscape-preamble.tex" ns0:text="$8$" word-spacing="normal" letter-spacing="normal" font-size-adjust="none" font-stretch="normal" font-weight="normal" font-variant="normal" font-style="normal" stroke-miterlimit="10.433" xml:space="preserve" transform="matrix(1.2,0,0,1.2,-200.93886,-567.52057)" id="g4963"><path style="fill:#000000;stroke-width:0" id="path4965" d="m 228.69,479.07 -0.01,0.08 0,0.09 0,0.08 -0.01,0.09 -0.01,0.08 -0.02,0.08 -0.02,0.08 -0.02,0.08 -0.02,0.07 -0.03,0.08 -0.03,0.08 -0.03,0.07 -0.04,0.08 -0.04,0.07 -0.04,0.08 -0.05,0.07 -0.06,0.08 -0.06,0.07 -0.06,0.08 -0.07,0.07 -0.07,0.08 -0.08,0.07 -0.08,0.08 -0.09,0.08 -0.09,0.08 -0.1,0.08 -0.1,0.08 -0.11,0.09 -0.11,0.08 -0.12,0.09 -0.13,0.09 -0.13,0.08 c 1.16,0.63 1.58,1.03 1.58,1.92 0,0.92 -0.82,1.69 -1.99,1.69 l -0.11,-0.33 c 0.8,0 1.28,-0.55 1.28,-1.36 l 0,0 c 0,-0.73 -0.3,-1.23 -1.11,-1.7 -1.04,0.61 -1.47,1.15 -1.47,1.89 0,0.73 0.5,1.17 1.3,1.17 l 0.11,0.33 c -1.31,0 -2.29,-0.71 -2.29,-1.85 0,-0.76 0.25,-1.21 1.47,-2.22 -1.26,-0.88 -1.54,-1.34 -1.54,-2.16 0,-1.11 0.94,-1.92 2.27,-1.92 l 0.13,0.33 c -0.9,0 -1.5,0.61 -1.5,1.7 0,0.77 0.25,1.25 0.94,1.82 l 0.7,-0.47 c 0.8,-0.55 1.16,-1.02 1.16,-1.75 0,-0.77 -0.53,-1.3 -1.3,-1.3 l -0.13,-0.33 c 1.42,0 2.33,0.78 2.33,2 z" /></g><g style="font-style:normal;font-variant:normal;font-weight:normal;font-stretch:normal;letter-spacing:normal;word-spacing:normal;text-anchor:start;fill:none;fill-opacity:1;fill-rule:evenodd;stroke:#000000;stroke-linecap:butt;stroke-linejoin:miter;stroke-miterlimit:10.43299961;stroke-dasharray:none;stroke-dashoffset:0;stroke-opacity:1" id="g5305" transform="matrix(1.2,0,0,1.2,-194.13521,-507.70515)" xml:space="preserve" stroke-miterlimit="10.433" font-style="normal" font-variant="normal" font-weight="normal" font-stretch="normal" font-size-adjust="none" letter-spacing="normal" word-spacing="normal" ns0:text="$10$" ns0:preamble="/Users/prmb/CMEP/underground-inkscape-preamble.tex"><path style="fill:#000000;stroke-width:0" d="m 228.08,477.23 0,0.18 c -0.88,0 -1.12,0.21 -1.12,0.72 l 0,7.05 -0.1,0.04 -2.12,-1.08 0,-0.16 0.32,0.11 c 0.21,0.09 0.41,0.15 0.53,0.15 0.25,0 0.36,-0.18 0.36,-0.58 l 0,-5.3 c 0,-0.65 -0.25,-0.9 -1.13,-0.95 l 0,-0.18 z" id="path5307" /><path style="fill:#000000;stroke-width:0" d="m 234.98,481.13 -0.01,0.23 -0.01,0.22 -0.01,0.21 -0.02,0.21 -0.03,0.21 -0.03,0.2 -0.04,0.19 -0.05,0.19 -0.05,0.18 -0.05,0.18 -0.06,0.17 -0.07,0.17 -0.07,0.16 -0.07,0.15 -0.08,0.14 -0.08,0.14 -0.09,0.13 -0.1,0.13 -0.09,0.11 -0.11,0.11 -0.1,0.1 -0.11,0.1 -0.12,0.08 -0.11,0.08 -0.12,0.07 -0.13,0.06 -0.13,0.05 -0.13,0.04 -0.13,0.03 -0.14,0.03 -0.14,0.01 -0.15,0.01 c -1.9,0 -2.71,-1.93 -2.71,-4.02 0,-1.93 0.65,-4.13 2.67,-4.13 l 0,0.31 c -1.02,0 -1.54,1.34 -1.54,3.74 0,2.4 0.53,3.79 1.51,3.79 1.04,0 1.56,-1.38 1.56,-3.84 l 0,0 c 0,-2.34 -0.53,-3.69 -1.53,-3.69 l 0,-0.31 c 1.92,0 2.67,2.03 2.67,4.06 z" id="path5309" /></g><g ns0:preamble="/Users/prmb/CMEP/underground-inkscape-preamble.tex" ns0:text="$6$" word-spacing="normal" letter-spacing="normal" font-size-adjust="none" font-stretch="normal" font-weight="normal" font-variant="normal" font-style="normal" stroke-miterlimit="10.433" xml:space="preserve" transform="matrix(1.2,0,0,1.2,-92.930924,-518.4776)" id="g5953" style="font-style:normal;font-variant:normal;font-weight:normal;font-stretch:normal;letter-spacing:normal;word-spacing:normal;text-anchor:start;fill:none;fill-opacity:1;fill-rule:evenodd;stroke:#000000;stroke-linecap:butt;stroke-linejoin:miter;stroke-miterlimit:10.43299961;stroke-dasharray:none;stroke-dashoffset:0;stroke-opacity:1"><path id="path5955" d="m 228.7,485.31 -0.15,-0.02 -0.15,-0.01 -0.14,-0.02 -0.14,-0.02 -0.14,-0.02 -0.13,-0.03 -0.13,-0.02 -0.13,-0.02 -0.12,-0.03 -0.12,-0.03 -0.12,-0.03 -0.11,-0.03 -0.12,-0.03 -0.11,-0.04 -0.1,-0.04 -0.11,-0.04 -0.11,-0.04 -0.1,-0.05 -0.1,-0.05 -0.1,-0.05 -0.1,-0.06 -0.1,-0.05 -0.1,-0.07 -0.09,-0.06 -0.1,-0.07 -0.09,-0.07 -0.1,-0.08 -0.09,-0.08 -0.1,-0.08 -0.09,-0.09 -0.09,-0.1 -0.1,-0.09 c -0.84,-0.87 -1.29,-1.99 -1.29,-3.26 0,-0.83 0.23,-1.67 0.56,-2.27 0.41,-0.75 1.15,-1.19 2.09,-1.19 l 0.13,0.33 c -1.11,0 -1.68,1.18 -1.68,2.98 0,1.08 0.7,1.36 1.37,1.36 1.1,0 1.6,-0.77 1.6,-2.29 l 0,0 c 0,-1.2 -0.44,-2.05 -1.29,-2.05 l -0.13,-0.33 c 0.78,0 1.44,0.32 1.87,0.86 0.39,0.47 0.61,1.14 0.61,1.89 0,1.52 -0.85,2.47 -2.23,2.47 -0.52,0 -0.93,-0.09 -1.5,-0.53 0.31,1.78 1.64,3.05 3.49,3.36 z" style="fill:#000000;stroke-width:0" /></g><g id="g5957" transform="matrix(1.2,0,0,1.2,-30.564124,-567.80406)" xml:space="preserve" stroke-miterlimit="10.433" font-style="normal" font-variant="normal" font-weight="normal" font-stretch="normal" font-size-adjust="none" letter-spacing="normal" word-spacing="normal" ns0:text="$8$" ns0:preamble="/Users/prmb/CMEP/underground-inkscape-preamble.tex" style="font-style:normal;font-variant:normal;font-weight:normal;font-stretch:normal;letter-spacing:normal;word-spacing:normal;text-anchor:start;fill:none;fill-opacity:1;fill-rule:evenodd;stroke:#000000;stroke-linecap:butt;stroke-linejoin:miter;stroke-miterlimit:10.43299961;stroke-dasharray:none;stroke-dashoffset:0;stroke-opacity:1"><path d="m 228.69,479.07 -0.01,0.08 0,0.09 0,0.08 -0.01,0.09 -0.01,0.08 -0.02,0.08 -0.02,0.08 -0.02,0.08 -0.02,0.07 -0.03,0.08 -0.03,0.08 -0.03,0.07 -0.04,0.08 -0.04,0.07 -0.04,0.08 -0.05,0.07 -0.06,0.08 -0.06,0.07 -0.06,0.08 -0.07,0.07 -0.07,0.08 -0.08,0.07 -0.08,0.08 -0.09,0.08 -0.09,0.08 -0.1,0.08 -0.1,0.08 -0.11,0.09 -0.11,0.08 -0.12,0.09 -0.13,0.09 -0.13,0.08 c 1.16,0.63 1.58,1.03 1.58,1.92 0,0.92 -0.82,1.69 -1.99,1.69 l -0.11,-0.33 c 0.8,0 1.28,-0.55 1.28,-1.36 l 0,0 c 0,-0.73 -0.3,-1.23 -1.11,-1.7 -1.04,0.61 -1.47,1.15 -1.47,1.89 0,0.73 0.5,1.17 1.3,1.17 l 0.11,0.33 c -1.31,0 -2.29,-0.71 -2.29,-1.85 0,-0.76 0.25,-1.21 1.47,-2.22 -1.26,-0.88 -1.54,-1.34 -1.54,-2.16 0,-1.11 0.94,-1.92 2.27,-1.92 l 0.13,0.33 c -0.9,0 -1.5,0.61 -1.5,1.7 0,0.77 0.25,1.25 0.94,1.82 l 0.7,-0.47 c 0.8,-0.55 1.16,-1.02 1.16,-1.75 0,-0.77 -0.53,-1.3 -1.3,-1.3 l -0.13,-0.33 c 1.42,0 2.33,0.78 2.33,2 z" id="path5959" style="fill:#000000;stroke-width:0" /></g><g ns0:preamble="/Users/prmb/CMEP/underground-inkscape-preamble.tex" ns0:text="$10$" word-spacing="normal" letter-spacing="normal" font-size-adjust="none" font-stretch="normal" font-weight="normal" font-variant="normal" font-style="normal" stroke-miterlimit="10.433" xml:space="preserve" transform="matrix(1.2,0,0,1.2,-23.760474,-507.98864)" id="g5961" style="font-style:normal;font-variant:normal;font-weight:normal;font-stretch:normal;letter-spacing:normal;word-spacing:normal;text-anchor:start;fill:none;fill-opacity:1;fill-rule:evenodd;stroke:#000000;stroke-linecap:butt;stroke-linejoin:miter;stroke-miterlimit:10.43299961;stroke-dasharray:none;stroke-dashoffset:0;stroke-opacity:1"><path id="path5963" d="m 228.08,477.23 0,0.18 c -0.88,0 -1.12,0.21 -1.12,0.72 l 0,7.05 -0.1,0.04 -2.12,-1.08 0,-0.16 0.32,0.11 c 0.21,0.09 0.41,0.15 0.53,0.15 0.25,0 0.36,-0.18 0.36,-0.58 l 0,-5.3 c 0,-0.65 -0.25,-0.9 -1.13,-0.95 l 0,-0.18 z" style="fill:#000000;stroke-width:0" /><path id="path5965" d="m 234.98,481.13 -0.01,0.23 -0.01,0.22 -0.01,0.21 -0.02,0.21 -0.03,0.21 -0.03,0.2 -0.04,0.19 -0.05,0.19 -0.05,0.18 -0.05,0.18 -0.06,0.17 -0.07,0.17 -0.07,0.16 -0.07,0.15 -0.08,0.14 -0.08,0.14 -0.09,0.13 -0.1,0.13 -0.09,0.11 -0.11,0.11 -0.1,0.1 -0.11,0.1 -0.12,0.08 -0.11,0.08 -0.12,0.07 -0.13,0.06 -0.13,0.05 -0.13,0.04 -0.13,0.03 -0.14,0.03 -0.14,0.01 -0.15,0.01 c -1.9,0 -2.71,-1.93 -2.71,-4.02 0,-1.93 0.65,-4.13 2.67,-4.13 l 0,0.31 c -1.02,0 -1.54,1.34 -1.54,3.74 0,2.4 0.53,3.79 1.51,3.79 1.04,0 1.56,-1.38 1.56,-3.84 l 0,0 c 0,-2.34 -0.53,-3.69 -1.53,-3.69 l 0,-0.31 c 1.92,0 2.67,2.03 2.67,4.06 z" style="fill:#000000;stroke-width:0" /></g></g></svg>