<?xml version='1.0' ?><svg xmlns:ns0="http://www.iki.fi/pav/software/textext/" xmlns:dc="http://purl.org/dc/elements/1.1/" xmlns:cc="http://creativecommons.org/ns#" xmlns:rdf="http://www.w3.org/1999/02/22-rdf-syntax-ns#" xmlns:svg="http://www.w3.org/2000/svg" xmlns="http://www.w3.org/2000/svg" xml:space="preserve" version="1.1" id="svg2" width="228.18797" height="228.14005" viewBox="-4.2743331241621585e-4 838.4818556107716 213.92622091461294 213.88129591481461" preserveAspectRatio="none"><metadata id="metadata8"><rdf:RDF><cc:Work rdf:about=""><dc:format>image/svg+xml</dc:format><dc:type rdf:resource="http://purl.org/dc/dcmitype/StillImage" /><dc:title /></cc:Work></rdf:RDF></metadata><defs id="defs6" /><g id="g10" transform="matrix(1.25,0,0,-1.25,0,1052.3622)"><g id="g14" transform="translate(43.018,57.191)"><g id="g16"><g id="g18" /><g id="g20" /><g id="g22" /><g id="g24" /><g id="g26" /><g id="g28" /><g id="g30" /><g id="g32" /><g id="g34" /><g id="g36" /><g id="g38" /><g id="g40" /><path d="M 57.09402,42.22029 113.01297,0.33731 c 0.22115,-0.16563 0.5347,-0.12064 0.70033,0.10051 C 136.87628,31.36327 130.50227,75.7771 99.1764,99.23997 67.85054,122.70287 23.43672,116.32886 0.27373,85.40341 0.10811,85.18227 0.1531,84.86871 0.37425,84.7031 L 56.2932,42.8201 c 0.22113,-0.16562 0.5797,-0.43417 0.80082,-0.59981 z" style="fill:#d7191c;fill-opacity:1;fill-rule:nonzero;stroke:#000000;stroke-width:0.99628001;stroke-linecap:butt;stroke-linejoin:miter;stroke-miterlimit:10;stroke-dasharray:none;stroke-opacity:1" id="path44" /><g ns0:preamble="/Users/prmb/CMEP/underground-inkscape-preamble.tex" ns0:text="$6$" word-spacing="normal" letter-spacing="normal" font-size-adjust="none" font-stretch="normal" font-weight="normal" font-variant="normal" font-style="normal" stroke-miterlimit="10.433" xml:space="preserve" transform="matrix(1.1999998,0,0,1.1999997,-264.25876,-536.90835)" id="content" style="font-style:normal;font-variant:normal;font-weight:normal;font-stretch:normal;letter-spacing:normal;word-spacing:normal;text-anchor:start;fill:none;fill-opacity:1;fill-rule:evenodd;stroke:#000000;stroke-width:1.25000036;stroke-linecap:butt;stroke-linejoin:miter;stroke-miterlimit:10.43299961;stroke-dasharray:none;stroke-dashoffset:0;stroke-opacity:1"><path id="path4300" d="m 228.7,485.31 -0.15,-0.02 -0.15,-0.01 -0.14,-0.02 -0.14,-0.02 -0.14,-0.02 -0.13,-0.03 -0.13,-0.02 -0.13,-0.02 -0.12,-0.03 -0.12,-0.03 -0.12,-0.03 -0.11,-0.03 -0.12,-0.03 -0.11,-0.04 -0.1,-0.04 -0.11,-0.04 -0.11,-0.04 -0.1,-0.05 -0.1,-0.05 -0.1,-0.05 -0.1,-0.06 -0.1,-0.05 -0.1,-0.07 -0.09,-0.06 -0.1,-0.07 -0.09,-0.07 -0.1,-0.08 -0.09,-0.08 -0.1,-0.08 -0.09,-0.09 -0.09,-0.1 -0.1,-0.09 c -0.84,-0.87 -1.29,-1.99 -1.29,-3.26 0,-0.83 0.23,-1.67 0.56,-2.27 0.41,-0.75 1.15,-1.19 2.09,-1.19 l 0.13,0.33 c -1.11,0 -1.68,1.18 -1.68,2.98 0,1.08 0.7,1.36 1.37,1.36 1.1,0 1.6,-0.77 1.6,-2.29 l 0,0 c 0,-1.2 -0.44,-2.05 -1.29,-2.05 l -0.13,-0.33 c 0.78,0 1.44,0.32 1.87,0.86 0.39,0.47 0.61,1.14 0.61,1.89 0,1.52 -0.85,2.47 -2.23,2.47 -0.52,0 -0.93,-0.09 -1.5,-0.53 0.31,1.78 1.64,3.05 3.49,3.36 z" style="fill:#000000;stroke-width:0" /></g><g id="g4406" transform="matrix(1.1999997,0,0,1.1999996,-231.78175,-540.07722)" xml:space="preserve" stroke-miterlimit="10.433" font-style="normal" font-variant="normal" font-weight="normal" font-stretch="normal" font-size-adjust="none" letter-spacing="normal" word-spacing="normal" ns0:text="$10$" ns0:preamble="/Users/prmb/CMEP/underground-inkscape-preamble.tex" style="font-style:normal;font-variant:normal;font-weight:normal;font-stretch:normal;letter-spacing:normal;word-spacing:normal;text-anchor:start;fill:none;fill-opacity:1;fill-rule:evenodd;stroke:#000000;stroke-width:1.25000036;stroke-linecap:butt;stroke-linejoin:miter;stroke-miterlimit:10.43299961;stroke-dasharray:none;stroke-dashoffset:0;stroke-opacity:1"><path d="m 228.08,477.23 0,0.18 c -0.88,0 -1.12,0.21 -1.12,0.72 l 0,7.05 -0.1,0.04 -2.12,-1.08 0,-0.16 0.32,0.11 c 0.21,0.09 0.41,0.15 0.53,0.15 0.25,0 0.36,-0.18 0.36,-0.58 l 0,-5.3 c 0,-0.65 -0.25,-0.9 -1.13,-0.95 l 0,-0.18 z" id="path4408" style="fill:#000000;stroke-width:0" /><path d="m 234.98,481.13 -0.01,0.23 -0.01,0.22 -0.01,0.21 -0.02,0.21 -0.03,0.21 -0.03,0.2 -0.04,0.19 -0.05,0.19 -0.05,0.18 -0.05,0.18 -0.06,0.17 -0.07,0.17 -0.07,0.16 -0.07,0.15 -0.08,0.14 -0.08,0.14 -0.09,0.13 -0.1,0.13 -0.09,0.11 -0.11,0.11 -0.1,0.1 -0.11,0.1 -0.12,0.08 -0.11,0.08 -0.12,0.07 -0.13,0.06 -0.13,0.05 -0.13,0.04 -0.13,0.03 -0.14,0.03 -0.14,0.01 -0.15,0.01 c -1.9,0 -2.71,-1.93 -2.71,-4.02 0,-1.93 0.65,-4.13 2.67,-4.13 l 0,0.31 c -1.02,0 -1.54,1.34 -1.54,3.74 0,2.4 0.53,3.79 1.51,3.79 1.04,0 1.56,-1.38 1.56,-3.84 l 0,0 c 0,-2.34 -0.53,-3.69 -1.53,-3.69 l 0,-0.31 c 1.92,0 2.67,2.03 2.67,4.06 z" id="path4410" style="fill:#000000;stroke-width:0" /></g><g ns0:preamble="/Users/prmb/CMEP/underground-inkscape-preamble.tex" ns0:text="$8$" word-spacing="normal" letter-spacing="normal" font-size-adjust="none" font-stretch="normal" font-weight="normal" font-variant="normal" font-style="normal" stroke-miterlimit="10.433" xml:space="preserve" transform="matrix(1.1999998,0,0,1.1999997,-217.02016,-567.66208)" id="g4522" style="font-style:normal;font-variant:normal;font-weight:normal;font-stretch:normal;letter-spacing:normal;word-spacing:normal;text-anchor:start;fill:none;fill-opacity:1;fill-rule:evenodd;stroke:#000000;stroke-width:1.25000036;stroke-linecap:butt;stroke-linejoin:miter;stroke-miterlimit:10.43299961;stroke-dasharray:none;stroke-dashoffset:0;stroke-opacity:1"><path id="path4524" d="m 228.69,479.07 -0.01,0.08 0,0.09 0,0.08 -0.01,0.09 -0.01,0.08 -0.02,0.08 -0.02,0.08 -0.02,0.08 -0.02,0.07 -0.03,0.08 -0.03,0.08 -0.03,0.07 -0.04,0.08 -0.04,0.07 -0.04,0.08 -0.05,0.07 -0.06,0.08 -0.06,0.07 -0.06,0.08 -0.07,0.07 -0.07,0.08 -0.08,0.07 -0.08,0.08 -0.09,0.08 -0.09,0.08 -0.1,0.08 -0.1,0.08 -0.11,0.09 -0.11,0.08 -0.12,0.09 -0.13,0.09 -0.13,0.08 c 1.16,0.63 1.58,1.03 1.58,1.92 0,0.92 -0.82,1.69 -1.99,1.69 l -0.11,-0.33 c 0.8,0 1.28,-0.55 1.28,-1.36 l 0,0 c 0,-0.73 -0.3,-1.23 -1.11,-1.7 -1.04,0.61 -1.47,1.15 -1.47,1.89 0,0.73 0.5,1.17 1.3,1.17 l 0.11,0.33 c -1.31,0 -2.29,-0.71 -2.29,-1.85 0,-0.76 0.25,-1.21 1.47,-2.22 -1.26,-0.88 -1.54,-1.34 -1.54,-2.16 0,-1.11 0.94,-1.92 2.27,-1.92 l 0.13,0.33 c -0.9,0 -1.5,0.61 -1.5,1.7 0,0.77 0.25,1.25 0.94,1.82 l 0.7,-0.47 c 0.8,-0.55 1.16,-1.02 1.16,-1.75 0,-0.77 -0.53,-1.3 -1.3,-1.3 l -0.13,-0.33 c 1.42,0 2.33,0.78 2.33,2 z" style="fill:#000000;stroke-width:0" /></g><g id="g46"><path id="path48" style="fill:#3ab0fb;fill-opacity:1;fill-rule:nonzero;stroke:#000000;stroke-width:0.99628001;stroke-linecap:butt;stroke-linejoin:miter;stroke-miterlimit:10;stroke-dasharray:none;stroke-opacity:1" d="m 0,43.01836 0,41.52392 c 0,0.27512 -0.22302,0.49814 -0.49814,0.49814 -22.98541,0 -42.02206,-19.03665 -42.02206,-42.5202 C -42.5202,19.03665 -23.48355,0 -0.49814,0 -0.22302,0 0,0.22304 0,0.49814 l 0,41.52394 c 0,0.2751 0,0.72116 0,0.99628 z" /></g><g id="g50"><path id="path52" style="fill:#bcf3b4;fill-opacity:1;fill-rule:nonzero;stroke:#000000;stroke-width:0.99628001;stroke-linecap:butt;stroke-linejoin:miter;stroke-miterlimit:10;stroke-dasharray:none;stroke-opacity:1" d="M 56.19548,0 0.49814,0 C 0.22302,0 0,-0.22302 0,-0.49814 c 0,-30.81328 25.38219,-56.19548 56.69362,-56.19548 31.31142,0 56.69362,25.3822 56.69362,56.19548 C 113.38724,-0.22302 113.1642,0 112.8891,0 L 57.19176,0 c -0.27512,0 -0.72118,0 -0.99628,0 z" /></g></g></g></g></svg>