<?xml version='1.0' ?><svg xmlns:ns0="http://www.iki.fi/pav/software/textext/" xmlns:dc="http://purl.org/dc/elements/1.1/" xmlns:cc="http://creativecommons.org/ns#" xmlns:rdf="http://www.w3.org/1999/02/22-rdf-syntax-ns#" xmlns:svg="http://www.w3.org/2000/svg" xmlns="http://www.w3.org/2000/svg" xml:space="preserve" version="1.1" id="svg2" width="605.29393" height="119.95539" viewBox="0.36444193349643694 934.3452895554084 567.4630568274666 112.45817762013723" preserveAspectRatio="none"><metadata id="metadata8"><rdf:RDF><cc:Work rdf:about=""><dc:format>image/svg+xml</dc:format><dc:type rdf:resource="http://purl.org/dc/dcmitype/StillImage" /><dc:title /></cc:Work></rdf:RDF></metadata><defs id="defs6" /><g transform="matrix(1.25,0,0,-1.25,0,1052.3622)" id="g10"><g transform="translate(0.498,17.866)" id="g18" /><g transform="translate(0.498,17.866)" id="g20" /><g transform="translate(0.498,17.866)" id="g22" /><g transform="translate(0.498,17.866)" id="g24" /><g transform="translate(0.498,17.866)" id="g26" /><g transform="translate(0.498,17.866)" id="g28" /><g transform="translate(0.498,17.866)" id="g30" /><g transform="translate(0.498,17.866)" id="g32" /><g transform="translate(0.498,17.866)" id="g34"><path d="m 0.49814,56.69362 27.35052,0 c 0.27512,0 0.28829,0.07637 0.02945,0.17058 l -4.39001,1.59785 c -0.25885,0.09421 -0.69101,0.15185 -0.96524,0.12877 L 0.49654,56.73543 C 0.2223,56.71234 0.22302,56.69362 0.49814,56.69362 Z" style="fill:#ffffff;fill-opacity:1;fill-rule:nonzero;stroke:#000000;stroke-width:0.99628001;stroke-linecap:butt;stroke-linejoin:miter;stroke-miterlimit:10;stroke-dasharray:none;stroke-opacity:1" id="path36" /></g><g transform="translate(0.498,17.866)" id="g54" /><g transform="translate(0.498,17.866)" id="g56" /><g transform="translate(0.498,17.866)" id="g58" /><g transform="translate(0.498,17.866)" id="g60" /><g transform="translate(0.498,17.866)" id="g62" /><g transform="translate(0.498,17.866)" id="g64" /><g transform="translate(0.498,17.866)" id="g66" /><g transform="translate(0.498,17.866)" id="g68" /><g transform="translate(0.498,17.866)" id="g70"><path d="m 113.88538,56.69362 282.47182,0 c 0.27511,0 0.28828,0.07637 0.0294,0.17058 l -52.33662,19.04919 c -0.25885,0.09421 -0.69101,0.15186 -0.96524,0.12877 L 113.88377,56.73543 c -0.27423,-0.02309 -0.27351,-0.04181 0.002,-0.04181 z" style="fill:#d7191c;fill-opacity:1;fill-rule:nonzero;stroke:#000000;stroke-width:0.99628001;stroke-linecap:butt;stroke-linejoin:miter;stroke-miterlimit:10;stroke-dasharray:none;stroke-opacity:1" id="path72" /></g><g transform="translate(0.498,17.866)" id="g90" /><g transform="translate(0.498,17.866)" id="g92" /><g transform="translate(0.498,17.866)" id="g94" /><g transform="translate(0.498,17.866)" id="g96" /><g transform="translate(0.498,17.866)" id="g98" /><g transform="translate(0.498,17.866)" id="g100" /><g transform="translate(0.498,17.866)" id="g102" /><g transform="translate(0.498,17.866)" id="g104" /><g transform="translate(0.498,17.866)" id="g106"><path d="m 0.49814,0 169.08458,0 c 0.2751,0 0.28828,0.07637 0.0294,0.17058 l -31.02701,11.29304 c -0.25883,0.09421 -0.69099,0.15186 -0.96522,0.12876 L 0.49654,0.04181 C 0.2223,0.01872 0.22302,0 0.49814,0 Z" style="fill:#3ab0fb;fill-opacity:1;fill-rule:nonzero;stroke:#000000;stroke-width:0.99628001;stroke-linecap:butt;stroke-linejoin:miter;stroke-miterlimit:10;stroke-dasharray:none;stroke-opacity:1" id="path108" /></g><g transform="translate(0.498,17.866)" id="g126" /><g transform="translate(0.498,17.866)" id="g128" /><g transform="translate(0.498,17.866)" id="g130" /><g transform="translate(0.498,17.866)" id="g132" /><g transform="translate(0.498,17.866)" id="g134" /><g transform="translate(0.498,17.866)" id="g136" /><g transform="translate(0.498,17.866)" id="g138" /><g transform="translate(0.498,17.866)" id="g140" /><g transform="translate(0.498,17.866)" id="g142"><path d="m 227.27261,0 225.7782,0 c 0.27512,0 0.28829,0.07637 0.0294,0.17058 L 411.39844,15.3417 c -0.25884,0.09421 -0.69101,0.15186 -0.96523,0.12877 L 227.27101,0.04181 C 226.99678,0.01872 226.9975,0 227.27261,0 Z" style="fill:#bcf3b4;fill-opacity:1;fill-rule:nonzero;stroke:#000000;stroke-width:0.99628001;stroke-linecap:butt;stroke-linejoin:miter;stroke-miterlimit:10;stroke-dasharray:none;stroke-opacity:1" id="path144" /></g><g style="font-style:normal;font-variant:normal;font-weight:normal;font-stretch:normal;letter-spacing:normal;word-spacing:normal;text-anchor:start;fill:none;fill-opacity:1;fill-rule:evenodd;stroke:#000000;stroke-linecap:butt;stroke-linejoin:miter;stroke-miterlimit:10.43299961;stroke-dasharray:none;stroke-dashoffset:0;stroke-opacity:1" ns0:preamble="/Users/prmb/CMEP/underground-inkscape-preamble.tex" ns0:text="$1$" word-spacing="normal" letter-spacing="normal" font-size-adjust="none" font-stretch="normal" font-weight="normal" font-variant="normal" font-style="normal" stroke-miterlimit="10.433" xml:space="preserve" transform="matrix(1.2,0,0,1.2,-255.23254,-510.76266)" id="content"><path style="fill:#000000;stroke-width:0" id="path4369" d="m 228.08,477.23 0,0.18 c -0.88,0 -1.12,0.21 -1.12,0.72 l 0,7.05 -0.1,0.04 -2.12,-1.08 0,-0.16 0.32,0.11 c 0.21,0.09 0.41,0.15 0.53,0.15 0.25,0 0.36,-0.18 0.36,-0.58 l 0,-5.3 c 0,-0.65 -0.25,-0.9 -1.13,-0.95 l 0,-0.18 z" /></g><g style="font-style:normal;font-variant:normal;font-weight:normal;font-stretch:normal;letter-spacing:normal;word-spacing:normal;text-anchor:start;fill:none;fill-opacity:1;fill-rule:evenodd;stroke:#000000;stroke-linecap:butt;stroke-linejoin:miter;stroke-miterlimit:10.43299961;stroke-dasharray:none;stroke-dashoffset:0;stroke-opacity:1" id="g4533" transform="matrix(1.2,0,0,1.2,-180.28844,-568.03701)" xml:space="preserve" stroke-miterlimit="10.433" font-style="normal" font-variant="normal" font-weight="normal" font-stretch="normal" font-size-adjust="none" letter-spacing="normal" word-spacing="normal" ns0:text="$6$" ns0:preamble="/Users/prmb/CMEP/underground-inkscape-preamble.tex"><path style="fill:#000000;stroke-width:0" d="m 228.7,485.31 -0.15,-0.02 -0.15,-0.01 -0.14,-0.02 -0.14,-0.02 -0.14,-0.02 -0.13,-0.03 -0.13,-0.02 -0.13,-0.02 -0.12,-0.03 -0.12,-0.03 -0.12,-0.03 -0.11,-0.03 -0.12,-0.03 -0.11,-0.04 -0.1,-0.04 -0.11,-0.04 -0.11,-0.04 -0.1,-0.05 -0.1,-0.05 -0.1,-0.05 -0.1,-0.06 -0.1,-0.05 -0.1,-0.07 -0.09,-0.06 -0.1,-0.07 -0.09,-0.07 -0.1,-0.08 -0.09,-0.08 -0.1,-0.08 -0.09,-0.09 -0.09,-0.1 -0.1,-0.09 c -0.84,-0.87 -1.29,-1.99 -1.29,-3.26 0,-0.83 0.23,-1.67 0.56,-2.27 0.41,-0.75 1.15,-1.19 2.09,-1.19 l 0.13,0.33 c -1.11,0 -1.68,1.18 -1.68,2.98 0,1.08 0.7,1.36 1.37,1.36 1.1,0 1.6,-0.77 1.6,-2.29 l 0,0 c 0,-1.2 -0.44,-2.05 -1.29,-2.05 l -0.13,-0.33 c 0.78,0 1.44,0.32 1.87,0.86 0.39,0.47 0.61,1.14 0.61,1.89 0,1.52 -0.85,2.47 -2.23,2.47 -0.52,0 -0.93,-0.09 -1.5,-0.53 0.31,1.78 1.64,3.05 3.49,3.36 z" id="path4535" /></g><g style="font-style:normal;font-variant:normal;font-weight:normal;font-stretch:normal;letter-spacing:normal;word-spacing:normal;text-anchor:start;fill:none;fill-opacity:1;fill-rule:evenodd;stroke:#000000;stroke-linecap:butt;stroke-linejoin:miter;stroke-miterlimit:10.43299961;stroke-dasharray:none;stroke-dashoffset:0;stroke-opacity:1" ns0:preamble="/Users/prmb/CMEP/underground-inkscape-preamble.tex" ns0:text="$8$" word-spacing="normal" letter-spacing="normal" font-size-adjust="none" font-stretch="normal" font-weight="normal" font-variant="normal" font-style="normal" stroke-miterlimit="10.433" xml:space="preserve" transform="matrix(1.2,0,0,1.2,76.532192,-568.03701)" id="g4703"><path style="fill:#000000;stroke-width:0" id="path4705" d="m 228.69,479.07 -0.01,0.08 0,0.09 0,0.08 -0.01,0.09 -0.01,0.08 -0.02,0.08 -0.02,0.08 -0.02,0.08 -0.02,0.07 -0.03,0.08 -0.03,0.08 -0.03,0.07 -0.04,0.08 -0.04,0.07 -0.04,0.08 -0.05,0.07 -0.06,0.08 -0.06,0.07 -0.06,0.08 -0.07,0.07 -0.07,0.08 -0.08,0.07 -0.08,0.08 -0.09,0.08 -0.09,0.08 -0.1,0.08 -0.1,0.08 -0.11,0.09 -0.11,0.08 -0.12,0.09 -0.13,0.09 -0.13,0.08 c 1.16,0.63 1.58,1.03 1.58,1.92 0,0.92 -0.82,1.69 -1.99,1.69 l -0.11,-0.33 c 0.8,0 1.28,-0.55 1.28,-1.36 l 0,0 c 0,-0.73 -0.3,-1.23 -1.11,-1.7 -1.04,0.61 -1.47,1.15 -1.47,1.89 0,0.73 0.5,1.17 1.3,1.17 l 0.11,0.33 c -1.31,0 -2.29,-0.71 -2.29,-1.85 0,-0.76 0.25,-1.21 1.47,-2.22 -1.26,-0.88 -1.54,-1.34 -1.54,-2.16 0,-1.11 0.94,-1.92 2.27,-1.92 l 0.13,0.33 c -0.9,0 -1.5,0.61 -1.5,1.7 0,0.77 0.25,1.25 0.94,1.82 l 0.7,-0.47 c 0.8,-0.55 1.16,-1.02 1.16,-1.75 0,-0.77 -0.53,-1.3 -1.3,-1.3 l -0.13,-0.33 c 1.42,0 2.33,0.78 2.33,2 z" /></g><g style="font-style:normal;font-variant:normal;font-weight:normal;font-stretch:normal;letter-spacing:normal;word-spacing:normal;text-anchor:start;fill:none;fill-opacity:1;fill-rule:evenodd;stroke:#000000;stroke-linecap:butt;stroke-linejoin:miter;stroke-miterlimit:10.43299961;stroke-dasharray:none;stroke-dashoffset:0;stroke-opacity:1" id="g4877" transform="matrix(1.2,0,0,1.2,-20.956069,-511.37196)" xml:space="preserve" stroke-miterlimit="10.433" font-style="normal" font-variant="normal" font-weight="normal" font-stretch="normal" font-size-adjust="none" letter-spacing="normal" word-spacing="normal" ns0:text="$10$" ns0:preamble="/Users/prmb/CMEP/underground-inkscape-preamble.tex"><path style="fill:#000000;stroke-width:0" d="m 228.08,477.23 0,0.18 c -0.88,0 -1.12,0.21 -1.12,0.72 l 0,7.05 -0.1,0.04 -2.12,-1.08 0,-0.16 0.32,0.11 c 0.21,0.09 0.41,0.15 0.53,0.15 0.25,0 0.36,-0.18 0.36,-0.58 l 0,-5.3 c 0,-0.65 -0.25,-0.9 -1.13,-0.95 l 0,-0.18 z" id="path4879" /><path style="fill:#000000;stroke-width:0" d="m 234.98,481.13 -0.01,0.23 -0.01,0.22 -0.01,0.21 -0.02,0.21 -0.03,0.21 -0.03,0.2 -0.04,0.19 -0.05,0.19 -0.05,0.18 -0.05,0.18 -0.06,0.17 -0.07,0.17 -0.07,0.16 -0.07,0.15 -0.08,0.14 -0.08,0.14 -0.09,0.13 -0.1,0.13 -0.09,0.11 -0.11,0.11 -0.1,0.1 -0.11,0.1 -0.12,0.08 -0.11,0.08 -0.12,0.07 -0.13,0.06 -0.13,0.05 -0.13,0.04 -0.13,0.03 -0.14,0.03 -0.14,0.01 -0.15,0.01 c -1.9,0 -2.71,-1.93 -2.71,-4.02 0,-1.93 0.65,-4.13 2.67,-4.13 l 0,0.31 c -1.02,0 -1.54,1.34 -1.54,3.74 0,2.4 0.53,3.79 1.51,3.79 1.04,0 1.56,-1.38 1.56,-3.84 l 0,0 c 0,-2.34 -0.53,-3.69 -1.53,-3.69 l 0,-0.31 c 1.92,0 2.67,2.03 2.67,4.06 z" id="path4881" /></g></g></svg>