<?xml version='1.0' ?><svg xmlns:ns0="http://www.iki.fi/pav/software/textext/" xmlns:dc="http://purl.org/dc/elements/1.1/" xmlns:cc="http://creativecommons.org/ns#" xmlns:rdf="http://www.w3.org/1999/02/22-rdf-syntax-ns#" xmlns:svg="http://www.w3.org/2000/svg" xmlns="http://www.w3.org/2000/svg" xml:space="preserve" version="1.1" id="svg2" width="393.71223" height="132.81308" viewBox="5.528534332188081 923.7066333531689 369.10521396796196 124.5122619410224" preserveAspectRatio="none"><metadata id="metadata8"><rdf:RDF><cc:Work rdf:about=""><dc:format>image/svg+xml</dc:format><dc:type rdf:resource="http://purl.org/dc/dcmitype/StillImage" /><dc:title /></cc:Work></rdf:RDF></metadata><defs id="defs6"><clipPath clipPathUnits="userSpaceOnUse" id="clipPath46"><path d="M 112.98872,0.29889 0.3985,84.74152 C 0.17842,84.9066 0,84.8174 0,84.54228 L 0,0.49814 C 0,0.22302 0.22302,0 0.49814,0 L 112.8891,0 c 0.2751,0 0.3197,0.13382 0.0996,0.29889 z" id="path48" /></clipPath></defs><g id="g10" transform="matrix(1.25,0,0,-1.25,0,1052.3622)"><g transform="translate(15.143,17.602)" id="g18" /><g transform="translate(15.143,17.602)" id="g20" /><g transform="translate(15.143,17.602)" id="g22" /><g transform="translate(15.143,17.602)" id="g24" /><g transform="translate(15.143,17.602)" id="g26" /><g transform="translate(15.143,17.602)" id="g28" /><g transform="translate(15.143,17.602)" id="g30" /><g transform="translate(15.143,17.602)" id="g32" /><g transform="translate(15.143,17.602)" id="g34" /><g transform="translate(15.143,17.602)" id="g36" /><g transform="translate(15.143,17.602)" id="g38" /><g transform="translate(15.143,17.602)" id="g40" /><g transform="translate(15.143,17.602)" id="g42"><g clip-path="url(#clipPath46)" id="g44"><g id="g50" /><g id="g52" /><g id="g54" /></g></g><g transform="translate(15.143,17.602)" id="g56"><path id="path58" style="fill:#3ab0fb;fill-opacity:1;fill-rule:nonzero;stroke:#000000;stroke-width:0.99628001;stroke-linecap:butt;stroke-linejoin:miter;stroke-miterlimit:10;stroke-dasharray:none;stroke-opacity:1" d="M 0,84.54228 0,0.49814 C 0,0.22302 0.13446,0.17928 0.30031,0.4004 l 40.21884,53.62499 c 0.16585,0.22115 0.12103,0.53488 -0.10011,0.70071 L 0.4004,84.74013 C 0.17928,84.90596 0,84.8174 0,84.54228 Z" /></g><g transform="translate(15.143,17.602)" id="g60"><path id="path62" style="fill:#bcf3b4;fill-opacity:1;fill-rule:nonzero;stroke:#000000;stroke-width:0.99628001;stroke-linecap:butt;stroke-linejoin:miter;stroke-miterlimit:10;stroke-dasharray:none;stroke-opacity:1" d="M 0.49814,0 112.8891,0 c 0.2751,0 0.31886,0.13446 0.0977,0.30031 L 41.21988,54.1255 C 40.99873,54.29135 40.685,54.24654 40.51915,54.02539 L 0.30031,0.4004 C 0.13446,0.17928 0.22302,0 0.49814,0 Z" /></g><g transform="translate(15.143,17.602)" id="g64"><path id="path66" style="fill:none;stroke:#000000;stroke-width:0.99628001;stroke-linecap:butt;stroke-linejoin:miter;stroke-miterlimit:10;stroke-dasharray:none;stroke-opacity:1" d="M 112.98872,0.29889 0.3985,84.74152 C 0.17842,84.9066 0,84.8174 0,84.54228 L 0,0.49814 C 0,0.22302 0.22302,0 0.49814,0 L 112.8891,0 c 0.2751,0 0.3197,0.13382 0.0996,0.29889 z" /></g><g transform="translate(15.143,17.602)" id="g68" /><g transform="translate(15.143,17.602)" id="g70" /><g transform="translate(15.143,17.602)" id="g72" /><path id="path74" style="fill:none;stroke:#000000;stroke-width:0.3985;stroke-linecap:butt;stroke-linejoin:miter;stroke-miterlimit:10;stroke-dasharray:none;stroke-opacity:1" d="m 55.66217,71.62739 -3.14086,-4.18803 c -0.16583,-0.22115 -0.12101,-0.53489 0.10013,-0.70073 l 4.18803,-3.14084 c 0.22115,-0.16585 0.53488,-0.12103 0.70072,0.10011 l 3.14085,4.18804 c 0.16583,0.22114 0.12102,0.53488 -0.10011,0.70072 l -4.18805,3.14086 c -0.22115,0.16583 -0.53488,0.12102 -0.70071,-0.10013 z" /><g transform="translate(15.143,17.602)" id="g124"><path id="path126" style="fill:#d7191c;fill-opacity:1;fill-rule:nonzero;stroke:#000000;stroke-width:0.99628001;stroke-linecap:butt;stroke-linejoin:miter;stroke-miterlimit:10;stroke-dasharray:none;stroke-opacity:1" d="M 283.06958,0.29889 170.47935,84.74152 c -0.22007,0.16508 -0.39849,0.07588 -0.39849,-0.19924 l 0,-84.04414 C 170.08086,0.22302 170.30388,0 170.579,0 l 112.39096,0 c 0.2751,0 0.31971,0.13382 0.0996,0.29889 z" /></g><g style="font-style:normal;font-variant:normal;font-weight:normal;font-stretch:normal;letter-spacing:normal;word-spacing:normal;text-anchor:start;fill:none;fill-opacity:1;fill-rule:evenodd;stroke:#000000;stroke-linecap:butt;stroke-linejoin:miter;stroke-miterlimit:10.43299961;stroke-dasharray:none;stroke-dashoffset:0;stroke-opacity:1" id="content" transform="matrix(1.2,0,0,1.2,-264.25717,-517.09451)" xml:space="preserve" stroke-miterlimit="10.433" font-style="normal" font-variant="normal" font-weight="normal" font-stretch="normal" font-size-adjust="none" letter-spacing="normal" word-spacing="normal" ns0:text="$a$" ns0:preamble="/Users/prmb/CMEP/underground-inkscape-preamble.tex"><path style="fill:#000000;stroke-width:0" d="m 229,482.29 -0.94,0 -0.11,-0.39 -0.01,0 c -0.02,0.26 -0.27,0.54 -0.78,0.54 l 0.02,-0.34 c 0.44,0 0.58,-0.36 0.58,-0.84 l 0,0 c 0,-0.4 -0.08,-0.87 -0.17,-1.18 -0.33,-1.12 -1.16,-2.24 -1.97,-2.24 -0.32,0 -0.69,0.15 -0.69,0.78 0,0.41 0.12,0.93 0.33,1.46 0.4,0.99 1.11,2.02 1.92,2.02 l -0.02,0.34 c -1.7,0 -3.26,-2.36 -3.26,-3.92 0,-0.75 0.31,-1.4 1.06,-1.4 0.45,0 1.19,0.15 2.04,1.24 l 0.04,0 c -0.05,-0.19 -0.13,-0.44 -0.13,-0.59 0,-0.38 0.11,-0.65 0.5,-0.65 0.57,0 1.21,0.71 1.57,1.26 l -0.14,0.14 c -0.46,-0.61 -0.64,-0.64 -0.76,-0.64 -0.09,0 -0.16,0.07 -0.16,0.2 0,0.11 0.01,0.13 0.01,0.13 z" id="path4390" /></g><g style="font-style:normal;font-variant:normal;font-weight:normal;font-stretch:normal;letter-spacing:normal;word-spacing:normal;text-anchor:start;fill:none;fill-opacity:1;fill-rule:evenodd;stroke:#000000;stroke-linecap:butt;stroke-linejoin:miter;stroke-miterlimit:10.43299961;stroke-dasharray:none;stroke-dashoffset:0;stroke-opacity:1" ns0:preamble="/Users/prmb/CMEP/underground-inkscape-preamble.tex" ns0:text="$b$" word-spacing="normal" letter-spacing="normal" font-size-adjust="none" font-stretch="normal" font-weight="normal" font-variant="normal" font-style="normal" stroke-miterlimit="10.433" xml:space="preserve" transform="matrix(1.2,0,0,1.2,-200.70739,-568.41547)" id="g4568"><path style="fill:#000000;stroke-width:0" id="path4570" d="m 225.96,481.74 0.86,3.38 -1.86,-0.28 0.03,-0.19 c 0.1,0.03 0.24,0.05 0.36,0.05 0.15,0 0.33,-0.1 0.34,-0.25 0,-0.04 -0.01,-0.08 -0.03,-0.13 l -1.7,-6.65 c 0.53,-0.35 1.02,-0.56 1.64,-0.56 l -0.06,0.34 c -0.27,0 -0.64,0.14 -0.64,0.22 l 0.64,2.54 c 0.14,0.53 0.54,1.58 1.39,1.58 0.39,0 0.83,-0.26 0.83,-1.08 0,-1.21 -0.77,-3.26 -2.22,-3.26 l 0.06,-0.34 c 1.86,0 3.14,2.12 3.14,3.55 0,0.97 -0.48,1.78 -1.31,1.78 -0.57,0 -1.03,-0.36 -1.42,-0.74 z" /></g><g style="font-style:normal;font-variant:normal;font-weight:normal;font-stretch:normal;letter-spacing:normal;word-spacing:normal;text-anchor:start;fill:none;fill-opacity:1;fill-rule:evenodd;stroke:#000000;stroke-linecap:butt;stroke-linejoin:miter;stroke-miterlimit:10.43299961;stroke-dasharray:none;stroke-dashoffset:0;stroke-opacity:1" id="g4752" transform="matrix(1.2,0,0,1.2,-191.28517,-509.27608)" xml:space="preserve" stroke-miterlimit="10.433" font-style="normal" font-variant="normal" font-weight="normal" font-stretch="normal" font-size-adjust="none" letter-spacing="normal" word-spacing="normal" ns0:text="$c$" ns0:preamble="/Users/prmb/CMEP/underground-inkscape-preamble.tex"><path style="fill:#000000;stroke-width:0" d="m 227.72,478.55 -0.08,-0.08 -0.08,-0.07 -0.09,-0.08 -0.09,-0.07 -0.09,-0.07 -0.09,-0.06 -0.1,-0.06 -0.05,-0.03 -0.06,-0.03 -0.05,-0.03 -0.05,-0.02 -0.06,-0.03 -0.05,-0.02 -0.06,-0.02 -0.05,-0.02 -0.06,-0.02 -0.06,-0.02 -0.06,-0.01 -0.06,-0.02 -0.06,-0.01 -0.07,-0.01 -0.06,-0.01 -0.07,0 -0.06,0 -0.07,-0.01 c -0.53,0 -1.11,0.26 -1.11,1.29 0,0.95 0.67,3.06 2.08,3.06 0.28,0 0.4,-0.11 0.4,-0.25 0,-0.26 -0.34,-0.4 -0.34,-0.68 0,-0.2 0.14,-0.45 0.45,-0.45 0.45,0 0.63,0.38 0.63,0.82 0,0.58 -0.55,0.9 -1.14,0.9 -1.68,0 -3.11,-1.85 -3.11,-3.51 0,-0.9 0.48,-1.82 1.62,-1.82 1,0 1.74,0.57 2.34,1.28 z" id="path4754" /></g><g ns0:preamble="/Users/prmb/CMEP/underground-inkscape-preamble.tex" ns0:text="$a$" word-spacing="normal" letter-spacing="normal" font-size-adjust="none" font-stretch="normal" font-weight="normal" font-variant="normal" font-style="normal" stroke-miterlimit="10.433" xml:space="preserve" transform="matrix(1.2,0,0,1.2,-93.855525,-517.8964)" id="g5081" style="font-style:normal;font-variant:normal;font-weight:normal;font-stretch:normal;letter-spacing:normal;word-spacing:normal;text-anchor:start;fill:none;fill-opacity:1;fill-rule:evenodd;stroke:#000000;stroke-linecap:butt;stroke-linejoin:miter;stroke-miterlimit:10.43299961;stroke-dasharray:none;stroke-dashoffset:0;stroke-opacity:1"><path id="path5083" d="m 229,482.29 -0.94,0 -0.11,-0.39 -0.01,0 c -0.02,0.26 -0.27,0.54 -0.78,0.54 l 0.02,-0.34 c 0.44,0 0.58,-0.36 0.58,-0.84 l 0,0 c 0,-0.4 -0.08,-0.87 -0.17,-1.18 -0.33,-1.12 -1.16,-2.24 -1.97,-2.24 -0.32,0 -0.69,0.15 -0.69,0.78 0,0.41 0.12,0.93 0.33,1.46 0.4,0.99 1.11,2.02 1.92,2.02 l -0.02,0.34 c -1.7,0 -3.26,-2.36 -3.26,-3.92 0,-0.75 0.31,-1.4 1.06,-1.4 0.45,0 1.19,0.15 2.04,1.24 l 0.04,0 c -0.05,-0.19 -0.13,-0.44 -0.13,-0.59 0,-0.38 0.11,-0.65 0.5,-0.65 0.57,0 1.21,0.71 1.57,1.26 l -0.14,0.14 c -0.46,-0.61 -0.64,-0.64 -0.76,-0.64 -0.09,0 -0.16,0.07 -0.16,0.2 0,0.11 0.01,0.13 0.01,0.13 z" style="fill:#000000;stroke-width:0" /></g><g id="g5085" transform="matrix(1.2,0,0,1.2,-30.305745,-569.21736)" xml:space="preserve" stroke-miterlimit="10.433" font-style="normal" font-variant="normal" font-weight="normal" font-stretch="normal" font-size-adjust="none" letter-spacing="normal" word-spacing="normal" ns0:text="$b$" ns0:preamble="/Users/prmb/CMEP/underground-inkscape-preamble.tex" style="font-style:normal;font-variant:normal;font-weight:normal;font-stretch:normal;letter-spacing:normal;word-spacing:normal;text-anchor:start;fill:none;fill-opacity:1;fill-rule:evenodd;stroke:#000000;stroke-linecap:butt;stroke-linejoin:miter;stroke-miterlimit:10.43299961;stroke-dasharray:none;stroke-dashoffset:0;stroke-opacity:1"><path d="m 225.96,481.74 0.86,3.38 -1.86,-0.28 0.03,-0.19 c 0.1,0.03 0.24,0.05 0.36,0.05 0.15,0 0.33,-0.1 0.34,-0.25 0,-0.04 -0.01,-0.08 -0.03,-0.13 l -1.7,-6.65 c 0.53,-0.35 1.02,-0.56 1.64,-0.56 l -0.06,0.34 c -0.27,0 -0.64,0.14 -0.64,0.22 l 0.64,2.54 c 0.14,0.53 0.54,1.58 1.39,1.58 0.39,0 0.83,-0.26 0.83,-1.08 0,-1.21 -0.77,-3.26 -2.22,-3.26 l 0.06,-0.34 c 1.86,0 3.14,2.12 3.14,3.55 0,0.97 -0.48,1.78 -1.31,1.78 -0.57,0 -1.03,-0.36 -1.42,-0.74 z" id="path5087" style="fill:#000000;stroke-width:0" /></g><g ns0:preamble="/Users/prmb/CMEP/underground-inkscape-preamble.tex" ns0:text="$c$" word-spacing="normal" letter-spacing="normal" font-size-adjust="none" font-stretch="normal" font-weight="normal" font-variant="normal" font-style="normal" stroke-miterlimit="10.433" xml:space="preserve" transform="matrix(1.2,0,0,1.2,-20.883525,-510.07797)" id="g5089" style="font-style:normal;font-variant:normal;font-weight:normal;font-stretch:normal;letter-spacing:normal;word-spacing:normal;text-anchor:start;fill:none;fill-opacity:1;fill-rule:evenodd;stroke:#000000;stroke-linecap:butt;stroke-linejoin:miter;stroke-miterlimit:10.43299961;stroke-dasharray:none;stroke-dashoffset:0;stroke-opacity:1"><path id="path5091" d="m 227.72,478.55 -0.08,-0.08 -0.08,-0.07 -0.09,-0.08 -0.09,-0.07 -0.09,-0.07 -0.09,-0.06 -0.1,-0.06 -0.05,-0.03 -0.06,-0.03 -0.05,-0.03 -0.05,-0.02 -0.06,-0.03 -0.05,-0.02 -0.06,-0.02 -0.05,-0.02 -0.06,-0.02 -0.06,-0.02 -0.06,-0.01 -0.06,-0.02 -0.06,-0.01 -0.07,-0.01 -0.06,-0.01 -0.07,0 -0.06,0 -0.07,-0.01 c -0.53,0 -1.11,0.26 -1.11,1.29 0,0.95 0.67,3.06 2.08,3.06 0.28,0 0.4,-0.11 0.4,-0.25 0,-0.26 -0.34,-0.4 -0.34,-0.68 0,-0.2 0.14,-0.45 0.45,-0.45 0.45,0 0.63,0.38 0.63,0.82 0,0.58 -0.55,0.9 -1.14,0.9 -1.68,0 -3.11,-1.85 -3.11,-3.51 0,-0.9 0.48,-1.82 1.62,-1.82 1,0 1.74,0.57 2.34,1.28 z" style="fill:#000000;stroke-width:0" /></g></g></svg>