<?xml version='1.0' ?><svg xmlns:ns0="http://www.iki.fi/pav/software/textext/" xmlns:dc="http://purl.org/dc/elements/1.1/" xmlns:cc="http://creativecommons.org/ns#" xmlns:rdf="http://www.w3.org/1999/02/22-rdf-syntax-ns#" xmlns:svg="http://www.w3.org/2000/svg" xmlns="http://www.w3.org/2000/svg" xml:space="preserve" version="1.1" id="svg2" width="272.8994" height="319.32641" viewBox="0.31626873826975455 752.6788294390595 255.8431881226871 299.36851010362176" preserveAspectRatio="none"><metadata id="metadata8"><rdf:RDF><cc:Work rdf:about=""><dc:format>image/svg+xml</dc:format><dc:type rdf:resource="http://purl.org/dc/dcmitype/StillImage" /><dc:title /></cc:Work></rdf:RDF></metadata><defs id="defs6" /><g id="g10" transform="matrix(1.25,0,0,-1.25,0,1052.3622)"><g id="g18" transform="translate(74.145,98.693)" /><g id="g20" transform="translate(74.145,98.693)" /><g id="g22" transform="translate(74.145,98.693)" /><g id="g24" transform="translate(74.145,98.693)" /><g id="g26" transform="translate(74.145,98.693)" /><g id="g28" transform="translate(74.145,98.693)" /><g id="g30" transform="translate(74.145,98.693)" /><g id="g32" transform="translate(74.145,98.693)" /><g id="g34" transform="translate(74.145,98.693)" /><g id="g36" transform="translate(74.145,98.693)" /><g id="g38" transform="translate(74.145,98.693)" /><g id="g40" transform="translate(74.145,98.693)" /><g id="g42" transform="translate(74.145,98.693)"><path id="path44" style="fill:#d7191c;fill-opacity:1;fill-rule:nonzero;stroke:#000000;stroke-width:0.99628001;stroke-linecap:butt;stroke-linejoin:miter;stroke-miterlimit:10;stroke-dasharray:none;stroke-opacity:1" d="M 112.98872,0.29889 0.3985,84.74152 c -0.22008,0.16508 -0.19289,0.38675 0.06076,0.49507 l 129.42245,55.28395 c 0.25365,0.10834 0.43259,-0.0252 0.39969,-0.29842 L 113.44681,0.49457 c -0.0329,-0.27315 -0.23801,-0.36075 -0.45809,-0.19568 z" /></g><g id="g46" transform="translate(74.145,98.693)"><path id="path48" style="fill:#3ab0fb;fill-opacity:1;fill-rule:nonzero;stroke:#000000;stroke-width:0.99628001;stroke-linecap:butt;stroke-linejoin:miter;stroke-miterlimit:10;stroke-dasharray:none;stroke-opacity:1" d="M 0,84.54228 0,0.49814 C 0,0.22302 -0.19376,0.11186 -0.43277,0.24985 l -72.78181,42.02049 c -0.23902,0.13799 -0.23902,0.36172 0,0.49973 L -0.43277,84.79056 C -0.19376,84.92854 0,84.8174 0,84.54228 Z" /></g><g id="g50" transform="translate(74.145,98.693)"><path id="path52" style="fill:#bcf3b4;fill-opacity:1;fill-rule:nonzero;stroke:#000000;stroke-width:0.99628001;stroke-linecap:butt;stroke-linejoin:miter;stroke-miterlimit:10;stroke-dasharray:none;stroke-opacity:1" d="M 0.49814,0 112.8891,0 c 0.2751,0 0.38626,-0.19376 0.24829,-0.43277 L 56.94345,-97.76372 c -0.13797,-0.239 -0.36171,-0.239 -0.49968,0 L 0.24983,-0.43277 C 0.11186,-0.19376 0.22302,0 0.49814,0 Z" /></g><g style="font-style:normal;font-variant:normal;font-weight:normal;font-stretch:normal;letter-spacing:normal;word-spacing:normal;text-anchor:start;fill:none;fill-opacity:1;fill-rule:evenodd;stroke:#000000;stroke-linecap:butt;stroke-linejoin:miter;stroke-miterlimit:10.43299961;stroke-dasharray:none;stroke-dashoffset:0;stroke-opacity:1" id="content" transform="matrix(1.2,0,0,1.2,-189.42659,-438.3434)" xml:space="preserve" stroke-miterlimit="10.433" font-style="normal" font-variant="normal" font-weight="normal" font-stretch="normal" font-size-adjust="none" letter-spacing="normal" word-spacing="normal" ns0:text="$6$" ns0:preamble="/Users/prmb/CMEP/underground-inkscape-preamble.tex"><path style="fill:#000000;stroke-width:0" d="m 228.7,485.31 -0.15,-0.02 -0.15,-0.01 -0.14,-0.02 -0.14,-0.02 -0.14,-0.02 -0.13,-0.03 -0.13,-0.02 -0.13,-0.02 -0.12,-0.03 -0.12,-0.03 -0.12,-0.03 -0.11,-0.03 -0.12,-0.03 -0.11,-0.04 -0.1,-0.04 -0.11,-0.04 -0.11,-0.04 -0.1,-0.05 -0.1,-0.05 -0.1,-0.05 -0.1,-0.06 -0.1,-0.05 -0.1,-0.07 -0.09,-0.06 -0.1,-0.07 -0.09,-0.07 -0.1,-0.08 -0.09,-0.08 -0.1,-0.08 -0.09,-0.09 -0.09,-0.1 -0.1,-0.09 c -0.84,-0.87 -1.29,-1.99 -1.29,-3.26 0,-0.83 0.23,-1.67 0.56,-2.27 0.41,-0.75 1.15,-1.19 2.09,-1.19 l 0.13,0.33 c -1.11,0 -1.68,1.18 -1.68,2.98 0,1.08 0.7,1.36 1.37,1.36 1.1,0 1.6,-0.77 1.6,-2.29 l 0,0 c 0,-1.2 -0.44,-2.05 -1.29,-2.05 l -0.13,-0.33 c 0.78,0 1.44,0.32 1.87,0.86 0.39,0.47 0.61,1.14 0.61,1.89 0,1.52 -0.85,2.47 -2.23,2.47 -0.52,0 -0.93,-0.09 -1.5,-0.53 0.31,1.78 1.64,3.05 3.49,3.36 z" id="path4415" /></g><g style="font-style:normal;font-variant:normal;font-weight:normal;font-stretch:normal;letter-spacing:normal;word-spacing:normal;text-anchor:start;fill:none;fill-opacity:1;fill-rule:evenodd;stroke:#000000;stroke-linecap:butt;stroke-linejoin:miter;stroke-miterlimit:10.43299961;stroke-dasharray:none;stroke-dashoffset:0;stroke-opacity:1" ns0:preamble="/Users/prmb/CMEP/underground-inkscape-preamble.tex" ns0:text="$8$" word-spacing="normal" letter-spacing="normal" font-size-adjust="none" font-stretch="normal" font-weight="normal" font-variant="normal" font-style="normal" stroke-miterlimit="10.433" xml:space="preserve" transform="matrix(1.2,0,0,1.2,-146.73146,-469.85648)" id="g4513"><path style="fill:#000000;stroke-width:0" id="path4515" d="m 228.69,479.07 -0.01,0.08 0,0.09 0,0.08 -0.01,0.09 -0.01,0.08 -0.02,0.08 -0.02,0.08 -0.02,0.08 -0.02,0.07 -0.03,0.08 -0.03,0.08 -0.03,0.07 -0.04,0.08 -0.04,0.07 -0.04,0.08 -0.05,0.07 -0.06,0.08 -0.06,0.07 -0.06,0.08 -0.07,0.07 -0.07,0.08 -0.08,0.07 -0.08,0.08 -0.09,0.08 -0.09,0.08 -0.1,0.08 -0.1,0.08 -0.11,0.09 -0.11,0.08 -0.12,0.09 -0.13,0.09 -0.13,0.08 c 1.16,0.63 1.58,1.03 1.58,1.92 0,0.92 -0.82,1.69 -1.99,1.69 l -0.11,-0.33 c 0.8,0 1.28,-0.55 1.28,-1.36 l 0,0 c 0,-0.73 -0.3,-1.23 -1.11,-1.7 -1.04,0.61 -1.47,1.15 -1.47,1.89 0,0.73 0.5,1.17 1.3,1.17 l 0.11,0.33 c -1.31,0 -2.29,-0.71 -2.29,-1.85 0,-0.76 0.25,-1.21 1.47,-2.22 -1.26,-0.88 -1.54,-1.34 -1.54,-2.16 0,-1.11 0.94,-1.92 2.27,-1.92 l 0.13,0.33 c -0.9,0 -1.5,0.61 -1.5,1.7 0,0.77 0.25,1.25 0.94,1.82 l 0.7,-0.47 c 0.8,-0.55 1.16,-1.02 1.16,-1.75 0,-0.77 -0.53,-1.3 -1.3,-1.3 l -0.13,-0.33 c 1.42,0 2.33,0.78 2.33,2 z" /></g><g style="font-style:normal;font-variant:normal;font-weight:normal;font-stretch:normal;letter-spacing:normal;word-spacing:normal;text-anchor:start;fill:none;fill-opacity:1;fill-rule:evenodd;stroke:#000000;stroke-linecap:butt;stroke-linejoin:miter;stroke-miterlimit:10.43299961;stroke-dasharray:none;stroke-dashoffset:0;stroke-opacity:1" id="g4617" transform="matrix(1.2,0,0,1.2,-156.38869,-442.15547)" xml:space="preserve" stroke-miterlimit="10.433" font-style="normal" font-variant="normal" font-weight="normal" font-stretch="normal" font-size-adjust="none" letter-spacing="normal" word-spacing="normal" ns0:text="$10$" ns0:preamble="/Users/prmb/CMEP/underground-inkscape-preamble.tex"><path style="fill:#000000;stroke-width:0" d="m 228.08,477.23 0,0.18 c -0.88,0 -1.12,0.21 -1.12,0.72 l 0,7.05 -0.1,0.04 -2.12,-1.08 0,-0.16 0.32,0.11 c 0.21,0.09 0.41,0.15 0.53,0.15 0.25,0 0.36,-0.18 0.36,-0.58 l 0,-5.3 c 0,-0.65 -0.25,-0.9 -1.13,-0.95 l 0,-0.18 z" id="path4619" /><path style="fill:#000000;stroke-width:0" d="m 234.98,481.13 -0.01,0.23 -0.01,0.22 -0.01,0.21 -0.02,0.21 -0.03,0.21 -0.03,0.2 -0.04,0.19 -0.05,0.19 -0.05,0.18 -0.05,0.18 -0.06,0.17 -0.07,0.17 -0.07,0.16 -0.07,0.15 -0.08,0.14 -0.08,0.14 -0.09,0.13 -0.1,0.13 -0.09,0.11 -0.11,0.11 -0.1,0.1 -0.11,0.1 -0.12,0.08 -0.11,0.08 -0.12,0.07 -0.13,0.06 -0.13,0.05 -0.13,0.04 -0.13,0.03 -0.14,0.03 -0.14,0.01 -0.15,0.01 c -1.9,0 -2.71,-1.93 -2.71,-4.02 0,-1.93 0.65,-4.13 2.67,-4.13 l 0,0.31 c -1.02,0 -1.54,1.34 -1.54,3.74 0,2.4 0.53,3.79 1.51,3.79 1.04,0 1.56,-1.38 1.56,-3.84 l 0,0 c 0,-2.34 -0.53,-3.69 -1.53,-3.69 l 0,-0.31 c 1.92,0 2.67,2.03 2.67,4.06 z" id="path4621" /></g></g></svg>