<?xml version='1.0' ?><svg xmlns:ns0="http://www.iki.fi/pav/software/textext/" xmlns:dc="http://purl.org/dc/elements/1.1/" xmlns:cc="http://creativecommons.org/ns#" xmlns:rdf="http://www.w3.org/1999/02/22-rdf-syntax-ns#" xmlns:svg="http://www.w3.org/2000/svg" xmlns="http://www.w3.org/2000/svg" id="svg2" version="1.1" width="188.98958" height="176.01801" viewBox="88.69394473895584 11.803162865863454 352.17335389558235 328.00143228915664" preserveAspectRatio="none">
  <metadata id="metadata313">
    <rdf:RDF>
      <cc:Work rdf:about="">
        <dc:format>image/svg+xml</dc:format>
        <dc:type rdf:resource="http://purl.org/dc/dcmitype/StillImage" />
        <dc:title />
      </cc:Work>
    </rdf:RDF>
  </metadata>
  <defs id="defs311">
    <clipPath id="clip1">
      <path id="path11" d="m 0,0 0,412 580,0 0,-412 z" />
    </clipPath>
    <clipPath id="clip2">
      <path id="path24" d="m 0,0 0,412 580,0 0,-412 z" />
    </clipPath>
    <clipPath id="clip3">
      <path id="path37" d="m 0,0 0,412 580,0 0,-412 z" />
    </clipPath>
    <clipPath id="clip4">
      <path id="path50" d="m 0,0 0,412 580,0 0,-412 z" />
    </clipPath>
    <clipPath id="clip5">
      <path id="path63" d="m 0,0 0,412 580,0 0,-412 z" />
    </clipPath>
    <clipPath id="clip6">
      <path id="path76" d="m 0,0 0,412 580,0 0,-412 z" />
    </clipPath>
    <clipPath id="clip7">
      <path id="path89" d="m 0,0 0,412 580,0 0,-412 z" />
    </clipPath>
    <clipPath id="clip8">
      <path id="path102" d="m 0,0 0,412 580,0 0,-412 z" />
    </clipPath>
    <clipPath id="clip9">
      <path id="path115" d="m 0,0 0,412 580,0 0,-412 z" />
    </clipPath>
    <clipPath id="clip10">
      <path id="path128" d="m 0,0 0,412 580,0 0,-412 z" />
    </clipPath>
    <clipPath id="clip11">
      <path id="path141" d="m 0,0 0,412 580,0 0,-412 z" />
    </clipPath>
    <clipPath id="clip12">
      <path id="path154" d="m 0,0 0,412 580,0 0,-412 z" />
    </clipPath>
    <clipPath id="clip13">
      <path id="path167" d="m 0,0 0,412 580,0 0,-412 z" />
    </clipPath>
    <clipPath id="clip15">
      <path id="path193" d="m 0,0 0,412 580,0 0,-412 z" />
    </clipPath>
    <clipPath id="clip16">
      <path id="path206" d="m 0,0 0,412 580,0 0,-412 z" />
    </clipPath>
    <clipPath id="clip18">
      <path id="path232" d="m 0,0 0,412 580,0 0,-412 z" />
    </clipPath>
    <clipPath id="clip19">
      <path id="path245" d="m 0,0 0,412 580,0 0,-412 z" />
    </clipPath>
    <clipPath id="clip21">
      <path id="path271" d="m 0,0 0,412 580,0 0,-412 z" />
    </clipPath>
    <clipPath id="clip22">
      <path id="path284" d="m 0,0 0,412 580,0 0,-412 z" />
    </clipPath>
  </defs>
  <g id="misc" style="stroke-width:1;stroke-linecap:square;stroke-linejoin:miter;stroke-miterlimit:10;stroke-dasharray:none;stroke-dashoffset:0" />
  <g id="g13" clip-path="url(#clip1)" style="stroke-width:1;stroke-linecap:square;stroke-linejoin:miter;stroke-miterlimit:10;stroke-dasharray:none;stroke-dashoffset:0">
    <g style="fill:none;stroke:#000000;stroke-width:2;stroke-linecap:round;stroke-linejoin:round;stroke-opacity:1" id="g15">
      <path id="path17" d="m 412.66,188 c 0,83.21 -67.45,150.66 -150.66,150.66 -83.21,0 -150.66,-67.45 -150.66,-150.66 0,-83.21 67.45,-150.659 150.66,-150.659 83.21,0 150.66,67.449 150.66,150.659 z" />
      <title id="title19">Circle circ</title>
      <desc id="desc21">Circle circ: Circle through A with center O</desc>
    </g>
  </g>
  <g id="g26" clip-path="url(#clip2)" style="stroke-width:1;stroke-linecap:square;stroke-linejoin:miter;stroke-miterlimit:10;stroke-dasharray:none;stroke-dashoffset:0">
    <g style="fill:none;stroke:#000000;stroke-width:2;stroke-linecap:round;stroke-linejoin:round;stroke-opacity:1" id="g28">
      <path id="path30" d="M 370.24,292.79 C 416.32,245.2 425.9,173.09 393.86,115.11 361.81,57.14 295.65,26.899 230.84,40.599" />
      <title id="title32">Arc arc</title>
      <desc id="desc34">Arc arc: CircularArc[O, B, C]</desc>
    </g>
  </g>
  <g id="g39" clip-path="url(#clip3)" style="stroke-width:1;stroke-linecap:square;stroke-linejoin:miter;stroke-miterlimit:10;stroke-dasharray:none;stroke-dashoffset:0">
    <g style="fill:#d7191c;fill-opacity:0.14902003;fill-rule:nonzero;stroke:none" id="g41">
      <path id="path43" d="m 214.63,65.842 c 9.28,5.957 21.08,6.346 30.73,1.012 L 230.84,40.599 Z" />
      <title id="title45">Angle Ã&#131;Â&#142;Ã&#130;Â³</title>
      <desc id="desc47">Angle Ã&#131;Â&#142;Ã&#130;Â³: Angle between A, C, B</desc>
    </g>
  </g>
  <g id="g52" clip-path="url(#clip4)" style="stroke-width:1;stroke-linecap:square;stroke-linejoin:miter;stroke-miterlimit:10;stroke-dasharray:none;stroke-dashoffset:0">
    <g style="fill:none;stroke:#d7191c;stroke-width:2;stroke-linecap:round;stroke-linejoin:round;stroke-opacity:1" id="g54">
      <path id="path56" d="m 214.63,65.842 c 9.28,5.957 21.08,6.346 30.73,1.012 L 230.84,40.599 Z" />
      <title id="title58">Angle Ã&#131;Â&#142;Ã&#130;Â³</title>
      <desc id="desc60">Angle Ã&#131;Â&#142;Ã&#130;Â³: Angle between A, C, B</desc>
    </g>
  </g>
  <g id="g65" clip-path="url(#clip5)" style="stroke-width:1;stroke-linecap:square;stroke-linejoin:miter;stroke-miterlimit:10;stroke-dasharray:none;stroke-dashoffset:0">
    <g style="fill:#2b83ba;fill-opacity:0.14902003;fill-rule:nonzero;stroke:none" id="g67">
      <path id="path69" d="m 381.88,205.51 c 0.64,11.01 7.26,20.78 17.25,25.44 l 12.7,-27.18 z" />
      <title id="title71">Angle Ã&#131;Â&#142;Ã&#130;Â±</title>
      <desc id="desc73">Angle Ã&#131;Â&#142;Ã&#130;Â±: Angle between A, D, B</desc>
    </g>
  </g>
  <g id="g78" clip-path="url(#clip6)" style="stroke-width:1;stroke-linecap:square;stroke-linejoin:miter;stroke-miterlimit:10;stroke-dasharray:none;stroke-dashoffset:0">
    <g style="fill:none;stroke:#2b83ba;stroke-width:2;stroke-linecap:round;stroke-linejoin:round;stroke-opacity:1" id="g80">
      <path id="path82" d="m 381.88,205.51 c 0.64,11.01 7.26,20.78 17.25,25.44 l 12.7,-27.18 z" />
      <title id="title84">Angle Ã&#131;Â&#142;Ã&#130;Â±</title>
      <desc id="desc86">Angle Ã&#131;Â&#142;Ã&#130;Â±: Angle between A, D, B</desc>
    </g>
  </g>
  <g id="g91" clip-path="url(#clip7)" style="stroke-width:1;stroke-linecap:square;stroke-linejoin:miter;stroke-miterlimit:10;stroke-dasharray:none;stroke-dashoffset:0">
    <g style="fill:none;stroke:#000000;stroke-width:2;stroke-linecap:round;stroke-linejoin:round;stroke-opacity:1" id="g93">
      <path id="path95" d="m 115,221 255.24,71.79" />
      <title id="title97">Segment c</title>
      <desc id="desc99">Segment c: Segment [A, B]</desc>
    </g>
  </g>
  <g id="g104" clip-path="url(#clip8)" style="stroke-width:1;stroke-linecap:square;stroke-linejoin:miter;stroke-miterlimit:10;stroke-dasharray:none;stroke-dashoffset:0">
    <g style="fill:none;stroke:#000000;stroke-width:2;stroke-linecap:round;stroke-linejoin:round;stroke-opacity:1" id="g106">
      <path id="path108" d="M 115,221 230.84,40.599" />
      <title id="title110">Segment b</title>
      <desc id="desc112">Segment b: Segment [A, C]</desc>
    </g>
  </g>
  <g id="g117" clip-path="url(#clip9)" style="stroke-width:1;stroke-linecap:square;stroke-linejoin:miter;stroke-miterlimit:10;stroke-dasharray:none;stroke-dashoffset:0">
    <g style="fill:none;stroke:#000000;stroke-width:2;stroke-linecap:round;stroke-linejoin:round;stroke-opacity:1" id="g119">
      <path id="path121" d="M 230.84,40.599 370.24,292.79" />
      <title id="title123">Segment a</title>
      <desc id="desc125">Segment a: Segment [C, B]</desc>
    </g>
  </g>
  <g id="g130" clip-path="url(#clip10)" style="stroke-width:1;stroke-linecap:square;stroke-linejoin:miter;stroke-miterlimit:10;stroke-dasharray:none;stroke-dashoffset:0">
    <g style="fill:none;stroke:#000000;stroke-width:2;stroke-linecap:round;stroke-linejoin:round;stroke-opacity:1" id="g132">
      <path id="path134" d="M 115,221 411.83,203.77" />
      <title id="title136">Segment d</title>
      <desc id="desc138">Segment d: Segment [A, D]</desc>
    </g>
  </g>
  <g id="g143" clip-path="url(#clip11)" style="stroke-width:1;stroke-linecap:square;stroke-linejoin:miter;stroke-miterlimit:10;stroke-dasharray:none;stroke-dashoffset:0">
    <g style="fill:none;stroke:#000000;stroke-width:2;stroke-linecap:round;stroke-linejoin:round;stroke-opacity:1" id="g145">
      <path id="path147" d="m 370.24,292.79 41.59,-89.02" />
      <title id="title149">Segment h</title>
      <desc id="desc151">Segment h: Segment [B, D]</desc>
    </g>
  </g>
  <g id="g156" clip-path="url(#clip12)" style="stroke-width:1;stroke-linecap:square;stroke-linejoin:miter;stroke-miterlimit:10;stroke-dasharray:none;stroke-dashoffset:0">
    <g style="fill:#000000;fill-opacity:1;fill-rule:nonzero;stroke:none" id="g158">
      <path id="path160" d="m 118,221 c 0,1.66 -1.34,3 -3,3 -1.66,0 -3,-1.34 -3,-3 0,-1.66 1.34,-3 3,-3 1.66,0 3,1.34 3,3 z" />
      <title id="title162">Point A</title>
      <desc id="desc164">A = (-0.22, 1.96)</desc>
    </g>
  </g>
  <g id="g169" clip-path="url(#clip13)" style="stroke-width:1;stroke-linecap:square;stroke-linejoin:miter;stroke-miterlimit:10;stroke-dasharray:none;stroke-dashoffset:0">
    <g style="fill:none;stroke:#000000;stroke-linecap:round;stroke-linejoin:round;stroke-opacity:1" id="g171">
      <path id="path173" d="m 118,221 c 0,1.66 -1.34,3 -3,3 -1.66,0 -3,-1.34 -3,-3 0,-1.66 1.34,-3 3,-3 1.66,0 3,1.34 3,3 z" />
      <title id="title175">Point A</title>
      <desc id="desc177">A = (-0.22, 1.96)</desc>
    </g>
  </g>
  <g id="g195" clip-path="url(#clip15)" style="stroke-width:1;stroke-linecap:square;stroke-linejoin:miter;stroke-miterlimit:10;stroke-dasharray:none;stroke-dashoffset:0">
    <g style="fill:#000000;fill-opacity:1;fill-rule:nonzero;stroke:none" id="g197">
      <path id="path199" d="m 373.24,292.79 c 0,1.66 -1.34,3 -3,3 -1.65,0 -3,-1.34 -3,-3 0,-1.66 1.35,-3 3,-3 1.66,0 3,1.34 3,3 z" />
      <title id="title201">Point B</title>
      <desc id="desc203">Point B: Point on circ</desc>
    </g>
  </g>
  <g id="g208" clip-path="url(#clip16)" style="stroke-width:1;stroke-linecap:square;stroke-linejoin:miter;stroke-miterlimit:10;stroke-dasharray:none;stroke-dashoffset:0">
    <g style="fill:none;stroke:#000000;stroke-linecap:round;stroke-linejoin:round;stroke-opacity:1" id="g210">
      <path id="path212" d="m 373.24,292.79 c 0,1.66 -1.34,3 -3,3 -1.65,0 -3,-1.34 -3,-3 0,-1.66 1.35,-3 3,-3 1.66,0 3,1.34 3,3 z" />
      <title id="title214">Point B</title>
      <desc id="desc216">Point B: Point on circ</desc>
    </g>
  </g>
  <g id="g234" clip-path="url(#clip18)" style="stroke-width:1;stroke-linecap:square;stroke-linejoin:miter;stroke-miterlimit:10;stroke-dasharray:none;stroke-dashoffset:0">
    <g style="fill:#d7191c;fill-opacity:1;fill-rule:nonzero;stroke:none" id="g236">
      <path id="path238" d="m 233.84,40.599 c 0,1.656 -1.34,3 -3,3 -1.65,0 -3,-1.344 -3,-3 0,-1.657 1.35,-3 3,-3 1.66,0 3,1.343 3,3 z" />
      <title id="title240">Point C</title>
      <desc id="desc242">Point C: Point on f</desc>
    </g>
  </g>
  <g id="g247" clip-path="url(#clip19)" style="stroke-width:1;stroke-linecap:square;stroke-linejoin:miter;stroke-miterlimit:10;stroke-dasharray:none;stroke-dashoffset:0">
    <g style="fill:none;stroke:#000000;stroke-linecap:round;stroke-linejoin:round;stroke-opacity:1" id="g249">
      <path id="path251" d="m 233.84,40.599 c 0,1.656 -1.34,3 -3,3 -1.65,0 -3,-1.344 -3,-3 0,-1.657 1.35,-3 3,-3 1.66,0 3,1.343 3,3 z" />
      <title id="title253">Point C</title>
      <desc id="desc255">Point C: Point on f</desc>
    </g>
  </g>
  <g id="g273" clip-path="url(#clip21)" style="stroke-width:1;stroke-linecap:square;stroke-linejoin:miter;stroke-miterlimit:10;stroke-dasharray:none;stroke-dashoffset:0">
    <g style="fill:#2b83ba;fill-opacity:1;fill-rule:nonzero;stroke:none" id="g275">
      <path id="path277" d="m 414.83,203.77 c 0,1.66 -1.34,3 -3,3 -1.66,0 -3,-1.34 -3,-3 0,-1.66 1.34,-3 3,-3 1.66,0 3,1.34 3,3 z" />
      <title id="title279">Point D</title>
      <desc id="desc281">Point D: Point on arc</desc>
    </g>
  </g>
  <g id="g286" clip-path="url(#clip22)" style="stroke-width:1;stroke-linecap:square;stroke-linejoin:miter;stroke-miterlimit:10;stroke-dasharray:none;stroke-dashoffset:0">
    <g style="fill:none;stroke:#000000;stroke-linecap:round;stroke-linejoin:round;stroke-opacity:1" id="g288">
      <path id="path290" d="m 414.83,203.77 c 0,1.66 -1.34,3 -3,3 -1.66,0 -3,-1.34 -3,-3 0,-1.66 1.34,-3 3,-3 1.66,0 3,1.34 3,3 z" />
      <title id="title292">Point D</title>
      <desc id="desc294">Point D: Point on arc</desc>
    </g>
  </g>
  <g ns0:preamble="/Users/Lizzie/Documents/Old mac/CMEP folder/underground-inkscape-preamble.tex" ns0:text="$A$" word-spacing="normal" letter-spacing="normal" font-size-adjust="none" font-stretch="normal" font-weight="normal" font-variant="normal" font-style="normal" stroke-miterlimit="10.433" xml:space="preserve" transform="matrix(2.16,0,0,-2.16,-394.82204,1257.2691)" id="content" style="font-style:normal;font-variant:normal;font-weight:normal;font-stretch:normal;letter-spacing:normal;word-spacing:normal;text-anchor:start;fill:none;fill-opacity:1;fill-rule:evenodd;stroke:#000000;stroke-linecap:butt;stroke-linejoin:miter;stroke-miterlimit:10.43299961;stroke-dasharray:none;stroke-dashoffset:0;stroke-opacity:1"><path id="path4928" d="m 231.54,477.23 0,0.19 -0.18,0 c -0.5,0 -0.8,0.25 -0.88,0.83 l -0.92,6.86 -0.22,0 -4.21,-6.81 c -0.43,-0.69 -0.87,-0.83 -1.28,-0.88 l 0,-0.19 2.58,0 0,0.19 -0.34,0 c -0.31,0 -0.5,0.13 -0.51,0.35 0,0.08 0.03,0.21 0.11,0.3 l 1,1.66 2.34,0 -0.08,0.43 -2.01,0 1.64,2.68 0.07,0 0.3,-2.68 0.08,-0.43 0.16,-1.34 c 0.01,-0.08 0.02,-0.18 0.02,-0.25 0,-0.47 -0.19,-0.72 -0.85,-0.72 l -0.19,0 0,-0.19 z" style="fill:#000000;stroke-width:0" /></g>  <g style="font-style:normal;font-variant:normal;font-weight:normal;font-stretch:normal;letter-spacing:normal;word-spacing:normal;text-anchor:start;fill:none;fill-opacity:1;fill-rule:evenodd;stroke:#000000;stroke-linecap:butt;stroke-linejoin:miter;stroke-miterlimit:10.43299961;stroke-dasharray:none;stroke-dashoffset:0;stroke-opacity:1" id="g5251" transform="matrix(2.16,0,0,-2.16,-105.36612,1342.7332)" xml:space="preserve" stroke-miterlimit="10.433" font-style="normal" font-variant="normal" font-weight="normal" font-stretch="normal" font-size-adjust="none" letter-spacing="normal" word-spacing="normal" ns0:text="$B$" ns0:preamble="/Users/Lizzie/Documents/Old mac/CMEP folder/underground-inkscape-preamble.tex"><path style="fill:#000000;stroke-width:0" d="m 225.78,484.94 -0.06,-0.18 0.22,0 c 0.7,0 0.93,-0.19 0.93,-0.5 0,-0.07 -0.02,-0.19 -0.03,-0.25 l -1.45,-5.84 c -0.1,-0.4 -0.32,-0.75 -1.22,-0.75 l -0.24,0 -0.05,-0.19 3.84,0 c 2.45,0 3.42,1.12 3.42,2.28 0,1.01 -0.79,1.5 -1.5,1.63 l -0.04,0.05 c 0.24,0.06 0.58,0.15 0.88,0.31 0.57,0.28 1.08,0.81 1.08,1.73 0,1.61 -1.8,1.71 -2.8,1.71 l -0.01,-0.46 c 0.64,0 1.41,-0.24 1.41,-1.15 0,-1.15 -0.66,-1.93 -1.99,-1.93 l -0.13,-0.41 c 0.92,0 1.68,-0.41 1.68,-1.28 0,-1.53 -1.14,-2.03 -2.25,-2.03 -0.31,0 -0.54,0.03 -0.84,0.11 l 0.8,3.15 c 0.18,0.05 0.42,0.05 0.61,0.05 l 0.13,0.41 c -0.18,0 -0.39,0.03 -0.63,0.07 l 0.7,2.98 c 0.16,0.02 0.33,0.03 0.51,0.03 l 0.01,0.46 z" id="path5253" /></g>  <g ns0:preamble="/Users/Lizzie/Documents/Old mac/CMEP folder/underground-inkscape-preamble.tex" ns0:text="$C$" word-spacing="normal" letter-spacing="normal" font-size-adjust="none" font-stretch="normal" font-weight="normal" font-variant="normal" font-style="normal" stroke-miterlimit="10.433" xml:space="preserve" transform="matrix(2.16,0,0,-2.16,-263.24733,1059.3018)" id="g5570" style="font-style:normal;font-variant:normal;font-weight:normal;font-stretch:normal;letter-spacing:normal;word-spacing:normal;text-anchor:start;fill:#d7191c;fill-opacity:1;fill-rule:evenodd;stroke:#000000;stroke-linecap:butt;stroke-linejoin:miter;stroke-miterlimit:10.43299961;stroke-dasharray:none;stroke-dashoffset:0;stroke-opacity:1"><path id="path5572" d="m 231.85,485.02 -0.21,0 c -0.18,-0.3 -0.37,-0.32 -0.5,-0.32 -0.61,0 -1.23,0.32 -1.87,0.32 -2.87,0 -5.25,-1.93 -5.25,-4.64 0,-1.74 1.13,-3.29 3.41,-3.29 0.47,0 1.37,0.07 2.29,0.72 0.35,0.25 0.74,0.61 1.05,1.09 l -0.23,0.15 c -0.06,-0.08 -0.12,-0.15 -0.2,-0.23 -0.54,-0.58 -1.4,-1.16 -2.56,-1.16 -1.6,0 -2.31,1.2 -2.31,2.53 0,2.01 1.4,4.39 3.78,4.39 1.43,0 1.8,-0.93 1.8,-1.7 0,-0.3 0,-0.4 -0.01,-0.5 l 0.19,0 z" style="fill:#d7191c;fill-opacity:1;stroke-width:0" /></g>  <g style="font-style:normal;font-variant:normal;font-weight:normal;font-stretch:normal;letter-spacing:normal;word-spacing:normal;text-anchor:start;fill:#2b83ba;fill-opacity:1;fill-rule:evenodd;stroke:#000000;stroke-linecap:butt;stroke-linejoin:miter;stroke-miterlimit:10.43299961;stroke-dasharray:none;stroke-dashoffset:0;stroke-opacity:1" id="g5883" transform="matrix(2.16,0,0,-2.16,-61.311093,1234.2494)" xml:space="preserve" stroke-miterlimit="10.433" font-style="normal" font-variant="normal" font-weight="normal" font-stretch="normal" font-size-adjust="none" letter-spacing="normal" word-spacing="normal" ns0:text="$D$" ns0:preamble="/Users/Lizzie/Documents/Old mac/CMEP folder/underground-inkscape-preamble.tex"><path style="fill:#2b83ba;fill-opacity:1;stroke-width:0" d="m 225.73,484.94 -0.06,-0.2 0.3,0 c 0.69,0 0.91,-0.17 0.91,-0.43 0,-0.09 -0.03,-0.19 -0.05,-0.29 l -1.44,-5.86 c -0.1,-0.41 -0.37,-0.74 -1.25,-0.74 l -0.21,0 -0.05,-0.19 3.63,0 c 3.05,0 4.98,1.98 4.98,4.47 0,2.03 -1.19,3.24 -3.42,3.24 l -0.14,-0.44 c 1.74,0 2.13,-1.62 2.13,-2.98 0,-1.66 -0.94,-3.84 -3.21,-3.84 -0.42,0 -1.12,0.03 -1.12,0.51 0,0.04 0,0.1 0.05,0.32 l 1.45,5.95 c 0.19,0.02 0.46,0.04 0.7,0.04 l 0.14,0.44 z" id="path5885" /></g></svg>