<svg xmlns="http://www.w3.org/2000/svg" viewBox="0 0 500 250"><defs><style>.cls-1{fill:#fff;}.cls-2{fill:#1d1d1b;}.cls-3{fill:#d51032;}.cls-4{fill:#f4be3b;}.cls-5,.cls-6{fill:none;stroke:#1d1d1b;}.cls-5{stroke-width:0.43px;}.cls-6{stroke-width:0.14px;}</style></defs><title>foe_home_logo</title><g id="Layer_2" data-name="Layer 2"><g id="Layer_1-2" data-name="Layer 1"><rect class="cls-1" width="500" height="250"/><path class="cls-2" d="M20.41,52.16H67.67l2.16,0h4.8c2.3,0,6.08-.11,11.42-.34l2-.08c-.29,4.15-.35,5.77-.36,8l0,6.35,0,6v33.61c0,21.17-4.79,28.35-27.62,39.63-1,.5-12.65,6.3-13.86,7l-1.14.61-1.17.61-1.16-.61-1.16-.61c-4.81-2.52-9.67-4.73-13.46-6.58C7.15,135.42.45,128.13.45,105.67V72.06L.39,66l0-6.35a63.37,63.37,0,0,0-.36-8l2,.08c5.25.22,9.17.34,11.45.34h4.77Z"/><polygon class="cls-1" points="43.84 151.42 52.84 147.01 53.06 146.93 53 146.73 53 105.36 52.92 105.1 53.2 105.16 85.75 105.16 86.03 105.24 85.95 104.88 85.95 87.34 86.03 87.06 85.75 87.14 53.2 87.14 52.92 87.19 53 86.92 53 54 53.06 53.72 52.81 53.81 34.99 53.81 34.71 53.72 34.79 54 34.79 86.92 34.85 87.19 34.59 87.14 2.3 87.14 2.02 87.06 2.1 87.34 2.1 105.04 2.02 105.24 2.3 105.16 34.59 105.16 34.85 105.1 34.79 105.44 34.79 146.65 34.71 146.98 34.93 147.04 43.84 151.42"/><polygon class="cls-3" points="2.44 53.81 2.02 53.72 2.1 54.03 2.1 86.97 2.02 87.23 2.41 87.14 34.57 87.14 34.85 87.23 34.79 86.94 34.79 53.95 34.85 53.72 34.57 53.81 2.44 53.81"/><polygon class="cls-3" points="53.34 53.81 52.95 53.72 53 54.03 53 86.97 52.95 87.23 53.31 87.14 85.72 87.14 86.03 87.23 85.95 86.94 85.95 53.95 86.03 53.72 85.72 53.81 53.34 53.81"/><path class="cls-3" d="M34.71,105.16H2.22l-.2-.08.08.22v2c0,18.08,6,26.88,24.62,35.86L32.6,146l2,1,.16.2,0-.29V105.33l.06-.25Z"/><path class="cls-3" d="M53.17,105.16l-.22-.08,0,.19v41.46l0,.31.22-.25,1.86-.85C80.26,134.07,86,127,86,107.43v-2.07l.08-.28-.28.08Z"/><path class="cls-2" d="M7.39,88.77l.19.23.23.25s.12.12.25.25l.23.23-.14.11-.29.25-.22.26-.08.08v.26c0,2.28.59,3.83,1.85,4.86l.23.18-.23.15-.25,0-.54,0-.47-.09-.28,0-.29,2H7.19l-.28-2-.28,0-.45.09-.56,0-.26,0c-.11,0-.21,0-.21-.09a.29.29,0,0,1,.13-.17l.42-.33a3.46,3.46,0,0,0,1-1.43A2.2,2.2,0,0,0,7,92.93c0-.59.1-1.07.2-1.07l.06-1,0-.39-.12-.08-.22-.26-.28-.25-.12-.11.23-.23a4.26,4.26,0,0,0,.65-.73"/><path class="cls-2" d="M18,88.77a4.26,4.26,0,0,0,.65.73l.22.23-.11.11-.28.25-.23.26-.13.08.05.39.06,1c.08,1.49.9,3.22,1.77,3.69.14.07.23.14.23.18a.13.13,0,0,1-.12.14l-.37,0-.53,0-.48-.09-.28,0-.28,2h-.37l-.28-2a12,12,0,0,1-1.58.22c-.11,0-.19,0-.19-.09a.23.23,0,0,1,.12-.17l.41-.33c.37-.28.47-.42,1-1.43a2.36,2.36,0,0,0,.31-.93c0-.59.07-1.07.17-1.07l.05-1,0-.39a.29.29,0,0,0-.08-.08l-.26-.26-.28-.25-.11-.11a2.43,2.43,0,0,1,.23-.23l.25-.25.22-.25.2-.23"/><path class="cls-2" d="M12.73,95l.19.23.2.25a2.85,2.85,0,0,0,.25.25l.26.23-.14.11-.25.25-.26.23-.08.11v.26c0,2.34.55,3.8,1.85,4.85L15,102l-.23.15-.25,0L14,102l-.47-.09-.28,0-.29,2h-.39l-.28-2a12,12,0,0,1-1.58.22c-.1,0-.19,0-.19-.09s0-.11.14-.18l.42-.32c.9-.69,1.52-2.57,1.52-4.6v-.26l-.09-.11-.25-.23L12,96.08,11.83,96a5.22,5.22,0,0,0,.9-1"/><path class="cls-2" d="M23.41,95a5.22,5.22,0,0,0,.9,1l-.14.11-.25.25-.26.23-.08.11v.26a7.63,7.63,0,0,0,1,3.95l.57.65a1.56,1.56,0,0,0,.3.25l.26.19-.23.15-.25,0-.54,0-.47-.09-.28,0-.28,2h-.4l-.28-2a11.86,11.86,0,0,1-1.57.22c-.11,0-.2,0-.2-.09s.05-.11.13-.18l.4-.32c.89-.7,1.55-2.58,1.55-4.6v-.26l-.08-.11-.26-.23-.25-.25L22.51,96l.25-.23a2.85,2.85,0,0,0,.25-.25l.2-.25Z"/><path class="cls-2" d="M28.75,88.77a4.12,4.12,0,0,0,.64.73,2.43,2.43,0,0,1,.23.23l-.11.11-.28.25-.23.26-.11.08,0,.39,0,1c.08,1.45.94,3.23,1.77,3.69.15.07.24.14.24.18a.13.13,0,0,1-.11.14l-.35,0-.56,0a3.18,3.18,0,0,1-.48-.09l-.25,0-.28,2h-.4l-.28-2a9.25,9.25,0,0,1-1.58.22c-.11,0-.19,0-.19-.08a.28.28,0,0,1,.13-.18l.4-.33c.38-.29.5-.47,1-1.43a2.41,2.41,0,0,0,.31-.93c0-.59.07-1.07.17-1.07l.05-1,0-.39-.08-.08-.26-.26c-.12-.13-.21-.21-.25-.25l-.14-.11.22-.23.26-.25.22-.25.2-.23"/><path class="cls-2" d="M59.08,88.72l.2.25.19.22a3.5,3.5,0,0,0,.25.28l.26.23-.14.11-.26.25-.25.23-.09.11v.24c0,2.27.76,4.25,1.86,4.85.17.09.24.17.24.24v0l-.23.06h-.25a4.88,4.88,0,0,1-1.3-.23l-.27,2h-.4l-.28-2a5,5,0,0,1-1.3.23h-.25c-.16,0-.23,0-.23-.1s.07-.15.23-.24c1.08-.56,1.86-2.59,1.86-4.85V90.4l-.09-.11-.25-.23-.25-.25-.14-.11a3.36,3.36,0,0,0,.25-.23,2.18,2.18,0,0,0,.25-.28l.2-.22Z"/><path class="cls-2" d="M69.79,88.72,70,89l.23.22.25.28.23.23-.15.11-.25.25-.25.23L70,90.4v.24c0,2.24.77,4.26,1.86,4.85.17.09.24.17.24.24l0,0-.22.06h-.25a4.88,4.88,0,0,1-1.3-.23l-.28,2h-.39l-.28-2a4.61,4.61,0,0,1-1.4.23c-.31,0-.37,0-.37-.11s.06-.15.25-.23a2.78,2.78,0,0,0,.87-.9,4,4,0,0,0,.71-1.69c0-.6.08-1.09.19-1.09l0-1,0-.37a1.13,1.13,0,0,0-.11-.11,5,5,0,0,0-.64-.59l.25-.23.25-.28.22-.22Z"/><path class="cls-2" d="M64.44,95l.2.22c.11.12.18.21.23.25a1.78,1.78,0,0,0,.24.27s.14.11.24.21L65.2,96,65,96.3l-.25.23-.09.11,0,.37.06,1a4.88,4.88,0,0,0,1.77,3.68c.17.09.24.16.24.25l0,0-.22.06h-.25a5.32,5.32,0,0,1-1.3-.23l-.28,2h-.39l-.28-2a4.48,4.48,0,0,1-1.41.23c-.29,0-.36,0-.36-.13s.07-.13.25-.21a2.78,2.78,0,0,0,.87-.9,4.35,4.35,0,0,0,.73-1.69c0-.6.08-1.09.17-1.09l0-1,0-.37-.12-.11L64,96.3,63.69,96l-.11-.11.22-.22a4.06,4.06,0,0,0,.64-.73"/><path class="cls-2" d="M75.24,95l.2.22.22.25.25.26.23.22L76,96a2.66,2.66,0,0,1-.29.28l-.25.23-.08.11,0,.37,0,1a4.88,4.88,0,0,0,1.77,3.68c.17.09.25.16.25.25l0,0-.23.06H77a5.25,5.25,0,0,1-1.29-.23l-.28,2h-.37l-.31-2a4.48,4.48,0,0,1-1.41.23c-.29,0-.35,0-.35-.13s.06-.13.24-.21a2.68,2.68,0,0,0,.87-.9,4.59,4.59,0,0,0,.74-1.69c0-.6.07-1.09.16-1.09l.06-1,0-.37L75,96.53l-.5-.51-.11-.11.22-.22a4.67,4.67,0,0,0,.65-.73"/><path class="cls-2" d="M80.58,88.72l.2.25.22.22.25.28.23.23-.14.11-.26.25-.25.23-.08.11v.24c0,2.24.78,4.26,1.86,4.85.17.09.25.17.25.24l0,0-.23.06h-.25a4.82,4.82,0,0,1-1.29-.23l-.28,2h-.4l-.28-2a4.56,4.56,0,0,1-1.4.23c-.31,0-.37,0-.37-.11s.06-.15.25-.23a2.68,2.68,0,0,0,.87-.9,3.9,3.9,0,0,0,.71-1.69c0-.6.09-1.09.19-1.09l.06-1,0-.37-.12-.11-.22-.23-.28-.25-.11-.11.22-.23.25-.28.23-.22Z"/><path class="cls-2" d="M39,117.75a4.67,4.67,0,0,0,.65.73l.22.23-.11.11-.28.25-.23.26-.11.11,0,.36.05,1a6.18,6.18,0,0,0,.9,2.78,2.66,2.66,0,0,0,.88.9c.18.08.25.15.25.23s-.07.11-.4.11a4.57,4.57,0,0,1-1.37-.22l-.28,2h-.4l-.27-2a5.36,5.36,0,0,1-1.3.22H37c-.17,0-.24,0-.24-.1s.07-.15.24-.24a2.69,2.69,0,0,0,.87-.9,4.26,4.26,0,0,0,.73-1.68c0-.61.07-1.1.17-1.1l.05-1,0-.36-.08-.11-.26-.26-.25-.25-.14-.11.22-.23.26-.25s.12-.13.22-.26l.2-.22"/><path class="cls-2" d="M49,117.75a4.67,4.67,0,0,0,.65.73l.23.23-.12.11-.28.25-.22.26-.12.11,0,.36.06,1a6.1,6.1,0,0,0,.9,2.78,2.75,2.75,0,0,0,.87.9c.19.08.26.15.26.23s-.07.11-.4.11a4.69,4.69,0,0,1-1.38-.22l-.28,2h-.39l-.28-2a5.28,5.28,0,0,1-1.3.22H47c-.17,0-.24,0-.24-.1s.08-.15.24-.24a2.69,2.69,0,0,0,.87-.9,4.26,4.26,0,0,0,.73-1.68c0-.61.08-1.1.17-1.1l.06-1,0-.36-.09-.11-.25-.26-.25-.25-.15-.11.23-.23.25-.25.23-.26.19-.22"/><path class="cls-2" d="M43.9,126.86l.13.29.26.18.25.29.23.22-.11.11-.28.26-.23.22a1.11,1.11,0,0,1-.11.11l0,.37,0,1c.09,1.52.94,3.3,1.78,3.68.19.09.25.14.25.22l0,.06-.2.09-.25,0-.56-.06-.48-.08-.25-.06-.31,2H43.7l-.28-2a12.13,12.13,0,0,1-1.57.23c-.13,0-.21-.05-.21-.13s.07-.15.24-.24a2.79,2.79,0,0,0,.87-.9,4.32,4.32,0,0,0,.73-1.68c0-.61.07-1.1.17-1.1l.05-1,0-.37-.08-.11-.26-.22-.25-.26-.14-.11.22-.22.26-.29.22-.22Z"/><path class="cls-2" d="M38.92,136.13l.2.25.23.23.25.28.18.27-.1.07-.25.25-.25.23-.09.11,0,.36.06,1A4.88,4.88,0,0,0,41,142.91c.17.09.24.16.24.24l0,0-.22.05H40.7a8.12,8.12,0,0,1-1.3-.19l-.28,2h-.39l-.28-2a6.9,6.9,0,0,1-1.42.2c-.28,0-.35,0-.35-.13s.07-.14.25-.21a2.89,2.89,0,0,0,.87-.9,4.41,4.41,0,0,0,.73-1.69c0-.61.08-1.09.17-1.09l0-1,0-.36a1.11,1.11,0,0,0-.11-.11l-.22-.23-.29-.25-.11-.11.23-.23.25-.28.22-.23Z"/><path class="cls-2" d="M49,136.13l.17.25.23.23.21.32.27.19-.12.11-.28.25-.22.23-.12.11,0,.36.06,1a6.14,6.14,0,0,0,.9,2.78,2.86,2.86,0,0,0,.87.9c.19.08.26.14.26.22s-.07.11-.38.11a6.78,6.78,0,0,1-1.4-.19l-.28,2h-.39l-.28-2a8.27,8.27,0,0,1-1.3.19H47c-.17,0-.24,0-.24-.09s.08-.16.24-.24a2.79,2.79,0,0,0,.87-.9,4.28,4.28,0,0,0,.73-1.69c0-.61.08-1.09.17-1.09l.06-1,0-.36-.09-.11-.25-.23-.25-.25-.15-.11.23-.23.25-.28.23-.23Z"/><path class="cls-2" d="M43.9,108.59l.17.25.22.22.25.28.23.23-.11.11-.28.26-.23.22a1.11,1.11,0,0,1-.11.11l0,.37,0,1c.09,1.52,1,3.34,1.78,3.68.18.08.24.13.24.22s-.07.12-.35.12a6.2,6.2,0,0,1-1.41-.2l-.31,2H43.7l-.28-2a7.47,7.47,0,0,1-1.29.2h-.25c-.17,0-.24,0-.24-.1s.07-.15.24-.24a2.69,2.69,0,0,0,.87-.9,4.26,4.26,0,0,0,.73-1.68c0-.61.07-1.1.17-1.1l.05-1,0-.37-.08-.11-.26-.22-.25-.26-.14-.11.22-.23.26-.28.22-.22Z"/><path class="cls-2" d="M38.84,57.29l.2.23.22.25.25.25.23.23-.11.11-.28.25-.26.26L39,59l0,.39.05,1a6.06,6.06,0,0,0,.9,2.82l.56.64a2.87,2.87,0,0,0,.31.25l.24.19-.24.15-.25,0-.53-.05-.48-.08-.28-.06L39,66.12l-.34.08-.28-2-.28.06-.48.08-.53.05-.3,0c-.1,0-.18,0-.18-.1a.26.26,0,0,1,.11-.17l.42-.33c.37-.27.47-.42,1-1.43a2.54,2.54,0,0,0,.31-.93c0-.61.08-1.1.16-1.1l.06-1,0-.39-.11-.08-.23-.26-.28-.25L38,58.25l.22-.23a3.91,3.91,0,0,0,.65-.73"/><path class="cls-2" d="M49,57.29a3.91,3.91,0,0,0,.65.73l.23.23-.12.11-.28.25-.22.26-.12.08,0,.39.06,1c.08,1.49.92,3.26,1.77,3.71.15.08.24.15.24.19a.13.13,0,0,1-.11.14l-.36,0-.56-.05a4.72,4.72,0,0,1-.48-.08l-.25-.06-.28,2h-.39l-.28-2c-.62-.12-.36.2-1.59.23-.1,0-.19,0-.19-.09a.28.28,0,0,1,.13-.18l.41-.33c.37-.29.49-.47,1-1.43a2.25,2.25,0,0,0,.31-.93c0-.61.08-1.1.17-1.1l.06-1,0-.39-.09-.08-.25-.26-.25-.25-.15-.11.23-.23.25-.25.23-.25.19-.23"/><path class="cls-2" d="M43.84,66.09l.2.22.22.26.26.28.22.22-.14.12-.25.25-.25.22-.09.12,0,.36,0,1c.08,1.53.91,3.28,1.8,3.76.17.1.24.17.24.25l0,0-.22.06h-.26A4.82,4.82,0,0,1,44.32,73L44,75h-.39l-.28-2A4.48,4.48,0,0,1,42,73.2c-.3,0-.37,0-.37-.11s.07-.15.26-.23a2.88,2.88,0,0,0,.87-.9,4,4,0,0,0,.7-1.68c0-.61.09-1.1.2-1.1l.05-1,0-.36-.11-.12-.22-.22-.29-.25L43,67.07l.22-.22.26-.28a2.37,2.37,0,0,0,.22-.26,1.93,1.93,0,0,0,.17-.22"/><path class="cls-2" d="M38.81,74.86l.2.22.19.26a3.37,3.37,0,0,0,.26.25l.25.22-.14.12-.25.25-.25.25-.09.09v.26a7.52,7.52,0,0,0,.93,3.87l.62.73.31.25.22.19-.22.15-.26,0-.53,0-.48-.09-.28-.06-.28,2h-.4l-.28-2a10.56,10.56,0,0,1-1.58.23c-.11,0-.19,0-.19-.09s0-.11.13-.18l.41-.32c.93-.74,1.55-2.56,1.55-4.6v-.26l-.08-.09-.26-.25a2.78,2.78,0,0,0-.25-.25l-.14-.12.25-.22a2.16,2.16,0,0,0,.26-.25l.19-.26Z"/><path class="cls-2" d="M49,74.86l.19.22.23.26.25.25.23.22a.67.67,0,0,0-.14.12l-.26.25-.25.25-.08.09,0,.39.06,1A4.92,4.92,0,0,0,51,81.63l.22.19L51,82l-.25,0-.54,0-.47-.09-.29-.06-.28,2h-.39l-.31-2.11c-.51.12-.53.21-.7.23l-.56,0-.26,0h0c-.09,0-.17,0-.17-.09a.27.27,0,0,1,.12-.18l.42-.32c.37-.28.47-.43,1-1.43a2.6,2.6,0,0,0,.31-.93c0-.59.07-1.07.16-1.07l.06-1,0-.39-.12-.09-.22-.25-.28-.25-.11-.12c.09-.1.17-.17.22-.22a4.67,4.67,0,0,0,.65-.73"/><path class="cls-2" d="M27.91,70.33l.11.43c.1.37.17.67.22.89.36,1.61.66,2,1.44,2a1,1,0,0,0,.93-.62l.16-.56a.28.28,0,0,1,.27-.21c.31,0,.45.32.46,1a13.48,13.48,0,0,0,.2,1.38,6.54,6.54,0,0,1,.11,1.23,2,2,0,0,1-.17.88,11.33,11.33,0,0,1,.17,1.72,3.41,3.41,0,0,1-.34,1.68,3.47,3.47,0,0,1,.15,1.06,5.15,5.15,0,0,1-.09.94,7.33,7.33,0,0,0-.15,1,1,1,0,0,0,.07.37,1.5,1.5,0,0,1,.08.34c0,.08,0,.14-.08.14l-.57-.22-.61-.34a3,3,0,0,1-.65-.51c-.55.5-.71.57-2.14,1a2,2,0,0,0-.61.25.9.9,0,0,1-.38.2c-.24,0-.36-.39-.36-1.19a6,6,0,0,1,.18-1.57,3.23,3.23,0,0,0-1-.25l-.43.06h-.1c-.09,0-.16-.13-.16-.27a2.4,2.4,0,0,1,.17-.61l.29-.68a2.39,2.39,0,0,1,.67-.81,1.76,1.76,0,0,1,.73-.42l1-.2c.61-.12,1-.44,1-.85s-.27-.68-.87-.9l-1.21-.42a6.29,6.29,0,0,1-1.1-.53c-.67-.4-.78-.45-.94-.45s-.38.18-.38.5a.78.78,0,0,0,.79.85.71.71,0,0,0,.28-.06,1.07,1.07,0,0,1,.29-.08.18.18,0,0,1,.2.21v.12l-.06.48a3.78,3.78,0,0,1-.9,1.69l-.25.34a3.9,3.9,0,0,1-1.52,2.22l-.31.22a4.37,4.37,0,0,0-.22.4,6.13,6.13,0,0,1-.56.67,5.91,5.91,0,0,1-.71.65,2.8,2.8,0,0,0-.56.5l-.28.48a.27.27,0,0,1-.23.14c-.24,0-.47-.26-.61-.7s-.2-.42-.41-.42a2.52,2.52,0,0,0-.49.08l-.4.06H17a4.55,4.55,0,0,0-1.54.28.81.81,0,0,1-.29.09c-.07,0-.12,0-.19-.18a.38.38,0,0,1-.07-.22,5.28,5.28,0,0,1,.86-2.25,2.87,2.87,0,0,1,.75-.9,1.23,1.23,0,0,0-.78-1l-.48-.14a.15.15,0,0,1-.11-.14c0-.15.22-.35.64-.57a3.63,3.63,0,0,1,1.55-.45,2.32,2.32,0,0,1,1.43.59c.76.6,1,.71,1.34.71a1.21,1.21,0,0,0,1.17-1.13,2.57,2.57,0,0,0-.74-1.49,3.45,3.45,0,0,1-1-2.28,3,3,0,0,1,.31-1.32l.28-.42a.5.5,0,0,0,.1-.27c0-.18-.22-.32-.51-.32a4.85,4.85,0,0,0-2,.73c-.33.21-.56.45-.56.6a.27.27,0,0,0,.11.22l.31.19a.14.14,0,0,1,.06.12.48.48,0,0,1-.11.22l-.56.73a9.72,9.72,0,0,1-1.19,1.24,2.34,2.34,0,0,0-.28.28l-.22.42A4.34,4.34,0,0,1,14,78.29a1.74,1.74,0,0,0-.39.31,3,3,0,0,0-.23.39,5.54,5.54,0,0,1-.36.59,5.73,5.73,0,0,1-.68.87l-.78.79A4.44,4.44,0,0,0,10.79,83c-.2.62-.38,1-.49,1s-.12-.07-.21-.17c-.56-.64-1-1-1.29-1a.68.68,0,0,0-.31.15,2.33,2.33,0,0,1-.77.28l-1,.19a2.18,2.18,0,0,0-1.54.85c-.11.12-.2.19-.25.19s-.15-.14-.15-.32l0-.27.14-.76a6.52,6.52,0,0,1,.57-1.82L6,80.39a1,1,0,0,0,.14-.45A1.51,1.51,0,0,0,4.6,78.63c-.2,0-.28-.07-.28-.19s.23-.42.54-.66a3.4,3.4,0,0,1,1.77-.73,3.77,3.77,0,0,1,1.26.34l.62.25a1.76,1.76,0,0,0,.63.14c.65,0,1.29-.59,2.07-1.94a3,3,0,0,0,.51-1.44c0-.71-.34-1.14-.9-1.14a1.78,1.78,0,0,0-1.21.53,1.24,1.24,0,0,0-.44.87l0,.31V75c0,.26-.09.41-.25.41s-.65-.38-1.75-1.72a3.28,3.28,0,0,1-1-2.41C5.19,70.1,5,69.58,5,68.72l0-.58a2.68,2.68,0,0,1-.85-2,1.53,1.53,0,0,1,.2-.74,2.91,2.91,0,0,1-.53-1.09l-.15-.59a3,3,0,0,0-.44-1C3,62.35,3,62.3,3,62.18c0-.33.22-.46,1.2-.7,0-.28-.05-.48-.05-.62a3.22,3.22,0,0,1,.09-.67l.19-1a5.5,5.5,0,0,0,.12-.91,2.94,2.94,0,0,0-.2-.89A3.11,3.11,0,0,0,4,56.7a1.13,1.13,0,0,1-.17-.38c0-.1.07-.16.2-.16a4.69,4.69,0,0,1,1.77,1.08c1.61,1.33,2,1.86,2.17,3.48,0,.13,0,.31.08.56a2.5,2.5,0,0,1,1.18,2,3.51,3.51,0,0,1-.56,1.8L8.15,66a1.66,1.66,0,0,0-.26.93,3.28,3.28,0,0,0,.54,1.68c.43.76.79,1.07,1.25,1.07.74,0,1.39-1.29,1.39-2.76v-.7a6.36,6.36,0,0,1,.07-.92c0-.44.08-.71.08-.82l0-.67v-.45a.9.9,0,0,0-.29-.54l-.62-.67A4.37,4.37,0,0,1,9,59.52,1.43,1.43,0,0,1,10.39,58a2,2,0,0,1,.59.1v-.19c0-1.24.26-2.15.6-2.15l.13,0,.51.45.62.39.17.17c0-.35,0-.38.37-.79.08-.09.21-.27.39-.53l.28-.42.14-.25c.07-.15.15-.21.23-.21s.14.1.25.4.11.25.59.68a2,2,0,0,1,.34.36,4.94,4.94,0,0,1,.22.57l.09.22a1.68,1.68,0,0,1,.56-.51l.42-.25A1.07,1.07,0,0,1,17.2,56s.09.06.14.17a4.56,4.56,0,0,0,.22.42,2.15,2.15,0,0,1,.4,1v.61A1.57,1.57,0,0,1,19.22,60a3.9,3.9,0,0,1-1.1,2.4c-.48.58-.53.69-.53,1.09,0,2.08,1.44,3.29,4,3.32l1.88,0a9,9,0,0,1,3.07.51,7.4,7.4,0,0,0,2.11.53.64.64,0,0,0,.36-.11.33.33,0,0,0,.17-.25c0-.4-.69-.71-3-1.35-4.63-1.32-6.61-3.18-6.61-6.25a4.31,4.31,0,0,1,4.53-4.21,9.68,9.68,0,0,1,2.81.48l1.15.42a1.74,1.74,0,0,0,.61.12q.59,0,.6-1c0-.36.09-.48.32-.48s.83.41,1.28,1a3.64,3.64,0,0,1,.76,1.85,1.6,1.6,0,0,1-1,1.47A2.75,2.75,0,0,1,28.24,61c-.82,0-2-.46-3.87-1.54A2.79,2.79,0,0,0,23,58.92a.73.73,0,0,0-.82.73c0,.41.31.67,1.14,1a4,4,0,0,1,2,1.09,5.61,5.61,0,0,1,2.95,1.19c2.47.78,4,2.46,4,4.39a3,3,0,0,1-3,3.22,5.31,5.31,0,0,1-1.32-.17"/><path class="cls-2" d="M80.35,70.33l.12.43c.1.37.17.67.22.89.36,1.61.66,2,1.44,2a.93.93,0,0,0,.92-.62l.17-.56a.28.28,0,0,1,.27-.21c.31,0,.47.34.49,1,0,.26.07.72.17,1.38a9,9,0,0,1,.11,1.3,1.9,1.9,0,0,1-.17.81l.06.34a6,6,0,0,1,.12,1,3.33,3.33,0,0,1-.35,2,3.42,3.42,0,0,1,.15,1,8.94,8.94,0,0,1-.09,1l-.11.84,0,.5a1.5,1.5,0,0,1,.12.34.13.13,0,0,1-.12.14l-.56-.22-.61-.34a2.78,2.78,0,0,1-.65-.51,2.29,2.29,0,0,1-1.27.71,5.51,5.51,0,0,0-1.46.5,1,1,0,0,1-.38.2c-.23,0-.38-.42-.38-1a4.72,4.72,0,0,1,.2-1.72,3.74,3.74,0,0,0-1-.25,2.55,2.55,0,0,0-.41.06h-.13c-.08,0-.13-.1-.13-.27a3.31,3.31,0,0,1,.45-1.29,2.51,2.51,0,0,1,1.38-1.23l1-.2c.6-.12,1-.44,1-.86s-.26-.67-.87-.89l-1.18-.42a6.15,6.15,0,0,1-1.13-.53l-.62-.37a.71.71,0,0,0-.3-.08c-.25,0-.4.18-.4.48a.84.84,0,0,0,.81.87.72.72,0,0,0,.29-.06.87.87,0,0,1,.26-.08c.12,0,.22.12.22.3a3.61,3.61,0,0,1-.65,1.78L77,79l-.25.34a3.83,3.83,0,0,1-1.52,2.22,1.83,1.83,0,0,0-.31.22,4.37,4.37,0,0,0-.22.4,5.53,5.53,0,0,1-.57.67,5.19,5.19,0,0,1-.7.65,2.8,2.8,0,0,0-.56.5l-.28.48a.25.25,0,0,1-.22.15c-.26,0-.49-.26-.62-.71s-.2-.42-.41-.42a2.41,2.41,0,0,0-.49.08l-.4.06h-1a4.71,4.71,0,0,0-1.58.28.71.71,0,0,1-.29.09c-.14,0-.22-.15-.22-.43a5.22,5.22,0,0,1,1.58-3.12,1.17,1.17,0,0,0-.76-1l-.5-.14a.17.17,0,0,1-.09-.14c0-.18.2-.36.65-.57a3.07,3.07,0,0,1,1.48-.45,2.25,2.25,0,0,1,1.47.59c.76.6,1,.71,1.34.71a1.21,1.21,0,0,0,1.17-1.13A2.61,2.61,0,0,0,73,76.88a3.6,3.6,0,0,1-1-2.39,2.73,2.73,0,0,1,.59-1.63.58.58,0,0,0,.12-.3c0-.15-.26-.29-.54-.29a3,3,0,0,0-1.18.34c-.85.39-1.35.75-1.35,1a.29.29,0,0,0,.14.24L70,74a.14.14,0,0,1,.06.12.4.4,0,0,1-.12.22l-.56.73a6.14,6.14,0,0,1-1.18,1.24,1.18,1.18,0,0,0-.28.28l-.22.42a4.76,4.76,0,0,1-1.21,1.27,3,3,0,0,0-.4.31,2.69,2.69,0,0,0-.25.39,8.23,8.23,0,0,1-1,1.46l-.76.79A5.77,5.77,0,0,0,63.24,83c-.23.68-.38,1-.49,1s-.12-.07-.22-.17c-.54-.63-1-1-1.27-1a.83.83,0,0,0-.33.15,2.36,2.36,0,0,1-.76.28l-1,.19a2.18,2.18,0,0,0-1.57.85c-.1.12-.18.19-.23.19s-.17-.14-.17-.34l0-.25s.05-.28.14-.76a6.1,6.1,0,0,1,.57-1.82l.5-.88a.91.91,0,0,0,.14-.45c0-.65-.6-1.17-1.52-1.31-.18,0-.28-.1-.28-.21s.22-.38.56-.64a3.26,3.26,0,0,1,1.72-.73,3.56,3.56,0,0,1,1.29.34l.62.25a1.76,1.76,0,0,0,.63.14c.65,0,1.29-.59,2.07-1.94a2.94,2.94,0,0,0,.5-1.44c0-.72-.33-1.14-.88-1.14a1.69,1.69,0,0,0-1.2.53,1.37,1.37,0,0,0-.46.9v.43c0,.23-.07.33-.24.33s-.46-.21-.95-.79l-.78-.93a3.14,3.14,0,0,1-1.07-2.41,4.05,4.05,0,0,1-1.19-2.6l0-.58a2.46,2.46,0,0,1-.82-2,1.26,1.26,0,0,1,.17-.75,2.91,2.91,0,0,1-.53-1.09l-.14-.59a3.24,3.24,0,0,0-.45-1c-.26-.35-.29-.41-.29-.51,0-.3.28-.49,1-.66l.22-.06a4.77,4.77,0,0,1-.06-.62,3.22,3.22,0,0,1,.09-.67l.2-1a5.09,5.09,0,0,0,.11-.93,2.57,2.57,0,0,0-.17-.87,2.4,2.4,0,0,0-.28-.65.73.73,0,0,1-.17-.37c0-.1.1-.17.22-.17a.79.79,0,0,1,.29.09,11.07,11.07,0,0,1,2.72,2.16,4.17,4.17,0,0,1,1,2.87,2.42,2.42,0,0,1,1.18,2.14,3,3,0,0,1-.56,1.66c-.35.52-.53.81-.57.87a1.92,1.92,0,0,0-.25,1,3.25,3.25,0,0,0,.53,1.66c.42.75.8,1.07,1.25,1.07.73,0,1.4-1.27,1.4-2.68-.06-1.19.18-2.38.21-3.57,0-.28,0-.36-.92-1.28a4.18,4.18,0,0,1-1.4-2.69A1.42,1.42,0,0,1,62.84,58a2,2,0,0,1,.59.1V57.8l0-.59.17-.73c.13-.59.2-.69.4-.69l.13,0,.51.45.62.39.17.17a1.18,1.18,0,0,1,.36-.79c.15-.18.28-.36.4-.53l.28-.42.17-.25c.11-.17.16-.22.23-.22s.13.1.22.41a.72.72,0,0,0,.25.37l.36.31a2,2,0,0,1,.62,1.15,1.63,1.63,0,0,1,.56-.51l.45-.25a1.41,1.41,0,0,1,.3-.14s.08.07.13.17a2.78,2.78,0,0,0,.22.42c.37.58.39.66.39,1.06v.57a1.53,1.53,0,0,1,1.27,1.75,3.85,3.85,0,0,1-1.07,2.41c-.48.58-.56.76-.56,1.19,0,2,1.49,3.19,4,3.22l1.85,0A9,9,0,0,1,79,67.3a7.15,7.15,0,0,0,2.12.53c.28,0,.52-.16.52-.35,0-.41-.68-.72-3-1.36-4.63-1.31-6.61-3.18-6.61-6.25a4.32,4.32,0,0,1,4.55-4.21,9.55,9.55,0,0,1,2.79.48l1.15.42a1.73,1.73,0,0,0,.6.12c.4,0,.55-.25.61-1,0-.33.13-.48.34-.48s.87.47,1.29,1a3.72,3.72,0,0,1,.73,1.89,1.6,1.6,0,0,1-1,1.43A2.75,2.75,0,0,1,80.69,61a9.49,9.49,0,0,1-3.88-1.54,2.49,2.49,0,0,0-1.34-.51.73.73,0,0,0-.83.73c0,.41.3.66,1.13,1,1.33.47,1.62.63,2,1.09a5.64,5.64,0,0,1,3,1.19c2.57.82,4,2.4,4,4.43a3,3,0,0,1-3,3.18,5.5,5.5,0,0,1-1.37-.17"/><path class="cls-2" d="M28.44,123.4a4.32,4.32,0,0,1,.37,1.32l.05,1.18c0,1.18.44,1.77,1.18,1.77a.92.92,0,0,0,.62-.19l.31-.32.12,0c.2,0,.31.13.31.37l0,.45a7.23,7.23,0,0,0,.11,1.29,7.49,7.49,0,0,1,.09,1.14,3,3,0,0,1-.25,1.37,5.45,5.45,0,0,1,.31,1.69,2.31,2.31,0,0,1-.34,1.37,3.89,3.89,0,0,1,.14.95,7.14,7.14,0,0,1-.11,1.08,5.52,5.52,0,0,0-.11,1.34v.08c0,.17-.06.26-.17.26a.5.5,0,0,1-.34-.22c-.17-.22-.28-.3-.41-.3s-.26.1-.55.94a3.56,3.56,0,0,1-.67,1,2.68,2.68,0,0,0-.51.82c-.09.33-.14.53-.16.59a.25.25,0,0,1-.18.14h0c-.46,0-1-1-1.54-2.87-.15-.53-.35-.76-.63-.76a.55.55,0,0,0-.49.31l-.17.4a.17.17,0,0,1-.15.11c-.22,0-.57-.41-.78-.93a3.64,3.64,0,0,1-.27-1.29c0-.88.64-1.54,2.6-2.65a2.17,2.17,0,0,0,1.19-2.19,2.14,2.14,0,0,0-1-1.94,2.19,2.19,0,0,0-1.25-.61.43.43,0,0,0-.47.4c0,.26.15.42.51.55s.63.31.63.5a2.71,2.71,0,0,1-.49,1,2.57,2.57,0,0,1-.89.93,2.58,2.58,0,0,1-1.35,1.82,3,3,0,0,1-.57,1l-.59.76A2.65,2.65,0,0,0,22,137c-.06.43-.1.51-.26.51s-.69-.39-1.14-1a1.36,1.36,0,0,1-.37-.93,1.46,1.46,0,0,1-1,.34,2.36,2.36,0,0,0-.75.19,2.14,2.14,0,0,1-.66.29c-.11,0-.15-.06-.16-.26l0-.62a4.37,4.37,0,0,1,.85-2.5,2.82,2.82,0,0,0-1.38-.73c-.17,0-.21,0-.21-.1a1.11,1.11,0,0,1,.27-.52,3.85,3.85,0,0,1,.5-.56,2.8,2.8,0,0,1,1.63-.59,5.06,5.06,0,0,1,1.6.39,2.06,2.06,0,0,0,.67.14c.31,0,.49-.2.49-.55a7.58,7.58,0,0,0-.82-2.6,5.21,5.21,0,0,1-.56-1.85,2.69,2.69,0,0,1,1-2.28,1.22,1.22,0,0,0-.63-.17,1.59,1.59,0,0,0-.86.29c-.42.24-.65.45-.65.59s.08.15.23.25.25.21.25.42a3.21,3.21,0,0,1-1.38,2.22,2.49,2.49,0,0,1-1.51,2,2.86,2.86,0,0,1-.62,1.29,4.77,4.77,0,0,0-1,1.94c-.07.3-.14.43-.23.43s-.37-.19-.64-.49a4.48,4.48,0,0,1-.45-.53,2.58,2.58,0,0,1-.31-.9,1.12,1.12,0,0,1-.4.07l-.42,0h-.28a3.49,3.49,0,0,0-1.6.34.69.69,0,0,1-.24.12c-.19,0-.33-.39-.33-.86A4.51,4.51,0,0,1,11.6,128a5,5,0,0,1-.53-.5.88.88,0,0,0-.22-.2l-.31-.17c-.11-.06-.17-.13-.17-.18s.41-.55.9-.86a2.56,2.56,0,0,1,1.36-.51c.46,0,.7.12,1.28.62.4.34.67.51.86.51a.53.53,0,0,0,.4-.26.68.68,0,0,0,.15-.42A3,3,0,0,0,14,124.13a3.06,3.06,0,0,0-1.67-.54,1.89,1.89,0,0,0-1.75,1l-.31.65c-.08.15-.17.22-.27.22s-.28-.08-.92-.82l-.72-.84a2.13,2.13,0,0,1-.45-.73,1.39,1.39,0,0,0-.15-.36,1.14,1.14,0,0,0-.28-.23,3.67,3.67,0,0,1-1.2-2.33l-.09-.37A4.61,4.61,0,0,1,5.05,117a1.46,1.46,0,0,1,.06-.39c-.4-.4-.44-.5-.76-1.57a4.12,4.12,0,0,0-.64-1.46.43.43,0,0,1-.12-.22c0-.15.24-.27.65-.34A2.4,2.4,0,0,1,4.8,113l.56,0,0-.77A5,5,0,0,1,5.48,111a3.87,3.87,0,0,0,.08-.59s0-.21-.06-.48a2.2,2.2,0,0,0-.08-.42.81.81,0,0,1-.06-.24c0-.09.06-.14.17-.14a1,1,0,0,1,.37.13,6.89,6.89,0,0,1,1.21.73,4.3,4.3,0,0,1,1.73,2.64l0,.22a4,4,0,0,0-.05.42.8.8,0,0,0,.19.45l.31.43a2.07,2.07,0,0,1,.45,1.1c0,.26-.05.38-.51,1a2.2,2.2,0,0,0-.47,1.26,3.84,3.84,0,0,0,.56,1.78c.33.58.71.9,1.08.9.63,0,.9-.56,1-2,0-.79.12-1.49.22-2.14l0-.39c0-.17-.05-.27-.28-.54l-.84-1c-.81-.94-1-1.43-1-2.1a1.22,1.22,0,0,1,1.25-1.31l.33,0v-.23a2.8,2.8,0,0,1,.14-.76c.18-.61.4-1.07.52-1.07a.94.94,0,0,1,.27.14,2.92,2.92,0,0,0,.51.2,3.5,3.5,0,0,1,.56.28,2.29,2.29,0,0,1,.45-1c.36-.47.77-.85.92-.85s.25.13.45.34l.54.57a2,2,0,0,1,.31.53l.11.25.34-.2.45-.25.53-.25a1.09,1.09,0,0,1,.29-.15c.09,0,.15.17.36,1.1a6.26,6.26,0,0,1,.19,1.24,1.41,1.41,0,0,1,1.32,1.61,4.23,4.23,0,0,1-1.4,2.83.84.84,0,0,0-.32.67c0,2.49.86,3.27,4,3.61a19.76,19.76,0,0,1,4.78,1,9.2,9.2,0,0,0,2.35.52c.53,0,.83-.19.83-.53,0-.53-.38-.69-2.61-1.16-5.21-1.1-7.26-2.88-7.26-6.31a4.18,4.18,0,0,1,4.28-4.29,6.73,6.73,0,0,1,3.56,1.21c1.42.81,1.71,1,2,1s.52-.24.52-.85c0-.39.12-.58.37-.58a1.48,1.48,0,0,1,.87.59,2,2,0,0,1,.64,1.6,1.92,1.92,0,0,1-1.6,2l-.25.28a2.31,2.31,0,0,1-2,.87,4.68,4.68,0,0,1-2.49-.82l-1.35-1a2.49,2.49,0,0,0-1.41-.59.85.85,0,0,0-.92.92,1.27,1.27,0,0,0,1,1.22l1.26.39a6.35,6.35,0,0,1,1.21.51,3.56,3.56,0,0,1,.63-.06,5.4,5.4,0,0,1,2.38.59,2.43,2.43,0,0,0,.5.22l.7.2a4.31,4.31,0,0,1,2.9,4,3.06,3.06,0,0,1-3.37,3.22Z"/><path class="cls-2" d="M77.35,123a2.44,2.44,0,0,0,1.74,1.07,3.75,3.75,0,0,0,.76-.12,2,2,0,0,1,.37-.05c.14,0,.19.05.19.18a1.85,1.85,0,0,1-.14.52,2.31,2.31,0,0,0-.17.51l-.11.59-.28.5-.4.37-.11.11V127a1.52,1.52,0,0,1-.76,1.45l-.19.14-.06.22a9,9,0,0,1-.28,1,5.09,5.09,0,0,1-.54.78,5.48,5.48,0,0,0-.7,1.16c-.11.28-.2.36-.38.36s-.56-.35-.6-.76l-.14.17-.34.23-.53.36a3.43,3.43,0,0,0-.45.34l-.31.31a.27.27,0,0,1-.16.08c-.15,0-.29-.24-.43-.7l-.29-.93a3.38,3.38,0,0,1-.11-.91,1.91,1.91,0,0,1,.2-1,3.38,3.38,0,0,0-1,.2,1.09,1.09,0,0,1-.25.06c-.09,0-.15-.07-.15-.18a2,2,0,0,1,.12-.42l.36-1a2.39,2.39,0,0,1,1.93-1.42,3,3,0,0,1,.72.15,1.51,1.51,0,0,0,.42.09.56.56,0,0,0,.59-.53.43.43,0,0,0-.22-.37s-.39-.13-1-.31a2.4,2.4,0,0,1-1.24-.93c-.38-.44-.53-.57-.67-.57s-.17.07-.17.2l0,.37v.17a5.07,5.07,0,0,1-.8,2.55L71,128.88a3.51,3.51,0,0,0-.53,1.72c0,.56.25,1.06.56,1.15l.42.11a.27.27,0,0,1,.14.08.26.26,0,0,1,.09.17.46.46,0,0,1-.14.25L71,133a2.39,2.39,0,0,1-1.38,1,2.67,2.67,0,0,1-1.88,1.63l-.11.2A2.29,2.29,0,0,1,66.1,137H66a2.19,2.19,0,0,1-1,1.44,6.37,6.37,0,0,0-.65.47,1.69,1.69,0,0,0-.14.26c-.13.28-.24.39-.4.39s-.55-.28-.72-.81l-.26.16c-.31.23-.49.35-.53.37a6.43,6.43,0,0,1-1,.28,2.71,2.71,0,0,0-1.44.7l-.25.42-.12.06c-.13,0-.29-.2-.36-.45a6.6,6.6,0,0,1-.25-1.58,3.41,3.41,0,0,1,1.35-2.66v-.24a2.64,2.64,0,0,1,2.93-2.61h.28l1,0h.09a2.37,2.37,0,0,0,1.51-.62c.69-.57.89-.91.89-1.54a4.52,4.52,0,0,0-.27-1.13,4.54,4.54,0,0,1-.21-1.33,4.59,4.59,0,0,1,2-3.39c.29-.21.51-.49.51-.64s0-.12-.07-.12-.2.08-.36.22a2.52,2.52,0,0,1-.68.42l-.44.23-.51.19c-.16.06-.23.15-.23.26a.74.74,0,0,0,.06.25.57.57,0,0,1,.06.21.83.83,0,0,1-.14.32l-.4.65a2.44,2.44,0,0,1-1.15,1.13c-.31.92-.77,1.39-1.43,1.48-.53,1.08-1,1.45-1.94,1.55a3.32,3.32,0,0,1-.85,1.29,3.48,3.48,0,0,0-.36.45c-.22.4-.24.43-.34.43a1.38,1.38,0,0,1-.64-.43,1.7,1.7,0,0,1-.26-.34l-.25-.45c-.08-.14-.16-.2-.27-.2h-.18l-.62.08a1.94,1.94,0,0,0-1.12.65l-.34.5a.15.15,0,0,1-.13.09c-.26,0-.41-.56-.41-1.48a2.89,2.89,0,0,1,.4-1.73l.79-1.09a.76.76,0,0,0,.17-.43.54.54,0,0,0-.15-.36.83.83,0,0,0-.44-.33l-.59-.09c-.11,0-.15,0-.15-.09a.35.35,0,0,1,.09-.19,2.78,2.78,0,0,1,.7-.62,3.15,3.15,0,0,1,1.63-.59,2.72,2.72,0,0,1,1.46.48l.82.54a.73.73,0,0,0,.39.1c.38,0,.66-.22.93-.73a2.67,2.67,0,0,0,.37-1.3,1.74,1.74,0,0,0-1.8-1.81,2.37,2.37,0,0,0-1.46.56.89.89,0,0,0-.29.31l-.22.5c-.05.12-.13.2-.2.2s-.46-.41-.73-.93a5.94,5.94,0,0,1-.39-1A4.57,4.57,0,0,1,57,122l0-.76a2.85,2.85,0,0,1-.51-1.75,3.16,3.16,0,0,1,.2-1,2.11,2.11,0,0,1-.31-1.25l0-.35.08-.4.06-.34c-.27-.35-.35-.58-.62-1.82a3.76,3.76,0,0,0-.36-1.18.39.39,0,0,1-.09-.17c0-.16.4-.31.84-.31l.4,0a1.3,1.3,0,0,1-.12-.57,3.63,3.63,0,0,1,.2-1.12,2.11,2.11,0,0,0,.18-.69,2.44,2.44,0,0,0-.12-.85l-.22-.57a.75.75,0,0,1-.07-.29s0-.07.13-.07a4.7,4.7,0,0,1,2.44,1.38,3,3,0,0,1,1.08,2.55l0,.62a2.53,2.53,0,0,1,1.1,1.83,1.49,1.49,0,0,1-.57,1.15,2.41,2.41,0,0,0-.93,2.12c0,1.49.45,2.3,1.27,2.3s1.28-.79,1.37-2l.09-1.06c0-.28.07-.62.14-1a4.92,4.92,0,0,0,.09-.73c0-.38-.25-.85-1-1.71a3.09,3.09,0,0,1-1-2.15,1.4,1.4,0,0,1,1.4-1.49,1,1,0,0,1,.55.15,2.58,2.58,0,0,1,.31-1.26c.22-.55.45-.93.56-.93a.31.31,0,0,1,.17.11,2.1,2.1,0,0,0,.37.31l.28.2a2.85,2.85,0,0,1,.25.25,2.71,2.71,0,0,1,.87-1.43c.39-.39.54-.51.62-.51s.13,0,.2.14l.33.46.48.53a1.52,1.52,0,0,1,.34.87l.28-.17.45-.25.34-.23a.42.42,0,0,1,.18-.08s.1.08.13.2l.16.64.37.73a1.42,1.42,0,0,1,.14.73V111h.19c.55,0,1,.66,1,1.42a4.09,4.09,0,0,1-1.84,3,2.37,2.37,0,0,0-.12.74c0,2.24.59,2.71,4,3.22a18.82,18.82,0,0,1,2.3.48l2.22.73A5.75,5.75,0,0,0,79,121c.42,0,.65-.12.65-.34,0-.38-.56-.73-2.29-1.4l-2.44-1c-2.49-1-3.66-2.49-3.66-4.72A4.44,4.44,0,0,1,75.85,109a9.32,9.32,0,0,1,3.32.7,8.61,8.61,0,0,0,2.06.68c.34,0,.53-.23.58-.73s.16-.59.4-.59.72.32,1,.84a3.26,3.26,0,0,1,.37,1.46,1.61,1.61,0,0,1-1.38,1.72,2.74,2.74,0,0,1-2.26,1.16c-1.12,0-1.68-.22-3.59-1.42a2.38,2.38,0,0,0-1.47-.53,1.05,1.05,0,0,0-1.17,1c0,.51.42.85,1.35,1.1a1.45,1.45,0,0,1,.93.48,1.56,1.56,0,0,1,.47-.07,5,5,0,0,1,3,1.31,4.78,4.78,0,0,1,3.27,4,3.34,3.34,0,0,1-3.18,3.29,11.17,11.17,0,0,1-2.17-.34"/><path class="cls-4" d="M30.69,82.65a3,3,0,0,1-.11-.68l0-.22.09-.45,0-.37a1.4,1.4,0,0,0-.2-.84l-.34-.45a2,2,0,0,1-.28-.54.69.69,0,0,1-.06-.24.19.19,0,0,1,.21-.2c.07,0,.1,0,.36.16a.65.65,0,0,0,.27.1c.17,0,.26-.27.26-.75a1.65,1.65,0,0,0-.17-1l-.42-.48L30,76.4a.36.36,0,0,1-.15-.24.21.21,0,0,1,.23-.21,3,3,0,0,1,.62.14l.13,0c.11,0,.16-.07.16-.24v-.1l-.08-.6-.17-.61c-.06-.2-.09-.23-.21-.23h-.07l-.71.14-.11,0a2.5,2.5,0,0,1-2.19-1.76l-.56-1.82a3.83,3.83,0,0,0-1.35-1.72A1.22,1.22,0,0,0,25,68.9l-.51-.05c-.1,0-.15-.07-.15-.14s.1-.18.35-.18l.92.09a7.14,7.14,0,0,1,1.52.39,6,6,0,0,0,1.89.42,2,2,0,0,0,2.24-2,3.52,3.52,0,0,0-1.15-2.48,2.43,2.43,0,0,0-.93-.62.15.15,0,0,0-.14.15l0,.36v0c0,.14-.08.25-.19.25s-.3-.19-.48-.57a2.72,2.72,0,0,0-2.25-1.76c-.15,0-.26.06-.26.15a1.56,1.56,0,0,0,.14.41l.23.5a1,1,0,0,1,.09.26s0,.06-.12.06a.8.8,0,0,1-.48-.26l-.42-.45-.36-.56a2.58,2.58,0,0,0-1.16-1l-.67-.36a.7.7,0,0,0-.35-.12.13.13,0,0,0-.15.15.61.61,0,0,0,.11.31,1.52,1.52,0,0,1,.29.56.17.17,0,0,1-.15.17c-.22,0-.67-.44-1.07-1A2.9,2.9,0,0,1,21.27,60a2,2,0,0,1,2.08-2.11,4.27,4.27,0,0,1,2.11.71l1.32.81a3.58,3.58,0,0,0,1.54.51,4.26,4.26,0,0,0,.82-.14,1.52,1.52,0,0,0,.34-.15c.08,0,.13-.1.13-.15a.12.12,0,0,0-.07-.12l-.17-.06-.62-.11a4.19,4.19,0,0,1-.76-.28,12.33,12.33,0,0,1-1.4-.71,6,6,0,0,0-.93-.53c-.23-.08-.37-.18-.37-.27a.11.11,0,0,1,.12-.12.62.62,0,0,1,.3.11,2.29,2.29,0,0,0,1,.39l1.21.42a7.51,7.51,0,0,0,1.87.4.93.93,0,0,0,.92-.93,2.46,2.46,0,0,0-.48-1.24c-.07-.09-.14-.14-.19-.14s-.18.08-.18.22l0,.23L30,57a.6.6,0,0,1-.55.65A1.48,1.48,0,0,1,29,57.6L27.15,57a9.28,9.28,0,0,0-3-.65,3.61,3.61,0,0,0-3.85,3.48c0,2.24,1.57,3.68,5.45,5s4.36,1.63,4.36,2.62a1.18,1.18,0,0,1-1.21,1.06,3.27,3.27,0,0,1-.67,0L26.3,68a14,14,0,0,0-3.49-.4c-2.76,0-4.29.49-5.61,1.78a.92.92,0,0,1-.82.37h-.2l-.39,0h0a.88.88,0,0,0-.79.51l-.48.76a.43.43,0,0,1-.32.17c-.26,0-.41-.2-.69-.87a2.45,2.45,0,0,0-.59-.85L12.31,69c-.09-.08-.15-.15-.15-.21a.63.63,0,0,1,.12-.26,2.05,2.05,0,0,0,.39-.73c.08-.38.09-.4.24-.4s.22.18.24.82a2.14,2.14,0,0,0,.22.76l.31.67a.27.27,0,0,0,.26.14c.29,0,.66-.68.76-1.4s.14-.79.27-.79a.13.13,0,0,1,.12.06s.11.21.25.5a1.13,1.13,0,0,0,.37.42,1.09,1.09,0,0,0,.33.2h0c.23,0,.3-.14.36-.67l0-.28-.06-.4,0-.27c0-.18.06-.29.17-.29a.36.36,0,0,1,.21.11l.28.28a.78.78,0,0,0,.56.28c.23,0,.37-.09.37-.24a1.47,1.47,0,0,0-.26-.66l-.19-.36c-.23-.42-.41-.59-.62-.59l-.28,0-.34.14a.73.73,0,0,1-.22.06.1.1,0,0,1-.09-.11,2.65,2.65,0,0,1,.48-1.15,5.45,5.45,0,0,0,.45-2.2c.09-1.47.29-2.42.5-2.42s.19.12.19.43l0,.39v.27c0,.26.06.47.13.47.24,0,.53-.36.75-.94a1.64,1.64,0,0,0,.15-.58l0-.13-.56-1-.57-.17a.29.29,0,0,1-.19-.13A2.57,2.57,0,0,0,16.92,57a3.25,3.25,0,0,0-1.13.85c-.22.29-.34.4-.45.4a.14.14,0,0,1-.14-.14,2.28,2.28,0,0,1,.09-.46v-.16a1.92,1.92,0,0,0-1-1.58l-.17.22-.2.28-.33.4a1.53,1.53,0,0,0-.28.56,1,1,0,0,0-.06.32v.15c0,.23,0,.29-.13.29l-.07,0-.19-.28-.31-.34-.48-.31-.25-.19-.12.25a1.8,1.8,0,0,0-.14.45l0,.45,0,.48v.08c0,.24-.06.34-.21.34a1.06,1.06,0,0,1-.33-.14.75.75,0,0,0-.41-.12.7.7,0,0,0-.71.78A2.48,2.48,0,0,0,10.34,61l.36.47c.11.13.29.24.3.17l.07-.59L11,60.55v-.21c0-.18.06-.29.17-.29s.25.17.35.64l.22,1,.23,1.32a4.81,4.81,0,0,0,.34,1.13,5,5,0,0,0,.48,1c.31.4.34.46.34.55a.12.12,0,0,1-.12.13.54.54,0,0,1-.25-.09,1.13,1.13,0,0,0-.34-.11l-.22,0c-.45,0-.54.39-.54,2.26a11.35,11.35,0,0,0,.54,3.45l.59,1.49a1.93,1.93,0,0,1,.14.69c0,2-2.72,5.27-5.71,6.76a2.31,2.31,0,0,0-1.55,2.3l0,.37a3.61,3.61,0,0,1,1-.4c.84-.21,1-.32,1.13-.73l.11-.36c0-.14.11-.19.76-.54A1.17,1.17,0,0,0,9,80.54c.14-.24.26-.36.33-.36s.11,0,.11.09l0,.1-.28.8,0,.2a1.54,1.54,0,0,0,.94,1.39,2.59,2.59,0,0,1,.36-1.18l.51-.79a2.11,2.11,0,0,0,.26-1.21,5.66,5.66,0,0,0-.06-.87l0-.23c0-.14.07-.22.2-.22s.17,0,.18.08l.11.54a.28.28,0,0,0,.28.19c.27,0,.62-.35,1-1a1.43,1.43,0,0,0,.21-.74L13,77,13,76.55v-.09c0-.18.1-.31.25-.31s.11,0,.12.06l.17.64a.42.42,0,0,0,.36.37c.19,0,.51-.32.7-.7a2.53,2.53,0,0,0,.26-1.15c0-.6.06-.77.28-.77.07,0,.13,0,.14.06l.11.37c0,.13.12.22.2.22s.43-.34.64-.7a.54.54,0,0,0,.09-.26c0-.12-.08-.24-.25-.39s-.31-.28-.31-.65a1.63,1.63,0,0,1,.31-1c.13-.24.26-.46.36-.67.36-.7.48-.88.61-.88a.24.24,0,0,1,.21.25.53.53,0,0,1-.06.23.91.91,0,0,0-.12.34.21.21,0,0,0,.22.2,1.1,1.1,0,0,0,.49-.17c.08,0,.34-.15.79-.31l.93-.33a1.53,1.53,0,0,1,.56-.09,2.07,2.07,0,0,1,.5.06,4.61,4.61,0,0,0,.65.11.48.48,0,0,0,.48-.47,1.71,1.71,0,0,0-.45-.85.47.47,0,0,1-.15-.26l0-.11a.17.17,0,0,1,.15-.11c.19,0,.63.47,1,1.1,2.42,3.81,3.28,4.73,4.91,5.22s2.09.89,2.09,1.88a3.68,3.68,0,0,1-.87,2c-1.23,1.71-1.52,2.41-1.52,3.53v.21l.3-.14a2.45,2.45,0,0,1,.46-.2l.7-.14a.6.6,0,0,0,.4-.57V82l-.08-.62v-.08a.85.85,0,0,1,.26-.6.33.33,0,0,1,.14-.06.31.31,0,0,1,.23.18l.44,1a1.69,1.69,0,0,0,1,.85"/><path class="cls-4" d="M8,62.27c-.21,0-.31.18-.33.56l-.06.53a4.08,4.08,0,0,0-.07.68c0,.4.12.7.28.7s.46-.34.61-.73a2.05,2.05,0,0,0,.12-.66,1.89,1.89,0,0,0-.12-.63c-.11-.29-.26-.45-.43-.45"/><path class="cls-4" d="M5.45,57.88v.24A7.43,7.43,0,0,1,5.08,60a2.37,2.37,0,0,0-.08.51,1.25,1.25,0,0,0,.22.64.65.65,0,0,0,.26.28l.33.17.06.4a2.32,2.32,0,0,0,.08.62,3,3,0,0,1,.12.84c0,.23,0,.32-.07.32s-.3-.29-.47-.71c-.27-.68-.51-.93-.89-.93a1.84,1.84,0,0,0-.88.22,1.74,1.74,0,0,1,.17.23s.11.19.26.48l.39.76.47.9a1.35,1.35,0,0,0,.4.39l.45.25c.13.07.23.18.23.26a.23.23,0,0,1-.24.22h0l-.37-.06-.2,0c-.11,0-.16.1-.16.31A3.38,3.38,0,0,0,6.8,68.45a.54.54,0,0,1,.22.3.2.2,0,0,1-.2.18,1.17,1.17,0,0,1-.36-.11.49.49,0,0,0-.19-.06A.25.25,0,0,0,6,69a4.06,4.06,0,0,0,.51,1.27,2,2,0,0,0,1,.92l1.27.54a.18.18,0,0,1,.11.17.19.19,0,0,1-.17.19l-.25,0-.23,0-.36,0H7.81c-.18,0-.24,0-.24.12A2.64,2.64,0,0,0,8,73.2c.3.5.56.79.72.79a.23.23,0,0,0,.18-.14l.31-.65a2.14,2.14,0,0,1,.73-.56,2.27,2.27,0,0,1,.78-.31l.51-.09a.23.23,0,0,0,.2-.26c-.12-.78-.18-1.57-.26-2.35,0-.16-.05-.23-.14-.23a.43.43,0,0,0-.25.2c-.44.68-.75.9-1.22.9-1.5,0-2.63-2.63-2.63-6.12,0-.3,0-.69,0-1.16a14.12,14.12,0,0,0,.09-1.45,4.37,4.37,0,0,0-1-3.21l-.39-.4Z"/><path class="cls-4" d="M9.07,78.43a3.07,3.07,0,0,1-.81-.2L7.72,78a2.68,2.68,0,0,0-1.07-.28,1.72,1.72,0,0,0-1.17.47l.25.2.56.39.54.43a.72.72,0,0,0,.46.16,2.61,2.61,0,0,0,1.78-.95"/><path class="cls-4" d="M19.89,83.54a1.63,1.63,0,0,1,.57-.73c.78-.67,1.15-1.17,1.15-1.57v-.62c0-.36.06-.48.25-.48a.17.17,0,0,1,.17.09l.14.33a.25.25,0,0,0,.24.13c.11,0,.27-.13.41-.33L23.1,80a.86.86,0,0,0,.14-.87l-.2-.45a1.41,1.41,0,0,1-.11-.44c0-.18.09-.29.25-.29a.24.24,0,0,1,.2.09l.23.28a.26.26,0,0,0,.21.09.37.37,0,0,0,.29-.23l.23-.45a.83.83,0,0,0,.08-.25c0-.09-.09-.18-.25-.26L23.8,77a2,2,0,0,1-.84-1.8.94.94,0,0,1,.05-.3l.2-.48A1.13,1.13,0,0,0,23.3,74a1.56,1.56,0,0,0-.29-.87c-.22-.35-.34-.55-.36-.59-.17-.45-.25-.57-.39-.57-1.12.36-.59.7-1.41,1a1.34,1.34,0,0,0-.46,1c0,.73.09.93,1.05,2.6a3.4,3.4,0,0,1,.57,1.6c0,1.16-1,2-3.1,2.47l-1.29.31a2.21,2.21,0,0,0-1.71,2,2,2,0,0,1,1.24-.24h.48c.37,0,.42,0,.66-.37a2.15,2.15,0,0,1,.93-.78l.45-.2.37-.19.11,0q.15,0,.15.12a1,1,0,0,1-.26.48,1.45,1.45,0,0,0-.45,1.08,1,1,0,0,0,.3.74"/><path class="cls-4" d="M16.35,79.19a3.14,3.14,0,0,1,.85.76c.27.36.3.39.57.39a1.76,1.76,0,0,0,.41-.06l.25,0c.47-.09.62-.16.62-.27a.36.36,0,0,0-.14-.24l-.31-.28-.31-.28a1.52,1.52,0,0,0-.92-.31,1.74,1.74,0,0,0-1,.34"/><path class="cls-4" d="M25.46,80.7l.17,0,.25,0,.26,0h.12a1.22,1.22,0,0,0,1.22-1.08c0-.19-.17-.3-.49-.3-.76,0-1.23.44-1.53,1.4"/><path class="cls-4" d="M83.14,82.65a1.91,1.91,0,0,1-.09-.52l0-.38a7.56,7.56,0,0,0,.09-1.1.88.88,0,0,0-.2-.56l-.34-.45a1.26,1.26,0,0,1-.31-.77c0-.16,0-.22.15-.22l.13,0,.25.14a.71.71,0,0,0,.29.1c.17,0,.25-.27.25-.79a1.54,1.54,0,0,0-.56-1.42l-.4-.31a.32.32,0,0,1-.11-.23.2.2,0,0,1,.21-.22,1.23,1.23,0,0,1,.32.06l.32.08.12,0c.09,0,.13-.07.13-.24v-.09l-.09-.6c-.08-.61-.19-.84-.37-.84h0l-.73.14-.12,0a2.59,2.59,0,0,1-2.18-1.76l-.54-1.82A3.75,3.75,0,0,0,78,69.21a1.29,1.29,0,0,0-.59-.31l-.5-.05c-.09,0-.16-.07-.16-.14s.1-.18.31-.18a8,8,0,0,1,2.49.48,6.27,6.27,0,0,0,1.88.42c1.4,0,2.25-.74,2.25-2a3.86,3.86,0,0,0-.53-1.86,4.73,4.73,0,0,0-1.33-1.24.46.46,0,0,0-.22-.08.14.14,0,0,0-.14.14l0,.37v0c0,.14-.08.25-.18.25s-.32-.19-.5-.57a2.66,2.66,0,0,0-2.21-1.76c-.19,0-.3.07-.3.19a1,1,0,0,0,.15.37,3.31,3.31,0,0,1,.26.5.81.81,0,0,1,.06.24c0,.06,0,.08-.13.08a.8.8,0,0,1-.47-.26l-.42-.45-.37-.56a2.66,2.66,0,0,0-1.12-1l-.7-.36a.79.79,0,0,0-.37-.12c-.08,0-.12,0-.12.13a.67.67,0,0,0,.12.33,1.41,1.41,0,0,1,.26.55.16.16,0,0,1-.14.18c-.2,0-.55-.36-1-1A2.67,2.67,0,0,1,73.72,60a2.07,2.07,0,0,1,2.09-2.11,4.36,4.36,0,0,1,2.1.71l1.35.81a3.49,3.49,0,0,0,1.54.51,2.52,2.52,0,0,0,.79-.14,1.42,1.42,0,0,0,.37-.15.18.18,0,0,0,.1-.16c0-.11-.07-.16-.25-.17A8.1,8.1,0,0,1,79,58.16a8.51,8.51,0,0,0-.92-.53c-.24-.08-.39-.2-.39-.3s0-.07.12-.07l.17,0,1.22.45,1.18.42a7.29,7.29,0,0,0,1.89.4.86.86,0,0,0,.9-.91,1.79,1.79,0,0,0-.18-.78c-.17-.33-.39-.62-.48-.62s-.17.11-.17.3v.15l0,.36c0,.38-.21.63-.53.63a1.54,1.54,0,0,1-.46-.09L79.59,57a9.07,9.07,0,0,0-3-.65,3.61,3.61,0,0,0-3.87,3.48c0,2.24,1.53,3.64,5.48,5s4.33,1.63,4.33,2.64a1.14,1.14,0,0,1-1.23,1,3.28,3.28,0,0,1-.66,0L78.75,68a14,14,0,0,0-3.5-.4c-2.78,0-4.12.43-5.58,1.78a1,1,0,0,1-.85.37h-.19l-.44,0a.86.86,0,0,0-.79.51L67,71a.39.39,0,0,1-.33.17c-.29,0-.44-.2-.71-.87a2.19,2.19,0,0,0-.57-.85L64.75,69c-.09-.07-.14-.14-.14-.2a.57.57,0,0,1,.14-.27,2.51,2.51,0,0,0,.26-.4,1.39,1.39,0,0,0,.14-.33l0-.26a.2.2,0,0,1,.19-.14c.19,0,.23.13.23.82a2,2,0,0,0,.22.76l.31.67a.27.27,0,0,0,.26.14c.29,0,.65-.68.75-1.4s.15-.79.27-.79.17.07.41.56a1.13,1.13,0,0,0,.34.42.71.71,0,0,0,.33.2h0c.23,0,.31-.14.37-.67l0-.28,0-.4,0-.27c0-.18.06-.29.17-.29a.36.36,0,0,1,.21.11l.28.28a.79.79,0,0,0,.56.29c.24,0,.39-.11.39-.28s0-.21-.28-.63l-.2-.36c-.25-.48-.36-.59-.58-.59l-.29,0-.36.14a.85.85,0,0,1-.23.06s-.08-.05-.08-.11a2.48,2.48,0,0,1,.48-1.15,6.65,6.65,0,0,0,.48-2.2l.14-1.32c.08-.81.17-1.1.33-1.1s.11,0,.11.06l.09.42v.34a1.62,1.62,0,0,0,.09.74c.12,0,.3-.14.47-.38a2,2,0,0,0,.28-.56,2.75,2.75,0,0,0,.14-.74c0-.65-.27-.93-1.15-1.17a.36.36,0,0,1-.17-.09c-.09-.88.1-.77-.33-1.66l-.23.14a2.82,2.82,0,0,0-.9.71c-.26.32-.35.4-.45.4a.13.13,0,0,1-.14-.12l.11-.48v-.08a2.09,2.09,0,0,0-1-1.66l-.19.22-.2.28-.33.4a1.31,1.31,0,0,0-.32.83v.19c0,.22,0,.3-.14.3l-.06,0-.23-.28-.28-.34-.5-.31-.25-.19a2.27,2.27,0,0,0-.29,1.4v.24c0,.25-.09.41-.23.41a.94.94,0,0,1-.34-.14.79.79,0,0,0-.42-.12.75.75,0,0,0-.71.83A2.51,2.51,0,0,0,62.79,61c.22.36.51.66.64.66a3.53,3.53,0,0,0,.09-.61l-.09-.48,0-.21c0-.18.07-.29.17-.29s.26.17.36.64l.23,1,.22,1.32a4.81,4.81,0,0,0,.34,1.13,6,6,0,0,0,.47,1c.31.4.35.46.35.55a.13.13,0,0,1-.12.13.54.54,0,0,1-.25-.09,1.13,1.13,0,0,0-.34-.11l-.21,0c-.46,0-.56.37-.56,2.24a11.49,11.49,0,0,0,.54,3.47l.59,1.49a1.75,1.75,0,0,1,.14.7c0,2-2.77,5.34-5.7,6.75-1.14.54-1.48,1.11-1.58,2.67a6.33,6.33,0,0,1,1-.4c.83-.23,1-.35,1.12-.73l.12-.36c0-.16.15-.24.73-.54a1.24,1.24,0,0,0,.45-.36c.14-.25.25-.36.33-.36s.12,0,.12.14v.05l-.31.8,0,.2a1.55,1.55,0,0,0,.94,1.39c0-.15.06-.27.08-.34a2.78,2.78,0,0,1,.28-.84l.54-.79c.19-.29.22-.47.22-1.2l0-.88,0-.23a.2.2,0,0,1,.2-.23c.1,0,.18,0,.19.09l.08.54a.27.27,0,0,0,.28.19c.27,0,.62-.34,1-1a1.26,1.26,0,0,0,.2-.67,6.75,6.75,0,0,0-.09-.87v-.17a.21.21,0,0,1,.21-.23c.07,0,.13,0,.14.06l.19.64c.07.22.22.37.37.37.43,0,.88-.88.93-1.83,0-.59.1-.8.28-.8s.13,0,.14.07l.11.37c0,.13.12.22.2.22s.21-.12.39-.33a3.45,3.45,0,0,0,.25-.37.58.58,0,0,0,.09-.3c0-.14,0-.18-.26-.35a.71.71,0,0,1-.3-.59,3.64,3.64,0,0,1,.67-1.71c.46-.79.52-.88.63-.88s.19.1.19.24a.53.53,0,0,1-.06.24,1,1,0,0,0-.12.34.22.22,0,0,0,.23.2,1.16,1.16,0,0,0,.51-.17,5.67,5.67,0,0,1,.76-.31l1-.33a1.85,1.85,0,0,1,.58-.09,2.05,2.05,0,0,1,.49.06,4,4,0,0,0,.65.11.45.45,0,0,0,.45-.45,1.27,1.27,0,0,0-.17-.48,3.75,3.75,0,0,0-.26-.39c-.12-.13-.17-.21-.17-.26l0-.11a.17.17,0,0,1,.15-.11c.22,0,.66.45,1,1.1C76.94,73.9,78,75,79.62,75.53s2.09.87,2.09,1.88a3.73,3.73,0,0,1-.88,2c-1.12,1.56-1.52,2.47-1.52,3.51v.23l.31-.14a2.45,2.45,0,0,1,.46-.2l.69-.14a.59.59,0,0,0,.4-.59v0l-.06-.62v-.1c0-.35.17-.64.38-.64a.25.25,0,0,1,.21.18l.45,1a1.66,1.66,0,0,0,1,.85"/><path class="cls-4" d="M60.09,63.36l0,.45v.28c0,.45.07.65.24.65s.48-.35.61-.73a2.91,2.91,0,0,0,.15-.76,1.47,1.47,0,0,0-.15-.54c-.12-.3-.25-.44-.41-.44s-.35.31-.4,1.09"/><path class="cls-4" d="M57.9,57.88v.24a5.68,5.68,0,0,1-.2,1.2c-.11.4-.16.61-.17.64a2.16,2.16,0,0,0-.06.51,1.05,1.05,0,0,0,.48.92l.31.17.06.4a1.71,1.71,0,0,0,.08.62,3,3,0,0,1,.12.84c0,.24,0,.32-.08.32s-.29-.29-.46-.71c-.27-.68-.51-.93-.9-.93a1.83,1.83,0,0,0-.87.22A6.7,6.7,0,0,1,57,63.79c.44,1,.61,1.19,1.32,1.54.15.08.25.18.25.26a.22.22,0,0,1-.25.22l-.4-.06-.21,0c-.11,0-.15.1-.15.32a3.42,3.42,0,0,0,1.68,2.4c.14.1.23.21.23.29a.17.17,0,0,1-.09.13.24.24,0,0,1-.15.06.91.91,0,0,1-.32-.11.46.46,0,0,0-.21-.07c-.13,0-.22.13-.22.33A2.93,2.93,0,0,0,59,70.31a2.3,2.3,0,0,0,.93.92l1.26.54a.17.17,0,0,1,.12.16.2.2,0,0,1-.17.2l-.23,0-.25,0-.34,0h-.06c-.17,0-.24,0-.24.13a2.87,2.87,0,0,0,.41.91c.31.54.53.79.7.79s.13-.06.18-.14l.3-.65a3.12,3.12,0,0,1,.73-.56,2,2,0,0,1,.79-.31c.68-.09.73-.12.73-.4a2.86,2.86,0,0,0-.08-.56c0-.14-.06-.34-.09-.59l-.05-.53-.06-.62c0-.15-.05-.23-.14-.23s-.15.08-.22.2a1.69,1.69,0,0,1-1.21.9c-1.58,0-2.64-2.5-2.64-6.18l0-1.1.09-1.32v-.47a4.31,4.31,0,0,0-1-2.87l-.39-.4Z"/><path class="cls-4" d="M61.52,78.43A4.24,4.24,0,0,1,60.17,78a2.45,2.45,0,0,0-1.05-.28,1.73,1.73,0,0,0-1.2.47l.26.2.56.39.54.43a.72.72,0,0,0,.47.16c.55,0,1-.25,1.77-.95"/><path class="cls-4" d="M72.34,83.54a1.63,1.63,0,0,1,.57-.73c.78-.67,1.15-1.17,1.15-1.57v-.62c0-.36.06-.48.25-.48a.17.17,0,0,1,.17.09l.14.33a.25.25,0,0,0,.24.13c.2,0,.34-.15.69-.72a1.09,1.09,0,0,0,.2-.55,1,1,0,0,0-.06-.32l-.2-.45a1.46,1.46,0,0,1-.12-.44.26.26,0,0,1,.26-.29.24.24,0,0,1,.2.09l.22.28c0,.06.06.09.15.09a.48.48,0,0,0,.36-.23l.22-.45a.66.66,0,0,0,.09-.26c0-.09-.09-.19-.23-.25L76.25,77a2,2,0,0,1-.84-1.74,1.25,1.25,0,0,1,.08-.36l.17-.48a1.33,1.33,0,0,0,.08-.47,1.5,1.5,0,0,0-.28-.85,6.09,6.09,0,0,1-.33-.59c-.17-.42-.27-.56-.4-.56a.66.66,0,0,0-.36.13l-.28.17-.4.45-.39.2a1.34,1.34,0,0,0-.46,1c0,.61.13.94,1,2.58a3.5,3.5,0,0,1,.57,1.6c0,1.14-1.17,2.08-3.07,2.47-2.28.47-2.78.84-3,2.31a2.06,2.06,0,0,1,1.25-.24h.47c.38,0,.43,0,.67-.37a2.1,2.1,0,0,1,.93-.78l.45-.2.37-.19.1,0c.11,0,.16,0,.16.12a1,1,0,0,1-.26.48,1.6,1.6,0,0,0-.44.93,1.36,1.36,0,0,0,.29.89"/><path class="cls-4" d="M68.8,79.19a3,3,0,0,1,.84.76c.27.36.31.39.58.39a1.76,1.76,0,0,0,.41-.06l.25,0c.48-.1.63-.16.63-.29a.31.31,0,0,0-.12-.22l-.34-.28-.31-.28a1.51,1.51,0,0,0-.89-.31,1.92,1.92,0,0,0-1,.34"/><path class="cls-4" d="M77.91,80.7l.17,0,.28,0,.22,0h.15a.83.83,0,0,0,.55-.12,2.12,2.12,0,0,0,.54-.64.68.68,0,0,0,.11-.32c0-.19-.17-.3-.48-.3-.77,0-1.24.43-1.54,1.4"/><path class="cls-4" d="M28,140.1l.17-.34.39-.42a2.07,2.07,0,0,0,.52-1.46,3.33,3.33,0,0,0-.15-.91,2.33,2.33,0,0,1-.12-.49c0-.18.14-.35.27-.35s.13.05.22.14l.42.48a1,1,0,0,0,.67.42l0-.39,0-.46a3.27,3.27,0,0,0-.62-1.9c-.23-.29-.33-.46-.33-.56a.19.19,0,0,1,.16-.2.24.24,0,0,1,.11.06c.27.2.41.28.49.28s.25-.34.25-.71a2.61,2.61,0,0,0-.57-1.57l-.34-.42a.33.33,0,0,1,0-.16.22.22,0,0,1,.24-.21c.11,0,.17,0,.35.14a.37.37,0,0,0,.21.08c.22,0,.3-.3.3-1.14v-.34l0-.51c0-.59-.09-.7-.34-.7H30c-1.37,0-2-.87-2.36-3.2-.25-1.69-.88-2.89-1.66-3.15-.46-.16-.63-.26-.63-.38s.14-.16.27-.16a2.2,2.2,0,0,1,.53.14,7.75,7.75,0,0,0,2.89.68,2.31,2.31,0,0,0,2.41-2.25,3.88,3.88,0,0,0-1.28-2.73,1.62,1.62,0,0,0-.7-.42h-.05l-.15,0,.06.41.11.28,0,.12a.12.12,0,0,1-.13.11.25.25,0,0,1-.21-.12l-.5-.75A2.65,2.65,0,0,0,26.71,116c-.24,0-.38.11-.38.27a.69.69,0,0,0,.17.33.93.93,0,0,1,.26.45l0,.11a.19.19,0,0,1-.11.11h0c-.14,0-.21-.06-.82-.77a3.6,3.6,0,0,0-2.07-1.12.32.32,0,0,0-.21.08.21.21,0,0,0,0,.11.53.53,0,0,0,.19.32,1,1,0,0,1,.32.43s-.08.1-.16.1-.52-.23-1.2-.76a3.2,3.2,0,0,1-1.51-2.5,1.83,1.83,0,0,1,1.77-1.94,3.53,3.53,0,0,1,1.88.67l1.38,1a3.61,3.61,0,0,0,2.21.74,1,1,0,0,0,.48-.12c.13-.06.2-.13.2-.18s-.1-.09-.25-.13a3.25,3.25,0,0,1-1.18-.5l-1.41-1.07a10.63,10.63,0,0,0-1.09-.76c-.74-.39-.89-.48-.89-.57s.07-.07.16-.07a.59.59,0,0,1,.25,0l.73.31a9.14,9.14,0,0,1,1.18.7c1.5,1,2.27,1.33,3.15,1.33a1.4,1.4,0,0,0,1.47-1.4,1.22,1.22,0,0,0-.12-.49l-.14-.28c-.05-.1-.14-.18-.17-.14l-.08.11-.09.59a.83.83,0,0,1-.08.2,1.26,1.26,0,0,1-.2.28.64.64,0,0,1-.52.2c-.43,0-.92-.23-2.24-1.07A6.91,6.91,0,0,0,24,109.35,3.64,3.64,0,0,0,20.35,113c0,2.82,1.71,4.09,7.11,5.26,2,.45,2.95,1,2.95,2s-.68,1.35-1.74,1.35a4.77,4.77,0,0,1-.76,0c-.19,0-1.15-.31-2.9-.79a14.38,14.38,0,0,0-3.75-.53,5,5,0,0,0-4.51,2c-.12.16-.23.26-.3.26a.53.53,0,0,1-.24-.12l-.39-.31a2,2,0,0,0-1-.38.88.88,0,0,0-.59.24c-.14.13-.24.2-.29.2s-.45-.36-.67-.82a4.53,4.53,0,0,1-.48-1.91c0-.28.09-.48.22-.48s.17.08.21.23l.22.81c.12.46.38.82.57.82s.24-.12.42-.34a1.54,1.54,0,0,0,.22-.39c.17-.52.22-.6.36-.6s.25.11.36.63a1.61,1.61,0,0,0,.18.47,2.24,2.24,0,0,0,.34.51.41.41,0,0,0,.29.15c.25,0,.47-.42.47-.87v-.12l0-.52c0-.21,0-.27.15-.27s.11,0,.2.14a1.3,1.3,0,0,0,.47.39.86.86,0,0,0,.4.14.41.41,0,0,0,.28-.14.33.33,0,0,0,.11-.22c0-.08-.1-.21-.39-.51a3.44,3.44,0,0,1-.57-1.12c-.08-.22-.18-.37-.26-.37l-.19.06-.36.14-.25.11-.1,0a.21.21,0,0,1-.22-.19c0-.11.26-.41.57-.67a1,1,0,0,0,.36-.76c0-.47.1-.84.2-.84l.08-1a11,11,0,0,1,.43-1.94c0-.1.08-.16.11-.16s.15.21.15.44v.15l0,.28c0,.36.06.54.17.54s.26-.18.38-.49l.26-.64a1.57,1.57,0,0,0,.11-.52.85.85,0,0,0-.78-1l-.2,0-.2.06a.33.33,0,0,1-.28-.35l0-.41,0-.56-.12-.59,0-.28-.26.14-.31.25-.45.37-.36.31a.34.34,0,0,1-.21.08c-.21,0-.24-.06-.24-.49v-.11c0-.36-.16-.63-.73-1.31l-.14-.17-.11.2-.31.5-.31.79-.06.51c0,.14-.07.25-.13.25s-.15-.07-.26-.2a2.19,2.19,0,0,0-1.21-.81l-.06.19c-.1.33-.15.53-.17.59l0,.54v.4c0,.16-.06.25-.16.25h0l-.17-.14a.61.61,0,0,0-.34-.08c-.52,0-.86.28-.86.73s.12.59.64,1.38c.22.34.49.62.6.62s.12-.19.12-.4l0-.34a1.46,1.46,0,0,1-.08-.43c0-.15.05-.24.13-.24.25,0,.52.73.63,1.74l.11,1a3.32,3.32,0,0,0,.34,1.13,2.77,2.77,0,0,0,.73,1c.26.19.43.37.43.48a.16.16,0,0,1-.15.16l-.56-.19-.24,0c-.56,0-.75.32-.75,1.29a5.37,5.37,0,0,0,1.66,3.55l1.29,1a3,3,0,0,1,1.16,2c0,.82-.9,1.63-2.45,2.19l-.93.34c-.72.26-1,.72-1.29,2.08a2.18,2.18,0,0,1,.77-.15h.13l.42,0a.58.58,0,0,0,.65-.55v-.25c0-.08.1-.18.25-.26l.39-.19.31-.26a.27.27,0,0,1,.16-.06.17.17,0,0,1,.15.17.91.91,0,0,1-.05.26,2.71,2.71,0,0,0-.15,1,2.35,2.35,0,0,0,.45,1.56,3.52,3.52,0,0,1,.09-.36,4.47,4.47,0,0,1,.48-.76,3.81,3.81,0,0,0,.74-1.71v-.12l-.09-.65a.43.43,0,0,1,.14-.3.3.3,0,0,1,.2-.09c.11,0,.19.07.28.28s.15.25.2.25.29-.25.42-.56a1.61,1.61,0,0,0,.14-.59,1.18,1.18,0,0,0-.08-.37.94.94,0,0,1-.09-.31c0-.07,0-.11.11-.19a.23.23,0,0,1,.15,0,.25.25,0,0,1,.16,0l.26.17a.4.4,0,0,0,.22.09.6.6,0,0,0,.39-.31,2.32,2.32,0,0,0,.4-.81c0-.07,0-.13-.2-.23a2,2,0,0,1-.93-1.51,1.17,1.17,0,0,1,.09-.41l.28-.75c.14-.39.22-.59.22-.6l.09,0c.09,0,.15.08.15.22a.84.84,0,0,1-.07.32,1.77,1.77,0,0,0-.12.54.27.27,0,0,0,.3.3,1.27,1.27,0,0,0,.47-.11,5.68,5.68,0,0,1,1.93-.57,1.53,1.53,0,0,1,1,.38.58.58,0,0,0,.26.11.22.22,0,0,0,.16-.11.27.27,0,0,0,.06-.14.61.61,0,0,0-.17-.37.64.64,0,0,1-.2-.4.13.13,0,0,1,.15-.14c.44,0,1.13,1.39,1.79,3.6.52,1.75.67,1.93,2.33,2.87,1.42.8,2,1.59,2,2.87a16.38,16.38,0,0,1-1.07,5,4.88,4.88,0,0,0-.34,1.5,4.8,4.8,0,0,0,.28,1.34,5.84,5.84,0,0,0,.2.64,3.53,3.53,0,0,0,.22.43"/><path class="cls-4" d="M21.44,136.16a4.35,4.35,0,0,1,.54-.95,2.76,2.76,0,0,0,.61-1.38v-.45c0-.43.08-.62.25-.62a.18.18,0,0,1,.15.09l.14.22a.23.23,0,0,0,.2.11.52.52,0,0,0,.31-.23,1.92,1.92,0,0,0,.33-1l0-.3,0-.33c0-.16.06-.24.22-.24s.16.05.25.26.15.22.22.22a.32.32,0,0,0,.23-.17l.23-.33.17-.26,0-.13c0-.08-.06-.15-.21-.26a2.28,2.28,0,0,1-.79-2,8.19,8.19,0,0,0-.14-1.54c0-.06-.19-.46-.51-1.21a7.49,7.49,0,0,1-.33-1c-.07-.26-.15-.34-.36-.34a1.4,1.4,0,0,0-1.34,1.51,7,7,0,0,0,.6,2.28,6.69,6.69,0,0,1,.68,2.34c0,1-.41,1.48-1.83,2a3.49,3.49,0,0,0-2.64,2.9l.28-.11c.18-.08.31-.12.39-.15l.45-.11a1,1,0,0,0,.76-.53l.11-.4a.29.29,0,0,1,.17-.19l.25-.11.26-.12.05.12-.11.36a2.41,2.41,0,0,0-.06.66,2,2,0,0,0,.48,1.42"/><path class="cls-4" d="M6.35,110.16a1.39,1.39,0,0,1,.05.31,4.6,4.6,0,0,1-.11.73l0,.57a4.46,4.46,0,0,0,.25,1.48,2.32,2.32,0,0,1,.18.65V114c0,.12-.07.2-.11.2a.6.6,0,0,1-.29-.17,1.57,1.57,0,0,0-1-.43,4.11,4.11,0,0,0-.48.06l.14.31.43,1,.59.89.62.43a.44.44,0,0,1,.16.17.33.33,0,0,1,.09.18s0,.09-.11.1l-.57,0c-.08,0-.15.06-.15.12a4.12,4.12,0,0,0,.24.84l.28.81.48.45.5.37c.15.11.24.23.24.32a.17.17,0,0,1-.1.16l-.28,0c-.09,0-.14.1-.14.23a2.6,2.6,0,0,0,.56,1.1c.44.59.75.78,1.24.78h.42c.2,0,.33.1.33.26s-.09.21-.27.25c-.39.08-.51.16-.51.34a.6.6,0,0,0,.14.3l.23.31c.19.26.39.43.53.43a.67.67,0,0,0,.41-.26,1.84,1.84,0,0,1,.91-.62c1-.25,1.19-.34,1.19-.57a.67.67,0,0,0-.12-.32,2.62,2.62,0,0,1-.42-1.38c0-.35-.09-.59-.22-.59s-.14.08-.23.22a1.24,1.24,0,0,1-1,.6c-1,0-2.15-1.53-2.73-3.55a5.79,5.79,0,0,1-.21-1.51,8.15,8.15,0,0,1,.21-1.72c.19-.83.29-1.28.31-1.38l0-.38a3.39,3.39,0,0,0-1.64-2.29"/><path class="cls-4" d="M8.37,114.07A4.88,4.88,0,0,0,8,115.9c0,.33.11.58.25.58s.1,0,.15-.14l.31-.56c.05-.09.1-.19.2-.34a1.08,1.08,0,0,0,.2-.42,1.26,1.26,0,0,0-.71-1"/><path class="cls-4" d="M11.46,126.74a.84.84,0,0,0,.15.14l.22.23c.55.56.63.62.89.62a3,3,0,0,0,1-.29c.12,0,.19-.13.19-.19a1.07,1.07,0,0,0-.28-.31l-.31-.28a1.59,1.59,0,0,0-.74-.41,2.13,2.13,0,0,0-1.17.49"/><path class="cls-4" d="M18,131.83a3.77,3.77,0,0,1,.57.28,3.78,3.78,0,0,0,.45.28,1.11,1.11,0,0,0,.44.06.9.9,0,0,0,.34-.06l.59-.22.57-.2c.15-.05.25-.14.25-.21s-.13-.11-.31-.15a3,3,0,0,1-.42-.14c-.69-.28-.79-.32-1-.32a1.87,1.87,0,0,0-1.44.68"/><path class="cls-4" d="M25.09,137.48c.19-.45.32-.52,1-.56s1.41-1.33,1.41-2.21c0-.08,0-.16-.07-.16a.48.48,0,0,0-.19.09,3.52,3.52,0,0,1-.42.26l-.81.36a1.91,1.91,0,0,0-1,1.54,2,2,0,0,0,.15.68"/><path class="cls-4" d="M76.34,130.76l.11-.31.11-.39a2,2,0,0,1,.31-.48,2.27,2.27,0,0,0,.43-1.4,1.23,1.23,0,0,0-.15-.54.61.61,0,0,1-.09-.26.22.22,0,0,1,.06-.13.39.39,0,0,1,.11-.09h0a.49.49,0,0,1,.29.2c.12.14.23.23.29.23s.26-.21.33-.54c0-.17.06-.26.06-.28A2.39,2.39,0,0,0,78,126a.8.8,0,0,1-.08-.29.17.17,0,0,1,.16-.18.75.75,0,0,1,.37.24.33.33,0,0,0,.21.11c.18,0,.31-.18.44-.61a2.92,2.92,0,0,0,.11-.44c0-.09,0-.14-.09-.14H79l-.34,0a2.34,2.34,0,0,1-1.57-.77l-.79-.95a9.36,9.36,0,0,1-.7-.93l-.65-.42a.32.32,0,0,1-.17-.23c0-.11.11-.18.27-.18a6.27,6.27,0,0,1,1.44.52,8.93,8.93,0,0,0,2.85.62A2.44,2.44,0,0,0,81.78,120a3.58,3.58,0,0,0-1.12-2.31,1,1,0,0,0-.52-.35.15.15,0,0,0-.15.17.83.83,0,0,0,.09.31.85.85,0,0,1,0,.26c0,.13,0,.21-.14.21s-.36-.29-.51-.8-.55-1-1.4-1.43a3.13,3.13,0,0,0-.89-.32c-.06,0-.1,0-.1.12a.56.56,0,0,0,.12.33,1.46,1.46,0,0,1,.22.54v0c0,.1-.05.17-.15.17s-.23,0-.64-.68a3.17,3.17,0,0,0-1.26-1,1.41,1.41,0,0,0-.48-.12h0c-.11,0-.19,0-.19.11a1.36,1.36,0,0,0,.13.26l0,.16a.13.13,0,0,1-.13.15,3,3,0,0,1-1.1-.9,2.8,2.8,0,0,1-.73-1.68,2.16,2.16,0,0,1,2.17-2,1.68,1.68,0,0,1,.72.14l1,.5,1.16.76a4.55,4.55,0,0,0,2.12.77,3.33,3.33,0,0,0,.89-.17c.27-.08.44-.19.44-.29v0l-.1,0-.62-.06a5.34,5.34,0,0,1-1.74-.78l-1.29-.85-1.16-.47c-.08,0-.14-.1-.14-.15a.12.12,0,0,1,.13-.11l.32.06,1.07.31a7.92,7.92,0,0,1,1.3.59,6,6,0,0,0,2.49.9,1.06,1.06,0,0,0,1.13-1,3.63,3.63,0,0,0-.11-.81,1,1,0,0,0-.17-.36c0-.07-.1-.12-.14-.12s-.13.09-.13.24l0,.18v.17c0,.52-.2.7-.78.7A8.06,8.06,0,0,1,79,110.5a8,8,0,0,0-3-.74,3.94,3.94,0,0,0-4,3.7c0,1.7,1.13,3,3.44,4l2.39,1c2,.81,2.7,1.39,2.7,2.16s-.6,1-1.53,1a6.43,6.43,0,0,1-1.82-.4,16.66,16.66,0,0,0-5-1A6,6,0,0,0,67.43,122c-.16.17-.25.22-.39.22a.83.83,0,0,1-.4-.16,1.34,1.34,0,0,0-.62-.21,1,1,0,0,0-.67.38l-.29.36a.34.34,0,0,1-.25.17c-.2,0-.56-.35-.78-.76a2.37,2.37,0,0,1-.28-.73,3.81,3.81,0,0,1-.07-.77l0-.52.09-.56c0-.27.07-.43.08-.48a.16.16,0,0,1,.14-.12c.14,0,.21.14.21.44v.31c0,.8.31,1.53.66,1.53s.52-.49.72-1.46c0-.2.12-.31.21-.31s.18.14.27.56a2.31,2.31,0,0,0,.42.9c.11.15.22.23.32.23s.38-.35.49-1.15c0-.32.14-.51.25-.51a.16.16,0,0,1,.12.06s.08.13.19.3a.79.79,0,0,0,.31.29.89.89,0,0,0,.33.11.4.4,0,0,0,.26-.11c.13-.12.2-.2.2-.23s-.06-.13-.17-.25a2.85,2.85,0,0,1-.5-.93c-.12-.31-.21-.52-.26-.65a.33.33,0,0,0-.14-.19l-.09,0-.16,0-.59.17-.18,0a.12.12,0,0,1-.13-.13.56.56,0,0,1,.22-.32,4.06,4.06,0,0,0,1.3-2.89,2.85,2.85,0,0,1,.56-1.66c.08-.11.14-.17.17-.17s.17.09.17.25a1.13,1.13,0,0,1-.09.4,1,1,0,0,0-.06.34v.11l0,.17.31-.12.34-.39a2.07,2.07,0,0,0,.37-1.15.94.94,0,0,0-.23-.65c-.18-.21-.3-.29-.43-.29h-.19l-.2,0c-.18,0-.27-.06-.27-.17.24-.86-.13-1.14-.32-1.84l-.19.14-.42.25a1.2,1.2,0,0,0-.34.31c-.4.48-.43.51-.59.51s-.16,0-.16-.11l0-.12a2.74,2.74,0,0,0,.08-.58,2.67,2.67,0,0,0-.78-1.64,2.52,2.52,0,0,0-.9,1.77v.34c0,.13-.05.19-.13.19h0a.32.32,0,0,1-.2-.14L64.5,110a4.22,4.22,0,0,0-.45-.36l-.22-.2-.12.23a3.08,3.08,0,0,0-.39,1.35c0,.37,0,.48-.13.48a.46.46,0,0,1-.18-.06c-.42-.24-.46-.26-.65-.26a.83.83,0,0,0-.85.9,2.26,2.26,0,0,0,.35.93c.26.46.64.88.81.88s.06,0,.06-.17v-.06l0-.48-.05-.36v0c0-.11,0-.16.13-.16.25,0,.48.74.66,2.23a4.31,4.31,0,0,0,1.1,2.72c.15.14.23.25.23.31a.1.1,0,0,1-.11.09.89.89,0,0,1-.38-.14.55.55,0,0,0-.3-.09.81.81,0,0,0-.65.68l-.25,1.6-.2,2.25a5.87,5.87,0,0,0,.17,1.69,7.2,7.2,0,0,1,.2,1.33,3.62,3.62,0,0,1-2.79,3.53l-1.8.53a2.48,2.48,0,0,0-1.82,2.45,1.28,1.28,0,0,1,.81-.34l.54-.08a1.35,1.35,0,0,0,.47-.15,1.51,1.51,0,0,0,.31-.3l.48-.54a.87.87,0,0,1,.44-.32c.07,0,.13.08.13.17a1,1,0,0,1-.2.46,1.29,1.29,0,0,0-.21.72,1.77,1.77,0,0,0,.46,1.11,2.23,2.23,0,0,1,.11-.34,6.47,6.47,0,0,1,.42-.59,3.15,3.15,0,0,0,.68-1.27c0-.43,0-.57.15-.57s.11,0,.16.27a.3.3,0,0,0,.08.16c.07.08.13.12.17.12a.54.54,0,0,0,.23-.12,2,2,0,0,0,.45-.39,2.05,2.05,0,0,0,.28-.51,1.83,1.83,0,0,0,.14-.52v-.37c0-.09,0-.17.1-.17s.21.14.3.31.1.14.18.14h0a.41.41,0,0,0,.25-.11,1.7,1.7,0,0,0,.56-1.06l0-.52-.12-.42v0a.15.15,0,0,1,.13-.16c.13,0,.27.18.46.59.09.2.18.29.26.29s.24-.1.5-.48l.25-.37a.48.48,0,0,0,0-.56l-.22-.34a.48.48,0,0,1-.06-.28,2.71,2.71,0,0,1,.43-1.32,7.72,7.72,0,0,0,.36-.71c0-.11.09-.16.16-.16s.09.06.09.14l0,.31v.45c0,.1.11.14.25.14a.88.88,0,0,0,.29-.06l.7-.25a5.1,5.1,0,0,0,.65-.31,3.78,3.78,0,0,1,2-.74,3.43,3.43,0,0,1,1.33.4.75.75,0,0,0,.3.09.32.32,0,0,0,.24-.14.37.37,0,0,0,.08-.22.71.71,0,0,0-.11-.34,1.37,1.37,0,0,1-.17-.43.12.12,0,0,1,.13-.12.32.32,0,0,1,.21.15c.09.13.3.51.64,1.12a3.4,3.4,0,0,0,1.81,1.72l1.23.28c.38.09.48.23.48.72A2.44,2.44,0,0,1,75.44,128l-1,.65a1.84,1.84,0,0,0-.67,1.42,7.62,7.62,0,0,0,.19,1.44c1.43-1.11.8-.24,1.55-2.08.11-.27.24-.45.33-.45s.15.16.15.43v.19a2.06,2.06,0,0,0,.37,1.18"/><path class="cls-4" d="M59.72,139.28c.34-.31.4-.34,1.35-.53a1.44,1.44,0,0,0,1.29-1.27,1.09,1.09,0,0,1,.71-.95,1.67,1.67,0,0,0,.36-.28.38.38,0,0,1,.14-.12c.06,0,.1.06.1.13a1,1,0,0,1-.18.46,1.06,1.06,0,0,0-.11.54,1.83,1.83,0,0,0,.33,1.12,1.64,1.64,0,0,1,.71-.79,2.14,2.14,0,0,0,.87-1.85c0-.43.12-.65.24-.65a.13.13,0,0,1,.12.09l.2.42a.18.18,0,0,0,.18.09.61.61,0,0,0,.35-.21l.4-.36a2,2,0,0,0,.33-1.18c0-.23.11-.39.2-.39a.17.17,0,0,1,.14.14l.17.56c0,.13.12.23.2.23a.55.55,0,0,0,.22-.15,2.25,2.25,0,0,0,.4-.42,1,1,0,0,0,.19-.56v-.48a.51.51,0,0,1,.12-.31c0-.07.1-.11.12-.11s.12.05.16.14l.11.31a.32.32,0,0,0,.26.23c.15,0,.3-.13.53-.45l.16-.23a.69.69,0,0,0,.2-.36.57.57,0,0,0-.11-.2,3.08,3.08,0,0,1-.62-1.91c0-.94.36-1.72,1.43-3.18a4.32,4.32,0,0,0,1-2.25c0-.16-.08-.25-.23-.25a.78.78,0,0,0-.34.11.46.46,0,0,1-.21.08.28.28,0,0,1-.18-.11l-.2-.22-.14-.23a.29.29,0,0,0-.23-.14l-.22.06-.25,0c-.29,0-.4.11-.4.39v.29a1.45,1.45,0,0,1-.51.89l-.53.48a3.45,3.45,0,0,0-1.17,2.15,4.63,4.63,0,0,0,.24,1.22,6.17,6.17,0,0,1,.34,1.51c0,1.35-2.06,3.13-5.88,5.07-1.93,1-2.42,1.56-2.42,2.9Z"/><path class="cls-4" d="M57.87,109.8v.69a1.66,1.66,0,0,1-.06.46,3,3,0,0,0-.11.63,2.24,2.24,0,0,0,.39,1.36,2.07,2.07,0,0,1,.29,1c0,.11,0,.18-.12.18a.17.17,0,0,1-.14-.09l-.22-.31c-.18-.24-.35-.31-.81-.31l-.49,0a5.84,5.84,0,0,1,.34,1c.23.91.26,1,.76,1.43s.55.51.55.67a.22.22,0,0,1-.2.23l-.18,0h-.11c-.16,0-.29.28-.29.59a2.24,2.24,0,0,0,.17.72,1.12,1.12,0,0,0,.2.33l.28.28a.42.42,0,0,1,.11.29c0,.14-.07.25-.17.25a.63.63,0,0,1-.25-.09.53.53,0,0,0-.2-.05c-.12,0-.18.07-.18.22l0,.42.17.73a1.45,1.45,0,0,0,.31.54,1.49,1.49,0,0,0,.42.34,6,6,0,0,1,.57.25.27.27,0,0,1,.08.22.19.19,0,0,1-.19.2l-.29-.06-.28,0c-.29,0-.31,0-.31.24a1.72,1.72,0,0,0,.06.44l.11.45c.12.47.28.73.44.73a.52.52,0,0,0,.21-.11A3.45,3.45,0,0,1,60.5,123a5.53,5.53,0,0,1,1.36.14,1.32,1.32,0,0,0,.27.07c.07,0,.09-.07.09-.32l.06-.51.11-.87.09-.65v-.36l-.23.19a1.65,1.65,0,0,1-1.27.59c-1.3,0-2-1.45-2-4a26.89,26.89,0,0,1,.45-4.22,5.21,5.21,0,0,0,.09-.79,3.06,3.06,0,0,0-1.61-2.47"/><path class="cls-4" d="M59.78,116.09l.25-.25.26-.23a1.33,1.33,0,0,0,.37-.86,1,1,0,0,0-.09-.4c-.1-.21-.29-.4-.4-.4s-.19.23-.22.6l-.06.42-.08.42,0,.42Z"/><path class="cls-4" d="M57.3,127.59a1.23,1.23,0,0,1,.65.5,1.22,1.22,0,0,0,1.13.57,1.27,1.27,0,0,0,.39-.06l.37-.11.28-.09c.13,0,.22-.09.22-.14s-.22-.25-.56-.47a4.32,4.32,0,0,0-.68-.4,1.39,1.39,0,0,0-.64-.17,2.07,2.07,0,0,0-1.16.37"/><path class="cls-4" d="M61.13,135.82a10.72,10.72,0,0,0,1.23-.61l.82-.46c.52-.27.76-.46.76-.61s-.32-.29-.86-.29a1.84,1.84,0,0,0-2,1.65Z"/><path class="cls-4" d="M72.54,128.68c.4-.08.53-.18.73-.19l.51,0a2,2,0,0,0,.33-.23l.4-.28c.56-.38.59-.41.59-.53s-.23-.23-.7-.23c-.89,0-1.43.41-1.86,1.43"/><path class="cls-2" d="M14.92,61l-.14-.4,0-.22c0-.23.12-.36.43-.48a2.47,2.47,0,0,0,1-.51l.31-.28h0c.08,0,.14.09.14.21A5,5,0,0,1,15.83,61c-.29.5-.43.81-.55.81s-.27-.21-.3-.48Z"/><path class="cls-2" d="M13.26,59.82l.48.26a.3.3,0,0,1,.2.27l0,.17a1.79,1.79,0,0,0,0,.6.48.48,0,0,1-.56.5c-.09,0,0-.06-.26-.31l-.62-.7A2.57,2.57,0,0,1,12,59.34v-.07c0-.15.05-.21.17-.21a.57.57,0,0,1,.31.14Z"/><path class="cls-2" d="M15,62.75l.45-.29.26.06c.31,0,.39.09.39.44s-.32.71-.88,2.12c-.24.62-.3,1-.67,1s-.72-.33-1-1.12l-.37-.9a4,4,0,0,1-.37-1.25.37.37,0,0,1,.42-.36.72.72,0,0,1,.4.12l.34.2.33,0h.15Z"/><path class="cls-2" d="M67.46,61l-.23-.49,0-.22c0-.24.1-.35.46-.48a3.08,3.08,0,0,0,.93-.51l.31-.28h0c.08,0,.13.09.13.21a4.21,4.21,0,0,1-.72,1.6c-.29.5-.48.9-.6.9s-.28-.21-.3-.48Z"/><path class="cls-2" d="M65.71,59.82l.48.26a.37.37,0,0,1,.21.33l0,.11-.14.51-.08.56a.14.14,0,0,1-.15.12h0a1.43,1.43,0,0,1-.61-.38L65,60.61a2.35,2.35,0,0,1-.37-.79,4.21,4.21,0,0,1-.12-.48v-.08c0-.14,0-.2.17-.2a.64.64,0,0,1,.31.14Z"/><path class="cls-2" d="M67.43,62.75l.41-.29.17,0a.72.72,0,0,1,.67.63c0,.28-.37.44-.52.84l-.32,1.26c-.22.6-.52.9-.88.9s-.74-.34-1-1.12c-.15-.37-.27-.67-.37-.9a4,4,0,0,1-.36-1.17.39.39,0,0,1,.42-.44.71.71,0,0,1,.39.12l.34.2.33,0h.15Z"/><path class="cls-2" d="M12.56,112.35l-.14-.42,0-.12s0-.08.12-.08a.78.78,0,0,1,.33.18,1,1,0,0,0,.4.13c.76.2.92.34.92.71l0,.47-.11.43c0,.18-.09.24-.18.24a2.55,2.55,0,0,1-.6-.44l-.29-.39Z"/><path class="cls-2" d="M16,113.05l-.37.65-.14.16h0c-.15,0-.31-.34-.31-.69l-.06-.57c0-.23.18-.33.53-.39a1.48,1.48,0,0,0,.57-.17c.26-.19.42-.29.45-.31h0a.13.13,0,0,1,.13.14v0l-.19.47Z"/><path class="cls-2" d="M15.23,115l.45-.23a.46.46,0,0,1,.21,0c.22,0,.38.16.38.45a3.71,3.71,0,0,1-.59,1.37c-.37.68-.65,1.13-.94,1.13s-1-.65-1.53-1.72a1.85,1.85,0,0,1-.22-.78c0-.35.16-.54.46-.54a.57.57,0,0,1,.32.09l.25.17a1.35,1.35,0,0,0,.72.22,1.17,1.17,0,0,0,.49-.11"/><path class="cls-2" d="M64.05,111.57l.39.25a4.31,4.31,0,0,0,.57.31c.43.18.59.24.59.41a1.16,1.16,0,0,1-.06.32,1.8,1.8,0,0,0-.08.39c0,.39-.27.48-.43.48s-.39-.29-.7-.84a7.37,7.37,0,0,1-.45-1.13v-.1c0-.07,0-.11.12-.11Z"/><path class="cls-2" d="M67.84,112.55l-.64.65a2.13,2.13,0,0,0-.28.62.42.42,0,0,1-.2.08h0a.28.28,0,0,1-.3-.28l0-.48,0-.48v0a.29.29,0,0,1,.24-.31l.6-.16.62-.31a1.15,1.15,0,0,1,.26-.12.15.15,0,0,1,.14.16.38.38,0,0,1-.06.18Z"/><path class="cls-2" d="M65,114.46l.42.31a.72.72,0,0,0,.37.09,1.78,1.78,0,0,0,.67-.17l.36-.17a.56.56,0,0,1,.22-.06c.23,0,.4.24.4.54a2.93,2.93,0,0,1-.73,1.46l-.31.64c-.24.35-.4.48-.61.48s-.49-.19-1-1.18a3.61,3.61,0,0,1-.51-1.49c0-.3.16-.51.38-.51a.53.53,0,0,1,.33.06"/><path class="cls-4" d="M14.33,63.56H14a.19.19,0,0,0-.14.08l-.05.15.14.67.11.59c.06.32.18.45.42.45s.45-.19.48-.54l.06-.61c0-.42,0-.63,0-.64a.25.25,0,0,0-.08-.18.2.2,0,0,0-.14-.06h0Z"/><path class="cls-4" d="M66.78,63.56h-.34a.19.19,0,0,0-.14.08.35.35,0,0,0-.08.15l.14.67.11.59c.06.32.11.45.36.45a.54.54,0,0,0,.54-.54l0-.61.06-.64a.25.25,0,0,0-.08-.18.24.24,0,0,0-.15-.06h0Z"/><path class="cls-4" d="M14.58,115.64l-.31,0h0c-.18,0-.27.1-.27.31a2.61,2.61,0,0,0,.51,1.21.25.25,0,0,0,.22.12c.18,0,.31-.34.4-.9l.08-.42v-.08c0-.18,0-.24-.2-.24h-.06Z"/><path class="cls-4" d="M65.37,116l0,.53a.5.5,0,0,0,.41.48c.26,0,.44-.38.55-1,0-.28.06-.32.06-.39s-.07-.27-.33-.27h-.48c-.17,0-.24.14-.24.5Z"/><path class="cls-2" d="M33.72,88.77h3a1.53,1.53,0,0,1,1.5-1,1.64,1.64,0,0,1,1.56,1H42.2a1.7,1.7,0,0,1,1.6-1,1.66,1.66,0,0,1,1.52,1h2.27a1.66,1.66,0,0,1,1.48-1,1.77,1.77,0,0,1,1.52.85l.11.17h3.15v14.57H51.1v5.58H47.87v-5.58H39.71v5.58H36.47v-5.64H33.72Z"/><rect class="cls-3" x="34.9" y="89.97" width="17.87" height="12.25"/><path class="cls-4" d="M36.76,92.77a.85.85,0,1,0,.85.85.85.85,0,0,0-.85-.85"/><path class="cls-5" d="M36.76,92.77a.85.85,0,1,0,.85.85A.85.85,0,0,0,36.76,92.77Z"/><path class="cls-4" d="M50.79,92.77a.85.85,0,1,0,.85.85.85.85,0,0,0-.85-.85"/><path class="cls-5" d="M50.79,92.77a.85.85,0,1,0,.85.85A.85.85,0,0,0,50.79,92.77Z"/><path class="cls-4" d="M36.76,99.43a.85.85,0,0,0-.85.85.86.86,0,0,0,.88.85.84.84,0,0,0,.82-.85.85.85,0,0,0-.85-.85"/><path class="cls-5" d="M36.76,99.43a.85.85,0,0,0-.85.85.86.86,0,0,0,.88.85.84.84,0,0,0,.82-.85A.85.85,0,0,0,36.76,99.43Z"/><path class="cls-4" d="M50.79,99.43a.85.85,0,1,0,.85.85.85.85,0,0,0-.85-.85"/><path class="cls-5" d="M50.79,99.43a.85.85,0,1,0,.85.85A.85.85,0,0,0,50.79,99.43Z"/><path class="cls-4" d="M39.42,96.85A5.38,5.38,0,0,0,43.82,99,5,5,0,0,0,48,96.85a5.65,5.65,0,0,0-8.56,0"/><path class="cls-2" d="M40.27,96.85a5.26,5.26,0,0,1,3.43-1.3,5,5,0,0,1,3.4,1.33,4.33,4.33,0,0,1-3.42,1.45,4.77,4.77,0,0,1-3.41-1.48"/><path class="cls-4" d="M41.72,96.57a3.45,3.45,0,0,0,1.93.62,3.52,3.52,0,0,0,2.06-.62,4.66,4.66,0,0,0-2-.49,4.1,4.1,0,0,0-2,.49"/><rect class="cls-2" x="34.65" y="90.59" width="18.37" height="0.62"/><rect class="cls-6" x="34.65" y="90.59" width="18.37" height="0.62"/><path class="cls-4" d="M37.47,89.79v1.76a.73.73,0,0,0,.75.74.69.69,0,0,0,.78-.74V89.82c0-.67-.28-1.08-.71-1.08a1,1,0,0,0-.34.09.84.84,0,0,0-.2.11,1,1,0,0,0-.28.54Z"/><path class="cls-4" d="M43,91.24v.31a.74.74,0,0,0,.76.74.69.69,0,0,0,.77-.74V89.82c0-.66-.27-1.08-.7-1.08s-.83.41-.83,1.05Z"/><path class="cls-4" d="M48.35,89.79v1.76a.74.74,0,0,0,.76.74.69.69,0,0,0,.77-.74V89.82c0-.67-.27-1.08-.71-1.08a1.08,1.08,0,0,0-.34.09l-.2.11a1.06,1.06,0,0,0-.17.23,1,1,0,0,0-.11.31Z"/><rect class="cls-4" x="37.07" y="104.62" width="1.67" height="2.15"/><rect class="cls-4" x="37.07" y="107.25" width="1.67" height="0.68"/><rect class="cls-4" x="48.46" y="104.62" width="1.68" height="2.15"/><rect class="cls-4" x="48.46" y="107.25" width="1.68" height="0.68"/><path class="cls-2" d="M496.09,102.86H465.3v1.61h.63c2.5,0,4.82.47,4.82,3.89v33c0,3.42-2.32,3.89-4.82,3.89h-.63v1.61H498l2-9.7-1.47-.33c-2,7.28-5.35,7.73-12.54,7.73-4,0-7.8,0-7.8-4.4V125.07h7.55c4,0,4.84,2.68,5.07,6.12l1.5,0v-14.4h-1.5c-.42,3.55-1.42,5.61-5.1,5.61h-7.52V105.16H487c6.51,0,7.43,3.33,7.76,7.4l1.49-.38Zm-134.57,0h-18.4v1.61h.62c2.51,0,4.83.47,4.83,3.89v33c0,3.42-2.32,3.89-4.83,3.89h-.62v1.61h18.4v-1.61h-.63c-2.5,0-4.82-.47-4.82-3.89v-33c0-3.42,2.32-3.89,4.82-3.89h.63Zm-86.88,1.63c5.8,0,8.73,2.89,8.73,9.11,0,5.62-3.33,8.56-9.41,8.56h-3.31V104.48Zm-4,19.6h4.24c6.89,0,11,3.84,11,10.6,0,6-4,10.43-9.41,10.43-4.46,0-5.84-1.23-5.84-5.53ZM277,102.85H257.44v1.61h.87c1.62,0,4.64,0,4.64,5.11v31.94c0,2.73-2.5,3.75-4.64,3.75h-.87v1.6H279c8.24,0,14.57-5.54,14.57-12.45a10.18,10.18,0,0,0-2.93-7.34c-2.48-2.55-5.43-3.77-11-4.17,5.4-.87,11.54-3.45,11.54-10.43,0-6.3-5.06-9.63-14.23-9.63m-82.15,42.42h-.56v1.6h14.84v-1.6h-.38c-4-.15-5.91-.68-5.65-6.7l1.47-27.2s15.77,35.47,15.92,35.82h1.33c.15-.35,15.22-36.54,15.22-36.54l1.34,28.16.07,3.16c0,3-2.15,3.11-5.13,3.29h-.12v1.59h18.27v-1.59c-3.37-.13-5.16-.43-5.42-3.86l-1.71-29.2c-.36-6.23.51-7.76,5.46-7.76H250v-1.62H237.81L223.66,136.2s-14.81-33-15-33.37H196.24v1.61h.51c3.5,0,5.58,2.15,5.36,6l-1.73,27.84c-.23,4.06-.54,6.84-5.54,7m-78-37.51a23.16,23.16,0,0,0-7.22,17.08c0,14.84,9.06,23.22,23.26,23.22,7,0,13.11-2.74,17.09-7.88L148.81,138c-3.53,4.53-8.2,7-14.76,7-11.66,0-16.47-10.29-16.47-21.17,0-12.21,6-19.8,15.54-19.8,9.32,0,12.09,5.41,13.75,11.32l1.44-.19L147.85,105a34,34,0,0,0-14.92-3.16,23.76,23.76,0,0,0-16.1,5.93m25.38-54.31h.84V52.17h-11.3v1.28h.79c1.58,0,3.75,0,3.75,3.92V74.55c0,7.42-3.32,11.34-9.58,11.34-6.44,0-9.57-3.64-9.57-11.14V57.37c0-3.92,2.3-3.92,4.15-3.92h.39V52.17H106.83v1.28h.39c1.88,0,4,0,4,3.92v18.2c0,8.5,4.62,12.46,14.56,12.46,8.8,0,13.07-4.77,13.07-14.6V57.37c0-3.92,2.1-3.92,3.36-3.92m42.29,0h.55V52.17H172.38v1.28h.89c1.35,0,4.49.49,4.49,5V78.32L156.43,52.17h-9.86v1.28H147c2.75,0,4.69,1.41,4.69,4.78V79.32c0,3.53-.53,6.66-4.64,6.66h-.49v1.29H159.1V86h-.49c-4.24,0-4.75-3.15-4.75-6.68V58.17l24.2,29.28h1.87V60.11c0-6.15,2.37-6.66,4.58-6.66M174.87,129H162.56l6.16-17.15ZM192,145.27c-2.27,0-3.83-1.2-4.89-4.22l-14.34-38.2h-3.31l-14,38c-1,2.7-2.86,4.37-5.58,4.37h-.15v1.65h13.4v-1.65h-.58c-3.22,0-5.42-1-4-5.19l3.19-8.88h13.88l3.47,9.68c1,3-.3,4.44-3.62,4.44h-.39v1.62h17v-1.62Zm-2.8-58h14.66V86h-.49c-2,0-3.85-.37-3.85-3.1V56.55c0-2.72,1.85-3.1,3.85-3.1h.49V52.17H189.23v1.28h.5c2,0,3.84.38,3.84,3.1V82.88c0,2.73-1.84,3.1-3.84,3.1h-.5Zm51.26-33.82h.22V52.17h-10v1.28h.64c3.2,0,4.08,1.12,2.7,4.8l-7.71,21.58L217.24,56.9c-.7-1.9-.23-3.45,2.26-3.45h.94V52.17H205.93v1.28h.29c2.13,0,3.32.45,4.33,3l12.7,30.92h2.23l11.7-31.21c.95-2.42,2.23-2.74,3.31-2.74m28.64,33.8,1.6-7.74-1.17-.26c-1.61,5.8-4.27,6.16-10,6.16-3.2,0-6.22,0-6.22-3.5v-12h6c3.22,0,3.87,2.13,4.05,4.88l1.19,0V63.24h-1.19c-.33,2.84-1.14,4.48-4.07,4.48h-6V54h7c5.19,0,5.92,2.65,6.19,5.89l1.19-.3-.1-7.43H243.08v1.29h.5c2,0,3.84.37,3.84,3.1V82.87c0,2.72-1.85,3.1-3.84,3.1h-.5v1.28Zm18.8-17.89h-3V53.82a26,26,0,0,1,3.4-.22c4.5,0,7.48,3,7.48,7.62,0,5.71-2.41,8.14-7.87,8.14m11.31,17.91h9V86c-2.37-.13-3.5-.95-4.87-3.08l-8.61-13.11.23-.09c3.07-1.24,7-3.77,7-8.76,0-5.89-3.85-8.75-11.63-8.75H274.6v1.28h.69c1.29,0,3.7,0,3.7,4.07V83c0,2.17-2,2.94-3.7,2.94h-.69v1.29h15.26V86h-.69c-2.49,0-4.25-.3-4.25-4.26V70.79h3.88Zm16.81-27.41c0-4.2,2.82-6.53,6.62-6.53,4,0,5.9,2.75,6.51,6.34l1.32-.18L330,52.66a40.77,40.77,0,0,0-7.34-.84c-6.83,0-11.6,4-11.6,10.32,0,6.49,4.62,8.64,8.62,10.73,3.42,1.78,7.09,3.46,7.09,7.74,0,3.53-2.58,6-6.62,6-4.22,0-7.43-2.92-8.4-8l-1.28.22.85,7.61a17.63,17.63,0,0,0,8.31,2c6,0,12.42-3.25,12.42-10.48,0-6.55-4.79-8.72-9-10.82-3.4-1.71-7.06-3.34-7.06-7.29M315,124.42H311.2V104.93a29.65,29.65,0,0,1,4.25-.28c5.64,0,9.38,3.76,9.38,9.57,0,7.15-3,10.2-9.88,10.2m25.48,20.83c-3-.16-4.39-1.19-6.11-3.86L323.52,125l.29-.12c3.85-1.56,8.74-4.73,8.74-11,0-7.38-4.84-11-14.59-11H298.25v1.61h.87c1.62,0,4.64,0,4.64,5.1v32c0,2.73-2.5,3.7-4.64,3.7h-.87v1.61h19.14v-1.61h-.87c-3.12,0-5.32-.38-5.32-5.36v-13.7h4.86l13.11,20.67h11.27Zm-3.27-58h14.66V86h-.49c-2,0-3.85-.37-3.85-3.1V56.55c0-2.72,1.84-3.1,3.85-3.1h.49V52.17H337.17v1.28h.49c2,0,3.85.38,3.85,3.1V82.88c0,2.73-1.85,3.1-3.85,3.1h-.49ZM385.82,59.5l.89-9.16h-1.13c-.23,1.53-1.74,1.83-2.9,1.83H359.46c-1.24,0-2.51-.29-3-1.76h-1l-.81,9.05h1.26c.71-3.55,1.06-5.15,4.71-5.15h7.16v27.2c0,4.26-1.63,4.47-4.29,4.47h-.74v1.29h16V86H378c-2.26,0-4.29-.34-4.29-4.57V54.31h7.08c3.4,0,3.71,3.07,3.78,5.18ZM404.26,126c0,9.39-5.07,19-16.19,19-4.72,0-6.7-.76-6.7-5.43V105c1.05-.11,3.38-.2,4.47-.2,12.39,0,18.41,6.64,18.41,21.23m1.6-17.32c-4.28-4-10.41-5.83-17.73-5.83l-19.68,0v1.61h.62c2.51,0,4.83.47,4.83,3.89v33c0,3.42-2.32,3.89-4.83,3.89h-.62v1.61h20.67c6.11,0,12.14-1.46,16.45-5.73a23.19,23.19,0,0,0,6.74-16.39c0-6.6-2.23-12.17-6.45-16.09m16.76-55.19v-1.3h-9.88v1.28h.58c3.76,0,3.32,2,1.8,4.29l-6.63,10.49L401,56.61c-1.19-1.68-1-3.16,1.8-3.16h.44V52.17h-14.5v1.28h.3c2.34,0,3.45,1.41,4.93,3.54l9.68,13.83V81.61c0,3.68-1.51,4.37-4.3,4.37h-.74v1.29h16V86h-.75c-2.66,0-4.29-.32-4.29-4.77V70l8.92-13.74c.91-1.29,2.13-2.67,4.15-2.78m19.11,48.12c-11.66,0-24.05,7.07-24.05,22.58,0,14.58,9.39,24,23.93,24a51.7,51.7,0,0,0,15.48-2.32v-12c0-2.37,1.25-3.62,3.62-3.62h.51v-1.57H444.3v1.57h.51c3.26,0,5,1.25,5,3.62v10.79a18,18,0,0,1-7.12,1.1c-11.7,0-16.93-11.05-16.93-22.2,0-12.14,6.2-19.68,16.43-19.68,7.58,0,11,3,12.78,10.54l1.48-.1-.7-10.51a47.48,47.48,0,0,0-14-2.18m21.73-31.72c0,11-3.74,16.33-11.44,16.33-8.41,0-12.24-9.34-12.24-18,0-3.5.83-14.95,11.4-14.95,8,0,12.28,8.57,12.28,16.63M470,68.75c0-10.21-7.69-17.35-18.7-17.35-10.1,0-18,8.16-18,18.57S440.94,88,451.53,88,470,79.92,470,68.75m27.45-8.85,1.18-.3-.1-7.43H474v1.28h.49c2,0,3.85.38,3.85,3.1V82.88c0,2.73-1.85,3.1-3.85,3.1H474v1.28h15.65V86h-.45c-2.31,0-4.93,0-4.93-3.1v-13h6.23c3.61,0,4.12,2.79,4.15,5h1.15V63.61h-1.15c0,1.83-.45,4.12-3.36,4.12h-7V54h8c4.19,0,4.88,2.88,5.16,5.9"/><path class="cls-2" d="M118.58,190.1c0,2.6,1.41,2.64,3.38,2.67v1c-1.86,0-3.57-.08-5.28-.08s-3.38,0-5.27.08v-1c3.23,0,3.53-.59,3.53-4.2V172.08c0-3.05-.6-3.2-3.53-3.31v-1c2.63,0,5.35.08,8.06.08,3.38,0,6.8,0,10.11-.08l.22,5.24-.86.15c-.37-3.16-1.93-4.2-6-4.2h-4.38v10.56H123c3.05,0,3.31-.45,3.79-3.09h.86c-.08.71-.15,2.71-.15,4,0,1.19.07,2.94.15,3.94h-.75c-.44-2.56-.48-3.38-3.75-3.38h-4.53Z"/><path class="cls-2" d="M148.19,192.29c-1,1-2.19,2-3.68,2s-2.23-1.42-2.3-2.75c-1.75,1.59-3.42,2.75-5.73,2.75a3.75,3.75,0,0,1-4-3.61c.15-3,1.67-3.53,9.7-6.28V182c0-2.08-1.23-3.2-3.6-3.2a2.58,2.58,0,0,0-2.83,2.61c0,1-1.19,1.56-2.08,1.56a.67.67,0,0,1-.67-.75c0-2,1.67-2.9,4.28-4.23,1.3-.67,1.93-1.19,3.34-1.19,1.67,0,4.53,1.08,4.53,3.12v10.29c0,1.53.52,2.12,1.34,2.12a1.82,1.82,0,0,0,1.37-.63Zm-6-6.8c-1.9.74-6.73,1.6-6.73,4.38a2.68,2.68,0,0,0,2.64,2.68c1.75,0,2.86-1.08,4.09-2.16Z"/><path class="cls-2" d="M165.06,190.43c-1.82,2.12-4.31,3.87-7.25,3.87-3.86,0-7.39-3.76-7.39-7.7,0-5.38,3.86-9.84,9.21-9.84,1.9,0,5,.59,5,2.56a1.49,1.49,0,0,1-1.41,1.64c-1.56,0-1.49-3-5-3-3.2,0-4.87,3.56-4.87,6.39,0,3.82,2.45,7.21,6.5,7.21a6.91,6.91,0,0,0,4.54-1.75Z"/><path class="cls-2" d="M183.11,191.7c0,.66.41.7,1,.7.45,0,1,0,1.49,0v.78a37,37,0,0,0-5.35,1.16l-.19-.12v-3c-2.23,1.82-3.94,3.12-6.57,3.12-2,0-4.09-1.3-4.09-4.43v-9.51c0-1-.15-1.89-2.23-2.08v-.7c1.34,0,4.31-.26,4.79-.26s.41.26.41,1.07V188c0,1.11,0,4.31,3.23,4.31,1.27,0,2.94-1,4.5-2.27V180c0-.75-1.78-1.15-3.12-1.53v-.66c3.34-.23,5.42-.52,5.8-.52s.29.26.29.66Z"/><path class="cls-2" d="M187.83,192.77h.71c1,0,1.78,0,1.78-1.22v-20.7c0-2.42-.56-2.49-2-2.9v-.59a23.94,23.94,0,0,0,3.83-1.6,3.83,3.83,0,0,1,.82-.41c.22,0,.29.22.29.52v25.68c0,1.22.82,1.22,1.86,1.22h.63v1c-1.26,0-2.56-.08-3.9-.08s-2.67,0-4,.08Z"/><path class="cls-2" d="M203.1,189.17c0,2.45,1.34,3.12,2.34,3.12a3.68,3.68,0,0,0,2.6-1.08l.56.56a7.06,7.06,0,0,1-4.94,2.53c-2.38,0-3.53-1.27-3.53-3.46V179.32h-2.45v-.59a16.21,16.21,0,0,0,5-5.2h.44v3.79h5.54v2H203.1Z"/><path class="cls-2" d="M210,177.32c1.45,0,2.87.07,4.31.07,1.12,0,2.23-.07,3.35-.07v1c-.71.08-2,0-2,1s3.35,8.48,3.76,10h.07c.78-2.15,3.68-8.4,3.68-9.44,0-1.56-1.19-1.56-2.08-1.56v-1c1.15,0,2.34.07,3.49.07.93,0,1.86,0,2.79-.07v1c-1.75,0-2.27,1-2.94,2.38L216,200.35c-.56,1.3-1.3,1.86-2.38,1.86a1.74,1.74,0,0,1-1.82-1.78,1.9,1.9,0,0,1,1.78-1.86,1.85,1.85,0,0,1,1.52.56c1.83-3.87,2.61-6,2.61-6s-4.91-12.63-5.36-13.48a2.22,2.22,0,0,0-2.34-1.38Z"/><path class="cls-2" d="M248.32,176.76c5.16,0,9,3.42,9,8.69a8.74,8.74,0,0,1-8.55,8.85c-4.94,0-9-3.42-9-8.7A8.56,8.56,0,0,1,248.32,176.76Zm.44,16.57c3.72,0,5.17-4.31,5.17-7.51,0-3-1.64-8.1-5.58-8.1-3.67,0-5.12,4.31-5.12,7.51S244.86,193.33,248.76,193.33Z"/><path class="cls-2" d="M270.76,177.32v2H266v12.56c0,.89.93.89,1.75.89h1.67v1c-1.6,0-3.16-.08-4.76-.08s-3.08,0-4.61.08v-1h1.42c1.37,0,1.56-.63,1.56-1.19V179.32h-2.6v-.63c.85-.52,2.6-1.08,2.6-2.34,0-2.42.67-6.06,3-8.44a7.54,7.54,0,0,1,4.5-2.56c.63,0,1.67.15,1.67,1.52a1.27,1.27,0,0,1-1.3,1.45c-1.12,0-1.12-.52-2.38-.52-2.27,0-2.49,2.68-2.49,4.2v5.32Z"/><path class="cls-2" d="M290,179.55h4.9c3,0,3-2.35,3.12-3.2h.75c-.08.82-.15,2.82-.15,4.16,0,1.19.18,2.94.15,4.12H298c0-3.56-1.19-3.56-4.05-3.56h-4v6.32c0,4.12.15,5.16,3.82,5.16h2.31c3.64-.19,5.27-.67,6.72-4.64l.9.14a48.21,48.21,0,0,0-1.53,5.69c-3.71,0-7.43-.08-11.15-.08-2.75,0-5.5,0-8.24.08v-1c3.23,0,3.53-.59,3.53-4.2V172.08c0-3.05-.6-3.2-3.53-3.31v-1c2.49.08,5,.08,7.5.08,3.57,0,7.1,0,10.7-.08v5.54l-.74.19C299.7,170,298,169,294.31,169H290Z"/><path class="cls-2" d="M321.51,190.54c0,1.53.37,1.53,1.82,1.53H324v.74h0c-.56.11-1.57.41-2.64.74s-2.12.75-2.34.75c-.38,0-.41-.56-.41-1v-1.71h-.08a8.33,8.33,0,0,1-5.68,2.72c-4.46,0-6.91-3.91-6.91-8.07a9.43,9.43,0,0,1,9.17-9.47,9.24,9.24,0,0,1,3.5.67v-6.58c0-2.42-.56-2.49-2-2.9v-.59a23.77,23.77,0,0,0,3.82-1.6,4.09,4.09,0,0,1,.82-.41c.23,0,.3.22.3.52Zm-3-9.17c0-2.75-2.31-3.42-3.94-3.42-2.64,0-5.54,2-5.54,7,0,4.09,2.49,7.14,5.87,7.14,1.12,0,3.61-.82,3.61-2.2Z"/><path class="cls-2" d="M342.09,191.7c0,.66.41.7,1.05.7.44,0,1,0,1.48,0v.78a37,37,0,0,0-5.35,1.16l-.19-.12v-3c-2.22,1.82-3.93,3.12-6.57,3.12-2,0-4.09-1.3-4.09-4.43v-9.51c0-1-.15-1.89-2.23-2.08v-.7c1.34,0,4.31-.26,4.79-.26s.41.26.41,1.07V188c0,1.11,0,4.31,3.24,4.31,1.26,0,2.93-1,4.49-2.27V180c0-.75-1.78-1.15-3.12-1.53v-.66c3.35-.23,5.43-.52,5.8-.52s.29.26.29.66Z"/><path class="cls-2" d="M361.19,190.43c-1.82,2.12-4.31,3.87-7.24,3.87-3.87,0-7.4-3.76-7.4-7.7,0-5.38,3.87-9.84,9.22-9.84,1.89,0,5,.59,5,2.56a1.49,1.49,0,0,1-1.41,1.64c-1.56,0-1.49-3-5-3-3.19,0-4.87,3.56-4.87,6.39,0,3.82,2.46,7.21,6.51,7.21a6.88,6.88,0,0,0,4.53-1.75Z"/><path class="cls-2" d="M379.4,192.29c-1,1-2.2,2-3.68,2s-2.23-1.42-2.31-2.75c-1.74,1.59-3.42,2.75-5.72,2.75a3.74,3.74,0,0,1-4-3.61c.15-3,1.67-3.53,9.7-6.28V182c0-2.08-1.23-3.2-3.61-3.2a2.58,2.58,0,0,0-2.82,2.61c0,1-1.19,1.56-2.08,1.56a.67.67,0,0,1-.67-.75c0-2,1.67-2.9,4.27-4.23,1.3-.67,1.93-1.19,3.35-1.19,1.67,0,4.53,1.08,4.53,3.12v10.29c0,1.53.52,2.12,1.34,2.12a1.82,1.82,0,0,0,1.37-.63Zm-6-6.8c-1.9.74-6.73,1.6-6.73,4.38a2.68,2.68,0,0,0,2.64,2.68c1.75,0,2.86-1.08,4.09-2.16Z"/><path class="cls-2" d="M386.82,189.17c0,2.45,1.34,3.12,2.35,3.12a3.72,3.72,0,0,0,2.6-1.08l.55.56a7.06,7.06,0,0,1-4.94,2.53c-2.38,0-3.53-1.27-3.53-3.46V179.32H381.4v-.59a16.21,16.21,0,0,0,5-5.2h.44v3.79h5.54v2h-5.54Z"/><path class="cls-2" d="M394.25,192.77H395c1,0,1.78,0,1.78-1.22V181.48c0-1.64-.55-1.86-1.93-2.6v-.6c1.75-.52,3.83-1.23,4-1.34a1.27,1.27,0,0,1,.67-.18c.18,0,.26.22.26.52v14.27c0,1.22.81,1.22,1.85,1.22h.64v1c-1.27,0-2.57-.08-3.91-.08s-2.67,0-4.05.08Zm4-21.73a1.83,1.83,0,0,1,0-3.65,1.81,1.81,0,0,1,1.82,1.79A1.86,1.86,0,0,1,398.23,171Z"/><path class="cls-2" d="M413.47,176.76c5.16,0,9,3.42,9,8.69A8.73,8.73,0,0,1,414,194.3c-4.94,0-9-3.42-9-8.7A8.56,8.56,0,0,1,413.47,176.76Zm.44,16.57c3.72,0,5.17-4.31,5.17-7.51,0-3-1.64-8.1-5.58-8.1-3.68,0-5.13,4.31-5.13,7.51S410,193.33,413.91,193.33Z"/><path class="cls-2" d="M427.51,181.7c0-1.38-.41-1.75-2.16-2.45v-.71a50.56,50.56,0,0,0,4.91-1.78c.11,0,.22.07.22.37v2.42c2.12-1.53,3.94-2.79,6.43-2.79,3.16,0,4.27,2.3,4.27,5.2v9.59c0,1.22.82,1.22,1.86,1.22h.67v1c-1.3,0-2.6-.08-3.94-.08s-2.68,0-4,.08v-1h.67c1,0,1.78,0,1.78-1.22v-9.63c0-2.11-1.3-3.16-3.42-3.16a9.89,9.89,0,0,0-4.31,1.79v11c0,1.22.82,1.22,1.86,1.22H433v1c-1.3,0-2.6-.08-3.94-.08s-2.68,0-4,.08v-1h.66c1,0,1.79,0,1.79-1.22Z"/></g></g></svg>