<svg xmlns="http://www.w3.org/2000/svg" viewBox="0 0 500 250"><defs><style>.cls-1{fill:#fff;}.cls-2{fill:#1d1d1b;}.cls-3{fill:#d51032;}.cls-4{fill:#f4be3b;}.cls-5,.cls-6{fill:none;stroke:#1d1d1b;}.cls-5{stroke-width:0.43px;}.cls-6{stroke-width:0.14px;}</style></defs><title>fom_home_logo</title><g id="Layer_2" data-name="Layer 2"><g id="Layer_1-2" data-name="Layer 1"><rect class="cls-1" width="500" height="250"/><path class="cls-2" d="M21,52.05h47.2l2.16,0h4.79c2.3,0,6.08-.11,11.41-.34l2-.08c-.29,4.14-.35,5.77-.36,8l0,6.34,0,6v33.57c0,21.14-4.78,28.32-27.58,39.58-1,.5-12.64,6.29-13.86,7l-1.13.61-1.16.61-1.17-.61L42.06,152c-4.8-2.51-9.66-4.72-13.43-6.57C7.73,135.2,1,127.92,1,105.49V71.92L1,65.9l0-6.34a63.08,63.08,0,0,0-.37-8l2,.08C7.84,51.9,11.75,52,14,52h4.76Z"/><polygon class="cls-1" points="44.38 151.19 53.37 146.78 53.59 146.69 53.53 146.5 53.53 105.17 53.45 104.92 53.73 104.98 86.24 104.98 86.52 105.06 86.44 104.7 86.44 87.18 86.52 86.9 86.24 86.98 53.73 86.98 53.45 87.03 53.53 86.75 53.53 53.88 53.59 53.6 53.34 53.69 35.54 53.69 35.26 53.6 35.35 53.88 35.35 86.75 35.4 87.03 35.15 86.98 2.89 86.98 2.61 86.9 2.7 87.18 2.7 104.86 2.61 105.06 2.89 104.98 35.15 104.98 35.4 104.92 35.35 105.26 35.35 146.41 35.26 146.75 35.49 146.81 44.38 151.19"/><polygon class="cls-3" points="3.03 53.69 2.61 53.6 2.7 53.91 2.7 86.81 2.61 87.07 3 86.98 35.12 86.98 35.4 87.07 35.35 86.78 35.35 53.83 35.4 53.6 35.12 53.69 3.03 53.69"/><polygon class="cls-3" points="53.87 53.69 53.48 53.6 53.53 53.91 53.53 86.81 53.48 87.07 53.85 86.98 86.22 86.98 86.52 87.07 86.44 86.78 86.44 53.83 86.52 53.6 86.22 53.69 53.87 53.69"/><path class="cls-3" d="M35.26,105H2.81l-.2-.08.09.22v2c0,18.07,6,26.86,24.58,35.82l5.87,2.84,2.05,1,.17.19,0-.28V105.15l0-.25Z"/><path class="cls-3" d="M53.7,105l-.22-.08.06.19V146.5l-.06.31.22-.25,1.86-.85c25.2-11.86,30.88-18.93,30.88-38.46v-2.08l.08-.28-.28.09Z"/><path class="cls-2" d="M8,88.61l.2.22.22.26.26.25.22.22a.67.67,0,0,0-.14.12l-.28.25-.22.25-.09.08v.27c0,2.27.59,3.82,1.85,4.85l.23.18-.23.15-.25,0-.53-.05-.48-.09-.28-.05-.28,2H7.78l-.28-2-.28.05-.45.09-.57.05-.25,0c-.12,0-.21,0-.21-.09a.34.34,0,0,1,.13-.18l.42-.32a3.55,3.55,0,0,0,1-1.43,2.32,2.32,0,0,0,.28-.92c0-.6.09-1.07.2-1.07l.06-1,0-.4-.11-.08-.22-.25-.28-.25-.12-.12.23-.22A3.75,3.75,0,0,0,8,88.61"/><path class="cls-2" d="M18.61,88.61a4.26,4.26,0,0,0,.65.73s.13.12.22.22l-.11.12-.28.25-.22.25-.14.08.05.4.06,1c.08,1.48.91,3.21,1.77,3.68.14.07.23.14.23.18a.13.13,0,0,1-.12.14l-.37,0-.53-.05-.48-.09-.28-.05-.28,2h-.36l-.28-2a12.16,12.16,0,0,1-1.59.22c-.11,0-.19,0-.19-.09a.3.3,0,0,1,.12-.18l.42-.32c.37-.28.47-.42,1-1.43a2.17,2.17,0,0,0,.31-.92c0-.6.08-1.07.17-1.07l.06-1,0-.4-.08-.08c-.14-.15-.23-.23-.25-.25l-.28-.25-.12-.12.23-.22.25-.25.23-.26.19-.22"/><path class="cls-2" d="M13.31,94.84l.19.23.2.25a2.85,2.85,0,0,0,.25.25l.25.23-.13.11-.26.25-.25.23-.08.11v.26c0,2.34.56,3.79,1.86,4.85l.22.18-.22.15-.25,0-.54-.06-.47-.08-.28-.06-.29,2h-.39l-.28-2a12.13,12.13,0,0,1-1.57.23c-.11,0-.2,0-.2-.1s0-.1.14-.17l.42-.33c.9-.68,1.52-2.56,1.52-4.59V96.5l-.09-.11-.25-.23-.25-.25-.14-.11a5.22,5.22,0,0,0,.9-1"/><path class="cls-2" d="M24,94.84a6,6,0,0,0,.9,1l-.14.11-.25.25-.25.23-.09.11v.26a7.65,7.65,0,0,0,1,3.95l.56.64a2.1,2.1,0,0,0,.31.26l.25.18-.22.15-.26,0-.53-.06-.48-.08-.28-.06-.28,2h-.39l-.28-2a12,12,0,0,1-1.58.23c-.1,0-.19,0-.19-.1a.29.29,0,0,1,.13-.17l.4-.33c.88-.69,1.55-2.58,1.55-4.59V96.5l-.09-.11-.25-.23-.25-.25-.14-.11.25-.23a2.85,2.85,0,0,0,.25-.25l.2-.25Z"/><path class="cls-2" d="M29.31,88.61a4.12,4.12,0,0,0,.64.73l.23.22-.11.12-.28.25-.23.25-.11.08,0,.4.05,1a5.19,5.19,0,0,0,1.77,3.68c.15.07.24.14.24.18a.13.13,0,0,1-.11.14l-.36,0-.55-.05a3.18,3.18,0,0,1-.48-.09l-.25-.05-.28,2h-.4l-.28-2a10.36,10.36,0,0,1-1.58.22c-.1,0-.19,0-.19-.08a.32.32,0,0,1,.13-.19l.41-.32c.37-.29.49-.47,1-1.43a2.38,2.38,0,0,0,.31-.92c0-.6.08-1.07.17-1.07l.05-1,0-.4-.08-.08-.26-.25a2.73,2.73,0,0,0-.25-.25,1.1,1.1,0,0,0-.14-.12c.1-.1.18-.17.22-.22l.26-.25s.12-.13.22-.26l.2-.22"/><path class="cls-2" d="M59.6,88.55l.2.26L60,89l.26.28s.13.13.25.23l-.14.11-.25.25-.26.22-.08.12v.24c0,2.26.76,4.24,1.85,4.84.17.09.25.16.25.24l0,0-.23.06h-.25a5.25,5.25,0,0,1-1.29-.23l-.28,2h-.4l-.28-2a5,5,0,0,1-1.29.23h-.25c-.17,0-.24,0-.24-.1s.07-.15.24-.24c1.08-.56,1.85-2.58,1.85-4.84v-.24l-.08-.12-.25-.22-.26-.25-.14-.11c.12-.1.2-.18.25-.23s.13-.13.26-.28l.19-.22Z"/><path class="cls-2" d="M70.3,88.55l.19.26.23.22.25.28.23.23-.15.11-.25.25-.25.22-.09.12v.24c0,2.24.77,4.25,1.86,4.84.17.09.24.16.24.24l0,0-.22.06h-.25a5.32,5.32,0,0,1-1.3-.23l-.28,2H70.1l-.28-2a4.56,4.56,0,0,1-1.4.23c-.31,0-.37,0-.37-.11s.07-.15.25-.23a2.68,2.68,0,0,0,.87-.9,3.87,3.87,0,0,0,.71-1.68c0-.61.09-1.1.19-1.1l.06-1,0-.36L70,90.12a4.81,4.81,0,0,0-.64-.58l.25-.23L69.9,89l.23-.22Z"/><path class="cls-2" d="M65,94.79l.2.22.22.25s.11.14.24.27.14.11.24.21l-.14.11-.25.28-.25.23-.09.11,0,.36.06,1c.08,1.54.88,3.2,1.76,3.68.17.09.25.17.25.25l0,0-.23.06h-.25a4.82,4.82,0,0,1-1.29-.23l-.28,2h-.39l-.28-2a4.48,4.48,0,0,1-1.41.23c-.29,0-.36,0-.36-.13s.07-.13.25-.21a2.68,2.68,0,0,0,.87-.9A4.33,4.33,0,0,0,64.57,99c0-.61.08-1.1.17-1.1l.05-1,0-.36-.11-.11-.22-.23-.29-.28-.1-.11.22-.22a4.51,4.51,0,0,0,.64-.73"/><path class="cls-2" d="M75.74,94.79l.2.22.22.25s.13.12.26.26l.22.22-.11.11a3.18,3.18,0,0,1-.28.28l-.26.23-.08.11,0,.36,0,1c.09,1.54.89,3.2,1.77,3.68.17.09.25.17.25.25l0,0-.23.06h-.25a4.82,4.82,0,0,1-1.29-.23l-.28,2h-.36l-.31-2a4.48,4.48,0,0,1-1.41.23c-.29,0-.36,0-.36-.13s.07-.13.25-.21a2.68,2.68,0,0,0,.87-.9A4.33,4.33,0,0,0,75.35,99c0-.61.08-1.1.17-1.1l.06-1,0-.36-.11-.11-.5-.51-.12-.11.23-.22a4.06,4.06,0,0,0,.64-.73"/><path class="cls-2" d="M81.08,88.55l.19.26.23.22.25.28.22.23-.13.11-.26.25-.25.22-.08.12v.24c0,2.24.77,4.25,1.86,4.84.17.09.24.16.24.24l0,0-.22.06h-.26a5.33,5.33,0,0,1-1.29-.23l-.28,2h-.39l-.28-2a4.56,4.56,0,0,1-1.4.23c-.31,0-.37,0-.37-.11s.07-.15.25-.23a2.68,2.68,0,0,0,.87-.9,3.87,3.87,0,0,0,.71-1.68c0-.61.09-1.1.19-1.1l.06-1,0-.36-.12-.12-.22-.22-.28-.25-.11-.11.22-.23.25-.28.23-.22Z"/><path class="cls-2" d="M39.53,117.55a4.12,4.12,0,0,0,.64.73l.23.23-.12.11-.28.25-.22.26-.11.11,0,.36,0,1a6.1,6.1,0,0,0,.9,2.78,2.86,2.86,0,0,0,.87.9c.19.08.26.14.26.23s-.07.11-.4.11a4.69,4.69,0,0,1-1.38-.23l-.28,2h-.39l-.28-2a5.21,5.21,0,0,1-1.29.22h-.25c-.17,0-.24,0-.24-.09s.07-.16.24-.24a2.79,2.79,0,0,0,.87-.9,4.28,4.28,0,0,0,.73-1.69c0-.6.07-1.09.17-1.09l0-1,0-.36-.08-.11-.26-.26-.25-.25-.14-.11.22-.23.26-.25.22-.25.2-.23"/><path class="cls-2" d="M49.55,117.55a4.26,4.26,0,0,0,.65.73l.22.23-.11.11-.28.25-.23.26-.11.11,0,.36.06,1a6.21,6.21,0,0,0,.89,2.78,2.86,2.86,0,0,0,.87.9c.19.08.26.14.26.23s-.07.11-.4.11a4.57,4.57,0,0,1-1.37-.23l-.28,2h-.4l-.28-2a5.13,5.13,0,0,1-1.29.22h-.25c-.17,0-.24,0-.24-.09s.08-.16.24-.24a2.79,2.79,0,0,0,.87-.9,4.28,4.28,0,0,0,.73-1.69c0-.6.08-1.09.17-1.09l.05-1,0-.36-.08-.11-.25-.26-.26-.25-.14-.11.22-.23a3.49,3.49,0,0,0,.26-.25l.22-.25.2-.23"/><path class="cls-2" d="M44.44,126.65l.13.29.26.19.26.28.22.22-.11.12-.28.25-.23.22-.11.11,0,.37.06,1c.08,1.52.93,3.3,1.77,3.68.19.08.25.14.25.22l0,.05-.2.09-.25,0-.56-.06a3,3,0,0,1-.48-.08l-.25-.05-.31,2h-.37l-.28-2a14.11,14.11,0,0,1-1.57.22c-.12,0-.2-.05-.2-.13s.06-.15.23-.23a2.79,2.79,0,0,0,.87-.9,4.18,4.18,0,0,0,.73-1.69c0-.6.08-1.09.17-1.09l.05-1,0-.37-.08-.11-.25-.22-.26-.25-.14-.12.23-.22.25-.28.22-.23Z"/><path class="cls-2" d="M39.47,135.92l.2.25.22.22.25.29.19.26-.1.07-.25.25-.26.23-.08.11,0,.36,0,1c.09,1.53.89,3.19,1.77,3.67.17.09.24.17.24.25v0l-.23,0h-.25a7.11,7.11,0,0,1-1.29-.19l-.28,2h-.39l-.29-2a6.13,6.13,0,0,1-1.41.2c-.28,0-.35,0-.35-.13s.07-.13.25-.21a2.78,2.78,0,0,0,.87-.9,4.33,4.33,0,0,0,.73-1.68c0-.61.08-1.09.17-1.09l0-1,0-.36a1.11,1.11,0,0,0-.11-.11l-.23-.23-.28-.25-.11-.11.23-.22.25-.29.22-.22Z"/><path class="cls-2" d="M49.55,135.92l.17.25.22.22.21.32.27.19-.11.11-.28.25-.23.23-.11.11,0,.36.06,1a6.21,6.21,0,0,0,.89,2.77,2.86,2.86,0,0,0,.87.9c.19.08.26.14.26.23s-.07.1-.37.1a6,6,0,0,1-1.4-.19l-.28,2h-.4l-.28-2a7,7,0,0,1-1.29.19h-.25c-.17,0-.24,0-.24-.09s.08-.16.24-.24a2.69,2.69,0,0,0,.87-.9,4.32,4.32,0,0,0,.73-1.68c0-.61.08-1.09.17-1.09l.05-1,0-.36-.08-.11-.25-.23-.26-.25-.14-.11.22-.22.26-.29.22-.22Z"/><path class="cls-2" d="M44.44,108.4l.17.26.22.22.26.28.22.22-.11.12-.28.25-.23.22-.11.12,0,.36.06,1c.08,1.52.95,3.33,1.77,3.68.18.07.24.13.24.21s-.07.12-.35.12a6.2,6.2,0,0,1-1.41-.2l-.31,2h-.37l-.28-2a7.34,7.34,0,0,1-1.29.2h-.25q-.24,0-.24-.09c0-.09.08-.16.24-.24a2.79,2.79,0,0,0,.87-.9,4.32,4.32,0,0,0,.73-1.68c0-.61.08-1.1.17-1.1l.05-1,0-.36-.08-.12-.25-.22-.26-.25-.14-.12.23-.22.25-.28.22-.22Z"/><path class="cls-2" d="M39.39,57.17l.19.22.23.25.25.26.22.22-.11.11-.28.26-.25.25-.08.08,0,.4.06,1a6,6,0,0,0,.9,2.8l.56.65a2.87,2.87,0,0,0,.31.25l.24.18-.24.16-.25,0-.54-.06-.48-.08L39.86,64,39.56,66l-.34.09-.28-2-.28.06-.48.08-.53.06-.3,0c-.1,0-.18,0-.18-.09a.28.28,0,0,1,.11-.18l.42-.32c.37-.28.47-.42,1-1.43a2.31,2.31,0,0,0,.3-.93c0-.6.08-1.09.17-1.09l.06-1,0-.4-.11-.08-.23-.25-.28-.26-.11-.11.22-.22a4.67,4.67,0,0,0,.65-.73"/><path class="cls-2" d="M49.55,57.17a4.67,4.67,0,0,0,.65.73l.22.22-.11.11-.28.26-.23.25-.11.08,0,.4.06,1c.08,1.48.92,3.25,1.76,3.7.15.08.24.15.24.18a.13.13,0,0,1-.11.14h-.35l-.56-.06-.48-.08L50,64l-.28,2h-.4l-.28-2c-.61-.12-.35.21-1.58.23-.1,0-.19,0-.19-.09s.05-.11.13-.18l.41-.32c.37-.3.49-.47,1-1.43a2.41,2.41,0,0,0,.31-.93c0-.6.08-1.09.17-1.09l.05-1,0-.4-.08-.08-.25-.25-.26-.26-.14-.11c.1-.1.18-.17.22-.22l.26-.26.22-.25.2-.22"/><path class="cls-2" d="M44.38,66l.2.22.23.25.25.28.22.23-.14.11-.25.25-.25.23-.09.11,0,.36,0,1c.08,1.53.91,3.28,1.8,3.76.17.09.24.17.24.24l0,0-.22.06h-.26a5.25,5.25,0,0,1-1.29-.23l-.28,2h-.39l-.28-2a4.46,4.46,0,0,1-1.4.23c-.31,0-.37,0-.37-.12s.06-.14.25-.22a2.78,2.78,0,0,0,.87-.9,3.83,3.83,0,0,0,.7-1.68c0-.61.09-1.1.2-1.1l.06-1,0-.36a1.11,1.11,0,0,0-.11-.11l-.22-.23-.28-.25-.11-.11.22-.23.25-.28.23-.25.16-.22"/><path class="cls-2" d="M39.36,74.71l.2.23.19.25a1.91,1.91,0,0,0,.25.25l.26.23-.14.11-.26.25-.25.26-.08.08v.26a7.66,7.66,0,0,0,.92,3.87l.62.72.31.26.22.18-.22.15-.25,0-.53-.06-.48-.08-.28-.06-.28,2h-.4l-.28-2a12,12,0,0,1-1.58.23c-.11,0-.19,0-.19-.09a.28.28,0,0,1,.13-.18l.41-.33c.93-.74,1.54-2.55,1.54-4.59v-.26l-.08-.08L38.85,76l-.25-.25-.14-.11.25-.23a2.15,2.15,0,0,0,.26-.25l.19-.25Z"/><path class="cls-2" d="M49.49,74.71l.2.23.23.25s.12.12.25.25l.22.23-.14.11L50,76l-.25.26-.09.08,0,.39.06,1a4.85,4.85,0,0,0,1.77,3.68l.22.18-.22.15-.26,0-.53-.06-.48-.08L50,81.59l-.28,2H49.3L49,81.51c-.51.11-.53.2-.7.22l-.56.06-.26,0h0c-.1,0-.17,0-.17-.1a.26.26,0,0,1,.12-.17l.42-.33c.36-.27.47-.43,1-1.43a2.33,2.33,0,0,0,.31-.92c0-.59.08-1.07.17-1.07l0-1,0-.39-.11-.08L49,76l-.28-.25-.12-.11.23-.23a3.75,3.75,0,0,0,.64-.73"/><path class="cls-2" d="M28.47,70.19l.11.42c.1.38.17.68.22.9.36,1.6.66,2,1.44,2a.93.93,0,0,0,.92-.62l.17-.57a.27.27,0,0,1,.27-.2c.3,0,.45.31.46,1a13.05,13.05,0,0,0,.2,1.37,7.69,7.69,0,0,1,.11,1.23,2,2,0,0,1-.17.88,11.33,11.33,0,0,1,.17,1.72A3.55,3.55,0,0,1,32,80.05a3.41,3.41,0,0,1,.15,1,6.1,6.1,0,0,1-.09.94,7.33,7.33,0,0,0-.15,1,1.26,1.26,0,0,0,.06.38,1.17,1.17,0,0,1,.09.33c0,.08,0,.14-.09.14l-.56-.22-.61-.34a2.68,2.68,0,0,1-.65-.5c-.55.49-.71.56-2.14,1a1.78,1.78,0,0,0-.61.26,1,1,0,0,1-.38.19c-.24,0-.35-.39-.35-1.19a6.35,6.35,0,0,1,.17-1.56,3.23,3.23,0,0,0-1-.25l-.42,0h-.11c-.08,0-.15-.12-.15-.27a2.24,2.24,0,0,1,.17-.6l.28-.68a2.3,2.3,0,0,1,.67-.81,1.67,1.67,0,0,1,.74-.42l1-.2c.61-.12,1-.44,1-.85s-.27-.68-.87-.89l-1.21-.43a5.34,5.34,0,0,1-1.09-.53c-.67-.39-.78-.45-.95-.45s-.37.19-.37.5a.78.78,0,0,0,.78.85.87.87,0,0,0,.28,0,.94.94,0,0,1,.29-.09.19.19,0,0,1,.2.21v.13l-.05.47a4,4,0,0,1-.9,1.69l-.26.33a3.77,3.77,0,0,1-1.51,2.22,2.87,2.87,0,0,0-.31.23s-.1.16-.22.39a4.82,4.82,0,0,1-.57.67,4.61,4.61,0,0,1-.7.65,2.74,2.74,0,0,0-.56.51l-.28.47a.28.28,0,0,1-.23.15c-.24,0-.47-.26-.61-.71s-.2-.42-.41-.42a2.05,2.05,0,0,0-.49.09l-.39,0h-1a4.61,4.61,0,0,0-1.55.28.81.81,0,0,1-.29.09c-.07,0-.11,0-.19-.17a.49.49,0,0,1-.06-.23,5.35,5.35,0,0,1,.85-2.24,2.89,2.89,0,0,1,.76-.9,1.24,1.24,0,0,0-.79-1l-.47-.14a.17.17,0,0,1-.12-.14c0-.15.23-.35.65-.57a3.63,3.63,0,0,1,1.54-.45,2.3,2.3,0,0,1,1.43.59c.76.6,1,.71,1.34.71a1.21,1.21,0,0,0,1.17-1.13,2.55,2.55,0,0,0-.74-1.48,3.47,3.47,0,0,1-1-2.29,2.88,2.88,0,0,1,.31-1.31l.28-.42a.53.53,0,0,0,.1-.27c0-.19-.22-.32-.51-.32a4.62,4.62,0,0,0-2,.73c-.34.21-.57.45-.57.6a.24.24,0,0,0,.12.21l.31.2a.16.16,0,0,1,.06.12.6.6,0,0,1-.12.22l-.56.73a9.59,9.59,0,0,1-1.18,1.23,2.31,2.31,0,0,0-.28.28l-.23.42a4.3,4.3,0,0,1-1.23,1.27,1.74,1.74,0,0,0-.39.31,2.39,2.39,0,0,0-.23.39,6.77,6.77,0,0,1-.36.59,6.3,6.3,0,0,1-.68.87l-.78.79a4.44,4.44,0,0,0-.79,1.73c-.2.63-.38,1-.48,1s-.13-.06-.22-.17c-.56-.64-1-1-1.29-1a.81.81,0,0,0-.31.14,2.27,2.27,0,0,1-.76.28l-1,.2a2.17,2.17,0,0,0-1.54.84c-.11.12-.2.19-.25.19s-.15-.13-.15-.32l0-.26.14-.76a6.65,6.65,0,0,1,.56-1.83l.48-.87a1,1,0,0,0,.14-.45,1.52,1.52,0,0,0-1.49-1.31c-.2,0-.28-.07-.28-.19s.23-.42.54-.66a3.4,3.4,0,0,1,1.77-.73,3.83,3.83,0,0,1,1.26.34l.62.25a1.76,1.76,0,0,0,.62.14c.66,0,1.29-.59,2.07-1.93a3,3,0,0,0,.51-1.45c0-.71-.34-1.14-.89-1.14a1.75,1.75,0,0,0-1.22.54,1.27,1.27,0,0,0-.43.86v.39c0,.26-.08.4-.24.4s-.65-.38-1.75-1.71a3.26,3.26,0,0,1-1-2.42c-1-1.21-1.19-1.73-1.19-2.59l0-.58a2.67,2.67,0,0,1-.85-2,1.5,1.5,0,0,1,.2-.74,3,3,0,0,1-.53-1.09l-.15-.6a3,3,0,0,0-.44-1c-.26-.36-.28-.41-.28-.53,0-.33.22-.46,1.2-.7a4.38,4.38,0,0,1,0-.62,3,3,0,0,1,.08-.67L5,59a5.54,5.54,0,0,0,.12-.9,3,3,0,0,0-.2-.9,3,3,0,0,0-.26-.64,1.16,1.16,0,0,1-.17-.39c0-.1.07-.15.2-.15a4.69,4.69,0,0,1,1.77,1.07C8,58.44,8.37,59,8.59,60.59l.09.56a2.52,2.52,0,0,1,1.18,2,3.5,3.5,0,0,1-.57,1.8l-.56.87a1.77,1.77,0,0,0-.25.93A3.26,3.26,0,0,0,9,68.42c.43.76.8,1.07,1.25,1.07.74,0,1.39-1.29,1.39-2.75V66a6.32,6.32,0,0,1,.06-.92c0-.43.08-.71.08-.81l0-.68v-.44a.8.8,0,0,0-.29-.54L10.92,62a4.4,4.4,0,0,1-1.38-2.58A1.43,1.43,0,0,1,11,57.9a1.86,1.86,0,0,1,.6.11v-.19c0-1.24.25-2.15.59-2.15l.13,0,.51.45.62.39.17.17c0-.35,0-.39.36-.79a5.74,5.74,0,0,0,.4-.53l.28-.42.14-.26c.07-.14.15-.21.23-.21s.14.11.24.41.11.24.59.68a1.72,1.72,0,0,1,.34.36,4,4,0,0,1,.23.56,2.2,2.2,0,0,0,.08.23,1.67,1.67,0,0,1,.56-.51l.42-.25a.94.94,0,0,1,.31-.15s.09.07.14.18.12.24.23.42a2.19,2.19,0,0,1,.39,1v.61a1.58,1.58,0,0,1,1.27,1.76,4,4,0,0,1-1.1,2.4c-.48.57-.54.69-.54,1.09,0,2.08,1.45,3.28,4,3.32l1.88,0a8.77,8.77,0,0,1,3.06.5,7.11,7.11,0,0,0,2.11.53.64.64,0,0,0,.36-.11.31.31,0,0,0,.17-.25c0-.39-.69-.71-2.95-1.35-4.63-1.31-6.6-3.17-6.6-6.24a4.32,4.32,0,0,1,4.52-4.21,9.63,9.63,0,0,1,2.81.49l1.15.42a2,2,0,0,0,.61.11c.39,0,.59-.32.6-1,0-.36.09-.48.32-.48s.82.4,1.28,1A3.64,3.64,0,0,1,32.23,58a1.6,1.6,0,0,1-1,1.47,2.77,2.77,0,0,1-2.45,1.41c-.81,0-2-.46-3.87-1.55a2.8,2.8,0,0,0-1.35-.51.73.73,0,0,0-.82.74c0,.4.31.66,1.13.95a4.09,4.09,0,0,1,2,1.09,5.69,5.69,0,0,1,2.94,1.18c2.47.79,4,2.46,4,4.39a3,3,0,0,1-3,3.22,5.31,5.31,0,0,1-1.32-.17"/><path class="cls-2" d="M80.85,70.19l.12.42c.1.38.17.68.22.9.35,1.6.65,2,1.43,2a.93.93,0,0,0,.93-.62l.17-.57a.25.25,0,0,1,.26-.2c.31,0,.47.34.49,1,0,.26.07.72.17,1.37a8,8,0,0,1,.12,1.31,2,2,0,0,1-.17.8l0,.34a5.13,5.13,0,0,1,.12,1,3.43,3.43,0,0,1-.34,2,3.78,3.78,0,0,1,.15,1,7.29,7.29,0,0,1-.1,1l-.11.84,0,.51a1.86,1.86,0,0,1,.11.33.13.13,0,0,1-.11.14l-.56-.22-.62-.34a2.67,2.67,0,0,1-.64-.5,2.31,2.31,0,0,1-1.27.7,5,5,0,0,0-1.46.51,1,1,0,0,1-.38.19c-.23,0-.38-.42-.38-1a4.65,4.65,0,0,1,.2-1.71,3.74,3.74,0,0,0-1-.25,2,2,0,0,0-.41,0l-.13,0c-.08,0-.13-.11-.13-.27a3.36,3.36,0,0,1,.46-1.29,2.46,2.46,0,0,1,1.37-1.23l1-.2c.6-.12,1-.44,1-.85s-.27-.68-.87-.89l-1.18-.43a6.48,6.48,0,0,1-1.13-.53l-.62-.36a.58.58,0,0,0-.3-.09c-.25,0-.4.19-.4.48a.85.85,0,0,0,.81.87.93.93,0,0,0,.29,0,.78.78,0,0,1,.26-.09c.12,0,.22.12.22.3a3.52,3.52,0,0,1-.65,1.78l-.34.42-.25.33a3.71,3.71,0,0,1-1.52,2.22,2,2,0,0,0-.3.23,3.82,3.82,0,0,0-.23.39,4.48,4.48,0,0,1-.56.67,5.14,5.14,0,0,1-.7.65,2.47,2.47,0,0,0-.56.51l-.28.47a.25.25,0,0,1-.22.15c-.26,0-.49-.26-.63-.71s-.19-.42-.4-.42a2,2,0,0,0-.49.09l-.4,0H70a4.64,4.64,0,0,0-1.57.28.81.81,0,0,1-.29.09c-.15,0-.22-.14-.22-.43a5.18,5.18,0,0,1,1.57-3.11,1.18,1.18,0,0,0-.75-1l-.51-.14a.16.16,0,0,1-.08-.14c0-.18.2-.36.64-.57a3.07,3.07,0,0,1,1.48-.45,2.25,2.25,0,0,1,1.47.59c.76.6,1,.71,1.34.71a1.21,1.21,0,0,0,1.17-1.13,2.56,2.56,0,0,0-.74-1.48,3.62,3.62,0,0,1-1-2.4,2.64,2.64,0,0,1,.59-1.62.69.69,0,0,0,.11-.3c0-.15-.25-.29-.53-.29a3,3,0,0,0-1.18.34c-.85.38-1.35.75-1.35,1a.29.29,0,0,0,.14.23l.28.2a.14.14,0,0,1,.06.12.44.44,0,0,1-.12.22c0,.06-.24.3-.56.73a6.31,6.31,0,0,1-1.17,1.23,1.29,1.29,0,0,0-.29.28l-.22.42A4.61,4.61,0,0,1,67,78.14a2.64,2.64,0,0,0-.39.31,2,2,0,0,0-.25.39,8.61,8.61,0,0,1-1,1.46l-.76.79a5.56,5.56,0,0,0-.81,1.73c-.23.69-.38,1-.49,1s-.12-.06-.22-.17c-.54-.62-1-1-1.27-1a.92.92,0,0,0-.33.14,2.16,2.16,0,0,1-.75.28l-1,.2a2.14,2.14,0,0,0-1.57.84c-.09.12-.18.19-.22.19s-.17-.14-.17-.34l0-.24s0-.28.14-.76a6.22,6.22,0,0,1,.56-1.83l.5-.87a.86.86,0,0,0,.15-.45c0-.65-.61-1.17-1.52-1.31-.19,0-.28-.1-.28-.21s.22-.38.56-.64a3.23,3.23,0,0,1,1.72-.73,3.66,3.66,0,0,1,1.29.34l.61.25a1.76,1.76,0,0,0,.63.14c.65,0,1.28-.59,2.07-1.93a3,3,0,0,0,.5-1.45c0-.71-.33-1.14-.88-1.14a1.7,1.7,0,0,0-1.2.54,1.35,1.35,0,0,0-.46.89v.29l0,.14c0,.23-.08.33-.25.33s-.46-.2-.94-.78l-.79-.93a3.23,3.23,0,0,1-1.07-2.42,4,4,0,0,1-1.18-2.59L58,68a2.46,2.46,0,0,1-.81-1.94,1.25,1.25,0,0,1,.17-.75,2.68,2.68,0,0,1-.53-1.09l-.15-.6a2.88,2.88,0,0,0-.45-1c-.25-.36-.28-.41-.28-.51,0-.3.28-.49,1-.66l.22-.06a4.77,4.77,0,0,1-.06-.62,3.22,3.22,0,0,1,.09-.67l.19-1a5.34,5.34,0,0,0,.12-.92,2.9,2.9,0,0,0-.17-.88,2.46,2.46,0,0,0-.28-.64.8.8,0,0,1-.17-.37c0-.1.09-.17.22-.17a.57.57,0,0,1,.28.09,10.89,10.89,0,0,1,2.73,2.16,4.14,4.14,0,0,1,1,2.86,2.41,2.41,0,0,1,1.18,2.13,2.92,2.92,0,0,1-.56,1.66l-.56.87a1.83,1.83,0,0,0-.26,1,3.27,3.27,0,0,0,.54,1.66c.42.75.79,1.07,1.24,1.07.73,0,1.4-1.27,1.4-2.67-.06-1.2.18-2.38.21-3.57,0-.28,0-.36-.92-1.28a4.16,4.16,0,0,1-1.4-2.68,1.42,1.42,0,0,1,1.43-1.39A1.77,1.77,0,0,1,64,58v-.34l0-.59.17-.73c.13-.58.2-.69.4-.69l.13.05.51.45.62.39.16.17a1.17,1.17,0,0,1,.37-.79c.15-.18.27-.36.39-.53L67,55l.17-.26c.11-.16.16-.21.23-.21s.13.1.22.41a.79.79,0,0,0,.25.37l.37.31a2,2,0,0,1,.61,1.15,1.73,1.73,0,0,1,.56-.51l.46-.25a.89.89,0,0,1,.29-.14s.08.06.13.17a4.23,4.23,0,0,0,.22.42c.37.58.39.66.39,1.05v.57a1.55,1.55,0,0,1,1.27,1.76,3.85,3.85,0,0,1-1.07,2.4c-.48.58-.56.75-.56,1.19,0,2,1.49,3.18,4,3.22l1.86,0a8.7,8.7,0,0,1,3.06.5,7.19,7.19,0,0,0,2.11.53c.29,0,.53-.15.53-.35,0-.4-.68-.72-3-1.36-4.62-1.3-6.6-3.18-6.6-6.24a4.32,4.32,0,0,1,4.54-4.21A9.55,9.55,0,0,1,79.9,56l1.15.42a1.91,1.91,0,0,0,.6.11c.4,0,.55-.24.61-1,0-.33.13-.48.34-.48s.87.46,1.29,1A3.76,3.76,0,0,1,84.61,58a1.6,1.6,0,0,1-1,1.43,2.75,2.75,0,0,1-2.45,1.41,9.57,9.57,0,0,1-3.87-1.55A2.56,2.56,0,0,0,76,58.79a.74.74,0,0,0-.83.74c0,.4.3.65,1.14.95,1.33.47,1.61.63,2,1.09a5.72,5.72,0,0,1,3,1.18c2.56.83,4,2.41,4,4.43a3,3,0,0,1-3,3.18,5.45,5.45,0,0,1-1.37-.17"/><path class="cls-2" d="M29,123.2a4.35,4.35,0,0,1,.37,1.31l.05,1.18c0,1.18.44,1.77,1.18,1.77a.92.92,0,0,0,.62-.19l.31-.31.12,0c.2,0,.3.13.3.37l0,.46A7.2,7.2,0,0,0,32,129a7.4,7.4,0,0,1,.09,1.14,3,3,0,0,1-.26,1.37,5.18,5.18,0,0,1,.31,1.69,2.26,2.26,0,0,1-.34,1.37,3.45,3.45,0,0,1,.15,1,6.19,6.19,0,0,1-.12,1.07,6,6,0,0,0-.11,1.34V138c0,.18-.05.27-.16.27a.5.5,0,0,1-.34-.22c-.18-.22-.29-.31-.41-.31s-.26.11-.55.95a3.94,3.94,0,0,1-.67,1,2.47,2.47,0,0,0-.51.82c-.09.33-.14.53-.16.58a.23.23,0,0,1-.17.14h0c-.46,0-1-1-1.54-2.87-.15-.53-.34-.76-.63-.76a.56.56,0,0,0-.49.31l-.17.39a.17.17,0,0,1-.14.12c-.23,0-.57-.41-.78-.93a3.45,3.45,0,0,1-.28-1.29c0-.88.65-1.54,2.61-2.64a2.19,2.19,0,0,0,1.18-2.19,2.14,2.14,0,0,0-1-1.94,2.19,2.19,0,0,0-1.25-.61.43.43,0,0,0-.47.4c0,.26.15.42.52.55s.62.31.62.5a2.7,2.7,0,0,1-.48,1,2.65,2.65,0,0,1-.9.92,2.56,2.56,0,0,1-1.35,1.83,3,3,0,0,1-.56,1l-.59.76a2.52,2.52,0,0,0-.42.86c-.06.43-.1.51-.27.51s-.68-.39-1.13-1a1.34,1.34,0,0,1-.37-.93,1.45,1.45,0,0,1-.95.34,2.39,2.39,0,0,0-.76.2,2.15,2.15,0,0,1-.65.28c-.12,0-.16-.06-.16-.26l0-.61a4.34,4.34,0,0,1,.84-2.5,2.81,2.81,0,0,0-1.38-.74c-.16,0-.21,0-.21-.09a1.11,1.11,0,0,1,.27-.52,3.36,3.36,0,0,1,.51-.56,2.74,2.74,0,0,1,1.62-.59,5.06,5.06,0,0,1,1.6.39,2.06,2.06,0,0,0,.67.14c.31,0,.49-.2.49-.55a7.65,7.65,0,0,0-.82-2.59,5.24,5.24,0,0,1-.56-1.86,2.69,2.69,0,0,1,1-2.27,1.15,1.15,0,0,0-.63-.17,1.57,1.57,0,0,0-.86.28c-.42.24-.65.46-.65.6s.08.14.23.24.25.21.25.42a3.21,3.21,0,0,1-1.38,2.22,2.47,2.47,0,0,1-1.51,2,2.76,2.76,0,0,1-.62,1.29,5,5,0,0,0-1,1.94c-.06.29-.14.42-.23.42a1.34,1.34,0,0,1-.64-.48c-.23-.26-.38-.44-.45-.53a2.81,2.81,0,0,1-.31-.9,1.29,1.29,0,0,1-.4.06h-.69a3.37,3.37,0,0,0-1.6.34.81.81,0,0,1-.24.11c-.19,0-.33-.38-.33-.85a4.46,4.46,0,0,1,.94-2.77,4.32,4.32,0,0,1-.54-.5,1.14,1.14,0,0,0-.22-.2l-.31-.17c-.11-.06-.17-.13-.17-.18s.41-.54.9-.86a2.54,2.54,0,0,1,1.36-.5c.46,0,.7.11,1.28.61a1.6,1.6,0,0,0,.86.51.55.55,0,0,0,.4-.25.76.76,0,0,0,.14-.43,3,3,0,0,0-1.35-1.9,3.06,3.06,0,0,0-1.67-.54,1.88,1.88,0,0,0-1.75,1l-.31.65c-.07.15-.17.23-.27.23s-.27-.09-.91-.82l-.73-.84a2.3,2.3,0,0,1-.45-.73,2.05,2.05,0,0,0-.14-.37,3,3,0,0,0-.28-.23A3.66,3.66,0,0,1,6.82,120c0-.08,0-.21-.08-.37a4.61,4.61,0,0,1-1.1-2.79,1.35,1.35,0,0,1,.06-.38c-.4-.4-.45-.5-.76-1.57a4,4,0,0,0-.64-1.46.43.43,0,0,1-.12-.22c0-.15.24-.28.65-.34a2.35,2.35,0,0,1,.56-.07l.56,0,0-.77a5.49,5.49,0,0,1,.14-1.28,3,3,0,0,0,.09-.59s0-.21-.06-.48a3.5,3.5,0,0,0-.08-.42A.75.75,0,0,1,6,109c0-.09.06-.13.17-.13a.88.88,0,0,1,.37.12,6.42,6.42,0,0,1,1.2.73,4.26,4.26,0,0,1,1.73,2.64l0,.22a4,4,0,0,0-.05.42.82.82,0,0,0,.2.45l.31.42a2.19,2.19,0,0,1,.45,1.11c0,.26-.06.37-.51,1a2.12,2.12,0,0,0-.48,1.25,3.84,3.84,0,0,0,.56,1.78c.33.58.72.9,1.09.9.62,0,.89-.55,1-2a21.29,21.29,0,0,1,.23-2.14l0-.38c0-.17-.05-.28-.28-.54l-.84-1c-.81-.93-1.05-1.42-1.05-2.09a1.22,1.22,0,0,1,1.25-1.31l.33,0v-.22a3.24,3.24,0,0,1,.14-.77c.18-.6.4-1.06.52-1.06a.94.94,0,0,1,.27.14,3.55,3.55,0,0,0,.5.19,3.79,3.79,0,0,1,.57.29,2.34,2.34,0,0,1,.45-1c.36-.46.77-.84.91-.84s.26.12.46.34l.53.56a1.78,1.78,0,0,1,.31.53l.12.25.33-.19.45-.26c.34-.15.52-.24.53-.25a.94.94,0,0,1,.29-.14c.1,0,.15.17.36,1.1a6.3,6.3,0,0,1,.2,1.23A1.41,1.41,0,0,1,19.88,112a4.24,4.24,0,0,1-1.41,2.83.84.84,0,0,0-.32.67c0,2.48.86,3.26,4,3.6a20.18,20.18,0,0,1,4.77,1,9.2,9.2,0,0,0,2.35.52c.53,0,.83-.19.83-.53,0-.53-.38-.69-2.61-1.16-5.2-1.1-7.25-2.88-7.25-6.31a4.18,4.18,0,0,1,4.27-4.28A6.82,6.82,0,0,1,28,109.58c1.42.82,1.71,1,2,1s.53-.24.53-.85c0-.39.12-.58.36-.58a1.43,1.43,0,0,1,.87.59,2,2,0,0,1,.65,1.6,1.92,1.92,0,0,1-1.6,2l-.25.28a2.32,2.32,0,0,1-2,.87,4.64,4.64,0,0,1-2.48-.82l-1.35-1a2.52,2.52,0,0,0-1.42-.59.84.84,0,0,0-.91.92,1.27,1.27,0,0,0,1,1.21l1.27.4a6.88,6.88,0,0,1,1.2.5,4.89,4.89,0,0,1,.63-.06,5.25,5.25,0,0,1,2.38.6,3.17,3.17,0,0,0,.5.22l.7.2a4.3,4.3,0,0,1,2.9,4,3,3,0,0,1-3.37,3.21Z"/><path class="cls-2" d="M77.85,122.77a2.44,2.44,0,0,0,1.74,1.08,3.75,3.75,0,0,0,.76-.12,1.48,1.48,0,0,1,.37-.06c.14,0,.19,0,.19.18a1.69,1.69,0,0,1-.14.52,2.7,2.7,0,0,0-.17.51l-.11.59-.28.51-.4.36-.11.11v.38a1.51,1.51,0,0,1-.76,1.45l-.19.14-.06.22a6.43,6.43,0,0,1-.28,1,5,5,0,0,1-.53.79,5,5,0,0,0-.7,1.15c-.12.28-.21.36-.39.36s-.55-.34-.6-.75a1,1,0,0,1-.14.17l-.34.22-.53.37a4.86,4.86,0,0,0-.45.33l-.31.31a.22.22,0,0,1-.16.09c-.14,0-.29-.24-.42-.71l-.29-.92a3.38,3.38,0,0,1-.11-.91,1.91,1.91,0,0,1,.2-1,3.38,3.38,0,0,0-1,.2,1.09,1.09,0,0,1-.25.06c-.09,0-.15-.07-.15-.18a2.39,2.39,0,0,1,.11-.42l.37-1a2.37,2.37,0,0,1,1.92-1.41,2.7,2.7,0,0,1,.72.14,1.51,1.51,0,0,0,.42.09.56.56,0,0,0,.59-.53.44.44,0,0,0-.22-.37l-1-.31a2.33,2.33,0,0,1-1.24-.92c-.39-.45-.53-.58-.67-.58s-.17.07-.17.2l0,.38v.17a5.14,5.14,0,0,1-.8,2.54l-.79,1.44a3.51,3.51,0,0,0-.53,1.72c0,.56.25,1.06.56,1.15l.42.11a.22.22,0,0,1,.14.08.26.26,0,0,1,.09.16.48.48,0,0,1-.14.26c-.05.06-.22.27-.51.65a2.45,2.45,0,0,1-1.37,1,2.73,2.73,0,0,1-1.89,1.63l-.1.19a2.3,2.3,0,0,1-1.56,1.13H66.5a2.16,2.16,0,0,1-1,1.43,7,7,0,0,0-.64.47,1.11,1.11,0,0,0-.14.26c-.13.27-.24.39-.4.39s-.55-.28-.72-.81l-.26.16c-.31.23-.49.35-.53.37a6.43,6.43,0,0,1-1,.28,2.71,2.71,0,0,0-1.44.7l-.25.42-.11,0c-.14,0-.3-.19-.37-.44a7.15,7.15,0,0,1-.25-1.58,3.41,3.41,0,0,1,1.35-2.66v-.24A2.63,2.63,0,0,1,63.7,133H64l1,.06H65a2.28,2.28,0,0,0,1.51-.62c.69-.56.89-.9.89-1.53a4.18,4.18,0,0,0-.27-1.14,4.41,4.41,0,0,1-.2-1.32,4.63,4.63,0,0,1,2-3.39c.3-.21.52-.48.52-.64s0-.12-.08-.12a.74.74,0,0,0-.36.23,3.3,3.3,0,0,1-.67.42l-.45.22-.5.2c-.16.06-.24.14-.24.25a.6.6,0,0,0,.07.25,1,1,0,0,1,.05.21.92.92,0,0,1-.14.33l-.39.64a2.39,2.39,0,0,1-1.15,1.13c-.32.92-.77,1.39-1.43,1.48-.53,1.07-1,1.44-1.94,1.55a3.47,3.47,0,0,1-.84,1.29,3.92,3.92,0,0,0-.37.45c-.21.4-.24.42-.34.42a1.34,1.34,0,0,1-.64-.42,1.56,1.56,0,0,1-.25-.34l-.26-.45c-.08-.14-.16-.21-.27-.21H59.1l-.62.09a2,2,0,0,0-1.13.65l-.33.5a.19.19,0,0,1-.14.08c-.25,0-.4-.55-.4-1.47a2.87,2.87,0,0,1,.4-1.73l.78-1.09a.76.76,0,0,0,.17-.43.58.58,0,0,0-.14-.36.85.85,0,0,0-.45-.33l-.59-.09c-.1,0-.14,0-.14-.09a.35.35,0,0,1,.09-.19,2.78,2.78,0,0,1,.7-.62,3.09,3.09,0,0,1,1.62-.59,2.78,2.78,0,0,1,1.47.48l.81.54a.77.77,0,0,0,.39.11c.38,0,.66-.22.93-.74a2.63,2.63,0,0,0,.37-1.29,1.74,1.74,0,0,0-1.8-1.82,2.37,2.37,0,0,0-1.46.56.93.93,0,0,0-.28.31l-.23.51c0,.12-.13.19-.2.19s-.46-.4-.72-.92a6.25,6.25,0,0,1-.4-1,4.9,4.9,0,0,1-.23-1.4l0-.76a2.78,2.78,0,0,1-.51-1.74,3.15,3.15,0,0,1,.2-1,2,2,0,0,1-.31-1.25l0-.35.08-.39.06-.34c-.27-.35-.35-.59-.62-1.83a3.66,3.66,0,0,0-.36-1.17.45.45,0,0,1-.09-.17c0-.17.39-.31.84-.31l.4,0a1.3,1.3,0,0,1-.12-.57,3.63,3.63,0,0,1,.2-1.12,2,2,0,0,0,.18-.68,2.72,2.72,0,0,0-.12-.86l-.23-.56a.79.79,0,0,1-.07-.29c0-.06,0-.08.14-.08a4.79,4.79,0,0,1,2.43,1.38,3,3,0,0,1,1.09,2.55l0,.62a2.51,2.51,0,0,1,1.1,1.83,1.47,1.47,0,0,1-.57,1.15,2.43,2.43,0,0,0-.93,2.11c0,1.49.45,2.3,1.27,2.3s1.28-.79,1.37-1.94l.09-1.07c0-.28.07-.61.14-1a5.08,5.08,0,0,0,.09-.73c0-.38-.25-.86-1-1.72a3.07,3.07,0,0,1-1.05-2.13,1.41,1.41,0,0,1,1.4-1.5,1,1,0,0,1,.55.15,2.63,2.63,0,0,1,.31-1.26c.22-.54.45-.92.56-.92a.31.31,0,0,1,.17.11,3.31,3.31,0,0,0,.36.31l.29.19.25.26a2.61,2.61,0,0,1,.87-1.43c.39-.39.54-.51.61-.51a.28.28,0,0,1,.2.14l.34.45.48.53a1.56,1.56,0,0,1,.33.87l.28-.17.45-.25a3,3,0,0,0,.34-.22.36.36,0,0,1,.18-.09s.1.08.13.2l.17.64.36.73a1.44,1.44,0,0,1,.14.73v.17h.19c.55,0,1,.65,1,1.41a4.07,4.07,0,0,1-1.84,3,2.39,2.39,0,0,0-.11.75c0,2.23.58,2.7,4,3.21a18.82,18.82,0,0,1,2.3.48l2.22.73a5.64,5.64,0,0,0,1.66.36c.42,0,.65-.12.65-.34,0-.38-.56-.72-2.28-1.4l-2.45-1c-2.48-1-3.65-2.49-3.65-4.72a4.44,4.44,0,0,1,4.55-4.55,9.14,9.14,0,0,1,3.31.71,8.74,8.74,0,0,0,2.06.67c.34,0,.53-.23.58-.73s.16-.59.39-.59.72.32,1,.84a3.38,3.38,0,0,1,.36,1.46,1.59,1.59,0,0,1-1.37,1.71A2.72,2.72,0,0,1,80.42,114c-1.12,0-1.68-.21-3.58-1.41a2.43,2.43,0,0,0-1.48-.53,1,1,0,0,0-1.16,1c0,.51.41.85,1.35,1.09a1.49,1.49,0,0,1,.92.48,1.92,1.92,0,0,1,.47-.06,5,5,0,0,1,3,1.3,4.78,4.78,0,0,1,3.27,4A3.35,3.35,0,0,1,80,123.12a11.32,11.32,0,0,1-2.17-.35"/><path class="cls-4" d="M31.25,82.49a2.94,2.94,0,0,1-.11-.68l0-.22.09-.45,0-.36a1.41,1.41,0,0,0-.19-.84l-.34-.45a2.3,2.3,0,0,1-.28-.54.69.69,0,0,1-.06-.24.19.19,0,0,1,.21-.2c.07,0,.1,0,.36.16a.6.6,0,0,0,.27.1c.17,0,.26-.27.26-.75a1.67,1.67,0,0,0-.17-1l-.42-.48-.37-.31A.36.36,0,0,1,30.4,76a.2.2,0,0,1,.22-.2,2.43,2.43,0,0,1,.63.14l.12,0c.12,0,.16-.07.16-.24v-.1l-.09-.59-.17-.62c-.05-.2-.08-.23-.21-.23H31l-.7.14h-.11A2.5,2.5,0,0,1,28,72.61l-.56-1.83a3.86,3.86,0,0,0-1.35-1.71,1.27,1.27,0,0,0-.56-.31L25,68.71c-.09,0-.15-.07-.15-.14s.11-.18.35-.18l.93.09a7.24,7.24,0,0,1,1.51.39,6,6,0,0,0,1.89.42,2,2,0,0,0,2.24-2,3.6,3.6,0,0,0-1.15-2.49,2.65,2.65,0,0,0-.93-.62.15.15,0,0,0-.14.15l0,.36v0c0,.15-.08.25-.19.25s-.3-.18-.48-.56a2.72,2.72,0,0,0-2.25-1.76c-.15,0-.25.06-.25.15a1.32,1.32,0,0,0,.14.41l.22.5a.86.86,0,0,1,.09.26s-.05.06-.12.06a.78.78,0,0,1-.47-.26l-.42-.45-.37-.57a2.53,2.53,0,0,0-1.15-1l-.67-.36a.7.7,0,0,0-.35-.12.13.13,0,0,0-.15.15.59.59,0,0,0,.1.31,1.52,1.52,0,0,1,.29.56.16.16,0,0,1-.14.17c-.22,0-.67-.45-1.07-1a2.9,2.9,0,0,1-.51-1.58,2,2,0,0,1,2.07-2.1,4.28,4.28,0,0,1,2.11.7l1.32.81a3.45,3.45,0,0,0,1.54.51,3.6,3.6,0,0,0,.82-.14,1.16,1.16,0,0,0,.34-.14c.08,0,.13-.11.13-.16a.13.13,0,0,0-.07-.12l-.17-.06L29.31,59a4.19,4.19,0,0,1-.76-.28,15.28,15.28,0,0,1-1.4-.7,5.16,5.16,0,0,0-.93-.54c-.23-.07-.37-.18-.37-.26a.12.12,0,0,1,.13-.13.65.65,0,0,1,.3.11,2.11,2.11,0,0,0,1,.39l1.2.43a7.91,7.91,0,0,0,1.87.39.93.93,0,0,0,.92-.93,2.43,2.43,0,0,0-.48-1.23c-.07-.09-.14-.14-.19-.14s-.18.08-.18.22l0,.23,0,.33a.6.6,0,0,1-.55.65,1.78,1.78,0,0,1-.45-.08l-1.82-.59a9.29,9.29,0,0,0-3-.65,3.6,3.6,0,0,0-3.85,3.47c0,2.24,1.57,3.68,5.44,5s4.36,1.63,4.36,2.61a1.18,1.18,0,0,1-1.21,1.06,3.27,3.27,0,0,1-.67,0l-1.91-.45a14.55,14.55,0,0,0-3.5-.39c-2.75,0-4.28.48-5.6,1.77a.92.92,0,0,1-.82.37h-.19l-.39,0h-.06a.91.91,0,0,0-.79.51l-.47.76a.43.43,0,0,1-.32.17c-.26,0-.41-.2-.69-.87a2.36,2.36,0,0,0-.59-.85l-.56-.5a.37.37,0,0,1-.15-.22.52.52,0,0,1,.12-.26,2.15,2.15,0,0,0,.39-.73c.07-.37.09-.39.24-.39s.22.17.24.81a2.09,2.09,0,0,0,.22.76l.31.67a.26.26,0,0,0,.25.14c.3,0,.66-.68.76-1.4s.15-.79.27-.79a.13.13,0,0,1,.12.06,5.19,5.19,0,0,1,.26.5,1.44,1.44,0,0,0,.7.62h0c.23,0,.31-.15.36-.68l0-.28-.06-.4,0-.27c0-.18.07-.29.17-.29a.33.33,0,0,1,.21.11l.28.29a.86.86,0,0,0,.56.28c.23,0,.37-.1.37-.25a1.51,1.51,0,0,0-.25-.65l-.2-.37c-.23-.42-.4-.59-.62-.59l-.28,0-.34.14a.82.82,0,0,1-.21.07c-.05,0-.09,0-.09-.12A2.57,2.57,0,0,1,17,64.48a5.34,5.34,0,0,0,.45-2.21c.1-1.46.29-2.41.5-2.41s.19.12.19.43v.39l0,.27c0,.26.06.47.13.47.24,0,.53-.36.76-.94a1.84,1.84,0,0,0,.14-.57l0-.13-.56-1L18,58.57a.29.29,0,0,1-.19-.13,2.46,2.46,0,0,0-.31-1.61,3.08,3.08,0,0,0-1.12.84c-.22.29-.35.41-.46.41a.14.14,0,0,1-.13-.15,3,3,0,0,1,.08-.45l0-.16a2,2,0,0,0-1-1.59l-.17.23-.2.28-.34.39a1.94,1.94,0,0,0-.28.56,1.39,1.39,0,0,0-.05.32v.15c0,.23,0,.29-.13.29l-.07,0-.19-.28-.32-.33L12.69,57l-.25-.2-.11.25a1.64,1.64,0,0,0-.15.45l0,.45,0,.48v.08c0,.25-.06.34-.21.34a1.06,1.06,0,0,1-.33-.14.8.8,0,0,0-.4-.11.7.7,0,0,0-.72.77,2.55,2.55,0,0,0,.45,1.48l.37.47c.1.13.28.24.29.17l.07-.59-.08-.48,0-.21c0-.18.06-.29.17-.29s.25.17.35.64l.22,1,.23,1.32A4.61,4.61,0,0,0,12.86,64a6.81,6.81,0,0,0,.47,1c.31.4.35.45.35.54a.12.12,0,0,1-.12.13.64.64,0,0,1-.25-.08,1.13,1.13,0,0,0-.34-.11l-.22,0c-.45,0-.54.39-.54,2.26a11.23,11.23,0,0,0,.54,3.44l.58,1.49a1.84,1.84,0,0,1,.15.7c0,2-2.72,5.26-5.7,6.74a2.33,2.33,0,0,0-1.55,2.31l0,.36a4.09,4.09,0,0,1,1-.39c.83-.22,1-.33,1.12-.73l.11-.37c0-.14.12-.19.76-.53a1.27,1.27,0,0,0,.45-.36c.14-.24.26-.37.34-.37s.1,0,.1.09l0,.1L9.74,81l0,.19a1.52,1.52,0,0,0,.93,1.39A2.68,2.68,0,0,1,11,81.42l.51-.78a2.13,2.13,0,0,0,.27-1.21,5.57,5.57,0,0,0-.07-.87l0-.23c0-.14.07-.22.2-.22s.17,0,.18.08l.11.54a.28.28,0,0,0,.28.19c.27,0,.62-.35,1-1a1.43,1.43,0,0,0,.21-.74l0-.38-.09-.42v-.08c0-.19.11-.32.25-.32a.13.13,0,0,1,.13.06l.17.65a.42.42,0,0,0,.36.36c.19,0,.51-.32.7-.7a2.5,2.5,0,0,0,.25-1.15c0-.6.07-.77.28-.77s.14,0,.15.07l.11.36c0,.14.12.22.2.22s.43-.33.64-.7a.46.46,0,0,0,.08-.26c0-.12-.07-.24-.25-.38s-.31-.28-.31-.65a1.68,1.68,0,0,1,.31-1c.14-.24.26-.46.37-.67.35-.7.48-.88.61-.88a.23.23,0,0,1,.2.25.53.53,0,0,1-.06.23,1,1,0,0,0-.11.34.2.2,0,0,0,.21.2,1.06,1.06,0,0,0,.49-.17c.08,0,.34-.15.79-.31l.93-.34a1.79,1.79,0,0,1,.56-.08,2.73,2.73,0,0,1,.5,0,3.82,3.82,0,0,0,.65.12.48.48,0,0,0,.48-.47,1.8,1.8,0,0,0-.45-.85.47.47,0,0,1-.15-.26l0-.11a.17.17,0,0,1,.15-.11c.19,0,.63.47,1,1.1,2.42,3.8,3.29,4.72,4.92,5.22s2.08.88,2.08,1.87a3.68,3.68,0,0,1-.87,2c-1.23,1.71-1.52,2.4-1.52,3.53V83a1.92,1.92,0,0,0,.31-.14,2.45,2.45,0,0,1,.45-.19l.7-.14a.6.6,0,0,0,.4-.58v-.07l-.08-.62v-.08a.81.81,0,0,1,.26-.59.24.24,0,0,1,.14-.06.27.27,0,0,1,.22.17l.45,1a1.64,1.64,0,0,0,1,.84"/><path class="cls-4" d="M8.61,62.13c-.2,0-.31.18-.33.57l0,.53a4.08,4.08,0,0,0-.07.68c0,.4.12.7.28.7s.46-.34.6-.73a1.84,1.84,0,0,0,.13-.66A2,2,0,0,0,9,62.58c-.1-.28-.26-.45-.43-.45"/><path class="cls-4" d="M6,57.76V58a7.47,7.47,0,0,1-.37,1.83,2.37,2.37,0,0,0-.08.51,1.23,1.23,0,0,0,.22.64.71.71,0,0,0,.25.28l.34.17.06.4a1.71,1.71,0,0,0,.08.62,3,3,0,0,1,.12.83c0,.24,0,.33-.08.33s-.29-.29-.46-.72c-.27-.68-.51-.93-.9-.93a1.74,1.74,0,0,0-.87.23,1.74,1.74,0,0,1,.17.23s.11.19.25.47l.4.76c.27.53.43.83.47.9a1.15,1.15,0,0,0,.4.39s.19.12.45.26.23.18.23.26a.23.23,0,0,1-.24.21h0l-.37,0-.2,0c-.11,0-.16.11-.16.32a3.38,3.38,0,0,0,1.65,2.4.52.52,0,0,1,.23.3.2.2,0,0,1-.21.18,1.12,1.12,0,0,1-.35-.11.49.49,0,0,0-.2-.06c-.14,0-.23.11-.23.28a4.06,4.06,0,0,0,.51,1.27,2,2,0,0,0,1,.92l1.26.53a.18.18,0,0,1,.11.17.2.2,0,0,1-.17.2L9,72l-.23,0-.36,0H8.39c-.17,0-.24,0-.24.12a2.86,2.86,0,0,0,.41.92c.3.5.56.78.73.78a.21.21,0,0,0,.17-.14l.31-.64a2,2,0,0,1,.73-.56,2.06,2.06,0,0,1,.79-.31l.5-.09c.13,0,.2-.11.2-.27-.12-.77-.18-1.56-.26-2.34,0-.16-.05-.23-.14-.23a.43.43,0,0,0-.25.2c-.44.68-.75.9-1.22.9-1.49,0-2.62-2.63-2.62-6.11,0-.31,0-.69,0-1.16a14.27,14.27,0,0,0,.09-1.45,4.42,4.42,0,0,0-1-3.21L6.29,58Z"/><path class="cls-4" d="M9.66,78.28a3.06,3.06,0,0,1-.82-.2l-.53-.22a2.68,2.68,0,0,0-1.07-.28,1.75,1.75,0,0,0-1.18.47l.26.2.56.39.53.42a.75.75,0,0,0,.46.17,2.64,2.64,0,0,0,1.79-1"/><path class="cls-4" d="M20.46,83.39a1.58,1.58,0,0,1,.57-.73c.78-.68,1.15-1.17,1.15-1.58v-.61c0-.36.06-.48.25-.48a.18.18,0,0,1,.17.08l.14.34a.24.24,0,0,0,.24.13c.1,0,.27-.13.4-.33l.29-.39a.91.91,0,0,0,.2-.55.87.87,0,0,0-.06-.32s-.09-.2-.2-.45a1.46,1.46,0,0,1-.12-.44.26.26,0,0,1,.26-.29.25.25,0,0,1,.2.09l.22.28a.28.28,0,0,0,.22.09.37.37,0,0,0,.29-.23l.22-.45A.68.68,0,0,0,25,77.3c0-.09-.09-.18-.26-.26l-.36-.17a2,2,0,0,1-.85-1.8.77.77,0,0,1,.06-.3l.2-.48a1.09,1.09,0,0,0,.08-.45,1.59,1.59,0,0,0-.28-.87,4.8,4.8,0,0,1-.36-.59c-.17-.44-.25-.57-.39-.57-1.12.36-.59.7-1.41,1a1.31,1.31,0,0,0-.46,1c0,.72.09.93,1.05,2.59a3.4,3.4,0,0,1,.57,1.6c0,1.16-1,2-3.1,2.47l-1.29.31a2.21,2.21,0,0,0-1.71,2,2.11,2.11,0,0,1,1.24-.23h.48c.37,0,.43,0,.67-.37a2.15,2.15,0,0,1,.92-.79l.45-.19.37-.2.11,0q.15,0,.15.12a.89.89,0,0,1-.26.47,1.47,1.47,0,0,0-.45,1.09,1.05,1.05,0,0,0,.3.74"/><path class="cls-4" d="M16.93,79a3.24,3.24,0,0,1,.84.75c.27.37.31.4.57.4a1.76,1.76,0,0,0,.41-.06l.26-.06c.46-.08.61-.15.61-.27a.37.37,0,0,0-.14-.23l-.3-.28L18.87,79a1.53,1.53,0,0,0-.93-.31,1.72,1.72,0,0,0-1,.34"/><path class="cls-4" d="M26,80.55l.17,0,.25,0,.26,0h.12A1.22,1.22,0,0,0,28,79.45c0-.2-.17-.3-.49-.3-.76,0-1.23.44-1.53,1.4"/><path class="cls-4" d="M83.63,82.49a1.86,1.86,0,0,1-.09-.52l0-.38a6.47,6.47,0,0,0,.1-1.09.83.83,0,0,0-.21-.56l-.33-.45a1.26,1.26,0,0,1-.31-.77c0-.16,0-.22.15-.22l.13,0,.25.14a.68.68,0,0,0,.28.1c.17,0,.26-.27.26-.79a1.52,1.52,0,0,0-.57-1.42l-.39-.31a.29.29,0,0,1-.12-.22.2.2,0,0,1,.21-.22,1.76,1.76,0,0,1,.33,0l.31.09.12,0c.09,0,.14-.08.14-.24v-.1l-.08-.59c-.09-.61-.19-.85-.37-.85h0l-.73.14h-.13a2.59,2.59,0,0,1-2.18-1.75l-.53-1.83a3.78,3.78,0,0,0-1.35-1.71,1.32,1.32,0,0,0-.58-.31l-.51-.05c-.09,0-.15-.07-.15-.14s.09-.18.3-.18a8,8,0,0,1,2.49.48,5.91,5.91,0,0,0,1.88.42c1.4,0,2.25-.74,2.25-2a3.7,3.7,0,0,0-.54-1.86,4.3,4.3,0,0,0-1.32-1.24.4.4,0,0,0-.22-.09.15.15,0,0,0-.15.15l0,.36v0c0,.14-.08.25-.18.25s-.32-.18-.5-.56a2.64,2.64,0,0,0-2.21-1.76c-.19,0-.29.07-.29.18a.89.89,0,0,0,.14.38,3.31,3.31,0,0,1,.26.5.81.81,0,0,1,.06.24s0,.08-.13.08a.8.8,0,0,1-.47-.26l-.42-.45-.36-.57a2.8,2.8,0,0,0-1.13-1l-.7-.36a.76.76,0,0,0-.36-.12.12.12,0,0,0-.13.13.61.61,0,0,0,.13.33,1.58,1.58,0,0,1,.26.55.16.16,0,0,1-.14.18c-.2,0-.55-.36-1-1a2.73,2.73,0,0,1-.53-1.58,2.06,2.06,0,0,1,2.08-2.1,4.3,4.3,0,0,1,2.1.7l1.35.81a3.37,3.37,0,0,0,1.54.51,2.52,2.52,0,0,0,.79-.14,1.8,1.8,0,0,0,.36-.14.2.2,0,0,0,.1-.16c0-.12-.06-.17-.24-.18A8.26,8.26,0,0,1,79.53,58a9.53,9.53,0,0,0-.92-.54c-.23-.08-.39-.2-.39-.3s0-.06.12-.06l.17,0,1.22.44,1.18.43a7.49,7.49,0,0,0,1.89.39.85.85,0,0,0,.89-.9,1.79,1.79,0,0,0-.17-.78c-.17-.34-.4-.62-.49-.62s-.17.11-.17.3v.15l0,.36c0,.38-.21.62-.53.62a1.78,1.78,0,0,1-.46-.08l-1.83-.59a8.81,8.81,0,0,0-3-.65,3.61,3.61,0,0,0-3.87,3.47c0,2.24,1.54,3.64,5.48,5S83,66.35,83,67.36a1.13,1.13,0,0,1-1.22,1,3.28,3.28,0,0,1-.66,0c-.17,0-.8-.18-1.91-.45a13.93,13.93,0,0,0-3.49-.39c-2.78,0-4.12.42-5.58,1.77a1,1,0,0,1-.84.37h-.19l-.45,0a.87.87,0,0,0-.79.51l-.45.76a.37.37,0,0,1-.32.17c-.29,0-.45-.2-.72-.87a2.07,2.07,0,0,0-.56-.85l-.59-.5c-.09-.08-.14-.15-.14-.21a.57.57,0,0,1,.14-.27,2.91,2.91,0,0,0,.25-.39.88.88,0,0,0,.14-.34l0-.25a.21.21,0,0,1,.2-.14c.19,0,.22.12.22.81a2,2,0,0,0,.23.76l.31.67a.26.26,0,0,0,.25.14c.29,0,.66-.68.76-1.4s.14-.79.27-.79.16.07.4.56a1.24,1.24,0,0,0,.34.42.77.77,0,0,0,.33.2h0c.24,0,.32-.14.37-.67l0-.28,0-.4,0-.27c0-.18.06-.29.17-.29a.36.36,0,0,1,.21.11l.28.29a.81.81,0,0,0,.56.28c.24,0,.39-.11.39-.28s0-.21-.28-.62l-.2-.37c-.25-.47-.36-.59-.58-.59l-.28,0-.37.14a1,1,0,0,1-.22.07c-.05,0-.09,0-.09-.12a2.57,2.57,0,0,1,.48-1.14,6.66,6.66,0,0,0,.48-2.21L70,61c.08-.81.17-1.1.33-1.1s.11,0,.11.06l.09.42v.34a1.59,1.59,0,0,0,.09.74c.13,0,.3-.14.47-.38a2,2,0,0,0,.28-.56,2.75,2.75,0,0,0,.14-.74c0-.65-.27-.93-1.15-1.17a.29.29,0,0,1-.17-.08c-.09-.89.1-.78-.33-1.66l-.23.14a3.14,3.14,0,0,0-.9.7c-.25.32-.34.4-.45.4a.13.13,0,0,1-.14-.12l.11-.47v-.09a2.09,2.09,0,0,0-1-1.66l-.19.23-.2.28-.34.39a1.3,1.3,0,0,0-.31.84v.18c0,.22,0,.3-.13.3l-.06,0-.23-.28-.28-.33L65.07,57l-.25-.2a2.36,2.36,0,0,0-.28,1.41v.23c0,.26-.08.41-.22.41a.94.94,0,0,1-.34-.14.91.91,0,0,0-.42-.11.74.74,0,0,0-.71.82,2.51,2.51,0,0,0,.46,1.43c.22.36.51.66.64.66A3.53,3.53,0,0,0,64,60.9L64,60.42l0-.21c0-.18.07-.29.17-.29s.26.17.36.64l.22,1,.23,1.32A5,5,0,0,0,65.24,64a6.46,6.46,0,0,0,.48,1c.31.4.35.45.35.54a.13.13,0,0,1-.12.13.68.68,0,0,1-.26-.08,1.07,1.07,0,0,0-.33-.11l-.21,0c-.46,0-.56.37-.56,2.23a11.37,11.37,0,0,0,.54,3.46l.59,1.49a2,2,0,0,1,.14.7c0,2.06-2.77,5.34-5.7,6.74-1.14.55-1.47,1.12-1.57,2.67a5.23,5.23,0,0,1,1-.39c.83-.24,1-.35,1.13-.73l.11-.37c0-.16.15-.23.73-.53a1.16,1.16,0,0,0,.45-.36c.14-.25.25-.37.33-.37s.12.06.12.15v0l-.31.81,0,.19A1.54,1.54,0,0,0,63,82.6c0-.15.06-.26.08-.34a3,3,0,0,1,.28-.84l.53-.78c.2-.29.23-.48.23-1.2l0-.88,0-.23c0-.14.07-.23.2-.23s.18,0,.19.09l.08.54a.27.27,0,0,0,.27.19c.27,0,.62-.34,1-1a1.18,1.18,0,0,0,.2-.67A8.73,8.73,0,0,0,66,76.4l0-.16a.22.22,0,0,1,.22-.24.13.13,0,0,1,.13.06l.2.65c.07.21.22.36.37.36.43,0,.87-.88.92-1.82,0-.6.1-.8.28-.8s.13,0,.14.07l.11.36c0,.14.13.22.2.22s.22-.12.39-.33a2.26,2.26,0,0,0,.26-.37.67.67,0,0,0,.08-.29c0-.14,0-.18-.25-.35a.72.72,0,0,1-.31-.59,3.57,3.57,0,0,1,.67-1.71c.46-.79.52-.88.63-.88s.19.1.19.24a.53.53,0,0,1-.06.24.94.94,0,0,0-.11.34.21.21,0,0,0,.22.2,1.16,1.16,0,0,0,.51-.17,5.67,5.67,0,0,1,.76-.31l1-.34A2.14,2.14,0,0,1,73,70.7a2.81,2.81,0,0,1,.49,0,3.46,3.46,0,0,0,.64.12.45.45,0,0,0,.46-.45,1.15,1.15,0,0,0-.18-.48c-.14-.23-.23-.37-.25-.39s-.17-.21-.17-.26l0-.11a.17.17,0,0,1,.16-.11c.22,0,.65.45,1,1.1,2.2,3.59,3.27,4.73,4.88,5.22s2.08.86,2.08,1.87a3.7,3.7,0,0,1-.87,2c-1.12,1.56-1.52,2.47-1.52,3.5V83a1.92,1.92,0,0,0,.31-.14,2.45,2.45,0,0,1,.45-.19l.7-.14a.6.6,0,0,0,.4-.59v-.06l0-.62v-.09c0-.35.17-.64.37-.64a.28.28,0,0,1,.22.17l.45,1c.18.39.4.57,1,.84"/><path class="cls-4" d="M60.61,63.23l0,.45V64c0,.46.08.66.25.66s.48-.35.61-.73a2.86,2.86,0,0,0,.14-.76,1.36,1.36,0,0,0-.14-.54c-.13-.3-.26-.45-.42-.45s-.35.31-.4,1.1"/><path class="cls-4" d="M58.42,57.76V58a6.34,6.34,0,0,1-.2,1.19c-.11.4-.17.61-.17.64a2.22,2.22,0,0,0-.06.51,1,1,0,0,0,.48.92l.31.17.05.4a2,2,0,0,0,.09.62,3.46,3.46,0,0,1,.11.84c0,.23,0,.32-.07.32s-.29-.29-.46-.72c-.27-.68-.52-.93-.9-.93a1.69,1.69,0,0,0-.87.23,6.47,6.47,0,0,1,.81,1.46c.45,1,.62,1.2,1.32,1.55.16.07.26.18.26.26s-.1.21-.26.21a2.73,2.73,0,0,1-.39,0l-.21,0c-.11,0-.16.11-.16.33a3.42,3.42,0,0,0,1.69,2.39c.14.1.22.21.22.29a.19.19,0,0,1-.08.13.24.24,0,0,1-.15.06,1,1,0,0,1-.33-.11.52.52,0,0,0-.21-.07c-.13,0-.22.13-.22.33a2.93,2.93,0,0,0,.51,1.23,2.36,2.36,0,0,0,.93.92l1.26.53a.18.18,0,0,1,.12.17.21.21,0,0,1-.17.2l-.23,0-.25,0-.34,0h0c-.18,0-.25,0-.25.12a2.68,2.68,0,0,0,.42.92c.31.54.52.78.69.78s.13,0,.18-.14l.3-.64a2.85,2.85,0,0,1,.73-.56,2,2,0,0,1,.79-.31c.68-.09.73-.12.73-.4a4,4,0,0,0-.08-.56c0-.14-.06-.34-.09-.59l0-.53-.06-.62c0-.15-.05-.23-.14-.23s-.15.08-.22.2a1.69,1.69,0,0,1-1.21.9c-1.57,0-2.64-2.5-2.64-6.17l0-1.1L60,61.77l0-.47a4.38,4.38,0,0,0-1-2.87l-.4-.39Z"/><path class="cls-4" d="M62,78.28a4.11,4.11,0,0,1-1.34-.42,2.45,2.45,0,0,0-1.06-.28,1.71,1.71,0,0,0-1.19.47l.25.2.56.39.54.42a.73.73,0,0,0,.47.17c.55,0,1-.25,1.77-1"/><path class="cls-4" d="M72.85,83.39a1.62,1.62,0,0,1,.56-.73c.79-.68,1.15-1.17,1.15-1.58v-.61c0-.36.07-.48.25-.48a.21.21,0,0,1,.18.08l.14.34a.23.23,0,0,0,.23.13c.2,0,.34-.15.69-.72a1.06,1.06,0,0,0,.21-.55,1,1,0,0,0-.07-.32L76,78.5a1.41,1.41,0,0,1-.11-.44c0-.18.09-.29.25-.29a.24.24,0,0,1,.2.09l.23.28c0,.06.06.09.15.09a.46.46,0,0,0,.35-.23l.23-.45a.73.73,0,0,0,.08-.26c0-.09-.09-.19-.22-.25l-.4-.17a2,2,0,0,1-.84-1.74,1.4,1.4,0,0,1,.08-.36l.17-.48a1.31,1.31,0,0,0,.09-.47A1.61,1.61,0,0,0,76,73a4.3,4.3,0,0,1-.34-.59c-.16-.42-.26-.55-.4-.55a.68.68,0,0,0-.36.13l-.28.17-.39.45-.39.2a1.3,1.3,0,0,0-.46,1c0,.6.13.93,1,2.57A3.54,3.54,0,0,1,75,78c0,1.14-1.17,2.08-3.07,2.47-2.28.46-2.77.84-3,2.3a2.14,2.14,0,0,1,1.25-.23h.48c.37,0,.42,0,.66-.37a2.12,2.12,0,0,1,.93-.79l.45-.19L73,81l.11,0c.11,0,.16,0,.16.12a1,1,0,0,1-.27.47,1.64,1.64,0,0,0-.43.93,1.33,1.33,0,0,0,.29.9"/><path class="cls-4" d="M69.31,79a3.13,3.13,0,0,1,.85.75c.27.37.3.4.57.4a1.76,1.76,0,0,0,.41-.06l.25-.06c.48-.09.63-.16.63-.28a.31.31,0,0,0-.12-.22l-.34-.28L71.25,79a1.51,1.51,0,0,0-.88-.31,1.93,1.93,0,0,0-1.06.34"/><path class="cls-4" d="M78.41,80.55l.17,0,.28,0,.22,0h.16a.81.81,0,0,0,.54-.12,2.06,2.06,0,0,0,.54-.65.68.68,0,0,0,.11-.31c0-.19-.17-.3-.48-.3-.77,0-1.24.43-1.54,1.4"/><path class="cls-4" d="M28.52,139.87l.17-.33.39-.43a2,2,0,0,0,.51-1.45,3.3,3.3,0,0,0-.14-.91,2.33,2.33,0,0,1-.12-.49c0-.18.14-.35.27-.35s.13.05.22.14l.42.48a.92.92,0,0,0,.67.42l0-.39,0-.46a3.32,3.32,0,0,0-.62-1.9,1.21,1.21,0,0,1-.33-.56.2.2,0,0,1,.16-.2.41.41,0,0,1,.11.06c.27.2.41.28.49.28s.25-.33.25-.71a2.58,2.58,0,0,0-.57-1.56l-.34-.42a.37.37,0,0,1-.05-.16.21.21,0,0,1,.24-.21c.11,0,.17,0,.35.14a.37.37,0,0,0,.21.08c.22,0,.3-.31.3-1.14v-.34l0-.51c0-.59-.08-.7-.33-.7h-.23c-1.37,0-2-.87-2.36-3.2-.25-1.69-.88-2.89-1.65-3.15-.46-.15-.63-.25-.63-.37s.13-.16.27-.16a1.89,1.89,0,0,1,.53.14,7.7,7.7,0,0,0,2.88.68A2.31,2.31,0,0,0,32,119.94a3.88,3.88,0,0,0-1.28-2.73,1.86,1.86,0,0,0-.7-.42H30l-.15,0,.06.41.11.27,0,.12a.12.12,0,0,1-.13.11.26.26,0,0,1-.21-.11l-.5-.76a2.67,2.67,0,0,0-1.93-1.1c-.23,0-.38.1-.38.27a.67.67,0,0,0,.17.32.93.93,0,0,1,.26.45l0,.12a.19.19,0,0,1-.11.11h0c-.14,0-.21-.06-.82-.76a3.62,3.62,0,0,0-2.07-1.13.27.27,0,0,0-.2.09.15.15,0,0,0,0,.11.51.51,0,0,0,.19.31,1,1,0,0,1,.31.43c0,.06-.07.11-.16.11s-.52-.23-1.19-.76a3.2,3.2,0,0,1-1.51-2.5A1.83,1.83,0,0,1,23.42,111a3.52,3.52,0,0,1,1.87.67l1.38,1a3.62,3.62,0,0,0,2.21.73,1.09,1.09,0,0,0,.48-.11c.13-.06.2-.13.2-.19s-.1-.08-.25-.12a3.25,3.25,0,0,1-1.18-.5l-1.4-1.07a11.61,11.61,0,0,0-1.1-.76c-.74-.38-.88-.48-.88-.56s.07-.08.16-.08a.57.57,0,0,1,.24.06l.74.3a9.15,9.15,0,0,1,1.17.71c1.5,1,2.27,1.32,3.15,1.32a1.39,1.39,0,0,0,1.46-1.4,1.07,1.07,0,0,0-.12-.49l-.14-.28c-.05-.1-.14-.17-.16-.14l-.09.11-.08.59a.66.66,0,0,1-.09.2,1,1,0,0,1-.19.28.66.66,0,0,1-.52.2c-.43,0-.92-.23-2.23-1.07a6.94,6.94,0,0,0-3.49-1.29,3.64,3.64,0,0,0-3.64,3.64c0,2.82,1.71,4.08,7.1,5.26,2,.44,2.95,1,2.95,2s-.68,1.35-1.74,1.35a3.75,3.75,0,0,1-.76-.06c-.18,0-1.15-.3-2.9-.78a14.25,14.25,0,0,0-3.74-.53,5,5,0,0,0-4.51,2c-.11.16-.22.25-.3.25a.43.43,0,0,1-.23-.11l-.39-.31a2,2,0,0,0-1-.38.9.9,0,0,0-.6.24.67.67,0,0,1-.28.19c-.16,0-.45-.35-.67-.81a4.53,4.53,0,0,1-.48-1.91c0-.28.09-.48.21-.48s.17.08.22.23l.22.81c.12.46.38.82.57.82s.24-.12.41-.34a1.33,1.33,0,0,0,.23-.39c.17-.52.22-.59.35-.59s.25.1.36.62a1.45,1.45,0,0,0,.19.47,2.25,2.25,0,0,0,.33.51.43.43,0,0,0,.29.15c.25,0,.47-.42.47-.87V120l0-.52c0-.21,0-.27.14-.27s.12,0,.2.14a1.38,1.38,0,0,0,.47.39.94.94,0,0,0,.41.15.41.41,0,0,0,.27-.15.35.35,0,0,0,.12-.22c0-.08-.1-.21-.4-.51a3.47,3.47,0,0,1-.56-1.12c-.08-.22-.19-.36-.27-.36a.6.6,0,0,0-.18,0l-.37.15-.25.1-.1,0a.21.21,0,0,1-.21-.2A1.69,1.69,0,0,1,17,117a1,1,0,0,0,.37-.75c0-.47.1-.85.2-.85l.08-1a10.08,10.08,0,0,1,.42-1.94c0-.1.08-.16.11-.16s.15.21.15.44v.43c0,.36.05.54.16.54s.26-.18.39-.49l.25-.64a1.57,1.57,0,0,0,.11-.53.85.85,0,0,0-.78-.94l-.2,0-.2.05a.32.32,0,0,1-.27-.35l0-.41,0-.56-.11-.59,0-.28-.25.14-.31.26-.45.36-.37.31a.32.32,0,0,1-.2.08c-.22,0-.25-.06-.25-.49v-.11c0-.36-.15-.63-.72-1.31a1,1,0,0,1-.14-.17l-.12.2-.31.51-.31.78,0,.51c0,.14-.07.25-.13.25s-.15-.07-.26-.19a2.15,2.15,0,0,0-1.21-.82l-.06.2c-.1.33-.15.53-.16.58l0,.54v.4c0,.16-.06.25-.16.25h0l-.17-.13a.5.5,0,0,0-.34-.09c-.52,0-.86.28-.86.73s.12.59.64,1.37c.22.35.49.63.6.63s.12-.19.12-.4l0-.34a1.46,1.46,0,0,1-.08-.43c0-.16,0-.24.13-.24.25,0,.52.73.63,1.74l.11,1a3.21,3.21,0,0,0,.34,1.12,2.89,2.89,0,0,0,.72,1c.27.19.44.37.44.48a.16.16,0,0,1-.15.16l-.57-.19-.23,0c-.56,0-.75.32-.75,1.29a5.37,5.37,0,0,0,1.66,3.55l1.29,1a3.05,3.05,0,0,1,1.15,2c0,.82-.9,1.63-2.44,2.19l-.93.34c-.72.26-1,.72-1.29,2.08a2.18,2.18,0,0,1,.77-.15H13l.42,0a.59.59,0,0,0,.65-.55v-.25c0-.08.1-.18.25-.26l.39-.19.31-.26a.27.27,0,0,1,.16-.06.17.17,0,0,1,.15.17.69.69,0,0,1-.06.26,3,3,0,0,0-.14,1,2.36,2.36,0,0,0,.45,1.56,2.53,2.53,0,0,1,.08-.37,5.46,5.46,0,0,1,.48-.76,3.63,3.63,0,0,0,.74-1.7v-.12l-.08-.65a.39.39,0,0,1,.14-.3.28.28,0,0,1,.19-.09c.12,0,.19.07.29.28s.14.25.2.25.29-.25.41-.56a1.43,1.43,0,0,0,.14-.59.87.87,0,0,0-.08-.36.92.92,0,0,1-.09-.32c0-.07,0-.11.12-.19a.24.24,0,0,1,.14,0,.41.41,0,0,1,.17,0l.25.17a.4.4,0,0,0,.22.09.61.61,0,0,0,.4-.31,2.62,2.62,0,0,0,.4-.8c0-.08-.05-.13-.21-.24a2,2,0,0,1-.92-1.5,1.1,1.1,0,0,1,.08-.41l.28-.76c.14-.38.22-.58.23-.59l.08,0c.09,0,.15.08.15.22a.84.84,0,0,1-.07.32,2.09,2.09,0,0,0-.11.53c0,.2.1.31.29.31a1.27,1.27,0,0,0,.47-.11,5.68,5.68,0,0,1,1.93-.57,1.57,1.57,0,0,1,1,.37.43.43,0,0,0,.26.11.22.22,0,0,0,.16-.11.22.22,0,0,0,.05-.14.59.59,0,0,0-.16-.36c-.15-.19-.2-.29-.2-.4a.14.14,0,0,1,.15-.15c.44,0,1.13,1.4,1.79,3.6.52,1.75.66,1.93,2.33,2.87,1.41.8,1.94,1.59,1.94,2.87a16.33,16.33,0,0,1-1.07,5,4.8,4.8,0,0,0-.33,1.5,4.93,4.93,0,0,0,.27,1.33c.11.37.17.58.2.65a3.61,3.61,0,0,0,.22.42"/><path class="cls-4" d="M22,135.94a4.71,4.71,0,0,1,.53-.95,2.68,2.68,0,0,0,.62-1.38v-.45c0-.42.08-.62.25-.62a.18.18,0,0,1,.14.09l.14.22a.25.25,0,0,0,.2.12.54.54,0,0,0,.32-.24,2,2,0,0,0,.33-1l0-.31,0-.32c0-.17.07-.24.23-.24s.16,0,.25.25.14.23.21.23.16-.07.24-.17l.22-.34.17-.25,0-.14c0-.07-.06-.14-.21-.25a2.32,2.32,0,0,1-.79-2,8.51,8.51,0,0,0-.13-1.54l-.51-1.21a6.62,6.62,0,0,1-.34-1c-.06-.26-.15-.34-.35-.34a1.41,1.41,0,0,0-1.34,1.52,7,7,0,0,0,.6,2.27,6.66,6.66,0,0,1,.68,2.33c0,1-.41,1.49-1.83,2A3.49,3.49,0,0,0,19,135.1l.28-.11a2.42,2.42,0,0,1,.39-.14l.45-.11a1,1,0,0,0,.76-.54l.11-.39a.29.29,0,0,1,.17-.2l.25-.11.25-.11.06.11-.11.36a2.47,2.47,0,0,0-.06.66,2,2,0,0,0,.48,1.42"/><path class="cls-4" d="M6.93,110a1.6,1.6,0,0,1,.06.32,6.67,6.67,0,0,1-.11.72l0,.57a4.46,4.46,0,0,0,.25,1.48,2.11,2.11,0,0,1,.17.64v.12c0,.12-.07.2-.1.2a.6.6,0,0,1-.29-.17,1.57,1.57,0,0,0-1-.43,2.68,2.68,0,0,0-.48.06l.14.31.43,1,.59.9.61.42a.69.69,0,0,1,.17.17.33.33,0,0,1,.09.18.11.11,0,0,1-.12.1l-.56,0c-.08,0-.15.07-.15.13a4.77,4.77,0,0,0,.23.83l.29.81.48.45.5.37c.15.11.24.23.24.32a.17.17,0,0,1-.1.16l-.28,0a.21.21,0,0,0-.15.23,2.54,2.54,0,0,0,.57,1.1c.43.59.74.78,1.23.78H10c.21,0,.33.1.33.26s-.08.21-.27.25c-.39.08-.51.16-.51.34a.68.68,0,0,0,.15.3l.22.31c.19.25.4.42.53.42a.68.68,0,0,0,.42-.25,1.77,1.77,0,0,1,.9-.62c1-.25,1.19-.35,1.19-.57a.74.74,0,0,0-.12-.33,2.56,2.56,0,0,1-.42-1.37c0-.35-.09-.59-.22-.59s-.14.08-.23.22a1.23,1.23,0,0,1-1,.59c-1,0-2.14-1.52-2.73-3.54a5.73,5.73,0,0,1-.2-1.51,8.1,8.1,0,0,1,.2-1.71c.19-.83.3-1.28.31-1.38l0-.38A3.35,3.35,0,0,0,6.93,110"/><path class="cls-4" d="M9,113.87a4.92,4.92,0,0,0-.4,1.83c0,.33.11.59.24.59s.11-.05.16-.14l.3-.56c.06-.1.11-.2.21-.34a1,1,0,0,0,.19-.42,1.28,1.28,0,0,0-.7-1"/><path class="cls-4" d="M12,126.54a1.2,1.2,0,0,0,.15.13l.22.23c.55.57.63.62.89.62a3.23,3.23,0,0,0,1-.28c.12-.06.19-.14.19-.2a1.24,1.24,0,0,0-.28-.31l-.31-.28a1.55,1.55,0,0,0-.74-.4,2.13,2.13,0,0,0-1.17.49"/><path class="cls-4" d="M18.56,131.62a2.59,2.59,0,0,1,.56.28,3.78,3.78,0,0,0,.45.28,1.11,1.11,0,0,0,.44.06.86.86,0,0,0,.34-.06l.59-.23.57-.19c.15,0,.25-.14.25-.22s-.13-.1-.31-.15a2.83,2.83,0,0,1-.42-.13c-.69-.28-.79-.32-1-.32a1.85,1.85,0,0,0-1.43.68"/><path class="cls-4" d="M25.66,137.26c.19-.45.32-.52.95-.56S28,135.37,28,134.5c0-.09,0-.17-.06-.17a.51.51,0,0,0-.2.1,4.73,4.73,0,0,1-.42.25l-.81.36a1.93,1.93,0,0,0-1,1.54,1.78,1.78,0,0,0,.15.68"/><path class="cls-4" d="M76.84,130.55l.11-.31.11-.39a2.1,2.1,0,0,1,.31-.48A2.19,2.19,0,0,0,77.8,128a1.12,1.12,0,0,0-.15-.55.57.57,0,0,1-.08-.26.31.31,0,0,1,.05-.13.28.28,0,0,1,.12-.08h0a.51.51,0,0,1,.3.19c.11.15.22.23.28.23s.26-.21.33-.53.06-.26.06-.28a2.62,2.62,0,0,0-.25-.79.6.6,0,0,1-.08-.28c0-.11.06-.19.15-.19a.72.72,0,0,1,.37.24.35.35,0,0,0,.21.12c.18,0,.31-.18.44-.62a2.64,2.64,0,0,0,.11-.44c0-.08,0-.13-.09-.13h-.1l-.34,0a2.37,2.37,0,0,1-1.57-.76l-.79-1c-.3-.37-.72-.92-.7-.92l-.64-.43a.29.29,0,0,1-.17-.22c0-.11.1-.18.26-.18a6.44,6.44,0,0,1,1.45.52,8.81,8.81,0,0,0,2.84.62,2.44,2.44,0,0,0,2.45-2.4,3.58,3.58,0,0,0-1.11-2.32,1,1,0,0,0-.52-.34.14.14,0,0,0-.15.16,1,1,0,0,0,.08.32.61.61,0,0,1,.06.25c0,.13,0,.21-.14.21s-.36-.29-.51-.8-.55-1-1.4-1.43a3.36,3.36,0,0,0-.89-.32c-.06,0-.1,0-.1.13a.67.67,0,0,0,.12.33,1.36,1.36,0,0,1,.22.53v0c0,.11-.05.17-.15.17s-.22,0-.63-.67a3.23,3.23,0,0,0-1.27-1,1.53,1.53,0,0,0-.47-.11h0c-.1,0-.18,0-.18.11a1.06,1.06,0,0,0,.13.26l0,.15a.15.15,0,0,1-.13.16,3.11,3.11,0,0,1-1.11-.9,2.86,2.86,0,0,1-.73-1.68,2.17,2.17,0,0,1,2.18-2,1.63,1.63,0,0,1,.71.14l1,.5,1.15.76a4.55,4.55,0,0,0,2.12.77,3,3,0,0,0,.88-.18c.28-.07.45-.18.45-.28v0l-.1,0-.62-.06a5.34,5.34,0,0,1-1.74-.78L78.13,111,77,110.51c-.09,0-.14-.1-.14-.15a.12.12,0,0,1,.13-.11l.32.06,1.06.31a8.91,8.91,0,0,1,1.3.59,6,6,0,0,0,2.49.9,1.06,1.06,0,0,0,1.13-1,3.69,3.69,0,0,0-.12-.81,1.17,1.17,0,0,0-.16-.36.24.24,0,0,0-.14-.11c-.08,0-.13.08-.13.23v.35c0,.52-.2.7-.77.7a7.71,7.71,0,0,1-2.52-.75,8,8,0,0,0-3-.73,3.93,3.93,0,0,0-4,3.69c0,1.7,1.13,3,3.43,3.94l2.39,1c2,.81,2.69,1.39,2.69,2.16s-.59,1-1.52,1a6.43,6.43,0,0,1-1.82-.4,16.55,16.55,0,0,0-5-1,6.05,6.05,0,0,0-4.75,1.82c-.16.16-.25.22-.39.22a.87.87,0,0,1-.4-.16,1.31,1.31,0,0,0-.62-.21,1,1,0,0,0-.67.38l-.28.36a.34.34,0,0,1-.25.17c-.2,0-.56-.35-.79-.76a2.66,2.66,0,0,1-.28-.73,3.93,3.93,0,0,1-.06-.77l0-.52.09-.56c0-.27.07-.43.08-.48a.15.15,0,0,1,.14-.11c.14,0,.2.13.2.44v.3c0,.8.32,1.53.67,1.53s.51-.49.72-1.46c0-.19.11-.31.21-.31s.18.15.26.56a2.31,2.31,0,0,0,.42.9.47.47,0,0,0,.32.23c.23,0,.38-.35.5-1.15,0-.32.13-.51.24-.51a.14.14,0,0,1,.12.06,3.52,3.52,0,0,1,.2.31.81.81,0,0,0,.3.28,1,1,0,0,0,.33.11.43.43,0,0,0,.27-.11c.12-.12.19-.2.19-.23s-.06-.13-.17-.25a2.85,2.85,0,0,1-.5-.93l-.25-.64c0-.11-.09-.18-.15-.2l-.09,0-.15,0-.6.17-.18,0a.12.12,0,0,1-.13-.13.57.57,0,0,1,.23-.31,4.09,4.09,0,0,0,1.29-2.89,3,3,0,0,1,.56-1.66c.08-.11.14-.17.18-.17s.17.09.17.25a1.17,1.17,0,0,1-.09.4.77.77,0,0,0-.07.34v.1l.06.17.3-.11.34-.39a2.07,2.07,0,0,0,.37-1.15.94.94,0,0,0-.23-.65c-.17-.21-.3-.29-.42-.29h-.2l-.2,0c-.18,0-.27-.06-.27-.17.25-.85-.13-1.14-.31-1.84l-.2.14-.42.25A1.56,1.56,0,0,0,68,110c-.4.49-.42.51-.58.51s-.16,0-.16-.11v-.12a2.74,2.74,0,0,0,.09-.58,2.69,2.69,0,0,0-.79-1.64,2.56,2.56,0,0,0-.9,1.77v.34c0,.13,0,.2-.13.2h0a.37.37,0,0,1-.19-.14l-.34-.45s-.18-.16-.45-.37l-.22-.2-.12.23a3.11,3.11,0,0,0-.39,1.35c0,.37-.05.48-.13.48a.42.42,0,0,1-.18-.06c-.42-.24-.46-.26-.65-.26a.84.84,0,0,0-.85.9,2.26,2.26,0,0,0,.35.93c.26.46.64.88.81.88s.06,0,.06-.17v-.07l0-.47,0-.37v0c0-.11,0-.16.13-.16q.38,0,.66,2.22a4.37,4.37,0,0,0,1.1,2.73c.14.13.23.24.23.3s0,.09-.12.09a.91.91,0,0,1-.37-.14.58.58,0,0,0-.3-.09.8.8,0,0,0-.65.68l-.25,1.6-.2,2.24a5.84,5.84,0,0,0,.17,1.69,7,7,0,0,1,.19,1.33A3.6,3.6,0,0,1,61,128.56l-1.8.53a2.49,2.49,0,0,0-1.83,2.45,1.26,1.26,0,0,1,.82-.34l.53-.09a1.2,1.2,0,0,0,.48-.14,2,2,0,0,0,.31-.31l.48-.53c.18-.2.34-.32.44-.32s.12.07.12.17a1,1,0,0,1-.2.46,1.34,1.34,0,0,0-.2.72,1.71,1.71,0,0,0,.45,1.1,1.73,1.73,0,0,1,.12-.33,4.35,4.35,0,0,1,.41-.59,3,3,0,0,0,.68-1.27c0-.43.05-.58.16-.58s.11,0,.15.27a.34.34,0,0,0,.08.17q.1.12.18.12a.59.59,0,0,0,.22-.12,2,2,0,0,0,.45-.39,2.05,2.05,0,0,0,.28-.51,1.83,1.83,0,0,0,.14-.52v-.37c0-.09.05-.17.1-.17s.21.14.3.31.1.14.18.14h0a.44.44,0,0,0,.25-.11,1.7,1.7,0,0,0,.56-1.06l0-.52-.11-.42v0a.14.14,0,0,1,.13-.15c.13,0,.27.17.46.59.09.19.17.28.26.28s.23-.1.5-.48l.25-.36a.52.52,0,0,0,.09-.29.49.49,0,0,0-.09-.28l-.22-.34A.48.48,0,0,1,66,125a2.82,2.82,0,0,1,.42-1.32,6.64,6.64,0,0,0,.37-.7c0-.11.09-.17.15-.17s.1.07.1.15l0,.31v.44a.23.23,0,0,0,.24.15,1.07,1.07,0,0,0,.29-.06l.7-.25a7,7,0,0,0,.65-.31,3.78,3.78,0,0,1,2-.74,3.26,3.26,0,0,1,1.33.4.71.71,0,0,0,.29.09.38.38,0,0,0,.25-.15.34.34,0,0,0,.08-.21.78.78,0,0,0-.11-.35,1.25,1.25,0,0,1-.17-.42.12.12,0,0,1,.13-.12.32.32,0,0,1,.21.15c.08.13.3.5.64,1.12a3.35,3.35,0,0,0,1.8,1.71l1.23.28c.39.09.48.24.48.72a2.43,2.43,0,0,1-1.12,2.09l-1,.65a1.84,1.84,0,0,0-.67,1.42,7.82,7.82,0,0,0,.19,1.44c1.42-1.11.79-.24,1.54-2.08.11-.27.24-.45.33-.45s.15.16.15.43v.19a2.17,2.17,0,0,0,.37,1.18"/><path class="cls-4" d="M60.25,139.06c.34-.32.39-.34,1.34-.53a1.44,1.44,0,0,0,1.29-1.27,1.09,1.09,0,0,1,.71-.95A1.41,1.41,0,0,0,64,136c.06-.07.11-.11.14-.11s.1.05.1.12a1,1,0,0,1-.18.46,1.05,1.05,0,0,0-.12.54,1.83,1.83,0,0,0,.34,1.12,1.62,1.62,0,0,1,.7-.79,2.17,2.17,0,0,0,.88-1.85c0-.43.12-.65.23-.65a.13.13,0,0,1,.13.09l.2.42a.17.17,0,0,0,.17.09.69.69,0,0,0,.36-.2l.39-.37a2,2,0,0,0,.34-1.18c0-.23.1-.39.19-.39s.12.06.15.14l.17.56c0,.14.12.23.2.23a.62.62,0,0,0,.22-.14,2.27,2.27,0,0,0,.39-.43.93.93,0,0,0,.2-.55v-.48a.51.51,0,0,1,.11-.31c0-.07.1-.12.12-.12a.2.2,0,0,1,.16.15l.11.31a.32.32,0,0,0,.27.22c.14,0,.29-.13.52-.45a1.54,1.54,0,0,1,.17-.22.77.77,0,0,0,.19-.36.44.44,0,0,0-.11-.2,3.08,3.08,0,0,1-.62-1.91c0-.94.36-1.72,1.43-3.17a4.35,4.35,0,0,0,1-2.25c0-.17-.07-.25-.22-.25a.78.78,0,0,0-.34.11.63.63,0,0,1-.21.08.28.28,0,0,1-.18-.11l-.2-.22-.14-.23a.27.27,0,0,0-.23-.14l-.22,0-.25,0c-.29,0-.4.12-.4.39v.3a1.39,1.39,0,0,1-.51.88l-.53.48a3.45,3.45,0,0,0-1.17,2.15,5.09,5.09,0,0,0,.24,1.22,6.39,6.39,0,0,1,.35,1.51c0,1.35-2.07,3.12-5.88,5.06-1.93,1-2.42,1.56-2.42,2.9Z"/><path class="cls-4" d="M58.39,109.61v.7a2.15,2.15,0,0,1-.06.45,3.37,3.37,0,0,0-.12.63,2.27,2.27,0,0,0,.4,1.36,2.2,2.2,0,0,1,.29.94c0,.12,0,.18-.13.18a.21.21,0,0,1-.14-.08l-.22-.31c-.18-.24-.35-.31-.8-.31l-.49,0a5.79,5.79,0,0,1,.34,1c.22.92.26,1,.76,1.44s.54.51.54.67a.2.2,0,0,1-.19.22l-.19,0h-.11c-.15,0-.29.28-.29.59a2.24,2.24,0,0,0,.18.71,1.12,1.12,0,0,0,.2.33l.27.28a.4.4,0,0,1,.12.29c0,.14-.08.25-.17.25a.58.58,0,0,1-.25-.09.53.53,0,0,0-.2,0c-.12,0-.18.07-.18.23l0,.41.17.73a1.22,1.22,0,0,0,.31.54,1.26,1.26,0,0,0,.42.34c.35.15.54.23.56.25a.27.27,0,0,1,.08.22.19.19,0,0,1-.18.2l-.29-.06-.29,0c-.28,0-.3,0-.3.24a2.1,2.1,0,0,0,.05.43l.11.46c.12.47.28.73.45.73a.4.4,0,0,0,.2-.12,3.58,3.58,0,0,1,1.73-.59,5.43,5.43,0,0,1,1.36.15,1.11,1.11,0,0,0,.27.06c.07,0,.09-.07.09-.32l.06-.5.11-.87.09-.65v-.36l-.23.19a1.65,1.65,0,0,1-1.27.59c-1.29,0-2-1.45-2-4a26.8,26.8,0,0,1,.44-4.22,5,5,0,0,0,.09-.78,3.06,3.06,0,0,0-1.61-2.47"/><path class="cls-4" d="M60.3,115.9l.25-.26.26-.22a1.34,1.34,0,0,0,.38-.86,1,1,0,0,0-.1-.41c-.1-.21-.29-.39-.4-.39s-.18.23-.22.59l-.06.42-.08.42,0,.43Z"/><path class="cls-4" d="M57.83,127.38a1.28,1.28,0,0,1,.65.5,1.2,1.2,0,0,0,1.12.57,1.23,1.23,0,0,0,.39-.06l.37-.11.28-.09c.13,0,.23-.09.23-.14s-.23-.24-.57-.47a4.73,4.73,0,0,0-.67-.4A1.43,1.43,0,0,0,59,127a2.06,2.06,0,0,0-1.15.37"/><path class="cls-4" d="M61.65,135.61a11.83,11.83,0,0,0,1.23-.62l.82-.45c.52-.28.76-.47.76-.61s-.32-.3-.86-.3a1.85,1.85,0,0,0-2,1.65Z"/><path class="cls-4" d="M73.05,128.47c.39-.08.53-.18.73-.19l.5,0a1.64,1.64,0,0,0,.34-.23l.39-.28c.57-.38.59-.41.59-.53s-.22-.23-.7-.23c-.88,0-1.42.42-1.85,1.43"/><path class="cls-2" d="M15.5,60.82l-.14-.4,0-.22c0-.23.11-.36.43-.48a2.57,2.57,0,0,0,.95-.5l.31-.28,0,0c.08,0,.14.1.14.21a4.84,4.84,0,0,1-.78,1.69c-.29.5-.42.81-.54.81s-.28-.21-.31-.48Z"/><path class="cls-2" d="M13.84,59.69l.48.26a.31.31,0,0,1,.2.27l0,.17a1.79,1.79,0,0,0,0,.6.48.48,0,0,1-.56.5c-.09,0,0-.06-.27-.31l-.61-.7a2.57,2.57,0,0,1-.42-1.27v-.07c0-.15.05-.21.17-.21a.59.59,0,0,1,.31.15Z"/><path class="cls-2" d="M15.52,62.61l.45-.28.27.06c.31,0,.38.09.38.44s-.31.7-.87,2.11c-.25.63-.3,1-.67,1s-.72-.34-1-1.13l-.37-.9a3.88,3.88,0,0,1-.37-1.24.37.37,0,0,1,.42-.36.8.8,0,0,1,.4.11,2.82,2.82,0,0,0,.34.2l.32,0h.15Z"/><path class="cls-2" d="M68,60.91l-.24-.49,0-.22c0-.24.1-.35.47-.48a3.39,3.39,0,0,0,.92-.5l.31-.28,0,0c.08,0,.14.1.14.21a4.27,4.27,0,0,1-.73,1.6c-.29.5-.48.9-.6.9s-.27-.21-.3-.48Z"/><path class="cls-2" d="M66.23,59.69l.47.26a.37.37,0,0,1,.22.33l0,.11-.14.51-.09.56a.14.14,0,0,1-.14.12h0a1.37,1.37,0,0,1-.61-.38l-.43-.71a2.58,2.58,0,0,1-.37-.79,2.77,2.77,0,0,1-.11-.48v-.07q0-.21.18-.21a.67.67,0,0,1,.31.15Z"/><path class="cls-2" d="M67.94,62.61l.42-.28.16,0a.72.72,0,0,1,.67.63c0,.27-.37.44-.52.83L68.36,65c-.23.6-.52.9-.88.9s-.75-.35-1.06-1.13l-.36-.9a3.66,3.66,0,0,1-.36-1.17.38.38,0,0,1,.41-.43.79.79,0,0,1,.39.11l.34.2.33,0h.15Z"/><path class="cls-2" d="M13.14,112.16l-.14-.42,0-.12s0-.08.12-.08a.78.78,0,0,1,.33.18c.12.09.2.08.39.13.77.2.93.34.93.71l0,.47-.11.42c0,.19-.1.25-.18.25a2.59,2.59,0,0,1-.61-.44l-.28-.39Z"/><path class="cls-2" d="M16.54,112.86l-.37.65a1.42,1.42,0,0,0-.14.16h0c-.15,0-.3-.34-.31-.69l0-.57c0-.23.18-.33.53-.39a1.47,1.47,0,0,0,.56-.17l.45-.31h.05a.13.13,0,0,1,.13.13v0l-.2.47Z"/><path class="cls-2" d="M15.81,114.77l.44-.22a.52.52,0,0,1,.22-.06c.22,0,.38.16.38.46a3.6,3.6,0,0,1-.6,1.37c-.37.67-.65,1.12-.93,1.12s-1-.64-1.53-1.71a1.71,1.71,0,0,1-.22-.78c0-.36.16-.54.46-.54a.57.57,0,0,1,.32.09l.25.16a1.27,1.27,0,0,0,.71.23,1.06,1.06,0,0,0,.5-.12"/><path class="cls-2" d="M64.57,111.38l.39.25a4.31,4.31,0,0,0,.57.31c.43.18.59.24.59.41a1.72,1.72,0,0,1-.06.32,2.23,2.23,0,0,0-.09.39c0,.38-.27.48-.42.48s-.39-.3-.7-.84a6.48,6.48,0,0,1-.45-1.13v-.1c0-.07,0-.11.12-.11Z"/><path class="cls-2" d="M68.36,112.36l-.65.65a2.26,2.26,0,0,0-.28.61.28.28,0,0,1-.19.08h0a.29.29,0,0,1-.29-.28l0-.48,0-.48v0a.3.3,0,0,1,.25-.31l.6-.16.61-.31a1.11,1.11,0,0,1,.27-.12.15.15,0,0,1,.13.16.38.38,0,0,1-.06.18Z"/><path class="cls-2" d="M65.52,114.26l.42.32a.79.79,0,0,0,.38.09,1.78,1.78,0,0,0,.66-.18l.37-.16a.41.41,0,0,1,.22-.06c.22,0,.4.23.4.53a3,3,0,0,1-.73,1.46l-.31.65c-.25.35-.41.47-.61.47s-.49-.19-1-1.17a3.65,3.65,0,0,1-.51-1.49c0-.3.16-.51.38-.51a.55.55,0,0,1,.32.05"/><path class="cls-4" d="M14.91,63.43h-.37a.17.17,0,0,0-.14.08l-.05.14.14.68.11.58c.06.33.18.46.42.46s.44-.19.48-.54l.05-.62c0-.41.06-.62.06-.64a.22.22,0,0,0-.09-.17.2.2,0,0,0-.14-.06h0Z"/><path class="cls-4" d="M67.29,63.43H67a.16.16,0,0,0-.14.08.61.61,0,0,0-.09.14l.14.68.11.58c.06.33.12.46.36.46a.54.54,0,0,0,.54-.54l.06-.62c0-.41,0-.62,0-.64a.25.25,0,0,0-.08-.17.2.2,0,0,0-.14-.06h0Z"/><path class="cls-4" d="M15.16,115.45l-.31-.06h0c-.17,0-.26.1-.26.3a2.63,2.63,0,0,0,.51,1.22.26.26,0,0,0,.21.11c.18,0,.31-.34.4-.9l.09-.42v-.08c0-.17,0-.23-.2-.23H15.5Z"/><path class="cls-4" d="M65.89,115.81l0,.54a.5.5,0,0,0,.41.48c.25,0,.44-.39.54-1a2.89,2.89,0,0,0,.07-.39c0-.2-.08-.26-.34-.26h-.47c-.18,0-.25.14-.25.49Z"/><path class="cls-2" d="M34.28,88.61h3a1.53,1.53,0,0,1,1.5-1,1.63,1.63,0,0,1,1.56,1h2.43a1.7,1.7,0,0,1,1.6-1,1.66,1.66,0,0,1,1.52,1h2.26a1.67,1.67,0,0,1,1.49-1,1.74,1.74,0,0,1,1.51.85l.12.17h3.14v14.55H51.63v5.58H48.4v-5.58H40.25v5.58H37V103.1H34.28Z"/><rect class="cls-3" x="35.45" y="89.8" width="17.85" height="12.23"/><path class="cls-4" d="M37.31,92.6a.85.85,0,1,0,.85.85.85.85,0,0,0-.85-.85"/><path class="cls-5" d="M37.31,92.6a.85.85,0,1,0,.85.85A.85.85,0,0,0,37.31,92.6Z"/><path class="cls-4" d="M51.32,92.6a.85.85,0,1,0,.85.85.85.85,0,0,0-.85-.85"/><path class="cls-5" d="M51.32,92.6a.85.85,0,1,0,.85.85A.85.85,0,0,0,51.32,92.6Z"/><path class="cls-4" d="M37.31,99.25a.85.85,0,0,0-.85.85.86.86,0,0,0,.88.85.84.84,0,0,0,.82-.85.85.85,0,0,0-.85-.85"/><path class="cls-5" d="M37.31,99.25a.85.85,0,0,0-.85.85.86.86,0,0,0,.88.85.84.84,0,0,0,.82-.85A.85.85,0,0,0,37.31,99.25Z"/><path class="cls-4" d="M51.32,99.25a.85.85,0,1,0,.85.85.85.85,0,0,0-.85-.85"/><path class="cls-5" d="M51.32,99.25a.85.85,0,1,0,.85.85A.85.85,0,0,0,51.32,99.25Z"/><path class="cls-4" d="M40,96.68a5.36,5.36,0,0,0,4.4,2.15,5,5,0,0,0,4.15-2.15,5.64,5.64,0,0,0-8.55,0"/><path class="cls-2" d="M40.82,96.68a5.23,5.23,0,0,1,3.42-1.3,5,5,0,0,1,3.4,1.33,4.37,4.37,0,0,1-3.42,1.44,4.74,4.74,0,0,1-3.4-1.47"/><path class="cls-4" d="M42.26,96.4a3.52,3.52,0,0,0,4,0,4.65,4.65,0,0,0-2-.49,4.14,4.14,0,0,0-2,.49"/><rect class="cls-2" x="35.2" y="90.43" width="18.35" height="0.62"/><rect class="cls-6" x="35.2" y="90.43" width="18.35" height="0.62"/><path class="cls-4" d="M38,89.63v1.75a.73.73,0,0,0,.75.74.69.69,0,0,0,.77-.74V89.66c0-.67-.27-1.08-.7-1.08a.79.79,0,0,0-.34.09.84.84,0,0,0-.2.11.69.69,0,0,0-.17.23.8.8,0,0,0-.11.31Z"/><path class="cls-4" d="M43.54,91.07v.31a.73.73,0,0,0,.75.74.69.69,0,0,0,.77-.74V89.66c0-.66-.27-1.08-.7-1.08s-.82.41-.82,1Z"/><path class="cls-4" d="M48.89,89.63v1.75a.73.73,0,0,0,.75.74.68.68,0,0,0,.77-.74V89.66c0-.67-.26-1.08-.7-1.08a.79.79,0,0,0-.34.09.84.84,0,0,0-.2.11A.69.69,0,0,0,49,89a.8.8,0,0,0-.11.31Z"/><rect class="cls-4" x="37.62" y="104.44" width="1.67" height="2.15"/><rect class="cls-4" x="37.62" y="107.07" width="1.67" height="0.68"/><rect class="cls-4" x="49" y="104.44" width="1.67" height="2.15"/><rect class="cls-4" x="49" y="107.07" width="1.67" height="0.68"/><path class="cls-2" d="M496.09,102.68H465.34v1.61H466c2.5,0,4.82.47,4.82,3.88v33c0,3.41-2.32,3.88-4.82,3.88h-.63v1.61H498l2-9.69-1.47-.33c-2,7.27-5.34,7.72-12.53,7.72-4,0-7.78,0-7.78-4.39V124.86h7.54c4,0,4.83,2.68,5.06,6.11l1.5,0V116.57h-1.5c-.42,3.55-1.42,5.61-5.1,5.61h-7.5V105H487c6.51,0,7.43,3.32,7.76,7.39l1.49-.38Zm-134.41,0H343.3v1.61h.63c2.5,0,4.82.47,4.82,3.88v33c0,3.41-2.32,3.88-4.82,3.88h-.63v1.61h18.38V145h-.62c-2.51,0-4.82-.47-4.82-3.88v-33c0-3.41,2.31-3.88,4.82-3.88h.62Zm-86.77,1.62c5.79,0,8.72,2.89,8.72,9.1,0,5.63-3.33,8.56-9.4,8.56h-3.3V104.29Zm-4,19.59h4.23c6.88,0,11,3.83,11,10.59,0,6-4.05,10.41-9.4,10.41-4.46,0-5.83-1.23-5.83-5.53Zm6.32-21.21H257.73v1.61h.87c1.62,0,4.63,0,4.63,5.1V141.3c0,2.72-2.49,3.74-4.63,3.74h-.87v1.6h21.54c8.23,0,14.56-5.53,14.56-12.43a10.21,10.21,0,0,0-2.93-7.34c-2.48-2.54-5.42-3.76-11-4.16,5.4-.87,11.53-3.45,11.53-10.42,0-6.29-5.05-9.62-14.22-9.62m-82,42.37h-.57v1.6h14.83V145h-.38c-4-.15-5.91-.68-5.64-6.69l1.46-27.17s15.75,35.42,15.9,35.78h1.33l15.21-36.5,1.34,28.13.06,3.15c0,3-2.15,3.11-5.12,3.29h-.12v1.59h18.25V145c-3.37-.12-5.16-.43-5.42-3.85L244.64,112c-.37-6.22.5-7.76,5.45-7.76h.23v-1.61H238.12L224,136s-14.79-33-14.94-33.33H196.6v1.6h.51c3.5,0,5.58,2.16,5.35,6L200.74,138c-.23,4.06-.54,6.84-5.53,7m-77.92-37.46a23.09,23.09,0,0,0-7.22,17c0,14.82,9.05,23.19,23.23,23.19,7,0,13.1-2.73,17.07-7.86l-1.15-2.15c-3.52,4.52-8.19,7-14.73,7-11.65,0-16.46-10.28-16.46-21.14,0-12.2,6-19.78,15.52-19.78,9.32,0,12.08,5.4,13.74,11.31l1.44-.19-.46-10.18a33.93,33.93,0,0,0-14.9-3.16,23.71,23.71,0,0,0-16.08,5.93m25.35-54.25h.83V52.05H132.18v1.28H133c1.58,0,3.75,0,3.75,3.91V74.4c0,7.42-3.31,11.33-9.56,11.33-6.44,0-9.56-3.64-9.56-11.12V57.24c0-3.91,2.29-3.91,4.14-3.91h.39V52.05H107.29v1.28h.4c1.87,0,4,0,4,3.91V75.42c0,8.49,4.62,12.45,14.54,12.45,8.79,0,13.06-4.77,13.06-14.58V57.24c0-3.91,2.1-3.91,3.36-3.91m42.24,0h.54V52.05H172.77v1.28h.89c1.35,0,4.49.49,4.49,5V78.17L156.84,52.05H147v1.28h.44c2.74,0,4.69,1.41,4.69,4.77V79.17c0,3.52-.53,6.66-4.64,6.66H147v1.28h12.52V85.83H159c-4.24,0-4.75-3.16-4.75-6.68V58l24.18,29.25h1.86V60c0-6.15,2.36-6.66,4.58-6.66m-9.62,75.44H163l6.15-17.13ZM192.4,145c-2.27,0-3.83-1.19-4.89-4.21l-14.32-38.16h-3.31l-14,38c-1,2.7-2.86,4.36-5.57,4.36h-.15v1.65h13.38V145H163c-3.22,0-5.41-1-4-5.19l3.2-8.87H176l3.47,9.67c1,3.05-.3,4.44-3.61,4.44h-.39v1.62h17V145Zm-2.8-57.93h14.64V85.83h-.49c-2,0-3.84-.38-3.84-3.1V56.43c0-2.72,1.84-3.1,3.84-3.1h.49V52.05H189.6v1.28h.5c2,0,3.84.38,3.84,3.1v26.3c0,2.72-1.85,3.1-3.84,3.1h-.5Zm51.2-33.78H241V52.05H231v1.28h.64c3.19,0,4.07,1.12,2.7,4.79l-7.71,21.56-9.09-22.91c-.71-1.89-.23-3.44,2.25-3.44h.94V52.05H206.28v1.28h.29c2.13,0,3.32.45,4.33,3l12.68,30.89h2.23l11.68-31.17c.95-2.42,2.23-2.74,3.31-2.74m28.6,33.76,1.6-7.73-1.17-.26c-1.6,5.8-4.26,6.16-10,6.16-3.19,0-6.2,0-6.2-3.5v-12h6c3.21,0,3.86,2.13,4,4.87h1.19V63.11h-1.19c-.33,2.83-1.13,4.47-4.06,4.47h-6V53.88h7c5.19,0,5.92,2.64,6.19,5.89l1.18-.31-.09-7.41h-24.5v1.28h.49c2,0,3.84.37,3.84,3.09V82.71c0,2.72-1.84,3.1-3.84,3.1h-.49v1.28Zm18.78-17.87h-3V53.7a25.86,25.86,0,0,1,3.39-.22c4.49,0,7.47,3,7.47,7.61,0,5.7-2.41,8.13-7.86,8.13m11.3,17.89h9V85.8c-2.37-.13-3.49-1-4.87-3.07L295,69.63l.23-.09c3.07-1.24,7-3.76,7-8.75,0-5.88-3.85-8.74-11.62-8.74H274.87v1.28h.69c1.29,0,3.69,0,3.69,4.06V82.88c0,2.18-2,3-3.69,3h-.69v1.28h15.24V85.83h-.69c-2.49,0-4.25-.31-4.25-4.27V70.65h3.88Zm16.79-27.38c0-4.2,2.81-6.53,6.61-6.53,4,0,5.9,2.76,6.5,6.35l1.32-.19-.48-6.82a40.76,40.76,0,0,0-7.33-.84c-6.82,0-11.59,4-11.59,10.31,0,6.48,4.61,8.63,8.61,10.71,3.42,1.79,7.09,3.46,7.09,7.74,0,3.53-2.58,6-6.62,6-4.21,0-7.42-2.92-8.38-8l-1.28.22.84,7.6a17.6,17.6,0,0,0,8.3,2c6,0,12.41-3.23,12.41-10.46,0-6.54-4.78-8.71-8.95-10.81-3.4-1.71-7.05-3.33-7.05-7.28m-1.09,64.49h-3.76V104.75a29.65,29.65,0,0,1,4.25-.28c5.63,0,9.36,3.75,9.36,9.55,0,7.15-3,10.2-9.86,10.2M340.63,145c-3-.16-4.38-1.19-6.11-3.86l-10.79-16.42.28-.12c3.86-1.55,8.74-4.72,8.74-11,0-7.37-4.83-11-14.57-11H298.49v1.61h.87c1.62,0,4.64,0,4.64,5.1v32c0,2.73-2.5,3.69-4.64,3.69h-.87v1.61h19.12v-1.61h-.88c-3.11,0-5.31-.38-5.31-5.35V126h4.86l13.09,20.65h11.26Zm-3.27-57.91H352V85.83h-.5c-2,0-3.84-.38-3.84-3.1V56.43c0-2.72,1.84-3.1,3.84-3.1h.5V52.05H337.36v1.28h.5c2,0,3.84.38,3.84,3.1v26.3c0,2.72-1.85,3.1-3.84,3.1h-.5ZM386,59.37l.89-9.15h-1.13c-.22,1.52-1.73,1.82-2.89,1.82H359.63c-1.24,0-2.51-.29-3-1.75h-1l-.81,9h1.26c.71-3.55,1.06-5.14,4.7-5.14h7.16V81.36c0,4.25-1.63,4.47-4.29,4.47h-.74v1.28h16V85.83h-.74c-2.27,0-4.29-.35-4.29-4.57V54.19h7.07c3.4,0,3.7,3.07,3.78,5.18Zm18.42,66.4c0,9.38-5.06,19-16.16,19-4.72,0-6.7-.76-6.7-5.42V104.77c1.05-.12,3.38-.21,4.47-.21,12.37,0,18.38,6.64,18.38,21.21m1.6-17.3c-4.28-4-10.4-5.82-17.71-5.82l-19.66,0v1.61h.62c2.51,0,4.83.47,4.83,3.88v33c0,3.42-2.32,3.89-4.83,3.89h-.62v1.61h20.65c6.1,0,12.13-1.46,16.43-5.72a23.16,23.16,0,0,0,6.74-16.37c0-6.6-2.23-12.16-6.45-16.08m16.74-55.12v-1.3h-9.87v1.28h.58c3.75,0,3.32,2,1.8,4.28L408.59,68.1l-7.5-11.61c-1.18-1.69-1-3.16,1.8-3.16h.45V52.05H388.85v1.28h.3c2.34,0,3.45,1.41,4.93,3.54l9.66,13.81V81.46c0,3.67-1.5,4.37-4.29,4.37h-.74v1.28h16V85.83H414c-2.67,0-4.29-.33-4.29-4.78V69.85l8.9-13.72c.91-1.29,2.13-2.67,4.15-2.78m19.09,48.07c-11.65,0-24,7.06-24,22.54,0,14.56,9.38,24,23.89,24a51.58,51.58,0,0,0,15.47-2.32v-12c0-2.36,1.25-3.61,3.62-3.61h.51v-1.57h-16.9V130h.51c3.25,0,5,1.25,5,3.61v10.78a18,18,0,0,1-7.12,1.1c-11.68,0-16.9-11-16.9-22.18,0-12.12,6.19-19.65,16.41-19.65,7.57,0,10.94,3,12.76,10.52l1.48-.09-.7-10.5a47.36,47.36,0,0,0-14-2.17m21.71-31.69c0,11-3.74,16.31-11.43,16.31-8.4,0-12.22-9.33-12.22-18,0-3.5.82-14.93,11.38-14.93,8,0,12.27,8.56,12.27,16.61M470,68.61c0-10.2-7.68-17.33-18.68-17.33-10.09,0-18,8.15-18,18.55s7.67,18,18.24,18S470,79.77,470,68.61m27.41-8.84,1.18-.3-.1-7.42H474v1.28h.49c2,0,3.85.38,3.85,3.1v26.3c0,2.72-1.85,3.1-3.85,3.1H474V87.1h15.63V85.83h-.45c-2.31,0-4.92,0-4.92-3.1v-13h6.22c3.6,0,4.11,2.79,4.14,5h1.16V63.48h-1.16c0,1.83-.45,4.12-3.35,4.12h-7V53.88h8c4.19,0,4.87,2.88,5.15,5.89"/><path class="cls-2" d="M119,189.81c0,2.6,1.41,2.64,3.38,2.68v1c-1.86,0-3.56-.07-5.27-.07s-3.38,0-5.27.07v-1c3.23,0,3.52-.6,3.52-4.2V171.81c0-3-.59-3.19-3.52-3.3v-1c2.63,0,5.34.07,8,.07,3.38,0,6.79,0,10.1-.07l.22,5.23-.85.15c-.38-3.16-1.93-4.2-6-4.2H119v10.54h4.38c3,0,3.3-.44,3.79-3.08h.85c-.08.71-.15,2.71-.15,4.05,0,1.19.07,2.93.15,3.93h-.74c-.45-2.56-.49-3.37-3.75-3.37H119Z"/><path class="cls-2" d="M148.61,192c-1,1-2.19,2-3.68,2s-2.22-1.41-2.3-2.75c-1.74,1.6-3.41,2.75-5.71,2.75a3.73,3.73,0,0,1-4-3.6c.15-3,1.67-3.53,9.69-6.27v-2.45c0-2.08-1.23-3.19-3.6-3.19a2.58,2.58,0,0,0-2.83,2.59c0,1-1.18,1.56-2.07,1.56a.67.67,0,0,1-.67-.74c0-2,1.67-2.9,4.27-4.23,1.3-.67,1.93-1.19,3.34-1.19,1.67,0,4.52,1.08,4.52,3.12v10.28c0,1.52.52,2.11,1.34,2.11a1.82,1.82,0,0,0,1.37-.63Zm-6-6.79c-1.9.75-6.72,1.6-6.72,4.38a2.67,2.67,0,0,0,2.63,2.67c1.75,0,2.86-1.07,4.09-2.15Z"/><path class="cls-2" d="M165.46,190.15c-1.82,2.11-4.31,3.86-7.24,3.86-3.86,0-7.39-3.75-7.39-7.68,0-5.39,3.86-9.84,9.21-9.84,1.89,0,5,.59,5,2.56a1.49,1.49,0,0,1-1.41,1.64c-1.56,0-1.49-3-5-3-3.19,0-4.86,3.56-4.86,6.38,0,3.82,2.45,7.2,6.5,7.2a6.9,6.9,0,0,0,4.52-1.74Z"/><path class="cls-2" d="M183.49,191.41c0,.67.41.71,1,.71.44,0,1,0,1.48,0v.78a38.39,38.39,0,0,0-5.34,1.15l-.19-.11v-3c-2.22,1.82-3.93,3.12-6.56,3.12-2,0-4.09-1.3-4.09-4.42v-9.5c0-1-.15-1.89-2.22-2.08v-.7c1.33,0,4.3-.26,4.78-.26s.41.26.41,1.07v9.58c0,1.11,0,4.3,3.23,4.3,1.26,0,2.93-1,4.49-2.26v-10c0-.75-1.78-1.15-3.12-1.52v-.67c3.34-.23,5.42-.52,5.79-.52s.3.26.3.67Z"/><path class="cls-2" d="M188.2,192.49h.71c1,0,1.78,0,1.78-1.23V170.59c0-2.41-.56-2.49-2-2.9v-.59a23.88,23.88,0,0,0,3.82-1.59,3.57,3.57,0,0,1,.82-.41c.22,0,.3.22.3.52v25.64c0,1.23.81,1.23,1.85,1.23h.63v1c-1.26,0-2.56-.07-3.89-.07s-2.68,0-4.05.07Z"/><path class="cls-2" d="M203.45,188.89c0,2.45,1.34,3.11,2.34,3.11a3.69,3.69,0,0,0,2.6-1.07l.56.55A7.08,7.08,0,0,1,204,194c-2.37,0-3.53-1.26-3.53-3.45V179.05H198v-.59a16,16,0,0,0,5-5.2h.44v3.79H209v2h-5.53Z"/><path class="cls-2" d="M210.32,177.05c1.45,0,2.86.07,4.3.07,1.12,0,2.23-.07,3.34-.07v1c-.7.08-2,0-2,1s3.34,8.47,3.75,10h.08c.77-2.15,3.67-8.39,3.67-9.43,0-1.56-1.19-1.56-2.08-1.56v-1c1.15,0,2.34.07,3.49.07.93,0,1.86,0,2.78-.07v1c-1.74,0-2.26,1-2.93,2.38l-8.39,19.67a2.48,2.48,0,0,1-2.37,1.85,1.74,1.74,0,0,1-1.82-1.78,1.89,1.89,0,0,1,1.78-1.85,1.87,1.87,0,0,1,1.52.55c1.82-3.86,2.6-6,2.6-6s-4.9-12.62-5.34-13.47a2.22,2.22,0,0,0-2.34-1.38Z"/><path class="cls-2" d="M248.62,176.49c5.15,0,9,3.42,9,8.69A8.72,8.72,0,0,1,249.1,194c-4.94,0-9-3.42-9-8.69A8.55,8.55,0,0,1,248.62,176.49Zm.44,16.55c3.71,0,5.16-4.3,5.16-7.49s-1.63-8.09-5.57-8.09c-3.67,0-5.12,4.3-5.12,7.49S245.16,193,249.06,193Z"/><path class="cls-2" d="M271,177.05v2h-4.71V191.6c0,.89.93.89,1.74.89h1.67v1c-1.59,0-3.15-.07-4.75-.07s-3.08,0-4.6.07v-1h1.41c1.37,0,1.56-.63,1.56-1.19V179.05h-2.6v-.63c.85-.52,2.6-1.08,2.6-2.34,0-2.41.67-6.05,3-8.42a7.47,7.47,0,0,1,4.49-2.56c.63,0,1.67.15,1.67,1.52a1.27,1.27,0,0,1-1.3,1.45c-1.11,0-1.11-.52-2.37-.52-2.27,0-2.49,2.67-2.49,4.19v5.31Z"/><path class="cls-2" d="M300.57,188.37c3.34-6.94,6.94-13.77,10-20.82,1,0,2,.07,3,.07s2.19-.07,3.27-.07v1a4.6,4.6,0,0,0-2.6.45c-.48.37-.7,1-.7,2.22,0,5.87.33,12.1.48,17.71.07,2.78.33,3.6,4.05,3.6v1c-2.05,0-4.09-.07-6.13-.07-1.82,0-3.6,0-5.42.07v-1a6.54,6.54,0,0,0,2.86-.34c.67-.37,1-1.07,1-2.52l-.26-17.7h-.08l-8.76,18.18c-.4.89-1.15,2.71-1.44,3.68h-.75c-3.15-7.09-6.71-14-10.24-21h-.07l-.3,13.44c0,.48,0,1.82,0,2.34,0,1.81.19,2.82.78,3.34s1.52.63,3,.63v1c-1.52,0-3.08-.07-4.6-.07s-3.31,0-4.94.07v-1c2.63,0,4.27-.63,4.42-5.61s.4-10.13.4-15.21c0-1.3-.18-2.12-.7-2.56a3.87,3.87,0,0,0-2.56-.6v-1c1.3,0,2.63.07,3.93.07.78,0,1.6-.07,2.38-.07Z"/><path class="cls-2" d="M336.23,192c-1,1-2.19,2-3.67,2s-2.23-1.41-2.3-2.75c-1.75,1.6-3.42,2.75-5.72,2.75a3.74,3.74,0,0,1-4-3.6c.15-3,1.67-3.53,9.69-6.27v-2.45c0-2.08-1.22-3.19-3.6-3.19a2.57,2.57,0,0,0-2.82,2.59c0,1-1.19,1.56-2.08,1.56a.67.67,0,0,1-.67-.74c0-2,1.67-2.9,4.27-4.23,1.3-.67,1.93-1.19,3.34-1.19,1.67,0,4.53,1.08,4.53,3.12v10.28c0,1.52.52,2.11,1.34,2.11a1.82,1.82,0,0,0,1.37-.63Zm-6-6.79c-1.89.75-6.72,1.6-6.72,4.38a2.68,2.68,0,0,0,2.64,2.67c1.74,0,2.86-1.07,4.08-2.15Z"/><path class="cls-2" d="M343.65,188.89c0,2.45,1.34,3.11,2.34,3.11a3.69,3.69,0,0,0,2.6-1.07l.56.55a7.08,7.08,0,0,1-4.94,2.53c-2.37,0-3.52-1.26-3.52-3.45V179.05h-2.45v-.59a16,16,0,0,0,5-5.2h.44v3.79h5.53v2h-5.53Z"/><path class="cls-2" d="M353.34,170.59c0-2.41-.56-2.49-2-2.9v-.59a23.49,23.49,0,0,0,3.82-1.59,3.57,3.57,0,0,1,.82-.41c.22,0,.3.22.3.52v14.14c.33-.3,2.71-3.27,5.71-3.27,3.23,0,5,2.38,5,5.61v9.16c0,1.23.81,1.23,1.85,1.23h.67v1c-1.3,0-2.6-.07-4-.07s-2.67,0-4,.07v-1h.67c1.75,0,1.86-.41,1.86-4.05v-4.19c0-2.71-.26-5.53-3.64-5.53-1.74,0-3.23,1.3-4.08,2.08v10.46c0,1.23.81,1.23,1.85,1.23h.67v1c-1.3,0-2.6-.07-3.93-.07s-2.67,0-4,.07v-1h.67c1,0,1.78,0,1.78-1.23Z"/><path class="cls-2" d="M374.75,183.21a9.88,9.88,0,0,0,0,2.15c.22,3.53,2.49,6.42,5.46,6.42a7.11,7.11,0,0,0,5-2.49l.52.52c-1.71,2.27-3.83,4.2-6.87,4.2-5.9,0-7.09-5.72-7.09-8.09,0-7.28,4.9-9.43,7.5-9.43,3,0,6.23,1.89,6.27,5.83a3.82,3.82,0,0,1,0,.67l-.33.22Zm6.57-1.19c.93,0,1-.48,1-.93a3.14,3.14,0,0,0-3.23-3.41c-2.26,0-3.82,1.67-4.27,4.34Z"/><path class="cls-2" d="M390.45,181.2c0-1.63-.56-1.85-1.93-2.59V178c1.74-.52,3.78-1.22,4-1.33a1.3,1.3,0,0,1,.67-.19c.18,0,.26.22.26.52v2.26c2-1.44,3.74-2.78,6.42-2.78a3.72,3.72,0,0,1,3.93,2.86c2-1.34,3.71-2.86,6.38-2.86,3.23,0,4.42,2.52,4.42,5.23v9.54c0,1.23.82,1.23,1.86,1.23H417v1c-1.18,0-2.48-.07-3.82-.07s-2.67,0-4,.07v-1h.67c1,0,1.78,0,1.78-1.23v-8.2c0-2.34-.48-4.56-3.23-4.56a9.75,9.75,0,0,0-4.38,1.78v11c0,1.23.86,1.23,1.9,1.23h.66v1c-1.29,0-2.63-.07-4-.07s-2.67,0-4,.07v-1h.67c1,0,1.78,0,1.78-1.23v-8.2c0-2.34-.48-4.56-3.22-4.56a9.65,9.65,0,0,0-4.38,1.78v11c0,1.23.81,1.23,1.85,1.23h.67v1c-1.3,0-2.6-.07-3.93-.07s-2.68,0-4.12.07v-1h.78c1,0,1.78,0,1.78-1.23Z"/><path class="cls-2" d="M435.13,192c-1,1-2.19,2-3.68,2s-2.22-1.41-2.3-2.75c-1.74,1.6-3.41,2.75-5.71,2.75a3.73,3.73,0,0,1-4-3.6c.15-3,1.67-3.53,9.69-6.27v-2.45c0-2.08-1.23-3.19-3.6-3.19a2.56,2.56,0,0,0-2.82,2.59c0,1-1.19,1.56-2.08,1.56a.67.67,0,0,1-.67-.74c0-2,1.67-2.9,4.27-4.23,1.3-.67,1.93-1.19,3.34-1.19,1.67,0,4.53,1.08,4.53,3.12v10.28c0,1.52.52,2.11,1.33,2.11a1.86,1.86,0,0,0,1.38-.63Zm-6-6.79c-1.9.75-6.72,1.6-6.72,4.38a2.67,2.67,0,0,0,2.63,2.67c1.75,0,2.86-1.07,4.09-2.15Z"/><path class="cls-2" d="M442.55,188.89c0,2.45,1.34,3.11,2.34,3.11a3.71,3.71,0,0,0,2.6-1.07l.55.55a7.05,7.05,0,0,1-4.93,2.53c-2.38,0-3.53-1.26-3.53-3.45V179.05h-2.45v-.59a16,16,0,0,0,5-5.2h.45v3.79h5.53v2h-5.53Z"/><path class="cls-2" d="M450,192.49h.71c1,0,1.78,0,1.78-1.23V181.2c0-1.63-.56-1.85-1.93-2.59V178c1.74-.52,3.82-1.22,4-1.33a1.3,1.3,0,0,1,.67-.19c.18,0,.26.22.26.52v14.25c0,1.23.81,1.23,1.85,1.23h.63v1c-1.26,0-2.56-.07-3.89-.07s-2.68,0-4,.07Zm4-21.72a1.82,1.82,0,1,1,0-3.63,1.81,1.81,0,0,1,1.82,1.78A1.85,1.85,0,0,1,453.94,170.77Z"/><path class="cls-2" d="M474.65,190.15c-1.82,2.11-4.3,3.86-7.24,3.86-3.86,0-7.38-3.75-7.38-7.68,0-5.39,3.86-9.84,9.2-9.84,1.89,0,5,.59,5,2.56a1.49,1.49,0,0,1-1.41,1.64c-1.56,0-1.48-3-5-3-3.19,0-4.86,3.56-4.86,6.38,0,3.82,2.45,7.2,6.49,7.2a6.92,6.92,0,0,0,4.53-1.74Z"/><path class="cls-2" d="M477.8,188.29c.49,2.45,2,4.53,4.68,4.53,2.19,0,3-1.34,3-2.63,0-4.38-8.09-3-8.09-8.95,0-2.08,1.67-4.75,5.76-4.75a9.7,9.7,0,0,1,4.23,1.08l.26,3.78h-.86c-.37-2.34-1.67-3.67-4-3.67-1.49,0-2.9.85-2.9,2.45,0,4.34,8.61,3,8.61,8.83,0,2.45-2,5-6.38,5a9.82,9.82,0,0,1-4.53-1.26l-.41-4.27Z"/></g></g></svg>