<?xml version="1.0" encoding="UTF-8" standalone="no"?>
<svg
   xmlns:dc="http://purl.org/dc/elements/1.1/"
   xmlns:cc="http://creativecommons.org/ns#"
   xmlns:rdf="http://www.w3.org/1999/02/22-rdf-syntax-ns#"
   xmlns:svg="http://www.w3.org/2000/svg"
   xmlns="http://www.w3.org/2000/svg"
   version="1.1"
   id="svg5682"
   viewBox="0 0 329.12774 301.87183"
   height="85.194939mm"
   width="92.887161mm">
  <defs
     id="defs5684" />
  <metadata
     id="metadata5687">
    <rdf:RDF>
      <cc:Work
         rdf:about="">
        <dc:format>image/svg+xml</dc:format>
        <dc:type
           rdf:resource="http://purl.org/dc/dcmitype/StillImage" />
        <dc:title></dc:title>
      </cc:Work>
    </rdf:RDF>
  </metadata>
  <g
     transform="translate(-249.72185,-615.71197)"
     id="layer1">
    <g
       id="text7154-5-0-3-0-8-5-16-8"
       style="font-style:normal;font-variant:normal;font-weight:normal;font-stretch:normal;font-size:307.18588257px;line-height:125%;font-family:FontAwesome;-inkscape-font-specification:'FontAwesome, Normal';text-align:start;letter-spacing:0px;word-spacing:0px;writing-mode:lr-tb;text-anchor:start;display:inline;fill:#703d82;fill-opacity:0.21568628;stroke:none;stroke-width:1px;stroke-linecap:butt;stroke-linejoin:miter;stroke-opacity:1">
      <path
         id="path4136"
         style="fill:#703d82;fill-opacity:0.21568628"
         d="m 390.45824,797.58933 q 12.85655,-12.85656 12.85655,-31.02715 0,-18.17059 -12.85655,-31.02715 -12.85656,-12.85655 -31.02715,-12.85655 -18.17059,0 -31.02714,12.85655 -12.85656,12.85656 -12.85656,31.02715 0,18.17059 12.85656,31.02715 12.85655,12.85655 31.02714,12.85655 18.17059,0 31.02715,-12.85655 z m 144.50764,56.74024 q 0,-8.91387 -6.51399,-15.42786 -6.51398,-6.51398 -15.42786,-6.51398 -8.91387,0 -15.42786,6.51398 -6.51399,6.51399 -6.51399,15.42786 0,9.0853 6.34257,15.59929 6.51399,6.34256 15.59928,6.34256 9.0853,0 15.42786,-6.34256 6.51399,-6.51399 6.51399,-15.59929 z m 0,-175.53479 q 0,-8.91387 -6.51399,-15.42786 -6.51398,-6.51398 -15.42786,-6.51398 -8.91387,0 -15.42786,6.51398 -6.51399,6.51399 -6.51399,15.42786 0,9.0853 6.34257,15.59929 6.51399,6.34256 15.59928,6.34256 9.0853,0 15.42786,-6.34256 6.51399,-6.51399 6.51399,-15.59929 z m -65.82554,72.16812 0,31.71282 q 0,1.71421 -1.19995,3.42842 -1.19994,1.54278 -2.74273,1.71421 l -26.57021,4.11409 q -1.88563,5.99973 -5.48546,13.02797 5.8283,8.2282 15.42786,19.71338 1.19995,1.71421 1.19995,3.42842 0,2.05705 -1.19995,3.25699 -3.94267,5.14262 -14.22792,15.42786 -10.11382,10.11382 -13.37081,10.11382 -1.88563,0 -3.59983,-1.19994 l -19.71338,-15.42786 q -6.34257,3.25699 -13.1994,5.31404 -1.88563,18.51343 -3.94267,26.57021 -1.19995,4.11409 -5.14262,4.11409 l -31.88425,0 q -1.88563,0 -3.42842,-1.19994 -1.54278,-1.37137 -1.7142,-3.08557 l -3.94268,-26.22737 q -5.8283,-1.71421 -12.85655,-5.31404 l -20.22764,15.25644 q -1.19995,1.19994 -3.42842,1.19994 -1.88563,0 -3.59983,-1.37136 -24.68458,-22.79895 -24.68458,-27.42731 0,-1.54279 1.19994,-3.25699 1.71421,-2.39989 7.02825,-9.0853 5.31404,-6.68541 8.05677,-10.45666 -3.94267,-7.54251 -5.99972,-14.0565 l -26.05595,-4.1141 q -1.7142,-0.17142 -2.91415,-1.54278 -1.19994,-1.54279 -1.19994,-3.42842 l 0,-31.71283 q 0,-1.7142 1.19994,-3.25699 1.19995,-1.71421 2.74273,-1.88563 l 26.57021,-4.11409 q 1.88563,-5.99973 5.48546,-13.02798 -5.8283,-8.22819 -15.42786,-19.71338 -1.19994,-1.88562 -1.19994,-3.42841 0,-2.05705 1.19994,-3.42841 3.77126,-5.14262 14.0565,-15.25644 10.28524,-10.11383 13.54223,-10.11383 1.88563,0 3.59984,1.19995 l 19.71338,15.42786 q 5.8283,-3.08557 13.19939,-5.48546 1.88563,-18.51344 3.94268,-26.39879 1.19994,-4.11409 5.14262,-4.11409 l 31.88425,0 q 1.88562,0 3.42841,1.37136 1.54279,1.19995 1.71421,2.91415 l 3.94267,26.22737 q 5.82831,1.71421 12.85655,5.31404 l 20.22765,-15.25644 q 1.37136,-1.19995 3.42841,-1.19995 1.88563,0 3.59983,1.37137 24.68458,22.79895 24.68458,27.42731 0,1.54279 -1.19994,3.25699 -2.05705,2.74273 -7.19967,9.25672 -5.14262,6.51399 -7.71393,10.28524 3.94268,8.2282 5.8283,14.0565 l 26.05595,3.94268 q 1.71421,0.34284 2.91415,1.88562 1.19995,1.37137 1.19995,3.257 z m 109.70924,91.36723 0,23.99889 q 0,2.74273 -25.54168,5.31404 -2.05705,4.62836 -5.14263,8.91388 8.74246,19.37054 8.74246,23.65606 0,0.68568 -0.68568,1.19994 -20.91333,12.17087 -21.25617,12.17087 -1.37136,0 -7.88535,-8.05677 -6.51399,-8.05677 -8.91388,-11.65661 -3.42841,0.34284 -5.14262,0.34284 -1.7142,0 -5.14262,-0.34284 -2.39989,3.59984 -8.91387,11.65661 -6.51399,8.05677 -7.88536,8.05677 -0.34284,0 -21.25616,-12.17087 -0.68568,-0.51426 -0.68568,-1.19994 0,-4.28552 8.74245,-23.65606 -3.08557,-4.28552 -5.14262,-8.91388 -25.54168,-2.57131 -25.54168,-5.31404 l 0,-23.99889 q 0,-2.74274 25.54168,-5.31405 2.22847,-4.9712 5.14262,-8.91387 -8.74245,-19.37054 -8.74245,-23.65606 0,-0.68568 0.68568,-1.19994 0.68568,-0.34284 5.99972,-3.42842 5.31404,-3.08557 10.11382,-5.8283 4.79978,-2.74273 5.14262,-2.74273 1.37137,0 7.88536,8.05677 6.51398,7.88535 8.91387,11.48519 3.42842,-0.34284 5.14262,-0.34284 1.71421,0 5.14262,0.34284 8.74246,-12.17087 15.77071,-19.19912 l 1.02852,-0.34284 q 0.68568,0 21.25617,11.99945 0.68568,0.51426 0.68568,1.19994 0,4.28552 -8.74246,23.65606 2.91416,3.94267 5.14263,8.91387 25.54168,2.57131 25.54168,5.31405 z m 0,-175.53479 0,23.99889 q 0,2.74273 -25.54168,5.31404 -2.05705,4.62836 -5.14263,8.91388 8.74246,19.37054 8.74246,23.65606 0,0.68568 -0.68568,1.19994 -20.91333,12.17087 -21.25617,12.17087 -1.37136,0 -7.88535,-8.05677 -6.51399,-8.05677 -8.91388,-11.65661 -3.42841,0.34284 -5.14262,0.34284 -1.7142,0 -5.14262,-0.34284 -2.39989,3.59984 -8.91387,11.65661 -6.51399,8.05677 -7.88536,8.05677 -0.34284,0 -21.25616,-12.17087 -0.68568,-0.51426 -0.68568,-1.19994 0,-4.28552 8.74245,-23.65606 -3.08557,-4.28552 -5.14262,-8.91388 -25.54168,-2.57131 -25.54168,-5.31404 l 0,-23.99889 q 0,-2.74274 25.54168,-5.31405 2.22847,-4.9712 5.14262,-8.91387 -8.74245,-19.37054 -8.74245,-23.65606 0,-0.68568 0.68568,-1.19994 0.68568,-0.34284 5.99972,-3.42842 5.31404,-3.08557 10.11382,-5.8283 4.79978,-2.74273 5.14262,-2.74273 1.37137,0 7.88536,8.05677 6.51398,7.88535 8.91387,11.48519 3.42842,-0.34284 5.14262,-0.34284 1.71421,0 5.14262,0.34284 8.74246,-12.17087 15.77071,-19.19912 l 1.02852,-0.34284 q 0.68568,0 21.25617,11.99945 0.68568,0.51426 0.68568,1.19994 0,4.28552 -8.74246,23.65606 2.91416,3.94267 5.14263,8.91387 25.54168,2.57131 25.54168,5.31405 z" />
    </g>
  </g>
</svg>
