<?xml version='1.0' ?><svg xmlns:ns0="http://www.iki.fi/pav/software/textext/" xmlns:dc="http://purl.org/dc/elements/1.1/" xmlns:cc="http://creativecommons.org/ns#" xmlns:rdf="http://www.w3.org/1999/02/22-rdf-syntax-ns#" xmlns:svg="http://www.w3.org/2000/svg" xmlns="http://www.w3.org/2000/svg" id="svg2" y="0px" x="0px" version="1.1" width="573.77508" height="260.38642" viewBox="-2.3563764e-6 0.90726974 573.77508 260.38642" preserveAspectRatio="none">
  <metadata id="metadata828">
    <rdf:RDF>
      <cc:Work rdf:about="">
        <dc:format>image/svg+xml</dc:format>
        <dc:type rdf:resource="http://purl.org/dc/dcmitype/StillImage" />
        <dc:title />
      </cc:Work>
    </rdf:RDF>
  </metadata>
  <defs id="defs826" />
  <g transform="matrix(0.45214742,0,0,0.45363487,-2.3563764e-6,0)" id="g316" style="stroke-width:1;stroke-linecap:square;stroke-linejoin:miter;stroke-miterlimit:10;stroke-dasharray:none;stroke-dashoffset:0">
    <clipPath id="clip29">
      <path d="m 0,0 0,576 1269,0 0,-576 z" id="path319" />
    </clipPath>
    <g clip-path="url(#clip29)" id="g321">
      <g id="g323" style="fill:none;stroke:#000000;stroke-width:2;stroke-linecap:butt;stroke-opacity:1">
        <path d="m 1342.9,299 0,3" id="path325" />
      </g>
    </g>
  </g>
  <g transform="matrix(0.31877286,0,0,0.31982154,-2.3563764e-6,0)" id="misc" style="stroke-width:1;stroke-linecap:square;stroke-linejoin:miter;stroke-miterlimit:10;stroke-dasharray:none;stroke-dashoffset:0" />
  <g id="g7129">
    <g style="stroke-width:1;stroke-linecap:square;stroke-linejoin:miter;stroke-miterlimit:10;stroke-dasharray:none;stroke-dashoffset:0" id="g19" transform="matrix(0.45214742,0,0,0.45363487,-2.3563764e-6,0)">
      <clipPath id="clip2">
        <path id="path22" d="m 0,0 0,576 1269,0 0,-576 z" />
      </clipPath>
      <g id="g24" clip-path="url(#clip2)">
        <g style="fill:none;stroke:#000000;stroke-width:2;stroke-linecap:butt;stroke-opacity:1" id="g26">
          <path id="path28" d="m 636,3 0,573" />
        </g>
      </g>
    </g>
    <g style="stroke-width:1;stroke-linecap:square;stroke-linejoin:miter;stroke-miterlimit:10;stroke-dasharray:none;stroke-dashoffset:0" id="g30" transform="matrix(0.45214742,0,0,0.45363487,-2.3563764e-6,0)">
      <clipPath id="clip3">
        <path id="path33" d="m 0,0 0,576 1269,0 0,-576 z" />
      </clipPath>
      <g id="g35" clip-path="url(#clip3)">
        <g style="fill:#000000;fill-opacity:1;fill-rule:nonzero;stroke:none" id="g37">
          <path id="path39" d="m 636,2 -7,28 14,0" />
        </g>
      </g>
    </g>
    <g style="stroke-width:1;stroke-linecap:square;stroke-linejoin:miter;stroke-miterlimit:10;stroke-dasharray:none;stroke-dashoffset:0" id="g41" transform="matrix(0.45214742,0,0,0.45363487,-2.3563764e-6,0)">
      <clipPath id="clip4">
        <path id="path44" d="m 0,0 0,576 1269,0 0,-576 z" />
      </clipPath>
      <g id="g46" clip-path="url(#clip4)">
        <g style="fill:none;stroke:#000000;stroke-width:2;stroke-linecap:butt;stroke-opacity:1" id="g48">
          <path id="path50" d="m 7.6815,299 0,4" />
        </g>
      </g>
    </g>
    <g style="stroke-width:1;stroke-linecap:square;stroke-linejoin:miter;stroke-miterlimit:10;stroke-dasharray:none;stroke-dashoffset:0" id="g52" transform="matrix(0.45214742,0,0,0.45363487,-2.3563764e-6,0)">
      <clipPath id="clip5">
        <path id="path55" d="m 0,0 0,576 1269,0 0,-576 z" />
      </clipPath>
      <g id="g57" clip-path="url(#clip5)">
        <g style="fill:none;stroke:#000000;stroke-width:2;stroke-linecap:butt;stroke-opacity:1" id="g59">
          <path id="path61" d="m 0,299 1266,0" />
        </g>
      </g>
    </g>
    <g style="stroke-width:1;stroke-linecap:square;stroke-linejoin:miter;stroke-miterlimit:10;stroke-dasharray:none;stroke-dashoffset:0" id="g63" transform="matrix(0.45214742,0,0,0.45363487,-2.3563764e-6,0)">
      <clipPath id="clip6">
        <path id="path66" d="m 0,0 0,576 1269,0 0,-576 z" />
      </clipPath>
      <g id="g68" clip-path="url(#clip6)">
        <g style="fill:#000000;fill-opacity:1;fill-rule:nonzero;stroke:none" id="g70">
          <path id="path72" d="m 1267,299 -28,-7 0,14" />
        </g>
      </g>
    </g>
    <g style="stroke-width:1;stroke-linecap:square;stroke-linejoin:miter;stroke-miterlimit:10;stroke-dasharray:none;stroke-dashoffset:0" id="g74" transform="matrix(0.45214742,0,0,0.45363487,-2.3563764e-6,0)">
      <clipPath id="clip7">
        <path id="path77" d="m 0,0 0,576 1269,0 0,-576 z" />
      </clipPath>
      <g id="g79" clip-path="url(#clip7)">
        <g style="fill:#000000;fill-opacity:1;fill-rule:nonzero;stroke:none" id="g81">
          <path id="path83" d="m 152.92,316.23 0,-1.2 7.16,0 0,1.2 z m 9.91,4.67 0,-1.61 q 1.86,0.73 2.93,0.73 1.24,0 2.02,-0.72 0.78,-0.73 0.78,-1.88 0,-2.74 -3.84,-2.74 l -0.69,0 0,-1.17 0.61,-0.01 q 3.6,0 3.6,-2.54 0,-1.99 -2.37,-1.99 -1.3,0 -2.87,0.73 l 0,-1.51 q 1.54,-0.52 2.99,-0.52 3.99,0 3.99,3.01 0,2.3 -2.71,3.27 3.14,0.73 3.14,3.45 0,1.83 -1.21,2.88 -1.21,1.05 -3.33,1.05 -1.2,0 -3.04,-0.43 z m 12.86,0.1 0,-8.13 -0.36,0 q -1.16,0 -2.3,0.62 l 0,-1.6 q 1.03,-0.43 2.49,-0.43 l 10.26,0 0,1.41 -2.17,0 0,5.54 q 0,1.47 0.67,2.59 l -1.83,0 q -0.58,-1.27 -0.58,-2.66 l 0,-5.47 -4.44,0 0,8.13 z" />
        </g>
      </g>
    </g>
    <g style="stroke-width:1;stroke-linecap:square;stroke-linejoin:miter;stroke-miterlimit:10;stroke-dasharray:none;stroke-dashoffset:0" id="g85" transform="matrix(0.45214742,0,0,0.45363487,-2.3563764e-6,0)">
      <clipPath id="clip8">
        <path id="path88" d="m 0,0 0,576 1269,0 0,-576 z" />
      </clipPath>
      <g id="g90" clip-path="url(#clip8)">
        <g style="fill:none;stroke:#000000;stroke-width:2;stroke-linecap:butt;stroke-opacity:1" id="g92">
          <path id="path94" d="m 164.76,299 0,4" />
        </g>
      </g>
    </g>
    <g style="stroke-width:1;stroke-linecap:square;stroke-linejoin:miter;stroke-miterlimit:10;stroke-dasharray:none;stroke-dashoffset:0" id="g96" transform="matrix(0.45214742,0,0,0.45363487,-2.3563764e-6,0)">
      <clipPath id="clip9">
        <path id="path99" d="m 0,0 0,576 1269,0 0,-576 z" />
      </clipPath>
      <g id="g101" clip-path="url(#clip9)">
        <g style="fill:none;stroke:#000000;stroke-width:2;stroke-linecap:butt;stroke-opacity:1" id="g103">
          <path id="path105" d="m 86.221,299 0,3" />
        </g>
      </g>
    </g>
    <g style="stroke-width:1;stroke-linecap:square;stroke-linejoin:miter;stroke-miterlimit:10;stroke-dasharray:none;stroke-dashoffset:0" id="g107" transform="matrix(0.45214742,0,0,0.45363487,-2.3563764e-6,0)">
      <clipPath id="clip10">
        <path id="path110" d="m 0,0 0,576 1269,0 0,-576 z" />
      </clipPath>
      <g id="g112" clip-path="url(#clip10)">
        <g style="fill:#000000;fill-opacity:1;fill-rule:nonzero;stroke:none" id="g114">
          <path id="path116" d="m 309.92,316.23 0,-1.2 7.16,0 0,1.2 z m 9.57,4.77 0,-1.52 q 0.76,-1.77 3.06,-3.85 l 1,-0.89 q 1.91,-1.73 1.91,-3.43 0,-1.09 -0.65,-1.72 -0.66,-0.62 -1.8,-0.62 -1.35,0 -3.19,1.04 l 0,-1.53 q 1.73,-0.81 3.44,-0.81 1.82,0 2.93,0.98 1.11,0.99 1.11,2.61 0,1.17 -0.56,2.08 -0.56,0.9 -2.08,2.19 l -0.67,0.57 q -2.08,1.77 -2.4,3.38 l 5.65,0 0,1.52 z m 13.2,0 0,-8.13 -0.36,0 q -1.16,0 -2.3,0.62 l 0,-1.6 q 1.03,-0.43 2.49,-0.43 l 10.26,0 0,1.41 -2.17,0 0,5.54 q 0,1.47 0.67,2.59 l -1.83,0 q -0.58,-1.27 -0.58,-2.66 l 0,-5.47 -4.44,0 0,8.13 z" />
        </g>
      </g>
    </g>
    <g style="stroke-width:1;stroke-linecap:square;stroke-linejoin:miter;stroke-miterlimit:10;stroke-dasharray:none;stroke-dashoffset:0" id="g118" transform="matrix(0.45214742,0,0,0.45363487,-2.3563764e-6,0)">
      <clipPath id="clip11">
        <path id="path121" d="m 0,0 0,576 1269,0 0,-576 z" />
      </clipPath>
      <g id="g123" clip-path="url(#clip11)">
        <g style="fill:none;stroke:#000000;stroke-width:2;stroke-linecap:butt;stroke-opacity:1" id="g125">
          <path id="path127" d="m 321.84,299 0,4" />
        </g>
      </g>
    </g>
    <g style="stroke-width:1;stroke-linecap:square;stroke-linejoin:miter;stroke-miterlimit:10;stroke-dasharray:none;stroke-dashoffset:0" id="g129" transform="matrix(0.45214742,0,0,0.45363487,-2.3563764e-6,0)">
      <clipPath id="clip12">
        <path id="path132" d="m 0,0 0,576 1269,0 0,-576 z" />
      </clipPath>
      <g id="g134" clip-path="url(#clip12)">
        <g style="fill:none;stroke:#000000;stroke-width:2;stroke-linecap:butt;stroke-opacity:1" id="g136">
          <path id="path138" d="m 243.3,299 0,3" />
        </g>
      </g>
    </g>
    <g style="stroke-width:1;stroke-linecap:square;stroke-linejoin:miter;stroke-miterlimit:10;stroke-dasharray:none;stroke-dashoffset:0" id="g140" transform="matrix(0.45214742,0,0,0.45363487,-2.3563764e-6,0)">
      <clipPath id="clip13">
        <path id="path143" d="m 0,0 0,576 1269,0 0,-576 z" />
      </clipPath>
      <g id="g145" clip-path="url(#clip13)">
        <g style="fill:#000000;fill-opacity:1;fill-rule:nonzero;stroke:none" id="g147">
          <path id="path149" d="m 470.92,316.23 0,-1.2 7.16,0 0,1.2 z m 11.38,4.77 0,-8.13 -0.36,0 q -1.15,0 -2.29,0.62 l 0,-1.6 q 1.03,-0.43 2.49,-0.43 l 10.25,0 0,1.41 -2.17,0 0,5.54 q 0,1.47 0.68,2.59 l -1.84,0 q -0.58,-1.27 -0.58,-2.66 l 0,-5.47 -4.44,0 0,8.13 z" />
        </g>
      </g>
    </g>
    <g style="stroke-width:1;stroke-linecap:square;stroke-linejoin:miter;stroke-miterlimit:10;stroke-dasharray:none;stroke-dashoffset:0" id="g151" transform="matrix(0.45214742,0,0,0.45363487,-2.3563764e-6,0)">
      <clipPath id="clip14">
        <path id="path154" d="m 0,0 0,576 1269,0 0,-576 z" />
      </clipPath>
      <g id="g156" clip-path="url(#clip14)">
        <g style="fill:none;stroke:#000000;stroke-width:2;stroke-linecap:butt;stroke-opacity:1" id="g158">
          <path id="path160" d="m 478.92,299 0,4" />
        </g>
      </g>
    </g>
    <g style="stroke-width:1;stroke-linecap:square;stroke-linejoin:miter;stroke-miterlimit:10;stroke-dasharray:none;stroke-dashoffset:0" id="g162" transform="matrix(0.45214742,0,0,0.45363487,-2.3563764e-6,0)">
      <clipPath id="clip15">
        <path id="path165" d="m 0,0 0,576 1269,0 0,-576 z" />
      </clipPath>
      <g id="g167" clip-path="url(#clip15)">
        <g style="fill:none;stroke:#000000;stroke-width:2;stroke-linecap:butt;stroke-opacity:1" id="g169">
          <path id="path171" d="m 400.38,299 0,3" />
        </g>
      </g>
    </g>
    <g style="stroke-width:1;stroke-linecap:square;stroke-linejoin:miter;stroke-miterlimit:10;stroke-dasharray:none;stroke-dashoffset:0" id="g173" transform="matrix(0.45214742,0,0,0.45363487,-2.3563764e-6,0)">
      <clipPath id="clip16">
        <path id="path176" d="m 0,0 0,576 1269,0 0,-576 z" />
      </clipPath>
      <g id="g178" clip-path="url(#clip16)">
        <g style="fill:#000000;fill-opacity:1;fill-rule:nonzero;stroke:none" id="g180">
          <path id="path182" d="m 646.64,321.33 q -2.01,0 -3.25,-1.9 -1.25,-1.89 -1.25,-4.94 0,-3.08 1.26,-4.95 1.25,-1.87 3.3,-1.87 2.04,0 3.3,1.87 1.25,1.87 1.25,4.92 0,3.13 -1.25,5 -1.26,1.87 -3.36,1.87 z m 0.02,-1.31 q 2.75,0 2.75,-5.59 0,-5.46 -2.71,-5.46 -2.71,0 -2.71,5.52 0,5.53 2.67,5.53 z" />
        </g>
      </g>
    </g>
    <g style="stroke-width:1;stroke-linecap:square;stroke-linejoin:miter;stroke-miterlimit:10;stroke-dasharray:none;stroke-dashoffset:0" id="g184" transform="matrix(0.45214742,0,0,0.45363487,-2.3563764e-6,0)">
      <clipPath id="clip17">
        <path id="path187" d="m 0,0 0,576 1269,0 0,-576 z" />
      </clipPath>
      <g id="g189" clip-path="url(#clip17)">
        <g style="fill:none;stroke:#000000;stroke-width:2;stroke-linecap:butt;stroke-opacity:1" id="g191">
          <path id="path193" d="m 636,299 0,4" />
        </g>
      </g>
    </g>
    <g style="stroke-width:1;stroke-linecap:square;stroke-linejoin:miter;stroke-miterlimit:10;stroke-dasharray:none;stroke-dashoffset:0" id="g195" transform="matrix(0.45214742,0,0,0.45363487,-2.3563764e-6,0)">
      <clipPath id="clip18">
        <path id="path198" d="m 0,0 0,576 1269,0 0,-576 z" />
      </clipPath>
      <g id="g200" clip-path="url(#clip18)">
        <g style="fill:none;stroke:#000000;stroke-width:2;stroke-linecap:butt;stroke-opacity:1" id="g202">
          <path id="path204" d="m 557.46,299 0,3" />
        </g>
      </g>
    </g>
    <g style="stroke-width:1;stroke-linecap:square;stroke-linejoin:miter;stroke-miterlimit:10;stroke-dasharray:none;stroke-dashoffset:0" id="g206" transform="matrix(0.45214742,0,0,0.45363487,-2.3563764e-6,0)">
      <clipPath id="clip19">
        <path id="path209" d="m 0,0 0,576 1269,0 0,-576 z" />
      </clipPath>
      <g id="g211" clip-path="url(#clip19)">
        <g style="fill:#000000;fill-opacity:1;fill-rule:nonzero;stroke:none" id="g213">
          <path id="path215" d="m 792.3,321 0,-8.13 -0.36,0 q -1.15,0 -2.29,0.62 l 0,-1.6 q 1.03,-0.43 2.49,-0.43 l 10.25,0 0,1.41 -2.17,0 0,5.54 q 0,1.47 0.68,2.59 l -1.84,0 q -0.58,-1.27 -0.58,-2.66 l 0,-5.47 -4.44,0 0,8.13 z" />
        </g>
      </g>
    </g>
    <g style="stroke-width:1;stroke-linecap:square;stroke-linejoin:miter;stroke-miterlimit:10;stroke-dasharray:none;stroke-dashoffset:0" id="g217" transform="matrix(0.45214742,0,0,0.45363487,-2.3563764e-6,0)">
      <clipPath id="clip20">
        <path id="path220" d="m 0,0 0,576 1269,0 0,-576 z" />
      </clipPath>
      <g id="g222" clip-path="url(#clip20)">
        <g style="fill:none;stroke:#000000;stroke-width:2;stroke-linecap:butt;stroke-opacity:1" id="g224">
          <path id="path226" d="m 793.08,299 0,4" />
        </g>
      </g>
    </g>
    <g style="stroke-width:1;stroke-linecap:square;stroke-linejoin:miter;stroke-miterlimit:10;stroke-dasharray:none;stroke-dashoffset:0" id="g228" transform="matrix(0.45214742,0,0,0.45363487,-2.3563764e-6,0)">
      <clipPath id="clip21">
        <path id="path231" d="m 0,0 0,576 1269,0 0,-576 z" />
      </clipPath>
      <g id="g233" clip-path="url(#clip21)">
        <g style="fill:none;stroke:#000000;stroke-width:2;stroke-linecap:butt;stroke-opacity:1" id="g235">
          <path id="path237" d="m 714.54,299 0,3" />
        </g>
      </g>
    </g>
    <g style="stroke-width:1;stroke-linecap:square;stroke-linejoin:miter;stroke-miterlimit:10;stroke-dasharray:none;stroke-dashoffset:0" id="g239" transform="matrix(0.45214742,0,0,0.45363487,-2.3563764e-6,0)">
      <clipPath id="clip22">
        <path id="path242" d="m 0,0 0,576 1269,0 0,-576 z" />
      </clipPath>
      <g id="g244" clip-path="url(#clip22)">
        <g style="fill:#000000;fill-opacity:1;fill-rule:nonzero;stroke:none" id="g246">
          <path id="path248" d="m 943.49,321 0,-1.52 q 0.76,-1.77 3.06,-3.85 l 1,-0.89 q 1.91,-1.73 1.91,-3.43 0,-1.09 -0.65,-1.72 -0.66,-0.62 -1.8,-0.62 -1.35,0 -3.19,1.04 l 0,-1.53 q 1.73,-0.81 3.44,-0.81 1.82,0 2.93,0.98 1.11,0.99 1.11,2.61 0,1.17 -0.56,2.08 -0.56,0.9 -2.08,2.19 l -0.67,0.57 q -2.08,1.77 -2.4,3.38 l 5.65,0 0,1.52 z m 13.2,0 0,-8.13 -0.36,0 q -1.16,0 -2.3,0.62 l 0,-1.6 q 1.03,-0.43 2.49,-0.43 l 10.26,0 0,1.41 -2.17,0 0,5.54 q 0,1.47 0.67,2.59 l -1.83,0 q -0.58,-1.27 -0.58,-2.66 l 0,-5.47 -4.44,0 0,8.13 z" />
        </g>
      </g>
    </g>
    <g style="stroke-width:1;stroke-linecap:square;stroke-linejoin:miter;stroke-miterlimit:10;stroke-dasharray:none;stroke-dashoffset:0" id="g250" transform="matrix(0.45214742,0,0,0.45363487,-2.3563764e-6,0)">
      <clipPath id="clip23">
        <path id="path253" d="m 0,0 0,576 1269,0 0,-576 z" />
      </clipPath>
      <g id="g255" clip-path="url(#clip23)">
        <g style="fill:none;stroke:#000000;stroke-width:2;stroke-linecap:butt;stroke-opacity:1" id="g257">
          <path id="path259" d="m 950.16,299 0,4" />
        </g>
      </g>
    </g>
    <g style="stroke-width:1;stroke-linecap:square;stroke-linejoin:miter;stroke-miterlimit:10;stroke-dasharray:none;stroke-dashoffset:0" id="g261" transform="matrix(0.45214742,0,0,0.45363487,-2.3563764e-6,0)">
      <clipPath id="clip24">
        <path id="path264" d="m 0,0 0,576 1269,0 0,-576 z" />
      </clipPath>
      <g id="g266" clip-path="url(#clip24)">
        <g style="fill:none;stroke:#000000;stroke-width:2;stroke-linecap:butt;stroke-opacity:1" id="g268">
          <path id="path270" d="m 871.62,299 0,3" />
        </g>
      </g>
    </g>
    <g style="stroke-width:1;stroke-linecap:square;stroke-linejoin:miter;stroke-miterlimit:10;stroke-dasharray:none;stroke-dashoffset:0" id="g272" transform="matrix(0.45214742,0,0,0.45363487,-2.3563764e-6,0)">
      <clipPath id="clip25">
        <path id="path275" d="m 0,0 0,576 1269,0 0,-576 z" />
      </clipPath>
      <g id="g277" clip-path="url(#clip25)">
        <g style="fill:#000000;fill-opacity:1;fill-rule:nonzero;stroke:none" id="g279">
          <path id="path281" d="m 1100.8,320.9 0,-1.61 q 1.9,0.73 3,0.73 1.2,0 2,-0.72 0.8,-0.73 0.8,-1.88 0,-2.74 -3.9,-2.74 l -0.7,0 0,-1.17 0.6,-0.01 q 3.6,0 3.6,-2.54 0,-1.99 -2.3,-1.99 -1.3,0 -2.9,0.73 l 0,-1.51 q 1.5,-0.52 3,-0.52 4,0 4,3.01 0,2.3 -2.7,3.27 3.1,0.73 3.1,3.45 0,1.83 -1.2,2.88 -1.2,1.05 -3.3,1.05 -1.2,0 -3.1,-0.43 z m 12.9,0.1 0,-8.13 -0.4,0 q -1.1,0 -2.3,0.62 l 0,-1.6 q 1.1,-0.43 2.5,-0.43 l 10.3,0 0,1.41 -2.2,0 0,5.54 q 0,1.47 0.7,2.59 l -1.9,0 q -0.5,-1.27 -0.5,-2.66 l 0,-5.47 -4.5,0 0,8.13 z" />
        </g>
      </g>
    </g>
    <g style="stroke-width:1;stroke-linecap:square;stroke-linejoin:miter;stroke-miterlimit:10;stroke-dasharray:none;stroke-dashoffset:0" id="g283" transform="matrix(0.45214742,0,0,0.45363487,-2.3563764e-6,0)">
      <clipPath id="clip26">
        <path id="path286" d="m 0,0 0,576 1269,0 0,-576 z" />
      </clipPath>
      <g id="g288" clip-path="url(#clip26)">
        <g style="fill:none;stroke:#000000;stroke-width:2;stroke-linecap:butt;stroke-opacity:1" id="g290">
          <path id="path292" d="m 1107.2,299 0,4" />
        </g>
      </g>
    </g>
    <g style="stroke-width:1;stroke-linecap:square;stroke-linejoin:miter;stroke-miterlimit:10;stroke-dasharray:none;stroke-dashoffset:0" id="g294" transform="matrix(0.45214742,0,0,0.45363487,-2.3563764e-6,0)">
      <clipPath id="clip27">
        <path id="path297" d="m 0,0 0,576 1269,0 0,-576 z" />
      </clipPath>
      <g id="g299" clip-path="url(#clip27)">
        <g style="fill:none;stroke:#000000;stroke-width:2;stroke-linecap:butt;stroke-opacity:1" id="g301">
          <path id="path303" d="m 1028.7,299 0,3" />
        </g>
      </g>
    </g>
    <g style="stroke-width:1;stroke-linecap:square;stroke-linejoin:miter;stroke-miterlimit:10;stroke-dasharray:none;stroke-dashoffset:0" id="g305" transform="matrix(0.45214742,0,0,0.45363487,-2.3563764e-6,0)">
      <clipPath id="clip28">
        <path id="path308" d="m 0,0 0,576 1269,0 0,-576 z" />
      </clipPath>
      <g id="g310" clip-path="url(#clip28)">
        <g style="fill:none;stroke:#000000;stroke-width:2;stroke-linecap:butt;stroke-opacity:1" id="g312">
          <path id="path314" d="m 1185.8,299 0,3" />
        </g>
      </g>
    </g>
    <g style="stroke-width:1;stroke-linecap:square;stroke-linejoin:miter;stroke-miterlimit:10;stroke-dasharray:none;stroke-dashoffset:0" id="g327" transform="matrix(0.45214742,0,0,0.45363487,-2.3563764e-6,0)">
      <clipPath id="clip30">
        <path id="path330" d="m 0,0 0,576 1269,0 0,-576 z" />
      </clipPath>
      <g id="g332" clip-path="url(#clip30)">
        <g style="fill:#000000;fill-opacity:1;fill-rule:nonzero;stroke:none" id="g334">
          <path id="path336" d="m 609.92,501.23 0,-1.2 7.16,0 0,1.2 z m 9.57,4.77 0,-1.52 q 0.76,-1.77 3.06,-3.85 l 1,-0.89 q 1.91,-1.73 1.91,-3.43 0,-1.09 -0.65,-1.72 -0.66,-0.62 -1.8,-0.62 -1.35,0 -3.19,1.04 l 0,-1.53 q 1.73,-0.81 3.44,-0.81 1.82,0 2.93,0.98 1.11,0.99 1.11,2.61 0,1.17 -0.56,2.08 -0.56,0.9 -2.08,2.19 l -0.67,0.57 q -2.08,1.77 -2.4,3.38 l 5.65,0 0,1.52 z" />
        </g>
      </g>
    </g>
    <g style="stroke-width:1;stroke-linecap:square;stroke-linejoin:miter;stroke-miterlimit:10;stroke-dasharray:none;stroke-dashoffset:0" id="g338" transform="matrix(0.45214742,0,0,0.45363487,-2.3563764e-6,0)">
      <clipPath id="clip31">
        <path id="path341" d="m 0,0 0,576 1269,0 0,-576 z" />
      </clipPath>
      <g id="g343" clip-path="url(#clip31)">
        <g style="fill:none;stroke:#000000;stroke-width:2;stroke-linecap:butt;stroke-opacity:1" id="g345">
          <path id="path347" d="m 632,499 4,0" />
        </g>
      </g>
    </g>
    <g style="stroke-width:1;stroke-linecap:square;stroke-linejoin:miter;stroke-miterlimit:10;stroke-dasharray:none;stroke-dashoffset:0" id="g349" transform="matrix(0.45214742,0,0,0.45363487,-2.3563764e-6,0)">
      <clipPath id="clip32">
        <path id="path352" d="m 0,0 0,576 1269,0 0,-576 z" />
      </clipPath>
      <g id="g354" clip-path="url(#clip32)">
        <g style="fill:none;stroke:#000000;stroke-width:2;stroke-linecap:butt;stroke-opacity:1" id="g356">
          <path id="path358" d="m 636,549 -3,0" />
        </g>
      </g>
    </g>
    <g style="stroke-width:1;stroke-linecap:square;stroke-linejoin:miter;stroke-miterlimit:10;stroke-dasharray:none;stroke-dashoffset:0" id="g360" transform="matrix(0.45214742,0,0,0.45363487,-2.3563764e-6,0)">
      <clipPath id="clip33">
        <path id="path363" d="m 0,0 0,576 1269,0 0,-576 z" />
      </clipPath>
      <g id="g365" clip-path="url(#clip33)">
        <g style="fill:#000000;fill-opacity:1;fill-rule:nonzero;stroke:none" id="g367">
          <path id="path369" d="m 609.92,402.23 0,-1.2 7.16,0 0,1.2 z m 10.79,4.77 0,-1.3 2.6,0 0,-10.27 -2.6,0.65 0,-1.33 4.34,-1.08 0,12.03 2.6,0 0,1.3 z" />
        </g>
      </g>
    </g>
    <g style="stroke-width:1;stroke-linecap:square;stroke-linejoin:miter;stroke-miterlimit:10;stroke-dasharray:none;stroke-dashoffset:0" id="g371" transform="matrix(0.45214742,0,0,0.45363487,-2.3563764e-6,0)">
      <clipPath id="clip34">
        <path id="path374" d="m 0,0 0,576 1269,0 0,-576 z" />
      </clipPath>
      <g id="g376" clip-path="url(#clip34)">
        <g style="fill:none;stroke:#000000;stroke-width:2;stroke-linecap:butt;stroke-opacity:1" id="g378">
          <path id="path380" d="m 632,399 4,0" />
        </g>
      </g>
    </g>
    <g style="stroke-width:1;stroke-linecap:square;stroke-linejoin:miter;stroke-miterlimit:10;stroke-dasharray:none;stroke-dashoffset:0" id="g382" transform="matrix(0.45214742,0,0,0.45363487,-2.3563764e-6,0)">
      <clipPath id="clip35">
        <path id="path385" d="m 0,0 0,576 1269,0 0,-576 z" />
      </clipPath>
      <g id="g387" clip-path="url(#clip35)">
        <g style="fill:none;stroke:#000000;stroke-width:2;stroke-linecap:butt;stroke-opacity:1" id="g389">
          <path id="path391" d="m 636,449 -3,0" />
        </g>
      </g>
    </g>
    <g style="stroke-width:1;stroke-linecap:square;stroke-linejoin:miter;stroke-miterlimit:10;stroke-dasharray:none;stroke-dashoffset:0" id="g393" transform="matrix(0.45214742,0,0,0.45363487,-2.3563764e-6,0)">
      <clipPath id="clip36">
        <path id="path396" d="m 0,0 0,576 1269,0 0,-576 z" />
      </clipPath>
      <g id="g398" clip-path="url(#clip36)">
        <g style="fill:#000000;fill-opacity:1;fill-rule:nonzero;stroke:none" id="g400">
          <path id="path402" d="m 623.64,297.33 q -2.01,0 -3.25,-1.9 -1.25,-1.89 -1.25,-4.94 0,-3.08 1.26,-4.95 1.25,-1.87 3.3,-1.87 2.04,0 3.3,1.87 1.25,1.87 1.25,4.92 0,3.13 -1.25,5 -1.26,1.87 -3.36,1.87 z m 0.02,-1.31 q 2.75,0 2.75,-5.59 0,-5.46 -2.71,-5.46 -2.71,0 -2.71,5.52 0,5.53 2.67,5.53 z" />
        </g>
      </g>
    </g>
    <g style="stroke-width:1;stroke-linecap:square;stroke-linejoin:miter;stroke-miterlimit:10;stroke-dasharray:none;stroke-dashoffset:0" id="g404" transform="matrix(0.45214742,0,0,0.45363487,-2.3563764e-6,0)">
      <clipPath id="clip37">
        <path id="path407" d="m 0,0 0,576 1269,0 0,-576 z" />
      </clipPath>
      <g id="g409" clip-path="url(#clip37)">
        <g style="fill:none;stroke:#000000;stroke-width:2;stroke-linecap:butt;stroke-opacity:1" id="g411">
          <path id="path413" d="m 632,299 4,0" />
        </g>
      </g>
    </g>
    <g style="stroke-width:1;stroke-linecap:square;stroke-linejoin:miter;stroke-miterlimit:10;stroke-dasharray:none;stroke-dashoffset:0" id="g415" transform="matrix(0.45214742,0,0,0.45363487,-2.3563764e-6,0)">
      <clipPath id="clip38">
        <path id="path418" d="m 0,0 0,576 1269,0 0,-576 z" />
      </clipPath>
      <g id="g420" clip-path="url(#clip38)">
        <g style="fill:none;stroke:#000000;stroke-width:2;stroke-linecap:butt;stroke-opacity:1" id="g422">
          <path id="path424" d="m 636,349 -3,0" />
        </g>
      </g>
    </g>
    <g style="stroke-width:1;stroke-linecap:square;stroke-linejoin:miter;stroke-miterlimit:10;stroke-dasharray:none;stroke-dashoffset:0" id="g426" transform="matrix(0.45214742,0,0,0.45363487,-2.3563764e-6,0)">
      <clipPath id="clip39">
        <path id="path429" d="m 0,0 0,576 1269,0 0,-576 z" />
      </clipPath>
      <g id="g431" clip-path="url(#clip39)">
        <g style="fill:#000000;fill-opacity:1;fill-rule:nonzero;stroke:none" id="g433">
          <path id="path435" d="m 620.71,207 0,-1.3 2.6,0 0,-10.27 -2.6,0.65 0,-1.33 4.34,-1.08 0,12.03 2.6,0 0,1.3 z" />
        </g>
      </g>
    </g>
    <g style="stroke-width:1;stroke-linecap:square;stroke-linejoin:miter;stroke-miterlimit:10;stroke-dasharray:none;stroke-dashoffset:0" id="g437" transform="matrix(0.45214742,0,0,0.45363487,-2.3563764e-6,0)">
      <clipPath id="clip40">
        <path id="path440" d="m 0,0 0,576 1269,0 0,-576 z" />
      </clipPath>
      <g id="g442" clip-path="url(#clip40)">
        <g style="fill:none;stroke:#000000;stroke-width:2;stroke-linecap:butt;stroke-opacity:1" id="g444">
          <path id="path446" d="m 632,199 4,0" />
        </g>
      </g>
    </g>
    <g style="stroke-width:1;stroke-linecap:square;stroke-linejoin:miter;stroke-miterlimit:10;stroke-dasharray:none;stroke-dashoffset:0" id="g448" transform="matrix(0.45214742,0,0,0.45363487,-2.3563764e-6,0)">
      <clipPath id="clip41">
        <path id="path451" d="m 0,0 0,576 1269,0 0,-576 z" />
      </clipPath>
      <g id="g453" clip-path="url(#clip41)">
        <g style="fill:none;stroke:#000000;stroke-width:2;stroke-linecap:butt;stroke-opacity:1" id="g455">
          <path id="path457" d="m 636,249 -3,0" />
        </g>
      </g>
    </g>
    <g style="stroke-width:1;stroke-linecap:square;stroke-linejoin:miter;stroke-miterlimit:10;stroke-dasharray:none;stroke-dashoffset:0" id="g459" transform="matrix(0.45214742,0,0,0.45363487,-2.3563764e-6,0)">
      <clipPath id="clip42">
        <path id="path462" d="m 0,0 0,576 1269,0 0,-576 z" />
      </clipPath>
      <g id="g464" clip-path="url(#clip42)">
        <g style="fill:#000000;fill-opacity:1;fill-rule:nonzero;stroke:none" id="g466">
          <path id="path468" d="m 619.49,107 0,-1.52 q 0.76,-1.77 3.06,-3.85 l 1,-0.89 q 1.91,-1.729 1.91,-3.434 0,-1.09 -0.65,-1.714 -0.66,-0.624 -1.8,-0.624 -1.35,0 -3.19,1.046 l 0,-1.53 q 1.73,-0.817 3.44,-0.817 1.82,0 2.93,0.984 1.11,0.985 1.11,2.611 0,1.169 -0.56,2.074 -0.56,0.904 -2.08,2.194 l -0.67,0.57 q -2.08,1.77 -2.4,3.38 l 5.65,0 0,1.52 z" />
        </g>
      </g>
    </g>
    <g style="stroke-width:1;stroke-linecap:square;stroke-linejoin:miter;stroke-miterlimit:10;stroke-dasharray:none;stroke-dashoffset:0" id="g470" transform="matrix(0.45214742,0,0,0.45363487,-2.3563764e-6,0)">
      <clipPath id="clip43">
        <path id="path473" d="m 0,0 0,576 1269,0 0,-576 z" />
      </clipPath>
      <g id="g475" clip-path="url(#clip43)">
        <g style="fill:none;stroke:#000000;stroke-width:2;stroke-linecap:butt;stroke-opacity:1" id="g477">
          <path id="path479" d="m 632,99 4,0" />
        </g>
      </g>
    </g>
    <g style="stroke-width:1;stroke-linecap:square;stroke-linejoin:miter;stroke-miterlimit:10;stroke-dasharray:none;stroke-dashoffset:0" id="g481" transform="matrix(0.45214742,0,0,0.45363487,-2.3563764e-6,0)">
      <clipPath id="clip44">
        <path id="path484" d="m 0,0 0,576 1269,0 0,-576 z" />
      </clipPath>
      <g id="g486" clip-path="url(#clip44)">
        <g style="fill:none;stroke:#000000;stroke-width:2;stroke-linecap:butt;stroke-opacity:1" id="g488">
          <path id="path490" d="m 636,149 -3,0" />
        </g>
      </g>
    </g>
    <g style="stroke-width:1;stroke-linecap:square;stroke-linejoin:miter;stroke-miterlimit:10;stroke-dasharray:none;stroke-dashoffset:0" transform="matrix(0.45214742,0,0,0.45363487,-2.3563764e-6,0)" id="g494">
      <clipPath id="clip45">
        <path d="m 0,0 0,576 1269,0 0,-576 z" id="path497" />
      </clipPath>
      <g clip-path="url(#clip45)" id="g499">
        <g id="g501" style="fill:none;stroke:#d7191c;stroke-width:2.5;stroke-linecap:round;stroke-linejoin:round;stroke-opacity:1">
          <path d="m 0,266.65 9.9141,-9.88 9.9139,-9.8 9.914,-9.32 9.914,-8.49 9.914,-7.32 9.914,-5.86 9.914,-4.18 9.914,-2.32 4.958,-0.44 4.957,0.05 9.914,1.57 4.959,1.5 4.95,1.96 9.92,5.23 9.91,6.77 9.92,8.07 9.91,9.03 9.91,9.66 9.92,9.89 9.91,9.75 9.92,9.22 9.91,8.33 9.92,7.1 9.91,5.62 9.91,3.89 9.92,2.03 4.95,0.29 4.96,-0.21 9.92,-1.87 4.95,-1.64 4.96,-2.11 9.91,-5.48 9.92,-6.99 9.91,-8.24 9.92,-9.16 9.91,-9.72 9.91,-9.89 9.92,-9.69 9.91,-9.1 9.92,-8.16 9.91,-6.89 9.91,-5.36 9.92,-3.62 4.96,-1.1 4.95,-0.62 9.92,0.22 4.95,0.85 4.96,1.32 9.91,4.03 9.92,5.73 9.91,7.21 9.92,8.41 9.91,9.27 9.92,9.77 9.91,9.89 9.91,9.62 9.92,8.98 9.91,7.98 9.92,6.67 9.91,5.09 9.91,3.33 4.96,0.96 4.96,0.47 9.91,-0.53 4.96,-1 4.96,-1.47 9.91,-4.31 9.91,-5.98 9.92,-7.41 9.91,-8.56 9.92,-9.37 9.91,-9.82 9.91,-9.87 9.92,-9.55 9.91,-8.84 9.92,-7.8 9.91,-6.44 9.91,-4.83 9.92,-3.04 4.96,-0.81 4.95,-0.31 9.92,0.83 4.95,1.15 4.96,1.61 9.91,4.59 9.92,6.21 9.91,7.62 9.92,8.71 9.91,9.47 9.91,9.85 9.92,9.84 9.91,9.46 9.92,8.71 9.91,7.6 9.92,6.2 9.91,4.57 9.91,2.74 4.96,0.66 4.96,0.16 9.91,-1.14 4.96,-1.29 4.96,-1.76 9.91,-4.85 9.91,-6.46 9.92,-7.8 9.91,-8.85 9.92,-9.56 9.91,-9.87 9.91,-9.81 9.92,-9.37 9.91,-8.55 9.92,-7.41 9.89,-5.96 9.9,-4.29 9.9,-2.45 5,-0.5 5,-0.01 9.9,1.44 4.9,1.44 5,1.9 9.9,5.12 9.9,6.68 9.9,7.99 9.9,8.99 10,9.62 9.9,9.89 9.9,9.77 9.9,9.27 9.9,8.39 9.9,7.2 9.9,5.71 10,4.02 9.9,2.15 4.9,0.35 5,-0.14 9.9,-1.75 5,-1.59 4.9,-2.04 9.9,-5.37 9.9,-6.91 10,-8.17 9.9,-9.1 9.9,-9.7 9.9,-9.89" id="path503" />
        </g>
      </g>
    </g>
    <g style="stroke-width:1;stroke-linecap:square;stroke-linejoin:miter;stroke-miterlimit:10;stroke-dasharray:none;stroke-dashoffset:0" transform="matrix(0.45214742,0,0,0.45363487,-2.3563764e-6,0)" id="g505">
      <clipPath id="clip46">
        <path d="m 0,0 0,576 1269,0 0,-576 z" id="path508" />
      </clipPath>
      <g clip-path="url(#clip46)" id="g510">
        <g id="g512" style="fill:none;stroke:#2b83ba;stroke-width:2.5;stroke-linecap:round;stroke-linejoin:round;stroke-opacity:1">
          <path d="m 0,278.74 9.9141,-8.61 9.9139,-7.47 9.914,-6.05 9.914,-4.4 9.914,-2.55 4.957,-0.56 4.957,-0.07 9.914,1.34 4.957,1.38 4.957,1.86 9.915,5.02 9.914,6.6 9.909,7.92 9.92,8.94 9.91,9.6 9.92,9.88 9.91,9.79 9.91,9.3 9.92,8.45 9.91,7.28 9.92,5.8 9.91,4.12 9.92,2.26 4.95,0.4 4.96,-0.08 9.91,-1.64 4.96,-1.53 4.96,-2 9.91,-5.28 9.92,-6.82 9.91,-8.11 9.91,-9.06 9.92,-9.67 9.91,-9.9 9.92,-9.73 9.91,-9.19 9.91,-8.29 9.92,-7.06 9.91,-5.56 9.92,-3.84 9.91,-1.96 4.96,-0.25 4.95,0.24 9.92,1.94 9.91,3.81 9.92,5.53 9.91,7.05 9.91,8.27 9.92,9.19 9.91,9.73 9.92,9.89 9.91,9.68 9.92,9.07 9.91,8.12 9.91,6.85 9.92,5.3 9.91,3.55 4.96,1.07 4.96,0.59 9.91,-0.29 4.96,-0.88 4.95,-1.36 9.92,-4.09 9.91,-5.79 9.92,-7.25 9.91,-8.44 9.91,-9.3 9.92,-9.78 9.91,-9.89 9.92,-9.6 9.91,-8.95 9.91,-7.94 9.92,-6.62 9.91,-5.04 9.92,-3.26 4.95,-0.93 4.96,-0.43 9.91,0.6 4.96,1.03 4.96,1.5 9.91,4.37 9.92,6.03 9.91,7.46 9.91,8.6 9.92,9.39 9.91,9.82 9.92,9.87 9.91,9.53 9.91,8.81 9.92,7.76 9.91,6.39 9.92,4.77 9.91,2.97 4.96,0.77 4.96,0.29 9.91,-0.91 4.96,-1.17 4.95,-1.65 9.92,-4.64 9.91,-6.28 9.92,-7.65 9.91,-8.75 9.91,-9.48 9.92,-9.86 9.91,-9.84 9.92,-9.44 9.91,-8.67 9.91,-7.56 9.92,-6.15 9.91,-4.51 9.92,-2.68 4.95,-0.62 4.94,-0.13 9.9,1.21 5,1.33 4.9,1.79 10,4.91 9.9,6.51 9.9,7.84 9.9,8.89 9.9,9.56 9.9,9.88 9.9,9.81 10,9.34 9.9,8.52 9.9,7.36 9.9,5.91 9.9,4.23 9.9,2.38 5,0.47 4.9,-0.02 10,-1.51 4.9,-1.48 5,-1.93 9.9,-5.17 9.9,-6.74 9.9,-8.03 9.9,-9.01 9.9,-9.64 10,-9.9 9.9,-9.75 9.9,-9.24 9.9,-8.36" id="path514" />
        </g>
      </g>
    </g>
    <g style="stroke-width:1;stroke-linecap:square;stroke-linejoin:miter;stroke-miterlimit:10;stroke-dasharray:none;stroke-dashoffset:0" transform="matrix(0.45214742,0,0,0.45363487,-2.3563764e-6,0)" id="g516">
      <clipPath id="clip47">
        <path d="m 0,0 0,576 1269,0 0,-576 z" id="path519" />
      </clipPath>
      <g clip-path="url(#clip47)" id="g521">
        <g id="g523" style="fill:none;stroke:#000000;stroke-width:2.5;stroke-linecap:butt;stroke-linejoin:round;stroke-dasharray:6.5, 4;stroke-opacity:1">
          <path d="m -5,199 1279,0" id="path525" />
        </g>
      </g>
    </g>
    <g style="stroke-width:1;stroke-linecap:square;stroke-linejoin:miter;stroke-miterlimit:10;stroke-dasharray:none;stroke-dashoffset:0" transform="matrix(0.45214742,0,0,0.45363487,-2.3563764e-6,0)" id="g527">
      <clipPath id="clip48">
        <path d="m 0,0 0,576 1269,0 0,-576 z" id="path530" />
      </clipPath>
      <g clip-path="url(#clip48)" id="g532">
        <g id="g534" style="fill:none;stroke:#000000;stroke-width:2.5;stroke-linecap:butt;stroke-linejoin:round;stroke-dasharray:6.5, 4;stroke-opacity:1">
          <path d="m -5,399 1279,0" id="path536" />
        </g>
      </g>
    </g>
  </g>
  <g ns0:preamble="/Users/Lizzie/Documents/Old mac/CMEP folder/underground-inkscape-preamble.tex" ns0:text="$y=0.5\\sin x + 0.4$" word-spacing="normal" letter-spacing="normal" font-size-adjust="none" font-stretch="normal" font-weight="normal" font-variant="normal" font-style="normal" stroke-miterlimit="10.433" xml:space="preserve" transform="matrix(1.5,0,0,-1.5,-263.16164,796.12417)" id="content" style="font-style:normal;font-variant:normal;font-weight:normal;font-stretch:normal;letter-spacing:normal;word-spacing:normal;text-anchor:start;fill:#d7191c;fill-opacity:1;fill-rule:evenodd;stroke:#d7191c;stroke-linecap:butt;stroke-linejoin:miter;stroke-miterlimit:10.43299961;stroke-dasharray:none;stroke-dashoffset:0;stroke-opacity:1"><path id="path5031" d="m 226.63,480.86 -0.01,0.08 -0.01,0.08 -0.01,0.07 -0.01,0.07 -0.01,0.07 -0.01,0.07 -0.01,0.06 -0.01,0.06 -0.01,0.06 -0.01,0.05 -0.01,0.06 -0.01,0.05 -0.01,0.05 -0.01,0.04 -0.02,0.05 -0.01,0.05 -0.01,0.04 -0.02,0.04 -0.01,0.04 -0.01,0.04 -0.04,0.08 -0.03,0.07 -0.04,0.08 -0.04,0.07 -0.04,0.07 -0.05,0.07 -1.78,-0.3 0.02,-0.18 c 0.11,0.01 0.3,0.04 0.43,0.04 0.67,0 0.77,-0.71 0.83,-1.24 l 0.45,-3.7 c -0.31,-0.48 -0.98,-1.21 -1.18,-1.21 -0.19,0 -0.17,0.37 -0.68,0.37 -0.15,0 -0.47,-0.13 -0.47,-0.49 0,-0.28 0.22,-0.64 0.66,-0.64 0.81,0 1.58,1.15 2.44,2.24 0.5,0.62 2.42,3.46 2.42,4.38 0,0.46 -0.3,0.73 -0.68,0.73 -0.34,0 -0.56,-0.21 -0.56,-0.47 0,-0.45 0.62,-0.57 0.62,-0.82 0,-0.21 -0.09,-0.45 -0.33,-0.88 -0.26,-0.49 -0.68,-1.19 -1.4,-2.18 z" style="fill:#d7191c;fill-opacity:1;stroke:#d7191c;stroke-width:0;stroke-opacity:1" /><polygon id="polygon5033" points="239.61,481.01 239.61,481.79 232.64,481.79 232.64,481.01 " style="fill:#d7191c;fill-opacity:1;stroke:#d7191c;stroke-width:0;stroke-opacity:1" /><polygon id="polygon5035" points="239.61,478.65 239.61,479.43 232.64,479.43 232.64,478.65 " style="fill:#d7191c;fill-opacity:1;stroke:#d7191c;stroke-width:0;stroke-opacity:1" /><path id="path5037" d="m 248.6,481.13 -0.01,0.23 -0.01,0.22 -0.01,0.21 -0.02,0.21 -0.03,0.21 -0.03,0.2 -0.04,0.19 -0.05,0.19 -0.05,0.18 -0.05,0.18 -0.06,0.17 -0.07,0.17 -0.07,0.16 -0.07,0.15 -0.08,0.14 -0.09,0.14 -0.09,0.13 -0.09,0.13 -0.1,0.11 -0.1,0.11 -0.11,0.1 -0.11,0.1 -0.11,0.08 -0.12,0.08 -0.12,0.07 -0.13,0.06 -0.12,0.05 -0.14,0.04 -0.13,0.03 -0.14,0.03 -0.14,0.01 -0.14,0.01 c -1.91,0 -2.73,-1.93 -2.73,-4.02 0,-1.93 0.65,-4.13 2.68,-4.13 l 0,0.31 c -1.02,0 -1.54,1.34 -1.54,3.74 0,2.4 0.53,3.79 1.52,3.79 1.04,0 1.56,-1.38 1.56,-3.84 l 0,0 c 0,-2.34 -0.53,-3.69 -1.54,-3.69 l 0,-0.31 c 1.93,0 2.68,2.03 2.68,4.06 z" style="fill:#d7191c;fill-opacity:1;stroke:#d7191c;stroke-width:0;stroke-opacity:1" /><path id="path5039" d="m 251.02,477.74 0,0.04 0,0.03 0,0.03 -0.01,0.03 -0.01,0.04 -0.01,0.03 -0.01,0.03 -0.01,0.03 -0.01,0.03 -0.02,0.03 -0.01,0.02 -0.02,0.03 -0.02,0.03 -0.02,0.02 -0.02,0.03 -0.02,0.02 -0.02,0.02 -0.03,0.03 -0.02,0.02 -0.03,0.02 -0.03,0.01 -0.02,0.02 -0.03,0.02 -0.03,0.01 -0.03,0.01 -0.03,0.01 -0.03,0.01 -0.03,0.01 -0.03,0.01 -0.03,0 -0.03,0.01 -0.04,0 c -0.36,0 -0.66,-0.3 -0.66,-0.67 0,-0.36 0.28,-0.64 0.65,-0.64 0.36,0 0.66,0.29 0.66,0.63 z" style="fill:#d7191c;fill-opacity:1;stroke:#d7191c;stroke-width:0;stroke-opacity:1" /><path id="path5041" d="m 257.03,485.27 -0.11,0.09 c -0.19,-0.25 -0.29,-0.31 -0.56,-0.31 l -2.46,0 -1.29,-2.8 c 0,0 -0.01,-0.03 -0.01,-0.06 0,-0.07 0.04,-0.09 0.14,-0.09 1.14,0 1.97,-0.38 2.53,-0.83 0.53,-0.42 0.79,-1.01 0.79,-1.77 0,-1.01 -0.77,-1.99 -1.6,-1.99 -0.24,0 -0.51,0.1 -0.84,0.37 -0.38,0.31 -0.6,0.37 -0.88,0.37 -0.33,0 -0.53,-0.15 -0.53,-0.45 0,-0.45 0.62,-0.73 1.5,-0.73 0.81,0 1.46,0.18 2.02,0.58 0.8,0.59 1.16,1.32 1.16,2.45 0,0.63 -0.11,1.08 -0.41,1.5 -0.68,0.94 -1.27,1.2 -2.97,1.51 l 0.48,1.01 2.3,0 c 0.19,0 0.28,0.07 0.32,0.15 z" style="fill:#d7191c;fill-opacity:1;stroke:#d7191c;stroke-width:0;stroke-opacity:1" /><path id="path5043" d="m 261.27,480.79 -0.03,0.02 -0.03,0.02 -0.03,0.02 -0.02,0.02 -0.03,0.02 -0.03,0.03 -0.02,0.02 -0.03,0.02 -0.02,0.03 -0.02,0.02 -0.02,0.03 -0.02,0.02 -0.02,0.03 -0.02,0.02 -0.02,0.03 -0.02,0.03 -0.01,0.02 -0.02,0.03 -0.01,0.03 -0.01,0.03 -0.01,0.02 -0.01,0.03 -0.01,0.03 -0.01,0.02 -0.01,0.03 -0.01,0.03 0,0.02 -0.01,0.03 0,0.03 0,0.02 -0.01,0.03 0,0.02 c 0,0.56 0.38,0.8 0.89,0.8 0.71,0 1.07,-0.38 1.34,-1.45 l 0.18,0 -0.06,1.61 -0.13,0 c -0.09,-0.11 -0.14,-0.12 -0.19,-0.12 -0.08,0 -0.2,0.03 -0.33,0.09 -0.25,0.12 -0.51,0.13 -0.79,0.13 -0.98,0 -1.64,-0.52 -1.64,-1.45 0,-0.6 0.44,-1.17 1.42,-1.71 l 0.64,-0.35 c 0.39,-0.22 0.63,-0.52 0.63,-0.89 0,-0.48 -0.38,-0.87 -0.98,-0.87 -0.82,0 -1.26,0.52 -1.51,1.66 l -0.19,0 0,-1.85 0.16,0 c 0.07,0.12 0.14,0.14 0.28,0.14 0.13,0 0.26,-0.01 0.54,-0.11 0.28,-0.09 0.62,-0.1 0.87,-0.1 0.9,0 1.66,0.68 1.66,1.47 0,0.68 -0.29,0.99 -1.04,1.46 z" style="fill:#d7191c;fill-opacity:1;stroke:#d7191c;stroke-width:0;stroke-opacity:1" /><path id="path5045" d="m 266.17,484.7 0,0.03 -0.01,0.03 0,0.03 0,0.03 -0.01,0.03 -0.01,0.02 -0.01,0.03 -0.01,0.03 -0.01,0.03 -0.01,0.02 -0.02,0.03 -0.01,0.02 -0.02,0.03 -0.02,0.02 -0.02,0.02 -0.02,0.02 -0.02,0.02 -0.02,0.02 -0.02,0.02 -0.03,0.02 -0.02,0.01 -0.02,0.02 -0.03,0.01 -0.03,0.01 -0.03,0.01 -0.02,0.01 -0.03,0.01 -0.03,0.01 -0.03,0 -0.03,0.01 -0.04,0 -0.03,0 c -0.33,0 -0.6,-0.27 -0.6,-0.6 0,-0.35 0.26,-0.61 0.59,-0.61 0.36,0 0.62,0.26 0.62,0.61 z" style="fill:#d7191c;fill-opacity:1;stroke:#d7191c;stroke-width:0;stroke-opacity:1" /><path id="path5047" d="m 267.03,477.23 0,0.18 c -0.78,0.06 -0.88,0.19 -0.88,1.07 l 0,4.14 -0.04,0.05 -1.84,-0.65 0,-0.19 c 0.21,0.06 0.39,0.06 0.5,0.06 0.3,0 0.39,-0.19 0.39,-0.75 l 0,-2.68 c 0,-0.89 -0.12,-1 -0.94,-1.05 l 0,-0.18 z" style="fill:#d7191c;fill-opacity:1;stroke:#d7191c;stroke-width:0;stroke-opacity:1" /><path id="path5049" d="m 273.07,477.23 0,0.18 c -0.58,0.06 -0.72,0.19 -0.72,0.83 l 0,2.61 c 0,1.17 -0.5,1.82 -1.4,1.82 -0.54,0 -1.09,-0.26 -1.7,-0.96 l -0.01,0 0,0.92 -0.1,0.04 c -0.58,-0.22 -0.97,-0.35 -1.62,-0.54 l 0,-0.2 c 0.08,0.04 0.21,0.05 0.34,0.05 0.33,0 0.42,-0.19 0.42,-0.77 l 0,-2.86 c 0,-0.7 -0.13,-0.89 -0.74,-0.94 l 0,-0.18 2.5,0 0,0.18 c -0.6,0.05 -0.77,0.21 -0.77,0.67 l 0,3.26 c 0.55,0.54 0.83,0.68 1.22,0.68 0.58,0 0.87,-0.36 0.87,-1.2 l 0,-2.34 c 0,-0.78 -0.15,-1.02 -0.74,-1.07 l -0.01,-0.18 z" style="fill:#d7191c;fill-opacity:1;stroke:#d7191c;stroke-width:0;stroke-opacity:1" /><path id="path5051" d="m 278.52,480.64 -0.23,0.64 c -0.15,0.39 -0.37,0.88 -0.89,1.16 l -1.57,-0.39 0.04,-0.21 c 0.12,0.05 0.3,0.07 0.45,0.07 0.65,0 0.96,-0.48 1.16,-1.05 l 0.39,-1.09 -0.77,-1.19 c -0.38,-0.58 -0.68,-0.7 -0.83,-0.7 -0.29,0 -0.25,0.24 -0.55,0.24 -0.3,0 -0.45,-0.25 -0.45,-0.44 0,-0.26 0.19,-0.55 0.61,-0.55 0.67,0 1.01,0.51 1.39,1.08 l 0.75,1.16 0.47,-1.33 c 0.15,-0.43 0.38,-0.91 0.86,-0.91 0.69,0 1.22,1.13 1.36,1.31 l -0.16,0.12 c -0.25,-0.51 -0.53,-0.68 -0.72,-0.68 -0.54,0 -0.81,1.6 -1.16,2.33 l 0.65,1 c 0.16,0.26 0.29,0.45 0.65,0.45 0.2,0 0.26,-0.1 0.52,-0.1 0.31,0 0.46,0.27 0.46,0.49 0,0.25 -0.2,0.39 -0.58,0.39 -0.59,0 -1.01,-0.52 -1.31,-0.99 z" style="fill:#d7191c;fill-opacity:1;stroke:#d7191c;stroke-width:0;stroke-opacity:1" /><polygon id="polygon5053" points="287.3,483.69 287.3,480.61 284.21,480.61 284.21,479.83 287.3,479.83 287.3,476.75 288.08,476.75 288.08,479.83 291.18,479.83 291.18,480.61 288.08,480.61 288.08,483.69 " style="fill:#d7191c;fill-opacity:1;stroke:#d7191c;stroke-width:0;stroke-opacity:1" /><path id="path5055" d="m 299.61,481.13 0,0.23 -0.01,0.22 -0.01,0.21 -0.03,0.21 -0.02,0.21 -0.04,0.2 -0.04,0.19 -0.04,0.19 -0.05,0.18 -0.05,0.18 -0.06,0.17 -0.07,0.17 -0.07,0.16 -0.08,0.15 -0.08,0.14 -0.08,0.14 -0.09,0.13 -0.09,0.13 -0.1,0.11 -0.1,0.11 -0.11,0.1 -0.11,0.1 -0.11,0.08 -0.12,0.08 -0.12,0.07 -0.13,0.06 -0.13,0.05 -0.13,0.04 -0.13,0.03 -0.14,0.03 -0.14,0.01 -0.15,0.01 c -1.9,0 -2.72,-1.93 -2.72,-4.02 0,-1.93 0.65,-4.13 2.68,-4.13 l 0,0.31 c -1.02,0 -1.54,1.34 -1.54,3.74 0,2.4 0.53,3.79 1.51,3.79 1.04,0 1.57,-1.38 1.57,-3.84 l 0,0 c 0,-2.34 -0.54,-3.69 -1.54,-3.69 l 0,-0.31 c 1.93,0 2.67,2.03 2.67,4.06 z" style="fill:#d7191c;fill-opacity:1;stroke:#d7191c;stroke-width:0;stroke-opacity:1" /><path id="path5057" d="m 302.04,477.74 0,0.04 0,0.03 0,0.03 -0.01,0.03 -0.01,0.04 -0.01,0.03 -0.01,0.03 -0.01,0.03 -0.01,0.03 -0.02,0.03 -0.02,0.02 -0.01,0.03 -0.02,0.03 -0.02,0.02 -0.02,0.03 -0.02,0.02 -0.03,0.02 -0.02,0.03 -0.03,0.02 -0.02,0.02 -0.03,0.01 -0.03,0.02 -0.02,0.02 -0.03,0.01 -0.03,0.01 -0.03,0.01 -0.03,0.01 -0.03,0.01 -0.03,0.01 -0.03,0 -0.04,0.01 -0.03,0 c -0.37,0 -0.66,-0.3 -0.66,-0.67 0,-0.36 0.28,-0.64 0.65,-0.64 0.35,0 0.66,0.29 0.66,0.63 z" style="fill:#d7191c;fill-opacity:1;stroke:#d7191c;stroke-width:0;stroke-opacity:1" /><polygon id="polygon5059" points="306.72,485.22 303,479.96 303.48,479.96 306.32,484.01 306.32,479.96 303.48,479.96 303,479.96 303,479.21 306.32,479.21 306.32,477.23 307.24,477.23 307.24,479.21 308.46,479.21 308.46,479.96 307.24,479.96 307.24,485.22 " style="fill:#d7191c;fill-opacity:1;stroke:#d7191c;stroke-width:0;stroke-opacity:1" /></g>  <g style="font-style:normal;font-variant:normal;font-weight:normal;font-stretch:normal;letter-spacing:normal;word-spacing:normal;text-anchor:start;fill:#2b83ba;fill-opacity:1;fill-rule:evenodd;stroke:#000000;stroke-linecap:butt;stroke-linejoin:miter;stroke-miterlimit:10.43299961;stroke-dasharray:none;stroke-dashoffset:0;stroke-opacity:1" id="g5993" transform="matrix(1.5,0,0,-1.5,-225.25549,887.95314)" xml:space="preserve" stroke-miterlimit="10.433" font-style="normal" font-variant="normal" font-weight="normal" font-stretch="normal" font-size-adjust="none" letter-spacing="normal" word-spacing="normal" ns0:text="$y=0.5\\cos (x-1)$" ns0:preamble="/Users/Lizzie/Documents/Old mac/CMEP folder/underground-inkscape-preamble.tex"><path style="fill:#2b83ba;fill-opacity:1;stroke-width:0" d="m 226.63,480.86 -0.01,0.08 -0.01,0.08 -0.01,0.07 -0.01,0.07 -0.01,0.07 -0.01,0.07 -0.01,0.06 -0.01,0.06 -0.01,0.06 -0.01,0.05 -0.01,0.06 -0.01,0.05 -0.01,0.05 -0.01,0.04 -0.02,0.05 -0.01,0.05 -0.01,0.04 -0.02,0.04 -0.01,0.04 -0.01,0.04 -0.04,0.08 -0.03,0.07 -0.04,0.08 -0.04,0.07 -0.04,0.07 -0.05,0.07 -1.78,-0.3 0.02,-0.18 c 0.11,0.01 0.3,0.04 0.43,0.04 0.67,0 0.77,-0.71 0.83,-1.24 l 0.45,-3.7 c -0.31,-0.48 -0.98,-1.21 -1.18,-1.21 -0.19,0 -0.17,0.37 -0.68,0.37 -0.15,0 -0.47,-0.13 -0.47,-0.49 0,-0.28 0.22,-0.64 0.66,-0.64 0.81,0 1.58,1.15 2.44,2.24 0.5,0.62 2.42,3.46 2.42,4.38 0,0.46 -0.3,0.73 -0.68,0.73 -0.34,0 -0.56,-0.21 -0.56,-0.47 0,-0.45 0.62,-0.57 0.62,-0.82 0,-0.21 -0.09,-0.45 -0.33,-0.88 -0.26,-0.49 -0.68,-1.19 -1.4,-2.18 z" id="path5995" /><polygon style="fill:#2b83ba;fill-opacity:1;stroke-width:0" points="239.61,481.79 232.64,481.79 232.64,481.01 239.61,481.01 " id="polygon5997" /><polygon style="fill:#2b83ba;fill-opacity:1;stroke-width:0" points="239.61,479.43 232.64,479.43 232.64,478.65 239.61,478.65 " id="polygon5999" /><path style="fill:#2b83ba;fill-opacity:1;stroke-width:0" d="m 248.6,481.13 -0.01,0.23 -0.01,0.22 -0.01,0.21 -0.02,0.21 -0.03,0.21 -0.03,0.2 -0.04,0.19 -0.05,0.19 -0.05,0.18 -0.05,0.18 -0.06,0.17 -0.07,0.17 -0.07,0.16 -0.07,0.15 -0.08,0.14 -0.09,0.14 -0.09,0.13 -0.09,0.13 -0.1,0.11 -0.1,0.11 -0.11,0.1 -0.11,0.1 -0.11,0.08 -0.12,0.08 -0.12,0.07 -0.13,0.06 -0.12,0.05 -0.14,0.04 -0.13,0.03 -0.14,0.03 -0.14,0.01 -0.14,0.01 c -1.91,0 -2.73,-1.93 -2.73,-4.02 0,-1.93 0.65,-4.13 2.68,-4.13 l 0,0.31 c -1.02,0 -1.54,1.34 -1.54,3.74 0,2.4 0.53,3.79 1.52,3.79 1.04,0 1.56,-1.38 1.56,-3.84 l 0,0 c 0,-2.34 -0.53,-3.69 -1.54,-3.69 l 0,-0.31 c 1.93,0 2.68,2.03 2.68,4.06 z" id="path6001" /><path style="fill:#2b83ba;fill-opacity:1;stroke-width:0" d="m 251.02,477.74 0,0.04 0,0.03 0,0.03 -0.01,0.03 -0.01,0.04 -0.01,0.03 -0.01,0.03 -0.01,0.03 -0.01,0.03 -0.02,0.03 -0.01,0.02 -0.02,0.03 -0.02,0.03 -0.02,0.02 -0.02,0.03 -0.02,0.02 -0.02,0.02 -0.03,0.03 -0.02,0.02 -0.03,0.02 -0.03,0.01 -0.02,0.02 -0.03,0.02 -0.03,0.01 -0.03,0.01 -0.03,0.01 -0.03,0.01 -0.03,0.01 -0.03,0.01 -0.03,0 -0.03,0.01 -0.04,0 c -0.36,0 -0.66,-0.3 -0.66,-0.67 0,-0.36 0.28,-0.64 0.65,-0.64 0.36,0 0.66,0.29 0.66,0.63 z" id="path6003" /><path style="fill:#2b83ba;fill-opacity:1;stroke-width:0" d="m 257.03,485.27 -0.11,0.09 c -0.19,-0.25 -0.29,-0.31 -0.56,-0.31 l -2.46,0 -1.29,-2.8 c 0,0 -0.01,-0.03 -0.01,-0.06 0,-0.07 0.04,-0.09 0.14,-0.09 1.14,0 1.97,-0.38 2.53,-0.83 0.53,-0.42 0.79,-1.01 0.79,-1.77 0,-1.01 -0.77,-1.99 -1.6,-1.99 -0.24,0 -0.51,0.1 -0.84,0.37 -0.38,0.31 -0.6,0.37 -0.88,0.37 -0.33,0 -0.53,-0.15 -0.53,-0.45 0,-0.45 0.62,-0.73 1.5,-0.73 0.81,0 1.46,0.18 2.02,0.58 0.8,0.59 1.16,1.32 1.16,2.45 0,0.63 -0.11,1.08 -0.41,1.5 -0.68,0.94 -1.27,1.2 -2.97,1.51 l 0.48,1.01 2.3,0 c 0.19,0 0.28,0.07 0.32,0.15 z" id="path6005" /><path style="fill:#2b83ba;fill-opacity:1;stroke-width:0" d="m 264.14,479.08 -0.05,-0.08 -0.05,-0.07 -0.06,-0.07 -0.05,-0.07 -0.05,-0.06 -0.05,-0.06 -0.05,-0.06 -0.05,-0.06 -0.04,-0.05 -0.05,-0.05 -0.05,-0.04 -0.05,-0.05 -0.05,-0.04 -0.05,-0.04 -0.05,-0.03 -0.04,-0.04 -0.05,-0.03 -0.05,-0.03 -0.05,-0.03 -0.05,-0.02 -0.06,-0.02 -0.05,-0.02 -0.05,-0.02 -0.05,-0.02 -0.06,-0.01 -0.05,-0.01 -0.06,-0.01 -0.06,-0.01 -0.06,-0.01 -0.06,0 -0.06,0 -0.06,0 c -1.09,0 -1.84,0.94 -1.84,2.3 0,1.23 0.66,2.05 1.61,2.05 0.43,0 0.59,-0.13 0.7,-0.56 l 0.08,-0.26 c 0.09,-0.35 0.3,-0.55 0.56,-0.55 0.31,0 0.56,0.23 0.56,0.5 0,0.66 -0.83,1.22 -1.82,1.22 -0.56,0 -1.13,-0.22 -1.6,-0.61 -0.64,-0.53 -1,-1.34 -1,-2.32 0,-1.53 0.94,-2.62 2.25,-2.62 0.51,0 0.96,0.16 1.36,0.49 0.36,0.29 0.6,0.63 0.98,1.36 z" id="path6007" /><path style="fill:#2b83ba;fill-opacity:1;stroke-width:0" d="m 270.25,479.96 0,0.15 -0.01,0.15 -0.02,0.15 -0.02,0.14 -0.03,0.13 -0.03,0.14 -0.04,0.13 -0.04,0.12 -0.05,0.12 -0.06,0.12 -0.06,0.11 -0.07,0.11 -0.07,0.11 -0.07,0.1 -0.08,0.09 -0.08,0.09 -0.09,0.09 -0.09,0.08 -0.1,0.08 -0.1,0.07 -0.1,0.07 -0.11,0.06 -0.11,0.05 -0.12,0.05 -0.11,0.05 -0.12,0.04 -0.12,0.03 -0.13,0.03 -0.13,0.02 -0.13,0.01 -0.13,0.01 -0.13,0.01 c -1.6,0 -2.67,-1.1 -2.67,-2.74 0,-1.64 1.12,-2.81 2.56,-2.81 l 0.2,0.33 c -0.43,0 -0.81,0.21 -1.07,0.59 -0.43,0.63 -0.62,1.48 -0.62,2.42 0,1.18 0.55,1.87 1.37,1.87 0.51,0 0.84,-0.23 1.13,-0.59 0.37,-0.48 0.59,-1.29 0.59,-2.1 l 0,0 c 0,-1.37 -0.52,-2.19 -1.4,-2.19 l -0.2,-0.33 c 1.6,0 2.66,1.2 2.66,2.84 z" id="path6009" /><path style="fill:#2b83ba;fill-opacity:1;stroke-width:0" d="m 272.46,480.79 -0.03,0.02 -0.03,0.02 -0.03,0.02 -0.03,0.02 -0.03,0.02 -0.02,0.03 -0.03,0.02 -0.02,0.02 -0.02,0.03 -0.03,0.02 -0.02,0.03 -0.02,0.02 -0.02,0.03 -0.02,0.02 -0.01,0.03 -0.02,0.03 -0.02,0.02 -0.01,0.03 -0.01,0.03 -0.02,0.03 -0.01,0.02 -0.01,0.03 -0.01,0.03 -0.01,0.02 -0.01,0.03 0,0.03 -0.01,0.02 0,0.03 -0.01,0.03 0,0.02 0,0.03 0,0.02 c 0,0.56 0.38,0.8 0.89,0.8 0.71,0 1.06,-0.38 1.34,-1.45 l 0.17,0 -0.06,1.61 -0.13,0 c -0.09,-0.11 -0.14,-0.12 -0.19,-0.12 -0.08,0 -0.2,0.03 -0.33,0.09 -0.25,0.12 -0.51,0.13 -0.79,0.13 -0.97,0 -1.64,-0.52 -1.64,-1.45 0,-0.6 0.44,-1.17 1.43,-1.71 l 0.63,-0.35 c 0.4,-0.22 0.63,-0.52 0.63,-0.89 0,-0.48 -0.38,-0.87 -0.98,-0.87 -0.82,0 -1.25,0.52 -1.5,1.66 l -0.19,0 0,-1.85 0.15,0 c 0.07,0.12 0.14,0.14 0.29,0.14 0.13,0 0.25,-0.01 0.54,-0.11 0.27,-0.09 0.62,-0.1 0.86,-0.1 0.9,0 1.66,0.68 1.66,1.47 0,0.68 -0.28,0.99 -1.04,1.46 z" id="path6011" /><path style="fill:#2b83ba;fill-opacity:1;stroke-width:0" d="m 278.82,475.33 -0.15,0.13 -0.15,0.13 -0.13,0.13 -0.13,0.13 -0.13,0.13 -0.11,0.13 -0.11,0.13 -0.1,0.14 -0.1,0.13 -0.09,0.13 -0.09,0.14 -0.08,0.14 -0.07,0.14 -0.07,0.14 -0.06,0.14 -0.06,0.14 -0.05,0.15 -0.05,0.15 -0.04,0.16 -0.04,0.15 -0.04,0.16 -0.03,0.16 -0.03,0.17 -0.02,0.17 -0.02,0.17 -0.02,0.18 -0.01,0.18 -0.02,0.18 0,0.19 -0.01,0.19 0,0.2 0,0.21 c 0,2.27 0.36,3.37 2.01,4.78 l -0.11,0.19 c -1.89,-1.13 -2.92,-2.83 -2.92,-5.01 0,-2.01 1.02,-4 2.89,-5.07 z" id="path6013" /><path style="fill:#2b83ba;fill-opacity:1;stroke-width:0" d="m 282.78,480.64 -0.24,0.64 c -0.14,0.39 -0.37,0.88 -0.89,1.16 l -1.56,-0.39 0.03,-0.21 c 0.12,0.05 0.3,0.07 0.45,0.07 0.66,0 0.96,-0.48 1.16,-1.05 l 0.4,-1.09 -0.77,-1.19 c -0.38,-0.58 -0.69,-0.7 -0.83,-0.7 -0.3,0 -0.25,0.24 -0.56,0.24 -0.3,0 -0.45,-0.25 -0.45,-0.44 0,-0.26 0.19,-0.55 0.62,-0.55 0.66,0 1,0.51 1.38,1.08 l 0.75,1.16 0.47,-1.33 c 0.16,-0.43 0.38,-0.91 0.87,-0.91 0.68,0 1.22,1.13 1.36,1.31 l -0.17,0.12 c -0.25,-0.51 -0.53,-0.68 -0.72,-0.68 -0.53,0 -0.81,1.6 -1.16,2.33 l 0.65,1 c 0.17,0.26 0.3,0.45 0.65,0.45 0.2,0 0.26,-0.1 0.52,-0.1 0.31,0 0.46,0.27 0.46,0.49 0,0.25 -0.2,0.39 -0.58,0.39 -0.59,0 -1,-0.52 -1.31,-0.99 z" id="path6015" /><polygon style="fill:#2b83ba;fill-opacity:1;stroke-width:0" points="295.25,480.61 288.65,480.61 288.65,479.83 295.25,479.83 " id="polygon6017" /><path style="fill:#2b83ba;fill-opacity:1;stroke-width:0" d="m 302.89,477.23 0,0.18 c -0.88,0 -1.12,0.21 -1.12,0.72 l 0,7.05 -0.11,0.04 -2.12,-1.08 0,-0.16 0.32,0.11 c 0.22,0.09 0.42,0.15 0.54,0.15 0.24,0 0.35,-0.18 0.35,-0.58 l 0,-5.3 c 0,-0.65 -0.25,-0.9 -1.12,-0.95 l 0,-0.18 z" id="path6019" /><path style="fill:#2b83ba;fill-opacity:1;stroke-width:0" d="m 304.5,485.03 0.15,-0.13 0.15,-0.13 0.14,-0.12 0.14,-0.13 0.12,-0.13 0.12,-0.13 0.11,-0.13 0.1,-0.13 0.1,-0.13 0.09,-0.13 0.09,-0.14 0.08,-0.14 0.07,-0.14 0.07,-0.14 0.06,-0.14 0.06,-0.15 0.05,-0.14 0.04,-0.15 0.05,-0.16 0.03,-0.16 0.04,-0.15 0.03,-0.17 0.02,-0.16 0.03,-0.17 0.01,-0.18 0.02,-0.18 0.01,-0.18 0.01,-0.18 0.01,-0.19 0.01,-0.2 0,-0.2 0,-0.2 c 0,-2.29 -0.33,-3.41 -2.01,-4.79 l 0.1,-0.19 c 1.88,1.15 2.93,2.83 2.93,5.01 0,2.01 -1.08,3.98 -2.89,5.07 z" id="path6021" /></g></svg>