<?xml version='1.0' ?><svg xmlns:dc="http://purl.org/dc/elements/1.1/" xmlns:cc="http://creativecommons.org/ns#" xmlns:rdf="http://www.w3.org/1999/02/22-rdf-syntax-ns#" xmlns:svg="http://www.w3.org/2000/svg" xmlns="http://www.w3.org/2000/svg" version="1.1" id="svg2" width="456.42858" height="151.50641" viewBox="104.28571 35.352847 456.42858 151.50641" preserveAspectRatio="none">
  <defs id="defs4">
    <marker style="overflow:visible;" id="Arrow1Mend" refX="0.0" refY="0.0" orient="auto">
      <path transform="scale(0.4) rotate(180) translate(10,0)" style="fill-rule:evenodd;stroke:#000000;stroke-width:1.0pt;" d="M 0.0,0.0 L 5.0,-5.0 L -12.5,0.0 L 5.0,5.0 L 0.0,0.0 z " id="path4210" />
    </marker>
    <marker style="overflow:visible" id="Arrow1Mstart" refX="0.0" refY="0.0" orient="auto">
      <path transform="scale(0.4) translate(10,0)" style="fill-rule:evenodd;stroke:#000000;stroke-width:1.0pt" d="M 0.0,0.0 L 5.0,-5.0 L -12.5,0.0 L 5.0,5.0 L 0.0,0.0 z " id="path4207" />
    </marker>
  </defs>
  <metadata id="metadata7">
    <rdf:RDF>
      <cc:Work rdf:about="">
        <dc:format>image/svg+xml</dc:format>
        <dc:type rdf:resource="http://purl.org/dc/dcmitype/StillImage" />
        <dc:title />
      </cc:Work>
    </rdf:RDF>
  </metadata>
  <g id="layer1">
    <g transform="matrix(1.6584469,0,0,1.6584469,451.41712,-100.97346)" id="g3093">
      <g style="font-style:normal;font-variant:normal;font-weight:normal;font-stretch:normal;letter-spacing:normal;word-spacing:normal;text-anchor:start;fill:none;stroke:#000000;stroke-linecap:butt;stroke-linejoin:miter;stroke-miterlimit:10.43299961;stroke-opacity:1;stroke-dasharray:none;stroke-dashoffset:0" id="g3095" transform="matrix(1.0629921,0,0,-1.0629921,-186.02362,789.27165)" xml:space="preserve" stroke-miterlimit="10.433" font-style="normal" font-variant="normal" font-weight="normal" font-stretch="normal" font-size-adjust="none" letter-spacing="normal" word-spacing="normal"><path style="fill:#000000;stroke-width:0" d="m 151.7,657.23 v 0.18 c -0.75,0.04 -0.88,0.2 -0.88,0.84 v 6.87 l -0.06,0.05 c -0.6,-0.2 -1.03,-0.31 -1.83,-0.51 v -0.19 c 0.19,0.03 0.34,0.03 0.44,0.03 0.36,0 0.48,-0.19 0.48,-0.75 v -5.45 c 0,-0.63 -0.17,-0.83 -0.89,-0.89 v -0.18 h 2.74 z" id="path3097" /><path style="fill:#000000;stroke-width:0" d="m 157.38,659.92 0,0.15 -0.01,0.14 -0.02,0.15 -0.02,0.13 -0.03,0.14 -0.03,0.13 -0.04,0.13 -0.04,0.12 -0.05,0.12 -0.06,0.11 -0.06,0.12 -0.06,0.1 -0.07,0.11 -0.07,0.09 -0.08,0.1 -0.08,0.09 -0.09,0.08 -0.09,0.08 -0.09,0.08 -0.1,0.07 -0.1,0.06 -0.11,0.06 -0.11,0.06 -0.11,0.05 -0.11,0.04 -0.12,0.04 -0.12,0.03 -0.12,0.03 -0.12,0.02 -0.13,0.02 -0.13,0 -0.13,0.01 c -1.58,0 -2.61,-1.08 -2.61,-2.7 0,-1.61 1.09,-2.76 2.5,-2.76 l 0.2,0.32 c -0.42,0 -0.79,0.22 -1.04,0.59 -0.44,0.63 -0.63,1.45 -0.63,2.38 0,1.15 0.55,1.84 1.36,1.84 0.5,0 0.81,-0.23 1.09,-0.58 0.38,-0.48 0.58,-1.28 0.58,-2.06 h 0 c 0,-1.36 -0.5,-2.17 -1.36,-2.17 l -0.2,-0.32 c 1.56,0 2.61,1.18 2.61,2.8 z" id="path3099" /><path style="fill:#000000;stroke-width:0" d="m 163.16,661.73 v 0.46 h -0.89 c -0.23,0 -0.4,0.04 -0.64,0.12 l -0.25,0.1 c -0.31,0.11 -0.62,0.17 -0.93,0.17 -1.08,0 -1.94,-0.85 -1.94,-1.89 0,-0.74 0.31,-1.17 1.08,-1.57 -0.16,-0.15 -0.32,-0.31 -0.5,-0.46 -0.38,-0.33 -0.54,-0.57 -0.54,-0.8 0,-0.25 0.13,-0.38 0.61,-0.61 l 0.25,-0.03 c 0.41,-0.1 1.32,-0.16 1.89,-0.16 1.05,0 1.44,-0.14 1.44,-0.58 h 0 c 0,-0.67 -0.89,-1.12 -2.2,-1.12 -1.03,0 -1.69,0.34 -1.69,0.86 0,0.26 0.11,0.44 0.56,1 l -0.25,0.03 c -0.82,-0.61 -1.12,-0.98 -1.12,-1.42 0,-0.61 0.89,-1.13 2,-1.13 0.84,0 1.72,0.28 2.33,0.75 0.48,0.36 0.7,0.75 0.7,1.22 0,0.72 -0.55,1.21 -1.41,1.24 l -1.5,0.07 c -0.62,0.04 -0.9,0.13 -0.9,0.32 0,0.23 0.37,0.64 0.69,0.72 l 0.23,-0.02 c 0.2,-0.02 0.36,-0.03 0.44,-0.03 l 0.06,0.28 c -0.73,0 -1.2,0.77 -1.2,1.87 v 0.04 c 0,0.68 0.32,1.09 0.86,1.09 0.36,0 0.65,-0.2 0.84,-0.55 0.22,-0.4 0.36,-0.92 0.36,-1.4 0,-0.64 -0.34,-1.05 -0.86,-1.05 l -0.06,-0.28 c 0.4,0 0.83,0.17 1.2,0.45 0.42,0.31 0.61,0.74 0.61,1.35 0,0.34 -0.06,0.61 -0.22,0.96 h 0.95 z" id="path3101" /><path style="fill:#000000;stroke-width:0" d="m 164.04,658.65 0.03,0.06 0.04,0.06 0.03,0.06 0.04,0.05 0.03,0.05 0.04,0.05 0.03,0.05 0.04,0.04 0.03,0.05 0.04,0.04 0.04,0.04 0.04,0.03 0.04,0.04 0.03,0.03 0.04,0.03 0.04,0.03 0.04,0.03 0.04,0.02 0.05,0.02 0.04,0.03 0.04,0.01 0.04,0.02 0.05,0.02 0.04,0.01 0.04,0.01 0.05,0.02 0.05,0 0.04,0.01 0.05,0.01 0.05,0 0.05,0 0.05,0 c 0.57,0 0.95,-0.29 0.95,-0.87 0,-0.53 -0.28,-0.94 -0.72,-1.17 -0.17,-0.11 -0.39,-0.21 -0.73,-0.31 v -0.13 c 0.5,0 0.7,-0.03 0.89,-0.09 0.61,-0.18 0.9,-0.6 0.9,-1.25 0,-0.75 -0.48,-1.35 -1.12,-1.35 -0.25,0 -0.42,0.05 -0.75,0.28 -0.25,0.17 -0.39,0.22 -0.53,0.22 -0.21,0 -0.36,-0.12 -0.36,-0.31 0,-0.31 0.34,-0.5 0.97,-0.5 0.78,0 1.61,0.25 2.03,0.81 0.25,0.33 0.4,0.77 0.4,1.22 0,0.45 -0.14,0.86 -0.39,1.13 -0.18,0.18 -0.34,0.29 -0.72,0.47 0.58,0.34 0.82,0.78 0.82,1.18 0,0.72 -0.57,1.2 -1.36,1.2 -0.92,0 -1.47,-0.57 -1.72,-1.4 l 0.14,-0.05 z" id="path3103" /><polygon style="fill:#000000;stroke-width:0" points="170.53,659.92 173.31,663.91 173.31,659.92 170.53,659.92 170.06,659.92 170.06,659.17 173.31,659.17 173.31,657.23 174.21,657.23 174.21,659.17 175.42,659.17 175.42,659.17 175.42,659.92 174.21,659.92 174.21,665.09 173.7,665.09 170.06,659.92 " id="polygon3105" /></g>    </g>
    <g id="g3345" transform="matrix(1.6584469,0,0,1.6584469,444.55983,-76.004877)">
      <g word-spacing="normal" letter-spacing="normal" font-size-adjust="none" font-stretch="normal" font-weight="normal" font-variant="normal" font-style="normal" stroke-miterlimit="10.433" xml:space="preserve" transform="matrix(1.0629921,0,0,-1.0629921,-186.02362,789.27165)" id="g3347" style="font-style:normal;font-variant:normal;font-weight:normal;font-stretch:normal;letter-spacing:normal;word-spacing:normal;text-anchor:start;fill:none;stroke:#000000;stroke-linecap:butt;stroke-linejoin:miter;stroke-miterlimit:10.43299961;stroke-opacity:1;stroke-dasharray:none;stroke-dashoffset:0"><path id="path3349" d="m 151.7,657.23 v 0.18 c -0.75,0.04 -0.88,0.2 -0.88,0.84 v 6.87 l -0.06,0.05 c -0.6,-0.2 -1.03,-0.31 -1.83,-0.51 v -0.19 c 0.19,0.03 0.34,0.03 0.44,0.03 0.36,0 0.48,-0.19 0.48,-0.75 v -5.45 c 0,-0.63 -0.17,-0.83 -0.89,-0.89 v -0.18 h 2.74 z" style="fill:#000000;stroke-width:0" /><path id="path3351" d="m 157.38,659.92 0,0.15 -0.01,0.14 -0.02,0.15 -0.02,0.13 -0.03,0.14 -0.03,0.13 -0.04,0.13 -0.04,0.12 -0.05,0.12 -0.06,0.11 -0.06,0.12 -0.06,0.1 -0.07,0.11 -0.07,0.09 -0.08,0.1 -0.08,0.09 -0.09,0.08 -0.09,0.08 -0.09,0.08 -0.1,0.07 -0.1,0.06 -0.11,0.06 -0.11,0.06 -0.11,0.05 -0.11,0.04 -0.12,0.04 -0.12,0.03 -0.12,0.03 -0.12,0.02 -0.13,0.02 -0.13,0 -0.13,0.01 c -1.58,0 -2.61,-1.08 -2.61,-2.7 0,-1.61 1.09,-2.76 2.5,-2.76 l 0.2,0.32 c -0.42,0 -0.79,0.22 -1.04,0.59 -0.44,0.63 -0.63,1.45 -0.63,2.38 0,1.15 0.55,1.84 1.36,1.84 0.5,0 0.81,-0.23 1.09,-0.58 0.38,-0.48 0.58,-1.28 0.58,-2.06 h 0 c 0,-1.36 -0.5,-2.17 -1.36,-2.17 l -0.2,-0.32 c 1.56,0 2.61,1.18 2.61,2.8 z" style="fill:#000000;stroke-width:0" /><path id="path3353" d="m 163.16,661.73 v 0.46 h -0.89 c -0.23,0 -0.4,0.04 -0.64,0.12 l -0.25,0.1 c -0.31,0.11 -0.62,0.17 -0.93,0.17 -1.08,0 -1.94,-0.85 -1.94,-1.89 0,-0.74 0.31,-1.17 1.08,-1.57 -0.16,-0.15 -0.32,-0.31 -0.5,-0.46 -0.38,-0.33 -0.54,-0.57 -0.54,-0.8 0,-0.25 0.13,-0.38 0.61,-0.61 l 0.25,-0.03 c 0.41,-0.1 1.32,-0.16 1.89,-0.16 1.05,0 1.44,-0.14 1.44,-0.58 h 0 c 0,-0.67 -0.89,-1.12 -2.2,-1.12 -1.03,0 -1.69,0.34 -1.69,0.86 0,0.26 0.11,0.44 0.56,1 l -0.25,0.03 c -0.82,-0.61 -1.12,-0.98 -1.12,-1.42 0,-0.61 0.89,-1.13 2,-1.13 0.84,0 1.72,0.28 2.33,0.75 0.48,0.36 0.7,0.75 0.7,1.22 0,0.72 -0.55,1.21 -1.41,1.24 l -1.5,0.07 c -0.62,0.04 -0.9,0.13 -0.9,0.32 0,0.23 0.37,0.64 0.69,0.72 l 0.23,-0.02 c 0.2,-0.02 0.36,-0.03 0.44,-0.03 l 0.06,0.28 c -0.73,0 -1.2,0.77 -1.2,1.87 v 0.04 c 0,0.68 0.32,1.09 0.86,1.09 0.36,0 0.65,-0.2 0.84,-0.55 0.22,-0.4 0.36,-0.92 0.36,-1.4 0,-0.64 -0.34,-1.05 -0.86,-1.05 l -0.06,-0.28 c 0.4,0 0.83,0.17 1.2,0.45 0.42,0.31 0.61,0.74 0.61,1.35 0,0.34 -0.06,0.61 -0.22,0.96 h 0.95 z" style="fill:#000000;stroke-width:0" /><polygon id="polygon3355" points="167.63,655.67 167.63,656.23 166.74,656.23 166.74,660.1 166.35,660.1 163.62,656.23 163.96,656.23 166.05,659.22 166.05,656.23 163.96,656.23 163.62,656.23 163.62,655.67 166.05,655.67 166.05,654.22 166.74,654.22 166.74,655.67 167.63,655.67 " style="fill:#000000;stroke-width:0" /><path id="path3357" d="m 175.01,665.14 -0.11,0.08 c -0.19,-0.24 -0.3,-0.3 -0.56,-0.3 h -2.41 l -1.26,-2.75 h 0 c 0,0 0,-0.03 0,-0.06 0,-0.06 0.03,-0.09 0.12,-0.09 1.13,0 1.94,-0.38 2.49,-0.82 0.51,-0.42 0.78,-1 0.78,-1.73 0,-1 -0.77,-1.97 -1.58,-1.97 -0.23,0 -0.5,0.11 -0.81,0.38 -0.38,0.29 -0.6,0.35 -0.88,0.35 -0.31,0 -0.51,-0.15 -0.51,-0.43 0,-0.46 0.61,-0.72 1.47,-0.72 0.79,0 1.43,0.17 1.98,0.56 0.78,0.58 1.14,1.3 1.14,2.42 0,0.61 -0.11,1.05 -0.41,1.47 -0.67,0.92 -1.25,1.17 -2.9,1.49 l 0.45,0.98 h 2.27 c 0.18,0 0.28,0.08 0.31,0.16 l 0.42,0.98 z" style="fill:#000000;stroke-width:0" /></g>    </g>
    <path style="fill:none;stroke:#000000;stroke-width:1.885;stroke-linecap:butt;stroke-linejoin:miter;stroke-opacity:1;stroke-miterlimit:4;stroke-dasharray:none" d="m 104.28571,88.790753 456.42858,0" id="path7336" />
    <path style="fill:none;stroke:#000000;stroke-width:1.88499999;stroke-linecap:butt;stroke-linejoin:miter;stroke-miterlimit:4;stroke-opacity:1;stroke-dasharray:none" d="m 168.57143,81.112182 0,15.357143" id="path7338" />
    <path id="path7340" d="m 337.1526,81.112182 0,15.357142" style="fill:none;stroke:#000000;stroke-width:1.88499999;stroke-linecap:butt;stroke-linejoin:miter;stroke-miterlimit:4;stroke-opacity:1;stroke-dasharray:none" />
    <path style="fill:none;stroke:#000000;stroke-width:1.88499999;stroke-linecap:butt;stroke-linejoin:miter;stroke-miterlimit:4;stroke-opacity:1;stroke-dasharray:none" d="m 505.73371,81.112181 0,15.357143" id="path7342" />
    <g transform="matrix(1.8897862,0,0,1.8897862,383.47756,-91.904965)" id="g7411">
      <g style="font-style:normal;font-variant:normal;font-weight:normal;font-stretch:normal;letter-spacing:normal;word-spacing:normal;text-anchor:start;fill:none;stroke:#000000;stroke-linecap:butt;stroke-linejoin:miter;stroke-miterlimit:10.43299961;stroke-opacity:1;stroke-dasharray:none;stroke-dashoffset:0" id="content" transform="matrix(1.0629921,0,0,-1.0629921,-186.02362,789.27165)" xml:space="preserve" stroke-miterlimit="10.433" font-style="normal" font-variant="normal" font-weight="normal" font-stretch="normal" font-size-adjust="none" letter-spacing="normal" word-spacing="normal"><path style="fill:#000000;stroke-width:0" d="m 153.29,657.23 v 0.18 c -0.88,0 -1.11,0.21 -1.11,0.7 v 6.94 l -0.09,0.04 -2.08,-1.06 v -0.17 l 0.31,0.12 c 0.2,0.08 0.41,0.14 0.52,0.14 0.25,0 0.34,-0.17 0.34,-0.57 v -5.21 c 0,-0.64 -0.23,-0.89 -1.09,-0.93 v -0.18 h 3.2 z" id="path7414" /></g>    </g>
    <g transform="matrix(1.8897862,0,0,1.8897862,552.09891,-91.904965)" id="g7546">
      <g style="font-style:normal;font-variant:normal;font-weight:normal;font-stretch:normal;letter-spacing:normal;word-spacing:normal;text-anchor:start;fill:none;stroke:#000000;stroke-linecap:butt;stroke-linejoin:miter;stroke-miterlimit:10.43299961;stroke-opacity:1;stroke-dasharray:none;stroke-dashoffset:0" word-spacing="normal" letter-spacing="normal" font-size-adjust="none" font-stretch="normal" font-weight="normal" font-variant="normal" font-style="normal" stroke-miterlimit="10.433" xml:space="preserve" transform="matrix(1.0629921,0,0,-1.0629921,-186.02362,789.27165)" id="g7548"><path style="fill:#000000;stroke-width:0" id="path7550" d="m 154.21,658.83 -0.16,0.06 c -0.39,-0.64 -0.62,-0.78 -1.1,-0.78 h -2.72 l 1.9,2.05 c 1.03,1.09 1.49,1.96 1.49,2.89 0,1.14 -0.83,2.04 -2.14,2.04 -1.44,0 -2.18,-0.95 -2.43,-2.31 l 0.24,-0.06 c 0.48,1.14 0.89,1.5 1.72,1.5 0.98,0 1.62,-0.58 1.62,-1.63 0,-1 -0.42,-1.87 -1.51,-3.03 l -2.07,-2.18 v -0.15 h 4.52 l 0.64,1.6 z" /></g>    </g>
    <path style="fill:none;stroke:#dd0000;stroke-width:1.49212468;stroke-linecap:butt;stroke-linejoin:miter;stroke-miterlimit:4;stroke-opacity:1;stroke-dasharray:1.49212468,1.49212468;stroke-dashoffset:0;marker-start:url(#Arrow1Mstart);marker-end:url(#Arrow1Mend)" d="m 443.97456,135.56014 -104.67686,0" id="path7781" />
    <g transform="matrix(1.8664034,0,0,1.8664034,214.9383,-89.784873)" id="g3318">
      <g style="font-style:normal;font-variant:normal;font-weight:normal;font-stretch:normal;letter-spacing:normal;word-spacing:normal;text-anchor:start;fill:none;stroke:#000000;stroke-linecap:butt;stroke-linejoin:miter;stroke-miterlimit:10.43299961;stroke-opacity:1;stroke-dasharray:none;stroke-dashoffset:0" id="g3320" transform="matrix(1.0629921,0,0,-1.0629921,-186.02362,789.27165)" xml:space="preserve" stroke-miterlimit="10.433" font-style="normal" font-variant="normal" font-weight="normal" font-stretch="normal" font-size-adjust="none" letter-spacing="normal" word-spacing="normal"><path style="fill:#000000;stroke-width:0" d="m 154.24,661.06 0,0.22 -0.01,0.22 -0.02,0.21 -0.02,0.21 -0.02,0.21 -0.04,0.19 -0.03,0.19 -0.05,0.19 -0.05,0.18 -0.05,0.18 -0.06,0.17 -0.06,0.16 -0.07,0.16 -0.08,0.15 -0.08,0.14 -0.08,0.13 -0.09,0.13 -0.09,0.13 -0.09,0.11 -0.1,0.11 -0.11,0.1 -0.11,0.09 -0.11,0.08 -0.11,0.08 -0.12,0.07 -0.13,0.06 -0.12,0.05 -0.13,0.04 -0.13,0.03 -0.14,0.02 -0.14,0.02 -0.14,0 c -1.87,0 -2.67,-1.9 -2.67,-3.95 0,-1.91 0.64,-4.06 2.63,-4.06 v 0.3 c -1,0 -1.52,1.32 -1.52,3.68 0,2.35 0.53,3.72 1.49,3.72 1.03,0 1.53,-1.36 1.53,-3.76 h 0 c 0,-2.32 -0.52,-3.64 -1.5,-3.64 v -0.3 c 1.89,0 2.62,1.98 2.62,3.98 z" id="path3322" /></g>    </g>
    <path style="fill:none;stroke:#000000;stroke-width:1.88499999;stroke-linecap:butt;stroke-linejoin:miter;stroke-miterlimit:4;stroke-opacity:1;stroke-dasharray:none" d="m 403.1526,81.112182 0,15.357142" id="path3413" />
    <path id="path3415" d="m 445.1526,81.112182 0,15.357142" style="fill:none;stroke:#000000;stroke-width:1.88499999;stroke-linecap:butt;stroke-linejoin:miter;stroke-miterlimit:4;stroke-opacity:1;stroke-dasharray:none" />
    <path id="path5393" d="m 401.31897,115.06834 -62.89798,0" style="fill:none;stroke:#dd0000;stroke-width:1.46636117;stroke-linecap:butt;stroke-linejoin:miter;stroke-miterlimit:4;stroke-opacity:1;stroke-dasharray:1.46636117,1.46636117;stroke-dashoffset:0;marker-start:url(#Arrow1Mstart);marker-end:url(#Arrow1Mend)" />
    <path id="path7105" d="m 441.71809,183.10112 -272.1153,0" style="fill:none;stroke:#0000dd;stroke-width:1.5;stroke-linecap:butt;stroke-linejoin:miter;stroke-miterlimit:4;stroke-opacity:1;stroke-dasharray:9,1.5;stroke-dashoffset:0;marker-start:url(#Arrow1Mstart);marker-end:url(#Arrow1Mend)" />
    <path style="fill:none;stroke:#0000dd;stroke-width:1.5;stroke-linecap:butt;stroke-linejoin:miter;stroke-miterlimit:4;stroke-opacity:1;stroke-dasharray:9,1.5;stroke-dashoffset:0;marker-start:url(#Arrow1Mstart);marker-end:url(#Arrow1Mend)" d="m 401.19909,162.60932 -230.51347,0" id="path7107" />
  </g>
</svg>