<?xml version='1.0' ?><svg xmlns:ns0="http://www.iki.fi/pav/software/textext/" xmlns:dc="http://purl.org/dc/elements/1.1/" xmlns:cc="http://creativecommons.org/ns#" xmlns:rdf="http://www.w3.org/1999/02/22-rdf-syntax-ns#" xmlns:svg="http://www.w3.org/2000/svg" xmlns="http://www.w3.org/2000/svg" id="svg2" version="1.1" width="392.90873" height="293.01497" viewBox="7.723548749999958 60.44326274999997 294.6815475000001 219.76122750000005" preserveAspectRatio="none">
  <metadata id="metadata1138">
    <rdf:RDF>
      <cc:Work rdf:about="">
        <dc:format>image/svg+xml</dc:format>
        <dc:type rdf:resource="http://purl.org/dc/dcmitype/StillImage" />
        <dc:title />
      </cc:Work>
    </rdf:RDF>
  </metadata>
  <defs id="defs1136">
    <clipPath id="clipPath5988" clipPathUnits="userSpaceOnUse">
      <rect ry="0.52215016" y="172.35617" x="-0.79470044" height="228.43382" width="343.85764" id="rect5990" style="fill:#000000;fill-rule:nonzero;stroke:#000000;stroke-width:3.39777827;stroke-linecap:square;stroke-miterlimit:4;stroke-dasharray:none;stroke-dashoffset:0;fill-opacity:1.0;stroke-opacity:1.0" />
    </clipPath>
    <clipPath id="clipPath5992" clipPathUnits="userSpaceOnUse">
      <rect ry="0.52215016" y="172.35617" x="-0.79470044" height="228.43382" width="343.85764" id="rect5994" style="fill:#000000;fill-rule:nonzero;stroke:#000000;stroke-width:3.39777827;stroke-linecap:square;stroke-miterlimit:4;stroke-dasharray:none;stroke-dashoffset:0;fill-opacity:1.0;stroke-opacity:1.0" />
    </clipPath>
    <clipPath id="clipPath7734" clipPathUnits="userSpaceOnUse">
      <rect ry="0.5221504" rx="0.5221504" y="-23.704975" x="-16.233763" height="10.198467" width="13.280248" id="rect7736" style="fill:#000000;fill-rule:nonzero;stroke:#0f0000;stroke-width:1.27999997;stroke-linecap:square;stroke-miterlimit:10;stroke-dasharray:none;stroke-dashoffset:0;fill-opacity:1.0;stroke-opacity:1.0" />
    </clipPath>
    <clipPath id="clipPath7770" clipPathUnits="userSpaceOnUse">
      <rect ry="0.5221504" rx="0.5221504" y="191.83218" x="16.012552" height="214.16782" width="278.88519" id="rect7772" style="fill:#000000;fill-rule:nonzero;stroke:#0f0000;stroke-width:1.27999997;stroke-linecap:square;stroke-miterlimit:10;stroke-dasharray:none;stroke-dashoffset:0;fill-opacity:1.0;stroke-opacity:1.0" />
    </clipPath>
    <clipPath id="clipPath7774" clipPathUnits="userSpaceOnUse">
      <rect ry="0.5221504" rx="0.5221504" y="191.83218" x="16.012552" height="214.16782" width="278.88519" id="rect7776" style="fill:#000000;fill-rule:nonzero;stroke:#0f0000;stroke-width:1.27999997;stroke-linecap:square;stroke-miterlimit:10;stroke-dasharray:none;stroke-dashoffset:0;fill-opacity:1.0;stroke-opacity:1.0" />
    </clipPath>
    <clipPath id="clipPath7778" clipPathUnits="userSpaceOnUse">
      <rect ry="0.5221504" rx="0.5221504" y="191.83218" x="16.012552" height="214.16782" width="278.88519" id="rect7780" style="fill:#000000;fill-rule:nonzero;stroke:#0f0000;stroke-width:1.27999997;stroke-linecap:square;stroke-miterlimit:10;stroke-dasharray:none;stroke-dashoffset:0;fill-opacity:1.0;stroke-opacity:1.0" />
    </clipPath>
    <clipPath id="clipPath7782" clipPathUnits="userSpaceOnUse">
      <rect ry="0.5221504" rx="0.5221504" y="191.83218" x="16.012552" height="214.16782" width="278.88519" id="rect7784" style="fill:#000000;fill-rule:nonzero;stroke:#0f0000;stroke-width:1.27999997;stroke-linecap:square;stroke-miterlimit:10;stroke-dasharray:none;stroke-dashoffset:0;fill-opacity:1.0;stroke-opacity:1.0" />
    </clipPath>
    <clipPath id="clipPath7786" clipPathUnits="userSpaceOnUse">
      <rect ry="0.5221504" rx="0.5221504" y="191.83218" x="16.012552" height="214.16782" width="278.88519" id="rect7788" style="fill:#000000;fill-rule:nonzero;stroke:#0f0000;stroke-width:1.27999997;stroke-linecap:square;stroke-miterlimit:10;stroke-dasharray:none;stroke-dashoffset:0;fill-opacity:1.0;stroke-opacity:1.0" />
    </clipPath>
    <clipPath id="clipPath7790" clipPathUnits="userSpaceOnUse">
      <rect ry="0.5221504" rx="0.5221504" y="191.83218" x="16.012552" height="214.16782" width="278.88519" id="rect7792" style="fill:#000000;fill-rule:nonzero;stroke:#0f0000;stroke-width:1.27999997;stroke-linecap:square;stroke-miterlimit:10;stroke-dasharray:none;stroke-dashoffset:0;fill-opacity:1.0;stroke-opacity:1.0" />
    </clipPath>
    <clipPath id="clipPath7806" clipPathUnits="userSpaceOnUse">
      <rect ry="0.5221504" rx="0.5221504" y="182.67059" x="-52.145088" height="284.89877" width="370.99088" id="rect7808" style="fill:#000000;fill-rule:nonzero;stroke:#0f0000;stroke-width:1.27999997;stroke-linecap:square;stroke-miterlimit:10;stroke-dasharray:none;stroke-dashoffset:0;fill-opacity:1.0;stroke-opacity:1.0" />
    </clipPath>
    <clipPath id="clipPath7814" clipPathUnits="userSpaceOnUse">
      <rect ry="0.5221504" rx="0.5221504" y="191.83218" x="16.012552" height="214.16782" width="278.88519" id="rect7816" style="fill:#000000;fill-rule:nonzero;stroke:#0f0000;stroke-width:1.27999997;stroke-linecap:square;stroke-miterlimit:10;stroke-dasharray:none;stroke-dashoffset:0;fill-opacity:1.0;stroke-opacity:1.0" />
    </clipPath>
    <clipPath id="clipPath7818" clipPathUnits="userSpaceOnUse">
      <rect ry="0.5221504" rx="0.5221504" y="191.83218" x="16.012552" height="214.16782" width="278.88519" id="rect7820" style="fill:#000000;fill-rule:nonzero;stroke:#0f0000;stroke-width:1.27999997;stroke-linecap:square;stroke-miterlimit:10;stroke-dasharray:none;stroke-dashoffset:0;fill-opacity:1.0;stroke-opacity:1.0" />
    </clipPath>
    <clipPath id="clipPath7834" clipPathUnits="userSpaceOnUse">
      <rect ry="0.5221504" rx="0.5221504" y="191.83218" x="16.012552" height="214.16782" width="278.88519" id="rect7836" style="fill:#000000;fill-rule:nonzero;stroke:#0f0000;stroke-width:1.27999997;stroke-linecap:square;stroke-miterlimit:10;stroke-dasharray:none;stroke-dashoffset:0;fill-opacity:1.0;stroke-opacity:1.0" />
    </clipPath>
    <clipPath id="clipPath7838" clipPathUnits="userSpaceOnUse">
      <rect ry="0.5221504" rx="0.5221504" y="191.83218" x="16.012552" height="214.16782" width="278.88519" id="rect7840" style="fill:#000000;fill-rule:nonzero;stroke:#0f0000;stroke-width:1.27999997;stroke-linecap:square;stroke-miterlimit:10;stroke-dasharray:none;stroke-dashoffset:0;fill-opacity:1.0;stroke-opacity:1.0" />
    </clipPath>
    <clipPath id="clipPath7842" clipPathUnits="userSpaceOnUse">
      <rect ry="0.5221504" rx="0.5221504" y="191.83218" x="16.012552" height="214.16782" width="278.88519" id="rect7844" style="fill:#000000;fill-rule:nonzero;stroke:#0f0000;stroke-width:1.27999997;stroke-linecap:square;stroke-miterlimit:10;stroke-dasharray:none;stroke-dashoffset:0;fill-opacity:1.0;stroke-opacity:1.0" />
    </clipPath>
    <clipPath id="clipPath7846" clipPathUnits="userSpaceOnUse">
      <rect ry="0.5221504" rx="0.5221504" y="191.83218" x="16.012552" height="214.16782" width="278.88519" id="rect7848" style="fill:#000000;fill-rule:nonzero;stroke:#0f0000;stroke-width:1.27999997;stroke-linecap:square;stroke-miterlimit:10;stroke-dasharray:none;stroke-dashoffset:0;fill-opacity:1.0;stroke-opacity:1.0" />
    </clipPath>
    <clipPath id="clipPath7850" clipPathUnits="userSpaceOnUse">
      <rect ry="0.5221504" rx="0.5221504" y="191.83218" x="16.012552" height="214.16782" width="278.88519" id="rect7852" style="fill:#000000;fill-rule:nonzero;stroke:#0f0000;stroke-width:1.27999997;stroke-linecap:square;stroke-miterlimit:10;stroke-dasharray:none;stroke-dashoffset:0;fill-opacity:1.0;stroke-opacity:1.0" />
    </clipPath>
    <clipPath id="clipPath7854" clipPathUnits="userSpaceOnUse">
      <rect ry="0.5221504" rx="0.5221504" y="191.83218" x="16.012552" height="214.16782" width="278.88519" id="rect7856" style="fill:#000000;fill-rule:nonzero;stroke:#0f0000;stroke-width:1.27999997;stroke-linecap:square;stroke-miterlimit:10;stroke-dasharray:none;stroke-dashoffset:0;fill-opacity:1.0;stroke-opacity:1.0" />
    </clipPath>
    <clipPath id="clipPath7858" clipPathUnits="userSpaceOnUse">
      <rect ry="0.5221504" rx="0.5221504" y="191.83218" x="16.012552" height="214.16782" width="278.88519" id="rect7860" style="fill:#000000;fill-rule:nonzero;stroke:#0f0000;stroke-width:1.27999997;stroke-linecap:square;stroke-miterlimit:10;stroke-dasharray:none;stroke-dashoffset:0;fill-opacity:1.0;stroke-opacity:1.0" />
    </clipPath>
    <clipPath id="clipPath7866" clipPathUnits="userSpaceOnUse">
      <rect ry="0.5221504" rx="0.5221504" y="-18.814808" x="121.75227" height="214.16782" width="278.88519" id="rect7868" style="fill:#000000;fill-rule:nonzero;stroke:#0f0000;stroke-width:1.27999997;stroke-linecap:square;stroke-miterlimit:10;stroke-dasharray:none;stroke-dashoffset:0;fill-opacity:1.0;stroke-opacity:1.0" />
    </clipPath>
    <clipPath id="clipPath7870" clipPathUnits="userSpaceOnUse">
      <rect ry="0.5221504" rx="0.5221504" y="55.725517" x="116.09097" height="214.16782" width="278.88519" id="rect7872" style="fill:#000000;fill-rule:nonzero;stroke:#0f0000;stroke-width:1.27999997;stroke-linecap:square;stroke-miterlimit:10;stroke-dasharray:none;stroke-dashoffset:0;fill-opacity:1.0;stroke-opacity:1.0" />
    </clipPath>
    <clipPath id="clipPath7874" clipPathUnits="userSpaceOnUse">
      <rect ry="0.5221504" rx="0.5221504" y="55.725517" x="116.09097" height="214.16782" width="278.88519" id="rect7876" style="fill:#000000;fill-rule:nonzero;stroke:#0f0000;stroke-width:1.27999997;stroke-linecap:square;stroke-miterlimit:10;stroke-dasharray:none;stroke-dashoffset:0;fill-opacity:1.0;stroke-opacity:1.0" />
    </clipPath>
    <clipPath id="clipPath7878" clipPathUnits="userSpaceOnUse">
      <rect ry="0.5221504" rx="0.5221504" y="55.725517" x="116.09097" height="214.16782" width="278.88519" id="rect7880" style="fill:#000000;fill-rule:nonzero;stroke:#0f0000;stroke-width:1.27999997;stroke-linecap:square;stroke-miterlimit:10;stroke-dasharray:none;stroke-dashoffset:0;fill-opacity:1.0;stroke-opacity:1.0" />
    </clipPath>
    <clipPath id="clip16-4">
      <path d="m 0,0 0,406 539,0 0,-406 z" id="path6645" />
    </clipPath>
    <clipPath id="clip17-2">
      <path d="m 0,0 0,406 539,0 0,-406 z" id="path6658" />
    </clipPath>
    <clipPath id="clip18-1">
      <path d="m 0,0 0,406 539,0 0,-406 z" id="path6671" />
    </clipPath>
    <clipPath id="clip23">
      <path d="m 0,0 0,406 539,0 0,-406 z" id="path6736" />
    </clipPath>
    <clipPath id="clip24-8">
      <path d="m 0,0 0,406 539,0 0,-406 z" id="path6749" />
    </clipPath>
    <clipPath id="clip65">
      <path d="m 0,0 0,406 539,0 0,-406 z" id="path7292" />
    </clipPath>
  </defs>
  <g clip-path="url(#clipPath7878)" id="misc" style="stroke-width:1;stroke-linecap:square;stroke-linejoin:miter;stroke-miterlimit:10;stroke-dasharray:none;stroke-dashoffset:0" />
  <g id="g748" clip-path="url(#clipPath7874)" style="stroke-width:1;stroke-linecap:square;stroke-linejoin:miter;stroke-miterlimit:10;stroke-dasharray:none;stroke-dashoffset:0">
    <g style="fill:#000000;fill-opacity:1;fill-rule:nonzero;stroke:none" id="g750">
      <path id="path752" d="m 19.127,151.65 c 0,0.56 -0.448,1 -1,1 -0.552,0 -1,-0.44 -1,-1 0,-0.55 0.448,-1 1,-1 0.552,0 1,0.45 1,1 z" />
      <title id="title754">Point C</title>
      <desc id="desc756">Point C: Intersection point of c, yAxis</desc>
    </g>
  </g>
  <g id="g761" clip-path="url(#clipPath7870)" style="stroke-width:1;stroke-linecap:square;stroke-linejoin:miter;stroke-miterlimit:10;stroke-dasharray:none;stroke-dashoffset:0">
    <g style="fill:none;stroke:#000000;stroke-linecap:round;stroke-linejoin:round;stroke-opacity:1" id="g763">
      <path id="path765" d="m 19.127,151.65 c 0,0.56 -0.448,1 -1,1 -0.552,0 -1,-0.44 -1,-1 0,-0.55 0.448,-1 1,-1 0.552,0 1,0.45 1,1 z" />
      <title id="title767">Point C</title>
      <desc id="desc769">Point C: Intersection point of c, yAxis</desc>
    </g>
  </g>
  <g clip-path="url(#clipPath7866)" transform="translate(-5.6612905,74.540325)" id="g6976" />
  <g clip-path="url(#clipPath7734)" id="g1119" transform="matrix(21,0,0,21,457,553.53)" style="stroke-width:1;stroke-linecap:square;stroke-linejoin:miter;stroke-miterlimit:10;stroke-dasharray:none;stroke-dashoffset:0">
    <clipPath id="clip84">
      <path id="path1122" d="m -21.762,-26.359 0,19.3336 27.8572,0 0,-19.3336 z" />
    </clipPath>
    <g id="g1124" clip-path="url(#clip84)">
      <g style="fill:#000000;fill-opacity:1;fill-rule:nonzero;stroke:none" id="g1126">
        <path id="path1128" d="m 0.29688,-0.64062 0,0.562495 q 0,0.03125 0.01562,0.03125 0.01562,0.015625 0.07812,0.015625 l 0.03126,0 0,0.03125 Q 0.39062,0 0.25,0 0.125,0 0.09375,0 l 0,-0.03125 0.03125,0 q 0.07812,0 0.09375,-0.015625 l 0,0 q 0,-0.015625 0,-0.03125 l 0,-0.515625 q -0.04687,0.01563 -0.125,0.01563 l 0,-0.03126 q 0.10937,0 0.17187,-0.0625 0.03126,0 0.03126,0.01563 l 0,0 0,0 q 0,0 0,0.01563 z" />
        <title id="title1130">$1$</title>
        <desc id="desc1132">text2 = &quot;$1$&quot;</desc>
      </g>
    </g>
  </g>
  <g transform="translate(7.610673,-131.38892)" id="g49" clip-path="url(#clipPath7858)" style="stroke-width:1;stroke-linecap:square;stroke-linejoin:miter;stroke-miterlimit:10;stroke-dasharray:none;stroke-dashoffset:0" />
  <g transform="translate(284.23732,-41.302546)" id="misc-3" style="stroke-width:1;stroke-linecap:square;stroke-linejoin:miter;stroke-miterlimit:10;stroke-dasharray:none;stroke-dashoffset:0" />
  <g id="use4663" transform="matrix(0.5826112,0.47504004,-0.47504158,0.58261309,226.3007,12.574437)" clip-path="url(#clipPath7806)">
    <g id="g4667" clip-path="url(#clipPath5992)" style="stroke-width:1;stroke-linecap:square;stroke-linejoin:miter;stroke-miterlimit:10;stroke-dasharray:none;stroke-dashoffset:0">
      <g style="fill:#444444;fill-opacity:0.09803898;fill-rule:evenodd;stroke:none" id="g4669">
        <path id="path4671" d="m 222.39,219.55 9.47,11.43 11.43,-9.47 -9.47,-11.44 -11.43,9.48" />
        <title id="title4673">Angle Ã&#131;Â&#142;Ã&#130;Âº</title>
        <desc id="desc4675">Angle Ã&#131;Â&#142;Ã&#130;Âº: Angle between M, E, D</desc>
      </g>
    </g>
    <g id="g4677" clip-path="url(#clipPath5988)" style="stroke-width:1;stroke-linecap:square;stroke-linejoin:miter;stroke-miterlimit:10;stroke-dasharray:none;stroke-dashoffset:0">
      <g style="fill:none;stroke:#444444;stroke-width:1.33026171;stroke-linecap:round;stroke-linejoin:round;stroke-opacity:1" id="g4679">
        <path id="path4681" d="m 222.39,219.55 9.47,11.43 11.43,-9.47 -9.47,-11.44 -11.43,9.48" style="stroke-width:1.33026171" />
        <title id="title4683">Angle Ã&#131;Â&#142;Ã&#130;Âº</title>
        <desc id="desc4685">Angle Ã&#131;Â&#142;Ã&#130;Âº: Angle between M, E, D</desc>
      </g>
    </g>
  </g>
  <g transform="translate(7.610673,-131.38892)" id="g497" clip-path="url(#clipPath7770)" style="stroke-width:1;stroke-linecap:square;stroke-linejoin:miter;stroke-miterlimit:10;stroke-dasharray:none;stroke-dashoffset:0">
    <g style="fill:none;stroke:#2b83ba;stroke-linecap:round;stroke-linejoin:round;stroke-opacity:1" id="g499">
      <path id="path501" d="m 255.29,192.28 0,66.97" />
      <title id="title503">Segment e_1</title>
      <desc id="desc505">Segment e_1: Segment [D, M] of Triangle poly2</desc>
    </g>
  </g>
  <g transform="translate(7.610673,-131.38892)" id="g471" clip-path="url(#clipPath7778)" style="stroke-width:1;stroke-linecap:square;stroke-linejoin:miter;stroke-miterlimit:10;stroke-dasharray:none;stroke-dashoffset:0">
    <g style="fill:none;stroke:#2b83ba;stroke-linecap:round;stroke-linejoin:round;stroke-opacity:1" id="g473">
      <path id="path475" d="m 255.29,259.25 -32.9,-39.7" />
      <title id="title477">Segment d_1</title>
      <desc id="desc479">Segment d_1: Segment [M, E] of Triangle poly2</desc>
    </g>
  </g>
  <g transform="translate(7.610673,-131.38892)" id="g88" clip-path="url(#clipPath7850)" style="stroke:#0f0000;stroke-width:1.27999997;stroke-linecap:square;stroke-linejoin:miter;stroke-miterlimit:10;stroke-dasharray:none;stroke-dashoffset:0;stroke-opacity:1">
    <g style="fill:none;stroke:#0f0000;stroke-width:1.27999997;stroke-linecap:round;stroke-linejoin:round;stroke-miterlimit:10;stroke-dasharray:none;stroke-opacity:1" id="g90">
      <path style="stroke:#0f0000;stroke-width:1.27999997;stroke-miterlimit:10;stroke-dasharray:none;stroke-opacity:1" id="path92" d="m 255.29,388.81 c 0,130.98 -106.18,237.16 -237.163,237.16 -130.977,0 -237.157,-106.18 -237.157,-237.16 0,-130.98 106.18,-237.16 237.157,-237.16 130.983,0 237.163,106.18 237.163,237.16 z" />
      <title id="title94">Circle c</title>
      <desc id="desc96">Circle c: Circle through B with center A</desc>
    </g>
  </g>
  <g style="fill:#d7191c;fill-opacity:0.34901961;fill-rule:evenodd;stroke:none;stroke-width:1;stroke-linecap:square;stroke-linejoin:miter;stroke-miterlimit:10;stroke-dasharray:none;stroke-dashoffset:0" id="g51" transform="translate(7.610673,-131.38892)">
    <path style="fill:#d7191c;fill-opacity:0.34901961" id="path53" d="m 18.127,388.81 237.163,0 0,-129.56 z" />
    <title id="title55">Triangle poly1</title>
    <desc id="desc57">Triangle poly1: Polygon A, B, M</desc>
  </g>
  <g transform="translate(7.610673,-131.38892)" id="g62" clip-path="url(#clipPath7854)" style="stroke-width:1;stroke-linecap:square;stroke-linejoin:miter;stroke-miterlimit:10;stroke-dasharray:none;stroke-dashoffset:0">
    <g style="fill:#2b83ba;fill-opacity:0.09803898;fill-rule:evenodd;stroke:none" id="g64">
      <path id="path66" d="m 255.29,259.25 -32.9,-39.7 32.9,-27.27 z" />
      <title id="title68">Triangle poly2</title>
      <desc id="desc70">Triangle poly2: Polygon M, E, D</desc>
    </g>
  </g>
  <g transform="translate(7.610673,-131.38892)" id="g153" clip-path="url(#clipPath7838)" style="stroke-width:1;stroke-linecap:square;stroke-linejoin:miter;stroke-miterlimit:10;stroke-dasharray:none;stroke-dashoffset:0">
    <g style="fill:#d7191c;fill-opacity:0.09803898;fill-rule:nonzero;stroke:none" id="g155">
      <path id="path157" d="m 118.13,388.81 c 0,-16.75 -4.21,-33.24 -12.24,-47.94 l -87.763,47.94 z" />
      <title id="title159">Angle Ã&#131;Â&#142;Ã&#130;Â±</title>
      <desc id="desc161">Angle Ã&#131;Â&#142;Ã&#130;Â±: Angle between B, A, P</desc>
    </g>
  </g>
  <g transform="translate(7.610673,-131.38892)" id="g166" clip-path="url(#clipPath7834)" style="stroke-width:1;stroke-linecap:square;stroke-linejoin:miter;stroke-miterlimit:10;stroke-dasharray:none;stroke-dashoffset:0;stroke:#000000;stroke-opacity:1">
    <g style="fill:none;stroke:#000000;stroke-linecap:round;stroke-linejoin:round;stroke-opacity:1" id="g168">
      <path style="stroke:#000000;stroke-opacity:1" id="path170" d="m 118.13,388.81 c 0,-16.75 -4.21,-33.24 -12.24,-47.94 l -87.763,47.94 z" />
      <title id="title172">Angle Ã&#131;Â&#142;Ã&#130;Â±</title>
      <desc id="desc174">Angle Ã&#131;Â&#142;Ã&#130;Â±: Angle between B, A, P</desc>
    </g>
  </g>
  <g transform="matrix(0.7757359,0,0,0.7757359,11.675908,-44.192795)" id="g246" clip-path="url(#clipPath7818)" style="stroke-width:1;stroke-linecap:square;stroke-linejoin:miter;stroke-miterlimit:10;stroke-dasharray:none;stroke-dashoffset:0">
    <g style="fill:#000000;fill-opacity:0.09803898;fill-rule:nonzero;stroke:none" id="g248">
      <path id="path250" d="m 105.89,340.87 c -3.08,-5.62 -6.679,-10.93 -10.765,-15.86 l -76.998,63.8 z" />
      <title id="title252">Angle Ã&#131;Â&#142;Ã&#130;Â¶</title>
      <desc id="desc254">Angle Ã&#131;Â&#142;Ã&#130;Â¶: Angle between P, A, Q</desc>
    </g>
  </g>
  <g transform="matrix(0.77450318,0,0,0.77450318,11.585591,-43.600806)" id="g259" clip-path="url(#clipPath7814)" style="stroke-width:1;stroke-linecap:square;stroke-linejoin:miter;stroke-miterlimit:10;stroke-dasharray:none;stroke-dashoffset:0">
    <g style="fill:none;stroke:#000000;stroke-linecap:round;stroke-linejoin:round;stroke-opacity:1" id="g261">
      <path id="path263" d="m 105.89,340.87 c -3.08,-5.62 -6.679,-10.93 -10.765,-15.86 l -76.998,63.8 z" />
      <title id="title265">Angle Ã&#131;Â&#142;Ã&#130;Â¶</title>
      <desc id="desc267">Angle Ã&#131;Â&#142;Ã&#130;Â¶: Angle between P, A, Q</desc>
    </g>
  </g>
  <g clip-path="url(#clipPath7806)" transform="matrix(0.75173057,0,0,0.75173301,62.822283,-76.876259)" id="g6964">
    <g style="stroke-width:1;stroke-linecap:square;stroke-linejoin:miter;stroke-miterlimit:10;stroke-dasharray:none;stroke-dashoffset:0" clip-path="url(#clipPath5992)" id="g328">
      <g id="g330" style="fill:#444444;fill-opacity:0.09803898;fill-rule:evenodd;stroke:none">
        <path d="m 222.39,219.55 9.47,11.43 11.43,-9.47 -9.47,-11.44 -11.43,9.48" id="path332" />
        <title id="title334">Angle Ã&#131;Â&#142;Ã&#130;Âº</title>
        <desc id="desc336">Angle Ã&#131;Â&#142;Ã&#130;Âº: Angle between M, E, D</desc>
      </g>
    </g>
    <g style="stroke-width:1;stroke-linecap:square;stroke-linejoin:miter;stroke-miterlimit:10;stroke-dasharray:none;stroke-dashoffset:0" clip-path="url(#clipPath5988)" id="g341">
      <g id="g343" style="fill:none;stroke:#444444;stroke-width:1.33026171;stroke-linecap:round;stroke-linejoin:round;stroke-opacity:1">
        <path style="stroke-width:1.33026171" d="m 222.39,219.55 9.47,11.43 11.43,-9.47 -9.47,-11.44 -11.43,9.48" id="path345" />
        <title id="title347">Angle Ã&#131;Â&#142;Ã&#130;Âº</title>
        <desc id="desc349">Angle Ã&#131;Â&#142;Ã&#130;Âº: Angle between M, E, D</desc>
      </g>
    </g>
  </g>
  <g transform="translate(7.610673,-131.38892)" id="g432" clip-path="url(#clipPath7790)" style="stroke-width:1;stroke-linecap:square;stroke-linejoin:miter;stroke-miterlimit:10;stroke-dasharray:none;stroke-dashoffset:0">
    <g style="fill:none;stroke:#d7191c;stroke-linecap:round;stroke-linejoin:round;stroke-opacity:1" id="g434">
      <path id="path436" d="m 18.127,388.81 237.163,0" />
      <title id="title438">Segment m</title>
      <desc id="desc440">Segment m: Segment [A, B] of Triangle poly1</desc>
    </g>
  </g>
  <g transform="translate(7.610673,-131.38892)" id="g445" clip-path="url(#clipPath7786)" style="stroke-width:1;stroke-linecap:square;stroke-linejoin:miter;stroke-miterlimit:10;stroke-dasharray:none;stroke-dashoffset:0">
    <g style="fill:none;stroke:#d7191c;stroke-linecap:round;stroke-linejoin:round;stroke-opacity:1" id="g447">
      <path id="path449" d="m 255.29,388.81 0,-129.56" />
      <title id="title451">Segment a</title>
      <desc id="desc453">Segment a: Segment [B, M] of Triangle poly1</desc>
    </g>
  </g>
  <g transform="matrix(0.99818567,0,0,0.99817928,8.073853,-130.9169)" id="g458" clip-path="url(#clipPath7782)" style="stroke-width:1;stroke-linecap:square;stroke-linejoin:miter;stroke-miterlimit:10;stroke-dasharray:none;stroke-dashoffset:0">
    <g style="fill:none;stroke:#d7191c;stroke-width:1.0018208;stroke-linecap:round;stroke-linejoin:round;stroke-opacity:1" id="g460">
      <path style="stroke-width:1.0018208" id="path462" d="M 255.29,259.25 18.127,388.81" />
      <title id="title464">Segment b</title>
      <desc id="desc466">Segment b: Segment [M, A] of Triangle poly1</desc>
    </g>
  </g>
  <g transform="translate(7.610673,-131.38892)" id="g484" clip-path="url(#clipPath7774)" style="stroke-width:1;stroke-linecap:square;stroke-linejoin:miter;stroke-miterlimit:10;stroke-dasharray:none;stroke-dashoffset:0">
    <g style="fill:none;stroke:#2b83ba;stroke-linecap:round;stroke-linejoin:round;stroke-opacity:1" id="g486">
      <path id="path488" d="m 222.39,219.55 32.9,-27.27" />
      <title id="title490">Segment m_1</title>
      <desc id="desc492">Segment m_1: Segment [E, D] of Triangle poly2</desc>
    </g>
  </g>
  <rect ry="0.5221504" rx="0.5221504" y="258.33466" x="246.73792" height="21.229839" width="31.608871" id="rect8142" style="fill:#ffffff;fill-rule:nonzero;stroke:#ffffff;stroke-width:1.27999997;stroke-linecap:round;stroke-miterlimit:10;stroke-dasharray:none;stroke-dashoffset:0;fill-opacity:1.0;stroke-opacity:1.0" />
  <g transform="translate(-277.01578,-90.387615)" id="g9526">
    <g style="stroke-width:1;stroke-linecap:square;stroke-linejoin:miter;stroke-miterlimit:10;stroke-dasharray:none;stroke-dashoffset:0" id="g6647" clip-path="url(#clip16-4)" transform="translate(284.23732,-41.302546)">
      <g id="g6649" style="fill:#2b83ba;fill-opacity:0.09803898;fill-rule:nonzero;stroke:none">
        <path id="path6651" d="m 255.29,235.25 c -5.5,0 -10.82,1.89 -15.09,5.34 l 15.09,18.66 z" />
        <title id="title6653">Angle Ã&#131;Â&#142;Ã&#130;Â²</title>
        <desc id="desc6655">Angle Ã&#131;Â&#142;Ã&#130;Â²: Angle between D, M, E</desc>
      </g>
    </g>
    <g style="stroke-width:1;stroke-linecap:square;stroke-linejoin:miter;stroke-miterlimit:10;stroke-dasharray:none;stroke-dashoffset:0" id="g6660" clip-path="url(#clip17-2)" transform="translate(284.23732,-41.302546)">
      <g id="g6662" style="fill:none;stroke:#2b83ba;stroke-linecap:round;stroke-linejoin:round;stroke-opacity:1">
        <path id="path6664" d="m 255.29,235.25 c -5.5,0 -10.82,1.89 -15.09,5.34 l 15.09,18.66 z" />
        <title id="title6666">Angle Ã&#131;Â&#142;Ã&#130;Â²</title>
        <desc id="desc6668">Angle Ã&#131;Â&#142;Ã&#130;Â²: Angle between D, M, E</desc>
      </g>
    </g>
    <g style="stroke-width:1;stroke-linecap:square;stroke-linejoin:miter;stroke-miterlimit:10;stroke-dasharray:none;stroke-dashoffset:0" id="g6673" clip-path="url(#clip18-1)" transform="translate(284.23732,-41.302546)">
      <g id="g6675" style="fill:none;stroke:#2b83ba;stroke-linecap:round;stroke-linejoin:round;stroke-opacity:1">
        <path id="path6677" d="m 255.29,240.25 c -4.35,0 -8.57,1.49 -11.95,4.23" />
        <title id="title6679">Angle Ã&#131;Â&#142;Ã&#130;Â²</title>
        <desc id="desc6681">Angle Ã&#131;Â&#142;Ã&#130;Â²: Angle between D, M, E</desc>
      </g>
    </g>
    <g style="stroke-width:1;stroke-linecap:square;stroke-linejoin:miter;stroke-miterlimit:10;stroke-dasharray:none;stroke-dashoffset:0" id="g7294" clip-path="url(#clip65)" transform="translate(284.23732,-41.302546)">
      <g id="g7296" style="fill:#000000;fill-opacity:1;fill-rule:nonzero;stroke:none">
        <path id="path7298" d="m 256.29,259.25 c 0,0.55 -0.45,1 -1,1 -0.55,0 -1,-0.45 -1,-1 0,-0.55 0.45,-1 1,-1 0.55,0 1,0.45 1,1 z" />
        <title id="title7300">Point M</title>
        <desc id="desc7302">Point M: Intersection point of f, h</desc>
      </g>
    </g>
  </g>
  <g transform="translate(7.610673,-131.38892)" id="g127" clip-path="url(#clipPath7842)" style="stroke-width:1;stroke-linecap:square;stroke-linejoin:miter;stroke-miterlimit:10;stroke-dasharray:none;stroke-dashoffset:0">
    <g style="fill:none;stroke:#000000;stroke-width:2;stroke-linecap:round;stroke-linejoin:round;stroke-opacity:1" id="g129">
      <path id="path131" d="m 255.29,259.25 c -8.3,-15.19 -18.04,-29.54 -29.08,-42.87" />
      <title id="title133">Arc r_1</title>
      <desc id="desc135">Arc r_1: CircularArc[A, M, W]</desc>
    </g>
  </g>
  <g transform="translate(7.610673,-131.38892)" id="g101" clip-path="url(#clipPath7846)" style="stroke-width:1;stroke-linecap:square;stroke-linejoin:miter;stroke-miterlimit:10;stroke-dasharray:none;stroke-dashoffset:0">
    <g style="fill:none;stroke:#000000;stroke-width:1.5;stroke-linecap:butt;stroke-linejoin:round;stroke-dasharray:5.5, 4;stroke-opacity:1" id="g103">
      <path id="path105" d="M 276.3,308.95 C 262.92,265.7 238.89,226.5 206.41,194.95" />
      <title id="title107">Arc p_1</title>
      <desc id="desc109">Arc p_1: CircularArc[A, O, T]</desc>
    </g>
  </g>
  <g ns0:preamble="/Users/Lizzie/Documents/Old mac/CMEP folder/underground-inkscape-preamble.tex" ns0:text="$\\tan \\theta$" word-spacing="normal" letter-spacing="normal" font-size-adjust="none" font-stretch="normal" font-weight="normal" font-variant="normal" font-style="normal" stroke-miterlimit="10.433" xml:space="preserve" transform="matrix(1.5,0,0,-1.5,-65.544898,928.22651)" id="content" style="font-style:normal;font-variant:normal;font-weight:normal;font-stretch:normal;letter-spacing:normal;word-spacing:normal;text-anchor:start;fill:none;fill-opacity:1;fill-rule:evenodd;stroke:#000000;stroke-linecap:butt;stroke-linejoin:miter;stroke-miterlimit:10.43299961;stroke-dasharray:none;stroke-dashoffset:0;stroke-opacity:1"><path id="path8662" d="m 226.58,478.14 -0.02,-0.02 -0.03,-0.03 -0.02,-0.03 -0.02,-0.02 -0.02,-0.03 -0.03,-0.02 -0.02,-0.02 -0.02,-0.02 -0.02,-0.02 -0.03,-0.02 -0.02,-0.02 -0.02,-0.01 -0.02,-0.02 -0.02,-0.01 -0.02,-0.02 -0.02,-0.01 -0.02,-0.01 -0.03,-0.01 -0.02,-0.01 -0.02,-0.01 -0.02,-0.01 -0.02,-0.01 -0.02,0 -0.02,-0.01 -0.03,0 -0.02,-0.01 -0.02,0 -0.02,0 -0.03,-0.01 -0.02,0 -0.02,0 -0.03,0 c -0.44,0 -0.61,0.31 -0.61,1.06 l 0,3.38 1.19,0 0,0.38 -1.19,0 0,1.37 c 0,0.12 -0.03,0.15 -0.09,0.15 -0.07,-0.12 -0.16,-0.22 -0.23,-0.33 -0.45,-0.65 -0.84,-1.09 -1.15,-1.26 -0.13,-0.09 -0.2,-0.16 -0.2,-0.23 0,-0.03 0.01,-0.06 0.04,-0.08 l 0.63,0 0,-3.55 c 0,-1 0.36,-1.5 1.04,-1.5 0.6,0 1.05,0.28 1.44,0.89 z" style="fill:#000000;stroke-width:0" /><path id="path8664" d="m 232.08,478.01 -0.02,-0.01 -0.02,-0.02 -0.02,-0.01 -0.01,-0.01 -0.02,-0.02 -0.02,-0.01 -0.01,-0.01 -0.02,-0.01 -0.01,-0.01 -0.02,-0.01 -0.02,-0.01 -0.01,-0.01 -0.02,-0.01 -0.01,-0.01 -0.01,0 -0.02,-0.01 -0.01,-0.01 -0.02,0 -0.01,-0.01 -0.02,0 -0.01,-0.01 -0.02,0 -0.01,0 -0.02,-0.01 -0.01,0 -0.02,0 -0.02,-0.01 -0.01,0 -0.02,0 -0.02,0 -0.01,0 -0.02,0 c -0.21,0 -0.37,0.24 -0.37,0.78 l 0,2.25 c 0,0.72 -0.04,0.97 -0.33,1.31 -0.28,0.35 -0.73,0.54 -1.4,0.54 -0.53,0 -1.03,-0.15 -1.36,-0.36 -0.41,-0.26 -0.6,-0.64 -0.6,-0.94 0,-0.32 0.26,-0.55 0.51,-0.55 0.3,0 0.54,0.26 0.54,0.49 0,0.25 -0.07,0.28 -0.07,0.49 0,0.32 0.36,0.58 0.83,0.58 0.53,0 0.92,-0.33 0.92,-1.06 l 0,-0.64 0,-0.28 0,-1.67 c 0,-0.34 -0.07,-0.5 -0.41,-0.74 -0.2,-0.13 -0.45,-0.19 -0.69,-0.19 -0.46,0 -0.82,0.28 -0.82,0.91 0,0.37 0.12,0.65 0.41,0.91 0.29,0.27 0.78,0.52 1.51,0.78 l 0,0.28 c -1.34,-0.49 -1.77,-0.72 -2.13,-0.95 -0.46,-0.31 -0.83,-0.77 -0.83,-1.38 0,-0.78 0.51,-1.23 1.25,-1.23 0.51,0 1.09,0.15 1.71,0.86 l 0.02,0 c 0.06,-0.63 0.31,-0.86 0.75,-0.86 0.41,0 0.71,0.11 1.07,0.56 z" style="fill:#000000;stroke-width:0" /><path id="path8666" d="m 237.85,477.23 0,0.18 c -0.58,0.06 -0.72,0.19 -0.72,0.83 l 0,2.61 c 0,1.17 -0.5,1.82 -1.4,1.82 -0.55,0 -1.09,-0.26 -1.71,-0.96 l -0.01,0 0,0.92 -0.09,0.04 c -0.58,-0.22 -0.97,-0.35 -1.63,-0.54 l 0,-0.2 c 0.09,0.04 0.22,0.05 0.35,0.05 0.33,0 0.41,-0.19 0.41,-0.77 l 0,-2.86 c 0,-0.7 -0.13,-0.89 -0.73,-0.94 l 0,-0.18 2.5,0 0,0.18 c -0.61,0.05 -0.77,0.21 -0.77,0.67 l 0,3.26 c 0.54,0.54 0.83,0.68 1.22,0.68 0.58,0 0.86,-0.36 0.86,-1.2 l 0,-2.34 c 0,-0.78 -0.14,-1.02 -0.73,-1.07 l -0.01,-0.18 z" style="fill:#000000;stroke-width:0" /><path id="path8668" d="m 245.3,482.81 0,0.14 -0.01,0.14 0,0.14 -0.02,0.13 -0.01,0.12 -0.02,0.12 -0.03,0.12 -0.02,0.11 -0.03,0.11 -0.04,0.1 -0.03,0.1 -0.04,0.09 -0.04,0.09 -0.05,0.08 -0.04,0.08 -0.05,0.07 -0.05,0.07 -0.06,0.07 -0.06,0.06 -0.05,0.05 -0.07,0.05 -0.06,0.05 -0.07,0.04 -0.06,0.04 -0.07,0.03 -0.07,0.03 -0.08,0.03 -0.07,0.02 -0.08,0.01 -0.08,0.01 -0.07,0.01 -0.08,0 -0.09,-0.34 c 0.49,0 0.61,-0.66 0.61,-1.52 0,-0.49 -0.12,-1.14 -0.3,-1.96 l -2.44,0 c 0.31,1.4 1.28,3.48 2.13,3.48 l 0.09,0.34 c -2.25,0 -3.63,-3.85 -3.63,-5.9 0,-1.42 0.5,-2.11 1.62,-2.11 l 0.06,0.34 c -0.51,0 -0.68,0.66 -0.68,1.47 0,0.57 0.1,1.36 0.29,1.95 l 2.45,0 c -0.03,-0.1 -0.1,-0.44 -0.19,-0.71 -0.36,-1.17 -1.07,-2.71 -1.87,-2.71 l -0.06,-0.34 c 1.83,0 3.52,3.38 3.52,5.7 z" style="fill:#000000;stroke-width:0" /></g>  <g style="font-style:normal;font-variant:normal;font-weight:normal;font-stretch:normal;letter-spacing:normal;word-spacing:normal;text-anchor:start;fill:#000000;fill-opacity:1;fill-rule:evenodd;stroke:#d7191c;stroke-linecap:butt;stroke-linejoin:miter;stroke-miterlimit:10.43299961;stroke-dasharray:none;stroke-dashoffset:0;stroke-opacity:1" id="g9504" transform="matrix(1.2983754,0,0,-1.2983754,-185.7558,862.0194)" xml:space="preserve" stroke-miterlimit="10.433" font-style="normal" font-variant="normal" font-weight="normal" font-stretch="normal" font-size-adjust="none" letter-spacing="normal" word-spacing="normal" ns0:text="$\\theta$" ns0:preamble="/Users/Lizzie/Documents/Old mac/CMEP folder/underground-inkscape-preamble.tex"><path style="fill:#000000;fill-opacity:1;stroke:#d7191c;stroke-width:0;stroke-opacity:1" d="m 229.05,482.81 -0.01,0.14 0,0.14 -0.01,0.14 -0.01,0.13 -0.02,0.12 -0.02,0.12 -0.02,0.12 -0.03,0.11 -0.03,0.11 -0.03,0.1 -0.04,0.1 -0.04,0.09 -0.04,0.09 -0.04,0.08 -0.05,0.08 -0.05,0.07 -0.05,0.07 -0.05,0.07 -0.06,0.06 -0.06,0.05 -0.06,0.05 -0.07,0.05 -0.06,0.04 -0.07,0.04 -0.07,0.03 -0.07,0.03 -0.07,0.03 -0.08,0.02 -0.07,0.01 -0.08,0.01 -0.08,0.01 -0.08,0 -0.08,-0.34 c 0.48,0 0.6,-0.66 0.6,-1.52 0,-0.49 -0.12,-1.14 -0.29,-1.96 l -2.44,0 c 0.3,1.4 1.27,3.48 2.13,3.48 l 0.08,0.34 c -2.25,0 -3.62,-3.85 -3.62,-5.9 0,-1.42 0.49,-2.11 1.62,-2.11 l 0.06,0.34 c -0.51,0 -0.69,0.66 -0.69,1.47 0,0.57 0.11,1.36 0.3,1.95 l 2.45,0 c -0.04,-0.1 -0.11,-0.44 -0.19,-0.71 -0.37,-1.17 -1.08,-2.71 -1.87,-2.71 l -0.06,-0.34 c 1.82,0 3.52,3.38 3.52,5.7 z" id="path9506" /></g>  <g ns0:preamble="/Users/Lizzie/Documents/Old mac/CMEP folder/underground-inkscape-preamble.tex" ns0:text="$O$" word-spacing="normal" letter-spacing="normal" font-size-adjust="none" font-stretch="normal" font-weight="normal" font-variant="normal" font-style="normal" stroke-miterlimit="10.433" xml:space="preserve" transform="matrix(1.5,0,0,-1.5,-328.30645,980.16531)" id="g4168" style="font-style:normal;font-variant:normal;font-weight:normal;font-stretch:normal;letter-spacing:normal;word-spacing:normal;text-anchor:start;fill:none;fill-opacity:1;fill-rule:evenodd;stroke:#000000;stroke-linecap:butt;stroke-linejoin:miter;stroke-miterlimit:10.43299961;stroke-dasharray:none;stroke-dashoffset:0;stroke-opacity:1"><path id="path4170" d="m 231.87,482.19 -0.01,0.14 -0.01,0.14 -0.01,0.14 -0.02,0.14 -0.03,0.13 -0.03,0.14 -0.03,0.13 -0.05,0.13 -0.05,0.13 -0.05,0.12 -0.06,0.13 -0.07,0.12 -0.07,0.11 -0.08,0.12 -0.08,0.11 -0.09,0.1 -0.09,0.1 -0.1,0.1 -0.11,0.09 -0.11,0.09 -0.12,0.08 -0.12,0.07 -0.13,0.07 -0.14,0.06 -0.14,0.06 -0.15,0.05 -0.15,0.04 -0.16,0.04 -0.16,0.03 -0.17,0.02 -0.18,0.01 -0.18,0 -0.1,-0.43 c 1.2,0 1.67,-0.97 1.67,-2.24 l 0,0 c 0,-1.66 -0.86,-4.91 -3.37,-4.91 -0.93,0 -1.66,0.63 -1.66,1.78 0,1.67 0.61,5.37 3.36,5.37 l 0.1,0.43 c -3.02,0 -4.9,-2.88 -4.9,-5.27 0,-1.62 1.24,-2.75 3,-2.75 3,0 4.85,2.75 4.85,5.08 z" style="fill:#000000;stroke-width:0" /></g>  <g style="font-style:normal;font-variant:normal;font-weight:normal;font-stretch:normal;letter-spacing:normal;word-spacing:normal;text-anchor:start;fill:none;fill-opacity:1;fill-rule:evenodd;stroke:#000000;stroke-linecap:butt;stroke-linejoin:miter;stroke-miterlimit:10.43299961;stroke-dasharray:none;stroke-dashoffset:0;stroke-opacity:1" id="g5014" transform="matrix(1.5,0,0,-1.5,-67.415307,849.4839)" xml:space="preserve" stroke-miterlimit="10.433" font-style="normal" font-variant="normal" font-weight="normal" font-stretch="normal" font-size-adjust="none" letter-spacing="normal" word-spacing="normal" ns0:text="$P$" ns0:preamble="/Users/Lizzie/Documents/Old mac/CMEP folder/underground-inkscape-preamble.tex"><path style="fill:#000000;stroke-width:0" d="m 225.81,484.94 -0.05,-0.18 0.23,0 c 0.72,0 0.92,-0.19 0.92,-0.44 0,-0.1 -0.02,-0.2 -0.04,-0.3 l -1.48,-5.86 c -0.11,-0.41 -0.35,-0.74 -1.26,-0.74 l -0.2,0 -0.05,-0.19 4.04,0 0.05,0.19 -0.38,0 c -0.7,0 -0.91,0.18 -0.91,0.46 0,0.1 0.01,0.18 0.03,0.28 l 0.67,2.63 c 0.04,-0.01 0.08,-0.02 0.14,-0.02 0.28,-0.05 0.54,-0.06 0.88,-0.06 2.41,0 3.37,1.19 3.37,2.34 0,0.88 -0.73,1.89 -2.75,1.89 l -0.14,-0.43 c 1.13,0 1.48,-0.63 1.48,-1.34 0,-1.2 -0.95,-2.03 -2.15,-2.03 -0.24,0 -0.53,0.05 -0.72,0.1 l 0.81,3.23 c 0.2,0.03 0.38,0.04 0.58,0.04 l 0.14,0.43 z" id="path5016" /></g>  <g ns0:preamble="/Users/Lizzie/Documents/Old mac/CMEP folder/underground-inkscape-preamble.tex" ns0:text="$Q$" word-spacing="normal" letter-spacing="normal" font-size-adjust="none" font-stretch="normal" font-weight="normal" font-variant="normal" font-style="normal" stroke-miterlimit="10.433" xml:space="preserve" transform="matrix(1.5,0,0,-1.5,-69.302407,977.33469)" id="g5864" style="font-style:normal;font-variant:normal;font-weight:normal;font-stretch:normal;letter-spacing:normal;word-spacing:normal;text-anchor:start;fill:none;fill-opacity:1;fill-rule:evenodd;stroke:#000000;stroke-linecap:butt;stroke-linejoin:miter;stroke-miterlimit:10.43299961;stroke-dasharray:none;stroke-dashoffset:0;stroke-opacity:1"><path id="path5866" d="m 224.41,475.88 0.13,-0.14 c 0.33,0.15 0.6,0.21 0.69,0.21 0.36,0 1,-0.19 1.59,-0.32 0.44,-0.09 1.05,-0.19 1.68,-0.19 1.4,0 2.23,0.54 2.93,1.41 l -0.16,0.13 c -0.59,-0.63 -1.15,-0.78 -1.61,-0.78 -1.03,0 -2.13,0.4 -2.9,0.4 -0.15,0 -0.32,-0.01 -0.51,-0.05 l -0.05,0.06 0.76,0.51 0.04,0.43 c -0.95,0 -1.55,0.62 -1.55,1.76 0,1.63 1.06,5.36 3.69,5.36 0.77,0 1.54,-0.36 1.54,-1.92 l 0,0 c 0,-1.86 -1.11,-5.2 -3.68,-5.2 l -0.04,-0.43 c 2.9,0 5.13,2.67 5.13,5.07 0,1.83 -1.1,2.92 -2.83,2.92 -3.01,0 -5.24,-2.85 -5.24,-5.25 0,-1.56 0.99,-2.52 2.34,-2.72 z" style="fill:#000000;stroke-width:0" /></g>  <g style="font-style:normal;font-variant:normal;font-weight:normal;font-stretch:normal;letter-spacing:normal;word-spacing:normal;text-anchor:start;fill:none;fill-opacity:1;fill-rule:evenodd;stroke:#000000;stroke-linecap:butt;stroke-linejoin:miter;stroke-miterlimit:10.43299961;stroke-dasharray:none;stroke-dashoffset:0;stroke-opacity:1" id="g6718" transform="matrix(0.99998141,0,0,-0.99998141,8.887083,560.88544)" xml:space="preserve" stroke-miterlimit="10.433" font-style="normal" font-variant="normal" font-weight="normal" font-stretch="normal" font-size-adjust="none" letter-spacing="normal" word-spacing="normal" ns0:text="$R$" ns0:preamble="/Users/Lizzie/Documents/Old mac/CMEP folder/underground-inkscape-preamble.tex"><g ns0:preamble="/Users/Lizzie/Documents/Old mac/CMEP folder/underground-inkscape-preamble.tex" ns0:text="$T$" word-spacing="normal" letter-spacing="normal" font-size-adjust="none" font-stretch="normal" font-weight="normal" font-variant="normal" font-style="normal" stroke-miterlimit="10.433" xml:space="preserve" transform="matrix(1.5,0,0,1.5,-72.604823,-229.24693)" id="g7575" style="font-style:normal;font-variant:normal;font-weight:normal;font-stretch:normal;letter-spacing:normal;word-spacing:normal;text-anchor:start;fill:none;fill-opacity:1;fill-rule:evenodd;stroke:#000000;stroke-linecap:butt;stroke-linejoin:miter;stroke-miterlimit:10.43299961;stroke-dasharray:none;stroke-dashoffset:0;stroke-opacity:1"><path id="path7577" d="m 231.37,484.94 -7.1,0 -0.54,-2.11 0.19,0 c 0.21,0.96 1.04,1.68 2.02,1.68 l 1.08,0 -1.57,-6.35 c -0.1,-0.41 -0.34,-0.74 -1.26,-0.74 l -0.21,0 -0.05,-0.19 3.9,0 0.04,0.19 -0.25,0 c -0.71,0 -0.89,0.19 -0.89,0.44 0,0.11 0.03,0.19 0.05,0.3 l 1.58,6.35 1.16,0 c 0.49,0 1.17,-0.06 1.17,-0.84 0,-0.32 -0.03,-0.64 -0.06,-0.84 l 0.19,0 z" style="fill:#000000;stroke-width:0" /></g></g>  <g style="font-style:normal;font-variant:normal;font-weight:normal;font-stretch:normal;letter-spacing:normal;word-spacing:normal;text-anchor:start;fill:none;fill-opacity:1;fill-rule:evenodd;stroke:#000000;stroke-linecap:butt;stroke-linejoin:miter;stroke-miterlimit:10.43299961;stroke-dasharray:none;stroke-dashoffset:0;stroke-opacity:1" id="g8435" transform="matrix(1.5,0,0,-1.5,-121.19757,806.5524)" xml:space="preserve" stroke-miterlimit="10.433" font-style="normal" font-variant="normal" font-weight="normal" font-stretch="normal" font-size-adjust="none" letter-spacing="normal" word-spacing="normal" ns0:text="$S$" ns0:preamble="/Users/Lizzie/Documents/Old mac/CMEP folder/underground-inkscape-preamble.tex"><path style="fill:#000000;stroke-width:0" d="m 231.49,485.12 -0.19,0 c -0.04,-0.18 -0.2,-0.44 -0.44,-0.44 -0.51,0 -1.19,0.44 -2.17,0.44 -1.87,0 -2.64,-1.11 -2.64,-2.07 0,-0.57 0.53,-1.21 0.86,-1.54 0.43,-0.41 1,-0.84 1.35,-1.21 0.34,-0.33 0.55,-0.72 0.55,-1.13 0,-0.77 -0.34,-1.6 -1.85,-1.6 -1.55,0 -1.99,1.03 -2.02,1.97 0,0.11 -0.02,0.25 -0.02,0.36 l -0.18,0 -0.72,-2.78 0.19,0 c 0.19,0.32 0.36,0.45 0.66,0.45 0.89,0 1.26,-0.45 2.38,-0.45 1.85,0 2.89,1.08 2.89,2.25 0,1.03 -0.7,1.71 -1.4,2.29 -0.67,0.57 -1.39,1.07 -1.39,1.88 0,0.84 0.93,1.14 1.44,1.14 1.32,0 1.89,-0.89 1.89,-1.88 0,-0.1 0,-0.19 -0.01,-0.29 l 0.19,0 z" id="path8437" /></g>  <g ns0:preamble="/Users/Lizzie/Documents/Old mac/CMEP folder/underground-inkscape-preamble.tex" ns0:text="$1$" word-spacing="normal" letter-spacing="normal" font-size-adjust="none" font-stretch="normal" font-weight="normal" font-variant="normal" font-style="normal" stroke-miterlimit="10.433" xml:space="preserve" transform="matrix(1.5,0,0,-1.5,-183.47177,990.07257)" id="g4190" style="font-style:normal;font-variant:normal;font-weight:normal;font-stretch:normal;letter-spacing:normal;word-spacing:normal;text-anchor:start;fill:none;fill-opacity:1;fill-rule:evenodd;stroke:#000000;stroke-linecap:butt;stroke-linejoin:miter;stroke-miterlimit:10.43299961;stroke-dasharray:none;stroke-dashoffset:0;stroke-opacity:1"><path id="path4192" d="m 228.1,477.23 0,0.18 c -0.89,0 -1.13,0.21 -1.13,0.72 l 0,7.05 -0.1,0.04 -2.12,-1.08 0,-0.16 0.32,0.11 c 0.21,0.09 0.41,0.15 0.53,0.15 0.25,0 0.36,-0.18 0.36,-0.58 l 0,-5.3 c 0,-0.65 -0.25,-0.9 -1.13,-0.95 l 0,-0.18 z" style="fill:#000000;stroke-width:0" /></g>  <g style="font-style:normal;font-variant:normal;font-weight:normal;font-stretch:normal;letter-spacing:normal;word-spacing:normal;text-anchor:start;fill:none;fill-opacity:1;fill-rule:evenodd;stroke:#000000;stroke-linecap:butt;stroke-linejoin:miter;stroke-miterlimit:10.43299961;stroke-dasharray:none;stroke-dashoffset:0;stroke-opacity:1" id="g5130" transform="matrix(1.2983754,0,0,-1.2983754,-197.51692,830.73866)" xml:space="preserve" stroke-miterlimit="10.433" font-style="normal" font-variant="normal" font-weight="normal" font-stretch="normal" font-size-adjust="none" letter-spacing="normal" word-spacing="normal" ns0:text="$\\delta \\theta$" ns0:preamble="/Users/Lizzie/Documents/Old mac/CMEP folder/underground-inkscape-preamble.tex"><path style="fill:#000000;stroke-width:0" d="m 228.77,484.41 0,0.03 0,0.02 0,0.05 -0.01,0.04 -0.02,0.04 -0.01,0.04 -0.02,0.04 -0.03,0.04 -0.02,0.03 -0.03,0.04 -0.04,0.03 -0.03,0.03 -0.04,0.03 -0.04,0.02 -0.04,0.03 -0.04,0.02 -0.05,0.02 -0.05,0.02 -0.05,0.02 -0.05,0.02 -0.05,0.01 -0.05,0.02 -0.06,0.01 -0.05,0.01 -0.06,0.01 -0.05,0.01 -0.06,0.01 -0.05,0.01 -0.06,0 -0.06,0.01 -0.05,0 -0.06,0 -0.06,0 c -0.78,0 -1.97,-0.49 -1.97,-1.63 0,-0.63 0.68,-1 1.23,-1.54 -1.66,-0.17 -2.83,-1.73 -2.83,-3.13 0,-0.95 0.58,-1.71 1.72,-1.71 l 0.03,0.34 c -0.51,0 -0.83,0.55 -0.83,1.2 0,1.05 1.1,2.94 2.12,2.94 0.46,0 0.64,-0.66 0.64,-1.18 l 0,0 c 0,-1.12 -0.86,-2.96 -1.93,-2.96 l -0.03,-0.34 c 1.37,0 2.33,0.94 2.74,1.96 0.15,0.38 0.21,0.93 0.21,1.32 0,1.66 -2.65,2.34 -2.65,3.46 0,0.45 0.62,0.79 1.07,0.79 1.07,0 0.43,-0.77 1.23,-0.77 0.37,0 0.54,0.3 0.54,0.54 z" id="path5132" /><path style="fill:#000000;stroke-width:0" d="m 234.53,482.81 0,0.14 -0.01,0.14 0,0.14 -0.02,0.13 -0.01,0.12 -0.02,0.12 -0.03,0.12 -0.02,0.11 -0.03,0.11 -0.04,0.1 -0.03,0.1 -0.04,0.09 -0.04,0.09 -0.05,0.08 -0.04,0.08 -0.05,0.07 -0.05,0.07 -0.06,0.07 -0.06,0.06 -0.05,0.05 -0.07,0.05 -0.06,0.05 -0.07,0.04 -0.06,0.04 -0.07,0.03 -0.07,0.03 -0.08,0.03 -0.07,0.02 -0.08,0.01 -0.07,0.01 -0.08,0.01 -0.08,0 -0.09,-0.34 c 0.49,0 0.61,-0.66 0.61,-1.52 0,-0.49 -0.12,-1.14 -0.3,-1.96 l -2.44,0 c 0.31,1.4 1.28,3.48 2.13,3.48 l 0.09,0.34 c -2.26,0 -3.63,-3.85 -3.63,-5.9 0,-1.42 0.5,-2.11 1.62,-2.11 l 0.06,0.34 c -0.51,0 -0.68,0.66 -0.68,1.47 0,0.57 0.1,1.36 0.29,1.95 l 2.45,0 c -0.03,-0.1 -0.1,-0.44 -0.18,-0.71 -0.37,-1.17 -1.08,-2.71 -1.88,-2.71 l -0.06,-0.34 c 1.83,0 3.52,3.38 3.52,5.7 z" id="path5134" /></g>  <g transform="matrix(0.74516957,0,0,0.74516957,-197.47264,-3.8547639)" id="g9684">
    <g style="stroke-width:1;stroke-linecap:square;stroke-linejoin:miter;stroke-miterlimit:10;stroke-dasharray:none;stroke-dashoffset:0" id="g6738" clip-path="url(#clip23)" transform="translate(284.23732,-41.302546)">
      <g id="g6740" style="fill:none;stroke:#000000;stroke-linecap:round;stroke-linejoin:round;stroke-opacity:1">
        <path id="path6742" d="m 101.5,343.27 c -2.737,-5.01 -5.917,-9.76 -9.504,-14.19" />
        <title id="title6744">Angle Ã&#131;Â&#142;Ã&#130;Â¶</title>
        <desc id="desc6746">Angle Ã&#131;Â&#142;Ã&#130;Â¶: Angle between P, A, Q</desc>
      </g>
    </g>
    <g style="stroke-width:1;stroke-linecap:square;stroke-linejoin:miter;stroke-miterlimit:10;stroke-dasharray:none;stroke-dashoffset:0" id="g6751" clip-path="url(#clip24-8)" transform="translate(284.23732,-41.302546)">
      <g id="g6753" style="fill:none;stroke:#000000;stroke-linecap:round;stroke-linejoin:round;stroke-opacity:1">
        <path id="path6755" d="m 97.109,345.67 c -2.59,-4.75 -5.603,-9.25 -9.001,-13.45" />
        <title id="title6757">Angle Ã&#131;Â&#142;Ã&#130;Â¶</title>
        <desc id="desc6759">Angle Ã&#131;Â&#142;Ã&#130;Â¶: Angle between P, A, Q</desc>
      </g>
    </g>
  </g>
  <g transform="matrix(21,0,0,21,741.23732,512.22745)" id="g7624" style="stroke-width:1;stroke-linecap:square;stroke-linejoin:miter;stroke-miterlimit:10;stroke-dasharray:none;stroke-dashoffset:0">
    <clipPath id="clip88">
      <path d="m -21.762,-26.359 0,19.3336 25.6668,0 0,-19.3336 z" id="path7627" />
    </clipPath>
    <g clip-path="url(#clip88)" id="g7629">
      <g style="fill:#000000;fill-opacity:1;fill-rule:nonzero;stroke:none" id="g7631">
        <path d="m 0.29688,-0.64062 0,0.562495 q 0,0.03125 0.01562,0.03125 0.01562,0.015625 0.07812,0.015625 l 0.03126,0 0,0.03125 Q 0.39062,0 0.25,0 0.125,0 0.09375,0 l 0,-0.03125 0.03125,0 q 0.07812,0 0.09375,-0.015625 l 0,0 q 0,-0.015625 0,-0.03125 l 0,-0.515625 q -0.04687,0.01563 -0.125,0.01563 l 0,-0.03126 q 0.10937,0 0.17187,-0.0625 0.03126,0 0.03126,0.01563 l 0,0 0,0 q 0,0 0,0.01563 z" id="path7633" />
        <title id="title7635">$1$</title>
        <desc id="desc7637">text2 = &quot;$1$&quot;</desc>
      </g>
    </g>
  </g>
  <path id="path4733" d="M 25.734517,257.08662 230.46624,87.554253" style="fill:none;fill-rule:evenodd;stroke:#000000;stroke-width:0.97704268;stroke-linecap:butt;stroke-linejoin:miter;stroke-miterlimit:4;stroke-dasharray:none;stroke-opacity:1" />
</svg>