<?xml version='1.0' ?><svg xmlns:dc="http://purl.org/dc/elements/1.1/" xmlns:cc="http://creativecommons.org/ns#" xmlns:rdf="http://www.w3.org/1999/02/22-rdf-syntax-ns#" xmlns:svg="http://www.w3.org/2000/svg" xmlns="http://www.w3.org/2000/svg" id="svg2" version="1.1" width="379.72431" height="38.485801" viewBox="211.0364343752903 86.69627154969061 355.9915406254897 36.08043843754963" preserveAspectRatio="none">
  <defs id="defs4" />
  <metadata id="metadata7">
    <rdf:RDF>
      <cc:Work rdf:about="">
        <dc:format>image/svg+xml</dc:format>
        <dc:type rdf:resource="http://purl.org/dc/dcmitype/StillImage" />
        <dc:title />
      </cc:Work>
    </rdf:RDF>
  </metadata>
  <g id="layer1">
    <path style="fill:#ffffff;fill-rule:nonzero;stroke:#3e4141;stroke-width:4.2060113;stroke-linecap:round;stroke-linejoin:round;stroke-miterlimit:4;stroke-dasharray:none;stroke-dashoffset:0;fill-opacity:1.0;stroke-opacity:1.0" id="path4172" d="M -8.5412435,-236.53401 A 48.790627,81.968513 0 0 1 -25.877256,-260.46463" transform="matrix(-0.42797768,0.9037893,-0.90238539,-0.43092993,0,0)" />
    <path style="fill:#ffffff;fill-rule:nonzero;stroke:#3e4141;stroke-width:3.72192097;stroke-linecap:round;stroke-linejoin:round;stroke-miterlimit:4;stroke-dasharray:none;stroke-dashoffset:0;fill-opacity:1.0;stroke-opacity:1.0" id="path4174" d="m 50.201517,-426.22397 a 15.917152,23.003534 0 0 1 3.717753,-15.83941" transform="matrix(0.01835496,0.99983153,-0.9936893,-0.11216761,0,0)" />
    <path style="fill:#ffffff;fill-rule:nonzero;stroke:#3f4141;stroke-width:3.16960551;stroke-linecap:round;stroke-linejoin:round;stroke-miterlimit:4;stroke-dasharray:none;stroke-dashoffset:0;fill-opacity:1.0;stroke-opacity:1.0" id="path4176" d="m -97.912948,-471.49931 a 63.256729,84.872681 0 0 1 -10.787532,-64.22875 63.256729,84.872681 0 0 1 26.686352,-55.25203" transform="matrix(0.31305679,-0.94973441,-0.999745,-0.0225819,0,0)" />
    <path style="fill:none;fill-rule:evenodd;stroke:#3e4141;stroke-width:4.206;stroke-linecap:round;stroke-linejoin:miter;stroke-miterlimit:4;stroke-dasharray:none;stroke-opacity:1" d="m 246.36234,88.801018 c 178.45896,9.229314 178.45896,9.229314 178.45896,9.229314 l 0,0" id="path4186" />
    <path style="fill:#ffffff;fill-rule:nonzero;stroke:#3e4141;stroke-width:1.55749416;stroke-linecap:square;stroke-linejoin:round;stroke-miterlimit:4;stroke-dasharray:none;stroke-dashoffset:0;fill-opacity:1.0;stroke-opacity:1.0" id="path4188" d="m 427.8975,170.93967 a 57.979164,5.1171837 0 0 1 24.52155,-6.89644 57.979164,5.1171837 0 0 1 78.19751,2.1476 57.979164,5.1171837 0 0 1 -24.1441,6.9068 57.979164,5.1171837 0 0 1 -78.31405,-2.11426" transform="matrix(0.99033145,-0.13872137,0.19975896,0.97984507,0,0)" />
    <path style="fill:#3e4141;fill-rule:nonzero;stroke:#3e4141;stroke-width:1.10714281;stroke-linecap:round;stroke-linejoin:round;stroke-miterlimit:4;stroke-dasharray:none;stroke-dashoffset:0;fill-opacity:1.0;stroke-opacity:1.0" d="m 480.96944,114.0057 c -7.66786,-0.64403 -15.52795,-2.1057 -21.61143,-4.01888 l -2.54782,-0.80125 4.10715,-0.0775 c 21.68228,-0.40902 62.01995,-5.61517 86.90937,-11.216909 3.50551,-0.788968 6.44941,-1.358734 6.542,-1.266146 0.3462,0.346199 -15.243,7.774885 -19.87994,9.473345 -10.44955,3.82755 -20.21134,6.13408 -31.25,7.38379 -5.8291,0.65992 -17.4053,0.93207 -22.26933,0.52353 z" id="path4214" />
    <path style="fill:#3e4141;fill-rule:nonzero;stroke:#3e4141;stroke-width:0.78286821;stroke-linecap:round;stroke-linejoin:round;stroke-miterlimit:4;stroke-dasharray:none;stroke-dashoffset:0;fill-opacity:1.0;stroke-opacity:1.0" d="m 479.85121,117.06432 c -2.93515,-0.20154 -9.86342,-1.1729 -13.33026,-1.86895 -10.13951,-2.03573 -19.78058,-5.77817 -27.95972,-10.85332 -1.75365,-1.08813 -4.49635,-2.37693 -6.36971,-2.99313 -4.39429,-1.445409 -2.93855,-1.34426 -65.72993,-4.566989 -32.64056,-1.675255 -59.82944,-3.105203 -60.41975,-3.177662 l -1.07329,-0.131743 0,-1.692045 0,-1.692045 32.64055,1.682352 c 40.79025,2.102403 54.58526,2.813835 72.92039,3.760626 7.98652,0.412409 15.57619,0.923464 16.86594,1.13568 4.15114,0.683031 8.59393,2.312082 12.22254,4.481686 3.46337,2.0708 5.88569,3.42454 8.15393,4.55693 l 2.26587,1.1312 0.4466,-0.73438 c 0.57864,-0.95149 1.59859,-1.55711 4.2393,-2.51718 21.78888,-7.92168 101.51453,-18.11676 110.52043,-14.133021 2.24305,0.992205 1.88947,1.904338 -1.73438,4.47407 -18.0209,12.778981 -40.60769,20.858321 -64.0868,22.923971 -4.00916,0.35272 -15.69089,0.48042 -19.57171,0.21395 z m -23.35978,-8.15602 c 0,-0.1389 -0.36933,-0.2508 -0.82075,-0.24867 -0.62281,0.003 -0.72939,0.0629 -0.44194,0.24867 0.49636,0.32077 1.26269,0.32077 1.26269,0 z m 20.96067,-2.25158 c 33.42857,-2.93352 72.08227,-9.506311 84.84112,-14.426646 1.80153,-0.694736 2.78865,-1.337122 2.49932,-1.626452 -0.77373,-0.77372 -14.87123,-0.781285 -24.07964,-0.01292 -31.4134,2.62118 -70.51121,9.062982 -84.53181,13.927558 -7.01252,2.43306 -5.85462,2.89682 6.87633,2.7541 5.71691,-0.0641 10.38431,-0.26371 14.39468,-0.61564 z m 78.53936,-10.649311 c 0.53658,-0.437948 0.55553,-0.495762 0.12627,-0.385184 -0.27779,0.07156 -0.82839,0.207354 -1.22355,0.301768 -0.52306,0.124971 -0.62609,0.230213 -0.37881,0.386933 0.5065,0.321002 0.77976,0.264814 1.47609,-0.303517 z" id="path4216" />
    <path id="path4233" d="m 226.37739,122.77671 0,-0.37904 -0.35909,0 c -0.99746,0 -1.59594,-0.49873 -1.75553,-1.65578 l -1.83533,-13.68516 -0.43888,0 -8.39862,13.58541 c -0.85781,1.3765 -1.73558,1.65579 -2.5535,1.75553 l 0,0.37904 5.1469,0 0,-0.37904 -0.67827,0 c -0.61843,0 -0.99746,-0.25934 -1.01741,-0.69822 0,-0.15959 0.0598,-0.41893 0.21944,-0.59848 l 1.99492,-3.31157 4.66812,0 -0.1596,-0.85781 -4.00979,0 3.27167,-5.34639 0.13965,0 0.59847,5.34639 0.1596,0.85781 0.31918,2.6732 c 0.0199,0.15959 0.0399,0.35909 0.0399,0.49873 0,0.93761 -0.37903,1.43634 -1.69568,1.43634 l -0.37904,0 0,0.37904 z" style="font-style:normal;font-variant:normal;font-weight:normal;font-stretch:normal;letter-spacing:normal;word-spacing:normal;text-anchor:start;fill:#000000;fill-opacity:1;fill-rule:evenodd;stroke:#000000;stroke-width:0;stroke-linecap:butt;stroke-linejoin:miter;stroke-miterlimit:10.43299961;stroke-dasharray:none;stroke-dashoffset:0;stroke-opacity:1" />
    <path id="path4235" d="m 551.63294,107.39586 -0.0998,0.35909 0.43889,0 c 1.39644,0 1.85527,0.37904 1.85527,0.99746 0,0.13965 -0.0399,0.37904 -0.0598,0.49873 l -2.91259,11.65034 c -0.17954,0.79797 -0.63837,1.49619 -2.4338,1.49619 l -0.45884,0 -0.0997,0.37904 7.6605,0 c 4.88755,0 6.82263,-2.23431 6.82263,-4.54842 0,-2.01487 -1.57599,-2.99238 -2.99238,-3.25172 l -0.0798,-0.0998 c 0.47878,-0.1197 1.15705,-0.29924 1.75553,-0.61843 1.1371,-0.55857 2.13457,-1.61588 2.13457,-3.45121 0,-3.21182 -3.57091,-3.41132 -5.56584,-3.41132 l -0.0199,0.91767 c 1.27675,0 2.81283,0.47878 2.81283,2.29416 0,2.29416 -1.33659,3.8502 -3.96989,3.8502 l -0.25934,0.81791 c 1.83533,0 3.35147,0.81792 3.35147,2.5535 0,3.05223 -2.27421,4.04969 -4.48857,4.04969 -0.61843,0 -1.09721,-0.0598 -1.67574,-0.21944 l 1.59594,-6.284 c 0.35909,-0.0998 0.83787,-0.0998 1.2169,-0.0998 l 0.25934,-0.81791 c -0.35908,0 -0.77802,-0.0599 -1.2568,-0.13965 l 1.39645,-5.94486 c 0.29923,-0.0399 0.65832,-0.0598 1.01741,-0.0598 l 0.0199,-0.91767 z" style="font-style:normal;font-variant:normal;font-weight:normal;font-stretch:normal;letter-spacing:normal;word-spacing:normal;text-anchor:start;fill:#000000;fill-opacity:1;fill-rule:evenodd;stroke:#000000;stroke-width:0;stroke-linecap:butt;stroke-linejoin:miter;stroke-miterlimit:10.43299961;stroke-dasharray:none;stroke-dashoffset:0;stroke-opacity:1" />
    <path id="path4254" d="m 447.31297,108.16875 c -1.58704,-1.28786 14.73283,-5.9031 33.95273,-9.60181 29.33811,-5.645872 60.7681,-9.302061 77.82851,-9.053639 7.83668,0.114115 8.53004,0.212791 7.19921,1.024541 -7.57613,4.621142 -50.81558,12.978128 -85.71472,16.566248 -12.70118,1.30588 -32.1995,1.92991 -33.26573,1.06466 z" style="fill:#3e4141;fill-rule:nonzero;stroke:#3e4141;stroke-width:0;stroke-linecap:round;stroke-linejoin:round;stroke-miterlimit:4;stroke-dasharray:none;stroke-dashoffset:0;fill-opacity:0.3;stroke-opacity:0.3" />
  </g>
</svg>