<?xml version="1.0" encoding="UTF-8" standalone="no"?>
<svg
   xmlns:dc="http://purl.org/dc/elements/1.1/"
   xmlns:cc="http://creativecommons.org/ns#"
   xmlns:rdf="http://www.w3.org/1999/02/22-rdf-syntax-ns#"
   xmlns:svg="http://www.w3.org/2000/svg"
   xmlns="http://www.w3.org/2000/svg"
   version="1.1"
   id="svg3388"
   viewBox="0 0 184.57616 154.89437"
   height="43.714634mm"
   width="52.091496mm">
  <defs
     id="defs3390" />
  <metadata
     id="metadata3393">
    <rdf:RDF>
      <cc:Work
         rdf:about="">
        <dc:format>image/svg+xml</dc:format>
        <dc:type
           rdf:resource="http://purl.org/dc/dcmitype/StillImage" />
        <dc:title></dc:title>
      </cc:Work>
    </rdf:RDF>
  </metadata>
  <g
     transform="translate(-211.41481,-309.31369)"
     id="layer1">
    <g
       id="g6030-7-84"
       transform="translate(0.517691,102.32323)">
      <path
         id="path6026-0-5"
         transform="translate(-10.347026,-493.67375)"
         d="m 230.54492,855.55859 c 21.87619,-0.11542 45.75628,-0.11724 67.375,-0.0781 0,0 -10.92677,-13.90614 -16.18164,-20.9043 -4.98768,-6.74341 -9.7653,-13.81761 -12.59961,-21.29687 -2.81656,-6.21187 -5.22467,-13.13137 -6.54883,-20.28125 -3.81814,-16.31205 -1.03768,-34.28376 6.54883,-48.6836 6.38778,-12.24332 17.95314,-23.05892 31.94922,-26.33398 4.00418,-1.32887 8.09124,-1.98029 12.17773,-2.01172 5.25408,-0.0404 10.50705,0.94496 15.57422,2.83398 14.24873,4.21114 24.49603,16.25977 31.01368,29.11133 2.8997,6.60224 4.98025,13.59975 5.91601,20.79102 1.01607,11.04144 0.4209,22.83753 -3.03125,33.17383 -1.79105,7.65553 -5.86932,12.393 -9.09375,19.11132 -4.39282,6.80602 -11.71777,16.74974 -16.80859,23.01368 -5.09082,6.26394 -7.24041,8.83249 -8.87891,11.54297 9.81517,-0.10396 5.03644,-0.10453 12.71875,-0.1211 20.20871,0.0166 35.17602,0.0173 55.2207,-0.0176 l 9.92383,-14.68945 c -15.05823,0.0127 -30.13211,0.45918 -45.18164,-0.0391 5.24639,-8.5854 11.08766,-17.23414 14.40039,-26.66407 2.74824,-7.37276 4.69816,-15.2017 5.83594,-23.24804 0.3741,-12.0245 1.47226,-24.73766 -2.66016,-36.02149 -1.09673,-6.39809 -4.1642,-12.1424 -6.76367,-17.71484 -4.85649,-8.1875 -10.04571,-16.54175 -17.92969,-21.96875 -12.64501,-10.0905 -29.04655,-15.90862 -45.28125,-14.05664 -14.74347,0.74047 -28.85581,7.50979 -39.41992,17.50391 -6.60271,5.79212 -11.38049,13.87018 -15.33398,21.80859 -4.93741,9.29063 -7.24018,19.4496 -8.46289,29.8457 -0.17444,11.42774 0.10648,23.09506 3.41601,33.95117 2.3548,8.93844 6.82263,18.11814 10.80078,26.09961 1.4237,2.31148 4.59574,6.79862 7.34961,10.2793 -12.92012,0.28445 -30.0534,0.19375 -45.3457,0.23242 l 9.30078,14.83203"
         style="fill:#00bfb5;fill-opacity:1" />
    </g>
  </g>
</svg>
