<?xml version="1.0" encoding="UTF-8" standalone="no"?>
<svg
   xmlns:dc="http://purl.org/dc/elements/1.1/"
   xmlns:cc="http://creativecommons.org/ns#"
   xmlns:rdf="http://www.w3.org/1999/02/22-rdf-syntax-ns#"
   xmlns:svg="http://www.w3.org/2000/svg"
   xmlns="http://www.w3.org/2000/svg"
   version="1.1"
   id="svg2"
   viewBox="0 0 296.29688 296.29688"
   height="296.29688"
   width="296.29688">
  <defs
     id="defs4">
    <marker
       orient="auto"
       refY="0"
       refX="0"
       id="marker4972"
       style="overflow:visible">
      <path
         id="path4974"
         style="fill:#d7191c;fill-opacity:1;fill-rule:evenodd;stroke:#d7191c;stroke-width:0.625;stroke-linejoin:round;stroke-opacity:1"
         d="M 8.7185878,4.0337352 -2.2072895,0.01601326 8.7185884,-4.0017078 c -1.7454984,2.3720609 -1.7354408,5.6174519 -6e-7,8.035443 z"
         transform="scale(-0.6,-0.6)" />
    </marker>
    <marker
       style="overflow:visible"
       id="Arrow2Mend"
       refX="0"
       refY="0"
       orient="auto">
      <path
         transform="scale(-0.6,-0.6)"
         d="M 8.7185878,4.0337352 -2.2072895,0.01601326 8.7185884,-4.0017078 c -1.7454984,2.3720609 -1.7354408,5.6174519 -6e-7,8.035443 z"
         style="fill:#000000;fill-opacity:1;fill-rule:evenodd;stroke:#000000;stroke-width:0.625;stroke-linejoin:round;stroke-opacity:1"
         id="path4396" />
    </marker>
    <clipPath
       id="clip4">
      <path
         id="path50"
         d="m 0,0 0,575 1060,0 0,-575 z" />
    </clipPath>
    <clipPath
       id="clip5">
      <path
         id="path63"
         d="m 0,0 0,575 1060,0 0,-575 z" />
    </clipPath>
  </defs>
  <metadata
     id="metadata7">
    <rdf:RDF>
      <cc:Work
         rdf:about="">
        <dc:format>image/svg+xml</dc:format>
        <dc:type
           rdf:resource="http://purl.org/dc/dcmitype/StillImage" />
        <dc:title></dc:title>
      </cc:Work>
    </rdf:RDF>
  </metadata>
  <g
     transform="translate(-93.088593,-601.71541)"
     id="layer1">
    <g
       id="text4294"
       style="font-style:normal;font-variant:normal;font-weight:normal;font-stretch:normal;font-size:345.56719971px;line-height:125%;font-family:cm-icon;-inkscape-font-specification:'cm-icon, Normal';text-align:start;letter-spacing:0px;word-spacing:0px;writing-mode:lr-tb;text-anchor:start;fill:#693a7a;fill-opacity:0.08668728;stroke:none;stroke-width:1px;stroke-linecap:butt;stroke-linejoin:miter;stroke-opacity:1">
      <path
         id="path4156"
         style=""
         d="m 290.50735,842.33007 0,-30.70958 q 0,-2.69975 -1.68734,-4.38709 -1.68734,-1.68734 -4.38708,-1.68734 l -18.56074,0 0,-98.87811 q 0,-2.69974 -1.68734,-4.38708 -1.68734,-1.68734 -4.38708,-1.68734 l -61.75664,0 q -2.69974,0 -4.38708,1.68734 -1.68734,1.68734 -1.68734,4.38708 l 0,30.70958 q 0,2.69975 1.68734,4.72456 1.68734,1.68734 4.38708,1.68734 l 18.56074,0 0,61.75663 -18.56074,0 q -2.69974,0 -4.38708,1.68734 -1.68734,1.68734 -1.68734,4.38709 l 0,30.70958 q 0,2.69975 1.68734,4.38709 1.68734,2.0248 4.38708,2.0248 l 86.3918,0 q 2.69974,0 4.38708,-2.0248 1.68734,-1.68734 1.68734,-4.38709 l 0,0 z m -24.63516,-172.7836 0,-30.70958 q 0,-2.69975 -1.68734,-4.38709 -1.68734,-1.68734 -4.38708,-1.68734 l -37.12148,0 q -2.69974,0 -4.38708,1.68734 -1.68734,1.68734 -1.68734,4.38709 l 0,30.70958 q 0,2.69975 1.68734,4.38709 1.68734,2.0248 4.38708,2.0248 l 37.12148,0 q 2.69974,0 4.38708,-2.0248 1.68734,-1.68734 1.68734,-4.38709 l 0,0 z m 123.51328,80.31738 q 0,40.15869 -19.91061,74.24295 -19.91061,34.08427 -53.99488,53.99488 -34.08426,19.91061 -74.24295,19.91061 -40.49616,0 -74.24295,-19.91061 -34.08427,-19.91061 -53.99488,-53.99488 -19.910607,-34.08426 -19.910607,-74.24295 0,-40.15869 19.910607,-74.24295 19.91061,-34.08427 53.99488,-53.99488 33.74679,-19.91061 74.24295,-19.91061 40.15869,0 74.24295,19.91061 34.08427,19.91061 53.99488,53.99488 19.91061,34.08426 19.91061,74.24295 l 0,0 z" />
    </g>
  </g>
</svg>
