<?xml version='1.0' ?><svg xmlns:ns0="http://www.iki.fi/pav/software/textext/" xmlns:dc="http://purl.org/dc/elements/1.1/" xmlns:cc="http://creativecommons.org/ns#" xmlns:rdf="http://www.w3.org/1999/02/22-rdf-syntax-ns#" xmlns:svg="http://www.w3.org/2000/svg" xmlns="http://www.w3.org/2000/svg" version="1.1" id="svg7187" width="207.6243" height="154.76716" viewBox="110.00000000015132 100.45217000013817 207.62430000028561 154.76716000021287" preserveAspectRatio="none">
  <defs id="defs7189">
    <marker style="overflow:visible;" id="marker7600" refX="0.0" refY="0.0" orient="auto">
      <path transform="scale(0.4) rotate(180) translate(10,0)" style="fill-rule:evenodd;stroke:#000000;stroke-width:1pt;stroke-opacity:1;fill:#000000;fill-opacity:1" d="M 0.0,0.0 L 5.0,-5.0 L -12.5,0.0 L 5.0,5.0 L 0.0,0.0 z " id="path7602" />
    </marker>
    <marker orient="auto" refY="0.0" refX="0.0" id="marker7201" style="overflow:visible;">
      <path id="path7203" d="M 0.0,0.0 L 5.0,-5.0 L -12.5,0.0 L 5.0,5.0 L 0.0,0.0 z " style="fill-rule:evenodd;stroke:#000000;stroke-width:1pt;stroke-opacity:1;fill:#000000;fill-opacity:1" transform="scale(0.4) rotate(180) translate(10,0)" />
    </marker>
    <marker orient="auto" refY="0.0" refX="0.0" id="Arrow1Mend" style="overflow:visible;">
      <path id="path6716" d="M 0.0,0.0 L 5.0,-5.0 L -12.5,0.0 L 5.0,5.0 L 0.0,0.0 z " style="fill-rule:evenodd;stroke:#000000;stroke-width:1pt;stroke-opacity:1;fill:#000000;fill-opacity:1" transform="scale(0.4) rotate(180) translate(10,0)" />
    </marker>
    <marker style="overflow:visible" id="marker7600-6" refX="0" refY="0" orient="auto">
      <path transform="matrix(-0.4,0,0,-0.4,-4,0)" style="fill:#000000;fill-opacity:1;fill-rule:evenodd;stroke:#000000;stroke-width:1pt;stroke-opacity:1" d="M 0,0 5,-5 -12.5,0 5,5 0,0 Z" id="path7602-9" />
    </marker>
  </defs>
  <metadata id="metadata7192">
    <rdf:RDF>
      <cc:Work rdf:about="">
        <dc:format>image/svg+xml</dc:format>
        <dc:type rdf:resource="http://purl.org/dc/dcmitype/StillImage" />
        <dc:title />
      </cc:Work>
    </rdf:RDF>
  </metadata>
  <g id="layer1">
    <path style="fill:#ff9c9c;fill-rule:evenodd;stroke:none;stroke-width:1px;stroke-linecap:butt;stroke-linejoin:miter;stroke-opacity:1;fill-opacity:1" d="m 188.14091,237.67415 9.09137,0.25254 0,-90.91373 -9.09137,3.283 z" id="path7211" />
    <path style="fill:none;fill-rule:evenodd;stroke:#000000;stroke-width:1px;stroke-linecap:butt;stroke-linejoin:miter;stroke-opacity:1;marker-end:url(#Arrow1Mend)" d="m 110,238.07647 205.71429,0" id="path7195" />
    <path style="fill:none;fill-rule:evenodd;stroke:#000000;stroke-width:1px;stroke-linecap:butt;stroke-linejoin:miter;stroke-opacity:1;marker-end:url(#marker7201)" d="m 130,255.21933 0,-152.85715" id="path7197" />
    <path style="fill:none;fill-rule:evenodd;stroke:#000000;stroke-width:1px;stroke-linecap:butt;stroke-linejoin:miter;stroke-opacity:1" d="m 158.57143,237.91059 0,-54.11984 c 0,0 11.57065,-22.89452 22.85714,-30 11.28649,-7.10548 27.79051,-9.68647 41.42857,-8.57143 C 236.4952,146.33436 260,159.50504 260,159.50504 l 0,78.65809" id="path7205" />
    <path style="fill:none;fill-rule:evenodd;stroke:#000000;stroke-width:1px;stroke-linecap:butt;stroke-linejoin:miter;stroke-opacity:1" d="m 188.39345,238.17923 0,-88.13581" id="path7207" />
    <path style="fill:none;fill-rule:evenodd;stroke:#000000;stroke-width:1px;stroke-linecap:butt;stroke-linejoin:miter;stroke-opacity:1" d="m 197.23228,237.92669 0,-91.16627" id="path7209" />
    <g style="font-style:normal;font-variant:normal;font-weight:normal;font-stretch:normal;letter-spacing:normal;word-spacing:normal;text-anchor:start;fill:none;fill-opacity:1;fill-rule:evenodd;stroke:#000000;stroke-linecap:butt;stroke-linejoin:miter;stroke-miterlimit:10.43299961;stroke-dasharray:none;stroke-dashoffset:0;stroke-opacity:1" id="content" transform="matrix(1.5,0,0,-1.5,-28.571428,967.72929)" xml:space="preserve" stroke-miterlimit="10.433" font-style="normal" font-variant="normal" font-weight="normal" font-stretch="normal" font-size-adjust="none" letter-spacing="normal" word-spacing="normal" ns0:text="$x$" ns0:preamble="/Users/jdg18/CMEP/Miscellaneous/underground-inkscape-preamble.tex"><path style="fill:#000000;stroke-width:0" d="m 227.04,480.64 -0.23,0.64 c -0.15,0.39 -0.37,0.88 -0.89,1.16 l -1.56,-0.39 0.03,-0.21 c 0.12,0.05 0.3,0.07 0.45,0.07 0.65,0 0.96,-0.48 1.16,-1.05 l 0.39,-1.09 -0.77,-1.19 c -0.38,-0.58 -0.68,-0.7 -0.83,-0.7 -0.29,0 -0.25,0.24 -0.55,0.24 -0.3,0 -0.45,-0.25 -0.45,-0.44 0,-0.26 0.19,-0.55 0.61,-0.55 0.67,0 1.01,0.51 1.39,1.08 l 0.75,1.16 0.47,-1.33 c 0.15,-0.43 0.38,-0.91 0.86,-0.91 0.69,0 1.22,1.13 1.37,1.31 l -0.17,0.12 c -0.25,-0.51 -0.53,-0.68 -0.72,-0.68 -0.54,0 -0.81,1.6 -1.16,2.33 l 0.65,1 c 0.16,0.26 0.29,0.45 0.65,0.45 0.2,0 0.26,-0.1 0.52,-0.1 0.31,0 0.46,0.27 0.46,0.49 0,0.25 -0.2,0.39 -0.58,0.39 -0.59,0 -1.01,-0.52 -1.31,-0.99 z" id="path7248" /></g>    <g style="font-style:normal;font-variant:normal;font-weight:normal;font-stretch:normal;letter-spacing:normal;word-spacing:normal;text-anchor:start;fill:none;fill-opacity:1;fill-rule:evenodd;stroke:#000000;stroke-linecap:butt;stroke-linejoin:miter;stroke-miterlimit:10.43299961;stroke-dasharray:none;stroke-dashoffset:0;stroke-opacity:1" ns0:preamble="/Users/jdg18/CMEP/Miscellaneous/underground-inkscape-preamble.tex" ns0:text="$y$" word-spacing="normal" letter-spacing="normal" font-size-adjust="none" font-stretch="normal" font-weight="normal" font-variant="normal" font-style="normal" stroke-miterlimit="10.433" xml:space="preserve" transform="matrix(1.5,0,0,-1.5,-200,824.28571)" id="g7282"><path style="fill:#000000;stroke-width:0" id="path7284" d="m 226.63,480.86 -0.01,0.08 -0.01,0.08 -0.01,0.07 -0.01,0.07 -0.01,0.07 -0.01,0.07 -0.01,0.06 -0.01,0.06 -0.01,0.06 -0.01,0.05 -0.01,0.06 -0.01,0.05 -0.01,0.05 -0.01,0.04 -0.02,0.05 -0.01,0.05 -0.01,0.04 -0.02,0.04 -0.01,0.04 -0.01,0.04 -0.04,0.08 -0.03,0.07 -0.04,0.08 -0.04,0.07 -0.04,0.07 -0.05,0.07 -1.78,-0.3 0.02,-0.18 c 0.11,0.01 0.3,0.04 0.43,0.04 0.67,0 0.77,-0.71 0.83,-1.24 l 0.45,-3.7 c -0.31,-0.48 -0.98,-1.21 -1.18,-1.21 -0.19,0 -0.17,0.37 -0.68,0.37 -0.15,0 -0.47,-0.13 -0.47,-0.49 0,-0.28 0.22,-0.64 0.66,-0.64 0.81,0 1.58,1.15 2.44,2.24 0.5,0.62 2.42,3.46 2.42,4.38 0,0.46 -0.3,0.73 -0.68,0.73 -0.34,0 -0.56,-0.21 -0.56,-0.47 0,-0.45 0.62,-0.57 0.62,-0.82 0,-0.21 -0.09,-0.45 -0.33,-0.88 -0.26,-0.49 -0.68,-1.19 -1.4,-2.18 z" /></g>    <g style="font-style:normal;font-variant:normal;font-weight:normal;font-stretch:normal;letter-spacing:normal;word-spacing:normal;text-anchor:start;fill:none;fill-opacity:1;fill-rule:evenodd;stroke:#000000;stroke-linecap:butt;stroke-linejoin:miter;stroke-miterlimit:10.43299961;stroke-dasharray:none;stroke-dashoffset:0;stroke-opacity:1" id="g7322" transform="matrix(1.5,0,0,-1.5,-180.71429,967.71429)" xml:space="preserve" stroke-miterlimit="10.433" font-style="normal" font-variant="normal" font-weight="normal" font-stretch="normal" font-size-adjust="none" letter-spacing="normal" word-spacing="normal" ns0:text="$a$" ns0:preamble="/Users/jdg18/CMEP/Miscellaneous/underground-inkscape-preamble.tex"><path style="fill:#000000;stroke-width:0" d="m 229.02,482.29 -0.95,0 -0.1,-0.39 -0.01,0 c -0.03,0.26 -0.28,0.54 -0.78,0.54 l 0.01,-0.34 c 0.45,0 0.59,-0.36 0.59,-0.84 l 0,0 c 0,-0.4 -0.08,-0.87 -0.18,-1.18 -0.33,-1.12 -1.16,-2.24 -1.98,-2.24 -0.32,0 -0.68,0.15 -0.68,0.78 0,0.41 0.11,0.93 0.33,1.46 0.4,0.99 1.11,2.02 1.92,2.02 l -0.01,0.34 c -1.71,0 -3.27,-2.36 -3.27,-3.92 0,-0.75 0.3,-1.4 1.05,-1.4 0.46,0 1.2,0.15 2.05,1.24 l 0.05,0 c -0.06,-0.19 -0.13,-0.44 -0.13,-0.59 0,-0.38 0.1,-0.65 0.49,-0.65 0.57,0 1.21,0.71 1.58,1.26 l -0.14,0.14 c -0.46,-0.61 -0.64,-0.64 -0.76,-0.64 -0.1,0 -0.17,0.07 -0.17,0.2 0,0.11 0.02,0.13 0.02,0.13 z" id="path7324" /></g>    <g style="font-style:normal;font-variant:normal;font-weight:normal;font-stretch:normal;letter-spacing:normal;word-spacing:normal;text-anchor:start;fill:none;fill-opacity:1;fill-rule:evenodd;stroke:#000000;stroke-linecap:butt;stroke-linejoin:miter;stroke-miterlimit:10.43299961;stroke-dasharray:none;stroke-dashoffset:0;stroke-opacity:1" ns0:preamble="/Users/jdg18/CMEP/Miscellaneous/underground-inkscape-preamble.tex" ns0:text="$b$" word-spacing="normal" letter-spacing="normal" font-size-adjust="none" font-stretch="normal" font-weight="normal" font-variant="normal" font-style="normal" stroke-miterlimit="10.433" xml:space="preserve" transform="matrix(1.5,0,0,-1.5,-80,967.69929)" id="g7366"><path style="fill:#000000;stroke-width:0" id="path7368" d="m 225.97,481.74 0.86,3.38 -1.87,-0.28 0.03,-0.19 c 0.1,0.03 0.24,0.05 0.36,0.05 0.16,0 0.33,-0.1 0.34,-0.25 0,-0.04 -0.01,-0.08 -0.02,-0.13 l -1.71,-6.65 c 0.54,-0.35 1.02,-0.56 1.65,-0.56 l -0.06,0.34 c -0.27,0 -0.65,0.14 -0.65,0.22 l 0.65,2.54 c 0.13,0.53 0.54,1.58 1.39,1.58 0.39,0 0.84,-0.26 0.84,-1.08 0,-1.21 -0.78,-3.26 -2.23,-3.26 l 0.06,-0.34 c 1.86,0 3.15,2.12 3.15,3.55 0,0.97 -0.48,1.78 -1.31,1.78 -0.58,0 -1.05,-0.36 -1.44,-0.74 z" /></g>    <g style="font-style:normal;font-variant:normal;font-weight:normal;font-stretch:normal;letter-spacing:normal;word-spacing:normal;text-anchor:start;fill:none;fill-opacity:1;fill-rule:evenodd;stroke:#000000;stroke-linecap:butt;stroke-linejoin:miter;stroke-miterlimit:10.43299961;stroke-dasharray:none;stroke-dashoffset:0;stroke-opacity:1" id="g7414" transform="matrix(1.5,0,0,-1.5,-94.285714,858.57143)" xml:space="preserve" stroke-miterlimit="10.433" font-style="normal" font-variant="normal" font-weight="normal" font-stretch="normal" font-size-adjust="none" letter-spacing="normal" word-spacing="normal" ns0:text="$y=f(x)$" ns0:preamble="/Users/jdg18/CMEP/Miscellaneous/underground-inkscape-preamble.tex"><path style="fill:#000000;stroke-width:0" d="m 226.63,480.86 -0.01,0.08 -0.01,0.08 -0.01,0.07 -0.01,0.07 -0.01,0.07 -0.01,0.07 -0.01,0.06 -0.01,0.06 -0.01,0.06 -0.01,0.05 -0.01,0.06 -0.01,0.05 -0.01,0.05 -0.01,0.04 -0.02,0.05 -0.01,0.05 -0.01,0.04 -0.02,0.04 -0.01,0.04 -0.01,0.04 -0.04,0.08 -0.03,0.07 -0.04,0.08 -0.04,0.07 -0.04,0.07 -0.05,0.07 -1.78,-0.3 0.02,-0.18 c 0.11,0.01 0.3,0.04 0.43,0.04 0.67,0 0.77,-0.71 0.83,-1.24 l 0.45,-3.7 c -0.31,-0.48 -0.98,-1.21 -1.18,-1.21 -0.19,0 -0.17,0.37 -0.68,0.37 -0.15,0 -0.47,-0.13 -0.47,-0.49 0,-0.28 0.22,-0.64 0.66,-0.64 0.81,0 1.58,1.15 2.44,2.24 0.5,0.62 2.42,3.46 2.42,4.38 0,0.46 -0.3,0.73 -0.68,0.73 -0.34,0 -0.56,-0.21 -0.56,-0.47 0,-0.45 0.62,-0.57 0.62,-0.82 0,-0.21 -0.09,-0.45 -0.33,-0.88 -0.26,-0.49 -0.68,-1.19 -1.4,-2.18 z" id="path7416" /><polygon style="fill:#000000;stroke-width:0" points="239.61,481.79 232.64,481.79 232.64,481.01 239.61,481.01 " id="polygon7418" /><polygon style="fill:#000000;stroke-width:0" points="239.61,479.43 232.64,479.43 232.64,478.65 239.61,478.65 " id="polygon7420" /><path style="fill:#000000;stroke-width:0" d="m 245.9,482.39 -0.11,-0.44 0.91,0 -1.03,-4.04 c -0.18,-0.68 -0.53,-2.54 -1.3,-2.54 -0.11,0 -0.18,0.03 -0.18,0.11 0,0.14 0.19,0.15 0.19,0.37 0,0.18 -0.12,0.39 -0.44,0.39 -0.34,0 -0.51,-0.29 -0.51,-0.57 0,-0.36 0.29,-0.64 0.85,-0.64 1.05,0 1.69,1.12 2.08,2.1 0.17,0.44 0.27,0.88 0.35,1.2 l 0.94,3.62 0.9,0 0.14,0.44 -0.95,0 0.23,0.83 c 0.25,0.92 0.71,1.56 1.3,1.56 0.14,0 0.18,-0.04 0.18,-0.1 0,-0.09 -0.11,-0.27 -0.11,-0.43 0,-0.17 0.08,-0.3 0.42,-0.3 0.23,0 0.48,0.14 0.48,0.47 0,0.42 -0.34,0.7 -0.93,0.7 -0.9,0 -1.41,-0.51 -1.78,-1.06 -0.51,-0.76 -0.45,-1.67 -1.2,-1.67 z" id="path7422" /><path style="fill:#000000;stroke-width:0" d="m 254.55,475.33 -0.15,0.13 -0.14,0.13 -0.14,0.13 -0.13,0.13 -0.12,0.13 -0.12,0.13 -0.11,0.13 -0.1,0.14 -0.1,0.13 -0.09,0.13 -0.08,0.14 -0.08,0.14 -0.07,0.14 -0.07,0.14 -0.07,0.14 -0.05,0.14 -0.06,0.15 -0.04,0.15 -0.05,0.16 -0.04,0.15 -0.03,0.16 -0.04,0.16 -0.02,0.17 -0.03,0.17 -0.02,0.17 -0.01,0.18 -0.02,0.18 -0.01,0.18 -0.01,0.19 0,0.19 -0.01,0.2 0,0.21 c 0,2.27 0.37,3.37 2.01,4.78 l -0.1,0.19 c -1.9,-1.13 -2.93,-2.83 -2.93,-5.01 0,-2.01 1.02,-4 2.89,-5.07 z" id="path7424" /><path style="fill:#000000;stroke-width:0" d="m 258.51,480.64 -0.23,0.64 c -0.15,0.39 -0.37,0.88 -0.89,1.16 l -1.57,-0.39 0.04,-0.21 c 0.12,0.05 0.3,0.07 0.45,0.07 0.65,0 0.96,-0.48 1.16,-1.05 l 0.39,-1.09 -0.77,-1.19 c -0.38,-0.58 -0.69,-0.7 -0.83,-0.7 -0.29,0 -0.25,0.24 -0.55,0.24 -0.3,0 -0.45,-0.25 -0.45,-0.44 0,-0.26 0.19,-0.55 0.61,-0.55 0.67,0 1.01,0.51 1.39,1.08 l 0.74,1.16 0.48,-1.33 c 0.15,-0.43 0.38,-0.91 0.86,-0.91 0.69,0 1.22,1.13 1.36,1.31 l -0.16,0.12 c -0.25,-0.51 -0.53,-0.68 -0.72,-0.68 -0.54,0 -0.81,1.6 -1.17,2.33 l 0.66,1 c 0.16,0.26 0.29,0.45 0.65,0.45 0.2,0 0.26,-0.1 0.52,-0.1 0.31,0 0.46,0.27 0.46,0.49 0,0.25 -0.2,0.39 -0.58,0.39 -0.59,0 -1.01,-0.52 -1.31,-0.99 z" id="path7426" /><path style="fill:#000000;stroke-width:0" d="m 261.76,485.03 0.16,-0.13 0.15,-0.13 0.14,-0.12 0.13,-0.13 0.13,-0.13 0.11,-0.13 0.11,-0.13 0.11,-0.13 0.1,-0.13 0.09,-0.13 0.08,-0.14 0.08,-0.14 0.07,-0.14 0.07,-0.14 0.06,-0.14 0.06,-0.15 0.05,-0.14 0.05,-0.15 0.04,-0.16 0.04,-0.16 0.03,-0.15 0.03,-0.17 0.03,-0.16 0.02,-0.17 0.02,-0.18 0.01,-0.18 0.02,-0.18 0.01,-0.18 0,-0.19 0.01,-0.2 0,-0.2 0,-0.2 c 0,-2.29 -0.33,-3.41 -2.01,-4.79 l 0.11,-0.19 c 1.88,1.15 2.92,2.83 2.92,5.01 0,2.01 -1.08,3.98 -2.89,5.07 z" id="path7428" /></g>    <g style="font-style:normal;font-variant:normal;font-weight:normal;font-stretch:normal;letter-spacing:normal;word-spacing:normal;text-anchor:start;fill:none;fill-opacity:1;fill-rule:evenodd;stroke:#000000;stroke-linecap:butt;stroke-linejoin:miter;stroke-miterlimit:10.43299961;stroke-dasharray:none;stroke-dashoffset:0;stroke-opacity:1" ns0:preamble="/Users/jdg18/CMEP/Miscellaneous/underground-inkscape-preamble.tex" ns0:text="$x$" word-spacing="normal" letter-spacing="normal" font-size-adjust="none" font-stretch="normal" font-weight="normal" font-variant="normal" font-style="normal" stroke-miterlimit="10.433" xml:space="preserve" transform="matrix(1.5,0,0,-1.5,-152.85714,967.72929)" id="g7490"><path style="fill:#000000;stroke-width:0" id="path7492" d="m 227.04,480.64 -0.23,0.64 c -0.15,0.39 -0.37,0.88 -0.89,1.16 l -1.56,-0.39 0.03,-0.21 c 0.12,0.05 0.3,0.07 0.45,0.07 0.65,0 0.96,-0.48 1.16,-1.05 l 0.39,-1.09 -0.77,-1.19 c -0.38,-0.58 -0.68,-0.7 -0.83,-0.7 -0.29,0 -0.25,0.24 -0.55,0.24 -0.3,0 -0.45,-0.25 -0.45,-0.44 0,-0.26 0.19,-0.55 0.61,-0.55 0.67,0 1.01,0.51 1.39,1.08 l 0.75,1.16 0.47,-1.33 c 0.15,-0.43 0.38,-0.91 0.86,-0.91 0.69,0 1.22,1.13 1.37,1.31 l -0.17,0.12 c -0.25,-0.51 -0.53,-0.68 -0.72,-0.68 -0.54,0 -0.81,1.6 -1.16,2.33 l 0.65,1 c 0.16,0.26 0.29,0.45 0.65,0.45 0.2,0 0.26,-0.1 0.52,-0.1 0.31,0 0.46,0.27 0.46,0.49 0,0.25 -0.2,0.39 -0.58,0.39 -0.59,0 -1.01,-0.52 -1.31,-0.99 z" /></g>    <g style="font-style:normal;font-variant:normal;font-weight:normal;font-stretch:normal;letter-spacing:normal;word-spacing:normal;text-anchor:start;fill:none;fill-opacity:1;fill-rule:evenodd;stroke:#000000;stroke-linecap:butt;stroke-linejoin:miter;stroke-miterlimit:10.43299961;stroke-dasharray:none;stroke-dashoffset:0;stroke-opacity:1" id="g7558" transform="matrix(1.5,0,0,-1.5,-133.57143,912.85714)" xml:space="preserve" stroke-miterlimit="10.433" font-style="normal" font-variant="normal" font-weight="normal" font-stretch="normal" font-size-adjust="none" letter-spacing="normal" word-spacing="normal" ns0:text="$\\delta x$" ns0:preamble="/Users/jdg18/CMEP/Miscellaneous/underground-inkscape-preamble.tex"><path style="fill:#000000;stroke-width:0" d="m 228.77,484.41 0,0.03 0,0.02 0,0.05 -0.01,0.04 -0.02,0.04 -0.01,0.04 -0.02,0.04 -0.03,0.04 -0.02,0.03 -0.03,0.04 -0.04,0.03 -0.03,0.03 -0.04,0.03 -0.04,0.02 -0.04,0.03 -0.04,0.02 -0.05,0.02 -0.05,0.02 -0.05,0.02 -0.05,0.02 -0.05,0.01 -0.05,0.02 -0.06,0.01 -0.05,0.01 -0.06,0.01 -0.05,0.01 -0.06,0.01 -0.05,0.01 -0.06,0 -0.06,0.01 -0.05,0 -0.06,0 -0.06,0 c -0.78,0 -1.97,-0.49 -1.97,-1.63 0,-0.63 0.68,-1 1.23,-1.54 -1.66,-0.17 -2.83,-1.73 -2.83,-3.13 0,-0.95 0.58,-1.71 1.72,-1.71 l 0.03,0.34 c -0.51,0 -0.83,0.55 -0.83,1.2 0,1.05 1.1,2.94 2.12,2.94 0.46,0 0.64,-0.66 0.64,-1.18 l 0,0 c 0,-1.12 -0.86,-2.96 -1.93,-2.96 l -0.03,-0.34 c 1.37,0 2.33,0.94 2.74,1.96 0.15,0.38 0.21,0.93 0.21,1.32 0,1.66 -2.65,2.34 -2.65,3.46 0,0.45 0.62,0.79 1.07,0.79 1.07,0 0.43,-0.77 1.23,-0.77 0.37,0 0.54,0.3 0.54,0.54 z" id="path7560" /><path style="fill:#000000;stroke-width:0" d="m 233,480.64 -0.23,0.64 c -0.15,0.39 -0.37,0.88 -0.89,1.16 l -1.56,-0.39 0.03,-0.21 c 0.12,0.05 0.3,0.07 0.45,0.07 0.65,0 0.96,-0.48 1.16,-1.05 l 0.39,-1.09 -0.77,-1.19 c -0.38,-0.58 -0.68,-0.7 -0.83,-0.7 -0.29,0 -0.24,0.24 -0.55,0.24 -0.3,0 -0.45,-0.25 -0.45,-0.44 0,-0.26 0.19,-0.55 0.61,-0.55 0.67,0 1.01,0.51 1.39,1.08 l 0.74,1.16 0.48,-1.33 c 0.15,-0.43 0.38,-0.91 0.86,-0.91 0.69,0 1.22,1.13 1.37,1.31 l -0.17,0.12 c -0.25,-0.51 -0.53,-0.68 -0.72,-0.68 -0.54,0 -0.81,1.6 -1.16,2.33 l 0.65,1 c 0.16,0.26 0.29,0.45 0.65,0.45 0.2,0 0.26,-0.1 0.52,-0.1 0.31,0 0.46,0.27 0.46,0.49 0,0.25 -0.2,0.39 -0.58,0.39 -0.59,0 -1,-0.52 -1.31,-0.99 z" id="path7562" /></g>    <path id="path7598" d="m 177.14286,201.6479 10,0" style="fill:none;fill-rule:evenodd;stroke:#000000;stroke-width:1px;stroke-linecap:butt;stroke-linejoin:miter;stroke-opacity:1;marker-end:url(#marker7600)" />
    <path id="path7598-9" d="m 208.81215,201.6479 -10,0" style="fill:none;fill-rule:evenodd;stroke:#000000;stroke-width:1px;stroke-linecap:butt;stroke-linejoin:miter;stroke-opacity:1;marker-end:url(#marker7600-6)" />
  </g>
</svg>