<?xml version='1.0' ?><svg xmlns:ns0="http://www.iki.fi/pav/software/textext/" xmlns:dc="http://purl.org/dc/elements/1.1/" xmlns:cc="http://creativecommons.org/ns#" xmlns:rdf="http://www.w3.org/1999/02/22-rdf-syntax-ns#" xmlns:svg="http://www.w3.org/2000/svg" xmlns="http://www.w3.org/2000/svg" id="svg2" version="1.1" width="372.52258" height="262.0546" viewBox="0.0 2.38127635986622 607.000003264214 427.0000037458193" preserveAspectRatio="none">
  <metadata id="metadata99">
    <rdf:RDF>
      <cc:Work rdf:about="">
        <dc:format>image/svg+xml</dc:format>
        <dc:type rdf:resource="http://purl.org/dc/dcmitype/StillImage" />
      </cc:Work>
    </rdf:RDF>
  </metadata>
  <defs id="defs97" />
  <title id="title4" />
  <g stroke-linejoin="miter" stroke-dashoffset="0.0000" stroke-dasharray="none" stroke-width="1.0000" stroke-miterlimit="10.000" stroke-linecap="square" id="g6">
    <clipPath id="clip1">
      <path d="M 0.0000 0.0000 L 0.0000 429.00 L 609.00 429.00 L 609.00 0.0000 z" id="path9" />
    </clipPath>
    <g clip-path="url(#clip1)" id="g11">
      <g stroke-width="2.0000" stroke-linecap="butt" fill="none" stroke-opacity="1.0000" stroke="#000000" id="g13">
        <path d="M 298.81 3.0000 L 298.81 429.00" id="path15" />
      </g>
    </g>
    <clipPath id="clip2">
      <path d="M 0.0000 0.0000 L 0.0000 429.00 L 609.00 429.00 L 609.00 0.0000 z" id="path18" />
    </clipPath>
    <g clip-path="url(#clip2)" id="g20">
      <g fill-opacity="1.0000" fill-rule="evenodd" stroke="none" fill="#000000" id="g22">
        <path d="M 298.81 2.0000 L 293.81 22.000 L 303.81 22.000" id="path24" />
      </g>
    </g>
    <clipPath id="clip3">
      <path d="M 0.0000 0.0000 L 0.0000 429.00 L 609.00 429.00 L 609.00 0.0000 z" id="path27" />
    </clipPath>
    <g clip-path="url(#clip3)" id="g29">
      <g stroke-width="2.0000" stroke-linecap="butt" fill="none" stroke-opacity="1.0000" stroke="#000000" id="g31">
        <path d="M 0.0000 219.28 L 606.00 219.28" id="path33" />
      </g>
    </g>
    <clipPath id="clip4">
      <path d="M 0.0000 0.0000 L 0.0000 429.00 L 609.00 429.00 L 609.00 0.0000 z" id="path36" />
    </clipPath>
    <g clip-path="url(#clip4)" id="g38">
      <g fill-opacity="1.0000" fill-rule="evenodd" stroke="none" fill="#000000" id="g40">
        <path d="M 607.00 219.28 L 587.00 214.28 L 587.00 224.28" id="path42" />
      </g>
    </g>
    <clipPath id="clip5">
      <path d="M 0.0000 0.0000 L 0.0000 429.00 L 609.00 429.00 L 609.00 0.0000 z" id="path45" />
    </clipPath>
    <g clip-path="url(#clip5)" id="g47">
      <g stroke-width="2.0000" stroke-linecap="butt" fill="none" stroke-opacity="1.0000" stroke="#000000" id="g49">
        <path d="M 55.412 219.28 L 55.412 222.28" id="path51" />
      </g>
    </g>
    <clipPath id="clip6">
      <path d="M 0.0000 0.0000 L 0.0000 429.00 L 609.00 429.00 L 609.00 0.0000 z" id="path54" />
    </clipPath>
    <g clip-path="url(#clip6)" id="g56">
      <g stroke-width="2.0000" stroke-linecap="butt" fill="none" stroke-opacity="1.0000" stroke="#000000" id="g58">
        <path d="M 542.21 219.28 L 542.21 222.28" id="path60" />
      </g>
    </g>
    <clipPath id="clip7">
      <path d="M 0.0000 0.0000 L 0.0000 429.00 L 609.00 429.00 L 609.00 0.0000 z" id="path63" />
    </clipPath>
    <g clip-path="url(#clip7)" id="g65">
      <g stroke-width="2.0000" stroke-linecap="butt" fill="none" stroke-opacity="1.0000" stroke="#000000" id="g67">
        <path d="M 295.81 366.03 L 298.81 366.03" id="path69" />
      </g>
    </g>
    <clipPath id="clip8">
      <path d="M 0.0000 0.0000 L 0.0000 429.00 L 609.00 429.00 L 609.00 0.0000 z" id="path72" />
    </clipPath>
    <g clip-path="url(#clip8)" id="g74">
      <g stroke-width="2.0000" stroke-linecap="butt" fill="none" stroke-opacity="1.0000" stroke="#000000" id="g76">
        <path d="M 295.81 72.530 L 298.81 72.530" id="path78" />
      </g>
    </g>
    <g id="misc" />
    <g id="layer0">
      <clipPath id="clip9">
        <path d="M 0.0000 0.0000 L 0.0000 429.00 L 609.00 429.00 L 609.00 0.0000 z" id="path83" />
      </clipPath>
      <g clip-path="url(#clip9)" id="g85">
        <g stroke-linejoin="round" stroke-width="3.5000" stroke-linecap="round" fill="none" stroke-opacity="1.0000" stroke="#000000" id="g87">
          <path d="M 542.21 219.28 C 542.21 300.32 433.24 366.03 298.81 366.03 C 164.39 366.03 55.412 300.32 55.412 219.28 C 55.412 138.23 164.39 72.530 298.81 72.530 C 433.24 72.530 542.21 138.23 542.21 219.28 z" id="path89" />
          <title id="title91">Circle c</title>
          <desc id="desc93">c: xÃ&#131;Â&#130;Ã&#130;Â² + yÃ&#131;Â&#130;Ã&#130;Â² = 4</desc>
        </g>
      </g>
    </g>
  </g>
  <g id="content" transform="matrix(2.205712,0,0,-2.205712,93.196645,1292.0746)" xml:space="preserve" stroke-miterlimit="10.433" font-style="normal" font-variant="normal" font-weight="normal" font-stretch="normal" font-size-adjust="none" letter-spacing="normal" word-spacing="normal" ns0:text="$x$" ns0:preamble="/Users/ABaker/cmep/Inkscape/underground-inkscape-preamble.tex" style="font-style:normal;font-variant:normal;font-weight:normal;font-stretch:normal;letter-spacing:normal;word-spacing:normal;text-anchor:start;fill:none;fill-opacity:1;fill-rule:evenodd;stroke:#000000;stroke-linecap:butt;stroke-linejoin:miter;stroke-miterlimit:10.43299961;stroke-dasharray:none;stroke-dashoffset:0;stroke-opacity:1"><path d="m 227.03,480.64 -0.23,0.64 c -0.15,0.39 -0.37,0.88 -0.89,1.16 l -1.56,-0.39 0.04,-0.21 c 0.12,0.05 0.29,0.07 0.45,0.07 0.65,0 0.95,-0.48 1.15,-1.05 l 0.39,-1.09 -0.76,-1.19 c -0.38,-0.58 -0.69,-0.7 -0.83,-0.7 -0.3,0 -0.25,0.24 -0.55,0.24 -0.3,0 -0.45,-0.25 -0.45,-0.44 0,-0.26 0.19,-0.55 0.61,-0.55 0.66,0 1,0.51 1.38,1.08 l 0.74,1.16 0.48,-1.33 c 0.15,-0.43 0.38,-0.91 0.86,-0.91 0.68,0 1.21,1.13 1.36,1.31 l -0.17,0.12 c -0.25,-0.51 -0.53,-0.68 -0.72,-0.68 -0.53,0 -0.8,1.6 -1.15,2.33 l 0.64,1 c 0.17,0.26 0.3,0.45 0.65,0.45 0.2,0 0.26,-0.1 0.52,-0.1 0.31,0 0.46,0.27 0.46,0.49 0,0.25 -0.2,0.39 -0.57,0.39 -0.6,0 -1.01,-0.52 -1.32,-0.99 z" id="path3483" style="fill:#000000;stroke-width:0" /></g>  <g ns0:preamble="/Users/ABaker/cmep/Inkscape/underground-inkscape-preamble.tex" ns0:text="$y$" word-spacing="normal" letter-spacing="normal" font-size-adjust="none" font-stretch="normal" font-weight="normal" font-variant="normal" font-style="normal" stroke-miterlimit="10.433" xml:space="preserve" transform="matrix(2.1872038,0,0,-2.1872038,-212.98115,1065.0253)" id="g3597" style="font-style:normal;font-variant:normal;font-weight:normal;font-stretch:normal;letter-spacing:normal;word-spacing:normal;text-anchor:start;fill:none;fill-opacity:1;fill-rule:evenodd;stroke:#000000;stroke-linecap:butt;stroke-linejoin:miter;stroke-miterlimit:10.43299961;stroke-dasharray:none;stroke-dashoffset:0;stroke-opacity:1"><path id="path3599" d="m 226.62,480.86 -0.01,0.08 -0.01,0.08 -0.01,0.07 -0.01,0.07 -0.01,0.07 -0.01,0.07 -0.01,0.06 -0.01,0.06 -0.01,0.06 -0.01,0.05 -0.01,0.06 -0.01,0.05 -0.01,0.05 -0.01,0.04 -0.02,0.05 -0.01,0.05 -0.01,0.04 -0.02,0.04 -0.01,0.04 -0.01,0.04 -0.04,0.08 -0.03,0.07 -0.04,0.08 -0.04,0.07 -0.04,0.07 -0.05,0.07 -1.77,-0.3 0.02,-0.18 c 0.11,0.01 0.3,0.04 0.43,0.04 0.66,0 0.76,-0.71 0.82,-1.24 l 0.45,-3.7 c -0.31,-0.48 -0.98,-1.21 -1.18,-1.21 -0.19,0 -0.16,0.37 -0.67,0.37 -0.16,0 -0.47,-0.13 -0.47,-0.49 0,-0.28 0.22,-0.64 0.66,-0.64 0.8,0 1.57,1.15 2.43,2.24 0.5,0.62 2.41,3.46 2.41,4.38 0,0.46 -0.3,0.73 -0.67,0.73 -0.35,0 -0.56,-0.21 -0.56,-0.47 0,-0.45 0.61,-0.57 0.61,-0.82 0,-0.21 -0.09,-0.45 -0.33,-0.88 -0.26,-0.49 -0.67,-1.19 -1.39,-2.18 z" style="fill:#000000;stroke-width:0" /></g>  <g style="font-style:normal;font-variant:normal;font-weight:normal;font-stretch:normal;letter-spacing:normal;word-spacing:normal;text-anchor:start;fill:none;fill-opacity:1;fill-rule:evenodd;stroke:#000000;stroke-linecap:butt;stroke-linejoin:miter;stroke-miterlimit:10.43299961;stroke-dasharray:none;stroke-dashoffset:0;stroke-opacity:1" id="g3861" transform="matrix(2.6283124,0,0,-2.6283124,-579.81311,1325.8599)" xml:space="preserve" stroke-miterlimit="10.433" font-style="normal" font-variant="normal" font-weight="normal" font-stretch="normal" font-size-adjust="none" letter-spacing="normal" word-spacing="normal" ns0:text="$9x^2+16y^2=144$" ns0:preamble="/Users/ABaker/cmep/Inkscape/underground-inkscape-preamble.tex"><path style="fill:#000000;stroke-width:0" d="m 224.13,476.95 0.14,0.02 0.14,0.02 0.13,0.02 0.13,0.02 0.13,0.02 0.12,0.03 0.12,0.02 0.11,0.03 0.11,0.02 0.11,0.03 0.11,0.03 0.1,0.03 0.11,0.04 0.1,0.03 0.19,0.08 0.19,0.08 0.18,0.09 0.18,0.11 0.09,0.05 0.09,0.06 0.09,0.06 0.09,0.06 0.09,0.07 0.09,0.07 0.09,0.07 0.09,0.08 0.09,0.08 0.09,0.08 c 0.95,0.86 1.42,2.15 1.42,3.51 0,0.99 -0.28,1.84 -0.75,2.43 -0.47,0.57 -1.1,0.9 -1.86,0.9 l -0.09,-0.33 c 1.03,0 1.56,-1.02 1.56,-3 l 0,-0.46 c 0,-0.63 -0.87,-0.89 -1.39,-0.89 -0.88,0 -1.45,0.89 -1.45,2.29 0,0.64 0.18,1.34 0.42,1.65 0.2,0.26 0.5,0.41 0.86,0.41 l 0.09,0.33 c -1.4,0 -2.45,-1.2 -2.45,-2.79 0,-1.44 0.85,-2.4 2.12,-2.4 0.7,0 1.27,0.18 1.77,0.68 -0.47,-1.94 -1.79,-3.18 -3.59,-3.5 z" id="path3863" /><path style="fill:#000000;stroke-width:0" d="m 232.96,480.61 -0.24,0.65 c -0.14,0.38 -0.37,0.87 -0.88,1.15 l -1.56,-0.39 0.03,-0.21 c 0.12,0.05 0.3,0.07 0.45,0.07 0.65,0 0.96,-0.48 1.16,-1.05 l 0.39,-1.09 -0.77,-1.19 c -0.38,-0.58 -0.69,-0.69 -0.83,-0.69 -0.29,0 -0.24,0.23 -0.55,0.23 -0.3,0 -0.45,-0.25 -0.45,-0.44 0,-0.26 0.19,-0.55 0.61,-0.55 0.67,0 1.01,0.51 1.39,1.09 l 0.74,1.15 0.47,-1.33 c 0.15,-0.43 0.38,-0.91 0.86,-0.91 0.69,0 1.22,1.13 1.36,1.31 l -0.16,0.12 c -0.25,-0.51 -0.54,-0.67 -0.72,-0.67 -0.54,0 -0.81,1.59 -1.16,2.32 l 0.65,1 c 0.16,0.26 0.29,0.45 0.65,0.45 0.2,0 0.26,-0.1 0.52,-0.1 0.3,0 0.46,0.27 0.46,0.49 0,0.25 -0.2,0.39 -0.58,0.39 -0.59,0 -1.01,-0.52 -1.31,-0.99 z" id="path3865" /><path style="fill:#000000;stroke-width:0" d="m 240.08,482.4 -0.12,0.06 c -0.3,-0.5 -0.48,-0.6 -0.86,-0.6 l -2.07,0 1.46,1.56 c 0.79,0.84 1.14,1.5 1.14,2.2 0,0.88 -0.64,1.56 -1.64,1.56 -1.1,0 -1.67,-0.72 -1.85,-1.76 l 0.18,-0.04 c 0.36,0.86 0.67,1.15 1.31,1.15 0.75,0 1.23,-0.45 1.23,-1.25 0,-0.76 -0.32,-1.43 -1.15,-2.31 l -1.58,-1.67 0,-0.11 3.47,0 z" id="path3867" /><polygon style="fill:#000000;stroke-width:0" points="250.45,480.58 247.37,480.58 247.37,483.66 246.59,483.66 246.59,480.58 243.51,480.58 243.51,479.8 246.59,479.8 246.59,476.72 247.37,476.72 247.37,479.8 250.45,479.8 " id="polygon3869" /><path style="fill:#000000;stroke-width:0" d="m 257.91,477.21 0,0.17 c -0.89,0 -1.12,0.22 -1.12,0.72 l 0,7.05 -0.11,0.04 -2.11,-1.08 0,-0.16 0.32,0.12 c 0.21,0.08 0.41,0.14 0.53,0.14 0.25,0 0.35,-0.18 0.35,-0.58 l 0,-5.3 c 0,-0.65 -0.25,-0.9 -1.12,-0.95 l 0,-0.17 z" id="path3871" /><path style="fill:#000000;stroke-width:0" d="m 264.45,485.28 -0.15,-0.02 -0.15,-0.01 -0.14,-0.02 -0.14,-0.02 -0.14,-0.02 -0.13,-0.02 -0.13,-0.03 -0.13,-0.02 -0.12,-0.03 -0.12,-0.03 -0.12,-0.03 -0.11,-0.03 -0.12,-0.03 -0.11,-0.04 -0.11,-0.04 -0.1,-0.04 -0.11,-0.04 -0.1,-0.05 -0.1,-0.05 -0.1,-0.05 -0.1,-0.05 -0.1,-0.06 -0.1,-0.07 -0.09,-0.06 -0.1,-0.07 -0.09,-0.07 -0.1,-0.08 -0.09,-0.08 -0.1,-0.08 -0.09,-0.09 -0.1,-0.09 -0.09,-0.1 c -0.84,-0.86 -1.29,-1.99 -1.29,-3.26 0,-0.83 0.23,-1.67 0.56,-2.27 0.41,-0.75 1.16,-1.19 2.09,-1.19 l 0.13,0.33 c -1.11,0 -1.68,1.18 -1.68,2.98 0,1.08 0.7,1.37 1.37,1.37 1.1,0 1.59,-0.78 1.59,-2.29 l 0,0 c 0,-1.21 -0.43,-2.06 -1.28,-2.06 l -0.13,-0.33 c 0.78,0 1.44,0.32 1.88,0.86 0.38,0.48 0.6,1.14 0.6,1.89 0,1.52 -0.85,2.47 -2.23,2.47 -0.52,0 -0.93,-0.08 -1.5,-0.53 0.32,1.78 1.64,3.06 3.49,3.36 z" id="path3873" /><path style="fill:#000000;stroke-width:0" d="m 268.29,480.83 -0.01,0.08 -0.01,0.08 -0.01,0.07 -0.01,0.07 -0.01,0.07 -0.01,0.07 -0.01,0.06 -0.01,0.06 -0.01,0.06 -0.01,0.05 -0.01,0.06 -0.01,0.05 -0.01,0.05 -0.01,0.05 -0.01,0.04 -0.02,0.05 -0.01,0.04 -0.01,0.04 -0.02,0.04 -0.01,0.04 -0.03,0.08 -0.04,0.07 -0.03,0.08 -0.04,0.07 -0.05,0.07 -0.05,0.07 -1.77,-0.29 0.02,-0.19 c 0.11,0.01 0.3,0.04 0.43,0.04 0.66,0 0.77,-0.7 0.83,-1.24 l 0.45,-3.7 c -0.31,-0.47 -0.98,-1.21 -1.18,-1.21 -0.19,0 -0.17,0.37 -0.68,0.37 -0.15,0 -0.47,-0.13 -0.47,-0.48 0,-0.29 0.22,-0.65 0.66,-0.65 0.8,0 1.57,1.15 2.43,2.24 0.5,0.62 2.41,3.46 2.41,4.38 0,0.46 -0.29,0.73 -0.67,0.73 -0.34,0 -0.56,-0.21 -0.56,-0.47 0,-0.45 0.62,-0.57 0.62,-0.82 0,-0.21 -0.1,-0.44 -0.33,-0.88 -0.26,-0.49 -0.68,-1.19 -1.4,-2.17 z" id="path3875" /><path style="fill:#000000;stroke-width:0" d="m 275.2,482.4 -0.12,0.06 c -0.3,-0.5 -0.48,-0.6 -0.86,-0.6 l -2.07,0 1.46,1.56 c 0.79,0.84 1.14,1.5 1.14,2.2 0,0.88 -0.64,1.56 -1.64,1.56 -1.1,0 -1.66,-0.72 -1.85,-1.76 l 0.19,-0.04 c 0.35,0.86 0.66,1.15 1.3,1.15 0.75,0 1.23,-0.45 1.23,-1.25 0,-0.76 -0.32,-1.43 -1.15,-2.31 l -1.58,-1.67 0,-0.11 3.47,0 z" id="path3877" /><polygon style="fill:#000000;stroke-width:0" points="286.13,481.76 279.18,481.76 279.18,480.98 286.13,480.98 " id="polygon3879" /><polygon style="fill:#000000;stroke-width:0" points="286.13,479.4 279.18,479.4 279.18,478.62 286.13,478.62 " id="polygon3881" /><path style="fill:#000000;stroke-width:0" d="m 294.14,477.21 0,0.17 c -0.89,0 -1.12,0.22 -1.12,0.72 l 0,7.05 -0.11,0.04 -2.11,-1.08 0,-0.16 0.32,0.12 c 0.21,0.08 0.41,0.14 0.53,0.14 0.25,0 0.35,-0.18 0.35,-0.58 l 0,-5.3 c 0,-0.65 -0.25,-0.9 -1.12,-0.95 l 0,-0.17 z" id="path3883" /><polygon style="fill:#000000;stroke-width:0" points="298.86,477.21 299.78,477.21 299.78,479.18 301,479.18 301,479.93 299.78,479.93 299.78,485.19 299.26,485.19 295.55,479.93 296.02,479.93 298.86,483.98 298.86,479.93 296.02,479.93 295.55,479.93 295.55,479.18 298.86,479.18 " id="polygon3885" /><polygon style="fill:#000000;stroke-width:0" points="304.78,477.21 305.7,477.21 305.7,479.18 306.92,479.18 306.92,479.93 305.7,479.93 305.7,485.19 305.18,485.19 301.48,479.93 301.95,479.93 304.78,483.98 304.78,479.93 301.95,479.93 301.48,479.93 301.48,479.18 304.78,479.18 " id="polygon3887" /></g></svg>