<?xml version='1.0' ?><svg xmlns:ns0="http://www.iki.fi/pav/software/textext/" xmlns:dc="http://purl.org/dc/elements/1.1/" xmlns:cc="http://creativecommons.org/ns#" xmlns:rdf="http://www.w3.org/1999/02/22-rdf-syntax-ns#" xmlns:svg="http://www.w3.org/2000/svg" xmlns="http://www.w3.org/2000/svg" id="svg2" version="1.1" width="374.19594" height="333.79056" viewBox="0.0 -0.31304974156521737 481.5739053913043 429.5739380869565" preserveAspectRatio="none">
  <metadata id="metadata255">
    <rdf:RDF>
      <cc:Work rdf:about="">
        <dc:format>image/svg+xml</dc:format>
        <dc:type rdf:resource="http://purl.org/dc/dcmitype/StillImage" />
      </cc:Work>
    </rdf:RDF>
  </metadata>
  <defs id="defs253" />
  <title id="title4" />
  <g stroke-linejoin="miter" stroke-dashoffset="0.0000" stroke-dasharray="none" stroke-width="1.0000" stroke-miterlimit="10.000" stroke-linecap="square" id="g6">
    <clipPath id="clip1">
      <path d="M 0.0000 0.0000 L 0.0000 429.00 L 481.00 429.00 L 481.00 0.0000 z" id="path9" />
    </clipPath>
    <g clip-path="url(#clip1)" id="g11">
      <g stroke-width="2.0000" stroke-linecap="butt" fill="none" stroke-opacity="1.0000" stroke="#000000" id="g13">
        <path d="M 222.81 3.0000 L 222.81 429.00" id="path15" />
      </g>
    </g>
    <clipPath id="clip2">
      <path d="M 0.0000 0.0000 L 0.0000 429.00 L 481.00 429.00 L 481.00 0.0000 z" id="path18" />
    </clipPath>
    <g transform="translate(0,-2.5739129)" clip-path="url(#clip2)" id="g20">
      <g style="fill:#000000;fill-opacity:1;fill-rule:evenodd;stroke:none" id="g22">
        <path d="m 222.81,2 -5,20 10,0" id="path24" />
      </g>
    </g>
    <clipPath id="clip3">
      <path d="M 0.0000 0.0000 L 0.0000 429.00 L 481.00 429.00 L 481.00 0.0000 z" id="path27" />
    </clipPath>
    <g clip-path="url(#clip3)" id="g29">
      <g stroke-width="2.0000" stroke-linecap="butt" fill="none" stroke-opacity="1.0000" stroke="#000000" id="g31">
        <path d="M 0.0000 233.28 L 478.00 233.28" id="path33" />
      </g>
    </g>
    <clipPath id="clip4">
      <path d="M 0.0000 0.0000 L 0.0000 429.00 L 481.00 429.00 L 481.00 0.0000 z" id="path36" />
    </clipPath>
    <g transform="translate(2.5739131,0)" clip-path="url(#clip4)" id="g38">
      <g style="fill:#000000;fill-opacity:1;fill-rule:evenodd;stroke:none" id="g40">
        <path d="m 479,233.28 -20,-5 0,10" id="path42" />
      </g>
    </g>
    <clipPath id="clip5">
      <path d="M 0.0000 0.0000 L 0.0000 429.00 L 481.00 429.00 L 481.00 0.0000 z" id="path45" />
    </clipPath>
    <g clip-path="url(#clip5)" id="g47">
      <g stroke-width="2.0000" stroke-linecap="butt" fill="none" stroke-opacity="1.0000" stroke="#000000" id="g49">
        <path d="M 48.880 233.28 L 48.880 236.28" id="path51" />
      </g>
    </g>
    <clipPath id="clip6">
      <path d="M 0.0000 0.0000 L 0.0000 429.00 L 481.00 429.00 L 481.00 0.0000 z" id="path54" />
    </clipPath>
    <g clip-path="url(#clip6)" id="g56">
      <g stroke-width="2.0000" stroke-linecap="butt" fill="none" stroke-opacity="1.0000" stroke="#000000" id="g58">
        <path d="M 396.74 233.28 L 396.74 236.28" id="path60" />
      </g>
    </g>
    <clipPath id="clip7">
      <path d="M 0.0000 0.0000 L 0.0000 429.00 L 481.00 429.00 L 481.00 0.0000 z" id="path63" />
    </clipPath>
    <g clip-path="url(#clip7)" id="g65">
      <g stroke-width="2.0000" stroke-linecap="butt" fill="none" stroke-opacity="1.0000" stroke="#000000" id="g67">
        <path d="M 219.81 407.21 L 222.81 407.21" id="path69" />
      </g>
    </g>
    <clipPath id="clip8">
      <path d="M 0.0000 0.0000 L 0.0000 429.00 L 481.00 429.00 L 481.00 0.0000 z" id="path72" />
    </clipPath>
    <g clip-path="url(#clip8)" id="g74">
      <g stroke-width="2.0000" stroke-linecap="butt" fill="none" stroke-opacity="1.0000" stroke="#000000" id="g76">
        <path d="M 219.81 59.346 L 222.81 59.346" id="path78" />
      </g>
    </g>
    <g id="misc" />
    <g id="layer0">
      <clipPath id="clip9">
        <path d="M 0.0000 0.0000 L 0.0000 429.00 L 481.00 429.00 L 481.00 0.0000 z" id="path83" />
      </clipPath>
      <g clip-path="url(#clip9)" id="g85">
        <g stroke-linejoin="round" stroke-width="3.5000" stroke-linecap="round" fill="none" stroke-opacity="1.0000" stroke="#000000" id="g87">
          <path d="M 396.74 233.28 C 396.74 329.34 318.87 407.21 222.81 407.21 C 126.75 407.21 48.880 329.34 48.880 233.28 C 48.880 137.22 126.75 59.346 222.81 59.346 C 318.87 59.346 396.74 137.22 396.74 233.28 z" id="path89" />
          <title id="title91">Circle c</title>
          <desc id="desc93">c: xÃ&#131;Â&#130;Ã&#130;Â² + yÃ&#131;Â&#130;Ã&#130;Â² = 4</desc>
        </g>
      </g>
      <clipPath id="clip10">
        <path d="M 0.0000 0.0000 L 0.0000 429.00 L 481.00 429.00 L 481.00 0.0000 z" id="path96" />
      </clipPath>
      <g clip-path="url(#clip10)" id="g98">
        <g fill-opacity=".098039" fill-rule="evenodd" stroke="none" fill="#006400" id="g100">
          <path d="M 345.80 110.29 L 330.80 125.29 L 345.80 140.29 L 360.80 125.29 L 345.80 110.29" id="path102" />
          <title id="title104">Angle Ã&#131;Â&#142;Ã&#130;Â±</title>
          <desc id="desc106">Angle Ã&#131;Â&#142;Ã&#130;Â±: Angle between h, g</desc>
        </g>
      </g>
      <clipPath id="clip11">
        <path d="M 0.0000 0.0000 L 0.0000 429.00 L 481.00 429.00 L 481.00 0.0000 z" id="path109" />
      </clipPath>
      <g clip-path="url(#clip11)" id="g111">
        <g stroke-linejoin="round" stroke-linecap="round" fill="none" stroke-opacity="1.0000" stroke="#006400" id="g113">
          <path d="M 345.80 110.29 L 330.80 125.29 L 345.80 140.29 L 360.80 125.29 L 345.80 110.29" id="path115" />
          <title id="title117">Angle Ã&#131;Â&#142;Ã&#130;Â±</title>
          <desc id="desc119">Angle Ã&#131;Â&#142;Ã&#130;Â±: Angle between h, g</desc>
        </g>
      </g>
      <clipPath id="clip12">
        <path d="M 0.0000 0.0000 L 0.0000 429.00 L 481.00 429.00 L 481.00 0.0000 z" id="path122" />
      </clipPath>
      <g clip-path="url(#clip12)" id="g124">
        <g stroke-linejoin="round" stroke-dasharray="12.500,8.0000" stroke-width="4.5000" stroke-linecap="butt" fill="none" stroke-opacity="1.0000" stroke="#000000" id="g126">
          <path d="M 22.090 434.00 L 461.09 -5.0000" id="path128" />
          <title id="title130">Line f</title>
          <desc id="desc132">f: y = x</desc>
        </g>
      </g>
      <clipPath id="clip13">
        <path d="M 0.0000 0.0000 L 0.0000 429.00 L 481.00 429.00 L 481.00 0.0000 z" id="path135" />
      </clipPath>
      <g clip-path="url(#clip13)" id="g137">
        <g stroke-linejoin="round" stroke-dasharray="12.500,8.0000" stroke-width="4.5000" stroke-linecap="butt" fill="none" stroke-opacity="1.0000" stroke="#000000" id="g139">
          <path d="M 486.00 250.49 L 230.51 -5.0000" id="path141" />
          <title id="title143">Line g</title>
          <desc id="desc145">g: x + y = 2.83</desc>
        </g>
      </g>
      <clipPath id="clip14">
        <path d="M 0.0000 0.0000 L 0.0000 429.00 L 481.00 429.00 L 481.00 0.0000 z" id="path148" />
      </clipPath>
      <g clip-path="url(#clip14)" id="g150">
        <g fill-opacity="1.0000" fill-rule="nonzero" stroke="none" fill="#0000ff" id="g152">
          <path d="M 350.80 110.29 C 350.80 113.05 348.56 115.29 345.80 115.29 C 343.04 115.29 340.80 113.05 340.80 110.29 C 340.80 107.53 343.04 105.29 345.80 105.29 C 348.56 105.29 350.80 107.53 350.80 110.29 z" id="path154" />
          <title id="title156">Point A</title>
          <desc id="desc158">A = (1.41, 1.41)</desc>
        </g>
      </g>
      <clipPath id="clip15">
        <path d="M 0.0000 0.0000 L 0.0000 429.00 L 481.00 429.00 L 481.00 0.0000 z" id="path161" />
      </clipPath>
      <g clip-path="url(#clip15)" id="g163">
        <g stroke-linejoin="round" stroke-linecap="round" fill="none" stroke-opacity="1.0000" stroke="#000000" id="g165">
          <path d="M 350.80 110.29 C 350.80 113.05 348.56 115.29 345.80 115.29 C 343.04 115.29 340.80 113.05 340.80 110.29 C 340.80 107.53 343.04 105.29 345.80 105.29 C 348.56 105.29 350.80 107.53 350.80 110.29 z" id="path167" />
          <title id="title169">Point A</title>
          <desc id="desc171">A = (1.41, 1.41)</desc>
        </g>
      </g>
      <clipPath id="clip16">
        <path d="M 0.0000 0.0000 L 0.0000 429.00 L 481.00 429.00 L 481.00 0.0000 z" id="path174" />
      </clipPath>
      <g clip-path="url(#clip16)" id="g176">
        <g fill-opacity="1.0000" fill-rule="nonzero" stroke="none" fill="#0000ff" id="g178">
          <path d="M 77.182 146.31 C 77.182 149.07 74.944 151.31 72.182 151.31 C 69.421 151.31 67.182 149.07 67.182 146.31 C 67.182 143.55 69.421 141.31 72.182 141.31 C 74.944 141.31 77.182 143.55 77.182 146.31 z" id="path180" />
          <title id="title182">Point B</title>
          <desc id="desc184">B = (-1.73, 1)</desc>
        </g>
      </g>
      <clipPath id="clip17">
        <path d="M 0.0000 0.0000 L 0.0000 429.00 L 481.00 429.00 L 481.00 0.0000 z" id="path187" />
      </clipPath>
      <g clip-path="url(#clip17)" id="g189">
        <g stroke-linejoin="round" stroke-linecap="round" fill="none" stroke-opacity="1.0000" stroke="#000000" id="g191">
          <path d="M 77.182 146.31 C 77.182 149.07 74.944 151.31 72.182 151.31 C 69.421 151.31 67.182 149.07 67.182 146.31 C 67.182 143.55 69.421 141.31 72.182 141.31 C 74.944 141.31 77.182 143.55 77.182 146.31 z" id="path193" />
          <title id="title195">Point B</title>
          <desc id="desc197">B = (-1.73, 1)</desc>
        </g>
      </g>
      <clipPath id="clip18">
        <path d="M 0.0000 0.0000 L 0.0000 429.00 L 481.00 429.00 L 481.00 0.0000 z" id="path200" />
      </clipPath>
      <g clip-path="url(#clip18)" id="g202">
        <g fill-opacity="1.0000" fill-rule="nonzero" stroke="none" fill="#0000ff" id="g204">
          <path d="M 271.29 401.69 C 271.29 404.45 269.06 406.69 266.29 406.69 C 263.53 406.69 261.29 404.45 261.29 401.69 C 261.29 398.93 263.53 396.69 266.29 396.69 C 269.06 396.69 271.29 398.93 271.29 401.69 z" id="path206" />
          <title id="title208">Point C</title>
          <desc id="desc210">C = (0.5, -1.94)</desc>
        </g>
      </g>
      <clipPath id="clip19">
        <path d="M 0.0000 0.0000 L 0.0000 429.00 L 481.00 429.00 L 481.00 0.0000 z" id="path213" />
      </clipPath>
      <g clip-path="url(#clip19)" id="g215">
        <g stroke-linejoin="round" stroke-linecap="round" fill="none" stroke-opacity="1.0000" stroke="#000000" id="g217">
          <path d="M 271.29 401.69 C 271.29 404.45 269.06 406.69 266.29 406.69 C 263.53 406.69 261.29 404.45 261.29 401.69 C 261.29 398.93 263.53 396.69 266.29 396.69 C 269.06 396.69 271.29 398.93 271.29 401.69 z" id="path219" />
          <title id="title221">Point C</title>
          <desc id="desc223">C = (0.5, -1.94)</desc>
        </g>
      </g>
      <clipPath id="clip20">
        <path d="M 0.0000 0.0000 L 0.0000 429.00 L 481.00 429.00 L 481.00 0.0000 z" id="path226" />
      </clipPath>
      <g clip-path="url(#clip20)" id="g228">
        <g fill-opacity="1.0000" fill-rule="nonzero" stroke="none" fill="#444444" id="g230">
          <path d="M 225.81 233.28 C 225.81 234.93 224.47 236.28 222.81 236.28 C 221.15 236.28 219.81 234.93 219.81 233.28 C 219.81 231.62 221.15 230.28 222.81 230.28 C 224.47 230.28 225.81 231.62 225.81 233.28 z" id="path232" />
          <title id="title234">Point D</title>
          <desc id="desc236">Point D: Intersection point of f, xAxis</desc>
        </g>
      </g>
      <clipPath id="clip21">
        <path d="M 0.0000 0.0000 L 0.0000 429.00 L 481.00 429.00 L 481.00 0.0000 z" id="path239" />
      </clipPath>
      <g clip-path="url(#clip21)" id="g241">
        <g stroke-linejoin="round" stroke-linecap="round" fill="none" stroke-opacity="1.0000" stroke="#000000" id="g243">
          <path d="M 225.81 233.28 C 225.81 234.93 224.47 236.28 222.81 236.28 C 221.15 236.28 219.81 234.93 219.81 233.28 C 219.81 231.62 221.15 230.28 222.81 230.28 C 224.47 230.28 225.81 231.62 225.81 233.28 z" id="path245" />
          <title id="title247">Point D</title>
          <desc id="desc249">Point D: Intersection point of f, xAxis</desc>
        </g>
      </g>
    </g>
  </g>
  <g ns0:preamble="/Users/ABaker/cmep/Inkscape/underground-inkscape-preamble.tex" ns0:text="$y$" word-spacing="normal" letter-spacing="normal" font-size-adjust="none" font-stretch="normal" font-weight="normal" font-variant="normal" font-style="normal" stroke-miterlimit="10.433" xml:space="preserve" transform="matrix(1.725,0,0,-1.725,-184.02352,839.77565)" id="g6048" style="font-style:normal;font-variant:normal;font-weight:normal;font-stretch:normal;letter-spacing:normal;word-spacing:normal;text-anchor:start;fill:none;fill-opacity:1;fill-rule:evenodd;stroke:#000000;stroke-linecap:butt;stroke-linejoin:miter;stroke-miterlimit:10.43299961;stroke-dasharray:none;stroke-dashoffset:0;stroke-opacity:1"><path id="path6050" d="m 226.62,480.86 -0.01,0.08 -0.01,0.08 -0.01,0.07 -0.01,0.07 -0.01,0.07 -0.01,0.07 -0.01,0.06 -0.01,0.06 -0.01,0.06 -0.01,0.05 -0.01,0.06 -0.01,0.05 -0.01,0.05 -0.01,0.04 -0.02,0.05 -0.01,0.05 -0.01,0.04 -0.02,0.04 -0.01,0.04 -0.01,0.04 -0.04,0.08 -0.03,0.07 -0.04,0.08 -0.04,0.07 -0.04,0.07 -0.05,0.07 -1.77,-0.3 0.02,-0.18 c 0.11,0.01 0.3,0.04 0.43,0.04 0.66,0 0.76,-0.71 0.82,-1.24 l 0.45,-3.7 c -0.31,-0.48 -0.98,-1.21 -1.18,-1.21 -0.19,0 -0.16,0.37 -0.67,0.37 -0.16,0 -0.47,-0.13 -0.47,-0.49 0,-0.28 0.22,-0.64 0.66,-0.64 0.8,0 1.57,1.15 2.43,2.24 0.5,0.62 2.41,3.46 2.41,4.38 0,0.46 -0.3,0.73 -0.67,0.73 -0.35,0 -0.56,-0.21 -0.56,-0.47 0,-0.45 0.61,-0.57 0.61,-0.82 0,-0.21 -0.09,-0.45 -0.33,-0.88 -0.26,-0.49 -0.67,-1.19 -1.39,-2.18 z" style="fill:#000000;stroke-width:0" /></g>  <g id="g5762" transform="matrix(1.725,0,0,-1.725,75.424485,1076.546)" xml:space="preserve" stroke-miterlimit="10.433" font-style="normal" font-variant="normal" font-weight="normal" font-stretch="normal" font-size-adjust="none" letter-spacing="normal" word-spacing="normal" ns0:text="$x$" ns0:preamble="/Users/ABaker/cmep/Inkscape/underground-inkscape-preamble.tex" style="font-style:normal;font-variant:normal;font-weight:normal;font-stretch:normal;letter-spacing:normal;word-spacing:normal;text-anchor:start;fill:none;fill-opacity:1;fill-rule:evenodd;stroke:#000000;stroke-linecap:butt;stroke-linejoin:miter;stroke-miterlimit:10.43299961;stroke-dasharray:none;stroke-dashoffset:0;stroke-opacity:1"><path d="m 227.03,480.64 -0.23,0.64 c -0.15,0.39 -0.37,0.88 -0.89,1.16 l -1.56,-0.39 0.04,-0.21 c 0.12,0.05 0.29,0.07 0.45,0.07 0.65,0 0.95,-0.48 1.15,-1.05 l 0.39,-1.09 -0.76,-1.19 c -0.38,-0.58 -0.69,-0.7 -0.83,-0.7 -0.3,0 -0.25,0.24 -0.55,0.24 -0.3,0 -0.45,-0.25 -0.45,-0.44 0,-0.26 0.19,-0.55 0.61,-0.55 0.66,0 1,0.51 1.38,1.08 l 0.74,1.16 0.48,-1.33 c 0.15,-0.43 0.38,-0.91 0.86,-0.91 0.68,0 1.21,1.13 1.36,1.31 l -0.17,0.12 c -0.25,-0.51 -0.53,-0.68 -0.72,-0.68 -0.53,0 -0.8,1.6 -1.15,2.33 l 0.64,1 c 0.17,0.26 0.3,0.45 0.65,0.45 0.2,0 0.26,-0.1 0.52,-0.1 0.31,0 0.46,0.27 0.46,0.49 0,0.25 -0.2,0.39 -0.57,0.39 -0.6,0 -1.01,-0.52 -1.32,-0.99 z" id="path5764" style="fill:#000000;stroke-width:0" /></g>  <g id="content" transform="matrix(1.95,0,0,-1.95,-70.997361,1042.2653)" xml:space="preserve" stroke="black" stroke-linecap="butt" stroke-linejoin="miter" stroke-miterlimit="10.433" stroke-dasharray="none" stroke-dashoffset="0" stroke-opacity="1" fill="none" fill-rule="evenodd" fill-opacity="1" font-style="normal" font-variant="normal" font-weight="normal" font-stretch="normal" font-size-adjust="none" letter-spacing="normal" word-spacing="normal" text-anchor="start" ns0:text="$\\left(\\sqrt{2}, \\sqrt{2}\\right)$" ns0:preamble="/Users/prmb/CMEP/underground-inkscape-preamble.tex" style="font-style:normal;font-variant:normal;font-weight:normal;font-stretch:normal;letter-spacing:normal;word-spacing:normal;text-anchor:start;fill:none;fill-opacity:1;fill-rule:evenodd;stroke:#000000;stroke-linecap:butt;stroke-linejoin:miter;stroke-miterlimit:10.43299961;stroke-dasharray:none;stroke-dashoffset:0;stroke-opacity:1"><path d="M229.37,465.77 L229.07,466.15 L228.78,466.56 L228.63,466.78 L228.49,467 L228.35,467.23 L228.21,467.47 L228.07,467.72 L227.93,467.98 L227.8,468.25 L227.67,468.52 L227.54,468.81 L227.42,469.1 L227.3,469.4 L227.19,469.72 L227.08,470.04 L226.98,470.37 L226.88,470.72 L226.78,471.07 L226.69,471.44 L226.61,471.82 L226.54,472.2 L226.47,472.6 L226.41,473.01 L226.35,473.44 L226.31,473.87 L226.27,474.32 L226.24,474.78 L226.21,475.25 L226.2,475.74 L226.2,476.23 C226.2,481.64,227.79,485.11,229.37,486.74 V487.13 C226.86,485.11,225.07,480.96,225.07,476.23 C225.07,471.41,226.86,467.71,229.37,465.35 Z " stroke-width="0" fill="black" id="path4425" /><path d="M241.78,485.78 H241.14 L236.26,473.19 H236.21 L233.8,479.52 H233.57 L231.73,478.06 L231.88,477.82 C232.13,478.06,232.44,478.19,232.64,478.19 C232.94,478.19,233.17,478.02,233.37,477.49 L235.76,471.23 H236.14 Z " stroke-width="0" fill="black" id="path4427" /><line x1="241.4" y1="485.49" x2="247.33" y2="485.49" stroke-width="0.658" id="line4429" /><path d="M247,475.39 L246.84,475.47 C246.45,474.8,246.2,474.67,245.7,474.67 H242.94 L244.89,476.75 C245.94,477.86,246.4,478.75,246.4,479.68 C246.4,480.85,245.55,481.76,244.21,481.76 C242.76,481.76,242.01,480.79,241.76,479.41 L242.01,479.35 C242.48,480.51,242.89,480.89,243.74,480.89 C244.75,480.89,245.38,480.3,245.38,479.22 C245.38,478.22,244.96,477.32,243.85,476.15 L241.75,473.92 V473.78 H246.36 Z " stroke-width="0" fill="black" id="path4431" /><path d="M248.31,472.11 L248.38,472.15 L248.46,472.19 L248.53,472.23 L248.6,472.28 L248.67,472.32 L248.73,472.37 L248.8,472.42 L248.86,472.47 L248.92,472.52 L248.98,472.57 L249.03,472.62 L249.09,472.68 L249.14,472.74 L249.18,472.8 L249.23,472.85 L249.28,472.91 L249.32,472.98 L249.36,473.04 L249.39,473.1 L249.43,473.16 L249.46,473.23 L249.49,473.29 L249.51,473.36 L249.54,473.42 L249.56,473.49 L249.58,473.56 L249.59,473.62 L249.61,473.69 L249.62,473.76 L249.63,473.82 L249.63,473.89 L249.63,473.95 C249.63,474.57,249.22,474.98,248.69,474.98 C248.26,474.98,247.98,474.71,247.98,474.31 C247.98,473.91,248.23,473.71,248.66,473.71 C248.79,473.71,248.91,473.75,249.01,473.75 C249.1,473.75,249.17,473.68,249.17,473.6 C249.17,473.21,248.84,472.77,248.19,472.34 Z " stroke-width="0" fill="black" id="path4433" /><path d="M263.32,485.78 H262.68 L257.8,473.19 H257.75 L255.34,479.52 H255.12 L253.27,478.06 L253.42,477.82 C253.68,478.06,253.98,478.19,254.18,478.19 C254.48,478.19,254.71,478.02,254.91,477.49 L257.3,471.23 H257.68 Z " stroke-width="0" fill="black" id="path4435" /><line x1="262.95" y1="485.49" x2="268.87" y2="485.49" stroke-width="0.658" id="line4437" /><path d="M268.54,475.39 L268.38,475.47 C267.99,474.8,267.74,474.67,267.24,474.67 H264.48 L266.43,476.75 C267.48,477.86,267.94,478.75,267.94,479.68 C267.94,480.85,267.09,481.76,265.76,481.76 C264.3,481.76,263.55,480.79,263.3,479.41 L263.55,479.35 C264.02,480.51,264.43,480.89,265.29,480.89 C266.29,480.89,266.93,480.3,266.93,479.22 C266.93,478.22,266.5,477.32,265.39,476.15 L263.29,473.92 V473.78 H267.91 Z " stroke-width="0" fill="black" id="path4439" /><path d="M270.22,486.71 L270.51,486.33 L270.81,485.92 L271.1,485.48 L271.24,485.25 L271.38,485.01 L271.52,484.77 L271.65,484.51 L271.79,484.24 L271.92,483.97 L272.04,483.69 L272.17,483.39 L272.28,483.09 L272.4,482.78 L272.51,482.45 L272.61,482.12 L272.71,481.78 L272.81,481.42 L272.89,481.06 L272.98,480.68 L273.05,480.29 L273.12,479.89 L273.18,479.48 L273.24,479.05 L273.28,478.61 L273.32,478.16 L273.35,477.7 L273.37,477.23 L273.39,476.74 L273.39,476.23 C273.39,470.88,271.8,467.37,270.22,465.74 V465.35 C272.73,467.37,274.51,471.51,274.51,476.23 C274.51,481.06,272.73,484.77,270.22,487.13 Z " stroke-width="0" fill="black" id="path4441" /></g></svg>