<?xml version='1.0' ?><svg xmlns:ns0="http://www.iki.fi/pav/software/textext/" xmlns:dc="http://purl.org/dc/elements/1.1/" xmlns:cc="http://creativecommons.org/ns#" xmlns:rdf="http://www.w3.org/1999/02/22-rdf-syntax-ns#" xmlns:svg="http://www.w3.org/2000/svg" xmlns="http://www.w3.org/2000/svg" id="svg2" version="1.1" width="377.56403" height="343.46796" viewBox="-4.334587688068474 925.0711773486229 485.9084885677747 442.0283291156123" preserveAspectRatio="none">
  <metadata id="metadata177">
    <rdf:RDF>
      <cc:Work rdf:about="">
        <dc:format>image/svg+xml</dc:format>
        <dc:type rdf:resource="http://purl.org/dc/dcmitype/StillImage" />
        <dc:title />
      </cc:Work>
    </rdf:RDF>
  </metadata>
  <defs id="defs175" />
  <g transform="translate(0,924.82262)" style="stroke-width:1;stroke-linecap:square;stroke-linejoin:miter;stroke-miterlimit:10;stroke-dasharray:none;stroke-dashoffset:0" stroke-miterlimit="10.000" id="g6">
    <clipPath id="clip1">
      <path d="m 0,0 0,429 481,0 0,-429 z" id="path9" />
    </clipPath>
    <g clip-path="url(#clip1)" id="g11">
      <g style="fill:none;stroke:#000000;stroke-width:2;stroke-linecap:butt;stroke-opacity:1" id="g13">
        <path d="m 240.81,3 0,426" id="path15" />
      </g>
    </g>
    <clipPath id="clip2">
      <path d="m 0,0 0,429 481,0 0,-429 z" id="path18" />
    </clipPath>
    <g transform="translate(0,-2.5739133)" clip-path="url(#clip2)" id="g20">
      <g style="fill:#000000;fill-opacity:1;fill-rule:evenodd;stroke:none" id="g22">
        <path d="m 240.81,2 -5,20 10,0" id="path24" />
      </g>
    </g>
    <clipPath id="clip3">
      <path d="m 0,0 0,429 481,0 0,-429 z" id="path27" />
    </clipPath>
    <g clip-path="url(#clip3)" id="g29">
      <g style="fill:none;stroke:#000000;stroke-width:2;stroke-linecap:butt;stroke-opacity:1" id="g31">
        <path d="m 0,216.28 478,0" id="path33" />
      </g>
    </g>
    <clipPath id="clip4">
      <path d="m 0,0 0,429 481,0 0,-429 z" id="path36" />
    </clipPath>
    <g transform="translate(2.5739131,0)" clip-path="url(#clip4)" id="g38">
      <g style="fill:#000000;fill-opacity:1;fill-rule:evenodd;stroke:none" id="g40">
        <path d="m 479,216.28 -20,-5 0,10" id="path42" />
      </g>
    </g>
    <clipPath id="clip5">
      <path d="m 0,0 0,429 481,0 0,-429 z" id="path45" />
    </clipPath>
    <g clip-path="url(#clip5)" id="g47">
      <g style="fill:none;stroke:#000000;stroke-width:2;stroke-linecap:butt;stroke-opacity:1" id="g49">
        <path d="m 66.88,216.28 0,3" id="path51" />
      </g>
    </g>
    <clipPath id="clip6">
      <path d="m 0,0 0,429 481,0 0,-429 z" id="path54" />
    </clipPath>
    <g clip-path="url(#clip6)" id="g56">
      <g style="fill:none;stroke:#000000;stroke-width:2;stroke-linecap:butt;stroke-opacity:1" id="g58">
        <path d="m 414.74,216.28 0,3" id="path60" />
      </g>
    </g>
    <clipPath id="clip7">
      <path d="m 0,0 0,429 481,0 0,-429 z" id="path63" />
    </clipPath>
    <g clip-path="url(#clip7)" id="g65">
      <g style="fill:none;stroke:#000000;stroke-width:2;stroke-linecap:butt;stroke-opacity:1" id="g67">
        <path d="m 237.81,390.21 3,0" id="path69" />
      </g>
    </g>
    <clipPath id="clip8">
      <path d="m 0,0 0,429 481,0 0,-429 z" id="path72" />
    </clipPath>
    <g clip-path="url(#clip8)" id="g74">
      <g style="fill:none;stroke:#000000;stroke-width:2;stroke-linecap:butt;stroke-opacity:1" id="g76">
        <path d="m 237.81,42.346 3,0" id="path78" />
      </g>
    </g>
    <g id="misc" />
    <g id="layer0">
      <clipPath id="clip9">
        <path d="m 0,0 0,429 481,0 0,-429 z" id="path83" />
      </clipPath>
      <g clip-path="url(#clip9)" id="g85">
        <g style="fill:none;stroke:#000000;stroke-width:3.5;stroke-linecap:round;stroke-linejoin:round;stroke-opacity:1" id="g87">
          <path d="m 414.74,216.28 c 0,96.06 -77.87,173.93 -173.93,173.93 -96.06,0 -173.93,-77.87 -173.93,-173.93 0,-96.06 77.87,-173.934 173.93,-173.934 96.06,0 173.93,77.874 173.93,173.934 z" id="path89" />
          <title id="title91">Circle c</title>
          <desc id="desc93">c: xÃ&#131;Â&#130;Ã&#130;Â² + yÃ&#131;Â&#130;Ã&#130;Â² = 4</desc>
        </g>
      </g>
      <clipPath id="clip10">
        <path d="m 0,0 0,429 481,0 0,-429 z" id="path96" />
      </clipPath>
      <g clip-path="url(#clip10)" id="g98">
        <g style="fill:#0000ff;fill-opacity:1;fill-rule:nonzero;stroke:none" id="g100">
          <path d="m 368.8,93.29 c 0,2.761 -2.24,5 -5,5 -2.76,0 -5,-2.239 -5,-5 0,-2.762 2.24,-5 5,-5 2.76,0 5,2.238 5,5 z" id="path102" />
          <title id="title104">Point A</title>
          <desc id="desc106">A = (1.41, 1.41)</desc>
        </g>
      </g>
      <clipPath id="clip11">
        <path d="m 0,0 0,429 481,0 0,-429 z" id="path109" />
      </clipPath>
      <g clip-path="url(#clip11)" id="g111">
        <g style="fill:none;stroke:#000000;stroke-linecap:round;stroke-linejoin:round;stroke-opacity:1" id="g113">
          <path d="m 368.8,93.29 c 0,2.761 -2.24,5 -5,5 -2.76,0 -5,-2.239 -5,-5 0,-2.762 2.24,-5 5,-5 2.76,0 5,2.238 5,5 z" id="path115" />
          <title id="title117">Point A</title>
          <desc id="desc119">A = (1.41, 1.41)</desc>
        </g>
      </g>
      <clipPath id="clip12">
        <path d="m 0,0 0,429 481,0 0,-429 z" id="path122" />
      </clipPath>
      <g clip-path="url(#clip12)" id="g124">
        <g style="fill:#0000ff;fill-opacity:1;fill-rule:nonzero;stroke:none" id="g126">
          <path d="m 95.182,129.31 c 0,2.76 -2.238,5 -5,5 -2.761,0 -5,-2.24 -5,-5 0,-2.76 2.239,-5 5,-5 2.762,0 5,2.24 5,5 z" id="path128" />
          <title id="title130">Point B</title>
          <desc id="desc132">B = (-1.73, 1)</desc>
        </g>
      </g>
      <clipPath id="clip13">
        <path d="m 0,0 0,429 481,0 0,-429 z" id="path135" />
      </clipPath>
      <g clip-path="url(#clip13)" id="g137">
        <g style="fill:none;stroke:#000000;stroke-linecap:round;stroke-linejoin:round;stroke-opacity:1" id="g139">
          <path d="m 95.182,129.31 c 0,2.76 -2.238,5 -5,5 -2.761,0 -5,-2.24 -5,-5 0,-2.76 2.239,-5 5,-5 2.762,0 5,2.24 5,5 z" id="path141" />
          <title id="title143">Point B</title>
          <desc id="desc145">B = (-1.73, 1)</desc>
        </g>
      </g>
      <clipPath id="clip14">
        <path d="m 0,0 0,429 481,0 0,-429 z" id="path148" />
      </clipPath>
      <g clip-path="url(#clip14)" id="g150">
        <g style="fill:#0000ff;fill-opacity:1;fill-rule:nonzero;stroke:none" id="g152">
          <path d="m 289.29,384.69 c 0,2.76 -2.23,5 -5,5 -2.76,0 -5,-2.24 -5,-5 0,-2.76 2.24,-5 5,-5 2.77,0 5,2.24 5,5 z" id="path154" />
          <title id="title156">Point C</title>
          <desc id="desc158">C = (0.5, -1.94)</desc>
        </g>
      </g>
      <clipPath id="clip15">
        <path d="m 0,0 0,429 481,0 0,-429 z" id="path161" />
      </clipPath>
      <g clip-path="url(#clip15)" id="g163">
        <g style="fill:none;stroke:#000000;stroke-linecap:round;stroke-linejoin:round;stroke-opacity:1" id="g165">
          <path d="m 289.29,384.69 c 0,2.76 -2.23,5 -5,5 -2.76,0 -5,-2.24 -5,-5 0,-2.76 2.24,-5 5,-5 2.77,0 5,2.24 5,5 z" id="path167" />
          <title id="title169">Point C</title>
          <desc id="desc171">C = (0.5, -1.94)</desc>
        </g>
      </g>
    </g>
  </g>
  <g style="font-style:normal;font-variant:normal;font-weight:normal;font-stretch:normal;letter-spacing:normal;word-spacing:normal;text-anchor:start;fill:none;fill-opacity:1;fill-rule:evenodd;stroke:#000000;stroke-linecap:butt;stroke-linejoin:miter;stroke-miterlimit:10.43299961;stroke-dasharray:none;stroke-dashoffset:0;stroke-opacity:1" id="content" transform="matrix(3,0,0,-3,-409.04323,2542.9293)" xml:space="preserve" stroke-miterlimit="10.433" font-style="normal" font-variant="normal" font-weight="normal" font-stretch="normal" font-size-adjust="none" letter-spacing="normal" word-spacing="normal" ns0:text="$x^2+y^2 = 4$" ns0:preamble="/Users/ABaker/cmep/Inkscape/underground-inkscape-preamble.tex"><g style="font-style:normal;font-variant:normal;font-weight:normal;font-stretch:normal;letter-spacing:normal;word-spacing:normal;text-anchor:start;fill:none;fill-opacity:1;fill-rule:evenodd;stroke:#000000;stroke-linecap:butt;stroke-linejoin:miter;stroke-miterlimit:10.43299961;stroke-dasharray:none;stroke-dashoffset:0;stroke-opacity:1" id="g4042" transform="matrix(0.79647118,0,0,0.71741298,-7.6851772,93.382397)" xml:space="preserve" stroke-miterlimit="10.433" font-style="normal" font-variant="normal" font-weight="normal" font-stretch="normal" font-size-adjust="none" letter-spacing="normal" word-spacing="normal" ns0:text="$x^2+y^2=4$" ns0:preamble="/Users/ABaker/cmep/Inkscape/underground-inkscape-preamble.tex"><path style="fill:#000000;stroke-width:0" d="m 227.03,480.61 -0.23,0.65 c -0.15,0.38 -0.37,0.87 -0.89,1.15 l -1.56,-0.39 0.04,-0.21 c 0.12,0.05 0.29,0.07 0.45,0.07 0.65,0 0.95,-0.48 1.15,-1.05 l 0.39,-1.09 -0.76,-1.19 c -0.38,-0.58 -0.69,-0.69 -0.83,-0.69 -0.3,0 -0.25,0.23 -0.55,0.23 -0.3,0 -0.45,-0.25 -0.45,-0.44 0,-0.26 0.19,-0.55 0.61,-0.55 0.66,0 1,0.51 1.38,1.09 l 0.74,1.15 0.48,-1.33 c 0.15,-0.43 0.38,-0.91 0.86,-0.91 0.68,0 1.21,1.13 1.36,1.31 l -0.17,0.12 c -0.25,-0.51 -0.53,-0.67 -0.72,-0.67 -0.53,0 -0.8,1.59 -1.15,2.32 l 0.64,1 c 0.17,0.26 0.3,0.45 0.65,0.45 0.2,0 0.26,-0.1 0.52,-0.1 0.31,0 0.46,0.27 0.46,0.49 0,0.25 -0.2,0.39 -0.57,0.39 -0.6,0 -1.01,-0.52 -1.32,-0.99 z" id="path4044" /><path style="fill:#000000;stroke-width:0" d="m 234.16,482.4 -0.13,0.06 c -0.29,-0.5 -0.48,-0.6 -0.85,-0.6 l -2.08,0 1.47,1.56 c 0.79,0.84 1.13,1.5 1.13,2.2 0,0.88 -0.64,1.56 -1.64,1.56 -1.09,0 -1.66,-0.72 -1.85,-1.76 l 0.19,-0.04 c 0.36,0.86 0.67,1.15 1.31,1.15 0.75,0 1.23,-0.45 1.23,-1.25 0,-0.76 -0.32,-1.43 -1.15,-2.31 l -1.58,-1.67 0,-0.11 3.47,0 z" id="path4046" /><polygon style="fill:#000000;stroke-width:0" points="240.66,483.66 240.66,480.58 237.58,480.58 237.58,479.8 240.66,479.8 240.66,476.72 241.44,476.72 241.44,479.8 244.52,479.8 244.52,480.58 241.44,480.58 241.44,483.66 " id="polygon4048" /><path style="fill:#000000;stroke-width:0" d="m 250.52,480.83 -0.01,0.08 -0.01,0.08 -0.01,0.07 -0.01,0.07 -0.01,0.07 -0.01,0.07 -0.01,0.06 -0.01,0.06 -0.01,0.06 -0.01,0.05 -0.01,0.06 -0.01,0.05 -0.01,0.05 -0.01,0.05 -0.01,0.04 -0.02,0.05 -0.01,0.04 -0.01,0.04 -0.02,0.04 -0.01,0.04 -0.03,0.08 -0.04,0.07 -0.03,0.08 -0.05,0.07 -0.04,0.07 -0.05,0.07 -1.77,-0.29 0.02,-0.19 c 0.11,0.01 0.3,0.04 0.43,0.04 0.66,0 0.77,-0.7 0.83,-1.24 l 0.44,-3.7 c -0.3,-0.47 -0.98,-1.21 -1.18,-1.21 -0.19,0 -0.16,0.37 -0.67,0.37 -0.15,0 -0.47,-0.13 -0.47,-0.48 0,-0.29 0.22,-0.65 0.66,-0.65 0.8,0 1.57,1.15 2.43,2.24 0.5,0.62 2.41,3.46 2.41,4.38 0,0.46 -0.3,0.73 -0.67,0.73 -0.35,0 -0.56,-0.21 -0.56,-0.47 0,-0.45 0.61,-0.57 0.61,-0.82 0,-0.21 -0.09,-0.44 -0.33,-0.88 -0.25,-0.49 -0.67,-1.19 -1.39,-2.17 z" id="path4050" /><path style="fill:#000000;stroke-width:0" d="m 257.43,482.4 -0.13,0.06 c -0.29,-0.5 -0.48,-0.6 -0.85,-0.6 l -2.08,0 1.47,1.56 c 0.79,0.84 1.14,1.5 1.14,2.2 0,0.88 -0.64,1.56 -1.65,1.56 -1.09,0 -1.66,-0.72 -1.84,-1.76 l 0.18,-0.04 c 0.36,0.86 0.67,1.15 1.31,1.15 0.75,0 1.23,-0.45 1.23,-1.25 0,-0.76 -0.32,-1.43 -1.15,-2.31 l -1.58,-1.67 0,-0.11 3.47,0 z" id="path4052" /><polygon style="fill:#000000;stroke-width:0" points="268.36,480.98 268.36,481.76 261.41,481.76 261.41,480.98 " id="polygon4054" /><polygon style="fill:#000000;stroke-width:0" points="268.36,478.62 268.36,479.4 261.41,479.4 261.41,478.62 " id="polygon4056" /><polygon style="fill:#000000;stroke-width:0" points="277.3,479.18 277.3,479.93 276.08,479.93 276.08,485.19 275.56,485.19 271.86,479.93 272.33,479.93 275.16,483.98 275.16,479.93 272.33,479.93 271.86,479.93 271.86,479.18 275.16,479.18 275.16,477.21 276.08,477.21 276.08,479.18 " id="polygon4058" /></g><g id="g5762" transform="matrix(0.575,0,0,0.575,160.92755,186.7502)" xml:space="preserve" stroke-miterlimit="10.433" font-style="normal" font-variant="normal" font-weight="normal" font-stretch="normal" font-size-adjust="none" letter-spacing="normal" word-spacing="normal" ns0:text="$x$" ns0:preamble="/Users/ABaker/cmep/Inkscape/underground-inkscape-preamble.tex" style="font-style:normal;font-variant:normal;font-weight:normal;font-stretch:normal;letter-spacing:normal;word-spacing:normal;text-anchor:start;fill:none;fill-opacity:1;fill-rule:evenodd;stroke:#000000;stroke-linecap:butt;stroke-linejoin:miter;stroke-miterlimit:10.43299961;stroke-dasharray:none;stroke-dashoffset:0;stroke-opacity:1"><path d="m 227.03,480.64 -0.23,0.64 c -0.15,0.39 -0.37,0.88 -0.89,1.16 l -1.56,-0.39 0.04,-0.21 c 0.12,0.05 0.29,0.07 0.45,0.07 0.65,0 0.95,-0.48 1.15,-1.05 l 0.39,-1.09 -0.76,-1.19 c -0.38,-0.58 -0.69,-0.7 -0.83,-0.7 -0.3,0 -0.25,0.24 -0.55,0.24 -0.3,0 -0.45,-0.25 -0.45,-0.44 0,-0.26 0.19,-0.55 0.61,-0.55 0.66,0 1,0.51 1.38,1.08 l 0.74,1.16 0.48,-1.33 c 0.15,-0.43 0.38,-0.91 0.86,-0.91 0.68,0 1.21,1.13 1.36,1.31 l -0.17,0.12 c -0.25,-0.51 -0.53,-0.68 -0.72,-0.68 -0.53,0 -0.8,1.6 -1.15,2.33 l 0.64,1 c 0.17,0.26 0.3,0.45 0.65,0.45 0.2,0 0.26,-0.1 0.52,-0.1 0.31,0 0.46,0.27 0.46,0.49 0,0.25 -0.2,0.39 -0.57,0.39 -0.6,0 -1.01,-0.52 -1.32,-0.99 z" id="path5764" style="fill:#000000;stroke-width:0" /></g><g ns0:preamble="/Users/ABaker/cmep/Inkscape/underground-inkscape-preamble.tex" ns0:text="$y$" word-spacing="normal" letter-spacing="normal" font-size-adjust="none" font-stretch="normal" font-weight="normal" font-variant="normal" font-style="normal" stroke-miterlimit="10.433" xml:space="preserve" transform="matrix(0.575,0,0,0.575,81.662807,258.489)" id="g6048" style="font-style:normal;font-variant:normal;font-weight:normal;font-stretch:normal;letter-spacing:normal;word-spacing:normal;text-anchor:start;fill:none;fill-opacity:1;fill-rule:evenodd;stroke:#000000;stroke-linecap:butt;stroke-linejoin:miter;stroke-miterlimit:10.43299961;stroke-dasharray:none;stroke-dashoffset:0;stroke-opacity:1"><path id="path6050" d="m 226.62,480.86 -0.01,0.08 -0.01,0.08 -0.01,0.07 -0.01,0.07 -0.01,0.07 -0.01,0.07 -0.01,0.06 -0.01,0.06 -0.01,0.06 -0.01,0.05 -0.01,0.06 -0.01,0.05 -0.01,0.05 -0.01,0.04 -0.02,0.05 -0.01,0.05 -0.01,0.04 -0.02,0.04 -0.01,0.04 -0.01,0.04 -0.04,0.08 -0.03,0.07 -0.04,0.08 -0.04,0.07 -0.04,0.07 -0.05,0.07 -1.77,-0.3 0.02,-0.18 c 0.11,0.01 0.3,0.04 0.43,0.04 0.66,0 0.76,-0.71 0.82,-1.24 l 0.45,-3.7 c -0.31,-0.48 -0.98,-1.21 -1.18,-1.21 -0.19,0 -0.16,0.37 -0.67,0.37 -0.16,0 -0.47,-0.13 -0.47,-0.49 0,-0.28 0.22,-0.64 0.66,-0.64 0.8,0 1.57,1.15 2.43,2.24 0.5,0.62 2.41,3.46 2.41,4.38 0,0.46 -0.3,0.73 -0.67,0.73 -0.35,0 -0.56,-0.21 -0.56,-0.47 0,-0.45 0.61,-0.57 0.61,-0.82 0,-0.21 -0.09,-0.45 -0.33,-0.88 -0.26,-0.49 -0.67,-1.19 -1.39,-2.18 z" style="fill:#000000;stroke-width:0" /></g><g id="g4407" transform="matrix(0.65,0,0,0.65,-11.392616,195.2359)" xml:space="preserve" stroke-miterlimit="10.433" font-style="normal" font-variant="normal" font-weight="normal" font-stretch="normal" font-size-adjust="none" letter-spacing="normal" word-spacing="normal" ns0:text="$\\left(-\\sqrt{3}, 1\\right)$\n" ns0:preamble="/Users/prmb/CMEP/underground-inkscape-preamble.tex" style="font-style:normal;font-variant:normal;font-weight:normal;font-stretch:normal;letter-spacing:normal;word-spacing:normal;text-anchor:start;fill:none;fill-opacity:1;fill-rule:evenodd;stroke:#000000;stroke-linecap:butt;stroke-linejoin:miter;stroke-miterlimit:10.43299961;stroke-dasharray:none;stroke-dashoffset:0;stroke-opacity:1"><path style="fill:#000000;stroke-width:0" d="m 229.37,465.77 -0.3,0.38 -0.29,0.41 -0.15,0.22 -0.14,0.22 -0.14,0.23 -0.14,0.24 -0.14,0.25 -0.14,0.26 -0.13,0.27 -0.13,0.27 -0.13,0.29 -0.12,0.29 -0.12,0.3 -0.11,0.32 -0.11,0.32 -0.1,0.33 -0.1,0.35 -0.1,0.35 -0.09,0.37 -0.08,0.38 -0.07,0.38 -0.07,0.4 -0.06,0.41 -0.06,0.43 -0.04,0.43 -0.04,0.45 -0.03,0.46 -0.03,0.47 -0.01,0.49 0,0.49 c 0,5.41 1.59,8.88 3.17,10.51 l 0,0.39 c -2.51,-2.02 -4.3,-6.17 -4.3,-10.9 0,-4.82 1.79,-8.52 4.3,-10.88 z" id="path4409" /><polygon style="fill:#000000;stroke-width:0" points="231.17,476.38 237.74,476.38 237.74,477.15 231.17,477.15 " id="polygon4411" /><path style="fill:#000000;stroke-width:0" d="m 249.9,485.69 -0.64,0 -4.89,-12.58 -0.05,0 -2.41,6.33 -0.22,0 -1.84,-1.47 0.14,-0.23 c 0.26,0.23 0.57,0.36 0.77,0.36 0.29,0 0.53,-0.16 0.73,-0.69 l 2.38,-6.26 0.38,0 z" id="path4413" /><line style="stroke-width:0.65799999" x1="249.52" y1="485.41" x2="255.45" y2="485.41" id="line4415" /><path style="fill:#000000;stroke-width:0" d="m 250.24,479.8 0.05,0.08 0.04,0.08 0.05,0.07 0.05,0.07 0.04,0.07 0.05,0.07 0.05,0.06 0.05,0.06 0.05,0.06 0.05,0.06 0.05,0.05 0.05,0.05 0.05,0.05 0.05,0.04 0.05,0.04 0.06,0.04 0.05,0.04 0.06,0.03 0.05,0.04 0.06,0.03 0.06,0.02 0.06,0.03 0.05,0.02 0.06,0.02 0.07,0.02 0.06,0.01 0.06,0.01 0.06,0.01 0.07,0.01 0.06,0.01 0.07,0 0.07,0 c 0.78,0 1.27,-0.4 1.27,-1.2 0,-0.72 -0.37,-1.25 -0.95,-1.59 -0.24,-0.14 -0.54,-0.27 -0.99,-0.42 l 0,-0.17 c 0.67,0 0.94,-0.03 1.2,-0.11 0.82,-0.24 1.23,-0.82 1.23,-1.72 0,-1 -0.66,-1.8 -1.53,-1.8 -0.34,0 -0.58,0.06 -1.02,0.36 -0.33,0.24 -0.52,0.31 -0.72,0.31 -0.27,0 -0.48,-0.18 -0.48,-0.42 0,-0.43 0.46,-0.68 1.32,-0.68 1.05,0 2.17,0.34 2.74,1.1 0.34,0.45 0.54,1.03 0.54,1.65 0,0.62 -0.19,1.16 -0.52,1.53 -0.25,0.26 -0.46,0.4 -0.98,0.62 0.79,0.47 1.1,1.07 1.1,1.63 0,0.97 -0.75,1.62 -1.84,1.62 -1.23,0 -1.97,-0.79 -2.32,-1.91 z" id="path4417" /><path style="fill:#000000;stroke-width:0" d="m 256.42,472.11 0.08,0.04 0.07,0.04 0.08,0.04 0.07,0.05 0.06,0.04 0.07,0.05 0.06,0.05 0.06,0.05 0.06,0.05 0.06,0.05 0.06,0.05 0.05,0.06 0.05,0.06 0.05,0.06 0.05,0.05 0.04,0.06 0.04,0.07 0.04,0.06 0.04,0.06 0.03,0.06 0.04,0.07 0.02,0.06 0.03,0.07 0.02,0.06 0.03,0.07 0.01,0.07 0.02,0.06 0.01,0.07 0.01,0.07 0.01,0.06 0.01,0.07 0,0.06 c 0,0.62 -0.42,1.03 -0.95,1.03 -0.42,0 -0.71,-0.27 -0.71,-0.67 0,-0.4 0.25,-0.6 0.69,-0.6 0.13,0 0.25,0.04 0.34,0.04 0.1,0 0.17,-0.07 0.17,-0.15 0,-0.39 -0.33,-0.83 -0.98,-1.26 z" id="path4419" /><path style="fill:#000000;stroke-width:0" d="m 264.72,473.78 0,0.17 c -0.89,0 -1.12,0.22 -1.12,0.72 l 0,7.05 -0.11,0.04 -2.11,-1.08 0,-0.16 0.32,0.12 c 0.21,0.08 0.41,0.14 0.53,0.14 0.24,0 0.35,-0.18 0.35,-0.58 l 0,-5.3 c 0,-0.65 -0.25,-0.9 -1.12,-0.95 l 0,-0.17 z" id="path4421" /><path style="fill:#000000;stroke-width:0" d="m 267.34,486.71 0.29,-0.38 0.3,-0.41 0.29,-0.44 0.14,-0.23 0.14,-0.24 0.14,-0.24 0.14,-0.26 0.13,-0.27 0.13,-0.27 0.12,-0.28 0.13,-0.3 0.12,-0.3 0.11,-0.31 0.11,-0.33 0.1,-0.33 0.1,-0.34 0.1,-0.36 0.08,-0.36 0.09,-0.38 0.07,-0.39 0.07,-0.4 0.06,-0.41 0.06,-0.43 0.04,-0.44 0.04,-0.45 0.03,-0.46 0.03,-0.47 0.01,-0.49 0,-0.51 c 0,-5.35 -1.59,-8.86 -3.17,-10.49 l 0,-0.39 c 2.51,2.02 4.3,6.16 4.3,10.88 0,4.83 -1.79,8.54 -4.3,10.9 z" id="path4423" /></g><g style="font-style:normal;font-variant:normal;font-weight:normal;font-stretch:normal;letter-spacing:normal;word-spacing:normal;text-anchor:start;fill:none;fill-opacity:1;fill-rule:evenodd;stroke:#000000;stroke-linecap:butt;stroke-linejoin:miter;stroke-miterlimit:10.43299961;stroke-dasharray:none;stroke-dashoffset:0;stroke-opacity:1" ns0:preamble="/Users/prmb/CMEP/underground-inkscape-preamble.tex" ns0:text="$\\left(\\sqrt{2}, \\sqrt{2}\\right)$" text-anchor="start" word-spacing="normal" letter-spacing="normal" font-size-adjust="none" font-stretch="normal" font-weight="normal" font-variant="normal" font-style="normal" fill-opacity="1" fill-rule="evenodd" fill="none" stroke-opacity="1" stroke-dashoffset="0" stroke-dasharray="none" stroke-miterlimit="10.433" stroke-linejoin="miter" stroke-linecap="butt" stroke="black" xml:space="preserve" transform="matrix(0.65,0,0,0.65,113.96115,203.22034)" id="g4700"><path id="path4702" fill="black" stroke-width="0" d="M229.37,465.77 L229.07,466.15 L228.78,466.56 L228.63,466.78 L228.49,467 L228.35,467.23 L228.21,467.47 L228.07,467.72 L227.93,467.98 L227.8,468.25 L227.67,468.52 L227.54,468.81 L227.42,469.1 L227.3,469.4 L227.19,469.72 L227.08,470.04 L226.98,470.37 L226.88,470.72 L226.78,471.07 L226.69,471.44 L226.61,471.82 L226.54,472.2 L226.47,472.6 L226.41,473.01 L226.35,473.44 L226.31,473.87 L226.27,474.32 L226.24,474.78 L226.21,475.25 L226.2,475.74 L226.2,476.23 C226.2,481.64,227.79,485.11,229.37,486.74 V487.13 C226.86,485.11,225.07,480.96,225.07,476.23 C225.07,471.41,226.86,467.71,229.37,465.35 Z " /><path id="path4704" fill="black" stroke-width="0" d="M241.78,485.78 H241.14 L236.26,473.19 H236.21 L233.8,479.52 H233.57 L231.73,478.06 L231.88,477.82 C232.13,478.06,232.44,478.19,232.64,478.19 C232.94,478.19,233.17,478.02,233.37,477.49 L235.76,471.23 H236.14 Z " /><line id="line4706" stroke-width="0.658" y2="485.49" x2="247.33" y1="485.49" x1="241.4" /><path id="path4708" fill="black" stroke-width="0" d="M247,475.39 L246.84,475.47 C246.45,474.8,246.2,474.67,245.7,474.67 H242.94 L244.89,476.75 C245.94,477.86,246.4,478.75,246.4,479.68 C246.4,480.85,245.55,481.76,244.21,481.76 C242.76,481.76,242.01,480.79,241.76,479.41 L242.01,479.35 C242.48,480.51,242.89,480.89,243.74,480.89 C244.75,480.89,245.38,480.3,245.38,479.22 C245.38,478.22,244.96,477.32,243.85,476.15 L241.75,473.92 V473.78 H246.36 Z " /><path id="path4710" fill="black" stroke-width="0" d="M248.31,472.11 L248.38,472.15 L248.46,472.19 L248.53,472.23 L248.6,472.28 L248.67,472.32 L248.73,472.37 L248.8,472.42 L248.86,472.47 L248.92,472.52 L248.98,472.57 L249.03,472.62 L249.09,472.68 L249.14,472.74 L249.18,472.8 L249.23,472.85 L249.28,472.91 L249.32,472.98 L249.36,473.04 L249.39,473.1 L249.43,473.16 L249.46,473.23 L249.49,473.29 L249.51,473.36 L249.54,473.42 L249.56,473.49 L249.58,473.56 L249.59,473.62 L249.61,473.69 L249.62,473.76 L249.63,473.82 L249.63,473.89 L249.63,473.95 C249.63,474.57,249.22,474.98,248.69,474.98 C248.26,474.98,247.98,474.71,247.98,474.31 C247.98,473.91,248.23,473.71,248.66,473.71 C248.79,473.71,248.91,473.75,249.01,473.75 C249.1,473.75,249.17,473.68,249.17,473.6 C249.17,473.21,248.84,472.77,248.19,472.34 Z " /><path id="path4712" fill="black" stroke-width="0" d="M263.32,485.78 H262.68 L257.8,473.19 H257.75 L255.34,479.52 H255.12 L253.27,478.06 L253.42,477.82 C253.68,478.06,253.98,478.19,254.18,478.19 C254.48,478.19,254.71,478.02,254.91,477.49 L257.3,471.23 H257.68 Z " /><line id="line4714" stroke-width="0.658" y2="485.49" x2="268.87" y1="485.49" x1="262.95" /><path id="path4716" fill="black" stroke-width="0" d="M268.54,475.39 L268.38,475.47 C267.99,474.8,267.74,474.67,267.24,474.67 H264.48 L266.43,476.75 C267.48,477.86,267.94,478.75,267.94,479.68 C267.94,480.85,267.09,481.76,265.76,481.76 C264.3,481.76,263.55,480.79,263.3,479.41 L263.55,479.35 C264.02,480.51,264.43,480.89,265.29,480.89 C266.29,480.89,266.93,480.3,266.93,479.22 C266.93,478.22,266.5,477.32,265.39,476.15 L263.29,473.92 V473.78 H267.91 Z " /><path id="path4718" fill="black" stroke-width="0" d="M270.22,486.71 L270.51,486.33 L270.81,485.92 L271.1,485.48 L271.24,485.25 L271.38,485.01 L271.52,484.77 L271.65,484.51 L271.79,484.24 L271.92,483.97 L272.04,483.69 L272.17,483.39 L272.28,483.09 L272.4,482.78 L272.51,482.45 L272.61,482.12 L272.71,481.78 L272.81,481.42 L272.89,481.06 L272.98,480.68 L273.05,480.29 L273.12,479.89 L273.18,479.48 L273.24,479.05 L273.28,478.61 L273.32,478.16 L273.35,477.7 L273.37,477.23 L273.39,476.74 L273.39,476.23 C273.39,470.88,271.8,467.37,270.22,465.74 V465.35 C272.73,467.37,274.51,471.51,274.51,476.23 C274.51,481.06,272.73,484.77,270.22,487.13 Z " /></g><g id="g4990" transform="matrix(0.65,0,0,0.65,89.196511,94.471913)" xml:space="preserve" stroke-miterlimit="10.433" font-style="normal" font-variant="normal" font-weight="normal" font-stretch="normal" font-size-adjust="none" letter-spacing="normal" word-spacing="normal" ns0:text="$\\left(\\frac{1}{2}, -\\frac{\\sqrt{15}}{2}\\right)$" ns0:preamble="/Users/prmb/CMEP/underground-inkscape-preamble.tex" style="font-style:normal;font-variant:normal;font-weight:normal;font-stretch:normal;letter-spacing:normal;word-spacing:normal;text-anchor:start;fill:none;fill-opacity:1;fill-rule:evenodd;stroke:#000000;stroke-linecap:butt;stroke-linejoin:miter;stroke-miterlimit:10.43299961;stroke-dasharray:none;stroke-dashoffset:0;stroke-opacity:1"><path style="fill:#000000;stroke-width:0" d="m 231.31,458.64 -0.4,0.5 -0.4,0.54 -0.39,0.59 -0.2,0.3 -0.19,0.32 -0.19,0.33 -0.19,0.34 -0.19,0.36 -0.18,0.36 -0.17,0.38 -0.18,0.39 -0.16,0.41 -0.17,0.41 -0.15,0.43 -0.15,0.45 -0.14,0.46 -0.13,0.47 -0.13,0.49 -0.12,0.5 -0.11,0.52 -0.09,0.53 -0.09,0.55 -0.08,0.57 -0.07,0.58 -0.06,0.6 -0.04,0.62 -0.03,0.63 -0.02,0.65 -0.01,0.67 c 0,7.15 2.33,11.83 4.43,14 l 0,0.52 c -3.36,-2.69 -5.73,-8.17 -5.73,-14.52 0,-6.39 2.37,-11.37 5.73,-14.52 z" id="path4992" /><path style="fill:#000000;stroke-width:0" d="m 237.01,474.92 0,0.13 c -0.66,0 -0.84,0.16 -0.84,0.54 l 0,5.29 -0.08,0.03 -1.59,-0.81 0,-0.12 0.24,0.09 c 0.16,0.06 0.31,0.1 0.4,0.1 0.18,0 0.26,-0.13 0.26,-0.43 l 0,-3.98 c 0,-0.49 -0.18,-0.68 -0.84,-0.71 l 0,-0.13 z" id="path4994" /><line style="stroke-width:0.65799999" x1="233.50999" y1="472.62" x2="237.96001" y2="472.62" id="line4996" /><path style="fill:#000000;stroke-width:0" d="m 237.72,466.57 -0.12,0.05 c -0.3,-0.5 -0.48,-0.59 -0.86,-0.59 l -2.07,0 1.46,1.56 c 0.79,0.83 1.14,1.49 1.14,2.19 0,0.88 -0.64,1.56 -1.64,1.56 -1.09,0 -1.66,-0.72 -1.85,-1.76 l 0.19,-0.04 c 0.35,0.86 0.66,1.15 1.3,1.15 0.76,0 1.24,-0.45 1.24,-1.25 0,-0.76 -0.32,-1.43 -1.16,-2.31 l -1.58,-1.67 0,-0.11 3.47,0 z" id="path4998" /><path style="fill:#000000;stroke-width:0" d="m 240.13,468.47 0.08,0.04 0.07,0.04 0.07,0.04 0.07,0.04 0.07,0.05 0.07,0.04 0.06,0.05 0.06,0.05 0.06,0.05 0.06,0.06 0.06,0.05 0.05,0.06 0.05,0.05 0.05,0.06 0.04,0.06 0.05,0.06 0.04,0.06 0.04,0.06 0.04,0.07 0.03,0.06 0.03,0.06 0.03,0.07 0.03,0.06 0.02,0.07 0.02,0.07 0.02,0.06 0.02,0.07 0.01,0.06 0.01,0.07 0.01,0.07 0,0.06 0,0.07 c 0,0.61 -0.41,1.03 -0.94,1.03 -0.42,0 -0.71,-0.27 -0.71,-0.67 0,-0.41 0.25,-0.61 0.69,-0.61 0.13,0 0.24,0.05 0.34,0.05 0.09,0 0.16,-0.07 0.16,-0.15 0,-0.39 -0.33,-0.83 -0.98,-1.27 z" id="path5000" /><polygon style="fill:#000000;stroke-width:0" points="251.1,473.51 244.53,473.51 244.53,472.73 251.1,472.73 " id="polygon5002" /><path style="fill:#000000;stroke-width:0" d="m 261.64,484.54 -0.48,0 -3.68,-9.45 -0.03,0 -1.82,4.75 -0.17,0 -1.38,-1.1 0.11,-0.18 c 0.19,0.18 0.42,0.28 0.57,0.28 0.23,0 0.4,-0.13 0.55,-0.52 l 1.8,-4.7 0.28,0 z" id="path5004" /><line style="stroke-width:0.493" x1="261.32999" y1="484.31" x2="270.22" y2="484.31" id="line5006" /><path style="fill:#000000;stroke-width:0" d="m 264.83,475.54 0,0.13 c -0.67,0 -0.84,0.16 -0.84,0.54 l 0,5.29 -0.08,0.03 -1.59,-0.81 0,-0.12 0.24,0.09 c 0.16,0.06 0.31,0.1 0.4,0.1 0.18,0 0.26,-0.13 0.26,-0.43 l 0,-3.98 c 0,-0.49 -0.18,-0.67 -0.84,-0.71 l 0,-0.13 z" id="path5008" /><path style="fill:#000000;stroke-width:0" d="m 269.66,481.57 -0.08,0.07 c -0.14,-0.19 -0.22,-0.23 -0.42,-0.23 l -1.84,0 -0.97,-2.11 c 0,0 -0.01,-0.02 -0.01,-0.04 0,-0.05 0.03,-0.07 0.11,-0.07 0.85,0 1.47,-0.28 1.89,-0.62 0.4,-0.32 0.59,-0.76 0.59,-1.33 0,-0.76 -0.57,-1.5 -1.19,-1.5 -0.18,0 -0.38,0.08 -0.63,0.28 -0.29,0.24 -0.46,0.28 -0.66,0.28 -0.25,0 -0.4,-0.12 -0.4,-0.34 0,-0.33 0.46,-0.55 1.13,-0.55 0.6,0 1.09,0.14 1.51,0.44 0.6,0.44 0.87,0.99 0.87,1.84 0,0.47 -0.08,0.81 -0.31,1.13 -0.51,0.7 -0.95,0.89 -2.22,1.13 l 0.35,0.76 1.72,0 c 0.15,0 0.22,0.05 0.24,0.11 z" id="path5010" /><line style="stroke-width:0.65799999" x1="253.09" y1="472.62" x2="270.22" y2="472.62" id="line5012" /><path style="fill:#000000;stroke-width:0" d="m 263.64,466.57 -0.13,0.05 c -0.29,-0.5 -0.48,-0.59 -0.85,-0.59 l -2.08,0 1.47,1.56 c 0.79,0.83 1.13,1.49 1.13,2.19 0,0.88 -0.63,1.56 -1.64,1.56 -1.09,0 -1.66,-0.72 -1.84,-1.76 l 0.18,-0.04 c 0.36,0.86 0.67,1.15 1.31,1.15 0.75,0 1.23,-0.45 1.23,-1.25 0,-0.76 -0.32,-1.43 -1.15,-2.31 l -1.58,-1.67 0,-0.11 3.47,0 z" id="path5014" /><path style="fill:#000000;stroke-width:0" d="m 272.39,486.55 0.4,-0.5 0.4,-0.54 0.2,-0.29 0.19,-0.29 0.2,-0.31 0.19,-0.32 0.19,-0.33 0.19,-0.34 0.19,-0.35 0.18,-0.36 0.17,-0.38 0.18,-0.39 0.16,-0.41 0.17,-0.41 0.15,-0.44 0.15,-0.44 0.14,-0.46 0.13,-0.47 0.13,-0.49 0.12,-0.51 0.11,-0.52 0.09,-0.53 0.09,-0.55 0.08,-0.57 0.07,-0.58 0.06,-0.6 0.04,-0.62 0.03,-0.64 0.02,-0.65 0.01,-0.67 c 0,-7.16 -2.33,-11.83 -4.43,-14 l 0,-0.52 c 3.36,2.69 5.73,8.22 5.73,14.52 0,6.43 -2.37,11.37 -5.73,14.52 z" id="path5016" /></g></g></svg>