<?xml version='1.0' ?><svg xmlns:ns0="http://www.iki.fi/pav/software/textext/" xmlns:dc="http://purl.org/dc/elements/1.1/" xmlns:cc="http://creativecommons.org/ns#" xmlns:rdf="http://www.w3.org/1999/02/22-rdf-syntax-ns#" xmlns:svg="http://www.w3.org/2000/svg" xmlns="http://www.w3.org/2000/svg" id="svg2" version="1.1" width="413.25043" height="361.28106" viewBox="80.01488356054072 38.87554236884339 253.25115293725491 221.4029032695588" preserveAspectRatio="none">
  <metadata id="metadata128">
    <rdf:RDF>
      <cc:Work rdf:about="">
        <dc:format>image/svg+xml</dc:format>
        <dc:type rdf:resource="http://purl.org/dc/dcmitype/StillImage" />
        <dc:title />
      </cc:Work>
    </rdf:RDF>
  </metadata>
  <defs id="defs126" />
  <g transform="matrix(0.81569853,0,0,0.6494007,80.000002,38.879452)" style="stroke-width:1;stroke-linecap:square;stroke-linejoin:miter;stroke-miterlimit:10;stroke-dasharray:none;stroke-dashoffset:0" id="g6" stroke-miterlimit="10.000">
    <clipPath id="clip1">
      <path id="path9" d="m 0,0 0,321 311,0 0,-321 z" />
    </clipPath>
    <g id="g11" clip-path="url(#clip1)">
      <g style="fill:none;stroke:#000000;stroke-width:2;stroke-linecap:butt;stroke-opacity:1" id="g13">
        <path id="path15" d="m 126.21,3 0,318" />
      </g>
    </g>
    <clipPath id="clip2">
      <path id="path18" d="m 0,0 0,321 311,0 0,-321 z" />
    </clipPath>
    <g transform="matrix(1,0,0,1.2899136,0,-2.4673737)" id="g20" clip-path="url(#clip2)">
      <g style="fill:#000000;fill-opacity:1;fill-rule:evenodd;stroke:none" id="g22">
        <path id="path24" d="m 126.21,2 -4,16 8,0" />
      </g>
    </g>
    <clipPath id="clip3">
      <path id="path27" d="m 0,0 0,321 311,0 0,-321 z" />
    </clipPath>
    <g id="g29" clip-path="url(#clip3)">
      <g style="fill:none;stroke:#000000;stroke-width:2;stroke-linecap:butt;stroke-opacity:1" id="g31">
        <path id="path33" d="m 0,275.33 308,0" />
      </g>
    </g>
    <clipPath id="clip4">
      <path id="path36" d="m 0,0 0,321 311,0 0,-321 z" />
    </clipPath>
    <g transform="translate(1.502734,0)" id="g38" clip-path="url(#clip4)">
      <g style="fill:#000000;fill-opacity:1;fill-rule:evenodd;stroke:none" id="g40">
        <path id="path42" d="m 309,275.33 -16,-4 0,8" />
      </g>
    </g>
    <g id="misc" />
    <g id="layer0">
      <clipPath id="clip5">
        <path id="path47" d="m 0,0 0,321 311,0 0,-321 z" />
      </clipPath>
      <g id="g49" clip-path="url(#clip5)">
        <g style="fill:none;stroke:#000000;stroke-linecap:butt;stroke-linejoin:round;stroke-dasharray:9, 4, 1, 4;stroke-opacity:1" id="g51">
          <path id="path53" d="M 148,326 148,-5" />
          <title id="title55">Line e</title>
          <desc id="desc57">e: x = 1</desc>
        </g>
      </g>
      <clipPath id="clip6">
        <path id="path60" d="m 0,0 0,321 311,0 0,-321 z" />
      </clipPath>
      <g id="g62" clip-path="url(#clip6)">
        <g style="fill:none;stroke:#000000;stroke-linecap:butt;stroke-linejoin:round;stroke-dasharray:9, 4, 1, 4;stroke-opacity:1" id="g64">
          <path id="path66" d="m 213.35,326 0,-331" />
          <title id="title68">Line f</title>
          <desc id="desc70">f: x = 4</desc>
        </g>
      </g>
      <clipPath id="clip7">
        <path id="path73" d="m 0,0 0,321 311,0 0,-321 z" />
      </clipPath>
      <g id="g75" clip-path="url(#clip7)">
        <g style="fill:none;stroke:#000000;stroke-linecap:round;stroke-linejoin:round;stroke-opacity:1" id="g77">
          <path id="path79" d="M 126.71,166.91 69.578,-4.5" />
          <title id="title81">Segment a</title>
          <desc id="desc83">Segment a: Segment [A, B]</desc>
        </g>
      </g>
      <clipPath id="clip8">
        <path id="path86" d="m 0,0 0,321 311,0 0,-321 z" />
      </clipPath>
      <g id="g88" clip-path="url(#clip8)">
        <g style="fill:none;stroke:#000000;stroke-linecap:round;stroke-linejoin:round;stroke-opacity:1" id="g90">
          <path id="path92" d="M 148,188.19 126.21,166.41" />
          <title id="title94">Segment b</title>
          <desc id="desc96">Segment b: Segment [C, A]</desc>
        </g>
      </g>
      <clipPath id="clip9">
        <path id="path99" d="m 0,0 0,321 311,0 0,-321 z" />
      </clipPath>
      <g id="g101" clip-path="url(#clip9)">
        <g style="fill:none;stroke:#000000;stroke-linecap:round;stroke-linejoin:round;stroke-opacity:1" id="g103">
          <path id="path105" d="m 148,188.19 65.35,-65.35" />
          <title id="title107">Segment c</title>
          <desc id="desc109">Segment c: Segment [C, D]</desc>
        </g>
      </g>
      <clipPath id="clip10">
        <path id="path112" d="m 0,0 0,321 311,0 0,-321 z" />
      </clipPath>
      <g id="g114" clip-path="url(#clip10)">
        <g style="fill:none;stroke:#000000;stroke-linecap:round;stroke-linejoin:round;stroke-opacity:1" id="g116">
          <path id="path118" d="M 213.85,123.34 256.46,-4.5" />
          <title id="title120">Segment d</title>
          <desc id="desc122">Segment d: Segment [D, E]</desc>
        </g>
      </g>
    </g>
  </g>
  <g ns0:preamble="/Users/jonnygriffiths/CMEP/underground-inkscape-preamble.tex" ns0:text="$x=1$" word-spacing="normal" letter-spacing="normal" font-size-adjust="none" font-stretch="normal" font-weight="normal" font-variant="normal" font-style="normal" stroke-miterlimit="10.433" xml:space="preserve" transform="matrix(0.9,0,0,-0.9,-12.65783,689.72162)" id="content" style="font-style:normal;font-variant:normal;font-weight:normal;font-stretch:normal;letter-spacing:normal;word-spacing:normal;text-anchor:start;fill:none;fill-opacity:1;fill-rule:evenodd;stroke:#000000;stroke-linecap:butt;stroke-linejoin:miter;stroke-miterlimit:10.43299961;stroke-dasharray:none;stroke-dashoffset:0;stroke-opacity:1"><path id="path3526" d="m 227.03,480.64 -0.23,0.64 c -0.15,0.39 -0.37,0.88 -0.89,1.16 l -1.56,-0.39 0.04,-0.21 c 0.12,0.05 0.29,0.07 0.45,0.07 0.65,0 0.95,-0.48 1.15,-1.05 l 0.39,-1.09 -0.76,-1.19 c -0.38,-0.58 -0.69,-0.7 -0.83,-0.7 -0.3,0 -0.25,0.24 -0.55,0.24 -0.3,0 -0.45,-0.25 -0.45,-0.44 0,-0.26 0.19,-0.55 0.61,-0.55 0.66,0 1,0.51 1.38,1.08 l 0.74,1.16 0.48,-1.33 c 0.15,-0.43 0.38,-0.91 0.86,-0.91 0.68,0 1.21,1.13 1.36,1.31 l -0.17,0.12 c -0.25,-0.51 -0.53,-0.68 -0.72,-0.68 -0.53,0 -0.8,1.6 -1.15,2.33 l 0.64,1 c 0.17,0.26 0.3,0.45 0.65,0.45 0.2,0 0.26,-0.1 0.52,-0.1 0.31,0 0.46,0.27 0.46,0.49 0,0.25 -0.2,0.39 -0.57,0.39 -0.6,0 -1.01,-0.52 -1.32,-0.99 z" style="fill:#000000;stroke-width:0" /><polygon id="polygon3528" points="233.28,481.01 240.23,481.01 240.23,481.79 233.28,481.79 " style="fill:#000000;stroke-width:0" /><polygon id="polygon3530" points="233.28,478.65 240.23,478.65 240.23,479.43 233.28,479.43 " style="fill:#000000;stroke-width:0" /><path id="path3532" d="m 248.25,477.23 0,0.18 c -0.89,0 -1.12,0.21 -1.12,0.72 l 0,7.05 -0.11,0.04 -2.11,-1.08 0,-0.16 0.32,0.11 c 0.21,0.09 0.41,0.15 0.53,0.15 0.25,0 0.35,-0.18 0.35,-0.58 l 0,-5.3 c 0,-0.65 -0.25,-0.9 -1.12,-0.95 l 0,-0.18 z" style="fill:#000000;stroke-width:0" /></g>  <g style="font-style:normal;font-variant:normal;font-weight:normal;font-stretch:normal;letter-spacing:normal;word-spacing:normal;text-anchor:start;fill:none;fill-opacity:1;fill-rule:evenodd;stroke:#000000;stroke-linecap:butt;stroke-linejoin:miter;stroke-miterlimit:10.43299961;stroke-dasharray:none;stroke-dashoffset:0;stroke-opacity:1" id="g3680" transform="matrix(0.9,0,0,-0.9,40.976612,689.72162)" xml:space="preserve" stroke-miterlimit="10.433" font-style="normal" font-variant="normal" font-weight="normal" font-stretch="normal" font-size-adjust="none" letter-spacing="normal" word-spacing="normal" ns0:text="$x=4$" ns0:preamble="/Users/jonnygriffiths/CMEP/underground-inkscape-preamble.tex"><path style="fill:#000000;stroke-width:0" d="m 227.03,480.64 -0.23,0.64 c -0.15,0.39 -0.37,0.88 -0.89,1.16 l -1.56,-0.39 0.04,-0.21 c 0.12,0.05 0.29,0.07 0.45,0.07 0.65,0 0.95,-0.48 1.15,-1.05 l 0.39,-1.09 -0.76,-1.19 c -0.38,-0.58 -0.69,-0.7 -0.83,-0.7 -0.3,0 -0.25,0.24 -0.55,0.24 -0.3,0 -0.45,-0.25 -0.45,-0.44 0,-0.26 0.19,-0.55 0.61,-0.55 0.66,0 1,0.51 1.38,1.08 l 0.74,1.16 0.48,-1.33 c 0.15,-0.43 0.38,-0.91 0.86,-0.91 0.68,0 1.21,1.13 1.36,1.31 l -0.17,0.12 c -0.25,-0.51 -0.53,-0.68 -0.72,-0.68 -0.53,0 -0.8,1.6 -1.15,2.33 l 0.64,1 c 0.17,0.26 0.3,0.45 0.65,0.45 0.2,0 0.26,-0.1 0.52,-0.1 0.31,0 0.46,0.27 0.46,0.49 0,0.25 -0.2,0.39 -0.57,0.39 -0.6,0 -1.01,-0.52 -1.32,-0.99 z" id="path3682" /><polygon style="fill:#000000;stroke-width:0" points="233.28,481.01 240.23,481.01 240.23,481.79 233.28,481.79 " id="polygon3684" /><polygon style="fill:#000000;stroke-width:0" points="233.28,478.65 240.23,478.65 240.23,479.43 233.28,479.43 " id="polygon3686" /><polygon style="fill:#000000;stroke-width:0" points="247.96,485.22 247.45,485.22 243.74,479.96 244.21,479.96 247.04,484.01 247.04,479.96 244.21,479.96 243.74,479.96 243.74,479.21 247.04,479.21 247.04,477.23 247.96,477.23 247.96,479.21 249.18,479.21 249.18,479.96 247.96,479.96 " id="polygon3688" /></g>  <g ns0:preamble="/Users/jonnygriffiths/CMEP/underground-inkscape-preamble.tex" ns0:text="$y=-3x+5$" word-spacing="normal" letter-spacing="normal" font-size-adjust="none" font-stretch="normal" font-weight="normal" font-variant="normal" font-style="normal" stroke-miterlimit="10.433" xml:space="preserve" transform="matrix(0.9,0,0,-0.9,-106.07467,506.69894)" id="g3846" style="font-style:normal;font-variant:normal;font-weight:normal;font-stretch:normal;letter-spacing:normal;word-spacing:normal;text-anchor:start;fill:none;fill-opacity:1;fill-rule:evenodd;stroke:#000000;stroke-linecap:butt;stroke-linejoin:miter;stroke-miterlimit:10.43299961;stroke-dasharray:none;stroke-dashoffset:0;stroke-opacity:1"><path id="path3848" d="m 226.62,480.86 -0.01,0.08 -0.01,0.08 -0.01,0.07 -0.01,0.07 -0.01,0.07 -0.01,0.07 -0.01,0.06 -0.01,0.06 -0.01,0.06 -0.01,0.05 -0.01,0.06 -0.01,0.05 -0.01,0.05 -0.01,0.04 -0.02,0.05 -0.01,0.05 -0.01,0.04 -0.02,0.04 -0.01,0.04 -0.01,0.04 -0.04,0.08 -0.03,0.07 -0.04,0.08 -0.04,0.07 -0.04,0.07 -0.05,0.07 -1.77,-0.3 0.02,-0.18 c 0.11,0.01 0.3,0.04 0.43,0.04 0.66,0 0.76,-0.71 0.82,-1.24 l 0.45,-3.7 c -0.31,-0.48 -0.98,-1.21 -1.18,-1.21 -0.19,0 -0.16,0.37 -0.67,0.37 -0.16,0 -0.47,-0.13 -0.47,-0.49 0,-0.28 0.22,-0.64 0.66,-0.64 0.8,0 1.57,1.15 2.43,2.24 0.5,0.62 2.41,3.46 2.41,4.38 0,0.46 -0.3,0.73 -0.67,0.73 -0.35,0 -0.56,-0.21 -0.56,-0.47 0,-0.45 0.61,-0.57 0.61,-0.82 0,-0.21 -0.09,-0.45 -0.33,-0.88 -0.26,-0.49 -0.67,-1.19 -1.39,-2.18 z" style="fill:#000000;stroke-width:0" /><polygon id="polygon3850" points="232.64,481.01 239.59,481.01 239.59,481.79 232.64,481.79 " style="fill:#000000;stroke-width:0" /><polygon id="polygon3852" points="232.64,478.65 239.59,478.65 239.59,479.43 232.64,479.43 " style="fill:#000000;stroke-width:0" /><polygon id="polygon3854" points="243.71,479.83 250.29,479.83 250.29,480.61 243.71,480.61 " style="fill:#000000;stroke-width:0" /><path id="path3856" d="m 251.79,483.26 0.05,0.08 0.04,0.07 0.05,0.08 0.05,0.07 0.05,0.07 0.04,0.07 0.05,0.06 0.05,0.06 0.05,0.06 0.05,0.05 0.05,0.06 0.05,0.05 0.05,0.04 0.05,0.05 0.06,0.04 0.05,0.04 0.05,0.04 0.06,0.03 0.06,0.03 0.05,0.03 0.06,0.03 0.06,0.02 0.06,0.03 0.06,0.02 0.06,0.01 0.06,0.02 0.06,0.01 0.07,0.01 0.06,0.01 0.07,0 0.06,0.01 0.07,0 c 0.78,0 1.28,-0.4 1.28,-1.21 0,-0.72 -0.38,-1.25 -0.96,-1.58 -0.24,-0.14 -0.54,-0.27 -0.99,-0.42 l 0,-0.17 c 0.67,0 0.94,-0.03 1.2,-0.12 0.82,-0.23 1.23,-0.81 1.23,-1.71 0,-1 -0.66,-1.81 -1.53,-1.81 -0.33,0 -0.58,0.06 -1.02,0.37 -0.33,0.24 -0.52,0.31 -0.72,0.31 -0.27,0 -0.48,-0.18 -0.48,-0.43 0,-0.42 0.46,-0.67 1.32,-0.67 1.05,0 2.17,0.34 2.74,1.1 0.34,0.45 0.54,1.03 0.54,1.65 0,0.61 -0.19,1.16 -0.52,1.52 -0.25,0.26 -0.46,0.4 -0.98,0.63 0.79,0.47 1.1,1.06 1.1,1.63 0,0.97 -0.74,1.62 -1.84,1.62 -1.23,0 -1.97,-0.8 -2.32,-1.92 z" style="fill:#000000;stroke-width:0" /><path id="path3858" d="m 260.6,480.64 -0.24,0.64 c -0.14,0.39 -0.36,0.88 -0.88,1.16 l -1.56,-0.39 0.03,-0.21 c 0.12,0.05 0.3,0.07 0.45,0.07 0.65,0 0.96,-0.48 1.16,-1.05 l 0.39,-1.09 -0.77,-1.19 c -0.38,-0.58 -0.68,-0.7 -0.82,-0.7 -0.3,0 -0.25,0.24 -0.56,0.24 -0.29,0 -0.45,-0.25 -0.45,-0.44 0,-0.26 0.19,-0.55 0.61,-0.55 0.67,0 1.01,0.51 1.39,1.08 l 0.74,1.16 0.47,-1.33 c 0.16,-0.43 0.38,-0.91 0.86,-0.91 0.69,0 1.22,1.13 1.36,1.31 l -0.16,0.12 c -0.25,-0.51 -0.53,-0.68 -0.72,-0.68 -0.53,0 -0.81,1.6 -1.16,2.33 l 0.65,1 c 0.16,0.26 0.29,0.45 0.65,0.45 0.2,0 0.26,-0.1 0.52,-0.1 0.3,0 0.46,0.27 0.46,0.49 0,0.25 -0.2,0.39 -0.58,0.39 -0.59,0 -1,-0.52 -1.31,-0.99 z" style="fill:#000000;stroke-width:0" /><polygon id="polygon3860" points="270.16,483.69 269.38,483.69 269.38,480.61 266.3,480.61 266.3,479.83 269.38,479.83 269.38,476.75 270.16,476.75 270.16,479.83 273.24,479.83 273.24,480.61 270.16,480.61 " style="fill:#000000;stroke-width:0" /><path id="path3862" d="m 281.22,485.27 -0.11,0.09 c -0.19,-0.25 -0.29,-0.31 -0.56,-0.31 l -2.45,0 -1.28,-2.8 c 0,0 -0.02,-0.03 -0.02,-0.06 0,-0.07 0.04,-0.09 0.15,-0.09 1.13,0 1.96,-0.38 2.51,-0.83 0.53,-0.42 0.79,-1.01 0.79,-1.77 0,-1.01 -0.77,-1.99 -1.59,-1.99 -0.24,0 -0.51,0.1 -0.84,0.37 -0.38,0.31 -0.6,0.37 -0.87,0.37 -0.34,0 -0.53,-0.15 -0.53,-0.45 0,-0.45 0.61,-0.73 1.49,-0.73 0.81,0 1.46,0.18 2.01,0.58 0.8,0.59 1.16,1.32 1.16,2.45 0,0.63 -0.11,1.08 -0.41,1.5 -0.68,0.94 -1.27,1.2 -2.96,1.51 l 0.48,1.01 2.29,0 c 0.19,0 0.28,0.07 0.32,0.15 z" style="fill:#000000;stroke-width:0" /></g>  <g style="font-style:normal;font-variant:normal;font-weight:normal;font-stretch:normal;letter-spacing:normal;word-spacing:normal;text-anchor:start;fill:none;fill-opacity:1;fill-rule:evenodd;stroke:#000000;stroke-linecap:butt;stroke-linejoin:miter;stroke-miterlimit:10.43299961;stroke-dasharray:none;stroke-dashoffset:0;stroke-opacity:1" id="g4038" transform="matrix(0.9,0,0,-0.9,-93.715242,613.81564)" xml:space="preserve" stroke-miterlimit="10.433" font-style="normal" font-variant="normal" font-weight="normal" font-stretch="normal" font-size-adjust="none" letter-spacing="normal" word-spacing="normal" ns0:text="$y=-x+5$" ns0:preamble="/Users/jonnygriffiths/CMEP/underground-inkscape-preamble.tex"><path style="fill:#000000;stroke-width:0" d="m 226.62,480.86 -0.01,0.08 -0.01,0.08 -0.01,0.07 -0.01,0.07 -0.01,0.07 -0.01,0.07 -0.01,0.06 -0.01,0.06 -0.01,0.06 -0.01,0.05 -0.01,0.06 -0.01,0.05 -0.01,0.05 -0.01,0.04 -0.02,0.05 -0.01,0.05 -0.01,0.04 -0.02,0.04 -0.01,0.04 -0.01,0.04 -0.04,0.08 -0.03,0.07 -0.04,0.08 -0.04,0.07 -0.04,0.07 -0.05,0.07 -1.77,-0.3 0.02,-0.18 c 0.11,0.01 0.3,0.04 0.43,0.04 0.66,0 0.76,-0.71 0.82,-1.24 l 0.45,-3.7 c -0.31,-0.48 -0.98,-1.21 -1.18,-1.21 -0.19,0 -0.16,0.37 -0.67,0.37 -0.16,0 -0.47,-0.13 -0.47,-0.49 0,-0.28 0.22,-0.64 0.66,-0.64 0.8,0 1.57,1.15 2.43,2.24 0.5,0.62 2.41,3.46 2.41,4.38 0,0.46 -0.3,0.73 -0.67,0.73 -0.35,0 -0.56,-0.21 -0.56,-0.47 0,-0.45 0.61,-0.57 0.61,-0.82 0,-0.21 -0.09,-0.45 -0.33,-0.88 -0.26,-0.49 -0.67,-1.19 -1.39,-2.18 z" id="path4040" /><polygon style="fill:#000000;stroke-width:0" points="232.64,481.01 239.59,481.01 239.59,481.79 232.64,481.79 " id="polygon4042" /><polygon style="fill:#000000;stroke-width:0" points="232.64,478.65 239.59,478.65 239.59,479.43 232.64,479.43 " id="polygon4044" /><polygon style="fill:#000000;stroke-width:0" points="243.71,479.83 250.29,479.83 250.29,480.61 243.71,480.61 " id="polygon4046" /><path style="fill:#000000;stroke-width:0" d="m 254.67,480.64 -0.23,0.64 c -0.14,0.39 -0.37,0.88 -0.89,1.16 l -1.56,-0.39 0.04,-0.21 c 0.12,0.05 0.29,0.07 0.45,0.07 0.65,0 0.95,-0.48 1.15,-1.05 l 0.39,-1.09 -0.76,-1.19 c -0.38,-0.58 -0.69,-0.7 -0.83,-0.7 -0.29,0 -0.25,0.24 -0.55,0.24 -0.3,0 -0.45,-0.25 -0.45,-0.44 0,-0.26 0.19,-0.55 0.61,-0.55 0.66,0 1,0.51 1.38,1.08 l 0.75,1.16 0.47,-1.33 c 0.15,-0.43 0.38,-0.91 0.86,-0.91 0.68,0 1.22,1.13 1.36,1.31 l -0.17,0.12 c -0.24,-0.51 -0.53,-0.68 -0.72,-0.68 -0.53,0 -0.8,1.6 -1.15,2.33 l 0.64,1 c 0.17,0.26 0.3,0.45 0.65,0.45 0.21,0 0.26,-0.1 0.52,-0.1 0.31,0 0.46,0.27 0.46,0.49 0,0.25 -0.2,0.39 -0.57,0.39 -0.59,0 -1.01,-0.52 -1.31,-0.99 z" id="path4048" /><polygon style="fill:#000000;stroke-width:0" points="264.23,483.69 263.45,483.69 263.45,480.61 260.37,480.61 260.37,479.83 263.45,479.83 263.45,476.75 264.23,476.75 264.23,479.83 267.31,479.83 267.31,480.61 264.23,480.61 " id="polygon4050" /><path style="fill:#000000;stroke-width:0" d="m 275.3,485.27 -0.11,0.09 c -0.19,-0.25 -0.3,-0.31 -0.57,-0.31 l -2.44,0 -1.29,-2.8 c 0,0 -0.01,-0.03 -0.01,-0.06 0,-0.07 0.04,-0.09 0.14,-0.09 1.13,0 1.96,-0.38 2.52,-0.83 0.53,-0.42 0.79,-1.01 0.79,-1.77 0,-1.01 -0.77,-1.99 -1.6,-1.99 -0.23,0 -0.5,0.1 -0.83,0.37 -0.38,0.31 -0.61,0.37 -0.88,0.37 -0.33,0 -0.53,-0.15 -0.53,-0.45 0,-0.45 0.62,-0.73 1.5,-0.73 0.8,0 1.45,0.18 2.01,0.58 0.8,0.59 1.15,1.32 1.15,2.45 0,0.63 -0.1,1.08 -0.41,1.5 -0.67,0.94 -1.26,1.2 -2.95,1.51 l 0.47,1.01 2.29,0 c 0.19,0 0.28,0.07 0.32,0.15 z" id="path4052" /></g>  <g ns0:preamble="/Users/jonnygriffiths/CMEP/underground-inkscape-preamble.tex" ns0:text="$y=x+3$" word-spacing="normal" letter-spacing="normal" font-size-adjust="none" font-stretch="normal" font-weight="normal" font-variant="normal" font-style="normal" stroke-miterlimit="10.433" xml:space="preserve" transform="matrix(0.9,0,0,-0.9,26.677773,580.22748)" id="g4244" style="font-style:normal;font-variant:normal;font-weight:normal;font-stretch:normal;letter-spacing:normal;word-spacing:normal;text-anchor:start;fill:none;fill-opacity:1;fill-rule:evenodd;stroke:#000000;stroke-linecap:butt;stroke-linejoin:miter;stroke-miterlimit:10.43299961;stroke-dasharray:none;stroke-dashoffset:0;stroke-opacity:1"><path id="path4246" d="m 226.62,480.86 -0.01,0.08 -0.01,0.08 -0.01,0.07 -0.01,0.07 -0.01,0.07 -0.01,0.07 -0.01,0.06 -0.01,0.06 -0.01,0.06 -0.01,0.05 -0.01,0.06 -0.01,0.05 -0.01,0.05 -0.01,0.04 -0.02,0.05 -0.01,0.05 -0.01,0.04 -0.02,0.04 -0.01,0.04 -0.01,0.04 -0.04,0.08 -0.03,0.07 -0.04,0.08 -0.04,0.07 -0.04,0.07 -0.05,0.07 -1.77,-0.3 0.02,-0.18 c 0.11,0.01 0.3,0.04 0.43,0.04 0.66,0 0.76,-0.71 0.82,-1.24 l 0.45,-3.7 c -0.31,-0.48 -0.98,-1.21 -1.18,-1.21 -0.19,0 -0.16,0.37 -0.67,0.37 -0.16,0 -0.47,-0.13 -0.47,-0.49 0,-0.28 0.22,-0.64 0.66,-0.64 0.8,0 1.57,1.15 2.43,2.24 0.5,0.62 2.41,3.46 2.41,4.38 0,0.46 -0.3,0.73 -0.67,0.73 -0.35,0 -0.56,-0.21 -0.56,-0.47 0,-0.45 0.61,-0.57 0.61,-0.82 0,-0.21 -0.09,-0.45 -0.33,-0.88 -0.26,-0.49 -0.67,-1.19 -1.39,-2.18 z" style="fill:#000000;stroke-width:0" /><polygon id="polygon4248" points="239.59,481.01 239.59,481.79 232.64,481.79 232.64,481.01 " style="fill:#000000;stroke-width:0" /><polygon id="polygon4250" points="239.59,478.65 239.59,479.43 232.64,479.43 232.64,478.65 " style="fill:#000000;stroke-width:0" /><path id="path4252" d="m 246.56,480.64 -0.24,0.64 c -0.14,0.39 -0.36,0.88 -0.88,1.16 l -1.56,-0.39 0.03,-0.21 c 0.12,0.05 0.3,0.07 0.45,0.07 0.65,0 0.96,-0.48 1.16,-1.05 l 0.39,-1.09 -0.77,-1.19 c -0.38,-0.58 -0.68,-0.7 -0.82,-0.7 -0.3,0 -0.25,0.24 -0.56,0.24 -0.3,0 -0.45,-0.25 -0.45,-0.44 0,-0.26 0.19,-0.55 0.62,-0.55 0.66,0 1,0.51 1.38,1.08 l 0.74,1.16 0.47,-1.33 c 0.16,-0.43 0.38,-0.91 0.86,-0.91 0.69,0 1.22,1.13 1.36,1.31 l -0.16,0.12 c -0.25,-0.51 -0.53,-0.68 -0.72,-0.68 -0.53,0 -0.81,1.6 -1.16,2.33 l 0.65,1 c 0.16,0.26 0.29,0.45 0.65,0.45 0.2,0 0.26,-0.1 0.52,-0.1 0.3,0 0.46,0.27 0.46,0.49 0,0.25 -0.2,0.39 -0.58,0.39 -0.59,0 -1,-0.52 -1.31,-0.99 z" style="fill:#000000;stroke-width:0" /><polygon id="polygon4254" points="255.34,483.69 255.34,480.61 252.26,480.61 252.26,479.83 255.34,479.83 255.34,476.75 256.12,476.75 256.12,479.83 259.2,479.83 259.2,480.61 256.12,480.61 256.12,483.69 " style="fill:#000000;stroke-width:0" /><path id="path4256" d="m 262.73,483.26 0.04,0.08 0.05,0.07 0.05,0.08 0.04,0.07 0.05,0.07 0.05,0.07 0.05,0.06 0.05,0.06 0.04,0.06 0.05,0.05 0.05,0.06 0.06,0.05 0.05,0.04 0.05,0.05 0.05,0.04 0.06,0.04 0.05,0.04 0.05,0.03 0.06,0.03 0.06,0.03 0.05,0.03 0.06,0.02 0.06,0.03 0.06,0.02 0.06,0.01 0.07,0.02 0.06,0.01 0.06,0.01 0.07,0.01 0.06,0 0.07,0.01 0.07,0 c 0.78,0 1.27,-0.4 1.27,-1.21 0,-0.72 -0.37,-1.25 -0.95,-1.58 -0.24,-0.14 -0.55,-0.27 -0.99,-0.42 l 0,-0.17 c 0.67,0 0.94,-0.03 1.2,-0.12 0.81,-0.23 1.23,-0.81 1.23,-1.71 0,-1 -0.66,-1.81 -1.54,-1.81 -0.33,0 -0.58,0.06 -1.01,0.37 -0.33,0.24 -0.52,0.31 -0.72,0.31 -0.27,0 -0.49,-0.18 -0.49,-0.43 0,-0.42 0.46,-0.67 1.33,-0.67 1.05,0 2.17,0.34 2.73,1.1 0.35,0.45 0.55,1.03 0.55,1.65 0,0.61 -0.19,1.16 -0.52,1.52 -0.25,0.26 -0.46,0.4 -0.98,0.63 0.79,0.47 1.1,1.06 1.1,1.63 0,0.97 -0.75,1.62 -1.85,1.62 -1.22,0 -1.97,-0.8 -2.31,-1.92 z" style="fill:#000000;stroke-width:0" /></g>  <g style="font-style:normal;font-variant:normal;font-weight:normal;font-stretch:normal;letter-spacing:normal;word-spacing:normal;text-anchor:start;fill:none;fill-opacity:1;fill-rule:evenodd;stroke:#000000;stroke-linecap:butt;stroke-linejoin:miter;stroke-miterlimit:10.43299961;stroke-dasharray:none;stroke-dashoffset:0;stroke-opacity:1" id="g4462" transform="matrix(0.9,0,0,-0.9,74.279816,515.2891)" xml:space="preserve" stroke-miterlimit="10.433" font-style="normal" font-variant="normal" font-weight="normal" font-stretch="normal" font-size-adjust="none" letter-spacing="normal" word-spacing="normal" ns0:text="$y=3x-5$" ns0:preamble="/Users/jonnygriffiths/CMEP/underground-inkscape-preamble.tex"><path style="fill:#000000;stroke-width:0" d="m 226.62,480.86 -0.01,0.08 -0.01,0.08 -0.01,0.07 -0.01,0.07 -0.01,0.07 -0.01,0.07 -0.01,0.06 -0.01,0.06 -0.01,0.06 -0.01,0.05 -0.01,0.06 -0.01,0.05 -0.01,0.05 -0.01,0.04 -0.02,0.05 -0.01,0.05 -0.01,0.04 -0.02,0.04 -0.01,0.04 -0.01,0.04 -0.04,0.08 -0.03,0.07 -0.04,0.08 -0.04,0.07 -0.04,0.07 -0.05,0.07 -1.77,-0.3 0.02,-0.18 c 0.11,0.01 0.3,0.04 0.43,0.04 0.66,0 0.76,-0.71 0.82,-1.24 l 0.45,-3.7 c -0.31,-0.48 -0.98,-1.21 -1.18,-1.21 -0.19,0 -0.16,0.37 -0.67,0.37 -0.16,0 -0.47,-0.13 -0.47,-0.49 0,-0.28 0.22,-0.64 0.66,-0.64 0.8,0 1.57,1.15 2.43,2.24 0.5,0.62 2.41,3.46 2.41,4.38 0,0.46 -0.3,0.73 -0.67,0.73 -0.35,0 -0.56,-0.21 -0.56,-0.47 0,-0.45 0.61,-0.57 0.61,-0.82 0,-0.21 -0.09,-0.45 -0.33,-0.88 -0.26,-0.49 -0.67,-1.19 -1.39,-2.18 z" id="path4464" /><polygon style="fill:#000000;stroke-width:0" points="232.64,481.01 239.59,481.01 239.59,481.79 232.64,481.79 " id="polygon4466" /><polygon style="fill:#000000;stroke-width:0" points="232.64,478.65 239.59,478.65 239.59,479.43 232.64,479.43 " id="polygon4468" /><path style="fill:#000000;stroke-width:0" d="m 243.68,483.26 0.04,0.08 0.05,0.07 0.05,0.08 0.04,0.07 0.05,0.07 0.05,0.07 0.05,0.06 0.04,0.06 0.05,0.06 0.05,0.05 0.05,0.06 0.05,0.05 0.06,0.04 0.05,0.05 0.05,0.04 0.05,0.04 0.06,0.04 0.05,0.03 0.06,0.03 0.06,0.03 0.05,0.03 0.06,0.02 0.06,0.03 0.06,0.02 0.06,0.01 0.06,0.02 0.07,0.01 0.06,0.01 0.07,0.01 0.06,0 0.07,0.01 0.07,0 c 0.78,0 1.27,-0.4 1.27,-1.21 0,-0.72 -0.38,-1.25 -0.95,-1.58 -0.24,-0.14 -0.55,-0.27 -1,-0.42 l 0,-0.17 c 0.68,0 0.95,-0.03 1.21,-0.12 0.81,-0.23 1.23,-0.81 1.23,-1.71 0,-1 -0.66,-1.81 -1.54,-1.81 -0.33,0 -0.58,0.06 -1.01,0.37 -0.33,0.24 -0.52,0.31 -0.72,0.31 -0.28,0 -0.49,-0.18 -0.49,-0.43 0,-0.42 0.46,-0.67 1.32,-0.67 1.05,0 2.18,0.34 2.74,1.1 0.35,0.45 0.55,1.03 0.55,1.65 0,0.61 -0.19,1.16 -0.52,1.52 -0.25,0.26 -0.46,0.4 -0.98,0.63 0.79,0.47 1.09,1.06 1.09,1.63 0,0.97 -0.74,1.62 -1.84,1.62 -1.23,0 -1.97,-0.8 -2.31,-1.92 z" id="path4470" /><path style="fill:#000000;stroke-width:0" d="m 252.48,480.64 -0.23,0.64 c -0.15,0.39 -0.37,0.88 -0.89,1.16 l -1.56,-0.39 0.04,-0.21 c 0.12,0.05 0.29,0.07 0.45,0.07 0.65,0 0.95,-0.48 1.15,-1.05 l 0.39,-1.09 -0.76,-1.19 c -0.38,-0.58 -0.69,-0.7 -0.83,-0.7 -0.3,0 -0.25,0.24 -0.56,0.24 -0.29,0 -0.44,-0.25 -0.44,-0.44 0,-0.26 0.18,-0.55 0.61,-0.55 0.66,0 1,0.51 1.38,1.08 l 0.75,1.16 0.47,-1.33 c 0.15,-0.43 0.37,-0.91 0.86,-0.91 0.68,0 1.21,1.13 1.36,1.31 l -0.17,0.12 c -0.25,-0.51 -0.53,-0.68 -0.72,-0.68 -0.53,0 -0.8,1.6 -1.16,2.33 l 0.65,1 c 0.17,0.26 0.3,0.45 0.65,0.45 0.2,0 0.26,-0.1 0.52,-0.1 0.31,0 0.46,0.27 0.46,0.49 0,0.25 -0.2,0.39 -0.58,0.39 -0.59,0 -1,-0.52 -1.31,-0.99 z" id="path4472" /><polygon style="fill:#000000;stroke-width:0" points="258.37,479.83 264.95,479.83 264.95,480.61 258.37,480.61 " id="polygon4474" /><path style="fill:#000000;stroke-width:0" d="m 273.1,485.27 -0.1,0.09 c -0.19,-0.25 -0.3,-0.31 -0.57,-0.31 l -2.44,0 -1.29,-2.8 c 0,0 -0.01,-0.03 -0.01,-0.06 0,-0.07 0.03,-0.09 0.14,-0.09 1.13,0 1.96,-0.38 2.52,-0.83 0.53,-0.42 0.79,-1.01 0.79,-1.77 0,-1.01 -0.77,-1.99 -1.6,-1.99 -0.23,0 -0.51,0.1 -0.84,0.37 -0.37,0.31 -0.6,0.37 -0.87,0.37 -0.33,0 -0.53,-0.15 -0.53,-0.45 0,-0.45 0.61,-0.73 1.5,-0.73 0.8,0 1.45,0.18 2,0.58 0.81,0.59 1.16,1.32 1.16,2.45 0,0.63 -0.1,1.08 -0.41,1.5 -0.67,0.94 -1.26,1.2 -2.95,1.51 l 0.47,1.01 2.29,0 c 0.19,0 0.28,0.07 0.32,0.15 z" id="path4476" /></g>  <path id="path4587" d="m 160.57421,176.13339 30.20185,-18.69638" style="fill:none;fill-rule:evenodd;stroke:#000000;stroke-width:0.61288893px;stroke-linecap:butt;stroke-linejoin:miter;stroke-opacity:1" />
  <g style="font-style:normal;font-variant:normal;font-weight:normal;font-stretch:normal;letter-spacing:normal;word-spacing:normal;text-anchor:start;fill:none;fill-opacity:1;fill-rule:evenodd;stroke:#000000;stroke-linecap:butt;stroke-linejoin:miter;stroke-miterlimit:10.43299961;stroke-dasharray:none;stroke-dashoffset:0;stroke-opacity:1" id="g4936" transform="matrix(1.0517385,0,0,-1.0517385,-33.158657,672.53343)" xml:space="preserve" stroke-miterlimit="10.433" font-style="normal" font-variant="normal" font-weight="normal" font-stretch="normal" font-size-adjust="none" letter-spacing="normal" word-spacing="normal" ns0:text="$(1,4)$" ns0:preamble="/Users/jonnygriffiths/CMEP/underground-inkscape-preamble.tex"><path style="fill:#000000;stroke-width:0" d="m 227.02,475.33 -0.15,0.13 -0.14,0.13 -0.14,0.13 -0.13,0.13 -0.12,0.13 -0.12,0.13 -0.11,0.13 -0.1,0.14 -0.1,0.13 -0.09,0.13 -0.08,0.14 -0.08,0.14 -0.07,0.14 -0.07,0.14 -0.06,0.14 -0.06,0.14 -0.06,0.15 -0.04,0.15 -0.05,0.16 -0.04,0.15 -0.03,0.16 -0.03,0.16 -0.03,0.17 -0.02,0.17 -0.03,0.17 -0.01,0.18 -0.02,0.18 -0.01,0.18 -0.01,0.19 0,0.19 0,0.2 -0.01,0.21 c 0,2.27 0.37,3.37 2.01,4.78 l -0.11,0.19 c -1.88,-1.13 -2.91,-2.83 -2.91,-5.01 0,-2.01 1.01,-4 2.88,-5.07 z" id="path4938" /><path style="fill:#000000;stroke-width:0" d="m 232.03,477.23 0,0.18 c -0.89,0 -1.12,0.21 -1.12,0.72 l 0,7.05 -0.11,0.04 -2.11,-1.08 0,-0.16 0.32,0.11 c 0.21,0.09 0.41,0.15 0.53,0.15 0.25,0 0.35,-0.18 0.35,-0.58 l 0,-5.3 c 0,-0.65 -0.25,-0.9 -1.12,-0.95 l 0,-0.18 z" id="path4940" /><path style="fill:#000000;stroke-width:0" d="m 234.28,475.57 0.08,0.04 0.07,0.04 0.07,0.04 0.07,0.04 0.07,0.05 0.07,0.04 0.06,0.05 0.06,0.05 0.06,0.05 0.06,0.06 0.05,0.05 0.06,0.06 0.05,0.05 0.05,0.06 0.04,0.06 0.05,0.06 0.04,0.06 0.04,0.06 0.04,0.07 0.03,0.06 0.03,0.06 0.03,0.07 0.03,0.06 0.02,0.07 0.02,0.07 0.02,0.06 0.02,0.07 0.01,0.07 0.01,0.06 0.01,0.07 0,0.07 0,0.06 c 0,0.62 -0.41,1.03 -0.94,1.03 -0.43,0 -0.71,-0.27 -0.71,-0.67 0,-0.41 0.25,-0.61 0.68,-0.61 0.13,0 0.25,0.05 0.35,0.05 0.09,0 0.16,-0.07 0.16,-0.15 0,-0.39 -0.33,-0.83 -0.98,-1.26 z" id="path4942" /><polygon style="fill:#000000;stroke-width:0" points="242.29,485.22 241.77,485.22 238.06,479.96 238.54,479.96 241.37,484.01 241.37,479.96 238.54,479.96 238.06,479.96 238.06,479.21 241.37,479.21 241.37,477.23 242.29,477.23 242.29,479.21 243.51,479.21 243.51,479.96 242.29,479.96 " id="polygon4944" /><path style="fill:#000000;stroke-width:0" d="m 244.19,485.03 0.15,-0.13 0.15,-0.13 0.14,-0.12 0.14,-0.13 0.12,-0.13 0.12,-0.13 0.11,-0.13 0.1,-0.13 0.1,-0.13 0.09,-0.13 0.09,-0.14 0.08,-0.14 0.07,-0.14 0.07,-0.14 0.06,-0.14 0.05,-0.15 0.05,-0.14 0.05,-0.15 0.04,-0.16 0.04,-0.16 0.03,-0.15 0.03,-0.17 0.03,-0.16 0.02,-0.17 0.02,-0.18 0.02,-0.18 0.01,-0.18 0.01,-0.18 0.01,-0.19 0,-0.2 0,-0.2 0.01,-0.2 c 0,-2.29 -0.33,-3.41 -2.01,-4.79 l 0.1,-0.19 c 1.88,1.15 2.92,2.83 2.92,5.01 0,2.01 -1.07,3.98 -2.88,5.07 z" id="path4946" /></g>  <g ns0:preamble="/Users/jonnygriffiths/CMEP/underground-inkscape-preamble.tex" ns0:text="$(4,7)$" word-spacing="normal" letter-spacing="normal" font-size-adjust="none" font-stretch="normal" font-weight="normal" font-variant="normal" font-style="normal" stroke-miterlimit="10.433" xml:space="preserve" transform="matrix(1.0517385,0,0,-1.0517385,22.569292,631.86708)" id="g5188" style="font-style:normal;font-variant:normal;font-weight:normal;font-stretch:normal;letter-spacing:normal;word-spacing:normal;text-anchor:start;fill:none;fill-opacity:1;fill-rule:evenodd;stroke:#000000;stroke-linecap:butt;stroke-linejoin:miter;stroke-miterlimit:10.43299961;stroke-dasharray:none;stroke-dashoffset:0;stroke-opacity:1"><path id="path5190" d="m 227.02,475.33 -0.15,0.13 -0.14,0.13 -0.14,0.13 -0.13,0.13 -0.12,0.13 -0.12,0.13 -0.11,0.13 -0.1,0.14 -0.1,0.13 -0.09,0.13 -0.08,0.14 -0.08,0.14 -0.07,0.14 -0.07,0.14 -0.06,0.14 -0.06,0.14 -0.06,0.15 -0.04,0.15 -0.05,0.16 -0.04,0.15 -0.03,0.16 -0.03,0.16 -0.03,0.17 -0.02,0.17 -0.03,0.17 -0.01,0.18 -0.02,0.18 -0.01,0.18 -0.01,0.19 0,0.19 0,0.2 -0.01,0.21 c 0,2.27 0.37,3.37 2.01,4.78 l -0.11,0.19 c -1.88,-1.13 -2.91,-2.83 -2.91,-5.01 0,-2.01 1.01,-4 2.88,-5.07 z" style="fill:#000000;stroke-width:0" /><polygon id="polygon5192" points="231.75,485.22 231.23,485.22 227.52,479.96 227.99,479.96 230.82,484.01 230.82,479.96 227.99,479.96 227.52,479.96 227.52,479.21 230.82,479.21 230.82,477.23 231.75,477.23 231.75,479.21 232.96,479.21 232.96,479.96 231.75,479.96 " style="fill:#000000;stroke-width:0" /><path id="path5194" d="m 234.28,475.57 0.08,0.04 0.07,0.04 0.07,0.04 0.07,0.04 0.07,0.05 0.07,0.04 0.06,0.05 0.06,0.05 0.06,0.05 0.06,0.06 0.05,0.05 0.06,0.06 0.05,0.05 0.05,0.06 0.04,0.06 0.05,0.06 0.04,0.06 0.04,0.06 0.04,0.07 0.03,0.06 0.03,0.06 0.03,0.07 0.03,0.06 0.02,0.07 0.02,0.07 0.02,0.06 0.02,0.07 0.01,0.07 0.01,0.06 0.01,0.07 0,0.07 0,0.06 c 0,0.62 -0.41,1.03 -0.94,1.03 -0.43,0 -0.71,-0.27 -0.71,-0.67 0,-0.41 0.25,-0.61 0.68,-0.61 0.13,0 0.25,0.05 0.35,0.05 0.09,0 0.16,-0.07 0.16,-0.15 0,-0.39 -0.33,-0.83 -0.98,-1.26 z" style="fill:#000000;stroke-width:0" /><path id="path5196" d="m 243.22,484.86 0,0.19 -4.35,0 -0.71,-1.73 0.21,-0.11 c 0.5,0.8 0.7,0.97 1.38,0.97 l 2.54,0 -2.34,-7.04 0.77,0 z" style="fill:#000000;stroke-width:0" /><path id="path5198" d="m 244.19,485.03 0.15,-0.13 0.15,-0.13 0.14,-0.12 0.14,-0.13 0.12,-0.13 0.12,-0.13 0.11,-0.13 0.1,-0.13 0.1,-0.13 0.09,-0.13 0.09,-0.14 0.08,-0.14 0.07,-0.14 0.07,-0.14 0.06,-0.14 0.05,-0.15 0.05,-0.14 0.05,-0.15 0.04,-0.16 0.04,-0.16 0.03,-0.15 0.03,-0.17 0.03,-0.16 0.02,-0.17 0.02,-0.18 0.02,-0.18 0.01,-0.18 0.01,-0.18 0.01,-0.19 0,-0.2 0,-0.2 0.01,-0.2 c 0,-2.29 -0.33,-3.41 -2.01,-4.79 l 0.1,-0.19 c 1.88,1.15 2.92,2.83 2.92,5.01 0,2.01 -1.07,3.98 -2.88,5.07 z" style="fill:#000000;stroke-width:0" /></g>  <g style="font-style:normal;font-variant:normal;font-weight:normal;font-stretch:normal;letter-spacing:normal;word-spacing:normal;text-anchor:start;fill:none;fill-opacity:1;fill-rule:evenodd;stroke:#000000;stroke-linecap:butt;stroke-linejoin:miter;stroke-miterlimit:10.43299961;stroke-dasharray:none;stroke-dashoffset:0;stroke-opacity:1" id="g5452" transform="matrix(1.5,0,0,-1.5,-16.08869,948.77919)" xml:space="preserve" stroke-miterlimit="10.433" font-style="normal" font-variant="normal" font-weight="normal" font-stretch="normal" font-size-adjust="none" letter-spacing="normal" word-spacing="normal" ns0:text="$x$" ns0:preamble="/Users/jonnygriffiths/CMEP/underground-inkscape-preamble.tex"><path style="fill:#000000;stroke-width:0" d="m 227.03,480.64 -0.23,0.64 c -0.15,0.39 -0.37,0.88 -0.89,1.16 l -1.56,-0.39 0.04,-0.21 c 0.12,0.05 0.29,0.07 0.45,0.07 0.65,0 0.95,-0.48 1.15,-1.05 l 0.39,-1.09 -0.76,-1.19 c -0.38,-0.58 -0.69,-0.7 -0.83,-0.7 -0.3,0 -0.25,0.24 -0.55,0.24 -0.3,0 -0.45,-0.25 -0.45,-0.44 0,-0.26 0.19,-0.55 0.61,-0.55 0.66,0 1,0.51 1.38,1.08 l 0.74,1.16 0.48,-1.33 c 0.15,-0.43 0.38,-0.91 0.86,-0.91 0.68,0 1.21,1.13 1.36,1.31 l -0.17,0.12 c -0.25,-0.51 -0.53,-0.68 -0.72,-0.68 -0.53,0 -0.8,1.6 -1.15,2.33 l 0.64,1 c 0.17,0.26 0.3,0.45 0.65,0.45 0.2,0 0.26,-0.1 0.52,-0.1 0.31,0 0.46,0.27 0.46,0.49 0,0.25 -0.2,0.39 -0.57,0.39 -0.6,0 -1.01,-0.52 -1.32,-0.99 z" id="path5454" /></g>  <g ns0:preamble="/Users/jonnygriffiths/CMEP/underground-inkscape-preamble.tex" ns0:text="$y$" word-spacing="normal" letter-spacing="normal" font-size-adjust="none" font-stretch="normal" font-weight="normal" font-variant="normal" font-style="normal" stroke-miterlimit="10.433" xml:space="preserve" transform="matrix(1.5,0,0,-1.5,-167.45785,770.29913)" id="g5712" style="font-style:normal;font-variant:normal;font-weight:normal;font-stretch:normal;letter-spacing:normal;word-spacing:normal;text-anchor:start;fill:none;fill-opacity:1;fill-rule:evenodd;stroke:#000000;stroke-linecap:butt;stroke-linejoin:miter;stroke-miterlimit:10.43299961;stroke-dasharray:none;stroke-dashoffset:0;stroke-opacity:1"><path id="path5714" d="m 226.62,480.86 -0.01,0.08 -0.01,0.08 -0.01,0.07 -0.01,0.07 -0.01,0.07 -0.01,0.07 -0.01,0.06 -0.01,0.06 -0.01,0.06 -0.01,0.05 -0.01,0.06 -0.01,0.05 -0.01,0.05 -0.01,0.04 -0.02,0.05 -0.01,0.05 -0.01,0.04 -0.02,0.04 -0.01,0.04 -0.01,0.04 -0.04,0.08 -0.03,0.07 -0.04,0.08 -0.04,0.07 -0.04,0.07 -0.05,0.07 -1.77,-0.3 0.02,-0.18 c 0.11,0.01 0.3,0.04 0.43,0.04 0.66,0 0.76,-0.71 0.82,-1.24 l 0.45,-3.7 c -0.31,-0.48 -0.98,-1.21 -1.18,-1.21 -0.19,0 -0.16,0.37 -0.67,0.37 -0.16,0 -0.47,-0.13 -0.47,-0.49 0,-0.28 0.22,-0.64 0.66,-0.64 0.8,0 1.57,1.15 2.43,2.24 0.5,0.62 2.41,3.46 2.41,4.38 0,0.46 -0.3,0.73 -0.67,0.73 -0.35,0 -0.56,-0.21 -0.56,-0.47 0,-0.45 0.61,-0.57 0.61,-0.82 0,-0.21 -0.09,-0.45 -0.33,-0.88 -0.26,-0.49 -0.67,-1.19 -1.39,-2.18 z" style="fill:#000000;stroke-width:0" /></g>  <g id="g4389" transform="matrix(1.1366324,0,0,-1.1366324,-101.95088,694.09474)" xml:space="preserve" stroke-miterlimit="10.433" font-style="normal" font-variant="normal" font-weight="normal" font-stretch="normal" font-size-adjust="none" letter-spacing="normal" word-spacing="normal" ns0:text="$(0,5)$" ns0:preamble="/Users/prmb/CMEP/underground-inkscape-preamble.tex" style="font-style:normal;font-variant:normal;font-weight:normal;font-stretch:normal;letter-spacing:normal;word-spacing:normal;text-anchor:start;fill:none;fill-opacity:1;fill-rule:evenodd;stroke:#000000;stroke-linecap:butt;stroke-linejoin:miter;stroke-miterlimit:10.43299961;stroke-dasharray:none;stroke-dashoffset:0;stroke-opacity:1"><path style="fill:#000000;stroke-width:0" d="m 227.02,475.33 -0.15,0.13 -0.14,0.13 -0.14,0.13 -0.13,0.13 -0.12,0.13 -0.12,0.13 -0.11,0.13 -0.1,0.14 -0.1,0.13 -0.09,0.13 -0.08,0.14 -0.08,0.14 -0.07,0.14 -0.07,0.14 -0.06,0.14 -0.06,0.14 -0.06,0.15 -0.04,0.15 -0.05,0.16 -0.04,0.15 -0.03,0.16 -0.03,0.16 -0.03,0.17 -0.02,0.17 -0.03,0.17 -0.01,0.18 -0.02,0.18 -0.01,0.18 -0.01,0.19 0,0.19 0,0.2 -0.01,0.21 c 0,2.27 0.37,3.37 2.01,4.78 l -0.11,0.19 c -1.88,-1.13 -2.91,-2.83 -2.91,-5.01 0,-2.01 1.01,-4 2.88,-5.07 z" id="path4391" /><path style="fill:#000000;stroke-width:0" d="m 233,481.13 -0.01,0.23 -0.01,0.22 -0.01,0.21 -0.02,0.21 -0.03,0.21 -0.03,0.2 -0.04,0.19 -0.04,0.19 -0.05,0.18 -0.06,0.18 -0.06,0.17 -0.06,0.17 -0.07,0.16 -0.08,0.15 -0.08,0.14 -0.08,0.14 -0.09,0.13 -0.1,0.13 -0.09,0.11 -0.1,0.11 -0.11,0.1 -0.11,0.1 -0.11,0.08 -0.12,0.08 -0.12,0.07 -0.13,0.06 -0.13,0.05 -0.13,0.04 -0.13,0.03 -0.14,0.03 -0.14,0.01 -0.14,0.01 c -1.9,0 -2.72,-1.93 -2.72,-4.02 0,-1.93 0.65,-4.13 2.67,-4.13 l 0,0.31 c -1.02,0 -1.54,1.34 -1.54,3.74 0,2.4 0.53,3.79 1.51,3.79 1.04,0 1.56,-1.38 1.56,-3.84 l 0,0 c 0,-2.34 -0.53,-3.69 -1.53,-3.69 l 0,-0.31 c 1.92,0 2.67,2.03 2.67,4.06 z" id="path4393" /><path style="fill:#000000;stroke-width:0" d="m 234.28,475.57 0.08,0.04 0.07,0.04 0.07,0.04 0.07,0.04 0.07,0.05 0.07,0.04 0.06,0.05 0.06,0.05 0.06,0.05 0.06,0.06 0.05,0.05 0.06,0.06 0.05,0.05 0.05,0.06 0.04,0.06 0.05,0.06 0.04,0.06 0.04,0.06 0.04,0.07 0.03,0.06 0.03,0.06 0.03,0.07 0.03,0.06 0.02,0.07 0.02,0.07 0.02,0.06 0.02,0.07 0.01,0.07 0.01,0.06 0.01,0.07 0,0.07 0,0.06 c 0,0.62 -0.41,1.03 -0.94,1.03 -0.43,0 -0.71,-0.27 -0.71,-0.67 0,-0.41 0.25,-0.61 0.68,-0.61 0.13,0 0.25,0.05 0.35,0.05 0.09,0 0.16,-0.07 0.16,-0.15 0,-0.39 -0.33,-0.83 -0.98,-1.26 z" id="path4395" /><path style="fill:#000000;stroke-width:0" d="m 243.09,485.27 -0.1,0.09 c -0.19,-0.25 -0.3,-0.31 -0.57,-0.31 l -2.44,0 -1.29,-2.8 c 0,0 -0.01,-0.03 -0.01,-0.06 0,-0.07 0.03,-0.09 0.14,-0.09 1.13,0 1.96,-0.38 2.51,-0.83 0.54,-0.42 0.79,-1.01 0.79,-1.77 0,-1.01 -0.76,-1.99 -1.59,-1.99 -0.24,0 -0.51,0.1 -0.84,0.37 -0.37,0.31 -0.6,0.37 -0.87,0.37 -0.33,0 -0.53,-0.15 -0.53,-0.45 0,-0.45 0.61,-0.73 1.5,-0.73 0.8,0 1.45,0.18 2,0.58 0.81,0.59 1.16,1.32 1.16,2.45 0,0.63 -0.1,1.08 -0.41,1.5 -0.67,0.94 -1.27,1.2 -2.95,1.51 l 0.47,1.01 2.29,0 c 0.19,0 0.28,0.07 0.32,0.15 z" id="path4397" /><path style="fill:#000000;stroke-width:0" d="m 244.19,485.03 0.15,-0.13 0.15,-0.13 0.14,-0.12 0.14,-0.13 0.12,-0.13 0.12,-0.13 0.11,-0.13 0.1,-0.13 0.1,-0.13 0.09,-0.13 0.09,-0.14 0.08,-0.14 0.07,-0.14 0.07,-0.14 0.06,-0.14 0.05,-0.15 0.05,-0.14 0.05,-0.15 0.04,-0.16 0.04,-0.16 0.03,-0.15 0.03,-0.17 0.03,-0.16 0.02,-0.17 0.02,-0.18 0.02,-0.18 0.01,-0.18 0.01,-0.18 0.01,-0.19 0,-0.2 0,-0.2 0.01,-0.2 c 0,-2.29 -0.33,-3.41 -2.01,-4.79 l 0.1,-0.19 c 1.88,1.15 2.92,2.83 2.92,5.01 0,2.01 -1.07,3.98 -2.88,5.07 z" id="path4399" /></g></svg>