<?xml version='1.0' ?><svg xmlns:ns0="http://www.iki.fi/pav/software/textext/" xmlns:dc="http://purl.org/dc/elements/1.1/" xmlns:cc="http://creativecommons.org/ns#" xmlns:rdf="http://www.w3.org/1999/02/22-rdf-syntax-ns#" xmlns:svg="http://www.w3.org/2000/svg" xmlns="http://www.w3.org/2000/svg" id="svg2" version="1.1" width="392.00132" height="324.1893" viewBox="254.34675088923748 498.2801602982399 517.5437607435299 428.0142462653249" preserveAspectRatio="none">
  <metadata id="metadata115">
    <rdf:RDF>
      <cc:Work rdf:about="">
        <dc:format>image/svg+xml</dc:format>
        <dc:type rdf:resource="http://purl.org/dc/dcmitype/StillImage" />
        <dc:title />
      </cc:Work>
    </rdf:RDF>
  </metadata>
  <defs id="defs113" />
  <g transform="translate(273.07394,503.49765)" style="stroke-width:1;stroke-linecap:square;stroke-linejoin:miter;stroke-miterlimit:10;stroke-dasharray:none;stroke-dashoffset:0" id="g6" stroke-miterlimit="10.000">
    <clipPath id="clip1">
      <path id="path9" d="m 0,0 0,417 498,0 0,-417 z" />
    </clipPath>
    <g id="g11" clip-path="url(#clip1)">
      <g style="fill:none;stroke:#000000;stroke-width:2;stroke-linecap:butt;stroke-opacity:1" id="g13">
        <path id="path15" d="m 125,3 0,414" />
      </g>
    </g>
    <clipPath id="clip2">
      <path id="path18" d="m 0,0 0,417 498,0 0,-417 z" />
    </clipPath>
    <g transform="translate(0,-2.8165553)" id="g20" clip-path="url(#clip2)">
      <g style="fill:#000000;fill-opacity:1;fill-rule:evenodd;stroke:none" id="g22">
        <path id="path24" d="m 125,2 -4,16 8,0" />
      </g>
    </g>
    <clipPath id="clip3">
      <path id="path27" d="m 0,0 0,417 498,0 0,-417 z" />
    </clipPath>
    <g id="g29" clip-path="url(#clip3)">
      <g style="fill:none;stroke:#000000;stroke-width:2;stroke-linecap:butt;stroke-opacity:1" id="g31">
        <path id="path33" d="m 0,257 495,0" />
      </g>
    </g>
    <clipPath id="clip4">
      <path id="path36" d="m 0,0 0,417 498,0 0,-417 z" />
    </clipPath>
    <g transform="translate(2.8165553,0)" id="g38" clip-path="url(#clip4)">
      <g style="fill:#000000;fill-opacity:1;fill-rule:evenodd;stroke:none" id="g40">
        <path id="path42" d="m 496,257 -16,-4 0,8" />
      </g>
    </g>
    <g id="misc" />
    <g id="layer0">
      <clipPath id="clip5">
        <path id="path47" d="m 0,0 0,417 498,0 0,-417 z" />
      </clipPath>
      <g id="g49" clip-path="url(#clip5)">
        <g style="fill:none;stroke:#006400;stroke-width:1.5;stroke-linecap:round;stroke-linejoin:round;stroke-opacity:1" id="g51">
          <path id="path53" d="m 0,327.17 3.8906,-7.34 3.8906,-8.03 3.8908,-8.65 3.89,-9.24 3.891,-9.77 1.945,-5.06 1.946,-5.17 1.945,-5.28 1.945,-5.36 1.946,-5.45 1.945,-5.53 1.945,-5.6 1.946,-5.66 1.945,-5.7 1.945,-5.75 1.946,-5.79 1.945,-5.81 1.945,-5.83 1.946,-5.83 1.945,-5.84 1.945,-5.82 1.945,-5.81 1.946,-5.77 1.945,-5.74 1.945,-5.7 1.946,-5.64 1.945,-5.59 1.945,-5.51 1.946,-5.43 1.945,-5.34 1.945,-5.25 1.946,-5.15 1.945,-5.04 3.89,-9.7 3.891,-9.18 3.891,-8.59 3.89,-7.944 3.891,-7.259 3.891,-6.527 3.894,-5.755 3.89,-4.949 3.89,-4.112 3.89,-3.251 3.89,-2.37 1.94,-0.85 1.95,-0.625 3.89,-0.571 1.95,0.056 1.94,0.282 3.89,1.243 1.95,0.959 1.94,1.182 3.89,3.026 3.89,3.893 3.89,4.737 3.89,5.551 3.89,6.332 3.9,7.075 3.89,7.775 3.89,8.432 3.89,9.03 3.89,9.57 1.94,4.98 1.95,5.09 1.94,5.2 1.95,5.29 1.94,5.39 1.95,5.47 1.95,5.55 1.94,5.61 1.95,5.67 1.94,5.72 1.95,5.76 1.94,5.79 1.95,5.82 1.94,5.83 1.95,5.83 1.94,5.84 1.95,5.82 1.94,5.8 1.95,5.77 1.94,5.73 1.95,5.68 1.95,5.63 1.94,5.56 1.95,5.49 1.94,5.42 1.95,5.32 1.94,5.22 1.95,5.12 3.89,9.89 3.89,9.38 3.89,8.82 3.89,8.19 3.89,7.52 3.89,6.81 3.89,6.05 3.89,5.25 3.89,4.43 3.89,3.57 3.89,2.71 3.89,1.81 1.95,0.56 1.94,0.35 3.9,0 1.94,-0.34 1.95,-0.57 3.89,-1.8 3.89,-2.7 3.89,-3.57 3.89,-4.43 3.89,-5.25 3.89,-6.04 3.89,-6.8 3.89,-7.52 3.89,-8.19 3.89,-8.81 3.89,-9.38 3.89,-9.89 1.95,-5.12 1.94,-5.22 1.95,-5.32 1.95,-5.41 1.94,-5.49 1.95,-5.57 1.94,-5.63 1.95,-5.68 1.94,-5.73 1.95,-5.77 1.94,-5.8 1.95,-5.82 1.94,-5.83 1.95,-5.84 1.94,-5.83 1.95,-5.81 1.94,-5.79 1.95,-5.76 1.94,-5.72 1.95,-5.68 1.95,-5.61 1.94,-5.55 1.95,-5.47 1.94,-5.39 1.95,-5.29 1.94,-5.2 1.95,-5.09 1.94,-4.98 3.89,-9.58 3.89,-9.03 3.89,-8.433 3.89,-7.778 3.9,-7.079 3.89,-6.336 3.89,-5.555 3.89,-4.74 3.89,-3.897 3.89,-3.031 3.89,-2.145 1.94,-0.737 1.95,-0.51 3.89,-0.342 0.97,0.056 0.98,0.114 1.94,0.396 3.89,1.47 1.95,1.072 1.94,1.294 3.89,3.247 3.89,4.108 3.89,4.945 3.9,5.752 3.89,6.523 3.89,7.256 3.89,7.94 3.89,8.59 3.89,9.17 3.89,9.71 1.94,5.03 1.95,5.15 1.94,5.25 1.95,5.34" />
          <title id="title55">Function f</title>
          <desc id="desc57">f(x) = 3cos(x) + 1</desc>
        </g>
      </g>
      <clipPath id="clip6">
        <path id="path60" d="m 0,0 0,417 498,0 0,-417 z" />
      </clipPath>
      <g id="g62" clip-path="url(#clip6)">
        <g style="fill:none;stroke:#cc0000;stroke-width:1.5;stroke-linecap:round;stroke-linejoin:round;stroke-opacity:1" id="g64">
          <path id="path66" d="m 0,316.85 3.8906,6.04 3.8906,5.65 3.8908,5.22 3.89,4.75 3.891,4.25 3.891,3.74 3.89,3.2 3.891,2.63 3.891,2.06 3.89,1.47 3.891,0.87 3.891,0.27 3.89,-0.34 3.891,-0.94 3.89,-1.54 3.891,-2.13 3.891,-2.7 3.89,-3.26 3.891,-3.8 3.89,-4.31 3.891,-4.81 3.891,-5.27 3.89,-5.69 3.891,-6.09 3.891,-6.45 3.894,-6.77 3.89,-7.04 3.89,-7.28 3.89,-7.48 3.89,-7.61 3.89,-7.72 3.89,-7.77 3.89,-7.78 3.89,-7.73 3.89,-7.65 3.89,-7.51 3.89,-7.33 3.89,-7.11 3.89,-6.85 3.89,-6.53 3.9,-6.19 3.89,-5.8 3.89,-5.38 3.89,-4.93 3.89,-4.44 3.89,-3.94 3.89,-3.4 3.89,-2.84 3.89,-2.28 3.89,-1.69 3.89,-1.1 3.89,-0.49 3.89,0.11 3.89,0.72 3.89,1.31 3.9,1.91 3.89,2.49 3.89,3.05 3.89,3.61 3.89,4.12 3.89,4.63 3.89,5.1 3.89,5.54 3.89,5.94 3.89,6.32 3.89,6.65 3.89,6.95 3.89,7.2 3.89,7.4 3.89,7.57 3.89,7.69 3.89,7.75 3.9,7.78 3.89,7.76 3.89,7.68 3.89,7.57 3.89,7.41 3.89,7.2 3.89,6.94 3.89,6.66 3.89,6.32 3.89,5.95 3.89,5.54 3.89,5.1 3.89,4.63 3.89,4.13 3.89,3.6 3.9,3.06 3.89,2.49 3.89,1.91 3.89,1.32 3.89,0.72 3.89,0.11 3.89,-0.49 3.89,-1.09 3.89,-1.69 3.89,-2.27 3.89,-2.85 3.89,-3.4 3.89,-3.93 3.89,-4.44 3.89,-4.93 3.89,-5.37 3.89,-5.8 3.9,-6.19 3.89,-6.53 3.89,-6.84 3.89,-7.11 3.89,-7.33 3.89,-7.52 3.89,-7.64 3.89,-7.74 3.89,-7.77 3.89,-7.77 3.89,-7.72 3.89,-7.62 3.89,-7.47 3.89,-7.28 3.89,-7.05 3.9,-6.77 3.89,-6.45 3.89,-6.09 3.89,-5.7 3.89,-5.27 3.89,-4.8 3.89,-4.32 3.89,-3.81 3.89,-3.26" />
          <title id="title68">Function g</title>
          <desc id="desc70">g(x) = 2sin(x)</desc>
        </g>
      </g>
      <clipPath id="clip7">
        <path id="path73" d="m 0,0 0,417 498,0 0,-417 z" />
      </clipPath>
      <path id="path79" d="m 188,256.76007 0,-94.7568" style="fill:none;stroke:#7f007f;stroke-width:0.9998772;stroke-linecap:round;stroke-linejoin:round;stroke-miterlimit:10;stroke-dasharray:2.99963158,2.99963158;stroke-dashoffset:0;stroke-opacity:1" />
      <clipPath id="clip8">
        <path id="path86" d="m 0,0 0,417 498,0 0,-417 z" />
      </clipPath>
      <path id="path92" d="m 317,318.47645 0,-60.46101" style="fill:none;stroke:#7f007f;stroke-width:0.9998772;stroke-linecap:round;stroke-linejoin:round;stroke-miterlimit:10;stroke-dasharray:2.99963158,2.99963158;stroke-dashoffset:0;stroke-opacity:1" />
      <clipPath id="clip9">
        <path id="path99" d="m 0,0 0,417 498,0 0,-417 z" />
      </clipPath>
      <path id="path105" d="M 439,422 439,-5" style="fill:none;stroke:#7f007f;stroke-linecap:round;stroke-linejoin:round;stroke-opacity:1;stroke-width:1;stroke-miterlimit:10;stroke-dasharray:3, 1;stroke-dashoffset:0" />
    </g>
  </g>
  <g ns0:preamble="/Users/jonnygriffiths/CMEP/underground-inkscape-preamble.tex" ns0:text="$y=2\\sin x$" word-spacing="normal" letter-spacing="normal" font-size-adjust="none" font-stretch="normal" font-weight="normal" font-variant="normal" font-style="normal" stroke-miterlimit="10.433" xml:space="preserve" transform="matrix(2.048094,0,0,-2.0480945,-172.25499,1861.5071)" id="content" style="font-style:normal;font-variant:normal;font-weight:normal;font-stretch:normal;letter-spacing:normal;word-spacing:normal;text-anchor:start;fill:none;fill-opacity:1;fill-rule:evenodd;stroke:#000000;stroke-width:0.7323882;stroke-linecap:butt;stroke-linejoin:miter;stroke-miterlimit:10.43299961;stroke-dasharray:none;stroke-dashoffset:0;stroke-opacity:1"><path id="path3506" d="m 226.62,480.86 -0.01,0.08 -0.01,0.08 -0.01,0.07 -0.01,0.07 -0.01,0.07 -0.01,0.07 -0.01,0.06 -0.01,0.06 -0.01,0.06 -0.01,0.05 -0.01,0.06 -0.01,0.05 -0.01,0.05 -0.01,0.04 -0.02,0.05 -0.01,0.05 -0.01,0.04 -0.02,0.04 -0.01,0.04 -0.01,0.04 -0.04,0.08 -0.03,0.07 -0.04,0.08 -0.04,0.07 -0.04,0.07 -0.05,0.07 -1.77,-0.3 0.02,-0.18 c 0.11,0.01 0.3,0.04 0.43,0.04 0.66,0 0.76,-0.71 0.82,-1.24 l 0.45,-3.7 c -0.31,-0.48 -0.98,-1.21 -1.18,-1.21 -0.19,0 -0.16,0.37 -0.67,0.37 -0.16,0 -0.47,-0.13 -0.47,-0.49 0,-0.28 0.22,-0.64 0.66,-0.64 0.8,0 1.57,1.15 2.43,2.24 0.5,0.62 2.41,3.46 2.41,4.38 0,0.46 -0.3,0.73 -0.67,0.73 -0.35,0 -0.56,-0.21 -0.56,-0.47 0,-0.45 0.61,-0.57 0.61,-0.82 0,-0.21 -0.09,-0.45 -0.33,-0.88 -0.26,-0.49 -0.67,-1.19 -1.39,-2.18 z" style="fill:#000000;stroke-width:0" /><polygon id="polygon3508" points="232.64,481.79 232.64,481.01 239.59,481.01 239.59,481.79 " style="fill:#000000;stroke-width:0" /><polygon id="polygon3510" points="232.64,479.43 232.64,478.65 239.59,478.65 239.59,479.43 " style="fill:#000000;stroke-width:0" /><path id="path3512" d="m 248.55,478.85 -0.16,0.07 c -0.39,-0.66 -0.64,-0.79 -1.13,-0.79 l -2.77,0 1.95,2.08 c 1.05,1.11 1.51,1.99 1.51,2.93 0,1.17 -0.85,2.08 -2.18,2.08 -1.45,0 -2.21,-0.97 -2.46,-2.35 l 0.25,-0.06 c 0.47,1.15 0.89,1.53 1.73,1.53 1.01,0 1.65,-0.59 1.65,-1.66 0,-1.01 -0.43,-1.9 -1.54,-3.07 l -2.1,-2.23 0,-0.15 4.62,0 z" style="fill:#000000;stroke-width:0" /><path id="path3514" d="m 252.38,480.79 -0.03,0.02 -0.03,0.02 -0.03,0.02 -0.02,0.02 -0.03,0.02 -0.03,0.03 -0.02,0.02 -0.03,0.02 -0.02,0.03 -0.02,0.02 -0.02,0.03 -0.02,0.02 -0.02,0.03 -0.02,0.02 -0.02,0.03 -0.02,0.03 -0.01,0.02 -0.02,0.03 -0.01,0.03 -0.01,0.03 -0.01,0.02 -0.01,0.03 -0.01,0.03 -0.01,0.02 -0.01,0.03 -0.01,0.03 0,0.02 -0.01,0.03 0,0.03 0,0.02 -0.01,0.03 0,0.02 c 0,0.56 0.38,0.8 0.89,0.8 0.71,0 1.06,-0.38 1.33,-1.45 l 0.18,0 -0.06,1.61 -0.13,0 c -0.09,-0.11 -0.14,-0.12 -0.19,-0.12 -0.08,0 -0.2,0.03 -0.33,0.09 -0.24,0.12 -0.51,0.13 -0.79,0.13 -0.97,0 -1.63,-0.52 -1.63,-1.45 0,-0.6 0.44,-1.17 1.42,-1.71 l 0.64,-0.35 c 0.39,-0.22 0.62,-0.52 0.62,-0.89 0,-0.48 -0.38,-0.87 -0.98,-0.87 -0.81,0 -1.25,0.52 -1.5,1.66 l -0.19,0 0,-1.85 0.16,0 c 0.07,0.12 0.14,0.14 0.28,0.14 0.13,0 0.26,-0.01 0.54,-0.11 0.28,-0.09 0.62,-0.1 0.87,-0.1 0.89,0 1.65,0.68 1.65,1.47 0,0.68 -0.28,0.99 -1.04,1.46 z" style="fill:#000000;stroke-width:0" /><path id="path3516" d="m 257.27,484.7 0,0.03 0,0.03 0,0.03 -0.01,0.03 0,0.03 -0.01,0.02 -0.01,0.03 -0.01,0.03 -0.01,0.03 -0.02,0.02 -0.01,0.03 -0.02,0.02 -0.01,0.03 -0.02,0.02 -0.02,0.02 -0.02,0.02 -0.02,0.02 -0.02,0.02 -0.02,0.02 -0.03,0.02 -0.02,0.01 -0.03,0.02 -0.02,0.01 -0.03,0.01 -0.03,0.01 -0.03,0.01 -0.02,0.01 -0.03,0.01 -0.03,0 -0.03,0.01 -0.04,0 -0.03,0 c -0.33,0 -0.6,-0.27 -0.6,-0.6 0,-0.35 0.26,-0.61 0.59,-0.61 0.35,0 0.61,0.26 0.61,0.61 z" style="fill:#000000;stroke-width:0" /><path id="path3518" d="m 258.14,477.23 0,0.18 c -0.78,0.06 -0.88,0.19 -0.88,1.07 l 0,4.14 -0.05,0.05 -1.83,-0.65 0,-0.19 c 0.22,0.06 0.39,0.06 0.5,0.06 0.3,0 0.39,-0.19 0.39,-0.75 l 0,-2.68 c 0,-0.89 -0.12,-1 -0.93,-1.05 l 0,-0.18 z" style="fill:#000000;stroke-width:0" /><path id="path3520" d="m 264.17,477.23 0,0.18 c -0.58,0.06 -0.72,0.19 -0.72,0.83 l 0,2.61 c 0,1.17 -0.5,1.82 -1.4,1.82 -0.54,0 -1.08,-0.26 -1.69,-0.96 l -0.02,0 0,0.92 -0.09,0.04 c -0.58,-0.22 -0.97,-0.35 -1.62,-0.54 l 0,-0.2 c 0.08,0.04 0.21,0.05 0.34,0.05 0.33,0 0.42,-0.19 0.42,-0.77 l 0,-2.86 c 0,-0.7 -0.13,-0.89 -0.74,-0.94 l 0,-0.18 2.5,0 0,0.18 c -0.61,0.05 -0.77,0.21 -0.77,0.67 l 0,3.26 c 0.54,0.54 0.82,0.68 1.22,0.68 0.57,0 0.86,-0.36 0.86,-1.2 l 0,-2.34 c 0,-0.78 -0.14,-1.02 -0.73,-1.07 l -0.02,-0.18 z" style="fill:#000000;stroke-width:0" /><path id="path3522" d="m 269.63,480.64 -0.24,0.64 c -0.14,0.39 -0.37,0.88 -0.88,1.16 l -1.56,-0.39 0.03,-0.21 c 0.12,0.05 0.3,0.07 0.45,0.07 0.65,0 0.96,-0.48 1.16,-1.05 l 0.39,-1.09 -0.77,-1.19 c -0.38,-0.58 -0.69,-0.7 -0.83,-0.7 -0.29,0 -0.24,0.24 -0.55,0.24 -0.3,0 -0.45,-0.25 -0.45,-0.44 0,-0.26 0.19,-0.55 0.61,-0.55 0.66,0 1.01,0.51 1.39,1.08 l 0.74,1.16 0.47,-1.33 c 0.15,-0.43 0.38,-0.91 0.86,-0.91 0.69,0 1.22,1.13 1.36,1.31 l -0.17,0.12 c -0.24,-0.51 -0.53,-0.68 -0.72,-0.68 -0.53,0 -0.8,1.6 -1.15,2.33 l 0.65,1 c 0.16,0.26 0.29,0.45 0.65,0.45 0.2,0 0.26,-0.1 0.52,-0.1 0.3,0 0.46,0.27 0.46,0.49 0,0.25 -0.2,0.39 -0.58,0.39 -0.59,0 -1.01,-0.52 -1.31,-0.99 z" style="fill:#000000;stroke-width:0" /></g>  <g style="font-style:normal;font-variant:normal;font-weight:normal;font-stretch:normal;letter-spacing:normal;word-spacing:normal;text-anchor:start;fill:none;fill-opacity:1;fill-rule:evenodd;stroke:#000000;stroke-width:0.82801789;stroke-linecap:butt;stroke-linejoin:miter;stroke-miterlimit:10.43299961;stroke-dasharray:none;stroke-dashoffset:0;stroke-opacity:1" id="g3666" transform="matrix(1.811555,0,0,-1.8115553,-151.06115,1421.6534)" xml:space="preserve" stroke-miterlimit="10.433" font-style="normal" font-variant="normal" font-weight="normal" font-stretch="normal" font-size-adjust="none" letter-spacing="normal" word-spacing="normal" ns0:text="$y=3\\cos x+1$" ns0:preamble="/Users/jonnygriffiths/CMEP/underground-inkscape-preamble.tex"><path style="fill:#000000;stroke-width:0" d="m 226.62,480.86 -0.01,0.08 -0.01,0.08 -0.01,0.07 -0.01,0.07 -0.01,0.07 -0.01,0.07 -0.01,0.06 -0.01,0.06 -0.01,0.06 -0.01,0.05 -0.01,0.06 -0.01,0.05 -0.01,0.05 -0.01,0.04 -0.02,0.05 -0.01,0.05 -0.01,0.04 -0.02,0.04 -0.01,0.04 -0.01,0.04 -0.04,0.08 -0.03,0.07 -0.04,0.08 -0.04,0.07 -0.04,0.07 -0.05,0.07 -1.77,-0.3 0.02,-0.18 c 0.11,0.01 0.3,0.04 0.43,0.04 0.66,0 0.76,-0.71 0.82,-1.24 l 0.45,-3.7 c -0.31,-0.48 -0.98,-1.21 -1.18,-1.21 -0.19,0 -0.16,0.37 -0.67,0.37 -0.16,0 -0.47,-0.13 -0.47,-0.49 0,-0.28 0.22,-0.64 0.66,-0.64 0.8,0 1.57,1.15 2.43,2.24 0.5,0.62 2.41,3.46 2.41,4.38 0,0.46 -0.3,0.73 -0.67,0.73 -0.35,0 -0.56,-0.21 -0.56,-0.47 0,-0.45 0.61,-0.57 0.61,-0.82 0,-0.21 -0.09,-0.45 -0.33,-0.88 -0.26,-0.49 -0.67,-1.19 -1.39,-2.18 z" id="path3668" /><polygon style="fill:#000000;stroke-width:0" points="239.59,481.01 239.59,481.79 232.64,481.79 232.64,481.01 " id="polygon3670" /><polygon style="fill:#000000;stroke-width:0" points="239.59,478.65 239.59,479.43 232.64,479.43 232.64,478.65 " id="polygon3672" /><path style="fill:#000000;stroke-width:0" d="m 243.68,483.26 0.04,0.08 0.05,0.07 0.05,0.08 0.04,0.07 0.05,0.07 0.05,0.07 0.05,0.06 0.04,0.06 0.05,0.06 0.05,0.05 0.05,0.06 0.05,0.05 0.06,0.04 0.05,0.05 0.05,0.04 0.05,0.04 0.06,0.04 0.05,0.03 0.06,0.03 0.06,0.03 0.05,0.03 0.06,0.02 0.06,0.03 0.06,0.02 0.06,0.01 0.06,0.02 0.07,0.01 0.06,0.01 0.07,0.01 0.06,0 0.07,0.01 0.07,0 c 0.78,0 1.27,-0.4 1.27,-1.21 0,-0.72 -0.38,-1.25 -0.95,-1.58 -0.24,-0.14 -0.55,-0.27 -1,-0.42 l 0,-0.17 c 0.68,0 0.95,-0.03 1.21,-0.12 0.81,-0.23 1.23,-0.81 1.23,-1.71 0,-1 -0.66,-1.81 -1.54,-1.81 -0.33,0 -0.58,0.06 -1.01,0.37 -0.33,0.24 -0.52,0.31 -0.72,0.31 -0.28,0 -0.49,-0.18 -0.49,-0.43 0,-0.42 0.46,-0.67 1.32,-0.67 1.05,0 2.18,0.34 2.74,1.1 0.35,0.45 0.55,1.03 0.55,1.65 0,0.61 -0.19,1.16 -0.52,1.52 -0.25,0.26 -0.46,0.4 -0.98,0.63 0.79,0.47 1.09,1.06 1.09,1.63 0,0.97 -0.74,1.62 -1.84,1.62 -1.23,0 -1.97,-0.8 -2.31,-1.92 z" id="path3674" /><path style="fill:#000000;stroke-width:0" d="m 255.24,479.08 -0.05,-0.08 -0.06,-0.07 -0.05,-0.07 -0.05,-0.07 -0.05,-0.06 -0.05,-0.06 -0.05,-0.06 -0.05,-0.06 -0.04,-0.05 -0.05,-0.05 -0.05,-0.04 -0.05,-0.05 -0.05,-0.04 -0.05,-0.04 -0.04,-0.03 -0.05,-0.04 -0.05,-0.03 -0.05,-0.03 -0.05,-0.03 -0.05,-0.02 -0.05,-0.02 -0.06,-0.02 -0.05,-0.02 -0.05,-0.02 -0.06,-0.01 -0.05,-0.01 -0.06,-0.01 -0.05,-0.01 -0.06,-0.01 -0.06,0 -0.06,0 -0.07,0 c -1.08,0 -1.83,0.94 -1.83,2.3 0,1.23 0.65,2.05 1.61,2.05 0.42,0 0.58,-0.13 0.7,-0.56 l 0.07,-0.26 c 0.09,-0.35 0.3,-0.55 0.56,-0.55 0.31,0 0.56,0.23 0.56,0.5 0,0.66 -0.83,1.22 -1.82,1.22 -0.55,0 -1.12,-0.22 -1.59,-0.61 -0.64,-0.53 -0.99,-1.34 -0.99,-2.32 0,-1.53 0.93,-2.62 2.24,-2.62 0.51,0 0.96,0.16 1.36,0.49 0.35,0.29 0.59,0.63 0.96,1.36 z" id="path3676" /><path style="fill:#000000;stroke-width:0" d="m 261.35,479.96 0,0.15 -0.01,0.15 -0.02,0.15 -0.02,0.14 -0.03,0.13 -0.03,0.14 -0.04,0.13 -0.05,0.12 -0.05,0.12 -0.05,0.12 -0.06,0.11 -0.07,0.11 -0.07,0.11 -0.07,0.1 -0.08,0.09 -0.09,0.09 -0.08,0.09 -0.1,0.08 -0.09,0.08 -0.1,0.07 -0.1,0.07 -0.11,0.06 -0.11,0.05 -0.11,0.05 -0.12,0.05 -0.12,0.04 -0.12,0.03 -0.13,0.03 -0.13,0.02 -0.12,0.01 -0.14,0.01 -0.13,0.01 c -1.59,0 -2.66,-1.1 -2.66,-2.74 0,-1.64 1.13,-2.81 2.55,-2.81 l 0.2,0.33 c -0.42,0 -0.8,0.21 -1.06,0.59 -0.44,0.63 -0.62,1.48 -0.62,2.42 0,1.18 0.55,1.87 1.37,1.87 0.5,0 0.83,-0.23 1.12,-0.59 0.37,-0.48 0.59,-1.29 0.59,-2.1 l 0,0 c 0,-1.37 -0.52,-2.19 -1.4,-2.19 l -0.2,-0.33 c 1.6,0 2.66,1.2 2.66,2.84 z" id="path3678" /><path style="fill:#000000;stroke-width:0" d="m 263.57,480.79 -0.03,0.02 -0.03,0.02 -0.03,0.02 -0.03,0.02 -0.03,0.02 -0.02,0.03 -0.03,0.02 -0.02,0.02 -0.03,0.03 -0.02,0.02 -0.02,0.03 -0.02,0.02 -0.02,0.03 -0.02,0.02 -0.01,0.03 -0.02,0.03 -0.02,0.02 -0.01,0.03 -0.01,0.03 -0.02,0.03 -0.01,0.02 -0.01,0.03 -0.01,0.03 -0.01,0.02 -0.01,0.03 0,0.03 -0.01,0.02 0,0.03 -0.01,0.03 0,0.02 0,0.03 0,0.02 c 0,0.56 0.38,0.8 0.88,0.8 0.71,0 1.07,-0.38 1.34,-1.45 l 0.17,0 -0.05,1.61 -0.13,0 c -0.1,-0.11 -0.15,-0.12 -0.19,-0.12 -0.09,0 -0.2,0.03 -0.33,0.09 -0.25,0.12 -0.51,0.13 -0.79,0.13 -0.97,0 -1.63,-0.52 -1.63,-1.45 0,-0.6 0.43,-1.17 1.41,-1.71 l 0.64,-0.35 c 0.39,-0.22 0.63,-0.52 0.63,-0.89 0,-0.48 -0.38,-0.87 -0.98,-0.87 -0.82,0 -1.26,0.52 -1.5,1.66 l -0.19,0 0,-1.85 0.15,0 c 0.07,0.12 0.14,0.14 0.28,0.14 0.13,0 0.27,-0.01 0.55,-0.11 0.27,-0.09 0.61,-0.1 0.86,-0.1 0.9,0 1.65,0.68 1.65,1.47 0,0.68 -0.28,0.99 -1.04,1.46 z" id="path3680" /><path style="fill:#000000;stroke-width:0" d="m 271.59,480.64 -0.23,0.64 c -0.15,0.39 -0.37,0.88 -0.89,1.16 l -1.56,-0.39 0.04,-0.21 c 0.12,0.05 0.29,0.07 0.45,0.07 0.65,0 0.95,-0.48 1.15,-1.05 l 0.39,-1.09 -0.76,-1.19 c -0.38,-0.58 -0.69,-0.7 -0.83,-0.7 -0.3,0 -0.25,0.24 -0.55,0.24 -0.3,0 -0.45,-0.25 -0.45,-0.44 0,-0.26 0.19,-0.55 0.61,-0.55 0.66,0 1,0.51 1.38,1.08 l 0.74,1.16 0.48,-1.33 c 0.15,-0.43 0.37,-0.91 0.86,-0.91 0.68,0 1.22,1.13 1.36,1.31 l -0.17,0.12 c -0.25,-0.51 -0.53,-0.68 -0.72,-0.68 -0.53,0 -0.8,1.6 -1.16,2.33 l 0.65,1 c 0.17,0.26 0.3,0.45 0.65,0.45 0.2,0 0.26,-0.1 0.52,-0.1 0.31,0 0.46,0.27 0.46,0.49 0,0.25 -0.2,0.39 -0.58,0.39 -0.59,0 -1,-0.52 -1.31,-0.99 z" id="path3682" /><polygon style="fill:#000000;stroke-width:0" points="280.37,479.83 280.37,476.75 281.15,476.75 281.15,479.83 284.23,479.83 284.23,480.61 281.15,480.61 281.15,483.69 280.37,483.69 280.37,480.61 277.29,480.61 277.29,479.83 " id="polygon3684" /><path style="fill:#000000;stroke-width:0" d="m 291.71,477.23 0,0.18 c -0.89,0 -1.12,0.21 -1.12,0.72 l 0,7.05 -0.11,0.04 -2.11,-1.08 0,-0.16 0.31,0.11 c 0.22,0.09 0.42,0.15 0.54,0.15 0.24,0 0.35,-0.18 0.35,-0.58 l 0,-5.3 c 0,-0.65 -0.25,-0.9 -1.12,-0.95 l 0,-0.18 z" id="path3686" /></g>  <g style="font-style:normal;font-variant:normal;font-weight:normal;font-stretch:normal;letter-spacing:normal;word-spacing:normal;text-anchor:start;fill:none;fill-opacity:1;fill-rule:evenodd;stroke:#000000;stroke-width:0.78639418;stroke-linecap:butt;stroke-linejoin:miter;stroke-miterlimit:10.43299961;stroke-dasharray:none;stroke-dashoffset:0;stroke-opacity:1" ns0:preamble="/Users/prmb/CMEP/underground-inkscape-preamble.tex" ns0:text="$72.4^\\circ$" word-spacing="normal" letter-spacing="normal" font-size-adjust="none" font-stretch="normal" font-weight="normal" font-variant="normal" font-style="normal" stroke-miterlimit="10.433" xml:space="preserve" transform="matrix(1.9074402,0,0,-1.9074406,8.2293344,1693.8943)" id="g4569"><path id="path4571" d="m 228.73,484.86 0,0.19 -4.35,0 -0.71,-1.73 0.21,-0.11 c 0.5,0.8 0.7,0.97 1.38,0.97 l 2.54,0 -2.34,-7.04 0.77,0 z" style="fill:#000000;stroke-width:0" /><path id="path4573" d="m 234.95,478.85 -0.16,0.07 c -0.39,-0.66 -0.64,-0.79 -1.14,-0.79 l -2.76,0 1.95,2.08 c 1.05,1.11 1.51,1.99 1.51,2.93 0,1.17 -0.85,2.08 -2.18,2.08 -1.46,0 -2.21,-0.97 -2.46,-2.35 l 0.25,-0.06 c 0.47,1.15 0.88,1.53 1.73,1.53 1.01,0 1.65,-0.59 1.65,-1.66 0,-1.01 -0.43,-1.9 -1.54,-3.07 l -2.1,-2.23 0,-0.15 4.62,0 z" style="fill:#000000;stroke-width:0" /><path id="path4575" d="m 237.42,477.74 0,0.04 -0.01,0.03 0,0.03 -0.01,0.03 0,0.04 -0.01,0.03 -0.01,0.03 -0.02,0.03 -0.01,0.03 -0.01,0.03 -0.02,0.02 -0.02,0.03 -0.02,0.03 -0.02,0.02 -0.02,0.03 -0.02,0.02 -0.02,0.02 -0.03,0.03 -0.02,0.02 -0.03,0.02 -0.02,0.01 -0.03,0.02 -0.03,0.02 -0.03,0.01 -0.03,0.01 -0.03,0.01 -0.03,0.01 -0.03,0.01 -0.03,0.01 -0.03,0 -0.03,0.01 -0.03,0 c -0.37,0 -0.66,-0.3 -0.66,-0.67 0,-0.36 0.28,-0.64 0.65,-0.64 0.35,0 0.66,0.29 0.66,0.63 z" style="fill:#000000;stroke-width:0" /><polygon id="polygon4577" points="243.83,479.96 242.61,479.96 242.61,485.22 242.09,485.22 238.38,479.96 238.86,479.96 241.69,484.01 241.69,479.96 238.86,479.96 238.38,479.96 238.38,479.21 241.69,479.21 241.69,477.23 242.61,477.23 242.61,479.21 243.83,479.21 " style="fill:#000000;stroke-width:0" /><path id="path4579" d="m 246.92,483.45 0,0.07 -0.01,0.06 -0.01,0.06 -0.01,0.05 -0.01,0.06 -0.02,0.06 -0.01,0.05 -0.03,0.06 -0.02,0.05 -0.03,0.05 -0.02,0.05 -0.03,0.05 -0.04,0.05 -0.03,0.04 -0.04,0.05 -0.04,0.04 -0.04,0.04 -0.04,0.04 -0.05,0.03 -0.04,0.03 -0.05,0.04 -0.05,0.02 -0.05,0.03 -0.06,0.03 -0.05,0.02 -0.05,0.02 -0.06,0.01 -0.06,0.02 -0.05,0.01 -0.06,0 -0.06,0.01 -0.06,0 0,-0.58 c 0.32,0 0.59,-0.27 0.59,-0.62 l 0,0 c 0,-0.34 -0.26,-0.61 -0.61,-0.61 -0.35,0 -0.61,0.26 -0.61,0.63 0,0.33 0.25,0.6 0.63,0.6 l 0,0.58 c -0.69,0 -1.22,-0.51 -1.22,-1.18 0,-0.68 0.52,-1.21 1.2,-1.21 0.66,0 1.2,0.53 1.2,1.19 z" style="fill:#000000;stroke-width:0" /></g>  <g id="g4759" transform="matrix(1.7866736,0,0,-1.7866739,163.10228,1600.9096)" xml:space="preserve" stroke-miterlimit="10.433" font-style="normal" font-variant="normal" font-weight="normal" font-stretch="normal" font-size-adjust="none" letter-spacing="normal" word-spacing="normal" ns0:text="$220.2^\\circ$" ns0:preamble="/Users/prmb/CMEP/underground-inkscape-preamble.tex" style="font-style:normal;font-variant:normal;font-weight:normal;font-stretch:normal;letter-spacing:normal;word-spacing:normal;text-anchor:start;fill:none;fill-opacity:1;fill-rule:evenodd;stroke:#000000;stroke-width:0.83954889;stroke-linecap:butt;stroke-linejoin:miter;stroke-miterlimit:10.43299961;stroke-dasharray:none;stroke-dashoffset:0;stroke-opacity:1"><path style="fill:#000000;stroke-width:0" d="m 229.03,478.85 -0.17,0.07 c -0.39,-0.66 -0.63,-0.79 -1.13,-0.79 l -2.76,0 1.94,2.08 c 1.06,1.11 1.52,1.99 1.52,2.93 0,1.17 -0.85,2.08 -2.19,2.08 -1.45,0 -2.21,-0.97 -2.45,-2.35 l 0.24,-0.06 c 0.48,1.15 0.89,1.53 1.74,1.53 1,0 1.64,-0.59 1.64,-1.66 0,-1.01 -0.42,-1.9 -1.53,-3.07 l -2.11,-2.23 0,-0.15 4.62,0 z" id="path4761" /><path style="fill:#000000;stroke-width:0" d="m 234.95,478.85 -0.16,0.07 c -0.39,-0.66 -0.64,-0.79 -1.14,-0.79 l -2.76,0 1.95,2.08 c 1.05,1.11 1.51,1.99 1.51,2.93 0,1.17 -0.85,2.08 -2.18,2.08 -1.46,0 -2.21,-0.97 -2.46,-2.35 l 0.25,-0.06 c 0.47,1.15 0.88,1.53 1.73,1.53 1.01,0 1.65,-0.59 1.65,-1.66 0,-1.01 -0.43,-1.9 -1.54,-3.07 l -2.1,-2.23 0,-0.15 4.62,0 z" id="path4763" /><path style="fill:#000000;stroke-width:0" d="m 240.9,481.13 0,0.23 -0.01,0.22 -0.02,0.21 -0.02,0.21 -0.03,0.21 -0.03,0.2 -0.04,0.19 -0.04,0.19 -0.05,0.18 -0.06,0.18 -0.06,0.17 -0.06,0.17 -0.07,0.16 -0.08,0.15 -0.08,0.14 -0.08,0.14 -0.09,0.13 -0.09,0.13 -0.1,0.11 -0.1,0.11 -0.11,0.1 -0.11,0.1 -0.11,0.08 -0.12,0.08 -0.12,0.07 -0.13,0.06 -0.12,0.05 -0.13,0.04 -0.14,0.03 -0.14,0.03 -0.14,0.01 -0.14,0.01 c -1.9,0 -2.72,-1.93 -2.72,-4.02 0,-1.93 0.65,-4.13 2.67,-4.13 l 0,0.31 c -1.01,0 -1.53,1.34 -1.53,3.74 0,2.4 0.53,3.79 1.51,3.79 1.04,0 1.56,-1.38 1.56,-3.84 l 0,0 c 0,-2.34 -0.53,-3.69 -1.54,-3.69 l 0,-0.31 c 1.93,0 2.67,2.03 2.67,4.06 z" id="path4765" /><path style="fill:#000000;stroke-width:0" d="m 243.34,477.74 0,0.04 0,0.03 -0.01,0.03 0,0.03 -0.01,0.04 -0.01,0.03 -0.01,0.03 -0.01,0.03 -0.02,0.03 -0.01,0.03 -0.02,0.02 -0.01,0.03 -0.02,0.03 -0.02,0.02 -0.02,0.03 -0.03,0.02 -0.02,0.02 -0.02,0.03 -0.03,0.02 -0.02,0.02 -0.03,0.01 -0.03,0.02 -0.02,0.02 -0.03,0.01 -0.03,0.01 -0.03,0.01 -0.03,0.01 -0.03,0.01 -0.03,0.01 -0.03,0 -0.04,0.01 -0.03,0 c -0.36,0 -0.66,-0.3 -0.66,-0.67 0,-0.36 0.28,-0.64 0.65,-0.64 0.35,0 0.66,0.29 0.66,0.63 z" id="path4767" /><path style="fill:#000000;stroke-width:0" d="m 249.76,478.85 -0.16,0.07 c -0.39,-0.66 -0.64,-0.79 -1.14,-0.79 l -2.76,0 1.95,2.08 c 1.05,1.11 1.51,1.99 1.51,2.93 0,1.17 -0.85,2.08 -2.18,2.08 -1.46,0 -2.21,-0.97 -2.46,-2.35 l 0.25,-0.06 c 0.47,1.15 0.88,1.53 1.73,1.53 1.01,0 1.65,-0.59 1.65,-1.66 0,-1.01 -0.43,-1.9 -1.54,-3.07 l -2.1,-2.23 0,-0.15 4.61,0 z" id="path4769" /><path style="fill:#000000;stroke-width:0" d="m 252.84,483.45 0,0.07 0,0.06 -0.01,0.06 -0.01,0.05 -0.02,0.06 -0.01,0.06 -0.02,0.05 -0.02,0.06 -0.03,0.05 -0.02,0.05 -0.03,0.05 -0.03,0.05 -0.03,0.05 -0.04,0.04 -0.04,0.05 -0.04,0.04 -0.04,0.04 -0.04,0.04 -0.04,0.03 -0.05,0.03 -0.05,0.04 -0.05,0.02 -0.05,0.03 -0.05,0.03 -0.05,0.02 -0.06,0.02 -0.06,0.01 -0.05,0.02 -0.06,0.01 -0.06,0 -0.06,0.01 -0.06,0 0,-0.58 c 0.32,0 0.6,-0.27 0.6,-0.62 l 0,0 c 0,-0.34 -0.27,-0.61 -0.62,-0.61 -0.34,0 -0.61,0.26 -0.61,0.63 0,0.33 0.26,0.6 0.63,0.6 l 0,0.58 c -0.68,0 -1.21,-0.51 -1.21,-1.18 0,-0.68 0.52,-1.21 1.19,-1.21 0.67,0 1.2,0.53 1.2,1.19 z" id="path4771" /></g>  <g style="font-style:normal;font-variant:normal;font-weight:normal;font-stretch:normal;letter-spacing:normal;word-spacing:normal;text-anchor:start;fill:none;fill-opacity:1;fill-rule:evenodd;stroke:#000000;stroke-width:0.81086278;stroke-linecap:butt;stroke-linejoin:miter;stroke-miterlimit:10.43299961;stroke-dasharray:none;stroke-dashoffset:0;stroke-opacity:1" ns0:preamble="/Users/prmb/CMEP/underground-inkscape-preamble.tex" ns0:text="$360^\\circ$" word-spacing="normal" letter-spacing="normal" font-size-adjust="none" font-stretch="normal" font-weight="normal" font-variant="normal" font-style="normal" stroke-miterlimit="10.433" xml:space="preserve" transform="matrix(1.8498812,0,0,-1.8498815,301.49126,1673.0506)" id="g4947"><path id="path4949" d="m 224.15,483.26 0.05,0.08 0.04,0.07 0.05,0.08 0.05,0.07 0.04,0.07 0.05,0.07 0.05,0.06 0.05,0.06 0.05,0.06 0.05,0.05 0.05,0.06 0.05,0.05 0.05,0.04 0.05,0.05 0.05,0.04 0.06,0.04 0.05,0.04 0.06,0.03 0.05,0.03 0.06,0.03 0.06,0.03 0.06,0.02 0.06,0.03 0.06,0.02 0.06,0.01 0.06,0.02 0.06,0.01 0.07,0.01 0.06,0.01 0.07,0 0.06,0.01 0.07,0 c 0.78,0 1.28,-0.4 1.28,-1.21 0,-0.72 -0.38,-1.25 -0.96,-1.58 -0.24,-0.14 -0.54,-0.27 -0.99,-0.42 l 0,-0.17 c 0.67,0 0.94,-0.03 1.2,-0.12 0.82,-0.23 1.23,-0.81 1.23,-1.71 0,-1 -0.66,-1.81 -1.53,-1.81 -0.34,0 -0.58,0.06 -1.02,0.37 -0.33,0.24 -0.52,0.31 -0.72,0.31 -0.27,0 -0.48,-0.18 -0.48,-0.43 0,-0.42 0.46,-0.67 1.32,-0.67 1.05,0 2.17,0.34 2.74,1.1 0.34,0.45 0.54,1.03 0.54,1.65 0,0.61 -0.19,1.16 -0.52,1.52 -0.25,0.26 -0.46,0.4 -0.98,0.63 0.79,0.47 1.1,1.06 1.1,1.63 0,0.97 -0.74,1.62 -1.84,1.62 -1.23,0 -1.97,-0.8 -2.32,-1.92 z" style="fill:#000000;stroke-width:0" /><path id="path4951" d="m 234.62,485.31 -0.15,-0.02 -0.15,-0.01 -0.14,-0.02 -0.14,-0.02 -0.13,-0.02 -0.14,-0.03 -0.13,-0.02 -0.12,-0.02 -0.13,-0.03 -0.12,-0.03 -0.11,-0.03 -0.12,-0.03 -0.11,-0.03 -0.11,-0.04 -0.11,-0.04 -0.11,-0.04 -0.1,-0.04 -0.11,-0.05 -0.1,-0.05 -0.1,-0.05 -0.1,-0.06 -0.09,-0.05 -0.1,-0.07 -0.1,-0.06 -0.09,-0.07 -0.1,-0.07 -0.09,-0.08 -0.1,-0.08 -0.09,-0.08 -0.1,-0.09 -0.09,-0.1 -0.1,-0.09 c -0.83,-0.87 -1.28,-1.99 -1.28,-3.26 0,-0.83 0.22,-1.67 0.55,-2.27 0.42,-0.75 1.16,-1.19 2.09,-1.19 l 0.13,0.33 c -1.11,0 -1.68,1.18 -1.68,2.98 0,1.08 0.7,1.36 1.38,1.36 1.09,0 1.59,-0.77 1.59,-2.29 l 0,0 c 0,-1.2 -0.44,-2.05 -1.29,-2.05 l -0.13,-0.33 c 0.78,0 1.44,0.32 1.88,0.86 0.39,0.47 0.6,1.14 0.6,1.89 0,1.52 -0.85,2.47 -2.23,2.47 -0.52,0 -0.92,-0.09 -1.5,-0.53 0.32,1.78 1.64,3.05 3.5,3.36 z" style="fill:#000000;stroke-width:0" /><path id="path4953" d="m 240.9,481.13 0,0.23 -0.01,0.22 -0.02,0.21 -0.02,0.21 -0.03,0.21 -0.03,0.2 -0.04,0.19 -0.04,0.19 -0.05,0.18 -0.06,0.18 -0.06,0.17 -0.06,0.17 -0.07,0.16 -0.08,0.15 -0.08,0.14 -0.08,0.14 -0.09,0.13 -0.09,0.13 -0.1,0.11 -0.1,0.11 -0.11,0.1 -0.11,0.1 -0.11,0.08 -0.12,0.08 -0.12,0.07 -0.13,0.06 -0.12,0.05 -0.13,0.04 -0.14,0.03 -0.14,0.03 -0.14,0.01 -0.14,0.01 c -1.9,0 -2.72,-1.93 -2.72,-4.02 0,-1.93 0.65,-4.13 2.67,-4.13 l 0,0.31 c -1.01,0 -1.53,1.34 -1.53,3.74 0,2.4 0.53,3.79 1.51,3.79 1.04,0 1.56,-1.38 1.56,-3.84 l 0,0 c 0,-2.34 -0.53,-3.69 -1.54,-3.69 l 0,-0.31 c 1.93,0 2.67,2.03 2.67,4.06 z" style="fill:#000000;stroke-width:0" /><path id="path4955" d="m 243.96,483.45 -0.01,0.07 0,0.06 -0.01,0.06 -0.01,0.05 -0.01,0.06 -0.02,0.06 -0.02,0.05 -0.02,0.06 -0.02,0.05 -0.03,0.05 -0.03,0.05 -0.03,0.05 -0.03,0.05 -0.04,0.04 -0.03,0.05 -0.04,0.04 -0.04,0.04 -0.05,0.04 -0.04,0.03 -0.05,0.03 -0.04,0.04 -0.05,0.02 -0.05,0.03 -0.06,0.03 -0.05,0.02 -0.06,0.02 -0.05,0.01 -0.06,0.02 -0.06,0.01 -0.05,0 -0.06,0.01 -0.07,0 0,-0.58 c 0.33,0 0.6,-0.27 0.6,-0.62 l 0,0 c 0,-0.34 -0.27,-0.61 -0.61,-0.61 -0.35,0 -0.61,0.26 -0.61,0.63 0,0.33 0.25,0.6 0.62,0.6 l 0,0.58 c -0.68,0 -1.21,-0.51 -1.21,-1.18 0,-0.68 0.52,-1.21 1.2,-1.21 0.66,0 1.2,0.53 1.2,1.19 z" style="fill:#000000;stroke-width:0" /></g>  <g style="font-style:normal;font-variant:normal;font-weight:normal;font-stretch:normal;letter-spacing:normal;word-spacing:normal;text-anchor:start;fill:none;fill-opacity:1;fill-rule:evenodd;stroke:#000000;stroke-linecap:butt;stroke-linejoin:miter;stroke-miterlimit:10.43299961;stroke-dasharray:none;stroke-dashoffset:0;stroke-opacity:1" id="g5133" transform="matrix(2,0,0,-2,310.21201,1703.2853)" xml:space="preserve" stroke-miterlimit="10.433" font-style="normal" font-variant="normal" font-weight="normal" font-stretch="normal" font-size-adjust="none" letter-spacing="normal" word-spacing="normal" ns0:text="$x$" ns0:preamble="/Users/prmb/CMEP/underground-inkscape-preamble.tex"><path style="fill:#000000;stroke-width:0" d="m 227.03,480.64 -0.23,0.64 c -0.15,0.39 -0.37,0.88 -0.89,1.16 l -1.56,-0.39 0.04,-0.21 c 0.12,0.05 0.29,0.07 0.45,0.07 0.65,0 0.95,-0.48 1.15,-1.05 l 0.39,-1.09 -0.76,-1.19 c -0.38,-0.58 -0.69,-0.7 -0.83,-0.7 -0.3,0 -0.25,0.24 -0.55,0.24 -0.3,0 -0.45,-0.25 -0.45,-0.44 0,-0.26 0.19,-0.55 0.61,-0.55 0.66,0 1,0.51 1.38,1.08 l 0.74,1.16 0.48,-1.33 c 0.15,-0.43 0.38,-0.91 0.86,-0.91 0.68,0 1.21,1.13 1.36,1.31 l -0.17,0.12 c -0.25,-0.51 -0.53,-0.68 -0.72,-0.68 -0.53,0 -0.8,1.6 -1.15,2.33 l 0.64,1 c 0.17,0.26 0.3,0.45 0.65,0.45 0.2,0 0.26,-0.1 0.52,-0.1 0.31,0 0.46,0.27 0.46,0.49 0,0.25 -0.2,0.39 -0.57,0.39 -0.6,0 -1.01,-0.52 -1.32,-0.99 z" id="path5135" /></g></svg>