<?xml version='1.0' ?><svg xmlns:ns0="http://www.iki.fi/pav/software/textext/" xmlns:dc="http://purl.org/dc/elements/1.1/" xmlns:cc="http://creativecommons.org/ns#" xmlns:rdf="http://www.w3.org/1999/02/22-rdf-syntax-ns#" xmlns:svg="http://www.w3.org/2000/svg" xmlns="http://www.w3.org/2000/svg" id="svg2" version="1.1" width="285.07443" height="252.7464" viewBox="0.0 2.417033315283843 484.9999909519652 429.99998882096077" preserveAspectRatio="none">
  <metadata id="metadata281">
    <rdf:RDF>
      <cc:Work rdf:about="">
        <dc:format>image/svg+xml</dc:format>
        <dc:type rdf:resource="http://purl.org/dc/dcmitype/StillImage" />
      </cc:Work>
    </rdf:RDF>
  </metadata>
  <defs id="defs279" />
  <title id="title4" />
  <g stroke-width="1.0000" stroke-linecap="square" stroke-linejoin="miter" stroke-dasharray="none" stroke-dashoffset="0.0000" id="g6" stroke-miterlimit="10.000">
    <clipPath id="clip1">
      <path id="path9" d="M 0.0000 0.0000 L 0.0000 432.00 L 487.00 432.00 L 487.00 0.0000 z" />
    </clipPath>
    <g id="g11" clip-path="url(#clip1)">
      <g fill="none" stroke="#000000" stroke-width="2.0000" stroke-linecap="butt" stroke-opacity="1.0000" id="g13">
        <path id="path15" d="M 239.70 3.0000 L 239.70 432.00" />
      </g>
    </g>
    <clipPath id="clip2">
      <path id="path18" d="M 0.0000 0.0000 L 0.0000 432.00 L 487.00 432.00 L 487.00 0.0000 z" />
    </clipPath>
    <g id="g20" clip-path="url(#clip2)">
      <g fill="#000000" fill-opacity="1.0000" fill-rule="evenodd" stroke="none" id="g22">
        <path id="path24" d="M 239.70 2.0000 L 234.70 22.000 L 244.70 22.000" />
      </g>
    </g>
    <clipPath id="clip3">
      <path id="path27" d="M 0.0000 0.0000 L 0.0000 432.00 L 487.00 432.00 L 487.00 0.0000 z" />
    </clipPath>
    <g id="g29" clip-path="url(#clip3)">
      <g fill="none" stroke="#000000" stroke-width="2.0000" stroke-linecap="butt" stroke-opacity="1.0000" id="g31">
        <path id="path33" d="M 0.0000 379.51 L 484.00 379.51" />
      </g>
    </g>
    <clipPath id="clip4">
      <path id="path36" d="M 0.0000 0.0000 L 0.0000 432.00 L 487.00 432.00 L 487.00 0.0000 z" />
    </clipPath>
    <g id="g38" clip-path="url(#clip4)">
      <g fill="#000000" fill-opacity="1.0000" fill-rule="evenodd" stroke="none" id="g40">
        <path id="path42" d="M 485.00 379.51 L 465.00 374.51 L 465.00 384.51" />
      </g>
    </g>
    <clipPath id="clip5">
      <path id="path45" d="M 0.0000 0.0000 L 0.0000 432.00 L 487.00 432.00 L 487.00 0.0000 z" />
    </clipPath>
    <g id="g47" clip-path="url(#clip5)">
      <g fill="none" stroke="#000000" stroke-width="2.0000" stroke-linecap="butt" stroke-opacity="1.0000" id="g49">
        <path id="path51" d="M 94.627 379.51 L 94.627 382.51" />
      </g>
    </g>
    <clipPath id="clip6">
      <path id="path54" d="M 0.0000 0.0000 L 0.0000 432.00 L 487.00 432.00 L 487.00 0.0000 z" />
    </clipPath>
    <g id="g56" clip-path="url(#clip6)">
      <g fill="none" stroke="#000000" stroke-width="2.0000" stroke-linecap="butt" stroke-opacity="1.0000" id="g58">
        <path id="path60" d="M 384.78 379.51 L 384.78 382.51" />
      </g>
    </g>
    <clipPath id="clip7">
      <path id="path63" d="M 0.0000 0.0000 L 0.0000 432.00 L 487.00 432.00 L 487.00 0.0000 z" />
    </clipPath>
    <g id="g65" clip-path="url(#clip7)">
      <g fill="none" stroke="#000000" stroke-width="2.0000" stroke-linecap="butt" stroke-opacity="1.0000" id="g67">
        <path id="path69" d="M 236.70 215.92 L 239.70 215.92" />
      </g>
    </g>
    <clipPath id="clip8">
      <path id="path72" d="M 0.0000 0.0000 L 0.0000 432.00 L 487.00 432.00 L 487.00 0.0000 z" />
    </clipPath>
    <g id="g74" clip-path="url(#clip8)">
      <g fill="none" stroke="#000000" stroke-width="2.0000" stroke-linecap="butt" stroke-opacity="1.0000" id="g76">
        <path id="path78" d="M 236.70 52.336 L 239.70 52.336" />
      </g>
    </g>
    <g id="misc" />
    <g id="layer0">
      <clipPath id="clip9">
        <path id="path83" d="M 0.0000 0.0000 L 0.0000 432.00 L 487.00 432.00 L 487.00 0.0000 z" />
      </clipPath>
      <g id="g85" clip-path="url(#clip9)">
        <g fill="#993300" fill-opacity=".098039" fill-rule="evenodd" stroke="none" id="g87">
          <path id="path89" d="M 94.627 379.51 L 94.627 52.336 L 95.194 61.544 L 95.761 65.363 L 96.894 70.770 L 99.161 78.440 L 101.43 84.349 L 103.69 89.351 L 105.96 93.775 L 108.23 97.792 L 110.50 101.50 L 112.76 104.97 L 115.03 108.24 L 117.30 111.34 L 119.56 114.31 L 121.83 117.15 L 124.10 119.89 L 126.36 122.54 L 128.63 125.11 L 130.90 127.60 L 133.16 130.03 L 135.43 132.40 L 137.70 134.72 L 139.96 136.98 L 142.23 139.20 L 144.50 141.37 L 146.76 143.51 L 149.03 145.61 L 151.30 147.68 L 153.56 149.72 L 155.83 151.73 L 158.10 153.71 L 160.37 155.66 L 162.63 157.60 L 164.90 159.51 L 167.17 161.39 L 169.43 163.26 L 171.70 165.12 L 173.97 166.95 L 176.23 168.77 L 178.50 170.57 L 180.77 172.36 L 183.03 174.13 L 185.30 175.89 L 187.57 177.64 L 189.83 179.38 L 192.10 181.11 L 194.37 182.83 L 196.63 184.53 L 198.90 186.23 L 201.17 187.93 L 203.44 189.61 L 205.70 191.29 L 207.97 192.96 L 210.24 194.62 L 212.50 196.28 L 214.77 197.94 L 217.04 199.58 L 219.30 201.23 L 221.57 202.87 L 223.84 204.51 L 226.10 206.15 L 228.37 207.78 L 230.64 209.41 L 232.90 211.04 L 235.17 212.67 L 237.44 214.30 L 239.70 215.92 L 241.97 217.55 L 244.24 219.18 L 246.50 220.81 L 248.77 222.44 L 251.04 224.07 L 253.31 225.70 L 255.57 227.34 L 257.84 228.98 L 260.11 230.62 L 262.37 232.26 L 264.64 233.91 L 266.91 235.57 L 269.17 237.23 L 271.44 238.89 L 273.71 240.56 L 275.97 242.24 L 278.24 243.92 L 280.51 245.62 L 282.77 247.32 L 285.04 249.02 L 287.31 250.74 L 289.57 252.47 L 291.84 254.21 L 294.11 255.96 L 296.38 257.72 L 298.64 259.49 L 300.91 261.28 L 303.18 263.08 L 305.44 264.90 L 307.71 266.73 L 309.98 268.58 L 312.24 270.45 L 314.51 272.34 L 316.78 274.25 L 319.04 276.18 L 321.31 278.14 L 323.58 280.12 L 325.84 282.13 L 328.11 284.17 L 330.38 286.23 L 332.64 288.34 L 334.91 290.47 L 337.18 292.65 L 339.44 294.87 L 341.71 297.13 L 343.98 299.45 L 346.25 301.82 L 348.51 304.24 L 350.78 306.74 L 353.05 309.31 L 355.31 311.96 L 357.58 314.70 L 359.85 317.54 L 362.11 320.51 L 364.38 323.61 L 366.65 326.88 L 368.91 330.35 L 371.18 334.06 L 373.45 338.07 L 375.71 342.50 L 377.98 347.50 L 380.25 353.41 L 382.51 361.08 L 383.65 366.49 L 384.21 370.30 L 384.78 379.51 L 94.627 379.51" />
          <title id="title91">Number c</title>
          <desc id="desc93">Number c: Integral of f from -1 to 1</desc>
        </g>
      </g>
      <clipPath id="clip10">
        <path id="path96" d="M 0.0000 0.0000 L 0.0000 432.00 L 487.00 432.00 L 487.00 0.0000 z" />
      </clipPath>
      <g id="g98" clip-path="url(#clip10)">
        <g fill="none" stroke="#993300" stroke-linecap="round" stroke-linejoin="round" stroke-opacity="1.0000" id="g100">
          <path id="path102" d="M 94.627 379.51 L 94.627 52.336 L 95.194 61.544 L 95.761 65.363 L 96.894 70.770 L 99.161 78.440 L 101.43 84.349 L 103.69 89.351 L 105.96 93.775 L 108.23 97.792 L 110.50 101.50 L 112.76 104.97 L 115.03 108.24 L 117.30 111.34 L 119.56 114.31 L 121.83 117.15 L 124.10 119.89 L 126.36 122.54 L 128.63 125.11 L 130.90 127.60 L 133.16 130.03 L 135.43 132.40 L 137.70 134.72 L 139.96 136.98 L 142.23 139.20 L 144.50 141.37 L 146.76 143.51 L 149.03 145.61 L 151.30 147.68 L 153.56 149.72 L 155.83 151.73 L 158.10 153.71 L 160.37 155.66 L 162.63 157.60 L 164.90 159.51 L 167.17 161.39 L 169.43 163.26 L 171.70 165.12 L 173.97 166.95 L 176.23 168.77 L 178.50 170.57 L 180.77 172.36 L 183.03 174.13 L 185.30 175.89 L 187.57 177.64 L 189.83 179.38 L 192.10 181.11 L 194.37 182.83 L 196.63 184.53 L 198.90 186.23 L 201.17 187.93 L 203.44 189.61 L 205.70 191.29 L 207.97 192.96 L 210.24 194.62 L 212.50 196.28 L 214.77 197.94 L 217.04 199.58 L 219.30 201.23 L 221.57 202.87 L 223.84 204.51 L 226.10 206.15 L 228.37 207.78 L 230.64 209.41 L 232.90 211.04 L 235.17 212.67 L 237.44 214.30 L 239.70 215.92 L 241.97 217.55 L 244.24 219.18 L 246.50 220.81 L 248.77 222.44 L 251.04 224.07 L 253.31 225.70 L 255.57 227.34 L 257.84 228.98 L 260.11 230.62 L 262.37 232.26 L 264.64 233.91 L 266.91 235.57 L 269.17 237.23 L 271.44 238.89 L 273.71 240.56 L 275.97 242.24 L 278.24 243.92 L 280.51 245.62 L 282.77 247.32 L 285.04 249.02 L 287.31 250.74 L 289.57 252.47 L 291.84 254.21 L 294.11 255.96 L 296.38 257.72 L 298.64 259.49 L 300.91 261.28 L 303.18 263.08 L 305.44 264.90 L 307.71 266.73 L 309.98 268.58 L 312.24 270.45 L 314.51 272.34 L 316.78 274.25 L 319.04 276.18 L 321.31 278.14 L 323.58 280.12 L 325.84 282.13 L 328.11 284.17 L 330.38 286.23 L 332.64 288.34 L 334.91 290.47 L 337.18 292.65 L 339.44 294.87 L 341.71 297.13 L 343.98 299.45 L 346.25 301.82 L 348.51 304.24 L 350.78 306.74 L 353.05 309.31 L 355.31 311.96 L 357.58 314.70 L 359.85 317.54 L 362.11 320.51 L 364.38 323.61 L 366.65 326.88 L 368.91 330.35 L 371.18 334.06 L 373.45 338.07 L 375.71 342.50 L 377.98 347.50 L 380.25 353.41 L 382.51 361.08 L 383.65 366.49 L 384.21 370.30 L 384.78 379.51 L 94.627 379.51" />
          <title id="title104">Number c</title>
          <desc id="desc106">Number c: Integral of f from -1 to 1</desc>
        </g>
      </g>
      <clipPath id="clip11">
        <path id="path109" d="M 0.0000 0.0000 L 0.0000 432.00 L 487.00 432.00 L 487.00 0.0000 z" />
      </clipPath>
      <g id="g111" clip-path="url(#clip11)">
        <g fill="none" stroke="#0000ff" stroke-width="3.5000" stroke-linecap="round" stroke-linejoin="round" stroke-opacity="1.0000" id="g113">
          <path id="path115" d="M 94.627 52.336 L 95.117 60.897 L 96.068 67.027 L 97.020 71.275 L 98.922 77.739 L 102.73 87.300 L 106.53 94.819 L 110.34 101.25 L 114.14 106.98 L 117.95 112.20 L 121.75 117.05 L 125.55 121.61 L 129.36 125.92 L 133.16 130.03 L 136.97 133.98 L 140.77 137.78 L 144.58 141.45 L 148.38 145.02 L 152.19 148.48 L 155.99 151.87 L 159.80 155.18 L 163.60 158.42 L 167.41 161.59 L 171.21 164.72 L 175.02 167.79 L 178.82 170.82 L 182.62 173.81 L 186.43 176.76 L 190.23 179.69 L 194.04 182.58 L 197.84 185.44 L 201.65 188.28 L 205.45 191.10 L 209.26 193.90 L 213.06 196.69 L 216.87 199.46 L 220.67 202.22 L 224.48 204.97 L 228.28 207.72 L 232.09 210.45 L 235.89 213.19 L 239.70 215.92 L 243.50 218.65 L 247.30 221.38 L 251.11 224.12 L 254.91 226.86 L 258.72 229.61 L 262.52 232.37 L 266.33 235.15 L 270.13 237.93 L 273.94 240.73 L 277.74 243.55 L 281.55 246.39 L 285.35 249.26 L 289.16 252.15 L 292.96 255.07 L 296.77 258.02 L 300.57 261.01 L 304.38 264.04 L 308.18 267.12 L 311.98 270.24 L 315.79 273.42 L 319.59 276.66 L 323.40 279.96 L 327.20 283.35 L 331.01 286.82 L 334.81 290.38 L 338.62 294.05 L 342.42 297.85 L 346.23 301.80 L 350.03 305.91 L 353.84 310.22 L 357.64 314.77 L 361.45 319.62 L 365.25 324.85 L 369.05 330.57 L 372.86 337.00 L 376.66 344.51 L 380.47 354.06 L 382.37 360.50 L 383.32 364.73 L 384.27 370.79 L 384.78 379.51" />
          <title id="title117">Function f</title>
          <desc id="desc119">f(x) = acos(x)</desc>
        </g>
      </g>
      <clipPath id="clip12">
        <path id="path122" d="M 0.0000 0.0000 L 0.0000 432.00 L 487.00 432.00 L 487.00 0.0000 z" />
      </clipPath>
      <g id="g124" clip-path="url(#clip12)">
        <g fill="none" stroke="#000000" stroke-width="3.0000" stroke-linecap="butt" stroke-linejoin="round" stroke-opacity="1.0000" stroke-dasharray="11.000,8.0000" id="g126">
          <path id="path128" d="M 94.627 52.336 L 384.78 52.336" />
          <title id="title130">Segment i</title>
          <desc id="desc132">Segment i: Segment [A, E]</desc>
        </g>
      </g>
      <clipPath id="clip13">
        <path id="path135" d="M 0.0000 0.0000 L 0.0000 432.00 L 487.00 432.00 L 487.00 0.0000 z" />
      </clipPath>
      <g id="g137" clip-path="url(#clip13)">
        <g fill="none" stroke="#000000" stroke-width="3.0000" stroke-linecap="butt" stroke-linejoin="round" stroke-opacity="1.0000" stroke-dasharray="11.000,8.0000" id="g139">
          <path id="path141" d="M 384.78 52.336 L 384.78 379.51" />
          <title id="title143">Segment j</title>
          <desc id="desc145">Segment j: Segment [E, F]</desc>
        </g>
      </g>
      <clipPath id="clip14">
        <path id="path148" d="M 0.0000 0.0000 L 0.0000 432.00 L 487.00 432.00 L 487.00 0.0000 z" />
      </clipPath>
      <g id="g150" clip-path="url(#clip14)">
        <g fill="#444444" fill-opacity="1.0000" fill-rule="nonzero" stroke="none" id="g152">
          <path id="path154" d="M 97.627 52.336 C 97.627 53.993 96.284 55.336 94.627 55.336 C 92.970 55.336 91.627 53.993 91.627 52.336 C 91.627 50.679 92.970 49.336 94.627 49.336 C 96.284 49.336 97.627 50.679 97.627 52.336 z" />
          <title id="title156">Point A</title>
          <desc id="desc158">Point A: Intersection point of c, f with initial value (-1, Ã&#131;Â&#143;Ã&#130;Â&#128;)</desc>
        </g>
      </g>
      <clipPath id="clip15">
        <path id="path161" d="M 0.0000 0.0000 L 0.0000 432.00 L 487.00 432.00 L 487.00 0.0000 z" />
      </clipPath>
      <g id="g163" clip-path="url(#clip15)">
        <g fill="none" stroke="#000000" stroke-linecap="round" stroke-linejoin="round" stroke-opacity="1.0000" id="g165">
          <path id="path167" d="M 97.627 52.336 C 97.627 53.993 96.284 55.336 94.627 55.336 C 92.970 55.336 91.627 53.993 91.627 52.336 C 91.627 50.679 92.970 49.336 94.627 49.336 C 96.284 49.336 97.627 50.679 97.627 52.336 z" />
          <title id="title169">Point A</title>
          <desc id="desc171">Point A: Intersection point of c, f with initial value (-1, Ã&#131;Â&#143;Ã&#130;Â&#128;)</desc>
        </g>
      </g>
      <clipPath id="clip16">
        <path id="path174" d="M 0.0000 0.0000 L 0.0000 432.00 L 487.00 432.00 L 487.00 0.0000 z" />
      </clipPath>
      <g id="g176" clip-path="url(#clip16)">
        <g fill="#444444" fill-opacity="1.0000" fill-rule="nonzero" stroke="none" id="g178">
          <path id="path180" d="M 97.627 52.336 C 97.627 53.993 96.284 55.336 94.627 55.336 C 92.970 55.336 91.627 53.993 91.627 52.336 C 91.627 50.679 92.970 49.336 94.627 49.336 C 96.284 49.336 97.627 50.679 97.627 52.336 z" />
          <title id="title182">Point B</title>
          <desc id="desc184">Point B: Intersection point of c, f with initial value (-1, Ã&#131;Â&#143;Ã&#130;Â&#128;)</desc>
        </g>
      </g>
      <clipPath id="clip17">
        <path id="path187" d="M 0.0000 0.0000 L 0.0000 432.00 L 487.00 432.00 L 487.00 0.0000 z" />
      </clipPath>
      <g id="g189" clip-path="url(#clip17)">
        <g fill="none" stroke="#000000" stroke-linecap="round" stroke-linejoin="round" stroke-opacity="1.0000" id="g191">
          <path id="path193" d="M 97.627 52.336 C 97.627 53.993 96.284 55.336 94.627 55.336 C 92.970 55.336 91.627 53.993 91.627 52.336 C 91.627 50.679 92.970 49.336 94.627 49.336 C 96.284 49.336 97.627 50.679 97.627 52.336 z" />
          <title id="title195">Point B</title>
          <desc id="desc197">Point B: Intersection point of c, f with initial value (-1, Ã&#131;Â&#143;Ã&#130;Â&#128;)</desc>
        </g>
      </g>
      <clipPath id="clip18">
        <path id="path200" d="M 0.0000 0.0000 L 0.0000 432.00 L 487.00 432.00 L 487.00 0.0000 z" />
      </clipPath>
      <g id="g202" clip-path="url(#clip18)">
        <g fill="#444444" fill-opacity="1.0000" fill-rule="nonzero" stroke="none" id="g204">
          <path id="path206" d="M 97.627 52.336 C 97.627 53.993 96.284 55.336 94.627 55.336 C 92.970 55.336 91.627 53.993 91.627 52.336 C 91.627 50.679 92.970 49.336 94.627 49.336 C 96.284 49.336 97.627 50.679 97.627 52.336 z" />
          <title id="title208">Point C</title>
          <desc id="desc210">Point C: Intersection point of c, f with initial value (-1, Ã&#131;Â&#143;Ã&#130;Â&#128;)</desc>
        </g>
      </g>
      <clipPath id="clip19">
        <path id="path213" d="M 0.0000 0.0000 L 0.0000 432.00 L 487.00 432.00 L 487.00 0.0000 z" />
      </clipPath>
      <g id="g215" clip-path="url(#clip19)">
        <g fill="none" stroke="#000000" stroke-linecap="round" stroke-linejoin="round" stroke-opacity="1.0000" id="g217">
          <path id="path219" d="M 97.627 52.336 C 97.627 53.993 96.284 55.336 94.627 55.336 C 92.970 55.336 91.627 53.993 91.627 52.336 C 91.627 50.679 92.970 49.336 94.627 49.336 C 96.284 49.336 97.627 50.679 97.627 52.336 z" />
          <title id="title221">Point C</title>
          <desc id="desc223">Point C: Intersection point of c, f with initial value (-1, Ã&#131;Â&#143;Ã&#130;Â&#128;)</desc>
        </g>
      </g>
      <clipPath id="clip20">
        <path id="path226" d="M 0.0000 0.0000 L 0.0000 432.00 L 487.00 432.00 L 487.00 0.0000 z" />
      </clipPath>
      <g id="g228" clip-path="url(#clip20)">
        <g fill="#0000ff" fill-opacity="1.0000" fill-rule="nonzero" stroke="none" id="g230">
          <path id="path232" d="M 244.70 215.92 C 244.70 218.69 242.47 220.92 239.70 220.92 C 236.94 220.92 234.70 218.69 234.70 215.92 C 234.70 213.16 236.94 210.92 239.70 210.92 C 242.47 210.92 244.70 213.16 244.70 215.92 z" />
          <title id="title234">Point D</title>
          <desc id="desc236">Point D: Point on yAxis</desc>
        </g>
      </g>
      <clipPath id="clip21">
        <path id="path239" d="M 0.0000 0.0000 L 0.0000 432.00 L 487.00 432.00 L 487.00 0.0000 z" />
      </clipPath>
      <g id="g241" clip-path="url(#clip21)">
        <g fill="none" stroke="#000000" stroke-linecap="round" stroke-linejoin="round" stroke-opacity="1.0000" id="g243">
          <path id="path245" d="M 244.70 215.92 C 244.70 218.69 242.47 220.92 239.70 220.92 C 236.94 220.92 234.70 218.69 234.70 215.92 C 234.70 213.16 236.94 210.92 239.70 210.92 C 242.47 210.92 244.70 213.16 244.70 215.92 z" />
          <title id="title247">Point D</title>
          <desc id="desc249">Point D: Point on yAxis</desc>
        </g>
      </g>
      <clipPath id="clip22">
        <path id="path252" d="M 0.0000 0.0000 L 0.0000 432.00 L 487.00 432.00 L 487.00 0.0000 z" />
      </clipPath>
      <g id="g254" clip-path="url(#clip22)">
        <g fill="#0000ff" fill-opacity="1.0000" fill-rule="nonzero" stroke="none" id="g256">
          <path id="path258" d="M 389.78 379.51 C 389.78 382.27 387.54 384.51 384.78 384.51 C 382.02 384.51 379.78 382.27 379.78 379.51 C 379.78 376.75 382.02 374.51 384.78 374.51 C 387.54 374.51 389.78 376.75 389.78 379.51 z" />
          <title id="title260">Point F</title>
          <desc id="desc262">Point F: Point on g</desc>
        </g>
      </g>
      <clipPath id="clip23">
        <path id="path265" d="M 0.0000 0.0000 L 0.0000 432.00 L 487.00 432.00 L 487.00 0.0000 z" />
      </clipPath>
      <g id="g267" clip-path="url(#clip23)">
        <g fill="none" stroke="#000000" stroke-linecap="round" stroke-linejoin="round" stroke-opacity="1.0000" id="g269">
          <path id="path271" d="M 389.78 379.51 C 389.78 382.27 387.54 384.51 384.78 384.51 C 382.02 384.51 379.78 382.27 379.78 379.51 C 379.78 376.75 382.02 374.51 384.78 374.51 C 387.54 374.51 389.78 376.75 389.78 379.51 z" />
          <title id="title273">Point F</title>
          <desc id="desc275">Point F: Point on g</desc>
        </g>
      </g>
    </g>
  </g>
  <g ns0:preamble="/Users/ABaker/cmep/Inkscape/underground-inkscape-preamble.tex" ns0:text="$y = \\arccos x$" word-spacing="normal" letter-spacing="normal" font-size-adjust="none" font-stretch="normal" font-weight="normal" font-variant="normal" font-style="normal" stroke-miterlimit="10.433" xml:space="preserve" transform="matrix(2,0,0,-2,-431.6684,1102.2323)" id="content" style="font-style:normal;font-variant:normal;font-weight:normal;font-stretch:normal;letter-spacing:normal;word-spacing:normal;text-anchor:start;fill:none;fill-opacity:1;fill-rule:evenodd;stroke:#000000;stroke-linecap:butt;stroke-linejoin:miter;stroke-miterlimit:10.43299961;stroke-dasharray:none;stroke-dashoffset:0;stroke-opacity:1"><path id="path3763" d="m 226.62,480.86 -0.01,0.08 -0.01,0.08 -0.01,0.07 -0.01,0.07 -0.01,0.07 -0.01,0.07 -0.01,0.06 -0.01,0.06 -0.01,0.06 -0.01,0.05 -0.01,0.06 -0.01,0.05 -0.01,0.05 -0.01,0.04 -0.02,0.05 -0.01,0.05 -0.01,0.04 -0.02,0.04 -0.01,0.04 -0.01,0.04 -0.04,0.08 -0.03,0.07 -0.04,0.08 -0.04,0.07 -0.04,0.07 -0.05,0.07 -1.77,-0.3 0.02,-0.18 c 0.11,0.01 0.3,0.04 0.43,0.04 0.66,0 0.76,-0.71 0.82,-1.24 l 0.45,-3.7 c -0.31,-0.48 -0.98,-1.21 -1.18,-1.21 -0.19,0 -0.16,0.37 -0.67,0.37 -0.16,0 -0.47,-0.13 -0.47,-0.49 0,-0.28 0.22,-0.64 0.66,-0.64 0.8,0 1.57,1.15 2.43,2.24 0.5,0.62 2.41,3.46 2.41,4.38 0,0.46 -0.3,0.73 -0.67,0.73 -0.35,0 -0.56,-0.21 -0.56,-0.47 0,-0.45 0.61,-0.57 0.61,-0.82 0,-0.21 -0.09,-0.45 -0.33,-0.88 -0.26,-0.49 -0.67,-1.19 -1.39,-2.18 z" style="fill:#000000;stroke-width:0" /><polygon id="polygon3765" points="232.64,481.79 232.64,481.01 239.59,481.01 239.59,481.79 " style="fill:#000000;stroke-width:0" /><polygon id="polygon3767" points="232.64,479.43 232.64,478.65 239.59,478.65 239.59,479.43 " style="fill:#000000;stroke-width:0" /><path id="path3769" d="m 248.18,478.01 -0.02,-0.01 -0.02,-0.02 -0.02,-0.01 -0.02,-0.01 -0.01,-0.02 -0.02,-0.01 -0.02,-0.01 -0.01,-0.01 -0.02,-0.01 -0.01,-0.01 -0.02,-0.01 -0.01,-0.01 -0.02,-0.01 -0.01,-0.01 -0.02,0 -0.01,-0.01 -0.02,-0.01 -0.01,0 -0.02,-0.01 -0.01,0 -0.02,-0.01 -0.01,0 -0.02,0 -0.01,-0.01 -0.02,0 -0.01,0 -0.02,-0.01 -0.01,0 -0.02,0 -0.02,0 -0.01,0 -0.02,0 c -0.21,0 -0.37,0.24 -0.37,0.78 l 0,2.25 c 0,0.72 -0.04,0.97 -0.33,1.31 -0.28,0.35 -0.73,0.54 -1.39,0.54 -0.53,0 -1.03,-0.15 -1.36,-0.36 -0.41,-0.26 -0.6,-0.64 -0.6,-0.94 0,-0.32 0.26,-0.55 0.51,-0.55 0.3,0 0.54,0.26 0.54,0.49 0,0.25 -0.07,0.28 -0.07,0.49 0,0.32 0.35,0.58 0.83,0.58 0.53,0 0.92,-0.33 0.92,-1.06 l 0,-0.64 0,-0.28 0,-1.67 c 0,-0.34 -0.08,-0.5 -0.42,-0.74 -0.2,-0.13 -0.45,-0.19 -0.68,-0.19 -0.46,0 -0.82,0.28 -0.82,0.91 0,0.37 0.12,0.65 0.41,0.91 0.29,0.27 0.77,0.52 1.51,0.78 l 0,0.28 c -1.34,-0.49 -1.78,-0.72 -2.13,-0.95 -0.46,-0.31 -0.83,-0.77 -0.83,-1.38 0,-0.78 0.51,-1.23 1.24,-1.23 0.51,0 1.09,0.15 1.72,0.86 l 0.01,0 c 0.06,-0.63 0.32,-0.86 0.75,-0.86 0.4,0 0.71,0.11 1.07,0.56 z" style="fill:#000000;stroke-width:0" /><path id="path3771" d="m 250.11,482.64 -0.06,0.03 c -0.63,-0.25 -1.05,-0.42 -1.75,-0.64 l 0,-0.19 c 0.17,0.04 0.27,0.05 0.41,0.05 0.3,0 0.41,-0.19 0.41,-0.71 l 0,-2.95 c 0,-0.59 -0.09,-0.68 -0.84,-0.82 l 0,-0.18 2.83,0 0,0.18 c -0.8,0.04 -1,0.21 -1,0.89 l 0,2.65 c 0,0.38 0.49,0.97 0.82,0.97 0.07,0 0.18,-0.06 0.31,-0.18 0.19,-0.17 0.32,-0.23 0.47,-0.23 0.29,0 0.46,0.2 0.46,0.53 0,0.39 -0.24,0.63 -0.65,0.63 -0.49,0 -0.82,-0.26 -1.41,-1.11 z" style="fill:#000000;stroke-width:0" /><path id="path3773" d="m 256.85,479.08 -0.05,-0.08 -0.05,-0.07 -0.06,-0.07 -0.05,-0.07 -0.05,-0.06 -0.05,-0.06 -0.05,-0.06 -0.04,-0.06 -0.05,-0.05 -0.05,-0.05 -0.05,-0.04 -0.05,-0.05 -0.05,-0.04 -0.04,-0.04 -0.05,-0.03 -0.05,-0.04 -0.05,-0.03 -0.05,-0.03 -0.05,-0.03 -0.05,-0.02 -0.05,-0.02 -0.05,-0.02 -0.06,-0.02 -0.05,-0.02 -0.05,-0.01 -0.06,-0.01 -0.06,-0.01 -0.05,-0.01 -0.06,-0.01 -0.06,0 -0.06,0 -0.06,0 c -1.09,0 -1.83,0.94 -1.83,2.3 0,1.23 0.65,2.05 1.6,2.05 0.43,0 0.58,-0.13 0.7,-0.56 l 0.07,-0.26 c 0.09,-0.35 0.31,-0.55 0.57,-0.55 0.3,0 0.55,0.23 0.55,0.5 0,0.66 -0.83,1.22 -1.82,1.22 -0.55,0 -1.12,-0.22 -1.59,-0.61 -0.64,-0.53 -0.99,-1.34 -0.99,-2.32 0,-1.53 0.93,-2.62 2.24,-2.62 0.51,0 0.96,0.16 1.36,0.49 0.35,0.29 0.59,0.63 0.97,1.36 z" style="fill:#000000;stroke-width:0" /><path id="path3775" d="m 262.11,479.08 -0.05,-0.08 -0.05,-0.07 -0.06,-0.07 -0.05,-0.07 -0.05,-0.06 -0.05,-0.06 -0.04,-0.06 -0.05,-0.06 -0.05,-0.05 -0.05,-0.05 -0.05,-0.04 -0.05,-0.05 -0.05,-0.04 -0.04,-0.04 -0.05,-0.03 -0.05,-0.04 -0.05,-0.03 -0.05,-0.03 -0.05,-0.03 -0.05,-0.02 -0.05,-0.02 -0.05,-0.02 -0.06,-0.02 -0.05,-0.02 -0.05,-0.01 -0.06,-0.01 -0.06,-0.01 -0.05,-0.01 -0.06,-0.01 -0.06,0 -0.06,0 -0.06,0 c -1.09,0 -1.83,0.94 -1.83,2.3 0,1.23 0.65,2.05 1.6,2.05 0.43,0 0.58,-0.13 0.7,-0.56 l 0.07,-0.26 c 0.09,-0.35 0.31,-0.55 0.57,-0.55 0.3,0 0.55,0.23 0.55,0.5 0,0.66 -0.83,1.22 -1.82,1.22 -0.55,0 -1.12,-0.22 -1.59,-0.61 -0.64,-0.53 -0.99,-1.34 -0.99,-2.32 0,-1.53 0.93,-2.62 2.24,-2.62 0.51,0 0.96,0.16 1.36,0.49 0.35,0.29 0.59,0.63 0.97,1.36 z" style="fill:#000000;stroke-width:0" /><path id="path3777" d="m 268.22,479.96 0,0.15 -0.01,0.15 -0.02,0.15 -0.02,0.14 -0.03,0.13 -0.03,0.14 -0.04,0.13 -0.04,0.12 -0.06,0.12 -0.05,0.12 -0.06,0.11 -0.07,0.11 -0.07,0.11 -0.07,0.1 -0.08,0.09 -0.08,0.09 -0.09,0.09 -0.09,0.08 -0.1,0.08 -0.1,0.07 -0.1,0.07 -0.11,0.06 -0.11,0.05 -0.11,0.05 -0.12,0.05 -0.12,0.04 -0.12,0.03 -0.13,0.03 -0.12,0.02 -0.13,0.01 -0.14,0.01 -0.13,0.01 c -1.59,0 -2.65,-1.1 -2.65,-2.74 0,-1.64 1.12,-2.81 2.55,-2.81 l 0.2,0.33 c -0.43,0 -0.81,0.21 -1.07,0.59 -0.43,0.63 -0.62,1.48 -0.62,2.42 0,1.18 0.55,1.87 1.37,1.87 0.5,0 0.84,-0.23 1.12,-0.59 0.38,-0.48 0.59,-1.29 0.59,-2.1 l 0,0 c 0,-1.37 -0.52,-2.19 -1.39,-2.19 l -0.2,-0.33 c 1.59,0 2.65,1.2 2.65,2.84 z" style="fill:#000000;stroke-width:0" /><path id="path3779" d="m 270.44,480.79 -0.03,0.02 -0.03,0.02 -0.03,0.02 -0.03,0.02 -0.03,0.02 -0.02,0.03 -0.03,0.02 -0.02,0.02 -0.02,0.03 -0.03,0.02 -0.02,0.03 -0.02,0.02 -0.02,0.03 -0.02,0.02 -0.01,0.03 -0.02,0.03 -0.02,0.02 -0.01,0.03 -0.01,0.03 -0.02,0.03 -0.01,0.02 -0.01,0.03 -0.01,0.03 -0.01,0.02 0,0.03 -0.01,0.03 -0.01,0.02 0,0.03 -0.01,0.03 0,0.02 0,0.03 0,0.02 c 0,0.56 0.38,0.8 0.89,0.8 0.7,0 1.06,-0.38 1.33,-1.45 l 0.18,0 -0.06,1.61 -0.13,0 c -0.1,-0.11 -0.14,-0.12 -0.19,-0.12 -0.08,0 -0.2,0.03 -0.33,0.09 -0.25,0.12 -0.51,0.13 -0.79,0.13 -0.97,0 -1.63,-0.52 -1.63,-1.45 0,-0.6 0.44,-1.17 1.41,-1.71 l 0.64,-0.35 c 0.39,-0.22 0.63,-0.52 0.63,-0.89 0,-0.48 -0.38,-0.87 -0.98,-0.87 -0.82,0 -1.25,0.52 -1.5,1.66 l -0.19,0 0,-1.85 0.15,0 c 0.07,0.12 0.15,0.14 0.29,0.14 0.13,0 0.26,-0.01 0.54,-0.11 0.27,-0.09 0.61,-0.1 0.86,-0.1 0.9,0 1.65,0.68 1.65,1.47 0,0.68 -0.28,0.99 -1.03,1.46 z" style="fill:#000000;stroke-width:0" /><path id="path3781" d="m 278.45,480.64 -0.23,0.64 c -0.14,0.39 -0.37,0.88 -0.89,1.16 l -1.56,-0.39 0.04,-0.21 c 0.12,0.05 0.29,0.07 0.45,0.07 0.65,0 0.95,-0.48 1.15,-1.05 l 0.39,-1.09 -0.76,-1.19 c -0.38,-0.58 -0.69,-0.7 -0.83,-0.7 -0.29,0 -0.25,0.24 -0.56,0.24 -0.29,0 -0.44,-0.25 -0.44,-0.44 0,-0.26 0.18,-0.55 0.61,-0.55 0.66,0 1,0.51 1.38,1.08 l 0.75,1.16 0.47,-1.33 c 0.15,-0.43 0.38,-0.91 0.86,-0.91 0.68,0 1.21,1.13 1.36,1.31 l -0.17,0.12 c -0.25,-0.51 -0.53,-0.68 -0.72,-0.68 -0.53,0 -0.8,1.6 -1.15,2.33 l 0.64,1 c 0.17,0.26 0.3,0.45 0.65,0.45 0.2,0 0.26,-0.1 0.52,-0.1 0.31,0 0.46,0.27 0.46,0.49 0,0.25 -0.2,0.39 -0.57,0.39 -0.6,0 -1.01,-0.52 -1.32,-0.99 z" style="fill:#000000;stroke-width:0" /></g>  <g id="g4109" transform="matrix(2,0,0,-2,-236.39308,974.25192)" xml:space="preserve" stroke-miterlimit="10.433" font-style="normal" font-variant="normal" font-weight="normal" font-stretch="normal" font-size-adjust="none" letter-spacing="normal" word-spacing="normal" ns0:text="$y$" ns0:preamble="/Users/ABaker/cmep/Inkscape/underground-inkscape-preamble.tex" style="font-style:normal;font-variant:normal;font-weight:normal;font-stretch:normal;letter-spacing:normal;word-spacing:normal;text-anchor:start;fill:none;fill-opacity:1;fill-rule:evenodd;stroke:#000000;stroke-linecap:butt;stroke-linejoin:miter;stroke-miterlimit:10.43299961;stroke-dasharray:none;stroke-dashoffset:0;stroke-opacity:1"><path d="m 226.62,480.86 -0.01,0.08 -0.01,0.08 -0.01,0.07 -0.01,0.07 -0.01,0.07 -0.01,0.07 -0.01,0.06 -0.01,0.06 -0.01,0.06 -0.01,0.05 -0.01,0.06 -0.01,0.05 -0.01,0.05 -0.01,0.04 -0.02,0.05 -0.01,0.05 -0.01,0.04 -0.02,0.04 -0.01,0.04 -0.01,0.04 -0.04,0.08 -0.03,0.07 -0.04,0.08 -0.04,0.07 -0.04,0.07 -0.05,0.07 -1.77,-0.3 0.02,-0.18 c 0.11,0.01 0.3,0.04 0.43,0.04 0.66,0 0.76,-0.71 0.82,-1.24 l 0.45,-3.7 c -0.31,-0.48 -0.98,-1.21 -1.18,-1.21 -0.19,0 -0.16,0.37 -0.67,0.37 -0.16,0 -0.47,-0.13 -0.47,-0.49 0,-0.28 0.22,-0.64 0.66,-0.64 0.8,0 1.57,1.15 2.43,2.24 0.5,0.62 2.41,3.46 2.41,4.38 0,0.46 -0.3,0.73 -0.67,0.73 -0.35,0 -0.56,-0.21 -0.56,-0.47 0,-0.45 0.61,-0.57 0.61,-0.82 0,-0.21 -0.09,-0.45 -0.33,-0.88 -0.26,-0.49 -0.67,-1.19 -1.39,-2.18 z" id="path4111" style="fill:#000000;stroke-width:0" /></g>  <g ns0:preamble="/Users/ABaker/cmep/Inkscape/underground-inkscape-preamble.tex" ns0:text="$x$" word-spacing="normal" letter-spacing="normal" font-size-adjust="none" font-stretch="normal" font-weight="normal" font-variant="normal" font-style="normal" stroke-miterlimit="10.433" xml:space="preserve" transform="matrix(2,0,0,-2,19.127837,1358.4524)" id="g4443" style="font-style:normal;font-variant:normal;font-weight:normal;font-stretch:normal;letter-spacing:normal;word-spacing:normal;text-anchor:start;fill:none;fill-opacity:1;fill-rule:evenodd;stroke:#000000;stroke-linecap:butt;stroke-linejoin:miter;stroke-miterlimit:10.43299961;stroke-dasharray:none;stroke-dashoffset:0;stroke-opacity:1"><path id="path4445" d="m 227.03,480.64 -0.23,0.64 c -0.15,0.39 -0.37,0.88 -0.89,1.16 l -1.56,-0.39 0.04,-0.21 c 0.12,0.05 0.29,0.07 0.45,0.07 0.65,0 0.95,-0.48 1.15,-1.05 l 0.39,-1.09 -0.76,-1.19 c -0.38,-0.58 -0.69,-0.7 -0.83,-0.7 -0.3,0 -0.25,0.24 -0.55,0.24 -0.3,0 -0.45,-0.25 -0.45,-0.44 0,-0.26 0.19,-0.55 0.61,-0.55 0.66,0 1,0.51 1.38,1.08 l 0.74,1.16 0.48,-1.33 c 0.15,-0.43 0.38,-0.91 0.86,-0.91 0.68,0 1.21,1.13 1.36,1.31 l -0.17,0.12 c -0.25,-0.51 -0.53,-0.68 -0.72,-0.68 -0.53,0 -0.8,1.6 -1.15,2.33 l 0.64,1 c 0.17,0.26 0.3,0.45 0.65,0.45 0.2,0 0.26,-0.1 0.52,-0.1 0.31,0 0.46,0.27 0.46,0.49 0,0.25 -0.2,0.39 -0.57,0.39 -0.6,0 -1.01,-0.52 -1.32,-0.99 z" style="fill:#000000;stroke-width:0" /></g>  <g id="g4781" transform="matrix(1.5,0,0,-1.5,47.779808,1119.2446)" xml:space="preserve" stroke-miterlimit="10.433" font-style="normal" font-variant="normal" font-weight="normal" font-stretch="normal" font-size-adjust="none" letter-spacing="normal" word-spacing="normal" ns0:text="$1$" ns0:preamble="/Users/ABaker/cmep/Inkscape/underground-inkscape-preamble.tex" style="font-style:normal;font-variant:normal;font-weight:normal;font-stretch:normal;letter-spacing:normal;word-spacing:normal;text-anchor:start;fill:none;fill-opacity:1;fill-rule:evenodd;stroke:#000000;stroke-linecap:butt;stroke-linejoin:miter;stroke-miterlimit:10.43299961;stroke-dasharray:none;stroke-dashoffset:0;stroke-opacity:1"><path d="m 228.08,477.23 0,0.18 c -0.88,0 -1.12,0.21 -1.12,0.72 l 0,7.05 -0.1,0.04 -2.12,-1.08 0,-0.16 0.32,0.11 c 0.21,0.09 0.41,0.15 0.53,0.15 0.25,0 0.36,-0.18 0.36,-0.58 l 0,-5.3 c 0,-0.65 -0.25,-0.9 -1.13,-0.95 l 0,-0.18 z" id="path4783" style="fill:#000000;stroke-width:0" /></g>  <g ns0:preamble="/Users/ABaker/cmep/Inkscape/underground-inkscape-preamble.tex" ns0:text="$-1$" word-spacing="normal" letter-spacing="normal" font-size-adjust="none" font-stretch="normal" font-weight="normal" font-variant="normal" font-style="normal" stroke-miterlimit="10.433" xml:space="preserve" transform="matrix(1.5,0,0,-1.5,-255.88128,1119.4852)" id="g5123" style="font-style:normal;font-variant:normal;font-weight:normal;font-stretch:normal;letter-spacing:normal;word-spacing:normal;text-anchor:start;fill:none;fill-opacity:1;fill-rule:evenodd;stroke:#000000;stroke-linecap:butt;stroke-linejoin:miter;stroke-miterlimit:10.43299961;stroke-dasharray:none;stroke-dashoffset:0;stroke-opacity:1"><polygon id="polygon5125" points="230.76,480.61 224.19,480.61 224.19,479.83 230.76,479.83 " style="fill:#000000;stroke-width:0" /><path id="path5127" d="m 236.2,477.23 0,0.18 c -0.89,0 -1.12,0.21 -1.12,0.72 l 0,7.05 -0.11,0.04 -2.11,-1.08 0,-0.16 0.32,0.11 c 0.21,0.09 0.41,0.15 0.53,0.15 0.25,0 0.35,-0.18 0.35,-0.58 l 0,-5.3 c 0,-0.65 -0.24,-0.9 -1.12,-0.95 l 0,-0.18 z" style="fill:#000000;stroke-width:0" /></g>  <g style="font-style:normal;font-variant:normal;font-weight:normal;font-stretch:normal;letter-spacing:normal;word-spacing:normal;text-anchor:start;fill:none;fill-opacity:1;fill-rule:evenodd;stroke:#000000;stroke-linecap:butt;stroke-linejoin:miter;stroke-miterlimit:10.43299961;stroke-dasharray:none;stroke-dashoffset:0;stroke-opacity:1" id="g5473" transform="matrix(1.9246646,0,0,-1.9246646,-208.67007,986.89313)" xml:space="preserve" stroke-miterlimit="10.433" font-style="normal" font-variant="normal" font-weight="normal" font-stretch="normal" font-size-adjust="none" letter-spacing="normal" word-spacing="normal" ns0:text="$\\pi$" ns0:preamble="/Users/ABaker/cmep/Inkscape/underground-inkscape-preamble.tex"><path style="fill:#000000;stroke-width:0" d="m 230.14,482.29 -3.33,0 c -1.23,0 -1.99,-0.55 -2.5,-1.49 l 0.18,0 c 0.52,0.63 0.96,0.63 1.65,0.63 l -1.05,-2.44 c -0.16,-0.34 -0.37,-0.68 -0.88,-0.82 -0.31,-0.09 -0.36,-0.39 -0.36,-0.57 0,-0.28 0.29,-0.52 0.6,-0.52 0.14,0 0.32,0.03 0.45,0.13 0.99,0.74 1.35,2.78 1.9,4.22 l 1.11,0 c -0.3,-1 -0.65,-1.82 -0.92,-2.66 -0.08,-0.22 -0.11,-0.46 -0.11,-0.73 0,-0.46 0.2,-0.89 0.67,-0.89 0.83,0 1.45,0.83 1.7,1.68 l -0.19,0 c -0.28,-0.64 -0.61,-0.78 -0.86,-0.78 -0.26,0 -0.45,0.3 -0.45,0.57 0,0.79 0.63,2.3 0.79,2.81 l 1.33,0 z" id="path5475" /></g></svg>