<?xml version='1.0' ?><svg xmlns:ns0="http://www.iki.fi/pav/software/textext/" xmlns:dc="http://purl.org/dc/elements/1.1/" xmlns:cc="http://creativecommons.org/ns#" xmlns:rdf="http://www.w3.org/1999/02/22-rdf-syntax-ns#" xmlns:svg="http://www.w3.org/2000/svg" xmlns="http://www.w3.org/2000/svg" id="svg2" version="1.1" width="285.0" height="282.5" viewBox="0.0 2.0000000000000004 456.0000000000001 452.0000000000001" preserveAspectRatio="none">
  <metadata id="metadata134">
    <rdf:RDF>
      <cc:Work rdf:about="">
        <dc:format>image/svg+xml</dc:format>
        <dc:type rdf:resource="http://purl.org/dc/dcmitype/StillImage" />
      </cc:Work>
    </rdf:RDF>
  </metadata>
  <defs id="defs132" />
  <title id="title4" />
  <g stroke-miterlimit="10.000" id="g6" stroke-dashoffset="0.0000" stroke-dasharray="none" stroke-linejoin="miter" stroke-linecap="square" stroke-width="1.0000">
    <clipPath id="clip1">
      <path d="M 0.0000 0.0000 L 0.0000 454.00 L 458.00 454.00 L 458.00 0.0000 z" id="path9" />
    </clipPath>
    <g clip-path="url(#clip1)" id="g11">
      <g id="g13" stroke-opacity="1.0000" stroke-linecap="butt" stroke-width="2.0000" stroke="#000000" fill="none">
        <path d="M 214.28 3.0000 L 214.28 454.00" id="path15" />
      </g>
    </g>
    <clipPath id="clip2">
      <path d="M 0.0000 0.0000 L 0.0000 454.00 L 458.00 454.00 L 458.00 0.0000 z" id="path18" />
    </clipPath>
    <g clip-path="url(#clip2)" id="g20">
      <g id="g22" stroke="none" fill-rule="evenodd" fill-opacity="1.0000" fill="#000000">
        <path d="M 214.28 2.0000 L 209.28 22.000 L 219.28 22.000" id="path24" />
      </g>
    </g>
    <clipPath id="clip3">
      <path d="M 0.0000 0.0000 L 0.0000 454.00 L 458.00 454.00 L 458.00 0.0000 z" id="path27" />
    </clipPath>
    <g clip-path="url(#clip3)" id="g29">
      <g id="g31" stroke-opacity="1.0000" stroke-linecap="butt" stroke-width="2.0000" stroke="#000000" fill="none">
        <path d="M 0.0000 300.14 L 455.00 300.14" id="path33" />
      </g>
    </g>
    <clipPath id="clip4">
      <path d="M 0.0000 0.0000 L 0.0000 454.00 L 458.00 454.00 L 458.00 0.0000 z" id="path36" />
    </clipPath>
    <g clip-path="url(#clip4)" id="g38">
      <g id="g40" stroke="none" fill-rule="evenodd" fill-opacity="1.0000" fill="#000000">
        <path d="M 456.00 300.14 L 436.00 295.14 L 436.00 305.14" id="path42" />
      </g>
    </g>
    <clipPath id="clip5">
      <path d="M 0.0000 0.0000 L 0.0000 454.00 L 458.00 454.00 L 458.00 0.0000 z" id="path45" />
    </clipPath>
    <g clip-path="url(#clip5)" id="g47">
      <g id="g49" stroke-opacity="1.0000" stroke-linecap="butt" stroke-width="2.0000" stroke="#000000" fill="none">
        <path d="M 82.560 300.14 L 82.560 303.14" id="path51" />
      </g>
    </g>
    <clipPath id="clip6">
      <path d="M 0.0000 0.0000 L 0.0000 454.00 L 458.00 454.00 L 458.00 0.0000 z" id="path54" />
    </clipPath>
    <g clip-path="url(#clip6)" id="g56">
      <g id="g58" stroke-opacity="1.0000" stroke-linecap="butt" stroke-width="2.0000" stroke="#000000" fill="none">
        <path d="M 346.00 300.14 L 346.00 303.14" id="path60" />
      </g>
    </g>
    <clipPath id="clip7">
      <path d="M 0.0000 0.0000 L 0.0000 454.00 L 458.00 454.00 L 458.00 0.0000 z" id="path63" />
    </clipPath>
    <g clip-path="url(#clip7)" id="g65">
      <g id="g67" stroke-opacity="1.0000" stroke-linecap="butt" stroke-width="2.0000" stroke="#000000" fill="none">
        <path d="M 211.28 428.42 L 214.28 428.42" id="path69" />
      </g>
    </g>
    <clipPath id="clip8">
      <path d="M 0.0000 0.0000 L 0.0000 454.00 L 458.00 454.00 L 458.00 0.0000 z" id="path72" />
    </clipPath>
    <g clip-path="url(#clip8)" id="g74">
      <g id="g76" stroke-opacity="1.0000" stroke-linecap="butt" stroke-width="2.0000" stroke="#000000" fill="none">
        <path d="M 211.28 171.85 L 214.28 171.85" id="path78" />
      </g>
    </g>
    <clipPath id="clip9">
      <path d="M 0.0000 0.0000 L 0.0000 454.00 L 458.00 454.00 L 458.00 0.0000 z" id="path81" />
    </clipPath>
    <g clip-path="url(#clip9)" id="g83">
      <g id="g85" stroke-opacity="1.0000" stroke-linecap="butt" stroke-width="2.0000" stroke="#000000" fill="none">
        <path d="M 211.28 43.561 L 214.28 43.561" id="path87" />
      </g>
    </g>
    <g id="misc" />
    <g id="layer0">
      <clipPath id="clip10">
        <path d="M 0.0000 0.0000 L 0.0000 454.00 L 458.00 454.00 L 458.00 0.0000 z" id="path92" />
      </clipPath>
      <g clip-path="url(#clip10)" id="g94">
        <g id="g96" stroke-opacity="1.0000" stroke-linejoin="round" stroke-linecap="round" stroke-width="3.5000" stroke="#0000ff" fill="none">
          <path d="M 82.560 428.42 L 83.388 419.26 L 84.217 415.45 L 85.875 410.06 L 89.453 401.89 L 93.031 395.64 L 96.609 390.36 L 100.19 385.69 L 103.77 381.44 L 107.34 377.50 L 110.92 373.82 L 114.50 370.33 L 118.08 367.01 L 121.66 363.83 L 125.23 360.76 L 128.81 357.80 L 132.39 354.93 L 135.97 352.13 L 139.55 349.41 L 143.12 346.74 L 146.70 344.13 L 150.28 341.57 L 153.86 339.06 L 157.44 336.58 L 161.02 334.14 L 164.59 331.73 L 168.17 329.34 L 171.75 326.99 L 175.33 324.65 L 178.91 322.34 L 182.48 320.05 L 186.06 317.77 L 189.64 315.50 L 193.22 313.25 L 196.80 311.01 L 200.38 308.77 L 203.95 306.55 L 207.53 304.32 L 211.11 302.10 L 214.69 299.88 L 218.27 297.67 L 221.84 295.44 L 225.42 293.22 L 229.00 290.99 L 232.58 288.75 L 236.16 286.51 L 239.73 284.25 L 243.31 281.99 L 246.89 279.70 L 250.47 277.41 L 254.05 275.09 L 257.62 272.75 L 261.20 270.39 L 264.78 268.00 L 268.36 265.58 L 271.94 263.13 L 275.52 260.65 L 279.09 258.12 L 282.67 255.55 L 286.25 252.93 L 289.83 250.25 L 293.41 247.51 L 296.98 244.70 L 300.56 241.80 L 304.14 238.82 L 307.72 235.73 L 311.30 232.52 L 314.88 229.16 L 318.45 225.63 L 322.03 221.90 L 325.61 217.90 L 329.19 213.57 L 332.77 208.77 L 336.34 203.32 L 339.92 196.76 L 343.50 187.79 L 344.75 183.11 L 345.38 179.81 L 346.00 171.85" id="path98" />
          <title id="title100">Function f</title>
          <desc id="desc102">f(x) = asin(x)</desc>
        </g>
      </g>
      <clipPath id="clip11">
        <path d="M 0.0000 0.0000 L 0.0000 454.00 L 458.00 454.00 L 458.00 0.0000 z" id="path105" />
      </clipPath>
      <g clip-path="url(#clip11)" id="g107">
        <g id="g109" stroke-opacity="1.0000" stroke-linejoin="round" stroke-linecap="round" stroke-width="3.5000" stroke="#800080" fill="none">
          <path d="M 82.560 43.561 L 83.388 52.728 L 84.217 56.532 L 85.875 61.924 L 89.453 70.101 L 93.031 76.347 L 96.609 81.626 L 100.19 86.300 L 103.77 90.550 L 107.34 94.483 L 110.92 98.168 L 114.50 101.65 L 118.08 104.97 L 121.66 108.16 L 125.23 111.22 L 128.81 114.18 L 132.39 117.06 L 135.97 119.85 L 139.55 122.58 L 143.12 125.24 L 146.70 127.85 L 150.28 130.41 L 153.86 132.93 L 157.44 135.41 L 161.02 137.85 L 164.59 140.26 L 168.17 142.64 L 171.75 145.00 L 175.33 147.33 L 178.91 149.64 L 182.48 151.94 L 186.06 154.22 L 189.64 156.48 L 193.22 158.73 L 196.80 160.98 L 200.38 163.21 L 203.95 165.44 L 207.53 167.66 L 211.11 169.88 L 214.69 172.10 L 218.27 174.32 L 221.84 176.54 L 225.42 178.77 L 229.00 181.00 L 232.58 183.23 L 236.16 185.48 L 239.73 187.73 L 243.31 190.00 L 246.89 192.28 L 250.47 194.58 L 254.05 196.90 L 257.62 199.23 L 261.20 201.60 L 264.78 203.98 L 268.36 206.40 L 271.94 208.85 L 275.52 211.34 L 279.09 213.86 L 282.67 216.44 L 286.25 219.06 L 289.83 221.74 L 293.41 224.48 L 296.98 227.29 L 300.56 230.18 L 304.14 233.17 L 307.72 236.26 L 311.30 239.47 L 314.88 242.82 L 318.45 246.35 L 322.03 250.09 L 325.61 254.09 L 329.19 258.42 L 332.77 263.21 L 336.34 268.67 L 339.92 275.23 L 343.50 284.20 L 344.75 288.88 L 345.38 292.18 L 346.00 300.14" id="path111" />
          <title id="title113">Function p</title>
          <desc id="desc115">p(x) = acos(x)</desc>
        </g>
      </g>
      <clipPath id="clip12">
        <path d="M 0.0000 0.0000 L 0.0000 454.00 L 458.00 454.00 L 458.00 0.0000 z" id="path118" />
      </clipPath>
      <g clip-path="url(#clip12)" id="g120">
        <g id="g122" stroke-dasharray="11.500,8.0000" stroke-opacity="1.0000" stroke-linejoin="round" stroke-linecap="butt" stroke-width="3.5000" stroke="#0000ff" fill="none">
          <path d="M 82.560 171.85 L 83.388 181.02 L 84.217 184.82 L 85.875 190.21 L 89.453 198.39 L 93.031 204.63 L 96.609 209.91 L 100.19 214.59 L 103.77 218.84 L 107.34 222.77 L 110.92 226.46 L 114.50 229.94 L 118.08 233.26 L 121.66 236.44 L 125.23 239.51 L 128.81 242.47 L 132.39 245.34 L 135.97 248.14 L 139.55 250.87 L 143.12 253.53 L 146.70 256.14 L 150.28 258.70 L 153.86 261.22 L 157.44 263.70 L 161.02 266.14 L 164.59 268.55 L 168.17 270.93 L 171.75 273.29 L 175.33 275.62 L 178.91 277.93 L 182.48 280.23 L 186.06 282.50 L 189.64 284.77 L 193.22 287.02 L 196.80 289.26 L 200.38 291.50 L 203.95 293.73 L 207.53 295.95 L 211.11 298.17 L 214.69 300.39 L 218.27 302.61 L 221.84 304.83 L 225.42 307.05 L 229.00 309.28 L 232.58 311.52 L 236.16 313.76 L 239.73 316.02 L 243.31 318.29 L 246.89 320.57 L 250.47 322.87 L 254.05 325.18 L 257.62 327.52 L 261.20 329.88 L 264.78 332.27 L 268.36 334.69 L 271.94 337.14 L 275.52 339.63 L 279.09 342.15 L 282.67 344.72 L 286.25 347.35 L 289.83 350.02 L 293.41 352.77 L 296.98 355.58 L 300.56 358.47 L 304.14 361.45 L 307.72 364.54 L 311.30 367.76 L 314.88 371.11 L 318.45 374.64 L 322.03 378.38 L 325.61 382.37 L 329.19 386.71 L 332.77 391.50 L 336.34 396.96 L 339.92 403.52 L 343.50 412.49 L 344.75 417.16 L 345.38 420.47 L 346.00 428.42" id="path124" />
          <title id="title126">Function q</title>
          <desc id="desc128">q(x) = -asin(x)</desc>
        </g>
      </g>
    </g>
  </g>
  <g style="font-style:normal;font-variant:normal;font-weight:normal;font-stretch:normal;letter-spacing:normal;word-spacing:normal;text-anchor:start;fill:none;fill-opacity:1;fill-rule:evenodd;stroke:#000000;stroke-linecap:butt;stroke-linejoin:miter;stroke-miterlimit:10.43299961;stroke-dasharray:none;stroke-dashoffset:0;stroke-opacity:1" id="g4495" transform="matrix(2.0087336,0,0,-2.0087336,-426.26695,985.74572)" xml:space="preserve" stroke-miterlimit="10.433" font-style="normal" font-variant="normal" font-weight="normal" font-stretch="normal" font-size-adjust="none" letter-spacing="normal" word-spacing="normal" ns0:text="$y = \\arccos x$" ns0:preamble="/Users/ABaker/cmep/Inkscape/underground-inkscape-preamble.tex"><path style="fill:#000000;stroke-width:0" d="m 226.62,480.86 -0.01,0.08 -0.01,0.08 -0.01,0.07 -0.01,0.07 -0.01,0.07 -0.01,0.07 -0.01,0.06 -0.01,0.06 -0.01,0.06 -0.01,0.05 -0.01,0.06 -0.01,0.05 -0.01,0.05 -0.01,0.04 -0.02,0.05 -0.01,0.05 -0.01,0.04 -0.02,0.04 -0.01,0.04 -0.01,0.04 -0.04,0.08 -0.03,0.07 -0.04,0.08 -0.04,0.07 -0.04,0.07 -0.05,0.07 -1.77,-0.3 0.02,-0.18 c 0.11,0.01 0.3,0.04 0.43,0.04 0.66,0 0.76,-0.71 0.82,-1.24 l 0.45,-3.7 c -0.31,-0.48 -0.98,-1.21 -1.18,-1.21 -0.19,0 -0.16,0.37 -0.67,0.37 -0.16,0 -0.47,-0.13 -0.47,-0.49 0,-0.28 0.22,-0.64 0.66,-0.64 0.8,0 1.57,1.15 2.43,2.24 0.5,0.62 2.41,3.46 2.41,4.38 0,0.46 -0.3,0.73 -0.67,0.73 -0.35,0 -0.56,-0.21 -0.56,-0.47 0,-0.45 0.61,-0.57 0.61,-0.82 0,-0.21 -0.09,-0.45 -0.33,-0.88 -0.26,-0.49 -0.67,-1.19 -1.39,-2.18 z" id="path4497" /><polygon style="fill:#000000;stroke-width:0" points="232.64,481.79 232.64,481.01 239.59,481.01 239.59,481.79 " id="polygon4499" /><polygon style="fill:#000000;stroke-width:0" points="232.64,479.43 232.64,478.65 239.59,478.65 239.59,479.43 " id="polygon4501" /><path style="fill:#000000;stroke-width:0" d="m 248.18,478.01 -0.02,-0.01 -0.02,-0.02 -0.02,-0.01 -0.02,-0.01 -0.01,-0.02 -0.02,-0.01 -0.02,-0.01 -0.01,-0.01 -0.02,-0.01 -0.01,-0.01 -0.02,-0.01 -0.01,-0.01 -0.02,-0.01 -0.01,-0.01 -0.02,0 -0.01,-0.01 -0.02,-0.01 -0.01,0 -0.02,-0.01 -0.01,0 -0.02,-0.01 -0.01,0 -0.02,0 -0.01,-0.01 -0.02,0 -0.01,0 -0.02,-0.01 -0.01,0 -0.02,0 -0.02,0 -0.01,0 -0.02,0 c -0.21,0 -0.37,0.24 -0.37,0.78 l 0,2.25 c 0,0.72 -0.04,0.97 -0.33,1.31 -0.28,0.35 -0.73,0.54 -1.39,0.54 -0.53,0 -1.03,-0.15 -1.36,-0.36 -0.41,-0.26 -0.6,-0.64 -0.6,-0.94 0,-0.32 0.26,-0.55 0.51,-0.55 0.3,0 0.54,0.26 0.54,0.49 0,0.25 -0.07,0.28 -0.07,0.49 0,0.32 0.35,0.58 0.83,0.58 0.53,0 0.92,-0.33 0.92,-1.06 l 0,-0.64 0,-0.28 0,-1.67 c 0,-0.34 -0.08,-0.5 -0.42,-0.74 -0.2,-0.13 -0.45,-0.19 -0.68,-0.19 -0.46,0 -0.82,0.28 -0.82,0.91 0,0.37 0.12,0.65 0.41,0.91 0.29,0.27 0.77,0.52 1.51,0.78 l 0,0.28 c -1.34,-0.49 -1.78,-0.72 -2.13,-0.95 -0.46,-0.31 -0.83,-0.77 -0.83,-1.38 0,-0.78 0.51,-1.23 1.24,-1.23 0.51,0 1.09,0.15 1.72,0.86 l 0.01,0 c 0.06,-0.63 0.32,-0.86 0.75,-0.86 0.4,0 0.71,0.11 1.07,0.56 z" id="path4503" /><path style="fill:#000000;stroke-width:0" d="m 250.11,482.64 -0.06,0.03 c -0.63,-0.25 -1.05,-0.42 -1.75,-0.64 l 0,-0.19 c 0.17,0.04 0.27,0.05 0.41,0.05 0.3,0 0.41,-0.19 0.41,-0.71 l 0,-2.95 c 0,-0.59 -0.09,-0.68 -0.84,-0.82 l 0,-0.18 2.83,0 0,0.18 c -0.8,0.04 -1,0.21 -1,0.89 l 0,2.65 c 0,0.38 0.49,0.97 0.82,0.97 0.07,0 0.18,-0.06 0.31,-0.18 0.19,-0.17 0.32,-0.23 0.47,-0.23 0.29,0 0.46,0.2 0.46,0.53 0,0.39 -0.24,0.63 -0.65,0.63 -0.49,0 -0.82,-0.26 -1.41,-1.11 z" id="path4505" /><path style="fill:#000000;stroke-width:0" d="m 256.85,479.08 -0.05,-0.08 -0.05,-0.07 -0.06,-0.07 -0.05,-0.07 -0.05,-0.06 -0.05,-0.06 -0.05,-0.06 -0.04,-0.06 -0.05,-0.05 -0.05,-0.05 -0.05,-0.04 -0.05,-0.05 -0.05,-0.04 -0.04,-0.04 -0.05,-0.03 -0.05,-0.04 -0.05,-0.03 -0.05,-0.03 -0.05,-0.03 -0.05,-0.02 -0.05,-0.02 -0.05,-0.02 -0.06,-0.02 -0.05,-0.02 -0.05,-0.01 -0.06,-0.01 -0.06,-0.01 -0.05,-0.01 -0.06,-0.01 -0.06,0 -0.06,0 -0.06,0 c -1.09,0 -1.83,0.94 -1.83,2.3 0,1.23 0.65,2.05 1.6,2.05 0.43,0 0.58,-0.13 0.7,-0.56 l 0.07,-0.26 c 0.09,-0.35 0.31,-0.55 0.57,-0.55 0.3,0 0.55,0.23 0.55,0.5 0,0.66 -0.83,1.22 -1.82,1.22 -0.55,0 -1.12,-0.22 -1.59,-0.61 -0.64,-0.53 -0.99,-1.34 -0.99,-2.32 0,-1.53 0.93,-2.62 2.24,-2.62 0.51,0 0.96,0.16 1.36,0.49 0.35,0.29 0.59,0.63 0.97,1.36 z" id="path4507" /><path style="fill:#000000;stroke-width:0" d="m 262.11,479.08 -0.05,-0.08 -0.05,-0.07 -0.06,-0.07 -0.05,-0.07 -0.05,-0.06 -0.05,-0.06 -0.04,-0.06 -0.05,-0.06 -0.05,-0.05 -0.05,-0.05 -0.05,-0.04 -0.05,-0.05 -0.05,-0.04 -0.04,-0.04 -0.05,-0.03 -0.05,-0.04 -0.05,-0.03 -0.05,-0.03 -0.05,-0.03 -0.05,-0.02 -0.05,-0.02 -0.05,-0.02 -0.06,-0.02 -0.05,-0.02 -0.05,-0.01 -0.06,-0.01 -0.06,-0.01 -0.05,-0.01 -0.06,-0.01 -0.06,0 -0.06,0 -0.06,0 c -1.09,0 -1.83,0.94 -1.83,2.3 0,1.23 0.65,2.05 1.6,2.05 0.43,0 0.58,-0.13 0.7,-0.56 l 0.07,-0.26 c 0.09,-0.35 0.31,-0.55 0.57,-0.55 0.3,0 0.55,0.23 0.55,0.5 0,0.66 -0.83,1.22 -1.82,1.22 -0.55,0 -1.12,-0.22 -1.59,-0.61 -0.64,-0.53 -0.99,-1.34 -0.99,-2.32 0,-1.53 0.93,-2.62 2.24,-2.62 0.51,0 0.96,0.16 1.36,0.49 0.35,0.29 0.59,0.63 0.97,1.36 z" id="path4509" /><path style="fill:#000000;stroke-width:0" d="m 268.22,479.96 0,0.15 -0.01,0.15 -0.02,0.15 -0.02,0.14 -0.03,0.13 -0.03,0.14 -0.04,0.13 -0.04,0.12 -0.06,0.12 -0.05,0.12 -0.06,0.11 -0.07,0.11 -0.07,0.11 -0.07,0.1 -0.08,0.09 -0.08,0.09 -0.09,0.09 -0.09,0.08 -0.1,0.08 -0.1,0.07 -0.1,0.07 -0.11,0.06 -0.11,0.05 -0.11,0.05 -0.12,0.05 -0.12,0.04 -0.12,0.03 -0.13,0.03 -0.12,0.02 -0.13,0.01 -0.14,0.01 -0.13,0.01 c -1.59,0 -2.65,-1.1 -2.65,-2.74 0,-1.64 1.12,-2.81 2.55,-2.81 l 0.2,0.33 c -0.43,0 -0.81,0.21 -1.07,0.59 -0.43,0.63 -0.62,1.48 -0.62,2.42 0,1.18 0.55,1.87 1.37,1.87 0.5,0 0.84,-0.23 1.12,-0.59 0.38,-0.48 0.59,-1.29 0.59,-2.1 l 0,0 c 0,-1.37 -0.52,-2.19 -1.39,-2.19 l -0.2,-0.33 c 1.59,0 2.65,1.2 2.65,2.84 z" id="path4511" /><path style="fill:#000000;stroke-width:0" d="m 270.44,480.79 -0.03,0.02 -0.03,0.02 -0.03,0.02 -0.03,0.02 -0.03,0.02 -0.02,0.03 -0.03,0.02 -0.02,0.02 -0.02,0.03 -0.03,0.02 -0.02,0.03 -0.02,0.02 -0.02,0.03 -0.02,0.02 -0.01,0.03 -0.02,0.03 -0.02,0.02 -0.01,0.03 -0.01,0.03 -0.02,0.03 -0.01,0.02 -0.01,0.03 -0.01,0.03 -0.01,0.02 0,0.03 -0.01,0.03 -0.01,0.02 0,0.03 -0.01,0.03 0,0.02 0,0.03 0,0.02 c 0,0.56 0.38,0.8 0.89,0.8 0.7,0 1.06,-0.38 1.33,-1.45 l 0.18,0 -0.06,1.61 -0.13,0 c -0.1,-0.11 -0.14,-0.12 -0.19,-0.12 -0.08,0 -0.2,0.03 -0.33,0.09 -0.25,0.12 -0.51,0.13 -0.79,0.13 -0.97,0 -1.63,-0.52 -1.63,-1.45 0,-0.6 0.44,-1.17 1.41,-1.71 l 0.64,-0.35 c 0.39,-0.22 0.63,-0.52 0.63,-0.89 0,-0.48 -0.38,-0.87 -0.98,-0.87 -0.82,0 -1.25,0.52 -1.5,1.66 l -0.19,0 0,-1.85 0.15,0 c 0.07,0.12 0.15,0.14 0.29,0.14 0.13,0 0.26,-0.01 0.54,-0.11 0.27,-0.09 0.61,-0.1 0.86,-0.1 0.9,0 1.65,0.68 1.65,1.47 0,0.68 -0.28,0.99 -1.03,1.46 z" id="path4513" /><path style="fill:#000000;stroke-width:0" d="m 278.45,480.64 -0.23,0.64 c -0.14,0.39 -0.37,0.88 -0.89,1.16 l -1.56,-0.39 0.04,-0.21 c 0.12,0.05 0.29,0.07 0.45,0.07 0.65,0 0.95,-0.48 1.15,-1.05 l 0.39,-1.09 -0.76,-1.19 c -0.38,-0.58 -0.69,-0.7 -0.83,-0.7 -0.29,0 -0.25,0.24 -0.56,0.24 -0.29,0 -0.44,-0.25 -0.44,-0.44 0,-0.26 0.18,-0.55 0.61,-0.55 0.66,0 1,0.51 1.38,1.08 l 0.75,1.16 0.47,-1.33 c 0.15,-0.43 0.38,-0.91 0.86,-0.91 0.68,0 1.21,1.13 1.36,1.31 l -0.17,0.12 c -0.25,-0.51 -0.53,-0.68 -0.72,-0.68 -0.53,0 -0.8,1.6 -1.15,2.33 l 0.64,1 c 0.17,0.26 0.3,0.45 0.65,0.45 0.2,0 0.26,-0.1 0.52,-0.1 0.31,0 0.46,0.27 0.46,0.49 0,0.25 -0.2,0.39 -0.57,0.39 -0.6,0 -1.01,-0.52 -1.32,-0.99 z" id="path4515" /></g>  <g style="font-style:normal;font-variant:normal;font-weight:normal;font-stretch:normal;letter-spacing:normal;word-spacing:normal;text-anchor:start;fill:none;fill-opacity:1;fill-rule:evenodd;stroke:#000000;stroke-linecap:butt;stroke-linejoin:miter;stroke-miterlimit:10.43299961;stroke-dasharray:none;stroke-dashoffset:0;stroke-opacity:1" id="g5679" transform="matrix(2.0087336,0,0,-2.0087336,-228.39189,1158.4628)" xml:space="preserve" stroke-miterlimit="10.433" font-style="normal" font-variant="normal" font-weight="normal" font-stretch="normal" font-size-adjust="none" letter-spacing="normal" word-spacing="normal" ns0:text="$\\pi$" ns0:preamble="/Users/ABaker/cmep/Inkscape/underground-inkscape-preamble.tex"><path style="fill:#000000;stroke-width:0" d="m 216.28841,558.01204 -3.33,0 c -1.23,0 -1.99,-0.55 -2.5,-1.49 l 0.18,0 c 0.52,0.63 0.96,0.63 1.65,0.63 l -1.05,-2.44 c -0.16,-0.34 -0.37,-0.68 -0.88,-0.82 -0.31,-0.09 -0.36,-0.39 -0.36,-0.57 0,-0.28 0.29,-0.52 0.6,-0.52 0.14,0 0.32,0.03 0.45,0.13 0.99,0.74 1.35,2.78 1.9,4.22 l 1.11,0 c -0.3,-1 -0.65,-1.82 -0.92,-2.66 -0.08,-0.22 -0.11,-0.46 -0.11,-0.73 0,-0.46 0.2,-0.89 0.67,-0.89 0.83,0 1.45,0.83 1.7,1.68 l -0.19,0 c -0.28,-0.64 -0.61,-0.78 -0.86,-0.78 -0.26,0 -0.45,0.3 -0.45,0.57 0,0.79 0.63,2.3 0.79,2.81 l 1.33,0 z" id="path5681" /></g>  <g style="font-style:normal;font-variant:normal;font-weight:normal;font-stretch:normal;letter-spacing:normal;word-spacing:normal;text-anchor:start;fill:none;fill-opacity:1;fill-rule:evenodd;stroke:#000000;stroke-linecap:butt;stroke-linejoin:miter;stroke-miterlimit:10.43299961;stroke-dasharray:none;stroke-dashoffset:0;stroke-opacity:1" id="g4881" transform="matrix(2.0087336,0,0,-2.0087336,-256.2552,978.30001)" xml:space="preserve" stroke-miterlimit="10.433" font-style="normal" font-variant="normal" font-weight="normal" font-stretch="normal" font-size-adjust="none" letter-spacing="normal" word-spacing="normal" ns0:text="$y$" ns0:preamble="/Users/ABaker/cmep/Inkscape/underground-inkscape-preamble.tex"><path style="fill:#000000;stroke-width:0" d="m 226.62,480.86 -0.01,0.08 -0.01,0.08 -0.01,0.07 -0.01,0.07 -0.01,0.07 -0.01,0.07 -0.01,0.06 -0.01,0.06 -0.01,0.06 -0.01,0.05 -0.01,0.06 -0.01,0.05 -0.01,0.05 -0.01,0.04 -0.02,0.05 -0.01,0.05 -0.01,0.04 -0.02,0.04 -0.01,0.04 -0.01,0.04 -0.04,0.08 -0.03,0.07 -0.04,0.08 -0.04,0.07 -0.04,0.07 -0.05,0.07 -1.77,-0.3 0.02,-0.18 c 0.11,0.01 0.3,0.04 0.43,0.04 0.66,0 0.76,-0.71 0.82,-1.24 l 0.45,-3.7 c -0.31,-0.48 -0.98,-1.21 -1.18,-1.21 -0.19,0 -0.16,0.37 -0.67,0.37 -0.16,0 -0.47,-0.13 -0.47,-0.49 0,-0.28 0.22,-0.64 0.66,-0.64 0.8,0 1.57,1.15 2.43,2.24 0.5,0.62 2.41,3.46 2.41,4.38 0,0.46 -0.3,0.73 -0.67,0.73 -0.35,0 -0.56,-0.21 -0.56,-0.47 0,-0.45 0.61,-0.57 0.61,-0.82 0,-0.21 -0.09,-0.45 -0.33,-0.88 -0.26,-0.49 -0.67,-1.19 -1.39,-2.18 z" id="path4883" /></g>  <g style="font-style:normal;font-variant:normal;font-weight:normal;font-stretch:normal;letter-spacing:normal;word-spacing:normal;text-anchor:start;fill:none;fill-opacity:1;fill-rule:evenodd;stroke:#000000;stroke-linecap:butt;stroke-linejoin:miter;stroke-miterlimit:10.43299961;stroke-dasharray:none;stroke-dashoffset:0;stroke-opacity:1" ns0:preamble="/Users/ABaker/cmep/Inkscape/underground-inkscape-preamble.tex" ns0:text="$y = \\arcsin x$" word-spacing="normal" letter-spacing="normal" font-size-adjust="none" font-stretch="normal" font-weight="normal" font-variant="normal" font-style="normal" stroke-miterlimit="10.433" xml:space="preserve" transform="matrix(2.0087336,0,0,-2.0087336,-143.95924,1113.4688)" id="content"><path style="fill:#000000;stroke-width:0" id="path4317" d="m 226.62,480.86 -0.01,0.08 -0.01,0.08 -0.01,0.07 -0.01,0.07 -0.01,0.07 -0.01,0.07 -0.01,0.06 -0.01,0.06 -0.01,0.06 -0.01,0.05 -0.01,0.06 -0.01,0.05 -0.01,0.05 -0.01,0.04 -0.02,0.05 -0.01,0.05 -0.01,0.04 -0.02,0.04 -0.01,0.04 -0.01,0.04 -0.04,0.08 -0.03,0.07 -0.04,0.08 -0.04,0.07 -0.04,0.07 -0.05,0.07 -1.77,-0.3 0.02,-0.18 c 0.11,0.01 0.3,0.04 0.43,0.04 0.66,0 0.76,-0.71 0.82,-1.24 l 0.45,-3.7 c -0.31,-0.48 -0.98,-1.21 -1.18,-1.21 -0.19,0 -0.16,0.37 -0.67,0.37 -0.16,0 -0.47,-0.13 -0.47,-0.49 0,-0.28 0.22,-0.64 0.66,-0.64 0.8,0 1.57,1.15 2.43,2.24 0.5,0.62 2.41,3.46 2.41,4.38 0,0.46 -0.3,0.73 -0.67,0.73 -0.35,0 -0.56,-0.21 -0.56,-0.47 0,-0.45 0.61,-0.57 0.61,-0.82 0,-0.21 -0.09,-0.45 -0.33,-0.88 -0.26,-0.49 -0.67,-1.19 -1.39,-2.18 z" /><polygon style="fill:#000000;stroke-width:0" id="polygon4319" points="239.59,481.01 239.59,481.79 232.64,481.79 232.64,481.01 " /><polygon style="fill:#000000;stroke-width:0" id="polygon4321" points="239.59,478.65 239.59,479.43 232.64,479.43 232.64,478.65 " /><path style="fill:#000000;stroke-width:0" id="path4323" d="m 248.18,478.01 -0.02,-0.01 -0.02,-0.02 -0.02,-0.01 -0.02,-0.01 -0.01,-0.02 -0.02,-0.01 -0.02,-0.01 -0.01,-0.01 -0.02,-0.01 -0.01,-0.01 -0.02,-0.01 -0.01,-0.01 -0.02,-0.01 -0.01,-0.01 -0.02,0 -0.01,-0.01 -0.02,-0.01 -0.01,0 -0.02,-0.01 -0.01,0 -0.02,-0.01 -0.01,0 -0.02,0 -0.01,-0.01 -0.02,0 -0.01,0 -0.02,-0.01 -0.01,0 -0.02,0 -0.02,0 -0.01,0 -0.02,0 c -0.21,0 -0.37,0.24 -0.37,0.78 l 0,2.25 c 0,0.72 -0.04,0.97 -0.33,1.31 -0.28,0.35 -0.73,0.54 -1.39,0.54 -0.53,0 -1.03,-0.15 -1.36,-0.36 -0.41,-0.26 -0.6,-0.64 -0.6,-0.94 0,-0.32 0.26,-0.55 0.51,-0.55 0.3,0 0.54,0.26 0.54,0.49 0,0.25 -0.07,0.28 -0.07,0.49 0,0.32 0.35,0.58 0.83,0.58 0.53,0 0.92,-0.33 0.92,-1.06 l 0,-0.64 0,-0.28 0,-1.67 c 0,-0.34 -0.08,-0.5 -0.42,-0.74 -0.2,-0.13 -0.45,-0.19 -0.68,-0.19 -0.46,0 -0.82,0.28 -0.82,0.91 0,0.37 0.12,0.65 0.41,0.91 0.29,0.27 0.77,0.52 1.51,0.78 l 0,0.28 c -1.34,-0.49 -1.78,-0.72 -2.13,-0.95 -0.46,-0.31 -0.83,-0.77 -0.83,-1.38 0,-0.78 0.51,-1.23 1.24,-1.23 0.51,0 1.09,0.15 1.72,0.86 l 0.01,0 c 0.06,-0.63 0.32,-0.86 0.75,-0.86 0.4,0 0.71,0.11 1.07,0.56 z" /><path style="fill:#000000;stroke-width:0" id="path4325" d="m 250.11,482.64 -0.06,0.03 c -0.63,-0.25 -1.05,-0.42 -1.75,-0.64 l 0,-0.19 c 0.17,0.04 0.27,0.05 0.41,0.05 0.3,0 0.41,-0.19 0.41,-0.71 l 0,-2.95 c 0,-0.59 -0.09,-0.68 -0.84,-0.82 l 0,-0.18 2.83,0 0,0.18 c -0.8,0.04 -1,0.21 -1,0.89 l 0,2.65 c 0,0.38 0.49,0.97 0.82,0.97 0.07,0 0.18,-0.06 0.31,-0.18 0.19,-0.17 0.32,-0.23 0.47,-0.23 0.29,0 0.46,0.2 0.46,0.53 0,0.39 -0.24,0.63 -0.65,0.63 -0.49,0 -0.82,-0.26 -1.41,-1.11 z" /><path style="fill:#000000;stroke-width:0" id="path4327" d="m 256.85,479.08 -0.05,-0.08 -0.05,-0.07 -0.06,-0.07 -0.05,-0.07 -0.05,-0.06 -0.05,-0.06 -0.05,-0.06 -0.04,-0.06 -0.05,-0.05 -0.05,-0.05 -0.05,-0.04 -0.05,-0.05 -0.05,-0.04 -0.04,-0.04 -0.05,-0.03 -0.05,-0.04 -0.05,-0.03 -0.05,-0.03 -0.05,-0.03 -0.05,-0.02 -0.05,-0.02 -0.05,-0.02 -0.06,-0.02 -0.05,-0.02 -0.05,-0.01 -0.06,-0.01 -0.06,-0.01 -0.05,-0.01 -0.06,-0.01 -0.06,0 -0.06,0 -0.06,0 c -1.09,0 -1.83,0.94 -1.83,2.3 0,1.23 0.65,2.05 1.6,2.05 0.43,0 0.58,-0.13 0.7,-0.56 l 0.07,-0.26 c 0.09,-0.35 0.31,-0.55 0.57,-0.55 0.3,0 0.55,0.23 0.55,0.5 0,0.66 -0.83,1.22 -1.82,1.22 -0.55,0 -1.12,-0.22 -1.59,-0.61 -0.64,-0.53 -0.99,-1.34 -0.99,-2.32 0,-1.53 0.93,-2.62 2.24,-2.62 0.51,0 0.96,0.16 1.36,0.49 0.35,0.29 0.59,0.63 0.97,1.36 z" /><path style="fill:#000000;stroke-width:0" id="path4329" d="m 259.25,480.79 -0.03,0.02 -0.03,0.02 -0.03,0.02 -0.02,0.02 -0.03,0.02 -0.03,0.03 -0.02,0.02 -0.03,0.02 -0.02,0.03 -0.02,0.02 -0.02,0.03 -0.02,0.02 -0.02,0.03 -0.02,0.02 -0.02,0.03 -0.01,0.03 -0.02,0.02 -0.01,0.03 -0.02,0.03 -0.01,0.03 -0.01,0.02 -0.01,0.03 -0.01,0.03 -0.01,0.02 -0.01,0.03 -0.01,0.03 0,0.02 -0.01,0.03 0,0.03 0,0.02 0,0.03 0,0.02 c 0,0.56 0.37,0.8 0.88,0.8 0.71,0 1.06,-0.38 1.33,-1.45 l 0.18,0 -0.06,1.61 -0.13,0 c -0.09,-0.11 -0.14,-0.12 -0.18,-0.12 -0.09,0 -0.21,0.03 -0.34,0.09 -0.24,0.12 -0.5,0.13 -0.79,0.13 -0.97,0 -1.63,-0.52 -1.63,-1.45 0,-0.6 0.44,-1.17 1.42,-1.71 l 0.64,-0.35 c 0.39,-0.22 0.62,-0.52 0.62,-0.89 0,-0.48 -0.37,-0.87 -0.98,-0.87 -0.81,0 -1.25,0.52 -1.5,1.66 l -0.18,0 0,-1.85 0.15,0 c 0.07,0.12 0.14,0.14 0.28,0.14 0.13,0 0.26,-0.01 0.55,-0.11 0.27,-0.09 0.61,-0.1 0.86,-0.1 0.9,0 1.65,0.68 1.65,1.47 0,0.68 -0.28,0.99 -1.04,1.46 z" /><path style="fill:#000000;stroke-width:0" id="path4331" d="m 264.15,484.7 0,0.03 -0.01,0.03 0,0.03 -0.01,0.03 0,0.03 -0.01,0.02 -0.01,0.03 -0.01,0.03 -0.01,0.03 -0.01,0.02 -0.02,0.03 -0.01,0.02 -0.02,0.03 -0.02,0.02 -0.02,0.02 -0.02,0.02 -0.02,0.02 -0.02,0.02 -0.02,0.02 -0.03,0.02 -0.02,0.01 -0.02,0.02 -0.03,0.01 -0.03,0.01 -0.03,0.01 -0.02,0.01 -0.03,0.01 -0.03,0.01 -0.03,0 -0.03,0.01 -0.03,0 -0.04,0 c -0.33,0 -0.6,-0.27 -0.6,-0.6 0,-0.35 0.26,-0.61 0.59,-0.61 0.36,0 0.62,0.26 0.62,0.61 z" /><path style="fill:#000000;stroke-width:0" id="path4333" d="m 265.01,477.23 0,0.18 c -0.78,0.06 -0.88,0.19 -0.88,1.07 l 0,4.14 -0.04,0.05 -1.83,-0.65 0,-0.19 c 0.21,0.06 0.39,0.06 0.49,0.06 0.3,0 0.39,-0.19 0.39,-0.75 l 0,-2.68 c 0,-0.89 -0.12,-1 -0.93,-1.05 l 0,-0.18 z" /><path style="fill:#000000;stroke-width:0" id="path4335" d="m 271.04,477.23 0,0.18 c -0.58,0.06 -0.72,0.19 -0.72,0.83 l 0,2.61 c 0,1.17 -0.5,1.82 -1.39,1.82 -0.55,0 -1.09,-0.26 -1.7,-0.96 l -0.02,0 0,0.92 -0.09,0.04 c -0.58,-0.22 -0.97,-0.35 -1.62,-0.54 l 0,-0.2 c 0.09,0.04 0.22,0.05 0.35,0.05 0.33,0 0.41,-0.19 0.41,-0.77 l 0,-2.86 c 0,-0.7 -0.13,-0.89 -0.73,-0.94 l 0,-0.18 2.49,0 0,0.18 c -0.6,0.05 -0.77,0.21 -0.77,0.67 l 0,3.26 c 0.54,0.54 0.83,0.68 1.22,0.68 0.58,0 0.86,-0.36 0.86,-1.2 l 0,-2.34 c 0,-0.78 -0.14,-1.02 -0.73,-1.07 l -0.02,-0.18 z" /><path style="fill:#000000;stroke-width:0" id="path4337" d="m 276.49,480.64 -0.24,0.64 c -0.14,0.39 -0.37,0.88 -0.89,1.16 l -1.55,-0.39 0.03,-0.21 c 0.12,0.05 0.3,0.07 0.45,0.07 0.65,0 0.96,-0.48 1.16,-1.05 l 0.39,-1.09 -0.77,-1.19 c -0.38,-0.58 -0.68,-0.7 -0.83,-0.7 -0.29,0 -0.25,0.24 -0.55,0.24 -0.3,0 -0.45,-0.25 -0.45,-0.44 0,-0.26 0.19,-0.55 0.61,-0.55 0.67,0 1.01,0.51 1.38,1.08 l 0.75,1.16 0.47,-1.33 c 0.15,-0.43 0.38,-0.91 0.86,-0.91 0.69,0 1.22,1.13 1.36,1.31 l -0.16,0.12 c -0.25,-0.51 -0.54,-0.68 -0.72,-0.68 -0.54,0 -0.81,1.6 -1.16,2.33 l 0.65,1 c 0.16,0.26 0.29,0.45 0.65,0.45 0.2,0 0.26,-0.1 0.52,-0.1 0.3,0 0.46,0.27 0.46,0.49 0,0.25 -0.2,0.39 -0.58,0.39 -0.59,0 -1.01,-0.52 -1.31,-0.99 z" /></g>  <g style="font-style:normal;font-variant:normal;font-weight:normal;font-stretch:normal;letter-spacing:normal;word-spacing:normal;text-anchor:start;fill:none;fill-opacity:1;fill-rule:evenodd;stroke:#000000;stroke-linecap:butt;stroke-linejoin:miter;stroke-miterlimit:10.43299961;stroke-dasharray:none;stroke-dashoffset:0;stroke-opacity:1" ns0:preamble="/Users/ABaker/cmep/Inkscape/underground-inkscape-preamble.tex" ns0:text="$\\frac{\\pi}{2}$" word-spacing="normal" letter-spacing="normal" font-size-adjust="none" font-stretch="normal" font-weight="normal" font-variant="normal" font-style="normal" stroke-miterlimit="10.433" xml:space="preserve" transform="matrix(2.1404774,0,0,-2.1404774,-285.43675,1203.7307)" id="g5467"><path style="fill:#000000;stroke-width:0" id="path5469" d="m 229.67,485.81 -2.5,0 c -0.93,0 -1.49,-0.41 -1.88,-1.12 l 0.14,0 c 0.39,0.47 0.72,0.47 1.23,0.47 l -0.79,-1.82 c -0.11,-0.26 -0.27,-0.52 -0.66,-0.62 -0.23,-0.07 -0.27,-0.3 -0.27,-0.43 0,-0.21 0.22,-0.39 0.45,-0.39 0.11,0 0.24,0.02 0.34,0.1 0.75,0.56 1.02,2.08 1.43,3.16 l 0.83,0 c -0.22,-0.74 -0.49,-1.36 -0.69,-1.99 -0.05,-0.17 -0.08,-0.35 -0.08,-0.55 0,-0.35 0.15,-0.67 0.51,-0.67 0.62,0 1.09,0.63 1.28,1.26 l -0.15,0 c -0.21,-0.48 -0.46,-0.58 -0.65,-0.58 -0.19,0 -0.33,0.22 -0.33,0.42 0,0.6 0.47,1.73 0.59,2.11 l 1,0 z" /><line style="stroke-width:0.65799999" id="line5471" y2="479.73001" x2="229.59" y1="479.73001" x1="224.63" /><path style="fill:#000000;stroke-width:0" id="path5473" d="m 229.09,473.67 -0.12,0.05 c -0.29,-0.5 -0.48,-0.59 -0.85,-0.59 l -2.08,0 1.46,1.56 c 0.79,0.83 1.14,1.49 1.14,2.2 0,0.87 -0.64,1.56 -1.64,1.56 -1.09,0 -1.66,-0.73 -1.85,-1.77 l 0.19,-0.04 c 0.35,0.87 0.66,1.15 1.3,1.15 0.76,0 1.24,-0.44 1.24,-1.25 0,-0.75 -0.32,-1.43 -1.16,-2.31 l -1.58,-1.67 0,-0.11 3.47,0 z" /></g>  <g style="font-style:normal;font-variant:normal;font-weight:normal;font-stretch:normal;letter-spacing:normal;word-spacing:normal;text-anchor:start;fill:none;fill-opacity:1;fill-rule:evenodd;stroke:#000000;stroke-linecap:butt;stroke-linejoin:miter;stroke-miterlimit:10.43299961;stroke-dasharray:none;stroke-dashoffset:0;stroke-opacity:1" ns0:preamble="/Users/ABaker/cmep/Inkscape/underground-inkscape-preamble.tex" ns0:text="$x$" word-spacing="normal" letter-spacing="normal" font-size-adjust="none" font-stretch="normal" font-weight="normal" font-variant="normal" font-style="normal" stroke-miterlimit="10.433" xml:space="preserve" transform="matrix(2.0087336,0,0,-2.0087336,-9.588629,1278.9971)" id="g4695"><path style="fill:#000000;stroke-width:0" id="path4697" d="m 227.03,480.64 -0.23,0.64 c -0.15,0.39 -0.37,0.88 -0.89,1.16 l -1.56,-0.39 0.04,-0.21 c 0.12,0.05 0.29,0.07 0.45,0.07 0.65,0 0.95,-0.48 1.15,-1.05 l 0.39,-1.09 -0.76,-1.19 c -0.38,-0.58 -0.69,-0.7 -0.83,-0.7 -0.3,0 -0.25,0.24 -0.55,0.24 -0.3,0 -0.45,-0.25 -0.45,-0.44 0,-0.26 0.19,-0.55 0.61,-0.55 0.66,0 1,0.51 1.38,1.08 l 0.74,1.16 0.48,-1.33 c 0.15,-0.43 0.38,-0.91 0.86,-0.91 0.68,0 1.21,1.13 1.36,1.31 l -0.17,0.12 c -0.25,-0.51 -0.53,-0.68 -0.72,-0.68 -0.53,0 -0.8,1.6 -1.15,2.33 l 0.64,1 c 0.17,0.26 0.3,0.45 0.65,0.45 0.2,0 0.26,-0.1 0.52,-0.1 0.31,0 0.46,0.27 0.46,0.49 0,0.25 -0.2,0.39 -0.57,0.39 -0.6,0 -1.01,-0.52 -1.32,-0.99 z" /></g>  <g ns0:preamble="/Users/ABaker/cmep/Inkscape/underground-inkscape-preamble.tex" ns0:text="$-\\frac{\\pi}{2}$" word-spacing="normal" letter-spacing="normal" font-size-adjust="none" font-stretch="normal" font-weight="normal" font-variant="normal" font-style="normal" stroke-miterlimit="10.433" xml:space="preserve" transform="matrix(2.1404774,0,0,-2.1404774,-302.8627,1453.8177)" id="g5891" style="font-style:normal;font-variant:normal;font-weight:normal;font-stretch:normal;letter-spacing:normal;word-spacing:normal;text-anchor:start;fill:none;fill-opacity:1;fill-rule:evenodd;stroke:#000000;stroke-linecap:butt;stroke-linejoin:miter;stroke-miterlimit:10.43299961;stroke-dasharray:none;stroke-dashoffset:0;stroke-opacity:1"><polygon id="polygon5893" points="224.19,479.83 230.76,479.83 230.76,480.61 224.19,480.61 " style="fill:#000000;stroke-width:0" /><path id="path5895" d="m 237.79,485.81 -2.51,0 c -0.92,0 -1.49,-0.41 -1.88,-1.12 l 0.14,0 c 0.39,0.47 0.72,0.47 1.24,0.47 l -0.79,-1.82 c -0.12,-0.26 -0.28,-0.52 -0.66,-0.62 -0.23,-0.07 -0.28,-0.3 -0.28,-0.43 0,-0.21 0.23,-0.39 0.46,-0.39 0.1,0 0.24,0.02 0.33,0.1 0.75,0.56 1.03,2.08 1.43,3.16 l 0.84,0 c -0.22,-0.74 -0.49,-1.36 -0.7,-1.99 -0.05,-0.17 -0.07,-0.35 -0.07,-0.55 0,-0.35 0.15,-0.67 0.5,-0.67 0.62,0 1.09,0.63 1.28,1.26 l -0.14,0 c -0.22,-0.48 -0.46,-0.58 -0.65,-0.58 -0.2,0 -0.34,0.22 -0.34,0.42 0,0.6 0.47,1.73 0.6,2.11 l 0.99,0 z" style="fill:#000000;stroke-width:0" /><line id="line5897" y2="479.73001" x2="237.7" y1="479.73001" x1="232.74001" style="stroke-width:0.65799999" /><path id="path5899" d="m 237.21,473.67 -0.12,0.05 c -0.3,-0.5 -0.49,-0.59 -0.86,-0.59 l -2.08,0 1.47,1.56 c 0.79,0.83 1.14,1.49 1.14,2.2 0,0.87 -0.64,1.56 -1.65,1.56 -1.09,0 -1.66,-0.73 -1.84,-1.77 l 0.18,-0.04 c 0.36,0.87 0.67,1.15 1.31,1.15 0.75,0 1.23,-0.44 1.23,-1.25 0,-0.75 -0.32,-1.43 -1.15,-2.31 l -1.58,-1.67 0,-0.11 3.47,0 z" style="fill:#000000;stroke-width:0" /></g>  <g style="font-style:normal;font-variant:normal;font-weight:normal;font-stretch:normal;letter-spacing:normal;word-spacing:normal;text-anchor:start;fill:none;fill-opacity:1;fill-rule:evenodd;stroke:#000000;stroke-linecap:butt;stroke-linejoin:miter;stroke-miterlimit:10.43299961;stroke-dasharray:none;stroke-dashoffset:0;stroke-opacity:1" id="g5265" transform="matrix(1.7684082,0,0,-1.7684082,-330.29785,1170.2306)" xml:space="preserve" stroke-miterlimit="10.433" font-style="normal" font-variant="normal" font-weight="normal" font-stretch="normal" font-size-adjust="none" letter-spacing="normal" word-spacing="normal" ns0:text="$-1$" ns0:preamble="/Users/ABaker/cmep/Inkscape/underground-inkscape-preamble.tex"><polygon style="fill:#000000;stroke-width:0" points="230.76,479.83 230.76,480.61 224.19,480.61 224.19,479.83 " id="polygon5267" /><path style="fill:#000000;stroke-width:0" d="m 236.2,477.23 0,0.18 c -0.89,0 -1.12,0.21 -1.12,0.72 l 0,7.05 -0.11,0.04 -2.11,-1.08 0,-0.16 0.32,0.11 c 0.21,0.09 0.41,0.15 0.53,0.15 0.25,0 0.35,-0.18 0.35,-0.58 l 0,-5.3 c 0,-0.65 -0.24,-0.9 -1.12,-0.95 l 0,-0.18 z" id="path5269" /><g style="font-style:normal;font-variant:normal;font-weight:normal;font-stretch:normal;letter-spacing:normal;word-spacing:normal;text-anchor:start;fill:none;fill-opacity:1;fill-rule:evenodd;stroke:#000000;stroke-linecap:butt;stroke-linejoin:miter;stroke-miterlimit:10.43299961;stroke-dasharray:none;stroke-dashoffset:0;stroke-opacity:1" ns0:preamble="/Users/ABaker/cmep/Inkscape/underground-inkscape-preamble.tex" ns0:text="$1$" word-spacing="normal" letter-spacing="normal" font-size-adjust="none" font-stretch="normal" font-weight="normal" font-variant="normal" font-style="normal" stroke-miterlimit="10.433" xml:space="preserve" transform="matrix(1.0050957,0,0,1.0050957,155.52411,-1.2109609)" id="g3941"><path id="path3943" d="m 228.08,477.23 0,0.18 c -0.88,0 -1.12,0.21 -1.12,0.72 l 0,7.05 -0.1,0.04 -2.12,-1.08 0,-0.16 0.32,0.11 c 0.21,0.09 0.41,0.15 0.53,0.15 0.25,0 0.36,-0.18 0.36,-0.58 l 0,-5.3 c 0,-0.65 -0.25,-0.9 -1.13,-0.95 l 0,-0.18 z" style="fill:#000000;stroke-width:0" /></g></g>  <g style="font-style:normal;font-variant:normal;font-weight:normal;font-stretch:normal;letter-spacing:normal;word-spacing:normal;text-anchor:start;fill:none;fill-opacity:1;fill-rule:evenodd;stroke:#000000;stroke-linecap:butt;stroke-linejoin:miter;stroke-miterlimit:10.43299961;stroke-dasharray:none;stroke-dashoffset:0;stroke-opacity:1" id="g4177" transform="matrix(2.0165929,0,0,-2.0165929,-130.76303,1328.6341)" xml:space="preserve" stroke-miterlimit="10.433" font-style="normal" font-variant="normal" font-weight="normal" font-stretch="normal" font-size-adjust="none" letter-spacing="normal" word-spacing="normal" ns0:text="$y = -\\arcsin x$" ns0:preamble="/Users/ABaker/cmep/Inkscape/underground-inkscape-preamble.tex"><path style="fill:#000000;stroke-width:0" d="m 226.62,480.86 -0.01,0.08 -0.01,0.08 -0.01,0.07 -0.01,0.07 -0.01,0.07 -0.01,0.07 -0.01,0.06 -0.01,0.06 -0.01,0.06 -0.01,0.05 -0.01,0.06 -0.01,0.05 -0.01,0.05 -0.01,0.04 -0.02,0.05 -0.01,0.05 -0.01,0.04 -0.02,0.04 -0.01,0.04 -0.01,0.04 -0.04,0.08 -0.03,0.07 -0.04,0.08 -0.04,0.07 -0.04,0.07 -0.05,0.07 -1.77,-0.3 0.02,-0.18 c 0.11,0.01 0.3,0.04 0.43,0.04 0.66,0 0.76,-0.71 0.82,-1.24 l 0.45,-3.7 c -0.31,-0.48 -0.98,-1.21 -1.18,-1.21 -0.19,0 -0.16,0.37 -0.67,0.37 -0.16,0 -0.47,-0.13 -0.47,-0.49 0,-0.28 0.22,-0.64 0.66,-0.64 0.8,0 1.57,1.15 2.43,2.24 0.5,0.62 2.41,3.46 2.41,4.38 0,0.46 -0.3,0.73 -0.67,0.73 -0.35,0 -0.56,-0.21 -0.56,-0.47 0,-0.45 0.61,-0.57 0.61,-0.82 0,-0.21 -0.09,-0.45 -0.33,-0.88 -0.26,-0.49 -0.67,-1.19 -1.39,-2.18 z" id="path4179" /><polygon style="fill:#000000;stroke-width:0" points="232.64,481.01 239.59,481.01 239.59,481.79 232.64,481.79 " id="polygon4181" /><polygon style="fill:#000000;stroke-width:0" points="232.64,478.65 239.59,478.65 239.59,479.43 232.64,479.43 " id="polygon4183" /><polygon style="fill:#000000;stroke-width:0" points="243.71,479.83 250.29,479.83 250.29,480.61 243.71,480.61 " id="polygon4185" /><path style="fill:#000000;stroke-width:0" d="m 257.95,478.01 -0.02,-0.01 -0.02,-0.02 -0.01,-0.01 -0.02,-0.01 -0.02,-0.02 -0.02,-0.01 -0.01,-0.01 -0.02,-0.01 -0.01,-0.01 -0.02,-0.01 -0.01,-0.01 -0.02,-0.01 -0.01,-0.01 -0.02,-0.01 -0.01,0 -0.02,-0.01 -0.01,-0.01 -0.02,0 -0.01,-0.01 -0.02,0 -0.01,-0.01 -0.02,0 -0.01,0 -0.02,-0.01 -0.01,0 -0.02,0 -0.01,-0.01 -0.02,0 -0.02,0 -0.01,0 -0.02,0 -0.02,0 c -0.21,0 -0.36,0.24 -0.36,0.78 l 0,2.25 c 0,0.72 -0.05,0.97 -0.33,1.31 -0.29,0.35 -0.74,0.54 -1.4,0.54 -0.53,0 -1.02,-0.15 -1.36,-0.36 -0.41,-0.26 -0.6,-0.64 -0.6,-0.94 0,-0.32 0.26,-0.55 0.51,-0.55 0.31,0 0.54,0.26 0.54,0.49 0,0.25 -0.07,0.28 -0.07,0.49 0,0.32 0.36,0.58 0.83,0.58 0.53,0 0.92,-0.33 0.92,-1.06 l 0,-0.64 0,-0.28 0,-1.67 c 0,-0.34 -0.07,-0.5 -0.41,-0.74 -0.2,-0.13 -0.45,-0.19 -0.69,-0.19 -0.46,0 -0.81,0.28 -0.81,0.91 0,0.37 0.12,0.65 0.4,0.91 0.29,0.27 0.78,0.52 1.51,0.78 l 0,0.28 c -1.33,-0.49 -1.77,-0.72 -2.13,-0.95 -0.45,-0.31 -0.82,-0.77 -0.82,-1.38 0,-0.78 0.51,-1.23 1.24,-1.23 0.51,0 1.08,0.15 1.71,0.86 l 0.01,0 c 0.06,-0.63 0.32,-0.86 0.76,-0.86 0.4,0 0.71,0.11 1.06,0.56 z" id="path4187" /><path style="fill:#000000;stroke-width:0" d="m 259.88,482.64 -0.06,0.03 c -0.62,-0.25 -1.05,-0.42 -1.74,-0.64 l 0,-0.19 c 0.16,0.04 0.27,0.05 0.41,0.05 0.29,0 0.4,-0.19 0.4,-0.71 l 0,-2.95 c 0,-0.59 -0.08,-0.68 -0.84,-0.82 l 0,-0.18 2.84,0 0,0.18 c -0.81,0.04 -1.01,0.21 -1.01,0.89 l 0,2.65 c 0,0.38 0.5,0.97 0.83,0.97 0.07,0 0.18,-0.06 0.31,-0.18 0.18,-0.17 0.31,-0.23 0.47,-0.23 0.28,0 0.46,0.2 0.46,0.53 0,0.39 -0.25,0.63 -0.65,0.63 -0.5,0 -0.83,-0.26 -1.42,-1.11 z" id="path4189" /><path style="fill:#000000;stroke-width:0" d="m 266.62,479.08 -0.05,-0.08 -0.05,-0.07 -0.05,-0.07 -0.05,-0.07 -0.05,-0.06 -0.05,-0.06 -0.05,-0.06 -0.05,-0.06 -0.05,-0.05 -0.05,-0.05 -0.05,-0.04 -0.04,-0.05 -0.05,-0.04 -0.05,-0.04 -0.05,-0.03 -0.05,-0.04 -0.05,-0.03 -0.05,-0.03 -0.05,-0.03 -0.05,-0.02 -0.05,-0.02 -0.05,-0.02 -0.05,-0.02 -0.06,-0.02 -0.05,-0.01 -0.06,-0.01 -0.05,-0.01 -0.06,-0.01 -0.06,-0.01 -0.06,0 -0.06,0 -0.06,0 c -1.09,0 -1.83,0.94 -1.83,2.3 0,1.23 0.65,2.05 1.61,2.05 0.42,0 0.57,-0.13 0.69,-0.56 l 0.07,-0.26 c 0.1,-0.35 0.31,-0.55 0.57,-0.55 0.31,0 0.55,0.23 0.55,0.5 0,0.66 -0.82,1.22 -1.81,1.22 -0.56,0 -1.13,-0.22 -1.6,-0.61 -0.63,-0.53 -0.99,-1.34 -0.99,-2.32 0,-1.53 0.93,-2.62 2.24,-2.62 0.51,0 0.96,0.16 1.36,0.49 0.36,0.29 0.59,0.63 0.97,1.36 z" id="path4191" /><path style="fill:#000000;stroke-width:0" d="m 269.03,480.79 -0.03,0.02 -0.03,0.02 -0.03,0.02 -0.03,0.02 -0.03,0.02 -0.02,0.03 -0.03,0.02 -0.02,0.02 -0.02,0.03 -0.03,0.02 -0.02,0.03 -0.02,0.02 -0.02,0.03 -0.02,0.02 -0.01,0.03 -0.02,0.03 -0.01,0.02 -0.02,0.03 -0.01,0.03 -0.02,0.03 -0.01,0.02 -0.01,0.03 -0.01,0.03 -0.01,0.02 0,0.03 -0.01,0.03 -0.01,0.02 0,0.03 0,0.03 -0.01,0.02 0,0.03 0,0.02 c 0,0.56 0.38,0.8 0.89,0.8 0.7,0 1.06,-0.38 1.33,-1.45 l 0.18,0 -0.06,1.61 -0.13,0 c -0.1,-0.11 -0.14,-0.12 -0.19,-0.12 -0.08,0 -0.2,0.03 -0.33,0.09 -0.25,0.12 -0.51,0.13 -0.79,0.13 -0.97,0 -1.63,-0.52 -1.63,-1.45 0,-0.6 0.44,-1.17 1.41,-1.71 l 0.64,-0.35 c 0.39,-0.22 0.63,-0.52 0.63,-0.89 0,-0.48 -0.38,-0.87 -0.98,-0.87 -0.82,0 -1.25,0.52 -1.5,1.66 l -0.19,0 0,-1.85 0.15,0 c 0.07,0.12 0.15,0.14 0.29,0.14 0.13,0 0.26,-0.01 0.54,-0.11 0.27,-0.09 0.61,-0.1 0.86,-0.1 0.9,0 1.66,0.68 1.66,1.47 0,0.68 -0.29,0.99 -1.04,1.46 z" id="path4193" /><path style="fill:#000000;stroke-width:0" d="m 273.92,484.7 0,0.03 0,0.03 -0.01,0.03 0,0.03 -0.01,0.03 -0.01,0.02 -0.01,0.03 -0.01,0.03 -0.01,0.03 -0.01,0.02 -0.01,0.03 -0.02,0.02 -0.02,0.03 -0.01,0.02 -0.02,0.02 -0.02,0.02 -0.02,0.02 -0.02,0.02 -0.03,0.02 -0.02,0.02 -0.03,0.01 -0.02,0.02 -0.03,0.01 -0.02,0.01 -0.03,0.01 -0.03,0.01 -0.03,0.01 -0.03,0.01 -0.03,0 -0.03,0.01 -0.03,0 -0.03,0 c -0.33,0 -0.6,-0.27 -0.6,-0.6 0,-0.35 0.26,-0.61 0.59,-0.61 0.35,0 0.61,0.26 0.61,0.61 z" id="path4195" /><path style="fill:#000000;stroke-width:0" d="m 274.78,477.23 0,0.18 c -0.78,0.06 -0.87,0.19 -0.87,1.07 l 0,4.14 -0.05,0.05 -1.83,-0.65 0,-0.19 c 0.21,0.06 0.39,0.06 0.5,0.06 0.29,0 0.39,-0.19 0.39,-0.75 l 0,-2.68 c 0,-0.89 -0.12,-1 -0.94,-1.05 l 0,-0.18 z" id="path4197" /><path style="fill:#000000;stroke-width:0" d="m 280.82,477.23 0,0.18 c -0.58,0.06 -0.72,0.19 -0.72,0.83 l 0,2.61 c 0,1.17 -0.5,1.82 -1.4,1.82 -0.54,0 -1.08,-0.26 -1.7,-0.96 l -0.01,0 0,0.92 -0.1,0.04 c -0.57,-0.22 -0.96,-0.35 -1.61,-0.54 l 0,-0.2 c 0.08,0.04 0.21,0.05 0.34,0.05 0.33,0 0.41,-0.19 0.41,-0.77 l 0,-2.86 c 0,-0.7 -0.13,-0.89 -0.73,-0.94 l 0,-0.18 2.49,0 0,0.18 c -0.6,0.05 -0.77,0.21 -0.77,0.67 l 0,3.26 c 0.55,0.54 0.83,0.68 1.22,0.68 0.58,0 0.86,-0.36 0.86,-1.2 l 0,-2.34 c 0,-0.78 -0.14,-1.02 -0.73,-1.07 l -0.01,-0.18 z" id="path4199" /><path style="fill:#000000;stroke-width:0" d="m 286.26,480.64 -0.24,0.64 c -0.14,0.39 -0.36,0.88 -0.88,1.16 l -1.56,-0.39 0.04,-0.21 c 0.11,0.05 0.29,0.07 0.45,0.07 0.64,0 0.95,-0.48 1.15,-1.05 l 0.39,-1.09 -0.77,-1.19 c -0.37,-0.58 -0.68,-0.7 -0.82,-0.7 -0.3,0 -0.25,0.24 -0.56,0.24 -0.29,0 -0.45,-0.25 -0.45,-0.44 0,-0.26 0.19,-0.55 0.62,-0.55 0.66,0 1,0.51 1.38,1.08 l 0.74,1.16 0.48,-1.33 c 0.15,-0.43 0.37,-0.91 0.86,-0.91 0.68,0 1.21,1.13 1.36,1.31 l -0.17,0.12 c -0.25,-0.51 -0.53,-0.68 -0.72,-0.68 -0.53,0 -0.8,1.6 -1.16,2.33 l 0.65,1 c 0.17,0.26 0.3,0.45 0.65,0.45 0.2,0 0.26,-0.1 0.52,-0.1 0.31,0 0.46,0.27 0.46,0.49 0,0.25 -0.2,0.39 -0.58,0.39 -0.59,0 -1,-0.52 -1.31,-0.99 z" id="path4201" /></g></svg>