<?xml version='1.0' ?><svg xmlns:ns0="http://www.iki.fi/pav/software/textext/" xmlns:dc="http://purl.org/dc/elements/1.1/" xmlns:cc="http://creativecommons.org/ns#" xmlns:rdf="http://www.w3.org/1999/02/22-rdf-syntax-ns#" xmlns:svg="http://www.w3.org/2000/svg" xmlns="http://www.w3.org/2000/svg" id="svg2" version="1.1" width="373.74999" height="228.2848" viewBox="0.0 2.115383343946488 703.9999811638795 429.9999978595317" preserveAspectRatio="none">
  <metadata id="metadata155">
    <rdf:RDF>
      <cc:Work rdf:about="">
        <dc:format>image/svg+xml</dc:format>
        <dc:type rdf:resource="http://purl.org/dc/dcmitype/StillImage" />
      </cc:Work>
    </rdf:RDF>
  </metadata>
  <defs id="defs153" />
  <title id="title4" />
  <g stroke-linejoin="miter" stroke-dashoffset="0.0000" stroke-dasharray="none" stroke-width="1.0000" stroke-miterlimit="10.000" stroke-linecap="square" id="g6">
    <clipPath id="clip1">
      <path d="M 0.0000 0.0000 L 0.0000 432.00 L 704.00 432.00 L 704.00 0.0000 z" id="path9" />
    </clipPath>
    <g clip-path="url(#clip1)" id="g11">
      <g stroke-width="2.0000" stroke-linecap="butt" fill="none" stroke-opacity="1.0000" stroke="#000000" id="g13">
        <path d="M 84.263 3.0000 L 84.263 432.00" id="path15" />
      </g>
    </g>
    <clipPath id="clip2">
      <path d="M 0.0000 0.0000 L 0.0000 432.00 L 704.00 432.00 L 704.00 0.0000 z" id="path18" />
    </clipPath>
    <g clip-path="url(#clip2)" id="g20">
      <g fill-opacity="1.0000" fill-rule="evenodd" stroke="none" fill="#000000" id="g22">
        <path d="M 84.263 2.0000 L 79.263 22.000 L 89.263 22.000" id="path24" />
      </g>
    </g>
    <clipPath id="clip3">
      <path d="M 0.0000 0.0000 L 0.0000 432.00 L 704.00 432.00 L 704.00 0.0000 z" id="path27" />
    </clipPath>
    <g clip-path="url(#clip3)" id="g29">
      <g stroke-width="2.0000" stroke-linecap="butt" fill="none" stroke-opacity="1.0000" stroke="#000000" id="g31">
        <path d="M 0.0000 321.09 L 701.00 321.09" id="path33" />
      </g>
    </g>
    <clipPath id="clip4">
      <path d="M 0.0000 0.0000 L 0.0000 432.00 L 704.00 432.00 L 704.00 0.0000 z" id="path36" />
    </clipPath>
    <g clip-path="url(#clip4)" id="g38">
      <g fill-opacity="1.0000" fill-rule="evenodd" stroke="none" fill="#000000" id="g40">
        <path d="M 702.00 321.09 L 682.00 316.09 L 682.00 326.09" id="path42" />
      </g>
    </g>
    <clipPath id="clip5">
      <path d="M 0.0000 0.0000 L 0.0000 432.00 L 704.00 432.00 L 704.00 0.0000 z" id="path45" />
    </clipPath>
    <g clip-path="url(#clip5)" id="g47">
      <g stroke-width="2.0000" stroke-linecap="butt" fill="none" stroke-opacity="1.0000" stroke="#000000" id="g49">
        <path d="M 358.21 321.09 L 358.21 324.09" id="path51" />
      </g>
    </g>
    <clipPath id="clip6">
      <path d="M 0.0000 0.0000 L 0.0000 432.00 L 704.00 432.00 L 704.00 0.0000 z" id="path54" />
    </clipPath>
    <g clip-path="url(#clip6)" id="g56">
      <g stroke-width="2.0000" stroke-linecap="butt" fill="none" stroke-opacity="1.0000" stroke="#000000" id="g58">
        <path d="M 632.16 321.09 L 632.16 324.09" id="path60" />
      </g>
    </g>
    <clipPath id="clip7">
      <path d="M 0.0000 0.0000 L 0.0000 432.00 L 704.00 432.00 L 704.00 0.0000 z" id="path63" />
    </clipPath>
    <g clip-path="url(#clip7)" id="g65">
      <g stroke-width="2.0000" stroke-linecap="butt" fill="none" stroke-opacity="1.0000" stroke="#000000" id="g67">
        <path d="M 81.263 68.640 L 84.263 68.640" id="path69" />
      </g>
    </g>
    <g id="misc" />
    <g id="layer0">
      <clipPath id="clip8">
        <path d="M 0.0000 0.0000 L 0.0000 432.00 L 704.00 432.00 L 704.00 0.0000 z" id="path74" />
      </clipPath>
      <g clip-path="url(#clip8)" id="g76">
        <g fill-opacity=".098039" fill-rule="evenodd" stroke="none" fill="#993300" id="g78">
          <path d="M 84.263 321.09 L 86.403 321.06 L 88.544 320.94 L 90.684 320.75 L 92.824 320.49 L 94.964 320.15 L 97.105 319.73 L 99.245 319.24 L 101.39 318.67 L 103.53 318.03 L 105.67 317.31 L 107.81 316.52 L 109.95 315.66 L 112.09 314.72 L 114.23 313.72 L 116.37 312.64 L 118.51 311.49 L 120.65 310.27 L 122.79 308.98 L 124.93 307.62 L 127.07 306.19 L 129.21 304.70 L 131.35 303.14 L 133.49 301.51 L 135.63 299.82 L 137.77 298.07 L 139.91 296.25 L 142.05 294.38 L 144.19 292.44 L 146.33 290.45 L 148.47 288.40 L 150.61 286.29 L 152.75 284.12 L 154.89 281.91 L 157.03 279.64 L 159.17 277.32 L 161.31 274.95 L 163.45 272.53 L 165.59 270.06 L 167.73 267.55 L 169.87 265.00 L 172.01 262.40 L 174.15 259.76 L 176.29 257.08 L 178.43 254.37 L 180.57 251.62 L 182.71 248.84 L 184.85 246.02 L 186.99 243.17 L 189.13 240.30 L 191.28 237.39 L 193.42 234.46 L 195.56 231.51 L 197.70 228.53 L 199.84 225.54 L 201.98 222.52 L 204.12 219.49 L 206.26 216.45 L 208.40 213.39 L 210.54 210.32 L 212.68 207.24 L 214.82 204.15 L 216.96 201.06 L 219.10 197.96 L 221.24 194.87 L 223.38 191.77 L 225.52 188.67 L 227.66 185.58 L 229.80 182.49 L 231.94 179.42 L 234.08 176.35 L 236.22 173.29 L 238.36 170.24 L 240.50 167.21 L 242.64 164.20 L 244.78 161.20 L 246.92 158.23 L 249.06 155.27 L 251.20 152.34 L 253.34 149.44 L 255.48 146.56 L 257.62 143.71 L 259.76 140.90 L 261.90 138.11 L 264.04 135.36 L 266.18 132.65 L 268.32 129.97 L 270.46 127.34 L 272.60 124.74 L 274.74 122.18 L 276.88 119.67 L 279.03 117.21 L 281.17 114.79 L 283.31 112.42 L 285.45 110.10 L 287.59 107.83 L 289.73 105.61 L 291.87 103.45 L 294.01 101.34 L 296.15 99.286 L 298.29 97.292 L 300.43 95.356 L 302.57 93.480 L 304.71 91.665 L 306.85 89.913 L 308.99 88.223 L 311.13 86.598 L 313.27 85.038 L 315.41 83.544 L 317.55 82.118 L 319.69 80.759 L 321.83 79.469 L 323.97 78.248 L 326.11 77.098 L 328.25 76.018 L 330.39 75.010 L 332.53 74.075 L 334.67 73.212 L 336.81 72.422 L 338.95 71.707 L 341.09 71.065 L 343.23 70.498 L 345.37 70.006 L 347.51 69.589 L 349.65 69.247 L 351.79 68.982 L 353.93 68.792 L 356.07 68.678 L 358.21 68.640 L 358.21 321.09 L 84.263 321.09" id="path80" />
          <title id="title82">Number a_1</title>
          <desc id="desc84">Number a_1: Integral of g from 0 to Ã&#131;Â&#143;Ã&#130;Â&#128; / 2</desc>
        </g>
      </g>
      <clipPath id="clip9">
        <path d="M 0.0000 0.0000 L 0.0000 432.00 L 704.00 432.00 L 704.00 0.0000 z" id="path87" />
      </clipPath>
      <g clip-path="url(#clip9)" id="g89">
        <g stroke-linejoin="round" stroke-linecap="round" fill="none" stroke-opacity="1.0000" stroke="#993300" id="g91">
          <path d="M 84.263 321.09 L 86.403 321.06 L 88.544 320.94 L 90.684 320.75 L 92.824 320.49 L 94.964 320.15 L 97.105 319.73 L 99.245 319.24 L 101.39 318.67 L 103.53 318.03 L 105.67 317.31 L 107.81 316.52 L 109.95 315.66 L 112.09 314.72 L 114.23 313.72 L 116.37 312.64 L 118.51 311.49 L 120.65 310.27 L 122.79 308.98 L 124.93 307.62 L 127.07 306.19 L 129.21 304.70 L 131.35 303.14 L 133.49 301.51 L 135.63 299.82 L 137.77 298.07 L 139.91 296.25 L 142.05 294.38 L 144.19 292.44 L 146.33 290.45 L 148.47 288.40 L 150.61 286.29 L 152.75 284.12 L 154.89 281.91 L 157.03 279.64 L 159.17 277.32 L 161.31 274.95 L 163.45 272.53 L 165.59 270.06 L 167.73 267.55 L 169.87 265.00 L 172.01 262.40 L 174.15 259.76 L 176.29 257.08 L 178.43 254.37 L 180.57 251.62 L 182.71 248.84 L 184.85 246.02 L 186.99 243.17 L 189.13 240.30 L 191.28 237.39 L 193.42 234.46 L 195.56 231.51 L 197.70 228.53 L 199.84 225.54 L 201.98 222.52 L 204.12 219.49 L 206.26 216.45 L 208.40 213.39 L 210.54 210.32 L 212.68 207.24 L 214.82 204.15 L 216.96 201.06 L 219.10 197.96 L 221.24 194.87 L 223.38 191.77 L 225.52 188.67 L 227.66 185.58 L 229.80 182.49 L 231.94 179.42 L 234.08 176.35 L 236.22 173.29 L 238.36 170.24 L 240.50 167.21 L 242.64 164.20 L 244.78 161.20 L 246.92 158.23 L 249.06 155.27 L 251.20 152.34 L 253.34 149.44 L 255.48 146.56 L 257.62 143.71 L 259.76 140.90 L 261.90 138.11 L 264.04 135.36 L 266.18 132.65 L 268.32 129.97 L 270.46 127.34 L 272.60 124.74 L 274.74 122.18 L 276.88 119.67 L 279.03 117.21 L 281.17 114.79 L 283.31 112.42 L 285.45 110.10 L 287.59 107.83 L 289.73 105.61 L 291.87 103.45 L 294.01 101.34 L 296.15 99.286 L 298.29 97.292 L 300.43 95.356 L 302.57 93.480 L 304.71 91.665 L 306.85 89.913 L 308.99 88.223 L 311.13 86.598 L 313.27 85.038 L 315.41 83.544 L 317.55 82.118 L 319.69 80.759 L 321.83 79.469 L 323.97 78.248 L 326.11 77.098 L 328.25 76.018 L 330.39 75.010 L 332.53 74.075 L 334.67 73.212 L 336.81 72.422 L 338.95 71.707 L 341.09 71.065 L 343.23 70.498 L 345.37 70.006 L 347.51 69.589 L 349.65 69.247 L 351.79 68.982 L 353.93 68.792 L 356.07 68.678 L 358.21 68.640 L 358.21 321.09 L 84.263 321.09" id="path93" />
          <title id="title95">Number a_1</title>
          <desc id="desc97">Number a_1: Integral of g from 0 to Ã&#131;Â&#143;Ã&#130;Â&#128; / 2</desc>
        </g>
      </g>
      <clipPath id="clip10">
        <path d="M 0.0000 0.0000 L 0.0000 432.00 L 704.00 432.00 L 704.00 0.0000 z" id="path100" />
      </clipPath>
      <g clip-path="url(#clip10)" id="g102">
        <g stroke-linejoin="round" stroke-width="3.5000" stroke-linecap="round" fill="none" stroke-opacity="1.0000" stroke="#0000ff" id="g104">
          <path d="M 0.0000 266.61 L 5.5000 273.01 L 11.000 279.10 L 16.500 284.86 L 22.000 290.26 L 27.500 295.28 L 33.000 299.90 L 38.500 304.11 L 44.000 307.88 L 49.500 311.20 L 55.000 314.05 L 60.500 316.44 L 66.000 318.34 L 71.500 319.75 L 77.000 320.66 L 82.500 321.07 L 88.000 320.98 L 93.500 320.39 L 99.000 319.30 L 104.50 317.71 L 110.00 315.64 L 115.50 313.08 L 121.00 310.06 L 126.50 306.58 L 132.00 302.65 L 137.50 298.29 L 143.00 293.53 L 148.50 288.37 L 154.00 282.84 L 159.50 276.95 L 165.00 270.75 L 170.50 264.24 L 176.00 257.45 L 181.50 250.42 L 187.00 243.17 L 192.50 235.72 L 198.00 228.11 L 203.50 220.37 L 209.00 212.52 L 214.50 204.61 L 220.00 196.66 L 225.50 188.70 L 231.00 180.77 L 236.50 172.89 L 242.00 165.10 L 247.50 157.42 L 253.00 149.90 L 258.50 142.56 L 264.00 135.42 L 269.50 128.52 L 275.00 121.88 L 280.50 115.54 L 286.00 109.51 L 291.50 103.81 L 297.00 98.485 L 302.50 93.539 L 308.00 88.996 L 313.50 84.874 L 319.00 81.189 L 324.50 77.957 L 330.00 75.189 L 335.50 72.898 L 341.00 71.091 L 346.50 69.777 L 352.00 68.960 L 357.50 68.644 L 363.00 68.830 L 368.50 69.517 L 374.00 70.702 L 379.50 72.382 L 385.00 74.548 L 390.50 77.193 L 396.00 80.306 L 401.50 83.874 L 407.00 87.884 L 412.50 92.320 L 418.00 97.163 L 423.50 102.39 L 429.00 107.99 L 434.50 113.94 L 440.00 120.21 L 445.50 126.77 L 451.00 133.60 L 456.50 140.68 L 462.00 147.98 L 467.50 155.46 L 473.00 163.09 L 478.50 170.86 L 484.00 178.71 L 489.50 186.64 L 495.00 194.59 L 500.50 202.55 L 506.00 210.48 L 511.50 218.34 L 517.00 226.11 L 522.50 233.76 L 528.00 241.25 L 533.50 248.56 L 539.00 255.65 L 544.50 262.50 L 550.00 269.09 L 555.50 275.37 L 561.00 281.34 L 566.50 286.97 L 572.00 292.22 L 577.50 297.09 L 583.00 301.56 L 588.50 305.60 L 594.00 309.20 L 599.50 312.34 L 605.00 315.02 L 610.50 317.22 L 616.00 318.93 L 621.50 320.15 L 627.00 320.87 L 632.50 321.09 L 638.00 320.81 L 643.50 320.03 L 649.00 318.75 L 654.50 316.98 L 660.00 314.72 L 665.50 311.98 L 671.00 308.78 L 676.50 305.13 L 682.00 301.04 L 687.50 296.52 L 693.00 291.60 L 698.50 286.30 L 704.00 280.63" id="path106" />
          <title id="title108">Function g</title>
          <desc id="desc110">g(x) = sin(x)Ã&#131;Â&#130;Ã&#130;Â²</desc>
        </g>
      </g>
      <clipPath id="clip11">
        <path d="M 0.0000 0.0000 L 0.0000 432.00 L 704.00 432.00 L 704.00 0.0000 z" id="path113" />
      </clipPath>
      <g clip-path="url(#clip11)" id="g115">
        <g stroke-linejoin="round" stroke-dasharray="7.5000,4.0000" stroke-width="3.5000" stroke-linecap="butt" fill="none" stroke-opacity="1.0000" stroke="#404040" id="g117">
          <path d="M 84.263 68.640 L 88.000 68.640 L 93.500 68.640 L 99.000 68.640 L 104.50 68.640 L 110.00 68.640 L 115.50 68.640 L 121.00 68.640 L 126.50 68.640 L 132.00 68.640 L 137.50 68.640 L 143.00 68.640 L 148.50 68.640 L 154.00 68.640 L 159.50 68.640 L 165.00 68.640 L 170.50 68.640 L 176.00 68.640 L 181.50 68.640 L 187.00 68.640 L 192.50 68.640 L 198.00 68.640 L 203.50 68.640 L 209.00 68.640 L 214.50 68.640 L 220.00 68.640 L 225.50 68.640 L 231.00 68.640 L 236.50 68.640 L 242.00 68.640 L 247.50 68.640 L 253.00 68.640 L 258.50 68.640 L 264.00 68.640 L 269.50 68.640 L 275.00 68.640 L 280.50 68.640 L 286.00 68.640 L 291.50 68.640 L 297.00 68.640 L 302.50 68.640 L 308.00 68.640 L 313.50 68.640 L 319.00 68.640 L 324.50 68.640 L 330.00 68.640 L 335.50 68.640 L 341.00 68.640 L 346.50 68.640 L 352.00 68.640 L 357.50 68.640 L 358.21 68.640" id="path119" />
          <title id="title121">Function f</title>
          <desc id="desc123">f(x) = If[0 Ã&#131;Â¢Ã&#130;Â&#137;Ã&#130;Â¤ x Ã&#131;Â¢Ã&#130;Â&#137;Ã&#130;Â¤ Ã&#131;Â&#143;Ã&#130;Â&#128; / 2, 1]</desc>
        </g>
      </g>
      <clipPath id="clip12">
        <path d="M 0.0000 0.0000 L 0.0000 432.00 L 704.00 432.00 L 704.00 0.0000 z" id="path126" />
      </clipPath>
      <g clip-path="url(#clip12)" id="g128">
        <g fill-opacity="1.0000" fill-rule="nonzero" stroke="none" fill="#0000ff" id="g130">
          <path d="M 226.24 194.87 C 226.24 197.63 224.00 199.87 221.24 199.87 C 218.48 199.87 216.24 197.63 216.24 194.87 C 216.24 192.11 218.48 189.87 221.24 189.87 C 224.00 189.87 226.24 192.11 226.24 194.87 z" id="path132" />
          <title id="title134">Point A</title>
          <desc id="desc136">A = (0.79, 0.5)</desc>
        </g>
      </g>
      <clipPath id="clip13">
        <path d="M 0.0000 0.0000 L 0.0000 432.00 L 704.00 432.00 L 704.00 0.0000 z" id="path139" />
      </clipPath>
      <g clip-path="url(#clip13)" id="g141">
        <g stroke-linejoin="round" stroke-linecap="round" fill="none" stroke-opacity="1.0000" stroke="#000000" id="g143">
          <path d="M 226.24 194.87 C 226.24 197.63 224.00 199.87 221.24 199.87 C 218.48 199.87 216.24 197.63 216.24 194.87 C 216.24 192.11 218.48 189.87 221.24 189.87 C 224.00 189.87 226.24 192.11 226.24 194.87 z" id="path145" />
          <title id="title147">Point A</title>
          <desc id="desc149">A = (0.79, 0.5)</desc>
        </g>
      </g>
    </g>
  </g>
  <g style="font-style:normal;font-variant:normal;font-weight:normal;font-stretch:normal;letter-spacing:normal;word-spacing:normal;text-anchor:start;fill:none;fill-opacity:1;fill-rule:evenodd;stroke:#000000;stroke-linecap:butt;stroke-linejoin:miter;stroke-miterlimit:10.43299961;stroke-dasharray:none;stroke-dashoffset:0;stroke-opacity:1" id="content" transform="matrix(2.1053978,0,0,-2.1053978,-32.647559,1095.7752)" xml:space="preserve" stroke-miterlimit="10.433" font-style="normal" font-variant="normal" font-weight="normal" font-stretch="normal" font-size-adjust="none" letter-spacing="normal" word-spacing="normal" ns0:text="$y = \\sin^2 x$" ns0:preamble="/Users/ABaker/cmep/Inkscape/underground-inkscape-preamble.tex"><path style="fill:#000000;stroke-width:0" d="m 226.62,480.46 -0.01,0.08 -0.01,0.08 -0.01,0.07 -0.01,0.07 -0.01,0.07 -0.01,0.07 -0.01,0.06 -0.01,0.06 -0.01,0.06 -0.01,0.05 -0.01,0.06 -0.01,0.05 -0.01,0.05 -0.01,0.04 -0.02,0.05 -0.01,0.05 -0.01,0.04 -0.02,0.04 -0.01,0.04 -0.01,0.04 -0.04,0.08 -0.03,0.07 -0.04,0.08 -0.04,0.07 -0.04,0.07 -0.05,0.07 -1.77,-0.3 0.02,-0.18 c 0.11,0.01 0.3,0.04 0.43,0.04 0.66,0 0.76,-0.71 0.82,-1.24 l 0.45,-3.7 c -0.31,-0.48 -0.98,-1.21 -1.18,-1.21 -0.19,0 -0.16,0.37 -0.67,0.37 -0.16,0 -0.47,-0.13 -0.47,-0.49 0,-0.28 0.22,-0.65 0.66,-0.65 0.8,0 1.57,1.16 2.43,2.25 0.5,0.62 2.41,3.46 2.41,4.38 0,0.46 -0.3,0.73 -0.67,0.73 -0.35,0 -0.56,-0.21 -0.56,-0.47 0,-0.45 0.61,-0.57 0.61,-0.82 0,-0.21 -0.09,-0.45 -0.33,-0.88 -0.26,-0.49 -0.67,-1.19 -1.39,-2.18 z" id="path3569" /><polygon style="fill:#000000;stroke-width:0" points="239.59,481.39 232.64,481.39 232.64,480.61 239.59,480.61 " id="polygon3571" /><polygon style="fill:#000000;stroke-width:0" points="239.59,479.03 232.64,479.03 232.64,478.25 239.59,478.25 " id="polygon3573" /><path style="fill:#000000;stroke-width:0" d="m 244.8,480.39 -0.03,0.02 -0.03,0.02 -0.03,0.02 -0.03,0.02 -0.02,0.02 -0.03,0.03 -0.03,0.02 -0.02,0.02 -0.02,0.03 -0.02,0.02 -0.03,0.03 -0.02,0.02 -0.02,0.03 -0.01,0.02 -0.02,0.03 -0.02,0.03 -0.01,0.02 -0.02,0.03 -0.01,0.03 -0.01,0.03 -0.02,0.02 -0.01,0.03 -0.01,0.03 -0.01,0.02 0,0.03 -0.01,0.03 -0.01,0.02 0,0.03 0,0.03 -0.01,0.02 0,0.03 0,0.02 c 0,0.56 0.38,0.8 0.89,0.8 0.7,0 1.06,-0.38 1.33,-1.45 l 0.18,0 -0.06,1.61 -0.13,0 c -0.1,-0.11 -0.14,-0.12 -0.19,-0.12 -0.08,0 -0.2,0.04 -0.33,0.09 -0.25,0.12 -0.51,0.13 -0.79,0.13 -0.97,0 -1.63,-0.52 -1.63,-1.45 0,-0.6 0.44,-1.17 1.42,-1.71 l 0.63,-0.35 c 0.39,-0.22 0.63,-0.52 0.63,-0.89 0,-0.48 -0.38,-0.87 -0.98,-0.87 -0.81,0 -1.25,0.52 -1.5,1.66 l -0.19,0 0,-1.85 0.16,0 c 0.07,0.12 0.14,0.14 0.28,0.14 0.13,0 0.26,-0.01 0.54,-0.11 0.27,-0.09 0.61,-0.1 0.86,-0.1 0.9,0 1.66,0.68 1.66,1.47 0,0.68 -0.29,0.99 -1.04,1.45 z" id="path3575" /><path style="fill:#000000;stroke-width:0" d="m 249.69,484.3 0,0.03 0,0.03 -0.01,0.03 0,0.03 -0.01,0.03 -0.01,0.02 0,0.03 -0.01,0.03 -0.02,0.03 -0.01,0.02 -0.01,0.03 -0.02,0.02 -0.02,0.03 -0.01,0.02 -0.02,0.02 -0.02,0.02 -0.02,0.02 -0.02,0.02 -0.03,0.02 -0.02,0.02 -0.02,0.01 -0.03,0.02 -0.03,0.01 -0.02,0.01 -0.03,0.01 -0.03,0.01 -0.03,0.01 -0.03,0.01 -0.03,0 -0.03,0.01 -0.03,0 -0.03,0 c -0.33,0 -0.6,-0.27 -0.6,-0.6 0,-0.35 0.26,-0.61 0.59,-0.61 0.35,0 0.61,0.26 0.61,0.61 z" id="path3577" /><path style="fill:#000000;stroke-width:0" d="m 250.55,476.83 0,0.18 c -0.78,0.06 -0.87,0.19 -0.87,1.07 l 0,4.14 -0.05,0.05 -1.83,-0.65 0,-0.19 c 0.21,0.06 0.39,0.06 0.5,0.06 0.29,0 0.39,-0.19 0.39,-0.75 l 0,-2.68 c 0,-0.89 -0.12,-1 -0.93,-1.05 l 0,-0.18 z" id="path3579" /><path style="fill:#000000;stroke-width:0" d="m 256.59,476.83 0,0.18 c -0.58,0.06 -0.72,0.19 -0.72,0.83 l 0,2.61 c 0,1.17 -0.5,1.82 -1.4,1.82 -0.54,0 -1.08,-0.26 -1.7,-0.96 l -0.01,0 0,0.92 -0.09,0.04 c -0.58,-0.22 -0.97,-0.35 -1.62,-0.54 l 0,-0.2 c 0.08,0.04 0.21,0.05 0.34,0.05 0.33,0 0.41,-0.19 0.41,-0.77 l 0,-2.86 c 0,-0.7 -0.12,-0.89 -0.73,-0.94 l 0,-0.18 2.49,0 0,0.18 c -0.6,0.05 -0.76,0.22 -0.76,0.67 l 0,3.26 c 0.54,0.54 0.82,0.68 1.21,0.68 0.58,0 0.86,-0.36 0.86,-1.2 l 0,-2.34 c 0,-0.78 -0.14,-1.02 -0.73,-1.07 l -0.01,-0.18 z" id="path3581" /><path style="fill:#000000;stroke-width:0" d="m 260.99,482.4 -0.12,0.06 c -0.29,-0.5 -0.48,-0.6 -0.85,-0.6 l -2.08,0 1.46,1.56 c 0.8,0.84 1.14,1.5 1.14,2.2 0,0.88 -0.64,1.56 -1.64,1.56 -1.09,0 -1.66,-0.72 -1.85,-1.76 l 0.19,-0.04 c 0.35,0.86 0.66,1.15 1.3,1.15 0.76,0 1.24,-0.45 1.24,-1.25 0,-0.76 -0.32,-1.43 -1.16,-2.31 l -1.58,-1.67 0,-0.11 3.48,0 z" id="path3583" /><path style="fill:#000000;stroke-width:0" d="m 266.9,480.23 -0.24,0.65 c -0.14,0.39 -0.36,0.88 -0.88,1.16 l -1.56,-0.39 0.03,-0.21 c 0.12,0.05 0.3,0.07 0.45,0.07 0.65,0 0.96,-0.48 1.16,-1.05 l 0.39,-1.09 -0.77,-1.19 c -0.38,-0.58 -0.68,-0.7 -0.82,-0.7 -0.3,0 -0.25,0.24 -0.56,0.24 -0.29,0 -0.45,-0.25 -0.45,-0.44 0,-0.26 0.19,-0.55 0.62,-0.55 0.66,0 1,0.51 1.38,1.09 l 0.74,1.15 0.47,-1.33 c 0.16,-0.43 0.38,-0.91 0.87,-0.91 0.68,0 1.21,1.13 1.35,1.31 l -0.16,0.12 c -0.25,-0.51 -0.53,-0.68 -0.72,-0.68 -0.53,0 -0.81,1.6 -1.16,2.33 l 0.65,1 c 0.17,0.26 0.29,0.45 0.65,0.45 0.2,0 0.26,-0.1 0.52,-0.1 0.31,0 0.46,0.27 0.46,0.49 0,0.25 -0.2,0.39 -0.58,0.39 -0.59,0 -1,-0.52 -1.31,-0.99 z" id="path3585" /></g>  <g style="font-style:normal;font-variant:normal;font-weight:normal;font-stretch:normal;letter-spacing:normal;word-spacing:normal;text-anchor:start;fill:none;fill-opacity:1;fill-rule:evenodd;stroke:#000000;stroke-linecap:butt;stroke-linejoin:miter;stroke-miterlimit:10.43299961;stroke-dasharray:none;stroke-dashoffset:0;stroke-opacity:1" ns0:preamble="/Users/ABaker/cmep/Inkscape/underground-inkscape-preamble.tex" ns0:text="$x$" word-spacing="normal" letter-spacing="normal" font-size-adjust="none" font-stretch="normal" font-weight="normal" font-variant="normal" font-style="normal" stroke-miterlimit="10.433" xml:space="preserve" transform="matrix(2,0,0,-2,235.24226,1297.0484)" id="g3775"><path style="fill:#000000;stroke-width:0" id="path3777" d="m 227.03,480.64 -0.23,0.64 c -0.15,0.39 -0.37,0.88 -0.89,1.16 l -1.56,-0.39 0.04,-0.21 c 0.12,0.05 0.29,0.07 0.45,0.07 0.65,0 0.95,-0.48 1.15,-1.05 l 0.39,-1.09 -0.76,-1.19 c -0.38,-0.58 -0.69,-0.7 -0.83,-0.7 -0.3,0 -0.25,0.24 -0.55,0.24 -0.3,0 -0.45,-0.25 -0.45,-0.44 0,-0.26 0.19,-0.55 0.61,-0.55 0.66,0 1,0.51 1.38,1.08 l 0.74,1.16 0.48,-1.33 c 0.15,-0.43 0.38,-0.91 0.86,-0.91 0.68,0 1.21,1.13 1.36,1.31 l -0.17,0.12 c -0.25,-0.51 -0.53,-0.68 -0.72,-0.68 -0.53,0 -0.8,1.6 -1.15,2.33 l 0.64,1 c 0.17,0.26 0.3,0.45 0.65,0.45 0.2,0 0.26,-0.1 0.52,-0.1 0.31,0 0.46,0.27 0.46,0.49 0,0.25 -0.2,0.39 -0.57,0.39 -0.6,0 -1.01,-0.52 -1.32,-0.99 z" /></g>  <g style="font-style:normal;font-variant:normal;font-weight:normal;font-stretch:normal;letter-spacing:normal;word-spacing:normal;text-anchor:start;fill:none;fill-opacity:1;fill-rule:evenodd;stroke:#000000;stroke-linecap:butt;stroke-linejoin:miter;stroke-miterlimit:10.43299961;stroke-dasharray:none;stroke-dashoffset:0;stroke-opacity:1" id="g3971" transform="matrix(2,0,0,-2,-385.24011,976.42277)" xml:space="preserve" stroke-miterlimit="10.433" font-style="normal" font-variant="normal" font-weight="normal" font-stretch="normal" font-size-adjust="none" letter-spacing="normal" word-spacing="normal" ns0:text="$y$" ns0:preamble="/Users/ABaker/cmep/Inkscape/underground-inkscape-preamble.tex"><path style="fill:#000000;stroke-width:0" d="m 226.62,480.86 -0.01,0.08 -0.01,0.08 -0.01,0.07 -0.01,0.07 -0.01,0.07 -0.01,0.07 -0.01,0.06 -0.01,0.06 -0.01,0.06 -0.01,0.05 -0.01,0.06 -0.01,0.05 -0.01,0.05 -0.01,0.04 -0.02,0.05 -0.01,0.05 -0.01,0.04 -0.02,0.04 -0.01,0.04 -0.01,0.04 -0.04,0.08 -0.03,0.07 -0.04,0.08 -0.04,0.07 -0.04,0.07 -0.05,0.07 -1.77,-0.3 0.02,-0.18 c 0.11,0.01 0.3,0.04 0.43,0.04 0.66,0 0.76,-0.71 0.82,-1.24 l 0.45,-3.7 c -0.31,-0.48 -0.98,-1.21 -1.18,-1.21 -0.19,0 -0.16,0.37 -0.67,0.37 -0.16,0 -0.47,-0.13 -0.47,-0.49 0,-0.28 0.22,-0.64 0.66,-0.64 0.8,0 1.57,1.15 2.43,2.24 0.5,0.62 2.41,3.46 2.41,4.38 0,0.46 -0.3,0.73 -0.67,0.73 -0.35,0 -0.56,-0.21 -0.56,-0.47 0,-0.45 0.61,-0.57 0.61,-0.82 0,-0.21 -0.09,-0.45 -0.33,-0.88 -0.26,-0.49 -0.67,-1.19 -1.39,-2.18 z" id="path3973" /></g>  <g style="font-style:normal;font-variant:normal;font-weight:normal;font-stretch:normal;letter-spacing:normal;word-spacing:normal;text-anchor:start;fill:none;fill-opacity:1;fill-rule:evenodd;stroke:#000000;stroke-linecap:butt;stroke-linejoin:miter;stroke-miterlimit:10.43299961;stroke-dasharray:none;stroke-dashoffset:0;stroke-opacity:1" ns0:preamble="/Users/ABaker/cmep/Inkscape/underground-inkscape-preamble.tex" ns0:text="$\\frac{\\pi}{2}$" word-spacing="normal" letter-spacing="normal" font-size-adjust="none" font-stretch="normal" font-weight="normal" font-variant="normal" font-style="normal" stroke-miterlimit="10.433" xml:space="preserve" transform="matrix(2,0,0,-2,-97.005233,1303.7407)" id="g4171"><path style="fill:#000000;stroke-width:0" id="path4173" d="m 229.67,485.81 -2.5,0 c -0.93,0 -1.49,-0.41 -1.88,-1.12 l 0.14,0 c 0.39,0.47 0.72,0.47 1.23,0.47 l -0.79,-1.82 c -0.11,-0.26 -0.27,-0.52 -0.66,-0.62 -0.23,-0.07 -0.27,-0.3 -0.27,-0.43 0,-0.21 0.22,-0.39 0.45,-0.39 0.11,0 0.24,0.02 0.34,0.1 0.75,0.56 1.02,2.08 1.43,3.16 l 0.83,0 c -0.22,-0.74 -0.49,-1.36 -0.69,-1.99 -0.05,-0.17 -0.08,-0.35 -0.08,-0.55 0,-0.35 0.15,-0.67 0.51,-0.67 0.62,0 1.09,0.63 1.28,1.26 l -0.15,0 c -0.21,-0.48 -0.46,-0.58 -0.65,-0.58 -0.19,0 -0.33,0.22 -0.33,0.42 0,0.6 0.47,1.73 0.59,2.11 l 1,0 z" /><line style="stroke-width:0.65799999" id="line4175" y2="479.73001" x2="229.59" y1="479.73001" x1="224.63" /><path style="fill:#000000;stroke-width:0" id="path4177" d="m 229.09,473.67 -0.12,0.05 c -0.29,-0.5 -0.48,-0.59 -0.85,-0.59 l -2.08,0 1.46,1.56 c 0.79,0.83 1.14,1.49 1.14,2.2 0,0.87 -0.64,1.56 -1.64,1.56 -1.09,0 -1.66,-0.73 -1.85,-1.77 l 0.19,-0.04 c 0.35,0.87 0.66,1.15 1.3,1.15 0.76,0 1.24,-0.44 1.24,-1.25 0,-0.75 -0.32,-1.43 -1.16,-2.31 l -1.58,-1.67 0,-0.11 3.47,0 z" /></g>  <g style="font-style:normal;font-variant:normal;font-weight:normal;font-stretch:normal;letter-spacing:normal;word-spacing:normal;text-anchor:start;fill:none;fill-opacity:1;fill-rule:evenodd;stroke:#000000;stroke-linecap:butt;stroke-linejoin:miter;stroke-miterlimit:10.43299961;stroke-dasharray:none;stroke-dashoffset:0;stroke-opacity:1" id="g4383" transform="matrix(2,0,0,-2,-381.23508,1028.5947)" xml:space="preserve" stroke-miterlimit="10.433" font-style="normal" font-variant="normal" font-weight="normal" font-stretch="normal" font-size-adjust="none" letter-spacing="normal" word-spacing="normal" ns0:text="$1$" ns0:preamble="/Users/ABaker/cmep/Inkscape/underground-inkscape-preamble.tex"><path style="fill:#000000;stroke-width:0" d="m 228.08,477.23 0,0.18 c -0.88,0 -1.12,0.21 -1.12,0.72 l 0,7.05 -0.1,0.04 -2.12,-1.08 0,-0.16 0.32,0.11 c 0.21,0.09 0.41,0.15 0.53,0.15 0.25,0 0.36,-0.18 0.36,-0.58 l 0,-5.3 c 0,-0.65 -0.25,-0.9 -1.13,-0.95 l 0,-0.18 z" id="path4385" /></g></svg>