<?xml version='1.0' ?><svg xmlns:dc="http://purl.org/dc/elements/1.1/" xmlns:cc="http://creativecommons.org/ns#" xmlns:rdf="http://www.w3.org/1999/02/22-rdf-syntax-ns#" xmlns:svg="http://www.w3.org/2000/svg" xmlns="http://www.w3.org/2000/svg" version="1.1" id="svg4600" width="354.91834" height="220.45223" viewBox="39.515948 59.970726 354.91834 220.45223" preserveAspectRatio="none">
  <defs id="defs4602">
    <marker orient="auto" refY="0.0" refX="0.0" id="Arrow1Mstart" style="overflow:visible">
      <path id="path5148" d="M 0.0,0.0 L 5.0,-5.0 L -12.5,0.0 L 5.0,5.0 L 0.0,0.0 z " style="fill-rule:evenodd;stroke:#000000;stroke-width:1.0pt" transform="scale(0.4) translate(10,0)" />
    </marker>
    <marker orient="auto" refY="0.0" refX="0.0" id="Arrow1Mend" style="overflow:visible;">
      <path id="path5151" d="M 0.0,0.0 L 5.0,-5.0 L -12.5,0.0 L 5.0,5.0 L 0.0,0.0 z " style="fill-rule:evenodd;stroke:#000000;stroke-width:1.0pt;" transform="scale(0.4) rotate(180) translate(10,0)" />
    </marker>
  </defs>
  <metadata id="metadata4605">
    <rdf:RDF>
      <cc:Work rdf:about="">
        <dc:format>image/svg+xml</dc:format>
        <dc:type rdf:resource="http://purl.org/dc/dcmitype/StillImage" />
        <dc:title />
      </cc:Work>
    </rdf:RDF>
  </metadata>
  <g id="layer1">
    <path style="fill:none;stroke:#000000;stroke-width:1.49209154;stroke-linecap:butt;stroke-linejoin:miter;stroke-miterlimit:4;stroke-dasharray:none;stroke-opacity:1;marker-start:url(#Arrow1Mstart);marker-end:none" d="m 55.330877,62.820641 0,214.754609" id="path4608" />
    <path style="fill:none;stroke:#000000;stroke-width:1.49209154;stroke-linecap:butt;stroke-linejoin:miter;stroke-miterlimit:4;stroke-dasharray:none;stroke-opacity:1;marker-end:url(#Arrow1Mend)" d="m 42.008631,264.253 349.575739,0" id="path4610" />
    <path style="fill:none;stroke:#000000;stroke-width:1.49209154;stroke-linecap:butt;stroke-linejoin:miter;stroke-miterlimit:4;stroke-dasharray:none;stroke-opacity:1" d="m 84.106928,232.8125 c 0,0 37.687642,-87.14237 76.203242,-86.86105 40.77152,0.2978 55.16653,77.67721 95.38728,77.26903 C 312.57218,222.6433 357.47942,86.267794 357.47942,86.267794" id="path4612" />
    <path style="fill:none;stroke:#000000;stroke-width:1.49209154;stroke-linecap:butt;stroke-linejoin:miter;stroke-miterlimit:4;stroke-dasharray:none;stroke-opacity:1" d="m 160.31017,141.20526 0,9.26792 0,-8.4201" id="path4618" />
    <path id="path4620" d="m 255.69745,218.94594 0,9.26792 0,-8.4201" style="fill:none;stroke:#000000;stroke-width:1.49209154;stroke-linecap:butt;stroke-linejoin:miter;stroke-miterlimit:4;stroke-dasharray:none;stroke-opacity:1" />
    <path id="path4622" d="m 110.31375,177.45676 7.41403,5.56113 -6.7358,-5.0524" style="fill:none;stroke:#000000;stroke-width:1.49209154;stroke-linecap:butt;stroke-linejoin:miter;stroke-miterlimit:4;stroke-dasharray:none;stroke-opacity:1" />
    <path style="fill:none;stroke:#000000;stroke-width:1.49209154;stroke-linecap:butt;stroke-linejoin:miter;stroke-miterlimit:4;stroke-dasharray:none;stroke-opacity:1" d="m 186.53286,152.08376 -5.72682,7.28683 5.20293,-6.62024" id="path4624" />
    <path id="path4626" d="m 237.95293,212.45497 -5.37104,7.55291 4.8797,-6.86197" style="fill:none;stroke:#000000;stroke-width:1.49209154;stroke-linecap:butt;stroke-linejoin:miter;stroke-miterlimit:4;stroke-dasharray:none;stroke-opacity:1" />
    <path style="fill:none;stroke:#000000;stroke-width:1.49209154;stroke-linecap:butt;stroke-linejoin:miter;stroke-miterlimit:4;stroke-dasharray:none;stroke-opacity:1" d="m 293.41645,197.15531 7.10114,5.9555 -6.45153,-5.4107" id="path4628" />
    <g transform="matrix(1.3152571,0,0,1.3152571,-79.228019,46.04419)" id="g6344">
      <g style="font-style:normal;font-variant:normal;font-weight:normal;font-stretch:normal;letter-spacing:normal;word-spacing:normal;text-anchor:start;fill:none;stroke:#000000;stroke-linecap:butt;stroke-linejoin:miter;stroke-miterlimit:10.43299961;stroke-dasharray:none;stroke-dashoffset:0;stroke-opacity:1" id="content" transform="matrix(1.0629921,0,0,-1.0629921,-186.02362,789.27165)" xml:space="preserve" stroke-miterlimit="10.433" font-style="normal" font-variant="normal" font-weight="normal" font-stretch="normal" font-size-adjust="none" letter-spacing="normal" word-spacing="normal"><path style="fill:#000000;stroke-width:0" d="m 309.43,645.28 0,0.19 -0.19,0 c -0.49,0 -0.78,0.25 -0.86,0.81 l -0.91,6.75 -0.2,0 -4.14,-6.7 c -0.41,-0.67 -0.84,-0.81 -1.25,-0.86 l 0,-0.19 2.53,0 0,0.19 -0.33,0 c -0.31,0 -0.5,0.12 -0.5,0.33 0,0.09 0.03,0.22 0.11,0.31 l 0.97,1.62 2.31,0 -0.09,0.43 -1.97,0 1.61,2.64 0.08,0 0.28,-2.64 0,0 0.09,-0.43 0.14,-1.31 c 0.02,-0.08 0.03,-0.17 0.03,-0.25 0,-0.45 -0.18,-0.7 -0.84,-0.7 l -0.19,0 0,-0.19 3.32,0 z" id="path6347" /></g>    </g>
    <g transform="matrix(1.3152571,0,0,1.3152571,-27.86722,5.1158569)" id="g6393">
      <g style="font-style:normal;font-variant:normal;font-weight:normal;font-stretch:normal;letter-spacing:normal;word-spacing:normal;text-anchor:start;fill:none;stroke:#000000;stroke-linecap:butt;stroke-linejoin:miter;stroke-miterlimit:10.43299961;stroke-dasharray:none;stroke-dashoffset:0;stroke-opacity:1" word-spacing="normal" letter-spacing="normal" font-size-adjust="none" font-stretch="normal" font-weight="normal" font-variant="normal" font-style="normal" stroke-miterlimit="10.433" xml:space="preserve" transform="matrix(1.0629921,0,0,-1.0629921,-186.02362,789.27165)" id="g6395"><path style="fill:#000000;stroke-width:0" id="path6397" d="m 303.66,652.86 -0.06,-0.17 0.23,0 c 0.67,0 0.91,-0.19 0.91,-0.5 0,-0.07 -0.02,-0.19 -0.03,-0.24 l -1.42,-5.75 c -0.1,-0.4 -0.32,-0.73 -1.21,-0.73 l -0.23,0 -0.05,-0.19 3.77,0 c 2.4,0 3.36,1.1 3.36,2.24 0,1 -0.79,1.48 -1.49,1.6 l -0.03,0.05 c 0.23,0.06 0.58,0.16 0.86,0.3 0.56,0.28 1.06,0.81 1.06,1.72 0,1.58 -1.76,1.67 -2.73,1.67 l -0.02,-0.45 c 0.63,0 1.38,-0.24 1.38,-1.13 0,-1.14 -0.64,-1.9 -1.96,-1.9 l -0.12,-0.41 c 0.91,0 1.66,-0.41 1.66,-1.25 0,-1.52 -1.13,-2 -2.22,-2 -0.3,0 -0.53,0.03 -0.82,0.11 l 0.79,3.09 0,0 c 0.17,0.05 0.4,0.05 0.59,0.05 l 0.12,0.41 c -0.17,0 -0.37,0.03 -0.61,0.07 l 0.68,2.91 0.01,0.02 c 0.14,0.03 0.33,0.03 0.5,0.03 l 0.02,0.45 -2.94,0 z" /></g>    </g>
    <g transform="matrix(1.3152571,0,0,1.3152571,10.897502,19.867541)" id="g6449">
      <g style="font-style:normal;font-variant:normal;font-weight:normal;font-stretch:normal;letter-spacing:normal;word-spacing:normal;text-anchor:start;fill:none;stroke:#000000;stroke-linecap:butt;stroke-linejoin:miter;stroke-miterlimit:10.43299961;stroke-dasharray:none;stroke-dashoffset:0;stroke-opacity:1" id="g6451" transform="matrix(1.0629921,0,0,-1.0629921,-186.02362,789.27165)" xml:space="preserve" stroke-miterlimit="10.433" font-style="normal" font-variant="normal" font-weight="normal" font-stretch="normal" font-size-adjust="none" letter-spacing="normal" word-spacing="normal"><path style="fill:#000000;stroke-width:0" d="m 309.54,652.94 -0.22,0 c -0.17,-0.3 -0.36,-0.32 -0.48,-0.32 -0.61,0 -1.2,0.32 -1.84,0.32 -2.8,0 -5.14,-1.89 -5.14,-4.56 0,-1.72 1.1,-3.24 3.34,-3.24 0.45,0 1.34,0.08 2.25,0.7 0.33,0.25 0.72,0.6 1.03,1.08 l -0.23,0.14 c -0.07,-0.08 -0.11,-0.14 -0.21,-0.22 -0.51,-0.57 -1.36,-1.14 -2.5,-1.14 -1.58,0 -2.26,1.19 -2.26,2.49 0,1.98 1.37,4.31 3.7,4.31 1.41,0 1.77,-0.91 1.77,-1.67 0,-0.28 0,-0.39 -0.02,-0.49 l 0.17,0 0.64,2.6 z" id="path6453" /></g>    </g>
    <g transform="matrix(1.3152571,0,0,1.3152571,44.778718,94.540797)" id="g6511">
      <g style="font-style:normal;font-variant:normal;font-weight:normal;font-stretch:normal;letter-spacing:normal;word-spacing:normal;text-anchor:start;fill:none;stroke:#000000;stroke-linecap:butt;stroke-linejoin:miter;stroke-miterlimit:10.43299961;stroke-dasharray:none;stroke-dashoffset:0;stroke-opacity:1" word-spacing="normal" letter-spacing="normal" font-size-adjust="none" font-stretch="normal" font-weight="normal" font-variant="normal" font-style="normal" stroke-miterlimit="10.433" xml:space="preserve" transform="matrix(1.0629921,0,0,-1.0629921,-186.02362,789.27165)" id="g6513"><path style="fill:#000000;stroke-width:0" id="path6515" d="m 303.21,652.86 -0.06,-0.19 0.3,0 c 0.69,0 0.89,-0.17 0.89,-0.44 0,-0.07 -0.02,-0.18 -0.05,-0.28 l -1.4,-5.76 c -0.1,-0.39 -0.36,-0.72 -1.22,-0.72 l -0.22,0 -0.05,-0.19 3.56,0 c 2.99,0 4.9,1.94 4.9,4.39 0,2 -1.18,3.19 -3.36,3.19 l -0.14,-0.44 c 1.7,0 2.09,-1.59 2.09,-2.92 0,-1.64 -0.92,-3.78 -3.16,-3.78 -0.4,0 -1.09,0.03 -1.09,0.5 0,0.03 0,0.09 0.05,0.31 l 1.4,5.85 0.02,0.01 c 0.19,0.02 0.45,0.03 0.69,0.03 l 0.14,0.44 -3.29,0 z" /></g>    </g>
    <g transform="matrix(1.3152571,0,0,1.3152571,71.937387,104.20744)" id="g6579">
      <g style="font-style:normal;font-variant:normal;font-weight:normal;font-stretch:normal;letter-spacing:normal;word-spacing:normal;text-anchor:start;fill:none;stroke:#000000;stroke-linecap:butt;stroke-linejoin:miter;stroke-miterlimit:10.43299961;stroke-dasharray:none;stroke-dashoffset:0;stroke-opacity:1" id="g6581" transform="matrix(1.0629921,0,0,-1.0629921,-186.02362,789.27165)" xml:space="preserve" stroke-miterlimit="10.433" font-style="normal" font-variant="normal" font-weight="normal" font-stretch="normal" font-size-adjust="none" letter-spacing="normal" word-spacing="normal"><path style="fill:#000000;stroke-width:0" d="m 309.68,652.86 -6.21,0 -0.04,-0.17 0.21,0 c 0.69,0 0.88,-0.14 0.88,-0.42 0,-0.08 -0.02,-0.21 -0.06,-0.41 l -1.39,-5.67 c -0.1,-0.39 -0.36,-0.72 -1.22,-0.72 l -0.22,0 -0.05,-0.19 6.63,0 0.78,2.3 -0.19,0 c -0.5,-1.31 -1.16,-1.86 -2.98,-1.86 l -0.78,0 c -0.55,0 -0.74,0.12 -0.74,0.31 0,0.05 0.02,0.08 0.03,0.13 l 0.75,3 1.06,0 c 0.36,0 0.83,-0.05 0.83,-0.6 0,-0.2 -0.06,-0.54 -0.06,-0.7 l 0.19,0 0.67,2.81 -0.17,0 c -0.27,-0.95 -0.78,-1.11 -1.47,-1.11 l -0.94,0 0.69,2.89 1.87,0 c 0.6,0 1.24,-0.15 1.27,-1.01 0,-0.13 -0.02,-0.25 -0.02,-0.41 l 0.18,0 0.5,1.83 z" id="path6583" /></g>    </g>
    <g transform="matrix(1.3152571,0,0,1.3152571,121.78271,78.002986)" id="g6653">
      <g style="font-style:normal;font-variant:normal;font-weight:normal;font-stretch:normal;letter-spacing:normal;word-spacing:normal;text-anchor:start;fill:none;stroke:#000000;stroke-linecap:butt;stroke-linejoin:miter;stroke-miterlimit:10.43299961;stroke-dasharray:none;stroke-dashoffset:0;stroke-opacity:1" word-spacing="normal" letter-spacing="normal" font-size-adjust="none" font-stretch="normal" font-weight="normal" font-variant="normal" font-style="normal" stroke-miterlimit="10.433" xml:space="preserve" transform="matrix(1.0629921,0,0,-1.0629921,-186.02362,789.27165)" id="g6655"><path style="fill:#000000;stroke-width:0" id="path6657" d="m 309.6,652.86 -6.03,0 -0.05,-0.17 0.22,0 c 0.7,0 0.89,-0.21 0.89,-0.46 0,-0.07 -0.03,-0.18 -0.05,-0.28 l -1.45,-5.76 c -0.09,-0.39 -0.34,-0.72 -1.22,-0.72 l -0.22,0 -0.05,-0.19 3.97,0 0.05,0.19 -0.36,0 c -0.7,0 -0.92,0.19 -0.92,0.47 0,0.09 0.03,0.18 0.05,0.25 l 0.7,2.95 1.14,0 c 0.34,0 0.81,-0.03 0.81,-0.58 0,-0.22 -0.01,-0.54 -0.06,-0.72 l 0.19,0 0.7,2.82 -0.19,0 c -0.25,-0.99 -0.78,-1.1 -1.5,-1.1 l -0.97,0 0.72,2.88 1.72,0 c 0.55,0 1.24,-0.11 1.28,-1.02 0,-0.15 0,-0.33 -0.01,-0.42 l 0.17,0 0.47,1.86 z" /></g>    </g>
    <g transform="matrix(1.3152571,0,0,1.3152571,203.396,142.35394)" id="g6733">
      <g style="font-style:normal;font-variant:normal;font-weight:normal;font-stretch:normal;letter-spacing:normal;word-spacing:normal;text-anchor:start;fill:none;stroke:#000000;stroke-linecap:butt;stroke-linejoin:miter;stroke-miterlimit:10.43299961;stroke-dasharray:none;stroke-dashoffset:0;stroke-opacity:1" id="g6735" transform="matrix(1.0629921,0,0,-1.0629921,-186.02362,789.27165)" xml:space="preserve" stroke-miterlimit="10.433" font-style="normal" font-variant="normal" font-weight="normal" font-stretch="normal" font-size-adjust="none" letter-spacing="normal" word-spacing="normal"><path style="fill:#000000;stroke-width:0" d="m 305.99,648.62 -0.24,0.65 c -0.14,0.37 -0.36,0.85 -0.89,1.14 l -1.53,-0.39 0.05,-0.21 c 0.12,0.05 0.3,0.07 0.44,0.07 0.64,0 0.95,-0.47 1.14,-1.04 l 0.37,-1.06 -0.73,-1.17 c -0.38,-0.58 -0.69,-0.69 -0.83,-0.69 -0.28,0 -0.23,0.24 -0.53,0.24 -0.3,0 -0.45,-0.25 -0.45,-0.44 0,-0.25 0.18,-0.55 0.6,-0.55 0.66,0 0.99,0.5 1.36,1.08 l 0.74,1.14 0.45,-1.31 c 0.16,-0.42 0.38,-0.91 0.86,-0.91 0.67,0 1.19,1.13 1.33,1.3 l -0.16,0.11 c -0.25,-0.5 -0.53,-0.66 -0.72,-0.66 -0.51,0 -0.78,1.56 -1.12,2.28 l 0.64,1 c 0.16,0.25 0.28,0.44 0.62,0.44 0.21,0 0.27,-0.11 0.52,-0.11 0.3,0 0.45,0.27 0.45,0.49 0,0.25 -0.2,0.39 -0.56,0.39 -0.58,0 -1,-0.52 -1.3,-0.99 l -0.53,-0.8 z" id="path6737" /></g>    </g>
    <g transform="matrix(1.3152571,0,0,1.3152571,-136.87366,-65.59179)" id="g6819">
      <g style="font-style:normal;font-variant:normal;font-weight:normal;font-stretch:normal;letter-spacing:normal;word-spacing:normal;text-anchor:start;fill:none;stroke:#000000;stroke-linecap:butt;stroke-linejoin:miter;stroke-miterlimit:10.43299961;stroke-dasharray:none;stroke-dashoffset:0;stroke-opacity:1" word-spacing="normal" letter-spacing="normal" font-size-adjust="none" font-stretch="normal" font-weight="normal" font-variant="normal" font-style="normal" stroke-miterlimit="10.433" xml:space="preserve" transform="matrix(1.0629921,0,0,-1.0629921,-186.02362,789.27165)" id="g6821"><path style="fill:#000000;stroke-width:0" id="path6823" d="m 305.89,648.84 -0.01,0.08 -0.01,0.08 -0.01,0.07 -0.01,0.07 -0.01,0.07 -0.01,0.06 -0.01,0.07 -0.01,0.06 -0.01,0.05 -0.01,0.06 -0.01,0.05 -0.01,0.05 -0.01,0.05 -0.01,0.05 -0.01,0.04 -0.02,0.05 -0.01,0.04 -0.01,0.04 -0.02,0.04 -0.01,0.04 -0.03,0.08 -0.04,0.07 -0.04,0.07 -0.04,0.07 -0.04,0.07 -0.03,0.04 -0.02,0.03 -1.75,-0.3 0.04,-0.17 c 0.1,0 0.28,0.05 0.41,0.05 0.66,0 0.76,-0.7 0.81,-1.22 l 0.44,-3.66 c -0.3,-0.47 -0.95,-1.18 -1.16,-1.18 -0.17,0 -0.15,0.36 -0.65,0.36 -0.16,0 -0.47,-0.13 -0.47,-0.47 0,-0.28 0.22,-0.64 0.65,-0.64 0.79,0 1.55,1.14 2.39,2.2 0.49,0.62 2.38,3.41 2.38,4.31 0,0.45 -0.3,0.72 -0.67,0.72 -0.33,0 -0.55,-0.2 -0.55,-0.47 0,-0.44 0.61,-0.54 0.61,-0.8 0,-0.2 -0.09,-0.43 -0.33,-0.87 -0.25,-0.47 -0.65,-1.17 -1.37,-2.13 z" /></g>    </g>
    <g transform="matrix(1.3152571,0,0,1.3152571,-137.83403,144.3311)" id="g6911">
      <g style="font-style:normal;font-variant:normal;font-weight:normal;font-stretch:normal;letter-spacing:normal;word-spacing:normal;text-anchor:start;fill:none;stroke:#000000;stroke-linecap:butt;stroke-linejoin:miter;stroke-miterlimit:10.43299961;stroke-dasharray:none;stroke-dashoffset:0;stroke-opacity:1" id="g6913" transform="matrix(1.0629921,0,0,-1.0629921,-186.02362,789.27165)" xml:space="preserve" stroke-miterlimit="10.433" font-style="normal" font-variant="normal" font-weight="normal" font-stretch="normal" font-size-adjust="none" letter-spacing="normal" word-spacing="normal"><path style="fill:#000000;stroke-width:0" d="m 309.54,650.16 -0.01,0.13 -0.01,0.14 -0.01,0.14 -0.02,0.13 -0.02,0.14 -0.04,0.13 -0.03,0.13 -0.04,0.13 -0.05,0.12 -0.06,0.13 -0.05,0.12 -0.07,0.12 -0.07,0.11 -0.07,0.11 -0.09,0.11 -0.08,0.1 -0.1,0.1 -0.1,0.1 -0.1,0.09 -0.11,0.08 -0.12,0.08 -0.12,0.07 -0.12,0.07 -0.14,0.06 -0.13,0.06 -0.15,0.05 -0.15,0.04 -0.15,0.03 -0.17,0.03 -0.16,0.02 -0.18,0.01 -0.18,0.01 -0.09,-0.43 c 1.17,0 1.64,-0.95 1.64,-2.2 l 0,0 c 0,-1.64 -0.84,-4.83 -3.31,-4.83 -0.91,0 -1.63,0.61 -1.63,1.75 0,1.64 0.61,5.28 3.3,5.28 l 0.09,0.43 c -2.95,0 -4.79,-2.83 -4.79,-5.19 0,-1.59 1.2,-2.7 2.94,-2.7 2.93,0 4.75,2.7 4.75,5 z" id="path6915" /></g>    </g>
  </g>
</svg>