<?xml version='1.0' ?><svg xmlns:ns0="http://www.iki.fi/pav/software/textext/" xmlns:dc="http://purl.org/dc/elements/1.1/" xmlns:cc="http://creativecommons.org/ns#" xmlns:rdf="http://www.w3.org/1999/02/22-rdf-syntax-ns#" xmlns:svg="http://www.w3.org/2000/svg" xmlns="http://www.w3.org/2000/svg" id="svg2" version="1.1" width="412.10646" height="407.79523" viewBox="1.010176535248496 782.4542443990044 499.6274170721326 494.4005911948971" preserveAspectRatio="none">
  <metadata id="metadata445">
    <rdf:RDF>
      <cc:Work rdf:about="">
        <dc:format>image/svg+xml</dc:format>
        <dc:type rdf:resource="http://purl.org/dc/dcmitype/StillImage" />
        <dc:title />
      </cc:Work>
    </rdf:RDF>
  </metadata>
  <defs id="defs443" />
  <g transform="translate(0,810.72078)" style="stroke-width:1;stroke-linecap:square;stroke-linejoin:miter;stroke-miterlimit:10;stroke-dasharray:none;stroke-dashoffset:0" id="g6" stroke-miterlimit="10.000">
    <clipPath id="clip1">
      <path id="path9" d="m 0,0 0,469 458,0 0,-469 z" />
    </clipPath>
    <g id="g11" clip-path="url(#clip1)">
      <g style="fill:none;stroke:#000000;stroke-linecap:butt;stroke-opacity:1" id="g13">
        <path id="path15" d="m 61.733,2 0,467" />
      </g>
    </g>
    <clipPath id="clip2">
      <path id="path18" d="m 0,0 0,469 458,0 0,-469 z" />
    </clipPath>
    <g id="g20" clip-path="url(#clip2)">
      <g style="fill:#000000;fill-opacity:1;fill-rule:evenodd;stroke:none" id="g22">
        <path id="path24" d="m 61.733,1 -4,16 8,0" />
      </g>
    </g>
    <clipPath id="clip3">
      <path id="path27" d="m 0,0 0,469 458,0 0,-469 z" />
    </clipPath>
    <g id="g29" clip-path="url(#clip3)">
      <g style="fill:none;stroke:#000000;stroke-linecap:butt;stroke-opacity:1" id="g31">
        <path id="path33" d="m 0,424.77 456,0" />
      </g>
    </g>
    <clipPath id="clip4">
      <path id="path36" d="m 0,0 0,469 458,0 0,-469 z" />
    </clipPath>
    <g id="g38" clip-path="url(#clip4)">
      <g style="fill:#000000;fill-opacity:1;fill-rule:evenodd;stroke:none" id="g40">
        <path id="path42" d="m 457,424.77 -16,-4 0,8" />
      </g>
    </g>
    <clipPath id="clip5">
      <path id="path45" d="m 0,0 0,469 458,0 0,-469 z" />
    </clipPath>
    <g id="g47" clip-path="url(#clip5)">
      <g style="fill:#000000;fill-opacity:1;fill-rule:nonzero;stroke:none" id="g49">
        <path id="path51" d="m 70.762,440.22 q -1.342,0 -2.171,-1.27 -0.829,-1.26 -0.829,-3.29 0,-2.05 0.835,-3.3 0.835,-1.25 2.2,-1.25 1.365,0 2.2,1.25 0.835,1.25 0.835,3.28 0,2.09 -0.835,3.33 -0.835,1.25 -2.235,1.25 z m 0.011,-0.87 q 1.834,0 1.834,-3.73 0,-3.64 -1.81,-3.64 -1.805,0 -1.805,3.68 0,3.69 1.781,3.69 z" />
      </g>
    </g>
    <clipPath id="clip6">
      <path id="path54" d="m 0,0 0,469 458,0 0,-469 z" />
    </clipPath>
    <g id="g56" clip-path="url(#clip6)">
      <g style="fill:none;stroke:#000000;stroke-linecap:butt;stroke-opacity:1" id="g58">
        <path id="path60" d="m 61.733,424.77 0,3" />
      </g>
    </g>
    <clipPath id="clip7">
      <path id="path63" d="m 0,0 0,469 458,0 0,-469 z" />
    </clipPath>
    <g id="g65" clip-path="url(#clip7)">
      <g style="fill:#000000;fill-opacity:1;fill-rule:nonzero;stroke:none" id="g67">
        <path id="path69" d="m 144,440 0,-1.01 q 0.5,-1.18 2.04,-2.57 l 0.66,-0.59 q 1.27,-1.16 1.27,-2.29 0,-0.73 -0.43,-1.15 -0.44,-0.41 -1.2,-0.41 -0.9,0 -2.13,0.7 l 0,-1.02 q 1.16,-0.55 2.29,-0.55 1.22,0 1.96,0.66 0.74,0.65 0.74,1.74 0,0.78 -0.37,1.38 -0.37,0.6 -1.39,1.47 l -0.44,0.38 q -1.39,1.17 -1.61,2.25 l 3.77,0 0,1.01 z m 10.35,0.22 q -1.34,0 -2.17,-1.27 -0.83,-1.26 -0.83,-3.29 0,-2.05 0.83,-3.3 0.84,-1.25 2.2,-1.25 1.37,0 2.2,1.25 0.84,1.25 0.84,3.28 0,2.09 -0.84,3.33 -0.83,1.25 -2.23,1.25 z m 0.01,-0.87 q 1.84,0 1.84,-3.73 0,-3.64 -1.82,-3.64 -1.8,0 -1.8,3.68 0,3.69 1.78,3.69 z" />
      </g>
    </g>
    <clipPath id="clip8">
      <path id="path72" d="m 0,0 0,469 458,0 0,-469 z" />
    </clipPath>
    <g id="g74" clip-path="url(#clip8)">
      <g style="fill:none;stroke:#000000;stroke-linecap:butt;stroke-opacity:1" id="g76">
        <path id="path78" d="m 148.03,424.77 0,3" />
      </g>
    </g>
    <clipPath id="clip9">
      <path id="path81" d="m 0,0 0,469 458,0 0,-469 z" />
    </clipPath>
    <g id="g83" clip-path="url(#clip9)">
      <g style="fill:#000000;fill-opacity:1;fill-rule:nonzero;stroke:none" id="g85">
        <path id="path87" d="m 233.52,440 0,-2.46 -3.9,0 0,-0.87 3.9,-5.34 1.08,0 0,5.27 1.16,0 0,0.94 -1.16,0 0,2.46 z m -2.77,-3.4 2.84,0 0,-3.85 z m 9.6,3.62 q -1.34,0 -2.17,-1.27 -0.83,-1.26 -0.83,-3.29 0,-2.05 0.83,-3.3 0.84,-1.25 2.2,-1.25 1.37,0 2.2,1.25 0.84,1.25 0.84,3.28 0,2.09 -0.84,3.33 -0.83,1.25 -2.23,1.25 z m 0.01,-0.87 q 1.84,0 1.84,-3.73 0,-3.64 -1.82,-3.64 -1.8,0 -1.8,3.68 0,3.69 1.78,3.69 z" />
      </g>
    </g>
    <clipPath id="clip10">
      <path id="path90" d="m 0,0 0,469 458,0 0,-469 z" />
    </clipPath>
    <g id="g92" clip-path="url(#clip10)">
      <g style="fill:none;stroke:#000000;stroke-linecap:butt;stroke-opacity:1" id="g94">
        <path id="path96" d="m 234.32,424.77 0,3" />
      </g>
    </g>
    <clipPath id="clip11">
      <path id="path99" d="m 0,0 0,469 458,0 0,-469 z" />
    </clipPath>
    <g id="g101" clip-path="url(#clip11)">
      <g style="fill:#000000;fill-opacity:1;fill-rule:nonzero;stroke:none" id="g103">
        <path id="path105" d="m 317.06,435.51 q 0.83,-1.08 2.08,-1.08 1.14,0 1.86,0.76 0.73,0.75 0.73,1.93 0,1.35 -0.81,2.22 -0.82,0.88 -2.06,0.88 -1.44,0 -2.25,-1.16 -0.81,-1.15 -0.81,-3.2 0,-2.26 0.93,-3.51 0.93,-1.24 2.62,-1.24 0.77,0 1.93,0.32 l 0,1.01 q -1.22,-0.47 -2,-0.47 -2.22,0 -2.22,3.54 z m 3.51,1.87 q 0,-0.99 -0.45,-1.55 -0.44,-0.56 -1.22,-0.56 -0.74,0 -1.26,0.49 -0.53,0.49 -0.53,1.18 0,1.09 0.5,1.75 0.5,0.66 1.33,0.66 0.74,0 1.18,-0.54 0.45,-0.53 0.45,-1.43 z m 5.78,2.84 q -1.34,0 -2.17,-1.27 -0.83,-1.26 -0.83,-3.29 0,-2.05 0.83,-3.3 0.84,-1.25 2.2,-1.25 1.37,0 2.2,1.25 0.84,1.25 0.84,3.28 0,2.09 -0.84,3.33 -0.83,1.25 -2.23,1.25 z m 0.01,-0.87 q 1.84,0 1.84,-3.73 0,-3.64 -1.82,-3.64 -1.8,0 -1.8,3.68 0,3.69 1.78,3.69 z" />
      </g>
    </g>
    <clipPath id="clip12">
      <path id="path108" d="m 0,0 0,469 458,0 0,-469 z" />
    </clipPath>
    <g id="g110" clip-path="url(#clip12)">
      <g style="fill:none;stroke:#000000;stroke-linecap:butt;stroke-opacity:1" id="g112">
        <path id="path114" d="m 320.61,424.77 0,3" />
      </g>
    </g>
    <clipPath id="clip13">
      <path id="path117" d="m 0,0 0,469 458,0 0,-469 z" />
    </clipPath>
    <g id="g119" clip-path="url(#clip13)">
      <g style="fill:#000000;fill-opacity:1;fill-rule:nonzero;stroke:none" id="g121">
        <path id="path123" d="m 403.76,435.28 q -1.27,-0.89 -1.27,-1.96 0,-0.98 0.72,-1.6 0.72,-0.61 1.88,-0.61 1.07,0 1.74,0.52 0.66,0.52 0.66,1.35 0,1.26 -1.61,2.3 1.96,0.96 1.96,2.48 0,1.09 -0.83,1.77 -0.82,0.69 -2.12,0.69 -1.28,0 -2.06,-0.65 -0.79,-0.65 -0.79,-1.7 0,-1.56 1.72,-2.59 z m 1.47,-0.37 q 1.21,-0.79 1.21,-1.77 0,-0.52 -0.4,-0.84 -0.41,-0.32 -1.07,-0.32 -0.64,0 -1.03,0.31 -0.4,0.32 -0.4,0.81 0,0.49 0.36,0.87 0.36,0.39 1.33,0.94 z m -0.84,0.84 q -0.7,0.54 -0.95,0.94 -0.25,0.4 -0.25,1 0,0.74 0.48,1.2 0.48,0.46 1.27,0.46 0.75,0 1.23,-0.39 0.48,-0.4 0.48,-1.02 0,-0.51 -0.3,-0.86 -0.29,-0.34 -1.14,-0.85 z m 7.96,4.47 q -1.34,0 -2.17,-1.27 -0.83,-1.26 -0.83,-3.29 0,-2.05 0.83,-3.3 0.84,-1.25 2.2,-1.25 1.37,0 2.2,1.25 0.84,1.25 0.84,3.28 0,2.09 -0.84,3.33 -0.83,1.25 -2.23,1.25 z m 0.01,-0.87 q 1.84,0 1.84,-3.73 0,-3.64 -1.82,-3.64 -1.8,0 -1.8,3.68 0,3.69 1.78,3.69 z" />
      </g>
    </g>
    <clipPath id="clip14">
      <path id="path126" d="m 0,0 0,469 458,0 0,-469 z" />
    </clipPath>
    <g id="g128" clip-path="url(#clip14)">
      <g style="fill:none;stroke:#000000;stroke-linecap:butt;stroke-opacity:1" id="g130">
        <path id="path132" d="m 406.91,424.77 0,3" />
      </g>
    </g>
    <clipPath id="clip15">
      <path id="path135" d="m 0,0 0,469 458,0 0,-469 z" />
    </clipPath>
    <g id="g137" clip-path="url(#clip15)">
      <g style="fill:#000000;fill-opacity:1;fill-rule:nonzero;stroke:none" id="g139">
        <path id="path141" d="m 50.762,422.22 q -1.342,0 -2.171,-1.27 -0.829,-1.26 -0.829,-3.29 0,-2.05 0.835,-3.3 0.835,-1.25 2.2,-1.25 1.365,0 2.2,1.25 0.835,1.25 0.835,3.28 0,2.09 -0.835,3.33 -0.835,1.25 -2.235,1.25 z m 0.011,-0.87 q 1.834,0 1.834,-3.73 0,-3.64 -1.81,-3.64 -1.805,0 -1.805,3.68 0,3.69 1.781,3.69 z" />
      </g>
    </g>
    <clipPath id="clip16">
      <path id="path144" d="m 0,0 0,469 458,0 0,-469 z" />
    </clipPath>
    <g id="g146" clip-path="url(#clip16)">
      <g style="fill:#000000;fill-opacity:1;fill-rule:nonzero;stroke:none" id="g148">
        <path id="path150" d="m 32.459,349.04 0,-1.04 q 0.861,0.35 1.641,0.35 0.855,0 1.344,-0.5 0.49,-0.51 0.49,-1.39 0,-1.95 -2.69,-1.95 -0.305,0 -0.639,0.04 l 0,-4.22 4.389,0 0,1.01 -3.375,0 0,2.28 q 1.67,0 2.608,0.77 0.937,0.77 0.937,2.13 0,1.26 -0.852,1.98 -0.853,0.72 -2.365,0.72 -0.656,0 -1.488,-0.18 z m 9.891,0.18 q -1.342,0 -2.171,-1.27 -0.829,-1.26 -0.829,-3.29 0,-2.05 0.835,-3.3 0.835,-1.25 2.2,-1.25 1.365,0 2.2,1.25 0.835,1.25 0.835,3.28 0,2.09 -0.835,3.33 -0.835,1.25 -2.235,1.25 z m 0.011,-0.87 q 1.834,0 1.834,-3.73 0,-3.64 -1.81,-3.64 -1.805,0 -1.805,3.68 0,3.69 1.781,3.69 z m 7.577,0.87 q -1.342,0 -2.171,-1.27 -0.829,-1.26 -0.829,-3.29 0,-2.05 0.834,-3.3 0.835,-1.25 2.201,-1.25 1.365,0 2.2,1.25 0.835,1.25 0.835,3.28 0,2.09 -0.835,3.33 -0.835,1.25 -2.235,1.25 z m 0.011,-0.87 q 1.834,0 1.834,-3.73 0,-3.64 -1.81,-3.64 -1.805,0 -1.805,3.68 0,3.69 1.781,3.69 z" />
      </g>
    </g>
    <clipPath id="clip17">
      <path id="path153" d="m 0,0 0,469 458,0 0,-469 z" />
    </clipPath>
    <g id="g155" clip-path="url(#clip17)">
      <g style="fill:none;stroke:#000000;stroke-linecap:butt;stroke-opacity:1" id="g157">
        <path id="path159" d="m 58.733,344.84 3,0" />
      </g>
    </g>
    <clipPath id="clip18">
      <path id="path162" d="m 0,0 0,469 458,0 0,-469 z" />
    </clipPath>
    <g id="g164" clip-path="url(#clip18)">
      <g style="fill:#000000;fill-opacity:1;fill-rule:nonzero;stroke:none" id="g166">
        <path id="path168" d="m 25.805,269 0,-0.87 1.734,0 0,-6.84 -1.734,0.43 0,-0.89 2.894,-0.72 0,8.02 1.735,0 0,0.87 z m 9.545,0.22 q -1.342,0 -2.171,-1.27 -0.829,-1.26 -0.829,-3.29 0,-2.05 0.835,-3.3 0.835,-1.25 2.2,-1.25 1.365,0 2.2,1.25 0.835,1.25 0.835,3.28 0,2.09 -0.835,3.33 -0.835,1.25 -2.235,1.25 z m 0.011,-0.87 q 1.834,0 1.834,-3.73 0,-3.64 -1.81,-3.64 -1.805,0 -1.805,3.68 0,3.69 1.781,3.69 z m 7.577,0.87 q -1.342,0 -2.171,-1.27 -0.829,-1.26 -0.829,-3.29 0,-2.05 0.834,-3.3 0.835,-1.25 2.201,-1.25 1.365,0 2.2,1.25 0.835,1.25 0.835,3.28 0,2.09 -0.835,3.33 -0.835,1.25 -2.235,1.25 z m 0.011,-0.87 q 1.834,0 1.834,-3.73 0,-3.64 -1.81,-3.64 -1.805,0 -1.805,3.68 0,3.69 1.781,3.69 z m 7.576,0.87 q -1.341,0 -2.171,-1.27 -0.829,-1.26 -0.829,-3.29 0,-2.05 0.835,-3.3 0.835,-1.25 2.201,-1.25 1.365,0 2.2,1.25 0.835,1.25 0.835,3.28 0,2.09 -0.835,3.33 -0.835,1.25 -2.236,1.25 z m 0.012,-0.87 q 1.834,0 1.834,-3.73 0,-3.64 -1.81,-3.64 -1.805,0 -1.805,3.68 0,3.69 1.781,3.69 z" />
      </g>
    </g>
    <clipPath id="clip19">
      <path id="path171" d="m 0,0 0,469 458,0 0,-469 z" />
    </clipPath>
    <g id="g173" clip-path="url(#clip19)">
      <g style="fill:none;stroke:#000000;stroke-linecap:butt;stroke-opacity:1" id="g175">
        <path id="path177" d="m 58.733,264.92 3,0" />
      </g>
    </g>
    <clipPath id="clip20">
      <path id="path180" d="m 0,0 0,469 458,0 0,-469 z" />
    </clipPath>
    <g id="g182" clip-path="url(#clip20)">
      <g style="fill:#000000;fill-opacity:1;fill-rule:nonzero;stroke:none" id="g184">
        <path id="path186" d="m 25.805,190 0,-0.87 1.734,0 0,-6.84 -1.734,0.43 0,-0.89 2.894,-0.72 0,8.02 1.735,0 0,0.87 z m 7.242,0.04 0,-1.04 q 0.861,0.35 1.641,0.35 0.855,0 1.344,-0.5 0.489,-0.51 0.489,-1.39 0,-1.95 -2.689,-1.95 -0.305,0 -0.639,0.04 l 0,-4.22 4.389,0 0,1.01 -3.375,0 0,2.28 q 1.67,0 2.607,0.77 0.938,0.77 0.938,2.13 0,1.26 -0.853,1.98 -0.852,0.72 -2.364,0.72 -0.656,0 -1.488,-0.18 z m 9.891,0.18 q -1.342,0 -2.171,-1.27 -0.829,-1.26 -0.829,-3.29 0,-2.05 0.834,-3.3 0.835,-1.25 2.201,-1.25 1.365,0 2.2,1.25 0.835,1.25 0.835,3.28 0,2.09 -0.835,3.33 -0.835,1.25 -2.235,1.25 z m 0.011,-0.87 q 1.834,0 1.834,-3.73 0,-3.64 -1.81,-3.64 -1.805,0 -1.805,3.68 0,3.69 1.781,3.69 z m 7.576,0.87 q -1.341,0 -2.171,-1.27 -0.829,-1.26 -0.829,-3.29 0,-2.05 0.835,-3.3 0.835,-1.25 2.201,-1.25 1.365,0 2.2,1.25 0.835,1.25 0.835,3.28 0,2.09 -0.835,3.33 -0.835,1.25 -2.236,1.25 z m 0.012,-0.87 q 1.834,0 1.834,-3.73 0,-3.64 -1.81,-3.64 -1.805,0 -1.805,3.68 0,3.69 1.781,3.69 z" />
      </g>
    </g>
    <clipPath id="clip21">
      <path id="path189" d="m 0,0 0,469 458,0 0,-469 z" />
    </clipPath>
    <g id="g191" clip-path="url(#clip21)">
      <g style="fill:none;stroke:#000000;stroke-linecap:butt;stroke-opacity:1" id="g193">
        <path id="path195" d="m 58.733,185 3,0" />
      </g>
    </g>
    <clipPath id="clip22">
      <path id="path198" d="m 0,0 0,469 458,0 0,-469 z" />
    </clipPath>
    <g id="g200" clip-path="url(#clip22)">
      <g style="fill:#000000;fill-opacity:1;fill-rule:nonzero;stroke:none" id="g202">
        <path id="path204" d="m 24.996,110 0,-1.01 q 0.504,-1.18 2.039,-2.57 l 0.662,-0.59 q 1.278,-1.16 1.278,-2.29 0,-0.73 -0.437,-1.15 -0.436,-0.41 -1.198,-0.41 -0.902,0 -2.127,0.7 l 0,-1.02 q 1.154,-0.55 2.291,-0.55 1.219,0 1.957,0.66 0.738,0.65 0.738,1.74 0,0.78 -0.372,1.38 -0.372,0.6 -1.386,1.47 l -0.445,0.38 q -1.389,1.17 -1.605,2.25 l 3.767,0 0,1.01 z m 10.354,0.22 q -1.342,0 -2.171,-1.27 -0.829,-1.26 -0.829,-3.29 0,-2.05 0.835,-3.3 0.835,-1.25 2.2,-1.25 1.365,0 2.2,1.25 0.835,1.25 0.835,3.28 0,2.09 -0.835,3.33 -0.835,1.25 -2.235,1.25 z m 0.011,-0.87 q 1.834,0 1.834,-3.73 0,-3.64 -1.81,-3.64 -1.805,0 -1.805,3.68 0,3.69 1.781,3.69 z m 7.577,0.87 q -1.342,0 -2.171,-1.27 -0.829,-1.26 -0.829,-3.29 0,-2.05 0.834,-3.3 0.835,-1.25 2.201,-1.25 1.365,0 2.2,1.25 0.835,1.25 0.835,3.28 0,2.09 -0.835,3.33 -0.835,1.25 -2.235,1.25 z m 0.011,-0.87 q 1.834,0 1.834,-3.73 0,-3.64 -1.81,-3.64 -1.805,0 -1.805,3.68 0,3.69 1.781,3.69 z m 7.576,0.87 q -1.341,0 -2.171,-1.27 -0.829,-1.26 -0.829,-3.29 0,-2.05 0.835,-3.3 0.835,-1.25 2.201,-1.25 1.365,0 2.2,1.25 0.835,1.25 0.835,3.28 0,2.09 -0.835,3.33 -0.835,1.25 -2.236,1.25 z m 0.012,-0.87 q 1.834,0 1.834,-3.73 0,-3.64 -1.81,-3.64 -1.805,0 -1.805,3.68 0,3.69 1.781,3.69 z" />
      </g>
    </g>
    <clipPath id="clip23">
      <path id="path207" d="m 0,0 0,469 458,0 0,-469 z" />
    </clipPath>
    <g id="g209" clip-path="url(#clip23)">
      <g style="fill:none;stroke:#000000;stroke-linecap:butt;stroke-opacity:1" id="g211">
        <path id="path213" d="m 58.733,105.08 3,0" />
      </g>
    </g>
    <clipPath id="clip24">
      <path id="path216" d="m 0,0 0,469 458,0 0,-469 z" />
    </clipPath>
    <g id="g218" clip-path="url(#clip24)">
      <g style="fill:#000000;fill-opacity:1;fill-rule:nonzero;stroke:none" id="g220">
        <path id="path222" d="m 24.996,30 0,-1.014 Q 25.5,27.809 27.035,26.42 l 0.662,-0.592 q 1.278,-1.154 1.278,-2.291 0,-0.726 -0.437,-1.142 -0.436,-0.416 -1.198,-0.416 -0.902,0 -2.127,0.697 l 0,-1.02 q 1.154,-0.545 2.291,-0.545 1.219,0 1.957,0.657 0.738,0.656 0.738,1.74 0,0.779 -0.372,1.383 -0.372,0.603 -1.386,1.464 l -0.445,0.381 q -1.389,1.178 -1.605,2.25 l 3.767,0 0,1.014 z m 8.051,0.035 0,-1.031 q 0.861,0.346 1.641,0.346 0.855,0 1.344,-0.504 0.489,-0.504 0.489,-1.389 0,-1.951 -2.689,-1.951 -0.305,0 -0.639,0.041 l 0,-4.219 4.389,0 0,1.008 -3.375,0 0,2.285 q 1.67,0 2.607,0.768 0.938,0.767 0.938,2.127 0,1.265 -0.853,1.983 -0.852,0.718 -2.364,0.718 -0.656,0 -1.488,-0.182 z m 9.891,0.182 q -1.342,0 -2.171,-1.263 -0.829,-1.263 -0.829,-3.296 0,-2.051 0.834,-3.299 0.835,-1.248 2.201,-1.248 1.365,0 2.2,1.248 0.835,1.248 0.835,3.282 0,2.086 -0.835,3.331 -0.835,1.245 -2.235,1.245 z m 0.011,-0.867 q 1.834,0 1.834,-3.727 0,-3.644 -1.81,-3.644 -1.805,0 -1.805,3.679 0,3.692 1.781,3.692 z m 7.576,0.867 q -1.341,0 -2.171,-1.263 -0.829,-1.263 -0.829,-3.296 0,-2.051 0.835,-3.299 0.835,-1.248 2.201,-1.248 1.365,0 2.2,1.248 0.835,1.248 0.835,3.282 0,2.086 -0.835,3.331 -0.835,1.245 -2.236,1.245 z m 0.012,-0.867 q 1.834,0 1.834,-3.727 0,-3.644 -1.81,-3.644 -1.805,0 -1.805,3.679 0,3.692 1.781,3.692 z" />
      </g>
    </g>
    <clipPath id="clip25">
      <path id="path225" d="m 0,0 0,469 458,0 0,-469 z" />
    </clipPath>
    <g id="g227" clip-path="url(#clip25)">
      <g style="fill:none;stroke:#000000;stroke-linecap:butt;stroke-opacity:1" id="g229">
        <path id="path231" d="m 58.733,25.161 3,0" />
      </g>
    </g>
    <clipPath id="clip26">
      <path id="path234" d="m 0,0 0,469 458,0 0,-469 z" />
    </clipPath>
    <g id="g236" clip-path="url(#clip26)">
      <g style="fill:none;stroke:#c0c0c0;stroke-linecap:round;stroke-linejoin:round;stroke-opacity:1" id="g238">
        <path id="path240" d="m 148.03,0 0,424.77" />
      </g>
    </g>
    <clipPath id="clip27">
      <path id="path243" d="m 0,0 0,469 458,0 0,-469 z" />
    </clipPath>
    <g id="g245" clip-path="url(#clip27)">
      <g style="fill:none;stroke:#c0c0c0;stroke-linecap:round;stroke-linejoin:round;stroke-opacity:1" id="g247">
        <path id="path249" d="m 148.03,446.57 0,22.43" />
      </g>
    </g>
    <clipPath id="clip28">
      <path id="path252" d="m 0,0 0,469 458,0 0,-469 z" />
    </clipPath>
    <g id="g254" clip-path="url(#clip28)">
      <g style="fill:none;stroke:#c0c0c0;stroke-linecap:round;stroke-linejoin:round;stroke-opacity:1" id="g256">
        <path id="path258" d="m 234.32,0 0,424.77" />
      </g>
    </g>
    <clipPath id="clip29">
      <path id="path261" d="m 0,0 0,469 458,0 0,-469 z" />
    </clipPath>
    <g id="g263" clip-path="url(#clip29)">
      <g style="fill:none;stroke:#c0c0c0;stroke-linecap:round;stroke-linejoin:round;stroke-opacity:1" id="g265">
        <path id="path267" d="m 234.32,446.57 0,22.43" />
      </g>
    </g>
    <clipPath id="clip30">
      <path id="path270" d="m 0,0 0,469 458,0 0,-469 z" />
    </clipPath>
    <g id="g272" clip-path="url(#clip30)">
      <g style="fill:none;stroke:#c0c0c0;stroke-linecap:round;stroke-linejoin:round;stroke-opacity:1" id="g274">
        <path id="path276" d="m 320.61,0 0,424.77" />
      </g>
    </g>
    <clipPath id="clip31">
      <path id="path279" d="m 0,0 0,469 458,0 0,-469 z" />
    </clipPath>
    <g id="g281" clip-path="url(#clip31)">
      <g style="fill:none;stroke:#c0c0c0;stroke-linecap:round;stroke-linejoin:round;stroke-opacity:1" id="g283">
        <path id="path285" d="m 320.61,446.57 0,22.43" />
      </g>
    </g>
    <clipPath id="clip32">
      <path id="path288" d="m 0,0 0,469 458,0 0,-469 z" />
    </clipPath>
    <g id="g290" clip-path="url(#clip32)">
      <g style="fill:none;stroke:#c0c0c0;stroke-linecap:round;stroke-linejoin:round;stroke-opacity:1" id="g292">
        <path id="path294" d="m 406.91,0 0,424.77" />
      </g>
    </g>
    <clipPath id="clip33">
      <path id="path297" d="m 0,0 0,469 458,0 0,-469 z" />
    </clipPath>
    <g id="g299" clip-path="url(#clip33)">
      <g style="fill:none;stroke:#c0c0c0;stroke-linecap:round;stroke-linejoin:round;stroke-opacity:1" id="g301">
        <path id="path303" d="m 406.91,446.57 0,22.43" />
      </g>
    </g>
    <clipPath id="clip34">
      <path id="path306" d="m 0,0 0,469 458,0 0,-469 z" />
    </clipPath>
    <g id="g308" clip-path="url(#clip34)">
      <g style="fill:none;stroke:#c0c0c0;stroke-linecap:round;stroke-linejoin:round;stroke-opacity:1" id="g310">
        <path id="path312" d="m 0,25.161 21.382,0" />
      </g>
    </g>
    <clipPath id="clip35">
      <path id="path315" d="m 0,0 0,469 458,0 0,-469 z" />
    </clipPath>
    <g id="g317" clip-path="url(#clip35)">
      <g style="fill:none;stroke:#c0c0c0;stroke-linecap:round;stroke-linejoin:round;stroke-opacity:1" id="g319">
        <path id="path321" d="m 61.733,25.161 396.267,0" />
      </g>
    </g>
    <clipPath id="clip36">
      <path id="path324" d="m 0,0 0,469 458,0 0,-469 z" />
    </clipPath>
    <g id="g326" clip-path="url(#clip36)">
      <g style="fill:none;stroke:#c0c0c0;stroke-linecap:round;stroke-linejoin:round;stroke-opacity:1" id="g328">
        <path id="path330" d="m 0,25.161 21.382,0" />
      </g>
    </g>
    <clipPath id="clip37">
      <path id="path333" d="m 0,0 0,469 458,0 0,-469 z" />
    </clipPath>
    <g id="g335" clip-path="url(#clip37)">
      <g style="fill:none;stroke:#c0c0c0;stroke-linecap:round;stroke-linejoin:round;stroke-opacity:1" id="g337">
        <path id="path339" d="m 61.733,25.161 396.267,0" />
      </g>
    </g>
    <clipPath id="clip38">
      <path id="path342" d="m 0,0 0,469 458,0 0,-469 z" />
    </clipPath>
    <g id="g344" clip-path="url(#clip38)">
      <g style="fill:none;stroke:#c0c0c0;stroke-linecap:round;stroke-linejoin:round;stroke-opacity:1" id="g346">
        <path id="path348" d="m 0,105.08 21.382,0" />
      </g>
    </g>
    <clipPath id="clip39">
      <path id="path351" d="m 0,0 0,469 458,0 0,-469 z" />
    </clipPath>
    <g id="g353" clip-path="url(#clip39)">
      <g style="fill:none;stroke:#c0c0c0;stroke-linecap:round;stroke-linejoin:round;stroke-opacity:1" id="g355">
        <path id="path357" d="m 61.733,105.08 396.267,0" />
      </g>
    </g>
    <clipPath id="clip40">
      <path id="path360" d="m 0,0 0,469 458,0 0,-469 z" />
    </clipPath>
    <g id="g362" clip-path="url(#clip40)">
      <g style="fill:none;stroke:#c0c0c0;stroke-linecap:round;stroke-linejoin:round;stroke-opacity:1" id="g364">
        <path id="path366" d="m 0,185 21.382,0" />
      </g>
    </g>
    <clipPath id="clip41">
      <path id="path369" d="m 0,0 0,469 458,0 0,-469 z" />
    </clipPath>
    <g id="g371" clip-path="url(#clip41)">
      <g style="fill:none;stroke:#c0c0c0;stroke-linecap:round;stroke-linejoin:round;stroke-opacity:1" id="g373">
        <path id="path375" d="M 61.733,185 458,185" />
      </g>
    </g>
    <clipPath id="clip42">
      <path id="path378" d="m 0,0 0,469 458,0 0,-469 z" />
    </clipPath>
    <g id="g380" clip-path="url(#clip42)">
      <g style="fill:none;stroke:#c0c0c0;stroke-linecap:round;stroke-linejoin:round;stroke-opacity:1" id="g382">
        <path id="path384" d="m 0,264.92 21.382,0" />
      </g>
    </g>
    <clipPath id="clip43">
      <path id="path387" d="m 0,0 0,469 458,0 0,-469 z" />
    </clipPath>
    <g id="g389" clip-path="url(#clip43)">
      <g style="fill:none;stroke:#c0c0c0;stroke-linecap:round;stroke-linejoin:round;stroke-opacity:1" id="g391">
        <path id="path393" d="m 61.733,264.92 396.267,0" />
      </g>
    </g>
    <clipPath id="clip44">
      <path id="path396" d="m 0,0 0,469 458,0 0,-469 z" />
    </clipPath>
    <g id="g398" clip-path="url(#clip44)">
      <g style="fill:none;stroke:#c0c0c0;stroke-linecap:round;stroke-linejoin:round;stroke-opacity:1" id="g400">
        <path id="path402" d="m 0,344.84 21.382,0" />
      </g>
    </g>
    <clipPath id="clip45">
      <path id="path405" d="m 0,0 0,469 458,0 0,-469 z" />
    </clipPath>
    <g id="g407" clip-path="url(#clip45)">
      <g style="fill:none;stroke:#c0c0c0;stroke-linecap:round;stroke-linejoin:round;stroke-opacity:1" id="g409">
        <path id="path411" d="m 61.733,344.84 396.267,0" />
      </g>
    </g>
    <g id="misc" />
    <g id="layer0">
      <clipPath id="clip46">
        <path id="path416" d="m 0,0 0,469 458,0 0,-469 z" />
      </clipPath>
      <g id="g418" clip-path="url(#clip46)">
        <g style="fill:none;stroke:#006400;stroke-width:1.5;stroke-linecap:round;stroke-linejoin:round;stroke-opacity:1" id="g420">
          <path id="path422" d="m 58.145,481.33 0.447,-7.43 0.447,-7.31 0.447,-7.21 0.448,-7.1 0.447,-7 0.447,-6.89 0.447,-6.78 0.448,-6.69 0.447,-6.58 0.447,-6.47 0.447,-6.38 0.448,-6.27 0.447,-6.18 0.447,-6.07 0.448,-5.98 0.447,-5.88 0.447,-5.79 0.447,-5.69 0.448,-5.59 0.447,-5.51 0.447,-5.41 0.447,-5.32 0.448,-5.23 0.447,-5.14 0.447,-5.05 0.447,-4.97 0.895,-9.67 0.894,-9.34 0.895,-9.01 0.895,-8.69 0.894,-8.38 0.895,-8.08 0.894,-7.79 0.895,-7.5 0.894,-7.21 0.895,-6.95 0.894,-6.69 0.895,-6.43 0.894,-6.19 0.895,-5.94 0.894,-5.71 0.895,-5.49 0.894,-5.27 0.895,-5.05 1.789,-9.5 1.789,-8.74 1.789,-8.01 1.789,-7.34 1.789,-6.71 1.789,-6.12 1.789,-5.57 1.792,-5.06 3.58,-8.72 3.57,-7.05 3.58,-5.61 3.58,-4.36 3.58,-3.28 3.58,-2.34 3.57,-1.53 1.79,-0.5 1.79,-0.34 3.58,-0.25 3.58,0.28 3.58,0.71 3.57,1.09 3.58,1.42 3.58,1.69 3.58,1.92 3.58,2.11 3.58,2.28 3.57,2.42 3.58,2.53 3.58,2.63 3.58,2.7 3.58,2.75 3.57,2.8 3.58,2.84 3.58,2.85 3.58,2.87 3.58,2.88 3.58,2.87 3.57,2.87 3.58,2.86 3.58,2.83 3.58,2.82 3.58,2.8 3.57,2.77 3.58,2.75 3.58,2.71 3.58,2.68 3.58,2.66 3.57,2.61 3.58,2.59 3.58,2.54 3.58,2.52 3.58,2.47 3.57,2.44 3.58,2.41 3.58,2.37 3.58,2.33 3.58,2.3 3.58,2.26 3.57,2.23 3.58,2.19 3.58,2.16 3.58,2.12 3.58,2.09 3.57,2.06 3.58,2.03 3.58,1.99 3.58,1.96 3.58,1.93 3.58,1.9 3.57,1.87 3.58,1.84 3.58,1.81 3.58,1.78 3.58,1.75 3.57,1.73 3.58,1.69 3.58,1.68 3.58,1.64 3.58,1.62 3.57,1.6 3.58,1.57 3.58,1.55 3.58,1.52 3.58,1.5 3.57,1.48 3.58,1.45 3.58,1.43 3.58,1.42 3.58,1.39 3.58,1.37 3.57,1.35 3.58,1.33 3.58,1.31 3.58,1.29 3.58,1.27 3.57,1.26 3.58,1.23 3.58,1.22 3.58,1.2 3.58,1.19 3.58,1.17 3.57,1.15 3.58,1.14 3.58,1.12 3.58,1.1 3.58,1.09 3.57,1.08 3.58,1.06 3.58,1.05" />
          <title id="title424">Function g</title>
          <desc id="desc426">g(x) = 320000x / (3xÃ&#131;Â&#130;Ã&#130;Â² + 60x + 800)</desc>
        </g>
      </g>
      <clipPath id="clip47">
        <path id="path429" d="m 0,0 0,469 458,0 0,-469 z" />
      </clipPath>
      <g id="g431" clip-path="url(#clip47)">
        <g style="fill:none;stroke:#cc0000;stroke-width:1.5;stroke-linecap:round;stroke-linejoin:round;stroke-opacity:1" id="g433">
          <path id="path435" d="m 58.592,480.3 0.447,-9.18 0.447,-8.7 0.448,-8.26 0.447,-7.85 0.447,-7.48 0.447,-7.12 0.448,-6.79 0.447,-6.48 0.447,-6.2 0.447,-5.93 0.448,-5.69 0.447,-5.44 0.447,-5.23 0.895,-9.84 0.894,-9.11 0.895,-8.45 0.894,-7.86 0.895,-7.33 0.894,-6.85 0.895,-6.42 0.894,-6.02 0.895,-5.67 0.895,-5.35 1.789,-9.81 1.789,-8.79 1.789,-7.94 1.789,-7.19 1.789,-6.54 1.789,-5.99 1.789,-5.49 3.578,-9.74 3.578,-8.36 3.578,-7.26 3.581,-6.36 3.58,-5.62 3.57,-5 3.58,-4.48 3.58,-4.04 3.58,-3.65 3.58,-3.33 3.57,-3.04 3.58,-2.78 3.58,-2.57 3.58,-2.37 3.58,-2.2 3.57,-2.03 3.58,-1.9 3.58,-1.78 3.58,-1.66 3.58,-1.55 3.58,-1.47 3.57,-1.37 3.58,-1.3 3.58,-1.23 3.58,-1.16 3.58,-1.1 3.57,-1.05 3.58,-0.99 3.58,-0.94 3.58,-0.9 3.58,-0.86 3.58,-0.82 3.57,-0.78 3.58,-0.75 3.58,-0.71 3.58,-0.69 3.58,-0.66 3.57,-0.63 3.58,-0.61 3.58,-0.59 3.58,-0.56 3.58,-0.54 3.57,-0.52 3.58,-0.51 3.58,-0.48 3.58,-0.47 3.58,-0.46 3.57,-0.43 3.58,-0.43 3.58,-0.41 3.58,-0.4 3.58,-0.38 3.58,-0.37 3.57,-0.37 3.58,-0.35 3.58,-0.34 3.58,-0.33 3.58,-0.32 3.57,-0.31 3.58,-0.31 3.58,-0.29 3.58,-0.29 3.58,-0.28 3.58,-0.27 3.57,-0.27 3.58,-0.26 3.58,-0.25 3.58,-0.25 3.58,-0.24 3.57,-0.23 3.58,-0.23 3.58,-0.22 3.58,-0.22 3.58,-0.21 3.57,-0.21 3.58,-0.2 3.58,-0.2 3.58,-0.2 3.58,-0.19 3.57,-0.18 3.58,-0.18 3.58,-0.18 3.58,-0.18 3.58,-0.17 3.58,-0.16 3.57,-0.17 3.58,-0.16 3.58,-0.15 3.58,-0.16 3.58,-0.15 3.57,-0.15 3.58,-0.14 3.58,-0.15 3.58,-0.14 3.58,-0.13 3.58,-0.14 3.57,-0.13 3.58,-0.13 3.58,-0.13 3.58,-0.12 3.58,-0.12 3.57,-0.13 3.58,-0.11 3.58,-0.12" />
          <title id="title437">Function h</title>
          <desc id="desc439">h(x) = 14400x / abs(8x + 36)</desc>
        </g>
      </g>
    </g>
  </g>
  <g style="font-style:normal;font-variant:normal;font-weight:normal;font-stretch:normal;letter-spacing:normal;word-spacing:normal;text-anchor:start;fill:none;fill-opacity:1;fill-rule:evenodd;stroke:#000000;stroke-linecap:butt;stroke-linejoin:miter;stroke-miterlimit:10.43299961;stroke-dasharray:none;stroke-dashoffset:0;stroke-opacity:1" ns0:preamble="/Users/prmb/CMEP/underground-inkscape-preamble.tex" ns0:text="$v$ (mph)" word-spacing="normal" letter-spacing="normal" font-size-adjust="none" font-stretch="normal" font-weight="normal" font-variant="normal" font-style="normal" stroke-miterlimit="10.433" xml:space="preserve" transform="matrix(2,0,0,-2,-17.27112,2174.2373)" id="content"><path style="fill:#000000;stroke-width:0" id="path4020" d="m 226.35,482.6 -0.05,0.04 c -0.59,-0.26 -1.23,-0.34 -1.84,-0.49 l 0,-0.18 c 0.15,0 0.67,0 0.67,-0.24 0,-0.09 -0.03,-0.2 -0.06,-0.29 l -0.68,-2.48 c -0.07,-0.24 -0.11,-0.48 -0.11,-0.73 0,-0.87 0.62,-1.1 1.37,-1.1 0.87,0 1.78,0.52 2.29,1.23 0.69,0.94 1.15,2.13 1.15,3.3 0,0.38 -0.06,0.98 -0.56,0.98 -0.34,0 -0.63,-0.09 -0.63,-0.49 0,-0.52 0.72,-0.42 0.72,-1.29 0,-0.3 -0.09,-0.59 -0.18,-0.87 -0.38,-1.07 -1.21,-2.4 -2.48,-2.4 -0.47,0 -0.71,0.33 -0.71,0.78 0,0.13 0.01,0.26 0.05,0.38 z" /><path style="fill:#000000;stroke-width:0" id="path4022" d="m 232.41,479.96 0.01,0.16 0,0.15 0.01,0.16 0.01,0.16 0.01,0.15 0.02,0.16 0.02,0.15 0.02,0.15 0.02,0.15 0.03,0.15 0.03,0.15 0.04,0.15 0.03,0.14 0.04,0.14 0.05,0.15 0.04,0.14 c 0.25,0.75 0.62,1.4 1.09,1.97 l 0.79,0 c -0.47,-0.63 -0.82,-1.32 -1.05,-2.07 -0.24,-0.74 -0.36,-1.51 -0.36,-2.3 0,-0.78 0.12,-1.54 0.36,-2.28 0.24,-0.75 0.59,-1.42 1.04,-2.04 l -0.78,0 c -0.48,0.55 -0.84,1.2 -1.09,1.93 -0.25,0.74 -0.38,1.53 -0.38,2.38 z" /><path style="fill:#000000;stroke-width:0" id="path4024" d="m 242.63,477.23 0,3.47 c -0.01,0.43 -0.09,0.75 -0.28,0.96 -0.18,0.21 -0.46,0.32 -0.84,0.32 -0.51,0 -0.88,-0.15 -1.12,-0.43 -0.24,-0.29 -0.36,-0.74 -0.36,-1.34 l 0,-2.98 -0.81,0 0,3.47 c 0,0.43 -0.09,0.75 -0.27,0.96 -0.19,0.21 -0.47,0.32 -0.85,0.32 -0.51,0 -0.88,-0.15 -1.12,-0.46 -0.23,-0.3 -0.35,-0.8 -0.35,-1.49 l 0,-2.8 -0.81,0 0,5.35 0.66,0 0.13,-0.75 0.04,0 c 0.15,0.26 0.37,0.47 0.64,0.62 0.28,0.14 0.59,0.22 0.94,0.22 0.83,0 1.38,-0.31 1.63,-0.92 l 0.04,0 c 0.16,0.28 0.39,0.51 0.69,0.67 0.3,0.16 0.65,0.25 1.04,0.25 0.6,0 1.05,-0.16 1.35,-0.47 0.3,-0.31 0.45,-0.8 0.45,-1.49 l 0,-3.48 z" /><path style="fill:#000000;stroke-width:0" id="path4026" d="m 247.57,477.14 -0.06,0.01 -0.07,0 -0.06,0 -0.06,0.01 -0.06,0 -0.07,0.01 -0.06,0.01 -0.06,0.01 -0.06,0.02 -0.05,0.01 -0.06,0.02 -0.06,0.01 -0.06,0.02 -0.05,0.02 -0.06,0.02 -0.05,0.03 c -0.29,0.12 -0.53,0.32 -0.72,0.59 l -0.06,0 c 0.04,-0.32 0.06,-0.61 0.06,-0.89 l 0,-2.19 -0.81,0 0,7.73 0.65,0 0.12,-0.74 0.04,0 0.37,-0.31 c -0.24,-0.3 -0.37,-0.78 -0.37,-1.44 l 0,-0.18 c 0,-0.75 0.12,-1.28 0.37,-1.61 0.25,-0.32 0.65,-0.48 1.21,-0.48 0.46,0 0.82,0.19 1.08,0.56 0.26,0.37 0.4,0.89 0.4,1.54 -0.01,0.66 -0.14,1.17 -0.4,1.53 -0.26,0.35 -0.63,0.53 -1.1,0.53 l 0,0 c -0.55,0 -0.95,-0.15 -1.19,-0.45 l -0.37,0.31 c 0.2,0.29 0.45,0.5 0.72,0.63 0.28,0.13 0.6,0.2 0.95,0.2 0.71,0 1.26,-0.25 1.64,-0.73 0.39,-0.48 0.58,-1.16 0.58,-2.03 0,-0.88 -0.19,-1.55 -0.59,-2.04 -0.39,-0.48 -0.93,-0.73 -1.63,-0.73 z" /><path style="fill:#000000;stroke-width:0" id="path4028" d="m 254.84,477.23 0,3.46 c 0,0.43 -0.1,0.76 -0.3,0.98 -0.19,0.21 -0.5,0.32 -0.92,0.32 -0.57,0 -0.98,-0.15 -1.23,-0.46 -0.26,-0.31 -0.39,-0.8 -0.39,-1.5 l 0,-2.8 -0.81,0 0,7.58 0.81,0 0,-2.29 c 0,-0.27 -0.01,-0.5 -0.04,-0.68 l 0.05,0 c 0.16,0.25 0.39,0.46 0.68,0.6 0.29,0.15 0.63,0.23 1,0.23 0.65,0 1.14,-0.16 1.47,-0.47 0.33,-0.31 0.49,-0.8 0.49,-1.48 l 0,-3.49 z" /><path style="fill:#000000;stroke-width:0" id="path4030" d="m 259.01,479.96 -0.01,-0.16 0,-0.16 -0.01,-0.16 -0.01,-0.15 -0.01,-0.16 -0.02,-0.15 -0.02,-0.15 -0.02,-0.15 -0.03,-0.15 -0.02,-0.14 -0.03,-0.15 -0.04,-0.14 -0.03,-0.15 -0.04,-0.14 -0.05,-0.14 -0.04,-0.14 c -0.26,-0.73 -0.62,-1.37 -1.09,-1.92 l -0.78,0 c 0.45,0.61 0.8,1.29 1.04,2.03 0.24,0.74 0.36,1.51 0.36,2.29 0,0.79 -0.12,1.56 -0.36,2.3 -0.23,0.75 -0.58,1.44 -1.05,2.07 l 0.79,0 c 0.47,-0.57 0.84,-1.23 1.09,-1.98 0.25,-0.75 0.38,-1.55 0.38,-2.4 z" /></g>  <g style="font-style:normal;font-variant:normal;font-weight:normal;font-stretch:normal;letter-spacing:normal;word-spacing:normal;text-anchor:start;fill:none;fill-opacity:1;fill-rule:evenodd;stroke:#000000;stroke-linecap:butt;stroke-linejoin:miter;stroke-miterlimit:10.43299961;stroke-dasharray:none;stroke-dashoffset:0;stroke-opacity:1" id="g4536" transform="matrix(2,0,0,-2,-419.83051,1753.8305)" xml:space="preserve" stroke-miterlimit="10.433" font-style="normal" font-variant="normal" font-weight="normal" font-stretch="normal" font-size-adjust="none" letter-spacing="normal" word-spacing="normal" ns0:text="Flow rate (vehicles per hour)" ns0:preamble="/Users/prmb/CMEP/underground-inkscape-preamble.tex"><polygon style="fill:#000000;stroke-width:0" points="224.41,477.23 224.41,484.34 228.37,484.34 228.37,483.6 225.24,483.6 225.24,480.99 228.18,480.99 228.18,480.26 225.24,480.26 225.24,477.23 " id="polygon4538" /><polygon style="fill:#000000;stroke-width:0" points="229.43,477.23 229.43,484.81 230.23,484.81 230.23,477.23 " id="polygon4540" /><path style="fill:#000000;stroke-width:0" d="m 236.56,479.91 0,-0.08 0,-0.08 -0.01,-0.08 0,-0.08 -0.01,-0.07 0,-0.08 -0.01,-0.07 -0.01,-0.08 -0.01,-0.07 -0.02,-0.07 -0.01,-0.07 -0.01,-0.07 -0.02,-0.06 -0.02,-0.07 -0.02,-0.07 -0.02,-0.06 -0.02,-0.06 -0.02,-0.06 -0.02,-0.07 -0.03,-0.06 -0.02,-0.05 -0.03,-0.06 -0.03,-0.06 -0.03,-0.05 -0.03,-0.06 -0.03,-0.05 -0.04,-0.05 -0.03,-0.05 -0.04,-0.05 -0.04,-0.05 -0.04,-0.05 -0.04,-0.04 c -0.44,-0.49 -1.04,-0.74 -1.81,-0.74 l 0.01,0.68 c 0.53,0 0.94,0.18 1.21,0.53 0.28,0.36 0.41,0.88 0.41,1.56 0,0.67 -0.13,1.19 -0.41,1.54 -0.27,0.35 -0.68,0.53 -1.21,0.53 -0.53,0 -0.93,-0.17 -1.2,-0.52 -0.28,-0.35 -0.41,-0.86 -0.41,-1.55 l 0,0 c 0,-0.68 0.14,-1.2 0.41,-1.55 0.27,-0.36 0.67,-0.54 1.2,-0.54 l -0.01,-0.68 c -0.49,0 -0.91,0.12 -1.28,0.34 -0.37,0.22 -0.65,0.54 -0.85,0.96 -0.21,0.42 -0.31,0.91 -0.31,1.47 0,0.87 0.22,1.54 0.66,2.03 0.43,0.48 1.04,0.73 1.81,0.73 0.75,0 1.34,-0.25 1.78,-0.75 0.44,-0.5 0.66,-1.16 0.66,-2.01 z" id="path4542" /><path style="fill:#000000;stroke-width:0" d="m 242.13,477.23 -0.98,3.14 c -0.07,0.19 -0.18,0.62 -0.35,1.3 l -0.04,0 c -0.13,-0.57 -0.24,-1 -0.34,-1.31 l -1.01,-3.13 -0.93,0 -1.46,5.35 0.85,0 c 0.34,-1.35 0.61,-2.37 0.79,-3.07 0.18,-0.7 0.28,-1.17 0.31,-1.42 l 0.04,0 c 0.03,0.19 0.09,0.43 0.17,0.72 0.08,0.3 0.15,0.53 0.2,0.7 l 0.98,3.07 0.88,0 0.96,-3.07 c 0.18,-0.56 0.3,-1.03 0.37,-1.41 l 0.03,0 c 0.02,0.12 0.05,0.3 0.11,0.54 0.06,0.25 0.39,1.56 1.02,3.94 l 0.83,0 -1.47,-5.35 z" id="path4544" /><path style="fill:#000000;stroke-width:0" d="m 250.52,482.67 0.05,0 0.04,-0.01 0.04,0 0.04,0 0.05,0 0.04,0 0.04,-0.01 0.04,0 0.04,0 0.04,-0.01 0.03,0 0.04,-0.01 0.04,0 0.04,-0.01 0.03,-0.01 0.04,0 -0.11,-0.75 c -0.23,0.05 -0.42,0.07 -0.59,0.07 -0.43,0 -0.79,-0.17 -1.1,-0.52 -0.31,-0.36 -0.46,-0.79 -0.46,-1.31 l 0,-2.87 -0.8,0 0,5.35 0.66,0 0.09,-1 0.04,0 c 0.2,0.35 0.44,0.62 0.72,0.8 0.27,0.19 0.58,0.29 0.91,0.29 z" id="path4546" /><path style="fill:#000000;stroke-width:0" d="m 255.26,477.23 -0.16,0.76 -0.04,0 -0.44,0.23 c 0.28,0.28 0.43,0.66 0.43,1.16 l 0,0.47 -0.81,-0.03 c -0.64,-0.02 -1.11,-0.12 -1.39,-0.3 -0.29,-0.18 -0.43,-0.45 -0.43,-0.82 0,-0.29 0.09,-0.51 0.27,-0.66 0.18,-0.15 0.42,-0.23 0.74,-0.23 l 0,0 c 0.5,0 0.9,0.14 1.19,0.41 l 0.44,-0.23 c -0.27,-0.33 -0.53,-0.55 -0.8,-0.67 -0.26,-0.12 -0.59,-0.18 -0.99,-0.18 -0.53,0 -0.94,0.14 -1.24,0.41 -0.3,0.27 -0.45,0.66 -0.45,1.16 0,1.07 0.86,1.64 2.58,1.69 l 0.91,0.03 0,0.33 c 0,0.42 -0.09,0.74 -0.27,0.94 -0.18,0.2 -0.47,0.3 -0.87,0.3 -0.44,0 -0.94,-0.14 -1.51,-0.41 l -0.24,0.62 c 0.26,0.14 0.55,0.25 0.86,0.33 0.31,0.08 0.63,0.13 0.94,0.13 0.64,0 1.11,-0.15 1.42,-0.43 0.3,-0.28 0.46,-0.73 0.46,-1.36 l 0,-3.65 z" id="path4548" /><path style="fill:#000000;stroke-width:0" d="m 259.24,477.81 0.03,0 0.02,0 0.03,0 0.03,0 0.02,0 0.03,0.01 0.05,0 0.05,0 0.05,0.01 0.05,0.01 0.05,0 c 0.14,0.02 0.24,0.05 0.32,0.07 l 0,-0.62 c -0.09,-0.04 -0.22,-0.08 -0.39,-0.1 -0.17,-0.03 -0.32,-0.05 -0.46,-0.05 -1.03,0 -1.54,0.55 -1.54,1.64 l 0,3.17 -0.77,0 0,0.38 0.77,0.34 0.34,1.13 0.46,0 0,-1.22 1.55,0 0,-0.63 -1.55,0 0,-3.14 c 0,-0.32 0.08,-0.57 0.23,-0.74 0.15,-0.17 0.36,-0.26 0.63,-0.26 z" id="path4550" /><path style="fill:#000000;stroke-width:0" d="m 263.28,477.14 -0.07,0.01 -0.08,0 -0.07,0 -0.07,0.01 -0.07,0 -0.07,0.01 -0.06,0.01 -0.07,0.01 -0.07,0.01 -0.06,0.02 -0.06,0.01 -0.07,0.02 -0.06,0.01 -0.06,0.02 -0.06,0.02 -0.06,0.02 -0.05,0.03 -0.06,0.02 -0.06,0.03 -0.05,0.03 -0.06,0.03 -0.05,0.03 -0.05,0.03 -0.05,0.03 -0.05,0.03 -0.05,0.04 -0.05,0.04 -0.04,0.04 -0.05,0.04 -0.05,0.04 -0.04,0.04 -0.04,0.04 c -0.46,0.48 -0.69,1.15 -0.69,2 0,0.86 0.22,1.54 0.64,2.05 0.42,0.5 0.99,0.76 1.7,0.76 0.66,0 1.2,-0.22 1.58,-0.66 0.39,-0.44 0.59,-1.01 0.59,-1.73 l 0,-0.51 -3.67,0 0.02,0.66 2.78,0 c 0,0.5 -0.11,0.89 -0.34,1.16 -0.23,0.27 -0.55,0.4 -0.97,0.4 l 0,0 c -0.43,0 -0.77,-0.14 -1.02,-0.41 -0.25,-0.28 -0.4,-0.66 -0.45,-1.15 l -0.02,-0.66 c 0.02,-0.63 0.18,-1.1 0.48,-1.43 0.29,-0.33 0.72,-0.49 1.26,-0.49 0.57,0 1.14,0.12 1.7,0.36 l 0,-0.72 c -0.29,-0.12 -0.56,-0.21 -0.81,-0.26 -0.26,-0.06 -0.56,-0.09 -0.92,-0.09 z" id="path4552" /><path style="fill:#000000;stroke-width:0" d="m 268.74,479.96 0.01,0.16 0,0.15 0.01,0.16 0.01,0.16 0.01,0.15 0.02,0.16 0.02,0.15 0.02,0.15 0.02,0.15 0.03,0.15 0.03,0.15 0.04,0.15 0.03,0.14 0.04,0.14 0.05,0.15 0.04,0.14 c 0.25,0.75 0.62,1.4 1.09,1.97 l 0.79,0 c -0.47,-0.63 -0.82,-1.32 -1.05,-2.07 -0.24,-0.74 -0.36,-1.51 -0.36,-2.3 0,-0.78 0.12,-1.54 0.36,-2.28 0.24,-0.75 0.59,-1.42 1.04,-2.04 l -0.78,0 c -0.48,0.55 -0.84,1.2 -1.09,1.93 -0.25,0.74 -0.38,1.53 -0.38,2.38 z" id="path4554" /><path style="fill:#000000;stroke-width:0" d="m 273.31,477.23 -2.02,5.35 0.87,0 1.14,-3.17 c 0.26,-0.74 0.41,-1.22 0.46,-1.44 l 0.04,0 c 0.03,0.17 0.15,0.52 0.34,1.07 0.19,0.54 0.61,1.72 1.27,3.54 l 0.87,0 -2.02,-5.35 z" id="path4556" /><path style="fill:#000000;stroke-width:0" d="m 279.39,477.14 -0.08,0.01 -0.07,0 -0.07,0 -0.07,0.01 -0.07,0 -0.07,0.01 -0.07,0.01 -0.06,0.01 -0.07,0.01 -0.06,0.02 -0.07,0.01 -0.06,0.02 -0.06,0.01 -0.06,0.02 -0.06,0.02 -0.06,0.02 -0.06,0.03 -0.05,0.02 -0.06,0.03 -0.05,0.03 -0.06,0.03 -0.05,0.03 -0.05,0.03 -0.05,0.03 -0.05,0.03 -0.05,0.04 -0.05,0.04 -0.05,0.04 -0.04,0.04 -0.05,0.04 -0.04,0.04 -0.04,0.04 c -0.46,0.48 -0.69,1.15 -0.69,2 0,0.86 0.21,1.54 0.64,2.05 0.42,0.5 0.99,0.76 1.7,0.76 0.66,0 1.19,-0.22 1.58,-0.66 0.39,-0.44 0.59,-1.01 0.59,-1.73 l 0,-0.51 -3.67,0 0.02,0.66 2.78,0 c 0,0.5 -0.12,0.89 -0.34,1.16 -0.23,0.27 -0.55,0.4 -0.97,0.4 l 0,0 c -0.43,0 -0.77,-0.14 -1.02,-0.41 -0.26,-0.28 -0.41,-0.66 -0.45,-1.15 l -0.02,-0.66 c 0.02,-0.63 0.18,-1.1 0.47,-1.43 0.3,-0.33 0.73,-0.49 1.27,-0.49 0.57,0 1.14,0.12 1.7,0.36 l 0,-0.72 c -0.29,-0.12 -0.56,-0.21 -0.81,-0.26 -0.26,-0.06 -0.56,-0.09 -0.92,-0.09 z" id="path4558" /><path style="fill:#000000;stroke-width:0" d="m 286.38,477.23 0,3.46 c 0,0.43 -0.1,0.76 -0.3,0.98 -0.19,0.21 -0.5,0.32 -0.93,0.32 -0.56,0 -0.97,-0.15 -1.23,-0.46 -0.25,-0.31 -0.38,-0.8 -0.38,-1.5 l 0,-2.8 -0.81,0 0,7.58 0.81,0 0,-2.29 c 0,-0.27 -0.02,-0.5 -0.04,-0.68 l 0.05,0 c 0.16,0.25 0.38,0.46 0.68,0.6 0.29,0.15 0.63,0.23 1,0.23 0.65,0 1.14,-0.16 1.47,-0.47 0.32,-0.31 0.49,-0.8 0.49,-1.48 l 0,-3.49 z" id="path4560" /><polygon style="fill:#000000;stroke-width:0" points="288.84,477.23 288.84,482.58 289.65,482.58 289.65,477.23 " id="polygon4562" /><path style="fill:#000000;stroke-width:0" d="m 288.77,484.01 0,0.02 0,0.02 0,0.01 0,0.02 0.01,0.01 0,0.02 0,0.02 0,0.01 0,0.02 0.01,0.01 0,0.01 0,0.02 0,0.01 0.01,0.02 0,0.01 0.01,0.01 0,0.01 0.01,0.02 0,0.01 0.01,0.01 0,0.01 0.01,0.01 0,0.01 0.01,0.01 0.01,0.01 0,0.01 0.01,0.01 0.01,0.01 0,0.01 0.01,0.01 0.01,0.01 0.01,0.01 c 0.09,0.08 0.2,0.13 0.34,0.13 0.13,0 0.24,-0.05 0.33,-0.13 0.1,-0.09 0.15,-0.23 0.15,-0.41 0,-0.18 -0.05,-0.32 -0.15,-0.4 -0.09,-0.09 -0.2,-0.14 -0.33,-0.14 -0.14,0 -0.25,0.05 -0.34,0.14 -0.09,0.08 -0.14,0.22 -0.14,0.4 z" id="path4564" /><path style="fill:#000000;stroke-width:0" d="m 293.5,477.14 -0.08,0.01 -0.07,0 -0.07,0 -0.07,0.01 -0.06,0 -0.07,0.01 -0.07,0.01 -0.06,0.01 -0.06,0.01 -0.07,0.01 -0.06,0.02 -0.06,0.02 -0.06,0.01 -0.06,0.02 -0.06,0.02 -0.05,0.02 -0.06,0.03 -0.05,0.02 -0.06,0.03 -0.05,0.02 -0.05,0.03 -0.05,0.03 -0.05,0.03 -0.05,0.04 -0.04,0.03 -0.05,0.04 -0.05,0.03 -0.04,0.04 -0.04,0.04 -0.05,0.04 -0.04,0.04 -0.04,0.05 c -0.42,0.47 -0.63,1.14 -0.63,2.01 0,0.89 0.21,1.58 0.64,2.07 0.43,0.48 1.05,0.73 1.84,0.73 0.25,0 0.51,-0.03 0.77,-0.09 0.25,-0.05 0.46,-0.12 0.6,-0.19 l -0.25,-0.69 c -0.18,0.07 -0.37,0.13 -0.58,0.18 -0.21,0.05 -0.4,0.07 -0.56,0.07 -1.08,0 -1.63,-0.69 -1.63,-2.07 0,-0.65 0.14,-1.15 0.4,-1.5 0.27,-0.35 0.66,-0.53 1.18,-0.53 0.44,0 0.9,0.1 1.36,0.29 l 0,-0.72 c -0.35,-0.18 -0.8,-0.28 -1.34,-0.28 z" id="path4566" /><polygon style="fill:#000000;stroke-width:0" points="296.1,477.23 296.1,484.81 296.91,484.81 296.91,477.23 " id="polygon4568" /><path style="fill:#000000;stroke-width:0" d="m 300.87,477.14 -0.07,0.01 -0.07,0 -0.07,0 -0.07,0.01 -0.07,0 -0.07,0.01 -0.07,0.01 -0.07,0.01 -0.06,0.01 -0.07,0.02 -0.06,0.01 -0.06,0.02 -0.06,0.01 -0.06,0.02 -0.06,0.02 -0.06,0.02 -0.06,0.03 -0.06,0.02 -0.05,0.03 -0.06,0.03 -0.05,0.03 -0.05,0.03 -0.06,0.03 -0.05,0.03 -0.05,0.03 -0.04,0.04 -0.05,0.04 -0.05,0.04 -0.05,0.04 -0.04,0.04 -0.04,0.04 -0.05,0.04 c -0.45,0.48 -0.68,1.15 -0.68,2 0,0.86 0.21,1.54 0.63,2.05 0.42,0.5 0.99,0.76 1.71,0.76 0.66,0 1.19,-0.22 1.58,-0.66 0.38,-0.44 0.58,-1.01 0.58,-1.73 l 0,-0.51 -3.66,0 0.02,0.66 2.77,0 c 0,0.5 -0.11,0.89 -0.34,1.16 -0.22,0.27 -0.54,0.4 -0.96,0.4 l 0,0 c -0.43,0 -0.77,-0.14 -1.02,-0.41 -0.26,-0.28 -0.41,-0.66 -0.45,-1.15 l -0.02,-0.66 c 0.01,-0.63 0.17,-1.1 0.47,-1.43 0.3,-0.33 0.72,-0.49 1.26,-0.49 0.58,0 1.14,0.12 1.7,0.36 l 0,-0.72 c -0.28,-0.12 -0.55,-0.21 -0.81,-0.26 -0.25,-0.06 -0.56,-0.09 -0.92,-0.09 z" id="path4570" /><path style="fill:#000000;stroke-width:0" d="m 307.65,478.7 0,-0.05 0,-0.05 -0.01,-0.04 0,-0.05 -0.01,-0.04 0,-0.04 -0.01,-0.04 -0.01,-0.05 -0.01,-0.04 -0.01,-0.04 -0.01,-0.04 -0.01,-0.03 -0.01,-0.04 -0.02,-0.04 -0.01,-0.04 -0.02,-0.03 -0.02,-0.04 -0.02,-0.03 -0.02,-0.04 -0.02,-0.03 -0.02,-0.03 -0.02,-0.04 -0.03,-0.03 -0.02,-0.03 -0.03,-0.03 -0.03,-0.03 -0.03,-0.03 -0.03,-0.02 -0.03,-0.03 -0.03,-0.03 -0.03,-0.03 -0.04,-0.02 c -0.37,-0.27 -0.88,-0.41 -1.55,-0.41 -0.71,0 -1.26,0.12 -1.65,0.34 l 0,0.74 c 0.25,-0.13 0.53,-0.23 0.82,-0.3 0.29,-0.07 0.58,-0.11 0.85,-0.11 0.42,0 0.74,0.07 0.97,0.2 0.23,0.14 0.34,0.34 0.34,0.62 0,0.2 -0.09,0.38 -0.27,0.53 -0.18,0.14 -0.53,0.32 -1.05,0.52 -0.5,0.19 -0.85,0.35 -1.06,0.49 -0.2,0.13 -0.36,0.29 -0.46,0.47 -0.1,0.17 -0.15,0.38 -0.15,0.62 -0.01,0.43 0.17,0.78 0.52,1.03 0.36,0.25 0.84,0.38 1.46,0.38 0.57,0 1.13,-0.12 1.68,-0.35 l -0.29,-0.66 c -0.54,0.22 -1.02,0.33 -1.45,0.33 -0.38,0 -0.67,-0.06 -0.87,-0.18 -0.19,-0.12 -0.29,-0.29 -0.29,-0.49 0,-0.15 0.04,-0.27 0.11,-0.37 0.07,-0.1 0.19,-0.2 0.36,-0.29 0.16,-0.09 0.47,-0.22 0.93,-0.39 0.63,-0.23 1.05,-0.46 1.28,-0.69 0.22,-0.24 0.33,-0.53 0.33,-0.88 z" id="path4572" /><path style="fill:#000000;stroke-width:0" d="m 314.05,477.14 -0.07,0.01 -0.06,0 -0.07,0 -0.06,0.01 -0.06,0 -0.06,0.01 -0.06,0.01 -0.06,0.01 -0.06,0.02 -0.06,0.01 -0.06,0.02 -0.06,0.01 -0.05,0.02 -0.06,0.02 -0.05,0.02 -0.06,0.03 c -0.29,0.12 -0.53,0.32 -0.72,0.59 l -0.06,0 c 0.04,-0.32 0.06,-0.61 0.06,-0.89 l 0,-2.19 -0.81,0 0,7.73 0.66,0 0.11,-0.74 0.04,0 0.37,-0.31 c -0.24,-0.3 -0.36,-0.78 -0.37,-1.44 l 0,-0.18 c 0,-0.75 0.12,-1.28 0.37,-1.61 0.25,-0.32 0.66,-0.48 1.21,-0.48 0.46,0 0.82,0.19 1.09,0.56 0.26,0.37 0.39,0.89 0.39,1.54 0,0.66 -0.13,1.17 -0.39,1.53 -0.27,0.35 -0.64,0.53 -1.11,0.53 l 0,0 c -0.55,0 -0.94,-0.15 -1.19,-0.45 l -0.37,0.31 c 0.21,0.29 0.45,0.5 0.73,0.63 0.27,0.13 0.59,0.2 0.95,0.2 0.7,0 1.25,-0.25 1.64,-0.73 0.38,-0.48 0.58,-1.16 0.58,-2.03 -0.01,-0.88 -0.2,-1.55 -0.59,-2.04 -0.39,-0.48 -0.94,-0.73 -1.63,-0.73 z" id="path4574" /><path style="fill:#000000;stroke-width:0" d="m 319.91,477.14 -0.07,0.01 -0.07,0 -0.08,0 -0.07,0.01 -0.07,0 -0.06,0.01 -0.07,0.01 -0.07,0.01 -0.06,0.01 -0.07,0.02 -0.06,0.01 -0.06,0.02 -0.07,0.01 -0.06,0.02 -0.06,0.02 -0.05,0.02 -0.06,0.03 -0.06,0.02 -0.05,0.03 -0.06,0.03 -0.05,0.03 -0.06,0.03 -0.05,0.03 -0.05,0.03 -0.05,0.03 -0.05,0.04 -0.05,0.04 -0.04,0.04 -0.05,0.04 -0.04,0.04 -0.05,0.04 -0.04,0.04 c -0.46,0.48 -0.68,1.15 -0.68,2 0,0.86 0.21,1.54 0.63,2.05 0.42,0.5 0.99,0.76 1.7,0.76 0.67,0 1.2,-0.22 1.59,-0.66 0.38,-0.44 0.58,-1.01 0.58,-1.73 l 0,-0.51 -3.67,0 0.02,0.66 2.78,0 c 0,0.5 -0.11,0.89 -0.34,1.16 -0.23,0.27 -0.55,0.4 -0.97,0.4 l 0,0 c -0.42,0 -0.76,-0.14 -1.02,-0.41 -0.25,-0.28 -0.4,-0.66 -0.45,-1.15 l -0.02,-0.66 c 0.02,-0.63 0.18,-1.1 0.48,-1.43 0.3,-0.33 0.72,-0.49 1.26,-0.49 0.57,0 1.14,0.12 1.7,0.36 l 0,-0.72 c -0.28,-0.12 -0.55,-0.21 -0.81,-0.26 -0.25,-0.06 -0.56,-0.09 -0.92,-0.09 z" id="path4576" /><path style="fill:#000000;stroke-width:0" d="m 325.68,482.67 0.04,0 0.05,-0.01 0.04,0 0.04,0 0.04,0 0.04,0 0.04,-0.01 0.04,0 0.04,0 0.04,-0.01 0.04,0 0.04,-0.01 0.04,0 0.03,-0.01 0.04,-0.01 0.04,0 -0.12,-0.75 c -0.22,0.05 -0.41,0.07 -0.58,0.07 -0.43,0 -0.8,-0.17 -1.1,-0.52 -0.31,-0.36 -0.46,-0.79 -0.46,-1.31 l 0,-2.87 -0.81,0 0,5.35 0.67,0 0.09,-1 0.04,0 c 0.2,0.35 0.43,0.62 0.71,0.8 0.28,0.19 0.59,0.29 0.92,0.29 z" id="path4578" /><path style="fill:#000000;stroke-width:0" d="m 333.56,477.23 0,3.46 c 0,0.43 -0.1,0.76 -0.3,0.98 -0.19,0.21 -0.5,0.32 -0.93,0.32 -0.56,0 -0.97,-0.15 -1.22,-0.46 -0.26,-0.31 -0.39,-0.8 -0.39,-1.5 l 0,-2.8 -0.81,0 0,7.58 0.81,0 0,-2.29 c 0,-0.27 -0.01,-0.5 -0.04,-0.68 l 0.05,0 c 0.16,0.25 0.38,0.46 0.68,0.6 0.29,0.15 0.63,0.23 1,0.23 0.65,0 1.14,-0.16 1.47,-0.47 0.32,-0.31 0.49,-0.8 0.49,-1.48 l 0,-3.49 z" id="path4580" /><path style="fill:#000000;stroke-width:0" d="m 340.64,479.91 0,-0.08 -0.01,-0.08 0,-0.08 0,-0.08 -0.01,-0.07 -0.01,-0.08 -0.01,-0.07 -0.01,-0.08 -0.01,-0.07 -0.01,-0.07 -0.01,-0.07 -0.02,-0.07 -0.01,-0.06 -0.02,-0.07 -0.02,-0.07 -0.02,-0.06 -0.02,-0.06 -0.02,-0.06 -0.03,-0.07 -0.02,-0.06 -0.03,-0.05 -0.02,-0.06 -0.03,-0.06 -0.03,-0.05 -0.04,-0.06 -0.03,-0.05 -0.03,-0.05 -0.04,-0.05 -0.03,-0.05 -0.04,-0.05 -0.04,-0.05 -0.04,-0.04 c -0.44,-0.49 -1.05,-0.74 -1.82,-0.74 l 0.02,0.68 c 0.53,0 0.93,0.18 1.21,0.53 0.27,0.36 0.41,0.88 0.41,1.56 0,0.67 -0.14,1.19 -0.41,1.54 -0.28,0.35 -0.68,0.53 -1.22,0.53 -0.53,0 -0.93,-0.17 -1.2,-0.52 -0.27,-0.35 -0.4,-0.86 -0.4,-1.55 l 0,0 c 0,-0.68 0.13,-1.2 0.41,-1.55 0.27,-0.36 0.67,-0.54 1.2,-0.54 l -0.02,-0.68 c -0.48,0 -0.9,0.12 -1.27,0.34 -0.37,0.22 -0.66,0.54 -0.86,0.96 -0.2,0.42 -0.3,0.91 -0.3,1.47 0,0.87 0.22,1.54 0.65,2.03 0.44,0.48 1.04,0.73 1.82,0.73 0.74,0 1.34,-0.25 1.78,-0.75 0.43,-0.5 0.66,-1.16 0.66,-2.01 z" id="path4582" /><path style="fill:#000000;stroke-width:0" d="m 342.8,482.58 0,-3.46 c 0,-0.44 0.1,-0.76 0.3,-0.98 0.2,-0.21 0.51,-0.32 0.93,-0.32 0.55,0 0.96,0.15 1.22,0.46 0.26,0.3 0.39,0.8 0.39,1.49 l 0,2.81 0.81,0 0,-5.35 -0.67,0 -0.12,0.73 -0.04,0 c -0.17,-0.27 -0.39,-0.47 -0.69,-0.6 -0.29,-0.15 -0.63,-0.22 -1,-0.22 -0.65,0 -1.14,0.16 -1.46,0.47 -0.33,0.3 -0.49,0.8 -0.49,1.48 l 0,3.49 z" id="path4584" /><path style="fill:#000000;stroke-width:0" d="m 350.58,482.67 0.05,0 0.04,-0.01 0.04,0 0.05,0 0.04,0 0.04,0 0.04,-0.01 0.04,0 0.04,0 0.04,-0.01 0.04,0 0.03,-0.01 0.04,0 0.04,-0.01 0.03,-0.01 0.04,0 -0.11,-0.75 c -0.22,0.05 -0.42,0.07 -0.58,0.07 -0.44,0 -0.8,-0.17 -1.11,-0.52 -0.31,-0.36 -0.46,-0.79 -0.46,-1.31 l 0,-2.87 -0.8,0 0,5.35 0.66,0 0.1,-1 0.03,0 c 0.2,0.35 0.44,0.62 0.72,0.8 0.27,0.19 0.58,0.29 0.91,0.29 z" id="path4586" /><path style="fill:#000000;stroke-width:0" d="m 353.92,479.96 0,-0.16 0,-0.16 -0.01,-0.16 -0.01,-0.15 -0.01,-0.16 -0.02,-0.15 -0.02,-0.15 -0.02,-0.15 -0.03,-0.15 -0.02,-0.14 -0.04,-0.15 -0.03,-0.14 -0.04,-0.15 -0.04,-0.14 -0.04,-0.14 -0.04,-0.14 c -0.26,-0.73 -0.62,-1.37 -1.09,-1.92 l -0.78,0 c 0.45,0.61 0.8,1.29 1.04,2.03 0.23,0.74 0.36,1.51 0.36,2.29 0,0.79 -0.12,1.56 -0.36,2.3 -0.23,0.75 -0.58,1.44 -1.05,2.07 l 0.79,0 c 0.47,-0.57 0.84,-1.23 1.09,-1.98 0.25,-0.75 0.37,-1.55 0.37,-2.4 z" id="path4588" /></g>  <g style="font-style:normal;font-variant:normal;font-weight:normal;font-stretch:normal;letter-spacing:normal;word-spacing:normal;text-anchor:start;fill:none;fill-opacity:1;fill-rule:evenodd;stroke:#000000;stroke-linecap:butt;stroke-linejoin:miter;stroke-miterlimit:10.43299961;stroke-dasharray:none;stroke-dashoffset:0;stroke-opacity:1" ns0:preamble="/Users/prmb/CMEP/underground-inkscape-preamble.tex" ns0:text="stopping distance" word-spacing="normal" letter-spacing="normal" font-size-adjust="none" font-stretch="normal" font-weight="normal" font-variant="normal" font-style="normal" stroke-miterlimit="10.433" xml:space="preserve" transform="matrix(2,0,0,-2,-189.79657,2049.3051)" id="g5148"><path style="fill:#000000;stroke-width:0" id="path5150" d="m 227.72,478.7 0,-0.05 0,-0.05 -0.01,-0.04 0,-0.05 0,-0.04 -0.01,-0.04 -0.01,-0.04 -0.01,-0.05 0,-0.04 -0.02,-0.04 -0.01,-0.04 -0.01,-0.03 -0.01,-0.04 -0.02,-0.04 -0.01,-0.04 -0.02,-0.03 -0.02,-0.04 -0.02,-0.03 -0.02,-0.04 -0.02,-0.03 -0.02,-0.03 -0.02,-0.04 -0.03,-0.03 -0.02,-0.03 -0.03,-0.03 -0.03,-0.03 -0.02,-0.03 -0.03,-0.02 -0.04,-0.03 -0.03,-0.03 -0.03,-0.03 -0.03,-0.02 c -0.38,-0.27 -0.89,-0.41 -1.56,-0.41 -0.71,0 -1.25,0.12 -1.65,0.34 l 0,0.74 c 0.25,-0.13 0.53,-0.23 0.82,-0.3 0.3,-0.07 0.58,-0.11 0.85,-0.11 0.42,0 0.75,0.07 0.97,0.2 0.23,0.14 0.34,0.34 0.34,0.62 0,0.2 -0.09,0.38 -0.27,0.53 -0.18,0.14 -0.53,0.32 -1.05,0.52 -0.5,0.19 -0.85,0.35 -1.05,0.49 -0.21,0.13 -0.37,0.29 -0.47,0.47 -0.1,0.17 -0.15,0.38 -0.15,0.62 0,0.43 0.17,0.78 0.53,1.03 0.35,0.25 0.83,0.38 1.45,0.38 0.57,0 1.13,-0.12 1.68,-0.35 l -0.29,-0.66 c -0.53,0.22 -1.02,0.33 -1.45,0.33 -0.38,0 -0.67,-0.06 -0.86,-0.18 -0.2,-0.12 -0.29,-0.29 -0.29,-0.49 -0.01,-0.15 0.03,-0.27 0.1,-0.37 0.08,-0.1 0.19,-0.2 0.36,-0.29 0.16,-0.09 0.47,-0.22 0.93,-0.39 0.63,-0.23 1.06,-0.46 1.28,-0.69 0.22,-0.24 0.33,-0.53 0.33,-0.88 z" /><path style="fill:#000000;stroke-width:0" id="path5152" d="m 230.77,477.81 0.02,0 0.03,0 0.03,0 0.02,0 0.03,0 0.02,0.01 0.03,0 0.03,0 0.05,0 0.05,0.01 0.05,0.01 0.05,0 c 0.13,0.02 0.24,0.05 0.32,0.07 l 0,-0.62 c -0.09,-0.04 -0.22,-0.08 -0.39,-0.1 -0.17,-0.03 -0.32,-0.05 -0.46,-0.05 -1.03,0 -1.55,0.55 -1.55,1.64 l 0,3.17 -0.76,0 0,0.38 0.76,0.34 0.34,1.13 0.47,0 0,-1.22 1.55,0 0,-0.63 -1.55,0 0,-3.14 c 0,-0.32 0.08,-0.57 0.23,-0.74 0.15,-0.17 0.36,-0.26 0.63,-0.26 z" /><path style="fill:#000000;stroke-width:0" id="path5154" d="m 237.17,479.91 0,-0.08 0,-0.08 -0.01,-0.08 0,-0.08 -0.01,-0.07 0,-0.08 -0.01,-0.07 -0.01,-0.08 -0.01,-0.07 -0.02,-0.07 -0.01,-0.07 -0.01,-0.07 -0.02,-0.06 -0.02,-0.07 -0.02,-0.07 -0.02,-0.06 -0.02,-0.06 -0.02,-0.06 -0.02,-0.07 -0.03,-0.06 -0.02,-0.05 -0.03,-0.06 -0.03,-0.06 -0.03,-0.05 -0.03,-0.06 -0.04,-0.05 -0.03,-0.05 -0.03,-0.05 -0.04,-0.05 -0.04,-0.05 -0.04,-0.05 -0.04,-0.04 c -0.44,-0.49 -1.04,-0.74 -1.82,-0.74 l 0.02,0.68 c 0.53,0 0.94,0.18 1.21,0.53 0.27,0.36 0.41,0.88 0.41,1.56 0,0.67 -0.13,1.19 -0.41,1.54 -0.27,0.35 -0.68,0.53 -1.22,0.53 -0.53,0 -0.93,-0.17 -1.2,-0.52 -0.27,-0.35 -0.4,-0.86 -0.4,-1.55 l 0,0 c 0,-0.68 0.14,-1.2 0.41,-1.55 0.27,-0.36 0.67,-0.54 1.2,-0.54 l -0.02,-0.68 c -0.48,0 -0.9,0.12 -1.27,0.34 -0.37,0.22 -0.65,0.54 -0.86,0.96 -0.2,0.42 -0.3,0.91 -0.3,1.47 0,0.87 0.22,1.54 0.65,2.03 0.44,0.48 1.05,0.73 1.82,0.73 0.74,0 1.34,-0.25 1.78,-0.75 0.44,-0.5 0.66,-1.16 0.66,-2.01 z" /><path style="fill:#000000;stroke-width:0" id="path5156" d="m 241.06,477.14 -0.06,0.01 -0.07,0 -0.06,0 -0.06,0.01 -0.07,0 -0.06,0.01 -0.06,0.01 -0.06,0.01 -0.06,0.02 -0.05,0.01 -0.06,0.02 -0.06,0.01 -0.06,0.02 -0.05,0.02 -0.06,0.02 -0.05,0.03 c -0.29,0.12 -0.53,0.32 -0.73,0.59 l -0.05,0 c 0.04,-0.32 0.05,-0.61 0.05,-0.89 l 0,-2.19 -0.8,0 0,7.73 0.65,0 0.12,-0.74 0.03,0 0.38,-0.31 c -0.24,-0.3 -0.37,-0.78 -0.38,-1.44 l 0,-0.18 c 0,-0.75 0.13,-1.28 0.38,-1.61 0.25,-0.32 0.65,-0.48 1.21,-0.48 0.46,0 0.82,0.19 1.08,0.56 0.26,0.37 0.39,0.89 0.39,1.54 0,0.66 -0.13,1.17 -0.39,1.53 -0.26,0.35 -0.63,0.53 -1.1,0.53 l 0,0 c -0.55,0 -0.94,-0.15 -1.19,-0.45 l -0.38,0.31 c 0.21,0.29 0.46,0.5 0.73,0.63 0.28,0.13 0.6,0.2 0.95,0.2 0.71,0 1.26,-0.25 1.64,-0.73 0.39,-0.48 0.58,-1.16 0.58,-2.03 0,-0.88 -0.19,-1.55 -0.59,-2.04 -0.39,-0.48 -0.93,-0.73 -1.63,-0.73 z" /><path style="fill:#000000;stroke-width:0" id="path5158" d="m 247.17,477.14 -0.07,0.01 -0.06,0 -0.07,0 -0.06,0.01 -0.06,0 -0.06,0.01 -0.06,0.01 -0.06,0.01 -0.06,0.02 -0.06,0.01 -0.06,0.02 -0.05,0.01 -0.06,0.02 -0.06,0.02 -0.05,0.02 -0.06,0.03 c -0.28,0.12 -0.53,0.32 -0.72,0.59 l -0.06,0 c 0.04,-0.32 0.06,-0.61 0.06,-0.89 l 0,-2.19 -0.81,0 0,7.73 0.66,0 0.11,-0.74 0.04,0 0.38,-0.31 c -0.25,-0.3 -0.37,-0.78 -0.38,-1.44 l 0,-0.18 c 0,-0.75 0.13,-1.28 0.38,-1.61 0.25,-0.32 0.65,-0.48 1.2,-0.48 0.46,0 0.83,0.19 1.09,0.56 0.26,0.37 0.39,0.89 0.39,1.54 0,0.66 -0.13,1.17 -0.39,1.53 -0.27,0.35 -0.63,0.53 -1.11,0.53 l 0,0 c -0.55,0 -0.94,-0.15 -1.18,-0.45 l -0.38,0.31 c 0.21,0.29 0.45,0.5 0.73,0.63 0.27,0.13 0.59,0.2 0.95,0.2 0.7,0 1.25,-0.25 1.64,-0.73 0.38,-0.48 0.58,-1.16 0.58,-2.03 -0.01,-0.88 -0.2,-1.55 -0.59,-2.04 -0.39,-0.48 -0.94,-0.73 -1.63,-0.73 z" /><polygon style="fill:#000000;stroke-width:0" id="polygon5160" points="250.78,477.23 250.78,482.58 251.59,482.58 251.59,477.23 " /><path style="fill:#000000;stroke-width:0" id="path5162" d="m 250.71,484.01 0,0.02 0,0.02 0,0.01 0,0.02 0.01,0.01 0,0.02 0,0.02 0,0.01 0,0.02 0.01,0.01 0,0.01 0,0.02 0.01,0.01 0,0.02 0,0.01 0.01,0.01 0,0.01 0.01,0.02 0,0.01 0.01,0.01 0,0.01 0.01,0.01 0,0.01 0.01,0.01 0.01,0.01 0,0.01 0.01,0.01 0.01,0.01 0.01,0.01 0,0.01 0.01,0.01 0.01,0.01 c 0.09,0.08 0.2,0.13 0.34,0.13 0.13,0 0.24,-0.05 0.34,-0.13 0.09,-0.09 0.14,-0.23 0.14,-0.41 -0.01,-0.18 -0.05,-0.32 -0.14,-0.4 -0.1,-0.09 -0.21,-0.14 -0.34,-0.14 -0.14,0 -0.25,0.05 -0.34,0.14 -0.09,0.08 -0.14,0.22 -0.14,0.4 z" /><path style="fill:#000000;stroke-width:0" id="path5164" d="m 256.95,477.23 0,3.45 c 0,0.44 -0.09,0.76 -0.29,0.98 -0.2,0.21 -0.51,0.32 -0.93,0.32 -0.56,0 -0.97,-0.15 -1.23,-0.45 -0.26,-0.3 -0.39,-0.8 -0.39,-1.5 l 0,-2.8 -0.8,0 0,5.35 0.65,0 0.13,-0.74 0.04,0 c 0.17,0.26 0.4,0.46 0.7,0.61 0.3,0.14 0.63,0.22 1,0.22 0.64,0 1.12,-0.16 1.45,-0.47 0.32,-0.31 0.48,-0.8 0.48,-1.49 l 0,-3.48 z" /><path style="fill:#000000;stroke-width:0" id="path5166" d="m 263.79,482.58 0,-0.51 -0.99,-0.12 c 0.09,-0.12 0.17,-0.26 0.24,-0.44 0.07,-0.19 0.11,-0.39 0.11,-0.62 0,-0.53 -0.18,-0.94 -0.54,-1.25 -0.36,-0.31 -0.84,-0.47 -1.47,-0.47 l 0.03,0.57 c 0.79,0 1.18,0.38 1.18,1.14 0,0.8 -0.4,1.2 -1.2,1.2 -0.38,0 -0.67,-0.1 -0.87,-0.31 -0.21,-0.2 -0.31,-0.5 -0.31,-0.9 l 0,0 c 0,-0.37 0.11,-0.65 0.32,-0.84 0.21,-0.19 0.5,-0.29 0.88,-0.29 l -0.03,-0.57 c -0.16,0 -0.31,0.02 -0.44,0.04 -0.35,-0.18 -0.52,-0.41 -0.52,-0.68 0,-0.15 0.06,-0.26 0.18,-0.33 0.12,-0.07 0.33,-0.1 0.62,-0.1 l 0.94,0 c 0.58,0 1.02,-0.12 1.33,-0.37 0.31,-0.24 0.47,-0.59 0.47,-1.06 0,-0.59 -0.24,-1.05 -0.71,-1.36 -0.48,-0.31 -1.17,-0.46 -2.08,-0.46 -0.7,0 -1.23,0.13 -1.61,0.39 -0.38,0.26 -0.57,0.63 -0.57,1.1 0,0.33 0.11,0.61 0.32,0.85 0.2,0.23 0.5,0.4 0.87,0.48 l -0.1,-0.56 c -0.21,-0.18 -0.31,-0.43 -0.31,-0.76 l 0,0 c 0,-0.29 0.12,-0.51 0.37,-0.66 0.24,-0.15 0.59,-0.22 1.04,-0.22 0.68,0 1.18,0.1 1.51,0.3 0.33,0.2 0.49,0.48 0.49,0.83 0,0.29 -0.09,0.49 -0.27,0.61 -0.18,0.11 -0.51,0.17 -1.01,0.17 l -0.96,0 c -0.37,-0.01 -0.66,-0.09 -0.86,-0.27 l 0.1,0.56 c -0.14,0.06 -0.25,0.16 -0.34,0.29 -0.1,0.13 -0.14,0.28 -0.14,0.45 0,0.19 0.05,0.37 0.16,0.51 0.1,0.15 0.26,0.29 0.49,0.42 -0.28,0.12 -0.5,0.31 -0.68,0.58 -0.17,0.27 -0.26,0.58 -0.26,0.93 0,0.58 0.18,1.03 0.53,1.34 0.35,0.32 0.85,0.48 1.49,0.48 0.27,0 0.53,-0.03 0.75,-0.09 z" /><path style="fill:#000000;stroke-width:0" id="path5168" d="m 271.1,477.96 -0.05,0 -0.37,0.31 c 0.25,0.3 0.37,0.78 0.37,1.45 l 0,0.17 c 0,0.75 -0.12,1.29 -0.37,1.62 -0.26,0.32 -0.66,0.48 -1.21,0.48 -0.48,0 -0.84,-0.19 -1.09,-0.55 -0.26,-0.37 -0.38,-0.89 -0.38,-1.56 0,-0.68 0.13,-1.19 0.38,-1.54 0.25,-0.35 0.61,-0.52 1.1,-0.52 l 0,0 c 0.55,0 0.95,0.15 1.2,0.45 l 0.37,-0.31 c -0.37,-0.54 -0.93,-0.82 -1.67,-0.82 -0.7,0 -1.25,0.24 -1.63,0.72 -0.39,0.47 -0.59,1.15 -0.59,2.03 0,0.88 0.2,1.56 0.59,2.05 0.39,0.48 0.93,0.73 1.63,0.73 0.72,0 1.28,-0.27 1.66,-0.79 l 0.07,0 -0.04,0.38 -0.02,0.38 0,2.17 0.81,0 0,-7.58 -0.66,0 z" /><polygon style="fill:#000000;stroke-width:0" id="polygon5170" points="273.56,477.23 273.56,482.58 274.37,482.58 274.37,477.23 " /><path style="fill:#000000;stroke-width:0" id="path5172" d="m 273.49,484.01 0,0.02 0,0.02 0,0.01 0,0.02 0,0.01 0.01,0.02 0,0.02 0,0.01 0,0.02 0,0.01 0.01,0.01 0,0.02 0,0.01 0.01,0.02 0,0.01 0.01,0.01 0,0.01 0,0.02 0.01,0.01 0,0.01 0.01,0.01 0.01,0.01 0,0.01 0.01,0.01 0,0.01 0.01,0.01 0.01,0.01 0.01,0.01 0,0.01 0.01,0.01 0.01,0.01 0.01,0.01 c 0.09,0.08 0.2,0.13 0.34,0.13 0.13,0 0.24,-0.05 0.33,-0.13 0.1,-0.09 0.15,-0.23 0.15,-0.41 -0.01,-0.18 -0.05,-0.32 -0.15,-0.4 -0.09,-0.09 -0.2,-0.14 -0.33,-0.14 -0.14,0 -0.25,0.05 -0.34,0.14 -0.09,0.08 -0.14,0.22 -0.14,0.4 z" /><path style="fill:#000000;stroke-width:0" id="path5174" d="m 279.52,478.7 0,-0.05 -0.01,-0.05 0,-0.04 0,-0.05 -0.01,-0.04 0,-0.04 -0.01,-0.04 -0.01,-0.05 -0.01,-0.04 -0.01,-0.04 -0.01,-0.04 -0.01,-0.03 -0.02,-0.04 -0.01,-0.04 -0.02,-0.04 -0.01,-0.03 -0.02,-0.04 -0.02,-0.03 -0.02,-0.04 -0.02,-0.03 -0.02,-0.03 -0.03,-0.04 -0.02,-0.03 -0.03,-0.03 -0.02,-0.03 -0.03,-0.03 -0.03,-0.03 -0.03,-0.02 -0.03,-0.03 -0.03,-0.03 -0.03,-0.03 -0.04,-0.02 c -0.37,-0.27 -0.88,-0.41 -1.55,-0.41 -0.71,0 -1.26,0.12 -1.65,0.34 l 0,0.74 c 0.25,-0.13 0.53,-0.23 0.82,-0.3 0.29,-0.07 0.57,-0.11 0.85,-0.11 0.42,0 0.74,0.07 0.97,0.2 0.22,0.14 0.34,0.34 0.34,0.62 -0.01,0.2 -0.09,0.38 -0.27,0.53 -0.18,0.14 -0.53,0.32 -1.05,0.52 -0.5,0.19 -0.85,0.35 -1.06,0.49 -0.21,0.13 -0.36,0.29 -0.47,0.47 -0.1,0.17 -0.15,0.38 -0.15,0.62 0,0.43 0.18,0.78 0.53,1.03 0.35,0.25 0.84,0.38 1.45,0.38 0.58,0 1.14,-0.12 1.68,-0.35 l -0.28,-0.66 c -0.54,0.22 -1.02,0.33 -1.45,0.33 -0.39,0 -0.67,-0.06 -0.87,-0.18 -0.19,-0.12 -0.29,-0.29 -0.29,-0.49 0,-0.15 0.04,-0.27 0.11,-0.37 0.07,-0.1 0.19,-0.2 0.35,-0.29 0.16,-0.09 0.48,-0.22 0.93,-0.39 0.63,-0.23 1.06,-0.46 1.28,-0.69 0.22,-0.24 0.34,-0.53 0.34,-0.88 z" /><path style="fill:#000000;stroke-width:0" id="path5176" d="m 282.56,477.81 0.03,0 0.03,0 0.02,0 0.03,0 0.02,0 0.03,0.01 0.05,0 0.05,0 0.06,0.01 0.05,0.01 0.05,0 c 0.13,0.02 0.23,0.05 0.31,0.07 l 0,-0.62 c -0.09,-0.04 -0.21,-0.08 -0.39,-0.1 -0.17,-0.03 -0.32,-0.05 -0.45,-0.05 -1.04,0 -1.55,0.55 -1.55,1.64 l 0,3.17 -0.77,0 0,0.38 0.77,0.34 0.34,1.13 0.46,0 0,-1.22 1.55,0 0,-0.63 -1.55,0 0,-3.14 c 0,-0.32 0.08,-0.57 0.23,-0.74 0.15,-0.17 0.37,-0.26 0.63,-0.26 z" /><path style="fill:#000000;stroke-width:0" id="path5178" d="m 287.64,477.23 -0.16,0.76 -0.04,0 -0.44,0.23 c 0.29,0.28 0.43,0.66 0.43,1.16 l 0,0.47 -0.81,-0.03 c -0.64,-0.02 -1.11,-0.12 -1.39,-0.3 -0.29,-0.18 -0.43,-0.45 -0.43,-0.82 0,-0.29 0.09,-0.51 0.27,-0.66 0.17,-0.15 0.42,-0.23 0.74,-0.23 l 0,0 c 0.5,0 0.9,0.14 1.19,0.41 l 0.44,-0.23 c -0.27,-0.33 -0.53,-0.55 -0.8,-0.67 -0.26,-0.12 -0.59,-0.18 -0.99,-0.18 -0.53,0 -0.94,0.14 -1.24,0.41 -0.3,0.27 -0.46,0.66 -0.46,1.16 0,1.07 0.87,1.64 2.59,1.69 l 0.91,0.03 0,0.33 c 0,0.42 -0.09,0.74 -0.27,0.94 -0.18,0.2 -0.47,0.3 -0.86,0.3 -0.45,0 -0.95,-0.14 -1.52,-0.41 l -0.25,0.62 c 0.27,0.14 0.56,0.25 0.87,0.33 0.31,0.08 0.63,0.13 0.94,0.13 0.64,0 1.11,-0.15 1.42,-0.43 0.3,-0.28 0.46,-0.73 0.46,-1.36 l 0,-3.65 z" /><path style="fill:#000000;stroke-width:0" id="path5180" d="m 293.55,477.23 0,3.45 c -0.01,0.44 -0.1,0.76 -0.3,0.98 -0.2,0.21 -0.51,0.32 -0.93,0.32 -0.56,0 -0.97,-0.15 -1.23,-0.45 -0.26,-0.3 -0.39,-0.8 -0.39,-1.5 l 0,-2.8 -0.81,0 0,5.35 0.66,0 0.13,-0.74 0.04,0 c 0.17,0.26 0.4,0.46 0.7,0.61 0.3,0.14 0.63,0.22 1,0.22 0.64,0 1.12,-0.16 1.45,-0.47 0.32,-0.31 0.48,-0.8 0.48,-1.49 l 0,-3.48 z" /><path style="fill:#000000;stroke-width:0" id="path5182" d="m 298.14,477.14 -0.07,0.01 -0.07,0 -0.07,0 -0.07,0.01 -0.07,0 -0.06,0.01 -0.07,0.01 -0.07,0.01 -0.06,0.01 -0.06,0.01 -0.06,0.02 -0.06,0.02 -0.06,0.01 -0.06,0.02 -0.06,0.02 -0.06,0.02 -0.05,0.03 -0.06,0.02 -0.05,0.03 -0.05,0.02 -0.05,0.03 -0.05,0.03 -0.05,0.03 -0.05,0.04 -0.05,0.03 -0.05,0.04 -0.04,0.03 -0.04,0.04 -0.05,0.04 -0.04,0.04 -0.04,0.04 -0.04,0.05 c -0.43,0.47 -0.64,1.14 -0.64,2.01 0,0.89 0.22,1.58 0.65,2.07 0.43,0.48 1.04,0.73 1.84,0.73 0.25,0 0.51,-0.03 0.76,-0.09 0.26,-0.05 0.46,-0.12 0.61,-0.19 l -0.25,-0.69 c -0.18,0.07 -0.37,0.13 -0.59,0.18 -0.21,0.05 -0.39,0.07 -0.56,0.07 -1.08,0 -1.62,-0.69 -1.62,-2.07 0,-0.65 0.13,-1.15 0.4,-1.5 0.26,-0.35 0.65,-0.53 1.17,-0.53 0.44,0 0.9,0.1 1.37,0.29 l 0,-0.72 c -0.36,-0.18 -0.81,-0.28 -1.35,-0.28 z" /><path style="fill:#000000;stroke-width:0" id="path5184" d="m 303,477.14 -0.07,0.01 -0.08,0 -0.07,0 -0.07,0.01 -0.07,0 -0.07,0.01 -0.06,0.01 -0.07,0.01 -0.06,0.01 -0.07,0.02 -0.06,0.01 -0.07,0.02 -0.06,0.01 -0.06,0.02 -0.06,0.02 -0.06,0.02 -0.05,0.03 -0.06,0.02 -0.06,0.03 -0.05,0.03 -0.05,0.03 -0.06,0.03 -0.05,0.03 -0.05,0.03 -0.05,0.03 -0.05,0.04 -0.05,0.04 -0.04,0.04 -0.05,0.04 -0.04,0.04 -0.05,0.04 -0.04,0.04 c -0.46,0.48 -0.68,1.15 -0.68,2 -0.01,0.86 0.21,1.54 0.63,2.05 0.42,0.5 0.99,0.76 1.7,0.76 0.67,0 1.2,-0.22 1.58,-0.66 0.39,-0.44 0.59,-1.01 0.59,-1.73 l 0,-0.51 -3.67,0 0.02,0.66 2.78,0 c 0,0.5 -0.11,0.89 -0.34,1.16 -0.23,0.27 -0.55,0.4 -0.97,0.4 l 0,0 c -0.43,0 -0.76,-0.14 -1.02,-0.41 -0.25,-0.28 -0.4,-0.66 -0.45,-1.15 l -0.02,-0.66 c 0.02,-0.63 0.18,-1.1 0.48,-1.43 0.3,-0.33 0.72,-0.49 1.26,-0.49 0.57,0 1.14,0.12 1.7,0.36 l 0,-0.72 c -0.29,-0.12 -0.56,-0.21 -0.81,-0.26 -0.25,-0.06 -0.56,-0.09 -0.92,-0.09 z" /></g>  <g style="font-style:normal;font-variant:normal;font-weight:normal;font-stretch:normal;letter-spacing:normal;word-spacing:normal;text-anchor:start;fill:none;fill-opacity:1;fill-rule:evenodd;stroke:#000000;stroke-linecap:butt;stroke-linejoin:miter;stroke-miterlimit:10.43299961;stroke-dasharray:none;stroke-dashoffset:0;stroke-opacity:1" id="g5782" transform="matrix(2,0,0,-2,-152.1186,1906.5255)" xml:space="preserve" stroke-miterlimit="10.433" font-style="normal" font-variant="normal" font-weight="normal" font-stretch="normal" font-size-adjust="none" letter-spacing="normal" word-spacing="normal" ns0:text="two-second rule" ns0:preamble="/Users/prmb/CMEP/underground-inkscape-preamble.tex"><path style="fill:#000000;stroke-width:0" d="m 226.01,477.81 0.03,0 0.03,0 0.02,0 0.03,0 0.03,0 0.02,0.01 0.03,0 0.02,0 0.06,0 0.05,0.01 0.05,0.01 0.05,0 c 0.13,0.02 0.24,0.05 0.31,0.07 l 0,-0.62 c -0.09,-0.04 -0.21,-0.08 -0.38,-0.1 -0.18,-0.03 -0.33,-0.05 -0.46,-0.05 -1.04,0 -1.55,0.55 -1.55,1.64 l 0,3.17 -0.77,0 0,0.38 0.77,0.34 0.34,1.13 0.47,0 0,-1.22 1.55,0 0,-0.63 -1.55,0 0,-3.14 c -0.01,-0.32 0.07,-0.57 0.22,-0.74 0.16,-0.17 0.37,-0.26 0.63,-0.26 z" id="path5784" /><path style="fill:#000000;stroke-width:0" d="m 232.16,477.23 -0.97,3.14 c -0.07,0.19 -0.18,0.62 -0.35,1.3 l -0.04,0 c -0.13,-0.57 -0.24,-1 -0.34,-1.31 l -1.01,-3.13 -0.93,0 -1.46,5.35 0.85,0 c 0.34,-1.35 0.6,-2.37 0.79,-3.07 0.17,-0.7 0.28,-1.17 0.3,-1.42 l 0.04,0 c 0.04,0.19 0.1,0.43 0.18,0.72 0.07,0.3 0.14,0.53 0.2,0.7 l 0.98,3.07 0.88,0 0.95,-3.07 c 0.18,-0.56 0.31,-1.03 0.37,-1.41 l 0.04,0 c 0.01,0.12 0.05,0.3 0.11,0.54 0.05,0.25 0.39,1.56 1.01,3.94 l 0.84,0 -1.48,-5.35 z" id="path5786" /><path style="fill:#000000;stroke-width:0" d="m 240.16,479.91 0,-0.08 0,-0.08 0,-0.08 -0.01,-0.08 0,-0.07 -0.01,-0.08 -0.01,-0.07 -0.01,-0.08 -0.01,-0.07 -0.01,-0.07 -0.01,-0.07 -0.02,-0.07 -0.01,-0.06 -0.02,-0.07 -0.02,-0.07 -0.02,-0.06 -0.02,-0.06 -0.02,-0.06 -0.03,-0.07 -0.02,-0.06 -0.03,-0.05 -0.03,-0.06 -0.03,-0.06 -0.03,-0.05 -0.03,-0.06 -0.03,-0.05 -0.03,-0.05 -0.04,-0.05 -0.04,-0.05 -0.03,-0.05 -0.04,-0.05 -0.04,-0.04 c -0.44,-0.49 -1.05,-0.74 -1.82,-0.74 l 0.02,0.68 c 0.53,0 0.93,0.18 1.21,0.53 0.27,0.36 0.41,0.88 0.41,1.56 0,0.67 -0.14,1.19 -0.41,1.54 -0.28,0.35 -0.68,0.53 -1.22,0.53 -0.53,0 -0.93,-0.17 -1.2,-0.52 -0.27,-0.35 -0.4,-0.86 -0.4,-1.55 l 0,0 c 0,-0.68 0.13,-1.2 0.41,-1.55 0.27,-0.36 0.67,-0.54 1.2,-0.54 l -0.02,-0.68 c -0.48,0 -0.9,0.12 -1.27,0.34 -0.37,0.22 -0.66,0.54 -0.86,0.96 -0.2,0.42 -0.3,0.91 -0.3,1.47 0,0.87 0.22,1.54 0.65,2.03 0.43,0.48 1.04,0.73 1.81,0.73 0.75,0 1.35,-0.25 1.79,-0.75 0.43,-0.5 0.65,-1.16 0.65,-2.01 z" id="path5788" /><polygon style="fill:#000000;stroke-width:0" points="241.12,480.28 243.5,480.28 243.5,479.54 241.12,479.54 " id="polygon5790" /><path style="fill:#000000;stroke-width:0" d="m 248.21,478.7 0,-0.05 0,-0.05 -0.01,-0.04 0,-0.05 -0.01,-0.04 0,-0.04 -0.01,-0.04 -0.01,-0.05 -0.01,-0.04 -0.01,-0.04 -0.01,-0.04 -0.01,-0.03 -0.01,-0.04 -0.02,-0.04 -0.01,-0.04 -0.02,-0.03 -0.02,-0.04 -0.02,-0.03 -0.02,-0.04 -0.02,-0.03 -0.02,-0.03 -0.02,-0.04 -0.03,-0.03 -0.02,-0.03 -0.03,-0.03 -0.03,-0.03 -0.03,-0.03 -0.03,-0.02 -0.03,-0.03 -0.03,-0.03 -0.03,-0.03 -0.04,-0.02 c -0.37,-0.27 -0.88,-0.41 -1.55,-0.41 -0.71,0 -1.25,0.12 -1.65,0.34 l 0,0.74 c 0.25,-0.13 0.53,-0.23 0.82,-0.3 0.3,-0.07 0.58,-0.11 0.85,-0.11 0.42,0 0.74,0.07 0.97,0.2 0.23,0.14 0.34,0.34 0.34,0.62 0,0.2 -0.09,0.38 -0.27,0.53 -0.18,0.14 -0.53,0.32 -1.05,0.52 -0.5,0.19 -0.85,0.35 -1.06,0.49 -0.2,0.13 -0.36,0.29 -0.46,0.47 -0.1,0.17 -0.15,0.38 -0.15,0.62 -0.01,0.43 0.17,0.78 0.52,1.03 0.36,0.25 0.84,0.38 1.46,0.38 0.57,0 1.13,-0.12 1.68,-0.35 l -0.29,-0.66 c -0.53,0.22 -1.02,0.33 -1.45,0.33 -0.38,0 -0.67,-0.06 -0.86,-0.18 -0.2,-0.12 -0.29,-0.29 -0.29,-0.49 0,-0.15 0.03,-0.27 0.1,-0.37 0.07,-0.1 0.19,-0.2 0.36,-0.29 0.16,-0.09 0.47,-0.22 0.93,-0.39 0.63,-0.23 1.05,-0.46 1.28,-0.69 0.22,-0.24 0.33,-0.53 0.33,-0.88 z" id="path5792" /><path style="fill:#000000;stroke-width:0" d="m 251.78,477.14 -0.08,0.01 -0.07,0 -0.07,0 -0.07,0.01 -0.07,0 -0.07,0.01 -0.07,0.01 -0.06,0.01 -0.07,0.01 -0.06,0.02 -0.07,0.01 -0.06,0.02 -0.06,0.01 -0.06,0.02 -0.06,0.02 -0.06,0.02 -0.06,0.03 -0.05,0.02 -0.06,0.03 -0.05,0.03 -0.06,0.03 -0.05,0.03 -0.05,0.03 -0.05,0.03 -0.05,0.03 -0.05,0.04 -0.05,0.04 -0.05,0.04 -0.04,0.04 -0.05,0.04 -0.04,0.04 -0.05,0.04 c -0.45,0.48 -0.68,1.15 -0.68,2 0,0.86 0.21,1.54 0.64,2.05 0.42,0.5 0.99,0.76 1.7,0.76 0.66,0 1.19,-0.22 1.58,-0.66 0.39,-0.44 0.58,-1.01 0.58,-1.73 l 0,-0.51 -3.66,0 0.02,0.66 2.78,0 c 0,0.5 -0.11,0.89 -0.34,1.16 -0.23,0.27 -0.55,0.4 -0.97,0.4 l 0,0 c -0.43,0 -0.77,-0.14 -1.02,-0.41 -0.26,-0.28 -0.41,-0.66 -0.45,-1.15 l -0.02,-0.66 c 0.02,-0.63 0.17,-1.1 0.47,-1.43 0.3,-0.33 0.72,-0.49 1.27,-0.49 0.57,0 1.14,0.12 1.7,0.36 l 0,-0.72 c -0.29,-0.12 -0.56,-0.21 -0.81,-0.26 -0.26,-0.06 -0.56,-0.09 -0.92,-0.09 z" id="path5794" /><path style="fill:#000000;stroke-width:0" d="m 257.25,477.14 -0.07,0.01 -0.07,0 -0.07,0 -0.07,0.01 -0.07,0 -0.07,0.01 -0.06,0.01 -0.07,0.01 -0.06,0.01 -0.06,0.01 -0.06,0.02 -0.06,0.02 -0.06,0.01 -0.06,0.02 -0.06,0.02 -0.06,0.02 -0.05,0.03 -0.06,0.02 -0.05,0.03 -0.05,0.02 -0.05,0.03 -0.05,0.03 -0.05,0.03 -0.05,0.04 -0.05,0.03 -0.05,0.04 -0.04,0.03 -0.05,0.04 -0.04,0.04 -0.04,0.04 -0.04,0.04 -0.04,0.05 c -0.43,0.47 -0.64,1.14 -0.64,2.01 0,0.89 0.22,1.58 0.65,2.07 0.43,0.48 1.04,0.73 1.83,0.73 0.26,0 0.52,-0.03 0.77,-0.09 0.26,-0.05 0.46,-0.12 0.61,-0.19 l -0.25,-0.69 c -0.18,0.07 -0.37,0.13 -0.58,0.18 -0.22,0.05 -0.4,0.07 -0.56,0.07 -1.09,0 -1.63,-0.69 -1.63,-2.07 0,-0.65 0.13,-1.15 0.4,-1.5 0.26,-0.35 0.65,-0.53 1.17,-0.53 0.44,0 0.9,0.1 1.37,0.29 l 0,-0.72 c -0.36,-0.18 -0.81,-0.28 -1.35,-0.28 z" id="path5796" /><path style="fill:#000000;stroke-width:0" d="m 264.47,479.91 0,-0.08 0,-0.08 0,-0.08 -0.01,-0.08 0,-0.07 -0.01,-0.08 -0.01,-0.07 -0.01,-0.08 -0.01,-0.07 -0.01,-0.07 -0.02,-0.07 -0.01,-0.07 -0.02,-0.06 -0.01,-0.07 -0.02,-0.07 -0.02,-0.06 -0.02,-0.06 -0.03,-0.06 -0.02,-0.07 -0.02,-0.06 -0.03,-0.05 -0.03,-0.06 -0.03,-0.06 -0.03,-0.05 -0.03,-0.06 -0.03,-0.05 -0.03,-0.05 -0.04,-0.05 -0.04,-0.05 -0.03,-0.05 -0.04,-0.05 -0.04,-0.04 c -0.44,-0.49 -1.05,-0.74 -1.82,-0.74 l 0.02,0.68 c 0.53,0 0.93,0.18 1.21,0.53 0.27,0.36 0.41,0.88 0.41,1.56 0,0.67 -0.14,1.19 -0.41,1.54 -0.28,0.35 -0.68,0.53 -1.22,0.53 -0.53,0 -0.93,-0.17 -1.2,-0.52 -0.27,-0.35 -0.41,-0.86 -0.41,-1.55 l 0,0 c 0,-0.68 0.14,-1.2 0.41,-1.55 0.27,-0.36 0.68,-0.54 1.21,-0.54 L 262,477.14 c -0.48,0 -0.9,0.12 -1.27,0.34 -0.37,0.22 -0.66,0.54 -0.86,0.96 -0.2,0.42 -0.3,0.91 -0.3,1.47 0,0.87 0.22,1.54 0.65,2.03 0.43,0.48 1.04,0.73 1.81,0.73 0.75,0 1.34,-0.25 1.78,-0.75 0.44,-0.5 0.66,-1.16 0.66,-2.01 z" id="path5798" /><path style="fill:#000000;stroke-width:0" d="m 269.53,477.23 0,3.45 c 0,0.44 -0.1,0.76 -0.3,0.98 -0.19,0.21 -0.5,0.32 -0.93,0.32 -0.56,0 -0.96,-0.15 -1.22,-0.45 -0.26,-0.3 -0.39,-0.8 -0.39,-1.5 l 0,-2.8 -0.81,0 0,5.35 0.66,0 0.13,-0.74 0.04,0 c 0.16,0.26 0.4,0.46 0.69,0.61 0.3,0.14 0.64,0.22 1,0.22 0.64,0 1.13,-0.16 1.45,-0.47 0.32,-0.31 0.49,-0.8 0.49,-1.49 l 0,-3.48 z" id="path5800" /><path style="fill:#000000;stroke-width:0" d="m 275.63,477.96 -0.04,0 -0.37,0.31 c 0.24,0.3 0.37,0.78 0.37,1.45 l 0,0.17 c 0,0.75 -0.13,1.29 -0.38,1.62 -0.25,0.32 -0.65,0.48 -1.2,0.48 -0.48,0 -0.84,-0.19 -1.09,-0.55 -0.26,-0.37 -0.38,-0.89 -0.38,-1.56 0,-0.68 0.12,-1.19 0.37,-1.54 0.25,-0.35 0.62,-0.52 1.11,-0.52 l 0,0 c 0.55,0 0.95,0.15 1.2,0.45 l 0.37,-0.31 c -0.38,-0.54 -0.93,-0.82 -1.68,-0.82 -0.7,0 -1.24,0.24 -1.63,0.72 -0.39,0.47 -0.58,1.15 -0.58,2.03 0,0.88 0.19,1.56 0.58,2.05 0.39,0.48 0.94,0.73 1.63,0.73 0.73,0 1.28,-0.27 1.67,-0.79 l 0.06,0 -0.03,0.38 -0.02,0.38 0,2.17 0.81,0 0,-7.58 -0.66,0 z" id="path5802" /><path style="fill:#000000;stroke-width:0" d="m 283.11,482.67 0.04,0 0.04,-0.01 0.05,0 0.04,0 0.04,0 0.04,0 0.04,-0.01 0.04,0 0.04,0 0.04,-0.01 0.04,0 0.04,-0.01 0.03,0 0.04,-0.01 0.04,-0.01 0.03,0 -0.11,-0.75 c -0.22,0.05 -0.41,0.07 -0.58,0.07 -0.43,0 -0.8,-0.17 -1.1,-0.52 -0.31,-0.36 -0.46,-0.79 -0.46,-1.31 l 0,-2.87 -0.81,0 0,5.35 0.67,0 0.09,-1 0.04,0 c 0.19,0.35 0.43,0.62 0.71,0.8 0.28,0.19 0.58,0.29 0.92,0.29 z" id="path5804" /><path style="fill:#000000;stroke-width:0" d="m 285.51,482.58 0,-3.46 c 0,-0.44 0.1,-0.76 0.29,-0.98 0.2,-0.21 0.51,-0.32 0.93,-0.32 0.56,0 0.97,0.15 1.23,0.46 0.25,0.3 0.38,0.8 0.38,1.49 l 0,2.81 0.81,0 0,-5.35 -0.67,0 -0.11,0.73 -0.04,0 c -0.17,-0.27 -0.4,-0.47 -0.69,-0.6 -0.3,-0.15 -0.63,-0.22 -1.01,-0.22 -0.65,0 -1.13,0.16 -1.46,0.47 -0.32,0.3 -0.48,0.8 -0.48,1.48 l 0,3.49 z" id="path5806" /><polygon style="fill:#000000;stroke-width:0" points="290.86,477.23 290.86,484.81 291.67,484.81 291.67,477.23 " id="polygon5808" /><path style="fill:#000000;stroke-width:0" d="m 295.63,477.14 -0.07,0.01 -0.08,0 -0.07,0 -0.07,0.01 -0.07,0 -0.07,0.01 -0.06,0.01 -0.07,0.01 -0.07,0.01 -0.06,0.02 -0.06,0.01 -0.07,0.02 -0.06,0.01 -0.06,0.02 -0.06,0.02 -0.06,0.02 -0.05,0.03 -0.06,0.02 -0.06,0.03 -0.05,0.03 -0.06,0.03 -0.05,0.03 -0.05,0.03 -0.05,0.03 -0.05,0.03 -0.05,0.04 -0.05,0.04 -0.04,0.04 -0.05,0.04 -0.05,0.04 -0.04,0.04 -0.04,0.04 c -0.46,0.48 -0.69,1.15 -0.69,2 0,0.86 0.22,1.54 0.64,2.05 0.42,0.5 0.99,0.76 1.7,0.76 0.66,0 1.19,-0.22 1.58,-0.66 0.39,-0.44 0.59,-1.01 0.59,-1.73 l 0,-0.51 -3.67,0 0.02,0.66 2.78,0 c 0,0.5 -0.11,0.89 -0.34,1.16 -0.23,0.27 -0.55,0.4 -0.97,0.4 l 0,0 c -0.43,0 -0.77,-0.14 -1.02,-0.41 -0.26,-0.28 -0.4,-0.66 -0.45,-1.15 l -0.02,-0.66 c 0.02,-0.63 0.18,-1.1 0.47,-1.43 0.3,-0.33 0.73,-0.49 1.27,-0.49 0.57,0 1.14,0.12 1.7,0.36 l 0,-0.72 c -0.29,-0.12 -0.56,-0.21 -0.81,-0.26 -0.26,-0.06 -0.56,-0.09 -0.92,-0.09 z" id="path5810" /></g></svg>