<?xml version='1.0' ?><svg xmlns:ns0="http://www.iki.fi/pav/software/textext/" xmlns:dc="http://purl.org/dc/elements/1.1/" xmlns:cc="http://creativecommons.org/ns#" xmlns:rdf="http://www.w3.org/1999/02/22-rdf-syntax-ns#" xmlns:svg="http://www.w3.org/2000/svg" xmlns="http://www.w3.org/2000/svg" id="svg2" version="1.1" width="573.05591" height="177.49572" viewBox="30.93968469031312 418.05800338923336 1166.1111960484172 361.18595538553114" preserveAspectRatio="none">
  <metadata id="metadata353">
    <rdf:RDF>
      <cc:Work rdf:about="">
        <dc:format>image/svg+xml</dc:format>
        <dc:type rdf:resource="http://purl.org/dc/dcmitype/StillImage" />
        <dc:title />
      </cc:Work>
    </rdf:RDF>
  </metadata>
  <defs id="defs351">
    <clipPath id="clip1-0">
      <path d="m 0,0 0,439 758,0 0,-439 z" id="path4824" />
    </clipPath>
    <clipPath id="clip2-3">
      <path d="m 0,0 0,439 758,0 0,-439 z" id="path4833" />
    </clipPath>
    <clipPath id="clip3-4">
      <path d="m 0,0 0,439 758,0 0,-439 z" id="path4842" />
    </clipPath>
    <clipPath id="clip4-4">
      <path d="m 0,0 0,439 758,0 0,-439 z" id="path4851" />
    </clipPath>
    <clipPath id="clip6-2">
      <path d="m 0,0 0,439 758,0 0,-439 z" id="path4869" />
    </clipPath>
    <clipPath id="clip9-8">
      <path d="m 0,0 0,439 758,0 0,-439 z" id="path4896" />
    </clipPath>
    <clipPath id="clip10-0">
      <path d="m 0,0 0,439 758,0 0,-439 z" id="path4905" />
    </clipPath>
    <clipPath id="clip12-6">
      <path d="m 0,0 0,439 758,0 0,-439 z" id="path4923" />
    </clipPath>
    <clipPath id="clip14-0">
      <path d="m 0,0 0,439 758,0 0,-439 z" id="path4941" />
    </clipPath>
    <clipPath id="clip15-8">
      <path d="m 0,0 0,439 758,0 0,-439 z" id="path4950" />
    </clipPath>
    <clipPath id="clip17-2">
      <path d="m 0,0 0,439 758,0 0,-439 z" id="path4968" />
    </clipPath>
    <clipPath id="clip18-3">
      <path d="m 0,0 0,439 758,0 0,-439 z" id="path4977" />
    </clipPath>
    <clipPath id="clip23-8">
      <path d="m 0,0 0,439 758,0 0,-439 z" id="path5022" />
    </clipPath>
    <clipPath id="clip26-5">
      <path d="m 0,0 0,439 758,0 0,-439 z" id="path5049" />
    </clipPath>
    <clipPath id="clip28-0">
      <path d="m 0,0 0,439 758,0 0,-439 z" id="path5067" />
    </clipPath>
    <clipPath clipPathUnits="userSpaceOnUse" id="clipPath3578">
      <rect style="fill:#000000;fill-opacity:0;fill-rule:nonzero;stroke:#2b83ba;stroke-width:3.36436725;stroke-linecap:square;stroke-miterlimit:4;stroke-opacity:1;stroke-dasharray:none;stroke-dashoffset:0" id="rect3580" width="723.51984" height="452.19989" x="109.32832" y="-58.404488" ry="2.5912294" />
    </clipPath>
    <clipPath clipPathUnits="userSpaceOnUse" id="clipPath3586">
      <rect style="fill:#000000;fill-opacity:0;fill-rule:nonzero;stroke:#2b83ba;stroke-width:3.36436725;stroke-linecap:square;stroke-miterlimit:4;stroke-opacity:1;stroke-dasharray:none;stroke-dashoffset:0" id="rect3588" width="723.51984" height="452.19989" x="109.32832" y="-58.404488" ry="2.5912294" />
    </clipPath>
    <clipPath clipPathUnits="userSpaceOnUse" id="clipPath3590">
      <rect style="fill:#000000;fill-opacity:0;fill-rule:nonzero;stroke:#2b83ba;stroke-width:3.36436725;stroke-linecap:square;stroke-miterlimit:4;stroke-opacity:1;stroke-dasharray:none;stroke-dashoffset:0" id="rect3592" width="723.51984" height="452.19989" x="109.32833" y="337.48563" ry="2.5912294" />
    </clipPath>
  </defs>
  <g style="stroke-width:1;stroke-linecap:square;stroke-linejoin:miter;stroke-miterlimit:10;stroke-dasharray:none;stroke-dashoffset:0" id="misc" transform="matrix(0.9,0,0,0.9,410.32938,128.28423)" clip-path="url(#clipPath3590)" />
  <g style="stroke-width:1;stroke-linecap:square;stroke-linejoin:miter;stroke-miterlimit:10;stroke-dasharray:none;stroke-dashoffset:0" clip-path="url(#clipPath3586)" id="g4880" transform="matrix(0.9,0,0,0.9,410.32939,484.58534)">
    <g style="fill:none;stroke:#000000;stroke-width:2;stroke-linecap:butt;stroke-opacity:1" id="g4882">
      <path d="m -22.699,225 0,3" id="path4884" />
    </g>
  </g>
  <g style="stroke-width:1;stroke-linecap:square;stroke-linejoin:miter;stroke-miterlimit:10;stroke-dasharray:none;stroke-dashoffset:0" id="misc-5" transform="matrix(0.9,0,0,0.9,410.32939,484.58534)" clip-path="url(#clipPath3578)" />
  <g id="g8735">
    <g transform="matrix(0.68553808,0,0,0.68553808,144.61618,478.29275)" id="g4826" clip-path="url(#clip1-0)" style="stroke-width:1;stroke-linecap:square;stroke-linejoin:miter;stroke-miterlimit:10;stroke-dasharray:none;stroke-dashoffset:0">
      <g id="g4828" style="fill:none;stroke:#000000;stroke-width:2.88824224;stroke-linecap:butt;stroke-opacity:1">
        <path id="path4830" d="m 370,3 0,436" style="stroke-width:2.88824224" />
      </g>
    </g>
    <g transform="matrix(0.99,0,0,0.99,31.965269,464.91562)" id="g4835" clip-path="url(#clip2-3)" style="stroke-width:1;stroke-linecap:square;stroke-linejoin:miter;stroke-miterlimit:10;stroke-dasharray:none;stroke-dashoffset:0">
      <g id="g4837" style="fill:#000000;fill-opacity:1;fill-rule:evenodd;stroke:none">
        <path id="path4839" d="m 370,2 -6,24 12,0" />
      </g>
    </g>
    <g transform="matrix(0.99,0,0,0.99,31.965269,420.14782)" id="g4844" clip-path="url(#clip3-4)" style="stroke-width:1;stroke-linecap:square;stroke-linejoin:miter;stroke-miterlimit:10;stroke-dasharray:none;stroke-dashoffset:0">
      <g id="g4846" style="fill:none;stroke:#000000;stroke-width:2;stroke-linecap:butt;stroke-opacity:1">
        <path id="path4848" d="m 0,225 755,0" />
      </g>
    </g>
    <g transform="matrix(0.99,0,0,0.99,36.035071,420.14782)" id="g4853" clip-path="url(#clip4-4)" style="stroke-width:1;stroke-linecap:square;stroke-linejoin:miter;stroke-miterlimit:10;stroke-dasharray:none;stroke-dashoffset:0">
      <g id="g4855" style="fill:#000000;fill-opacity:1;fill-rule:evenodd;stroke:none">
        <path id="path4857" d="m 756,225 -24,-6 0,12" />
      </g>
    </g>
    <g transform="matrix(0.99,0,0,0.99,31.965269,420.14782)" id="g4871" clip-path="url(#clip6-2)" style="stroke-width:1;stroke-linecap:square;stroke-linejoin:miter;stroke-miterlimit:10;stroke-dasharray:none;stroke-dashoffset:0">
      <g id="g4873" style="fill:none;stroke:#000000;stroke-width:2;stroke-linecap:butt;stroke-opacity:1">
        <path id="path4875" d="m 55.841,225 0,3" />
      </g>
    </g>
    <g transform="matrix(0.99,0,0,0.99,31.965269,420.14782)" id="g4898" clip-path="url(#clip9-8)" style="stroke-width:1;stroke-linecap:square;stroke-linejoin:miter;stroke-miterlimit:10;stroke-dasharray:none;stroke-dashoffset:0">
      <g id="g4900" style="fill:none;stroke:#000000;stroke-width:2;stroke-linecap:butt;stroke-opacity:1">
        <path id="path4902" d="m 212.92,225 0,3" />
      </g>
    </g>
    <g transform="matrix(0.99,0,0,0.99,31.965269,420.14782)" id="g4907" clip-path="url(#clip10-0)" style="stroke-width:1;stroke-linecap:square;stroke-linejoin:miter;stroke-miterlimit:10;stroke-dasharray:none;stroke-dashoffset:0">
      <g id="g4909" style="fill:none;stroke:#000000;stroke-width:2;stroke-linecap:butt;stroke-opacity:1">
        <path id="path4911" d="m 134.38,225 0,3" />
      </g>
    </g>
    <g transform="matrix(0.99,0,0,0.99,31.965269,420.14782)" id="g4925" clip-path="url(#clip12-6)" style="stroke-width:1;stroke-linecap:square;stroke-linejoin:miter;stroke-miterlimit:10;stroke-dasharray:none;stroke-dashoffset:0">
      <g id="g4927" style="fill:none;stroke:#000000;stroke-width:2;stroke-linecap:butt;stroke-opacity:1">
        <path id="path4929" d="m 291.46,225 0,3" />
      </g>
    </g>
    <g transform="matrix(0.99,0,0,0.99,31.965269,420.14782)" id="g4943" clip-path="url(#clip14-0)" style="stroke-width:1;stroke-linecap:square;stroke-linejoin:miter;stroke-miterlimit:10;stroke-dasharray:none;stroke-dashoffset:0">
      <g id="g4945" style="fill:none;stroke:#000000;stroke-width:2;stroke-linecap:butt;stroke-opacity:1">
        <path id="path4947" d="m 527.08,225 0,3" />
      </g>
    </g>
    <g transform="matrix(0.99,0,0,0.99,31.965269,420.14782)" id="g4952" clip-path="url(#clip15-8)" style="stroke-width:1;stroke-linecap:square;stroke-linejoin:miter;stroke-miterlimit:10;stroke-dasharray:none;stroke-dashoffset:0">
      <g id="g4954" style="fill:none;stroke:#000000;stroke-width:2;stroke-linecap:butt;stroke-opacity:1">
        <path id="path4956" d="m 448.54,225 0,3" />
      </g>
    </g>
    <g transform="matrix(0.99,0,0,0.99,31.965269,420.14782)" id="g4970" clip-path="url(#clip17-2)" style="stroke-width:1;stroke-linecap:square;stroke-linejoin:miter;stroke-miterlimit:10;stroke-dasharray:none;stroke-dashoffset:0">
      <g id="g4972" style="fill:none;stroke:#000000;stroke-width:2;stroke-linecap:butt;stroke-opacity:1">
        <path id="path4974" d="m 684.16,225 0,3" />
      </g>
    </g>
    <g transform="matrix(0.99,0,0,0.99,31.965269,420.14782)" id="g4979" clip-path="url(#clip18-3)" style="stroke-width:1;stroke-linecap:square;stroke-linejoin:miter;stroke-miterlimit:10;stroke-dasharray:none;stroke-dashoffset:0">
      <g id="g4981" style="fill:none;stroke:#000000;stroke-width:2;stroke-linecap:butt;stroke-opacity:1">
        <path id="path4983" d="m 605.62,225 0,3" />
      </g>
    </g>
    <g transform="matrix(0.99,0,0,0.99,31.965269,420.14782)" id="g5024" clip-path="url(#clip23-8)" style="stroke-width:1;stroke-linecap:square;stroke-linejoin:miter;stroke-miterlimit:10;stroke-dasharray:none;stroke-dashoffset:0">
      <g id="g5026" style="fill:none;stroke:#000000;stroke-width:2;stroke-linecap:butt;stroke-opacity:1">
        <path id="path5028" d="m 367,310.41 3,0" />
      </g>
    </g>
    <g transform="matrix(0.99,0,0,0.99,31.965269,420.14782)" id="g5051" clip-path="url(#clip26-5)" style="stroke-width:1;stroke-linecap:square;stroke-linejoin:miter;stroke-miterlimit:10;stroke-dasharray:none;stroke-dashoffset:0">
      <g id="g5053" style="fill:none;stroke:#000000;stroke-width:2;stroke-linecap:butt;stroke-opacity:1">
        <path id="path5055" d="m 367,139.59 3,0" />
      </g>
    </g>
    <path style="fill:none;stroke:#000000;stroke-width:2.03489947;stroke-linecap:round;stroke-linejoin:round;stroke-miterlimit:10;stroke-dasharray:6.1046984,6.1046984;stroke-dashoffset:0;stroke-opacity:1" d="m 31.965269,605.81242 5.862681,-8.712 5.862879,-8.0784 5.86278,-7.326 5.86278,-6.4647 5.86179,-5.5143 5.86278,-4.4946 5.86278,-3.4056 5.86278,-2.2671 2.93139,-0.693 2.93139,-0.4059 5.86278,0.0792 2.93139,0.4851 2.93139,0.7821 5.861791,2.4354 5.86278,3.5541 5.86278,4.6431 5.86278,5.6529 5.86278,6.5934 5.8608,7.4349 5.8608,8.1774 5.8707,8.8011 5.8608,9.2961 5.8608,9.6822 2.9304,4.9302 2.9304,4.9797 2.9304,4.9995 2.9304,4.9995 2.9304,4.9995 2.9304,4.9698 5.8707,9.7812 5.8608,9.4545 5.8608,9.009 5.8608,8.4348 5.8608,7.7319 5.8707,6.9201 5.8608,6.0291 5.8608,5.0391 5.8608,3.9798 5.8608,2.871 5.8707,1.7226 2.9304,0.4158 2.9304,0.1188 5.8608,-0.6435 2.9304,-0.7722 2.9304,-1.0494 5.8608,-2.97 5.8707,-4.0887 5.8608,-5.1282 5.8608,-6.1083 5.8608,-7.0092 5.8608,-7.8012 5.8608,-8.4843 5.8707,-9.0486 5.8608,-9.4941 5.8608,-9.8109 2.9304,-4.9698 2.9304,-4.9995 2.9304,-5.0094 2.9304,-4.9896 5.8707,-9.9 5.8608,-9.6426 5.8608,-9.2664 5.8608,-8.7417 5.8608,-8.118 5.8608,-7.3656 5.8707,-6.5043 5.8608,-5.5737 5.8608,-4.5441 5.8608,-3.4551 5.8608,-2.3265 2.9403,-0.7326 2.9304,-0.4257 2.8116,-0.1386" id="path5084" />
    <path style="fill:none;stroke:#2b83ba;stroke-width:3.49188748;stroke-linecap:round;stroke-linejoin:round;stroke-miterlimit:10;stroke-dasharray:none;stroke-dashoffset:0;stroke-opacity:1" d="m 398.26527,558.34192 3.0492,0.1584 5.8608,1.2078 5.8608,2.3661 5.8608,3.5046 5.8707,4.5936 5.8608,5.6034 5.8608,6.5439 5.8608,7.3953 5.8608,8.1477 5.8707,8.7714 5.8608,9.2763 5.8608,9.6525 2.9304,4.9302 2.9304,4.9698 2.9304,4.9995 2.9304,5.0094 2.9304,4.9995 2.9304,4.9698 5.8707,9.7911 5.8608,9.4842 5.8608,9.0288 5.8608,8.4645 5.8608,7.7715 5.8707,6.9696 5.8608,6.0786 5.8608,5.0886 5.8608,4.0392 5.8608,2.9205 5.8608,1.782 5.8707,0.594" id="path5097" />
    <path style="fill:none;stroke:#000000;stroke-width:2.03489947;stroke-linecap:round;stroke-linejoin:round;stroke-miterlimit:10;stroke-dasharray:6.1046984,6.1046984;stroke-dashoffset:0;stroke-opacity:1" d="m 553.77447,727.45372 5.8311,-0.5841 5.8608,-1.7622 5.8608,-2.9106 5.8608,-4.0293 5.8707,-5.0787 5.8608,-6.0687 5.8608,-6.9597 5.8608,-7.7616 5.8608,-8.4546 5.8707,-9.0288 5.8608,-9.4743 5.8608,-9.7911 2.9304,-4.9698 2.9304,-4.9995 2.9304,-4.9995 2.9304,-4.9995 2.9304,-4.9797 2.9403,-4.9302 5.8608,-9.6525 5.8608,-9.2862 5.8608,-8.7813 5.8608,-8.1477 5.8608,-7.4052 5.8707,-6.5538 5.8608,-5.6232 5.8608,-4.5936 5.8608,-3.5145 5.8608,-2.3859 2.9304,-0.7524 2.9403,-0.4653 5.8608,-0.0396 2.9304,0.4257 2.9304,0.7227 5.8608,2.3166 5.8608,3.4452 5.8608,4.5342 5.8707,5.5539 5.8608,6.5043 5.8608,7.3557 5.8608,8.0982 5.8608,8.7417 5.8707,9.2565 5.8608,9.6426 5.8608,9.8901" id="path5110" />
    <g style="font-style:normal;font-variant:normal;font-weight:normal;font-stretch:normal;letter-spacing:normal;word-spacing:normal;text-anchor:start;fill:none;fill-opacity:1;fill-rule:evenodd;stroke:#000000;stroke-width:1.66666877;stroke-linecap:butt;stroke-linejoin:miter;stroke-miterlimit:10.43299961;stroke-dasharray:none;stroke-dashoffset:0;stroke-opacity:1" id="g6098" transform="matrix(1.7999979,0,0,-1.7999977,358.318,1524.8882)" xml:space="preserve" stroke-miterlimit="10.433" font-style="normal" font-variant="normal" font-weight="normal" font-stretch="normal" font-size-adjust="none" letter-spacing="normal" word-spacing="normal" ns0:text="$x$" ns0:preamble="/Users/prmb/CMEP/underground-inkscape-preamble.tex"><path style="fill:#000000;stroke-width:0" d="m 227.03,480.64 -0.23,0.64 c -0.15,0.39 -0.37,0.88 -0.89,1.16 l -1.56,-0.39 0.04,-0.21 c 0.12,0.05 0.29,0.07 0.45,0.07 0.65,0 0.95,-0.48 1.15,-1.05 l 0.39,-1.09 -0.76,-1.19 c -0.38,-0.58 -0.69,-0.7 -0.83,-0.7 -0.3,0 -0.25,0.24 -0.55,0.24 -0.3,0 -0.45,-0.25 -0.45,-0.44 0,-0.26 0.19,-0.55 0.61,-0.55 0.66,0 1,0.51 1.38,1.08 l 0.74,1.16 0.48,-1.33 c 0.15,-0.43 0.38,-0.91 0.86,-0.91 0.68,0 1.21,1.13 1.36,1.31 l -0.17,0.12 c -0.25,-0.51 -0.53,-0.68 -0.72,-0.68 -0.53,0 -0.8,1.6 -1.15,2.33 l 0.64,1 c 0.17,0.26 0.3,0.45 0.65,0.45 0.2,0 0.26,-0.1 0.52,-0.1 0.31,0 0.46,0.27 0.46,0.49 0,0.25 -0.2,0.39 -0.57,0.39 -0.6,0 -1.01,-0.52 -1.32,-0.99 z" id="path6100" /></g>    <g ns0:preamble="/Users/prmb/CMEP/underground-inkscape-preamble.tex" ns0:text="$y$" word-spacing="normal" letter-spacing="normal" font-size-adjust="none" font-stretch="normal" font-weight="normal" font-variant="normal" font-style="normal" stroke-miterlimit="10.433" xml:space="preserve" transform="matrix(1.7999978,0,0,-1.7999983,-27.806354,1344.8124)" id="g6102" style="font-style:normal;font-variant:normal;font-weight:normal;font-stretch:normal;letter-spacing:normal;word-spacing:normal;text-anchor:start;fill:none;fill-opacity:1;fill-rule:evenodd;stroke:#000000;stroke-width:1.66666842;stroke-linecap:butt;stroke-linejoin:miter;stroke-miterlimit:10.43299961;stroke-dasharray:none;stroke-dashoffset:0;stroke-opacity:1"><path id="path6104" d="m 226.62,480.86 -0.01,0.08 -0.01,0.08 -0.01,0.07 -0.01,0.07 -0.01,0.07 -0.01,0.07 -0.01,0.06 -0.01,0.06 -0.01,0.06 -0.01,0.05 -0.01,0.06 -0.01,0.05 -0.01,0.05 -0.01,0.04 -0.02,0.05 -0.01,0.05 -0.01,0.04 -0.02,0.04 -0.01,0.04 -0.01,0.04 -0.04,0.08 -0.03,0.07 -0.04,0.08 -0.04,0.07 -0.04,0.07 -0.05,0.07 -1.77,-0.3 0.02,-0.18 c 0.11,0.01 0.3,0.04 0.43,0.04 0.66,0 0.76,-0.71 0.82,-1.24 l 0.45,-3.7 c -0.31,-0.48 -0.98,-1.21 -1.18,-1.21 -0.19,0 -0.16,0.37 -0.67,0.37 -0.16,0 -0.47,-0.13 -0.47,-0.49 0,-0.28 0.22,-0.64 0.66,-0.64 0.8,0 1.57,1.15 2.43,2.24 0.5,0.62 2.41,3.46 2.41,4.38 0,0.46 -0.3,0.73 -0.67,0.73 -0.35,0 -0.56,-0.21 -0.56,-0.47 0,-0.45 0.61,-0.57 0.61,-0.82 0,-0.21 -0.09,-0.45 -0.33,-0.88 -0.26,-0.49 -0.67,-1.19 -1.39,-2.18 z" style="fill:#000000;stroke-width:0" /></g>    <g style="font-style:normal;font-variant:normal;font-weight:normal;font-stretch:normal;letter-spacing:normal;word-spacing:normal;text-anchor:start;fill:none;fill-opacity:1;fill-rule:evenodd;stroke:#000000;stroke-width:1.66666877;stroke-linecap:butt;stroke-linejoin:miter;stroke-miterlimit:10.43299961;stroke-dasharray:none;stroke-dashoffset:0;stroke-opacity:1" ns0:preamble="/Users/prmb/CMEP/underground-inkscape-preamble.tex" ns0:text="$\\pi$" word-spacing="normal" letter-spacing="normal" font-size-adjust="none" font-stretch="normal" font-weight="normal" font-variant="normal" font-style="normal" stroke-miterlimit="10.433" xml:space="preserve" transform="matrix(1.7999979,0,0,-1.7999977,143.80132,1523.1387)" id="g4932"><path id="path4934" d="m 230.14,482.29 -3.33,0 c -1.23,0 -1.99,-0.55 -2.5,-1.49 l 0.18,0 c 0.52,0.63 0.96,0.63 1.65,0.63 l -1.05,-2.44 c -0.16,-0.34 -0.37,-0.68 -0.88,-0.82 -0.31,-0.09 -0.36,-0.39 -0.36,-0.57 0,-0.28 0.29,-0.52 0.6,-0.52 0.14,0 0.32,0.03 0.45,0.13 0.99,0.74 1.35,2.78 1.9,4.22 l 1.11,0 c -0.3,-1 -0.65,-1.82 -0.92,-2.66 -0.08,-0.22 -0.11,-0.46 -0.11,-0.73 0,-0.46 0.2,-0.89 0.67,-0.89 0.83,0 1.45,0.83 1.7,1.68 l -0.19,0 c -0.28,-0.64 -0.61,-0.78 -0.86,-0.78 -0.26,0 -0.45,0.3 -0.45,0.57 0,0.79 0.63,2.3 0.79,2.81 l 1.33,0 z" style="fill:#000000;stroke-width:0" /></g>    <g id="g5523" transform="matrix(1.7999979,0,0,-1.7999977,293.23925,1524.7285)" xml:space="preserve" stroke-miterlimit="10.433" font-style="normal" font-variant="normal" font-weight="normal" font-stretch="normal" font-size-adjust="none" letter-spacing="normal" word-spacing="normal" ns0:text="$2\\pi$" ns0:preamble="/Users/prmb/CMEP/underground-inkscape-preamble.tex" style="font-style:normal;font-variant:normal;font-weight:normal;font-stretch:normal;letter-spacing:normal;word-spacing:normal;text-anchor:start;fill:none;fill-opacity:1;fill-rule:evenodd;stroke:#000000;stroke-width:1.66666877;stroke-linecap:butt;stroke-linejoin:miter;stroke-miterlimit:10.43299961;stroke-dasharray:none;stroke-dashoffset:0;stroke-opacity:1"><path style="fill:#000000;stroke-width:0" d="m 229.03,478.85 -0.17,0.07 c -0.39,-0.66 -0.63,-0.79 -1.13,-0.79 l -2.76,0 1.94,2.08 c 1.06,1.11 1.52,1.99 1.52,2.93 0,1.17 -0.85,2.08 -2.19,2.08 -1.45,0 -2.21,-0.97 -2.45,-2.35 l 0.24,-0.06 c 0.48,1.15 0.89,1.53 1.74,1.53 1,0 1.64,-0.59 1.64,-1.66 0,-1.01 -0.42,-1.9 -1.53,-3.07 l -2.11,-2.23 0,-0.15 4.62,0 z" id="path5525" /><path style="fill:#000000;stroke-width:0" d="m 236.06,482.29 -3.33,0 c -1.22,0 -1.98,-0.55 -2.5,-1.49 l 0.19,0 c 0.52,0.63 0.96,0.63 1.64,0.63 l -1.05,-2.44 c -0.16,-0.34 -0.37,-0.68 -0.88,-0.82 -0.3,-0.09 -0.36,-0.39 -0.36,-0.57 0,-0.28 0.29,-0.52 0.6,-0.52 0.14,0 0.32,0.03 0.45,0.13 0.99,0.74 1.36,2.78 1.9,4.22 l 1.11,0 c -0.29,-1 -0.65,-1.82 -0.92,-2.66 -0.07,-0.22 -0.11,-0.46 -0.11,-0.73 0,-0.46 0.2,-0.89 0.68,-0.89 0.82,0 1.45,0.83 1.7,1.68 l -0.19,0 c -0.29,-0.64 -0.62,-0.78 -0.86,-0.78 -0.26,0 -0.45,0.3 -0.45,0.57 0,0.79 0.62,2.3 0.79,2.81 l 1.32,0 z" id="path5527" /></g>    <g style="font-style:normal;font-variant:normal;font-weight:normal;font-stretch:normal;letter-spacing:normal;word-spacing:normal;text-anchor:start;fill:none;fill-opacity:1;fill-rule:evenodd;stroke:#000000;stroke-width:1.66666877;stroke-linecap:butt;stroke-linejoin:miter;stroke-miterlimit:10.43299961;stroke-dasharray:none;stroke-dashoffset:0;stroke-opacity:1" ns0:preamble="/Users/prmb/CMEP/underground-inkscape-preamble.tex" ns0:text="$-\\pi$" word-spacing="normal" letter-spacing="normal" font-size-adjust="none" font-stretch="normal" font-weight="normal" font-variant="normal" font-style="normal" stroke-miterlimit="10.433" xml:space="preserve" transform="matrix(1.7999979,0,0,-1.7999977,-176.53637,1522.3439)" id="g6118"><polygon id="polygon6120" points="224.19,480.61 224.19,479.83 230.76,479.83 230.76,480.61 " style="fill:#000000;stroke-width:0" /><path id="path6122" d="m 238.25,482.29 -3.33,0 c -1.22,0 -1.98,-0.55 -2.5,-1.49 l 0.19,0 c 0.52,0.63 0.96,0.63 1.64,0.63 l -1.05,-2.44 c -0.15,-0.34 -0.36,-0.68 -0.87,-0.82 -0.31,-0.09 -0.37,-0.39 -0.37,-0.57 0,-0.28 0.3,-0.52 0.6,-0.52 0.15,0 0.32,0.03 0.45,0.13 0.99,0.74 1.36,2.78 1.9,4.22 l 1.11,0 c -0.29,-1 -0.65,-1.82 -0.92,-2.66 -0.07,-0.22 -0.11,-0.46 -0.11,-0.73 0,-0.46 0.21,-0.89 0.68,-0.89 0.82,0 1.45,0.83 1.7,1.68 l -0.19,0 c -0.28,-0.64 -0.61,-0.78 -0.86,-0.78 -0.26,0 -0.45,0.3 -0.45,0.57 0,0.79 0.62,2.3 0.79,2.81 l 1.32,0 z" style="fill:#000000;stroke-width:0" /></g>    <g id="g6710" transform="matrix(1.7999979,0,0,-1.7999977,-336.30777,1525.5234)" xml:space="preserve" stroke-miterlimit="10.433" font-style="normal" font-variant="normal" font-weight="normal" font-stretch="normal" font-size-adjust="none" letter-spacing="normal" word-spacing="normal" ns0:text="$-2\\pi$" ns0:preamble="/Users/prmb/CMEP/underground-inkscape-preamble.tex" style="font-style:normal;font-variant:normal;font-weight:normal;font-stretch:normal;letter-spacing:normal;word-spacing:normal;text-anchor:start;fill:none;fill-opacity:1;fill-rule:evenodd;stroke:#000000;stroke-width:1.66666877;stroke-linecap:butt;stroke-linejoin:miter;stroke-miterlimit:10.43299961;stroke-dasharray:none;stroke-dashoffset:0;stroke-opacity:1"><polygon style="fill:#000000;stroke-width:0" points="230.76,480.61 224.19,480.61 224.19,479.83 230.76,479.83 " id="polygon6712" /><path style="fill:#000000;stroke-width:0" d="m 237.14,478.85 -0.16,0.07 c -0.39,-0.66 -0.64,-0.79 -1.13,-0.79 l -2.77,0 1.95,2.08 c 1.05,1.11 1.51,1.99 1.51,2.93 0,1.17 -0.85,2.08 -2.18,2.08 -1.45,0 -2.21,-0.97 -2.46,-2.35 l 0.25,-0.06 c 0.47,1.15 0.89,1.53 1.73,1.53 1.01,0 1.65,-0.59 1.65,-1.66 0,-1.01 -0.43,-1.9 -1.54,-3.07 l -2.1,-2.23 0,-0.15 4.62,0 z" id="path6714" /><path style="fill:#000000;stroke-width:0" d="m 244.18,482.29 -3.33,0 c -1.23,0 -1.98,-0.55 -2.5,-1.49 l 0.18,0 c 0.52,0.63 0.96,0.63 1.65,0.63 l -1.06,-2.44 c -0.15,-0.34 -0.36,-0.68 -0.87,-0.82 -0.31,-0.09 -0.37,-0.39 -0.37,-0.57 0,-0.28 0.3,-0.52 0.61,-0.52 0.14,0 0.32,0.03 0.45,0.13 0.99,0.74 1.35,2.78 1.9,4.22 l 1.11,0 c -0.3,-1 -0.65,-1.82 -0.93,-2.66 -0.06,-0.22 -0.1,-0.46 -0.1,-0.73 0,-0.46 0.2,-0.89 0.67,-0.89 0.83,0 1.45,0.83 1.7,1.68 l -0.19,0 c -0.28,-0.64 -0.61,-0.78 -0.86,-0.78 -0.26,0 -0.45,0.3 -0.45,0.57 0,0.79 0.63,2.3 0.79,2.81 l 1.33,0 z" id="path6716" /></g>    <g style="font-style:normal;font-variant:normal;font-weight:normal;font-stretch:normal;letter-spacing:normal;word-spacing:normal;text-anchor:start;fill:none;fill-opacity:1;fill-rule:evenodd;stroke:#000000;stroke-width:1.66666877;stroke-linecap:butt;stroke-linejoin:miter;stroke-miterlimit:10.43299961;stroke-dasharray:none;stroke-dashoffset:0;stroke-opacity:1" ns0:preamble="/Users/prmb/CMEP/underground-inkscape-preamble.tex" ns0:text="$0$" word-spacing="normal" letter-spacing="normal" font-size-adjust="none" font-stretch="normal" font-weight="normal" font-variant="normal" font-style="normal" stroke-miterlimit="10.433" xml:space="preserve" transform="matrix(1.7999979,0,0,-1.7999977,-23.124027,1521.549)" id="g7300"><path id="path7302" d="m 229.05,481.13 0,0.23 -0.01,0.22 -0.02,0.21 -0.02,0.21 -0.02,0.21 -0.04,0.2 -0.04,0.19 -0.04,0.19 -0.05,0.18 -0.05,0.18 -0.06,0.17 -0.07,0.17 -0.07,0.16 -0.07,0.15 -0.08,0.14 -0.09,0.14 -0.09,0.13 -0.09,0.13 -0.1,0.11 -0.1,0.11 -0.11,0.1 -0.11,0.1 -0.11,0.08 -0.12,0.08 -0.12,0.07 -0.12,0.06 -0.13,0.05 -0.13,0.04 -0.14,0.03 -0.13,0.03 -0.15,0.01 -0.14,0.01 c -1.9,0 -2.72,-1.93 -2.72,-4.02 0,-1.93 0.66,-4.13 2.67,-4.13 l 0,0.31 c -1.01,0 -1.53,1.34 -1.53,3.74 0,2.4 0.53,3.79 1.51,3.79 1.04,0 1.56,-1.38 1.56,-3.84 l 0,0 c 0,-2.34 -0.53,-3.69 -1.54,-3.69 l 0,-0.31 c 1.93,0 2.67,2.03 2.67,4.06 z" style="fill:#000000;stroke-width:0" /></g>    <g id="g7882" transform="matrix(1.7999979,0,0,-1.7999977,-18.298241,1414.9948)" xml:space="preserve" stroke-miterlimit="10.433" font-style="normal" font-variant="normal" font-weight="normal" font-stretch="normal" font-size-adjust="none" letter-spacing="normal" word-spacing="normal" ns0:text="$1$" ns0:preamble="/Users/prmb/CMEP/underground-inkscape-preamble.tex" style="font-style:normal;font-variant:normal;font-weight:normal;font-stretch:normal;letter-spacing:normal;word-spacing:normal;text-anchor:start;fill:none;fill-opacity:1;fill-rule:evenodd;stroke:#000000;stroke-width:1.66666877;stroke-linecap:butt;stroke-linejoin:miter;stroke-miterlimit:10.43299961;stroke-dasharray:none;stroke-dashoffset:0;stroke-opacity:1"><path style="fill:#000000;stroke-width:0" d="m 228.08,477.23 0,0.18 c -0.88,0 -1.12,0.21 -1.12,0.72 l 0,7.05 -0.1,0.04 -2.12,-1.08 0,-0.16 0.32,0.11 c 0.21,0.09 0.41,0.15 0.53,0.15 0.25,0 0.36,-0.18 0.36,-0.58 l 0,-5.3 c 0,-0.65 -0.25,-0.9 -1.13,-0.95 l 0,-0.18 z" id="path7884" /></g>    <g style="font-style:normal;font-variant:normal;font-weight:normal;font-stretch:normal;letter-spacing:normal;word-spacing:normal;text-anchor:start;fill:none;fill-opacity:1;fill-rule:evenodd;stroke:#000000;stroke-width:1.66666877;stroke-linecap:butt;stroke-linejoin:miter;stroke-miterlimit:10.43299961;stroke-dasharray:none;stroke-dashoffset:0;stroke-opacity:1" ns0:preamble="/Users/prmb/CMEP/underground-inkscape-preamble.tex" ns0:text="$-1$" word-spacing="normal" letter-spacing="normal" font-size-adjust="none" font-stretch="normal" font-weight="normal" font-variant="normal" font-style="normal" stroke-miterlimit="10.433" xml:space="preserve" transform="matrix(1.7999979,0,0,-1.7999977,-33.751653,1593.2099)" id="g8453"><polygon id="polygon8455" points="230.76,480.61 224.19,480.61 224.19,479.83 230.76,479.83 " style="fill:#000000;stroke-width:0" /><path id="path8457" d="m 236.2,477.23 0,0.18 c -0.89,0 -1.12,0.21 -1.12,0.72 l 0,7.05 -0.11,0.04 -2.11,-1.08 0,-0.16 0.32,0.11 c 0.21,0.09 0.41,0.15 0.53,0.15 0.25,0 0.35,-0.18 0.35,-0.58 l 0,-5.3 c 0,-0.65 -0.24,-0.9 -1.12,-0.95 l 0,-0.18 z" style="fill:#000000;stroke-width:0" /></g>  </g>
  <g id="g10991">
    <g style="stroke-width:1;stroke-linecap:square;stroke-linejoin:miter;stroke-miterlimit:10;stroke-dasharray:none;stroke-dashoffset:0" clip-path="url(#clip1-0)" id="g4402" transform="matrix(0.73111622,0,0,0.73111622,776.37647,420.92447)">
      <g style="fill:none;stroke:#000000;stroke-width:2.70818782;stroke-linecap:butt;stroke-opacity:1" id="g4404">
        <path style="stroke-width:2.70818782" d="m 370,3 0,436" id="path4406" />
      </g>
    </g>
    <g style="stroke-width:1;stroke-linecap:square;stroke-linejoin:miter;stroke-miterlimit:10;stroke-dasharray:none;stroke-dashoffset:0" clip-path="url(#clip2-3)" id="g4408" transform="matrix(0.99,0,0,0.99,680.58947,416.07802)">
      <g style="fill:#000000;fill-opacity:1;fill-rule:evenodd;stroke:none" id="g4410">
        <path d="m 370,2 -6,24 12,0" id="path4412" />
      </g>
    </g>
    <g style="stroke-width:1;stroke-linecap:square;stroke-linejoin:miter;stroke-miterlimit:10;stroke-dasharray:none;stroke-dashoffset:0" clip-path="url(#clip3-4)" id="g4414" transform="matrix(0.37199194,0,0,0.37199194,910.31054,559.19963)">
      <g style="fill:none;stroke:#000000;stroke-width:5.32269573;stroke-linecap:butt;stroke-opacity:1" id="g4416">
        <path style="stroke-width:5.32269573" d="m 0,225 755,0" id="path4418" />
      </g>
    </g>
    <g style="stroke-width:1;stroke-linecap:square;stroke-linejoin:miter;stroke-miterlimit:10;stroke-dasharray:none;stroke-dashoffset:0" clip-path="url(#clip4-4)" id="g4420" transform="matrix(0.99,0,0,0.99,448.61087,420.14782)">
      <g style="fill:#000000;fill-opacity:1;fill-rule:evenodd;stroke:none" id="g4422">
        <path d="m 756,225 -24,-6 0,12" id="path4424" />
      </g>
    </g>
    <g style="stroke-width:1;stroke-linecap:square;stroke-linejoin:miter;stroke-miterlimit:10;stroke-dasharray:none;stroke-dashoffset:0" clip-path="url(#clip12-6)" id="g4462" transform="matrix(0.99,0,0,0.99,672.64064,420.14782)">
      <g style="fill:none;stroke:#000000;stroke-width:2;stroke-linecap:butt;stroke-opacity:1" id="g4464">
        <path d="m 291.46,225 0,3" id="path4466" />
      </g>
    </g>
    <g style="stroke-width:1;stroke-linecap:square;stroke-linejoin:miter;stroke-miterlimit:10;stroke-dasharray:none;stroke-dashoffset:0" clip-path="url(#clip15-8)" id="g4480" transform="matrix(0.99,0,0,0.99,687.58643,420.29686)">
      <g style="fill:none;stroke:#000000;stroke-width:2;stroke-linecap:butt;stroke-opacity:1" id="g4482">
        <path d="m 448.54,225 0,3" id="path4484" />
      </g>
    </g>
    <g style="stroke-width:1;stroke-linecap:square;stroke-linejoin:miter;stroke-miterlimit:10;stroke-dasharray:none;stroke-dashoffset:0" clip-path="url(#clip23-8)" id="g4522" transform="matrix(0.99,0,0,0.99,680.58947,420.14782)">
      <g style="fill:none;stroke:#000000;stroke-width:2;stroke-linecap:butt;stroke-opacity:1" id="g4524">
        <path d="m 367,310.41 3,0" id="path4526" />
      </g>
    </g>
    <g style="stroke-width:1;stroke-linecap:square;stroke-linejoin:miter;stroke-miterlimit:10;stroke-dasharray:none;stroke-dashoffset:0" clip-path="url(#clip26-5)" id="g4540" transform="matrix(0.99,0,0,0.99,680.58947,420.14782)">
      <g style="fill:none;stroke:#000000;stroke-width:2;stroke-linecap:butt;stroke-opacity:1" id="g4542">
        <path d="m 367,139.59 3,0" id="path4544" />
      </g>
    </g>
    <g style="stroke-width:1;stroke-linecap:square;stroke-linejoin:miter;stroke-miterlimit:10;stroke-dasharray:none;stroke-dashoffset:0" clip-path="url(#clip28-0)" id="g4552" transform="matrix(0.99,0,0,0.99,680.58947,420.14782)">
      <g style="fill:none;stroke:#000000;stroke-width:2;stroke-linecap:butt;stroke-opacity:1" id="g4554">
        <path d="m 367,54.178 3,0" id="path4556" />
      </g>
    </g>
    <path id="path4572" d="m 1131.621,642.31767 -0.1584,-3.2908 -1.2078,-6.32518 -2.3661,-6.32518 -3.5046,-6.32518 -4.5936,-6.33586 -5.6034,-6.32518 -6.5439,-6.32518 -7.3953,-6.32518 -8.1477,-6.32518 -8.7714,-6.33586 -9.2763,-6.32518 -9.6525,-6.32518 -4.9302,-3.16259 -4.9698,-3.16259 -4.9995,-3.16259 -5.0094,-3.16259 -4.9995,-3.16259 -4.9698,-3.16259 -9.7911,-6.33587 -9.4842,-6.32517 -9.0288,-6.32518 -8.4645,-6.32518 -7.7715,-6.32518 -6.9696,-6.33587 -6.0786,-6.32518 -5.0886,-6.32518 -4.0392,-6.32518 -2.9205,-6.32518 -1.782,-6.32518 -0.594,-6.33586" style="fill:none;stroke:#2b83ba;stroke-width:3.49188748;stroke-linecap:round;stroke-linejoin:round;stroke-miterlimit:10;stroke-dasharray:none;stroke-dashoffset:0;stroke-opacity:1" />
    <g ns0:preamble="/Users/prmb/CMEP/underground-inkscape-preamble.tex" ns0:text="$x$" word-spacing="normal" letter-spacing="normal" font-size-adjust="none" font-stretch="normal" font-weight="normal" font-variant="normal" font-style="normal" stroke-miterlimit="10.433" xml:space="preserve" transform="matrix(1.7999979,0,0,-1.7999977,766.88766,1525.6831)" id="content" style="font-style:normal;font-variant:normal;font-weight:normal;font-stretch:normal;letter-spacing:normal;word-spacing:normal;text-anchor:start;fill:none;fill-opacity:1;fill-rule:evenodd;stroke:#000000;stroke-width:1.66666877;stroke-linecap:butt;stroke-linejoin:miter;stroke-miterlimit:10.43299961;stroke-dasharray:none;stroke-dashoffset:0;stroke-opacity:1"><path id="path5152" d="m 227.03,480.64 -0.23,0.64 c -0.15,0.39 -0.37,0.88 -0.89,1.16 l -1.56,-0.39 0.04,-0.21 c 0.12,0.05 0.29,0.07 0.45,0.07 0.65,0 0.95,-0.48 1.15,-1.05 l 0.39,-1.09 -0.76,-1.19 c -0.38,-0.58 -0.69,-0.7 -0.83,-0.7 -0.3,0 -0.25,0.24 -0.55,0.24 -0.3,0 -0.45,-0.25 -0.45,-0.44 0,-0.26 0.19,-0.55 0.61,-0.55 0.66,0 1,0.51 1.38,1.08 l 0.74,1.16 0.48,-1.33 c 0.15,-0.43 0.38,-0.91 0.86,-0.91 0.68,0 1.21,1.13 1.36,1.31 l -0.17,0.12 c -0.25,-0.51 -0.53,-0.68 -0.72,-0.68 -0.53,0 -0.8,1.6 -1.15,2.33 l 0.64,1 c 0.17,0.26 0.3,0.45 0.65,0.45 0.2,0 0.26,-0.1 0.52,-0.1 0.31,0 0.46,0.27 0.46,0.49 0,0.25 -0.2,0.39 -0.57,0.39 -0.6,0 -1.01,-0.52 -1.32,-0.99 z" style="fill:#000000;stroke-width:0" /></g>    <g style="font-style:normal;font-variant:normal;font-weight:normal;font-stretch:normal;letter-spacing:normal;word-spacing:normal;text-anchor:start;fill:none;fill-opacity:1;fill-rule:evenodd;stroke:#000000;stroke-width:1.66666842;stroke-linecap:butt;stroke-linejoin:miter;stroke-miterlimit:10.43299961;stroke-dasharray:none;stroke-dashoffset:0;stroke-opacity:1" id="g5780" transform="matrix(1.7999978,0,0,-1.7999983,620.02297,1298.3595)" xml:space="preserve" stroke-miterlimit="10.433" font-style="normal" font-variant="normal" font-weight="normal" font-stretch="normal" font-size-adjust="none" letter-spacing="normal" word-spacing="normal" ns0:text="$y$" ns0:preamble="/Users/prmb/CMEP/underground-inkscape-preamble.tex"><path style="fill:#000000;stroke-width:0" d="m 226.62,480.86 -0.01,0.08 -0.01,0.08 -0.01,0.07 -0.01,0.07 -0.01,0.07 -0.01,0.07 -0.01,0.06 -0.01,0.06 -0.01,0.06 -0.01,0.05 -0.01,0.06 -0.01,0.05 -0.01,0.05 -0.01,0.04 -0.02,0.05 -0.01,0.05 -0.01,0.04 -0.02,0.04 -0.01,0.04 -0.01,0.04 -0.04,0.08 -0.03,0.07 -0.04,0.08 -0.04,0.07 -0.04,0.07 -0.05,0.07 -1.77,-0.3 0.02,-0.18 c 0.11,0.01 0.3,0.04 0.43,0.04 0.66,0 0.76,-0.71 0.82,-1.24 l 0.45,-3.7 c -0.31,-0.48 -0.98,-1.21 -1.18,-1.21 -0.19,0 -0.16,0.37 -0.67,0.37 -0.16,0 -0.47,-0.13 -0.47,-0.49 0,-0.28 0.22,-0.64 0.66,-0.64 0.8,0 1.57,1.15 2.43,2.24 0.5,0.62 2.41,3.46 2.41,4.38 0,0.46 -0.3,0.73 -0.67,0.73 -0.35,0 -0.56,-0.21 -0.56,-0.47 0,-0.45 0.61,-0.57 0.61,-0.82 0,-0.21 -0.09,-0.45 -0.33,-0.88 -0.26,-0.49 -0.67,-1.19 -1.39,-2.18 z" id="path5782" /></g>    <g id="g9083" transform="matrix(1.7999978,0,0,-1.7999983,623.95744,1337.7041)" xml:space="preserve" stroke-miterlimit="10.433" font-style="normal" font-variant="normal" font-weight="normal" font-stretch="normal" font-size-adjust="none" letter-spacing="normal" word-spacing="normal" ns0:text="$\\pi$" ns0:preamble="/Users/prmb/CMEP/underground-inkscape-preamble.tex" style="font-style:normal;font-variant:normal;font-weight:normal;font-stretch:normal;letter-spacing:normal;word-spacing:normal;text-anchor:start;fill:none;fill-opacity:1;fill-rule:evenodd;stroke:#000000;stroke-width:1.66666842;stroke-linecap:butt;stroke-linejoin:miter;stroke-miterlimit:10.43299961;stroke-dasharray:none;stroke-dashoffset:0;stroke-opacity:1"><path style="fill:#000000;stroke-width:0" d="m 230.14,482.29 -3.33,0 c -1.23,0 -1.99,-0.55 -2.5,-1.49 l 0.18,0 c 0.52,0.63 0.96,0.63 1.65,0.63 l -1.05,-2.44 c -0.16,-0.34 -0.37,-0.68 -0.88,-0.82 -0.31,-0.09 -0.36,-0.39 -0.36,-0.57 0,-0.28 0.29,-0.52 0.6,-0.52 0.14,0 0.32,0.03 0.45,0.13 0.99,0.74 1.35,2.78 1.9,4.22 l 1.11,0 c -0.3,-1 -0.65,-1.82 -0.92,-2.66 -0.08,-0.22 -0.11,-0.46 -0.11,-0.73 0,-0.46 0.2,-0.89 0.67,-0.89 0.83,0 1.45,0.83 1.7,1.68 l -0.19,0 c -0.28,-0.64 -0.61,-0.78 -0.86,-0.78 -0.26,0 -0.45,0.3 -0.45,0.57 0,0.79 0.63,2.3 0.79,2.81 l 1.33,0 z" id="path9085" /></g>    <g style="font-style:normal;font-variant:normal;font-weight:normal;font-stretch:normal;letter-spacing:normal;word-spacing:normal;text-anchor:start;fill:none;fill-opacity:1;fill-rule:evenodd;stroke:#000000;stroke-width:1.66666842;stroke-linecap:butt;stroke-linejoin:miter;stroke-miterlimit:10.43299961;stroke-dasharray:none;stroke-dashoffset:0;stroke-opacity:1" ns0:preamble="/Users/prmb/CMEP/underground-inkscape-preamble.tex" ns0:text="$0$" word-spacing="normal" letter-spacing="normal" font-size-adjust="none" font-stretch="normal" font-weight="normal" font-variant="normal" font-style="normal" stroke-miterlimit="10.433" xml:space="preserve" transform="matrix(1.7999978,0,0,-1.7999983,627.32983,1523.1861)" id="g9631"><path id="path9633" d="m 229.05,481.13 0,0.23 -0.01,0.22 -0.02,0.21 -0.02,0.21 -0.02,0.21 -0.04,0.2 -0.04,0.19 -0.04,0.19 -0.05,0.18 -0.05,0.18 -0.06,0.17 -0.07,0.17 -0.07,0.16 -0.07,0.15 -0.08,0.14 -0.09,0.14 -0.09,0.13 -0.09,0.13 -0.1,0.11 -0.1,0.11 -0.11,0.1 -0.11,0.1 -0.11,0.08 -0.12,0.08 -0.12,0.07 -0.12,0.06 -0.13,0.05 -0.13,0.04 -0.14,0.03 -0.13,0.03 -0.15,0.01 -0.14,0.01 c -1.9,0 -2.72,-1.93 -2.72,-4.02 0,-1.93 0.66,-4.13 2.67,-4.13 l 0,0.31 c -1.01,0 -1.53,1.34 -1.53,3.74 0,2.4 0.53,3.79 1.51,3.79 1.04,0 1.56,-1.38 1.56,-3.84 l 0,0 c 0,-2.34 -0.53,-3.69 -1.54,-3.69 l 0,-0.31 c 1.93,0 2.67,2.03 2.67,4.06 z" style="fill:#000000;stroke-width:0" /></g>    <g id="g10177" transform="matrix(1.7999978,0,0,-1.7999983,723.44327,1523.7482)" xml:space="preserve" stroke-miterlimit="10.433" font-style="normal" font-variant="normal" font-weight="normal" font-stretch="normal" font-size-adjust="none" letter-spacing="normal" word-spacing="normal" ns0:text="$1$" ns0:preamble="/Users/prmb/CMEP/underground-inkscape-preamble.tex" style="font-style:normal;font-variant:normal;font-weight:normal;font-stretch:normal;letter-spacing:normal;word-spacing:normal;text-anchor:start;fill:none;fill-opacity:1;fill-rule:evenodd;stroke:#000000;stroke-width:1.66666842;stroke-linecap:butt;stroke-linejoin:miter;stroke-miterlimit:10.43299961;stroke-dasharray:none;stroke-dashoffset:0;stroke-opacity:1"><path style="fill:#000000;stroke-width:0" d="m 228.08,477.23 0,0.18 c -0.88,0 -1.12,0.21 -1.12,0.72 l 0,7.05 -0.1,0.04 -2.12,-1.08 0,-0.16 0.32,0.11 c 0.21,0.09 0.41,0.15 0.53,0.15 0.25,0 0.36,-0.18 0.36,-0.58 l 0,-5.3 c 0,-0.65 -0.25,-0.9 -1.13,-0.95 l 0,-0.18 z" id="path10179" /></g>    <g style="font-style:normal;font-variant:normal;font-weight:normal;font-stretch:normal;letter-spacing:normal;word-spacing:normal;text-anchor:start;fill:none;fill-opacity:1;fill-rule:evenodd;stroke:#000000;stroke-width:1.66666842;stroke-linecap:butt;stroke-linejoin:miter;stroke-miterlimit:10.43299961;stroke-dasharray:none;stroke-dashoffset:0;stroke-opacity:1" ns0:preamble="/Users/prmb/CMEP/underground-inkscape-preamble.tex" ns0:text="$-1$" word-spacing="normal" letter-spacing="normal" font-size-adjust="none" font-stretch="normal" font-weight="normal" font-variant="normal" font-style="normal" stroke-miterlimit="10.433" xml:space="preserve" transform="matrix(1.7999978,0,0,-1.7999983,544.706,1523.1862)" id="g10718"><polygon id="polygon10720" points="230.76,480.61 224.19,480.61 224.19,479.83 230.76,479.83 " style="fill:#000000;stroke-width:0" /><path id="path10722" d="m 236.2,477.23 0,0.18 c -0.89,0 -1.12,0.21 -1.12,0.72 l 0,7.05 -0.11,0.04 -2.11,-1.08 0,-0.16 0.32,0.11 c 0.21,0.09 0.41,0.15 0.53,0.15 0.25,0 0.35,-0.18 0.35,-0.58 l 0,-5.3 c 0,-0.65 -0.24,-0.9 -1.12,-0.95 l 0,-0.18 z" style="fill:#000000;stroke-width:0" /></g>  </g>
</svg>