<?xml version='1.0' ?><svg xmlns:ns0="http://www.iki.fi/pav/software/textext/" xmlns:dc="http://purl.org/dc/elements/1.1/" xmlns:cc="http://creativecommons.org/ns#" xmlns:rdf="http://www.w3.org/1999/02/22-rdf-syntax-ns#" xmlns:svg="http://www.w3.org/2000/svg" xmlns="http://www.w3.org/2000/svg" xmlns:xlink="http://www.w3.org/1999/xlink" version="1.1" id="svg2" width="205.98075" height="204.18069" viewBox="209.09435 149.49986 205.98075 204.18069" preserveAspectRatio="none">
  <defs id="defs4">
    <marker orient="auto" refY="0.0" refX="0.0" id="marker4532" style="overflow:visible;">
      <path id="path4271" d="M 0.0,0.0 L 5.0,-5.0 L -12.5,0.0 L 5.0,5.0 L 0.0,0.0 z " style="fill-rule:evenodd;stroke:#0000ff;stroke-width:1pt;stroke-opacity:1;fill:#0000ff;fill-opacity:1" transform="scale(0.4) rotate(180) translate(10,0)" />
    </marker>
  </defs>
  <metadata id="metadata7">
    <rdf:RDF>
      <cc:Work rdf:about="">
        <dc:format>image/svg+xml</dc:format>
        <dc:type rdf:resource="http://purl.org/dc/dcmitype/StillImage" />
        <dc:title />
      </cc:Work>
    </rdf:RDF>
  </metadata>
  <g id="layer1">
    <g transform="matrix(0.73482001,0,0,0.73482001,55.447638,93.789004)" id="g13686">
      <ellipse cy="400.87259" cx="-91.461235" style="fill:none;stroke:#000000;stroke-width:1.00004375;stroke-miterlimit:4;stroke-dasharray:none;stroke-opacity:1" id="path3940" transform="matrix(0.33308344,-0.94289735,0.94722329,0.32057453,0,0)" rx="138.95627" ry="139.06281" />
      <path style="fill:none;stroke:#000000;stroke-width:1.00004375;stroke-miterlimit:4;stroke-dasharray:none;stroke-dashoffset:0;stroke-opacity:1" id="path4450" d="M -153.96163,425.02659 A 138.27458,27.575102 0 0 1 -229.3766,398.21705" transform="matrix(0.33308344,-0.94289736,0.9472233,0.32057453,0,0)" />
      <path style="fill:none;stroke:#000000;stroke-width:1.00004375;stroke-miterlimit:4;stroke-dasharray:6.00026277, 2.00008759;stroke-dashoffset:0;stroke-opacity:1" id="path4450-1" d="m -229.1706,402.94635 a 138.27458,27.575102 0 0 1 57.84006,-26.03029 138.27458,27.575102 0 0 1 142.432167,-1.95547 138.27458,27.575102 0 0 1 75.181883,24.204" transform="matrix(0.33308344,-0.94289736,0.9472233,0.32057453,0,0)" />
      <path style="fill:none;stroke:#ff0000;stroke-width:1.00004375;stroke-miterlimit:4;stroke-dasharray:none;stroke-dashoffset:0;stroke-opacity:1" id="path4450-15" d="m -12.565899,422.74737 a 138.27458,27.575102 0 0 1 -141.336051,2.43717" transform="matrix(0.33308344,-0.94289736,0.9472233,0.32057453,0,0)" />
      <ellipse cy="423.40533" cx="-12.305944" transform="matrix(0.33308344,-0.94289735,0.94722329,0.32057453,0,0)" style="fill:#000000;fill-opacity:1;stroke:#000000;stroke-width:0.86277378;stroke-miterlimit:4;stroke-dasharray:none;stroke-dashoffset:0;stroke-opacity:1" id="path4452-7" rx="2.1561081" ry="2.1577613" />
      <ellipse cy="425.26584" cx="-154.15288" style="fill:#000000;fill-opacity:1;stroke:#000000;stroke-width:0.86277378;stroke-miterlimit:4;stroke-dasharray:none;stroke-dashoffset:0;stroke-opacity:1" id="path4452" transform="matrix(0.33308344,-0.94289735,0.94722329,0.32057453,0,0)" rx="2.1561081" ry="2.1577613" />
      <path style="fill:none;stroke:#000000;stroke-width:1;stroke-linecap:butt;stroke-linejoin:miter;stroke-miterlimit:4;stroke-dasharray:none;stroke-opacity:1" d="m 349.82067,214.94802 45.9564,-66.78176" id="path12073" />
      <path style="fill:none;stroke:#000000;stroke-width:1;stroke-linecap:butt;stroke-linejoin:miter;stroke-miterlimit:4;stroke-dasharray:none;stroke-opacity:1" d="m 349.73773,214.20206 1.44291,66.72636" id="path12075" />
      <path style="fill:none;stroke:#0000ff;stroke-width:1;stroke-linecap:butt;stroke-linejoin:miter;stroke-miterlimit:4;stroke-dasharray:none;stroke-opacity:1" d="M 396.28889,147.38185 351.45253,281.45083" id="path12077" />
      <g transform="matrix(1.6980107,0,0,1.6980107,397.98738,67.755479)" id="g12602">
        <g style="font-style:normal;font-variant:normal;font-weight:normal;font-stretch:normal;letter-spacing:normal;word-spacing:normal;text-anchor:start;fill:none;stroke:#000000;stroke-linecap:butt;stroke-linejoin:miter;stroke-miterlimit:10.43299961;stroke-dasharray:none;stroke-dashoffset:0;stroke-opacity:1" id="content" transform="matrix(1.0629921,0,0,-1.0629921,-186.02362,789.27165)" xml:space="preserve" stroke-miterlimit="10.433" font-style="normal" font-variant="normal" font-weight="normal" font-stretch="normal" font-size-adjust="none" letter-spacing="normal" word-spacing="normal"><path style="fill:#000000;stroke-width:0" d="m 155.07,662.2 -2.87,0 c -1.52,0 -3.02,-1.26 -3.02,-3.23 0,-0.85 0.45,-1.86 1.64,-1.86 l 0.05,0.34 c -0.63,0 -0.75,0.82 -0.75,1.19 0,1.66 1.11,2.64 1.89,2.72 l 0.03,0 0,0 c 0.37,-0.24 0.83,-0.75 0.83,-1.5 0,-0.94 -0.85,-2.41 -2,-2.41 l -0.05,-0.34 c 1.69,0 2.98,1.28 2.98,2.59 0,0.86 -0.73,0.92 -0.98,1.66 l 2,0 0.25,0.84 z" id="path12605" /></g>      </g>
      <g style="fill:#0000ff;fill-opacity:1" transform="matrix(1.6980371,0,0,1.6980371,406.06935,-0.9372985)" id="g12641">
        <g style="font-style:normal;font-variant:normal;font-weight:normal;font-stretch:normal;letter-spacing:normal;word-spacing:normal;text-anchor:start;fill:#0000ff;fill-opacity:1;stroke:#000000;stroke-linecap:butt;stroke-linejoin:miter;stroke-miterlimit:10.43299961;stroke-dasharray:none;stroke-dashoffset:0;stroke-opacity:1" word-spacing="normal" letter-spacing="normal" font-size-adjust="none" font-stretch="normal" font-weight="normal" font-variant="normal" font-style="normal" stroke-miterlimit="10.433" xml:space="preserve" transform="matrix(1.0629921,0,0,-1.0629921,-186.02362,789.27165)" id="g12643"><path style="fill:#0000ff;fill-opacity:1;stroke-width:0" id="path12645" d="m 156.98,664.89 -0.22,0 c -0.17,-0.3 -0.36,-0.31 -0.49,-0.31 -0.61,0 -1.2,0.31 -1.84,0.31 -2.8,0 -5.14,-1.89 -5.14,-4.56 0,-1.72 1.11,-3.24 3.34,-3.24 0.46,0 1.35,0.08 2.25,0.71 0.33,0.25 0.72,0.59 1.03,1.08 l -0.23,0.14 c -0.06,-0.08 -0.11,-0.14 -0.2,-0.22 -0.52,-0.58 -1.36,-1.14 -2.5,-1.14 -1.58,0 -2.27,1.18 -2.27,2.48 0,1.98 1.38,4.31 3.7,4.31 1.41,0 1.77,-0.9 1.77,-1.67 0,-0.28 0,-0.39 -0.03,-0.48 l 0.19,0 0.64,2.59 z" /></g>      </g>
      <g style="fill:#ff0000;fill-opacity:1;stroke:#ff0000;stroke-opacity:1" transform="matrix(1.6980107,0,0,1.6980107,430.31227,59.674259)" id="g12687">
        <g style="font-style:normal;font-variant:normal;font-weight:normal;font-stretch:normal;letter-spacing:normal;word-spacing:normal;text-anchor:start;fill:#ff0000;fill-opacity:1;stroke:#ff0000;stroke-linecap:butt;stroke-linejoin:miter;stroke-miterlimit:10.43299961;stroke-dasharray:none;stroke-dashoffset:0;stroke-opacity:1" id="g12689" transform="matrix(1.0629921,0,0,-1.0629921,-186.02362,789.27165)" xml:space="preserve" stroke-miterlimit="10.433" font-style="normal" font-variant="normal" font-weight="normal" font-stretch="normal" font-size-adjust="none" letter-spacing="normal" word-spacing="normal"><path style="fill:#ff0000;fill-opacity:1;stroke:#ff0000;stroke-width:0;stroke-opacity:1" d="m 154.84,665 -1.83,-0.28 0.06,-0.17 c 0.08,0 0.2,0.03 0.31,0.03 0.3,0 0.38,-0.08 0.38,-0.24 0,-0.04 0,-0.09 -0.02,-0.14 l -0.62,-2.42 -0.03,0 c 0,0.27 -0.27,0.58 -0.93,0.58 l 0.11,-0.34 c 0.49,0 0.66,-0.29 0.66,-0.83 l 0,0 c 0,-0.36 -0.06,-0.81 -0.19,-1.22 -0.33,-1.08 -1.09,-2.17 -1.9,-2.17 -0.33,0 -0.66,0.2 -0.66,0.76 0,1.13 0.95,3.46 2.09,3.46 l -0.11,0.34 c -1.79,0 -2.98,-2.59 -2.98,-3.8 0,-0.61 0.17,-1.47 1.02,-1.47 0.43,0 1.12,0.14 1.98,1.22 l 0.05,0 c -0.08,-0.34 -0.1,-0.51 -0.1,-0.73 0,-0.22 0.08,-0.49 0.46,-0.49 0.54,0 1.17,0.71 1.51,1.22 l -0.12,0.14 c -0.18,-0.25 -0.49,-0.65 -0.72,-0.65 -0.13,0 -0.19,0.04 -0.19,0.11 0,0.03 0.02,0.11 0.03,0.14 l 1.74,6.95 z" id="path12691" /></g>      </g>
      <g transform="matrix(1.6980107,0,0,1.6980107,397.98738,145.53722)" id="g12739">
        <g style="font-style:normal;font-variant:normal;font-weight:normal;font-stretch:normal;letter-spacing:normal;word-spacing:normal;text-anchor:start;fill:none;stroke:#000000;stroke-linecap:butt;stroke-linejoin:miter;stroke-miterlimit:10.43299961;stroke-dasharray:none;stroke-dashoffset:0;stroke-opacity:1" word-spacing="normal" letter-spacing="normal" font-size-adjust="none" font-stretch="normal" font-weight="normal" font-variant="normal" font-style="normal" stroke-miterlimit="10.433" xml:space="preserve" transform="matrix(1.0629921,0,0,-1.0629921,-186.02362,789.27165)" id="g12741"><path style="fill:#000000;stroke-width:0" id="path12743" d="m 151.04,664.81 -0.05,-0.17 0.24,0 c 0.7,0 0.9,-0.19 0.9,-0.44 0,-0.09 -0.03,-0.2 -0.04,-0.29 l -1.46,-5.77 c -0.11,-0.39 -0.34,-0.72 -1.23,-0.72 l -0.2,0 -0.05,-0.19 3.95,0 0.06,0.19 -0.37,0 c -0.69,0 -0.89,0.17 -0.89,0.46 0,0.09 0,0.17 0.03,0.26 l 0.64,2.59 c 0.06,-0.01 0.09,-0.03 0.14,-0.03 0.28,-0.04 0.55,-0.04 0.86,-0.04 2.38,0 3.31,1.17 3.31,2.29 0,0.86 -0.72,1.86 -2.68,1.86 l -0.15,-0.42 c 1.11,0 1.46,-0.61 1.46,-1.31 0,-1.19 -0.94,-2 -2.11,-2 -0.24,0 -0.52,0.04 -0.7,0.09 l 0.78,3.19 0.01,0 c 0.19,0.02 0.36,0.03 0.56,0.03 l 0.15,0.42 -3.16,0 z" /></g>      </g>
      <g transform="matrix(1.6980107,0,0,1.6980107,455.56608,-9.0161148)" id="g12797">
        <g style="font-style:normal;font-variant:normal;font-weight:normal;font-stretch:normal;letter-spacing:normal;word-spacing:normal;text-anchor:start;fill:none;stroke:#000000;stroke-linecap:butt;stroke-linejoin:miter;stroke-miterlimit:10.43299961;stroke-dasharray:none;stroke-dashoffset:0;stroke-opacity:1" id="g12799" transform="matrix(1.0629921,0,0,-1.0629921,-186.02362,789.27165)" xml:space="preserve" stroke-miterlimit="10.433" font-style="normal" font-variant="normal" font-weight="normal" font-stretch="normal" font-size-adjust="none" letter-spacing="normal" word-spacing="normal"><path style="fill:#000000;stroke-width:0" d="m 149.68,655.91 0.12,-0.14 c 0.32,0.14 0.58,0.2 0.68,0.2 0.34,0 0.97,-0.19 1.56,-0.31 0.42,-0.1 1.03,-0.19 1.64,-0.19 1.37,0 2.19,0.53 2.87,1.37 l -0.15,0.14 c -0.58,-0.62 -1.13,-0.76 -1.58,-0.76 -1.02,0 -2.09,0.39 -2.84,0.39 -0.16,0 -0.32,-0.02 -0.52,-0.05 l -0.03,0.06 0.73,0.5 0.05,0.43 c -0.94,0 -1.53,0.61 -1.53,1.73 0,1.6 1.05,5.27 3.62,5.27 0.77,0 1.52,-0.36 1.52,-1.89 l 0,0 c 0,-1.83 -1.09,-5.11 -3.61,-5.11 l -0.05,-0.43 c 2.86,0 5.04,2.63 5.04,4.99 0,1.8 -1.08,2.87 -2.77,2.87 -2.95,0 -5.14,-2.79 -5.14,-5.17 0,-1.53 0.97,-2.47 2.3,-2.67 l 0,0 -1.93,-1.23 z" id="path12801" /></g>      </g>
      <path id="path12831" d="m 367.69553,155.34672 16.16244,18.68782" style="fill:#0000ff;fill-opacity:1;stroke:#0000ff;stroke-width:1.39999998;stroke-linecap:butt;stroke-linejoin:miter;stroke-miterlimit:4;stroke-dasharray:none;stroke-opacity:1;marker-end:url(#marker4532)" />
      <g id="g4736" ns0:preamble="/Users/jdg18/CMEP/Miscellaneous/underground-inkscape-preamble.tex" ns0:text="$O$" transform="matrix(1.7510671,0,0,1.7510671,-59.275944,-16.693844)">
        <defs id="defs4738">
          <g id="g4740">
            <symbol id="textext-d3f85a63-0" overflow="visible" style="overflow:visible">
              <path id="path4743" d="m 2.953125,0 0,-8.09375 L 0,-8.09375 0,0 Z m -0.78125,-0.796875 -1.390625,0 0,-6.515625 1.390625,0 z m 0,0" style="stroke:none" />
            </symbol>
            <symbol id="textext-d3f85a63-1" overflow="visible" style="overflow:visible">
              <path id="path4746" d="m 8.4375,-4.96875 c 0,-1.5 -0.96875,-2.953125 -2.953125,-2.953125 -3.015625,0 -4.890625,2.890625 -4.890625,5.296875 0,1.625 1.234375,2.75 3,2.75 2.984375,0 4.84375,-2.75 4.84375,-5.09375 z M 7.0625,-5.25 c 0,1.671875 -0.875,4.9375 -3.375,4.9375 -0.921875,0 -1.65625,-0.640625 -1.65625,-1.78125 0,-1.6875 0.609375,-5.390625 3.359375,-5.390625 1.1875,0 1.671875,0.96875 1.671875,2.234375 z m 0,0" style="stroke:none" />
            </symbol>
          </g>
        </defs>
        <g id="textext-d3f85a63-2">
          <g id="g4749" style="fill:#000000;fill-opacity:1">
            <use id="use4751" y="134.765" x="223.43201" xlink:href="#textext-d3f85a63-1" width="100%" height="100%" />
          </g>
        </g>
      </g>
      <path style="fill:none;stroke:#000000;stroke-width:1.00004375;stroke-miterlimit:4;stroke-dasharray:none;stroke-dashoffset:0;stroke-opacity:1" id="path4450-4" d="m 46.730309,400.42075 a 138.27458,27.575102 0 0 1 -58.772454,22.56147" transform="matrix(0.33308344,-0.94289736,0.9472233,0.32057453,0,0)" />
    </g>
  </g>
</svg>