<?xml version='1.0' ?><svg xmlns:ns0="http://www.iki.fi/pav/software/textext/" xmlns:dc="http://purl.org/dc/elements/1.1/" xmlns:cc="http://creativecommons.org/ns#" xmlns:rdf="http://www.w3.org/1999/02/22-rdf-syntax-ns#" xmlns:svg="http://www.w3.org/2000/svg" xmlns="http://www.w3.org/2000/svg" xmlns:xlink="http://www.w3.org/1999/xlink" version="1.1" id="svg12481" width="303.2912" height="302.76556" viewBox="209.62399687528836 76.05484029967597 284.3355000003911 283.84271250039046" preserveAspectRatio="none">
  <defs id="defs12483" />
  <metadata id="metadata12486">
    <rdf:RDF>
      <cc:Work rdf:about="">
        <dc:format>image/svg+xml</dc:format>
        <dc:type rdf:resource="http://purl.org/dc/dcmitype/StillImage" />
        <dc:title />
      </cc:Work>
    </rdf:RDF>
  </metadata>
  <g style="display:inline" id="layer3">
    <circle style="fill:none;stroke:#000000;stroke-width:1;stroke-miterlimit:4;stroke-dasharray:none;stroke-dashoffset:0;fill-opacity:1.0;stroke-opacity:1.0" id="path13090" cx="352.03815" cy="217.9762" r="141.42136" />
    <path id="path13217" d="m 352.03816,84.332998 0,133.643182" style="fill:none;fill-rule:evenodd;stroke:#82670e;stroke-width:1;stroke-linecap:butt;stroke-linejoin:miter;stroke-opacity:1;stroke-miterlimit:4;stroke-dasharray:6, 6;stroke-dashoffset:0" />
    <path id="path13219" d="m 440.88108,161.40764 -88.84292,56.56854" style="fill:none;fill-rule:evenodd;stroke:#82670e;stroke-width:1px;stroke-linecap:butt;stroke-linejoin:miter;stroke-opacity:1" />
    <path id="path13221" d="m 298.39906,144.79063 53.6391,73.18555" style="fill:none;fill-rule:evenodd;stroke:#82670e;stroke-width:1px;stroke-linecap:butt;stroke-linejoin:miter;stroke-opacity:1" />
    <path d="m 298.52195,144.76371 a 241.61984,241.61984 0 0 1 142.4671,16.59363" id="circle13113" style="fill:none;stroke:#0000ff;stroke-width:1;stroke-miterlimit:4;stroke-dasharray:none;stroke-opacity:1" />
    <path d="m 298.49419,144.75097 a 126.42631,126.42631 0 0 1 53.9315,-60.735356" style="fill:none;stroke:#0000ff;stroke-width:1;stroke-miterlimit:4;stroke-dasharray:none;stroke-opacity:1" id="circle13152" />
    <path d="m 351.97786,84.218729 a 144.98163,144.98163 0 0 1 89.13833,77.677421" id="circle13195" style="fill:none;stroke:#0000ff;stroke-width:1;stroke-miterlimit:4;stroke-dasharray:none;stroke-opacity:1" />
    <g style="fill:#0000ff;fill-opacity:1" id="g13262" ns0:preamble="/Users/jdg18/CMEP/Miscellaneous/underground-inkscape-preamble.tex" ns0:text="$A$" transform="matrix(1.5,0,0,1.5,-4.807612,-112.40054)">
      <defs id="defs13264">
        <g id="g13266">
          <symbol id="textext-3b5a9a3e-0" overflow="visible" style="overflow:visible">
            <path id="path13269" d="m 2.953125,0 0,-8.09375 L 0,-8.09375 0,0 Z m -0.78125,-0.796875 -1.390625,0 0,-6.515625 1.390625,0 z m 0,0" style="stroke:none" />
          </symbol>
          <symbol id="textext-3b5a9a3e-1" overflow="visible" style="overflow:visible">
            <path id="path13272" d="m 8.109375,0 0,-0.1875 -0.1875,0 c -0.5,0 -0.796875,-0.25 -0.875,-0.828125 L 6.125,-7.90625 l -0.21875,0 L 1.6875,-1.0625 C 1.265625,-0.375 0.828125,-0.234375 0.421875,-0.1875 L 0.421875,0 3,0 l 0,-0.1875 -0.34375,0 c -0.3125,0 -0.5,-0.125 -0.515625,-0.34375 0,-0.078125 0.03125,-0.21875 0.125,-0.3125 L 3.25,-2.5 5.609375,-2.5 5.75,-1.15625 c 0.015625,0.078125 0.03125,0.171875 0.03125,0.25 0,0.46875 -0.1875,0.71875 -0.859375,0.71875 l -0.1875,0 0,0.1875 z m -2.59375,-2.9375 -2.015625,0 1.65625,-2.6875 0.0625,0 z m 0,0" style="stroke:none" />
          </symbol>
        </g>
      </defs>
      <g style="fill:#0000ff;fill-opacity:1" id="textext-3b5a9a3e-2">
        <g id="g13275" style="fill:#0000ff;fill-opacity:1">
          <use style="fill:#0000ff;fill-opacity:1" id="use13277" y="134.765" x="223.43201" xlink:href="#textext-3b5a9a3e-1" width="100%" height="100%" />
        </g>
      </g>
    </g>
    <g style="fill:#0000ff;fill-opacity:1" transform="matrix(1.5,0,0,1.5,106.77312,-34.648232)" ns0:text="$B$" ns0:preamble="/Users/jdg18/CMEP/Miscellaneous/underground-inkscape-preamble.tex" id="g13337">
      <defs id="defs13339">
        <g id="g13341">
          <symbol overflow="visible" id="textext-0f2fa0da-0" style="overflow:visible">
            <path style="stroke:none" d="m 2.953125,0 0,-8.09375 L 0,-8.09375 0,0 Z m -0.78125,-0.796875 -1.390625,0 0,-6.515625 1.390625,0 z m 0,0" id="path13344" />
          </symbol>
          <symbol overflow="visible" id="textext-0f2fa0da-1" style="overflow:visible">
            <path style="stroke:none" d="m 2.34375,-7.734375 -0.0625,0.1875 0.234375,0 c 0.6875,0 0.921875,0.1875 0.921875,0.5 0,0.078125 -0.015625,0.1875 -0.03125,0.25 L 1.953125,-0.9375 c -0.09375,0.40625 -0.3125,0.75 -1.21875,0.75 L 0.5,-0.1875 0.453125,0 4.28125,0 c 2.453125,0 3.421875,-1.109375 3.421875,-2.28125 0,-1.015625 -0.78125,-1.515625 -1.5,-1.640625 L 6.171875,-3.96875 C 6.40625,-4.03125 6.75,-4.125 7.046875,-4.28125 7.609375,-4.5625 8.125,-5.09375 8.125,-6.015625 8.125,-7.625 6.328125,-7.734375 5.328125,-7.734375 Z m 2.46875,0.5 c 0.15625,-0.03125 0.328125,-0.03125 0.5,-0.03125 0.640625,0 1.421875,0.25 1.421875,1.15625 0,1.140625 -0.671875,1.921875 -2,1.921875 -0.171875,0 -0.390625,-0.015625 -0.625,-0.0625 z M 4,-3.71875 c 0.1875,-0.046875 0.421875,-0.046875 0.609375,-0.046875 0.921875,0 1.671875,0.40625 1.671875,1.28125 0,1.53125 -1.125,2.03125 -2.25,2.03125 -0.296875,0 -0.53125,-0.015625 -0.828125,-0.109375 z m 0,0" id="path13347" />
          </symbol>
        </g>
      </defs>
      <g style="fill:#0000ff;fill-opacity:1" id="textext-0f2fa0da-2">
        <g style="fill:#0000ff;fill-opacity:1" id="g13350">
          <use style="fill:#0000ff;fill-opacity:1" xlink:href="#textext-0f2fa0da-1" x="223.43201" y="134.765" id="use13352" width="100%" height="100%" />
        </g>
      </g>
    </g>
    <g style="fill:#0000ff;fill-opacity:1" id="g13432" ns0:preamble="/Users/jdg18/CMEP/Miscellaneous/underground-inkscape-preamble.tex" ns0:text="$C$" transform="matrix(1.5,0,0,1.5,-53.033009,-48.083261)">
      <defs id="defs13434">
        <g id="g13436">
          <symbol id="textext-cfb7d356-0" overflow="visible" style="overflow:visible">
            <path id="path13439" d="m 2.953125,0 0,-8.09375 L 0,-8.09375 0,0 Z m -0.78125,-0.796875 -1.390625,0 0,-6.515625 1.390625,0 z m 0,0" style="stroke:none" />
          </symbol>
          <symbol id="textext-cfb7d356-1" overflow="visible" style="overflow:visible">
            <path id="path13442" d="m 8.421875,-7.8125 -0.21875,0 c -0.171875,0.296875 -0.359375,0.328125 -0.5,0.328125 -0.609375,0 -1.21875,-0.328125 -1.859375,-0.328125 -2.875,0 -5.25,1.9375 -5.25,4.65625 0,1.75 1.125,3.296875 3.40625,3.296875 0.46875,0 1.359375,-0.0625 2.28125,-0.71875 0.34375,-0.25 0.734375,-0.609375 1.0625,-1.09375 l -0.234375,-0.15625 c -0.0625,0.09375 -0.125,0.15625 -0.203125,0.234375 C 6.375,-1 5.5,-0.421875 4.34375,-0.421875 c -1.59375,0 -2.3125,-1.21875 -2.3125,-2.53125 0,-2.03125 1.40625,-4.40625 3.78125,-4.40625 1.4375,0 1.796875,0.921875 1.796875,1.703125 0,0.296875 0,0.390625 0,0.5 l 0.1875,0 z m 0,0" style="stroke:none" />
          </symbol>
        </g>
      </defs>
      <g style="fill:#0000ff;fill-opacity:1" id="textext-cfb7d356-2">
        <g id="g13445" style="fill:#0000ff;fill-opacity:1">
          <use style="fill:#0000ff;fill-opacity:1" id="use13447" y="134.765" x="223.43201" xlink:href="#textext-cfb7d356-1" width="100%" height="100%" />
        </g>
      </g>
    </g>
    <path style="fill:none;stroke:#0000ff;stroke-width:1;stroke-miterlimit:4;stroke-dasharray:none;stroke-dashoffset:0;fill-opacity:1.0;stroke-opacity:1.0" id="path13526" d="m 303.81073,133.32499 a 12.5,12.5 0 0 1 7.47358,9.22509" />
    <path style="fill:none;stroke:#0000ff;stroke-width:1;stroke-miterlimit:4;stroke-dasharray:none;stroke-dashoffset:0;fill-opacity:1.0;stroke-opacity:1.0" id="path13530" d="m 359.95241,86.904034 a 8.312438,8.312438 0 0 1 -6.97469,5.717315 8.312438,8.312438 0 0 1 -8.08067,-4.0046" />
    <path style="fill:none;stroke:#0000ff;stroke-width:1;stroke-miterlimit:4;stroke-dasharray:none;stroke-dashoffset:0;fill-opacity:1.0;stroke-opacity:1.0" id="path13534" d="m 426.27503,155.20586 a 15.5,15.5 0 0 1 7.24419,-7.68271" />
    <path style="fill:none;stroke:#82670e;stroke-width:1;stroke-miterlimit:4;stroke-dasharray:none;stroke-dashoffset:0;fill-opacity:1.0;stroke-opacity:1.0" id="path13536" d="m 344.2221,207.10906 a 13.386002,13.386002 0 0 1 10.32017,-2.28257 13.386002,13.386002 0 0 1 8.75893,5.91583" />
    <path style="fill:none;stroke:#82670e;stroke-width:1;stroke-miterlimit:4;stroke-dasharray:none;stroke-dashoffset:0;fill-opacity:1.0;stroke-opacity:1.0" id="path13538" d="m 352.05535,198.51435 a 19.461843,19.461843 0 0 1 16.29702,8.85007" />
    <path style="fill:none;stroke:#82670e;stroke-width:1;stroke-miterlimit:4;stroke-dasharray:none;stroke-dashoffset:0;fill-opacity:1.0;stroke-opacity:1.0" id="path13540" d="m 336.87732,196.90092 a 25.961843,25.961843 0 0 1 15.17489,-4.88658" />
    <g style="fill:#82670e;fill-opacity:1" transform="matrix(1.5,0,0,1.5,24,-49)" ns0:text="$a$" ns0:preamble="/Users/jdg18/CMEP/Miscellaneous/underground-inkscape-preamble.tex" id="g13600">
      <defs id="defs13602">
        <g id="g13604">
          <symbol style="overflow:visible" overflow="visible" id="textext-50aada3e-0">
            <path style="stroke:none" d="m 2.953125,0 0,-8.09375 L 0,-8.09375 0,0 Z m -0.78125,-0.796875 -1.390625,0 0,-6.515625 1.390625,0 z m 0,0" id="path13607" />
          </symbol>
          <symbol style="overflow:visible" overflow="visible" id="textext-50aada3e-1">
            <path style="stroke:none" d="m 5.59375,-5.0625 -0.953125,0 -0.109375,0.390625 C 4.5,-4.9375 4.25,-5.21875 3.75,-5.21875 c -1.71875,0 -3.28125,2.359375 -3.28125,3.921875 0,0.765625 0.3125,1.421875 1.0625,1.421875 0.453125,0 1.1875,-0.15625 2.046875,-1.25 l 0.046875,0 C 3.5625,-0.9375 3.5,-0.6875 3.5,-0.53125 3.5,-0.15625 3.59375,0.125 3.984375,0.125 4.5625,0.125 5.203125,-0.59375 5.5625,-1.15625 L 5.421875,-1.296875 c -0.453125,0.625 -0.640625,0.640625 -0.75,0.640625 -0.09375,0 -0.171875,-0.0625 -0.171875,-0.203125 0,-0.09375 0.015625,-0.125 0.015625,-0.125 z m -1.25,1.03125 c 0,0.390625 -0.078125,0.875 -0.171875,1.171875 -0.328125,1.125 -1.15625,2.25 -1.984375,2.25 -0.3125,0 -0.6875,-0.15625 -0.6875,-0.78125 0,-0.40625 0.125,-0.9375 0.328125,-1.46875 C 2.234375,-3.84375 2.953125,-4.875 3.75,-4.875 c 0.453125,0 0.59375,0.34375 0.59375,0.84375 z m 0,0" id="path13610" />
          </symbol>
        </g>
      </defs>
      <g style="fill:#82670e;fill-opacity:1" id="textext-50aada3e-2">
        <g style="fill:#82670e;fill-opacity:1" id="g13613">
          <use style="fill:#82670e;fill-opacity:1" height="100%" width="100%" xlink:href="#textext-50aada3e-1" x="223.43201" y="134.765" id="use13615" />
        </g>
      </g>
    </g>
    <g style="fill:#82670e;fill-opacity:1" id="g13751" ns0:preamble="/Users/jdg18/CMEP/Miscellaneous/underground-inkscape-preamble.tex" ns0:text="$b$" transform="matrix(1.5,0,0,1.5,-27,-91.5)">
      <defs id="defs13753">
        <g id="g13755">
          <symbol style="overflow:visible" id="textext-cb378bf3-0" overflow="visible">
            <path id="path13758" d="m 2.953125,0 0,-8.09375 L 0,-8.09375 0,0 Z m -0.78125,-0.796875 -1.390625,0 0,-6.515625 1.390625,0 z m 0,0" style="stroke:none" />
          </symbol>
          <symbol style="overflow:visible" id="textext-cb378bf3-1" overflow="visible">
            <path id="path13761" d="m 2.53125,-4.53125 0.875,-3.375 -1.875,0.28125 0.03125,0.1875 c 0.09375,-0.03125 0.234375,-0.046875 0.359375,-0.046875 0.15625,0 0.328125,0.09375 0.34375,0.25 0,0.03125 -0.015625,0.078125 -0.03125,0.125 L 0.53125,-0.4375 c 0.53125,0.359375 1.015625,0.5625 1.640625,0.5625 1.859375,0 3.15625,-2.125 3.15625,-3.5625 0,-0.96875 -0.484375,-1.78125 -1.3125,-1.78125 -0.578125,0 -1.046875,0.359375 -1.4375,0.734375 z M 2.125,-2.984375 c 0.125,-0.53125 0.53125,-1.59375 1.375,-1.59375 0.390625,0 0.84375,0.265625 0.84375,1.09375 0,1.203125 -0.78125,3.265625 -2.21875,3.265625 -0.28125,0 -0.65625,-0.140625 -0.65625,-0.21875 z m 0,0" style="stroke:none" />
          </symbol>
        </g>
      </defs>
      <g style="fill:#82670e;fill-opacity:1" id="textext-cb378bf3-2">
        <g id="g13764" style="fill:#82670e;fill-opacity:1">
          <use style="fill:#82670e;fill-opacity:1" height="100%" width="100%" id="use13766" y="134.765" x="223.43201" xlink:href="#textext-cb378bf3-1" />
        </g>
      </g>
    </g>
    <g style="fill:#82670e;fill-opacity:1" transform="matrix(1.5,0,0,1.5,68,-94.5)" ns0:text="$c$" ns0:preamble="/Users/jdg18/CMEP/Miscellaneous/underground-inkscape-preamble.tex" id="g13922">
      <defs id="defs13924">
        <g id="g13926">
          <symbol style="overflow:visible" overflow="visible" id="textext-1a239f2c-0">
            <path style="stroke:none" d="m 2.953125,0 0,-8.09375 L 0,-8.09375 0,0 Z m -0.78125,-0.796875 -1.390625,0 0,-6.515625 1.390625,0 z m 0,0" id="path13929" />
          </symbol>
          <symbol style="overflow:visible" overflow="visible" id="textext-1a239f2c-1">
            <path style="stroke:none" d="M 4.296875,-1.3125 C 3.890625,-0.90625 3.34375,-0.515625 2.625,-0.515625 2.078125,-0.515625 1.5,-0.78125 1.5,-1.8125 c 0,-0.953125 0.671875,-3.0625 2.09375,-3.0625 0.28125,0 0.390625,0.109375 0.390625,0.25 0,0.25 -0.34375,0.390625 -0.34375,0.6875 0,0.1875 0.15625,0.4375 0.453125,0.4375 0.453125,0 0.640625,-0.375 0.640625,-0.828125 0,-0.578125 -0.546875,-0.890625 -1.140625,-0.890625 -1.6875,0 -3.125,1.859375 -3.125,3.515625 0,0.90625 0.484375,1.828125 1.625,1.828125 1.015625,0 1.75,-0.578125 2.34375,-1.28125 z m 0,0" id="path13932" />
          </symbol>
        </g>
      </defs>
      <g style="fill:#82670e;fill-opacity:1" id="textext-1a239f2c-2">
        <g style="fill:#82670e;fill-opacity:1" id="g13935">
          <use style="fill:#82670e;fill-opacity:1" height="100%" width="100%" xlink:href="#textext-1a239f2c-1" x="223.43201" y="134.765" id="use13937" />
        </g>
      </g>
    </g>
    <g id="g14113" ns0:preamble="/Users/jdg18/CMEP/Miscellaneous/underground-inkscape-preamble.tex" ns0:text="$O$" transform="matrix(1.5,0,0,1.5,9.5,29.5)">
      <defs id="defs14115">
        <g id="g14117">
          <symbol style="overflow:visible" id="textext-d3f85a63-0" overflow="visible">
            <path id="path14120" d="m 2.953125,0 0,-8.09375 L 0,-8.09375 0,0 Z m -0.78125,-0.796875 -1.390625,0 0,-6.515625 1.390625,0 z m 0,0" style="stroke:none" />
          </symbol>
          <symbol style="overflow:visible" id="textext-d3f85a63-1" overflow="visible">
            <path id="path14123" d="m 8.4375,-4.96875 c 0,-1.5 -0.96875,-2.953125 -2.953125,-2.953125 -3.015625,0 -4.890625,2.890625 -4.890625,5.296875 0,1.625 1.234375,2.75 3,2.75 2.984375,0 4.84375,-2.75 4.84375,-5.09375 z M 7.0625,-5.25 c 0,1.671875 -0.875,4.9375 -3.375,4.9375 -0.921875,0 -1.65625,-0.640625 -1.65625,-1.78125 0,-1.6875 0.609375,-5.390625 3.359375,-5.390625 1.1875,0 1.671875,0.96875 1.671875,2.234375 z m 0,0" style="stroke:none" />
          </symbol>
        </g>
      </defs>
      <g id="textext-d3f85a63-2">
        <g id="g14126" style="fill:#000000;fill-opacity:1">
          <use height="100%" width="100%" id="use14128" y="134.765" x="223.43201" xlink:href="#textext-d3f85a63-1" />
        </g>
      </g>
    </g>
    <path d="m 209.974,218.09982 a 141.56161,27.846691 0 0 1 141.55642,-27.84478 141.56161,27.846691 0 0 1 141.56681,27.84274" id="path14960" style="fill:none;stroke:#000000;stroke-width:0.69999999;stroke-miterlimit:4;stroke-dasharray:4.19999993,4.19999993;stroke-dashoffset:0;fill-opacity:1.0;stroke-opacity:1.0" />
    <path transform="scale(1,-1)" d="m 209.974,-218.10007 a 141.56161,27.846691 0 0 1 141.55642,-27.84478 141.56161,27.846691 0 0 1 141.56681,27.84274" id="path14960-2" style="display:inline;fill:none;stroke:#000000;stroke-width:0.69999999;stroke-miterlimit:4;stroke-dasharray:none;stroke-dashoffset:0;fill-opacity:1.0;stroke-opacity:1.0" />
  </g>
</svg>