<?xml version='1.0' ?><svg xmlns:ns0="http://www.iki.fi/pav/software/textext/" xmlns:dc="http://purl.org/dc/elements/1.1/" xmlns:cc="http://creativecommons.org/ns#" xmlns:rdf="http://www.w3.org/1999/02/22-rdf-syntax-ns#" xmlns:svg="http://www.w3.org/2000/svg" xmlns="http://www.w3.org/2000/svg" xmlns:xlink="http://www.w3.org/1999/xlink" version="1.1" id="svg2" width="91.050282" height="190.31956" viewBox="334.2749 139.10715 91.050282 190.31956" preserveAspectRatio="none">
  <defs id="defs4">
    <marker orient="auto" refY="0.0" refX="0.0" id="marker11288" style="overflow:visible">
      <path id="path11290" d="M 0.0,0.0 L 5.0,-5.0 L -12.5,0.0 L 5.0,5.0 L 0.0,0.0 z " style="fill-rule:evenodd;stroke:#000000;stroke-width:1pt;stroke-opacity:1;fill:#000000;fill-opacity:1" transform="scale(0.4) translate(10,0)" />
    </marker>
    <marker style="overflow:visible" id="Arrow1Mstart" refX="0.0" refY="0.0" orient="auto">
      <path transform="scale(0.4) translate(10,0)" style="fill-rule:evenodd;stroke:#000000;stroke-width:1pt;stroke-opacity:1;fill:#000000;fill-opacity:1" d="M 0.0,0.0 L 5.0,-5.0 L -12.5,0.0 L 5.0,5.0 L 0.0,0.0 z " id="path10987" />
    </marker>
    <marker orient="auto" refY="0.0" refX="0.0" id="Arrow1Mend" style="overflow:visible;">
      <path id="path3964" d="M 0.0,0.0 L 5.0,-5.0 L -12.5,0.0 L 5.0,5.0 L 0.0,0.0 z " style="fill-rule:evenodd;stroke:#000000;stroke-width:1.0pt;" transform="scale(0.4) rotate(180) translate(10,0)" />
    </marker>
  </defs>
  <metadata id="metadata7">
    <rdf:RDF>
      <cc:Work rdf:about="">
        <dc:format>image/svg+xml</dc:format>
        <dc:type rdf:resource="http://purl.org/dc/dcmitype/StillImage" />
        <dc:title />
      </cc:Work>
    </rdf:RDF>
  </metadata>
  <g id="layer1">
    <path id="path12077" d="m 405.49761,151.76656 -0.0151,161.08522" style="fill:none;stroke:#0000ff;stroke-width:1;stroke-linecap:butt;stroke-linejoin:miter;stroke-miterlimit:4;stroke-dasharray:none;stroke-opacity:1" />
    <g id="g12641" transform="matrix(1.5669091,0,0,1.5669091,455.33951,95.21461)" style="fill:#0000ff;fill-opacity:1">
      <g id="g12643" transform="matrix(1.0629921,0,0,-1.0629921,-186.02362,789.27165)" xml:space="preserve" stroke-miterlimit="10.433" font-style="normal" font-variant="normal" font-weight="normal" font-stretch="normal" font-size-adjust="none" letter-spacing="normal" word-spacing="normal" style="font-style:normal;font-variant:normal;font-weight:normal;font-stretch:normal;letter-spacing:normal;word-spacing:normal;text-anchor:start;fill:#0000ff;fill-opacity:1;stroke:#000000;stroke-linecap:butt;stroke-linejoin:miter;stroke-miterlimit:10.43299961;stroke-dasharray:none;stroke-dashoffset:0;stroke-opacity:1"><path d="m 156.98,664.89 -0.22,0 c -0.17,-0.3 -0.36,-0.31 -0.49,-0.31 -0.61,0 -1.2,0.31 -1.84,0.31 -2.8,0 -5.14,-1.89 -5.14,-4.56 0,-1.72 1.11,-3.24 3.34,-3.24 0.46,0 1.35,0.08 2.25,0.71 0.33,0.25 0.72,0.59 1.03,1.08 l -0.23,0.14 c -0.06,-0.08 -0.11,-0.14 -0.2,-0.22 -0.52,-0.58 -1.36,-1.14 -2.5,-1.14 -1.58,0 -2.27,1.18 -2.27,2.48 0,1.98 1.38,4.31 3.7,4.31 1.41,0 1.77,-0.9 1.77,-1.67 0,-0.28 0,-0.39 -0.03,-0.48 l 0.19,0 0.64,2.59 z" id="path12645" style="fill:#0000ff;fill-opacity:1;stroke-width:0" /></g>    </g>
    <path id="path12073" d="m 349.98613,232.57781 55.59676,-80.79069" style="fill:none;stroke:#000000;stroke-width:1;stroke-linecap:butt;stroke-linejoin:miter;stroke-miterlimit:4;stroke-dasharray:none;stroke-opacity:1" />
    <path id="path12073-0" d="m 349.88889,232.12907 55.59676,80.79069" style="fill:none;stroke:#000000;stroke-width:1;stroke-linecap:butt;stroke-linejoin:miter;stroke-miterlimit:4;stroke-dasharray:none;stroke-opacity:1" />
    <path style="fill:none;fill-rule:evenodd;stroke:#000000;stroke-width:1;stroke-linecap:butt;stroke-linejoin:miter;stroke-opacity:1;stroke-miterlimit:4;stroke-dasharray:6,6;stroke-dashoffset:0" d="m 350.01786,232.11831 55.05331,0" id="path5494" />
    <g transform="matrix(1.5,0,0,1.5,31.274119,23.253814)" ns0:text="$\\sigma/2$" ns0:preamble="/Users/jdg18/CMEP/Miscellaneous/underground-inkscape-preamble.tex" id="g5514">
      <defs id="defs5516">
        <g id="g5518">
          <symbol overflow="visible" id="textext-f90ed2cb-0" style="overflow:visible">
            <path style="stroke:none" d="m 2.953125,0 0,-8.09375 L 0,-8.09375 0,0 Z m -0.78125,-0.796875 -1.390625,0 0,-6.515625 1.390625,0 z m 0,0" id="path5521" />
          </symbol>
          <symbol overflow="visible" id="textext-f90ed2cb-1" style="overflow:visible">
            <path style="stroke:none" d="m 6.484375,-5.0625 -2.9375,0 c -1.53125,0 -3.078125,1.28125 -3.078125,3.296875 0,0.859375 0.46875,1.890625 1.6875,1.890625 1.71875,0 3.03125,-1.3125 3.03125,-2.640625 0,-0.890625 -0.734375,-0.9375 -1,-1.6875 l 2.046875,0 z m -3.09375,0.859375 c 0.390625,0.234375 0.84375,0.765625 0.84375,1.53125 0,0.953125 -0.859375,2.453125 -2.03125,2.453125 -0.640625,0 -0.765625,-0.828125 -0.765625,-1.21875 0,-1.671875 1.125,-2.703125 1.921875,-2.765625 z m 0,0" id="path5524" />
          </symbol>
          <symbol overflow="visible" id="textext-f90ed2cb-2" style="overflow:visible">
            <path style="stroke:none" d="m 3.40625,-8 -0.796875,0 -2.71875,8.171875 0.8125,0 z m 0,0" id="path5527" />
          </symbol>
          <symbol overflow="visible" id="textext-f90ed2cb-3" style="overflow:visible">
            <path style="stroke:none" d="M 5.609375,-1.625 5.453125,-1.6875 C 5.0625,-1.03125 4.8125,-0.90625 4.3125,-0.90625 l -2.765625,0 L 3.5,-2.984375 c 1.046875,-1.109375 1.515625,-2 1.515625,-2.9375 C 5.015625,-7.09375 4.15625,-8 2.8125,-8 1.359375,-8 0.609375,-7.03125 0.359375,-5.65625 l 0.25,0.0625 C 1.078125,-6.75 1.5,-7.125 2.34375,-7.125 c 1.015625,0 1.640625,0.59375 1.640625,1.671875 0,1 -0.421875,1.90625 -1.53125,3.078125 l -2.109375,2.234375 0,0.140625 4.625,0 z m 0,0" id="path5530" />
          </symbol>
        </g>
      </defs>
      <g id="textext-f90ed2cb-4">
        <g style="fill:#000000;fill-opacity:1" id="g5533">
          <use xlink:href="#textext-f90ed2cb-1" x="223.43201" y="134.765" id="use5535" width="100%" height="100%" />
        </g>
        <g style="fill:#000000;fill-opacity:1" id="g5537">
          <use xlink:href="#textext-f90ed2cb-2" x="230.38676" y="134.765" id="use5539" width="100%" height="100%" />
          <use xlink:href="#textext-f90ed2cb-3" x="233.6805" y="134.765" id="use5541" width="100%" height="100%" />
        </g>
      </g>
    </g>
    <g transform="matrix(1.5,0,0,1.5,64.144687,127.27922)" ns0:text="$P$" ns0:preamble="/Users/jdg18/CMEP/Miscellaneous/underground-inkscape-preamble.tex" id="g5716">
      <defs id="defs5718">
        <g id="g5720">
          <symbol style="overflow:visible" overflow="visible" id="textext-9169ae96-0">
            <path style="stroke:none" d="m 2.953125,0 0,-8.09375 L 0,-8.09375 0,0 Z m -0.78125,-0.796875 -1.390625,0 0,-6.515625 1.390625,0 z m 0,0" id="path5723" />
          </symbol>
          <symbol style="overflow:visible" overflow="visible" id="textext-9169ae96-1">
            <path style="stroke:none" d="m 2.375,-7.734375 -0.046875,0.1875 0.234375,0 c 0.71875,0 0.921875,0.1875 0.921875,0.4375 0,0.09375 -0.03125,0.203125 -0.046875,0.296875 l -1.484375,5.890625 c -0.109375,0.40625 -0.34375,0.734375 -1.25,0.734375 L 0.5,-0.1875 0.453125,0 l 4.03125,0 0.046875,-0.1875 -0.375,0 C 3.453125,-0.1875 3.25,-0.359375 3.25,-0.65625 c 0,-0.09375 0,-0.171875 0.03125,-0.265625 L 3.9375,-3.5625 c 0.046875,0.015625 0.09375,0.015625 0.15625,0.015625 0.28125,0.046875 0.53125,0.0625 0.875,0.0625 2.40625,0 3.375,-1.1875 3.375,-2.359375 0,-0.875 -0.734375,-1.890625 -2.75,-1.890625 z m 2.5,0.46875 c 0.1875,-0.015625 0.375,-0.03125 0.578125,-0.03125 1.125,0 1.46875,0.625 1.46875,1.34375 0,1.203125 -0.9375,2.03125 -2.15625,2.03125 -0.234375,0 -0.515625,-0.046875 -0.703125,-0.09375 z m 0,0" id="path5726" />
          </symbol>
        </g>
      </defs>
      <g id="textext-9169ae96-2">
        <g style="fill:#000000;fill-opacity:1" id="g5729">
          <use height="100%" width="100%" xlink:href="#textext-9169ae96-1" x="223.43201" y="134.765" id="use5731" />
        </g>
      </g>
    </g>
    <g id="g5841" ns0:preamble="/Users/jdg18/CMEP/Miscellaneous/underground-inkscape-preamble.tex" ns0:text="$O$" transform="matrix(1.5,0,0,1.5,-1.5152294,35.355339)">
      <defs id="defs5843">
        <g id="g5845">
          <symbol style="overflow:visible" id="textext-d3f85a63-0" overflow="visible">
            <path id="path5848" d="m 2.953125,0 0,-8.09375 L 0,-8.09375 0,0 Z m -0.78125,-0.796875 -1.390625,0 0,-6.515625 1.390625,0 z m 0,0" style="stroke:none" />
          </symbol>
          <symbol style="overflow:visible" id="textext-d3f85a63-1" overflow="visible">
            <path id="path5851" d="m 8.4375,-4.96875 c 0,-1.5 -0.96875,-2.953125 -2.953125,-2.953125 -3.015625,0 -4.890625,2.890625 -4.890625,5.296875 0,1.625 1.234375,2.75 3,2.75 2.984375,0 4.84375,-2.75 4.84375,-5.09375 z M 7.0625,-5.25 c 0,1.671875 -0.875,4.9375 -3.375,4.9375 -0.921875,0 -1.65625,-0.640625 -1.65625,-1.78125 0,-1.6875 0.609375,-5.390625 3.359375,-5.390625 1.1875,0 1.671875,0.96875 1.671875,2.234375 z m 0,0" style="stroke:none" />
          </symbol>
        </g>
      </defs>
      <g id="textext-d3f85a63-2">
        <g id="g5854" style="fill:#000000;fill-opacity:1">
          <use height="100%" width="100%" id="use5856" y="134.765" x="223.43201" xlink:href="#textext-d3f85a63-1" />
        </g>
      </g>
    </g>
    <g transform="matrix(1.5,0,0,1.5,72.730983,-50.002551)" ns0:text="$Q$" ns0:preamble="/Users/jdg18/CMEP/Miscellaneous/underground-inkscape-preamble.tex" id="g5986">
      <defs id="defs5988">
        <g id="g5990">
          <symbol style="overflow:visible" overflow="visible" id="textext-45863be3-0">
            <path style="stroke:none" d="m 2.953125,0 0,-8.09375 L 0,-8.09375 0,0 Z m -0.78125,-0.796875 -1.390625,0 0,-6.515625 1.390625,0 z m 0,0" id="path5993" />
          </symbol>
          <symbol style="overflow:visible" overflow="visible" id="textext-45863be3-1">
            <path style="stroke:none" d="M 0.984375,1.359375 1.109375,1.5 c 0.328125,-0.15625 0.59375,-0.203125 0.6875,-0.203125 0.359375,0 1,0.1875 1.59375,0.3125 0.4375,0.09375 1.046875,0.1875 1.671875,0.1875 C 6.46875,1.796875 7.296875,1.25 8,0.390625 l -0.15625,-0.125 c -0.59375,0.625 -1.15625,0.78125 -1.609375,0.78125 -1.03125,0 -2.140625,-0.40625 -2.90625,-0.40625 -0.15625,0 -0.3125,0.015625 -0.515625,0.046875 L 2.765625,0.625 3.53125,0.125 c 2.90625,0 5.125,-2.6875 5.125,-5.09375 0,-1.84375 -1.09375,-2.9375 -2.828125,-2.9375 -3.015625,0 -5.234375,2.859375 -5.234375,5.28125 0,1.5625 0.984375,2.515625 2.328125,2.71875 z M 7.25,-5.53125 c 0,1.859375 -1.109375,5.21875 -3.6875,5.21875 -0.9375,0 -1.546875,-0.625 -1.546875,-1.765625 0,-1.640625 1.0625,-5.390625 3.6875,-5.390625 0.78125,0 1.546875,0.375 1.546875,1.9375 z m 0,0" id="path5996" />
          </symbol>
        </g>
      </defs>
      <g id="textext-45863be3-2">
        <g style="fill:#000000;fill-opacity:1" id="g5999">
          <use height="100%" width="100%" xlink:href="#textext-45863be3-1" x="223.43201" y="134.765" id="use6001" />
        </g>
      </g>
    </g>
    <path id="path12073-7" d="m 335.41237,221.52127 55.59676,-80.79069" style="fill:none;stroke:#000000;stroke-width:1;stroke-linecap:butt;stroke-linejoin:miter;stroke-miterlimit:4;stroke-dasharray:none;stroke-opacity:1;marker-start:url(#Arrow1Mstart);marker-end:url(#Arrow1Mend)" />
    <path id="path12073-0-5" d="m 335.39207,244.2103 55.59676,80.79069" style="fill:none;stroke:#000000;stroke-width:1;stroke-linecap:butt;stroke-linejoin:miter;stroke-miterlimit:4;stroke-dasharray:none;stroke-opacity:1;marker-start:url(#marker11288);marker-end:url(#Arrow1Mend)" />
    <path d="m 358.82494,219.78839 a 15.152288,15.152288 0 0 1 6.34452,12.47403" id="path11344" style="fill:none;stroke:#000000;stroke-width:0.69999999;stroke-miterlimit:4;stroke-dasharray:none;stroke-dashoffset:0;fill-opacity:0.97000002;stroke-opacity:0.97000002" />
    <g id="g4312" transform="matrix(1.5,0,0,1.5,10.630378,94.340138)" ns0:preamble="/Users/jdg18/CMEP/Miscellaneous/underground-inkscape-preamble.tex" ns0:text="$1$">
      <defs id="defs4314">
        <g id="g4316">
          <symbol id="textext-63d77e31-0" overflow="visible">
            <path id="path4319" d="M 2.953125 0 L 2.953125 -8.09375 L 0 -8.09375 L 0 0 Z M 2.171875 -0.796875 L 0.78125 -0.796875 L 0.78125 -7.3125 L 2.171875 -7.3125 Z M 2.171875 -0.796875 " style="stroke:none;" />
          </symbol>
          <symbol id="textext-63d77e31-1" overflow="visible">
            <path id="path4322" d="M 4.671875 0 L 4.671875 -0.171875 C 3.78125 -0.171875 3.546875 -0.390625 3.546875 -0.90625 L 3.546875 -7.96875 L 3.4375 -8 L 1.3125 -6.921875 L 1.3125 -6.765625 L 1.640625 -6.875 C 1.84375 -6.96875 2.046875 -7.015625 2.171875 -7.015625 C 2.421875 -7.015625 2.515625 -6.84375 2.515625 -6.4375 L 2.515625 -1.125 C 2.515625 -0.46875 2.28125 -0.21875 1.390625 -0.171875 L 1.390625 0 Z M 4.671875 0 " style="stroke:none;" />
          </symbol>
        </g>
      </defs>
      <g id="textext-63d77e31-2">
        <g id="g4325" style="fill:rgb(0%,0%,0%);fill-opacity:1;">
          <use id="use4327" y="134.765" x="223.432" xlink:href="#textext-63d77e31-1" />
        </g>
      </g>
    </g>
    <g ns0:text="$1$" ns0:preamble="/Users/jdg18/CMEP/Miscellaneous/underground-inkscape-preamble.tex" transform="matrix(1.5,0,0,1.5,13.677669,-26.223356)" id="g4493">
      <defs id="defs4495" />
      <g id="g4507">
        <g style="fill:rgb(0%,0%,0%);fill-opacity:1;" id="g4509">
          <use xlink:href="#textext-63d77e31-1" x="223.432" y="134.765" id="use4511" />
        </g>
      </g>
    </g>
  </g>
</svg>