<?xml version='1.0' ?><svg xmlns:ns0="http://www.iki.fi/pav/software/textext/" xmlns:dc="http://purl.org/dc/elements/1.1/" xmlns:cc="http://creativecommons.org/ns#" xmlns:rdf="http://www.w3.org/1999/02/22-rdf-syntax-ns#" xmlns:svg="http://www.w3.org/2000/svg" xmlns="http://www.w3.org/2000/svg" version="1.1" id="svg5803" width="511.91205" height="235.28798" viewBox="61.59428906258473 50.85036654964131 479.9175468756602 220.58248125030343" preserveAspectRatio="none">
  <defs id="defs5805">
    <marker orient="auto" refY="0.0" refX="0.0" id="marker6655" style="overflow:visible;">
      <path id="path6657" style="fill-rule:evenodd;stroke-width:0.625;stroke-linejoin:round;stroke:#000000;stroke-opacity:1;fill:#000000;fill-opacity:1" d="M 8.7185878,4.0337352 L -2.2072895,0.016013256 L 8.7185884,-4.0017078 C 6.9730900,-1.6296469 6.9831476,1.6157441 8.7185878,4.0337352 z " transform="scale(0.6) rotate(180) translate(0,0)" />
    </marker>
    <marker style="overflow:visible;" id="Arrow2Mend" refX="0.0" refY="0.0" orient="auto">
      <path transform="scale(0.6) rotate(180) translate(0,0)" d="M 8.7185878,4.0337352 L -2.2072895,0.016013256 L 8.7185884,-4.0017078 C 6.9730900,-1.6296469 6.9831476,1.6157441 8.7185878,4.0337352 z " style="fill-rule:evenodd;stroke-width:0.625;stroke-linejoin:round;stroke:#000000;stroke-opacity:1;fill:#000000;fill-opacity:1" id="path6386" />
    </marker>
  </defs>
  <metadata id="metadata5808">
    <rdf:RDF>
      <cc:Work rdf:about="">
        <dc:format>image/svg+xml</dc:format>
        <dc:type rdf:resource="http://purl.org/dc/dcmitype/StillImage" />
        <dc:title />
      </cc:Work>
    </rdf:RDF>
  </metadata>
  <g id="layer1">
    <circle r="3" cy="231.21925" cx="100" id="path6748" style="fill:#000000;stroke:none;stroke-width:1;stroke-miterlimit:4;stroke-dasharray:6, 6;stroke-dashoffset:0;fill-opacity:0.97000002;stroke-opacity:0.97000002" />
    <path id="path6353" d="m 80,252.3622 460,0" style="fill:none;fill-rule:evenodd;stroke:#000000;stroke-width:1px;stroke-linecap:butt;stroke-linejoin:miter;stroke-opacity:1;marker-end:url(#Arrow2Mend)" />
    <path id="path6647" d="M 80,252.3622 80,52.362205" style="fill:none;fill-rule:evenodd;stroke:#000000;stroke-width:1px;stroke-linecap:butt;stroke-linejoin:miter;stroke-opacity:1;marker-end:url(#marker6655)" />
    <g style="font-style:normal;font-variant:normal;font-weight:normal;font-stretch:normal;letter-spacing:normal;word-spacing:normal;text-anchor:start;fill:none;fill-opacity:1;fill-rule:evenodd;stroke:#000000;stroke-linecap:butt;stroke-linejoin:miter;stroke-miterlimit:10.43299961;stroke-dasharray:none;stroke-dashoffset:0;stroke-opacity:1" ns0:preamble="/Users/jdg18/CMEP/Miscellaneous/underground-inkscape-preamble.tex" ns0:text="$n$" word-spacing="normal" letter-spacing="normal" font-size-adjust="none" font-stretch="normal" font-weight="normal" font-variant="normal" font-style="normal" stroke-miterlimit="10.433" xml:space="preserve" transform="matrix(1.5,0,0,-1.5,195,987.14285)" id="content"><path style="fill:#000000;stroke-width:0" id="path6696" d="m 228.96,478.37 -0.15,0.13 c -0.17,-0.2 -0.45,-0.63 -0.74,-0.63 -0.12,0 -0.16,0.1 -0.17,0.17 0,0.06 0,0.09 0.01,0.12 l 0.7,2.72 c 0.06,0.24 0.13,0.53 0.13,0.83 0,0.39 -0.14,0.73 -0.67,0.73 -0.71,0 -1.42,-0.78 -1.89,-1.37 -0.02,-0.03 -0.6,-0.86 -0.66,-0.86 l -0.04,0 0.61,2.23 -1.89,-0.27 0.03,-0.18 c 0.08,0.02 0.21,0.04 0.33,0.04 0.32,0 0.35,-0.17 0.35,-0.38 l -1.12,-4.42 0.91,0 0.39,1.47 c 0.07,0.25 0.38,0.8 0.81,1.44 0.36,0.55 1.11,1.57 1.56,1.57 0.21,0 0.28,-0.23 0.28,-0.45 0,-0.16 -0.06,-0.4 -0.08,-0.49 l -0.67,-2.61 c -0.04,-0.13 -0.09,-0.32 -0.09,-0.48 0,-0.27 0.11,-0.54 0.49,-0.54 0.61,0 1.18,0.76 1.51,1.16 z" /></g>    <g style="font-style:normal;font-variant:normal;font-weight:normal;font-stretch:normal;letter-spacing:normal;word-spacing:normal;text-anchor:start;fill:none;fill-opacity:1;fill-rule:evenodd;stroke:#000000;stroke-linecap:butt;stroke-linejoin:miter;stroke-miterlimit:10.43299961;stroke-dasharray:none;stroke-dashoffset:0;stroke-opacity:1" id="g6724" transform="matrix(1.5,0,0,-1.5,-274.28571,855)" xml:space="preserve" stroke-miterlimit="10.433" font-style="normal" font-variant="normal" font-weight="normal" font-stretch="normal" font-size-adjust="none" letter-spacing="normal" word-spacing="normal" ns0:text="$3$" ns0:preamble="/Users/jdg18/CMEP/Miscellaneous/underground-inkscape-preamble.tex"><path style="fill:#000000;stroke-width:0" d="m 224.15,483.26 0.05,0.08 0.05,0.07 0.04,0.08 0.05,0.07 0.05,0.07 0.04,0.07 0.05,0.06 0.05,0.06 0.05,0.06 0.05,0.05 0.05,0.06 0.05,0.05 0.05,0.04 0.06,0.05 0.05,0.04 0.05,0.04 0.06,0.04 0.05,0.03 0.06,0.03 0.06,0.03 0.05,0.03 0.06,0.02 0.06,0.03 0.06,0.02 0.06,0.01 0.07,0.02 0.06,0.01 0.06,0.01 0.07,0.01 0.06,0 0.07,0.01 0.07,0 c 0.78,0 1.28,-0.4 1.28,-1.21 0,-0.72 -0.38,-1.25 -0.96,-1.58 -0.24,-0.14 -0.55,-0.27 -1,-0.42 l 0,-0.17 c 0.68,0 0.95,-0.03 1.21,-0.12 0.82,-0.23 1.23,-0.81 1.23,-1.71 0,-1 -0.66,-1.81 -1.54,-1.81 -0.33,0 -0.58,0.06 -1.01,0.37 -0.34,0.24 -0.53,0.31 -0.73,0.31 -0.27,0 -0.48,-0.18 -0.48,-0.43 0,-0.42 0.46,-0.67 1.32,-0.67 1.06,0 2.18,0.34 2.75,1.1 0.35,0.45 0.55,1.03 0.55,1.65 0,0.61 -0.19,1.16 -0.52,1.52 -0.25,0.26 -0.47,0.4 -0.99,0.63 0.8,0.47 1.1,1.06 1.1,1.63 0,0.97 -0.74,1.62 -1.84,1.62 -1.24,0 -1.98,-0.8 -2.33,-1.92 z" id="path6726" /></g>    <path id="path6742" d="m 80,132.36218 440,0" style="fill:none;fill-rule:evenodd;stroke:#ff0000;stroke-width:1px;stroke-linecap:butt;stroke-linejoin:miter;stroke-opacity:1" />
    <path id="path6744" d="m 80,112.36218 440,0" style="fill:none;fill-rule:evenodd;stroke:#000000;stroke-width:1;stroke-linecap:butt;stroke-linejoin:miter;stroke-opacity:1;stroke-miterlimit:4;stroke-dasharray:6,6;stroke-dashoffset:0" />
    <path id="path6746" d="m 80,152.36218 440,0" style="fill:none;fill-rule:evenodd;stroke:#000000;stroke-width:1;stroke-linecap:butt;stroke-linejoin:miter;stroke-opacity:1;stroke-miterlimit:4;stroke-dasharray:6,6;stroke-dashoffset:0" />
    <circle r="3" cy="131.93355" cx="520" id="path6748-9" style="fill:#000000;stroke:none;stroke-width:1;stroke-miterlimit:4;stroke-dasharray:6, 6;stroke-dashoffset:0;fill-opacity:0.97000002;stroke-opacity:0.97000002" />
    <circle r="3" cy="131.93355" cx="499.31973" id="path6748-6" style="fill:#000000;stroke:none;stroke-width:1;stroke-miterlimit:4;stroke-dasharray:6, 6;stroke-dashoffset:0;fill-opacity:0.97000002;stroke-opacity:0.97000002" />
    <circle r="3" cy="133.36212" cx="479.35373" id="path6748-8" style="fill:#000000;stroke:none;stroke-width:1;stroke-miterlimit:4;stroke-dasharray:6, 6;stroke-dashoffset:0;fill-opacity:0.97000002;stroke-opacity:0.97000002" />
    <circle r="3" cy="134.07642" cx="459.38776" id="path6748-80" style="fill:#000000;stroke:none;stroke-width:1;stroke-miterlimit:4;stroke-dasharray:6, 6;stroke-dashoffset:0;fill-opacity:0.97000002;stroke-opacity:0.97000002" />
    <circle r="3" cy="130.50499" cx="439.42175" id="path6748-4" style="fill:#000000;stroke:none;stroke-width:1;stroke-miterlimit:4;stroke-dasharray:6, 6;stroke-dashoffset:0;fill-opacity:0.97000002;stroke-opacity:0.97000002" />
    <circle r="3" cy="132.36218" cx="419.45578" id="path6748-20" style="fill:#000000;stroke:none;stroke-width:1;stroke-miterlimit:4;stroke-dasharray:6, 6;stroke-dashoffset:0;fill-opacity:0.97000002;stroke-opacity:0.97000002" />
    <circle r="3" cy="134.07642" cx="399.48981" id="path6748-83" style="fill:#000000;stroke:none;stroke-width:1;stroke-miterlimit:4;stroke-dasharray:6, 6;stroke-dashoffset:0;fill-opacity:0.97000002;stroke-opacity:0.97000002" />
    <circle r="3" cy="134.7907" cx="379.5238" id="path6748-44" style="fill:#000000;stroke:none;stroke-width:1;stroke-miterlimit:4;stroke-dasharray:6, 6;stroke-dashoffset:0;fill-opacity:0.97000002;stroke-opacity:0.97000002" />
    <circle r="3" cy="136.93355" cx="359.55783" id="path6748-99" style="fill:#000000;stroke:none;stroke-width:1;stroke-miterlimit:4;stroke-dasharray:6, 6;stroke-dashoffset:0;fill-opacity:0.97000002;stroke-opacity:0.97000002" />
    <circle r="3" cy="126.93356" cx="339.59183" id="path6748-7" style="fill:#000000;stroke:none;stroke-width:1;stroke-miterlimit:4;stroke-dasharray:6, 6;stroke-dashoffset:0;fill-opacity:0.97000002;stroke-opacity:0.97000002" />
    <circle r="3" cy="139.07642" cx="319.62585" id="path6748-48" style="fill:#000000;stroke:none;stroke-width:1;stroke-miterlimit:4;stroke-dasharray:6, 6;stroke-dashoffset:0;fill-opacity:0.97000002;stroke-opacity:0.97000002" />
    <circle r="3" cy="127.64784" cx="299.65985" id="path6748-3" style="fill:#000000;stroke:none;stroke-width:1;stroke-miterlimit:4;stroke-dasharray:6, 6;stroke-dashoffset:0;fill-opacity:0.97000002;stroke-opacity:0.97000002" />
    <circle r="3" cy="141.93355" cx="279.69388" id="path6748-5" style="fill:#000000;stroke:none;stroke-width:1;stroke-miterlimit:4;stroke-dasharray:6, 6;stroke-dashoffset:0;fill-opacity:0.97000002;stroke-opacity:0.97000002" />
    <circle r="3" cy="126.93356" cx="259.72791" id="path6748-62" style="fill:#000000;stroke:none;stroke-width:1;stroke-miterlimit:4;stroke-dasharray:6, 6;stroke-dashoffset:0;fill-opacity:0.97000002;stroke-opacity:0.97000002" />
    <circle r="3" cy="147.64784" cx="239.76192" id="path6748-92" style="fill:#000000;stroke:none;stroke-width:1;stroke-miterlimit:4;stroke-dasharray:6, 6;stroke-dashoffset:0;fill-opacity:0.97000002;stroke-opacity:0.97000002" />
    <circle r="3" cy="95.50499" cx="219.7959" id="path6748-200" style="fill:#000000;stroke:none;stroke-width:1;stroke-miterlimit:4;stroke-dasharray:6, 6;stroke-dashoffset:0;fill-opacity:0.97000002;stroke-opacity:0.97000002" />
    <circle r="3" cy="126.21928" cx="199.82993" id="path6748-31" style="fill:#000000;stroke:none;stroke-width:1;stroke-miterlimit:4;stroke-dasharray:6, 6;stroke-dashoffset:0;fill-opacity:0.97000002;stroke-opacity:0.97000002" />
    <circle r="3" cy="164.7907" cx="179.86395" id="path6748-40" style="fill:#000000;stroke:none;stroke-width:1;stroke-miterlimit:4;stroke-dasharray:6, 6;stroke-dashoffset:0;fill-opacity:0.97000002;stroke-opacity:0.97000002" />
    <circle r="3" cy="145.50499" cx="159.89795" id="path6748-1" style="fill:#000000;stroke:none;stroke-width:1;stroke-miterlimit:4;stroke-dasharray:6, 6;stroke-dashoffset:0;fill-opacity:0.97000002;stroke-opacity:0.97000002" />
    <circle r="3" cy="105.50498" cx="139.93198" id="path6748-401" style="fill:#000000;stroke:none;stroke-width:1;stroke-miterlimit:4;stroke-dasharray:6, 6;stroke-dashoffset:0;fill-opacity:0.97000002;stroke-opacity:0.97000002" />
    <circle r="3" cy="132.36218" cx="119.96603" id="path6748-95" style="fill:#000000;stroke:none;stroke-width:1;stroke-miterlimit:4;stroke-dasharray:6, 6;stroke-dashoffset:0;fill-opacity:0.97000002;stroke-opacity:0.97000002" />
  </g>
</svg>