<?xml version='1.0' ?><svg xmlns:ns0="http://www.iki.fi/pav/software/textext/" xmlns:dc="http://purl.org/dc/elements/1.1/" xmlns:cc="http://creativecommons.org/ns#" xmlns:rdf="http://www.w3.org/1999/02/22-rdf-syntax-ns#" xmlns:svg="http://www.w3.org/2000/svg" xmlns="http://www.w3.org/2000/svg" id="svg2" version="1.1" width="436.64887" height="227.20969" viewBox="-2.4042311968140785e-5 651.7047586340173 344.00004984262347 178.9999930258082" preserveAspectRatio="none">
  <metadata id="metadata485">
    <rdf:RDF>
      <cc:Work rdf:about="">
        <dc:format>image/svg+xml</dc:format>
        <dc:type rdf:resource="http://purl.org/dc/dcmitype/StillImage" />
        <dc:title />
      </cc:Work>
    </rdf:RDF>
  </metadata>
  <defs id="defs483" />
  <g transform="translate(0,650.59076)" style="stroke-width:1;stroke-linecap:square;stroke-linejoin:miter;stroke-miterlimit:10;stroke-dasharray:none;stroke-dashoffset:0" id="g6" stroke-miterlimit="10.000">
    <clipPath id="clip1">
      <path id="path9" d="m 0,0 0,179 344,0 0,-179 z" />
    </clipPath>
    <g id="g11" clip-path="url(#clip1)">
      <g style="fill:none;stroke:#000000;stroke-linecap:butt;stroke-opacity:1" id="g13">
        <path id="path15" d="m 75.325,2 0,177" />
      </g>
    </g>
    <clipPath id="clip2">
      <path id="path18" d="m 0,0 0,179 344,0 0,-179 z" />
    </clipPath>
    <g id="g20" clip-path="url(#clip2)">
      <g style="fill:none;stroke:#000000;stroke-linecap:butt;stroke-opacity:1" id="g22">
        <path id="path24" d="m 75.325,1 -4,4" />
      </g>
    </g>
    <clipPath id="clip3">
      <path id="path27" d="m 0,0 0,179 344,0 0,-179 z" />
    </clipPath>
    <g id="g29" clip-path="url(#clip3)">
      <g style="fill:none;stroke:#000000;stroke-linecap:butt;stroke-opacity:1" id="g31">
        <path id="path33" d="m 75.325,1 4,4" />
      </g>
    </g>
    <clipPath id="clip4">
      <path id="path36" d="m 0,0 0,179 344,0 0,-179 z" />
    </clipPath>
    <g id="g38" clip-path="url(#clip4)">
      <g style="fill:none;stroke:#000000;stroke-linecap:butt;stroke-opacity:1" id="g40">
        <path id="path42" d="m 72.325,186.72 3,0" />
      </g>
    </g>
    <clipPath id="clip5">
      <path id="path45" d="m 0,0 0,179 344,0 0,-179 z" />
    </clipPath>
    <g id="g47" clip-path="url(#clip5)">
      <g style="fill:#000000;fill-opacity:1;fill-rule:nonzero;stroke:none" id="g49">
        <path id="path51" d="m 64.518,135 0,-2.46 -3.903,0 0,-0.87 3.903,-5.34 1.084,0 0,5.27 1.16,0 0,0.94 -1.16,0 0,2.46 z m -2.772,-3.4 2.848,0 0,-3.85 z" />
      </g>
    </g>
    <clipPath id="clip6">
      <path id="path54" d="m 0,0 0,179 344,0 0,-179 z" />
    </clipPath>
    <g id="g56" clip-path="url(#clip6)">
      <g style="fill:none;stroke:#000000;stroke-linecap:butt;stroke-opacity:1" id="g58">
        <path id="path60" d="m 72.325,130.72 3,0" />
      </g>
    </g>
    <clipPath id="clip7">
      <path id="path63" d="m 0,0 0,179 344,0 0,-179 z" />
    </clipPath>
    <g id="g65" clip-path="url(#clip7)">
      <g style="fill:#000000;fill-opacity:1;fill-rule:nonzero;stroke:none" id="g67">
        <path id="path69" d="m 62.062,74.506 q 0.827,-1.072 2.081,-1.072 1.136,0 1.86,0.753 0.724,0.752 0.724,1.93 0,1.354 -0.812,2.227 -0.811,0.873 -2.06,0.873 -1.435,0 -2.244,-1.155 -0.808,-1.154 -0.808,-3.205 0,-2.255 0.928,-3.503 0.929,-1.249 2.617,-1.249 0.773,0 1.933,0.329 l 0,1.007 q -1.224,-0.468 -2.004,-0.468 -2.215,0 -2.215,3.533 z m 3.504,1.869 q 0,-0.984 -0.442,-1.547 -0.442,-0.562 -1.228,-0.562 -0.732,0 -1.259,0.492 -0.528,0.492 -0.528,1.183 0,1.09 0.501,1.749 0.501,0.66 1.328,0.66 0.744,0 1.186,-0.537 0.442,-0.536 0.442,-1.438 z" />
      </g>
    </g>
    <clipPath id="clip8">
      <path id="path72" d="m 0,0 0,179 344,0 0,-179 z" />
    </clipPath>
    <g id="g74" clip-path="url(#clip8)">
      <g style="fill:none;stroke:#000000;stroke-linecap:butt;stroke-opacity:1" id="g76">
        <path id="path78" d="m 72.325,74.731 3,0" />
      </g>
    </g>
    <clipPath id="clip9">
      <path id="path81" d="m 0,0 0,179 344,0 0,-179 z" />
    </clipPath>
    <g id="g83" clip-path="url(#clip9)">
      <g style="fill:#000000;fill-opacity:1;fill-rule:nonzero;stroke:none" id="g85">
        <path id="path87" d="m 62.76,18.277 q -1.272,-0.884 -1.272,-1.957 0,-0.984 0.721,-1.599 0.721,-0.616 1.881,-0.616 1.072,0 1.737,0.522 0.665,0.521 0.665,1.353 0,1.26 -1.617,2.297 1.963,0.961 1.963,2.479 0,1.09 -0.823,1.775 -0.824,0.686 -2.124,0.686 -1.278,0 -2.066,-0.648 -0.788,-0.647 -0.788,-1.702 0,-1.558 1.723,-2.59 z m 1.47,-0.363 q 1.213,-0.797 1.213,-1.775 0,-0.522 -0.404,-0.841 -0.404,-0.319 -1.066,-0.319 -0.639,0 -1.037,0.313 -0.399,0.313 -0.399,0.812 0,0.486 0.36,0.87 0.361,0.383 1.333,0.94 z m -0.843,0.832 q -0.698,0.539 -0.947,0.941 -0.249,0.401 -0.249,0.999 0,0.744 0.481,1.204 0.48,0.46 1.266,0.46 0.755,0 1.233,-0.393 0.477,-0.393 0.477,-1.019 0,-0.504 -0.295,-0.853 -0.296,-0.349 -1.146,-0.853 z" />
      </g>
    </g>
    <clipPath id="clip10">
      <path id="path90" d="m 0,0 0,179 344,0 0,-179 z" />
    </clipPath>
    <g id="g92" clip-path="url(#clip10)">
      <g style="fill:none;stroke:#000000;stroke-linecap:butt;stroke-opacity:1" id="g94">
        <path id="path96" d="m 72.325,18.738 3,0" />
      </g>
    </g>
    <clipPath id="clip11">
      <path id="path99" d="m 0,0 0,179 344,0 0,-179 z" />
    </clipPath>
    <g id="g101" clip-path="url(#clip11)" />
    <clipPath id="clip12">
      <path id="path108" d="m 0,0 0,179 344,0 0,-179 z" />
    </clipPath>
    <clipPath id="clip13">
      <path id="path117" d="m 0,0 0,179 344,0 0,-179 z" />
    </clipPath>
    <g id="g119" clip-path="url(#clip13)">
      <g style="fill:none;stroke:#c0c0c0;stroke-linecap:round;stroke-linejoin:round;stroke-opacity:1" id="g121">
        <path id="path123" d="m 19.332,0 0,179" />
      </g>
    </g>
    <clipPath id="clip14">
      <path id="path126" d="m 0,0 0,179 344,0 0,-179 z" />
    </clipPath>
    <g id="g128" clip-path="url(#clip14)">
      <g style="fill:none;stroke:#c0c0c0;stroke-linecap:round;stroke-linejoin:round;stroke-opacity:1" id="g130">
        <path id="path132" d="m 19.332,0 0,179" />
      </g>
    </g>
    <clipPath id="clip15">
      <path id="path135" d="m 0,0 0,179 344,0 0,-179 z" />
    </clipPath>
    <g id="g137" clip-path="url(#clip15)">
      <g style="fill:none;stroke:#c0c0c0;stroke-linecap:round;stroke-linejoin:round;stroke-opacity:1" id="g139">
        <path id="path141" d="m 47.329,0 0,179" />
      </g>
    </g>
    <clipPath id="clip16">
      <path id="path144" d="m 0,0 0,179 344,0 0,-179 z" />
    </clipPath>
    <g id="g146" clip-path="url(#clip16)">
      <g style="fill:none;stroke:#c0c0c0;stroke-linecap:round;stroke-linejoin:round;stroke-opacity:1" id="g148">
        <path id="path150" d="m 103.32,0 0,179" />
      </g>
    </g>
    <clipPath id="clip17">
      <path id="path153" d="m 0,0 0,179 344,0 0,-179 z" />
    </clipPath>
    <g id="g155" clip-path="url(#clip17)">
      <g style="fill:none;stroke:#c0c0c0;stroke-linecap:round;stroke-linejoin:round;stroke-opacity:1" id="g157">
        <path id="path159" d="m 131.32,0 0,179" />
      </g>
    </g>
    <clipPath id="clip18">
      <path id="path162" d="m 0,0 0,179 344,0 0,-179 z" />
    </clipPath>
    <g id="g164" clip-path="url(#clip18)">
      <g style="fill:none;stroke:#c0c0c0;stroke-linecap:round;stroke-linejoin:round;stroke-opacity:1" id="g166">
        <path id="path168" d="m 159.31,0 0,179" />
      </g>
    </g>
    <clipPath id="clip19">
      <path id="path171" d="m 0,0 0,179 344,0 0,-179 z" />
    </clipPath>
    <g id="g173" clip-path="url(#clip19)">
      <g style="fill:none;stroke:#c0c0c0;stroke-linecap:round;stroke-linejoin:round;stroke-opacity:1" id="g175">
        <path id="path177" d="m 187.31,0 0,179" />
      </g>
    </g>
    <clipPath id="clip20">
      <path id="path180" d="m 0,0 0,179 344,0 0,-179 z" />
    </clipPath>
    <g id="g182" clip-path="url(#clip20)">
      <g style="fill:none;stroke:#c0c0c0;stroke-linecap:round;stroke-linejoin:round;stroke-opacity:1" id="g184">
        <path id="path186" d="m 215.31,0 0,179" />
      </g>
    </g>
    <clipPath id="clip21">
      <path id="path189" d="m 0,0 0,179 344,0 0,-179 z" />
    </clipPath>
    <g id="g191" clip-path="url(#clip21)">
      <g style="fill:none;stroke:#c0c0c0;stroke-linecap:round;stroke-linejoin:round;stroke-opacity:1" id="g193">
        <path id="path195" d="m 243.3,0 0,179" />
      </g>
    </g>
    <clipPath id="clip22">
      <path id="path198" d="m 0,0 0,179 344,0 0,-179 z" />
    </clipPath>
    <g id="g200" clip-path="url(#clip22)">
      <g style="fill:none;stroke:#c0c0c0;stroke-linecap:round;stroke-linejoin:round;stroke-opacity:1" id="g202">
        <path id="path204" d="m 271.3,0 0,179" />
      </g>
    </g>
    <clipPath id="clip23">
      <path id="path207" d="m 0,0 0,179 344,0 0,-179 z" />
    </clipPath>
    <g id="g209" clip-path="url(#clip23)">
      <g style="fill:none;stroke:#c0c0c0;stroke-linecap:round;stroke-linejoin:round;stroke-opacity:1" id="g211">
        <path id="path213" d="m 299.29,0 0,179" />
      </g>
    </g>
    <clipPath id="clip24">
      <path id="path216" d="m 0,0 0,179 344,0 0,-179 z" />
    </clipPath>
    <g id="g218" clip-path="url(#clip24)">
      <g style="fill:none;stroke:#c0c0c0;stroke-linecap:round;stroke-linejoin:round;stroke-opacity:1" id="g220">
        <path id="path222" d="m 327.29,0 0,179" />
      </g>
    </g>
    <clipPath id="clip25">
      <path id="path225" d="m 0,0 0,179 344,0 0,-179 z" />
    </clipPath>
    <g id="g227" clip-path="url(#clip25)">
      <g style="fill:none;stroke:#c0c0c0;stroke-linecap:round;stroke-linejoin:round;stroke-opacity:1" id="g229">
        <path id="path231" d="m 0,18.738 57.737,0" />
      </g>
    </g>
    <clipPath id="clip26">
      <path id="path234" d="m 0,0 0,179 344,0 0,-179 z" />
    </clipPath>
    <g id="g236" clip-path="url(#clip26)">
      <g style="fill:none;stroke:#c0c0c0;stroke-linecap:round;stroke-linejoin:round;stroke-opacity:1" id="g238">
        <path id="path240" d="m 75.325,18.738 268.675,0" />
      </g>
    </g>
    <clipPath id="clip27">
      <path id="path243" d="m 0,0 0,179 344,0 0,-179 z" />
    </clipPath>
    <g id="g245" clip-path="url(#clip27)">
      <g style="fill:none;stroke:#c0c0c0;stroke-linecap:round;stroke-linejoin:round;stroke-opacity:1" id="g247">
        <path id="path249" d="m 0,18.738 57.737,0" />
      </g>
    </g>
    <clipPath id="clip28">
      <path id="path252" d="m 0,0 0,179 344,0 0,-179 z" />
    </clipPath>
    <g id="g254" clip-path="url(#clip28)">
      <g style="fill:none;stroke:#c0c0c0;stroke-linecap:round;stroke-linejoin:round;stroke-opacity:1" id="g256">
        <path id="path258" d="m 75.325,18.738 268.675,0" />
      </g>
    </g>
    <clipPath id="clip29">
      <path id="path261" d="m 0,0 0,179 344,0 0,-179 z" />
    </clipPath>
    <g id="g263" clip-path="url(#clip29)">
      <g style="fill:none;stroke:#c0c0c0;stroke-linecap:round;stroke-linejoin:round;stroke-opacity:1" id="g265">
        <path id="path267" d="m 0,46.734 344,0" />
      </g>
    </g>
    <clipPath id="clip30">
      <path id="path270" d="m 0,0 0,179 344,0 0,-179 z" />
    </clipPath>
    <g id="g272" clip-path="url(#clip30)">
      <g style="fill:none;stroke:#c0c0c0;stroke-linecap:round;stroke-linejoin:round;stroke-opacity:1" id="g274">
        <path id="path276" d="m 0,74.731 57.737,0" />
      </g>
    </g>
    <clipPath id="clip31">
      <path id="path279" d="m 0,0 0,179 344,0 0,-179 z" />
    </clipPath>
    <g id="g281" clip-path="url(#clip31)">
      <g style="fill:none;stroke:#c0c0c0;stroke-linecap:round;stroke-linejoin:round;stroke-opacity:1" id="g283">
        <path id="path285" d="m 75.325,74.731 268.675,0" />
      </g>
    </g>
    <clipPath id="clip32">
      <path id="path288" d="m 0,0 0,179 344,0 0,-179 z" />
    </clipPath>
    <g id="g290" clip-path="url(#clip32)">
      <g style="fill:none;stroke:#c0c0c0;stroke-linecap:round;stroke-linejoin:round;stroke-opacity:1" id="g292">
        <path id="path294" d="m 0,102.73 344,0" />
      </g>
    </g>
    <clipPath id="clip33">
      <path id="path297" d="m 0,0 0,179 344,0 0,-179 z" />
    </clipPath>
    <g id="g299" clip-path="url(#clip33)">
      <g style="fill:none;stroke:#c0c0c0;stroke-linecap:round;stroke-linejoin:round;stroke-opacity:1" id="g301">
        <path id="path303" d="m 0,130.72 57.737,0" />
      </g>
    </g>
    <clipPath id="clip34">
      <path id="path306" d="m 0,0 0,179 344,0 0,-179 z" />
    </clipPath>
    <g id="g308" clip-path="url(#clip34)">
      <g style="fill:none;stroke:#c0c0c0;stroke-linecap:round;stroke-linejoin:round;stroke-opacity:1" id="g310">
        <path id="path312" d="m 75.325,130.72 268.675,0" />
      </g>
    </g>
    <clipPath id="clip35">
      <path id="path315" d="m 0,0 0,179 344,0 0,-179 z" />
    </clipPath>
    <g id="g317" clip-path="url(#clip35)">
      <g style="fill:none;stroke:#c0c0c0;stroke-linecap:round;stroke-linejoin:round;stroke-opacity:1" id="g319">
        <path id="path321" d="m 0,158.72 344,0" />
      </g>
    </g>
    <g id="misc" />
    <g id="layer0">
      <clipPath id="clip36">
        <path id="path326" d="m 0,0 0,179 344,0 0,-179 z" />
      </clipPath>
      <clipPath id="clip37">
        <path id="path339" d="m 0,0 0,179 344,0 0,-179 z" />
      </clipPath>
      <clipPath id="clip38">
        <path id="path352" d="m 0,0 0,179 344,0 0,-179 z" />
      </clipPath>
      <clipPath id="clip39">
        <path id="path365" d="m 0,0 0,179 344,0 0,-179 z" />
      </clipPath>
      <clipPath id="clip40">
        <path id="path378" d="m 0,0 0,179 344,0 0,-179 z" />
      </clipPath>
      <clipPath id="clip41">
        <path id="path391" d="m 0,0 0,179 344,0 0,-179 z" />
      </clipPath>
      <clipPath id="clip42">
        <path id="path404" d="m 0,0 0,179 344,0 0,-179 z" />
      </clipPath>
      <clipPath id="clip43">
        <path id="path417" d="m 0,0 0,179 344,0 0,-179 z" />
      </clipPath>
      <clipPath id="clip44">
        <path id="path430" d="m 0,0 0,179 344,0 0,-179 z" />
      </clipPath>
      <clipPath id="clip45">
        <path id="path443" d="m 0,0 0,179 344,0 0,-179 z" />
      </clipPath>
      <clipPath id="clip46">
        <path id="path456" d="m 0,0 0,179 344,0 0,-179 z" />
      </clipPath>
      <clipPath id="clip47">
        <path id="path469" d="m 0,0 0,179 344,0 0,-179 z" />
      </clipPath>
      <g transform="translate(-1.255512,-1.2362046)" id="g4625">
        <g clip-path="url(#clip40)" id="g380">
          <g id="g382" style="fill:#000000;fill-opacity:1;fill-rule:evenodd;stroke:none">
            <path d="m 272.61,75.945 -14.39,-1.107 2.22,-6.641 z" id="path384" />
            <title id="title386">Vector d</title>
            <desc id="desc388">Vector d: Vector[J, J&#39;]</desc>
            <path id="path4623" d="m 272.61,75.945 -14.39,-1.107 2.22,-6.641 z" />
          </g>
        </g>
        <g id="g4613" clip-path="url(#clip39)">
          <g style="fill:none;stroke:#000000;stroke-linecap:round;stroke-linejoin:round;stroke-opacity:1" id="g4615">
            <path id="path4617" d="m 188.62,47.949 70.71,23.569" />
            <title id="title4619">Vector d</title>
            <desc id="desc4621">Vector d: Vector[J, J&#39;]</desc>
          </g>
        </g>
      </g>
      <g id="g4638" transform="translate(-57.292344,54.746028)">
        <g id="g4640" clip-path="url(#clip40)">
          <g style="fill:#000000;fill-opacity:1;fill-rule:evenodd;stroke:none" id="g4642">
            <path id="path4644" d="m 272.61,75.945 -14.39,-1.107 2.22,-6.641 z" />
            <title id="title4646">Vector d</title>
            <desc id="desc4648">Vector d: Vector[J, J&#39;]</desc>
            <path d="m 272.61,75.945 -14.39,-1.107 2.22,-6.641 z" id="path4650" />
          </g>
        </g>
        <g clip-path="url(#clip39)" id="g4652">
          <g id="g4654" style="fill:none;stroke:#000000;stroke-linecap:round;stroke-linejoin:round;stroke-opacity:1">
            <path d="m 188.62,47.949 70.71,23.569" id="path4656" />
            <title id="title4658">Vector d</title>
            <desc id="desc4660">Vector d: Vector[J, J&#39;]</desc>
          </g>
        </g>
      </g>
      <g transform="translate(-0.8752997,0)" id="g4674">
        <g id="g4676" clip-path="url(#clip36)">
          <g style="fill:none;stroke:#000000;stroke-linecap:round;stroke-linejoin:round;stroke-opacity:1" id="g4678">
            <path id="path4680" d="M 132.54,102.37 178.63,56.28" />
            <title id="title4682">Vector b</title>
            <desc id="desc4684">Vector b: Vector[H, H&#39;]</desc>
          </g>
        </g>
        <g id="g4686" clip-path="url(#clip37)">
          <g style="fill:#000000;fill-opacity:1;fill-rule:evenodd;stroke:none" id="g4688">
            <path id="path4690" d="m 188.53,46.38 -7.43,12.374 -4.95,-4.949 z" />
            <title id="title4692">Vector b</title>
            <desc id="desc4694">Vector b: Vector[H, H&#39;]</desc>
          </g>
        </g>
      </g>
      <g ns0:preamble="/Users/prmb/CMEP/underground-inkscape-preamble.tex" ns0:text="$\\mathbf{b}$" word-spacing="normal" letter-spacing="normal" font-size-adjust="none" font-stretch="normal" font-weight="normal" font-variant="normal" font-style="normal" stroke-miterlimit="10.433" xml:space="preserve" transform="matrix(1.6,0,0,-1.5999999,-210.60468,835.93713)" id="content" style="font-style:normal;font-variant:normal;font-weight:normal;font-stretch:normal;letter-spacing:normal;word-spacing:normal;text-anchor:start;fill:none;fill-opacity:1;fill-rule:evenodd;stroke:#000000;stroke-width:1.25;stroke-linecap:butt;stroke-linejoin:miter;stroke-miterlimit:10.43299961;stroke-dasharray:none;stroke-dashoffset:0;stroke-opacity:1"><path id="path4984" d="m 225.92,485.22 -2.29,0 0,-0.29 c 0.55,-0.1 0.65,-0.21 0.65,-0.68 l 0,-7.17 0.14,0 0.94,0.66 c 0.54,-0.49 0.96,-0.67 1.55,-0.67 l -0.17,0.38 c -0.5,0 -0.82,0.36 -0.82,0.93 l 0,3.1 c 0.22,0.51 0.44,0.7 0.83,0.7 0.73,0 1.1,-0.78 1.1,-2.34 0,-1.64 -0.36,-2.39 -1.11,-2.39 l 0.17,-0.38 c 1.59,0 2.67,1.22 2.67,2.99 0,1.64 -0.91,2.76 -2.22,2.76 -0.57,0 -0.99,-0.19 -1.44,-0.66 z" style="fill:#000000;stroke-width:0" /></g>      <g style="font-style:normal;font-variant:normal;font-weight:normal;font-stretch:normal;letter-spacing:normal;word-spacing:normal;text-anchor:start;fill:none;fill-opacity:1;fill-rule:evenodd;stroke:#000000;stroke-width:1.25;stroke-linecap:butt;stroke-linejoin:miter;stroke-miterlimit:10.43299961;stroke-dasharray:none;stroke-dashoffset:0;stroke-opacity:1" id="g5562" transform="matrix(1.6,0,0,-1.5999999,-130.26809,821.80502)" xml:space="preserve" stroke-miterlimit="10.433" font-style="normal" font-variant="normal" font-weight="normal" font-stretch="normal" font-size-adjust="none" letter-spacing="normal" word-spacing="normal" ns0:text="$\\mathbf{d}$" ns0:preamble="/Users/prmb/CMEP/underground-inkscape-preamble.tex"><path style="fill:#000000;stroke-width:0" d="m 229.74,477.47 0,0.27 c -0.55,0.04 -0.7,0.19 -0.7,0.69 l 0,6.79 -2.54,0 0,-0.29 c 0.79,-0.06 0.9,-0.14 0.9,-0.68 l 0,-2.16 c -0.51,0.54 -0.86,0.73 -1.41,0.73 -1.29,0 -2.26,-1.26 -2.26,-2.98 0,-1.61 0.89,-2.77 2.13,-2.77 0.63,0 1.02,0.19 1.57,0.78 l -0.25,0.32 c -0.24,-0.3 -0.51,-0.44 -0.78,-0.44 -0.63,0 -0.93,0.71 -0.93,2.21 0,1.52 0.32,2.22 1.01,2.22 0.39,0 0.74,-0.28 0.92,-0.73 l 0,-2.87 c 0,-0.06 -0.11,-0.24 -0.22,-0.39 l 0.25,-0.32 0,-0.77 c 0.55,0.15 0.84,0.2 1.57,0.3 z" id="path5564" /></g>      <g style="font-style:normal;font-variant:normal;font-weight:normal;font-stretch:normal;letter-spacing:normal;word-spacing:normal;text-anchor:start;fill:none;fill-opacity:1;fill-rule:evenodd;stroke:#000000;stroke-width:1.25;stroke-linecap:butt;stroke-linejoin:miter;stroke-miterlimit:10.43299961;stroke-dasharray:none;stroke-dashoffset:0;stroke-opacity:1" id="g5855" transform="matrix(1.6,0,0,-1.5999999,-128.10371,865.47453)" xml:space="preserve" stroke-miterlimit="10.433" font-style="normal" font-variant="normal" font-weight="normal" font-stretch="normal" font-size-adjust="none" letter-spacing="normal" word-spacing="normal" ns0:text="$\\mathbf{b}$" ns0:preamble="/Users/prmb/CMEP/underground-inkscape-preamble.tex"><path style="fill:#000000;stroke-width:0" d="m 225.92,485.22 -2.29,0 0,-0.29 c 0.55,-0.1 0.65,-0.21 0.65,-0.68 l 0,-7.17 0.14,0 0.94,0.66 c 0.54,-0.49 0.96,-0.67 1.55,-0.67 l -0.17,0.38 c -0.5,0 -0.82,0.36 -0.82,0.93 l 0,3.1 c 0.22,0.51 0.44,0.7 0.83,0.7 0.73,0 1.1,-0.78 1.1,-2.34 0,-1.64 -0.36,-2.39 -1.11,-2.39 l 0.17,-0.38 c 1.59,0 2.67,1.22 2.67,2.99 0,1.64 -0.91,2.76 -2.22,2.76 -0.57,0 -0.99,-0.19 -1.44,-0.66 z" id="path5857" /></g>      <g ns0:preamble="/Users/prmb/CMEP/underground-inkscape-preamble.tex" ns0:text="$\\mathbf{d}$" word-spacing="normal" letter-spacing="normal" font-size-adjust="none" font-stretch="normal" font-weight="normal" font-variant="normal" font-style="normal" stroke-miterlimit="10.433" xml:space="preserve" transform="matrix(1.6,0,0,-1.5999999,-185.01411,877.18763)" id="g5859" style="font-style:normal;font-variant:normal;font-weight:normal;font-stretch:normal;letter-spacing:normal;word-spacing:normal;text-anchor:start;fill:none;fill-opacity:1;fill-rule:evenodd;stroke:#000000;stroke-width:1.25;stroke-linecap:butt;stroke-linejoin:miter;stroke-miterlimit:10.43299961;stroke-dasharray:none;stroke-dashoffset:0;stroke-opacity:1"><path id="path5861" d="m 229.74,477.47 0,0.27 c -0.55,0.04 -0.7,0.19 -0.7,0.69 l 0,6.79 -2.54,0 0,-0.29 c 0.79,-0.06 0.9,-0.14 0.9,-0.68 l 0,-2.16 c -0.51,0.54 -0.86,0.73 -1.41,0.73 -1.29,0 -2.26,-1.26 -2.26,-2.98 0,-1.61 0.89,-2.77 2.13,-2.77 0.63,0 1.02,0.19 1.57,0.78 l -0.25,0.32 c -0.24,-0.3 -0.51,-0.44 -0.78,-0.44 -0.63,0 -0.93,0.71 -0.93,2.21 0,1.52 0.32,2.22 1.01,2.22 0.39,0 0.74,-0.28 0.92,-0.73 l 0,-2.87 c 0,-0.06 -0.11,-0.24 -0.22,-0.39 l 0.25,-0.32 0,-0.77 c 0.55,0.15 0.84,0.2 1.57,0.3 z" style="fill:#000000;stroke-width:0" /></g>      <g transform="translate(82.755608,28.290928)" id="g4662">
        <g clip-path="url(#clip36)" id="g328">
          <g id="g330" style="fill:none;stroke:#000000;stroke-linecap:round;stroke-linejoin:round;stroke-opacity:1">
            <path d="M 132.54,102.37 178.63,56.28" id="path332" />
            <title id="title334">Vector b</title>
            <desc id="desc336">Vector b: Vector[H, H&#39;]</desc>
          </g>
        </g>
        <g clip-path="url(#clip37)" id="g341">
          <g id="g343" style="fill:#000000;fill-opacity:1;fill-rule:evenodd;stroke:none">
            <path d="m 188.53,46.38 -7.43,12.374 -4.95,-4.949 z" id="path345" />
            <title id="title347">Vector b</title>
            <desc id="desc349">Vector b: Vector[H, H&#39;]</desc>
          </g>
        </g>
      </g>
      <g ns0:preamble="/Users/prmb/CMEP/underground-inkscape-preamble.tex" ns0:text="$M$" word-spacing="normal" letter-spacing="normal" font-size-adjust="none" font-stretch="normal" font-weight="normal" font-variant="normal" font-style="normal" stroke-miterlimit="10.433" xml:space="preserve" transform="matrix(1.5999999,0,0,-1.5999999,-250.60932,883.2348)" id="g6148" style="font-style:normal;font-variant:normal;font-weight:normal;font-stretch:normal;letter-spacing:normal;word-spacing:normal;text-anchor:start;fill:#0000ff;fill-opacity:1;fill-rule:evenodd;stroke:#000000;stroke-width:1.25000012;stroke-linecap:butt;stroke-linejoin:miter;stroke-miterlimit:10.43299961;stroke-dasharray:none;stroke-dashoffset:0;stroke-opacity:1"><path id="path6150" d="m 235.89,484.94 -2.54,0 -3.93,-5.82 -0.05,0 -1.05,5.82 -2.52,0 -0.04,-0.18 0.22,0 c 0.73,0 0.91,-0.18 0.91,-0.42 0,-0.1 -0.01,-0.25 -0.06,-0.45 l -1.4,-5.6 c -0.12,-0.48 -0.34,-0.87 -1.28,-0.87 l -0.22,0 -0.05,-0.19 3.15,0 0.05,0.19 -0.24,0 c -0.69,0 -0.89,0.15 -0.89,0.39 0,0.14 0.02,0.32 0.06,0.48 l 1.28,5.05 0.04,0 1.11,-6.11 0.29,0 4.08,6.11 0.07,0 -1.33,-5.18 c -0.09,-0.38 -0.3,-0.74 -1.23,-0.74 l -0.21,0 -0.04,-0.19 3.89,0 0.05,0.19 -0.22,0 c -0.69,0 -0.91,0.18 -0.91,0.41 0,0.1 0,0.24 0.02,0.33 l 1.5,5.88 c 0.11,0.42 0.3,0.72 1.24,0.72 l 0.2,0 z" style="fill:#0000ff;fill-opacity:1;stroke-width:0" /></g>      <g style="font-style:normal;font-variant:normal;font-weight:normal;font-stretch:normal;letter-spacing:normal;word-spacing:normal;text-anchor:start;fill:#0000ff;fill-opacity:1;fill-rule:evenodd;stroke:#000000;stroke-width:1.25000012;stroke-linecap:butt;stroke-linejoin:miter;stroke-miterlimit:10.43299961;stroke-dasharray:none;stroke-dashoffset:0;stroke-opacity:1" id="g6724" transform="matrix(1.5999999,0,0,-1.5999999,-79.6235,833.96336)" xml:space="preserve" stroke-miterlimit="10.433" font-style="normal" font-variant="normal" font-weight="normal" font-stretch="normal" font-size-adjust="none" letter-spacing="normal" word-spacing="normal" ns0:text="$T$" ns0:preamble="/Users/prmb/CMEP/underground-inkscape-preamble.tex"><path style="fill:#0000ff;fill-opacity:1;stroke-width:0" d="m 231.34,484.94 -7.07,0 -0.54,-2.11 0.19,0 c 0.21,0.96 1.04,1.68 2.01,1.68 l 1.08,0 -1.57,-6.35 c -0.09,-0.41 -0.33,-0.74 -1.25,-0.74 l -0.21,0 -0.05,-0.19 3.88,0 0.05,0.19 -0.25,0 c -0.71,0 -0.9,0.19 -0.9,0.44 0,0.11 0.04,0.19 0.06,0.3 l 1.57,6.35 1.16,0 c 0.48,0 1.17,-0.06 1.17,-0.84 0,-0.32 -0.04,-0.64 -0.06,-0.84 l 0.19,0 z" id="path6726" /></g>      <g id="g445" clip-path="url(#clip45)">
        <g style="fill:#0000ff;fill-opacity:1;fill-rule:nonzero;stroke:none" id="g447">
          <path id="path449" d="m 276.3,74.731 c 0,2.761 -2.24,5 -5,5 -2.76,0 -5,-2.239 -5,-5 0,-2.762 2.24,-5 5,-5 2.76,0 5,2.238 5,5 z" />
          <title id="title451">Point T</title>
          <desc id="desc453">T = (7, 6)</desc>
        </g>
      </g>
      <g id="g458" clip-path="url(#clip46)">
        <g style="fill:none;stroke:#000000;stroke-linecap:round;stroke-linejoin:round;stroke-opacity:1" id="g460">
          <path id="path462" d="m 276.3,74.731 c 0,2.761 -2.24,5 -5,5 -2.76,0 -5,-2.239 -5,-5 0,-2.762 2.24,-5 5,-5 2.76,0 5,2.238 5,5 z" />
          <title id="title464">Point T</title>
          <desc id="desc466">T = (7, 6)</desc>
        </g>
      </g>
      <g id="g406" clip-path="url(#clip42)">
        <g style="fill:#0000ff;fill-opacity:1;fill-rule:nonzero;stroke:none" id="g408">
          <path id="path410" d="m 136.32,102.73 c 0,2.76 -2.24,5 -5,5 -2.76,0 -5,-2.24 -5,-5 0,-2.765 2.24,-5.003 5,-5.003 2.76,0 5,2.238 5,5.003 z" />
          <title id="title412">Point M</title>
          <desc id="desc414">M = (2, 5)</desc>
        </g>
      </g>
      <g id="g419" clip-path="url(#clip43)">
        <g style="fill:none;stroke:#000000;stroke-linecap:round;stroke-linejoin:round;stroke-opacity:1" id="g421">
          <path id="path423" d="m 136.32,102.73 c 0,2.76 -2.24,5 -5,5 -2.76,0 -5,-2.24 -5,-5 0,-2.765 2.24,-5.003 5,-5.003 2.76,0 5,2.238 5,5.003 z" />
          <title id="title425">Point M</title>
          <desc id="desc427">M = (2, 5)</desc>
        </g>
      </g>
    </g>
  </g>
</svg>