<?xml version='1.0' ?><svg xmlns:ns0="http://www.iki.fi/pav/software/textext/" xmlns:dc="http://purl.org/dc/elements/1.1/" xmlns:cc="http://creativecommons.org/ns#" xmlns:rdf="http://www.w3.org/1999/02/22-rdf-syntax-ns#" xmlns:svg="http://www.w3.org/2000/svg" xmlns="http://www.w3.org/2000/svg" id="svg2" version="1.1" width="540.17506" height="378.42653" viewBox="-2.418492168899391 946.6799044555693 760.2410853103112 532.5965917001333" preserveAspectRatio="none">
  <metadata id="metadata115">
    <rdf:RDF>
      <cc:Work rdf:about="">
        <dc:format>image/svg+xml</dc:format>
        <dc:type rdf:resource="http://purl.org/dc/dcmitype/StillImage" />
        <dc:title />
      </cc:Work>
    </rdf:RDF>
  </metadata>
  <defs id="defs113">
    <clipPath id="clip1">
      <path id="path9" d="m 0,0 0,533 760,0 0,-533 z" />
    </clipPath>
    <clipPath id="clip2">
      <path id="path18" d="m 0,0 0,533 760,0 0,-533 z" />
    </clipPath>
    <clipPath id="clip3">
      <path id="path27" d="m 0,0 0,533 760,0 0,-533 z" />
    </clipPath>
    <clipPath id="clip4">
      <path id="path36" d="m 0,0 0,533 760,0 0,-533 z" />
    </clipPath>
  </defs>
  <g transform="translate(-2.8169273,947.39697)" id="g11" clip-path="url(#clip1)" style="stroke-width:1;stroke-linecap:square;stroke-linejoin:miter;stroke-miterlimit:10;stroke-dasharray:none;stroke-dashoffset:0">
    <g style="fill:none;stroke:#000000;stroke-width:2;stroke-linecap:butt;stroke-opacity:1" id="g13">
      <path id="path15" d="m 356,3 0,530" />
    </g>
  </g>
  <g transform="translate(-2.8169273,947.39697)" id="g20" clip-path="url(#clip2)" style="stroke-width:1;stroke-linecap:square;stroke-linejoin:miter;stroke-miterlimit:10;stroke-dasharray:none;stroke-dashoffset:0">
    <g style="fill:#000000;fill-opacity:1;fill-rule:evenodd;stroke:none" id="g22" transform="translate(0,-2.8169273)">
      <path id="path24" d="m 356,2 -4,16 8,0" />
    </g>
  </g>
  <g transform="translate(-2.8169273,947.39697)" id="g29" clip-path="url(#clip3)" style="stroke-width:1;stroke-linecap:square;stroke-linejoin:miter;stroke-miterlimit:10;stroke-dasharray:none;stroke-dashoffset:0">
    <g style="fill:none;stroke:#000000;stroke-width:2;stroke-linecap:butt;stroke-opacity:1" id="g31">
      <path id="path33" d="m 0,181 757,0" />
    </g>
  </g>
  <g id="g38" clip-path="url(#clip4)" transform="translate(0,947.39697)" style="stroke-width:1;stroke-linecap:square;stroke-linejoin:miter;stroke-miterlimit:10;stroke-dasharray:none;stroke-dashoffset:0">
    <g style="fill:#000000;fill-opacity:1;fill-rule:evenodd;stroke:none" id="g40">
      <path id="path42" d="m 758,181 -16,-4 0,8" />
    </g>
  </g>
  <g transform="translate(-2.8169273,947.39697)" id="misc" style="stroke-width:1;stroke-linecap:square;stroke-linejoin:miter;stroke-miterlimit:10;stroke-dasharray:none;stroke-dashoffset:0" />
  <g transform="translate(-2.8169273,947.39697)" id="layer0" style="stroke-width:1;stroke-linecap:square;stroke-linejoin:miter;stroke-miterlimit:10;stroke-dasharray:none;stroke-dashoffset:0">
    <clipPath id="clip5">
      <path id="path47" d="m 0,0 0,533 760,0 0,-533 z" />
    </clipPath>
    <g id="g49" clip-path="url(#clip5)">
      <g style="fill:none;stroke:#ff0000;stroke-width:1.5;stroke-linecap:round;stroke-linejoin:round;stroke-opacity:1" id="g51">
        <path id="path53" d="m 0,228.92 5.9375,0.91 5.9375,0.94 5.937,0.98 5.938,1.01 5.938,1.06 5.937,1.1 5.937,1.15 5.938,1.19 5.938,1.25 5.937,1.3 5.937,1.36 5.938,1.42 5.938,1.49 5.937,1.56 5.937,1.64 5.938,1.72 5.94,1.81 5.94,1.91 5.93,2 5.94,2.12 5.94,2.24 5.93,2.36 5.94,2.51 5.94,2.66 5.94,2.83 5.94,3.01 5.93,3.21 5.94,3.43 5.94,3.66 5.93,3.94 5.94,4.22 5.94,4.54 5.94,4.9 5.94,5.29 5.93,5.73 5.94,6.21 5.94,6.75 5.93,7.35 5.94,8 5.94,8.74 5.94,9.52 2.97,5.09 2.97,5.3 2.96,5.54 2.97,5.76 2.97,6 2.97,6.24 2.97,6.46 2.97,6.68 2.97,6.88 2.96,7.05 2.97,7.19 2.97,7.26 2.97,7.27 2.97,7.19 2.97,6.98 2.97,6.61 2.97,6.06 2.97,5.28 2.96,4.22 1.49,1.62 1.48,1.24 0.74,0.46 0.75,0.34 0.74,0.23 0.74,0.1 0.74,-0.02 0.75,-0.17 0.74,-0.3 0.74,-0.46 0.74,-0.61 0.74,-0.76 1.49,-2.04 1.48,-2.73 1.49,-3.47 2.97,-9.28 1.48,-5.85 1.48,-6.66 1.49,-7.48 1.48,-8.28 1.49,-9.05 1.48,-9.78 0.74,-5.15 0.75,-5.31 0.74,-5.47 0.74,-5.61 0.74,-5.76 0.75,-5.88 0.74,-5.99 0.74,-6.11 0.74,-6.19 0.74,-6.29 0.75,-6.35 0.74,-6.42 0.74,-6.47 0.74,-6.5 0.75,-6.53 0.74,-6.55 0.74,-6.54 0.74,-6.54 0.74,-6.52 0.75,-6.49 0.74,-6.46 0.74,-6.4 0.74,-6.34 0.75,-6.28 0.74,-6.2 0.74,-6.12 0.74,-6.03 0.74,-5.94 0.75,-5.83 0.74,-5.72 0.74,-5.61 0.74,-5.5 0.74,-5.37 0.75,-5.26 0.74,-5.12 0.74,-5 1.49,-9.61 1.48,-9.08 1.48,-8.56 1.49,-8.02 1.48,-7.52 1.49,-7 1.48,-6.52 1.49,-6.04 1.48,-5.6 1.48,-5.16 2.97,-9.1 2.97,-7.64 2.97,-6.34 2.97,-5.201 5.94,-7.583 1.48,-1.403 1.49,-1.234 2.97,-2.014 2.96,-1.484 2.97,-1.033 5.94,-0.987 2.97,-0.064 2.97,0.162 5.93,0.856 5.94,1.379 5.94,1.728 5.94,1.955 5.94,2.091 5.93,2.165 5.94,2.192 5.94,2.186 5.93,2.159 5.94,2.115 5.94,2.065 5.94,2 5.94,1.93 5.93,1.87 5.94,1.8 5.94,1.73 5.93,1.67 5.94,1.61 5.94,1.54 5.94,1.48 5.94,1.43 5.93,1.37 5.94,1.31 5.94,1.27 5.93,1.22 5.94,1.17 5.94,1.13 5.94,1.09 5.94,1.04 5.93,1.01 5.94,0.98 5.94,0.94 5.93,0.91 5.94,0.87 5.94,0.85 5.94,0.82 5.94,0.79 5.93,0.77 5.94,0.74 5.94,0.72 5.93,0.69 5.94,0.67 5.94,0.66 5.94,0.63 5.94,0.62 5.93,0.59 5.94,0.58 5.94,0.57 5.93,0.55 5.94,0.53 5.94,0.52 5.94,0.5 5.94,0.49 5.93,0.48 5.94,0.46 5.94,0.45 5.93,0.45 5.94,0.43 5.94,0.41" />
        <title id="title55">Function f</title>
        <desc id="desc57">f(x) = 6x / (xÃ&#131;Â&#130;Ã&#130;Â² + x + 1)</desc>
      </g>
    </g>
    <clipPath id="clip6">
      <path id="path60" d="m 0,0 0,533 760,0 0,-533 z" />
    </clipPath>
    <g id="g62" clip-path="url(#clip6)">
      <g style="fill:none;stroke:#0000ff;stroke-linecap:butt;stroke-linejoin:round;stroke-dasharray:9, 4, 1, 4;stroke-opacity:1" id="g64">
        <path id="path66" d="m -5,81 770,0" />
        <title id="title68">Line b</title>
        <desc id="desc70">b: y = 2</desc>
      </g>
    </g>
    <clipPath id="clip7">
      <path id="path73" d="m 0,0 0,533 760,0 0,-533 z" />
    </clipPath>
    <g id="g75" clip-path="url(#clip7)">
      <g style="fill:none;stroke:#0000ff;stroke-linecap:butt;stroke-linejoin:round;stroke-dasharray:9, 4, 1, 4;stroke-opacity:1" id="g77">
        <path id="path79" d="m -5,481 770,0" />
        <title id="title81">Line c</title>
        <desc id="desc83">c: y = -6</desc>
      </g>
    </g>
    <clipPath id="clip8">
      <path id="path86" d="m 0,0 0,533 760,0 0,-533 z" />
    </clipPath>
    <g id="g88" clip-path="url(#clip8)">
      <g style="fill:none;stroke:#000000;stroke-linecap:butt;stroke-linejoin:round;stroke-dasharray:9, 4, 1, 4;stroke-opacity:1" id="g90">
        <path id="path92" d="M 406,538 406,-5" />
        <title id="title94">Line d</title>
        <desc id="desc96">d: x = 1</desc>
      </g>
    </g>
    <clipPath id="clip9">
      <path id="path99" d="m 0,0 0,533 760,0 0,-533 z" />
    </clipPath>
    <g id="g101" clip-path="url(#clip9)">
      <g style="fill:none;stroke:#000000;stroke-linecap:butt;stroke-linejoin:round;stroke-dasharray:9, 4, 1, 4;stroke-opacity:1" id="g103">
        <path id="path105" d="M 306,538 306,-5" />
        <title id="title107">Line e</title>
        <desc id="desc109">e: x = -1</desc>
      </g>
    </g>
  </g>
  <g style="font-style:normal;font-variant:normal;font-weight:normal;font-stretch:normal;letter-spacing:normal;word-spacing:normal;text-anchor:start;fill:none;fill-opacity:1;fill-rule:evenodd;stroke:#000000;stroke-width:1;stroke-linecap:butt;stroke-linejoin:miter;stroke-miterlimit:10.43299961;stroke-dasharray:none;stroke-dashoffset:0;stroke-opacity:1" id="content" transform="matrix(2.8,0,0,-2.8,111.21772,2489.1572)" xml:space="preserve" stroke-miterlimit="10.433" font-style="normal" font-variant="normal" font-weight="normal" font-stretch="normal" font-size-adjust="none" letter-spacing="normal" word-spacing="normal" ns0:text="$x$" ns0:preamble="/Users/prmb/CMEP/underground-inkscape-preamble.tex"><path style="fill:#000000;stroke-width:0" d="m 227.03,480.64 -0.23,0.64 c -0.15,0.39 -0.37,0.88 -0.89,1.16 l -1.56,-0.39 0.04,-0.21 c 0.12,0.05 0.29,0.07 0.45,0.07 0.65,0 0.95,-0.48 1.15,-1.05 l 0.39,-1.09 -0.76,-1.19 c -0.38,-0.58 -0.69,-0.7 -0.83,-0.7 -0.3,0 -0.25,0.24 -0.55,0.24 -0.3,0 -0.45,-0.25 -0.45,-0.44 0,-0.26 0.19,-0.55 0.61,-0.55 0.66,0 1,0.51 1.38,1.08 l 0.74,1.16 0.48,-1.33 c 0.15,-0.43 0.38,-0.91 0.86,-0.91 0.68,0 1.21,1.13 1.36,1.31 l -0.17,0.12 c -0.25,-0.51 -0.53,-0.68 -0.72,-0.68 -0.53,0 -0.8,1.6 -1.15,2.33 l 0.64,1 c 0.17,0.26 0.3,0.45 0.65,0.45 0.2,0 0.26,-0.1 0.52,-0.1 0.31,0 0.46,0.27 0.46,0.49 0,0.25 -0.2,0.39 -0.57,0.39 -0.6,0 -1.01,-0.52 -1.32,-0.99 z" id="path4423" /></g>  <g id="g4598" transform="matrix(2.8,0,0,-2.8,-297.29841,2355.2845)" xml:space="preserve" stroke-miterlimit="10.433" font-style="normal" font-variant="normal" font-weight="normal" font-stretch="normal" font-size-adjust="none" letter-spacing="normal" word-spacing="normal" ns0:text="$2$" ns0:preamble="/Users/prmb/CMEP/underground-inkscape-preamble.tex" style="font-style:normal;font-variant:normal;font-weight:normal;font-stretch:normal;letter-spacing:normal;word-spacing:normal;text-anchor:start;fill:none;fill-opacity:1;fill-rule:evenodd;stroke:#000000;stroke-linecap:butt;stroke-linejoin:miter;stroke-miterlimit:10.43299961;stroke-dasharray:none;stroke-dashoffset:0;stroke-opacity:1"><path style="fill:#000000;stroke-width:0" d="m 229.03,478.85 -0.17,0.07 c -0.39,-0.66 -0.63,-0.79 -1.13,-0.79 l -2.76,0 1.94,2.08 c 1.06,1.11 1.52,1.99 1.52,2.93 0,1.17 -0.85,2.08 -2.19,2.08 -1.45,0 -2.21,-0.97 -2.45,-2.35 l 0.24,-0.06 c 0.48,1.15 0.89,1.53 1.74,1.53 1,0 1.64,-0.59 1.64,-1.66 0,-1.01 -0.42,-1.9 -1.53,-3.07 l -2.11,-2.23 0,-0.15 4.62,0 z" id="path4600" /></g>  <g ns0:preamble="/Users/prmb/CMEP/underground-inkscape-preamble.tex" ns0:text="$y$" word-spacing="normal" letter-spacing="normal" font-size-adjust="none" font-stretch="normal" font-weight="normal" font-variant="normal" font-style="normal" stroke-miterlimit="10.433" xml:space="preserve" transform="matrix(2.8,0,0,-2.8,-261.88428,2298.7274)" id="g4760" style="font-style:normal;font-variant:normal;font-weight:normal;font-stretch:normal;letter-spacing:normal;word-spacing:normal;text-anchor:start;fill:none;fill-opacity:1;fill-rule:evenodd;stroke:#000000;stroke-linecap:butt;stroke-linejoin:miter;stroke-miterlimit:10.43299961;stroke-dasharray:none;stroke-dashoffset:0;stroke-opacity:1"><path id="path4762" d="m 226.62,480.86 -0.01,0.08 -0.01,0.08 -0.01,0.07 -0.01,0.07 -0.01,0.07 -0.01,0.07 -0.01,0.06 -0.01,0.06 -0.01,0.06 -0.01,0.05 -0.01,0.06 -0.01,0.05 -0.01,0.05 -0.01,0.04 -0.02,0.05 -0.01,0.05 -0.01,0.04 -0.02,0.04 -0.01,0.04 -0.01,0.04 -0.04,0.08 -0.03,0.07 -0.04,0.08 -0.04,0.07 -0.04,0.07 -0.05,0.07 -1.77,-0.3 0.02,-0.18 c 0.11,0.01 0.3,0.04 0.43,0.04 0.66,0 0.76,-0.71 0.82,-1.24 l 0.45,-3.7 c -0.31,-0.48 -0.98,-1.21 -1.18,-1.21 -0.19,0 -0.16,0.37 -0.67,0.37 -0.16,0 -0.47,-0.13 -0.47,-0.49 0,-0.28 0.22,-0.64 0.66,-0.64 0.8,0 1.57,1.15 2.43,2.24 0.5,0.62 2.41,3.46 2.41,4.38 0,0.46 -0.3,0.73 -0.67,0.73 -0.35,0 -0.56,-0.21 -0.56,-0.47 0,-0.45 0.61,-0.57 0.61,-0.82 0,-0.21 -0.09,-0.45 -0.33,-0.88 -0.26,-0.49 -0.67,-1.19 -1.39,-2.18 z" style="fill:#000000;stroke-width:0" /></g>  <g style="font-style:normal;font-variant:normal;font-weight:normal;font-stretch:normal;letter-spacing:normal;word-spacing:normal;text-anchor:start;fill:none;fill-opacity:1;fill-rule:evenodd;stroke:#000000;stroke-linecap:butt;stroke-linejoin:miter;stroke-miterlimit:10.43299961;stroke-dasharray:none;stroke-dashoffset:0;stroke-opacity:1" id="g4926" transform="matrix(2.8,0,0,-2.8,-216.10923,2496.0532)" xml:space="preserve" stroke-miterlimit="10.433" font-style="normal" font-variant="normal" font-weight="normal" font-stretch="normal" font-size-adjust="none" letter-spacing="normal" word-spacing="normal" ns0:text="$1$" ns0:preamble="/Users/prmb/CMEP/underground-inkscape-preamble.tex"><path style="fill:#000000;stroke-width:0" d="m 228.08,477.23 0,0.18 c -0.88,0 -1.12,0.21 -1.12,0.72 l 0,7.05 -0.1,0.04 -2.12,-1.08 0,-0.16 0.32,0.11 c 0.21,0.09 0.41,0.15 0.53,0.15 0.25,0 0.36,-0.18 0.36,-0.58 l 0,-5.3 c 0,-0.65 -0.25,-0.9 -1.13,-0.95 l 0,-0.18 z" id="path4928" /></g>  <g ns0:preamble="/Users/prmb/CMEP/underground-inkscape-preamble.tex" ns0:text="$-1$" word-spacing="normal" letter-spacing="normal" font-size-adjust="none" font-stretch="normal" font-weight="normal" font-variant="normal" font-style="normal" stroke-miterlimit="10.433" xml:space="preserve" transform="matrix(2.8,0,0,-2.8,-368.08246,2494.5038)" id="g5096" style="font-style:normal;font-variant:normal;font-weight:normal;font-stretch:normal;letter-spacing:normal;word-spacing:normal;text-anchor:start;fill:none;fill-opacity:1;fill-rule:evenodd;stroke:#000000;stroke-linecap:butt;stroke-linejoin:miter;stroke-miterlimit:10.43299961;stroke-dasharray:none;stroke-dashoffset:0;stroke-opacity:1"><polygon id="polygon5098" points="230.76,479.83 230.76,480.61 224.19,480.61 224.19,479.83 " style="fill:#000000;stroke-width:0" /><path id="path5100" d="m 236.2,477.23 0,0.18 c -0.89,0 -1.12,0.21 -1.12,0.72 l 0,7.05 -0.11,0.04 -2.11,-1.08 0,-0.16 0.32,0.11 c 0.21,0.09 0.41,0.15 0.53,0.15 0.25,0 0.35,-0.18 0.35,-0.58 l 0,-5.3 c 0,-0.65 -0.24,-0.9 -1.12,-0.95 l 0,-0.18 z" style="fill:#000000;stroke-width:0" /></g>  <g style="font-style:normal;font-variant:normal;font-weight:normal;font-stretch:normal;letter-spacing:normal;word-spacing:normal;text-anchor:start;fill:none;fill-opacity:1;fill-rule:evenodd;stroke:#000000;stroke-linecap:butt;stroke-linejoin:miter;stroke-miterlimit:10.43299961;stroke-dasharray:none;stroke-dashoffset:0;stroke-opacity:1" id="g5274" transform="matrix(2.8,0,0,-2.8,-317.84674,2792.8616)" xml:space="preserve" stroke-miterlimit="10.433" font-style="normal" font-variant="normal" font-weight="normal" font-stretch="normal" font-size-adjust="none" letter-spacing="normal" word-spacing="normal" ns0:text="$-6$" ns0:preamble="/Users/prmb/CMEP/underground-inkscape-preamble.tex"><polygon style="fill:#000000;stroke-width:0" points="224.19,479.83 230.76,479.83 230.76,480.61 224.19,480.61 " id="polygon5276" /><path style="fill:#000000;stroke-width:0" d="m 236.81,485.31 -0.15,-0.02 -0.14,-0.01 -0.15,-0.02 -0.14,-0.02 -0.13,-0.02 -0.14,-0.03 -0.12,-0.02 -0.13,-0.02 -0.12,-0.03 -0.12,-0.03 -0.12,-0.03 -0.12,-0.03 -0.11,-0.03 -0.11,-0.04 -0.11,-0.04 -0.11,-0.04 -0.1,-0.04 -0.1,-0.05 -0.11,-0.05 -0.1,-0.05 -0.09,-0.06 -0.1,-0.05 -0.1,-0.07 -0.1,-0.06 -0.09,-0.07 -0.1,-0.07 -0.09,-0.08 -0.1,-0.08 -0.09,-0.08 -0.09,-0.09 -0.1,-0.1 -0.09,-0.09 c -0.84,-0.87 -1.29,-1.99 -1.29,-3.26 0,-0.83 0.22,-1.67 0.55,-2.27 0.42,-0.75 1.16,-1.19 2.09,-1.19 l 0.13,0.33 c -1.11,0 -1.67,1.18 -1.67,2.98 0,1.08 0.69,1.36 1.37,1.36 1.09,0 1.59,-0.77 1.59,-2.29 l 0,0 c 0,-1.2 -0.44,-2.05 -1.29,-2.05 l -0.13,-0.33 c 0.78,0 1.44,0.32 1.88,0.86 0.39,0.47 0.6,1.14 0.6,1.89 0,1.52 -0.85,2.47 -2.23,2.47 -0.52,0 -0.92,-0.09 -1.5,-0.53 0.32,1.78 1.64,3.05 3.5,3.36 z" id="path5278" /></g></svg>