<?xml version='1.0' ?><svg xmlns:dc="http://purl.org/dc/elements/1.1/" xmlns:cc="http://creativecommons.org/ns#" xmlns:rdf="http://www.w3.org/1999/02/22-rdf-syntax-ns#" xmlns:svg="http://www.w3.org/2000/svg" xmlns="http://www.w3.org/2000/svg" id="svg2" version="1.1" width="372.49997" height="268.00647" viewBox="0.0 0.3842404802684564 384.99996899328863 276.999975704698" preserveAspectRatio="none">
  <metadata id="metadata832">
    <rdf:RDF>
      <cc:Work rdf:about="">
        <dc:format>image/svg+xml</dc:format>
        <dc:type rdf:resource="http://purl.org/dc/dcmitype/StillImage" />
      </cc:Work>
    </rdf:RDF>
  </metadata>
  <defs id="defs830" />
  <title id="title4" />
  <g id="g6" stroke-linecap="square" stroke-miterlimit="10.000" stroke-width="1.0000" stroke-dasharray="none" stroke-dashoffset="0.0000" stroke-linejoin="miter">
    <clipPath id="clip1">
      <path id="path9" d="M 0.0000 0.0000 L 0.0000 277.00 L 385.00 277.00 L 385.00 0.0000 z" />
    </clipPath>
    <g id="g11" clip-path="url(#clip1)">
      <g id="g13" stroke="#000000" stroke-opacity="1.0000" fill="none" stroke-linecap="butt">
        <path id="path15" d="M 173.86 2.0000 L 173.86 277.00" />
      </g>
    </g>
    <clipPath id="clip2">
      <path id="path18" d="M 0.0000 0.0000 L 0.0000 277.00 L 385.00 277.00 L 385.00 0.0000 z" />
    </clipPath>
    <g id="g20" clip-path="url(#clip2)">
      <g id="g22" stroke="#000000" stroke-opacity="1.0000" fill="none" stroke-linecap="butt">
        <path id="path24" d="M 173.86 1.0000 L 170.86 4.0000" />
      </g>
    </g>
    <clipPath id="clip3">
      <path id="path27" d="M 0.0000 0.0000 L 0.0000 277.00 L 385.00 277.00 L 385.00 0.0000 z" />
    </clipPath>
    <g id="g29" clip-path="url(#clip3)">
      <g id="g31" stroke="#000000" stroke-opacity="1.0000" fill="none" stroke-linecap="butt">
        <path id="path33" d="M 173.86 1.0000 L 176.86 4.0000" />
      </g>
    </g>
    <clipPath id="clip4">
      <path id="path36" d="M 0.0000 0.0000 L 0.0000 277.00 L 385.00 277.00 L 385.00 0.0000 z" />
    </clipPath>
    <g id="g38" clip-path="url(#clip4)">
      <g id="g40" stroke="#000000" stroke-opacity="1.0000" fill="none" stroke-linecap="butt">
        <path id="path42" d="M 0.0000 203.76 L 383.00 203.76" />
      </g>
    </g>
    <clipPath id="clip5">
      <path id="path45" d="M 0.0000 0.0000 L 0.0000 277.00 L 385.00 277.00 L 385.00 0.0000 z" />
    </clipPath>
    <g id="g47" clip-path="url(#clip5)">
      <g id="g49" stroke="#000000" stroke-opacity="1.0000" fill="none" stroke-linecap="butt">
        <path id="path51" d="M 384.00 203.76 L 381.00 200.76" />
      </g>
    </g>
    <clipPath id="clip6">
      <path id="path54" d="M 0.0000 0.0000 L 0.0000 277.00 L 385.00 277.00 L 385.00 0.0000 z" />
    </clipPath>
    <g id="g56" clip-path="url(#clip6)">
      <g id="g58" stroke="#000000" stroke-opacity="1.0000" fill="none" stroke-linecap="butt">
        <path id="path60" d="M 384.00 203.76 L 381.00 206.76" />
      </g>
    </g>
    <clipPath id="clip7">
      <path id="path63" d="M 0.0000 0.0000 L 0.0000 277.00 L 385.00 277.00 L 385.00 0.0000 z" />
    </clipPath>
    <g id="g65" clip-path="url(#clip7)">
      <g id="g67" fill="#000000" stroke="none" fill-rule="nonzero" fill-opacity="1.0000">
        <path id="path69" d="M 16.513 214.35 L 16.513 213.68 L 20.487 213.68 L 20.487 214.35 z M 22.216 217.03 L 22.216 216.17 Q 22.934 216.46 23.583 216.46 Q 24.296 216.46 24.704 216.04 Q 25.111 215.62 25.111 214.88 Q 25.111 213.25 22.870 213.25 Q 22.616 213.25 22.338 213.29 L 22.338 209.77 L 25.995 209.77 L 25.995 210.61 L 23.183 210.61 L 23.183 212.52 Q 24.574 212.52 25.355 213.16 Q 26.137 213.80 26.137 214.93 Q 26.137 215.98 25.426 216.58 Q 24.716 217.18 23.456 217.18 Q 22.909 217.18 22.216 217.03 z" />
      </g>
    </g>
    <clipPath id="clip8">
      <path id="path72" d="M 0.0000 0.0000 L 0.0000 277.00 L 385.00 277.00 L 385.00 0.0000 z" />
    </clipPath>
    <g id="g74" clip-path="url(#clip8)">
      <g id="g76" stroke="#000000" stroke-opacity="1.0000" fill="none" stroke-linecap="butt">
        <path id="path78" d="M 20.701 203.76 L 20.701 206.76" />
      </g>
    </g>
    <clipPath id="clip9">
      <path id="path81" d="M 0.0000 0.0000 L 0.0000 277.00 L 385.00 277.00 L 385.00 0.0000 z" />
    </clipPath>
    <g id="g83" clip-path="url(#clip9)">
      <g id="g85" fill="#000000" stroke="none" fill-rule="nonzero" fill-opacity="1.0000">
        <path id="path87" d="M 47.513 214.35 L 47.513 213.68 L 51.487 213.68 L 51.487 214.35 z M 55.765 217.00 L 55.765 214.95 L 52.513 214.95 L 52.513 214.23 L 55.765 209.77 L 56.668 209.77 L 56.668 214.17 L 57.635 214.17 L 57.635 214.95 L 56.668 214.95 L 56.668 217.00 z M 53.455 214.17 L 55.828 214.17 L 55.828 210.96 z" />
      </g>
    </g>
    <clipPath id="clip10">
      <path id="path90" d="M 0.0000 0.0000 L 0.0000 277.00 L 385.00 277.00 L 385.00 0.0000 z" />
    </clipPath>
    <g id="g92" clip-path="url(#clip10)">
      <g id="g94" stroke="#000000" stroke-opacity="1.0000" fill="none" stroke-linecap="butt">
        <path id="path96" d="M 51.333 203.76 L 51.333 206.76" />
      </g>
    </g>
    <clipPath id="clip11">
      <path id="path99" d="M 0.0000 0.0000 L 0.0000 277.00 L 385.00 277.00 L 385.00 0.0000 z" />
    </clipPath>
    <g id="g101" clip-path="url(#clip11)">
      <g id="g103" fill="#000000" stroke="none" fill-rule="nonzero" fill-opacity="1.0000">
        <path id="path105" d="M 77.513 214.35 L 77.513 213.68 L 81.487 213.68 L 81.487 214.35 z M 83.016 216.95 L 83.016 216.05 Q 84.051 216.46 84.646 216.46 Q 85.335 216.46 85.767 216.06 Q 86.199 215.65 86.199 215.01 Q 86.199 213.49 84.065 213.49 L 83.685 213.49 L 83.685 212.84 L 84.021 212.83 Q 86.023 212.83 86.023 211.42 Q 86.023 210.32 84.705 210.32 Q 83.982 210.32 83.113 210.72 L 83.113 209.88 Q 83.968 209.59 84.773 209.59 Q 86.990 209.59 86.990 211.27 Q 86.990 212.54 85.481 213.08 Q 87.229 213.49 87.229 215.00 Q 87.229 216.02 86.556 216.60 Q 85.882 217.18 84.705 217.18 Q 84.036 217.18 83.016 216.95 z" />
      </g>
    </g>
    <clipPath id="clip12">
      <path id="path108" d="M 0.0000 0.0000 L 0.0000 277.00 L 385.00 277.00 L 385.00 0.0000 z" />
    </clipPath>
    <g id="g110" clip-path="url(#clip12)">
      <g id="g112" stroke="#000000" stroke-opacity="1.0000" fill="none" stroke-linecap="butt">
        <path id="path114" d="M 81.965 203.76 L 81.965 206.76" />
      </g>
    </g>
    <clipPath id="clip13">
      <path id="path117" d="M 0.0000 0.0000 L 0.0000 277.00 L 385.00 277.00 L 385.00 0.0000 z" />
    </clipPath>
    <g id="g119" clip-path="url(#clip13)">
      <g id="g121" fill="#000000" stroke="none" fill-rule="nonzero" fill-opacity="1.0000">
        <path id="path123" d="M 108.51 214.35 L 108.51 213.68 L 112.49 213.68 L 112.49 214.35 z M 113.83 217.00 L 113.83 216.16 Q 114.25 215.17 115.53 214.02 L 116.08 213.52 Q 117.15 212.56 117.15 211.61 Q 117.15 211.01 116.78 210.66 Q 116.42 210.32 115.78 210.32 Q 115.03 210.32 114.01 210.90 L 114.01 210.05 Q 114.97 209.59 115.92 209.59 Q 116.94 209.59 117.55 210.14 Q 118.17 210.69 118.17 211.59 Q 118.17 212.24 117.86 212.74 Q 117.55 213.25 116.70 213.96 L 116.33 214.28 Q 115.17 215.26 114.99 216.16 L 118.13 216.16 L 118.13 217.00 z" />
      </g>
    </g>
    <clipPath id="clip14">
      <path id="path126" d="M 0.0000 0.0000 L 0.0000 277.00 L 385.00 277.00 L 385.00 0.0000 z" />
    </clipPath>
    <g id="g128" clip-path="url(#clip14)">
      <g id="g130" stroke="#000000" stroke-opacity="1.0000" fill="none" stroke-linecap="butt">
        <path id="path132" d="M 112.60 203.76 L 112.60 206.76" />
      </g>
    </g>
    <clipPath id="clip15">
      <path id="path135" d="M 0.0000 0.0000 L 0.0000 277.00 L 385.00 277.00 L 385.00 0.0000 z" />
    </clipPath>
    <g id="g137" clip-path="url(#clip15)">
      <g id="g139" fill="#000000" stroke="none" fill-rule="nonzero" fill-opacity="1.0000">
        <path id="path141" d="M 139.51 214.35 L 139.51 213.68 L 143.49 213.68 L 143.49 214.35 z M 145.50 217.00 L 145.50 216.28 L 146.95 216.28 L 146.95 210.57 L 145.50 210.94 L 145.50 210.19 L 147.92 209.59 L 147.92 216.28 L 149.36 216.28 L 149.36 217.00 z" />
      </g>
    </g>
    <clipPath id="clip16">
      <path id="path144" d="M 0.0000 0.0000 L 0.0000 277.00 L 385.00 277.00 L 385.00 0.0000 z" />
    </clipPath>
    <g id="g146" clip-path="url(#clip16)">
      <g id="g148" stroke="#000000" stroke-opacity="1.0000" fill="none" stroke-linecap="butt">
        <path id="path150" d="M 143.23 203.76 L 143.23 206.76" />
      </g>
    </g>
    <clipPath id="clip17">
      <path id="path153" d="M 0.0000 0.0000 L 0.0000 277.00 L 385.00 277.00 L 385.00 0.0000 z" />
    </clipPath>
    <g id="g155" clip-path="url(#clip17)">
      <g id="g157" fill="#000000" stroke="none" fill-rule="nonzero" fill-opacity="1.0000">
        <path id="path159" d="M 182.13 217.18 Q 181.02 217.18 180.33 216.13 Q 179.63 215.08 179.63 213.38 Q 179.63 211.67 180.33 210.63 Q 181.03 209.59 182.16 209.59 Q 183.30 209.59 184.00 210.63 Q 184.69 211.67 184.69 213.37 Q 184.69 215.11 184.00 216.14 Q 183.30 217.18 182.13 217.18 z M 182.14 216.46 Q 183.67 216.46 183.67 213.35 Q 183.67 210.32 182.16 210.32 Q 180.66 210.32 180.66 213.38 Q 180.66 216.46 182.14 216.46 z" />
      </g>
    </g>
    <clipPath id="clip18">
      <path id="path162" d="M 0.0000 0.0000 L 0.0000 277.00 L 385.00 277.00 L 385.00 0.0000 z" />
    </clipPath>
    <g id="g164" clip-path="url(#clip18)">
      <g id="g166" fill="#000000" stroke="none" fill-rule="nonzero" fill-opacity="1.0000">
        <path id="path168" d="M 203.50 217.00 L 203.50 216.28 L 204.95 216.28 L 204.95 210.57 L 203.50 210.94 L 203.50 210.19 L 205.92 209.59 L 205.92 216.28 L 207.36 216.28 L 207.36 217.00 z" />
      </g>
    </g>
    <clipPath id="clip19">
      <path id="path171" d="M 0.0000 0.0000 L 0.0000 277.00 L 385.00 277.00 L 385.00 0.0000 z" />
    </clipPath>
    <g id="g173" clip-path="url(#clip19)">
      <g id="g175" stroke="#000000" stroke-opacity="1.0000" fill="none" stroke-linecap="butt">
        <path id="path177" d="M 204.49 203.76 L 204.49 206.76" />
      </g>
    </g>
    <clipPath id="clip20">
      <path id="path180" d="M 0.0000 0.0000 L 0.0000 277.00 L 385.00 277.00 L 385.00 0.0000 z" />
    </clipPath>
    <g id="g182" clip-path="url(#clip20)">
      <g id="g184" fill="#000000" stroke="none" fill-rule="nonzero" fill-opacity="1.0000">
        <path id="path186" d="M 233.83 217.00 L 233.83 216.16 Q 234.25 215.17 235.53 214.02 L 236.08 213.52 Q 237.15 212.56 237.15 211.61 Q 237.15 211.01 236.78 210.66 Q 236.42 210.32 235.78 210.32 Q 235.03 210.32 234.01 210.90 L 234.01 210.05 Q 234.97 209.59 235.92 209.59 Q 236.94 209.59 237.55 210.14 Q 238.17 210.69 238.17 211.59 Q 238.17 212.24 237.86 212.74 Q 237.55 213.25 236.70 213.96 L 236.33 214.28 Q 235.17 215.26 234.99 216.16 L 238.13 216.16 L 238.13 217.00 z" />
      </g>
    </g>
    <clipPath id="clip21">
      <path id="path189" d="M 0.0000 0.0000 L 0.0000 277.00 L 385.00 277.00 L 385.00 0.0000 z" />
    </clipPath>
    <g id="g191" clip-path="url(#clip21)">
      <g id="g193" stroke="#000000" stroke-opacity="1.0000" fill="none" stroke-linecap="butt">
        <path id="path195" d="M 235.13 203.76 L 235.13 206.76" />
      </g>
    </g>
    <clipPath id="clip22">
      <path id="path198" d="M 0.0000 0.0000 L 0.0000 277.00 L 385.00 277.00 L 385.00 0.0000 z" />
    </clipPath>
    <g id="g200" clip-path="url(#clip22)">
      <g id="g202" fill="#000000" stroke="none" fill-rule="nonzero" fill-opacity="1.0000">
        <path id="path204" d="M 265.02 216.95 L 265.02 216.05 Q 266.05 216.46 266.65 216.46 Q 267.33 216.46 267.77 216.06 Q 268.20 215.65 268.20 215.01 Q 268.20 213.49 266.07 213.49 L 265.68 213.49 L 265.68 212.84 L 266.02 212.83 Q 268.02 212.83 268.02 211.42 Q 268.02 210.32 266.71 210.32 Q 265.98 210.32 265.11 210.72 L 265.11 209.88 Q 265.97 209.59 266.77 209.59 Q 268.99 209.59 268.99 211.27 Q 268.99 212.54 267.48 213.08 Q 269.23 213.49 269.23 215.00 Q 269.23 216.02 268.56 216.60 Q 267.88 217.18 266.71 217.18 Q 266.04 217.18 265.02 216.95 z" />
      </g>
    </g>
    <clipPath id="clip23">
      <path id="path207" d="M 0.0000 0.0000 L 0.0000 277.00 L 385.00 277.00 L 385.00 0.0000 z" />
    </clipPath>
    <g id="g209" clip-path="url(#clip23)">
      <g id="g211" stroke="#000000" stroke-opacity="1.0000" fill="none" stroke-linecap="butt">
        <path id="path213" d="M 265.76 203.76 L 265.76 206.76" />
      </g>
    </g>
    <clipPath id="clip24">
      <path id="path216" d="M 0.0000 0.0000 L 0.0000 277.00 L 385.00 277.00 L 385.00 0.0000 z" />
    </clipPath>
    <g id="g218" clip-path="url(#clip24)">
      <g id="g220" fill="#000000" stroke="none" fill-rule="nonzero" fill-opacity="1.0000">
        <path id="path222" d="M 297.76 217.00 L 297.76 214.95 L 294.51 214.95 L 294.51 214.23 L 297.76 209.77 L 298.67 209.77 L 298.67 214.17 L 299.63 214.17 L 299.63 214.95 L 298.67 214.95 L 298.67 217.00 z M 295.46 214.17 L 297.83 214.17 L 297.83 210.96 z" />
      </g>
    </g>
    <clipPath id="clip25">
      <path id="path225" d="M 0.0000 0.0000 L 0.0000 277.00 L 385.00 277.00 L 385.00 0.0000 z" />
    </clipPath>
    <g id="g227" clip-path="url(#clip25)">
      <g id="g229" stroke="#000000" stroke-opacity="1.0000" fill="none" stroke-linecap="butt">
        <path id="path231" d="M 296.39 203.76 L 296.39 206.76" />
      </g>
    </g>
    <clipPath id="clip26">
      <path id="path234" d="M 0.0000 0.0000 L 0.0000 277.00 L 385.00 277.00 L 385.00 0.0000 z" />
    </clipPath>
    <g id="g236" clip-path="url(#clip26)">
      <g id="g238" fill="#000000" stroke="none" fill-rule="nonzero" fill-opacity="1.0000">
        <path id="path240" d="M 326.22 217.03 L 326.22 216.17 Q 326.93 216.46 327.58 216.46 Q 328.30 216.46 328.70 216.04 Q 329.11 215.62 329.11 214.88 Q 329.11 213.25 326.87 213.25 Q 326.62 213.25 326.34 213.29 L 326.34 209.77 L 330.00 209.77 L 330.00 210.61 L 327.18 210.61 L 327.18 212.52 Q 328.57 212.52 329.36 213.16 Q 330.14 213.80 330.14 214.93 Q 330.14 215.98 329.43 216.58 Q 328.72 217.18 327.46 217.18 Q 326.91 217.18 326.22 217.03 z" />
      </g>
    </g>
    <clipPath id="clip27">
      <path id="path243" d="M 0.0000 0.0000 L 0.0000 277.00 L 385.00 277.00 L 385.00 0.0000 z" />
    </clipPath>
    <g id="g245" clip-path="url(#clip27)">
      <g id="g247" stroke="#000000" stroke-opacity="1.0000" fill="none" stroke-linecap="butt">
        <path id="path249" d="M 327.02 203.76 L 327.02 206.76" />
      </g>
    </g>
    <clipPath id="clip28">
      <path id="path252" d="M 0.0000 0.0000 L 0.0000 277.00 L 385.00 277.00 L 385.00 0.0000 z" />
    </clipPath>
    <g id="g254" clip-path="url(#clip28)">
      <g id="g256" fill="#000000" stroke="none" fill-rule="nonzero" fill-opacity="1.0000">
        <path id="path258" d="M 357.72 213.25 Q 358.41 212.36 359.45 212.36 Q 360.40 212.36 361.00 212.99 Q 361.61 213.62 361.61 214.60 Q 361.61 215.73 360.93 216.45 Q 360.25 217.18 359.21 217.18 Q 358.02 217.18 357.34 216.22 Q 356.67 215.26 356.67 213.55 Q 356.67 211.67 357.44 210.63 Q 358.22 209.59 359.62 209.59 Q 360.27 209.59 361.23 209.86 L 361.23 210.70 Q 360.21 210.31 359.56 210.31 Q 357.72 210.31 357.72 213.25 z M 360.64 214.81 Q 360.64 213.99 360.27 213.52 Q 359.90 213.05 359.25 213.05 Q 358.64 213.05 358.20 213.46 Q 357.76 213.88 357.76 214.45 Q 357.76 215.36 358.18 215.91 Q 358.59 216.46 359.28 216.46 Q 359.90 216.46 360.27 216.01 Q 360.64 215.56 360.64 214.81 z" />
      </g>
    </g>
    <clipPath id="clip29">
      <path id="path261" d="M 0.0000 0.0000 L 0.0000 277.00 L 385.00 277.00 L 385.00 0.0000 z" />
    </clipPath>
    <g id="g263" clip-path="url(#clip29)">
      <g id="g265" stroke="#000000" stroke-opacity="1.0000" fill="none" stroke-linecap="butt">
        <path id="path267" d="M 357.66 203.76 L 357.66 206.76" />
      </g>
    </g>
    <clipPath id="clip30">
      <path id="path270" d="M 0.0000 0.0000 L 0.0000 277.00 L 385.00 277.00 L 385.00 0.0000 z" />
    </clipPath>
    <g id="g272" clip-path="url(#clip30)">
      <g id="g274" fill="#000000" stroke="none" fill-rule="nonzero" fill-opacity="1.0000">
        <path id="path276" d="M 156.51 266.35 L 156.51 265.68 L 160.49 265.68 L 160.49 266.35 z M 161.83 269.00 L 161.83 268.16 Q 162.25 267.17 163.53 266.02 L 164.08 265.52 Q 165.15 264.56 165.15 263.61 Q 165.15 263.01 164.78 262.66 Q 164.42 262.32 163.78 262.32 Q 163.03 262.32 162.01 262.90 L 162.01 262.05 Q 162.97 261.59 163.92 261.59 Q 164.94 261.59 165.55 262.14 Q 166.17 262.69 166.17 263.59 Q 166.17 264.24 165.86 264.74 Q 165.55 265.25 164.70 265.96 L 164.33 266.28 Q 163.17 267.26 162.99 268.16 L 166.13 268.16 L 166.13 269.00 z" />
      </g>
    </g>
    <clipPath id="clip31">
      <path id="path279" d="M 0.0000 0.0000 L 0.0000 277.00 L 385.00 277.00 L 385.00 0.0000 z" />
    </clipPath>
    <g id="g281" clip-path="url(#clip31)">
      <g id="g283" stroke="#000000" stroke-opacity="1.0000" fill="none" stroke-linecap="butt">
        <path id="path285" d="M 170.86 265.02 L 173.86 265.02" />
      </g>
    </g>
    <clipPath id="clip32">
      <path id="path288" d="M 0.0000 0.0000 L 0.0000 277.00 L 385.00 277.00 L 385.00 0.0000 z" />
    </clipPath>
    <g id="g290" clip-path="url(#clip32)">
      <g id="g292" fill="#000000" stroke="none" fill-rule="nonzero" fill-opacity="1.0000">
        <path id="path294" d="M 156.51 235.35 L 156.51 234.68 L 160.49 234.68 L 160.49 235.35 z M 162.50 238.00 L 162.50 237.28 L 163.95 237.28 L 163.95 231.57 L 162.50 231.94 L 162.50 231.19 L 164.92 230.59 L 164.92 237.28 L 166.36 237.28 L 166.36 238.00 z" />
      </g>
    </g>
    <clipPath id="clip33">
      <path id="path297" d="M 0.0000 0.0000 L 0.0000 277.00 L 385.00 277.00 L 385.00 0.0000 z" />
    </clipPath>
    <g id="g299" clip-path="url(#clip33)">
      <g id="g301" stroke="#000000" stroke-opacity="1.0000" fill="none" stroke-linecap="butt">
        <path id="path303" d="M 170.86 234.39 L 173.86 234.39" />
      </g>
    </g>
    <clipPath id="clip34">
      <path id="path306" d="M 0.0000 0.0000 L 0.0000 277.00 L 385.00 277.00 L 385.00 0.0000 z" />
    </clipPath>
    <g id="g308" clip-path="url(#clip34)">
      <g id="g310" fill="#000000" stroke="none" fill-rule="nonzero" fill-opacity="1.0000">
        <path id="path312" d="M 164.13 201.18 Q 163.02 201.18 162.33 200.13 Q 161.63 199.08 161.63 197.38 Q 161.63 195.67 162.33 194.63 Q 163.03 193.59 164.16 193.59 Q 165.30 193.59 166.00 194.63 Q 166.69 195.67 166.69 197.37 Q 166.69 199.11 166.00 200.14 Q 165.30 201.18 164.13 201.18 z M 164.14 200.46 Q 165.67 200.46 165.67 197.35 Q 165.67 194.32 164.16 194.32 Q 162.66 194.32 162.66 197.38 Q 162.66 200.46 164.14 200.46 z" />
      </g>
    </g>
    <clipPath id="clip35">
      <path id="path315" d="M 0.0000 0.0000 L 0.0000 277.00 L 385.00 277.00 L 385.00 0.0000 z" />
    </clipPath>
    <g id="g317" clip-path="url(#clip35)">
      <g id="g319" fill="#000000" stroke="none" fill-rule="nonzero" fill-opacity="1.0000">
        <path id="path321" d="M 162.50 177.00 L 162.50 176.28 L 163.95 176.28 L 163.95 170.57 L 162.50 170.94 L 162.50 170.19 L 164.92 169.59 L 164.92 176.28 L 166.36 176.28 L 166.36 177.00 z" />
      </g>
    </g>
    <clipPath id="clip36">
      <path id="path324" d="M 0.0000 0.0000 L 0.0000 277.00 L 385.00 277.00 L 385.00 0.0000 z" />
    </clipPath>
    <g id="g326" clip-path="url(#clip36)">
      <g id="g328" stroke="#000000" stroke-opacity="1.0000" fill="none" stroke-linecap="butt">
        <path id="path330" d="M 170.86 173.13 L 173.86 173.13" />
      </g>
    </g>
    <clipPath id="clip37">
      <path id="path333" d="M 0.0000 0.0000 L 0.0000 277.00 L 385.00 277.00 L 385.00 0.0000 z" />
    </clipPath>
    <g id="g335" clip-path="url(#clip37)">
      <g id="g337" fill="#000000" stroke="none" fill-rule="nonzero" fill-opacity="1.0000">
        <path id="path339" d="M 161.83 146.00 L 161.83 145.16 Q 162.25 144.17 163.53 143.02 L 164.08 142.52 Q 165.15 141.56 165.15 140.61 Q 165.15 140.01 164.78 139.66 Q 164.42 139.32 163.78 139.32 Q 163.03 139.32 162.01 139.90 L 162.01 139.05 Q 162.97 138.59 163.92 138.59 Q 164.94 138.59 165.55 139.14 Q 166.17 139.69 166.17 140.59 Q 166.17 141.24 165.86 141.74 Q 165.55 142.25 164.70 142.96 L 164.33 143.28 Q 163.17 144.26 162.99 145.16 L 166.13 145.16 L 166.13 146.00 z" />
      </g>
    </g>
    <clipPath id="clip38">
      <path id="path342" d="M 0.0000 0.0000 L 0.0000 277.00 L 385.00 277.00 L 385.00 0.0000 z" />
    </clipPath>
    <g id="g344" clip-path="url(#clip38)">
      <g id="g346" stroke="#000000" stroke-opacity="1.0000" fill="none" stroke-linecap="butt">
        <path id="path348" d="M 170.86 142.49 L 173.86 142.49" />
      </g>
    </g>
    <clipPath id="clip39">
      <path id="path351" d="M 0.0000 0.0000 L 0.0000 277.00 L 385.00 277.00 L 385.00 0.0000 z" />
    </clipPath>
    <g id="g353" clip-path="url(#clip39)">
      <g id="g355" fill="#000000" stroke="none" fill-rule="nonzero" fill-opacity="1.0000">
        <path id="path357" d="M 162.02 114.95 L 162.02 114.05 Q 163.05 114.46 163.65 114.46 Q 164.33 114.46 164.77 114.06 Q 165.20 113.65 165.20 113.01 Q 165.20 111.49 163.07 111.49 L 162.68 111.49 L 162.68 110.84 L 163.02 110.83 Q 165.02 110.83 165.02 109.42 Q 165.02 108.32 163.71 108.32 Q 162.98 108.32 162.11 108.72 L 162.11 107.88 Q 162.97 107.59 163.77 107.59 Q 165.99 107.59 165.99 109.27 Q 165.99 110.54 164.48 111.08 Q 166.23 111.49 166.23 113.00 Q 166.23 114.02 165.56 114.60 Q 164.88 115.18 163.71 115.18 Q 163.04 115.18 162.02 114.95 z" />
      </g>
    </g>
    <clipPath id="clip40">
      <path id="path360" d="M 0.0000 0.0000 L 0.0000 277.00 L 385.00 277.00 L 385.00 0.0000 z" />
    </clipPath>
    <g id="g362" clip-path="url(#clip40)">
      <g id="g364" stroke="#000000" stroke-opacity="1.0000" fill="none" stroke-linecap="butt">
        <path id="path366" d="M 170.86 111.86 L 173.86 111.86" />
      </g>
    </g>
    <clipPath id="clip41">
      <path id="path369" d="M 0.0000 0.0000 L 0.0000 277.00 L 385.00 277.00 L 385.00 0.0000 z" />
    </clipPath>
    <g id="g371" clip-path="url(#clip41)">
      <g id="g373" fill="#000000" stroke="none" fill-rule="nonzero" fill-opacity="1.0000">
        <path id="path375" d="M 164.76 85.000 L 164.76 82.954 L 161.51 82.954 L 161.51 82.227 L 164.76 77.773 L 165.67 77.773 L 165.67 82.168 L 166.63 82.168 L 166.63 82.954 L 165.67 82.954 L 165.67 85.000 z M 162.46 82.168 L 164.83 82.168 L 164.83 78.955 z" />
      </g>
    </g>
    <clipPath id="clip42">
      <path id="path378" d="M 0.0000 0.0000 L 0.0000 277.00 L 385.00 277.00 L 385.00 0.0000 z" />
    </clipPath>
    <g id="g380" clip-path="url(#clip42)">
      <g id="g382" stroke="#000000" stroke-opacity="1.0000" fill="none" stroke-linecap="butt">
        <path id="path384" d="M 170.86 81.230 L 173.86 81.230" />
      </g>
    </g>
    <clipPath id="clip43">
      <path id="path387" d="M 0.0000 0.0000 L 0.0000 277.00 L 385.00 277.00 L 385.00 0.0000 z" />
    </clipPath>
    <g id="g389" clip-path="url(#clip43)">
      <g id="g391" fill="#000000" stroke="none" fill-rule="nonzero" fill-opacity="1.0000">
        <path id="path393" d="M 162.22 54.029 L 162.22 53.170 Q 162.93 53.458 163.58 53.458 Q 164.30 53.458 164.70 53.038 Q 165.11 52.618 165.11 51.881 Q 165.11 50.255 162.87 50.255 Q 162.62 50.255 162.34 50.289 L 162.34 46.773 L 166.00 46.773 L 166.00 47.613 L 163.18 47.613 L 163.18 49.518 Q 164.57 49.518 165.36 50.157 Q 166.14 50.797 166.14 51.930 Q 166.14 52.984 165.43 53.583 Q 164.72 54.181 163.46 54.181 Q 162.91 54.181 162.22 54.029 z" />
      </g>
    </g>
    <clipPath id="clip44">
      <path id="path396" d="M 0.0000 0.0000 L 0.0000 277.00 L 385.00 277.00 L 385.00 0.0000 z" />
    </clipPath>
    <g id="g398" clip-path="url(#clip44)">
      <g id="g400" stroke="#000000" stroke-opacity="1.0000" fill="none" stroke-linecap="butt">
        <path id="path402" d="M 170.86 50.598 L 173.86 50.598" />
      </g>
    </g>
    <clipPath id="clip45">
      <path id="path405" d="M 0.0000 0.0000 L 0.0000 277.00 L 385.00 277.00 L 385.00 0.0000 z" />
    </clipPath>
    <g id="g407" clip-path="url(#clip45)">
      <g id="g409" fill="#000000" stroke="none" fill-rule="nonzero" fill-opacity="1.0000">
        <path id="path411" d="M 162.72 19.255 Q 163.41 18.361 164.45 18.361 Q 165.40 18.361 166.00 18.989 Q 166.61 19.616 166.61 20.598 Q 166.61 21.726 165.93 22.453 Q 165.25 23.181 164.21 23.181 Q 163.02 23.181 162.34 22.219 Q 161.67 21.257 161.67 19.548 Q 161.67 17.668 162.44 16.628 Q 163.22 15.588 164.62 15.588 Q 165.27 15.588 166.23 15.861 L 166.23 16.701 Q 165.21 16.311 164.56 16.311 Q 162.72 16.311 162.72 19.255 z M 165.64 20.812 Q 165.64 19.992 165.27 19.523 Q 164.90 19.055 164.25 19.055 Q 163.64 19.055 163.20 19.465 Q 162.76 19.875 162.76 20.451 Q 162.76 21.359 163.18 21.909 Q 163.59 22.458 164.28 22.458 Q 164.90 22.458 165.27 22.011 Q 165.64 21.564 165.64 20.812 z" />
      </g>
    </g>
    <clipPath id="clip46">
      <path id="path414" d="M 0.0000 0.0000 L 0.0000 277.00 L 385.00 277.00 L 385.00 0.0000 z" />
    </clipPath>
    <g id="g416" clip-path="url(#clip46)">
      <g id="g418" stroke="#000000" stroke-opacity="1.0000" fill="none" stroke-linecap="butt">
        <path id="path420" d="M 170.86 19.965 L 173.86 19.965" />
      </g>
    </g>
    <clipPath id="clip47">
      <path id="path423" d="M 0.0000 0.0000 L 0.0000 277.00 L 385.00 277.00 L 385.00 0.0000 z" />
    </clipPath>
    <g id="g425" clip-path="url(#clip47)">
      <g id="g427" stroke="#c0c0c0" stroke-opacity="1.0000" fill="none" stroke-linecap="round" stroke-linejoin="round">
        <path id="path429" d="M 20.701 0.0000 L 20.701 203.76" />
      </g>
    </g>
    <clipPath id="clip48">
      <path id="path432" d="M 0.0000 0.0000 L 0.0000 277.00 L 385.00 277.00 L 385.00 0.0000 z" />
    </clipPath>
    <g id="g434" clip-path="url(#clip48)">
      <g id="g436" stroke="#c0c0c0" stroke-opacity="1.0000" fill="none" stroke-linecap="round" stroke-linejoin="round">
        <path id="path438" d="M 20.701 222.76 L 20.701 277.00" />
      </g>
    </g>
    <clipPath id="clip49">
      <path id="path441" d="M 0.0000 0.0000 L 0.0000 277.00 L 385.00 277.00 L 385.00 0.0000 z" />
    </clipPath>
    <g id="g443" clip-path="url(#clip49)">
      <g id="g445" stroke="#c0c0c0" stroke-opacity="1.0000" fill="none" stroke-linecap="round" stroke-linejoin="round">
        <path id="path447" d="M 20.701 0.0000 L 20.701 203.76" />
      </g>
    </g>
    <clipPath id="clip50">
      <path id="path450" d="M 0.0000 0.0000 L 0.0000 277.00 L 385.00 277.00 L 385.00 0.0000 z" />
    </clipPath>
    <g id="g452" clip-path="url(#clip50)">
      <g id="g454" stroke="#c0c0c0" stroke-opacity="1.0000" fill="none" stroke-linecap="round" stroke-linejoin="round">
        <path id="path456" d="M 20.701 222.76 L 20.701 277.00" />
      </g>
    </g>
    <clipPath id="clip51">
      <path id="path459" d="M 0.0000 0.0000 L 0.0000 277.00 L 385.00 277.00 L 385.00 0.0000 z" />
    </clipPath>
    <g id="g461" clip-path="url(#clip51)">
      <g id="g463" stroke="#c0c0c0" stroke-opacity="1.0000" fill="none" stroke-linecap="round" stroke-linejoin="round">
        <path id="path465" d="M 51.333 0.0000 L 51.333 203.76" />
      </g>
    </g>
    <clipPath id="clip52">
      <path id="path468" d="M 0.0000 0.0000 L 0.0000 277.00 L 385.00 277.00 L 385.00 0.0000 z" />
    </clipPath>
    <g id="g470" clip-path="url(#clip52)">
      <g id="g472" stroke="#c0c0c0" stroke-opacity="1.0000" fill="none" stroke-linecap="round" stroke-linejoin="round">
        <path id="path474" d="M 51.333 222.76 L 51.333 277.00" />
      </g>
    </g>
    <clipPath id="clip53">
      <path id="path477" d="M 0.0000 0.0000 L 0.0000 277.00 L 385.00 277.00 L 385.00 0.0000 z" />
    </clipPath>
    <g id="g479" clip-path="url(#clip53)">
      <g id="g481" stroke="#c0c0c0" stroke-opacity="1.0000" fill="none" stroke-linecap="round" stroke-linejoin="round">
        <path id="path483" d="M 81.965 0.0000 L 81.965 203.76" />
      </g>
    </g>
    <clipPath id="clip54">
      <path id="path486" d="M 0.0000 0.0000 L 0.0000 277.00 L 385.00 277.00 L 385.00 0.0000 z" />
    </clipPath>
    <g id="g488" clip-path="url(#clip54)">
      <g id="g490" stroke="#c0c0c0" stroke-opacity="1.0000" fill="none" stroke-linecap="round" stroke-linejoin="round">
        <path id="path492" d="M 81.965 222.76 L 81.965 277.00" />
      </g>
    </g>
    <clipPath id="clip55">
      <path id="path495" d="M 0.0000 0.0000 L 0.0000 277.00 L 385.00 277.00 L 385.00 0.0000 z" />
    </clipPath>
    <g id="g497" clip-path="url(#clip55)">
      <g id="g499" stroke="#c0c0c0" stroke-opacity="1.0000" fill="none" stroke-linecap="round" stroke-linejoin="round">
        <path id="path501" d="M 112.60 0.0000 L 112.60 203.76" />
      </g>
    </g>
    <clipPath id="clip56">
      <path id="path504" d="M 0.0000 0.0000 L 0.0000 277.00 L 385.00 277.00 L 385.00 0.0000 z" />
    </clipPath>
    <g id="g506" clip-path="url(#clip56)">
      <g id="g508" stroke="#c0c0c0" stroke-opacity="1.0000" fill="none" stroke-linecap="round" stroke-linejoin="round">
        <path id="path510" d="M 112.60 222.76 L 112.60 277.00" />
      </g>
    </g>
    <clipPath id="clip57">
      <path id="path513" d="M 0.0000 0.0000 L 0.0000 277.00 L 385.00 277.00 L 385.00 0.0000 z" />
    </clipPath>
    <g id="g515" clip-path="url(#clip57)">
      <g id="g517" stroke="#c0c0c0" stroke-opacity="1.0000" fill="none" stroke-linecap="round" stroke-linejoin="round">
        <path id="path519" d="M 143.23 0.0000 L 143.23 203.76" />
      </g>
    </g>
    <clipPath id="clip58">
      <path id="path522" d="M 0.0000 0.0000 L 0.0000 277.00 L 385.00 277.00 L 385.00 0.0000 z" />
    </clipPath>
    <g id="g524" clip-path="url(#clip58)">
      <g id="g526" stroke="#c0c0c0" stroke-opacity="1.0000" fill="none" stroke-linecap="round" stroke-linejoin="round">
        <path id="path528" d="M 143.23 222.76 L 143.23 277.00" />
      </g>
    </g>
    <clipPath id="clip59">
      <path id="path531" d="M 0.0000 0.0000 L 0.0000 277.00 L 385.00 277.00 L 385.00 0.0000 z" />
    </clipPath>
    <g id="g533" clip-path="url(#clip59)">
      <g id="g535" stroke="#c0c0c0" stroke-opacity="1.0000" fill="none" stroke-linecap="round" stroke-linejoin="round">
        <path id="path537" d="M 204.49 0.0000 L 204.49 203.76" />
      </g>
    </g>
    <clipPath id="clip60">
      <path id="path540" d="M 0.0000 0.0000 L 0.0000 277.00 L 385.00 277.00 L 385.00 0.0000 z" />
    </clipPath>
    <g id="g542" clip-path="url(#clip60)">
      <g id="g544" stroke="#c0c0c0" stroke-opacity="1.0000" fill="none" stroke-linecap="round" stroke-linejoin="round">
        <path id="path546" d="M 204.49 222.76 L 204.49 277.00" />
      </g>
    </g>
    <clipPath id="clip61">
      <path id="path549" d="M 0.0000 0.0000 L 0.0000 277.00 L 385.00 277.00 L 385.00 0.0000 z" />
    </clipPath>
    <g id="g551" clip-path="url(#clip61)">
      <g id="g553" stroke="#c0c0c0" stroke-opacity="1.0000" fill="none" stroke-linecap="round" stroke-linejoin="round">
        <path id="path555" d="M 235.13 0.0000 L 235.13 203.76" />
      </g>
    </g>
    <clipPath id="clip62">
      <path id="path558" d="M 0.0000 0.0000 L 0.0000 277.00 L 385.00 277.00 L 385.00 0.0000 z" />
    </clipPath>
    <g id="g560" clip-path="url(#clip62)">
      <g id="g562" stroke="#c0c0c0" stroke-opacity="1.0000" fill="none" stroke-linecap="round" stroke-linejoin="round">
        <path id="path564" d="M 235.13 222.76 L 235.13 277.00" />
      </g>
    </g>
    <clipPath id="clip63">
      <path id="path567" d="M 0.0000 0.0000 L 0.0000 277.00 L 385.00 277.00 L 385.00 0.0000 z" />
    </clipPath>
    <g id="g569" clip-path="url(#clip63)">
      <g id="g571" stroke="#c0c0c0" stroke-opacity="1.0000" fill="none" stroke-linecap="round" stroke-linejoin="round">
        <path id="path573" d="M 265.76 0.0000 L 265.76 203.76" />
      </g>
    </g>
    <clipPath id="clip64">
      <path id="path576" d="M 0.0000 0.0000 L 0.0000 277.00 L 385.00 277.00 L 385.00 0.0000 z" />
    </clipPath>
    <g id="g578" clip-path="url(#clip64)">
      <g id="g580" stroke="#c0c0c0" stroke-opacity="1.0000" fill="none" stroke-linecap="round" stroke-linejoin="round">
        <path id="path582" d="M 265.76 222.76 L 265.76 277.00" />
      </g>
    </g>
    <clipPath id="clip65">
      <path id="path585" d="M 0.0000 0.0000 L 0.0000 277.00 L 385.00 277.00 L 385.00 0.0000 z" />
    </clipPath>
    <g id="g587" clip-path="url(#clip65)">
      <g id="g589" stroke="#c0c0c0" stroke-opacity="1.0000" fill="none" stroke-linecap="round" stroke-linejoin="round">
        <path id="path591" d="M 296.39 0.0000 L 296.39 203.76" />
      </g>
    </g>
    <clipPath id="clip66">
      <path id="path594" d="M 0.0000 0.0000 L 0.0000 277.00 L 385.00 277.00 L 385.00 0.0000 z" />
    </clipPath>
    <g id="g596" clip-path="url(#clip66)">
      <g id="g598" stroke="#c0c0c0" stroke-opacity="1.0000" fill="none" stroke-linecap="round" stroke-linejoin="round">
        <path id="path600" d="M 296.39 222.76 L 296.39 277.00" />
      </g>
    </g>
    <clipPath id="clip67">
      <path id="path603" d="M 0.0000 0.0000 L 0.0000 277.00 L 385.00 277.00 L 385.00 0.0000 z" />
    </clipPath>
    <g id="g605" clip-path="url(#clip67)">
      <g id="g607" stroke="#c0c0c0" stroke-opacity="1.0000" fill="none" stroke-linecap="round" stroke-linejoin="round">
        <path id="path609" d="M 327.02 0.0000 L 327.02 203.76" />
      </g>
    </g>
    <clipPath id="clip68">
      <path id="path612" d="M 0.0000 0.0000 L 0.0000 277.00 L 385.00 277.00 L 385.00 0.0000 z" />
    </clipPath>
    <g id="g614" clip-path="url(#clip68)">
      <g id="g616" stroke="#c0c0c0" stroke-opacity="1.0000" fill="none" stroke-linecap="round" stroke-linejoin="round">
        <path id="path618" d="M 327.02 222.76 L 327.02 277.00" />
      </g>
    </g>
    <clipPath id="clip69">
      <path id="path621" d="M 0.0000 0.0000 L 0.0000 277.00 L 385.00 277.00 L 385.00 0.0000 z" />
    </clipPath>
    <g id="g623" clip-path="url(#clip69)">
      <g id="g625" stroke="#c0c0c0" stroke-opacity="1.0000" fill="none" stroke-linecap="round" stroke-linejoin="round">
        <path id="path627" d="M 357.66 0.0000 L 357.66 203.76" />
      </g>
    </g>
    <clipPath id="clip70">
      <path id="path630" d="M 0.0000 0.0000 L 0.0000 277.00 L 385.00 277.00 L 385.00 0.0000 z" />
    </clipPath>
    <g id="g632" clip-path="url(#clip70)">
      <g id="g634" stroke="#c0c0c0" stroke-opacity="1.0000" fill="none" stroke-linecap="round" stroke-linejoin="round">
        <path id="path636" d="M 357.66 222.76 L 357.66 277.00" />
      </g>
    </g>
    <clipPath id="clip71">
      <path id="path639" d="M 0.0000 0.0000 L 0.0000 277.00 L 385.00 277.00 L 385.00 0.0000 z" />
    </clipPath>
    <g id="g641" clip-path="url(#clip71)">
      <g id="g643" stroke="#c0c0c0" stroke-opacity="1.0000" fill="none" stroke-linecap="round" stroke-linejoin="round">
        <path id="path645" d="M 0.0000 19.965 L 157.54 19.965" />
      </g>
    </g>
    <clipPath id="clip72">
      <path id="path648" d="M 0.0000 0.0000 L 0.0000 277.00 L 385.00 277.00 L 385.00 0.0000 z" />
    </clipPath>
    <g id="g650" clip-path="url(#clip72)">
      <g id="g652" stroke="#c0c0c0" stroke-opacity="1.0000" fill="none" stroke-linecap="round" stroke-linejoin="round">
        <path id="path654" d="M 173.86 19.965 L 385.00 19.965" />
      </g>
    </g>
    <clipPath id="clip73">
      <path id="path657" d="M 0.0000 0.0000 L 0.0000 277.00 L 385.00 277.00 L 385.00 0.0000 z" />
    </clipPath>
    <g id="g659" clip-path="url(#clip73)">
      <g id="g661" stroke="#c0c0c0" stroke-opacity="1.0000" fill="none" stroke-linecap="round" stroke-linejoin="round">
        <path id="path663" d="M 0.0000 19.965 L 157.54 19.965" />
      </g>
    </g>
    <clipPath id="clip74">
      <path id="path666" d="M 0.0000 0.0000 L 0.0000 277.00 L 385.00 277.00 L 385.00 0.0000 z" />
    </clipPath>
    <g id="g668" clip-path="url(#clip74)">
      <g id="g670" stroke="#c0c0c0" stroke-opacity="1.0000" fill="none" stroke-linecap="round" stroke-linejoin="round">
        <path id="path672" d="M 173.86 19.965 L 385.00 19.965" />
      </g>
    </g>
    <clipPath id="clip75">
      <path id="path675" d="M 0.0000 0.0000 L 0.0000 277.00 L 385.00 277.00 L 385.00 0.0000 z" />
    </clipPath>
    <g id="g677" clip-path="url(#clip75)">
      <g id="g679" stroke="#c0c0c0" stroke-opacity="1.0000" fill="none" stroke-linecap="round" stroke-linejoin="round">
        <path id="path681" d="M 0.0000 50.598 L 157.54 50.598" />
      </g>
    </g>
    <clipPath id="clip76">
      <path id="path684" d="M 0.0000 0.0000 L 0.0000 277.00 L 385.00 277.00 L 385.00 0.0000 z" />
    </clipPath>
    <g id="g686" clip-path="url(#clip76)">
      <g id="g688" stroke="#c0c0c0" stroke-opacity="1.0000" fill="none" stroke-linecap="round" stroke-linejoin="round">
        <path id="path690" d="M 173.86 50.598 L 385.00 50.598" />
      </g>
    </g>
    <clipPath id="clip77">
      <path id="path693" d="M 0.0000 0.0000 L 0.0000 277.00 L 385.00 277.00 L 385.00 0.0000 z" />
    </clipPath>
    <g id="g695" clip-path="url(#clip77)">
      <g id="g697" stroke="#c0c0c0" stroke-opacity="1.0000" fill="none" stroke-linecap="round" stroke-linejoin="round">
        <path id="path699" d="M 0.0000 81.230 L 157.54 81.230" />
      </g>
    </g>
    <clipPath id="clip78">
      <path id="path702" d="M 0.0000 0.0000 L 0.0000 277.00 L 385.00 277.00 L 385.00 0.0000 z" />
    </clipPath>
    <g id="g704" clip-path="url(#clip78)">
      <g id="g706" stroke="#c0c0c0" stroke-opacity="1.0000" fill="none" stroke-linecap="round" stroke-linejoin="round">
        <path id="path708" d="M 173.86 81.230 L 385.00 81.230" />
      </g>
    </g>
    <clipPath id="clip79">
      <path id="path711" d="M 0.0000 0.0000 L 0.0000 277.00 L 385.00 277.00 L 385.00 0.0000 z" />
    </clipPath>
    <g id="g713" clip-path="url(#clip79)">
      <g id="g715" stroke="#c0c0c0" stroke-opacity="1.0000" fill="none" stroke-linecap="round" stroke-linejoin="round">
        <path id="path717" d="M 0.0000 111.86 L 157.54 111.86" />
      </g>
    </g>
    <clipPath id="clip80">
      <path id="path720" d="M 0.0000 0.0000 L 0.0000 277.00 L 385.00 277.00 L 385.00 0.0000 z" />
    </clipPath>
    <g id="g722" clip-path="url(#clip80)">
      <g id="g724" stroke="#c0c0c0" stroke-opacity="1.0000" fill="none" stroke-linecap="round" stroke-linejoin="round">
        <path id="path726" d="M 173.86 111.86 L 385.00 111.86" />
      </g>
    </g>
    <clipPath id="clip81">
      <path id="path729" d="M 0.0000 0.0000 L 0.0000 277.00 L 385.00 277.00 L 385.00 0.0000 z" />
    </clipPath>
    <g id="g731" clip-path="url(#clip81)">
      <g id="g733" stroke="#c0c0c0" stroke-opacity="1.0000" fill="none" stroke-linecap="round" stroke-linejoin="round">
        <path id="path735" d="M 0.0000 142.49 L 157.54 142.49" />
      </g>
    </g>
    <clipPath id="clip82">
      <path id="path738" d="M 0.0000 0.0000 L 0.0000 277.00 L 385.00 277.00 L 385.00 0.0000 z" />
    </clipPath>
    <g id="g740" clip-path="url(#clip82)">
      <g id="g742" stroke="#c0c0c0" stroke-opacity="1.0000" fill="none" stroke-linecap="round" stroke-linejoin="round">
        <path id="path744" d="M 173.86 142.49 L 385.00 142.49" />
      </g>
    </g>
    <clipPath id="clip83">
      <path id="path747" d="M 0.0000 0.0000 L 0.0000 277.00 L 385.00 277.00 L 385.00 0.0000 z" />
    </clipPath>
    <g id="g749" clip-path="url(#clip83)">
      <g id="g751" stroke="#c0c0c0" stroke-opacity="1.0000" fill="none" stroke-linecap="round" stroke-linejoin="round">
        <path id="path753" d="M 0.0000 173.13 L 157.54 173.13" />
      </g>
    </g>
    <clipPath id="clip84">
      <path id="path756" d="M 0.0000 0.0000 L 0.0000 277.00 L 385.00 277.00 L 385.00 0.0000 z" />
    </clipPath>
    <g id="g758" clip-path="url(#clip84)">
      <g id="g760" stroke="#c0c0c0" stroke-opacity="1.0000" fill="none" stroke-linecap="round" stroke-linejoin="round">
        <path id="path762" d="M 173.86 173.13 L 385.00 173.13" />
      </g>
    </g>
    <clipPath id="clip85">
      <path id="path765" d="M 0.0000 0.0000 L 0.0000 277.00 L 385.00 277.00 L 385.00 0.0000 z" />
    </clipPath>
    <g id="g767" clip-path="url(#clip85)">
      <g id="g769" stroke="#c0c0c0" stroke-opacity="1.0000" fill="none" stroke-linecap="round" stroke-linejoin="round">
        <path id="path771" d="M 0.0000 234.39 L 152.54 234.39" />
      </g>
    </g>
    <clipPath id="clip86">
      <path id="path774" d="M 0.0000 0.0000 L 0.0000 277.00 L 385.00 277.00 L 385.00 0.0000 z" />
    </clipPath>
    <g id="g776" clip-path="url(#clip86)">
      <g id="g778" stroke="#c0c0c0" stroke-opacity="1.0000" fill="none" stroke-linecap="round" stroke-linejoin="round">
        <path id="path780" d="M 173.86 234.39 L 385.00 234.39" />
      </g>
    </g>
    <clipPath id="clip87">
      <path id="path783" d="M 0.0000 0.0000 L 0.0000 277.00 L 385.00 277.00 L 385.00 0.0000 z" />
    </clipPath>
    <g id="g785" clip-path="url(#clip87)">
      <g id="g787" stroke="#c0c0c0" stroke-opacity="1.0000" fill="none" stroke-linecap="round" stroke-linejoin="round">
        <path id="path789" d="M 0.0000 265.02 L 152.54 265.02" />
      </g>
    </g>
    <clipPath id="clip88">
      <path id="path792" d="M 0.0000 0.0000 L 0.0000 277.00 L 385.00 277.00 L 385.00 0.0000 z" />
    </clipPath>
    <g id="g794" clip-path="url(#clip88)">
      <g id="g796" stroke="#c0c0c0" stroke-opacity="1.0000" fill="none" stroke-linecap="round" stroke-linejoin="round">
        <path id="path798" d="M 173.86 265.02 L 385.00 265.02" />
      </g>
    </g>
    <g id="misc" />
    <g id="layer0">
      <clipPath id="clip89">
        <path id="path803" d="M 0.0000 0.0000 L 0.0000 277.00 L 385.00 277.00 L 385.00 0.0000 z" />
      </clipPath>
      <g id="g805" clip-path="url(#clip89)">
        <g id="g807" stroke="#0000ff" stroke-opacity="1.0000" fill="none" stroke-linecap="round" stroke-width="2.5000" stroke-linejoin="round">
          <path id="path809" d="M 81.965 -71.931 C 143.23 295.66 204.49 295.66 265.76 -71.931" />
          <title id="title811">Parabola c</title>
          <desc id="desc813">c: y = xÃ&#130;Â²</desc>
        </g>
      </g>
      <clipPath id="clip90">
        <path id="path816" d="M 0.0000 0.0000 L 0.0000 277.00 L 385.00 277.00 L 385.00 0.0000 z" />
      </clipPath>
      <g id="g818" clip-path="url(#clip90)">
        <g id="g820" stroke="#ff00ff" stroke-opacity="1.0000" fill="none" stroke-linecap="round" stroke-width="2.5000" stroke-linejoin="round">
          <path id="path822" d="M 112.60 -25.983 C 173.86 341.60 235.13 341.60 296.39 -25.983" />
          <title id="title824">Parabola d</title>
          <desc id="desc826">d: y = xÃ&#130;Â² - 2x - 0.5</desc>
        </g>
      </g>
    </g>
  </g>
</svg>