<?xml version='1.0' ?><svg xmlns:dc="http://purl.org/dc/elements/1.1/" xmlns:cc="http://creativecommons.org/ns#" xmlns:rdf="http://www.w3.org/1999/02/22-rdf-syntax-ns#" xmlns:svg="http://www.w3.org/2000/svg" xmlns="http://www.w3.org/2000/svg" id="svg2" version="1.1" width="373.74999" height="268.20921" viewBox="0.0 0.27926364147157184 385.99998967224076 277.0000135384615" preserveAspectRatio="none">
  <metadata id="metadata791">
    <rdf:RDF>
      <cc:Work rdf:about="">
        <dc:format>image/svg+xml</dc:format>
        <dc:type rdf:resource="http://purl.org/dc/dcmitype/StillImage" />
      </cc:Work>
    </rdf:RDF>
  </metadata>
  <defs id="defs789" />
  <title id="title4" />
  <g id="g6" stroke-linecap="square" stroke-miterlimit="10.000" stroke-width="1.0000" stroke-dasharray="none" stroke-dashoffset="0.0000" stroke-linejoin="miter">
    <clipPath id="clip1">
      <path id="path9" d="M 0.0000 0.0000 L 0.0000 277.00 L 386.00 277.00 L 386.00 0.0000 z" />
    </clipPath>
    <g id="g11" clip-path="url(#clip1)">
      <g id="g13" stroke="#000000" stroke-opacity="1.0000" fill="none" stroke-linecap="butt">
        <path id="path15" d="M 167.00 2.0000 L 167.00 277.00" />
      </g>
    </g>
    <clipPath id="clip2">
      <path id="path18" d="M 0.0000 0.0000 L 0.0000 277.00 L 386.00 277.00 L 386.00 0.0000 z" />
    </clipPath>
    <g id="g20" clip-path="url(#clip2)">
      <g id="g22" stroke="#000000" stroke-opacity="1.0000" fill="none" stroke-linecap="butt">
        <path id="path24" d="M 167.00 1.0000 L 164.00 4.0000" />
      </g>
    </g>
    <clipPath id="clip3">
      <path id="path27" d="M 0.0000 0.0000 L 0.0000 277.00 L 386.00 277.00 L 386.00 0.0000 z" />
    </clipPath>
    <g id="g29" clip-path="url(#clip3)">
      <g id="g31" stroke="#000000" stroke-opacity="1.0000" fill="none" stroke-linecap="butt">
        <path id="path33" d="M 167.00 1.0000 L 170.00 4.0000" />
      </g>
    </g>
    <clipPath id="clip4">
      <path id="path36" d="M 0.0000 0.0000 L 0.0000 277.00 L 386.00 277.00 L 386.00 0.0000 z" />
    </clipPath>
    <g id="g38" clip-path="url(#clip4)">
      <g id="g40" stroke="#000000" stroke-opacity="1.0000" fill="none" stroke-linecap="butt">
        <path id="path42" d="M 0.0000 196.00 L 384.00 196.00" />
      </g>
    </g>
    <clipPath id="clip5">
      <path id="path45" d="M 0.0000 0.0000 L 0.0000 277.00 L 386.00 277.00 L 386.00 0.0000 z" />
    </clipPath>
    <g id="g47" clip-path="url(#clip5)">
      <g id="g49" stroke="#000000" stroke-opacity="1.0000" fill="none" stroke-linecap="butt">
        <path id="path51" d="M 385.00 196.00 L 382.00 193.00" />
      </g>
    </g>
    <clipPath id="clip6">
      <path id="path54" d="M 0.0000 0.0000 L 0.0000 277.00 L 386.00 277.00 L 386.00 0.0000 z" />
    </clipPath>
    <g id="g56" clip-path="url(#clip6)">
      <g id="g58" stroke="#000000" stroke-opacity="1.0000" fill="none" stroke-linecap="butt">
        <path id="path60" d="M 385.00 196.00 L 382.00 199.00" />
      </g>
    </g>
    <clipPath id="clip7">
      <path id="path63" d="M 0.0000 0.0000 L 0.0000 277.00 L 386.00 277.00 L 386.00 0.0000 z" />
    </clipPath>
    <g id="g65" clip-path="url(#clip7)">
      <g id="g67" fill="#000000" stroke="none" fill-rule="nonzero" fill-opacity="1.0000">
        <path id="path69" d="M 13.513 206.35 L 13.513 205.68 L 17.487 205.68 L 17.487 206.35 z M 19.016 208.95 L 19.016 208.05 Q 20.051 208.46 20.646 208.46 Q 21.335 208.46 21.767 208.06 Q 22.199 207.65 22.199 207.01 Q 22.199 205.49 20.065 205.49 L 19.685 205.49 L 19.685 204.84 L 20.021 204.83 Q 22.023 204.83 22.023 203.42 Q 22.023 202.32 20.705 202.32 Q 19.982 202.32 19.113 202.72 L 19.113 201.88 Q 19.968 201.59 20.773 201.59 Q 22.990 201.59 22.990 203.27 Q 22.990 204.54 21.481 205.08 Q 23.229 205.49 23.229 207.00 Q 23.229 208.02 22.556 208.60 Q 21.882 209.18 20.705 209.18 Q 20.036 209.18 19.016 208.95 z" />
      </g>
    </g>
    <clipPath id="clip8">
      <path id="path72" d="M 0.0000 0.0000 L 0.0000 277.00 L 386.00 277.00 L 386.00 0.0000 z" />
    </clipPath>
    <g id="g74" clip-path="url(#clip8)">
      <g id="g76" stroke="#000000" stroke-opacity="1.0000" fill="none" stroke-linecap="butt">
        <path id="path78" d="M 17.000 196.00 L 17.000 199.00" />
      </g>
    </g>
    <clipPath id="clip9">
      <path id="path81" d="M 0.0000 0.0000 L 0.0000 277.00 L 386.00 277.00 L 386.00 0.0000 z" />
    </clipPath>
    <g id="g83" clip-path="url(#clip9)">
      <g id="g85" fill="#000000" stroke="none" fill-rule="nonzero" fill-opacity="1.0000">
        <path id="path87" d="M 63.513 206.35 L 63.513 205.68 L 67.487 205.68 L 67.487 206.35 z M 68.830 209.00 L 68.830 208.16 Q 69.250 207.17 70.529 206.02 L 71.081 205.52 Q 72.146 204.56 72.146 203.61 Q 72.146 203.01 71.782 202.66 Q 71.418 202.32 70.783 202.32 Q 70.031 202.32 69.011 202.90 L 69.011 202.05 Q 69.973 201.59 70.920 201.59 Q 71.936 201.59 72.551 202.14 Q 73.166 202.69 73.166 203.59 Q 73.166 204.24 72.856 204.74 Q 72.546 205.25 71.701 205.96 L 71.330 206.28 Q 70.173 207.26 69.992 208.16 L 73.132 208.16 L 73.132 209.00 z" />
      </g>
    </g>
    <clipPath id="clip10">
      <path id="path90" d="M 0.0000 0.0000 L 0.0000 277.00 L 386.00 277.00 L 386.00 0.0000 z" />
    </clipPath>
    <g id="g92" clip-path="url(#clip10)">
      <g id="g94" stroke="#000000" stroke-opacity="1.0000" fill="none" stroke-linecap="butt">
        <path id="path96" d="M 67.000 196.00 L 67.000 199.00" />
      </g>
    </g>
    <clipPath id="clip11">
      <path id="path99" d="M 0.0000 0.0000 L 0.0000 277.00 L 386.00 277.00 L 386.00 0.0000 z" />
    </clipPath>
    <g id="g101" clip-path="url(#clip11)">
      <g id="g103" fill="#000000" stroke="none" fill-rule="nonzero" fill-opacity="1.0000">
        <path id="path105" d="M 112.51 206.35 L 112.51 205.68 L 116.49 205.68 L 116.49 206.35 z M 118.50 209.00 L 118.50 208.28 L 119.95 208.28 L 119.95 202.57 L 118.50 202.94 L 118.50 202.19 L 120.92 201.59 L 120.92 208.28 L 122.36 208.28 L 122.36 209.00 z" />
      </g>
    </g>
    <clipPath id="clip12">
      <path id="path108" d="M 0.0000 0.0000 L 0.0000 277.00 L 386.00 277.00 L 386.00 0.0000 z" />
    </clipPath>
    <g id="g110" clip-path="url(#clip12)">
      <g id="g112" stroke="#000000" stroke-opacity="1.0000" fill="none" stroke-linecap="butt">
        <path id="path114" d="M 117.00 196.00 L 117.00 199.00" />
      </g>
    </g>
    <clipPath id="clip13">
      <path id="path117" d="M 0.0000 0.0000 L 0.0000 277.00 L 386.00 277.00 L 386.00 0.0000 z" />
    </clipPath>
    <g id="g119" clip-path="url(#clip13)">
      <g id="g121" fill="#000000" stroke="none" fill-rule="nonzero" fill-opacity="1.0000">
        <path id="path123" d="M 175.13 209.18 Q 174.02 209.18 173.33 208.13 Q 172.63 207.08 172.63 205.38 Q 172.63 203.67 173.33 202.63 Q 174.03 201.59 175.16 201.59 Q 176.30 201.59 177.00 202.63 Q 177.69 203.67 177.69 205.37 Q 177.69 207.11 177.00 208.14 Q 176.30 209.18 175.13 209.18 z M 175.14 208.46 Q 176.67 208.46 176.67 205.35 Q 176.67 202.32 175.16 202.32 Q 173.66 202.32 173.66 205.38 Q 173.66 208.46 175.14 208.46 z" />
      </g>
    </g>
    <clipPath id="clip14">
      <path id="path126" d="M 0.0000 0.0000 L 0.0000 277.00 L 386.00 277.00 L 386.00 0.0000 z" />
    </clipPath>
    <g id="g128" clip-path="url(#clip14)">
      <g id="g130" fill="#000000" stroke="none" fill-rule="nonzero" fill-opacity="1.0000">
        <path id="path132" d="M 216.50 209.00 L 216.50 208.28 L 217.95 208.28 L 217.95 202.57 L 216.50 202.94 L 216.50 202.19 L 218.92 201.59 L 218.92 208.28 L 220.36 208.28 L 220.36 209.00 z" />
      </g>
    </g>
    <clipPath id="clip15">
      <path id="path135" d="M 0.0000 0.0000 L 0.0000 277.00 L 386.00 277.00 L 386.00 0.0000 z" />
    </clipPath>
    <g id="g137" clip-path="url(#clip15)">
      <g id="g139" stroke="#000000" stroke-opacity="1.0000" fill="none" stroke-linecap="butt">
        <path id="path141" d="M 217.00 196.00 L 217.00 199.00" />
      </g>
    </g>
    <clipPath id="clip16">
      <path id="path144" d="M 0.0000 0.0000 L 0.0000 277.00 L 386.00 277.00 L 386.00 0.0000 z" />
    </clipPath>
    <g id="g146" clip-path="url(#clip16)">
      <g id="g148" fill="#000000" stroke="none" fill-rule="nonzero" fill-opacity="1.0000">
        <path id="path150" d="M 265.83 209.00 L 265.83 208.16 Q 266.25 207.17 267.53 206.02 L 268.08 205.52 Q 269.15 204.56 269.15 203.61 Q 269.15 203.01 268.78 202.66 Q 268.42 202.32 267.78 202.32 Q 267.03 202.32 266.01 202.90 L 266.01 202.05 Q 266.97 201.59 267.92 201.59 Q 268.94 201.59 269.55 202.14 Q 270.17 202.69 270.17 203.59 Q 270.17 204.24 269.86 204.74 Q 269.55 205.25 268.70 205.96 L 268.33 206.28 Q 267.17 207.26 266.99 208.16 L 270.13 208.16 L 270.13 209.00 z" />
      </g>
    </g>
    <clipPath id="clip17">
      <path id="path153" d="M 0.0000 0.0000 L 0.0000 277.00 L 386.00 277.00 L 386.00 0.0000 z" />
    </clipPath>
    <g id="g155" clip-path="url(#clip17)">
      <g id="g157" stroke="#000000" stroke-opacity="1.0000" fill="none" stroke-linecap="butt">
        <path id="path159" d="M 267.00 196.00 L 267.00 199.00" />
      </g>
    </g>
    <clipPath id="clip18">
      <path id="path162" d="M 0.0000 0.0000 L 0.0000 277.00 L 386.00 277.00 L 386.00 0.0000 z" />
    </clipPath>
    <g id="g164" clip-path="url(#clip18)">
      <g id="g166" fill="#000000" stroke="none" fill-rule="nonzero" fill-opacity="1.0000">
        <path id="path168" d="M 316.02 208.95 L 316.02 208.05 Q 317.05 208.46 317.65 208.46 Q 318.33 208.46 318.77 208.06 Q 319.20 207.65 319.20 207.01 Q 319.20 205.49 317.07 205.49 L 316.68 205.49 L 316.68 204.84 L 317.02 204.83 Q 319.02 204.83 319.02 203.42 Q 319.02 202.32 317.71 202.32 Q 316.98 202.32 316.11 202.72 L 316.11 201.88 Q 316.97 201.59 317.77 201.59 Q 319.99 201.59 319.99 203.27 Q 319.99 204.54 318.48 205.08 Q 320.23 205.49 320.23 207.00 Q 320.23 208.02 319.56 208.60 Q 318.88 209.18 317.71 209.18 Q 317.04 209.18 316.02 208.95 z" />
      </g>
    </g>
    <clipPath id="clip19">
      <path id="path171" d="M 0.0000 0.0000 L 0.0000 277.00 L 386.00 277.00 L 386.00 0.0000 z" />
    </clipPath>
    <g id="g173" clip-path="url(#clip19)">
      <g id="g175" stroke="#000000" stroke-opacity="1.0000" fill="none" stroke-linecap="butt">
        <path id="path177" d="M 317.00 196.00 L 317.00 199.00" />
      </g>
    </g>
    <clipPath id="clip20">
      <path id="path180" d="M 0.0000 0.0000 L 0.0000 277.00 L 386.00 277.00 L 386.00 0.0000 z" />
    </clipPath>
    <g id="g182" clip-path="url(#clip20)">
      <g id="g184" fill="#000000" stroke="none" fill-rule="nonzero" fill-opacity="1.0000">
        <path id="path186" d="M 368.76 209.00 L 368.76 206.95 L 365.51 206.95 L 365.51 206.23 L 368.76 201.77 L 369.67 201.77 L 369.67 206.17 L 370.63 206.17 L 370.63 206.95 L 369.67 206.95 L 369.67 209.00 z M 366.46 206.17 L 368.83 206.17 L 368.83 202.96 z" />
      </g>
    </g>
    <clipPath id="clip21">
      <path id="path189" d="M 0.0000 0.0000 L 0.0000 277.00 L 386.00 277.00 L 386.00 0.0000 z" />
    </clipPath>
    <g id="g191" clip-path="url(#clip21)">
      <g id="g193" stroke="#000000" stroke-opacity="1.0000" fill="none" stroke-linecap="butt">
        <path id="path195" d="M 367.00 196.00 L 367.00 199.00" />
      </g>
    </g>
    <clipPath id="clip22">
      <path id="path198" d="M 0.0000 0.0000 L 0.0000 277.00 L 386.00 277.00 L 386.00 0.0000 z" />
    </clipPath>
    <g id="g200" clip-path="url(#clip22)">
      <g id="g202" fill="#000000" stroke="none" fill-rule="nonzero" fill-opacity="1.0000">
        <path id="path204" d="M 149.51 246.35 L 149.51 245.68 L 153.49 245.68 L 153.49 246.35 z M 155.50 249.00 L 155.50 248.28 L 156.95 248.28 L 156.95 242.57 L 155.50 242.94 L 155.50 242.19 L 157.92 241.59 L 157.92 248.28 L 159.36 248.28 L 159.36 249.00 z" />
      </g>
    </g>
    <clipPath id="clip23">
      <path id="path207" d="M 0.0000 0.0000 L 0.0000 277.00 L 386.00 277.00 L 386.00 0.0000 z" />
    </clipPath>
    <g id="g209" clip-path="url(#clip23)">
      <g id="g211" stroke="#000000" stroke-opacity="1.0000" fill="none" stroke-linecap="butt">
        <path id="path213" d="M 164.00 246.00 L 167.00 246.00" />
      </g>
    </g>
    <clipPath id="clip24">
      <path id="path216" d="M 0.0000 0.0000 L 0.0000 277.00 L 386.00 277.00 L 386.00 0.0000 z" />
    </clipPath>
    <g id="g218" clip-path="url(#clip24)">
      <g id="g220" fill="#000000" stroke="none" fill-rule="nonzero" fill-opacity="1.0000">
        <path id="path222" d="M 157.13 193.18 Q 156.02 193.18 155.33 192.13 Q 154.63 191.08 154.63 189.38 Q 154.63 187.67 155.33 186.63 Q 156.03 185.59 157.16 185.59 Q 158.30 185.59 159.00 186.63 Q 159.69 187.67 159.69 189.37 Q 159.69 191.11 159.00 192.14 Q 158.30 193.18 157.13 193.18 z M 157.14 192.46 Q 158.67 192.46 158.67 189.35 Q 158.67 186.32 157.16 186.32 Q 155.66 186.32 155.66 189.38 Q 155.66 192.46 157.14 192.46 z" />
      </g>
    </g>
    <clipPath id="clip25">
      <path id="path225" d="M 0.0000 0.0000 L 0.0000 277.00 L 386.00 277.00 L 386.00 0.0000 z" />
    </clipPath>
    <g id="g227" clip-path="url(#clip25)">
      <g id="g229" fill="#000000" stroke="none" fill-rule="nonzero" fill-opacity="1.0000">
        <path id="path231" d="M 155.50 149.00 L 155.50 148.28 L 156.95 148.28 L 156.95 142.57 L 155.50 142.94 L 155.50 142.19 L 157.92 141.59 L 157.92 148.28 L 159.36 148.28 L 159.36 149.00 z" />
      </g>
    </g>
    <clipPath id="clip26">
      <path id="path234" d="M 0.0000 0.0000 L 0.0000 277.00 L 386.00 277.00 L 386.00 0.0000 z" />
    </clipPath>
    <g id="g236" clip-path="url(#clip26)">
      <g id="g238" stroke="#000000" stroke-opacity="1.0000" fill="none" stroke-linecap="butt">
        <path id="path240" d="M 164.00 146.00 L 167.00 146.00" />
      </g>
    </g>
    <clipPath id="clip27">
      <path id="path243" d="M 0.0000 0.0000 L 0.0000 277.00 L 386.00 277.00 L 386.00 0.0000 z" />
    </clipPath>
    <g id="g245" clip-path="url(#clip27)">
      <g id="g247" fill="#000000" stroke="none" fill-rule="nonzero" fill-opacity="1.0000">
        <path id="path249" d="M 154.83 99.000 L 154.83 98.155 Q 155.25 97.174 156.53 96.017 L 157.08 95.523 Q 158.15 94.562 158.15 93.614 Q 158.15 93.009 157.78 92.662 Q 157.42 92.315 156.78 92.315 Q 156.03 92.315 155.01 92.896 L 155.01 92.047 Q 155.97 91.593 156.92 91.593 Q 157.94 91.593 158.55 92.140 Q 159.17 92.687 159.17 93.590 Q 159.17 94.239 158.86 94.742 Q 158.55 95.245 157.70 95.963 L 157.33 96.280 Q 156.17 97.262 155.99 98.155 L 159.13 98.155 L 159.13 99.000 z" />
      </g>
    </g>
    <clipPath id="clip28">
      <path id="path252" d="M 0.0000 0.0000 L 0.0000 277.00 L 386.00 277.00 L 386.00 0.0000 z" />
    </clipPath>
    <g id="g254" clip-path="url(#clip28)">
      <g id="g256" stroke="#000000" stroke-opacity="1.0000" fill="none" stroke-linecap="butt">
        <path id="path258" d="M 164.00 96.000 L 167.00 96.000" />
      </g>
    </g>
    <clipPath id="clip29">
      <path id="path261" d="M 0.0000 0.0000 L 0.0000 277.00 L 386.00 277.00 L 386.00 0.0000 z" />
    </clipPath>
    <g id="g263" clip-path="url(#clip29)">
      <g id="g265" fill="#000000" stroke="none" fill-rule="nonzero" fill-opacity="1.0000">
        <path id="path267" d="M 155.02 48.946 L 155.02 48.048 Q 156.05 48.458 156.65 48.458 Q 157.33 48.458 157.77 48.055 Q 158.20 47.652 158.20 47.013 Q 158.20 45.489 156.07 45.489 L 155.68 45.489 L 155.68 44.840 L 156.02 44.835 Q 158.02 44.835 158.02 43.424 Q 158.02 42.315 156.71 42.315 Q 155.98 42.315 155.11 42.721 L 155.11 41.881 Q 155.97 41.593 156.77 41.593 Q 158.99 41.593 158.99 43.268 Q 158.99 44.542 157.48 45.084 Q 159.23 45.489 159.23 46.998 Q 159.23 48.019 158.56 48.600 Q 157.88 49.181 156.71 49.181 Q 156.04 49.181 155.02 48.946 z" />
      </g>
    </g>
    <clipPath id="clip30">
      <path id="path270" d="M 0.0000 0.0000 L 0.0000 277.00 L 386.00 277.00 L 386.00 0.0000 z" />
    </clipPath>
    <g id="g272" clip-path="url(#clip30)">
      <g id="g274" stroke="#000000" stroke-opacity="1.0000" fill="none" stroke-linecap="butt">
        <path id="path276" d="M 164.00 46.000 L 167.00 46.000" />
      </g>
    </g>
    <clipPath id="clip31">
      <path id="path279" d="M 0.0000 0.0000 L 0.0000 277.00 L 386.00 277.00 L 386.00 0.0000 z" />
    </clipPath>
    <g id="g281" clip-path="url(#clip31)">
      <g id="g283" stroke="#c0c0c0" stroke-opacity="1.0000" fill="none" stroke-linecap="round" stroke-linejoin="round">
        <path id="path285" d="M 17.000 0.0000 L 17.000 196.00" />
      </g>
    </g>
    <clipPath id="clip32">
      <path id="path288" d="M 0.0000 0.0000 L 0.0000 277.00 L 386.00 277.00 L 386.00 0.0000 z" />
    </clipPath>
    <g id="g290" clip-path="url(#clip32)">
      <g id="g292" stroke="#c0c0c0" stroke-opacity="1.0000" fill="none" stroke-linecap="round" stroke-linejoin="round">
        <path id="path294" d="M 17.000 215.00 L 17.000 277.00" />
      </g>
    </g>
    <clipPath id="clip33">
      <path id="path297" d="M 0.0000 0.0000 L 0.0000 277.00 L 386.00 277.00 L 386.00 0.0000 z" />
    </clipPath>
    <g id="g299" clip-path="url(#clip33)">
      <g id="g301" stroke="#c0c0c0" stroke-opacity="1.0000" fill="none" stroke-linecap="round" stroke-linejoin="round">
        <path id="path303" d="M 17.000 0.0000 L 17.000 196.00" />
      </g>
    </g>
    <clipPath id="clip34">
      <path id="path306" d="M 0.0000 0.0000 L 0.0000 277.00 L 386.00 277.00 L 386.00 0.0000 z" />
    </clipPath>
    <g id="g308" clip-path="url(#clip34)">
      <g id="g310" stroke="#c0c0c0" stroke-opacity="1.0000" fill="none" stroke-linecap="round" stroke-linejoin="round">
        <path id="path312" d="M 17.000 215.00 L 17.000 277.00" />
      </g>
    </g>
    <clipPath id="clip35">
      <path id="path315" d="M 0.0000 0.0000 L 0.0000 277.00 L 386.00 277.00 L 386.00 0.0000 z" />
    </clipPath>
    <g id="g317" clip-path="url(#clip35)">
      <g id="g319" stroke="#c0c0c0" stroke-opacity="1.0000" fill="none" stroke-linecap="round" stroke-linejoin="round">
        <path id="path321" d="M 67.000 0.0000 L 67.000 196.00" />
      </g>
    </g>
    <clipPath id="clip36">
      <path id="path324" d="M 0.0000 0.0000 L 0.0000 277.00 L 386.00 277.00 L 386.00 0.0000 z" />
    </clipPath>
    <g id="g326" clip-path="url(#clip36)">
      <g id="g328" stroke="#c0c0c0" stroke-opacity="1.0000" fill="none" stroke-linecap="round" stroke-linejoin="round">
        <path id="path330" d="M 67.000 215.00 L 67.000 277.00" />
      </g>
    </g>
    <clipPath id="clip37">
      <path id="path333" d="M 0.0000 0.0000 L 0.0000 277.00 L 386.00 277.00 L 386.00 0.0000 z" />
    </clipPath>
    <g id="g335" clip-path="url(#clip37)">
      <g id="g337" stroke="#c0c0c0" stroke-opacity="1.0000" fill="none" stroke-linecap="round" stroke-linejoin="round">
        <path id="path339" d="M 117.00 0.0000 L 117.00 196.00" />
      </g>
    </g>
    <clipPath id="clip38">
      <path id="path342" d="M 0.0000 0.0000 L 0.0000 277.00 L 386.00 277.00 L 386.00 0.0000 z" />
    </clipPath>
    <g id="g344" clip-path="url(#clip38)">
      <g id="g346" stroke="#c0c0c0" stroke-opacity="1.0000" fill="none" stroke-linecap="round" stroke-linejoin="round">
        <path id="path348" d="M 117.00 215.00 L 117.00 277.00" />
      </g>
    </g>
    <clipPath id="clip39">
      <path id="path351" d="M 0.0000 0.0000 L 0.0000 277.00 L 386.00 277.00 L 386.00 0.0000 z" />
    </clipPath>
    <g id="g353" clip-path="url(#clip39)">
      <g id="g355" stroke="#c0c0c0" stroke-opacity="1.0000" fill="none" stroke-linecap="round" stroke-linejoin="round">
        <path id="path357" d="M 217.00 0.0000 L 217.00 196.00" />
      </g>
    </g>
    <clipPath id="clip40">
      <path id="path360" d="M 0.0000 0.0000 L 0.0000 277.00 L 386.00 277.00 L 386.00 0.0000 z" />
    </clipPath>
    <g id="g362" clip-path="url(#clip40)">
      <g id="g364" stroke="#c0c0c0" stroke-opacity="1.0000" fill="none" stroke-linecap="round" stroke-linejoin="round">
        <path id="path366" d="M 217.00 215.00 L 217.00 277.00" />
      </g>
    </g>
    <clipPath id="clip41">
      <path id="path369" d="M 0.0000 0.0000 L 0.0000 277.00 L 386.00 277.00 L 386.00 0.0000 z" />
    </clipPath>
    <g id="g371" clip-path="url(#clip41)">
      <g id="g373" stroke="#c0c0c0" stroke-opacity="1.0000" fill="none" stroke-linecap="round" stroke-linejoin="round">
        <path id="path375" d="M 267.00 0.0000 L 267.00 196.00" />
      </g>
    </g>
    <clipPath id="clip42">
      <path id="path378" d="M 0.0000 0.0000 L 0.0000 277.00 L 386.00 277.00 L 386.00 0.0000 z" />
    </clipPath>
    <g id="g380" clip-path="url(#clip42)">
      <g id="g382" stroke="#c0c0c0" stroke-opacity="1.0000" fill="none" stroke-linecap="round" stroke-linejoin="round">
        <path id="path384" d="M 267.00 215.00 L 267.00 277.00" />
      </g>
    </g>
    <clipPath id="clip43">
      <path id="path387" d="M 0.0000 0.0000 L 0.0000 277.00 L 386.00 277.00 L 386.00 0.0000 z" />
    </clipPath>
    <g id="g389" clip-path="url(#clip43)">
      <g id="g391" stroke="#c0c0c0" stroke-opacity="1.0000" fill="none" stroke-linecap="round" stroke-linejoin="round">
        <path id="path393" d="M 317.00 0.0000 L 317.00 196.00" />
      </g>
    </g>
    <clipPath id="clip44">
      <path id="path396" d="M 0.0000 0.0000 L 0.0000 277.00 L 386.00 277.00 L 386.00 0.0000 z" />
    </clipPath>
    <g id="g398" clip-path="url(#clip44)">
      <g id="g400" stroke="#c0c0c0" stroke-opacity="1.0000" fill="none" stroke-linecap="round" stroke-linejoin="round">
        <path id="path402" d="M 317.00 215.00 L 317.00 277.00" />
      </g>
    </g>
    <clipPath id="clip45">
      <path id="path405" d="M 0.0000 0.0000 L 0.0000 277.00 L 386.00 277.00 L 386.00 0.0000 z" />
    </clipPath>
    <g id="g407" clip-path="url(#clip45)">
      <g id="g409" stroke="#c0c0c0" stroke-opacity="1.0000" fill="none" stroke-linecap="round" stroke-linejoin="round">
        <path id="path411" d="M 367.00 0.0000 L 367.00 196.00" />
      </g>
    </g>
    <clipPath id="clip46">
      <path id="path414" d="M 0.0000 0.0000 L 0.0000 277.00 L 386.00 277.00 L 386.00 0.0000 z" />
    </clipPath>
    <g id="g416" clip-path="url(#clip46)">
      <g id="g418" stroke="#c0c0c0" stroke-opacity="1.0000" fill="none" stroke-linecap="round" stroke-linejoin="round">
        <path id="path420" d="M 367.00 215.00 L 367.00 277.00" />
      </g>
    </g>
    <clipPath id="clip47">
      <path id="path423" d="M 0.0000 0.0000 L 0.0000 277.00 L 386.00 277.00 L 386.00 0.0000 z" />
    </clipPath>
    <g id="g425" clip-path="url(#clip47)">
      <g id="g427" stroke="#c0c0c0" stroke-opacity="1.0000" fill="none" stroke-linecap="round" stroke-linejoin="round">
        <path id="path429" d="M 0.0000 46.000 L 150.68 46.000" />
      </g>
    </g>
    <clipPath id="clip48">
      <path id="path432" d="M 0.0000 0.0000 L 0.0000 277.00 L 386.00 277.00 L 386.00 0.0000 z" />
    </clipPath>
    <g id="g434" clip-path="url(#clip48)">
      <g id="g436" stroke="#c0c0c0" stroke-opacity="1.0000" fill="none" stroke-linecap="round" stroke-linejoin="round">
        <path id="path438" d="M 167.00 46.000 L 386.00 46.000" />
      </g>
    </g>
    <clipPath id="clip49">
      <path id="path441" d="M 0.0000 0.0000 L 0.0000 277.00 L 386.00 277.00 L 386.00 0.0000 z" />
    </clipPath>
    <g id="g443" clip-path="url(#clip49)">
      <g id="g445" stroke="#c0c0c0" stroke-opacity="1.0000" fill="none" stroke-linecap="round" stroke-linejoin="round">
        <path id="path447" d="M 0.0000 46.000 L 150.68 46.000" />
      </g>
    </g>
    <clipPath id="clip50">
      <path id="path450" d="M 0.0000 0.0000 L 0.0000 277.00 L 386.00 277.00 L 386.00 0.0000 z" />
    </clipPath>
    <g id="g452" clip-path="url(#clip50)">
      <g id="g454" stroke="#c0c0c0" stroke-opacity="1.0000" fill="none" stroke-linecap="round" stroke-linejoin="round">
        <path id="path456" d="M 167.00 46.000 L 386.00 46.000" />
      </g>
    </g>
    <clipPath id="clip51">
      <path id="path459" d="M 0.0000 0.0000 L 0.0000 277.00 L 386.00 277.00 L 386.00 0.0000 z" />
    </clipPath>
    <g id="g461" clip-path="url(#clip51)">
      <g id="g463" stroke="#c0c0c0" stroke-opacity="1.0000" fill="none" stroke-linecap="round" stroke-linejoin="round">
        <path id="path465" d="M 0.0000 96.000 L 150.68 96.000" />
      </g>
    </g>
    <clipPath id="clip52">
      <path id="path468" d="M 0.0000 0.0000 L 0.0000 277.00 L 386.00 277.00 L 386.00 0.0000 z" />
    </clipPath>
    <g id="g470" clip-path="url(#clip52)">
      <g id="g472" stroke="#c0c0c0" stroke-opacity="1.0000" fill="none" stroke-linecap="round" stroke-linejoin="round">
        <path id="path474" d="M 167.00 96.000 L 386.00 96.000" />
      </g>
    </g>
    <clipPath id="clip53">
      <path id="path477" d="M 0.0000 0.0000 L 0.0000 277.00 L 386.00 277.00 L 386.00 0.0000 z" />
    </clipPath>
    <g id="g479" clip-path="url(#clip53)">
      <g id="g481" stroke="#c0c0c0" stroke-opacity="1.0000" fill="none" stroke-linecap="round" stroke-linejoin="round">
        <path id="path483" d="M 0.0000 146.00 L 150.68 146.00" />
      </g>
    </g>
    <clipPath id="clip54">
      <path id="path486" d="M 0.0000 0.0000 L 0.0000 277.00 L 386.00 277.00 L 386.00 0.0000 z" />
    </clipPath>
    <g id="g488" clip-path="url(#clip54)">
      <g id="g490" stroke="#c0c0c0" stroke-opacity="1.0000" fill="none" stroke-linecap="round" stroke-linejoin="round">
        <path id="path492" d="M 167.00 146.00 L 386.00 146.00" />
      </g>
    </g>
    <clipPath id="clip55">
      <path id="path495" d="M 0.0000 0.0000 L 0.0000 277.00 L 386.00 277.00 L 386.00 0.0000 z" />
    </clipPath>
    <g id="g497" clip-path="url(#clip55)">
      <g id="g499" stroke="#c0c0c0" stroke-opacity="1.0000" fill="none" stroke-linecap="round" stroke-linejoin="round">
        <path id="path501" d="M 0.0000 246.00 L 145.68 246.00" />
      </g>
    </g>
    <clipPath id="clip56">
      <path id="path504" d="M 0.0000 0.0000 L 0.0000 277.00 L 386.00 277.00 L 386.00 0.0000 z" />
    </clipPath>
    <g id="g506" clip-path="url(#clip56)">
      <g id="g508" stroke="#c0c0c0" stroke-opacity="1.0000" fill="none" stroke-linecap="round" stroke-linejoin="round">
        <path id="path510" d="M 167.00 246.00 L 386.00 246.00" />
      </g>
    </g>
    <g id="misc" />
    <g id="layer0">
      <clipPath id="clip57">
        <path id="path515" d="M 0.0000 0.0000 L 0.0000 277.00 L 386.00 277.00 L 386.00 0.0000 z" />
      </clipPath>
      <g id="g517" clip-path="url(#clip57)">
        <g id="g519" stroke="#0000ff" stroke-opacity="1.0000" fill="none" stroke-linecap="round" stroke-width="2.5000" stroke-linejoin="round">
          <path id="path521" d="M 81.000 282.00 L 368.00 -5.0000" />
          <title id="title523">Line f</title>
          <desc id="desc525">f: y = x</desc>
        </g>
      </g>
      <clipPath id="clip58">
        <path id="path528" d="M 0.0000 0.0000 L 0.0000 277.00 L 386.00 277.00 L 386.00 0.0000 z" />
      </clipPath>
      <g id="g530" clip-path="url(#clip58)">
        <g id="g532" stroke="#ff00ff" stroke-opacity="1.0000" fill="none" stroke-linecap="round" stroke-width="2.5000" stroke-linejoin="round">
          <path id="path534" d="M 378.00 282.00 L 91.000 -5.0000" />
          <title id="title536">Line g</title>
          <desc id="desc538">g: y = -x + 2.5</desc>
        </g>
      </g>
      <clipPath id="clip59">
        <path id="path541" d="M 0.0000 0.0000 L 0.0000 277.00 L 386.00 277.00 L 386.00 0.0000 z" />
      </clipPath>
      <g id="g543" clip-path="url(#clip59)">
        <g id="g545" stroke="#0000ff" stroke-opacity="1.0000" fill="none" stroke-linecap="butt" stroke-width="2.0000" stroke-dasharray="6.0000,4.0000" stroke-linejoin="round">
          <path id="path547" d="M 253.00 282.00 L -5.0000 24.000" />
          <title id="title549">Line h</title>
          <desc id="desc551">h: y = -x</desc>
        </g>
      </g>
      <clipPath id="clip60">
        <path id="path554" d="M 0.0000 0.0000 L 0.0000 277.00 L 386.00 277.00 L 386.00 0.0000 z" />
      </clipPath>
      <g id="g556" clip-path="url(#clip60)">
        <g id="g558" stroke="#0000ff" stroke-opacity="1.0000" fill="none" stroke-linecap="round" stroke-width="3.0000" stroke-linejoin="round">
          <path id="path560" d="M 117.00 146.00 L 117.85 39.999" />
          <title id="title562">Vector u</title>
          <desc id="desc564">Vector u: Vector[C, D]</desc>
        </g>
      </g>
      <clipPath id="clip61">
        <path id="path567" d="M 0.0000 0.0000 L 0.0000 277.00 L 386.00 277.00 L 386.00 0.0000 z" />
      </clipPath>
      <g id="g569" clip-path="url(#clip61)">
        <g id="g571" fill="#0000ff" stroke="none" fill-rule="evenodd" fill-opacity="1.0000">
          <path id="path573" d="M 118.00 22.000 L 122.35 40.036 L 113.35 39.963 z" />
          <title id="title575">Vector u</title>
          <desc id="desc577">Vector u: Vector[C, D]</desc>
        </g>
      </g>
      <clipPath id="clip62">
        <path id="path580" d="M 0.0000 0.0000 L 0.0000 277.00 L 386.00 277.00 L 386.00 0.0000 z" />
      </clipPath>
      <g id="g582" clip-path="url(#clip62)">
        <g id="g584" stroke="#0000ff" stroke-opacity="1.0000" fill="none" stroke-linecap="round" stroke-width="3.0000" stroke-linejoin="round">
          <path id="path586" d="M 167.00 196.00 L 167.00 89.000" />
          <title id="title588">Vector v</title>
          <desc id="desc590">Vector v: Vector[A, B]</desc>
        </g>
      </g>
      <clipPath id="clip63">
        <path id="path593" d="M 0.0000 0.0000 L 0.0000 277.00 L 386.00 277.00 L 386.00 0.0000 z" />
      </clipPath>
      <g id="g595" clip-path="url(#clip63)">
        <g id="g597" fill="#0000ff" stroke="none" fill-rule="evenodd" fill-opacity="1.0000">
          <path id="path599" d="M 167.00 71.000 L 171.50 89.000 L 162.50 89.000 z" />
          <title id="title601">Vector v</title>
          <desc id="desc603">Vector v: Vector[A, B]</desc>
        </g>
      </g>
      <clipPath id="clip64">
        <path id="path606" d="M 0.0000 0.0000 L 0.0000 277.00 L 386.00 277.00 L 386.00 0.0000 z" />
      </clipPath>
      <g id="g608" clip-path="url(#clip64)">
        <g id="g610" stroke="#0000ff" stroke-opacity="1.0000" fill="none" stroke-linecap="round" stroke-width="3.0000" stroke-linejoin="round">
          <path id="path612" d="M 217.00 246.00 L 218.28 140.50" />
          <title id="title614">Vector w</title>
          <desc id="desc616">Vector w: Vector[E, F]</desc>
        </g>
      </g>
      <clipPath id="clip65">
        <path id="path619" d="M 0.0000 0.0000 L 0.0000 277.00 L 386.00 277.00 L 386.00 0.0000 z" />
      </clipPath>
      <g id="g621" clip-path="url(#clip65)">
        <g id="g623" fill="#0000ff" stroke="none" fill-rule="evenodd" fill-opacity="1.0000">
          <path id="path625" d="M 218.50 122.50 L 222.78 140.55 L 213.78 140.44 z" />
          <title id="title627">Vector w</title>
          <desc id="desc629">Vector w: Vector[E, F]</desc>
        </g>
      </g>
      <clipPath id="clip66">
        <path id="path632" d="M 0.0000 0.0000 L 0.0000 277.00 L 386.00 277.00 L 386.00 0.0000 z" />
      </clipPath>
      <g id="g634" clip-path="url(#clip66)">
        <g id="g636" fill="#0000ff" stroke="none" fill-rule="nonzero" fill-opacity="1.0000">
          <path id="path638" d="M 173.00 196.00 C 173.00 199.31 170.31 202.00 167.00 202.00 C 163.69 202.00 161.00 199.31 161.00 196.00 C 161.00 192.69 163.69 190.00 167.00 190.00 C 170.31 190.00 173.00 192.69 173.00 196.00 z" />
          <title id="title640">Point A</title>
          <desc id="desc642">Point A: Intersection point of f, h</desc>
        </g>
      </g>
      <clipPath id="clip67">
        <path id="path645" d="M 0.0000 0.0000 L 0.0000 277.00 L 386.00 277.00 L 386.00 0.0000 z" />
      </clipPath>
      <g id="g647" clip-path="url(#clip67)">
        <g id="g649" stroke="#000000" stroke-opacity="1.0000" fill="none" stroke-linecap="round" stroke-linejoin="round">
          <path id="path651" d="M 173.00 196.00 C 173.00 199.31 170.31 202.00 167.00 202.00 C 163.69 202.00 161.00 199.31 161.00 196.00 C 161.00 192.69 163.69 190.00 167.00 190.00 C 170.31 190.00 173.00 192.69 173.00 196.00 z" />
          <title id="title653">Point A</title>
          <desc id="desc655">Point A: Intersection point of f, h</desc>
        </g>
      </g>
      <clipPath id="clip68">
        <path id="path658" d="M 0.0000 0.0000 L 0.0000 277.00 L 386.00 277.00 L 386.00 0.0000 z" />
      </clipPath>
      <g id="g660" clip-path="url(#clip68)">
        <g id="g662" fill="#ff00ff" stroke="none" fill-rule="nonzero" fill-opacity="1.0000">
          <path id="path664" d="M 173.00 71.000 C 173.00 74.314 170.31 77.000 167.00 77.000 C 163.69 77.000 161.00 74.314 161.00 71.000 C 161.00 67.686 163.69 65.000 167.00 65.000 C 170.31 65.000 173.00 67.686 173.00 71.000 z" />
          <title id="title666">Point B</title>
          <desc id="desc668">Point B: Intersection point of g, yAxis</desc>
        </g>
      </g>
      <clipPath id="clip69">
        <path id="path671" d="M 0.0000 0.0000 L 0.0000 277.00 L 386.00 277.00 L 386.00 0.0000 z" />
      </clipPath>
      <g id="g673" clip-path="url(#clip69)">
        <g id="g675" stroke="#000000" stroke-opacity="1.0000" fill="none" stroke-linecap="round" stroke-linejoin="round">
          <path id="path677" d="M 173.00 71.000 C 173.00 74.314 170.31 77.000 167.00 77.000 C 163.69 77.000 161.00 74.314 161.00 71.000 C 161.00 67.686 163.69 65.000 167.00 65.000 C 170.31 65.000 173.00 67.686 173.00 71.000 z" />
          <title id="title679">Point B</title>
          <desc id="desc681">Point B: Intersection point of g, yAxis</desc>
        </g>
      </g>
      <clipPath id="clip70">
        <path id="path684" d="M 0.0000 0.0000 L 0.0000 277.00 L 386.00 277.00 L 386.00 0.0000 z" />
      </clipPath>
      <g id="g686" clip-path="url(#clip70)">
        <g id="g688" fill="#0000ff" stroke="none" fill-rule="nonzero" fill-opacity="1.0000">
          <path id="path690" d="M 123.00 146.00 C 123.00 149.31 120.31 152.00 117.00 152.00 C 113.69 152.00 111.00 149.31 111.00 146.00 C 111.00 142.69 113.69 140.00 117.00 140.00 C 120.31 140.00 123.00 142.69 123.00 146.00 z" />
          <title id="title692">Point C</title>
          <desc id="desc694">Point C: Point on h</desc>
        </g>
      </g>
      <clipPath id="clip71">
        <path id="path697" d="M 0.0000 0.0000 L 0.0000 277.00 L 386.00 277.00 L 386.00 0.0000 z" />
      </clipPath>
      <g id="g699" clip-path="url(#clip71)">
        <g id="g701" stroke="#000000" stroke-opacity="1.0000" fill="none" stroke-linecap="round" stroke-linejoin="round">
          <path id="path703" d="M 123.00 146.00 C 123.00 149.31 120.31 152.00 117.00 152.00 C 113.69 152.00 111.00 149.31 111.00 146.00 C 111.00 142.69 113.69 140.00 117.00 140.00 C 120.31 140.00 123.00 142.69 123.00 146.00 z" />
          <title id="title705">Point C</title>
          <desc id="desc707">Point C: Point on h</desc>
        </g>
      </g>
      <clipPath id="clip72">
        <path id="path710" d="M 0.0000 0.0000 L 0.0000 277.00 L 386.00 277.00 L 386.00 0.0000 z" />
      </clipPath>
      <g id="g712" clip-path="url(#clip72)">
        <g id="g714" fill="#ff00ff" stroke="none" fill-rule="nonzero" fill-opacity="1.0000">
          <path id="path716" d="M 124.00 22.000 C 124.00 25.314 121.31 28.000 118.00 28.000 C 114.69 28.000 112.00 25.314 112.00 22.000 C 112.00 18.686 114.69 16.000 118.00 16.000 C 121.31 16.000 124.00 18.686 124.00 22.000 z" />
          <title id="title718">Point D</title>
          <desc id="desc720">Point D: Point on g</desc>
        </g>
      </g>
      <clipPath id="clip73">
        <path id="path723" d="M 0.0000 0.0000 L 0.0000 277.00 L 386.00 277.00 L 386.00 0.0000 z" />
      </clipPath>
      <g id="g725" clip-path="url(#clip73)">
        <g id="g727" stroke="#000000" stroke-opacity="1.0000" fill="none" stroke-linecap="round" stroke-linejoin="round">
          <path id="path729" d="M 124.00 22.000 C 124.00 25.314 121.31 28.000 118.00 28.000 C 114.69 28.000 112.00 25.314 112.00 22.000 C 112.00 18.686 114.69 16.000 118.00 16.000 C 121.31 16.000 124.00 18.686 124.00 22.000 z" />
          <title id="title731">Point D</title>
          <desc id="desc733">Point D: Point on g</desc>
        </g>
      </g>
      <clipPath id="clip74">
        <path id="path736" d="M 0.0000 0.0000 L 0.0000 277.00 L 386.00 277.00 L 386.00 0.0000 z" />
      </clipPath>
      <g id="g738" clip-path="url(#clip74)">
        <g id="g740" fill="#0000ff" stroke="none" fill-rule="nonzero" fill-opacity="1.0000">
          <path id="path742" d="M 223.00 246.00 C 223.00 249.31 220.31 252.00 217.00 252.00 C 213.69 252.00 211.00 249.31 211.00 246.00 C 211.00 242.69 213.69 240.00 217.00 240.00 C 220.31 240.00 223.00 242.69 223.00 246.00 z" />
          <title id="title744">Point E</title>
          <desc id="desc746">Point E: Point on h</desc>
        </g>
      </g>
      <clipPath id="clip75">
        <path id="path749" d="M 0.0000 0.0000 L 0.0000 277.00 L 386.00 277.00 L 386.00 0.0000 z" />
      </clipPath>
      <g id="g751" clip-path="url(#clip75)">
        <g id="g753" stroke="#000000" stroke-opacity="1.0000" fill="none" stroke-linecap="round" stroke-linejoin="round">
          <path id="path755" d="M 223.00 246.00 C 223.00 249.31 220.31 252.00 217.00 252.00 C 213.69 252.00 211.00 249.31 211.00 246.00 C 211.00 242.69 213.69 240.00 217.00 240.00 C 220.31 240.00 223.00 242.69 223.00 246.00 z" />
          <title id="title757">Point E</title>
          <desc id="desc759">Point E: Point on h</desc>
        </g>
      </g>
      <clipPath id="clip76">
        <path id="path762" d="M 0.0000 0.0000 L 0.0000 277.00 L 386.00 277.00 L 386.00 0.0000 z" />
      </clipPath>
      <g id="g764" clip-path="url(#clip76)">
        <g id="g766" fill="#ff00ff" stroke="none" fill-rule="nonzero" fill-opacity="1.0000">
          <path id="path768" d="M 224.50 122.50 C 224.50 125.81 221.81 128.50 218.50 128.50 C 215.19 128.50 212.50 125.81 212.50 122.50 C 212.50 119.19 215.19 116.50 218.50 116.50 C 221.81 116.50 224.50 119.19 224.50 122.50 z" />
          <title id="title770">Point F</title>
          <desc id="desc772">Point F: Point on g</desc>
        </g>
      </g>
      <clipPath id="clip77">
        <path id="path775" d="M 0.0000 0.0000 L 0.0000 277.00 L 386.00 277.00 L 386.00 0.0000 z" />
      </clipPath>
      <g id="g777" clip-path="url(#clip77)">
        <g id="g779" stroke="#000000" stroke-opacity="1.0000" fill="none" stroke-linecap="round" stroke-linejoin="round">
          <path id="path781" d="M 224.50 122.50 C 224.50 125.81 221.81 128.50 218.50 128.50 C 215.19 128.50 212.50 125.81 212.50 122.50 C 212.50 119.19 215.19 116.50 218.50 116.50 C 221.81 116.50 224.50 119.19 224.50 122.50 z" />
          <title id="title783">Point F</title>
          <desc id="desc785">Point F: Point on g</desc>
        </g>
      </g>
    </g>
  </g>
</svg>