<?xml version='1.0' ?><svg xmlns:dc="http://purl.org/dc/elements/1.1/" xmlns:cc="http://creativecommons.org/ns#" xmlns:rdf="http://www.w3.org/1999/02/22-rdf-syntax-ns#" xmlns:svg="http://www.w3.org/2000/svg" xmlns="http://www.w3.org/2000/svg" id="svg2" version="1.1" width="372.49997" height="269.40597" viewBox="0.0 0.30538448963758386 382.9999691543624 276.9999637852349" preserveAspectRatio="none">
  <metadata id="metadata1362">
    <rdf:RDF>
      <cc:Work rdf:about="">
        <dc:format>image/svg+xml</dc:format>
        <dc:type rdf:resource="http://purl.org/dc/dcmitype/StillImage" />
      </cc:Work>
    </rdf:RDF>
  </metadata>
  <defs id="defs1360" />
  <title id="title4" />
  <g id="g6" stroke-linecap="square" stroke-miterlimit="10.000" stroke-width="1.0000" stroke-dasharray="none" stroke-dashoffset="0.0000" stroke-linejoin="miter">
    <clipPath id="clip1">
      <path id="path9" d="M 0.0000 0.0000 L 0.0000 277.00 L 383.00 277.00 L 383.00 0.0000 z" />
    </clipPath>
    <g id="g11" clip-path="url(#clip1)">
      <g id="g13" stroke="#000000" stroke-opacity="1.0000" fill="none" stroke-linecap="butt">
        <path id="path15" d="M 146.78 2.0000 L 146.78 277.00" />
      </g>
    </g>
    <clipPath id="clip2">
      <path id="path18" d="M 0.0000 0.0000 L 0.0000 277.00 L 383.00 277.00 L 383.00 0.0000 z" />
    </clipPath>
    <g id="g20" clip-path="url(#clip2)">
      <g id="g22" stroke="#000000" stroke-opacity="1.0000" fill="none" stroke-linecap="butt">
        <path id="path24" d="M 146.78 1.0000 L 143.78 4.0000" />
      </g>
    </g>
    <clipPath id="clip3">
      <path id="path27" d="M 0.0000 0.0000 L 0.0000 277.00 L 383.00 277.00 L 383.00 0.0000 z" />
    </clipPath>
    <g id="g29" clip-path="url(#clip3)">
      <g id="g31" stroke="#000000" stroke-opacity="1.0000" fill="none" stroke-linecap="butt">
        <path id="path33" d="M 146.78 1.0000 L 149.78 4.0000" />
      </g>
    </g>
    <clipPath id="clip4">
      <path id="path36" d="M 0.0000 0.0000 L 0.0000 277.00 L 383.00 277.00 L 383.00 0.0000 z" />
    </clipPath>
    <g id="g38" clip-path="url(#clip4)">
      <g id="g40" stroke="#000000" stroke-opacity="1.0000" fill="none" stroke-linecap="butt">
        <path id="path42" d="M 0.0000 163.66 L 381.00 163.66" />
      </g>
    </g>
    <clipPath id="clip5">
      <path id="path45" d="M 0.0000 0.0000 L 0.0000 277.00 L 383.00 277.00 L 383.00 0.0000 z" />
    </clipPath>
    <g id="g47" clip-path="url(#clip5)">
      <g id="g49" stroke="#000000" stroke-opacity="1.0000" fill="none" stroke-linecap="butt">
        <path id="path51" d="M 382.00 163.66 L 379.00 160.66" />
      </g>
    </g>
    <clipPath id="clip6">
      <path id="path54" d="M 0.0000 0.0000 L 0.0000 277.00 L 383.00 277.00 L 383.00 0.0000 z" />
    </clipPath>
    <g id="g56" clip-path="url(#clip6)">
      <g id="g58" stroke="#000000" stroke-opacity="1.0000" fill="none" stroke-linecap="butt">
        <path id="path60" d="M 382.00 163.66 L 379.00 166.66" />
      </g>
    </g>
    <clipPath id="clip7">
      <path id="path63" d="M 0.0000 0.0000 L 0.0000 277.00 L 383.00 277.00 L 383.00 0.0000 z" />
    </clipPath>
    <g id="g65" clip-path="url(#clip7)">
      <g id="g67" fill="#000000" stroke="none" fill-rule="nonzero" fill-opacity="1.0000">
        <path id="path69" d="M 10.513 174.35 L 10.513 173.68 L 14.487 173.68 L 14.487 174.35 z M 16.719 173.25 Q 17.407 172.36 18.452 172.36 Q 19.399 172.36 20.002 172.99 Q 20.605 173.62 20.605 174.60 Q 20.605 175.73 19.929 176.45 Q 19.253 177.18 18.213 177.18 Q 17.017 177.18 16.343 176.22 Q 15.669 175.26 15.669 173.55 Q 15.669 171.67 16.443 170.63 Q 17.217 169.59 18.623 169.59 Q 19.268 169.59 20.234 169.86 L 20.234 170.70 Q 19.214 170.31 18.564 170.31 Q 16.719 170.31 16.719 173.25 z M 19.639 174.81 Q 19.639 173.99 19.270 173.52 Q 18.901 173.05 18.247 173.05 Q 17.637 173.05 17.197 173.46 Q 16.758 173.88 16.758 174.45 Q 16.758 175.36 17.175 175.91 Q 17.593 176.46 18.281 176.46 Q 18.901 176.46 19.270 176.01 Q 19.639 175.56 19.639 174.81 z" />
      </g>
    </g>
    <clipPath id="clip8">
      <path id="path72" d="M 0.0000 0.0000 L 0.0000 277.00 L 383.00 277.00 L 383.00 0.0000 z" />
    </clipPath>
    <g id="g74" clip-path="url(#clip8)">
      <g id="g76" stroke="#000000" stroke-opacity="1.0000" fill="none" stroke-linecap="butt">
        <path id="path78" d="M 14.823 163.66 L 14.823 166.66" />
      </g>
    </g>
    <clipPath id="clip9">
      <path id="path81" d="M 0.0000 0.0000 L 0.0000 277.00 L 383.00 277.00 L 383.00 0.0000 z" />
    </clipPath>
    <g id="g83" clip-path="url(#clip9)">
      <g id="g85" fill="#000000" stroke="none" fill-rule="nonzero" fill-opacity="1.0000">
        <path id="path87" d="M 32.513 174.35 L 32.513 173.68 L 36.487 173.68 L 36.487 174.35 z M 38.216 177.03 L 38.216 176.17 Q 38.934 176.46 39.583 176.46 Q 40.296 176.46 40.704 176.04 Q 41.111 175.62 41.111 174.88 Q 41.111 173.25 38.870 173.25 Q 38.616 173.25 38.338 173.29 L 38.338 169.77 L 41.995 169.77 L 41.995 170.61 L 39.183 170.61 L 39.183 172.52 Q 40.574 172.52 41.355 173.16 Q 42.137 173.80 42.137 174.93 Q 42.137 175.98 41.426 176.58 Q 40.716 177.18 39.456 177.18 Q 38.909 177.18 38.216 177.03 z" />
      </g>
    </g>
    <clipPath id="clip10">
      <path id="path90" d="M 0.0000 0.0000 L 0.0000 277.00 L 383.00 277.00 L 383.00 0.0000 z" />
    </clipPath>
    <g id="g92" clip-path="url(#clip10)">
      <g id="g94" stroke="#000000" stroke-opacity="1.0000" fill="none" stroke-linecap="butt">
        <path id="path96" d="M 36.815 163.66 L 36.815 166.66" />
      </g>
    </g>
    <clipPath id="clip11">
      <path id="path99" d="M 0.0000 0.0000 L 0.0000 277.00 L 383.00 277.00 L 383.00 0.0000 z" />
    </clipPath>
    <g id="g101" clip-path="url(#clip11)">
      <g id="g103" fill="#000000" stroke="none" fill-rule="nonzero" fill-opacity="1.0000">
        <path id="path105" d="M 54.513 174.35 L 54.513 173.68 L 58.487 173.68 L 58.487 174.35 z M 62.765 177.00 L 62.765 174.95 L 59.513 174.95 L 59.513 174.23 L 62.765 169.77 L 63.668 169.77 L 63.668 174.17 L 64.635 174.17 L 64.635 174.95 L 63.668 174.95 L 63.668 177.00 z M 60.455 174.17 L 62.828 174.17 L 62.828 170.96 z" />
      </g>
    </g>
    <clipPath id="clip12">
      <path id="path108" d="M 0.0000 0.0000 L 0.0000 277.00 L 383.00 277.00 L 383.00 0.0000 z" />
    </clipPath>
    <g id="g110" clip-path="url(#clip12)">
      <g id="g112" stroke="#000000" stroke-opacity="1.0000" fill="none" stroke-linecap="butt">
        <path id="path114" d="M 58.807 163.66 L 58.807 166.66" />
      </g>
    </g>
    <clipPath id="clip13">
      <path id="path117" d="M 0.0000 0.0000 L 0.0000 277.00 L 383.00 277.00 L 383.00 0.0000 z" />
    </clipPath>
    <g id="g119" clip-path="url(#clip13)">
      <g id="g121" fill="#000000" stroke="none" fill-rule="nonzero" fill-opacity="1.0000">
        <path id="path123" d="M 76.513 174.35 L 76.513 173.68 L 80.487 173.68 L 80.487 174.35 z M 82.016 176.95 L 82.016 176.05 Q 83.051 176.46 83.646 176.46 Q 84.335 176.46 84.767 176.06 Q 85.199 175.65 85.199 175.01 Q 85.199 173.49 83.065 173.49 L 82.685 173.49 L 82.685 172.84 L 83.021 172.83 Q 85.023 172.83 85.023 171.42 Q 85.023 170.32 83.705 170.32 Q 82.982 170.32 82.113 170.72 L 82.113 169.88 Q 82.968 169.59 83.773 169.59 Q 85.990 169.59 85.990 171.27 Q 85.990 172.54 84.481 173.08 Q 86.229 173.49 86.229 175.00 Q 86.229 176.02 85.556 176.60 Q 84.882 177.18 83.705 177.18 Q 83.036 177.18 82.016 176.95 z" />
      </g>
    </g>
    <clipPath id="clip14">
      <path id="path126" d="M 0.0000 0.0000 L 0.0000 277.00 L 383.00 277.00 L 383.00 0.0000 z" />
    </clipPath>
    <g id="g128" clip-path="url(#clip14)">
      <g id="g130" stroke="#000000" stroke-opacity="1.0000" fill="none" stroke-linecap="butt">
        <path id="path132" d="M 80.799 163.66 L 80.799 166.66" />
      </g>
    </g>
    <clipPath id="clip15">
      <path id="path135" d="M 0.0000 0.0000 L 0.0000 277.00 L 383.00 277.00 L 383.00 0.0000 z" />
    </clipPath>
    <g id="g137" clip-path="url(#clip15)">
      <g id="g139" fill="#000000" stroke="none" fill-rule="nonzero" fill-opacity="1.0000">
        <path id="path141" d="M 98.513 174.35 L 98.513 173.68 L 102.49 173.68 L 102.49 174.35 z M 103.83 177.00 L 103.83 176.16 Q 104.25 175.17 105.53 174.02 L 106.08 173.52 Q 107.15 172.56 107.15 171.61 Q 107.15 171.01 106.78 170.66 Q 106.42 170.32 105.78 170.32 Q 105.03 170.32 104.01 170.90 L 104.01 170.05 Q 104.97 169.59 105.92 169.59 Q 106.94 169.59 107.55 170.14 Q 108.17 170.69 108.17 171.59 Q 108.17 172.24 107.86 172.74 Q 107.55 173.25 106.70 173.96 L 106.33 174.28 Q 105.17 175.26 104.99 176.16 L 108.13 176.16 L 108.13 177.00 z" />
      </g>
    </g>
    <clipPath id="clip16">
      <path id="path144" d="M 0.0000 0.0000 L 0.0000 277.00 L 383.00 277.00 L 383.00 0.0000 z" />
    </clipPath>
    <g id="g146" clip-path="url(#clip16)">
      <g id="g148" stroke="#000000" stroke-opacity="1.0000" fill="none" stroke-linecap="butt">
        <path id="path150" d="M 102.79 163.66 L 102.79 166.66" />
      </g>
    </g>
    <clipPath id="clip17">
      <path id="path153" d="M 0.0000 0.0000 L 0.0000 277.00 L 383.00 277.00 L 383.00 0.0000 z" />
    </clipPath>
    <g id="g155" clip-path="url(#clip17)">
      <g id="g157" fill="#000000" stroke="none" fill-rule="nonzero" fill-opacity="1.0000">
        <path id="path159" d="M 120.51 174.35 L 120.51 173.68 L 124.49 173.68 L 124.49 174.35 z M 126.50 177.00 L 126.50 176.28 L 127.95 176.28 L 127.95 170.57 L 126.50 170.94 L 126.50 170.19 L 128.92 169.59 L 128.92 176.28 L 130.36 176.28 L 130.36 177.00 z" />
      </g>
    </g>
    <clipPath id="clip18">
      <path id="path162" d="M 0.0000 0.0000 L 0.0000 277.00 L 383.00 277.00 L 383.00 0.0000 z" />
    </clipPath>
    <g id="g164" clip-path="url(#clip18)">
      <g id="g166" stroke="#000000" stroke-opacity="1.0000" fill="none" stroke-linecap="butt">
        <path id="path168" d="M 124.78 163.66 L 124.78 166.66" />
      </g>
    </g>
    <clipPath id="clip19">
      <path id="path171" d="M 0.0000 0.0000 L 0.0000 277.00 L 383.00 277.00 L 383.00 0.0000 z" />
    </clipPath>
    <g id="g173" clip-path="url(#clip19)">
      <g id="g175" fill="#000000" stroke="none" fill-rule="nonzero" fill-opacity="1.0000">
        <path id="path177" d="M 155.13 177.18 Q 154.02 177.18 153.33 176.13 Q 152.63 175.08 152.63 173.38 Q 152.63 171.67 153.33 170.63 Q 154.03 169.59 155.16 169.59 Q 156.30 169.59 157.00 170.63 Q 157.69 171.67 157.69 173.37 Q 157.69 175.11 157.00 176.14 Q 156.30 177.18 155.13 177.18 z M 155.14 176.46 Q 156.67 176.46 156.67 173.35 Q 156.67 170.32 155.16 170.32 Q 153.66 170.32 153.66 173.38 Q 153.66 176.46 155.14 176.46 z" />
      </g>
    </g>
    <clipPath id="clip20">
      <path id="path180" d="M 0.0000 0.0000 L 0.0000 277.00 L 383.00 277.00 L 383.00 0.0000 z" />
    </clipPath>
    <g id="g182" clip-path="url(#clip20)">
      <g id="g184" fill="#000000" stroke="none" fill-rule="nonzero" fill-opacity="1.0000">
        <path id="path186" d="M 168.50 177.00 L 168.50 176.28 L 169.95 176.28 L 169.95 170.57 L 168.50 170.94 L 168.50 170.19 L 170.92 169.59 L 170.92 176.28 L 172.36 176.28 L 172.36 177.00 z" />
      </g>
    </g>
    <clipPath id="clip21">
      <path id="path189" d="M 0.0000 0.0000 L 0.0000 277.00 L 383.00 277.00 L 383.00 0.0000 z" />
    </clipPath>
    <g id="g191" clip-path="url(#clip21)">
      <g id="g193" stroke="#000000" stroke-opacity="1.0000" fill="none" stroke-linecap="butt">
        <path id="path195" d="M 168.77 163.66 L 168.77 166.66" />
      </g>
    </g>
    <clipPath id="clip22">
      <path id="path198" d="M 0.0000 0.0000 L 0.0000 277.00 L 383.00 277.00 L 383.00 0.0000 z" />
    </clipPath>
    <g id="g200" clip-path="url(#clip22)">
      <g id="g202" fill="#000000" stroke="none" fill-rule="nonzero" fill-opacity="1.0000">
        <path id="path204" d="M 189.83 177.00 L 189.83 176.16 Q 190.25 175.17 191.53 174.02 L 192.08 173.52 Q 193.15 172.56 193.15 171.61 Q 193.15 171.01 192.78 170.66 Q 192.42 170.32 191.78 170.32 Q 191.03 170.32 190.01 170.90 L 190.01 170.05 Q 190.97 169.59 191.92 169.59 Q 192.94 169.59 193.55 170.14 Q 194.17 170.69 194.17 171.59 Q 194.17 172.24 193.86 172.74 Q 193.55 173.25 192.70 173.96 L 192.33 174.28 Q 191.17 175.26 190.99 176.16 L 194.13 176.16 L 194.13 177.00 z" />
      </g>
    </g>
    <clipPath id="clip23">
      <path id="path207" d="M 0.0000 0.0000 L 0.0000 277.00 L 383.00 277.00 L 383.00 0.0000 z" />
    </clipPath>
    <g id="g209" clip-path="url(#clip23)">
      <g id="g211" stroke="#000000" stroke-opacity="1.0000" fill="none" stroke-linecap="butt">
        <path id="path213" d="M 190.76 163.66 L 190.76 166.66" />
      </g>
    </g>
    <clipPath id="clip24">
      <path id="path216" d="M 0.0000 0.0000 L 0.0000 277.00 L 383.00 277.00 L 383.00 0.0000 z" />
    </clipPath>
    <g id="g218" clip-path="url(#clip24)">
      <g id="g220" fill="#000000" stroke="none" fill-rule="nonzero" fill-opacity="1.0000">
        <path id="path222" d="M 212.02 176.95 L 212.02 176.05 Q 213.05 176.46 213.65 176.46 Q 214.33 176.46 214.77 176.06 Q 215.20 175.65 215.20 175.01 Q 215.20 173.49 213.07 173.49 L 212.68 173.49 L 212.68 172.84 L 213.02 172.83 Q 215.02 172.83 215.02 171.42 Q 215.02 170.32 213.71 170.32 Q 212.98 170.32 212.11 170.72 L 212.11 169.88 Q 212.97 169.59 213.77 169.59 Q 215.99 169.59 215.99 171.27 Q 215.99 172.54 214.48 173.08 Q 216.23 173.49 216.23 175.00 Q 216.23 176.02 215.56 176.60 Q 214.88 177.18 213.71 177.18 Q 213.04 177.18 212.02 176.95 z" />
      </g>
    </g>
    <clipPath id="clip25">
      <path id="path225" d="M 0.0000 0.0000 L 0.0000 277.00 L 383.00 277.00 L 383.00 0.0000 z" />
    </clipPath>
    <g id="g227" clip-path="url(#clip25)">
      <g id="g229" stroke="#000000" stroke-opacity="1.0000" fill="none" stroke-linecap="butt">
        <path id="path231" d="M 212.75 163.66 L 212.75 166.66" />
      </g>
    </g>
    <clipPath id="clip26">
      <path id="path234" d="M 0.0000 0.0000 L 0.0000 277.00 L 383.00 277.00 L 383.00 0.0000 z" />
    </clipPath>
    <g id="g236" clip-path="url(#clip26)">
      <g id="g238" fill="#000000" stroke="none" fill-rule="nonzero" fill-opacity="1.0000">
        <path id="path240" d="M 236.76 177.00 L 236.76 174.95 L 233.51 174.95 L 233.51 174.23 L 236.76 169.77 L 237.67 169.77 L 237.67 174.17 L 238.63 174.17 L 238.63 174.95 L 237.67 174.95 L 237.67 177.00 z M 234.46 174.17 L 236.83 174.17 L 236.83 170.96 z" />
      </g>
    </g>
    <clipPath id="clip27">
      <path id="path243" d="M 0.0000 0.0000 L 0.0000 277.00 L 383.00 277.00 L 383.00 0.0000 z" />
    </clipPath>
    <g id="g245" clip-path="url(#clip27)">
      <g id="g247" stroke="#000000" stroke-opacity="1.0000" fill="none" stroke-linecap="butt">
        <path id="path249" d="M 234.74 163.66 L 234.74 166.66" />
      </g>
    </g>
    <clipPath id="clip28">
      <path id="path252" d="M 0.0000 0.0000 L 0.0000 277.00 L 383.00 277.00 L 383.00 0.0000 z" />
    </clipPath>
    <g id="g254" clip-path="url(#clip28)">
      <g id="g256" fill="#000000" stroke="none" fill-rule="nonzero" fill-opacity="1.0000">
        <path id="path258" d="M 256.22 177.03 L 256.22 176.17 Q 256.93 176.46 257.58 176.46 Q 258.30 176.46 258.70 176.04 Q 259.11 175.62 259.11 174.88 Q 259.11 173.25 256.87 173.25 Q 256.62 173.25 256.34 173.29 L 256.34 169.77 L 260.00 169.77 L 260.00 170.61 L 257.18 170.61 L 257.18 172.52 Q 258.57 172.52 259.36 173.16 Q 260.14 173.80 260.14 174.93 Q 260.14 175.98 259.43 176.58 Q 258.72 177.18 257.46 177.18 Q 256.91 177.18 256.22 177.03 z" />
      </g>
    </g>
    <clipPath id="clip29">
      <path id="path261" d="M 0.0000 0.0000 L 0.0000 277.00 L 383.00 277.00 L 383.00 0.0000 z" />
    </clipPath>
    <g id="g263" clip-path="url(#clip29)">
      <g id="g265" stroke="#000000" stroke-opacity="1.0000" fill="none" stroke-linecap="butt">
        <path id="path267" d="M 256.74 163.66 L 256.74 166.66" />
      </g>
    </g>
    <clipPath id="clip30">
      <path id="path270" d="M 0.0000 0.0000 L 0.0000 277.00 L 383.00 277.00 L 383.00 0.0000 z" />
    </clipPath>
    <g id="g272" clip-path="url(#clip30)">
      <g id="g274" fill="#000000" stroke="none" fill-rule="nonzero" fill-opacity="1.0000">
        <path id="path276" d="M 278.72 173.25 Q 279.41 172.36 280.45 172.36 Q 281.40 172.36 282.00 172.99 Q 282.61 173.62 282.61 174.60 Q 282.61 175.73 281.93 176.45 Q 281.25 177.18 280.21 177.18 Q 279.02 177.18 278.34 176.22 Q 277.67 175.26 277.67 173.55 Q 277.67 171.67 278.44 170.63 Q 279.22 169.59 280.62 169.59 Q 281.27 169.59 282.23 169.86 L 282.23 170.70 Q 281.21 170.31 280.56 170.31 Q 278.72 170.31 278.72 173.25 z M 281.64 174.81 Q 281.64 173.99 281.27 173.52 Q 280.90 173.05 280.25 173.05 Q 279.64 173.05 279.20 173.46 Q 278.76 173.88 278.76 174.45 Q 278.76 175.36 279.18 175.91 Q 279.59 176.46 280.28 176.46 Q 280.90 176.46 281.27 176.01 Q 281.64 175.56 281.64 174.81 z" />
      </g>
    </g>
    <clipPath id="clip31">
      <path id="path279" d="M 0.0000 0.0000 L 0.0000 277.00 L 383.00 277.00 L 383.00 0.0000 z" />
    </clipPath>
    <g id="g281" clip-path="url(#clip31)">
      <g id="g283" stroke="#000000" stroke-opacity="1.0000" fill="none" stroke-linecap="butt">
        <path id="path285" d="M 278.73 163.66 L 278.73 166.66" />
      </g>
    </g>
    <clipPath id="clip32">
      <path id="path288" d="M 0.0000 0.0000 L 0.0000 277.00 L 383.00 277.00 L 383.00 0.0000 z" />
    </clipPath>
    <g id="g290" clip-path="url(#clip32)">
      <g id="g292" fill="#000000" stroke="none" fill-rule="nonzero" fill-opacity="1.0000">
        <path id="path294" d="M 300.50 177.00 Q 300.65 176.16 300.91 175.54 Q 301.17 174.92 301.83 173.85 L 303.80 170.68 L 300.08 170.68 L 300.08 169.77 L 304.72 169.77 L 304.72 170.68 Q 301.94 174.77 301.61 177.00 z" />
      </g>
    </g>
    <clipPath id="clip33">
      <path id="path297" d="M 0.0000 0.0000 L 0.0000 277.00 L 383.00 277.00 L 383.00 0.0000 z" />
    </clipPath>
    <g id="g299" clip-path="url(#clip33)">
      <g id="g301" stroke="#000000" stroke-opacity="1.0000" fill="none" stroke-linecap="butt">
        <path id="path303" d="M 300.72 163.66 L 300.72 166.66" />
      </g>
    </g>
    <clipPath id="clip34">
      <path id="path306" d="M 0.0000 0.0000 L 0.0000 277.00 L 383.00 277.00 L 383.00 0.0000 z" />
    </clipPath>
    <g id="g308" clip-path="url(#clip34)">
      <g id="g310" fill="#000000" stroke="none" fill-rule="nonzero" fill-opacity="1.0000">
        <path id="path312" d="M 323.30 173.06 Q 322.24 172.33 322.24 171.43 Q 322.24 170.61 322.84 170.10 Q 323.44 169.59 324.41 169.59 Q 325.30 169.59 325.86 170.02 Q 326.41 170.46 326.41 171.15 Q 326.41 172.20 325.06 173.06 Q 326.70 173.87 326.70 175.13 Q 326.70 176.04 326.01 176.61 Q 325.33 177.18 324.24 177.18 Q 323.18 177.18 322.52 176.64 Q 321.86 176.10 321.86 175.22 Q 321.86 173.92 323.30 173.06 z M 324.53 172.76 Q 325.54 172.10 325.54 171.28 Q 325.54 170.85 325.20 170.58 Q 324.86 170.32 324.31 170.32 Q 323.78 170.32 323.45 170.58 Q 323.11 170.84 323.11 171.25 Q 323.11 171.66 323.41 171.98 Q 323.71 172.30 324.53 172.76 z M 323.82 173.46 Q 323.24 173.90 323.03 174.24 Q 322.83 174.57 322.83 175.07 Q 322.83 175.69 323.23 176.07 Q 323.63 176.46 324.28 176.46 Q 324.91 176.46 325.31 176.13 Q 325.71 175.80 325.71 175.28 Q 325.71 174.86 325.46 174.57 Q 325.21 174.28 324.51 173.86 z" />
      </g>
    </g>
    <clipPath id="clip35">
      <path id="path315" d="M 0.0000 0.0000 L 0.0000 277.00 L 383.00 277.00 L 383.00 0.0000 z" />
    </clipPath>
    <g id="g317" clip-path="url(#clip35)">
      <g id="g319" stroke="#000000" stroke-opacity="1.0000" fill="none" stroke-linecap="butt">
        <path id="path321" d="M 322.71 163.66 L 322.71 166.66" />
      </g>
    </g>
    <clipPath id="clip36">
      <path id="path324" d="M 0.0000 0.0000 L 0.0000 277.00 L 383.00 277.00 L 383.00 0.0000 z" />
    </clipPath>
    <g id="g326" clip-path="url(#clip36)">
      <g id="g328" fill="#000000" stroke="none" fill-rule="nonzero" fill-opacity="1.0000">
        <path id="path330" d="M 344.14 176.96 L 344.14 176.14 Q 345.06 176.46 345.70 176.46 Q 346.60 176.46 347.10 175.69 Q 347.61 174.93 347.61 173.57 Q 346.88 174.47 345.94 174.47 Q 345.03 174.47 344.40 173.80 Q 343.76 173.13 343.76 172.16 Q 343.76 171.05 344.44 170.32 Q 345.11 169.59 346.14 169.59 Q 347.32 169.59 348.00 170.54 Q 348.67 171.48 348.67 173.12 Q 348.67 174.99 347.85 176.08 Q 347.02 177.18 345.61 177.18 Q 345.04 177.18 344.14 176.96 z M 344.72 171.97 Q 344.72 172.81 345.10 173.29 Q 345.47 173.78 346.12 173.78 Q 346.73 173.78 347.16 173.36 Q 347.59 172.95 347.59 172.36 Q 347.59 171.44 347.18 170.87 Q 346.76 170.31 346.08 170.31 Q 345.45 170.31 345.09 170.76 Q 344.72 171.20 344.72 171.97 z" />
      </g>
    </g>
    <clipPath id="clip37">
      <path id="path333" d="M 0.0000 0.0000 L 0.0000 277.00 L 383.00 277.00 L 383.00 0.0000 z" />
    </clipPath>
    <g id="g335" clip-path="url(#clip37)">
      <g id="g337" stroke="#000000" stroke-opacity="1.0000" fill="none" stroke-linecap="butt">
        <path id="path339" d="M 344.70 163.66 L 344.70 166.66" />
      </g>
    </g>
    <clipPath id="clip38">
      <path id="path342" d="M 0.0000 0.0000 L 0.0000 277.00 L 383.00 277.00 L 383.00 0.0000 z" />
    </clipPath>
    <g id="g344" clip-path="url(#clip38)">
      <g id="g346" fill="#000000" stroke="none" fill-rule="nonzero" fill-opacity="1.0000">
        <path id="path348" d="M 363.50 177.00 L 363.50 176.28 L 364.95 176.28 L 364.95 170.57 L 363.50 170.94 L 363.50 170.19 L 365.92 169.59 L 365.92 176.28 L 367.36 176.28 L 367.36 177.00 z M 371.46 177.18 Q 370.34 177.18 369.65 176.13 Q 368.96 175.08 368.96 173.38 Q 368.96 171.67 369.65 170.63 Q 370.35 169.59 371.49 169.59 Q 372.62 169.59 373.32 170.63 Q 374.02 171.67 374.02 173.37 Q 374.02 175.11 373.32 176.14 Q 372.62 177.18 371.46 177.18 z M 371.47 176.46 Q 373.00 176.46 373.00 173.35 Q 373.00 170.32 371.49 170.32 Q 369.98 170.32 369.98 173.38 Q 369.98 176.46 371.47 176.46 z" />
      </g>
    </g>
    <clipPath id="clip39">
      <path id="path351" d="M 0.0000 0.0000 L 0.0000 277.00 L 383.00 277.00 L 383.00 0.0000 z" />
    </clipPath>
    <g id="g353" clip-path="url(#clip39)">
      <g id="g355" stroke="#000000" stroke-opacity="1.0000" fill="none" stroke-linecap="butt">
        <path id="path357" d="M 366.70 163.66 L 366.70 166.66" />
      </g>
    </g>
    <clipPath id="clip40">
      <path id="path360" d="M 0.0000 0.0000 L 0.0000 277.00 L 383.00 277.00 L 383.00 0.0000 z" />
    </clipPath>
    <g id="g362" clip-path="url(#clip40)">
      <g id="g364" stroke="#000000" stroke-opacity="1.0000" fill="none" stroke-linecap="butt">
        <path id="path366" d="M 143.78 273.62 L 146.78 273.62" />
      </g>
    </g>
    <clipPath id="clip41">
      <path id="path369" d="M 0.0000 0.0000 L 0.0000 277.00 L 383.00 277.00 L 383.00 0.0000 z" />
    </clipPath>
    <g id="g371" clip-path="url(#clip41)">
      <g id="g373" fill="#000000" stroke="none" fill-rule="nonzero" fill-opacity="1.0000">
        <path id="path375" d="M 129.51 252.35 L 129.51 251.68 L 133.49 251.68 L 133.49 252.35 z M 137.76 255.00 L 137.76 252.95 L 134.51 252.95 L 134.51 252.23 L 137.76 247.77 L 138.67 247.77 L 138.67 252.17 L 139.63 252.17 L 139.63 252.95 L 138.67 252.95 L 138.67 255.00 z M 135.46 252.17 L 137.83 252.17 L 137.83 248.96 z" />
      </g>
    </g>
    <clipPath id="clip42">
      <path id="path378" d="M 0.0000 0.0000 L 0.0000 277.00 L 383.00 277.00 L 383.00 0.0000 z" />
    </clipPath>
    <g id="g380" clip-path="url(#clip42)">
      <g id="g382" stroke="#000000" stroke-opacity="1.0000" fill="none" stroke-linecap="butt">
        <path id="path384" d="M 143.78 251.63 L 146.78 251.63" />
      </g>
    </g>
    <clipPath id="clip43">
      <path id="path387" d="M 0.0000 0.0000 L 0.0000 277.00 L 383.00 277.00 L 383.00 0.0000 z" />
    </clipPath>
    <g id="g389" clip-path="url(#clip43)">
      <g id="g391" fill="#000000" stroke="none" fill-rule="nonzero" fill-opacity="1.0000">
        <path id="path393" d="M 129.51 230.35 L 129.51 229.68 L 133.49 229.68 L 133.49 230.35 z M 135.02 232.95 L 135.02 232.05 Q 136.05 232.46 136.65 232.46 Q 137.33 232.46 137.77 232.06 Q 138.20 231.65 138.20 231.01 Q 138.20 229.49 136.07 229.49 L 135.68 229.49 L 135.68 228.84 L 136.02 228.83 Q 138.02 228.83 138.02 227.42 Q 138.02 226.32 136.71 226.32 Q 135.98 226.32 135.11 226.72 L 135.11 225.88 Q 135.97 225.59 136.77 225.59 Q 138.99 225.59 138.99 227.27 Q 138.99 228.54 137.48 229.08 Q 139.23 229.49 139.23 231.00 Q 139.23 232.02 138.56 232.60 Q 137.88 233.18 136.71 233.18 Q 136.04 233.18 135.02 232.95 z" />
      </g>
    </g>
    <clipPath id="clip44">
      <path id="path396" d="M 0.0000 0.0000 L 0.0000 277.00 L 383.00 277.00 L 383.00 0.0000 z" />
    </clipPath>
    <g id="g398" clip-path="url(#clip44)">
      <g id="g400" stroke="#000000" stroke-opacity="1.0000" fill="none" stroke-linecap="butt">
        <path id="path402" d="M 143.78 229.64 L 146.78 229.64" />
      </g>
    </g>
    <clipPath id="clip45">
      <path id="path405" d="M 0.0000 0.0000 L 0.0000 277.00 L 383.00 277.00 L 383.00 0.0000 z" />
    </clipPath>
    <g id="g407" clip-path="url(#clip45)">
      <g id="g409" fill="#000000" stroke="none" fill-rule="nonzero" fill-opacity="1.0000">
        <path id="path411" d="M 129.51 208.35 L 129.51 207.68 L 133.49 207.68 L 133.49 208.35 z M 134.83 211.00 L 134.83 210.16 Q 135.25 209.17 136.53 208.02 L 137.08 207.52 Q 138.15 206.56 138.15 205.61 Q 138.15 205.01 137.78 204.66 Q 137.42 204.32 136.78 204.32 Q 136.03 204.32 135.01 204.90 L 135.01 204.05 Q 135.97 203.59 136.92 203.59 Q 137.94 203.59 138.55 204.14 Q 139.17 204.69 139.17 205.59 Q 139.17 206.24 138.86 206.74 Q 138.55 207.25 137.70 207.96 L 137.33 208.28 Q 136.17 209.26 135.99 210.16 L 139.13 210.16 L 139.13 211.00 z" />
      </g>
    </g>
    <clipPath id="clip46">
      <path id="path414" d="M 0.0000 0.0000 L 0.0000 277.00 L 383.00 277.00 L 383.00 0.0000 z" />
    </clipPath>
    <g id="g416" clip-path="url(#clip46)">
      <g id="g418" stroke="#000000" stroke-opacity="1.0000" fill="none" stroke-linecap="butt">
        <path id="path420" d="M 143.78 207.65 L 146.78 207.65" />
      </g>
    </g>
    <clipPath id="clip47">
      <path id="path423" d="M 0.0000 0.0000 L 0.0000 277.00 L 383.00 277.00 L 383.00 0.0000 z" />
    </clipPath>
    <g id="g425" clip-path="url(#clip47)">
      <g id="g427" fill="#000000" stroke="none" fill-rule="nonzero" fill-opacity="1.0000">
        <path id="path429" d="M 129.51 186.35 L 129.51 185.68 L 133.49 185.68 L 133.49 186.35 z M 135.50 189.00 L 135.50 188.28 L 136.95 188.28 L 136.95 182.57 L 135.50 182.94 L 135.50 182.19 L 137.92 181.59 L 137.92 188.28 L 139.36 188.28 L 139.36 189.00 z" />
      </g>
    </g>
    <clipPath id="clip48">
      <path id="path432" d="M 0.0000 0.0000 L 0.0000 277.00 L 383.00 277.00 L 383.00 0.0000 z" />
    </clipPath>
    <g id="g434" clip-path="url(#clip48)">
      <g id="g436" stroke="#000000" stroke-opacity="1.0000" fill="none" stroke-linecap="butt">
        <path id="path438" d="M 143.78 185.66 L 146.78 185.66" />
      </g>
    </g>
    <clipPath id="clip49">
      <path id="path441" d="M 0.0000 0.0000 L 0.0000 277.00 L 383.00 277.00 L 383.00 0.0000 z" />
    </clipPath>
    <g id="g443" clip-path="url(#clip49)">
      <g id="g445" fill="#000000" stroke="none" fill-rule="nonzero" fill-opacity="1.0000">
        <path id="path447" d="M 137.13 161.18 Q 136.02 161.18 135.33 160.13 Q 134.63 159.08 134.63 157.38 Q 134.63 155.67 135.33 154.63 Q 136.03 153.59 137.16 153.59 Q 138.30 153.59 139.00 154.63 Q 139.69 155.67 139.69 157.37 Q 139.69 159.11 139.00 160.14 Q 138.30 161.18 137.13 161.18 z M 137.14 160.46 Q 138.67 160.46 138.67 157.35 Q 138.67 154.32 137.16 154.32 Q 135.66 154.32 135.66 157.38 Q 135.66 160.46 137.14 160.46 z" />
      </g>
    </g>
    <clipPath id="clip50">
      <path id="path450" d="M 0.0000 0.0000 L 0.0000 277.00 L 383.00 277.00 L 383.00 0.0000 z" />
    </clipPath>
    <g id="g452" clip-path="url(#clip50)">
      <g id="g454" fill="#000000" stroke="none" fill-rule="nonzero" fill-opacity="1.0000">
        <path id="path456" d="M 135.50 145.00 L 135.50 144.28 L 136.95 144.28 L 136.95 138.57 L 135.50 138.94 L 135.50 138.19 L 137.92 137.59 L 137.92 144.28 L 139.36 144.28 L 139.36 145.00 z" />
      </g>
    </g>
    <clipPath id="clip51">
      <path id="path459" d="M 0.0000 0.0000 L 0.0000 277.00 L 383.00 277.00 L 383.00 0.0000 z" />
    </clipPath>
    <g id="g461" clip-path="url(#clip51)">
      <g id="g463" stroke="#000000" stroke-opacity="1.0000" fill="none" stroke-linecap="butt">
        <path id="path465" d="M 143.78 141.67 L 146.78 141.67" />
      </g>
    </g>
    <clipPath id="clip52">
      <path id="path468" d="M 0.0000 0.0000 L 0.0000 277.00 L 383.00 277.00 L 383.00 0.0000 z" />
    </clipPath>
    <g id="g470" clip-path="url(#clip52)">
      <g id="g472" fill="#000000" stroke="none" fill-rule="nonzero" fill-opacity="1.0000">
        <path id="path474" d="M 134.83 123.00 L 134.83 122.16 Q 135.25 121.17 136.53 120.02 L 137.08 119.52 Q 138.15 118.56 138.15 117.61 Q 138.15 117.01 137.78 116.66 Q 137.42 116.32 136.78 116.32 Q 136.03 116.32 135.01 116.90 L 135.01 116.05 Q 135.97 115.59 136.92 115.59 Q 137.94 115.59 138.55 116.14 Q 139.17 116.69 139.17 117.59 Q 139.17 118.24 138.86 118.74 Q 138.55 119.25 137.70 119.96 L 137.33 120.28 Q 136.17 121.26 135.99 122.16 L 139.13 122.16 L 139.13 123.00 z" />
      </g>
    </g>
    <clipPath id="clip53">
      <path id="path477" d="M 0.0000 0.0000 L 0.0000 277.00 L 383.00 277.00 L 383.00 0.0000 z" />
    </clipPath>
    <g id="g479" clip-path="url(#clip53)">
      <g id="g481" stroke="#000000" stroke-opacity="1.0000" fill="none" stroke-linecap="butt">
        <path id="path483" d="M 143.78 119.68 L 146.78 119.68" />
      </g>
    </g>
    <clipPath id="clip54">
      <path id="path486" d="M 0.0000 0.0000 L 0.0000 277.00 L 383.00 277.00 L 383.00 0.0000 z" />
    </clipPath>
    <g id="g488" clip-path="url(#clip54)">
      <g id="g490" fill="#000000" stroke="none" fill-rule="nonzero" fill-opacity="1.0000">
        <path id="path492" d="M 135.02 100.95 L 135.02 100.05 Q 136.05 100.46 136.65 100.46 Q 137.33 100.46 137.77 100.06 Q 138.20 99.652 138.20 99.013 Q 138.20 97.489 136.07 97.489 L 135.68 97.489 L 135.68 96.840 L 136.02 96.835 Q 138.02 96.835 138.02 95.424 Q 138.02 94.315 136.71 94.315 Q 135.98 94.315 135.11 94.721 L 135.11 93.881 Q 135.97 93.593 136.77 93.593 Q 138.99 93.593 138.99 95.268 Q 138.99 96.542 137.48 97.084 Q 139.23 97.489 139.23 98.998 Q 139.23 100.02 138.56 100.60 Q 137.88 101.18 136.71 101.18 Q 136.04 101.18 135.02 100.95 z" />
      </g>
    </g>
    <clipPath id="clip55">
      <path id="path495" d="M 0.0000 0.0000 L 0.0000 277.00 L 383.00 277.00 L 383.00 0.0000 z" />
    </clipPath>
    <g id="g497" clip-path="url(#clip55)">
      <g id="g499" stroke="#000000" stroke-opacity="1.0000" fill="none" stroke-linecap="butt">
        <path id="path501" d="M 143.78 97.688 L 146.78 97.688" />
      </g>
    </g>
    <clipPath id="clip56">
      <path id="path504" d="M 0.0000 0.0000 L 0.0000 277.00 L 383.00 277.00 L 383.00 0.0000 z" />
    </clipPath>
    <g id="g506" clip-path="url(#clip56)">
      <g id="g508" fill="#000000" stroke="none" fill-rule="nonzero" fill-opacity="1.0000">
        <path id="path510" d="M 137.76 79.000 L 137.76 76.954 L 134.51 76.954 L 134.51 76.227 L 137.76 71.773 L 138.67 71.773 L 138.67 76.168 L 139.63 76.168 L 139.63 76.954 L 138.67 76.954 L 138.67 79.000 z M 135.46 76.168 L 137.83 76.168 L 137.83 72.955 z" />
      </g>
    </g>
    <clipPath id="clip57">
      <path id="path513" d="M 0.0000 0.0000 L 0.0000 277.00 L 383.00 277.00 L 383.00 0.0000 z" />
    </clipPath>
    <g id="g515" clip-path="url(#clip57)">
      <g id="g517" stroke="#000000" stroke-opacity="1.0000" fill="none" stroke-linecap="butt">
        <path id="path519" d="M 143.78 75.696 L 146.78 75.696" />
      </g>
    </g>
    <clipPath id="clip58">
      <path id="path522" d="M 0.0000 0.0000 L 0.0000 277.00 L 383.00 277.00 L 383.00 0.0000 z" />
    </clipPath>
    <g id="g524" clip-path="url(#clip58)">
      <g id="g526" fill="#000000" stroke="none" fill-rule="nonzero" fill-opacity="1.0000">
        <path id="path528" d="M 135.22 57.029 L 135.22 56.170 Q 135.93 56.458 136.58 56.458 Q 137.30 56.458 137.70 56.038 Q 138.11 55.618 138.11 54.881 Q 138.11 53.255 135.87 53.255 Q 135.62 53.255 135.34 53.289 L 135.34 49.773 L 139.00 49.773 L 139.00 50.613 L 136.18 50.613 L 136.18 52.518 Q 137.57 52.518 138.36 53.157 Q 139.14 53.797 139.14 54.930 Q 139.14 55.984 138.43 56.583 Q 137.72 57.181 136.46 57.181 Q 135.91 57.181 135.22 57.029 z" />
      </g>
    </g>
    <clipPath id="clip59">
      <path id="path531" d="M 0.0000 0.0000 L 0.0000 277.00 L 383.00 277.00 L 383.00 0.0000 z" />
    </clipPath>
    <g id="g533" clip-path="url(#clip59)">
      <g id="g535" stroke="#000000" stroke-opacity="1.0000" fill="none" stroke-linecap="butt">
        <path id="path537" d="M 143.78 53.704 L 146.78 53.704" />
      </g>
    </g>
    <clipPath id="clip60">
      <path id="path540" d="M 0.0000 0.0000 L 0.0000 277.00 L 383.00 277.00 L 383.00 0.0000 z" />
    </clipPath>
    <g id="g542" clip-path="url(#clip60)">
      <g id="g544" fill="#000000" stroke="none" fill-rule="nonzero" fill-opacity="1.0000">
        <path id="path546" d="M 135.72 31.255 Q 136.41 30.361 137.45 30.361 Q 138.40 30.361 139.00 30.989 Q 139.61 31.616 139.61 32.598 Q 139.61 33.726 138.93 34.453 Q 138.25 35.181 137.21 35.181 Q 136.02 35.181 135.34 34.219 Q 134.67 33.257 134.67 31.548 Q 134.67 29.668 135.44 28.628 Q 136.22 27.588 137.62 27.588 Q 138.27 27.588 139.23 27.861 L 139.23 28.701 Q 138.21 28.311 137.56 28.311 Q 135.72 28.311 135.72 31.255 z M 138.64 32.812 Q 138.64 31.992 138.27 31.523 Q 137.90 31.055 137.25 31.055 Q 136.64 31.055 136.20 31.465 Q 135.76 31.875 135.76 32.451 Q 135.76 33.359 136.18 33.909 Q 136.59 34.458 137.28 34.458 Q 137.90 34.458 138.27 34.011 Q 138.64 33.564 138.64 32.812 z" />
      </g>
    </g>
    <clipPath id="clip61">
      <path id="path549" d="M 0.0000 0.0000 L 0.0000 277.00 L 383.00 277.00 L 383.00 0.0000 z" />
    </clipPath>
    <g id="g551" clip-path="url(#clip61)">
      <g id="g553" stroke="#000000" stroke-opacity="1.0000" fill="none" stroke-linecap="butt">
        <path id="path555" d="M 143.78 31.712 L 146.78 31.712" />
      </g>
    </g>
    <clipPath id="clip62">
      <path id="path558" d="M 0.0000 0.0000 L 0.0000 277.00 L 383.00 277.00 L 383.00 0.0000 z" />
    </clipPath>
    <g id="g560" clip-path="url(#clip62)">
      <g id="g562" stroke="#c0c0c0" stroke-opacity="1.0000" fill="none" stroke-linecap="round" stroke-linejoin="round">
        <path id="path564" d="M 14.823 0.0000 L 14.823 163.66" />
      </g>
    </g>
    <clipPath id="clip63">
      <path id="path567" d="M 0.0000 0.0000 L 0.0000 277.00 L 383.00 277.00 L 383.00 0.0000 z" />
    </clipPath>
    <g id="g569" clip-path="url(#clip63)">
      <g id="g571" stroke="#c0c0c0" stroke-opacity="1.0000" fill="none" stroke-linecap="round" stroke-linejoin="round">
        <path id="path573" d="M 14.823 182.66 L 14.823 277.00" />
      </g>
    </g>
    <clipPath id="clip64">
      <path id="path576" d="M 0.0000 0.0000 L 0.0000 277.00 L 383.00 277.00 L 383.00 0.0000 z" />
    </clipPath>
    <g id="g578" clip-path="url(#clip64)">
      <g id="g580" stroke="#c0c0c0" stroke-opacity="1.0000" fill="none" stroke-linecap="round" stroke-linejoin="round">
        <path id="path582" d="M 14.823 0.0000 L 14.823 163.66" />
      </g>
    </g>
    <clipPath id="clip65">
      <path id="path585" d="M 0.0000 0.0000 L 0.0000 277.00 L 383.00 277.00 L 383.00 0.0000 z" />
    </clipPath>
    <g id="g587" clip-path="url(#clip65)">
      <g id="g589" stroke="#c0c0c0" stroke-opacity="1.0000" fill="none" stroke-linecap="round" stroke-linejoin="round">
        <path id="path591" d="M 14.823 182.66 L 14.823 277.00" />
      </g>
    </g>
    <clipPath id="clip66">
      <path id="path594" d="M 0.0000 0.0000 L 0.0000 277.00 L 383.00 277.00 L 383.00 0.0000 z" />
    </clipPath>
    <g id="g596" clip-path="url(#clip66)">
      <g id="g598" stroke="#c0c0c0" stroke-opacity="1.0000" fill="none" stroke-linecap="round" stroke-linejoin="round">
        <path id="path600" d="M 36.815 0.0000 L 36.815 163.66" />
      </g>
    </g>
    <clipPath id="clip67">
      <path id="path603" d="M 0.0000 0.0000 L 0.0000 277.00 L 383.00 277.00 L 383.00 0.0000 z" />
    </clipPath>
    <g id="g605" clip-path="url(#clip67)">
      <g id="g607" stroke="#c0c0c0" stroke-opacity="1.0000" fill="none" stroke-linecap="round" stroke-linejoin="round">
        <path id="path609" d="M 36.815 182.66 L 36.815 277.00" />
      </g>
    </g>
    <clipPath id="clip68">
      <path id="path612" d="M 0.0000 0.0000 L 0.0000 277.00 L 383.00 277.00 L 383.00 0.0000 z" />
    </clipPath>
    <g id="g614" clip-path="url(#clip68)">
      <g id="g616" stroke="#c0c0c0" stroke-opacity="1.0000" fill="none" stroke-linecap="round" stroke-linejoin="round">
        <path id="path618" d="M 58.807 0.0000 L 58.807 163.66" />
      </g>
    </g>
    <clipPath id="clip69">
      <path id="path621" d="M 0.0000 0.0000 L 0.0000 277.00 L 383.00 277.00 L 383.00 0.0000 z" />
    </clipPath>
    <g id="g623" clip-path="url(#clip69)">
      <g id="g625" stroke="#c0c0c0" stroke-opacity="1.0000" fill="none" stroke-linecap="round" stroke-linejoin="round">
        <path id="path627" d="M 58.807 182.66 L 58.807 277.00" />
      </g>
    </g>
    <clipPath id="clip70">
      <path id="path630" d="M 0.0000 0.0000 L 0.0000 277.00 L 383.00 277.00 L 383.00 0.0000 z" />
    </clipPath>
    <g id="g632" clip-path="url(#clip70)">
      <g id="g634" stroke="#c0c0c0" stroke-opacity="1.0000" fill="none" stroke-linecap="round" stroke-linejoin="round">
        <path id="path636" d="M 80.799 0.0000 L 80.799 163.66" />
      </g>
    </g>
    <clipPath id="clip71">
      <path id="path639" d="M 0.0000 0.0000 L 0.0000 277.00 L 383.00 277.00 L 383.00 0.0000 z" />
    </clipPath>
    <g id="g641" clip-path="url(#clip71)">
      <g id="g643" stroke="#c0c0c0" stroke-opacity="1.0000" fill="none" stroke-linecap="round" stroke-linejoin="round">
        <path id="path645" d="M 80.799 182.66 L 80.799 277.00" />
      </g>
    </g>
    <clipPath id="clip72">
      <path id="path648" d="M 0.0000 0.0000 L 0.0000 277.00 L 383.00 277.00 L 383.00 0.0000 z" />
    </clipPath>
    <g id="g650" clip-path="url(#clip72)">
      <g id="g652" stroke="#c0c0c0" stroke-opacity="1.0000" fill="none" stroke-linecap="round" stroke-linejoin="round">
        <path id="path654" d="M 102.79 0.0000 L 102.79 163.66" />
      </g>
    </g>
    <clipPath id="clip73">
      <path id="path657" d="M 0.0000 0.0000 L 0.0000 277.00 L 383.00 277.00 L 383.00 0.0000 z" />
    </clipPath>
    <g id="g659" clip-path="url(#clip73)">
      <g id="g661" stroke="#c0c0c0" stroke-opacity="1.0000" fill="none" stroke-linecap="round" stroke-linejoin="round">
        <path id="path663" d="M 102.79 182.66 L 102.79 277.00" />
      </g>
    </g>
    <clipPath id="clip74">
      <path id="path666" d="M 0.0000 0.0000 L 0.0000 277.00 L 383.00 277.00 L 383.00 0.0000 z" />
    </clipPath>
    <g id="g668" clip-path="url(#clip74)">
      <g id="g670" stroke="#c0c0c0" stroke-opacity="1.0000" fill="none" stroke-linecap="round" stroke-linejoin="round">
        <path id="path672" d="M 124.78 0.0000 L 124.78 163.66" />
      </g>
    </g>
    <clipPath id="clip75">
      <path id="path675" d="M 0.0000 0.0000 L 0.0000 277.00 L 383.00 277.00 L 383.00 0.0000 z" />
    </clipPath>
    <g id="g677" clip-path="url(#clip75)">
      <g id="g679" stroke="#c0c0c0" stroke-opacity="1.0000" fill="none" stroke-linecap="round" stroke-linejoin="round">
        <path id="path681" d="M 124.78 182.66 L 124.78 277.00" />
      </g>
    </g>
    <clipPath id="clip76">
      <path id="path684" d="M 0.0000 0.0000 L 0.0000 277.00 L 383.00 277.00 L 383.00 0.0000 z" />
    </clipPath>
    <g id="g686" clip-path="url(#clip76)">
      <g id="g688" stroke="#c0c0c0" stroke-opacity="1.0000" fill="none" stroke-linecap="round" stroke-linejoin="round">
        <path id="path690" d="M 168.77 0.0000 L 168.77 163.66" />
      </g>
    </g>
    <clipPath id="clip77">
      <path id="path693" d="M 0.0000 0.0000 L 0.0000 277.00 L 383.00 277.00 L 383.00 0.0000 z" />
    </clipPath>
    <g id="g695" clip-path="url(#clip77)">
      <g id="g697" stroke="#c0c0c0" stroke-opacity="1.0000" fill="none" stroke-linecap="round" stroke-linejoin="round">
        <path id="path699" d="M 168.77 182.66 L 168.77 277.00" />
      </g>
    </g>
    <clipPath id="clip78">
      <path id="path702" d="M 0.0000 0.0000 L 0.0000 277.00 L 383.00 277.00 L 383.00 0.0000 z" />
    </clipPath>
    <g id="g704" clip-path="url(#clip78)">
      <g id="g706" stroke="#c0c0c0" stroke-opacity="1.0000" fill="none" stroke-linecap="round" stroke-linejoin="round">
        <path id="path708" d="M 190.76 0.0000 L 190.76 163.66" />
      </g>
    </g>
    <clipPath id="clip79">
      <path id="path711" d="M 0.0000 0.0000 L 0.0000 277.00 L 383.00 277.00 L 383.00 0.0000 z" />
    </clipPath>
    <g id="g713" clip-path="url(#clip79)">
      <g id="g715" stroke="#c0c0c0" stroke-opacity="1.0000" fill="none" stroke-linecap="round" stroke-linejoin="round">
        <path id="path717" d="M 190.76 182.66 L 190.76 277.00" />
      </g>
    </g>
    <clipPath id="clip80">
      <path id="path720" d="M 0.0000 0.0000 L 0.0000 277.00 L 383.00 277.00 L 383.00 0.0000 z" />
    </clipPath>
    <g id="g722" clip-path="url(#clip80)">
      <g id="g724" stroke="#c0c0c0" stroke-opacity="1.0000" fill="none" stroke-linecap="round" stroke-linejoin="round">
        <path id="path726" d="M 212.75 0.0000 L 212.75 163.66" />
      </g>
    </g>
    <clipPath id="clip81">
      <path id="path729" d="M 0.0000 0.0000 L 0.0000 277.00 L 383.00 277.00 L 383.00 0.0000 z" />
    </clipPath>
    <g id="g731" clip-path="url(#clip81)">
      <g id="g733" stroke="#c0c0c0" stroke-opacity="1.0000" fill="none" stroke-linecap="round" stroke-linejoin="round">
        <path id="path735" d="M 212.75 182.66 L 212.75 277.00" />
      </g>
    </g>
    <clipPath id="clip82">
      <path id="path738" d="M 0.0000 0.0000 L 0.0000 277.00 L 383.00 277.00 L 383.00 0.0000 z" />
    </clipPath>
    <g id="g740" clip-path="url(#clip82)">
      <g id="g742" stroke="#c0c0c0" stroke-opacity="1.0000" fill="none" stroke-linecap="round" stroke-linejoin="round">
        <path id="path744" d="M 234.74 0.0000 L 234.74 163.66" />
      </g>
    </g>
    <clipPath id="clip83">
      <path id="path747" d="M 0.0000 0.0000 L 0.0000 277.00 L 383.00 277.00 L 383.00 0.0000 z" />
    </clipPath>
    <g id="g749" clip-path="url(#clip83)">
      <g id="g751" stroke="#c0c0c0" stroke-opacity="1.0000" fill="none" stroke-linecap="round" stroke-linejoin="round">
        <path id="path753" d="M 234.74 182.66 L 234.74 277.00" />
      </g>
    </g>
    <clipPath id="clip84">
      <path id="path756" d="M 0.0000 0.0000 L 0.0000 277.00 L 383.00 277.00 L 383.00 0.0000 z" />
    </clipPath>
    <g id="g758" clip-path="url(#clip84)">
      <g id="g760" stroke="#c0c0c0" stroke-opacity="1.0000" fill="none" stroke-linecap="round" stroke-linejoin="round">
        <path id="path762" d="M 256.74 0.0000 L 256.74 163.66" />
      </g>
    </g>
    <clipPath id="clip85">
      <path id="path765" d="M 0.0000 0.0000 L 0.0000 277.00 L 383.00 277.00 L 383.00 0.0000 z" />
    </clipPath>
    <g id="g767" clip-path="url(#clip85)">
      <g id="g769" stroke="#c0c0c0" stroke-opacity="1.0000" fill="none" stroke-linecap="round" stroke-linejoin="round">
        <path id="path771" d="M 256.74 182.66 L 256.74 277.00" />
      </g>
    </g>
    <clipPath id="clip86">
      <path id="path774" d="M 0.0000 0.0000 L 0.0000 277.00 L 383.00 277.00 L 383.00 0.0000 z" />
    </clipPath>
    <g id="g776" clip-path="url(#clip86)">
      <g id="g778" stroke="#c0c0c0" stroke-opacity="1.0000" fill="none" stroke-linecap="round" stroke-linejoin="round">
        <path id="path780" d="M 278.73 0.0000 L 278.73 163.66" />
      </g>
    </g>
    <clipPath id="clip87">
      <path id="path783" d="M 0.0000 0.0000 L 0.0000 277.00 L 383.00 277.00 L 383.00 0.0000 z" />
    </clipPath>
    <g id="g785" clip-path="url(#clip87)">
      <g id="g787" stroke="#c0c0c0" stroke-opacity="1.0000" fill="none" stroke-linecap="round" stroke-linejoin="round">
        <path id="path789" d="M 278.73 182.66 L 278.73 277.00" />
      </g>
    </g>
    <clipPath id="clip88">
      <path id="path792" d="M 0.0000 0.0000 L 0.0000 277.00 L 383.00 277.00 L 383.00 0.0000 z" />
    </clipPath>
    <g id="g794" clip-path="url(#clip88)">
      <g id="g796" stroke="#c0c0c0" stroke-opacity="1.0000" fill="none" stroke-linecap="round" stroke-linejoin="round">
        <path id="path798" d="M 300.72 0.0000 L 300.72 163.66" />
      </g>
    </g>
    <clipPath id="clip89">
      <path id="path801" d="M 0.0000 0.0000 L 0.0000 277.00 L 383.00 277.00 L 383.00 0.0000 z" />
    </clipPath>
    <g id="g803" clip-path="url(#clip89)">
      <g id="g805" stroke="#c0c0c0" stroke-opacity="1.0000" fill="none" stroke-linecap="round" stroke-linejoin="round">
        <path id="path807" d="M 300.72 182.66 L 300.72 277.00" />
      </g>
    </g>
    <clipPath id="clip90">
      <path id="path810" d="M 0.0000 0.0000 L 0.0000 277.00 L 383.00 277.00 L 383.00 0.0000 z" />
    </clipPath>
    <g id="g812" clip-path="url(#clip90)">
      <g id="g814" stroke="#c0c0c0" stroke-opacity="1.0000" fill="none" stroke-linecap="round" stroke-linejoin="round">
        <path id="path816" d="M 322.71 0.0000 L 322.71 163.66" />
      </g>
    </g>
    <clipPath id="clip91">
      <path id="path819" d="M 0.0000 0.0000 L 0.0000 277.00 L 383.00 277.00 L 383.00 0.0000 z" />
    </clipPath>
    <g id="g821" clip-path="url(#clip91)">
      <g id="g823" stroke="#c0c0c0" stroke-opacity="1.0000" fill="none" stroke-linecap="round" stroke-linejoin="round">
        <path id="path825" d="M 322.71 182.66 L 322.71 277.00" />
      </g>
    </g>
    <clipPath id="clip92">
      <path id="path828" d="M 0.0000 0.0000 L 0.0000 277.00 L 383.00 277.00 L 383.00 0.0000 z" />
    </clipPath>
    <g id="g830" clip-path="url(#clip92)">
      <g id="g832" stroke="#c0c0c0" stroke-opacity="1.0000" fill="none" stroke-linecap="round" stroke-linejoin="round">
        <path id="path834" d="M 344.70 0.0000 L 344.70 163.66" />
      </g>
    </g>
    <clipPath id="clip93">
      <path id="path837" d="M 0.0000 0.0000 L 0.0000 277.00 L 383.00 277.00 L 383.00 0.0000 z" />
    </clipPath>
    <g id="g839" clip-path="url(#clip93)">
      <g id="g841" stroke="#c0c0c0" stroke-opacity="1.0000" fill="none" stroke-linecap="round" stroke-linejoin="round">
        <path id="path843" d="M 344.70 182.66 L 344.70 277.00" />
      </g>
    </g>
    <clipPath id="clip94">
      <path id="path846" d="M 0.0000 0.0000 L 0.0000 277.00 L 383.00 277.00 L 383.00 0.0000 z" />
    </clipPath>
    <g id="g848" clip-path="url(#clip94)">
      <g id="g850" stroke="#c0c0c0" stroke-opacity="1.0000" fill="none" stroke-linecap="round" stroke-linejoin="round">
        <path id="path852" d="M 366.70 0.0000 L 366.70 163.66" />
      </g>
    </g>
    <clipPath id="clip95">
      <path id="path855" d="M 0.0000 0.0000 L 0.0000 277.00 L 383.00 277.00 L 383.00 0.0000 z" />
    </clipPath>
    <g id="g857" clip-path="url(#clip95)">
      <g id="g859" stroke="#c0c0c0" stroke-opacity="1.0000" fill="none" stroke-linecap="round" stroke-linejoin="round">
        <path id="path861" d="M 366.70 182.66 L 366.70 277.00" />
      </g>
    </g>
    <clipPath id="clip96">
      <path id="path864" d="M 0.0000 0.0000 L 0.0000 277.00 L 383.00 277.00 L 383.00 0.0000 z" />
    </clipPath>
    <g id="g866" clip-path="url(#clip96)">
      <g id="g868" stroke="#c0c0c0" stroke-opacity="1.0000" fill="none" stroke-linecap="round" stroke-linejoin="round">
        <path id="path870" d="M 0.0000 9.7195 L 383.00 9.7195" />
      </g>
    </g>
    <clipPath id="clip97">
      <path id="path873" d="M 0.0000 0.0000 L 0.0000 277.00 L 383.00 277.00 L 383.00 0.0000 z" />
    </clipPath>
    <g id="g875" clip-path="url(#clip97)">
      <g id="g877" stroke="#c0c0c0" stroke-opacity="1.0000" fill="none" stroke-linecap="round" stroke-linejoin="round">
        <path id="path879" d="M 0.0000 9.7195 L 383.00 9.7195" />
      </g>
    </g>
    <clipPath id="clip98">
      <path id="path882" d="M 0.0000 0.0000 L 0.0000 277.00 L 383.00 277.00 L 383.00 0.0000 z" />
    </clipPath>
    <g id="g884" clip-path="url(#clip98)">
      <g id="g886" stroke="#c0c0c0" stroke-opacity="1.0000" fill="none" stroke-linecap="round" stroke-linejoin="round">
        <path id="path888" d="M 0.0000 31.712 L 130.45 31.712" />
      </g>
    </g>
    <clipPath id="clip99">
      <path id="path891" d="M 0.0000 0.0000 L 0.0000 277.00 L 383.00 277.00 L 383.00 0.0000 z" />
    </clipPath>
    <g id="g893" clip-path="url(#clip99)">
      <g id="g895" stroke="#c0c0c0" stroke-opacity="1.0000" fill="none" stroke-linecap="round" stroke-linejoin="round">
        <path id="path897" d="M 146.78 31.712 L 383.00 31.712" />
      </g>
    </g>
    <clipPath id="clip100">
      <path id="path900" d="M 0.0000 0.0000 L 0.0000 277.00 L 383.00 277.00 L 383.00 0.0000 z" />
    </clipPath>
    <g id="g902" clip-path="url(#clip100)">
      <g id="g904" stroke="#c0c0c0" stroke-opacity="1.0000" fill="none" stroke-linecap="round" stroke-linejoin="round">
        <path id="path906" d="M 0.0000 53.704 L 130.45 53.704" />
      </g>
    </g>
    <clipPath id="clip101">
      <path id="path909" d="M 0.0000 0.0000 L 0.0000 277.00 L 383.00 277.00 L 383.00 0.0000 z" />
    </clipPath>
    <g id="g911" clip-path="url(#clip101)">
      <g id="g913" stroke="#c0c0c0" stroke-opacity="1.0000" fill="none" stroke-linecap="round" stroke-linejoin="round">
        <path id="path915" d="M 146.78 53.704 L 383.00 53.704" />
      </g>
    </g>
    <clipPath id="clip102">
      <path id="path918" d="M 0.0000 0.0000 L 0.0000 277.00 L 383.00 277.00 L 383.00 0.0000 z" />
    </clipPath>
    <g id="g920" clip-path="url(#clip102)">
      <g id="g922" stroke="#c0c0c0" stroke-opacity="1.0000" fill="none" stroke-linecap="round" stroke-linejoin="round">
        <path id="path924" d="M 0.0000 75.696 L 130.45 75.696" />
      </g>
    </g>
    <clipPath id="clip103">
      <path id="path927" d="M 0.0000 0.0000 L 0.0000 277.00 L 383.00 277.00 L 383.00 0.0000 z" />
    </clipPath>
    <g id="g929" clip-path="url(#clip103)">
      <g id="g931" stroke="#c0c0c0" stroke-opacity="1.0000" fill="none" stroke-linecap="round" stroke-linejoin="round">
        <path id="path933" d="M 146.78 75.696 L 383.00 75.696" />
      </g>
    </g>
    <clipPath id="clip104">
      <path id="path936" d="M 0.0000 0.0000 L 0.0000 277.00 L 383.00 277.00 L 383.00 0.0000 z" />
    </clipPath>
    <g id="g938" clip-path="url(#clip104)">
      <g id="g940" stroke="#c0c0c0" stroke-opacity="1.0000" fill="none" stroke-linecap="round" stroke-linejoin="round">
        <path id="path942" d="M 0.0000 97.688 L 130.45 97.688" />
      </g>
    </g>
    <clipPath id="clip105">
      <path id="path945" d="M 0.0000 0.0000 L 0.0000 277.00 L 383.00 277.00 L 383.00 0.0000 z" />
    </clipPath>
    <g id="g947" clip-path="url(#clip105)">
      <g id="g949" stroke="#c0c0c0" stroke-opacity="1.0000" fill="none" stroke-linecap="round" stroke-linejoin="round">
        <path id="path951" d="M 146.78 97.688 L 383.00 97.688" />
      </g>
    </g>
    <clipPath id="clip106">
      <path id="path954" d="M 0.0000 0.0000 L 0.0000 277.00 L 383.00 277.00 L 383.00 0.0000 z" />
    </clipPath>
    <g id="g956" clip-path="url(#clip106)">
      <g id="g958" stroke="#c0c0c0" stroke-opacity="1.0000" fill="none" stroke-linecap="round" stroke-linejoin="round">
        <path id="path960" d="M 0.0000 119.68 L 130.45 119.68" />
      </g>
    </g>
    <clipPath id="clip107">
      <path id="path963" d="M 0.0000 0.0000 L 0.0000 277.00 L 383.00 277.00 L 383.00 0.0000 z" />
    </clipPath>
    <g id="g965" clip-path="url(#clip107)">
      <g id="g967" stroke="#c0c0c0" stroke-opacity="1.0000" fill="none" stroke-linecap="round" stroke-linejoin="round">
        <path id="path969" d="M 146.78 119.68 L 383.00 119.68" />
      </g>
    </g>
    <clipPath id="clip108">
      <path id="path972" d="M 0.0000 0.0000 L 0.0000 277.00 L 383.00 277.00 L 383.00 0.0000 z" />
    </clipPath>
    <g id="g974" clip-path="url(#clip108)">
      <g id="g976" stroke="#c0c0c0" stroke-opacity="1.0000" fill="none" stroke-linecap="round" stroke-linejoin="round">
        <path id="path978" d="M 0.0000 141.67 L 130.45 141.67" />
      </g>
    </g>
    <clipPath id="clip109">
      <path id="path981" d="M 0.0000 0.0000 L 0.0000 277.00 L 383.00 277.00 L 383.00 0.0000 z" />
    </clipPath>
    <g id="g983" clip-path="url(#clip109)">
      <g id="g985" stroke="#c0c0c0" stroke-opacity="1.0000" fill="none" stroke-linecap="round" stroke-linejoin="round">
        <path id="path987" d="M 146.78 141.67 L 383.00 141.67" />
      </g>
    </g>
    <clipPath id="clip110">
      <path id="path990" d="M 0.0000 0.0000 L 0.0000 277.00 L 383.00 277.00 L 383.00 0.0000 z" />
    </clipPath>
    <g id="g992" clip-path="url(#clip110)">
      <g id="g994" stroke="#c0c0c0" stroke-opacity="1.0000" fill="none" stroke-linecap="round" stroke-linejoin="round">
        <path id="path996" d="M 0.0000 185.66 L 125.45 185.66" />
      </g>
    </g>
    <clipPath id="clip111">
      <path id="path999" d="M 0.0000 0.0000 L 0.0000 277.00 L 383.00 277.00 L 383.00 0.0000 z" />
    </clipPath>
    <g id="g1001" clip-path="url(#clip111)">
      <g id="g1003" stroke="#c0c0c0" stroke-opacity="1.0000" fill="none" stroke-linecap="round" stroke-linejoin="round">
        <path id="path1005" d="M 146.78 185.66 L 383.00 185.66" />
      </g>
    </g>
    <clipPath id="clip112">
      <path id="path1008" d="M 0.0000 0.0000 L 0.0000 277.00 L 383.00 277.00 L 383.00 0.0000 z" />
    </clipPath>
    <g id="g1010" clip-path="url(#clip112)">
      <g id="g1012" stroke="#c0c0c0" stroke-opacity="1.0000" fill="none" stroke-linecap="round" stroke-linejoin="round">
        <path id="path1014" d="M 0.0000 207.65 L 125.45 207.65" />
      </g>
    </g>
    <clipPath id="clip113">
      <path id="path1017" d="M 0.0000 0.0000 L 0.0000 277.00 L 383.00 277.00 L 383.00 0.0000 z" />
    </clipPath>
    <g id="g1019" clip-path="url(#clip113)">
      <g id="g1021" stroke="#c0c0c0" stroke-opacity="1.0000" fill="none" stroke-linecap="round" stroke-linejoin="round">
        <path id="path1023" d="M 146.78 207.65 L 383.00 207.65" />
      </g>
    </g>
    <clipPath id="clip114">
      <path id="path1026" d="M 0.0000 0.0000 L 0.0000 277.00 L 383.00 277.00 L 383.00 0.0000 z" />
    </clipPath>
    <g id="g1028" clip-path="url(#clip114)">
      <g id="g1030" stroke="#c0c0c0" stroke-opacity="1.0000" fill="none" stroke-linecap="round" stroke-linejoin="round">
        <path id="path1032" d="M 0.0000 229.64 L 125.45 229.64" />
      </g>
    </g>
    <clipPath id="clip115">
      <path id="path1035" d="M 0.0000 0.0000 L 0.0000 277.00 L 383.00 277.00 L 383.00 0.0000 z" />
    </clipPath>
    <g id="g1037" clip-path="url(#clip115)">
      <g id="g1039" stroke="#c0c0c0" stroke-opacity="1.0000" fill="none" stroke-linecap="round" stroke-linejoin="round">
        <path id="path1041" d="M 146.78 229.64 L 383.00 229.64" />
      </g>
    </g>
    <clipPath id="clip116">
      <path id="path1044" d="M 0.0000 0.0000 L 0.0000 277.00 L 383.00 277.00 L 383.00 0.0000 z" />
    </clipPath>
    <g id="g1046" clip-path="url(#clip116)">
      <g id="g1048" stroke="#c0c0c0" stroke-opacity="1.0000" fill="none" stroke-linecap="round" stroke-linejoin="round">
        <path id="path1050" d="M 0.0000 251.63 L 125.45 251.63" />
      </g>
    </g>
    <clipPath id="clip117">
      <path id="path1053" d="M 0.0000 0.0000 L 0.0000 277.00 L 383.00 277.00 L 383.00 0.0000 z" />
    </clipPath>
    <g id="g1055" clip-path="url(#clip117)">
      <g id="g1057" stroke="#c0c0c0" stroke-opacity="1.0000" fill="none" stroke-linecap="round" stroke-linejoin="round">
        <path id="path1059" d="M 146.78 251.63 L 383.00 251.63" />
      </g>
    </g>
    <clipPath id="clip118">
      <path id="path1062" d="M 0.0000 0.0000 L 0.0000 277.00 L 383.00 277.00 L 383.00 0.0000 z" />
    </clipPath>
    <g id="g1064" clip-path="url(#clip118)">
      <g id="g1066" stroke="#c0c0c0" stroke-opacity="1.0000" fill="none" stroke-linecap="round" stroke-linejoin="round">
        <path id="path1068" d="M 0.0000 273.62 L 383.00 273.62" />
      </g>
    </g>
    <g id="misc" />
    <g id="layer0">
      <clipPath id="clip119">
        <path id="path1073" d="M 0.0000 0.0000 L 0.0000 277.00 L 383.00 277.00 L 383.00 0.0000 z" />
      </clipPath>
      <g id="g1075" clip-path="url(#clip119)">
        <g id="g1077" stroke="#0000ff" stroke-opacity="1.0000" fill="none" stroke-linecap="round" stroke-width="2.5000" stroke-linejoin="round">
          <path id="path1079" d="M 110.71 282.64 L 111.46 276.73 L 112.21 271.07 L 112.96 265.64 L 113.70 260.45 L 115.20 250.75 L 116.70 241.93 L 118.19 233.94 L 119.69 226.75 L 121.18 220.31 L 122.68 214.58 L 125.67 205.09 L 128.66 197.94 L 131.66 192.80 L 133.15 190.88 L 134.65 189.34 L 136.14 188.14 L 137.64 187.23 L 139.14 186.58 L 140.63 186.14 L 143.62 185.72 L 146.62 185.66 L 149.61 185.61 L 152.60 185.25 L 154.10 184.84 L 155.59 184.24 L 157.09 183.39 L 158.59 182.25 L 160.08 180.78 L 161.58 178.95 L 164.57 174.01 L 167.56 167.08 L 170.55 157.86 L 172.05 152.27 L 173.55 145.98 L 175.04 138.95 L 176.54 131.14 L 178.04 122.50 L 179.53 112.99 L 180.28 107.90 L 181.03 102.57 L 181.78 97.008 L 182.52 91.202 L 183.27 85.147 L 184.02 78.840 L 184.77 72.273 L 185.52 65.443 L 186.26 58.344 L 187.01 50.971 L 187.76 43.319 L 188.51 35.382 L 189.26 27.155 L 190.00 18.633 L 190.75 9.8117 L 191.50 .68478 L 192.25 -8.7526" />
          <title id="title1081">Function f</title>
          <desc id="desc1083">f(x) = x&#130; - 1</desc>
        </g>
      </g>
      <clipPath id="clip120">
        <path id="path1086" d="M 0.0000 0.0000 L 0.0000 277.00 L 383.00 277.00 L 383.00 0.0000 z" />
      </clipPath>
      <g id="g1088" clip-path="url(#clip120)">
        <g id="g1090" stroke="#ff00ff" stroke-opacity="1.0000" fill="none" stroke-linecap="round" stroke-width="2.5000" stroke-linejoin="round">
          <path id="path1092" d="M 169.06 -8.8030 L 169.81 -.095670 L 170.55 8.3136 L 171.30 16.430 L 172.05 24.258 L 172.80 31.805 L 173.55 39.073 L 174.29 46.070 L 175.04 52.799 L 175.79 59.267 L 176.54 65.478 L 177.29 71.438 L 178.04 77.152 L 178.78 82.625 L 179.53 87.861 L 181.03 97.649 L 182.52 106.55 L 184.02 114.62 L 185.52 121.89 L 187.01 128.40 L 188.51 134.20 L 191.50 143.82 L 194.49 151.08 L 197.48 156.31 L 198.98 158.26 L 200.48 159.84 L 201.97 161.07 L 203.47 162.01 L 204.96 162.69 L 206.46 163.15 L 209.45 163.59 L 212.45 163.66 L 215.44 163.70 L 218.43 164.04 L 219.93 164.43 L 221.42 165.01 L 222.92 165.84 L 224.41 166.94 L 225.91 168.37 L 227.41 170.17 L 230.40 175.03 L 233.39 181.84 L 236.38 190.95 L 237.88 196.47 L 239.38 202.68 L 240.87 209.64 L 242.37 217.37 L 243.86 225.93 L 245.36 235.35 L 246.11 240.40 L 246.86 245.68 L 247.60 251.19 L 248.35 256.95 L 249.10 262.95 L 249.85 269.21 L 250.60 275.73 L 251.34 282.50" />
          <title id="title1094">Function g</title>
          <desc id="desc1096">g(x) = -(x - 3)&#130;</desc>
        </g>
      </g>
      <clipPath id="clip121">
        <path id="path1099" d="M 0.0000 0.0000 L 0.0000 277.00 L 383.00 277.00 L 383.00 0.0000 z" />
      </clipPath>
      <g id="g1101" clip-path="url(#clip121)">
        <g id="g1103" stroke="#0000ff" stroke-opacity="1.0000" fill="none" stroke-linecap="butt" stroke-width="2.0000" stroke-dasharray="6.0000,4.0000" stroke-linejoin="round">
          <path id="path1105" d="M 104.73 -12.048 L 105.47 -3.9887 L 106.22 3.7835 L 106.97 11.274 L 107.72 18.489 L 108.47 25.432 L 109.21 32.109 L 109.96 38.526 L 110.71 44.687 L 111.46 50.597 L 112.21 56.263 L 112.96 61.688 L 113.70 66.879 L 115.20 76.577 L 116.70 85.398 L 118.19 93.384 L 119.69 100.58 L 121.18 107.02 L 122.68 112.75 L 125.67 122.24 L 128.66 129.39 L 131.66 134.53 L 133.15 136.44 L 134.65 137.98 L 136.14 139.19 L 137.64 140.10 L 139.14 140.75 L 140.63 141.19 L 143.62 141.61 L 146.62 141.67 L 149.61 141.72 L 152.60 142.08 L 154.10 142.48 L 155.59 143.09 L 157.09 143.94 L 158.59 145.08 L 160.08 146.54 L 161.58 148.38 L 164.57 153.32 L 167.56 160.24 L 170.55 169.47 L 172.05 175.06 L 173.55 181.34 L 175.04 188.37 L 176.54 196.19 L 178.04 204.83 L 179.53 214.34 L 180.28 219.43 L 181.03 224.76 L 181.78 230.32 L 182.52 236.13 L 183.27 242.18 L 184.02 248.49 L 184.77 255.06 L 185.52 261.89 L 186.26 268.98 L 187.01 276.36 L 187.76 284.01" />
          <title id="title1107">Function h</title>
          <desc id="desc1109">Function h: h(x) = -f(x)</desc>
        </g>
      </g>
      <clipPath id="clip122">
        <path id="path1112" d="M 0.0000 0.0000 L 0.0000 277.00 L 383.00 277.00 L 383.00 0.0000 z" />
      </clipPath>
      <g id="g1114" clip-path="url(#clip122)">
        <g id="g1116" stroke="#0000ff" stroke-opacity="1.0000" fill="none" stroke-linecap="round" stroke-width="3.0000" stroke-linejoin="round">
          <path id="path1118" d="M 124.78 119.68 L 173.68 135.98" />
          <title id="title1120">Vector u</title>
          <desc id="desc1122">Vector u: Vector[C, D]</desc>
        </g>
      </g>
      <clipPath id="clip123">
        <path id="path1125" d="M 0.0000 0.0000 L 0.0000 277.00 L 383.00 277.00 L 383.00 0.0000 z" />
      </clipPath>
      <g id="g1127" clip-path="url(#clip123)">
        <g id="g1129" fill="#0000ff" stroke="none" fill-rule="evenodd" fill-opacity="1.0000">
          <path id="path1131" d="M 190.76 141.67 L 172.26 140.25 L 175.11 131.71 z" />
          <title id="title1133">Vector u</title>
          <desc id="desc1135">Vector u: Vector[C, D]</desc>
        </g>
      </g>
      <clipPath id="clip124">
        <path id="path1138" d="M 0.0000 0.0000 L 0.0000 277.00 L 383.00 277.00 L 383.00 0.0000 z" />
      </clipPath>
      <g id="g1140" clip-path="url(#clip124)">
        <g id="g1142" stroke="#0000ff" stroke-opacity="1.0000" fill="none" stroke-linecap="round" stroke-width="3.0000" stroke-linejoin="round">
          <path id="path1144" d="M 146.78 141.67 L 195.68 157.97" />
          <title id="title1146">Vector v</title>
          <desc id="desc1148">Vector v: Vector[A, B]</desc>
        </g>
      </g>
      <clipPath id="clip125">
        <path id="path1151" d="M 0.0000 0.0000 L 0.0000 277.00 L 383.00 277.00 L 383.00 0.0000 z" />
      </clipPath>
      <g id="g1153" clip-path="url(#clip125)">
        <g id="g1155" fill="#0000ff" stroke="none" fill-rule="evenodd" fill-opacity="1.0000">
          <path id="path1157" d="M 212.75 163.66 L 194.25 162.24 L 197.10 153.70 z" />
          <title id="title1159">Vector v</title>
          <desc id="desc1161">Vector v: Vector[A, B]</desc>
        </g>
      </g>
      <clipPath id="clip126">
        <path id="path1164" d="M 0.0000 0.0000 L 0.0000 277.00 L 383.00 277.00 L 383.00 0.0000 z" />
      </clipPath>
      <g id="g1166" clip-path="url(#clip126)">
        <g id="g1168" stroke="#0000ff" stroke-opacity=".39216" fill="none" stroke-linecap="round" stroke-width="5.0000" stroke-linejoin="round">
          <path id="path1170" d="M 168.77 163.66 L 217.67 179.96" />
          <title id="title1172">Vector w</title>
          <desc id="desc1174">Vector w: Vector[E, F]</desc>
        </g>
      </g>
      <clipPath id="clip127">
        <path id="path1177" d="M 0.0000 0.0000 L 0.0000 277.00 L 383.00 277.00 L 383.00 0.0000 z" />
      </clipPath>
      <g id="g1179" clip-path="url(#clip127)">
        <g id="g1181" stroke="#0000ff" stroke-opacity="1.0000" fill="none" stroke-linecap="round" stroke-width="3.0000" stroke-linejoin="round">
          <path id="path1183" d="M 168.77 163.66 L 217.67 179.96" />
          <title id="title1185">Vector w</title>
          <desc id="desc1187">Vector w: Vector[E, F]</desc>
        </g>
      </g>
      <clipPath id="clip128">
        <path id="path1190" d="M 0.0000 0.0000 L 0.0000 277.00 L 383.00 277.00 L 383.00 0.0000 z" />
      </clipPath>
      <g id="g1192" clip-path="url(#clip128)">
        <g id="g1194" fill="#0000ff" stroke="none" fill-rule="evenodd" fill-opacity="1.0000">
          <path id="path1196" d="M 234.74 185.66 L 216.24 184.23 L 219.09 175.70 z" />
          <title id="title1198">Vector w</title>
          <desc id="desc1200">Vector w: Vector[E, F]</desc>
        </g>
      </g>
      <clipPath id="clip129">
        <path id="path1203" d="M 0.0000 0.0000 L 0.0000 277.00 L 383.00 277.00 L 383.00 0.0000 z" />
      </clipPath>
      <g id="g1205" clip-path="url(#clip129)">
        <g id="g1207" fill="#0000ff" stroke="none" fill-rule="nonzero" fill-opacity="1.0000">
          <path id="path1209" d="M 152.78 141.67 C 152.78 144.99 150.09 147.67 146.78 147.67 C 143.46 147.67 140.78 144.99 140.78 141.67 C 140.78 138.36 143.46 135.67 146.78 135.67 C 150.09 135.67 152.78 138.36 152.78 141.67 z" />
          <title id="title1211">Point A</title>
          <desc id="desc1213">Point A: Intersection point of h, yAxis</desc>
        </g>
      </g>
      <clipPath id="clip130">
        <path id="path1216" d="M 0.0000 0.0000 L 0.0000 277.00 L 383.00 277.00 L 383.00 0.0000 z" />
      </clipPath>
      <g id="g1218" clip-path="url(#clip130)">
        <g id="g1220" stroke="#000000" stroke-opacity="1.0000" fill="none" stroke-linecap="round" stroke-linejoin="round">
          <path id="path1222" d="M 152.78 141.67 C 152.78 144.99 150.09 147.67 146.78 147.67 C 143.46 147.67 140.78 144.99 140.78 141.67 C 140.78 138.36 143.46 135.67 146.78 135.67 C 150.09 135.67 152.78 138.36 152.78 141.67 z" />
          <title id="title1224">Point A</title>
          <desc id="desc1226">Point A: Intersection point of h, yAxis</desc>
        </g>
      </g>
      <clipPath id="clip131">
        <path id="path1229" d="M 0.0000 0.0000 L 0.0000 277.00 L 383.00 277.00 L 383.00 0.0000 z" />
      </clipPath>
      <g id="g1231" clip-path="url(#clip131)">
        <g id="g1233" fill="#ff00ff" stroke="none" fill-rule="nonzero" fill-opacity="1.0000">
          <path id="path1235" d="M 218.75 163.66 C 218.75 166.98 216.07 169.66 212.75 169.66 C 209.44 169.66 206.75 166.98 206.75 163.66 C 206.75 160.35 209.44 157.66 212.75 157.66 C 216.07 157.66 218.75 160.35 218.75 163.66 z" />
          <title id="title1237">Point B</title>
          <desc id="desc1239">Point B: Intersection point of g, xAxis</desc>
        </g>
      </g>
      <clipPath id="clip132">
        <path id="path1242" d="M 0.0000 0.0000 L 0.0000 277.00 L 383.00 277.00 L 383.00 0.0000 z" />
      </clipPath>
      <g id="g1244" clip-path="url(#clip132)">
        <g id="g1246" stroke="#000000" stroke-opacity="1.0000" fill="none" stroke-linecap="round" stroke-linejoin="round">
          <path id="path1248" d="M 218.75 163.66 C 218.75 166.98 216.07 169.66 212.75 169.66 C 209.44 169.66 206.75 166.98 206.75 163.66 C 206.75 160.35 209.44 157.66 212.75 157.66 C 216.07 157.66 218.75 160.35 218.75 163.66 z" />
          <title id="title1250">Point B</title>
          <desc id="desc1252">Point B: Intersection point of g, xAxis</desc>
        </g>
      </g>
      <clipPath id="clip133">
        <path id="path1255" d="M 0.0000 0.0000 L 0.0000 277.00 L 383.00 277.00 L 383.00 0.0000 z" />
      </clipPath>
      <g id="g1257" clip-path="url(#clip133)">
        <g id="g1259" fill="#0000ff" stroke="none" fill-rule="nonzero" fill-opacity="1.0000">
          <path id="path1261" d="M 130.78 119.68 C 130.78 122.99 128.10 125.68 124.78 125.68 C 121.47 125.68 118.78 122.99 118.78 119.68 C 118.78 116.37 121.47 113.68 124.78 113.68 C 128.10 113.68 130.78 116.37 130.78 119.68 z" />
          <title id="title1263">Point C</title>
          <desc id="desc1265">Point C: Point on h</desc>
        </g>
      </g>
      <clipPath id="clip134">
        <path id="path1268" d="M 0.0000 0.0000 L 0.0000 277.00 L 383.00 277.00 L 383.00 0.0000 z" />
      </clipPath>
      <g id="g1270" clip-path="url(#clip134)">
        <g id="g1272" stroke="#000000" stroke-opacity="1.0000" fill="none" stroke-linecap="round" stroke-linejoin="round">
          <path id="path1274" d="M 130.78 119.68 C 130.78 122.99 128.10 125.68 124.78 125.68 C 121.47 125.68 118.78 122.99 118.78 119.68 C 118.78 116.37 121.47 113.68 124.78 113.68 C 128.10 113.68 130.78 116.37 130.78 119.68 z" />
          <title id="title1276">Point C</title>
          <desc id="desc1278">Point C: Point on h</desc>
        </g>
      </g>
      <clipPath id="clip135">
        <path id="path1281" d="M 0.0000 0.0000 L 0.0000 277.00 L 383.00 277.00 L 383.00 0.0000 z" />
      </clipPath>
      <g id="g1283" clip-path="url(#clip135)">
        <g id="g1285" fill="#ff00ff" stroke="none" fill-rule="nonzero" fill-opacity="1.0000">
          <path id="path1287" d="M 196.76 141.67 C 196.76 144.99 194.07 147.67 190.76 147.67 C 187.45 147.67 184.76 144.99 184.76 141.67 C 184.76 138.36 187.45 135.67 190.76 135.67 C 194.07 135.67 196.76 138.36 196.76 141.67 z" />
          <title id="title1289">Point D</title>
          <desc id="desc1291">Point D: Point on g</desc>
        </g>
      </g>
      <clipPath id="clip136">
        <path id="path1294" d="M 0.0000 0.0000 L 0.0000 277.00 L 383.00 277.00 L 383.00 0.0000 z" />
      </clipPath>
      <g id="g1296" clip-path="url(#clip136)">
        <g id="g1298" stroke="#000000" stroke-opacity="1.0000" fill="none" stroke-linecap="round" stroke-linejoin="round">
          <path id="path1300" d="M 196.76 141.67 C 196.76 144.99 194.07 147.67 190.76 147.67 C 187.45 147.67 184.76 144.99 184.76 141.67 C 184.76 138.36 187.45 135.67 190.76 135.67 C 194.07 135.67 196.76 138.36 196.76 141.67 z" />
          <title id="title1302">Point D</title>
          <desc id="desc1304">Point D: Point on g</desc>
        </g>
      </g>
      <clipPath id="clip137">
        <path id="path1307" d="M 0.0000 0.0000 L 0.0000 277.00 L 383.00 277.00 L 383.00 0.0000 z" />
      </clipPath>
      <g id="g1309" clip-path="url(#clip137)">
        <g id="g1311" fill="#0000ff" stroke="none" fill-rule="nonzero" fill-opacity="1.0000">
          <path id="path1313" d="M 174.77 163.66 C 174.77 166.98 172.08 169.66 168.77 169.66 C 165.45 169.66 162.77 166.98 162.77 163.66 C 162.77 160.35 165.45 157.66 168.77 157.66 C 172.08 157.66 174.77 160.35 174.77 163.66 z" />
          <title id="title1315">Point E</title>
          <desc id="desc1317">Point E: Intersection point of f, h</desc>
        </g>
      </g>
      <clipPath id="clip138">
        <path id="path1320" d="M 0.0000 0.0000 L 0.0000 277.00 L 383.00 277.00 L 383.00 0.0000 z" />
      </clipPath>
      <g id="g1322" clip-path="url(#clip138)">
        <g id="g1324" stroke="#000000" stroke-opacity="1.0000" fill="none" stroke-linecap="round" stroke-linejoin="round">
          <path id="path1326" d="M 174.77 163.66 C 174.77 166.98 172.08 169.66 168.77 169.66 C 165.45 169.66 162.77 166.98 162.77 163.66 C 162.77 160.35 165.45 157.66 168.77 157.66 C 172.08 157.66 174.77 160.35 174.77 163.66 z" />
          <title id="title1328">Point E</title>
          <desc id="desc1330">Point E: Intersection point of f, h</desc>
        </g>
      </g>
      <clipPath id="clip139">
        <path id="path1333" d="M 0.0000 0.0000 L 0.0000 277.00 L 383.00 277.00 L 383.00 0.0000 z" />
      </clipPath>
      <g id="g1335" clip-path="url(#clip139)">
        <g id="g1337" fill="#ff00ff" stroke="none" fill-rule="nonzero" fill-opacity="1.0000">
          <path id="path1339" d="M 240.74 185.66 C 240.74 188.97 238.06 191.66 234.74 191.66 C 231.43 191.66 228.74 188.97 228.74 185.66 C 228.74 182.34 231.43 179.66 234.74 179.66 C 238.06 179.66 240.74 182.34 240.74 185.66 z" />
          <title id="title1341">Point F</title>
          <desc id="desc1343">Point F: Point on g</desc>
        </g>
      </g>
      <clipPath id="clip140">
        <path id="path1346" d="M 0.0000 0.0000 L 0.0000 277.00 L 383.00 277.00 L 383.00 0.0000 z" />
      </clipPath>
      <g id="g1348" clip-path="url(#clip140)">
        <g id="g1350" stroke="#000000" stroke-opacity="1.0000" fill="none" stroke-linecap="round" stroke-linejoin="round">
          <path id="path1352" d="M 240.74 185.66 C 240.74 188.97 238.06 191.66 234.74 191.66 C 231.43 191.66 228.74 188.97 228.74 185.66 C 228.74 182.34 231.43 179.66 234.74 179.66 C 238.06 179.66 240.74 182.34 240.74 185.66 z" />
          <title id="title1354">Point F</title>
          <desc id="desc1356">Point F: Point on g</desc>
        </g>
      </g>
    </g>
  </g>
</svg>