<?xml version='1.0' ?><svg xmlns:dc="http://purl.org/dc/elements/1.1/" xmlns:cc="http://creativecommons.org/ns#" xmlns:rdf="http://www.w3.org/1999/02/22-rdf-syntax-ns#" xmlns:svg="http://www.w3.org/2000/svg" xmlns="http://www.w3.org/2000/svg" id="svg2" version="1.1" width="373.75001" height="267.93505" viewBox="0.0 0.41973570434782603 385.0000103010032 275.99998461538456" preserveAspectRatio="none">
  <metadata id="metadata796">
    <rdf:RDF>
      <cc:Work rdf:about="">
        <dc:format>image/svg+xml</dc:format>
        <dc:type rdf:resource="http://purl.org/dc/dcmitype/StillImage" />
      </cc:Work>
    </rdf:RDF>
  </metadata>
  <defs id="defs794" />
  <title id="title4" />
  <g id="g6" stroke-linecap="square" stroke-miterlimit="10.000" stroke-width="1.0000" stroke-dasharray="none" stroke-dashoffset="0.0000" stroke-linejoin="miter">
    <clipPath id="clip1">
      <path id="path9" d="M 0.0000 0.0000 L 0.0000 276.00 L 385.00 276.00 L 385.00 0.0000 z" />
    </clipPath>
    <g id="g11" clip-path="url(#clip1)">
      <g id="g13" stroke="#000000" stroke-opacity="1.0000" fill="none" stroke-linecap="butt">
        <path id="path15" d="M 164.40 2.0000 L 164.40 276.00" />
      </g>
    </g>
    <clipPath id="clip2">
      <path id="path18" d="M 0.0000 0.0000 L 0.0000 276.00 L 385.00 276.00 L 385.00 0.0000 z" />
    </clipPath>
    <g id="g20" clip-path="url(#clip2)">
      <g id="g22" stroke="#000000" stroke-opacity="1.0000" fill="none" stroke-linecap="butt">
        <path id="path24" d="M 164.40 1.0000 L 161.40 4.0000" />
      </g>
    </g>
    <clipPath id="clip3">
      <path id="path27" d="M 0.0000 0.0000 L 0.0000 276.00 L 385.00 276.00 L 385.00 0.0000 z" />
    </clipPath>
    <g id="g29" clip-path="url(#clip3)">
      <g id="g31" stroke="#000000" stroke-opacity="1.0000" fill="none" stroke-linecap="butt">
        <path id="path33" d="M 164.40 1.0000 L 167.40 4.0000" />
      </g>
    </g>
    <clipPath id="clip4">
      <path id="path36" d="M 0.0000 0.0000 L 0.0000 276.00 L 385.00 276.00 L 385.00 0.0000 z" />
    </clipPath>
    <g id="g38" clip-path="url(#clip4)">
      <g id="g40" stroke="#000000" stroke-opacity="1.0000" fill="none" stroke-linecap="butt">
        <path id="path42" d="M 4.0433 145.74 L 4.0433 148.74" />
      </g>
    </g>
    <clipPath id="clip5">
      <path id="path45" d="M 0.0000 0.0000 L 0.0000 276.00 L 385.00 276.00 L 385.00 0.0000 z" />
    </clipPath>
    <g id="g47" clip-path="url(#clip5)">
      <g id="g49" stroke="#000000" stroke-opacity="1.0000" fill="none" stroke-linecap="butt">
        <path id="path51" d="M 0.0000 145.74 L 383.00 145.74" />
      </g>
    </g>
    <clipPath id="clip6">
      <path id="path54" d="M 0.0000 0.0000 L 0.0000 276.00 L 385.00 276.00 L 385.00 0.0000 z" />
    </clipPath>
    <g id="g56" clip-path="url(#clip6)">
      <g id="g58" stroke="#000000" stroke-opacity="1.0000" fill="none" stroke-linecap="butt">
        <path id="path60" d="M 384.00 145.74 L 381.00 142.74" />
      </g>
    </g>
    <clipPath id="clip7">
      <path id="path63" d="M 0.0000 0.0000 L 0.0000 276.00 L 385.00 276.00 L 385.00 0.0000 z" />
    </clipPath>
    <g id="g65" clip-path="url(#clip7)">
      <g id="g67" stroke="#000000" stroke-opacity="1.0000" fill="none" stroke-linecap="butt">
        <path id="path69" d="M 384.00 145.74 L 381.00 148.74" />
      </g>
    </g>
    <clipPath id="clip8">
      <path id="path72" d="M 0.0000 0.0000 L 0.0000 276.00 L 385.00 276.00 L 385.00 0.0000 z" />
    </clipPath>
    <g id="g74" clip-path="url(#clip8)">
      <g id="g76" fill="#000000" stroke="none" fill-rule="nonzero" fill-opacity="1.0000">
        <path id="path78" d="M 32.513 156.35 L 32.513 155.68 L 36.487 155.68 L 36.487 156.35 z M 40.765 159.00 L 40.765 156.95 L 37.513 156.95 L 37.513 156.23 L 40.765 151.77 L 41.668 151.77 L 41.668 156.17 L 42.635 156.17 L 42.635 156.95 L 41.668 156.95 L 41.668 159.00 z M 38.455 156.17 L 40.828 156.17 L 40.828 152.96 z" />
      </g>
    </g>
    <clipPath id="clip9">
      <path id="path81" d="M 0.0000 0.0000 L 0.0000 276.00 L 385.00 276.00 L 385.00 0.0000 z" />
    </clipPath>
    <g id="g83" clip-path="url(#clip9)">
      <g id="g85" stroke="#000000" stroke-opacity="1.0000" fill="none" stroke-linecap="butt">
        <path id="path87" d="M 36.115 145.74 L 36.115 148.74" />
      </g>
    </g>
    <clipPath id="clip10">
      <path id="path90" d="M 0.0000 0.0000 L 0.0000 276.00 L 385.00 276.00 L 385.00 0.0000 z" />
    </clipPath>
    <g id="g92" clip-path="url(#clip10)">
      <g id="g94" fill="#000000" stroke="none" fill-rule="nonzero" fill-opacity="1.0000">
        <path id="path96" d="M 64.513 156.35 L 64.513 155.68 L 68.487 155.68 L 68.487 156.35 z M 70.016 158.95 L 70.016 158.05 Q 71.051 158.46 71.646 158.46 Q 72.335 158.46 72.767 158.06 Q 73.199 157.65 73.199 157.01 Q 73.199 155.49 71.065 155.49 L 70.685 155.49 L 70.685 154.84 L 71.021 154.83 Q 73.023 154.83 73.023 153.42 Q 73.023 152.32 71.705 152.32 Q 70.982 152.32 70.113 152.72 L 70.113 151.88 Q 70.968 151.59 71.773 151.59 Q 73.990 151.59 73.990 153.27 Q 73.990 154.54 72.481 155.08 Q 74.229 155.49 74.229 157.00 Q 74.229 158.02 73.556 158.60 Q 72.882 159.18 71.705 159.18 Q 71.036 159.18 70.016 158.95 z" />
      </g>
    </g>
    <clipPath id="clip11">
      <path id="path99" d="M 0.0000 0.0000 L 0.0000 276.00 L 385.00 276.00 L 385.00 0.0000 z" />
    </clipPath>
    <g id="g101" clip-path="url(#clip11)">
      <g id="g103" stroke="#000000" stroke-opacity="1.0000" fill="none" stroke-linecap="butt">
        <path id="path105" d="M 68.187 145.74 L 68.187 148.74" />
      </g>
    </g>
    <clipPath id="clip12">
      <path id="path108" d="M 0.0000 0.0000 L 0.0000 276.00 L 385.00 276.00 L 385.00 0.0000 z" />
    </clipPath>
    <g id="g110" clip-path="url(#clip12)">
      <g id="g112" fill="#000000" stroke="none" fill-rule="nonzero" fill-opacity="1.0000">
        <path id="path114" d="M 96.513 156.35 L 96.513 155.68 L 100.49 155.68 L 100.49 156.35 z M 101.83 159.00 L 101.83 158.16 Q 102.25 157.17 103.53 156.02 L 104.08 155.52 Q 105.15 154.56 105.15 153.61 Q 105.15 153.01 104.78 152.66 Q 104.42 152.32 103.78 152.32 Q 103.03 152.32 102.01 152.90 L 102.01 152.05 Q 102.97 151.59 103.92 151.59 Q 104.94 151.59 105.55 152.14 Q 106.17 152.69 106.17 153.59 Q 106.17 154.24 105.86 154.74 Q 105.55 155.25 104.70 155.96 L 104.33 156.28 Q 103.17 157.26 102.99 158.16 L 106.13 158.16 L 106.13 159.00 z" />
      </g>
    </g>
    <clipPath id="clip13">
      <path id="path117" d="M 0.0000 0.0000 L 0.0000 276.00 L 385.00 276.00 L 385.00 0.0000 z" />
    </clipPath>
    <g id="g119" clip-path="url(#clip13)">
      <g id="g121" stroke="#000000" stroke-opacity="1.0000" fill="none" stroke-linecap="butt">
        <path id="path123" d="M 100.26 145.74 L 100.26 148.74" />
      </g>
    </g>
    <clipPath id="clip14">
      <path id="path126" d="M 0.0000 0.0000 L 0.0000 276.00 L 385.00 276.00 L 385.00 0.0000 z" />
    </clipPath>
    <g id="g128" clip-path="url(#clip14)">
      <g id="g130" fill="#000000" stroke="none" fill-rule="nonzero" fill-opacity="1.0000">
        <path id="path132" d="M 128.51 156.35 L 128.51 155.68 L 132.49 155.68 L 132.49 156.35 z M 134.50 159.00 L 134.50 158.28 L 135.95 158.28 L 135.95 152.57 L 134.50 152.94 L 134.50 152.19 L 136.92 151.59 L 136.92 158.28 L 138.36 158.28 L 138.36 159.00 z" />
      </g>
    </g>
    <clipPath id="clip15">
      <path id="path135" d="M 0.0000 0.0000 L 0.0000 276.00 L 385.00 276.00 L 385.00 0.0000 z" />
    </clipPath>
    <g id="g137" clip-path="url(#clip15)">
      <g id="g139" stroke="#000000" stroke-opacity="1.0000" fill="none" stroke-linecap="butt">
        <path id="path141" d="M 132.33 145.74 L 132.33 148.74" />
      </g>
    </g>
    <clipPath id="clip16">
      <path id="path144" d="M 0.0000 0.0000 L 0.0000 276.00 L 385.00 276.00 L 385.00 0.0000 z" />
    </clipPath>
    <g id="g146" clip-path="url(#clip16)">
      <g id="g148" fill="#000000" stroke="none" fill-rule="nonzero" fill-opacity="1.0000">
        <path id="path150" d="M 173.13 159.18 Q 172.02 159.18 171.33 158.13 Q 170.63 157.08 170.63 155.38 Q 170.63 153.67 171.33 152.63 Q 172.03 151.59 173.16 151.59 Q 174.30 151.59 175.00 152.63 Q 175.69 153.67 175.69 155.37 Q 175.69 157.11 175.00 158.14 Q 174.30 159.18 173.13 159.18 z M 173.14 158.46 Q 174.67 158.46 174.67 155.35 Q 174.67 152.32 173.16 152.32 Q 171.66 152.32 171.66 155.38 Q 171.66 158.46 173.14 158.46 z" />
      </g>
    </g>
    <clipPath id="clip17">
      <path id="path153" d="M 0.0000 0.0000 L 0.0000 276.00 L 385.00 276.00 L 385.00 0.0000 z" />
    </clipPath>
    <g id="g155" clip-path="url(#clip17)">
      <g id="g157" fill="#000000" stroke="none" fill-rule="nonzero" fill-opacity="1.0000">
        <path id="path159" d="M 195.50 159.00 L 195.50 158.28 L 196.95 158.28 L 196.95 152.57 L 195.50 152.94 L 195.50 152.19 L 197.92 151.59 L 197.92 158.28 L 199.36 158.28 L 199.36 159.00 z" />
      </g>
    </g>
    <clipPath id="clip18">
      <path id="path162" d="M 0.0000 0.0000 L 0.0000 276.00 L 385.00 276.00 L 385.00 0.0000 z" />
    </clipPath>
    <g id="g164" clip-path="url(#clip18)">
      <g id="g166" stroke="#000000" stroke-opacity="1.0000" fill="none" stroke-linecap="butt">
        <path id="path168" d="M 196.47 145.74 L 196.47 148.74" />
      </g>
    </g>
    <clipPath id="clip19">
      <path id="path171" d="M 0.0000 0.0000 L 0.0000 276.00 L 385.00 276.00 L 385.00 0.0000 z" />
    </clipPath>
    <g id="g173" clip-path="url(#clip19)">
      <g id="g175" fill="#000000" stroke="none" fill-rule="nonzero" fill-opacity="1.0000">
        <path id="path177" d="M 227.83 159.00 L 227.83 158.16 Q 228.25 157.17 229.53 156.02 L 230.08 155.52 Q 231.15 154.56 231.15 153.61 Q 231.15 153.01 230.78 152.66 Q 230.42 152.32 229.78 152.32 Q 229.03 152.32 228.01 152.90 L 228.01 152.05 Q 228.97 151.59 229.92 151.59 Q 230.94 151.59 231.55 152.14 Q 232.17 152.69 232.17 153.59 Q 232.17 154.24 231.86 154.74 Q 231.55 155.25 230.70 155.96 L 230.33 156.28 Q 229.17 157.26 228.99 158.16 L 232.13 158.16 L 232.13 159.00 z" />
      </g>
    </g>
    <clipPath id="clip20">
      <path id="path180" d="M 0.0000 0.0000 L 0.0000 276.00 L 385.00 276.00 L 385.00 0.0000 z" />
    </clipPath>
    <g id="g182" clip-path="url(#clip20)">
      <g id="g184" stroke="#000000" stroke-opacity="1.0000" fill="none" stroke-linecap="butt">
        <path id="path186" d="M 228.55 145.74 L 228.55 148.74" />
      </g>
    </g>
    <clipPath id="clip21">
      <path id="path189" d="M 0.0000 0.0000 L 0.0000 276.00 L 385.00 276.00 L 385.00 0.0000 z" />
    </clipPath>
    <g id="g191" clip-path="url(#clip21)">
      <g id="g193" fill="#000000" stroke="none" fill-rule="nonzero" fill-opacity="1.0000">
        <path id="path195" d="M 260.02 158.95 L 260.02 158.05 Q 261.05 158.46 261.65 158.46 Q 262.33 158.46 262.77 158.06 Q 263.20 157.65 263.20 157.01 Q 263.20 155.49 261.07 155.49 L 260.68 155.49 L 260.68 154.84 L 261.02 154.83 Q 263.02 154.83 263.02 153.42 Q 263.02 152.32 261.71 152.32 Q 260.98 152.32 260.11 152.72 L 260.11 151.88 Q 260.97 151.59 261.77 151.59 Q 263.99 151.59 263.99 153.27 Q 263.99 154.54 262.48 155.08 Q 264.23 155.49 264.23 157.00 Q 264.23 158.02 263.56 158.60 Q 262.88 159.18 261.71 159.18 Q 261.04 159.18 260.02 158.95 z" />
      </g>
    </g>
    <clipPath id="clip22">
      <path id="path198" d="M 0.0000 0.0000 L 0.0000 276.00 L 385.00 276.00 L 385.00 0.0000 z" />
    </clipPath>
    <g id="g200" clip-path="url(#clip22)">
      <g id="g202" stroke="#000000" stroke-opacity="1.0000" fill="none" stroke-linecap="butt">
        <path id="path204" d="M 260.62 145.74 L 260.62 148.74" />
      </g>
    </g>
    <clipPath id="clip23">
      <path id="path207" d="M 0.0000 0.0000 L 0.0000 276.00 L 385.00 276.00 L 385.00 0.0000 z" />
    </clipPath>
    <g id="g209" clip-path="url(#clip23)">
      <g id="g211" fill="#000000" stroke="none" fill-rule="nonzero" fill-opacity="1.0000">
        <path id="path213" d="M 294.76 159.00 L 294.76 156.95 L 291.51 156.95 L 291.51 156.23 L 294.76 151.77 L 295.67 151.77 L 295.67 156.17 L 296.63 156.17 L 296.63 156.95 L 295.67 156.95 L 295.67 159.00 z M 292.46 156.17 L 294.83 156.17 L 294.83 152.96 z" />
      </g>
    </g>
    <clipPath id="clip24">
      <path id="path216" d="M 0.0000 0.0000 L 0.0000 276.00 L 385.00 276.00 L 385.00 0.0000 z" />
    </clipPath>
    <g id="g218" clip-path="url(#clip24)">
      <g id="g220" stroke="#000000" stroke-opacity="1.0000" fill="none" stroke-linecap="butt">
        <path id="path222" d="M 292.69 145.74 L 292.69 148.74" />
      </g>
    </g>
    <clipPath id="clip25">
      <path id="path225" d="M 0.0000 0.0000 L 0.0000 276.00 L 385.00 276.00 L 385.00 0.0000 z" />
    </clipPath>
    <g id="g227" clip-path="url(#clip25)">
      <g id="g229" fill="#000000" stroke="none" fill-rule="nonzero" fill-opacity="1.0000">
        <path id="path231" d="M 324.22 159.03 L 324.22 158.17 Q 324.93 158.46 325.58 158.46 Q 326.30 158.46 326.70 158.04 Q 327.11 157.62 327.11 156.88 Q 327.11 155.25 324.87 155.25 Q 324.62 155.25 324.34 155.29 L 324.34 151.77 L 328.00 151.77 L 328.00 152.61 L 325.18 152.61 L 325.18 154.52 Q 326.57 154.52 327.36 155.16 Q 328.14 155.80 328.14 156.93 Q 328.14 157.98 327.43 158.58 Q 326.72 159.18 325.46 159.18 Q 324.91 159.18 324.22 159.03 z" />
      </g>
    </g>
    <clipPath id="clip26">
      <path id="path234" d="M 0.0000 0.0000 L 0.0000 276.00 L 385.00 276.00 L 385.00 0.0000 z" />
    </clipPath>
    <g id="g236" clip-path="url(#clip26)">
      <g id="g238" stroke="#000000" stroke-opacity="1.0000" fill="none" stroke-linecap="butt">
        <path id="path240" d="M 324.76 145.74 L 324.76 148.74" />
      </g>
    </g>
    <clipPath id="clip27">
      <path id="path243" d="M 0.0000 0.0000 L 0.0000 276.00 L 385.00 276.00 L 385.00 0.0000 z" />
    </clipPath>
    <g id="g245" clip-path="url(#clip27)">
      <g id="g247" fill="#000000" stroke="none" fill-rule="nonzero" fill-opacity="1.0000">
        <path id="path249" d="M 356.72 155.25 Q 357.41 154.36 358.45 154.36 Q 359.40 154.36 360.00 154.99 Q 360.61 155.62 360.61 156.60 Q 360.61 157.73 359.93 158.45 Q 359.25 159.18 358.21 159.18 Q 357.02 159.18 356.34 158.22 Q 355.67 157.26 355.67 155.55 Q 355.67 153.67 356.44 152.63 Q 357.22 151.59 358.62 151.59 Q 359.27 151.59 360.23 151.86 L 360.23 152.70 Q 359.21 152.31 358.56 152.31 Q 356.72 152.31 356.72 155.25 z M 359.64 156.81 Q 359.64 155.99 359.27 155.52 Q 358.90 155.05 358.25 155.05 Q 357.64 155.05 357.20 155.46 Q 356.76 155.88 356.76 156.45 Q 356.76 157.36 357.18 157.91 Q 357.59 158.46 358.28 158.46 Q 358.90 158.46 359.27 158.01 Q 359.64 157.56 359.64 156.81 z" />
      </g>
    </g>
    <clipPath id="clip28">
      <path id="path252" d="M 0.0000 0.0000 L 0.0000 276.00 L 385.00 276.00 L 385.00 0.0000 z" />
    </clipPath>
    <g id="g254" clip-path="url(#clip28)">
      <g id="g256" stroke="#000000" stroke-opacity="1.0000" fill="none" stroke-linecap="butt">
        <path id="path258" d="M 356.83 145.74 L 356.83 148.74" />
      </g>
    </g>
    <clipPath id="clip29">
      <path id="path261" d="M 0.0000 0.0000 L 0.0000 276.00 L 385.00 276.00 L 385.00 0.0000 z" />
    </clipPath>
    <g id="g263" clip-path="url(#clip29)">
      <g id="g265" stroke="#000000" stroke-opacity="1.0000" fill="none" stroke-linecap="butt">
        <path id="path267" d="M 161.40 274.02 L 164.40 274.02" />
      </g>
    </g>
    <clipPath id="clip30">
      <path id="path270" d="M 0.0000 0.0000 L 0.0000 276.00 L 385.00 276.00 L 385.00 0.0000 z" />
    </clipPath>
    <g id="g272" clip-path="url(#clip30)">
      <g id="g274" fill="#000000" stroke="none" fill-rule="nonzero" fill-opacity="1.0000">
        <path id="path276" d="M 147.51 242.35 L 147.51 241.68 L 151.49 241.68 L 151.49 242.35 z M 153.02 244.95 L 153.02 244.05 Q 154.05 244.46 154.65 244.46 Q 155.33 244.46 155.77 244.06 Q 156.20 243.65 156.20 243.01 Q 156.20 241.49 154.07 241.49 L 153.68 241.49 L 153.68 240.84 L 154.02 240.83 Q 156.02 240.83 156.02 239.42 Q 156.02 238.32 154.71 238.32 Q 153.98 238.32 153.11 238.72 L 153.11 237.88 Q 153.97 237.59 154.77 237.59 Q 156.99 237.59 156.99 239.27 Q 156.99 240.54 155.48 241.08 Q 157.23 241.49 157.23 243.00 Q 157.23 244.02 156.56 244.60 Q 155.88 245.18 154.71 245.18 Q 154.04 245.18 153.02 244.95 z" />
      </g>
    </g>
    <clipPath id="clip31">
      <path id="path279" d="M 0.0000 0.0000 L 0.0000 276.00 L 385.00 276.00 L 385.00 0.0000 z" />
    </clipPath>
    <g id="g281" clip-path="url(#clip31)">
      <g id="g283" stroke="#000000" stroke-opacity="1.0000" fill="none" stroke-linecap="butt">
        <path id="path285" d="M 161.40 241.95 L 164.40 241.95" />
      </g>
    </g>
    <clipPath id="clip32">
      <path id="path288" d="M 0.0000 0.0000 L 0.0000 276.00 L 385.00 276.00 L 385.00 0.0000 z" />
    </clipPath>
    <g id="g290" clip-path="url(#clip32)">
      <g id="g292" fill="#000000" stroke="none" fill-rule="nonzero" fill-opacity="1.0000">
        <path id="path294" d="M 147.51 210.35 L 147.51 209.68 L 151.49 209.68 L 151.49 210.35 z M 152.83 213.00 L 152.83 212.16 Q 153.25 211.17 154.53 210.02 L 155.08 209.52 Q 156.15 208.56 156.15 207.61 Q 156.15 207.01 155.78 206.66 Q 155.42 206.32 154.78 206.32 Q 154.03 206.32 153.01 206.90 L 153.01 206.05 Q 153.97 205.59 154.92 205.59 Q 155.94 205.59 156.55 206.14 Q 157.17 206.69 157.17 207.59 Q 157.17 208.24 156.86 208.74 Q 156.55 209.25 155.70 209.96 L 155.33 210.28 Q 154.17 211.26 153.99 212.16 L 157.13 212.16 L 157.13 213.00 z" />
      </g>
    </g>
    <clipPath id="clip33">
      <path id="path297" d="M 0.0000 0.0000 L 0.0000 276.00 L 385.00 276.00 L 385.00 0.0000 z" />
    </clipPath>
    <g id="g299" clip-path="url(#clip33)">
      <g id="g301" stroke="#000000" stroke-opacity="1.0000" fill="none" stroke-linecap="butt">
        <path id="path303" d="M 161.40 209.88 L 164.40 209.88" />
      </g>
    </g>
    <clipPath id="clip34">
      <path id="path306" d="M 0.0000 0.0000 L 0.0000 276.00 L 385.00 276.00 L 385.00 0.0000 z" />
    </clipPath>
    <g id="g308" clip-path="url(#clip34)">
      <g id="g310" fill="#000000" stroke="none" fill-rule="nonzero" fill-opacity="1.0000">
        <path id="path312" d="M 147.51 178.35 L 147.51 177.68 L 151.49 177.68 L 151.49 178.35 z M 153.50 181.00 L 153.50 180.28 L 154.95 180.28 L 154.95 174.57 L 153.50 174.94 L 153.50 174.19 L 155.92 173.59 L 155.92 180.28 L 157.36 180.28 L 157.36 181.00 z" />
      </g>
    </g>
    <clipPath id="clip35">
      <path id="path315" d="M 0.0000 0.0000 L 0.0000 276.00 L 385.00 276.00 L 385.00 0.0000 z" />
    </clipPath>
    <g id="g317" clip-path="url(#clip35)">
      <g id="g319" stroke="#000000" stroke-opacity="1.0000" fill="none" stroke-linecap="butt">
        <path id="path321" d="M 161.40 177.81 L 164.40 177.81" />
      </g>
    </g>
    <clipPath id="clip36">
      <path id="path324" d="M 0.0000 0.0000 L 0.0000 276.00 L 385.00 276.00 L 385.00 0.0000 z" />
    </clipPath>
    <g id="g326" clip-path="url(#clip36)">
      <g id="g328" fill="#000000" stroke="none" fill-rule="nonzero" fill-opacity="1.0000">
        <path id="path330" d="M 155.13 143.18 Q 154.02 143.18 153.33 142.13 Q 152.63 141.08 152.63 139.38 Q 152.63 137.67 153.33 136.63 Q 154.03 135.59 155.16 135.59 Q 156.30 135.59 157.00 136.63 Q 157.69 137.67 157.69 139.37 Q 157.69 141.11 157.00 142.14 Q 156.30 143.18 155.13 143.18 z M 155.14 142.46 Q 156.67 142.46 156.67 139.35 Q 156.67 136.32 155.16 136.32 Q 153.66 136.32 153.66 139.38 Q 153.66 142.46 155.14 142.46 z" />
      </g>
    </g>
    <clipPath id="clip37">
      <path id="path333" d="M 0.0000 0.0000 L 0.0000 276.00 L 385.00 276.00 L 385.00 0.0000 z" />
    </clipPath>
    <g id="g335" clip-path="url(#clip37)">
      <g id="g337" fill="#000000" stroke="none" fill-rule="nonzero" fill-opacity="1.0000">
        <path id="path339" d="M 153.50 117.00 L 153.50 116.28 L 154.95 116.28 L 154.95 110.57 L 153.50 110.94 L 153.50 110.19 L 155.92 109.59 L 155.92 116.28 L 157.36 116.28 L 157.36 117.00 z" />
      </g>
    </g>
    <clipPath id="clip38">
      <path id="path342" d="M 0.0000 0.0000 L 0.0000 276.00 L 385.00 276.00 L 385.00 0.0000 z" />
    </clipPath>
    <g id="g344" clip-path="url(#clip38)">
      <g id="g346" stroke="#000000" stroke-opacity="1.0000" fill="none" stroke-linecap="butt">
        <path id="path348" d="M 161.40 113.67 L 164.40 113.67" />
      </g>
    </g>
    <clipPath id="clip39">
      <path id="path351" d="M 0.0000 0.0000 L 0.0000 276.00 L 385.00 276.00 L 385.00 0.0000 z" />
    </clipPath>
    <g id="g353" clip-path="url(#clip39)">
      <g id="g355" fill="#000000" stroke="none" fill-rule="nonzero" fill-opacity="1.0000">
        <path id="path357" d="M 152.83 85.000 L 152.83 84.155 Q 153.25 83.174 154.53 82.017 L 155.08 81.523 Q 156.15 80.562 156.15 79.614 Q 156.15 79.009 155.78 78.662 Q 155.42 78.315 154.78 78.315 Q 154.03 78.315 153.01 78.896 L 153.01 78.047 Q 153.97 77.593 154.92 77.593 Q 155.94 77.593 156.55 78.140 Q 157.17 78.687 157.17 79.590 Q 157.17 80.239 156.86 80.742 Q 156.55 81.245 155.70 81.963 L 155.33 82.280 Q 154.17 83.262 153.99 84.155 L 157.13 84.155 L 157.13 85.000 z" />
      </g>
    </g>
    <clipPath id="clip40">
      <path id="path360" d="M 0.0000 0.0000 L 0.0000 276.00 L 385.00 276.00 L 385.00 0.0000 z" />
    </clipPath>
    <g id="g362" clip-path="url(#clip40)">
      <g id="g364" stroke="#000000" stroke-opacity="1.0000" fill="none" stroke-linecap="butt">
        <path id="path366" d="M 161.40 81.593 L 164.40 81.593" />
      </g>
    </g>
    <clipPath id="clip41">
      <path id="path369" d="M 0.0000 0.0000 L 0.0000 276.00 L 385.00 276.00 L 385.00 0.0000 z" />
    </clipPath>
    <g id="g371" clip-path="url(#clip41)">
      <g id="g373" fill="#000000" stroke="none" fill-rule="nonzero" fill-opacity="1.0000">
        <path id="path375" d="M 153.02 52.946 L 153.02 52.048 Q 154.05 52.458 154.65 52.458 Q 155.33 52.458 155.77 52.055 Q 156.20 51.652 156.20 51.013 Q 156.20 49.489 154.07 49.489 L 153.68 49.489 L 153.68 48.840 L 154.02 48.835 Q 156.02 48.835 156.02 47.424 Q 156.02 46.315 154.71 46.315 Q 153.98 46.315 153.11 46.721 L 153.11 45.881 Q 153.97 45.593 154.77 45.593 Q 156.99 45.593 156.99 47.268 Q 156.99 48.542 155.48 49.084 Q 157.23 49.489 157.23 50.998 Q 157.23 52.019 156.56 52.600 Q 155.88 53.181 154.71 53.181 Q 154.04 53.181 153.02 52.946 z" />
      </g>
    </g>
    <clipPath id="clip42">
      <path id="path378" d="M 0.0000 0.0000 L 0.0000 276.00 L 385.00 276.00 L 385.00 0.0000 z" />
    </clipPath>
    <g id="g380" clip-path="url(#clip42)">
      <g id="g382" stroke="#000000" stroke-opacity="1.0000" fill="none" stroke-linecap="butt">
        <path id="path384" d="M 161.40 49.522 L 164.40 49.522" />
      </g>
    </g>
    <clipPath id="clip43">
      <path id="path387" d="M 0.0000 0.0000 L 0.0000 276.00 L 385.00 276.00 L 385.00 0.0000 z" />
    </clipPath>
    <g id="g389" clip-path="url(#clip43)">
      <g id="g391" fill="#000000" stroke="none" fill-rule="nonzero" fill-opacity="1.0000">
        <path id="path393" d="M 155.76 21.000 L 155.76 18.954 L 152.51 18.954 L 152.51 18.227 L 155.76 13.773 L 156.67 13.773 L 156.67 18.168 L 157.63 18.168 L 157.63 18.954 L 156.67 18.954 L 156.67 21.000 z M 153.46 18.168 L 155.83 18.168 L 155.83 14.955 z" />
      </g>
    </g>
    <clipPath id="clip44">
      <path id="path396" d="M 0.0000 0.0000 L 0.0000 276.00 L 385.00 276.00 L 385.00 0.0000 z" />
    </clipPath>
    <g id="g398" clip-path="url(#clip44)">
      <g id="g400" stroke="#000000" stroke-opacity="1.0000" fill="none" stroke-linecap="butt">
        <path id="path402" d="M 161.40 17.450 L 164.40 17.450" />
      </g>
    </g>
    <clipPath id="clip45">
      <path id="path405" d="M 0.0000 0.0000 L 0.0000 276.00 L 385.00 276.00 L 385.00 0.0000 z" />
    </clipPath>
    <g id="g407" clip-path="url(#clip45)">
      <g id="g409" stroke="#c0c0c0" stroke-opacity="1.0000" fill="none" stroke-linecap="round" stroke-linejoin="round">
        <path id="path411" d="M 36.115 0.0000 L 36.115 145.74" />
      </g>
    </g>
    <clipPath id="clip46">
      <path id="path414" d="M 0.0000 0.0000 L 0.0000 276.00 L 385.00 276.00 L 385.00 0.0000 z" />
    </clipPath>
    <g id="g416" clip-path="url(#clip46)">
      <g id="g418" stroke="#c0c0c0" stroke-opacity="1.0000" fill="none" stroke-linecap="round" stroke-linejoin="round">
        <path id="path420" d="M 36.115 164.74 L 36.115 276.00" />
      </g>
    </g>
    <clipPath id="clip47">
      <path id="path423" d="M 0.0000 0.0000 L 0.0000 276.00 L 385.00 276.00 L 385.00 0.0000 z" />
    </clipPath>
    <g id="g425" clip-path="url(#clip47)">
      <g id="g427" stroke="#c0c0c0" stroke-opacity="1.0000" fill="none" stroke-linecap="round" stroke-linejoin="round">
        <path id="path429" d="M 4.0433 0.0000 L 4.0433 276.00" />
      </g>
    </g>
    <clipPath id="clip48">
      <path id="path432" d="M 0.0000 0.0000 L 0.0000 276.00 L 385.00 276.00 L 385.00 0.0000 z" />
    </clipPath>
    <g id="g434" clip-path="url(#clip48)">
      <g id="g436" stroke="#c0c0c0" stroke-opacity="1.0000" fill="none" stroke-linecap="round" stroke-linejoin="round">
        <path id="path438" d="M 36.115 0.0000 L 36.115 145.74" />
      </g>
    </g>
    <clipPath id="clip49">
      <path id="path441" d="M 0.0000 0.0000 L 0.0000 276.00 L 385.00 276.00 L 385.00 0.0000 z" />
    </clipPath>
    <g id="g443" clip-path="url(#clip49)">
      <g id="g445" stroke="#c0c0c0" stroke-opacity="1.0000" fill="none" stroke-linecap="round" stroke-linejoin="round">
        <path id="path447" d="M 36.115 164.74 L 36.115 276.00" />
      </g>
    </g>
    <clipPath id="clip50">
      <path id="path450" d="M 0.0000 0.0000 L 0.0000 276.00 L 385.00 276.00 L 385.00 0.0000 z" />
    </clipPath>
    <g id="g452" clip-path="url(#clip50)">
      <g id="g454" stroke="#c0c0c0" stroke-opacity="1.0000" fill="none" stroke-linecap="round" stroke-linejoin="round">
        <path id="path456" d="M 68.187 0.0000 L 68.187 145.74" />
      </g>
    </g>
    <clipPath id="clip51">
      <path id="path459" d="M 0.0000 0.0000 L 0.0000 276.00 L 385.00 276.00 L 385.00 0.0000 z" />
    </clipPath>
    <g id="g461" clip-path="url(#clip51)">
      <g id="g463" stroke="#c0c0c0" stroke-opacity="1.0000" fill="none" stroke-linecap="round" stroke-linejoin="round">
        <path id="path465" d="M 68.187 164.74 L 68.187 276.00" />
      </g>
    </g>
    <clipPath id="clip52">
      <path id="path468" d="M 0.0000 0.0000 L 0.0000 276.00 L 385.00 276.00 L 385.00 0.0000 z" />
    </clipPath>
    <g id="g470" clip-path="url(#clip52)">
      <g id="g472" stroke="#c0c0c0" stroke-opacity="1.0000" fill="none" stroke-linecap="round" stroke-linejoin="round">
        <path id="path474" d="M 100.26 0.0000 L 100.26 145.74" />
      </g>
    </g>
    <clipPath id="clip53">
      <path id="path477" d="M 0.0000 0.0000 L 0.0000 276.00 L 385.00 276.00 L 385.00 0.0000 z" />
    </clipPath>
    <g id="g479" clip-path="url(#clip53)">
      <g id="g481" stroke="#c0c0c0" stroke-opacity="1.0000" fill="none" stroke-linecap="round" stroke-linejoin="round">
        <path id="path483" d="M 100.26 164.74 L 100.26 276.00" />
      </g>
    </g>
    <clipPath id="clip54">
      <path id="path486" d="M 0.0000 0.0000 L 0.0000 276.00 L 385.00 276.00 L 385.00 0.0000 z" />
    </clipPath>
    <g id="g488" clip-path="url(#clip54)">
      <g id="g490" stroke="#c0c0c0" stroke-opacity="1.0000" fill="none" stroke-linecap="round" stroke-linejoin="round">
        <path id="path492" d="M 132.33 0.0000 L 132.33 145.74" />
      </g>
    </g>
    <clipPath id="clip55">
      <path id="path495" d="M 0.0000 0.0000 L 0.0000 276.00 L 385.00 276.00 L 385.00 0.0000 z" />
    </clipPath>
    <g id="g497" clip-path="url(#clip55)">
      <g id="g499" stroke="#c0c0c0" stroke-opacity="1.0000" fill="none" stroke-linecap="round" stroke-linejoin="round">
        <path id="path501" d="M 132.33 164.74 L 132.33 276.00" />
      </g>
    </g>
    <clipPath id="clip56">
      <path id="path504" d="M 0.0000 0.0000 L 0.0000 276.00 L 385.00 276.00 L 385.00 0.0000 z" />
    </clipPath>
    <g id="g506" clip-path="url(#clip56)">
      <g id="g508" stroke="#c0c0c0" stroke-opacity="1.0000" fill="none" stroke-linecap="round" stroke-linejoin="round">
        <path id="path510" d="M 196.47 0.0000 L 196.47 145.74" />
      </g>
    </g>
    <clipPath id="clip57">
      <path id="path513" d="M 0.0000 0.0000 L 0.0000 276.00 L 385.00 276.00 L 385.00 0.0000 z" />
    </clipPath>
    <g id="g515" clip-path="url(#clip57)">
      <g id="g517" stroke="#c0c0c0" stroke-opacity="1.0000" fill="none" stroke-linecap="round" stroke-linejoin="round">
        <path id="path519" d="M 196.47 164.74 L 196.47 276.00" />
      </g>
    </g>
    <clipPath id="clip58">
      <path id="path522" d="M 0.0000 0.0000 L 0.0000 276.00 L 385.00 276.00 L 385.00 0.0000 z" />
    </clipPath>
    <g id="g524" clip-path="url(#clip58)">
      <g id="g526" stroke="#c0c0c0" stroke-opacity="1.0000" fill="none" stroke-linecap="round" stroke-linejoin="round">
        <path id="path528" d="M 228.55 0.0000 L 228.55 145.74" />
      </g>
    </g>
    <clipPath id="clip59">
      <path id="path531" d="M 0.0000 0.0000 L 0.0000 276.00 L 385.00 276.00 L 385.00 0.0000 z" />
    </clipPath>
    <g id="g533" clip-path="url(#clip59)">
      <g id="g535" stroke="#c0c0c0" stroke-opacity="1.0000" fill="none" stroke-linecap="round" stroke-linejoin="round">
        <path id="path537" d="M 228.55 164.74 L 228.55 276.00" />
      </g>
    </g>
    <clipPath id="clip60">
      <path id="path540" d="M 0.0000 0.0000 L 0.0000 276.00 L 385.00 276.00 L 385.00 0.0000 z" />
    </clipPath>
    <g id="g542" clip-path="url(#clip60)">
      <g id="g544" stroke="#c0c0c0" stroke-opacity="1.0000" fill="none" stroke-linecap="round" stroke-linejoin="round">
        <path id="path546" d="M 260.62 0.0000 L 260.62 145.74" />
      </g>
    </g>
    <clipPath id="clip61">
      <path id="path549" d="M 0.0000 0.0000 L 0.0000 276.00 L 385.00 276.00 L 385.00 0.0000 z" />
    </clipPath>
    <g id="g551" clip-path="url(#clip61)">
      <g id="g553" stroke="#c0c0c0" stroke-opacity="1.0000" fill="none" stroke-linecap="round" stroke-linejoin="round">
        <path id="path555" d="M 260.62 164.74 L 260.62 276.00" />
      </g>
    </g>
    <clipPath id="clip62">
      <path id="path558" d="M 0.0000 0.0000 L 0.0000 276.00 L 385.00 276.00 L 385.00 0.0000 z" />
    </clipPath>
    <g id="g560" clip-path="url(#clip62)">
      <g id="g562" stroke="#c0c0c0" stroke-opacity="1.0000" fill="none" stroke-linecap="round" stroke-linejoin="round">
        <path id="path564" d="M 292.69 0.0000 L 292.69 145.74" />
      </g>
    </g>
    <clipPath id="clip63">
      <path id="path567" d="M 0.0000 0.0000 L 0.0000 276.00 L 385.00 276.00 L 385.00 0.0000 z" />
    </clipPath>
    <g id="g569" clip-path="url(#clip63)">
      <g id="g571" stroke="#c0c0c0" stroke-opacity="1.0000" fill="none" stroke-linecap="round" stroke-linejoin="round">
        <path id="path573" d="M 292.69 164.74 L 292.69 276.00" />
      </g>
    </g>
    <clipPath id="clip64">
      <path id="path576" d="M 0.0000 0.0000 L 0.0000 276.00 L 385.00 276.00 L 385.00 0.0000 z" />
    </clipPath>
    <g id="g578" clip-path="url(#clip64)">
      <g id="g580" stroke="#c0c0c0" stroke-opacity="1.0000" fill="none" stroke-linecap="round" stroke-linejoin="round">
        <path id="path582" d="M 324.76 0.0000 L 324.76 145.74" />
      </g>
    </g>
    <clipPath id="clip65">
      <path id="path585" d="M 0.0000 0.0000 L 0.0000 276.00 L 385.00 276.00 L 385.00 0.0000 z" />
    </clipPath>
    <g id="g587" clip-path="url(#clip65)">
      <g id="g589" stroke="#c0c0c0" stroke-opacity="1.0000" fill="none" stroke-linecap="round" stroke-linejoin="round">
        <path id="path591" d="M 324.76 164.74 L 324.76 276.00" />
      </g>
    </g>
    <clipPath id="clip66">
      <path id="path594" d="M 0.0000 0.0000 L 0.0000 276.00 L 385.00 276.00 L 385.00 0.0000 z" />
    </clipPath>
    <g id="g596" clip-path="url(#clip66)">
      <g id="g598" stroke="#c0c0c0" stroke-opacity="1.0000" fill="none" stroke-linecap="round" stroke-linejoin="round">
        <path id="path600" d="M 356.83 0.0000 L 356.83 145.74" />
      </g>
    </g>
    <clipPath id="clip67">
      <path id="path603" d="M 0.0000 0.0000 L 0.0000 276.00 L 385.00 276.00 L 385.00 0.0000 z" />
    </clipPath>
    <g id="g605" clip-path="url(#clip67)">
      <g id="g607" stroke="#c0c0c0" stroke-opacity="1.0000" fill="none" stroke-linecap="round" stroke-linejoin="round">
        <path id="path609" d="M 356.83 164.74 L 356.83 276.00" />
      </g>
    </g>
    <clipPath id="clip68">
      <path id="path612" d="M 0.0000 0.0000 L 0.0000 276.00 L 385.00 276.00 L 385.00 0.0000 z" />
    </clipPath>
    <g id="g614" clip-path="url(#clip68)">
      <g id="g616" stroke="#c0c0c0" stroke-opacity="1.0000" fill="none" stroke-linecap="round" stroke-linejoin="round">
        <path id="path618" d="M 0.0000 17.450 L 148.08 17.450" />
      </g>
    </g>
    <clipPath id="clip69">
      <path id="path621" d="M 0.0000 0.0000 L 0.0000 276.00 L 385.00 276.00 L 385.00 0.0000 z" />
    </clipPath>
    <g id="g623" clip-path="url(#clip69)">
      <g id="g625" stroke="#c0c0c0" stroke-opacity="1.0000" fill="none" stroke-linecap="round" stroke-linejoin="round">
        <path id="path627" d="M 164.40 17.450 L 385.00 17.450" />
      </g>
    </g>
    <clipPath id="clip70">
      <path id="path630" d="M 0.0000 0.0000 L 0.0000 276.00 L 385.00 276.00 L 385.00 0.0000 z" />
    </clipPath>
    <g id="g632" clip-path="url(#clip70)">
      <g id="g634" stroke="#c0c0c0" stroke-opacity="1.0000" fill="none" stroke-linecap="round" stroke-linejoin="round">
        <path id="path636" d="M 0.0000 17.450 L 148.08 17.450" />
      </g>
    </g>
    <clipPath id="clip71">
      <path id="path639" d="M 0.0000 0.0000 L 0.0000 276.00 L 385.00 276.00 L 385.00 0.0000 z" />
    </clipPath>
    <g id="g641" clip-path="url(#clip71)">
      <g id="g643" stroke="#c0c0c0" stroke-opacity="1.0000" fill="none" stroke-linecap="round" stroke-linejoin="round">
        <path id="path645" d="M 164.40 17.450 L 385.00 17.450" />
      </g>
    </g>
    <clipPath id="clip72">
      <path id="path648" d="M 0.0000 0.0000 L 0.0000 276.00 L 385.00 276.00 L 385.00 0.0000 z" />
    </clipPath>
    <g id="g650" clip-path="url(#clip72)">
      <g id="g652" stroke="#c0c0c0" stroke-opacity="1.0000" fill="none" stroke-linecap="round" stroke-linejoin="round">
        <path id="path654" d="M 0.0000 49.522 L 148.08 49.522" />
      </g>
    </g>
    <clipPath id="clip73">
      <path id="path657" d="M 0.0000 0.0000 L 0.0000 276.00 L 385.00 276.00 L 385.00 0.0000 z" />
    </clipPath>
    <g id="g659" clip-path="url(#clip73)">
      <g id="g661" stroke="#c0c0c0" stroke-opacity="1.0000" fill="none" stroke-linecap="round" stroke-linejoin="round">
        <path id="path663" d="M 164.40 49.522 L 385.00 49.522" />
      </g>
    </g>
    <clipPath id="clip74">
      <path id="path666" d="M 0.0000 0.0000 L 0.0000 276.00 L 385.00 276.00 L 385.00 0.0000 z" />
    </clipPath>
    <g id="g668" clip-path="url(#clip74)">
      <g id="g670" stroke="#c0c0c0" stroke-opacity="1.0000" fill="none" stroke-linecap="round" stroke-linejoin="round">
        <path id="path672" d="M 0.0000 81.593 L 148.08 81.593" />
      </g>
    </g>
    <clipPath id="clip75">
      <path id="path675" d="M 0.0000 0.0000 L 0.0000 276.00 L 385.00 276.00 L 385.00 0.0000 z" />
    </clipPath>
    <g id="g677" clip-path="url(#clip75)">
      <g id="g679" stroke="#c0c0c0" stroke-opacity="1.0000" fill="none" stroke-linecap="round" stroke-linejoin="round">
        <path id="path681" d="M 164.40 81.593 L 385.00 81.593" />
      </g>
    </g>
    <clipPath id="clip76">
      <path id="path684" d="M 0.0000 0.0000 L 0.0000 276.00 L 385.00 276.00 L 385.00 0.0000 z" />
    </clipPath>
    <g id="g686" clip-path="url(#clip76)">
      <g id="g688" stroke="#c0c0c0" stroke-opacity="1.0000" fill="none" stroke-linecap="round" stroke-linejoin="round">
        <path id="path690" d="M 0.0000 113.67 L 148.08 113.67" />
      </g>
    </g>
    <clipPath id="clip77">
      <path id="path693" d="M 0.0000 0.0000 L 0.0000 276.00 L 385.00 276.00 L 385.00 0.0000 z" />
    </clipPath>
    <g id="g695" clip-path="url(#clip77)">
      <g id="g697" stroke="#c0c0c0" stroke-opacity="1.0000" fill="none" stroke-linecap="round" stroke-linejoin="round">
        <path id="path699" d="M 164.40 113.67 L 385.00 113.67" />
      </g>
    </g>
    <clipPath id="clip78">
      <path id="path702" d="M 0.0000 0.0000 L 0.0000 276.00 L 385.00 276.00 L 385.00 0.0000 z" />
    </clipPath>
    <g id="g704" clip-path="url(#clip78)">
      <g id="g706" stroke="#c0c0c0" stroke-opacity="1.0000" fill="none" stroke-linecap="round" stroke-linejoin="round">
        <path id="path708" d="M 0.0000 177.81 L 143.08 177.81" />
      </g>
    </g>
    <clipPath id="clip79">
      <path id="path711" d="M 0.0000 0.0000 L 0.0000 276.00 L 385.00 276.00 L 385.00 0.0000 z" />
    </clipPath>
    <g id="g713" clip-path="url(#clip79)">
      <g id="g715" stroke="#c0c0c0" stroke-opacity="1.0000" fill="none" stroke-linecap="round" stroke-linejoin="round">
        <path id="path717" d="M 164.40 177.81 L 385.00 177.81" />
      </g>
    </g>
    <clipPath id="clip80">
      <path id="path720" d="M 0.0000 0.0000 L 0.0000 276.00 L 385.00 276.00 L 385.00 0.0000 z" />
    </clipPath>
    <g id="g722" clip-path="url(#clip80)">
      <g id="g724" stroke="#c0c0c0" stroke-opacity="1.0000" fill="none" stroke-linecap="round" stroke-linejoin="round">
        <path id="path726" d="M 0.0000 209.88 L 143.08 209.88" />
      </g>
    </g>
    <clipPath id="clip81">
      <path id="path729" d="M 0.0000 0.0000 L 0.0000 276.00 L 385.00 276.00 L 385.00 0.0000 z" />
    </clipPath>
    <g id="g731" clip-path="url(#clip81)">
      <g id="g733" stroke="#c0c0c0" stroke-opacity="1.0000" fill="none" stroke-linecap="round" stroke-linejoin="round">
        <path id="path735" d="M 164.40 209.88 L 385.00 209.88" />
      </g>
    </g>
    <clipPath id="clip82">
      <path id="path738" d="M 0.0000 0.0000 L 0.0000 276.00 L 385.00 276.00 L 385.00 0.0000 z" />
    </clipPath>
    <g id="g740" clip-path="url(#clip82)">
      <g id="g742" stroke="#c0c0c0" stroke-opacity="1.0000" fill="none" stroke-linecap="round" stroke-linejoin="round">
        <path id="path744" d="M 0.0000 241.95 L 143.08 241.95" />
      </g>
    </g>
    <clipPath id="clip83">
      <path id="path747" d="M 0.0000 0.0000 L 0.0000 276.00 L 385.00 276.00 L 385.00 0.0000 z" />
    </clipPath>
    <g id="g749" clip-path="url(#clip83)">
      <g id="g751" stroke="#c0c0c0" stroke-opacity="1.0000" fill="none" stroke-linecap="round" stroke-linejoin="round">
        <path id="path753" d="M 164.40 241.95 L 385.00 241.95" />
      </g>
    </g>
    <clipPath id="clip84">
      <path id="path756" d="M 0.0000 0.0000 L 0.0000 276.00 L 385.00 276.00 L 385.00 0.0000 z" />
    </clipPath>
    <g id="g758" clip-path="url(#clip84)">
      <g id="g760" stroke="#c0c0c0" stroke-opacity="1.0000" fill="none" stroke-linecap="round" stroke-linejoin="round">
        <path id="path762" d="M 0.0000 274.02 L 385.00 274.02" />
      </g>
    </g>
    <g id="misc" />
    <g id="layer0">
      <clipPath id="clip85">
        <path id="path767" d="M 0.0000 0.0000 L 0.0000 276.00 L 385.00 276.00 L 385.00 0.0000 z" />
      </clipPath>
      <g id="g769" clip-path="url(#clip85)">
        <g id="g771" stroke="#0000ff" stroke-opacity="1.0000" fill="none" stroke-linecap="round" stroke-width="2.5000" stroke-linejoin="round">
          <path id="path773" d="M 0.0000 92.110 L 3.0078 101.12 L 6.0156 110.00 L 9.0234 118.46 L 12.031 126.18 L 15.039 132.90 L 18.047 138.38 L 21.055 142.43 L 22.559 143.88 L 24.062 144.91 L 24.814 145.28 L 25.566 145.54 L 26.318 145.69 L 27.070 145.74 L 27.822 145.68 L 28.574 145.51 L 29.326 145.25 L 30.078 144.87 L 31.582 143.81 L 33.086 142.35 L 36.094 138.26 L 39.102 132.74 L 42.109 126.00 L 45.117 118.25 L 48.125 109.79 L 51.133 100.89 L 54.141 91.887 L 57.148 83.081 L 60.156 74.786 L 63.164 67.292 L 66.172 60.862 L 69.180 55.722 L 72.188 52.051 L 72.939 51.380 L 73.691 50.810 L 75.195 49.980 L 75.947 49.722 L 76.699 49.569 L 77.451 49.522 L 78.203 49.580 L 78.955 49.744 L 79.707 50.014 L 81.211 50.866 L 81.963 51.447 L 82.715 52.129 L 84.219 53.792 L 87.227 58.256 L 90.234 64.101 L 93.242 71.122 L 96.250 79.073 L 99.258 87.675 L 102.27 96.626 L 105.27 105.61 L 108.28 114.32 L 111.29 122.44 L 114.30 129.69 L 117.30 135.82 L 120.31 140.60 L 121.82 142.44 L 123.32 143.88 L 124.82 144.92 L 125.58 145.28 L 126.33 145.54 L 127.08 145.69 L 127.83 145.74 L 128.58 145.68 L 129.34 145.51 L 130.09 145.24 L 130.84 144.87 L 132.34 143.81 L 133.85 142.34 L 135.35 140.49 L 138.36 135.66 L 141.37 129.50 L 144.38 122.22 L 147.38 114.08 L 150.39 105.36 L 153.40 96.370 L 156.41 87.424 L 159.41 78.837 L 162.42 70.908 L 165.43 63.917 L 168.44 58.109 L 171.45 53.687 L 172.95 52.046 L 174.45 50.806 L 175.21 50.340 L 175.96 49.978 L 176.71 49.721 L 177.46 49.568 L 178.21 49.522 L 178.96 49.581 L 179.72 49.746 L 180.47 50.016 L 181.97 50.870 L 182.72 51.451 L 183.48 52.134 L 186.48 55.848 L 189.49 61.027 L 192.50 67.491 L 195.51 75.012 L 198.52 83.326 L 201.52 92.141 L 204.53 101.15 L 207.54 110.03 L 210.55 118.48 L 213.55 126.20 L 216.56 132.92 L 219.57 138.40 L 222.58 142.44 L 224.08 143.89 L 225.59 144.92 L 226.34 145.28 L 227.09 145.54 L 227.84 145.69 L 228.59 145.74 L 229.35 145.68 L 230.10 145.51 L 230.85 145.24 L 231.60 144.87 L 233.11 143.81 L 234.61 142.34 L 237.62 138.24 L 240.62 132.72 L 243.63 125.97 L 246.64 118.22 L 249.65 109.76 L 252.66 100.86 L 255.66 91.856 L 258.67 83.051 L 261.68 74.758 L 264.69 67.267 L 267.70 60.842 L 270.70 55.706 L 273.71 52.041 L 274.46 51.371 L 275.21 50.803 L 276.72 49.976 L 277.47 49.719 L 278.22 49.568 L 278.97 49.522 L 279.73 49.582 L 280.48 49.747 L 281.23 50.018 L 282.73 50.873 L 283.49 51.455 L 284.24 52.139 L 285.74 53.805 L 288.75 58.274 L 291.76 64.123 L 294.77 71.148 L 297.77 79.102 L 300.78 87.705 L 303.79 96.657 L 306.80 105.64 L 309.80 114.35 L 312.81 122.47 L 315.82 129.71 L 318.83 135.83 L 321.84 140.62 L 323.34 142.45 L 324.84 143.89 L 326.35 144.92 L 327.10 145.28 L 327.85 145.54 L 328.60 145.69 L 329.36 145.74 L 330.11 145.68 L 330.86 145.51 L 331.61 145.24 L 332.36 144.86 L 333.87 143.80 L 335.37 142.33 L 336.88 140.47 L 339.88 135.64 L 342.89 129.47 L 345.90 122.19 L 348.91 114.05 L 351.91 105.33 L 354.92 96.338 L 357.93 87.394 L 360.94 78.808 L 363.95 70.882 L 366.95 63.895 L 369.96 58.091 L 372.97 53.674 L 374.47 52.036 L 375.98 50.799 L 376.73 50.335 L 377.48 49.974 L 378.23 49.718 L 378.98 49.567 L 379.74 49.522 L 380.49 49.583 L 381.24 49.749 L 381.99 50.021 L 383.50 50.877 L 384.25 51.460 L 385.00 52.144" />
          <title id="title775">Function f</title>
          <desc id="desc777">f(x) = 3sin(x - 2)Ã&#130;Â²</desc>
        </g>
      </g>
      <clipPath id="clip86">
        <path id="path780" d="M 0.0000 0.0000 L 0.0000 276.00 L 385.00 276.00 L 385.00 0.0000 z" />
      </clipPath>
      <g id="g782" clip-path="url(#clip86)">
        <g id="g784" stroke="#ff00ff" stroke-opacity="1.0000" fill="none" stroke-linecap="round" stroke-width="2.5000" stroke-linejoin="round">
          <path id="path786" d="M 0.0000 226.40 L 3.0078 232.44 L 6.0156 237.12 L 7.5195 238.89 L 9.0234 240.28 L 10.527 241.25 L 11.279 241.58 L 12.031 241.81 L 12.783 241.93 L 13.535 241.95 L 14.287 241.86 L 15.039 241.66 L 15.791 241.36 L 16.543 240.95 L 18.047 239.83 L 19.551 238.31 L 21.055 236.39 L 24.062 231.46 L 27.070 225.20 L 30.078 217.85 L 33.086 209.66 L 36.094 200.91 L 39.102 191.91 L 42.109 182.98 L 45.117 174.43 L 48.125 166.57 L 51.133 159.65 L 54.141 153.94 L 57.148 149.63 L 58.652 148.05 L 60.156 146.87 L 60.908 146.44 L 61.660 146.11 L 62.412 145.88 L 63.164 145.76 L 63.916 145.74 L 64.668 145.83 L 65.420 146.03 L 66.172 146.33 L 67.676 147.25 L 68.428 147.86 L 69.180 148.57 L 72.188 152.40 L 75.195 157.68 L 78.203 164.24 L 81.211 171.82 L 84.219 180.19 L 87.227 189.03 L 90.234 198.04 L 93.242 206.90 L 96.250 215.31 L 99.258 222.96 L 102.27 229.59 L 105.27 234.97 L 108.28 238.90 L 109.03 239.64 L 109.79 240.28 L 111.29 241.25 L 112.04 241.59 L 112.79 241.81 L 113.54 241.93 L 114.30 241.95 L 115.05 241.85 L 115.80 241.66 L 116.55 241.36 L 117.30 240.95 L 118.81 239.83 L 120.31 238.30 L 123.32 234.09 L 126.33 228.47 L 129.34 221.64 L 132.34 213.83 L 135.35 205.32 L 138.36 196.40 L 141.37 187.40 L 144.38 178.63 L 147.38 170.38 L 150.39 162.96 L 153.40 156.63 L 156.41 151.59 L 159.41 148.05 L 160.17 147.41 L 160.92 146.87 L 162.42 146.10 L 163.17 145.88 L 163.93 145.76 L 164.68 145.74 L 165.43 145.84 L 166.18 146.03 L 166.93 146.34 L 168.44 147.25 L 169.19 147.86 L 169.94 148.58 L 171.45 150.30 L 174.45 154.88 L 177.46 160.83 L 180.47 167.93 L 183.48 175.94 L 186.48 184.58 L 189.49 193.55 L 192.50 202.52 L 195.51 211.19 L 198.52 219.26 L 201.52 226.43 L 204.53 232.46 L 207.54 237.13 L 209.04 238.91 L 210.55 240.29 L 212.05 241.26 L 212.80 241.59 L 213.55 241.81 L 214.31 241.93 L 215.06 241.95 L 215.81 241.85 L 216.56 241.66 L 217.31 241.35 L 218.07 240.95 L 219.57 239.82 L 221.07 238.29 L 222.58 236.38 L 225.59 231.44 L 228.59 225.18 L 231.60 217.83 L 234.61 209.63 L 237.62 200.88 L 240.62 191.88 L 243.63 182.95 L 246.64 174.40 L 249.65 166.54 L 252.66 159.63 L 255.66 153.93 L 258.67 149.62 L 260.18 148.04 L 261.68 146.86 L 262.43 146.43 L 263.18 146.10 L 263.94 145.88 L 264.69 145.76 L 265.44 145.74 L 266.19 145.84 L 266.94 146.03 L 267.70 146.34 L 269.20 147.26 L 269.95 147.87 L 270.70 148.58 L 273.71 152.42 L 276.72 157.71 L 279.73 164.26 L 282.73 171.85 L 285.74 180.22 L 288.75 189.06 L 291.76 198.07 L 294.77 206.93 L 297.77 215.33 L 300.78 222.98 L 303.79 229.61 L 306.80 234.98 L 309.80 238.91 L 310.56 239.65 L 311.31 240.29 L 312.81 241.26 L 313.56 241.59 L 314.32 241.81 L 315.07 241.93 L 315.82 241.94 L 316.57 241.85 L 317.32 241.65 L 318.08 241.35 L 318.83 240.94 L 320.33 239.82 L 321.84 238.29 L 324.84 234.08 L 327.85 228.45 L 330.86 221.61 L 333.87 213.80 L 336.88 205.29 L 339.88 196.37 L 342.89 187.37 L 345.90 178.60 L 348.91 170.35 L 351.91 162.94 L 354.92 156.61 L 357.93 151.58 L 360.94 148.04 L 361.69 147.40 L 362.44 146.86 L 363.95 146.10 L 364.70 145.88 L 365.45 145.76 L 366.20 145.74 L 366.95 145.84 L 367.71 146.04 L 368.46 146.34 L 369.96 147.26 L 370.71 147.87 L 371.46 148.59 L 372.97 150.32 L 375.98 154.90 L 378.98 160.85 L 381.99 167.96 L 385.00 175.97" />
          <title id="title788">Function g</title>
          <desc id="desc790">g(x) = -3sin(x)Ã&#130;Â²</desc>
        </g>
      </g>
    </g>
  </g>
</svg>