<?xml version='1.0' ?><svg xmlns:dc="http://purl.org/dc/elements/1.1/" xmlns:cc="http://creativecommons.org/ns#" xmlns:rdf="http://www.w3.org/1999/02/22-rdf-syntax-ns#" xmlns:svg="http://www.w3.org/2000/svg" xmlns="http://www.w3.org/2000/svg" id="svg2" version="1.1" width="373.75" height="272.17678" viewBox="0.0 0.16387587844816054 378.99999999999994 275.9999989832776" preserveAspectRatio="none">
  <metadata id="metadata760">
    <rdf:RDF>
      <cc:Work rdf:about="">
        <dc:format>image/svg+xml</dc:format>
        <dc:type rdf:resource="http://purl.org/dc/dcmitype/StillImage" />
      </cc:Work>
    </rdf:RDF>
  </metadata>
  <defs id="defs758" />
  <title id="title4" />
  <g id="g6" stroke-linecap="square" stroke-miterlimit="10.000" stroke-width="1.0000" stroke-dasharray="none" stroke-dashoffset="0.0000" stroke-linejoin="miter">
    <clipPath id="clip1">
      <path id="path9" d="M 0.0000 0.0000 L 0.0000 276.00 L 379.00 276.00 L 379.00 0.0000 z" />
    </clipPath>
    <g id="g11" clip-path="url(#clip1)">
      <g id="g13" stroke="#000000" stroke-opacity="1.0000" fill="none" stroke-linecap="butt">
        <path id="path15" d="M 190.57 2.0000 L 190.57 276.00" />
      </g>
    </g>
    <clipPath id="clip2">
      <path id="path18" d="M 0.0000 0.0000 L 0.0000 276.00 L 379.00 276.00 L 379.00 0.0000 z" />
    </clipPath>
    <g id="g20" clip-path="url(#clip2)">
      <g id="g22" stroke="#000000" stroke-opacity="1.0000" fill="none" stroke-linecap="butt">
        <path id="path24" d="M 190.57 1.0000 L 187.57 4.0000" />
      </g>
    </g>
    <clipPath id="clip3">
      <path id="path27" d="M 0.0000 0.0000 L 0.0000 276.00 L 379.00 276.00 L 379.00 0.0000 z" />
    </clipPath>
    <g id="g29" clip-path="url(#clip3)">
      <g id="g31" stroke="#000000" stroke-opacity="1.0000" fill="none" stroke-linecap="butt">
        <path id="path33" d="M 190.57 1.0000 L 193.57 4.0000" />
      </g>
    </g>
    <clipPath id="clip4">
      <path id="path36" d="M 0.0000 0.0000 L 0.0000 276.00 L 379.00 276.00 L 379.00 0.0000 z" />
    </clipPath>
    <g id="g38" clip-path="url(#clip4)">
      <g id="g40" stroke="#000000" stroke-opacity="1.0000" fill="none" stroke-linecap="butt">
        <path id="path42" d="M 0.0000 171.24 L 377.00 171.24" />
      </g>
    </g>
    <clipPath id="clip5">
      <path id="path45" d="M 0.0000 0.0000 L 0.0000 276.00 L 379.00 276.00 L 379.00 0.0000 z" />
    </clipPath>
    <g id="g47" clip-path="url(#clip5)">
      <g id="g49" stroke="#000000" stroke-opacity="1.0000" fill="none" stroke-linecap="butt">
        <path id="path51" d="M 378.00 171.24 L 375.00 168.24" />
      </g>
    </g>
    <clipPath id="clip6">
      <path id="path54" d="M 0.0000 0.0000 L 0.0000 276.00 L 379.00 276.00 L 379.00 0.0000 z" />
    </clipPath>
    <g id="g56" clip-path="url(#clip6)">
      <g id="g58" stroke="#000000" stroke-opacity="1.0000" fill="none" stroke-linecap="butt">
        <path id="path60" d="M 378.00 171.24 L 375.00 174.24" />
      </g>
    </g>
    <clipPath id="clip7">
      <path id="path63" d="M 0.0000 0.0000 L 0.0000 276.00 L 379.00 276.00 L 379.00 0.0000 z" />
    </clipPath>
    <g id="g65" clip-path="url(#clip7)">
      <g id="g67" fill="#000000" stroke="none" fill-rule="nonzero" fill-opacity="1.0000">
        <path id="path69" d="M 41.513 182.35 L 41.513 181.68 L 45.487 181.68 L 45.487 182.35 z M 47.016 184.95 L 47.016 184.05 Q 48.051 184.46 48.646 184.46 Q 49.335 184.46 49.767 184.06 Q 50.199 183.65 50.199 183.01 Q 50.199 181.49 48.065 181.49 L 47.685 181.49 L 47.685 180.84 L 48.021 180.83 Q 50.023 180.83 50.023 179.42 Q 50.023 178.32 48.705 178.32 Q 47.982 178.32 47.113 178.72 L 47.113 177.88 Q 47.968 177.59 48.773 177.59 Q 50.990 177.59 50.990 179.27 Q 50.990 180.54 49.481 181.08 Q 51.229 181.49 51.229 183.00 Q 51.229 184.02 50.556 184.60 Q 49.882 185.18 48.705 185.18 Q 48.036 185.18 47.016 184.95 z" />
      </g>
    </g>
    <clipPath id="clip8">
      <path id="path72" d="M 0.0000 0.0000 L 0.0000 276.00 L 379.00 276.00 L 379.00 0.0000 z" />
    </clipPath>
    <g id="g74" clip-path="url(#clip8)">
      <g id="g76" stroke="#000000" stroke-opacity="1.0000" fill="none" stroke-linecap="butt">
        <path id="path78" d="M 45.571 171.24 L 45.571 174.24" />
      </g>
    </g>
    <clipPath id="clip9">
      <path id="path81" d="M 0.0000 0.0000 L 0.0000 276.00 L 379.00 276.00 L 379.00 0.0000 z" />
    </clipPath>
    <g id="g83" clip-path="url(#clip9)">
      <g id="g85" fill="#000000" stroke="none" fill-rule="nonzero" fill-opacity="1.0000">
        <path id="path87" d="M 89.513 182.35 L 89.513 181.68 L 93.487 181.68 L 93.487 182.35 z M 94.830 185.00 L 94.830 184.16 Q 95.250 183.17 96.529 182.02 L 97.081 181.52 Q 98.146 180.56 98.146 179.61 Q 98.146 179.01 97.782 178.66 Q 97.418 178.32 96.783 178.32 Q 96.031 178.32 95.011 178.90 L 95.011 178.05 Q 95.973 177.59 96.920 177.59 Q 97.936 177.59 98.551 178.14 Q 99.166 178.69 99.166 179.59 Q 99.166 180.24 98.856 180.74 Q 98.546 181.25 97.701 181.96 L 97.330 182.28 Q 96.173 183.26 95.992 184.16 L 99.132 184.16 L 99.132 185.00 z" />
      </g>
    </g>
    <clipPath id="clip10">
      <path id="path90" d="M 0.0000 0.0000 L 0.0000 276.00 L 379.00 276.00 L 379.00 0.0000 z" />
    </clipPath>
    <g id="g92" clip-path="url(#clip10)">
      <g id="g94" stroke="#000000" stroke-opacity="1.0000" fill="none" stroke-linecap="butt">
        <path id="path96" d="M 93.903 171.24 L 93.903 174.24" />
      </g>
    </g>
    <clipPath id="clip11">
      <path id="path99" d="M 0.0000 0.0000 L 0.0000 276.00 L 379.00 276.00 L 379.00 0.0000 z" />
    </clipPath>
    <g id="g101" clip-path="url(#clip11)">
      <g id="g103" fill="#000000" stroke="none" fill-rule="nonzero" fill-opacity="1.0000">
        <path id="path105" d="M 138.51 182.35 L 138.51 181.68 L 142.49 181.68 L 142.49 182.35 z M 144.50 185.00 L 144.50 184.28 L 145.95 184.28 L 145.95 178.57 L 144.50 178.94 L 144.50 178.19 L 146.92 177.59 L 146.92 184.28 L 148.36 184.28 L 148.36 185.00 z" />
      </g>
    </g>
    <clipPath id="clip12">
      <path id="path108" d="M 0.0000 0.0000 L 0.0000 276.00 L 379.00 276.00 L 379.00 0.0000 z" />
    </clipPath>
    <g id="g110" clip-path="url(#clip12)">
      <g id="g112" stroke="#000000" stroke-opacity="1.0000" fill="none" stroke-linecap="butt">
        <path id="path114" d="M 142.24 171.24 L 142.24 174.24" />
      </g>
    </g>
    <clipPath id="clip13">
      <path id="path117" d="M 0.0000 0.0000 L 0.0000 276.00 L 379.00 276.00 L 379.00 0.0000 z" />
    </clipPath>
    <g id="g119" clip-path="url(#clip13)">
      <g id="g121" fill="#000000" stroke="none" fill-rule="nonzero" fill-opacity="1.0000">
        <path id="path123" d="M 199.13 185.18 Q 198.02 185.18 197.33 184.13 Q 196.63 183.08 196.63 181.38 Q 196.63 179.67 197.33 178.63 Q 198.03 177.59 199.16 177.59 Q 200.30 177.59 201.00 178.63 Q 201.69 179.67 201.69 181.37 Q 201.69 183.11 201.00 184.14 Q 200.30 185.18 199.13 185.18 z M 199.14 184.46 Q 200.67 184.46 200.67 181.35 Q 200.67 178.32 199.16 178.32 Q 197.66 178.32 197.66 181.38 Q 197.66 184.46 199.14 184.46 z" />
      </g>
    </g>
    <clipPath id="clip14">
      <path id="path126" d="M 0.0000 0.0000 L 0.0000 276.00 L 379.00 276.00 L 379.00 0.0000 z" />
    </clipPath>
    <g id="g128" clip-path="url(#clip14)">
      <g id="g130" fill="#000000" stroke="none" fill-rule="nonzero" fill-opacity="1.0000">
        <path id="path132" d="M 238.50 185.00 L 238.50 184.28 L 239.95 184.28 L 239.95 178.57 L 238.50 178.94 L 238.50 178.19 L 240.92 177.59 L 240.92 184.28 L 242.36 184.28 L 242.36 185.00 z" />
      </g>
    </g>
    <clipPath id="clip15">
      <path id="path135" d="M 0.0000 0.0000 L 0.0000 276.00 L 379.00 276.00 L 379.00 0.0000 z" />
    </clipPath>
    <g id="g137" clip-path="url(#clip15)">
      <g id="g139" stroke="#000000" stroke-opacity="1.0000" fill="none" stroke-linecap="butt">
        <path id="path141" d="M 238.90 171.24 L 238.90 174.24" />
      </g>
    </g>
    <clipPath id="clip16">
      <path id="path144" d="M 0.0000 0.0000 L 0.0000 276.00 L 379.00 276.00 L 379.00 0.0000 z" />
    </clipPath>
    <g id="g146" clip-path="url(#clip16)">
      <g id="g148" fill="#000000" stroke="none" fill-rule="nonzero" fill-opacity="1.0000">
        <path id="path150" d="M 285.83 185.00 L 285.83 184.16 Q 286.25 183.17 287.53 182.02 L 288.08 181.52 Q 289.15 180.56 289.15 179.61 Q 289.15 179.01 288.78 178.66 Q 288.42 178.32 287.78 178.32 Q 287.03 178.32 286.01 178.90 L 286.01 178.05 Q 286.97 177.59 287.92 177.59 Q 288.94 177.59 289.55 178.14 Q 290.17 178.69 290.17 179.59 Q 290.17 180.24 289.86 180.74 Q 289.55 181.25 288.70 181.96 L 288.33 182.28 Q 287.17 183.26 286.99 184.16 L 290.13 184.16 L 290.13 185.00 z" />
      </g>
    </g>
    <clipPath id="clip17">
      <path id="path153" d="M 0.0000 0.0000 L 0.0000 276.00 L 379.00 276.00 L 379.00 0.0000 z" />
    </clipPath>
    <g id="g155" clip-path="url(#clip17)">
      <g id="g157" stroke="#000000" stroke-opacity="1.0000" fill="none" stroke-linecap="butt">
        <path id="path159" d="M 287.23 171.24 L 287.23 174.24" />
      </g>
    </g>
    <clipPath id="clip18">
      <path id="path162" d="M 0.0000 0.0000 L 0.0000 276.00 L 379.00 276.00 L 379.00 0.0000 z" />
    </clipPath>
    <g id="g164" clip-path="url(#clip18)">
      <g id="g166" fill="#000000" stroke="none" fill-rule="nonzero" fill-opacity="1.0000">
        <path id="path168" d="M 335.02 184.95 L 335.02 184.05 Q 336.05 184.46 336.65 184.46 Q 337.33 184.46 337.77 184.06 Q 338.20 183.65 338.20 183.01 Q 338.20 181.49 336.07 181.49 L 335.68 181.49 L 335.68 180.84 L 336.02 180.83 Q 338.02 180.83 338.02 179.42 Q 338.02 178.32 336.71 178.32 Q 335.98 178.32 335.11 178.72 L 335.11 177.88 Q 335.97 177.59 336.77 177.59 Q 338.99 177.59 338.99 179.27 Q 338.99 180.54 337.48 181.08 Q 339.23 181.49 339.23 183.00 Q 339.23 184.02 338.56 184.60 Q 337.88 185.18 336.71 185.18 Q 336.04 185.18 335.02 184.95 z" />
      </g>
    </g>
    <clipPath id="clip19">
      <path id="path171" d="M 0.0000 0.0000 L 0.0000 276.00 L 379.00 276.00 L 379.00 0.0000 z" />
    </clipPath>
    <g id="g173" clip-path="url(#clip19)">
      <g id="g175" stroke="#000000" stroke-opacity="1.0000" fill="none" stroke-linecap="butt">
        <path id="path177" d="M 335.56 171.24 L 335.56 174.24" />
      </g>
    </g>
    <clipPath id="clip20">
      <path id="path180" d="M 0.0000 0.0000 L 0.0000 276.00 L 379.00 276.00 L 379.00 0.0000 z" />
    </clipPath>
    <g id="g182" clip-path="url(#clip20)">
      <g id="g184" stroke="#000000" stroke-opacity="1.0000" fill="none" stroke-linecap="butt">
        <path id="path186" d="M 187.57 267.91 L 190.57 267.91" />
      </g>
    </g>
    <clipPath id="clip21">
      <path id="path189" d="M 0.0000 0.0000 L 0.0000 276.00 L 379.00 276.00 L 379.00 0.0000 z" />
    </clipPath>
    <g id="g191" clip-path="url(#clip21)">
      <g id="g193" fill="#000000" stroke="none" fill-rule="nonzero" fill-opacity="1.0000">
        <path id="path195" d="M 173.51 220.35 L 173.51 219.68 L 177.49 219.68 L 177.49 220.35 z M 179.50 223.00 L 179.50 222.28 L 180.95 222.28 L 180.95 216.57 L 179.50 216.94 L 179.50 216.19 L 181.92 215.59 L 181.92 222.28 L 183.36 222.28 L 183.36 223.00 z" />
      </g>
    </g>
    <clipPath id="clip22">
      <path id="path198" d="M 0.0000 0.0000 L 0.0000 276.00 L 379.00 276.00 L 379.00 0.0000 z" />
    </clipPath>
    <g id="g200" clip-path="url(#clip22)">
      <g id="g202" stroke="#000000" stroke-opacity="1.0000" fill="none" stroke-linecap="butt">
        <path id="path204" d="M 187.57 219.57 L 190.57 219.57" />
      </g>
    </g>
    <clipPath id="clip23">
      <path id="path207" d="M 0.0000 0.0000 L 0.0000 276.00 L 379.00 276.00 L 379.00 0.0000 z" />
    </clipPath>
    <g id="g209" clip-path="url(#clip23)">
      <g id="g211" fill="#000000" stroke="none" fill-rule="nonzero" fill-opacity="1.0000">
        <path id="path213" d="M 181.13 169.18 Q 180.02 169.18 179.33 168.13 Q 178.63 167.08 178.63 165.38 Q 178.63 163.67 179.33 162.63 Q 180.03 161.59 181.16 161.59 Q 182.30 161.59 183.00 162.63 Q 183.69 163.67 183.69 165.37 Q 183.69 167.11 183.00 168.14 Q 182.30 169.18 181.13 169.18 z M 181.14 168.46 Q 182.67 168.46 182.67 165.35 Q 182.67 162.32 181.16 162.32 Q 179.66 162.32 179.66 165.38 Q 179.66 168.46 181.14 168.46 z" />
      </g>
    </g>
    <clipPath id="clip24">
      <path id="path216" d="M 0.0000 0.0000 L 0.0000 276.00 L 379.00 276.00 L 379.00 0.0000 z" />
    </clipPath>
    <g id="g218" clip-path="url(#clip24)">
      <g id="g220" fill="#000000" stroke="none" fill-rule="nonzero" fill-opacity="1.0000">
        <path id="path222" d="M 179.50 126.00 L 179.50 125.28 L 180.95 125.28 L 180.95 119.57 L 179.50 119.94 L 179.50 119.19 L 181.92 118.59 L 181.92 125.28 L 183.36 125.28 L 183.36 126.00 z" />
      </g>
    </g>
    <clipPath id="clip25">
      <path id="path225" d="M 0.0000 0.0000 L 0.0000 276.00 L 379.00 276.00 L 379.00 0.0000 z" />
    </clipPath>
    <g id="g227" clip-path="url(#clip25)">
      <g id="g229" stroke="#000000" stroke-opacity="1.0000" fill="none" stroke-linecap="butt">
        <path id="path231" d="M 187.57 122.91 L 190.57 122.91" />
      </g>
    </g>
    <clipPath id="clip26">
      <path id="path234" d="M 0.0000 0.0000 L 0.0000 276.00 L 379.00 276.00 L 379.00 0.0000 z" />
    </clipPath>
    <g id="g236" clip-path="url(#clip26)">
      <g id="g238" fill="#000000" stroke="none" fill-rule="nonzero" fill-opacity="1.0000">
        <path id="path240" d="M 178.83 78.000 L 178.83 77.155 Q 179.25 76.174 180.53 75.017 L 181.08 74.523 Q 182.15 73.562 182.15 72.614 Q 182.15 72.009 181.78 71.662 Q 181.42 71.315 180.78 71.315 Q 180.03 71.315 179.01 71.896 L 179.01 71.047 Q 179.97 70.593 180.92 70.593 Q 181.94 70.593 182.55 71.140 Q 183.17 71.687 183.17 72.590 Q 183.17 73.239 182.86 73.742 Q 182.55 74.245 181.70 74.963 L 181.33 75.280 Q 180.17 76.262 179.99 77.155 L 183.13 77.155 L 183.13 78.000 z" />
      </g>
    </g>
    <clipPath id="clip27">
      <path id="path243" d="M 0.0000 0.0000 L 0.0000 276.00 L 379.00 276.00 L 379.00 0.0000 z" />
    </clipPath>
    <g id="g245" clip-path="url(#clip27)">
      <g id="g247" stroke="#000000" stroke-opacity="1.0000" fill="none" stroke-linecap="butt">
        <path id="path249" d="M 187.57 74.576 L 190.57 74.576" />
      </g>
    </g>
    <clipPath id="clip28">
      <path id="path252" d="M 0.0000 0.0000 L 0.0000 276.00 L 379.00 276.00 L 379.00 0.0000 z" />
    </clipPath>
    <g id="g254" clip-path="url(#clip28)">
      <g id="g256" fill="#000000" stroke="none" fill-rule="nonzero" fill-opacity="1.0000">
        <path id="path258" d="M 179.02 29.946 L 179.02 29.048 Q 180.05 29.458 180.65 29.458 Q 181.33 29.458 181.77 29.055 Q 182.20 28.652 182.20 28.013 Q 182.20 26.489 180.07 26.489 L 179.68 26.489 L 179.68 25.840 L 180.02 25.835 Q 182.02 25.835 182.02 24.424 Q 182.02 23.315 180.71 23.315 Q 179.98 23.315 179.11 23.721 L 179.11 22.881 Q 179.97 22.593 180.77 22.593 Q 182.99 22.593 182.99 24.268 Q 182.99 25.542 181.48 26.084 Q 183.23 26.489 183.23 27.998 Q 183.23 29.019 182.56 29.600 Q 181.88 30.181 180.71 30.181 Q 180.04 30.181 179.02 29.946 z" />
      </g>
    </g>
    <clipPath id="clip29">
      <path id="path261" d="M 0.0000 0.0000 L 0.0000 276.00 L 379.00 276.00 L 379.00 0.0000 z" />
    </clipPath>
    <g id="g263" clip-path="url(#clip29)">
      <g id="g265" stroke="#000000" stroke-opacity="1.0000" fill="none" stroke-linecap="butt">
        <path id="path267" d="M 187.57 26.244 L 190.57 26.244" />
      </g>
    </g>
    <clipPath id="clip30">
      <path id="path270" d="M 0.0000 0.0000 L 0.0000 276.00 L 379.00 276.00 L 379.00 0.0000 z" />
    </clipPath>
    <g id="g272" clip-path="url(#clip30)">
      <g id="g274" stroke="#c0c0c0" stroke-opacity="1.0000" fill="none" stroke-linecap="round" stroke-linejoin="round">
        <path id="path276" d="M 45.571 0.0000 L 45.571 171.24" />
      </g>
    </g>
    <clipPath id="clip31">
      <path id="path279" d="M 0.0000 0.0000 L 0.0000 276.00 L 379.00 276.00 L 379.00 0.0000 z" />
    </clipPath>
    <g id="g281" clip-path="url(#clip31)">
      <g id="g283" stroke="#c0c0c0" stroke-opacity="1.0000" fill="none" stroke-linecap="round" stroke-linejoin="round">
        <path id="path285" d="M 45.571 190.24 L 45.571 276.00" />
      </g>
    </g>
    <clipPath id="clip32">
      <path id="path288" d="M 0.0000 0.0000 L 0.0000 276.00 L 379.00 276.00 L 379.00 0.0000 z" />
    </clipPath>
    <g id="g290" clip-path="url(#clip32)">
      <g id="g292" stroke="#c0c0c0" stroke-opacity="1.0000" fill="none" stroke-linecap="round" stroke-linejoin="round">
        <path id="path294" d="M 45.571 0.0000 L 45.571 171.24" />
      </g>
    </g>
    <clipPath id="clip33">
      <path id="path297" d="M 0.0000 0.0000 L 0.0000 276.00 L 379.00 276.00 L 379.00 0.0000 z" />
    </clipPath>
    <g id="g299" clip-path="url(#clip33)">
      <g id="g301" stroke="#c0c0c0" stroke-opacity="1.0000" fill="none" stroke-linecap="round" stroke-linejoin="round">
        <path id="path303" d="M 45.571 190.24 L 45.571 276.00" />
      </g>
    </g>
    <clipPath id="clip34">
      <path id="path306" d="M 0.0000 0.0000 L 0.0000 276.00 L 379.00 276.00 L 379.00 0.0000 z" />
    </clipPath>
    <g id="g308" clip-path="url(#clip34)">
      <g id="g310" stroke="#c0c0c0" stroke-opacity="1.0000" fill="none" stroke-linecap="round" stroke-linejoin="round">
        <path id="path312" d="M 93.903 0.0000 L 93.903 171.24" />
      </g>
    </g>
    <clipPath id="clip35">
      <path id="path315" d="M 0.0000 0.0000 L 0.0000 276.00 L 379.00 276.00 L 379.00 0.0000 z" />
    </clipPath>
    <g id="g317" clip-path="url(#clip35)">
      <g id="g319" stroke="#c0c0c0" stroke-opacity="1.0000" fill="none" stroke-linecap="round" stroke-linejoin="round">
        <path id="path321" d="M 93.903 190.24 L 93.903 276.00" />
      </g>
    </g>
    <clipPath id="clip36">
      <path id="path324" d="M 0.0000 0.0000 L 0.0000 276.00 L 379.00 276.00 L 379.00 0.0000 z" />
    </clipPath>
    <g id="g326" clip-path="url(#clip36)">
      <g id="g328" stroke="#c0c0c0" stroke-opacity="1.0000" fill="none" stroke-linecap="round" stroke-linejoin="round">
        <path id="path330" d="M 142.24 0.0000 L 142.24 171.24" />
      </g>
    </g>
    <clipPath id="clip37">
      <path id="path333" d="M 0.0000 0.0000 L 0.0000 276.00 L 379.00 276.00 L 379.00 0.0000 z" />
    </clipPath>
    <g id="g335" clip-path="url(#clip37)">
      <g id="g337" stroke="#c0c0c0" stroke-opacity="1.0000" fill="none" stroke-linecap="round" stroke-linejoin="round">
        <path id="path339" d="M 142.24 190.24 L 142.24 276.00" />
      </g>
    </g>
    <clipPath id="clip38">
      <path id="path342" d="M 0.0000 0.0000 L 0.0000 276.00 L 379.00 276.00 L 379.00 0.0000 z" />
    </clipPath>
    <g id="g344" clip-path="url(#clip38)">
      <g id="g346" stroke="#c0c0c0" stroke-opacity="1.0000" fill="none" stroke-linecap="round" stroke-linejoin="round">
        <path id="path348" d="M 238.90 0.0000 L 238.90 171.24" />
      </g>
    </g>
    <clipPath id="clip39">
      <path id="path351" d="M 0.0000 0.0000 L 0.0000 276.00 L 379.00 276.00 L 379.00 0.0000 z" />
    </clipPath>
    <g id="g353" clip-path="url(#clip39)">
      <g id="g355" stroke="#c0c0c0" stroke-opacity="1.0000" fill="none" stroke-linecap="round" stroke-linejoin="round">
        <path id="path357" d="M 238.90 190.24 L 238.90 276.00" />
      </g>
    </g>
    <clipPath id="clip40">
      <path id="path360" d="M 0.0000 0.0000 L 0.0000 276.00 L 379.00 276.00 L 379.00 0.0000 z" />
    </clipPath>
    <g id="g362" clip-path="url(#clip40)">
      <g id="g364" stroke="#c0c0c0" stroke-opacity="1.0000" fill="none" stroke-linecap="round" stroke-linejoin="round">
        <path id="path366" d="M 287.23 0.0000 L 287.23 171.24" />
      </g>
    </g>
    <clipPath id="clip41">
      <path id="path369" d="M 0.0000 0.0000 L 0.0000 276.00 L 379.00 276.00 L 379.00 0.0000 z" />
    </clipPath>
    <g id="g371" clip-path="url(#clip41)">
      <g id="g373" stroke="#c0c0c0" stroke-opacity="1.0000" fill="none" stroke-linecap="round" stroke-linejoin="round">
        <path id="path375" d="M 287.23 190.24 L 287.23 276.00" />
      </g>
    </g>
    <clipPath id="clip42">
      <path id="path378" d="M 0.0000 0.0000 L 0.0000 276.00 L 379.00 276.00 L 379.00 0.0000 z" />
    </clipPath>
    <g id="g380" clip-path="url(#clip42)">
      <g id="g382" stroke="#c0c0c0" stroke-opacity="1.0000" fill="none" stroke-linecap="round" stroke-linejoin="round">
        <path id="path384" d="M 335.56 0.0000 L 335.56 171.24" />
      </g>
    </g>
    <clipPath id="clip43">
      <path id="path387" d="M 0.0000 0.0000 L 0.0000 276.00 L 379.00 276.00 L 379.00 0.0000 z" />
    </clipPath>
    <g id="g389" clip-path="url(#clip43)">
      <g id="g391" stroke="#c0c0c0" stroke-opacity="1.0000" fill="none" stroke-linecap="round" stroke-linejoin="round">
        <path id="path393" d="M 335.56 190.24 L 335.56 276.00" />
      </g>
    </g>
    <clipPath id="clip44">
      <path id="path396" d="M 0.0000 0.0000 L 0.0000 276.00 L 379.00 276.00 L 379.00 0.0000 z" />
    </clipPath>
    <g id="g398" clip-path="url(#clip44)">
      <g id="g400" stroke="#c0c0c0" stroke-opacity="1.0000" fill="none" stroke-linecap="round" stroke-linejoin="round">
        <path id="path402" d="M 0.0000 26.244 L 174.24 26.244" />
      </g>
    </g>
    <clipPath id="clip45">
      <path id="path405" d="M 0.0000 0.0000 L 0.0000 276.00 L 379.00 276.00 L 379.00 0.0000 z" />
    </clipPath>
    <g id="g407" clip-path="url(#clip45)">
      <g id="g409" stroke="#c0c0c0" stroke-opacity="1.0000" fill="none" stroke-linecap="round" stroke-linejoin="round">
        <path id="path411" d="M 190.57 26.244 L 379.00 26.244" />
      </g>
    </g>
    <clipPath id="clip46">
      <path id="path414" d="M 0.0000 0.0000 L 0.0000 276.00 L 379.00 276.00 L 379.00 0.0000 z" />
    </clipPath>
    <g id="g416" clip-path="url(#clip46)">
      <g id="g418" stroke="#c0c0c0" stroke-opacity="1.0000" fill="none" stroke-linecap="round" stroke-linejoin="round">
        <path id="path420" d="M 0.0000 26.244 L 174.24 26.244" />
      </g>
    </g>
    <clipPath id="clip47">
      <path id="path423" d="M 0.0000 0.0000 L 0.0000 276.00 L 379.00 276.00 L 379.00 0.0000 z" />
    </clipPath>
    <g id="g425" clip-path="url(#clip47)">
      <g id="g427" stroke="#c0c0c0" stroke-opacity="1.0000" fill="none" stroke-linecap="round" stroke-linejoin="round">
        <path id="path429" d="M 190.57 26.244 L 379.00 26.244" />
      </g>
    </g>
    <clipPath id="clip48">
      <path id="path432" d="M 0.0000 0.0000 L 0.0000 276.00 L 379.00 276.00 L 379.00 0.0000 z" />
    </clipPath>
    <g id="g434" clip-path="url(#clip48)">
      <g id="g436" stroke="#c0c0c0" stroke-opacity="1.0000" fill="none" stroke-linecap="round" stroke-linejoin="round">
        <path id="path438" d="M 0.0000 74.576 L 174.24 74.576" />
      </g>
    </g>
    <clipPath id="clip49">
      <path id="path441" d="M 0.0000 0.0000 L 0.0000 276.00 L 379.00 276.00 L 379.00 0.0000 z" />
    </clipPath>
    <g id="g443" clip-path="url(#clip49)">
      <g id="g445" stroke="#c0c0c0" stroke-opacity="1.0000" fill="none" stroke-linecap="round" stroke-linejoin="round">
        <path id="path447" d="M 190.57 74.576 L 379.00 74.576" />
      </g>
    </g>
    <clipPath id="clip50">
      <path id="path450" d="M 0.0000 0.0000 L 0.0000 276.00 L 379.00 276.00 L 379.00 0.0000 z" />
    </clipPath>
    <g id="g452" clip-path="url(#clip50)">
      <g id="g454" stroke="#c0c0c0" stroke-opacity="1.0000" fill="none" stroke-linecap="round" stroke-linejoin="round">
        <path id="path456" d="M 0.0000 122.91 L 174.24 122.91" />
      </g>
    </g>
    <clipPath id="clip51">
      <path id="path459" d="M 0.0000 0.0000 L 0.0000 276.00 L 379.00 276.00 L 379.00 0.0000 z" />
    </clipPath>
    <g id="g461" clip-path="url(#clip51)">
      <g id="g463" stroke="#c0c0c0" stroke-opacity="1.0000" fill="none" stroke-linecap="round" stroke-linejoin="round">
        <path id="path465" d="M 190.57 122.91 L 379.00 122.91" />
      </g>
    </g>
    <clipPath id="clip52">
      <path id="path468" d="M 0.0000 0.0000 L 0.0000 276.00 L 379.00 276.00 L 379.00 0.0000 z" />
    </clipPath>
    <g id="g470" clip-path="url(#clip52)">
      <g id="g472" stroke="#c0c0c0" stroke-opacity="1.0000" fill="none" stroke-linecap="round" stroke-linejoin="round">
        <path id="path474" d="M 0.0000 219.57 L 169.24 219.57" />
      </g>
    </g>
    <clipPath id="clip53">
      <path id="path477" d="M 0.0000 0.0000 L 0.0000 276.00 L 379.00 276.00 L 379.00 0.0000 z" />
    </clipPath>
    <g id="g479" clip-path="url(#clip53)">
      <g id="g481" stroke="#c0c0c0" stroke-opacity="1.0000" fill="none" stroke-linecap="round" stroke-linejoin="round">
        <path id="path483" d="M 190.57 219.57 L 379.00 219.57" />
      </g>
    </g>
    <clipPath id="clip54">
      <path id="path486" d="M 0.0000 0.0000 L 0.0000 276.00 L 379.00 276.00 L 379.00 0.0000 z" />
    </clipPath>
    <g id="g488" clip-path="url(#clip54)">
      <g id="g490" stroke="#c0c0c0" stroke-opacity="1.0000" fill="none" stroke-linecap="round" stroke-linejoin="round">
        <path id="path492" d="M 0.0000 267.91 L 379.00 267.91" />
      </g>
    </g>
    <g id="misc" />
    <g id="layer0">
      <clipPath id="clip55">
        <path id="path497" d="M 0.0000 0.0000 L 0.0000 276.00 L 379.00 276.00 L 379.00 0.0000 z" />
      </clipPath>
      <g id="g499" clip-path="url(#clip55)">
        <g id="g501" stroke="#0000ff" stroke-opacity="1.0000" fill="none" stroke-linecap="round" stroke-width="2.5000" stroke-linejoin="round">
          <path id="path503" d="M 95.490 -6.5308 L 96.230 .51556 L 96.971 7.4291 L 97.711 14.211 L 98.451 20.862 L 99.191 27.384 L 99.932 33.777 L 100.67 40.042 L 101.41 46.181 L 102.15 52.194 L 102.89 58.083 L 103.63 63.849 L 104.37 69.492 L 105.11 75.014 L 105.85 80.415 L 106.59 85.698 L 107.33 90.862 L 108.07 95.909 L 109.55 105.66 L 111.04 114.95 L 112.52 123.79 L 114.00 132.19 L 115.48 140.17 L 116.96 147.72 L 118.44 154.85 L 119.92 161.58 L 121.40 167.91 L 122.88 173.85 L 124.36 179.42 L 125.84 184.60 L 127.32 189.43 L 130.28 198.02 L 133.24 205.25 L 136.20 211.19 L 139.16 215.90 L 142.12 219.46 L 143.61 220.83 L 145.09 221.93 L 146.57 222.77 L 148.05 223.37 L 149.53 223.73 L 151.01 223.86 L 152.49 223.76 L 153.97 223.45 L 155.45 222.94 L 156.93 222.22 L 159.89 220.24 L 162.85 217.56 L 165.81 214.26 L 168.77 210.40 L 171.73 206.05 L 174.70 201.27 L 177.66 196.14 L 180.62 190.72 L 183.58 185.07 L 186.54 179.27 L 189.50 173.38 L 192.46 167.46 L 195.42 161.58 L 198.38 155.82 L 201.34 150.22 L 204.30 144.88 L 207.27 139.84 L 210.23 135.18 L 213.19 130.96 L 216.15 127.25 L 219.11 124.11 L 222.07 121.62 L 225.03 119.84 L 226.51 119.23 L 227.99 118.83 L 229.47 118.64 L 230.95 118.67 L 232.43 118.92 L 233.91 119.41 L 235.39 120.15 L 236.88 121.13 L 239.84 123.90 L 242.80 127.77 L 245.76 132.82 L 248.72 139.12 L 251.68 146.72 L 254.64 155.70 L 256.12 160.72 L 257.60 166.12 L 259.08 171.89 L 260.56 178.05 L 262.04 184.60 L 263.52 191.56 L 265.00 198.92 L 266.48 206.71 L 267.96 214.92 L 269.45 223.56 L 270.93 232.66 L 272.41 242.20 L 273.15 247.14 L 273.89 252.20 L 274.63 257.38 L 275.37 262.68 L 276.11 268.09 L 276.85 273.63 L 277.59 279.29 L 278.33 285.07" />
          <title id="title505">Function f</title>
          <desc id="desc507">f(x) = -xÃ&#130;Â³ + 2x</desc>
        </g>
      </g>
      <clipPath id="clip56">
        <path id="path510" d="M 0.0000 0.0000 L 0.0000 276.00 L 379.00 276.00 L 379.00 0.0000 z" />
      </clipPath>
      <g id="g512" clip-path="url(#clip56)">
        <g id="g514" stroke="#ff00ff" stroke-opacity="1.0000" fill="none" stroke-linecap="round" stroke-width="2.5000" stroke-linejoin="round">
          <path id="path516" d="M 100.67 -8.2903 L 101.41 -2.1514 L 102.15 3.8620 L 102.89 9.7509 L 103.63 15.516 L 104.37 21.160 L 105.11 26.682 L 105.85 32.083 L 106.59 37.366 L 107.33 42.530 L 108.07 47.577 L 109.55 57.324 L 111.04 66.614 L 112.52 75.457 L 114.00 83.861 L 115.48 91.834 L 116.96 99.384 L 118.44 106.52 L 119.92 113.25 L 121.40 119.58 L 122.88 125.52 L 124.36 131.08 L 125.84 136.27 L 127.32 141.10 L 130.28 149.68 L 133.24 156.92 L 136.20 162.86 L 139.16 167.57 L 142.12 171.13 L 143.61 172.50 L 145.09 173.60 L 146.57 174.44 L 148.05 175.04 L 149.53 175.40 L 151.01 175.53 L 152.49 175.43 L 153.97 175.12 L 155.45 174.60 L 156.93 173.89 L 159.89 171.90 L 162.85 169.23 L 165.81 165.92 L 168.77 162.07 L 171.73 157.72 L 174.70 152.94 L 177.66 147.81 L 180.62 142.39 L 183.58 136.74 L 186.54 130.94 L 189.50 125.04 L 192.46 119.13 L 195.42 113.25 L 198.38 107.48 L 201.34 101.89 L 204.30 96.544 L 207.27 91.506 L 210.23 86.843 L 213.19 82.623 L 216.15 78.913 L 219.11 75.778 L 222.07 73.287 L 225.03 71.504 L 226.51 70.900 L 227.99 70.498 L 229.47 70.307 L 230.95 70.334 L 232.43 70.589 L 233.91 71.080 L 235.39 71.815 L 236.88 72.802 L 239.84 75.566 L 242.80 79.440 L 245.76 84.491 L 248.72 90.784 L 251.68 98.386 L 254.64 107.36 L 256.12 112.39 L 257.60 117.79 L 259.08 123.56 L 260.56 129.72 L 262.04 136.27 L 263.52 143.22 L 265.00 150.59 L 266.48 158.37 L 267.96 166.58 L 269.45 175.23 L 270.93 184.32 L 272.41 193.87 L 273.15 198.81 L 273.89 203.87 L 274.63 209.05 L 275.37 214.35 L 276.11 219.76 L 276.85 225.30 L 277.59 230.95 L 278.33 236.73 L 279.07 242.64 L 279.81 248.66 L 280.55 254.82 L 281.29 261.10 L 282.03 267.51 L 282.77 274.04 L 283.51 280.71 L 284.25 287.51" />
          <title id="title518">Function g</title>
          <desc id="desc520">g(x) = -xÃ&#130;Â³ + 2x + 1</desc>
        </g>
      </g>
      <clipPath id="clip57">
        <path id="path523" d="M 0.0000 0.0000 L 0.0000 276.00 L 379.00 276.00 L 379.00 0.0000 z" />
      </clipPath>
      <g id="g525" clip-path="url(#clip57)">
        <g id="g527" stroke="#0000ff" stroke-opacity="1.0000" fill="none" stroke-linecap="round" stroke-width="3.0000" stroke-linejoin="round">
          <path id="path529" d="M 190.57 171.24 L 190.57 140.91" />
          <title id="title531">Vector u</title>
          <desc id="desc533">Vector u: Vector[A, B]</desc>
        </g>
      </g>
      <clipPath id="clip58">
        <path id="path536" d="M 0.0000 0.0000 L 0.0000 276.00 L 379.00 276.00 L 379.00 0.0000 z" />
      </clipPath>
      <g id="g538" clip-path="url(#clip58)">
        <g id="g540" fill="#0000ff" stroke="none" fill-rule="evenodd" fill-opacity="1.0000">
          <path id="path542" d="M 190.57 122.91 L 195.07 140.91 L 186.07 140.91 z" />
          <title id="title544">Vector u</title>
          <desc id="desc546">Vector u: Vector[A, B]</desc>
        </g>
      </g>
      <clipPath id="clip59">
        <path id="path549" d="M 0.0000 0.0000 L 0.0000 276.00 L 379.00 276.00 L 379.00 0.0000 z" />
      </clipPath>
      <g id="g551" clip-path="url(#clip59)">
        <g id="g553" stroke="#0000ff" stroke-opacity="1.0000" fill="none" stroke-linecap="round" stroke-width="3.0000" stroke-linejoin="round">
          <path id="path555" d="M 142.24 219.57 L 142.24 189.24" />
          <title id="title557">Vector v</title>
          <desc id="desc559">Vector v: Vector[C, D]</desc>
        </g>
      </g>
      <clipPath id="clip60">
        <path id="path562" d="M 0.0000 0.0000 L 0.0000 276.00 L 379.00 276.00 L 379.00 0.0000 z" />
      </clipPath>
      <g id="g564" clip-path="url(#clip60)">
        <g id="g566" fill="#0000ff" stroke="none" fill-rule="evenodd" fill-opacity="1.0000">
          <path id="path568" d="M 142.24 171.24 L 146.74 189.24 L 137.74 189.24 z" />
          <title id="title570">Vector v</title>
          <desc id="desc572">Vector v: Vector[C, D]</desc>
        </g>
      </g>
      <clipPath id="clip61">
        <path id="path575" d="M 0.0000 0.0000 L 0.0000 276.00 L 379.00 276.00 L 379.00 0.0000 z" />
      </clipPath>
      <g id="g577" clip-path="url(#clip61)">
        <g id="g579" stroke="#0000ff" stroke-opacity="1.0000" fill="none" stroke-linecap="round" stroke-width="3.0000" stroke-linejoin="round">
          <path id="path581" d="M 238.90 122.91 L 238.90 92.576" />
          <title id="title583">Vector w</title>
          <desc id="desc585">Vector w: Vector[F, E]</desc>
        </g>
      </g>
      <clipPath id="clip62">
        <path id="path588" d="M 0.0000 0.0000 L 0.0000 276.00 L 379.00 276.00 L 379.00 0.0000 z" />
      </clipPath>
      <g id="g590" clip-path="url(#clip62)">
        <g id="g592" fill="#0000ff" stroke="none" fill-rule="evenodd" fill-opacity="1.0000">
          <path id="path594" d="M 238.90 74.576 L 243.40 92.576 L 234.40 92.576 z" />
          <title id="title596">Vector w</title>
          <desc id="desc598">Vector w: Vector[F, E]</desc>
        </g>
      </g>
      <clipPath id="clip63">
        <path id="path601" d="M 0.0000 0.0000 L 0.0000 276.00 L 379.00 276.00 L 379.00 0.0000 z" />
      </clipPath>
      <g id="g603" clip-path="url(#clip63)">
        <g id="g605" fill="#0000ff" stroke="none" fill-rule="nonzero" fill-opacity="1.0000">
          <path id="path607" d="M 196.57 171.24 C 196.57 174.55 193.88 177.24 190.57 177.24 C 187.25 177.24 184.57 174.55 184.57 171.24 C 184.57 167.93 187.25 165.24 190.57 165.24 C 193.88 165.24 196.57 167.93 196.57 171.24 z" />
          <title id="title609">Point A</title>
          <desc id="desc611">Point A: Intersection point of f, xAxis</desc>
        </g>
      </g>
      <clipPath id="clip64">
        <path id="path614" d="M 0.0000 0.0000 L 0.0000 276.00 L 379.00 276.00 L 379.00 0.0000 z" />
      </clipPath>
      <g id="g616" clip-path="url(#clip64)">
        <g id="g618" stroke="#000000" stroke-opacity="1.0000" fill="none" stroke-linecap="round" stroke-linejoin="round">
          <path id="path620" d="M 196.57 171.24 C 196.57 174.55 193.88 177.24 190.57 177.24 C 187.25 177.24 184.57 174.55 184.57 171.24 C 184.57 167.93 187.25 165.24 190.57 165.24 C 193.88 165.24 196.57 167.93 196.57 171.24 z" />
          <title id="title622">Point A</title>
          <desc id="desc624">Point A: Intersection point of f, xAxis</desc>
        </g>
      </g>
      <clipPath id="clip65">
        <path id="path627" d="M 0.0000 0.0000 L 0.0000 276.00 L 379.00 276.00 L 379.00 0.0000 z" />
      </clipPath>
      <g id="g629" clip-path="url(#clip65)">
        <g id="g631" fill="#ff00ff" stroke="none" fill-rule="nonzero" fill-opacity="1.0000">
          <path id="path633" d="M 196.57 122.91 C 196.57 126.22 193.88 128.91 190.57 128.91 C 187.25 128.91 184.57 126.22 184.57 122.91 C 184.57 119.59 187.25 116.91 190.57 116.91 C 193.88 116.91 196.57 119.59 196.57 122.91 z" />
          <title id="title635">Point B</title>
          <desc id="desc637">Point B: Intersection point of g, yAxis</desc>
        </g>
      </g>
      <clipPath id="clip66">
        <path id="path640" d="M 0.0000 0.0000 L 0.0000 276.00 L 379.00 276.00 L 379.00 0.0000 z" />
      </clipPath>
      <g id="g642" clip-path="url(#clip66)">
        <g id="g644" stroke="#000000" stroke-opacity="1.0000" fill="none" stroke-linecap="round" stroke-linejoin="round">
          <path id="path646" d="M 196.57 122.91 C 196.57 126.22 193.88 128.91 190.57 128.91 C 187.25 128.91 184.57 126.22 184.57 122.91 C 184.57 119.59 187.25 116.91 190.57 116.91 C 193.88 116.91 196.57 119.59 196.57 122.91 z" />
          <title id="title648">Point B</title>
          <desc id="desc650">Point B: Intersection point of g, yAxis</desc>
        </g>
      </g>
      <clipPath id="clip67">
        <path id="path653" d="M 0.0000 0.0000 L 0.0000 276.00 L 379.00 276.00 L 379.00 0.0000 z" />
      </clipPath>
      <g id="g655" clip-path="url(#clip67)">
        <g id="g657" fill="#0000ff" stroke="none" fill-rule="nonzero" fill-opacity="1.0000">
          <path id="path659" d="M 148.24 219.57 C 148.24 222.89 145.55 225.57 142.24 225.57 C 138.92 225.57 136.24 222.89 136.24 219.57 C 136.24 216.26 138.92 213.57 142.24 213.57 C 145.55 213.57 148.24 216.26 148.24 219.57 z" />
          <title id="title661">Point C</title>
          <desc id="desc663">Point C: Point on f</desc>
        </g>
      </g>
      <clipPath id="clip68">
        <path id="path666" d="M 0.0000 0.0000 L 0.0000 276.00 L 379.00 276.00 L 379.00 0.0000 z" />
      </clipPath>
      <g id="g668" clip-path="url(#clip68)">
        <g id="g670" stroke="#000000" stroke-opacity="1.0000" fill="none" stroke-linecap="round" stroke-linejoin="round">
          <path id="path672" d="M 148.24 219.57 C 148.24 222.89 145.55 225.57 142.24 225.57 C 138.92 225.57 136.24 222.89 136.24 219.57 C 136.24 216.26 138.92 213.57 142.24 213.57 C 145.55 213.57 148.24 216.26 148.24 219.57 z" />
          <title id="title674">Point C</title>
          <desc id="desc676">Point C: Point on f</desc>
        </g>
      </g>
      <clipPath id="clip69">
        <path id="path679" d="M 0.0000 0.0000 L 0.0000 276.00 L 379.00 276.00 L 379.00 0.0000 z" />
      </clipPath>
      <g id="g681" clip-path="url(#clip69)">
        <g id="g683" fill="#ff00ff" stroke="none" fill-rule="nonzero" fill-opacity="1.0000">
          <path id="path685" d="M 148.24 171.24 C 148.24 174.55 145.55 177.24 142.24 177.24 C 138.92 177.24 136.24 174.55 136.24 171.24 C 136.24 167.93 138.92 165.24 142.24 165.24 C 145.55 165.24 148.24 167.93 148.24 171.24 z" />
          <title id="title687">Point D</title>
          <desc id="desc689">Point D: Intersection point of g, xAxis</desc>
        </g>
      </g>
      <clipPath id="clip70">
        <path id="path692" d="M 0.0000 0.0000 L 0.0000 276.00 L 379.00 276.00 L 379.00 0.0000 z" />
      </clipPath>
      <g id="g694" clip-path="url(#clip70)">
        <g id="g696" stroke="#000000" stroke-opacity="1.0000" fill="none" stroke-linecap="round" stroke-linejoin="round">
          <path id="path698" d="M 148.24 171.24 C 148.24 174.55 145.55 177.24 142.24 177.24 C 138.92 177.24 136.24 174.55 136.24 171.24 C 136.24 167.93 138.92 165.24 142.24 165.24 C 145.55 165.24 148.24 167.93 148.24 171.24 z" />
          <title id="title700">Point D</title>
          <desc id="desc702">Point D: Intersection point of g, xAxis</desc>
        </g>
      </g>
      <clipPath id="clip71">
        <path id="path705" d="M 0.0000 0.0000 L 0.0000 276.00 L 379.00 276.00 L 379.00 0.0000 z" />
      </clipPath>
      <g id="g707" clip-path="url(#clip71)">
        <g id="g709" fill="#ff00ff" stroke="none" fill-rule="nonzero" fill-opacity="1.0000">
          <path id="path711" d="M 244.90 74.576 C 244.90 77.890 242.21 80.576 238.90 80.576 C 235.59 80.576 232.90 77.890 232.90 74.576 C 232.90 71.262 235.59 68.576 238.90 68.576 C 242.21 68.576 244.90 71.262 244.90 74.576 z" />
          <title id="title713">Point E</title>
          <desc id="desc715">E = (1, 2)</desc>
        </g>
      </g>
      <clipPath id="clip72">
        <path id="path718" d="M 0.0000 0.0000 L 0.0000 276.00 L 379.00 276.00 L 379.00 0.0000 z" />
      </clipPath>
      <g id="g720" clip-path="url(#clip72)">
        <g id="g722" stroke="#000000" stroke-opacity="1.0000" fill="none" stroke-linecap="round" stroke-linejoin="round">
          <path id="path724" d="M 244.90 74.576 C 244.90 77.890 242.21 80.576 238.90 80.576 C 235.59 80.576 232.90 77.890 232.90 74.576 C 232.90 71.262 235.59 68.576 238.90 68.576 C 242.21 68.576 244.90 71.262 244.90 74.576 z" />
          <title id="title726">Point E</title>
          <desc id="desc728">E = (1, 2)</desc>
        </g>
      </g>
      <clipPath id="clip73">
        <path id="path731" d="M 0.0000 0.0000 L 0.0000 276.00 L 379.00 276.00 L 379.00 0.0000 z" />
      </clipPath>
      <g id="g733" clip-path="url(#clip73)">
        <g id="g735" fill="#0000ff" stroke="none" fill-rule="nonzero" fill-opacity="1.0000">
          <path id="path737" d="M 244.90 122.91 C 244.90 126.22 242.21 128.91 238.90 128.91 C 235.59 128.91 232.90 126.22 232.90 122.91 C 232.90 119.59 235.59 116.91 238.90 116.91 C 242.21 116.91 244.90 119.59 244.90 122.91 z" />
          <title id="title739">Point F</title>
          <desc id="desc741">Point F: Point on f</desc>
        </g>
      </g>
      <clipPath id="clip74">
        <path id="path744" d="M 0.0000 0.0000 L 0.0000 276.00 L 379.00 276.00 L 379.00 0.0000 z" />
      </clipPath>
      <g id="g746" clip-path="url(#clip74)">
        <g id="g748" stroke="#000000" stroke-opacity="1.0000" fill="none" stroke-linecap="round" stroke-linejoin="round">
          <path id="path750" d="M 244.90 122.91 C 244.90 126.22 242.21 128.91 238.90 128.91 C 235.59 128.91 232.90 126.22 232.90 122.91 C 232.90 119.59 235.59 116.91 238.90 116.91 C 242.21 116.91 244.90 119.59 244.90 122.91 z" />
          <title id="title752">Point F</title>
          <desc id="desc754">Point F: Point on f</desc>
        </g>
      </g>
    </g>
  </g>
</svg>