<?xml version='1.0' ?><svg xmlns:dc="http://purl.org/dc/elements/1.1/" xmlns:cc="http://creativecommons.org/ns#" xmlns:rdf="http://www.w3.org/1999/02/22-rdf-syntax-ns#" xmlns:svg="http://www.w3.org/2000/svg" xmlns="http://www.w3.org/2000/svg" id="svg2" version="1.1" width="372.49997" height="268.00647" viewBox="0.0 0.3842404802684564 384.99996899328863 276.999975704698" preserveAspectRatio="none">
  <metadata id="metadata767">
    <rdf:RDF>
      <cc:Work rdf:about="">
        <dc:format>image/svg+xml</dc:format>
        <dc:type rdf:resource="http://purl.org/dc/dcmitype/StillImage" />
      </cc:Work>
    </rdf:RDF>
  </metadata>
  <defs id="defs765" />
  <title id="title4" />
  <g id="g6" stroke-linecap="square" stroke-miterlimit="10.000" stroke-width="1.0000" stroke-dasharray="none" stroke-dashoffset="0.0000" stroke-linejoin="miter">
    <clipPath id="clip1">
      <path id="path9" d="M 0.0000 0.0000 L 0.0000 277.00 L 385.00 277.00 L 385.00 0.0000 z" />
    </clipPath>
    <g id="g11" clip-path="url(#clip1)">
      <g id="g13" stroke="#000000" stroke-opacity="1.0000" fill="none" stroke-linecap="butt">
        <path id="path15" d="M 186.39 2.0000 L 186.39 277.00" />
      </g>
    </g>
    <clipPath id="clip2">
      <path id="path18" d="M 0.0000 0.0000 L 0.0000 277.00 L 385.00 277.00 L 385.00 0.0000 z" />
    </clipPath>
    <g id="g20" clip-path="url(#clip2)">
      <g id="g22" stroke="#000000" stroke-opacity="1.0000" fill="none" stroke-linecap="butt">
        <path id="path24" d="M 186.39 1.0000 L 183.39 4.0000" />
      </g>
    </g>
    <clipPath id="clip3">
      <path id="path27" d="M 0.0000 0.0000 L 0.0000 277.00 L 385.00 277.00 L 385.00 0.0000 z" />
    </clipPath>
    <g id="g29" clip-path="url(#clip3)">
      <g id="g31" stroke="#000000" stroke-opacity="1.0000" fill="none" stroke-linecap="butt">
        <path id="path33" d="M 186.39 1.0000 L 189.39 4.0000" />
      </g>
    </g>
    <clipPath id="clip4">
      <path id="path36" d="M 0.0000 0.0000 L 0.0000 277.00 L 385.00 277.00 L 385.00 0.0000 z" />
    </clipPath>
    <g id="g38" clip-path="url(#clip4)">
      <g id="g40" stroke="#000000" stroke-opacity="1.0000" fill="none" stroke-linecap="butt">
        <path id="path42" d="M 0.0000 156.43 L 383.00 156.43" />
      </g>
    </g>
    <clipPath id="clip5">
      <path id="path45" d="M 0.0000 0.0000 L 0.0000 277.00 L 385.00 277.00 L 385.00 0.0000 z" />
    </clipPath>
    <g id="g47" clip-path="url(#clip5)">
      <g id="g49" stroke="#000000" stroke-opacity="1.0000" fill="none" stroke-linecap="butt">
        <path id="path51" d="M 384.00 156.43 L 381.00 153.43" />
      </g>
    </g>
    <clipPath id="clip6">
      <path id="path54" d="M 0.0000 0.0000 L 0.0000 277.00 L 385.00 277.00 L 385.00 0.0000 z" />
    </clipPath>
    <g id="g56" clip-path="url(#clip6)">
      <g id="g58" stroke="#000000" stroke-opacity="1.0000" fill="none" stroke-linecap="butt">
        <path id="path60" d="M 384.00 156.43 L 381.00 159.43" />
      </g>
    </g>
    <clipPath id="clip7">
      <path id="path63" d="M 0.0000 0.0000 L 0.0000 277.00 L 385.00 277.00 L 385.00 0.0000 z" />
    </clipPath>
    <g id="g65" clip-path="url(#clip7)">
      <g id="g67" stroke="#000000" stroke-opacity="1.0000" fill="none" stroke-linecap="butt">
        <path id="path69" d="M 6.1605 156.43 L 6.1605 159.43" />
      </g>
    </g>
    <clipPath id="clip8">
      <path id="path72" d="M 0.0000 0.0000 L 0.0000 277.00 L 385.00 277.00 L 385.00 0.0000 z" />
    </clipPath>
    <g id="g74" clip-path="url(#clip8)">
      <g id="g76" stroke="#000000" stroke-opacity="1.0000" fill="none" stroke-linecap="butt">
        <path id="path78" d="M 31.907 156.43 L 31.907 159.43" />
      </g>
    </g>
    <clipPath id="clip9">
      <path id="path81" d="M 0.0000 0.0000 L 0.0000 277.00 L 385.00 277.00 L 385.00 0.0000 z" />
    </clipPath>
    <g id="g83" clip-path="url(#clip9)">
      <g id="g85" stroke="#000000" stroke-opacity="1.0000" fill="none" stroke-linecap="butt">
        <path id="path87" d="M 57.654 156.43 L 57.654 159.43" />
      </g>
    </g>
    <clipPath id="clip10">
      <path id="path90" d="M 0.0000 0.0000 L 0.0000 277.00 L 385.00 277.00 L 385.00 0.0000 z" />
    </clipPath>
    <g id="g92" clip-path="url(#clip10)">
      <g id="g94" stroke="#000000" stroke-opacity="1.0000" fill="none" stroke-linecap="butt">
        <path id="path96" d="M 83.401 156.43 L 83.401 159.43" />
      </g>
    </g>
    <clipPath id="clip11">
      <path id="path99" d="M 0.0000 0.0000 L 0.0000 277.00 L 385.00 277.00 L 385.00 0.0000 z" />
    </clipPath>
    <g id="g101" clip-path="url(#clip11)">
      <g id="g103" stroke="#000000" stroke-opacity="1.0000" fill="none" stroke-linecap="butt">
        <path id="path105" d="M 109.15 156.43 L 109.15 159.43" />
      </g>
    </g>
    <clipPath id="clip12">
      <path id="path108" d="M 0.0000 0.0000 L 0.0000 277.00 L 385.00 277.00 L 385.00 0.0000 z" />
    </clipPath>
    <g id="g110" clip-path="url(#clip12)">
      <g id="g112" stroke="#000000" stroke-opacity="1.0000" fill="none" stroke-linecap="butt">
        <path id="path114" d="M 134.89 156.43 L 134.89 159.43" />
      </g>
    </g>
    <clipPath id="clip13">
      <path id="path117" d="M 0.0000 0.0000 L 0.0000 277.00 L 385.00 277.00 L 385.00 0.0000 z" />
    </clipPath>
    <g id="g119" clip-path="url(#clip13)">
      <g id="g121" stroke="#000000" stroke-opacity="1.0000" fill="none" stroke-linecap="butt">
        <path id="path123" d="M 160.64 156.43 L 160.64 159.43" />
      </g>
    </g>
    <clipPath id="clip14">
      <path id="path126" d="M 0.0000 0.0000 L 0.0000 277.00 L 385.00 277.00 L 385.00 0.0000 z" />
    </clipPath>
    <g id="g128" clip-path="url(#clip14)">
      <g id="g130" stroke="#000000" stroke-opacity="1.0000" fill="none" stroke-linecap="butt">
        <path id="path132" d="M 186.39 156.43 L 186.39 159.43" />
      </g>
    </g>
    <clipPath id="clip15">
      <path id="path135" d="M 0.0000 0.0000 L 0.0000 277.00 L 385.00 277.00 L 385.00 0.0000 z" />
    </clipPath>
    <g id="g137" clip-path="url(#clip15)">
      <g id="g139" stroke="#000000" stroke-opacity="1.0000" fill="none" stroke-linecap="butt">
        <path id="path141" d="M 212.14 156.43 L 212.14 159.43" />
      </g>
    </g>
    <clipPath id="clip16">
      <path id="path144" d="M 0.0000 0.0000 L 0.0000 277.00 L 385.00 277.00 L 385.00 0.0000 z" />
    </clipPath>
    <g id="g146" clip-path="url(#clip16)">
      <g id="g148" stroke="#000000" stroke-opacity="1.0000" fill="none" stroke-linecap="butt">
        <path id="path150" d="M 237.88 156.43 L 237.88 159.43" />
      </g>
    </g>
    <clipPath id="clip17">
      <path id="path153" d="M 0.0000 0.0000 L 0.0000 277.00 L 385.00 277.00 L 385.00 0.0000 z" />
    </clipPath>
    <g id="g155" clip-path="url(#clip17)">
      <g id="g157" stroke="#000000" stroke-opacity="1.0000" fill="none" stroke-linecap="butt">
        <path id="path159" d="M 263.63 156.43 L 263.63 159.43" />
      </g>
    </g>
    <clipPath id="clip18">
      <path id="path162" d="M 0.0000 0.0000 L 0.0000 277.00 L 385.00 277.00 L 385.00 0.0000 z" />
    </clipPath>
    <g id="g164" clip-path="url(#clip18)">
      <g id="g166" stroke="#000000" stroke-opacity="1.0000" fill="none" stroke-linecap="butt">
        <path id="path168" d="M 289.38 156.43 L 289.38 159.43" />
      </g>
    </g>
    <clipPath id="clip19">
      <path id="path171" d="M 0.0000 0.0000 L 0.0000 277.00 L 385.00 277.00 L 385.00 0.0000 z" />
    </clipPath>
    <g id="g173" clip-path="url(#clip19)">
      <g id="g175" stroke="#000000" stroke-opacity="1.0000" fill="none" stroke-linecap="butt">
        <path id="path177" d="M 315.12 156.43 L 315.12 159.43" />
      </g>
    </g>
    <clipPath id="clip20">
      <path id="path180" d="M 0.0000 0.0000 L 0.0000 277.00 L 385.00 277.00 L 385.00 0.0000 z" />
    </clipPath>
    <g id="g182" clip-path="url(#clip20)">
      <g id="g184" stroke="#000000" stroke-opacity="1.0000" fill="none" stroke-linecap="butt">
        <path id="path186" d="M 340.87 156.43 L 340.87 159.43" />
      </g>
    </g>
    <clipPath id="clip21">
      <path id="path189" d="M 0.0000 0.0000 L 0.0000 277.00 L 385.00 277.00 L 385.00 0.0000 z" />
    </clipPath>
    <g id="g191" clip-path="url(#clip21)">
      <g id="g193" stroke="#000000" stroke-opacity="1.0000" fill="none" stroke-linecap="butt">
        <path id="path195" d="M 366.62 156.43 L 366.62 159.43" />
      </g>
    </g>
    <clipPath id="clip22">
      <path id="path198" d="M 0.0000 0.0000 L 0.0000 277.00 L 385.00 277.00 L 385.00 0.0000 z" />
    </clipPath>
    <g id="g200" clip-path="url(#clip22)">
      <g id="g202" fill="#000000" stroke="none" fill-rule="nonzero" fill-opacity="1.0000">
        <path id="path204" d="M 169.51 260.35 L 169.51 259.68 L 173.49 259.68 L 173.49 260.35 z M 176.30 259.06 Q 175.24 258.33 175.24 257.43 Q 175.24 256.61 175.84 256.10 Q 176.44 255.59 177.41 255.59 Q 178.30 255.59 178.86 256.02 Q 179.41 256.46 179.41 257.15 Q 179.41 258.20 178.06 259.06 Q 179.70 259.87 179.70 261.13 Q 179.70 262.04 179.01 262.61 Q 178.33 263.18 177.24 263.18 Q 176.18 263.18 175.52 262.64 Q 174.86 262.10 174.86 261.22 Q 174.86 259.92 176.30 259.06 z M 177.53 258.76 Q 178.54 258.10 178.54 257.28 Q 178.54 256.85 178.20 256.58 Q 177.86 256.32 177.31 256.32 Q 176.78 256.32 176.45 256.58 Q 176.11 256.84 176.11 257.25 Q 176.11 257.66 176.41 257.98 Q 176.71 258.30 177.53 258.76 z M 176.82 259.46 Q 176.24 259.90 176.03 260.24 Q 175.83 260.57 175.83 261.07 Q 175.83 261.69 176.23 262.07 Q 176.63 262.46 177.28 262.46 Q 177.91 262.46 178.31 262.13 Q 178.71 261.80 178.71 261.28 Q 178.71 260.86 178.46 260.57 Q 178.21 260.28 177.51 259.86 z" />
      </g>
    </g>
    <clipPath id="clip23">
      <path id="path207" d="M 0.0000 0.0000 L 0.0000 277.00 L 385.00 277.00 L 385.00 0.0000 z" />
    </clipPath>
    <g id="g209" clip-path="url(#clip23)">
      <g id="g211" stroke="#000000" stroke-opacity="1.0000" fill="none" stroke-linecap="butt">
        <path id="path213" d="M 183.39 259.42 L 186.39 259.42" />
      </g>
    </g>
    <clipPath id="clip24">
      <path id="path216" d="M 0.0000 0.0000 L 0.0000 277.00 L 385.00 277.00 L 385.00 0.0000 z" />
    </clipPath>
    <g id="g218" clip-path="url(#clip24)">
      <g id="g220" fill="#000000" stroke="none" fill-rule="nonzero" fill-opacity="1.0000">
        <path id="path222" d="M 169.51 234.35 L 169.51 233.68 L 173.49 233.68 L 173.49 234.35 z M 175.72 233.25 Q 176.41 232.36 177.45 232.36 Q 178.40 232.36 179.00 232.99 Q 179.61 233.62 179.61 234.60 Q 179.61 235.73 178.93 236.45 Q 178.25 237.18 177.21 237.18 Q 176.02 237.18 175.34 236.22 Q 174.67 235.26 174.67 233.55 Q 174.67 231.67 175.44 230.63 Q 176.22 229.59 177.62 229.59 Q 178.27 229.59 179.23 229.86 L 179.23 230.70 Q 178.21 230.31 177.56 230.31 Q 175.72 230.31 175.72 233.25 z M 178.64 234.81 Q 178.64 233.99 178.27 233.52 Q 177.90 233.05 177.25 233.05 Q 176.64 233.05 176.20 233.46 Q 175.76 233.88 175.76 234.45 Q 175.76 235.36 176.18 235.91 Q 176.59 236.46 177.28 236.46 Q 177.90 236.46 178.27 236.01 Q 178.64 235.56 178.64 234.81 z" />
      </g>
    </g>
    <clipPath id="clip25">
      <path id="path225" d="M 0.0000 0.0000 L 0.0000 277.00 L 385.00 277.00 L 385.00 0.0000 z" />
    </clipPath>
    <g id="g227" clip-path="url(#clip25)">
      <g id="g229" stroke="#000000" stroke-opacity="1.0000" fill="none" stroke-linecap="butt">
        <path id="path231" d="M 183.39 233.67 L 186.39 233.67" />
      </g>
    </g>
    <clipPath id="clip26">
      <path id="path234" d="M 0.0000 0.0000 L 0.0000 277.00 L 385.00 277.00 L 385.00 0.0000 z" />
    </clipPath>
    <g id="g236" clip-path="url(#clip26)">
      <g id="g238" fill="#000000" stroke="none" fill-rule="nonzero" fill-opacity="1.0000">
        <path id="path240" d="M 169.51 208.35 L 169.51 207.68 L 173.49 207.68 L 173.49 208.35 z M 177.76 211.00 L 177.76 208.95 L 174.51 208.95 L 174.51 208.23 L 177.76 203.77 L 178.67 203.77 L 178.67 208.17 L 179.63 208.17 L 179.63 208.95 L 178.67 208.95 L 178.67 211.00 z M 175.46 208.17 L 177.83 208.17 L 177.83 204.96 z" />
      </g>
    </g>
    <clipPath id="clip27">
      <path id="path243" d="M 0.0000 0.0000 L 0.0000 277.00 L 385.00 277.00 L 385.00 0.0000 z" />
    </clipPath>
    <g id="g245" clip-path="url(#clip27)">
      <g id="g247" stroke="#000000" stroke-opacity="1.0000" fill="none" stroke-linecap="butt">
        <path id="path249" d="M 183.39 207.93 L 186.39 207.93" />
      </g>
    </g>
    <clipPath id="clip28">
      <path id="path252" d="M 0.0000 0.0000 L 0.0000 277.00 L 385.00 277.00 L 385.00 0.0000 z" />
    </clipPath>
    <g id="g254" clip-path="url(#clip28)">
      <g id="g256" fill="#000000" stroke="none" fill-rule="nonzero" fill-opacity="1.0000">
        <path id="path258" d="M 169.51 183.35 L 169.51 182.68 L 173.49 182.68 L 173.49 183.35 z M 174.83 186.00 L 174.83 185.16 Q 175.25 184.17 176.53 183.02 L 177.08 182.52 Q 178.15 181.56 178.15 180.61 Q 178.15 180.01 177.78 179.66 Q 177.42 179.32 176.78 179.32 Q 176.03 179.32 175.01 179.90 L 175.01 179.05 Q 175.97 178.59 176.92 178.59 Q 177.94 178.59 178.55 179.14 Q 179.17 179.69 179.17 180.59 Q 179.17 181.24 178.86 181.74 Q 178.55 182.25 177.70 182.96 L 177.33 183.28 Q 176.17 184.26 175.99 185.16 L 179.13 185.16 L 179.13 186.00 z" />
      </g>
    </g>
    <clipPath id="clip29">
      <path id="path261" d="M 0.0000 0.0000 L 0.0000 277.00 L 385.00 277.00 L 385.00 0.0000 z" />
    </clipPath>
    <g id="g263" clip-path="url(#clip29)">
      <g id="g265" stroke="#000000" stroke-opacity="1.0000" fill="none" stroke-linecap="butt">
        <path id="path267" d="M 183.39 182.18 L 186.39 182.18" />
      </g>
    </g>
    <clipPath id="clip30">
      <path id="path270" d="M 0.0000 0.0000 L 0.0000 277.00 L 385.00 277.00 L 385.00 0.0000 z" />
    </clipPath>
    <g id="g272" clip-path="url(#clip30)">
      <g id="g274" fill="#000000" stroke="none" fill-rule="nonzero" fill-opacity="1.0000">
        <path id="path276" d="M 177.13 154.18 Q 176.02 154.18 175.33 153.13 Q 174.63 152.08 174.63 150.38 Q 174.63 148.67 175.33 147.63 Q 176.03 146.59 177.16 146.59 Q 178.30 146.59 179.00 147.63 Q 179.69 148.67 179.69 150.37 Q 179.69 152.11 179.00 153.14 Q 178.30 154.18 177.13 154.18 z M 177.14 153.46 Q 178.67 153.46 178.67 150.35 Q 178.67 147.32 177.16 147.32 Q 175.66 147.32 175.66 150.38 Q 175.66 153.46 177.14 153.46 z" />
      </g>
    </g>
    <clipPath id="clip31">
      <path id="path279" d="M 0.0000 0.0000 L 0.0000 277.00 L 385.00 277.00 L 385.00 0.0000 z" />
    </clipPath>
    <g id="g281" clip-path="url(#clip31)">
      <g id="g283" fill="#000000" stroke="none" fill-rule="nonzero" fill-opacity="1.0000">
        <path id="path285" d="M 174.83 134.00 L 174.83 133.16 Q 175.25 132.17 176.53 131.02 L 177.08 130.52 Q 178.15 129.56 178.15 128.61 Q 178.15 128.01 177.78 127.66 Q 177.42 127.32 176.78 127.32 Q 176.03 127.32 175.01 127.90 L 175.01 127.05 Q 175.97 126.59 176.92 126.59 Q 177.94 126.59 178.55 127.14 Q 179.17 127.69 179.17 128.59 Q 179.17 129.24 178.86 129.74 Q 178.55 130.25 177.70 130.96 L 177.33 131.28 Q 176.17 132.26 175.99 133.16 L 179.13 133.16 L 179.13 134.00 z" />
      </g>
    </g>
    <clipPath id="clip32">
      <path id="path288" d="M 0.0000 0.0000 L 0.0000 277.00 L 385.00 277.00 L 385.00 0.0000 z" />
    </clipPath>
    <g id="g290" clip-path="url(#clip32)">
      <g id="g292" stroke="#000000" stroke-opacity="1.0000" fill="none" stroke-linecap="butt">
        <path id="path294" d="M 183.39 130.69 L 186.39 130.69" />
      </g>
    </g>
    <clipPath id="clip33">
      <path id="path297" d="M 0.0000 0.0000 L 0.0000 277.00 L 385.00 277.00 L 385.00 0.0000 z" />
    </clipPath>
    <g id="g299" clip-path="url(#clip33)">
      <g id="g301" fill="#000000" stroke="none" fill-rule="nonzero" fill-opacity="1.0000">
        <path id="path303" d="M 177.76 108.00 L 177.76 105.95 L 174.51 105.95 L 174.51 105.23 L 177.76 100.77 L 178.67 100.77 L 178.67 105.17 L 179.63 105.17 L 179.63 105.95 L 178.67 105.95 L 178.67 108.00 z M 175.46 105.17 L 177.83 105.17 L 177.83 101.96 z" />
      </g>
    </g>
    <clipPath id="clip34">
      <path id="path306" d="M 0.0000 0.0000 L 0.0000 277.00 L 385.00 277.00 L 385.00 0.0000 z" />
    </clipPath>
    <g id="g308" clip-path="url(#clip34)">
      <g id="g310" stroke="#000000" stroke-opacity="1.0000" fill="none" stroke-linecap="butt">
        <path id="path312" d="M 183.39 104.94 L 186.39 104.94" />
      </g>
    </g>
    <clipPath id="clip35">
      <path id="path315" d="M 0.0000 0.0000 L 0.0000 277.00 L 385.00 277.00 L 385.00 0.0000 z" />
    </clipPath>
    <g id="g317" clip-path="url(#clip35)">
      <g id="g319" fill="#000000" stroke="none" fill-rule="nonzero" fill-opacity="1.0000">
        <path id="path321" d="M 175.72 79.255 Q 176.41 78.361 177.45 78.361 Q 178.40 78.361 179.00 78.989 Q 179.61 79.616 179.61 80.598 Q 179.61 81.726 178.93 82.453 Q 178.25 83.181 177.21 83.181 Q 176.02 83.181 175.34 82.219 Q 174.67 81.257 174.67 79.548 Q 174.67 77.668 175.44 76.628 Q 176.22 75.588 177.62 75.588 Q 178.27 75.588 179.23 75.861 L 179.23 76.701 Q 178.21 76.311 177.56 76.311 Q 175.72 76.311 175.72 79.255 z M 178.64 80.812 Q 178.64 79.992 178.27 79.523 Q 177.90 79.055 177.25 79.055 Q 176.64 79.055 176.20 79.465 Q 175.76 79.875 175.76 80.451 Q 175.76 81.359 176.18 81.909 Q 176.59 82.458 177.28 82.458 Q 177.90 82.458 178.27 82.011 Q 178.64 81.564 178.64 80.812 z" />
      </g>
    </g>
    <clipPath id="clip36">
      <path id="path324" d="M 0.0000 0.0000 L 0.0000 277.00 L 385.00 277.00 L 385.00 0.0000 z" />
    </clipPath>
    <g id="g326" clip-path="url(#clip36)">
      <g id="g328" stroke="#000000" stroke-opacity="1.0000" fill="none" stroke-linecap="butt">
        <path id="path330" d="M 183.39 79.193 L 186.39 79.193" />
      </g>
    </g>
    <clipPath id="clip37">
      <path id="path333" d="M 0.0000 0.0000 L 0.0000 277.00 L 385.00 277.00 L 385.00 0.0000 z" />
    </clipPath>
    <g id="g335" clip-path="url(#clip37)">
      <g id="g337" fill="#000000" stroke="none" fill-rule="nonzero" fill-opacity="1.0000">
        <path id="path339" d="M 176.30 53.064 Q 175.24 52.327 175.24 51.434 Q 175.24 50.613 175.84 50.101 Q 176.44 49.588 177.41 49.588 Q 178.30 49.588 178.86 50.022 Q 179.41 50.457 179.41 51.150 Q 179.41 52.200 178.06 53.064 Q 179.70 53.865 179.70 55.130 Q 179.70 56.038 179.01 56.609 Q 178.33 57.181 177.24 57.181 Q 176.18 57.181 175.52 56.641 Q 174.86 56.102 174.86 55.223 Q 174.86 53.924 176.30 53.064 z M 177.53 52.762 Q 178.54 52.098 178.54 51.282 Q 178.54 50.848 178.20 50.582 Q 177.86 50.315 177.31 50.315 Q 176.78 50.315 176.45 50.577 Q 176.11 50.838 176.11 51.253 Q 176.11 51.658 176.41 51.978 Q 176.71 52.298 177.53 52.762 z M 176.82 53.455 Q 176.24 53.904 176.03 54.239 Q 175.83 54.573 175.83 55.071 Q 175.83 55.691 176.23 56.075 Q 176.63 56.458 177.28 56.458 Q 177.91 56.458 178.31 56.131 Q 178.71 55.804 178.71 55.281 Q 178.71 54.861 178.46 54.571 Q 178.21 54.280 177.51 53.860 z" />
      </g>
    </g>
    <clipPath id="clip38">
      <path id="path342" d="M 0.0000 0.0000 L 0.0000 277.00 L 385.00 277.00 L 385.00 0.0000 z" />
    </clipPath>
    <g id="g344" clip-path="url(#clip38)">
      <g id="g346" stroke="#000000" stroke-opacity="1.0000" fill="none" stroke-linecap="butt">
        <path id="path348" d="M 183.39 53.447 L 186.39 53.447" />
      </g>
    </g>
    <clipPath id="clip39">
      <path id="path351" d="M 0.0000 0.0000 L 0.0000 277.00 L 385.00 277.00 L 385.00 0.0000 z" />
    </clipPath>
    <g id="g353" clip-path="url(#clip39)">
      <g id="g355" fill="#000000" stroke="none" fill-rule="nonzero" fill-opacity="1.0000">
        <path id="path357" d="M 168.50 31.000 L 168.50 30.277 L 169.95 30.277 L 169.95 24.574 L 168.50 24.936 L 168.50 24.193 L 170.92 23.593 L 170.92 30.277 L 172.36 30.277 L 172.36 31.000 z M 176.46 31.181 Q 175.34 31.181 174.65 30.128 Q 173.96 29.076 173.96 27.382 Q 173.96 25.673 174.65 24.633 Q 175.35 23.593 176.49 23.593 Q 177.62 23.593 178.32 24.633 Q 179.02 25.673 179.02 27.367 Q 179.02 29.105 178.32 30.143 Q 177.62 31.181 176.46 31.181 z M 176.47 30.458 Q 178.00 30.458 178.00 27.353 Q 178.00 24.315 176.49 24.315 Q 174.98 24.315 174.98 27.382 Q 174.98 30.458 176.47 30.458 z" />
      </g>
    </g>
    <clipPath id="clip40">
      <path id="path360" d="M 0.0000 0.0000 L 0.0000 277.00 L 385.00 277.00 L 385.00 0.0000 z" />
    </clipPath>
    <g id="g362" clip-path="url(#clip40)">
      <g id="g364" stroke="#000000" stroke-opacity="1.0000" fill="none" stroke-linecap="butt">
        <path id="path366" d="M 183.39 27.700 L 186.39 27.700" />
      </g>
    </g>
    <clipPath id="clip41">
      <path id="path369" d="M 0.0000 0.0000 L 0.0000 277.00 L 385.00 277.00 L 385.00 0.0000 z" />
    </clipPath>
    <g id="g371" clip-path="url(#clip41)">
      <g id="g373" stroke="#c0c0c0" stroke-opacity="1.0000" fill="none" stroke-linecap="round" stroke-linejoin="round">
        <path id="path375" d="M 31.907 0.0000 L 31.907 277.00" />
      </g>
    </g>
    <clipPath id="clip42">
      <path id="path378" d="M 0.0000 0.0000 L 0.0000 277.00 L 385.00 277.00 L 385.00 0.0000 z" />
    </clipPath>
    <g id="g380" clip-path="url(#clip42)">
      <g id="g382" stroke="#c0c0c0" stroke-opacity="1.0000" fill="none" stroke-linecap="round" stroke-linejoin="round">
        <path id="path384" d="M 6.1605 0.0000 L 6.1605 277.00" />
      </g>
    </g>
    <clipPath id="clip43">
      <path id="path387" d="M 0.0000 0.0000 L 0.0000 277.00 L 385.00 277.00 L 385.00 0.0000 z" />
    </clipPath>
    <g id="g389" clip-path="url(#clip43)">
      <g id="g391" stroke="#c0c0c0" stroke-opacity="1.0000" fill="none" stroke-linecap="round" stroke-linejoin="round">
        <path id="path393" d="M 31.907 0.0000 L 31.907 277.00" />
      </g>
    </g>
    <clipPath id="clip44">
      <path id="path396" d="M 0.0000 0.0000 L 0.0000 277.00 L 385.00 277.00 L 385.00 0.0000 z" />
    </clipPath>
    <g id="g398" clip-path="url(#clip44)">
      <g id="g400" stroke="#c0c0c0" stroke-opacity="1.0000" fill="none" stroke-linecap="round" stroke-linejoin="round">
        <path id="path402" d="M 57.654 0.0000 L 57.654 277.00" />
      </g>
    </g>
    <clipPath id="clip45">
      <path id="path405" d="M 0.0000 0.0000 L 0.0000 277.00 L 385.00 277.00 L 385.00 0.0000 z" />
    </clipPath>
    <g id="g407" clip-path="url(#clip45)">
      <g id="g409" stroke="#c0c0c0" stroke-opacity="1.0000" fill="none" stroke-linecap="round" stroke-linejoin="round">
        <path id="path411" d="M 83.401 0.0000 L 83.401 277.00" />
      </g>
    </g>
    <clipPath id="clip46">
      <path id="path414" d="M 0.0000 0.0000 L 0.0000 277.00 L 385.00 277.00 L 385.00 0.0000 z" />
    </clipPath>
    <g id="g416" clip-path="url(#clip46)">
      <g id="g418" stroke="#c0c0c0" stroke-opacity="1.0000" fill="none" stroke-linecap="round" stroke-linejoin="round">
        <path id="path420" d="M 109.15 0.0000 L 109.15 277.00" />
      </g>
    </g>
    <clipPath id="clip47">
      <path id="path423" d="M 0.0000 0.0000 L 0.0000 277.00 L 385.00 277.00 L 385.00 0.0000 z" />
    </clipPath>
    <g id="g425" clip-path="url(#clip47)">
      <g id="g427" stroke="#c0c0c0" stroke-opacity="1.0000" fill="none" stroke-linecap="round" stroke-linejoin="round">
        <path id="path429" d="M 134.89 0.0000 L 134.89 277.00" />
      </g>
    </g>
    <clipPath id="clip48">
      <path id="path432" d="M 0.0000 0.0000 L 0.0000 277.00 L 385.00 277.00 L 385.00 0.0000 z" />
    </clipPath>
    <g id="g434" clip-path="url(#clip48)">
      <g id="g436" stroke="#c0c0c0" stroke-opacity="1.0000" fill="none" stroke-linecap="round" stroke-linejoin="round">
        <path id="path438" d="M 160.64 0.0000 L 160.64 277.00" />
      </g>
    </g>
    <clipPath id="clip49">
      <path id="path441" d="M 0.0000 0.0000 L 0.0000 277.00 L 385.00 277.00 L 385.00 0.0000 z" />
    </clipPath>
    <g id="g443" clip-path="url(#clip49)">
      <g id="g445" stroke="#c0c0c0" stroke-opacity="1.0000" fill="none" stroke-linecap="round" stroke-linejoin="round">
        <path id="path447" d="M 212.14 0.0000 L 212.14 277.00" />
      </g>
    </g>
    <clipPath id="clip50">
      <path id="path450" d="M 0.0000 0.0000 L 0.0000 277.00 L 385.00 277.00 L 385.00 0.0000 z" />
    </clipPath>
    <g id="g452" clip-path="url(#clip50)">
      <g id="g454" stroke="#c0c0c0" stroke-opacity="1.0000" fill="none" stroke-linecap="round" stroke-linejoin="round">
        <path id="path456" d="M 237.88 0.0000 L 237.88 277.00" />
      </g>
    </g>
    <clipPath id="clip51">
      <path id="path459" d="M 0.0000 0.0000 L 0.0000 277.00 L 385.00 277.00 L 385.00 0.0000 z" />
    </clipPath>
    <g id="g461" clip-path="url(#clip51)">
      <g id="g463" stroke="#c0c0c0" stroke-opacity="1.0000" fill="none" stroke-linecap="round" stroke-linejoin="round">
        <path id="path465" d="M 263.63 0.0000 L 263.63 277.00" />
      </g>
    </g>
    <clipPath id="clip52">
      <path id="path468" d="M 0.0000 0.0000 L 0.0000 277.00 L 385.00 277.00 L 385.00 0.0000 z" />
    </clipPath>
    <g id="g470" clip-path="url(#clip52)">
      <g id="g472" stroke="#c0c0c0" stroke-opacity="1.0000" fill="none" stroke-linecap="round" stroke-linejoin="round">
        <path id="path474" d="M 289.38 0.0000 L 289.38 277.00" />
      </g>
    </g>
    <clipPath id="clip53">
      <path id="path477" d="M 0.0000 0.0000 L 0.0000 277.00 L 385.00 277.00 L 385.00 0.0000 z" />
    </clipPath>
    <g id="g479" clip-path="url(#clip53)">
      <g id="g481" stroke="#c0c0c0" stroke-opacity="1.0000" fill="none" stroke-linecap="round" stroke-linejoin="round">
        <path id="path483" d="M 315.12 0.0000 L 315.12 277.00" />
      </g>
    </g>
    <clipPath id="clip54">
      <path id="path486" d="M 0.0000 0.0000 L 0.0000 277.00 L 385.00 277.00 L 385.00 0.0000 z" />
    </clipPath>
    <g id="g488" clip-path="url(#clip54)">
      <g id="g490" stroke="#c0c0c0" stroke-opacity="1.0000" fill="none" stroke-linecap="round" stroke-linejoin="round">
        <path id="path492" d="M 340.87 0.0000 L 340.87 277.00" />
      </g>
    </g>
    <clipPath id="clip55">
      <path id="path495" d="M 0.0000 0.0000 L 0.0000 277.00 L 385.00 277.00 L 385.00 0.0000 z" />
    </clipPath>
    <g id="g497" clip-path="url(#clip55)">
      <g id="g499" stroke="#c0c0c0" stroke-opacity="1.0000" fill="none" stroke-linecap="round" stroke-linejoin="round">
        <path id="path501" d="M 366.62 0.0000 L 366.62 277.00" />
      </g>
    </g>
    <clipPath id="clip56">
      <path id="path504" d="M 0.0000 0.0000 L 0.0000 277.00 L 385.00 277.00 L 385.00 0.0000 z" />
    </clipPath>
    <g id="g506" clip-path="url(#clip56)">
      <g id="g508" stroke="#c0c0c0" stroke-opacity="1.0000" fill="none" stroke-linecap="round" stroke-linejoin="round">
        <path id="path510" d="M 0.0000 1.9529 L 385.00 1.9529" />
      </g>
    </g>
    <clipPath id="clip57">
      <path id="path513" d="M 0.0000 0.0000 L 0.0000 277.00 L 385.00 277.00 L 385.00 0.0000 z" />
    </clipPath>
    <g id="g515" clip-path="url(#clip57)">
      <g id="g517" stroke="#c0c0c0" stroke-opacity="1.0000" fill="none" stroke-linecap="round" stroke-linejoin="round">
        <path id="path519" d="M 0.0000 1.9529 L 385.00 1.9529" />
      </g>
    </g>
    <clipPath id="clip58">
      <path id="path522" d="M 0.0000 0.0000 L 0.0000 277.00 L 385.00 277.00 L 385.00 0.0000 z" />
    </clipPath>
    <g id="g524" clip-path="url(#clip58)">
      <g id="g526" stroke="#c0c0c0" stroke-opacity="1.0000" fill="none" stroke-linecap="round" stroke-linejoin="round">
        <path id="path528" d="M 0.0000 27.700 L 163.74 27.700" />
      </g>
    </g>
    <clipPath id="clip59">
      <path id="path531" d="M 0.0000 0.0000 L 0.0000 277.00 L 385.00 277.00 L 385.00 0.0000 z" />
    </clipPath>
    <g id="g533" clip-path="url(#clip59)">
      <g id="g535" stroke="#c0c0c0" stroke-opacity="1.0000" fill="none" stroke-linecap="round" stroke-linejoin="round">
        <path id="path537" d="M 186.39 27.700 L 385.00 27.700" />
      </g>
    </g>
    <clipPath id="clip60">
      <path id="path540" d="M 0.0000 0.0000 L 0.0000 277.00 L 385.00 277.00 L 385.00 0.0000 z" />
    </clipPath>
    <g id="g542" clip-path="url(#clip60)">
      <g id="g544" stroke="#c0c0c0" stroke-opacity="1.0000" fill="none" stroke-linecap="round" stroke-linejoin="round">
        <path id="path546" d="M 0.0000 53.447 L 163.74 53.447" />
      </g>
    </g>
    <clipPath id="clip61">
      <path id="path549" d="M 0.0000 0.0000 L 0.0000 277.00 L 385.00 277.00 L 385.00 0.0000 z" />
    </clipPath>
    <g id="g551" clip-path="url(#clip61)">
      <g id="g553" stroke="#c0c0c0" stroke-opacity="1.0000" fill="none" stroke-linecap="round" stroke-linejoin="round">
        <path id="path555" d="M 186.39 53.447 L 385.00 53.447" />
      </g>
    </g>
    <clipPath id="clip62">
      <path id="path558" d="M 0.0000 0.0000 L 0.0000 277.00 L 385.00 277.00 L 385.00 0.0000 z" />
    </clipPath>
    <g id="g560" clip-path="url(#clip62)">
      <g id="g562" stroke="#c0c0c0" stroke-opacity="1.0000" fill="none" stroke-linecap="round" stroke-linejoin="round">
        <path id="path564" d="M 0.0000 79.193 L 163.74 79.193" />
      </g>
    </g>
    <clipPath id="clip63">
      <path id="path567" d="M 0.0000 0.0000 L 0.0000 277.00 L 385.00 277.00 L 385.00 0.0000 z" />
    </clipPath>
    <g id="g569" clip-path="url(#clip63)">
      <g id="g571" stroke="#c0c0c0" stroke-opacity="1.0000" fill="none" stroke-linecap="round" stroke-linejoin="round">
        <path id="path573" d="M 186.39 79.193 L 385.00 79.193" />
      </g>
    </g>
    <clipPath id="clip64">
      <path id="path576" d="M 0.0000 0.0000 L 0.0000 277.00 L 385.00 277.00 L 385.00 0.0000 z" />
    </clipPath>
    <g id="g578" clip-path="url(#clip64)">
      <g id="g580" stroke="#c0c0c0" stroke-opacity="1.0000" fill="none" stroke-linecap="round" stroke-linejoin="round">
        <path id="path582" d="M 0.0000 104.94 L 163.74 104.94" />
      </g>
    </g>
    <clipPath id="clip65">
      <path id="path585" d="M 0.0000 0.0000 L 0.0000 277.00 L 385.00 277.00 L 385.00 0.0000 z" />
    </clipPath>
    <g id="g587" clip-path="url(#clip65)">
      <g id="g589" stroke="#c0c0c0" stroke-opacity="1.0000" fill="none" stroke-linecap="round" stroke-linejoin="round">
        <path id="path591" d="M 186.39 104.94 L 385.00 104.94" />
      </g>
    </g>
    <clipPath id="clip66">
      <path id="path594" d="M 0.0000 0.0000 L 0.0000 277.00 L 385.00 277.00 L 385.00 0.0000 z" />
    </clipPath>
    <g id="g596" clip-path="url(#clip66)">
      <g id="g598" stroke="#c0c0c0" stroke-opacity="1.0000" fill="none" stroke-linecap="round" stroke-linejoin="round">
        <path id="path600" d="M 0.0000 130.69 L 163.74 130.69" />
      </g>
    </g>
    <clipPath id="clip67">
      <path id="path603" d="M 0.0000 0.0000 L 0.0000 277.00 L 385.00 277.00 L 385.00 0.0000 z" />
    </clipPath>
    <g id="g605" clip-path="url(#clip67)">
      <g id="g607" stroke="#c0c0c0" stroke-opacity="1.0000" fill="none" stroke-linecap="round" stroke-linejoin="round">
        <path id="path609" d="M 186.39 130.69 L 385.00 130.69" />
      </g>
    </g>
    <clipPath id="clip68">
      <path id="path612" d="M 0.0000 0.0000 L 0.0000 277.00 L 385.00 277.00 L 385.00 0.0000 z" />
    </clipPath>
    <g id="g614" clip-path="url(#clip68)">
      <g id="g616" stroke="#c0c0c0" stroke-opacity="1.0000" fill="none" stroke-linecap="round" stroke-linejoin="round">
        <path id="path618" d="M 0.0000 182.18 L 165.07 182.18" />
      </g>
    </g>
    <clipPath id="clip69">
      <path id="path621" d="M 0.0000 0.0000 L 0.0000 277.00 L 385.00 277.00 L 385.00 0.0000 z" />
    </clipPath>
    <g id="g623" clip-path="url(#clip69)">
      <g id="g625" stroke="#c0c0c0" stroke-opacity="1.0000" fill="none" stroke-linecap="round" stroke-linejoin="round">
        <path id="path627" d="M 186.39 182.18 L 385.00 182.18" />
      </g>
    </g>
    <clipPath id="clip70">
      <path id="path630" d="M 0.0000 0.0000 L 0.0000 277.00 L 385.00 277.00 L 385.00 0.0000 z" />
    </clipPath>
    <g id="g632" clip-path="url(#clip70)">
      <g id="g634" stroke="#c0c0c0" stroke-opacity="1.0000" fill="none" stroke-linecap="round" stroke-linejoin="round">
        <path id="path636" d="M 0.0000 207.93 L 165.07 207.93" />
      </g>
    </g>
    <clipPath id="clip71">
      <path id="path639" d="M 0.0000 0.0000 L 0.0000 277.00 L 385.00 277.00 L 385.00 0.0000 z" />
    </clipPath>
    <g id="g641" clip-path="url(#clip71)">
      <g id="g643" stroke="#c0c0c0" stroke-opacity="1.0000" fill="none" stroke-linecap="round" stroke-linejoin="round">
        <path id="path645" d="M 186.39 207.93 L 385.00 207.93" />
      </g>
    </g>
    <clipPath id="clip72">
      <path id="path648" d="M 0.0000 0.0000 L 0.0000 277.00 L 385.00 277.00 L 385.00 0.0000 z" />
    </clipPath>
    <g id="g650" clip-path="url(#clip72)">
      <g id="g652" stroke="#c0c0c0" stroke-opacity="1.0000" fill="none" stroke-linecap="round" stroke-linejoin="round">
        <path id="path654" d="M 0.0000 233.67 L 165.07 233.67" />
      </g>
    </g>
    <clipPath id="clip73">
      <path id="path657" d="M 0.0000 0.0000 L 0.0000 277.00 L 385.00 277.00 L 385.00 0.0000 z" />
    </clipPath>
    <g id="g659" clip-path="url(#clip73)">
      <g id="g661" stroke="#c0c0c0" stroke-opacity="1.0000" fill="none" stroke-linecap="round" stroke-linejoin="round">
        <path id="path663" d="M 186.39 233.67 L 385.00 233.67" />
      </g>
    </g>
    <clipPath id="clip74">
      <path id="path666" d="M 0.0000 0.0000 L 0.0000 277.00 L 385.00 277.00 L 385.00 0.0000 z" />
    </clipPath>
    <g id="g668" clip-path="url(#clip74)">
      <g id="g670" stroke="#c0c0c0" stroke-opacity="1.0000" fill="none" stroke-linecap="round" stroke-linejoin="round">
        <path id="path672" d="M 0.0000 259.42 L 165.07 259.42" />
      </g>
    </g>
    <clipPath id="clip75">
      <path id="path675" d="M 0.0000 0.0000 L 0.0000 277.00 L 385.00 277.00 L 385.00 0.0000 z" />
    </clipPath>
    <g id="g677" clip-path="url(#clip75)">
      <g id="g679" stroke="#c0c0c0" stroke-opacity="1.0000" fill="none" stroke-linecap="round" stroke-linejoin="round">
        <path id="path681" d="M 186.39 259.42 L 385.00 259.42" />
      </g>
    </g>
    <g id="misc" />
    <g id="layer0">
      <clipPath id="clip76">
        <path id="path686" d="M 0.0000 0.0000 L 0.0000 277.00 L 385.00 277.00 L 385.00 0.0000 z" />
      </clipPath>
      <g id="g688" clip-path="url(#clip76)">
        <g id="g690" stroke="#0000ff" stroke-opacity="1.0000" fill="none" stroke-linecap="round" stroke-width="2.5000" stroke-linejoin="round">
          <path id="path692" d="M 0.0000 145.51 L 3.0078 152.25 L 6.0156 158.86 L 9.0234 165.09 L 12.031 170.65 L 15.039 175.32 L 18.047 178.89 L 19.551 180.21 L 21.055 181.20 L 22.559 181.85 L 23.311 182.05 L 24.062 182.16 L 25.566 182.11 L 26.318 181.96 L 27.070 181.71 L 28.574 180.97 L 30.078 179.89 L 31.582 178.49 L 33.086 176.77 L 36.094 172.48 L 39.102 167.22 L 42.109 161.21 L 45.117 154.71 L 48.125 147.99 L 51.133 141.31 L 54.141 134.95 L 57.148 129.13 L 60.156 124.07 L 63.164 119.92 L 66.172 116.77 L 67.676 115.60 L 69.180 114.69 L 70.684 114.05 L 72.188 113.66 L 73.691 113.52 L 75.195 113.62 L 76.699 113.94 L 78.203 114.45 L 81.211 116.01 L 84.219 118.09 L 87.227 120.50 L 90.234 123.02 L 93.242 125.44 L 96.250 127.56 L 99.258 129.21 L 102.27 130.28 L 103.77 130.57 L 105.27 130.69 L 108.28 130.39 L 109.79 129.98 L 111.29 129.42 L 114.30 127.84 L 117.30 125.78 L 120.31 123.40 L 123.32 120.88 L 126.33 118.44 L 129.34 116.30 L 132.34 114.65 L 133.85 114.07 L 135.35 113.69 L 136.86 113.53 L 138.36 113.59 L 139.86 113.90 L 141.37 114.47 L 142.87 115.29 L 144.38 116.39 L 147.38 119.37 L 150.39 123.38 L 153.40 128.31 L 156.41 134.02 L 159.41 140.32 L 162.42 146.96 L 165.43 153.70 L 168.44 160.25 L 171.45 166.35 L 174.45 171.74 L 177.46 176.19 L 180.47 179.50 L 181.97 180.68 L 183.48 181.52 L 184.23 181.82 L 184.98 182.03 L 186.48 182.18 L 187.24 182.12 L 187.99 181.98 L 189.49 181.44 L 190.24 181.03 L 191.00 180.55 L 192.50 179.32 L 195.51 175.94 L 198.52 171.42 L 201.52 165.98 L 204.53 159.84 L 207.54 153.27 L 210.55 146.53 L 213.55 139.90 L 216.56 133.64 L 219.57 127.97 L 222.58 123.09 L 225.59 119.15 L 228.59 116.23 L 230.10 115.17 L 231.60 114.38 L 233.11 113.85 L 234.61 113.57 L 236.11 113.54 L 237.62 113.73 L 239.12 114.14 L 240.62 114.73 L 243.63 116.42 L 246.64 118.59 L 249.65 121.05 L 252.66 123.56 L 255.66 125.93 L 258.67 127.96 L 261.68 129.50 L 264.69 130.43 L 266.19 130.64 L 267.70 130.68 L 270.70 130.23 L 272.21 129.76 L 273.71 129.12 L 276.72 127.43 L 279.73 125.29 L 282.73 122.86 L 285.74 120.34 L 288.75 117.95 L 291.76 115.89 L 294.77 114.38 L 296.27 113.88 L 297.77 113.60 L 299.28 113.53 L 300.78 113.70 L 302.29 114.12 L 303.79 114.79 L 305.29 115.73 L 306.80 116.94 L 309.80 120.15 L 312.81 124.37 L 315.82 129.48 L 318.83 135.34 L 321.84 141.73 L 324.84 148.42 L 327.85 155.14 L 330.86 161.62 L 333.87 167.59 L 336.88 172.79 L 339.88 177.01 L 342.89 180.05 L 343.64 180.61 L 344.39 181.09 L 345.90 181.78 L 346.65 182.00 L 347.40 182.14 L 348.91 182.14 L 349.66 182.01 L 350.41 181.79 L 351.91 181.09 L 353.42 180.06 L 354.92 178.70 L 357.93 175.05 L 360.94 170.32 L 363.95 164.71 L 366.95 158.45 L 369.96 151.82 L 372.97 145.08 L 375.98 138.51 L 378.98 132.36 L 381.99 126.84 L 385.00 122.16" />
          <title id="title694">Function f</title>
          <desc id="desc696">f(x) = 3sin(x)Ã&#130;Â² - 2cos(x)</desc>
        </g>
      </g>
      <clipPath id="clip77">
        <path id="path699" d="M 0.0000 0.0000 L 0.0000 277.00 L 385.00 277.00 L 385.00 0.0000 z" />
      </clipPath>
      <g id="g701" clip-path="url(#clip77)">
        <g id="g703" stroke="#ff00ff" stroke-opacity="1.0000" fill="none" stroke-linecap="round" stroke-width="2.5000" stroke-linejoin="round">
          <path id="path705" d="M 0.0000 41.401 L 3.0078 48.138 L 6.0156 54.777 L 9.0234 61.046 L 12.031 66.680 L 15.039 71.438 L 18.047 75.114 L 19.551 76.493 L 21.055 77.546 L 22.559 78.260 L 23.311 78.488 L 24.062 78.628 L 25.566 78.645 L 26.318 78.522 L 27.070 78.312 L 28.574 77.631 L 30.078 76.611 L 31.582 75.264 L 33.086 73.602 L 36.094 69.416 L 39.102 64.235 L 42.109 58.283 L 45.117 51.813 L 48.125 45.096 L 51.133 38.405 L 54.141 32.003 L 57.148 26.131 L 60.156 20.993 L 63.164 16.751 L 66.172 13.514 L 67.676 12.292 L 69.180 11.336 L 70.684 10.645 L 72.188 10.213 L 73.691 10.030 L 75.195 10.086 L 76.699 10.364 L 78.203 10.846 L 81.211 12.342 L 84.219 14.388 L 87.227 16.777 L 90.234 19.295 L 93.242 21.727 L 96.250 23.880 L 99.258 25.586 L 102.27 26.713 L 103.77 27.031 L 105.27 27.177 L 108.28 26.944 L 109.79 26.569 L 111.29 26.031 L 114.30 24.506 L 117.30 22.485 L 120.31 20.124 L 123.32 17.612 L 126.33 15.156 L 129.34 12.972 L 132.34 11.271 L 133.85 10.664 L 135.35 10.247 L 136.86 10.042 L 138.36 10.064 L 139.86 10.329 L 141.37 10.846 L 142.87 11.625 L 144.38 12.670 L 147.38 15.558 L 150.39 19.474 L 153.40 24.329 L 156.41 29.977 L 159.41 36.228 L 162.42 42.851 L 165.43 49.590 L 168.44 56.172 L 171.45 62.326 L 174.45 67.790 L 177.46 72.330 L 180.47 75.749 L 181.97 76.989 L 183.48 77.897 L 184.23 78.222 L 184.98 78.462 L 186.48 78.678 L 187.24 78.655 L 187.99 78.544 L 189.49 78.060 L 190.24 77.688 L 191.00 77.232 L 192.50 76.069 L 195.51 72.792 L 198.52 68.374 L 201.52 63.006 L 204.53 56.920 L 207.54 50.374 L 210.55 43.640 L 213.55 36.989 L 216.56 30.683 L 219.57 24.953 L 222.58 19.997 L 225.59 15.964 L 228.59 12.954 L 230.10 11.846 L 231.60 11.005 L 233.11 10.427 L 234.61 10.104 L 236.11 10.026 L 237.62 10.180 L 239.12 10.548 L 240.62 11.113 L 243.63 12.744 L 246.64 14.882 L 249.65 17.318 L 252.66 19.834 L 255.66 22.222 L 258.67 24.292 L 261.68 25.882 L 264.69 26.871 L 266.19 27.116 L 267.70 27.186 L 270.70 26.803 L 272.21 26.356 L 273.71 25.750 L 276.72 24.106 L 279.73 21.998 L 282.73 19.588 L 285.74 17.070 L 288.75 14.654 L 291.76 12.557 L 294.77 10.987 L 296.27 10.459 L 297.77 10.132 L 299.28 10.023 L 300.78 10.148 L 302.29 10.521 L 303.79 11.151 L 305.29 12.044 L 306.80 13.204 L 309.80 16.319 L 312.81 20.448 L 315.82 25.488 L 318.83 31.284 L 321.84 37.635 L 324.84 44.306 L 327.85 51.034 L 330.86 57.547 L 333.87 63.573 L 336.88 68.856 L 339.88 73.170 L 342.89 76.325 L 343.64 76.915 L 344.39 77.422 L 345.90 78.183 L 346.65 78.434 L 347.40 78.598 L 348.91 78.663 L 349.66 78.564 L 350.41 78.378 L 351.91 77.744 L 352.67 77.299 L 353.42 76.770 L 354.92 75.466 L 357.93 71.928 L 360.94 67.287 L 363.95 61.744 L 366.95 55.536 L 369.96 48.926 L 372.97 42.187 L 375.98 35.589 L 378.98 29.389 L 381.99 23.811 L 385.00 19.043" />
          <title id="title707">Function f_1</title>
          <desc id="desc709">f_1(x) = 3sin(x + 6.27)Ã&#130;Â² - (2cos(x + 6.27) - 8.04)</desc>
        </g>
      </g>
      <clipPath id="clip78">
        <path id="path712" d="M 0.0000 0.0000 L 0.0000 277.00 L 385.00 277.00 L 385.00 0.0000 z" />
      </clipPath>
      <g id="g714" clip-path="url(#clip78)">
        <g id="g716" fill="#000000" stroke="none" fill-rule="nonzero" fill-opacity="1.0000">
          <path id="path718" d="M 265.20 172.00 L 265.20 166.58 L 264.96 166.58 Q 264.20 166.58 263.43 166.99 L 263.43 165.93 Q 264.12 165.64 265.09 165.64 L 271.93 165.64 L 271.93 166.58 L 270.48 166.58 L 270.48 170.27 Q 270.48 171.26 270.93 172.00 L 269.71 172.00 Q 269.32 171.16 269.32 170.22 L 269.32 166.58 L 266.36 166.58 L 266.36 172.00 z" />
          <title id="title720">Ã&#143;Â&#128;</title>
          <desc id="desc722">text1 = &quot;Ã&#143;Â&#128;&quot;</desc>
        </g>
      </g>
      <clipPath id="clip79">
        <path id="path725" d="M 0.0000 0.0000 L 0.0000 277.00 L 385.00 277.00 L 385.00 0.0000 z" />
      </clipPath>
      <g id="g727" clip-path="url(#clip79)">
        <g id="g729" fill="#000000" stroke="none" fill-rule="nonzero" fill-opacity="1.0000">
          <path id="path731" d="M 92.867 167.96 L 92.867 167.10 L 98.070 167.10 L 98.070 167.96 z M 101.15 171.00 L 101.15 165.58 L 100.91 165.58 Q 100.14 165.58 99.377 165.99 L 99.377 164.93 Q 100.06 164.64 101.04 164.64 L 107.87 164.64 L 107.87 165.58 L 106.43 165.58 L 106.43 169.27 Q 106.43 170.26 106.88 171.00 L 105.65 171.00 Q 105.27 170.16 105.27 169.22 L 105.27 165.58 L 102.31 165.58 L 102.31 171.00 z" />
          <title id="title733">-Ã&#143;Â&#128;</title>
          <desc id="desc735">text2 = &quot;-Ã&#143;Â&#128;&quot;</desc>
        </g>
      </g>
      <clipPath id="clip80">
        <path id="path738" d="M 0.0000 0.0000 L 0.0000 277.00 L 385.00 277.00 L 385.00 0.0000 z" />
      </clipPath>
      <g id="g740" clip-path="url(#clip80)">
        <g id="g742" fill="#000000" stroke="none" fill-rule="nonzero" fill-opacity="1.0000">
          <path id="path744" d="M 340.00 171.00 L 340.00 169.99 Q 340.50 168.81 342.04 167.42 L 342.70 166.83 Q 343.97 165.67 343.97 164.54 Q 343.97 163.81 343.54 163.39 Q 343.10 162.98 342.34 162.98 Q 341.44 162.98 340.21 163.68 L 340.21 162.66 Q 341.37 162.11 342.50 162.11 Q 343.72 162.11 344.46 162.77 Q 345.20 163.42 345.20 164.51 Q 345.20 165.29 344.83 165.89 Q 344.46 166.49 343.44 167.36 L 343.00 167.74 Q 341.61 168.91 341.39 169.99 L 345.16 169.99 L 345.16 171.00 z M 348.79 171.00 L 348.79 165.58 L 348.55 165.58 Q 347.78 165.58 347.02 165.99 L 347.02 164.93 Q 347.71 164.64 348.68 164.64 L 355.52 164.64 L 355.52 165.58 L 354.07 165.58 L 354.07 169.27 Q 354.07 170.26 354.52 171.00 L 353.30 171.00 Q 352.91 170.16 352.91 169.22 L 352.91 165.58 L 349.95 165.58 L 349.95 171.00 z" />
          <title id="title746">2Ã&#143;Â&#128;</title>
          <desc id="desc748">text3 = &quot;2Ã&#143;Â&#128;&quot;</desc>
        </g>
      </g>
      <clipPath id="clip81">
        <path id="path751" d="M 0.0000 0.0000 L 0.0000 277.00 L 385.00 277.00 L 385.00 0.0000 z" />
      </clipPath>
      <g id="g753" clip-path="url(#clip81)">
        <g id="g755" fill="#000000" stroke="none" fill-rule="nonzero" fill-opacity="1.0000">
          <path id="path757" d="M 9.8672 167.96 L 9.8672 167.10 L 15.070 167.10 L 15.070 167.96 z M 16.939 171.00 L 16.939 169.99 Q 17.443 168.81 18.979 167.42 L 19.641 166.83 Q 20.918 165.67 20.918 164.54 Q 20.918 163.81 20.481 163.39 Q 20.045 162.98 19.283 162.98 Q 18.381 162.98 17.156 163.68 L 17.156 162.66 Q 18.311 162.11 19.447 162.11 Q 20.666 162.11 21.404 162.77 Q 22.143 163.42 22.143 164.51 Q 22.143 165.29 21.771 165.89 Q 21.398 166.49 20.385 167.36 L 19.939 167.74 Q 18.551 168.91 18.334 169.99 L 22.102 169.99 L 22.102 171.00 z M 25.734 171.00 L 25.734 165.58 L 25.494 165.58 Q 24.727 165.58 23.965 165.99 L 23.965 164.93 Q 24.650 164.64 25.623 164.64 L 32.461 164.64 L 32.461 165.58 L 31.014 165.58 L 31.014 169.27 Q 31.014 170.26 31.465 171.00 L 30.240 171.00 Q 29.854 170.16 29.854 169.22 L 29.854 165.58 L 26.895 165.58 L 26.895 171.00 z" />
          <title id="title759">-2Ã&#143;Â&#128;</title>
          <desc id="desc761">text4 = &quot;-2Ã&#143;Â&#128;&quot;</desc>
        </g>
      </g>
    </g>
  </g>
</svg>