<?xml version='1.0' ?><svg xmlns:dc="http://purl.org/dc/elements/1.1/" xmlns:cc="http://creativecommons.org/ns#" xmlns:rdf="http://www.w3.org/1999/02/22-rdf-syntax-ns#" xmlns:svg="http://www.w3.org/2000/svg" xmlns="http://www.w3.org/2000/svg" id="svg2" version="1.1" width="372.49997" height="270.37857" viewBox="0.0 0.4479966114362416 382.9999691543624 277.9999793557047" preserveAspectRatio="none">
  <metadata id="metadata1088">
    <rdf:RDF>
      <cc:Work rdf:about="">
        <dc:format>image/svg+xml</dc:format>
        <dc:type rdf:resource="http://purl.org/dc/dcmitype/StillImage" />
      </cc:Work>
    </rdf:RDF>
  </metadata>
  <defs id="defs1086" />
  <title id="title4" />
  <g id="g6" stroke-linecap="square" stroke-miterlimit="10.000" stroke-width="1.0000" stroke-dasharray="none" stroke-dashoffset="0.0000" stroke-linejoin="miter">
    <clipPath id="clip1">
      <path id="path9" d="M 0.0000 0.0000 L 0.0000 278.00 L 383.00 278.00 L 383.00 0.0000 z" />
    </clipPath>
    <g id="g11" clip-path="url(#clip1)">
      <g id="g13" stroke="#000000" stroke-opacity="1.0000" fill="none" stroke-linecap="butt">
        <path id="path15" d="M 196.53 2.0000 L 196.53 278.00" />
      </g>
    </g>
    <clipPath id="clip2">
      <path id="path18" d="M 0.0000 0.0000 L 0.0000 278.00 L 383.00 278.00 L 383.00 0.0000 z" />
    </clipPath>
    <g id="g20" clip-path="url(#clip2)">
      <g id="g22" stroke="#000000" stroke-opacity="1.0000" fill="none" stroke-linecap="butt">
        <path id="path24" d="M 196.53 1.0000 L 193.53 4.0000" />
      </g>
    </g>
    <clipPath id="clip3">
      <path id="path27" d="M 0.0000 0.0000 L 0.0000 278.00 L 383.00 278.00 L 383.00 0.0000 z" />
    </clipPath>
    <g id="g29" clip-path="url(#clip3)">
      <g id="g31" stroke="#000000" stroke-opacity="1.0000" fill="none" stroke-linecap="butt">
        <path id="path33" d="M 196.53 1.0000 L 199.53 4.0000" />
      </g>
    </g>
    <clipPath id="clip4">
      <path id="path36" d="M 0.0000 0.0000 L 0.0000 278.00 L 383.00 278.00 L 383.00 0.0000 z" />
    </clipPath>
    <g id="g38" clip-path="url(#clip4)">
      <g id="g40" stroke="#000000" stroke-opacity="1.0000" fill="none" stroke-linecap="butt">
        <path id="path42" d="M 0.0000 158.68 L 381.00 158.68" />
      </g>
    </g>
    <clipPath id="clip5">
      <path id="path45" d="M 0.0000 0.0000 L 0.0000 278.00 L 383.00 278.00 L 383.00 0.0000 z" />
    </clipPath>
    <g id="g47" clip-path="url(#clip5)">
      <g id="g49" stroke="#000000" stroke-opacity="1.0000" fill="none" stroke-linecap="butt">
        <path id="path51" d="M 382.00 158.68 L 379.00 155.68" />
      </g>
    </g>
    <clipPath id="clip6">
      <path id="path54" d="M 0.0000 0.0000 L 0.0000 278.00 L 383.00 278.00 L 383.00 0.0000 z" />
    </clipPath>
    <g id="g56" clip-path="url(#clip6)">
      <g id="g58" stroke="#000000" stroke-opacity="1.0000" fill="none" stroke-linecap="butt">
        <path id="path60" d="M 382.00 158.68 L 379.00 161.68" />
      </g>
    </g>
    <clipPath id="clip7">
      <path id="path63" d="M 0.0000 0.0000 L 0.0000 278.00 L 383.00 278.00 L 383.00 0.0000 z" />
    </clipPath>
    <g id="g65" clip-path="url(#clip7)">
      <g id="g67" fill="#000000" stroke="none" fill-rule="nonzero" fill-opacity="1.0000">
        <path id="path69" d="M 7.5127 169.35 L 7.5127 168.68 L 11.487 168.68 L 11.487 169.35 z M 14.300 168.06 Q 13.240 167.33 13.240 166.43 Q 13.240 165.61 13.841 165.10 Q 14.441 164.59 15.408 164.59 Q 16.302 164.59 16.856 165.02 Q 17.410 165.46 17.410 166.15 Q 17.410 167.20 16.062 168.06 Q 17.698 168.87 17.698 170.13 Q 17.698 171.04 17.012 171.61 Q 16.326 172.18 15.242 172.18 Q 14.178 172.18 13.521 171.64 Q 12.864 171.10 12.864 170.22 Q 12.864 168.92 14.300 168.06 z M 15.525 167.76 Q 16.536 167.10 16.536 166.28 Q 16.536 165.85 16.199 165.58 Q 15.862 165.32 15.311 165.32 Q 14.778 165.32 14.446 165.58 Q 14.114 165.84 14.114 166.25 Q 14.114 166.66 14.415 166.98 Q 14.715 167.30 15.525 167.76 z M 14.822 168.46 Q 14.241 168.90 14.034 169.24 Q 13.826 169.57 13.826 170.07 Q 13.826 170.69 14.227 171.07 Q 14.627 171.46 15.281 171.46 Q 15.911 171.46 16.309 171.13 Q 16.707 170.80 16.707 170.28 Q 16.707 169.86 16.460 169.57 Q 16.214 169.28 15.506 168.86 z" />
      </g>
    </g>
    <clipPath id="clip8">
      <path id="path72" d="M 0.0000 0.0000 L 0.0000 278.00 L 383.00 278.00 L 383.00 0.0000 z" />
    </clipPath>
    <g id="g74" clip-path="url(#clip8)">
      <g id="g76" stroke="#000000" stroke-opacity="1.0000" fill="none" stroke-linecap="butt">
        <path id="path78" d="M 11.878 158.68 L 11.878 161.68" />
      </g>
    </g>
    <clipPath id="clip9">
      <path id="path81" d="M 0.0000 0.0000 L 0.0000 278.00 L 383.00 278.00 L 383.00 0.0000 z" />
    </clipPath>
    <g id="g83" clip-path="url(#clip9)">
      <g id="g85" fill="#000000" stroke="none" fill-rule="nonzero" fill-opacity="1.0000">
        <path id="path87" d="M 30.513 169.35 L 30.513 168.68 L 34.487 168.68 L 34.487 169.35 z M 36.504 172.00 Q 36.646 171.16 36.907 170.54 Q 37.168 169.92 37.832 168.85 L 39.805 165.68 L 36.084 165.68 L 36.084 164.77 L 40.723 164.77 L 40.723 165.68 Q 37.944 169.77 37.612 172.00 z" />
      </g>
    </g>
    <clipPath id="clip10">
      <path id="path90" d="M 0.0000 0.0000 L 0.0000 278.00 L 383.00 278.00 L 383.00 0.0000 z" />
    </clipPath>
    <g id="g92" clip-path="url(#clip10)">
      <g id="g94" stroke="#000000" stroke-opacity="1.0000" fill="none" stroke-linecap="butt">
        <path id="path96" d="M 34.959 158.68 L 34.959 161.68" />
      </g>
    </g>
    <clipPath id="clip11">
      <path id="path99" d="M 0.0000 0.0000 L 0.0000 278.00 L 383.00 278.00 L 383.00 0.0000 z" />
    </clipPath>
    <g id="g101" clip-path="url(#clip11)">
      <g id="g103" fill="#000000" stroke="none" fill-rule="nonzero" fill-opacity="1.0000">
        <path id="path105" d="M 54.513 169.35 L 54.513 168.68 L 58.487 168.68 L 58.487 169.35 z M 60.719 168.25 Q 61.407 167.36 62.452 167.36 Q 63.399 167.36 64.002 167.99 Q 64.605 168.62 64.605 169.60 Q 64.605 170.73 63.929 171.45 Q 63.253 172.18 62.213 172.18 Q 61.017 172.18 60.343 171.22 Q 59.669 170.26 59.669 168.55 Q 59.669 166.67 60.443 165.63 Q 61.217 164.59 62.623 164.59 Q 63.268 164.59 64.234 164.86 L 64.234 165.70 Q 63.214 165.31 62.564 165.31 Q 60.719 165.31 60.719 168.25 z M 63.639 169.81 Q 63.639 168.99 63.270 168.52 Q 62.901 168.05 62.247 168.05 Q 61.637 168.05 61.197 168.46 Q 60.758 168.88 60.758 169.45 Q 60.758 170.36 61.175 170.91 Q 61.593 171.46 62.281 171.46 Q 62.901 171.46 63.270 171.01 Q 63.639 170.56 63.639 169.81 z" />
      </g>
    </g>
    <clipPath id="clip12">
      <path id="path108" d="M 0.0000 0.0000 L 0.0000 278.00 L 383.00 278.00 L 383.00 0.0000 z" />
    </clipPath>
    <g id="g110" clip-path="url(#clip12)">
      <g id="g112" stroke="#000000" stroke-opacity="1.0000" fill="none" stroke-linecap="butt">
        <path id="path114" d="M 58.040 158.68 L 58.040 161.68" />
      </g>
    </g>
    <clipPath id="clip13">
      <path id="path117" d="M 0.0000 0.0000 L 0.0000 278.00 L 383.00 278.00 L 383.00 0.0000 z" />
    </clipPath>
    <g id="g119" clip-path="url(#clip13)">
      <g id="g121" fill="#000000" stroke="none" fill-rule="nonzero" fill-opacity="1.0000">
        <path id="path123" d="M 77.513 169.35 L 77.513 168.68 L 81.487 168.68 L 81.487 169.35 z M 83.216 172.03 L 83.216 171.17 Q 83.934 171.46 84.583 171.46 Q 85.296 171.46 85.704 171.04 Q 86.111 170.62 86.111 169.88 Q 86.111 168.25 83.870 168.25 Q 83.616 168.25 83.338 168.29 L 83.338 164.77 L 86.995 164.77 L 86.995 165.61 L 84.183 165.61 L 84.183 167.52 Q 85.574 167.52 86.355 168.16 Q 87.137 168.80 87.137 169.93 Q 87.137 170.98 86.426 171.58 Q 85.716 172.18 84.456 172.18 Q 83.909 172.18 83.216 172.03 z" />
      </g>
    </g>
    <clipPath id="clip14">
      <path id="path126" d="M 0.0000 0.0000 L 0.0000 278.00 L 383.00 278.00 L 383.00 0.0000 z" />
    </clipPath>
    <g id="g128" clip-path="url(#clip14)">
      <g id="g130" stroke="#000000" stroke-opacity="1.0000" fill="none" stroke-linecap="butt">
        <path id="path132" d="M 81.121 158.68 L 81.121 161.68" />
      </g>
    </g>
    <clipPath id="clip15">
      <path id="path135" d="M 0.0000 0.0000 L 0.0000 278.00 L 383.00 278.00 L 383.00 0.0000 z" />
    </clipPath>
    <g id="g137" clip-path="url(#clip15)">
      <g id="g139" fill="#000000" stroke="none" fill-rule="nonzero" fill-opacity="1.0000">
        <path id="path141" d="M 100.51 169.35 L 100.51 168.68 L 104.49 168.68 L 104.49 169.35 z M 108.76 172.00 L 108.76 169.95 L 105.51 169.95 L 105.51 169.23 L 108.76 164.77 L 109.67 164.77 L 109.67 169.17 L 110.63 169.17 L 110.63 169.95 L 109.67 169.95 L 109.67 172.00 z M 106.46 169.17 L 108.83 169.17 L 108.83 165.96 z" />
      </g>
    </g>
    <clipPath id="clip16">
      <path id="path144" d="M 0.0000 0.0000 L 0.0000 278.00 L 383.00 278.00 L 383.00 0.0000 z" />
    </clipPath>
    <g id="g146" clip-path="url(#clip16)">
      <g id="g148" stroke="#000000" stroke-opacity="1.0000" fill="none" stroke-linecap="butt">
        <path id="path150" d="M 104.20 158.68 L 104.20 161.68" />
      </g>
    </g>
    <clipPath id="clip17">
      <path id="path153" d="M 0.0000 0.0000 L 0.0000 278.00 L 383.00 278.00 L 383.00 0.0000 z" />
    </clipPath>
    <g id="g155" clip-path="url(#clip17)">
      <g id="g157" fill="#000000" stroke="none" fill-rule="nonzero" fill-opacity="1.0000">
        <path id="path159" d="M 123.51 169.35 L 123.51 168.68 L 127.49 168.68 L 127.49 169.35 z M 129.02 171.95 L 129.02 171.05 Q 130.05 171.46 130.65 171.46 Q 131.33 171.46 131.77 171.06 Q 132.20 170.65 132.20 170.01 Q 132.20 168.49 130.07 168.49 L 129.68 168.49 L 129.68 167.84 L 130.02 167.83 Q 132.02 167.83 132.02 166.42 Q 132.02 165.32 130.71 165.32 Q 129.98 165.32 129.11 165.72 L 129.11 164.88 Q 129.97 164.59 130.77 164.59 Q 132.99 164.59 132.99 166.27 Q 132.99 167.54 131.48 168.08 Q 133.23 168.49 133.23 170.00 Q 133.23 171.02 132.56 171.60 Q 131.88 172.18 130.71 172.18 Q 130.04 172.18 129.02 171.95 z" />
      </g>
    </g>
    <clipPath id="clip18">
      <path id="path162" d="M 0.0000 0.0000 L 0.0000 278.00 L 383.00 278.00 L 383.00 0.0000 z" />
    </clipPath>
    <g id="g164" clip-path="url(#clip18)">
      <g id="g166" stroke="#000000" stroke-opacity="1.0000" fill="none" stroke-linecap="butt">
        <path id="path168" d="M 127.28 158.68 L 127.28 161.68" />
      </g>
    </g>
    <clipPath id="clip19">
      <path id="path171" d="M 0.0000 0.0000 L 0.0000 278.00 L 383.00 278.00 L 383.00 0.0000 z" />
    </clipPath>
    <g id="g173" clip-path="url(#clip19)">
      <g id="g175" fill="#000000" stroke="none" fill-rule="nonzero" fill-opacity="1.0000">
        <path id="path177" d="M 146.51 169.35 L 146.51 168.68 L 150.49 168.68 L 150.49 169.35 z M 151.83 172.00 L 151.83 171.16 Q 152.25 170.17 153.53 169.02 L 154.08 168.52 Q 155.15 167.56 155.15 166.61 Q 155.15 166.01 154.78 165.66 Q 154.42 165.32 153.78 165.32 Q 153.03 165.32 152.01 165.90 L 152.01 165.05 Q 152.97 164.59 153.92 164.59 Q 154.94 164.59 155.55 165.14 Q 156.17 165.69 156.17 166.59 Q 156.17 167.24 155.86 167.74 Q 155.55 168.25 154.70 168.96 L 154.33 169.28 Q 153.17 170.26 152.99 171.16 L 156.13 171.16 L 156.13 172.00 z" />
      </g>
    </g>
    <clipPath id="clip20">
      <path id="path180" d="M 0.0000 0.0000 L 0.0000 278.00 L 383.00 278.00 L 383.00 0.0000 z" />
    </clipPath>
    <g id="g182" clip-path="url(#clip20)">
      <g id="g184" stroke="#000000" stroke-opacity="1.0000" fill="none" stroke-linecap="butt">
        <path id="path186" d="M 150.36 158.68 L 150.36 161.68" />
      </g>
    </g>
    <clipPath id="clip21">
      <path id="path189" d="M 0.0000 0.0000 L 0.0000 278.00 L 383.00 278.00 L 383.00 0.0000 z" />
    </clipPath>
    <g id="g191" clip-path="url(#clip21)">
      <g id="g193" fill="#000000" stroke="none" fill-rule="nonzero" fill-opacity="1.0000">
        <path id="path195" d="M 169.51 169.35 L 169.51 168.68 L 173.49 168.68 L 173.49 169.35 z M 175.50 172.00 L 175.50 171.28 L 176.95 171.28 L 176.95 165.57 L 175.50 165.94 L 175.50 165.19 L 177.92 164.59 L 177.92 171.28 L 179.36 171.28 L 179.36 172.00 z" />
      </g>
    </g>
    <clipPath id="clip22">
      <path id="path198" d="M 0.0000 0.0000 L 0.0000 278.00 L 383.00 278.00 L 383.00 0.0000 z" />
    </clipPath>
    <g id="g200" clip-path="url(#clip22)">
      <g id="g202" stroke="#000000" stroke-opacity="1.0000" fill="none" stroke-linecap="butt">
        <path id="path204" d="M 173.45 158.68 L 173.45 161.68" />
      </g>
    </g>
    <clipPath id="clip23">
      <path id="path207" d="M 0.0000 0.0000 L 0.0000 278.00 L 383.00 278.00 L 383.00 0.0000 z" />
    </clipPath>
    <g id="g209" clip-path="url(#clip23)">
      <g id="g211" fill="#000000" stroke="none" fill-rule="nonzero" fill-opacity="1.0000">
        <path id="path213" d="M 205.13 172.18 Q 204.02 172.18 203.33 171.13 Q 202.63 170.08 202.63 168.38 Q 202.63 166.67 203.33 165.63 Q 204.03 164.59 205.16 164.59 Q 206.30 164.59 207.00 165.63 Q 207.69 166.67 207.69 168.37 Q 207.69 170.11 207.00 171.14 Q 206.30 172.18 205.13 172.18 z M 205.14 171.46 Q 206.67 171.46 206.67 168.35 Q 206.67 165.32 205.16 165.32 Q 203.66 165.32 203.66 168.38 Q 203.66 171.46 205.14 171.46 z" />
      </g>
    </g>
    <clipPath id="clip24">
      <path id="path216" d="M 0.0000 0.0000 L 0.0000 278.00 L 383.00 278.00 L 383.00 0.0000 z" />
    </clipPath>
    <g id="g218" clip-path="url(#clip24)">
      <g id="g220" fill="#000000" stroke="none" fill-rule="nonzero" fill-opacity="1.0000">
        <path id="path222" d="M 219.50 172.00 L 219.50 171.28 L 220.95 171.28 L 220.95 165.57 L 219.50 165.94 L 219.50 165.19 L 221.92 164.59 L 221.92 171.28 L 223.36 171.28 L 223.36 172.00 z" />
      </g>
    </g>
    <clipPath id="clip25">
      <path id="path225" d="M 0.0000 0.0000 L 0.0000 278.00 L 383.00 278.00 L 383.00 0.0000 z" />
    </clipPath>
    <g id="g227" clip-path="url(#clip25)">
      <g id="g229" stroke="#000000" stroke-opacity="1.0000" fill="none" stroke-linecap="butt">
        <path id="path231" d="M 219.61 158.68 L 219.61 161.68" />
      </g>
    </g>
    <clipPath id="clip26">
      <path id="path234" d="M 0.0000 0.0000 L 0.0000 278.00 L 383.00 278.00 L 383.00 0.0000 z" />
    </clipPath>
    <g id="g236" clip-path="url(#clip26)">
      <g id="g238" fill="#000000" stroke="none" fill-rule="nonzero" fill-opacity="1.0000">
        <path id="path240" d="M 241.83 172.00 L 241.83 171.16 Q 242.25 170.17 243.53 169.02 L 244.08 168.52 Q 245.15 167.56 245.15 166.61 Q 245.15 166.01 244.78 165.66 Q 244.42 165.32 243.78 165.32 Q 243.03 165.32 242.01 165.90 L 242.01 165.05 Q 242.97 164.59 243.92 164.59 Q 244.94 164.59 245.55 165.14 Q 246.17 165.69 246.17 166.59 Q 246.17 167.24 245.86 167.74 Q 245.55 168.25 244.70 168.96 L 244.33 169.28 Q 243.17 170.26 242.99 171.16 L 246.13 171.16 L 246.13 172.00 z" />
      </g>
    </g>
    <clipPath id="clip27">
      <path id="path243" d="M 0.0000 0.0000 L 0.0000 278.00 L 383.00 278.00 L 383.00 0.0000 z" />
    </clipPath>
    <g id="g245" clip-path="url(#clip27)">
      <g id="g247" stroke="#000000" stroke-opacity="1.0000" fill="none" stroke-linecap="butt">
        <path id="path249" d="M 242.69 158.68 L 242.69 161.68" />
      </g>
    </g>
    <clipPath id="clip28">
      <path id="path252" d="M 0.0000 0.0000 L 0.0000 278.00 L 383.00 278.00 L 383.00 0.0000 z" />
    </clipPath>
    <g id="g254" clip-path="url(#clip28)">
      <g id="g256" fill="#000000" stroke="none" fill-rule="nonzero" fill-opacity="1.0000">
        <path id="path258" d="M 265.02 171.95 L 265.02 171.05 Q 266.05 171.46 266.65 171.46 Q 267.33 171.46 267.77 171.06 Q 268.20 170.65 268.20 170.01 Q 268.20 168.49 266.07 168.49 L 265.68 168.49 L 265.68 167.84 L 266.02 167.83 Q 268.02 167.83 268.02 166.42 Q 268.02 165.32 266.71 165.32 Q 265.98 165.32 265.11 165.72 L 265.11 164.88 Q 265.97 164.59 266.77 164.59 Q 268.99 164.59 268.99 166.27 Q 268.99 167.54 267.48 168.08 Q 269.23 168.49 269.23 170.00 Q 269.23 171.02 268.56 171.60 Q 267.88 172.18 266.71 172.18 Q 266.04 172.18 265.02 171.95 z" />
      </g>
    </g>
    <clipPath id="clip29">
      <path id="path261" d="M 0.0000 0.0000 L 0.0000 278.00 L 383.00 278.00 L 383.00 0.0000 z" />
    </clipPath>
    <g id="g263" clip-path="url(#clip29)">
      <g id="g265" stroke="#000000" stroke-opacity="1.0000" fill="none" stroke-linecap="butt">
        <path id="path267" d="M 265.77 158.68 L 265.77 161.68" />
      </g>
    </g>
    <clipPath id="clip30">
      <path id="path270" d="M 0.0000 0.0000 L 0.0000 278.00 L 383.00 278.00 L 383.00 0.0000 z" />
    </clipPath>
    <g id="g272" clip-path="url(#clip30)">
      <g id="g274" fill="#000000" stroke="none" fill-rule="nonzero" fill-opacity="1.0000">
        <path id="path276" d="M 290.76 172.00 L 290.76 169.95 L 287.51 169.95 L 287.51 169.23 L 290.76 164.77 L 291.67 164.77 L 291.67 169.17 L 292.63 169.17 L 292.63 169.95 L 291.67 169.95 L 291.67 172.00 z M 288.46 169.17 L 290.83 169.17 L 290.83 165.96 z" />
      </g>
    </g>
    <clipPath id="clip31">
      <path id="path279" d="M 0.0000 0.0000 L 0.0000 278.00 L 383.00 278.00 L 383.00 0.0000 z" />
    </clipPath>
    <g id="g281" clip-path="url(#clip31)">
      <g id="g283" stroke="#000000" stroke-opacity="1.0000" fill="none" stroke-linecap="butt">
        <path id="path285" d="M 288.85 158.68 L 288.85 161.68" />
      </g>
    </g>
    <clipPath id="clip32">
      <path id="path288" d="M 0.0000 0.0000 L 0.0000 278.00 L 383.00 278.00 L 383.00 0.0000 z" />
    </clipPath>
    <g id="g290" clip-path="url(#clip32)">
      <g id="g292" fill="#000000" stroke="none" fill-rule="nonzero" fill-opacity="1.0000">
        <path id="path294" d="M 311.22 172.03 L 311.22 171.17 Q 311.93 171.46 312.58 171.46 Q 313.30 171.46 313.70 171.04 Q 314.11 170.62 314.11 169.88 Q 314.11 168.25 311.87 168.25 Q 311.62 168.25 311.34 168.29 L 311.34 164.77 L 315.00 164.77 L 315.00 165.61 L 312.18 165.61 L 312.18 167.52 Q 313.57 167.52 314.36 168.16 Q 315.14 168.80 315.14 169.93 Q 315.14 170.98 314.43 171.58 Q 313.72 172.18 312.46 172.18 Q 311.91 172.18 311.22 172.03 z" />
      </g>
    </g>
    <clipPath id="clip33">
      <path id="path297" d="M 0.0000 0.0000 L 0.0000 278.00 L 383.00 278.00 L 383.00 0.0000 z" />
    </clipPath>
    <g id="g299" clip-path="url(#clip33)">
      <g id="g301" stroke="#000000" stroke-opacity="1.0000" fill="none" stroke-linecap="butt">
        <path id="path303" d="M 311.93 158.68 L 311.93 161.68" />
      </g>
    </g>
    <clipPath id="clip34">
      <path id="path306" d="M 0.0000 0.0000 L 0.0000 278.00 L 383.00 278.00 L 383.00 0.0000 z" />
    </clipPath>
    <g id="g308" clip-path="url(#clip34)">
      <g id="g310" fill="#000000" stroke="none" fill-rule="nonzero" fill-opacity="1.0000">
        <path id="path312" d="M 334.72 168.25 Q 335.41 167.36 336.45 167.36 Q 337.40 167.36 338.00 167.99 Q 338.61 168.62 338.61 169.60 Q 338.61 170.73 337.93 171.45 Q 337.25 172.18 336.21 172.18 Q 335.02 172.18 334.34 171.22 Q 333.67 170.26 333.67 168.55 Q 333.67 166.67 334.44 165.63 Q 335.22 164.59 336.62 164.59 Q 337.27 164.59 338.23 164.86 L 338.23 165.70 Q 337.21 165.31 336.56 165.31 Q 334.72 165.31 334.72 168.25 z M 337.64 169.81 Q 337.64 168.99 337.27 168.52 Q 336.90 168.05 336.25 168.05 Q 335.64 168.05 335.20 168.46 Q 334.76 168.88 334.76 169.45 Q 334.76 170.36 335.18 170.91 Q 335.59 171.46 336.28 171.46 Q 336.90 171.46 337.27 171.01 Q 337.64 170.56 337.64 169.81 z" />
      </g>
    </g>
    <clipPath id="clip35">
      <path id="path315" d="M 0.0000 0.0000 L 0.0000 278.00 L 383.00 278.00 L 383.00 0.0000 z" />
    </clipPath>
    <g id="g317" clip-path="url(#clip35)">
      <g id="g319" stroke="#000000" stroke-opacity="1.0000" fill="none" stroke-linecap="butt">
        <path id="path321" d="M 335.01 158.68 L 335.01 161.68" />
      </g>
    </g>
    <clipPath id="clip36">
      <path id="path324" d="M 0.0000 0.0000 L 0.0000 278.00 L 383.00 278.00 L 383.00 0.0000 z" />
    </clipPath>
    <g id="g326" clip-path="url(#clip36)">
      <g id="g328" fill="#000000" stroke="none" fill-rule="nonzero" fill-opacity="1.0000">
        <path id="path330" d="M 357.50 172.00 Q 357.65 171.16 357.91 170.54 Q 358.17 169.92 358.83 168.85 L 360.80 165.68 L 357.08 165.68 L 357.08 164.77 L 361.72 164.77 L 361.72 165.68 Q 358.94 169.77 358.61 172.00 z" />
      </g>
    </g>
    <clipPath id="clip37">
      <path id="path333" d="M 0.0000 0.0000 L 0.0000 278.00 L 383.00 278.00 L 383.00 0.0000 z" />
    </clipPath>
    <g id="g335" clip-path="url(#clip37)">
      <g id="g337" stroke="#000000" stroke-opacity="1.0000" fill="none" stroke-linecap="butt">
        <path id="path339" d="M 358.09 158.68 L 358.09 161.68" />
      </g>
    </g>
    <clipPath id="clip38">
      <path id="path342" d="M 0.0000 0.0000 L 0.0000 278.00 L 383.00 278.00 L 383.00 0.0000 z" />
    </clipPath>
    <g id="g344" clip-path="url(#clip38)">
      <g id="g346" stroke="#000000" stroke-opacity="1.0000" fill="none" stroke-linecap="butt">
        <path id="path348" d="M 193.53 274.08 L 196.53 274.08" />
      </g>
    </g>
    <clipPath id="clip39">
      <path id="path351" d="M 0.0000 0.0000 L 0.0000 278.00 L 383.00 278.00 L 383.00 0.0000 z" />
    </clipPath>
    <g id="g353" clip-path="url(#clip39)">
      <g id="g355" fill="#000000" stroke="none" fill-rule="nonzero" fill-opacity="1.0000">
        <path id="path357" d="M 179.51 252.35 L 179.51 251.68 L 183.49 251.68 L 183.49 252.35 z M 186.30 251.06 Q 185.24 250.33 185.24 249.43 Q 185.24 248.61 185.84 248.10 Q 186.44 247.59 187.41 247.59 Q 188.30 247.59 188.86 248.02 Q 189.41 248.46 189.41 249.15 Q 189.41 250.20 188.06 251.06 Q 189.70 251.87 189.70 253.13 Q 189.70 254.04 189.01 254.61 Q 188.33 255.18 187.24 255.18 Q 186.18 255.18 185.52 254.64 Q 184.86 254.10 184.86 253.22 Q 184.86 251.92 186.30 251.06 z M 187.53 250.76 Q 188.54 250.10 188.54 249.28 Q 188.54 248.85 188.20 248.58 Q 187.86 248.32 187.31 248.32 Q 186.78 248.32 186.45 248.58 Q 186.11 248.84 186.11 249.25 Q 186.11 249.66 186.41 249.98 Q 186.71 250.30 187.53 250.76 z M 186.82 251.46 Q 186.24 251.90 186.03 252.24 Q 185.83 252.57 185.83 253.07 Q 185.83 253.69 186.23 254.07 Q 186.63 254.46 187.28 254.46 Q 187.91 254.46 188.31 254.13 Q 188.71 253.80 188.71 253.28 Q 188.71 252.86 188.46 252.57 Q 188.21 252.28 187.51 251.86 z" />
      </g>
    </g>
    <clipPath id="clip40">
      <path id="path360" d="M 0.0000 0.0000 L 0.0000 278.00 L 383.00 278.00 L 383.00 0.0000 z" />
    </clipPath>
    <g id="g362" clip-path="url(#clip40)">
      <g id="g364" stroke="#000000" stroke-opacity="1.0000" fill="none" stroke-linecap="butt">
        <path id="path366" d="M 193.53 251.00 L 196.53 251.00" />
      </g>
    </g>
    <clipPath id="clip41">
      <path id="path369" d="M 0.0000 0.0000 L 0.0000 278.00 L 383.00 278.00 L 383.00 0.0000 z" />
    </clipPath>
    <g id="g371" clip-path="url(#clip41)">
      <g id="g373" fill="#000000" stroke="none" fill-rule="nonzero" fill-opacity="1.0000">
        <path id="path375" d="M 179.51 228.35 L 179.51 227.68 L 183.49 227.68 L 183.49 228.35 z M 185.72 227.25 Q 186.41 226.36 187.45 226.36 Q 188.40 226.36 189.00 226.99 Q 189.61 227.62 189.61 228.60 Q 189.61 229.73 188.93 230.45 Q 188.25 231.18 187.21 231.18 Q 186.02 231.18 185.34 230.22 Q 184.67 229.26 184.67 227.55 Q 184.67 225.67 185.44 224.63 Q 186.22 223.59 187.62 223.59 Q 188.27 223.59 189.23 223.86 L 189.23 224.70 Q 188.21 224.31 187.56 224.31 Q 185.72 224.31 185.72 227.25 z M 188.64 228.81 Q 188.64 227.99 188.27 227.52 Q 187.90 227.05 187.25 227.05 Q 186.64 227.05 186.20 227.46 Q 185.76 227.88 185.76 228.45 Q 185.76 229.36 186.18 229.91 Q 186.59 230.46 187.28 230.46 Q 187.90 230.46 188.27 230.01 Q 188.64 229.56 188.64 228.81 z" />
      </g>
    </g>
    <clipPath id="clip42">
      <path id="path378" d="M 0.0000 0.0000 L 0.0000 278.00 L 383.00 278.00 L 383.00 0.0000 z" />
    </clipPath>
    <g id="g380" clip-path="url(#clip42)">
      <g id="g382" stroke="#000000" stroke-opacity="1.0000" fill="none" stroke-linecap="butt">
        <path id="path384" d="M 193.53 227.92 L 196.53 227.92" />
      </g>
    </g>
    <clipPath id="clip43">
      <path id="path387" d="M 0.0000 0.0000 L 0.0000 278.00 L 383.00 278.00 L 383.00 0.0000 z" />
    </clipPath>
    <g id="g389" clip-path="url(#clip43)">
      <g id="g391" fill="#000000" stroke="none" fill-rule="nonzero" fill-opacity="1.0000">
        <path id="path393" d="M 179.51 205.35 L 179.51 204.68 L 183.49 204.68 L 183.49 205.35 z M 187.76 208.00 L 187.76 205.95 L 184.51 205.95 L 184.51 205.23 L 187.76 200.77 L 188.67 200.77 L 188.67 205.17 L 189.63 205.17 L 189.63 205.95 L 188.67 205.95 L 188.67 208.00 z M 185.46 205.17 L 187.83 205.17 L 187.83 201.96 z" />
      </g>
    </g>
    <clipPath id="clip44">
      <path id="path396" d="M 0.0000 0.0000 L 0.0000 278.00 L 383.00 278.00 L 383.00 0.0000 z" />
    </clipPath>
    <g id="g398" clip-path="url(#clip44)">
      <g id="g400" stroke="#000000" stroke-opacity="1.0000" fill="none" stroke-linecap="butt">
        <path id="path402" d="M 193.53 204.84 L 196.53 204.84" />
      </g>
    </g>
    <clipPath id="clip45">
      <path id="path405" d="M 0.0000 0.0000 L 0.0000 278.00 L 383.00 278.00 L 383.00 0.0000 z" />
    </clipPath>
    <g id="g407" clip-path="url(#clip45)">
      <g id="g409" fill="#000000" stroke="none" fill-rule="nonzero" fill-opacity="1.0000">
        <path id="path411" d="M 179.51 182.35 L 179.51 181.68 L 183.49 181.68 L 183.49 182.35 z M 184.83 185.00 L 184.83 184.16 Q 185.25 183.17 186.53 182.02 L 187.08 181.52 Q 188.15 180.56 188.15 179.61 Q 188.15 179.01 187.78 178.66 Q 187.42 178.32 186.78 178.32 Q 186.03 178.32 185.01 178.90 L 185.01 178.05 Q 185.97 177.59 186.92 177.59 Q 187.94 177.59 188.55 178.14 Q 189.17 178.69 189.17 179.59 Q 189.17 180.24 188.86 180.74 Q 188.55 181.25 187.70 181.96 L 187.33 182.28 Q 186.17 183.26 185.99 184.16 L 189.13 184.16 L 189.13 185.00 z" />
      </g>
    </g>
    <clipPath id="clip46">
      <path id="path414" d="M 0.0000 0.0000 L 0.0000 278.00 L 383.00 278.00 L 383.00 0.0000 z" />
    </clipPath>
    <g id="g416" clip-path="url(#clip46)">
      <g id="g418" stroke="#000000" stroke-opacity="1.0000" fill="none" stroke-linecap="butt">
        <path id="path420" d="M 193.53 181.76 L 196.53 181.76" />
      </g>
    </g>
    <clipPath id="clip47">
      <path id="path423" d="M 0.0000 0.0000 L 0.0000 278.00 L 383.00 278.00 L 383.00 0.0000 z" />
    </clipPath>
    <g id="g425" clip-path="url(#clip47)">
      <g id="g427" fill="#000000" stroke="none" fill-rule="nonzero" fill-opacity="1.0000">
        <path id="path429" d="M 187.13 156.18 Q 186.02 156.18 185.33 155.13 Q 184.63 154.08 184.63 152.38 Q 184.63 150.67 185.33 149.63 Q 186.03 148.59 187.16 148.59 Q 188.30 148.59 189.00 149.63 Q 189.69 150.67 189.69 152.37 Q 189.69 154.11 189.00 155.14 Q 188.30 156.18 187.13 156.18 z M 187.14 155.46 Q 188.67 155.46 188.67 152.35 Q 188.67 149.32 187.16 149.32 Q 185.66 149.32 185.66 152.38 Q 185.66 155.46 187.14 155.46 z" />
      </g>
    </g>
    <clipPath id="clip48">
      <path id="path432" d="M 0.0000 0.0000 L 0.0000 278.00 L 383.00 278.00 L 383.00 0.0000 z" />
    </clipPath>
    <g id="g434" clip-path="url(#clip48)">
      <g id="g436" fill="#000000" stroke="none" fill-rule="nonzero" fill-opacity="1.0000">
        <path id="path438" d="M 184.83 139.00 L 184.83 138.16 Q 185.25 137.17 186.53 136.02 L 187.08 135.52 Q 188.15 134.56 188.15 133.61 Q 188.15 133.01 187.78 132.66 Q 187.42 132.32 186.78 132.32 Q 186.03 132.32 185.01 132.90 L 185.01 132.05 Q 185.97 131.59 186.92 131.59 Q 187.94 131.59 188.55 132.14 Q 189.17 132.69 189.17 133.59 Q 189.17 134.24 188.86 134.74 Q 188.55 135.25 187.70 135.96 L 187.33 136.28 Q 186.17 137.26 185.99 138.16 L 189.13 138.16 L 189.13 139.00 z" />
      </g>
    </g>
    <clipPath id="clip49">
      <path id="path441" d="M 0.0000 0.0000 L 0.0000 278.00 L 383.00 278.00 L 383.00 0.0000 z" />
    </clipPath>
    <g id="g443" clip-path="url(#clip49)">
      <g id="g445" stroke="#000000" stroke-opacity="1.0000" fill="none" stroke-linecap="butt">
        <path id="path447" d="M 193.53 135.60 L 196.53 135.60" />
      </g>
    </g>
    <clipPath id="clip50">
      <path id="path450" d="M 0.0000 0.0000 L 0.0000 278.00 L 383.00 278.00 L 383.00 0.0000 z" />
    </clipPath>
    <g id="g452" clip-path="url(#clip50)">
      <g id="g454" fill="#000000" stroke="none" fill-rule="nonzero" fill-opacity="1.0000">
        <path id="path456" d="M 187.76 116.00 L 187.76 113.95 L 184.51 113.95 L 184.51 113.23 L 187.76 108.77 L 188.67 108.77 L 188.67 113.17 L 189.63 113.17 L 189.63 113.95 L 188.67 113.95 L 188.67 116.00 z M 185.46 113.17 L 187.83 113.17 L 187.83 109.96 z" />
      </g>
    </g>
    <clipPath id="clip51">
      <path id="path459" d="M 0.0000 0.0000 L 0.0000 278.00 L 383.00 278.00 L 383.00 0.0000 z" />
    </clipPath>
    <g id="g461" clip-path="url(#clip51)">
      <g id="g463" stroke="#000000" stroke-opacity="1.0000" fill="none" stroke-linecap="butt">
        <path id="path465" d="M 193.53 112.52 L 196.53 112.52" />
      </g>
    </g>
    <clipPath id="clip52">
      <path id="path468" d="M 0.0000 0.0000 L 0.0000 278.00 L 383.00 278.00 L 383.00 0.0000 z" />
    </clipPath>
    <g id="g470" clip-path="url(#clip52)">
      <g id="g472" fill="#000000" stroke="none" fill-rule="nonzero" fill-opacity="1.0000">
        <path id="path474" d="M 185.72 89.255 Q 186.41 88.361 187.45 88.361 Q 188.40 88.361 189.00 88.989 Q 189.61 89.616 189.61 90.598 Q 189.61 91.726 188.93 92.453 Q 188.25 93.181 187.21 93.181 Q 186.02 93.181 185.34 92.219 Q 184.67 91.257 184.67 89.548 Q 184.67 87.668 185.44 86.628 Q 186.22 85.588 187.62 85.588 Q 188.27 85.588 189.23 85.861 L 189.23 86.701 Q 188.21 86.311 187.56 86.311 Q 185.72 86.311 185.72 89.255 z M 188.64 90.812 Q 188.64 89.992 188.27 89.523 Q 187.90 89.055 187.25 89.055 Q 186.64 89.055 186.20 89.465 Q 185.76 89.875 185.76 90.451 Q 185.76 91.359 186.18 91.909 Q 186.59 92.458 187.28 92.458 Q 187.90 92.458 188.27 92.011 Q 188.64 91.564 188.64 90.812 z" />
      </g>
    </g>
    <clipPath id="clip53">
      <path id="path477" d="M 0.0000 0.0000 L 0.0000 278.00 L 383.00 278.00 L 383.00 0.0000 z" />
    </clipPath>
    <g id="g479" clip-path="url(#clip53)">
      <g id="g481" stroke="#000000" stroke-opacity="1.0000" fill="none" stroke-linecap="butt">
        <path id="path483" d="M 193.53 89.435 L 196.53 89.435" />
      </g>
    </g>
    <clipPath id="clip54">
      <path id="path486" d="M 0.0000 0.0000 L 0.0000 278.00 L 383.00 278.00 L 383.00 0.0000 z" />
    </clipPath>
    <g id="g488" clip-path="url(#clip54)">
      <g id="g490" fill="#000000" stroke="none" fill-rule="nonzero" fill-opacity="1.0000">
        <path id="path492" d="M 186.30 66.064 Q 185.24 65.327 185.24 64.434 Q 185.24 63.613 185.84 63.101 Q 186.44 62.588 187.41 62.588 Q 188.30 62.588 188.86 63.022 Q 189.41 63.457 189.41 64.150 Q 189.41 65.200 188.06 66.064 Q 189.70 66.865 189.70 68.130 Q 189.70 69.038 189.01 69.609 Q 188.33 70.181 187.24 70.181 Q 186.18 70.181 185.52 69.641 Q 184.86 69.102 184.86 68.223 Q 184.86 66.924 186.30 66.064 z M 187.53 65.762 Q 188.54 65.098 188.54 64.282 Q 188.54 63.848 188.20 63.582 Q 187.86 63.315 187.31 63.315 Q 186.78 63.315 186.45 63.577 Q 186.11 63.838 186.11 64.253 Q 186.11 64.658 186.41 64.978 Q 186.71 65.298 187.53 65.762 z M 186.82 66.455 Q 186.24 66.904 186.03 67.239 Q 185.83 67.573 185.83 68.071 Q 185.83 68.691 186.23 69.075 Q 186.63 69.458 187.28 69.458 Q 187.91 69.458 188.31 69.131 Q 188.71 68.804 188.71 68.281 Q 188.71 67.861 188.46 67.571 Q 188.21 67.280 187.51 66.860 z" />
      </g>
    </g>
    <clipPath id="clip55">
      <path id="path495" d="M 0.0000 0.0000 L 0.0000 278.00 L 383.00 278.00 L 383.00 0.0000 z" />
    </clipPath>
    <g id="g497" clip-path="url(#clip55)">
      <g id="g499" stroke="#000000" stroke-opacity="1.0000" fill="none" stroke-linecap="butt">
        <path id="path501" d="M 193.53 66.354 L 196.53 66.354" />
      </g>
    </g>
    <clipPath id="clip56">
      <path id="path504" d="M 0.0000 0.0000 L 0.0000 278.00 L 383.00 278.00 L 383.00 0.0000 z" />
    </clipPath>
    <g id="g506" clip-path="url(#clip56)">
      <g id="g508" fill="#000000" stroke="none" fill-rule="nonzero" fill-opacity="1.0000">
        <path id="path510" d="M 178.50 47.000 L 178.50 46.277 L 179.95 46.277 L 179.95 40.574 L 178.50 40.936 L 178.50 40.193 L 180.92 39.593 L 180.92 46.277 L 182.36 46.277 L 182.36 47.000 z M 186.46 47.181 Q 185.34 47.181 184.65 46.128 Q 183.96 45.076 183.96 43.382 Q 183.96 41.673 184.65 40.633 Q 185.35 39.593 186.49 39.593 Q 187.62 39.593 188.32 40.633 Q 189.02 41.673 189.02 43.367 Q 189.02 45.105 188.32 46.143 Q 187.62 47.181 186.46 47.181 z M 186.47 46.458 Q 188.00 46.458 188.00 43.353 Q 188.00 40.315 186.49 40.315 Q 184.98 40.315 184.98 43.382 Q 184.98 46.458 186.47 46.458 z" />
      </g>
    </g>
    <clipPath id="clip57">
      <path id="path513" d="M 0.0000 0.0000 L 0.0000 278.00 L 383.00 278.00 L 383.00 0.0000 z" />
    </clipPath>
    <g id="g515" clip-path="url(#clip57)">
      <g id="g517" stroke="#000000" stroke-opacity="1.0000" fill="none" stroke-linecap="butt">
        <path id="path519" d="M 193.53 43.273 L 196.53 43.273" />
      </g>
    </g>
    <clipPath id="clip58">
      <path id="path522" d="M 0.0000 0.0000 L 0.0000 278.00 L 383.00 278.00 L 383.00 0.0000 z" />
    </clipPath>
    <g id="g524" clip-path="url(#clip58)">
      <g id="g526" fill="#000000" stroke="none" fill-rule="nonzero" fill-opacity="1.0000">
        <path id="path528" d="M 178.50 24.000 L 178.50 23.277 L 179.95 23.277 L 179.95 17.574 L 178.50 17.936 L 178.50 17.193 L 180.92 16.593 L 180.92 23.277 L 182.36 23.277 L 182.36 24.000 z M 184.15 24.000 L 184.15 23.155 Q 184.57 22.174 185.85 21.017 L 186.40 20.523 Q 187.47 19.562 187.47 18.614 Q 187.47 18.009 187.10 17.662 Q 186.74 17.315 186.11 17.315 Q 185.35 17.315 184.33 17.896 L 184.33 17.047 Q 185.30 16.593 186.24 16.593 Q 187.26 16.593 187.87 17.140 Q 188.49 17.687 188.49 18.590 Q 188.49 19.239 188.18 19.742 Q 187.87 20.245 187.02 20.963 L 186.65 21.280 Q 185.50 22.262 185.32 23.155 L 188.46 23.155 L 188.46 24.000 z" />
      </g>
    </g>
    <clipPath id="clip59">
      <path id="path531" d="M 0.0000 0.0000 L 0.0000 278.00 L 383.00 278.00 L 383.00 0.0000 z" />
    </clipPath>
    <g id="g533" clip-path="url(#clip59)">
      <g id="g535" stroke="#000000" stroke-opacity="1.0000" fill="none" stroke-linecap="butt">
        <path id="path537" d="M 193.53 20.192 L 196.53 20.192" />
      </g>
    </g>
    <clipPath id="clip60">
      <path id="path540" d="M 0.0000 0.0000 L 0.0000 278.00 L 383.00 278.00 L 383.00 0.0000 z" />
    </clipPath>
    <g id="g542" clip-path="url(#clip60)">
      <g id="g544" stroke="#c0c0c0" stroke-opacity="1.0000" fill="none" stroke-linecap="round" stroke-linejoin="round">
        <path id="path546" d="M 11.878 0.0000 L 11.878 158.68" />
      </g>
    </g>
    <clipPath id="clip61">
      <path id="path549" d="M 0.0000 0.0000 L 0.0000 278.00 L 383.00 278.00 L 383.00 0.0000 z" />
    </clipPath>
    <g id="g551" clip-path="url(#clip61)">
      <g id="g553" stroke="#c0c0c0" stroke-opacity="1.0000" fill="none" stroke-linecap="round" stroke-linejoin="round">
        <path id="path555" d="M 11.878 177.68 L 11.878 278.00" />
      </g>
    </g>
    <clipPath id="clip62">
      <path id="path558" d="M 0.0000 0.0000 L 0.0000 278.00 L 383.00 278.00 L 383.00 0.0000 z" />
    </clipPath>
    <g id="g560" clip-path="url(#clip62)">
      <g id="g562" stroke="#c0c0c0" stroke-opacity="1.0000" fill="none" stroke-linecap="round" stroke-linejoin="round">
        <path id="path564" d="M 11.878 0.0000 L 11.878 158.68" />
      </g>
    </g>
    <clipPath id="clip63">
      <path id="path567" d="M 0.0000 0.0000 L 0.0000 278.00 L 383.00 278.00 L 383.00 0.0000 z" />
    </clipPath>
    <g id="g569" clip-path="url(#clip63)">
      <g id="g571" stroke="#c0c0c0" stroke-opacity="1.0000" fill="none" stroke-linecap="round" stroke-linejoin="round">
        <path id="path573" d="M 11.878 177.68 L 11.878 278.00" />
      </g>
    </g>
    <clipPath id="clip64">
      <path id="path576" d="M 0.0000 0.0000 L 0.0000 278.00 L 383.00 278.00 L 383.00 0.0000 z" />
    </clipPath>
    <g id="g578" clip-path="url(#clip64)">
      <g id="g580" stroke="#c0c0c0" stroke-opacity="1.0000" fill="none" stroke-linecap="round" stroke-linejoin="round">
        <path id="path582" d="M 34.959 0.0000 L 34.959 158.68" />
      </g>
    </g>
    <clipPath id="clip65">
      <path id="path585" d="M 0.0000 0.0000 L 0.0000 278.00 L 383.00 278.00 L 383.00 0.0000 z" />
    </clipPath>
    <g id="g587" clip-path="url(#clip65)">
      <g id="g589" stroke="#c0c0c0" stroke-opacity="1.0000" fill="none" stroke-linecap="round" stroke-linejoin="round">
        <path id="path591" d="M 34.959 177.68 L 34.959 278.00" />
      </g>
    </g>
    <clipPath id="clip66">
      <path id="path594" d="M 0.0000 0.0000 L 0.0000 278.00 L 383.00 278.00 L 383.00 0.0000 z" />
    </clipPath>
    <g id="g596" clip-path="url(#clip66)">
      <g id="g598" stroke="#c0c0c0" stroke-opacity="1.0000" fill="none" stroke-linecap="round" stroke-linejoin="round">
        <path id="path600" d="M 58.040 0.0000 L 58.040 158.68" />
      </g>
    </g>
    <clipPath id="clip67">
      <path id="path603" d="M 0.0000 0.0000 L 0.0000 278.00 L 383.00 278.00 L 383.00 0.0000 z" />
    </clipPath>
    <g id="g605" clip-path="url(#clip67)">
      <g id="g607" stroke="#c0c0c0" stroke-opacity="1.0000" fill="none" stroke-linecap="round" stroke-linejoin="round">
        <path id="path609" d="M 58.040 177.68 L 58.040 278.00" />
      </g>
    </g>
    <clipPath id="clip68">
      <path id="path612" d="M 0.0000 0.0000 L 0.0000 278.00 L 383.00 278.00 L 383.00 0.0000 z" />
    </clipPath>
    <g id="g614" clip-path="url(#clip68)">
      <g id="g616" stroke="#c0c0c0" stroke-opacity="1.0000" fill="none" stroke-linecap="round" stroke-linejoin="round">
        <path id="path618" d="M 81.121 0.0000 L 81.121 158.68" />
      </g>
    </g>
    <clipPath id="clip69">
      <path id="path621" d="M 0.0000 0.0000 L 0.0000 278.00 L 383.00 278.00 L 383.00 0.0000 z" />
    </clipPath>
    <g id="g623" clip-path="url(#clip69)">
      <g id="g625" stroke="#c0c0c0" stroke-opacity="1.0000" fill="none" stroke-linecap="round" stroke-linejoin="round">
        <path id="path627" d="M 81.121 177.68 L 81.121 278.00" />
      </g>
    </g>
    <clipPath id="clip70">
      <path id="path630" d="M 0.0000 0.0000 L 0.0000 278.00 L 383.00 278.00 L 383.00 0.0000 z" />
    </clipPath>
    <g id="g632" clip-path="url(#clip70)">
      <g id="g634" stroke="#c0c0c0" stroke-opacity="1.0000" fill="none" stroke-linecap="round" stroke-linejoin="round">
        <path id="path636" d="M 104.20 0.0000 L 104.20 158.68" />
      </g>
    </g>
    <clipPath id="clip71">
      <path id="path639" d="M 0.0000 0.0000 L 0.0000 278.00 L 383.00 278.00 L 383.00 0.0000 z" />
    </clipPath>
    <g id="g641" clip-path="url(#clip71)">
      <g id="g643" stroke="#c0c0c0" stroke-opacity="1.0000" fill="none" stroke-linecap="round" stroke-linejoin="round">
        <path id="path645" d="M 104.20 177.68 L 104.20 278.00" />
      </g>
    </g>
    <clipPath id="clip72">
      <path id="path648" d="M 0.0000 0.0000 L 0.0000 278.00 L 383.00 278.00 L 383.00 0.0000 z" />
    </clipPath>
    <g id="g650" clip-path="url(#clip72)">
      <g id="g652" stroke="#c0c0c0" stroke-opacity="1.0000" fill="none" stroke-linecap="round" stroke-linejoin="round">
        <path id="path654" d="M 127.28 0.0000 L 127.28 158.68" />
      </g>
    </g>
    <clipPath id="clip73">
      <path id="path657" d="M 0.0000 0.0000 L 0.0000 278.00 L 383.00 278.00 L 383.00 0.0000 z" />
    </clipPath>
    <g id="g659" clip-path="url(#clip73)">
      <g id="g661" stroke="#c0c0c0" stroke-opacity="1.0000" fill="none" stroke-linecap="round" stroke-linejoin="round">
        <path id="path663" d="M 127.28 177.68 L 127.28 278.00" />
      </g>
    </g>
    <clipPath id="clip74">
      <path id="path666" d="M 0.0000 0.0000 L 0.0000 278.00 L 383.00 278.00 L 383.00 0.0000 z" />
    </clipPath>
    <g id="g668" clip-path="url(#clip74)">
      <g id="g670" stroke="#c0c0c0" stroke-opacity="1.0000" fill="none" stroke-linecap="round" stroke-linejoin="round">
        <path id="path672" d="M 150.36 0.0000 L 150.36 158.68" />
      </g>
    </g>
    <clipPath id="clip75">
      <path id="path675" d="M 0.0000 0.0000 L 0.0000 278.00 L 383.00 278.00 L 383.00 0.0000 z" />
    </clipPath>
    <g id="g677" clip-path="url(#clip75)">
      <g id="g679" stroke="#c0c0c0" stroke-opacity="1.0000" fill="none" stroke-linecap="round" stroke-linejoin="round">
        <path id="path681" d="M 150.36 177.68 L 150.36 278.00" />
      </g>
    </g>
    <clipPath id="clip76">
      <path id="path684" d="M 0.0000 0.0000 L 0.0000 278.00 L 383.00 278.00 L 383.00 0.0000 z" />
    </clipPath>
    <g id="g686" clip-path="url(#clip76)">
      <g id="g688" stroke="#c0c0c0" stroke-opacity="1.0000" fill="none" stroke-linecap="round" stroke-linejoin="round">
        <path id="path690" d="M 173.45 0.0000 L 173.45 158.68" />
      </g>
    </g>
    <clipPath id="clip77">
      <path id="path693" d="M 0.0000 0.0000 L 0.0000 278.00 L 383.00 278.00 L 383.00 0.0000 z" />
    </clipPath>
    <g id="g695" clip-path="url(#clip77)">
      <g id="g697" stroke="#c0c0c0" stroke-opacity="1.0000" fill="none" stroke-linecap="round" stroke-linejoin="round">
        <path id="path699" d="M 173.45 177.68 L 173.45 278.00" />
      </g>
    </g>
    <clipPath id="clip78">
      <path id="path702" d="M 0.0000 0.0000 L 0.0000 278.00 L 383.00 278.00 L 383.00 0.0000 z" />
    </clipPath>
    <g id="g704" clip-path="url(#clip78)">
      <g id="g706" stroke="#c0c0c0" stroke-opacity="1.0000" fill="none" stroke-linecap="round" stroke-linejoin="round">
        <path id="path708" d="M 219.61 0.0000 L 219.61 158.68" />
      </g>
    </g>
    <clipPath id="clip79">
      <path id="path711" d="M 0.0000 0.0000 L 0.0000 278.00 L 383.00 278.00 L 383.00 0.0000 z" />
    </clipPath>
    <g id="g713" clip-path="url(#clip79)">
      <g id="g715" stroke="#c0c0c0" stroke-opacity="1.0000" fill="none" stroke-linecap="round" stroke-linejoin="round">
        <path id="path717" d="M 219.61 177.68 L 219.61 278.00" />
      </g>
    </g>
    <clipPath id="clip80">
      <path id="path720" d="M 0.0000 0.0000 L 0.0000 278.00 L 383.00 278.00 L 383.00 0.0000 z" />
    </clipPath>
    <g id="g722" clip-path="url(#clip80)">
      <g id="g724" stroke="#c0c0c0" stroke-opacity="1.0000" fill="none" stroke-linecap="round" stroke-linejoin="round">
        <path id="path726" d="M 242.69 0.0000 L 242.69 158.68" />
      </g>
    </g>
    <clipPath id="clip81">
      <path id="path729" d="M 0.0000 0.0000 L 0.0000 278.00 L 383.00 278.00 L 383.00 0.0000 z" />
    </clipPath>
    <g id="g731" clip-path="url(#clip81)">
      <g id="g733" stroke="#c0c0c0" stroke-opacity="1.0000" fill="none" stroke-linecap="round" stroke-linejoin="round">
        <path id="path735" d="M 242.69 177.68 L 242.69 278.00" />
      </g>
    </g>
    <clipPath id="clip82">
      <path id="path738" d="M 0.0000 0.0000 L 0.0000 278.00 L 383.00 278.00 L 383.00 0.0000 z" />
    </clipPath>
    <g id="g740" clip-path="url(#clip82)">
      <g id="g742" stroke="#c0c0c0" stroke-opacity="1.0000" fill="none" stroke-linecap="round" stroke-linejoin="round">
        <path id="path744" d="M 265.77 0.0000 L 265.77 158.68" />
      </g>
    </g>
    <clipPath id="clip83">
      <path id="path747" d="M 0.0000 0.0000 L 0.0000 278.00 L 383.00 278.00 L 383.00 0.0000 z" />
    </clipPath>
    <g id="g749" clip-path="url(#clip83)">
      <g id="g751" stroke="#c0c0c0" stroke-opacity="1.0000" fill="none" stroke-linecap="round" stroke-linejoin="round">
        <path id="path753" d="M 265.77 177.68 L 265.77 278.00" />
      </g>
    </g>
    <clipPath id="clip84">
      <path id="path756" d="M 0.0000 0.0000 L 0.0000 278.00 L 383.00 278.00 L 383.00 0.0000 z" />
    </clipPath>
    <g id="g758" clip-path="url(#clip84)">
      <g id="g760" stroke="#c0c0c0" stroke-opacity="1.0000" fill="none" stroke-linecap="round" stroke-linejoin="round">
        <path id="path762" d="M 288.85 0.0000 L 288.85 158.68" />
      </g>
    </g>
    <clipPath id="clip85">
      <path id="path765" d="M 0.0000 0.0000 L 0.0000 278.00 L 383.00 278.00 L 383.00 0.0000 z" />
    </clipPath>
    <g id="g767" clip-path="url(#clip85)">
      <g id="g769" stroke="#c0c0c0" stroke-opacity="1.0000" fill="none" stroke-linecap="round" stroke-linejoin="round">
        <path id="path771" d="M 288.85 177.68 L 288.85 278.00" />
      </g>
    </g>
    <clipPath id="clip86">
      <path id="path774" d="M 0.0000 0.0000 L 0.0000 278.00 L 383.00 278.00 L 383.00 0.0000 z" />
    </clipPath>
    <g id="g776" clip-path="url(#clip86)">
      <g id="g778" stroke="#c0c0c0" stroke-opacity="1.0000" fill="none" stroke-linecap="round" stroke-linejoin="round">
        <path id="path780" d="M 311.93 0.0000 L 311.93 158.68" />
      </g>
    </g>
    <clipPath id="clip87">
      <path id="path783" d="M 0.0000 0.0000 L 0.0000 278.00 L 383.00 278.00 L 383.00 0.0000 z" />
    </clipPath>
    <g id="g785" clip-path="url(#clip87)">
      <g id="g787" stroke="#c0c0c0" stroke-opacity="1.0000" fill="none" stroke-linecap="round" stroke-linejoin="round">
        <path id="path789" d="M 311.93 177.68 L 311.93 278.00" />
      </g>
    </g>
    <clipPath id="clip88">
      <path id="path792" d="M 0.0000 0.0000 L 0.0000 278.00 L 383.00 278.00 L 383.00 0.0000 z" />
    </clipPath>
    <g id="g794" clip-path="url(#clip88)">
      <g id="g796" stroke="#c0c0c0" stroke-opacity="1.0000" fill="none" stroke-linecap="round" stroke-linejoin="round">
        <path id="path798" d="M 335.01 0.0000 L 335.01 158.68" />
      </g>
    </g>
    <clipPath id="clip89">
      <path id="path801" d="M 0.0000 0.0000 L 0.0000 278.00 L 383.00 278.00 L 383.00 0.0000 z" />
    </clipPath>
    <g id="g803" clip-path="url(#clip89)">
      <g id="g805" stroke="#c0c0c0" stroke-opacity="1.0000" fill="none" stroke-linecap="round" stroke-linejoin="round">
        <path id="path807" d="M 335.01 177.68 L 335.01 278.00" />
      </g>
    </g>
    <clipPath id="clip90">
      <path id="path810" d="M 0.0000 0.0000 L 0.0000 278.00 L 383.00 278.00 L 383.00 0.0000 z" />
    </clipPath>
    <g id="g812" clip-path="url(#clip90)">
      <g id="g814" stroke="#c0c0c0" stroke-opacity="1.0000" fill="none" stroke-linecap="round" stroke-linejoin="round">
        <path id="path816" d="M 358.09 0.0000 L 358.09 158.68" />
      </g>
    </g>
    <clipPath id="clip91">
      <path id="path819" d="M 0.0000 0.0000 L 0.0000 278.00 L 383.00 278.00 L 383.00 0.0000 z" />
    </clipPath>
    <g id="g821" clip-path="url(#clip91)">
      <g id="g823" stroke="#c0c0c0" stroke-opacity="1.0000" fill="none" stroke-linecap="round" stroke-linejoin="round">
        <path id="path825" d="M 358.09 177.68 L 358.09 278.00" />
      </g>
    </g>
    <clipPath id="clip92">
      <path id="path828" d="M 0.0000 0.0000 L 0.0000 278.00 L 383.00 278.00 L 383.00 0.0000 z" />
    </clipPath>
    <g id="g830" clip-path="url(#clip92)">
      <g id="g832" stroke="#c0c0c0" stroke-opacity="1.0000" fill="none" stroke-linecap="round" stroke-linejoin="round">
        <path id="path834" d="M 381.18 0.0000 L 381.18 278.00" />
      </g>
    </g>
    <clipPath id="clip93">
      <path id="path837" d="M 0.0000 0.0000 L 0.0000 278.00 L 383.00 278.00 L 383.00 0.0000 z" />
    </clipPath>
    <g id="g839" clip-path="url(#clip93)">
      <g id="g841" stroke="#c0c0c0" stroke-opacity="1.0000" fill="none" stroke-linecap="round" stroke-linejoin="round">
        <path id="path843" d="M 0.0000 20.192 L 173.88 20.192" />
      </g>
    </g>
    <clipPath id="clip94">
      <path id="path846" d="M 0.0000 0.0000 L 0.0000 278.00 L 383.00 278.00 L 383.00 0.0000 z" />
    </clipPath>
    <g id="g848" clip-path="url(#clip94)">
      <g id="g850" stroke="#c0c0c0" stroke-opacity="1.0000" fill="none" stroke-linecap="round" stroke-linejoin="round">
        <path id="path852" d="M 196.53 20.192 L 383.00 20.192" />
      </g>
    </g>
    <clipPath id="clip95">
      <path id="path855" d="M 0.0000 0.0000 L 0.0000 278.00 L 383.00 278.00 L 383.00 0.0000 z" />
    </clipPath>
    <g id="g857" clip-path="url(#clip95)">
      <g id="g859" stroke="#c0c0c0" stroke-opacity="1.0000" fill="none" stroke-linecap="round" stroke-linejoin="round">
        <path id="path861" d="M 0.0000 20.192 L 173.88 20.192" />
      </g>
    </g>
    <clipPath id="clip96">
      <path id="path864" d="M 0.0000 0.0000 L 0.0000 278.00 L 383.00 278.00 L 383.00 0.0000 z" />
    </clipPath>
    <g id="g866" clip-path="url(#clip96)">
      <g id="g868" stroke="#c0c0c0" stroke-opacity="1.0000" fill="none" stroke-linecap="round" stroke-linejoin="round">
        <path id="path870" d="M 196.53 20.192 L 383.00 20.192" />
      </g>
    </g>
    <clipPath id="clip97">
      <path id="path873" d="M 0.0000 0.0000 L 0.0000 278.00 L 383.00 278.00 L 383.00 0.0000 z" />
    </clipPath>
    <g id="g875" clip-path="url(#clip97)">
      <g id="g877" stroke="#c0c0c0" stroke-opacity="1.0000" fill="none" stroke-linecap="round" stroke-linejoin="round">
        <path id="path879" d="M 0.0000 43.273 L 173.88 43.273" />
      </g>
    </g>
    <clipPath id="clip98">
      <path id="path882" d="M 0.0000 0.0000 L 0.0000 278.00 L 383.00 278.00 L 383.00 0.0000 z" />
    </clipPath>
    <g id="g884" clip-path="url(#clip98)">
      <g id="g886" stroke="#c0c0c0" stroke-opacity="1.0000" fill="none" stroke-linecap="round" stroke-linejoin="round">
        <path id="path888" d="M 196.53 43.273 L 383.00 43.273" />
      </g>
    </g>
    <clipPath id="clip99">
      <path id="path891" d="M 0.0000 0.0000 L 0.0000 278.00 L 383.00 278.00 L 383.00 0.0000 z" />
    </clipPath>
    <g id="g893" clip-path="url(#clip99)">
      <g id="g895" stroke="#c0c0c0" stroke-opacity="1.0000" fill="none" stroke-linecap="round" stroke-linejoin="round">
        <path id="path897" d="M 0.0000 66.354 L 173.88 66.354" />
      </g>
    </g>
    <clipPath id="clip100">
      <path id="path900" d="M 0.0000 0.0000 L 0.0000 278.00 L 383.00 278.00 L 383.00 0.0000 z" />
    </clipPath>
    <g id="g902" clip-path="url(#clip100)">
      <g id="g904" stroke="#c0c0c0" stroke-opacity="1.0000" fill="none" stroke-linecap="round" stroke-linejoin="round">
        <path id="path906" d="M 196.53 66.354 L 383.00 66.354" />
      </g>
    </g>
    <clipPath id="clip101">
      <path id="path909" d="M 0.0000 0.0000 L 0.0000 278.00 L 383.00 278.00 L 383.00 0.0000 z" />
    </clipPath>
    <g id="g911" clip-path="url(#clip101)">
      <g id="g913" stroke="#c0c0c0" stroke-opacity="1.0000" fill="none" stroke-linecap="round" stroke-linejoin="round">
        <path id="path915" d="M 0.0000 89.435 L 173.88 89.435" />
      </g>
    </g>
    <clipPath id="clip102">
      <path id="path918" d="M 0.0000 0.0000 L 0.0000 278.00 L 383.00 278.00 L 383.00 0.0000 z" />
    </clipPath>
    <g id="g920" clip-path="url(#clip102)">
      <g id="g922" stroke="#c0c0c0" stroke-opacity="1.0000" fill="none" stroke-linecap="round" stroke-linejoin="round">
        <path id="path924" d="M 196.53 89.435 L 383.00 89.435" />
      </g>
    </g>
    <clipPath id="clip103">
      <path id="path927" d="M 0.0000 0.0000 L 0.0000 278.00 L 383.00 278.00 L 383.00 0.0000 z" />
    </clipPath>
    <g id="g929" clip-path="url(#clip103)">
      <g id="g931" stroke="#c0c0c0" stroke-opacity="1.0000" fill="none" stroke-linecap="round" stroke-linejoin="round">
        <path id="path933" d="M 0.0000 112.52 L 173.88 112.52" />
      </g>
    </g>
    <clipPath id="clip104">
      <path id="path936" d="M 0.0000 0.0000 L 0.0000 278.00 L 383.00 278.00 L 383.00 0.0000 z" />
    </clipPath>
    <g id="g938" clip-path="url(#clip104)">
      <g id="g940" stroke="#c0c0c0" stroke-opacity="1.0000" fill="none" stroke-linecap="round" stroke-linejoin="round">
        <path id="path942" d="M 196.53 112.52 L 383.00 112.52" />
      </g>
    </g>
    <clipPath id="clip105">
      <path id="path945" d="M 0.0000 0.0000 L 0.0000 278.00 L 383.00 278.00 L 383.00 0.0000 z" />
    </clipPath>
    <g id="g947" clip-path="url(#clip105)">
      <g id="g949" stroke="#c0c0c0" stroke-opacity="1.0000" fill="none" stroke-linecap="round" stroke-linejoin="round">
        <path id="path951" d="M 0.0000 135.60 L 173.88 135.60" />
      </g>
    </g>
    <clipPath id="clip106">
      <path id="path954" d="M 0.0000 0.0000 L 0.0000 278.00 L 383.00 278.00 L 383.00 0.0000 z" />
    </clipPath>
    <g id="g956" clip-path="url(#clip106)">
      <g id="g958" stroke="#c0c0c0" stroke-opacity="1.0000" fill="none" stroke-linecap="round" stroke-linejoin="round">
        <path id="path960" d="M 196.53 135.60 L 383.00 135.60" />
      </g>
    </g>
    <clipPath id="clip107">
      <path id="path963" d="M 0.0000 0.0000 L 0.0000 278.00 L 383.00 278.00 L 383.00 0.0000 z" />
    </clipPath>
    <g id="g965" clip-path="url(#clip107)">
      <g id="g967" stroke="#c0c0c0" stroke-opacity="1.0000" fill="none" stroke-linecap="round" stroke-linejoin="round">
        <path id="path969" d="M 0.0000 181.76 L 175.20 181.76" />
      </g>
    </g>
    <clipPath id="clip108">
      <path id="path972" d="M 0.0000 0.0000 L 0.0000 278.00 L 383.00 278.00 L 383.00 0.0000 z" />
    </clipPath>
    <g id="g974" clip-path="url(#clip108)">
      <g id="g976" stroke="#c0c0c0" stroke-opacity="1.0000" fill="none" stroke-linecap="round" stroke-linejoin="round">
        <path id="path978" d="M 196.53 181.76 L 383.00 181.76" />
      </g>
    </g>
    <clipPath id="clip109">
      <path id="path981" d="M 0.0000 0.0000 L 0.0000 278.00 L 383.00 278.00 L 383.00 0.0000 z" />
    </clipPath>
    <g id="g983" clip-path="url(#clip109)">
      <g id="g985" stroke="#c0c0c0" stroke-opacity="1.0000" fill="none" stroke-linecap="round" stroke-linejoin="round">
        <path id="path987" d="M 0.0000 204.84 L 175.20 204.84" />
      </g>
    </g>
    <clipPath id="clip110">
      <path id="path990" d="M 0.0000 0.0000 L 0.0000 278.00 L 383.00 278.00 L 383.00 0.0000 z" />
    </clipPath>
    <g id="g992" clip-path="url(#clip110)">
      <g id="g994" stroke="#c0c0c0" stroke-opacity="1.0000" fill="none" stroke-linecap="round" stroke-linejoin="round">
        <path id="path996" d="M 196.53 204.84 L 383.00 204.84" />
      </g>
    </g>
    <clipPath id="clip111">
      <path id="path999" d="M 0.0000 0.0000 L 0.0000 278.00 L 383.00 278.00 L 383.00 0.0000 z" />
    </clipPath>
    <g id="g1001" clip-path="url(#clip111)">
      <g id="g1003" stroke="#c0c0c0" stroke-opacity="1.0000" fill="none" stroke-linecap="round" stroke-linejoin="round">
        <path id="path1005" d="M 0.0000 227.92 L 175.20 227.92" />
      </g>
    </g>
    <clipPath id="clip112">
      <path id="path1008" d="M 0.0000 0.0000 L 0.0000 278.00 L 383.00 278.00 L 383.00 0.0000 z" />
    </clipPath>
    <g id="g1010" clip-path="url(#clip112)">
      <g id="g1012" stroke="#c0c0c0" stroke-opacity="1.0000" fill="none" stroke-linecap="round" stroke-linejoin="round">
        <path id="path1014" d="M 196.53 227.92 L 383.00 227.92" />
      </g>
    </g>
    <clipPath id="clip113">
      <path id="path1017" d="M 0.0000 0.0000 L 0.0000 278.00 L 383.00 278.00 L 383.00 0.0000 z" />
    </clipPath>
    <g id="g1019" clip-path="url(#clip113)">
      <g id="g1021" stroke="#c0c0c0" stroke-opacity="1.0000" fill="none" stroke-linecap="round" stroke-linejoin="round">
        <path id="path1023" d="M 0.0000 251.00 L 175.20 251.00" />
      </g>
    </g>
    <clipPath id="clip114">
      <path id="path1026" d="M 0.0000 0.0000 L 0.0000 278.00 L 383.00 278.00 L 383.00 0.0000 z" />
    </clipPath>
    <g id="g1028" clip-path="url(#clip114)">
      <g id="g1030" stroke="#c0c0c0" stroke-opacity="1.0000" fill="none" stroke-linecap="round" stroke-linejoin="round">
        <path id="path1032" d="M 196.53 251.00 L 383.00 251.00" />
      </g>
    </g>
    <clipPath id="clip115">
      <path id="path1035" d="M 0.0000 0.0000 L 0.0000 278.00 L 383.00 278.00 L 383.00 0.0000 z" />
    </clipPath>
    <g id="g1037" clip-path="url(#clip115)">
      <g id="g1039" stroke="#c0c0c0" stroke-opacity="1.0000" fill="none" stroke-linecap="round" stroke-linejoin="round">
        <path id="path1041" d="M 0.0000 274.08 L 383.00 274.08" />
      </g>
    </g>
    <g id="misc" />
    <g id="layer0">
      <clipPath id="clip116">
        <path id="path1046" d="M 0.0000 0.0000 L 0.0000 278.00 L 383.00 278.00 L 383.00 0.0000 z" />
      </clipPath>
      <g id="g1048" clip-path="url(#clip116)">
        <g id="g1050" stroke="#0000ff" stroke-opacity="1.0000" fill="none" stroke-linecap="round" stroke-width="2.5000" stroke-linejoin="round">
          <path id="path1052" d="M 185.52 -7.5899 L 186.26 -2.0674 L 187.01 3.3823 L 187.76 8.7594 L 188.51 14.064 L 189.26 19.295 L 190.00 24.454 L 190.75 29.540 L 191.50 34.554 L 193.00 44.362 L 194.49 53.880 L 195.99 63.106 L 197.48 72.042 L 198.98 80.687 L 200.48 89.041 L 201.97 97.104 L 203.47 104.88 L 204.96 112.36 L 206.46 119.55 L 207.96 126.45 L 209.45 133.05 L 210.95 139.37 L 212.45 145.40 L 213.94 151.13 L 215.44 156.58 L 216.93 161.73 L 218.43 166.60 L 221.42 175.45 L 224.41 183.14 L 227.41 189.66 L 230.40 195.02 L 233.39 199.22 L 236.38 202.26 L 237.88 203.34 L 239.38 204.13 L 240.87 204.63 L 241.62 204.77 L 242.37 204.83 L 243.86 204.75 L 244.61 204.60 L 245.36 204.38 L 246.86 203.71 L 248.35 202.76 L 249.85 201.51 L 251.34 199.97 L 254.34 196.02 L 257.33 190.91 L 260.32 184.64 L 263.31 177.20 L 266.30 168.60 L 269.30 158.83 L 270.79 153.51 L 272.29 147.90 L 273.79 142.00 L 275.28 135.81 L 276.78 129.32 L 278.27 122.55 L 279.77 115.48 L 281.27 108.13 L 282.76 100.48 L 284.26 92.541 L 285.75 84.312 L 287.25 75.792 L 288.75 66.982 L 290.24 57.880 L 291.74 48.487 L 293.23 38.804 L 294.73 28.829 L 295.48 23.733 L 296.23 18.564 L 296.97 13.322 L 297.72 8.0078 L 298.47 2.6206 L 299.22 -2.8394 L 299.97 -8.3721" />
          <title id="title1054">Function f</title>
          <desc id="desc1056">f(x) = 3(x - 2)&#130; - 4</desc>
        </g>
      </g>
      <clipPath id="clip117">
        <path id="path1059" d="M 0.0000 0.0000 L 0.0000 278.00 L 383.00 278.00 L 383.00 0.0000 z" />
      </clipPath>
      <g id="g1061" clip-path="url(#clip117)">
        <g id="g1063" stroke="#ff00ff" stroke-opacity="1.0000" fill="none" stroke-linecap="round" stroke-width="2.5000" stroke-linejoin="round">
          <path id="path1065" d="M 32.914 287.29 L 35.906 279.26 L 38.898 271.50 L 41.891 263.99 L 44.883 256.74 L 47.875 249.74 L 50.867 243.01 L 53.859 236.54 L 56.852 230.32 L 59.844 224.36 L 62.836 218.66 L 65.828 213.22 L 68.820 208.04 L 71.812 203.12 L 74.805 198.45 L 77.797 194.05 L 80.789 189.90 L 83.781 186.01 L 86.773 182.38 L 89.766 179.01 L 92.758 175.89 L 95.750 173.04 L 98.742 170.44 L 101.73 168.11 L 104.73 166.03 L 107.72 164.21 L 110.71 162.65 L 113.70 161.34 L 116.70 160.30 L 119.69 159.51 L 122.68 158.98 L 125.67 158.72 L 128.66 158.71 L 131.66 158.95 L 134.65 159.46 L 137.64 160.23 L 140.63 161.25 L 143.62 162.54 L 146.62 164.08 L 149.61 165.88 L 152.60 167.94 L 155.59 170.25 L 158.59 172.83 L 161.58 175.66 L 164.57 178.76 L 167.56 182.11 L 170.55 185.72 L 173.55 189.59 L 176.54 193.72 L 179.53 198.10 L 182.52 202.75 L 185.52 207.65 L 188.51 212.81 L 191.50 218.23 L 194.49 223.91 L 197.48 229.85 L 200.48 236.05 L 203.47 242.50 L 206.46 249.22 L 209.45 256.19 L 212.45 263.42 L 215.44 270.91 L 218.43 278.66 L 221.42 286.66" />
          <title id="title1067">Function g</title>
          <desc id="desc1069">g(x) = -(2 / 3) (x + 3)&#130;</desc>
        </g>
      </g>
      <clipPath id="clip118">
        <path id="path1072" d="M 0.0000 0.0000 L 0.0000 278.00 L 383.00 278.00 L 383.00 0.0000 z" />
      </clipPath>
      <g id="g1074" clip-path="url(#clip118)">
        <g id="g1076" stroke="#0000ff" stroke-opacity="1.0000" fill="none" stroke-linecap="butt" stroke-width="2.0000" stroke-dasharray="6.0000,4.0000" stroke-linejoin="round">
          <path id="path1078" d="M 82.285 290.27 L 83.781 281.66 L 85.277 273.35 L 86.773 265.33 L 88.270 257.60 L 89.766 250.15 L 91.262 243.00 L 92.758 236.15 L 94.254 229.58 L 95.750 223.30 L 97.246 217.31 L 98.742 211.62 L 100.24 206.21 L 101.73 201.10 L 104.73 191.75 L 107.72 183.55 L 110.71 176.53 L 113.70 170.66 L 116.70 165.96 L 119.69 162.43 L 121.18 161.10 L 122.68 160.06 L 124.18 159.31 L 125.67 158.85 L 126.42 158.73 L 127.17 158.68 L 128.66 158.80 L 129.41 158.97 L 130.16 159.22 L 131.66 159.92 L 133.15 160.92 L 134.65 162.20 L 137.64 165.65 L 140.63 170.26 L 143.62 176.03 L 146.62 182.97 L 149.61 191.07 L 152.60 200.34 L 154.10 205.41 L 155.59 210.77 L 157.09 216.42 L 158.59 222.36 L 160.08 228.59 L 161.58 235.11 L 163.07 241.93 L 164.57 249.03 L 166.07 256.43 L 167.56 264.12 L 169.06 272.09 L 170.55 280.36 L 172.05 288.92" />
          <title id="title1080">Function p</title>
          <desc id="desc1082">Function p: p(x) = -f(x + 5) - 4</desc>
        </g>
      </g>
    </g>
  </g>
</svg>