<?xml version='1.0' ?><svg xmlns:dc="http://purl.org/dc/elements/1.1/" xmlns:cc="http://creativecommons.org/ns#" xmlns:rdf="http://www.w3.org/1999/02/22-rdf-syntax-ns#" xmlns:svg="http://www.w3.org/2000/svg" xmlns="http://www.w3.org/2000/svg" id="svg2" version="1.1" width="373.75001" height="270.57943" viewBox="0.0 0.3444763774715719 384.0000102742474 278.0000029966555" preserveAspectRatio="none">
  <metadata id="metadata778">
    <rdf:RDF>
      <cc:Work rdf:about="">
        <dc:format>image/svg+xml</dc:format>
        <dc:type rdf:resource="http://purl.org/dc/dcmitype/StillImage" />
      </cc:Work>
    </rdf:RDF>
  </metadata>
  <defs id="defs776" />
  <title id="title4" />
  <g id="g6" stroke-linecap="square" stroke-miterlimit="10.000" stroke-width="1.0000" stroke-dasharray="none" stroke-dashoffset="0.0000" stroke-linejoin="miter">
    <clipPath id="clip1">
      <path id="path9" d="M 0.0000 0.0000 L 0.0000 278.00 L 384.00 278.00 L 384.00 0.0000 z" />
    </clipPath>
    <g id="g11" clip-path="url(#clip1)">
      <g id="g13" stroke="#000000" stroke-opacity="1.0000" fill="none" stroke-linecap="butt">
        <path id="path15" d="M 170.19 2.0000 L 170.19 278.00" />
      </g>
    </g>
    <clipPath id="clip2">
      <path id="path18" d="M 0.0000 0.0000 L 0.0000 278.00 L 384.00 278.00 L 384.00 0.0000 z" />
    </clipPath>
    <g id="g20" clip-path="url(#clip2)">
      <g id="g22" stroke="#000000" stroke-opacity="1.0000" fill="none" stroke-linecap="butt">
        <path id="path24" d="M 170.19 1.0000 L 167.19 4.0000" />
      </g>
    </g>
    <clipPath id="clip3">
      <path id="path27" d="M 0.0000 0.0000 L 0.0000 278.00 L 384.00 278.00 L 384.00 0.0000 z" />
    </clipPath>
    <g id="g29" clip-path="url(#clip3)">
      <g id="g31" stroke="#000000" stroke-opacity="1.0000" fill="none" stroke-linecap="butt">
        <path id="path33" d="M 170.19 1.0000 L 173.19 4.0000" />
      </g>
    </g>
    <clipPath id="clip4">
      <path id="path36" d="M 0.0000 0.0000 L 0.0000 278.00 L 384.00 278.00 L 384.00 0.0000 z" />
    </clipPath>
    <g id="g38" clip-path="url(#clip4)">
      <g id="g40" stroke="#000000" stroke-opacity="1.0000" fill="none" stroke-linecap="butt">
        <path id="path42" d="M 7.8734 161.43 L 7.8734 164.43" />
      </g>
    </g>
    <clipPath id="clip5">
      <path id="path45" d="M 0.0000 0.0000 L 0.0000 278.00 L 384.00 278.00 L 384.00 0.0000 z" />
    </clipPath>
    <g id="g47" clip-path="url(#clip5)">
      <g id="g49" stroke="#000000" stroke-opacity="1.0000" fill="none" stroke-linecap="butt">
        <path id="path51" d="M 0.0000 161.43 L 382.00 161.43" />
      </g>
    </g>
    <clipPath id="clip6">
      <path id="path54" d="M 0.0000 0.0000 L 0.0000 278.00 L 384.00 278.00 L 384.00 0.0000 z" />
    </clipPath>
    <g id="g56" clip-path="url(#clip6)">
      <g id="g58" stroke="#000000" stroke-opacity="1.0000" fill="none" stroke-linecap="butt">
        <path id="path60" d="M 383.00 161.43 L 380.00 158.43" />
      </g>
    </g>
    <clipPath id="clip7">
      <path id="path63" d="M 0.0000 0.0000 L 0.0000 278.00 L 384.00 278.00 L 384.00 0.0000 z" />
    </clipPath>
    <g id="g65" clip-path="url(#clip7)">
      <g id="g67" stroke="#000000" stroke-opacity="1.0000" fill="none" stroke-linecap="butt">
        <path id="path69" d="M 383.00 161.43 L 380.00 164.43" />
      </g>
    </g>
    <clipPath id="clip8">
      <path id="path72" d="M 0.0000 0.0000 L 0.0000 278.00 L 384.00 278.00 L 384.00 0.0000 z" />
    </clipPath>
    <g id="g74" clip-path="url(#clip8)">
      <g id="g76" fill="#000000" stroke="none" fill-rule="nonzero" fill-opacity="1.0000">
        <path id="path78" d="M 36.513 172.35 L 36.513 171.68 L 40.487 171.68 L 40.487 172.35 z M 43.300 171.06 Q 42.240 170.33 42.240 169.43 Q 42.240 168.61 42.841 168.10 Q 43.441 167.59 44.408 167.59 Q 45.302 167.59 45.856 168.02 Q 46.410 168.46 46.410 169.15 Q 46.410 170.20 45.062 171.06 Q 46.698 171.87 46.698 173.13 Q 46.698 174.04 46.012 174.61 Q 45.326 175.18 44.242 175.18 Q 43.178 175.18 42.521 174.64 Q 41.864 174.10 41.864 173.22 Q 41.864 171.92 43.300 171.06 z M 44.525 170.76 Q 45.536 170.10 45.536 169.28 Q 45.536 168.85 45.199 168.58 Q 44.862 168.32 44.311 168.32 Q 43.778 168.32 43.446 168.58 Q 43.114 168.84 43.114 169.25 Q 43.114 169.66 43.415 169.98 Q 43.715 170.30 44.525 170.76 z M 43.822 171.46 Q 43.241 171.90 43.034 172.24 Q 42.826 172.57 42.826 173.07 Q 42.826 173.69 43.227 174.07 Q 43.627 174.46 44.281 174.46 Q 44.911 174.46 45.309 174.13 Q 45.707 173.80 45.707 173.28 Q 45.707 172.86 45.460 172.57 Q 45.214 172.28 44.506 171.86 z" />
      </g>
    </g>
    <clipPath id="clip9">
      <path id="path81" d="M 0.0000 0.0000 L 0.0000 278.00 L 384.00 278.00 L 384.00 0.0000 z" />
    </clipPath>
    <g id="g83" clip-path="url(#clip9)">
      <g id="g85" stroke="#000000" stroke-opacity="1.0000" fill="none" stroke-linecap="butt">
        <path id="path87" d="M 40.337 161.43 L 40.337 164.43" />
      </g>
    </g>
    <clipPath id="clip10">
      <path id="path90" d="M 0.0000 0.0000 L 0.0000 278.00 L 384.00 278.00 L 384.00 0.0000 z" />
    </clipPath>
    <g id="g92" clip-path="url(#clip10)">
      <g id="g94" fill="#000000" stroke="none" fill-rule="nonzero" fill-opacity="1.0000">
        <path id="path96" d="M 68.513 172.35 L 68.513 171.68 L 72.487 171.68 L 72.487 172.35 z M 74.719 171.25 Q 75.407 170.36 76.452 170.36 Q 77.399 170.36 78.002 170.99 Q 78.605 171.62 78.605 172.60 Q 78.605 173.73 77.929 174.45 Q 77.253 175.18 76.213 175.18 Q 75.017 175.18 74.343 174.22 Q 73.669 173.26 73.669 171.55 Q 73.669 169.67 74.443 168.63 Q 75.217 167.59 76.623 167.59 Q 77.268 167.59 78.234 167.86 L 78.234 168.70 Q 77.214 168.31 76.564 168.31 Q 74.719 168.31 74.719 171.25 z M 77.639 172.81 Q 77.639 171.99 77.270 171.52 Q 76.901 171.05 76.247 171.05 Q 75.637 171.05 75.197 171.46 Q 74.758 171.88 74.758 172.45 Q 74.758 173.36 75.175 173.91 Q 75.593 174.46 76.281 174.46 Q 76.901 174.46 77.270 174.01 Q 77.639 173.56 77.639 172.81 z" />
      </g>
    </g>
    <clipPath id="clip11">
      <path id="path99" d="M 0.0000 0.0000 L 0.0000 278.00 L 384.00 278.00 L 384.00 0.0000 z" />
    </clipPath>
    <g id="g101" clip-path="url(#clip11)">
      <g id="g103" stroke="#000000" stroke-opacity="1.0000" fill="none" stroke-linecap="butt">
        <path id="path105" d="M 72.801 161.43 L 72.801 164.43" />
      </g>
    </g>
    <clipPath id="clip12">
      <path id="path108" d="M 0.0000 0.0000 L 0.0000 278.00 L 384.00 278.00 L 384.00 0.0000 z" />
    </clipPath>
    <g id="g110" clip-path="url(#clip12)">
      <g id="g112" fill="#000000" stroke="none" fill-rule="nonzero" fill-opacity="1.0000">
        <path id="path114" d="M 101.51 172.35 L 101.51 171.68 L 105.49 171.68 L 105.49 172.35 z M 109.76 175.00 L 109.76 172.95 L 106.51 172.95 L 106.51 172.23 L 109.76 167.77 L 110.67 167.77 L 110.67 172.17 L 111.63 172.17 L 111.63 172.95 L 110.67 172.95 L 110.67 175.00 z M 107.46 172.17 L 109.83 172.17 L 109.83 168.96 z" />
      </g>
    </g>
    <clipPath id="clip13">
      <path id="path117" d="M 0.0000 0.0000 L 0.0000 278.00 L 384.00 278.00 L 384.00 0.0000 z" />
    </clipPath>
    <g id="g119" clip-path="url(#clip13)">
      <g id="g121" stroke="#000000" stroke-opacity="1.0000" fill="none" stroke-linecap="butt">
        <path id="path123" d="M 105.26 161.43 L 105.26 164.43" />
      </g>
    </g>
    <clipPath id="clip14">
      <path id="path126" d="M 0.0000 0.0000 L 0.0000 278.00 L 384.00 278.00 L 384.00 0.0000 z" />
    </clipPath>
    <g id="g128" clip-path="url(#clip14)">
      <g id="g130" fill="#000000" stroke="none" fill-rule="nonzero" fill-opacity="1.0000">
        <path id="path132" d="M 133.51 172.35 L 133.51 171.68 L 137.49 171.68 L 137.49 172.35 z M 138.83 175.00 L 138.83 174.16 Q 139.25 173.17 140.53 172.02 L 141.08 171.52 Q 142.15 170.56 142.15 169.61 Q 142.15 169.01 141.78 168.66 Q 141.42 168.32 140.78 168.32 Q 140.03 168.32 139.01 168.90 L 139.01 168.05 Q 139.97 167.59 140.92 167.59 Q 141.94 167.59 142.55 168.14 Q 143.17 168.69 143.17 169.59 Q 143.17 170.24 142.86 170.74 Q 142.55 171.25 141.70 171.96 L 141.33 172.28 Q 140.17 173.26 139.99 174.16 L 143.13 174.16 L 143.13 175.00 z" />
      </g>
    </g>
    <clipPath id="clip15">
      <path id="path135" d="M 0.0000 0.0000 L 0.0000 278.00 L 384.00 278.00 L 384.00 0.0000 z" />
    </clipPath>
    <g id="g137" clip-path="url(#clip15)">
      <g id="g139" stroke="#000000" stroke-opacity="1.0000" fill="none" stroke-linecap="butt">
        <path id="path141" d="M 137.73 161.43 L 137.73 164.43" />
      </g>
    </g>
    <clipPath id="clip16">
      <path id="path144" d="M 0.0000 0.0000 L 0.0000 278.00 L 384.00 278.00 L 384.00 0.0000 z" />
    </clipPath>
    <g id="g146" clip-path="url(#clip16)">
      <g id="g148" fill="#000000" stroke="none" fill-rule="nonzero" fill-opacity="1.0000">
        <path id="path150" d="M 179.13 175.18 Q 178.02 175.18 177.33 174.13 Q 176.63 173.08 176.63 171.38 Q 176.63 169.67 177.33 168.63 Q 178.03 167.59 179.16 167.59 Q 180.30 167.59 181.00 168.63 Q 181.69 169.67 181.69 171.37 Q 181.69 173.11 181.00 174.14 Q 180.30 175.18 179.13 175.18 z M 179.14 174.46 Q 180.67 174.46 180.67 171.35 Q 180.67 168.32 179.16 168.32 Q 177.66 168.32 177.66 171.38 Q 177.66 174.46 179.14 174.46 z" />
      </g>
    </g>
    <clipPath id="clip17">
      <path id="path153" d="M 0.0000 0.0000 L 0.0000 278.00 L 384.00 278.00 L 384.00 0.0000 z" />
    </clipPath>
    <g id="g155" clip-path="url(#clip17)">
      <g id="g157" fill="#000000" stroke="none" fill-rule="nonzero" fill-opacity="1.0000">
        <path id="path159" d="M 201.83 175.00 L 201.83 174.16 Q 202.25 173.17 203.53 172.02 L 204.08 171.52 Q 205.15 170.56 205.15 169.61 Q 205.15 169.01 204.78 168.66 Q 204.42 168.32 203.78 168.32 Q 203.03 168.32 202.01 168.90 L 202.01 168.05 Q 202.97 167.59 203.92 167.59 Q 204.94 167.59 205.55 168.14 Q 206.17 168.69 206.17 169.59 Q 206.17 170.24 205.86 170.74 Q 205.55 171.25 204.70 171.96 L 204.33 172.28 Q 203.17 173.26 202.99 174.16 L 206.13 174.16 L 206.13 175.00 z" />
      </g>
    </g>
    <clipPath id="clip18">
      <path id="path162" d="M 0.0000 0.0000 L 0.0000 278.00 L 384.00 278.00 L 384.00 0.0000 z" />
    </clipPath>
    <g id="g164" clip-path="url(#clip18)">
      <g id="g166" stroke="#000000" stroke-opacity="1.0000" fill="none" stroke-linecap="butt">
        <path id="path168" d="M 202.66 161.43 L 202.66 164.43" />
      </g>
    </g>
    <clipPath id="clip19">
      <path id="path171" d="M 0.0000 0.0000 L 0.0000 278.00 L 384.00 278.00 L 384.00 0.0000 z" />
    </clipPath>
    <g id="g173" clip-path="url(#clip19)">
      <g id="g175" fill="#000000" stroke="none" fill-rule="nonzero" fill-opacity="1.0000">
        <path id="path177" d="M 236.76 175.00 L 236.76 172.95 L 233.51 172.95 L 233.51 172.23 L 236.76 167.77 L 237.67 167.77 L 237.67 172.17 L 238.63 172.17 L 238.63 172.95 L 237.67 172.95 L 237.67 175.00 z M 234.46 172.17 L 236.83 172.17 L 236.83 168.96 z" />
      </g>
    </g>
    <clipPath id="clip20">
      <path id="path180" d="M 0.0000 0.0000 L 0.0000 278.00 L 384.00 278.00 L 384.00 0.0000 z" />
    </clipPath>
    <g id="g182" clip-path="url(#clip20)">
      <g id="g184" stroke="#000000" stroke-opacity="1.0000" fill="none" stroke-linecap="butt">
        <path id="path186" d="M 235.12 161.43 L 235.12 164.43" />
      </g>
    </g>
    <clipPath id="clip21">
      <path id="path189" d="M 0.0000 0.0000 L 0.0000 278.00 L 384.00 278.00 L 384.00 0.0000 z" />
    </clipPath>
    <g id="g191" clip-path="url(#clip21)">
      <g id="g193" fill="#000000" stroke="none" fill-rule="nonzero" fill-opacity="1.0000">
        <path id="path195" d="M 267.72 171.25 Q 268.41 170.36 269.45 170.36 Q 270.40 170.36 271.00 170.99 Q 271.61 171.62 271.61 172.60 Q 271.61 173.73 270.93 174.45 Q 270.25 175.18 269.21 175.18 Q 268.02 175.18 267.34 174.22 Q 266.67 173.26 266.67 171.55 Q 266.67 169.67 267.44 168.63 Q 268.22 167.59 269.62 167.59 Q 270.27 167.59 271.23 167.86 L 271.23 168.70 Q 270.21 168.31 269.56 168.31 Q 267.72 168.31 267.72 171.25 z M 270.64 172.81 Q 270.64 171.99 270.27 171.52 Q 269.90 171.05 269.25 171.05 Q 268.64 171.05 268.20 171.46 Q 267.76 171.88 267.76 172.45 Q 267.76 173.36 268.18 173.91 Q 268.59 174.46 269.28 174.46 Q 269.90 174.46 270.27 174.01 Q 270.64 173.56 270.64 172.81 z" />
      </g>
    </g>
    <clipPath id="clip22">
      <path id="path198" d="M 0.0000 0.0000 L 0.0000 278.00 L 384.00 278.00 L 384.00 0.0000 z" />
    </clipPath>
    <g id="g200" clip-path="url(#clip22)">
      <g id="g202" stroke="#000000" stroke-opacity="1.0000" fill="none" stroke-linecap="butt">
        <path id="path204" d="M 267.58 161.43 L 267.58 164.43" />
      </g>
    </g>
    <clipPath id="clip23">
      <path id="path207" d="M 0.0000 0.0000 L 0.0000 278.00 L 384.00 278.00 L 384.00 0.0000 z" />
    </clipPath>
    <g id="g209" clip-path="url(#clip23)">
      <g id="g211" fill="#000000" stroke="none" fill-rule="nonzero" fill-opacity="1.0000">
        <path id="path213" d="M 300.30 171.06 Q 299.24 170.33 299.24 169.43 Q 299.24 168.61 299.84 168.10 Q 300.44 167.59 301.41 167.59 Q 302.30 167.59 302.86 168.02 Q 303.41 168.46 303.41 169.15 Q 303.41 170.20 302.06 171.06 Q 303.70 171.87 303.70 173.13 Q 303.70 174.04 303.01 174.61 Q 302.33 175.18 301.24 175.18 Q 300.18 175.18 299.52 174.64 Q 298.86 174.10 298.86 173.22 Q 298.86 171.92 300.30 171.06 z M 301.53 170.76 Q 302.54 170.10 302.54 169.28 Q 302.54 168.85 302.20 168.58 Q 301.86 168.32 301.31 168.32 Q 300.78 168.32 300.45 168.58 Q 300.11 168.84 300.11 169.25 Q 300.11 169.66 300.41 169.98 Q 300.71 170.30 301.53 170.76 z M 300.82 171.46 Q 300.24 171.90 300.03 172.24 Q 299.83 172.57 299.83 173.07 Q 299.83 173.69 300.23 174.07 Q 300.63 174.46 301.28 174.46 Q 301.91 174.46 302.31 174.13 Q 302.71 173.80 302.71 173.28 Q 302.71 172.86 302.46 172.57 Q 302.21 172.28 301.51 171.86 z" />
      </g>
    </g>
    <clipPath id="clip24">
      <path id="path216" d="M 0.0000 0.0000 L 0.0000 278.00 L 384.00 278.00 L 384.00 0.0000 z" />
    </clipPath>
    <g id="g218" clip-path="url(#clip24)">
      <g id="g220" stroke="#000000" stroke-opacity="1.0000" fill="none" stroke-linecap="butt">
        <path id="path222" d="M 300.05 161.43 L 300.05 164.43" />
      </g>
    </g>
    <clipPath id="clip25">
      <path id="path225" d="M 0.0000 0.0000 L 0.0000 278.00 L 384.00 278.00 L 384.00 0.0000 z" />
    </clipPath>
    <g id="g227" clip-path="url(#clip25)">
      <g id="g229" fill="#000000" stroke="none" fill-rule="nonzero" fill-opacity="1.0000">
        <path id="path231" d="M 329.50 175.00 L 329.50 174.28 L 330.95 174.28 L 330.95 168.57 L 329.50 168.94 L 329.50 168.19 L 331.92 167.59 L 331.92 174.28 L 333.36 174.28 L 333.36 175.00 z M 337.46 175.18 Q 336.34 175.18 335.65 174.13 Q 334.96 173.08 334.96 171.38 Q 334.96 169.67 335.65 168.63 Q 336.35 167.59 337.49 167.59 Q 338.62 167.59 339.32 168.63 Q 340.02 169.67 340.02 171.37 Q 340.02 173.11 339.32 174.14 Q 338.62 175.18 337.46 175.18 z M 337.47 174.46 Q 339.00 174.46 339.00 171.35 Q 339.00 168.32 337.49 168.32 Q 335.98 168.32 335.98 171.38 Q 335.98 174.46 337.47 174.46 z" />
      </g>
    </g>
    <clipPath id="clip26">
      <path id="path234" d="M 0.0000 0.0000 L 0.0000 278.00 L 384.00 278.00 L 384.00 0.0000 z" />
    </clipPath>
    <g id="g236" clip-path="url(#clip26)">
      <g id="g238" stroke="#000000" stroke-opacity="1.0000" fill="none" stroke-linecap="butt">
        <path id="path240" d="M 332.51 161.43 L 332.51 164.43" />
      </g>
    </g>
    <clipPath id="clip27">
      <path id="path243" d="M 0.0000 0.0000 L 0.0000 278.00 L 384.00 278.00 L 384.00 0.0000 z" />
    </clipPath>
    <g id="g245" clip-path="url(#clip27)">
      <g id="g247" fill="#000000" stroke="none" fill-rule="nonzero" fill-opacity="1.0000">
        <path id="path249" d="M 361.50 175.00 L 361.50 174.28 L 362.95 174.28 L 362.95 168.57 L 361.50 168.94 L 361.50 168.19 L 363.92 167.59 L 363.92 174.28 L 365.36 174.28 L 365.36 175.00 z M 367.15 175.00 L 367.15 174.16 Q 367.57 173.17 368.85 172.02 L 369.40 171.52 Q 370.47 170.56 370.47 169.61 Q 370.47 169.01 370.10 168.66 Q 369.74 168.32 369.11 168.32 Q 368.35 168.32 367.33 168.90 L 367.33 168.05 Q 368.30 167.59 369.24 167.59 Q 370.26 167.59 370.87 168.14 Q 371.49 168.69 371.49 169.59 Q 371.49 170.24 371.18 170.74 Q 370.87 171.25 370.02 171.96 L 369.65 172.28 Q 368.50 173.26 368.32 174.16 L 371.46 174.16 L 371.46 175.00 z" />
      </g>
    </g>
    <clipPath id="clip28">
      <path id="path252" d="M 0.0000 0.0000 L 0.0000 278.00 L 384.00 278.00 L 384.00 0.0000 z" />
    </clipPath>
    <g id="g254" clip-path="url(#clip28)">
      <g id="g256" stroke="#000000" stroke-opacity="1.0000" fill="none" stroke-linecap="butt">
        <path id="path258" d="M 364.98 161.43 L 364.98 164.43" />
      </g>
    </g>
    <clipPath id="clip29">
      <path id="path261" d="M 0.0000 0.0000 L 0.0000 278.00 L 384.00 278.00 L 384.00 0.0000 z" />
    </clipPath>
    <g id="g263" clip-path="url(#clip29)">
      <g id="g265" fill="#000000" stroke="none" fill-rule="nonzero" fill-opacity="1.0000">
        <path id="path267" d="M 152.51 259.35 L 152.51 258.68 L 156.49 258.68 L 156.49 259.35 z M 158.72 258.25 Q 159.41 257.36 160.45 257.36 Q 161.40 257.36 162.00 257.99 Q 162.61 258.62 162.61 259.60 Q 162.61 260.73 161.93 261.45 Q 161.25 262.18 160.21 262.18 Q 159.02 262.18 158.34 261.22 Q 157.67 260.26 157.67 258.55 Q 157.67 256.67 158.44 255.63 Q 159.22 254.59 160.62 254.59 Q 161.27 254.59 162.23 254.86 L 162.23 255.70 Q 161.21 255.31 160.56 255.31 Q 158.72 255.31 158.72 258.25 z M 161.64 259.81 Q 161.64 258.99 161.27 258.52 Q 160.90 258.05 160.25 258.05 Q 159.64 258.05 159.20 258.46 Q 158.76 258.88 158.76 259.45 Q 158.76 260.36 159.18 260.91 Q 159.59 261.46 160.28 261.46 Q 160.90 261.46 161.27 261.01 Q 161.64 260.56 161.64 259.81 z" />
      </g>
    </g>
    <clipPath id="clip30">
      <path id="path270" d="M 0.0000 0.0000 L 0.0000 278.00 L 384.00 278.00 L 384.00 0.0000 z" />
    </clipPath>
    <g id="g272" clip-path="url(#clip30)">
      <g id="g274" stroke="#000000" stroke-opacity="1.0000" fill="none" stroke-linecap="butt">
        <path id="path276" d="M 167.19 258.82 L 170.19 258.82" />
      </g>
    </g>
    <clipPath id="clip31">
      <path id="path279" d="M 0.0000 0.0000 L 0.0000 278.00 L 384.00 278.00 L 384.00 0.0000 z" />
    </clipPath>
    <g id="g281" clip-path="url(#clip31)">
      <g id="g283" fill="#000000" stroke="none" fill-rule="nonzero" fill-opacity="1.0000">
        <path id="path285" d="M 152.51 227.35 L 152.51 226.68 L 156.49 226.68 L 156.49 227.35 z M 160.76 230.00 L 160.76 227.95 L 157.51 227.95 L 157.51 227.23 L 160.76 222.77 L 161.67 222.77 L 161.67 227.17 L 162.63 227.17 L 162.63 227.95 L 161.67 227.95 L 161.67 230.00 z M 158.46 227.17 L 160.83 227.17 L 160.83 223.96 z" />
      </g>
    </g>
    <clipPath id="clip32">
      <path id="path288" d="M 0.0000 0.0000 L 0.0000 278.00 L 384.00 278.00 L 384.00 0.0000 z" />
    </clipPath>
    <g id="g290" clip-path="url(#clip32)">
      <g id="g292" stroke="#000000" stroke-opacity="1.0000" fill="none" stroke-linecap="butt">
        <path id="path294" d="M 167.19 226.35 L 170.19 226.35" />
      </g>
    </g>
    <clipPath id="clip33">
      <path id="path297" d="M 0.0000 0.0000 L 0.0000 278.00 L 384.00 278.00 L 384.00 0.0000 z" />
    </clipPath>
    <g id="g299" clip-path="url(#clip33)">
      <g id="g301" fill="#000000" stroke="none" fill-rule="nonzero" fill-opacity="1.0000">
        <path id="path303" d="M 152.51 194.35 L 152.51 193.68 L 156.49 193.68 L 156.49 194.35 z M 157.83 197.00 L 157.83 196.16 Q 158.25 195.17 159.53 194.02 L 160.08 193.52 Q 161.15 192.56 161.15 191.61 Q 161.15 191.01 160.78 190.66 Q 160.42 190.32 159.78 190.32 Q 159.03 190.32 158.01 190.90 L 158.01 190.05 Q 158.97 189.59 159.92 189.59 Q 160.94 189.59 161.55 190.14 Q 162.17 190.69 162.17 191.59 Q 162.17 192.24 161.86 192.74 Q 161.55 193.25 160.70 193.96 L 160.33 194.28 Q 159.17 195.26 158.99 196.16 L 162.13 196.16 L 162.13 197.00 z" />
      </g>
    </g>
    <clipPath id="clip34">
      <path id="path306" d="M 0.0000 0.0000 L 0.0000 278.00 L 384.00 278.00 L 384.00 0.0000 z" />
    </clipPath>
    <g id="g308" clip-path="url(#clip34)">
      <g id="g310" stroke="#000000" stroke-opacity="1.0000" fill="none" stroke-linecap="butt">
        <path id="path312" d="M 167.19 193.89 L 170.19 193.89" />
      </g>
    </g>
    <clipPath id="clip35">
      <path id="path315" d="M 0.0000 0.0000 L 0.0000 278.00 L 384.00 278.00 L 384.00 0.0000 z" />
    </clipPath>
    <g id="g317" clip-path="url(#clip35)">
      <g id="g319" fill="#000000" stroke="none" fill-rule="nonzero" fill-opacity="1.0000">
        <path id="path321" d="M 160.13 159.18 Q 159.02 159.18 158.33 158.13 Q 157.63 157.08 157.63 155.38 Q 157.63 153.67 158.33 152.63 Q 159.03 151.59 160.16 151.59 Q 161.30 151.59 162.00 152.63 Q 162.69 153.67 162.69 155.37 Q 162.69 157.11 162.00 158.14 Q 161.30 159.18 160.13 159.18 z M 160.14 158.46 Q 161.67 158.46 161.67 155.35 Q 161.67 152.32 160.16 152.32 Q 158.66 152.32 158.66 155.38 Q 158.66 158.46 160.14 158.46 z" />
      </g>
    </g>
    <clipPath id="clip36">
      <path id="path324" d="M 0.0000 0.0000 L 0.0000 278.00 L 384.00 278.00 L 384.00 0.0000 z" />
    </clipPath>
    <g id="g326" clip-path="url(#clip36)">
      <g id="g328" fill="#000000" stroke="none" fill-rule="nonzero" fill-opacity="1.0000">
        <path id="path330" d="M 157.83 132.00 L 157.83 131.16 Q 158.25 130.17 159.53 129.02 L 160.08 128.52 Q 161.15 127.56 161.15 126.61 Q 161.15 126.01 160.78 125.66 Q 160.42 125.32 159.78 125.32 Q 159.03 125.32 158.01 125.90 L 158.01 125.05 Q 158.97 124.59 159.92 124.59 Q 160.94 124.59 161.55 125.14 Q 162.17 125.69 162.17 126.59 Q 162.17 127.24 161.86 127.74 Q 161.55 128.25 160.70 128.96 L 160.33 129.28 Q 159.17 130.26 158.99 131.16 L 162.13 131.16 L 162.13 132.00 z" />
      </g>
    </g>
    <clipPath id="clip37">
      <path id="path333" d="M 0.0000 0.0000 L 0.0000 278.00 L 384.00 278.00 L 384.00 0.0000 z" />
    </clipPath>
    <g id="g335" clip-path="url(#clip37)">
      <g id="g337" stroke="#000000" stroke-opacity="1.0000" fill="none" stroke-linecap="butt">
        <path id="path339" d="M 167.19 128.96 L 170.19 128.96" />
      </g>
    </g>
    <clipPath id="clip38">
      <path id="path342" d="M 0.0000 0.0000 L 0.0000 278.00 L 384.00 278.00 L 384.00 0.0000 z" />
    </clipPath>
    <g id="g344" clip-path="url(#clip38)">
      <g id="g346" fill="#000000" stroke="none" fill-rule="nonzero" fill-opacity="1.0000">
        <path id="path348" d="M 160.76 100.00 L 160.76 97.954 L 157.51 97.954 L 157.51 97.227 L 160.76 92.773 L 161.67 92.773 L 161.67 97.168 L 162.63 97.168 L 162.63 97.954 L 161.67 97.954 L 161.67 100.00 z M 158.46 97.168 L 160.83 97.168 L 160.83 93.955 z" />
      </g>
    </g>
    <clipPath id="clip39">
      <path id="path351" d="M 0.0000 0.0000 L 0.0000 278.00 L 384.00 278.00 L 384.00 0.0000 z" />
    </clipPath>
    <g id="g353" clip-path="url(#clip39)">
      <g id="g355" stroke="#000000" stroke-opacity="1.0000" fill="none" stroke-linecap="butt">
        <path id="path357" d="M 167.19 96.498 L 170.19 96.498" />
      </g>
    </g>
    <clipPath id="clip40">
      <path id="path360" d="M 0.0000 0.0000 L 0.0000 278.00 L 384.00 278.00 L 384.00 0.0000 z" />
    </clipPath>
    <g id="g362" clip-path="url(#clip40)">
      <g id="g364" fill="#000000" stroke="none" fill-rule="nonzero" fill-opacity="1.0000">
        <path id="path366" d="M 158.72 64.255 Q 159.41 63.361 160.45 63.361 Q 161.40 63.361 162.00 63.989 Q 162.61 64.616 162.61 65.598 Q 162.61 66.726 161.93 67.453 Q 161.25 68.181 160.21 68.181 Q 159.02 68.181 158.34 67.219 Q 157.67 66.257 157.67 64.548 Q 157.67 62.668 158.44 61.628 Q 159.22 60.588 160.62 60.588 Q 161.27 60.588 162.23 60.861 L 162.23 61.701 Q 161.21 61.311 160.56 61.311 Q 158.72 61.311 158.72 64.255 z M 161.64 65.812 Q 161.64 64.992 161.27 64.523 Q 160.90 64.055 160.25 64.055 Q 159.64 64.055 159.20 64.465 Q 158.76 64.875 158.76 65.451 Q 158.76 66.359 159.18 66.909 Q 159.59 67.458 160.28 67.458 Q 160.90 67.458 161.27 67.011 Q 161.64 66.564 161.64 65.812 z" />
      </g>
    </g>
    <clipPath id="clip41">
      <path id="path369" d="M 0.0000 0.0000 L 0.0000 278.00 L 384.00 278.00 L 384.00 0.0000 z" />
    </clipPath>
    <g id="g371" clip-path="url(#clip41)">
      <g id="g373" stroke="#000000" stroke-opacity="1.0000" fill="none" stroke-linecap="butt">
        <path id="path375" d="M 167.19 64.034 L 170.19 64.034" />
      </g>
    </g>
    <clipPath id="clip42">
      <path id="path378" d="M 0.0000 0.0000 L 0.0000 278.00 L 384.00 278.00 L 384.00 0.0000 z" />
    </clipPath>
    <g id="g380" clip-path="url(#clip42)">
      <g id="g382" fill="#000000" stroke="none" fill-rule="nonzero" fill-opacity="1.0000">
        <path id="path384" d="M 159.30 31.064 Q 158.24 30.327 158.24 29.434 Q 158.24 28.613 158.84 28.101 Q 159.44 27.588 160.41 27.588 Q 161.30 27.588 161.86 28.022 Q 162.41 28.457 162.41 29.150 Q 162.41 30.200 161.06 31.064 Q 162.70 31.865 162.70 33.130 Q 162.70 34.038 162.01 34.609 Q 161.33 35.181 160.24 35.181 Q 159.18 35.181 158.52 34.641 Q 157.86 34.102 157.86 33.223 Q 157.86 31.924 159.30 31.064 z M 160.53 30.762 Q 161.54 30.098 161.54 29.282 Q 161.54 28.848 161.20 28.582 Q 160.86 28.315 160.31 28.315 Q 159.78 28.315 159.45 28.577 Q 159.11 28.838 159.11 29.253 Q 159.11 29.658 159.41 29.978 Q 159.71 30.298 160.53 30.762 z M 159.82 31.455 Q 159.24 31.904 159.03 32.239 Q 158.83 32.573 158.83 33.071 Q 158.83 33.691 159.23 34.075 Q 159.63 34.458 160.28 34.458 Q 160.91 34.458 161.31 34.131 Q 161.71 33.804 161.71 33.281 Q 161.71 32.861 161.46 32.571 Q 161.21 32.280 160.51 31.860 z" />
      </g>
    </g>
    <clipPath id="clip43">
      <path id="path387" d="M 0.0000 0.0000 L 0.0000 278.00 L 384.00 278.00 L 384.00 0.0000 z" />
    </clipPath>
    <g id="g389" clip-path="url(#clip43)">
      <g id="g391" stroke="#000000" stroke-opacity="1.0000" fill="none" stroke-linecap="butt">
        <path id="path393" d="M 167.19 31.571 L 170.19 31.571" />
      </g>
    </g>
    <clipPath id="clip44">
      <path id="path396" d="M 0.0000 0.0000 L 0.0000 278.00 L 384.00 278.00 L 384.00 0.0000 z" />
    </clipPath>
    <g id="g398" clip-path="url(#clip44)">
      <g id="g400" stroke="#c0c0c0" stroke-opacity="1.0000" fill="none" stroke-linecap="round" stroke-linejoin="round">
        <path id="path402" d="M 40.337 0.0000 L 40.337 161.43" />
      </g>
    </g>
    <clipPath id="clip45">
      <path id="path405" d="M 0.0000 0.0000 L 0.0000 278.00 L 384.00 278.00 L 384.00 0.0000 z" />
    </clipPath>
    <g id="g407" clip-path="url(#clip45)">
      <g id="g409" stroke="#c0c0c0" stroke-opacity="1.0000" fill="none" stroke-linecap="round" stroke-linejoin="round">
        <path id="path411" d="M 40.337 180.43 L 40.337 278.00" />
      </g>
    </g>
    <clipPath id="clip46">
      <path id="path414" d="M 0.0000 0.0000 L 0.0000 278.00 L 384.00 278.00 L 384.00 0.0000 z" />
    </clipPath>
    <g id="g416" clip-path="url(#clip46)">
      <g id="g418" stroke="#c0c0c0" stroke-opacity="1.0000" fill="none" stroke-linecap="round" stroke-linejoin="round">
        <path id="path420" d="M 7.8734 0.0000 L 7.8734 278.00" />
      </g>
    </g>
    <clipPath id="clip47">
      <path id="path423" d="M 0.0000 0.0000 L 0.0000 278.00 L 384.00 278.00 L 384.00 0.0000 z" />
    </clipPath>
    <g id="g425" clip-path="url(#clip47)">
      <g id="g427" stroke="#c0c0c0" stroke-opacity="1.0000" fill="none" stroke-linecap="round" stroke-linejoin="round">
        <path id="path429" d="M 40.337 0.0000 L 40.337 161.43" />
      </g>
    </g>
    <clipPath id="clip48">
      <path id="path432" d="M 0.0000 0.0000 L 0.0000 278.00 L 384.00 278.00 L 384.00 0.0000 z" />
    </clipPath>
    <g id="g434" clip-path="url(#clip48)">
      <g id="g436" stroke="#c0c0c0" stroke-opacity="1.0000" fill="none" stroke-linecap="round" stroke-linejoin="round">
        <path id="path438" d="M 40.337 180.43 L 40.337 278.00" />
      </g>
    </g>
    <clipPath id="clip49">
      <path id="path441" d="M 0.0000 0.0000 L 0.0000 278.00 L 384.00 278.00 L 384.00 0.0000 z" />
    </clipPath>
    <g id="g443" clip-path="url(#clip49)">
      <g id="g445" stroke="#c0c0c0" stroke-opacity="1.0000" fill="none" stroke-linecap="round" stroke-linejoin="round">
        <path id="path447" d="M 72.801 0.0000 L 72.801 161.43" />
      </g>
    </g>
    <clipPath id="clip50">
      <path id="path450" d="M 0.0000 0.0000 L 0.0000 278.00 L 384.00 278.00 L 384.00 0.0000 z" />
    </clipPath>
    <g id="g452" clip-path="url(#clip50)">
      <g id="g454" stroke="#c0c0c0" stroke-opacity="1.0000" fill="none" stroke-linecap="round" stroke-linejoin="round">
        <path id="path456" d="M 72.801 180.43 L 72.801 278.00" />
      </g>
    </g>
    <clipPath id="clip51">
      <path id="path459" d="M 0.0000 0.0000 L 0.0000 278.00 L 384.00 278.00 L 384.00 0.0000 z" />
    </clipPath>
    <g id="g461" clip-path="url(#clip51)">
      <g id="g463" stroke="#c0c0c0" stroke-opacity="1.0000" fill="none" stroke-linecap="round" stroke-linejoin="round">
        <path id="path465" d="M 105.26 0.0000 L 105.26 161.43" />
      </g>
    </g>
    <clipPath id="clip52">
      <path id="path468" d="M 0.0000 0.0000 L 0.0000 278.00 L 384.00 278.00 L 384.00 0.0000 z" />
    </clipPath>
    <g id="g470" clip-path="url(#clip52)">
      <g id="g472" stroke="#c0c0c0" stroke-opacity="1.0000" fill="none" stroke-linecap="round" stroke-linejoin="round">
        <path id="path474" d="M 105.26 180.43 L 105.26 278.00" />
      </g>
    </g>
    <clipPath id="clip53">
      <path id="path477" d="M 0.0000 0.0000 L 0.0000 278.00 L 384.00 278.00 L 384.00 0.0000 z" />
    </clipPath>
    <g id="g479" clip-path="url(#clip53)">
      <g id="g481" stroke="#c0c0c0" stroke-opacity="1.0000" fill="none" stroke-linecap="round" stroke-linejoin="round">
        <path id="path483" d="M 137.73 0.0000 L 137.73 161.43" />
      </g>
    </g>
    <clipPath id="clip54">
      <path id="path486" d="M 0.0000 0.0000 L 0.0000 278.00 L 384.00 278.00 L 384.00 0.0000 z" />
    </clipPath>
    <g id="g488" clip-path="url(#clip54)">
      <g id="g490" stroke="#c0c0c0" stroke-opacity="1.0000" fill="none" stroke-linecap="round" stroke-linejoin="round">
        <path id="path492" d="M 137.73 180.43 L 137.73 278.00" />
      </g>
    </g>
    <clipPath id="clip55">
      <path id="path495" d="M 0.0000 0.0000 L 0.0000 278.00 L 384.00 278.00 L 384.00 0.0000 z" />
    </clipPath>
    <g id="g497" clip-path="url(#clip55)">
      <g id="g499" stroke="#c0c0c0" stroke-opacity="1.0000" fill="none" stroke-linecap="round" stroke-linejoin="round">
        <path id="path501" d="M 202.66 0.0000 L 202.66 161.43" />
      </g>
    </g>
    <clipPath id="clip56">
      <path id="path504" d="M 0.0000 0.0000 L 0.0000 278.00 L 384.00 278.00 L 384.00 0.0000 z" />
    </clipPath>
    <g id="g506" clip-path="url(#clip56)">
      <g id="g508" stroke="#c0c0c0" stroke-opacity="1.0000" fill="none" stroke-linecap="round" stroke-linejoin="round">
        <path id="path510" d="M 202.66 180.43 L 202.66 278.00" />
      </g>
    </g>
    <clipPath id="clip57">
      <path id="path513" d="M 0.0000 0.0000 L 0.0000 278.00 L 384.00 278.00 L 384.00 0.0000 z" />
    </clipPath>
    <g id="g515" clip-path="url(#clip57)">
      <g id="g517" stroke="#c0c0c0" stroke-opacity="1.0000" fill="none" stroke-linecap="round" stroke-linejoin="round">
        <path id="path519" d="M 235.12 0.0000 L 235.12 161.43" />
      </g>
    </g>
    <clipPath id="clip58">
      <path id="path522" d="M 0.0000 0.0000 L 0.0000 278.00 L 384.00 278.00 L 384.00 0.0000 z" />
    </clipPath>
    <g id="g524" clip-path="url(#clip58)">
      <g id="g526" stroke="#c0c0c0" stroke-opacity="1.0000" fill="none" stroke-linecap="round" stroke-linejoin="round">
        <path id="path528" d="M 235.12 180.43 L 235.12 278.00" />
      </g>
    </g>
    <clipPath id="clip59">
      <path id="path531" d="M 0.0000 0.0000 L 0.0000 278.00 L 384.00 278.00 L 384.00 0.0000 z" />
    </clipPath>
    <g id="g533" clip-path="url(#clip59)">
      <g id="g535" stroke="#c0c0c0" stroke-opacity="1.0000" fill="none" stroke-linecap="round" stroke-linejoin="round">
        <path id="path537" d="M 267.58 0.0000 L 267.58 161.43" />
      </g>
    </g>
    <clipPath id="clip60">
      <path id="path540" d="M 0.0000 0.0000 L 0.0000 278.00 L 384.00 278.00 L 384.00 0.0000 z" />
    </clipPath>
    <g id="g542" clip-path="url(#clip60)">
      <g id="g544" stroke="#c0c0c0" stroke-opacity="1.0000" fill="none" stroke-linecap="round" stroke-linejoin="round">
        <path id="path546" d="M 267.58 180.43 L 267.58 278.00" />
      </g>
    </g>
    <clipPath id="clip61">
      <path id="path549" d="M 0.0000 0.0000 L 0.0000 278.00 L 384.00 278.00 L 384.00 0.0000 z" />
    </clipPath>
    <g id="g551" clip-path="url(#clip61)">
      <g id="g553" stroke="#c0c0c0" stroke-opacity="1.0000" fill="none" stroke-linecap="round" stroke-linejoin="round">
        <path id="path555" d="M 300.05 0.0000 L 300.05 161.43" />
      </g>
    </g>
    <clipPath id="clip62">
      <path id="path558" d="M 0.0000 0.0000 L 0.0000 278.00 L 384.00 278.00 L 384.00 0.0000 z" />
    </clipPath>
    <g id="g560" clip-path="url(#clip62)">
      <g id="g562" stroke="#c0c0c0" stroke-opacity="1.0000" fill="none" stroke-linecap="round" stroke-linejoin="round">
        <path id="path564" d="M 300.05 180.43 L 300.05 278.00" />
      </g>
    </g>
    <clipPath id="clip63">
      <path id="path567" d="M 0.0000 0.0000 L 0.0000 278.00 L 384.00 278.00 L 384.00 0.0000 z" />
    </clipPath>
    <g id="g569" clip-path="url(#clip63)">
      <g id="g571" stroke="#c0c0c0" stroke-opacity="1.0000" fill="none" stroke-linecap="round" stroke-linejoin="round">
        <path id="path573" d="M 332.51 0.0000 L 332.51 161.43" />
      </g>
    </g>
    <clipPath id="clip64">
      <path id="path576" d="M 0.0000 0.0000 L 0.0000 278.00 L 384.00 278.00 L 384.00 0.0000 z" />
    </clipPath>
    <g id="g578" clip-path="url(#clip64)">
      <g id="g580" stroke="#c0c0c0" stroke-opacity="1.0000" fill="none" stroke-linecap="round" stroke-linejoin="round">
        <path id="path582" d="M 332.51 180.43 L 332.51 278.00" />
      </g>
    </g>
    <clipPath id="clip65">
      <path id="path585" d="M 0.0000 0.0000 L 0.0000 278.00 L 384.00 278.00 L 384.00 0.0000 z" />
    </clipPath>
    <g id="g587" clip-path="url(#clip65)">
      <g id="g589" stroke="#c0c0c0" stroke-opacity="1.0000" fill="none" stroke-linecap="round" stroke-linejoin="round">
        <path id="path591" d="M 364.98 0.0000 L 364.98 161.43" />
      </g>
    </g>
    <clipPath id="clip66">
      <path id="path594" d="M 0.0000 0.0000 L 0.0000 278.00 L 384.00 278.00 L 384.00 0.0000 z" />
    </clipPath>
    <g id="g596" clip-path="url(#clip66)">
      <g id="g598" stroke="#c0c0c0" stroke-opacity="1.0000" fill="none" stroke-linecap="round" stroke-linejoin="round">
        <path id="path600" d="M 364.98 180.43 L 364.98 278.00" />
      </g>
    </g>
    <clipPath id="clip67">
      <path id="path603" d="M 0.0000 0.0000 L 0.0000 278.00 L 384.00 278.00 L 384.00 0.0000 z" />
    </clipPath>
    <g id="g605" clip-path="url(#clip67)">
      <g id="g607" stroke="#c0c0c0" stroke-opacity="1.0000" fill="none" stroke-linecap="round" stroke-linejoin="round">
        <path id="path609" d="M 0.0000 31.571 L 153.87 31.571" />
      </g>
    </g>
    <clipPath id="clip68">
      <path id="path612" d="M 0.0000 0.0000 L 0.0000 278.00 L 384.00 278.00 L 384.00 0.0000 z" />
    </clipPath>
    <g id="g614" clip-path="url(#clip68)">
      <g id="g616" stroke="#c0c0c0" stroke-opacity="1.0000" fill="none" stroke-linecap="round" stroke-linejoin="round">
        <path id="path618" d="M 170.19 31.571 L 384.00 31.571" />
      </g>
    </g>
    <clipPath id="clip69">
      <path id="path621" d="M 0.0000 0.0000 L 0.0000 278.00 L 384.00 278.00 L 384.00 0.0000 z" />
    </clipPath>
    <g id="g623" clip-path="url(#clip69)">
      <g id="g625" stroke="#c0c0c0" stroke-opacity="1.0000" fill="none" stroke-linecap="round" stroke-linejoin="round">
        <path id="path627" d="M 0.0000 31.571 L 153.87 31.571" />
      </g>
    </g>
    <clipPath id="clip70">
      <path id="path630" d="M 0.0000 0.0000 L 0.0000 278.00 L 384.00 278.00 L 384.00 0.0000 z" />
    </clipPath>
    <g id="g632" clip-path="url(#clip70)">
      <g id="g634" stroke="#c0c0c0" stroke-opacity="1.0000" fill="none" stroke-linecap="round" stroke-linejoin="round">
        <path id="path636" d="M 170.19 31.571 L 384.00 31.571" />
      </g>
    </g>
    <clipPath id="clip71">
      <path id="path639" d="M 0.0000 0.0000 L 0.0000 278.00 L 384.00 278.00 L 384.00 0.0000 z" />
    </clipPath>
    <g id="g641" clip-path="url(#clip71)">
      <g id="g643" stroke="#c0c0c0" stroke-opacity="1.0000" fill="none" stroke-linecap="round" stroke-linejoin="round">
        <path id="path645" d="M 0.0000 64.034 L 153.87 64.034" />
      </g>
    </g>
    <clipPath id="clip72">
      <path id="path648" d="M 0.0000 0.0000 L 0.0000 278.00 L 384.00 278.00 L 384.00 0.0000 z" />
    </clipPath>
    <g id="g650" clip-path="url(#clip72)">
      <g id="g652" stroke="#c0c0c0" stroke-opacity="1.0000" fill="none" stroke-linecap="round" stroke-linejoin="round">
        <path id="path654" d="M 170.19 64.034 L 384.00 64.034" />
      </g>
    </g>
    <clipPath id="clip73">
      <path id="path657" d="M 0.0000 0.0000 L 0.0000 278.00 L 384.00 278.00 L 384.00 0.0000 z" />
    </clipPath>
    <g id="g659" clip-path="url(#clip73)">
      <g id="g661" stroke="#c0c0c0" stroke-opacity="1.0000" fill="none" stroke-linecap="round" stroke-linejoin="round">
        <path id="path663" d="M 0.0000 96.498 L 153.87 96.498" />
      </g>
    </g>
    <clipPath id="clip74">
      <path id="path666" d="M 0.0000 0.0000 L 0.0000 278.00 L 384.00 278.00 L 384.00 0.0000 z" />
    </clipPath>
    <g id="g668" clip-path="url(#clip74)">
      <g id="g670" stroke="#c0c0c0" stroke-opacity="1.0000" fill="none" stroke-linecap="round" stroke-linejoin="round">
        <path id="path672" d="M 170.19 96.498 L 384.00 96.498" />
      </g>
    </g>
    <clipPath id="clip75">
      <path id="path675" d="M 0.0000 0.0000 L 0.0000 278.00 L 384.00 278.00 L 384.00 0.0000 z" />
    </clipPath>
    <g id="g677" clip-path="url(#clip75)">
      <g id="g679" stroke="#c0c0c0" stroke-opacity="1.0000" fill="none" stroke-linecap="round" stroke-linejoin="round">
        <path id="path681" d="M 0.0000 128.96 L 153.87 128.96" />
      </g>
    </g>
    <clipPath id="clip76">
      <path id="path684" d="M 0.0000 0.0000 L 0.0000 278.00 L 384.00 278.00 L 384.00 0.0000 z" />
    </clipPath>
    <g id="g686" clip-path="url(#clip76)">
      <g id="g688" stroke="#c0c0c0" stroke-opacity="1.0000" fill="none" stroke-linecap="round" stroke-linejoin="round">
        <path id="path690" d="M 170.19 128.96 L 384.00 128.96" />
      </g>
    </g>
    <clipPath id="clip77">
      <path id="path693" d="M 0.0000 0.0000 L 0.0000 278.00 L 384.00 278.00 L 384.00 0.0000 z" />
    </clipPath>
    <g id="g695" clip-path="url(#clip77)">
      <g id="g697" stroke="#c0c0c0" stroke-opacity="1.0000" fill="none" stroke-linecap="round" stroke-linejoin="round">
        <path id="path699" d="M 0.0000 193.89 L 148.87 193.89" />
      </g>
    </g>
    <clipPath id="clip78">
      <path id="path702" d="M 0.0000 0.0000 L 0.0000 278.00 L 384.00 278.00 L 384.00 0.0000 z" />
    </clipPath>
    <g id="g704" clip-path="url(#clip78)">
      <g id="g706" stroke="#c0c0c0" stroke-opacity="1.0000" fill="none" stroke-linecap="round" stroke-linejoin="round">
        <path id="path708" d="M 170.19 193.89 L 384.00 193.89" />
      </g>
    </g>
    <clipPath id="clip79">
      <path id="path711" d="M 0.0000 0.0000 L 0.0000 278.00 L 384.00 278.00 L 384.00 0.0000 z" />
    </clipPath>
    <g id="g713" clip-path="url(#clip79)">
      <g id="g715" stroke="#c0c0c0" stroke-opacity="1.0000" fill="none" stroke-linecap="round" stroke-linejoin="round">
        <path id="path717" d="M 0.0000 226.35 L 148.87 226.35" />
      </g>
    </g>
    <clipPath id="clip80">
      <path id="path720" d="M 0.0000 0.0000 L 0.0000 278.00 L 384.00 278.00 L 384.00 0.0000 z" />
    </clipPath>
    <g id="g722" clip-path="url(#clip80)">
      <g id="g724" stroke="#c0c0c0" stroke-opacity="1.0000" fill="none" stroke-linecap="round" stroke-linejoin="round">
        <path id="path726" d="M 170.19 226.35 L 384.00 226.35" />
      </g>
    </g>
    <clipPath id="clip81">
      <path id="path729" d="M 0.0000 0.0000 L 0.0000 278.00 L 384.00 278.00 L 384.00 0.0000 z" />
    </clipPath>
    <g id="g731" clip-path="url(#clip81)">
      <g id="g733" stroke="#c0c0c0" stroke-opacity="1.0000" fill="none" stroke-linecap="round" stroke-linejoin="round">
        <path id="path735" d="M 0.0000 258.82 L 148.87 258.82" />
      </g>
    </g>
    <clipPath id="clip82">
      <path id="path738" d="M 0.0000 0.0000 L 0.0000 278.00 L 384.00 278.00 L 384.00 0.0000 z" />
    </clipPath>
    <g id="g740" clip-path="url(#clip82)">
      <g id="g742" stroke="#c0c0c0" stroke-opacity="1.0000" fill="none" stroke-linecap="round" stroke-linejoin="round">
        <path id="path744" d="M 170.19 258.82 L 384.00 258.82" />
      </g>
    </g>
    <g id="misc" />
    <g id="layer0">
      <clipPath id="clip83">
        <path id="path749" d="M 0.0000 0.0000 L 0.0000 278.00 L 384.00 278.00 L 384.00 0.0000 z" />
      </clipPath>
      <g id="g751" clip-path="url(#clip83)">
        <g id="g753" stroke="#0000ff" stroke-opacity="1.0000" fill="none" stroke-linecap="round" stroke-width="2.5000" stroke-linejoin="round">
          <path id="path755" d="M 125.64 283.00 L 269.64 -5.0000" />
          <title id="title757">Line f</title>
          <desc id="desc759">f: y = 2x - 2</desc>
        </g>
      </g>
      <clipPath id="clip84">
        <path id="path762" d="M 0.0000 0.0000 L 0.0000 278.00 L 384.00 278.00 L 384.00 0.0000 z" />
      </clipPath>
      <g id="g764" clip-path="url(#clip84)">
        <g id="g766" stroke="#ff00ff" stroke-opacity="1.0000" fill="none" stroke-linecap="round" stroke-width="2.5000" stroke-linejoin="round">
          <path id="path768" d="M 139.80 283.00 L 211.80 -5.0000" />
          <title id="title770">Line g</title>
          <desc id="desc772">g: y = 4x</desc>
        </g>
      </g>
    </g>
  </g>
</svg>