<?xml version='1.0' ?><svg xmlns:dc="http://purl.org/dc/elements/1.1/" xmlns:cc="http://creativecommons.org/ns#" xmlns:rdf="http://www.w3.org/1999/02/22-rdf-syntax-ns#" xmlns:svg="http://www.w3.org/2000/svg" xmlns="http://www.w3.org/2000/svg" id="svg2" version="1.1" width="373.75001" height="269.60611" viewBox="0.0 0.20234636243478257 384.0000102742474 276.9999899397993" preserveAspectRatio="none">
  <metadata id="metadata603">
    <rdf:RDF>
      <cc:Work rdf:about="">
        <dc:format>image/svg+xml</dc:format>
        <dc:type rdf:resource="http://purl.org/dc/dcmitype/StillImage" />
      </cc:Work>
    </rdf:RDF>
  </metadata>
  <defs id="defs601" />
  <title id="title4" />
  <g id="g6" stroke-linecap="square" stroke-miterlimit="10.000" stroke-width="1.0000" stroke-dasharray="none" stroke-dashoffset="0.0000" stroke-linejoin="miter">
    <clipPath id="clip1">
      <path id="path9" d="M 0.0000 0.0000 L 0.0000 277.00 L 384.00 277.00 L 384.00 0.0000 z" />
    </clipPath>
    <g id="g11" clip-path="url(#clip1)">
      <g id="g13" stroke="#000000" stroke-opacity="1.0000" fill="none" stroke-linecap="butt">
        <path id="path15" d="M 185.50 2.0000 L 185.50 277.00" />
      </g>
    </g>
    <clipPath id="clip2">
      <path id="path18" d="M 0.0000 0.0000 L 0.0000 277.00 L 384.00 277.00 L 384.00 0.0000 z" />
    </clipPath>
    <g id="g20" clip-path="url(#clip2)">
      <g id="g22" stroke="#000000" stroke-opacity="1.0000" fill="none" stroke-linecap="butt">
        <path id="path24" d="M 185.50 1.0000 L 182.50 4.0000" />
      </g>
    </g>
    <clipPath id="clip3">
      <path id="path27" d="M 0.0000 0.0000 L 0.0000 277.00 L 384.00 277.00 L 384.00 0.0000 z" />
    </clipPath>
    <g id="g29" clip-path="url(#clip3)">
      <g id="g31" stroke="#000000" stroke-opacity="1.0000" fill="none" stroke-linecap="butt">
        <path id="path33" d="M 185.50 1.0000 L 188.50 4.0000" />
      </g>
    </g>
    <clipPath id="clip4">
      <path id="path36" d="M 0.0000 0.0000 L 0.0000 277.00 L 384.00 277.00 L 384.00 0.0000 z" />
    </clipPath>
    <g id="g38" clip-path="url(#clip4)">
      <g id="g40" stroke="#000000" stroke-opacity="1.0000" fill="none" stroke-linecap="butt">
        <path id="path42" d="M 0.0000 155.58 L 382.00 155.58" />
      </g>
    </g>
    <clipPath id="clip5">
      <path id="path45" d="M 0.0000 0.0000 L 0.0000 277.00 L 384.00 277.00 L 384.00 0.0000 z" />
    </clipPath>
    <g id="g47" clip-path="url(#clip5)">
      <g id="g49" stroke="#000000" stroke-opacity="1.0000" fill="none" stroke-linecap="butt">
        <path id="path51" d="M 383.00 155.58 L 380.00 152.58" />
      </g>
    </g>
    <clipPath id="clip6">
      <path id="path54" d="M 0.0000 0.0000 L 0.0000 277.00 L 384.00 277.00 L 384.00 0.0000 z" />
    </clipPath>
    <g id="g56" clip-path="url(#clip6)">
      <g id="g58" stroke="#000000" stroke-opacity="1.0000" fill="none" stroke-linecap="butt">
        <path id="path60" d="M 383.00 155.58 L 380.00 158.58" />
      </g>
    </g>
    <clipPath id="clip7">
      <path id="path63" d="M 0.0000 0.0000 L 0.0000 277.00 L 384.00 277.00 L 384.00 0.0000 z" />
    </clipPath>
    <g id="g65" clip-path="url(#clip7)">
      <g id="g67" fill="#000000" stroke="none" fill-rule="nonzero" fill-opacity="1.0000">
        <path id="path69" d="M 7.5127 166.35 L 7.5127 165.68 L 11.487 165.68 L 11.487 166.35 z M 12.830 169.00 L 12.830 168.16 Q 13.250 167.17 14.529 166.02 L 15.081 165.52 Q 16.146 164.56 16.146 163.61 Q 16.146 163.01 15.782 162.66 Q 15.418 162.32 14.783 162.32 Q 14.031 162.32 13.011 162.90 L 13.011 162.05 Q 13.973 161.59 14.920 161.59 Q 15.936 161.59 16.551 162.14 Q 17.166 162.69 17.166 163.59 Q 17.166 164.24 16.856 164.74 Q 16.546 165.25 15.701 165.96 L 15.330 166.28 Q 14.173 167.26 13.992 168.16 L 17.132 168.16 L 17.132 169.00 z M 20.159 169.00 L 20.159 164.48 L 19.959 164.48 Q 19.319 164.48 18.685 164.83 L 18.685 163.94 Q 19.256 163.70 20.066 163.70 L 25.765 163.70 L 25.765 164.48 L 24.559 164.48 L 24.559 167.56 Q 24.559 168.38 24.935 169.00 L 23.914 169.00 Q 23.592 168.30 23.592 167.52 L 23.592 164.48 L 21.126 164.48 L 21.126 169.00 z" />
      </g>
    </g>
    <clipPath id="clip8">
      <path id="path72" d="M 0.0000 0.0000 L 0.0000 277.00 L 384.00 277.00 L 384.00 0.0000 z" />
    </clipPath>
    <g id="g74" clip-path="url(#clip8)">
      <g id="g76" stroke="#000000" stroke-opacity="1.0000" fill="none" stroke-linecap="butt">
        <path id="path78" d="M 14.411 155.58 L 14.411 158.58" />
      </g>
    </g>
    <clipPath id="clip9">
      <path id="path81" d="M 0.0000 0.0000 L 0.0000 277.00 L 384.00 277.00 L 384.00 0.0000 z" />
    </clipPath>
    <g id="g83" clip-path="url(#clip9)">
      <g id="g85" fill="#000000" stroke="none" fill-rule="nonzero" fill-opacity="1.0000">
        <path id="path87" d="M 95.513 166.35 L 95.513 165.68 L 99.487 165.68 L 99.487 166.35 z M 101.84 169.00 L 101.84 164.48 L 101.64 164.48 Q 101.00 164.48 100.36 164.83 L 100.36 163.94 Q 100.93 163.70 101.74 163.70 L 107.44 163.70 L 107.44 164.48 L 106.24 164.48 L 106.24 167.56 Q 106.24 168.38 106.61 169.00 L 105.59 169.00 Q 105.27 168.30 105.27 167.52 L 105.27 164.48 L 102.80 164.48 L 102.80 169.00 z" />
      </g>
    </g>
    <clipPath id="clip10">
      <path id="path90" d="M 0.0000 0.0000 L 0.0000 277.00 L 384.00 277.00 L 384.00 0.0000 z" />
    </clipPath>
    <g id="g92" clip-path="url(#clip10)">
      <g id="g94" stroke="#000000" stroke-opacity="1.0000" fill="none" stroke-linecap="butt">
        <path id="path96" d="M 99.957 155.58 L 99.957 158.58" />
      </g>
    </g>
    <clipPath id="clip11">
      <path id="path99" d="M 0.0000 0.0000 L 0.0000 277.00 L 384.00 277.00 L 384.00 0.0000 z" />
    </clipPath>
    <g id="g101" clip-path="url(#clip11)">
      <g id="g103" fill="#000000" stroke="none" fill-rule="nonzero" fill-opacity="1.0000">
        <path id="path105" d="M 194.13 169.18 Q 193.02 169.18 192.33 168.13 Q 191.63 167.08 191.63 165.38 Q 191.63 163.67 192.33 162.63 Q 193.03 161.59 194.16 161.59 Q 195.30 161.59 196.00 162.63 Q 196.69 163.67 196.69 165.37 Q 196.69 167.11 196.00 168.14 Q 195.30 169.18 194.13 169.18 z M 194.14 168.46 Q 195.67 168.46 195.67 165.35 Q 195.67 162.32 194.16 162.32 Q 192.66 162.32 192.66 165.38 Q 192.66 168.46 194.14 168.46 z" />
      </g>
    </g>
    <clipPath id="clip12">
      <path id="path108" d="M 0.0000 0.0000 L 0.0000 277.00 L 384.00 277.00 L 384.00 0.0000 z" />
    </clipPath>
    <g id="g110" clip-path="url(#clip12)">
      <g id="g112" fill="#000000" stroke="none" fill-rule="nonzero" fill-opacity="1.0000">
        <path id="path114" d="M 270.84 169.00 L 270.84 164.48 L 270.64 164.48 Q 270.00 164.48 269.36 164.83 L 269.36 163.94 Q 269.93 163.70 270.74 163.70 L 276.44 163.70 L 276.44 164.48 L 275.24 164.48 L 275.24 167.56 Q 275.24 168.38 275.61 169.00 L 274.59 169.00 Q 274.27 168.30 274.27 167.52 L 274.27 164.48 L 271.80 164.48 L 271.80 169.00 z" />
      </g>
    </g>
    <clipPath id="clip13">
      <path id="path117" d="M 0.0000 0.0000 L 0.0000 277.00 L 384.00 277.00 L 384.00 0.0000 z" />
    </clipPath>
    <g id="g119" clip-path="url(#clip13)">
      <g id="g121" stroke="#000000" stroke-opacity="1.0000" fill="none" stroke-linecap="butt">
        <path id="path123" d="M 271.05 155.58 L 271.05 158.58" />
      </g>
    </g>
    <clipPath id="clip14">
      <path id="path126" d="M 0.0000 0.0000 L 0.0000 277.00 L 384.00 277.00 L 384.00 0.0000 z" />
    </clipPath>
    <g id="g128" clip-path="url(#clip14)">
      <g id="g130" fill="#000000" stroke="none" fill-rule="nonzero" fill-opacity="1.0000">
        <path id="path132" d="M 352.83 169.00 L 352.83 168.16 Q 353.25 167.17 354.53 166.02 L 355.08 165.52 Q 356.15 164.56 356.15 163.61 Q 356.15 163.01 355.78 162.66 Q 355.42 162.32 354.78 162.32 Q 354.03 162.32 353.01 162.90 L 353.01 162.05 Q 353.97 161.59 354.92 161.59 Q 355.94 161.59 356.55 162.14 Q 357.17 162.69 357.17 163.59 Q 357.17 164.24 356.86 164.74 Q 356.55 165.25 355.70 165.96 L 355.33 166.28 Q 354.17 167.26 353.99 168.16 L 357.13 168.16 L 357.13 169.00 z M 360.16 169.00 L 360.16 164.48 L 359.96 164.48 Q 359.32 164.48 358.68 164.83 L 358.68 163.94 Q 359.26 163.70 360.07 163.70 L 365.76 163.70 L 365.76 164.48 L 364.56 164.48 L 364.56 167.56 Q 364.56 168.38 364.93 169.00 L 363.91 169.00 Q 363.59 168.30 363.59 167.52 L 363.59 164.48 L 361.13 164.48 L 361.13 169.00 z" />
      </g>
    </g>
    <clipPath id="clip15">
      <path id="path135" d="M 0.0000 0.0000 L 0.0000 277.00 L 384.00 277.00 L 384.00 0.0000 z" />
    </clipPath>
    <g id="g137" clip-path="url(#clip15)">
      <g id="g139" stroke="#000000" stroke-opacity="1.0000" fill="none" stroke-linecap="butt">
        <path id="path141" d="M 356.59 155.58 L 356.59 158.58" />
      </g>
    </g>
    <clipPath id="clip16">
      <path id="path144" d="M 0.0000 0.0000 L 0.0000 277.00 L 384.00 277.00 L 384.00 0.0000 z" />
    </clipPath>
    <g id="g146" clip-path="url(#clip16)">
      <g id="g148" fill="#000000" stroke="none" fill-rule="nonzero" fill-opacity="1.0000">
        <path id="path150" d="M 168.51 265.35 L 168.51 264.68 L 172.49 264.68 L 172.49 265.35 z M 176.76 268.00 L 176.76 265.95 L 173.51 265.95 L 173.51 265.23 L 176.76 260.77 L 177.67 260.77 L 177.67 265.17 L 178.63 265.17 L 178.63 265.95 L 177.67 265.95 L 177.67 268.00 z M 174.46 265.17 L 176.83 265.17 L 176.83 261.96 z" />
      </g>
    </g>
    <clipPath id="clip17">
      <path id="path153" d="M 0.0000 0.0000 L 0.0000 277.00 L 384.00 277.00 L 384.00 0.0000 z" />
    </clipPath>
    <g id="g155" clip-path="url(#clip17)">
      <g id="g157" stroke="#000000" stroke-opacity="1.0000" fill="none" stroke-linecap="butt">
        <path id="path159" d="M 182.50 264.50 L 185.50 264.50" />
      </g>
    </g>
    <clipPath id="clip18">
      <path id="path162" d="M 0.0000 0.0000 L 0.0000 277.00 L 384.00 277.00 L 384.00 0.0000 z" />
    </clipPath>
    <g id="g164" clip-path="url(#clip18)">
      <g id="g166" fill="#000000" stroke="none" fill-rule="nonzero" fill-opacity="1.0000">
        <path id="path168" d="M 168.51 238.35 L 168.51 237.68 L 172.49 237.68 L 172.49 238.35 z M 174.02 240.95 L 174.02 240.05 Q 175.05 240.46 175.65 240.46 Q 176.33 240.46 176.77 240.06 Q 177.20 239.65 177.20 239.01 Q 177.20 237.49 175.07 237.49 L 174.68 237.49 L 174.68 236.84 L 175.02 236.83 Q 177.02 236.83 177.02 235.42 Q 177.02 234.32 175.71 234.32 Q 174.98 234.32 174.11 234.72 L 174.11 233.88 Q 174.97 233.59 175.77 233.59 Q 177.99 233.59 177.99 235.27 Q 177.99 236.54 176.48 237.08 Q 178.23 237.49 178.23 239.00 Q 178.23 240.02 177.56 240.60 Q 176.88 241.18 175.71 241.18 Q 175.04 241.18 174.02 240.95 z" />
      </g>
    </g>
    <clipPath id="clip19">
      <path id="path171" d="M 0.0000 0.0000 L 0.0000 277.00 L 384.00 277.00 L 384.00 0.0000 z" />
    </clipPath>
    <g id="g173" clip-path="url(#clip19)">
      <g id="g175" stroke="#000000" stroke-opacity="1.0000" fill="none" stroke-linecap="butt">
        <path id="path177" d="M 182.50 237.27 L 185.50 237.27" />
      </g>
    </g>
    <clipPath id="clip20">
      <path id="path180" d="M 0.0000 0.0000 L 0.0000 277.00 L 384.00 277.00 L 384.00 0.0000 z" />
    </clipPath>
    <g id="g182" clip-path="url(#clip20)">
      <g id="g184" fill="#000000" stroke="none" fill-rule="nonzero" fill-opacity="1.0000">
        <path id="path186" d="M 168.51 211.35 L 168.51 210.68 L 172.49 210.68 L 172.49 211.35 z M 173.83 214.00 L 173.83 213.16 Q 174.25 212.17 175.53 211.02 L 176.08 210.52 Q 177.15 209.56 177.15 208.61 Q 177.15 208.01 176.78 207.66 Q 176.42 207.32 175.78 207.32 Q 175.03 207.32 174.01 207.90 L 174.01 207.05 Q 174.97 206.59 175.92 206.59 Q 176.94 206.59 177.55 207.14 Q 178.17 207.69 178.17 208.59 Q 178.17 209.24 177.86 209.74 Q 177.55 210.25 176.70 210.96 L 176.33 211.28 Q 175.17 212.26 174.99 213.16 L 178.13 213.16 L 178.13 214.00 z" />
      </g>
    </g>
    <clipPath id="clip21">
      <path id="path189" d="M 0.0000 0.0000 L 0.0000 277.00 L 384.00 277.00 L 384.00 0.0000 z" />
    </clipPath>
    <g id="g191" clip-path="url(#clip21)">
      <g id="g193" stroke="#000000" stroke-opacity="1.0000" fill="none" stroke-linecap="butt">
        <path id="path195" d="M 182.50 210.04 L 185.50 210.04" />
      </g>
    </g>
    <clipPath id="clip22">
      <path id="path198" d="M 0.0000 0.0000 L 0.0000 277.00 L 384.00 277.00 L 384.00 0.0000 z" />
    </clipPath>
    <g id="g200" clip-path="url(#clip22)">
      <g id="g202" fill="#000000" stroke="none" fill-rule="nonzero" fill-opacity="1.0000">
        <path id="path204" d="M 168.51 183.35 L 168.51 182.68 L 172.49 182.68 L 172.49 183.35 z M 174.50 186.00 L 174.50 185.28 L 175.95 185.28 L 175.95 179.57 L 174.50 179.94 L 174.50 179.19 L 176.92 178.59 L 176.92 185.28 L 178.36 185.28 L 178.36 186.00 z" />
      </g>
    </g>
    <clipPath id="clip23">
      <path id="path207" d="M 0.0000 0.0000 L 0.0000 277.00 L 384.00 277.00 L 384.00 0.0000 z" />
    </clipPath>
    <g id="g209" clip-path="url(#clip23)">
      <g id="g211" stroke="#000000" stroke-opacity="1.0000" fill="none" stroke-linecap="butt">
        <path id="path213" d="M 182.50 182.81 L 185.50 182.81" />
      </g>
    </g>
    <clipPath id="clip24">
      <path id="path216" d="M 0.0000 0.0000 L 0.0000 277.00 L 384.00 277.00 L 384.00 0.0000 z" />
    </clipPath>
    <g id="g218" clip-path="url(#clip24)">
      <g id="g220" fill="#000000" stroke="none" fill-rule="nonzero" fill-opacity="1.0000">
        <path id="path222" d="M 176.13 153.18 Q 175.02 153.18 174.33 152.13 Q 173.63 151.08 173.63 149.38 Q 173.63 147.67 174.33 146.63 Q 175.03 145.59 176.16 145.59 Q 177.30 145.59 178.00 146.63 Q 178.69 147.67 178.69 149.37 Q 178.69 151.11 178.00 152.14 Q 177.30 153.18 176.13 153.18 z M 176.14 152.46 Q 177.67 152.46 177.67 149.35 Q 177.67 146.32 176.16 146.32 Q 174.66 146.32 174.66 149.38 Q 174.66 152.46 176.14 152.46 z" />
      </g>
    </g>
    <clipPath id="clip25">
      <path id="path225" d="M 0.0000 0.0000 L 0.0000 277.00 L 384.00 277.00 L 384.00 0.0000 z" />
    </clipPath>
    <g id="g227" clip-path="url(#clip25)">
      <g id="g229" fill="#000000" stroke="none" fill-rule="nonzero" fill-opacity="1.0000">
        <path id="path231" d="M 174.50 132.00 L 174.50 131.28 L 175.95 131.28 L 175.95 125.57 L 174.50 125.94 L 174.50 125.19 L 176.92 124.59 L 176.92 131.28 L 178.36 131.28 L 178.36 132.00 z" />
      </g>
    </g>
    <clipPath id="clip26">
      <path id="path234" d="M 0.0000 0.0000 L 0.0000 277.00 L 384.00 277.00 L 384.00 0.0000 z" />
    </clipPath>
    <g id="g236" clip-path="url(#clip26)">
      <g id="g238" stroke="#000000" stroke-opacity="1.0000" fill="none" stroke-linecap="butt">
        <path id="path240" d="M 182.50 128.35 L 185.50 128.35" />
      </g>
    </g>
    <clipPath id="clip27">
      <path id="path243" d="M 0.0000 0.0000 L 0.0000 277.00 L 384.00 277.00 L 384.00 0.0000 z" />
    </clipPath>
    <g id="g245" clip-path="url(#clip27)">
      <g id="g247" fill="#000000" stroke="none" fill-rule="nonzero" fill-opacity="1.0000">
        <path id="path249" d="M 173.83 105.00 L 173.83 104.16 Q 174.25 103.17 175.53 102.02 L 176.08 101.52 Q 177.15 100.56 177.15 99.614 Q 177.15 99.009 176.78 98.662 Q 176.42 98.315 175.78 98.315 Q 175.03 98.315 174.01 98.896 L 174.01 98.047 Q 174.97 97.593 175.92 97.593 Q 176.94 97.593 177.55 98.140 Q 178.17 98.687 178.17 99.590 Q 178.17 100.24 177.86 100.74 Q 177.55 101.25 176.70 101.96 L 176.33 102.28 Q 175.17 103.26 174.99 104.16 L 178.13 104.16 L 178.13 105.00 z" />
      </g>
    </g>
    <clipPath id="clip28">
      <path id="path252" d="M 0.0000 0.0000 L 0.0000 277.00 L 384.00 277.00 L 384.00 0.0000 z" />
    </clipPath>
    <g id="g254" clip-path="url(#clip28)">
      <g id="g256" stroke="#000000" stroke-opacity="1.0000" fill="none" stroke-linecap="butt">
        <path id="path258" d="M 182.50 101.12 L 185.50 101.12" />
      </g>
    </g>
    <clipPath id="clip29">
      <path id="path261" d="M 0.0000 0.0000 L 0.0000 277.00 L 384.00 277.00 L 384.00 0.0000 z" />
    </clipPath>
    <g id="g263" clip-path="url(#clip29)">
      <g id="g265" fill="#000000" stroke="none" fill-rule="nonzero" fill-opacity="1.0000">
        <path id="path267" d="M 174.02 76.946 L 174.02 76.048 Q 175.05 76.458 175.65 76.458 Q 176.33 76.458 176.77 76.055 Q 177.20 75.652 177.20 75.013 Q 177.20 73.489 175.07 73.489 L 174.68 73.489 L 174.68 72.840 L 175.02 72.835 Q 177.02 72.835 177.02 71.424 Q 177.02 70.315 175.71 70.315 Q 174.98 70.315 174.11 70.721 L 174.11 69.881 Q 174.97 69.593 175.77 69.593 Q 177.99 69.593 177.99 71.268 Q 177.99 72.542 176.48 73.084 Q 178.23 73.489 178.23 74.998 Q 178.23 76.019 177.56 76.600 Q 176.88 77.181 175.71 77.181 Q 175.04 77.181 174.02 76.946 z" />
      </g>
    </g>
    <clipPath id="clip30">
      <path id="path270" d="M 0.0000 0.0000 L 0.0000 277.00 L 384.00 277.00 L 384.00 0.0000 z" />
    </clipPath>
    <g id="g272" clip-path="url(#clip30)">
      <g id="g274" stroke="#000000" stroke-opacity="1.0000" fill="none" stroke-linecap="butt">
        <path id="path276" d="M 182.50 73.892 L 185.50 73.892" />
      </g>
    </g>
    <clipPath id="clip31">
      <path id="path279" d="M 0.0000 0.0000 L 0.0000 277.00 L 384.00 277.00 L 384.00 0.0000 z" />
    </clipPath>
    <g id="g281" clip-path="url(#clip31)">
      <g id="g283" fill="#000000" stroke="none" fill-rule="nonzero" fill-opacity="1.0000">
        <path id="path285" d="M 176.76 50.000 L 176.76 47.954 L 173.51 47.954 L 173.51 47.227 L 176.76 42.773 L 177.67 42.773 L 177.67 47.168 L 178.63 47.168 L 178.63 47.954 L 177.67 47.954 L 177.67 50.000 z M 174.46 47.168 L 176.83 47.168 L 176.83 43.955 z" />
      </g>
    </g>
    <clipPath id="clip32">
      <path id="path288" d="M 0.0000 0.0000 L 0.0000 277.00 L 384.00 277.00 L 384.00 0.0000 z" />
    </clipPath>
    <g id="g290" clip-path="url(#clip32)">
      <g id="g292" stroke="#000000" stroke-opacity="1.0000" fill="none" stroke-linecap="butt">
        <path id="path294" d="M 182.50 46.662 L 185.50 46.662" />
      </g>
    </g>
    <clipPath id="clip33">
      <path id="path297" d="M 0.0000 0.0000 L 0.0000 277.00 L 384.00 277.00 L 384.00 0.0000 z" />
    </clipPath>
    <g id="g299" clip-path="url(#clip33)">
      <g id="g301" fill="#000000" stroke="none" fill-rule="nonzero" fill-opacity="1.0000">
        <path id="path303" d="M 174.22 23.029 L 174.22 22.170 Q 174.93 22.458 175.58 22.458 Q 176.30 22.458 176.70 22.038 Q 177.11 21.618 177.11 20.881 Q 177.11 19.255 174.87 19.255 Q 174.62 19.255 174.34 19.289 L 174.34 15.773 L 178.00 15.773 L 178.00 16.613 L 175.18 16.613 L 175.18 18.518 Q 176.57 18.518 177.36 19.157 Q 178.14 19.797 178.14 20.930 Q 178.14 21.984 177.43 22.583 Q 176.72 23.181 175.46 23.181 Q 174.91 23.181 174.22 23.029 z" />
      </g>
    </g>
    <clipPath id="clip34">
      <path id="path306" d="M 0.0000 0.0000 L 0.0000 277.00 L 384.00 277.00 L 384.00 0.0000 z" />
    </clipPath>
    <g id="g308" clip-path="url(#clip34)">
      <g id="g310" stroke="#000000" stroke-opacity="1.0000" fill="none" stroke-linecap="butt">
        <path id="path312" d="M 182.50 19.432 L 185.50 19.432" />
      </g>
    </g>
    <clipPath id="clip35">
      <path id="path315" d="M 0.0000 0.0000 L 0.0000 277.00 L 384.00 277.00 L 384.00 0.0000 z" />
    </clipPath>
    <g id="g317" clip-path="url(#clip35)">
      <g id="g319" stroke="#c0c0c0" stroke-opacity="1.0000" fill="none" stroke-linecap="round" stroke-linejoin="round">
        <path id="path321" d="M 14.411 0.0000 L 14.411 155.58" />
      </g>
    </g>
    <clipPath id="clip36">
      <path id="path324" d="M 0.0000 0.0000 L 0.0000 277.00 L 384.00 277.00 L 384.00 0.0000 z" />
    </clipPath>
    <g id="g326" clip-path="url(#clip36)">
      <g id="g328" stroke="#c0c0c0" stroke-opacity="1.0000" fill="none" stroke-linecap="round" stroke-linejoin="round">
        <path id="path330" d="M 14.411 174.58 L 14.411 277.00" />
      </g>
    </g>
    <clipPath id="clip37">
      <path id="path333" d="M 0.0000 0.0000 L 0.0000 277.00 L 384.00 277.00 L 384.00 0.0000 z" />
    </clipPath>
    <g id="g335" clip-path="url(#clip37)">
      <g id="g337" stroke="#c0c0c0" stroke-opacity="1.0000" fill="none" stroke-linecap="round" stroke-linejoin="round">
        <path id="path339" d="M 14.411 0.0000 L 14.411 155.58" />
      </g>
    </g>
    <clipPath id="clip38">
      <path id="path342" d="M 0.0000 0.0000 L 0.0000 277.00 L 384.00 277.00 L 384.00 0.0000 z" />
    </clipPath>
    <g id="g344" clip-path="url(#clip38)">
      <g id="g346" stroke="#c0c0c0" stroke-opacity="1.0000" fill="none" stroke-linecap="round" stroke-linejoin="round">
        <path id="path348" d="M 14.411 174.58 L 14.411 277.00" />
      </g>
    </g>
    <clipPath id="clip39">
      <path id="path351" d="M 0.0000 0.0000 L 0.0000 277.00 L 384.00 277.00 L 384.00 0.0000 z" />
    </clipPath>
    <g id="g353" clip-path="url(#clip39)">
      <g id="g355" stroke="#c0c0c0" stroke-opacity="1.0000" fill="none" stroke-linecap="round" stroke-linejoin="round">
        <path id="path357" d="M 99.957 0.0000 L 99.957 155.58" />
      </g>
    </g>
    <clipPath id="clip40">
      <path id="path360" d="M 0.0000 0.0000 L 0.0000 277.00 L 384.00 277.00 L 384.00 0.0000 z" />
    </clipPath>
    <g id="g362" clip-path="url(#clip40)">
      <g id="g364" stroke="#c0c0c0" stroke-opacity="1.0000" fill="none" stroke-linecap="round" stroke-linejoin="round">
        <path id="path366" d="M 99.957 174.58 L 99.957 277.00" />
      </g>
    </g>
    <clipPath id="clip41">
      <path id="path369" d="M 0.0000 0.0000 L 0.0000 277.00 L 384.00 277.00 L 384.00 0.0000 z" />
    </clipPath>
    <g id="g371" clip-path="url(#clip41)">
      <g id="g373" stroke="#c0c0c0" stroke-opacity="1.0000" fill="none" stroke-linecap="round" stroke-linejoin="round">
        <path id="path375" d="M 271.05 0.0000 L 271.05 155.58" />
      </g>
    </g>
    <clipPath id="clip42">
      <path id="path378" d="M 0.0000 0.0000 L 0.0000 277.00 L 384.00 277.00 L 384.00 0.0000 z" />
    </clipPath>
    <g id="g380" clip-path="url(#clip42)">
      <g id="g382" stroke="#c0c0c0" stroke-opacity="1.0000" fill="none" stroke-linecap="round" stroke-linejoin="round">
        <path id="path384" d="M 271.05 174.58 L 271.05 277.00" />
      </g>
    </g>
    <clipPath id="clip43">
      <path id="path387" d="M 0.0000 0.0000 L 0.0000 277.00 L 384.00 277.00 L 384.00 0.0000 z" />
    </clipPath>
    <g id="g389" clip-path="url(#clip43)">
      <g id="g391" stroke="#c0c0c0" stroke-opacity="1.0000" fill="none" stroke-linecap="round" stroke-linejoin="round">
        <path id="path393" d="M 356.59 0.0000 L 356.59 155.58" />
      </g>
    </g>
    <clipPath id="clip44">
      <path id="path396" d="M 0.0000 0.0000 L 0.0000 277.00 L 384.00 277.00 L 384.00 0.0000 z" />
    </clipPath>
    <g id="g398" clip-path="url(#clip44)">
      <g id="g400" stroke="#c0c0c0" stroke-opacity="1.0000" fill="none" stroke-linecap="round" stroke-linejoin="round">
        <path id="path402" d="M 356.59 174.58 L 356.59 277.00" />
      </g>
    </g>
    <clipPath id="clip45">
      <path id="path405" d="M 0.0000 0.0000 L 0.0000 277.00 L 384.00 277.00 L 384.00 0.0000 z" />
    </clipPath>
    <g id="g407" clip-path="url(#clip45)">
      <g id="g409" stroke="#c0c0c0" stroke-opacity="1.0000" fill="none" stroke-linecap="round" stroke-linejoin="round">
        <path id="path411" d="M 0.0000 19.432 L 169.18 19.432" />
      </g>
    </g>
    <clipPath id="clip46">
      <path id="path414" d="M 0.0000 0.0000 L 0.0000 277.00 L 384.00 277.00 L 384.00 0.0000 z" />
    </clipPath>
    <g id="g416" clip-path="url(#clip46)">
      <g id="g418" stroke="#c0c0c0" stroke-opacity="1.0000" fill="none" stroke-linecap="round" stroke-linejoin="round">
        <path id="path420" d="M 185.50 19.432 L 384.00 19.432" />
      </g>
    </g>
    <clipPath id="clip47">
      <path id="path423" d="M 0.0000 0.0000 L 0.0000 277.00 L 384.00 277.00 L 384.00 0.0000 z" />
    </clipPath>
    <g id="g425" clip-path="url(#clip47)">
      <g id="g427" stroke="#c0c0c0" stroke-opacity="1.0000" fill="none" stroke-linecap="round" stroke-linejoin="round">
        <path id="path429" d="M 0.0000 19.432 L 169.18 19.432" />
      </g>
    </g>
    <clipPath id="clip48">
      <path id="path432" d="M 0.0000 0.0000 L 0.0000 277.00 L 384.00 277.00 L 384.00 0.0000 z" />
    </clipPath>
    <g id="g434" clip-path="url(#clip48)">
      <g id="g436" stroke="#c0c0c0" stroke-opacity="1.0000" fill="none" stroke-linecap="round" stroke-linejoin="round">
        <path id="path438" d="M 185.50 19.432 L 384.00 19.432" />
      </g>
    </g>
    <clipPath id="clip49">
      <path id="path441" d="M 0.0000 0.0000 L 0.0000 277.00 L 384.00 277.00 L 384.00 0.0000 z" />
    </clipPath>
    <g id="g443" clip-path="url(#clip49)">
      <g id="g445" stroke="#c0c0c0" stroke-opacity="1.0000" fill="none" stroke-linecap="round" stroke-linejoin="round">
        <path id="path447" d="M 0.0000 46.662 L 169.18 46.662" />
      </g>
    </g>
    <clipPath id="clip50">
      <path id="path450" d="M 0.0000 0.0000 L 0.0000 277.00 L 384.00 277.00 L 384.00 0.0000 z" />
    </clipPath>
    <g id="g452" clip-path="url(#clip50)">
      <g id="g454" stroke="#c0c0c0" stroke-opacity="1.0000" fill="none" stroke-linecap="round" stroke-linejoin="round">
        <path id="path456" d="M 185.50 46.662 L 384.00 46.662" />
      </g>
    </g>
    <clipPath id="clip51">
      <path id="path459" d="M 0.0000 0.0000 L 0.0000 277.00 L 384.00 277.00 L 384.00 0.0000 z" />
    </clipPath>
    <g id="g461" clip-path="url(#clip51)">
      <g id="g463" stroke="#c0c0c0" stroke-opacity="1.0000" fill="none" stroke-linecap="round" stroke-linejoin="round">
        <path id="path465" d="M 0.0000 73.892 L 169.18 73.892" />
      </g>
    </g>
    <clipPath id="clip52">
      <path id="path468" d="M 0.0000 0.0000 L 0.0000 277.00 L 384.00 277.00 L 384.00 0.0000 z" />
    </clipPath>
    <g id="g470" clip-path="url(#clip52)">
      <g id="g472" stroke="#c0c0c0" stroke-opacity="1.0000" fill="none" stroke-linecap="round" stroke-linejoin="round">
        <path id="path474" d="M 185.50 73.892 L 384.00 73.892" />
      </g>
    </g>
    <clipPath id="clip53">
      <path id="path477" d="M 0.0000 0.0000 L 0.0000 277.00 L 384.00 277.00 L 384.00 0.0000 z" />
    </clipPath>
    <g id="g479" clip-path="url(#clip53)">
      <g id="g481" stroke="#c0c0c0" stroke-opacity="1.0000" fill="none" stroke-linecap="round" stroke-linejoin="round">
        <path id="path483" d="M 0.0000 101.12 L 169.18 101.12" />
      </g>
    </g>
    <clipPath id="clip54">
      <path id="path486" d="M 0.0000 0.0000 L 0.0000 277.00 L 384.00 277.00 L 384.00 0.0000 z" />
    </clipPath>
    <g id="g488" clip-path="url(#clip54)">
      <g id="g490" stroke="#c0c0c0" stroke-opacity="1.0000" fill="none" stroke-linecap="round" stroke-linejoin="round">
        <path id="path492" d="M 185.50 101.12 L 384.00 101.12" />
      </g>
    </g>
    <clipPath id="clip55">
      <path id="path495" d="M 0.0000 0.0000 L 0.0000 277.00 L 384.00 277.00 L 384.00 0.0000 z" />
    </clipPath>
    <g id="g497" clip-path="url(#clip55)">
      <g id="g499" stroke="#c0c0c0" stroke-opacity="1.0000" fill="none" stroke-linecap="round" stroke-linejoin="round">
        <path id="path501" d="M 0.0000 128.35 L 169.18 128.35" />
      </g>
    </g>
    <clipPath id="clip56">
      <path id="path504" d="M 0.0000 0.0000 L 0.0000 277.00 L 384.00 277.00 L 384.00 0.0000 z" />
    </clipPath>
    <g id="g506" clip-path="url(#clip56)">
      <g id="g508" stroke="#c0c0c0" stroke-opacity="1.0000" fill="none" stroke-linecap="round" stroke-linejoin="round">
        <path id="path510" d="M 185.50 128.35 L 384.00 128.35" />
      </g>
    </g>
    <clipPath id="clip57">
      <path id="path513" d="M 0.0000 0.0000 L 0.0000 277.00 L 384.00 277.00 L 384.00 0.0000 z" />
    </clipPath>
    <g id="g515" clip-path="url(#clip57)">
      <g id="g517" stroke="#c0c0c0" stroke-opacity="1.0000" fill="none" stroke-linecap="round" stroke-linejoin="round">
        <path id="path519" d="M 0.0000 182.81 L 164.18 182.81" />
      </g>
    </g>
    <clipPath id="clip58">
      <path id="path522" d="M 0.0000 0.0000 L 0.0000 277.00 L 384.00 277.00 L 384.00 0.0000 z" />
    </clipPath>
    <g id="g524" clip-path="url(#clip58)">
      <g id="g526" stroke="#c0c0c0" stroke-opacity="1.0000" fill="none" stroke-linecap="round" stroke-linejoin="round">
        <path id="path528" d="M 185.50 182.81 L 384.00 182.81" />
      </g>
    </g>
    <clipPath id="clip59">
      <path id="path531" d="M 0.0000 0.0000 L 0.0000 277.00 L 384.00 277.00 L 384.00 0.0000 z" />
    </clipPath>
    <g id="g533" clip-path="url(#clip59)">
      <g id="g535" stroke="#c0c0c0" stroke-opacity="1.0000" fill="none" stroke-linecap="round" stroke-linejoin="round">
        <path id="path537" d="M 0.0000 210.04 L 164.18 210.04" />
      </g>
    </g>
    <clipPath id="clip60">
      <path id="path540" d="M 0.0000 0.0000 L 0.0000 277.00 L 384.00 277.00 L 384.00 0.0000 z" />
    </clipPath>
    <g id="g542" clip-path="url(#clip60)">
      <g id="g544" stroke="#c0c0c0" stroke-opacity="1.0000" fill="none" stroke-linecap="round" stroke-linejoin="round">
        <path id="path546" d="M 185.50 210.04 L 384.00 210.04" />
      </g>
    </g>
    <clipPath id="clip61">
      <path id="path549" d="M 0.0000 0.0000 L 0.0000 277.00 L 384.00 277.00 L 384.00 0.0000 z" />
    </clipPath>
    <g id="g551" clip-path="url(#clip61)">
      <g id="g553" stroke="#c0c0c0" stroke-opacity="1.0000" fill="none" stroke-linecap="round" stroke-linejoin="round">
        <path id="path555" d="M 0.0000 237.27 L 164.18 237.27" />
      </g>
    </g>
    <clipPath id="clip62">
      <path id="path558" d="M 0.0000 0.0000 L 0.0000 277.00 L 384.00 277.00 L 384.00 0.0000 z" />
    </clipPath>
    <g id="g560" clip-path="url(#clip62)">
      <g id="g562" stroke="#c0c0c0" stroke-opacity="1.0000" fill="none" stroke-linecap="round" stroke-linejoin="round">
        <path id="path564" d="M 185.50 237.27 L 384.00 237.27" />
      </g>
    </g>
    <clipPath id="clip63">
      <path id="path567" d="M 0.0000 0.0000 L 0.0000 277.00 L 384.00 277.00 L 384.00 0.0000 z" />
    </clipPath>
    <g id="g569" clip-path="url(#clip63)">
      <g id="g571" stroke="#c0c0c0" stroke-opacity="1.0000" fill="none" stroke-linecap="round" stroke-linejoin="round">
        <path id="path573" d="M 0.0000 264.50 L 164.18 264.50" />
      </g>
    </g>
    <clipPath id="clip64">
      <path id="path576" d="M 0.0000 0.0000 L 0.0000 277.00 L 384.00 277.00 L 384.00 0.0000 z" />
    </clipPath>
    <g id="g578" clip-path="url(#clip64)">
      <g id="g580" stroke="#c0c0c0" stroke-opacity="1.0000" fill="none" stroke-linecap="round" stroke-linejoin="round">
        <path id="path582" d="M 185.50 264.50 L 384.00 264.50" />
      </g>
    </g>
    <g id="misc" />
    <g id="layer0">
      <clipPath id="clip65">
        <path id="path587" d="M 0.0000 0.0000 L 0.0000 277.00 L 384.00 277.00 L 384.00 0.0000 z" />
      </clipPath>
      <g id="g589" clip-path="url(#clip65)">
        <g id="g591" stroke="#0000ff" stroke-opacity="1.0000" fill="none" stroke-linecap="round" stroke-width="2.5000" stroke-linejoin="round">
          <path id="path593" d="M 0.0000 181.77 L 1.5000 187.00 L 3.0000 191.80 L 6.0000 199.91 L 9.0000 205.79 L 10.500 207.81 L 11.250 208.58 L 12.000 209.19 L 12.750 209.64 L 13.500 209.92 L 14.250 210.04 L 15.000 209.99 L 15.750 209.78 L 16.500 209.40 L 17.250 208.86 L 18.000 208.16 L 19.500 206.27 L 21.000 203.77 L 24.000 196.98 L 27.000 188.07 L 28.500 182.93 L 30.000 177.39 L 31.500 171.50 L 33.000 165.33 L 34.500 158.92 L 36.000 152.35 L 37.500 145.67 L 39.000 138.94 L 40.500 132.23 L 42.000 125.59 L 43.500 119.07 L 45.000 112.75 L 46.500 106.66 L 48.000 100.86 L 49.500 95.391 L 51.000 90.295 L 54.000 81.357 L 57.000 74.264 L 60.000 69.141 L 61.500 67.331 L 63.000 66.019 L 63.750 65.545 L 64.500 65.192 L 65.250 64.956 L 66.000 64.834 L 66.750 64.825 L 67.500 64.924 L 68.250 65.129 L 69.000 65.435 L 70.500 66.336 L 72.000 67.591 L 75.000 71.004 L 78.000 75.332 L 81.000 80.200 L 84.000 85.224 L 87.000 90.031 L 90.000 94.278 L 93.000 97.673 L 94.500 98.975 L 96.000 99.983 L 97.500 100.68 L 98.250 100.91 L 99.000 101.05 L 100.50 101.10 L 101.25 101.00 L 102.00 100.82 L 103.50 100.21 L 105.00 99.283 L 106.50 98.060 L 108.00 96.558 L 111.00 92.824 L 114.00 88.337 L 117.00 83.410 L 120.00 78.399 L 123.00 73.683 L 126.00 69.644 L 129.00 66.648 L 129.75 66.102 L 130.50 65.646 L 132.00 65.024 L 132.75 64.866 L 133.50 64.815 L 134.25 64.875 L 135.00 65.047 L 135.75 65.336 L 136.50 65.743 L 138.00 66.920 L 139.50 68.592 L 141.00 70.764 L 144.00 76.610 L 147.00 84.391 L 150.00 93.947 L 151.50 99.316 L 153.00 105.03 L 154.50 111.04 L 156.00 117.31 L 157.50 123.77 L 159.00 130.39 L 160.50 137.09 L 162.00 143.82 L 163.50 150.52 L 165.00 157.13 L 166.50 163.58 L 168.00 169.82 L 169.50 175.79 L 171.00 181.44 L 172.50 186.70 L 174.00 191.53 L 177.00 199.70 L 180.00 205.64 L 181.50 207.70 L 182.25 208.49 L 183.00 209.12 L 183.75 209.59 L 184.50 209.89 L 185.25 210.03 L 186.00 210.01 L 186.75 209.81 L 187.50 209.46 L 188.25 208.94 L 189.00 208.25 L 190.50 206.41 L 192.00 203.94 L 195.00 197.22 L 198.00 188.37 L 199.50 183.25 L 201.00 177.73 L 202.50 171.87 L 204.00 165.71 L 205.50 159.32 L 207.00 152.75 L 208.50 146.08 L 210.00 139.35 L 211.50 132.63 L 213.00 125.99 L 214.50 119.46 L 216.00 113.13 L 217.50 107.02 L 219.00 101.20 L 220.50 95.713 L 222.00 90.594 L 225.00 81.603 L 228.00 74.451 L 231.00 69.267 L 232.50 67.427 L 234.00 66.084 L 234.75 65.596 L 235.50 65.228 L 236.25 64.978 L 237.00 64.843 L 237.75 64.820 L 238.50 64.906 L 239.25 65.099 L 240.00 65.393 L 241.50 66.271 L 243.00 67.505 L 246.00 70.885 L 249.00 75.191 L 252.00 80.048 L 255.00 85.072 L 258.00 89.891 L 261.00 94.160 L 264.00 97.584 L 265.50 98.904 L 267.00 99.931 L 268.50 100.65 L 269.25 100.89 L 270.00 101.04 L 271.50 101.11 L 272.25 101.02 L 273.00 100.84 L 274.50 100.25 L 276.00 99.348 L 277.50 98.142 L 279.00 96.657 L 282.00 92.950 L 285.00 88.482 L 288.00 83.563 L 291.00 78.549 L 294.00 73.818 L 297.00 69.753 L 300.00 66.720 L 300.75 66.163 L 301.50 65.696 L 303.00 65.051 L 303.75 64.880 L 304.50 64.816 L 305.25 64.861 L 306.00 65.020 L 306.75 65.294 L 307.50 65.687 L 309.00 66.835 L 309.75 67.593 L 310.50 68.476 L 312.00 70.618 L 315.00 76.403 L 318.00 84.127 L 321.00 93.633 L 322.50 98.980 L 324.00 104.67 L 325.50 110.67 L 327.00 116.92 L 328.50 123.38 L 330.00 129.98 L 331.50 136.68 L 333.00 143.41 L 334.50 150.11 L 336.00 156.73 L 337.50 163.19 L 339.00 169.45 L 340.50 175.44 L 342.00 181.10 L 343.50 186.39 L 345.00 191.25 L 348.00 199.48 L 351.00 205.50 L 352.50 207.60 L 353.25 208.41 L 354.00 209.06 L 354.75 209.54 L 355.50 209.87 L 356.25 210.02 L 357.00 210.02 L 357.75 209.85 L 358.50 209.51 L 359.25 209.01 L 360.00 208.34 L 361.50 206.54 L 363.00 204.10 L 366.00 197.46 L 369.00 188.67 L 370.50 183.58 L 372.00 178.08 L 373.50 172.23 L 375.00 166.09 L 376.50 159.71 L 378.00 153.16 L 379.50 146.49 L 381.00 139.76 L 382.50 133.04 L 384.00 126.39" />
          <title id="title595">Function f</title>
          <desc id="desc597">f(x) = 3sin(x)Ã&#130;Â² - 2cos(x)</desc>
        </g>
      </g>
    </g>
  </g>
</svg>