<?xml version='1.0' ?><svg xmlns:dc="http://purl.org/dc/elements/1.1/" xmlns:cc="http://creativecommons.org/ns#" xmlns:rdf="http://www.w3.org/1999/02/22-rdf-syntax-ns#" xmlns:svg="http://www.w3.org/2000/svg" xmlns="http://www.w3.org/2000/svg" id="svg2" version="1.1" width="373.74999" height="269.17745" viewBox="0.0 0.4247498970969899 385.99998967224076 277.99998849498326" preserveAspectRatio="none">
  <metadata id="metadata796">
    <rdf:RDF>
      <cc:Work rdf:about="">
        <dc:format>image/svg+xml</dc:format>
        <dc:type rdf:resource="http://purl.org/dc/dcmitype/StillImage" />
      </cc:Work>
    </rdf:RDF>
  </metadata>
  <defs id="defs794" />
  <title id="title4" />
  <g id="g6" stroke-linecap="square" stroke-miterlimit="10.000" stroke-width="1.0000" stroke-dasharray="none" stroke-dashoffset="0.0000" stroke-linejoin="miter">
    <clipPath id="clip1">
      <path id="path9" d="M 0.0000 0.0000 L 0.0000 278.00 L 386.00 278.00 L 386.00 0.0000 z" />
    </clipPath>
    <g id="g11" clip-path="url(#clip1)">
      <g id="g13" stroke="#000000" stroke-opacity="1.0000" fill="none" stroke-linecap="butt">
        <path id="path15" d="M 175.00 2.0000 L 175.00 278.00" />
      </g>
    </g>
    <clipPath id="clip2">
      <path id="path18" d="M 0.0000 0.0000 L 0.0000 278.00 L 386.00 278.00 L 386.00 0.0000 z" />
    </clipPath>
    <g id="g20" clip-path="url(#clip2)">
      <g id="g22" stroke="#000000" stroke-opacity="1.0000" fill="none" stroke-linecap="butt">
        <path id="path24" d="M 175.00 1.0000 L 172.00 4.0000" />
      </g>
    </g>
    <clipPath id="clip3">
      <path id="path27" d="M 0.0000 0.0000 L 0.0000 278.00 L 386.00 278.00 L 386.00 0.0000 z" />
    </clipPath>
    <g id="g29" clip-path="url(#clip3)">
      <g id="g31" stroke="#000000" stroke-opacity="1.0000" fill="none" stroke-linecap="butt">
        <path id="path33" d="M 175.00 1.0000 L 178.00 4.0000" />
      </g>
    </g>
    <clipPath id="clip4">
      <path id="path36" d="M 0.0000 0.0000 L 0.0000 278.00 L 386.00 278.00 L 386.00 0.0000 z" />
    </clipPath>
    <g id="g38" clip-path="url(#clip4)">
      <g id="g40" stroke="#000000" stroke-opacity="1.0000" fill="none" stroke-linecap="butt">
        <path id="path42" d="M 0.0000 169.00 L 384.00 169.00" />
      </g>
    </g>
    <clipPath id="clip5">
      <path id="path45" d="M 0.0000 0.0000 L 0.0000 278.00 L 386.00 278.00 L 386.00 0.0000 z" />
    </clipPath>
    <g id="g47" clip-path="url(#clip5)">
      <g id="g49" stroke="#000000" stroke-opacity="1.0000" fill="none" stroke-linecap="butt">
        <path id="path51" d="M 385.00 169.00 L 382.00 166.00" />
      </g>
    </g>
    <clipPath id="clip6">
      <path id="path54" d="M 0.0000 0.0000 L 0.0000 278.00 L 386.00 278.00 L 386.00 0.0000 z" />
    </clipPath>
    <g id="g56" clip-path="url(#clip6)">
      <g id="g58" stroke="#000000" stroke-opacity="1.0000" fill="none" stroke-linecap="butt">
        <path id="path60" d="M 385.00 169.00 L 382.00 172.00" />
      </g>
    </g>
    <clipPath id="clip7">
      <path id="path63" d="M 0.0000 0.0000 L 0.0000 278.00 L 386.00 278.00 L 386.00 0.0000 z" />
    </clipPath>
    <g id="g65" clip-path="url(#clip7)">
      <g id="g67" fill="#000000" stroke="none" fill-rule="nonzero" fill-opacity="1.0000">
        <path id="path69" d="M 21.513 179.35 L 21.513 178.68 L 25.487 178.68 L 25.487 179.35 z M 27.016 181.95 L 27.016 181.05 Q 28.051 181.46 28.646 181.46 Q 29.335 181.46 29.767 181.06 Q 30.199 180.65 30.199 180.01 Q 30.199 178.49 28.065 178.49 L 27.685 178.49 L 27.685 177.84 L 28.021 177.83 Q 30.023 177.83 30.023 176.42 Q 30.023 175.32 28.705 175.32 Q 27.982 175.32 27.113 175.72 L 27.113 174.88 Q 27.968 174.59 28.773 174.59 Q 30.990 174.59 30.990 176.27 Q 30.990 177.54 29.481 178.08 Q 31.229 178.49 31.229 180.00 Q 31.229 181.02 30.556 181.60 Q 29.882 182.18 28.705 182.18 Q 28.036 182.18 27.016 181.95 z" />
      </g>
    </g>
    <clipPath id="clip8">
      <path id="path72" d="M 0.0000 0.0000 L 0.0000 278.00 L 386.00 278.00 L 386.00 0.0000 z" />
    </clipPath>
    <g id="g74" clip-path="url(#clip8)">
      <g id="g76" stroke="#000000" stroke-opacity="1.0000" fill="none" stroke-linecap="butt">
        <path id="path78" d="M 25.000 169.00 L 25.000 172.00" />
      </g>
    </g>
    <clipPath id="clip9">
      <path id="path81" d="M 0.0000 0.0000 L 0.0000 278.00 L 386.00 278.00 L 386.00 0.0000 z" />
    </clipPath>
    <g id="g83" clip-path="url(#clip9)">
      <g id="g85" fill="#000000" stroke="none" fill-rule="nonzero" fill-opacity="1.0000">
        <path id="path87" d="M 71.513 179.35 L 71.513 178.68 L 75.487 178.68 L 75.487 179.35 z M 76.830 182.00 L 76.830 181.16 Q 77.250 180.17 78.529 179.02 L 79.081 178.52 Q 80.146 177.56 80.146 176.61 Q 80.146 176.01 79.782 175.66 Q 79.418 175.32 78.783 175.32 Q 78.031 175.32 77.011 175.90 L 77.011 175.05 Q 77.973 174.59 78.920 174.59 Q 79.936 174.59 80.551 175.14 Q 81.166 175.69 81.166 176.59 Q 81.166 177.24 80.856 177.74 Q 80.546 178.25 79.701 178.96 L 79.330 179.28 Q 78.173 180.26 77.992 181.16 L 81.132 181.16 L 81.132 182.00 z" />
      </g>
    </g>
    <clipPath id="clip10">
      <path id="path90" d="M 0.0000 0.0000 L 0.0000 278.00 L 386.00 278.00 L 386.00 0.0000 z" />
    </clipPath>
    <g id="g92" clip-path="url(#clip10)">
      <g id="g94" stroke="#000000" stroke-opacity="1.0000" fill="none" stroke-linecap="butt">
        <path id="path96" d="M 75.000 169.00 L 75.000 172.00" />
      </g>
    </g>
    <clipPath id="clip11">
      <path id="path99" d="M 0.0000 0.0000 L 0.0000 278.00 L 386.00 278.00 L 386.00 0.0000 z" />
    </clipPath>
    <g id="g101" clip-path="url(#clip11)">
      <g id="g103" fill="#000000" stroke="none" fill-rule="nonzero" fill-opacity="1.0000">
        <path id="path105" d="M 121.51 179.35 L 121.51 178.68 L 125.49 178.68 L 125.49 179.35 z M 127.50 182.00 L 127.50 181.28 L 128.95 181.28 L 128.95 175.57 L 127.50 175.94 L 127.50 175.19 L 129.92 174.59 L 129.92 181.28 L 131.36 181.28 L 131.36 182.00 z" />
      </g>
    </g>
    <clipPath id="clip12">
      <path id="path108" d="M 0.0000 0.0000 L 0.0000 278.00 L 386.00 278.00 L 386.00 0.0000 z" />
    </clipPath>
    <g id="g110" clip-path="url(#clip12)">
      <g id="g112" stroke="#000000" stroke-opacity="1.0000" fill="none" stroke-linecap="butt">
        <path id="path114" d="M 125.00 169.00 L 125.00 172.00" />
      </g>
    </g>
    <clipPath id="clip13">
      <path id="path117" d="M 0.0000 0.0000 L 0.0000 278.00 L 386.00 278.00 L 386.00 0.0000 z" />
    </clipPath>
    <g id="g119" clip-path="url(#clip13)">
      <g id="g121" fill="#000000" stroke="none" fill-rule="nonzero" fill-opacity="1.0000">
        <path id="path123" d="M 184.13 182.18 Q 183.02 182.18 182.33 181.13 Q 181.63 180.08 181.63 178.38 Q 181.63 176.67 182.33 175.63 Q 183.03 174.59 184.16 174.59 Q 185.30 174.59 186.00 175.63 Q 186.69 176.67 186.69 178.37 Q 186.69 180.11 186.00 181.14 Q 185.30 182.18 184.13 182.18 z M 184.14 181.46 Q 185.67 181.46 185.67 178.35 Q 185.67 175.32 184.16 175.32 Q 182.66 175.32 182.66 178.38 Q 182.66 181.46 184.14 181.46 z" />
      </g>
    </g>
    <clipPath id="clip14">
      <path id="path126" d="M 0.0000 0.0000 L 0.0000 278.00 L 386.00 278.00 L 386.00 0.0000 z" />
    </clipPath>
    <g id="g128" clip-path="url(#clip14)">
      <g id="g130" fill="#000000" stroke="none" fill-rule="nonzero" fill-opacity="1.0000">
        <path id="path132" d="M 224.50 182.00 L 224.50 181.28 L 225.95 181.28 L 225.95 175.57 L 224.50 175.94 L 224.50 175.19 L 226.92 174.59 L 226.92 181.28 L 228.36 181.28 L 228.36 182.00 z" />
      </g>
    </g>
    <clipPath id="clip15">
      <path id="path135" d="M 0.0000 0.0000 L 0.0000 278.00 L 386.00 278.00 L 386.00 0.0000 z" />
    </clipPath>
    <g id="g137" clip-path="url(#clip15)">
      <g id="g139" stroke="#000000" stroke-opacity="1.0000" fill="none" stroke-linecap="butt">
        <path id="path141" d="M 225.00 169.00 L 225.00 172.00" />
      </g>
    </g>
    <clipPath id="clip16">
      <path id="path144" d="M 0.0000 0.0000 L 0.0000 278.00 L 386.00 278.00 L 386.00 0.0000 z" />
    </clipPath>
    <g id="g146" clip-path="url(#clip16)">
      <g id="g148" fill="#000000" stroke="none" fill-rule="nonzero" fill-opacity="1.0000">
        <path id="path150" d="M 273.83 182.00 L 273.83 181.16 Q 274.25 180.17 275.53 179.02 L 276.08 178.52 Q 277.15 177.56 277.15 176.61 Q 277.15 176.01 276.78 175.66 Q 276.42 175.32 275.78 175.32 Q 275.03 175.32 274.01 175.90 L 274.01 175.05 Q 274.97 174.59 275.92 174.59 Q 276.94 174.59 277.55 175.14 Q 278.17 175.69 278.17 176.59 Q 278.17 177.24 277.86 177.74 Q 277.55 178.25 276.70 178.96 L 276.33 179.28 Q 275.17 180.26 274.99 181.16 L 278.13 181.16 L 278.13 182.00 z" />
      </g>
    </g>
    <clipPath id="clip17">
      <path id="path153" d="M 0.0000 0.0000 L 0.0000 278.00 L 386.00 278.00 L 386.00 0.0000 z" />
    </clipPath>
    <g id="g155" clip-path="url(#clip17)">
      <g id="g157" stroke="#000000" stroke-opacity="1.0000" fill="none" stroke-linecap="butt">
        <path id="path159" d="M 275.00 169.00 L 275.00 172.00" />
      </g>
    </g>
    <clipPath id="clip18">
      <path id="path162" d="M 0.0000 0.0000 L 0.0000 278.00 L 386.00 278.00 L 386.00 0.0000 z" />
    </clipPath>
    <g id="g164" clip-path="url(#clip18)">
      <g id="g166" fill="#000000" stroke="none" fill-rule="nonzero" fill-opacity="1.0000">
        <path id="path168" d="M 324.02 181.95 L 324.02 181.05 Q 325.05 181.46 325.65 181.46 Q 326.33 181.46 326.77 181.06 Q 327.20 180.65 327.20 180.01 Q 327.20 178.49 325.07 178.49 L 324.68 178.49 L 324.68 177.84 L 325.02 177.83 Q 327.02 177.83 327.02 176.42 Q 327.02 175.32 325.71 175.32 Q 324.98 175.32 324.11 175.72 L 324.11 174.88 Q 324.97 174.59 325.77 174.59 Q 327.99 174.59 327.99 176.27 Q 327.99 177.54 326.48 178.08 Q 328.23 178.49 328.23 180.00 Q 328.23 181.02 327.56 181.60 Q 326.88 182.18 325.71 182.18 Q 325.04 182.18 324.02 181.95 z" />
      </g>
    </g>
    <clipPath id="clip19">
      <path id="path171" d="M 0.0000 0.0000 L 0.0000 278.00 L 386.00 278.00 L 386.00 0.0000 z" />
    </clipPath>
    <g id="g173" clip-path="url(#clip19)">
      <g id="g175" stroke="#000000" stroke-opacity="1.0000" fill="none" stroke-linecap="butt">
        <path id="path177" d="M 325.00 169.00 L 325.00 172.00" />
      </g>
    </g>
    <clipPath id="clip20">
      <path id="path180" d="M 0.0000 0.0000 L 0.0000 278.00 L 386.00 278.00 L 386.00 0.0000 z" />
    </clipPath>
    <g id="g182" clip-path="url(#clip20)">
      <g id="g184" fill="#000000" stroke="none" fill-rule="nonzero" fill-opacity="1.0000">
        <path id="path186" d="M 376.76 182.00 L 376.76 179.95 L 373.51 179.95 L 373.51 179.23 L 376.76 174.77 L 377.67 174.77 L 377.67 179.17 L 378.63 179.17 L 378.63 179.95 L 377.67 179.95 L 377.67 182.00 z M 374.46 179.17 L 376.83 179.17 L 376.83 175.96 z" />
      </g>
    </g>
    <clipPath id="clip21">
      <path id="path189" d="M 0.0000 0.0000 L 0.0000 278.00 L 386.00 278.00 L 386.00 0.0000 z" />
    </clipPath>
    <g id="g191" clip-path="url(#clip21)">
      <g id="g193" stroke="#000000" stroke-opacity="1.0000" fill="none" stroke-linecap="butt">
        <path id="path195" d="M 375.00 169.00 L 375.00 172.00" />
      </g>
    </g>
    <clipPath id="clip22">
      <path id="path198" d="M 0.0000 0.0000 L 0.0000 278.00 L 386.00 278.00 L 386.00 0.0000 z" />
    </clipPath>
    <g id="g200" clip-path="url(#clip22)">
      <g id="g202" stroke="#000000" stroke-opacity="1.0000" fill="none" stroke-linecap="butt">
        <path id="path204" d="M 172.00 269.00 L 175.00 269.00" />
      </g>
    </g>
    <clipPath id="clip23">
      <path id="path207" d="M 0.0000 0.0000 L 0.0000 278.00 L 386.00 278.00 L 386.00 0.0000 z" />
    </clipPath>
    <g id="g209" clip-path="url(#clip23)">
      <g id="g211" fill="#000000" stroke="none" fill-rule="nonzero" fill-opacity="1.0000">
        <path id="path213" d="M 157.51 219.35 L 157.51 218.68 L 161.49 218.68 L 161.49 219.35 z M 163.50 222.00 L 163.50 221.28 L 164.95 221.28 L 164.95 215.57 L 163.50 215.94 L 163.50 215.19 L 165.92 214.59 L 165.92 221.28 L 167.36 221.28 L 167.36 222.00 z" />
      </g>
    </g>
    <clipPath id="clip24">
      <path id="path216" d="M 0.0000 0.0000 L 0.0000 278.00 L 386.00 278.00 L 386.00 0.0000 z" />
    </clipPath>
    <g id="g218" clip-path="url(#clip24)">
      <g id="g220" stroke="#000000" stroke-opacity="1.0000" fill="none" stroke-linecap="butt">
        <path id="path222" d="M 172.00 219.00 L 175.00 219.00" />
      </g>
    </g>
    <clipPath id="clip25">
      <path id="path225" d="M 0.0000 0.0000 L 0.0000 278.00 L 386.00 278.00 L 386.00 0.0000 z" />
    </clipPath>
    <g id="g227" clip-path="url(#clip25)">
      <g id="g229" fill="#000000" stroke="none" fill-rule="nonzero" fill-opacity="1.0000">
        <path id="path231" d="M 165.13 166.18 Q 164.02 166.18 163.33 165.13 Q 162.63 164.08 162.63 162.38 Q 162.63 160.67 163.33 159.63 Q 164.03 158.59 165.16 158.59 Q 166.30 158.59 167.00 159.63 Q 167.69 160.67 167.69 162.37 Q 167.69 164.11 167.00 165.14 Q 166.30 166.18 165.13 166.18 z M 165.14 165.46 Q 166.67 165.46 166.67 162.35 Q 166.67 159.32 165.16 159.32 Q 163.66 159.32 163.66 162.38 Q 163.66 165.46 165.14 165.46 z" />
      </g>
    </g>
    <clipPath id="clip26">
      <path id="path234" d="M 0.0000 0.0000 L 0.0000 278.00 L 386.00 278.00 L 386.00 0.0000 z" />
    </clipPath>
    <g id="g236" clip-path="url(#clip26)">
      <g id="g238" fill="#000000" stroke="none" fill-rule="nonzero" fill-opacity="1.0000">
        <path id="path240" d="M 163.50 122.00 L 163.50 121.28 L 164.95 121.28 L 164.95 115.57 L 163.50 115.94 L 163.50 115.19 L 165.92 114.59 L 165.92 121.28 L 167.36 121.28 L 167.36 122.00 z" />
      </g>
    </g>
    <clipPath id="clip27">
      <path id="path243" d="M 0.0000 0.0000 L 0.0000 278.00 L 386.00 278.00 L 386.00 0.0000 z" />
    </clipPath>
    <g id="g245" clip-path="url(#clip27)">
      <g id="g247" stroke="#000000" stroke-opacity="1.0000" fill="none" stroke-linecap="butt">
        <path id="path249" d="M 172.00 119.00 L 175.00 119.00" />
      </g>
    </g>
    <clipPath id="clip28">
      <path id="path252" d="M 0.0000 0.0000 L 0.0000 278.00 L 386.00 278.00 L 386.00 0.0000 z" />
    </clipPath>
    <g id="g254" clip-path="url(#clip28)">
      <g id="g256" fill="#000000" stroke="none" fill-rule="nonzero" fill-opacity="1.0000">
        <path id="path258" d="M 162.83 72.000 L 162.83 71.155 Q 163.25 70.174 164.53 69.017 L 165.08 68.523 Q 166.15 67.562 166.15 66.614 Q 166.15 66.009 165.78 65.662 Q 165.42 65.315 164.78 65.315 Q 164.03 65.315 163.01 65.896 L 163.01 65.047 Q 163.97 64.593 164.92 64.593 Q 165.94 64.593 166.55 65.140 Q 167.17 65.687 167.17 66.590 Q 167.17 67.239 166.86 67.742 Q 166.55 68.245 165.70 68.963 L 165.33 69.280 Q 164.17 70.262 163.99 71.155 L 167.13 71.155 L 167.13 72.000 z" />
      </g>
    </g>
    <clipPath id="clip29">
      <path id="path261" d="M 0.0000 0.0000 L 0.0000 278.00 L 386.00 278.00 L 386.00 0.0000 z" />
    </clipPath>
    <g id="g263" clip-path="url(#clip29)">
      <g id="g265" stroke="#000000" stroke-opacity="1.0000" fill="none" stroke-linecap="butt">
        <path id="path267" d="M 172.00 69.000 L 175.00 69.000" />
      </g>
    </g>
    <clipPath id="clip30">
      <path id="path270" d="M 0.0000 0.0000 L 0.0000 278.00 L 386.00 278.00 L 386.00 0.0000 z" />
    </clipPath>
    <g id="g272" clip-path="url(#clip30)">
      <g id="g274" fill="#000000" stroke="none" fill-rule="nonzero" fill-opacity="1.0000">
        <path id="path276" d="M 163.02 21.946 L 163.02 21.048 Q 164.05 21.458 164.65 21.458 Q 165.33 21.458 165.77 21.055 Q 166.20 20.652 166.20 20.013 Q 166.20 18.489 164.07 18.489 L 163.68 18.489 L 163.68 17.840 L 164.02 17.835 Q 166.02 17.835 166.02 16.424 Q 166.02 15.315 164.71 15.315 Q 163.98 15.315 163.11 15.721 L 163.11 14.881 Q 163.97 14.593 164.77 14.593 Q 166.99 14.593 166.99 16.268 Q 166.99 17.542 165.48 18.084 Q 167.23 18.489 167.23 19.998 Q 167.23 21.019 166.56 21.600 Q 165.88 22.181 164.71 22.181 Q 164.04 22.181 163.02 21.946 z" />
      </g>
    </g>
    <clipPath id="clip31">
      <path id="path279" d="M 0.0000 0.0000 L 0.0000 278.00 L 386.00 278.00 L 386.00 0.0000 z" />
    </clipPath>
    <g id="g281" clip-path="url(#clip31)">
      <g id="g283" stroke="#000000" stroke-opacity="1.0000" fill="none" stroke-linecap="butt">
        <path id="path285" d="M 172.00 19.000 L 175.00 19.000" />
      </g>
    </g>
    <clipPath id="clip32">
      <path id="path288" d="M 0.0000 0.0000 L 0.0000 278.00 L 386.00 278.00 L 386.00 0.0000 z" />
    </clipPath>
    <g id="g290" clip-path="url(#clip32)">
      <g id="g292" stroke="#c0c0c0" stroke-opacity="1.0000" fill="none" stroke-linecap="round" stroke-linejoin="round">
        <path id="path294" d="M 25.000 0.0000 L 25.000 169.00" />
      </g>
    </g>
    <clipPath id="clip33">
      <path id="path297" d="M 0.0000 0.0000 L 0.0000 278.00 L 386.00 278.00 L 386.00 0.0000 z" />
    </clipPath>
    <g id="g299" clip-path="url(#clip33)">
      <g id="g301" stroke="#c0c0c0" stroke-opacity="1.0000" fill="none" stroke-linecap="round" stroke-linejoin="round">
        <path id="path303" d="M 25.000 188.00 L 25.000 278.00" />
      </g>
    </g>
    <clipPath id="clip34">
      <path id="path306" d="M 0.0000 0.0000 L 0.0000 278.00 L 386.00 278.00 L 386.00 0.0000 z" />
    </clipPath>
    <g id="g308" clip-path="url(#clip34)">
      <g id="g310" stroke="#c0c0c0" stroke-opacity="1.0000" fill="none" stroke-linecap="round" stroke-linejoin="round">
        <path id="path312" d="M 25.000 0.0000 L 25.000 169.00" />
      </g>
    </g>
    <clipPath id="clip35">
      <path id="path315" d="M 0.0000 0.0000 L 0.0000 278.00 L 386.00 278.00 L 386.00 0.0000 z" />
    </clipPath>
    <g id="g317" clip-path="url(#clip35)">
      <g id="g319" stroke="#c0c0c0" stroke-opacity="1.0000" fill="none" stroke-linecap="round" stroke-linejoin="round">
        <path id="path321" d="M 25.000 188.00 L 25.000 278.00" />
      </g>
    </g>
    <clipPath id="clip36">
      <path id="path324" d="M 0.0000 0.0000 L 0.0000 278.00 L 386.00 278.00 L 386.00 0.0000 z" />
    </clipPath>
    <g id="g326" clip-path="url(#clip36)">
      <g id="g328" stroke="#c0c0c0" stroke-opacity="1.0000" fill="none" stroke-linecap="round" stroke-linejoin="round">
        <path id="path330" d="M 75.000 0.0000 L 75.000 169.00" />
      </g>
    </g>
    <clipPath id="clip37">
      <path id="path333" d="M 0.0000 0.0000 L 0.0000 278.00 L 386.00 278.00 L 386.00 0.0000 z" />
    </clipPath>
    <g id="g335" clip-path="url(#clip37)">
      <g id="g337" stroke="#c0c0c0" stroke-opacity="1.0000" fill="none" stroke-linecap="round" stroke-linejoin="round">
        <path id="path339" d="M 75.000 188.00 L 75.000 278.00" />
      </g>
    </g>
    <clipPath id="clip38">
      <path id="path342" d="M 0.0000 0.0000 L 0.0000 278.00 L 386.00 278.00 L 386.00 0.0000 z" />
    </clipPath>
    <g id="g344" clip-path="url(#clip38)">
      <g id="g346" stroke="#c0c0c0" stroke-opacity="1.0000" fill="none" stroke-linecap="round" stroke-linejoin="round">
        <path id="path348" d="M 125.00 0.0000 L 125.00 169.00" />
      </g>
    </g>
    <clipPath id="clip39">
      <path id="path351" d="M 0.0000 0.0000 L 0.0000 278.00 L 386.00 278.00 L 386.00 0.0000 z" />
    </clipPath>
    <g id="g353" clip-path="url(#clip39)">
      <g id="g355" stroke="#c0c0c0" stroke-opacity="1.0000" fill="none" stroke-linecap="round" stroke-linejoin="round">
        <path id="path357" d="M 125.00 188.00 L 125.00 278.00" />
      </g>
    </g>
    <clipPath id="clip40">
      <path id="path360" d="M 0.0000 0.0000 L 0.0000 278.00 L 386.00 278.00 L 386.00 0.0000 z" />
    </clipPath>
    <g id="g362" clip-path="url(#clip40)">
      <g id="g364" stroke="#c0c0c0" stroke-opacity="1.0000" fill="none" stroke-linecap="round" stroke-linejoin="round">
        <path id="path366" d="M 225.00 0.0000 L 225.00 169.00" />
      </g>
    </g>
    <clipPath id="clip41">
      <path id="path369" d="M 0.0000 0.0000 L 0.0000 278.00 L 386.00 278.00 L 386.00 0.0000 z" />
    </clipPath>
    <g id="g371" clip-path="url(#clip41)">
      <g id="g373" stroke="#c0c0c0" stroke-opacity="1.0000" fill="none" stroke-linecap="round" stroke-linejoin="round">
        <path id="path375" d="M 225.00 188.00 L 225.00 278.00" />
      </g>
    </g>
    <clipPath id="clip42">
      <path id="path378" d="M 0.0000 0.0000 L 0.0000 278.00 L 386.00 278.00 L 386.00 0.0000 z" />
    </clipPath>
    <g id="g380" clip-path="url(#clip42)">
      <g id="g382" stroke="#c0c0c0" stroke-opacity="1.0000" fill="none" stroke-linecap="round" stroke-linejoin="round">
        <path id="path384" d="M 275.00 0.0000 L 275.00 169.00" />
      </g>
    </g>
    <clipPath id="clip43">
      <path id="path387" d="M 0.0000 0.0000 L 0.0000 278.00 L 386.00 278.00 L 386.00 0.0000 z" />
    </clipPath>
    <g id="g389" clip-path="url(#clip43)">
      <g id="g391" stroke="#c0c0c0" stroke-opacity="1.0000" fill="none" stroke-linecap="round" stroke-linejoin="round">
        <path id="path393" d="M 275.00 188.00 L 275.00 278.00" />
      </g>
    </g>
    <clipPath id="clip44">
      <path id="path396" d="M 0.0000 0.0000 L 0.0000 278.00 L 386.00 278.00 L 386.00 0.0000 z" />
    </clipPath>
    <g id="g398" clip-path="url(#clip44)">
      <g id="g400" stroke="#c0c0c0" stroke-opacity="1.0000" fill="none" stroke-linecap="round" stroke-linejoin="round">
        <path id="path402" d="M 325.00 0.0000 L 325.00 169.00" />
      </g>
    </g>
    <clipPath id="clip45">
      <path id="path405" d="M 0.0000 0.0000 L 0.0000 278.00 L 386.00 278.00 L 386.00 0.0000 z" />
    </clipPath>
    <g id="g407" clip-path="url(#clip45)">
      <g id="g409" stroke="#c0c0c0" stroke-opacity="1.0000" fill="none" stroke-linecap="round" stroke-linejoin="round">
        <path id="path411" d="M 325.00 188.00 L 325.00 278.00" />
      </g>
    </g>
    <clipPath id="clip46">
      <path id="path414" d="M 0.0000 0.0000 L 0.0000 278.00 L 386.00 278.00 L 386.00 0.0000 z" />
    </clipPath>
    <g id="g416" clip-path="url(#clip46)">
      <g id="g418" stroke="#c0c0c0" stroke-opacity="1.0000" fill="none" stroke-linecap="round" stroke-linejoin="round">
        <path id="path420" d="M 375.00 0.0000 L 375.00 169.00" />
      </g>
    </g>
    <clipPath id="clip47">
      <path id="path423" d="M 0.0000 0.0000 L 0.0000 278.00 L 386.00 278.00 L 386.00 0.0000 z" />
    </clipPath>
    <g id="g425" clip-path="url(#clip47)">
      <g id="g427" stroke="#c0c0c0" stroke-opacity="1.0000" fill="none" stroke-linecap="round" stroke-linejoin="round">
        <path id="path429" d="M 375.00 188.00 L 375.00 278.00" />
      </g>
    </g>
    <clipPath id="clip48">
      <path id="path432" d="M 0.0000 0.0000 L 0.0000 278.00 L 386.00 278.00 L 386.00 0.0000 z" />
    </clipPath>
    <g id="g434" clip-path="url(#clip48)">
      <g id="g436" stroke="#c0c0c0" stroke-opacity="1.0000" fill="none" stroke-linecap="round" stroke-linejoin="round">
        <path id="path438" d="M 0.0000 19.000 L 158.68 19.000" />
      </g>
    </g>
    <clipPath id="clip49">
      <path id="path441" d="M 0.0000 0.0000 L 0.0000 278.00 L 386.00 278.00 L 386.00 0.0000 z" />
    </clipPath>
    <g id="g443" clip-path="url(#clip49)">
      <g id="g445" stroke="#c0c0c0" stroke-opacity="1.0000" fill="none" stroke-linecap="round" stroke-linejoin="round">
        <path id="path447" d="M 175.00 19.000 L 386.00 19.000" />
      </g>
    </g>
    <clipPath id="clip50">
      <path id="path450" d="M 0.0000 0.0000 L 0.0000 278.00 L 386.00 278.00 L 386.00 0.0000 z" />
    </clipPath>
    <g id="g452" clip-path="url(#clip50)">
      <g id="g454" stroke="#c0c0c0" stroke-opacity="1.0000" fill="none" stroke-linecap="round" stroke-linejoin="round">
        <path id="path456" d="M 0.0000 19.000 L 158.68 19.000" />
      </g>
    </g>
    <clipPath id="clip51">
      <path id="path459" d="M 0.0000 0.0000 L 0.0000 278.00 L 386.00 278.00 L 386.00 0.0000 z" />
    </clipPath>
    <g id="g461" clip-path="url(#clip51)">
      <g id="g463" stroke="#c0c0c0" stroke-opacity="1.0000" fill="none" stroke-linecap="round" stroke-linejoin="round">
        <path id="path465" d="M 175.00 19.000 L 386.00 19.000" />
      </g>
    </g>
    <clipPath id="clip52">
      <path id="path468" d="M 0.0000 0.0000 L 0.0000 278.00 L 386.00 278.00 L 386.00 0.0000 z" />
    </clipPath>
    <g id="g470" clip-path="url(#clip52)">
      <g id="g472" stroke="#c0c0c0" stroke-opacity="1.0000" fill="none" stroke-linecap="round" stroke-linejoin="round">
        <path id="path474" d="M 0.0000 69.000 L 158.68 69.000" />
      </g>
    </g>
    <clipPath id="clip53">
      <path id="path477" d="M 0.0000 0.0000 L 0.0000 278.00 L 386.00 278.00 L 386.00 0.0000 z" />
    </clipPath>
    <g id="g479" clip-path="url(#clip53)">
      <g id="g481" stroke="#c0c0c0" stroke-opacity="1.0000" fill="none" stroke-linecap="round" stroke-linejoin="round">
        <path id="path483" d="M 175.00 69.000 L 386.00 69.000" />
      </g>
    </g>
    <clipPath id="clip54">
      <path id="path486" d="M 0.0000 0.0000 L 0.0000 278.00 L 386.00 278.00 L 386.00 0.0000 z" />
    </clipPath>
    <g id="g488" clip-path="url(#clip54)">
      <g id="g490" stroke="#c0c0c0" stroke-opacity="1.0000" fill="none" stroke-linecap="round" stroke-linejoin="round">
        <path id="path492" d="M 0.0000 119.00 L 158.68 119.00" />
      </g>
    </g>
    <clipPath id="clip55">
      <path id="path495" d="M 0.0000 0.0000 L 0.0000 278.00 L 386.00 278.00 L 386.00 0.0000 z" />
    </clipPath>
    <g id="g497" clip-path="url(#clip55)">
      <g id="g499" stroke="#c0c0c0" stroke-opacity="1.0000" fill="none" stroke-linecap="round" stroke-linejoin="round">
        <path id="path501" d="M 175.00 119.00 L 386.00 119.00" />
      </g>
    </g>
    <clipPath id="clip56">
      <path id="path504" d="M 0.0000 0.0000 L 0.0000 278.00 L 386.00 278.00 L 386.00 0.0000 z" />
    </clipPath>
    <g id="g506" clip-path="url(#clip56)">
      <g id="g508" stroke="#c0c0c0" stroke-opacity="1.0000" fill="none" stroke-linecap="round" stroke-linejoin="round">
        <path id="path510" d="M 0.0000 219.00 L 153.68 219.00" />
      </g>
    </g>
    <clipPath id="clip57">
      <path id="path513" d="M 0.0000 0.0000 L 0.0000 278.00 L 386.00 278.00 L 386.00 0.0000 z" />
    </clipPath>
    <g id="g515" clip-path="url(#clip57)">
      <g id="g517" stroke="#c0c0c0" stroke-opacity="1.0000" fill="none" stroke-linecap="round" stroke-linejoin="round">
        <path id="path519" d="M 175.00 219.00 L 386.00 219.00" />
      </g>
    </g>
    <clipPath id="clip58">
      <path id="path522" d="M 0.0000 0.0000 L 0.0000 278.00 L 386.00 278.00 L 386.00 0.0000 z" />
    </clipPath>
    <g id="g524" clip-path="url(#clip58)">
      <g id="g526" stroke="#c0c0c0" stroke-opacity="1.0000" fill="none" stroke-linecap="round" stroke-linejoin="round">
        <path id="path528" d="M 0.0000 269.00 L 386.00 269.00" />
      </g>
    </g>
    <g id="misc" />
    <g id="layer0">
      <clipPath id="clip59">
        <path id="path533" d="M 0.0000 0.0000 L 0.0000 278.00 L 386.00 278.00 L 386.00 0.0000 z" />
      </clipPath>
      <g id="g535" clip-path="url(#clip59)">
        <g id="g537" stroke="#0000ff" stroke-opacity="1.0000" fill="none" stroke-linecap="round" stroke-width="2.5000" stroke-linejoin="round">
          <path id="path539" d="M -5.0000 39.000 L 239.00 283.00" />
          <title id="title541">Line f</title>
          <desc id="desc543">f: y = -x - 1</desc>
        </g>
      </g>
      <clipPath id="clip60">
        <path id="path546" d="M 0.0000 0.0000 L 0.0000 278.00 L 386.00 278.00 L 386.00 0.0000 z" />
      </clipPath>
      <g id="g548" clip-path="url(#clip60)">
        <g id="g550" stroke="#ff00ff" stroke-opacity="1.0000" fill="none" stroke-linecap="round" stroke-width="2.5000" stroke-linejoin="round">
          <path id="path552" d="M 101.00 -5.0000 L 389.00 283.00" />
          <title id="title554">Line g</title>
          <desc id="desc556">g: y = -x + 2</desc>
        </g>
      </g>
      <clipPath id="clip61">
        <path id="path559" d="M 0.0000 0.0000 L 0.0000 278.00 L 386.00 278.00 L 386.00 0.0000 z" />
      </clipPath>
      <g id="g561" clip-path="url(#clip61)">
        <g id="g563" stroke="#0000ff" stroke-opacity="1.0000" fill="none" stroke-linecap="round" stroke-width="3.0000" stroke-linejoin="round">
          <path id="path565" d="M 125.00 169.00 L 166.95 85.100" />
          <title id="title567">Vector d</title>
          <desc id="desc569">Vector d: Vector[A, D]</desc>
        </g>
      </g>
      <clipPath id="clip62">
        <path id="path572" d="M 0.0000 0.0000 L 0.0000 278.00 L 386.00 278.00 L 386.00 0.0000 z" />
      </clipPath>
      <g id="g574" clip-path="url(#clip62)">
        <g id="g576" fill="#0000ff" stroke="none" fill-rule="evenodd" fill-opacity="1.0000">
          <path id="path578" d="M 175.00 69.000 L 170.98 87.112 L 162.93 83.087 z" />
          <title id="title580">Vector d</title>
          <desc id="desc582">Vector d: Vector[A, D]</desc>
        </g>
      </g>
      <clipPath id="clip63">
        <path id="path585" d="M 0.0000 0.0000 L 0.0000 278.00 L 386.00 278.00 L 386.00 0.0000 z" />
      </clipPath>
      <g id="g587" clip-path="url(#clip63)">
        <g id="g589" stroke="#0000ff" stroke-opacity="1.0000" fill="none" stroke-linecap="round" stroke-width="3.0000" stroke-linejoin="round">
          <path id="path591" d="M 175.00 219.00 L 216.95 135.10" />
          <title id="title593">Vector e</title>
          <desc id="desc595">Vector e: Vector[E, B]</desc>
        </g>
      </g>
      <clipPath id="clip64">
        <path id="path598" d="M 0.0000 0.0000 L 0.0000 278.00 L 386.00 278.00 L 386.00 0.0000 z" />
      </clipPath>
      <g id="g600" clip-path="url(#clip64)">
        <g id="g602" fill="#0000ff" stroke="none" fill-rule="evenodd" fill-opacity="1.0000">
          <path id="path604" d="M 225.00 119.00 L 220.98 137.11 L 212.93 133.09 z" />
          <title id="title606">Vector e</title>
          <desc id="desc608">Vector e: Vector[E, B]</desc>
        </g>
      </g>
      <clipPath id="clip65">
        <path id="path611" d="M 0.0000 0.0000 L 0.0000 278.00 L 386.00 278.00 L 386.00 0.0000 z" />
      </clipPath>
      <g id="g613" clip-path="url(#clip65)">
        <g id="g615" stroke="#0000ff" stroke-opacity="1.0000" fill="none" stroke-linecap="round" stroke-width="3.0000" stroke-linejoin="round">
          <path id="path617" d="M 75.000 119.00 L 117.35 35.551" />
          <title id="title619">Vector h</title>
          <desc id="desc621">Vector h: Vector[J, F]</desc>
        </g>
      </g>
      <clipPath id="clip66">
        <path id="path624" d="M 0.0000 0.0000 L 0.0000 278.00 L 386.00 278.00 L 386.00 0.0000 z" />
      </clipPath>
      <g id="g626" clip-path="url(#clip66)">
        <g id="g628" fill="#0000ff" stroke="none" fill-rule="evenodd" fill-opacity="1.0000">
          <path id="path630" d="M 125.50 19.500 L 121.37 37.588 L 113.34 33.514 z" />
          <title id="title632">Vector h</title>
          <desc id="desc634">Vector h: Vector[J, F]</desc>
        </g>
      </g>
      <clipPath id="clip67">
        <path id="path637" d="M 0.0000 0.0000 L 0.0000 278.00 L 386.00 278.00 L 386.00 0.0000 z" />
      </clipPath>
      <g id="g639" clip-path="url(#clip67)">
        <g id="g641" fill="#0000ff" stroke="none" fill-rule="nonzero" fill-opacity="1.0000">
          <path id="path643" d="M 131.00 169.00 C 131.00 172.31 128.31 175.00 125.00 175.00 C 121.69 175.00 119.00 172.31 119.00 169.00 C 119.00 165.69 121.69 163.00 125.00 163.00 C 128.31 163.00 131.00 165.69 131.00 169.00 z" />
          <title id="title645">Point A</title>
          <desc id="desc647">Point A: Intersection point of f, xAxis</desc>
        </g>
      </g>
      <clipPath id="clip68">
        <path id="path650" d="M 0.0000 0.0000 L 0.0000 278.00 L 386.00 278.00 L 386.00 0.0000 z" />
      </clipPath>
      <g id="g652" clip-path="url(#clip68)">
        <g id="g654" stroke="#000000" stroke-opacity="1.0000" fill="none" stroke-linecap="round" stroke-linejoin="round">
          <path id="path656" d="M 131.00 169.00 C 131.00 172.31 128.31 175.00 125.00 175.00 C 121.69 175.00 119.00 172.31 119.00 169.00 C 119.00 165.69 121.69 163.00 125.00 163.00 C 128.31 163.00 131.00 165.69 131.00 169.00 z" />
          <title id="title658">Point A</title>
          <desc id="desc660">Point A: Intersection point of f, xAxis</desc>
        </g>
      </g>
      <clipPath id="clip69">
        <path id="path663" d="M 0.0000 0.0000 L 0.0000 278.00 L 386.00 278.00 L 386.00 0.0000 z" />
      </clipPath>
      <g id="g665" clip-path="url(#clip69)">
        <g id="g667" fill="#ff00ff" stroke="none" fill-rule="nonzero" fill-opacity="1.0000">
          <path id="path669" d="M 231.00 119.00 C 231.00 122.31 228.31 125.00 225.00 125.00 C 221.69 125.00 219.00 122.31 219.00 119.00 C 219.00 115.69 221.69 113.00 225.00 113.00 C 228.31 113.00 231.00 115.69 231.00 119.00 z" />
          <title id="title671">Point B</title>
          <desc id="desc673">B = (1, 1)</desc>
        </g>
      </g>
      <clipPath id="clip70">
        <path id="path676" d="M 0.0000 0.0000 L 0.0000 278.00 L 386.00 278.00 L 386.00 0.0000 z" />
      </clipPath>
      <g id="g678" clip-path="url(#clip70)">
        <g id="g680" stroke="#000000" stroke-opacity="1.0000" fill="none" stroke-linecap="round" stroke-linejoin="round">
          <path id="path682" d="M 231.00 119.00 C 231.00 122.31 228.31 125.00 225.00 125.00 C 221.69 125.00 219.00 122.31 219.00 119.00 C 219.00 115.69 221.69 113.00 225.00 113.00 C 228.31 113.00 231.00 115.69 231.00 119.00 z" />
          <title id="title684">Point B</title>
          <desc id="desc686">B = (1, 1)</desc>
        </g>
      </g>
      <clipPath id="clip71">
        <path id="path689" d="M 0.0000 0.0000 L 0.0000 278.00 L 386.00 278.00 L 386.00 0.0000 z" />
      </clipPath>
      <g id="g691" clip-path="url(#clip71)">
        <g id="g693" fill="#0000ff" stroke="none" fill-rule="nonzero" fill-opacity="1.0000">
          <path id="path695" d="M 81.000 119.00 C 81.000 122.31 78.314 125.00 75.000 125.00 C 71.686 125.00 69.000 122.31 69.000 119.00 C 69.000 115.69 71.686 113.00 75.000 113.00 C 78.314 113.00 81.000 115.69 81.000 119.00 z" />
          <title id="title697">Point C</title>
          <desc id="desc699">Point C: Point on f</desc>
        </g>
      </g>
      <clipPath id="clip72">
        <path id="path702" d="M 0.0000 0.0000 L 0.0000 278.00 L 386.00 278.00 L 386.00 0.0000 z" />
      </clipPath>
      <g id="g704" clip-path="url(#clip72)">
        <g id="g706" stroke="#000000" stroke-opacity="1.0000" fill="none" stroke-linecap="round" stroke-linejoin="round">
          <path id="path708" d="M 81.000 119.00 C 81.000 122.31 78.314 125.00 75.000 125.00 C 71.686 125.00 69.000 122.31 69.000 119.00 C 69.000 115.69 71.686 113.00 75.000 113.00 C 78.314 113.00 81.000 115.69 81.000 119.00 z" />
          <title id="title710">Point C</title>
          <desc id="desc712">Point C: Point on f</desc>
        </g>
      </g>
      <clipPath id="clip73">
        <path id="path715" d="M 0.0000 0.0000 L 0.0000 278.00 L 386.00 278.00 L 386.00 0.0000 z" />
      </clipPath>
      <g id="g717" clip-path="url(#clip73)">
        <g id="g719" fill="#ff00ff" stroke="none" fill-rule="nonzero" fill-opacity="1.0000">
          <path id="path721" d="M 181.00 69.000 C 181.00 72.314 178.31 75.000 175.00 75.000 C 171.69 75.000 169.00 72.314 169.00 69.000 C 169.00 65.686 171.69 63.000 175.00 63.000 C 178.31 63.000 181.00 65.686 181.00 69.000 z" />
          <title id="title723">Point D</title>
          <desc id="desc725">Point D: Point on g</desc>
        </g>
      </g>
      <clipPath id="clip74">
        <path id="path728" d="M 0.0000 0.0000 L 0.0000 278.00 L 386.00 278.00 L 386.00 0.0000 z" />
      </clipPath>
      <g id="g730" clip-path="url(#clip74)">
        <g id="g732" stroke="#000000" stroke-opacity="1.0000" fill="none" stroke-linecap="round" stroke-linejoin="round">
          <path id="path734" d="M 181.00 69.000 C 181.00 72.314 178.31 75.000 175.00 75.000 C 171.69 75.000 169.00 72.314 169.00 69.000 C 169.00 65.686 171.69 63.000 175.00 63.000 C 178.31 63.000 181.00 65.686 181.00 69.000 z" />
          <title id="title736">Point D</title>
          <desc id="desc738">Point D: Point on g</desc>
        </g>
      </g>
      <clipPath id="clip75">
        <path id="path741" d="M 0.0000 0.0000 L 0.0000 278.00 L 386.00 278.00 L 386.00 0.0000 z" />
      </clipPath>
      <g id="g743" clip-path="url(#clip75)">
        <g id="g745" fill="#0000ff" stroke="none" fill-rule="nonzero" fill-opacity="1.0000">
          <path id="path747" d="M 181.00 219.00 C 181.00 222.31 178.31 225.00 175.00 225.00 C 171.69 225.00 169.00 222.31 169.00 219.00 C 169.00 215.69 171.69 213.00 175.00 213.00 C 178.31 213.00 181.00 215.69 181.00 219.00 z" />
          <title id="title749">Point E</title>
          <desc id="desc751">Point E: Intersection point of f, yAxis</desc>
        </g>
      </g>
      <clipPath id="clip76">
        <path id="path754" d="M 0.0000 0.0000 L 0.0000 278.00 L 386.00 278.00 L 386.00 0.0000 z" />
      </clipPath>
      <g id="g756" clip-path="url(#clip76)">
        <g id="g758" stroke="#000000" stroke-opacity="1.0000" fill="none" stroke-linecap="round" stroke-linejoin="round">
          <path id="path760" d="M 181.00 219.00 C 181.00 222.31 178.31 225.00 175.00 225.00 C 171.69 225.00 169.00 222.31 169.00 219.00 C 169.00 215.69 171.69 213.00 175.00 213.00 C 178.31 213.00 181.00 215.69 181.00 219.00 z" />
          <title id="title762">Point E</title>
          <desc id="desc764">Point E: Intersection point of f, yAxis</desc>
        </g>
      </g>
      <clipPath id="clip77">
        <path id="path767" d="M 0.0000 0.0000 L 0.0000 278.00 L 386.00 278.00 L 386.00 0.0000 z" />
      </clipPath>
      <g id="g769" clip-path="url(#clip77)">
        <g id="g771" fill="#ff00ff" stroke="none" fill-rule="nonzero" fill-opacity="1.0000">
          <path id="path773" d="M 131.50 19.500 C 131.50 22.814 128.81 25.500 125.50 25.500 C 122.19 25.500 119.50 22.814 119.50 19.500 C 119.50 16.186 122.19 13.500 125.50 13.500 C 128.81 13.500 131.50 16.186 131.50 19.500 z" />
          <title id="title775">Point F</title>
          <desc id="desc777">Point F: Point on g</desc>
        </g>
      </g>
      <clipPath id="clip78">
        <path id="path780" d="M 0.0000 0.0000 L 0.0000 278.00 L 386.00 278.00 L 386.00 0.0000 z" />
      </clipPath>
      <g id="g782" clip-path="url(#clip78)">
        <g id="g784" stroke="#000000" stroke-opacity="1.0000" fill="none" stroke-linecap="round" stroke-linejoin="round">
          <path id="path786" d="M 131.50 19.500 C 131.50 22.814 128.81 25.500 125.50 25.500 C 122.19 25.500 119.50 22.814 119.50 19.500 C 119.50 16.186 122.19 13.500 125.50 13.500 C 128.81 13.500 131.50 16.186 131.50 19.500 z" />
          <title id="title788">Point F</title>
          <desc id="desc790">Point F: Point on g</desc>
        </g>
      </g>
    </g>
  </g>
</svg>