<?xml version='1.0' ?><svg xmlns:ns0="http://www.iki.fi/pav/software/textext/" xmlns:dc="http://purl.org/dc/elements/1.1/" xmlns:cc="http://creativecommons.org/ns#" xmlns:rdf="http://www.w3.org/1999/02/22-rdf-syntax-ns#" xmlns:svg="http://www.w3.org/2000/svg" xmlns="http://www.w3.org/2000/svg" id="svg2" version="1.1" width="373.75" height="344.95385" viewBox="0.0 3.845729243344481e-2 622.9999999999999 574.9999961204013" preserveAspectRatio="none">
  <metadata id="metadata571">
    <rdf:RDF>
      <cc:Work rdf:about="">
        <dc:format>image/svg+xml</dc:format>
        <dc:type rdf:resource="http://purl.org/dc/dcmitype/StillImage" />
      </cc:Work>
    </rdf:RDF>
  </metadata>
  <defs id="defs569" />
  <title id="title4" />
  <g stroke-width="1.0000" stroke-linecap="square" stroke-linejoin="miter" stroke-dasharray="none" stroke-dashoffset="0.0000" id="g6" stroke-miterlimit="10.000">
    <clipPath id="clip1">
      <path id="path9" d="M 0.0000 0.0000 L 0.0000 575.00 L 623.00 575.00 L 623.00 0.0000 z" />
    </clipPath>
    <g id="g11" clip-path="url(#clip1)">
      <g fill="none" stroke="#000000" stroke-width="2.0000" stroke-linecap="butt" stroke-opacity="1.0000" id="g13">
        <path id="path15" d="M 313.95 3.0000 L 313.95 575.00" />
      </g>
    </g>
    <clipPath id="clip2">
      <path id="path18" d="M 0.0000 0.0000 L 0.0000 575.00 L 623.00 575.00 L 623.00 0.0000 z" />
    </clipPath>
    <g id="g20" clip-path="url(#clip2)">
      <g fill="#000000" fill-opacity="1.0000" fill-rule="evenodd" stroke="none" id="g22">
        <path id="path24" d="M 313.95 2.0000 L 308.95 22.000 L 318.95 22.000" />
      </g>
    </g>
    <clipPath id="clip3">
      <path id="path27" d="M 0.0000 0.0000 L 0.0000 575.00 L 623.00 575.00 L 623.00 0.0000 z" />
    </clipPath>
    <g id="g29" clip-path="url(#clip3)">
      <g fill="none" stroke="#000000" stroke-width="2.0000" stroke-linecap="butt" stroke-opacity="1.0000" id="g31">
        <path id="path33" d="M 0.0000 290.47 L 620.00 290.47" />
      </g>
    </g>
    <clipPath id="clip4">
      <path id="path36" d="M 0.0000 0.0000 L 0.0000 575.00 L 623.00 575.00 L 623.00 0.0000 z" />
    </clipPath>
    <g id="g38" clip-path="url(#clip4)">
      <g fill="#000000" fill-opacity="1.0000" fill-rule="evenodd" stroke="none" id="g40">
        <path id="path42" d="M 621.00 290.47 L 601.00 285.47 L 601.00 295.47" />
      </g>
    </g>
    <clipPath id="clip5">
      <path id="path45" d="M 0.0000 0.0000 L 0.0000 575.00 L 623.00 575.00 L 623.00 0.0000 z" />
    </clipPath>
    <g id="g47" clip-path="url(#clip5)">
      <g fill="#000000" fill-opacity="1.0000" fill-rule="nonzero" stroke="none" id="g49">
        <path id="path51" d="M 63.718 304.29 L 63.718 303.36 L 69.282 303.36 L 69.282 304.29 z M 72.406 302.76 Q 73.370 301.51 74.833 301.51 Q 76.159 301.51 77.003 302.38 Q 77.848 303.26 77.848 304.64 Q 77.848 306.22 76.901 307.23 Q 75.954 308.25 74.498 308.25 Q 72.823 308.25 71.880 306.91 Q 70.937 305.56 70.937 303.17 Q 70.937 300.54 72.020 299.08 Q 73.104 297.62 75.072 297.62 Q 75.975 297.62 77.328 298.01 L 77.328 299.18 Q 75.899 298.63 74.990 298.63 Q 72.406 298.63 72.406 302.76 z M 76.494 304.94 Q 76.494 303.79 75.978 303.13 Q 75.462 302.48 74.546 302.48 Q 73.691 302.48 73.076 303.05 Q 72.461 303.62 72.461 304.43 Q 72.461 305.70 73.045 306.47 Q 73.630 307.24 74.594 307.24 Q 75.462 307.24 75.978 306.62 Q 76.494 305.99 76.494 304.94 z" />
      </g>
    </g>
    <clipPath id="clip6">
      <path id="path54" d="M 0.0000 0.0000 L 0.0000 575.00 L 623.00 575.00 L 623.00 0.0000 z" />
    </clipPath>
    <g id="g56" clip-path="url(#clip6)">
      <g fill="none" stroke="#000000" stroke-width="2.0000" stroke-linecap="butt" stroke-opacity="1.0000" id="g58">
        <path id="path60" d="M 69.839 290.47 L 69.839 293.47" />
      </g>
    </g>
    <clipPath id="clip7">
      <path id="path63" d="M 0.0000 0.0000 L 0.0000 575.00 L 623.00 575.00 L 623.00 0.0000 z" />
    </clipPath>
    <g id="g65" clip-path="url(#clip7)">
      <g fill="#000000" fill-opacity="1.0000" fill-rule="nonzero" stroke="none" id="g67">
        <path id="path69" d="M 145.72 304.29 L 145.72 303.36 L 151.28 303.36 L 151.28 304.29 z M 157.27 308.00 L 157.27 305.14 L 152.72 305.14 L 152.72 304.12 L 157.27 297.88 L 158.54 297.88 L 158.54 304.04 L 159.89 304.04 L 159.89 305.14 L 158.54 305.14 L 158.54 308.00 z M 154.04 304.04 L 157.36 304.04 L 157.36 299.54 z" />
      </g>
    </g>
    <clipPath id="clip8">
      <path id="path72" d="M 0.0000 0.0000 L 0.0000 575.00 L 623.00 575.00 L 623.00 0.0000 z" />
    </clipPath>
    <g id="g74" clip-path="url(#clip8)">
      <g fill="none" stroke="#000000" stroke-width="2.0000" stroke-linecap="butt" stroke-opacity="1.0000" id="g76">
        <path id="path78" d="M 151.21 290.47 L 151.21 293.47" />
      </g>
    </g>
    <clipPath id="clip9">
      <path id="path81" d="M 0.0000 0.0000 L 0.0000 575.00 L 623.00 575.00 L 623.00 0.0000 z" />
    </clipPath>
    <g id="g83" clip-path="url(#clip9)">
      <g fill="#000000" fill-opacity="1.0000" fill-rule="nonzero" stroke="none" id="g85">
        <path id="path87" d="M 226.72 304.29 L 226.72 303.36 L 232.28 303.36 L 232.28 304.29 z M 234.16 308.00 L 234.16 306.82 Q 234.75 305.44 236.54 303.82 L 237.31 303.13 Q 238.80 301.79 238.80 300.46 Q 238.80 299.61 238.29 299.13 Q 237.79 298.64 236.90 298.64 Q 235.84 298.64 234.42 299.46 L 234.42 298.27 Q 235.76 297.63 237.09 297.63 Q 238.51 297.63 239.37 298.40 Q 240.23 299.16 240.23 300.43 Q 240.23 301.33 239.80 302.04 Q 239.36 302.74 238.18 303.75 L 237.66 304.19 Q 236.04 305.57 235.79 306.82 L 240.18 306.82 L 240.18 308.00 z" />
      </g>
    </g>
    <clipPath id="clip10">
      <path id="path90" d="M 0.0000 0.0000 L 0.0000 575.00 L 623.00 575.00 L 623.00 0.0000 z" />
    </clipPath>
    <g id="g92" clip-path="url(#clip10)">
      <g fill="none" stroke="#000000" stroke-width="2.0000" stroke-linecap="butt" stroke-opacity="1.0000" id="g94">
        <path id="path96" d="M 232.58 290.47 L 232.58 293.47" />
      </g>
    </g>
    <clipPath id="clip11">
      <path id="path99" d="M 0.0000 0.0000 L 0.0000 575.00 L 623.00 575.00 L 623.00 0.0000 z" />
    </clipPath>
    <g id="g101" clip-path="url(#clip11)">
      <g fill="#000000" fill-opacity="1.0000" fill-rule="nonzero" stroke="none" id="g103">
        <path id="path105" d="M 323.39 308.25 Q 321.82 308.25 320.86 306.78 Q 319.89 305.31 319.89 302.93 Q 319.89 300.54 320.86 299.09 Q 321.84 297.63 323.43 297.63 Q 325.02 297.63 326.00 299.09 Q 326.97 300.54 326.97 302.91 Q 326.97 305.35 326.00 306.80 Q 325.02 308.25 323.39 308.25 z M 323.40 307.24 Q 325.54 307.24 325.54 302.89 Q 325.54 298.64 323.43 298.64 Q 321.32 298.64 321.32 302.93 Q 321.32 307.24 323.40 307.24 z" />
      </g>
    </g>
    <clipPath id="clip12">
      <path id="path108" d="M 0.0000 0.0000 L 0.0000 575.00 L 623.00 575.00 L 623.00 0.0000 z" />
    </clipPath>
    <g id="g110" clip-path="url(#clip12)">
      <g fill="none" stroke="#000000" stroke-width="2.0000" stroke-linecap="butt" stroke-opacity="1.0000" id="g112">
        <path id="path114" d="M 313.95 290.47 L 313.95 293.47" />
      </g>
    </g>
    <clipPath id="clip13">
      <path id="path117" d="M 0.0000 0.0000 L 0.0000 575.00 L 623.00 575.00 L 623.00 0.0000 z" />
    </clipPath>
    <g id="g119" clip-path="url(#clip13)">
      <g fill="#000000" fill-opacity="1.0000" fill-rule="nonzero" stroke="none" id="g121">
        <path id="path123" d="M 393.16 308.00 L 393.16 306.82 Q 393.75 305.44 395.54 303.82 L 396.31 303.13 Q 397.80 301.79 397.80 300.46 Q 397.80 299.61 397.29 299.13 Q 396.79 298.64 395.90 298.64 Q 394.84 298.64 393.42 299.46 L 393.42 298.27 Q 394.76 297.63 396.09 297.63 Q 397.51 297.63 398.37 298.40 Q 399.23 299.16 399.23 300.43 Q 399.23 301.33 398.80 302.04 Q 398.36 302.74 397.18 303.75 L 396.66 304.19 Q 395.04 305.57 394.79 306.82 L 399.18 306.82 L 399.18 308.00 z" />
      </g>
    </g>
    <clipPath id="clip14">
      <path id="path126" d="M 0.0000 0.0000 L 0.0000 575.00 L 623.00 575.00 L 623.00 0.0000 z" />
    </clipPath>
    <g id="g128" clip-path="url(#clip14)">
      <g fill="none" stroke="#000000" stroke-width="2.0000" stroke-linecap="butt" stroke-opacity="1.0000" id="g130">
        <path id="path132" d="M 395.31 290.47 L 395.31 293.47" />
      </g>
    </g>
    <clipPath id="clip15">
      <path id="path135" d="M 0.0000 0.0000 L 0.0000 575.00 L 623.00 575.00 L 623.00 0.0000 z" />
    </clipPath>
    <g id="g137" clip-path="url(#clip15)">
      <g fill="#000000" fill-opacity="1.0000" fill-rule="nonzero" stroke="none" id="g139">
        <path id="path141" d="M 479.27 308.00 L 479.27 305.14 L 474.72 305.14 L 474.72 304.12 L 479.27 297.88 L 480.54 297.88 L 480.54 304.04 L 481.89 304.04 L 481.89 305.14 L 480.54 305.14 L 480.54 308.00 z M 476.04 304.04 L 479.36 304.04 L 479.36 299.54 z" />
      </g>
    </g>
    <clipPath id="clip16">
      <path id="path144" d="M 0.0000 0.0000 L 0.0000 575.00 L 623.00 575.00 L 623.00 0.0000 z" />
    </clipPath>
    <g id="g146" clip-path="url(#clip16)">
      <g fill="none" stroke="#000000" stroke-width="2.0000" stroke-linecap="butt" stroke-opacity="1.0000" id="g148">
        <path id="path150" d="M 476.68 290.47 L 476.68 293.47" />
      </g>
    </g>
    <clipPath id="clip17">
      <path id="path153" d="M 0.0000 0.0000 L 0.0000 575.00 L 623.00 575.00 L 623.00 0.0000 z" />
    </clipPath>
    <g id="g155" clip-path="url(#clip17)">
      <g fill="#000000" fill-opacity="1.0000" fill-rule="nonzero" stroke="none" id="g157">
        <path id="path159" d="M 557.41 302.76 Q 558.37 301.51 559.83 301.51 Q 561.16 301.51 562.00 302.38 Q 562.85 303.26 562.85 304.64 Q 562.85 306.22 561.90 307.23 Q 560.95 308.25 559.50 308.25 Q 557.82 308.25 556.88 306.91 Q 555.94 305.56 555.94 303.17 Q 555.94 300.54 557.02 299.08 Q 558.10 297.62 560.07 297.62 Q 560.97 297.62 562.33 298.01 L 562.33 299.18 Q 560.90 298.63 559.99 298.63 Q 557.41 298.63 557.41 302.76 z M 561.49 304.94 Q 561.49 303.79 560.98 303.13 Q 560.46 302.48 559.55 302.48 Q 558.69 302.48 558.08 303.05 Q 557.46 303.62 557.46 304.43 Q 557.46 305.70 558.05 306.47 Q 558.63 307.24 559.59 307.24 Q 560.46 307.24 560.98 306.62 Q 561.49 305.99 561.49 304.94 z" />
      </g>
    </g>
    <clipPath id="clip18">
      <path id="path162" d="M 0.0000 0.0000 L 0.0000 575.00 L 623.00 575.00 L 623.00 0.0000 z" />
    </clipPath>
    <g id="g164" clip-path="url(#clip18)">
      <g fill="none" stroke="#000000" stroke-width="2.0000" stroke-linecap="butt" stroke-opacity="1.0000" id="g166">
        <path id="path168" d="M 558.05 290.47 L 558.05 293.47" />
      </g>
    </g>
    <clipPath id="clip19">
      <path id="path171" d="M 0.0000 0.0000 L 0.0000 575.00 L 623.00 575.00 L 623.00 0.0000 z" />
    </clipPath>
    <g id="g173" clip-path="url(#clip19)">
      <g fill="#000000" fill-opacity="1.0000" fill-rule="nonzero" stroke="none" id="g175">
        <path id="path177" d="M 291.72 536.29 L 291.72 535.36 L 297.28 535.36 L 297.28 536.29 z M 300.41 534.76 Q 301.37 533.51 302.83 533.51 Q 304.16 533.51 305.00 534.38 Q 305.85 535.26 305.85 536.64 Q 305.85 538.22 304.90 539.23 Q 303.95 540.25 302.50 540.25 Q 300.82 540.25 299.88 538.91 Q 298.94 537.56 298.94 535.17 Q 298.94 532.54 300.02 531.08 Q 301.10 529.62 303.07 529.62 Q 303.97 529.62 305.33 530.01 L 305.33 531.18 Q 303.90 530.63 302.99 530.63 Q 300.41 530.63 300.41 534.76 z M 304.49 536.94 Q 304.49 535.79 303.98 535.13 Q 303.46 534.48 302.55 534.48 Q 301.69 534.48 301.08 535.05 Q 300.46 535.62 300.46 536.43 Q 300.46 537.70 301.05 538.47 Q 301.63 539.24 302.59 539.24 Q 303.46 539.24 303.98 538.62 Q 304.49 537.99 304.49 536.94 z" />
      </g>
    </g>
    <clipPath id="clip20">
      <path id="path180" d="M 0.0000 0.0000 L 0.0000 575.00 L 623.00 575.00 L 623.00 0.0000 z" />
    </clipPath>
    <g id="g182" clip-path="url(#clip20)">
      <g fill="none" stroke="#000000" stroke-width="2.0000" stroke-linecap="butt" stroke-opacity="1.0000" id="g184">
        <path id="path186" d="M 310.95 534.57 L 313.95 534.57" />
      </g>
    </g>
    <clipPath id="clip21">
      <path id="path189" d="M 0.0000 0.0000 L 0.0000 575.00 L 623.00 575.00 L 623.00 0.0000 z" />
    </clipPath>
    <g id="g191" clip-path="url(#clip21)">
      <g fill="#000000" fill-opacity="1.0000" fill-rule="nonzero" stroke="none" id="g193">
        <path id="path195" d="M 291.72 455.29 L 291.72 454.36 L 297.28 454.36 L 297.28 455.29 z M 303.27 459.00 L 303.27 456.14 L 298.72 456.14 L 298.72 455.12 L 303.27 448.88 L 304.54 448.88 L 304.54 455.04 L 305.89 455.04 L 305.89 456.14 L 304.54 456.14 L 304.54 459.00 z M 300.04 455.04 L 303.36 455.04 L 303.36 450.54 z" />
      </g>
    </g>
    <clipPath id="clip22">
      <path id="path198" d="M 0.0000 0.0000 L 0.0000 575.00 L 623.00 575.00 L 623.00 0.0000 z" />
    </clipPath>
    <g id="g200" clip-path="url(#clip22)">
      <g fill="none" stroke="#000000" stroke-width="2.0000" stroke-linecap="butt" stroke-opacity="1.0000" id="g202">
        <path id="path204" d="M 310.95 453.21 L 313.95 453.21" />
      </g>
    </g>
    <clipPath id="clip23">
      <path id="path207" d="M 0.0000 0.0000 L 0.0000 575.00 L 623.00 575.00 L 623.00 0.0000 z" />
    </clipPath>
    <g id="g209" clip-path="url(#clip23)">
      <g fill="#000000" fill-opacity="1.0000" fill-rule="nonzero" stroke="none" id="g211">
        <path id="path213" d="M 291.72 373.29 L 291.72 372.36 L 297.28 372.36 L 297.28 373.29 z M 299.16 377.00 L 299.16 375.82 Q 299.75 374.44 301.54 372.82 L 302.31 372.13 Q 303.80 370.79 303.80 369.46 Q 303.80 368.61 303.29 368.13 Q 302.79 367.64 301.90 367.64 Q 300.84 367.64 299.42 368.46 L 299.42 367.27 Q 300.76 366.63 302.09 366.63 Q 303.51 366.63 304.37 367.40 Q 305.23 368.16 305.23 369.43 Q 305.23 370.33 304.80 371.04 Q 304.36 371.74 303.18 372.75 L 302.66 373.19 Q 301.04 374.57 300.79 375.82 L 305.18 375.82 L 305.18 377.00 z" />
      </g>
    </g>
    <clipPath id="clip24">
      <path id="path216" d="M 0.0000 0.0000 L 0.0000 575.00 L 623.00 575.00 L 623.00 0.0000 z" />
    </clipPath>
    <g id="g218" clip-path="url(#clip24)">
      <g fill="none" stroke="#000000" stroke-width="2.0000" stroke-linecap="butt" stroke-opacity="1.0000" id="g220">
        <path id="path222" d="M 310.95 371.84 L 313.95 371.84" />
      </g>
    </g>
    <clipPath id="clip25">
      <path id="path225" d="M 0.0000 0.0000 L 0.0000 575.00 L 623.00 575.00 L 623.00 0.0000 z" />
    </clipPath>
    <g id="g227" clip-path="url(#clip25)">
      <g fill="#000000" fill-opacity="1.0000" fill-rule="nonzero" stroke="none" id="g229">
        <path id="path231" d="M 302.39 288.25 Q 300.82 288.25 299.86 286.78 Q 298.89 285.31 298.89 282.93 Q 298.89 280.54 299.86 279.09 Q 300.84 277.63 302.43 277.63 Q 304.02 277.63 305.00 279.09 Q 305.97 280.54 305.97 282.91 Q 305.97 285.35 305.00 286.80 Q 304.02 288.25 302.39 288.25 z M 302.40 287.24 Q 304.54 287.24 304.54 282.89 Q 304.54 278.64 302.43 278.64 Q 300.32 278.64 300.32 282.93 Q 300.32 287.24 302.40 287.24 z" />
      </g>
    </g>
    <clipPath id="clip26">
      <path id="path234" d="M 0.0000 0.0000 L 0.0000 575.00 L 623.00 575.00 L 623.00 0.0000 z" />
    </clipPath>
    <g id="g236" clip-path="url(#clip26)">
      <g fill="#000000" fill-opacity="1.0000" fill-rule="nonzero" stroke="none" id="g238">
        <path id="path240" d="M 299.16 215.00 L 299.16 213.82 Q 299.75 212.44 301.54 210.82 L 302.31 210.13 Q 303.80 208.79 303.80 207.46 Q 303.80 206.61 303.29 206.13 Q 302.79 205.64 301.90 205.64 Q 300.84 205.64 299.42 206.46 L 299.42 205.27 Q 300.76 204.63 302.09 204.63 Q 303.51 204.63 304.37 205.40 Q 305.23 206.16 305.23 207.43 Q 305.23 208.33 304.80 209.04 Q 304.36 209.74 303.18 210.75 L 302.66 211.19 Q 301.04 212.57 300.79 213.82 L 305.18 213.82 L 305.18 215.00 z" />
      </g>
    </g>
    <clipPath id="clip27">
      <path id="path243" d="M 0.0000 0.0000 L 0.0000 575.00 L 623.00 575.00 L 623.00 0.0000 z" />
    </clipPath>
    <g id="g245" clip-path="url(#clip27)">
      <g fill="none" stroke="#000000" stroke-width="2.0000" stroke-linecap="butt" stroke-opacity="1.0000" id="g247">
        <path id="path249" d="M 310.95 209.10 L 313.95 209.10" />
      </g>
    </g>
    <clipPath id="clip28">
      <path id="path252" d="M 0.0000 0.0000 L 0.0000 575.00 L 623.00 575.00 L 623.00 0.0000 z" />
    </clipPath>
    <g id="g254" clip-path="url(#clip28)">
      <g fill="#000000" fill-opacity="1.0000" fill-rule="nonzero" stroke="none" id="g256">
        <path id="path258" d="M 303.27 133.00 L 303.27 130.14 L 298.72 130.14 L 298.72 129.12 L 303.27 122.88 L 304.54 122.88 L 304.54 129.04 L 305.89 129.04 L 305.89 130.14 L 304.54 130.14 L 304.54 133.00 z M 300.04 129.04 L 303.36 129.04 L 303.36 124.54 z" />
      </g>
    </g>
    <clipPath id="clip29">
      <path id="path261" d="M 0.0000 0.0000 L 0.0000 575.00 L 623.00 575.00 L 623.00 0.0000 z" />
    </clipPath>
    <g id="g263" clip-path="url(#clip29)">
      <g fill="none" stroke="#000000" stroke-width="2.0000" stroke-linecap="butt" stroke-opacity="1.0000" id="g265">
        <path id="path267" d="M 310.95 127.73 L 313.95 127.73" />
      </g>
    </g>
    <clipPath id="clip30">
      <path id="path270" d="M 0.0000 0.0000 L 0.0000 575.00 L 623.00 575.00 L 623.00 0.0000 z" />
    </clipPath>
    <g id="g272" clip-path="url(#clip30)">
      <g fill="#000000" fill-opacity="1.0000" fill-rule="nonzero" stroke="none" id="g274">
        <path id="path276" d="M 300.41 46.757 Q 301.37 45.506 302.83 45.506 Q 304.16 45.506 305.00 46.384 Q 305.85 47.263 305.85 48.637 Q 305.85 50.216 304.90 51.234 Q 303.95 52.253 302.50 52.253 Q 300.82 52.253 299.88 50.906 Q 298.94 49.560 298.94 47.167 Q 298.94 44.535 300.02 43.079 Q 301.10 41.623 303.07 41.623 Q 303.97 41.623 305.33 42.006 L 305.33 43.182 Q 303.90 42.635 302.99 42.635 Q 300.41 42.635 300.41 46.757 z M 304.49 48.938 Q 304.49 47.789 303.98 47.133 Q 303.46 46.477 302.55 46.477 Q 301.69 46.477 301.08 47.051 Q 300.46 47.625 300.46 48.432 Q 300.46 49.703 301.05 50.472 Q 301.63 51.241 302.59 51.241 Q 303.46 51.241 303.98 50.616 Q 304.49 49.990 304.49 48.938 z" />
      </g>
    </g>
    <clipPath id="clip31">
      <path id="path279" d="M 0.0000 0.0000 L 0.0000 575.00 L 623.00 575.00 L 623.00 0.0000 z" />
    </clipPath>
    <g id="g281" clip-path="url(#clip31)">
      <g fill="none" stroke="#000000" stroke-width="2.0000" stroke-linecap="butt" stroke-opacity="1.0000" id="g283">
        <path id="path285" d="M 310.95 46.361 L 313.95 46.361" />
      </g>
    </g>
    <clipPath id="clip32">
      <path id="path288" d="M 0.0000 0.0000 L 0.0000 575.00 L 623.00 575.00 L 623.00 0.0000 z" />
    </clipPath>
    <g id="g290" clip-path="url(#clip32)">
      <g fill="none" stroke="#c0c0c0" stroke-linecap="round" stroke-linejoin="round" stroke-opacity="1.0000" id="g292">
        <path id="path294" d="M 69.839 0.0000 L 69.839 290.47" />
      </g>
    </g>
    <clipPath id="clip33">
      <path id="path297" d="M 0.0000 0.0000 L 0.0000 575.00 L 623.00 575.00 L 623.00 0.0000 z" />
    </clipPath>
    <g id="g299" clip-path="url(#clip33)">
      <g fill="none" stroke="#c0c0c0" stroke-linecap="round" stroke-linejoin="round" stroke-opacity="1.0000" id="g301">
        <path id="path303" d="M 69.839 315.07 L 69.839 575.00" />
      </g>
    </g>
    <clipPath id="clip34">
      <path id="path306" d="M 0.0000 0.0000 L 0.0000 575.00 L 623.00 575.00 L 623.00 0.0000 z" />
    </clipPath>
    <g id="g308" clip-path="url(#clip34)">
      <g fill="none" stroke="#c0c0c0" stroke-linecap="round" stroke-linejoin="round" stroke-opacity="1.0000" id="g310">
        <path id="path312" d="M 69.839 0.0000 L 69.839 290.47" />
      </g>
    </g>
    <clipPath id="clip35">
      <path id="path315" d="M 0.0000 0.0000 L 0.0000 575.00 L 623.00 575.00 L 623.00 0.0000 z" />
    </clipPath>
    <g id="g317" clip-path="url(#clip35)">
      <g fill="none" stroke="#c0c0c0" stroke-linecap="round" stroke-linejoin="round" stroke-opacity="1.0000" id="g319">
        <path id="path321" d="M 69.839 315.07 L 69.839 575.00" />
      </g>
    </g>
    <clipPath id="clip36">
      <path id="path324" d="M 0.0000 0.0000 L 0.0000 575.00 L 623.00 575.00 L 623.00 0.0000 z" />
    </clipPath>
    <g id="g326" clip-path="url(#clip36)">
      <g fill="none" stroke="#c0c0c0" stroke-linecap="round" stroke-linejoin="round" stroke-opacity="1.0000" id="g328">
        <path id="path330" d="M 151.21 0.0000 L 151.21 290.47" />
      </g>
    </g>
    <clipPath id="clip37">
      <path id="path333" d="M 0.0000 0.0000 L 0.0000 575.00 L 623.00 575.00 L 623.00 0.0000 z" />
    </clipPath>
    <g id="g335" clip-path="url(#clip37)">
      <g fill="none" stroke="#c0c0c0" stroke-linecap="round" stroke-linejoin="round" stroke-opacity="1.0000" id="g337">
        <path id="path339" d="M 151.21 315.07 L 151.21 575.00" />
      </g>
    </g>
    <clipPath id="clip38">
      <path id="path342" d="M 0.0000 0.0000 L 0.0000 575.00 L 623.00 575.00 L 623.00 0.0000 z" />
    </clipPath>
    <g id="g344" clip-path="url(#clip38)">
      <g fill="none" stroke="#c0c0c0" stroke-linecap="round" stroke-linejoin="round" stroke-opacity="1.0000" id="g346">
        <path id="path348" d="M 232.58 0.0000 L 232.58 290.47" />
      </g>
    </g>
    <clipPath id="clip39">
      <path id="path351" d="M 0.0000 0.0000 L 0.0000 575.00 L 623.00 575.00 L 623.00 0.0000 z" />
    </clipPath>
    <g id="g353" clip-path="url(#clip39)">
      <g fill="none" stroke="#c0c0c0" stroke-linecap="round" stroke-linejoin="round" stroke-opacity="1.0000" id="g355">
        <path id="path357" d="M 232.58 315.07 L 232.58 575.00" />
      </g>
    </g>
    <clipPath id="clip40">
      <path id="path360" d="M 0.0000 0.0000 L 0.0000 575.00 L 623.00 575.00 L 623.00 0.0000 z" />
    </clipPath>
    <g id="g362" clip-path="url(#clip40)">
      <g fill="none" stroke="#c0c0c0" stroke-linecap="round" stroke-linejoin="round" stroke-opacity="1.0000" id="g364">
        <path id="path366" d="M 395.31 0.0000 L 395.31 290.47" />
      </g>
    </g>
    <clipPath id="clip41">
      <path id="path369" d="M 0.0000 0.0000 L 0.0000 575.00 L 623.00 575.00 L 623.00 0.0000 z" />
    </clipPath>
    <g id="g371" clip-path="url(#clip41)">
      <g fill="none" stroke="#c0c0c0" stroke-linecap="round" stroke-linejoin="round" stroke-opacity="1.0000" id="g373">
        <path id="path375" d="M 395.31 315.07 L 395.31 575.00" />
      </g>
    </g>
    <clipPath id="clip42">
      <path id="path378" d="M 0.0000 0.0000 L 0.0000 575.00 L 623.00 575.00 L 623.00 0.0000 z" />
    </clipPath>
    <g id="g380" clip-path="url(#clip42)">
      <g fill="none" stroke="#c0c0c0" stroke-linecap="round" stroke-linejoin="round" stroke-opacity="1.0000" id="g382">
        <path id="path384" d="M 476.68 0.0000 L 476.68 290.47" />
      </g>
    </g>
    <clipPath id="clip43">
      <path id="path387" d="M 0.0000 0.0000 L 0.0000 575.00 L 623.00 575.00 L 623.00 0.0000 z" />
    </clipPath>
    <g id="g389" clip-path="url(#clip43)">
      <g fill="none" stroke="#c0c0c0" stroke-linecap="round" stroke-linejoin="round" stroke-opacity="1.0000" id="g391">
        <path id="path393" d="M 476.68 315.07 L 476.68 575.00" />
      </g>
    </g>
    <clipPath id="clip44">
      <path id="path396" d="M 0.0000 0.0000 L 0.0000 575.00 L 623.00 575.00 L 623.00 0.0000 z" />
    </clipPath>
    <g id="g398" clip-path="url(#clip44)">
      <g fill="none" stroke="#c0c0c0" stroke-linecap="round" stroke-linejoin="round" stroke-opacity="1.0000" id="g400">
        <path id="path402" d="M 558.05 0.0000 L 558.05 290.47" />
      </g>
    </g>
    <clipPath id="clip45">
      <path id="path405" d="M 0.0000 0.0000 L 0.0000 575.00 L 623.00 575.00 L 623.00 0.0000 z" />
    </clipPath>
    <g id="g407" clip-path="url(#clip45)">
      <g fill="none" stroke="#c0c0c0" stroke-linecap="round" stroke-linejoin="round" stroke-opacity="1.0000" id="g409">
        <path id="path411" d="M 558.05 315.07 L 558.05 575.00" />
      </g>
    </g>
    <clipPath id="clip46">
      <path id="path414" d="M 0.0000 0.0000 L 0.0000 575.00 L 623.00 575.00 L 623.00 0.0000 z" />
    </clipPath>
    <g id="g416" clip-path="url(#clip46)">
      <g fill="none" stroke="#c0c0c0" stroke-linecap="round" stroke-linejoin="round" stroke-opacity="1.0000" id="g418">
        <path id="path420" d="M 0.0000 46.361 L 295.09 46.361" />
      </g>
    </g>
    <clipPath id="clip47">
      <path id="path423" d="M 0.0000 0.0000 L 0.0000 575.00 L 623.00 575.00 L 623.00 0.0000 z" />
    </clipPath>
    <g id="g425" clip-path="url(#clip47)">
      <g fill="none" stroke="#c0c0c0" stroke-linecap="round" stroke-linejoin="round" stroke-opacity="1.0000" id="g427">
        <path id="path429" d="M 313.95 46.361 L 623.00 46.361" />
      </g>
    </g>
    <clipPath id="clip48">
      <path id="path432" d="M 0.0000 0.0000 L 0.0000 575.00 L 623.00 575.00 L 623.00 0.0000 z" />
    </clipPath>
    <g id="g434" clip-path="url(#clip48)">
      <g fill="none" stroke="#c0c0c0" stroke-linecap="round" stroke-linejoin="round" stroke-opacity="1.0000" id="g436">
        <path id="path438" d="M 0.0000 46.361 L 295.09 46.361" />
      </g>
    </g>
    <clipPath id="clip49">
      <path id="path441" d="M 0.0000 0.0000 L 0.0000 575.00 L 623.00 575.00 L 623.00 0.0000 z" />
    </clipPath>
    <g id="g443" clip-path="url(#clip49)">
      <g fill="none" stroke="#c0c0c0" stroke-linecap="round" stroke-linejoin="round" stroke-opacity="1.0000" id="g445">
        <path id="path447" d="M 313.95 46.361 L 623.00 46.361" />
      </g>
    </g>
    <clipPath id="clip50">
      <path id="path450" d="M 0.0000 0.0000 L 0.0000 575.00 L 623.00 575.00 L 623.00 0.0000 z" />
    </clipPath>
    <g id="g452" clip-path="url(#clip50)">
      <g fill="none" stroke="#c0c0c0" stroke-linecap="round" stroke-linejoin="round" stroke-opacity="1.0000" id="g454">
        <path id="path456" d="M 0.0000 127.73 L 295.09 127.73" />
      </g>
    </g>
    <clipPath id="clip51">
      <path id="path459" d="M 0.0000 0.0000 L 0.0000 575.00 L 623.00 575.00 L 623.00 0.0000 z" />
    </clipPath>
    <g id="g461" clip-path="url(#clip51)">
      <g fill="none" stroke="#c0c0c0" stroke-linecap="round" stroke-linejoin="round" stroke-opacity="1.0000" id="g463">
        <path id="path465" d="M 313.95 127.73 L 623.00 127.73" />
      </g>
    </g>
    <clipPath id="clip52">
      <path id="path468" d="M 0.0000 0.0000 L 0.0000 575.00 L 623.00 575.00 L 623.00 0.0000 z" />
    </clipPath>
    <g id="g470" clip-path="url(#clip52)">
      <g fill="none" stroke="#c0c0c0" stroke-linecap="round" stroke-linejoin="round" stroke-opacity="1.0000" id="g472">
        <path id="path474" d="M 0.0000 209.10 L 295.09 209.10" />
      </g>
    </g>
    <clipPath id="clip53">
      <path id="path477" d="M 0.0000 0.0000 L 0.0000 575.00 L 623.00 575.00 L 623.00 0.0000 z" />
    </clipPath>
    <g id="g479" clip-path="url(#clip53)">
      <g fill="none" stroke="#c0c0c0" stroke-linecap="round" stroke-linejoin="round" stroke-opacity="1.0000" id="g481">
        <path id="path483" d="M 313.95 209.10 L 623.00 209.10" />
      </g>
    </g>
    <clipPath id="clip54">
      <path id="path486" d="M 0.0000 0.0000 L 0.0000 575.00 L 623.00 575.00 L 623.00 0.0000 z" />
    </clipPath>
    <g id="g488" clip-path="url(#clip54)">
      <g fill="none" stroke="#c0c0c0" stroke-linecap="round" stroke-linejoin="round" stroke-opacity="1.0000" id="g490">
        <path id="path492" d="M 0.0000 371.84 L 288.09 371.84" />
      </g>
    </g>
    <clipPath id="clip55">
      <path id="path495" d="M 0.0000 0.0000 L 0.0000 575.00 L 623.00 575.00 L 623.00 0.0000 z" />
    </clipPath>
    <g id="g497" clip-path="url(#clip55)">
      <g fill="none" stroke="#c0c0c0" stroke-linecap="round" stroke-linejoin="round" stroke-opacity="1.0000" id="g499">
        <path id="path501" d="M 313.95 371.84 L 623.00 371.84" />
      </g>
    </g>
    <clipPath id="clip56">
      <path id="path504" d="M 0.0000 0.0000 L 0.0000 575.00 L 623.00 575.00 L 623.00 0.0000 z" />
    </clipPath>
    <g id="g506" clip-path="url(#clip56)">
      <g fill="none" stroke="#c0c0c0" stroke-linecap="round" stroke-linejoin="round" stroke-opacity="1.0000" id="g508">
        <path id="path510" d="M 0.0000 453.21 L 288.09 453.21" />
      </g>
    </g>
    <clipPath id="clip57">
      <path id="path513" d="M 0.0000 0.0000 L 0.0000 575.00 L 623.00 575.00 L 623.00 0.0000 z" />
    </clipPath>
    <g id="g515" clip-path="url(#clip57)">
      <g fill="none" stroke="#c0c0c0" stroke-linecap="round" stroke-linejoin="round" stroke-opacity="1.0000" id="g517">
        <path id="path519" d="M 313.95 453.21 L 623.00 453.21" />
      </g>
    </g>
    <clipPath id="clip58">
      <path id="path522" d="M 0.0000 0.0000 L 0.0000 575.00 L 623.00 575.00 L 623.00 0.0000 z" />
    </clipPath>
    <g id="g524" clip-path="url(#clip58)">
      <g fill="none" stroke="#c0c0c0" stroke-linecap="round" stroke-linejoin="round" stroke-opacity="1.0000" id="g526">
        <path id="path528" d="M 0.0000 534.57 L 288.09 534.57" />
      </g>
    </g>
    <clipPath id="clip59">
      <path id="path531" d="M 0.0000 0.0000 L 0.0000 575.00 L 623.00 575.00 L 623.00 0.0000 z" />
    </clipPath>
    <g id="g533" clip-path="url(#clip59)">
      <g fill="none" stroke="#c0c0c0" stroke-linecap="round" stroke-linejoin="round" stroke-opacity="1.0000" id="g535">
        <path id="path537" d="M 313.95 534.57 L 623.00 534.57" />
      </g>
    </g>
    <g id="misc" />
    <g id="layer0">
      <clipPath id="clip60">
        <path id="path542" d="M 0.0000 0.0000 L 0.0000 575.00 L 623.00 575.00 L 623.00 0.0000 z" />
      </clipPath>
      <g id="g544" clip-path="url(#clip60)">
        <g fill="none" stroke="#000000" stroke-width="3.0000" stroke-linecap="round" stroke-linejoin="round" stroke-opacity="1.0000" id="g546">
          <path id="path548" d="M 420.67 580.00 L 303.67 -5.0000" />
          <title id="title550">Line h</title>
          <desc id="desc552">Line h: Line through (0, 6), (1, 1)</desc>
        </g>
      </g>
      <clipPath id="clip61">
        <path id="path555" d="M 0.0000 0.0000 L 0.0000 575.00 L 623.00 575.00 L 623.00 0.0000 z" />
      </clipPath>
      <g id="g557" clip-path="url(#clip61)">
        <g fill="none" stroke="#000000" stroke-width="3.0000" stroke-linecap="round" stroke-linejoin="round" stroke-opacity="1.0000" id="g559">
          <path id="path561" d="M -5.0000 177.86 L 628.00 304.46" />
          <title id="title563">Line l</title>
          <desc id="desc565">Line l: Line through (6, 0), (1, 1)</desc>
        </g>
      </g>
    </g>
  </g>
  <g style="font-style:normal;font-variant:normal;font-weight:normal;font-stretch:normal;letter-spacing:normal;word-spacing:normal;text-anchor:start;fill:none;fill-opacity:1;fill-rule:evenodd;stroke:#000000;stroke-linecap:butt;stroke-linejoin:miter;stroke-miterlimit:10.43299961;stroke-dasharray:none;stroke-dashoffset:0;stroke-opacity:1" id="g4855" transform="matrix(2,0,0,-2,-433.87334,1124.4179)" xml:space="preserve" stroke-miterlimit="10.433" font-style="normal" font-variant="normal" font-weight="normal" font-stretch="normal" font-size-adjust="none" letter-spacing="normal" word-spacing="normal" ns0:text="9" ns0:preamble="/Users/ABaker/cmep/Inkscape/underground-inkscape-preamble.tex"><path style="fill:#000000;stroke-width:0" d="m 228.6,481.32 -0.01,-0.26 -0.01,-0.25 -0.01,-0.24 -0.02,-0.23 -0.03,-0.22 -0.04,-0.22 -0.04,-0.21 -0.05,-0.2 -0.05,-0.19 -0.06,-0.18 -0.07,-0.18 -0.07,-0.17 -0.08,-0.15 -0.08,-0.15 -0.09,-0.15 -0.1,-0.13 -0.11,-0.13 -0.11,-0.12 -0.11,-0.11 -0.13,-0.1 -0.13,-0.09 -0.13,-0.09 -0.14,-0.08 -0.15,-0.06 -0.16,-0.07 -0.16,-0.05 -0.16,-0.04 -0.18,-0.04 -0.18,-0.03 -0.18,-0.02 -0.2,-0.01 -0.2,-0.01 c -0.37,0 -0.67,0.04 -0.89,0.1 l 0,0.7 c 0.26,-0.09 0.55,-0.13 0.88,-0.13 0.78,0 1.37,0.24 1.77,0.72 0.39,0.49 0.61,1.22 0.65,2.22 l -0.06,0 -0.14,0.49 c 0.14,0.21 0.21,0.42 0.21,0.65 0,0.34 -0.07,0.66 -0.2,0.94 -0.14,0.29 -0.32,0.52 -0.56,0.69 -0.24,0.16 -0.51,0.25 -0.82,0.25 l 0,0 c -0.46,-0.01 -0.82,-0.15 -1.07,-0.45 -0.26,-0.3 -0.38,-0.72 -0.38,-1.25 0,-0.47 0.11,-0.83 0.35,-1.1 0.23,-0.27 0.59,-0.4 1.06,-0.4 0.3,0 0.57,0.06 0.82,0.18 0.24,0.12 0.44,0.28 0.59,0.49 l 0.14,-0.49 c -0.18,-0.27 -0.42,-0.48 -0.71,-0.62 -0.3,-0.14 -0.63,-0.21 -1,-0.21 -0.63,0 -1.13,0.19 -1.5,0.56 -0.37,0.38 -0.55,0.91 -0.55,1.58 0,0.74 0.2,1.33 0.62,1.75 0.41,0.43 0.96,0.65 1.63,0.65 0.48,-0.01 0.91,-0.13 1.27,-0.38 0.36,-0.24 0.64,-0.61 0.83,-1.08 0.2,-0.48 0.3,-1.04 0.3,-1.68 z" id="path4857" /></g>  <g ns0:preamble="/Users/ABaker/cmep/Inkscape/underground-inkscape-preamble.tex" ns0:text="8" word-spacing="normal" letter-spacing="normal" font-size-adjust="none" font-stretch="normal" font-weight="normal" font-variant="normal" font-style="normal" stroke-miterlimit="10.433" xml:space="preserve" transform="matrix(2,0,0,-2,-49.67777,1517.9619)" id="content" style="font-style:normal;font-variant:normal;font-weight:normal;font-stretch:normal;letter-spacing:normal;word-spacing:normal;text-anchor:start;fill:none;fill-opacity:1;fill-rule:evenodd;stroke:#000000;stroke-linecap:butt;stroke-linejoin:miter;stroke-miterlimit:10.43299961;stroke-dasharray:none;stroke-dashoffset:0;stroke-opacity:1"><path id="path4217" d="m 226.27,484.46 -0.01,-0.66 c -0.4,0 -0.72,-0.1 -0.95,-0.29 -0.23,-0.2 -0.35,-0.46 -0.35,-0.78 0,-0.3 0.1,-0.55 0.29,-0.77 0.19,-0.21 0.55,-0.42 1.06,-0.64 0.47,0.2 0.8,0.41 0.99,0.63 0.19,0.22 0.29,0.48 0.29,0.78 0,0.33 -0.12,0.59 -0.35,0.78 -0.24,0.19 -0.56,0.29 -0.98,0.29 l 0,0 0.01,0.66 c 0.65,-0.01 1.17,-0.15 1.55,-0.46 0.38,-0.3 0.57,-0.71 0.57,-1.24 -0.01,-0.35 -0.11,-0.67 -0.33,-0.96 -0.22,-0.29 -0.56,-0.55 -1.04,-0.79 0.58,-0.28 0.99,-0.56 1.23,-0.87 0.24,-0.3 0.37,-0.65 0.37,-1.05 0,-0.59 -0.21,-1.06 -0.62,-1.42 -0.42,-0.35 -0.98,-0.53 -1.7,-0.53 l -0.02,0.66 c 0.49,0 0.86,0.12 1.13,0.34 0.27,0.23 0.41,0.54 0.41,0.94 0,0.31 -0.13,0.59 -0.38,0.84 -0.26,0.24 -0.7,0.48 -1.33,0.71 -0.48,-0.21 -0.83,-0.44 -1.05,-0.69 -0.22,-0.25 -0.32,-0.55 -0.32,-0.9 l 0,0 c -0.01,-0.39 0.13,-0.69 0.4,-0.91 0.27,-0.22 0.65,-0.33 1.14,-0.33 l 0.02,-0.66 c -0.76,0 -1.34,0.17 -1.75,0.5 -0.41,0.34 -0.61,0.81 -0.61,1.42 0,0.81 0.49,1.45 1.49,1.9 -0.45,0.26 -0.77,0.53 -0.97,0.82 -0.19,0.29 -0.29,0.62 -0.29,0.99 0,0.51 0.19,0.92 0.57,1.23 0.38,0.3 0.89,0.46 1.53,0.46 z" style="fill:#000000;stroke-width:0" /></g></svg>