<?xml version='1.0' ?><svg xmlns:dc="http://purl.org/dc/elements/1.1/" xmlns:cc="http://creativecommons.org/ns#" xmlns:rdf="http://www.w3.org/1999/02/22-rdf-syntax-ns#" xmlns:svg="http://www.w3.org/2000/svg" xmlns="http://www.w3.org/2000/svg" id="svg5278" version="1.1" width="770.66668" height="625.33335" viewBox="2.11977416 0.0 616.533344 500.26668" preserveAspectRatio="none">
  <metadata id="metadata5339">
    <rdf:RDF>
      <cc:Work rdf:about="">
        <dc:format>image/svg+xml</dc:format>
        <dc:type rdf:resource="http://purl.org/dc/dcmitype/StillImage" />
        <dc:title />
      </cc:Work>
    </rdf:RDF>
  </metadata>
  <defs id="defs5337" />
  <g style="stroke-width:1;stroke-linecap:square;stroke-linejoin:miter;stroke-miterlimit:10;stroke-dasharray:none;stroke-dashoffset:0" transform="translate(1.9872882,0)" stroke-miterlimit="10.000" id="g5282">
    <clipPath id="clip1">
      <path d="m 0,0 0,469 580,0 0,-469 z" id="path5285" />
    </clipPath>
    <g clip-path="url(#clip1)" id="g5287">
      <g style="fill:none;stroke:#000000;stroke-width:2;stroke-linecap:butt;stroke-opacity:1" id="g5289">
        <path d="m 264.81,3 0,466" id="path5291" />
      </g>
    </g>
    <clipPath id="clip2">
      <path d="m 0,0 0,469 580,0 0,-469 z" id="path5294" />
    </clipPath>
    <g clip-path="url(#clip2)" id="g5296">
      <g style="fill:#000000;fill-opacity:1;fill-rule:evenodd;stroke:none" id="g5298">
        <path d="m 264.81,2 -5,20 10,0" id="path5300" />
      </g>
    </g>
    <clipPath id="clip3">
      <path d="m 0,0 0,469 580,0 0,-469 z" id="path5303" />
    </clipPath>
    <g clip-path="url(#clip3)" id="g5305">
      <g style="fill:none;stroke:#000000;stroke-width:2;stroke-linecap:butt;stroke-opacity:1" id="g5307">
        <path d="m 0,368.69 577,0" id="path5309" />
      </g>
    </g>
    <clipPath id="clip4">
      <path d="m 0,0 0,469 580,0 0,-469 z" id="path5312" />
    </clipPath>
    <g clip-path="url(#clip4)" id="g5314">
      <g style="fill:#000000;fill-opacity:1;fill-rule:evenodd;stroke:none" id="g5316">
        <path d="m 578,368.69 -20,-5 0,10" id="path5318" />
      </g>
    </g>
    <g id="misc" />
    <g id="layer0">
      <clipPath id="clip5">
        <path d="m 0,0 0,469 580,0 0,-469 z" id="path5323" />
      </clipPath>
      <g clip-path="url(#clip5)" id="g5325">
        <g style="fill:none;stroke:#000000;stroke-width:2.5;stroke-linecap:round;stroke-linejoin:round;stroke-opacity:1" id="g5327">
          <path d="m 329.92,368.69 -0.79,-0.03 -2.36,-0.1 -3.87,-0.17 -5.29,-0.23 -6.57,-0.3 -7.7,-0.37 -8.63,-0.43 -9.37,-0.49 -9.86,-0.57 -5.05,-0.3 -5.08,-0.33 -5.08,-0.34 -5.05,-0.35 -9.91,-0.77 -9.42,-0.82 -8.73,-0.9 -7.8,-0.96 -6.7,-1.03 -5.43,-1.09 -4.03,-1.16 -2.52,-1.23 -0.68,-0.64 -0.28,-0.65 0.05,-0.51 0.27,-0.51 1.21,-1.05 1.29,-0.72 3.71,-1.49 5.14,-1.56 6.44,-1.62 7.59,-1.69 8.55,-1.76 9.29,-1.82 9.83,-1.89 5.03,-0.97 5.07,-0.99 5.09,-1 5.06,-1.02 9.94,-2.09 9.49,-2.16 8.81,-2.22 7.91,-2.29 6.83,-2.35 5.57,-2.42 4.18,-2.49 1.53,-1.26 1.15,-1.29 0.43,-0.65 0.34,-0.65 0.23,-0.66 0.13,-0.66 0.04,-0.66 -0.07,-0.67 -0.16,-0.68 -0.26,-0.67 -0.82,-1.37 -0.56,-0.69 -0.65,-0.69 -3.56,-2.82 -4.99,-2.89 -6.31,-2.95 -7.48,-3.02 -8.45,-3.08 -9.23,-3.15 -9.78,-3.21 -5.02,-1.64 -5.07,-1.65 -5.08,-1.66 -5.07,-1.68 -9.97,-3.42 -9.55,-3.48 -8.9,-3.55 -8.01,-3.61 -6.95,-3.68 -5.71,-3.75 -4.33,-3.81 -1.62,-1.93 -1.23,-1.95 -0.85,-1.96 -0.27,-0.99 -0.18,-1 -0.05,-1.99 0.12,-1.01 0.22,-1.01 0.74,-2.03 1.13,-2.04 1.51,-2.07 1.88,-2.08 4.85,-4.21 6.18,-4.28 7.35,-4.34 8.36,-4.41 9.16,-4.47 9.73,-4.55 5.01,-2.29 5.06,-2.32 5.08,-2.32 5.08,-2.35 5.03,-2.36 4.97,-2.38 9.61,-4.81 8.97,-4.87 8.12,-4.94 7.07,-5.01 5.85,-5.07 4.48,-5.14 1.7,-2.59 1.31,-2.61 0.93,-2.63 0.53,-2.65 0.14,-2.66 -0.25,-2.67 -0.66,-2.7 -1.04,-2.71 -3.24,-5.47 -4.7,-5.54 -6.04,-5.6 -7.24,-5.67 -8.26,-5.73 -9.08,-5.8 -9.69,-5.87 -4.99,-2.96 -5.05,-2.98 -5.08,-2.99 -5.08,-3.009 -5.05,-3.025 -4.98,-3.042 -9.66,-6.133 -9.05,-6.2 -8.22,-6.266 -7.19,-6.332 -5.99,-6.399 -4.63,-6.465 -3.18,-6.531 -1.01,-3.291 -0.61,-3.307 -0.23,-3.324 0.18,-3.34 1.53,-6.73 1.35,-3.39 1.73,-3.407 4.54,-6.863 5.91,-6.9287 7.12,-6.9955 8.16,-7.0618" id="path5329" />
          <title id="title5331">Curve b</title>
          <desc id="desc5333">Curve b: Curve[cos(t), tÃ&#131;Â&#130;Ã&#130;Â², t, 0, 20]</desc>
        </g>
      </g>
    </g>
  </g>
  <path id="path5917" d="m 553.61872,388.65493 -0.9315,-2.592 c -0.6075,-1.5795 -1.4985,-3.564 -3.6045,-4.698 l -6.318,1.5795 0.1215,0.8505 c 0.486,-0.2025 1.215,-0.2835 1.8225,-0.2835 2.6325,0 3.888,1.944 4.698,4.2525 l 1.5795,4.4145 -3.1185,4.8195 c -1.539,2.349 -2.754,2.835 -3.3615,2.835 -1.1745,0 -1.0125,-0.972 -2.2275,-0.972 -1.215,0 -1.8225,1.0125 -1.8225,1.782 0,1.053 0.7695,2.2275 2.4705,2.2275 2.7135,0 4.0905,-2.0655 5.6295,-4.374 l 3.0375,-4.698 1.9035,5.3865 c 0.6075,1.7415 1.539,3.6855 3.483,3.6855 2.7945,0 4.941,-4.5765 5.5485,-5.3055 l -0.6885,-0.486 c -1.0125,2.0655 -2.1465,2.754 -2.916,2.754 -2.187,0 -3.2805,-6.48 -4.698,-9.4365 l 2.6325,-4.05 c 0.648,-1.053 1.1745,-1.8225 2.6325,-1.8225 0.81,0 1.053,0.405 2.106,0.405 1.2555,0 1.863,-1.0935 1.863,-1.9845 0,-1.0125 -0.81,-1.5795 -2.349,-1.5795 -2.3895,0 -4.0905,2.106 -5.3055,4.0095 z" style="font-style:normal;font-variant:normal;font-weight:normal;font-stretch:normal;letter-spacing:normal;word-spacing:normal;text-anchor:start;fill:#000000;fill-opacity:1;fill-rule:evenodd;stroke:#000000;stroke-width:0;stroke-linecap:butt;stroke-linejoin:miter;stroke-miterlimit:10.43299961;stroke-dasharray:none;stroke-dashoffset:0;stroke-opacity:1" />
  <path id="path5919" d="m 242.6638,19.335387 -0.0405,-0.324 -0.0405,-0.324 -0.0405,-0.2835 -0.0405,-0.2835 -0.0405,-0.2835 -0.0405,-0.2835 -0.0405,-0.243 -0.0405,-0.243 -0.0405,-0.243 -0.0405,-0.2025 -0.0405,-0.243 -0.0405,-0.2025 -0.0405,-0.2025 -0.0405,-0.162 -0.081,-0.2025 -0.0405,-0.2025 -0.0405,-0.162 -0.081,-0.162 -0.0405,-0.162 -0.0405,-0.162 -0.162,-0.324 -0.1215,-0.2835 -0.162,-0.324 -0.162,-0.2835 -0.162,-0.2835 -0.2025,-0.2835 -7.209,1.215 0.081,0.729 c 0.4455,-0.0405 1.215,-0.162 1.7415,-0.162 2.673,0 3.1185,2.8755 3.3615,5.022 l 1.8225,14.984999 c -1.2555,1.944 -3.969,4.9005 -4.779,4.9005 -0.7695,0 -0.6885,-1.4985 -2.754,-1.4985 -0.6075,0 -1.9035,0.5265 -1.9035,1.9845 0,1.134 0.891,2.592 2.673,2.592 3.24,0 6.3585,-4.6575 9.882,-9.072 2.025,-2.511 9.801,-14.012999 9.801,-17.738999 0,-1.863 -1.215,-2.9565 -2.754,-2.9565 -1.377,0 -2.268,0.8505 -2.268,1.9035 0,1.8225 2.511,2.3085 2.511,3.321 0,0.8505 -0.3645,1.8225 -1.3365,3.564 -1.053,1.9845 -2.754,4.8195 -5.67,8.829 z" style="font-style:normal;font-variant:normal;font-weight:normal;font-stretch:normal;letter-spacing:normal;word-spacing:normal;text-anchor:start;fill:#000000;fill-opacity:1;fill-rule:evenodd;stroke:#000000;stroke-width:0;stroke-linecap:butt;stroke-linejoin:miter;stroke-miterlimit:10.43299961;stroke-dasharray:none;stroke-dashoffset:0;stroke-opacity:1" />
</svg>