<?xml version='1.0' ?><svg xmlns:dc="http://purl.org/dc/elements/1.1/" xmlns:cc="http://creativecommons.org/ns#" xmlns:rdf="http://www.w3.org/1999/02/22-rdf-syntax-ns#" xmlns:svg="http://www.w3.org/2000/svg" xmlns="http://www.w3.org/2000/svg" id="svg4658" version="1.1" width="770.66668" height="622.66668" viewBox="0.0 2.13333336 616.533344 498.1333440000001" preserveAspectRatio="none">
  <metadata id="metadata4719">
    <rdf:RDF>
      <cc:Work rdf:about="">
        <dc:format>image/svg+xml</dc:format>
        <dc:type rdf:resource="http://purl.org/dc/dcmitype/StillImage" />
        <dc:title />
      </cc:Work>
    </rdf:RDF>
  </metadata>
  <defs id="defs4717" />
  <g stroke-linejoin="miter" stroke-dashoffset="0.0000" stroke-dasharray="none" stroke-width="1.0000" stroke-miterlimit="10.000" stroke-linecap="square" id="g4662">
    <clipPath id="clip1">
      <path d="M 0.0000 0.0000 L 0.0000 469.00 L 580.00 469.00 L 580.00 0.0000 z" id="path4665" />
    </clipPath>
    <g clip-path="url(#clip1)" id="g4667">
      <g stroke-width="2.0000" stroke-linecap="butt" fill="none" stroke-opacity="1.0000" stroke="#000000" id="g4669">
        <path d="M 270.42 3.0000 L 270.42 469.00" id="path4671" />
      </g>
    </g>
    <clipPath id="clip2">
      <path d="M 0.0000 0.0000 L 0.0000 469.00 L 580.00 469.00 L 580.00 0.0000 z" id="path4674" />
    </clipPath>
    <g clip-path="url(#clip2)" id="g4676">
      <g fill-opacity="1.0000" fill-rule="evenodd" stroke="none" fill="#000000" id="g4678">
        <path d="M 270.42 2.0000 L 265.42 22.000 L 275.42 22.000" id="path4680" />
      </g>
    </g>
    <clipPath id="clip3">
      <path d="M 0.0000 0.0000 L 0.0000 469.00 L 580.00 469.00 L 580.00 0.0000 z" id="path4683" />
    </clipPath>
    <g clip-path="url(#clip3)" id="g4685">
      <g stroke-width="2.0000" stroke-linecap="butt" fill="none" stroke-opacity="1.0000" stroke="#000000" id="g4687">
        <path d="M 0.0000 246.16 L 577.00 246.16" id="path4689" />
      </g>
    </g>
    <clipPath id="clip4">
      <path d="M 0.0000 0.0000 L 0.0000 469.00 L 580.00 469.00 L 580.00 0.0000 z" id="path4692" />
    </clipPath>
    <g clip-path="url(#clip4)" id="g4694">
      <g fill-opacity="1.0000" fill-rule="evenodd" stroke="none" fill="#000000" id="g4696">
        <path d="M 578.00 246.16 L 558.00 241.16 L 558.00 251.16" id="path4698" />
      </g>
    </g>
    <g id="misc" />
    <g id="layer0">
      <clipPath id="clip5">
        <path d="M 0.0000 0.0000 L 0.0000 469.00 L 580.00 469.00 L 580.00 0.0000 z" id="path4703" />
      </clipPath>
      <g clip-path="url(#clip5)" id="g4705">
        <g stroke-linejoin="round" stroke-width="2.5000" stroke-linecap="round" fill="none" stroke-opacity="1.0000" stroke="#000000" id="g4707">
          <path d="M 338.94 246.16 L 338.86 239.43 L 338.61 232.73 L 338.20 226.05 L 337.63 219.42 L 336.89 212.86 L 335.99 206.38 L 334.94 199.99 L 333.73 193.71 L 332.36 187.56 L 330.85 181.56 L 329.19 175.70 L 327.39 170.02 L 325.46 164.52 L 323.39 159.22 L 321.19 154.12 L 318.87 149.25 L 316.44 144.61 L 313.89 140.22 L 311.24 136.08 L 308.49 132.21 L 305.65 128.61 L 302.72 125.30 L 299.72 122.27 L 296.64 119.55 L 293.50 117.12 L 290.31 115.01 L 287.07 113.22 L 283.79 111.75 L 280.47 110.60 L 277.14 109.77 L 273.78 109.28 L 270.42 109.11 L 267.06 109.28 L 263.70 109.77 L 260.37 110.60 L 257.05 111.75 L 253.77 113.22 L 250.53 115.01 L 247.33 117.12 L 244.20 119.55 L 241.12 122.27 L 238.12 125.30 L 235.19 128.61 L 232.35 132.21 L 229.60 136.08 L 226.95 140.22 L 224.40 144.61 L 221.97 149.25 L 219.65 154.12 L 217.45 159.22 L 215.38 164.52 L 213.45 170.02 L 211.65 175.70 L 209.99 181.56 L 208.48 187.56 L 207.11 193.71 L 205.90 199.99 L 204.85 206.38 L 203.95 212.86 L 203.21 219.42 L 202.64 226.05 L 202.23 232.73 L 201.98 239.43 L 201.90 246.16 L 201.98 252.88 L 202.23 259.59 L 202.64 266.27 L 203.21 272.89 L 203.95 279.46 L 204.85 285.94 L 205.90 292.33 L 207.11 298.60 L 208.48 304.75 L 209.99 310.76 L 211.65 316.61 L 213.45 322.30 L 215.38 327.80 L 217.45 333.10 L 219.65 338.19 L 221.97 343.06 L 224.40 347.70 L 226.95 352.10 L 229.60 356.23 L 232.35 360.11 L 235.19 363.71 L 238.12 367.02 L 241.12 370.05 L 244.20 372.77 L 247.33 375.19 L 250.53 377.30 L 253.77 379.10 L 257.05 380.57 L 260.37 381.72 L 263.70 382.54 L 267.06 383.04 L 270.42 383.20 L 273.78 383.04 L 277.14 382.54 L 280.47 381.72 L 283.79 380.57 L 287.07 379.10 L 290.31 377.30 L 293.50 375.19 L 296.64 372.77 L 299.72 370.05 L 302.72 367.02 L 305.65 363.71 L 308.49 360.11 L 311.24 356.23 L 313.89 352.10 L 316.44 347.70 L 318.87 343.06 L 321.19 338.19 L 323.39 333.10 L 325.46 327.80 L 327.39 322.30 L 329.19 316.61 L 330.85 310.76 L 332.36 304.75 L 333.73 298.60 L 334.94 292.33 L 335.99 285.94 L 336.89 279.46 L 337.63 272.89 L 338.20 266.27 L 338.61 259.59 L 338.86 252.88 L 338.94 246.16" id="path4709" />
          <title id="title4711">Curve a</title>
          <desc id="desc4713">Curve a: Curve[cos(t), 2sin(t), t, 0, 2Ã&#131;Â&#143;Ã&#130;Â&#128;]</desc>
        </g>
      </g>
    </g>
  </g>
  <path id="path5297" d="m 558.58694,263.45577 -0.9315,-2.592 c -0.6075,-1.5795 -1.4985,-3.564 -3.6045,-4.698 l -6.318,1.5795 0.1215,0.8505 c 0.486,-0.2025 1.215,-0.2835 1.8225,-0.2835 2.6325,0 3.888,1.944 4.698,4.2525 l 1.5795,4.4145 -3.1185,4.8195 c -1.539,2.349 -2.754,2.835 -3.3615,2.835 -1.1745,0 -1.0125,-0.972 -2.2275,-0.972 -1.215,0 -1.8225,1.0125 -1.8225,1.782 0,1.053 0.7695,2.2275 2.4705,2.2275 2.7135,0 4.0905,-2.0655 5.6295,-4.374 l 3.0375,-4.698 1.9035,5.3865 c 0.6075,1.7415 1.539,3.6855 3.483,3.6855 2.7945,0 4.941,-4.5765 5.5485,-5.3055 l -0.6885,-0.486 c -1.0125,2.0655 -2.1465,2.754 -2.916,2.754 -2.187,0 -3.2805,-6.48 -4.698,-9.4365 l 2.6325,-4.05 c 0.648,-1.053 1.1745,-1.8225 2.6325,-1.8225 0.81,0 1.053,0.405 2.106,0.405 1.2555,0 1.863,-1.0935 1.863,-1.9845 0,-1.0125 -0.81,-1.5795 -2.349,-1.5795 -2.3895,0 -4.0905,2.106 -5.3055,4.0095 z" style="font-style:normal;font-variant:normal;font-weight:normal;font-stretch:normal;letter-spacing:normal;word-spacing:normal;text-anchor:start;fill:#000000;fill-opacity:1;fill-rule:evenodd;stroke:#000000;stroke-width:0;stroke-linecap:butt;stroke-linejoin:miter;stroke-miterlimit:10.43299961;stroke-dasharray:none;stroke-dashoffset:0;stroke-opacity:1" />
  <path id="path5299" d="m 250.61295,15.36081 -0.0405,-0.324 -0.0405,-0.324 -0.0405,-0.2835 -0.0405,-0.2835 -0.0405,-0.2835 -0.0405,-0.2835 -0.0405,-0.243 -0.0405,-0.243 -0.0405,-0.243 -0.0405,-0.2025 -0.0405,-0.243 -0.0405,-0.2025 -0.0405,-0.2025 -0.0405,-0.162 -0.081,-0.2025 -0.0405,-0.2025 -0.0405,-0.162 -0.081,-0.162 -0.0405,-0.162 -0.0405,-0.162 -0.162,-0.324 -0.1215,-0.2835 -0.162,-0.3239998 -0.162,-0.2835 -0.162,-0.2835 -0.2025,-0.2835 -7.209,1.2149998 0.081,0.729 c 0.4455,-0.0405 1.215,-0.162 1.7415,-0.162 2.673,0 3.1185,2.8755 3.3615,5.022 l 1.8225,14.985 c -1.2555,1.944 -3.969,4.9005 -4.779,4.9005 -0.7695,0 -0.6885,-1.4985 -2.754,-1.4985 -0.6075,0 -1.9035,0.5265 -1.9035,1.9845 0,1.134 0.891,2.592 2.673,2.592 3.24,0 6.3585,-4.6575 9.882,-9.072 2.025,-2.511 9.801,-14.013 9.801,-17.739 0,-1.863 -1.215,-2.9564998 -2.754,-2.9564998 -1.377,0 -2.268,0.8505 -2.268,1.9034998 0,1.8225 2.511,2.3085 2.511,3.321 0,0.8505 -0.3645,1.822501 -1.3365,3.564001 -1.053,1.9845 -2.754,4.8195 -5.67,8.829 z" style="font-style:normal;font-variant:normal;font-weight:normal;font-stretch:normal;letter-spacing:normal;word-spacing:normal;text-anchor:start;fill:#000000;fill-opacity:1;fill-rule:evenodd;stroke:#000000;stroke-width:0;stroke-linecap:butt;stroke-linejoin:miter;stroke-miterlimit:10.43299961;stroke-dasharray:none;stroke-dashoffset:0;stroke-opacity:1" />
</svg>