<?xml version='1.0' ?><svg xmlns:ns0="http://www.iki.fi/pav/software/textext/" xmlns:dc="http://purl.org/dc/elements/1.1/" xmlns:cc="http://creativecommons.org/ns#" xmlns:rdf="http://www.w3.org/1999/02/22-rdf-syntax-ns#" xmlns:svg="http://www.w3.org/2000/svg" xmlns="http://www.w3.org/2000/svg" version="1.1" id="svg2" width="1088.8" height="769.52384" viewBox="21.333337904227438 4.367445380393062 1088.799995112009 769.5238365453474" preserveAspectRatio="none">
  <defs id="defs4" />
  <metadata id="metadata7">
    <rdf:RDF>
      <cc:Work rdf:about="">
        <dc:format>image/svg+xml</dc:format>
        <dc:type rdf:resource="http://purl.org/dc/dcmitype/StillImage" />
        <dc:title />
      </cc:Work>
    </rdf:RDF>
  </metadata>
  <g transform="translate(0,-308.26772)" id="layer1">
    <g id="g11586">
      <path style="fill:none;fill-rule:evenodd;stroke:#000000;stroke-width:1.5;stroke-linecap:butt;stroke-linejoin:miter;stroke-miterlimit:4;stroke-dasharray:none;stroke-opacity:1" d="m 20.000004,832.3622 1019.955496,0" id="path4142" />
      <path style="fill:none;fill-rule:evenodd;stroke:#000000;stroke-width:1.5;stroke-linecap:butt;stroke-linejoin:miter;stroke-miterlimit:4;stroke-dasharray:none;stroke-opacity:1" d="m 20.000004,1032.3622 1019.955496,0" id="path4144" />
      <path style="fill:#000000;fill-opacity:1;fill-rule:evenodd;stroke:#000000;stroke-width:1.5;stroke-linecap:butt;stroke-linejoin:miter;stroke-miterlimit:4;stroke-dasharray:none;stroke-opacity:1" d="m 20.758898,433.07648 1019.955502,0" id="path4138" />
      <path style="fill:#000000;fill-opacity:1;fill-rule:evenodd;stroke:#000000;stroke-width:1.5;stroke-linecap:butt;stroke-linejoin:miter;stroke-miterlimit:4;stroke-dasharray:none;stroke-opacity:1" d="m 20.000004,632.3622 1019.196496,0" id="path4140" />
      <path style="fill:none;fill-rule:evenodd;stroke:#000000;stroke-width:1.5;stroke-linecap:butt;stroke-linejoin:round;stroke-miterlimit:4;stroke-dasharray:none;stroke-opacity:1" d="m 1039.9555,313.79077 -838.80307,0" id="path4152" />
    </g>
    <g id="g11593">
      <path style="fill:#000000;fill-opacity:1;fill-rule:evenodd;stroke:#000000;stroke-width:1.5;stroke-linecap:butt;stroke-linejoin:miter;stroke-miterlimit:4;stroke-dasharray:none;stroke-opacity:1" d="m 1040,1033.7908 0,-719.28574" id="path4146" />
      <path style="fill:#000000;fill-opacity:1;fill-rule:evenodd;stroke:#000000;stroke-width:1.5;stroke-linecap:butt;stroke-linejoin:miter;stroke-miterlimit:4;stroke-dasharray:none;stroke-opacity:1" d="m 21.428572,432.3622 0,600 z" id="path4148" />
      <path style="fill:#000000;fill-opacity:1;fill-rule:evenodd;stroke:#000000;stroke-width:1.5;stroke-linecap:butt;stroke-linejoin:round;stroke-miterlimit:4;stroke-dasharray:none;stroke-opacity:1" d="m 201.42857,1032.3622 0,-717.85714" id="path4150" />
      <path style="fill:#000000;fill-opacity:1;fill-rule:evenodd;stroke:#000000;stroke-width:1.5;stroke-linecap:butt;stroke-linejoin:miter;stroke-miterlimit:4;stroke-dasharray:none;stroke-opacity:1" d="m 478.57143,313.07649 0,719.28571" id="path4154" />
      <path style="fill:#000000;fill-opacity:1;fill-rule:evenodd;stroke:#000000;stroke-width:1.5;stroke-linecap:butt;stroke-linejoin:miter;stroke-miterlimit:4;stroke-dasharray:none;stroke-opacity:1" d="m 761.42857,312.3622 0,718.5714" id="path4156" />
    </g>
    <g id="g10477" transform="matrix(0.9,0,0,0.9,260.71136,-3.3837141)">
      <path id="path10417" d="m 45.43501,398.46 -0.69,-1.92 c -0.45,-1.17 -1.11,-2.64 -2.67,-3.48 l -4.68,1.17 0.09,0.63 c 0.36,-0.15 0.9,-0.21 1.35,-0.21 1.95,0 2.88,1.44 3.48,3.15 l 1.17,3.27 -2.31,3.57 c -1.14,1.74 -2.04,2.1 -2.49,2.1 -0.87,0 -0.75,-0.72 -1.65,-0.72 -0.9,0 -1.35,0.75 -1.35,1.32 0,0.78 0.57,1.65 1.83,1.65 2.01,0 3.03,-1.53 4.17,-3.24 l 2.25,-3.48 1.41,3.99 c 0.45,1.29 1.14,2.73 2.58,2.73 2.07,0 3.66,-3.39 4.11,-3.93 l -0.51,-0.36 c -0.75,1.53 -1.59,2.04 -2.16,2.04 -1.62,0 -2.43,-4.8 -3.48,-6.99 l 1.95,-3 c 0.48,-0.78 0.87,-1.35 1.95,-1.35 0.6,0 0.78,0.3 1.56,0.3 0.93,0 1.38,-0.81 1.38,-1.47 0,-0.75 -0.6,-1.17 -1.74,-1.17 -1.77,0 -3.03,1.56 -3.93,2.97 z" style="font-style:normal;font-variant:normal;font-weight:normal;font-stretch:normal;letter-spacing:normal;word-spacing:normal;text-anchor:start;fill:#000000;fill-opacity:1;fill-rule:evenodd;stroke:#000000;stroke-width:0;stroke-linecap:butt;stroke-linejoin:miter;stroke-miterlimit:10.43299961;stroke-dasharray:none;stroke-dashoffset:0;stroke-opacity:1" />
      <polygon transform="matrix(3,0,0,-3,-635.68499,1840.38)" id="polygon10419" points="240.25,481.01 240.25,481.79 233.28,481.79 233.28,481.01 " style="font-style:normal;font-variant:normal;font-weight:normal;font-stretch:normal;letter-spacing:normal;word-spacing:normal;text-anchor:start;fill:#000000;fill-opacity:1;fill-rule:evenodd;stroke:#000000;stroke-width:0;stroke-linecap:butt;stroke-linejoin:miter;stroke-miterlimit:10.43299961;stroke-dasharray:none;stroke-dashoffset:0;stroke-opacity:1" />
      <polygon transform="matrix(3,0,0,-3,-635.68499,1840.38)" id="polygon10421" points="240.25,478.65 240.25,479.43 233.28,479.43 233.28,478.65 " style="font-style:normal;font-variant:normal;font-weight:normal;font-stretch:normal;letter-spacing:normal;word-spacing:normal;text-anchor:start;fill:#000000;fill-opacity:1;fill-rule:evenodd;stroke:#000000;stroke-width:0;stroke-linecap:butt;stroke-linejoin:miter;stroke-miterlimit:10.43299961;stroke-dasharray:none;stroke-dashoffset:0;stroke-opacity:1" />
      <path id="path10423" d="m 109.24501,403.14 -0.15,0.24 -0.15,0.21 -0.18,0.21 -0.15,0.21 -0.15,0.18 -0.15,0.18 -0.15,0.18 -0.12,0.18 -0.15,0.15 -0.15,0.15 -0.15,0.12 -0.15,0.15 -0.15,0.12 -0.15,0.12 -0.12,0.09 -0.15,0.12 -0.15,0.09 -0.15,0.09 -0.15,0.09 -0.15,0.06 -0.18,0.06 -0.15,0.06 -0.15,0.06 -0.15,0.06 -0.18,0.03 -0.15,0.03 -0.18,0.03 -0.18,0.03 -0.18,0.03 -0.18,0 -0.18,0 -0.18,0 c -3.27,0 -5.52,-2.82 -5.52,-6.9 0,-3.69 1.98,-6.15 4.86,-6.15 1.26,0 1.74,0.39 2.1,1.68 l 0.21,0.78 c 0.27,1.05 0.9,1.65 1.71,1.65 0.9,0 1.65,-0.69 1.65,-1.5 0,-1.98 -2.49,-3.66 -5.46,-3.66 -1.68,0 -3.39,0.66 -4.8,1.83 -1.92,1.59 -3,4.02 -3,6.96 0,4.59 2.82,7.86 6.75,7.86 1.53,0 2.88,-0.48 4.11,-1.47 1.05,-0.87 1.77,-1.89 2.91,-4.08 z" style="font-style:normal;font-variant:normal;font-weight:normal;font-stretch:normal;letter-spacing:normal;word-spacing:normal;text-anchor:start;fill:#000000;fill-opacity:1;fill-rule:evenodd;stroke:#000000;stroke-width:0;stroke-linecap:butt;stroke-linejoin:miter;stroke-miterlimit:10.43299961;stroke-dasharray:none;stroke-dashoffset:0;stroke-opacity:1" />
      <path id="path10425" d="m 127.57501,400.5 0,-0.45 -0.03,-0.45 -0.03,-0.45 -0.09,-0.42 -0.06,-0.39 -0.12,-0.42 -0.12,-0.39 -0.12,-0.36 -0.15,-0.36 -0.18,-0.36 -0.18,-0.33 -0.18,-0.33 -0.21,-0.33 -0.24,-0.3 -0.24,-0.27 -0.24,-0.27 -0.27,-0.27 -0.27,-0.24 -0.3,-0.24 -0.3,-0.21 -0.3,-0.21 -0.33,-0.18 -0.33,-0.15 -0.33,-0.15 -0.36,-0.15 -0.36,-0.12 -0.36,-0.09 -0.39,-0.09 -0.39,-0.06 -0.39,-0.03 -0.39,-0.03 -0.39,-0.03 c -4.8,0 -8.01,3.3 -8.01,8.22 0,4.92 3.39,8.43 7.68,8.43 l 0.6,-0.99 c -1.26,0 -2.4,-0.63 -3.18,-1.77 -1.32,-1.89 -1.89,-4.44 -1.89,-7.26 0,-3.54 1.65,-5.61 4.11,-5.61 1.53,0 2.52,0.69 3.39,1.77 1.14,1.44 1.77,3.87 1.77,6.3 l 0,0 c 0,4.11 -1.56,6.57 -4.2,6.57 l -0.6,0.99 c 4.8,0 7.98,-3.6 7.98,-8.52 z" style="font-style:normal;font-variant:normal;font-weight:normal;font-stretch:normal;letter-spacing:normal;word-spacing:normal;text-anchor:start;fill:#000000;fill-opacity:1;fill-rule:evenodd;stroke:#000000;stroke-width:0;stroke-linecap:butt;stroke-linejoin:miter;stroke-miterlimit:10.43299961;stroke-dasharray:none;stroke-dashoffset:0;stroke-opacity:1" />
      <path id="path10427" d="m 134.20501,398.01 -0.09,-0.06 -0.09,-0.06 -0.09,-0.06 -0.09,-0.06 -0.06,-0.06 -0.09,-0.09 -0.09,-0.06 -0.06,-0.06 -0.06,-0.09 -0.09,-0.06 -0.06,-0.09 -0.06,-0.06 -0.06,-0.09 -0.06,-0.06 -0.03,-0.09 -0.06,-0.09 -0.06,-0.06 -0.03,-0.09 -0.03,-0.09 -0.06,-0.09 -0.03,-0.06 -0.03,-0.09 -0.03,-0.09 -0.03,-0.06 0,-0.09 -0.03,-0.09 -0.03,-0.06 0,-0.09 -0.03,-0.09 0,-0.06 0,-0.09 0,-0.06 c 0,-1.68 1.14,-2.4 2.67,-2.4 2.13,0 3.18,1.14 4.02,4.35 l 0.51,0 -0.18,-4.83 -0.39,0 c -0.27,0.33 -0.42,0.36 -0.57,0.36 -0.24,0 -0.6,-0.09 -0.99,-0.27 -0.72,-0.36 -1.53,-0.39 -2.37,-0.39 -2.91,0 -4.89,1.56 -4.89,4.35 0,1.8 1.29,3.51 4.26,5.13 l 1.92,1.05 c 1.17,0.66 1.86,1.56 1.86,2.67 0,1.44 -1.11,2.61 -2.94,2.61 -2.46,0 -3.75,-1.56 -4.5,-4.98 l -0.57,0 0,5.55 0.45,0 c 0.21,-0.36 0.42,-0.42 0.87,-0.42 0.39,0 0.78,0.03 1.62,0.33 0.81,0.27 1.86,0.3 2.58,0.3 2.7,0 4.98,-2.04 4.98,-4.41 0,-2.04 -0.84,-2.97 -3.12,-4.38 z" style="font-style:normal;font-variant:normal;font-weight:normal;font-stretch:normal;letter-spacing:normal;word-spacing:normal;text-anchor:start;fill:#000000;fill-opacity:1;fill-rule:evenodd;stroke:#000000;stroke-width:0;stroke-linecap:butt;stroke-linejoin:miter;stroke-miterlimit:10.43299961;stroke-dasharray:none;stroke-dashoffset:0;stroke-opacity:1" />
      <path id="path10429" d="m 157.51501,393.15 -2.49,0 1.11,-4.56 -0.45,0 c -1.47,3.09 -3.63,4.41 -6.3,4.89 l -0.18,1.02 2.73,0 -2.88,11.34 c -0.09,0.39 -0.18,0.84 -0.18,1.32 0,0.96 0.3,1.83 1.38,1.83 2.1,0 3.9,-2.7 4.74,-3.78 l -0.45,-0.39 c -1.32,1.77 -2.13,1.83 -2.13,1.83 -0.48,0 -0.57,-0.21 -0.57,-0.42 0,-0.09 0.03,-0.27 0.06,-0.39 l 2.76,-11.34 2.49,0 z" style="font-style:normal;font-variant:normal;font-weight:normal;font-stretch:normal;letter-spacing:normal;word-spacing:normal;text-anchor:start;fill:#000000;fill-opacity:1;fill-rule:evenodd;stroke:#000000;stroke-width:0;stroke-linecap:butt;stroke-linejoin:miter;stroke-miterlimit:10.43299961;stroke-dasharray:none;stroke-dashoffset:0;stroke-opacity:1" />
    </g>
    <g id="g10472" transform="matrix(0.9,0,0,0.9,149.63164,40.962)">
      <path id="path10431" d="m 176.38501,393.15 -2.49,0 1.11,-4.56 -0.45,0 c -1.47,3.09 -3.63,4.41 -6.3,4.89 l -0.18,1.02 2.73,0 -2.88,11.34 c -0.09,0.39 -0.18,0.84 -0.18,1.32 0,0.96 0.3,1.83 1.41,1.83 2.1,0 3.87,-2.7 4.71,-3.78 l -0.45,-0.39 c -1.32,1.77 -2.13,1.83 -2.13,1.83 -0.48,0 -0.57,-0.21 -0.57,-0.42 0,-0.09 0.03,-0.27 0.06,-0.39 l 2.76,-11.34 2.49,0 z" style="font-style:normal;font-variant:normal;font-weight:normal;font-stretch:normal;letter-spacing:normal;word-spacing:normal;text-anchor:start;fill:#000000;fill-opacity:1;fill-rule:evenodd;stroke:#000000;stroke-width:0;stroke-linecap:butt;stroke-linejoin:miter;stroke-miterlimit:10.43299961;stroke-dasharray:none;stroke-dashoffset:0;stroke-opacity:1" />
      <path id="path10433" d="m 207.97501,409.62 0,-2.34 -10.32,0 c -3.66,0 -6.72,-3 -7.32,-6.36 l 17.64,0 0,-2.34 -17.61,0 c 0.6,-3.36 3.66,-6.39 7.32,-6.39 l 10.29,0 0,-2.31 -10.44,0 c -5.64,0 -9.63,4.62 -9.63,9.87 0,5.25 4.05,9.87 9.75,9.87 z" style="font-style:normal;font-variant:normal;font-weight:normal;font-stretch:normal;letter-spacing:normal;word-spacing:normal;text-anchor:start;fill:#000000;fill-opacity:1;fill-rule:evenodd;stroke:#000000;stroke-width:0;stroke-linecap:butt;stroke-linejoin:miter;stroke-miterlimit:10.43299961;stroke-dasharray:none;stroke-dashoffset:0;stroke-opacity:1" />
      <path id="path10435" d="m 243.70501,408.69 -7.65,-10.11 -0.21,-1.26 0,-10.05 c 2.13,0.96 3.3,2.55 3.3,4.98 0,2.19 -1.23,4.2 -3.3,5.07 l 0.21,1.26 c 3.03,-0.93 4.68,-3.3 4.68,-6.42 0,-5.04 -3.93,-6.93 -8.46,-6.93 l -11.37,0 0,23.46 5.88,0 0,-9.6 0,-1.56 0,-10.74 -1.56,0 0,20.34 -2.76,0 0,-20.34 2.76,0 1.56,0 5.73,0 c 0.54,0 1.26,0.21 1.77,0.27 l 0,10.29 0.15,1.59 6.21,8.19 -3.48,0 -5.85,-8.04 c 1.02,0 2.1,0.03 3.12,-0.15 l -0.15,-1.59 c -0.63,0.06 -1.32,0.18 -1.95,0.18 l -5.55,0 0,1.56 2.64,0 6.93,9.6 z" style="font-style:normal;font-variant:normal;font-weight:normal;font-stretch:normal;letter-spacing:normal;word-spacing:normal;text-anchor:start;fill:#000000;fill-opacity:1;fill-rule:evenodd;stroke:#000000;stroke-width:0;stroke-linecap:butt;stroke-linejoin:miter;stroke-miterlimit:10.43299961;stroke-dasharray:none;stroke-dashoffset:0;stroke-opacity:1" />
    </g>
    <g transform="matrix(0.9,0,0,0.9,81.425643,28.613281)" id="g10574">
      <path style="font-style:normal;font-variant:normal;font-weight:normal;font-stretch:normal;letter-spacing:normal;word-spacing:normal;text-anchor:start;fill:#000000;fill-opacity:1;fill-rule:evenodd;stroke:#000000;stroke-width:0;stroke-linecap:butt;stroke-linejoin:miter;stroke-miterlimit:10.43299961;stroke-dasharray:none;stroke-dashoffset:0;stroke-opacity:1" d="m 564.00644,361.3171 -0.69,-1.92 c -0.45,-1.17 -1.11,-2.64 -2.67,-3.48 l -4.68,1.17 0.09,0.63 c 0.36,-0.15 0.9,-0.21 1.35,-0.21 1.95,0 2.88,1.44 3.48,3.15 l 1.17,3.27 -2.31,3.57 c -1.14,1.74 -2.04,2.1 -2.49,2.1 -0.87,0 -0.75,-0.72 -1.65,-0.72 -0.9,0 -1.35,0.75 -1.35,1.32 0,0.78 0.57,1.65 1.83,1.65 2.01,0 3.03,-1.53 4.17,-3.24 l 2.25,-3.48 1.41,3.99 c 0.45,1.29 1.14,2.73 2.58,2.73 2.07,0 3.66,-3.39 4.11,-3.93 l -0.51,-0.36 c -0.75,1.53 -1.59,2.04 -2.16,2.04 -1.62,0 -2.43,-4.8 -3.48,-6.99 l 1.95,-3 c 0.48,-0.78 0.87,-1.35 1.95,-1.35 0.6,0 0.78,0.3 1.56,0.3 0.93,0 1.38,-0.81 1.38,-1.47 0,-0.75 -0.6,-1.17 -1.74,-1.17 -1.77,0 -3.03,1.56 -3.93,2.97 z" id="path10515" />
      <polygon style="font-style:normal;font-variant:normal;font-weight:normal;font-stretch:normal;letter-spacing:normal;word-spacing:normal;text-anchor:start;fill:#000000;fill-opacity:1;fill-rule:evenodd;stroke:#000000;stroke-width:0;stroke-linecap:butt;stroke-linejoin:miter;stroke-miterlimit:10.43299961;stroke-dasharray:none;stroke-dashoffset:0;stroke-opacity:1" points="233.28,481.79 233.28,481.01 240.25,481.01 240.25,481.79 " id="polygon10517" transform="matrix(3,0,0,-3,-117.11356,1803.2371)" />
      <polygon style="font-style:normal;font-variant:normal;font-weight:normal;font-stretch:normal;letter-spacing:normal;word-spacing:normal;text-anchor:start;fill:#000000;fill-opacity:1;fill-rule:evenodd;stroke:#000000;stroke-width:0;stroke-linecap:butt;stroke-linejoin:miter;stroke-miterlimit:10.43299961;stroke-dasharray:none;stroke-dashoffset:0;stroke-opacity:1" points="233.28,479.43 233.28,478.65 240.25,478.65 240.25,479.43 " id="polygon10519" transform="matrix(3,0,0,-3,-117.11356,1803.2371)" />
      <path style="font-style:normal;font-variant:normal;font-weight:normal;font-stretch:normal;letter-spacing:normal;word-spacing:normal;text-anchor:start;fill:#000000;fill-opacity:1;fill-rule:evenodd;stroke:#000000;stroke-width:0;stroke-linecap:butt;stroke-linejoin:miter;stroke-miterlimit:10.43299961;stroke-dasharray:none;stroke-dashoffset:0;stroke-opacity:1" d="m 630.51644,366.6871 -0.48,-0.21 c -1.2,1.98 -1.92,2.37 -3.42,2.37 l -8.31,0 5.85,-6.24 c 3.18,-3.33 4.56,-5.97 4.56,-8.79 0,-3.51 -2.55,-6.24 -6.57,-6.24 -4.38,0 -6.66,2.91 -7.41,7.05 l 0.75,0.18 c 1.44,-3.45 2.67,-4.59 5.22,-4.59 3.03,0 4.95,1.77 4.95,4.98 0,3.03 -1.29,5.7 -4.62,9.21 l -6.33,6.69 0,0.45 13.89,0 z" id="path10521" />
      <path style="font-style:normal;font-variant:normal;font-weight:normal;font-stretch:normal;letter-spacing:normal;word-spacing:normal;text-anchor:start;fill:#000000;fill-opacity:1;fill-rule:evenodd;stroke:#000000;stroke-width:0;stroke-linecap:butt;stroke-linejoin:miter;stroke-miterlimit:10.43299961;stroke-dasharray:none;stroke-dashoffset:0;stroke-opacity:1" d="m 641.49644,356.0071 -2.49,0 1.11,-4.56 -0.45,0 c -1.47,3.09 -3.63,4.41 -6.3,4.89 l -0.18,1.02 2.73,0 -2.88,11.34 c -0.09,0.39 -0.18,0.84 -0.18,1.32 0,0.96 0.3,1.83 1.41,1.83 2.1,0 3.87,-2.7 4.71,-3.78 l -0.45,-0.39 c -1.32,1.77 -2.13,1.83 -2.13,1.83 -0.48,0 -0.57,-0.21 -0.57,-0.42 0,-0.09 0.03,-0.27 0.06,-0.39 l 2.79,-11.34 2.49,0 z" id="path10523" />
    </g>
    <g transform="matrix(0.9,0,0,0.9,1.1756435,74.390567)" id="g10581">
      <path style="font-style:normal;font-variant:normal;font-weight:normal;font-stretch:normal;letter-spacing:normal;word-spacing:normal;text-anchor:start;fill:#000000;fill-opacity:1;fill-rule:evenodd;stroke:#000000;stroke-width:0;stroke-linecap:butt;stroke-linejoin:miter;stroke-miterlimit:10.43299961;stroke-dasharray:none;stroke-dashoffset:0;stroke-opacity:1" d="m 660.36644,356.0071 -2.49,0 1.11,-4.56 -0.45,0 c -1.47,3.09 -3.63,4.41 -6.3,4.89 l -0.18,1.02 2.73,0 -2.85,11.34 c -0.12,0.39 -0.18,0.84 -0.18,1.32 0,0.96 0.27,1.83 1.38,1.83 2.1,0 3.87,-2.7 4.71,-3.78 l -0.45,-0.39 c -1.32,1.77 -2.13,1.83 -2.13,1.83 -0.48,0 -0.57,-0.21 -0.57,-0.42 0,-0.09 0.03,-0.27 0.06,-0.39 l 2.79,-11.34 2.49,0 z" id="path10525" />
      <path style="font-style:normal;font-variant:normal;font-weight:normal;font-stretch:normal;letter-spacing:normal;word-spacing:normal;text-anchor:start;fill:#000000;fill-opacity:1;fill-rule:evenodd;stroke:#000000;stroke-width:0;stroke-linecap:butt;stroke-linejoin:miter;stroke-miterlimit:10.43299961;stroke-dasharray:none;stroke-dashoffset:0;stroke-opacity:1" d="m 691.98644,372.4771 0,-2.34 -10.35,0 c -3.66,0 -6.72,-3 -7.32,-6.36 l 17.67,0 0,-2.34 -17.64,0 c 0.6,-3.36 3.66,-6.39 7.32,-6.39 l 10.32,0 0,-2.31 -10.47,0 c -5.64,0 -9.63,4.62 -9.63,9.87 0,5.25 4.05,9.87 9.75,9.87 z" id="path10527" />
      <path style="font-style:normal;font-variant:normal;font-weight:normal;font-stretch:normal;letter-spacing:normal;word-spacing:normal;text-anchor:start;fill:#000000;fill-opacity:1;fill-rule:evenodd;stroke:#000000;stroke-width:0;stroke-linecap:butt;stroke-linejoin:miter;stroke-miterlimit:10.43299961;stroke-dasharray:none;stroke-dashoffset:0;stroke-opacity:1" d="m 727.68644,371.5471 -7.62,-10.11 -0.24,-1.26 0,-10.05 c 2.16,0.96 3.33,2.55 3.33,4.98 0,2.19 -1.26,4.2 -3.33,5.07 l 0.24,1.26 c 3,-0.93 4.65,-3.3 4.65,-6.42 0,-5.04 -3.93,-6.93 -8.46,-6.93 l -11.37,0 0,23.46 5.88,0 0,-9.6 0,-1.56 0,-10.74 -1.56,0 0,20.34 -2.76,0 0,-20.34 2.76,0 1.56,0 5.73,0 c 0.54,0 1.26,0.21 1.77,0.27 l 0,10.29 0.15,1.59 6.21,8.19 -3.48,0 -5.85,-8.04 c 1.02,0 2.1,0.03 3.12,-0.15 l -0.15,-1.59 c -0.63,0.06 -1.29,0.18 -1.95,0.18 l -5.55,0 0,1.56 2.64,0 6.93,9.6 z" id="path10529" />
    </g>
    <g ns0:preamble="/Users/Lizzie/Documents/Old mac/CMEP folder/underground-inkscape-preamble.tex" ns0:text="$x=\\tan t$" word-spacing="normal" letter-spacing="normal" font-size-adjust="none" font-stretch="normal" font-weight="normal" font-variant="normal" font-style="normal" stroke-miterlimit="10.433" xml:space="preserve" transform="matrix(2.7,0,0,-2.7,251.45201,1631.8297)" id="content" style="font-style:normal;font-variant:normal;font-weight:normal;font-stretch:normal;letter-spacing:normal;word-spacing:normal;text-anchor:start;fill:none;fill-opacity:1;fill-rule:evenodd;stroke:#000000;stroke-linecap:butt;stroke-linejoin:miter;stroke-miterlimit:10.43299961;stroke-dasharray:none;stroke-dashoffset:0;stroke-opacity:1"><path id="path10647" d="m 227.04,480.64 -0.23,0.64 c -0.15,0.39 -0.37,0.88 -0.89,1.16 l -1.56,-0.39 0.03,-0.21 c 0.12,0.05 0.3,0.07 0.45,0.07 0.65,0 0.96,-0.48 1.16,-1.05 l 0.39,-1.09 -0.77,-1.19 c -0.38,-0.58 -0.68,-0.7 -0.83,-0.7 -0.29,0 -0.25,0.24 -0.55,0.24 -0.3,0 -0.45,-0.25 -0.45,-0.44 0,-0.26 0.19,-0.55 0.61,-0.55 0.67,0 1.01,0.51 1.39,1.08 l 0.75,1.16 0.47,-1.33 c 0.15,-0.43 0.38,-0.91 0.86,-0.91 0.69,0 1.22,1.13 1.37,1.31 l -0.17,0.12 c -0.25,-0.51 -0.53,-0.68 -0.72,-0.68 -0.54,0 -0.81,1.6 -1.16,2.33 l 0.65,1 c 0.16,0.26 0.29,0.45 0.65,0.45 0.2,0 0.26,-0.1 0.52,-0.1 0.31,0 0.46,0.27 0.46,0.49 0,0.25 -0.2,0.39 -0.58,0.39 -0.59,0 -1.01,-0.52 -1.31,-0.99 z" style="fill:#000000;stroke-width:0" /><polygon id="polygon10649" points="240.25,481.01 240.25,481.79 233.28,481.79 233.28,481.01 " style="fill:#000000;stroke-width:0" /><polygon id="polygon10651" points="240.25,478.65 240.25,479.43 233.28,479.43 233.28,478.65 " style="fill:#000000;stroke-width:0" /><path id="path10653" d="m 246.75,478.14 -0.03,-0.02 -0.02,-0.03 -0.02,-0.03 -0.03,-0.02 -0.02,-0.03 -0.02,-0.02 -0.02,-0.02 -0.03,-0.02 -0.02,-0.02 -0.02,-0.02 -0.02,-0.02 -0.02,-0.01 -0.02,-0.02 -0.03,-0.01 -0.02,-0.02 -0.02,-0.01 -0.02,-0.01 -0.02,-0.01 -0.02,-0.01 -0.02,-0.01 -0.02,-0.01 -0.03,-0.01 -0.02,0 -0.02,-0.01 -0.02,0 -0.02,-0.01 -0.03,0 -0.02,0 -0.02,-0.01 -0.02,0 -0.03,0 -0.02,0 c -0.44,0 -0.62,0.31 -0.62,1.06 l 0,3.38 1.2,0 0,0.38 -1.2,0 0,1.37 c 0,0.12 -0.02,0.15 -0.08,0.15 -0.07,-0.12 -0.17,-0.22 -0.24,-0.33 -0.45,-0.65 -0.84,-1.09 -1.15,-1.26 -0.13,-0.09 -0.2,-0.16 -0.2,-0.23 0,-0.03 0.01,-0.06 0.05,-0.08 l 0.63,0 0,-3.55 c 0,-1 0.35,-1.5 1.04,-1.5 0.59,0 1.04,0.28 1.43,0.89 z" style="fill:#000000;stroke-width:0" /><path id="path10655" d="m 252.24,478.01 -0.01,-0.01 -0.02,-0.02 -0.02,-0.01 -0.02,-0.01 -0.01,-0.02 -0.02,-0.01 -0.02,-0.01 -0.01,-0.01 -0.02,-0.01 -0.01,-0.01 -0.02,-0.01 -0.02,-0.01 -0.01,-0.01 -0.01,-0.01 -0.02,0 -0.01,-0.01 -0.02,-0.01 -0.01,0 -0.02,-0.01 -0.01,0 -0.02,-0.01 -0.01,0 -0.02,0 -0.01,-0.01 -0.02,0 -0.01,0 -0.02,-0.01 -0.02,0 -0.01,0 -0.02,0 -0.02,0 -0.01,0 c -0.22,0 -0.37,0.24 -0.37,0.78 l 0,2.25 c 0,0.72 -0.05,0.97 -0.33,1.31 -0.29,0.35 -0.74,0.54 -1.4,0.54 -0.53,0 -1.03,-0.15 -1.36,-0.36 -0.42,-0.26 -0.61,-0.64 -0.61,-0.94 0,-0.32 0.26,-0.55 0.51,-0.55 0.31,0 0.55,0.26 0.55,0.49 0,0.25 -0.07,0.28 -0.07,0.49 0,0.32 0.35,0.58 0.83,0.58 0.53,0 0.92,-0.33 0.92,-1.06 l 0,-0.64 0,-0.28 0,-1.67 c 0,-0.34 -0.07,-0.5 -0.42,-0.74 -0.2,-0.13 -0.45,-0.19 -0.68,-0.19 -0.46,0 -0.82,0.28 -0.82,0.91 0,0.37 0.12,0.65 0.4,0.91 0.3,0.27 0.78,0.52 1.52,0.78 l 0,0.28 c -1.34,-0.49 -1.78,-0.72 -2.13,-0.95 -0.46,-0.31 -0.83,-0.77 -0.83,-1.38 0,-0.78 0.51,-1.23 1.24,-1.23 0.51,0 1.09,0.15 1.72,0.86 l 0.01,0 c 0.06,-0.63 0.32,-0.86 0.76,-0.86 0.4,0 0.71,0.11 1.06,0.56 z" style="fill:#000000;stroke-width:0" /><path id="path10657" d="m 258.01,477.23 0,0.18 c -0.58,0.06 -0.72,0.19 -0.72,0.83 l 0,2.61 c 0,1.17 -0.5,1.82 -1.4,1.82 -0.54,0 -1.09,-0.26 -1.7,-0.96 l -0.01,0 0,0.92 -0.1,0.04 c -0.58,-0.22 -0.97,-0.35 -1.62,-0.54 l 0,-0.2 c 0.08,0.04 0.21,0.05 0.34,0.05 0.33,0 0.42,-0.19 0.42,-0.77 l 0,-2.86 c 0,-0.7 -0.13,-0.89 -0.74,-0.94 l 0,-0.18 2.5,0 0,0.18 c -0.6,0.05 -0.77,0.21 -0.77,0.67 l 0,3.26 c 0.55,0.54 0.83,0.68 1.22,0.68 0.58,0 0.87,-0.36 0.87,-1.2 l 0,-2.34 c 0,-0.78 -0.15,-1.02 -0.74,-1.07 l -0.01,-0.18 z" style="fill:#000000;stroke-width:0" /><path id="path10659" d="m 263.2,482.41 -0.82,0 0.36,1.52 -0.15,0 c -0.49,-1.03 -1.21,-1.47 -2.1,-1.63 l -0.06,-0.34 0.92,0 -0.96,-3.78 c -0.04,-0.13 -0.06,-0.28 -0.06,-0.44 0,-0.32 0.09,-0.61 0.46,-0.61 0.7,0 1.29,0.9 1.57,1.26 l -0.15,0.13 c -0.44,-0.59 -0.71,-0.61 -0.71,-0.61 -0.15,0 -0.19,0.07 -0.19,0.14 0,0.03 0.01,0.09 0.02,0.13 l 0.93,3.78 0.83,0 z" style="fill:#000000;stroke-width:0" /></g>    <g style="font-style:normal;font-variant:normal;font-weight:normal;font-stretch:normal;letter-spacing:normal;word-spacing:normal;text-anchor:start;fill:none;fill-opacity:1;fill-rule:evenodd;stroke:#000000;stroke-linecap:butt;stroke-linejoin:miter;stroke-miterlimit:10.43299961;stroke-dasharray:none;stroke-dashoffset:0;stroke-opacity:1" id="g11961" transform="matrix(2.43,0,0,-2.43,231.7637,1574.9422)" xml:space="preserve" stroke-miterlimit="10.433" font-style="normal" font-variant="normal" font-weight="normal" font-stretch="normal" font-size-adjust="none" letter-spacing="normal" word-spacing="normal" ns0:text="$t\\neq \\frac{\\pm \\pi}{2}, \\frac{\\pm 3 \\pi}{2}, \\frac{\\pm 5 \\pi}{2}, \\frac{\\pm 7 \\pi}{2}$" ns0:preamble="/Users/Lizzie/Documents/Old mac/CMEP folder/underground-inkscape-preamble.tex"><path style="fill:#000000;stroke-width:0" d="m 226.78,481.47 -0.82,0 0.36,1.53 -0.15,0 c -0.49,-1.03 -1.21,-1.47 -2.1,-1.63 l -0.06,-0.35 0.91,0 -0.96,-3.77 c -0.03,-0.13 -0.05,-0.29 -0.05,-0.44 0,-0.32 0.09,-0.61 0.46,-0.61 0.7,0 1.29,0.89 1.57,1.26 l -0.15,0.13 c -0.44,-0.59 -0.71,-0.61 -0.71,-0.61 -0.16,0 -0.19,0.07 -0.19,0.14 0,0.03 0.01,0.09 0.02,0.13 l 0.93,3.77 0.82,0 z" id="path11963" /><polygon style="fill:#000000;stroke-width:0" points="235.75,484.12 234.33,480.86 230.47,480.86 230.47,480.08 233.99,480.08 233.29,478.5 230.47,478.5 230.47,477.72 232.95,477.72 231.52,474.46 232.16,474.46 233.59,477.72 237.45,477.72 237.45,478.5 233.93,478.5 234.63,480.08 237.45,480.08 237.45,480.86 234.96,480.86 236.39,484.12 " id="polygon11965" /><polygon style="fill:#000000;stroke-width:0" points="244.73,483.23 244.73,481.38 245.31,481.38 245.31,483.23 247.63,483.23 247.63,483.81 245.31,483.81 245.31,485.53 244.73,485.53 244.73,483.81 242.41,483.81 242.41,483.23 " id="polygon11967" /><polygon style="fill:#000000;stroke-width:0" points="247.63,480.31 247.63,480.9 242.41,480.9 242.41,480.31 " id="polygon11969" /><path style="fill:#000000;stroke-width:0" d="m 253.11,484.88 -2.5,0 c -0.92,0 -1.49,-0.41 -1.88,-1.12 l 0.14,0 c 0.39,0.47 0.72,0.47 1.23,0.47 l -0.78,-1.83 c -0.12,-0.25 -0.28,-0.51 -0.66,-0.62 -0.23,-0.06 -0.28,-0.29 -0.28,-0.42 0,-0.21 0.23,-0.39 0.46,-0.39 0.1,0 0.23,0.02 0.33,0.1 0.75,0.55 1.02,2.08 1.43,3.16 l 0.83,0 c -0.22,-0.74 -0.48,-1.36 -0.69,-1.99 -0.05,-0.17 -0.08,-0.35 -0.08,-0.55 0,-0.35 0.15,-0.67 0.51,-0.67 0.62,0 1.09,0.62 1.27,1.26 l -0.14,0 c -0.21,-0.48 -0.46,-0.58 -0.65,-0.58 -0.19,0 -0.33,0.22 -0.33,0.42 0,0.59 0.47,1.73 0.59,2.11 l 0.99,0 z" id="path11971" /><line style="stroke-width:0.65799999" x1="241.99001" y1="478.79001" x2="253.03" y2="478.79001" id="line11973" /><path style="fill:#000000;stroke-width:0" d="m 249.49,472.73 -0.12,0.06 c -0.3,-0.5 -0.48,-0.6 -0.86,-0.6 l -2.07,0 1.46,1.56 c 0.79,0.84 1.14,1.5 1.14,2.2 0,0.88 -0.64,1.56 -1.64,1.56 -1.09,0 -1.66,-0.72 -1.85,-1.76 l 0.19,-0.05 c 0.36,0.87 0.66,1.16 1.3,1.16 0.76,0 1.23,-0.45 1.23,-1.25 0,-0.76 -0.31,-1.43 -1.15,-2.31 l -1.58,-1.67 0,-0.11 3.47,0 z" id="path11975" /><path style="fill:#000000;stroke-width:0" d="m 255.21,474.64 0.08,0.03 0.07,0.04 0.07,0.05 0.07,0.04 0.07,0.04 0.07,0.05 0.06,0.05 0.06,0.05 0.06,0.05 0.06,0.05 0.06,0.06 0.05,0.05 0.05,0.06 0.05,0.06 0.05,0.06 0.04,0.06 0.04,0.06 0.04,0.06 0.04,0.06 0.03,0.07 0.03,0.06 0.03,0.07 0.03,0.06 0.02,0.07 0.03,0.06 0.01,0.07 0.02,0.07 0.01,0.06 0.01,0.07 0.01,0.07 0.01,0.06 0,0.07 c 0,0.61 -0.42,1.03 -0.95,1.03 -0.43,0 -0.71,-0.28 -0.71,-0.68 0,-0.4 0.25,-0.6 0.69,-0.6 0.13,0 0.24,0.05 0.34,0.05 0.09,0 0.17,-0.07 0.17,-0.16 0,-0.39 -0.34,-0.82 -0.99,-1.26 z" id="path11977" /><polygon style="fill:#000000;stroke-width:0" points="262.78,483.23 262.78,481.38 263.37,481.38 263.37,483.23 265.69,483.23 265.69,483.81 263.37,483.81 263.37,485.53 262.78,485.53 262.78,483.81 260.47,483.81 260.47,483.23 " id="polygon11979" /><polygon style="fill:#000000;stroke-width:0" points="265.69,480.31 265.69,480.9 260.47,480.9 260.47,480.31 " id="polygon11981" /><path style="fill:#000000;stroke-width:0" d="m 266.67,485.61 0.04,0.06 0.03,0.05 0.04,0.06 0.03,0.05 0.04,0.06 0.03,0.05 0.04,0.04 0.04,0.05 0.03,0.04 0.04,0.04 0.04,0.04 0.04,0.04 0.03,0.04 0.04,0.03 0.04,0.03 0.04,0.03 0.04,0.03 0.05,0.02 0.04,0.03 0.04,0.02 0.04,0.02 0.05,0.02 0.04,0.01 0.05,0.02 0.04,0.01 0.05,0.01 0.05,0.01 0.04,0.01 0.05,0.01 0.05,0 0.05,0 0.05,0 c 0.59,0 0.96,-0.3 0.96,-0.9 0,-0.54 -0.28,-0.94 -0.72,-1.19 -0.18,-0.1 -0.4,-0.2 -0.74,-0.32 l 0,-0.12 c 0.5,0 0.71,-0.03 0.9,-0.09 0.61,-0.18 0.92,-0.61 0.92,-1.28 0,-0.76 -0.49,-1.36 -1.15,-1.36 -0.25,0 -0.43,0.04 -0.76,0.27 -0.25,0.18 -0.39,0.23 -0.54,0.23 -0.21,0 -0.37,-0.13 -0.37,-0.32 0,-0.31 0.35,-0.5 1,-0.5 0.79,0 1.63,0.26 2.05,0.82 0.26,0.34 0.41,0.77 0.41,1.24 0,0.47 -0.14,0.87 -0.39,1.15 -0.18,0.19 -0.34,0.3 -0.73,0.47 0.59,0.35 0.82,0.8 0.82,1.22 0,0.73 -0.56,1.22 -1.38,1.22 -0.92,0 -1.48,-0.6 -1.74,-1.44 z" id="path11983" /><path style="fill:#000000;stroke-width:0" d="m 275.61,484.88 -2.5,0 c -0.92,0 -1.49,-0.41 -1.88,-1.12 l 0.14,0 c 0.39,0.47 0.72,0.47 1.24,0.47 l -0.79,-1.83 c -0.12,-0.25 -0.28,-0.51 -0.66,-0.62 -0.23,-0.06 -0.27,-0.29 -0.27,-0.42 0,-0.21 0.22,-0.39 0.45,-0.39 0.1,0 0.24,0.02 0.33,0.1 0.75,0.55 1.02,2.08 1.43,3.16 l 0.83,0 c -0.22,-0.74 -0.48,-1.36 -0.69,-1.99 -0.05,-0.17 -0.08,-0.35 -0.08,-0.55 0,-0.35 0.15,-0.67 0.51,-0.67 0.62,0 1.09,0.62 1.28,1.26 l -0.15,0 c -0.21,-0.48 -0.46,-0.58 -0.64,-0.58 -0.2,0 -0.34,0.22 -0.34,0.42 0,0.59 0.47,1.73 0.59,2.11 l 1,0 z" id="path11985" /><line style="stroke-width:0.65799999" x1="260.04999" y1="478.79001" x2="275.53" y2="478.79001" id="line11987" /><path style="fill:#000000;stroke-width:0" d="m 269.77,472.73 -0.13,0.06 c -0.29,-0.5 -0.47,-0.6 -0.85,-0.6 l -2.07,0 1.46,1.56 c 0.79,0.84 1.14,1.5 1.14,2.2 0,0.88 -0.64,1.56 -1.64,1.56 -1.09,0 -1.66,-0.72 -1.85,-1.76 l 0.19,-0.05 c 0.36,0.87 0.66,1.16 1.3,1.16 0.76,0 1.23,-0.45 1.23,-1.25 0,-0.76 -0.31,-1.43 -1.15,-2.31 l -1.57,-1.67 0,-0.11 3.46,0 z" id="path11989" /><path style="fill:#000000;stroke-width:0" d="m 277.71,474.64 0.08,0.03 0.07,0.04 0.07,0.05 0.07,0.04 0.07,0.04 0.07,0.05 0.06,0.05 0.06,0.05 0.06,0.05 0.06,0.05 0.06,0.06 0.05,0.05 0.05,0.06 0.05,0.06 0.05,0.06 0.04,0.06 0.04,0.06 0.04,0.06 0.04,0.06 0.03,0.07 0.04,0.06 0.03,0.07 0.02,0.06 0.03,0.07 0.02,0.06 0.02,0.07 0.01,0.07 0.02,0.06 0.01,0.07 0,0.07 0.01,0.06 0,0.07 c 0,0.61 -0.42,1.03 -0.95,1.03 -0.42,0 -0.71,-0.28 -0.71,-0.68 0,-0.4 0.25,-0.6 0.69,-0.6 0.13,0 0.25,0.05 0.34,0.05 0.1,0 0.17,-0.07 0.17,-0.16 0,-0.39 -0.34,-0.82 -0.99,-1.26 z" id="path11991" /><polygon style="fill:#000000;stroke-width:0" points="285.29,483.23 285.29,481.38 285.87,481.38 285.87,483.23 288.19,483.23 288.19,483.81 285.87,483.81 285.87,485.53 285.29,485.53 285.29,483.81 282.97,483.81 282.97,483.23 " id="polygon11993" /><polygon style="fill:#000000;stroke-width:0" points="288.19,480.31 288.19,480.9 282.97,480.9 282.97,480.31 " id="polygon11995" /><path style="fill:#000000;stroke-width:0" d="m 292.52,487.12 -0.08,0.06 c -0.14,-0.18 -0.23,-0.23 -0.43,-0.23 l -1.83,0 -0.97,-2.1 c 0,0 -0.01,-0.02 -0.01,-0.04 0,-0.06 0.03,-0.07 0.11,-0.07 0.85,0 1.47,-0.29 1.89,-0.62 0.39,-0.32 0.59,-0.77 0.59,-1.33 0,-0.77 -0.58,-1.5 -1.2,-1.5 -0.17,0 -0.38,0.08 -0.63,0.28 -0.28,0.23 -0.45,0.28 -0.65,0.28 -0.25,0 -0.4,-0.12 -0.4,-0.34 0,-0.34 0.46,-0.55 1.12,-0.55 0.61,0 1.09,0.13 1.51,0.43 0.6,0.45 0.87,1 0.87,1.85 0,0.47 -0.08,0.81 -0.31,1.12 -0.51,0.7 -0.95,0.9 -2.22,1.14 l 0.36,0.75 1.72,0 c 0.14,0 0.21,0.05 0.24,0.12 z" id="path11997" /><path style="fill:#000000;stroke-width:0" d="m 298.11,484.88 -2.5,0 c -0.92,0 -1.49,-0.41 -1.88,-1.12 l 0.15,0 c 0.39,0.47 0.71,0.47 1.23,0.47 l -0.79,-1.83 c -0.12,-0.25 -0.28,-0.51 -0.66,-0.62 -0.23,-0.06 -0.27,-0.29 -0.27,-0.42 0,-0.21 0.22,-0.39 0.45,-0.39 0.11,0 0.24,0.02 0.34,0.1 0.74,0.55 1.02,2.08 1.42,3.16 l 0.84,0 c -0.23,-0.74 -0.49,-1.36 -0.7,-1.99 -0.05,-0.17 -0.07,-0.35 -0.07,-0.55 0,-0.35 0.15,-0.67 0.5,-0.67 0.62,0 1.09,0.62 1.28,1.26 l -0.15,0 c -0.21,-0.48 -0.46,-0.58 -0.64,-0.58 -0.2,0 -0.34,0.22 -0.34,0.42 0,0.59 0.47,1.73 0.6,2.11 l 0.99,0 z" id="path11999" /><line style="stroke-width:0.65799999" x1="282.54999" y1="478.79001" x2="298.04001" y2="478.79001" id="line12001" /><path style="fill:#000000;stroke-width:0" d="m 292.27,472.73 -0.12,0.06 c -0.29,-0.5 -0.48,-0.6 -0.85,-0.6 l -2.08,0 1.46,1.56 c 0.79,0.84 1.14,1.5 1.14,2.2 0,0.88 -0.64,1.56 -1.64,1.56 -1.09,0 -1.66,-0.72 -1.84,-1.76 l 0.18,-0.05 c 0.36,0.87 0.67,1.16 1.31,1.16 0.75,0 1.23,-0.45 1.23,-1.25 0,-0.76 -0.32,-1.43 -1.16,-2.31 l -1.57,-1.67 0,-0.11 3.46,0 z" id="path12003" /><path style="fill:#000000;stroke-width:0" d="m 300.21,474.64 0.08,0.03 0.07,0.04 0.08,0.05 0.07,0.04 0.06,0.04 0.07,0.05 0.06,0.05 0.07,0.05 0.06,0.05 0.05,0.05 0.06,0.06 0.05,0.05 0.05,0.06 0.05,0.06 0.05,0.06 0.04,0.06 0.05,0.06 0.04,0.06 0.03,0.06 0.04,0.07 0.03,0.06 0.03,0.07 0.02,0.06 0.03,0.07 0.02,0.06 0.02,0.07 0.01,0.07 0.02,0.06 0.01,0.07 0.01,0.07 0,0.06 0,0.07 c 0,0.61 -0.41,1.03 -0.95,1.03 -0.42,0 -0.71,-0.28 -0.71,-0.68 0,-0.4 0.25,-0.6 0.69,-0.6 0.13,0 0.25,0.05 0.34,0.05 0.1,0 0.17,-0.07 0.17,-0.16 0,-0.39 -0.33,-0.82 -0.98,-1.26 z" id="path12005" /><polygon style="fill:#000000;stroke-width:0" points="307.79,483.23 307.79,481.38 308.37,481.38 308.37,483.23 310.7,483.23 310.7,483.81 308.37,483.81 308.37,485.53 307.79,485.53 307.79,483.81 305.48,483.81 305.48,483.23 " id="polygon12007" /><polygon style="fill:#000000;stroke-width:0" points="310.7,480.31 310.7,480.9 305.48,480.9 305.48,480.31 " id="polygon12009" /><path style="fill:#000000;stroke-width:0" d="m 315.12,486.81 0,0.14 -3.27,0 -0.54,-1.3 0.16,-0.08 c 0.38,0.6 0.53,0.73 1.04,0.73 l 1.91,0 -1.76,-5.29 0.58,0 z" id="path12011" /><path style="fill:#000000;stroke-width:0" d="m 320.61,484.88 -2.5,0 c -0.92,0 -1.49,-0.41 -1.88,-1.12 l 0.15,0 c 0.39,0.47 0.72,0.47 1.23,0.47 l -0.79,-1.83 c -0.12,-0.25 -0.27,-0.51 -0.66,-0.62 -0.23,-0.06 -0.27,-0.29 -0.27,-0.42 0,-0.21 0.22,-0.39 0.45,-0.39 0.11,0 0.24,0.02 0.34,0.1 0.74,0.55 1.02,2.08 1.43,3.16 l 0.83,0 c -0.22,-0.74 -0.49,-1.36 -0.69,-1.99 -0.06,-0.17 -0.08,-0.35 -0.08,-0.55 0,-0.35 0.15,-0.67 0.5,-0.67 0.62,0 1.09,0.62 1.28,1.26 l -0.14,0 c -0.22,-0.48 -0.46,-0.58 -0.65,-0.58 -0.2,0 -0.34,0.22 -0.34,0.42 0,0.59 0.47,1.73 0.6,2.11 l 0.99,0 z" id="path12013" /><line style="stroke-width:0.65799999" x1="305.04999" y1="478.79001" x2="320.54001" y2="478.79001" id="line12015" /><path style="fill:#000000;stroke-width:0" d="m 314.77,472.73 -0.12,0.06 c -0.29,-0.5 -0.48,-0.6 -0.85,-0.6 l -2.08,0 1.47,1.56 c 0.79,0.84 1.13,1.5 1.13,2.2 0,0.88 -0.64,1.56 -1.64,1.56 -1.09,0 -1.66,-0.72 -1.84,-1.76 l 0.18,-0.05 c 0.36,0.87 0.67,1.16 1.31,1.16 0.75,0 1.23,-0.45 1.23,-1.25 0,-0.76 -0.32,-1.43 -1.15,-2.31 l -1.58,-1.67 0,-0.11 3.46,0 z" id="path12017" /></g>    <g ns0:preamble="/Users/Lizzie/Documents/Old mac/CMEP folder/underground-inkscape-preamble.tex" ns0:text="$y=2\\sin t$" word-spacing="normal" letter-spacing="normal" font-size-adjust="none" font-stretch="normal" font-weight="normal" font-variant="normal" font-style="normal" stroke-miterlimit="10.433" xml:space="preserve" transform="matrix(2.7,0,0,-2.7,-555.69085,1805.0959)" id="g12218" style="font-style:normal;font-variant:normal;font-weight:normal;font-stretch:normal;letter-spacing:normal;word-spacing:normal;text-anchor:start;fill:none;fill-opacity:1;fill-rule:evenodd;stroke:#000000;stroke-linecap:butt;stroke-linejoin:miter;stroke-miterlimit:10.43299961;stroke-dasharray:none;stroke-dashoffset:0;stroke-opacity:1"><path id="path12220" d="m 226.63,480.86 -0.01,0.08 -0.01,0.08 -0.01,0.07 -0.01,0.07 -0.01,0.07 -0.01,0.07 -0.01,0.06 -0.01,0.06 -0.01,0.06 -0.01,0.05 -0.01,0.06 -0.01,0.05 -0.01,0.05 -0.01,0.04 -0.02,0.05 -0.01,0.05 -0.01,0.04 -0.02,0.04 -0.01,0.04 -0.01,0.04 -0.04,0.08 -0.03,0.07 -0.04,0.08 -0.04,0.07 -0.04,0.07 -0.05,0.07 -1.78,-0.3 0.02,-0.18 c 0.11,0.01 0.3,0.04 0.43,0.04 0.67,0 0.77,-0.71 0.83,-1.24 l 0.45,-3.7 c -0.31,-0.48 -0.98,-1.21 -1.18,-1.21 -0.19,0 -0.17,0.37 -0.68,0.37 -0.15,0 -0.47,-0.13 -0.47,-0.49 0,-0.28 0.22,-0.64 0.66,-0.64 0.81,0 1.58,1.15 2.44,2.24 0.5,0.62 2.42,3.46 2.42,4.38 0,0.46 -0.3,0.73 -0.68,0.73 -0.34,0 -0.56,-0.21 -0.56,-0.47 0,-0.45 0.62,-0.57 0.62,-0.82 0,-0.21 -0.09,-0.45 -0.33,-0.88 -0.26,-0.49 -0.68,-1.19 -1.4,-2.18 z" style="fill:#000000;stroke-width:0" /><polygon id="polygon12222" points="239.61,481.79 232.64,481.79 232.64,481.01 239.61,481.01 " style="fill:#000000;stroke-width:0" /><polygon id="polygon12224" points="239.61,479.43 232.64,479.43 232.64,478.65 239.61,478.65 " style="fill:#000000;stroke-width:0" /><path id="path12226" d="m 248.57,478.85 -0.16,0.07 c -0.4,-0.66 -0.64,-0.79 -1.14,-0.79 l -2.77,0 1.95,2.08 c 1.06,1.11 1.52,1.99 1.52,2.93 0,1.17 -0.85,2.08 -2.19,2.08 -1.46,0 -2.22,-0.97 -2.47,-2.35 l 0.25,-0.06 c 0.48,1.15 0.89,1.53 1.74,1.53 1.01,0 1.65,-0.59 1.65,-1.66 0,-1.01 -0.43,-1.9 -1.54,-3.07 l -2.11,-2.23 0,-0.15 4.63,0 z" style="fill:#000000;stroke-width:0" /><path id="path12228" d="m 252.39,480.79 -0.03,0.02 -0.03,0.02 -0.03,0.02 -0.03,0.02 -0.03,0.02 -0.02,0.03 -0.03,0.02 -0.02,0.02 -0.02,0.03 -0.03,0.02 -0.02,0.03 -0.02,0.02 -0.02,0.03 -0.02,0.02 -0.01,0.03 -0.02,0.03 -0.02,0.02 -0.01,0.03 -0.01,0.03 -0.02,0.03 -0.01,0.02 -0.01,0.03 -0.01,0.03 -0.01,0.02 -0.01,0.03 0,0.03 -0.01,0.02 0,0.03 -0.01,0.03 0,0.02 0,0.03 0,0.02 c 0,0.56 0.38,0.8 0.89,0.8 0.71,0 1.06,-0.38 1.33,-1.45 l 0.18,0 -0.06,1.61 -0.13,0 c -0.09,-0.11 -0.14,-0.12 -0.19,-0.12 -0.08,0 -0.2,0.03 -0.33,0.09 -0.25,0.12 -0.51,0.13 -0.79,0.13 -0.97,0 -1.64,-0.52 -1.64,-1.45 0,-0.6 0.44,-1.17 1.43,-1.71 l 0.64,-0.35 c 0.39,-0.22 0.62,-0.52 0.62,-0.89 0,-0.48 -0.38,-0.87 -0.98,-0.87 -0.82,0 -1.26,0.52 -1.5,1.66 l -0.19,0 0,-1.85 0.15,0 c 0.07,0.12 0.14,0.14 0.28,0.14 0.14,0 0.26,-0.01 0.55,-0.11 0.27,-0.09 0.62,-0.1 0.86,-0.1 0.9,0 1.66,0.68 1.66,1.47 0,0.68 -0.28,0.99 -1.04,1.46 z" style="fill:#000000;stroke-width:0" /><path id="path12230" d="m 257.28,484.7 0,0.03 0,0.03 -0.01,0.03 0,0.03 -0.01,0.03 -0.01,0.02 0,0.03 -0.02,0.03 -0.01,0.03 -0.01,0.02 -0.01,0.03 -0.02,0.02 -0.02,0.03 -0.01,0.02 -0.02,0.02 -0.02,0.02 -0.02,0.02 -0.02,0.02 -0.03,0.02 -0.02,0.02 -0.03,0.01 -0.02,0.02 -0.03,0.01 -0.02,0.01 -0.03,0.01 -0.03,0.01 -0.03,0.01 -0.03,0.01 -0.03,0 -0.03,0.01 -0.03,0 -0.03,0 c -0.33,0 -0.61,-0.27 -0.61,-0.6 0,-0.35 0.26,-0.61 0.6,-0.61 0.35,0 0.61,0.26 0.61,0.61 z" style="fill:#000000;stroke-width:0" /><path id="path12232" d="m 258.15,477.23 0,0.18 c -0.79,0.06 -0.88,0.19 -0.88,1.07 l 0,4.14 -0.05,0.05 -1.83,-0.65 0,-0.19 c 0.21,0.06 0.39,0.06 0.49,0.06 0.3,0 0.39,-0.19 0.39,-0.75 l 0,-2.68 c 0,-0.89 -0.11,-1 -0.93,-1.05 l 0,-0.18 z" style="fill:#000000;stroke-width:0" /><path id="path12234" d="m 264.19,477.23 0,0.18 c -0.58,0.06 -0.73,0.19 -0.73,0.83 l 0,2.61 c 0,1.17 -0.49,1.82 -1.39,1.82 -0.55,0 -1.09,-0.26 -1.71,-0.96 l -0.01,0 0,0.92 -0.09,0.04 c -0.59,-0.22 -0.98,-0.35 -1.63,-0.54 l 0,-0.2 c 0.08,0.04 0.22,0.05 0.35,0.05 0.33,0 0.41,-0.19 0.41,-0.77 l 0,-2.86 c 0,-0.7 -0.13,-0.89 -0.73,-0.94 l 0,-0.18 2.49,0 0,0.18 c -0.6,0.05 -0.76,0.21 -0.76,0.67 l 0,3.26 c 0.54,0.54 0.82,0.68 1.22,0.68 0.57,0 0.86,-0.36 0.86,-1.2 l 0,-2.34 c 0,-0.78 -0.14,-1.02 -0.74,-1.07 l -0.01,-0.18 z" style="fill:#000000;stroke-width:0" /><path id="path12236" d="m 269.38,482.41 -0.83,0 0.37,1.52 -0.16,0 c -0.48,-1.03 -1.21,-1.47 -2.09,-1.63 l -0.06,-0.34 0.91,0 -0.96,-3.78 c -0.04,-0.13 -0.06,-0.28 -0.06,-0.44 0,-0.32 0.09,-0.61 0.46,-0.61 0.7,0 1.29,0.9 1.58,1.26 l -0.16,0.13 c -0.44,-0.59 -0.71,-0.61 -0.71,-0.61 -0.15,0 -0.19,0.07 -0.19,0.14 0,0.03 0.01,0.09 0.03,0.13 l 0.92,3.78 0.83,0 z" style="fill:#000000;stroke-width:0" /></g>    <g style="font-style:normal;font-variant:normal;font-weight:normal;font-stretch:normal;letter-spacing:normal;word-spacing:normal;text-anchor:start;fill:none;fill-opacity:1;fill-rule:evenodd;stroke:#000000;stroke-linecap:butt;stroke-linejoin:miter;stroke-miterlimit:10.43299961;stroke-dasharray:none;stroke-dashoffset:0;stroke-opacity:1" id="g12432" transform="matrix(2.7,0,0,-2.7,-529.26342,1858.7326)" xml:space="preserve" stroke-miterlimit="10.433" font-style="normal" font-variant="normal" font-weight="normal" font-stretch="normal" font-size-adjust="none" letter-spacing="normal" word-spacing="normal" ns0:text="$t\\in \\mathbb{R}$" ns0:preamble="/Users/Lizzie/Documents/Old mac/CMEP folder/underground-inkscape-preamble.tex"><path style="fill:#000000;stroke-width:0" d="m 226.78,482.41 -0.82,0 0.36,1.52 -0.15,0 c -0.49,-1.03 -1.21,-1.47 -2.1,-1.63 l -0.06,-0.34 0.91,0 -0.96,-3.78 c -0.03,-0.13 -0.05,-0.28 -0.05,-0.44 0,-0.32 0.09,-0.61 0.46,-0.61 0.7,0 1.29,0.9 1.57,1.26 l -0.15,0.13 c -0.44,-0.59 -0.71,-0.61 -0.71,-0.61 -0.16,0 -0.19,0.07 -0.19,0.14 0,0.03 0.01,0.09 0.02,0.13 l 0.93,3.78 0.82,0 z" id="path12434" /><path style="fill:#000000;stroke-width:0" d="m 237.3,476.92 0,0.78 -3.44,0 c -1.22,0 -2.24,1 -2.44,2.12 l 5.88,0 0,0.78 -5.87,0 c 0.2,1.12 1.22,2.13 2.44,2.13 l 3.43,0 0,0.77 -3.48,0 c -1.88,0 -3.21,-1.54 -3.21,-3.29 0,-1.75 1.35,-3.29 3.25,-3.29 z" id="path12436" /><path style="fill:#000000;stroke-width:0" d="m 249.22,477.23 -2.54,3.37 -0.08,0.42 0,3.35 c 0.72,-0.32 1.11,-0.85 1.11,-1.66 0,-0.73 -0.42,-1.4 -1.11,-1.69 l 0.08,-0.42 c 1,0.31 1.55,1.1 1.55,2.14 0,1.68 -1.3,2.31 -2.82,2.31 l -3.79,0 0,-7.82 1.97,0 0,3.2 0,0.52 0,3.58 -0.53,0 0,-6.78 -0.92,0 0,6.78 0.92,0 0.53,0 1.9,0 c 0.18,0 0.42,-0.07 0.59,-0.09 l 0,-3.43 0.05,-0.53 2.07,-2.73 -1.16,0 -1.95,2.68 c 0.34,0 0.7,-0.01 1.04,0.05 l -0.05,0.53 c -0.21,-0.02 -0.43,-0.06 -0.65,-0.06 l -1.84,0 0,-0.52 0.87,0 2.31,-3.2 z" id="path12438" /></g>    <g ns0:preamble="/Users/Lizzie/Documents/Old mac/CMEP folder/underground-inkscape-preamble.tex" ns0:text="$y=t^2$" word-spacing="normal" letter-spacing="normal" font-size-adjust="none" font-stretch="normal" font-weight="normal" font-variant="normal" font-style="normal" stroke-miterlimit="10.433" xml:space="preserve" transform="matrix(2.7,0,0,-2.7,-531.40513,2005.06)" id="g12642" style="font-style:normal;font-variant:normal;font-weight:normal;font-stretch:normal;letter-spacing:normal;word-spacing:normal;text-anchor:start;fill:none;fill-opacity:1;fill-rule:evenodd;stroke:#000000;stroke-linecap:butt;stroke-linejoin:miter;stroke-miterlimit:10.43299961;stroke-dasharray:none;stroke-dashoffset:0;stroke-opacity:1"><path id="path12644" d="m 226.63,480.83 -0.01,0.08 -0.01,0.08 -0.01,0.07 -0.01,0.07 -0.01,0.07 -0.01,0.07 -0.01,0.06 -0.01,0.06 -0.01,0.06 -0.01,0.05 -0.01,0.06 -0.01,0.05 -0.01,0.05 -0.01,0.05 -0.02,0.04 -0.01,0.05 -0.01,0.04 -0.02,0.04 -0.01,0.04 -0.01,0.04 -0.04,0.08 -0.03,0.07 -0.04,0.08 -0.04,0.07 -0.04,0.07 -0.05,0.07 -1.78,-0.29 0.02,-0.19 c 0.11,0.01 0.3,0.04 0.43,0.04 0.67,0 0.77,-0.7 0.83,-1.24 l 0.45,-3.7 c -0.31,-0.47 -0.98,-1.21 -1.18,-1.21 -0.19,0 -0.17,0.37 -0.68,0.37 -0.15,0 -0.47,-0.13 -0.47,-0.48 0,-0.29 0.22,-0.65 0.66,-0.65 0.81,0 1.58,1.15 2.44,2.24 0.5,0.62 2.42,3.46 2.42,4.38 0,0.46 -0.3,0.73 -0.68,0.73 -0.34,0 -0.56,-0.21 -0.56,-0.47 0,-0.45 0.62,-0.57 0.62,-0.82 0,-0.21 -0.09,-0.44 -0.33,-0.88 -0.26,-0.49 -0.68,-1.19 -1.4,-2.17 z" style="fill:#000000;stroke-width:0" /><polygon id="polygon12646" points="239.61,480.98 239.61,481.76 232.64,481.76 232.64,480.98 " style="fill:#000000;stroke-width:0" /><polygon id="polygon12648" points="239.61,478.62 239.61,479.4 232.64,479.4 232.64,478.62 " style="fill:#000000;stroke-width:0" /><path id="path12650" d="m 246.31,482.38 -0.83,0 0.37,1.52 -0.16,0 c -0.48,-1.03 -1.2,-1.46 -2.09,-1.63 l -0.06,-0.34 0.91,0 -0.96,-3.78 c -0.03,-0.13 -0.06,-0.28 -0.06,-0.44 0,-0.32 0.1,-0.61 0.46,-0.61 0.7,0 1.29,0.9 1.58,1.26 l -0.16,0.13 c -0.43,-0.59 -0.71,-0.61 -0.71,-0.61 -0.15,0 -0.19,0.07 -0.19,0.14 0,0.04 0.02,0.09 0.03,0.13 l 0.92,3.78 0.83,0 z" style="fill:#000000;stroke-width:0" /><path id="path12652" d="m 250.87,482.4 -0.13,0.06 c -0.29,-0.5 -0.47,-0.6 -0.84,-0.6 l -2.08,0 1.46,1.56 c 0.79,0.84 1.14,1.5 1.14,2.2 0,0.88 -0.64,1.56 -1.64,1.56 -1.09,0 -1.66,-0.72 -1.85,-1.76 l 0.19,-0.04 c 0.36,0.86 0.67,1.15 1.3,1.15 0.76,0 1.23,-0.45 1.23,-1.25 0,-0.76 -0.31,-1.43 -1.15,-2.31 l -1.57,-1.67 0,-0.11 3.46,0 z" style="fill:#000000;stroke-width:0" /></g>    <g style="font-style:normal;font-variant:normal;font-weight:normal;font-stretch:normal;letter-spacing:normal;word-spacing:normal;text-anchor:start;fill:none;fill-opacity:1;fill-rule:evenodd;stroke:#000000;stroke-linecap:butt;stroke-linejoin:miter;stroke-miterlimit:10.43299961;stroke-dasharray:none;stroke-dashoffset:0;stroke-opacity:1" id="g12868" transform="matrix(2.7,0,0,-2.7,-525.83485,2060.1611)" xml:space="preserve" stroke-miterlimit="10.433" font-style="normal" font-variant="normal" font-weight="normal" font-stretch="normal" font-size-adjust="none" letter-spacing="normal" word-spacing="normal" ns0:text="$t\\in \\mathbb{R}$" ns0:preamble="/Users/Lizzie/Documents/Old mac/CMEP folder/underground-inkscape-preamble.tex"><path style="fill:#000000;stroke-width:0" d="m 226.78,482.41 -0.82,0 0.36,1.52 -0.15,0 c -0.49,-1.03 -1.21,-1.47 -2.1,-1.63 l -0.06,-0.34 0.91,0 -0.96,-3.78 c -0.03,-0.13 -0.05,-0.28 -0.05,-0.44 0,-0.32 0.09,-0.61 0.46,-0.61 0.7,0 1.29,0.9 1.57,1.26 l -0.15,0.13 c -0.44,-0.59 -0.71,-0.61 -0.71,-0.61 -0.16,0 -0.19,0.07 -0.19,0.14 0,0.03 0.01,0.09 0.02,0.13 l 0.93,3.78 0.82,0 z" id="path12870" /><path style="fill:#000000;stroke-width:0" d="m 237.3,476.92 0,0.78 -3.44,0 c -1.22,0 -2.24,1 -2.44,2.12 l 5.88,0 0,0.78 -5.87,0 c 0.2,1.12 1.22,2.13 2.44,2.13 l 3.43,0 0,0.77 -3.48,0 c -1.88,0 -3.21,-1.54 -3.21,-3.29 0,-1.75 1.35,-3.29 3.25,-3.29 z" id="path12872" /><path style="fill:#000000;stroke-width:0" d="m 249.22,477.23 -2.54,3.37 -0.08,0.42 0,3.35 c 0.72,-0.32 1.11,-0.85 1.11,-1.66 0,-0.73 -0.42,-1.4 -1.11,-1.69 l 0.08,-0.42 c 1,0.31 1.55,1.1 1.55,2.14 0,1.68 -1.3,2.31 -2.82,2.31 l -3.79,0 0,-7.82 1.97,0 0,3.2 0,0.52 0,3.58 -0.53,0 0,-6.78 -0.92,0 0,6.78 0.92,0 0.53,0 1.9,0 c 0.18,0 0.42,-0.07 0.59,-0.09 l 0,-3.43 0.05,-0.53 2.07,-2.73 -1.16,0 -1.95,2.68 c 0.34,0 0.7,-0.01 1.04,0.05 l -0.05,0.53 c -0.21,-0.02 -0.43,-0.06 -0.65,-0.06 l -1.84,0 0,-0.52 0.87,0 2.31,-3.2 z" id="path12874" /></g>    <g ns0:preamble="/Users/Lizzie/Documents/Old mac/CMEP folder/underground-inkscape-preamble.tex" ns0:text="$y=\\dfrac{2}{t}$" word-spacing="normal" letter-spacing="normal" font-size-adjust="none" font-stretch="normal" font-weight="normal" font-variant="normal" font-style="normal" stroke-miterlimit="10.433" xml:space="preserve" transform="matrix(2.7,0,0,-2.7,-525.69085,2176.0245)" id="g13098" style="font-style:normal;font-variant:normal;font-weight:normal;font-stretch:normal;letter-spacing:normal;word-spacing:normal;text-anchor:start;fill:none;fill-opacity:1;fill-rule:evenodd;stroke:#000000;stroke-linecap:butt;stroke-linejoin:miter;stroke-miterlimit:10.43299961;stroke-dasharray:none;stroke-dashoffset:0;stroke-opacity:1"><path id="path13100" d="m 226.63,477.04 -0.01,0.08 -0.01,0.07 -0.01,0.08 -0.01,0.07 -0.01,0.07 -0.01,0.06 -0.01,0.06 -0.01,0.06 -0.01,0.06 -0.01,0.06 -0.01,0.05 -0.01,0.05 -0.01,0.05 -0.01,0.05 -0.02,0.05 -0.01,0.04 -0.01,0.05 -0.02,0.04 -0.01,0.04 -0.01,0.04 -0.04,0.07 -0.03,0.08 -0.04,0.07 -0.04,0.07 -0.04,0.07 -0.05,0.08 -1.78,-0.3 0.02,-0.19 c 0.11,0.01 0.3,0.05 0.43,0.05 0.67,0 0.77,-0.71 0.83,-1.24 l 0.45,-3.71 c -0.31,-0.47 -0.98,-1.2 -1.18,-1.2 -0.19,0 -0.17,0.36 -0.68,0.36 -0.15,0 -0.47,-0.13 -0.47,-0.48 0,-0.28 0.22,-0.65 0.66,-0.65 0.81,0 1.58,1.16 2.44,2.24 0.5,0.63 2.42,3.46 2.42,4.38 0,0.46 -0.3,0.74 -0.68,0.74 -0.34,0 -0.56,-0.22 -0.56,-0.48 0,-0.45 0.62,-0.56 0.62,-0.81 0,-0.21 -0.09,-0.45 -0.33,-0.89 -0.26,-0.48 -0.68,-1.19 -1.4,-2.17 z" style="fill:#000000;stroke-width:0" /><polygon id="polygon13102" points="239.61,477.97 232.64,477.97 232.64,477.19 239.61,477.19 " style="fill:#000000;stroke-width:0" /><polygon id="polygon13104" points="239.61,475.61 232.64,475.61 232.64,474.83 239.61,474.83 " style="fill:#000000;stroke-width:0" /><path id="path13106" d="m 249.77,480.81 -0.17,0.07 c -0.39,-0.66 -0.64,-0.79 -1.13,-0.79 l -2.77,0 1.95,2.07 c 1.05,1.11 1.51,2 1.51,2.93 0,1.17 -0.85,2.08 -2.19,2.08 -1.45,0 -2.21,-0.97 -2.46,-2.35 l 0.25,-0.06 c 0.47,1.16 0.89,1.54 1.74,1.54 1.01,0 1.65,-0.59 1.65,-1.67 0,-1 -0.43,-1.9 -1.54,-3.07 l -2.11,-2.23 0,-0.14 4.63,0 z" style="fill:#000000;stroke-width:0" /><line id="line13108" y2="475.89999" x2="250.08" y1="475.89999" x1="244.14999" style="stroke-width:0.65799999" /><path id="path13110" d="m 248.62,471.61 -0.83,0 0.36,1.52 -0.15,0 c -0.49,-1.03 -1.21,-1.46 -2.1,-1.63 l -0.06,-0.34 0.92,0 -0.96,-3.78 c -0.04,-0.13 -0.06,-0.28 -0.06,-0.43 0,-0.32 0.09,-0.62 0.46,-0.62 0.7,0 1.29,0.9 1.57,1.26 l -0.15,0.13 c -0.44,-0.59 -0.71,-0.61 -0.71,-0.61 -0.15,0 -0.19,0.07 -0.19,0.14 0,0.04 0.01,0.1 0.02,0.13 l 0.93,3.78 0.83,0 z" style="fill:#000000;stroke-width:0" /></g>    <g style="font-style:normal;font-variant:normal;font-weight:normal;font-stretch:normal;letter-spacing:normal;word-spacing:normal;text-anchor:start;fill:none;fill-opacity:1;fill-rule:evenodd;stroke:#000000;stroke-linecap:butt;stroke-linejoin:miter;stroke-miterlimit:10.43299961;stroke-dasharray:none;stroke-dashoffset:0;stroke-opacity:1" id="g13348" transform="matrix(2.4040044,0,0,-2.4040044,-509.24016,2096.7527)" xml:space="preserve" stroke-miterlimit="10.433" font-style="normal" font-variant="normal" font-weight="normal" font-stretch="normal" font-size-adjust="none" letter-spacing="normal" word-spacing="normal" ns0:text="$-4\\pi \\leq t \\leq 4\\pi$" ns0:preamble="/Users/Lizzie/Documents/Old mac/CMEP folder/underground-inkscape-preamble.tex"><polygon style="fill:#000000;stroke-width:0" points="230.79,479.83 230.79,480.61 224.19,480.61 224.19,479.83 " id="polygon13350" /><polygon style="fill:#000000;stroke-width:0" points="235.01,479.96 232.16,479.96 231.69,479.96 231.69,479.21 235.01,479.21 235.01,477.23 235.93,477.23 235.93,479.21 237.15,479.21 237.15,479.96 235.93,479.96 235.93,485.22 235.41,485.22 231.69,479.96 232.16,479.96 235.01,484.01 " id="polygon13352" /><path style="fill:#000000;stroke-width:0" d="m 244.2,482.29 -3.34,0 c -1.23,0 -1.99,-0.55 -2.51,-1.49 l 0.19,0 c 0.52,0.63 0.96,0.63 1.64,0.63 l -1.05,-2.44 c -0.15,-0.34 -0.37,-0.68 -0.88,-0.82 -0.3,-0.09 -0.36,-0.39 -0.36,-0.57 0,-0.28 0.29,-0.52 0.6,-0.52 0.14,0 0.32,0.03 0.45,0.13 0.99,0.74 1.36,2.78 1.91,4.22 l 1.11,0 c -0.3,-1 -0.65,-1.82 -0.92,-2.66 -0.07,-0.22 -0.11,-0.46 -0.11,-0.73 0,-0.46 0.2,-0.89 0.68,-0.89 0.82,0 1.45,0.83 1.7,1.68 l -0.19,0 c -0.28,-0.64 -0.61,-0.78 -0.86,-0.78 -0.26,0 -0.45,0.3 -0.45,0.57 0,0.79 0.62,2.3 0.79,2.81 l 1.33,0 z" id="path13354" /><polygon style="fill:#000000;stroke-width:0" points="254.29,478.58 249.18,481.12 254.29,483.66 254.29,484.42 247.6,481.18 247.6,481.06 254.29,477.84 " id="polygon13356" /><polygon style="fill:#000000;stroke-width:0" points="254.29,476.02 254.29,476.8 247.6,476.8 247.6,476.02 " id="polygon13358" /><path style="fill:#000000;stroke-width:0" d="m 261.08,482.41 -0.82,0 0.36,1.52 -0.15,0 c -0.49,-1.03 -1.21,-1.47 -2.1,-1.63 l -0.06,-0.34 0.91,0 -0.95,-3.78 c -0.04,-0.13 -0.06,-0.28 -0.06,-0.44 0,-0.32 0.09,-0.61 0.46,-0.61 0.7,0 1.29,0.9 1.57,1.26 l -0.15,0.13 c -0.44,-0.59 -0.71,-0.61 -0.71,-0.61 -0.16,0 -0.19,0.07 -0.19,0.14 0,0.03 0.01,0.09 0.02,0.13 l 0.93,3.78 0.82,0 z" id="path13360" /><polygon style="fill:#000000;stroke-width:0" points="271.65,478.58 266.53,481.12 271.65,483.66 271.65,484.42 264.96,481.18 264.96,481.06 271.65,477.84 " id="polygon13362" /><polygon style="fill:#000000;stroke-width:0" points="271.65,476.02 271.65,476.8 264.96,476.8 264.96,476.02 " id="polygon13364" /><polygon style="fill:#000000;stroke-width:0" points="278.55,479.96 275.7,479.96 275.23,479.96 275.23,479.21 278.55,479.21 278.55,477.23 279.47,477.23 279.47,479.21 280.69,479.21 280.69,479.96 279.47,479.96 279.47,485.22 278.95,485.22 275.23,479.96 275.7,479.96 278.55,484.01 " id="polygon13366" /><path style="fill:#000000;stroke-width:0" d="m 287.74,482.29 -3.34,0 c -1.23,0 -1.99,-0.55 -2.51,-1.49 l 0.19,0 c 0.52,0.63 0.96,0.63 1.65,0.63 l -1.06,-2.44 c -0.15,-0.34 -0.37,-0.68 -0.87,-0.82 -0.31,-0.09 -0.37,-0.39 -0.37,-0.57 0,-0.28 0.29,-0.52 0.6,-0.52 0.14,0 0.32,0.03 0.45,0.13 1,0.74 1.36,2.78 1.91,4.22 l 1.11,0 c -0.29,-1 -0.65,-1.82 -0.92,-2.66 -0.07,-0.22 -0.11,-0.46 -0.11,-0.73 0,-0.46 0.2,-0.89 0.68,-0.89 0.83,0 1.45,0.83 1.7,1.68 l -0.19,0 c -0.28,-0.64 -0.61,-0.78 -0.86,-0.78 -0.26,0 -0.45,0.3 -0.45,0.57 0,0.79 0.63,2.3 0.79,2.81 l 1.33,0 z" id="path13368" /></g>    <g style="font-style:normal;font-variant:normal;font-weight:normal;font-stretch:normal;letter-spacing:normal;word-spacing:normal;text-anchor:start;fill:none;fill-opacity:1;fill-rule:evenodd;stroke:#000000;stroke-linecap:butt;stroke-linejoin:miter;stroke-miterlimit:10.43299961;stroke-dasharray:none;stroke-dashoffset:0;stroke-opacity:1" ns0:preamble="/Users/Lizzie/Documents/Old mac/CMEP folder/underground-inkscape-preamble.tex" ns0:text="$-4\\pi \\leq t \\leq 4\\pi$" word-spacing="normal" letter-spacing="normal" font-size-adjust="none" font-stretch="normal" font-weight="normal" font-variant="normal" font-style="normal" stroke-miterlimit="10.433" xml:space="preserve" transform="matrix(2.610118,0,0,-2.610118,225.40838,1624.8669)" id="g13617"><polygon style="fill:#000000;stroke-width:0" id="polygon13619" points="224.19,479.83 230.79,479.83 230.79,480.61 224.19,480.61 " /><polygon style="fill:#000000;stroke-width:0" id="polygon13621" points="235.93,485.22 235.41,485.22 231.69,479.96 232.16,479.96 235.01,484.01 235.01,479.96 232.16,479.96 231.69,479.96 231.69,479.21 235.01,479.21 235.01,477.23 235.93,477.23 235.93,479.21 237.15,479.21 237.15,479.96 235.93,479.96 " /><path style="fill:#000000;stroke-width:0" id="path13623" d="m 244.2,482.29 -3.34,0 c -1.23,0 -1.99,-0.55 -2.51,-1.49 l 0.19,0 c 0.52,0.63 0.96,0.63 1.64,0.63 l -1.05,-2.44 c -0.15,-0.34 -0.37,-0.68 -0.88,-0.82 -0.3,-0.09 -0.36,-0.39 -0.36,-0.57 0,-0.28 0.29,-0.52 0.6,-0.52 0.14,0 0.32,0.03 0.45,0.13 0.99,0.74 1.36,2.78 1.91,4.22 l 1.11,0 c -0.3,-1 -0.65,-1.82 -0.92,-2.66 -0.07,-0.22 -0.11,-0.46 -0.11,-0.73 0,-0.46 0.2,-0.89 0.68,-0.89 0.82,0 1.45,0.83 1.7,1.68 l -0.19,0 c -0.28,-0.64 -0.61,-0.78 -0.86,-0.78 -0.26,0 -0.45,0.3 -0.45,0.57 0,0.79 0.62,2.3 0.79,2.81 l 1.33,0 z" /><polygon style="fill:#000000;stroke-width:0" id="polygon13625" points="254.29,483.66 254.29,484.42 247.6,481.18 247.6,481.06 254.29,477.84 254.29,478.58 249.18,481.12 " /><polygon style="fill:#000000;stroke-width:0" id="polygon13627" points="247.6,476.02 254.29,476.02 254.29,476.8 247.6,476.8 " /><path style="fill:#000000;stroke-width:0" id="path13629" d="m 261.08,482.41 -0.82,0 0.36,1.52 -0.15,0 c -0.49,-1.03 -1.21,-1.47 -2.1,-1.63 l -0.06,-0.34 0.91,0 -0.95,-3.78 c -0.04,-0.13 -0.06,-0.28 -0.06,-0.44 0,-0.32 0.09,-0.61 0.46,-0.61 0.7,0 1.29,0.9 1.57,1.26 l -0.15,0.13 c -0.44,-0.59 -0.71,-0.61 -0.71,-0.61 -0.16,0 -0.19,0.07 -0.19,0.14 0,0.03 0.01,0.09 0.02,0.13 l 0.93,3.78 0.82,0 z" /><polygon style="fill:#000000;stroke-width:0" id="polygon13631" points="271.65,483.66 271.65,484.42 264.96,481.18 264.96,481.06 271.65,477.84 271.65,478.58 266.53,481.12 " /><polygon style="fill:#000000;stroke-width:0" id="polygon13633" points="264.96,476.02 271.65,476.02 271.65,476.8 264.96,476.8 " /><polygon style="fill:#000000;stroke-width:0" id="polygon13635" points="279.47,485.22 278.95,485.22 275.23,479.96 275.7,479.96 278.55,484.01 278.55,479.96 275.7,479.96 275.23,479.96 275.23,479.21 278.55,479.21 278.55,477.23 279.47,477.23 279.47,479.21 280.69,479.21 280.69,479.96 279.47,479.96 " /><path style="fill:#000000;stroke-width:0" id="path13637" d="m 287.74,482.29 -3.34,0 c -1.23,0 -1.99,-0.55 -2.51,-1.49 l 0.19,0 c 0.52,0.63 0.96,0.63 1.65,0.63 l -1.06,-2.44 c -0.15,-0.34 -0.37,-0.68 -0.87,-0.82 -0.31,-0.09 -0.37,-0.39 -0.37,-0.57 0,-0.28 0.29,-0.52 0.6,-0.52 0.14,0 0.32,0.03 0.45,0.13 1,0.74 1.36,2.78 1.91,4.22 l 1.11,0 c -0.29,-1 -0.65,-1.82 -0.92,-2.66 -0.07,-0.22 -0.11,-0.46 -0.11,-0.73 0,-0.46 0.2,-0.89 0.68,-0.89 0.83,0 1.45,0.83 1.7,1.68 l -0.19,0 c -0.28,-0.64 -0.61,-0.78 -0.86,-0.78 -0.26,0 -0.45,0.3 -0.45,0.57 0,0.79 0.63,2.3 0.79,2.81 l 1.33,0 z" /></g>    <g style="font-style:normal;font-variant:normal;font-weight:normal;font-stretch:normal;letter-spacing:normal;word-spacing:normal;text-anchor:start;fill:none;fill-opacity:1;fill-rule:evenodd;stroke:#000000;stroke-linecap:butt;stroke-linejoin:miter;stroke-miterlimit:10.43299961;stroke-dasharray:none;stroke-dashoffset:0;stroke-opacity:1" id="g13897" transform="matrix(2.7,0,0,-2.7,-522.9777,2286.8966)" xml:space="preserve" stroke-miterlimit="10.433" font-style="normal" font-variant="normal" font-weight="normal" font-stretch="normal" font-size-adjust="none" letter-spacing="normal" word-spacing="normal" ns0:text="$t\\neq 0$" ns0:preamble="/Users/Lizzie/Documents/Old mac/CMEP folder/underground-inkscape-preamble.tex"><path style="fill:#000000;stroke-width:0" d="m 226.78,482.41 -0.82,0 0.36,1.52 -0.15,0 c -0.49,-1.03 -1.21,-1.47 -2.1,-1.63 l -0.06,-0.34 0.91,0 -0.96,-3.78 c -0.03,-0.13 -0.05,-0.28 -0.05,-0.44 0,-0.32 0.09,-0.61 0.46,-0.61 0.7,0 1.29,0.9 1.57,1.26 l -0.15,0.13 c -0.44,-0.59 -0.71,-0.61 -0.71,-0.61 -0.16,0 -0.19,0.07 -0.19,0.14 0,0.03 0.01,0.09 0.02,0.13 l 0.93,3.78 0.82,0 z" id="path13899" /><polygon style="fill:#000000;stroke-width:0" points="234.63,481.01 237.45,481.01 237.45,481.79 234.96,481.79 236.39,485.05 235.75,485.05 234.33,481.79 230.47,481.79 230.47,481.01 233.99,481.01 233.29,479.43 230.47,479.43 230.47,478.65 232.95,478.65 231.52,475.39 232.16,475.39 233.59,478.65 237.45,478.65 237.45,479.43 233.93,479.43 " id="polygon13901" /><path style="fill:#000000;stroke-width:0" d="m 246.43,481.13 -0.01,0.23 -0.01,0.22 -0.01,0.21 -0.02,0.21 -0.03,0.21 -0.03,0.2 -0.04,0.19 -0.05,0.19 -0.05,0.18 -0.05,0.18 -0.06,0.17 -0.07,0.17 -0.07,0.16 -0.07,0.15 -0.08,0.14 -0.09,0.14 -0.09,0.13 -0.09,0.13 -0.1,0.11 -0.1,0.11 -0.1,0.1 -0.11,0.1 -0.12,0.08 -0.12,0.08 -0.12,0.07 -0.12,0.06 -0.13,0.05 -0.13,0.04 -0.14,0.03 -0.14,0.03 -0.14,0.01 -0.14,0.01 c -1.91,0 -2.73,-1.93 -2.73,-4.02 0,-1.93 0.66,-4.13 2.68,-4.13 l 0,0.31 c -1.02,0 -1.54,1.34 -1.54,3.74 0,2.4 0.53,3.79 1.52,3.79 1.04,0 1.56,-1.38 1.56,-3.84 l 0,0 c 0,-2.34 -0.53,-3.69 -1.54,-3.69 l 0,-0.31 c 1.93,0 2.68,2.03 2.68,4.06 z" id="path13903" /></g>  </g>
</svg>