<?xml version='1.0' ?><svg xmlns:dc="http://purl.org/dc/elements/1.1/" xmlns:cc="http://creativecommons.org/ns#" xmlns:rdf="http://www.w3.org/1999/02/22-rdf-syntax-ns#" xmlns:svg="http://www.w3.org/2000/svg" xmlns="http://www.w3.org/2000/svg" id="svg2" version="1.1" width="770.66668" height="622.66668" viewBox="0.0 2.0000000250000003 578.00001 467.0000100000001" preserveAspectRatio="none">
  <metadata id="metadata63">
    <rdf:RDF>
      <cc:Work rdf:about="">
        <dc:format>image/svg+xml</dc:format>
        <dc:type rdf:resource="http://purl.org/dc/dcmitype/StillImage" />
        <dc:title />
      </cc:Work>
    </rdf:RDF>
  </metadata>
  <defs id="defs61">
    <clipPath id="clip1">
      <path id="path9" d="M 0.0000 0.0000 L 0.0000 469.00 L 580.00 469.00 L 580.00 0.0000 z" />
    </clipPath>
    <clipPath id="clip2">
      <path id="path18" d="M 0.0000 0.0000 L 0.0000 469.00 L 580.00 469.00 L 580.00 0.0000 z" />
    </clipPath>
    <clipPath id="clip3">
      <path id="path27" d="M 0.0000 0.0000 L 0.0000 469.00 L 580.00 469.00 L 580.00 0.0000 z" />
    </clipPath>
    <clipPath id="clip4">
      <path id="path36" d="M 0.0000 0.0000 L 0.0000 469.00 L 580.00 469.00 L 580.00 0.0000 z" />
    </clipPath>
  </defs>
  <g id="g11" clip-path="url(#clip1)" style="stroke-width:1;stroke-linecap:square;stroke-linejoin:miter;stroke-miterlimit:10;stroke-dasharray:none;stroke-dashoffset:0">
    <g id="g13" style="fill:none;stroke:#000000;stroke-width:2;stroke-linecap:butt;stroke-opacity:1">
      <path id="path15" d="m 282.23,3 0,466" />
    </g>
  </g>
  <g id="g20" clip-path="url(#clip2)" style="stroke-width:1;stroke-linecap:square;stroke-linejoin:miter;stroke-miterlimit:10;stroke-dasharray:none;stroke-dashoffset:0">
    <g id="g22" style="fill:#000000;fill-opacity:1;fill-rule:evenodd;stroke:none">
      <path id="path24" d="m 282.23,2 -5,20 10,0" />
    </g>
  </g>
  <g id="g29" clip-path="url(#clip3)" style="stroke-width:1;stroke-linecap:square;stroke-linejoin:miter;stroke-miterlimit:10;stroke-dasharray:none;stroke-dashoffset:0">
    <g id="g31" style="fill:none;stroke:#000000;stroke-width:2;stroke-linecap:butt;stroke-opacity:1">
      <path id="path33" d="m 0,229.54 577,0" />
    </g>
  </g>
  <g id="g38" clip-path="url(#clip4)" style="stroke-width:1;stroke-linecap:square;stroke-linejoin:miter;stroke-miterlimit:10;stroke-dasharray:none;stroke-dashoffset:0">
    <g id="g40" style="fill:#000000;fill-opacity:1;fill-rule:evenodd;stroke:none">
      <path id="path42" d="m 578,229.54 -20,-5 0,10" />
    </g>
  </g>
  <g id="misc" style="stroke-width:1;stroke-linecap:square;stroke-linejoin:miter;stroke-miterlimit:10;stroke-dasharray:none;stroke-dashoffset:0" />
  <path id="path4227" d="m 559.58059,251.53203 -0.9315,-2.592 c -0.6075,-1.5795 -1.4985,-3.564 -3.6045,-4.698 l -6.318,1.5795 0.1215,0.8505 c 0.486,-0.2025 1.215,-0.2835 1.8225,-0.2835 2.6325,0 3.888,1.944 4.698,4.2525 l 1.5795,4.4145 -3.1185,4.8195 c -1.539,2.349 -2.754,2.835 -3.3615,2.835 -1.1745,0 -1.0125,-0.972 -2.2275,-0.972 -1.215,0 -1.8225,1.0125 -1.8225,1.782 0,1.053 0.7695,2.2275 2.4705,2.2275 2.7135,0 4.0905,-2.0655 5.6295,-4.374 l 3.0375,-4.698 1.9035,5.3865 c 0.6075,1.7415 1.539,3.6855 3.483,3.6855 2.7945,0 4.941,-4.5765 5.5485,-5.3055 l -0.6885,-0.486 c -1.0125,2.0655 -2.1465,2.754 -2.916,2.754 -2.187,0 -3.2805,-6.48 -4.698,-9.4365 l 2.6325,-4.05 c 0.648,-1.053 1.1745,-1.8225 2.6325,-1.8225 0.81,0 1.053,0.405 2.106,0.405 1.2555,0 1.863,-1.0935 1.863,-1.9845 0,-1.0125 -0.81,-1.5795 -2.349,-1.5795 -2.3895,0 -4.0905,2.106 -5.3055,4.0095 z" style="font-style:normal;font-variant:normal;font-weight:normal;font-stretch:normal;letter-spacing:normal;word-spacing:normal;text-anchor:start;fill:#000000;fill-opacity:1;fill-rule:evenodd;stroke:#000000;stroke-width:0;stroke-linecap:butt;stroke-linejoin:miter;stroke-miterlimit:10.43299961;stroke-dasharray:none;stroke-dashoffset:0;stroke-opacity:1" />
  <path id="path4229" d="m 258.56211,15.360811 -0.0405,-0.324 -0.0405,-0.324 -0.0405,-0.2835 -0.0405,-0.2835 -0.0405,-0.2835 -0.0405,-0.2835 -0.0405,-0.243 -0.0405,-0.243 -0.0405,-0.243 -0.0405,-0.2025 -0.0405,-0.243 -0.0405,-0.2025 -0.0405,-0.2025 -0.0405,-0.162 -0.081,-0.2025 -0.0405,-0.2025 -0.0405,-0.162 -0.081,-0.162 -0.0405,-0.162 -0.0405,-0.162 -0.162,-0.324 -0.1215,-0.2835 -0.162,-0.3240003 -0.162,-0.2835 -0.162,-0.2835 -0.2025,-0.2835 -7.209,1.2150003 0.081,0.729 c 0.4455,-0.0405 1.215,-0.162 1.7415,-0.162 2.673,0 3.1185,2.8755 3.3615,5.022 l 1.8225,14.985 c -1.2555,1.943999 -3.969,4.9005 -4.779,4.9005 -0.7695,0 -0.6885,-1.4985 -2.754,-1.4985 -0.6075,0 -1.9035,0.526499 -1.9035,1.984499 0,1.134 0.891,2.592 2.673,2.592 3.24,0 6.3585,-4.657499 9.882,-9.071999 2.025,-2.511 9.801,-14.013 9.801,-17.739 0,-1.863 -1.215,-2.9565003 -2.754,-2.9565003 -1.377,0 -2.268,0.8505 -2.268,1.9035003 0,1.8225 2.511,2.3085 2.511,3.321 0,0.8505 -0.3645,1.8225 -1.3365,3.564 -1.053,1.9845 -2.754,4.8195 -5.67,8.829 z" style="font-style:normal;font-variant:normal;font-weight:normal;font-stretch:normal;letter-spacing:normal;word-spacing:normal;text-anchor:start;fill:#000000;fill-opacity:1;fill-rule:evenodd;stroke:#000000;stroke-width:0;stroke-linecap:butt;stroke-linejoin:miter;stroke-miterlimit:10.43299961;stroke-dasharray:none;stroke-dashoffset:0;stroke-opacity:1" />
  <rect y="92.427361" x="0.70261252" height="271.7966" width="576.38336" id="rect4193" style="fill:#8064a2;fill-rule:nonzero;stroke:none;stroke-width:1.5;stroke-linecap:square;stroke-linejoin:round;stroke-miterlimit:4;stroke-dasharray:none;stroke-dashoffset:0;fill-opacity:0.5;stroke-opacity:0.5" />
</svg>