<?xml version='1.0' ?><svg xmlns:dc="http://purl.org/dc/elements/1.1/" xmlns:cc="http://creativecommons.org/ns#" xmlns:rdf="http://www.w3.org/1999/02/22-rdf-syntax-ns#" xmlns:svg="http://www.w3.org/2000/svg" xmlns="http://www.w3.org/2000/svg" id="svg5539" version="1.1" width="770.66668" height="625.33335" viewBox="0.0 0.0 616.533344 500.26668" preserveAspectRatio="none">
  <metadata id="metadata5600">
    <rdf:RDF>
      <cc:Work rdf:about="">
        <dc:format>image/svg+xml</dc:format>
        <dc:type rdf:resource="http://purl.org/dc/dcmitype/StillImage" />
        <dc:title />
      </cc:Work>
    </rdf:RDF>
  </metadata>
  <defs id="defs5598" />
  <g stroke-linejoin="miter" stroke-dashoffset="0.0000" stroke-dasharray="none" stroke-width="1.0000" stroke-miterlimit="10.000" stroke-linecap="square" id="g5543">
    <clipPath id="clip1">
      <path d="M 0.0000 0.0000 L 0.0000 469.00 L 580.00 469.00 L 580.00 0.0000 z" id="path5546" />
    </clipPath>
    <g clip-path="url(#clip1)" id="g5548">
      <g stroke-width="2.0000" stroke-linecap="butt" fill="none" stroke-opacity="1.0000" stroke="#000000" id="g5550">
        <path d="M 255.85 3.0000 L 255.85 469.00" id="path5552" />
      </g>
    </g>
    <clipPath id="clip2">
      <path d="M 0.0000 0.0000 L 0.0000 469.00 L 580.00 469.00 L 580.00 0.0000 z" id="path5555" />
    </clipPath>
    <g clip-path="url(#clip2)" id="g5557">
      <g fill-opacity="1.0000" fill-rule="evenodd" stroke="none" fill="#000000" id="g5559">
        <path d="M 255.85 2.0000 L 250.85 22.000 L 260.85 22.000" id="path5561" />
      </g>
    </g>
    <clipPath id="clip3">
      <path d="M 0.0000 0.0000 L 0.0000 469.00 L 580.00 469.00 L 580.00 0.0000 z" id="path5564" />
    </clipPath>
    <g clip-path="url(#clip3)" id="g5566">
      <g stroke-width="2.0000" stroke-linecap="butt" fill="none" stroke-opacity="1.0000" stroke="#000000" id="g5568">
        <path d="M 0.0000 328.99 L 577.00 328.99" id="path5570" />
      </g>
    </g>
    <clipPath id="clip4">
      <path d="M 0.0000 0.0000 L 0.0000 469.00 L 580.00 469.00 L 580.00 0.0000 z" id="path5573" />
    </clipPath>
    <g clip-path="url(#clip4)" id="g5575">
      <g fill-opacity="1.0000" fill-rule="evenodd" stroke="none" fill="#000000" id="g5577">
        <path d="M 578.00 328.99 L 558.00 323.99 L 558.00 333.99" id="path5579" />
      </g>
    </g>
    <g id="misc" />
    <g id="layer0">
      <clipPath id="clip5">
        <path d="M 0.0000 0.0000 L 0.0000 469.00 L 580.00 469.00 L 580.00 0.0000 z" id="path5584" />
      </clipPath>
      <g clip-path="url(#clip5)" id="g5586">
        <g stroke-linejoin="round" stroke-width="2.5000" stroke-linecap="round" fill="none" stroke-opacity="1.0000" stroke="#000000" id="g5588">
          <path d="M 120.19 -10.000 L 120.46 -10.000 L 121.83 -3.1885 L 121.83 -3.1885 L 121.83 -3.1885 L 123.46 4.8640 L 123.46 4.8640 L 125.10 12.818 L 126.73 20.673 L 128.37 28.429 L 130.00 36.086 L 131.64 43.645 L 133.27 51.104 L 134.90 58.465 L 136.54 65.727 L 138.17 72.891 L 139.81 79.955 L 141.44 86.921 L 143.08 93.788 L 144.71 100.56 L 146.35 107.23 L 147.98 113.80 L 149.61 120.27 L 151.25 126.64 L 152.88 132.91 L 154.52 139.09 L 156.15 145.17 L 157.79 151.14 L 159.42 157.02 L 161.06 162.80 L 162.69 168.48 L 164.32 174.07 L 165.96 179.55 L 167.59 184.93 L 169.23 190.22 L 170.86 195.41 L 172.50 200.50 L 174.13 205.49 L 177.40 215.17 L 180.67 224.46 L 183.94 233.35 L 187.21 241.85 L 190.47 249.95 L 193.74 257.65 L 197.01 264.97 L 200.28 271.88 L 203.55 278.40 L 206.82 284.53 L 210.09 290.26 L 213.36 295.60 L 216.63 300.54 L 223.16 309.23 L 229.70 316.34 L 236.24 321.88 L 242.78 325.83 L 246.05 327.21 L 249.31 328.20 L 255.85 328.99 L 257.49 328.94 L 259.12 328.79 L 262.39 328.20 L 268.93 325.83 L 272.20 324.05 L 275.47 321.88 L 282.00 316.34 L 288.54 309.23 L 295.08 300.54 L 298.35 295.60 L 301.62 290.26 L 304.89 284.53 L 308.15 278.40 L 311.42 271.88 L 314.69 264.97 L 317.96 257.65 L 321.23 249.95 L 324.50 241.85 L 327.77 233.35 L 331.04 224.46 L 334.31 215.17 L 337.57 205.49 L 339.21 200.50 L 340.84 195.41 L 342.48 190.22 L 344.11 184.93 L 345.75 179.55 L 347.38 174.07 L 349.02 168.48 L 350.65 162.80 L 352.28 157.02 L 353.92 151.14 L 355.55 145.17 L 357.19 139.09 L 358.82 132.91 L 360.46 126.64 L 362.09 120.27 L 363.73 113.80 L 365.36 107.23 L 366.99 100.56 L 368.63 93.788 L 370.26 86.921 L 371.90 79.955 L 373.53 72.891 L 375.17 65.727 L 376.80 58.465 L 378.44 51.104 L 380.07 43.645 L 381.70 36.086 L 383.34 28.429 L 384.97 20.673 L 386.61 12.818 L 388.24 4.8640 L 388.24 4.8640 L 389.88 -3.1885 L 389.88 -3.1885 L 389.88 -3.1885 L 391.24 -10.000 L 391.51 -10.000" id="path5590" />
          <title id="title5592">Curve a</title>
          <desc id="desc5594">Curve a: Curve[2t, tÃ&#131;Â&#130;Ã&#130;Â², t, -30, 30]</desc>
        </g>
      </g>
    </g>
  </g>
  <path id="path6178" d="m 557.5933,346.92187 -0.9315,-2.592 c -0.6075,-1.5795 -1.4985,-3.564 -3.6045,-4.698 l -6.318,1.5795 0.1215,0.8505 c 0.486,-0.2025 1.215,-0.2835 1.8225,-0.2835 2.6325,0 3.888,1.944 4.698,4.2525 l 1.5795,4.4145 -3.1185,4.8195 c -1.539,2.349 -2.754,2.835 -3.3615,2.835 -1.1745,0 -1.0125,-0.972 -2.2275,-0.972 -1.215,0 -1.8225,1.0125 -1.8225,1.782 0,1.053 0.7695,2.2275 2.4705,2.2275 2.7135,0 4.0905,-2.0655 5.6295,-4.374 l 3.0375,-4.698 1.9035,5.3865 c 0.6075,1.7415 1.539,3.6855 3.483,3.6855 2.7945,0 4.941,-4.5765 5.5485,-5.3055 l -0.6885,-0.486 c -1.0125,2.0655 -2.1465,2.754 -2.916,2.754 -2.187,0 -3.2805,-6.48 -4.698,-9.4365 l 2.6325,-4.05 c 0.648,-1.053 1.1745,-1.8225 2.6325,-1.8225 0.81,0 1.053,0.405 2.106,0.405 1.2555,0 1.863,-1.0935 1.863,-1.9845 0,-1.0125 -0.81,-1.5795 -2.349,-1.5795 -2.3895,0 -4.0905,2.106 -5.3055,4.0095 z" style="font-style:normal;font-variant:normal;font-weight:normal;font-stretch:normal;letter-spacing:normal;word-spacing:normal;text-anchor:start;fill:#000000;fill-opacity:1;fill-rule:evenodd;stroke:#000000;stroke-width:0;stroke-linecap:butt;stroke-linejoin:miter;stroke-miterlimit:10.43299961;stroke-dasharray:none;stroke-dashoffset:0;stroke-opacity:1" />
  <path id="path6180" d="m 226.76549,19.335387 -0.0405,-0.324 -0.0405,-0.324 -0.0405,-0.2835 -0.0405,-0.2835 -0.0405,-0.2835 -0.0405,-0.2835 -0.0405,-0.243 -0.0405,-0.243 -0.0405,-0.243 -0.0405,-0.2025 -0.0405,-0.243 -0.0405,-0.2025 -0.0405,-0.2025 -0.0405,-0.162 -0.081,-0.2025 -0.0405,-0.2025 -0.0405,-0.162 -0.081,-0.162 -0.0405,-0.162 -0.0405,-0.162 -0.162,-0.324 -0.1215,-0.2835 -0.162,-0.324 -0.162,-0.2835 -0.162,-0.2835 -0.2025,-0.2835 -7.209,1.215 0.081,0.729 c 0.4455,-0.0405 1.215,-0.162 1.7415,-0.162 2.673,0 3.1185,2.8755 3.3615,5.022 l 1.8225,14.984999 c -1.2555,1.944 -3.969,4.9005 -4.779,4.9005 -0.7695,0 -0.6885,-1.4985 -2.754,-1.4985 -0.6075,0 -1.9035,0.5265 -1.9035,1.9845 0,1.134 0.891,2.592 2.673,2.592 3.24,0 6.3585,-4.6575 9.882,-9.072 2.025,-2.511 9.801,-14.012999 9.801,-17.738999 0,-1.863 -1.215,-2.9565 -2.754,-2.9565 -1.377,0 -2.268,0.8505 -2.268,1.9035 0,1.8225 2.511,2.3085 2.511,3.321 0,0.8505 -0.3645,1.8225 -1.3365,3.564 -1.053,1.9845 -2.754,4.8195 -5.67,8.829 z" style="font-style:normal;font-variant:normal;font-weight:normal;font-stretch:normal;letter-spacing:normal;word-spacing:normal;text-anchor:start;fill:#000000;fill-opacity:1;fill-rule:evenodd;stroke:#000000;stroke-width:0;stroke-linecap:butt;stroke-linejoin:miter;stroke-miterlimit:10.43299961;stroke-dasharray:none;stroke-dashoffset:0;stroke-opacity:1" />
</svg>