<?xml version='1.0' ?><svg xmlns:dc="http://purl.org/dc/elements/1.1/" xmlns:cc="http://creativecommons.org/ns#" xmlns:rdf="http://www.w3.org/1999/02/22-rdf-syntax-ns#" xmlns:svg="http://www.w3.org/2000/svg" xmlns="http://www.w3.org/2000/svg" id="svg4496" version="1.1" width="775.04248" height="622.66668" viewBox="-4.263256414560601e-14 2.0000000250000003 581.28186 467.00001000000003" preserveAspectRatio="none">
  <metadata id="metadata4557">
    <rdf:RDF>
      <cc:Work rdf:about="">
        <dc:format>image/svg+xml</dc:format>
        <dc:type rdf:resource="http://purl.org/dc/dcmitype/StillImage" />
        <dc:title />
      </cc:Work>
    </rdf:RDF>
  </metadata>
  <defs id="defs4555">
    <clipPath id="clip1">
      <path id="path4503" d="M 0.0000 0.0000 L 0.0000 469.00 L 580.00 469.00 L 580.00 0.0000 z" />
    </clipPath>
    <clipPath id="clip2">
      <path id="path4512" d="M 0.0000 0.0000 L 0.0000 469.00 L 580.00 469.00 L 580.00 0.0000 z" />
    </clipPath>
    <clipPath id="clip3">
      <path id="path4521" d="M 0.0000 0.0000 L 0.0000 469.00 L 580.00 469.00 L 580.00 0.0000 z" />
    </clipPath>
    <clipPath id="clip4">
      <path id="path4530" d="M 0.0000 0.0000 L 0.0000 469.00 L 580.00 469.00 L 580.00 0.0000 z" />
    </clipPath>
    <clipPath id="clipPath5004" clipPathUnits="userSpaceOnUse">
      <rect y="80.485176" x="0.99364412" height="332.87079" width="580.28821" id="rect5006" style="fill:#000000;fill-rule:nonzero;stroke:#000000;stroke-width:2.5;stroke-linecap:square;stroke-linejoin:round;stroke-miterlimit:10;stroke-dasharray:none;stroke-dashoffset:0;fill-opacity:1.0;stroke-opacity:1.0" />
    </clipPath>
  </defs>
  <g id="g4505" clip-path="url(#clip1)" style="stroke-width:1;stroke-linecap:square;stroke-linejoin:miter;stroke-miterlimit:10;stroke-dasharray:none;stroke-dashoffset:0">
    <g id="g4507" style="fill:none;stroke:#000000;stroke-width:2;stroke-linecap:butt;stroke-opacity:1">
      <path id="path4509" d="m 274.85,3 0,466" />
    </g>
  </g>
  <g id="g4514" clip-path="url(#clip2)" style="stroke-width:1;stroke-linecap:square;stroke-linejoin:miter;stroke-miterlimit:10;stroke-dasharray:none;stroke-dashoffset:0">
    <g id="g4516" style="fill:#000000;fill-opacity:1;fill-rule:evenodd;stroke:none">
      <path id="path4518" d="m 274.85,2 -5,20 10,0" />
    </g>
  </g>
  <g id="g4523" clip-path="url(#clip3)" style="stroke-width:1;stroke-linecap:square;stroke-linejoin:miter;stroke-miterlimit:10;stroke-dasharray:none;stroke-dashoffset:0">
    <g id="g4525" style="fill:none;stroke:#000000;stroke-width:2;stroke-linecap:butt;stroke-opacity:1">
      <path id="path4527" d="m 0,239.99 577,0" />
    </g>
  </g>
  <g id="g4532" clip-path="url(#clip4)" style="stroke-width:1;stroke-linecap:square;stroke-linejoin:miter;stroke-miterlimit:10;stroke-dasharray:none;stroke-dashoffset:0">
    <g id="g4534" style="fill:#000000;fill-opacity:1;fill-rule:evenodd;stroke:none">
      <path id="path4536" d="m 578,239.99 -20,-5 0,10" />
    </g>
  </g>
  <g id="misc" style="stroke-width:1;stroke-linecap:square;stroke-linejoin:miter;stroke-miterlimit:10;stroke-dasharray:none;stroke-dashoffset:0" />
  <path clip-path="url(#clipPath5004)" d="m -8.4504,147.37983 4.3585,16.94537 2.1792,9.18663 2.17927,9.58231 2.17923,9.92637 2.1793,10.20163 2.1792,10.40807 2.1793,10.5629 2.1794,10.66612 2.179,10.68333 2.179,10.63171 2.18,10.5285 2.179,10.37366 2.179,10.11561 2.179,9.84036 2.18,9.47909 2.179,9.0662 2.179,8.58451 4.359,15.5863 4.358,13.10901 4.359,10.33925 4.358,7.29425 1.09,1.34187 1.089,1.11822 2.18,1.63433 1.089,0.5161 1.09,0.29246 2.179,-0.0172 1.09,-0.32687 1.089,-0.53331 2.18,-1.68593 2.179,-2.5117 2.179,-3.30306 4.359,-8.94578 4.358,-11.85315 4.359,-14.45088 4.358,-16.73893 2.179,-9.10061 2.18,-9.49629 2.179,-9.85756 2.179,-10.13281 2.18,-10.37367 2.179,-10.5457 2.179,-10.64891 2.177,-10.68333 2.18,-10.64892 2.18,-10.5629 2.18,-10.40807 2.18,-10.18442 2.18,-9.89197 2.18,-9.5651 2.18,-9.15223 2.18,-8.70493 4.35,-15.80994 4.36,-13.38426 4.36,-10.64892 4.36,-7.63832 1.09,-1.41068 1.09,-1.22145 2.18,-1.80635 1.09,-0.60212 1.09,-0.37848 2.18,-0.15483 1.09,0.24085 1.09,0.44729 2.18,1.5139 2.18,2.32246 2.17,3.14823 4.36,8.61891 4.36,11.5435 4.36,14.21002 4.36,16.49809 2.18,8.99738 2.18,9.42748 2.18,9.78875 2.18,10.0812 2.17,10.32206 2.18,10.51129 2.18,10.63171 2.18,10.68333 2.18,10.66612 2.18,10.5801 2.18,10.44248 2.18,10.23604 2.18,9.97798 2.18,9.63392 2.18,9.23823 2.18,8.80816 4.35,16.05079 4.36,13.65952 4.36,10.95858 4.36,7.96518 2.18,2.78695 2.18,1.9956 1.09,0.68814 1.09,0.46449 2.18,0.32687 1.09,-0.13763 1.09,-0.36127 2.18,-1.34187 1.09,-0.9806 1.09,-1.16983 2.17,-2.97619 4.36,-8.29205 4.36,-11.25104 4.36,-13.93477 4.36,-16.29164 2.18,-8.89417 2.18,-9.34146 2.18,-9.70273 2.18,-10.02959 2.17,-10.28765 2.18,-10.47688 2.18,-10.59731 2.18,-10.68333 2.18,-10.66612 2.18,-10.61451 2.18,-10.47688 2.18,-10.28765 2.18,-10.02959 2.18,-9.70273 2.18,-9.34146 2.18,-8.89417 4.36,-16.29164 4.35,-13.93477 4.36,-11.25104 4.36,-8.29205 2.18,-2.97619 2.18,-2.15043 1.09,-0.77415 1.09,-0.56772 2.18,-0.4989 1.09,0.0516 1.09,0.27526 2.18,1.15263 1.09,0.89457 1.09,1.10102 2.17,2.80416 4.36,7.94798 4.36,10.95858 4.36,13.65952 4.36,16.05079 2.18,8.80815 2.18,9.25545 2.18,9.63391 2.18,9.96078 2.18,10.23604 2.17,10.44248 2.18,10.5801 2.18,10.66612 2.18,10.68333 2.18,10.63171 2.18,10.51129 2.18,10.32206 2.18,10.09841 2.18,9.77154 2.18,9.42747 2.18,8.99739 4.36,16.49809 4.35,14.21002 4.36,11.5607 4.36,8.60171 2.18,3.14823 2.18,2.33966 2.18,1.4967 1.09,0.44729 1.09,0.24085 2.18,-0.15483 1.09,-0.37848 1.09,-0.60212 2.18,-1.80636 2.17,-2.63212 2.18,-3.42348 2.18,-4.21484 4.36,-10.63171 4.36,-13.40147 4.36,-15.80994 2.18,-8.70494 2.18,-9.15222 2.18,-9.5651 2.18,-9.89197 2.18,-10.18442 2.17,-10.40807 2.18,-10.5629 2.18,-10.64892 2.18,-10.68333 2.18,-10.64892 2.18,-10.54569 2.18,-10.37367 2.18,-10.13281 2.18,-9.85756 2.18,-9.49629 2.18,-9.10061 4.36,-16.72173 4.35,-14.46808 4.36,-11.85315 4.36,-8.94578 2.18,-3.30306 2.18,-2.5117 2.18,-1.68593 1.09,-0.53331 1.09,-0.32687 2.18,-0.0172 1.09,0.29246 1.09,0.51611 2.18,1.63432 2.18,2.46009 2.17,3.25145 2.18,4.0428 4.36,10.33926 4.36,13.109 4.36,15.5863 2.18,8.58451 2.18,9.0662 2.18,9.47909 2.18,9.84035 2.18,10.11562 2.17,10.37366 2.18,10.52849 2.18,10.64892 2.18,10.66612 2.18,10.66613 2.18,10.5629 2.18,10.42527 2.18,10.18443 2.18,9.92637 2.18,9.58231 2.18,9.18662 4.36,16.94538 4.35,14.72612 4.36,12.14562 4.36,9.25544 2.18,3.47509 2.18,2.68374 2.18,1.85797 1.09,0.61932 1.09,0.41288 2.18,0.20644 1.09,-0.20644 1.09,-0.43008 2.18,-1.46229" id="path4547" style="fill:none;stroke:#000000;stroke-width:2.5;stroke-linecap:round;stroke-linejoin:round;stroke-miterlimit:10;stroke-dasharray:none;stroke-dashoffset:0;stroke-opacity:1" />
  <path id="path5135" d="m 565.54245,259.48118 -0.9315,-2.592 c -0.6075,-1.5795 -1.4985,-3.564 -3.6045,-4.698 l -6.318,1.5795 0.1215,0.8505 c 0.486,-0.2025 1.215,-0.2835 1.8225,-0.2835 2.6325,0 3.888,1.944 4.698,4.2525 l 1.5795,4.4145 -3.1185,4.8195 c -1.539,2.349 -2.754,2.835 -3.3615,2.835 -1.1745,0 -1.0125,-0.972 -2.2275,-0.972 -1.215,0 -1.8225,1.0125 -1.8225,1.782 0,1.053 0.7695,2.2275 2.4705,2.2275 2.7135,0 4.0905,-2.0655 5.6295,-4.374 l 3.0375,-4.698 1.9035,5.3865 c 0.6075,1.7415 1.539,3.6855 3.483,3.6855 2.7945,0 4.941,-4.5765 5.5485,-5.3055 l -0.6885,-0.486 c -1.0125,2.0655 -2.1465,2.754 -2.916,2.754 -2.187,0 -3.2805,-6.48 -4.698,-9.4365 l 2.6325,-4.05 c 0.648,-1.053 1.1745,-1.8225 2.6325,-1.8225 0.81,0 1.053,0.405 2.106,0.405 1.2555,0 1.863,-1.0935 1.863,-1.9845 0,-1.0125 -0.81,-1.5795 -2.349,-1.5795 -2.3895,0 -4.0905,2.106 -5.3055,4.0095 z" style="font-style:normal;font-variant:normal;font-weight:normal;font-stretch:normal;letter-spacing:normal;word-spacing:normal;text-anchor:start;fill:#000000;fill-opacity:1;fill-rule:evenodd;stroke:#000000;stroke-width:0;stroke-linecap:butt;stroke-linejoin:miter;stroke-miterlimit:10.43299961;stroke-dasharray:none;stroke-dashoffset:0;stroke-opacity:1" />
  <path id="path5137" d="m 246.63838,17.3481 -0.0405,-0.324 -0.0405,-0.324 -0.0405,-0.2835 -0.0405,-0.2835 -0.0405,-0.283501 -0.0405,-0.2835 -0.0405,-0.243 -0.0405,-0.243 -0.0405,-0.243 -0.0405,-0.2025 -0.0405,-0.243 -0.0405,-0.2025 -0.0405,-0.2025 -0.0405,-0.162 -0.081,-0.2025 -0.0405,-0.2025 -0.0405,-0.162 -0.081,-0.162 -0.0405,-0.162 -0.0405,-0.162 -0.162,-0.324 -0.1215,-0.2835 -0.162,-0.324 -0.162,-0.2835 -0.162,-0.2835 -0.2025,-0.2835 -7.209,1.215 0.081,0.729 c 0.4455,-0.0405 1.215,-0.162 1.7415,-0.162 2.673,0 3.1185,2.8755 3.3615,5.022001 l 1.8225,14.985 c -1.2555,1.944 -3.969,4.9005 -4.779,4.9005 -0.7695,0 -0.6885,-1.4985 -2.754,-1.4985 -0.6075,0 -1.9035,0.5265 -1.9035,1.9845 0,1.134 0.891,2.592 2.673,2.592 3.24,0 6.3585,-4.6575 9.882,-9.072 2.025,-2.511 9.801,-14.013 9.801,-17.739001 0,-1.863 -1.215,-2.9565 -2.754,-2.9565 -1.377,0 -2.268,0.8505 -2.268,1.9035 0,1.8225 2.511,2.3085 2.511,3.321001 0,0.8505 -0.3645,1.8225 -1.3365,3.564 -1.053,1.9845 -2.754,4.8195 -5.67,8.829 z" style="font-style:normal;font-variant:normal;font-weight:normal;font-stretch:normal;letter-spacing:normal;word-spacing:normal;text-anchor:start;fill:#000000;fill-opacity:1;fill-rule:evenodd;stroke:#000000;stroke-width:0;stroke-linecap:butt;stroke-linejoin:miter;stroke-miterlimit:10.43299961;stroke-dasharray:none;stroke-dashoffset:0;stroke-opacity:1" />
</svg>