<?xml version='1.0' ?><svg xmlns:ns0="http://www.iki.fi/pav/software/textext/" xmlns:dc="http://purl.org/dc/elements/1.1/" xmlns:cc="http://creativecommons.org/ns#" xmlns:rdf="http://www.w3.org/1999/02/22-rdf-syntax-ns#" xmlns:svg="http://www.w3.org/2000/svg" xmlns="http://www.w3.org/2000/svg" id="svg2" version="1.1" width="332.38625" height="223.99998" viewBox="1.975336910484987 876.887352906121 329.1555453745026 221.82276066106127" preserveAspectRatio="none">
  <metadata id="metadata801">
    <rdf:RDF>
      <cc:Work rdf:about="">
        <dc:format>image/svg+xml</dc:format>
        <dc:type rdf:resource="http://purl.org/dc/dcmitype/StillImage" />
        <dc:title />
      </cc:Work>
    </rdf:RDF>
  </metadata>
  <defs id="defs799">
    <clipPath id="clipPath5247" clipPathUnits="userSpaceOnUse">
      <rect ry="1.7317915" y="-17.422874" x="1.9753369" height="312.10321" width="475.06854" id="rect5249" style="fill:none;stroke:#000000;stroke-width:2.1125977;stroke-linejoin:miter;stroke-miterlimit:4;stroke-dasharray:none;stroke-dashoffset:0;fill-opacity:1.0;stroke-opacity:1.0" />
    </clipPath>
  </defs>
  <g transform="translate(0,804.02979)" style="stroke-width:1;stroke-linecap:square;stroke-linejoin:miter;stroke-miterlimit:10;stroke-dasharray:none;stroke-dashoffset:0" id="g6" stroke-miterlimit="10.000">
    <clipPath id="clip1">
      <path id="path9" d="m 0,0 0,309 435,0 0,-309 z" />
    </clipPath>
    <clipPath id="clip2">
      <path id="path18" d="m 0,0 0,309 435,0 0,-309 z" />
    </clipPath>
    <clipPath id="clip3">
      <path id="path27" d="m 0,0 0,309 435,0 0,-309 z" />
    </clipPath>
    <clipPath id="clip4">
      <path id="path36" d="m 0,0 0,309 435,0 0,-309 z" />
    </clipPath>
    <clipPath id="clip5">
      <path id="path45" d="m 0,0 0,309 435,0 0,-309 z" />
    </clipPath>
    <clipPath id="clip6">
      <path id="path54" d="m 0,0 0,309 435,0 0,-309 z" />
    </clipPath>
    <clipPath id="clip7">
      <path id="path63" d="m 0,0 0,309 435,0 0,-309 z" />
    </clipPath>
    <clipPath id="clip8">
      <path id="path72" d="m 0,0 0,309 435,0 0,-309 z" />
    </clipPath>
    <clipPath id="clip9">
      <path id="path81" d="m 0,0 0,309 435,0 0,-309 z" />
    </clipPath>
    <clipPath id="clip10">
      <path id="path90" d="m 0,0 0,309 435,0 0,-309 z" />
    </clipPath>
    <clipPath id="clip11">
      <path id="path99" d="m 0,0 0,309 435,0 0,-309 z" />
    </clipPath>
    <clipPath id="clip12">
      <path id="path108" d="m 0,0 0,309 435,0 0,-309 z" />
    </clipPath>
    <clipPath id="clip13">
      <path id="path117" d="m 0,0 0,309 435,0 0,-309 z" />
    </clipPath>
    <clipPath id="clip14">
      <path id="path126" d="m 0,0 0,309 435,0 0,-309 z" />
    </clipPath>
    <clipPath id="clip15">
      <path id="path135" d="m 0,0 0,309 435,0 0,-309 z" />
    </clipPath>
    <clipPath id="clip16">
      <path id="path144" d="m 0,0 0,309 435,0 0,-309 z" />
    </clipPath>
    <clipPath id="clip17">
      <path id="path153" d="m 0,0 0,309 435,0 0,-309 z" />
    </clipPath>
    <clipPath id="clip18">
      <path id="path162" d="m 0,0 0,309 435,0 0,-309 z" />
    </clipPath>
    <clipPath id="clip19">
      <path id="path171" d="m 0,0 0,309 435,0 0,-309 z" />
    </clipPath>
    <clipPath id="clip20">
      <path id="path180" d="m 0,0 0,309 435,0 0,-309 z" />
    </clipPath>
    <clipPath id="clip21">
      <path id="path189" d="m 0,0 0,309 435,0 0,-309 z" />
    </clipPath>
    <clipPath id="clip22">
      <path id="path198" d="m 0,0 0,309 435,0 0,-309 z" />
    </clipPath>
    <clipPath id="clip23">
      <path id="path207" d="m 0,0 0,309 435,0 0,-309 z" />
    </clipPath>
    <clipPath id="clip24">
      <path id="path216" d="m 0,0 0,309 435,0 0,-309 z" />
    </clipPath>
    <clipPath id="clip25">
      <path id="path225" d="m 0,0 0,309 435,0 0,-309 z" />
    </clipPath>
    <clipPath id="clip26">
      <path id="path234" d="m 0,0 0,309 435,0 0,-309 z" />
    </clipPath>
    <clipPath id="clip27">
      <path id="path243" d="m 0,0 0,309 435,0 0,-309 z" />
    </clipPath>
    <clipPath id="clip28">
      <path id="path252" d="m 0,0 0,309 435,0 0,-309 z" />
    </clipPath>
    <clipPath id="clip29">
      <path id="path261" d="m 0,0 0,309 435,0 0,-309 z" />
    </clipPath>
    <clipPath id="clip30">
      <path id="path270" d="m 0,0 0,309 435,0 0,-309 z" />
    </clipPath>
    <clipPath id="clip31">
      <path id="path279" d="m 0,0 0,309 435,0 0,-309 z" />
    </clipPath>
    <clipPath id="clip32">
      <path id="path288" d="m 0,0 0,309 435,0 0,-309 z" />
    </clipPath>
    <clipPath id="clip33">
      <path id="path297" d="m 0,0 0,309 435,0 0,-309 z" />
    </clipPath>
    <clipPath id="clip34">
      <path id="path306" d="m 0,0 0,309 435,0 0,-309 z" />
    </clipPath>
    <clipPath id="clip35">
      <path id="path315" d="m 0,0 0,309 435,0 0,-309 z" />
    </clipPath>
    <clipPath id="clip36">
      <path id="path324" d="m 0,0 0,309 435,0 0,-309 z" />
    </clipPath>
    <clipPath id="clip37">
      <path id="path333" d="m 0,0 0,309 435,0 0,-309 z" />
    </clipPath>
    <clipPath id="clip38">
      <path id="path342" d="m 0,0 0,309 435,0 0,-309 z" />
    </clipPath>
    <clipPath id="clip39">
      <path id="path351" d="m 0,0 0,309 435,0 0,-309 z" />
    </clipPath>
    <clipPath id="clip40">
      <path id="path360" d="m 0,0 0,309 435,0 0,-309 z" />
    </clipPath>
    <clipPath id="clip41">
      <path id="path369" d="m 0,0 0,309 435,0 0,-309 z" />
    </clipPath>
    <clipPath id="clip42">
      <path id="path378" d="m 0,0 0,309 435,0 0,-309 z" />
    </clipPath>
    <clipPath id="clip43">
      <path id="path387" d="m 0,0 0,309 435,0 0,-309 z" />
    </clipPath>
    <clipPath id="clip44">
      <path id="path396" d="m 0,0 0,309 435,0 0,-309 z" />
    </clipPath>
    <clipPath id="clip45">
      <path id="path405" d="m 0,0 0,309 435,0 0,-309 z" />
    </clipPath>
    <clipPath id="clip46">
      <path id="path414" d="m 0,0 0,309 435,0 0,-309 z" />
    </clipPath>
    <clipPath id="clip47">
      <path id="path423" d="m 0,0 0,309 435,0 0,-309 z" />
    </clipPath>
    <clipPath id="clip48">
      <path id="path432" d="m 0,0 0,309 435,0 0,-309 z" />
    </clipPath>
    <clipPath id="clip49">
      <path id="path441" d="m 0,0 0,309 435,0 0,-309 z" />
    </clipPath>
    <clipPath id="clip50">
      <path id="path450" d="m 0,0 0,309 435,0 0,-309 z" />
    </clipPath>
    <clipPath id="clip51">
      <path id="path459" d="m 0,0 0,309 435,0 0,-309 z" />
    </clipPath>
    <clipPath id="clip52">
      <path id="path468" d="m 0,0 0,309 435,0 0,-309 z" />
    </clipPath>
    <clipPath id="clip53">
      <path id="path477" d="m 0,0 0,309 435,0 0,-309 z" />
    </clipPath>
    <clipPath id="clip54">
      <path id="path486" d="m 0,0 0,309 435,0 0,-309 z" />
    </clipPath>
    <clipPath id="clip55">
      <path id="path495" d="m 0,0 0,309 435,0 0,-309 z" />
    </clipPath>
    <clipPath id="clip56">
      <path id="path504" d="m 0,0 0,309 435,0 0,-309 z" />
    </clipPath>
    <clipPath id="clip57">
      <path id="path513" d="m 0,0 0,309 435,0 0,-309 z" />
    </clipPath>
    <clipPath id="clip58">
      <path id="path522" d="m 0,0 0,309 435,0 0,-309 z" />
    </clipPath>
    <clipPath id="clip59">
      <path id="path531" d="m 0,0 0,309 435,0 0,-309 z" />
    </clipPath>
    <clipPath id="clip60">
      <path id="path540" d="m 0,0 0,309 435,0 0,-309 z" />
    </clipPath>
    <g transform="matrix(0.70328017,0,0,0.70328017,0.58612162,87.437491)" id="misc" />
    <g transform="matrix(0.70328017,0,0,0.70328017,0.58612162,87.437491)" clip-path="url(#clipPath5247)" id="g4929">
      <g clip-path="url(#clip1)" id="g11">
        <g id="g13" style="fill:none;stroke:#000000;stroke-linecap:butt;stroke-opacity:1">
          <path d="m 26.359,2 0,307" id="path15" />
        </g>
      </g>
      <g clip-path="url(#clip2)" id="g20" transform="translate(0,-2.1125979)">
        <g id="g22" style="fill:#000000;fill-opacity:1;fill-rule:evenodd;stroke:none">
          <path d="m 26.359,1 -4,16 8,0" id="path24" />
        </g>
      </g>
      <g clip-path="url(#clip3)" id="g29">
        <g id="g31" style="fill:none;stroke:#000000;stroke-linecap:butt;stroke-opacity:1">
          <path d="m 0,276.36 433,0" id="path33" />
        </g>
      </g>
      <g clip-path="url(#clip4)" id="g38" transform="translate(2.1125979,0)">
        <g id="g40" style="fill:#000000;fill-opacity:1;fill-rule:evenodd;stroke:none">
          <path d="m 434,276.36 -16,-4 0,8" id="path42" />
        </g>
      </g>
      <g clip-path="url(#clip5)" id="g47">
        <g id="g49" style="fill:#000000;fill-opacity:1;fill-rule:nonzero;stroke:none">
          <path d="m 35.762,292.22 q -1.342,0 -2.171,-1.27 -0.829,-1.26 -0.829,-3.29 0,-2.05 0.835,-3.3 0.835,-1.25 2.2,-1.25 1.365,0 2.2,1.25 0.835,1.25 0.835,3.28 0,2.09 -0.835,3.33 -0.835,1.25 -2.235,1.25 z m 0.011,-0.87 q 1.834,0 1.834,-3.73 0,-3.64 -1.81,-3.64 -1.805,0 -1.805,3.68 0,3.69 1.781,3.69 z" id="path51" />
        </g>
      </g>
      <g clip-path="url(#clip6)" id="g56">
        <g id="g58" style="fill:none;stroke:#000000;stroke-linecap:butt;stroke-opacity:1">
          <path d="m 26.359,276.36 0,3" id="path60" />
        </g>
      </g>
      <g clip-path="url(#clip7)" id="g65">
        <g id="g67" style="fill:#000000;fill-opacity:1;fill-rule:nonzero;stroke:none">
          <path d="m 99.996,292 0,-1.01 q 0.504,-1.18 2.044,-2.57 l 0.66,-0.59 q 1.27,-1.16 1.27,-2.29 0,-0.73 -0.43,-1.15 -0.44,-0.41 -1.2,-0.41 -0.9,0 -2.13,0.7 l 0,-1.02 q 1.16,-0.55 2.29,-0.55 1.22,0 1.96,0.66 0.74,0.65 0.74,1.74 0,0.78 -0.37,1.38 -0.37,0.6 -1.39,1.47 l -0.44,0.38 q -1.39,1.17 -1.61,2.25 l 3.77,0 0,1.01 z" id="path69" />
        </g>
      </g>
      <g clip-path="url(#clip8)" id="g74">
        <g id="g76" style="fill:none;stroke:#000000;stroke-linecap:butt;stroke-opacity:1">
          <path d="m 101.56,276.36 0,3" id="path78" />
        </g>
      </g>
      <g clip-path="url(#clip9)" id="g83">
        <g id="g85" style="fill:#000000;fill-opacity:1;fill-rule:nonzero;stroke:none">
          <path d="m 178.52,292 0,-2.46 -3.9,0 0,-0.87 3.9,-5.34 1.08,0 0,5.27 1.16,0 0,0.94 -1.16,0 0,2.46 z m -2.77,-3.4 2.84,0 0,-3.85 z" id="path87" />
        </g>
      </g>
      <g clip-path="url(#clip10)" id="g92">
        <g id="g94" style="fill:none;stroke:#000000;stroke-linecap:butt;stroke-opacity:1">
          <path d="m 176.76,276.36 0,3" id="path96" />
        </g>
      </g>
      <g clip-path="url(#clip11)" id="g101">
        <g id="g103" style="fill:#000000;fill-opacity:1;fill-rule:nonzero;stroke:none">
          <path d="m 251.06,287.51 q 0.83,-1.08 2.08,-1.08 1.14,0 1.86,0.76 0.73,0.75 0.73,1.93 0,1.35 -0.81,2.22 -0.82,0.88 -2.06,0.88 -1.44,0 -2.25,-1.16 -0.81,-1.15 -0.81,-3.2 0,-2.26 0.93,-3.51 0.93,-1.24 2.62,-1.24 0.77,0 1.93,0.32 l 0,1.01 q -1.22,-0.47 -2,-0.47 -2.22,0 -2.22,3.54 z m 3.51,1.87 q 0,-0.99 -0.45,-1.55 -0.44,-0.56 -1.22,-0.56 -0.74,0 -1.26,0.49 -0.53,0.49 -0.53,1.18 0,1.09 0.5,1.75 0.5,0.66 1.33,0.66 0.74,0 1.18,-0.54 0.45,-0.53 0.45,-1.43 z" id="path105" />
        </g>
      </g>
      <g clip-path="url(#clip12)" id="g110">
        <g id="g112" style="fill:none;stroke:#000000;stroke-linecap:butt;stroke-opacity:1">
          <path d="m 251.96,276.36 0,3" id="path114" />
        </g>
      </g>
      <g clip-path="url(#clip13)" id="g119">
        <g id="g121" style="fill:#000000;fill-opacity:1;fill-rule:nonzero;stroke:none">
          <path d="m 327.76,287.28 q -1.27,-0.89 -1.27,-1.96 0,-0.98 0.72,-1.6 0.72,-0.61 1.88,-0.61 1.07,0 1.74,0.52 0.66,0.52 0.66,1.35 0,1.26 -1.61,2.3 1.96,0.96 1.96,2.48 0,1.09 -0.83,1.77 -0.82,0.69 -2.12,0.69 -1.28,0 -2.06,-0.65 -0.79,-0.65 -0.79,-1.7 0,-1.56 1.72,-2.59 z m 1.47,-0.37 q 1.21,-0.79 1.21,-1.77 0,-0.52 -0.4,-0.84 -0.41,-0.32 -1.07,-0.32 -0.64,0 -1.03,0.31 -0.4,0.32 -0.4,0.81 0,0.49 0.36,0.87 0.36,0.39 1.33,0.94 z m -0.84,0.84 q -0.7,0.54 -0.95,0.94 -0.25,0.4 -0.25,1 0,0.74 0.48,1.2 0.48,0.46 1.27,0.46 0.75,0 1.23,-0.39 0.48,-0.4 0.48,-1.02 0,-0.51 -0.3,-0.86 -0.29,-0.34 -1.14,-0.85 z" id="path123" />
        </g>
      </g>
      <g clip-path="url(#clip14)" id="g128">
        <g id="g130" style="fill:none;stroke:#000000;stroke-linecap:butt;stroke-opacity:1">
          <path d="m 327.17,276.36 0,3" id="path132" />
        </g>
      </g>
      <g clip-path="url(#clip15)" id="g137">
        <g id="g139" style="fill:#000000;fill-opacity:1;fill-rule:nonzero;stroke:none">
          <path d="m 398.8,292 0,-0.87 1.74,0 0,-6.84 -1.74,0.43 0,-0.89 2.9,-0.72 0,8.02 1.73,0 0,0.87 z m 9.55,0.22 q -1.34,0 -2.17,-1.27 -0.83,-1.26 -0.83,-3.29 0,-2.05 0.83,-3.3 0.84,-1.25 2.2,-1.25 1.37,0 2.2,1.25 0.84,1.25 0.84,3.28 0,2.09 -0.84,3.33 -0.83,1.25 -2.23,1.25 z m 0.01,-0.87 q 1.84,0 1.84,-3.73 0,-3.64 -1.82,-3.64 -1.8,0 -1.8,3.68 0,3.69 1.78,3.69 z" id="path141" />
        </g>
      </g>
      <g clip-path="url(#clip16)" id="g146">
        <g id="g148" style="fill:none;stroke:#000000;stroke-linecap:butt;stroke-opacity:1">
          <path d="m 402.37,276.36 0,3" id="path150" />
        </g>
      </g>
      <g clip-path="url(#clip17)" id="g155">
        <g id="g157" style="fill:#000000;fill-opacity:1;fill-rule:nonzero;stroke:none">
          <path d="m 14.762,274.22 q -1.342,0 -2.171,-1.27 -0.829,-1.26 -0.829,-3.29 0,-2.05 0.835,-3.3 0.835,-1.25 2.2,-1.25 1.365,0 2.2,1.25 0.835,1.25 0.835,3.28 0,2.09 -0.835,3.33 -0.835,1.25 -2.235,1.25 z m 0.011,-0.87 q 1.834,0 1.834,-3.73 0,-3.64 -1.81,-3.64 -1.805,0 -1.805,3.68 0,3.69 1.781,3.69 z" id="path159" />
        </g>
      </g>
      <g clip-path="url(#clip18)" id="g164">
        <g id="g166" style="fill:#000000;fill-opacity:1;fill-rule:nonzero;stroke:none">
          <path d="m 11.996,229 0,-1.01 q 0.504,-1.18 2.039,-2.57 l 0.662,-0.59 q 1.278,-1.16 1.278,-2.29 0,-0.73 -0.437,-1.15 -0.436,-0.41 -1.198,-0.41 -0.902,0 -2.127,0.7 l 0,-1.02 q 1.154,-0.55 2.291,-0.55 1.219,0 1.957,0.66 0.738,0.65 0.738,1.74 0,0.78 -0.372,1.38 -0.372,0.6 -1.386,1.47 l -0.445,0.38 q -1.389,1.17 -1.605,2.25 l 3.767,0 0,1.01 z" id="path168" />
        </g>
      </g>
      <g clip-path="url(#clip19)" id="g173">
        <g id="g175" style="fill:none;stroke:#000000;stroke-linecap:butt;stroke-opacity:1">
          <path d="m 23.359,224.36 3,0" id="path177" />
        </g>
      </g>
      <g clip-path="url(#clip20)" id="g182">
        <g id="g184" style="fill:#000000;fill-opacity:1;fill-rule:nonzero;stroke:none">
          <path d="m 15.518,177 0,-2.46 -3.903,0 0,-0.87 3.903,-5.34 1.084,0 0,5.27 1.16,0 0,0.94 -1.16,0 0,2.46 z m -2.772,-3.4 2.848,0 0,-3.85 z" id="path186" />
        </g>
      </g>
      <g clip-path="url(#clip21)" id="g191">
        <g id="g193" style="fill:none;stroke:#000000;stroke-linecap:butt;stroke-opacity:1">
          <path d="m 23.359,172.36 3,0" id="path195" />
        </g>
      </g>
      <g clip-path="url(#clip22)" id="g200">
        <g id="g202" style="fill:#000000;fill-opacity:1;fill-rule:nonzero;stroke:none">
          <path d="m 13.062,120.51 q 0.827,-1.08 2.081,-1.08 1.136,0 1.86,0.76 0.724,0.75 0.724,1.93 0,1.35 -0.812,2.22 -0.811,0.88 -2.06,0.88 -1.435,0 -2.244,-1.16 -0.808,-1.15 -0.808,-3.2 0,-2.26 0.928,-3.51 0.929,-1.24 2.617,-1.24 0.773,0 1.933,0.32 l 0,1.01 q -1.224,-0.47 -2.004,-0.47 -2.215,0 -2.215,3.54 z m 3.504,1.87 q 0,-0.99 -0.442,-1.55 -0.442,-0.56 -1.228,-0.56 -0.732,0 -1.259,0.49 -0.528,0.49 -0.528,1.18 0,1.09 0.501,1.75 0.501,0.66 1.328,0.66 0.744,0 1.186,-0.54 0.442,-0.53 0.442,-1.43 z" id="path204" />
        </g>
      </g>
      <g clip-path="url(#clip23)" id="g209">
        <g id="g211" style="fill:none;stroke:#000000;stroke-linecap:butt;stroke-opacity:1">
          <path d="m 23.359,120.36 3,0" id="path213" />
        </g>
      </g>
      <g clip-path="url(#clip24)" id="g218">
        <g id="g220" style="fill:#000000;fill-opacity:1;fill-rule:nonzero;stroke:none">
          <path d="m 13.76,68.277 q -1.272,-0.884 -1.272,-1.957 0,-0.984 0.721,-1.599 0.721,-0.616 1.881,-0.616 1.072,0 1.737,0.522 0.665,0.521 0.665,1.353 0,1.26 -1.617,2.297 1.963,0.961 1.963,2.479 0,1.09 -0.823,1.775 -0.824,0.686 -2.124,0.686 -1.278,0 -2.066,-0.648 -0.788,-0.647 -0.788,-1.702 0,-1.558 1.723,-2.59 z m 1.47,-0.363 q 1.213,-0.797 1.213,-1.775 0,-0.522 -0.404,-0.841 -0.404,-0.319 -1.066,-0.319 -0.639,0 -1.037,0.313 -0.399,0.313 -0.399,0.812 0,0.486 0.36,0.87 0.361,0.383 1.333,0.94 z m -0.843,0.832 q -0.698,0.539 -0.947,0.941 -0.249,0.401 -0.249,0.999 0,0.744 0.481,1.204 0.48,0.46 1.266,0.46 0.755,0 1.233,-0.393 0.477,-0.393 0.477,-1.019 0,-0.504 -0.295,-0.853 -0.296,-0.349 -1.146,-0.853 z" id="path222" />
        </g>
      </g>
      <g clip-path="url(#clip25)" id="g227">
        <g id="g229" style="fill:none;stroke:#000000;stroke-linecap:butt;stroke-opacity:1">
          <path d="m 23.359,68.36 3,0" id="path231" />
        </g>
      </g>
      <g clip-path="url(#clip26)" id="g236">
        <g id="g238" style="fill:#000000;fill-opacity:1;fill-rule:nonzero;stroke:none">
          <path d="m 5.8047,21 0,-0.867 1.7344,0 0,-6.844 -1.7344,0.434 0,-0.891 2.8945,-0.721 0,8.022 1.7348,0 0,0.867 z m 9.5453,0.217 q -1.342,0 -2.171,-1.263 -0.829,-1.263 -0.829,-3.296 0,-2.051 0.835,-3.299 0.835,-1.248 2.2,-1.248 1.365,0 2.2,1.248 0.835,1.248 0.835,3.282 0,2.086 -0.835,3.331 -0.835,1.245 -2.235,1.245 z m 0.011,-0.867 q 1.834,0 1.834,-3.727 0,-3.644 -1.81,-3.644 -1.805,0 -1.805,3.679 0,3.692 1.781,3.692 z" id="path240" />
        </g>
      </g>
      <g clip-path="url(#clip27)" id="g245">
        <g id="g247" style="fill:none;stroke:#000000;stroke-linecap:butt;stroke-opacity:1">
          <path d="m 23.359,16.361 3,0" id="path249" />
        </g>
      </g>
      <g clip-path="url(#clip28)" id="g254">
        <g id="g256" style="fill:none;stroke:#c0c0c0;stroke-linecap:round;stroke-linejoin:round;stroke-opacity:1">
          <path d="m 63.96,0 0,309" id="path258" />
        </g>
      </g>
      <g clip-path="url(#clip29)" id="g263">
        <g id="g265" style="fill:none;stroke:#c0c0c0;stroke-linecap:round;stroke-linejoin:round;stroke-opacity:1">
          <path d="m 101.56,0 0,276.36" id="path267" />
        </g>
      </g>
      <g clip-path="url(#clip30)" id="g272">
        <g id="g274" style="fill:none;stroke:#c0c0c0;stroke-linecap:round;stroke-linejoin:round;stroke-opacity:1">
          <path d="m 101.56,298.16 0,10.84" id="path276" />
        </g>
      </g>
      <g clip-path="url(#clip31)" id="g281">
        <g id="g283" style="fill:none;stroke:#c0c0c0;stroke-linecap:round;stroke-linejoin:round;stroke-opacity:1">
          <path d="m 139.16,0 0,309" id="path285" />
        </g>
      </g>
      <g clip-path="url(#clip32)" id="g290">
        <g id="g292" style="fill:none;stroke:#c0c0c0;stroke-linecap:round;stroke-linejoin:round;stroke-opacity:1">
          <path d="m 176.76,0 0,276.36" id="path294" />
        </g>
      </g>
      <g clip-path="url(#clip33)" id="g299">
        <g id="g301" style="fill:none;stroke:#c0c0c0;stroke-linecap:round;stroke-linejoin:round;stroke-opacity:1">
          <path d="m 176.76,298.16 0,10.84" id="path303" />
        </g>
      </g>
      <g clip-path="url(#clip34)" id="g308">
        <g id="g310" style="fill:none;stroke:#c0c0c0;stroke-linecap:round;stroke-linejoin:round;stroke-opacity:1">
          <path d="m 214.36,0 0,309" id="path312" />
        </g>
      </g>
      <g clip-path="url(#clip35)" id="g317">
        <g id="g319" style="fill:none;stroke:#c0c0c0;stroke-linecap:round;stroke-linejoin:round;stroke-opacity:1">
          <path d="m 251.96,0 0,276.36" id="path321" />
        </g>
      </g>
      <g clip-path="url(#clip36)" id="g326">
        <g id="g328" style="fill:none;stroke:#c0c0c0;stroke-linecap:round;stroke-linejoin:round;stroke-opacity:1">
          <path d="m 251.96,298.16 0,10.84" id="path330" />
        </g>
      </g>
      <g clip-path="url(#clip37)" id="g335">
        <g id="g337" style="fill:none;stroke:#c0c0c0;stroke-linecap:round;stroke-linejoin:round;stroke-opacity:1">
          <path d="m 289.56,0 0,309" id="path339" />
        </g>
      </g>
      <g clip-path="url(#clip38)" id="g344">
        <g id="g346" style="fill:none;stroke:#c0c0c0;stroke-linecap:round;stroke-linejoin:round;stroke-opacity:1">
          <path d="m 327.17,0 0,276.36" id="path348" />
        </g>
      </g>
      <g clip-path="url(#clip39)" id="g353">
        <g id="g355" style="fill:none;stroke:#c0c0c0;stroke-linecap:round;stroke-linejoin:round;stroke-opacity:1">
          <path d="m 327.17,298.16 0,10.84" id="path357" />
        </g>
      </g>
      <g clip-path="url(#clip40)" id="g362">
        <g id="g364" style="fill:none;stroke:#c0c0c0;stroke-linecap:round;stroke-linejoin:round;stroke-opacity:1">
          <path d="m 364.77,0 0,309" id="path366" />
        </g>
      </g>
      <g clip-path="url(#clip41)" id="g371">
        <g id="g373" style="fill:none;stroke:#c0c0c0;stroke-linecap:round;stroke-linejoin:round;stroke-opacity:1">
          <path d="m 402.37,0 0,276.36" id="path375" />
        </g>
      </g>
      <g clip-path="url(#clip42)" id="g380">
        <g id="g382" style="fill:none;stroke:#c0c0c0;stroke-linecap:round;stroke-linejoin:round;stroke-opacity:1">
          <path d="m 402.37,298.16 0,10.84" id="path384" />
        </g>
      </g>
      <g clip-path="url(#clip43)" id="g389">
        <g id="g391" style="fill:none;stroke:#c0c0c0;stroke-linecap:round;stroke-linejoin:round;stroke-opacity:1">
          <path d="m 0,16.361 1.1834,0" id="path393" />
        </g>
      </g>
      <g clip-path="url(#clip44)" id="g398">
        <g id="g400" style="fill:none;stroke:#c0c0c0;stroke-linecap:round;stroke-linejoin:round;stroke-opacity:1">
          <path d="m 26.359,16.361 408.641,0" id="path402" />
        </g>
      </g>
      <g clip-path="url(#clip45)" id="g407">
        <g id="g409" style="fill:none;stroke:#c0c0c0;stroke-linecap:round;stroke-linejoin:round;stroke-opacity:1">
          <path d="m 0,16.361 1.1834,0" id="path411" />
        </g>
      </g>
      <g clip-path="url(#clip46)" id="g416">
        <g id="g418" style="fill:none;stroke:#c0c0c0;stroke-linecap:round;stroke-linejoin:round;stroke-opacity:1">
          <path d="m 26.359,16.361 408.641,0" id="path420" />
        </g>
      </g>
      <g clip-path="url(#clip47)" id="g425">
        <g id="g427" style="fill:none;stroke:#c0c0c0;stroke-linecap:round;stroke-linejoin:round;stroke-opacity:1">
          <path d="m 0,42.361 435,0" id="path429" />
        </g>
      </g>
      <g clip-path="url(#clip48)" id="g434">
        <g id="g436" style="fill:none;stroke:#c0c0c0;stroke-linecap:round;stroke-linejoin:round;stroke-opacity:1">
          <path d="m 0,68.36 1.1834,0" id="path438" />
        </g>
      </g>
      <g clip-path="url(#clip49)" id="g443">
        <g id="g445" style="fill:none;stroke:#c0c0c0;stroke-linecap:round;stroke-linejoin:round;stroke-opacity:1">
          <path d="M 26.359,68.36 435,68.36" id="path447" />
        </g>
      </g>
      <g clip-path="url(#clip50)" id="g452">
        <g id="g454" style="fill:none;stroke:#c0c0c0;stroke-linecap:round;stroke-linejoin:round;stroke-opacity:1">
          <path d="m 0,94.36 435,0" id="path456" />
        </g>
      </g>
      <g clip-path="url(#clip51)" id="g461">
        <g id="g463" style="fill:none;stroke:#c0c0c0;stroke-linecap:round;stroke-linejoin:round;stroke-opacity:1">
          <path d="m 0,120.36 1.1834,0" id="path465" />
        </g>
      </g>
      <g clip-path="url(#clip52)" id="g470">
        <g id="g472" style="fill:none;stroke:#c0c0c0;stroke-linecap:round;stroke-linejoin:round;stroke-opacity:1">
          <path d="m 26.359,120.36 408.641,0" id="path474" />
        </g>
      </g>
      <g clip-path="url(#clip53)" id="g479">
        <g id="g481" style="fill:none;stroke:#c0c0c0;stroke-linecap:round;stroke-linejoin:round;stroke-opacity:1">
          <path d="m 0,146.36 435,0" id="path483" />
        </g>
      </g>
      <g clip-path="url(#clip54)" id="g488">
        <g id="g490" style="fill:none;stroke:#c0c0c0;stroke-linecap:round;stroke-linejoin:round;stroke-opacity:1">
          <path d="m 0,172.36 1.1834,0" id="path492" />
        </g>
      </g>
      <g clip-path="url(#clip55)" id="g497">
        <g id="g499" style="fill:none;stroke:#c0c0c0;stroke-linecap:round;stroke-linejoin:round;stroke-opacity:1">
          <path d="m 26.359,172.36 408.641,0" id="path501" />
        </g>
      </g>
      <g clip-path="url(#clip56)" id="g506">
        <g id="g508" style="fill:none;stroke:#c0c0c0;stroke-linecap:round;stroke-linejoin:round;stroke-opacity:1">
          <path d="m 0,198.36 435,0" id="path510" />
        </g>
      </g>
      <g clip-path="url(#clip57)" id="g515">
        <g id="g517" style="fill:none;stroke:#c0c0c0;stroke-linecap:round;stroke-linejoin:round;stroke-opacity:1">
          <path d="m 0,224.36 1.1834,0" id="path519" />
        </g>
      </g>
      <g clip-path="url(#clip58)" id="g524">
        <g id="g526" style="fill:none;stroke:#c0c0c0;stroke-linecap:round;stroke-linejoin:round;stroke-opacity:1">
          <path d="m 26.359,224.36 408.641,0" id="path528" />
        </g>
      </g>
      <g clip-path="url(#clip59)" id="g533">
        <g id="g535" style="fill:none;stroke:#c0c0c0;stroke-linecap:round;stroke-linejoin:round;stroke-opacity:1">
          <path d="m 0,250.36 435,0" id="path537" />
        </g>
      </g>
      <g clip-path="url(#clip60)" id="g542">
        <g id="g544" style="fill:none;stroke:#c0c0c0;stroke-linecap:round;stroke-linejoin:round;stroke-opacity:1">
          <path d="m 0,302.36 435,0" id="path546" />
        </g>
      </g>
      <g id="layer0">
        <clipPath id="clip61">
          <path d="m 0,0 0,309 435,0 0,-309 z" id="path551" />
        </clipPath>
        <g clip-path="url(#clip61)" id="g553">
          <g id="g555" style="fill:none;stroke:#0000ff;stroke-width:2;stroke-linecap:round;stroke-linejoin:round;stroke-opacity:1">
            <path d="M 7.9095521,66.504722 440,197.96087" id="path557" />
            <title id="title559">Line f</title>
            <desc id="desc561">Line f: FitLine[list1]</desc>
          </g>
        </g>
        <clipPath id="clip62">
          <path d="m 0,0 0,309 435,0 0,-309 z" id="path564" />
        </clipPath>
        <g clip-path="url(#clip62)" id="g566">
          <g id="g568" style="fill:none;stroke:#444444;stroke-width:2.5;stroke-opacity:1">
            <path d="m 173.97,113.1 10,10" id="path570" />
            <title id="title572">Point A</title>
            <desc id="desc574">Point A: (B5, B6)</desc>
          </g>
        </g>
        <clipPath id="clip63">
          <path d="m 0,0 0,309 435,0 0,-309 z" id="path577" />
        </clipPath>
        <g clip-path="url(#clip63)" id="g579">
          <g id="g581" style="fill:none;stroke:#444444;stroke-width:2.5;stroke-opacity:1">
            <path d="m 173.97,123.1 10,-10" id="path583" />
            <title id="title585">Point A</title>
            <desc id="desc587">Point A: (B5, B6)</desc>
          </g>
        </g>
        <clipPath id="clip64">
          <path d="m 0,0 0,309 435,0 0,-309 z" id="path590" />
        </clipPath>
        <g clip-path="url(#clip64)" id="g592">
          <g id="g594" style="fill:none;stroke:#444444;stroke-width:2.5;stroke-opacity:1">
            <path d="m 197.48,99.693 10,9.997" id="path596" />
            <title id="title598">Point B</title>
            <desc id="desc600">Point B: (C5, C6)</desc>
          </g>
        </g>
        <clipPath id="clip65">
          <path d="m 0,0 0,309 435,0 0,-309 z" id="path603" />
        </clipPath>
        <g clip-path="url(#clip65)" id="g605">
          <g id="g607" style="fill:none;stroke:#444444;stroke-width:2.5;stroke-opacity:1">
            <path d="m 197.48,109.69 10,-9.997" id="path609" />
            <title id="title611">Point B</title>
            <desc id="desc613">Point B: (C5, C6)</desc>
          </g>
        </g>
        <clipPath id="clip66">
          <path d="m 0,0 0,309 435,0 0,-309 z" id="path616" />
        </clipPath>
        <g clip-path="url(#clip66)" id="g618">
          <g id="g620" style="fill:none;stroke:#444444;stroke-width:2.5;stroke-opacity:1">
            <path d="m 209.66,124.12 10,10" id="path622" />
            <title id="title624">Point C</title>
            <desc id="desc626">Point C: (D5, D6)</desc>
          </g>
        </g>
        <clipPath id="clip67">
          <path d="m 0,0 0,309 435,0 0,-309 z" id="path629" />
        </clipPath>
        <g clip-path="url(#clip67)" id="g631">
          <g id="g633" style="fill:none;stroke:#444444;stroke-width:2.5;stroke-opacity:1">
            <path d="m 209.66,134.12 10,-10" id="path635" />
            <title id="title637">Point C</title>
            <desc id="desc639">Point C: (D5, D6)</desc>
          </g>
        </g>
        <clipPath id="clip68">
          <path d="m 0,0 0,309 435,0 0,-309 z" id="path642" />
        </clipPath>
        <g clip-path="url(#clip68)" id="g644">
          <g id="g646" style="fill:none;stroke:#444444;stroke-width:2.5;stroke-opacity:1">
            <path d="m 225.49,132.58 10,10" id="path648" />
            <title id="title650">Point D</title>
            <desc id="desc652">Point D: (E5, E6)</desc>
          </g>
        </g>
        <clipPath id="clip69">
          <path d="m 0,0 0,309 435,0 0,-309 z" id="path655" />
        </clipPath>
        <g clip-path="url(#clip69)" id="g657">
          <g id="g659" style="fill:none;stroke:#444444;stroke-width:2.5;stroke-opacity:1">
            <path d="m 225.49,142.58 10,-10" id="path661" />
            <title id="title663">Point D</title>
            <desc id="desc665">Point D: (E5, E6)</desc>
          </g>
        </g>
        <clipPath id="clip70">
          <path d="m 0,0 0,309 435,0 0,-309 z" id="path668" />
        </clipPath>
        <g clip-path="url(#clip70)" id="g670">
          <g id="g672" style="fill:none;stroke:#444444;stroke-width:2.5;stroke-opacity:1">
            <path d="m 271.69,138.92 10,10" id="path674" />
            <title id="title676">Point E</title>
            <desc id="desc678">Point E: (F5, F6)</desc>
          </g>
        </g>
        <clipPath id="clip71">
          <path d="m 0,0 0,309 435,0 0,-309 z" id="path681" />
        </clipPath>
        <g clip-path="url(#clip71)" id="g683">
          <g id="g685" style="fill:none;stroke:#444444;stroke-width:2.5;stroke-opacity:1">
            <path d="m 271.69,148.92 10,-10" id="path687" />
            <title id="title689">Point E</title>
            <desc id="desc691">Point E: (F5, F6)</desc>
          </g>
        </g>
        <clipPath id="clip72">
          <path d="m 0,0 0,309 435,0 0,-309 z" id="path694" />
        </clipPath>
        <g clip-path="url(#clip72)" id="g696">
          <g id="g698" style="fill:none;stroke:#444444;stroke-width:2.5;stroke-opacity:1">
            <path d="m 294.64,144.21 10,10" id="path700" />
            <title id="title702">Point F</title>
            <desc id="desc704">Point F: (G5, G6)</desc>
          </g>
        </g>
        <clipPath id="clip73">
          <path d="m 0,0 0,309 435,0 0,-309 z" id="path707" />
        </clipPath>
        <g clip-path="url(#clip73)" id="g709">
          <g id="g711" style="fill:none;stroke:#444444;stroke-width:2.5;stroke-opacity:1">
            <path d="m 294.64,154.21 10,-10" id="path713" />
            <title id="title715">Point F</title>
            <desc id="desc717">Point F: (G5, G6)</desc>
          </g>
        </g>
        <clipPath id="clip74">
          <path d="m 0,0 0,309 435,0 0,-309 z" id="path720" />
        </clipPath>
        <g clip-path="url(#clip74)" id="g722">
          <g id="g724" style="fill:none;stroke:#444444;stroke-width:2.5;stroke-opacity:1">
            <path d="m 320.77,158.08 10,10" id="path726" />
            <title id="title728">Point G</title>
            <desc id="desc730">Point G: (H5, H6)</desc>
          </g>
        </g>
        <clipPath id="clip75">
          <path d="m 0,0 0,309 435,0 0,-309 z" id="path733" />
        </clipPath>
        <g clip-path="url(#clip75)" id="g735">
          <g id="g737" style="fill:none;stroke:#444444;stroke-width:2.5;stroke-opacity:1">
            <path d="m 320.77,168.08 10,-10" id="path739" />
            <title id="title741">Point G</title>
            <desc id="desc743">Point G: (H5, H6)</desc>
          </g>
        </g>
        <clipPath id="clip76">
          <path d="m 0,0 0,309 435,0 0,-309 z" id="path746" />
        </clipPath>
        <g clip-path="url(#clip76)" id="g748">
          <g id="g750" style="fill:none;stroke:#444444;stroke-width:2.5;stroke-opacity:1">
            <path d="m 337.61,159.81 10,10" id="path752" />
            <title id="title754">Point H</title>
            <desc id="desc756">Point H: (I5, I6)</desc>
          </g>
        </g>
        <clipPath id="clip77">
          <path d="m 0,0 0,309 435,0 0,-309 z" id="path759" />
        </clipPath>
        <g clip-path="url(#clip77)" id="g761">
          <g id="g763" style="fill:none;stroke:#444444;stroke-width:2.5;stroke-opacity:1">
            <path d="m 337.61,169.81 10,-10" id="path765" />
            <title id="title767">Point H</title>
            <desc id="desc769">Point H: (I5, I6)</desc>
          </g>
        </g>
        <clipPath id="clip78">
          <path d="m 0,0 0,309 435,0 0,-309 z" id="path772" />
        </clipPath>
        <g clip-path="url(#clip78)" id="g774">
          <g id="g776" style="fill:none;stroke:#444444;stroke-width:2.5;stroke-opacity:1">
            <path d="m 347.88,170.71 10,10" id="path778" />
            <title id="title780">Point I</title>
            <desc id="desc782">Point I: (J5, J6)</desc>
          </g>
        </g>
        <clipPath id="clip79">
          <path d="m 0,0 0,309 435,0 0,-309 z" id="path785" />
        </clipPath>
        <g clip-path="url(#clip79)" id="g787">
          <g id="g789" style="fill:none;stroke:#444444;stroke-width:2.5;stroke-opacity:1">
            <path d="m 347.88,180.71 10,-10" id="path791" />
            <title id="title793">Point I</title>
            <desc id="desc795">Point I: (J5, J6)</desc>
          </g>
        </g>
      </g>
    </g>
    <g style="font-style:normal;font-variant:normal;font-weight:normal;font-stretch:normal;letter-spacing:normal;word-spacing:normal;text-anchor:start;fill:none;fill-opacity:1;fill-rule:evenodd;stroke:#000000;stroke-linecap:butt;stroke-linejoin:miter;stroke-miterlimit:10.43299961;stroke-dasharray:none;stroke-dashoffset:0;stroke-opacity:1" ns0:preamble="/Users/prmb/CMEP/underground-inkscape-preamble.tex" ns0:text="$\\ln T_a$" word-spacing="normal" letter-spacing="normal" font-size-adjust="none" font-stretch="normal" font-weight="normal" font-variant="normal" font-style="normal" stroke-miterlimit="10.433" xml:space="preserve" transform="matrix(1.4065603,0,0,-1.4065603,-309.89948,755.46129)" id="content"><path style="fill:#000000;stroke-width:0" id="path5695" d="m 226.47,477.23 0,0.18 c -0.76,0.05 -0.89,0.2 -0.89,0.85 l 0,6.99 -0.06,0.05 c -0.61,-0.2 -1.05,-0.32 -1.86,-0.52 l 0,-0.19 c 0.19,0.02 0.34,0.02 0.43,0.02 0.38,0 0.5,-0.19 0.5,-0.75 l 0,-5.54 c 0,-0.65 -0.17,-0.85 -0.91,-0.91 l 0,-0.18 z" /><path style="fill:#000000;stroke-width:0" id="path5697" d="m 232.45,477.23 0,0.18 c -0.58,0.06 -0.72,0.19 -0.72,0.83 l 0,2.61 c 0,1.17 -0.49,1.82 -1.39,1.82 -0.55,0 -1.09,-0.26 -1.7,-0.96 l -0.01,0 0,0.92 -0.1,0.04 c -0.58,-0.22 -0.97,-0.35 -1.62,-0.54 l 0,-0.2 c 0.09,0.04 0.22,0.05 0.35,0.05 0.33,0 0.41,-0.19 0.41,-0.77 l 0,-2.86 c 0,-0.7 -0.13,-0.89 -0.73,-0.94 l 0,-0.18 2.49,0 0,0.18 c -0.6,0.05 -0.77,0.21 -0.77,0.67 l 0,3.26 c 0.55,0.54 0.83,0.68 1.22,0.68 0.58,0 0.86,-0.36 0.86,-1.2 l 0,-2.34 c 0,-0.78 -0.14,-1.02 -0.73,-1.07 L 230,477.23 Z" /><path style="fill:#000000;stroke-width:0" id="path5699" d="m 242.22,484.94 -7.07,0 -0.55,-2.11 0.19,0 c 0.22,0.96 1.04,1.68 2.02,1.68 l 1.08,0 -1.57,-6.35 c -0.1,-0.41 -0.33,-0.74 -1.26,-0.74 l -0.21,0 -0.05,-0.19 3.89,0 0.05,0.19 -0.25,0 c -0.71,0 -0.9,0.19 -0.9,0.44 0,0.11 0.04,0.19 0.06,0.3 l 1.57,6.35 1.16,0 c 0.48,0 1.16,-0.06 1.16,-0.84 0,-0.32 -0.03,-0.64 -0.05,-0.84 l 0.19,0 z" /><path style="fill:#000000;stroke-width:0" id="path5701" d="m 245.02,478.54 -0.71,0 -0.08,-0.29 -0.01,0 c -0.02,0.19 -0.21,0.4 -0.59,0.4 l 0.01,-0.25 c 0.34,0 0.45,-0.27 0.45,-0.63 l 0,0 c 0,-0.3 -0.07,-0.66 -0.14,-0.89 -0.25,-0.84 -0.87,-1.68 -1.48,-1.68 -0.24,0 -0.52,0.11 -0.52,0.58 0,0.31 0.09,0.7 0.25,1.1 0.31,0.75 0.84,1.52 1.44,1.52 l -0.01,0.25 c -1.28,0 -2.45,-1.77 -2.45,-2.94 0,-0.57 0.23,-1.05 0.79,-1.05 0.35,0 0.9,0.11 1.54,0.93 l 0.03,0 c -0.04,-0.14 -0.09,-0.33 -0.09,-0.45 0,-0.28 0.08,-0.48 0.37,-0.48 0.42,0 0.9,0.53 1.18,0.95 l -0.11,0.1 c -0.34,-0.46 -0.48,-0.48 -0.57,-0.48 -0.07,0 -0.12,0.06 -0.12,0.15 0,0.08 0.01,0.1 0.01,0.1 z" /></g>    <g style="font-style:normal;font-variant:normal;font-weight:normal;font-stretch:normal;letter-spacing:normal;word-spacing:normal;text-anchor:start;fill:none;fill-opacity:1;fill-rule:evenodd;stroke:#000000;stroke-linecap:butt;stroke-linejoin:miter;stroke-miterlimit:10.43299961;stroke-dasharray:none;stroke-dashoffset:0;stroke-opacity:1" id="g6597" transform="matrix(1.4065603,0,0,-1.4065603,-4.9667081,957.59213)" xml:space="preserve" stroke-miterlimit="10.433" font-style="normal" font-variant="normal" font-weight="normal" font-stretch="normal" font-size-adjust="none" letter-spacing="normal" word-spacing="normal" ns0:text="$\\ln r$" ns0:preamble="/Users/prmb/CMEP/underground-inkscape-preamble.tex"><path style="fill:#000000;stroke-width:0" d="m 226.47,477.23 0,0.18 c -0.76,0.05 -0.89,0.2 -0.89,0.85 l 0,6.99 -0.06,0.05 c -0.61,-0.2 -1.05,-0.32 -1.86,-0.52 l 0,-0.19 c 0.19,0.02 0.34,0.02 0.43,0.02 0.38,0 0.5,-0.19 0.5,-0.75 l 0,-5.54 c 0,-0.65 -0.17,-0.85 -0.91,-0.91 l 0,-0.18 z" id="path6599" /><path style="fill:#000000;stroke-width:0" d="m 232.45,477.23 0,0.18 c -0.58,0.06 -0.72,0.19 -0.72,0.83 l 0,2.61 c 0,1.17 -0.49,1.82 -1.39,1.82 -0.55,0 -1.09,-0.26 -1.7,-0.96 l -0.01,0 0,0.92 -0.1,0.04 c -0.58,-0.22 -0.97,-0.35 -1.62,-0.54 l 0,-0.2 c 0.09,0.04 0.22,0.05 0.35,0.05 0.33,0 0.41,-0.19 0.41,-0.77 l 0,-2.86 c 0,-0.7 -0.13,-0.89 -0.73,-0.94 l 0,-0.18 2.49,0 0,0.18 c -0.6,0.05 -0.77,0.21 -0.77,0.67 l 0,3.26 c 0.55,0.54 0.83,0.68 1.22,0.68 0.58,0 0.86,-0.36 0.86,-1.2 l 0,-2.34 c 0,-0.78 -0.14,-1.02 -0.73,-1.07 L 230,477.23 Z" id="path6601" /><path style="fill:#000000;stroke-width:0" d="m 236.37,480.39 0.55,2.05 -1.86,-0.27 0.03,-0.18 c 0.07,0.02 0.23,0.04 0.32,0.04 0.26,0 0.39,-0.07 0.39,-0.23 0,-0.06 -0.02,-0.14 -0.05,-0.27 l -1.09,-4.3 0.91,0 0.25,0.9 c 0.06,0.2 1.09,3.23 1.81,3.23 0.21,0 0.09,-0.45 0.55,-0.45 0.48,0 0.77,0.52 0.77,0.97 0,0.31 -0.18,0.56 -0.52,0.56 -0.65,0 -1.22,-0.77 -1.62,-1.4 -0.13,-0.22 -0.27,-0.45 -0.38,-0.66 z" id="path6603" /></g>  </g>
</svg>