<?xml version='1.0' ?><svg xmlns:ns0="http://www.iki.fi/pav/software/textext/" xmlns:dc="http://purl.org/dc/elements/1.1/" xmlns:cc="http://creativecommons.org/ns#" xmlns:rdf="http://www.w3.org/1999/02/22-rdf-syntax-ns#" xmlns:svg="http://www.w3.org/2000/svg" xmlns="http://www.w3.org/2000/svg" version="1.1" id="svg6760" width="218.23649" height="282.12673" viewBox="168.1499700002313 122.48258000016848 218.2364900003002 282.1267300003881" preserveAspectRatio="none">
  <defs id="defs6762">
    <marker style="overflow:visible;" id="marker8902" refX="0.0" refY="0.0" orient="auto">
      <path transform="scale(0.4) rotate(180) translate(10,0)" style="fill-rule:evenodd;stroke:#000000;stroke-width:1pt;stroke-opacity:1;fill:#000000;fill-opacity:1" d="M 0.0,0.0 L 5.0,-5.0 L -12.5,0.0 L 5.0,5.0 L 0.0,0.0 z " id="path8904" />
    </marker>
    <marker style="overflow:visible;" id="marker7728" refX="0.0" refY="0.0" orient="auto">
      <path transform="scale(0.4) rotate(180) translate(10,0)" style="fill-rule:evenodd;stroke:#ff0000;stroke-width:1pt;stroke-opacity:1;fill:#ff0000;fill-opacity:1" d="M 0.0,0.0 L 5.0,-5.0 L -12.5,0.0 L 5.0,5.0 L 0.0,0.0 z " id="path7730" />
    </marker>
    <marker orient="auto" refY="0.0" refX="0.0" id="marker7686" style="overflow:visible;">
      <path id="path7688" d="M 0.0,0.0 L 5.0,-5.0 L -12.5,0.0 L 5.0,5.0 L 0.0,0.0 z " style="fill-rule:evenodd;stroke:#ff0000;stroke-width:1pt;stroke-opacity:1;fill:#ff0000;fill-opacity:1" transform="scale(0.4) rotate(180) translate(10,0)" />
    </marker>
    <marker style="overflow:visible;" id="marker7440" refX="0.0" refY="0.0" orient="auto">
      <path transform="scale(0.4) rotate(180) translate(10,0)" style="fill-rule:evenodd;stroke:#0800ff;stroke-width:1pt;stroke-opacity:1;fill:#0800ff;fill-opacity:1" d="M 0.0,0.0 L 5.0,-5.0 L -12.5,0.0 L 5.0,5.0 L 0.0,0.0 z " id="path7442" />
    </marker>
    <marker orient="auto" refY="0.0" refX="0.0" id="Arrow1Mend" style="overflow:visible;">
      <path id="path4155" d="M 0.0,0.0 L 5.0,-5.0 L -12.5,0.0 L 5.0,5.0 L 0.0,0.0 z " style="fill-rule:evenodd;stroke:#0800ff;stroke-width:1pt;stroke-opacity:1;fill:#0800ff;fill-opacity:1" transform="scale(0.4) rotate(180) translate(10,0)" />
    </marker>
  </defs>
  <metadata id="metadata6765">
    <rdf:RDF>
      <cc:Work rdf:about="">
        <dc:format>image/svg+xml</dc:format>
        <dc:type rdf:resource="http://purl.org/dc/dcmitype/StillImage" />
        <dc:title />
      </cc:Work>
    </rdf:RDF>
  </metadata>
  <g id="layer1">
    <path style="fill:none;fill-rule:evenodd;stroke:#000000;stroke-width:1px;stroke-linecap:butt;stroke-linejoin:miter;stroke-opacity:1" d="m 184.28571,358.07649 72.85715,-154.28571 115.71428,-80 -67.14285,182.85714 z" id="path7308" />
    <path style="fill:none;fill-rule:evenodd;stroke:#000000;stroke-width:1px;stroke-linecap:butt;stroke-linejoin:miter;stroke-opacity:1" d="m 305.50402,387.37091 20.21027,4.99129 60,-172.85714 -46.42858,-6.42857" id="path7310" />
    <path style="fill:none;fill-rule:evenodd;stroke:#000000;stroke-width:1;stroke-linecap:butt;stroke-linejoin:miter;stroke-miterlimit:4;stroke-dasharray:6, 6;stroke-dashoffset:0;stroke-opacity:1" d="M 337.98183,213.25953 256.40531,202.89345" id="path7310-0" />
    <path style="fill:none;fill-rule:evenodd;stroke:#0800ff;stroke-width:1px;stroke-linecap:butt;stroke-linejoin:miter;stroke-opacity:1;marker-end:url(#Arrow1Mend)" d="M 184.28571,357.3622 298.57143,234.50506" id="path7336" />
    <path style="fill:none;fill-rule:evenodd;stroke:#0800ff;stroke-width:1;stroke-linecap:butt;stroke-linejoin:miter;stroke-opacity:1;stroke-miterlimit:4;stroke-dasharray:6,6;stroke-dashoffset:0" d="M 299.28571,233.79078 268.57143,322.3622" id="path7430" />
    <path style="fill:none;fill-rule:evenodd;stroke:#ff0000;stroke-width:1px;stroke-linecap:butt;stroke-linejoin:miter;stroke-opacity:1;marker-end:url(#marker7686)" d="M 184.07651,358.37235 331.21937,311.94378" id="path7678" />
    <path style="fill:none;fill-rule:evenodd;stroke:#ff0000;stroke-width:1px;stroke-linecap:butt;stroke-linejoin:miter;stroke-opacity:1;marker-end:url(#marker7728)" d="m 184.28571,358.11981 121.34192,29.49493" id="path7720" />
    <path style="fill:none;fill-rule:evenodd;stroke:#ff0000;stroke-width:1;stroke-linecap:butt;stroke-linejoin:miter;stroke-opacity:1;stroke-miterlimit:4;stroke-dasharray:6,6;stroke-dashoffset:0" d="M 331.42857,310.21935 305.71429,387.3622" id="path7822" />
    <path style="fill:none;fill-rule:evenodd;stroke:#0800ff;stroke-width:1px;stroke-linecap:butt;stroke-linejoin:miter;stroke-opacity:1;marker-end:url(#marker7440)" d="M 184.28571,358.07649 268.57143,322.3622" id="path7432" />
    <g style="font-style:normal;font-variant:normal;font-weight:normal;font-stretch:normal;letter-spacing:normal;word-spacing:normal;text-anchor:start;fill:none;fill-opacity:1;fill-rule:evenodd;stroke:#000000;stroke-linecap:butt;stroke-linejoin:miter;stroke-miterlimit:10.43299961;stroke-dasharray:none;stroke-dashoffset:0;stroke-opacity:1" id="content" transform="matrix(1.5,0,0,-1.5,-92.918728,922.46441)" xml:space="preserve" stroke-miterlimit="10.433" font-style="normal" font-variant="normal" font-weight="normal" font-stretch="normal" font-size-adjust="none" letter-spacing="normal" word-spacing="normal" ns0:text="$A$" ns0:preamble="/Users/jdg18/CMEP/Miscellaneous/underground-inkscape-preamble.tex"><path style="fill:#000000;stroke-width:0" d="m 231.54,477.23 0,0.19 -0.18,0 c -0.5,0 -0.8,0.25 -0.88,0.83 l -0.92,6.86 -0.22,0 -4.21,-6.81 c -0.43,-0.69 -0.87,-0.83 -1.28,-0.88 l 0,-0.19 2.58,0 0,0.19 -0.34,0 c -0.31,0 -0.5,0.13 -0.51,0.35 0,0.08 0.03,0.21 0.11,0.3 l 1,1.66 2.34,0 -0.08,0.43 -2.01,0 1.64,2.68 0.07,0 0.3,-2.68 0.08,-0.43 0.16,-1.34 c 0.01,-0.08 0.02,-0.18 0.02,-0.25 0,-0.47 -0.19,-0.72 -0.85,-0.72 l -0.19,0 0,-0.19 z" id="path7865" /></g>    <g style="font-style:normal;font-variant:normal;font-weight:normal;font-stretch:normal;letter-spacing:normal;word-spacing:normal;text-anchor:start;fill:none;fill-opacity:1;fill-rule:evenodd;stroke:#000000;stroke-linecap:butt;stroke-linejoin:miter;stroke-miterlimit:10.43299961;stroke-dasharray:none;stroke-dashoffset:0;stroke-opacity:1" ns0:preamble="/Users/jdg18/CMEP/Miscellaneous/underground-inkscape-preamble.tex" ns0:text="$B$" word-spacing="normal" letter-spacing="normal" font-size-adjust="none" font-stretch="normal" font-weight="normal" font-variant="normal" font-style="normal" stroke-miterlimit="10.433" xml:space="preserve" transform="matrix(1.5,0,0,-1.5,-167.67002,1078.533)" id="g7913"><path style="fill:#000000;stroke-width:0" id="path7915" d="m 225.78,484.94 -0.06,-0.18 0.22,0 c 0.7,0 0.93,-0.19 0.93,-0.5 0,-0.07 -0.02,-0.19 -0.03,-0.25 l -1.45,-5.84 c -0.1,-0.4 -0.32,-0.75 -1.22,-0.75 l -0.24,0 -0.05,-0.19 3.84,0 c 2.45,0 3.42,1.12 3.42,2.28 0,1.01 -0.79,1.5 -1.5,1.63 l -0.04,0.05 c 0.24,0.06 0.58,0.15 0.88,0.31 0.57,0.28 1.08,0.81 1.08,1.73 0,1.61 -1.8,1.71 -2.8,1.71 l -0.01,-0.46 c 0.64,0 1.41,-0.24 1.41,-1.15 0,-1.15 -0.66,-1.93 -1.99,-1.93 l -0.13,-0.41 c 0.92,0 1.68,-0.41 1.68,-1.28 0,-1.53 -1.14,-2.03 -2.25,-2.03 -0.31,0 -0.54,0.03 -0.84,0.11 l 0.8,3.15 c 0.18,0.05 0.42,0.05 0.61,0.05 l 0.13,0.41 c -0.18,0 -0.39,0.03 -0.63,0.07 l 0.7,2.98 c 0.16,0.02 0.33,0.03 0.51,0.03 l 0.01,0.46 z" /></g>    <g style="font-style:normal;font-variant:normal;font-weight:normal;font-stretch:normal;letter-spacing:normal;word-spacing:normal;text-anchor:start;fill:#0003ff;fill-opacity:1;fill-rule:evenodd;stroke:#000000;stroke-linecap:butt;stroke-linejoin:miter;stroke-miterlimit:10.43299961;stroke-dasharray:none;stroke-dashoffset:0;stroke-opacity:1" id="g7967" transform="matrix(1.5,0,0,-1.5,-40.895872,945.19285)" xml:space="preserve" stroke-miterlimit="10.433" font-style="normal" font-variant="normal" font-weight="normal" font-stretch="normal" font-size-adjust="none" letter-spacing="normal" word-spacing="normal" ns0:text="$C$" ns0:preamble="/Users/jdg18/CMEP/Miscellaneous/underground-inkscape-preamble.tex"><path style="fill:#0003ff;stroke-width:0;fill-opacity:1" d="m 231.85,485.02 -0.21,0 c -0.18,-0.3 -0.37,-0.32 -0.5,-0.32 -0.61,0 -1.23,0.32 -1.87,0.32 -2.87,0 -5.25,-1.93 -5.25,-4.64 0,-1.74 1.13,-3.29 3.41,-3.29 0.47,0 1.37,0.07 2.29,0.72 0.35,0.25 0.74,0.61 1.05,1.09 l -0.23,0.15 c -0.06,-0.08 -0.12,-0.15 -0.2,-0.23 -0.54,-0.58 -1.4,-1.16 -2.56,-1.16 -1.6,0 -2.31,1.2 -2.31,2.53 0,2.01 1.4,4.39 3.78,4.39 1.43,0 1.8,-0.93 1.8,-1.7 0,-0.3 0,-0.4 -0.01,-0.5 l 0.19,0 z" id="path7969" /></g>    <g style="font-style:normal;font-variant:normal;font-weight:normal;font-stretch:normal;letter-spacing:normal;word-spacing:normal;text-anchor:start;fill:#ff0000;fill-opacity:1;fill-rule:evenodd;stroke:#000000;stroke-linecap:butt;stroke-linejoin:miter;stroke-miterlimit:10.43299961;stroke-dasharray:none;stroke-dashoffset:0;stroke-opacity:1" ns0:preamble="/Users/jdg18/CMEP/Miscellaneous/underground-inkscape-preamble.tex" ns0:text="$D$" word-spacing="normal" letter-spacing="normal" font-size-adjust="none" font-stretch="normal" font-weight="normal" font-variant="normal" font-style="normal" stroke-miterlimit="10.433" xml:space="preserve" transform="matrix(1.5,0,0,-1.5,-2.004999,1027.0152)" id="g8025"><path style="fill:#ff0000;stroke-width:0;fill-opacity:1" id="path8027" d="m 225.73,484.94 -0.06,-0.2 0.3,0 c 0.69,0 0.91,-0.17 0.91,-0.43 0,-0.09 -0.03,-0.19 -0.05,-0.29 l -1.44,-5.86 c -0.1,-0.41 -0.37,-0.74 -1.25,-0.74 l -0.21,0 -0.05,-0.19 3.63,0 c 3.05,0 4.98,1.98 4.98,4.47 0,2.03 -1.19,3.24 -3.42,3.24 l -0.14,-0.44 c 1.74,0 2.13,-1.62 2.13,-2.98 0,-1.66 -0.94,-3.84 -3.21,-3.84 -0.42,0 -1.12,0.03 -1.12,0.51 0,0.04 0,0.1 0.05,0.32 l 1.45,5.95 c 0.19,0.02 0.46,0.04 0.7,0.04 l 0.14,0.44 z" /></g>    <g style="font-style:normal;font-variant:normal;font-weight:normal;font-stretch:normal;letter-spacing:normal;word-spacing:normal;text-anchor:start;fill:#0003ff;fill-opacity:1;fill-rule:evenodd;stroke:#000000;stroke-linecap:butt;stroke-linejoin:miter;stroke-miterlimit:10.43299961;stroke-dasharray:none;stroke-dashoffset:0;stroke-opacity:1" id="g8087" transform="matrix(1.5,0,0,-1.5,-57.058313,1028.5304)" xml:space="preserve" stroke-miterlimit="10.433" font-style="normal" font-variant="normal" font-weight="normal" font-stretch="normal" font-size-adjust="none" letter-spacing="normal" word-spacing="normal" ns0:text="$C\&#39;$" ns0:preamble="/Users/jdg18/CMEP/Miscellaneous/underground-inkscape-preamble.tex"><path style="fill:#0003ff;stroke-width:0;fill-opacity:1" d="m 231.85,485.02 -0.21,0 c -0.18,-0.3 -0.37,-0.32 -0.5,-0.32 -0.61,0 -1.23,0.32 -1.87,0.32 -2.87,0 -5.25,-1.93 -5.25,-4.64 0,-1.74 1.13,-3.29 3.41,-3.29 0.47,0 1.37,0.07 2.29,0.72 0.35,0.25 0.74,0.61 1.05,1.09 l -0.23,0.15 c -0.06,-0.08 -0.12,-0.15 -0.2,-0.23 -0.54,-0.58 -1.4,-1.16 -2.56,-1.16 -1.6,0 -2.31,1.2 -2.31,2.53 0,2.01 1.4,4.39 3.78,4.39 1.43,0 1.8,-0.93 1.8,-1.7 0,-0.3 0,-0.4 -0.01,-0.5 l 0.19,0 z" id="path8089" /><path style="fill:#0003ff;stroke-width:0;fill-opacity:1" d="m 233.4,481.97 0.04,0.07 0.05,0.09 0.04,0.08 0.05,0.09 0.05,0.1 0.05,0.1 0.05,0.1 0.06,0.11 0.11,0.21 0.11,0.22 0.11,0.23 0.11,0.22 0.11,0.22 0.05,0.1 0.06,0.11 0.04,0.1 0.05,0.09 0.05,0.1 0.04,0.09 0.04,0.08 0.04,0.08 0.03,0.08 0.03,0.07 0.03,0.06 0.02,0.06 0.02,0.05 0.02,0.04 c 0.03,0.08 0.07,0.25 0.07,0.33 0,0.35 -0.23,0.5 -0.48,0.5 -0.21,0 -0.42,-0.13 -0.54,-0.48 -0.12,-0.42 -0.57,-2.35 -0.75,-3.22 z" id="path8091" /></g>    <g style="font-style:normal;font-variant:normal;font-weight:normal;font-stretch:normal;letter-spacing:normal;word-spacing:normal;text-anchor:start;fill:#ff0000;fill-opacity:1;fill-rule:evenodd;stroke:#000000;stroke-linecap:butt;stroke-linejoin:miter;stroke-miterlimit:10.43299961;stroke-dasharray:none;stroke-dashoffset:0;stroke-opacity:1" ns0:preamble="/Users/jdg18/CMEP/Miscellaneous/underground-inkscape-preamble.tex" ns0:text="$D\&#39;$" word-spacing="normal" letter-spacing="normal" font-size-adjust="none" font-stretch="normal" font-weight="normal" font-variant="normal" font-style="normal" stroke-miterlimit="10.433" xml:space="preserve" transform="matrix(1.5,0,0,-1.5,-40.895872,1120.4543)" id="g8157"><path style="fill:#ff0000;stroke-width:0;fill-opacity:1" id="path8159" d="m 225.73,484.94 -0.06,-0.2 0.3,0 c 0.69,0 0.91,-0.17 0.91,-0.43 0,-0.09 -0.03,-0.19 -0.05,-0.29 l -1.44,-5.86 c -0.1,-0.41 -0.37,-0.74 -1.25,-0.74 l -0.21,0 -0.05,-0.19 3.63,0 c 3.05,0 4.98,1.98 4.98,4.47 0,2.03 -1.19,3.24 -3.42,3.24 l -0.14,-0.44 c 1.74,0 2.13,-1.62 2.13,-2.98 0,-1.66 -0.94,-3.84 -3.21,-3.84 -0.42,0 -1.12,0.03 -1.12,0.51 0,0.04 0,0.1 0.05,0.32 l 1.45,5.95 c 0.19,0.02 0.46,0.04 0.7,0.04 l 0.14,0.44 z" /><path style="fill:#ff0000;stroke-width:0;fill-opacity:1" id="path8161" d="m 234.04,481.97 0.04,0.07 0.05,0.09 0.04,0.08 0.05,0.09 0.05,0.1 0.05,0.1 0.05,0.1 0.06,0.11 0.11,0.21 0.11,0.22 0.11,0.23 0.12,0.22 0.1,0.22 0.05,0.1 0.06,0.11 0.04,0.1 0.05,0.09 0.05,0.1 0.04,0.09 0.04,0.08 0.04,0.08 0.03,0.08 0.03,0.07 0.03,0.06 0.02,0.06 0.02,0.05 0.02,0.04 c 0.03,0.08 0.07,0.25 0.07,0.33 0,0.35 -0.23,0.5 -0.48,0.5 -0.21,0 -0.42,-0.13 -0.54,-0.48 -0.12,-0.42 -0.57,-2.35 -0.75,-3.22 z" /></g>    <g style="font-style:normal;font-variant:normal;font-weight:normal;font-stretch:normal;letter-spacing:normal;word-spacing:normal;text-anchor:start;fill:none;fill-opacity:1;fill-rule:evenodd;stroke:#000000;stroke-linecap:butt;stroke-linejoin:miter;stroke-miterlimit:10.43299961;stroke-dasharray:none;stroke-dashoffset:0;stroke-opacity:1" id="g8233" transform="matrix(1.5,0,0,-1.5,-152.01266,1022.4695)" xml:space="preserve" stroke-miterlimit="10.433" font-style="normal" font-variant="normal" font-weight="normal" font-stretch="normal" font-size-adjust="none" letter-spacing="normal" word-spacing="normal" ns0:text="$\\hat{\\mathbf{p}}$" ns0:preamble="/Users/jdg18/CMEP/Miscellaneous/underground-inkscape-preamble.tex"><polygon style="fill:#000000;stroke-width:0" points="224.57,483.46 224.97,483.46 226.4,484.67 227.85,483.46 228.25,483.46 226.77,485.43 226.04,485.43 " id="polygon8235" /><path style="fill:#000000;stroke-width:0" d="m 230.86,479.99 0,0.15 -0.01,0.15 -0.02,0.15 -0.02,0.14 -0.03,0.14 -0.04,0.13 -0.04,0.14 -0.04,0.13 -0.06,0.12 -0.06,0.12 -0.06,0.12 -0.07,0.11 -0.08,0.11 -0.08,0.11 -0.08,0.1 -0.1,0.09 -0.09,0.09 -0.11,0.09 -0.1,0.08 -0.12,0.07 -0.11,0.07 -0.13,0.07 -0.12,0.06 -0.13,0.05 -0.14,0.05 -0.14,0.04 -0.14,0.04 -0.15,0.02 -0.16,0.03 -0.15,0.01 -0.16,0.01 -0.17,0.01 c -0.93,0 -1.58,-0.38 -1.87,-0.61 l 0,0.61 -2.19,-0.1 0,-0.58 c 0.77,0 0.85,0 0.85,-0.47 l 0,-6.22 -0.85,0 0,-0.58 1.56,0.04 1.56,-0.04 0,0.58 -0.86,0 0,2.3 c 0.54,-0.44 1.08,-0.56 1.59,-0.56 l -0.14,0.45 c -0.17,0 -0.75,0 -1.31,0.66 -0.14,0.16 -0.14,0.17 -0.14,0.41 l 0,2.62 c 0,0.23 0.02,0.24 0.19,0.41 0.5,0.51 1.14,0.59 1.41,0.59 0.83,0 1.52,-0.76 1.52,-2.31 l 0,0 c 0,-1.74 -0.86,-2.38 -1.67,-2.38 l 0.14,-0.45 c 1.86,0 3.12,1.11 3.12,2.83 z" id="path8237" /></g>    <path id="path8900" d="m 188.89853,330.60819 24.24366,-50.50763" style="fill:none;fill-rule:evenodd;stroke:#000000;stroke-width:1px;stroke-linecap:butt;stroke-linejoin:miter;stroke-opacity:1;marker-end:url(#marker8902)" />
  </g>
</svg>