<?xml version='1.0' ?><svg xmlns:dc="http://purl.org/dc/elements/1.1/" xmlns:cc="http://creativecommons.org/ns#" xmlns:rdf="http://www.w3.org/1999/02/22-rdf-syntax-ns#" xmlns:svg="http://www.w3.org/2000/svg" xmlns="http://www.w3.org/2000/svg" id="svg2" version="1.1" width="372.43167" height="240.59745" viewBox="0.0 2.443142393578595 565.0000184347825 365.0000111036789" preserveAspectRatio="none">
  <metadata id="metadata349">
    <rdf:RDF>
      <cc:Work rdf:about="">
        <dc:format>image/svg+xml</dc:format>
        <dc:type rdf:resource="http://purl.org/dc/dcmitype/StillImage" />
      </cc:Work>
    </rdf:RDF>
  </metadata>
  <defs id="defs347" />
  <title id="title4" />
  <g id="g6" stroke-linecap="square" stroke-miterlimit="10.000" stroke-width="1.0000" stroke-dasharray="none" stroke-dashoffset="0.0000" stroke-linejoin="miter">
    <clipPath id="clip1">
      <path id="path9" d="M 0.0000 0.0000 L 0.0000 367.00 L 567.00 367.00 L 567.00 0.0000 z" />
    </clipPath>
    <g id="g11" clip-path="url(#clip1)">
      <g id="g13" stroke="#000000" stroke-opacity="1.0000" fill="none" stroke-linecap="butt" stroke-width="2.0000">
        <path id="path15" d="M 271.38 3.0000 L 271.38 367.00" />
      </g>
    </g>
    <clipPath id="clip2">
      <path id="path18" d="M 0.0000 0.0000 L 0.0000 367.00 L 567.00 367.00 L 567.00 0.0000 z" />
    </clipPath>
    <g id="g20" clip-path="url(#clip2)">
      <g id="g22" fill="#000000" stroke="none" fill-rule="evenodd" fill-opacity="1.0000">
        <path id="path24" d="M 271.38 2.0000 L 265.38 26.000 L 277.38 26.000" />
      </g>
    </g>
    <clipPath id="clip3">
      <path id="path27" d="M 0.0000 0.0000 L 0.0000 367.00 L 567.00 367.00 L 567.00 0.0000 z" />
    </clipPath>
    <g id="g29" clip-path="url(#clip3)">
      <g id="g31" stroke="#000000" stroke-opacity="1.0000" fill="none" stroke-linecap="butt" stroke-width="2.0000">
        <path id="path33" d="M 0.0000 293.34 L 564.00 293.34" />
      </g>
    </g>
    <clipPath id="clip4">
      <path id="path36" d="M 0.0000 0.0000 L 0.0000 367.00 L 567.00 367.00 L 567.00 0.0000 z" />
    </clipPath>
    <g id="g38" clip-path="url(#clip4)">
      <g id="g40" fill="#000000" stroke="none" fill-rule="evenodd" fill-opacity="1.0000">
        <path id="path42" d="M 565.00 293.34 L 541.00 287.34 L 541.00 299.34" />
      </g>
    </g>
    <clipPath id="clip5">
      <path id="path45" d="M 0.0000 0.0000 L 0.0000 367.00 L 567.00 367.00 L 567.00 0.0000 z" />
    </clipPath>
    <g id="g47" clip-path="url(#clip5)">
      <g id="g49" stroke="#000000" stroke-opacity="1.0000" fill="none" stroke-linecap="butt" stroke-width="2.0000">
        <path id="path51" d="M 38.049 293.34 L 38.049 296.34" />
      </g>
    </g>
    <clipPath id="clip6">
      <path id="path54" d="M 0.0000 0.0000 L 0.0000 367.00 L 567.00 367.00 L 567.00 0.0000 z" />
    </clipPath>
    <g id="g56" clip-path="url(#clip6)">
      <g id="g58" stroke="#000000" stroke-opacity="1.0000" fill="none" stroke-linecap="butt" stroke-width="2.0000">
        <path id="path60" d="M 504.71 293.34 L 504.71 296.34" />
      </g>
    </g>
    <clipPath id="clip7">
      <path id="path63" d="M 0.0000 0.0000 L 0.0000 367.00 L 567.00 367.00 L 567.00 0.0000 z" />
    </clipPath>
    <g id="g65" clip-path="url(#clip7)">
      <g id="g67" stroke="#000000" stroke-opacity="1.0000" fill="none" stroke-linecap="butt" stroke-width="2.0000">
        <path id="path69" d="M 268.38 60.010 L 271.38 60.010" />
      </g>
    </g>
    <g id="misc" />
    <g id="layer0">
      <clipPath id="clip8">
        <path id="path74" d="M 0.0000 0.0000 L 0.0000 367.00 L 567.00 367.00 L 567.00 0.0000 z" />
      </clipPath>
      <g id="g76" clip-path="url(#clip8)">
        <g id="g78" fill="#993300" stroke="none" fill-rule="evenodd" fill-opacity=".098039">
          <path id="path80" d="M 341.38 293.34 L 341.38 70.757 L 342.11 70.988 L 342.83 71.221 L 343.56 71.457 L 344.29 71.696 L 345.02 71.937 L 345.75 72.181 L 346.48 72.427 L 347.21 72.676 L 347.94 72.928 L 348.67 73.183 L 349.40 73.440 L 350.13 73.700 L 350.86 73.963 L 351.58 74.229 L 352.31 74.497 L 353.04 74.768 L 353.77 75.042 L 354.50 75.318 L 355.23 75.598 L 355.96 75.880 L 356.69 76.165 L 357.42 76.453 L 358.15 76.744 L 358.88 77.037 L 359.61 77.334 L 360.33 77.633 L 361.06 77.935 L 361.79 78.240 L 362.52 78.548 L 363.25 78.859 L 363.98 79.173 L 364.71 79.489 L 365.44 79.809 L 366.17 80.132 L 366.90 80.457 L 367.63 80.786 L 368.35 81.118 L 369.08 81.452 L 369.81 81.790 L 370.54 82.131 L 371.27 82.475 L 372.00 82.822 L 372.73 83.172 L 373.46 83.525 L 374.19 83.881 L 374.92 84.241 L 375.65 84.604 L 376.38 84.969 L 377.10 85.338 L 377.83 85.711 L 378.56 86.086 L 379.29 86.465 L 380.02 86.847 L 380.75 87.232 L 381.48 87.621 L 382.21 88.013 L 382.94 88.408 L 383.67 88.807 L 384.40 89.209 L 385.13 89.614 L 385.85 90.023 L 386.58 90.435 L 387.31 90.851 L 388.04 91.270 L 388.77 91.693 L 389.50 92.119 L 390.23 92.549 L 390.96 92.982 L 391.69 93.419 L 392.42 93.860 L 393.15 94.304 L 393.88 94.752 L 394.60 95.204 L 395.33 95.659 L 396.06 96.118 L 396.79 96.581 L 397.52 97.048 L 398.25 97.518 L 398.98 97.992 L 399.71 98.471 L 400.44 98.953 L 401.17 99.439 L 401.90 99.929 L 402.63 100.42 L 403.35 100.92 L 404.08 101.42 L 404.81 101.93 L 405.54 102.44 L 406.27 102.95 L 407.00 103.47 L 407.73 104.00 L 408.46 104.52 L 409.19 105.05 L 409.92 105.59 L 410.65 106.13 L 411.37 106.68 L 412.10 107.22 L 412.83 107.78 L 413.56 108.34 L 414.29 108.90 L 415.02 109.47 L 415.75 110.04 L 416.48 110.62 L 417.21 111.20 L 417.94 111.78 L 418.67 112.37 L 419.40 112.97 L 420.12 113.57 L 420.85 114.18 L 421.58 114.79 L 422.31 115.40 L 423.04 116.02 L 423.77 116.65 L 424.50 117.28 L 425.23 117.92 L 425.96 118.56 L 426.69 119.21 L 427.42 119.86 L 428.15 120.52 L 428.87 121.18 L 429.60 121.85 L 430.33 122.53 L 431.06 123.21 L 431.79 123.90 L 432.52 124.59 L 433.25 125.29 L 433.98 126.00 L 434.71 126.71 L 434.71 293.34 L 341.38 293.34" />
          <title id="title82">Number a</title>
          <desc id="desc84">Number a: Integral of f from 0.3 to 0.7</desc>
        </g>
      </g>
      <clipPath id="clip9">
        <path id="path87" d="M 0.0000 0.0000 L 0.0000 367.00 L 567.00 367.00 L 567.00 0.0000 z" />
      </clipPath>
      <g id="g89" clip-path="url(#clip9)">
        <g id="g91" stroke="#993300" stroke-opacity="1.0000" fill="none" stroke-linecap="round" stroke-linejoin="round">
          <path id="path93" d="M 341.38 293.34 L 341.38 70.757 L 342.11 70.988 L 342.83 71.221 L 343.56 71.457 L 344.29 71.696 L 345.02 71.937 L 345.75 72.181 L 346.48 72.427 L 347.21 72.676 L 347.94 72.928 L 348.67 73.183 L 349.40 73.440 L 350.13 73.700 L 350.86 73.963 L 351.58 74.229 L 352.31 74.497 L 353.04 74.768 L 353.77 75.042 L 354.50 75.318 L 355.23 75.598 L 355.96 75.880 L 356.69 76.165 L 357.42 76.453 L 358.15 76.744 L 358.88 77.037 L 359.61 77.334 L 360.33 77.633 L 361.06 77.935 L 361.79 78.240 L 362.52 78.548 L 363.25 78.859 L 363.98 79.173 L 364.71 79.489 L 365.44 79.809 L 366.17 80.132 L 366.90 80.457 L 367.63 80.786 L 368.35 81.118 L 369.08 81.452 L 369.81 81.790 L 370.54 82.131 L 371.27 82.475 L 372.00 82.822 L 372.73 83.172 L 373.46 83.525 L 374.19 83.881 L 374.92 84.241 L 375.65 84.604 L 376.38 84.969 L 377.10 85.338 L 377.83 85.711 L 378.56 86.086 L 379.29 86.465 L 380.02 86.847 L 380.75 87.232 L 381.48 87.621 L 382.21 88.013 L 382.94 88.408 L 383.67 88.807 L 384.40 89.209 L 385.13 89.614 L 385.85 90.023 L 386.58 90.435 L 387.31 90.851 L 388.04 91.270 L 388.77 91.693 L 389.50 92.119 L 390.23 92.549 L 390.96 92.982 L 391.69 93.419 L 392.42 93.860 L 393.15 94.304 L 393.88 94.752 L 394.60 95.204 L 395.33 95.659 L 396.06 96.118 L 396.79 96.581 L 397.52 97.048 L 398.25 97.518 L 398.98 97.992 L 399.71 98.471 L 400.44 98.953 L 401.17 99.439 L 401.90 99.929 L 402.63 100.42 L 403.35 100.92 L 404.08 101.42 L 404.81 101.93 L 405.54 102.44 L 406.27 102.95 L 407.00 103.47 L 407.73 104.00 L 408.46 104.52 L 409.19 105.05 L 409.92 105.59 L 410.65 106.13 L 411.37 106.68 L 412.10 107.22 L 412.83 107.78 L 413.56 108.34 L 414.29 108.90 L 415.02 109.47 L 415.75 110.04 L 416.48 110.62 L 417.21 111.20 L 417.94 111.78 L 418.67 112.37 L 419.40 112.97 L 420.12 113.57 L 420.85 114.18 L 421.58 114.79 L 422.31 115.40 L 423.04 116.02 L 423.77 116.65 L 424.50 117.28 L 425.23 117.92 L 425.96 118.56 L 426.69 119.21 L 427.42 119.86 L 428.15 120.52 L 428.87 121.18 L 429.60 121.85 L 430.33 122.53 L 431.06 123.21 L 431.79 123.90 L 432.52 124.59 L 433.25 125.29 L 433.98 126.00 L 434.71 126.71 L 434.71 293.34 L 341.38 293.34" />
          <title id="title95">Number a</title>
          <desc id="desc97">Number a: Integral of f from 0.3 to 0.7</desc>
        </g>
      </g>
      <clipPath id="clip10">
        <path id="path100" d="M 0.0000 0.0000 L 0.0000 367.00 L 567.00 367.00 L 567.00 0.0000 z" />
      </clipPath>
      <g id="g102" clip-path="url(#clip10)">
        <g id="g104" stroke="#0000ff" stroke-opacity="1.0000" fill="none" stroke-linecap="round" stroke-width="3.0000" stroke-linejoin="round">
          <path id="path106" d="M 38.049 293.34 L 38.163 286.06 L 38.276 283.04 L 38.504 278.78 L 38.958 272.76 L 39.867 264.27 L 40.975 256.51 L 42.082 250.14 L 43.189 244.63 L 44.297 239.70 L 46.512 231.07 L 48.727 223.56 L 50.941 216.85 L 53.156 210.75 L 55.371 205.11 L 57.586 199.88 L 62.016 190.33 L 66.445 181.78 L 70.875 174.00 L 75.305 166.86 L 79.734 160.24 L 84.164 154.08 L 88.594 148.31 L 93.023 142.90 L 97.453 137.80 L 101.88 132.98 L 106.31 128.43 L 110.74 124.11 L 115.17 120.01 L 119.60 116.12 L 124.03 112.42 L 128.46 108.90 L 132.89 105.55 L 137.32 102.37 L 141.75 99.331 L 146.18 96.443 L 150.61 93.696 L 155.04 91.082 L 159.47 88.598 L 163.90 86.238 L 168.33 83.999 L 172.76 81.876 L 177.19 79.866 L 181.62 77.966 L 186.05 76.173 L 190.48 74.484 L 194.91 72.897 L 199.34 71.410 L 203.77 70.021 L 208.20 68.727 L 212.62 67.528 L 217.05 66.422 L 221.48 65.407 L 225.91 64.482 L 230.34 63.646 L 234.77 62.899 L 239.20 62.239 L 243.63 61.665 L 248.06 61.178 L 252.49 60.775 L 256.92 60.458 L 261.35 60.225 L 265.78 60.077 L 270.21 60.013 L 274.64 60.033 L 279.07 60.137 L 283.50 60.325 L 287.93 60.598 L 292.36 60.955 L 296.79 61.398 L 301.22 61.926 L 305.65 62.540 L 310.08 63.242 L 314.51 64.031 L 318.94 64.908 L 323.37 65.876 L 327.80 66.934 L 332.23 68.084 L 336.66 69.327 L 341.09 70.666 L 345.52 72.102 L 349.95 73.636 L 354.38 75.270 L 358.80 77.008 L 363.23 78.852 L 367.66 80.803 L 372.09 82.866 L 376.52 85.044 L 380.95 87.340 L 385.38 89.758 L 389.81 92.303 L 394.24 94.979 L 398.67 97.792 L 403.10 100.75 L 407.53 103.85 L 411.96 107.12 L 416.39 110.54 L 420.82 114.15 L 425.25 117.94 L 429.68 121.92 L 434.11 126.12 L 438.54 130.55 L 442.97 135.23 L 447.40 140.18 L 451.83 145.42 L 456.26 151.00 L 460.69 156.94 L 465.12 163.31 L 469.55 170.17 L 473.98 177.60 L 478.41 185.72 L 482.84 194.71 L 485.05 199.60 L 487.27 204.82 L 489.48 210.43 L 491.70 216.51 L 493.91 223.18 L 496.12 230.64 L 498.34 239.21 L 499.45 244.08 L 500.55 249.52 L 501.59 255.35 L 502.63 262.28 L 503.67 271.36 L 504.19 277.79 L 504.45 282.34 L 504.58 285.56 L 504.71 293.34" />
          <title id="title108">Function f</title>
          <desc id="desc110">f(x) = sqrt(1 - xÃ&#130;Â²)</desc>
        </g>
      </g>
      <clipPath id="clip11">
        <path id="path113" d="M 0.0000 0.0000 L 0.0000 367.00 L 567.00 367.00 L 567.00 0.0000 z" />
      </clipPath>
      <g id="g115" clip-path="url(#clip11)">
        <g id="g117" stroke="#000000" stroke-opacity="1.0000" fill="none" stroke-linecap="round" stroke-width="2.0000" stroke-linejoin="round">
          <path id="path119" d="M 341.38 70.757 L 341.38 293.34" />
          <title id="title121">Segment i</title>
          <desc id="desc123">Segment i: Segment [A, D]</desc>
        </g>
      </g>
      <clipPath id="clip12">
        <path id="path126" d="M 0.0000 0.0000 L 0.0000 367.00 L 567.00 367.00 L 567.00 0.0000 z" />
      </clipPath>
      <g id="g128" clip-path="url(#clip12)">
        <g id="g130" stroke="#000000" stroke-opacity="1.0000" fill="none" stroke-linecap="round" stroke-width="2.0000" stroke-linejoin="round">
          <path id="path132" d="M 434.71 293.34 L 434.71 126.71" />
          <title id="title134">Segment j</title>
          <desc id="desc136">Segment j: Segment [C, B]</desc>
        </g>
      </g>
      <clipPath id="clip13">
        <path id="path139" d="M 0.0000 0.0000 L 0.0000 367.00 L 567.00 367.00 L 567.00 0.0000 z" />
      </clipPath>
      <g id="g141" clip-path="url(#clip13)">
        <g id="g143" stroke="#000000" stroke-opacity="1.0000" fill="none" stroke-linecap="butt" stroke-width="3.0000" stroke-dasharray="11.000,8.0000" stroke-linejoin="round">
          <path id="path145" d="M 271.38 293.34 L 341.38 70.757" />
          <title id="title147">Segment k</title>
          <desc id="desc149">Segment k: Segment [E, A]</desc>
        </g>
      </g>
      <clipPath id="clip14">
        <path id="path152" d="M 0.0000 0.0000 L 0.0000 367.00 L 567.00 367.00 L 567.00 0.0000 z" />
      </clipPath>
      <g id="g154" clip-path="url(#clip14)">
        <g id="g156" stroke="#000000" stroke-opacity="1.0000" fill="none" stroke-linecap="butt" stroke-width="3.0000" stroke-dasharray="11.000,8.0000" stroke-linejoin="round">
          <path id="path158" d="M 271.38 293.34 L 434.71 126.71" />
          <title id="title160">Segment l</title>
          <desc id="desc162">Segment l: Segment [E, B]</desc>
        </g>
      </g>
      <clipPath id="clip15">
        <path id="path165" d="M 0.0000 0.0000 L 0.0000 367.00 L 567.00 367.00 L 567.00 0.0000 z" />
      </clipPath>
      <g id="g167" clip-path="url(#clip15)">
        <g id="g169" stroke="#000000" stroke-opacity="1.0000" fill="none" stroke-linecap="round" stroke-width="3.0000" stroke-linejoin="round">
          <path id="path171" d="M 271.38 293.34 L 434.71 293.34" />
          <title id="title173">Segment m</title>
          <desc id="desc175">Segment m: Segment [E, C]</desc>
        </g>
      </g>
      <clipPath id="clip16">
        <path id="path178" d="M 0.0000 0.0000 L 0.0000 367.00 L 567.00 367.00 L 567.00 0.0000 z" />
      </clipPath>
      <g id="g180" clip-path="url(#clip16)">
        <g id="g182" fill="#444444" stroke="none" fill-rule="nonzero" fill-opacity="1.0000">
          <path id="path184" d="M 437.71 293.34 C 437.71 295.00 436.36 296.34 434.71 296.34 C 433.05 296.34 431.71 295.00 431.71 293.34 C 431.71 291.68 433.05 290.34 434.71 290.34 C 436.36 290.34 437.71 291.68 437.71 293.34 z" />
          <title id="title186">Point C</title>
          <desc id="desc188">Point C: Intersection point of h, xAxis</desc>
        </g>
      </g>
      <clipPath id="clip17">
        <path id="path191" d="M 0.0000 0.0000 L 0.0000 367.00 L 567.00 367.00 L 567.00 0.0000 z" />
      </clipPath>
      <g id="g193" clip-path="url(#clip17)">
        <g id="g195" stroke="#000000" stroke-opacity="1.0000" fill="none" stroke-linecap="round" stroke-linejoin="round">
          <path id="path197" d="M 437.71 293.34 C 437.71 295.00 436.36 296.34 434.71 296.34 C 433.05 296.34 431.71 295.00 431.71 293.34 C 431.71 291.68 433.05 290.34 434.71 290.34 C 436.36 290.34 437.71 291.68 437.71 293.34 z" />
          <title id="title199">Point C</title>
          <desc id="desc201">Point C: Intersection point of h, xAxis</desc>
        </g>
      </g>
      <clipPath id="clip18">
        <path id="path204" d="M 0.0000 0.0000 L 0.0000 367.00 L 567.00 367.00 L 567.00 0.0000 z" />
      </clipPath>
      <g id="g206" clip-path="url(#clip18)">
        <g id="g208" fill="#444444" stroke="none" fill-rule="nonzero" fill-opacity="1.0000">
          <path id="path210" d="M 344.38 293.34 C 344.38 295.00 343.03 296.34 341.38 296.34 C 339.72 296.34 338.38 295.00 338.38 293.34 C 338.38 291.68 339.72 290.34 341.38 290.34 C 343.03 290.34 344.38 291.68 344.38 293.34 z" />
          <title id="title212">Point D</title>
          <desc id="desc214">Point D: Intersection point of g, xAxis</desc>
        </g>
      </g>
      <clipPath id="clip19">
        <path id="path217" d="M 0.0000 0.0000 L 0.0000 367.00 L 567.00 367.00 L 567.00 0.0000 z" />
      </clipPath>
      <g id="g219" clip-path="url(#clip19)">
        <g id="g221" stroke="#000000" stroke-opacity="1.0000" fill="none" stroke-linecap="round" stroke-linejoin="round">
          <path id="path223" d="M 344.38 293.34 C 344.38 295.00 343.03 296.34 341.38 296.34 C 339.72 296.34 338.38 295.00 338.38 293.34 C 338.38 291.68 339.72 290.34 341.38 290.34 C 343.03 290.34 344.38 291.68 344.38 293.34 z" />
          <title id="title225">Point D</title>
          <desc id="desc227">Point D: Intersection point of g, xAxis</desc>
        </g>
      </g>
      <clipPath id="clip20">
        <path id="path230" d="M 0.0000 0.0000 L 0.0000 367.00 L 567.00 367.00 L 567.00 0.0000 z" />
      </clipPath>
      <g id="g232" clip-path="url(#clip20)">
        <g id="g234" fill="#444444" stroke="none" fill-rule="nonzero" fill-opacity="1.0000">
          <path id="path236" d="M 274.38 293.34 C 274.38 295.00 273.03 296.34 271.38 296.34 C 269.72 296.34 268.38 295.00 268.38 293.34 C 268.38 291.68 269.72 290.34 271.38 290.34 C 273.03 290.34 274.38 291.68 274.38 293.34 z" />
          <title id="title238">Point E</title>
          <desc id="desc240">Point E: Intersection point of xAxis, yAxis</desc>
        </g>
      </g>
      <clipPath id="clip21">
        <path id="path243" d="M 0.0000 0.0000 L 0.0000 367.00 L 567.00 367.00 L 567.00 0.0000 z" />
      </clipPath>
      <g id="g245" clip-path="url(#clip21)">
        <g id="g247" stroke="#000000" stroke-opacity="1.0000" fill="none" stroke-linecap="round" stroke-linejoin="round">
          <path id="path249" d="M 274.38 293.34 C 274.38 295.00 273.03 296.34 271.38 296.34 C 269.72 296.34 268.38 295.00 268.38 293.34 C 268.38 291.68 269.72 290.34 271.38 290.34 C 273.03 290.34 274.38 291.68 274.38 293.34 z" />
          <title id="title251">Point E</title>
          <desc id="desc253">Point E: Intersection point of xAxis, yAxis</desc>
        </g>
      </g>
      <g id="g255" transform="matrix(23.000, 0.0000, 0.0000, 23.000, 246.00, 23.222)">
        <clipPath id="clip22">
          <path id="path258" d="M -10.696 -1.0097 L -10.696 14.947 L 13.957 14.947 L 13.957 -1.0097 z" />
        </clipPath>
        <g id="g260" clip-path="url(#clip22)">
          <g id="g262" fill="#000000" stroke="none" fill-rule="nonzero" fill-opacity="1.0000">
            <path id="path264" d="M .57812 -.37500 L .48438 -0.0000 Q .46875 .093750 .38281 .14844 Q .29688 .20312 .20312 .20312 Q .14062 .20312 .10938 .17969 Q .078125 .15625 .078125 .10938 Q .078125 .078125 .093750 .054688 Q .10938 .031250 .14062 .031250 Q .15625 .031250 .17188 .046875 Q .18750 .062500 .18750 .078125 Q .18750 .12500 .14062 .15625 Q .17188 .17188 .20312 .17188 Q .26562 .17188 .31250 .11719 Q .35938 .062500 .37500 -.015625 Q .32812 .015625 .28125 .015625 Q .25000 .015625 .22656 .0078125 Q .20312 -0.0000 .17969 -.015625 Q .15625 -.031250 .14062 -.054688 Q .12500 -.078125 .12500 -.12500 Q .12500 -.15625 .14062 -.20312 Q .15625 -.25000 .18750 -.32812 Q .20312 -.37500 .20312 -.39062 Q .20312 -.40625 .19531 -.41406 Q .18750 -.42188 .18750 -.42188 Q .18750 -.42188 .18750 -.42188 Q .17188 -.42188 .16406 -.41406 Q .15625 -.40625 .14062 -.39844 Q .12500 -.39062 .10938 -.35938 Q .093750 -.32812 .078125 -.29688 Q .078125 -.28125 .062500 -.28125 Q .031250 -.28125 .031250 -.29688 Q .031250 -.31250 .039062 -.33594 Q .046875 -.35938 .070312 -.38281 Q .093750 -.40625 .12500 -.42969 Q .15625 -.45312 .18750 -.45312 Q .23438 -.45312 .26562 -.42969 Q .29688 -.40625 .29688 -.35938 Q .29688 -.34375 .28125 -.31250 Q .23438 -.15625 .23438 -.093750 Q .23438 -.031250 .28125 -.031250 Q .31250 -.031250 .35938 -.046875 Q .35938 -.046875 .36719 -.054688 Q .37500 -.062500 .38281 -.078125 Q .39062 -.093750 .39062 -.093750 Q .40625 -.12500 .43750 -.26562 L .46875 -.37500 Q .46875 -.39062 .46875 -.39844 Q .46875 -.40625 .47656 -.42188 Q .48438 -.43750 .50000 -.43750 Q .51562 -.43750 .53125 -.43750 Q .56250 -.43750 .57031 -.42969 Q .57812 -.42188 .57812 -.40625 Q .57812 -.39062 .57812 -.37500 z" />
            <title id="title266">y</title>
            <desc id="desc268">text1 = &quot;y&quot;</desc>
          </g>
        </g>
      </g>
      <g id="g270" transform="matrix(23.000, 0.0000, 0.0000, 23.000, 543.00, 317.22)">
        <clipPath id="clip23">
          <path id="path273" d="M -23.609 -13.792 L -23.609 2.1643 L 1.0435 2.1643 L 1.0435 -13.792 z" />
        </clipPath>
        <g id="g275" clip-path="url(#clip23)">
          <g id="g277" fill="#000000" stroke="none" fill-rule="nonzero" fill-opacity="1.0000">
            <path id="path279" d="M .53125 -.40625 Q .51562 -.42188 .48438 -.42188 Q .46875 -.42188 .43750 -.39844 Q .40625 -.37500 .40625 -.32812 Q .40625 -.31250 .39062 -.25781 Q .37500 -.20312 .37500 -.18750 Q .34375 -.093750 .34375 -.078125 Q .34375 -.031250 .40625 -.031250 Q .43750 -.031250 .48438 -.062500 Q .53125 -.093750 .54688 -.15625 Q .54688 -.15625 .56250 -.15625 Q .59375 -.15625 .59375 -.14844 Q .59375 -.14062 .57812 -.10938 Q .56250 -.078125 .53906 -.054688 Q .51562 -.031250 .47656 -.0078125 Q .43750 .015625 .39062 .015625 Q .29688 .015625 .26562 -.046875 Q .21875 .015625 .15625 .015625 Q .10938 .015625 .070312 -.015625 Q .031250 -.046875 .031250 -.078125 Q .031250 -.10938 .054688 -.13281 Q .078125 -.15625 .10938 -.15625 Q .14062 -.15625 .14844 -.14062 Q .15625 -.12500 .15625 -.10938 Q .15625 -.093750 .14062 -.070312 Q .12500 -.046875 .10938 -.046875 Q .12500 -.031250 .15625 -.031250 Q .18750 -.031250 .21094 -.054688 Q .23438 -.078125 .23438 -.12500 L .26562 -.25000 Q .29688 -.34375 .29688 -.35938 Q .29688 -.42188 .23438 -.42188 Q .20312 -.42188 .16406 -.39062 Q .12500 -.35938 .093750 -.29688 Q .093750 -.28125 .078125 -.28125 Q .046875 -.28125 .046875 -.29688 Q .046875 -.31250 .062500 -.33594 Q .078125 -.35938 .10156 -.38281 Q .12500 -.40625 .16406 -.42969 Q .20312 -.45312 .25000 -.45312 Q .34375 -.45312 .39062 -.39062 Q .42188 -.45312 .48438 -.45312 Q .53125 -.45312 .57031 -.42969 Q .60938 -.40625 .60938 -.35938 Q .60938 -.32812 .58594 -.30469 Q .56250 -.28125 .53125 -.28125 Q .51562 -.28125 .50000 -.29688 Q .48438 -.31250 .48438 -.32812 Q .48438 -.35938 .50000 -.37500 Q .51562 -.39062 .53125 -.40625 z" />
            <title id="title281">x</title>
            <desc id="desc283">text2 = &quot;x&quot;</desc>
          </g>
        </g>
      </g>
      <g id="g285" transform="matrix(23.000, 0.0000, 0.0000, 23.000, 253.00, 67.972)">
        <clipPath id="clip24">
          <path id="path288" d="M -11.000 -2.9553 L -11.000 13.001 L 13.652 13.001 L 13.652 -2.9553 z" />
        </clipPath>
        <g id="g290" clip-path="url(#clip24)">
          <g id="g292" fill="#000000" stroke="none" fill-rule="nonzero" fill-opacity="1.0000">
            <path id="path294" d="M .093750 -.031250 L .093750 -.046875 Q .093750 -.062500 .10156 -.070312 Q .10938 -.078125 .12500 -.078125 L .21875 -.078125 L .21875 -.57812 Q .17188 -.57812 .10938 -.57812 Q .093750 -.57812 .085938 -.58594 Q .078125 -.59375 .078125 -.60938 L .078125 -.60938 Q .078125 -.64062 .10938 -.64062 Q .21875 -.64062 .28125 -.70312 Q .28125 -.71875 .29688 -.71875 L .32812 -.71875 Q .34375 -.71875 .35156 -.71094 Q .35938 -.70312 .35938 -.68750 L .35938 -.078125 L .43750 -.078125 Q .45312 -.078125 .46094 -.070312 Q .46875 -.062500 .46875 -.046875 L .46875 -.031250 Q .46875 -0.0000 .43750 -0.0000 L .12500 -0.0000 Q .093750 -0.0000 .093750 -.031250 z" />
            <title id="title296">1</title>
            <desc id="desc298">text3 = &quot;1&quot;</desc>
          </g>
        </g>
      </g>
      <g id="g300" transform="matrix(23.000, 0.0000, 0.0000, 23.000, 496.00, 316.82)">
        <clipPath id="clip25">
          <path id="path303" d="M -21.565 -13.775 L -21.565 2.1816 L 3.0870 2.1816 L 3.0870 -13.775 z" />
        </clipPath>
        <g id="g305" clip-path="url(#clip25)">
          <g id="g307" fill="#000000" stroke="none" fill-rule="nonzero" fill-opacity="1.0000">
            <path id="path309" d="M .35938 -.62500 L .35938 -.046875 L .50000 -.046875 L .50000 -0.0000 Q .45312 -0.0000 .29688 -0.0000 Q .14062 -0.0000 .093750 -0.0000 L .093750 -.046875 L .23438 -.046875 L .23438 -.56250 Q .17188 -.54688 .10938 -.54688 L .078125 -.54688 L .078125 -.59375 L .10938 -.59375 Q .23438 -.59375 .31250 -.64062 Q .31250 -.65625 .32812 -.65625 Q .34375 -.65625 .35156 -.64844 Q .35938 -.64062 .35938 -.62500 z" />
            <title id="title311">1</title>
            <desc id="desc313">text4 = &quot;1&quot;</desc>
          </g>
        </g>
      </g>
      <g id="g315" transform="matrix(23.000, 0.0000, 0.0000, 23.000, 18.000, 316.82)">
        <clipPath id="clip26">
          <path id="path318" d="M -.78261 -13.775 L -.78261 2.1816 L 23.870 2.1816 L 23.870 -13.775 z" />
        </clipPath>
        <g id="g320" clip-path="url(#clip26)">
          <g id="g322" fill="#000000" stroke="none" fill-rule="nonzero" fill-opacity="1.0000">
            <path id="path324" d="M .75000 -.21875 L .14062 -.21875 Q .093750 -.21875 .093750 -.25000 Q .093750 -.28125 .14062 -.28125 L .75000 -.28125 Q .79688 -.28125 .79688 -.25000 Q .79688 -.21875 .75000 -.21875 z" />
            <title id="title326">-1</title>
            <desc id="desc328">text5 = &quot;-1&quot;</desc>
          </g>
        </g>
      </g>
      <g id="g330" transform="matrix(23.000, 0.0000, 0.0000, 23.000, 38.572, 316.82)">
        <clipPath id="clip27">
          <path id="path333" d="M -1.6770 -13.775 L -1.6770 2.1816 L 22.975 2.1816 L 22.975 -13.775 z" />
        </clipPath>
        <g id="g335" clip-path="url(#clip27)">
          <g id="g337" fill="#000000" stroke="none" fill-rule="nonzero" fill-opacity="1.0000">
            <path id="path339" d="M .35938 -.62500 L .35938 -.046875 L .50000 -.046875 L .50000 -0.0000 Q .45312 -0.0000 .29688 -0.0000 Q .14062 -0.0000 .093750 -0.0000 L .093750 -.046875 L .23438 -.046875 L .23438 -.56250 Q .17188 -.54688 .10938 -.54688 L .078125 -.54688 L .078125 -.59375 L .10938 -.59375 Q .23438 -.59375 .31250 -.64062 Q .31250 -.65625 .32812 -.65625 Q .34375 -.65625 .35156 -.64844 Q .35938 -.64062 .35938 -.62500 z" />
            <title id="title341">-1</title>
            <desc id="desc343">text5 = &quot;-1&quot;</desc>
          </g>
        </g>
      </g>
    </g>
  </g>
</svg>