<?xml version='1.0' ?><svg xmlns:dc="http://purl.org/dc/elements/1.1/" xmlns:cc="http://creativecommons.org/ns#" xmlns:rdf="http://www.w3.org/1999/02/22-rdf-syntax-ns#" xmlns:svg="http://www.w3.org/2000/svg" xmlns="http://www.w3.org/2000/svg" id="svg2" version="1.1" width="333.89258" height="191.03307" viewBox="0.0 2.3246068507462687 603.0000325373135 345.00002194029855" preserveAspectRatio="none">
  <metadata id="metadata486">
    <rdf:RDF>
      <cc:Work rdf:about="">
        <dc:format>image/svg+xml</dc:format>
        <dc:type rdf:resource="http://purl.org/dc/dcmitype/StillImage" />
      </cc:Work>
    </rdf:RDF>
  </metadata>
  <defs id="defs484" />
  <title id="title4" />
  <g id="g6" stroke-linecap="square" stroke-miterlimit="10.000" stroke-width="1.0000" stroke-dasharray="none" stroke-dashoffset="0.0000" stroke-linejoin="miter">
    <clipPath id="clip1">
      <path id="path9" d="M 0.0000 0.0000 L 0.0000 347.00 L 605.00 347.00 L 605.00 0.0000 z" />
    </clipPath>
    <g id="g11" clip-path="url(#clip1)">
      <g id="g13" stroke="#000000" stroke-opacity="1.0000" fill="none" stroke-linecap="butt" stroke-width="2.0000">
        <path id="path15" d="M 295.38 3.0000 L 295.38 347.00" />
      </g>
    </g>
    <clipPath id="clip2">
      <path id="path18" d="M 0.0000 0.0000 L 0.0000 347.00 L 605.00 347.00 L 605.00 0.0000 z" />
    </clipPath>
    <g id="g20" clip-path="url(#clip2)">
      <g id="g22" fill="#000000" stroke="none" fill-rule="evenodd" fill-opacity="1.0000">
        <path id="path24" d="M 295.38 2.0000 L 289.38 26.000 L 301.38 26.000" />
      </g>
    </g>
    <clipPath id="clip3">
      <path id="path27" d="M 0.0000 0.0000 L 0.0000 347.00 L 605.00 347.00 L 605.00 0.0000 z" />
    </clipPath>
    <g id="g29" clip-path="url(#clip3)">
      <g id="g31" stroke="#000000" stroke-opacity="1.0000" fill="none" stroke-linecap="butt" stroke-width="2.0000">
        <path id="path33" d="M 0.0000 295.34 L 602.00 295.34" />
      </g>
    </g>
    <clipPath id="clip4">
      <path id="path36" d="M 0.0000 0.0000 L 0.0000 347.00 L 605.00 347.00 L 605.00 0.0000 z" />
    </clipPath>
    <g id="g38" clip-path="url(#clip4)">
      <g id="g40" fill="#000000" stroke="none" fill-rule="evenodd" fill-opacity="1.0000">
        <path id="path42" d="M 603.00 295.34 L 579.00 289.34 L 579.00 301.34" />
      </g>
    </g>
    <clipPath id="clip5">
      <path id="path45" d="M 0.0000 0.0000 L 0.0000 347.00 L 605.00 347.00 L 605.00 0.0000 z" />
    </clipPath>
    <g id="g47" clip-path="url(#clip5)">
      <g id="g49" stroke="#000000" stroke-opacity="1.0000" fill="none" stroke-linecap="butt" stroke-width="2.0000">
        <path id="path51" d="M 62.049 295.34 L 62.049 298.34" />
      </g>
    </g>
    <clipPath id="clip6">
      <path id="path54" d="M 0.0000 0.0000 L 0.0000 347.00 L 605.00 347.00 L 605.00 0.0000 z" />
    </clipPath>
    <g id="g56" clip-path="url(#clip6)">
      <g id="g58" stroke="#000000" stroke-opacity="1.0000" fill="none" stroke-linecap="butt" stroke-width="2.0000">
        <path id="path60" d="M 528.71 295.34 L 528.71 298.34" />
      </g>
    </g>
    <clipPath id="clip7">
      <path id="path63" d="M 0.0000 0.0000 L 0.0000 347.00 L 605.00 347.00 L 605.00 0.0000 z" />
    </clipPath>
    <g id="g65" clip-path="url(#clip7)">
      <g id="g67" stroke="#000000" stroke-opacity="1.0000" fill="none" stroke-linecap="butt" stroke-width="2.0000">
        <path id="path69" d="M 292.38 62.010 L 295.38 62.010" />
      </g>
    </g>
    <g id="misc" />
    <g id="layer0">
      <clipPath id="clip8">
        <path id="path74" d="M 0.0000 0.0000 L 0.0000 347.00 L 605.00 347.00 L 605.00 0.0000 z" />
      </clipPath>
      <g id="g76" clip-path="url(#clip8)">
        <g id="g78" stroke="#993300" stroke-opacity="1.0000" fill="none" stroke-linecap="round" stroke-linejoin="round">
          <path id="path80" d="M 365.38 295.34 L 365.38 72.757 L 366.11 72.988 L 366.83 73.221 L 367.56 73.457 L 368.29 73.696 L 369.02 73.937 L 369.75 74.181 L 370.48 74.427 L 371.21 74.676 L 371.94 74.928 L 372.67 75.183 L 373.40 75.440 L 374.13 75.700 L 374.86 75.963 L 375.58 76.229 L 376.31 76.497 L 377.04 76.768 L 377.77 77.042 L 378.50 77.318 L 379.23 77.598 L 379.96 77.880 L 380.69 78.165 L 381.42 78.453 L 382.15 78.744 L 382.88 79.037 L 383.61 79.334 L 384.33 79.633 L 385.06 79.935 L 385.79 80.240 L 386.52 80.548 L 387.25 80.859 L 387.98 81.173 L 388.71 81.489 L 389.44 81.809 L 390.17 82.132 L 390.90 82.457 L 391.63 82.786 L 392.35 83.118 L 393.08 83.452 L 393.81 83.790 L 394.54 84.131 L 395.27 84.475 L 396.00 84.822 L 396.73 85.172 L 397.46 85.525 L 398.19 85.881 L 398.92 86.241 L 399.65 86.604 L 400.38 86.969 L 401.10 87.338 L 401.83 87.711 L 402.56 88.086 L 403.29 88.465 L 404.02 88.847 L 404.75 89.232 L 405.48 89.621 L 406.21 90.013 L 406.94 90.408 L 407.67 90.807 L 408.40 91.209 L 409.13 91.614 L 409.85 92.023 L 410.58 92.435 L 411.31 92.851 L 412.04 93.270 L 412.77 93.693 L 413.50 94.119 L 414.23 94.549 L 414.96 94.982 L 415.69 95.419 L 416.42 95.860 L 417.15 96.304 L 417.88 96.752 L 418.60 97.204 L 419.33 97.659 L 420.06 98.118 L 420.79 98.581 L 421.52 99.048 L 422.25 99.518 L 422.98 99.992 L 423.71 100.47 L 424.44 100.95 L 425.17 101.44 L 425.90 101.93 L 426.63 102.42 L 427.35 102.92 L 428.08 103.42 L 428.81 103.93 L 429.54 104.44 L 430.27 104.95 L 431.00 105.47 L 431.73 106.00 L 432.46 106.52 L 433.19 107.05 L 433.92 107.59 L 434.65 108.13 L 435.37 108.68 L 436.10 109.22 L 436.83 109.78 L 437.56 110.34 L 438.29 110.90 L 439.02 111.47 L 439.75 112.04 L 440.48 112.62 L 441.21 113.20 L 441.94 113.78 L 442.67 114.37 L 443.40 114.97 L 444.12 115.57 L 444.85 116.18 L 445.58 116.79 L 446.31 117.40 L 447.04 118.02 L 447.77 118.65 L 448.50 119.28 L 449.23 119.92 L 449.96 120.56 L 450.69 121.21 L 451.42 121.86 L 452.15 122.52 L 452.87 123.18 L 453.60 123.85 L 454.33 124.53 L 455.06 125.21 L 455.79 125.90 L 456.52 126.59 L 457.25 127.29 L 457.98 128.00 L 458.71 128.71 L 458.71 295.34 L 365.38 295.34" />
          <title id="title82">Number a</title>
          <desc id="desc84">Number a: Integral of f from 0.3 to 0.7</desc>
        </g>
      </g>
      <clipPath id="clip9">
        <path id="path87" d="M 0.0000 0.0000 L 0.0000 347.00 L 605.00 347.00 L 605.00 0.0000 z" />
      </clipPath>
      <g id="g89" clip-path="url(#clip9)">
        <g id="g91" stroke="#0000ff" stroke-opacity="1.0000" fill="none" stroke-linecap="round" stroke-width="3.0000" stroke-linejoin="round">
          <path id="path93" d="M 62.049 295.34 L 62.178 287.59 L 62.307 284.38 L 62.564 279.84 L 63.080 273.43 L 64.110 264.39 L 65.141 257.48 L 66.172 251.67 L 67.354 245.87 L 68.535 240.71 L 70.898 231.69 L 73.262 223.88 L 75.625 216.91 L 77.988 210.58 L 80.352 204.75 L 82.715 199.33 L 85.078 194.26 L 89.805 184.97 L 94.531 176.58 L 99.258 168.93 L 103.98 161.88 L 108.71 155.35 L 113.44 149.26 L 118.16 143.56 L 122.89 138.21 L 127.62 133.17 L 132.34 128.42 L 137.07 123.93 L 141.80 119.68 L 146.52 115.66 L 151.25 111.85 L 155.98 108.23 L 160.70 104.80 L 165.43 101.55 L 170.16 98.458 L 174.88 95.531 L 179.61 92.755 L 184.34 90.127 L 189.06 87.638 L 193.79 85.286 L 198.52 83.065 L 203.24 80.971 L 207.97 79.001 L 212.70 77.151 L 217.42 75.418 L 222.15 73.799 L 226.88 72.292 L 231.60 70.895 L 236.33 69.606 L 241.05 68.422 L 245.78 67.342 L 250.51 66.365 L 255.23 65.489 L 259.96 64.714 L 264.69 64.037 L 269.41 63.459 L 274.14 62.978 L 278.87 62.595 L 283.59 62.308 L 288.32 62.117 L 293.05 62.022 L 297.77 62.022 L 302.50 62.119 L 307.23 62.311 L 311.95 62.599 L 316.68 62.984 L 321.41 63.466 L 326.13 64.046 L 330.86 64.723 L 335.59 65.500 L 340.31 66.378 L 345.04 67.356 L 349.77 68.437 L 354.49 69.623 L 359.22 70.914 L 363.95 72.312 L 368.67 73.821 L 373.40 75.441 L 378.12 77.175 L 382.85 79.027 L 387.58 80.999 L 392.30 83.095 L 397.03 85.318 L 401.76 87.672 L 406.48 90.162 L 411.21 92.792 L 415.94 95.570 L 420.66 98.500 L 425.39 101.59 L 430.12 104.85 L 434.84 108.28 L 439.57 111.90 L 444.30 115.71 L 449.02 119.74 L 453.75 123.99 L 458.48 128.48 L 463.20 133.24 L 467.93 138.28 L 472.66 143.63 L 477.38 149.34 L 482.11 155.43 L 486.84 161.97 L 491.56 169.03 L 496.29 176.69 L 501.02 185.09 L 505.74 194.40 L 508.11 199.48 L 510.47 204.91 L 512.83 210.75 L 515.20 217.09 L 517.56 224.08 L 519.92 231.92 L 522.29 240.98 L 523.47 246.17 L 524.65 252.01 L 525.66 257.78 L 526.68 264.64 L 527.69 273.60 L 528.20 279.96 L 528.45 284.46 L 528.58 287.65 L 528.71 295.34" />
          <title id="title95">Function f</title>
          <desc id="desc97">f(x) = sqrt(1 - xÃ&#131;Â&#130;Ã&#130;Â²)</desc>
        </g>
      </g>
      <clipPath id="clip10">
        <path id="path100" d="M 0.0000 0.0000 L 0.0000 347.00 L 605.00 347.00 L 605.00 0.0000 z" />
      </clipPath>
      <g id="g102" clip-path="url(#clip10)">
        <g id="g104" stroke="#000000" stroke-opacity="1.0000" fill="none" stroke-linecap="butt" stroke-width="2.5000" stroke-dasharray="10.500,8.0000" stroke-linejoin="round">
          <path id="path106" d="M 365.38 72.757 L 365.38 295.34" />
          <title id="title108">Segment i</title>
          <desc id="desc110">Segment i: Segment [A, D]</desc>
        </g>
      </g>
      <clipPath id="clip11">
        <path id="path113" d="M 0.0000 0.0000 L 0.0000 347.00 L 605.00 347.00 L 605.00 0.0000 z" />
      </clipPath>
      <g id="g115" clip-path="url(#clip11)">
        <g id="g117" stroke="#000000" stroke-opacity="1.0000" fill="none" stroke-linecap="butt" stroke-width="2.5000" stroke-dasharray="10.500,8.0000" stroke-linejoin="round">
          <path id="path119" d="M 458.71 295.34 L 458.71 128.71" />
          <title id="title121">Segment j</title>
          <desc id="desc123">Segment j: Segment [C, B]</desc>
        </g>
      </g>
      <clipPath id="clip12">
        <path id="path126" d="M 0.0000 0.0000 L 0.0000 347.00 L 605.00 347.00 L 605.00 0.0000 z" />
      </clipPath>
      <g id="g128" clip-path="url(#clip12)">
        <g id="g130" stroke="#000000" stroke-opacity="1.0000" fill="none" stroke-linecap="round" stroke-width="3.0000" stroke-linejoin="round">
          <path id="path132" d="M 295.38 295.34 L 365.38 72.757" />
          <title id="title134">Segment k</title>
          <desc id="desc136">Segment k: Segment [E, A]</desc>
        </g>
      </g>
      <clipPath id="clip13">
        <path id="path139" d="M 0.0000 0.0000 L 0.0000 347.00 L 605.00 347.00 L 605.00 0.0000 z" />
      </clipPath>
      <g id="g141" clip-path="url(#clip13)">
        <g id="g143" stroke="#000000" stroke-opacity="1.0000" fill="none" stroke-linecap="round" stroke-width="3.0000" stroke-linejoin="round">
          <path id="path145" d="M 295.38 295.34 L 458.71 128.71" />
          <title id="title147">Segment l</title>
          <desc id="desc149">Segment l: Segment [E, B]</desc>
        </g>
      </g>
      <clipPath id="clip14">
        <path id="path152" d="M 0.0000 0.0000 L 0.0000 347.00 L 605.00 347.00 L 605.00 0.0000 z" />
      </clipPath>
      <g id="g154" clip-path="url(#clip14)">
        <g id="g156" stroke="#000000" stroke-opacity="1.0000" fill="none" stroke-linecap="round" stroke-width="3.0000" stroke-linejoin="round">
          <path id="path158" d="M 295.38 295.34 L 458.71 295.34" />
          <title id="title160">Segment m</title>
          <desc id="desc162">Segment m: Segment [E, C]</desc>
        </g>
      </g>
      <clipPath id="clip15">
        <path id="path165" d="M 0.0000 0.0000 L 0.0000 347.00 L 605.00 347.00 L 605.00 0.0000 z" />
      </clipPath>
      <g id="g167" clip-path="url(#clip15)">
        <g id="g169" fill="#444444" stroke="none" fill-rule="nonzero" fill-opacity="1.0000">
          <path id="path171" d="M 461.71 295.34 C 461.71 297.00 460.36 298.34 458.71 298.34 C 457.05 298.34 455.71 297.00 455.71 295.34 C 455.71 293.68 457.05 292.34 458.71 292.34 C 460.36 292.34 461.71 293.68 461.71 295.34 z" />
          <title id="title173">Point C</title>
          <desc id="desc175">Point C: Intersection point of h, xAxis</desc>
        </g>
      </g>
      <clipPath id="clip16">
        <path id="path178" d="M 0.0000 0.0000 L 0.0000 347.00 L 605.00 347.00 L 605.00 0.0000 z" />
      </clipPath>
      <g id="g180" clip-path="url(#clip16)">
        <g id="g182" stroke="#000000" stroke-opacity="1.0000" fill="none" stroke-linecap="round" stroke-linejoin="round">
          <path id="path184" d="M 461.71 295.34 C 461.71 297.00 460.36 298.34 458.71 298.34 C 457.05 298.34 455.71 297.00 455.71 295.34 C 455.71 293.68 457.05 292.34 458.71 292.34 C 460.36 292.34 461.71 293.68 461.71 295.34 z" />
          <title id="title186">Point C</title>
          <desc id="desc188">Point C: Intersection point of h, xAxis</desc>
        </g>
      </g>
      <clipPath id="clip17">
        <path id="path191" d="M 0.0000 0.0000 L 0.0000 347.00 L 605.00 347.00 L 605.00 0.0000 z" />
      </clipPath>
      <g id="g193" clip-path="url(#clip17)">
        <g id="g195" fill="#444444" stroke="none" fill-rule="nonzero" fill-opacity="1.0000">
          <path id="path197" d="M 368.38 295.34 C 368.38 297.00 367.03 298.34 365.38 298.34 C 363.72 298.34 362.38 297.00 362.38 295.34 C 362.38 293.68 363.72 292.34 365.38 292.34 C 367.03 292.34 368.38 293.68 368.38 295.34 z" />
          <title id="title199">Point D</title>
          <desc id="desc201">Point D: Intersection point of g, xAxis</desc>
        </g>
      </g>
      <clipPath id="clip18">
        <path id="path204" d="M 0.0000 0.0000 L 0.0000 347.00 L 605.00 347.00 L 605.00 0.0000 z" />
      </clipPath>
      <g id="g206" clip-path="url(#clip18)">
        <g id="g208" stroke="#000000" stroke-opacity="1.0000" fill="none" stroke-linecap="round" stroke-linejoin="round">
          <path id="path210" d="M 368.38 295.34 C 368.38 297.00 367.03 298.34 365.38 298.34 C 363.72 298.34 362.38 297.00 362.38 295.34 C 362.38 293.68 363.72 292.34 365.38 292.34 C 367.03 292.34 368.38 293.68 368.38 295.34 z" />
          <title id="title212">Point D</title>
          <desc id="desc214">Point D: Intersection point of g, xAxis</desc>
        </g>
      </g>
      <clipPath id="clip19">
        <path id="path217" d="M 0.0000 0.0000 L 0.0000 347.00 L 605.00 347.00 L 605.00 0.0000 z" />
      </clipPath>
      <g id="g219" clip-path="url(#clip19)">
        <g id="g221" fill="#444444" stroke="none" fill-rule="nonzero" fill-opacity="1.0000">
          <path id="path223" d="M 298.38 295.34 C 298.38 297.00 297.03 298.34 295.38 298.34 C 293.72 298.34 292.38 297.00 292.38 295.34 C 292.38 293.68 293.72 292.34 295.38 292.34 C 297.03 292.34 298.38 293.68 298.38 295.34 z" />
          <title id="title225">Point E</title>
          <desc id="desc227">Point E: Intersection point of xAxis, yAxis</desc>
        </g>
      </g>
      <clipPath id="clip20">
        <path id="path230" d="M 0.0000 0.0000 L 0.0000 347.00 L 605.00 347.00 L 605.00 0.0000 z" />
      </clipPath>
      <g id="g232" clip-path="url(#clip20)">
        <g id="g234" stroke="#000000" stroke-opacity="1.0000" fill="none" stroke-linecap="round" stroke-linejoin="round">
          <path id="path236" d="M 298.38 295.34 C 298.38 297.00 297.03 298.34 295.38 298.34 C 293.72 298.34 292.38 297.00 292.38 295.34 C 292.38 293.68 293.72 292.34 295.38 292.34 C 297.03 292.34 298.38 293.68 298.38 295.34 z" />
          <title id="title238">Point E</title>
          <desc id="desc240">Point E: Intersection point of xAxis, yAxis</desc>
        </g>
      </g>
      <g id="g242" transform="matrix(23.000, 0.0000, 0.0000, 23.000, 270.00, 25.222)">
        <clipPath id="clip21">
          <path id="path245" d="M -11.739 -1.0966 L -11.739 13.990 L 14.565 13.990 L 14.565 -1.0966 z" />
        </clipPath>
        <g id="g247" clip-path="url(#clip21)">
          <g id="g249" fill="#000000" stroke="none" fill-rule="nonzero" fill-opacity="1.0000">
            <path id="path251" d="M .57812 -.37500 L .48438 -0.0000 Q .46875 .093750 .38281 .14844 Q .29688 .20312 .20312 .20312 Q .14062 .20312 .10938 .17969 Q .078125 .15625 .078125 .10938 Q .078125 .078125 .093750 .054688 Q .10938 .031250 .14062 .031250 Q .15625 .031250 .17188 .046875 Q .18750 .062500 .18750 .078125 Q .18750 .12500 .14062 .15625 Q .17188 .17188 .20312 .17188 Q .26562 .17188 .31250 .11719 Q .35938 .062500 .37500 -.015625 Q .32812 .015625 .28125 .015625 Q .25000 .015625 .22656 .0078125 Q .20312 -0.0000 .17969 -.015625 Q .15625 -.031250 .14062 -.054688 Q .12500 -.078125 .12500 -.12500 Q .12500 -.15625 .14062 -.20312 Q .15625 -.25000 .18750 -.32812 Q .20312 -.37500 .20312 -.39062 Q .20312 -.40625 .19531 -.41406 Q .18750 -.42188 .18750 -.42188 Q .18750 -.42188 .18750 -.42188 Q .17188 -.42188 .16406 -.41406 Q .15625 -.40625 .14062 -.39844 Q .12500 -.39062 .10938 -.35938 Q .093750 -.32812 .078125 -.29688 Q .078125 -.28125 .062500 -.28125 Q .031250 -.28125 .031250 -.29688 Q .031250 -.31250 .039062 -.33594 Q .046875 -.35938 .070312 -.38281 Q .093750 -.40625 .12500 -.42969 Q .15625 -.45312 .18750 -.45312 Q .23438 -.45312 .26562 -.42969 Q .29688 -.40625 .29688 -.35938 Q .29688 -.34375 .28125 -.31250 Q .23438 -.15625 .23438 -.093750 Q .23438 -.031250 .28125 -.031250 Q .31250 -.031250 .35938 -.046875 Q .35938 -.046875 .36719 -.054688 Q .37500 -.062500 .38281 -.078125 Q .39062 -.093750 .39062 -.093750 Q .40625 -.12500 .43750 -.26562 L .46875 -.37500 Q .46875 -.39062 .46875 -.39844 Q .46875 -.40625 .47656 -.42188 Q .48438 -.43750 .50000 -.43750 Q .51562 -.43750 .53125 -.43750 Q .56250 -.43750 .57031 -.42969 Q .57812 -.42188 .57812 -.40625 Q .57812 -.39062 .57812 -.37500 z" />
            <title id="title253">y</title>
            <desc id="desc255">text1 = &quot;y&quot;</desc>
          </g>
        </g>
      </g>
      <g id="g257" transform="matrix(23.000, 0.0000, 0.0000, 23.000, 567.00, 319.22)">
        <clipPath id="clip22">
          <path id="path260" d="M -24.652 -13.879 L -24.652 1.2077 L 1.6522 1.2077 L 1.6522 -13.879 z" />
        </clipPath>
        <g id="g262" clip-path="url(#clip22)">
          <g id="g264" fill="#000000" stroke="none" fill-rule="nonzero" fill-opacity="1.0000">
            <path id="path266" d="M .53125 -.40625 Q .51562 -.42188 .48438 -.42188 Q .46875 -.42188 .43750 -.39844 Q .40625 -.37500 .40625 -.32812 Q .40625 -.31250 .39062 -.25781 Q .37500 -.20312 .37500 -.18750 Q .34375 -.093750 .34375 -.078125 Q .34375 -.031250 .40625 -.031250 Q .43750 -.031250 .48438 -.062500 Q .53125 -.093750 .54688 -.15625 Q .54688 -.15625 .56250 -.15625 Q .59375 -.15625 .59375 -.14844 Q .59375 -.14062 .57812 -.10938 Q .56250 -.078125 .53906 -.054688 Q .51562 -.031250 .47656 -.0078125 Q .43750 .015625 .39062 .015625 Q .29688 .015625 .26562 -.046875 Q .21875 .015625 .15625 .015625 Q .10938 .015625 .070312 -.015625 Q .031250 -.046875 .031250 -.078125 Q .031250 -.10938 .054688 -.13281 Q .078125 -.15625 .10938 -.15625 Q .14062 -.15625 .14844 -.14062 Q .15625 -.12500 .15625 -.10938 Q .15625 -.093750 .14062 -.070312 Q .12500 -.046875 .10938 -.046875 Q .12500 -.031250 .15625 -.031250 Q .18750 -.031250 .21094 -.054688 Q .23438 -.078125 .23438 -.12500 L .26562 -.25000 Q .29688 -.34375 .29688 -.35938 Q .29688 -.42188 .23438 -.42188 Q .20312 -.42188 .16406 -.39062 Q .12500 -.35938 .093750 -.29688 Q .093750 -.28125 .078125 -.28125 Q .046875 -.28125 .046875 -.29688 Q .046875 -.31250 .062500 -.33594 Q .078125 -.35938 .10156 -.38281 Q .12500 -.40625 .16406 -.42969 Q .20312 -.45312 .25000 -.45312 Q .34375 -.45312 .39062 -.39062 Q .42188 -.45312 .48438 -.45312 Q .53125 -.45312 .57031 -.42969 Q .60938 -.40625 .60938 -.35938 Q .60938 -.32812 .58594 -.30469 Q .56250 -.28125 .53125 -.28125 Q .51562 -.28125 .50000 -.29688 Q .48438 -.31250 .48438 -.32812 Q .48438 -.35938 .50000 -.37500 Q .51562 -.39062 .53125 -.40625 z" />
            <title id="title268">x</title>
            <desc id="desc270">text2 = &quot;x&quot;</desc>
          </g>
        </g>
      </g>
      <g id="g272" transform="matrix(23.000, 0.0000, 0.0000, 23.000, 359.00, 317.22)">
        <clipPath id="clip23">
          <path id="path275" d="M -15.609 -13.792 L -15.609 1.2947 L 10.696 1.2947 L 10.696 -13.792 z" />
        </clipPath>
        <g id="g277" clip-path="url(#clip23)">
          <g id="g279" fill="#000000" stroke="none" fill-rule="nonzero" fill-opacity="1.0000">
            <path id="path281" d="M .51562 -.31250 L .48438 -.23438 Q .48438 -.20312 .46875 -.14062 Q .45312 -.078125 .45312 -.062500 Q .45312 -.031250 .48438 -.031250 Q .51562 -.031250 .54688 -.12500 Q .54688 -.15625 .56250 -.15625 Q .56250 -.15625 .57812 -.15625 Q .59375 -.15625 .59375 -.14062 Q .59375 -.14062 .58594 -.10938 Q .57812 -.078125 .56250 -.046875 Q .53125 .015625 .46875 .015625 Q .39062 .015625 .35938 -.046875 Q .29688 .015625 .21875 .015625 Q .14062 .015625 .093750 -.031250 Q .046875 -.078125 .046875 -.15625 Q .046875 -.26562 .12500 -.35938 Q .20312 -.45312 .32812 -.45312 Q .39062 -.45312 .43750 -.40625 Q .45312 -.43750 .48438 -.43750 Q .50000 -.43750 .51562 -.42188 Q .53125 -.40625 .53125 -.39062 Q .53125 -.39062 .51562 -.31250 z M .34375 -.093750 L .40625 -.34375 L .40625 -.35938 Q .40625 -.37500 .38281 -.39844 Q .35938 -.42188 .32812 -.42188 Q .25000 -.42188 .20312 -.31250 Q .18750 -.28125 .17188 -.21094 Q .15625 -.14062 .15625 -.10938 Q .15625 -.031250 .21875 -.031250 Q .26562 -.031250 .29688 -.046875 Q .32812 -.062500 .34375 -.093750 z" />
            <title id="title283">a</title>
            <desc id="desc285">text3 = &quot;a&quot;</desc>
          </g>
        </g>
      </g>
      <g id="g287" transform="matrix(23.000, 0.0000, 0.0000, 23.000, 453.00, 317.97)">
        <clipPath id="clip24">
          <path id="path290" d="M -19.696 -13.825 L -19.696 1.2621 L 6.6087 1.2621 L 6.6087 -13.825 z" />
        </clipPath>
        <g id="g292" clip-path="url(#clip24)">
          <g id="g294" fill="#000000" stroke="none" fill-rule="nonzero" fill-opacity="1.0000">
            <path id="path296" d="M .28125 -.65625 L .21875 -.42188 Q .28125 -.45312 .32812 -.45312 Q .40625 -.45312 .45312 -.41406 Q .50000 -.37500 .50000 -.28125 Q .50000 -.23438 .48438 -.18750 Q .46875 -.14062 .42969 -.093750 Q .39062 -.046875 .33594 -.015625 Q .28125 .015625 .21875 .015625 Q .15625 .015625 .10156 -.023438 Q .046875 -.062500 .046875 -.15625 Q .046875 -.18750 .062500 -.25000 L .14062 -.51562 Q .14062 -.56250 .15625 -.64062 Q .15625 -.64062 .12500 -.64062 Q .093750 -.64062 .093750 -.65625 Q .093750 -.67188 .10156 -.67969 Q .10938 -.68750 .10938 -.68750 Q .10938 -.68750 .12500 -.68750 L .25000 -.68750 Q .26562 -.68750 .26562 -.68750 Q .28125 -.68750 .28125 -.67188 Q .28125 -.67188 .28125 -.65625 z M .21875 -.031250 Q .25000 -.031250 .28125 -.054688 Q .31250 -.078125 .34375 -.12500 Q .35938 -.15625 .37500 -.22656 Q .39062 -.29688 .39062 -.34375 Q .39062 -.42188 .32812 -.42188 Q .28125 -.42188 .24219 -.39062 Q .20312 -.35938 .20312 -.34375 Q .18750 -.28125 .17188 -.21875 Q .15625 -.14062 .15625 -.10938 Q .15625 -.031250 .21875 -.031250 z" />
            <title id="title298">b</title>
            <desc id="desc300">text4 = &quot;b&quot;</desc>
          </g>
        </g>
      </g>
      <g id="g302" transform="matrix(23.000, 0.0000, 0.0000, 23.000, 30.000, 99.895)">
        <clipPath id="clip25">
          <path id="path305" d="M -1.3043 -4.3432 L -1.3043 10.744 L 25.000 10.744 L 25.000 -4.3432 z" />
        </clipPath>
        <g id="g307" clip-path="url(#clip25)">
          <g id="g309" fill="#000000" stroke="none" fill-rule="nonzero" fill-opacity="1.0000">
            <path id="path311" d="M .57812 -.37500 L .48438 -0.0000 Q .46875 .093750 .38281 .14844 Q .29688 .20312 .20312 .20312 Q .14062 .20312 .10938 .17969 Q .078125 .15625 .078125 .10938 Q .078125 .078125 .093750 .054688 Q .10938 .031250 .14062 .031250 Q .15625 .031250 .17188 .046875 Q .18750 .062500 .18750 .078125 Q .18750 .12500 .14062 .15625 Q .17188 .17188 .20312 .17188 Q .26562 .17188 .31250 .11719 Q .35938 .062500 .37500 -.015625 Q .32812 .015625 .28125 .015625 Q .25000 .015625 .22656 .0078125 Q .20312 -0.0000 .17969 -.015625 Q .15625 -.031250 .14062 -.054688 Q .12500 -.078125 .12500 -.12500 Q .12500 -.15625 .14062 -.20312 Q .15625 -.25000 .18750 -.32812 Q .20312 -.37500 .20312 -.39062 Q .20312 -.40625 .19531 -.41406 Q .18750 -.42188 .18750 -.42188 Q .18750 -.42188 .18750 -.42188 Q .17188 -.42188 .16406 -.41406 Q .15625 -.40625 .14062 -.39844 Q .12500 -.39062 .10938 -.35938 Q .093750 -.32812 .078125 -.29688 Q .078125 -.28125 .062500 -.28125 Q .031250 -.28125 .031250 -.29688 Q .031250 -.31250 .039062 -.33594 Q .046875 -.35938 .070312 -.38281 Q .093750 -.40625 .12500 -.42969 Q .15625 -.45312 .18750 -.45312 Q .23438 -.45312 .26562 -.42969 Q .29688 -.40625 .29688 -.35938 Q .29688 -.34375 .28125 -.31250 Q .23438 -.15625 .23438 -.093750 Q .23438 -.031250 .28125 -.031250 Q .31250 -.031250 .35938 -.046875 Q .35938 -.046875 .36719 -.054688 Q .37500 -.062500 .38281 -.078125 Q .39062 -.093750 .39062 -.093750 Q .40625 -.12500 .43750 -.26562 L .46875 -.37500 Q .46875 -.39062 .46875 -.39844 Q .46875 -.40625 .47656 -.42188 Q .48438 -.43750 .50000 -.43750 Q .51562 -.43750 .53125 -.43750 Q .56250 -.43750 .57031 -.42969 Q .57812 -.42188 .57812 -.40625 Q .57812 -.39062 .57812 -.37500 z" />
            <title id="title313">y = \sqrt{1-x^2}</title>
            <desc id="desc315">text5 = &quot;y = \sqrt{1-x^2}&quot;</desc>
          </g>
        </g>
      </g>
      <g id="g317" transform="matrix(23.000, 0.0000, 0.0000, 23.000, 49.965, 99.895)">
        <clipPath id="clip26">
          <path id="path320" d="M -2.1724 -4.3432 L -2.1724 10.744 L 24.132 10.744 L 24.132 -4.3432 z" />
        </clipPath>
        <g id="g322" clip-path="url(#clip26)">
          <g id="g324" fill="#000000" stroke="none" fill-rule="nonzero" fill-opacity="1.0000">
            <path id="path326" d="M .78125 -.32812 L .10938 -.32812 Q .062500 -.32812 .062500 -.35938 Q .062500 -.39062 .10938 -.39062 L .78125 -.39062 Q .82812 -.39062 .82812 -.35938 Q .82812 -.32812 .78125 -.32812 z M .78125 -.10938 L .10938 -.10938 Q .062500 -.10938 .062500 -.14062 Q .062500 -.17188 .10938 -.17188 L .78125 -.17188 Q .82812 -.17188 .82812 -.14062 Q .82812 -.10938 .78125 -.10938 z" />
            <title id="title328">y = \sqrt{1-x^2}</title>
            <desc id="desc330">text5 = &quot;y = \sqrt{1-x^2}&quot;</desc>
          </g>
        </g>
      </g>
      <g id="g332" transform="matrix(23.000, 0.0000, 0.0000, 23.000, 76.926, 77.840)">
        <clipPath id="clip27">
          <path id="path335" d="M -3.3446 -3.3843 L -3.3446 11.703 L 22.960 11.703 L 22.960 -3.3843 z" />
        </clipPath>
        <g id="g337" clip-path="url(#clip27)">
          <g id="g339" fill="#000000" stroke="none" fill-rule="nonzero" fill-opacity="1.0000">
            <path id="path341" d="M .42188 1.1562 L .20312 .64062 L .12500 .68750 L .10938 .67188 L .25000 .56250 L .46875 1.0469 L .98438 -.031250 Q .98438 -.046875 1.0000 -.046875 Q 1.0156 -.046875 1.0156 -.039062 Q 1.0156 -.031250 1.0156 -.015625 Q 1.0156 -.015625 1.0156 -.015625 L .46875 1.1562 Q .45312 1.1562 .45312 1.1562 L .42188 1.1562 z" />
            <title id="title343">y = \sqrt{1-x^2}</title>
            <desc id="desc345">text5 = &quot;y = \sqrt{1-x^2}&quot;</desc>
          </g>
        </g>
      </g>
      <g id="g347" transform="matrix(23.000, 0.0000, 0.0000, 23.000, 0.0000, 0.0000)">
        <clipPath id="clip28">
          <path id="path350" d="M 0.0000 0.0000 L 0.0000 15.087 L 26.304 15.087 L 26.304 0.0000 z" />
        </clipPath>
        <g id="g352" clip-path="url(#clip28)">
          <g id="g354" fill="#000000" stroke="none" fill-rule="nonzero" fill-opacity="1.0000">
            <path id="path356" d="M 4.3446 3.3443 L 7.3973 3.3443 L 7.3973 3.3843 L 4.3446 3.3843 L 4.3446 3.3443 z" />
            <title id="title358">y = \sqrt{1-x^2}</title>
            <desc id="desc360">text5 = &quot;y = \sqrt{1-x^2}&quot;</desc>
          </g>
        </g>
      </g>
      <g id="g362" transform="matrix(23.000, 0.0000, 0.0000, 23.000, 99.926, 99.895)">
        <clipPath id="clip29">
          <path id="path365" d="M -4.3446 -4.3432 L -4.3446 10.744 L 21.960 10.744 L 21.960 -4.3432 z" />
        </clipPath>
        <g id="g367" clip-path="url(#clip29)">
          <g id="g369" fill="#000000" stroke="none" fill-rule="nonzero" fill-opacity="1.0000">
            <path id="path371" d="M .35938 -.62500 L .35938 -.046875 L .50000 -.046875 L .50000 -0.0000 Q .45312 -0.0000 .29688 -0.0000 Q .14062 -0.0000 .093750 -0.0000 L .093750 -.046875 L .23438 -.046875 L .23438 -.56250 Q .17188 -.54688 .10938 -.54688 L .078125 -.54688 L .078125 -.59375 L .10938 -.59375 Q .23438 -.59375 .31250 -.64062 Q .31250 -.65625 .32812 -.65625 Q .34375 -.65625 .35156 -.64844 Q .35938 -.64062 .35938 -.62500 z" />
            <title id="title373">y = \sqrt{1-x^2}</title>
            <desc id="desc375">text5 = &quot;y = \sqrt{1-x^2}&quot;</desc>
          </g>
        </g>
      </g>
      <g id="g377" transform="matrix(23.000, 0.0000, 0.0000, 23.000, 118.26, 99.895)">
        <clipPath id="clip30">
          <path id="path380" d="M -5.1418 -4.3432 L -5.1418 10.744 L 21.163 10.744 L 21.163 -4.3432 z" />
        </clipPath>
        <g id="g382" clip-path="url(#clip30)">
          <g id="g384" fill="#000000" stroke="none" fill-rule="nonzero" fill-opacity="1.0000">
            <path id="path386" d="M .75000 -.21875 L .14062 -.21875 Q .093750 -.21875 .093750 -.25000 Q .093750 -.28125 .14062 -.28125 L .75000 -.28125 Q .79688 -.28125 .79688 -.25000 Q .79688 -.21875 .75000 -.21875 z" />
            <title id="title388">y = \sqrt{1-x^2}</title>
            <desc id="desc390">text5 = &quot;y = \sqrt{1-x^2}&quot;</desc>
          </g>
        </g>
      </g>
      <g id="g392" transform="matrix(23.000, 0.0000, 0.0000, 23.000, 143.95, 99.895)">
        <clipPath id="clip31">
          <path id="path395" d="M -6.2585 -4.3432 L -6.2585 10.744 L 20.046 10.744 L 20.046 -4.3432 z" />
        </clipPath>
        <g id="g397" clip-path="url(#clip31)">
          <g id="g399" fill="#000000" stroke="none" fill-rule="nonzero" fill-opacity="1.0000">
            <path id="path401" d="M .53125 -.40625 Q .51562 -.42188 .48438 -.42188 Q .46875 -.42188 .43750 -.39844 Q .40625 -.37500 .40625 -.32812 Q .40625 -.31250 .39062 -.25781 Q .37500 -.20312 .37500 -.18750 Q .34375 -.093750 .34375 -.078125 Q .34375 -.031250 .40625 -.031250 Q .43750 -.031250 .48438 -.062500 Q .53125 -.093750 .54688 -.15625 Q .54688 -.15625 .56250 -.15625 Q .59375 -.15625 .59375 -.14844 Q .59375 -.14062 .57812 -.10938 Q .56250 -.078125 .53906 -.054688 Q .51562 -.031250 .47656 -.0078125 Q .43750 .015625 .39062 .015625 Q .29688 .015625 .26562 -.046875 Q .21875 .015625 .15625 .015625 Q .10938 .015625 .070312 -.015625 Q .031250 -.046875 .031250 -.078125 Q .031250 -.10938 .054688 -.13281 Q .078125 -.15625 .10938 -.15625 Q .14062 -.15625 .14844 -.14062 Q .15625 -.12500 .15625 -.10938 Q .15625 -.093750 .14062 -.070312 Q .12500 -.046875 .10938 -.046875 Q .12500 -.031250 .15625 -.031250 Q .18750 -.031250 .21094 -.054688 Q .23438 -.078125 .23438 -.12500 L .26562 -.25000 Q .29688 -.34375 .29688 -.35938 Q .29688 -.42188 .23438 -.42188 Q .20312 -.42188 .16406 -.39062 Q .12500 -.35938 .093750 -.29688 Q .093750 -.28125 .078125 -.28125 Q .046875 -.28125 .046875 -.29688 Q .046875 -.31250 .062500 -.33594 Q .078125 -.35938 .10156 -.38281 Q .12500 -.40625 .16406 -.42969 Q .20312 -.45312 .25000 -.45312 Q .34375 -.45312 .39062 -.39062 Q .42188 -.45312 .48438 -.45312 Q .53125 -.45312 .57031 -.42969 Q .60938 -.40625 .60938 -.35938 Q .60938 -.32812 .58594 -.30469 Q .56250 -.28125 .53125 -.28125 Q .51562 -.28125 .50000 -.29688 Q .48438 -.31250 .48438 -.32812 Q .48438 -.35938 .50000 -.37500 Q .51562 -.39062 .53125 -.40625 z" />
            <title id="title403">y = \sqrt{1-x^2}</title>
            <desc id="desc405">text5 = &quot;y = \sqrt{1-x^2}&quot;</desc>
          </g>
        </g>
      </g>
      <g id="g407" transform="matrix(16.100, 0.0000, 0.0000, 16.100, 159.10, 93.250)">
        <clipPath id="clip32">
          <path id="path410" d="M -9.8822 -5.7919 L -9.8822 15.761 L 27.695 15.761 L 27.695 -5.7919 z" />
        </clipPath>
        <g id="g412" clip-path="url(#clip32)">
          <g id="g414" fill="#000000" stroke="none" fill-rule="nonzero" fill-opacity="1.0000">
            <path id="path416" d="M .51562 -.21875 L .48438 -0.0000 L .062500 -0.0000 L .062500 -.015625 Q .062500 -.031250 .062500 -.039062 Q .062500 -.046875 .062500 -.046875 L .26562 -.25000 Q .37500 -.35938 .37500 -.46875 Q .37500 -.53125 .34375 -.57031 Q .31250 -.60938 .25000 -.60938 Q .18750 -.60938 .14062 -.57812 Q .15625 -.56250 .16406 -.56250 Q .17188 -.56250 .18750 -.54688 Q .20312 -.53125 .20312 -.50000 Q .20312 -.46875 .17969 -.44531 Q .15625 -.42188 .12500 -.42188 Q .10938 -.42188 .085938 -.44531 Q .062500 -.46875 .062500 -.50000 Q .062500 -.56250 .12500 -.60938 Q .18750 -.65625 .26562 -.65625 Q .37500 -.65625 .44531 -.60156 Q .51562 -.54688 .51562 -.46875 Q .51562 -.43750 .50781 -.40625 Q .50000 -.37500 .46875 -.34375 Q .43750 -.31250 .41406 -.29688 Q .39062 -.28125 .34375 -.23438 Q .29688 -.20312 .18750 -.12500 L .34375 -.12500 Q .43750 -.12500 .43750 -.12500 Q .45312 -.14062 .46875 -.21875 L .51562 -.21875 z" />
            <title id="title418">y = \sqrt{1-x^2}</title>
            <desc id="desc420">text5 = &quot;y = \sqrt{1-x^2}&quot;</desc>
          </g>
        </g>
      </g>
      <g id="g422" transform="matrix(23.000, 0.0000, 0.0000, 23.000, 276.00, 69.822)">
        <clipPath id="clip33">
          <path id="path425" d="M -12.000 -3.0357 L -12.000 12.051 L 14.304 12.051 L 14.304 -3.0357 z" />
        </clipPath>
        <g id="g427" clip-path="url(#clip33)">
          <g id="g429" fill="#000000" stroke="none" fill-rule="nonzero" fill-opacity="1.0000">
            <path id="path431" d="M .35938 -.62500 L .35938 -.046875 L .50000 -.046875 L .50000 -0.0000 Q .45312 -0.0000 .29688 -0.0000 Q .14062 -0.0000 .093750 -0.0000 L .093750 -.046875 L .23438 -.046875 L .23438 -.56250 Q .17188 -.54688 .10938 -.54688 L .078125 -.54688 L .078125 -.59375 L .10938 -.59375 Q .23438 -.59375 .31250 -.64062 Q .31250 -.65625 .32812 -.65625 Q .34375 -.65625 .35156 -.64844 Q .35938 -.64062 .35938 -.62500 z" />
            <title id="title433">1</title>
            <desc id="desc435">text6 = &quot;1&quot;</desc>
          </g>
        </g>
      </g>
      <g id="g437" transform="matrix(23.000, 0.0000, 0.0000, 23.000, 44.000, 317.82)">
        <clipPath id="clip34">
          <path id="path440" d="M -1.9130 -13.818 L -1.9130 1.2686 L 24.391 1.2686 L 24.391 -13.818 z" />
        </clipPath>
        <g id="g442" clip-path="url(#clip34)">
          <g id="g444" fill="#000000" stroke="none" fill-rule="nonzero" fill-opacity="1.0000">
            <path id="path446" d="M .75000 -.21875 L .14062 -.21875 Q .093750 -.21875 .093750 -.25000 Q .093750 -.28125 .14062 -.28125 L .75000 -.28125 Q .79688 -.28125 .79688 -.25000 Q .79688 -.21875 .75000 -.21875 z" />
            <title id="title448">-1</title>
            <desc id="desc450">text7 = &quot;-1&quot;</desc>
          </g>
        </g>
      </g>
      <g id="g452" transform="matrix(23.000, 0.0000, 0.0000, 23.000, 64.572, 317.82)">
        <clipPath id="clip35">
          <path id="path455" d="M -2.8075 -13.818 L -2.8075 1.2686 L 23.497 1.2686 L 23.497 -13.818 z" />
        </clipPath>
        <g id="g457" clip-path="url(#clip35)">
          <g id="g459" fill="#000000" stroke="none" fill-rule="nonzero" fill-opacity="1.0000">
            <path id="path461" d="M .35938 -.62500 L .35938 -.046875 L .50000 -.046875 L .50000 -0.0000 Q .45312 -0.0000 .29688 -0.0000 Q .14062 -0.0000 .093750 -0.0000 L .093750 -.046875 L .23438 -.046875 L .23438 -.56250 Q .17188 -.54688 .10938 -.54688 L .078125 -.54688 L .078125 -.59375 L .10938 -.59375 Q .23438 -.59375 .31250 -.64062 Q .31250 -.65625 .32812 -.65625 Q .34375 -.65625 .35156 -.64844 Q .35938 -.64062 .35938 -.62500 z" />
            <title id="title463">-1</title>
            <desc id="desc465">text7 = &quot;-1&quot;</desc>
          </g>
        </g>
      </g>
      <g id="g467" transform="matrix(23.000, 0.0000, 0.0000, 23.000, 526.00, 317.82)">
        <clipPath id="clip36">
          <path id="path470" d="M -22.870 -13.818 L -22.870 1.2686 L 3.4348 1.2686 L 3.4348 -13.818 z" />
        </clipPath>
        <g id="g472" clip-path="url(#clip36)">
          <g id="g474" fill="#000000" stroke="none" fill-rule="nonzero" fill-opacity="1.0000">
            <path id="path476" d="M .35938 -.62500 L .35938 -.046875 L .50000 -.046875 L .50000 -0.0000 Q .45312 -0.0000 .29688 -0.0000 Q .14062 -0.0000 .093750 -0.0000 L .093750 -.046875 L .23438 -.046875 L .23438 -.56250 Q .17188 -.54688 .10938 -.54688 L .078125 -.54688 L .078125 -.59375 L .10938 -.59375 Q .23438 -.59375 .31250 -.64062 Q .31250 -.65625 .32812 -.65625 Q .34375 -.65625 .35156 -.64844 Q .35938 -.64062 .35938 -.62500 z" />
            <title id="title478">1</title>
            <desc id="desc480">text6_1 = &quot;1&quot;</desc>
          </g>
        </g>
      </g>
    </g>
  </g>
  <path transform="matrix(1.80597,0,0,1.80597,0,-0.32460669)" id="path4614" d="m 203.05624,82.146191 c 0.0175,-21.954885 0.11541,-40.001484 0.21748,-40.103554 0.22856,-0.228563 7.37357,2.376793 11.99068,4.372282 11.29395,4.881182 24.90307,13.702359 33.98476,22.02829 l 3.2843,3.010984 -24.09402,24.61383 c -13.25171,13.537607 -24.39125,24.924847 -24.75455,25.304987 -0.61337,0.6418 -0.65826,-2.15924 -0.62865,-39.226819 z" style="fill:#fdae61;stroke:#271740;stroke-width:0.72236377;stroke-miterlimit:4;stroke-dasharray:none;fill-opacity:0.8509804;stroke-opacity:1.0" />
  <path transform="matrix(1.80597,0,0,1.80597,0,-0.32460669)" id="path4616" d="m 166.00267,159.30975 c 0.10275,-0.27673 8.11348,-25.73906 17.80162,-56.58296 9.68814,-30.8439 17.7051,-56.081485 17.81546,-56.083524 0.11036,-0.002 0.1917,17.245295 0.18075,38.32741 l -0.0199,38.331114 -7.20613,7.31826 c -24.83666,25.22316 -28.73994,29.14255 -28.5718,28.6897 z" style="fill:#fdae61;stroke:#271740;stroke-width:0.72236377;stroke-miterlimit:4;stroke-dasharray:none;fill-opacity:0.8525641;stroke-opacity:1.0" />
  <path transform="matrix(1.80597,0,0,1.80597,0,-0.32460669)" id="path4618" d="m 203.62114,162.10468 c -0.52699,-0.42434 -0.60231,-2.91032 -0.5705,-18.82957 l 0.0367,-18.34069 11.87488,-12.15912 c 6.53119,-6.68751 17.80396,-18.192054 25.05061,-25.565652 l 13.17572,-13.406542 -0.0222,43.771054 c -0.018,35.59257 -0.12094,43.89007 -0.55078,44.40799 -0.47217,0.56893 -3.08323,0.63556 -24.45793,0.62417 -18.1944,-0.01 -24.07483,-0.12993 -24.53647,-0.50164 z" style="fill:#abdda4;stroke:#271740;stroke-width:0.72236377;stroke-miterlimit:4;stroke-dasharray:none;fill-opacity:0.44871795;stroke-opacity:1.0" />
  <path transform="matrix(1.80597,0,0,1.80597,0,-0.32460669)" id="path4620" d="m 170.75364,157.90365 c 30.32739,-31.0384 30.86429,-31.56564 30.91508,-30.35888 0.0269,0.63984 0.0721,8.61271 0.10033,17.7175 0.0403,13.00316 -0.0563,16.55415 -0.45028,16.55417 -0.27591,1e-5 -0.50164,0.1806 -0.50164,0.40133 0,0.26134 -6.04603,0.40131 -17.33545,0.40131 l -17.33545,0 4.60741,-4.71543 z" style="fill:#abdda4;stroke:#271740;stroke-width:0.72236377;stroke-miterlimit:4;stroke-dasharray:none;fill-opacity:0.44871795;stroke-opacity:1.0" />
</svg>