<?xml version='1.0' ?><svg xmlns:ns0="http://www.iki.fi/pav/software/textext/" xmlns:dc="http://purl.org/dc/elements/1.1/" xmlns:cc="http://creativecommons.org/ns#" xmlns:rdf="http://www.w3.org/1999/02/22-rdf-syntax-ns#" xmlns:svg="http://www.w3.org/2000/svg" xmlns="http://www.w3.org/2000/svg" id="svg2" version="1.1" width="309.46632" height="292.52148" viewBox="0.0 2.389565044497992 346.99998612048194 327.9999888192771" preserveAspectRatio="none">
  <metadata id="metadata364">
    <rdf:RDF>
      <cc:Work rdf:about="">
        <dc:format>image/svg+xml</dc:format>
        <dc:type rdf:resource="http://purl.org/dc/dcmitype/StillImage" />
      </cc:Work>
    </rdf:RDF>
  </metadata>
  <defs id="defs362" />
  <title id="title4" />
  <g id="g6" stroke-linecap="square" stroke-miterlimit="10.000" stroke-width="1.0000" stroke-dasharray="none" stroke-dashoffset="0.0000" stroke-linejoin="miter">
    <clipPath id="clip1">
      <path id="path9" d="M 0.0000 0.0000 L 0.0000 330.00 L 349.00 330.00 L 349.00 0.0000 z" />
    </clipPath>
    <g id="g11" clip-path="url(#clip1)">
      <g id="g13" stroke="#000000" stroke-opacity="1.0000" fill="none" stroke-linecap="butt" stroke-width="2.0000">
        <path id="path15" d="M 162.97 3.0000 L 162.97 330.00" />
      </g>
    </g>
    <clipPath id="clip2">
      <path id="path18" d="M 0.0000 0.0000 L 0.0000 330.00 L 349.00 330.00 L 349.00 0.0000 z" />
    </clipPath>
    <g id="g20" clip-path="url(#clip2)">
      <g id="g22" fill="#000000" stroke="none" fill-rule="evenodd" fill-opacity="1.0000">
        <path id="path24" d="M 162.97 2.0000 L 156.97 26.000 L 168.97 26.000" />
      </g>
    </g>
    <clipPath id="clip3">
      <path id="path27" d="M 0.0000 0.0000 L 0.0000 330.00 L 349.00 330.00 L 349.00 0.0000 z" />
    </clipPath>
    <g id="g29" clip-path="url(#clip3)">
      <g id="g31" stroke="#000000" stroke-opacity="1.0000" fill="none" stroke-linecap="butt" stroke-width="2.0000">
        <path id="path33" d="M 0.0000 177.45 L 346.00 177.45" />
      </g>
    </g>
    <clipPath id="clip4">
      <path id="path36" d="M 0.0000 0.0000 L 0.0000 330.00 L 349.00 330.00 L 349.00 0.0000 z" />
    </clipPath>
    <g id="g38" clip-path="url(#clip4)">
      <g id="g40" fill="#000000" stroke="none" fill-rule="evenodd" fill-opacity="1.0000">
        <path id="path42" d="M 347.00 177.45 L 323.00 171.45 L 323.00 183.45" />
      </g>
    </g>
    <clipPath id="clip5">
      <path id="path45" d="M 0.0000 0.0000 L 0.0000 330.00 L 349.00 330.00 L 349.00 0.0000 z" />
    </clipPath>
    <g id="g47" clip-path="url(#clip5)">
      <g id="g49" stroke="#000000" stroke-opacity="1.0000" fill="none" stroke-linecap="butt" stroke-width="2.0000">
        <path id="path51" d="M 25.760 177.45 L 25.760 180.45" />
      </g>
    </g>
    <clipPath id="clip6">
      <path id="path54" d="M 0.0000 0.0000 L 0.0000 330.00 L 349.00 330.00 L 349.00 0.0000 z" />
    </clipPath>
    <g id="g56" clip-path="url(#clip6)">
      <g id="g58" stroke="#000000" stroke-opacity="1.0000" fill="none" stroke-linecap="butt" stroke-width="2.0000">
        <path id="path60" d="M 300.19 177.45 L 300.19 180.45" />
      </g>
    </g>
    <g id="misc" />
    <g id="layer0">
      <clipPath id="clip7">
        <path id="path65" d="M 0.0000 0.0000 L 0.0000 330.00 L 349.00 330.00 L 349.00 0.0000 z" />
      </clipPath>
      <g id="g67" clip-path="url(#clip7)">
        <g id="g69" stroke="#0000ff" stroke-opacity="1.0000" fill="none" stroke-linecap="round" stroke-width="2.5000" stroke-linejoin="round">
          <path id="path71" d="M 300.19 177.45 C 300.19 253.23 238.76 314.67 162.97 314.67 C 87.193 314.67 25.760 253.23 25.760 177.45 C 25.760 101.67 87.193 40.236 162.97 40.236 C 238.76 40.236 300.19 101.67 300.19 177.45 z" />
          <title id="title73">Circle c</title>
          <desc id="desc75">c: xÃ&#131;Â&#130;Ã&#130;Â² + yÃ&#131;Â&#130;Ã&#130;Â² = 1</desc>
        </g>
      </g>
      <clipPath id="clip8">
        <path id="path78" d="M 0.0000 0.0000 L 0.0000 330.00 L 349.00 330.00 L 349.00 0.0000 z" />
      </clipPath>
      <g id="g80" clip-path="url(#clip8)">
        <g id="g82" fill="#006400" stroke="none" fill-rule="nonzero" fill-opacity=".098039">
          <path id="path84" d="M 183.97 156.03 C 180.60 152.72 176.49 150.25 171.97 148.83 L 162.97 177.45 z" />
          <title id="title86">Angle Ã&#131;Â&#142;Ã&#130;Â³</title>
          <desc id="desc88">Angle Ã&#131;Â&#142;Ã&#130;Â³: Angle between D, C, A</desc>
        </g>
      </g>
      <clipPath id="clip9">
        <path id="path91" d="M 0.0000 0.0000 L 0.0000 330.00 L 349.00 330.00 L 349.00 0.0000 z" />
      </clipPath>
      <g id="g93" clip-path="url(#clip9)">
        <g id="g95" stroke="#006400" stroke-opacity="1.0000" fill="none" stroke-linecap="round" stroke-linejoin="round">
          <path id="path97" d="M 183.97 156.03 C 180.60 152.72 176.49 150.25 171.97 148.83 L 162.97 177.45 z" />
          <title id="title99">Angle Ã&#131;Â&#142;Ã&#130;Â³</title>
          <desc id="desc101">Angle Ã&#131;Â&#142;Ã&#130;Â³: Angle between D, C, A</desc>
        </g>
      </g>
      <clipPath id="clip10">
        <path id="path104" d="M 0.0000 0.0000 L 0.0000 330.00 L 349.00 330.00 L 349.00 0.0000 z" />
      </clipPath>
      <g id="g106" clip-path="url(#clip10)">
        <g id="g108" stroke="#000000" stroke-opacity="1.0000" fill="none" stroke-linecap="round" stroke-width="2.5000" stroke-linejoin="round">
          <path id="path110" d="M 162.97 177.45 L 204.14 46.556" />
          <title id="title112">Segment g</title>
          <desc id="desc114">Segment g: Segment [C, A]</desc>
        </g>
      </g>
      <clipPath id="clip11">
        <path id="path117" d="M 0.0000 0.0000 L 0.0000 330.00 L 349.00 330.00 L 349.00 0.0000 z" />
      </clipPath>
      <g id="g119" clip-path="url(#clip11)">
        <g id="g121" stroke="#000000" stroke-opacity="1.0000" fill="none" stroke-linecap="butt" stroke-width="2.5000" stroke-dasharray="10.500,8.0000" stroke-linejoin="round">
          <path id="path123" d="M 204.14 46.556 L 204.14 177.45" />
          <title id="title125">Segment h</title>
          <desc id="desc127">Segment h: Segment [A, B]</desc>
        </g>
      </g>
      <clipPath id="clip12">
        <path id="path130" d="M 0.0000 0.0000 L 0.0000 330.00 L 349.00 330.00 L 349.00 0.0000 z" />
      </clipPath>
      <g id="g132" clip-path="url(#clip12)">
        <g id="g134" stroke="#000000" stroke-opacity="1.0000" fill="none" stroke-linecap="butt" stroke-width="2.5000" stroke-dasharray="10.500,8.0000" stroke-linejoin="round">
          <path id="path136" d="M 259.02 79.459 L 259.02 177.45" />
          <title id="title138">Segment j</title>
          <desc id="desc140">Segment j: Segment [D, E]</desc>
        </g>
      </g>
      <clipPath id="clip13">
        <path id="path143" d="M 0.0000 0.0000 L 0.0000 330.00 L 349.00 330.00 L 349.00 0.0000 z" />
      </clipPath>
      <g id="g145" clip-path="url(#clip13)">
        <g id="g147" stroke="#000000" stroke-opacity="1.0000" fill="none" stroke-linecap="round" stroke-width="2.5000" stroke-linejoin="round">
          <path id="path149" d="M 162.97 177.45 L 259.02 79.459" />
          <title id="title151">Segment k</title>
          <desc id="desc153">Segment k: Segment [C, D]</desc>
        </g>
      </g>
      <clipPath id="clip14">
        <path id="path156" d="M 0.0000 0.0000 L 0.0000 330.00 L 349.00 330.00 L 349.00 0.0000 z" />
      </clipPath>
      <g id="g158" clip-path="url(#clip14)">
        <g id="g160" fill="#444444" stroke="none" fill-rule="nonzero" fill-opacity="1.0000">
          <path id="path162" d="M 205.14 46.556 C 205.14 47.108 204.69 47.556 204.14 47.556 C 203.59 47.556 203.14 47.108 203.14 46.556 C 203.14 46.004 203.59 45.556 204.14 45.556 C 204.69 45.556 205.14 46.004 205.14 46.556 z" />
          <title id="title164">Point A</title>
          <desc id="desc166">Point A: Intersection point of c, f</desc>
        </g>
      </g>
      <clipPath id="clip15">
        <path id="path169" d="M 0.0000 0.0000 L 0.0000 330.00 L 349.00 330.00 L 349.00 0.0000 z" />
      </clipPath>
      <g id="g171" clip-path="url(#clip15)">
        <g id="g173" stroke="#000000" stroke-opacity="1.0000" fill="none" stroke-linecap="round" stroke-linejoin="round">
          <path id="path175" d="M 205.14 46.556 C 205.14 47.108 204.69 47.556 204.14 47.556 C 203.59 47.556 203.14 47.108 203.14 46.556 C 203.14 46.004 203.59 45.556 204.14 45.556 C 204.69 45.556 205.14 46.004 205.14 46.556 z" />
          <title id="title177">Point A</title>
          <desc id="desc179">Point A: Intersection point of c, f</desc>
        </g>
      </g>
      <clipPath id="clip16">
        <path id="path182" d="M 0.0000 0.0000 L 0.0000 330.00 L 349.00 330.00 L 349.00 0.0000 z" />
      </clipPath>
      <g id="g184" clip-path="url(#clip16)">
        <g id="g186" fill="#444444" stroke="none" fill-rule="nonzero" fill-opacity="1.0000">
          <path id="path188" d="M 205.14 177.45 C 205.14 178.00 204.69 178.45 204.14 178.45 C 203.59 178.45 203.14 178.00 203.14 177.45 C 203.14 176.90 203.59 176.45 204.14 176.45 C 204.69 176.45 205.14 176.90 205.14 177.45 z" />
          <title id="title190">Point B</title>
          <desc id="desc192">Point B: Intersection point of f, xAxis</desc>
        </g>
      </g>
      <clipPath id="clip17">
        <path id="path195" d="M 0.0000 0.0000 L 0.0000 330.00 L 349.00 330.00 L 349.00 0.0000 z" />
      </clipPath>
      <g id="g197" clip-path="url(#clip17)">
        <g id="g199" stroke="#000000" stroke-opacity="1.0000" fill="none" stroke-linecap="round" stroke-linejoin="round">
          <path id="path201" d="M 205.14 177.45 C 205.14 178.00 204.69 178.45 204.14 178.45 C 203.59 178.45 203.14 178.00 203.14 177.45 C 203.14 176.90 203.59 176.45 204.14 176.45 C 204.69 176.45 205.14 176.90 205.14 177.45 z" />
          <title id="title203">Point B</title>
          <desc id="desc205">Point B: Intersection point of f, xAxis</desc>
        </g>
      </g>
      <clipPath id="clip18">
        <path id="path208" d="M 0.0000 0.0000 L 0.0000 330.00 L 349.00 330.00 L 349.00 0.0000 z" />
      </clipPath>
      <g id="g210" clip-path="url(#clip18)">
        <g id="g212" fill="#444444" stroke="none" fill-rule="nonzero" fill-opacity="1.0000">
          <path id="path214" d="M 163.97 177.45 C 163.97 178.00 163.53 178.45 162.97 178.45 C 162.42 178.45 161.97 178.00 161.97 177.45 C 161.97 176.90 162.42 176.45 162.97 176.45 C 163.53 176.45 163.97 176.90 163.97 177.45 z" />
          <title id="title216">Point C</title>
          <desc id="desc218">Point C: Intersection point of xAxis, yAxis</desc>
        </g>
      </g>
      <clipPath id="clip19">
        <path id="path221" d="M 0.0000 0.0000 L 0.0000 330.00 L 349.00 330.00 L 349.00 0.0000 z" />
      </clipPath>
      <g id="g223" clip-path="url(#clip19)">
        <g id="g225" stroke="#000000" stroke-opacity="1.0000" fill="none" stroke-linecap="round" stroke-linejoin="round">
          <path id="path227" d="M 163.97 177.45 C 163.97 178.00 163.53 178.45 162.97 178.45 C 162.42 178.45 161.97 178.00 161.97 177.45 C 161.97 176.90 162.42 176.45 162.97 176.45 C 163.53 176.45 163.97 176.90 163.97 177.45 z" />
          <title id="title229">Point C</title>
          <desc id="desc231">Point C: Intersection point of xAxis, yAxis</desc>
        </g>
      </g>
      <clipPath id="clip20">
        <path id="path234" d="M 0.0000 0.0000 L 0.0000 330.00 L 349.00 330.00 L 349.00 0.0000 z" />
      </clipPath>
      <g id="g236" clip-path="url(#clip20)">
        <g id="g238" fill="#444444" stroke="none" fill-rule="nonzero" fill-opacity="1.0000">
          <path id="path240" d="M 260.02 79.459 C 260.02 80.012 259.58 80.459 259.02 80.459 C 258.47 80.459 258.02 80.012 258.02 79.459 C 258.02 78.907 258.47 78.459 259.02 78.459 C 259.58 78.459 260.02 78.907 260.02 79.459 z" />
          <title id="title242">Point D</title>
          <desc id="desc244">Point D: Intersection point of c, i</desc>
        </g>
      </g>
      <clipPath id="clip21">
        <path id="path247" d="M 0.0000 0.0000 L 0.0000 330.00 L 349.00 330.00 L 349.00 0.0000 z" />
      </clipPath>
      <g id="g249" clip-path="url(#clip21)">
        <g id="g251" stroke="#000000" stroke-opacity="1.0000" fill="none" stroke-linecap="round" stroke-linejoin="round">
          <path id="path253" d="M 260.02 79.459 C 260.02 80.012 259.58 80.459 259.02 80.459 C 258.47 80.459 258.02 80.012 258.02 79.459 C 258.02 78.907 258.47 78.459 259.02 78.459 C 259.58 78.459 260.02 78.907 260.02 79.459 z" />
          <title id="title255">Point D</title>
          <desc id="desc257">Point D: Intersection point of c, i</desc>
        </g>
      </g>
      <clipPath id="clip22">
        <path id="path260" d="M 0.0000 0.0000 L 0.0000 330.00 L 349.00 330.00 L 349.00 0.0000 z" />
      </clipPath>
      <g id="g262" clip-path="url(#clip22)">
        <g id="g264" fill="#444444" stroke="none" fill-rule="nonzero" fill-opacity="1.0000">
          <path id="path266" d="M 260.02 177.45 C 260.02 178.00 259.58 178.45 259.02 178.45 C 258.47 178.45 258.02 178.00 258.02 177.45 C 258.02 176.90 258.47 176.45 259.02 176.45 C 259.58 176.45 260.02 176.90 260.02 177.45 z" />
          <title id="title268">Point E</title>
          <desc id="desc270">Point E: Intersection point of i, xAxis</desc>
        </g>
      </g>
      <clipPath id="clip23">
        <path id="path273" d="M 0.0000 0.0000 L 0.0000 330.00 L 349.00 330.00 L 349.00 0.0000 z" />
      </clipPath>
      <g id="g275" clip-path="url(#clip23)">
        <g id="g277" stroke="#000000" stroke-opacity="1.0000" fill="none" stroke-linecap="round" stroke-linejoin="round">
          <path id="path279" d="M 260.02 177.45 C 260.02 178.00 259.58 178.45 259.02 178.45 C 258.47 178.45 258.02 178.00 258.02 177.45 C 258.02 176.90 258.47 176.45 259.02 176.45 C 259.58 176.45 260.02 176.90 260.02 177.45 z" />
          <title id="title281">Point E</title>
          <desc id="desc283">Point E: Intersection point of i, xAxis</desc>
        </g>
      </g>
      <g id="g285" transform="matrix(23.000, 0.0000, 0.0000, 23.000, 199.00, 201.22)">
        <clipPath id="clip24">
          <path id="path288" d="M -8.6522 -8.7488 L -8.6522 5.5990 L 6.5217 5.5990 L 6.5217 -8.7488 z" />
        </clipPath>
        <g id="g290" clip-path="url(#clip24)">
          <g id="g292" fill="#000000" stroke="none" fill-rule="nonzero" fill-opacity="1.0000">
            <path id="path294" d="M .51562 -.31250 L .48438 -.23438 Q .48438 -.20312 .46875 -.14062 Q .45312 -.078125 .45312 -.062500 Q .45312 -.031250 .48438 -.031250 Q .51562 -.031250 .54688 -.12500 Q .54688 -.15625 .56250 -.15625 Q .56250 -.15625 .57812 -.15625 Q .59375 -.15625 .59375 -.14062 Q .59375 -.14062 .58594 -.10938 Q .57812 -.078125 .56250 -.046875 Q .53125 .015625 .46875 .015625 Q .39062 .015625 .35938 -.046875 Q .29688 .015625 .21875 .015625 Q .14062 .015625 .093750 -.031250 Q .046875 -.078125 .046875 -.15625 Q .046875 -.26562 .12500 -.35938 Q .20312 -.45312 .32812 -.45312 Q .39062 -.45312 .43750 -.40625 Q .45312 -.43750 .48438 -.43750 Q .50000 -.43750 .51562 -.42188 Q .53125 -.40625 .53125 -.39062 Q .53125 -.39062 .51562 -.31250 z M .34375 -.093750 L .40625 -.34375 L .40625 -.35938 Q .40625 -.37500 .38281 -.39844 Q .35938 -.42188 .32812 -.42188 Q .25000 -.42188 .20312 -.31250 Q .18750 -.28125 .17188 -.21094 Q .15625 -.14062 .15625 -.10938 Q .15625 -.031250 .21875 -.031250 Q .26562 -.031250 .29688 -.046875 Q .32812 -.062500 .34375 -.093750 z" />
            <title id="title296">a</title>
            <desc id="desc298">text1 = &quot;a&quot;</desc>
          </g>
        </g>
      </g>
      <g id="g300" transform="matrix(23.000, 0.0000, 0.0000, 23.000, 327.00, 200.22)">
        <clipPath id="clip25">
          <path id="path303" d="M -14.217 -8.7053 L -14.217 5.6425 L .95652 5.6425 L .95652 -8.7053 z" />
        </clipPath>
        <g id="g305" clip-path="url(#clip25)">
          <g id="g307" fill="#000000" stroke="none" fill-rule="nonzero" fill-opacity="1.0000">
            <path id="path309" d="M .53125 -.40625 Q .51562 -.42188 .48438 -.42188 Q .46875 -.42188 .43750 -.39844 Q .40625 -.37500 .40625 -.32812 Q .40625 -.31250 .39062 -.25781 Q .37500 -.20312 .37500 -.18750 Q .34375 -.093750 .34375 -.078125 Q .34375 -.031250 .40625 -.031250 Q .43750 -.031250 .48438 -.062500 Q .53125 -.093750 .54688 -.15625 Q .54688 -.15625 .56250 -.15625 Q .59375 -.15625 .59375 -.14844 Q .59375 -.14062 .57812 -.10938 Q .56250 -.078125 .53906 -.054688 Q .51562 -.031250 .47656 -.0078125 Q .43750 .015625 .39062 .015625 Q .29688 .015625 .26562 -.046875 Q .21875 .015625 .15625 .015625 Q .10938 .015625 .070312 -.015625 Q .031250 -.046875 .031250 -.078125 Q .031250 -.10938 .054688 -.13281 Q .078125 -.15625 .10938 -.15625 Q .14062 -.15625 .14844 -.14062 Q .15625 -.12500 .15625 -.10938 Q .15625 -.093750 .14062 -.070312 Q .12500 -.046875 .10938 -.046875 Q .12500 -.031250 .15625 -.031250 Q .18750 -.031250 .21094 -.054688 Q .23438 -.078125 .23438 -.12500 L .26562 -.25000 Q .29688 -.34375 .29688 -.35938 Q .29688 -.42188 .23438 -.42188 Q .20312 -.42188 .16406 -.39062 Q .12500 -.35938 .093750 -.29688 Q .093750 -.28125 .078125 -.28125 Q .046875 -.28125 .046875 -.29688 Q .046875 -.31250 .062500 -.33594 Q .078125 -.35938 .10156 -.38281 Q .12500 -.40625 .16406 -.42969 Q .20312 -.45312 .25000 -.45312 Q .34375 -.45312 .39062 -.39062 Q .42188 -.45312 .48438 -.45312 Q .53125 -.45312 .57031 -.42969 Q .60938 -.40625 .60938 -.35938 Q .60938 -.32812 .58594 -.30469 Q .56250 -.28125 .53125 -.28125 Q .51562 -.28125 .50000 -.29688 Q .48438 -.31250 .48438 -.32812 Q .48438 -.35938 .50000 -.37500 Q .51562 -.39062 .53125 -.40625 z" />
            <title id="title311">x</title>
            <desc id="desc313">text2 = &quot;x&quot;</desc>
          </g>
        </g>
      </g>
      <g id="g315" transform="matrix(23.000, 0.0000, 0.0000, 23.000, 138.00, 19.222)">
        <clipPath id="clip26">
          <path id="path318" d="M -6.0000 -.83575 L -6.0000 13.512 L 9.1739 13.512 L 9.1739 -.83575 z" />
        </clipPath>
        <g id="g320" clip-path="url(#clip26)">
          <g id="g322" fill="#000000" stroke="none" fill-rule="nonzero" fill-opacity="1.0000">
            <path id="path324" d="M .57812 -.37500 L .48438 -0.0000 Q .46875 .093750 .38281 .14844 Q .29688 .20312 .20312 .20312 Q .14062 .20312 .10938 .17969 Q .078125 .15625 .078125 .10938 Q .078125 .078125 .093750 .054688 Q .10938 .031250 .14062 .031250 Q .15625 .031250 .17188 .046875 Q .18750 .062500 .18750 .078125 Q .18750 .12500 .14062 .15625 Q .17188 .17188 .20312 .17188 Q .26562 .17188 .31250 .11719 Q .35938 .062500 .37500 -.015625 Q .32812 .015625 .28125 .015625 Q .25000 .015625 .22656 .0078125 Q .20312 -0.0000 .17969 -.015625 Q .15625 -.031250 .14062 -.054688 Q .12500 -.078125 .12500 -.12500 Q .12500 -.15625 .14062 -.20312 Q .15625 -.25000 .18750 -.32812 Q .20312 -.37500 .20312 -.39062 Q .20312 -.40625 .19531 -.41406 Q .18750 -.42188 .18750 -.42188 Q .18750 -.42188 .18750 -.42188 Q .17188 -.42188 .16406 -.41406 Q .15625 -.40625 .14062 -.39844 Q .12500 -.39062 .10938 -.35938 Q .093750 -.32812 .078125 -.29688 Q .078125 -.28125 .062500 -.28125 Q .031250 -.28125 .031250 -.29688 Q .031250 -.31250 .039062 -.33594 Q .046875 -.35938 .070312 -.38281 Q .093750 -.40625 .12500 -.42969 Q .15625 -.45312 .18750 -.45312 Q .23438 -.45312 .26562 -.42969 Q .29688 -.40625 .29688 -.35938 Q .29688 -.34375 .28125 -.31250 Q .23438 -.15625 .23438 -.093750 Q .23438 -.031250 .28125 -.031250 Q .31250 -.031250 .35938 -.046875 Q .35938 -.046875 .36719 -.054688 Q .37500 -.062500 .38281 -.078125 Q .39062 -.093750 .39062 -.093750 Q .40625 -.12500 .43750 -.26562 L .46875 -.37500 Q .46875 -.39062 .46875 -.39844 Q .46875 -.40625 .47656 -.42188 Q .48438 -.43750 .50000 -.43750 Q .51562 -.43750 .53125 -.43750 Q .56250 -.43750 .57031 -.42969 Q .57812 -.42188 .57812 -.40625 Q .57812 -.39062 .57812 -.37500 z" />
            <title id="title326">y</title>
            <desc id="desc328">text3 = &quot;y&quot;</desc>
          </g>
        </g>
      </g>
      <g id="g330" transform="matrix(23.000, 0.0000, 0.0000, 23.000, 255.00, 202.97)">
        <clipPath id="clip27">
          <path id="path333" d="M -11.087 -8.8249 L -11.087 5.5229 L 4.0870 5.5229 L 4.0870 -8.8249 z" />
        </clipPath>
        <g id="g335" clip-path="url(#clip27)">
          <g id="g337" fill="#000000" stroke="none" fill-rule="nonzero" fill-opacity="1.0000">
            <path id="path339" d="M .28125 -.65625 L .21875 -.42188 Q .28125 -.45312 .32812 -.45312 Q .40625 -.45312 .45312 -.41406 Q .50000 -.37500 .50000 -.28125 Q .50000 -.23438 .48438 -.18750 Q .46875 -.14062 .42969 -.093750 Q .39062 -.046875 .33594 -.015625 Q .28125 .015625 .21875 .015625 Q .15625 .015625 .10156 -.023438 Q .046875 -.062500 .046875 -.15625 Q .046875 -.18750 .062500 -.25000 L .14062 -.51562 Q .14062 -.56250 .15625 -.64062 Q .15625 -.64062 .12500 -.64062 Q .093750 -.64062 .093750 -.65625 Q .093750 -.67188 .10156 -.67969 Q .10938 -.68750 .10938 -.68750 Q .10938 -.68750 .12500 -.68750 L .25000 -.68750 Q .26562 -.68750 .26562 -.68750 Q .28125 -.68750 .28125 -.67188 Q .28125 -.67188 .28125 -.65625 z M .21875 -.031250 Q .25000 -.031250 .28125 -.054688 Q .31250 -.078125 .34375 -.12500 Q .35938 -.15625 .37500 -.22656 Q .39062 -.29688 .39062 -.34375 Q .39062 -.42188 .32812 -.42188 Q .28125 -.42188 .24219 -.39062 Q .20312 -.35938 .20312 -.34375 Q .18750 -.28125 .17188 -.21875 Q .15625 -.14062 .15625 -.10938 Q .15625 -.031250 .21875 -.031250 z" />
            <title id="title341">b</title>
            <desc id="desc343">text7 = &quot;b&quot;</desc>
          </g>
        </g>
      </g>
      <g id="g345" transform="matrix(23,0,0,23,175.32669,148.48184)">
        <clipPath id="clip28">
          <path id="path348" d="m -7.6087,-6.564 0,14.3478 15.1739,0 0,-14.3478 z" />
        </clipPath>
        <g id="g350" clip-path="url(#clip28)">
          <g style="fill:#000000;fill-opacity:1;fill-rule:nonzero;stroke:none" id="g352">
            <path id="path354" d="m 0.5,-0.67188 -0.04688,0.21876 q 0.10938,0 0.17188,0.05468 0.0625,0.05469 0.0625,0.13282 0,0.09374 -0.09375,0.179682 Q 0.5,0 0.35938,0.015625 q -0.01563,0 -0.01563,0 0,0 -0.01563,0.03125 L 0.29688,0.1875 q 0,0.01562 -0.00782,0.01562 -0.00781,0 -0.02344,0 Q 0.25,0.20312 0.25,0.1875 L 0.28125,0.015625 Q 0.1875,0 0.125,-0.046875 0.0625,-0.09375 0.0625,-0.17188 q 0,-0.10937 0.08594,-0.19531 0.08594,-0.08593 0.24218,-0.08593 0.01563,0 0.01563,0 0,0 0,-0.01563 l 0.04687,-0.20313 q 0.01563,-0.01562 0.01563,-0.01562 0,0 0.01563,0 0.03124,0 0.03124,0 0,0.01562 -0.01562,0.01562 z m -0.20312,0.64063 0.09374,-0.39063 q -0.10937,0.01563 -0.17187,0.09376 -0.03125,0.03124 -0.04687,0.08593 -0.01563,0.05469 -0.01563,0.10157 0,0.10937 0.14063,0.10937 z M 0.4375,-0.42188 0.34375,-0.03125 q 0.125,0 0.17187,-0.07813 0.04688,-0.04687 0.05469,-0.10156 0.00781,-0.05468 0.00781,-0.08594 0,-0.10937 -0.14062,-0.125 z" />
            <title id="title356">\phi</title>
            <desc id="desc358">text5 = &quot;\phi&quot;</desc>
          </g>
        </g>
      </g>
      <path transform="matrix(1.1212852,0,0,1.1212852,0,-0.38956516)" id="path4494" d="m 161.81512,136.70575 c -0.83511,-0.62233 -2.72055,-1.78892 -4.18988,-2.59243 l -2.67149,-1.46092 12.74104,-40.527794 c 12.45959,-39.632546 12.77298,-40.531629 14.1871,-40.701134 1.4067,-0.168615 1.44607,-0.276405 1.44607,-3.959723 l 0,-3.786389 3.9715,1.405893 c 12.7406,4.51012 28.76843,14.251531 39.06626,23.743746 l 2.53939,2.340716 -2.43235,2.539889 c -6.97207,7.280318 -62.54846,63.909976 -62.82064,64.011186 -0.17523,0.0652 -1.00188,-0.3907 -1.837,-1.01304 z m 21.51284,-24.03002 c 0,-4.89362 -0.0101,-4.93014 -1.36948,-4.93014 -1.35934,0 -1.36949,0.0365 -1.36949,4.93014 0,4.89362 0.0102,4.93014 1.36949,4.93014 1.35933,0 1.36948,-0.0365 1.36948,-4.93014 z m 0,-16.433792 c 0,-4.893617 -0.0101,-4.930137 -1.36948,-4.930137 -1.35934,0 -1.36949,0.03652 -1.36949,4.930137 0,4.893612 0.0102,4.930142 1.36949,4.930142 1.35933,0 1.36948,-0.0365 1.36948,-4.930142 z m 0,-16.433791 c 0,-4.893617 -0.0101,-4.930137 -1.36948,-4.930137 -1.35123,0 -1.36949,0.06087 -1.36949,4.564942 0,4.842924 0.14821,5.295333 1.73468,5.295333 0.89946,0 1.00429,-0.514594 1.00429,-4.930138 z m 0,-16.981584 c 0,-4.893617 -0.0101,-4.930137 -1.36948,-4.930137 -1.35934,0 -1.36949,0.03652 -1.36949,4.930137 0,4.893618 0.0102,4.930137 1.36949,4.930137 1.35933,0 1.36948,-0.03652 1.36948,-4.930137 z" style="fill:#00ffe8;stroke:#271740;stroke-width:0.98602742;stroke-miterlimit:4;stroke-dasharray:none;fill-opacity:0.41666667;stroke-opacity:1.0" />
      <g style="font-style:normal;font-variant:normal;font-weight:normal;font-stretch:normal;letter-spacing:normal;word-spacing:normal;text-anchor:start;fill:none;fill-opacity:1;fill-rule:evenodd;stroke:#000000;stroke-linecap:butt;stroke-linejoin:miter;stroke-miterlimit:10.43299961;stroke-dasharray:none;stroke-dashoffset:0;stroke-opacity:1" id="content" transform="matrix(1.5,0,0,-1.5000001,-183.60002,761.69529)" xml:space="preserve" stroke-miterlimit="10.433" font-style="normal" font-variant="normal" font-weight="normal" font-stretch="normal" font-size-adjust="none" letter-spacing="normal" word-spacing="normal" ns0:text="$1$" ns0:preamble="/Users/ABaker/cmep/Inkscape/underground-inkscape-preamble.tex"><path style="fill:#000000;stroke-width:0" d="m 228.08,477.23 0,0.18 c -0.88,0 -1.12,0.21 -1.12,0.72 l 0,7.05 -0.1,0.04 -2.12,-1.08 0,-0.16 0.32,0.11 c 0.21,0.09 0.41,0.15 0.53,0.15 0.25,0 0.36,-0.18 0.36,-0.58 l 0,-5.3 c 0,-0.65 -0.25,-0.9 -1.13,-0.95 l 0,-0.18 z" id="path3707" /></g>      <g style="font-style:normal;font-variant:normal;font-weight:normal;font-stretch:normal;letter-spacing:normal;word-spacing:normal;text-anchor:start;fill:none;fill-opacity:1;fill-rule:evenodd;stroke:#000000;stroke-linecap:butt;stroke-linejoin:miter;stroke-miterlimit:10.43299961;stroke-dasharray:none;stroke-dashoffset:0;stroke-opacity:1" id="content-7" transform="matrix(1.5,0,0,-1.5000001,-34.955833,909.72525)" xml:space="preserve" stroke-miterlimit="10.433" font-style="normal" font-variant="normal" font-weight="normal" font-stretch="normal" font-size-adjust="none" letter-spacing="normal" word-spacing="normal" ns0:text="$1$" ns0:preamble="/Users/ABaker/cmep/Inkscape/underground-inkscape-preamble.tex"><path style="fill:#000000;stroke-width:0" d="m 228.08,477.23 0,0.18 c -0.88,0 -1.12,0.21 -1.12,0.72 l 0,7.05 -0.1,0.04 -2.12,-1.08 0,-0.16 0.32,0.11 c 0.21,0.09 0.41,0.15 0.53,0.15 0.25,0 0.36,-0.18 0.36,-0.58 l 0,-5.3 c 0,-0.65 -0.25,-0.9 -1.13,-0.95 l 0,-0.18 z" id="path3707-1" /></g>    </g>
  </g>
</svg>