<?xml version='1.0' ?><svg xmlns:ns0="http://www.iki.fi/pav/software/textext/" xmlns:dc="http://purl.org/dc/elements/1.1/" xmlns:cc="http://creativecommons.org/ns#" xmlns:rdf="http://www.w3.org/1999/02/22-rdf-syntax-ns#" xmlns:svg="http://www.w3.org/2000/svg" xmlns="http://www.w3.org/2000/svg" id="svg2" version="1.1" width="309.46632" height="293.41333" viewBox="0.0 2.0903550383935743 346.99998612048194 329.00000697188756" preserveAspectRatio="none">
  <metadata id="metadata245">
    <rdf:RDF>
      <cc:Work rdf:about="">
        <dc:format>image/svg+xml</dc:format>
        <dc:type rdf:resource="http://purl.org/dc/dcmitype/StillImage" />
      </cc:Work>
    </rdf:RDF>
  </metadata>
  <defs id="defs243" />
  <title id="title4" />
  <g stroke-width="1.0000" stroke-linecap="square" stroke-linejoin="miter" stroke-dasharray="none" stroke-dashoffset="0.0000" stroke-miterlimit="10.000" id="g6">
    <clipPath id="clip1">
      <path d="M 0.0000 0.0000 L 0.0000 331.00 L 349.00 331.00 L 349.00 0.0000 z" id="path9" />
    </clipPath>
    <g clip-path="url(#clip1)" id="g11">
      <g fill="none" stroke="#000000" stroke-width="2.0000" stroke-linecap="butt" stroke-opacity="1.0000" id="g13">
        <path d="M 161.80 3.0000 L 161.80 331.00" id="path15" />
      </g>
    </g>
    <clipPath id="clip2">
      <path d="M 0.0000 0.0000 L 0.0000 331.00 L 349.00 331.00 L 349.00 0.0000 z" id="path18" />
    </clipPath>
    <g clip-path="url(#clip2)" id="g20">
      <g fill="#000000" fill-opacity="1.0000" fill-rule="evenodd" stroke="none" id="g22">
        <path d="M 161.80 2.0000 L 155.80 26.000 L 167.80 26.000" id="path24" />
      </g>
    </g>
    <clipPath id="clip3">
      <path d="M 0.0000 0.0000 L 0.0000 331.00 L 349.00 331.00 L 349.00 0.0000 z" id="path27" />
    </clipPath>
    <g clip-path="url(#clip3)" id="g29">
      <g fill="none" stroke="#000000" stroke-width="2.0000" stroke-linecap="butt" stroke-opacity="1.0000" id="g31">
        <path d="M 0.0000 180.41 L 346.00 180.41" id="path33" />
      </g>
    </g>
    <clipPath id="clip4">
      <path d="M 0.0000 0.0000 L 0.0000 331.00 L 349.00 331.00 L 349.00 0.0000 z" id="path36" />
    </clipPath>
    <g clip-path="url(#clip4)" id="g38">
      <g fill="#000000" fill-opacity="1.0000" fill-rule="evenodd" stroke="none" id="g40">
        <path d="M 347.00 180.41 L 323.00 174.41 L 323.00 186.41" id="path42" />
      </g>
    </g>
    <clipPath id="clip5">
      <path d="M 0.0000 0.0000 L 0.0000 331.00 L 349.00 331.00 L 349.00 0.0000 z" id="path45" />
    </clipPath>
    <g clip-path="url(#clip5)" id="g47">
      <g fill="none" stroke="#000000" stroke-width="2.0000" stroke-linecap="butt" stroke-opacity="1.0000" id="g49">
        <path d="M 24.973 180.41 L 24.973 183.41" id="path51" />
      </g>
    </g>
    <clipPath id="clip6">
      <path d="M 0.0000 0.0000 L 0.0000 331.00 L 349.00 331.00 L 349.00 0.0000 z" id="path54" />
    </clipPath>
    <g clip-path="url(#clip6)" id="g56">
      <g fill="none" stroke="#000000" stroke-width="2.0000" stroke-linecap="butt" stroke-opacity="1.0000" id="g58">
        <path d="M 298.62 180.41 L 298.62 183.41" id="path60" />
      </g>
    </g>
    <g id="misc" />
    <g id="layer0">
      <clipPath id="clip7">
        <path d="M 0.0000 0.0000 L 0.0000 331.00 L 349.00 331.00 L 349.00 0.0000 z" id="path65" />
      </clipPath>
      <g clip-path="url(#clip7)" id="g67">
        <g fill="none" stroke="#0000ff" stroke-width="2.5000" stroke-linecap="round" stroke-linejoin="round" stroke-opacity="1.0000" id="g69">
          <path d="M 298.62 180.41 C 298.62 255.97 237.36 317.23 161.80 317.23 C 86.231 317.23 24.973 255.97 24.973 180.41 C 24.973 104.84 86.231 43.587 161.80 43.587 C 237.36 43.587 298.62 104.84 298.62 180.41 z" id="path71" />
          <title id="title73">Circle c</title>
          <desc id="desc75">c: xÃ&#131;Â&#130;Ã&#130;Â² + yÃ&#131;Â&#130;Ã&#130;Â² = 1</desc>
        </g>
      </g>
      <clipPath id="clip8">
        <path d="M 0.0000 0.0000 L 0.0000 331.00 L 349.00 331.00 L 349.00 0.0000 z" id="path78" />
      </clipPath>
      <g clip-path="url(#clip8)" id="g80">
        <g fill="none" stroke="#000000" stroke-width="2.5000" stroke-linecap="butt" stroke-linejoin="round" stroke-opacity="1.0000" stroke-dasharray="10.500,8.0000" id="g82">
          <path d="M 161.80 180.41 L 202.84 49.889" id="path84" />
          <title id="title86">Segment g</title>
          <desc id="desc88">Segment g: Segment [C, A]</desc>
        </g>
      </g>
      <clipPath id="clip9">
        <path d="M 0.0000 0.0000 L 0.0000 331.00 L 349.00 331.00 L 349.00 0.0000 z" id="path91" />
      </clipPath>
      <g clip-path="url(#clip9)" id="g93">
        <g fill="none" stroke="#000000" stroke-width="2.5000" stroke-linecap="round" stroke-linejoin="round" stroke-opacity="1.0000" id="g95">
          <path d="M 202.84 49.889 L 202.84 180.41" id="path97" />
          <title id="title99">Segment h</title>
          <desc id="desc101">Segment h: Segment [A, B]</desc>
        </g>
      </g>
      <clipPath id="clip10">
        <path d="M 0.0000 0.0000 L 0.0000 331.00 L 349.00 331.00 L 349.00 0.0000 z" id="path104" />
      </clipPath>
      <g clip-path="url(#clip10)" id="g106">
        <g fill="#444444" fill-opacity="1.0000" fill-rule="nonzero" stroke="none" id="g108">
          <path d="M 203.84 49.889 C 203.84 50.442 203.39 50.889 202.84 50.889 C 202.29 50.889 201.84 50.442 201.84 49.889 C 201.84 49.337 202.29 48.889 202.84 48.889 C 203.39 48.889 203.84 49.337 203.84 49.889 z" id="path110" />
          <title id="title112">Point A</title>
          <desc id="desc114">Point A: Intersection point of c, f</desc>
        </g>
      </g>
      <clipPath id="clip11">
        <path d="M 0.0000 0.0000 L 0.0000 331.00 L 349.00 331.00 L 349.00 0.0000 z" id="path117" />
      </clipPath>
      <g clip-path="url(#clip11)" id="g119">
        <g fill="none" stroke="#000000" stroke-linecap="round" stroke-linejoin="round" stroke-opacity="1.0000" id="g121">
          <path d="M 203.84 49.889 C 203.84 50.442 203.39 50.889 202.84 50.889 C 202.29 50.889 201.84 50.442 201.84 49.889 C 201.84 49.337 202.29 48.889 202.84 48.889 C 203.39 48.889 203.84 49.337 203.84 49.889 z" id="path123" />
          <title id="title125">Point A</title>
          <desc id="desc127">Point A: Intersection point of c, f</desc>
        </g>
      </g>
      <clipPath id="clip12">
        <path d="M 0.0000 0.0000 L 0.0000 331.00 L 349.00 331.00 L 349.00 0.0000 z" id="path130" />
      </clipPath>
      <g clip-path="url(#clip12)" id="g132">
        <g fill="#444444" fill-opacity="1.0000" fill-rule="nonzero" stroke="none" id="g134">
          <path d="M 203.84 180.41 C 203.84 180.96 203.39 181.41 202.84 181.41 C 202.29 181.41 201.84 180.96 201.84 180.41 C 201.84 179.86 202.29 179.41 202.84 179.41 C 203.39 179.41 203.84 179.86 203.84 180.41 z" id="path136" />
          <title id="title138">Point B</title>
          <desc id="desc140">Point B: Intersection point of f, xAxis</desc>
        </g>
      </g>
      <clipPath id="clip13">
        <path d="M 0.0000 0.0000 L 0.0000 331.00 L 349.00 331.00 L 349.00 0.0000 z" id="path143" />
      </clipPath>
      <g clip-path="url(#clip13)" id="g145">
        <g fill="none" stroke="#000000" stroke-linecap="round" stroke-linejoin="round" stroke-opacity="1.0000" id="g147">
          <path d="M 203.84 180.41 C 203.84 180.96 203.39 181.41 202.84 181.41 C 202.29 181.41 201.84 180.96 201.84 180.41 C 201.84 179.86 202.29 179.41 202.84 179.41 C 203.39 179.41 203.84 179.86 203.84 180.41 z" id="path149" />
          <title id="title151">Point B</title>
          <desc id="desc153">Point B: Intersection point of f, xAxis</desc>
        </g>
      </g>
      <clipPath id="clip14">
        <path d="M 0.0000 0.0000 L 0.0000 331.00 L 349.00 331.00 L 349.00 0.0000 z" id="path156" />
      </clipPath>
      <g clip-path="url(#clip14)" id="g158">
        <g fill="#444444" fill-opacity="1.0000" fill-rule="nonzero" stroke="none" id="g160">
          <path d="M 162.80 180.41 C 162.80 180.96 162.35 181.41 161.80 181.41 C 161.24 181.41 160.80 180.96 160.80 180.41 C 160.80 179.86 161.24 179.41 161.80 179.41 C 162.35 179.41 162.80 179.86 162.80 180.41 z" id="path162" />
          <title id="title164">Point C</title>
          <desc id="desc166">Point C: Intersection point of xAxis, yAxis</desc>
        </g>
      </g>
      <clipPath id="clip15">
        <path d="M 0.0000 0.0000 L 0.0000 331.00 L 349.00 331.00 L 349.00 0.0000 z" id="path169" />
      </clipPath>
      <g clip-path="url(#clip15)" id="g171">
        <g fill="none" stroke="#000000" stroke-linecap="round" stroke-linejoin="round" stroke-opacity="1.0000" id="g173">
          <path d="M 162.80 180.41 C 162.80 180.96 162.35 181.41 161.80 181.41 C 161.24 181.41 160.80 180.96 160.80 180.41 C 160.80 179.86 161.24 179.41 161.80 179.41 C 162.35 179.41 162.80 179.86 162.80 180.41 z" id="path175" />
          <title id="title177">Point C</title>
          <desc id="desc179">Point C: Intersection point of xAxis, yAxis</desc>
        </g>
      </g>
      <g transform="matrix(23.000, 0.0000, 0.0000, 23.000, 198.00, 204.22)" id="g181">
        <clipPath id="clip16">
          <path d="M -8.6087 -8.8792 L -8.6087 5.5121 L 6.5652 5.5121 L 6.5652 -8.8792 z" id="path184" />
        </clipPath>
        <g clip-path="url(#clip16)" id="g186">
          <g fill="#000000" fill-opacity="1.0000" fill-rule="nonzero" stroke="none" id="g188">
            <path d="M .51562 -.31250 L .48438 -.23438 Q .48438 -.20312 .46875 -.14062 Q .45312 -.078125 .45312 -.062500 Q .45312 -.031250 .48438 -.031250 Q .51562 -.031250 .54688 -.12500 Q .54688 -.15625 .56250 -.15625 Q .56250 -.15625 .57812 -.15625 Q .59375 -.15625 .59375 -.14062 Q .59375 -.14062 .58594 -.10938 Q .57812 -.078125 .56250 -.046875 Q .53125 .015625 .46875 .015625 Q .39062 .015625 .35938 -.046875 Q .29688 .015625 .21875 .015625 Q .14062 .015625 .093750 -.031250 Q .046875 -.078125 .046875 -.15625 Q .046875 -.26562 .12500 -.35938 Q .20312 -.45312 .32812 -.45312 Q .39062 -.45312 .43750 -.40625 Q .45312 -.43750 .48438 -.43750 Q .50000 -.43750 .51562 -.42188 Q .53125 -.40625 .53125 -.39062 Q .53125 -.39062 .51562 -.31250 z M .34375 -.093750 L .40625 -.34375 L .40625 -.35938 Q .40625 -.37500 .38281 -.39844 Q .35938 -.42188 .32812 -.42188 Q .25000 -.42188 .20312 -.31250 Q .18750 -.28125 .17188 -.21094 Q .15625 -.14062 .15625 -.10938 Q .15625 -.031250 .21875 -.031250 Q .26562 -.031250 .29688 -.046875 Q .32812 -.062500 .34375 -.093750 z" id="path190" />
            <title id="title192">a</title>
            <desc id="desc194">text1 = &quot;a&quot;</desc>
          </g>
        </g>
      </g>
      <g transform="matrix(23.000, 0.0000, 0.0000, 23.000, 326.00, 201.22)" id="g196">
        <clipPath id="clip17">
          <path d="M -14.174 -8.7488 L -14.174 5.6425 L 1.0000 5.6425 L 1.0000 -8.7488 z" id="path199" />
        </clipPath>
        <g clip-path="url(#clip17)" id="g201">
          <g fill="#000000" fill-opacity="1.0000" fill-rule="nonzero" stroke="none" id="g203">
            <path d="M .53125 -.40625 Q .51562 -.42188 .48438 -.42188 Q .46875 -.42188 .43750 -.39844 Q .40625 -.37500 .40625 -.32812 Q .40625 -.31250 .39062 -.25781 Q .37500 -.20312 .37500 -.18750 Q .34375 -.093750 .34375 -.078125 Q .34375 -.031250 .40625 -.031250 Q .43750 -.031250 .48438 -.062500 Q .53125 -.093750 .54688 -.15625 Q .54688 -.15625 .56250 -.15625 Q .59375 -.15625 .59375 -.14844 Q .59375 -.14062 .57812 -.10938 Q .56250 -.078125 .53906 -.054688 Q .51562 -.031250 .47656 -.0078125 Q .43750 .015625 .39062 .015625 Q .29688 .015625 .26562 -.046875 Q .21875 .015625 .15625 .015625 Q .10938 .015625 .070312 -.015625 Q .031250 -.046875 .031250 -.078125 Q .031250 -.10938 .054688 -.13281 Q .078125 -.15625 .10938 -.15625 Q .14062 -.15625 .14844 -.14062 Q .15625 -.12500 .15625 -.10938 Q .15625 -.093750 .14062 -.070312 Q .12500 -.046875 .10938 -.046875 Q .12500 -.031250 .15625 -.031250 Q .18750 -.031250 .21094 -.054688 Q .23438 -.078125 .23438 -.12500 L .26562 -.25000 Q .29688 -.34375 .29688 -.35938 Q .29688 -.42188 .23438 -.42188 Q .20312 -.42188 .16406 -.39062 Q .12500 -.35938 .093750 -.29688 Q .093750 -.28125 .078125 -.28125 Q .046875 -.28125 .046875 -.29688 Q .046875 -.31250 .062500 -.33594 Q .078125 -.35938 .10156 -.38281 Q .12500 -.40625 .16406 -.42969 Q .20312 -.45312 .25000 -.45312 Q .34375 -.45312 .39062 -.39062 Q .42188 -.45312 .48438 -.45312 Q .53125 -.45312 .57031 -.42969 Q .60938 -.40625 .60938 -.35938 Q .60938 -.32812 .58594 -.30469 Q .56250 -.28125 .53125 -.28125 Q .51562 -.28125 .50000 -.29688 Q .48438 -.31250 .48438 -.32812 Q .48438 -.35938 .50000 -.37500 Q .51562 -.39062 .53125 -.40625 z" id="path205" />
            <title id="title207">x</title>
            <desc id="desc209">text2 = &quot;x&quot;</desc>
          </g>
        </g>
      </g>
      <g transform="matrix(23.000, 0.0000, 0.0000, 23.000, 139.00, 23.222)" id="g211">
        <clipPath id="clip18">
          <path d="M -6.0435 -1.0097 L -6.0435 13.382 L 9.1304 13.382 L 9.1304 -1.0097 z" id="path214" />
        </clipPath>
        <g clip-path="url(#clip18)" id="g216">
          <g fill="#000000" fill-opacity="1.0000" fill-rule="nonzero" stroke="none" id="g218">
            <path d="M .57812 -.37500 L .48438 -0.0000 Q .46875 .093750 .38281 .14844 Q .29688 .20312 .20312 .20312 Q .14062 .20312 .10938 .17969 Q .078125 .15625 .078125 .10938 Q .078125 .078125 .093750 .054688 Q .10938 .031250 .14062 .031250 Q .15625 .031250 .17188 .046875 Q .18750 .062500 .18750 .078125 Q .18750 .12500 .14062 .15625 Q .17188 .17188 .20312 .17188 Q .26562 .17188 .31250 .11719 Q .35938 .062500 .37500 -.015625 Q .32812 .015625 .28125 .015625 Q .25000 .015625 .22656 .0078125 Q .20312 -0.0000 .17969 -.015625 Q .15625 -.031250 .14062 -.054688 Q .12500 -.078125 .12500 -.12500 Q .12500 -.15625 .14062 -.20312 Q .15625 -.25000 .18750 -.32812 Q .20312 -.37500 .20312 -.39062 Q .20312 -.40625 .19531 -.41406 Q .18750 -.42188 .18750 -.42188 Q .18750 -.42188 .18750 -.42188 Q .17188 -.42188 .16406 -.41406 Q .15625 -.40625 .14062 -.39844 Q .12500 -.39062 .10938 -.35938 Q .093750 -.32812 .078125 -.29688 Q .078125 -.28125 .062500 -.28125 Q .031250 -.28125 .031250 -.29688 Q .031250 -.31250 .039062 -.33594 Q .046875 -.35938 .070312 -.38281 Q .093750 -.40625 .12500 -.42969 Q .15625 -.45312 .18750 -.45312 Q .23438 -.45312 .26562 -.42969 Q .29688 -.40625 .29688 -.35938 Q .29688 -.34375 .28125 -.31250 Q .23438 -.15625 .23438 -.093750 Q .23438 -.031250 .28125 -.031250 Q .31250 -.031250 .35938 -.046875 Q .35938 -.046875 .36719 -.054688 Q .37500 -.062500 .38281 -.078125 Q .39062 -.093750 .39062 -.093750 Q .40625 -.12500 .43750 -.26562 L .46875 -.37500 Q .46875 -.39062 .46875 -.39844 Q .46875 -.40625 .47656 -.42188 Q .48438 -.43750 .50000 -.43750 Q .51562 -.43750 .53125 -.43750 Q .56250 -.43750 .57031 -.42969 Q .57812 -.42188 .57812 -.40625 Q .57812 -.39062 .57812 -.37500 z" id="path220" />
            <title id="title222">y</title>
            <desc id="desc224">text3 = &quot;y&quot;</desc>
          </g>
        </g>
      </g>
      <g transform="matrix(23.000, 0.0000, 0.0000, 23.000, 211.00, 123.22)" id="g226">
        <clipPath id="clip19">
          <path d="M -9.1739 -5.3575 L -9.1739 9.0338 L 6.0000 9.0338 L 6.0000 -5.3575 z" id="path229" />
        </clipPath>
        <g clip-path="url(#clip19)" id="g231">
          <g fill="#000000" fill-opacity="1.0000" fill-rule="nonzero" stroke="none" id="g233">
            <path d="M .046875 .12500 L .17188 -.34375 Q .17188 -.35938 .17188 -.37500 Q .17188 -.42188 .15625 -.42188 Q .10938 -.42188 .078125 -.31250 Q .078125 -.28125 .078125 -.28125 Q .078125 -.28125 .062500 -.28125 Q .031250 -.28125 .031250 -.29688 Q .031250 -.29688 .039062 -.33594 Q .046875 -.37500 .062500 -.39062 Q .10938 -.45312 .15625 -.45312 Q .23438 -.45312 .26562 -.39062 Q .32812 -.45312 .40625 -.45312 Q .48438 -.45312 .53906 -.41406 Q .59375 -.37500 .59375 -.28125 Q .59375 -.17188 .50781 -.078125 Q .42188 .015625 .29688 .015625 Q .23438 .015625 .20312 -.031250 L .15625 .14062 Q .17188 .14062 .20312 .14062 Q .23438 .14062 .23438 .17188 Q .23438 .18750 .20312 .18750 Q .18750 .18750 .14844 .18750 Q .10938 .18750 .093750 .18750 Q .078125 .18750 .046875 .18750 Q .015625 .18750 0.0000 .18750 Q -.015625 .18750 -.015625 .17188 Q -.015625 .15625 -.0078125 .15625 Q 0.0000 .15625 .0078125 .14844 Q .015625 .14062 .015625 .14062 Q .046875 .14062 .046875 .14062 Q .046875 .14062 .046875 .12500 z M .28125 -.34375 L .21875 -.093750 L .21875 -.093750 Q .21875 -.078125 .24219 -.054688 Q .26562 -.031250 .29688 -.031250 Q .37500 -.031250 .42188 -.12500 Q .43750 -.15625 .45312 -.22656 Q .46875 -.29688 .46875 -.34375 Q .46875 -.42188 .40625 -.42188 Q .37500 -.42188 .34375 -.39844 Q .31250 -.37500 .28125 -.34375 z" id="path235" />
            <title id="title237">p</title>
            <desc id="desc239">text4 = &quot;p&quot;</desc>
          </g>
        </g>
      </g>
    </g>
  </g>
  <g style="font-style:normal;font-variant:normal;font-weight:normal;font-stretch:normal;letter-spacing:normal;word-spacing:normal;text-anchor:start;fill:none;fill-opacity:1;fill-rule:evenodd;stroke:#000000;stroke-linecap:butt;stroke-linejoin:miter;stroke-miterlimit:10.43299961;stroke-dasharray:none;stroke-dashoffset:0;stroke-opacity:1" id="content" transform="matrix(1.5,0,0,-1.5,-36.43574,913.32497)" xml:space="preserve" stroke-miterlimit="10.433" font-style="normal" font-variant="normal" font-weight="normal" font-stretch="normal" font-size-adjust="none" letter-spacing="normal" word-spacing="normal" ns0:text="$1$" ns0:preamble="/Users/ABaker/cmep/Inkscape/underground-inkscape-preamble.tex"><path style="fill:#000000;stroke-width:0" d="m 228.08,477.23 0,0.18 c -0.88,0 -1.12,0.21 -1.12,0.72 l 0,7.05 -0.1,0.04 -2.12,-1.08 0,-0.16 0.32,0.11 c 0.21,0.09 0.41,0.15 0.53,0.15 0.25,0 0.36,-0.18 0.36,-0.58 l 0,-5.3 c 0,-0.65 -0.25,-0.9 -1.13,-0.95 l 0,-0.18 z" id="path3707" /></g>  <g style="font-style:normal;font-variant:normal;font-weight:normal;font-stretch:normal;letter-spacing:normal;word-spacing:normal;text-anchor:start;fill:none;fill-opacity:1;fill-rule:evenodd;stroke:#000000;stroke-linecap:butt;stroke-linejoin:miter;stroke-miterlimit:10.43299961;stroke-dasharray:none;stroke-dashoffset:0;stroke-opacity:1" id="content-6" transform="matrix(1.5,0,0,-1.5,-184.01579,764.48696)" xml:space="preserve" stroke-miterlimit="10.433" font-style="normal" font-variant="normal" font-weight="normal" font-stretch="normal" font-size-adjust="none" letter-spacing="normal" word-spacing="normal" ns0:text="$1$" ns0:preamble="/Users/ABaker/cmep/Inkscape/underground-inkscape-preamble.tex"><path style="fill:#000000;stroke-width:0" d="m 228.08,477.23 0,0.18 c -0.88,0 -1.12,0.21 -1.12,0.72 l 0,7.05 -0.1,0.04 -2.12,-1.08 0,-0.16 0.32,0.11 c 0.21,0.09 0.41,0.15 0.53,0.15 0.25,0 0.36,-0.18 0.36,-0.58 l 0,-5.3 c 0,-0.65 -0.25,-0.9 -1.13,-0.95 l 0,-0.18 z" id="path3707-2" /></g></svg>