<?xml version='1.0' ?><svg xmlns:ns0="http://www.iki.fi/pav/software/textext/" xmlns:dc="http://purl.org/dc/elements/1.1/" xmlns:cc="http://creativecommons.org/ns#" xmlns:rdf="http://www.w3.org/1999/02/22-rdf-syntax-ns#" xmlns:svg="http://www.w3.org/2000/svg" xmlns="http://www.w3.org/2000/svg" id="svg2" version="1.1" width="342.38182" height="329.99096" viewBox="30.861997942953025 20.474849215604003 343.817985352349 331.37515026845637" preserveAspectRatio="none">
  <metadata id="metadata170">
    <rdf:RDF>
      <cc:Work rdf:about="">
        <dc:format>image/svg+xml</dc:format>
        <dc:type rdf:resource="http://purl.org/dc/dcmitype/StillImage" />
      </cc:Work>
    </rdf:RDF>
  </metadata>
  <defs id="defs168" />
  <title id="title4" />
  <g id="g6" stroke-linecap="square" stroke-miterlimit="10.000" stroke-width="1.0000" stroke-dasharray="none" stroke-dashoffset="0.0000" stroke-linejoin="miter">
    <g id="misc" />
    <g id="layer0">
      <clipPath id="clip1">
        <path id="path11" d="M 0.0000 0.0000 L 0.0000 367.00 L 399.00 367.00 L 399.00 0.0000 z" />
      </clipPath>
      <g id="g13" clip-path="url(#clip1)">
        <g id="g15" stroke="#000000" stroke-opacity="1.0000" fill="none" stroke-linecap="round" stroke-linejoin="round">
          <path id="path17" d="M 227.44 164.48 C 222.15 157.18 213.86 152.65 204.86 152.14 C 195.87 151.63 187.12 155.18 181.03 161.82 L 203.15 182.09 z" />
          <title id="title19">Angle Ã&#131;Â&#142;Ã&#130;Â±</title>
          <desc id="desc21">Angle Ã&#131;Â&#142;Ã&#130;Â±: Angle between h, q</desc>
        </g>
      </g>
      <clipPath id="clip2">
        <path id="path24" d="M 0.0000 0.0000 L 0.0000 367.00 L 399.00 367.00 L 399.00 0.0000 z" />
      </clipPath>
      <g id="g26" clip-path="url(#clip2)">
        <g id="g28" stroke="#000000" stroke-opacity="1.0000" fill="none" stroke-linecap="round" stroke-linejoin="round">
          <path id="path30" d="M 180.72 161.54 C 172.69 170.31 170.59 183.00 175.38 193.89 C 180.17 204.78 190.95 211.81 202.84 211.81 L 202.84 181.81 z" />
          <title id="title32">Angle Ã&#131;Â&#142;Ã&#130;Â´</title>
          <desc id="desc34">Angle Ã&#131;Â&#142;Ã&#130;Â´: Angle between L, A, G</desc>
        </g>
      </g>
      <clipPath id="clip3">
        <path id="path37" d="M 0.0000 0.0000 L 0.0000 367.00 L 399.00 367.00 L 399.00 0.0000 z" />
      </clipPath>
      <g id="g39" clip-path="url(#clip3)">
        <g id="g41" stroke="#000000" stroke-opacity="1.0000" fill="none" stroke-linecap="round" stroke-linejoin="round">
          <path id="path43" d="M 202.84 212.31 C 214.12 212.31 224.44 205.99 229.57 195.94 C 234.69 185.90 233.75 173.83 227.13 164.70 L 202.84 182.31 z" />
          <title id="title45">Angle Ã&#131;Â&#142;Ã&#130;Âµ</title>
          <desc id="desc47">Angle Ã&#131;Â&#142;Ã&#130;Âµ: Angle between s, h</desc>
        </g>
      </g>
      <clipPath id="clip4">
        <path id="path50" d="M 0.0000 0.0000 L 0.0000 367.00 L 399.00 367.00 L 399.00 0.0000 z" />
      </clipPath>
      <g id="g52" clip-path="url(#clip4)">
        <g id="g54" stroke="#000000" stroke-opacity="1.0000" fill="none" stroke-linecap="butt" stroke-dasharray="5.0000,4.0000" stroke-linejoin="round">
          <path id="path56" d="M 203.54 181.81 L 202.84 20.477" />
          <title id="title58">Segment n</title>
          <desc id="desc60">Segment n: Segment [I, F]</desc>
        </g>
      </g>
      <clipPath id="clip5">
        <path id="path63" d="M 0.0000 0.0000 L 0.0000 367.00 L 399.00 367.00 L 399.00 0.0000 z" />
      </clipPath>
      <g id="g65" clip-path="url(#clip5)">
        <g id="g67" stroke="#000000" stroke-opacity="1.0000" fill="none" stroke-linecap="butt" stroke-dasharray="5.0000,4.0000" stroke-linejoin="round">
          <path id="path69" d="M 203.54 181.81 L 374.68 181.81" />
          <title id="title71">Segment p</title>
          <desc id="desc73">Segment p: Segment [I, K]</desc>
        </g>
      </g>
      <clipPath id="clip6">
        <path id="path76" d="M 0.0000 0.0000 L 0.0000 367.00 L 399.00 367.00 L 399.00 0.0000 z" />
      </clipPath>
      <g id="g78" clip-path="url(#clip6)">
        <g id="g80" stroke="#000000" stroke-opacity="1.0000" fill="none" stroke-linecap="butt" stroke-dasharray="5.0000,4.0000" stroke-linejoin="round">
          <path id="path82" d="M 30.862 181.81 L 202.84 181.81" />
          <title id="title84">Segment r</title>
          <desc id="desc86">Segment r: Segment [D, A]</desc>
        </g>
      </g>
      <clipPath id="clip7">
        <path id="path89" d="M 0.0000 0.0000 L 0.0000 367.00 L 399.00 367.00 L 399.00 0.0000 z" />
      </clipPath>
      <g id="g91" clip-path="url(#clip7)">
        <g id="g93" stroke="#000000" stroke-opacity="1.0000" fill="none" stroke-linecap="round" stroke-width="3.0000" stroke-linejoin="round">
          <path id="path95" d="M 202.84 181.81 L 318.85 97.550" />
          <title id="title97">Vector u</title>
          <desc id="desc99">Vector u: Vector[A, B]</desc>
        </g>
      </g>
      <clipPath id="clip8">
        <path id="path102" d="M 0.0000 0.0000 L 0.0000 367.00 L 399.00 367.00 L 399.00 0.0000 z" />
      </clipPath>
      <g id="g104" clip-path="url(#clip8)">
        <g id="g106" fill="#000000" stroke="none" fill-rule="evenodd" fill-opacity="1.0000">
          <path id="path108" d="M 333.42 86.973 L 321.50 101.19 L 316.21 93.909 z" />
          <title id="title110">Vector u</title>
          <desc id="desc112">Vector u: Vector[A, B]</desc>
        </g>
      </g>
      <clipPath id="clip9">
        <path id="path115" d="M 0.0000 0.0000 L 0.0000 367.00 L 399.00 367.00 L 399.00 0.0000 z" />
      </clipPath>
      <g id="g117" clip-path="url(#clip9)">
        <g id="g119" stroke="#000000" stroke-opacity="1.0000" fill="none" stroke-linecap="round" stroke-width="3.0000" stroke-linejoin="round">
          <path id="path121" d="M 202.84 181.81 L 202.84 333.85" />
          <title id="title123">Vector v</title>
          <desc id="desc125">Vector v: Vector[A, C]</desc>
        </g>
      </g>
      <clipPath id="clip10">
        <path id="path128" d="M 0.0000 0.0000 L 0.0000 367.00 L 399.00 367.00 L 399.00 0.0000 z" />
      </clipPath>
      <g id="g130" clip-path="url(#clip10)">
        <g id="g132" fill="#000000" stroke="none" fill-rule="evenodd" fill-opacity="1.0000">
          <path id="path134" d="M 202.84 351.85 L 198.34 333.85 L 207.34 333.85 z" />
          <title id="title136">Vector v</title>
          <desc id="desc138">Vector v: Vector[A, C]</desc>
        </g>
      </g>
      <clipPath id="clip11">
        <path id="path141" d="M 0.0000 0.0000 L 0.0000 367.00 L 399.00 367.00 L 399.00 0.0000 z" />
      </clipPath>
      <g id="g143" clip-path="url(#clip11)">
        <g id="g145" stroke="#000000" stroke-opacity="1.0000" fill="none" stroke-linecap="round" stroke-width="3.0000" stroke-linejoin="round">
          <path id="path147" d="M 202.84 181.81 L 84.171 73.061" />
          <title id="title149">Vector b</title>
          <desc id="desc151">Vector b: Vector[A, L]</desc>
        </g>
      </g>
      <clipPath id="clip12">
        <path id="path154" d="M 0.0000 0.0000 L 0.0000 367.00 L 399.00 367.00 L 399.00 0.0000 z" />
      </clipPath>
      <g id="g156" clip-path="url(#clip12)">
        <g id="g158" fill="#000000" stroke="none" fill-rule="evenodd" fill-opacity="1.0000">
          <path id="path160" d="M 70.900 60.900 L 87.211 69.743 L 81.131 76.379 z" />
          <title id="title162">Vector b</title>
          <desc id="desc164">Vector b: Vector[A, L]</desc>
        </g>
      </g>
    </g>
  </g>
  <g ns0:preamble="/Users/ABaker/cmep/Inkscape/underground-inkscape-preamble.tex" ns0:text="$\\mathbf{a}$" word-spacing="normal" letter-spacing="normal" font-size-adjust="none" font-stretch="normal" font-weight="normal" font-variant="normal" font-style="normal" stroke-miterlimit="10.433" xml:space="preserve" transform="matrix(2,0,0,-2,-183.7765,1075.1398)" id="content" style="font-style:normal;font-variant:normal;font-weight:normal;font-stretch:normal;letter-spacing:normal;word-spacing:normal;text-anchor:start;fill:none;fill-opacity:1;fill-rule:evenodd;stroke:#000000;stroke-linecap:butt;stroke-linejoin:miter;stroke-miterlimit:10.43299961;stroke-dasharray:none;stroke-dashoffset:0;stroke-opacity:1"><path id="path3591" d="m 229.02,477.99 -0.12,-0.12 c -0.04,-0.03 -0.07,-0.04 -0.13,-0.04 -0.17,0 -0.25,0.12 -0.25,0.33 l 0,3.08 c 0,1.01 -0.87,1.58 -2.31,1.58 -1.34,0 -2.26,-0.54 -2.26,-1.49 0,-0.49 0.29,-0.8 0.77,-0.8 0.47,0 0.8,0.31 0.8,0.71 0,0.16 -0.07,0.3 -0.22,0.49 -0.11,0.12 -0.13,0.2 -0.13,0.28 0,0.28 0.34,0.43 0.76,0.43 0.7,0 0.96,-0.34 0.96,-1.1 l 0,-0.8 0,-0.41 0,-1.75 c -0.26,-0.37 -0.54,-0.47 -0.82,-0.47 -0.36,0 -0.62,0.27 -0.62,0.79 0,0.68 0.5,1.17 1.44,1.43 l 0,0.41 c -1.37,-0.39 -1.92,-0.6 -2.37,-0.9 -0.53,-0.35 -0.79,-0.8 -0.79,-1.32 0,-0.87 0.54,-1.25 1.3,-1.25 0.68,0 1.22,0.22 1.87,0.81 0.13,-0.6 0.39,-0.81 0.97,-0.81 0.51,0 0.87,0.19 1.32,0.67 z" style="fill:#000000;stroke-width:0" /></g>  <g style="font-style:normal;font-variant:normal;font-weight:normal;font-stretch:normal;letter-spacing:normal;word-spacing:normal;text-anchor:start;fill:none;fill-opacity:1;fill-rule:evenodd;stroke:#000000;stroke-linecap:butt;stroke-linejoin:miter;stroke-miterlimit:10.43299961;stroke-dasharray:none;stroke-dashoffset:0;stroke-opacity:1" id="g3779" transform="matrix(2,0,0,-2,-263.43779,1234.4624)" xml:space="preserve" stroke-miterlimit="10.433" font-style="normal" font-variant="normal" font-weight="normal" font-stretch="normal" font-size-adjust="none" letter-spacing="normal" word-spacing="normal" ns0:text="$\\mathbf{b}$" ns0:preamble="/Users/ABaker/cmep/Inkscape/underground-inkscape-preamble.tex"><path style="fill:#000000;stroke-width:0" d="m 225.92,485.22 -2.29,0 0,-0.29 c 0.55,-0.1 0.65,-0.21 0.65,-0.68 l 0,-7.17 0.14,0 0.94,0.66 c 0.54,-0.49 0.96,-0.67 1.55,-0.67 l -0.17,0.38 c -0.5,0 -0.82,0.36 -0.82,0.93 l 0,3.1 c 0.22,0.51 0.44,0.7 0.83,0.7 0.73,0 1.1,-0.78 1.1,-2.34 0,-1.64 -0.36,-2.39 -1.11,-2.39 l 0.17,-0.38 c 1.59,0 2.67,1.22 2.67,2.99 0,1.64 -0.91,2.76 -2.22,2.76 -0.57,0 -0.99,-0.19 -1.44,-0.66 z" id="path3781" /></g>  <g ns0:preamble="/Users/ABaker/cmep/Inkscape/underground-inkscape-preamble.tex" ns0:text="$\\mathbf{c}$" word-spacing="normal" letter-spacing="normal" font-size-adjust="none" font-stretch="normal" font-weight="normal" font-variant="normal" font-style="normal" stroke-miterlimit="10.433" xml:space="preserve" transform="matrix(2,0,0,-2,-319.39036,1060.9146)" id="g3973" style="font-style:normal;font-variant:normal;font-weight:normal;font-stretch:normal;letter-spacing:normal;word-spacing:normal;text-anchor:start;fill:none;fill-opacity:1;fill-rule:evenodd;stroke:#000000;stroke-linecap:butt;stroke-linejoin:miter;stroke-miterlimit:10.43299961;stroke-dasharray:none;stroke-dashoffset:0;stroke-opacity:1"><path id="path3975" d="m 228.3,478.52 -0.04,-0.04 -0.04,-0.05 -0.04,-0.04 -0.04,-0.04 -0.04,-0.04 -0.04,-0.03 -0.04,-0.04 -0.04,-0.03 -0.04,-0.03 -0.03,-0.03 -0.04,-0.03 -0.04,-0.03 -0.04,-0.02 -0.03,-0.02 -0.04,-0.02 -0.04,-0.02 -0.04,-0.02 -0.03,-0.02 -0.04,-0.02 -0.04,-0.01 -0.04,-0.01 -0.04,-0.02 -0.04,-0.01 -0.04,-0.01 -0.04,0 -0.04,-0.01 -0.04,-0.01 -0.04,0 -0.04,0 -0.05,-0.01 -0.04,0 -0.05,0 c -1.02,0 -1.64,0.99 -1.64,2.6 0,1.28 0.41,1.99 0.99,1.99 0.5,0 0.5,-0.27 0.5,-0.82 0,-0.57 0.26,-0.86 0.66,-0.86 0.5,0 0.8,0.29 0.8,0.75 0,0.76 -0.79,1.3 -1.82,1.3 -1.56,0 -2.79,-1.21 -2.79,-2.96 0,-1.69 1.05,-2.79 2.52,-2.79 0.95,0 1.61,0.35 2.26,1.24 z" style="fill:#000000;stroke-width:0" /></g>  <g style="font-style:normal;font-variant:normal;font-weight:normal;font-stretch:normal;letter-spacing:normal;word-spacing:normal;text-anchor:start;fill:none;fill-opacity:1;fill-rule:evenodd;stroke:#000000;stroke-linecap:butt;stroke-linejoin:miter;stroke-miterlimit:10.43299961;stroke-dasharray:none;stroke-dashoffset:0;stroke-opacity:1" id="g4171" transform="matrix(2,0,0,-2,-287.80344,1155.1078)" xml:space="preserve" stroke-miterlimit="10.433" font-style="normal" font-variant="normal" font-weight="normal" font-stretch="normal" font-size-adjust="none" letter-spacing="normal" word-spacing="normal" ns0:text="$\\alpha$" ns0:preamble="/Users/ABaker/cmep/Inkscape/underground-inkscape-preamble.tex"><path style="fill:#000000;stroke-width:0" d="m 229.68,482.29 -0.94,0 -0.75,-1.45 c 0,0.82 -0.44,1.6 -1.35,1.6 -1.27,0 -2.32,-1.26 -2.65,-2.64 -0.07,-0.3 -0.09,-0.52 -0.09,-0.78 0,-0.98 0.52,-1.9 1.53,-1.9 l 0.1,0.35 c -0.59,0 -0.63,0.57 -0.63,1.24 0,1.88 0.93,3.38 1.6,3.38 0.69,0 0.73,-0.83 0.73,-1.63 l 0,0 c 0,-0.32 -0.01,-0.6 -0.05,-0.84 -0.23,-0.65 -0.89,-2.15 -1.65,-2.15 l -0.1,-0.35 c 0.79,0 1.4,0.43 1.8,1.02 l 0.03,0 c 0.02,-0.54 0.35,-1.02 0.78,-1.02 0.52,0 0.91,0.65 1.12,1.51 l -0.18,0.08 c -0.22,-0.65 -0.4,-0.87 -0.54,-0.87 -0.29,0 -0.4,0.6 -0.4,1.17 l 0,0.43 z" id="path4173" /></g>  <g ns0:preamble="/Users/ABaker/cmep/Inkscape/underground-inkscape-preamble.tex" ns0:text="$\\beta$" word-spacing="normal" letter-spacing="normal" font-size-adjust="none" font-stretch="normal" font-weight="normal" font-variant="normal" font-style="normal" stroke-miterlimit="10.433" xml:space="preserve" transform="matrix(2,0,0,-2,-240.42947,1101.6935)" id="g4373" style="font-style:normal;font-variant:normal;font-weight:normal;font-stretch:normal;letter-spacing:normal;word-spacing:normal;text-anchor:start;fill:none;fill-opacity:1;fill-rule:evenodd;stroke:#000000;stroke-linecap:butt;stroke-linejoin:miter;stroke-miterlimit:10.43299961;stroke-dasharray:none;stroke-dashoffset:0;stroke-opacity:1"><path id="path4375" d="m 223.99,475.99 -0.01,-0.02 0,-0.02 -0.01,-0.03 -0.01,-0.03 0,-0.03 -0.01,-0.03 -0.01,-0.03 -0.01,-0.03 -0.01,-0.06 -0.02,-0.07 -0.02,-0.06 -0.01,-0.07 -0.02,-0.06 -0.02,-0.07 -0.01,-0.03 -0.01,-0.03 -0.01,-0.03 -0.01,-0.03 0,-0.02 -0.01,-0.03 -0.01,-0.03 -0.01,-0.02 -0.01,-0.02 -0.01,-0.03 -0.01,-0.02 0,-0.01 0.93,0 c 0.06,0.12 0.2,0.49 0.27,0.82 l 0.33,1.44 c 0.25,-0.2 0.46,-0.25 0.76,-0.25 l -0.07,0.35 c -0.15,0 -0.38,0.05 -0.58,0.27 l 1.2,4.94 c 0.25,1.01 0.51,1.88 1.4,1.88 0.52,0 0.72,-0.64 0.72,-1.18 0,-0.3 -0.19,-1.46 -0.71,-1.46 -0.17,0 -0.43,0.06 -0.52,0.06 -0.43,0 -0.56,-0.19 -0.56,-0.32 0,-0.15 0.17,-0.26 0.38,-0.26 0.21,0 0.27,0.09 0.5,0.09 0.19,0 0.24,-0.34 0.24,-0.74 0,-1.15 -0.69,-3.28 -2.07,-3.28 l 0.07,-0.35 c 0.97,0 1.74,0.48 2.26,1.14 0.39,0.49 0.75,1.44 0.75,2.22 0,0.55 -0.18,1.07 -0.66,1.2 l 0,0.01 c 0.73,0.33 1.18,1.25 1.18,2.12 0,0.8 -0.52,1.34 -1.17,1.34 -0.54,0 -1.05,-0.31 -1.45,-0.65 -0.9,-0.78 -1.17,-1.14 -1.57,-2.82 z" style="fill:#000000;stroke-width:0" /></g>  <g style="font-style:normal;font-variant:normal;font-weight:normal;font-stretch:normal;letter-spacing:normal;word-spacing:normal;text-anchor:start;fill:none;fill-opacity:1;fill-rule:evenodd;stroke:#000000;stroke-linecap:butt;stroke-linejoin:miter;stroke-miterlimit:10.43299961;stroke-dasharray:none;stroke-dashoffset:0;stroke-opacity:1" id="g4579" transform="matrix(2,0,0,-2,-214.37161,1153.3568)" xml:space="preserve" stroke-miterlimit="10.433" font-style="normal" font-variant="normal" font-weight="normal" font-stretch="normal" font-size-adjust="none" letter-spacing="normal" word-spacing="normal" ns0:text="$\\gamma$" ns0:preamble="/Users/ABaker/cmep/Inkscape/underground-inkscape-preamble.tex"><path style="fill:#000000;stroke-width:0" d="m 228.84,482.29 -1.06,0 -2.12,-3.47 c 0.04,0.55 0.17,1.38 0.17,2.11 0,0.83 -0.15,1.51 -0.78,1.51 -0.6,0 -0.99,-0.87 -1.2,-1.63 l 0.18,0 c 0.24,0.65 0.45,0.88 0.67,0.88 0.67,0 0.68,-1.21 0.68,-1.63 0,-0.65 -0.03,-1.31 -0.15,-2.15 -0.43,-0.86 -1.13,-1.41 -1.13,-2.36 0,-0.29 0.15,-0.52 0.43,-0.52 0.47,0 0.8,0.51 0.98,1.37 0.09,0.49 0.13,0.88 0.19,1.51 z" id="path4581" /></g></svg>