<?xml version='1.0' ?><svg xmlns:ns0="http://www.iki.fi/pav/software/textext/" xmlns:dc="http://purl.org/dc/elements/1.1/" xmlns:cc="http://creativecommons.org/ns#" xmlns:rdf="http://www.w3.org/1999/02/22-rdf-syntax-ns#" xmlns:svg="http://www.w3.org/2000/svg" xmlns="http://www.w3.org/2000/svg" id="svg2" version="1.1" width="370.14637" height="275.50915" viewBox="13.915000093645485 13.647319183946488 497.65498575250837 370.41698428093645" preserveAspectRatio="none">
  <metadata id="metadata144">
    <rdf:RDF>
      <cc:Work rdf:about="">
        <dc:format>image/svg+xml</dc:format>
        <dc:type rdf:resource="http://purl.org/dc/dcmitype/StillImage" />
      </cc:Work>
    </rdf:RDF>
  </metadata>
  <defs id="defs142" />
  <title id="title4" />
  <g stroke-linejoin="miter" stroke-dashoffset="0.0000" stroke-dasharray="none" stroke-width="1.0000" stroke-miterlimit="10.000" stroke-linecap="square" id="g6">
    <g id="misc" />
    <g id="layer0">
      <clipPath id="clip1">
        <path d="M 0.0000 0.0000 L 0.0000 392.00 L 536.00 392.00 L 536.00 0.0000 z" id="path11" />
      </clipPath>
      <g clip-path="url(#clip1)" id="g13">
        <g stroke-linejoin="round" stroke-dasharray="5.0000,4.0000" stroke-linecap="butt" fill="none" stroke-opacity="1.0000" stroke="#000000" id="g15">
          <path d="M 262.24 13.353 L 262.24 383.77" id="path17" />
          <title id="title19">Segment f</title>
          <desc id="desc21">Segment f: Segment [B, C]</desc>
        </g>
      </g>
      <clipPath id="clip2">
        <path d="M 0.0000 0.0000 L 0.0000 392.00 L 536.00 392.00 L 536.00 0.0000 z" id="path24" />
      </clipPath>
      <g clip-path="url(#clip2)" id="g26">
        <g stroke-linejoin="round" stroke-dasharray="5.0000,4.0000" stroke-linecap="butt" fill="none" stroke-opacity="1.0000" stroke="#000000" id="g28">
          <path d="M 13.915 199.39 L 510.57 199.39" id="path30" />
          <title id="title32">Segment g</title>
          <desc id="desc34">Segment g: Segment [A, D]</desc>
        </g>
      </g>
      <clipPath id="clip3">
        <path d="M 0.0000 0.0000 L 0.0000 392.00 L 536.00 392.00 L 536.00 0.0000 z" id="path37" />
      </clipPath>
      <g clip-path="url(#clip3)" id="g39">
        <g stroke-linejoin="round" stroke-dasharray="10.000,8.0000" stroke-width="2.0000" stroke-linecap="butt" fill="none" stroke-opacity="1.0000" stroke="#000000" id="g41">
          <path d="M 75.997 199.39 L 75.997 75.225" id="path43" />
          <title id="title45">Segment k</title>
          <desc id="desc47">Segment k: Segment [H, G]</desc>
        </g>
      </g>
      <clipPath id="clip4">
        <path d="M 0.0000 0.0000 L 0.0000 392.00 L 536.00 392.00 L 536.00 0.0000 z" id="path50" />
      </clipPath>
      <g clip-path="url(#clip4)" id="g52">
        <g stroke-linejoin="round" stroke-dasharray="10.000,8.0000" stroke-width="2.0000" stroke-linecap="butt" fill="none" stroke-opacity="1.0000" stroke="#000000" id="g54">
          <path d="M 75.997 199.39 L 262.24 199.39" id="path56" />
          <title id="title58">Segment l</title>
          <desc id="desc60">Segment l: Segment [H, E]</desc>
        </g>
      </g>
      <clipPath id="clip5">
        <path d="M 0.0000 0.0000 L 0.0000 392.00 L 536.00 392.00 L 536.00 0.0000 z" id="path63" />
      </clipPath>
      <g clip-path="url(#clip5)" id="g65">
        <g stroke-linejoin="round" stroke-dasharray="10.000,8.0000" stroke-width="2.0000" stroke-linecap="butt" fill="none" stroke-opacity="1.0000" stroke="#000000" id="g67">
          <path d="M 262.24 199.39 L 510.57 199.39" id="path69" />
          <title id="title71">Segment m</title>
          <desc id="desc73">Segment m: Segment [E, J]</desc>
        </g>
      </g>
      <clipPath id="clip6">
        <path d="M 0.0000 0.0000 L 0.0000 392.00 L 536.00 392.00 L 536.00 0.0000 z" id="path76" />
      </clipPath>
      <g clip-path="url(#clip6)" id="g78">
        <g stroke-linejoin="round" stroke-dasharray="10.000,8.0000" stroke-width="2.0000" stroke-linecap="butt" fill="none" stroke-opacity="1.0000" stroke="#000000" id="g80">
          <path d="M 510.57 199.39 L 510.57 137.31" id="path82" />
          <title id="title84">Segment n</title>
          <desc id="desc86">Segment n: Segment [J, I]</desc>
        </g>
      </g>
      <clipPath id="clip7">
        <path d="M 0.0000 0.0000 L 0.0000 392.00 L 536.00 392.00 L 536.00 0.0000 z" id="path89" />
      </clipPath>
      <g clip-path="url(#clip7)" id="g91">
        <g stroke-linejoin="round" stroke-width="3.0000" stroke-linecap="round" fill="none" stroke-opacity="1.0000" stroke="#000000" id="g93">
          <path d="M 262.24 199.39 L 90.974 85.210" id="path95" />
          <title id="title97">Vector v</title>
          <desc id="desc99">Vector v: Vector[(0, 0), (-3, 2)]</desc>
        </g>
      </g>
      <clipPath id="clip8">
        <path d="M 0.0000 0.0000 L 0.0000 392.00 L 536.00 392.00 L 536.00 0.0000 z" id="path102" />
      </clipPath>
      <g clip-path="url(#clip8)" id="g104">
        <g fill-opacity="1.0000" fill-rule="evenodd" stroke="none" fill="#000000" id="g106">
          <path d="M 75.997 75.225 L 93.470 81.466 L 88.477 88.954 z" id="path108" />
          <title id="title110">Vector v</title>
          <desc id="desc112">Vector v: Vector[(0, 0), (-3, 2)]</desc>
        </g>
      </g>
      <clipPath id="clip9">
        <path d="M 0.0000 0.0000 L 0.0000 392.00 L 536.00 392.00 L 536.00 0.0000 z" id="path115" />
      </clipPath>
      <g clip-path="url(#clip9)" id="g117">
        <g stroke-linejoin="round" stroke-width="3.0000" stroke-linecap="round" fill="none" stroke-opacity="1.0000" stroke="#000000" id="g119">
          <path d="M 262.24 199.39 L 493.10 141.67" id="path121" />
          <title id="title123">Vector u</title>
          <desc id="desc125">Vector u: Vector[(0, 0), (4, 1)]</desc>
        </g>
      </g>
      <clipPath id="clip10">
        <path d="M 0.0000 0.0000 L 0.0000 392.00 L 536.00 392.00 L 536.00 0.0000 z" id="path128" />
      </clipPath>
      <g clip-path="url(#clip10)" id="g130">
        <g fill-opacity="1.0000" fill-rule="evenodd" stroke="none" fill="#000000" id="g132">
          <path d="M 510.57 137.31 L 494.19 146.04 L 492.01 137.31 z" id="path134" />
          <title id="title136">Vector u</title>
          <desc id="desc138">Vector u: Vector[(0, 0), (4, 1)]</desc>
        </g>
      </g>
    </g>
  </g>
  <g style="font-style:normal;font-variant:normal;font-weight:normal;font-stretch:normal;letter-spacing:normal;word-spacing:normal;text-anchor:start;fill:none;fill-opacity:1;fill-rule:evenodd;stroke:#000000;stroke-linecap:butt;stroke-linejoin:miter;stroke-miterlimit:10.43299961;stroke-dasharray:none;stroke-dashoffset:0;stroke-opacity:1" ns0:preamble="/Users/ABaker/cmep/Inkscape/underground-inkscape-preamble.tex" ns0:text="$\\quantity{-3\\mathbf{i} + 2\\mathbf{j}}{N}$" word-spacing="normal" letter-spacing="normal" font-size-adjust="none" font-stretch="normal" font-weight="normal" font-variant="normal" font-style="normal" stroke-miterlimit="10.433" xml:space="preserve" transform="matrix(2,0,0,-2,-317.02497,1060.2323)" id="content"><polygon id="polygon3731" points="230.76,480.61 224.19,480.61 224.19,479.83 230.76,479.83 " style="fill:#000000;stroke-width:0" /><path id="path3733" d="m 232.27,483.26 0.04,0.08 0.05,0.07 0.05,0.08 0.04,0.07 0.05,0.07 0.05,0.07 0.05,0.06 0.04,0.06 0.05,0.06 0.05,0.05 0.05,0.06 0.05,0.05 0.06,0.04 0.05,0.05 0.05,0.04 0.05,0.04 0.06,0.04 0.05,0.03 0.06,0.03 0.06,0.03 0.05,0.03 0.06,0.02 0.06,0.03 0.06,0.02 0.06,0.01 0.06,0.02 0.07,0.01 0.06,0.01 0.07,0.01 0.06,0 0.07,0.01 0.07,0 c 0.78,0 1.27,-0.4 1.27,-1.21 0,-0.72 -0.38,-1.25 -0.95,-1.58 -0.24,-0.14 -0.55,-0.27 -1,-0.42 l 0,-0.17 c 0.68,0 0.95,-0.03 1.21,-0.12 0.81,-0.23 1.23,-0.81 1.23,-1.71 0,-1 -0.67,-1.81 -1.54,-1.81 -0.33,0 -0.58,0.06 -1.01,0.37 -0.33,0.24 -0.52,0.31 -0.72,0.31 -0.28,0 -0.49,-0.18 -0.49,-0.43 0,-0.42 0.46,-0.67 1.32,-0.67 1.05,0 2.18,0.34 2.74,1.1 0.35,0.45 0.55,1.03 0.55,1.65 0,0.61 -0.19,1.16 -0.52,1.52 -0.25,0.26 -0.46,0.4 -0.98,0.63 0.79,0.47 1.1,1.06 1.1,1.63 0,0.97 -0.75,1.62 -1.85,1.62 -1.23,0 -1.97,-0.8 -2.31,-1.92 z" style="fill:#000000;stroke-width:0" /><path id="path3735" d="m 240.01,484.47 0,0.05 0,0.05 -0.01,0.04 -0.01,0.05 -0.01,0.04 -0.01,0.05 -0.01,0.04 -0.02,0.04 -0.02,0.04 -0.02,0.04 -0.02,0.04 -0.02,0.04 -0.03,0.03 -0.02,0.04 -0.03,0.03 -0.03,0.03 -0.03,0.03 -0.04,0.03 -0.03,0.03 -0.04,0.03 -0.03,0.02 -0.04,0.02 -0.04,0.02 -0.04,0.02 -0.04,0.02 -0.04,0.01 -0.04,0.01 -0.05,0.01 -0.04,0.01 -0.05,0.01 -0.04,0 -0.05,0 c -0.53,0 -0.93,-0.4 -0.93,-0.92 0,-0.52 0.39,-0.91 0.91,-0.91 0.52,0 0.92,0.39 0.92,0.91 z" style="fill:#000000;stroke-width:0" /><path id="path3737" d="m 240.49,477.23 0,0.29 c -0.41,0.06 -0.56,0.21 -0.56,0.72 l 0,4.44 -2.28,0 0,-0.29 c 0.52,-0.1 0.64,-0.22 0.64,-0.75 l 0,-3.37 c 0,-0.54 -0.09,-0.62 -0.63,-0.75 l 0,-0.29 z" style="fill:#000000;stroke-width:0" /><polygon id="polygon3739" points="250.48,480.61 247.4,480.61 247.4,483.69 246.62,483.69 246.62,480.61 243.54,480.61 243.54,479.83 246.62,479.83 246.62,476.75 247.4,476.75 247.4,479.83 250.48,479.83 " style="fill:#000000;stroke-width:0" /><path id="path3741" d="m 258.9,478.85 -0.17,0.07 c -0.39,-0.66 -0.64,-0.79 -1.13,-0.79 l -2.76,0 1.94,2.08 c 1.05,1.11 1.52,1.99 1.52,2.93 0,1.17 -0.85,2.08 -2.19,2.08 -1.45,0 -2.21,-0.97 -2.46,-2.35 l 0.25,-0.06 c 0.48,1.15 0.89,1.53 1.74,1.53 1,0 1.64,-0.59 1.64,-1.66 0,-1.01 -0.43,-1.9 -1.54,-3.07 l -2.1,-2.23 0,-0.15 4.62,0 z" style="fill:#000000;stroke-width:0" /><path id="path3743" d="m 262.33,484.47 0,0.05 0,0.04 -0.01,0.05 -0.01,0.04 -0.01,0.05 -0.01,0.04 -0.02,0.04 -0.01,0.05 -0.02,0.04 -0.02,0.04 -0.02,0.03 -0.03,0.04 -0.02,0.04 -0.03,0.03 -0.03,0.04 -0.03,0.03 -0.03,0.03 -0.03,0.03 -0.04,0.03 -0.03,0.02 -0.04,0.03 -0.04,0.02 -0.04,0.02 -0.04,0.02 -0.04,0.02 -0.04,0.01 -0.04,0.01 -0.05,0.01 -0.04,0.01 -0.05,0.01 -0.04,0 -0.05,0 c -0.52,0 -0.92,-0.4 -0.92,-0.92 0,-0.52 0.38,-0.91 0.9,-0.91 0.53,0 0.93,0.39 0.93,0.91 z" style="fill:#000000;stroke-width:0" /><path id="path3745" d="m 262.29,482.68 -2.38,0 0,-0.29 c 0.6,-0.04 0.74,-0.19 0.74,-0.69 l 0,-5.6 c 0,-0.62 -0.16,-0.9 -0.56,-0.9 -0.23,0 -0.38,0.09 -0.38,0.2 0,0.06 0.03,0.15 0.11,0.27 0.11,0.17 0.16,0.31 0.16,0.43 0,0.36 -0.31,0.64 -0.7,0.64 -0.43,0 -0.73,-0.3 -0.73,-0.72 0,-0.7 0.69,-1.18 1.65,-1.18 0.82,0 1.44,0.32 1.78,0.9 0.22,0.37 0.31,0.82 0.31,1.52 z" style="fill:#000000;stroke-width:0" /><path id="path3747" d="m 273.18,485.05 -2.8,0 0,-0.22 c 0.52,-0.06 0.73,-0.09 0.93,-0.31 0.18,-0.2 0.23,-0.56 0.23,-1.16 l 0,-4.01 -4.56,5.7 -2.01,0 0,-0.22 c 0.58,0 0.76,-0.15 1.15,-0.63 l 0,-5.19 c 0,-1.27 -0.18,-1.44 -1.15,-1.55 l 0,-0.23 2.76,0 0,0.23 c -0.91,0.13 -1.09,0.33 -1.09,1.55 l 0,4.58 5.2,-6.48 0.21,0 0,6.11 c 0,0.93 0.12,1.19 0.35,1.39 0.15,0.13 0.33,0.17 0.78,0.22 z" style="fill:#000000;stroke-width:0" /></g>  <g style="font-style:normal;font-variant:normal;font-weight:normal;font-stretch:normal;letter-spacing:normal;word-spacing:normal;text-anchor:start;fill:none;fill-opacity:1;fill-rule:evenodd;stroke:#000000;stroke-linecap:butt;stroke-linejoin:miter;stroke-miterlimit:10.43299961;stroke-dasharray:none;stroke-dashoffset:0;stroke-opacity:1" id="g3923" transform="matrix(2,0,0,-2,-104.84597,1107.6466)" xml:space="preserve" stroke-miterlimit="10.433" font-style="normal" font-variant="normal" font-weight="normal" font-stretch="normal" font-size-adjust="none" letter-spacing="normal" word-spacing="normal" ns0:text="$\\quantity{4\\mathbf{i}+\\mathbf{j}}{N}$" ns0:preamble="/Users/ABaker/cmep/Inkscape/underground-inkscape-preamble.tex"><polygon style="fill:#000000;stroke-width:0" points="229.02,479.96 227.8,479.96 227.8,485.22 227.28,485.22 223.57,479.96 224.05,479.96 226.88,484.01 226.88,479.96 224.05,479.96 223.57,479.96 223.57,479.21 226.88,479.21 226.88,477.23 227.8,477.23 227.8,479.21 229.02,479.21 " id="polygon3925" /><path style="fill:#000000;stroke-width:0" d="m 231.89,484.47 0,0.05 0,0.05 -0.01,0.04 0,0.05 -0.01,0.04 -0.02,0.05 -0.01,0.04 -0.02,0.04 -0.01,0.04 -0.02,0.04 -0.03,0.04 -0.02,0.04 -0.02,0.03 -0.03,0.04 -0.03,0.03 -0.03,0.03 -0.03,0.03 -0.03,0.03 -0.04,0.03 -0.03,0.03 -0.04,0.02 -0.04,0.02 -0.03,0.02 -0.04,0.02 -0.04,0.02 -0.05,0.01 -0.04,0.01 -0.04,0.01 -0.05,0.01 -0.04,0.01 -0.05,0 -0.04,0 c -0.53,0 -0.94,-0.4 -0.94,-0.92 0,-0.52 0.39,-0.91 0.91,-0.91 0.52,0 0.92,0.39 0.92,0.91 z" id="path3927" /><path style="fill:#000000;stroke-width:0" d="m 232.38,477.23 0,0.29 c -0.42,0.06 -0.57,0.21 -0.57,0.72 l 0,4.44 -2.28,0 0,-0.29 c 0.52,-0.1 0.64,-0.22 0.64,-0.75 l 0,-3.37 c 0,-0.54 -0.08,-0.62 -0.63,-0.75 l 0,-0.29 z" id="path3929" /><polygon style="fill:#000000;stroke-width:0" points="242.36,480.61 239.28,480.61 239.28,483.69 238.5,483.69 238.5,480.61 235.42,480.61 235.42,479.83 238.5,479.83 238.5,476.75 239.28,476.75 239.28,479.83 242.36,479.83 " id="polygon3931" /><path style="fill:#000000;stroke-width:0" d="m 248.29,484.47 0,0.05 0,0.04 -0.01,0.05 -0.01,0.04 -0.01,0.05 -0.01,0.04 -0.02,0.04 -0.01,0.05 -0.02,0.04 -0.02,0.04 -0.02,0.03 -0.03,0.04 -0.02,0.04 -0.03,0.03 -0.03,0.04 -0.03,0.03 -0.03,0.03 -0.03,0.03 -0.04,0.03 -0.03,0.02 -0.04,0.03 -0.04,0.02 -0.04,0.02 -0.04,0.02 -0.04,0.02 -0.04,0.01 -0.04,0.01 -0.05,0.01 -0.04,0.01 -0.05,0.01 -0.04,0 -0.05,0 c -0.52,0 -0.92,-0.4 -0.92,-0.92 0,-0.52 0.38,-0.91 0.9,-0.91 0.53,0 0.93,0.39 0.93,0.91 z" id="path3933" /><path style="fill:#000000;stroke-width:0" d="m 248.25,482.68 -2.38,0 0,-0.29 c 0.6,-0.04 0.74,-0.19 0.74,-0.69 l 0,-5.6 c 0,-0.62 -0.16,-0.9 -0.56,-0.9 -0.23,0 -0.38,0.09 -0.38,0.2 0,0.06 0.03,0.15 0.1,0.27 0.12,0.17 0.17,0.31 0.17,0.43 0,0.36 -0.31,0.64 -0.7,0.64 -0.43,0 -0.73,-0.3 -0.73,-0.72 0,-0.7 0.69,-1.18 1.65,-1.18 0.82,0 1.44,0.32 1.78,0.9 0.22,0.37 0.31,0.82 0.31,1.52 z" id="path3935" /><path style="fill:#000000;stroke-width:0" d="m 259.14,485.05 -2.8,0 0,-0.22 c 0.52,-0.06 0.73,-0.09 0.93,-0.31 0.18,-0.2 0.22,-0.56 0.22,-1.16 l 0,-4.01 -4.55,5.7 -2.01,0 0,-0.22 c 0.58,0 0.76,-0.15 1.15,-0.63 l 0,-5.19 c 0,-1.27 -0.18,-1.44 -1.15,-1.55 l 0,-0.23 2.76,0 0,0.23 c -0.91,0.13 -1.09,0.33 -1.09,1.55 l 0,4.58 5.2,-6.48 0.21,0 0,6.11 c 0,0.93 0.12,1.19 0.35,1.39 0.15,0.13 0.33,0.17 0.78,0.22 z" id="path3937" /></g></svg>