<?xml version='1.0' ?><svg xmlns:ns0="http://www.iki.fi/pav/software/textext/" xmlns:dc="http://purl.org/dc/elements/1.1/" xmlns:cc="http://creativecommons.org/ns#" xmlns:rdf="http://www.w3.org/1999/02/22-rdf-syntax-ns#" xmlns:svg="http://www.w3.org/2000/svg" xmlns="http://www.w3.org/2000/svg" id="svg2" version="1.1" width="340.9671" height="328.62744" viewBox="30.861998804347824 20.66882025250836 343.8179954849498 331.37516107023407" preserveAspectRatio="none">
  <metadata id="metadata170">
    <rdf:RDF>
      <cc:Work rdf:about="">
        <dc:format>image/svg+xml</dc:format>
        <dc:type rdf:resource="http://purl.org/dc/dcmitype/StillImage" />
      </cc:Work>
    </rdf:RDF>
  </metadata>
  <defs id="defs168" />
  <title id="title4" />
  <g id="g6" stroke-linecap="square" stroke-miterlimit="10.000" stroke-width="1.0000" stroke-dasharray="none" stroke-dashoffset="0.0000" stroke-linejoin="miter">
    <g id="misc" />
    <g id="layer0">
      <clipPath id="clip1">
        <path id="path11" d="M 0.0000 0.0000 L 0.0000 368.00 L 402.00 368.00 L 402.00 0.0000 z" />
      </clipPath>
      <g id="g13" clip-path="url(#clip1)">
        <g id="g15" stroke="#000000" stroke-opacity="1.0000" fill="none" stroke-linecap="round" stroke-linejoin="round">
          <path id="path17" d="M 232.84 181.81 C 232.84 175.47 230.84 169.30 227.12 164.18 L 202.84 181.81 z" />
          <title id="title19">Angle Ã&#131;Â&#142;Ã&#130;Â±</title>
          <desc id="desc21">Angle Ã&#131;Â&#142;Ã&#130;Â±: Angle between E, A, B</desc>
        </g>
      </g>
      <clipPath id="clip2">
        <path id="path24" d="M 0.0000 0.0000 L 0.0000 368.00 L 402.00 368.00 L 402.00 0.0000 z" />
      </clipPath>
      <g id="g26" clip-path="url(#clip2)">
        <g id="g28" stroke="#000000" stroke-opacity="1.0000" fill="none" stroke-linecap="round" stroke-linejoin="round">
          <path id="path30" d="M 180.72 161.54 C 175.66 167.07 172.84 174.30 172.84 181.81 L 202.84 181.81 z" />
          <title id="title32">Angle Ã&#131;Â&#142;Ã&#130;Â´</title>
          <desc id="desc34">Angle Ã&#131;Â&#142;Ã&#130;Â´: Angle between L, A, D</desc>
        </g>
      </g>
      <clipPath id="clip3">
        <path id="path37" d="M 0.0000 0.0000 L 0.0000 368.00 L 402.00 368.00 L 402.00 0.0000 z" />
      </clipPath>
      <g id="g39" clip-path="url(#clip3)">
        <g id="g41" stroke="#000000" stroke-opacity="1.0000" fill="none" stroke-linecap="butt" stroke-dasharray="5.0000,4.0000" stroke-linejoin="round">
          <path id="path43" d="M 203.54 181.81 L 202.84 20.477" />
          <title id="title45">Segment n</title>
          <desc id="desc47">Segment n: Segment [I, F]</desc>
        </g>
      </g>
      <clipPath id="clip4">
        <path id="path50" d="M 0.0000 0.0000 L 0.0000 368.00 L 402.00 368.00 L 402.00 0.0000 z" />
      </clipPath>
      <g id="g52" clip-path="url(#clip4)">
        <g id="g54" stroke="#000000" stroke-opacity="1.0000" fill="none" stroke-linecap="butt" stroke-dasharray="5.0000,4.0000" stroke-linejoin="round">
          <path id="path56" d="M 203.54 181.81 L 374.68 181.81" />
          <title id="title58">Segment p</title>
          <desc id="desc60">Segment p: Segment [I, K]</desc>
        </g>
      </g>
      <clipPath id="clip5">
        <path id="path63" d="M 0.0000 0.0000 L 0.0000 368.00 L 402.00 368.00 L 402.00 0.0000 z" />
      </clipPath>
      <g id="g65" clip-path="url(#clip5)">
        <g id="g67" stroke="#000000" stroke-opacity="1.0000" fill="none" stroke-linecap="butt" stroke-dasharray="5.0000,4.0000" stroke-linejoin="round">
          <path id="path69" d="M 202.84 181.81 L 70.900 60.900" />
          <title id="title71">Segment q</title>
          <desc id="desc73">Segment q: Segment [A, L]</desc>
        </g>
      </g>
      <clipPath id="clip6">
        <path id="path76" d="M 0.0000 0.0000 L 0.0000 368.00 L 402.00 368.00 L 402.00 0.0000 z" />
      </clipPath>
      <g id="g78" clip-path="url(#clip6)">
        <g id="g80" stroke="#000000" stroke-opacity="1.0000" fill="none" stroke-linecap="butt" stroke-dasharray="5.0000,4.0000" stroke-linejoin="round">
          <path id="path82" d="M 30.862 181.81 L 202.84 181.81" />
          <title id="title84">Segment r</title>
          <desc id="desc86">Segment r: Segment [D, A]</desc>
        </g>
      </g>
      <clipPath id="clip7">
        <path id="path89" d="M 0.0000 0.0000 L 0.0000 368.00 L 402.00 368.00 L 402.00 0.0000 z" />
      </clipPath>
      <g id="g91" clip-path="url(#clip7)">
        <g id="g93" stroke="#000000" stroke-opacity="1.0000" fill="none" stroke-linecap="round" stroke-width="3.0000" stroke-linejoin="round">
          <path id="path95" d="M 202.84 181.81 L 318.85 97.550" />
          <title id="title97">Vector u</title>
          <desc id="desc99">Vector u: Vector[A, B]</desc>
        </g>
      </g>
      <clipPath id="clip8">
        <path id="path102" d="M 0.0000 0.0000 L 0.0000 368.00 L 402.00 368.00 L 402.00 0.0000 z" />
      </clipPath>
      <g id="g104" clip-path="url(#clip8)">
        <g id="g106" fill="#000000" stroke="none" fill-rule="evenodd" fill-opacity="1.0000">
          <path id="path108" d="M 333.42 86.973 L 321.50 101.19 L 316.21 93.909 z" />
          <title id="title110">Vector u</title>
          <desc id="desc112">Vector u: Vector[A, B]</desc>
        </g>
      </g>
      <clipPath id="clip9">
        <path id="path115" d="M 0.0000 0.0000 L 0.0000 368.00 L 402.00 368.00 L 402.00 0.0000 z" />
      </clipPath>
      <g id="g117" clip-path="url(#clip9)">
        <g id="g119" stroke="#000000" stroke-opacity="1.0000" fill="none" stroke-linecap="round" stroke-width="3.0000" stroke-linejoin="round">
          <path id="path121" d="M 202.84 181.81 L 202.84 333.85" />
          <title id="title123">Vector v</title>
          <desc id="desc125">Vector v: Vector[A, C]</desc>
        </g>
      </g>
      <clipPath id="clip10">
        <path id="path128" d="M 0.0000 0.0000 L 0.0000 368.00 L 402.00 368.00 L 402.00 0.0000 z" />
      </clipPath>
      <g id="g130" clip-path="url(#clip10)">
        <g id="g132" fill="#000000" stroke="none" fill-rule="evenodd" fill-opacity="1.0000">
          <path id="path134" d="M 202.84 351.85 L 198.34 333.85 L 207.34 333.85 z" />
          <title id="title136">Vector v</title>
          <desc id="desc138">Vector v: Vector[A, C]</desc>
        </g>
      </g>
      <clipPath id="clip11">
        <path id="path141" d="M 0.0000 0.0000 L 0.0000 368.00 L 402.00 368.00 L 402.00 0.0000 z" />
      </clipPath>
      <g id="g143" clip-path="url(#clip11)">
        <g id="g145" stroke="#000000" stroke-opacity="1.0000" fill="none" stroke-linecap="round" stroke-width="3.0000" stroke-linejoin="round">
          <path id="path147" d="M 202.84 181.81 L 84.171 73.061" />
          <title id="title149">Vector b</title>
          <desc id="desc151">Vector b: Vector[A, L]</desc>
        </g>
      </g>
      <clipPath id="clip12">
        <path id="path154" d="M 0.0000 0.0000 L 0.0000 368.00 L 402.00 368.00 L 402.00 0.0000 z" />
      </clipPath>
      <g id="g156" clip-path="url(#clip12)">
        <g id="g158" fill="#000000" stroke="none" fill-rule="evenodd" fill-opacity="1.0000">
          <path id="path160" d="M 70.900 60.900 L 87.211 69.743 L 81.131 76.379 z" />
          <title id="title162">Vector b</title>
          <desc id="desc164">Vector b: Vector[A, L]</desc>
        </g>
      </g>
    </g>
  </g>
  <g ns0:preamble="/Users/ABaker/cmep/Inkscape/underground-inkscape-preamble.tex" ns0:text="$\\quantity{20}{N}$" word-spacing="normal" letter-spacing="normal" font-size-adjust="none" font-stretch="normal" font-weight="normal" font-variant="normal" font-style="normal" stroke-miterlimit="10.433" xml:space="preserve" transform="matrix(2.035443,0,0,-2.0354429,-214.34339,1088.6503)" id="content" style="font-style:normal;font-variant:normal;font-weight:normal;font-stretch:normal;letter-spacing:normal;word-spacing:normal;text-anchor:start;fill:none;fill-opacity:1;fill-rule:evenodd;stroke:#000000;stroke-linecap:butt;stroke-linejoin:miter;stroke-miterlimit:10.43299961;stroke-dasharray:none;stroke-dashoffset:0;stroke-opacity:1"><path id="path3502" d="m 229.03,478.85 -0.17,0.07 c -0.39,-0.66 -0.63,-0.79 -1.13,-0.79 l -2.76,0 1.94,2.08 c 1.06,1.11 1.52,1.99 1.52,2.93 0,1.17 -0.85,2.08 -2.19,2.08 -1.45,0 -2.21,-0.97 -2.45,-2.35 l 0.24,-0.06 c 0.48,1.15 0.89,1.53 1.74,1.53 1,0 1.64,-0.59 1.64,-1.66 0,-1.01 -0.42,-1.9 -1.53,-3.07 l -2.11,-2.23 0,-0.15 4.62,0 z" style="fill:#000000;stroke-width:0" /><path id="path3504" d="m 234.98,481.13 -0.01,0.23 -0.01,0.22 -0.01,0.21 -0.02,0.21 -0.03,0.21 -0.03,0.2 -0.04,0.19 -0.05,0.19 -0.05,0.18 -0.05,0.18 -0.06,0.17 -0.07,0.17 -0.07,0.16 -0.07,0.15 -0.08,0.14 -0.08,0.14 -0.09,0.13 -0.1,0.13 -0.09,0.11 -0.11,0.11 -0.1,0.1 -0.11,0.1 -0.12,0.08 -0.11,0.08 -0.12,0.07 -0.13,0.06 -0.13,0.05 -0.13,0.04 -0.13,0.03 -0.14,0.03 -0.14,0.01 -0.15,0.01 c -1.9,0 -2.71,-1.93 -2.71,-4.02 0,-1.93 0.65,-4.13 2.67,-4.13 l 0,0.31 c -1.02,0 -1.54,1.34 -1.54,3.74 0,2.4 0.53,3.79 1.51,3.79 1.04,0 1.56,-1.38 1.56,-3.84 l 0,0 c 0,-2.34 -0.53,-3.69 -1.53,-3.69 l 0,-0.31 c 1.92,0 2.67,2.03 2.67,4.06 z" style="fill:#000000;stroke-width:0" /><path id="path3506" d="m 245.29,485.05 -2.8,0 0,-0.22 c 0.52,-0.06 0.73,-0.09 0.93,-0.31 0.18,-0.2 0.23,-0.56 0.23,-1.16 l 0,-4.01 -4.56,5.7 -2.01,0 0,-0.22 c 0.58,0 0.76,-0.15 1.15,-0.63 l 0,-5.19 c 0,-1.27 -0.18,-1.44 -1.15,-1.55 l 0,-0.23 2.76,0 0,0.23 c -0.91,0.13 -1.1,0.33 -1.1,1.55 l 0,4.58 5.21,-6.48 0.21,0 0,6.11 c 0,0.93 0.12,1.19 0.35,1.39 0.15,0.13 0.33,0.17 0.78,0.22 z" style="fill:#000000;stroke-width:0" /></g>  <g style="font-style:normal;font-variant:normal;font-weight:normal;font-stretch:normal;letter-spacing:normal;word-spacing:normal;text-anchor:start;fill:none;fill-opacity:1;fill-rule:evenodd;stroke:#000000;stroke-linecap:butt;stroke-linejoin:miter;stroke-miterlimit:10.43299961;stroke-dasharray:none;stroke-dashoffset:0;stroke-opacity:1" id="g3681" transform="matrix(2.035443,0,0,-2.0354429,-303.55313,1255.8611)" xml:space="preserve" stroke-miterlimit="10.433" font-style="normal" font-variant="normal" font-weight="normal" font-stretch="normal" font-size-adjust="none" letter-spacing="normal" word-spacing="normal" ns0:text="$\\quantity{35}{N}$" ns0:preamble="/Users/ABaker/cmep/Inkscape/underground-inkscape-preamble.tex"><path style="fill:#000000;stroke-width:0" d="m 224.15,483.26 0.05,0.08 0.04,0.07 0.05,0.08 0.05,0.07 0.04,0.07 0.05,0.07 0.05,0.06 0.05,0.06 0.05,0.06 0.05,0.05 0.05,0.06 0.05,0.05 0.05,0.04 0.05,0.05 0.05,0.04 0.06,0.04 0.05,0.04 0.06,0.03 0.05,0.03 0.06,0.03 0.06,0.03 0.06,0.02 0.06,0.03 0.06,0.02 0.06,0.01 0.06,0.02 0.06,0.01 0.07,0.01 0.06,0.01 0.07,0 0.06,0.01 0.07,0 c 0.78,0 1.28,-0.4 1.28,-1.21 0,-0.72 -0.38,-1.25 -0.96,-1.58 -0.24,-0.14 -0.54,-0.27 -0.99,-0.42 l 0,-0.17 c 0.67,0 0.94,-0.03 1.2,-0.12 0.82,-0.23 1.23,-0.81 1.23,-1.71 0,-1 -0.66,-1.81 -1.53,-1.81 -0.34,0 -0.58,0.06 -1.02,0.37 -0.33,0.24 -0.52,0.31 -0.72,0.31 -0.27,0 -0.48,-0.18 -0.48,-0.43 0,-0.42 0.46,-0.67 1.32,-0.67 1.05,0 2.17,0.34 2.74,1.1 0.34,0.45 0.54,1.03 0.54,1.65 0,0.61 -0.19,1.16 -0.52,1.52 -0.25,0.26 -0.46,0.4 -0.98,0.63 0.79,0.47 1.1,1.06 1.1,1.63 0,0.97 -0.74,1.62 -1.84,1.62 -1.23,0 -1.97,-0.8 -2.32,-1.92 z" id="path3683" /><path style="fill:#000000;stroke-width:0" d="m 234.53,485.27 -0.11,0.09 c -0.19,-0.25 -0.29,-0.31 -0.57,-0.31 l -2.44,0 -1.29,-2.8 c 0,0 -0.01,-0.03 -0.01,-0.06 0,-0.07 0.04,-0.09 0.14,-0.09 1.14,0 1.96,-0.38 2.52,-0.83 0.53,-0.42 0.79,-1.01 0.79,-1.77 0,-1.01 -0.77,-1.99 -1.6,-1.99 -0.23,0 -0.5,0.1 -0.83,0.37 -0.38,0.31 -0.61,0.37 -0.88,0.37 -0.33,0 -0.53,-0.15 -0.53,-0.45 0,-0.45 0.62,-0.73 1.5,-0.73 0.8,0 1.45,0.18 2.01,0.58 0.8,0.59 1.15,1.32 1.15,2.45 0,0.63 -0.1,1.08 -0.41,1.5 -0.67,0.94 -1.26,1.2 -2.95,1.51 l 0.47,1.01 2.29,0 c 0.19,0 0.29,0.07 0.32,0.15 z" id="path3685" /><path style="fill:#000000;stroke-width:0" d="m 245.29,485.05 -2.8,0 0,-0.22 c 0.52,-0.06 0.73,-0.09 0.93,-0.31 0.18,-0.2 0.23,-0.56 0.23,-1.16 l 0,-4.01 -4.56,5.7 -2.01,0 0,-0.22 c 0.58,0 0.76,-0.15 1.15,-0.63 l 0,-5.19 c 0,-1.27 -0.18,-1.44 -1.15,-1.55 l 0,-0.23 2.76,0 0,0.23 c -0.91,0.13 -1.1,0.33 -1.1,1.55 l 0,4.58 5.21,-6.48 0.21,0 0,6.11 c 0,0.93 0.12,1.19 0.35,1.39 0.15,0.13 0.33,0.17 0.78,0.22 z" id="path3687" /></g>  <g ns0:preamble="/Users/ABaker/cmep/Inkscape/underground-inkscape-preamble.tex" ns0:text="$\\quantity{30.4}{N}$" word-spacing="normal" letter-spacing="normal" font-size-adjust="none" font-stretch="normal" font-weight="normal" font-variant="normal" font-style="normal" stroke-miterlimit="10.433" xml:space="preserve" transform="matrix(2,0,0,-2,-326.54697,1055.0393)" id="g3638" style="font-style:normal;font-variant:normal;font-weight:normal;font-stretch:normal;letter-spacing:normal;word-spacing:normal;text-anchor:start;fill:none;fill-opacity:1;fill-rule:evenodd;stroke:#000000;stroke-linecap:butt;stroke-linejoin:miter;stroke-miterlimit:10.43299961;stroke-dasharray:none;stroke-dashoffset:0;stroke-opacity:1"><path id="path3640" d="m 224.15,483.26 0.05,0.08 0.04,0.07 0.05,0.08 0.05,0.07 0.04,0.07 0.05,0.07 0.05,0.06 0.05,0.06 0.05,0.06 0.05,0.05 0.05,0.06 0.05,0.05 0.05,0.04 0.05,0.05 0.05,0.04 0.06,0.04 0.05,0.04 0.06,0.03 0.05,0.03 0.06,0.03 0.06,0.03 0.06,0.02 0.06,0.03 0.06,0.02 0.06,0.01 0.06,0.02 0.06,0.01 0.07,0.01 0.06,0.01 0.07,0 0.06,0.01 0.07,0 c 0.78,0 1.28,-0.4 1.28,-1.21 0,-0.72 -0.38,-1.25 -0.96,-1.58 -0.24,-0.14 -0.54,-0.27 -0.99,-0.42 l 0,-0.17 c 0.67,0 0.94,-0.03 1.2,-0.12 0.82,-0.23 1.23,-0.81 1.23,-1.71 0,-1 -0.66,-1.81 -1.53,-1.81 -0.34,0 -0.58,0.06 -1.02,0.37 -0.33,0.24 -0.52,0.31 -0.72,0.31 -0.27,0 -0.48,-0.18 -0.48,-0.43 0,-0.42 0.46,-0.67 1.32,-0.67 1.05,0 2.17,0.34 2.74,1.1 0.34,0.45 0.54,1.03 0.54,1.65 0,0.61 -0.19,1.16 -0.52,1.52 -0.25,0.26 -0.46,0.4 -0.98,0.63 0.79,0.47 1.1,1.06 1.1,1.63 0,0.97 -0.74,1.62 -1.84,1.62 -1.23,0 -1.97,-0.8 -2.32,-1.92 z" style="fill:#000000;stroke-width:0" /><path id="path3642" d="m 234.98,481.13 -0.01,0.23 -0.01,0.22 -0.01,0.21 -0.02,0.21 -0.03,0.21 -0.03,0.2 -0.04,0.19 -0.05,0.19 -0.05,0.18 -0.05,0.18 -0.06,0.17 -0.07,0.17 -0.07,0.16 -0.07,0.15 -0.08,0.14 -0.08,0.14 -0.09,0.13 -0.1,0.13 -0.09,0.11 -0.11,0.11 -0.1,0.1 -0.11,0.1 -0.12,0.08 -0.11,0.08 -0.12,0.07 -0.13,0.06 -0.13,0.05 -0.13,0.04 -0.13,0.03 -0.14,0.03 -0.14,0.01 -0.15,0.01 c -1.9,0 -2.71,-1.93 -2.71,-4.02 0,-1.93 0.65,-4.13 2.67,-4.13 l 0,0.31 c -1.02,0 -1.54,1.34 -1.54,3.74 0,2.4 0.53,3.79 1.51,3.79 1.04,0 1.56,-1.38 1.56,-3.84 l 0,0 c 0,-2.34 -0.53,-3.69 -1.53,-3.69 l 0,-0.31 c 1.92,0 2.67,2.03 2.67,4.06 z" style="fill:#000000;stroke-width:0" /><path id="path3644" d="m 237.42,477.74 0,0.04 -0.01,0.03 0,0.03 -0.01,0.03 0,0.04 -0.01,0.03 -0.01,0.03 -0.02,0.03 -0.01,0.03 -0.01,0.03 -0.02,0.02 -0.02,0.03 -0.02,0.03 -0.02,0.02 -0.02,0.03 -0.02,0.02 -0.02,0.02 -0.03,0.03 -0.02,0.02 -0.03,0.02 -0.02,0.01 -0.03,0.02 -0.03,0.02 -0.03,0.01 -0.03,0.01 -0.03,0.01 -0.03,0.01 -0.03,0.01 -0.03,0.01 -0.03,0 -0.03,0.01 -0.03,0 c -0.37,0 -0.66,-0.3 -0.66,-0.67 0,-0.36 0.28,-0.64 0.65,-0.64 0.35,0 0.66,0.29 0.66,0.63 z" style="fill:#000000;stroke-width:0" /><polygon id="polygon3646" points="242.61,479.96 242.61,485.22 242.09,485.22 238.38,479.96 238.86,479.96 241.69,484.01 241.69,479.96 238.86,479.96 238.38,479.96 238.38,479.21 241.69,479.21 241.69,477.23 242.61,477.23 242.61,479.21 243.83,479.21 243.83,479.96 " style="fill:#000000;stroke-width:0" /><path id="path3648" d="m 254.17,485.05 -2.8,0 0,-0.22 c 0.52,-0.06 0.73,-0.09 0.94,-0.31 0.17,-0.2 0.22,-0.56 0.22,-1.16 l 0,-4.01 -4.56,5.7 -2,0 0,-0.22 c 0.57,0 0.75,-0.15 1.14,-0.63 l 0,-5.19 c 0,-1.27 -0.18,-1.44 -1.14,-1.55 l 0,-0.23 2.76,0 0,0.23 c -0.91,0.13 -1.1,0.33 -1.1,1.55 l 0,4.58 5.21,-6.48 0.21,0 0,6.11 c 0,0.93 0.12,1.19 0.34,1.39 0.16,0.13 0.33,0.17 0.78,0.22 z" style="fill:#000000;stroke-width:0" /></g>  <g id="g3823" transform="matrix(2.2184738,0,0,-2.2313784,-372.4808,1242.9237)" xml:space="preserve" stroke-miterlimit="10.433" font-style="normal" font-variant="normal" font-weight="normal" font-stretch="normal" font-size-adjust="none" letter-spacing="normal" word-spacing="normal" ns0:text="$55.6^{\\circ}$" ns0:preamble="/Users/ABaker/cmep/Inkscape/underground-inkscape-preamble.tex" style="font-style:normal;font-variant:normal;font-weight:normal;font-stretch:normal;letter-spacing:normal;word-spacing:normal;text-anchor:start;fill:none;fill-opacity:1;fill-rule:evenodd;stroke:#000000;stroke-linecap:butt;stroke-linejoin:miter;stroke-miterlimit:10.43299961;stroke-dasharray:none;stroke-dashoffset:0;stroke-opacity:1"><path style="fill:#000000;stroke-width:0" d="m 228.6,485.27 -0.1,0.09 c -0.19,-0.25 -0.3,-0.31 -0.57,-0.31 l -2.44,0 -1.29,-2.8 c 0,0 -0.01,-0.03 -0.01,-0.06 0,-0.07 0.03,-0.09 0.14,-0.09 1.13,0 1.96,-0.38 2.51,-0.83 0.54,-0.42 0.79,-1.01 0.79,-1.77 0,-1.01 -0.76,-1.99 -1.59,-1.99 -0.24,0 -0.51,0.1 -0.84,0.37 -0.38,0.31 -0.6,0.37 -0.87,0.37 -0.33,0 -0.53,-0.15 -0.53,-0.45 0,-0.45 0.61,-0.73 1.5,-0.73 0.8,0 1.45,0.18 2,0.58 0.81,0.59 1.16,1.32 1.16,2.45 0,0.63 -0.11,1.08 -0.41,1.5 -0.67,0.94 -1.26,1.2 -2.95,1.51 l 0.47,1.01 2.29,0 c 0.19,0 0.28,0.07 0.32,0.15 z" id="path3825" /><path style="fill:#000000;stroke-width:0" d="m 234.53,485.27 -0.11,0.09 c -0.19,-0.25 -0.29,-0.31 -0.57,-0.31 l -2.44,0 -1.29,-2.8 c 0,0 -0.01,-0.03 -0.01,-0.06 0,-0.07 0.04,-0.09 0.14,-0.09 1.14,0 1.96,-0.38 2.52,-0.83 0.53,-0.42 0.79,-1.01 0.79,-1.77 0,-1.01 -0.77,-1.99 -1.6,-1.99 -0.23,0 -0.5,0.1 -0.83,0.37 -0.38,0.31 -0.61,0.37 -0.88,0.37 -0.33,0 -0.53,-0.15 -0.53,-0.45 0,-0.45 0.62,-0.73 1.5,-0.73 0.8,0 1.45,0.18 2.01,0.58 0.8,0.59 1.15,1.32 1.15,2.45 0,0.63 -0.1,1.08 -0.41,1.5 -0.67,0.94 -1.26,1.2 -2.95,1.51 l 0.47,1.01 2.29,0 c 0.19,0 0.29,0.07 0.32,0.15 z" id="path3827" /><path style="fill:#000000;stroke-width:0" d="m 237.42,477.74 0,0.04 -0.01,0.03 0,0.03 -0.01,0.03 0,0.04 -0.01,0.03 -0.01,0.03 -0.02,0.03 -0.01,0.03 -0.01,0.03 -0.02,0.02 -0.02,0.03 -0.02,0.03 -0.02,0.02 -0.02,0.03 -0.02,0.02 -0.02,0.02 -0.03,0.03 -0.02,0.02 -0.03,0.02 -0.02,0.01 -0.03,0.02 -0.03,0.02 -0.03,0.01 -0.03,0.01 -0.03,0.01 -0.03,0.01 -0.03,0.01 -0.03,0.01 -0.03,0 -0.03,0.01 -0.03,0 c -0.37,0 -0.66,-0.3 -0.66,-0.67 0,-0.36 0.28,-0.64 0.65,-0.64 0.35,0 0.66,0.29 0.66,0.63 z" id="path3829" /><path style="fill:#000000;stroke-width:0" d="m 243.51,485.31 -0.15,-0.02 -0.15,-0.01 -0.14,-0.02 -0.14,-0.02 -0.14,-0.02 -0.13,-0.03 -0.13,-0.02 -0.13,-0.02 -0.12,-0.03 -0.12,-0.03 -0.12,-0.03 -0.11,-0.03 -0.12,-0.03 -0.11,-0.04 -0.1,-0.04 -0.11,-0.04 -0.11,-0.04 -0.1,-0.05 -0.1,-0.05 -0.1,-0.05 -0.1,-0.06 -0.1,-0.05 -0.1,-0.07 -0.09,-0.06 -0.1,-0.07 -0.09,-0.07 -0.1,-0.08 -0.09,-0.08 -0.1,-0.08 -0.09,-0.09 -0.09,-0.1 -0.1,-0.09 c -0.84,-0.87 -1.29,-1.99 -1.29,-3.26 0,-0.83 0.23,-1.67 0.56,-2.27 0.41,-0.75 1.15,-1.19 2.09,-1.19 l 0.13,0.33 c -1.11,0 -1.68,1.18 -1.68,2.98 0,1.08 0.7,1.36 1.37,1.36 1.1,0 1.6,-0.77 1.6,-2.29 l 0,0 c 0,-1.2 -0.44,-2.05 -1.29,-2.05 l -0.13,-0.33 c 0.78,0 1.44,0.32 1.87,0.86 0.39,0.47 0.61,1.14 0.61,1.89 0,1.52 -0.85,2.47 -2.23,2.47 -0.52,0 -0.92,-0.09 -1.5,-0.53 0.31,1.78 1.64,3.05 3.49,3.36 z" id="path3831" /><path style="fill:#000000;stroke-width:0" d="m 246.92,483.45 0,0.07 -0.01,0.06 -0.01,0.06 -0.01,0.05 -0.01,0.06 -0.02,0.06 -0.01,0.05 -0.03,0.06 -0.02,0.05 -0.03,0.05 -0.02,0.05 -0.03,0.05 -0.04,0.05 -0.03,0.04 -0.04,0.05 -0.04,0.04 -0.04,0.04 -0.04,0.04 -0.05,0.03 -0.04,0.03 -0.05,0.04 -0.05,0.02 -0.05,0.03 -0.06,0.03 -0.05,0.02 -0.05,0.02 -0.06,0.01 -0.06,0.02 -0.05,0.01 -0.06,0 -0.06,0.01 -0.06,0 0,-0.58 c 0.32,0 0.59,-0.27 0.59,-0.62 l 0,0 c 0,-0.34 -0.26,-0.61 -0.61,-0.61 -0.35,0 -0.61,0.26 -0.61,0.63 0,0.33 0.25,0.6 0.63,0.6 l 0,0.58 c -0.69,0 -1.22,-0.51 -1.22,-1.18 0,-0.68 0.52,-1.21 1.2,-1.21 0.66,0 1.2,0.53 1.2,1.19 z" id="path3833" /></g>  <g style="font-style:normal;font-variant:normal;font-weight:normal;font-stretch:normal;letter-spacing:normal;word-spacing:normal;text-anchor:start;fill:none;fill-opacity:1;fill-rule:evenodd;stroke:#000000;stroke-linecap:butt;stroke-linejoin:miter;stroke-miterlimit:10.43299961;stroke-dasharray:none;stroke-dashoffset:0;stroke-opacity:1" id="g4342" transform="matrix(2,0,0,-2,-213.06458,1132.311)" xml:space="preserve" stroke-miterlimit="10.433" font-style="normal" font-variant="normal" font-weight="normal" font-stretch="normal" font-size-adjust="none" letter-spacing="normal" word-spacing="normal" ns0:text="$30^{\\circ}$" ns0:preamble="/Users/ABaker/cmep/Inkscape/underground-inkscape-preamble.tex"><path style="fill:#000000;stroke-width:0" d="m 224.15,483.26 0.05,0.08 0.04,0.07 0.05,0.08 0.05,0.07 0.04,0.07 0.05,0.07 0.05,0.06 0.05,0.06 0.05,0.06 0.05,0.05 0.05,0.06 0.05,0.05 0.05,0.04 0.05,0.05 0.05,0.04 0.06,0.04 0.05,0.04 0.06,0.03 0.05,0.03 0.06,0.03 0.06,0.03 0.06,0.02 0.06,0.03 0.06,0.02 0.06,0.01 0.06,0.02 0.06,0.01 0.07,0.01 0.06,0.01 0.07,0 0.06,0.01 0.07,0 c 0.78,0 1.28,-0.4 1.28,-1.21 0,-0.72 -0.38,-1.25 -0.96,-1.58 -0.24,-0.14 -0.54,-0.27 -0.99,-0.42 l 0,-0.17 c 0.67,0 0.94,-0.03 1.2,-0.12 0.82,-0.23 1.23,-0.81 1.23,-1.71 0,-1 -0.66,-1.81 -1.53,-1.81 -0.34,0 -0.58,0.06 -1.02,0.37 -0.33,0.24 -0.52,0.31 -0.72,0.31 -0.27,0 -0.48,-0.18 -0.48,-0.43 0,-0.42 0.46,-0.67 1.32,-0.67 1.05,0 2.17,0.34 2.74,1.1 0.34,0.45 0.54,1.03 0.54,1.65 0,0.61 -0.19,1.16 -0.52,1.52 -0.25,0.26 -0.46,0.4 -0.98,0.63 0.79,0.47 1.1,1.06 1.1,1.63 0,0.97 -0.74,1.62 -1.84,1.62 -1.23,0 -1.97,-0.8 -2.32,-1.92 z" id="path4344" /><path style="fill:#000000;stroke-width:0" d="m 234.98,481.13 -0.01,0.23 -0.01,0.22 -0.01,0.21 -0.02,0.21 -0.03,0.21 -0.03,0.2 -0.04,0.19 -0.05,0.19 -0.05,0.18 -0.05,0.18 -0.06,0.17 -0.07,0.17 -0.07,0.16 -0.07,0.15 -0.08,0.14 -0.08,0.14 -0.09,0.13 -0.1,0.13 -0.09,0.11 -0.11,0.11 -0.1,0.1 -0.11,0.1 -0.12,0.08 -0.11,0.08 -0.12,0.07 -0.13,0.06 -0.13,0.05 -0.13,0.04 -0.13,0.03 -0.14,0.03 -0.14,0.01 -0.15,0.01 c -1.9,0 -2.71,-1.93 -2.71,-4.02 0,-1.93 0.65,-4.13 2.67,-4.13 l 0,0.31 c -1.02,0 -1.54,1.34 -1.54,3.74 0,2.4 0.53,3.79 1.51,3.79 1.04,0 1.56,-1.38 1.56,-3.84 l 0,0 c 0,-2.34 -0.53,-3.69 -1.53,-3.69 l 0,-0.31 c 1.92,0 2.67,2.03 2.67,4.06 z" id="path4346" /><path style="fill:#000000;stroke-width:0" d="m 238.03,483.45 0,0.07 0,0.06 -0.01,0.06 -0.01,0.05 -0.02,0.06 -0.01,0.06 -0.02,0.05 -0.02,0.06 -0.03,0.05 -0.02,0.05 -0.03,0.05 -0.03,0.05 -0.03,0.05 -0.04,0.04 -0.04,0.05 -0.04,0.04 -0.04,0.04 -0.04,0.04 -0.04,0.03 -0.05,0.03 -0.05,0.04 -0.05,0.02 -0.05,0.03 -0.05,0.03 -0.05,0.02 -0.06,0.02 -0.06,0.01 -0.05,0.02 -0.06,0.01 -0.06,0 -0.06,0.01 -0.06,0 0,-0.58 c 0.32,0 0.6,-0.27 0.6,-0.62 l 0,0 c 0,-0.34 -0.27,-0.61 -0.62,-0.61 -0.34,0 -0.61,0.26 -0.61,0.63 0,0.33 0.26,0.6 0.63,0.6 l 0,0.58 c -0.68,0 -1.22,-0.51 -1.22,-1.18 0,-0.68 0.53,-1.21 1.2,-1.21 0.67,0 1.2,0.53 1.2,1.19 z" id="path4348" /></g></svg>