<?xml version='1.0' ?><svg xmlns:ns0="http://www.iki.fi/pav/software/textext/" xmlns:dc="http://purl.org/dc/elements/1.1/" xmlns:cc="http://creativecommons.org/ns#" xmlns:rdf="http://www.w3.org/1999/02/22-rdf-syntax-ns#" xmlns:svg="http://www.w3.org/2000/svg" xmlns="http://www.w3.org/2000/svg" version="1.1" id="svg2" width="323.97974" height="301.77552" viewBox="34.999999489966555 14.275933783444815 320.99999322742474 298.9999926421404" preserveAspectRatio="none">
  <metadata id="metadata144">
    <rdf:RDF>
      <cc:Work rdf:about="">
        <dc:format>image/svg+xml</dc:format>
        <dc:type rdf:resource="http://purl.org/dc/dcmitype/StillImage" />
      </cc:Work>
    </rdf:RDF>
  </metadata>
  <defs id="defs142" />
  <title id="title4" />
  <g stroke-linejoin="miter" stroke-dashoffset="0.0000" stroke-dasharray="none" stroke-width="1.0000" stroke-miterlimit="10.000" stroke-linecap="square" id="g6">
    <g id="misc" />
    <g id="layer0">
      <clipPath id="clip1">
        <path d="M 0.0000 0.0000 L 0.0000 335.00 L 395.00 335.00 L 395.00 0.0000 z" id="path11" />
      </clipPath>
      <g clip-path="url(#clip1)" id="g13">
        <g stroke-linejoin="round" stroke-linecap="round" fill="none" stroke-opacity="1.0000" stroke="#000000" id="g15">
          <path d="M 220.18 159.57 C 220.18 153.24 218.18 147.07 214.45 141.94 L 190.18 159.57 z" id="path17" />
          <title id="title19">Angle Ã&#131;Â&#142;Ã&#130;Â±</title>
          <desc id="desc21">Angle Ã&#131;Â&#142;Ã&#130;Â±: Angle between E, A, B</desc>
        </g>
      </g>
      <clipPath id="clip2">
        <path d="M 0.0000 0.0000 L 0.0000 335.00 L 395.00 335.00 L 395.00 0.0000 z" id="path24" />
      </clipPath>
      <g clip-path="url(#clip2)" id="g26">
        <g stroke-linejoin="round" stroke-dasharray="5.0000,4.0000" stroke-linecap="butt" fill="none" stroke-opacity="1.0000" stroke="#000000" id="g28">
          <path d="M 190.18 159.57 L 190.18 14.000" id="path30" />
          <title id="title32">Segment h</title>
          <desc id="desc34">Segment h: Segment [A, F]</desc>
        </g>
      </g>
      <clipPath id="clip3">
        <path d="M 0.0000 0.0000 L 0.0000 335.00 L 395.00 335.00 L 395.00 0.0000 z" id="path37" />
      </clipPath>
      <g clip-path="url(#clip3)" id="g39">
        <g stroke-linejoin="round" stroke-dasharray="5.0000,4.0000" stroke-linecap="butt" fill="none" stroke-opacity="1.0000" stroke="#000000" id="g41">
          <path d="M 190.18 159.57 L 35.000 159.57" id="path43" />
          <title id="title45">Segment i</title>
          <desc id="desc47">Segment i: Segment [A, D]</desc>
        </g>
      </g>
      <clipPath id="clip4">
        <path d="M 0.0000 0.0000 L 0.0000 335.00 L 395.00 335.00 L 395.00 0.0000 z" id="path50" />
      </clipPath>
      <g clip-path="url(#clip4)" id="g52">
        <g stroke-linejoin="round" stroke-dasharray="5.0000,4.0000" stroke-linecap="butt" fill="none" stroke-opacity="1.0000" stroke="#000000" id="g54">
          <path d="M 190.18 159.57 L 356.00 159.57" id="path56" />
          <title id="title58">Segment j</title>
          <desc id="desc60">Segment j: Segment [A, E]</desc>
        </g>
      </g>
      <clipPath id="clip5">
        <path d="M 0.0000 0.0000 L 0.0000 335.00 L 395.00 335.00 L 395.00 0.0000 z" id="path63" />
      </clipPath>
      <g clip-path="url(#clip5)" id="g65">
        <g stroke-linejoin="round" stroke-width="3.0000" stroke-linecap="round" fill="none" stroke-opacity="1.0000" stroke="#000000" id="g67">
          <path d="M 190.18 159.57 L 293.44 84.578" id="path69" />
          <title id="title71">Vector u</title>
          <desc id="desc73">Vector u: Vector[A, B]</desc>
        </g>
      </g>
      <clipPath id="clip6">
        <path d="M 0.0000 0.0000 L 0.0000 335.00 L 395.00 335.00 L 395.00 0.0000 z" id="path76" />
      </clipPath>
      <g clip-path="url(#clip6)" id="g78">
        <g fill-opacity="1.0000" fill-rule="evenodd" stroke="none" fill="#000000" id="g80">
          <path d="M 308.00 74.000 L 296.08 88.219 L 290.79 80.937 z" id="path82" />
          <title id="title84">Vector u</title>
          <desc id="desc86">Vector u: Vector[A, B]</desc>
        </g>
      </g>
      <clipPath id="clip7">
        <path d="M 0.0000 0.0000 L 0.0000 335.00 L 395.00 335.00 L 395.00 0.0000 z" id="path89" />
      </clipPath>
      <g clip-path="url(#clip7)" id="g91">
        <g stroke-linejoin="round" stroke-width="3.0000" stroke-linecap="round" fill="none" stroke-opacity="1.0000" stroke="#000000" id="g93">
          <path d="M 190.18 159.57 L 190.18 295.00" id="path95" />
          <title id="title97">Vector v</title>
          <desc id="desc99">Vector v: Vector[A, C]</desc>
        </g>
      </g>
      <clipPath id="clip8">
        <path d="M 0.0000 0.0000 L 0.0000 335.00 L 395.00 335.00 L 395.00 0.0000 z" id="path102" />
      </clipPath>
      <g clip-path="url(#clip8)" id="g104">
        <g fill-opacity="1.0000" fill-rule="evenodd" stroke="none" fill="#000000" id="g106">
          <path d="M 190.18 313.00 L 185.68 295.00 L 194.68 295.00 z" id="path108" />
          <title id="title110">Vector v</title>
          <desc id="desc112">Vector v: Vector[A, C]</desc>
        </g>
      </g>
      <clipPath id="clip9">
        <path d="M 0.0000 0.0000 L 0.0000 335.00 L 395.00 335.00 L 395.00 0.0000 z" id="path115" />
      </clipPath>
      <g clip-path="url(#clip9)" id="g117">
        <g fill-opacity="1.0000" fill-rule="nonzero" stroke="none" fill="#006699" id="g119">
          <path d="M 199.18 159.57 C 199.18 164.54 195.15 168.57 190.18 168.57 C 185.21 168.57 181.18 164.54 181.18 159.57 C 181.18 154.60 185.21 150.57 190.18 150.57 C 195.15 150.57 199.18 154.60 199.18 159.57 z" id="path121" />
          <title id="title123">Point A</title>
          <desc id="desc125">Point A: Intersection point of xAxis, yAxis</desc>
        </g>
      </g>
      <clipPath id="clip10">
        <path d="M 0.0000 0.0000 L 0.0000 335.00 L 395.00 335.00 L 395.00 0.0000 z" id="path128" />
      </clipPath>
      <g clip-path="url(#clip10)" id="g130">
        <g stroke-linejoin="round" stroke-linecap="round" fill="none" stroke-opacity="1.0000" stroke="#000000" id="g132">
          <path d="M 199.18 159.57 C 199.18 164.54 195.15 168.57 190.18 168.57 C 185.21 168.57 181.18 164.54 181.18 159.57 C 181.18 154.60 185.21 150.57 190.18 150.57 C 195.15 150.57 199.18 154.60 199.18 159.57 z" id="path134" />
          <title id="title136">Point A</title>
          <desc id="desc138">Point A: Intersection point of xAxis, yAxis</desc>
        </g>
      </g>
    </g>
  </g>
  <g style="font-style:normal;font-variant:normal;font-weight:normal;font-stretch:normal;letter-spacing:normal;word-spacing:normal;text-anchor:start;fill:none;fill-opacity:1;fill-rule:evenodd;stroke:#000000;stroke-linecap:butt;stroke-linejoin:miter;stroke-miterlimit:10.43299961;stroke-dasharray:none;stroke-dashoffset:0;stroke-opacity:1" id="g4049" transform="matrix(2.1798437,0,0,-2.1925238,-266.50132,1704.1888)" xml:space="preserve" stroke-miterlimit="10.433" font-style="normal" font-variant="normal" font-weight="normal" font-stretch="normal" font-size-adjust="none" letter-spacing="normal" word-spacing="normal" ns0:text="$30^{\\circ}$" ns0:preamble=""><path style="fill:#000000;stroke-width:0" d="m 226.32,710.62 0.07,0.03 0.08,0.03 0.07,0.03 0.07,0.03 0.07,0.04 0.07,0.04 0.06,0.04 0.07,0.04 0.06,0.04 0.06,0.05 0.06,0.05 0.06,0.05 0.05,0.05 0.05,0.05 0.05,0.06 0.05,0.05 0.04,0.06 0.05,0.06 0.04,0.06 0.03,0.06 0.04,0.07 0.03,0.06 0.03,0.07 0.03,0.06 0.02,0.07 0.02,0.07 0.02,0.07 0.01,0.07 0.02,0.07 0,0.07 0.01,0.08 0,0.07 c 0,0.81 -0.87,1.37 -1.83,1.37 -1,0 -1.76,-0.59 -1.76,-1.35 0,-0.33 0.22,-0.52 0.51,-0.52 0.3,0 0.5,0.22 0.5,0.51 0,0.5 -0.46,0.5 -0.61,0.5 0.3,0.48 0.96,0.61 1.32,0.61 0.41,0 0.95,-0.22 0.95,-1.11 0,-0.12 -0.02,-0.7 -0.27,-1.13 -0.3,-0.48 -0.64,-0.51 -0.89,-0.52 -0.08,-0.01 -0.32,-0.03 -0.39,-0.03 -0.08,-0.01 -0.15,-0.02 -0.15,-0.12 0,-0.11 0.07,-0.11 0.24,-0.11 l 0.44,0 c 0.82,0 1.18,-0.67 1.18,-1.65 0,-1.35 -0.68,-1.64 -1.12,-1.64 -0.43,0 -1.17,0.17 -1.52,0.76 0.35,-0.05 0.65,0.17 0.65,0.55 0,0.35 -0.26,0.55 -0.55,0.55 -0.24,0 -0.56,-0.14 -0.56,-0.57 0,-0.91 0.92,-1.56 2.01,-1.56 1.21,0 2.12,0.9 2.12,1.91 0,0.82 -0.63,1.59 -1.66,1.8 z" id="path4051" /><path style="fill:#000000;stroke-width:0" d="m 232.99,710.3 0,0.15 0,0.15 -0.01,0.15 0,0.15 -0.01,0.15 -0.01,0.14 -0.02,0.15 -0.02,0.15 -0.02,0.14 -0.03,0.15 -0.03,0.14 -0.04,0.15 -0.04,0.14 -0.05,0.14 -0.06,0.14 -0.03,0.07 -0.03,0.07 c -0.46,0.95 -1.27,1.11 -1.69,1.11 -0.6,0 -1.32,-0.26 -1.73,-1.18 -0.32,-0.69 -0.37,-1.46 -0.37,-2.26 0,-0.74 0.04,-1.64 0.45,-2.39 0.43,-0.81 1.15,-1 1.64,-1 l 0,0.21 c -0.39,0 -0.97,0.25 -1.15,1.21 -0.11,0.59 -0.11,1.51 -0.11,2.09 0,0.64 0,1.29 0.08,1.83 0.19,1.18 0.93,1.27 1.18,1.27 0.33,0 0.99,-0.18 1.18,-1.16 0.09,-0.56 0.09,-1.31 0.09,-1.94 0,-0.74 0,-1.42 -0.11,-2.05 -0.14,-0.95 -0.71,-1.25 -1.16,-1.25 l 0,0 0,-0.21 c 0.54,0 1.29,0.2 1.73,1.15 0.32,0.68 0.37,1.46 0.37,2.24 z" id="path4053" /><path style="fill:#000000;stroke-width:0" d="m 236.93,712.48 -0.01,0.08 0,0.07 -0.01,0.08 -0.01,0.07 -0.02,0.08 -0.02,0.07 -0.03,0.07 -0.02,0.07 -0.03,0.06 -0.04,0.07 -0.03,0.06 -0.04,0.06 -0.04,0.06 -0.05,0.06 -0.04,0.05 -0.05,0.05 -0.06,0.05 -0.05,0.05 -0.06,0.04 -0.06,0.04 -0.06,0.04 -0.06,0.04 -0.06,0.03 -0.07,0.03 -0.07,0.03 -0.07,0.02 -0.07,0.02 -0.07,0.01 -0.07,0.02 -0.08,0.01 -0.07,0 -0.08,0 0,-0.34 c 0.65,0 1.16,-0.53 1.16,-1.14 0,-0.65 -0.52,-1.16 -1.16,-1.16 l 0,0 c -0.66,0 -1.16,0.53 -1.16,1.15 0,0.65 0.52,1.15 1.16,1.15 l 0,0.34 c -0.84,0 -1.5,-0.67 -1.5,-1.48 0,-0.84 0.68,-1.5 1.5,-1.5 0.83,0 1.5,0.68 1.5,1.49 z" id="path4055" /></g>  <g ns0:preamble="/Users/ABaker/cmep/Inkscape/underground-inkscape-preamble.tex" ns0:text="$\\quantity{20}{N}$" word-spacing="normal" letter-spacing="normal" font-size-adjust="none" font-stretch="normal" font-weight="normal" font-variant="normal" font-style="normal" stroke-miterlimit="10.433" xml:space="preserve" transform="matrix(2,0,0,-2,-222.13767,1053.8966)" id="content" style="font-style:normal;font-variant:normal;font-weight:normal;font-stretch:normal;letter-spacing:normal;word-spacing:normal;text-anchor:start;fill:none;fill-opacity:1;fill-rule:evenodd;stroke:#000000;stroke-linecap:butt;stroke-linejoin:miter;stroke-miterlimit:10.43299961;stroke-dasharray:none;stroke-dashoffset:0;stroke-opacity:1"><path id="path3502" d="m 229.03,478.85 -0.17,0.07 c -0.39,-0.66 -0.63,-0.79 -1.13,-0.79 l -2.76,0 1.94,2.08 c 1.06,1.11 1.52,1.99 1.52,2.93 0,1.17 -0.85,2.08 -2.19,2.08 -1.45,0 -2.21,-0.97 -2.45,-2.35 l 0.24,-0.06 c 0.48,1.15 0.89,1.53 1.74,1.53 1,0 1.64,-0.59 1.64,-1.66 0,-1.01 -0.42,-1.9 -1.53,-3.07 l -2.11,-2.23 0,-0.15 4.62,0 z" style="fill:#000000;stroke-width:0" /><path id="path3504" d="m 234.98,481.13 -0.01,0.23 -0.01,0.22 -0.01,0.21 -0.02,0.21 -0.03,0.21 -0.03,0.2 -0.04,0.19 -0.05,0.19 -0.05,0.18 -0.05,0.18 -0.06,0.17 -0.07,0.17 -0.07,0.16 -0.07,0.15 -0.08,0.14 -0.08,0.14 -0.09,0.13 -0.1,0.13 -0.09,0.11 -0.11,0.11 -0.1,0.1 -0.11,0.1 -0.12,0.08 -0.11,0.08 -0.12,0.07 -0.13,0.06 -0.13,0.05 -0.13,0.04 -0.13,0.03 -0.14,0.03 -0.14,0.01 -0.15,0.01 c -1.9,0 -2.71,-1.93 -2.71,-4.02 0,-1.93 0.65,-4.13 2.67,-4.13 l 0,0.31 c -1.02,0 -1.54,1.34 -1.54,3.74 0,2.4 0.53,3.79 1.51,3.79 1.04,0 1.56,-1.38 1.56,-3.84 l 0,0 c 0,-2.34 -0.53,-3.69 -1.53,-3.69 l 0,-0.31 c 1.92,0 2.67,2.03 2.67,4.06 z" style="fill:#000000;stroke-width:0" /><path id="path3506" d="m 245.29,485.05 -2.8,0 0,-0.22 c 0.52,-0.06 0.73,-0.09 0.93,-0.31 0.18,-0.2 0.23,-0.56 0.23,-1.16 l 0,-4.01 -4.56,5.7 -2.01,0 0,-0.22 c 0.58,0 0.76,-0.15 1.15,-0.63 l 0,-5.19 c 0,-1.27 -0.18,-1.44 -1.15,-1.55 l 0,-0.23 2.76,0 0,0.23 c -0.91,0.13 -1.1,0.33 -1.1,1.55 l 0,4.58 5.21,-6.48 0.21,0 0,6.11 c 0,0.93 0.12,1.19 0.35,1.39 0.15,0.13 0.33,0.17 0.78,0.22 z" style="fill:#000000;stroke-width:0" /></g>  <g style="font-style:normal;font-variant:normal;font-weight:normal;font-stretch:normal;letter-spacing:normal;word-spacing:normal;text-anchor:start;fill:none;fill-opacity:1;fill-rule:evenodd;stroke:#000000;stroke-linecap:butt;stroke-linejoin:miter;stroke-miterlimit:10.43299961;stroke-dasharray:none;stroke-dashoffset:0;stroke-opacity:1" id="g3681" transform="matrix(2,0,0,-2,-306.20105,1210.6203)" xml:space="preserve" stroke-miterlimit="10.433" font-style="normal" font-variant="normal" font-weight="normal" font-stretch="normal" font-size-adjust="none" letter-spacing="normal" word-spacing="normal" ns0:text="$\\quantity{35}{N}$" ns0:preamble="/Users/ABaker/cmep/Inkscape/underground-inkscape-preamble.tex"><path style="fill:#000000;stroke-width:0" d="m 224.15,483.26 0.05,0.08 0.04,0.07 0.05,0.08 0.05,0.07 0.04,0.07 0.05,0.07 0.05,0.06 0.05,0.06 0.05,0.06 0.05,0.05 0.05,0.06 0.05,0.05 0.05,0.04 0.05,0.05 0.05,0.04 0.06,0.04 0.05,0.04 0.06,0.03 0.05,0.03 0.06,0.03 0.06,0.03 0.06,0.02 0.06,0.03 0.06,0.02 0.06,0.01 0.06,0.02 0.06,0.01 0.07,0.01 0.06,0.01 0.07,0 0.06,0.01 0.07,0 c 0.78,0 1.28,-0.4 1.28,-1.21 0,-0.72 -0.38,-1.25 -0.96,-1.58 -0.24,-0.14 -0.54,-0.27 -0.99,-0.42 l 0,-0.17 c 0.67,0 0.94,-0.03 1.2,-0.12 0.82,-0.23 1.23,-0.81 1.23,-1.71 0,-1 -0.66,-1.81 -1.53,-1.81 -0.34,0 -0.58,0.06 -1.02,0.37 -0.33,0.24 -0.52,0.31 -0.72,0.31 -0.27,0 -0.48,-0.18 -0.48,-0.43 0,-0.42 0.46,-0.67 1.32,-0.67 1.05,0 2.17,0.34 2.74,1.1 0.34,0.45 0.54,1.03 0.54,1.65 0,0.61 -0.19,1.16 -0.52,1.52 -0.25,0.26 -0.46,0.4 -0.98,0.63 0.79,0.47 1.1,1.06 1.1,1.63 0,0.97 -0.74,1.62 -1.84,1.62 -1.23,0 -1.97,-0.8 -2.32,-1.92 z" id="path3683" /><path style="fill:#000000;stroke-width:0" d="m 234.53,485.27 -0.11,0.09 c -0.19,-0.25 -0.29,-0.31 -0.57,-0.31 l -2.44,0 -1.29,-2.8 c 0,0 -0.01,-0.03 -0.01,-0.06 0,-0.07 0.04,-0.09 0.14,-0.09 1.14,0 1.96,-0.38 2.52,-0.83 0.53,-0.42 0.79,-1.01 0.79,-1.77 0,-1.01 -0.77,-1.99 -1.6,-1.99 -0.23,0 -0.5,0.1 -0.83,0.37 -0.38,0.31 -0.61,0.37 -0.88,0.37 -0.33,0 -0.53,-0.15 -0.53,-0.45 0,-0.45 0.62,-0.73 1.5,-0.73 0.8,0 1.45,0.18 2.01,0.58 0.8,0.59 1.15,1.32 1.15,2.45 0,0.63 -0.1,1.08 -0.41,1.5 -0.67,0.94 -1.26,1.2 -2.95,1.51 l 0.47,1.01 2.29,0 c 0.19,0 0.29,0.07 0.32,0.15 z" id="path3685" /><path style="fill:#000000;stroke-width:0" d="m 245.29,485.05 -2.8,0 0,-0.22 c 0.52,-0.06 0.73,-0.09 0.93,-0.31 0.18,-0.2 0.23,-0.56 0.23,-1.16 l 0,-4.01 -4.56,5.7 -2.01,0 0,-0.22 c 0.58,0 0.76,-0.15 1.15,-0.63 l 0,-5.19 c 0,-1.27 -0.18,-1.44 -1.15,-1.55 l 0,-0.23 2.76,0 0,0.23 c -0.91,0.13 -1.1,0.33 -1.1,1.55 l 0,4.58 5.21,-6.48 0.21,0 0,6.11 c 0,0.93 0.12,1.19 0.35,1.39 0.15,0.13 0.33,0.17 0.78,0.22 z" id="path3687" /></g></svg>