<?xml version='1.0' ?><svg xmlns:ns0="http://www.iki.fi/pav/software/textext/" xmlns:dc="http://purl.org/dc/elements/1.1/" xmlns:cc="http://creativecommons.org/ns#" xmlns:rdf="http://www.w3.org/1999/02/22-rdf-syntax-ns#" xmlns:svg="http://www.w3.org/2000/svg" xmlns="http://www.w3.org/2000/svg" version="1.1" id="svg2" width="323.49185" height="354.16973" viewBox="49.859684425585286 26.691646127090348 322.1394593227425 352.68908731605353" preserveAspectRatio="none">
  <metadata id="metadata144">
    <rdf:RDF>
      <cc:Work rdf:about="">
        <dc:format>image/svg+xml</dc:format>
        <dc:type rdf:resource="http://purl.org/dc/dcmitype/StillImage" />
      </cc:Work>
    </rdf:RDF>
  </metadata>
  <defs id="defs142" />
  <title id="title4" />
  <g stroke-linejoin="miter" stroke-dashoffset="0.0000" stroke-dasharray="none" stroke-width="1.0000" stroke-miterlimit="10.000" stroke-linecap="square" id="g6">
    <g id="misc" />
    <g id="layer0">
      <clipPath id="clip1">
        <path d="M 0.0000 0.0000 L 0.0000 411.00 L 397.00 411.00 L 397.00 0.0000 z" id="path11" />
      </clipPath>
      <g clip-path="url(#clip1)" id="g13">
        <g stroke-linejoin="round" stroke-linecap="round" fill="none" stroke-opacity="1.0000" stroke="#000000" id="g15">
          <path d="M 81.377 223.98 C 81.377 217.65 79.372 211.48 75.650 206.35 L 51.377 223.98 z" id="path17" />
          <title id="title19">Angle Ã&#131;Â&#142;Ã&#130;Â±</title>
          <desc id="desc21">Angle Ã&#131;Â&#142;Ã&#130;Â±: Angle between E, A, B</desc>
        </g>
      </g>
      <clipPath id="clip2">
        <path d="M 0.0000 0.0000 L 0.0000 411.00 L 397.00 411.00 L 397.00 0.0000 z" id="path24" />
      </clipPath>
      <g clip-path="url(#clip2)" id="g26">
        <g stroke-linejoin="round" stroke-linecap="round" fill="none" stroke-opacity="1.0000" stroke="#000000" id="g28">
          <path d="M 295.82 47.706 C 301.47 55.486 310.50 60.091 320.11 60.091 L 320.11 30.091 z" id="path30" />
          <title id="title32">Angle Ã&#131;Â&#142;Ã&#130;Â²</title>
          <desc id="desc34">Angle Ã&#131;Â&#142;Ã&#130;Â²: Angle between I, J, H</desc>
        </g>
      </g>
      <clipPath id="clip3">
        <path d="M 0.0000 0.0000 L 0.0000 411.00 L 397.00 411.00 L 397.00 0.0000 z" id="path37" />
      </clipPath>
      <g clip-path="url(#clip3)" id="g39">
        <g stroke-linejoin="round" stroke-linecap="round" fill="none" stroke-opacity="1.0000" stroke="#000000" id="g41">
          <path d="M 77.411 238.89 C 80.010 234.35 81.377 229.21 81.377 223.98 L 51.377 223.98 z" id="path43" />
          <title id="title45">Angle Ã&#131;Â&#142;Ã&#130;Â³</title>
          <desc id="desc47">Angle Ã&#131;Â&#142;Ã&#130;Â³: Angle between H, A, E</desc>
        </g>
      </g>
      <clipPath id="clip4">
        <path d="M 0.0000 0.0000 L 0.0000 411.00 L 397.00 411.00 L 397.00 0.0000 z" id="path50" />
      </clipPath>
      <g clip-path="url(#clip4)" id="g52">
        <g stroke-linejoin="round" stroke-dasharray="5.0000,4.0000" stroke-linecap="butt" fill="none" stroke-opacity="1.0000" stroke="#000000" id="g54">
          <path d="M 51.377 223.98 L 182.73 223.98" id="path56" />
          <title id="title58">Segment j</title>
          <desc id="desc60">Segment j: Segment [A, E]</desc>
        </g>
      </g>
      <clipPath id="clip5">
        <path d="M 0.0000 0.0000 L 0.0000 411.00 L 397.00 411.00 L 397.00 0.0000 z" id="path63" />
      </clipPath>
      <g clip-path="url(#clip5)" id="g65">
        <g stroke-linejoin="round" stroke-width="3.0000" stroke-linecap="round" fill="none" stroke-opacity="1.0000" stroke="#000000" id="g67">
          <path d="M 51.377 223.98 L 305.69 39.276" id="path69" />
          <title id="title71">Vector u</title>
          <desc id="desc73">Vector u: Vector[A, B]</desc>
        </g>
      </g>
      <clipPath id="clip6">
        <path d="M 0.0000 0.0000 L 0.0000 411.00 L 397.00 411.00 L 397.00 0.0000 z" id="path76" />
      </clipPath>
      <g clip-path="url(#clip6)" id="g78">
        <g fill-opacity="1.0000" fill-rule="evenodd" stroke="none" fill="#000000" id="g80">
          <path d="M 320.26 28.698 L 308.34 42.917 L 303.05 35.635 z" id="path82" />
          <title id="title84">Vector u</title>
          <desc id="desc86">Vector u: Vector[A, B]</desc>
        </g>
      </g>
      <clipPath id="clip7">
        <path d="M 0.0000 0.0000 L 0.0000 411.00 L 397.00 411.00 L 397.00 0.0000 z" id="path89" />
      </clipPath>
      <g clip-path="url(#clip7)" id="g91">
        <g stroke-linejoin="round" stroke-width="3.0000" stroke-linecap="round" fill="none" stroke-opacity="1.0000" stroke="#000000" id="g93">
          <path d="M 320.11 28.213 L 320.11 360.41" id="path95" />
          <title id="title97">Vector w</title>
          <desc id="desc99">Vector w: Vector[(2.21, 1.61), (2.21, -1.27)]</desc>
        </g>
      </g>
      <clipPath id="clip8">
        <path d="M 0.0000 0.0000 L 0.0000 411.00 L 397.00 411.00 L 397.00 0.0000 z" id="path102" />
      </clipPath>
      <g clip-path="url(#clip8)" id="g104">
        <g fill-opacity="1.0000" fill-rule="evenodd" stroke="none" fill="#000000" id="g106">
          <path d="M 320.11 378.41 L 315.61 360.41 L 324.61 360.41 z" id="path108" />
          <title id="title110">Vector w</title>
          <desc id="desc112">Vector w: Vector[(2.21, 1.61), (2.21, -1.27)]</desc>
        </g>
      </g>
      <clipPath id="clip9">
        <path d="M 0.0000 0.0000 L 0.0000 411.00 L 397.00 411.00 L 397.00 0.0000 z" id="path115" />
      </clipPath>
      <g clip-path="url(#clip9)" id="g117">
        <g stroke-linejoin="round" stroke-width="3.0000" stroke-linecap="round" fill="none" stroke-opacity="1.0000" stroke="#000000" id="g119">
          <path d="M 320.11 377.87 L 68.417 232.96" id="path121" />
          <title id="title123">Vector a</title>
          <desc id="desc125">Vector a: Vector[H, I]</desc>
        </g>
      </g>
      <clipPath id="clip10">
        <path d="M 0.0000 0.0000 L 0.0000 411.00 L 397.00 411.00 L 397.00 0.0000 z" id="path128" />
      </clipPath>
      <g clip-path="url(#clip10)" id="g130">
        <g fill-opacity="1.0000" fill-rule="evenodd" stroke="none" fill="#000000" id="g132">
          <path d="M 52.817 223.98 L 70.662 229.06 L 66.172 236.86 z" id="path134" />
          <title id="title136">Vector a</title>
          <desc id="desc138">Vector a: Vector[H, I]</desc>
        </g>
      </g>
    </g>
  </g>
  <g style="font-style:normal;font-variant:normal;font-weight:normal;font-stretch:normal;letter-spacing:normal;word-spacing:normal;text-anchor:start;fill:none;fill-opacity:1;fill-rule:evenodd;stroke:#000000;stroke-linecap:butt;stroke-linejoin:miter;stroke-miterlimit:10.43299961;stroke-dasharray:none;stroke-dashoffset:0;stroke-opacity:1" id="content" transform="matrix(2.0101265,0,0,-2.0101264,-305.20854,1073.4756)" xml:space="preserve" stroke-miterlimit="10.433" font-style="normal" font-variant="normal" font-weight="normal" font-stretch="normal" font-size-adjust="none" letter-spacing="normal" word-spacing="normal" ns0:text="$\\quantity{20}{N}$" ns0:preamble="/Users/ABaker/cmep/Inkscape/underground-inkscape-preamble.tex"><path style="fill:#000000;stroke-width:0" d="m 229.03,478.85 -0.17,0.07 c -0.39,-0.66 -0.63,-0.79 -1.13,-0.79 l -2.76,0 1.94,2.08 c 1.06,1.11 1.52,1.99 1.52,2.93 0,1.17 -0.85,2.08 -2.19,2.08 -1.45,0 -2.21,-0.97 -2.45,-2.35 l 0.24,-0.06 c 0.48,1.15 0.89,1.53 1.74,1.53 1,0 1.64,-0.59 1.64,-1.66 0,-1.01 -0.42,-1.9 -1.53,-3.07 l -2.11,-2.23 0,-0.15 4.62,0 z" id="path3502" /><path style="fill:#000000;stroke-width:0" d="m 234.98,481.13 -0.01,0.23 -0.01,0.22 -0.01,0.21 -0.02,0.21 -0.03,0.21 -0.03,0.2 -0.04,0.19 -0.05,0.19 -0.05,0.18 -0.05,0.18 -0.06,0.17 -0.07,0.17 -0.07,0.16 -0.07,0.15 -0.08,0.14 -0.08,0.14 -0.09,0.13 -0.1,0.13 -0.09,0.11 -0.11,0.11 -0.1,0.1 -0.11,0.1 -0.12,0.08 -0.11,0.08 -0.12,0.07 -0.13,0.06 -0.13,0.05 -0.13,0.04 -0.13,0.03 -0.14,0.03 -0.14,0.01 -0.15,0.01 c -1.9,0 -2.71,-1.93 -2.71,-4.02 0,-1.93 0.65,-4.13 2.67,-4.13 l 0,0.31 c -1.02,0 -1.54,1.34 -1.54,3.74 0,2.4 0.53,3.79 1.51,3.79 1.04,0 1.56,-1.38 1.56,-3.84 l 0,0 c 0,-2.34 -0.53,-3.69 -1.53,-3.69 l 0,-0.31 c 1.92,0 2.67,2.03 2.67,4.06 z" id="path3504" /><path style="fill:#000000;stroke-width:0" d="m 245.29,485.05 -2.8,0 0,-0.22 c 0.52,-0.06 0.73,-0.09 0.93,-0.31 0.18,-0.2 0.23,-0.56 0.23,-1.16 l 0,-4.01 -4.56,5.7 -2.01,0 0,-0.22 c 0.58,0 0.76,-0.15 1.15,-0.63 l 0,-5.19 c 0,-1.27 -0.18,-1.44 -1.15,-1.55 l 0,-0.23 2.76,0 0,0.23 c -0.91,0.13 -1.1,0.33 -1.1,1.55 l 0,4.58 5.21,-6.48 0.21,0 0,6.11 c 0,0.93 0.12,1.19 0.35,1.39 0.15,0.13 0.33,0.17 0.78,0.22 z" id="path3506" /></g>  <g ns0:preamble="/Users/ABaker/cmep/Inkscape/underground-inkscape-preamble.tex" ns0:text="$\\quantity{35}{N}$" word-spacing="normal" letter-spacing="normal" font-size-adjust="none" font-stretch="normal" font-weight="normal" font-variant="normal" font-style="normal" stroke-miterlimit="10.433" xml:space="preserve" transform="matrix(2.0101265,0,0,-2.0101264,-121.06478,1158.8977)" id="g3681" style="font-style:normal;font-variant:normal;font-weight:normal;font-stretch:normal;letter-spacing:normal;word-spacing:normal;text-anchor:start;fill:none;fill-opacity:1;fill-rule:evenodd;stroke:#000000;stroke-linecap:butt;stroke-linejoin:miter;stroke-miterlimit:10.43299961;stroke-dasharray:none;stroke-dashoffset:0;stroke-opacity:1"><path id="path3683" d="m 224.15,483.26 0.05,0.08 0.04,0.07 0.05,0.08 0.05,0.07 0.04,0.07 0.05,0.07 0.05,0.06 0.05,0.06 0.05,0.06 0.05,0.05 0.05,0.06 0.05,0.05 0.05,0.04 0.05,0.05 0.05,0.04 0.06,0.04 0.05,0.04 0.06,0.03 0.05,0.03 0.06,0.03 0.06,0.03 0.06,0.02 0.06,0.03 0.06,0.02 0.06,0.01 0.06,0.02 0.06,0.01 0.07,0.01 0.06,0.01 0.07,0 0.06,0.01 0.07,0 c 0.78,0 1.28,-0.4 1.28,-1.21 0,-0.72 -0.38,-1.25 -0.96,-1.58 -0.24,-0.14 -0.54,-0.27 -0.99,-0.42 l 0,-0.17 c 0.67,0 0.94,-0.03 1.2,-0.12 0.82,-0.23 1.23,-0.81 1.23,-1.71 0,-1 -0.66,-1.81 -1.53,-1.81 -0.34,0 -0.58,0.06 -1.02,0.37 -0.33,0.24 -0.52,0.31 -0.72,0.31 -0.27,0 -0.48,-0.18 -0.48,-0.43 0,-0.42 0.46,-0.67 1.32,-0.67 1.05,0 2.17,0.34 2.74,1.1 0.34,0.45 0.54,1.03 0.54,1.65 0,0.61 -0.19,1.16 -0.52,1.52 -0.25,0.26 -0.46,0.4 -0.98,0.63 0.79,0.47 1.1,1.06 1.1,1.63 0,0.97 -0.74,1.62 -1.84,1.62 -1.23,0 -1.97,-0.8 -2.32,-1.92 z" style="fill:#000000;stroke-width:0" /><path id="path3685" d="m 234.53,485.27 -0.11,0.09 c -0.19,-0.25 -0.29,-0.31 -0.57,-0.31 l -2.44,0 -1.29,-2.8 c 0,0 -0.01,-0.03 -0.01,-0.06 0,-0.07 0.04,-0.09 0.14,-0.09 1.14,0 1.96,-0.38 2.52,-0.83 0.53,-0.42 0.79,-1.01 0.79,-1.77 0,-1.01 -0.77,-1.99 -1.6,-1.99 -0.23,0 -0.5,0.1 -0.83,0.37 -0.38,0.31 -0.61,0.37 -0.88,0.37 -0.33,0 -0.53,-0.15 -0.53,-0.45 0,-0.45 0.62,-0.73 1.5,-0.73 0.8,0 1.45,0.18 2.01,0.58 0.8,0.59 1.15,1.32 1.15,2.45 0,0.63 -0.1,1.08 -0.41,1.5 -0.67,0.94 -1.26,1.2 -2.95,1.51 l 0.47,1.01 2.29,0 c 0.19,0 0.29,0.07 0.32,0.15 z" style="fill:#000000;stroke-width:0" /><path id="path3687" d="m 245.29,485.05 -2.8,0 0,-0.22 c 0.52,-0.06 0.73,-0.09 0.93,-0.31 0.18,-0.2 0.23,-0.56 0.23,-1.16 l 0,-4.01 -4.56,5.7 -2.01,0 0,-0.22 c 0.58,0 0.76,-0.15 1.15,-0.63 l 0,-5.19 c 0,-1.27 -0.18,-1.44 -1.15,-1.55 l 0,-0.23 2.76,0 0,0.23 c -0.91,0.13 -1.1,0.33 -1.1,1.55 l 0,4.58 5.21,-6.48 0.21,0 0,6.11 c 0,0.93 0.12,1.19 0.35,1.39 0.15,0.13 0.33,0.17 0.78,0.22 z" style="fill:#000000;stroke-width:0" /></g>  <g style="font-style:normal;font-variant:normal;font-weight:normal;font-stretch:normal;letter-spacing:normal;word-spacing:normal;text-anchor:start;fill:none;fill-opacity:1;fill-rule:evenodd;stroke:#000000;stroke-linecap:butt;stroke-linejoin:miter;stroke-miterlimit:10.43299961;stroke-dasharray:none;stroke-dashoffset:0;stroke-opacity:1" id="g3578" transform="matrix(1.9318735,0,0,-1.9318734,-146.19725,999.0526)" xml:space="preserve" stroke-miterlimit="10.433" font-style="normal" font-variant="normal" font-weight="normal" font-stretch="normal" font-size-adjust="none" letter-spacing="normal" word-spacing="normal" ns0:text="$60^{\\circ}$" ns0:preamble="/Users/ABaker/cmep/Inkscape/underground-inkscape-preamble.tex"><path style="fill:#000000;stroke-width:0" d="m 228.7,485.31 -0.15,-0.02 -0.15,-0.01 -0.14,-0.02 -0.14,-0.02 -0.14,-0.02 -0.13,-0.03 -0.13,-0.02 -0.13,-0.02 -0.12,-0.03 -0.12,-0.03 -0.12,-0.03 -0.11,-0.03 -0.12,-0.03 -0.11,-0.04 -0.1,-0.04 -0.11,-0.04 -0.11,-0.04 -0.1,-0.05 -0.1,-0.05 -0.1,-0.05 -0.1,-0.06 -0.1,-0.05 -0.1,-0.07 -0.09,-0.06 -0.1,-0.07 -0.09,-0.07 -0.1,-0.08 -0.09,-0.08 -0.1,-0.08 -0.09,-0.09 -0.09,-0.1 -0.1,-0.09 c -0.84,-0.87 -1.29,-1.99 -1.29,-3.26 0,-0.83 0.23,-1.67 0.56,-2.27 0.41,-0.75 1.15,-1.19 2.09,-1.19 l 0.13,0.33 c -1.11,0 -1.68,1.18 -1.68,2.98 0,1.08 0.7,1.36 1.37,1.36 1.1,0 1.6,-0.77 1.6,-2.29 l 0,0 c 0,-1.2 -0.44,-2.05 -1.29,-2.05 l -0.13,-0.33 c 0.78,0 1.44,0.32 1.87,0.86 0.39,0.47 0.61,1.14 0.61,1.89 0,1.52 -0.85,2.47 -2.23,2.47 -0.52,0 -0.93,-0.09 -1.5,-0.53 0.31,1.78 1.64,3.05 3.49,3.36 z" id="path3580" /><path style="fill:#000000;stroke-width:0" d="m 234.98,481.13 -0.01,0.23 -0.01,0.22 -0.01,0.21 -0.02,0.21 -0.03,0.21 -0.03,0.2 -0.04,0.19 -0.05,0.19 -0.05,0.18 -0.05,0.18 -0.06,0.17 -0.07,0.17 -0.07,0.16 -0.07,0.15 -0.08,0.14 -0.08,0.14 -0.09,0.13 -0.1,0.13 -0.09,0.11 -0.11,0.11 -0.1,0.1 -0.11,0.1 -0.12,0.08 -0.11,0.08 -0.12,0.07 -0.13,0.06 -0.13,0.05 -0.13,0.04 -0.13,0.03 -0.14,0.03 -0.14,0.01 -0.15,0.01 c -1.9,0 -2.71,-1.93 -2.71,-4.02 0,-1.93 0.65,-4.13 2.67,-4.13 l 0,0.31 c -1.02,0 -1.54,1.34 -1.54,3.74 0,2.4 0.53,3.79 1.51,3.79 1.04,0 1.56,-1.38 1.56,-3.84 l 0,0 c 0,-2.34 -0.53,-3.69 -1.53,-3.69 l 0,-0.31 c 1.92,0 2.67,2.03 2.67,4.06 z" id="path3582" /><path style="fill:#000000;stroke-width:0" d="m 238.03,483.45 0,0.07 0,0.06 -0.01,0.06 -0.01,0.05 -0.02,0.06 -0.01,0.06 -0.02,0.05 -0.02,0.06 -0.03,0.05 -0.02,0.05 -0.03,0.05 -0.03,0.05 -0.03,0.05 -0.04,0.04 -0.04,0.05 -0.04,0.04 -0.04,0.04 -0.04,0.04 -0.04,0.03 -0.05,0.03 -0.05,0.04 -0.05,0.02 -0.05,0.03 -0.05,0.03 -0.05,0.02 -0.06,0.02 -0.06,0.01 -0.05,0.02 -0.06,0.01 -0.06,0 -0.06,0.01 -0.06,0 0,-0.58 c 0.32,0 0.6,-0.27 0.6,-0.62 l 0,0 c 0,-0.34 -0.27,-0.61 -0.62,-0.61 -0.34,0 -0.61,0.26 -0.61,0.63 0,0.33 0.26,0.6 0.63,0.6 l 0,0.58 c -0.68,0 -1.22,-0.51 -1.22,-1.18 0,-0.68 0.53,-1.21 1.2,-1.21 0.67,0 1.2,0.53 1.2,1.19 z" id="path3584" /></g>  <g ns0:preamble="" ns0:text="$30^{\\circ}$" word-spacing="normal" letter-spacing="normal" font-size-adjust="none" font-stretch="normal" font-weight="normal" font-variant="normal" font-style="normal" stroke-miterlimit="10.433" xml:space="preserve" transform="matrix(2.1908809,0,0,-2.203625,-406.46664,1777.3743)" id="g4049" style="font-style:normal;font-variant:normal;font-weight:normal;font-stretch:normal;letter-spacing:normal;word-spacing:normal;text-anchor:start;fill:none;fill-opacity:1;fill-rule:evenodd;stroke:#000000;stroke-linecap:butt;stroke-linejoin:miter;stroke-miterlimit:10.43299961;stroke-dasharray:none;stroke-dashoffset:0;stroke-opacity:1"><path id="path4051" d="m 226.32,710.62 0.07,0.03 0.08,0.03 0.07,0.03 0.07,0.03 0.07,0.04 0.07,0.04 0.06,0.04 0.07,0.04 0.06,0.04 0.06,0.05 0.06,0.05 0.06,0.05 0.05,0.05 0.05,0.05 0.05,0.06 0.05,0.05 0.04,0.06 0.05,0.06 0.04,0.06 0.03,0.06 0.04,0.07 0.03,0.06 0.03,0.07 0.03,0.06 0.02,0.07 0.02,0.07 0.02,0.07 0.01,0.07 0.02,0.07 0,0.07 0.01,0.08 0,0.07 c 0,0.81 -0.87,1.37 -1.83,1.37 -1,0 -1.76,-0.59 -1.76,-1.35 0,-0.33 0.22,-0.52 0.51,-0.52 0.3,0 0.5,0.22 0.5,0.51 0,0.5 -0.46,0.5 -0.61,0.5 0.3,0.48 0.96,0.61 1.32,0.61 0.41,0 0.95,-0.22 0.95,-1.11 0,-0.12 -0.02,-0.7 -0.27,-1.13 -0.3,-0.48 -0.64,-0.51 -0.89,-0.52 -0.08,-0.01 -0.32,-0.03 -0.39,-0.03 -0.08,-0.01 -0.15,-0.02 -0.15,-0.12 0,-0.11 0.07,-0.11 0.24,-0.11 l 0.44,0 c 0.82,0 1.18,-0.67 1.18,-1.65 0,-1.35 -0.68,-1.64 -1.12,-1.64 -0.43,0 -1.17,0.17 -1.52,0.76 0.35,-0.05 0.65,0.17 0.65,0.55 0,0.35 -0.26,0.55 -0.55,0.55 -0.24,0 -0.56,-0.14 -0.56,-0.57 0,-0.91 0.92,-1.56 2.01,-1.56 1.21,0 2.12,0.9 2.12,1.91 0,0.82 -0.63,1.59 -1.66,1.8 z" style="fill:#000000;stroke-width:0" /><path id="path4053" d="m 232.99,710.3 0,0.15 0,0.15 -0.01,0.15 0,0.15 -0.01,0.15 -0.01,0.14 -0.02,0.15 -0.02,0.15 -0.02,0.14 -0.03,0.15 -0.03,0.14 -0.04,0.15 -0.04,0.14 -0.05,0.14 -0.06,0.14 -0.03,0.07 -0.03,0.07 c -0.46,0.95 -1.27,1.11 -1.69,1.11 -0.6,0 -1.32,-0.26 -1.73,-1.18 -0.32,-0.69 -0.37,-1.46 -0.37,-2.26 0,-0.74 0.04,-1.64 0.45,-2.39 0.43,-0.81 1.15,-1 1.64,-1 l 0,0.21 c -0.39,0 -0.97,0.25 -1.15,1.21 -0.11,0.59 -0.11,1.51 -0.11,2.09 0,0.64 0,1.29 0.08,1.83 0.19,1.18 0.93,1.27 1.18,1.27 0.33,0 0.99,-0.18 1.18,-1.16 0.09,-0.56 0.09,-1.31 0.09,-1.94 0,-0.74 0,-1.42 -0.11,-2.05 -0.14,-0.95 -0.71,-1.25 -1.16,-1.25 l 0,0 0,-0.21 c 0.54,0 1.29,0.2 1.73,1.15 0.32,0.68 0.37,1.46 0.37,2.24 z" style="fill:#000000;stroke-width:0" /><path id="path4055" d="m 236.93,712.48 -0.01,0.08 0,0.07 -0.01,0.08 -0.01,0.07 -0.02,0.08 -0.02,0.07 -0.03,0.07 -0.02,0.07 -0.03,0.06 -0.04,0.07 -0.03,0.06 -0.04,0.06 -0.04,0.06 -0.05,0.06 -0.04,0.05 -0.05,0.05 -0.06,0.05 -0.05,0.05 -0.06,0.04 -0.06,0.04 -0.06,0.04 -0.06,0.04 -0.06,0.03 -0.07,0.03 -0.07,0.03 -0.07,0.02 -0.07,0.02 -0.07,0.01 -0.07,0.02 -0.08,0.01 -0.07,0 -0.08,0 0,-0.34 c 0.65,0 1.16,-0.53 1.16,-1.14 0,-0.65 -0.52,-1.16 -1.16,-1.16 l 0,0 c -0.66,0 -1.16,0.53 -1.16,1.15 0,0.65 0.52,1.15 1.16,1.15 l 0,0.34 c -0.84,0 -1.5,-0.67 -1.5,-1.48 0,-0.84 0.68,-1.5 1.5,-1.5 0.83,0 1.5,0.68 1.5,1.49 z" style="fill:#000000;stroke-width:0" /></g>  <g ns0:preamble="/Users/ABaker/cmep/Inkscape/underground-inkscape-preamble.tex" ns0:text="$\\quantity{30.4}{N}$" word-spacing="normal" letter-spacing="normal" font-size-adjust="none" font-stretch="normal" font-weight="normal" font-variant="normal" font-style="normal" stroke-miterlimit="10.433" xml:space="preserve" transform="matrix(2,0,0,-2,-318.33224,1280.292)" id="g3824" style="font-style:normal;font-variant:normal;font-weight:normal;font-stretch:normal;letter-spacing:normal;word-spacing:normal;text-anchor:start;fill:none;fill-opacity:1;fill-rule:evenodd;stroke:#000000;stroke-linecap:butt;stroke-linejoin:miter;stroke-miterlimit:10.43299961;stroke-dasharray:none;stroke-dashoffset:0;stroke-opacity:1"><path id="path3826" d="m 224.15,483.26 0.05,0.08 0.04,0.07 0.05,0.08 0.05,0.07 0.04,0.07 0.05,0.07 0.05,0.06 0.05,0.06 0.05,0.06 0.05,0.05 0.05,0.06 0.05,0.05 0.05,0.04 0.05,0.05 0.05,0.04 0.06,0.04 0.05,0.04 0.06,0.03 0.05,0.03 0.06,0.03 0.06,0.03 0.06,0.02 0.06,0.03 0.06,0.02 0.06,0.01 0.06,0.02 0.06,0.01 0.07,0.01 0.06,0.01 0.07,0 0.06,0.01 0.07,0 c 0.78,0 1.28,-0.4 1.28,-1.21 0,-0.72 -0.38,-1.25 -0.96,-1.58 -0.24,-0.14 -0.54,-0.27 -0.99,-0.42 l 0,-0.17 c 0.67,0 0.94,-0.03 1.2,-0.12 0.82,-0.23 1.23,-0.81 1.23,-1.71 0,-1 -0.66,-1.81 -1.53,-1.81 -0.34,0 -0.58,0.06 -1.02,0.37 -0.33,0.24 -0.52,0.31 -0.72,0.31 -0.27,0 -0.48,-0.18 -0.48,-0.43 0,-0.42 0.46,-0.67 1.32,-0.67 1.05,0 2.17,0.34 2.74,1.1 0.34,0.45 0.54,1.03 0.54,1.65 0,0.61 -0.19,1.16 -0.52,1.52 -0.25,0.26 -0.46,0.4 -0.98,0.63 0.79,0.47 1.1,1.06 1.1,1.63 0,0.97 -0.74,1.62 -1.84,1.62 -1.23,0 -1.97,-0.8 -2.32,-1.92 z" style="fill:#000000;stroke-width:0" /><path id="path3828" d="m 234.98,481.13 -0.01,0.23 -0.01,0.22 -0.01,0.21 -0.02,0.21 -0.03,0.21 -0.03,0.2 -0.04,0.19 -0.05,0.19 -0.05,0.18 -0.05,0.18 -0.06,0.17 -0.07,0.17 -0.07,0.16 -0.07,0.15 -0.08,0.14 -0.08,0.14 -0.09,0.13 -0.1,0.13 -0.09,0.11 -0.11,0.11 -0.1,0.1 -0.11,0.1 -0.12,0.08 -0.11,0.08 -0.12,0.07 -0.13,0.06 -0.13,0.05 -0.13,0.04 -0.13,0.03 -0.14,0.03 -0.14,0.01 -0.15,0.01 c -1.9,0 -2.71,-1.93 -2.71,-4.02 0,-1.93 0.65,-4.13 2.67,-4.13 l 0,0.31 c -1.02,0 -1.54,1.34 -1.54,3.74 0,2.4 0.53,3.79 1.51,3.79 1.04,0 1.56,-1.38 1.56,-3.84 l 0,0 c 0,-2.34 -0.53,-3.69 -1.53,-3.69 l 0,-0.31 c 1.92,0 2.67,2.03 2.67,4.06 z" style="fill:#000000;stroke-width:0" /><path id="path3830" d="m 237.42,477.74 0,0.04 -0.01,0.03 0,0.03 -0.01,0.03 0,0.04 -0.01,0.03 -0.01,0.03 -0.02,0.03 -0.01,0.03 -0.01,0.03 -0.02,0.02 -0.02,0.03 -0.02,0.03 -0.02,0.02 -0.02,0.03 -0.02,0.02 -0.02,0.02 -0.03,0.03 -0.02,0.02 -0.03,0.02 -0.02,0.01 -0.03,0.02 -0.03,0.02 -0.03,0.01 -0.03,0.01 -0.03,0.01 -0.03,0.01 -0.03,0.01 -0.03,0.01 -0.03,0 -0.03,0.01 -0.03,0 c -0.37,0 -0.66,-0.3 -0.66,-0.67 0,-0.36 0.28,-0.64 0.65,-0.64 0.35,0 0.66,0.29 0.66,0.63 z" style="fill:#000000;stroke-width:0" /><polygon id="polygon3832" points="242.61,479.96 242.61,485.22 242.09,485.22 238.38,479.96 238.86,479.96 241.69,484.01 241.69,479.96 238.86,479.96 238.38,479.96 238.38,479.21 241.69,479.21 241.69,477.23 242.61,477.23 242.61,479.21 243.83,479.21 243.83,479.96 " style="fill:#000000;stroke-width:0" /><path id="path3834" d="m 254.17,485.05 -2.8,0 0,-0.22 c 0.52,-0.06 0.73,-0.09 0.94,-0.31 0.17,-0.2 0.22,-0.56 0.22,-1.16 l 0,-4.01 -4.56,5.7 -2,0 0,-0.22 c 0.57,0 0.75,-0.15 1.14,-0.63 l 0,-5.19 c 0,-1.27 -0.18,-1.44 -1.14,-1.55 l 0,-0.23 2.76,0 0,0.23 c -0.91,0.13 -1.1,0.33 -1.1,1.55 l 0,4.58 5.21,-6.48 0.21,0 0,6.11 c 0,0.93 0.12,1.19 0.34,1.39 0.16,0.13 0.33,0.17 0.78,0.22 z" style="fill:#000000;stroke-width:0" /></g>  <g style="font-style:normal;font-variant:normal;font-weight:normal;font-stretch:normal;letter-spacing:normal;word-spacing:normal;text-anchor:start;fill:none;fill-opacity:1;fill-rule:evenodd;stroke:#000000;stroke-linecap:butt;stroke-linejoin:miter;stroke-miterlimit:10.43299961;stroke-dasharray:none;stroke-dashoffset:0;stroke-opacity:1" id="g3726" transform="matrix(2,0,0,-2,-356.93284,1196.5437)" xml:space="preserve" stroke-miterlimit="10.433" font-style="normal" font-variant="normal" font-weight="normal" font-stretch="normal" font-size-adjust="none" letter-spacing="normal" word-spacing="normal" ns0:text="$\\theta$" ns0:preamble="/Users/ABaker/cmep/Inkscape/underground-inkscape-preamble.tex"><path style="fill:#000000;stroke-width:0" d="m 229.03,482.81 0,0.14 -0.01,0.14 -0.01,0.14 -0.01,0.13 -0.02,0.12 -0.02,0.12 -0.02,0.12 -0.03,0.11 -0.03,0.11 -0.03,0.1 -0.03,0.1 -0.04,0.09 -0.04,0.09 -0.05,0.08 -0.04,0.08 -0.05,0.07 -0.06,0.07 -0.05,0.07 -0.06,0.06 -0.06,0.05 -0.06,0.05 -0.06,0.05 -0.07,0.04 -0.06,0.04 -0.07,0.03 -0.07,0.03 -0.08,0.03 -0.07,0.02 -0.08,0.01 -0.07,0.01 -0.08,0.01 -0.08,0 -0.09,-0.34 c 0.49,0 0.61,-0.66 0.61,-1.52 0,-0.49 -0.12,-1.14 -0.3,-1.96 l -2.43,0 c 0.31,1.4 1.27,3.48 2.12,3.48 l 0.09,0.34 c -2.25,0 -3.62,-3.85 -3.62,-5.9 0,-1.42 0.5,-2.11 1.62,-2.11 l 0.06,0.34 c -0.51,0 -0.68,0.66 -0.68,1.47 0,0.57 0.1,1.36 0.29,1.95 l 2.44,0 c -0.03,-0.1 -0.1,-0.44 -0.18,-0.71 -0.37,-1.17 -1.08,-2.71 -1.87,-2.71 l -0.06,-0.34 c 1.82,0 3.51,3.38 3.51,5.7 z" id="path3728" /></g>  <path id="path3432" d="m 52.126364,224.00551 128.271736,0 139.77021,0.25552 0,0 0,0 0,0" style="fill:none;fill-rule:evenodd;stroke:#000000;stroke-width:1.06220734px;stroke-linecap:butt;stroke-linejoin:miter;stroke-opacity:1" />
  <path id="path3434" d="m 319.91152,243.71384 -23.24993,-0.0225 0,0 -0.039,-39.22445 23.54442,-0.13425" style="fill:none;fill-rule:evenodd;stroke:#000000;stroke-width:1.06572926px;stroke-linecap:butt;stroke-linejoin:miter;stroke-opacity:1" />
</svg>