<?xml version='1.0' ?><svg xmlns:ns0="http://www.iki.fi/pav/software/textext/" xmlns:dc="http://purl.org/dc/elements/1.1/" xmlns:cc="http://creativecommons.org/ns#" xmlns:rdf="http://www.w3.org/1999/02/22-rdf-syntax-ns#" xmlns:svg="http://www.w3.org/2000/svg" xmlns="http://www.w3.org/2000/svg" id="svg2" version="1.1" width="379.43689" height="282.99901" viewBox="12.006999622575252 8.15865458528428 546.3129804180602 407.4617853010034" preserveAspectRatio="none">
  <metadata id="metadata209">
    <rdf:RDF>
      <cc:Work rdf:about="">
        <dc:format>image/svg+xml</dc:format>
        <dc:type rdf:resource="http://purl.org/dc/dcmitype/StillImage" />
      </cc:Work>
    </rdf:RDF>
  </metadata>
  <defs id="defs207" />
  <title id="title4" />
  <g id="g6" stroke-linecap="square" stroke-miterlimit="10.000" stroke-width="1.0000" stroke-dasharray="none" stroke-dashoffset="0.0000" stroke-linejoin="miter">
    <g id="misc" />
    <g id="layer0">
      <clipPath id="clip1">
        <path id="path11" d="M 0.0000 0.0000 L 0.0000 423.00 L 574.00 423.00 L 574.00 0.0000 z" />
      </clipPath>
      <g id="g13" clip-path="url(#clip1)">
        <g id="g15" fill="#000000" stroke="none" fill-rule="nonzero" fill-opacity=".027451">
          <path id="path17" d="M 315.16 212.67 C 315.16 204.71 312.00 197.08 306.38 191.45 L 285.16 212.67 z" />
          <title id="title19">Angle Ã&#131;Â&#142;Ã&#130;Â±</title>
          <desc id="desc21">Angle Ã&#131;Â&#142;Ã&#130;Â±: Angle between g, h</desc>
        </g>
      </g>
      <clipPath id="clip2">
        <path id="path24" d="M 0.0000 0.0000 L 0.0000 423.00 L 574.00 423.00 L 574.00 0.0000 z" />
      </clipPath>
      <g id="g26" clip-path="url(#clip2)">
        <g id="g28" stroke="#000000" stroke-opacity="1.0000" fill="none" stroke-linecap="round" stroke-linejoin="round">
          <path id="path30" d="M 315.16 212.67 C 315.16 204.71 312.00 197.08 306.38 191.45 L 285.16 212.67 z" />
          <title id="title32">Angle Ã&#131;Â&#142;Ã&#130;Â±</title>
          <desc id="desc34">Angle Ã&#131;Â&#142;Ã&#130;Â±: Angle between g, h</desc>
        </g>
      </g>
      <clipPath id="clip3">
        <path id="path37" d="M 0.0000 0.0000 L 0.0000 423.00 L 574.00 423.00 L 574.00 0.0000 z" />
      </clipPath>
      <g id="g39" clip-path="url(#clip3)">
        <g id="g41" stroke="#000000" stroke-opacity="1.0000" fill="none" stroke-linecap="butt" stroke-dasharray="5.0000,4.0000" stroke-linejoin="round">
          <path id="path43" d="M 285.16 8.0282 L 285.16 415.49" />
          <title id="title45">Segment f</title>
          <desc id="desc47">Segment f: Segment [B, C]</desc>
        </g>
      </g>
      <clipPath id="clip4">
        <path id="path50" d="M 0.0000 0.0000 L 0.0000 423.00 L 574.00 423.00 L 574.00 0.0000 z" />
      </clipPath>
      <g id="g52" clip-path="url(#clip4)">
        <g id="g54" stroke="#000000" stroke-opacity="1.0000" fill="none" stroke-linecap="butt" stroke-dasharray="5.0000,4.0000" stroke-linejoin="round">
          <path id="path56" d="M 12.007 212.67 L 558.32 212.67" />
          <title id="title58">Segment g</title>
          <desc id="desc60">Segment g: Segment [A, D]</desc>
        </g>
      </g>
      <clipPath id="clip5">
        <path id="path63" d="M 0.0000 0.0000 L 0.0000 423.00 L 574.00 423.00 L 574.00 0.0000 z" />
      </clipPath>
      <g id="g65" clip-path="url(#clip5)">
        <g id="g67" stroke="#000000" stroke-opacity="1.0000" fill="none" stroke-linecap="butt" stroke-width="2.0000" stroke-dasharray="10.000,8.0000" stroke-linejoin="round">
          <path id="path69" d="M 285.16 212.67 L 455.89 212.67" />
          <title id="title71">Segment k</title>
          <desc id="desc73">Segment k: Segment [F, J]</desc>
        </g>
      </g>
      <clipPath id="clip6">
        <path id="path76" d="M 0.0000 0.0000 L 0.0000 423.00 L 574.00 423.00 L 574.00 0.0000 z" />
      </clipPath>
      <g id="g78" clip-path="url(#clip6)">
        <g id="g80" stroke="#000000" stroke-opacity="1.0000" fill="none" stroke-linecap="butt" stroke-width="2.0000" stroke-dasharray="10.000,8.0000" stroke-linejoin="round">
          <path id="path82" d="M 421.74 212.67 L 421.74 280.96" />
          <title id="title84">Segment l</title>
          <desc id="desc86">Segment l: Segment [I, G]</desc>
        </g>
      </g>
      <clipPath id="clip7">
        <path id="path89" d="M 0.0000 0.0000 L 0.0000 423.00 L 574.00 423.00 L 574.00 0.0000 z" />
      </clipPath>
      <g id="g91" clip-path="url(#clip7)">
        <g id="g93" stroke="#000000" stroke-opacity="1.0000" fill="none" stroke-linecap="butt" stroke-width="2.0000" stroke-dasharray="10.000,8.0000" stroke-linejoin="round">
          <path id="path95" d="M 455.89 212.67 L 455.89 41.943" />
          <title id="title97">Segment m</title>
          <desc id="desc99">Segment m: Segment [J, H]</desc>
        </g>
      </g>
      <clipPath id="clip8">
        <path id="path102" d="M 0.0000 0.0000 L 0.0000 423.00 L 574.00 423.00 L 574.00 0.0000 z" />
      </clipPath>
      <g id="g104" clip-path="url(#clip8)">
        <g id="g106" stroke="#000000" stroke-opacity="1.0000" fill="none" stroke-linecap="butt" stroke-width="2.0000" stroke-dasharray="10.000,8.0000" stroke-linejoin="round">
          <path id="path108" d="M 50.000 212.67 L 285.16 212.67" />
          <title id="title110">Segment p</title>
          <desc id="desc112">Segment p: Segment [L, F]</desc>
        </g>
      </g>
      <clipPath id="clip9">
        <path id="path115" d="M 0.0000 0.0000 L 0.0000 423.00 L 574.00 423.00 L 574.00 0.0000 z" />
      </clipPath>
      <g id="g117" clip-path="url(#clip9)">
        <g id="g119" stroke="#000000" stroke-opacity="1.0000" fill="none" stroke-linecap="butt" stroke-width="2.0000" stroke-dasharray="10.000,8.0000" stroke-linejoin="round">
          <path id="path121" d="M 50.000 212.67 L 50.000 275.00" />
          <title id="title123">Segment q</title>
          <desc id="desc125">Segment q: Segment [L, K]</desc>
        </g>
      </g>
      <clipPath id="clip10">
        <path id="path128" d="M 0.0000 0.0000 L 0.0000 423.00 L 574.00 423.00 L 574.00 0.0000 z" />
      </clipPath>
      <g id="g130" clip-path="url(#clip10)">
        <g id="g132" stroke="#000000" stroke-opacity="1.0000" fill="none" stroke-linecap="round" stroke-width="3.0000" stroke-linejoin="round">
          <path id="path134" d="M 285.16 212.67 L 443.16 54.671" />
          <title id="title136">Vector v</title>
          <desc id="desc138">Vector v: Vector[(0, 0), (2.5, 2.5)]</desc>
        </g>
      </g>
      <clipPath id="clip11">
        <path id="path141" d="M 0.0000 0.0000 L 0.0000 423.00 L 574.00 423.00 L 574.00 0.0000 z" />
      </clipPath>
      <g id="g143" clip-path="url(#clip11)">
        <g id="g145" fill="#000000" stroke="none" fill-rule="evenodd" fill-opacity="1.0000">
          <path id="path147" d="M 455.89 41.943 L 446.34 57.853 L 439.98 51.489 z" />
          <title id="title149">Vector v</title>
          <desc id="desc151">Vector v: Vector[(0, 0), (2.5, 2.5)]</desc>
        </g>
      </g>
      <clipPath id="clip12">
        <path id="path154" d="M 0.0000 0.0000 L 0.0000 423.00 L 574.00 423.00 L 574.00 0.0000 z" />
      </clipPath>
      <g id="g156" clip-path="url(#clip12)">
        <g id="g158" stroke="#000000" stroke-opacity="1.0000" fill="none" stroke-linecap="round" stroke-width="3.0000" stroke-linejoin="round">
          <path id="path160" d="M 285.16 212.67 L 405.64 272.91" />
          <title id="title162">Vector u</title>
          <desc id="desc164">Vector u: Vector[(0, 0), (2, -1)]</desc>
        </g>
      </g>
      <clipPath id="clip13">
        <path id="path167" d="M 0.0000 0.0000 L 0.0000 423.00 L 574.00 423.00 L 574.00 0.0000 z" />
      </clipPath>
      <g id="g169" clip-path="url(#clip13)">
        <g id="g171" fill="#000000" stroke="none" fill-rule="evenodd" fill-opacity="1.0000">
          <path id="path173" d="M 421.74 280.96 L 403.63 276.93 L 407.66 268.88 z" />
          <title id="title175">Vector u</title>
          <desc id="desc177">Vector u: Vector[(0, 0), (2, -1)]</desc>
        </g>
      </g>
      <clipPath id="clip14">
        <path id="path180" d="M 0.0000 0.0000 L 0.0000 423.00 L 574.00 423.00 L 574.00 0.0000 z" />
      </clipPath>
      <g id="g182" clip-path="url(#clip14)">
        <g id="g184" stroke="#000000" stroke-opacity="1.0000" fill="none" stroke-linecap="round" stroke-width="3.0000" stroke-linejoin="round">
          <path id="path186" d="M 285.16 212.67 L 67.399 270.39" />
          <title id="title188">Vector w</title>
          <desc id="desc190">Vector w: Vector[F, K]</desc>
        </g>
      </g>
      <clipPath id="clip15">
        <path id="path193" d="M 0.0000 0.0000 L 0.0000 423.00 L 574.00 423.00 L 574.00 0.0000 z" />
      </clipPath>
      <g id="g195" clip-path="url(#clip15)">
        <g id="g197" fill="#000000" stroke="none" fill-rule="evenodd" fill-opacity="1.0000">
          <path id="path199" d="M 50.000 275.00 L 66.246 266.04 L 68.552 274.74 z" />
          <title id="title201">Vector w</title>
          <desc id="desc203">Vector w: Vector[F, K]</desc>
        </g>
      </g>
    </g>
  </g>
  <g ns0:preamble="/Users/ABaker/cmep/Inkscape/underground-inkscape-preamble.tex" ns0:text="$45^{\\circ}$\n" word-spacing="normal" letter-spacing="normal" font-size-adjust="none" font-stretch="normal" font-weight="normal" font-variant="normal" font-style="normal" stroke-miterlimit="10.433" xml:space="preserve" transform="matrix(2,0,0,-2,-133.01691,1159.4678)" id="content" style="font-style:normal;font-variant:normal;font-weight:normal;font-stretch:normal;letter-spacing:normal;word-spacing:normal;text-anchor:start;fill:none;fill-opacity:1;fill-rule:evenodd;stroke:#000000;stroke-linecap:butt;stroke-linejoin:miter;stroke-miterlimit:10.43299961;stroke-dasharray:none;stroke-dashoffset:0;stroke-opacity:1"><polygon id="polygon3651" points="227.8,479.96 227.8,485.22 227.28,485.22 223.57,479.96 224.05,479.96 226.88,484.01 226.88,479.96 224.05,479.96 223.57,479.96 223.57,479.21 226.88,479.21 226.88,477.23 227.8,477.23 227.8,479.21 229.02,479.21 229.02,479.96 " style="fill:#000000;stroke-width:0" /><path id="path3653" d="m 234.53,485.27 -0.11,0.09 c -0.19,-0.25 -0.29,-0.31 -0.57,-0.31 l -2.44,0 -1.29,-2.8 c 0,0 -0.01,-0.03 -0.01,-0.06 0,-0.07 0.04,-0.09 0.14,-0.09 1.14,0 1.96,-0.38 2.52,-0.83 0.53,-0.42 0.79,-1.01 0.79,-1.77 0,-1.01 -0.77,-1.99 -1.6,-1.99 -0.23,0 -0.5,0.1 -0.83,0.37 -0.38,0.31 -0.61,0.37 -0.88,0.37 -0.33,0 -0.53,-0.15 -0.53,-0.45 0,-0.45 0.62,-0.73 1.5,-0.73 0.8,0 1.45,0.18 2.01,0.58 0.8,0.59 1.15,1.32 1.15,2.45 0,0.63 -0.1,1.08 -0.41,1.5 -0.67,0.94 -1.26,1.2 -2.95,1.51 l 0.47,1.01 2.29,0 c 0.19,0 0.29,0.07 0.32,0.15 z" style="fill:#000000;stroke-width:0" /><path id="path3655" d="m 238.03,483.45 0,0.07 0,0.06 -0.01,0.06 -0.01,0.05 -0.02,0.06 -0.01,0.06 -0.02,0.05 -0.02,0.06 -0.03,0.05 -0.02,0.05 -0.03,0.05 -0.03,0.05 -0.03,0.05 -0.04,0.04 -0.04,0.05 -0.04,0.04 -0.04,0.04 -0.04,0.04 -0.04,0.03 -0.05,0.03 -0.05,0.04 -0.05,0.02 -0.05,0.03 -0.05,0.03 -0.05,0.02 -0.06,0.02 -0.06,0.01 -0.05,0.02 -0.06,0.01 -0.06,0 -0.06,0.01 -0.06,0 0,-0.58 c 0.32,0 0.6,-0.27 0.6,-0.62 l 0,0 c 0,-0.34 -0.27,-0.61 -0.62,-0.61 -0.34,0 -0.61,0.26 -0.61,0.63 0,0.33 0.26,0.6 0.63,0.6 l 0,0.58 c -0.68,0 -1.22,-0.51 -1.22,-1.18 0,-0.68 0.53,-1.21 1.2,-1.21 0.67,0 1.2,0.53 1.2,1.19 z" style="fill:#000000;stroke-width:0" /></g>  <g style="font-style:normal;font-variant:normal;font-weight:normal;font-stretch:normal;letter-spacing:normal;word-spacing:normal;text-anchor:start;fill:none;fill-opacity:1;fill-rule:evenodd;stroke:#000000;stroke-linecap:butt;stroke-linejoin:miter;stroke-miterlimit:10.43299961;stroke-dasharray:none;stroke-dashoffset:0;stroke-opacity:1" id="g3889" transform="matrix(2,0,0,-2,-102.86179,1060.1766)" xml:space="preserve" stroke-miterlimit="10.433" font-style="normal" font-variant="normal" font-weight="normal" font-stretch="normal" font-size-adjust="none" letter-spacing="normal" word-spacing="normal" ns0:text="$\\quantity{10}{N}$" ns0:preamble="/Users/ABaker/cmep/Inkscape/underground-inkscape-preamble.tex"><path style="fill:#000000;stroke-width:0" d="m 228.08,477.23 0,0.18 c -0.88,0 -1.12,0.21 -1.12,0.72 l 0,7.05 -0.1,0.04 -2.12,-1.08 0,-0.16 0.32,0.11 c 0.21,0.09 0.41,0.15 0.53,0.15 0.25,0 0.36,-0.18 0.36,-0.58 l 0,-5.3 c 0,-0.65 -0.25,-0.9 -1.13,-0.95 l 0,-0.18 z" id="path3891" /><path style="fill:#000000;stroke-width:0" d="m 234.98,481.13 -0.01,0.23 -0.01,0.22 -0.01,0.21 -0.02,0.21 -0.03,0.21 -0.03,0.2 -0.04,0.19 -0.05,0.19 -0.05,0.18 -0.05,0.18 -0.06,0.17 -0.07,0.17 -0.07,0.16 -0.07,0.15 -0.08,0.14 -0.08,0.14 -0.09,0.13 -0.1,0.13 -0.09,0.11 -0.11,0.11 -0.1,0.1 -0.11,0.1 -0.12,0.08 -0.11,0.08 -0.12,0.07 -0.13,0.06 -0.13,0.05 -0.13,0.04 -0.13,0.03 -0.14,0.03 -0.14,0.01 -0.15,0.01 c -1.9,0 -2.71,-1.93 -2.71,-4.02 0,-1.93 0.65,-4.13 2.67,-4.13 l 0,0.31 c -1.02,0 -1.54,1.34 -1.54,3.74 0,2.4 0.53,3.79 1.51,3.79 1.04,0 1.56,-1.38 1.56,-3.84 l 0,0 c 0,-2.34 -0.53,-3.69 -1.53,-3.69 l 0,-0.31 c 1.92,0 2.67,2.03 2.67,4.06 z" id="path3893" /><path style="fill:#000000;stroke-width:0" d="m 245.29,485.05 -2.8,0 0,-0.22 c 0.52,-0.06 0.73,-0.09 0.93,-0.31 0.18,-0.2 0.23,-0.56 0.23,-1.16 l 0,-4.01 -4.56,5.7 -2.01,0 0,-0.22 c 0.58,0 0.76,-0.15 1.15,-0.63 l 0,-5.19 c 0,-1.27 -0.18,-1.44 -1.15,-1.55 l 0,-0.23 2.76,0 0,0.23 c -0.91,0.13 -1.1,0.33 -1.1,1.55 l 0,4.58 5.21,-6.48 0.21,0 0,6.11 c 0,0.93 0.12,1.19 0.35,1.39 0.15,0.13 0.33,0.17 0.78,0.22 z" id="path3895" /></g>  <g ns0:preamble="/Users/ABaker/cmep/Inkscape/underground-inkscape-preamble.tex" ns0:text="$\\quantity{6\\mathbf{i} - 3\\mathbf{j}}{N}$" word-spacing="normal" letter-spacing="normal" font-size-adjust="none" font-stretch="normal" font-weight="normal" font-variant="normal" font-style="normal" stroke-miterlimit="10.433" xml:space="preserve" transform="matrix(2,0,0,-2,-144.78476,1234.4879)" id="g4137" style="font-style:normal;font-variant:normal;font-weight:normal;font-stretch:normal;letter-spacing:normal;word-spacing:normal;text-anchor:start;fill:none;fill-opacity:1;fill-rule:evenodd;stroke:#000000;stroke-linecap:butt;stroke-linejoin:miter;stroke-miterlimit:10.43299961;stroke-dasharray:none;stroke-dashoffset:0;stroke-opacity:1"><path id="path4139" d="m 228.7,485.31 -0.15,-0.02 -0.15,-0.01 -0.14,-0.02 -0.14,-0.02 -0.14,-0.02 -0.13,-0.03 -0.13,-0.02 -0.13,-0.02 -0.12,-0.03 -0.12,-0.03 -0.12,-0.03 -0.11,-0.03 -0.12,-0.03 -0.11,-0.04 -0.1,-0.04 -0.11,-0.04 -0.11,-0.04 -0.1,-0.05 -0.1,-0.05 -0.1,-0.05 -0.1,-0.06 -0.1,-0.05 -0.1,-0.07 -0.09,-0.06 -0.1,-0.07 -0.09,-0.07 -0.1,-0.08 -0.09,-0.08 -0.1,-0.08 -0.09,-0.09 -0.09,-0.1 -0.1,-0.09 c -0.84,-0.87 -1.29,-1.99 -1.29,-3.26 0,-0.83 0.23,-1.67 0.56,-2.27 0.41,-0.75 1.15,-1.19 2.09,-1.19 l 0.13,0.33 c -1.11,0 -1.68,1.18 -1.68,2.98 0,1.08 0.7,1.36 1.37,1.36 1.1,0 1.6,-0.77 1.6,-2.29 l 0,0 c 0,-1.2 -0.44,-2.05 -1.29,-2.05 l -0.13,-0.33 c 0.78,0 1.44,0.32 1.87,0.86 0.39,0.47 0.61,1.14 0.61,1.89 0,1.52 -0.85,2.47 -2.23,2.47 -0.52,0 -0.93,-0.09 -1.5,-0.53 0.31,1.78 1.64,3.05 3.49,3.36 z" style="fill:#000000;stroke-width:0" /><path id="path4141" d="m 231.89,484.47 0,0.05 0,0.05 -0.01,0.04 0,0.05 -0.01,0.04 -0.02,0.05 -0.01,0.04 -0.02,0.04 -0.01,0.04 -0.02,0.04 -0.03,0.04 -0.02,0.04 -0.02,0.03 -0.03,0.04 -0.03,0.03 -0.03,0.03 -0.03,0.03 -0.03,0.03 -0.04,0.03 -0.03,0.03 -0.04,0.02 -0.04,0.02 -0.03,0.02 -0.04,0.02 -0.04,0.02 -0.05,0.01 -0.04,0.01 -0.04,0.01 -0.05,0.01 -0.04,0.01 -0.05,0 -0.04,0 c -0.53,0 -0.94,-0.4 -0.94,-0.92 0,-0.52 0.39,-0.91 0.91,-0.91 0.52,0 0.92,0.39 0.92,0.91 z" style="fill:#000000;stroke-width:0" /><path id="path4143" d="m 232.38,477.23 0,0.29 c -0.42,0.06 -0.57,0.21 -0.57,0.72 l 0,4.44 -2.28,0 0,-0.29 c 0.52,-0.1 0.64,-0.22 0.64,-0.75 l 0,-3.37 c 0,-0.54 -0.08,-0.62 -0.63,-0.75 l 0,-0.29 z" style="fill:#000000;stroke-width:0" /><polygon id="polygon4145" points="242.18,480.61 235.61,480.61 235.61,479.83 242.18,479.83 " style="fill:#000000;stroke-width:0" /><path id="path4147" d="m 245.9,483.26 0.05,0.08 0.05,0.07 0.04,0.08 0.05,0.07 0.05,0.07 0.04,0.07 0.05,0.06 0.05,0.06 0.05,0.06 0.05,0.05 0.05,0.06 0.05,0.05 0.05,0.04 0.06,0.05 0.05,0.04 0.05,0.04 0.06,0.04 0.05,0.03 0.06,0.03 0.05,0.03 0.06,0.03 0.06,0.02 0.06,0.03 0.06,0.02 0.06,0.01 0.06,0.02 0.06,0.01 0.07,0.01 0.06,0.01 0.07,0 0.07,0.01 0.06,0 c 0.78,0 1.28,-0.4 1.28,-1.21 0,-0.72 -0.38,-1.25 -0.96,-1.58 -0.23,-0.14 -0.54,-0.27 -0.99,-0.42 l 0,-0.17 c 0.67,0 0.95,-0.03 1.21,-0.12 0.81,-0.23 1.22,-0.81 1.22,-1.71 0,-1 -0.66,-1.81 -1.53,-1.81 -0.33,0 -0.58,0.06 -1.02,0.37 -0.33,0.24 -0.52,0.31 -0.72,0.31 -0.27,0 -0.48,-0.18 -0.48,-0.43 0,-0.42 0.46,-0.67 1.32,-0.67 1.05,0 2.17,0.34 2.74,1.1 0.34,0.45 0.54,1.03 0.54,1.65 0,0.61 -0.19,1.16 -0.52,1.52 -0.24,0.26 -0.46,0.4 -0.98,0.63 0.8,0.47 1.1,1.06 1.1,1.63 0,0.97 -0.74,1.62 -1.84,1.62 -1.23,0 -1.97,-0.8 -2.31,-1.92 z" style="fill:#000000;stroke-width:0" /><path id="path4149" d="m 254.21,484.47 0,0.05 0,0.04 -0.01,0.05 0,0.04 -0.01,0.05 -0.02,0.04 -0.01,0.04 -0.02,0.05 -0.02,0.04 -0.02,0.04 -0.02,0.03 -0.02,0.04 -0.03,0.04 -0.03,0.03 -0.02,0.04 -0.03,0.03 -0.04,0.03 -0.03,0.03 -0.03,0.03 -0.04,0.02 -0.04,0.03 -0.03,0.02 -0.04,0.02 -0.04,0.02 -0.04,0.02 -0.05,0.01 -0.04,0.01 -0.04,0.01 -0.05,0.01 -0.04,0.01 -0.05,0 -0.05,0 c -0.51,0 -0.92,-0.4 -0.92,-0.92 0,-0.52 0.38,-0.91 0.9,-0.91 0.53,0 0.93,0.39 0.93,0.91 z" style="fill:#000000;stroke-width:0" /><path id="path4151" d="m 254.18,482.68 -2.39,0 0,-0.29 c 0.61,-0.04 0.75,-0.19 0.75,-0.69 l 0,-5.6 c 0,-0.62 -0.17,-0.9 -0.57,-0.9 -0.22,0 -0.38,0.09 -0.38,0.2 0,0.06 0.04,0.15 0.11,0.27 0.12,0.17 0.16,0.31 0.16,0.43 0,0.36 -0.3,0.64 -0.69,0.64 -0.44,0 -0.73,-0.3 -0.73,-0.72 0,-0.7 0.68,-1.18 1.65,-1.18 0.81,0 1.44,0.32 1.77,0.9 0.22,0.37 0.32,0.82 0.32,1.52 z" style="fill:#000000;stroke-width:0" /><path id="path4153" d="m 265.06,485.05 -2.8,0 0,-0.22 c 0.52,-0.06 0.73,-0.09 0.93,-0.31 0.18,-0.2 0.23,-0.56 0.23,-1.16 l 0,-4.01 -4.56,5.7 -2,0 0,-0.22 c 0.57,0 0.75,-0.15 1.14,-0.63 l 0,-5.19 c 0,-1.27 -0.18,-1.44 -1.14,-1.55 l 0,-0.23 2.76,0 0,0.23 c -0.91,0.13 -1.1,0.33 -1.1,1.55 l 0,4.58 5.21,-6.48 0.21,0 0,6.11 c 0,0.93 0.12,1.19 0.34,1.39 0.15,0.13 0.33,0.17 0.78,0.22 z" style="fill:#000000;stroke-width:0" /></g>  <g style="font-style:normal;font-variant:normal;font-weight:normal;font-stretch:normal;letter-spacing:normal;word-spacing:normal;text-anchor:start;fill:none;fill-opacity:1;fill-rule:evenodd;stroke:#000000;stroke-linecap:butt;stroke-linejoin:miter;stroke-miterlimit:10.43299961;stroke-dasharray:none;stroke-dashoffset:0;stroke-opacity:1" id="g4413" transform="matrix(2,0,0,-2,-335.27683,1233.7524)" xml:space="preserve" stroke-miterlimit="10.433" font-style="normal" font-variant="normal" font-weight="normal" font-stretch="normal" font-size-adjust="none" letter-spacing="normal" word-spacing="normal" ns0:text="$\\quantity{p\\mathbf{i} + q\\mathbf{j}}{N}$" ns0:preamble="/Users/ABaker/cmep/Inkscape/underground-inkscape-preamble.tex"><path style="fill:#000000;stroke-width:0" d="m 226.42,481.6 -0.04,0.03 0.22,0.81 -1.87,-0.28 0.02,-0.19 c 0.1,0.02 0.24,0.05 0.34,0.05 0.35,0 0.36,-0.17 0.36,-0.39 l -1.38,-5.48 c -0.14,-0.54 -0.22,-0.9 -0.96,-0.93 l -0.03,-0.14 2.76,0 0.04,0.14 -0.19,0 c -0.59,0 -0.72,0.24 -0.72,0.5 0,0.13 0.02,0.26 0.06,0.42 l 0.28,1.18 c 0.22,-0.18 0.44,-0.23 0.72,-0.23 l -0.07,0.35 c -0.14,0 -0.38,0.05 -0.55,0.24 l 0.55,2.37 c 0.24,1.01 0.85,1.73 1.47,1.73 0.28,0 0.61,-0.24 0.61,-0.98 0,-1.32 -0.89,-3.36 -2.08,-3.36 l 0.07,-0.35 c 1.7,0 3,2 3,3.52 0,1.19 -0.39,1.83 -1.11,1.83 -0.41,0 -0.88,-0.25 -1.34,-0.68 z" id="path4415" /><path style="fill:#000000;stroke-width:0" d="m 231.76,484.47 0,0.05 0,0.05 -0.01,0.04 0,0.05 -0.01,0.04 -0.02,0.05 -0.01,0.04 -0.02,0.04 -0.01,0.04 -0.02,0.04 -0.03,0.04 -0.02,0.04 -0.02,0.03 -0.03,0.04 -0.03,0.03 -0.03,0.03 -0.03,0.03 -0.03,0.03 -0.04,0.03 -0.03,0.03 -0.04,0.02 -0.04,0.02 -0.03,0.02 -0.04,0.02 -0.04,0.02 -0.05,0.01 -0.04,0.01 -0.04,0.01 -0.05,0.01 -0.04,0.01 -0.05,0 -0.04,0 c -0.53,0 -0.94,-0.4 -0.94,-0.92 0,-0.52 0.39,-0.91 0.91,-0.91 0.52,0 0.92,0.39 0.92,0.91 z" id="path4417" /><path style="fill:#000000;stroke-width:0" d="m 232.25,477.23 0,0.29 c -0.41,0.06 -0.57,0.21 -0.57,0.72 l 0,4.44 -2.28,0 0,-0.29 c 0.52,-0.1 0.64,-0.22 0.64,-0.75 l 0,-3.37 c 0,-0.54 -0.08,-0.62 -0.63,-0.75 l 0,-0.29 z" id="path4419" /><polygon style="fill:#000000;stroke-width:0" points="242.23,480.61 239.15,480.61 239.15,483.69 238.37,483.69 238.37,480.61 235.29,480.61 235.29,479.83 238.37,479.83 238.37,476.75 239.15,476.75 239.15,479.83 242.23,479.83 " id="polygon4421" /><path style="fill:#000000;stroke-width:0" d="m 250.52,482.29 -0.96,0 -0.08,-0.46 -0.03,0 c -0.03,0.3 -0.29,0.61 -0.85,0.61 l 0.1,-0.34 c 0.43,0 0.58,-0.37 0.58,-0.87 l 0,0 c 0,-1.34 -0.71,-2.68 -1.45,-3.22 -0.21,-0.15 -0.48,-0.2 -0.69,-0.2 -0.5,0 -0.61,0.43 -0.61,0.75 0,1.04 0.7,2.61 1.45,3.22 0.24,0.19 0.48,0.32 0.72,0.32 l -0.1,0.34 c -0.33,0 -0.71,-0.15 -1.08,-0.4 -1.05,-0.68 -1.99,-2.14 -1.99,-3.59 0,-0.67 0.29,-1.36 1.05,-1.36 0.42,0 1.13,0.12 1.92,1.22 l 0.07,0 -0.52,-2.17 c -0.1,-0.44 -0.29,-0.92 -1.09,-0.92 l -0.23,0 -0.03,-0.14 2.95,0 0.03,0.14 -0.16,0 c -0.36,0 -0.58,0.21 -0.58,0.56 0,0.11 0,0.23 0.03,0.34 z" id="path4423" /><path style="fill:#000000;stroke-width:0" d="m 253.59,484.47 -0.01,0.05 0,0.04 0,0.05 -0.01,0.04 -0.01,0.05 -0.02,0.04 -0.01,0.04 -0.02,0.05 -0.01,0.04 -0.02,0.04 -0.03,0.03 -0.02,0.04 -0.03,0.04 -0.02,0.03 -0.03,0.04 -0.03,0.03 -0.03,0.03 -0.04,0.03 -0.03,0.03 -0.04,0.02 -0.03,0.03 -0.04,0.02 -0.04,0.02 -0.04,0.02 -0.04,0.02 -0.04,0.01 -0.05,0.01 -0.04,0.01 -0.05,0.01 -0.04,0.01 -0.05,0 -0.04,0 c -0.52,0 -0.92,-0.4 -0.92,-0.92 0,-0.52 0.37,-0.91 0.89,-0.91 0.53,0 0.94,0.39 0.94,0.91 z" id="path4425" /><path style="fill:#000000;stroke-width:0" d="m 253.55,482.68 -2.38,0 0,-0.29 c 0.6,-0.04 0.74,-0.19 0.74,-0.69 l 0,-5.6 c 0,-0.62 -0.17,-0.9 -0.57,-0.9 -0.22,0 -0.38,0.09 -0.38,0.2 0,0.06 0.04,0.15 0.11,0.27 0.12,0.17 0.17,0.31 0.17,0.43 0,0.36 -0.31,0.64 -0.7,0.64 -0.44,0 -0.73,-0.3 -0.73,-0.72 0,-0.7 0.68,-1.18 1.65,-1.18 0.81,0 1.44,0.32 1.77,0.9 0.23,0.37 0.32,0.82 0.32,1.52 z" id="path4427" /><path style="fill:#000000;stroke-width:0" d="m 264.43,485.05 -2.8,0 0,-0.22 c 0.52,-0.06 0.74,-0.09 0.94,-0.31 0.17,-0.2 0.22,-0.56 0.22,-1.16 l 0,-4.01 -4.56,5.7 -2,0 0,-0.22 c 0.57,0 0.75,-0.15 1.14,-0.63 l 0,-5.19 c 0,-1.27 -0.17,-1.44 -1.14,-1.55 l 0,-0.23 2.76,0 0,0.23 c -0.91,0.13 -1.1,0.33 -1.1,1.55 l 0,4.58 5.21,-6.48 0.21,0 0,6.11 c 0,0.93 0.12,1.19 0.34,1.39 0.16,0.13 0.33,0.17 0.78,0.22 z" id="path4429" /></g></svg>