<?xml version='1.0' ?><svg xmlns:ns0="http://www.iki.fi/pav/software/textext/" xmlns:dc="http://purl.org/dc/elements/1.1/" xmlns:cc="http://creativecommons.org/ns#" xmlns:rdf="http://www.w3.org/1999/02/22-rdf-syntax-ns#" xmlns:svg="http://www.w3.org/2000/svg" xmlns="http://www.w3.org/2000/svg" id="svg2" version="1.1" width="337.32865" height="232.39658" viewBox="92.84759501011652 116.6990042403814 148.90709707377755 102.58689885271801" preserveAspectRatio="none">
  <metadata id="metadata63">
    <rdf:RDF>
      <cc:Work rdf:about="">
        <dc:format>image/svg+xml</dc:format>
        <dc:type rdf:resource="http://purl.org/dc/dcmitype/StillImage" />
        <dc:title />
      </cc:Work>
    </rdf:RDF>
  </metadata>
  <defs id="defs61">
    <marker style="overflow:visible;" id="Arrow2Mend" refX="0.0" refY="0.0" orient="auto">
      <path transform="scale(0.6) rotate(180) translate(0,0)" d="M 8.7185878,4.0337352 L -2.2072895,0.016013256 L 8.7185884,-4.0017078 C 6.9730900,-1.6296469 6.9831476,1.6157441 8.7185878,4.0337352 z " style="fill-rule:evenodd;stroke-width:0.625;stroke-linejoin:round;stroke:#000000;stroke-opacity:1;fill:#000000;fill-opacity:1" id="path4235" />
    </marker>
    <clipPath id="clip2">
      <path d="m 0,0 0,338 379,0 0,-338 z" id="path18" />
    </clipPath>
    <clipPath id="clip4">
      <path d="m 0,0 0,338 379,0 0,-338 z" id="path36" />
    </clipPath>
  </defs>
  <g transform="matrix(0.30053457,0,0,0.30053457,106.60658,117.70523)" style="fill:none;stroke:#000000;stroke-width:3.1334765;stroke-linecap:butt;stroke-linejoin:miter;stroke-miterlimit:10;stroke-dasharray:none;stroke-dashoffset:0;stroke-opacity:1" id="g13">
    <path style="stroke-width:3.1334765;stroke-miterlimit:10;stroke-dasharray:none" id="path15" d="m 153.82,3 0,335" />
  </g>
  <g transform="matrix(0.38998318,0,0,0.38998318,92.847592,115.91905)" clip-path="url(#clip2)" id="g20" style="stroke-width:1;stroke-linecap:square;stroke-linejoin:miter;stroke-miterlimit:10;stroke-dasharray:none;stroke-dashoffset:0">
    <g id="g22" style="fill:#000000;fill-opacity:1;fill-rule:evenodd;stroke:none">
      <path d="m 153.82,2 -4,16 8,0" id="path24" />
    </g>
  </g>
  <g transform="matrix(0.38998318,0,0,0.38998318,92.847592,104.61841)" style="fill:none;stroke:#000000;stroke-width:2.41476573;stroke-linecap:butt;stroke-linejoin:miter;stroke-miterlimit:10;stroke-dasharray:none;stroke-dashoffset:0;stroke-opacity:1" id="g31">
    <path style="stroke-width:2.41476573;stroke-miterlimit:10;stroke-dasharray:none" id="path33" d="m 0,137.95 376,0" />
  </g>
  <g transform="matrix(0.38998318,0,0,0.38998318,94.731028,104.61841)" clip-path="url(#clip4)" id="g38" style="stroke-width:1;stroke-linecap:square;stroke-linejoin:miter;stroke-miterlimit:10;stroke-dasharray:none;stroke-dashoffset:0">
    <g id="g40" style="fill:#000000;fill-opacity:1;fill-rule:evenodd;stroke:none">
      <path d="m 377,137.95 -16,-4 0,8" id="path42" />
    </g>
  </g>
  <g transform="matrix(0.38998318,0,0,0.38998318,92.847592,104.61841)" id="misc" style="stroke-width:1;stroke-linecap:square;stroke-linejoin:miter;stroke-miterlimit:10;stroke-dasharray:none;stroke-dashoffset:0" />
  <g transform="matrix(0.38998318,0,0,0.38998318,92.847592,104.61841)" id="layer0" style="stroke-width:1;stroke-linecap:square;stroke-linejoin:miter;stroke-miterlimit:10;stroke-dasharray:none;stroke-dashoffset:0">
    <clipPath id="clip5">
      <path d="m 0,0 0,338 379,0 0,-338 z" id="path47" />
    </clipPath>
    <g clip-path="url(#clip5)" id="g49">
      <g id="g51" style="fill:none;stroke:#000000;stroke-width:2.56421328;stroke-linecap:round;stroke-linejoin:round;stroke-opacity:1">
        <path d="M 153.82,137.95 204.1548,205.05973 254.19,271.77" id="path53" style="stroke-width:2.56421328;marker-mid:url(#Arrow2Mend)" />
        <title id="title55">Segment a</title>
        <desc id="desc57">Segment a: Segment [A, B]</desc>
      </g>
    </g>
  </g>
  <g style="font-style:normal;font-variant:normal;font-weight:normal;font-stretch:normal;letter-spacing:normal;word-spacing:normal;text-anchor:start;fill:none;fill-opacity:1;fill-rule:evenodd;stroke:#000000;stroke-linecap:butt;stroke-linejoin:miter;stroke-miterlimit:10.43299961;stroke-dasharray:none;stroke-dashoffset:0;stroke-opacity:1" id="g3518" transform="matrix(1.1105883,0,0,-1.2506014,-83.747813,767.80076)" xml:space="preserve" stroke-miterlimit="10.433" font-style="normal" font-variant="normal" font-weight="normal" font-stretch="normal" font-size-adjust="none" letter-spacing="normal" word-spacing="normal" ns0:text="$\\theta$" ns0:preamble="/Users/jonnygriffiths/CMEP/underground-inkscape-preamble.tex"><path style="fill:#000000;stroke-width:0" d="m 229.03,482.81 0,0.14 -0.01,0.14 -0.01,0.14 -0.01,0.13 -0.02,0.12 -0.02,0.12 -0.02,0.12 -0.03,0.11 -0.03,0.11 -0.03,0.1 -0.03,0.1 -0.04,0.09 -0.04,0.09 -0.05,0.08 -0.04,0.08 -0.05,0.07 -0.06,0.07 -0.05,0.07 -0.06,0.06 -0.06,0.05 -0.06,0.05 -0.06,0.05 -0.07,0.04 -0.06,0.04 -0.07,0.03 -0.07,0.03 -0.08,0.03 -0.07,0.02 -0.08,0.01 -0.07,0.01 -0.08,0.01 -0.08,0 -0.09,-0.34 c 0.49,0 0.61,-0.66 0.61,-1.52 0,-0.49 -0.12,-1.14 -0.3,-1.96 l -2.43,0 c 0.31,1.4 1.27,3.48 2.12,3.48 l 0.09,0.34 c -2.25,0 -3.62,-3.85 -3.62,-5.9 0,-1.42 0.5,-2.11 1.62,-2.11 l 0.06,0.34 c -0.51,0 -0.68,0.66 -0.68,1.47 0,0.57 0.1,1.36 0.29,1.95 l 2.44,0 c -0.03,-0.1 -0.1,-0.44 -0.18,-0.71 -0.37,-1.17 -1.08,-2.71 -1.87,-2.71 l -0.06,-0.34 c 1.82,0 3.51,3.38 3.51,5.7 z" id="path3520" /></g>  <path id="path4510" d="m 192.27723,210.76452 0,-52.43925" style="fill:none;fill-rule:evenodd;stroke:#000000;stroke-width:0.47085901;stroke-linecap:butt;stroke-linejoin:miter;stroke-opacity:1;stroke-miterlimit:4;stroke-dasharray:1.41257703,1.41257703;stroke-dashoffset:0" />
  <g style="font-style:normal;font-variant:normal;font-weight:normal;font-stretch:normal;letter-spacing:normal;word-spacing:normal;text-anchor:start;fill:none;fill-opacity:1;fill-rule:evenodd;stroke:#000000;stroke-width:1.34836245;stroke-linecap:butt;stroke-linejoin:miter;stroke-miterlimit:10.43299961;stroke-dasharray:none;stroke-dashoffset:0;stroke-opacity:1" ns0:preamble="/Users/prmb/CMEP/underground-inkscape-preamble.tex" ns0:text="$8$" text-anchor="start" word-spacing="normal" letter-spacing="normal" font-size-adjust="none" font-stretch="normal" font-weight="normal" font-variant="normal" font-style="normal" fill-opacity="1" fill-rule="evenodd" fill="none" stroke-opacity="1" stroke-dashoffset="0" stroke-dasharray="none" stroke-miterlimit="10.433" stroke-linejoin="miter" stroke-linecap="butt" stroke="black" xml:space="preserve" transform="matrix(0.50680426,0,0,-0.50680412,81.836531,426.82644)" id="g4571"><path id="path4573" fill="black" stroke-width="0" d="M228.69,479.07 L228.68,479.15 L228.68,479.24 L228.68,479.32 L228.67,479.41 L228.66,479.49 L228.64,479.57 L228.62,479.65 L228.6,479.73 L228.58,479.8 L228.55,479.88 L228.52,479.96 L228.49,480.03 L228.45,480.11 L228.41,480.18 L228.37,480.26 L228.32,480.33 L228.26,480.41 L228.2,480.48 L228.14,480.56 L228.07,480.63 L228,480.71 L227.92,480.78 L227.84,480.86 L227.75,480.94 L227.66,481.02 L227.56,481.1 L227.46,481.18 L227.35,481.27 L227.24,481.35 L227.12,481.44 L226.99,481.53 L226.86,481.61 C228.02,482.24,228.44,482.64,228.44,483.53 C228.44,484.45,227.62,485.22,226.45,485.22 L226.34,484.89 C227.14,484.89,227.62,484.34,227.62,483.53 H227.62 C227.62,482.8,227.32,482.3,226.51,481.83 C225.47,482.44,225.04,482.98,225.04,483.72 C225.04,484.45,225.54,484.89,226.34,484.89 L226.45,485.22 C225.14,485.22,224.16,484.51,224.16,483.37 C224.16,482.61,224.41,482.16,225.63,481.15 C224.37,480.27,224.09,479.81,224.09,478.99 C224.09,477.88,225.03,477.07,226.36,477.07 L226.49,477.4 C225.59,477.4,224.99,478.01,224.99,479.1 C224.99,479.87,225.24,480.35,225.93,480.92 L226.63,480.45 C227.43,479.9,227.79,479.43,227.79,478.7 C227.79,477.93,227.26,477.4,226.49,477.4 L226.36,477.07 C227.78,477.07,228.69,477.85,228.69,479.07 Z " /></g>  <g id="content" transform="matrix(0.50680426,0,0,-0.50680412,63.024993,398.02647)" xml:space="preserve" stroke-miterlimit="10.433" font-style="normal" font-variant="normal" font-weight="normal" font-stretch="normal" font-size-adjust="none" letter-spacing="normal" word-spacing="normal" ns0:text="$6$" ns0:preamble="/Users/prmb/CMEP/underground-inkscape-preamble.tex" style="font-style:normal;font-variant:normal;font-weight:normal;font-stretch:normal;letter-spacing:normal;word-spacing:normal;text-anchor:start;fill:none;fill-opacity:1;fill-rule:evenodd;stroke:#000000;stroke-width:1.34836245;stroke-linecap:butt;stroke-linejoin:miter;stroke-miterlimit:10.43299961;stroke-dasharray:none;stroke-dashoffset:0;stroke-opacity:1"><path style="fill:#000000;stroke-width:0" d="m 228.7,485.31 -0.15,-0.02 -0.15,-0.01 -0.14,-0.02 -0.14,-0.02 -0.14,-0.02 -0.13,-0.03 -0.13,-0.02 -0.13,-0.02 -0.12,-0.03 -0.12,-0.03 -0.12,-0.03 -0.11,-0.03 -0.12,-0.03 -0.11,-0.04 -0.1,-0.04 -0.11,-0.04 -0.11,-0.04 -0.1,-0.05 -0.1,-0.05 -0.1,-0.05 -0.1,-0.06 -0.1,-0.05 -0.1,-0.07 -0.09,-0.06 -0.1,-0.07 -0.09,-0.07 -0.1,-0.08 -0.09,-0.08 -0.1,-0.08 -0.09,-0.09 -0.09,-0.1 -0.1,-0.09 c -0.84,-0.87 -1.29,-1.99 -1.29,-3.26 0,-0.83 0.23,-1.67 0.56,-2.27 0.41,-0.75 1.15,-1.19 2.09,-1.19 l 0.13,0.33 c -1.11,0 -1.68,1.18 -1.68,2.98 0,1.08 0.7,1.36 1.37,1.36 1.1,0 1.6,-0.77 1.6,-2.29 l 0,0 c 0,-1.2 -0.44,-2.05 -1.29,-2.05 l -0.13,-0.33 c 0.78,0 1.44,0.32 1.87,0.86 0.39,0.47 0.61,1.14 0.61,1.89 0,1.52 -0.85,2.47 -2.23,2.47 -0.52,0 -0.93,-0.09 -1.5,-0.53 0.31,1.78 1.64,3.05 3.49,3.36 z" id="path4661" /></g>  <g style="font-style:normal;font-variant:normal;font-weight:normal;font-stretch:normal;letter-spacing:normal;word-spacing:normal;text-anchor:start;fill:none;fill-opacity:1;fill-rule:evenodd;stroke:#000000;stroke-width:1.34836245;stroke-linecap:butt;stroke-linejoin:miter;stroke-miterlimit:10.43299961;stroke-dasharray:none;stroke-dashoffset:0;stroke-opacity:1" ns0:preamble="/Users/prmb/CMEP/underground-inkscape-preamble.tex" ns0:text="$\\mathbf{i}$" word-spacing="normal" letter-spacing="normal" font-size-adjust="none" font-stretch="normal" font-weight="normal" font-variant="normal" font-style="normal" stroke-miterlimit="10.433" xml:space="preserve" transform="matrix(0.50680426,0,0,-0.50680412,119.12666,397.36057)" id="g4749"><path style="fill:#000000;stroke-width:0" id="path4751" d="m 225.97,484.47 0,0.05 0,0.05 -0.01,0.04 -0.01,0.05 -0.01,0.04 -0.01,0.05 -0.01,0.04 -0.02,0.04 -0.02,0.04 -0.02,0.04 -0.02,0.04 -0.02,0.04 -0.03,0.03 -0.02,0.04 -0.03,0.03 -0.03,0.03 -0.03,0.03 -0.04,0.03 -0.03,0.03 -0.04,0.03 -0.03,0.02 -0.04,0.02 -0.04,0.02 -0.04,0.02 -0.04,0.02 -0.04,0.01 -0.04,0.01 -0.05,0.01 -0.04,0.01 -0.05,0.01 -0.04,0 -0.05,0 c -0.53,0 -0.93,-0.4 -0.93,-0.92 0,-0.52 0.39,-0.91 0.91,-0.91 0.52,0 0.92,0.39 0.92,0.91 z" /><path style="fill:#000000;stroke-width:0" id="path4753" d="m 226.45,477.23 0,0.29 c -0.41,0.06 -0.56,0.21 -0.56,0.72 l 0,4.44 -2.28,0 0,-0.29 c 0.52,-0.1 0.64,-0.22 0.64,-0.75 l 0,-3.37 c 0,-0.54 -0.09,-0.62 -0.63,-0.75 l 0,-0.29 z" /></g>  <g id="g4849" transform="matrix(0.50680426,0,0,-0.50680412,43.048141,365.3976)" xml:space="preserve" stroke-miterlimit="10.433" font-style="normal" font-variant="normal" font-weight="normal" font-stretch="normal" font-size-adjust="none" letter-spacing="normal" word-spacing="normal" ns0:text="$\\mathbf{j}$" ns0:preamble="/Users/prmb/CMEP/underground-inkscape-preamble.tex" style="font-style:normal;font-variant:normal;font-weight:normal;font-stretch:normal;letter-spacing:normal;word-spacing:normal;text-anchor:start;fill:none;fill-opacity:1;fill-rule:evenodd;stroke:#000000;stroke-width:1.34836245;stroke-linecap:butt;stroke-linejoin:miter;stroke-miterlimit:10.43299961;stroke-dasharray:none;stroke-dashoffset:0;stroke-opacity:1"><path style="fill:#000000;stroke-width:0" d="m 226.54,484.47 0,0.05 -0.01,0.04 0,0.05 -0.01,0.04 -0.01,0.05 -0.01,0.04 -0.02,0.04 -0.02,0.05 -0.01,0.04 -0.02,0.04 -0.03,0.03 -0.02,0.04 -0.03,0.04 -0.02,0.03 -0.03,0.04 -0.03,0.03 -0.03,0.03 -0.04,0.03 -0.03,0.03 -0.04,0.02 -0.03,0.03 -0.04,0.02 -0.04,0.02 -0.04,0.02 -0.04,0.02 -0.04,0.01 -0.05,0.01 -0.04,0.01 -0.04,0.01 -0.05,0.01 -0.05,0 -0.04,0 c -0.52,0 -0.92,-0.4 -0.92,-0.92 0,-0.52 0.38,-0.91 0.89,-0.91 0.54,0 0.94,0.39 0.94,0.91 z" id="path4851" /><path style="fill:#000000;stroke-width:0" d="m 226.5,482.68 -2.38,0 0,-0.29 c 0.6,-0.04 0.74,-0.19 0.74,-0.69 l 0,-5.6 c 0,-0.62 -0.16,-0.9 -0.57,-0.9 -0.22,0 -0.37,0.09 -0.37,0.2 0,0.06 0.03,0.15 0.1,0.27 0.12,0.17 0.17,0.31 0.17,0.43 0,0.36 -0.31,0.64 -0.7,0.64 -0.44,0 -0.73,-0.3 -0.73,-0.72 0,-0.7 0.68,-1.18 1.65,-1.18 0.82,0 1.44,0.32 1.77,0.9 0.23,0.37 0.32,0.82 0.32,1.52 z" id="path4853" /></g></svg>