<?xml version='1.0' ?><svg xmlns:dc="http://purl.org/dc/elements/1.1/" xmlns:cc="http://creativecommons.org/ns#" xmlns:rdf="http://www.w3.org/1999/02/22-rdf-syntax-ns#" xmlns:svg="http://www.w3.org/2000/svg" xmlns="http://www.w3.org/2000/svg" id="svg2" version="1.1" width="320.04797" height="233.55889" viewBox="0.0 -13.738956340883535 659.1188715502009 480.9999951485944" preserveAspectRatio="none">
  <metadata id="metadata115">
    <rdf:RDF>
      <cc:Work rdf:about="">
        <dc:format>image/svg+xml</dc:format>
        <dc:type rdf:resource="http://purl.org/dc/dcmitype/StillImage" />
      </cc:Work>
    </rdf:RDF>
  </metadata>
  <defs id="defs113">
    <clipPath id="clip1">
      <path d="M 0.0000 0.0000 L 0.0000 467.00 L 641.00 467.00 L 641.00 0.0000 z" id="path9" />
    </clipPath>
    <clipPath id="clip2">
      <path d="M 0.0000 0.0000 L 0.0000 467.00 L 641.00 467.00 L 641.00 0.0000 z" id="path18" />
    </clipPath>
    <clipPath id="clip3">
      <path d="M 0.0000 0.0000 L 0.0000 467.00 L 641.00 467.00 L 641.00 0.0000 z" id="path27" />
    </clipPath>
    <clipPath id="clip4">
      <path d="M 0.0000 0.0000 L 0.0000 467.00 L 641.00 467.00 L 641.00 0.0000 z" id="path36" />
    </clipPath>
  </defs>
  <title id="title4" />
  <g clip-path="url(#clip1)" id="g11" style="stroke-width:1;stroke-linecap:square;stroke-linejoin:miter;stroke-miterlimit:10;stroke-dasharray:none;stroke-dashoffset:0">
    <g id="g13" style="fill:none;stroke:#000000;stroke-width:2;stroke-linecap:butt;stroke-opacity:1">
      <path d="m 315,3 0,464" id="path15" />
    </g>
  </g>
  <g transform="matrix(2,0,0,2,-315.11888,-18)" clip-path="url(#clip2)" id="g20" style="stroke-width:1;stroke-linecap:square;stroke-linejoin:miter;stroke-miterlimit:10;stroke-dasharray:none;stroke-dashoffset:0">
    <g id="g22" style="fill:#000000;fill-opacity:1;fill-rule:evenodd;stroke:none">
      <path d="m 315,2 -4,16 8,0" id="path24" />
    </g>
  </g>
  <g clip-path="url(#clip3)" id="g29" style="stroke-width:1;stroke-linecap:square;stroke-linejoin:miter;stroke-miterlimit:10;stroke-dasharray:none;stroke-dashoffset:0">
    <g id="g31" style="fill:none;stroke:#000000;stroke-width:2;stroke-linecap:butt;stroke-opacity:1">
      <path d="m 0,235 638,0" id="path33" />
    </g>
  </g>
  <g transform="matrix(2,0,0,2,-618.88112,-234.88112)" clip-path="url(#clip4)" id="g38" style="stroke-width:1;stroke-linecap:square;stroke-linejoin:miter;stroke-miterlimit:10;stroke-dasharray:none;stroke-dashoffset:0">
    <g id="g40" style="fill:#000000;fill-opacity:1;fill-rule:evenodd;stroke:none">
      <path d="m 639,235 -16,-4 0,8" id="path42" />
    </g>
  </g>
  <g id="misc" style="stroke-width:1;stroke-linecap:square;stroke-linejoin:miter;stroke-miterlimit:10;stroke-dasharray:none;stroke-dashoffset:0" />
  <g id="layer0" style="stroke-width:1;stroke-linecap:square;stroke-linejoin:miter;stroke-miterlimit:10;stroke-dasharray:none;stroke-dashoffset:0">
    <clipPath id="clip5">
      <path d="m 0,0 0,467 641,0 0,-467 z" id="path47" />
    </clipPath>
    <g clip-path="url(#clip5)" id="g49">
      <g id="g51" style="fill:none;stroke:#000000;stroke-width:2.5;stroke-linecap:round;stroke-linejoin:round;stroke-opacity:1">
        <path d="m 23.474,-7.7425 0.313,7.89868 0.313,7.42052 0.313,6.9853 0.313,6.587 0.313,6.223 0.313,5.889 0.313,5.581 0.313,5.298 0.313,5.035 0.626,9.36 0.626,8.521 0.626,7.793 0.626,7.156 0.626,6.597 0.626,6.103 0.626,5.665 0.626,5.27 1.252,9.53 1.252,8.38 1.252,7.45 1.252,6.67 1.252,6.01 1.252,5.45 1.251,4.98 2.504,8.78 2.504,7.53 2.504,6.56 2.504,5.79 5.008,9.88 5.008,8.23 5.008,7.12 5.007,6.35 5.008,5.8 5.008,5.46 5.008,5.23 5.008,5.15 5.007,5.16 5.012,5.31 5,5.57 5.01,5.99 5.01,6.61 5.01,7.5 5.01,8.79 2.5,5.06 2.5,5.65 2.51,6.36 2.5,7.28 2.5,8.46 1.26,4.78 1.25,5.23 1.25,5.74 1.25,6.35 1.25,7.07 1.26,7.93 1.25,8.97 0.62,4.95 0.63,5.3 0.63,5.7 0.62,6.14 0.63,6.63 0.62,7.21 0.63,7.84 0.63,8.58 0.62,9.43 0.32,5.08 0.31,5.34 0.31,5.62 0.31,5.94 0.32,6.28 0.31,6.65 0.31,7.05 0.32,7.49 0.31,7.97 m 19.09,-486.7663 0.31,7.90016 0.32,7.42184 0.31,6.9863 0.31,6.588 0.32,6.224 0.31,5.89 0.31,5.582 0.32,5.299 0.62,9.829 0.63,8.927 0.62,8.145 0.63,7.465 0.63,6.869 0.62,6.343 0.63,5.877 0.62,5.46 1.26,9.86 1.25,8.65 1.25,7.66 1.25,6.85 1.25,6.17 1.25,5.58 1.26,5.1 2.5,8.96 2.5,7.66 2.51,6.67 2.5,5.88 2.51,5.25 2.5,4.75 5.01,8.32 5.01,7.18 5,6.39 5.01,5.83 5.01,5.47 5.01,5.25 5.01,5.15 5,5.16 5.01,5.29 5.01,5.55 5.01,5.96 5,6.56 5.01,7.44 5.01,8.69 2.5,5 2.51,5.56 2.5,6.27 2.51,7.15 2.5,8.3 2.5,9.78 1.26,5.61 1.25,6.19 1.25,6.87 1.25,7.7 1.25,8.7 1.25,9.9 0.63,5.49 0.63,5.91 0.62,6.38 0.63,6.91 0.62,7.51 0.63,8.2 0.63,8.99 0.62,9.9 0.32,5.34 0.31,5.63 0.31,5.94 0.31,6.27 0.32,6.65 0.31,7.04 0.31,7.49 0.32,7.98 m 19.09,-486.7701 0.31,7.90163 0.31,7.42317 0.32,6.9873 0.31,6.59 0.31,6.225 0.32,5.89 0.31,5.583 0.31,5.3 0.32,5.037 0.62,9.362 0.63,8.524 0.62,7.794 0.63,7.158 0.63,6.599 0.62,6.104 0.63,5.662 0.62,5.28 0.63,4.92 1.25,8.93 1.25,7.89 1.26,7.05 1.25,6.32 1.25,5.72 1.25,5.21 2.51,9.15 2.5,7.81 2.5,6.78 2.51,5.97 2.5,5.33 2.5,4.8 5.01,8.41 5.01,7.24 5.01,6.43 5.01,5.86 5,5.49 5.01,5.25 5.01,5.15 5.01,5.16 5,5.28 5.01,5.53 5.01,5.93 5.01,6.52 5.01,7.37 5,8.6 2.51,4.93 2.5,5.49 2.51,6.17 2.5,7.03 2.5,8.13 2.51,9.58 1.25,5.47 1.25,6.03 1.25,6.7 1.26,7.48 1.25,8.42 1.25,9.58 0.63,5.3 0.62,5.69 0.63,6.14 0.62,6.63 0.63,7.2 0.63,7.85 0.62,8.58 0.63,9.42 0.31,5.08 0.31,5.34 0.32,5.62 0.31,5.94 0.31,6.27 0.31,6.65 0.32,7.04 0.31,7.49 0.31,7.98 m 19.1,-486.7739 0.31,7.903104 0.31,7.424496 0.32,6.9883 0.31,6.591 0.31,6.226 0.31,5.892 0.32,5.584 0.31,5.3 0.63,9.832 0.62,8.929 0.63,8.148 0.62,7.466 0.63,6.871 0.63,6.344 0.62,5.878 0.63,5.467 0.62,5.09 1.26,9.22 1.25,8.14 1.25,7.24 1.25,6.5 1.25,5.86 1.26,5.33 2.5,9.34 2.5,7.96 2.51,6.9 2.5,6.06 2.51,5.4 2.5,4.86 5.01,8.5 5,7.3 5.01,6.47 5.01,5.89 5.01,5.51 5.01,5.27 5,5.15 5.01,5.16 5.01,5.26 5.01,5.51 5.01,5.9 5,6.48 5.01,7.3 5.01,8.52 2.5,4.87 2.51,5.41 2.5,6.07 2.5,6.91 2.51,7.98 2.5,9.37 1.25,5.35 1.26,5.88 1.25,6.52 1.25,7.27 1.25,8.17 1.25,9.26 0.63,5.12 0.63,5.49 0.62,5.91 0.63,6.38 0.62,6.91 0.63,7.51 0.63,8.2 0.62,8.98 0.63,9.9 0.31,5.34 0.31,5.62 0.32,5.94 0.31,6.27 0.31,6.65 0.32,7.04 0.31,7.49 0.31,7.97 m 14.4,-725.54" id="path53" />
        <title id="title55">Function r</title>
        <desc id="desc57">Function r: r(x) = If[-6.4 Ã&#131;Â¢Ã&#130;Â&#137;Ã&#130;Â¤ x Ã&#131;Â¢Ã&#130;Â&#137;Ã&#130;Â¤ 6.4, cot(x)]</desc>
      </g>
    </g>
    <clipPath id="clip6">
      <path d="m 0,0 0,467 641,0 0,-467 z" id="path60" />
    </clipPath>
    <g clip-path="url(#clip6)" id="g62">
      <g id="g64" style="fill:none;stroke:#000000;stroke-width:1.5;stroke-linecap:butt;stroke-linejoin:round;stroke-dasharray:5.5, 4;stroke-opacity:1">
        <path d="m 465.55,472 0,-477" id="path66" />
        <title id="title68">Line k</title>
        <desc id="desc70">k: x = Ã&#131;Â&#143;Ã&#130;Â&#128;</desc>
      </g>
    </g>
    <clipPath id="clip7">
      <path d="m 0,0 0,467 641,0 0,-467 z" id="path73" />
    </clipPath>
    <g clip-path="url(#clip7)" id="g75">
      <g id="g77" style="fill:none;stroke:#000000;stroke-width:1.5;stroke-linecap:butt;stroke-linejoin:round;stroke-dasharray:5.5, 4;stroke-opacity:1">
        <path d="m 616.1,472 0,-477" id="path79" />
        <title id="title81">Line l</title>
        <desc id="desc83">l: x = 6.28</desc>
      </g>
    </g>
    <clipPath id="clip8">
      <path d="m 0,0 0,467 641,0 0,-467 z" id="path86" />
    </clipPath>
    <g clip-path="url(#clip8)" id="g88">
      <g id="g90" style="fill:none;stroke:#000000;stroke-width:1.5;stroke-linecap:butt;stroke-linejoin:round;stroke-dasharray:5.5, 4;stroke-opacity:1">
        <path d="m 164.45,472 0,-477" id="path92" />
        <title id="title94">Line m</title>
        <desc id="desc96">m: x = -3.14</desc>
      </g>
    </g>
    <clipPath id="clip9">
      <path d="m 0,0 0,467 641,0 0,-467 z" id="path99" />
    </clipPath>
    <g clip-path="url(#clip9)" id="g101">
      <g id="g103" style="fill:none;stroke:#000000;stroke-width:1.5;stroke-linecap:butt;stroke-linejoin:round;stroke-dasharray:5.5, 4;stroke-opacity:1">
        <path d="m 13.903,472 0,-477" id="path105" />
        <title id="title107">Line n</title>
        <desc id="desc109">n: x = -6.28</desc>
      </g>
    </g>
  </g>
</svg>