<?xml version='1.0' ?><svg xmlns:dc="http://purl.org/dc/elements/1.1/" xmlns:cc="http://creativecommons.org/ns#" xmlns:rdf="http://www.w3.org/1999/02/22-rdf-syntax-ns#" xmlns:svg="http://www.w3.org/2000/svg" xmlns="http://www.w3.org/2000/svg" id="svg2" version="1.1" width="320.04797" height="233.55889" viewBox="0.0 -13.738956340883535 659.1188715502009 480.9999951485944" preserveAspectRatio="none">
  <metadata id="metadata115">
    <rdf:RDF>
      <cc:Work rdf:about="">
        <dc:format>image/svg+xml</dc:format>
        <dc:type rdf:resource="http://purl.org/dc/dcmitype/StillImage" />
      </cc:Work>
    </rdf:RDF>
  </metadata>
  <defs id="defs113">
    <clipPath id="clip1">
      <path d="M 0.0000 0.0000 L 0.0000 467.00 L 641.00 467.00 L 641.00 0.0000 z" id="path9" />
    </clipPath>
    <clipPath id="clip2">
      <path d="M 0.0000 0.0000 L 0.0000 467.00 L 641.00 467.00 L 641.00 0.0000 z" id="path18" />
    </clipPath>
    <clipPath id="clip3">
      <path d="M 0.0000 0.0000 L 0.0000 467.00 L 641.00 467.00 L 641.00 0.0000 z" id="path27" />
    </clipPath>
    <clipPath id="clip4">
      <path d="M 0.0000 0.0000 L 0.0000 467.00 L 641.00 467.00 L 641.00 0.0000 z" id="path36" />
    </clipPath>
  </defs>
  <title id="title4" />
  <g clip-path="url(#clip1)" id="g11" style="stroke-width:1;stroke-linecap:square;stroke-linejoin:miter;stroke-miterlimit:10;stroke-dasharray:none;stroke-dashoffset:0">
    <g id="g13" style="fill:none;stroke:#000000;stroke-width:2;stroke-linecap:butt;stroke-opacity:1">
      <path d="m 315,3 0,464" id="path15" />
    </g>
  </g>
  <g transform="matrix(2,0,0,2,-315.11888,-18)" clip-path="url(#clip2)" id="g20" style="stroke-width:1;stroke-linecap:square;stroke-linejoin:miter;stroke-miterlimit:10;stroke-dasharray:none;stroke-dashoffset:0">
    <g id="g22" style="fill:#000000;fill-opacity:1;fill-rule:evenodd;stroke:none">
      <path d="m 315,2 -4,16 8,0" id="path24" />
    </g>
  </g>
  <g clip-path="url(#clip3)" id="g29" style="stroke-width:1;stroke-linecap:square;stroke-linejoin:miter;stroke-miterlimit:10;stroke-dasharray:none;stroke-dashoffset:0">
    <g id="g31" style="fill:none;stroke:#000000;stroke-width:2;stroke-linecap:butt;stroke-opacity:1">
      <path d="m 0,235 638,0" id="path33" />
    </g>
  </g>
  <g transform="matrix(2,0,0,2,-618.88112,-234.88112)" clip-path="url(#clip4)" id="g38" style="stroke-width:1;stroke-linecap:square;stroke-linejoin:miter;stroke-miterlimit:10;stroke-dasharray:none;stroke-dashoffset:0">
    <g id="g40" style="fill:#000000;fill-opacity:1;fill-rule:evenodd;stroke:none">
      <path d="m 639,235 -16,-4 0,8" id="path42" />
    </g>
  </g>
  <g id="misc" style="stroke-width:1;stroke-linecap:square;stroke-linejoin:miter;stroke-miterlimit:10;stroke-dasharray:none;stroke-dashoffset:0" />
  <g id="layer0" style="stroke-width:1;stroke-linecap:square;stroke-linejoin:miter;stroke-miterlimit:10;stroke-dasharray:none;stroke-dashoffset:0">
    <clipPath id="clip5">
      <path d="m 0,0 0,467 641,0 0,-467 z" id="path47" />
    </clipPath>
    <g clip-path="url(#clip5)" id="g49">
      <g id="g51" style="fill:none;stroke:#000000;stroke-width:2.5;stroke-linecap:round;stroke-linejoin:round;stroke-opacity:1">
        <path d="m 36.307,476.93 0.313,-6.13 0.313,-5.88 0.313,-5.64 0.313,-5.42 0.313,-5.21 0.313,-5.01 0.626,-9.45 0.626,-8.76 0.625,-8.14 0.626,-7.56 0.626,-7.05 0.626,-6.57 0.626,-6.15 0.626,-5.75 0.626,-5.39 1.252,-9.8 1.252,-8.66 1.252,-7.7 1.252,-6.87 1.252,-6.14 1.252,-5.51 1.252,-4.96 2.504,-8.54 2.504,-7.01 2.504,-5.81 5.008,-8.85 5.007,-6.15 2.504,-2.31 2.504,-1.89 5.008,-2.69 5.008,-1.44 2.504,-0.3 2.504,-0.04 5.007,0.76 2.504,0.79 2.508,1.11 5,3.23 2.51,2.2 2.5,2.68 5.01,7.08 2.5,4.63 2.51,5.56 2.5,6.71 2.51,8.15 2.5,9.99 1.25,5.84 1.25,6.51 1.26,7.3 1.25,8.2 1.25,9.26 0.62,5.08 0.63,5.41 0.63,5.78 0.62,6.18 0.63,6.61 0.62,7.08 0.63,7.61 0.63,8.18 0.62,8.81 0.63,9.51 0.31,5.03 0.31,5.25 0.32,5.45 0.31,5.68 0.31,5.92 0.32,6.17 m 44.75,-0.95 0.32,-6.13 0.31,-5.88 0.31,-5.65 0.32,-5.42 0.31,-5.21 0.62,-9.82 0.63,-9.1 0.63,-8.44 0.62,-7.84 0.63,-7.31 0.62,-6.8 0.63,-6.36 0.63,-5.94 0.62,-5.57 0.63,-5.22 0.62,-4.89 1.26,-8.94 1.25,-7.93 1.25,-7.06 1.25,-6.31 1.25,-5.66 1.26,-5.1 2.5,-8.75 2.5,-7.18 2.51,-5.95 5.01,-9.06 5,-6.29 2.51,-2.37 2.5,-1.93 5.01,-2.78 2.5,-0.9 2.51,-0.62 5.01,-0.4 2.5,0.21 2.5,0.48 5.01,1.82 2.5,1.39 2.51,1.75 5.01,4.76 2.5,3.15 2.5,3.78 5.01,9.96 2.51,6.55 2.5,7.95 2.5,9.73 1.26,5.68 1.25,6.34 1.25,7.09 1.25,7.96 1.25,8.98 0.63,4.92 0.63,5.24 0.62,5.59 0.63,5.98 0.62,6.38 0.63,6.85 0.63,7.34 0.62,7.88 0.63,8.49 0.62,9.15 0.63,9.88 0.31,5.24 0.32,5.45 0.31,5.68 0.31,5.92 0.31,6.17 m 44.76,-0.91 0.31,-6.13 0.32,-5.88 0.31,-5.65 0.31,-5.42 0.32,-5.21 0.31,-5.01 0.63,-9.46 0.62,-8.76 0.63,-8.13 0.62,-7.57 0.63,-7.05 0.63,-6.58 0.62,-6.14 0.63,-5.75 0.62,-5.39 0.63,-5.06 1.25,-9.21 1.25,-8.16 1.25,-7.27 1.26,-6.49 1.25,-5.82 1.25,-5.23 2.5,-8.97 2.51,-7.37 2.5,-6.08 5.01,-9.27 5.01,-6.44 2.5,-2.43 2.51,-1.98 5,-2.86 2.51,-0.95 2.5,-0.64 5.01,-0.47 2.5,0.17 2.51,0.44 5,1.75 2.51,1.35 2.5,1.7 5.01,4.65 2.5,3.07 2.51,3.69 5.01,9.74 2.5,6.4 2.5,7.76 2.51,9.47 1.25,5.54 1.25,6.16 1.25,6.9 1.26,7.73 1.25,8.7 1.25,9.85 0.63,5.41 0.62,5.78 0.63,6.18 0.62,6.61 0.63,7.08 0.63,7.61 0.62,8.17 0.63,8.81 0.62,9.51 0.32,5.03 0.31,5.24 0.31,5.46 0.32,5.68 0.31,5.91 0.31,6.17 m 44.76,-0.87 0.31,-6.13 0.31,-5.89 0.32,-5.64 0.31,-5.43 0.31,-5.21 0.63,-9.83 0.63,-9.1 0.62,-8.44 0.63,-7.84 0.62,-7.31 0.63,-6.8 0.63,-6.36 0.62,-5.95 0.63,-5.56 0.62,-5.22 1.26,-9.5 1.25,-8.42 1.25,-7.48 1.25,-6.67 1.25,-5.98 1.26,-5.37 2.5,-9.2 2.5,-7.55 2.51,-6.23 5,-9.48 5.01,-6.59 2.51,-2.49 2.5,-2.04 5.01,-2.94 2.5,-0.98 2.51,-0.69 5,-0.53 2.51,0.13 2.5,0.41 5.01,1.68 2.5,1.3 2.51,1.65 5.01,4.54 5,6.61 5.01,9.52 2.5,6.25 2.51,7.57 2.5,9.24 1.25,5.39 1.26,5.99 1.25,6.7 1.25,7.51 1.25,8.45 1.25,9.54 0.63,5.25 0.63,5.59 0.62,5.97 0.63,6.39 0.62,6.84 0.63,7.33 0.63,7.89 0.62,8.48 0.63,9.15 0.62,9.88 0.32,5.24 0.31,5.45 0.31,5.68 0.32,5.92 0.31,6.16 m 27.23,4526.86" id="path53" />
        <title id="title55">Function s</title>
        <desc id="desc57">Function s: s(x) = If[-6.4 Ã&#131;Â¢Ã&#130;Â&#137;Ã&#130;Â¤ x Ã&#131;Â¢Ã&#130;Â&#137;Ã&#130;Â¤ 6.4, -csc(x)Ã&#131;Â&#130;Ã&#130;Â²]</desc>
      </g>
    </g>
    <clipPath id="clip6">
      <path d="m 0,0 0,467 641,0 0,-467 z" id="path60" />
    </clipPath>
    <g clip-path="url(#clip6)" id="g62">
      <g id="g64" style="fill:none;stroke:#000000;stroke-width:1.5;stroke-linecap:butt;stroke-linejoin:round;stroke-dasharray:5.5, 4;stroke-opacity:1">
        <path d="m 465.55,472 0,-477" id="path66" />
        <title id="title68">Line k</title>
        <desc id="desc70">k: x = Ã&#131;Â&#143;Ã&#130;Â&#128;</desc>
      </g>
    </g>
    <clipPath id="clip7">
      <path d="m 0,0 0,467 641,0 0,-467 z" id="path73" />
    </clipPath>
    <g clip-path="url(#clip7)" id="g75">
      <g id="g77" style="fill:none;stroke:#000000;stroke-width:1.5;stroke-linecap:butt;stroke-linejoin:round;stroke-dasharray:5.5, 4;stroke-opacity:1">
        <path d="m 616.1,472 0,-477" id="path79" />
        <title id="title81">Line l</title>
        <desc id="desc83">l: x = 6.28</desc>
      </g>
    </g>
    <clipPath id="clip8">
      <path d="m 0,0 0,467 641,0 0,-467 z" id="path86" />
    </clipPath>
    <g clip-path="url(#clip8)" id="g88">
      <g id="g90" style="fill:none;stroke:#000000;stroke-width:1.5;stroke-linecap:butt;stroke-linejoin:round;stroke-dasharray:5.5, 4;stroke-opacity:1">
        <path d="m 164.45,472 0,-477" id="path92" />
        <title id="title94">Line m</title>
        <desc id="desc96">m: x = -3.14</desc>
      </g>
    </g>
    <clipPath id="clip9">
      <path d="m 0,0 0,467 641,0 0,-467 z" id="path99" />
    </clipPath>
    <g clip-path="url(#clip9)" id="g101">
      <g id="g103" style="fill:none;stroke:#000000;stroke-width:1.5;stroke-linecap:butt;stroke-linejoin:round;stroke-dasharray:5.5, 4;stroke-opacity:1">
        <path d="m 13.903,472 0,-477" id="path105" />
        <title id="title107">Line n</title>
        <desc id="desc109">n: x = -6.28</desc>
      </g>
    </g>
  </g>
</svg>