<?xml version='1.0' ?><svg xmlns:dc="http://purl.org/dc/elements/1.1/" xmlns:cc="http://creativecommons.org/ns#" xmlns:rdf="http://www.w3.org/1999/02/22-rdf-syntax-ns#" xmlns:svg="http://www.w3.org/2000/svg" xmlns="http://www.w3.org/2000/svg" id="svg3788" version="1.1" width="320.04797" height="233.55889" viewBox="0.0 -13.738956340883535 659.1188715502009 480.9999951485944" preserveAspectRatio="none">
  <metadata id="metadata3849">
    <rdf:RDF>
      <cc:Work rdf:about="">
        <dc:format>image/svg+xml</dc:format>
        <dc:type rdf:resource="http://purl.org/dc/dcmitype/StillImage" />
      </cc:Work>
    </rdf:RDF>
  </metadata>
  <defs id="defs3847">
    <clipPath id="clip1">
      <path d="M 0.0000 0.0000 L 0.0000 467.00 L 641.00 467.00 L 641.00 0.0000 z" id="path3795" />
    </clipPath>
    <clipPath id="clip2">
      <path d="M 0.0000 0.0000 L 0.0000 467.00 L 641.00 467.00 L 641.00 0.0000 z" id="path3804" />
    </clipPath>
    <clipPath id="clip3">
      <path d="M 0.0000 0.0000 L 0.0000 467.00 L 641.00 467.00 L 641.00 0.0000 z" id="path3813" />
    </clipPath>
    <clipPath id="clip4">
      <path d="M 0.0000 0.0000 L 0.0000 467.00 L 641.00 467.00 L 641.00 0.0000 z" id="path3822" />
    </clipPath>
  </defs>
  <title id="title3790" />
  <g clip-path="url(#clip1)" id="g3797" style="stroke-width:1;stroke-linecap:square;stroke-linejoin:miter;stroke-miterlimit:10;stroke-dasharray:none;stroke-dashoffset:0">
    <g id="g3799" style="fill:none;stroke:#000000;stroke-width:2;stroke-linecap:butt;stroke-opacity:1">
      <path d="m 315,3 0,464" id="path3801" />
    </g>
  </g>
  <g transform="matrix(2,0,0,2,-315.11888,-18)" clip-path="url(#clip2)" id="g3806" style="stroke-width:1;stroke-linecap:square;stroke-linejoin:miter;stroke-miterlimit:10;stroke-dasharray:none;stroke-dashoffset:0">
    <g id="g3808" style="fill:#000000;fill-opacity:1;fill-rule:evenodd;stroke:none">
      <path d="m 315,2 -4,16 8,0" id="path3810" />
    </g>
  </g>
  <g clip-path="url(#clip3)" id="g3815" style="stroke-width:1;stroke-linecap:square;stroke-linejoin:miter;stroke-miterlimit:10;stroke-dasharray:none;stroke-dashoffset:0">
    <g id="g3817" style="fill:none;stroke:#000000;stroke-width:2;stroke-linecap:butt;stroke-opacity:1">
      <path d="m 0,235 638,0" id="path3819" />
    </g>
  </g>
  <g transform="matrix(2,0,0,2,-618.88112,-234.88112)" clip-path="url(#clip4)" id="g3824" style="stroke-width:1;stroke-linecap:square;stroke-linejoin:miter;stroke-miterlimit:10;stroke-dasharray:none;stroke-dashoffset:0">
    <g id="g3826" style="fill:#000000;fill-opacity:1;fill-rule:evenodd;stroke:none">
      <path d="m 639,235 -16,-4 0,8" id="path3828" />
    </g>
  </g>
  <g id="misc" style="stroke-width:1;stroke-linecap:square;stroke-linejoin:miter;stroke-miterlimit:10;stroke-dasharray:none;stroke-dashoffset:0" />
  <g id="layer0" style="stroke-width:1;stroke-linecap:square;stroke-linejoin:miter;stroke-miterlimit:10;stroke-dasharray:none;stroke-dashoffset:0">
    <clipPath id="clip5">
      <path d="m 0,0 0,467 641,0 0,-467 z" id="path3833" />
    </clipPath>
    <g clip-path="url(#clip5)" id="g3835">
      <g id="g3837" style="fill:none;stroke:#000000;stroke-width:2.5;stroke-linecap:round;stroke-linejoin:round;stroke-opacity:1">
        <path d="m 8.3056,229.27 1.7104,1.75 5.007,5.13 5.008,5.12 5.008,5.05 5.008,4.92 5.008,4.75 5.007,4.52 5.008,4.24 5.008,3.92 5.008,3.55 5.008,3.14 5.008,2.7 5.007,2.24 5.008,1.74 5.008,1.22 5.008,0.7 5.008,0.17 5.007,-0.38 5.012,-0.9 5,-1.42 5.01,-1.94 5.01,-2.41 5.01,-2.88 5.01,-3.3 5,-3.7 5.01,-4.04 5.01,-4.36 5.01,-4.61 5,-4.83 5.01,-4.98 5.01,-5.08 5.01,-5.13 5.01,-5.12 5,-5.05 5.01,-4.94 5.01,-4.76 5.01,-4.53 5,-4.26 5.01,-3.94 5.01,-3.58 5.01,-3.17 5.01,-2.73 5,-2.26 5.01,-1.77 5.01,-1.26 5.01,-0.73 5.01,-0.2 5,0.34 5.01,0.87 5.01,1.39 5.01,1.9 5,2.39 5.01,2.85 5.01,3.27 5.01,3.68 5.01,4.02 5,4.34 5.01,4.6 5.01,4.81 5.01,4.97 5,5.08 5.01,5.12 5.01,5.13 5.01,5.06 5.01,4.94 5,4.78 5.01,4.55 5.01,4.28 5.01,3.96 5,3.59 5.01,3.2 5.01,2.76 5.01,2.29 5.01,1.8 5,1.3 5.01,0.76 5.01,0.23 5.01,-0.3 5,-0.84 5.01,-1.36 5.01,-1.87 5.01,-2.35 5.01,-2.82 5,-3.26 5.01,-3.64 5.01,-4.01 5.01,-4.32 5.01,-4.58 5,-4.8 5.01,-4.96 5.01,-5.08 5.01,-5.12 5,-5.13 5.01,-5.06 5.01,-4.96 5.01,-4.78 5.01,-4.57 5,-4.3 5.01,-3.98 5.01,-3.62 5.01,-3.22 5,-2.79 5.01,-2.32 5.01,-1.84 5.01,-1.32 5.01,-0.8 5,-0.27 5.01,0.28 5.01,0.8 5.01,1.33 5.01,1.83 5,2.33 5.01,2.79 5.01,3.23 5.01,3.62 5,3.99 5.01,4.3 5.01,4.57 5.01,4.78 5.01,4.96 5,5.07 5.01,5.12 5.01,5.13 0.72,0.74" id="path3839" />
        <title id="title3841">Function q_1</title>
        <desc id="desc3843">Function q_1: q_1(x) = If[-6.4 Ã&#131;Â¢Ã&#130;Â&#137;Ã&#130;Â¤ x Ã&#131;Â¢Ã&#130;Â&#137;Ã&#130;Â¤ 6.4, -sin(x)]</desc>
      </g>
    </g>
  </g>
</svg>