<?xml version='1.0' ?><svg xmlns:dc="http://purl.org/dc/elements/1.1/" xmlns:cc="http://creativecommons.org/ns#" xmlns:rdf="http://www.w3.org/1999/02/22-rdf-syntax-ns#" xmlns:svg="http://www.w3.org/2000/svg" xmlns="http://www.w3.org/2000/svg" id="svg2" version="1.1" width="320.04797" height="233.55889" viewBox="0.0 -13.738956340883535 659.1188715502009 480.9999951485944" preserveAspectRatio="none">
  <metadata id="metadata115">
    <rdf:RDF>
      <cc:Work rdf:about="">
        <dc:format>image/svg+xml</dc:format>
        <dc:type rdf:resource="http://purl.org/dc/dcmitype/StillImage" />
      </cc:Work>
    </rdf:RDF>
  </metadata>
  <defs id="defs113">
    <clipPath id="clip1">
      <path d="M 0.0000 0.0000 L 0.0000 467.00 L 641.00 467.00 L 641.00 0.0000 z" id="path9" />
    </clipPath>
    <clipPath id="clip2">
      <path d="M 0.0000 0.0000 L 0.0000 467.00 L 641.00 467.00 L 641.00 0.0000 z" id="path18" />
    </clipPath>
    <clipPath id="clip3">
      <path d="M 0.0000 0.0000 L 0.0000 467.00 L 641.00 467.00 L 641.00 0.0000 z" id="path27" />
    </clipPath>
    <clipPath id="clip4">
      <path d="M 0.0000 0.0000 L 0.0000 467.00 L 641.00 467.00 L 641.00 0.0000 z" id="path36" />
    </clipPath>
  </defs>
  <title id="title4" />
  <g clip-path="url(#clip1)" id="g11" style="stroke-width:1;stroke-linecap:square;stroke-linejoin:miter;stroke-miterlimit:10;stroke-dasharray:none;stroke-dashoffset:0">
    <g id="g13" style="fill:none;stroke:#000000;stroke-width:2;stroke-linecap:butt;stroke-opacity:1">
      <path d="m 315,3 0,464" id="path15" />
    </g>
  </g>
  <g transform="matrix(2,0,0,2,-315.11888,-18)" clip-path="url(#clip2)" id="g20" style="stroke-width:1;stroke-linecap:square;stroke-linejoin:miter;stroke-miterlimit:10;stroke-dasharray:none;stroke-dashoffset:0">
    <g id="g22" style="fill:#000000;fill-opacity:1;fill-rule:evenodd;stroke:none">
      <path d="m 315,2 -4,16 8,0" id="path24" />
    </g>
  </g>
  <g clip-path="url(#clip3)" id="g29" style="stroke-width:1;stroke-linecap:square;stroke-linejoin:miter;stroke-miterlimit:10;stroke-dasharray:none;stroke-dashoffset:0">
    <g id="g31" style="fill:none;stroke:#000000;stroke-width:2;stroke-linecap:butt;stroke-opacity:1">
      <path d="m 0,235 638,0" id="path33" />
    </g>
  </g>
  <g transform="matrix(2,0,0,2,-618.88112,-234.88112)" clip-path="url(#clip4)" id="g38" style="stroke-width:1;stroke-linecap:square;stroke-linejoin:miter;stroke-miterlimit:10;stroke-dasharray:none;stroke-dashoffset:0">
    <g id="g40" style="fill:#000000;fill-opacity:1;fill-rule:evenodd;stroke:none">
      <path d="m 639,235 -16,-4 0,8" id="path42" />
    </g>
  </g>
  <g id="misc" style="stroke-width:1;stroke-linecap:square;stroke-linejoin:miter;stroke-miterlimit:10;stroke-dasharray:none;stroke-dashoffset:0" />
  <g id="layer0" style="stroke-width:1;stroke-linecap:square;stroke-linejoin:miter;stroke-miterlimit:10;stroke-dasharray:none;stroke-dashoffset:0">
    <clipPath id="clip5">
      <path d="m 0,0 0,467 641,0 0,-467 z" id="path47" />
    </clipPath>
    <g clip-path="url(#clip5)" id="g49">
      <g id="g51" style="fill:none;stroke:#000000;stroke-width:2.5;stroke-linecap:round;stroke-linejoin:round;stroke-opacity:1">
        <path d="m 8.3056,185.53 1.7104,0.17 5.007,0.15 5.008,-0.39 5.008,-0.95 5.008,-1.57 5.008,-2.28 5.007,-3.15 5.008,-4.25 5.008,-5.72 5.008,-7.8 2.504,-4.97 2.504,-5.92 2.504,-7.15 2.504,-8.74 1.252,-5.13 1.251,-5.76 1.252,-6.49 1.252,-7.38 1.252,-8.455 1.252,-9.765 0.626,-5.471 0.626,-5.928 0.626,-6.444 0.626,-7.027 0.626,-7.693 0.626,-8.456 0.626,-9.336 0.313,-5.042 0.313,-5.318 0.313,-5.617 0.313,-5.943 0.313,-6.295 0.313,-6.6816 0.313,-7.1036 0.313,-7.5665 m 19.405,488.6917 0.313,-7.5 0.313,-7.03 0.313,-6.62 0.317,-6.24 0.31,-5.89 0.31,-5.57 0.32,-5.28 0.31,-5 0.62,-9.26 0.63,-8.39 0.63,-7.64 0.62,-6.98 0.63,-6.4 0.62,-5.9 0.63,-5.43 0.63,-5.04 1.25,-9.02 1.25,-7.85 1.25,-6.89 1.25,-6.08 1.26,-5.41 2.5,-9.17 2.5,-7.48 2.51,-6.18 5.01,-9.54 5,-6.91 5.01,-5.1 5.01,-3.79 5.01,-2.79 5,-1.99 5.01,-1.32 5.01,-0.74 5.01,-0.18 5.01,0.36 5,0.92 5.01,1.52 5.01,2.24 5.01,3.08 5,4.17 5.01,5.62 5.01,7.64 2.5,4.87 2.51,5.79 2.5,6.97 2.51,8.52 1.25,4.99 1.25,5.59 1.25,6.3 1.25,7.14 1.26,8.16 1.25,9.41 0.62,5.26 0.63,5.7 0.63,6.17 0.62,6.73 0.63,7.35 0.62,8.06 0.63,8.88 0.63,9.82 0.31,5.32 0.31,5.62 0.31,5.94 0.32,6.29 0.31,6.68 0.31,7.1 m 19.72,-481.1183 0.31,7.4938 0.32,7.0373 0.31,6.6212 0.31,6.24 0.32,5.891 0.31,5.571 0.31,5.275 0.63,9.752 0.62,8.814 0.63,8.003 0.63,7.299 0.62,6.683 0.63,6.139 0.62,5.659 0.63,5.232 1.25,9.358 1.25,8.12 1.26,7.11 1.25,6.27 1.25,5.57 2.5,9.43 2.51,7.66 2.5,6.32 5.01,9.75 5.01,7.04 5.01,5.2 5,3.86 5.01,2.85 5.01,2.04 5.01,1.36 5,0.77 5.01,0.21 5.01,-0.32 5.01,-0.88 5.01,-1.49 5,-2.18 5.01,-3.03 5.01,-4.09 5.01,-5.51 5,-7.5 2.51,-4.76 2.5,-5.66 2.51,-6.81 2.5,-8.3 1.25,-4.85 1.25,-5.43 1.26,-6.11 1.25,-6.92 1.25,-7.89 1.25,-9.071 0.63,-5.063 0.62,-5.471 0.63,-5.926 0.63,-6.442 0.62,-7.026 0.63,-7.691 0.62,-8.453 0.63,-9.334 0.31,-5.04 0.32,-5.316 0.31,-5.616 0.31,-5.94 0.31,-6.293 0.32,-6.6795 0.31,-7.1009 0.31,-7.5637 M 400,478.79 l 0.31,-7.49 0.31,-7.04 0.32,-6.63 0.31,-6.24 0.31,-5.89 0.32,-5.57 0.31,-5.28 0.31,-5 0.63,-9.27 0.62,-8.39 0.63,-7.64 0.63,-6.98 0.62,-6.41 0.63,-5.89 0.62,-5.44 1.26,-9.71 1.25,-8.41 1.25,-7.34 1.25,-6.47 1.25,-5.73 2.51,-9.69 2.5,-7.86 2.51,-6.47 5,-9.96 5.01,-7.18 5.01,-5.3 5.01,-3.93 5.01,-2.9 5,-2.09 5.01,-1.4 5.01,-0.8 5.01,-0.25 5,0.28 5.01,0.85 5.01,1.45 5.01,2.13 5.01,2.97 5,4.02 5.01,5.41 5.01,7.34 2.5,4.67 2.51,5.54 2.5,6.65 2.5,8.08 1.26,4.73 1.25,5.27 1.25,5.93 1.25,6.7 1.25,7.63 1.26,8.75 0.62,4.88 0.63,5.26 0.62,5.69 0.63,6.17 0.63,6.73 0.62,7.34 0.63,8.06 0.62,8.88 0.63,9.82 0.31,5.32 0.32,5.61 0.31,5.94 0.31,6.29 0.32,6.68 0.31,7.1 m 19.72,-481.1235 0.31,7.4966 0.31,7.0399 0.32,6.623 0.31,6.243 0.31,5.893 0.31,5.572 0.32,5.277 0.62,9.755 0.63,8.816 0.63,8.006 0.62,7.301 0.63,6.684 0.62,6.141 0.63,5.66 0.63,5.233 0.62,4.851 1.25,8.712 1.26,7.59 1.25,6.67 1.25,5.91 2.5,9.96 2.51,8.06 2.5,6.63 2.5,5.52 2.51,4.65 5.01,7.32 5,5.4 5.01,4.01 5.01,2.96 5.01,2.13 5.01,1.44 5,0.84 5.01,0.28 5.01,-0.25 0.72,-0.08" id="path53" />
        <title id="title55">Function h_1</title>
        <desc id="desc57">Function h_1: h_1(x) = If[-6.4 Ã&#131;Â¢Ã&#130;Â&#137;Ã&#130;Â¤ x Ã&#131;Â¢Ã&#130;Â&#137;Ã&#130;Â¤ 6.4, sec(x)]</desc>
      </g>
    </g>
    <clipPath id="clip6">
      <path d="m 0,0 0,467 641,0 0,-467 z" id="path60" />
    </clipPath>
    <g clip-path="url(#clip6)" id="g62">
      <g id="g64" style="fill:none;stroke:#000000;stroke-width:1.5;stroke-linecap:butt;stroke-linejoin:round;stroke-dasharray:5.5, 4;stroke-opacity:1">
        <path d="m 390.27,472 0,-477" id="path66" />
        <title id="title68">Line g</title>
        <desc id="desc70">g: x = 1.57</desc>
      </g>
    </g>
    <clipPath id="clip7">
      <path d="m 0,0 0,467 641,0 0,-467 z" id="path73" />
    </clipPath>
    <g clip-path="url(#clip7)" id="g75">
      <g id="g77" style="fill:none;stroke:#000000;stroke-width:1.5;stroke-linecap:butt;stroke-linejoin:round;stroke-dasharray:5.5, 4;stroke-opacity:1">
        <path d="m 540.82,472 0,-477" id="path79" />
        <title id="title81">Line h</title>
        <desc id="desc83">h: x = 4.71</desc>
      </g>
    </g>
    <clipPath id="clip8">
      <path d="m 0,0 0,467 641,0 0,-467 z" id="path86" />
    </clipPath>
    <g clip-path="url(#clip8)" id="g88">
      <g id="g90" style="fill:none;stroke:#000000;stroke-width:1.5;stroke-linecap:butt;stroke-linejoin:round;stroke-dasharray:5.5, 4;stroke-opacity:1">
        <path d="m 239.73,472 0,-477" id="path92" />
        <title id="title94">Line i</title>
        <desc id="desc96">i: x = -1.57</desc>
      </g>
    </g>
    <clipPath id="clip9">
      <path d="m 0,0 0,467 641,0 0,-467 z" id="path99" />
    </clipPath>
    <g clip-path="url(#clip9)" id="g101">
      <g id="g103" style="fill:none;stroke:#000000;stroke-width:1.5;stroke-linecap:butt;stroke-linejoin:round;stroke-dasharray:5.5, 4;stroke-opacity:1">
        <path d="m 89.178,472 0,-477" id="path105" />
        <title id="title107">Line j</title>
        <desc id="desc109">j: x = -4.71</desc>
      </g>
    </g>
  </g>
</svg>