<?xml version='1.0' ?><svg xmlns:dc="http://purl.org/dc/elements/1.1/" xmlns:cc="http://creativecommons.org/ns#" xmlns:rdf="http://www.w3.org/1999/02/22-rdf-syntax-ns#" xmlns:svg="http://www.w3.org/2000/svg" xmlns="http://www.w3.org/2000/svg" id="svg2" version="1.1" width="320.04797" height="233.5589" viewBox="242.92578169262256 254.6360126299952 659.118880457764 481.0000222433745" preserveAspectRatio="none">
  <metadata id="metadata115">
    <rdf:RDF>
      <cc:Work rdf:about="">
        <dc:format>image/svg+xml</dc:format>
        <dc:type rdf:resource="http://purl.org/dc/dcmitype/StillImage" />
        <dc:title />
      </cc:Work>
    </rdf:RDF>
  </metadata>
  <defs id="defs113">
    <clipPath id="clip1-6">
      <path id="path6725" d="m 0,0 0,467 641,0 0,-467 z" />
    </clipPath>
    <clipPath id="clip2-6">
      <path id="path6734" d="m 0,0 0,467 641,0 0,-467 z" />
    </clipPath>
    <clipPath id="clip3-0">
      <path id="path6743" d="m 0,0 0,467 641,0 0,-467 z" />
    </clipPath>
    <clipPath id="clip4-4">
      <path id="path6752" d="m 0,0 0,467 641,0 0,-467 z" />
    </clipPath>
  </defs>
  <g transform="translate(242.92579,267.42855)" id="g6727" clip-path="url(#clip1-6)" style="stroke-width:1;stroke-linecap:square;stroke-linejoin:miter;stroke-miterlimit:10;stroke-dasharray:none;stroke-dashoffset:0">
    <g id="g6729" style="fill:none;stroke:#000000;stroke-width:2;stroke-linecap:butt;stroke-opacity:1">
      <path id="path6731" d="m 315,3 0,464" />
    </g>
  </g>
  <g transform="matrix(2,0,0,2,-72.193086,249.42855)" id="g6736" clip-path="url(#clip2-6)" style="stroke-width:1;stroke-linecap:square;stroke-linejoin:miter;stroke-miterlimit:10;stroke-dasharray:none;stroke-dashoffset:0">
    <g id="g6738" style="fill:#000000;fill-opacity:1;fill-rule:evenodd;stroke:none">
      <path id="path6740" d="m 315,2 -4,16 8,0" />
    </g>
  </g>
  <g transform="translate(242.92579,267.42855)" id="g6745" clip-path="url(#clip3-0)" style="stroke-width:1;stroke-linecap:square;stroke-linejoin:miter;stroke-miterlimit:10;stroke-dasharray:none;stroke-dashoffset:0">
    <g id="g6747" style="fill:none;stroke:#000000;stroke-width:2;stroke-linecap:butt;stroke-opacity:1">
      <path id="path6749" d="m 0,235 638,0" />
    </g>
  </g>
  <g transform="matrix(2,0,0,2,-375.95533,32.547425)" id="g6754" clip-path="url(#clip4-4)" style="stroke-width:1;stroke-linecap:square;stroke-linejoin:miter;stroke-miterlimit:10;stroke-dasharray:none;stroke-dashoffset:0">
    <g id="g6756" style="fill:#000000;fill-opacity:1;fill-rule:evenodd;stroke:none">
      <path id="path6758" d="m 639,235 -16,-4 0,8" />
    </g>
  </g>
  <g transform="translate(242.92579,267.42855)" id="misc-4" style="stroke-width:1;stroke-linecap:square;stroke-linejoin:miter;stroke-miterlimit:10;stroke-dasharray:none;stroke-dashoffset:0" />
  <g transform="translate(242.92579,267.42855)" id="layer0-5" style="stroke-width:1;stroke-linecap:square;stroke-linejoin:miter;stroke-miterlimit:10;stroke-dasharray:none;stroke-dashoffset:0">
    <clipPath id="clip5-0">
      <path id="path6763" d="m 0,0 0,467 641,0 0,-467 z" />
    </clipPath>
    <g id="g6765" clip-path="url(#clip5-0)">
      <g id="g6767" style="fill:none;stroke:#000000;stroke-width:2.5;stroke-linecap:round;stroke-linejoin:round;stroke-opacity:1">
        <path id="path6769" d="m 8.3056,240.77 1.7104,-1.77 5.007,-5.15 5.008,-5.17 5.008,-5.31 5.008,-5.58 5.008,-6 5.007,-6.64 5.008,-7.53 5.008,-8.84 2.504,-5.1 2.504,-5.68 2.504,-6.42 2.504,-7.35 2.504,-8.54 1.252,-4.83 1.252,-5.29 1.252,-5.81 1.251,-6.44 1.252,-7.17 1.252,-8.05 1.252,-9.11 0.626,-5.04 0.626,-5.392 0.626,-5.802 0.626,-6.258 0.626,-6.772 0.626,-7.356 0.626,-8.02 0.626,-8.783 0.626,-9.663 0.313,-5.205 0.313,-5.481 0.313,-5.78 0.313,-6.104 0.313,-6.459 0.313,-6.843 0.313,-7.2662 0.313,-7.7287 0.313,-8.2381 m 19.092,486.941 0.313,-7.65 0.313,-7.2 0.313,-6.78 0.317,-6.41 0.31,-6.05 0.31,-5.73 0.32,-5.44 0.31,-5.16 0.62,-9.59 0.63,-8.72 0.63,-7.97 0.62,-7.31 0.63,-6.73 0.62,-6.22 0.63,-5.77 0.63,-5.36 1.25,-9.69 1.25,-8.52 1.25,-7.55 1.25,-6.76 1.26,-6.09 1.25,-5.52 1.25,-5.03 2.5,-8.87 2.51,-7.6 2.5,-6.61 2.51,-5.84 5,-9.93 5.01,-8.28 5.01,-7.15 5.01,-6.37 5,-5.82 5.01,-5.46 5.01,-5.24 5.01,-5.15 5.01,-5.16 5,-5.3 5.01,-5.56 5.01,-5.97 5.01,-6.59 5,-7.47 5.01,-8.74 2.51,-5.03 2.5,-5.6 2.5,-6.32 2.51,-7.22 2.5,-8.37 2.51,-9.9 1.25,-5.67 1.25,-6.27 1.25,-6.97 1.25,-7.82 1.26,-8.83 0.62,-4.86 0.63,-5.21 0.62,-5.591 0.63,-6.022 0.63,-6.507 0.62,-7.054 0.63,-7.676 0.62,-8.387 0.63,-9.205 0.31,-4.949 0.32,-5.204 0.31,-5.48 0.31,-5.779 0.31,-6.104 0.32,-6.457 0.31,-6.843 0.31,-7.2644 0.32,-7.7272 0.31,-8.2364 m 19.09,486.946 0.31,-7.66 0.32,-7.2 0.31,-6.78 0.31,-6.41 0.32,-6.05 0.31,-5.73 0.31,-5.44 0.32,-5.17 0.31,-4.91 0.62,-9.14 0.63,-8.33 0.63,-7.63 0.62,-7.01 0.63,-6.47 0.62,-5.99 0.63,-5.56 0.63,-5.18 0.62,-4.84 1.25,-8.79 1.26,-7.78 1.25,-6.95 1.25,-6.24 1.25,-5.65 1.25,-5.15 2.51,-9.06 2.5,-7.73 2.51,-6.73 2.5,-5.92 2.5,-5.29 2.51,-4.78 5.01,-8.36 5,-7.21 5.01,-6.41 5.01,-5.85 5.01,-5.47 5,-5.26 5.01,-5.14 5.01,-5.16 5.01,-5.29 5.01,-5.54 5,-5.94 5.01,-6.54 5.01,-7.41 5.01,-8.65 2.5,-4.96 2.5,-5.52 2.51,-6.22 2.5,-7.09 2.51,-8.22 2.5,-9.68 1.25,-5.54 1.25,-6.11 1.26,-6.78 1.25,-7.59 1.25,-8.55 1.25,-9.74 0.63,-5.396 0.62,-5.8 0.63,-6.257 0.63,-6.771 0.62,-7.353 0.63,-8.019 0.62,-8.78 0.63,-9.66 0.31,-5.204 0.32,-5.479 0.31,-5.778 0.31,-6.103 0.31,-6.456 0.32,-6.841 0.31,-7.2635 0.31,-7.7259 0.32,-8.2346 M 400,473.79 l 0.31,-7.66 0.31,-7.2 0.32,-6.78 0.31,-6.41 0.31,-6.05 0.32,-5.74 0.31,-5.44 0.31,-5.16 0.63,-9.6 0.62,-8.72 0.63,-7.97 0.63,-7.31 0.62,-6.73 0.63,-6.22 0.62,-5.77 0.63,-5.37 0.63,-5 1.25,-9.08 1.25,-8.01 1.25,-7.14 1.25,-6.41 1.26,-5.8 1.25,-5.26 2.5,-9.25 2.51,-7.88 2.5,-6.84 2.5,-6.02 2.51,-5.36 2.5,-4.83 5.01,-8.46 5.01,-7.27 5.01,-6.44 5,-5.88 5.01,-5.5 5.01,-5.26 5.01,-5.15 5,-5.16 5.01,-5.27 5.01,-5.52 5.01,-5.91 5.01,-6.5 5,-7.34 5.01,-8.56 2.51,-4.9 2.5,-5.45 2.5,-6.12 2.51,-6.97 2.5,-8.05 2.5,-9.48 1.26,-5.41 1.25,-5.95 1.25,-6.61 1.25,-7.37 1.25,-8.3 1.26,-9.42 0.62,-5.2 0.63,-5.594 0.62,-6.021 0.63,-6.505 0.63,-7.052 0.62,-7.674 0.63,-8.385 0.62,-9.203 0.32,-4.948 0.31,-5.202 0.31,-5.478 0.32,-5.778 0.31,-6.101 0.31,-6.455 0.32,-6.841 0.31,-7.2617 0.31,-7.7244 0.31,-8.2329 m 19.1,486.936 0.31,-7.66 0.31,-7.2 0.32,-6.79 0.31,-6.4 0.31,-6.06 0.31,-5.73 0.32,-5.44 0.31,-5.17 0.31,-4.91 0.63,-9.15 0.63,-8.33 0.62,-7.63 0.63,-7.01 0.62,-6.47 0.63,-5.99 0.63,-5.56 0.62,-5.19 1.25,-9.37 1.26,-8.26 1.25,-7.35 1.25,-6.58 1.25,-5.94 1.25,-5.39 2.51,-9.44 2.5,-8.04 2.5,-6.95 2.51,-6.11 2.5,-5.44 2.51,-4.89 5,-8.55 5.01,-7.33 5.01,-6.49 5.01,-5.91 5.01,-5.51 5,-5.28 5.01,-5.15 5.01,-5.15 0.72,-0.76" />
        <title id="title6771">Function f</title>
        <desc id="desc6773">Function f: f(x) = If[-6.4 Ã&#131;Â¢Ã&#130;Â&#137;Ã&#130;Â¤ x Ã&#131;Â¢Ã&#130;Â&#137;Ã&#130;Â¤ 6.4, tan(x)]</desc>
      </g>
    </g>
    <clipPath id="clip6-5">
      <path id="path6776" d="m 0,0 0,467 641,0 0,-467 z" />
    </clipPath>
    <g id="g6778" clip-path="url(#clip6-5)">
      <g id="g6780" style="fill:none;stroke:#000000;stroke-width:1.5;stroke-linecap:butt;stroke-linejoin:round;stroke-dasharray:5.5, 4;stroke-opacity:1">
        <path id="path6782" d="m 390.27,472 0,-477" />
        <title id="title6784">Line g</title>
        <desc id="desc6786">g: x = 1.57</desc>
      </g>
    </g>
    <clipPath id="clip7-9">
      <path id="path6789" d="m 0,0 0,467 641,0 0,-467 z" />
    </clipPath>
    <g id="g6791" clip-path="url(#clip7-9)">
      <g id="g6793" style="fill:none;stroke:#000000;stroke-width:1.5;stroke-linecap:butt;stroke-linejoin:round;stroke-dasharray:5.5, 4;stroke-opacity:1">
        <path id="path6795" d="m 540.82,472 0,-477" />
        <title id="title6797">Line h</title>
        <desc id="desc6799">h: x = 4.71</desc>
      </g>
    </g>
    <clipPath id="clip8-56">
      <path id="path6802" d="m 0,0 0,467 641,0 0,-467 z" />
    </clipPath>
    <g id="g6804" clip-path="url(#clip8-56)">
      <g id="g6806" style="fill:none;stroke:#000000;stroke-width:1.5;stroke-linecap:butt;stroke-linejoin:round;stroke-dasharray:5.5, 4;stroke-opacity:1">
        <path id="path6808" d="m 239.73,472 0,-477" />
        <title id="title6810">Line i</title>
        <desc id="desc6812">i: x = -1.57</desc>
      </g>
    </g>
    <clipPath id="clip9-0">
      <path id="path6815" d="m 0,0 0,467 641,0 0,-467 z" />
    </clipPath>
    <g id="g6817" clip-path="url(#clip9-0)">
      <g id="g6819" style="fill:none;stroke:#000000;stroke-width:1.5;stroke-linecap:butt;stroke-linejoin:round;stroke-dasharray:5.5, 4;stroke-opacity:1">
        <path id="path6821" d="m 89.178,472 0,-477" />
        <title id="title6823">Line j</title>
        <desc id="desc6825">j: x = -4.71</desc>
      </g>
    </g>
  </g>
</svg>