<?xml version='1.0' ?><svg xmlns:ns0="http://www.iki.fi/pav/software/textext/" xmlns:dc="http://purl.org/dc/elements/1.1/" xmlns:cc="http://creativecommons.org/ns#" xmlns:rdf="http://www.w3.org/1999/02/22-rdf-syntax-ns#" xmlns:svg="http://www.w3.org/2000/svg" xmlns="http://www.w3.org/2000/svg" id="svg2" version="1.1" width="537.57908" height="157.58666" viewBox="88.33484495034453 591.5963635758391 430.0632491525777 126.06932364760652" preserveAspectRatio="none">
  <metadata id="metadata1138">
    <rdf:RDF>
      <cc:Work rdf:about="">
        <dc:format>image/svg+xml</dc:format>
        <dc:type rdf:resource="http://purl.org/dc/dcmitype/StillImage" />
        <dc:title />
      </cc:Work>
    </rdf:RDF>
  </metadata>
  <defs id="defs1136">
    <clipPath clipPathUnits="userSpaceOnUse" id="clipPath5988">
      <rect style="fill:#000000;fill-rule:nonzero;stroke:#000000;stroke-width:3.39777827;stroke-linecap:square;stroke-miterlimit:4;stroke-dasharray:none;stroke-dashoffset:0;fill-opacity:1.0;stroke-opacity:1.0" id="rect5990" width="343.85764" height="228.43382" x="-0.79470044" y="172.35617" ry="0.52215016" />
    </clipPath>
    <clipPath clipPathUnits="userSpaceOnUse" id="clipPath5992">
      <rect style="fill:#000000;fill-rule:nonzero;stroke:#000000;stroke-width:3.39777827;stroke-linecap:square;stroke-miterlimit:4;stroke-dasharray:none;stroke-dashoffset:0;fill-opacity:1.0;stroke-opacity:1.0" id="rect5994" width="343.85764" height="228.43382" x="-0.79470044" y="172.35617" ry="0.52215016" />
    </clipPath>
    <clipPath clipPathUnits="userSpaceOnUse" id="clipPath7734">
      <rect style="fill:#000000;fill-rule:nonzero;stroke:#0f0000;stroke-width:1.27999997;stroke-linecap:square;stroke-miterlimit:10;stroke-dasharray:none;stroke-dashoffset:0;fill-opacity:1.0;stroke-opacity:1.0" id="rect7736" width="13.280248" height="10.198467" x="-16.233763" y="-23.704975" rx="0.5221504" ry="0.5221504" />
    </clipPath>
    <clipPath clipPathUnits="userSpaceOnUse" id="clipPath7786">
      <rect style="fill:#000000;fill-rule:nonzero;stroke:#0f0000;stroke-width:1.27999997;stroke-linecap:square;stroke-miterlimit:10;stroke-dasharray:none;stroke-dashoffset:0;fill-opacity:1.0;stroke-opacity:1.0" id="rect7788" width="278.88519" height="214.16782" x="16.012552" y="191.83218" rx="0.5221504" ry="0.5221504" />
    </clipPath>
    <clipPath clipPathUnits="userSpaceOnUse" id="clipPath7790">
      <rect style="fill:#000000;fill-rule:nonzero;stroke:#0f0000;stroke-width:1.27999997;stroke-linecap:square;stroke-miterlimit:10;stroke-dasharray:none;stroke-dashoffset:0;fill-opacity:1.0;stroke-opacity:1.0" id="rect7792" width="278.88519" height="214.16782" x="16.012552" y="191.83218" rx="0.5221504" ry="0.5221504" />
    </clipPath>
    <clipPath clipPathUnits="userSpaceOnUse" id="clipPath7806">
      <rect style="fill:#000000;fill-rule:nonzero;stroke:#0f0000;stroke-width:1.27999997;stroke-linecap:square;stroke-miterlimit:10;stroke-dasharray:none;stroke-dashoffset:0;fill-opacity:1.0;stroke-opacity:1.0" id="rect7808" width="370.99088" height="284.89877" x="-52.145088" y="182.67059" rx="0.5221504" ry="0.5221504" />
    </clipPath>
    <clipPath clipPathUnits="userSpaceOnUse" id="clipPath7826">
      <rect style="fill:#000000;fill-rule:nonzero;stroke:#0f0000;stroke-width:1.27999997;stroke-linecap:square;stroke-miterlimit:10;stroke-dasharray:none;stroke-dashoffset:0;fill-opacity:1.0;stroke-opacity:1.0" id="rect7828" width="278.88519" height="214.16782" x="16.012552" y="191.83218" rx="0.5221504" ry="0.5221504" />
    </clipPath>
    <clipPath clipPathUnits="userSpaceOnUse" id="clipPath7838">
      <rect style="fill:#000000;fill-rule:nonzero;stroke:#0f0000;stroke-width:1.27999997;stroke-linecap:square;stroke-miterlimit:10;stroke-dasharray:none;stroke-dashoffset:0;fill-opacity:1.0;stroke-opacity:1.0" id="rect7840" width="278.88519" height="214.16782" x="16.012552" y="191.83218" rx="0.5221504" ry="0.5221504" />
    </clipPath>
    <clipPath clipPathUnits="userSpaceOnUse" id="clipPath7866">
      <rect style="fill:#000000;fill-rule:nonzero;stroke:#0f0000;stroke-width:1.27999997;stroke-linecap:square;stroke-miterlimit:10;stroke-dasharray:none;stroke-dashoffset:0;fill-opacity:1.0;stroke-opacity:1.0" id="rect7868" width="278.88519" height="214.16782" x="121.75227" y="-18.814808" rx="0.5221504" ry="0.5221504" />
    </clipPath>
    <clipPath clipPathUnits="userSpaceOnUse" id="clipPath7870">
      <rect style="fill:#000000;fill-rule:nonzero;stroke:#0f0000;stroke-width:1.27999997;stroke-linecap:square;stroke-miterlimit:10;stroke-dasharray:none;stroke-dashoffset:0;fill-opacity:1.0;stroke-opacity:1.0" id="rect7872" width="278.88519" height="214.16782" x="116.09097" y="55.725517" rx="0.5221504" ry="0.5221504" />
    </clipPath>
    <clipPath clipPathUnits="userSpaceOnUse" id="clipPath7874">
      <rect style="fill:#000000;fill-rule:nonzero;stroke:#0f0000;stroke-width:1.27999997;stroke-linecap:square;stroke-miterlimit:10;stroke-dasharray:none;stroke-dashoffset:0;fill-opacity:1.0;stroke-opacity:1.0" id="rect7876" width="278.88519" height="214.16782" x="116.09097" y="55.725517" rx="0.5221504" ry="0.5221504" />
    </clipPath>
    <clipPath clipPathUnits="userSpaceOnUse" id="clipPath7878">
      <rect style="fill:#000000;fill-rule:nonzero;stroke:#0f0000;stroke-width:1.27999997;stroke-linecap:square;stroke-miterlimit:10;stroke-dasharray:none;stroke-dashoffset:0;fill-opacity:1.0;stroke-opacity:1.0" id="rect7880" width="278.88519" height="214.16782" x="116.09097" y="55.725517" rx="0.5221504" ry="0.5221504" />
    </clipPath>
  </defs>
  <g style="stroke-width:1;stroke-linecap:square;stroke-linejoin:miter;stroke-miterlimit:10;stroke-dasharray:none;stroke-dashoffset:0" id="misc" clip-path="url(#clipPath7878)" transform="translate(0,435.88976)" />
  <g style="stroke-width:1;stroke-linecap:square;stroke-linejoin:miter;stroke-miterlimit:10;stroke-dasharray:none;stroke-dashoffset:0" clip-path="url(#clipPath7874)" id="g748" transform="translate(0,435.88976)">
    <g id="g750" style="fill:#000000;fill-opacity:1;fill-rule:nonzero;stroke:none">
      <path d="m 19.127,151.65 c 0,0.56 -0.448,1 -1,1 -0.552,0 -1,-0.44 -1,-1 0,-0.55 0.448,-1 1,-1 0.552,0 1,0.45 1,1 z" id="path752" />
      <title id="title754">Point C</title>
      <desc id="desc756">Point C: Intersection point of c, yAxis</desc>
    </g>
  </g>
  <g style="stroke-width:1;stroke-linecap:square;stroke-linejoin:miter;stroke-miterlimit:10;stroke-dasharray:none;stroke-dashoffset:0" clip-path="url(#clipPath7870)" id="g761" transform="translate(0,435.88976)">
    <g id="g763" style="fill:none;stroke:#000000;stroke-linecap:round;stroke-linejoin:round;stroke-opacity:1">
      <path d="m 19.127,151.65 c 0,0.56 -0.448,1 -1,1 -0.552,0 -1,-0.44 -1,-1 0,-0.55 0.448,-1 1,-1 0.552,0 1,0.45 1,1 z" id="path765" />
      <title id="title767">Point C</title>
      <desc id="desc769">Point C: Intersection point of c, yAxis</desc>
    </g>
  </g>
  <g id="g6976" transform="translate(-5.6612905,510.43009)" clip-path="url(#clipPath7866)" />
  <g style="stroke-width:1;stroke-linecap:square;stroke-linejoin:miter;stroke-miterlimit:10;stroke-dasharray:none;stroke-dashoffset:0" transform="matrix(21,0,0,21,457,989.41976)" id="g1119" clip-path="url(#clipPath7734)">
    <clipPath id="clip84">
      <path d="m -21.762,-26.359 0,19.3336 27.8572,0 0,-19.3336 z" id="path1122" />
    </clipPath>
    <g clip-path="url(#clip84)" id="g1124">
      <g id="g1126" style="fill:#000000;fill-opacity:1;fill-rule:nonzero;stroke:none">
        <path d="m 0.29688,-0.64062 0,0.562495 q 0,0.03125 0.01562,0.03125 0.01562,0.015625 0.07812,0.015625 l 0.03126,0 0,0.03125 Q 0.39062,0 0.25,0 0.125,0 0.09375,0 l 0,-0.03125 0.03125,0 q 0.07812,0 0.09375,-0.015625 l 0,0 q 0,-0.015625 0,-0.03125 l 0,-0.515625 q -0.04687,0.01563 -0.125,0.01563 l 0,-0.03126 q 0.10937,0 0.17187,-0.0625 0.03126,0 0.03126,0.01563 l 0,0 0,0 q 0,0 0,0.01563 z" id="path1128" />
        <title id="title1130">$1$</title>
        <desc id="desc1132">text2 = &quot;$1$&quot;</desc>
      </g>
    </g>
  </g>
  <g transform="translate(-12.800001,0)" id="g7530" />
  <rect style="fill:#ffffff;fill-rule:nonzero;stroke:#ffffff;stroke-width:0.74270099;stroke-linecap:round;stroke-miterlimit:10;stroke-dasharray:none;stroke-dashoffset:0;fill-opacity:1.0;stroke-opacity:1.0" id="rect8142" width="18.34058" height="12.318299" x="233.42465" y="698.68689" rx="0.30297002" ry="0.30297002" />
  <g style="font-style:normal;font-variant:normal;font-weight:normal;font-stretch:normal;letter-spacing:normal;word-spacing:normal;text-anchor:start;fill:none;fill-opacity:1;fill-rule:evenodd;stroke:#000000;stroke-linecap:butt;stroke-linejoin:miter;stroke-miterlimit:10.43299961;stroke-dasharray:none;stroke-dashoffset:0;stroke-opacity:1" id="content" transform="matrix(1.5,0,0,-1.5,-82.119104,1376.3002)" xml:space="preserve" stroke-miterlimit="10.433" font-style="normal" font-variant="normal" font-weight="normal" font-stretch="normal" font-size-adjust="none" letter-spacing="normal" word-spacing="normal" ns0:text="$\\tan \\theta$" ns0:preamble="/Users/Lizzie/Documents/Old mac/CMEP folder/underground-inkscape-preamble.tex"><path style="fill:#000000;stroke-width:0" d="m 226.58,478.14 -0.02,-0.02 -0.03,-0.03 -0.02,-0.03 -0.02,-0.02 -0.02,-0.03 -0.03,-0.02 -0.02,-0.02 -0.02,-0.02 -0.02,-0.02 -0.03,-0.02 -0.02,-0.02 -0.02,-0.01 -0.02,-0.02 -0.02,-0.01 -0.02,-0.02 -0.02,-0.01 -0.02,-0.01 -0.03,-0.01 -0.02,-0.01 -0.02,-0.01 -0.02,-0.01 -0.02,-0.01 -0.02,0 -0.02,-0.01 -0.03,0 -0.02,-0.01 -0.02,0 -0.02,0 -0.03,-0.01 -0.02,0 -0.02,0 -0.03,0 c -0.44,0 -0.61,0.31 -0.61,1.06 l 0,3.38 1.19,0 0,0.38 -1.19,0 0,1.37 c 0,0.12 -0.03,0.15 -0.09,0.15 -0.07,-0.12 -0.16,-0.22 -0.23,-0.33 -0.45,-0.65 -0.84,-1.09 -1.15,-1.26 -0.13,-0.09 -0.2,-0.16 -0.2,-0.23 0,-0.03 0.01,-0.06 0.04,-0.08 l 0.63,0 0,-3.55 c 0,-1 0.36,-1.5 1.04,-1.5 0.6,0 1.05,0.28 1.44,0.89 z" id="path8662" /><path style="fill:#000000;stroke-width:0" d="m 232.08,478.01 -0.02,-0.01 -0.02,-0.02 -0.02,-0.01 -0.01,-0.01 -0.02,-0.02 -0.02,-0.01 -0.01,-0.01 -0.02,-0.01 -0.01,-0.01 -0.02,-0.01 -0.02,-0.01 -0.01,-0.01 -0.02,-0.01 -0.01,-0.01 -0.01,0 -0.02,-0.01 -0.01,-0.01 -0.02,0 -0.01,-0.01 -0.02,0 -0.01,-0.01 -0.02,0 -0.01,0 -0.02,-0.01 -0.01,0 -0.02,0 -0.02,-0.01 -0.01,0 -0.02,0 -0.02,0 -0.01,0 -0.02,0 c -0.21,0 -0.37,0.24 -0.37,0.78 l 0,2.25 c 0,0.72 -0.04,0.97 -0.33,1.31 -0.28,0.35 -0.73,0.54 -1.4,0.54 -0.53,0 -1.03,-0.15 -1.36,-0.36 -0.41,-0.26 -0.6,-0.64 -0.6,-0.94 0,-0.32 0.26,-0.55 0.51,-0.55 0.3,0 0.54,0.26 0.54,0.49 0,0.25 -0.07,0.28 -0.07,0.49 0,0.32 0.36,0.58 0.83,0.58 0.53,0 0.92,-0.33 0.92,-1.06 l 0,-0.64 0,-0.28 0,-1.67 c 0,-0.34 -0.07,-0.5 -0.41,-0.74 -0.2,-0.13 -0.45,-0.19 -0.69,-0.19 -0.46,0 -0.82,0.28 -0.82,0.91 0,0.37 0.12,0.65 0.41,0.91 0.29,0.27 0.78,0.52 1.51,0.78 l 0,0.28 c -1.34,-0.49 -1.77,-0.72 -2.13,-0.95 -0.46,-0.31 -0.83,-0.77 -0.83,-1.38 0,-0.78 0.51,-1.23 1.25,-1.23 0.51,0 1.09,0.15 1.71,0.86 l 0.02,0 c 0.06,-0.63 0.31,-0.86 0.75,-0.86 0.41,0 0.71,0.11 1.07,0.56 z" id="path8664" /><path style="fill:#000000;stroke-width:0" d="m 237.85,477.23 0,0.18 c -0.58,0.06 -0.72,0.19 -0.72,0.83 l 0,2.61 c 0,1.17 -0.5,1.82 -1.4,1.82 -0.55,0 -1.09,-0.26 -1.71,-0.96 l -0.01,0 0,0.92 -0.09,0.04 c -0.58,-0.22 -0.97,-0.35 -1.63,-0.54 l 0,-0.2 c 0.09,0.04 0.22,0.05 0.35,0.05 0.33,0 0.41,-0.19 0.41,-0.77 l 0,-2.86 c 0,-0.7 -0.13,-0.89 -0.73,-0.94 l 0,-0.18 2.5,0 0,0.18 c -0.61,0.05 -0.77,0.21 -0.77,0.67 l 0,3.26 c 0.54,0.54 0.83,0.68 1.22,0.68 0.58,0 0.86,-0.36 0.86,-1.2 l 0,-2.34 c 0,-0.78 -0.14,-1.02 -0.73,-1.07 l -0.01,-0.18 z" id="path8666" /><path style="fill:#000000;stroke-width:0" d="m 245.3,482.81 0,0.14 -0.01,0.14 0,0.14 -0.02,0.13 -0.01,0.12 -0.02,0.12 -0.03,0.12 -0.02,0.11 -0.03,0.11 -0.04,0.1 -0.03,0.1 -0.04,0.09 -0.04,0.09 -0.05,0.08 -0.04,0.08 -0.05,0.07 -0.05,0.07 -0.06,0.07 -0.06,0.06 -0.05,0.05 -0.07,0.05 -0.06,0.05 -0.07,0.04 -0.06,0.04 -0.07,0.03 -0.07,0.03 -0.08,0.03 -0.07,0.02 -0.08,0.01 -0.08,0.01 -0.07,0.01 -0.08,0 -0.09,-0.34 c 0.49,0 0.61,-0.66 0.61,-1.52 0,-0.49 -0.12,-1.14 -0.3,-1.96 l -2.44,0 c 0.31,1.4 1.28,3.48 2.13,3.48 l 0.09,0.34 c -2.25,0 -3.63,-3.85 -3.63,-5.9 0,-1.42 0.5,-2.11 1.62,-2.11 l 0.06,0.34 c -0.51,0 -0.68,0.66 -0.68,1.47 0,0.57 0.1,1.36 0.29,1.95 l 2.45,0 c -0.03,-0.1 -0.1,-0.44 -0.19,-0.71 -0.36,-1.17 -1.07,-2.71 -1.87,-2.71 l -0.06,-0.34 c 1.83,0 3.52,3.38 3.52,5.7 z" id="path8668" /></g>  <path id="path53" d="m 105.06012,698.54669 137.61032,0 0,-75.17527 z" style="fill:#d7191c;fill-opacity:0.34901961;fill-rule:evenodd;stroke:none;stroke-width:1;stroke-linecap:square;stroke-linejoin:miter;stroke-miterlimit:10;stroke-dasharray:none;stroke-dashoffset:0" />
  <g style="stroke:#d7191c;stroke-width:0.71414441;stroke-miterlimit:4;stroke-dasharray:none;stroke-opacity:1" id="use4663" transform="matrix(0.60774013,0.49552926,-0.49553088,0.60774211,204.43123,442.57914)" clip-path="url(#clipPath7806)">
    <g id="g4667" clip-path="url(#clipPath5992)" style="stroke:#d7191c;stroke-width:0.71414441;stroke-linecap:square;stroke-linejoin:miter;stroke-miterlimit:4;stroke-dasharray:none;stroke-dashoffset:0;stroke-opacity:1">
      <g style="fill:#444444;fill-opacity:0.09803898;fill-rule:evenodd;stroke:#d7191c;stroke-width:0.71414441;stroke-miterlimit:4;stroke-dasharray:none;stroke-opacity:1" id="g4669">
        <path style="stroke:#d7191c;stroke-width:0.71414441;stroke-miterlimit:4;stroke-dasharray:none;stroke-opacity:1" id="path4671" d="m 222.39,219.55 9.47,11.43 11.43,-9.47 -9.47,-11.44 -11.43,9.48" />
        <title id="title4673">Angle Ã&#131;Â&#142;Ã&#130;Âº</title>
        <desc id="desc4675">Angle Ã&#131;Â&#142;Ã&#130;Âº: Angle between M, E, D</desc>
      </g>
    </g>
    <g id="g4677" clip-path="url(#clipPath5988)" style="stroke:#d7191c;stroke-width:0.71414441;stroke-linecap:square;stroke-linejoin:miter;stroke-miterlimit:4;stroke-dasharray:none;stroke-dashoffset:0;stroke-opacity:1">
      <g style="fill:none;stroke:#d7191c;stroke-width:0.71414441;stroke-linecap:round;stroke-linejoin:round;stroke-miterlimit:4;stroke-dasharray:none;stroke-opacity:1" id="g4679">
        <path id="path4681" d="m 222.39,219.55 9.47,11.43 11.43,-9.47 -9.47,-11.44 -11.43,9.48" style="stroke:#d7191c;stroke-width:0.71414441;stroke-miterlimit:4;stroke-dasharray:none;stroke-opacity:1" />
        <title id="title4683">Angle Ã&#131;Â&#142;Ã&#130;Âº</title>
        <desc id="desc4685">Angle Ã&#131;Â&#142;Ã&#130;Âº: Angle between M, E, D</desc>
      </g>
    </g>
  </g>
  <g transform="matrix(0.58023518,0,0,0.58023518,94.674633,472.55554)" id="g153" clip-path="url(#clipPath7838)" style="stroke-width:1;stroke-linecap:square;stroke-linejoin:miter;stroke-miterlimit:10;stroke-dasharray:none;stroke-dashoffset:0">
    <g style="fill:#d7191c;fill-opacity:0.09803898;fill-rule:nonzero;stroke:none" id="g155">
      <path id="path157" d="m 118.13,388.81 c 0,-16.75 -4.21,-33.24 -12.24,-47.94 l -87.763,47.94 z" />
      <title id="title159">Angle Ã&#131;Â&#142;Ã&#130;Â±</title>
      <desc id="desc161">Angle Ã&#131;Â&#142;Ã&#130;Â±: Angle between B, A, P</desc>
    </g>
  </g>
  <g transform="matrix(0.58023518,0,0,0.58023518,94.674633,472.55554)" id="g168" style="fill:none;stroke:#000000;stroke-width:1;stroke-linecap:round;stroke-linejoin:round;stroke-miterlimit:10;stroke-dasharray:none;stroke-dashoffset:0;stroke-opacity:1">
    <path style="stroke:#000000;stroke-opacity:1" d="m 118.13,388.81 c 0,-16.75 -4.21,-33.24 -12.24,-47.94 l -87.763,47.94 z" id="path170" />
    <title id="title172">Angle Ã&#131;Â&#142;Ã&#130;Â±</title>
    <desc id="desc174">Angle Ã&#131;Â&#142;Ã&#130;Â±: Angle between B, A, P</desc>
  </g>
  <g transform="matrix(0.57826338,0,0,0.58023518,95.109873,471.88835)" id="g432" clip-path="url(#clipPath7790)" style="stroke-width:2.06812692;stroke-linecap:square;stroke-linejoin:miter;stroke-miterlimit:10;stroke-dasharray:none;stroke-dashoffset:0">
    <g style="fill:none;stroke:#d7191c;stroke-width:2.06812692;stroke-linecap:round;stroke-linejoin:round;stroke-miterlimit:10;stroke-dasharray:none;stroke-opacity:1" id="g434">
      <path style="stroke-width:2.06812692;stroke-miterlimit:10;stroke-dasharray:none" id="path436" d="m 18.127,388.81 237.163,0" />
      <title id="title438">Segment m</title>
      <desc id="desc440">Segment m: Segment [A, B] of Triangle poly1</desc>
    </g>
  </g>
  <g transform="matrix(0.58023518,0,0,0.57486017,94.674633,473.94337)" id="g445" clip-path="url(#clipPath7786)" style="stroke-width:2.06812692;stroke-linecap:square;stroke-linejoin:miter;stroke-miterlimit:10.43299961;stroke-dasharray:none;stroke-dashoffset:0">
    <g style="fill:none;stroke:#d7191c;stroke-width:2.06812692;stroke-linecap:round;stroke-linejoin:round;stroke-miterlimit:10.43299961;stroke-dasharray:none;stroke-opacity:1" id="g447">
      <path style="stroke-width:2.06812692;stroke-miterlimit:10.43299961;stroke-dasharray:none" id="path449" d="m 255.29,388.81 0,-129.56" />
      <title id="title451">Segment a</title>
      <desc id="desc453">Segment a: Segment [B, M] of Triangle poly1</desc>
    </g>
  </g>
  <g transform="matrix(0.57918244,0,0,0.57917873,94.943377,472.82942)" id="g460" style="fill:none;stroke:#d7191c;stroke-width:2.07189274;stroke-linecap:round;stroke-linejoin:round;stroke-miterlimit:10;stroke-dasharray:none;stroke-dashoffset:0;stroke-opacity:1">
    <path d="M 255.29,259.25 18.127,388.81" id="path462" style="stroke-width:2.07189274;stroke-miterlimit:10;stroke-dasharray:none" />
    <title id="title464">Segment b</title>
    <desc id="desc466">Segment b: Segment [M, A] of Triangle poly1</desc>
  </g>
  <g style="font-style:normal;font-variant:normal;font-weight:normal;font-stretch:normal;letter-spacing:normal;word-spacing:normal;text-anchor:start;fill:#000000;fill-opacity:1;fill-rule:evenodd;stroke:#d7191c;stroke-linecap:butt;stroke-linejoin:miter;stroke-miterlimit:10.43299961;stroke-dasharray:none;stroke-dashoffset:0;stroke-opacity:1" id="g9504" transform="matrix(1.2983754,0,0,-1.2983754,-148.54773,1312.0625)" xml:space="preserve" stroke-miterlimit="10.433" font-style="normal" font-variant="normal" font-weight="normal" font-stretch="normal" font-size-adjust="none" letter-spacing="normal" word-spacing="normal" ns0:text="$\\theta$" ns0:preamble="/Users/Lizzie/Documents/Old mac/CMEP folder/underground-inkscape-preamble.tex"><path style="fill:#000000;fill-opacity:1;stroke:#d7191c;stroke-width:0;stroke-opacity:1" d="m 229.05,482.81 -0.01,0.14 0,0.14 -0.01,0.14 -0.01,0.13 -0.02,0.12 -0.02,0.12 -0.02,0.12 -0.03,0.11 -0.03,0.11 -0.03,0.1 -0.04,0.1 -0.04,0.09 -0.04,0.09 -0.04,0.08 -0.05,0.08 -0.05,0.07 -0.05,0.07 -0.05,0.07 -0.06,0.06 -0.06,0.05 -0.06,0.05 -0.07,0.05 -0.06,0.04 -0.07,0.04 -0.07,0.03 -0.07,0.03 -0.07,0.03 -0.08,0.02 -0.07,0.01 -0.08,0.01 -0.08,0.01 -0.08,0 -0.08,-0.34 c 0.48,0 0.6,-0.66 0.6,-1.52 0,-0.49 -0.12,-1.14 -0.29,-1.96 l -2.44,0 c 0.3,1.4 1.27,3.48 2.13,3.48 l 0.08,0.34 c -2.25,0 -3.62,-3.85 -3.62,-5.9 0,-1.42 0.49,-2.11 1.62,-2.11 l 0.06,0.34 c -0.51,0 -0.69,0.66 -0.69,1.47 0,0.57 0.11,1.36 0.3,1.95 l 2.45,0 c -0.04,-0.1 -0.11,-0.44 -0.19,-0.71 -0.37,-1.17 -1.08,-2.71 -1.87,-2.71 l -0.06,-0.34 c 1.82,0 3.52,3.38 3.52,5.7 z" id="path9506" /></g>  <g style="font-style:normal;font-variant:normal;font-weight:normal;font-stretch:normal;letter-spacing:normal;word-spacing:normal;text-anchor:start;fill:none;fill-opacity:1;fill-rule:evenodd;stroke:#000000;stroke-linecap:butt;stroke-linejoin:miter;stroke-miterlimit:10.43299961;stroke-dasharray:none;stroke-dashoffset:0;stroke-opacity:1" id="g4168" transform="matrix(1.5,0,0,-1.5,-247.69516,1422.3729)" xml:space="preserve" stroke-miterlimit="10.433" font-style="normal" font-variant="normal" font-weight="normal" font-stretch="normal" font-size-adjust="none" letter-spacing="normal" word-spacing="normal" ns0:text="$O$" ns0:preamble="/Users/Lizzie/Documents/Old mac/CMEP folder/underground-inkscape-preamble.tex"><path style="fill:#000000;stroke-width:0" d="m 231.87,482.19 -0.01,0.14 -0.01,0.14 -0.01,0.14 -0.02,0.14 -0.03,0.13 -0.03,0.14 -0.03,0.13 -0.05,0.13 -0.05,0.13 -0.05,0.12 -0.06,0.13 -0.07,0.12 -0.07,0.11 -0.08,0.12 -0.08,0.11 -0.09,0.1 -0.09,0.1 -0.1,0.1 -0.11,0.09 -0.11,0.09 -0.12,0.08 -0.12,0.07 -0.13,0.07 -0.14,0.06 -0.14,0.06 -0.15,0.05 -0.15,0.04 -0.16,0.04 -0.16,0.03 -0.17,0.02 -0.18,0.01 -0.18,0 -0.1,-0.43 c 1.2,0 1.67,-0.97 1.67,-2.24 l 0,0 c 0,-1.66 -0.86,-4.91 -3.37,-4.91 -0.93,0 -1.66,0.63 -1.66,1.78 0,1.67 0.61,5.37 3.36,5.37 l 0.1,0.43 c -3.02,0 -4.9,-2.88 -4.9,-5.27 0,-1.62 1.24,-2.75 3,-2.75 3,0 4.85,2.75 4.85,5.08 z" id="path4170" /></g>  <g style="font-style:normal;font-variant:normal;font-weight:normal;font-stretch:normal;letter-spacing:normal;word-spacing:normal;text-anchor:start;fill:none;fill-opacity:1;fill-rule:evenodd;stroke:#000000;stroke-linecap:butt;stroke-linejoin:miter;stroke-miterlimit:10.43299961;stroke-dasharray:none;stroke-dashoffset:0;stroke-opacity:1" id="g5864" transform="matrix(1.5,0,0,-1.5,-87.763705,1421.7164)" xml:space="preserve" stroke-miterlimit="10.433" font-style="normal" font-variant="normal" font-weight="normal" font-stretch="normal" font-size-adjust="none" letter-spacing="normal" word-spacing="normal" ns0:text="$Q$" ns0:preamble="/Users/Lizzie/Documents/Old mac/CMEP folder/underground-inkscape-preamble.tex"><path style="fill:#000000;stroke-width:0" d="m 224.41,475.88 0.13,-0.14 c 0.33,0.15 0.6,0.21 0.69,0.21 0.36,0 1,-0.19 1.59,-0.32 0.44,-0.09 1.05,-0.19 1.68,-0.19 1.4,0 2.23,0.54 2.93,1.41 l -0.16,0.13 c -0.59,-0.63 -1.15,-0.78 -1.61,-0.78 -1.03,0 -2.13,0.4 -2.9,0.4 -0.15,0 -0.32,-0.01 -0.51,-0.05 l -0.05,0.06 0.76,0.51 0.04,0.43 c -0.95,0 -1.55,0.62 -1.55,1.76 0,1.63 1.06,5.36 3.69,5.36 0.77,0 1.54,-0.36 1.54,-1.92 l 0,0 c 0,-1.86 -1.11,-5.2 -3.68,-5.2 l -0.04,-0.43 c 2.9,0 5.13,2.67 5.13,5.07 0,1.83 -1.1,2.92 -2.83,2.92 -3.01,0 -5.24,-2.85 -5.24,-5.25 0,-1.56 0.99,-2.52 2.34,-2.72 z" id="path5866" /></g>  <g style="font-style:normal;font-variant:normal;font-weight:normal;font-stretch:normal;letter-spacing:normal;word-spacing:normal;text-anchor:start;fill:none;fill-opacity:1;fill-rule:evenodd;stroke:#000000;stroke-linecap:butt;stroke-linejoin:miter;stroke-miterlimit:10.43299961;stroke-dasharray:none;stroke-dashoffset:0;stroke-opacity:1" id="g4190" transform="matrix(1.5,0,0,-1.5,-158.52983,1433.5107)" xml:space="preserve" stroke-miterlimit="10.433" font-style="normal" font-variant="normal" font-weight="normal" font-stretch="normal" font-size-adjust="none" letter-spacing="normal" word-spacing="normal" ns0:text="$1$" ns0:preamble="/Users/Lizzie/Documents/Old mac/CMEP folder/underground-inkscape-preamble.tex"><path style="fill:#000000;stroke-width:0" d="m 228.1,477.23 0,0.18 c -0.89,0 -1.13,0.21 -1.13,0.72 l 0,7.05 -0.1,0.04 -2.12,-1.08 0,-0.16 0.32,0.11 c 0.21,0.09 0.41,0.15 0.53,0.15 0.25,0 0.36,-0.18 0.36,-0.58 l 0,-5.3 c 0,-0.65 -0.25,-0.9 -1.13,-0.95 l 0,-0.18 z" id="path4192" /></g>  <g style="font-style:normal;font-variant:normal;font-weight:normal;font-stretch:normal;letter-spacing:normal;word-spacing:normal;text-anchor:start;fill:none;fill-opacity:1;fill-rule:evenodd;stroke:#000000;stroke-linecap:butt;stroke-linejoin:miter;stroke-miterlimit:10.43299961;stroke-dasharray:none;stroke-dashoffset:0;stroke-opacity:1" id="use5580" transform="matrix(1.5,0,0,-1.5,-89.650809,1335.3818)" xml:space="preserve" stroke-miterlimit="10.433" font-style="normal" font-variant="normal" font-weight="normal" font-stretch="normal" font-size-adjust="none" letter-spacing="normal" word-spacing="normal" ns0:text="$P$" ns0:preamble="/Users/Lizzie/Documents/Old mac/CMEP folder/underground-inkscape-preamble.tex"><path style="fill:#000000;stroke-width:0" d="m 225.81,484.94 -0.05,-0.18 0.23,0 c 0.72,0 0.92,-0.19 0.92,-0.44 0,-0.1 -0.02,-0.2 -0.04,-0.3 l -1.48,-5.86 c -0.11,-0.41 -0.35,-0.74 -1.26,-0.74 l -0.2,0 -0.05,-0.19 4.04,0 0.05,0.19 -0.38,0 c -0.7,0 -0.91,0.18 -0.91,0.46 0,0.1 0.01,0.18 0.03,0.28 l 0.67,2.63 c 0.04,-0.01 0.08,-0.02 0.14,-0.02 0.28,-0.05 0.54,-0.06 0.88,-0.06 2.41,0 3.37,1.19 3.37,2.34 0,0.88 -0.73,1.89 -2.75,1.89 l -0.14,-0.43 c 1.13,0 1.48,-0.63 1.48,-1.34 0,-1.2 -0.95,-2.03 -2.15,-2.03 -0.24,0 -0.53,0.05 -0.72,0.1 l 0.81,3.23 c 0.2,0.03 0.38,0.04 0.58,0.04 l 0.14,0.43 z" id="path5584" /></g>  <g style="font-style:normal;font-variant:normal;font-weight:normal;font-stretch:normal;letter-spacing:normal;word-spacing:normal;text-anchor:start;fill:none;fill-opacity:1;fill-rule:evenodd;stroke:#000000;stroke-linecap:butt;stroke-linejoin:miter;stroke-miterlimit:10.43299961;stroke-dasharray:none;stroke-dashoffset:0;stroke-opacity:1" id="g7996" transform="matrix(1.5,0,0,-1.5,-186.70117,1365.8554)" xml:space="preserve" stroke-miterlimit="10.433" font-style="normal" font-variant="normal" font-weight="normal" font-stretch="normal" font-size-adjust="none" letter-spacing="normal" word-spacing="normal" ns0:text="$\\sec \\theta$" ns0:preamble="/Users/Lizzie/Documents/Old mac/CMEP folder/underground-inkscape-preamble.tex"><path style="fill:#000000;stroke-width:0" d="m 225.28,480.79 -0.03,0.02 -0.03,0.02 -0.03,0.02 -0.03,0.02 -0.02,0.02 -0.03,0.03 -0.03,0.02 -0.02,0.02 -0.02,0.03 -0.03,0.02 -0.02,0.03 -0.02,0.02 -0.02,0.03 -0.02,0.02 -0.01,0.03 -0.02,0.03 -0.02,0.02 -0.01,0.03 -0.01,0.03 -0.02,0.03 -0.01,0.02 -0.01,0.03 -0.01,0.03 -0.01,0.02 0,0.03 -0.01,0.03 -0.01,0.02 0,0.03 -0.01,0.03 0,0.02 0,0.03 0,0.02 c 0,0.56 0.38,0.8 0.89,0.8 0.71,0 1.07,-0.38 1.34,-1.45 l 0.18,0 -0.06,1.61 -0.13,0 c -0.1,-0.11 -0.15,-0.12 -0.19,-0.12 -0.09,0 -0.21,0.03 -0.34,0.09 -0.25,0.12 -0.5,0.13 -0.79,0.13 -0.97,0 -1.63,-0.52 -1.63,-1.45 0,-0.6 0.43,-1.17 1.42,-1.71 l 0.64,-0.35 c 0.39,-0.22 0.63,-0.52 0.63,-0.89 0,-0.48 -0.38,-0.87 -0.99,-0.87 -0.82,0 -1.25,0.52 -1.5,1.66 l -0.19,0 0,-1.85 0.15,0 c 0.07,0.12 0.14,0.14 0.29,0.14 0.13,0 0.26,-0.01 0.54,-0.11 0.27,-0.09 0.62,-0.1 0.87,-0.1 0.9,0 1.65,0.68 1.65,1.47 0,0.68 -0.28,0.99 -1.04,1.46 z" id="path7998" /><path style="fill:#000000;stroke-width:0" d="m 232.87,479.17 -0.05,-0.08 -0.05,-0.08 -0.06,-0.07 -0.05,-0.07 -0.05,-0.07 -0.05,-0.07 -0.05,-0.06 -0.06,-0.06 -0.05,-0.06 -0.05,-0.05 -0.05,-0.06 -0.05,-0.04 -0.05,-0.05 -0.05,-0.05 -0.06,-0.04 -0.05,-0.04 -0.05,-0.03 -0.06,-0.04 -0.05,-0.03 -0.06,-0.03 -0.05,-0.02 -0.06,-0.03 -0.06,-0.02 -0.06,-0.02 -0.06,-0.01 -0.07,-0.02 -0.06,-0.01 -0.07,-0.01 -0.07,-0.01 -0.07,0 -0.07,-0.01 -0.07,0 c -0.55,0 -0.98,0.21 -1.31,0.65 -0.43,0.57 -0.49,1.03 -0.55,1.93 l 0.02,0.37 c 0.13,0.89 0.6,1.36 1.26,1.36 0.78,0 1.03,-0.4 1.16,-1.36 l -2.42,0 -0.02,-0.37 3.65,0 c -0.05,0.63 -0.17,1.01 -0.41,1.34 -0.37,0.53 -0.91,0.82 -1.64,0.82 -1.49,0 -2.45,-1.21 -2.45,-2.87 0,-1.63 0.85,-2.68 2.25,-2.68 1.18,0 2.01,0.68 2.47,1.97 z" id="path8000" /><path style="fill:#000000;stroke-width:0" d="m 238.01,479.08 -0.05,-0.08 -0.05,-0.07 -0.05,-0.07 -0.05,-0.07 -0.05,-0.06 -0.05,-0.06 -0.05,-0.06 -0.05,-0.06 -0.05,-0.05 -0.05,-0.05 -0.05,-0.04 -0.05,-0.05 -0.04,-0.04 -0.05,-0.04 -0.05,-0.03 -0.05,-0.04 -0.05,-0.03 -0.05,-0.03 -0.05,-0.03 -0.05,-0.02 -0.05,-0.02 -0.05,-0.02 -0.06,-0.02 -0.05,-0.02 -0.05,-0.01 -0.06,-0.01 -0.06,-0.01 -0.05,-0.01 -0.06,-0.01 -0.06,0 -0.06,0 -0.06,0 c -1.09,0 -1.84,0.94 -1.84,2.3 0,1.23 0.65,2.05 1.61,2.05 0.43,0 0.58,-0.13 0.7,-0.56 l 0.07,-0.26 c 0.1,-0.35 0.31,-0.55 0.57,-0.55 0.31,0 0.55,0.23 0.55,0.5 0,0.66 -0.82,1.22 -1.82,1.22 -0.56,0 -1.12,-0.22 -1.6,-0.61 -0.64,-0.53 -0.99,-1.34 -0.99,-2.32 0,-1.53 0.93,-2.62 2.25,-2.62 0.51,0 0.96,0.16 1.36,0.49 0.36,0.29 0.59,0.63 0.97,1.36 z" id="path8002" /><path style="fill:#000000;stroke-width:0" d="m 245.84,482.81 -0.01,0.14 0,0.14 -0.01,0.14 -0.01,0.13 -0.02,0.12 -0.02,0.12 -0.02,0.12 -0.03,0.11 -0.03,0.11 -0.03,0.1 -0.04,0.1 -0.04,0.09 -0.04,0.09 -0.04,0.08 -0.05,0.08 -0.05,0.07 -0.05,0.07 -0.06,0.07 -0.05,0.06 -0.06,0.05 -0.06,0.05 -0.07,0.05 -0.06,0.04 -0.07,0.04 -0.07,0.03 -0.07,0.03 -0.07,0.03 -0.08,0.02 -0.07,0.01 -0.08,0.01 -0.08,0.01 -0.08,0 -0.08,-0.34 c 0.48,0 0.6,-0.66 0.6,-1.52 0,-0.49 -0.12,-1.14 -0.3,-1.96 l -2.44,0 c 0.31,1.4 1.28,3.48 2.14,3.48 l 0.08,0.34 c -2.25,0 -3.63,-3.85 -3.63,-5.9 0,-1.42 0.5,-2.11 1.63,-2.11 l 0.06,0.34 c -0.51,0 -0.69,0.66 -0.69,1.47 0,0.57 0.11,1.36 0.3,1.95 l 2.45,0 c -0.04,-0.1 -0.11,-0.44 -0.19,-0.71 -0.37,-1.17 -1.08,-2.71 -1.87,-2.71 l -0.06,-0.34 c 1.82,0 3.52,3.38 3.52,5.7 z" id="path8004" /></g>  <g ns0:preamble="/Users/Lizzie/Documents/Old mac/CMEP folder/underground-inkscape-preamble.tex" ns0:text="$P$" word-spacing="normal" letter-spacing="normal" font-size-adjust="none" font-stretch="normal" font-weight="normal" font-variant="normal" font-style="normal" stroke-miterlimit="10.433" xml:space="preserve" transform="matrix(1.5,0,0,-1.5,-14.251429,1421.7668)" id="g5014" style="font-style:normal;font-variant:normal;font-weight:normal;font-stretch:normal;letter-spacing:normal;word-spacing:normal;text-anchor:start;fill:none;fill-opacity:1;fill-rule:evenodd;stroke:#000000;stroke-linecap:butt;stroke-linejoin:miter;stroke-miterlimit:10.43299961;stroke-dasharray:none;stroke-dashoffset:0;stroke-opacity:1"><path id="path5016" d="m 225.81,484.94 -0.05,-0.18 0.23,0 c 0.72,0 0.92,-0.19 0.92,-0.44 0,-0.1 -0.02,-0.2 -0.04,-0.3 l -1.48,-5.86 c -0.11,-0.41 -0.35,-0.74 -1.26,-0.74 l -0.2,0 -0.05,-0.19 4.04,0 0.05,0.19 -0.38,0 c -0.7,0 -0.91,0.18 -0.91,0.46 0,0.1 0.01,0.18 0.03,0.28 l 0.67,2.63 c 0.04,-0.01 0.08,-0.02 0.14,-0.02 0.28,-0.05 0.54,-0.06 0.88,-0.06 2.41,0 3.37,1.19 3.37,2.34 0,0.88 -0.73,1.89 -2.75,1.89 l -0.14,-0.43 c 1.13,0 1.48,-0.63 1.48,-1.34 0,-1.2 -0.95,-2.03 -2.15,-2.03 -0.24,0 -0.53,0.05 -0.72,0.1 l 0.81,3.23 c 0.2,0.03 0.38,0.04 0.58,0.04 l 0.14,0.43 z" style="fill:#000000;stroke-width:0" /></g>  <g ns0:preamble="/Users/Lizzie/Documents/Old mac/CMEP folder/underground-inkscape-preamble.tex" ns0:text="$R$" word-spacing="normal" letter-spacing="normal" font-size-adjust="none" font-stretch="normal" font-weight="normal" font-variant="normal" font-style="normal" stroke-miterlimit="10.433" xml:space="preserve" transform="matrix(0.99998141,0,0,-0.99998141,196.13979,1089.7502)" id="g6718" style="font-style:normal;font-variant:normal;font-weight:normal;font-stretch:normal;letter-spacing:normal;word-spacing:normal;text-anchor:start;fill:none;fill-opacity:1;fill-rule:evenodd;stroke:#000000;stroke-linecap:butt;stroke-linejoin:miter;stroke-miterlimit:10.43299961;stroke-dasharray:none;stroke-dashoffset:0;stroke-opacity:1"><g style="font-style:normal;font-variant:normal;font-weight:normal;font-stretch:normal;letter-spacing:normal;word-spacing:normal;text-anchor:start;fill:none;fill-opacity:1;fill-rule:evenodd;stroke:#000000;stroke-linecap:butt;stroke-linejoin:miter;stroke-miterlimit:10.43299961;stroke-dasharray:none;stroke-dashoffset:0;stroke-opacity:1" id="g7575" transform="matrix(1.5,0,0,1.5,-72.604823,-229.24693)" xml:space="preserve" stroke-miterlimit="10.433" font-style="normal" font-variant="normal" font-weight="normal" font-stretch="normal" font-size-adjust="none" letter-spacing="normal" word-spacing="normal" ns0:text="$T$" ns0:preamble="/Users/Lizzie/Documents/Old mac/CMEP folder/underground-inkscape-preamble.tex"><path style="fill:#000000;stroke-width:0" d="m 231.37,484.94 -7.1,0 -0.54,-2.11 0.19,0 c 0.21,0.96 1.04,1.68 2.02,1.68 l 1.08,0 -1.57,-6.35 c -0.1,-0.41 -0.34,-0.74 -1.26,-0.74 l -0.21,0 -0.05,-0.19 3.9,0 0.04,0.19 -0.25,0 c -0.71,0 -0.89,0.19 -0.89,0.44 0,0.11 0.03,0.19 0.05,0.3 l 1.58,6.35 1.16,0 c 0.49,0 1.17,-0.06 1.17,-0.84 0,-0.32 -0.03,-0.64 -0.06,-0.84 l 0.19,0 z" id="path7577" /></g></g>  <g ns0:preamble="/Users/Lizzie/Documents/Old mac/CMEP folder/underground-inkscape-preamble.tex" ns0:text="$S$" word-spacing="normal" letter-spacing="normal" font-size-adjust="none" font-stretch="normal" font-weight="normal" font-variant="normal" font-style="normal" stroke-miterlimit="10.433" xml:space="preserve" transform="matrix(1.5,0,0,-1.5,124.24288,1421.7725)" id="g8435" style="font-style:normal;font-variant:normal;font-weight:normal;font-stretch:normal;letter-spacing:normal;word-spacing:normal;text-anchor:start;fill:none;fill-opacity:1;fill-rule:evenodd;stroke:#000000;stroke-linecap:butt;stroke-linejoin:miter;stroke-miterlimit:10.43299961;stroke-dasharray:none;stroke-dashoffset:0;stroke-opacity:1"><path id="path8437" d="m 231.49,485.12 -0.19,0 c -0.04,-0.18 -0.2,-0.44 -0.44,-0.44 -0.51,0 -1.19,0.44 -2.17,0.44 -1.87,0 -2.64,-1.11 -2.64,-2.07 0,-0.57 0.53,-1.21 0.86,-1.54 0.43,-0.41 1,-0.84 1.35,-1.21 0.34,-0.33 0.55,-0.72 0.55,-1.13 0,-0.77 -0.34,-1.6 -1.85,-1.6 -1.55,0 -1.99,1.03 -2.02,1.97 0,0.11 -0.02,0.25 -0.02,0.36 l -0.18,0 -0.72,-2.78 0.19,0 c 0.19,0.32 0.36,0.45 0.66,0.45 0.89,0 1.26,-0.45 2.38,-0.45 1.85,0 2.89,1.08 2.89,2.25 0,1.03 -0.7,1.71 -1.4,2.29 -0.67,0.57 -1.39,1.07 -1.39,1.88 0,0.84 0.93,1.14 1.44,1.14 1.32,0 1.89,-0.89 1.89,-1.88 0,-0.1 0,-0.19 -0.01,-0.29 l 0.19,0 z" style="fill:#000000;stroke-width:0" /></g>  <path style="fill:#2b83ba;fill-opacity:0.09803898;fill-rule:evenodd;stroke:#2b83ba;stroke-width:1.20000005;stroke-linecap:square;stroke-linejoin:miter;stroke-miterlimit:10;stroke-dasharray:none;stroke-dashoffset:0;stroke-opacity:1" d="m 338.18139,697.2695 114.98165,0.17056 0.15041,-95.29452 z" id="path66" />
  <g style="stroke-width:1;stroke-linecap:square;stroke-linejoin:miter;stroke-miterlimit:10;stroke-dasharray:none;stroke-dashoffset:0" clip-path="url(#clipPath7826)" id="g194" transform="matrix(-1.4203966,-1.7191583,-1.7191586,1.4203966,1146.4863,767.91562)">
    <g id="g196" style="fill:#2b83ba;fill-opacity:0.09803898;fill-rule:nonzero;stroke:none">
      <path d="m 255.29,234.25 c -5.83,0 -11.47,2.04 -15.95,5.75 l 15.95,19.25 z" id="path198" />
      <title id="title200">Angle Ã&#131;Â&#142;Ã&#130;Â²</title>
      <desc id="desc202">Angle Ã&#131;Â&#142;Ã&#130;Â²: Angle between D, M, E</desc>
    </g>
  </g>
  <g id="g6964" transform="matrix(-0.57694113,-0.69829309,-0.69829552,0.57694302,735.06949,726.35511)" clip-path="url(#clipPath7806)" style="stroke:#2b83ba;stroke-width:0.71582639;stroke-miterlimit:4;stroke-dasharray:none;stroke-opacity:1">
    <g id="g328" clip-path="url(#clipPath5992)" style="stroke:#2b83ba;stroke-width:0.71582639;stroke-linecap:square;stroke-linejoin:miter;stroke-miterlimit:4;stroke-dasharray:none;stroke-dashoffset:0;stroke-opacity:1">
      <g style="fill:#444444;fill-opacity:0.09803898;fill-rule:evenodd;stroke:#2b83ba;stroke-width:0.71582639;stroke-miterlimit:4;stroke-dasharray:none;stroke-opacity:1" id="g330">
        <path id="path332" d="m 222.39,219.55 9.47,11.43 11.43,-9.47 -9.47,-11.44 -11.43,9.48" style="stroke:#2b83ba;stroke-width:0.71582639;stroke-miterlimit:4;stroke-dasharray:none;stroke-opacity:1" />
        <title id="title334">Angle Ã&#131;Â&#142;Ã&#130;Âº</title>
        <desc id="desc336">Angle Ã&#131;Â&#142;Ã&#130;Âº: Angle between M, E, D</desc>
      </g>
    </g>
    <g id="g341" clip-path="url(#clipPath5988)" style="stroke:#2b83ba;stroke-width:0.71582639;stroke-linecap:square;stroke-linejoin:miter;stroke-miterlimit:4;stroke-dasharray:none;stroke-dashoffset:0;stroke-opacity:1">
      <g style="fill:none;stroke:#2b83ba;stroke-width:0.71582639;stroke-linecap:round;stroke-linejoin:round;stroke-miterlimit:4;stroke-dasharray:none;stroke-opacity:1" id="g343">
        <path id="path345" d="m 222.39,219.55 9.47,11.43 11.43,-9.47 -9.47,-11.44 -11.43,9.48" style="stroke:#2b83ba;stroke-width:0.71582639;stroke-miterlimit:4;stroke-dasharray:none;stroke-opacity:1" />
        <title id="title347">Angle Ã&#131;Â&#142;Ã&#130;Âº</title>
        <desc id="desc349">Angle Ã&#131;Â&#142;Ã&#130;Âº: Angle between M, E, D</desc>
      </g>
    </g>
  </g>
  <g style="fill:none;stroke:#2b83ba;stroke-width:0.35873964;stroke-linecap:round;stroke-linejoin:round;stroke-miterlimit:10;stroke-dasharray:none;stroke-dashoffset:0;stroke-opacity:1" id="g209" transform="matrix(-1.4388123,-1.7414475,-1.7414478,1.4388123,1156.9713,768.82536)">
    <path style="stroke-width:0.35873964;stroke-miterlimit:10;stroke-dasharray:none" id="path211" d="m 255.29,234.25 c -5.83,0 -11.47,2.04 -15.95,5.75 l 15.95,19.25 z" />
    <title id="title213">Angle Ã&#131;Â&#142;Ã&#130;Â²</title>
    <desc id="desc215">Angle Ã&#131;Â&#142;Ã&#130;Â²: Angle between D, M, E</desc>
  </g>
  <g ns0:preamble="/Users/Lizzie/Documents/Old mac/CMEP folder/underground-inkscape-preamble.tex" ns0:text="$\\theta + \\delta \\theta$" word-spacing="normal" letter-spacing="normal" font-size-adjust="none" font-stretch="normal" font-weight="normal" font-variant="normal" font-style="normal" stroke-miterlimit="10.433" xml:space="preserve" transform="matrix(1.2425314,0,0,-1.2425314,76.566412,1285.8073)" id="g7108" style="font-style:normal;font-variant:normal;font-weight:normal;font-stretch:normal;letter-spacing:normal;word-spacing:normal;text-anchor:start;fill:#000000;fill-opacity:1;fill-rule:evenodd;stroke:#2b83ba;stroke-linecap:butt;stroke-linejoin:miter;stroke-miterlimit:10.43299961;stroke-dasharray:none;stroke-dashoffset:0;stroke-opacity:1"><path id="path7110" d="m 229.05,482.81 -0.01,0.14 0,0.14 -0.01,0.14 -0.01,0.13 -0.02,0.12 -0.02,0.12 -0.02,0.12 -0.03,0.11 -0.03,0.11 -0.03,0.1 -0.04,0.1 -0.04,0.09 -0.04,0.09 -0.04,0.08 -0.05,0.08 -0.05,0.07 -0.05,0.07 -0.05,0.07 -0.06,0.06 -0.06,0.05 -0.06,0.05 -0.07,0.05 -0.06,0.04 -0.07,0.04 -0.07,0.03 -0.07,0.03 -0.07,0.03 -0.08,0.02 -0.07,0.01 -0.08,0.01 -0.08,0.01 -0.08,0 -0.08,-0.34 c 0.48,0 0.6,-0.66 0.6,-1.52 0,-0.49 -0.12,-1.14 -0.29,-1.96 l -2.44,0 c 0.3,1.4 1.27,3.48 2.13,3.48 l 0.08,0.34 c -2.25,0 -3.62,-3.85 -3.62,-5.9 0,-1.42 0.49,-2.11 1.62,-2.11 l 0.06,0.34 c -0.51,0 -0.69,0.66 -0.69,1.47 0,0.57 0.11,1.36 0.3,1.95 l 2.45,0 c -0.04,-0.1 -0.11,-0.44 -0.19,-0.71 -0.37,-1.17 -1.08,-2.71 -1.87,-2.71 l -0.06,-0.34 c 1.82,0 3.52,3.38 3.52,5.7 z" style="fill:#000000;fill-opacity:1;stroke:#2b83ba;stroke-width:0;stroke-opacity:1" /><polygon id="polygon7112" points="235.81,476.75 235.81,479.83 238.9,479.83 238.9,480.61 235.81,480.61 235.81,483.69 235.03,483.69 235.03,480.61 231.94,480.61 231.94,479.83 235.03,479.83 235.03,476.75 " style="fill:#000000;fill-opacity:1;stroke:#2b83ba;stroke-width:0;stroke-opacity:1" /><path id="path7114" d="m 247.04,484.41 0,0.03 0,0.02 0,0.05 -0.01,0.04 -0.02,0.04 -0.02,0.04 -0.02,0.04 -0.02,0.04 -0.03,0.03 -0.02,0.04 -0.04,0.03 -0.03,0.03 -0.04,0.03 -0.04,0.02 -0.04,0.03 -0.04,0.02 -0.05,0.02 -0.05,0.02 -0.05,0.02 -0.05,0.02 -0.05,0.01 -0.05,0.02 -0.06,0.01 -0.05,0.01 -0.06,0.01 -0.05,0.01 -0.06,0.01 -0.06,0.01 -0.05,0 -0.06,0.01 -0.06,0 -0.05,0 -0.06,0 c -0.78,0 -1.98,-0.49 -1.98,-1.63 0,-0.63 0.69,-1 1.24,-1.54 -1.66,-0.17 -2.83,-1.73 -2.83,-3.13 0,-0.95 0.58,-1.71 1.72,-1.71 l 0.03,0.34 c -0.51,0 -0.83,0.55 -0.83,1.2 0,1.05 1.1,2.94 2.12,2.94 0.46,0 0.64,-0.66 0.64,-1.18 l 0,0 c 0,-1.12 -0.87,-2.96 -1.93,-2.96 l -0.03,-0.34 c 1.37,0 2.33,0.94 2.74,1.96 0.15,0.38 0.21,0.93 0.21,1.32 0,1.66 -2.65,2.34 -2.65,3.46 0,0.45 0.62,0.79 1.07,0.79 1.08,0 0.44,-0.77 1.23,-0.77 0.37,0 0.54,0.3 0.54,0.54 z" style="fill:#000000;fill-opacity:1;stroke:#2b83ba;stroke-width:0;stroke-opacity:1" /><path id="path7116" d="m 252.8,482.81 0,0.14 -0.01,0.14 -0.01,0.14 -0.01,0.13 -0.02,0.12 -0.01,0.12 -0.03,0.12 -0.02,0.11 -0.03,0.11 -0.04,0.1 -0.03,0.1 -0.04,0.09 -0.04,0.09 -0.05,0.08 -0.04,0.08 -0.05,0.07 -0.05,0.07 -0.06,0.07 -0.06,0.06 -0.06,0.05 -0.06,0.05 -0.06,0.05 -0.07,0.04 -0.06,0.04 -0.07,0.03 -0.07,0.03 -0.08,0.03 -0.07,0.02 -0.08,0.01 -0.08,0.01 -0.07,0.01 -0.08,0 -0.09,-0.34 c 0.49,0 0.61,-0.66 0.61,-1.52 0,-0.49 -0.12,-1.14 -0.3,-1.96 l -2.44,0 c 0.31,1.4 1.28,3.48 2.13,3.48 l 0.09,0.34 c -2.25,0 -3.63,-3.85 -3.63,-5.9 0,-1.42 0.5,-2.11 1.62,-2.11 l 0.06,0.34 c -0.51,0 -0.68,0.66 -0.68,1.47 0,0.57 0.1,1.36 0.29,1.95 l 2.45,0 c -0.03,-0.1 -0.1,-0.44 -0.19,-0.71 -0.36,-1.17 -1.07,-2.71 -1.87,-2.71 l -0.06,-0.34 c 1.83,0 3.52,3.38 3.52,5.7 z" style="fill:#000000;fill-opacity:1;stroke:#2b83ba;stroke-width:0;stroke-opacity:1" /></g>  <g ns0:preamble="/Users/Lizzie/Documents/Old mac/CMEP folder/underground-inkscape-preamble.tex" ns0:text="$\\sec \\theta \\, \\delta \\theta$" word-spacing="normal" letter-spacing="normal" font-size-adjust="none" font-stretch="normal" font-weight="normal" font-variant="normal" font-style="normal" stroke-miterlimit="10.433" xml:space="preserve" transform="matrix(1.5,0,0,-1.5,38.265109,1432.5743)" id="g8829" style="font-style:normal;font-variant:normal;font-weight:normal;font-stretch:normal;letter-spacing:normal;word-spacing:normal;text-anchor:start;fill:none;fill-opacity:1;fill-rule:evenodd;stroke:#000000;stroke-linecap:butt;stroke-linejoin:miter;stroke-miterlimit:10.43299961;stroke-dasharray:none;stroke-dashoffset:0;stroke-opacity:1"><g style="font-style:normal;font-variant:normal;font-weight:normal;font-stretch:normal;letter-spacing:normal;word-spacing:normal;text-anchor:start;fill:none;fill-opacity:1;fill-rule:evenodd;stroke:#000000;stroke-linecap:butt;stroke-linejoin:miter;stroke-miterlimit:10.43299961;stroke-dasharray:none;stroke-dashoffset:0;stroke-opacity:1" id="g4967" transform="matrix(1.0000154,0,0,1.0000154,-0.60668714,1.9768635)" xml:space="preserve" stroke-miterlimit="10.433" font-style="normal" font-variant="normal" font-weight="normal" font-stretch="normal" font-size-adjust="none" letter-spacing="normal" word-spacing="normal" ns0:text="$\\approx \\sec \\theta \\delta \\theta$" ns0:preamble="/Users/Lizzie/Documents/Old mac/CMEP folder/underground-inkscape-preamble.tex"><path style="fill:#000000;stroke-width:0" d="m 230.59,482.84 -0.04,-0.15 -0.02,-0.08 -0.02,-0.08 -0.02,-0.07 -0.03,-0.08 -0.02,-0.07 -0.03,-0.08 -0.03,-0.07 -0.03,-0.07 -0.03,-0.06 -0.04,-0.07 -0.03,-0.07 -0.04,-0.06 -0.04,-0.06 -0.04,-0.06 -0.04,-0.05 -0.04,-0.05 -0.05,-0.05 -0.05,-0.05 -0.05,-0.05 -0.05,-0.04 -0.06,-0.03 -0.05,-0.04 -0.06,-0.03 -0.06,-0.03 -0.07,-0.02 -0.06,-0.02 -0.07,-0.02 -0.07,-0.01 -0.07,0 -0.08,-0.01 c -0.86,0 -2.13,1.52 -3.27,1.52 -1.16,0 -1.87,-1.23 -1.93,-2.41 l 0.39,0 c 0.19,0.83 0.63,1.63 1.46,1.63 0.85,0 2.12,-1.52 3.25,-1.52 1.17,0 1.81,1.41 1.88,2.41 z" id="path4969" /><path style="fill:#000000;stroke-width:0" d="m 230.59,480.06 -0.04,-0.16 -0.02,-0.08 -0.02,-0.07 -0.02,-0.08 -0.03,-0.07 -0.02,-0.08 -0.03,-0.07 -0.03,-0.07 -0.03,-0.07 -0.03,-0.07 -0.04,-0.07 -0.03,-0.06 -0.04,-0.06 -0.04,-0.06 -0.04,-0.06 -0.04,-0.06 -0.04,-0.05 -0.05,-0.05 -0.05,-0.05 -0.05,-0.04 -0.05,-0.04 -0.06,-0.04 -0.05,-0.04 -0.06,-0.03 -0.06,-0.02 -0.07,-0.03 -0.06,-0.02 -0.07,-0.01 -0.07,-0.01 -0.07,-0.01 -0.08,0 c -0.86,0 -2.13,1.51 -3.27,1.51 -1.16,0 -1.87,-1.23 -1.93,-2.41 l 0.39,0 c 0.19,0.84 0.63,1.63 1.46,1.63 0.85,0 2.12,-1.51 3.25,-1.51 1.17,0 1.81,1.4 1.88,2.41 z" id="path4971" /><path style="fill:#000000;stroke-width:0" d="m 236.16,480.79 -0.03,0.02 -0.03,0.02 -0.03,0.02 -0.03,0.02 -0.03,0.02 -0.02,0.03 -0.03,0.02 -0.02,0.02 -0.03,0.03 -0.02,0.02 -0.02,0.03 -0.02,0.02 -0.02,0.03 -0.02,0.02 -0.02,0.03 -0.01,0.03 -0.02,0.02 -0.01,0.03 -0.02,0.03 -0.01,0.03 -0.01,0.02 -0.01,0.03 -0.01,0.03 -0.01,0.02 -0.01,0.03 0,0.03 -0.01,0.02 0,0.03 -0.01,0.03 0,0.02 0,0.03 0,0.02 c 0,0.56 0.38,0.8 0.89,0.8 0.71,0 1.06,-0.38 1.33,-1.45 l 0.18,0 -0.06,1.61 -0.13,0 c -0.09,-0.11 -0.14,-0.12 -0.19,-0.12 -0.08,0 -0.2,0.03 -0.33,0.09 -0.25,0.12 -0.51,0.13 -0.79,0.13 -0.97,0 -1.64,-0.52 -1.64,-1.45 0,-0.6 0.44,-1.17 1.42,-1.71 l 0.64,-0.35 c 0.39,-0.22 0.63,-0.52 0.63,-0.89 0,-0.48 -0.38,-0.87 -0.98,-0.87 -0.82,0 -1.26,0.52 -1.51,1.66 l -0.19,0 0,-1.85 0.16,0 c 0.07,0.12 0.14,0.14 0.28,0.14 0.13,0 0.26,-0.01 0.55,-0.11 0.27,-0.09 0.61,-0.1 0.86,-0.1 0.9,0 1.66,0.68 1.66,1.47 0,0.68 -0.28,0.99 -1.04,1.46 z" id="path4973" /><path style="fill:#000000;stroke-width:0" d="m 243.75,479.17 -0.05,-0.08 -0.06,-0.08 -0.05,-0.07 -0.05,-0.07 -0.05,-0.07 -0.06,-0.07 -0.05,-0.06 -0.05,-0.06 -0.05,-0.06 -0.05,-0.05 -0.05,-0.06 -0.05,-0.04 -0.06,-0.05 -0.05,-0.05 -0.05,-0.04 -0.05,-0.04 -0.06,-0.03 -0.05,-0.04 -0.06,-0.03 -0.05,-0.03 -0.06,-0.02 -0.06,-0.03 -0.06,-0.02 -0.06,-0.02 -0.06,-0.01 -0.06,-0.02 -0.07,-0.01 -0.06,-0.01 -0.07,-0.01 -0.07,0 -0.07,-0.01 -0.07,0 c -0.55,0 -0.99,0.21 -1.32,0.65 -0.43,0.57 -0.49,1.03 -0.54,1.93 l 0.02,0.37 c 0.13,0.89 0.59,1.36 1.26,1.36 0.78,0 1.03,-0.4 1.16,-1.36 l -2.42,0 -0.02,-0.37 3.64,0 c -0.04,0.63 -0.16,1.01 -0.4,1.34 -0.38,0.53 -0.91,0.82 -1.65,0.82 -1.49,0 -2.45,-1.21 -2.45,-2.87 0,-1.63 0.86,-2.68 2.25,-2.68 1.19,0 2.02,0.68 2.48,1.97 z" id="path4975" /><path style="fill:#000000;stroke-width:0" d="m 248.89,479.08 -0.05,-0.08 -0.05,-0.07 -0.05,-0.07 -0.06,-0.07 -0.05,-0.06 -0.05,-0.06 -0.04,-0.06 -0.05,-0.06 -0.05,-0.05 -0.05,-0.05 -0.05,-0.04 -0.05,-0.05 -0.05,-0.04 -0.05,-0.04 -0.04,-0.03 -0.05,-0.04 -0.05,-0.03 -0.05,-0.03 -0.05,-0.03 -0.05,-0.02 -0.05,-0.02 -0.06,-0.02 -0.05,-0.02 -0.05,-0.02 -0.06,-0.01 -0.05,-0.01 -0.06,-0.01 -0.06,-0.01 -0.05,-0.01 -0.06,0 -0.07,0 -0.06,0 c -1.09,0 -1.83,0.94 -1.83,2.3 0,1.23 0.65,2.05 1.61,2.05 0.42,0 0.58,-0.13 0.7,-0.56 l 0.07,-0.26 c 0.09,-0.35 0.3,-0.55 0.57,-0.55 0.3,0 0.55,0.23 0.55,0.5 0,0.66 -0.83,1.22 -1.82,1.22 -0.56,0 -1.13,-0.22 -1.6,-0.61 -0.64,-0.53 -1,-1.34 -1,-2.32 0,-1.53 0.94,-2.62 2.25,-2.62 0.51,0 0.96,0.16 1.37,0.49 0.35,0.29 0.59,0.63 0.97,1.36 z" id="path4977" /><path style="fill:#000000;stroke-width:0" d="m 256.71,482.81 0,0.14 -0.01,0.14 -0.01,0.14 -0.01,0.13 -0.02,0.12 -0.01,0.12 -0.03,0.12 -0.02,0.11 -0.03,0.11 -0.04,0.1 -0.03,0.1 -0.04,0.09 -0.04,0.09 -0.05,0.08 -0.04,0.08 -0.05,0.07 -0.05,0.07 -0.06,0.07 -0.06,0.06 -0.06,0.05 -0.06,0.05 -0.06,0.05 -0.07,0.04 -0.06,0.04 -0.07,0.03 -0.07,0.03 -0.08,0.03 -0.07,0.02 -0.08,0.01 -0.08,0.01 -0.07,0.01 -0.08,0 -0.09,-0.34 c 0.49,0 0.61,-0.66 0.61,-1.52 0,-0.49 -0.12,-1.14 -0.3,-1.96 l -2.44,0 c 0.31,1.4 1.28,3.48 2.13,3.48 l 0.09,0.34 c -2.25,0 -3.63,-3.85 -3.63,-5.9 0,-1.42 0.5,-2.11 1.62,-2.11 l 0.06,0.34 c -0.51,0 -0.68,0.66 -0.68,1.47 0,0.57 0.1,1.36 0.29,1.95 l 2.45,0 c -0.03,-0.1 -0.1,-0.44 -0.19,-0.71 -0.36,-1.17 -1.07,-2.71 -1.87,-2.71 l -0.06,-0.34 c 1.83,0 3.52,3.38 3.52,5.7 z" id="path4979" /><path style="fill:#000000;stroke-width:0" d="m 262.17,484.41 0,0.03 0,0.02 0,0.05 -0.01,0.04 -0.02,0.04 -0.02,0.04 -0.02,0.04 -0.02,0.04 -0.03,0.03 -0.02,0.04 -0.04,0.03 -0.03,0.03 -0.04,0.03 -0.04,0.02 -0.04,0.03 -0.04,0.02 -0.05,0.02 -0.05,0.02 -0.05,0.02 -0.05,0.02 -0.05,0.01 -0.05,0.02 -0.06,0.01 -0.05,0.01 -0.06,0.01 -0.05,0.01 -0.06,0.01 -0.06,0.01 -0.05,0 -0.06,0.01 -0.06,0 -0.05,0 -0.06,0 c -0.78,0 -1.98,-0.49 -1.98,-1.63 0,-0.63 0.69,-1 1.24,-1.54 -1.66,-0.17 -2.84,-1.73 -2.84,-3.13 0,-0.95 0.59,-1.71 1.73,-1.71 l 0.03,0.34 c -0.51,0 -0.83,0.55 -0.83,1.2 0,1.05 1.1,2.94 2.12,2.94 0.46,0 0.64,-0.66 0.64,-1.18 l 0,0 c 0,-1.12 -0.87,-2.96 -1.93,-2.96 l -0.03,-0.34 c 1.37,0 2.33,0.94 2.74,1.96 0.15,0.38 0.21,0.93 0.21,1.32 0,1.66 -2.65,2.34 -2.65,3.46 0,0.45 0.62,0.79 1.07,0.79 1.07,0 0.43,-0.77 1.23,-0.77 0.36,0 0.54,0.3 0.54,0.54 z" id="path4981" /><path style="fill:#000000;stroke-width:0" d="m 267.93,482.81 0,0.14 -0.01,0.14 -0.01,0.14 -0.01,0.13 -0.02,0.12 -0.01,0.12 -0.03,0.12 -0.02,0.11 -0.03,0.11 -0.04,0.1 -0.03,0.1 -0.04,0.09 -0.04,0.09 -0.05,0.08 -0.04,0.08 -0.05,0.07 -0.05,0.07 -0.06,0.07 -0.06,0.06 -0.06,0.05 -0.06,0.05 -0.06,0.05 -0.07,0.04 -0.06,0.04 -0.07,0.03 -0.07,0.03 -0.08,0.03 -0.07,0.02 -0.08,0.01 -0.08,0.01 -0.07,0.01 -0.08,0 -0.09,-0.34 c 0.49,0 0.61,-0.66 0.61,-1.52 0,-0.49 -0.12,-1.14 -0.3,-1.96 l -2.44,0 c 0.31,1.4 1.28,3.48 2.13,3.48 l 0.09,0.34 c -2.25,0 -3.63,-3.85 -3.63,-5.9 0,-1.42 0.5,-2.11 1.62,-2.11 l 0.06,0.34 c -0.51,0 -0.68,0.66 -0.68,1.47 0,0.57 0.1,1.36 0.29,1.95 l 2.45,0 c -0.03,-0.1 -0.1,-0.44 -0.19,-0.71 -0.36,-1.17 -1.07,-2.71 -1.87,-2.71 l -0.06,-0.34 c 1.83,0 3.52,3.38 3.52,5.7 z" id="path4983" /></g></g>  <g ns0:preamble="/Users/Lizzie/Documents/Old mac/CMEP folder/underground-inkscape-preamble.tex" ns0:text="$\\delta (\\sec \\theta)$" word-spacing="normal" letter-spacing="normal" font-size-adjust="none" font-stretch="normal" font-weight="normal" font-variant="normal" font-style="normal" stroke-miterlimit="10.433" xml:space="preserve" transform="matrix(1.5,0,0,-1.5,130.25813,1376.2709)" id="g10664" style="font-style:normal;font-variant:normal;font-weight:normal;font-stretch:normal;letter-spacing:normal;word-spacing:normal;text-anchor:start;fill:none;fill-opacity:1;fill-rule:evenodd;stroke:#000000;stroke-linecap:butt;stroke-linejoin:miter;stroke-miterlimit:10.43299961;stroke-dasharray:none;stroke-dashoffset:0;stroke-opacity:1"><path id="path10666" d="m 228.77,484.41 0,0.03 0,0.02 0,0.05 -0.01,0.04 -0.02,0.04 -0.01,0.04 -0.02,0.04 -0.03,0.04 -0.02,0.03 -0.03,0.04 -0.04,0.03 -0.03,0.03 -0.04,0.03 -0.04,0.02 -0.04,0.03 -0.04,0.02 -0.05,0.02 -0.05,0.02 -0.05,0.02 -0.05,0.02 -0.05,0.01 -0.05,0.02 -0.06,0.01 -0.05,0.01 -0.06,0.01 -0.05,0.01 -0.06,0.01 -0.05,0.01 -0.06,0 -0.06,0.01 -0.05,0 -0.06,0 -0.06,0 c -0.78,0 -1.97,-0.49 -1.97,-1.63 0,-0.63 0.68,-1 1.23,-1.54 -1.66,-0.17 -2.83,-1.73 -2.83,-3.13 0,-0.95 0.58,-1.71 1.72,-1.71 l 0.03,0.34 c -0.51,0 -0.83,0.55 -0.83,1.2 0,1.05 1.1,2.94 2.12,2.94 0.46,0 0.64,-0.66 0.64,-1.18 l 0,0 c 0,-1.12 -0.86,-2.96 -1.93,-2.96 l -0.03,-0.34 c 1.37,0 2.33,0.94 2.74,1.96 0.15,0.38 0.21,0.93 0.21,1.32 0,1.66 -2.65,2.34 -2.65,3.46 0,0.45 0.62,0.79 1.07,0.79 1.07,0 0.43,-0.77 1.23,-0.77 0.37,0 0.54,0.3 0.54,0.54 z" style="fill:#000000;stroke-width:0" /><path id="path10668" d="m 232.52,475.33 -0.15,0.13 -0.15,0.13 -0.13,0.13 -0.13,0.13 -0.13,0.13 -0.11,0.13 -0.11,0.13 -0.11,0.14 -0.09,0.13 -0.09,0.13 -0.09,0.14 -0.08,0.14 -0.07,0.14 -0.07,0.14 -0.06,0.14 -0.06,0.14 -0.05,0.15 -0.05,0.15 -0.05,0.16 -0.04,0.15 -0.03,0.16 -0.03,0.16 -0.03,0.17 -0.02,0.17 -0.02,0.17 -0.02,0.18 -0.02,0.18 -0.01,0.18 0,0.19 -0.01,0.19 0,0.2 0,0.21 c 0,2.27 0.36,3.37 2.01,4.78 l -0.11,0.19 c -1.89,-1.13 -2.92,-2.83 -2.92,-5.01 0,-2.01 1.02,-4 2.89,-5.07 z" style="fill:#000000;stroke-width:0" /><path id="path10670" d="m 234.71,480.79 -0.03,0.02 -0.03,0.02 -0.03,0.02 -0.03,0.02 -0.02,0.02 -0.03,0.03 -0.02,0.02 -0.03,0.02 -0.02,0.03 -0.02,0.02 -0.03,0.03 -0.02,0.02 -0.02,0.03 -0.01,0.02 -0.02,0.03 -0.02,0.03 -0.01,0.02 -0.02,0.03 -0.01,0.03 -0.02,0.03 -0.01,0.02 -0.01,0.03 -0.01,0.03 -0.01,0.02 0,0.03 -0.01,0.03 -0.01,0.02 0,0.03 0,0.03 -0.01,0.02 0,0.03 0,0.02 c 0,0.56 0.38,0.8 0.89,0.8 0.71,0 1.07,-0.38 1.34,-1.45 l 0.18,0 -0.06,1.61 -0.13,0 c -0.1,-0.11 -0.15,-0.12 -0.19,-0.12 -0.09,0 -0.21,0.03 -0.33,0.09 -0.25,0.12 -0.51,0.13 -0.8,0.13 -0.97,0 -1.63,-0.52 -1.63,-1.45 0,-0.6 0.43,-1.17 1.42,-1.71 l 0.64,-0.35 c 0.39,-0.22 0.63,-0.52 0.63,-0.89 0,-0.48 -0.38,-0.87 -0.99,-0.87 -0.82,0 -1.25,0.52 -1.5,1.66 l -0.19,0 0,-1.85 0.15,0 c 0.07,0.12 0.14,0.14 0.29,0.14 0.13,0 0.26,-0.01 0.54,-0.11 0.27,-0.09 0.62,-0.1 0.87,-0.1 0.9,0 1.66,0.68 1.66,1.47 0,0.68 -0.29,0.99 -1.05,1.46 z" style="fill:#000000;stroke-width:0" /><path id="path10672" d="m 242.3,479.17 -0.05,-0.08 -0.05,-0.08 -0.06,-0.07 -0.05,-0.07 -0.05,-0.07 -0.05,-0.07 -0.05,-0.06 -0.05,-0.06 -0.06,-0.06 -0.05,-0.05 -0.05,-0.06 -0.05,-0.04 -0.05,-0.05 -0.05,-0.05 -0.05,-0.04 -0.06,-0.04 -0.05,-0.03 -0.06,-0.04 -0.05,-0.03 -0.06,-0.03 -0.05,-0.02 -0.06,-0.03 -0.06,-0.02 -0.06,-0.02 -0.06,-0.01 -0.07,-0.02 -0.06,-0.01 -0.07,-0.01 -0.07,-0.01 -0.07,0 -0.07,-0.01 -0.07,0 c -0.55,0 -0.98,0.21 -1.31,0.65 -0.43,0.57 -0.49,1.03 -0.55,1.93 l 0.02,0.37 c 0.13,0.89 0.6,1.36 1.26,1.36 0.78,0 1.03,-0.4 1.16,-1.36 l -2.42,0 -0.02,-0.37 3.65,0 c -0.05,0.63 -0.17,1.01 -0.4,1.34 -0.38,0.53 -0.92,0.82 -1.65,0.82 -1.49,0 -2.45,-1.21 -2.45,-2.87 0,-1.63 0.85,-2.68 2.25,-2.68 1.18,0 2.01,0.68 2.47,1.97 z" style="fill:#000000;stroke-width:0" /><path id="path10674" d="m 247.45,479.08 -0.06,-0.08 -0.05,-0.07 -0.05,-0.07 -0.05,-0.07 -0.05,-0.06 -0.05,-0.06 -0.05,-0.06 -0.05,-0.06 -0.05,-0.05 -0.05,-0.05 -0.05,-0.04 -0.04,-0.05 -0.05,-0.04 -0.05,-0.04 -0.05,-0.03 -0.05,-0.04 -0.05,-0.03 -0.05,-0.03 -0.05,-0.03 -0.05,-0.02 -0.05,-0.02 -0.05,-0.02 -0.05,-0.02 -0.06,-0.02 -0.05,-0.01 -0.06,-0.01 -0.05,-0.01 -0.06,-0.01 -0.06,-0.01 -0.06,0 -0.06,0 -0.06,0 c -1.09,0 -1.84,0.94 -1.84,2.3 0,1.23 0.65,2.05 1.61,2.05 0.43,0 0.58,-0.13 0.7,-0.56 l 0.07,-0.26 c 0.1,-0.35 0.31,-0.55 0.57,-0.55 0.31,0 0.56,0.23 0.56,0.5 0,0.66 -0.83,1.22 -1.83,1.22 -0.55,0 -1.12,-0.22 -1.6,-0.61 -0.64,-0.53 -0.99,-1.34 -0.99,-2.32 0,-1.53 0.93,-2.62 2.25,-2.62 0.51,0 0.96,0.16 1.36,0.49 0.36,0.29 0.59,0.63 0.97,1.36 z" style="fill:#000000;stroke-width:0" /><path id="path10676" d="m 255.27,482.81 -0.01,0.14 0,0.14 -0.01,0.14 -0.01,0.13 -0.02,0.12 -0.02,0.12 -0.02,0.12 -0.03,0.11 -0.03,0.11 -0.03,0.1 -0.04,0.1 -0.04,0.09 -0.04,0.09 -0.04,0.08 -0.05,0.08 -0.05,0.07 -0.05,0.07 -0.05,0.07 -0.06,0.06 -0.06,0.05 -0.06,0.05 -0.07,0.05 -0.06,0.04 -0.07,0.04 -0.07,0.03 -0.07,0.03 -0.07,0.03 -0.08,0.02 -0.07,0.01 -0.08,0.01 -0.08,0.01 -0.08,0 -0.08,-0.34 c 0.48,0 0.6,-0.66 0.6,-1.52 0,-0.49 -0.12,-1.14 -0.29,-1.96 l -2.44,0 c 0.3,1.4 1.27,3.48 2.13,3.48 l 0.08,0.34 c -2.25,0 -3.63,-3.85 -3.63,-5.9 0,-1.42 0.5,-2.11 1.63,-2.11 l 0.06,0.34 c -0.51,0 -0.69,0.66 -0.69,1.47 0,0.57 0.11,1.36 0.3,1.95 l 2.45,0 c -0.04,-0.1 -0.11,-0.44 -0.19,-0.71 -0.37,-1.17 -1.08,-2.71 -1.87,-2.71 l -0.06,-0.34 c 1.82,0 3.52,3.38 3.52,5.7 z" style="fill:#000000;stroke-width:0" /><path id="path10678" d="m 255.73,485.03 0.16,-0.13 0.14,-0.13 0.15,-0.12 0.13,-0.13 0.12,-0.13 0.12,-0.13 0.11,-0.13 0.11,-0.13 0.1,-0.13 0.09,-0.13 0.08,-0.14 0.08,-0.14 0.07,-0.14 0.07,-0.14 0.06,-0.14 0.06,-0.15 0.05,-0.14 0.05,-0.15 0.04,-0.16 0.04,-0.16 0.03,-0.15 0.03,-0.17 0.03,-0.16 0.02,-0.17 0.02,-0.18 0.01,-0.18 0.02,-0.18 0.01,-0.18 0,-0.19 0.01,-0.2 0,-0.2 0,-0.2 c 0,-2.29 -0.33,-3.41 -2.01,-4.79 l 0.11,-0.19 c 1.88,1.15 2.92,2.83 2.92,5.01 0,2.01 -1.08,3.98 -2.89,5.07 z" style="fill:#000000;stroke-width:0" /></g>  <g transform="matrix(-1.5600848,-1.8525024,-1.8882283,1.5305678,1226.0137,773.35398)" id="use5601" style="fill:none;stroke:#2b83ba;stroke-width:0.35873964;stroke-linecap:round;stroke-linejoin:round;stroke-miterlimit:10;stroke-dasharray:none;stroke-dashoffset:0;stroke-opacity:1">
    <path d="m 255.29,234.25 c -5.83,0 -11.47,2.04 -15.95,5.75 l 15.95,19.25 z" id="path5605" style="stroke-width:0.35873964;stroke-miterlimit:10;stroke-dasharray:none" />
    <title id="title5607">Angle Ã&#131;Â&#142;Ã&#130;Â²</title>
    <desc id="desc5609">Angle Ã&#131;Â&#142;Ã&#130;Â²: Angle between D, M, E</desc>
  </g>
</svg>