<?xml version='1.0' ?><svg xmlns:dc="http://purl.org/dc/elements/1.1/" xmlns:cc="http://creativecommons.org/ns#" xmlns:rdf="http://www.w3.org/1999/02/22-rdf-syntax-ns#" xmlns:svg="http://www.w3.org/2000/svg" xmlns="http://www.w3.org/2000/svg" id="svg2" version="1.1" width="646.25605" height="471.3125" viewBox="0.0 28.950000799999998 517.00484 377.05" preserveAspectRatio="none">
  <metadata id="metadata1190">
    <rdf:RDF>
      <cc:Work rdf:about="">
        <dc:format>image/svg+xml</dc:format>
        <dc:type rdf:resource="http://purl.org/dc/dcmitype/StillImage" />
        <dc:title />
      </cc:Work>
    </rdf:RDF>
  </metadata>
  <defs id="defs1188">
    <clipPath id="clip1">
      <path d="M 0.0000 0.0000 L 0.0000 406.00 L 539.00 406.00 L 539.00 0.0000 z" id="path9" />
    </clipPath>
    <clipPath id="clip2">
      <path d="M 0.0000 0.0000 L 0.0000 406.00 L 539.00 406.00 L 539.00 0.0000 z" id="path18" />
    </clipPath>
    <clipPath id="clip3">
      <path d="M 0.0000 0.0000 L 0.0000 406.00 L 539.00 406.00 L 539.00 0.0000 z" id="path27" />
    </clipPath>
    <clipPath id="clip4">
      <path d="M 0.0000 0.0000 L 0.0000 406.00 L 539.00 406.00 L 539.00 0.0000 z" id="path36" />
    </clipPath>
    <clipPath id="clip5">
      <path id="path47" d="m 0,0 0,406 539,0 0,-406 z" />
    </clipPath>
    <clipPath id="clip6">
      <path id="path60" d="m 0,0 0,406 539,0 0,-406 z" />
    </clipPath>
    <clipPath id="clip7">
      <path id="path73" d="m 0,0 0,406 539,0 0,-406 z" />
    </clipPath>
    <clipPath id="clip13">
      <path id="path151" d="m 0,0 0,406 539,0 0,-406 z" />
    </clipPath>
    <clipPath id="clip14">
      <path id="path164" d="m 0,0 0,406 539,0 0,-406 z" />
    </clipPath>
    <clipPath id="clip16">
      <path id="path192" d="m 0,0 0,406 539,0 0,-406 z" />
    </clipPath>
    <clipPath id="clip17">
      <path id="path205" d="m 0,0 0,406 539,0 0,-406 z" />
    </clipPath>
    <clipPath id="clip18">
      <path id="path218" d="m 0,0 0,406 539,0 0,-406 z" />
    </clipPath>
    <clipPath id="clip19">
      <path id="path231" d="m 0,0 0,406 539,0 0,-406 z" />
    </clipPath>
    <clipPath id="clip20">
      <path id="path244" d="m 0,0 0,406 539,0 0,-406 z" />
    </clipPath>
    <clipPath id="clip21">
      <path id="path257" d="m 0,0 0,406 539,0 0,-406 z" />
    </clipPath>
    <clipPath id="clip22">
      <path id="path270" d="m 0,0 0,406 539,0 0,-406 z" />
    </clipPath>
    <clipPath id="clip23">
      <path id="path283" d="m 0,0 0,406 539,0 0,-406 z" />
    </clipPath>
    <clipPath id="clip24">
      <path id="path296" d="m 0,0 0,406 539,0 0,-406 z" />
    </clipPath>
    <clipPath id="clip27">
      <path id="path339" d="m 0,0 0,406 539,0 0,-406 z" />
    </clipPath>
    <clipPath id="clip28">
      <path id="path352" d="m 0,0 0,406 539,0 0,-406 z" />
    </clipPath>
    <clipPath id="clip29">
      <path id="path365" d="m 0,0 0,406 539,0 0,-406 z" />
    </clipPath>
    <clipPath id="clip30">
      <path id="path378" d="m 0,0 0,406 539,0 0,-406 z" />
    </clipPath>
    <clipPath id="clip31">
      <path id="path391" d="m 0,0 0,406 539,0 0,-406 z" />
    </clipPath>
    <clipPath id="clip32">
      <path id="path404" d="m 0,0 0,406 539,0 0,-406 z" />
    </clipPath>
    <clipPath id="clip33">
      <path id="path417" d="m 0,0 0,406 539,0 0,-406 z" />
    </clipPath>
    <clipPath id="clip34">
      <path id="path430" d="m 0,0 0,406 539,0 0,-406 z" />
    </clipPath>
    <clipPath id="clip35">
      <path id="path443" d="m 0,0 0,406 539,0 0,-406 z" />
    </clipPath>
    <clipPath id="clip36">
      <path id="path456" d="m 0,0 0,406 539,0 0,-406 z" />
    </clipPath>
    <clipPath id="clip37">
      <path id="path469" d="m 0,0 0,406 539,0 0,-406 z" />
    </clipPath>
    <clipPath id="clip38">
      <path id="path482" d="m 0,0 0,406 539,0 0,-406 z" />
    </clipPath>
    <clipPath id="clip39">
      <path id="path495" d="m 0,0 0,406 539,0 0,-406 z" />
    </clipPath>
    <clipPath id="clip40">
      <path id="path508" d="m 0,0 0,406 539,0 0,-406 z" />
    </clipPath>
    <clipPath id="clip41">
      <path id="path521" d="m 0,0 0,406 539,0 0,-406 z" />
    </clipPath>
    <clipPath id="clip42">
      <path id="path534" d="m 0,0 0,406 539,0 0,-406 z" />
    </clipPath>
    <clipPath id="clip43">
      <path id="path547" d="m 0,0 0,406 539,0 0,-406 z" />
    </clipPath>
    <clipPath id="clip44">
      <path id="path560" d="m 0,0 0,406 539,0 0,-406 z" />
    </clipPath>
    <clipPath id="clip45">
      <path id="path573" d="m 0,0 0,406 539,0 0,-406 z" />
    </clipPath>
    <clipPath id="clip46">
      <path id="path586" d="m 0,0 0,406 539,0 0,-406 z" />
    </clipPath>
    <clipPath id="clip60">
      <path id="path772" d="m 0,0 0,406 539,0 0,-406 z" />
    </clipPath>
    <clipPath id="clip61">
      <path id="path785" d="m 0,0 0,406 539,0 0,-406 z" />
    </clipPath>
    <clipPath id="clip62">
      <path id="path798" d="m 0,0 0,406 539,0 0,-406 z" />
    </clipPath>
    <clipPath id="clip63">
      <path id="path811" d="m 0,0 0,406 539,0 0,-406 z" />
    </clipPath>
    <clipPath id="clip75">
      <path id="path985" d="m 0,0 0,406 539,0 0,-406 z" />
    </clipPath>
    <clipPath id="clip85">
      <path id="path1131" d="m 0,0 0,406 539,0 0,-406 z" />
    </clipPath>
    <clipPath id="clip86">
      <path id="path1144" d="m 0,0 0,406 539,0 0,-406 z" />
    </clipPath>
  </defs>
  <g transform="matrix(1,0,0,0.90292563,0,39.412192)" clip-path="url(#clip1)" id="g11" style="stroke-width:1;stroke-linecap:square;stroke-linejoin:miter;stroke-miterlimit:10;stroke-dasharray:none;stroke-dashoffset:0">
    <g id="g13" style="fill:none;stroke:#000000;stroke-width:2;stroke-linecap:butt;stroke-opacity:1">
      <path d="m 18.127,3 0,403" id="path15" />
    </g>
  </g>
  <g transform="translate(0,26.950001)" clip-path="url(#clip2)" id="g20" style="stroke-width:1;stroke-linecap:square;stroke-linejoin:miter;stroke-miterlimit:10;stroke-dasharray:none;stroke-dashoffset:0">
    <g id="g22" style="fill:#000000;fill-opacity:1;fill-rule:evenodd;stroke:none">
      <path d="m 18.127,2 -5,20 10,0" id="path24" />
    </g>
  </g>
  <g transform="scale(0.93338558,1)" clip-path="url(#clip3)" id="g29" style="stroke:#000000;stroke-width:1;stroke-linecap:square;stroke-linejoin:miter;stroke-miterlimit:10;stroke-dasharray:none;stroke-dashoffset:0;stroke-opacity:1">
    <g id="g31" style="fill:none;stroke:#000000;stroke-width:2;stroke-linecap:butt;stroke-opacity:1">
      <path style="stroke:#000000;stroke-opacity:1" d="m 0,388.81 536,0" id="path33" />
    </g>
  </g>
  <g transform="translate(-19.995162,-0.86935487)" clip-path="url(#clip4)" id="g38" style="stroke-width:1;stroke-linecap:square;stroke-linejoin:miter;stroke-miterlimit:10;stroke-dasharray:none;stroke-dashoffset:0">
    <g id="g40" style="fill:#000000;fill-opacity:1;fill-rule:evenodd;stroke:none">
      <path d="m 537,388.81 -20,-5 0,10" id="path42" />
    </g>
  </g>
  <g id="misc" style="stroke-width:1;stroke-linecap:square;stroke-linejoin:miter;stroke-miterlimit:10;stroke-dasharray:none;stroke-dashoffset:0" />
  <g id="g49" clip-path="url(#clip5)" style="stroke-width:1;stroke-linecap:square;stroke-linejoin:miter;stroke-miterlimit:10;stroke-dasharray:none;stroke-dashoffset:0">
    <g style="fill:#d7191c;fill-opacity:0.34902003;fill-rule:evenodd;stroke:none" id="g51">
      <path id="path53" d="m 18.127,388.81 237.163,0 0,-129.56 z" />
      <title id="title55">Triangle poly1</title>
      <desc id="desc57">Triangle poly1: Polygon A, B, M</desc>
    </g>
  </g>
  <g id="g62" clip-path="url(#clip6)" style="stroke-width:1;stroke-linecap:square;stroke-linejoin:miter;stroke-miterlimit:10;stroke-dasharray:none;stroke-dashoffset:0">
    <g style="fill:#2b83ba;fill-opacity:0.09803898;fill-rule:evenodd;stroke:none" id="g64">
      <path id="path66" d="m 255.29,259.25 -30.42,-37.62 30.42,-24.6 z" />
      <title id="title68">Triangle poly2</title>
      <desc id="desc70">Triangle poly2: Polygon M, E, D</desc>
    </g>
  </g>
  <g id="g75" clip-path="url(#clip7)" style="stroke-width:1;stroke-linecap:square;stroke-linejoin:miter;stroke-miterlimit:10;stroke-dasharray:none;stroke-dashoffset:0">
    <g style="fill:#2b83ba;fill-opacity:0.09803898;fill-rule:evenodd;stroke:none" id="g77">
      <path id="path79" d="m 311.4,151.65 140.85,0 -55.69,-68.86 z" />
      <title id="title81">Triangle poly5</title>
      <desc id="desc83">Triangle poly5: Polygon F, N, J</desc>
    </g>
  </g>
  <g id="g153" clip-path="url(#clip13)" style="stroke-width:1;stroke-linecap:square;stroke-linejoin:miter;stroke-miterlimit:10;stroke-dasharray:none;stroke-dashoffset:0">
    <g style="fill:#d7191c;fill-opacity:0.09803898;fill-rule:nonzero;stroke:none" id="g155">
      <path id="path157" d="m 118.13,388.81 c 0,-16.75 -4.21,-33.24 -12.24,-47.94 l -87.763,47.94 z" />
      <title id="title159">Angle Ã&#131;Â&#142;Ã&#130;Â±</title>
      <desc id="desc161">Angle Ã&#131;Â&#142;Ã&#130;Â±: Angle between B, A, P</desc>
    </g>
  </g>
  <g id="g166" clip-path="url(#clip14)" style="stroke-width:1;stroke-linecap:square;stroke-linejoin:miter;stroke-miterlimit:10;stroke-dasharray:none;stroke-dashoffset:0;stroke:#000000;stroke-opacity:1">
    <g style="fill:none;stroke:#000000;stroke-linecap:round;stroke-linejoin:round;stroke-opacity:1" id="g168">
      <path style="stroke:#000000;stroke-opacity:1" id="path170" d="m 118.13,388.81 c 0,-16.75 -4.21,-33.24 -12.24,-47.94 l -87.763,47.94 z" />
      <title id="title172">Angle Ã&#131;Â&#142;Ã&#130;Â±</title>
      <desc id="desc174">Angle Ã&#131;Â&#142;Ã&#130;Â±: Angle between B, A, P</desc>
    </g>
  </g>
  <g id="g176" transform="matrix(27.3,0,0,27.3,140.79017,365.74285)" style="fill:#000000;fill-opacity:1;stroke-width:1;stroke-linecap:square;stroke-linejoin:miter;stroke-miterlimit:10;stroke-dasharray:none;stroke-dashoffset:0">
    <clipPath id="clip15">
      <path id="path179" d="m -6.4286,-17.504 0,19.3334 25.6666,0 0,-19.3334 z" />
    </clipPath>
    <g style="fill:#000000;fill-opacity:1" id="g181" clip-path="url(#clip15)">
      <g style="fill:#000000;fill-opacity:1;fill-rule:nonzero;stroke:none" id="g183">
        <path style="fill:#000000;fill-opacity:1" id="path185" d="m 0.45312,-0.5 0,0 q 0,0.15625 -0.07812,0.3125 Q 0.3125,-0.046875 0.21875,0 0.1875,0.015625 0.15625,0.015625 q -0.078125,0 -0.109375,-0.109375 0,-0.04687 0,-0.09375 0,-0.15625 0.078125,-0.32812 0.0625,-0.125 0.15625,-0.17188 0.03125,-0.01562 0.04687,-0.01562 0.09376,0 0.125,0.125 0,0.03124 0,0.07812 z m -0.3125,0.14062 0,0 0.21876,0 Q 0.39062,-0.5 0.39062,-0.5625 q 0,-0.10938 -0.04687,-0.125 0,0 -0.01563,0 -0.04687,0 -0.10937,0.10938 -0.03125,0.0625 -0.0625,0.20312 0,0.01562 -0.01563,0.01562 z m 0.20313,0.03126 -0.20313,0 q -0.03124,0.125 -0.03124,0.1875 0,0.124995 0.04687,0.124995 0.0625,0 0.125,-0.109375 0.03125,-0.07812 0.0625,-0.20312 z" />
        <title id="title187">Angle Ã&#131;Â&#142;Ã&#130;Â±</title>
        <desc id="desc189">Angle Ã&#131;Â&#142;Ã&#130;Â±: Angle between B, A, P</desc>
      </g>
    </g>
  </g>
  <g id="g194" clip-path="url(#clip16)" style="stroke-width:1;stroke-linecap:square;stroke-linejoin:miter;stroke-miterlimit:10;stroke-dasharray:none;stroke-dashoffset:0">
    <g style="fill:#2b83ba;fill-opacity:0.09803898;fill-rule:nonzero;stroke:none" id="g196">
      <path id="path198" d="m 255.29,235.25 c -5.5,0 -10.82,1.89 -15.09,5.34 l 15.09,18.66 z" />
      <title id="title200">Angle Ã&#131;Â&#142;Ã&#130;Â²</title>
      <desc id="desc202">Angle Ã&#131;Â&#142;Ã&#130;Â²: Angle between D, M, E</desc>
    </g>
  </g>
  <g id="g207" clip-path="url(#clip17)" style="stroke-width:1;stroke-linecap:square;stroke-linejoin:miter;stroke-miterlimit:10;stroke-dasharray:none;stroke-dashoffset:0">
    <g style="fill:none;stroke:#2b83ba;stroke-linecap:round;stroke-linejoin:round;stroke-opacity:1" id="g209">
      <path id="path211" d="m 255.29,235.25 c -5.5,0 -10.82,1.89 -15.09,5.34 l 15.09,18.66 z" />
      <title id="title213">Angle Ã&#131;Â&#142;Ã&#130;Â²</title>
      <desc id="desc215">Angle Ã&#131;Â&#142;Ã&#130;Â²: Angle between D, M, E</desc>
    </g>
  </g>
  <g id="g220" clip-path="url(#clip18)" style="stroke-width:1;stroke-linecap:square;stroke-linejoin:miter;stroke-miterlimit:10;stroke-dasharray:none;stroke-dashoffset:0">
    <g style="fill:none;stroke:#2b83ba;stroke-linecap:round;stroke-linejoin:round;stroke-opacity:1" id="g222">
      <path id="path224" d="m 255.29,240.25 c -4.35,0 -8.57,1.49 -11.95,4.23" />
      <title id="title226">Angle Ã&#131;Â&#142;Ã&#130;Â²</title>
      <desc id="desc228">Angle Ã&#131;Â&#142;Ã&#130;Â²: Angle between D, M, E</desc>
    </g>
  </g>
  <g id="g233" clip-path="url(#clip19)" style="stroke-width:1;stroke-linecap:square;stroke-linejoin:miter;stroke-miterlimit:10;stroke-dasharray:none;stroke-dashoffset:0;fill:#d7191c;fill-opacity:0.31410256">
    <g style="fill:#d7191c;fill-opacity:0.31410256;fill-rule:nonzero;stroke:none" id="g235">
      <path style="fill:#d7191c;fill-opacity:0.31410256" id="path237" d="m 422.25,151.65 c 0,5.03 1.26,9.97 3.67,14.39 l 26.33,-14.39 z" />
      <title id="title239">Angle Ã&#131;Â&#142;Ã&#130;Â³</title>
      <desc id="desc241">Angle Ã&#131;Â&#142;Ã&#130;Â³: Angle between F, N, G</desc>
    </g>
  </g>
  <g id="g246" clip-path="url(#clip20)" style="stroke-width:1;stroke-linecap:square;stroke-linejoin:miter;stroke-miterlimit:10;stroke-dasharray:none;stroke-dashoffset:0;stroke:#000000;stroke-opacity:1">
    <g style="fill:none;stroke:#000000;stroke-linecap:round;stroke-linejoin:round;stroke-opacity:1" id="g248">
      <path style="stroke:#000000;stroke-opacity:1" id="path250" d="m 422.25,151.65 c 0,5.03 1.26,9.97 3.67,14.39 l 26.33,-14.39 z" />
      <title id="title252">Angle Ã&#131;Â&#142;Ã&#130;Â³</title>
      <desc id="desc254">Angle Ã&#131;Â&#142;Ã&#130;Â³: Angle between F, N, G</desc>
    </g>
  </g>
  <g transform="matrix(0.78207437,0,0,0.78207437,3.9503379,84.731665)" id="g259" clip-path="url(#clip21)" style="stroke-width:1;stroke-linecap:square;stroke-linejoin:miter;stroke-miterlimit:10;stroke-dasharray:none;stroke-dashoffset:0">
    <g style="fill:#000000;fill-opacity:0.09803898;fill-rule:nonzero;stroke:none" id="g261">
      <path id="path263" d="M 105.89,340.87 C 103.01,335.6 99.66,330.6 95.884,325.93 l -77.757,62.88 z" />
      <title id="title265">Angle Ã&#131;Â&#142;Ã&#130;Â¶</title>
      <desc id="desc267">Angle Ã&#131;Â&#142;Ã&#130;Â¶: Angle between P, A, Q</desc>
    </g>
  </g>
  <g transform="matrix(0.77983163,0,0,0.77983163,3.880998,85.713693)" id="g272" clip-path="url(#clip22)" style="stroke-width:1;stroke-linecap:square;stroke-linejoin:miter;stroke-miterlimit:10;stroke-dasharray:none;stroke-dashoffset:0">
    <g style="fill:none;stroke:#000000;stroke-linecap:round;stroke-linejoin:round;stroke-opacity:1" id="g274">
      <path id="path276" d="M 105.89,340.87 C 103.01,335.6 99.66,330.6 95.884,325.93 l -77.757,62.88 z" />
      <title id="title278">Angle Ã&#131;Â&#142;Ã&#130;Â¶</title>
      <desc id="desc280">Angle Ã&#131;Â&#142;Ã&#130;Â¶: Angle between P, A, Q</desc>
    </g>
  </g>
  <g transform="matrix(0.69813937,0,0,0.69813937,11.960984,113.38934)" id="g4762">
    <g style="stroke-width:1;stroke-linecap:square;stroke-linejoin:miter;stroke-miterlimit:10;stroke-dasharray:none;stroke-dashoffset:0" clip-path="url(#clip23)" id="g285">
      <g id="g287" style="fill:none;stroke:#000000;stroke-linecap:round;stroke-linejoin:round;stroke-opacity:1">
        <path d="m 101.5,343.27 c -2.737,-5.01 -5.917,-9.76 -9.504,-14.19" id="path289" />
        <title id="title291">Angle Ã&#131;Â&#142;Ã&#130;Â¶</title>
        <desc id="desc293">Angle Ã&#131;Â&#142;Ã&#130;Â¶: Angle between P, A, Q</desc>
      </g>
    </g>
    <g style="stroke-width:1;stroke-linecap:square;stroke-linejoin:miter;stroke-miterlimit:10;stroke-dasharray:none;stroke-dashoffset:0" clip-path="url(#clip24)" id="g298">
      <g id="g300" style="fill:none;stroke:#000000;stroke-linecap:round;stroke-linejoin:round;stroke-opacity:1">
        <path d="m 97.109,345.67 c -2.59,-4.75 -5.603,-9.25 -9.001,-13.45" id="path302" />
        <title id="title304">Angle Ã&#131;Â&#142;Ã&#130;Â¶</title>
        <desc id="desc306">Angle Ã&#131;Â&#142;Ã&#130;Â¶: Angle between P, A, Q</desc>
      </g>
    </g>
  </g>
  <g transform="matrix(1.3,0,0,1.3,-27.136442,-103.9926)" id="g4774">
    <g style="stroke-width:1;stroke-linecap:square;stroke-linejoin:miter;stroke-miterlimit:10;stroke-dasharray:none;stroke-dashoffset:0" transform="matrix(21,0,0,21,117,324.58)" id="g308">
      <clipPath id="clip25">
        <path d="m -5.5714,-15.456 0,19.333 25.6664,0 0,-19.333 z" id="path311" />
      </clipPath>
      <g clip-path="url(#clip25)" id="g313">
        <g id="g315" style="fill:#000000;fill-opacity:1;fill-rule:nonzero;stroke:none">
          <path d="m 0.26562,-0.4375 q -0.04687,-0.09375 -0.0625,-0.14062 0,-0.01563 0,-0.03126 0,-0.07812 0.07813,-0.09374 0.01563,-0.01563 0.03125,-0.01563 0.03125,0 0.09375,0.01563 0.03125,0.01562 0.04687,0.01562 0,0.01562 0,0.01562 0,0.03126 -0.01562,0.04688 -0.01562,0 -0.03125,0 0,0 -0.04687,-0.03125 -0.04688,-0.01563 -0.07813,-0.01563 -0.03125,0 -0.04687,0.01563 0,0.01563 0,0.01563 0,0.04687 0.09374,0.17187 0.04688,0.0625 0.0625,0.10937 0.01563,0.03126 0.01563,0.07813 0,0.10937 -0.0625,0.203125 -0.0625,0.09375 -0.14063,0.09375 -0.09374,0 -0.14062,-0.078125 -0.015625,-0.03125 -0.015625,-0.09375 0,-0.09375 0.062505,-0.1875 0.07812,-0.07813 0.15624,-0.09375 z m 0.01563,0.01562 Q 0.17188,-0.39062 0.125,-0.25 q -0.01562,0.0625 -0.01562,0.125 0,0.078125 0.04687,0.109375 0.01563,0 0.04687,0 0.0625,0 0.10938,-0.109375 0.01562,-0.0625 0.01562,-0.125 0,-0.0625 -0.04687,-0.15625 0,0 0,-0.01563 z" id="path317" />
          <title id="title319">Angle Ã&#131;Â&#142;Ã&#130;Â¶</title>
          <desc id="desc321">Angle Ã&#131;Â&#142;Ã&#130;Â¶: Angle between P, A, Q</desc>
        </g>
      </g>
    </g>
    <g style="stroke-width:1;stroke-linecap:square;stroke-linejoin:miter;stroke-miterlimit:10;stroke-dasharray:none;stroke-dashoffset:0" transform="matrix(21,0,0,21,126.33,324.58)" id="g323">
      <clipPath id="clip26">
        <path d="m -6.0159,-15.456 0,19.333 25.6669,0 0,-19.333 z" id="path326" />
      </clipPath>
      <g clip-path="url(#clip26)" id="g328">
        <g id="g330" style="fill:#000000;fill-opacity:1;fill-rule:nonzero;stroke:none">
          <path d="m 0.45312,-0.5 0,0 q 0,0.15625 -0.07812,0.3125 Q 0.3125,-0.046875 0.21875,0 0.1875,0.015625 0.15625,0.015625 q -0.078125,0 -0.109375,-0.109375 0,-0.04687 0,-0.09375 0,-0.15625 0.078125,-0.32812 0.0625,-0.125 0.15625,-0.17188 0.03125,-0.01562 0.04687,-0.01562 0.09376,0 0.125,0.125 0,0.03124 0,0.07812 z m -0.3125,0.14062 0,0 0.21876,0 Q 0.39062,-0.5 0.39062,-0.5625 q 0,-0.10938 -0.04687,-0.125 0,0 -0.01563,0 -0.04687,0 -0.10937,0.10938 -0.03125,0.0625 -0.0625,0.20312 0,0.01562 -0.01563,0.01562 z m 0.20313,0.03126 -0.20313,0 q -0.03124,0.125 -0.03124,0.1875 0,0.124995 0.04687,0.124995 0.0625,0 0.125,-0.109375 0.03125,-0.07812 0.0625,-0.20312 z" id="path332" />
          <title id="title334">Angle Ã&#131;Â&#142;Ã&#130;Â¶</title>
          <desc id="desc336">Angle Ã&#131;Â&#142;Ã&#130;Â¶: Angle between P, A, Q</desc>
        </g>
      </g>
    </g>
  </g>
  <g id="g341" clip-path="url(#clip27)" style="stroke-width:1;stroke-linecap:square;stroke-linejoin:miter;stroke-miterlimit:10;stroke-dasharray:none;stroke-dashoffset:0">
    <g style="fill:#2b83ba;fill-opacity:0.09803898;fill-rule:nonzero;stroke:none" id="g343">
      <path id="path345" d="m 341.4,151.65 c 0,-6.86 -2.35,-13.52 -6.67,-18.86 l -23.33,18.86 z" />
      <title id="title347">Angle Ã&#131;Â&#142;Ã&#130;Â·</title>
      <desc id="desc349">Angle Ã&#131;Â&#142;Ã&#130;Â·: Angle between N, F, J</desc>
    </g>
  </g>
  <g id="g354" clip-path="url(#clip28)" style="stroke-width:1;stroke-linecap:square;stroke-linejoin:miter;stroke-miterlimit:10;stroke-dasharray:none;stroke-dashoffset:0">
    <g style="fill:none;stroke:#2b83ba;stroke-linecap:round;stroke-linejoin:round;stroke-opacity:1" id="g356">
      <path id="path358" d="m 341.4,151.65 c 0,-6.86 -2.35,-13.52 -6.67,-18.86 l -23.33,18.86 z" />
      <title id="title360">Angle Ã&#131;Â&#142;Ã&#130;Â·</title>
      <desc id="desc362">Angle Ã&#131;Â&#142;Ã&#130;Â·: Angle between N, F, J</desc>
    </g>
  </g>
  <g id="g367" clip-path="url(#clip29)" style="stroke-width:1;stroke-linecap:square;stroke-linejoin:miter;stroke-miterlimit:10;stroke-dasharray:none;stroke-dashoffset:0">
    <g style="fill:none;stroke:#2b83ba;stroke-linecap:round;stroke-linejoin:round;stroke-opacity:1" id="g369">
      <path id="path371" d="m 336.4,151.65 c 0,-5.72 -1.96,-11.27 -5.56,-15.72" />
      <title id="title373">Angle Ã&#131;Â&#142;Ã&#130;Â·</title>
      <desc id="desc375">Angle Ã&#131;Â&#142;Ã&#130;Â·: Angle between N, F, J</desc>
    </g>
  </g>
  <g id="g380" clip-path="url(#clip30)" style="stroke-width:1;stroke-linecap:square;stroke-linejoin:miter;stroke-miterlimit:10;stroke-dasharray:none;stroke-dashoffset:0">
    <g style="fill:#444444;fill-opacity:0.09803898;fill-rule:evenodd;stroke:none" id="g382">
      <path id="path384" d="m 224.87,221.63 8.44,10.45 10.45,-8.45 -8.45,-10.45 -10.44,8.45" />
      <title id="title386">Angle Ã&#131;Â&#142;Ã&#130;Âº</title>
      <desc id="desc388">Angle Ã&#131;Â&#142;Ã&#130;Âº: Angle between M, E, D</desc>
    </g>
  </g>
  <g id="g393" clip-path="url(#clip31)" style="stroke-width:1;stroke-linecap:square;stroke-linejoin:miter;stroke-miterlimit:10;stroke-dasharray:none;stroke-dashoffset:0">
    <g style="fill:none;stroke:#444444;stroke-linecap:round;stroke-linejoin:round;stroke-opacity:1" id="g395">
      <path id="path397" d="m 224.87,221.63 8.44,10.45 10.45,-8.45 -8.45,-10.45 -10.44,8.45" />
      <title id="title399">Angle Ã&#131;Â&#142;Ã&#130;Âº</title>
      <desc id="desc401">Angle Ã&#131;Â&#142;Ã&#130;Âº: Angle between M, E, D</desc>
    </g>
  </g>
  <g id="g406" clip-path="url(#clip32)" style="stroke-width:1;stroke-linecap:square;stroke-linejoin:miter;stroke-miterlimit:10;stroke-dasharray:none;stroke-dashoffset:0">
    <g style="fill:#444444;fill-opacity:0.09803898;fill-rule:evenodd;stroke:none" id="g408">
      <path id="path410" d="M 396.56,82.79 380.06,96.128 393.4,112.62 409.9,99.285 396.56,82.79" />
      <title id="title412">Angle Ã&#131;Â&#142;Ã&#130;Â¼</title>
      <desc id="desc414">Angle Ã&#131;Â&#142;Ã&#130;Â¼: Angle between F, J, N</desc>
    </g>
  </g>
  <g id="g419" clip-path="url(#clip33)" style="stroke-width:1;stroke-linecap:square;stroke-linejoin:miter;stroke-miterlimit:10;stroke-dasharray:none;stroke-dashoffset:0">
    <g style="fill:none;stroke:#444444;stroke-linecap:round;stroke-linejoin:round;stroke-opacity:1" id="g421">
      <path id="path423" d="M 396.56,82.79 380.06,96.128 393.4,112.62 409.9,99.285 396.56,82.79" />
      <title id="title425">Angle Ã&#131;Â&#142;Ã&#130;Â¼</title>
      <desc id="desc427">Angle Ã&#131;Â&#142;Ã&#130;Â¼: Angle between F, J, N</desc>
    </g>
  </g>
  <g transform="matrix(0.90781981,0,0,0.90781981,0,37.052146)" id="g432" clip-path="url(#clip34)" style="stroke-width:1;stroke-linecap:square;stroke-linejoin:miter;stroke-miterlimit:10;stroke-dasharray:none;stroke-dashoffset:0">
    <g style="fill:none;stroke:#d7191c;stroke-linecap:round;stroke-linejoin:round;stroke-opacity:1" id="g434">
      <path id="path436" d="M -5,401.45 544,101.53" />
      <title id="title438">Line f</title>
      <desc id="desc440">Line f: Line through A, P</desc>
    </g>
  </g>
  <g transform="matrix(0.86295884,0,0,0.86295884,0,55.638712)" id="g445" clip-path="url(#clip35)" style="stroke-width:1;stroke-linecap:square;stroke-linejoin:miter;stroke-miterlimit:10;stroke-dasharray:none;stroke-dashoffset:0">
    <g style="fill:none;stroke:#000000;stroke-linecap:round;stroke-linejoin:round;stroke-opacity:1" id="g447">
      <path id="path449" d="M -5,407.52 505.12,-5" />
      <title id="title451">Line g</title>
      <desc id="desc453">Line g: Line through A, Q</desc>
    </g>
  </g>
  <g transform="matrix(1,0,0,0.87366518,0,51.291937)" id="g458" clip-path="url(#clip36)" style="stroke-width:1;stroke-linecap:square;stroke-linejoin:miter;stroke-miterlimit:10;stroke-dasharray:none;stroke-dashoffset:0">
    <g style="fill:none;stroke:#2b83ba;stroke-linecap:round;stroke-linejoin:round;stroke-opacity:1" id="g460">
      <path id="path462" d="m 255.29,411 0,-416" />
      <title id="title464">Line h</title>
      <desc id="desc466">Line h: Tangent to c through B</desc>
    </g>
  </g>
  <g transform="scale(0.90806451,1)" id="g471" clip-path="url(#clip37)" style="stroke-width:1;stroke-linecap:square;stroke-linejoin:miter;stroke-miterlimit:10;stroke-dasharray:none;stroke-dashoffset:0">
    <g style="fill:none;stroke:#2b83ba;stroke-width:1.5;stroke-linecap:round;stroke-linejoin:round;stroke-opacity:1" id="g473">
      <path id="path475" d="m -5,151.65 549,0" />
      <title id="title477">Line i</title>
      <desc id="desc479">Line i: Tangent to c through C</desc>
    </g>
  </g>
  <g id="g484" clip-path="url(#clip38)" style="stroke-width:1;stroke-linecap:square;stroke-linejoin:miter;stroke-miterlimit:10;stroke-dasharray:none;stroke-dashoffset:0">
    <g style="fill:none;stroke:#d7191c;stroke-linecap:round;stroke-linejoin:round;stroke-opacity:1" id="g486">
      <path id="path488" d="m 18.127,388.81 237.163,0" />
      <title id="title490">Segment m</title>
      <desc id="desc492">Segment m: Segment [A, B] of Triangle poly1</desc>
    </g>
  </g>
  <g id="g497" clip-path="url(#clip39)" style="stroke-width:1;stroke-linecap:square;stroke-linejoin:miter;stroke-miterlimit:10;stroke-dasharray:none;stroke-dashoffset:0;fill:#d7191c;fill-opacity:1">
    <g style="fill:#d7191c;stroke:#d7191c;stroke-linecap:round;stroke-linejoin:round;stroke-opacity:1;fill-opacity:1" id="g499">
      <path style="fill:#d7191c;fill-opacity:1" id="path501" d="m 255.29,388.81 0,-129.56" />
      <title id="title503">Segment a</title>
      <desc id="desc505">Segment a: Segment [B, M] of Triangle poly1</desc>
    </g>
  </g>
  <g id="g510" clip-path="url(#clip40)" style="stroke-width:1;stroke-linecap:square;stroke-linejoin:miter;stroke-miterlimit:10;stroke-dasharray:none;stroke-dashoffset:0">
    <g style="fill:none;stroke:#d7191c;stroke-linecap:round;stroke-linejoin:round;stroke-opacity:1" id="g512">
      <path id="path514" d="M 255.29,259.25 18.127,388.81" />
      <title id="title516">Segment b</title>
      <desc id="desc518">Segment b: Segment [M, A] of Triangle poly1</desc>
    </g>
  </g>
  <g id="g523" clip-path="url(#clip41)" style="stroke-width:1;stroke-linecap:square;stroke-linejoin:miter;stroke-miterlimit:10;stroke-dasharray:none;stroke-dashoffset:0">
    <g style="fill:none;stroke:#2b83ba;stroke-linecap:round;stroke-linejoin:round;stroke-opacity:1" id="g525">
      <path id="path527" d="M 255.29,259.25 224.87,221.63" />
      <title id="title529">Segment d_1</title>
      <desc id="desc531">Segment d_1: Segment [M, E] of Triangle poly2</desc>
    </g>
  </g>
  <g id="g536" clip-path="url(#clip42)" style="stroke-width:1;stroke-linecap:square;stroke-linejoin:miter;stroke-miterlimit:10;stroke-dasharray:none;stroke-dashoffset:0">
    <g style="fill:none;stroke:#2b83ba;stroke-linecap:round;stroke-linejoin:round;stroke-opacity:1" id="g538">
      <path id="path540" d="m 224.87,221.63 30.42,-24.6" />
      <title id="title542">Segment m_1</title>
      <desc id="desc544">Segment m_1: Segment [E, D] of Triangle poly2</desc>
    </g>
  </g>
  <g id="g549" clip-path="url(#clip43)" style="stroke-width:1;stroke-linecap:square;stroke-linejoin:miter;stroke-miterlimit:10;stroke-dasharray:none;stroke-dashoffset:0">
    <g style="fill:none;stroke:#2b83ba;stroke-linecap:round;stroke-linejoin:round;stroke-opacity:1" id="g551">
      <path id="path553" d="m 255.29,197.03 0,62.22" />
      <title id="title555">Segment e_1</title>
      <desc id="desc557">Segment e_1: Segment [D, M] of Triangle poly2</desc>
    </g>
  </g>
  <g id="g562" clip-path="url(#clip44)" style="stroke-width:1;stroke-linecap:square;stroke-linejoin:miter;stroke-miterlimit:10;stroke-dasharray:none;stroke-dashoffset:0">
    <g style="fill:none;stroke:#2b83ba;stroke-linecap:round;stroke-linejoin:round;stroke-opacity:1" id="g564">
      <path id="path566" d="m 311.4,151.65 140.85,0" />
      <title id="title568">Segment j_1</title>
      <desc id="desc570">Segment j_1: Segment [F, N] of Triangle poly5</desc>
    </g>
  </g>
  <g id="g575" clip-path="url(#clip45)" style="stroke-width:1;stroke-linecap:square;stroke-linejoin:miter;stroke-miterlimit:10;stroke-dasharray:none;stroke-dashoffset:0">
    <g style="fill:none;stroke:#2b83ba;stroke-linecap:round;stroke-linejoin:round;stroke-opacity:1" id="g577">
      <path id="path579" d="M 452.25,151.65 396.56,82.79" />
      <title id="title581">Segment f_2</title>
      <desc id="desc583">Segment f_2: Segment [N, J] of Triangle poly5</desc>
    </g>
  </g>
  <g id="g588" clip-path="url(#clip46)" style="stroke-width:1;stroke-linecap:square;stroke-linejoin:miter;stroke-miterlimit:10;stroke-dasharray:none;stroke-dashoffset:0">
    <g style="fill:none;stroke:#2b83ba;stroke-linecap:round;stroke-linejoin:round;stroke-opacity:1" id="g590">
      <path id="path592" d="M 396.56,82.79 311.4,151.65" />
      <title id="title594">Segment n_1</title>
      <desc id="desc596">Segment n_1: Segment [J, F] of Triangle poly5</desc>
    </g>
  </g>
  <g id="g774" clip-path="url(#clip60)" style="stroke-width:1;stroke-linecap:square;stroke-linejoin:miter;stroke-miterlimit:10;stroke-dasharray:none;stroke-dashoffset:0">
    <g style="fill:#444444;fill-opacity:1;fill-rule:nonzero;stroke:none" id="g776">
      <path id="path778" d="m 19.127,388.81 c 0,0.56 -0.448,1 -1,1 -0.552,0 -1,-0.44 -1,-1 0,-0.55 0.448,-1 1,-1 0.552,0 1,0.45 1,1 z" />
      <title id="title780">Point A</title>
      <desc id="desc782">Point A: Intersection point of xAxis, yAxis</desc>
    </g>
  </g>
  <g id="g787" clip-path="url(#clip61)" style="stroke-width:1;stroke-linecap:square;stroke-linejoin:miter;stroke-miterlimit:10;stroke-dasharray:none;stroke-dashoffset:0">
    <g style="fill:none;stroke:#000000;stroke-linecap:round;stroke-linejoin:round;stroke-opacity:1" id="g789">
      <path id="path791" d="m 19.127,388.81 c 0,0.56 -0.448,1 -1,1 -0.552,0 -1,-0.44 -1,-1 0,-0.55 0.448,-1 1,-1 0.552,0 1,0.45 1,1 z" />
      <title id="title793">Point A</title>
      <desc id="desc795">Point A: Intersection point of xAxis, yAxis</desc>
    </g>
  </g>
  <g id="g800" clip-path="url(#clip62)" style="stroke-width:1;stroke-linecap:square;stroke-linejoin:miter;stroke-miterlimit:10;stroke-dasharray:none;stroke-dashoffset:0">
    <g style="fill:#000000;fill-opacity:1;fill-rule:nonzero;stroke:none" id="g802">
      <path id="path804" d="m 19.127,151.65 c 0,0.56 -0.448,1 -1,1 -0.552,0 -1,-0.44 -1,-1 0,-0.55 0.448,-1 1,-1 0.552,0 1,0.45 1,1 z" />
      <title id="title806">Point C</title>
      <desc id="desc808">Point C: Intersection point of c, yAxis</desc>
    </g>
  </g>
  <g id="g813" clip-path="url(#clip63)" style="stroke-width:1;stroke-linecap:square;stroke-linejoin:miter;stroke-miterlimit:10;stroke-dasharray:none;stroke-dashoffset:0">
    <g style="fill:none;stroke:#000000;stroke-linecap:round;stroke-linejoin:round;stroke-opacity:1" id="g815">
      <path id="path817" d="m 19.127,151.65 c 0,0.56 -0.448,1 -1,1 -0.552,0 -1,-0.44 -1,-1 0,-0.55 0.448,-1 1,-1 0.552,0 1,0.45 1,1 z" />
      <title id="title819">Point C</title>
      <desc id="desc821">Point C: Intersection point of c, yAxis</desc>
    </g>
  </g>
  <g id="g987" clip-path="url(#clip75)" style="stroke-width:1;stroke-linecap:square;stroke-linejoin:miter;stroke-miterlimit:10;stroke-dasharray:none;stroke-dashoffset:0">
    <g style="fill:#000000;fill-opacity:1;fill-rule:nonzero;stroke:none" id="g989">
      <path id="path991" d="m 453.25,151.65 c 0,0.56 -0.45,1 -1,1 -0.56,0 -1,-0.44 -1,-1 0,-0.55 0.44,-1 1,-1 0.55,0 1,0.45 1,1 z" />
      <title id="title993">Point N</title>
      <desc id="desc995">Point N: Intersection point of f, i</desc>
    </g>
  </g>
  <g id="g1133" clip-path="url(#clip85)" style="stroke-width:1;stroke-linecap:square;stroke-linejoin:miter;stroke-miterlimit:10;stroke-dasharray:none;stroke-dashoffset:0">
    <g style="fill:#000000;fill-opacity:1;fill-rule:nonzero;stroke:none" id="g1135">
      <path id="path1137" d="m 256.29,388.81 c 0,0.56 -0.45,1 -1,1 -0.55,0 -1,-0.44 -1,-1 0,-0.55 0.45,-1 1,-1 0.55,0 1,0.45 1,1 z" />
      <title id="title1139">Point L</title>
      <desc id="desc1141">Point L: Intersection point of c, h</desc>
    </g>
  </g>
  <g id="g1146" clip-path="url(#clip86)" style="stroke-width:1;stroke-linecap:square;stroke-linejoin:miter;stroke-miterlimit:10;stroke-dasharray:none;stroke-dashoffset:0">
    <g style="fill:none;stroke:#000000;stroke-linecap:round;stroke-linejoin:round;stroke-opacity:1" id="g1148">
      <path id="path1150" d="m 256.29,388.81 c 0,0.56 -0.45,1 -1,1 -0.55,0 -1,-0.44 -1,-1 0,-0.55 0.45,-1 1,-1 0.55,0 1,0.45 1,1 z" />
      <title id="title1152">Point L</title>
      <desc id="desc1154">Point L: Intersection point of c, h</desc>
    </g>
  </g>
  <g id="g1171" transform="matrix(21,0,0,21,457,553.53)" style="stroke-width:1;stroke-linecap:square;stroke-linejoin:miter;stroke-miterlimit:10;stroke-dasharray:none;stroke-dashoffset:0">
    <clipPath id="clip88">
      <path id="path1174" d="m -21.762,-26.359 0,19.3336 25.6668,0 0,-19.3336 z" />
    </clipPath>
    <g id="g1176" clip-path="url(#clip88)">
      <g style="fill:#000000;fill-opacity:1;fill-rule:nonzero;stroke:none" id="g1178">
        <path id="path1180" d="m 0.29688,-0.64062 0,0.562495 q 0,0.03125 0.01562,0.03125 0.01562,0.015625 0.07812,0.015625 l 0.03126,0 0,0.03125 Q 0.39062,0 0.25,0 0.125,0 0.09375,0 l 0,-0.03125 0.03125,0 q 0.07812,0 0.09375,-0.015625 l 0,0 q 0,-0.015625 0,-0.03125 l 0,-0.515625 q -0.04687,0.01563 -0.125,0.01563 l 0,-0.03126 q 0.10937,0 0.17187,-0.0625 0.03126,0 0.03126,0.01563 l 0,0 0,0 q 0,0 0,0.01563 z" />
        <title id="title1182">$1$</title>
        <desc id="desc1184">text2 = &quot;$1$&quot;</desc>
      </g>
    </g>
  </g>
</svg>