<?xml version='1.0' ?><svg xmlns:ns0="http://www.iki.fi/pav/software/textext/" xmlns:dc="http://purl.org/dc/elements/1.1/" xmlns:cc="http://creativecommons.org/ns#" xmlns:rdf="http://www.w3.org/1999/02/22-rdf-syntax-ns#" xmlns:svg="http://www.w3.org/2000/svg" xmlns="http://www.w3.org/2000/svg" version="1.1" id="svg2" width="257.92" height="250.29071" viewBox="98.50000312513549 170.7363562373062 241.80000000033263 234.64754062532276" preserveAspectRatio="none">
  <defs id="defs4">
    <marker style="overflow:visible" refY="0.0" refX="0.0" orient="auto" id="DoubleArrowUM_1.0_n00003">
      <path id="path4278" transform="scale(1.0)" style="stroke-width:1;stroke:#000000;fill:#FF0000;fill-rule:evenodd" d="M -5,5 L 0,0 M 0,0 L -5,-5" />
    </marker>
  </defs>
  <metadata id="metadata7">
    <rdf:RDF>
      <cc:Work rdf:about="">
        <dc:format>image/svg+xml</dc:format>
        <dc:type rdf:resource="http://purl.org/dc/dcmitype/StillImage" />
        <dc:title />
      </cc:Work>
    </rdf:RDF>
  </metadata>
  <g id="layer1">
    <path id="path4138" d="m 340,372.3622 -240,0 240,-180" style="fill:none;fill-rule:evenodd;stroke:#000000;stroke-width:1px;stroke-linecap:butt;stroke-linejoin:miter;stroke-opacity:1" />
    <path id="path4140" d="m 160,312.3622 160,-120" style="fill:none;fill-rule:evenodd;stroke:#000000;stroke-width:1px;stroke-linecap:butt;stroke-linejoin:miter;stroke-opacity:1;marker-end:url(#DoubleArrowUM_1.0_n00003)" />
    <circle r="11.360544" cy="312.36221" cx="160" id="path4142" style="fill:#000000;fill-rule:evenodd;stroke:#000000;stroke-width:1.1360544px;stroke-linecap:butt;stroke-linejoin:miter;stroke-opacity:1;fill-opacity:1" />
    <circle style="fill:#000000;fill-opacity:1;fill-rule:evenodd;stroke:#000000;stroke-width:1.1360544px;stroke-linecap:butt;stroke-linejoin:miter;stroke-opacity:1" id="circle4144" cx="252.76785" cy="242.36221" r="11.360544" />
    <path d="m 123.92219,354.25893 a 30,30 0 0 1 6.0777,18.02073" id="path4426" style="fill:none;fill-rule:evenodd;stroke:#000000;stroke-width:1px;stroke-linecap:butt;stroke-linejoin:miter;stroke-opacity:1" />
    <g ns0:preamble="/Users/prmb/CMEP/underground-inkscape-preamble.tex" ns0:text="$\\theta$" word-spacing="normal" letter-spacing="normal" font-size-adjust="none" font-stretch="normal" font-weight="normal" font-variant="normal" font-style="normal" stroke-miterlimit="10.433" xml:space="preserve" transform="matrix(1.5,0,0,-1.5,-200.49997,1080.0482)" id="g4594" style="font-style:normal;font-variant:normal;font-weight:normal;font-stretch:normal;letter-spacing:normal;word-spacing:normal;text-anchor:start;fill:none;fill-opacity:1;fill-rule:evenodd;stroke:#000000;stroke-linecap:butt;stroke-linejoin:miter;stroke-miterlimit:10.43299961;stroke-dasharray:none;stroke-dashoffset:0;stroke-opacity:1"><path id="path4596" d="m 229.03,482.81 0,0.14 -0.01,0.14 -0.01,0.14 -0.01,0.13 -0.02,0.12 -0.02,0.12 -0.02,0.12 -0.03,0.11 -0.03,0.11 -0.03,0.1 -0.03,0.1 -0.04,0.09 -0.04,0.09 -0.05,0.08 -0.04,0.08 -0.05,0.07 -0.06,0.07 -0.05,0.07 -0.06,0.06 -0.06,0.05 -0.06,0.05 -0.06,0.05 -0.07,0.04 -0.06,0.04 -0.07,0.03 -0.07,0.03 -0.08,0.03 -0.07,0.02 -0.08,0.01 -0.07,0.01 -0.08,0.01 -0.08,0 -0.09,-0.34 c 0.49,0 0.61,-0.66 0.61,-1.52 0,-0.49 -0.12,-1.14 -0.3,-1.96 l -2.43,0 c 0.31,1.4 1.27,3.48 2.12,3.48 l 0.09,0.34 c -2.25,0 -3.62,-3.85 -3.62,-5.9 0,-1.42 0.5,-2.11 1.62,-2.11 l 0.06,0.34 c -0.51,0 -0.68,0.66 -0.68,1.47 0,0.57 0.1,1.36 0.29,1.95 l 2.44,0 c -0.03,-0.1 -0.1,-0.44 -0.18,-0.71 -0.37,-1.17 -1.08,-2.71 -1.87,-2.71 l -0.06,-0.34 c 1.82,0 3.51,3.38 3.51,5.7 z" style="fill:#000000;stroke-width:0" /></g>    <path style="fill:none;fill-rule:evenodd;stroke:#000000;stroke-width:1px;stroke-linecap:butt;stroke-linejoin:miter;stroke-opacity:1;marker-end:url(#DoubleArrowUM_1.0_n00003)" d="m 160,312.36218 0,75" id="path4637" />
    <path style="fill:none;fill-rule:evenodd;stroke:#000000;stroke-width:1px;stroke-linecap:butt;stroke-linejoin:miter;stroke-opacity:1;marker-end:url(#DoubleArrowUM_1.0_n00003)" d="m 158.63706,312.76575 -25,-35" id="path4259" />
    <path style="fill:none;fill-rule:evenodd;stroke:#000000;stroke-width:1px;stroke-linecap:butt;stroke-linejoin:miter;stroke-opacity:1;marker-end:url(#DoubleArrowUM_1.0_n00003)" d="M 164.89095,317.43546 125.7494,347.00698" id="path4261" />
    <path style="fill:none;fill-rule:evenodd;stroke:#000000;stroke-width:1px;stroke-linecap:butt;stroke-linejoin:miter;stroke-opacity:1;marker-end:url(#DoubleArrowUM_1.0_n00003)" d="m 160,312.3622 31.11168,-23.33376" id="path4263" />
    <path id="path4271" d="m 252.93403,242.15658 0.50508,100.75889" style="fill:none;fill-rule:evenodd;stroke:#000000;stroke-width:1px;stroke-linecap:butt;stroke-linejoin:miter;stroke-opacity:1;marker-end:url(#DoubleArrowUM_1.0_n00003)" />
    <path id="path4273" d="m 251.57109,242.56015 -25,-35" style="fill:none;fill-rule:evenodd;stroke:#000000;stroke-width:1px;stroke-linecap:butt;stroke-linejoin:miter;stroke-opacity:1;marker-end:url(#DoubleArrowUM_1.0_n00003)" />
    <path id="path4275" d="m 257.82498,247.22986 -39.14155,29.57152" style="fill:none;fill-rule:evenodd;stroke:#000000;stroke-width:1px;stroke-linecap:butt;stroke-linejoin:miter;stroke-opacity:1;marker-end:url(#DoubleArrowUM_1.0_n00003)" />
    <path id="path4277" d="m 252.93403,242.1566 -32.90674,25.15356" style="fill:none;fill-rule:evenodd;stroke:#000000;stroke-width:1px;stroke-linecap:butt;stroke-linejoin:miter;stroke-opacity:1;marker-end:url(#DoubleArrowUM_1.0_n00003)" />
    <g id="content" transform="matrix(1.5,0,0,-1.5,-25.056674,898.14636)" xml:space="preserve" stroke="black" stroke-linecap="butt" stroke-linejoin="miter" stroke-miterlimit="10.433" stroke-dasharray="none" stroke-dashoffset="0" stroke-opacity="1" fill="none" fill-rule="evenodd" fill-opacity="1" font-style="normal" font-variant="normal" font-weight="normal" font-stretch="normal" font-size-adjust="none" letter-spacing="normal" word-spacing="normal" text-anchor="start" ns0:text="$P$" ns0:preamble="/Users/prmb/CMEP/underground-inkscape-preamble.tex" style="font-style:normal;font-variant:normal;font-weight:normal;font-stretch:normal;letter-spacing:normal;word-spacing:normal;text-anchor:start;fill:none;fill-opacity:1;fill-rule:evenodd;stroke:#000000;stroke-linecap:butt;stroke-linejoin:miter;stroke-miterlimit:10.43299961;stroke-dasharray:none;stroke-dashoffset:0;stroke-opacity:1"><path d="M225.8,484.94 L225.76,484.76 H225.98 C226.7,484.76,226.9,484.57,226.9,484.32 C226.9,484.22,226.88,484.12,226.86,484.02 L225.38,478.16 C225.27,477.75,225.04,477.42,224.13,477.42 H223.93 L223.88,477.23 H227.91 L227.95,477.42 H227.58 C226.88,477.42,226.67,477.6,226.67,477.88 C226.67,477.98,226.68,478.06,226.7,478.16 L227.36,480.79 C227.41,480.78,227.45,480.77,227.51,480.77 C227.79,480.72,228.05,480.71,228.38,480.71 C230.79,480.71,231.74,481.9,231.74,483.05 C231.74,483.93,231.01,484.94,229,484.94 L228.86,484.51 C229.98,484.51,230.34,483.88,230.34,483.17 C230.34,481.97,229.39,481.14,228.19,481.14 C227.95,481.14,227.67,481.19,227.48,481.24 L228.28,484.47 C228.49,484.5,228.66,484.51,228.86,484.51 L229,484.94 Z " stroke-width="0" fill="black" id="path4331" /></g>    <g style="font-style:normal;font-variant:normal;font-weight:normal;font-stretch:normal;letter-spacing:normal;word-spacing:normal;text-anchor:start;fill:none;fill-opacity:1;fill-rule:evenodd;stroke:#000000;stroke-linecap:butt;stroke-linejoin:miter;stroke-miterlimit:10.43299961;stroke-dasharray:none;stroke-dashoffset:0;stroke-opacity:1" ns0:preamble="/Users/prmb/CMEP/underground-inkscape-preamble.tex" ns0:text="$R_A$" word-spacing="normal" letter-spacing="normal" font-size-adjust="none" font-stretch="normal" font-weight="normal" font-variant="normal" font-style="normal" stroke-miterlimit="10.433" xml:space="preserve" transform="matrix(1.5,0,0,-1.5,-212.11673,987.11418)" id="g4437"><path style="fill:#000000;stroke-width:0" id="path4439" d="m 231.99,477.42 -0.06,0.01 -0.06,0.01 -0.06,0.01 -0.05,0.02 -0.06,0.01 -0.05,0.02 -0.05,0.02 -0.05,0.02 -0.05,0.03 -0.04,0.02 -0.04,0.03 -0.05,0.03 -0.04,0.03 -0.04,0.03 -0.03,0.04 -0.04,0.03 -0.03,0.04 -0.04,0.03 -0.03,0.04 -0.03,0.04 -0.03,0.04 -0.03,0.04 -0.03,0.04 -0.03,0.04 -0.05,0.09 -0.04,0.09 -0.05,0.08 -0.04,0.09 -1.36,2.7 c 1.26,0.25 2.1,1.04 2.1,2.02 0,1.01 -0.66,1.78 -2.55,1.78 l -3.2,0 -0.05,-0.18 0.24,0 c 0.71,0 0.91,-0.19 0.91,-0.44 0,-0.1 -0.04,-0.2 -0.06,-0.3 l -1.46,-5.86 c -0.11,-0.41 -0.35,-0.74 -1.24,-0.74 l -0.19,0 -0.05,-0.19 3.84,0 0.04,0.19 -0.22,0 c -0.68,0 -0.9,0.18 -0.9,0.46 0,0.1 0.01,0.18 0.04,0.28 l 0.73,2.82 c 0.17,-0.03 0.28,-0.05 0.45,-0.05 l 0.04,0.43 c -0.11,0 -0.23,0.01 -0.38,0.04 l 0.75,3.07 c 0.13,0.03 0.24,0.04 0.4,0.04 0.75,0 1.48,-0.2 1.48,-1.48 0,-0.99 -0.69,-1.67 -2.25,-1.67 l -0.04,-0.43 c 0.09,0 0.22,0.01 0.34,0.02 l 1.77,-3.72 2,0 z" /><path style="fill:#000000;stroke-width:0" id="path4441" d="m 238.28,474.74 0,0.15 -0.14,0 c -0.37,0 -0.6,0.18 -0.66,0.62 l -0.69,5.15 -0.16,0 -3.16,-5.12 c -0.32,-0.51 -0.65,-0.62 -0.96,-0.65 l 0,-0.15 1.94,0 0,0.15 -0.26,0 c -0.23,0 -0.37,0.09 -0.38,0.25 0,0.07 0.02,0.16 0.09,0.23 l 0.74,1.24 1.76,0 -0.06,0.33 -1.51,0 1.23,2.01 0.06,0 0.22,-2.01 0.06,-0.33 0.11,-1 c 0.01,-0.06 0.02,-0.13 0.02,-0.18 0,-0.36 -0.14,-0.54 -0.64,-0.54 l -0.14,0 0,-0.15 z" /></g>    <g style="font-style:normal;font-variant:normal;font-weight:normal;font-stretch:normal;letter-spacing:normal;word-spacing:normal;text-anchor:start;fill:none;fill-opacity:1;fill-rule:evenodd;stroke:#000000;stroke-linecap:butt;stroke-linejoin:miter;stroke-miterlimit:10.43299961;stroke-dasharray:none;stroke-dashoffset:0;stroke-opacity:1" id="g4553" transform="matrix(1.5,0,0,-1.5,-119.1827,918.42381)" xml:space="preserve" stroke-miterlimit="10.433" font-style="normal" font-variant="normal" font-weight="normal" font-stretch="normal" font-size-adjust="none" letter-spacing="normal" word-spacing="normal" ns0:text="$R_B$" ns0:preamble="/Users/prmb/CMEP/underground-inkscape-preamble.tex"><path style="fill:#000000;stroke-width:0" d="m 231.99,477.42 -0.06,0.01 -0.06,0.01 -0.06,0.01 -0.05,0.02 -0.06,0.01 -0.05,0.02 -0.05,0.02 -0.05,0.02 -0.05,0.03 -0.04,0.02 -0.04,0.03 -0.05,0.03 -0.04,0.03 -0.04,0.03 -0.03,0.04 -0.04,0.03 -0.03,0.04 -0.04,0.03 -0.03,0.04 -0.03,0.04 -0.03,0.04 -0.03,0.04 -0.03,0.04 -0.03,0.04 -0.05,0.09 -0.04,0.09 -0.05,0.08 -0.04,0.09 -1.36,2.7 c 1.26,0.25 2.1,1.04 2.1,2.02 0,1.01 -0.66,1.78 -2.55,1.78 l -3.2,0 -0.05,-0.18 0.24,0 c 0.71,0 0.91,-0.19 0.91,-0.44 0,-0.1 -0.04,-0.2 -0.06,-0.3 l -1.46,-5.86 c -0.11,-0.41 -0.35,-0.74 -1.24,-0.74 l -0.19,0 -0.05,-0.19 3.84,0 0.04,0.19 -0.22,0 c -0.68,0 -0.9,0.18 -0.9,0.46 0,0.1 0.01,0.18 0.04,0.28 l 0.73,2.82 c 0.17,-0.03 0.28,-0.05 0.45,-0.05 l 0.04,0.43 c -0.11,0 -0.23,0.01 -0.38,0.04 l 0.75,3.07 c 0.13,0.03 0.24,0.04 0.4,0.04 0.75,0 1.48,-0.2 1.48,-1.48 0,-0.99 -0.69,-1.67 -2.25,-1.67 l -0.04,-0.43 c 0.09,0 0.22,0.01 0.34,0.02 l 1.77,-3.72 2,0 z" id="path4555" /><path style="fill:#000000;stroke-width:0" d="m 233.96,480.53 -0.05,-0.14 0.17,0 c 0.53,0 0.69,-0.14 0.69,-0.37 0,-0.05 0,-0.14 -0.01,-0.19 l -1.1,-4.38 c -0.07,-0.31 -0.23,-0.56 -0.91,-0.56 l -0.18,0 -0.03,-0.15 2.87,0 c 1.84,0 2.57,0.84 2.57,1.72 0,0.75 -0.6,1.12 -1.13,1.22 l -0.03,0.03 c 0.18,0.05 0.44,0.12 0.66,0.24 0.43,0.21 0.81,0.61 0.81,1.3 0,1.2 -1.35,1.28 -2.09,1.28 l -0.01,-0.34 c 0.48,0 1.05,-0.19 1.05,-0.87 0,-0.86 -0.5,-1.45 -1.49,-1.45 l -0.1,-0.31 c 0.7,0 1.26,-0.31 1.26,-0.95 0,-1.16 -0.85,-1.53 -1.68,-1.53 -0.23,0 -0.41,0.02 -0.63,0.08 l 0.6,2.37 c 0.13,0.03 0.31,0.03 0.45,0.03 l 0.1,0.31 c -0.13,0 -0.29,0.02 -0.47,0.06 l 0.52,2.23 c 0.12,0.02 0.25,0.03 0.39,0.03 l 0.01,0.34 z" id="path4557" /></g>    <g style="font-style:normal;font-variant:normal;font-weight:normal;font-stretch:normal;letter-spacing:normal;word-spacing:normal;text-anchor:start;fill:none;fill-opacity:1;fill-rule:evenodd;stroke:#000000;stroke-linecap:butt;stroke-linejoin:miter;stroke-miterlimit:10.43299961;stroke-dasharray:none;stroke-dashoffset:0;stroke-opacity:1" ns0:preamble="/Users/prmb/CMEP/underground-inkscape-preamble.tex" ns0:text="$T$" word-spacing="normal" letter-spacing="normal" font-size-adjust="none" font-stretch="normal" font-weight="normal" font-variant="normal" font-style="normal" stroke-miterlimit="10.433" xml:space="preserve" transform="matrix(1.5,0,0,-1.5,-127.76899,976.0025)" id="g4675"><path style="fill:#000000;stroke-width:0" id="path4677" d="m 231.34,484.94 -7.07,0 -0.54,-2.11 0.19,0 c 0.21,0.96 1.04,1.68 2.01,1.68 l 1.08,0 -1.57,-6.35 c -0.09,-0.41 -0.33,-0.74 -1.25,-0.74 l -0.21,0 -0.05,-0.19 3.88,0 0.05,0.19 -0.25,0 c -0.71,0 -0.9,0.19 -0.9,0.44 0,0.11 0.04,0.19 0.06,0.3 l 1.57,6.35 1.16,0 c 0.48,0 1.17,-0.06 1.17,-0.84 0,-0.32 -0.04,-0.64 -0.06,-0.84 l 0.19,0 z" /></g>    <g style="font-style:normal;font-variant:normal;font-weight:normal;font-stretch:normal;letter-spacing:normal;word-spacing:normal;text-anchor:start;fill:none;fill-opacity:1;fill-rule:evenodd;stroke:#000000;stroke-linecap:butt;stroke-linejoin:miter;stroke-miterlimit:10.43299961;stroke-dasharray:none;stroke-dashoffset:0;stroke-opacity:1" id="g4799" transform="matrix(1.5,0,0,-1.5,-178.27662,1117.9289)" xml:space="preserve" stroke-miterlimit="10.433" font-style="normal" font-variant="normal" font-weight="normal" font-stretch="normal" font-size-adjust="none" letter-spacing="normal" word-spacing="normal" ns0:text="$0.2g$" ns0:preamble="/Users/prmb/CMEP/underground-inkscape-preamble.tex"><path style="fill:#000000;stroke-width:0" d="m 229.05,481.13 0,0.23 -0.01,0.22 -0.02,0.21 -0.02,0.21 -0.02,0.21 -0.04,0.2 -0.04,0.19 -0.04,0.19 -0.05,0.18 -0.05,0.18 -0.06,0.17 -0.07,0.17 -0.07,0.16 -0.07,0.15 -0.08,0.14 -0.09,0.14 -0.09,0.13 -0.09,0.13 -0.1,0.11 -0.1,0.11 -0.11,0.1 -0.11,0.1 -0.11,0.08 -0.12,0.08 -0.12,0.07 -0.12,0.06 -0.13,0.05 -0.13,0.04 -0.14,0.03 -0.13,0.03 -0.15,0.01 -0.14,0.01 c -1.9,0 -2.72,-1.93 -2.72,-4.02 0,-1.93 0.66,-4.13 2.67,-4.13 l 0,0.31 c -1.01,0 -1.53,1.34 -1.53,3.74 0,2.4 0.53,3.79 1.51,3.79 1.04,0 1.56,-1.38 1.56,-3.84 l 0,0 c 0,-2.34 -0.53,-3.69 -1.54,-3.69 l 0,-0.31 c 1.93,0 2.67,2.03 2.67,4.06 z" id="path4801" /><path style="fill:#000000;stroke-width:0" d="m 231.49,477.74 0,0.04 0,0.03 0,0.03 -0.01,0.03 -0.01,0.04 -0.01,0.03 -0.01,0.03 -0.01,0.03 -0.01,0.03 -0.02,0.03 -0.01,0.02 -0.02,0.03 -0.02,0.03 -0.02,0.02 -0.02,0.03 -0.02,0.02 -0.03,0.02 -0.02,0.03 -0.02,0.02 -0.03,0.02 -0.03,0.01 -0.02,0.02 -0.03,0.02 -0.03,0.01 -0.03,0.01 -0.03,0.01 -0.03,0.01 -0.03,0.01 -0.03,0.01 -0.03,0 -0.03,0.01 -0.04,0 c -0.36,0 -0.66,-0.3 -0.66,-0.67 0,-0.36 0.29,-0.64 0.65,-0.64 0.36,0 0.66,0.29 0.66,0.63 z" id="path4803" /><path style="fill:#000000;stroke-width:0" d="m 237.91,478.85 -0.16,0.07 c -0.39,-0.66 -0.64,-0.79 -1.13,-0.79 l -2.77,0 1.95,2.08 c 1.05,1.11 1.51,1.99 1.51,2.93 0,1.17 -0.85,2.08 -2.18,2.08 -1.45,0 -2.21,-0.97 -2.46,-2.35 l 0.25,-0.06 c 0.47,1.15 0.89,1.53 1.74,1.53 1,0 1.64,-0.59 1.64,-1.66 0,-1.01 -0.43,-1.9 -1.54,-3.07 l -2.1,-2.23 0,-0.15 4.62,0 z" id="path4805" /><path style="fill:#000000;stroke-width:0" d="m 244.05,482.11 -1.49,0 c -0.17,0.18 -0.54,0.33 -1.04,0.33 l 0.05,-0.35 c 0.52,0 0.64,-0.3 0.64,-0.73 l 0,0 c 0,-0.67 -0.3,-1.87 -1.14,-1.87 -0.51,0 -0.66,0.41 -0.66,0.96 0,0.8 0.52,1.64 1.16,1.64 l -0.05,0.35 c -1.25,0 -2.05,-0.93 -2.05,-1.86 0,-0.56 0.32,-1.11 1.11,-1.29 l 0,-0.05 c -0.57,0 -1,-0.58 -1,-1.03 0,-0.2 0.08,-0.42 0.28,-0.55 l 0.24,-0.12 c 0.7,-0.26 2.26,-0.2 2.26,-1.12 l 0,0 c 0,-0.52 -0.42,-1.06 -1.5,-1.06 -1.12,0 -1.64,0.59 -1.64,1.14 0,0.32 0.26,0.63 0.57,0.85 0.09,0.07 0.21,0.13 0.31,0.19 l -0.24,0.12 c -0.73,-0.24 -1.38,-0.59 -1.38,-1.27 0,-0.69 0.59,-1.36 2.17,-1.36 1.76,0 2.54,0.94 2.54,1.78 0,1.48 -2.75,1 -2.75,1.75 0,0.29 0.34,0.59 1.04,0.68 1.04,0.13 1.66,0.86 1.66,1.75 0,0.26 -0.05,0.41 -0.2,0.59 l 0.96,0 z" id="path4807" /></g>    <g style="font-style:normal;font-variant:normal;font-weight:normal;font-stretch:normal;letter-spacing:normal;word-spacing:normal;text-anchor:start;fill:none;fill-opacity:1;fill-rule:evenodd;stroke:#000000;stroke-linecap:butt;stroke-linejoin:miter;stroke-miterlimit:10.43299961;stroke-dasharray:none;stroke-dashoffset:0;stroke-opacity:1" ns0:preamble="/Users/prmb/CMEP/underground-inkscape-preamble.tex" ns0:text="$0.4g$" word-spacing="normal" letter-spacing="normal" font-size-adjust="none" font-stretch="normal" font-weight="normal" font-variant="normal" font-style="normal" stroke-miterlimit="10.433" xml:space="preserve" transform="matrix(1.5,0,0,-1.5,-86.352738,1072.9771)" id="g4939"><path style="fill:#000000;stroke-width:0" id="path4941" d="m 229.05,481.13 0,0.23 -0.01,0.22 -0.02,0.21 -0.02,0.21 -0.02,0.21 -0.04,0.2 -0.04,0.19 -0.04,0.19 -0.05,0.18 -0.05,0.18 -0.06,0.17 -0.07,0.17 -0.07,0.16 -0.07,0.15 -0.08,0.14 -0.09,0.14 -0.09,0.13 -0.09,0.13 -0.1,0.11 -0.1,0.11 -0.11,0.1 -0.11,0.1 -0.11,0.08 -0.12,0.08 -0.12,0.07 -0.12,0.06 -0.13,0.05 -0.13,0.04 -0.14,0.03 -0.13,0.03 -0.15,0.01 -0.14,0.01 c -1.9,0 -2.72,-1.93 -2.72,-4.02 0,-1.93 0.66,-4.13 2.67,-4.13 l 0,0.31 c -1.01,0 -1.53,1.34 -1.53,3.74 0,2.4 0.53,3.79 1.51,3.79 1.04,0 1.56,-1.38 1.56,-3.84 l 0,0 c 0,-2.34 -0.53,-3.69 -1.54,-3.69 l 0,-0.31 c 1.93,0 2.67,2.03 2.67,4.06 z" /><path style="fill:#000000;stroke-width:0" id="path4943" d="m 231.49,477.74 0,0.04 0,0.03 0,0.03 -0.01,0.03 -0.01,0.04 -0.01,0.03 -0.01,0.03 -0.01,0.03 -0.01,0.03 -0.02,0.03 -0.01,0.02 -0.02,0.03 -0.02,0.03 -0.02,0.02 -0.02,0.03 -0.02,0.02 -0.03,0.02 -0.02,0.03 -0.02,0.02 -0.03,0.02 -0.03,0.01 -0.02,0.02 -0.03,0.02 -0.03,0.01 -0.03,0.01 -0.03,0.01 -0.03,0.01 -0.03,0.01 -0.03,0.01 -0.03,0 -0.03,0.01 -0.04,0 c -0.36,0 -0.66,-0.3 -0.66,-0.67 0,-0.36 0.29,-0.64 0.65,-0.64 0.36,0 0.66,0.29 0.66,0.63 z" /><polygon style="fill:#000000;stroke-width:0" id="polygon4945" points="237.9,479.96 236.69,479.96 236.69,485.22 236.17,485.22 232.46,479.96 232.93,479.96 235.76,484.01 235.76,479.96 232.93,479.96 232.46,479.96 232.46,479.21 235.76,479.21 235.76,477.23 236.69,477.23 236.69,479.21 237.9,479.21 " /><path style="fill:#000000;stroke-width:0" id="path4947" d="m 244.05,482.11 -1.49,0 c -0.17,0.18 -0.54,0.33 -1.04,0.33 l 0.05,-0.35 c 0.52,0 0.64,-0.3 0.64,-0.73 l 0,0 c 0,-0.67 -0.3,-1.87 -1.14,-1.87 -0.51,0 -0.66,0.41 -0.66,0.96 0,0.8 0.52,1.64 1.16,1.64 l -0.05,0.35 c -1.25,0 -2.05,-0.93 -2.05,-1.86 0,-0.56 0.32,-1.11 1.11,-1.29 l 0,-0.05 c -0.57,0 -1,-0.58 -1,-1.03 0,-0.2 0.08,-0.42 0.28,-0.55 l 0.24,-0.12 c 0.7,-0.26 2.26,-0.2 2.26,-1.12 l 0,0 c 0,-0.52 -0.42,-1.06 -1.5,-1.06 -1.12,0 -1.64,0.59 -1.64,1.14 0,0.32 0.26,0.63 0.57,0.85 0.09,0.07 0.21,0.13 0.31,0.19 l -0.24,0.12 c -0.73,-0.24 -1.38,-0.59 -1.38,-1.27 0,-0.69 0.59,-1.36 2.17,-1.36 1.76,0 2.54,0.94 2.54,1.78 0,1.48 -2.75,1 -2.75,1.75 0,0.29 0.34,0.59 1.04,0.68 1.04,0.13 1.66,0.86 1.66,1.75 0,0.26 -0.05,0.41 -0.2,0.59 l 0.96,0 z" /></g>    <g style="font-style:normal;font-variant:normal;font-weight:normal;font-stretch:normal;letter-spacing:normal;word-spacing:normal;text-anchor:start;fill:none;fill-opacity:1;fill-rule:evenodd;stroke:#000000;stroke-linecap:butt;stroke-linejoin:miter;stroke-miterlimit:10.43299961;stroke-dasharray:none;stroke-dashoffset:0;stroke-opacity:1" id="g5089" transform="matrix(1.5,0,0,-1.5,-231.8147,1057.3198)" xml:space="preserve" stroke-miterlimit="10.433" font-style="normal" font-variant="normal" font-weight="normal" font-stretch="normal" font-size-adjust="none" letter-spacing="normal" word-spacing="normal" ns0:text="$F_A$" ns0:preamble="/Users/prmb/CMEP/underground-inkscape-preamble.tex"><path style="fill:#000000;stroke-width:0" d="m 231.97,484.94 -6.14,0 -0.05,-0.17 0.23,0 c 0.7,0 0.89,-0.22 0.89,-0.46 0,-0.09 -0.02,-0.19 -0.04,-0.29 l -1.47,-5.86 c -0.1,-0.41 -0.35,-0.74 -1.25,-0.74 l -0.21,0 -0.05,-0.19 4.04,0 0.05,0.19 -0.38,0 c -0.71,0 -0.94,0.19 -0.94,0.49 0,0.08 0.04,0.17 0.05,0.25 l 0.73,2.99 1.15,0 c 0.34,0 0.83,-0.03 0.83,-0.59 0,-0.21 -0.03,-0.55 -0.06,-0.72 l 0.19,0 0.7,2.86 -0.19,0 c -0.24,-1 -0.79,-1.12 -1.52,-1.12 l -0.98,0 0.73,2.93 1.74,0 c 0.55,0 1.26,-0.11 1.3,-1.03 0,-0.16 0,-0.33 -0.01,-0.43 l 0.19,0 z" id="path5091" /><path style="fill:#000000;stroke-width:0" d="m 236.84,474.74 0,0.15 -0.15,0 c -0.37,0 -0.59,0.18 -0.65,0.62 l -0.7,5.15 -0.16,0 -3.16,-5.12 c -0.32,-0.51 -0.64,-0.62 -0.95,-0.65 l 0,-0.15 1.93,0 0,0.15 -0.26,0 c -0.23,0 -0.37,0.09 -0.38,0.25 0,0.07 0.03,0.16 0.09,0.23 l 0.75,1.24 1.75,0 -0.06,0.33 -1.51,0 1.24,2.01 0.05,0 0.22,-2.01 0.06,-0.33 0.12,-1 c 0.01,-0.06 0.02,-0.13 0.02,-0.18 0,-0.36 -0.15,-0.54 -0.64,-0.54 l -0.15,0 0,-0.15 z" id="path5093" /></g>    <g style="font-style:normal;font-variant:normal;font-weight:normal;font-stretch:normal;letter-spacing:normal;word-spacing:normal;text-anchor:start;fill:none;fill-opacity:1;fill-rule:evenodd;stroke:#000000;stroke-linecap:butt;stroke-linejoin:miter;stroke-miterlimit:10.43299961;stroke-dasharray:none;stroke-dashoffset:0;stroke-opacity:1" ns0:preamble="/Users/prmb/CMEP/underground-inkscape-preamble.tex" ns0:text="$F_B$" word-spacing="normal" letter-spacing="normal" font-size-adjust="none" font-stretch="normal" font-weight="normal" font-variant="normal" font-style="normal" stroke-miterlimit="10.433" xml:space="preserve" transform="matrix(1.5,0,0,-1.5,-116.15224,1010.8528)" id="g5241"><path style="fill:#000000;stroke-width:0" id="path5243" d="m 231.97,484.94 -6.14,0 -0.05,-0.17 0.23,0 c 0.7,0 0.89,-0.22 0.89,-0.46 0,-0.09 -0.02,-0.19 -0.04,-0.29 l -1.47,-5.86 c -0.1,-0.41 -0.35,-0.74 -1.25,-0.74 l -0.21,0 -0.05,-0.19 4.04,0 0.05,0.19 -0.38,0 c -0.71,0 -0.94,0.19 -0.94,0.49 0,0.08 0.04,0.17 0.05,0.25 l 0.73,2.99 1.15,0 c 0.34,0 0.83,-0.03 0.83,-0.59 0,-0.21 -0.03,-0.55 -0.06,-0.72 l 0.19,0 0.7,2.86 -0.19,0 c -0.24,-1 -0.79,-1.12 -1.52,-1.12 l -0.98,0 0.73,2.93 1.74,0 c 0.55,0 1.26,-0.11 1.3,-1.03 0,-0.16 0,-0.33 -0.01,-0.43 l 0.19,0 z" /><path style="fill:#000000;stroke-width:0" id="path5245" d="m 232.51,480.53 -0.04,-0.14 0.17,0 c 0.52,0 0.69,-0.14 0.69,-0.37 0,-0.05 -0.01,-0.14 -0.02,-0.19 l -1.09,-4.38 c -0.07,-0.31 -0.24,-0.56 -0.92,-0.56 l -0.17,0 -0.04,-0.15 2.88,0 c 1.83,0 2.56,0.84 2.56,1.72 0,0.75 -0.59,1.12 -1.12,1.22 l -0.03,0.03 c 0.18,0.05 0.43,0.12 0.66,0.24 0.42,0.21 0.8,0.61 0.8,1.3 0,1.2 -1.35,1.28 -2.09,1.28 l -0.01,-0.34 c 0.48,0 1.06,-0.19 1.06,-0.87 0,-0.86 -0.5,-1.45 -1.5,-1.45 l -0.09,-0.31 c 0.69,0 1.26,-0.31 1.26,-0.95 0,-1.16 -0.85,-1.53 -1.69,-1.53 -0.23,0 -0.41,0.02 -0.63,0.08 l 0.61,2.37 c 0.13,0.03 0.31,0.03 0.45,0.03 l 0.09,0.31 c -0.13,0 -0.29,0.02 -0.46,0.06 l 0.52,2.23 c 0.11,0.02 0.25,0.03 0.38,0.03 l 0.01,0.34 z" /></g>    <g style="font-style:normal;font-variant:normal;font-weight:normal;font-stretch:normal;letter-spacing:normal;word-spacing:normal;text-anchor:start;fill:none;fill-opacity:1;fill-rule:evenodd;stroke:#000000;stroke-linecap:butt;stroke-linejoin:miter;stroke-miterlimit:10.43299961;stroke-dasharray:none;stroke-dashoffset:0;stroke-opacity:1" id="g5399" transform="matrix(1.5,0,0,-1.5,-155.04311,999.23601)" xml:space="preserve" stroke-miterlimit="10.433" font-style="normal" font-variant="normal" font-weight="normal" font-stretch="normal" font-size-adjust="none" letter-spacing="normal" word-spacing="normal" ns0:text="$T$" ns0:preamble="/Users/prmb/CMEP/underground-inkscape-preamble.tex"><path style="fill:#000000;stroke-width:0" d="m 231.34,484.94 -7.07,0 -0.54,-2.11 0.19,0 c 0.21,0.96 1.04,1.68 2.01,1.68 l 1.08,0 -1.57,-6.35 c -0.09,-0.41 -0.33,-0.74 -1.25,-0.74 l -0.21,0 -0.05,-0.19 3.88,0 0.05,0.19 -0.25,0 c -0.71,0 -0.9,0.19 -0.9,0.44 0,0.11 0.04,0.19 0.06,0.3 l 1.57,6.35 1.16,0 c 0.48,0 1.17,-0.06 1.17,-0.84 0,-0.32 -0.04,-0.64 -0.06,-0.84 l 0.19,0 z" id="path5401" /></g>  </g>
</svg>