<?xml version='1.0' ?><svg xmlns:ns0="http://www.iki.fi/pav/software/textext/" xmlns:dc="http://purl.org/dc/elements/1.1/" xmlns:cc="http://creativecommons.org/ns#" xmlns:rdf="http://www.w3.org/1999/02/22-rdf-syntax-ns#" xmlns:svg="http://www.w3.org/2000/svg" xmlns="http://www.w3.org/2000/svg" version="1.1" id="svg2" width="257.92" height="215.7769" viewBox="98.50000312513549 170.571356237306 241.80000000033263 202.29084375027827" preserveAspectRatio="none">
  <defs id="defs4">
    <marker orient="auto" refY="0.0" refX="0.0" id="Arrow1Lend" style="overflow:visible;">
      <path id="path4153" d="M 0.0,0.0 L 5.0,-5.0 L -12.5,0.0 L 5.0,5.0 L 0.0,0.0 z " style="fill-rule:evenodd;stroke:#000000;stroke-width:1pt;stroke-opacity:1;fill:#000000;fill-opacity:1" transform="scale(0.8) rotate(180) translate(12.5,0)" />
    </marker>
  </defs>
  <metadata id="metadata7">
    <rdf:RDF>
      <cc:Work rdf:about="">
        <dc:format>image/svg+xml</dc:format>
        <dc:type rdf:resource="http://purl.org/dc/dcmitype/StillImage" />
        <dc:title />
      </cc:Work>
    </rdf:RDF>
  </metadata>
  <g id="layer1">
    <path style="fill:none;fill-rule:evenodd;stroke:#000000;stroke-width:1px;stroke-linecap:butt;stroke-linejoin:miter;stroke-opacity:1" d="m 340,372.3622 -240,0 240,-180" id="path4138" />
    <path style="fill:none;fill-rule:evenodd;stroke:#000000;stroke-width:1px;stroke-linecap:butt;stroke-linejoin:miter;stroke-opacity:1;marker-end:url(#Arrow1Lend)" d="m 160,312.3622 160,-120" id="path4140" />
    <circle style="fill:#000000;fill-rule:evenodd;stroke:#000000;stroke-width:1.1360544px;stroke-linecap:butt;stroke-linejoin:miter;stroke-opacity:1;fill-opacity:1" id="path4142" cx="160" cy="312.36221" r="11.360544" />
    <circle r="11.360544" cy="242.36221" cx="252.76785" id="circle4144" style="fill:#000000;fill-opacity:1;fill-rule:evenodd;stroke:#000000;stroke-width:1.1360544px;stroke-linecap:butt;stroke-linejoin:miter;stroke-opacity:1" />
    <path style="fill:none;fill-rule:evenodd;stroke:#000000;stroke-width:1px;stroke-linecap:butt;stroke-linejoin:miter;stroke-opacity:1" id="path4426" d="m 123.92219,354.25893 a 30,30 0 0 1 6.0777,18.02073" />
    <g style="font-style:normal;font-variant:normal;font-weight:normal;font-stretch:normal;letter-spacing:normal;word-spacing:normal;text-anchor:start;fill:none;fill-opacity:1;fill-rule:evenodd;stroke:#000000;stroke-linecap:butt;stroke-linejoin:miter;stroke-miterlimit:10.43299961;stroke-dasharray:none;stroke-dashoffset:0;stroke-opacity:1" ns0:preamble="/Users/prmb/CMEP/underground-inkscape-preamble.tex" ns0:text="$\\quantity{P\\,}{N}$" text-anchor="start" word-spacing="normal" letter-spacing="normal" font-size-adjust="none" font-stretch="normal" font-weight="normal" font-variant="normal" font-style="normal" fill-opacity="1" fill-rule="evenodd" fill="none" stroke-opacity="1" stroke-dashoffset="0" stroke-dasharray="none" stroke-miterlimit="10.433" stroke-linejoin="miter" stroke-linecap="butt" stroke="black" xml:space="preserve" transform="matrix(1.5,0,0,-1.5,-25.056674,898.14636)" id="content"><path id="path4480" fill="black" stroke-width="0" d="M225.8,484.94 L225.76,484.76 H225.98 C226.7,484.76,226.9,484.57,226.9,484.32 C226.9,484.22,226.88,484.12,226.86,484.02 L225.38,478.16 C225.27,477.75,225.04,477.42,224.13,477.42 H223.93 L223.88,477.23 H227.91 L227.95,477.42 H227.58 C226.88,477.42,226.67,477.6,226.67,477.88 C226.67,477.98,226.68,478.06,226.7,478.16 L227.36,480.79 C227.41,480.78,227.45,480.77,227.51,480.77 C227.79,480.72,228.05,480.71,228.38,480.71 C230.79,480.71,231.74,481.9,231.74,483.05 C231.74,483.93,231.01,484.94,229,484.94 L228.86,484.51 C229.98,484.51,230.34,483.88,230.34,483.17 C230.34,481.97,229.39,481.14,228.19,481.14 C227.95,481.14,227.67,481.19,227.48,481.24 L228.28,484.47 C228.49,484.5,228.66,484.51,228.86,484.51 L229,484.94 Z " /><path id="path4482" fill="black" stroke-width="0" d="M242.13,485.05 H239.34 V484.83 C239.85,484.77,240.07,484.74,240.27,484.52 C240.45,484.32,240.49,483.96,240.49,483.36 V479.35 L235.94,485.05 H233.93 V484.83 C234.51,484.83,234.68,484.68,235.07,484.2 V479.01 C235.07,477.74,234.9,477.57,233.93,477.46 V477.23 H236.69 V477.46 C235.78,477.59,235.59,477.79,235.59,479.01 V483.59 L240.8,477.11 H241.01 V483.22 C241.01,484.15,241.13,484.41,241.35,484.61 C241.51,484.74,241.68,484.78,242.13,484.83 Z " /></g>    <g style="font-style:normal;font-variant:normal;font-weight:normal;font-stretch:normal;letter-spacing:normal;word-spacing:normal;text-anchor:start;fill:none;fill-opacity:1;fill-rule:evenodd;stroke:#000000;stroke-linecap:butt;stroke-linejoin:miter;stroke-miterlimit:10.43299961;stroke-dasharray:none;stroke-dashoffset:0;stroke-opacity:1" id="g4514" transform="matrix(1.5,0,0,-1.5,-199.29299,1012.8587)" xml:space="preserve" stroke-miterlimit="10.433" font-style="normal" font-variant="normal" font-weight="normal" font-stretch="normal" font-size-adjust="none" letter-spacing="normal" word-spacing="normal" ns0:text="$A$" ns0:preamble="/Users/prmb/CMEP/underground-inkscape-preamble.tex"><path style="fill:#000000;stroke-width:0" d="m 231.52,477.23 0,0.19 -0.19,0 c -0.5,0 -0.79,0.25 -0.87,0.83 l -0.92,6.86 -0.22,0 -4.2,-6.81 c -0.42,-0.69 -0.86,-0.83 -1.27,-0.88 l 0,-0.19 2.57,0 0,0.19 -0.34,0 c -0.31,0 -0.5,0.13 -0.51,0.35 0,0.08 0.03,0.21 0.12,0.3 l 0.99,1.66 2.34,0 -0.09,0.43 -2,0 1.64,2.68 0.07,0 0.29,-2.68 0.09,-0.43 0.15,-1.34 c 0.01,-0.08 0.02,-0.18 0.02,-0.25 0,-0.47 -0.19,-0.72 -0.85,-0.72 l -0.19,0 0,-0.19 z" id="path4516" /></g>    <g style="font-style:normal;font-variant:normal;font-weight:normal;font-stretch:normal;letter-spacing:normal;word-spacing:normal;text-anchor:start;fill:none;fill-opacity:1;fill-rule:evenodd;stroke:#000000;stroke-linecap:butt;stroke-linejoin:miter;stroke-miterlimit:10.43299961;stroke-dasharray:none;stroke-dashoffset:0;stroke-opacity:1" ns0:preamble="/Users/prmb/CMEP/underground-inkscape-preamble.tex" ns0:text="$B$" word-spacing="normal" letter-spacing="normal" font-size-adjust="none" font-stretch="normal" font-weight="normal" font-variant="normal" font-style="normal" stroke-miterlimit="10.433" xml:space="preserve" transform="matrix(1.5,0,0,-1.5,-97.969491,942.16239)" id="g4552"><path style="fill:#000000;stroke-width:0" id="path4554" d="m 225.77,484.94 -0.06,-0.18 0.22,0 c 0.7,0 0.93,-0.19 0.93,-0.5 0,-0.07 -0.02,-0.19 -0.03,-0.25 l -1.45,-5.84 c -0.09,-0.4 -0.32,-0.75 -1.22,-0.75 l -0.23,0 -0.05,-0.19 3.83,0 c 2.44,0 3.41,1.12 3.41,2.28 0,1.01 -0.79,1.5 -1.5,1.63 l -0.04,0.05 c 0.24,0.06 0.58,0.15 0.88,0.31 0.56,0.28 1.07,0.81 1.07,1.73 0,1.61 -1.79,1.71 -2.79,1.71 l -0.01,-0.46 c 0.64,0 1.41,-0.24 1.41,-1.15 0,-1.15 -0.66,-1.93 -1.99,-1.93 l -0.13,-0.41 c 0.93,0 1.68,-0.41 1.68,-1.28 0,-1.53 -1.13,-2.03 -2.24,-2.03 -0.31,0 -0.55,0.03 -0.84,0.11 l 0.8,3.15 c 0.18,0.05 0.42,0.05 0.6,0.05 l 0.13,0.41 c -0.17,0 -0.39,0.03 -0.62,0.07 l 0.7,2.98 c 0.15,0.02 0.33,0.03 0.5,0.03 l 0.01,0.46 z" /></g>    <g style="font-style:normal;font-variant:normal;font-weight:normal;font-stretch:normal;letter-spacing:normal;word-spacing:normal;text-anchor:start;fill:none;fill-opacity:1;fill-rule:evenodd;stroke:#000000;stroke-linecap:butt;stroke-linejoin:miter;stroke-miterlimit:10.43299961;stroke-dasharray:none;stroke-dashoffset:0;stroke-opacity:1" id="g4594" transform="matrix(1.5,0,0,-1.5,-200.49997,1080.0482)" xml:space="preserve" stroke-miterlimit="10.433" font-style="normal" font-variant="normal" font-weight="normal" font-stretch="normal" font-size-adjust="none" letter-spacing="normal" word-spacing="normal" ns0:text="$\\theta$" ns0:preamble="/Users/prmb/CMEP/underground-inkscape-preamble.tex"><path style="fill:#000000;stroke-width:0" d="m 229.03,482.81 0,0.14 -0.01,0.14 -0.01,0.14 -0.01,0.13 -0.02,0.12 -0.02,0.12 -0.02,0.12 -0.03,0.11 -0.03,0.11 -0.03,0.1 -0.03,0.1 -0.04,0.09 -0.04,0.09 -0.05,0.08 -0.04,0.08 -0.05,0.07 -0.06,0.07 -0.05,0.07 -0.06,0.06 -0.06,0.05 -0.06,0.05 -0.06,0.05 -0.07,0.04 -0.06,0.04 -0.07,0.03 -0.07,0.03 -0.08,0.03 -0.07,0.02 -0.08,0.01 -0.07,0.01 -0.08,0.01 -0.08,0 -0.09,-0.34 c 0.49,0 0.61,-0.66 0.61,-1.52 0,-0.49 -0.12,-1.14 -0.3,-1.96 l -2.43,0 c 0.31,1.4 1.27,3.48 2.12,3.48 l 0.09,0.34 c -2.25,0 -3.62,-3.85 -3.62,-5.9 0,-1.42 0.5,-2.11 1.62,-2.11 l 0.06,0.34 c -0.51,0 -0.68,0.66 -0.68,1.47 0,0.57 0.1,1.36 0.29,1.95 l 2.44,0 c -0.03,-0.1 -0.1,-0.44 -0.18,-0.71 -0.37,-1.17 -1.08,-2.71 -1.87,-2.71 l -0.06,-0.34 c 1.82,0 3.51,3.38 3.51,5.7 z" id="path4596" /></g>  </g>
</svg>