<?xml version='1.0' ?><svg xmlns:ns0="http://www.iki.fi/pav/software/textext/" xmlns:dc="http://purl.org/dc/elements/1.1/" xmlns:cc="http://creativecommons.org/ns#" xmlns:rdf="http://www.w3.org/1999/02/22-rdf-syntax-ns#" xmlns:svg="http://www.w3.org/2000/svg" xmlns="http://www.w3.org/2000/svg" version="1.1" id="svg2" width="314.98348" height="82.827994" viewBox="97.9212468751347 309.7109343624974 295.2970125004062 77.65124437510681" preserveAspectRatio="none">
  <defs id="defs4">
    <marker style="overflow:visible" refY="0.0" refX="0.0" orient="auto" id="DoubleArrowUM_1.0_n00003">
      <path id="path4278" transform="scale(1.0)" style="stroke-width:1;stroke:#000000;fill:#FF0000;fill-rule:evenodd" d="M -5,5 L 0,0 M 0,0 L -5,-5" />
    </marker>
  </defs>
  <metadata id="metadata7">
    <rdf:RDF>
      <cc:Work rdf:about="">
        <dc:format>image/svg+xml</dc:format>
        <dc:type rdf:resource="http://purl.org/dc/dcmitype/StillImage" />
        <dc:title />
      </cc:Work>
    </rdf:RDF>
  </metadata>
  <g id="layer1">
    <path id="path4138" d="m 179.7751,372.27129 -80.349578,0 80.349578,-60.0485" style="fill:none;fill-rule:evenodd;stroke:#000000;stroke-width:1px;stroke-linecap:butt;stroke-linejoin:miter;stroke-opacity:1" />
    <path d="m 123.92219,354.25893 a 30,30 0 0 1 6.0777,18.02073" id="path4426" style="fill:none;fill-rule:evenodd;stroke:#000000;stroke-width:1px;stroke-linecap:butt;stroke-linejoin:miter;stroke-opacity:1" />
    <g ns0:preamble="/Users/prmb/CMEP/underground-inkscape-preamble.tex" ns0:text="$\\theta$" word-spacing="normal" letter-spacing="normal" font-size-adjust="none" font-stretch="normal" font-weight="normal" font-variant="normal" font-style="normal" stroke-miterlimit="10.433" xml:space="preserve" transform="matrix(1.5,0,0,-1.5,-200.49997,1080.0482)" id="g4594" style="font-style:normal;font-variant:normal;font-weight:normal;font-stretch:normal;letter-spacing:normal;word-spacing:normal;text-anchor:start;fill:none;fill-opacity:1;fill-rule:evenodd;stroke:#000000;stroke-linecap:butt;stroke-linejoin:miter;stroke-miterlimit:10.43299961;stroke-dasharray:none;stroke-dashoffset:0;stroke-opacity:1"><path id="path4596" d="m 229.03,482.81 0,0.14 -0.01,0.14 -0.01,0.14 -0.01,0.13 -0.02,0.12 -0.02,0.12 -0.02,0.12 -0.03,0.11 -0.03,0.11 -0.03,0.1 -0.03,0.1 -0.04,0.09 -0.04,0.09 -0.05,0.08 -0.04,0.08 -0.05,0.07 -0.06,0.07 -0.05,0.07 -0.06,0.06 -0.06,0.05 -0.06,0.05 -0.06,0.05 -0.07,0.04 -0.06,0.04 -0.07,0.03 -0.07,0.03 -0.08,0.03 -0.07,0.02 -0.08,0.01 -0.07,0.01 -0.08,0.01 -0.08,0 -0.09,-0.34 c 0.49,0 0.61,-0.66 0.61,-1.52 0,-0.49 -0.12,-1.14 -0.3,-1.96 l -2.43,0 c 0.31,1.4 1.27,3.48 2.12,3.48 l 0.09,0.34 c -2.25,0 -3.62,-3.85 -3.62,-5.9 0,-1.42 0.5,-2.11 1.62,-2.11 l 0.06,0.34 c -0.51,0 -0.68,0.66 -0.68,1.47 0,0.57 0.1,1.36 0.29,1.95 l 2.44,0 c -0.03,-0.1 -0.1,-0.44 -0.18,-0.71 -0.37,-1.17 -1.08,-2.71 -1.87,-2.71 l -0.06,-0.34 c 1.82,0 3.51,3.38 3.51,5.7 z" style="fill:#000000;stroke-width:0" /></g>    <path style="fill:none;fill-rule:evenodd;stroke:#000000;stroke-width:1px;stroke-linecap:butt;stroke-linejoin:miter;stroke-opacity:1;marker-mid:url(#DoubleArrowUM_1.0_n00003)" d="m 296,312.36218 0,57.45051 0,17.54949" id="path4637" />
    <path style="fill:none;fill-rule:evenodd;stroke:#000000;stroke-width:1px;stroke-linecap:butt;stroke-linejoin:miter;stroke-opacity:1;marker-end:url(#DoubleArrowUM_1.0_n00003)" d="m 296.93733,312.59409 34.54416,48.26233" id="path4259" />
    <path style="fill:none;fill-rule:evenodd;stroke:#000000;stroke-width:1px;stroke-linecap:butt;stroke-linejoin:miter;stroke-opacity:1" d="m 296.49963,386.60207 34.77278,-26.09898" id="path4263" />
    <g style="font-style:normal;font-variant:normal;font-weight:normal;font-stretch:normal;letter-spacing:normal;word-spacing:normal;text-anchor:start;fill:none;fill-opacity:1;fill-rule:evenodd;stroke:#000000;stroke-linecap:butt;stroke-linejoin:miter;stroke-miterlimit:10.43299961;stroke-dasharray:none;stroke-dashoffset:0;stroke-opacity:1" id="g4799" transform="matrix(1.5,0,0,-1.5,-77.63196,1083.0786)" xml:space="preserve" stroke-miterlimit="10.433" font-style="normal" font-variant="normal" font-weight="normal" font-stretch="normal" font-size-adjust="none" letter-spacing="normal" word-spacing="normal" ns0:text="$0.2g$" ns0:preamble="/Users/prmb/CMEP/underground-inkscape-preamble.tex"><path style="fill:#000000;stroke-width:0" d="m 229.05,481.13 0,0.23 -0.01,0.22 -0.02,0.21 -0.02,0.21 -0.02,0.21 -0.04,0.2 -0.04,0.19 -0.04,0.19 -0.05,0.18 -0.05,0.18 -0.06,0.17 -0.07,0.17 -0.07,0.16 -0.07,0.15 -0.08,0.14 -0.09,0.14 -0.09,0.13 -0.09,0.13 -0.1,0.11 -0.1,0.11 -0.11,0.1 -0.11,0.1 -0.11,0.08 -0.12,0.08 -0.12,0.07 -0.12,0.06 -0.13,0.05 -0.13,0.04 -0.14,0.03 -0.13,0.03 -0.15,0.01 -0.14,0.01 c -1.9,0 -2.72,-1.93 -2.72,-4.02 0,-1.93 0.66,-4.13 2.67,-4.13 l 0,0.31 c -1.01,0 -1.53,1.34 -1.53,3.74 0,2.4 0.53,3.79 1.51,3.79 1.04,0 1.56,-1.38 1.56,-3.84 l 0,0 c 0,-2.34 -0.53,-3.69 -1.54,-3.69 l 0,-0.31 c 1.93,0 2.67,2.03 2.67,4.06 z" id="path4801" /><path style="fill:#000000;stroke-width:0" d="m 231.49,477.74 0,0.04 0,0.03 0,0.03 -0.01,0.03 -0.01,0.04 -0.01,0.03 -0.01,0.03 -0.01,0.03 -0.01,0.03 -0.02,0.03 -0.01,0.02 -0.02,0.03 -0.02,0.03 -0.02,0.02 -0.02,0.03 -0.02,0.02 -0.03,0.02 -0.02,0.03 -0.02,0.02 -0.03,0.02 -0.03,0.01 -0.02,0.02 -0.03,0.02 -0.03,0.01 -0.03,0.01 -0.03,0.01 -0.03,0.01 -0.03,0.01 -0.03,0.01 -0.03,0 -0.03,0.01 -0.04,0 c -0.36,0 -0.66,-0.3 -0.66,-0.67 0,-0.36 0.29,-0.64 0.65,-0.64 0.36,0 0.66,0.29 0.66,0.63 z" id="path4803" /><path style="fill:#000000;stroke-width:0" d="m 237.91,478.85 -0.16,0.07 c -0.39,-0.66 -0.64,-0.79 -1.13,-0.79 l -2.77,0 1.95,2.08 c 1.05,1.11 1.51,1.99 1.51,2.93 0,1.17 -0.85,2.08 -2.18,2.08 -1.45,0 -2.21,-0.97 -2.46,-2.35 l 0.25,-0.06 c 0.47,1.15 0.89,1.53 1.74,1.53 1,0 1.64,-0.59 1.64,-1.66 0,-1.01 -0.43,-1.9 -1.54,-3.07 l -2.1,-2.23 0,-0.15 4.62,0 z" id="path4805" /><path style="fill:#000000;stroke-width:0" d="m 244.05,482.11 -1.49,0 c -0.17,0.18 -0.54,0.33 -1.04,0.33 l 0.05,-0.35 c 0.52,0 0.64,-0.3 0.64,-0.73 l 0,0 c 0,-0.67 -0.3,-1.87 -1.14,-1.87 -0.51,0 -0.66,0.41 -0.66,0.96 0,0.8 0.52,1.64 1.16,1.64 l -0.05,0.35 c -1.25,0 -2.05,-0.93 -2.05,-1.86 0,-0.56 0.32,-1.11 1.11,-1.29 l 0,-0.05 c -0.57,0 -1,-0.58 -1,-1.03 0,-0.2 0.08,-0.42 0.28,-0.55 l 0.24,-0.12 c 0.7,-0.26 2.26,-0.2 2.26,-1.12 l 0,0 c 0,-0.52 -0.42,-1.06 -1.5,-1.06 -1.12,0 -1.64,0.59 -1.64,1.14 0,0.32 0.26,0.63 0.57,0.85 0.09,0.07 0.21,0.13 0.31,0.19 l -0.24,0.12 c -0.73,-0.24 -1.38,-0.59 -1.38,-1.27 0,-0.69 0.59,-1.36 2.17,-1.36 1.76,0 2.54,0.94 2.54,1.78 0,1.48 -2.75,1 -2.75,1.75 0,0.29 0.34,0.59 1.04,0.68 1.04,0.13 1.66,0.86 1.66,1.75 0,0.26 -0.05,0.41 -0.2,0.59 l 0.96,0 z" id="path4807" /></g>    <path transform="matrix(-0.00439436,0.99999034,-0.99999034,-0.00439436,0,0)" style="fill:none;fill-rule:evenodd;stroke:#000000;stroke-width:1px;stroke-linecap:butt;stroke-linejoin:miter;stroke-opacity:1" id="path6054" d="m 325.12363,-308.4853 a 18.876484,18.876484 0 0 1 3.68787,11.15653 l -18.87641,0.052 z" />
    <path id="path6056" d="m 180,312.36218 0,60" style="fill:none;fill-rule:evenodd;stroke:#000000;stroke-width:1px;stroke-linecap:butt;stroke-linejoin:miter;stroke-opacity:1" />
    <g style="font-style:normal;font-variant:normal;font-weight:normal;font-stretch:normal;letter-spacing:normal;word-spacing:normal;text-anchor:start;fill:none;fill-opacity:1;fill-rule:evenodd;stroke:#000000;stroke-linecap:butt;stroke-linejoin:miter;stroke-miterlimit:10.43299961;stroke-dasharray:none;stroke-dashoffset:0;stroke-opacity:1" id="g6058" transform="matrix(1.5,0,0,-1.5,-36.210597,1059.34)" xml:space="preserve" stroke-miterlimit="10.433" font-style="normal" font-variant="normal" font-weight="normal" font-stretch="normal" font-size-adjust="none" letter-spacing="normal" word-spacing="normal" ns0:text="$\\theta$" ns0:preamble="/Users/prmb/CMEP/underground-inkscape-preamble.tex"><path style="fill:#000000;stroke-width:0" d="m 229.03,482.81 0,0.14 -0.01,0.14 -0.01,0.14 -0.01,0.13 -0.02,0.12 -0.02,0.12 -0.02,0.12 -0.03,0.11 -0.03,0.11 -0.03,0.1 -0.03,0.1 -0.04,0.09 -0.04,0.09 -0.05,0.08 -0.04,0.08 -0.05,0.07 -0.06,0.07 -0.05,0.07 -0.06,0.06 -0.06,0.05 -0.06,0.05 -0.06,0.05 -0.07,0.04 -0.06,0.04 -0.07,0.03 -0.07,0.03 -0.08,0.03 -0.07,0.02 -0.08,0.01 -0.07,0.01 -0.08,0.01 -0.08,0 -0.09,-0.34 c 0.49,0 0.61,-0.66 0.61,-1.52 0,-0.49 -0.12,-1.14 -0.3,-1.96 l -2.43,0 c 0.31,1.4 1.27,3.48 2.12,3.48 l 0.09,0.34 c -2.25,0 -3.62,-3.85 -3.62,-5.9 0,-1.42 0.5,-2.11 1.62,-2.11 l 0.06,0.34 c -0.51,0 -0.68,0.66 -0.68,1.47 0,0.57 0.1,1.36 0.29,1.95 l 2.44,0 c -0.03,-0.1 -0.1,-0.44 -0.18,-0.71 -0.37,-1.17 -1.08,-2.71 -1.87,-2.71 l -0.06,-0.34 c 1.82,0 3.51,3.38 3.51,5.7 z" id="path6060" /></g>    <g style="font-style:normal;font-variant:normal;font-weight:normal;font-stretch:normal;letter-spacing:normal;word-spacing:normal;text-anchor:start;fill:none;fill-opacity:1;fill-rule:evenodd;stroke:#000000;stroke-linecap:butt;stroke-linejoin:miter;stroke-miterlimit:10.43299961;stroke-dasharray:none;stroke-dashoffset:0;stroke-opacity:1" ns0:preamble="/Users/prmb/CMEP/underground-inkscape-preamble.tex" ns0:text="$5$" word-spacing="normal" letter-spacing="normal" font-size-adjust="none" font-stretch="normal" font-weight="normal" font-variant="normal" font-style="normal" stroke-miterlimit="10.433" xml:space="preserve" transform="matrix(1.5,0,0,-1.5,-201.00505,1051.7639)" id="content"><path id="path6114" d="m 228.6,485.27 -0.1,0.09 c -0.19,-0.25 -0.3,-0.31 -0.57,-0.31 l -2.44,0 -1.29,-2.8 c 0,0 -0.01,-0.03 -0.01,-0.06 0,-0.07 0.03,-0.09 0.14,-0.09 1.13,0 1.96,-0.38 2.51,-0.83 0.54,-0.42 0.79,-1.01 0.79,-1.77 0,-1.01 -0.76,-1.99 -1.59,-1.99 -0.24,0 -0.51,0.1 -0.84,0.37 -0.38,0.31 -0.6,0.37 -0.87,0.37 -0.33,0 -0.53,-0.15 -0.53,-0.45 0,-0.45 0.61,-0.73 1.5,-0.73 0.8,0 1.45,0.18 2,0.58 0.81,0.59 1.16,1.32 1.16,2.45 0,0.63 -0.11,1.08 -0.41,1.5 -0.67,0.94 -1.26,1.2 -2.95,1.51 l 0.47,1.01 2.29,0 c 0.19,0 0.28,0.07 0.32,0.15 z" style="fill:#000000;stroke-width:0" /></g>    <g id="g6217" transform="matrix(1.5,0,0,-1.5,-192.41876,1102.7767)" xml:space="preserve" stroke-miterlimit="10.433" font-style="normal" font-variant="normal" font-weight="normal" font-stretch="normal" font-size-adjust="none" letter-spacing="normal" word-spacing="normal" ns0:text="$4$" ns0:preamble="/Users/prmb/CMEP/underground-inkscape-preamble.tex" style="font-style:normal;font-variant:normal;font-weight:normal;font-stretch:normal;letter-spacing:normal;word-spacing:normal;text-anchor:start;fill:none;fill-opacity:1;fill-rule:evenodd;stroke:#000000;stroke-linecap:butt;stroke-linejoin:miter;stroke-miterlimit:10.43299961;stroke-dasharray:none;stroke-dashoffset:0;stroke-opacity:1"><polygon points="229.02,479.96 227.8,479.96 227.8,485.22 227.28,485.22 223.57,479.96 224.05,479.96 226.88,484.01 226.88,479.96 224.05,479.96 223.57,479.96 223.57,479.21 226.88,479.21 226.88,477.23 227.8,477.23 227.8,479.21 229.02,479.21 " id="polygon6219" style="fill:#000000;stroke-width:0" /></g>    <g ns0:preamble="/Users/prmb/CMEP/underground-inkscape-preamble.tex" ns0:text="$3$" word-spacing="normal" letter-spacing="normal" font-size-adjust="none" font-stretch="normal" font-weight="normal" font-variant="normal" font-style="normal" stroke-miterlimit="10.433" xml:space="preserve" transform="matrix(1.5,0,0,-1.5,-152.01265,1064.3908)" id="g6323" style="font-style:normal;font-variant:normal;font-weight:normal;font-stretch:normal;letter-spacing:normal;word-spacing:normal;text-anchor:start;fill:none;fill-opacity:1;fill-rule:evenodd;stroke:#000000;stroke-linecap:butt;stroke-linejoin:miter;stroke-miterlimit:10.43299961;stroke-dasharray:none;stroke-dashoffset:0;stroke-opacity:1"><path id="path6325" d="m 224.15,483.26 0.05,0.08 0.04,0.07 0.05,0.08 0.05,0.07 0.04,0.07 0.05,0.07 0.05,0.06 0.05,0.06 0.05,0.06 0.05,0.05 0.05,0.06 0.05,0.05 0.05,0.04 0.05,0.05 0.05,0.04 0.06,0.04 0.05,0.04 0.06,0.03 0.05,0.03 0.06,0.03 0.06,0.03 0.06,0.02 0.06,0.03 0.06,0.02 0.06,0.01 0.06,0.02 0.06,0.01 0.07,0.01 0.06,0.01 0.07,0 0.06,0.01 0.07,0 c 0.78,0 1.28,-0.4 1.28,-1.21 0,-0.72 -0.38,-1.25 -0.96,-1.58 -0.24,-0.14 -0.54,-0.27 -0.99,-0.42 l 0,-0.17 c 0.67,0 0.94,-0.03 1.2,-0.12 0.82,-0.23 1.23,-0.81 1.23,-1.71 0,-1 -0.66,-1.81 -1.53,-1.81 -0.34,0 -0.58,0.06 -1.02,0.37 -0.33,0.24 -0.52,0.31 -0.72,0.31 -0.27,0 -0.48,-0.18 -0.48,-0.43 0,-0.42 0.46,-0.67 1.32,-0.67 1.05,0 2.17,0.34 2.74,1.1 0.34,0.45 0.54,1.03 0.54,1.65 0,0.61 -0.19,1.16 -0.52,1.52 -0.25,0.26 -0.46,0.4 -0.98,0.63 0.79,0.47 1.1,1.06 1.1,1.63 0,0.97 -0.74,1.62 -1.84,1.62 -1.23,0 -1.97,-0.8 -2.32,-1.92 z" style="fill:#000000;stroke-width:0" /></g>    <g id="g6443" transform="matrix(1.5,0,0,-1.5,-9.9517399,1061.3603)" xml:space="preserve" stroke="black" stroke-linecap="butt" stroke-linejoin="miter" stroke-miterlimit="10.433" stroke-dasharray="none" stroke-dashoffset="0" stroke-opacity="1" fill="none" fill-rule="evenodd" fill-opacity="1" font-style="normal" font-variant="normal" font-weight="normal" font-stretch="normal" font-size-adjust="none" letter-spacing="normal" word-spacing="normal" text-anchor="start" ns0:text="$0.2g\\cos\\theta$" ns0:preamble="/Users/prmb/CMEP/underground-inkscape-preamble.tex" style="font-style:normal;font-variant:normal;font-weight:normal;font-stretch:normal;letter-spacing:normal;word-spacing:normal;text-anchor:start;fill:none;fill-opacity:1;fill-rule:evenodd;stroke:#000000;stroke-linecap:butt;stroke-linejoin:miter;stroke-miterlimit:10.43299961;stroke-dasharray:none;stroke-dashoffset:0;stroke-opacity:1"><path d="M229.05,481.13 L229.05,481.36 L229.04,481.58 L229.02,481.79 L229,482 L228.98,482.21 L228.94,482.41 L228.9,482.6 L228.86,482.79 L228.81,482.97 L228.76,483.15 L228.7,483.32 L228.63,483.49 L228.56,483.65 L228.49,483.8 L228.41,483.94 L228.32,484.08 L228.23,484.21 L228.14,484.34 L228.04,484.45 L227.94,484.56 L227.83,484.66 L227.72,484.76 L227.61,484.84 L227.49,484.92 L227.37,484.99 L227.25,485.05 L227.12,485.1 L226.99,485.14 L226.85,485.17 L226.72,485.2 L226.57,485.21 L226.43,485.22 C224.53,485.22,223.71,483.29,223.71,481.2 C223.71,479.27,224.37,477.07,226.38,477.07 V477.38 C225.37,477.38,224.85,478.72,224.85,481.12 C224.85,483.52,225.38,484.91,226.36,484.91 C227.4,484.91,227.92,483.53,227.92,481.07 H227.92 C227.92,478.73,227.39,477.38,226.38,477.38 V477.07 C228.31,477.07,229.05,479.1,229.05,481.13 Z " stroke-width="0" fill="black" id="path6445" /><path d="M231.49,477.74 L231.49,477.78 L231.49,477.81 L231.49,477.84 L231.48,477.87 L231.47,477.91 L231.46,477.94 L231.45,477.97 L231.44,478 L231.43,478.03 L231.41,478.06 L231.4,478.08 L231.38,478.11 L231.36,478.14 L231.34,478.16 L231.32,478.19 L231.3,478.21 L231.27,478.23 L231.25,478.26 L231.23,478.28 L231.2,478.3 L231.17,478.31 L231.15,478.33 L231.12,478.35 L231.09,478.36 L231.06,478.37 L231.03,478.38 L231,478.39 L230.97,478.4 L230.94,478.41 L230.91,478.41 L230.88,478.42 L230.84,478.42 C230.48,478.42,230.18,478.12,230.18,477.75 C230.18,477.39,230.47,477.11,230.83,477.11 C231.19,477.11,231.49,477.4,231.49,477.74 Z " stroke-width="0" fill="black" id="path6447" /><path d="M237.91,478.85 L237.75,478.92 C237.36,478.26,237.11,478.13,236.62,478.13 H233.85 L235.8,480.21 C236.85,481.32,237.31,482.2,237.31,483.14 C237.31,484.31,236.46,485.22,235.13,485.22 C233.68,485.22,232.92,484.25,232.67,482.87 L232.92,482.81 C233.39,483.96,233.81,484.34,234.66,484.34 C235.66,484.34,236.3,483.75,236.3,482.68 C236.3,481.67,235.87,480.78,234.76,479.61 L232.66,477.38 V477.23 H237.28 Z " stroke-width="0" fill="black" id="path6449" /><path d="M244.05,482.11 H242.56 C242.39,482.29,242.02,482.44,241.52,482.44 L241.57,482.09 C242.09,482.09,242.21,481.79,242.21,481.36 H242.21 C242.21,480.69,241.91,479.49,241.07,479.49 C240.56,479.49,240.41,479.9,240.41,480.45 C240.41,481.25,240.93,482.09,241.57,482.09 L241.52,482.44 C240.27,482.44,239.47,481.51,239.47,480.58 C239.47,480.02,239.79,479.47,240.58,479.29 V479.24 C240.01,479.24,239.58,478.66,239.58,478.21 C239.58,478.01,239.66,477.79,239.86,477.66 L240.1,477.54 C240.8,477.28,242.36,477.34,242.36,476.42 H242.36 C242.36,475.9,241.94,475.36,240.86,475.36 C239.74,475.36,239.22,475.95,239.22,476.5 C239.22,476.82,239.48,477.13,239.79,477.35 C239.88,477.42,240,477.48,240.1,477.54 L239.86,477.66 C239.13,477.42,238.48,477.07,238.48,476.39 C238.48,475.7,239.07,475.03,240.65,475.03 C242.41,475.03,243.19,475.97,243.19,476.81 C243.19,478.29,240.44,477.81,240.44,478.56 C240.44,478.85,240.78,479.15,241.48,479.24 C242.52,479.37,243.14,480.1,243.14,480.99 C243.14,481.25,243.09,481.4,242.94,481.58 H243.9 Z " stroke-width="0" fill="black" id="path6451" /><path d="M250.43,479.08 L250.38,479 L250.32,478.93 L250.27,478.86 L250.22,478.79 L250.17,478.73 L250.12,478.67 L250.07,478.61 L250.02,478.55 L249.98,478.5 L249.93,478.45 L249.88,478.41 L249.83,478.36 L249.78,478.32 L249.73,478.28 L249.69,478.25 L249.64,478.21 L249.59,478.18 L249.54,478.15 L249.49,478.12 L249.44,478.1 L249.39,478.08 L249.33,478.06 L249.28,478.04 L249.23,478.02 L249.17,478.01 L249.12,478 L249.06,477.99 L249.01,477.98 L248.95,477.97 L248.89,477.97 L248.83,477.97 L248.76,477.97 C247.68,477.97,246.93,478.91,246.93,480.27 C246.93,481.5,247.58,482.32,248.54,482.32 C248.96,482.32,249.12,482.19,249.24,481.76 L249.31,481.5 C249.4,481.15,249.61,480.95,249.87,480.95 C250.18,480.95,250.43,481.18,250.43,481.45 C250.43,482.11,249.6,482.67,248.61,482.67 C248.06,482.67,247.49,482.45,247.02,482.06 C246.38,481.53,246.02,480.72,246.02,479.74 C246.02,478.21,246.96,477.12,248.27,477.12 C248.78,477.12,249.22,477.28,249.63,477.61 C249.98,477.9,250.22,478.24,250.59,478.97 Z " stroke-width="0" fill="black" id="path6453" /><path d="M256.54,479.96 L256.54,480.11 L256.53,480.26 L256.51,480.41 L256.49,480.55 L256.46,480.68 L256.43,480.82 L256.39,480.95 L256.34,481.07 L256.29,481.19 L256.24,481.31 L256.18,481.42 L256.11,481.53 L256.04,481.64 L255.97,481.74 L255.89,481.83 L255.8,481.92 L255.72,482.01 L255.62,482.09 L255.53,482.17 L255.43,482.24 L255.33,482.31 L255.22,482.37 L255.11,482.42 L254.99,482.47 L254.88,482.52 L254.76,482.56 L254.64,482.59 L254.51,482.62 L254.38,482.64 L254.25,482.65 L254.12,482.66 L253.99,482.67 C252.4,482.67,251.33,481.57,251.33,479.93 C251.33,478.29,252.45,477.12,253.88,477.12 L254.08,477.45 C253.66,477.45,253.28,477.66,253.02,478.04 C252.58,478.67,252.4,479.52,252.4,480.46 C252.4,481.64,252.95,482.33,253.76,482.33 C254.27,482.33,254.6,482.1,254.89,481.74 C255.26,481.26,255.48,480.45,255.48,479.64 H255.48 C255.48,478.27,254.96,477.45,254.08,477.45 L253.88,477.12 C255.48,477.12,256.54,478.32,256.54,479.96 Z " stroke-width="0" fill="black" id="path6455" /><path d="M258.76,480.79 L258.73,480.81 L258.7,480.83 L258.67,480.85 L258.64,480.87 L258.61,480.89 L258.59,480.92 L258.56,480.94 L258.54,480.96 L258.51,480.99 L258.49,481.01 L258.47,481.04 L258.45,481.06 L258.43,481.09 L258.41,481.11 L258.39,481.14 L258.38,481.17 L258.36,481.19 L258.35,481.22 L258.33,481.25 L258.32,481.28 L258.31,481.3 L258.3,481.33 L258.29,481.36 L258.28,481.38 L258.27,481.41 L258.27,481.44 L258.26,481.46 L258.26,481.49 L258.25,481.52 L258.25,481.54 L258.25,481.57 L258.25,481.59 C258.25,482.15,258.63,482.39,259.13,482.39 C259.84,482.39,260.2,482.01,260.47,480.94 H260.64 L260.59,482.55 H260.46 C260.36,482.44,260.31,482.43,260.27,482.43 C260.18,482.43,260.07,482.46,259.94,482.52 C259.69,482.64,259.43,482.65,259.15,482.65 C258.18,482.65,257.52,482.13,257.52,481.2 C257.52,480.6,257.95,480.03,258.93,479.49 L259.57,479.14 C259.96,478.92,260.2,478.62,260.2,478.25 C260.2,477.77,259.82,477.38,259.22,477.38 C258.4,477.38,257.96,477.9,257.72,479.04 H257.53 V477.19 H257.68 C257.75,477.31,257.82,477.33,257.96,477.33 C258.1,477.33,258.23,477.32,258.51,477.22 C258.78,477.13,259.12,477.12,259.37,477.12 C260.27,477.12,261.02,477.8,261.02,478.59 C261.02,479.27,260.74,479.58,259.98,480.05 Z " stroke-width="0" fill="black" id="path6457" /><path d="M268.78,482.81 L268.78,482.95 L268.77,483.09 L268.76,483.23 L268.75,483.36 L268.73,483.48 L268.71,483.6 L268.69,483.72 L268.66,483.83 L268.63,483.94 L268.6,484.04 L268.57,484.14 L268.53,484.23 L268.49,484.32 L268.44,484.4 L268.4,484.48 L268.35,484.55 L268.29,484.62 L268.24,484.69 L268.18,484.75 L268.12,484.8 L268.06,484.85 L268,484.9 L267.93,484.94 L267.87,484.98 L267.8,485.01 L267.73,485.04 L267.65,485.07 L267.58,485.09 L267.5,485.1 L267.43,485.11 L267.35,485.12 L267.27,485.12 L267.18,484.78 C267.67,484.78,267.79,484.12,267.79,483.26 C267.79,482.77,267.67,482.12,267.49,481.3 H265.06 C265.37,482.7,266.33,484.78,267.18,484.78 L267.27,485.12 C265.02,485.12,263.65,481.27,263.65,479.22 C263.65,477.8,264.15,477.11,265.27,477.11 L265.33,477.45 C264.82,477.45,264.65,478.11,264.65,478.92 C264.65,479.49,264.75,480.28,264.94,480.87 H267.39 C267.35,480.77,267.28,480.43,267.2,480.16 C266.83,478.99,266.12,477.45,265.33,477.45 L265.27,477.11 C267.09,477.11,268.78,480.49,268.78,482.81 Z " stroke-width="0" fill="black" id="path6459" /></g>  </g>
</svg>