<?xml version='1.0' ?><svg xmlns:dc="http://purl.org/dc/elements/1.1/" xmlns:cc="http://creativecommons.org/ns#" xmlns:rdf="http://www.w3.org/1999/02/22-rdf-syntax-ns#" xmlns:svg="http://www.w3.org/2000/svg" xmlns="http://www.w3.org/2000/svg" id="svg2" version="1.1" width="248.75" height="197.89821" viewBox="0.0 5.0230707364824125e-3 587.0 466.9999970653267" preserveAspectRatio="none">
  <metadata id="metadata76">
    <rdf:RDF>
      <cc:Work rdf:about="">
        <dc:format>image/svg+xml</dc:format>
        <dc:type rdf:resource="http://purl.org/dc/dcmitype/StillImage" />
        <dc:title />
      </cc:Work>
    </rdf:RDF>
  </metadata>
  <defs id="defs74" />
  <g id="g6" stroke-miterlimit="10.000" stroke-dashoffset="0.0000" stroke-dasharray="none" stroke-linejoin="miter" stroke-linecap="square" stroke-width="1.0000">
    <clipPath id="clip1">
      <path id="path9" d="M 0.0000 0.0000 L 0.0000 467.00 L 587.00 467.00 L 587.00 0.0000 z" />
    </clipPath>
    <g id="g11" clip-path="url(#clip1)">
      <g id="g13" stroke-opacity="1.0000" stroke-linecap="butt" stroke-width="2.0000" stroke="#000000" fill="none">
        <path id="path15" d="M 296.41 3.0000 L 296.41 467.00" />
      </g>
    </g>
    <clipPath id="clip2">
      <path id="path18" d="M 0.0000 0.0000 L 0.0000 467.00 L 587.00 467.00 L 587.00 0.0000 z" />
    </clipPath>
    <g id="g20" clip-path="url(#clip2)">
      <g id="g22" stroke="none" fill-rule="evenodd" fill-opacity="1.0000" fill="#000000">
        <path id="path24" d="M 296.41 2.0000 L 291.41 22.000 L 301.41 22.000" />
      </g>
    </g>
    <clipPath id="clip3">
      <path id="path27" d="M 0.0000 0.0000 L 0.0000 467.00 L 587.00 467.00 L 587.00 0.0000 z" />
    </clipPath>
    <g id="g29" clip-path="url(#clip3)">
      <g id="g31" stroke-opacity="1.0000" stroke-linecap="butt" stroke-width="2.0000" stroke="#000000" fill="none">
        <path id="path33" d="M 0.0000 238.25 L 584.00 238.25" />
      </g>
    </g>
    <clipPath id="clip4">
      <path id="path36" d="M 0.0000 0.0000 L 0.0000 467.00 L 587.00 467.00 L 587.00 0.0000 z" />
    </clipPath>
    <g id="g38" clip-path="url(#clip4)">
      <g id="g40" stroke="none" fill-rule="evenodd" fill-opacity="1.0000" fill="#000000">
        <path id="path42" d="M 585.00 238.25 L 565.00 233.25 L 565.00 243.25" />
      </g>
    </g>
    <g id="misc" />
    <g id="layer0">
      <clipPath id="clip5">
        <path id="path47" d="M 0.0000 0.0000 L 0.0000 467.00 L 587.00 467.00 L 587.00 0.0000 z" />
      </clipPath>
      <g id="g49" clip-path="url(#clip5)">
        <g id="g51" stroke-opacity="1.0000" stroke-linejoin="round" stroke-linecap="round" stroke-width="2.5000" stroke="#2b83ba" fill="none">
          <path id="path53" d="M 139.87 476.25 L 141.02 471.06 L 142.16 465.94 L 143.31 460.90 L 144.46 455.94 L 146.75 446.23 L 149.04 436.82 L 151.34 427.69 L 153.63 418.85 L 155.92 410.29 L 158.21 402.00 L 160.51 393.98 L 162.80 386.23 L 165.09 378.75 L 167.39 371.51 L 169.68 364.53 L 171.97 357.80 L 174.27 351.32 L 176.56 345.07 L 178.85 339.05 L 181.14 333.27 L 183.44 327.71 L 185.73 322.37 L 188.02 317.25 L 192.61 307.64 L 197.20 298.85 L 201.78 290.83 L 206.37 283.55 L 210.95 276.97 L 215.54 271.07 L 220.12 265.79 L 224.71 261.12 L 229.30 257.01 L 233.88 253.42 L 238.47 250.32 L 243.05 247.67 L 247.64 245.45 L 252.23 243.60 L 256.81 242.10 L 261.40 240.91 L 265.98 240.00 L 270.57 239.32 L 275.16 238.85 L 279.74 238.54 L 284.33 238.36 L 288.91 238.28 L 293.50 238.25 L 298.09 238.25 L 302.67 238.24 L 307.26 238.17 L 311.84 238.02 L 316.43 237.75 L 321.02 237.33 L 325.60 236.71 L 330.19 235.86 L 334.77 234.75 L 339.36 233.34 L 343.95 231.59 L 348.53 229.47 L 353.12 226.94 L 357.70 223.96 L 362.29 220.51 L 366.88 216.54 L 371.46 212.02 L 376.05 206.92 L 380.63 201.19 L 385.22 194.79 L 389.80 187.71 L 394.39 179.89 L 398.98 171.31 L 403.56 161.92 L 405.86 156.92 L 408.15 151.70 L 410.44 146.26 L 412.73 140.60 L 415.03 134.71 L 417.32 128.58 L 419.61 122.23 L 421.91 115.63 L 424.20 108.78 L 426.49 101.69 L 428.79 94.336 L 431.08 86.727 L 433.37 78.855 L 435.66 70.714 L 437.96 62.301 L 440.25 53.611 L 442.54 44.639 L 444.84 35.381 L 447.13 25.833 L 449.42 15.990 L 450.57 10.956 L 451.71 5.8474 L 452.86 .66241 L 454.01 -4.5992 L 455.15 -9.9379" />
          <title id="title55">Function f</title>
          <desc id="desc57">f(x) = xÃ&#131;Â&#130;Ã&#130;Â³</desc>
        </g>
      </g>
      <clipPath id="clip6">
        <path id="path60" d="M 0.0000 0.0000 L 0.0000 467.00 L 587.00 467.00 L 587.00 0.0000 z" />
      </clipPath>
      <g id="g62" clip-path="url(#clip6)">
        <g id="g64" stroke-opacity="1.0000" stroke-linejoin="round" stroke-linecap="round" stroke-width="2.5000" stroke="#d7191c" fill="none">
          <path id="path66" d="M 0.0000 406.67 L 4.5859 405.80 L 9.1719 404.92 L 13.758 404.03 L 18.344 403.12 L 22.930 402.21 L 27.516 401.29 L 32.102 400.36 L 36.688 399.42 L 41.273 398.46 L 45.859 397.50 L 50.445 396.52 L 55.031 395.53 L 59.617 394.53 L 64.203 393.51 L 68.789 392.48 L 73.375 391.44 L 77.961 390.38 L 82.547 389.31 L 87.133 388.22 L 91.719 387.12 L 96.305 386.00 L 100.89 384.86 L 105.48 383.71 L 110.06 382.53 L 114.65 381.34 L 119.23 380.12 L 123.82 378.89 L 128.41 377.63 L 132.99 376.35 L 137.58 375.05 L 142.16 373.72 L 146.75 372.36 L 151.34 370.98 L 155.92 369.57 L 160.51 368.12 L 165.09 366.64 L 169.68 365.13 L 174.27 363.58 L 178.85 361.99 L 183.44 360.36 L 188.02 358.69 L 192.61 356.96 L 197.20 355.19 L 201.78 353.36 L 206.37 351.47 L 210.95 349.51 L 215.54 347.49 L 220.12 345.38 L 224.71 343.19 L 229.30 340.90 L 233.88 338.51 L 238.47 336.00 L 243.05 333.35 L 247.64 330.54 L 252.23 327.55 L 256.81 324.35 L 261.40 320.89 L 265.98 317.11 L 270.57 312.93 L 275.16 308.22 L 279.74 302.78 L 284.33 296.21 L 288.91 287.69 L 291.21 282.02 L 293.50 274.32 L 294.65 268.77 L 295.79 259.77 L 296.08 255.73 L 296.37 247.22 L 296.40 243.50 L 296.41 239.00 L 296.42 233.01 L 296.44 230.69 L 296.51 226.58 L 296.65 222.51 L 296.94 217.83 L 298.09 208.25 L 300.38 198.26 L 302.67 191.69 L 307.26 182.33 L 311.84 175.36 L 316.43 169.66 L 321.02 164.78 L 325.60 160.47 L 330.19 156.60 L 334.77 153.06 L 339.36 149.79 L 343.95 146.75 L 348.53 143.89 L 353.12 141.20 L 357.70 138.66 L 362.29 136.23 L 366.88 133.92 L 371.46 131.70 L 376.05 129.57 L 380.63 127.53 L 385.22 125.55 L 389.80 123.64 L 394.39 121.80 L 398.98 120.01 L 403.56 118.27 L 408.15 116.58 L 412.73 114.94 L 417.32 113.34 L 421.91 111.78 L 426.49 110.26 L 431.08 108.77 L 435.66 107.32 L 440.25 105.90 L 444.84 104.51 L 449.42 103.14 L 454.01 101.81 L 458.59 100.50 L 463.18 99.211 L 467.77 97.948 L 472.35 96.707 L 476.94 95.488 L 481.52 94.289 L 486.11 93.110 L 490.70 91.949 L 495.28 90.807 L 499.87 89.683 L 504.45 88.575 L 509.04 87.483 L 513.62 86.407 L 518.21 85.345 L 522.80 84.299 L 527.38 83.266 L 531.97 82.247 L 536.55 81.241 L 541.14 80.248 L 545.73 79.267 L 550.31 78.298 L 554.90 77.341 L 559.48 76.395 L 564.07 75.460 L 568.66 74.536 L 573.24 73.621 L 577.83 72.717 L 582.41 71.823 L 587.00 70.938" />
          <title id="title68">Function g</title>
          <desc id="desc70">g(x) = x^(1 / 3)</desc>
        </g>
      </g>
    </g>
  </g>
  <path style="font-style:normal;font-variant:normal;font-weight:normal;font-stretch:normal;letter-spacing:normal;word-spacing:normal;text-anchor:start;fill:#000000;fill-opacity:1;fill-rule:evenodd;stroke:#000000;stroke-width:0;stroke-linecap:butt;stroke-linejoin:miter;stroke-miterlimit:10.43299961;stroke-dasharray:none;stroke-dashoffset:0;stroke-opacity:1" d="m 562.56884,255.96872 -0.69,-1.92 c -0.45,-1.2 -1.11,-2.64 -2.67,-3.48 l -4.68,1.17 0.09,0.63 c 0.36,-0.15 0.9,-0.21 1.35,-0.21 1.95,0 2.88,1.44 3.48,3.15 l 1.17,3.27 -2.31,3.57 c -1.14,1.74 -2.04,2.07 -2.49,2.07 -0.87,0 -0.75,-0.69 -1.65,-0.69 -0.9,0 -1.35,0.75 -1.35,1.32 0,0.75 0.57,1.65 1.83,1.65 2.01,0 3.03,-1.53 4.17,-3.27 l 2.25,-3.45 1.41,3.99 c 0.45,1.29 1.14,2.73 2.58,2.73 2.07,0 3.66,-3.39 4.11,-3.93 l -0.51,-0.36 c -0.75,1.53 -1.59,2.01 -2.16,2.01 -1.62,0 -2.43,-4.77 -3.48,-6.96 l 1.95,-3 c 0.48,-0.78 0.87,-1.35 1.95,-1.35 0.6,0 0.78,0.3 1.56,0.3 0.93,0 1.38,-0.81 1.38,-1.47 0,-0.75 -0.6,-1.17 -1.74,-1.17 -1.77,0 -3.03,1.56 -3.93,2.97 z" id="path3447" />
  <path style="font-style:normal;font-variant:normal;font-weight:normal;font-stretch:normal;letter-spacing:normal;word-spacing:normal;text-anchor:start;fill:#000000;fill-opacity:1;fill-rule:evenodd;stroke:#000000;stroke-width:0;stroke-linecap:butt;stroke-linejoin:miter;stroke-miterlimit:10.43299961;stroke-dasharray:none;stroke-dashoffset:0;stroke-opacity:1" d="m 277.9762,13.844201 -0.03,-0.24 -0.03,-0.24 -0.03,-0.21 -0.03,-0.21 -0.03,-0.21 -0.03,-0.21 -0.03,-0.18 -0.03,-0.18 -0.03,-0.18 -0.03,-0.15 -0.03,-0.18 -0.03,-0.15 -0.03,-0.15 -0.03,-0.15 -0.06,-0.12 -0.03,-0.15 -0.03,-0.12 -0.06,-0.12 -0.03,-0.12 -0.03,-0.12 -0.12,-0.24 -0.09,-0.21 -0.12,-0.2399998 -0.12,-0.21 -0.12,-0.21 -0.15,-0.21 -5.34,0.8699998 0.06,0.57 c 0.33,-0.03 0.9,-0.12 1.28999,-0.12 1.98001,0 2.31,2.13 2.49,3.72 l 1.35001,11.1 c -0.93,1.41 -2.94001,3.63 -3.54,3.63 -0.57,0 -0.51,-1.11 -2.04,-1.11 -0.45,0 -1.41,0.39 -1.41,1.47 0,0.84 0.66,1.92 1.98,1.92 2.4,0 4.71,-3.45 7.32,-6.72 1.5,-1.86 7.26,-10.38 7.26,-13.14 0,-1.3799998 -0.9,-2.1899998 -2.04,-2.1899998 -1.02,0 -1.68,0.63 -1.68,1.4099998 0,1.35 1.86,1.71 1.86,2.46 0,0.63 -0.27,1.35 -0.99,2.64 -0.78,1.47 -2.04,3.57 -4.2,6.51 z" id="path3449" />
  <g transform="matrix(2,0,0,2,395.03705,-700.53893)" id="g3732">
    <path id="path3619" d="m 39.945,403.71 -0.015,-0.12 -0.015,-0.12 -0.015,-0.105 -0.015,-0.105 -0.015,-0.105 -0.015,-0.105 -0.015,-0.09 -0.015,-0.09 -0.015,-0.09 -0.015,-0.075 -0.015,-0.09 -0.015,-0.075 -0.015,-0.075 -0.015,-0.06 -0.03,-0.075 -0.015,-0.075 -0.015,-0.06 -0.03,-0.06 -0.015,-0.06 -0.015,-0.06 -0.06,-0.12 -0.045,-0.105 -0.06,-0.12 -0.06,-0.105 -0.06,-0.105 -0.075,-0.105 -2.67,0.45 0.03,0.27 c 0.165,-0.015 0.45,-0.06 0.645,-0.06 1.005,0 1.155,1.065 1.245,1.86 l 0.675,5.55 c -0.465,0.72 -1.47,1.815 -1.77,1.815 -0.285,0 -0.255,-0.555 -1.02,-0.555 -0.225,0 -0.705,0.195 -0.705,0.735 0,0.42 0.33,0.96 0.99,0.96 1.215,0 2.37,-1.725 3.66,-3.36 0.75,-0.93 3.63,-5.19 3.63,-6.57 0,-0.69 -0.45,-1.095 -1.02,-1.095 -0.51,0 -0.84,0.315 -0.84,0.705 0,0.675 0.93,0.855 0.93,1.23 0,0.315 -0.135,0.675 -0.495,1.32 -0.39,0.735 -1.02,1.785 -2.1,3.27 z" style="font-style:normal;font-variant:normal;font-weight:normal;font-stretch:normal;letter-spacing:normal;word-spacing:normal;text-anchor:start;fill:#000000;fill-opacity:1;fill-rule:evenodd;stroke:#000000;stroke-width:0;stroke-linecap:butt;stroke-linejoin:miter;stroke-miterlimit:10.43299961;stroke-dasharray:none;stroke-dashoffset:0;stroke-opacity:1" />
    <polygon transform="matrix(1.5,0,0,-1.5,-300,1125)" id="polygon3621" points="239.61,481.01 239.61,481.79 232.64,481.79 232.64,481.01 " style="font-style:normal;font-variant:normal;font-weight:normal;font-stretch:normal;letter-spacing:normal;word-spacing:normal;text-anchor:start;fill:#000000;fill-opacity:1;fill-rule:evenodd;stroke:#000000;stroke-width:0;stroke-linecap:butt;stroke-linejoin:miter;stroke-miterlimit:10.43299961;stroke-dasharray:none;stroke-dashoffset:0;stroke-opacity:1" />
    <polygon transform="matrix(1.5,0,0,-1.5,-300,1125)" id="polygon3623" points="239.61,478.65 239.61,479.43 232.64,479.43 232.64,478.65 " style="font-style:normal;font-variant:normal;font-weight:normal;font-stretch:normal;letter-spacing:normal;word-spacing:normal;text-anchor:start;fill:#000000;fill-opacity:1;fill-rule:evenodd;stroke:#000000;stroke-width:0;stroke-linecap:butt;stroke-linejoin:miter;stroke-miterlimit:10.43299961;stroke-dasharray:none;stroke-dashoffset:0;stroke-opacity:1" />
    <path id="path3625" d="m 68.85,401.415 -0.165,0.66 1.365,0 -1.545,6.06 c -0.27,1.02 -0.795,3.81 -1.95,3.81 -0.165,0 -0.27,-0.045 -0.27,-0.165 0,-0.21 0.285,-0.225 0.285,-0.555 0,-0.27 -0.18,-0.585 -0.66,-0.585 -0.51,0 -0.765,0.435 -0.765,0.855 0,0.54 0.435,0.96 1.275,0.96 1.575,0 2.535,-1.68 3.12,-3.15 0.255,-0.66 0.405,-1.32 0.525,-1.8 l 1.41,-5.43 1.35,0 0.21,-0.66 -1.425,0 0.345,-1.245 c 0.375,-1.38 1.065,-2.34 1.95,-2.34 0.21,0 0.27,0.06 0.27,0.15 0,0.135 -0.165,0.405 -0.165,0.645 0,0.255 0.12,0.45 0.63,0.45 0.345,0 0.72,-0.21 0.72,-0.705 0,-0.63 -0.51,-1.05 -1.395,-1.05 -1.35,0 -2.115,0.765 -2.67,1.59 -0.765,1.14 -0.675,2.505 -1.8,2.505 z" style="font-style:normal;font-variant:normal;font-weight:normal;font-stretch:normal;letter-spacing:normal;word-spacing:normal;text-anchor:start;fill:#000000;fill-opacity:1;fill-rule:evenodd;stroke:#000000;stroke-width:0;stroke-linecap:butt;stroke-linejoin:miter;stroke-miterlimit:10.43299961;stroke-dasharray:none;stroke-dashoffset:0;stroke-opacity:1" />
    <path id="path3627" d="m 79.695,412.005 -0.225,-0.195 -0.21,-0.195 -0.21,-0.195 -0.195,-0.195 -0.18,-0.195 -0.18,-0.195 -0.165,-0.195 -0.15,-0.21 -0.15,-0.195 -0.135,-0.195 -0.12,-0.21 -0.12,-0.21 -0.12,-0.21 -0.09,-0.21 -0.105,-0.21 -0.075,-0.21 -0.09,-0.225 -0.075,-0.225 -0.06,-0.24 -0.06,-0.225 -0.06,-0.24 -0.045,-0.24 -0.03,-0.255 -0.045,-0.255 -0.03,-0.255 -0.03,-0.27 -0.015,-0.27 -0.015,-0.27 -0.015,-0.285 -0.015,-0.285 0,-0.3 0,-0.315 c 0,-3.405 0.555,-5.055 3.015,-7.17 l -0.15,-0.285 c -2.85,1.695 -4.395,4.245 -4.395,7.515 0,3.015 1.53,6 4.335,7.605 z" style="font-style:normal;font-variant:normal;font-weight:normal;font-stretch:normal;letter-spacing:normal;word-spacing:normal;text-anchor:start;fill:#000000;fill-opacity:1;fill-rule:evenodd;stroke:#000000;stroke-width:0;stroke-linecap:butt;stroke-linejoin:miter;stroke-miterlimit:10.43299961;stroke-dasharray:none;stroke-dashoffset:0;stroke-opacity:1" />
    <path id="path3629" d="m 85.635,404.04 -0.36,-0.96 c -0.21,-0.585 -0.54,-1.32 -1.32,-1.74 l -2.355,0.585 0.06,0.315 c 0.18,-0.075 0.435,-0.105 0.675,-0.105 0.975,0 1.44,0.72 1.74,1.575 l 0.585,1.635 -1.155,1.785 c -0.57,0.87 -1.035,1.05 -1.245,1.05 -0.45,0 -0.375,-0.36 -0.84,-0.36 -0.435,0 -0.675,0.375 -0.675,0.66 0,0.39 0.285,0.825 0.93,0.825 0.99,0 1.515,-0.765 2.085,-1.62 l 1.11,-1.74 0.705,1.995 c 0.24,0.645 0.57,1.365 1.305,1.365 1.035,0 1.83,-1.695 2.04,-1.965 l -0.24,-0.18 c -0.375,0.765 -0.81,1.02 -1.095,1.02 -0.795,0 -1.2,-2.4 -1.74,-3.495 l 0.975,-1.5 c 0.255,-0.39 0.45,-0.675 0.99,-0.675 0.3,0 0.39,0.15 0.78,0.15 0.45,0 0.69,-0.405 0.69,-0.735 0,-0.375 -0.3,-0.585 -0.87,-0.585 -0.885,0 -1.515,0.78 -1.98,1.485 z" style="font-style:normal;font-variant:normal;font-weight:normal;font-stretch:normal;letter-spacing:normal;word-spacing:normal;text-anchor:start;fill:#000000;fill-opacity:1;fill-rule:evenodd;stroke:#000000;stroke-width:0;stroke-linecap:butt;stroke-linejoin:miter;stroke-miterlimit:10.43299961;stroke-dasharray:none;stroke-dashoffset:0;stroke-opacity:1" />
    <path id="path3631" d="m 90.51,397.455 0.225,0.195 0.225,0.195 0.21,0.18 0.21,0.195 0.18,0.195 0.18,0.195 0.165,0.195 0.165,0.195 0.15,0.195 0.135,0.195 0.12,0.21 0.12,0.21 0.105,0.21 0.105,0.21 0.09,0.21 0.09,0.225 0.075,0.21 0.075,0.225 0.06,0.24 0.06,0.24 0.045,0.225 0.045,0.255 0.045,0.24 0.03,0.255 0.03,0.27 0.015,0.27 0.03,0.27 0.015,0.27 0,0.285 0.015,0.3 0,0.3 0,0.3 c 0,3.435 -0.495,5.115 -3.015,7.185 l 0.165,0.285 c 2.82,-1.725 4.38,-4.245 4.38,-7.515 0,-3.015 -1.62,-5.97 -4.335,-7.605 z" style="font-style:normal;font-variant:normal;font-weight:normal;font-stretch:normal;letter-spacing:normal;word-spacing:normal;text-anchor:start;fill:#000000;fill-opacity:1;fill-rule:evenodd;stroke:#000000;stroke-width:0;stroke-linecap:butt;stroke-linejoin:miter;stroke-miterlimit:10.43299961;stroke-dasharray:none;stroke-dashoffset:0;stroke-opacity:1" />
  </g>
  <g transform="matrix(2,0,0,2,255.91681,-791.37667)" id="g3741">
    <path id="path3633" d="m 104.58,403.71 -0.015,-0.12 -0.015,-0.12 -0.015,-0.105 -0.015,-0.105 -0.015,-0.105 -0.015,-0.105 -0.015,-0.09 -0.015,-0.09 -0.015,-0.09 -0.015,-0.075 -0.015,-0.09 -0.015,-0.075 -0.015,-0.075 -0.015,-0.06 -0.03,-0.075 -0.015,-0.075 -0.015,-0.06 -0.015,-0.06 -0.03,-0.06 -0.015,-0.06 -0.045,-0.12 -0.06,-0.105 -0.06,-0.12 -0.06,-0.105 -0.06,-0.105 -0.075,-0.105 -2.67,0.45 0.045,0.27 c 0.15,-0.015 0.435,-0.06 0.63,-0.06 1.005,0 1.155,1.065 1.245,1.86 l 0.675,5.55 c -0.465,0.72 -1.47,1.815 -1.77,1.815 -0.285,0 -0.255,-0.555 -1.02,-0.555 -0.225,0 -0.705,0.195 -0.705,0.735 0,0.42 0.33,0.96 0.99,0.96 1.215,0 2.37,-1.725 3.66,-3.36 0.75,-0.93 3.63,-5.19 3.63,-6.57 0,-0.69 -0.45,-1.095 -1.02,-1.095 -0.51,0 -0.825,0.315 -0.825,0.705 0,0.675 0.915,0.855 0.915,1.23 0,0.315 -0.135,0.675 -0.495,1.32 -0.39,0.735 -1.02,1.785 -2.1,3.27 z" style="font-style:normal;font-variant:normal;font-weight:normal;font-stretch:normal;letter-spacing:normal;word-spacing:normal;text-anchor:start;fill:#000000;fill-opacity:1;fill-rule:evenodd;stroke:#000000;stroke-width:0;stroke-linecap:butt;stroke-linejoin:miter;stroke-miterlimit:10.43299961;stroke-dasharray:none;stroke-dashoffset:0;stroke-opacity:1" />
    <polygon transform="matrix(1.5,0,0,-1.5,-300,1125)" id="polygon3635" points="282.72,481.01 282.72,481.79 275.74,481.79 275.74,481.01 " style="font-style:normal;font-variant:normal;font-weight:normal;font-stretch:normal;letter-spacing:normal;word-spacing:normal;text-anchor:start;fill:#000000;fill-opacity:1;fill-rule:evenodd;stroke:#000000;stroke-width:0;stroke-linecap:butt;stroke-linejoin:miter;stroke-miterlimit:10.43299961;stroke-dasharray:none;stroke-dashoffset:0;stroke-opacity:1" />
    <polygon transform="matrix(1.5,0,0,-1.5,-300,1125)" id="polygon3637" points="282.72,478.65 282.72,479.43 275.74,479.43 275.74,478.65 " style="font-style:normal;font-variant:normal;font-weight:normal;font-stretch:normal;letter-spacing:normal;word-spacing:normal;text-anchor:start;fill:#000000;fill-opacity:1;fill-rule:evenodd;stroke:#000000;stroke-width:0;stroke-linecap:butt;stroke-linejoin:miter;stroke-miterlimit:10.43299961;stroke-dasharray:none;stroke-dashoffset:0;stroke-opacity:1" />
    <path id="path3639" d="m 137.82,401.835 -2.25,0 c -0.255,-0.27 -0.81,-0.495 -1.56,-0.495 l 0.075,0.525 c 0.78,0 0.96,0.45 0.96,1.095 l 0,0 c 0,1.005 -0.45,2.805 -1.71,2.805 -0.78,0 -0.99,-0.615 -0.99,-1.44 0,-1.2 0.78,-2.46 1.74,-2.46 l -0.075,-0.525 c -1.875,0 -3.09,1.395 -3.09,2.79 0,0.84 0.48,1.665 1.665,1.935 l 0,0.075 c -0.84,0 -1.5,0.87 -1.5,1.545 0,0.3 0.12,0.63 0.42,0.825 l 0.36,0.18 c 1.065,0.39 3.405,0.3 3.405,1.68 l 0,0 c 0,0.78 -0.63,1.59 -2.25,1.59 -1.695,0 -2.475,-0.885 -2.475,-1.71 0,-0.48 0.39,-0.945 0.855,-1.275 0.15,-0.105 0.315,-0.195 0.465,-0.285 l -0.36,-0.18 c -1.095,0.36 -2.07,0.885 -2.07,1.905 0,1.035 0.885,2.04 3.255,2.04 2.655,0 3.825,-1.41 3.825,-2.67 0,-2.22 -4.14,-1.5 -4.14,-2.625 0,-0.435 0.525,-0.885 1.56,-1.02 1.575,-0.195 2.505,-1.29 2.505,-2.625 0,-0.39 -0.06,-0.615 -0.3,-0.885 l 1.44,0 z" style="font-style:normal;font-variant:normal;font-weight:normal;font-stretch:normal;letter-spacing:normal;word-spacing:normal;text-anchor:start;fill:#000000;fill-opacity:1;fill-rule:evenodd;stroke:#000000;stroke-width:0;stroke-linecap:butt;stroke-linejoin:miter;stroke-miterlimit:10.43299961;stroke-dasharray:none;stroke-dashoffset:0;stroke-opacity:1" />
    <path id="path3641" d="m 143.22,412.005 -0.225,-0.195 -0.225,-0.195 -0.195,-0.195 -0.195,-0.195 -0.195,-0.195 -0.165,-0.195 -0.165,-0.195 -0.165,-0.21 -0.135,-0.195 -0.135,-0.195 -0.135,-0.21 -0.12,-0.21 -0.105,-0.21 -0.105,-0.21 -0.09,-0.21 -0.09,-0.21 -0.075,-0.225 -0.075,-0.225 -0.075,-0.24 -0.06,-0.225 -0.045,-0.24 -0.045,-0.24 -0.045,-0.255 -0.03,-0.255 -0.03,-0.255 -0.03,-0.27 -0.03,-0.27 -0.015,-0.27 0,-0.285 -0.015,-0.285 0,-0.3 -0.015,-0.315 c 0,-3.405 0.555,-5.055 3.03,-7.17 l -0.165,-0.285 c -2.835,1.695 -4.38,4.245 -4.38,7.515 0,3.015 1.515,6 4.335,7.605 z" style="font-style:normal;font-variant:normal;font-weight:normal;font-stretch:normal;letter-spacing:normal;word-spacing:normal;text-anchor:start;fill:#000000;fill-opacity:1;fill-rule:evenodd;stroke:#000000;stroke-width:0;stroke-linecap:butt;stroke-linejoin:miter;stroke-miterlimit:10.43299961;stroke-dasharray:none;stroke-dashoffset:0;stroke-opacity:1" />
    <path id="path3643" d="m 149.145,404.04 -0.345,-0.96 c -0.21,-0.585 -0.555,-1.32 -1.335,-1.74 l -2.34,0.585 0.045,0.315 c 0.18,-0.075 0.45,-0.105 0.675,-0.105 0.975,0 1.44,0.72 1.74,1.575 l 0.585,1.635 -1.155,1.785 c -0.555,0.87 -1.02,1.05 -1.245,1.05 -0.435,0 -0.36,-0.36 -0.825,-0.36 -0.45,0 -0.675,0.375 -0.675,0.66 0,0.39 0.285,0.825 0.915,0.825 1.005,0 1.515,-0.765 2.085,-1.62 l 1.125,-1.74 0.705,1.995 c 0.225,0.645 0.57,1.365 1.305,1.365 1.02,0 1.815,-1.695 2.04,-1.965 l -0.255,-0.18 c -0.375,0.765 -0.795,1.02 -1.08,1.02 -0.81,0 -1.215,-2.4 -1.74,-3.495 l 0.975,-1.5 c 0.24,-0.39 0.435,-0.675 0.975,-0.675 0.3,0 0.39,0.15 0.78,0.15 0.465,0 0.69,-0.405 0.69,-0.735 0,-0.375 -0.3,-0.585 -0.87,-0.585 -0.885,0 -1.5,0.78 -1.965,1.485 z" style="font-style:normal;font-variant:normal;font-weight:normal;font-stretch:normal;letter-spacing:normal;word-spacing:normal;text-anchor:start;fill:#000000;fill-opacity:1;fill-rule:evenodd;stroke:#000000;stroke-width:0;stroke-linecap:butt;stroke-linejoin:miter;stroke-miterlimit:10.43299961;stroke-dasharray:none;stroke-dashoffset:0;stroke-opacity:1" />
    <path id="path3645" d="m 154.02,397.455 0.24,0.195 0.225,0.195 0.21,0.18 0.195,0.195 0.195,0.195 0.18,0.195 0.165,0.195 0.15,0.195 0.15,0.195 0.135,0.195 0.135,0.21 0.105,0.21 0.12,0.21 0.09,0.21 0.105,0.21 0.075,0.225 0.09,0.21 0.06,0.225 0.06,0.24 0.06,0.24 0.06,0.225 0.03,0.255 0.045,0.24 0.03,0.255 0.03,0.27 0.03,0.27 0.015,0.27 0.015,0.27 0.015,0.285 0,0.3 0.015,0.3 0,0.3 c 0,3.435 -0.51,5.115 -3.03,7.185 l 0.165,0.285 c 2.82,-1.725 4.38,-4.245 4.38,-7.515 0,-3.015 -1.605,-5.97 -4.32,-7.605 z" style="font-style:normal;font-variant:normal;font-weight:normal;font-stretch:normal;letter-spacing:normal;word-spacing:normal;text-anchor:start;fill:#000000;fill-opacity:1;fill-rule:evenodd;stroke:#000000;stroke-width:0;stroke-linecap:butt;stroke-linejoin:miter;stroke-miterlimit:10.43299961;stroke-dasharray:none;stroke-dashoffset:0;stroke-opacity:1" />
  </g>
</svg>