<?xml version='1.0' ?><svg xmlns:ns0="http://www.iki.fi/pav/software/textext/" xmlns:dc="http://purl.org/dc/elements/1.1/" xmlns:cc="http://creativecommons.org/ns#" xmlns:rdf="http://www.w3.org/1999/02/22-rdf-syntax-ns#" xmlns:svg="http://www.w3.org/2000/svg" xmlns="http://www.w3.org/2000/svg" id="svg2" version="1.1" width="390.2028" height="319.76079" viewBox="0.0 852.2051425815814 453.7696886882788 371.85216029464186" preserveAspectRatio="none">
  <metadata id="metadata115">
    <rdf:RDF>
      <cc:Work rdf:about="">
        <dc:format>image/svg+xml</dc:format>
        <dc:type rdf:resource="http://purl.org/dc/dcmitype/StillImage" />
        <dc:title />
      </cc:Work>
    </rdf:RDF>
  </metadata>
  <defs id="defs113" />
  <g transform="matrix(0.77496706,0,0,0.77496706,0,856.35549)" style="stroke-width:1;stroke-linecap:square;stroke-linejoin:miter;stroke-miterlimit:10;stroke-dasharray:none;stroke-dashoffset:0" id="g6" stroke-miterlimit="10.000">
    <clipPath id="clip1">
      <path id="path9" d="m 0,0 0,473 580,0 0,-473 z" />
    </clipPath>
    <g id="g11" clip-path="url(#clip1)">
      <g style="fill:none;stroke:#000000;stroke-width:2.58075476;stroke-linecap:butt;stroke-opacity:1" id="g13">
        <path style="stroke-width:2.58075476" id="path15" d="m 154.77,3 0,470" />
      </g>
      
    </g>
    
    <clipPath id="clip2">
      <path id="path18" d="m 0,0 0,473 580,0 0,-473 z" />
    </clipPath>
    <g transform="matrix(1.8757367,0,0,1.8757367,-135.27365,-10.581111)" id="g20" clip-path="url(#clip2)">
      <g style="fill:#000000;fill-opacity:1;fill-rule:evenodd;stroke:none" id="g22">
        <path id="path24" d="m 154.77,2 -4,16 8,0" />
      </g>
      
    </g>
    
    <clipPath id="clip3">
      <path id="path27" d="m 0,0 0,473 580,0 0,-473 z" />
    </clipPath>
    <g id="g29" clip-path="url(#clip3)">
      <g style="fill:none;stroke:#000000;stroke-width:2.58075476;stroke-linecap:butt;stroke-opacity:1" id="g31">
        <path style="stroke-width:2.58075476" id="path33" d="m 0,324.33 577,0" />
      </g>
      
    </g>
    
    <clipPath id="clip4">
      <path id="path36" d="m 0,0 0,473 580,0 0,-473 z" />
    </clipPath>
    <g transform="matrix(1.8757367,0,0,1.8757367,-498.64166,-284.29176)" id="g38" clip-path="url(#clip4)">
      <g style="fill:#000000;fill-opacity:1;fill-rule:evenodd;stroke:none" id="g40">
        <path id="path42" d="m 578,324.33 -16,-4 0,8" />
      </g>
      
    </g>
    
    <g id="misc" />
    
    <g id="layer0">
      <clipPath id="clip5">
        <path id="path47" d="m 0,0 0,473 580,0 0,-473 z" />
      </clipPath>
      <g id="g49" clip-path="url(#clip5)">
        <g style="fill:#993300;fill-opacity:0.09803898;fill-rule:evenodd;stroke:none" id="g51">
          <path id="path53" d="m 154.77,324.33 0,-212.96 2.08,1.67 2.08,1.66 2.08,1.66 2.08,1.67 2.08,1.66 2.08,1.66 2.08,1.67 2.08,1.66 2.08,1.67 2.08,1.66 2.08,1.66 2.08,1.67 2.08,1.66 2.08,1.66 2.08,1.67 2.08,1.66 2.08,1.67 2.08,1.66 2.08,1.66 2.08,1.67 2.08,1.66 2.08,1.66 2.07,1.67 2.08,1.66 2.08,1.67 2.08,1.66 2.08,1.66 2.08,1.67 2.08,1.66 2.08,1.66 2.08,1.67 2.08,1.66 2.08,1.67 2.08,1.66 2.08,1.66 2.08,1.67 2.08,1.66 2.08,1.66 2.08,1.67 2.08,1.66 2.08,1.67 2.08,1.66 2.08,1.66 2.08,1.67 2.08,1.66 2.08,1.66 2.08,1.67 2.08,1.66 2.08,1.67 2.08,1.66 2.08,1.66 2.08,1.67 2.08,1.66 2.08,1.66 2.07,1.67 2.08,1.66 2.08,1.67 2.08,1.66 2.08,1.66 2.08,1.67 2.08,1.66 2.08,1.66 2.08,1.67 2.08,1.66 2.08,1.67 2.08,1.66 2.08,1.66 2.08,1.67 2.08,1.66 2.08,1.66 2.08,1.67 2.08,1.66 2.08,1.67 2.08,1.66 2.08,1.66 2.08,1.67 2.08,1.66 2.08,1.66 2.08,1.67 2.08,1.66 2.08,1.67 2.08,1.66 2.08,1.66 2.08,1.67 2.08,1.66 2.08,1.66 2.07,1.67 2.08,1.66 2.08,1.67 2.08,1.66 2.08,1.66 2.08,1.67 2.08,1.66 2.08,1.66 2.08,1.67 2.08,1.66 2.08,1.67 2.08,1.66 2.08,1.66 2.08,1.67 2.08,1.66 2.08,1.66 2.08,1.67 2.08,1.66 2.08,1.67 2.08,1.66 2.08,1.66 2.08,1.67 2.08,1.66 2.08,1.66 2.08,1.67 2.08,1.66 2.08,1.67 2.08,1.66 2.08,1.66 2.08,1.67 2.08,1.66 2.08,1.66 2.07,1.67 2.08,1.66 2.08,1.67 2.08,1.66 2.08,1.66 2.08,1.67 2.08,1.66 2.08,1.66 2.08,1.67 2.08,1.66 -266.2,0" />
          <title id="title55">Number a</title>
          <desc id="desc57">Number a: Integral of -(x(g) / y(g)) x - z(g) / y(g) from 0 to 4</desc>
        </g>
        
      </g>
      
      <clipPath id="clip6">
        <path id="path60" d="m 0,0 0,473 580,0 0,-473 z" />
      </clipPath>
      <g id="g62" clip-path="url(#clip6)">
        <g style="fill:none;stroke:#993300;stroke-width:1.29037738;stroke-linecap:round;stroke-linejoin:round;stroke-opacity:1" id="g64">
          <path style="stroke-width:1.29037738" id="path66" d="m 154.77,324.33 0,-212.96 2.08,1.67 2.08,1.66 2.08,1.66 2.08,1.67 2.08,1.66 2.08,1.66 2.08,1.67 2.08,1.66 2.08,1.67 2.08,1.66 2.08,1.66 2.08,1.67 2.08,1.66 2.08,1.66 2.08,1.67 2.08,1.66 2.08,1.67 2.08,1.66 2.08,1.66 2.08,1.67 2.08,1.66 2.08,1.66 2.07,1.67 2.08,1.66 2.08,1.67 2.08,1.66 2.08,1.66 2.08,1.67 2.08,1.66 2.08,1.66 2.08,1.67 2.08,1.66 2.08,1.67 2.08,1.66 2.08,1.66 2.08,1.67 2.08,1.66 2.08,1.66 2.08,1.67 2.08,1.66 2.08,1.67 2.08,1.66 2.08,1.66 2.08,1.67 2.08,1.66 2.08,1.66 2.08,1.67 2.08,1.66 2.08,1.67 2.08,1.66 2.08,1.66 2.08,1.67 2.08,1.66 2.08,1.66 2.07,1.67 2.08,1.66 2.08,1.67 2.08,1.66 2.08,1.66 2.08,1.67 2.08,1.66 2.08,1.66 2.08,1.67 2.08,1.66 2.08,1.67 2.08,1.66 2.08,1.66 2.08,1.67 2.08,1.66 2.08,1.66 2.08,1.67 2.08,1.66 2.08,1.67 2.08,1.66 2.08,1.66 2.08,1.67 2.08,1.66 2.08,1.66 2.08,1.67 2.08,1.66 2.08,1.67 2.08,1.66 2.08,1.66 2.08,1.67 2.08,1.66 2.08,1.66 2.07,1.67 2.08,1.66 2.08,1.67 2.08,1.66 2.08,1.66 2.08,1.67 2.08,1.66 2.08,1.66 2.08,1.67 2.08,1.66 2.08,1.67 2.08,1.66 2.08,1.66 2.08,1.67 2.08,1.66 2.08,1.66 2.08,1.67 2.08,1.66 2.08,1.67 2.08,1.66 2.08,1.66 2.08,1.67 2.08,1.66 2.08,1.66 2.08,1.67 2.08,1.66 2.08,1.67 2.08,1.66 2.08,1.66 2.08,1.67 2.08,1.66 2.08,1.66 2.07,1.67 2.08,1.66 2.08,1.67 2.08,1.66 2.08,1.66 2.08,1.67 2.08,1.66 2.08,1.66 2.08,1.67 2.08,1.66 -266.2,0" />
          <title id="title68">Number a</title>
          <desc id="desc70">Number a: Integral of -(x(g) / y(g)) x - z(g) / y(g) from 0 to 4</desc>
        </g>
        
      </g>
      
      <clipPath id="clip7">
        <path id="path73" d="m 0,0 0,473 580,0 0,-473 z" />
      </clipPath>
      <g id="g75" clip-path="url(#clip7)">
        <g style="fill:none;stroke:#0033cc;stroke-width:3.22594357;stroke-linecap:round;stroke-linejoin:round;stroke-opacity:1" id="g77">
          <path style="stroke-width:3.22594357" id="path79" d="M -5,369.62 530.17,-5" />
          <title id="title81">Line f</title>
          <desc id="desc83">f: y = 0.7x + 1</desc>
        </g>
        
      </g>
      
      <clipPath id="clip8">
        <path id="path86" d="m 0,0 0,473 580,0 0,-473 z" />
      </clipPath>
      <g id="g88" clip-path="url(#clip8)">
        <g style="fill:none;stroke:#cc0000;stroke-width:3.22594357;stroke-linecap:round;stroke-linejoin:round;stroke-opacity:1" id="g90">
          <path style="stroke-width:3.22594357" id="path92" d="M 9.3071,-5 585,455.55" />
          <title id="title94">Line g</title>
          <desc id="desc96">g: y = -0.8x + 3.2</desc>
        </g>
        
      </g>
      
      <clipPath id="clip9">
        <path id="path99" d="m 0,0 0,473 580,0 0,-473 z" />
      </clipPath>
      <g id="g101" clip-path="url(#clip9)">
        <g style="fill:none;stroke:#996600;stroke-width:3.22594357;stroke-linecap:round;stroke-linejoin:round;stroke-opacity:1" id="g103">
          <path style="stroke-width:3.22594357" id="path105" d="M -5,263.06 263.67,478" />
          <title id="title107">Line h</title>
          <desc id="desc109">h: y = -0.8x - 1</desc>
        </g>
        
      </g>
      
    </g>
    
  </g>
  
  <g style="font-style:normal;font-variant:normal;font-weight:normal;font-stretch:normal;letter-spacing:normal;word-spacing:normal;text-anchor:start;fill:none;fill-opacity:1;fill-rule:evenodd;stroke:#000000;stroke-linecap:butt;stroke-linejoin:miter;stroke-miterlimit:10.43299961;stroke-dasharray:none;stroke-dashoffset:0;stroke-opacity:1" ns0:preamble="/Users/prmb/CMEP/underground-inkscape-preamble.tex" ns0:text="$x$" word-spacing="normal" letter-spacing="normal" font-size-adjust="none" font-stretch="normal" font-weight="normal" font-variant="normal" font-style="normal" stroke-miterlimit="10.433" xml:space="preserve" transform="matrix(2,0,0,-2,-24.506581,2047.1083)" id="content"><path style="fill:#000000;stroke-width:0" id="path4307" d="m 227.03,480.64 -0.23,0.64 c -0.15,0.39 -0.37,0.88 -0.89,1.16 l -1.56,-0.39 0.04,-0.21 c 0.12,0.05 0.29,0.07 0.45,0.07 0.65,0 0.95,-0.48 1.15,-1.05 l 0.39,-1.09 -0.76,-1.19 c -0.38,-0.58 -0.69,-0.7 -0.83,-0.7 -0.3,0 -0.25,0.24 -0.55,0.24 -0.3,0 -0.45,-0.25 -0.45,-0.44 0,-0.26 0.19,-0.55 0.61,-0.55 0.66,0 1,0.51 1.38,1.08 l 0.74,1.16 0.48,-1.33 c 0.15,-0.43 0.38,-0.91 0.86,-0.91 0.68,0 1.21,1.13 1.36,1.31 l -0.17,0.12 c -0.25,-0.51 -0.53,-0.68 -0.72,-0.68 -0.53,0 -0.8,1.6 -1.15,2.33 l 0.64,1 c 0.17,0.26 0.3,0.45 0.65,0.45 0.2,0 0.26,-0.1 0.52,-0.1 0.31,0 0.46,0.27 0.46,0.49 0,0.25 -0.2,0.39 -0.57,0.39 -0.6,0 -1.01,-0.52 -1.32,-0.99 z" /></g>  <g style="font-style:normal;font-variant:normal;font-weight:normal;font-stretch:normal;letter-spacing:normal;word-spacing:normal;text-anchor:start;fill:none;fill-opacity:1;fill-rule:evenodd;stroke:#000000;stroke-linecap:butt;stroke-linejoin:miter;stroke-miterlimit:10.43299961;stroke-dasharray:none;stroke-dashoffset:0;stroke-opacity:1" id="g4437" transform="matrix(2,0,0,-2,-349.80035,1826.2299)" xml:space="preserve" stroke-miterlimit="10.433" font-style="normal" font-variant="normal" font-weight="normal" font-stretch="normal" font-size-adjust="none" letter-spacing="normal" word-spacing="normal" ns0:text="$y$" ns0:preamble="/Users/prmb/CMEP/underground-inkscape-preamble.tex"><path style="fill:#000000;stroke-width:0" d="m 226.62,480.86 -0.01,0.08 -0.01,0.08 -0.01,0.07 -0.01,0.07 -0.01,0.07 -0.01,0.07 -0.01,0.06 -0.01,0.06 -0.01,0.06 -0.01,0.05 -0.01,0.06 -0.01,0.05 -0.01,0.05 -0.01,0.04 -0.02,0.05 -0.01,0.05 -0.01,0.04 -0.02,0.04 -0.01,0.04 -0.01,0.04 -0.04,0.08 -0.03,0.07 -0.04,0.08 -0.04,0.07 -0.04,0.07 -0.05,0.07 -1.77,-0.3 0.02,-0.18 c 0.11,0.01 0.3,0.04 0.43,0.04 0.66,0 0.76,-0.71 0.82,-1.24 l 0.45,-3.7 c -0.31,-0.48 -0.98,-1.21 -1.18,-1.21 -0.19,0 -0.16,0.37 -0.67,0.37 -0.16,0 -0.47,-0.13 -0.47,-0.49 0,-0.28 0.22,-0.64 0.66,-0.64 0.8,0 1.57,1.15 2.43,2.24 0.5,0.62 2.41,3.46 2.41,4.38 0,0.46 -0.3,0.73 -0.67,0.73 -0.35,0 -0.56,-0.21 -0.56,-0.47 0,-0.45 0.61,-0.57 0.61,-0.82 0,-0.21 -0.09,-0.45 -0.33,-0.88 -0.26,-0.49 -0.67,-1.19 -1.39,-2.18 z" id="path4439" /></g></svg>