<?xml version='1.0' ?><svg xmlns:ns0="http://www.iki.fi/pav/software/textext/" xmlns:dc="http://purl.org/dc/elements/1.1/" xmlns:cc="http://creativecommons.org/ns#" xmlns:rdf="http://www.w3.org/1999/02/22-rdf-syntax-ns#" xmlns:svg="http://www.w3.org/2000/svg" xmlns="http://www.w3.org/2000/svg" version="1.1" id="svg2" width="369.01073" height="280.00805" viewBox="176.56000312524287 69.85465029966745 345.9475593754759 262.50754687536113" preserveAspectRatio="none">
  <defs id="defs4">
    <marker orient="auto" refY="0.0" refX="0.0" id="marker4458" style="overflow:visible;">
      <path id="path4460" style="fill-rule:evenodd;stroke-width:0.625;stroke-linejoin:round;stroke:#000000;stroke-opacity:1;fill:#000000;fill-opacity:1" d="M 8.7185878,4.0337352 L -2.2072895,0.016013256 L 8.7185884,-4.0017078 C 6.9730900,-1.6296469 6.9831476,1.6157441 8.7185878,4.0337352 z " transform="scale(1.1) rotate(180) translate(1,0)" />
    </marker>
    <marker style="overflow:visible;" id="Arrow2Lend" refX="0.0" refY="0.0" orient="auto">
      <path transform="scale(1.1) rotate(180) translate(1,0)" d="M 8.7185878,4.0337352 L -2.2072895,0.016013256 L 8.7185884,-4.0017078 C 6.9730900,-1.6296469 6.9831476,1.6157441 8.7185878,4.0337352 z " style="fill-rule:evenodd;stroke-width:0.625;stroke-linejoin:round;stroke:#000000;stroke-opacity:1;fill:#000000;fill-opacity:1" id="path4165" />
    </marker>
  </defs>
  <metadata id="metadata7">
    <rdf:RDF>
      <cc:Work rdf:about="">
        <dc:format>image/svg+xml</dc:format>
        <dc:type rdf:resource="http://purl.org/dc/dcmitype/StillImage" />
        <dc:title />
      </cc:Work>
    </rdf:RDF>
  </metadata>
  <g id="layer1">
    <path id="path5938" d="m 420,135.3622 60,-32 0,209 -60,0 z" style="fill:#9cf6af;fill-rule:evenodd;stroke:#000000;stroke-width:1px;stroke-linecap:butt;stroke-linejoin:miter;stroke-opacity:1;fill-opacity:1" />
    <path id="path4496" d="m 480.08929,199.32649 -180,0 L 360,167.3622 l 0,145 -60,0 0.0893,-113.03571" style="fill:#9cb7f6;fill-rule:evenodd;stroke:none;stroke-width:1;stroke-linecap:butt;stroke-linejoin:miter;stroke-opacity:1;stroke-miterlimit:4;stroke-dasharray:3, 3;stroke-dashoffset:0;fill-opacity:1" />
    <path id="path4138" d="M 200,332.3622 200,72.362205" style="fill:none;fill-rule:evenodd;stroke:#000000;stroke-width:1.5;stroke-linecap:butt;stroke-linejoin:miter;stroke-opacity:1;marker-end:url(#Arrow2Lend);stroke-miterlimit:4;stroke-dasharray:none" />
    <path id="path4450" d="m 180,312.3622 340,0" style="fill:none;fill-rule:evenodd;stroke:#000000;stroke-width:1.5;stroke-linecap:butt;stroke-linejoin:miter;stroke-opacity:1;stroke-miterlimit:4;stroke-dasharray:none;marker-end:url(#marker4458)" />
    <path id="path4486" d="M 200,252.3622 500,92.362205" style="fill:none;fill-rule:evenodd;stroke:#000000;stroke-width:1.3;stroke-linecap:butt;stroke-linejoin:miter;stroke-opacity:1;stroke-miterlimit:4;stroke-dasharray:none" />
    <path id="path4488" d="m 480,312.3622 0,-209" style="fill:none;fill-rule:evenodd;stroke:#000000;stroke-width:1px;stroke-linecap:butt;stroke-linejoin:miter;stroke-opacity:1" />
    <path id="path4490" d="m 420,312.3622 0,-177.47462" style="fill:none;fill-rule:evenodd;stroke:#000000;stroke-width:1px;stroke-linecap:butt;stroke-linejoin:miter;stroke-opacity:1" />
    <path id="path4492" d="m 360,312.3622 0,-145 0,0 0,0" style="fill:none;fill-rule:evenodd;stroke:#000000;stroke-width:1px;stroke-linecap:butt;stroke-linejoin:miter;stroke-opacity:1" />
    <path id="path4494" d="m 300,312.3622 0,-113.48477" style="fill:none;fill-rule:evenodd;stroke:#000000;stroke-width:1px;stroke-linecap:butt;stroke-linejoin:miter;stroke-opacity:1" />
    <path id="path4498" d="m 420.08929,135.30863 60,0" style="fill:none;fill-rule:evenodd;stroke:#000000;stroke-width:1;stroke-linecap:butt;stroke-linejoin:miter;stroke-opacity:1;stroke-miterlimit:4;stroke-dasharray:3,3;stroke-dashoffset:0" />
    <rect rx="0" ry="0" y="135.73648" x="420.50507" height="63.062595" width="58.985931" id="rect4500" style="fill:#05330e;stroke:none;stroke-width:1;stroke-linejoin:miter;stroke-miterlimit:4;stroke-dasharray:3, 3;stroke-dashoffset:0;fill-opacity:0.37579617;stroke-opacity:1.0" />
    <path style="fill:none;fill-rule:evenodd;stroke:#000000;stroke-width:1;stroke-linecap:butt;stroke-linejoin:miter;stroke-miterlimit:4;stroke-dasharray:3, 3;stroke-dashoffset:0;stroke-opacity:1" d="m 300.19681,199.30863 179.89248,0" id="path5936" />
    <g ns0:preamble="/Users/prmb/CMEP/underground-inkscape-preamble.tex" ns0:text="$t$" word-spacing="normal" letter-spacing="normal" font-size-adjust="none" font-stretch="normal" font-weight="normal" font-variant="normal" font-style="normal" stroke-miterlimit="10.433" xml:space="preserve" transform="matrix(2,0,0,-2,66.999998,1255)" id="content" style="font-style:normal;font-variant:normal;font-weight:normal;font-stretch:normal;letter-spacing:normal;word-spacing:normal;text-anchor:start;fill:none;fill-opacity:1;fill-rule:evenodd;stroke:#000000;stroke-linecap:butt;stroke-linejoin:miter;stroke-miterlimit:10.43299961;stroke-dasharray:none;stroke-dashoffset:0;stroke-opacity:1"><path id="path5967" d="m 226.77,482.41 -0.82,0 0.36,1.52 -0.15,0 c -0.48,-1.03 -1.2,-1.47 -2.09,-1.63 l -0.06,-0.34 0.91,0 -0.96,-3.78 c -0.03,-0.13 -0.06,-0.28 -0.06,-0.44 0,-0.32 0.1,-0.61 0.47,-0.61 0.69,0 1.28,0.9 1.56,1.26 l -0.15,0.13 c -0.43,-0.59 -0.71,-0.61 -0.71,-0.61 -0.15,0 -0.19,0.07 -0.19,0.14 0,0.03 0.02,0.09 0.03,0.13 l 0.92,3.78 0.82,0 z" style="fill:#000000;stroke-width:0" /></g>    <g style="font-style:normal;font-variant:normal;font-weight:normal;font-stretch:normal;letter-spacing:normal;word-spacing:normal;text-anchor:start;fill:none;fill-opacity:1;fill-rule:evenodd;stroke:#000000;stroke-linecap:butt;stroke-linejoin:miter;stroke-miterlimit:10.43299961;stroke-dasharray:none;stroke-dashoffset:0;stroke-opacity:1" id="g6015" transform="matrix(2,0,0,-2,-272,1036)" xml:space="preserve" stroke-miterlimit="10.433" font-style="normal" font-variant="normal" font-weight="normal" font-stretch="normal" font-size-adjust="none" letter-spacing="normal" word-spacing="normal" ns0:text="$v$" ns0:preamble="/Users/prmb/CMEP/underground-inkscape-preamble.tex"><path style="fill:#000000;stroke-width:0" d="m 226.35,482.6 -0.05,0.04 c -0.59,-0.26 -1.23,-0.34 -1.84,-0.49 l 0,-0.18 c 0.15,0 0.67,0 0.67,-0.24 0,-0.09 -0.03,-0.2 -0.06,-0.29 l -0.68,-2.48 c -0.07,-0.24 -0.11,-0.48 -0.11,-0.73 0,-0.87 0.62,-1.1 1.37,-1.1 0.87,0 1.78,0.52 2.29,1.23 0.69,0.94 1.15,2.13 1.15,3.3 0,0.38 -0.06,0.98 -0.56,0.98 -0.34,0 -0.63,-0.09 -0.63,-0.49 0,-0.52 0.72,-0.42 0.72,-1.29 0,-0.3 -0.09,-0.59 -0.18,-0.87 -0.38,-1.07 -1.21,-2.4 -2.48,-2.4 -0.47,0 -0.71,0.33 -0.71,0.78 0,0.13 0.01,0.26 0.05,0.38 z" id="path6017" /></g>    <g style="font-style:normal;font-variant:normal;font-weight:normal;font-stretch:normal;letter-spacing:normal;word-spacing:normal;text-anchor:start;fill:none;fill-opacity:1;fill-rule:evenodd;stroke:#000000;stroke-linecap:butt;stroke-linejoin:miter;stroke-miterlimit:10.43299961;stroke-dasharray:none;stroke-dashoffset:0;stroke-opacity:1" ns0:preamble="/Users/prmb/CMEP/underground-inkscape-preamble.tex" ns0:text="$u$" word-spacing="normal" letter-spacing="normal" font-size-adjust="none" font-stretch="normal" font-weight="normal" font-variant="normal" font-style="normal" stroke-miterlimit="10.433" xml:space="preserve" transform="matrix(2,0,0,-2,-265,1211)" id="g6069"><path style="fill:#000000;stroke-width:0" id="path6071" d="m 228.67,482.29 -0.91,0 -0.24,-0.89 c -0.24,-0.86 -0.78,-1.91 -1.29,-2.58 -0.41,-0.55 -0.88,-0.91 -1.18,-0.91 -0.21,0 -0.31,0.15 -0.31,0.4 0,0.09 0.01,0.18 0.04,0.28 l 0.99,3.85 -1.85,-0.31 0.03,-0.17 c 0.08,0.02 0.23,0.03 0.31,0.03 0.26,0 0.39,-0.13 0.39,-0.27 0,-0.05 -0.03,-0.12 -0.07,-0.29 l -0.7,-2.73 c -0.06,-0.22 -0.09,-0.45 -0.09,-0.7 0,-0.45 0.16,-0.87 0.72,-0.87 0.27,0 0.58,0.13 0.85,0.33 0.47,0.35 1.53,1.78 1.61,1.84 l 0.02,0 -0.31,-1.12 c -0.04,-0.14 -0.05,-0.33 -0.05,-0.44 0,-0.39 0.13,-0.61 0.47,-0.61 0.69,0 1.29,0.87 1.56,1.26 l -0.15,0.13 -0.06,-0.07 c -0.2,-0.24 -0.43,-0.54 -0.67,-0.54 -0.12,0 -0.17,0.07 -0.17,0.16 0,0.04 0,0.06 0.01,0.11 z" /></g>    <g style="font-style:normal;font-variant:normal;font-weight:normal;font-stretch:normal;letter-spacing:normal;word-spacing:normal;text-anchor:start;fill:none;fill-opacity:1;fill-rule:evenodd;stroke:#000000;stroke-width:1.42857146;stroke-linecap:butt;stroke-linejoin:miter;stroke-miterlimit:10.43299961;stroke-dasharray:none;stroke-dashoffset:0;stroke-opacity:1" id="g6127" transform="matrix(1.3999999,0,0,-1.3999999,-17.85798,1000.4525)" xml:space="preserve" stroke-miterlimit="10.433" font-style="normal" font-variant="normal" font-weight="normal" font-stretch="normal" font-size-adjust="none" letter-spacing="normal" word-spacing="normal" ns0:text="$4$" ns0:preamble="/Users/prmb/CMEP/underground-inkscape-preamble.tex"><polygon style="fill:#000000;stroke-width:0" points="224.05,479.96 226.88,484.01 226.88,479.96 224.05,479.96 223.57,479.96 223.57,479.21 226.88,479.21 226.88,477.23 227.8,477.23 227.8,479.21 229.02,479.21 229.02,479.96 227.8,479.96 227.8,485.22 227.28,485.22 223.57,479.96 " id="polygon6129" /></g>    <g style="font-style:normal;font-variant:normal;font-weight:normal;font-stretch:normal;letter-spacing:normal;word-spacing:normal;text-anchor:start;fill:none;fill-opacity:1;fill-rule:evenodd;stroke:#000000;stroke-width:1.42857146;stroke-linecap:butt;stroke-linejoin:miter;stroke-miterlimit:10.43299961;stroke-dasharray:none;stroke-dashoffset:0;stroke-opacity:1" ns0:preamble="/Users/prmb/CMEP/underground-inkscape-preamble.tex" ns0:text="$5$" word-spacing="normal" letter-spacing="normal" font-size-adjust="none" font-stretch="normal" font-weight="normal" font-variant="normal" font-style="normal" stroke-miterlimit="10.433" xml:space="preserve" transform="matrix(1.3999999,0,0,-1.3999999,43.542017,1000.2285)" id="g6189"><path style="fill:#000000;stroke-width:0" id="path6191" d="m 228.6,485.27 -0.1,0.09 c -0.19,-0.25 -0.3,-0.31 -0.57,-0.31 l -2.44,0 -1.29,-2.8 c 0,0 -0.01,-0.03 -0.01,-0.06 0,-0.07 0.03,-0.09 0.14,-0.09 1.13,0 1.96,-0.38 2.51,-0.83 0.54,-0.42 0.79,-1.01 0.79,-1.77 0,-1.01 -0.76,-1.99 -1.59,-1.99 -0.24,0 -0.51,0.1 -0.84,0.37 -0.38,0.31 -0.6,0.37 -0.87,0.37 -0.33,0 -0.53,-0.15 -0.53,-0.45 0,-0.45 0.61,-0.73 1.5,-0.73 0.8,0 1.45,0.18 2,0.58 0.81,0.59 1.16,1.32 1.16,2.45 0,0.63 -0.11,1.08 -0.41,1.5 -0.67,0.94 -1.26,1.2 -2.95,1.51 l 0.47,1.01 2.29,0 c 0.19,0 0.28,0.07 0.32,0.15 z" /></g>    <g style="font-style:normal;font-variant:normal;font-weight:normal;font-stretch:normal;letter-spacing:normal;word-spacing:normal;text-anchor:start;fill:none;fill-opacity:1;fill-rule:evenodd;stroke:#000000;stroke-width:1.42857146;stroke-linecap:butt;stroke-linejoin:miter;stroke-miterlimit:10.43299961;stroke-dasharray:none;stroke-dashoffset:0;stroke-opacity:1" id="g6255" transform="matrix(1.3999999,0,0,-1.3999999,102.43289,1000.2285)" xml:space="preserve" stroke-miterlimit="10.433" font-style="normal" font-variant="normal" font-weight="normal" font-stretch="normal" font-size-adjust="none" letter-spacing="normal" word-spacing="normal" ns0:text="$6$" ns0:preamble="/Users/prmb/CMEP/underground-inkscape-preamble.tex"><path style="fill:#000000;stroke-width:0" d="m 228.7,485.31 -0.15,-0.02 -0.15,-0.01 -0.14,-0.02 -0.14,-0.02 -0.14,-0.02 -0.13,-0.03 -0.13,-0.02 -0.13,-0.02 -0.12,-0.03 -0.12,-0.03 -0.12,-0.03 -0.11,-0.03 -0.12,-0.03 -0.11,-0.04 -0.1,-0.04 -0.11,-0.04 -0.11,-0.04 -0.1,-0.05 -0.1,-0.05 -0.1,-0.05 -0.1,-0.06 -0.1,-0.05 -0.1,-0.07 -0.09,-0.06 -0.1,-0.07 -0.09,-0.07 -0.1,-0.08 -0.09,-0.08 -0.1,-0.08 -0.09,-0.09 -0.09,-0.1 -0.1,-0.09 c -0.84,-0.87 -1.29,-1.99 -1.29,-3.26 0,-0.83 0.23,-1.67 0.56,-2.27 0.41,-0.75 1.15,-1.19 2.09,-1.19 l 0.13,0.33 c -1.11,0 -1.68,1.18 -1.68,2.98 0,1.08 0.7,1.36 1.37,1.36 1.1,0 1.6,-0.77 1.6,-2.29 l 0,0 c 0,-1.2 -0.44,-2.05 -1.29,-2.05 l -0.13,-0.33 c 0.78,0 1.44,0.32 1.87,0.86 0.39,0.47 0.61,1.14 0.61,1.89 0,1.52 -0.85,2.47 -2.23,2.47 -0.52,0 -0.93,-0.09 -1.5,-0.53 0.31,1.78 1.64,3.05 3.49,3.36 z" id="path6257" /></g>    <g style="font-style:normal;font-variant:normal;font-weight:normal;font-stretch:normal;letter-spacing:normal;word-spacing:normal;text-anchor:start;fill:none;fill-opacity:1;fill-rule:evenodd;stroke:#000000;stroke-width:1.42857146;stroke-linecap:butt;stroke-linejoin:miter;stroke-miterlimit:10.43299961;stroke-dasharray:none;stroke-dashoffset:0;stroke-opacity:1" ns0:preamble="/Users/prmb/CMEP/underground-inkscape-preamble.tex" ns0:text="$7$" word-spacing="normal" letter-spacing="normal" font-size-adjust="none" font-stretch="normal" font-weight="normal" font-variant="normal" font-style="normal" stroke-miterlimit="10.433" xml:space="preserve" transform="matrix(1.3999999,0,0,-1.3999999,162.81766,1000.3265)" id="g6325"><path style="fill:#000000;stroke-width:0" id="path6327" d="m 228.73,484.86 0,0.19 -4.35,0 -0.71,-1.73 0.21,-0.11 c 0.5,0.8 0.7,0.97 1.38,0.97 l 2.54,0 -2.34,-7.04 0.77,0 z" /></g>    <g style="font-style:normal;font-variant:normal;font-weight:normal;font-stretch:normal;letter-spacing:normal;word-spacing:normal;text-anchor:start;fill:none;fill-opacity:1;fill-rule:evenodd;stroke:#000000;stroke-width:1.42857146;stroke-linecap:butt;stroke-linejoin:miter;stroke-miterlimit:10.43299961;stroke-dasharray:none;stroke-dashoffset:0;stroke-opacity:1" id="g6399" transform="matrix(1.3999999,0,0,-1.3999999,11.042019,940.06197)" xml:space="preserve" stroke-miterlimit="10.433" font-style="normal" font-variant="normal" font-weight="normal" font-stretch="normal" font-size-adjust="none" letter-spacing="normal" word-spacing="normal" ns0:text="$10$" ns0:preamble="/Users/prmb/CMEP/underground-inkscape-preamble.tex"><path style="fill:#000000;stroke-width:0" d="m 228.08,477.23 0,0.18 c -0.88,0 -1.12,0.21 -1.12,0.72 l 0,7.05 -0.1,0.04 -2.12,-1.08 0,-0.16 0.32,0.11 c 0.21,0.09 0.41,0.15 0.53,0.15 0.25,0 0.36,-0.18 0.36,-0.58 l 0,-5.3 c 0,-0.65 -0.25,-0.9 -1.13,-0.95 l 0,-0.18 z" id="path6401" /><path style="fill:#000000;stroke-width:0" d="m 234.98,481.13 -0.01,0.23 -0.01,0.22 -0.01,0.21 -0.02,0.21 -0.03,0.21 -0.03,0.2 -0.04,0.19 -0.05,0.19 -0.05,0.18 -0.05,0.18 -0.06,0.17 -0.07,0.17 -0.07,0.16 -0.07,0.15 -0.08,0.14 -0.08,0.14 -0.09,0.13 -0.1,0.13 -0.09,0.11 -0.11,0.11 -0.1,0.1 -0.11,0.1 -0.12,0.08 -0.11,0.08 -0.12,0.07 -0.13,0.06 -0.13,0.05 -0.13,0.04 -0.13,0.03 -0.14,0.03 -0.14,0.01 -0.15,0.01 c -1.9,0 -2.71,-1.93 -2.71,-4.02 0,-1.93 0.65,-4.13 2.67,-4.13 l 0,0.31 c -1.02,0 -1.54,1.34 -1.54,3.74 0,2.4 0.53,3.79 1.51,3.79 1.04,0 1.56,-1.38 1.56,-3.84 l 0,0 c 0,-2.34 -0.53,-3.69 -1.53,-3.69 l 0,-0.31 c 1.92,0 2.67,2.03 2.67,4.06 z" id="path6403" /></g>    <g style="font-style:normal;font-variant:normal;font-weight:normal;font-stretch:normal;letter-spacing:normal;word-spacing:normal;text-anchor:start;fill:none;fill-opacity:1;fill-rule:evenodd;stroke:#000000;stroke-width:1.42857146;stroke-linecap:butt;stroke-linejoin:miter;stroke-miterlimit:10.43299961;stroke-dasharray:none;stroke-dashoffset:0;stroke-opacity:1" ns0:preamble="/Users/prmb/CMEP/underground-inkscape-preamble.tex" ns0:text="$12$" word-spacing="normal" letter-spacing="normal" font-size-adjust="none" font-stretch="normal" font-weight="normal" font-variant="normal" font-style="normal" stroke-miterlimit="10.433" xml:space="preserve" transform="matrix(1.3999999,0,0,-1.3999999,130.74201,939.96197)" id="g6481"><path style="fill:#000000;stroke-width:0" id="path6483" d="m 228.08,477.23 0,0.18 c -0.88,0 -1.12,0.21 -1.12,0.72 l 0,7.05 -0.1,0.04 -2.12,-1.08 0,-0.16 0.32,0.11 c 0.21,0.09 0.41,0.15 0.53,0.15 0.25,0 0.36,-0.18 0.36,-0.58 l 0,-5.3 c 0,-0.65 -0.25,-0.9 -1.13,-0.95 l 0,-0.18 z" /><path style="fill:#000000;stroke-width:0" id="path6485" d="m 234.95,478.85 -0.16,0.07 c -0.39,-0.66 -0.64,-0.79 -1.14,-0.79 l -2.76,0 1.95,2.08 c 1.05,1.11 1.51,1.99 1.51,2.93 0,1.17 -0.85,2.08 -2.18,2.08 -1.46,0 -2.21,-0.97 -2.46,-2.35 l 0.25,-0.06 c 0.47,1.15 0.88,1.53 1.73,1.53 1.01,0 1.65,-0.59 1.65,-1.66 0,-1.01 -0.43,-1.9 -1.54,-3.07 l -2.1,-2.23 0,-0.15 4.62,0 z" /></g>    <g style="font-style:normal;font-variant:normal;font-weight:normal;font-stretch:normal;letter-spacing:normal;word-spacing:normal;text-anchor:start;fill:none;fill-opacity:1;fill-rule:evenodd;stroke:#000000;stroke-width:1.42857146;stroke-linecap:butt;stroke-linejoin:miter;stroke-miterlimit:10.43299961;stroke-dasharray:none;stroke-dashoffset:0;stroke-opacity:1" id="g6569" transform="matrix(1.3999999,0,0,-1.3999999,85.142015,843.26197)" xml:space="preserve" stroke-miterlimit="10.433" font-style="normal" font-variant="normal" font-weight="normal" font-stretch="normal" font-size-adjust="none" letter-spacing="normal" word-spacing="normal" ns0:text="$2a$" ns0:preamble="/Users/prmb/CMEP/underground-inkscape-preamble.tex"><path style="fill:#000000;stroke-width:0" d="m 229.03,478.85 -0.17,0.07 c -0.39,-0.66 -0.63,-0.79 -1.13,-0.79 l -2.76,0 1.94,2.08 c 1.06,1.11 1.52,1.99 1.52,2.93 0,1.17 -0.85,2.08 -2.19,2.08 -1.45,0 -2.21,-0.97 -2.45,-2.35 l 0.24,-0.06 c 0.48,1.15 0.89,1.53 1.74,1.53 1,0 1.64,-0.59 1.64,-1.66 0,-1.01 -0.42,-1.9 -1.53,-3.07 l -2.11,-2.23 0,-0.15 4.62,0 z" id="path6571" /><path style="fill:#000000;stroke-width:0" d="m 234.93,482.29 -0.95,0 -0.1,-0.39 -0.01,0 c -0.03,0.26 -0.28,0.54 -0.78,0.54 l 0.01,-0.34 c 0.45,0 0.59,-0.36 0.59,-0.84 l 0,0 c 0,-0.4 -0.08,-0.87 -0.18,-1.18 -0.33,-1.12 -1.16,-2.24 -1.97,-2.24 -0.32,0 -0.69,0.15 -0.69,0.78 0,0.41 0.12,0.93 0.34,1.46 0.4,0.99 1.11,2.02 1.91,2.02 l -0.01,0.34 c -1.7,0 -3.26,-2.36 -3.26,-3.92 0,-0.75 0.3,-1.4 1.05,-1.4 0.46,0 1.19,0.15 2.04,1.24 l 0.05,0 c -0.06,-0.19 -0.13,-0.44 -0.13,-0.59 0,-0.38 0.11,-0.65 0.5,-0.65 0.56,0 1.2,0.71 1.56,1.26 l -0.14,0.14 c -0.46,-0.61 -0.63,-0.64 -0.75,-0.64 -0.1,0 -0.17,0.07 -0.17,0.2 0,0.11 0.01,0.13 0.01,0.13 z" id="path6573" /></g>  </g>
</svg>