<?xml version='1.0' ?><svg xmlns:ns0="http://www.iki.fi/pav/software/textext/" xmlns:dc="http://purl.org/dc/elements/1.1/" xmlns:cc="http://creativecommons.org/ns#" xmlns:rdf="http://www.w3.org/1999/02/22-rdf-syntax-ns#" xmlns:svg="http://www.w3.org/2000/svg" xmlns="http://www.w3.org/2000/svg" id="svg2" version="1.1" width="254.62719" height="249.60115" viewBox="137.97732206272724 1294.436391207103 396.2755144855925 388.4535038557569" preserveAspectRatio="none">
  <rect style="fill:none;stroke:#000000;stroke-width:0.89974712;stroke-linejoin:miter;stroke-miterlimit:10;stroke-dasharray:none;stroke-dashoffset:0;fill-opacity:1.0;stroke-opacity:1.0" id="rect6932" width="9.883358" height="9.883358" x="257.98102" y="1408.4916" />
  <metadata id="metadata248">
    <rdf:RDF>
      <cc:Work rdf:about="">
        <dc:format>image/svg+xml</dc:format>
        <dc:type rdf:resource="http://purl.org/dc/dcmitype/StillImage" />
        <dc:title />
      </cc:Work>
    </rdf:RDF>
  </metadata>
  <defs id="defs246">
    <clipPath id="clip1">
      <path d="m 0,0 0,441 668,0 0,-441 z" id="path11" />
    </clipPath>
    <clipPath id="clip2">
      <path d="m 0,0 0,441 668,0 0,-441 z" id="path24" />
    </clipPath>
    <clipPath id="clip5">
      <path d="m 0,0 0,441 668,0 0,-441 z" id="path63" />
    </clipPath>
    <clipPath id="clip6">
      <path d="m 0,0 0,441 668,0 0,-441 z" id="path76" />
    </clipPath>
    <clipPath id="clip7">
      <path d="m 0,0 0,441 668,0 0,-441 z" id="path89" />
    </clipPath>
    <clipPath id="clip8">
      <path d="m 0,0 0,441 668,0 0,-441 z" id="path102" />
    </clipPath>
    <clipPath id="clip9">
      <path d="m 0,0 0,441 668,0 0,-441 z" id="path115" />
    </clipPath>
    <clipPath id="clip10">
      <path d="m 0,0 0,441 668,0 0,-441 z" id="path128" />
    </clipPath>
    <clipPath id="clip11">
      <path d="m 0,0 0,441 668,0 0,-441 z" id="path141" />
    </clipPath>
    <clipPath id="clip15">
      <path d="m 0,0 0,441 668,0 0,-441 z" id="path193" />
    </clipPath>
  </defs>
  <g style="stroke-width:1;stroke-linecap:square;stroke-linejoin:miter;stroke-miterlimit:10;stroke-dasharray:none;stroke-dashoffset:0" clip-path="url(#clip1)" id="g13" transform="translate(0,1306.634)">
    <g id="g15" style="fill:none;stroke:#000000;stroke-linecap:round;stroke-linejoin:round;stroke-opacity:1">
      <path d="m 267.77,353.28 141.07,0 99.75,-99.75 0,-141.07 -99.75,-99.749 -141.07,0 -99.75,99.749 0,141.07 z" id="path17" />
      <title id="title19">Polygon poly1</title>
      <desc id="desc21">Polygon poly1: Polygon[A, B, 8]</desc>
    </g>
  </g>
  <g style="stroke-width:1;stroke-linecap:square;stroke-linejoin:miter;stroke-miterlimit:10;stroke-dasharray:none;stroke-dashoffset:0" clip-path="url(#clip2)" id="g26" transform="translate(0,1306.634)">
    <g id="g28" style="fill:none;stroke:#000000;stroke-linecap:round;stroke-linejoin:round;stroke-opacity:1">
      <path d="m 267.77,353.28 141.07,0" id="path30" />
      <title id="title32">Segment f</title>
      <desc id="desc34">Segment f: Segment [A, B] of Polygon poly1</desc>
    </g>
  </g>
  <g style="stroke-width:1;stroke-linecap:square;stroke-linejoin:miter;stroke-miterlimit:10;stroke-dasharray:none;stroke-dashoffset:0" clip-path="url(#clip5)" id="g65" transform="translate(0,1306.634)">
    <g id="g67" style="fill:none;stroke:#000000;stroke-linecap:round;stroke-linejoin:round;stroke-opacity:1">
      <path d="m 408.84,353.28 99.75,-99.75" id="path69" />
      <title id="title71">Segment g</title>
      <desc id="desc73">Segment g: Segment [B, C] of Polygon poly1</desc>
    </g>
  </g>
  <g style="stroke-width:1;stroke-linecap:square;stroke-linejoin:miter;stroke-miterlimit:10;stroke-dasharray:none;stroke-dashoffset:0" clip-path="url(#clip6)" id="g78" transform="translate(0,1306.634)">
    <g id="g80" style="fill:none;stroke:#000000;stroke-linecap:round;stroke-linejoin:round;stroke-opacity:1">
      <path d="m 508.59,253.53 0,-141.07" id="path82" />
      <title id="title84">Segment h</title>
      <desc id="desc86">Segment h: Segment [C, D] of Polygon poly1</desc>
    </g>
  </g>
  <g style="stroke-width:1;stroke-linecap:square;stroke-linejoin:miter;stroke-miterlimit:10;stroke-dasharray:none;stroke-dashoffset:0" clip-path="url(#clip7)" id="g91" transform="translate(0,1306.634)">
    <g id="g93" style="fill:none;stroke:#000000;stroke-linecap:round;stroke-linejoin:round;stroke-opacity:1">
      <path d="M 508.59,112.46 408.84,12.711" id="path95" />
      <title id="title97">Segment i</title>
      <desc id="desc99">Segment i: Segment [D, E] of Polygon poly1</desc>
    </g>
  </g>
  <g style="stroke-width:1;stroke-linecap:square;stroke-linejoin:miter;stroke-miterlimit:10;stroke-dasharray:none;stroke-dashoffset:0" clip-path="url(#clip8)" id="g104" transform="translate(0,1306.634)">
    <g id="g106" style="fill:none;stroke:#000000;stroke-linecap:round;stroke-linejoin:round;stroke-opacity:1">
      <path d="m 408.84,12.711 -141.07,0" id="path108" />
      <title id="title110">Segment j</title>
      <desc id="desc112">Segment j: Segment [E, F] of Polygon poly1</desc>
    </g>
  </g>
  <g style="stroke-width:1;stroke-linecap:square;stroke-linejoin:miter;stroke-miterlimit:10;stroke-dasharray:none;stroke-dashoffset:0" clip-path="url(#clip9)" id="g117" transform="translate(0,1306.634)">
    <g id="g119" style="fill:none;stroke:#000000;stroke-linecap:round;stroke-linejoin:round;stroke-opacity:1">
      <path d="M 267.77,12.711 168.02,112.46" id="path121" />
      <title id="title123">Segment k</title>
      <desc id="desc125">Segment k: Segment [F, G] of Polygon poly1</desc>
    </g>
  </g>
  <g style="stroke-width:1;stroke-linecap:square;stroke-linejoin:miter;stroke-miterlimit:10;stroke-dasharray:none;stroke-dashoffset:0" clip-path="url(#clip10)" id="g130" transform="translate(0,1306.634)">
    <g id="g132" style="fill:none;stroke:#000000;stroke-linecap:round;stroke-linejoin:round;stroke-opacity:1">
      <path d="m 168.02,112.46 0,141.07" id="path134" />
      <title id="title136">Segment l</title>
      <desc id="desc138">Segment l: Segment [G, H] of Polygon poly1</desc>
    </g>
  </g>
  <g style="stroke-width:1;stroke-linecap:square;stroke-linejoin:miter;stroke-miterlimit:10;stroke-dasharray:none;stroke-dashoffset:0" clip-path="url(#clip11)" id="g143" transform="translate(0,1306.634)">
    <g id="g145" style="fill:none;stroke:#000000;stroke-linecap:round;stroke-linejoin:round;stroke-opacity:1">
      <path d="m 168.02,253.53 99.75,99.75" id="path147" />
      <title id="title149">Segment m</title>
      <desc id="desc151">Segment m: Segment [H, A] of Polygon poly1</desc>
    </g>
  </g>
  <g style="stroke-width:1;stroke-linecap:square;stroke-linejoin:miter;stroke-miterlimit:10;stroke-dasharray:none;stroke-dashoffset:0" clip-path="url(#clip15)" id="g195" transform="translate(0,1306.634)">
    <g id="g197" style="fill:none;stroke:#006400;stroke-linecap:round;stroke-linejoin:round;stroke-opacity:1">
      <path d="m 267.77,353.28 0,-340.569" id="path199" />
      <title id="title201">Segment t</title>
      <desc id="desc203">Segment t: Segment [K, L]</desc>
    </g>
  </g>
  <g id="content" transform="matrix(2,0,0,-2,-197.26444,2636.3362)" xml:space="preserve" stroke-miterlimit="10.433" font-style="normal" font-variant="normal" font-weight="normal" font-stretch="normal" font-size-adjust="none" letter-spacing="normal" word-spacing="normal" ns0:text="$A$" ns0:preamble="/Users/prmb/CMEP/underground-inkscape-preamble.tex" style="font-style:normal;font-variant:normal;font-weight:normal;font-stretch:normal;letter-spacing:normal;word-spacing:normal;text-anchor:start;fill:none;fill-opacity:1;fill-rule:evenodd;stroke:#000000;stroke-linecap:butt;stroke-linejoin:miter;stroke-miterlimit:10.43299961;stroke-dasharray:none;stroke-dashoffset:0;stroke-opacity:1"><path d="m 231.52,477.23 0,0.19 -0.19,0 c -0.5,0 -0.79,0.25 -0.87,0.83 l -0.92,6.86 -0.22,0 -4.2,-6.81 c -0.42,-0.69 -0.86,-0.83 -1.27,-0.88 l 0,-0.19 2.57,0 0,0.19 -0.34,0 c -0.31,0 -0.5,0.13 -0.51,0.35 0,0.08 0.03,0.21 0.12,0.3 l 0.99,1.66 2.34,0 -0.09,0.43 -2,0 1.64,2.68 0.07,0 0.29,-2.68 0.09,-0.43 0.15,-1.34 c 0.01,-0.08 0.02,-0.18 0.02,-0.25 0,-0.47 -0.19,-0.72 -0.85,-0.72 l -0.19,0 0,-0.19 z" id="path4522" style="fill:#000000;stroke-width:0" /></g>  <g ns0:preamble="/Users/prmb/CMEP/underground-inkscape-preamble.tex" ns0:text="$B$" word-spacing="normal" letter-spacing="normal" font-size-adjust="none" font-stretch="normal" font-weight="normal" font-variant="normal" font-style="normal" stroke-miterlimit="10.433" xml:space="preserve" transform="matrix(2,0,0,-2,-45.21277,2637.3499)" id="g4794" style="font-style:normal;font-variant:normal;font-weight:normal;font-stretch:normal;letter-spacing:normal;word-spacing:normal;text-anchor:start;fill:none;fill-opacity:1;fill-rule:evenodd;stroke:#000000;stroke-linecap:butt;stroke-linejoin:miter;stroke-miterlimit:10.43299961;stroke-dasharray:none;stroke-dashoffset:0;stroke-opacity:1"><path id="path4796" d="m 225.77,484.94 -0.06,-0.18 0.22,0 c 0.7,0 0.93,-0.19 0.93,-0.5 0,-0.07 -0.02,-0.19 -0.03,-0.25 l -1.45,-5.84 c -0.09,-0.4 -0.32,-0.75 -1.22,-0.75 l -0.23,0 -0.05,-0.19 3.83,0 c 2.44,0 3.41,1.12 3.41,2.28 0,1.01 -0.79,1.5 -1.5,1.63 l -0.04,0.05 c 0.24,0.06 0.58,0.15 0.88,0.31 0.56,0.28 1.07,0.81 1.07,1.73 0,1.61 -1.79,1.71 -2.79,1.71 l -0.01,-0.46 c 0.64,0 1.41,-0.24 1.41,-1.15 0,-1.15 -0.66,-1.93 -1.99,-1.93 l -0.13,-0.41 c 0.93,0 1.68,-0.41 1.68,-1.28 0,-1.53 -1.13,-2.03 -2.24,-2.03 -0.31,0 -0.55,0.03 -0.84,0.11 l 0.8,3.15 c 0.18,0.05 0.42,0.05 0.6,0.05 l 0.13,0.41 c -0.17,0 -0.39,0.03 -0.62,0.07 l 0.7,2.98 c 0.15,0.02 0.33,0.03 0.5,0.03 l 0.01,0.46 z" style="fill:#000000;stroke-width:0" /></g>  <g id="g5072" transform="matrix(2,0,0,-2,69.332821,2523.818)" xml:space="preserve" stroke-miterlimit="10.433" font-style="normal" font-variant="normal" font-weight="normal" font-stretch="normal" font-size-adjust="none" letter-spacing="normal" word-spacing="normal" ns0:text="$C$" ns0:preamble="/Users/prmb/CMEP/underground-inkscape-preamble.tex" style="font-style:normal;font-variant:normal;font-weight:normal;font-stretch:normal;letter-spacing:normal;word-spacing:normal;text-anchor:start;fill:none;fill-opacity:1;fill-rule:evenodd;stroke:#000000;stroke-linecap:butt;stroke-linejoin:miter;stroke-miterlimit:10.43299961;stroke-dasharray:none;stroke-dashoffset:0;stroke-opacity:1"><path d="m 231.83,485.02 -0.22,0 c -0.17,-0.3 -0.36,-0.32 -0.49,-0.32 -0.62,0 -1.23,0.32 -1.87,0.32 -2.85,0 -5.23,-1.93 -5.23,-4.64 0,-1.74 1.12,-3.29 3.4,-3.29 0.46,0 1.36,0.07 2.28,0.72 0.34,0.25 0.73,0.61 1.05,1.09 l -0.23,0.15 c -0.06,-0.08 -0.12,-0.15 -0.2,-0.23 -0.54,-0.58 -1.4,-1.16 -2.56,-1.16 -1.59,0 -2.3,1.2 -2.3,2.53 0,2.01 1.4,4.39 3.77,4.39 1.43,0 1.79,-0.93 1.79,-1.7 0,-0.3 0,-0.4 -0.01,-0.5 l 0.19,0 z" id="path5074" style="fill:#000000;stroke-width:0" /></g>  <g ns0:preamble="/Users/prmb/CMEP/underground-inkscape-preamble.tex" ns0:text="$D$" word-spacing="normal" letter-spacing="normal" font-size-adjust="none" font-stretch="normal" font-weight="normal" font-variant="normal" font-style="normal" stroke-miterlimit="10.433" xml:space="preserve" transform="matrix(2,0,0,-2,69.332821,2379.8758)" id="g5354" style="font-style:normal;font-variant:normal;font-weight:normal;font-stretch:normal;letter-spacing:normal;word-spacing:normal;text-anchor:start;fill:none;fill-opacity:1;fill-rule:evenodd;stroke:#000000;stroke-linecap:butt;stroke-linejoin:miter;stroke-miterlimit:10.43299961;stroke-dasharray:none;stroke-dashoffset:0;stroke-opacity:1"><path id="path5356" d="m 225.72,484.94 -0.06,-0.2 0.3,0 c 0.69,0 0.91,-0.17 0.91,-0.43 0,-0.09 -0.03,-0.19 -0.05,-0.29 l -1.44,-5.86 c -0.09,-0.41 -0.37,-0.74 -1.24,-0.74 l -0.21,0 -0.05,-0.19 3.61,0 c 3.05,0 4.97,1.98 4.97,4.47 0,2.03 -1.19,3.24 -3.41,3.24 l -0.14,-0.44 c 1.74,0 2.13,-1.62 2.13,-2.98 0,-1.66 -0.94,-3.84 -3.2,-3.84 -0.42,0 -1.13,0.03 -1.13,0.51 0,0.04 0,0.1 0.06,0.32 l 1.44,5.95 c 0.19,0.02 0.46,0.04 0.7,0.04 l 0.14,0.44 z" style="fill:#000000;stroke-width:0" /></g>  <g id="g5640" transform="matrix(2,0,0,-2,-39.130704,2265.3302)" xml:space="preserve" stroke-miterlimit="10.433" font-style="normal" font-variant="normal" font-weight="normal" font-stretch="normal" font-size-adjust="none" letter-spacing="normal" word-spacing="normal" ns0:text="$E$" ns0:preamble="/Users/prmb/CMEP/underground-inkscape-preamble.tex" style="font-style:normal;font-variant:normal;font-weight:normal;font-stretch:normal;letter-spacing:normal;word-spacing:normal;text-anchor:start;fill:none;fill-opacity:1;fill-rule:evenodd;stroke:#000000;stroke-linecap:butt;stroke-linejoin:miter;stroke-miterlimit:10.43299961;stroke-dasharray:none;stroke-dashoffset:0;stroke-opacity:1"><path d="m 232.1,484.94 -6.31,0 -0.04,-0.18 0.22,0 c 0.7,0 0.89,-0.13 0.89,-0.42 0,-0.08 -0.02,-0.21 -0.06,-0.42 l -1.42,-5.76 c -0.09,-0.41 -0.37,-0.74 -1.23,-0.74 l -0.22,0 -0.05,-0.19 6.74,0 0.78,2.34 -0.19,0 c -0.5,-1.33 -1.17,-1.89 -3.03,-1.89 l -0.79,0 c -0.56,0 -0.75,0.13 -0.75,0.32 0,0.04 0.01,0.07 0.03,0.12 l 0.78,3.05 1.06,0 c 0.37,0 0.85,-0.05 0.85,-0.61 0,-0.2 -0.06,-0.55 -0.07,-0.7 l 0.2,0 0.68,2.85 -0.19,0 c -0.25,-0.97 -0.77,-1.12 -1.48,-1.12 l -0.95,0 0.71,2.93 1.89,0 c 0.6,0 1.25,-0.15 1.29,-1.03 0,-0.13 -0.01,-0.26 -0.03,-0.41 l 0.19,0 z" id="path5642" style="fill:#000000;stroke-width:0" /></g>  <g ns0:preamble="/Users/prmb/CMEP/underground-inkscape-preamble.tex" ns0:text="$F$" word-spacing="normal" letter-spacing="normal" font-size-adjust="none" font-stretch="normal" font-weight="normal" font-variant="normal" font-style="normal" stroke-miterlimit="10.433" xml:space="preserve" transform="matrix(2,0,0,-2,-188.14134,2264.3164)" id="g5930" style="font-style:normal;font-variant:normal;font-weight:normal;font-stretch:normal;letter-spacing:normal;word-spacing:normal;text-anchor:start;fill:none;fill-opacity:1;fill-rule:evenodd;stroke:#000000;stroke-linecap:butt;stroke-linejoin:miter;stroke-miterlimit:10.43299961;stroke-dasharray:none;stroke-dashoffset:0;stroke-opacity:1"><path id="path5932" d="m 231.97,484.94 -6.14,0 -0.05,-0.17 0.23,0 c 0.7,0 0.89,-0.22 0.89,-0.46 0,-0.09 -0.02,-0.19 -0.04,-0.29 l -1.47,-5.86 c -0.1,-0.41 -0.35,-0.74 -1.25,-0.74 l -0.21,0 -0.05,-0.19 4.04,0 0.05,0.19 -0.38,0 c -0.71,0 -0.94,0.19 -0.94,0.49 0,0.08 0.04,0.17 0.05,0.25 l 0.73,2.99 1.15,0 c 0.34,0 0.83,-0.03 0.83,-0.59 0,-0.21 -0.03,-0.55 -0.06,-0.72 l 0.19,0 0.7,2.86 -0.19,0 c -0.24,-1 -0.79,-1.12 -1.52,-1.12 l -0.98,0 0.73,2.93 1.74,0 c 0.55,0 1.26,-0.11 1.3,-1.03 0,-0.16 0,-0.33 -0.01,-0.43 l 0.19,0 z" style="fill:#000000;stroke-width:0" /></g>  <g id="g6224" transform="matrix(2,0,0,-2,-305.72796,2374.8074)" xml:space="preserve" stroke-miterlimit="10.433" font-style="normal" font-variant="normal" font-weight="normal" font-stretch="normal" font-size-adjust="none" letter-spacing="normal" word-spacing="normal" ns0:text="$G$" ns0:preamble="/Users/prmb/CMEP/underground-inkscape-preamble.tex" style="font-style:normal;font-variant:normal;font-weight:normal;font-stretch:normal;letter-spacing:normal;word-spacing:normal;text-anchor:start;fill:none;fill-opacity:1;fill-rule:evenodd;stroke:#000000;stroke-linecap:butt;stroke-linejoin:miter;stroke-miterlimit:10.43299961;stroke-dasharray:none;stroke-dashoffset:0;stroke-opacity:1"><path d="m 232.1,481.12 -3.7,0 -0.05,-0.19 0.23,0 c 0.72,0 0.88,-0.18 0.88,-0.44 0,-0.08 -0.01,-0.2 -0.03,-0.29 l -0.67,-2.37 c -0.32,-0.21 -0.66,-0.3 -1.15,-0.3 -1.73,0 -2.14,1.14 -2.14,2.11 0,2.12 1.05,5.04 3.76,5.04 1.33,0 1.89,-0.95 1.89,-1.81 0,-0.13 -0.01,-0.26 -0.03,-0.38 l 0.19,0 0.53,2.63 -0.19,0 c -0.03,-0.19 -0.24,-0.44 -0.5,-0.44 -0.26,0 -0.49,0.18 -0.75,0.25 -0.26,0.09 -0.63,0.19 -1.21,0.19 -2.99,0 -5.14,-2.55 -5.14,-5.03 0,-2.11 1.6,-3 3.45,-3 0.74,0 1.63,0 2.56,0.56 l 0.73,2.55 c 0.12,0.42 0.33,0.73 1.34,0.73 z" id="path6226" style="fill:#000000;stroke-width:0" /></g>  <g ns0:preamble="/Users/prmb/CMEP/underground-inkscape-preamble.tex" ns0:text="$H$" word-spacing="normal" letter-spacing="normal" font-size-adjust="none" font-stretch="normal" font-weight="normal" font-variant="normal" font-style="normal" stroke-miterlimit="10.433" xml:space="preserve" transform="matrix(2,0,0,-2,-309.78268,2525.8454)" id="g6522" style="font-style:normal;font-variant:normal;font-weight:normal;font-stretch:normal;letter-spacing:normal;word-spacing:normal;text-anchor:start;fill:none;fill-opacity:1;fill-rule:evenodd;stroke:#000000;stroke-linecap:butt;stroke-linejoin:miter;stroke-miterlimit:10.43299961;stroke-dasharray:none;stroke-dashoffset:0;stroke-opacity:1"><path id="path6524" d="m 234.33,484.94 -3.9,0 -0.04,-0.18 0.23,0 c 0.67,0 0.9,-0.18 0.9,-0.46 0,-0.09 -0.02,-0.17 -0.05,-0.29 l -0.62,-2.56 -3.29,0 0.62,2.56 c 0.09,0.41 0.31,0.75 1.24,0.75 l 0.21,0 0.05,0.18 -3.9,0 -0.05,-0.18 0.24,0 c 0.73,0 0.92,-0.22 0.92,-0.46 0,-0.09 -0.02,-0.22 -0.05,-0.29 l -1.45,-5.85 c -0.09,-0.41 -0.36,-0.74 -1.25,-0.74 l -0.21,0 -0.05,-0.19 3.9,0 0.04,0.19 -0.23,0 c -0.7,0 -0.91,0.17 -0.91,0.45 0,0.1 0.02,0.21 0.05,0.29 l 0.72,2.85 3.3,0 -0.72,-2.85 c -0.1,-0.44 -0.39,-0.74 -1.24,-0.74 l -0.21,0 -0.05,-0.19 3.89,0 0.04,0.19 -0.22,0 c -0.7,0 -0.92,0.16 -0.92,0.41 0,0.11 0.02,0.22 0.05,0.33 l 1.45,5.85 c 0.1,0.41 0.35,0.75 1.25,0.75 l 0.21,0 z" style="fill:#000000;stroke-width:0" /></g>  <path style="fill:none;fill-rule:evenodd;stroke:#000000;stroke-width:1.66005003px;stroke-linecap:butt;stroke-linejoin:miter;stroke-opacity:1" d="m 167.76367,1559.783 99.84726,0" id="path6928" />
  <path style="fill:none;fill-rule:evenodd;stroke:#000000;stroke-width:1.66005003px;stroke-linecap:butt;stroke-linejoin:miter;stroke-opacity:1" d="m 168.2705,1418.375 99.34043,0" id="path6930" />
  <rect y="1559.8215" x="257.89142" height="9.883358" width="9.883358" id="rect6934" style="fill:none;stroke:#000000;stroke-width:0.89974713;stroke-linejoin:miter;stroke-miterlimit:10;stroke-dasharray:none;stroke-dashoffset:0;fill-opacity:1.0;stroke-opacity:1.0" />
  <g style="font-style:normal;font-variant:normal;font-weight:normal;font-stretch:normal;letter-spacing:normal;word-spacing:normal;text-anchor:start;fill:none;fill-opacity:1;fill-rule:evenodd;stroke:#000000;stroke-linecap:butt;stroke-linejoin:miter;stroke-miterlimit:10.43299961;stroke-dasharray:none;stroke-dashoffset:0;stroke-opacity:1" id="g7046" transform="matrix(2,0,0,-2,-299.6459,2447.7887)" xml:space="preserve" stroke-miterlimit="10.433" font-style="normal" font-variant="normal" font-weight="normal" font-stretch="normal" font-size-adjust="none" letter-spacing="normal" word-spacing="normal" ns0:text="$2$" ns0:preamble="/Users/prmb/CMEP/underground-inkscape-preamble.tex"><path style="fill:#000000;stroke-width:0" d="m 229.03,478.85 -0.17,0.07 c -0.39,-0.66 -0.63,-0.79 -1.13,-0.79 l -2.76,0 1.94,2.08 c 1.06,1.11 1.52,1.99 1.52,2.93 0,1.17 -0.85,2.08 -2.19,2.08 -1.45,0 -2.21,-0.97 -2.45,-2.35 l 0.24,-0.06 c 0.48,1.15 0.89,1.53 1.74,1.53 1,0 1.64,-0.59 1.64,-1.66 0,-1.01 -0.42,-1.9 -1.53,-3.07 l -2.11,-2.23 0,-0.15 4.62,0 z" id="path7048" /></g>  <g ns0:preamble="/Users/prmb/CMEP/underground-inkscape-preamble.tex" ns0:text="$2$" word-spacing="normal" letter-spacing="normal" font-size-adjust="none" font-stretch="normal" font-weight="normal" font-variant="normal" font-style="normal" stroke-miterlimit="10.433" xml:space="preserve" transform="matrix(2,0,0,-2,-243.89362,2585.6489)" id="g7160" style="font-style:normal;font-variant:normal;font-weight:normal;font-stretch:normal;letter-spacing:normal;word-spacing:normal;text-anchor:start;fill:none;fill-opacity:1;fill-rule:evenodd;stroke:#000000;stroke-linecap:butt;stroke-linejoin:miter;stroke-miterlimit:10.43299961;stroke-dasharray:none;stroke-dashoffset:0;stroke-opacity:1"><path id="path7162" d="m 229.03,478.85 -0.17,0.07 c -0.39,-0.66 -0.63,-0.79 -1.13,-0.79 l -2.76,0 1.94,2.08 c 1.06,1.11 1.52,1.99 1.52,2.93 0,1.17 -0.85,2.08 -2.19,2.08 -1.45,0 -2.21,-0.97 -2.45,-2.35 l 0.24,-0.06 c 0.48,1.15 0.89,1.53 1.74,1.53 1,0 1.64,-0.59 1.64,-1.66 0,-1.01 -0.42,-1.9 -1.53,-3.07 l -2.11,-2.23 0,-0.15 4.62,0 z" style="fill:#000000;stroke-width:0" /></g>  <g style="font-style:normal;font-variant:normal;font-weight:normal;font-stretch:normal;letter-spacing:normal;word-spacing:normal;text-anchor:start;fill:none;fill-opacity:1;fill-rule:evenodd;stroke:#000000;stroke-linecap:butt;stroke-linejoin:miter;stroke-miterlimit:10.43299961;stroke-dasharray:none;stroke-dashoffset:0;stroke-opacity:1" id="g7164" transform="matrix(2,0,0,-2,-116.17022,2637.3465)" xml:space="preserve" stroke-miterlimit="10.433" font-style="normal" font-variant="normal" font-weight="normal" font-stretch="normal" font-size-adjust="none" letter-spacing="normal" word-spacing="normal" ns0:text="$2$" ns0:preamble="/Users/prmb/CMEP/underground-inkscape-preamble.tex"><path style="fill:#000000;stroke-width:0" d="m 229.03,478.85 -0.17,0.07 c -0.39,-0.66 -0.63,-0.79 -1.13,-0.79 l -2.76,0 1.94,2.08 c 1.06,1.11 1.52,1.99 1.52,2.93 0,1.17 -0.85,2.08 -2.19,2.08 -1.45,0 -2.21,-0.97 -2.45,-2.35 l 0.24,-0.06 c 0.48,1.15 0.89,1.53 1.74,1.53 1,0 1.64,-0.59 1.64,-1.66 0,-1.01 -0.42,-1.9 -1.53,-3.07 l -2.11,-2.23 0,-0.15 4.62,0 z" id="path7166" /></g></svg>