<?xml version='1.0' ?><svg xmlns:ns0="http://www.iki.fi/pav/software/textext/" xmlns:dc="http://purl.org/dc/elements/1.1/" xmlns:cc="http://creativecommons.org/ns#" xmlns:rdf="http://www.w3.org/1999/02/22-rdf-syntax-ns#" xmlns:svg="http://www.w3.org/2000/svg" xmlns="http://www.w3.org/2000/svg" version="1.1" id="svg2" width="492.25671" height="170.61358" viewBox="54.80986400007539 211.39853000029078 492.2567100006771 170.6135800002347" preserveAspectRatio="none">
  <defs id="defs4" />
  <metadata id="metadata7">
    <rdf:RDF>
      <cc:Work rdf:about="">
        <dc:format>image/svg+xml</dc:format>
        <dc:type rdf:resource="http://purl.org/dc/dcmitype/StillImage" />
        <dc:title />
      </cc:Work>
    </rdf:RDF>
  </metadata>
  <g id="layer1">
    <path style="fill:none;fill-rule:evenodd;stroke:#000000;stroke-width:1px;stroke-linecap:butt;stroke-linejoin:miter;stroke-opacity:1" d="M 55.23861,363.43817 146.15234,211.91529" id="path3336" />
    <path style="fill:none;fill-rule:evenodd;stroke:#000000;stroke-width:1px;stroke-linecap:butt;stroke-linejoin:miter;stroke-opacity:1" d="m 54.85714,363.07649 178.57143,-1.42857" id="path3342" />
    <path style="fill:none;fill-rule:evenodd;stroke:#000000;stroke-width:1px;stroke-linecap:butt;stroke-linejoin:miter;stroke-opacity:1" d="m 146.28571,211.64792 87.14286,151.42857" id="path3344" />
    <path style="fill:none;fill-rule:evenodd;stroke:#000000;stroke-width:1px;stroke-linecap:butt;stroke-linejoin:miter;stroke-opacity:1" d="M 146.28571,211.64792 147,362.3622" id="path3346" />
    <g style="font-style:normal;font-variant:normal;font-weight:normal;font-stretch:normal;letter-spacing:normal;word-spacing:normal;text-anchor:start;fill:none;fill-opacity:1;fill-rule:evenodd;stroke:#000000;stroke-width:1.16621947;stroke-linecap:butt;stroke-linejoin:miter;stroke-miterlimit:10.43299961;stroke-dasharray:none;stroke-dashoffset:0;stroke-opacity:1" ns0:preamble="/Users/jonnygriffiths/CMEP/underground-inkscape-preamble.tex" ns0:text="$\\dfrac{\\pi}{6}$" word-spacing="normal" letter-spacing="normal" font-size-adjust="none" font-stretch="normal" font-weight="normal" font-variant="normal" font-style="normal" stroke-miterlimit="10.433" xml:space="preserve" transform="matrix(1.2862073,0,0,-1.2862074,-156.26155,866.49805)" id="content"><path id="path3385" d="m 231.33,487.18 -3.32,0 c -1.23,0 -1.99,-0.54 -2.51,-1.49 l 0.19,0 c 0.52,0.63 0.96,0.63 1.64,0.63 l -1.05,-2.43 c -0.15,-0.35 -0.37,-0.69 -0.87,-0.83 -0.31,-0.08 -0.37,-0.39 -0.37,-0.57 0,-0.28 0.3,-0.52 0.6,-0.52 0.15,0 0.32,0.03 0.45,0.13 0.99,0.75 1.36,2.78 1.9,4.22 l 1.11,0 c -0.29,-0.99 -0.65,-1.82 -0.92,-2.66 -0.07,-0.22 -0.11,-0.46 -0.11,-0.73 0,-0.46 0.21,-0.89 0.68,-0.89 0.82,0 1.45,0.83 1.7,1.68 l -0.19,0 c -0.28,-0.64 -0.61,-0.78 -0.86,-0.78 -0.26,0 -0.45,0.3 -0.45,0.57 0,0.79 0.62,2.3 0.79,2.81 l 1.32,0 z" style="fill:#000000;stroke-width:0" /><line id="line3387" y2="478.84" x2="231.83" y1="478.84" x1="224.63" style="stroke-width:0.86100864" /><path id="path3389" d="m 230.53,476.51 -0.15,-0.02 -0.15,-0.02 -0.14,-0.01 -0.14,-0.02 -0.13,-0.02 -0.14,-0.03 -0.13,-0.02 -0.12,-0.02 -0.12,-0.03 -0.12,-0.03 -0.12,-0.03 -0.12,-0.03 -0.11,-0.03 -0.11,-0.04 -0.11,-0.04 -0.11,-0.04 -0.1,-0.04 -0.1,-0.05 -0.11,-0.05 -0.1,-0.05 -0.1,-0.06 -0.09,-0.06 -0.1,-0.06 -0.1,-0.06 -0.09,-0.07 -0.1,-0.07 -0.09,-0.08 -0.1,-0.08 -0.09,-0.09 -0.1,-0.08 -0.09,-0.1 -0.09,-0.09 c -0.84,-0.87 -1.29,-1.99 -1.29,-3.26 0,-0.83 0.22,-1.67 0.55,-2.27 0.42,-0.75 1.16,-1.19 2.09,-1.19 l 0.13,0.33 c -1.11,0 -1.67,1.18 -1.67,2.97 0,1.09 0.69,1.37 1.37,1.37 1.09,0 1.59,-0.77 1.59,-2.29 l 0,0 c 0,-1.2 -0.44,-2.05 -1.29,-2.05 l -0.13,-0.33 c 0.78,0 1.44,0.32 1.88,0.86 0.39,0.47 0.6,1.13 0.6,1.89 0,1.52 -0.85,2.47 -2.23,2.47 -0.52,0 -0.92,-0.09 -1.5,-0.53 0.32,1.78 1.64,3.05 3.5,3.36 z" style="fill:#000000;stroke-width:0" /></g>    <g ns0:preamble="/Users/jonnygriffiths/CMEP/underground-inkscape-preamble.tex" ns0:text="$\\dfrac{\\pi}{3}$" word-spacing="normal" letter-spacing="normal" font-size-adjust="none" font-stretch="normal" font-weight="normal" font-variant="normal" font-style="normal" stroke-miterlimit="10.433" xml:space="preserve" transform="matrix(1.2023808,0,0,-1.2023808,-191.1458,919.89278)" id="g3463" style="font-style:normal;font-variant:normal;font-weight:normal;font-stretch:normal;letter-spacing:normal;word-spacing:normal;text-anchor:start;fill:none;fill-opacity:1;fill-rule:evenodd;stroke:#000000;stroke-width:1.24752486;stroke-linecap:butt;stroke-linejoin:miter;stroke-miterlimit:10.43299961;stroke-dasharray:none;stroke-dashoffset:0;stroke-opacity:1"><path id="path3465" d="m 231.33,487.18 -3.32,0 c -1.23,0 -1.99,-0.54 -2.51,-1.49 l 0.19,0 c 0.52,0.63 0.96,0.63 1.64,0.63 l -1.05,-2.43 c -0.15,-0.35 -0.37,-0.69 -0.87,-0.83 -0.31,-0.08 -0.37,-0.39 -0.37,-0.57 0,-0.28 0.3,-0.52 0.6,-0.52 0.15,0 0.32,0.03 0.45,0.13 0.99,0.75 1.36,2.78 1.9,4.22 l 1.11,0 c -0.29,-0.99 -0.65,-1.82 -0.92,-2.66 -0.07,-0.22 -0.11,-0.46 -0.11,-0.73 0,-0.46 0.21,-0.89 0.68,-0.89 0.82,0 1.45,0.83 1.7,1.68 l -0.19,0 c -0.28,-0.64 -0.61,-0.78 -0.86,-0.78 -0.26,0 -0.45,0.3 -0.45,0.57 0,0.79 0.62,2.3 0.79,2.81 l 1.32,0 z" style="fill:#000000;stroke-width:0" /><line id="line3467" y2="478.84" x2="231.83" y1="478.84" x1="224.63" style="stroke-width:0.82087135" /><path id="path3469" d="m 225.99,474.55 0.04,0.08 0.05,0.08 0.04,0.07 0.05,0.07 0.05,0.07 0.05,0.07 0.04,0.06 0.05,0.06 0.05,0.06 0.05,0.06 0.05,0.05 0.05,0.05 0.05,0.05 0.06,0.04 0.05,0.04 0.05,0.04 0.06,0.04 0.05,0.04 0.06,0.03 0.06,0.03 0.05,0.02 0.06,0.03 0.06,0.02 0.06,0.02 0.06,0.02 0.06,0.01 0.07,0.01 0.06,0.01 0.07,0.01 0.06,0.01 0.07,0 0.07,0 c 0.78,0 1.27,-0.4 1.27,-1.2 0,-0.72 -0.38,-1.25 -0.95,-1.58 -0.24,-0.15 -0.55,-0.28 -1,-0.43 l 0,-0.17 c 0.68,0 0.95,-0.03 1.21,-0.11 0.81,-0.24 1.23,-0.82 1.23,-1.71 0,-1.01 -0.67,-1.81 -1.54,-1.81 -0.33,0 -0.58,0.06 -1.01,0.36 -0.34,0.24 -0.52,0.31 -0.72,0.31 -0.28,0 -0.49,-0.17 -0.49,-0.42 0,-0.43 0.46,-0.68 1.32,-0.68 1.05,0 2.18,0.35 2.74,1.1 0.34,0.45 0.54,1.03 0.54,1.65 0,0.62 -0.18,1.16 -0.51,1.53 -0.25,0.26 -0.46,0.4 -0.98,0.62 0.79,0.47 1.09,1.07 1.09,1.63 0,0.97 -0.74,1.62 -1.84,1.62 -1.23,0 -1.97,-0.79 -2.31,-1.91 z" style="fill:#000000;stroke-width:0" /></g>    <g style="font-style:normal;font-variant:normal;font-weight:normal;font-stretch:normal;letter-spacing:normal;word-spacing:normal;text-anchor:start;fill:none;fill-opacity:1;fill-rule:evenodd;stroke:#000000;stroke-linecap:butt;stroke-linejoin:miter;stroke-miterlimit:10.43299961;stroke-dasharray:none;stroke-dashoffset:0;stroke-opacity:1" id="g3503" transform="matrix(1.5,0,0,-1.5,-243.71429,1097.8571)" xml:space="preserve" stroke-miterlimit="10.433" font-style="normal" font-variant="normal" font-weight="normal" font-stretch="normal" font-size-adjust="none" letter-spacing="normal" word-spacing="normal" ns0:text="$1$" ns0:preamble="/Users/jonnygriffiths/CMEP/underground-inkscape-preamble.tex"><path style="fill:#000000;stroke-width:0" d="m 228.08,477.23 0,0.18 c -0.88,0 -1.12,0.21 -1.12,0.72 l 0,7.05 -0.1,0.04 -2.12,-1.08 0,-0.16 0.32,0.11 c 0.21,0.09 0.41,0.15 0.53,0.15 0.25,0 0.36,-0.18 0.36,-0.58 l 0,-5.3 c 0,-0.65 -0.25,-0.9 -1.13,-0.95 l 0,-0.18 z" id="path3505" /></g>    <g ns0:preamble="/Users/jonnygriffiths/CMEP/underground-inkscape-preamble.tex" ns0:text="$1$" word-spacing="normal" letter-spacing="normal" font-size-adjust="none" font-stretch="normal" font-weight="normal" font-variant="normal" font-style="normal" stroke-miterlimit="10.433" xml:space="preserve" transform="matrix(1.5,0,0,-1.5,-151.57143,1095.7143)" id="g3543" style="font-style:normal;font-variant:normal;font-weight:normal;font-stretch:normal;letter-spacing:normal;word-spacing:normal;text-anchor:start;fill:none;fill-opacity:1;fill-rule:evenodd;stroke:#000000;stroke-linecap:butt;stroke-linejoin:miter;stroke-miterlimit:10.43299961;stroke-dasharray:none;stroke-dashoffset:0;stroke-opacity:1"><path id="path3545" d="m 228.08,477.23 0,0.18 c -0.88,0 -1.12,0.21 -1.12,0.72 l 0,7.05 -0.1,0.04 -2.12,-1.08 0,-0.16 0.32,0.11 c 0.21,0.09 0.41,0.15 0.53,0.15 0.25,0 0.36,-0.18 0.36,-0.58 l 0,-5.3 c 0,-0.65 -0.25,-0.9 -1.13,-0.95 l 0,-0.18 z" style="fill:#000000;stroke-width:0" /></g>    <g style="font-style:normal;font-variant:normal;font-weight:normal;font-stretch:normal;letter-spacing:normal;word-spacing:normal;text-anchor:start;fill:none;fill-opacity:1;fill-rule:evenodd;stroke:#000000;stroke-linecap:butt;stroke-linejoin:miter;stroke-miterlimit:10.43299961;stroke-dasharray:none;stroke-dashoffset:0;stroke-opacity:1" id="g3587" transform="matrix(1.5,0,0,-1.5,-251.57143,999.28571)" xml:space="preserve" stroke-miterlimit="10.433" font-style="normal" font-variant="normal" font-weight="normal" font-stretch="normal" font-size-adjust="none" letter-spacing="normal" word-spacing="normal" ns0:text="$2$" ns0:preamble="/Users/jonnygriffiths/CMEP/underground-inkscape-preamble.tex"><path style="fill:#000000;stroke-width:0" d="m 229.03,478.85 -0.17,0.07 c -0.39,-0.66 -0.63,-0.79 -1.13,-0.79 l -2.76,0 1.94,2.08 c 1.06,1.11 1.52,1.99 1.52,2.93 0,1.17 -0.85,2.08 -2.19,2.08 -1.45,0 -2.21,-0.97 -2.45,-2.35 l 0.24,-0.06 c 0.48,1.15 0.89,1.53 1.74,1.53 1,0 1.64,-0.59 1.64,-1.66 0,-1.01 -0.42,-1.9 -1.53,-3.07 l -2.11,-2.23 0,-0.15 4.62,0 z" id="path3589" /></g>    <g ns0:preamble="/Users/jonnygriffiths/CMEP/underground-inkscape-preamble.tex" ns0:text="$2$" word-spacing="normal" letter-spacing="normal" font-size-adjust="none" font-stretch="normal" font-weight="normal" font-variant="normal" font-style="normal" stroke-miterlimit="10.433" xml:space="preserve" transform="matrix(1.5,0,0,-1.5,-137.28571,998.57143)" id="g3635" style="font-style:normal;font-variant:normal;font-weight:normal;font-stretch:normal;letter-spacing:normal;word-spacing:normal;text-anchor:start;fill:none;fill-opacity:1;fill-rule:evenodd;stroke:#000000;stroke-linecap:butt;stroke-linejoin:miter;stroke-miterlimit:10.43299961;stroke-dasharray:none;stroke-dashoffset:0;stroke-opacity:1"><path id="path3637" d="m 229.03,478.85 -0.17,0.07 c -0.39,-0.66 -0.63,-0.79 -1.13,-0.79 l -2.76,0 1.94,2.08 c 1.06,1.11 1.52,1.99 1.52,2.93 0,1.17 -0.85,2.08 -2.19,2.08 -1.45,0 -2.21,-0.97 -2.45,-2.35 l 0.24,-0.06 c 0.48,1.15 0.89,1.53 1.74,1.53 1,0 1.64,-0.59 1.64,-1.66 0,-1.01 -0.42,-1.9 -1.53,-3.07 l -2.11,-2.23 0,-0.15 4.62,0 z" style="fill:#000000;stroke-width:0" /></g>    <path style="fill:none;fill-rule:evenodd;stroke:#000000;stroke-width:1px;stroke-linecap:butt;stroke-linejoin:miter;stroke-opacity:1" d="m 135.92857,362.36218 0,-10.35714" id="path3662" />
    <path style="fill:none;fill-rule:evenodd;stroke:#000000;stroke-width:1px;stroke-linecap:butt;stroke-linejoin:miter;stroke-opacity:1" d="m 135.57143,352.00504 10.71428,0" id="path3664" />
    <path style="fill:none;fill-rule:evenodd;stroke:#000000;stroke-width:1px;stroke-linecap:butt;stroke-linejoin:miter;stroke-opacity:1" d="m 292.0351,315.55691 226.98127,-2.82842" id="path3666" />
    <path style="fill:none;fill-rule:evenodd;stroke:#000000;stroke-width:1px;stroke-linecap:butt;stroke-linejoin:miter;stroke-opacity:1" d="M 291.32799,315.55691 518.30927,295.05082" id="path3668" />
    <path style="fill:none;fill-rule:evenodd;stroke:#000000;stroke-width:1px;stroke-linecap:butt;stroke-linejoin:miter;stroke-opacity:1" d="m 518.66282,312.90526 -0.35355,-17.85444" id="path3672" />
    <path style="fill:none;fill-rule:evenodd;stroke:#000000;stroke-width:1px;stroke-linecap:butt;stroke-linejoin:miter;stroke-opacity:1" d="m 514.59696,312.19816 0,-4.06587" id="path3674" />
    <path style="fill:none;fill-rule:evenodd;stroke:#000000;stroke-width:1px;stroke-linecap:butt;stroke-linejoin:miter;stroke-opacity:1" d="m 514.2434,308.48585 4.24264,0.17677" id="path3676" />
    <g style="font-style:normal;font-variant:normal;font-weight:normal;font-stretch:normal;letter-spacing:normal;word-spacing:normal;text-anchor:start;fill:none;fill-opacity:1;fill-rule:evenodd;stroke:#000000;stroke-linecap:butt;stroke-linejoin:miter;stroke-miterlimit:10.43299961;stroke-dasharray:none;stroke-dashoffset:0;stroke-opacity:1" id="g3710" transform="matrix(1.5,0,0,-1.5,133.65685,974.33095)" xml:space="preserve" stroke-miterlimit="10.433" font-style="normal" font-variant="normal" font-weight="normal" font-stretch="normal" font-size-adjust="none" letter-spacing="normal" word-spacing="normal" ns0:text="$\\approx \\dfrac{\\pi}{2}$" ns0:preamble="/Users/jonnygriffiths/CMEP/underground-inkscape-preamble.tex"><path style="fill:#000000;stroke-width:0" d="m 230.56,481.96 -0.03,-0.16 -0.02,-0.08 -0.02,-0.07 -0.03,-0.08 -0.02,-0.07 -0.03,-0.08 -0.02,-0.07 -0.03,-0.07 -0.03,-0.07 -0.03,-0.07 -0.04,-0.07 -0.03,-0.06 -0.04,-0.06 -0.04,-0.06 -0.04,-0.06 -0.04,-0.06 -0.05,-0.05 -0.04,-0.05 -0.05,-0.05 -0.05,-0.04 -0.05,-0.04 -0.06,-0.04 -0.05,-0.04 -0.06,-0.03 -0.06,-0.02 -0.07,-0.03 -0.06,-0.02 -0.07,-0.01 -0.07,-0.01 -0.07,-0.01 -0.08,0 c -0.86,0 -2.12,1.51 -3.26,1.51 -1.15,0 -1.86,-1.23 -1.92,-2.41 l 0.39,0 c 0.19,0.84 0.62,1.63 1.45,1.63 0.85,0 2.11,-1.51 3.25,-1.51 1.15,0 1.79,1.4 1.86,2.41 z" id="path3712" /><path style="fill:#000000;stroke-width:0" d="m 230.56,479.17 -0.03,-0.16 -0.02,-0.07 -0.02,-0.08 -0.03,-0.08 -0.02,-0.07 -0.03,-0.07 -0.02,-0.08 -0.03,-0.07 -0.03,-0.07 -0.03,-0.07 -0.04,-0.06 -0.03,-0.07 -0.04,-0.06 -0.04,-0.06 -0.04,-0.06 -0.04,-0.05 -0.05,-0.06 -0.04,-0.05 -0.05,-0.04 -0.05,-0.05 -0.05,-0.04 -0.06,-0.04 -0.05,-0.03 -0.06,-0.03 -0.06,-0.03 -0.07,-0.02 -0.06,-0.02 -0.07,-0.02 -0.07,-0.01 -0.07,-0.01 -0.08,0 c -0.86,0 -2.12,1.51 -3.26,1.51 -1.15,0 -1.86,-1.22 -1.92,-2.41 l 0.39,0 c 0.19,0.84 0.62,1.63 1.45,1.63 0.85,0 2.11,-1.51 3.25,-1.51 1.15,0 1.79,1.41 1.86,2.41 z" id="path3714" /><path style="fill:#000000;stroke-width:0" d="m 242.22,487.18 -3.33,0 c -1.23,0 -1.99,-0.54 -2.51,-1.49 l 0.19,0 c 0.52,0.63 0.96,0.63 1.64,0.63 l -1.05,-2.43 c -0.15,-0.35 -0.36,-0.69 -0.87,-0.83 -0.31,-0.08 -0.37,-0.39 -0.37,-0.57 0,-0.28 0.3,-0.52 0.61,-0.52 0.14,0 0.32,0.03 0.45,0.13 0.99,0.75 1.35,2.78 1.9,4.22 l 1.11,0 c -0.3,-0.99 -0.65,-1.82 -0.92,-2.66 -0.08,-0.22 -0.11,-0.46 -0.11,-0.73 0,-0.46 0.2,-0.89 0.67,-0.89 0.83,0 1.45,0.83 1.7,1.68 l -0.19,0 c -0.28,-0.64 -0.61,-0.78 -0.86,-0.78 -0.26,0 -0.45,0.3 -0.45,0.57 0,0.79 0.63,2.3 0.79,2.81 l 1.33,0 z" id="path3716" /><line style="stroke-width:0.65799999" x1="235.50999" y1="478.84" x2="242.71001" y2="478.84" id="line3718" /><path style="fill:#000000;stroke-width:0" d="m 241.75,470.15 -0.17,0.07 c -0.39,-0.66 -0.64,-0.79 -1.13,-0.79 l -2.76,0 1.94,2.07 c 1.05,1.11 1.52,2 1.52,2.93 0,1.17 -0.86,2.08 -2.19,2.08 -1.45,0 -2.21,-0.97 -2.45,-2.35 l 0.24,-0.06 c 0.48,1.16 0.89,1.54 1.74,1.54 1,0 1.64,-0.59 1.64,-1.67 0,-1 -0.42,-1.9 -1.53,-3.07 l -2.11,-2.23 0,-0.14 4.62,0 z" id="path3720" /></g>    <g ns0:preamble="/Users/jonnygriffiths/CMEP/underground-inkscape-preamble.tex" ns0:text="$\\approx 0$" word-spacing="normal" letter-spacing="normal" font-size-adjust="none" font-stretch="normal" font-weight="normal" font-variant="normal" font-style="normal" stroke-miterlimit="10.433" xml:space="preserve" transform="matrix(1.5,0,0,-1.5,-20.343146,1004.331)" id="g3796" style="font-style:normal;font-variant:normal;font-weight:normal;font-stretch:normal;letter-spacing:normal;word-spacing:normal;text-anchor:start;fill:none;fill-opacity:1;fill-rule:evenodd;stroke:#000000;stroke-linecap:butt;stroke-linejoin:miter;stroke-miterlimit:10.43299961;stroke-dasharray:none;stroke-dashoffset:0;stroke-opacity:1"><path id="path3798" d="m 230.56,482.84 -0.03,-0.15 -0.02,-0.08 -0.02,-0.08 -0.03,-0.07 -0.02,-0.08 -0.03,-0.07 -0.02,-0.08 -0.03,-0.07 -0.03,-0.07 -0.03,-0.06 -0.04,-0.07 -0.03,-0.07 -0.04,-0.06 -0.04,-0.06 -0.04,-0.06 -0.04,-0.05 -0.05,-0.05 -0.04,-0.05 -0.05,-0.05 -0.05,-0.05 -0.05,-0.04 -0.06,-0.03 -0.05,-0.04 -0.06,-0.03 -0.06,-0.03 -0.07,-0.02 -0.06,-0.02 -0.07,-0.02 -0.07,-0.01 -0.07,0 -0.08,-0.01 c -0.86,0 -2.12,1.52 -3.26,1.52 -1.15,0 -1.86,-1.23 -1.92,-2.41 l 0.39,0 c 0.19,0.83 0.62,1.63 1.45,1.63 0.85,0 2.11,-1.52 3.25,-1.52 1.15,0 1.79,1.41 1.86,2.41 z" style="fill:#000000;stroke-width:0" /><path id="path3800" d="m 230.56,480.06 -0.03,-0.16 -0.02,-0.08 -0.02,-0.07 -0.03,-0.08 -0.02,-0.07 -0.03,-0.08 -0.02,-0.07 -0.03,-0.07 -0.03,-0.07 -0.03,-0.07 -0.04,-0.07 -0.03,-0.06 -0.04,-0.06 -0.04,-0.06 -0.04,-0.06 -0.04,-0.06 -0.05,-0.05 -0.04,-0.05 -0.05,-0.05 -0.05,-0.04 -0.05,-0.04 -0.06,-0.04 -0.05,-0.04 -0.06,-0.03 -0.06,-0.02 -0.07,-0.03 -0.06,-0.02 -0.07,-0.01 -0.07,-0.01 -0.07,-0.01 -0.08,0 c -0.86,0 -2.12,1.51 -3.26,1.51 -1.15,0 -1.86,-1.23 -1.92,-2.41 l 0.39,0 c 0.19,0.84 0.62,1.63 1.45,1.63 0.85,0 2.11,-1.51 3.25,-1.51 1.15,0 1.79,1.4 1.86,2.41 z" style="fill:#000000;stroke-width:0" /><path id="path3802" d="m 239.93,481.13 -0.01,0.23 0,0.22 -0.02,0.21 -0.02,0.21 -0.03,0.21 -0.03,0.2 -0.04,0.19 -0.04,0.19 -0.05,0.18 -0.06,0.18 -0.06,0.17 -0.06,0.17 -0.07,0.16 -0.08,0.15 -0.08,0.14 -0.08,0.14 -0.09,0.13 -0.09,0.13 -0.1,0.11 -0.1,0.11 -0.11,0.1 -0.11,0.1 -0.11,0.08 -0.12,0.08 -0.12,0.07 -0.13,0.06 -0.12,0.05 -0.14,0.04 -0.13,0.03 -0.14,0.03 -0.14,0.01 -0.14,0.01 c -1.9,0 -2.72,-1.93 -2.72,-4.02 0,-1.93 0.65,-4.13 2.67,-4.13 l 0,0.31 c -1.02,0 -1.53,1.34 -1.53,3.74 0,2.4 0.53,3.79 1.51,3.79 1.03,0 1.55,-1.38 1.55,-3.84 l 0,0 c 0,-2.34 -0.53,-3.69 -1.53,-3.69 l 0,-0.31 c 1.92,0 2.67,2.03 2.67,4.06 z" style="fill:#000000;stroke-width:0" /></g>    <g style="font-style:normal;font-variant:normal;font-weight:normal;font-stretch:normal;letter-spacing:normal;word-spacing:normal;text-anchor:start;fill:none;fill-opacity:1;fill-rule:evenodd;stroke:#000000;stroke-linecap:butt;stroke-linejoin:miter;stroke-miterlimit:10.43299961;stroke-dasharray:none;stroke-dashoffset:0;stroke-opacity:1" id="g3886" transform="matrix(1.5,0,0,-1.5,69.313708,1012.2305)" xml:space="preserve" stroke-miterlimit="10.433" font-style="normal" font-variant="normal" font-weight="normal" font-stretch="normal" font-size-adjust="none" letter-spacing="normal" word-spacing="normal" ns0:text="$1$" ns0:preamble="/Users/jonnygriffiths/CMEP/underground-inkscape-preamble.tex"><path style="fill:#000000;stroke-width:0" d="m 228.08,477.23 0,0.18 c -0.88,0 -1.12,0.21 -1.12,0.72 l 0,7.05 -0.1,0.04 -2.12,-1.08 0,-0.16 0.32,0.11 c 0.21,0.09 0.41,0.15 0.53,0.15 0.25,0 0.36,-0.18 0.36,-0.58 l 0,-5.3 c 0,-0.65 -0.25,-0.9 -1.13,-0.95 l 0,-0.18 z" id="path3888" /></g>    <g ns0:preamble="/Users/jonnygriffiths/CMEP/underground-inkscape-preamble.tex" ns0:text="$\\approx 1$" word-spacing="normal" letter-spacing="normal" font-size-adjust="none" font-stretch="normal" font-weight="normal" font-variant="normal" font-style="normal" stroke-miterlimit="10.433" xml:space="preserve" transform="matrix(1.5,0,0,-1.5,74.363961,1047.5026)" id="g3976" style="font-style:normal;font-variant:normal;font-weight:normal;font-stretch:normal;letter-spacing:normal;word-spacing:normal;text-anchor:start;fill:none;fill-opacity:1;fill-rule:evenodd;stroke:#000000;stroke-linecap:butt;stroke-linejoin:miter;stroke-miterlimit:10.43299961;stroke-dasharray:none;stroke-dashoffset:0;stroke-opacity:1"><path id="path3978" d="m 230.56,482.84 -0.03,-0.15 -0.02,-0.08 -0.02,-0.08 -0.03,-0.07 -0.02,-0.08 -0.03,-0.07 -0.02,-0.08 -0.03,-0.07 -0.03,-0.07 -0.03,-0.06 -0.04,-0.07 -0.03,-0.07 -0.04,-0.06 -0.04,-0.06 -0.04,-0.06 -0.04,-0.05 -0.05,-0.05 -0.04,-0.05 -0.05,-0.05 -0.05,-0.05 -0.05,-0.04 -0.06,-0.03 -0.05,-0.04 -0.06,-0.03 -0.06,-0.03 -0.07,-0.02 -0.06,-0.02 -0.07,-0.02 -0.07,-0.01 -0.07,0 -0.08,-0.01 c -0.86,0 -2.12,1.52 -3.26,1.52 -1.15,0 -1.86,-1.23 -1.92,-2.41 l 0.39,0 c 0.19,0.83 0.62,1.63 1.45,1.63 0.85,0 2.11,-1.52 3.25,-1.52 1.15,0 1.79,1.41 1.86,2.41 z" style="fill:#000000;stroke-width:0" /><path id="path3980" d="m 230.56,480.06 -0.03,-0.16 -0.02,-0.08 -0.02,-0.07 -0.03,-0.08 -0.02,-0.07 -0.03,-0.08 -0.02,-0.07 -0.03,-0.07 -0.03,-0.07 -0.03,-0.07 -0.04,-0.07 -0.03,-0.06 -0.04,-0.06 -0.04,-0.06 -0.04,-0.06 -0.04,-0.06 -0.05,-0.05 -0.04,-0.05 -0.05,-0.05 -0.05,-0.04 -0.05,-0.04 -0.06,-0.04 -0.05,-0.04 -0.06,-0.03 -0.06,-0.02 -0.07,-0.03 -0.06,-0.02 -0.07,-0.01 -0.07,-0.01 -0.07,-0.01 -0.08,0 c -0.86,0 -2.12,1.51 -3.26,1.51 -1.15,0 -1.86,-1.23 -1.92,-2.41 l 0.39,0 c 0.19,0.84 0.62,1.63 1.45,1.63 0.85,0 2.11,-1.51 3.25,-1.51 1.15,0 1.79,1.4 1.86,2.41 z" style="fill:#000000;stroke-width:0" /><path id="path3982" d="m 238.96,477.23 0,0.18 c -0.89,0 -1.12,0.21 -1.12,0.72 l 0,7.05 -0.11,0.04 -2.11,-1.08 0,-0.16 0.32,0.11 c 0.21,0.09 0.41,0.15 0.53,0.15 0.25,0 0.35,-0.18 0.35,-0.58 l 0,-5.3 c 0,-0.65 -0.25,-0.9 -1.12,-0.95 l 0,-0.18 z" style="fill:#000000;stroke-width:0" /></g>    <g style="font-style:normal;font-variant:normal;font-weight:normal;font-stretch:normal;letter-spacing:normal;word-spacing:normal;text-anchor:start;fill:none;fill-opacity:1;fill-rule:evenodd;stroke:#000000;stroke-linecap:butt;stroke-linejoin:miter;stroke-miterlimit:10.43299961;stroke-dasharray:none;stroke-dashoffset:0;stroke-opacity:1" id="g4078" transform="matrix(1.5,0,0,-1.5,187.17157,1024.2097)" xml:space="preserve" stroke-miterlimit="10.433" font-style="normal" font-variant="normal" font-weight="normal" font-stretch="normal" font-size-adjust="none" letter-spacing="normal" word-spacing="normal" ns0:text="$\\approx 0$" ns0:preamble="/Users/jonnygriffiths/CMEP/underground-inkscape-preamble.tex"><path style="fill:#000000;stroke-width:0" d="m 230.56,482.84 -0.03,-0.15 -0.02,-0.08 -0.02,-0.08 -0.03,-0.07 -0.02,-0.08 -0.03,-0.07 -0.02,-0.08 -0.03,-0.07 -0.03,-0.07 -0.03,-0.06 -0.04,-0.07 -0.03,-0.07 -0.04,-0.06 -0.04,-0.06 -0.04,-0.06 -0.04,-0.05 -0.05,-0.05 -0.04,-0.05 -0.05,-0.05 -0.05,-0.05 -0.05,-0.04 -0.06,-0.03 -0.05,-0.04 -0.06,-0.03 -0.06,-0.03 -0.07,-0.02 -0.06,-0.02 -0.07,-0.02 -0.07,-0.01 -0.07,0 -0.08,-0.01 c -0.86,0 -2.12,1.52 -3.26,1.52 -1.15,0 -1.86,-1.23 -1.92,-2.41 l 0.39,0 c 0.19,0.83 0.62,1.63 1.45,1.63 0.85,0 2.11,-1.52 3.25,-1.52 1.15,0 1.79,1.41 1.86,2.41 z" id="path4080" /><path style="fill:#000000;stroke-width:0" d="m 230.56,480.06 -0.03,-0.16 -0.02,-0.08 -0.02,-0.07 -0.03,-0.08 -0.02,-0.07 -0.03,-0.08 -0.02,-0.07 -0.03,-0.07 -0.03,-0.07 -0.03,-0.07 -0.04,-0.07 -0.03,-0.06 -0.04,-0.06 -0.04,-0.06 -0.04,-0.06 -0.04,-0.06 -0.05,-0.05 -0.04,-0.05 -0.05,-0.05 -0.05,-0.04 -0.05,-0.04 -0.06,-0.04 -0.05,-0.04 -0.06,-0.03 -0.06,-0.02 -0.07,-0.03 -0.06,-0.02 -0.07,-0.01 -0.07,-0.01 -0.07,-0.01 -0.08,0 c -0.86,0 -2.12,1.51 -3.26,1.51 -1.15,0 -1.86,-1.23 -1.92,-2.41 l 0.39,0 c 0.19,0.84 0.62,1.63 1.45,1.63 0.85,0 2.11,-1.51 3.25,-1.51 1.15,0 1.79,1.4 1.86,2.41 z" id="path4082" /><path style="fill:#000000;stroke-width:0" d="m 239.93,481.13 -0.01,0.23 0,0.22 -0.02,0.21 -0.02,0.21 -0.03,0.21 -0.03,0.2 -0.04,0.19 -0.04,0.19 -0.05,0.18 -0.06,0.18 -0.06,0.17 -0.06,0.17 -0.07,0.16 -0.08,0.15 -0.08,0.14 -0.08,0.14 -0.09,0.13 -0.09,0.13 -0.1,0.11 -0.1,0.11 -0.11,0.1 -0.11,0.1 -0.11,0.08 -0.12,0.08 -0.12,0.07 -0.13,0.06 -0.12,0.05 -0.14,0.04 -0.13,0.03 -0.14,0.03 -0.14,0.01 -0.14,0.01 c -1.9,0 -2.72,-1.93 -2.72,-4.02 0,-1.93 0.65,-4.13 2.67,-4.13 l 0,0.31 c -1.02,0 -1.53,1.34 -1.53,3.74 0,2.4 0.53,3.79 1.51,3.79 1.03,0 1.55,-1.38 1.55,-3.84 l 0,0 c 0,-2.34 -0.53,-3.69 -1.53,-3.69 l 0,-0.31 c 1.92,0 2.67,2.03 2.67,4.06 z" id="path4084" /></g>    <path id="path4136" d="m 328.80465,293.63661 2.12132,14.14213" style="fill:none;fill-rule:evenodd;stroke:#000000;stroke-width:1px;stroke-linecap:butt;stroke-linejoin:miter;stroke-opacity:1" />
    <path id="path4140" d="m 502.04582,273.13051 7.77817,18.38478" style="fill:none;fill-rule:evenodd;stroke:#000000;stroke-width:1px;stroke-linecap:butt;stroke-linejoin:miter;stroke-opacity:1" />
    <g style="font-style:normal;font-variant:normal;font-weight:normal;font-stretch:normal;letter-spacing:normal;word-spacing:normal;text-anchor:start;fill:none;fill-opacity:1;fill-rule:evenodd;stroke:#000000;stroke-linecap:butt;stroke-linejoin:miter;stroke-miterlimit:10.43299961;stroke-dasharray:none;stroke-dashoffset:0;stroke-opacity:1" id="g4339" transform="matrix(1.5,0,0,-1.5,-187.57002,1021.0553)" xml:space="preserve" stroke-miterlimit="10.433" font-style="normal" font-variant="normal" font-weight="normal" font-stretch="normal" font-size-adjust="none" letter-spacing="normal" word-spacing="normal" ns0:text="$\\sqrt{3}$" ns0:preamble="/Users/jonnygriffiths/CMEP/underground-inkscape-preamble.tex"><path style="fill:#000000;stroke-width:0" d="m 234.8,486.5 -0.64,0 -4.88,-12.59 -0.05,0 -2.41,6.33 -0.22,0 -1.85,-1.46 0.15,-0.24 c 0.26,0.24 0.56,0.37 0.76,0.37 0.3,0 0.54,-0.17 0.74,-0.7 l 2.38,-6.26 0.38,0 z" id="path4341" /><line style="stroke-width:0.65799999" x1="234.42999" y1="486.20999" x2="240.35001" y2="486.20999" id="line4343" /><path style="fill:#000000;stroke-width:0" d="m 235.15,480.6 0.04,0.08 0.05,0.08 0.04,0.08 0.05,0.07 0.05,0.07 0.05,0.06 0.04,0.07 0.05,0.06 0.05,0.06 0.05,0.05 0.05,0.05 0.05,0.05 0.05,0.05 0.06,0.05 0.05,0.04 0.05,0.04 0.06,0.03 0.05,0.04 0.06,0.03 0.06,0.03 0.05,0.03 0.06,0.02 0.06,0.02 0.06,0.02 0.06,0.02 0.06,0.02 0.07,0.01 0.06,0.01 0.07,0.01 0.06,0 0.07,0 0.07,0.01 c 0.78,0 1.27,-0.41 1.27,-1.21 0,-0.72 -0.38,-1.25 -0.95,-1.58 -0.24,-0.14 -0.55,-0.27 -1,-0.43 l 0,-0.16 c 0.68,0 0.95,-0.04 1.21,-0.12 0.81,-0.24 1.22,-0.81 1.22,-1.71 0,-1 -0.66,-1.81 -1.53,-1.81 -0.33,0 -0.58,0.06 -1.01,0.37 -0.33,0.24 -0.52,0.31 -0.72,0.31 -0.28,0 -0.49,-0.18 -0.49,-0.43 0,-0.42 0.46,-0.67 1.32,-0.67 1.05,0 2.18,0.34 2.74,1.1 0.35,0.44 0.54,1.02 0.54,1.65 0,0.61 -0.18,1.16 -0.51,1.52 -0.25,0.26 -0.46,0.4 -0.98,0.63 0.79,0.47 1.09,1.06 1.09,1.63 0,0.96 -0.74,1.61 -1.84,1.61 -1.23,0 -1.97,-0.79 -2.31,-1.91 z" id="path4345" /></g>  </g>
</svg>