<?xml version='1.0' ?><svg xmlns:ns0="http://www.iki.fi/pav/software/textext/" xmlns:dc="http://purl.org/dc/elements/1.1/" xmlns:cc="http://creativecommons.org/ns#" xmlns:rdf="http://www.w3.org/1999/02/22-rdf-syntax-ns#" xmlns:svg="http://www.w3.org/2000/svg" xmlns="http://www.w3.org/2000/svg" id="svg2" version="1.1" width="264.06252" height="217.1875" viewBox="503.95556383888237 267.003667823137 537.3406951317527 441.95473944552043" preserveAspectRatio="none">
  <metadata id="metadata353">
    <rdf:RDF>
      <cc:Work rdf:about="">
        <dc:format>image/svg+xml</dc:format>
        <dc:type rdf:resource="http://purl.org/dc/dcmitype/StillImage" />
        <dc:title />
      </cc:Work>
    </rdf:RDF>
  </metadata>
  <defs id="defs351">
    <clipPath id="clipPath6194" clipPathUnits="userSpaceOnUse">
      <rect ry="1.2648628" y="66.476357" x="145.89438" height="503.5787" width="680.79633" id="rect6196" style="fill:#2b83ba;fill-rule:nonzero;stroke:#000000;stroke-width:2.54362416;stroke-linecap:square;stroke-linejoin:round;stroke-miterlimit:4;stroke-dasharray:none;stroke-dashoffset:0;fill-opacity:1.0;stroke-opacity:1.0" />
    </clipPath>
    <clipPath id="clipPath6198" clipPathUnits="userSpaceOnUse">
      <rect ry="1.2648628" y="66.476357" x="145.89438" height="503.5787" width="680.79633" id="rect6200" style="fill:#2b83ba;fill-rule:nonzero;stroke:#000000;stroke-width:2.54362416;stroke-linecap:square;stroke-linejoin:round;stroke-miterlimit:4;stroke-dasharray:none;stroke-dashoffset:0;fill-opacity:1.0;stroke-opacity:1.0" />
    </clipPath>
    <clipPath id="clipPath6202" clipPathUnits="userSpaceOnUse">
      <rect ry="1.2733519" y="154.13274" x="158.78767" height="506.9585" width="685.36548" id="rect6204" style="fill:#2b83ba;fill-rule:nonzero;stroke:#000000;stroke-width:2.5436244;stroke-linecap:square;stroke-linejoin:round;stroke-miterlimit:4;stroke-dasharray:none;stroke-dashoffset:0;fill-opacity:1.0;stroke-opacity:1.0" />
    </clipPath>
    <clipPath id="clipPath4595" clipPathUnits="userSpaceOnUse">
      <rect ry="6.7415757" y="-4.9356475" x="95.050278" height="443.44275" width="657.18854" id="rect4597" style="fill:#ff0000;fill-rule:nonzero;stroke:#000000;stroke-width:4.06979895;stroke-linecap:square;stroke-linejoin:round;stroke-miterlimit:4;stroke-dasharray:none;stroke-dashoffset:0;fill-opacity:1.0;stroke-opacity:1.0" />
    </clipPath>
    <clipPath id="clipPath4599" clipPathUnits="userSpaceOnUse">
      <rect ry="3.3707879" y="107.06879" x="75.992554" height="221.72137" width="328.59427" id="rect4601" style="fill:#ff0000;fill-rule:nonzero;stroke:#000000;stroke-width:4.06979895;stroke-linecap:square;stroke-linejoin:round;stroke-miterlimit:4;stroke-dasharray:none;stroke-dashoffset:0;fill-opacity:1.0;stroke-opacity:1.0" />
    </clipPath>
    <clipPath id="clipPath4737" clipPathUnits="userSpaceOnUse">
      <rect transform="scale(1,-1)" ry="3.6459656" y="-547.2962" x="90.060486" height="117.85446" width="142.86676" id="rect4739" style="fill:#ff0000;fill-rule:nonzero;stroke:#000000;stroke-width:4.06979895;stroke-linecap:square;stroke-linejoin:round;stroke-miterlimit:4;stroke-dasharray:none;stroke-dashoffset:0;fill-opacity:1.0;stroke-opacity:1.0" />
    </clipPath>
    <clipPath id="clipPath4741" clipPathUnits="userSpaceOnUse">
      <rect transform="scale(1,-1)" ry="3.6459668" y="-485.86713" x="161.28189" height="117.8545" width="142.86676" id="rect4743" style="fill:#ff0000;fill-rule:nonzero;stroke:#000000;stroke-width:4.06979895;stroke-linecap:square;stroke-linejoin:round;stroke-miterlimit:4;stroke-dasharray:none;stroke-dashoffset:0;fill-opacity:1.0;stroke-opacity:1.0" />
    </clipPath>
    <clipPath id="clipPath4745" clipPathUnits="userSpaceOnUse">
      <rect ry="13.718421" y="-6.5307522" x="95.050278" height="443.44275" width="537.55475" id="rect4747" style="fill:#ff0000;fill-rule:nonzero;stroke:#000000;stroke-width:4.06979895;stroke-linecap:square;stroke-linejoin:round;stroke-miterlimit:4;stroke-dasharray:none;stroke-dashoffset:0;fill-opacity:1.0;stroke-opacity:1.0" />
    </clipPath>
    <clipPath id="clipPath4749" clipPathUnits="userSpaceOnUse">
      <rect ry="13.718421" y="-6.5307522" x="95.050278" height="443.44275" width="537.55475" id="rect4751" style="fill:#ff0000;fill-rule:nonzero;stroke:#000000;stroke-width:4.06979895;stroke-linecap:square;stroke-linejoin:round;stroke-miterlimit:4;stroke-dasharray:none;stroke-dashoffset:0;fill-opacity:1.0;stroke-opacity:1.0" />
    </clipPath>
    <clipPath id="clipPath4753" clipPathUnits="userSpaceOnUse">
      <rect ry="13.718421" y="-6.5307522" x="95.050278" height="443.44275" width="537.55475" id="rect4755" style="fill:#ff0000;fill-rule:nonzero;stroke:#000000;stroke-width:4.06979895;stroke-linecap:square;stroke-linejoin:round;stroke-miterlimit:4;stroke-dasharray:none;stroke-dashoffset:0;fill-opacity:1.0;stroke-opacity:1.0" />
    </clipPath>
    <clipPath id="clipPath4757" clipPathUnits="userSpaceOnUse">
      <rect ry="13.718421" y="-6.5307522" x="95.050278" height="443.44275" width="537.55475" id="rect4759" style="fill:#ff0000;fill-rule:nonzero;stroke:#000000;stroke-width:4.06979895;stroke-linecap:square;stroke-linejoin:round;stroke-miterlimit:4;stroke-dasharray:none;stroke-dashoffset:0;fill-opacity:1.0;stroke-opacity:1.0" />
    </clipPath>
    <clipPath id="clipPath4761" clipPathUnits="userSpaceOnUse">
      <rect ry="6.8592105" y="67.639511" x="227.54782" height="221.72137" width="268.77737" id="rect4763" style="fill:#ff0000;fill-rule:nonzero;stroke:#000000;stroke-width:4.06979895;stroke-linecap:square;stroke-linejoin:round;stroke-miterlimit:4;stroke-dasharray:none;stroke-dashoffset:0;fill-opacity:1.0;stroke-opacity:1.0" />
    </clipPath>
    <clipPath id="clipPath4765" clipPathUnits="userSpaceOnUse">
      <rect ry="13.718421" y="-6.5307522" x="95.050278" height="443.44275" width="537.55475" id="rect4767" style="fill:#ff0000;fill-rule:nonzero;stroke:#000000;stroke-width:4.06979895;stroke-linecap:square;stroke-linejoin:round;stroke-miterlimit:4;stroke-dasharray:none;stroke-dashoffset:0;fill-opacity:1.0;stroke-opacity:1.0" />
    </clipPath>
    <clipPath id="clipPath4769" clipPathUnits="userSpaceOnUse">
      <rect ry="6.8592105" y="153.13951" x="228.08817" height="221.72137" width="268.77737" id="rect4771" style="fill:#ff0000;fill-rule:nonzero;stroke:#000000;stroke-width:4.06979895;stroke-linecap:square;stroke-linejoin:round;stroke-miterlimit:4;stroke-dasharray:none;stroke-dashoffset:0;fill-opacity:1.0;stroke-opacity:1.0" />
    </clipPath>
    <clipPath id="clipPath4777" clipPathUnits="userSpaceOnUse">
      <rect ry="13.718421" y="-6.5307522" x="95.050278" height="443.44275" width="537.55475" id="rect4779" style="fill:#ff0000;fill-rule:nonzero;stroke:#000000;stroke-width:4.06979895;stroke-linecap:square;stroke-linejoin:round;stroke-miterlimit:4;stroke-dasharray:none;stroke-dashoffset:0;fill-opacity:1.0;stroke-opacity:1.0" />
    </clipPath>
    <clipPath id="clipPath4781" clipPathUnits="userSpaceOnUse">
      <rect ry="13.718421" y="-6.5307522" x="95.050278" height="443.44275" width="537.55475" id="rect4783" style="fill:#ff0000;fill-rule:nonzero;stroke:#000000;stroke-width:4.06979895;stroke-linecap:square;stroke-linejoin:round;stroke-miterlimit:4;stroke-dasharray:none;stroke-dashoffset:0;fill-opacity:1.0;stroke-opacity:1.0" />
    </clipPath>
    <clipPath id="clipPath4785" clipPathUnits="userSpaceOnUse">
      <rect ry="13.718421" y="-6.5307522" x="95.050278" height="443.44275" width="537.55475" id="rect4787" style="fill:#ff0000;fill-rule:nonzero;stroke:#000000;stroke-width:4.06979895;stroke-linecap:square;stroke-linejoin:round;stroke-miterlimit:4;stroke-dasharray:none;stroke-dashoffset:0;fill-opacity:1.0;stroke-opacity:1.0" />
    </clipPath>
    <clipPath id="clipPath4789" clipPathUnits="userSpaceOnUse">
      <rect ry="6.8592105" y="114.24683" x="309.79514" height="221.72137" width="268.77737" id="rect4791" style="fill:#ff0000;fill-rule:nonzero;stroke:#000000;stroke-width:4.06979895;stroke-linecap:square;stroke-linejoin:round;stroke-miterlimit:4;stroke-dasharray:none;stroke-dashoffset:0;fill-opacity:1.0;stroke-opacity:1.0" />
    </clipPath>
    <clipPath id="clipPath4793" clipPathUnits="userSpaceOnUse">
      <rect ry="13.718421" y="-6.5307522" x="95.050278" height="443.44275" width="537.55475" id="rect4795" style="fill:#ff0000;fill-rule:nonzero;stroke:#000000;stroke-width:4.06979895;stroke-linecap:square;stroke-linejoin:round;stroke-miterlimit:4;stroke-dasharray:none;stroke-dashoffset:0;fill-opacity:1.0;stroke-opacity:1.0" />
    </clipPath>
    <clipPath id="clipPath4797" clipPathUnits="userSpaceOnUse">
      <rect ry="6.8592105" y="110.39404" x="236.00014" height="221.72137" width="268.77737" id="rect4799" style="fill:#ff0000;fill-rule:nonzero;stroke:#000000;stroke-width:4.06979895;stroke-linecap:square;stroke-linejoin:round;stroke-miterlimit:4;stroke-dasharray:none;stroke-dashoffset:0;fill-opacity:1.0;stroke-opacity:1.0" />
    </clipPath>
    <clipPath id="clipPath4801" clipPathUnits="userSpaceOnUse">
      <rect ry="13.718421" y="-6.5307522" x="95.050278" height="443.44275" width="537.55475" id="rect4803" style="fill:#ff0000;fill-rule:nonzero;stroke:#000000;stroke-width:4.06979895;stroke-linecap:square;stroke-linejoin:round;stroke-miterlimit:4;stroke-dasharray:none;stroke-dashoffset:0;fill-opacity:1.0;stroke-opacity:1.0" />
    </clipPath>
    <clipPath id="clipPath4805" clipPathUnits="userSpaceOnUse">
      <rect ry="13.718421" y="-6.5307522" x="95.050278" height="443.44275" width="537.55475" id="rect4807" style="fill:#ff0000;fill-rule:nonzero;stroke:#000000;stroke-width:4.06979895;stroke-linecap:square;stroke-linejoin:round;stroke-miterlimit:4;stroke-dasharray:none;stroke-dashoffset:0;fill-opacity:1.0;stroke-opacity:1.0" />
    </clipPath>
    <clipPath id="clipPath4809" clipPathUnits="userSpaceOnUse">
      <rect ry="6.8592105" y="112.65171" x="151.7077" height="221.72137" width="268.77737" id="rect4811" style="fill:#ff0000;fill-rule:nonzero;stroke:#000000;stroke-width:4.06979895;stroke-linecap:square;stroke-linejoin:round;stroke-miterlimit:4;stroke-dasharray:none;stroke-dashoffset:0;fill-opacity:1.0;stroke-opacity:1.0" />
    </clipPath>
    <clipPath id="clipPath4813" clipPathUnits="userSpaceOnUse">
      <rect ry="13.718421" y="-6.5307522" x="216.27924" height="443.44275" width="537.55475" id="rect4815" style="fill:#ff0000;fill-rule:nonzero;stroke:#000000;stroke-width:4.06979895;stroke-linecap:square;stroke-linejoin:round;stroke-miterlimit:4;stroke-dasharray:none;stroke-dashoffset:0;fill-opacity:1.0;stroke-opacity:1.0" />
    </clipPath>
    <clipPath id="clipPath4817" clipPathUnits="userSpaceOnUse">
      <rect ry="13.718421" y="-6.5307522" x="95.050278" height="443.44275" width="537.55475" id="rect4819" style="fill:#ff0000;fill-rule:nonzero;stroke:#000000;stroke-width:4.06979895;stroke-linecap:square;stroke-linejoin:round;stroke-miterlimit:4;stroke-dasharray:none;stroke-dashoffset:0;fill-opacity:1.0;stroke-opacity:1.0" />
    </clipPath>
    <clipPath id="clipPath4821" clipPathUnits="userSpaceOnUse">
      <rect ry="13.718421" y="-6.5307522" x="95.050278" height="443.44275" width="537.55475" id="rect4823" style="fill:#ff0000;fill-rule:nonzero;stroke:#000000;stroke-width:4.06979895;stroke-linecap:square;stroke-linejoin:round;stroke-miterlimit:4;stroke-dasharray:none;stroke-dashoffset:0;fill-opacity:1.0;stroke-opacity:1.0" />
    </clipPath>
    <clipPath id="clipPath4825" clipPathUnits="userSpaceOnUse">
      <rect ry="13.718421" y="-6.5307522" x="95.050278" height="443.44275" width="537.55475" id="rect4827" style="fill:#ff0000;fill-rule:nonzero;stroke:#000000;stroke-width:4.06979895;stroke-linecap:square;stroke-linejoin:round;stroke-miterlimit:4;stroke-dasharray:none;stroke-dashoffset:0;fill-opacity:1.0;stroke-opacity:1.0" />
    </clipPath>
  </defs>
  <g clip-path="url(#clipPath6202)" transform="matrix(0.9,0,0,0.9,410.32938,128.28423)" id="misc" style="stroke-width:1;stroke-linecap:square;stroke-linejoin:miter;stroke-miterlimit:10;stroke-dasharray:none;stroke-dashoffset:0" />
  <g transform="matrix(0.90604035,0,0,0.90604035,421.05209,206.77343)" id="g6501" clip-path="url(#clipPath6198)" style="stroke-width:1;stroke-linecap:square;stroke-linejoin:miter;stroke-miterlimit:10;stroke-dasharray:none;stroke-dashoffset:0">
    <g id="g6503" style="fill:none;stroke:#000000;stroke-width:2;stroke-linecap:butt;stroke-opacity:1">
      <path id="path6505" d="m -22.699,225 0,3" />
    </g>
  </g>
  <g clip-path="url(#clipPath6194)" transform="matrix(0.90604035,0,0,0.90604035,421.05209,206.77343)" id="misc-9" style="stroke-width:1;stroke-linecap:square;stroke-linejoin:miter;stroke-miterlimit:10;stroke-dasharray:none;stroke-dashoffset:0" />
  <g transform="matrix(0.99664439,0,0,0.99664439,409.22424,273.51253)" id="g6465" clip-path="url(#clipPath4817)" style="stroke-width:1;stroke-linecap:square;stroke-linejoin:miter;stroke-miterlimit:10;stroke-dasharray:none;stroke-dashoffset:0">
    <g id="g6467" style="fill:none;stroke:#000000;stroke-width:2;stroke-linecap:butt;stroke-opacity:1">
      <path id="path6469" d="m 0,225 755,0" />
    </g>
  </g>
  <g transform="matrix(0.99664439,0,0,0.99664439,289.99185,273.51253)" id="g6474" clip-path="url(#clipPath4813)" style="stroke-width:1;stroke-linecap:square;stroke-linejoin:miter;stroke-miterlimit:10;stroke-dasharray:none;stroke-dashoffset:0">
    <g id="g6476" style="fill:#000000;fill-opacity:1;fill-rule:evenodd;stroke:none">
      <path id="path6478" d="m 756,225 -24,-6 0,12" />
    </g>
  </g>
  <g transform="matrix(1.9932888,0,0,1.9932888,352.48046,55.174416)" id="g6483" clip-path="url(#clipPath4599)" style="stroke-width:1;stroke-linecap:square;stroke-linejoin:miter;stroke-miterlimit:10;stroke-dasharray:none;stroke-dashoffset:0">
    <g id="g6485" style="fill:#000000;fill-opacity:1;fill-rule:nonzero;stroke:none">
      <path id="path6487" d="m 45.769,239.02 0,-0.99 5.962,0 0,0.99 z m 7.976,3.98 0,-1.27 q 0.63,-1.47 2.549,-3.21 l 0.828,-0.73 q 1.596,-1.45 1.596,-2.87 0,-0.91 -0.545,-1.43 -0.546,-0.52 -1.498,-0.52 -1.128,0 -2.659,0.87 l 0,-1.27 q 1.443,-0.68 2.864,-0.68 1.523,0 2.446,0.82 0.923,0.82 0.923,2.17 0,0.98 -0.465,1.73 -0.465,0.76 -1.732,1.83 l -0.557,0.48 q -1.736,1.47 -2.007,2.81 l 4.71,0 0,1.27 z m 10.994,0 0,-6.77 -0.301,0 q -0.959,0 -1.911,0.51 l 0,-1.33 q 0.857,-0.36 2.073,-0.36 l 8.547,0 0,1.18 -1.809,0 0,4.61 q 0,1.23 0.564,2.16 l -1.531,0 q -0.483,-1.05 -0.483,-2.22 l 0,-4.55 -3.699,0 0,6.77 z" />
    </g>
  </g>
  <g transform="matrix(0.99664439,0,0,0.99664439,409.22424,273.51253)" id="g6492" clip-path="url(#clipPath4595)" style="stroke-width:1;stroke-linecap:square;stroke-linejoin:miter;stroke-miterlimit:10;stroke-dasharray:none;stroke-dashoffset:0">
    <g id="g6494" style="fill:none;stroke:#000000;stroke-width:2;stroke-linecap:butt;stroke-opacity:1">
      <path id="path6496" d="m 55.841,225 0,3" />
    </g>
  </g>
  <g transform="matrix(0.99664439,0,0,0.99664439,409.22424,273.51253)" id="g6591" clip-path="url(#clipPath4777)" style="stroke-width:1;stroke-linecap:square;stroke-linejoin:miter;stroke-miterlimit:10;stroke-dasharray:none;stroke-dashoffset:0">
    <g id="g6593" style="fill:none;stroke:#000000;stroke-width:2;stroke-linecap:butt;stroke-opacity:1">
      <path id="path6595" d="m 684.16,225 0,3" />
    </g>
  </g>
  <g id="g4829">
    <g style="stroke-width:1;stroke-linecap:square;stroke-linejoin:miter;stroke-miterlimit:10;stroke-dasharray:none;stroke-dashoffset:0" clip-path="url(#clipPath4825)" id="g6447" transform="matrix(0.99664439,0,0,0.99664439,409.22424,273.51253)">
      <g style="fill:none;stroke:#000000;stroke-width:2;stroke-linecap:butt;stroke-opacity:1" id="g6449">
        <path d="m 370,3 0,436" id="path6451" />
      </g>
    </g>
    <g style="stroke-width:1;stroke-linecap:square;stroke-linejoin:miter;stroke-miterlimit:10;stroke-dasharray:none;stroke-dashoffset:0" clip-path="url(#clipPath4821)" id="g6456" transform="matrix(0.99664439,0,0,0.99664439,409.22424,273.51253)">
      <g style="fill:#000000;fill-opacity:1;fill-rule:evenodd;stroke:none" id="g6458">
        <path d="m 370,2 -6,24 12,0" id="path6460" />
      </g>
    </g>
    <g style="stroke-width:1;stroke-linecap:square;stroke-linejoin:miter;stroke-miterlimit:10;stroke-dasharray:none;stroke-dashoffset:0" clip-path="url(#clipPath4809)" id="g6510" transform="matrix(1.9932888,0,0,1.9932888,201.55831,42.456299)">
      <g style="fill:#000000;fill-opacity:1;fill-rule:nonzero;stroke:none" id="g6512">
        <path d="m 206.77,239.02 0,-0.99 5.96,0 0,0.99 z m 9.48,3.98 0,-6.77 -0.3,0 q -0.96,0 -1.91,0.51 l 0,-1.33 q 0.86,-0.36 2.07,-0.36 l 8.55,0 0,1.18 -1.81,0 0,4.61 q 0,1.23 0.57,2.16 l -1.53,0 q -0.49,-1.05 -0.49,-2.22 l 0,-4.55 -3.7,0 0,6.77 z" id="path6514" />
      </g>
    </g>
    <g style="stroke-width:1;stroke-linecap:square;stroke-linejoin:miter;stroke-miterlimit:10;stroke-dasharray:none;stroke-dashoffset:0" clip-path="url(#clipPath4805)" id="g6519" transform="matrix(0.99664439,0,0,0.99664439,409.22424,273.51253)">
      <g style="fill:none;stroke:#000000;stroke-width:2;stroke-linecap:butt;stroke-opacity:1" id="g6521">
        <path d="m 212.92,225 0,3" id="path6523" />
      </g>
    </g>
    <g style="stroke-width:1;stroke-linecap:square;stroke-linejoin:miter;stroke-miterlimit:10;stroke-dasharray:none;stroke-dashoffset:0" clip-path="url(#clipPath4801)" id="g6528" transform="matrix(0.99664439,0,0,0.99664439,409.22424,273.51253)">
      <g style="fill:none;stroke:#000000;stroke-width:2;stroke-linecap:butt;stroke-opacity:1" id="g6530">
        <path d="m 134.38,225 0,3" id="path6532" />
      </g>
    </g>
    <g style="stroke-width:1;stroke-linecap:square;stroke-linejoin:miter;stroke-miterlimit:10;stroke-dasharray:none;stroke-dashoffset:0" clip-path="url(#clipPath4797)" id="g6537" transform="matrix(1.9932888,0,0,1.9932888,33.539135,46.956501)">
      <g style="fill:#000000;fill-opacity:1;fill-rule:nonzero;stroke:none" id="g6539">
        <path d="m 380.7,243.27 q -1.68,0 -2.71,-1.58 -1.04,-1.58 -1.04,-4.12 0,-2.56 1.05,-4.12 1.04,-1.56 2.75,-1.56 1.7,0 2.75,1.56 1.04,1.56 1.04,4.1 0,2.61 -1.04,4.16 -1.05,1.56 -2.8,1.56 z m 0.02,-1.08 q 2.29,0 2.29,-4.66 0,-4.56 -2.26,-4.56 -2.26,0 -2.26,4.6 0,4.62 2.23,4.62 z" id="path6541" />
      </g>
    </g>
    <g style="stroke-width:1;stroke-linecap:square;stroke-linejoin:miter;stroke-miterlimit:10;stroke-dasharray:none;stroke-dashoffset:0" clip-path="url(#clipPath4793)" id="g6546" transform="matrix(0.99664439,0,0,0.99664439,409.22424,273.51253)">
      <g style="fill:none;stroke:#000000;stroke-width:2;stroke-linecap:butt;stroke-opacity:1" id="g6548">
        <path d="m 291.46,225 0,3" id="path6550" />
      </g>
    </g>
    <g style="stroke-width:1;stroke-linecap:square;stroke-linejoin:miter;stroke-miterlimit:10;stroke-dasharray:none;stroke-dashoffset:0" clip-path="url(#clipPath4789)" id="g6555" transform="matrix(1.9932888,0,0,1.9932888,-113.55561,39.276769)">
      <g style="fill:#000000;fill-opacity:1;fill-rule:nonzero;stroke:none" id="g6557">
        <path d="m 526.75,243 0,-6.77 -0.3,0 q -0.96,0 -1.91,0.51 l 0,-1.33 q 0.86,-0.36 2.07,-0.36 l 8.55,0 0,1.18 -1.81,0 0,4.61 q 0,1.23 0.57,2.16 l -1.53,0 q -0.49,-1.05 -0.49,-2.22 l 0,-4.55 -3.7,0 0,6.77 z" id="path6559" />
      </g>
    </g>
    <g style="stroke-width:1;stroke-linecap:square;stroke-linejoin:miter;stroke-miterlimit:10;stroke-dasharray:none;stroke-dashoffset:0" clip-path="url(#clipPath4785)" id="g6564" transform="matrix(0.99664439,0,0,0.99664439,409.22424,273.51253)">
      <g style="fill:none;stroke:#000000;stroke-width:2;stroke-linecap:butt;stroke-opacity:1" id="g6566">
        <path d="m 527.08,225 0,3" id="path6568" />
      </g>
    </g>
    <g style="stroke-width:1;stroke-linecap:square;stroke-linejoin:miter;stroke-miterlimit:10;stroke-dasharray:none;stroke-dashoffset:0" clip-path="url(#clipPath4781)" id="g6573" transform="matrix(0.99664439,0,0,0.99664439,409.22424,273.51253)">
      <g style="fill:none;stroke:#000000;stroke-width:2;stroke-linecap:butt;stroke-opacity:1" id="g6575">
        <path d="m 448.54,225 0,3" id="path6577" />
      </g>
    </g>
    <g style="stroke-width:1;stroke-linecap:square;stroke-linejoin:miter;stroke-miterlimit:10;stroke-dasharray:none;stroke-dashoffset:0" clip-path="url(#clipPath4769)" id="g6636" transform="matrix(1.9932888,0,0,1.9932888,49.309976,-38.24757)">
      <g style="fill:#000000;fill-opacity:1;fill-rule:nonzero;stroke:none" id="g6638">
        <path d="m 346.77,312.02 0,-0.99 5.96,0 0,0.99 z m 8.99,3.98 0,-1.08 2.16,0 0,-8.56 -2.16,0.54 0,-1.11 3.61,-0.9 0,10.03 2.17,0 0,1.08 z" id="path6640" />
      </g>
    </g>
    <g style="stroke-width:1;stroke-linecap:square;stroke-linejoin:miter;stroke-miterlimit:10;stroke-dasharray:none;stroke-dashoffset:0" clip-path="url(#clipPath4765)" id="g6645" transform="matrix(0.99664439,0,0,0.99664439,409.22424,273.51253)">
      <g style="fill:none;stroke:#000000;stroke-width:2;stroke-linecap:butt;stroke-opacity:1" id="g6647">
        <path d="m 367,310.41 3,0" id="path6649" />
      </g>
    </g>
    <g style="stroke-width:1;stroke-linecap:square;stroke-linejoin:miter;stroke-miterlimit:10;stroke-dasharray:none;stroke-dashoffset:0" clip-path="url(#clipPath4761)" id="g6663" transform="matrix(1.9932888,0,0,1.9932888,50.387056,132.17862)">
      <g style="fill:#000000;fill-opacity:1;fill-rule:nonzero;stroke:none" id="g6665">
        <path d="m 355.26,145 0,-1.08 2.16,0 0,-8.56 -2.16,0.54 0,-1.11 3.61,-0.9 0,10.03 2.17,0 0,1.08 z" id="path6667" />
      </g>
    </g>
    <g style="stroke-width:1;stroke-linecap:square;stroke-linejoin:miter;stroke-miterlimit:10;stroke-dasharray:none;stroke-dashoffset:0" clip-path="url(#clipPath4757)" id="g6672" transform="matrix(0.99664439,0,0,0.99664439,409.22424,273.51253)">
      <g style="fill:none;stroke:#000000;stroke-width:2;stroke-linecap:butt;stroke-opacity:1" id="g6674">
        <path d="m 367,139.59 3,0" id="path6676" />
      </g>
    </g>
    <g style="stroke:#2b83ba;stroke-width:1;stroke-linecap:square;stroke-linejoin:miter;stroke-miterlimit:10;stroke-dasharray:none;stroke-dashoffset:0;stroke-opacity:1" id="g6714" clip-path="url(#clipPath4753)" transform="matrix(0.99664439,0,0,0.99664439,409.22424,273.51253)">
      <g id="g6716" style="fill:none;stroke:#2b83ba;stroke-width:2.5;stroke-linecap:round;stroke-linejoin:round;stroke-opacity:1">
        <path id="path6718" d="m 309.42,449 0.76,0.5 0.48,-6.35 -0.5,-0.5 0.74,-9.13 0.74,-8.5 0.74,-7.92 0.74,-7.42 0.74,-6.95 0.74,-6.54 0.74,-6.16 0.74,-5.82 0.74,-5.51 0.74,-5.22 0.74,-4.96 1.48,-9.21 1.48,-8.4 1.48,-7.69 1.48,-7.08 1.48,-6.56 1.48,-6.1 1.48,-5.7 1.48,-5.34 1.48,-5.03 2.97,-9.25 2.96,-8.36 2.96,-7.63 2.96,-7.05 2.96,-6.58 2.96,-6.2 2.96,-5.87 2.96,-5.63 2.96,-5.43 2.96,-5.28 2.97,-5.17 2.96,-5.1 2.96,-5.06 2.96,-5.06 2.96,-5.11 2.96,-5.17 2.96,-5.29 2.96,-5.44 2.96,-5.65 2.96,-5.9 2.96,-6.22 2.97,-6.62 2.96,-7.09 2.96,-7.69 2.96,-8.42 2.96,-9.32 1.48,-5.08 1.48,-5.4 1.48,-5.75 1.48,-6.17 1.48,-6.64 1.48,-7.18 1.48,-7.793 1.48,-8.516 1.48,-9.356 0.74,-5.04 0.74,-5.308 0.74,-5.602 0.74,-5.925 0.74,-6.277 0.75,-6.666 0.74,-7.095 0.74,-7.57 0.74,-8.099 0.74,-8.688 0.74,-9.3493 0.37,-4.94783 0.37,-5.14517 M 444.14,-10" style="stroke:#2b83ba;stroke-opacity:1" />
        <title id="title6720">Function t</title>
        <desc id="desc6722">t(x) = If[(-Ã&#131;Â&#143;Ã&#130;Â&#128;) / 2 Ã&#131;Â¢Ã&#130;Â&#137;Ã&#130;Â¤ x Ã&#131;Â¢Ã&#130;Â&#137;Ã&#130;Â¤ Ã&#131;Â&#143;Ã&#130;Â&#128; / 2, tan(x)]</desc>
      </g>
    </g>
    <g style="stroke-width:1;stroke-linecap:square;stroke-linejoin:miter;stroke-miterlimit:10;stroke-dasharray:none;stroke-dashoffset:0" id="g6740" clip-path="url(#clipPath4749)" transform="matrix(0.99664439,0,0,0.99664439,409.22424,273.51253)">
      <g id="g6742" style="fill:none;stroke:#000000;stroke-linecap:butt;stroke-linejoin:round;stroke-dasharray:9, 8;stroke-opacity:1">
        <path id="path6744" d="m 448.54,444 0,-449" />
        <title id="title6746">Line a</title>
        <desc id="desc6748">a: x = 1.57</desc>
      </g>
    </g>
    <g style="stroke-width:1;stroke-linecap:square;stroke-linejoin:miter;stroke-miterlimit:10;stroke-dasharray:none;stroke-dashoffset:0" id="g6753" clip-path="url(#clipPath4745)" transform="matrix(0.99664439,0,0,0.99664439,409.22424,273.51253)">
      <g id="g6755" style="fill:none;stroke:#000000;stroke-linecap:butt;stroke-linejoin:round;stroke-dasharray:9, 8;stroke-opacity:1">
        <path id="path6757" d="m 291.46,444 0,-449" />
        <title id="title6759">Line b</title>
        <desc id="desc6761">b: x = -1.57</desc>
      </g>
    </g>
    <g style="font-style:normal;font-variant:normal;font-weight:normal;font-stretch:normal;letter-spacing:normal;word-spacing:normal;text-anchor:start;fill:none;fill-opacity:1;fill-rule:evenodd;stroke:#000000;stroke-width:0.39999962;stroke-linecap:butt;stroke-linejoin:miter;stroke-miterlimit:10.43299961;stroke-dasharray:none;stroke-dashoffset:0;stroke-opacity:1" id="content" transform="matrix(3.7500041,0,0,-3.7500032,-100.85219,2089.007)" xml:space="preserve" stroke-miterlimit="10.433" font-style="normal" font-variant="normal" font-weight="normal" font-stretch="normal" font-size-adjust="none" letter-spacing="normal" word-spacing="normal" ns0:text="$y$" ns0:preamble="/Users/Lizzie/Documents/Old mac/CMEP folder/underground-inkscape-preamble.tex" clip-path="url(#clipPath4741)"><path style="fill:#000000;stroke-width:0" d="m 226.63,480.86 -0.01,0.08 -0.01,0.08 -0.01,0.07 -0.01,0.07 -0.01,0.07 -0.01,0.07 -0.01,0.06 -0.01,0.06 -0.01,0.06 -0.01,0.05 -0.01,0.06 -0.01,0.05 -0.01,0.05 -0.01,0.04 -0.02,0.05 -0.01,0.05 -0.01,0.04 -0.02,0.04 -0.01,0.04 -0.01,0.04 -0.04,0.08 -0.03,0.07 -0.04,0.08 -0.04,0.07 -0.04,0.07 -0.05,0.07 -1.78,-0.3 0.02,-0.18 c 0.11,0.01 0.3,0.04 0.43,0.04 0.67,0 0.77,-0.71 0.83,-1.24 l 0.45,-3.7 c -0.31,-0.48 -0.98,-1.21 -1.18,-1.21 -0.19,0 -0.17,0.37 -0.68,0.37 -0.15,0 -0.47,-0.13 -0.47,-0.49 0,-0.28 0.22,-0.64 0.66,-0.64 0.81,0 1.58,1.15 2.44,2.24 0.5,0.62 2.42,3.46 2.42,4.38 0,0.46 -0.3,0.73 -0.68,0.73 -0.34,0 -0.56,-0.21 -0.56,-0.47 0,-0.45 0.62,-0.57 0.62,-0.82 0,-0.21 -0.09,-0.45 -0.33,-0.88 -0.26,-0.49 -0.68,-1.19 -1.4,-2.18 z" id="path5104" /></g>    <g ns0:preamble="/Users/Lizzie/Documents/Old mac/CMEP folder/underground-inkscape-preamble.tex" ns0:text="$x$" word-spacing="normal" letter-spacing="normal" font-size-adjust="none" font-stretch="normal" font-weight="normal" font-variant="normal" font-style="normal" stroke-miterlimit="10.433" xml:space="preserve" transform="matrix(3.750004,0,0,-3.7500044,166.22839,2320.9567)" id="g5676" style="font-style:normal;font-variant:normal;font-weight:normal;font-stretch:normal;letter-spacing:normal;word-spacing:normal;text-anchor:start;fill:none;fill-opacity:1;fill-rule:evenodd;stroke:#000000;stroke-width:0.39999956;stroke-linecap:butt;stroke-linejoin:miter;stroke-miterlimit:10.43299961;stroke-dasharray:none;stroke-dashoffset:0;stroke-opacity:1" clip-path="url(#clipPath4737)"><path id="path5678" d="m 227.04,480.64 -0.23,0.64 c -0.15,0.39 -0.37,0.88 -0.89,1.16 l -1.56,-0.39 0.03,-0.21 c 0.12,0.05 0.3,0.07 0.45,0.07 0.65,0 0.96,-0.48 1.16,-1.05 l 0.39,-1.09 -0.77,-1.19 c -0.38,-0.58 -0.68,-0.7 -0.83,-0.7 -0.29,0 -0.25,0.24 -0.55,0.24 -0.3,0 -0.45,-0.25 -0.45,-0.44 0,-0.26 0.19,-0.55 0.61,-0.55 0.67,0 1.01,0.51 1.39,1.08 l 0.75,1.16 0.47,-1.33 c 0.15,-0.43 0.38,-0.91 0.86,-0.91 0.69,0 1.22,1.13 1.37,1.31 l -0.17,0.12 c -0.25,-0.51 -0.53,-0.68 -0.72,-0.68 -0.54,0 -0.81,1.6 -1.16,2.33 l 0.65,1 c 0.16,0.26 0.29,0.45 0.65,0.45 0.2,0 0.26,-0.1 0.52,-0.1 0.31,0 0.46,0.27 0.46,0.49 0,0.25 -0.2,0.39 -0.58,0.39 -0.59,0 -1.01,-0.52 -1.31,-0.99 z" style="fill:#000000;stroke-width:0" /></g>  </g>
</svg>