<?xml version='1.0' ?><svg xmlns:ns0="http://www.iki.fi/pav/software/textext/" xmlns:dc="http://purl.org/dc/elements/1.1/" xmlns:cc="http://creativecommons.org/ns#" xmlns:rdf="http://www.w3.org/1999/02/22-rdf-syntax-ns#" xmlns:svg="http://www.w3.org/2000/svg" xmlns="http://www.w3.org/2000/svg" id="svg2" version="1.1" width="332.47806" height="265.82591" viewBox="54.04266515108082 17.751692806074654 84.49356630819582 67.55507161291033" preserveAspectRatio="none">
  <metadata id="metadata89">
    <rdf:RDF>
      <cc:Work rdf:about="">
        <dc:format>image/svg+xml</dc:format>
        <dc:type rdf:resource="http://purl.org/dc/dcmitype/StillImage" />
        <dc:title />
      </cc:Work>
    </rdf:RDF>
  </metadata>
  <defs id="defs87" />
  <g stroke-miterlimit="10.000" id="g6" style="stroke-width:1;stroke-linecap:square;stroke-linejoin:miter;stroke-miterlimit:10;stroke-dasharray:none;stroke-dashoffset:0" transform="matrix(0.13488866,0,0,0.13488866,56.197177,22.043987)">
    <clipPath id="clip1">
      <path d="m 0,0 0,469 580,0 0,-469 z" id="path9" />
    </clipPath>
    <g clip-path="url(#clip1)" id="g11">
      <g id="g13" style="fill:none;stroke:#000000;stroke-width:2;stroke-linecap:butt;stroke-opacity:1">
        <path d="m 29.154,3 0,466" id="path15" />
      </g>
    </g>
    <clipPath id="clip2">
      <path d="m 0,0 0,469 580,0 0,-469 z" id="path18" />
    </clipPath>
    <g transform="translate(0,-4.0192398)" clip-path="url(#clip2)" id="g20">
      <g id="g22" style="fill:#000000;fill-opacity:1;fill-rule:evenodd;stroke:none">
        <path d="m 29.154,2 -5,20 10,0" id="path24" />
      </g>
    </g>
    <clipPath id="clip3">
      <path d="m 0,0 0,469 580,0 0,-469 z" id="path27" />
    </clipPath>
    <g clip-path="url(#clip3)" id="g29">
      <g id="g31" style="fill:none;stroke:#000000;stroke-width:2;stroke-linecap:butt;stroke-opacity:1">
        <path d="m 0,250.2 577,0" id="path33" />
      </g>
    </g>
    <clipPath id="clip4">
      <path d="m 0,0 0,469 580,0 0,-469 z" id="path36" />
    </clipPath>
    <g transform="translate(4.0192398,0)" clip-path="url(#clip4)" id="g38">
      <g id="g40" style="fill:#000000;fill-opacity:1;fill-rule:evenodd;stroke:none">
        <path d="m 578,250.2 -20,-5 0,10" id="path42" />
      </g>
    </g>
    <g id="misc" />
    <g id="layer0">
      <clipPath id="clip5">
        <path d="m 0,0 0,469 580,0 0,-469 z" id="path47" />
      </clipPath>
      <g clip-path="url(#clip5)" id="g49">
        <g id="g51" style="fill:none;stroke:#006400;stroke-width:2.5;stroke-linecap:round;stroke-linejoin:round;stroke-opacity:1">
          <path d="m 29.154,250.2 2.565,-7.99 m 0,0 2.265,-7.04 2.266,-7.02 m 0,0 2.266,-6.99 2.265,-6.96 2.266,-6.92 2.265,-6.86 2.266,-6.79 2.266,-6.73 2.265,-6.65 2.266,-6.56 2.266,-6.47 2.265,-6.36 2.266,-6.25 2.266,-6.13 2.265,-6.01 2.266,-5.87 2.265,-5.73 2.266,-5.58 m 0,0 2.266,-5.42 2.265,-5.26 2.266,-5.09 2.265,-4.92 4.532,-9.282 4.531,-8.51 4.531,-7.696 4.532,-6.841 4.532,-5.955 4.53,-5.037 4.53,-4.094 4.53,-3.132 4.53,-2.154 2.27,-0.706 2.27,-0.458 4.53,-0.169 2.26,0.288 2.27,0.538 4.53,1.818 4.53,2.801 m 0,0 4.53,3.769 4.53,4.719 4.53,5.646 4.53,6.543 4.54,7.409 4.53,8.238 4.53,9.025 4.53,9.77 2.27,5.14 2.26,5.32 2.27,5.47 2.26,5.63 2.27,5.78 2.26,5.91 2.27,6.05 2.27,6.17 2.26,6.28 2.27,6.4 2.26,6.5 2.27,6.59 2.26,6.67 2.27,6.75 2.26,6.82 2.27,6.88 2.27,6.93 2.26,6.97 2.27,7 2.26,7.03 2.27,7.05 2.26,7.05 2.27,7.05 2.26,7.04 2.27,7.02 2.27,7 2.26,6.95 2.27,6.91 2.26,6.86 2.27,6.79 2.26,6.73 2.27,6.64 2.27,6.56 2.26,6.46 2.27,6.35 2.26,6.25 2.27,6.12 2.26,6 2.27,5.86 2.27,5.72 2.26,5.58 2.27,5.41 2.26,5.25 2.27,5.09 4.53,9.63 4.53,8.88 m 0,0 4.53,8.08 4.53,7.25 4.53,6.38 4.53,5.47 4.54,4.54 4.53,3.59 4.53,2.62 2.26,0.94 2.27,0.69 4.53,0.64 2.27,-0.05 2.26,-0.3 4.53,-1.35 2.27,-1.05 2.27,-1.29 4.53,-3.32 4.53,-4.27 4.53,-5.21 4.53,-6.12 4.53,-7.01 4.53,-7.85 4.53,-8.66 4.53,-9.42 2.27,-4.99 2.27,-5.15 2.26,-5.33 2.27,-5.48 2.26,-5.64 2.27,-5.78 2.26,-5.92 2.27,-6.05 2.27,-6.18 2.26,-6.29 2.27,-6.41 2.26,-6.5 2.27,-6.59 2.26,-6.68 2.27,-6.76 2.27,-6.82 2.26,-6.88 2.27,-6.93 2.26,-6.98 2.27,-7 2.26,-7.03 2.27,-7.05 2.26,-7.05 2.27,-7.05 2.27,-7.04 2.26,-7.02 2.27,-6.99 2.26,-6.95 2.27,-6.91 2.26,-6.86 2.27,-6.79 2.26,-6.72 2.27,-6.64 2.27,-6.55 2.26,-6.45 2.27,-6.35 2.26,-6.24 2.27,-6.12 2.26,-5.99 2.27,-5.85 2.27,-5.71 2.26,-5.57 2.27,-5.4 2.26,-5.25 4.53,-9.97 4.54,-9.237 4.53,-8.466 4.53,-7.648 4.53,-6.794 4.53,-5.904 4.53,-4.985 4.53,-4.041 4.53,-3.078 4.53,-2.099 2.27,-0.678 2.27,-0.431 4.53,-0.114 2.26,0.317 2.27,0.565 4.53,1.873 4.53,2.855 4.53,3.823 4.53,4.771 4.54,5.697 4.53,6.592 4.53,7.457 4.53,8.282 4.53,9.063" id="path53" />
          <title id="title55">Function f</title>
          <desc id="desc57">f(x) = If[x &gt; 0, 12sin(3x / 2)]</desc>
        </g>
      </g>
      <clipPath id="clip6">
        <path d="m 0,0 0,469 580,0 0,-469 z" id="path60" />
      </clipPath>
      <g clip-path="url(#clip6)" id="g62">
        <g id="g64" style="fill:none;stroke:#666666;stroke-width:1.5;stroke-linecap:butt;stroke-linejoin:round;stroke-dasharray:9.5, 8;stroke-opacity:1">
          <path d="m 29.154,50.511 2.565,0 m 0,0 4.531,0 m 0,0 4.531,0 4.531,0 4.532,0 4.531,0 4.531,0 4.532,0 4.531,0 4.531,0 m 0,0 4.531,0 4.531,0 4.532,0 4.531,0 4.531,0 4.532,0 4.532,0 4.53,0 4.53,0 4.53,0 4.53,0 4.54,0 4.53,0 4.53,0 4.53,0 4.53,0 m 0,0 4.53,0 4.53,0 4.53,0 4.53,0 4.54,0 4.53,0 4.53,0 4.53,0 4.53,0 4.53,0 4.53,0 4.54,0 4.53,0 4.53,0 4.53,0 4.53,0 4.53,0 4.53,0 4.53,0 4.53,0 4.54,0 4.53,0 4.53,0 4.53,0 4.53,0 4.53,0 4.53,0 4.54,0 4.53,0 4.53,0 4.53,0 4.53,0 m 0,0 4.53,0 4.53,0 4.53,0 4.53,0 4.54,0 4.53,0 4.53,0 4.53,0 4.53,0 4.53,0 4.53,0 4.54,0 4.53,0 4.53,0 4.53,0 4.53,0 4.53,0 4.53,0 4.53,0 4.53,0 4.54,0 4.53,0 4.53,0 4.53,0 4.53,0 4.53,0 4.53,0 4.54,0 4.53,0 4.53,0 4.53,0 4.53,0 4.53,0 4.53,0 4.53,0 4.53,0 4.54,0 4.53,0 4.53,0 4.53,0 4.53,0 4.53,0 4.53,0 4.54,0 4.53,0 4.53,0 4.53,0 4.53,0 4.53,0 4.53,0 4.53,0 4.53,0 4.54,0 4.53,0 4.53,0 4.53,0 4.53,0 4.53,0 4.53,0 4.54,0 4.53,0 4.53,0 4.53,0 4.53,0" id="path66" />
          <title id="title68">Function g</title>
          <desc id="desc70">g(x) = If[x &gt; 0, 12]</desc>
        </g>
      </g>
      <clipPath id="clip7">
        <path d="m 0,0 0,469 580,0 0,-469 z" id="path73" />
      </clipPath>
      <g clip-path="url(#clip7)" id="g75">
        <g id="g77" style="fill:none;stroke:#666666;stroke-width:1.5;stroke-linecap:butt;stroke-linejoin:round;stroke-dasharray:9.5, 8;stroke-opacity:1">
          <path d="m 29.154,150.35 2.565,0 m 0,0 4.531,0 m 0,0 4.531,0 4.531,0 4.532,0 4.531,0 4.531,0 4.532,0 4.531,0 4.531,0 m 0,0 4.531,0 4.531,0 4.532,0 4.531,0 4.531,0 4.532,0 4.532,0 4.53,0 4.53,0 4.53,0 4.53,0 4.54,0 4.53,0 4.53,0 4.53,0 4.53,0 m 0,0 4.53,0 4.53,0 4.53,0 4.53,0 4.54,0 4.53,0 4.53,0 4.53,0 4.53,0 4.53,0 4.53,0 4.54,0 4.53,0 4.53,0 4.53,0 4.53,0 4.53,0 4.53,0 4.53,0 4.53,0 4.54,0 4.53,0 4.53,0 4.53,0 4.53,0 4.53,0 4.53,0 4.54,0 4.53,0 4.53,0 4.53,0 4.53,0 m 0,0 4.53,0 4.53,0 4.53,0 4.53,0 4.54,0 4.53,0 4.53,0 4.53,0 4.53,0 4.53,0 4.53,0 4.54,0 4.53,0 4.53,0 4.53,0 4.53,0 4.53,0 4.53,0 4.53,0 4.53,0 4.54,0 4.53,0 4.53,0 4.53,0 4.53,0 4.53,0 4.53,0 4.54,0 4.53,0 4.53,0 4.53,0 4.53,0 4.53,0 4.53,0 4.53,0 4.53,0 4.54,0 4.53,0 4.53,0 4.53,0 4.53,0 4.53,0 4.53,0 4.54,0 4.53,0 4.53,0 4.53,0 4.53,0 4.53,0 4.53,0 4.53,0 4.53,0 4.54,0 4.53,0 4.53,0 4.53,0 4.53,0 4.53,0 4.53,0 4.54,0 4.53,0 4.53,0 4.53,0 4.53,0" id="path79" />
          <title id="title81">Function h</title>
          <desc id="desc83">h(x) = If[x &gt; 0, 6]</desc>
        </g>
      </g>
    </g>
  </g>
  <g style="font-style:normal;font-variant:normal;font-weight:normal;font-stretch:normal;letter-spacing:normal;word-spacing:normal;text-anchor:start;fill:none;fill-opacity:1;fill-rule:evenodd;stroke:#000000;stroke-linecap:butt;stroke-linejoin:miter;stroke-miterlimit:10.43299961;stroke-dasharray:none;stroke-dashoffset:0;stroke-opacity:1" id="content" transform="matrix(0.49,0,0,-0.49,-56.079935,264.45422)" xml:space="preserve" stroke-miterlimit="10.433" font-style="normal" font-variant="normal" font-weight="normal" font-stretch="normal" font-size-adjust="none" letter-spacing="normal" word-spacing="normal" ns0:text="$12$" ns0:preamble="/Users/prmb/CMEP/underground-inkscape-preamble.tex"><path style="fill:#000000;stroke-width:0" d="m 228.08,477.23 0,0.18 c -0.88,0 -1.12,0.21 -1.12,0.72 l 0,7.05 -0.1,0.04 -2.12,-1.08 0,-0.16 0.32,0.11 c 0.21,0.09 0.41,0.15 0.53,0.15 0.25,0 0.36,-0.18 0.36,-0.58 l 0,-5.3 c 0,-0.65 -0.25,-0.9 -1.13,-0.95 l 0,-0.18 z" id="path4266" /><path style="fill:#000000;stroke-width:0" d="m 234.95,478.85 -0.16,0.07 c -0.39,-0.66 -0.64,-0.79 -1.14,-0.79 l -2.76,0 1.95,2.08 c 1.05,1.11 1.51,1.99 1.51,2.93 0,1.17 -0.85,2.08 -2.18,2.08 -1.46,0 -2.21,-0.97 -2.46,-2.35 l 0.25,-0.06 c 0.47,1.15 0.88,1.53 1.73,1.53 1.01,0 1.65,-0.59 1.65,-1.66 0,-1.01 -0.43,-1.9 -1.54,-3.07 l -2.1,-2.23 0,-0.15 4.62,0 z" id="path4268" /></g>  <g ns0:preamble="/Users/prmb/CMEP/underground-inkscape-preamble.tex" ns0:text="$6$" word-spacing="normal" letter-spacing="normal" font-size-adjust="none" font-stretch="normal" font-weight="normal" font-variant="normal" font-style="normal" stroke-miterlimit="10.433" xml:space="preserve" transform="matrix(0.49,0,0,-0.49,-53.513315,277.84777)" id="g4370" style="font-style:normal;font-variant:normal;font-weight:normal;font-stretch:normal;letter-spacing:normal;word-spacing:normal;text-anchor:start;fill:none;fill-opacity:1;fill-rule:evenodd;stroke:#000000;stroke-linecap:butt;stroke-linejoin:miter;stroke-miterlimit:10.43299961;stroke-dasharray:none;stroke-dashoffset:0;stroke-opacity:1"><path id="path4372" d="m 228.7,485.31 -0.15,-0.02 -0.15,-0.01 -0.14,-0.02 -0.14,-0.02 -0.14,-0.02 -0.13,-0.03 -0.13,-0.02 -0.13,-0.02 -0.12,-0.03 -0.12,-0.03 -0.12,-0.03 -0.11,-0.03 -0.12,-0.03 -0.11,-0.04 -0.1,-0.04 -0.11,-0.04 -0.11,-0.04 -0.1,-0.05 -0.1,-0.05 -0.1,-0.05 -0.1,-0.06 -0.1,-0.05 -0.1,-0.07 -0.09,-0.06 -0.1,-0.07 -0.09,-0.07 -0.1,-0.08 -0.09,-0.08 -0.1,-0.08 -0.09,-0.09 -0.09,-0.1 -0.1,-0.09 c -0.84,-0.87 -1.29,-1.99 -1.29,-3.26 0,-0.83 0.23,-1.67 0.56,-2.27 0.41,-0.75 1.15,-1.19 2.09,-1.19 l 0.13,0.33 c -1.11,0 -1.68,1.18 -1.68,2.98 0,1.08 0.7,1.36 1.37,1.36 1.1,0 1.6,-0.77 1.6,-2.29 l 0,0 c 0,-1.2 -0.44,-2.05 -1.29,-2.05 l -0.13,-0.33 c 0.78,0 1.44,0.32 1.87,0.86 0.39,0.47 0.61,1.14 0.61,1.89 0,1.52 -0.85,2.47 -2.23,2.47 -0.52,0 -0.93,-0.09 -1.5,-0.53 0.31,1.78 1.64,3.05 3.49,3.36 z" style="fill:#000000;stroke-width:0" /></g>  <g style="font-style:normal;font-variant:normal;font-weight:normal;font-stretch:normal;letter-spacing:normal;word-spacing:normal;text-anchor:start;fill:none;fill-opacity:1;fill-rule:evenodd;stroke:#000000;stroke-linecap:butt;stroke-linejoin:miter;stroke-miterlimit:10.43299961;stroke-dasharray:none;stroke-dashoffset:0;stroke-opacity:1" id="g4478" transform="matrix(0.49,0,0,-0.49,4.3633611,295.78932)" xml:space="preserve" stroke-miterlimit="10.433" font-style="normal" font-variant="normal" font-weight="normal" font-stretch="normal" font-size-adjust="none" letter-spacing="normal" word-spacing="normal" ns0:text="$\\frac{4}{3}\\pi$" ns0:preamble="/Users/prmb/CMEP/underground-inkscape-preamble.tex"><polygon style="fill:#000000;stroke-width:0" points="227.22,486.28 227.22,483.24 225.09,483.24 224.74,483.24 224.74,482.67 227.22,482.67 227.22,481.19 227.91,481.19 227.91,482.67 228.83,482.67 228.83,483.24 227.91,483.24 227.91,487.18 227.52,487.18 224.74,483.24 225.09,483.24 " id="polygon4480" /><line style="stroke-width:0.65799999" x1="224.63" y1="478.89999" x2="229.07001" y2="478.89999" id="line4482" /><path style="fill:#000000;stroke-width:0" d="m 225.17,476.15 0.03,0.06 0.04,0.06 0.03,0.05 0.04,0.06 0.03,0.05 0.04,0.05 0.04,0.05 0.03,0.04 0.04,0.04 0.04,0.05 0.03,0.04 0.04,0.03 0.04,0.04 0.04,0.03 0.04,0.03 0.04,0.03 0.04,0.03 0.04,0.03 0.05,0.02 0.04,0.02 0.04,0.02 0.04,0.02 0.05,0.02 0.04,0.01 0.05,0.02 0.05,0.01 0.04,0.01 0.05,0 0.05,0.01 0.05,0 0.05,0.01 0.05,0 c 0.59,0 0.96,-0.3 0.96,-0.91 0,-0.54 -0.28,-0.94 -0.72,-1.19 -0.18,-0.1 -0.41,-0.2 -0.74,-0.31 l 0,-0.13 c 0.5,0 0.71,-0.02 0.9,-0.09 0.61,-0.17 0.93,-0.61 0.93,-1.28 0,-0.76 -0.5,-1.36 -1.16,-1.36 -0.25,0 -0.43,0.05 -0.76,0.28 -0.25,0.17 -0.39,0.23 -0.54,0.23 -0.21,0 -0.37,-0.14 -0.37,-0.32 0,-0.32 0.35,-0.51 1,-0.51 0.79,0 1.63,0.26 2.06,0.83 0.25,0.33 0.4,0.77 0.4,1.24 0,0.46 -0.14,0.87 -0.39,1.14 -0.18,0.2 -0.34,0.3 -0.73,0.47 0.59,0.36 0.82,0.8 0.82,1.22 0,0.73 -0.56,1.22 -1.38,1.22 -0.93,0 -1.48,-0.6 -1.74,-1.44 z" id="path4484" /><path style="fill:#000000;stroke-width:0" d="m 236.97,481.46 -3.33,0 c -1.23,0 -1.98,-0.54 -2.5,-1.49 l 0.19,0 c 0.52,0.63 0.96,0.63 1.64,0.63 l -1.05,-2.43 c -0.16,-0.34 -0.37,-0.69 -0.88,-0.83 -0.3,-0.08 -0.36,-0.39 -0.36,-0.57 0,-0.28 0.29,-0.51 0.6,-0.51 0.14,0 0.32,0.02 0.45,0.13 0.99,0.74 1.36,2.77 1.9,4.21 l 1.11,0 c -0.29,-0.99 -0.65,-1.82 -0.92,-2.66 -0.07,-0.22 -0.11,-0.46 -0.11,-0.73 0,-0.46 0.2,-0.88 0.68,-0.88 0.82,0 1.45,0.82 1.7,1.67 l -0.19,0 c -0.29,-0.64 -0.62,-0.78 -0.86,-0.78 -0.26,0 -0.45,0.3 -0.45,0.57 0,0.79 0.62,2.3 0.79,2.81 l 1.32,0 z" id="path4486" /></g>  <g style="font-style:normal;font-variant:normal;font-weight:normal;font-stretch:normal;letter-spacing:normal;word-spacing:normal;text-anchor:start;fill:none;fill-opacity:1;fill-rule:evenodd;stroke:#000000;stroke-linecap:butt;stroke-linejoin:miter;stroke-miterlimit:10.43299961;stroke-dasharray:none;stroke-dashoffset:0;stroke-opacity:1" ns0:preamble="/Users/prmb/CMEP/underground-inkscape-preamble.tex" ns0:text="$s$" word-spacing="normal" letter-spacing="normal" font-size-adjust="none" font-stretch="normal" font-weight="normal" font-variant="normal" font-style="normal" stroke-miterlimit="10.433" xml:space="preserve" transform="matrix(0.7,0,0,-0.7,-99.689045,355.4597)" id="g4602"><path style="fill:#000000;stroke-width:0" id="path4604" d="m 228.04,482.44 -0.19,0 c -0.1,-0.12 -0.23,-0.24 -0.36,-0.24 -0.34,0 -0.58,0.24 -1.08,0.24 -0.65,0 -1.35,-0.33 -1.35,-1.26 0,-1.16 1.54,-1.75 1.54,-2.72 0,-0.46 -0.17,-1.05 -0.87,-1.05 -0.74,0 -1.22,0.79 -1.22,1.54 l -0.19,0 -0.3,-1.84 0.2,0 c 0.15,0.2 0.25,0.24 0.36,0.24 0.14,0 0.89,-0.23 1.3,-0.23 1.02,0 1.59,0.74 1.59,1.47 0,1.12 -1.58,2.21 -1.58,2.86 0,0.48 0.31,0.68 0.6,0.68 0.66,0 1.09,-0.66 1.09,-1.41 l 0.17,0 z" /></g>  <g style="font-style:normal;font-variant:normal;font-weight:normal;font-stretch:normal;letter-spacing:normal;word-spacing:normal;text-anchor:start;fill:none;fill-opacity:1;fill-rule:evenodd;stroke:#000000;stroke-linecap:butt;stroke-linejoin:miter;stroke-miterlimit:10.43299961;stroke-dasharray:none;stroke-dashoffset:0;stroke-opacity:1" id="g4724" transform="matrix(0.7,0,0,-0.7,-20.202772,391.10841)" xml:space="preserve" stroke-miterlimit="10.433" font-style="normal" font-variant="normal" font-weight="normal" font-stretch="normal" font-size-adjust="none" letter-spacing="normal" word-spacing="normal" ns0:text="$t$" ns0:preamble="/Users/prmb/CMEP/underground-inkscape-preamble.tex"><path style="fill:#000000;stroke-width:0" d="m 226.77,482.41 -0.82,0 0.36,1.52 -0.15,0 c -0.48,-1.03 -1.2,-1.47 -2.09,-1.63 l -0.06,-0.34 0.91,0 -0.96,-3.78 c -0.03,-0.13 -0.06,-0.28 -0.06,-0.44 0,-0.32 0.1,-0.61 0.47,-0.61 0.69,0 1.28,0.9 1.56,1.26 l -0.15,0.13 c -0.43,-0.59 -0.71,-0.61 -0.71,-0.61 -0.15,0 -0.19,0.07 -0.19,0.14 0,0.03 0.02,0.09 0.03,0.13 l 0.92,3.78 0.82,0 z" id="path4726" /></g></svg>