<?xml version='1.0' ?><svg xmlns:ns0="http://www.iki.fi/pav/software/textext/" xmlns:dc="http://purl.org/dc/elements/1.1/" xmlns:cc="http://creativecommons.org/ns#" xmlns:rdf="http://www.w3.org/1999/02/22-rdf-syntax-ns#" xmlns:svg="http://www.w3.org/2000/svg" xmlns="http://www.w3.org/2000/svg" version="1.1" id="svg2" width="316.26868" height="236.61216" viewBox="87.90720843762092 468.1406999877153 296.50188750040786 221.82390000030512" preserveAspectRatio="none">
  <defs id="defs4" />
  <metadata id="metadata7">
    <rdf:RDF>
      <cc:Work rdf:about="">
        <dc:format>image/svg+xml</dc:format>
        <dc:type rdf:resource="http://purl.org/dc/dcmitype/StillImage" />
        <dc:title />
      </cc:Work>
    </rdf:RDF>
  </metadata>
  <g id="layer1">
    <g id="g4706">
      <path style="fill:none;fill-rule:evenodd;stroke:#000000;stroke-width:2;stroke-linecap:butt;stroke-linejoin:miter;stroke-miterlimit:4;stroke-dasharray:none;stroke-opacity:1" d="M 245.89546,483.70087 110.74815,624.88865 m 0,0 254.64305,-70.38097" id="path4138" />
      <path style="fill:none;fill-rule:evenodd;stroke:#000000;stroke-width:2;stroke-linecap:butt;stroke-linejoin:miter;stroke-opacity:1;stroke-miterlimit:4;stroke-dasharray:none" d="m 109.89199,624.97768 214.66829,58.09046" id="path4140" />
      <path style="fill:none;fill-rule:evenodd;stroke:#000000;stroke-width:1;stroke-linecap:butt;stroke-linejoin:miter;stroke-miterlimit:4;stroke-dasharray:3,1;stroke-dashoffset:0;stroke-opacity:1" d="M 109.52247,625.78463 290.76648,602.86481" id="path4142" />
      <path style="fill:none;fill-rule:evenodd;stroke:#000000;stroke-width:1;stroke-linecap:butt;stroke-linejoin:miter;stroke-miterlimit:4;stroke-dasharray:12,1;stroke-dashoffset:0;stroke-opacity:1" d="m 212.63815,519.96777 77.50629,82.55287 0,0 0,0" id="path4144" />
      <path style="fill:none;fill-rule:evenodd;stroke:#000000;stroke-width:1;stroke-linecap:butt;stroke-linejoin:miter;stroke-miterlimit:4;stroke-dasharray:8,1;stroke-dashoffset:0;stroke-opacity:1" d="m 290.46867,602.89677 29.41908,-36.73744" id="path4166" />
      <path style="fill:none;fill-rule:evenodd;stroke:#000000;stroke-width:1;stroke-linecap:butt;stroke-linejoin:miter;stroke-miterlimit:4;stroke-dasharray:8, 1;stroke-dashoffset:0;stroke-opacity:1" d="m 290.75827,602.59476 -22.6692,66.18661" id="path4168" />
      <path style="fill:none;fill-rule:evenodd;stroke:#000000;stroke-width:0.5;stroke-linecap:butt;stroke-linejoin:miter;stroke-miterlimit:4;stroke-dasharray:none;stroke-opacity:1" d="m 206.68799,524.92458 5.50265,5.77061 5.22522,-5.44157" id="path4170" />
      <path style="fill:none;fill-rule:evenodd;stroke:#000000;stroke-width:0.5;stroke-linecap:butt;stroke-linejoin:miter;stroke-miterlimit:4;stroke-dasharray:none;stroke-opacity:1" d="m 309.45578,570.61548 -6.28827,7.77297 9.08691,-2.64088" id="path4172" />
      <path style="fill:none;fill-rule:evenodd;stroke:#000000;stroke-width:0.5;stroke-linecap:butt;stroke-linejoin:miter;stroke-miterlimit:3.9;stroke-dasharray:none;stroke-opacity:1" d="m 261.17988,664.91497 2.18701,-6.61603 6.93481,1.95659" id="path4174" />
      <g style="font-style:normal;font-variant:normal;font-weight:normal;font-stretch:normal;letter-spacing:normal;word-spacing:normal;text-anchor:start;fill:none;fill-opacity:1;fill-rule:evenodd;stroke:#000000;stroke-linecap:butt;stroke-linejoin:miter;stroke-miterlimit:10.43299961;stroke-dasharray:none;stroke-dashoffset:0;stroke-opacity:1" id="content" transform="matrix(2,0,0,-2,-360.13279,1590.404)" xml:space="preserve" stroke-miterlimit="10.433" font-style="normal" font-variant="normal" font-weight="normal" font-stretch="normal" font-size-adjust="none" letter-spacing="normal" word-spacing="normal" ns0:text="$O$" ns0:preamble="/Users/kjb81/Documents/underground-inkscape-preamble.tex"><path style="fill:#000000;stroke-width:0" d="m 231.84,482.19 0,0.14 -0.01,0.14 -0.02,0.14 -0.02,0.14 -0.02,0.13 -0.03,0.14 -0.04,0.13 -0.04,0.13 -0.05,0.13 -0.06,0.12 -0.06,0.13 -0.06,0.12 -0.07,0.11 -0.08,0.12 -0.08,0.11 -0.09,0.1 -0.1,0.1 -0.1,0.1 -0.1,0.09 -0.12,0.09 -0.11,0.08 -0.13,0.07 -0.13,0.07 -0.13,0.06 -0.14,0.06 -0.15,0.05 -0.15,0.04 -0.16,0.04 -0.16,0.03 -0.17,0.02 -0.18,0.01 -0.18,0 -0.1,-0.43 c 1.2,0 1.67,-0.97 1.67,-2.24 l 0,0 c 0,-1.66 -0.86,-4.91 -3.37,-4.91 -0.92,0 -1.65,0.63 -1.65,1.78 0,1.67 0.62,5.37 3.35,5.37 l 0.1,0.43 c -3.01,0 -4.88,-2.88 -4.88,-5.27 0,-1.62 1.23,-2.75 2.99,-2.75 2.99,0 4.83,2.75 4.83,5.08 z" id="path4191" /></g>      <g style="font-style:normal;font-variant:normal;font-weight:normal;font-stretch:normal;letter-spacing:normal;word-spacing:normal;text-anchor:start;fill:none;fill-opacity:1;fill-rule:evenodd;stroke:#000000;stroke-linecap:butt;stroke-linejoin:miter;stroke-miterlimit:10.43299961;stroke-dasharray:none;stroke-dashoffset:0;stroke-opacity:1" id="g4261" transform="matrix(2,0,0,-2,-203.25598,1393.3607)" xml:space="preserve" stroke-miterlimit="10.433" font-style="normal" font-variant="normal" font-weight="normal" font-stretch="normal" font-size-adjust="none" letter-spacing="normal" word-spacing="normal" ns0:text="$A$" ns0:preamble="/Users/kjb81/Documents/underground-inkscape-preamble.tex"><path style="fill:#000000;stroke-width:0" d="m 222.52,454.73 0,0.19 -0.19,0 c -0.5,0 -0.79,0.25 -0.87,0.83 l -0.92,6.86 -0.22,0 -4.2,-6.81 c -0.42,-0.69 -0.86,-0.83 -1.27,-0.88 l 0,-0.19 2.57,0 0,0.19 -0.34,0 c -0.31,0 -0.5,0.13 -0.51,0.35 0,0.08 0.03,0.21 0.12,0.3 l 0.99,1.66 2.34,0 -0.09,0.43 -2,0 1.64,2.68 0.07,0 0.29,-2.68 0.09,-0.43 0.15,-1.34 c 0.01,-0.08 0.02,-0.18 0.02,-0.25 0,-0.47 -0.19,-0.72 -0.85,-0.72 l -0.19,0 0,-0.19 z" id="path4263" /></g>      <g style="font-style:normal;font-variant:normal;font-weight:normal;font-stretch:normal;letter-spacing:normal;word-spacing:normal;text-anchor:start;fill:none;fill-opacity:1;fill-rule:evenodd;stroke:#000000;stroke-linecap:butt;stroke-linejoin:miter;stroke-miterlimit:10.43299961;stroke-dasharray:none;stroke-dashoffset:0;stroke-opacity:1" ns0:preamble="/Users/kjb81/Documents/underground-inkscape-preamble.tex" ns0:text="$A\&#39;$" word-spacing="normal" letter-spacing="normal" font-size-adjust="none" font-stretch="normal" font-weight="normal" font-variant="normal" font-style="normal" stroke-miterlimit="10.433" xml:space="preserve" transform="matrix(2,0,0,-2,-257.59717,1476.1896)" id="g4303"><path style="fill:#000000;stroke-width:0" id="path4305" d="m 231.52,477.23 0,0.19 -0.19,0 c -0.5,0 -0.79,0.25 -0.87,0.83 l -0.92,6.86 -0.22,0 -4.2,-6.81 c -0.42,-0.69 -0.86,-0.83 -1.27,-0.88 l 0,-0.19 2.57,0 0,0.19 -0.34,0 c -0.31,0 -0.5,0.13 -0.51,0.35 0,0.08 0.03,0.21 0.12,0.3 l 0.99,1.66 2.34,0 -0.09,0.43 -2,0 1.64,2.68 0.07,0 0.29,-2.68 0.09,-0.43 0.15,-1.34 c 0.01,-0.08 0.02,-0.18 0.02,-0.25 0,-0.47 -0.19,-0.72 -0.85,-0.72 l -0.19,0 0,-0.19 z" /><path style="fill:#000000;stroke-width:0" id="path4307" d="m 233.07,481.48 0.04,0.08 0.05,0.09 0.05,0.09 0.05,0.1 0.05,0.1 0.06,0.1 0.05,0.11 0.06,0.11 0.12,0.23 0.12,0.24 0.12,0.24 0.12,0.23 0.11,0.23 0.06,0.12 0.05,0.11 0.05,0.1 0.05,0.11 0.05,0.1 0.05,0.09 0.04,0.09 0.04,0.09 0.04,0.08 0.03,0.07 0.03,0.07 0.02,0.06 0.03,0.05 0.01,0.05 c 0.04,0.09 0.07,0.27 0.07,0.35 0,0.37 -0.23,0.53 -0.5,0.53 -0.23,0 -0.45,-0.13 -0.57,-0.51 -0.14,-0.44 -0.61,-2.5 -0.81,-3.43 z" /></g>      <g style="font-style:normal;font-variant:normal;font-weight:normal;font-stretch:normal;letter-spacing:normal;word-spacing:normal;text-anchor:start;fill:none;fill-opacity:1;fill-rule:evenodd;stroke:#000000;stroke-linecap:butt;stroke-linejoin:miter;stroke-miterlimit:10.43299961;stroke-dasharray:none;stroke-dashoffset:0;stroke-opacity:1" id="g4353" transform="matrix(2,0,0,-2,-123.78463,1644.4246)" xml:space="preserve" stroke-miterlimit="10.433" font-style="normal" font-variant="normal" font-weight="normal" font-stretch="normal" font-size-adjust="none" letter-spacing="normal" word-spacing="normal" ns0:text="$B$" ns0:preamble="/Users/kjb81/Documents/underground-inkscape-preamble.tex"><path style="fill:#000000;stroke-width:0" d="m 225.77,484.94 -0.06,-0.18 0.22,0 c 0.7,0 0.93,-0.19 0.93,-0.5 0,-0.07 -0.02,-0.19 -0.03,-0.25 l -1.45,-5.84 c -0.09,-0.4 -0.32,-0.75 -1.22,-0.75 l -0.23,0 -0.05,-0.19 3.83,0 c 2.44,0 3.41,1.12 3.41,2.28 0,1.01 -0.79,1.5 -1.5,1.63 l -0.04,0.05 c 0.24,0.06 0.58,0.15 0.88,0.31 0.56,0.28 1.07,0.81 1.07,1.73 0,1.61 -1.79,1.71 -2.79,1.71 l -0.01,-0.46 c 0.64,0 1.41,-0.24 1.41,-1.15 0,-1.15 -0.66,-1.93 -1.99,-1.93 l -0.13,-0.41 c 0.93,0 1.68,-0.41 1.68,-1.28 0,-1.53 -1.13,-2.03 -2.24,-2.03 -0.31,0 -0.55,0.03 -0.84,0.11 l 0.8,3.15 c 0.18,0.05 0.42,0.05 0.6,0.05 l 0.13,0.41 c -0.17,0 -0.39,0.03 -0.62,0.07 l 0.7,2.98 c 0.15,0.02 0.33,0.03 0.5,0.03 l 0.01,0.46 z" id="path4355" /></g>      <g style="font-style:normal;font-variant:normal;font-weight:normal;font-stretch:normal;letter-spacing:normal;word-spacing:normal;text-anchor:start;fill:none;fill-opacity:1;fill-rule:evenodd;stroke:#000000;stroke-linecap:butt;stroke-linejoin:miter;stroke-miterlimit:10.43299961;stroke-dasharray:none;stroke-dashoffset:0;stroke-opacity:1" ns0:preamble="/Users/kjb81/Documents/underground-inkscape-preamble.tex" ns0:text="$B\&#39;$" word-spacing="normal" letter-spacing="normal" font-size-adjust="none" font-stretch="normal" font-weight="normal" font-variant="normal" font-style="normal" stroke-miterlimit="10.433" xml:space="preserve" transform="matrix(2,0,0,-2,-198.42839,1642.0252)" id="g4405"><path style="fill:#000000;stroke-width:0" id="path4407" d="m 225.77,484.94 -0.06,-0.18 0.22,0 c 0.7,0 0.93,-0.19 0.93,-0.5 0,-0.07 -0.02,-0.19 -0.03,-0.25 l -1.45,-5.84 c -0.09,-0.4 -0.32,-0.75 -1.22,-0.75 l -0.23,0 -0.05,-0.19 3.83,0 c 2.44,0 3.41,1.12 3.41,2.28 0,1.01 -0.79,1.5 -1.5,1.63 l -0.04,0.05 c 0.24,0.06 0.58,0.15 0.88,0.31 0.56,0.28 1.07,0.81 1.07,1.73 0,1.61 -1.79,1.71 -2.79,1.71 l -0.01,-0.46 c 0.64,0 1.41,-0.24 1.41,-1.15 0,-1.15 -0.66,-1.93 -1.99,-1.93 l -0.13,-0.41 c 0.93,0 1.68,-0.41 1.68,-1.28 0,-1.53 -1.13,-2.03 -2.24,-2.03 -0.31,0 -0.55,0.03 -0.84,0.11 l 0.8,3.15 c 0.18,0.05 0.42,0.05 0.6,0.05 l 0.13,0.41 c -0.17,0 -0.39,0.03 -0.62,0.07 l 0.7,2.98 c 0.15,0.02 0.33,0.03 0.5,0.03 l 0.01,0.46 z" /><path style="fill:#000000;stroke-width:0" id="path4409" d="m 233.29,481.48 0.05,0.08 0.04,0.09 0.05,0.09 0.05,0.1 0.06,0.1 0.05,0.1 0.06,0.11 0.06,0.11 0.11,0.23 0.12,0.24 0.12,0.24 0.12,0.23 0.12,0.23 0.05,0.12 0.06,0.11 0.05,0.1 0.05,0.11 0.05,0.1 0.04,0.09 0.05,0.09 0.03,0.09 0.04,0.08 0.03,0.07 0.03,0.07 0.03,0.06 0.02,0.05 0.02,0.05 c 0.03,0.09 0.07,0.27 0.07,0.35 0,0.37 -0.24,0.53 -0.51,0.53 -0.23,0 -0.45,-0.13 -0.57,-0.51 -0.13,-0.44 -0.61,-2.5 -0.8,-3.43 z" /></g>      <g style="font-style:normal;font-variant:normal;font-weight:normal;font-stretch:normal;letter-spacing:normal;word-spacing:normal;text-anchor:start;fill:none;fill-opacity:1;fill-rule:evenodd;stroke:#000000;stroke-linecap:butt;stroke-linejoin:miter;stroke-miterlimit:10.43299961;stroke-dasharray:none;stroke-dashoffset:0;stroke-opacity:1" id="g4465" transform="matrix(2,0,0,-2,-79.250903,1513.2212)" xml:space="preserve" stroke-miterlimit="10.433" font-style="normal" font-variant="normal" font-weight="normal" font-stretch="normal" font-size-adjust="none" letter-spacing="normal" word-spacing="normal" ns0:text="$C$" ns0:preamble="/Users/kjb81/Documents/underground-inkscape-preamble.tex"><path style="fill:#000000;stroke-width:0" d="m 231.83,485.02 -0.22,0 c -0.17,-0.3 -0.36,-0.32 -0.49,-0.32 -0.62,0 -1.23,0.32 -1.87,0.32 -2.85,0 -5.23,-1.93 -5.23,-4.64 0,-1.74 1.12,-3.29 3.4,-3.29 0.46,0 1.36,0.07 2.28,0.72 0.34,0.25 0.73,0.61 1.05,1.09 l -0.23,0.15 c -0.06,-0.08 -0.12,-0.15 -0.2,-0.23 -0.54,-0.58 -1.4,-1.16 -2.56,-1.16 -1.59,0 -2.3,1.2 -2.3,2.53 0,2.01 1.4,4.39 3.77,4.39 1.43,0 1.79,-0.93 1.79,-1.7 0,-0.3 0,-0.4 -0.01,-0.5 l 0.19,0 z" id="path4467" /></g>      <g style="font-style:normal;font-variant:normal;font-weight:normal;font-stretch:normal;letter-spacing:normal;word-spacing:normal;text-anchor:start;fill:none;fill-opacity:1;fill-rule:evenodd;stroke:#000000;stroke-linecap:butt;stroke-linejoin:miter;stroke-miterlimit:10.43299961;stroke-dasharray:none;stroke-dashoffset:0;stroke-opacity:1" ns0:preamble="/Users/kjb81/Documents/underground-inkscape-preamble.tex" ns0:text="$C\&#39;$" word-spacing="normal" letter-spacing="normal" font-size-adjust="none" font-stretch="normal" font-weight="normal" font-variant="normal" font-style="normal" stroke-miterlimit="10.433" xml:space="preserve" transform="matrix(2,0,0,-2,-137.5,1515.7857)" id="g4527"><path style="fill:#000000;stroke-width:0" id="path4529" d="m 231.83,485.02 -0.22,0 c -0.17,-0.3 -0.36,-0.32 -0.49,-0.32 -0.62,0 -1.23,0.32 -1.87,0.32 -2.85,0 -5.23,-1.93 -5.23,-4.64 0,-1.74 1.12,-3.29 3.4,-3.29 0.46,0 1.36,0.07 2.28,0.72 0.34,0.25 0.73,0.61 1.05,1.09 l -0.23,0.15 c -0.06,-0.08 -0.12,-0.15 -0.2,-0.23 -0.54,-0.58 -1.4,-1.16 -2.56,-1.16 -1.59,0 -2.3,1.2 -2.3,2.53 0,2.01 1.4,4.39 3.77,4.39 1.43,0 1.79,-0.93 1.79,-1.7 0,-0.3 0,-0.4 -0.01,-0.5 l 0.19,0 z" /><path style="fill:#000000;stroke-width:0" id="path4531" d="m 233.47,481.48 0.04,0.08 0.05,0.09 0.05,0.09 0.05,0.1 0.06,0.1 0.05,0.1 0.06,0.11 0.05,0.11 0.12,0.23 0.12,0.24 0.12,0.24 0.12,0.23 0.12,0.23 0.05,0.12 0.06,0.11 0.05,0.1 0.05,0.11 0.05,0.1 0.04,0.09 0.04,0.09 0.04,0.09 0.04,0.08 0.03,0.07 0.03,0.07 0.03,0.06 0.02,0.05 0.02,0.05 c 0.03,0.09 0.07,0.27 0.07,0.35 0,0.37 -0.24,0.53 -0.51,0.53 -0.23,0 -0.45,-0.13 -0.57,-0.51 -0.13,-0.44 -0.61,-2.5 -0.81,-3.43 z" /></g>      <g style="font-style:normal;font-variant:normal;font-weight:normal;font-stretch:normal;letter-spacing:normal;word-spacing:normal;text-anchor:start;fill:none;fill-opacity:1;fill-rule:evenodd;stroke:#000000;stroke-linecap:butt;stroke-linejoin:miter;stroke-miterlimit:10.43299961;stroke-dasharray:none;stroke-dashoffset:0;stroke-opacity:1" id="g4597" transform="matrix(2,0,0,-2,-155.23513,1570.7785)" xml:space="preserve" stroke-miterlimit="10.433" font-style="normal" font-variant="normal" font-weight="normal" font-stretch="normal" font-size-adjust="none" letter-spacing="normal" word-spacing="normal" ns0:text="$P$" ns0:preamble="/Users/kjb81/Documents/underground-inkscape-preamble.tex"><path style="fill:#000000;stroke-width:0" d="m 225.8,484.94 -0.04,-0.18 0.22,0 c 0.72,0 0.92,-0.19 0.92,-0.44 0,-0.1 -0.02,-0.2 -0.04,-0.3 l -1.48,-5.86 c -0.11,-0.41 -0.34,-0.74 -1.25,-0.74 l -0.2,0 -0.05,-0.19 4.03,0 0.04,0.19 -0.37,0 c -0.7,0 -0.91,0.18 -0.91,0.46 0,0.1 0.01,0.18 0.03,0.28 l 0.66,2.63 c 0.05,-0.01 0.09,-0.02 0.15,-0.02 0.28,-0.05 0.54,-0.06 0.87,-0.06 2.41,0 3.36,1.19 3.36,2.34 0,0.88 -0.73,1.89 -2.74,1.89 l -0.14,-0.43 c 1.12,0 1.48,-0.63 1.48,-1.34 0,-1.2 -0.95,-2.03 -2.15,-2.03 -0.24,0 -0.52,0.05 -0.71,0.1 l 0.8,3.23 c 0.21,0.03 0.38,0.04 0.58,0.04 l 0.14,0.43 z" id="path4599" /></g>      <g style="font-style:normal;font-variant:normal;font-weight:normal;font-stretch:normal;letter-spacing:normal;word-spacing:normal;text-anchor:start;fill:none;fill-opacity:1;fill-rule:evenodd;stroke:#000000;stroke-linecap:butt;stroke-linejoin:miter;stroke-miterlimit:10.43299961;stroke-dasharray:none;stroke-dashoffset:0;stroke-opacity:1" ns0:preamble="/Users/kjb81/Documents/underground-inkscape-preamble.tex" ns0:text="$\\alpha$" word-spacing="normal" letter-spacing="normal" font-size-adjust="none" font-stretch="normal" font-weight="normal" font-variant="normal" font-style="normal" stroke-miterlimit="10.433" xml:space="preserve" transform="matrix(2,0,0,-2,-305.96198,1560.8363)" id="g4667"><path id="path4669" d="m 229.68,482.29 -0.94,0 -0.75,-1.45 c 0,0.82 -0.44,1.6 -1.35,1.6 -1.27,0 -2.32,-1.26 -2.65,-2.64 -0.07,-0.3 -0.09,-0.52 -0.09,-0.78 0,-0.98 0.52,-1.9 1.53,-1.9 l 0.1,0.35 c -0.59,0 -0.63,0.57 -0.63,1.24 0,1.88 0.93,3.38 1.6,3.38 0.69,0 0.73,-0.83 0.73,-1.63 l 0,0 c 0,-0.32 -0.01,-0.6 -0.05,-0.84 -0.23,-0.65 -0.89,-2.15 -1.65,-2.15 l -0.1,-0.35 c 0.79,0 1.4,0.43 1.8,1.02 l 0.03,0 c 0.02,-0.54 0.35,-1.02 0.78,-1.02 0.52,0 0.91,0.65 1.12,1.51 l -0.18,0.08 c -0.22,-0.65 -0.4,-0.87 -0.54,-0.87 -0.29,0 -0.4,0.6 -0.4,1.17 l 0,0.43 z" style="fill:#000000;stroke-width:0" /></g>      <path style="fill:none;fill-rule:evenodd;stroke:#000000;stroke-width:1px;stroke-linecap:butt;stroke-linejoin:miter;stroke-opacity:1" d="m 129.22376,604.94036 c 7.84228,7.01732 8.60313,9.95842 9.36917,17.5009" id="path4704" />
    </g>
  </g>
</svg>