<?xml version='1.0' ?><svg xmlns:ns0="http://www.iki.fi/pav/software/textext/" xmlns:dc="http://purl.org/dc/elements/1.1/" xmlns:cc="http://creativecommons.org/ns#" xmlns:rdf="http://www.w3.org/1999/02/22-rdf-syntax-ns#" xmlns:svg="http://www.w3.org/2000/svg" xmlns="http://www.w3.org/2000/svg" id="svg2" version="1.1" width="287.63473" height="253.51383" viewBox="0.0 53.879988780463016 106.28525431683137 93.6770809783087" preserveAspectRatio="none">
  <metadata id="metadata89">
    <rdf:RDF>
      <cc:Work rdf:about="">
        <dc:format>image/svg+xml</dc:format>
        <dc:type rdf:resource="http://purl.org/dc/dcmitype/StillImage" />
        <dc:title />
      </cc:Work>
    </rdf:RDF>
  </metadata>
  <defs id="defs87" />
  <g style="stroke-width:1;stroke-linecap:square;stroke-linejoin:miter;stroke-miterlimit:10;stroke-dasharray:none;stroke-dashoffset:0" id="g11" clip-path="url(#clip1)" transform="matrix(0.25730964,0,0,0.25730964,0,54.410987)">
    <g style="fill:none;stroke:#000000;stroke-linecap:butt;stroke-opacity:1" id="g13">
      <path id="path15" d="m 48.562,2 0,360" />
    </g>
  </g>
  <g style="stroke-width:1;stroke-linecap:square;stroke-linejoin:miter;stroke-miterlimit:10;stroke-dasharray:none;stroke-dashoffset:0" id="g20" clip-path="url(#clip2)" transform="matrix(0.25730964,0,0,0.25730964,0,53.622689)">
    <g style="fill:#000000;fill-opacity:1;fill-rule:evenodd;stroke:none" id="g22">
      <path id="path24" d="m 48.562,1 -4,16 8,0" />
    </g>
  </g>
  <g style="stroke-width:1;stroke-linecap:square;stroke-linejoin:miter;stroke-miterlimit:10;stroke-dasharray:none;stroke-dashoffset:0" id="g29" clip-path="url(#clip3)" transform="matrix(0.25730964,0,0,0.25730964,0,54.410987)">
    <g style="fill:none;stroke:#000000;stroke-linecap:butt;stroke-opacity:1" id="g31">
      <path id="path33" d="m 0,319.67 409,0" />
    </g>
  </g>
  <g style="stroke-width:1;stroke-linecap:square;stroke-linejoin:miter;stroke-miterlimit:10;stroke-dasharray:none;stroke-dashoffset:0" id="g38" clip-path="url(#clip4)" transform="matrix(0.25730964,0,0,0.25730964,0.78829795,54.410987)">
    <g style="fill:#000000;fill-opacity:1;fill-rule:evenodd;stroke:none" id="g40">
      <path id="path42" d="m 410,319.67 -16,-4 0,8" />
    </g>
  </g>
  <g style="stroke-width:1;stroke-linecap:square;stroke-linejoin:miter;stroke-miterlimit:10;stroke-dasharray:none;stroke-dashoffset:0" id="misc" transform="matrix(0.25730964,0,0,0.25730964,0,54.410987)" />
  <g style="stroke-width:1;stroke-linecap:square;stroke-linejoin:miter;stroke-miterlimit:10;stroke-dasharray:none;stroke-dashoffset:0" id="layer0" transform="matrix(0.25730964,0,0,0.25730964,0,54.410987)">
    <clipPath id="clipee1832e5-cad1-4189-907d-1a4ad1708836">
      <path id="path47" d="m 0,0 0,362 411,0 0,-362 z" />
    </clipPath>
    <g id="g49" clip-path="url(#clip5)">
      <g style="fill:none;stroke:#cc0000;stroke-width:2.5;stroke-linecap:round;stroke-linejoin:round;stroke-opacity:0.69803999" id="g51">
        <path id="path53" d="m 118.56,232.96 0.24,-0.09 m 0,0 3.22,-1.29 m 0,0 3.21,-1.4 3.21,-1.51 m 0,0 3.21,-1.63 3.21,-1.73 3.21,-1.85 3.21,-1.97 3.21,-2.07 3.21,-2.19 3.21,-2.3 3.21,-2.41 m 0,0 3.22,-2.52 3.21,-2.64 3.21,-2.74 3.21,-2.87 3.21,-2.97 3.21,-3.08 3.21,-3.2 3.21,-3.31 3.21,-3.42 3.21,-3.53 3.22,-3.65 3.21,-3.76 3.21,-3.87 3.21,-3.98 3.21,-4.1 3.21,-4.21 m 0,0 3.21,-4.32 3.21,-4.43 3.21,-4.54 3.21,-4.66 3.21,-4.77 3.22,-4.88 3.21,-4.99 3.21,-5.11 3.21,-5.22 3.21,-5.33 3.21,-5.44 3.21,-5.555 3.21,-5.667 3.21,-5.779 3.21,-5.892 3.22,-6.004 m 0,0 1.68,-3.198" />
        <title id="title55">Function f</title>
        <desc id="desc57">f(x) = If(x &gt; 0.5 Ã&#131;Â¢Ã&#130;Â&#136;Ã&#130;Â§ x &lt; 1.5, (x - 0.25)Ã&#131;Â&#130;Ã&#130;Â² + 0.75)</desc>
      </g>
    </g>
    <clipPath id="clip88555dc9-6f44-47ad-8c86-810dba9142ec">
      <path id="path60" d="m 0,0 0,362 411,0 0,-362 z" />
    </clipPath>
    <g id="g62" clip-path="url(#clip6)">
      <g style="fill:none;stroke:#000000;stroke-width:2.5;stroke-linecap:round;stroke-linejoin:round;stroke-opacity:0.69803999" id="g64">
        <path id="path66" d="m 118.56,259.64 0.24,-0.27 m 0,0 3.22,-3.68 m 0,0 3.21,-3.67 3.21,-3.67 m 0,0 3.21,-3.67 3.21,-3.67 3.21,-3.67 3.21,-3.67 3.21,-3.68 3.21,-3.67 3.21,-3.67 3.21,-3.67 m 0,0 3.22,-3.67 3.21,-3.67 3.21,-3.68 3.21,-3.67 3.21,-3.67 3.21,-3.67 3.21,-3.67 3.21,-3.67 3.21,-3.67 3.21,-3.68 3.22,-3.67 3.21,-3.67 3.21,-3.67 3.21,-3.67 3.21,-3.67 3.21,-3.67 m 0,0 3.21,-3.68 3.21,-3.67 3.21,-3.67 3.21,-3.67 3.21,-3.67 3.22,-3.67 3.21,-3.67 3.21,-3.68 3.21,-3.67 3.21,-3.67 3.21,-3.67 3.21,-3.67 3.21,-3.67 3.21,-3.67 3.21,-3.68 3.22,-3.67 m 0,0 1.68,-1.926" />
        <title id="title68">Function i</title>
        <desc id="desc70">Function i: i(x) = If(0.5 &lt; x &lt; 1.5, f(1) + f&#39;(1) (x - 1))</desc>
      </g>
    </g>
    <clipPath id="clip097fde73-a6ed-4318-926a-14a7e513be35">
      <path id="path73" d="m 0,0 0,362 411,0 0,-362 z" />
    </clipPath>
    <g id="g75" clip-path="url(#clip7)">
      <g style="fill:none;stroke:#000000;stroke-width:1.5;stroke-linecap:butt;stroke-linejoin:round;stroke-dasharray:9.5, 8;stroke-opacity:0.69803999" id="g77">
        <path id="path79" d="m 188.56,319.67 0,-140.07" />
        <title id="title81">Segment h</title>
        <desc id="desc83">Segment h: Segment A, B</desc>
      </g>
    </g>
  </g>
  <g style="font-style:normal;font-variant:normal;font-weight:normal;font-stretch:normal;letter-spacing:normal;word-spacing:normal;text-anchor:start;fill:none;fill-opacity:1;fill-rule:evenodd;stroke:#000000;stroke-linecap:butt;stroke-linejoin:miter;stroke-miterlimit:10.43299961;stroke-dasharray:none;stroke-dashoffset:0;stroke-opacity:1" id="content" transform="matrix(0.8,0,0,-0.8,-134.05483,526.1926)" xml:space="preserve" stroke-miterlimit="10.433" font-style="normal" font-variant="normal" font-weight="normal" font-stretch="normal" font-size-adjust="none" letter-spacing="normal" word-spacing="normal" ns0:text="$x_0$" ns0:preamble="/Users/prmb/CMEP/underground-inkscape-preamble.tex"><path style="fill:#000000;stroke-width:0" d="m 227.03,480.64 -0.23,0.64 c -0.15,0.39 -0.37,0.88 -0.89,1.16 l -1.56,-0.39 0.04,-0.21 c 0.12,0.05 0.29,0.07 0.45,0.07 0.65,0 0.95,-0.48 1.15,-1.05 l 0.39,-1.09 -0.76,-1.19 c -0.38,-0.58 -0.69,-0.7 -0.83,-0.7 -0.3,0 -0.25,0.24 -0.55,0.24 -0.3,0 -0.45,-0.25 -0.45,-0.44 0,-0.26 0.19,-0.55 0.61,-0.55 0.66,0 1,0.51 1.38,1.08 l 0.74,1.16 0.48,-1.33 c 0.15,-0.43 0.38,-0.91 0.86,-0.91 0.68,0 1.21,1.13 1.36,1.31 l -0.17,0.12 c -0.25,-0.51 -0.53,-0.68 -0.72,-0.68 -0.53,0 -0.8,1.6 -1.15,2.33 l 0.64,1 c 0.17,0.26 0.3,0.45 0.65,0.45 0.2,0 0.26,-0.1 0.52,-0.1 0.31,0 0.46,0.27 0.46,0.49 0,0.25 -0.2,0.39 -0.57,0.39 -0.6,0 -1.01,-0.52 -1.32,-0.99 z" id="path4308" /><path style="fill:#000000;stroke-width:0" d="m 234.17,477.67 0,0.17 -0.01,0.16 -0.01,0.17 -0.01,0.15 -0.02,0.16 -0.03,0.15 -0.03,0.14 -0.03,0.15 -0.04,0.13 -0.04,0.14 -0.04,0.13 -0.05,0.12 -0.06,0.12 -0.05,0.11 -0.06,0.11 -0.07,0.1 -0.06,0.1 -0.07,0.1 -0.08,0.08 -0.07,0.09 -0.08,0.07 -0.08,0.07 -0.09,0.07 -0.09,0.05 -0.09,0.05 -0.09,0.05 -0.1,0.04 -0.1,0.03 -0.1,0.02 -0.1,0.02 -0.11,0.01 -0.11,0.01 c -1.43,0 -2.04,-1.45 -2.04,-3.02 0,-1.45 0.49,-3.1 2.01,-3.1 l 0,0.23 c -0.77,0 -1.16,1.01 -1.16,2.81 0,1.8 0.4,2.85 1.14,2.85 0.78,0 1.17,-1.04 1.17,-2.88 l 0,0 c 0,-1.76 -0.4,-2.78 -1.15,-2.78 l 0,-0.23 c 1.45,0 2,1.52 2,3.05 z" id="path4310" /></g>  <g style="font-style:normal;font-variant:normal;font-weight:normal;font-stretch:normal;letter-spacing:normal;word-spacing:normal;text-anchor:start;fill:none;fill-opacity:1;fill-rule:evenodd;stroke:#000000;stroke-linecap:butt;stroke-linejoin:miter;stroke-miterlimit:10.43299961;stroke-dasharray:none;stroke-dashoffset:0;stroke-opacity:1" ns0:preamble="/Users/prmb/CMEP/underground-inkscape-preamble.tex" ns0:text="$x$" word-spacing="normal" letter-spacing="normal" font-size-adjust="none" font-stretch="normal" font-weight="normal" font-variant="normal" font-style="normal" stroke-miterlimit="10.433" xml:space="preserve" transform="matrix(0.8,0,0,-0.8,-78.968851,527.60331)" id="g4416"><path style="fill:#000000;stroke-width:0" id="path4418" d="m 227.03,480.64 -0.23,0.64 c -0.15,0.39 -0.37,0.88 -0.89,1.16 l -1.56,-0.39 0.04,-0.21 c 0.12,0.05 0.29,0.07 0.45,0.07 0.65,0 0.95,-0.48 1.15,-1.05 l 0.39,-1.09 -0.76,-1.19 c -0.38,-0.58 -0.69,-0.7 -0.83,-0.7 -0.3,0 -0.25,0.24 -0.55,0.24 -0.3,0 -0.45,-0.25 -0.45,-0.44 0,-0.26 0.19,-0.55 0.61,-0.55 0.66,0 1,0.51 1.38,1.08 l 0.74,1.16 0.48,-1.33 c 0.15,-0.43 0.38,-0.91 0.86,-0.91 0.68,0 1.21,1.13 1.36,1.31 l -0.17,0.12 c -0.25,-0.51 -0.53,-0.68 -0.72,-0.68 -0.53,0 -0.8,1.6 -1.15,2.33 l 0.64,1 c 0.17,0.26 0.3,0.45 0.65,0.45 0.2,0 0.26,-0.1 0.52,-0.1 0.31,0 0.46,0.27 0.46,0.49 0,0.25 -0.2,0.39 -0.57,0.39 -0.6,0 -1.01,-0.52 -1.32,-0.99 z" /></g>  <g id="g4526" transform="matrix(0.8,0,0,-0.8,-174.98677,441.94146)" xml:space="preserve" stroke-miterlimit="10.433" font-style="normal" font-variant="normal" font-weight="normal" font-stretch="normal" font-size-adjust="none" letter-spacing="normal" word-spacing="normal" ns0:text="$y$" ns0:preamble="/Users/prmb/CMEP/underground-inkscape-preamble.tex" style="font-style:normal;font-variant:normal;font-weight:normal;font-stretch:normal;letter-spacing:normal;word-spacing:normal;text-anchor:start;fill:none;fill-opacity:1;fill-rule:evenodd;stroke:#000000;stroke-linecap:butt;stroke-linejoin:miter;stroke-miterlimit:10.43299961;stroke-dasharray:none;stroke-dashoffset:0;stroke-opacity:1"><path style="fill:#000000;stroke-width:0" d="m 226.62,480.86 -0.01,0.08 -0.01,0.08 -0.01,0.07 -0.01,0.07 -0.01,0.07 -0.01,0.07 -0.01,0.06 -0.01,0.06 -0.01,0.06 -0.01,0.05 -0.01,0.06 -0.01,0.05 -0.01,0.05 -0.01,0.04 -0.02,0.05 -0.01,0.05 -0.01,0.04 -0.02,0.04 -0.01,0.04 -0.01,0.04 -0.04,0.08 -0.03,0.07 -0.04,0.08 -0.04,0.07 -0.04,0.07 -0.05,0.07 -1.77,-0.3 0.02,-0.18 c 0.11,0.01 0.3,0.04 0.43,0.04 0.66,0 0.76,-0.71 0.82,-1.24 l 0.45,-3.7 c -0.31,-0.48 -0.98,-1.21 -1.18,-1.21 -0.19,0 -0.16,0.37 -0.67,0.37 -0.16,0 -0.47,-0.13 -0.47,-0.49 0,-0.28 0.22,-0.64 0.66,-0.64 0.8,0 1.57,1.15 2.43,2.24 0.5,0.62 2.41,3.46 2.41,4.38 0,0.46 -0.3,0.73 -0.67,0.73 -0.35,0 -0.56,-0.21 -0.56,-0.47 0,-0.45 0.61,-0.57 0.61,-0.82 0,-0.21 -0.09,-0.45 -0.33,-0.88 -0.26,-0.49 -0.67,-1.19 -1.39,-2.18 z" id="path4528" /></g>  <g style="font-style:normal;font-variant:normal;font-weight:normal;font-stretch:normal;letter-spacing:normal;word-spacing:normal;text-anchor:start;fill:none;fill-opacity:1;fill-rule:evenodd;stroke:#000000;stroke-linecap:butt;stroke-linejoin:miter;stroke-miterlimit:10.43299961;stroke-dasharray:none;stroke-dashoffset:0;stroke-opacity:1" ns0:preamble="/Users/prmb/CMEP/underground-inkscape-preamble.tex" ns0:text="$y=f(x)$" word-spacing="normal" letter-spacing="normal" font-size-adjust="none" font-stretch="normal" font-weight="normal" font-variant="normal" font-style="normal" stroke-miterlimit="10.433" xml:space="preserve" transform="matrix(0.7,0,0,-0.7,-124.68224,410.5152)" id="g4640"><path id="path4642" d="m 226.62,480.86 -0.01,0.08 -0.01,0.08 -0.01,0.07 -0.01,0.07 -0.01,0.07 -0.01,0.07 -0.01,0.06 -0.01,0.06 -0.01,0.06 -0.01,0.05 -0.01,0.06 -0.01,0.05 -0.01,0.05 -0.01,0.04 -0.02,0.05 -0.01,0.05 -0.01,0.04 -0.02,0.04 -0.01,0.04 -0.01,0.04 -0.04,0.08 -0.03,0.07 -0.04,0.08 -0.04,0.07 -0.04,0.07 -0.05,0.07 -1.77,-0.3 0.02,-0.18 c 0.11,0.01 0.3,0.04 0.43,0.04 0.66,0 0.76,-0.71 0.82,-1.24 l 0.45,-3.7 c -0.31,-0.48 -0.98,-1.21 -1.18,-1.21 -0.19,0 -0.16,0.37 -0.67,0.37 -0.16,0 -0.47,-0.13 -0.47,-0.49 0,-0.28 0.22,-0.64 0.66,-0.64 0.8,0 1.57,1.15 2.43,2.24 0.5,0.62 2.41,3.46 2.41,4.38 0,0.46 -0.3,0.73 -0.67,0.73 -0.35,0 -0.56,-0.21 -0.56,-0.47 0,-0.45 0.61,-0.57 0.61,-0.82 0,-0.21 -0.09,-0.45 -0.33,-0.88 -0.26,-0.49 -0.67,-1.19 -1.39,-2.18 z" style="fill:#000000;stroke-width:0" /><polygon id="polygon4644" points="232.64,481.01 239.59,481.01 239.59,481.79 232.64,481.79 " style="fill:#000000;stroke-width:0" /><polygon id="polygon4646" points="232.64,478.65 239.59,478.65 239.59,479.43 232.64,479.43 " style="fill:#000000;stroke-width:0" /><path id="path4648" d="m 245.88,482.39 -0.1,-0.44 0.91,0 -1.03,-4.04 c -0.18,-0.68 -0.53,-2.54 -1.3,-2.54 -0.1,0 -0.18,0.03 -0.18,0.11 0,0.14 0.19,0.15 0.19,0.37 0,0.18 -0.11,0.39 -0.43,0.39 -0.34,0 -0.51,-0.29 -0.51,-0.57 0,-0.36 0.28,-0.64 0.85,-0.64 1.04,0 1.68,1.12 2.07,2.1 0.17,0.44 0.27,0.88 0.35,1.2 l 0.93,3.62 0.9,0 0.14,0.44 -0.94,0 0.22,0.83 c 0.25,0.92 0.71,1.56 1.3,1.56 0.14,0 0.18,-0.04 0.18,-0.1 0,-0.09 -0.11,-0.27 -0.11,-0.43 0,-0.17 0.08,-0.3 0.41,-0.3 0.24,0 0.49,0.14 0.49,0.47 0,0.42 -0.34,0.7 -0.93,0.7 -0.9,0 -1.41,-0.51 -1.78,-1.06 -0.5,-0.76 -0.44,-1.67 -1.19,-1.67 z" style="fill:#000000;stroke-width:0" /><path id="path4650" d="m 253.12,475.33 -0.15,0.13 -0.14,0.13 -0.14,0.13 -0.13,0.13 -0.12,0.13 -0.12,0.13 -0.11,0.13 -0.1,0.14 -0.1,0.13 -0.09,0.13 -0.08,0.14 -0.08,0.14 -0.07,0.14 -0.07,0.14 -0.06,0.14 -0.06,0.14 -0.05,0.15 -0.05,0.15 -0.05,0.16 -0.04,0.15 -0.03,0.16 -0.03,0.16 -0.03,0.17 -0.02,0.17 -0.02,0.17 -0.02,0.18 -0.02,0.18 -0.01,0.18 0,0.19 -0.01,0.19 0,0.2 0,0.21 c 0,2.27 0.36,3.37 2,4.78 l -0.1,0.19 c -1.89,-1.13 -2.92,-2.83 -2.92,-5.01 0,-2.01 1.02,-4 2.88,-5.07 z" style="fill:#000000;stroke-width:0" /><path id="path4652" d="m 257.08,480.64 -0.24,0.64 c -0.14,0.39 -0.36,0.88 -0.88,1.16 l -1.56,-0.39 0.03,-0.21 c 0.12,0.05 0.3,0.07 0.45,0.07 0.65,0 0.96,-0.48 1.16,-1.05 l 0.39,-1.09 -0.77,-1.19 c -0.37,-0.58 -0.68,-0.7 -0.82,-0.7 -0.3,0 -0.25,0.24 -0.56,0.24 -0.29,0 -0.45,-0.25 -0.45,-0.44 0,-0.26 0.19,-0.55 0.62,-0.55 0.66,0 1,0.51 1.38,1.08 l 0.74,1.16 0.47,-1.33 c 0.16,-0.43 0.38,-0.91 0.87,-0.91 0.68,0 1.21,1.13 1.35,1.31 l -0.16,0.12 c -0.25,-0.51 -0.53,-0.68 -0.72,-0.68 -0.53,0 -0.8,1.6 -1.16,2.33 l 0.65,1 c 0.17,0.26 0.3,0.45 0.65,0.45 0.2,0 0.26,-0.1 0.52,-0.1 0.31,0 0.46,0.27 0.46,0.49 0,0.25 -0.2,0.39 -0.58,0.39 -0.59,0 -1,-0.52 -1.31,-0.99 z" style="fill:#000000;stroke-width:0" /><path id="path4654" d="m 260.34,485.03 0.15,-0.13 0.15,-0.13 0.14,-0.12 0.13,-0.13 0.13,-0.13 0.12,-0.13 0.11,-0.13 0.1,-0.13 0.1,-0.13 0.09,-0.13 0.09,-0.14 0.07,-0.14 0.08,-0.14 0.06,-0.14 0.07,-0.14 0.05,-0.15 0.05,-0.14 0.05,-0.15 0.04,-0.16 0.04,-0.16 0.03,-0.15 0.03,-0.17 0.03,-0.16 0.02,-0.17 0.02,-0.18 0.02,-0.18 0.01,-0.18 0.01,-0.18 0.01,-0.19 0,-0.2 0,-0.2 0,-0.2 c 0,-2.29 -0.33,-3.41 -2,-4.79 l 0.1,-0.19 c 1.88,1.15 2.92,2.83 2.92,5.01 0,2.01 -1.07,3.98 -2.88,5.07 z" style="fill:#000000;stroke-width:0" /></g>  <g id="g4794" transform="matrix(0.7,0,0,-0.7,-91.783673,425.41933)" xml:space="preserve" stroke-miterlimit="10.433" font-style="normal" font-variant="normal" font-weight="normal" font-stretch="normal" font-size-adjust="none" letter-spacing="normal" word-spacing="normal" ns0:text="$y=ax+b$" ns0:preamble="/Users/prmb/CMEP/underground-inkscape-preamble.tex" style="font-style:normal;font-variant:normal;font-weight:normal;font-stretch:normal;letter-spacing:normal;word-spacing:normal;text-anchor:start;fill:none;fill-opacity:1;fill-rule:evenodd;stroke:#000000;stroke-linecap:butt;stroke-linejoin:miter;stroke-miterlimit:10.43299961;stroke-dasharray:none;stroke-dashoffset:0;stroke-opacity:1"><path style="fill:#000000;stroke-width:0" d="m 226.62,480.86 -0.01,0.08 -0.01,0.08 -0.01,0.07 -0.01,0.07 -0.01,0.07 -0.01,0.07 -0.01,0.06 -0.01,0.06 -0.01,0.06 -0.01,0.05 -0.01,0.06 -0.01,0.05 -0.01,0.05 -0.01,0.04 -0.02,0.05 -0.01,0.05 -0.01,0.04 -0.02,0.04 -0.01,0.04 -0.01,0.04 -0.04,0.08 -0.03,0.07 -0.04,0.08 -0.04,0.07 -0.04,0.07 -0.05,0.07 -1.77,-0.3 0.02,-0.18 c 0.11,0.01 0.3,0.04 0.43,0.04 0.66,0 0.76,-0.71 0.82,-1.24 l 0.45,-3.7 c -0.31,-0.48 -0.98,-1.21 -1.18,-1.21 -0.19,0 -0.16,0.37 -0.67,0.37 -0.16,0 -0.47,-0.13 -0.47,-0.49 0,-0.28 0.22,-0.64 0.66,-0.64 0.8,0 1.57,1.15 2.43,2.24 0.5,0.62 2.41,3.46 2.41,4.38 0,0.46 -0.3,0.73 -0.67,0.73 -0.35,0 -0.56,-0.21 -0.56,-0.47 0,-0.45 0.61,-0.57 0.61,-0.82 0,-0.21 -0.09,-0.45 -0.33,-0.88 -0.26,-0.49 -0.67,-1.19 -1.39,-2.18 z" id="path4796" /><polygon style="fill:#000000;stroke-width:0" points="232.64,481.79 232.64,481.01 239.59,481.01 239.59,481.79 " id="polygon4798" /><polygon style="fill:#000000;stroke-width:0" points="232.64,479.43 232.64,478.65 239.59,478.65 239.59,479.43 " id="polygon4800" /><path style="fill:#000000;stroke-width:0" d="m 248.53,482.29 -0.94,0 -0.11,-0.39 -0.01,0 c -0.03,0.26 -0.27,0.54 -0.78,0.54 l 0.01,-0.34 c 0.45,0 0.59,-0.36 0.59,-0.84 l 0,0 c 0,-0.4 -0.08,-0.87 -0.18,-1.18 -0.33,-1.12 -1.15,-2.24 -1.97,-2.24 -0.32,0 -0.68,0.15 -0.68,0.78 0,0.41 0.11,0.93 0.33,1.46 0.4,0.99 1.11,2.02 1.91,2.02 l -0.01,0.34 c -1.7,0 -3.26,-2.36 -3.26,-3.92 0,-0.75 0.31,-1.4 1.05,-1.4 0.46,0 1.19,0.15 2.04,1.24 l 0.05,0 c -0.06,-0.19 -0.13,-0.44 -0.13,-0.59 0,-0.38 0.11,-0.65 0.5,-0.65 0.56,0 1.2,0.71 1.57,1.26 l -0.14,0.14 c -0.47,-0.61 -0.64,-0.64 -0.76,-0.64 -0.1,0 -0.17,0.07 -0.17,0.2 0,0.11 0.02,0.13 0.02,0.13 z" id="path4802" /><path style="fill:#000000;stroke-width:0" d="m 252.51,480.64 -0.24,0.64 c -0.14,0.39 -0.37,0.88 -0.89,1.16 l -1.55,-0.39 0.03,-0.21 c 0.12,0.05 0.3,0.07 0.45,0.07 0.65,0 0.96,-0.48 1.16,-1.05 l 0.39,-1.09 -0.77,-1.19 c -0.38,-0.58 -0.69,-0.7 -0.83,-0.7 -0.29,0 -0.25,0.24 -0.55,0.24 -0.3,0 -0.45,-0.25 -0.45,-0.44 0,-0.26 0.19,-0.55 0.61,-0.55 0.66,0 1.01,0.51 1.38,1.08 l 0.75,1.16 0.47,-1.33 c 0.15,-0.43 0.38,-0.91 0.86,-0.91 0.69,0 1.22,1.13 1.36,1.31 l -0.17,0.12 c -0.24,-0.51 -0.53,-0.68 -0.72,-0.68 -0.53,0 -0.8,1.6 -1.15,2.33 l 0.65,1 c 0.16,0.26 0.29,0.45 0.65,0.45 0.2,0 0.26,-0.1 0.52,-0.1 0.3,0 0.46,0.27 0.46,0.49 0,0.25 -0.2,0.39 -0.58,0.39 -0.59,0 -1.01,-0.52 -1.31,-0.99 z" id="path4804" /><polygon style="fill:#000000;stroke-width:0" points="262.06,480.61 262.06,483.69 261.29,483.69 261.29,480.61 258.2,480.61 258.2,479.83 261.29,479.83 261.29,476.75 262.06,476.75 262.06,479.83 265.15,479.83 265.15,480.61 " id="polygon4806" /><path style="fill:#000000;stroke-width:0" d="m 270.48,481.74 0.87,3.38 -1.87,-0.28 0.04,-0.19 c 0.09,0.03 0.23,0.05 0.35,0.05 0.15,0 0.33,-0.1 0.34,-0.25 0,-0.04 -0.01,-0.08 -0.02,-0.13 l -1.7,-6.65 c 0.53,-0.35 1.01,-0.56 1.64,-0.56 l -0.06,0.34 c -0.27,0 -0.65,0.14 -0.65,0.22 l 0.65,2.54 c 0.13,0.53 0.53,1.58 1.38,1.58 0.39,0 0.84,-0.26 0.84,-1.08 0,-1.21 -0.78,-3.26 -2.22,-3.26 l 0.06,-0.34 c 1.85,0 3.14,2.12 3.14,3.55 0,0.97 -0.48,1.78 -1.31,1.78 -0.58,0 -1.04,-0.36 -1.43,-0.74 z" id="path4808" /></g></svg>