<?xml version='1.0' ?><svg xmlns:dc="http://purl.org/dc/elements/1.1/" xmlns:cc="http://creativecommons.org/ns#" xmlns:rdf="http://www.w3.org/1999/02/22-rdf-syntax-ns#" xmlns:svg="http://www.w3.org/2000/svg" xmlns="http://www.w3.org/2000/svg" id="svg2" version="1.1" width="373.75" height="206.44157" viewBox="0.0 0.6982828546354515 617.9999999999999 341.35355253511705" preserveAspectRatio="none">
  <metadata id="metadata306">
    <rdf:RDF>
      <cc:Work rdf:about="">
        <dc:format>image/svg+xml</dc:format>
        <dc:type rdf:resource="http://purl.org/dc/dcmitype/StillImage" />
      </cc:Work>
    </rdf:RDF>
  </metadata>
  <defs id="defs304" />
  <title id="title4" />
  <g id="g6" stroke-linecap="square" stroke-miterlimit="10.000" stroke-width="1.0000" stroke-dasharray="none" stroke-dashoffset="0.0000" stroke-linejoin="miter">
    <clipPath id="clip1">
      <path id="path9" d="M 0.0000 0.0000 L 0.0000 342.00 L 618.00 342.00 L 618.00 0.0000 z" />
    </clipPath>
    <g id="g11" clip-path="url(#clip1)">
      <g id="g13" stroke="#000000" stroke-opacity="1.0000" fill="none" stroke-linecap="butt">
        <path id="path15" d="M 54.602 2.0000 L 54.602 342.00" />
      </g>
    </g>
    <clipPath id="clip2">
      <path id="path18" d="M 0.0000 0.0000 L 0.0000 342.00 L 618.00 342.00 L 618.00 0.0000 z" />
    </clipPath>
    <g id="g20" clip-path="url(#clip2)">
      <g id="g22" stroke="#000000" stroke-opacity="1.0000" fill="none" stroke-linecap="butt">
        <path id="path24" d="M 54.602 1.0000 L 49.602 6.0000" />
      </g>
    </g>
    <clipPath id="clip3">
      <path id="path27" d="M 0.0000 0.0000 L 0.0000 342.00 L 618.00 342.00 L 618.00 0.0000 z" />
    </clipPath>
    <g id="g29" clip-path="url(#clip3)">
      <g id="g31" stroke="#000000" stroke-opacity="1.0000" fill="none" stroke-linecap="butt">
        <path id="path33" d="M 54.602 1.0000 L 59.602 6.0000" />
      </g>
    </g>
    <clipPath id="clip4">
      <path id="path36" d="M 0.0000 0.0000 L 0.0000 342.00 L 618.00 342.00 L 618.00 0.0000 z" />
    </clipPath>
    <g id="g38" clip-path="url(#clip4)">
      <g id="g40" stroke="#000000" stroke-opacity="1.0000" fill="none" stroke-linecap="butt">
        <path id="path42" d="M 0.0000 179.39 L 616.00 179.39" />
      </g>
    </g>
    <clipPath id="clip5">
      <path id="path45" d="M 0.0000 0.0000 L 0.0000 342.00 L 618.00 342.00 L 618.00 0.0000 z" />
    </clipPath>
    <g id="g47" clip-path="url(#clip5)">
      <g id="g49" stroke="#000000" stroke-opacity="1.0000" fill="none" stroke-linecap="butt">
        <path id="path51" d="M 617.00 179.39 L 612.00 174.39" />
      </g>
    </g>
    <clipPath id="clip6">
      <path id="path54" d="M 0.0000 0.0000 L 0.0000 342.00 L 618.00 342.00 L 618.00 0.0000 z" />
    </clipPath>
    <g id="g56" clip-path="url(#clip6)">
      <g id="g58" stroke="#000000" stroke-opacity="1.0000" fill="none" stroke-linecap="butt">
        <path id="path60" d="M 617.00 179.39 L 612.00 184.39" />
      </g>
    </g>
    <clipPath id="clip7">
      <path id="path63" d="M 0.0000 0.0000 L 0.0000 342.00 L 618.00 342.00 L 618.00 0.0000 z" />
    </clipPath>
    <g id="g65" clip-path="url(#clip7)">
      <g id="g67" fill="#000000" stroke="none" fill-rule="nonzero" fill-opacity="1.0000">
        <path id="path69" d="M 64.702 198.27 Q 63.025 198.27 61.989 196.69 Q 60.952 195.11 60.952 192.57 Q 60.952 190.01 61.996 188.45 Q 63.040 186.89 64.746 186.89 Q 66.453 186.89 67.496 188.45 Q 68.540 190.01 68.540 192.55 Q 68.540 195.16 67.496 196.71 Q 66.453 198.27 64.702 198.27 z M 64.717 197.19 Q 67.009 197.19 67.009 192.53 Q 67.009 187.97 64.746 187.97 Q 62.490 187.97 62.490 192.57 Q 62.490 197.19 64.717 197.19 z" />
      </g>
    </g>
    <clipPath id="clip8">
      <path id="path72" d="M 0.0000 0.0000 L 0.0000 342.00 L 618.00 342.00 L 618.00 0.0000 z" />
    </clipPath>
    <g id="g74" clip-path="url(#clip8)">
      <g id="g76" fill="#000000" stroke="none" fill-rule="nonzero" fill-opacity="1.0000">
        <path id="path78" d="M 163.71 197.93 L 163.71 196.71 Q 165.08 197.19 166.05 197.19 Q 167.40 197.19 168.16 196.04 Q 168.91 194.89 168.91 192.85 Q 167.82 194.21 166.42 194.21 Q 165.05 194.21 164.09 193.20 Q 163.14 192.19 163.14 190.74 Q 163.14 189.08 164.16 187.98 Q 165.17 186.89 166.71 186.89 Q 168.47 186.89 169.49 188.31 Q 170.51 189.72 170.51 192.18 Q 170.51 194.98 169.27 196.63 Q 168.03 198.27 165.91 198.27 Q 165.06 198.27 163.71 197.93 z M 164.59 190.46 Q 164.59 191.72 165.15 192.44 Q 165.71 193.17 166.68 193.17 Q 167.60 193.17 168.24 192.54 Q 168.89 191.92 168.89 191.04 Q 168.89 189.66 168.27 188.81 Q 167.64 187.97 166.62 187.97 Q 165.68 187.97 165.13 188.64 Q 164.59 189.31 164.59 190.46 z M 176.19 198.27 Q 174.51 198.27 173.47 196.69 Q 172.44 195.11 172.44 192.57 Q 172.44 190.01 173.48 188.45 Q 174.52 186.89 176.23 186.89 Q 177.94 186.89 178.98 188.45 Q 180.02 190.01 180.02 192.55 Q 180.02 195.16 178.98 196.71 Q 177.94 198.27 176.19 198.27 z M 176.20 197.19 Q 178.49 197.19 178.49 192.53 Q 178.49 187.97 176.23 187.97 Q 173.98 187.97 173.98 192.57 Q 173.98 197.19 176.20 197.19 z" />
      </g>
    </g>
    <clipPath id="clip9">
      <path id="path81" d="M 0.0000 0.0000 L 0.0000 342.00 L 618.00 342.00 L 618.00 0.0000 z" />
    </clipPath>
    <g id="g83" clip-path="url(#clip9)">
      <g id="g85" fill="#000000" stroke="none" fill-rule="nonzero" fill-opacity="1.0000">
        <path id="path87" d="M 274.26 198.00 L 274.26 196.92 L 276.42 196.92 L 276.42 188.36 L 274.26 188.90 L 274.26 187.79 L 277.87 186.89 L 277.87 196.92 L 280.04 196.92 L 280.04 198.00 z M 284.93 192.10 Q 283.35 190.99 283.35 189.65 Q 283.35 188.42 284.25 187.65 Q 285.15 186.88 286.60 186.88 Q 287.94 186.88 288.77 187.53 Q 289.60 188.19 289.60 189.23 Q 289.60 190.80 287.58 192.10 Q 290.03 193.30 290.03 195.19 Q 290.03 196.56 289.00 197.41 Q 287.97 198.27 286.35 198.27 Q 284.75 198.27 283.77 197.46 Q 282.78 196.65 282.78 195.33 Q 282.78 193.39 284.93 192.10 z M 286.77 191.64 Q 288.29 190.65 288.29 189.42 Q 288.29 188.77 287.78 188.37 Q 287.28 187.97 286.45 187.97 Q 285.65 187.97 285.15 188.36 Q 284.66 188.76 284.66 189.38 Q 284.66 189.99 285.11 190.47 Q 285.56 190.95 286.77 191.64 z M 285.72 192.68 Q 284.85 193.36 284.54 193.86 Q 284.22 194.36 284.22 195.11 Q 284.22 196.04 284.82 196.61 Q 285.43 197.19 286.41 197.19 Q 287.35 197.19 287.95 196.70 Q 288.55 196.21 288.55 195.42 Q 288.55 194.79 288.18 194.36 Q 287.81 193.92 286.74 193.29 z M 295.67 198.27 Q 293.99 198.27 292.96 196.69 Q 291.92 195.11 291.92 192.57 Q 291.92 190.01 292.97 188.45 Q 294.01 186.89 295.72 186.89 Q 297.42 186.89 298.47 188.45 Q 299.51 190.01 299.51 192.55 Q 299.51 195.16 298.47 196.71 Q 297.42 198.27 295.67 198.27 z M 295.69 197.19 Q 297.98 197.19 297.98 192.53 Q 297.98 187.97 295.72 187.97 Q 293.46 187.97 293.46 192.57 Q 293.46 197.19 295.69 197.19 z" />
      </g>
    </g>
    <clipPath id="clip10">
      <path id="path90" d="M 0.0000 0.0000 L 0.0000 342.00 L 618.00 342.00 L 618.00 0.0000 z" />
    </clipPath>
    <g id="g92" clip-path="url(#clip10)">
      <g id="g94" fill="#000000" stroke="none" fill-rule="nonzero" fill-opacity="1.0000">
        <path id="path96" d="M 388.25 198.00 L 388.25 196.73 Q 388.88 195.26 390.79 193.52 L 391.62 192.79 Q 393.22 191.34 393.22 189.92 Q 393.22 189.01 392.67 188.49 Q 392.13 187.97 391.17 187.97 Q 390.05 187.97 388.52 188.84 L 388.52 187.57 Q 389.96 186.89 391.38 186.89 Q 392.90 186.89 393.83 187.71 Q 394.75 188.53 394.75 189.88 Q 394.75 190.86 394.28 191.61 Q 393.82 192.37 392.55 193.44 L 392.00 193.92 Q 390.26 195.39 389.99 196.73 L 394.70 196.73 L 394.70 198.00 z M 398.74 198.00 Q 398.95 196.73 399.34 195.81 Q 399.74 194.89 400.73 193.28 L 403.69 188.52 L 398.11 188.52 L 398.11 187.16 L 405.07 187.16 L 405.07 188.52 Q 400.90 194.66 400.40 198.00 z M 410.67 198.27 Q 408.99 198.27 407.96 196.69 Q 406.92 195.11 406.92 192.57 Q 406.92 190.01 407.97 188.45 Q 409.01 186.89 410.72 186.89 Q 412.42 186.89 413.47 188.45 Q 414.51 190.01 414.51 192.55 Q 414.51 195.16 413.47 196.71 Q 412.42 198.27 410.67 198.27 z M 410.69 197.19 Q 412.98 197.19 412.98 192.53 Q 412.98 187.97 410.72 187.97 Q 408.46 187.97 408.46 192.57 Q 408.46 197.19 410.69 197.19 z" />
      </g>
    </g>
    <clipPath id="clip11">
      <path id="path99" d="M 0.0000 0.0000 L 0.0000 342.00 L 618.00 342.00 L 618.00 0.0000 z" />
    </clipPath>
    <g id="g101" clip-path="url(#clip11)">
      <g id="g103" fill="#000000" stroke="none" fill-rule="nonzero" fill-opacity="1.0000">
        <path id="path105" d="M 502.52 197.92 L 502.52 196.57 Q 504.08 197.19 504.97 197.19 Q 506.00 197.19 506.65 196.58 Q 507.30 195.98 507.30 195.02 Q 507.30 192.73 504.10 192.73 L 503.53 192.73 L 503.53 191.76 L 504.03 191.75 Q 507.04 191.75 507.04 189.64 Q 507.04 187.97 505.06 187.97 Q 503.97 187.97 502.67 188.58 L 502.67 187.32 Q 503.95 186.89 505.16 186.89 Q 508.49 186.89 508.49 189.40 Q 508.49 191.31 506.22 192.13 Q 508.84 192.73 508.84 195.00 Q 508.84 196.53 507.83 197.40 Q 506.82 198.27 505.06 198.27 Q 504.05 198.27 502.52 197.92 z M 513.06 192.38 Q 514.10 191.04 515.66 191.04 Q 517.08 191.04 517.99 191.98 Q 518.89 192.92 518.89 194.40 Q 518.89 196.09 517.88 197.18 Q 516.86 198.27 515.30 198.27 Q 513.51 198.27 512.50 196.83 Q 511.49 195.39 511.49 192.82 Q 511.49 190.00 512.65 188.44 Q 513.81 186.88 515.92 186.88 Q 516.89 186.88 518.34 187.29 L 518.34 188.55 Q 516.81 187.97 515.83 187.97 Q 513.06 187.97 513.06 192.38 z M 517.44 194.72 Q 517.44 193.49 516.89 192.79 Q 516.34 192.08 515.36 192.08 Q 514.44 192.08 513.78 192.70 Q 513.12 193.31 513.12 194.18 Q 513.12 195.54 513.75 196.36 Q 514.37 197.19 515.41 197.19 Q 516.34 197.19 516.89 196.52 Q 517.44 195.85 517.44 194.72 z M 524.67 198.27 Q 522.99 198.27 521.96 196.69 Q 520.92 195.11 520.92 192.57 Q 520.92 190.01 521.97 188.45 Q 523.01 186.89 524.72 186.89 Q 526.42 186.89 527.47 188.45 Q 528.51 190.01 528.51 192.55 Q 528.51 195.16 527.47 196.71 Q 526.42 198.27 524.67 198.27 z M 524.69 197.19 Q 526.98 197.19 526.98 192.53 Q 526.98 187.97 524.72 187.97 Q 522.46 187.97 522.46 192.57 Q 522.46 197.19 524.69 197.19 z" />
      </g>
    </g>
    <clipPath id="clip12">
      <path id="path108" d="M 0.0000 0.0000 L 0.0000 342.00 L 618.00 342.00 L 618.00 0.0000 z" />
    </clipPath>
    <g id="g110" clip-path="url(#clip12)">
      <g id="g112" fill="#000000" stroke="none" fill-rule="nonzero" fill-opacity="1.0000">
        <path id="path114" d="M 6.7690 315.02 L 6.7690 314.03 L 12.731 314.03 L 12.731 315.02 z M 18.202 319.27 Q 16.525 319.27 15.489 317.69 Q 14.452 316.11 14.452 313.57 Q 14.452 311.01 15.496 309.45 Q 16.540 307.89 18.246 307.89 Q 19.953 307.89 20.996 309.45 Q 22.040 311.01 22.040 313.55 Q 22.040 316.16 20.996 317.71 Q 19.953 319.27 18.202 319.27 z M 18.217 318.19 Q 20.509 318.19 20.509 313.53 Q 20.509 308.97 18.246 308.97 Q 15.990 308.97 15.990 313.57 Q 15.990 318.19 18.217 318.19 z M 24.450 319.00 L 24.450 317.19 L 26.259 317.19 L 26.259 319.00 z M 32.433 319.27 Q 30.756 319.27 29.719 317.69 Q 28.683 316.11 28.683 313.57 Q 28.683 311.01 29.727 309.45 Q 30.771 307.89 32.477 307.89 Q 34.184 307.89 35.227 309.45 Q 36.271 311.01 36.271 313.55 Q 36.271 316.16 35.227 317.71 Q 34.184 319.27 32.433 319.27 z M 32.448 318.19 Q 34.740 318.19 34.740 313.53 Q 34.740 308.97 32.477 308.97 Q 30.221 308.97 30.221 313.57 Q 30.221 318.19 32.448 318.19 z M 40.666 313.10 Q 39.076 311.99 39.076 310.65 Q 39.076 309.42 39.977 308.65 Q 40.878 307.88 42.328 307.88 Q 43.668 307.88 44.500 308.53 Q 45.331 309.19 45.331 310.23 Q 45.331 311.80 43.310 313.10 Q 45.763 314.30 45.763 316.19 Q 45.763 317.56 44.734 318.41 Q 43.705 319.27 42.079 319.27 Q 40.482 319.27 39.497 318.46 Q 38.512 317.65 38.512 316.33 Q 38.512 314.39 40.666 313.10 z M 42.504 312.64 Q 44.020 311.65 44.020 310.42 Q 44.020 309.77 43.515 309.37 Q 43.009 308.97 42.182 308.97 Q 41.383 308.97 40.885 309.36 Q 40.387 309.76 40.387 310.38 Q 40.387 310.99 40.838 311.47 Q 41.288 311.95 42.504 312.64 z M 41.449 313.68 Q 40.578 314.36 40.266 314.86 Q 39.955 315.36 39.955 316.11 Q 39.955 317.04 40.556 317.61 Q 41.156 318.19 42.138 318.19 Q 43.083 318.19 43.679 317.70 Q 44.276 317.21 44.276 316.42 Q 44.276 315.79 43.906 315.36 Q 43.537 314.92 42.475 314.29 z" />
      </g>
    </g>
    <clipPath id="clip13">
      <path id="path117" d="M 0.0000 0.0000 L 0.0000 342.00 L 618.00 342.00 L 618.00 0.0000 z" />
    </clipPath>
    <g id="g119" clip-path="url(#clip13)">
      <g id="g121" fill="#000000" stroke="none" fill-rule="nonzero" fill-opacity="1.0000">
        <path id="path123" d="M 6.7690 248.02 L 6.7690 247.03 L 12.731 247.03 L 12.731 248.02 z M 18.202 252.27 Q 16.525 252.27 15.489 250.69 Q 14.452 249.11 14.452 246.57 Q 14.452 244.01 15.496 242.45 Q 16.540 240.89 18.246 240.89 Q 19.953 240.89 20.996 242.45 Q 22.040 244.01 22.040 246.55 Q 22.040 249.16 20.996 250.71 Q 19.953 252.27 18.202 252.27 z M 18.217 251.19 Q 20.509 251.19 20.509 246.53 Q 20.509 241.97 18.246 241.97 Q 15.990 241.97 15.990 246.57 Q 15.990 251.19 18.217 251.19 z M 24.450 252.00 L 24.450 250.19 L 26.259 250.19 L 26.259 252.00 z M 32.433 252.27 Q 30.756 252.27 29.719 250.69 Q 28.683 249.11 28.683 246.57 Q 28.683 244.01 29.727 242.45 Q 30.771 240.89 32.477 240.89 Q 34.184 240.89 35.227 242.45 Q 36.271 244.01 36.271 246.55 Q 36.271 249.16 35.227 250.71 Q 34.184 252.27 32.433 252.27 z M 32.448 251.19 Q 34.740 251.19 34.740 246.53 Q 34.740 241.97 32.477 241.97 Q 30.221 241.97 30.221 246.57 Q 30.221 251.19 32.448 251.19 z M 42.863 252.00 L 42.863 248.93 L 37.985 248.93 L 37.985 247.84 L 42.863 241.16 L 44.218 241.16 L 44.218 247.75 L 45.668 247.75 L 45.668 248.93 L 44.218 248.93 L 44.218 252.00 z M 39.398 247.75 L 42.958 247.75 L 42.958 242.93 z" />
      </g>
    </g>
    <clipPath id="clip14">
      <path id="path126" d="M 0.0000 0.0000 L 0.0000 342.00 L 618.00 342.00 L 618.00 0.0000 z" />
    </clipPath>
    <g id="g128" clip-path="url(#clip14)">
      <g id="g130" fill="#000000" stroke="none" fill-rule="nonzero" fill-opacity="1.0000">
        <path id="path132" d="M 42.702 177.27 Q 41.025 177.27 39.989 175.69 Q 38.952 174.11 38.952 171.57 Q 38.952 169.01 39.996 167.45 Q 41.040 165.89 42.746 165.89 Q 44.453 165.89 45.496 167.45 Q 46.540 169.01 46.540 171.55 Q 46.540 174.16 45.496 175.71 Q 44.453 177.27 42.702 177.27 z M 42.717 176.19 Q 45.009 176.19 45.009 171.53 Q 45.009 166.97 42.746 166.97 Q 40.490 166.97 40.490 171.57 Q 40.490 176.19 42.717 176.19 z" />
      </g>
    </g>
    <clipPath id="clip15">
      <path id="path135" d="M 0.0000 0.0000 L 0.0000 342.00 L 618.00 342.00 L 618.00 0.0000 z" />
    </clipPath>
    <g id="g137" clip-path="url(#clip15)">
      <g id="g139" fill="#000000" stroke="none" fill-rule="nonzero" fill-opacity="1.0000">
        <path id="path141" d="M 18.702 118.27 Q 17.025 118.27 15.989 116.69 Q 14.952 115.11 14.952 112.57 Q 14.952 110.01 15.996 108.45 Q 17.040 106.89 18.746 106.89 Q 20.453 106.89 21.496 108.45 Q 22.540 110.01 22.540 112.55 Q 22.540 115.16 21.496 116.71 Q 20.453 118.27 18.702 118.27 z M 18.717 117.19 Q 21.009 117.19 21.009 112.53 Q 21.009 107.97 18.746 107.97 Q 16.490 107.97 16.490 112.57 Q 16.490 117.19 18.717 117.19 z M 24.950 118.00 L 24.950 116.19 L 26.759 116.19 L 26.759 118.00 z M 32.933 118.27 Q 31.256 118.27 30.219 116.69 Q 29.183 115.11 29.183 112.57 Q 29.183 110.01 30.227 108.45 Q 31.271 106.89 32.977 106.89 Q 34.684 106.89 35.727 108.45 Q 36.771 110.01 36.771 112.55 Q 36.771 115.16 35.727 116.71 Q 34.684 118.27 32.933 118.27 z M 32.948 117.19 Q 35.240 117.19 35.240 112.53 Q 35.240 107.97 32.977 107.97 Q 30.721 107.97 30.721 112.57 Q 30.721 117.19 32.948 117.19 z M 43.363 118.00 L 43.363 114.93 L 38.485 114.93 L 38.485 113.84 L 43.363 107.16 L 44.718 107.16 L 44.718 113.75 L 46.168 113.75 L 46.168 114.93 L 44.718 114.93 L 44.718 118.00 z M 39.898 113.75 L 43.458 113.75 L 43.458 108.93 z" />
      </g>
    </g>
    <clipPath id="clip16">
      <path id="path144" d="M 0.0000 0.0000 L 0.0000 342.00 L 618.00 342.00 L 618.00 0.0000 z" />
    </clipPath>
    <g id="g146" clip-path="url(#clip16)">
      <g id="g148" fill="#000000" stroke="none" fill-rule="nonzero" fill-opacity="1.0000">
        <path id="path150" d="M 18.702 51.271 Q 17.025 51.271 15.989 49.693 Q 14.952 48.114 14.952 45.573 Q 14.952 43.009 15.996 41.449 Q 17.040 39.889 18.746 39.889 Q 20.453 39.889 21.496 41.449 Q 22.540 43.009 22.540 45.551 Q 22.540 48.158 21.496 49.715 Q 20.453 51.271 18.702 51.271 z M 18.717 50.187 Q 21.009 50.187 21.009 45.529 Q 21.009 40.973 18.746 40.973 Q 16.490 40.973 16.490 45.573 Q 16.490 50.187 18.717 50.187 z M 24.950 51.000 L 24.950 49.191 L 26.759 49.191 L 26.759 51.000 z M 32.933 51.271 Q 31.256 51.271 30.219 49.693 Q 29.183 48.114 29.183 45.573 Q 29.183 43.009 30.227 41.449 Q 31.271 39.889 32.977 39.889 Q 34.684 39.889 35.727 41.449 Q 36.771 43.009 36.771 45.551 Q 36.771 48.158 35.727 49.715 Q 34.684 51.271 32.933 51.271 z M 32.948 50.187 Q 35.240 50.187 35.240 45.529 Q 35.240 40.973 32.977 40.973 Q 30.721 40.973 30.721 45.573 Q 30.721 50.187 32.948 50.187 z M 41.166 45.097 Q 39.576 43.991 39.576 42.650 Q 39.576 41.420 40.477 40.651 Q 41.378 39.882 42.828 39.882 Q 44.168 39.882 45.000 40.534 Q 45.831 41.186 45.831 42.226 Q 45.831 43.800 43.810 45.097 Q 46.263 46.298 46.263 48.195 Q 46.263 49.557 45.234 50.414 Q 44.205 51.271 42.579 51.271 Q 40.982 51.271 39.997 50.462 Q 39.012 49.652 39.012 48.334 Q 39.012 46.386 41.166 45.097 z M 43.004 44.643 Q 44.520 43.646 44.520 42.423 Q 44.520 41.771 44.015 41.372 Q 43.509 40.973 42.682 40.973 Q 41.883 40.973 41.385 41.365 Q 40.887 41.757 40.887 42.379 Q 40.887 42.987 41.338 43.467 Q 41.788 43.947 43.004 44.643 z M 41.949 45.683 Q 41.078 46.356 40.766 46.858 Q 40.455 47.360 40.455 48.107 Q 40.455 49.037 41.056 49.612 Q 41.656 50.187 42.638 50.187 Q 43.583 50.187 44.179 49.696 Q 44.776 49.206 44.776 48.422 Q 44.776 47.792 44.406 47.356 Q 44.037 46.920 42.975 46.291 z" />
      </g>
    </g>
    <g id="misc" />
    <g id="layer0">
      <clipPath id="clip17">
        <path id="path155" d="M 0.0000 0.0000 L 0.0000 342.00 L 618.00 342.00 L 618.00 0.0000 z" />
      </clipPath>
      <g id="g157" clip-path="url(#clip17)">
        <g id="g159" stroke="#cc0000" stroke-opacity="1.0000" fill="none" stroke-linecap="round" stroke-width="3.5000" stroke-linejoin="round">
          <path id="path161" d="M 0.0000 157.98 L 4.8281 156.70 L 9.6562 155.52 L 14.484 154.45 L 19.312 153.48 L 24.141 152.64 L 28.969 151.90 L 33.797 151.29 L 38.625 150.81 L 43.453 150.45 L 48.281 150.21 L 53.109 150.11 L 57.938 150.13 L 62.766 150.29 L 67.594 150.57 L 72.422 150.98 L 77.250 151.51 L 82.078 152.17 L 86.906 152.95 L 91.734 153.84 L 96.562 154.84 L 101.39 155.96 L 106.22 157.18 L 111.05 158.49 L 115.88 159.90 L 120.70 161.39 L 125.53 162.96 L 130.36 164.61 L 135.19 166.32 L 140.02 168.08 L 144.84 169.90 L 149.67 171.76 L 154.50 173.65 L 159.33 175.57 L 164.16 177.51 L 168.98 179.45 L 173.81 181.39 L 178.64 183.33 L 183.47 185.24 L 188.30 187.13 L 193.12 188.99 L 197.95 190.80 L 202.78 192.57 L 207.61 194.27 L 212.44 195.91 L 217.27 197.48 L 222.09 198.97 L 226.92 200.37 L 231.75 201.68 L 236.58 202.89 L 241.41 204.00 L 246.23 205.00 L 251.06 205.88 L 255.89 206.65 L 260.72 207.30 L 265.55 207.83 L 270.38 208.23 L 275.20 208.50 L 280.03 208.65 L 284.86 208.66 L 289.69 208.55 L 294.52 208.31 L 299.34 207.94 L 304.17 207.45 L 309.00 206.83 L 313.83 206.09 L 318.66 205.24 L 323.48 204.27 L 328.31 203.19 L 333.14 202.00 L 337.97 200.72 L 342.80 199.34 L 347.62 197.87 L 352.45 196.32 L 357.28 194.70 L 362.11 193.01 L 366.94 191.26 L 371.77 189.46 L 376.59 187.61 L 381.42 185.73 L 386.25 183.82 L 391.08 181.89 L 395.91 179.95 L 400.73 178.01 L 405.56 176.07 L 410.39 174.15 L 415.22 172.25 L 420.05 170.38 L 424.88 168.55 L 429.70 166.77 L 434.53 165.04 L 439.36 163.38 L 444.19 161.79 L 449.02 160.27 L 453.84 158.85 L 458.67 157.51 L 463.50 156.26 L 468.33 155.12 L 473.16 154.09 L 477.98 153.17 L 482.81 152.36 L 487.64 151.67 L 492.47 151.10 L 497.30 150.66 L 502.12 150.35 L 506.95 150.16 L 511.78 150.10 L 516.61 150.18 L 521.44 150.37 L 526.27 150.70 L 531.09 151.16 L 535.92 151.74 L 540.75 152.44 L 545.58 153.25 L 550.41 154.19 L 555.23 155.23 L 560.06 156.39 L 564.89 157.64 L 569.72 158.99 L 574.55 160.43 L 579.38 161.95 L 584.20 163.55 L 589.03 165.22 L 593.86 166.95 L 598.69 168.73 L 603.52 170.57 L 608.34 172.44 L 613.17 174.34 L 618.00 176.27" />
          <title id="title163">Function g</title>
          <desc id="desc165">g(x) = Ã&#143;Â&#128; / 180 cos(xÃ&#130;Â°)</desc>
        </g>
      </g>
      <g id="g167" transform="matrix(23.000, 0.0000, 0.0000, 23.000, 33.000, 20.222)">
        <clipPath id="clip18">
          <path id="path170" d="M -1.4348 -.87923 L -1.4348 13.990 L 25.435 13.990 L 25.435 -.87923 z" />
        </clipPath>
        <g id="g172" clip-path="url(#clip18)">
          <g id="g174" fill="#000000" stroke="none" fill-rule="nonzero" fill-opacity="1.0000">
            <path id="path176" d="M .57812 -.37500 L .48438 -0.0000 Q .46875 .093750 .38281 .14844 Q .29688 .20312 .20312 .20312 Q .14062 .20312 .10938 .17969 Q .078125 .15625 .078125 .10938 Q .078125 .078125 .093750 .054688 Q .10938 .031250 .14062 .031250 Q .15625 .031250 .17188 .046875 Q .18750 .062500 .18750 .078125 Q .18750 .12500 .14062 .15625 Q .17188 .17188 .20312 .17188 Q .26562 .17188 .31250 .11719 Q .35938 .062500 .37500 -.015625 Q .32812 .015625 .28125 .015625 Q .25000 .015625 .22656 .0078125 Q .20312 -0.0000 .17969 -.015625 Q .15625 -.031250 .14062 -.054688 Q .12500 -.078125 .12500 -.12500 Q .12500 -.15625 .14062 -.20312 Q .15625 -.25000 .18750 -.32812 Q .20312 -.37500 .20312 -.39062 Q .20312 -.40625 .19531 -.41406 Q .18750 -.42188 .18750 -.42188 Q .18750 -.42188 .18750 -.42188 Q .17188 -.42188 .16406 -.41406 Q .15625 -.40625 .14062 -.39844 Q .12500 -.39062 .10938 -.35938 Q .093750 -.32812 .078125 -.29688 Q .078125 -.28125 .062500 -.28125 Q .031250 -.28125 .031250 -.29688 Q .031250 -.31250 .039062 -.33594 Q .046875 -.35938 .070312 -.38281 Q .093750 -.40625 .12500 -.42969 Q .15625 -.45312 .18750 -.45312 Q .23438 -.45312 .26562 -.42969 Q .29688 -.40625 .29688 -.35938 Q .29688 -.34375 .28125 -.31250 Q .23438 -.15625 .23438 -.093750 Q .23438 -.031250 .28125 -.031250 Q .31250 -.031250 .35938 -.046875 Q .35938 -.046875 .36719 -.054688 Q .37500 -.062500 .38281 -.078125 Q .39062 -.093750 .39062 -.093750 Q .40625 -.12500 .43750 -.26562 L .46875 -.37500 Q .46875 -.39062 .46875 -.39844 Q .46875 -.40625 .47656 -.42188 Q .48438 -.43750 .50000 -.43750 Q .51562 -.43750 .53125 -.43750 Q .56250 -.43750 .57031 -.42969 Q .57812 -.42188 .57812 -.40625 Q .57812 -.39062 .57812 -.37500 z" />
            <title id="title178">y</title>
            <desc id="desc180">text2 = &quot;y&quot;</desc>
          </g>
        </g>
      </g>
      <g id="g182" transform="matrix(23.000, 0.0000, 0.0000, 23.000, 594.00, 202.22)">
        <clipPath id="clip19">
          <path id="path185" d="M -25.826 -8.7923 L -25.826 6.0773 L 1.0435 6.0773 L 1.0435 -8.7923 z" />
        </clipPath>
        <g id="g187" clip-path="url(#clip19)">
          <g id="g189" fill="#000000" stroke="none" fill-rule="nonzero" fill-opacity="1.0000">
            <path id="path191" d="M .53125 -.40625 Q .51562 -.42188 .48438 -.42188 Q .46875 -.42188 .43750 -.39844 Q .40625 -.37500 .40625 -.32812 Q .40625 -.31250 .39062 -.25781 Q .37500 -.20312 .37500 -.18750 Q .34375 -.093750 .34375 -.078125 Q .34375 -.031250 .40625 -.031250 Q .43750 -.031250 .48438 -.062500 Q .53125 -.093750 .54688 -.15625 Q .54688 -.15625 .56250 -.15625 Q .59375 -.15625 .59375 -.14844 Q .59375 -.14062 .57812 -.10938 Q .56250 -.078125 .53906 -.054688 Q .51562 -.031250 .47656 -.0078125 Q .43750 .015625 .39062 .015625 Q .29688 .015625 .26562 -.046875 Q .21875 .015625 .15625 .015625 Q .10938 .015625 .070312 -.015625 Q .031250 -.046875 .031250 -.078125 Q .031250 -.10938 .054688 -.13281 Q .078125 -.15625 .10938 -.15625 Q .14062 -.15625 .14844 -.14062 Q .15625 -.12500 .15625 -.10938 Q .15625 -.093750 .14062 -.070312 Q .12500 -.046875 .10938 -.046875 Q .12500 -.031250 .15625 -.031250 Q .18750 -.031250 .21094 -.054688 Q .23438 -.078125 .23438 -.12500 L .26562 -.25000 Q .29688 -.34375 .29688 -.35938 Q .29688 -.42188 .23438 -.42188 Q .20312 -.42188 .16406 -.39062 Q .12500 -.35938 .093750 -.29688 Q .093750 -.28125 .078125 -.28125 Q .046875 -.28125 .046875 -.29688 Q .046875 -.31250 .062500 -.33594 Q .078125 -.35938 .10156 -.38281 Q .12500 -.40625 .16406 -.42969 Q .20312 -.45312 .25000 -.45312 Q .34375 -.45312 .39062 -.39062 Q .42188 -.45312 .48438 -.45312 Q .53125 -.45312 .57031 -.42969 Q .60938 -.40625 .60938 -.35938 Q .60938 -.32812 .58594 -.30469 Q .56250 -.28125 .53125 -.28125 Q .51562 -.28125 .50000 -.29688 Q .48438 -.31250 .48438 -.32812 Q .48438 -.35938 .50000 -.37500 Q .51562 -.39062 .53125 -.40625 z" />
            <title id="title193">x</title>
            <desc id="desc195">text3 = &quot;x&quot;</desc>
          </g>
        </g>
      </g>
      <g id="g197" transform="matrix(23.000, 0.0000, 0.0000, 23.000, 195.00, 233.44)">
        <clipPath id="clip20">
          <path id="path200" d="M -8.4783 -10.150 L -8.4783 4.7200 L 18.391 4.7200 L 18.391 -10.150 z" />
        </clipPath>
        <g id="g202" clip-path="url(#clip20)">
          <g id="g204" fill="#000000" stroke="none" fill-rule="nonzero" fill-opacity="1.0000">
            <path id="path206" d="M .57812 -.37500 L .48438 -0.0000 Q .46875 .093750 .38281 .14844 Q .29688 .20312 .20312 .20312 Q .14062 .20312 .10938 .17969 Q .078125 .15625 .078125 .10938 Q .078125 .078125 .093750 .054688 Q .10938 .031250 .14062 .031250 Q .15625 .031250 .17188 .046875 Q .18750 .062500 .18750 .078125 Q .18750 .12500 .14062 .15625 Q .17188 .17188 .20312 .17188 Q .26562 .17188 .31250 .11719 Q .35938 .062500 .37500 -.015625 Q .32812 .015625 .28125 .015625 Q .25000 .015625 .22656 .0078125 Q .20312 -0.0000 .17969 -.015625 Q .15625 -.031250 .14062 -.054688 Q .12500 -.078125 .12500 -.12500 Q .12500 -.15625 .14062 -.20312 Q .15625 -.25000 .18750 -.32812 Q .20312 -.37500 .20312 -.39062 Q .20312 -.40625 .19531 -.41406 Q .18750 -.42188 .18750 -.42188 Q .18750 -.42188 .18750 -.42188 Q .17188 -.42188 .16406 -.41406 Q .15625 -.40625 .14062 -.39844 Q .12500 -.39062 .10938 -.35938 Q .093750 -.32812 .078125 -.29688 Q .078125 -.28125 .062500 -.28125 Q .031250 -.28125 .031250 -.29688 Q .031250 -.31250 .039062 -.33594 Q .046875 -.35938 .070312 -.38281 Q .093750 -.40625 .12500 -.42969 Q .15625 -.45312 .18750 -.45312 Q .23438 -.45312 .26562 -.42969 Q .29688 -.40625 .29688 -.35938 Q .29688 -.34375 .28125 -.31250 Q .23438 -.15625 .23438 -.093750 Q .23438 -.031250 .28125 -.031250 Q .31250 -.031250 .35938 -.046875 Q .35938 -.046875 .36719 -.054688 Q .37500 -.062500 .38281 -.078125 Q .39062 -.093750 .39062 -.093750 Q .40625 -.12500 .43750 -.26562 L .46875 -.37500 Q .46875 -.39062 .46875 -.39844 Q .46875 -.40625 .47656 -.42188 Q .48438 -.43750 .50000 -.43750 Q .51562 -.43750 .53125 -.43750 Q .56250 -.43750 .57031 -.42969 Q .57812 -.42188 .57812 -.40625 Q .57812 -.39062 .57812 -.37500 z" />
            <title id="title208">y=f&#39;(x)</title>
            <desc id="desc210">text4 = &quot;y=f&#39;(x)&quot;</desc>
          </g>
        </g>
      </g>
      <g id="g212" transform="matrix(23.000, 0.0000, 0.0000, 23.000, 214.97, 233.44)">
        <clipPath id="clip21">
          <path id="path215" d="M -9.3463 -10.150 L -9.3463 4.7200 L 17.523 4.7200 L 17.523 -10.150 z" />
        </clipPath>
        <g id="g217" clip-path="url(#clip21)">
          <g id="g219" fill="#000000" stroke="none" fill-rule="nonzero" fill-opacity="1.0000">
            <path id="path221" d="M .78125 -.32812 L .10938 -.32812 Q .062500 -.32812 .062500 -.35938 Q .062500 -.39062 .10938 -.39062 L .78125 -.39062 Q .82812 -.39062 .82812 -.35938 Q .82812 -.32812 .78125 -.32812 z M .78125 -.10938 L .10938 -.10938 Q .062500 -.10938 .062500 -.14062 Q .062500 -.17188 .10938 -.17188 L .78125 -.17188 Q .82812 -.17188 .82812 -.14062 Q .82812 -.10938 .78125 -.10938 z" />
            <title id="title223">y=f&#39;(x)</title>
            <desc id="desc225">text4 = &quot;y=f&#39;(x)&quot;</desc>
          </g>
        </g>
      </g>
      <g id="g227" transform="matrix(23.000, 0.0000, 0.0000, 23.000, 241.93, 233.44)">
        <clipPath id="clip22">
          <path id="path230" d="M -10.519 -10.150 L -10.519 4.7200 L 16.351 4.7200 L 16.351 -10.150 z" />
        </clipPath>
        <g id="g232" clip-path="url(#clip22)">
          <g id="g234" fill="#000000" stroke="none" fill-rule="nonzero" fill-opacity="1.0000">
            <path id="path236" d="M .42188 -.39062 L .37500 -.093750 Q .34375 .046875 .31250 .10938 Q .29688 .12500 .28125 .14062 Q .26562 .15625 .23438 .17969 Q .20312 .20312 .17188 .20312 Q .12500 .20312 .093750 .17969 Q .062500 .15625 .062500 .12500 Q .062500 .093750 .085938 .070312 Q .10938 .046875 .14062 .046875 Q .15625 .046875 .17188 .062500 Q .18750 .078125 .18750 .093750 Q .18750 .10938 .17188 .13281 Q .15625 .15625 .14062 .15625 Q .15625 .17188 .17188 .17188 Q .20312 .17188 .21875 .10938 Q .21875 .10938 .22656 .093750 Q .23438 .078125 .23438 .054688 Q .23438 .031250 .23438 .031250 L .31250 -.39062 L .21875 -.39062 Q .18750 -.39062 .18750 -.42188 Q .18750 -.42188 .19531 -.42969 Q .20312 -.43750 .21094 -.43750 Q .21875 -.43750 .23438 -.43750 L .32812 -.43750 Q .34375 -.51562 .34375 -.53906 Q .34375 -.56250 .35156 -.58594 Q .35938 -.60938 .37500 -.62500 Q .42188 -.70312 .51562 -.70312 Q .56250 -.70312 .59375 -.67969 Q .62500 -.65625 .62500 -.62500 Q .62500 -.59375 .60156 -.57031 Q .57812 -.54688 .54688 -.54688 Q .53125 -.54688 .51562 -.56250 Q .50000 -.57812 .50000 -.59375 Q .50000 -.60938 .51562 -.63281 Q .53125 -.65625 .54688 -.65625 Q .53125 -.67188 .51562 -.67188 Q .50000 -.67188 .48438 -.65625 Q .46875 -.64062 .46875 -.62500 L .43750 -.43750 L .54688 -.43750 Q .57812 -.43750 .57812 -.42188 Q .57812 -.40625 .57812 -.40625 Q .57812 -.40625 .57031 -.39844 Q .56250 -.39062 .54688 -.39062 L .42188 -.39062 z" />
            <title id="title238">y=f&#39;(x)</title>
            <desc id="desc240">text4 = &quot;y=f&#39;(x)&quot;</desc>
          </g>
        </g>
      </g>
      <g id="g242" transform="matrix(16.100, 0.0000, 0.0000, 16.100, 257.53, 223.94)">
        <clipPath id="clip23">
          <path id="path245" d="M -15.996 -13.910 L -15.996 7.3326 L 22.389 7.3326 L 22.389 -13.910 z" />
        </clipPath>
        <g id="g247" clip-path="url(#clip23)">
          <g id="g249" fill="#000000" stroke="none" fill-rule="nonzero" fill-opacity="1.0000">
            <path id="path251" d="M .31250 -.43750 L .10938 -.046875 Q .093750 -.031250 .093750 -.031250 Q .093750 -.031250 .062500 -.046875 Q .046875 -.046875 .039062 -.054688 Q .031250 -.062500 .031250 -.062500 Q .031250 -.078125 .031250 -.093750 L .17188 -.50000 Q .20312 -.56250 .25000 -.56250 Q .28125 -.56250 .30469 -.53906 Q .32812 -.51562 .32812 -.48438 Q .32812 -.46875 .31250 -.43750 z" />
            <title id="title253">y=f&#39;(x)</title>
            <desc id="desc255">text4 = &quot;y=f&#39;(x)&quot;</desc>
          </g>
        </g>
      </g>
      <g id="g257" transform="matrix(23.000, 0.0000, 0.0000, 23.000, 263.58, 233.44)">
        <clipPath id="clip24">
          <path id="path260" d="M -11.460 -10.150 L -11.460 4.7200 L 15.410 4.7200 L 15.410 -10.150 z" />
        </clipPath>
        <g id="g262" clip-path="url(#clip24)">
          <g id="g264" fill="#000000" stroke="none" fill-rule="nonzero" fill-opacity="1.0000">
            <path id="path266" d="M .37500 .21875 L .37500 .23438 Q .37500 .23438 .37500 .23438 Q .37500 .25000 .35938 .25000 Q .34375 .25000 .28906 .19531 Q .23438 .14062 .18750 .062500 Q .10938 -.078125 .10938 -.25000 Q .10938 -.51562 .28125 -.70312 Q .34375 -.75000 .35938 -.75000 Q .37500 -.75000 .37500 -.73438 Q .37500 -.73438 .35938 -.71875 Q .20312 -.54688 .20312 -.25000 Q .20312 -.10938 .25000 .015625 Q .28125 .14062 .37500 .21875 z" />
            <title id="title268">y=f&#39;(x)</title>
            <desc id="desc270">text4 = &quot;y=f&#39;(x)&quot;</desc>
          </g>
        </g>
      </g>
      <g id="g272" transform="matrix(23.000, 0.0000, 0.0000, 23.000, 273.86, 233.44)">
        <clipPath id="clip25">
          <path id="path275" d="M -11.907 -10.150 L -11.907 4.7200 L 14.962 4.7200 L 14.962 -10.150 z" />
        </clipPath>
        <g id="g277" clip-path="url(#clip25)">
          <g id="g279" fill="#000000" stroke="none" fill-rule="nonzero" fill-opacity="1.0000">
            <path id="path281" d="M .53125 -.40625 Q .51562 -.42188 .48438 -.42188 Q .46875 -.42188 .43750 -.39844 Q .40625 -.37500 .40625 -.32812 Q .40625 -.31250 .39062 -.25781 Q .37500 -.20312 .37500 -.18750 Q .34375 -.093750 .34375 -.078125 Q .34375 -.031250 .40625 -.031250 Q .43750 -.031250 .48438 -.062500 Q .53125 -.093750 .54688 -.15625 Q .54688 -.15625 .56250 -.15625 Q .59375 -.15625 .59375 -.14844 Q .59375 -.14062 .57812 -.10938 Q .56250 -.078125 .53906 -.054688 Q .51562 -.031250 .47656 -.0078125 Q .43750 .015625 .39062 .015625 Q .29688 .015625 .26562 -.046875 Q .21875 .015625 .15625 .015625 Q .10938 .015625 .070312 -.015625 Q .031250 -.046875 .031250 -.078125 Q .031250 -.10938 .054688 -.13281 Q .078125 -.15625 .10938 -.15625 Q .14062 -.15625 .14844 -.14062 Q .15625 -.12500 .15625 -.10938 Q .15625 -.093750 .14062 -.070312 Q .12500 -.046875 .10938 -.046875 Q .12500 -.031250 .15625 -.031250 Q .18750 -.031250 .21094 -.054688 Q .23438 -.078125 .23438 -.12500 L .26562 -.25000 Q .29688 -.34375 .29688 -.35938 Q .29688 -.42188 .23438 -.42188 Q .20312 -.42188 .16406 -.39062 Q .12500 -.35938 .093750 -.29688 Q .093750 -.28125 .078125 -.28125 Q .046875 -.28125 .046875 -.29688 Q .046875 -.31250 .062500 -.33594 Q .078125 -.35938 .10156 -.38281 Q .12500 -.40625 .16406 -.42969 Q .20312 -.45312 .25000 -.45312 Q .34375 -.45312 .39062 -.39062 Q .42188 -.45312 .48438 -.45312 Q .53125 -.45312 .57031 -.42969 Q .60938 -.40625 .60938 -.35938 Q .60938 -.32812 .58594 -.30469 Q .56250 -.28125 .53125 -.28125 Q .51562 -.28125 .50000 -.29688 Q .48438 -.31250 .48438 -.32812 Q .48438 -.35938 .50000 -.37500 Q .51562 -.39062 .53125 -.40625 z" />
            <title id="title283">y=f&#39;(x)</title>
            <desc id="desc285">text4 = &quot;y=f&#39;(x)&quot;</desc>
          </g>
        </g>
      </g>
      <g id="g287" transform="matrix(23.000, 0.0000, 0.0000, 23.000, 289.02, 233.44)">
        <clipPath id="clip26">
          <path id="path290" d="M -12.566 -10.150 L -12.566 4.7200 L 14.303 4.7200 L 14.303 -10.150 z" />
        </clipPath>
        <g id="g292" clip-path="url(#clip26)">
          <g id="g294" fill="#000000" stroke="none" fill-rule="nonzero" fill-opacity="1.0000">
            <path id="path296" d="M .34375 -.25000 Q .34375 .015625 .15625 .18750 Q .10938 .25000 .078125 .25000 Q .062500 .25000 .062500 .23438 Q .062500 .23438 .078125 .21875 Q .23438 .046875 .23438 -.25000 Q .23438 -.54688 .078125 -.71875 Q .062500 -.73438 .062500 -.73438 Q .062500 -.75000 .078125 -.75000 Q .093750 -.75000 .15625 -.69531 Q .21875 -.64062 .26562 -.56250 Q .34375 -.42188 .34375 -.25000 z" />
            <title id="title298">y=f&#39;(x)</title>
            <desc id="desc300">text4 = &quot;y=f&#39;(x)&quot;</desc>
          </g>
        </g>
      </g>
    </g>
  </g>
</svg>