<?xml version='1.0' ?><svg xmlns:dc="http://purl.org/dc/elements/1.1/" xmlns:cc="http://creativecommons.org/ns#" xmlns:rdf="http://www.w3.org/1999/02/22-rdf-syntax-ns#" xmlns:svg="http://www.w3.org/2000/svg" xmlns="http://www.w3.org/2000/svg" id="svg2" version="1.1" width="373.75" height="206.44157" viewBox="0.0 0.6982828546354515 617.9999999999999 341.35355253511705" preserveAspectRatio="none">
  <metadata id="metadata508">
    <rdf:RDF>
      <cc:Work rdf:about="">
        <dc:format>image/svg+xml</dc:format>
        <dc:type rdf:resource="http://purl.org/dc/dcmitype/StillImage" />
      </cc:Work>
    </rdf:RDF>
  </metadata>
  <defs id="defs506" />
  <title id="title4" />
  <g id="g6" stroke-linecap="square" stroke-miterlimit="10.000" stroke-width="1.0000" stroke-dasharray="none" stroke-dashoffset="0.0000" stroke-linejoin="miter">
    <clipPath id="clip1">
      <path id="path9" d="M 0.0000 0.0000 L 0.0000 342.00 L 618.00 342.00 L 618.00 0.0000 z" />
    </clipPath>
    <g id="g11" clip-path="url(#clip1)">
      <g id="g13" stroke="#000000" stroke-opacity="1.0000" fill="none" stroke-linecap="butt">
        <path id="path15" d="M 38.902 2.0000 L 38.902 342.00" />
      </g>
    </g>
    <clipPath id="clip2">
      <path id="path18" d="M 0.0000 0.0000 L 0.0000 342.00 L 618.00 342.00 L 618.00 0.0000 z" />
    </clipPath>
    <g id="g20" clip-path="url(#clip2)">
      <g id="g22" stroke="#000000" stroke-opacity="1.0000" fill="none" stroke-linecap="butt">
        <path id="path24" d="M 38.902 1.0000 L 33.902 6.0000" />
      </g>
    </g>
    <clipPath id="clip3">
      <path id="path27" d="M 0.0000 0.0000 L 0.0000 342.00 L 618.00 342.00 L 618.00 0.0000 z" />
    </clipPath>
    <g id="g29" clip-path="url(#clip3)">
      <g id="g31" stroke="#000000" stroke-opacity="1.0000" fill="none" stroke-linecap="butt">
        <path id="path33" d="M 38.902 1.0000 L 43.902 6.0000" />
      </g>
    </g>
    <clipPath id="clip4">
      <path id="path36" d="M 0.0000 0.0000 L 0.0000 342.00 L 618.00 342.00 L 618.00 0.0000 z" />
    </clipPath>
    <g id="g38" clip-path="url(#clip4)">
      <g id="g40" stroke="#000000" stroke-opacity="1.0000" fill="none" stroke-linecap="butt">
        <path id="path42" d="M 0.0000 186.00 L 616.00 186.00" />
      </g>
    </g>
    <clipPath id="clip5">
      <path id="path45" d="M 0.0000 0.0000 L 0.0000 342.00 L 618.00 342.00 L 618.00 0.0000 z" />
    </clipPath>
    <g id="g47" clip-path="url(#clip5)">
      <g id="g49" stroke="#000000" stroke-opacity="1.0000" fill="none" stroke-linecap="butt">
        <path id="path51" d="M 617.00 186.00 L 612.00 181.00" />
      </g>
    </g>
    <clipPath id="clip6">
      <path id="path54" d="M 0.0000 0.0000 L 0.0000 342.00 L 618.00 342.00 L 618.00 0.0000 z" />
    </clipPath>
    <g id="g56" clip-path="url(#clip6)">
      <g id="g58" stroke="#000000" stroke-opacity="1.0000" fill="none" stroke-linecap="butt">
        <path id="path60" d="M 617.00 186.00 L 612.00 191.00" />
      </g>
    </g>
    <clipPath id="clip7">
      <path id="path63" d="M 0.0000 0.0000 L 0.0000 342.00 L 618.00 342.00 L 618.00 0.0000 z" />
    </clipPath>
    <g id="g65" clip-path="url(#clip7)">
      <g id="g67" fill="#000000" stroke="none" fill-rule="nonzero" fill-opacity="1.0000">
        <path id="path69" d="M 48.702 204.27 Q 47.025 204.27 45.989 202.69 Q 44.952 201.11 44.952 198.57 Q 44.952 196.01 45.996 194.45 Q 47.040 192.89 48.746 192.89 Q 50.453 192.89 51.496 194.45 Q 52.540 196.01 52.540 198.55 Q 52.540 201.16 51.496 202.71 Q 50.453 204.27 48.702 204.27 z M 48.717 203.19 Q 51.009 203.19 51.009 198.53 Q 51.009 193.97 48.746 193.97 Q 46.490 193.97 46.490 198.57 Q 46.490 203.19 48.717 203.19 z" />
      </g>
    </g>
    <clipPath id="clip8">
      <path id="path72" d="M 0.0000 0.0000 L 0.0000 342.00 L 618.00 342.00 L 618.00 0.0000 z" />
    </clipPath>
    <g id="g74" clip-path="url(#clip8)">
      <g id="g76" fill="#000000" stroke="none" fill-rule="nonzero" fill-opacity="1.0000">
        <path id="path78" d="M 149.71 203.93 L 149.71 202.71 Q 151.08 203.19 152.05 203.19 Q 153.40 203.19 154.16 202.04 Q 154.91 200.89 154.91 198.85 Q 153.82 200.21 152.42 200.21 Q 151.05 200.21 150.09 199.20 Q 149.14 198.19 149.14 196.74 Q 149.14 195.08 150.16 193.98 Q 151.17 192.89 152.71 192.89 Q 154.47 192.89 155.49 194.31 Q 156.51 195.72 156.51 198.18 Q 156.51 200.98 155.27 202.63 Q 154.03 204.27 151.91 204.27 Q 151.06 204.27 149.71 203.93 z M 150.59 196.46 Q 150.59 197.72 151.15 198.44 Q 151.71 199.17 152.68 199.17 Q 153.60 199.17 154.24 198.54 Q 154.89 197.92 154.89 197.04 Q 154.89 195.66 154.27 194.81 Q 153.64 193.97 152.62 193.97 Q 151.68 193.97 151.13 194.64 Q 150.59 195.31 150.59 196.46 z M 162.19 204.27 Q 160.51 204.27 159.47 202.69 Q 158.44 201.11 158.44 198.57 Q 158.44 196.01 159.48 194.45 Q 160.52 192.89 162.23 192.89 Q 163.94 192.89 164.98 194.45 Q 166.02 196.01 166.02 198.55 Q 166.02 201.16 164.98 202.71 Q 163.94 204.27 162.19 204.27 z M 162.20 203.19 Q 164.49 203.19 164.49 198.53 Q 164.49 193.97 162.23 193.97 Q 159.98 193.97 159.98 198.57 Q 159.98 203.19 162.20 203.19 z" />
      </g>
    </g>
    <clipPath id="clip9">
      <path id="path81" d="M 0.0000 0.0000 L 0.0000 342.00 L 618.00 342.00 L 618.00 0.0000 z" />
    </clipPath>
    <g id="g83" clip-path="url(#clip9)">
      <g id="g85" fill="#000000" stroke="none" fill-rule="nonzero" fill-opacity="1.0000">
        <path id="path87" d="M 263.26 204.00 L 263.26 202.92 L 265.42 202.92 L 265.42 194.36 L 263.26 194.90 L 263.26 193.79 L 266.87 192.89 L 266.87 202.92 L 269.04 202.92 L 269.04 204.00 z M 273.93 198.10 Q 272.35 196.99 272.35 195.65 Q 272.35 194.42 273.25 193.65 Q 274.15 192.88 275.60 192.88 Q 276.94 192.88 277.77 193.53 Q 278.60 194.19 278.60 195.23 Q 278.60 196.80 276.58 198.10 Q 279.03 199.30 279.03 201.19 Q 279.03 202.56 278.00 203.41 Q 276.97 204.27 275.35 204.27 Q 273.75 204.27 272.77 203.46 Q 271.78 202.65 271.78 201.33 Q 271.78 199.39 273.93 198.10 z M 275.77 197.64 Q 277.29 196.65 277.29 195.42 Q 277.29 194.77 276.78 194.37 Q 276.28 193.97 275.45 193.97 Q 274.65 193.97 274.15 194.36 Q 273.66 194.76 273.66 195.38 Q 273.66 195.99 274.11 196.47 Q 274.56 196.95 275.77 197.64 z M 274.72 198.68 Q 273.85 199.36 273.54 199.86 Q 273.22 200.36 273.22 201.11 Q 273.22 202.04 273.82 202.61 Q 274.43 203.19 275.41 203.19 Q 276.35 203.19 276.95 202.70 Q 277.55 202.21 277.55 201.42 Q 277.55 200.79 277.18 200.36 Q 276.81 199.92 275.74 199.29 z M 284.67 204.27 Q 282.99 204.27 281.96 202.69 Q 280.92 201.11 280.92 198.57 Q 280.92 196.01 281.97 194.45 Q 283.01 192.89 284.72 192.89 Q 286.42 192.89 287.47 194.45 Q 288.51 196.01 288.51 198.55 Q 288.51 201.16 287.47 202.71 Q 286.42 204.27 284.67 204.27 z M 284.69 203.19 Q 286.98 203.19 286.98 198.53 Q 286.98 193.97 284.72 193.97 Q 282.46 193.97 282.46 198.57 Q 282.46 203.19 284.69 203.19 z" />
      </g>
    </g>
    <clipPath id="clip10">
      <path id="path90" d="M 0.0000 0.0000 L 0.0000 342.00 L 618.00 342.00 L 618.00 0.0000 z" />
    </clipPath>
    <g id="g92" clip-path="url(#clip10)">
      <g id="g94" fill="#000000" stroke="none" fill-rule="nonzero" fill-opacity="1.0000">
        <path id="path96" d="M 378.25 204.00 L 378.25 202.73 Q 378.88 201.26 380.79 199.52 L 381.62 198.79 Q 383.22 197.34 383.22 195.92 Q 383.22 195.01 382.67 194.49 Q 382.13 193.97 381.17 193.97 Q 380.05 193.97 378.52 194.84 L 378.52 193.57 Q 379.96 192.89 381.38 192.89 Q 382.90 192.89 383.83 193.71 Q 384.75 194.53 384.75 195.88 Q 384.75 196.86 384.28 197.61 Q 383.82 198.37 382.55 199.44 L 382.00 199.92 Q 380.26 201.39 379.99 202.73 L 384.70 202.73 L 384.70 204.00 z M 388.74 204.00 Q 388.95 202.73 389.34 201.81 Q 389.74 200.89 390.73 199.28 L 393.69 194.52 L 388.11 194.52 L 388.11 193.16 L 395.07 193.16 L 395.07 194.52 Q 390.90 200.66 390.40 204.00 z M 400.67 204.27 Q 398.99 204.27 397.96 202.69 Q 396.92 201.11 396.92 198.57 Q 396.92 196.01 397.97 194.45 Q 399.01 192.89 400.72 192.89 Q 402.42 192.89 403.47 194.45 Q 404.51 196.01 404.51 198.55 Q 404.51 201.16 403.47 202.71 Q 402.42 204.27 400.67 204.27 z M 400.69 203.19 Q 402.98 203.19 402.98 198.53 Q 402.98 193.97 400.72 193.97 Q 398.46 193.97 398.46 198.57 Q 398.46 203.19 400.69 203.19 z" />
      </g>
    </g>
    <clipPath id="clip11">
      <path id="path99" d="M 0.0000 0.0000 L 0.0000 342.00 L 618.00 342.00 L 618.00 0.0000 z" />
    </clipPath>
    <g id="g101" clip-path="url(#clip11)">
      <g id="g103" fill="#000000" stroke="none" fill-rule="nonzero" fill-opacity="1.0000">
        <path id="path105" d="M 495.52 203.92 L 495.52 202.57 Q 497.08 203.19 497.97 203.19 Q 499.00 203.19 499.65 202.58 Q 500.30 201.98 500.30 201.02 Q 500.30 198.73 497.10 198.73 L 496.53 198.73 L 496.53 197.76 L 497.03 197.75 Q 500.04 197.75 500.04 195.64 Q 500.04 193.97 498.06 193.97 Q 496.97 193.97 495.67 194.58 L 495.67 193.32 Q 496.95 192.89 498.16 192.89 Q 501.49 192.89 501.49 195.40 Q 501.49 197.31 499.22 198.13 Q 501.84 198.73 501.84 201.00 Q 501.84 202.53 500.83 203.40 Q 499.82 204.27 498.06 204.27 Q 497.05 204.27 495.52 203.92 z M 506.06 198.38 Q 507.10 197.04 508.66 197.04 Q 510.08 197.04 510.99 197.98 Q 511.89 198.92 511.89 200.40 Q 511.89 202.09 510.88 203.18 Q 509.86 204.27 508.30 204.27 Q 506.51 204.27 505.50 202.83 Q 504.49 201.39 504.49 198.82 Q 504.49 196.00 505.65 194.44 Q 506.81 192.88 508.92 192.88 Q 509.89 192.88 511.34 193.29 L 511.34 194.55 Q 509.81 193.97 508.83 193.97 Q 506.06 193.97 506.06 198.38 z M 510.44 200.72 Q 510.44 199.49 509.89 198.79 Q 509.34 198.08 508.36 198.08 Q 507.44 198.08 506.78 198.70 Q 506.12 199.31 506.12 200.18 Q 506.12 201.54 506.75 202.36 Q 507.37 203.19 508.41 203.19 Q 509.34 203.19 509.89 202.52 Q 510.44 201.85 510.44 200.72 z M 517.67 204.27 Q 515.99 204.27 514.96 202.69 Q 513.92 201.11 513.92 198.57 Q 513.92 196.01 514.97 194.45 Q 516.01 192.89 517.72 192.89 Q 519.42 192.89 520.47 194.45 Q 521.51 196.01 521.51 198.55 Q 521.51 201.16 520.47 202.71 Q 519.42 204.27 517.67 204.27 z M 517.69 203.19 Q 519.98 203.19 519.98 198.53 Q 519.98 193.97 517.72 193.97 Q 515.46 193.97 515.46 198.57 Q 515.46 203.19 517.69 203.19 z" />
      </g>
    </g>
    <clipPath id="clip12">
      <path id="path108" d="M 0.0000 0.0000 L 0.0000 342.00 L 618.00 342.00 L 618.00 0.0000 z" />
    </clipPath>
    <g id="g110" clip-path="url(#clip12)">
      <g id="g112" fill="#000000" stroke="none" fill-rule="nonzero" fill-opacity="1.0000">
        <path id="path114" d="M 14.769 299.02 L 14.769 298.03 L 20.731 298.03 L 20.731 299.02 z M 23.756 303.00 L 23.756 301.92 L 25.924 301.92 L 25.924 293.36 L 23.756 293.90 L 23.756 292.79 L 27.374 291.89 L 27.374 301.92 L 29.542 301.92 L 29.542 303.00 z" />
      </g>
    </g>
    <clipPath id="clip13">
      <path id="path117" d="M 0.0000 0.0000 L 0.0000 342.00 L 618.00 342.00 L 618.00 0.0000 z" />
    </clipPath>
    <g id="g119" clip-path="url(#clip13)">
      <g id="g121" fill="#000000" stroke="none" fill-rule="nonzero" fill-opacity="1.0000">
        <path id="path123" d="M 26.702 183.27 Q 25.025 183.27 23.989 181.69 Q 22.952 180.11 22.952 177.57 Q 22.952 175.01 23.996 173.45 Q 25.040 171.89 26.746 171.89 Q 28.453 171.89 29.496 173.45 Q 30.540 175.01 30.540 177.55 Q 30.540 180.16 29.496 181.71 Q 28.453 183.27 26.702 183.27 z M 26.717 182.19 Q 29.009 182.19 29.009 177.53 Q 29.009 172.97 26.746 172.97 Q 24.490 172.97 24.490 177.57 Q 24.490 182.19 26.717 182.19 z" />
      </g>
    </g>
    <clipPath id="clip14">
      <path id="path126" d="M 0.0000 0.0000 L 0.0000 342.00 L 618.00 342.00 L 618.00 0.0000 z" />
    </clipPath>
    <g id="g128" clip-path="url(#clip14)">
      <g id="g130" fill="#000000" stroke="none" fill-rule="nonzero" fill-opacity="1.0000">
        <path id="path132" d="M 24.256 80.000 L 24.256 78.916 L 26.424 78.916 L 26.424 70.361 L 24.256 70.903 L 24.256 69.790 L 27.874 68.889 L 27.874 78.916 L 30.042 78.916 L 30.042 80.000 z" />
      </g>
    </g>
    <g id="misc" />
    <g id="layer0">
      <clipPath id="clip15">
        <path id="path137" d="M 0.0000 0.0000 L 0.0000 342.00 L 618.00 342.00 L 618.00 0.0000 z" />
      </clipPath>
      <g id="g139" clip-path="url(#clip15)">
        <g id="g141" stroke="#000000" stroke-opacity="1.0000" fill="none" stroke-linecap="round" stroke-width="3.5000" stroke-linejoin="round">
          <path id="path143" d="M 0.0000 241.64 L 4.8281 235.27 L 9.6562 228.69 L 14.484 221.92 L 19.312 215.01 L 24.141 207.97 L 28.969 200.84 L 33.797 193.64 L 38.625 186.41 L 43.453 179.19 L 48.281 171.98 L 53.109 164.84 L 57.938 157.79 L 62.766 150.86 L 67.594 144.08 L 72.422 137.47 L 77.250 131.07 L 82.078 124.91 L 86.906 119.00 L 91.734 113.38 L 96.562 108.07 L 101.39 103.08 L 106.22 98.450 L 111.05 94.189 L 115.88 90.318 L 120.70 86.853 L 125.53 83.808 L 130.36 81.197 L 135.19 79.030 L 140.02 77.318 L 144.84 76.066 L 149.67 75.281 L 154.50 74.965 L 159.33 75.121 L 164.16 75.746 L 168.98 76.840 L 173.81 78.396 L 178.64 80.409 L 183.47 82.870 L 188.30 85.769 L 193.12 89.093 L 197.95 92.827 L 202.78 96.957 L 207.61 101.47 L 212.44 106.33 L 217.27 111.54 L 222.09 117.06 L 226.92 122.87 L 231.75 128.95 L 236.58 135.27 L 241.41 141.81 L 246.23 148.54 L 251.06 155.42 L 255.89 162.43 L 260.72 169.55 L 265.55 176.73 L 270.38 183.95 L 275.20 191.19 L 280.03 198.39 L 284.86 205.55 L 289.69 212.63 L 294.52 219.59 L 299.34 226.41 L 304.17 233.05 L 309.00 239.50 L 313.83 245.72 L 318.66 251.69 L 323.48 257.38 L 328.31 262.76 L 333.14 267.82 L 337.97 272.54 L 342.80 276.88 L 347.62 280.84 L 352.45 284.40 L 357.28 287.54 L 362.11 290.25 L 366.94 292.52 L 371.77 294.34 L 376.59 295.69 L 381.42 296.58 L 386.25 297.00 L 391.08 296.96 L 395.91 296.44 L 400.73 295.45 L 405.56 293.99 L 410.39 292.08 L 415.22 289.72 L 420.05 286.92 L 424.88 283.69 L 429.70 280.05 L 434.53 276.01 L 439.36 271.58 L 444.19 266.80 L 449.02 261.67 L 453.84 256.22 L 458.67 250.47 L 463.50 244.44 L 468.33 238.17 L 473.16 231.68 L 477.98 225.00 L 482.81 218.15 L 487.64 211.16 L 492.47 204.07 L 497.30 196.89 L 502.12 189.68 L 506.95 182.45 L 511.78 175.23 L 516.61 168.06 L 521.44 160.96 L 526.27 153.97 L 531.09 147.12 L 535.92 140.43 L 540.75 133.93 L 545.58 127.66 L 550.41 121.63 L 555.23 115.88 L 560.06 110.42 L 564.89 105.29 L 569.72 100.49 L 574.55 96.064 L 579.38 92.015 L 584.20 88.365 L 589.03 85.129 L 593.86 82.321 L 598.69 79.952 L 603.52 78.034 L 608.34 76.573 L 613.17 75.577 L 618.00 75.049" />
          <title id="title145">Function f</title>
          <desc id="desc147">f(x) = sin(xÃ&#130;Â°)</desc>
        </g>
      </g>
      <clipPath id="clip16">
        <path id="path150" d="M 0.0000 0.0000 L 0.0000 342.00 L 618.00 342.00 L 618.00 0.0000 z" />
      </clipPath>
      <g id="g152" clip-path="url(#clip16)">
        <g id="g154" stroke="#cc0000" stroke-opacity="1.0000" fill="none" stroke-linecap="round" stroke-width="3.5000" stroke-linejoin="round">
          <path id="path156" d="M 0.0000 184.32 L 4.8281 184.26 L 9.6562 184.21 L 14.484 184.17 L 19.312 184.13 L 24.141 184.10 L 28.969 184.08 L 33.797 184.07 L 38.625 184.06 L 43.453 184.07 L 48.281 184.08 L 53.109 184.10 L 57.938 184.13 L 62.766 184.16 L 67.594 184.21 L 72.422 184.26 L 77.250 184.32 L 82.078 184.38 L 86.906 184.45 L 91.734 184.53 L 96.562 184.62 L 101.39 184.71 L 106.22 184.81 L 111.05 184.91 L 115.88 185.02 L 120.70 185.13 L 125.53 185.24 L 130.36 185.36 L 135.19 185.48 L 140.02 185.60 L 144.84 185.73 L 149.67 185.85 L 154.50 185.98 L 159.33 186.10 L 164.16 186.23 L 168.98 186.36 L 173.81 186.48 L 178.64 186.60 L 183.47 186.72 L 188.30 186.83 L 193.12 186.95 L 197.95 187.05 L 202.78 187.16 L 207.61 187.26 L 212.44 187.35 L 217.27 187.44 L 222.09 187.52 L 226.92 187.59 L 231.75 187.66 L 236.58 187.72 L 241.41 187.78 L 246.23 187.82 L 251.06 187.86 L 255.89 187.89 L 260.72 187.92 L 265.55 187.93 L 270.38 187.94 L 275.20 187.94 L 280.03 187.93 L 284.86 187.91 L 289.69 187.88 L 294.52 187.85 L 299.34 187.81 L 304.17 187.76 L 309.00 187.70 L 313.83 187.63 L 318.66 187.56 L 323.48 187.48 L 328.31 187.40 L 333.14 187.31 L 337.97 187.21 L 342.80 187.11 L 347.62 187.01 L 352.45 186.90 L 357.28 186.78 L 362.11 186.67 L 366.94 186.55 L 371.77 186.43 L 376.59 186.30 L 381.42 186.18 L 386.25 186.05 L 391.08 185.92 L 395.91 185.80 L 400.73 185.67 L 405.56 185.55 L 410.39 185.43 L 415.22 185.31 L 420.05 185.19 L 424.88 185.08 L 429.70 184.97 L 434.53 184.87 L 439.36 184.77 L 444.19 184.67 L 449.02 184.58 L 453.84 184.50 L 458.67 184.42 L 463.50 184.35 L 468.33 184.29 L 473.16 184.23 L 477.98 184.19 L 482.81 184.14 L 487.64 184.11 L 492.47 184.09 L 497.30 184.07 L 502.12 184.06 L 506.95 184.06 L 511.78 184.07 L 516.61 184.09 L 521.44 184.11 L 526.27 184.14 L 531.09 184.18 L 535.92 184.23 L 540.75 184.29 L 545.58 184.35 L 550.41 184.42 L 555.23 184.50 L 560.06 184.58 L 564.89 184.67 L 569.72 184.76 L 574.55 184.86 L 579.38 184.97 L 584.20 185.08 L 589.03 185.19 L 593.86 185.31 L 598.69 185.43 L 603.52 185.55 L 608.34 185.67 L 613.17 185.80 L 618.00 185.92" />
          <title id="title158">Function g</title>
          <desc id="desc160">g(x) = Ã&#143;Â&#128; / 180 cos(xÃ&#130;Â°)</desc>
        </g>
      </g>
      <clipPath id="clip17">
        <path id="path163" d="M 0.0000 0.0000 L 0.0000 342.00 L 618.00 342.00 L 618.00 0.0000 z" />
      </clipPath>
      <g id="g165" clip-path="url(#clip17)">
        <g id="g167" fill="#3333ff" stroke="none" fill-rule="nonzero" fill-opacity="1.0000">
          <path id="path169" d="M 159.32 74.958 C 159.32 77.167 157.53 78.958 155.32 78.958 C 153.11 78.958 151.32 77.167 151.32 74.958 C 151.32 72.749 153.11 70.958 155.32 70.958 C 157.53 70.958 159.32 72.749 159.32 74.958 z" />
          <title id="title171">Point A</title>
          <desc id="desc173">Point A: Point on f</desc>
        </g>
      </g>
      <clipPath id="clip18">
        <path id="path176" d="M 0.0000 0.0000 L 0.0000 342.00 L 618.00 342.00 L 618.00 0.0000 z" />
      </clipPath>
      <g id="g178" clip-path="url(#clip18)">
        <g id="g180" stroke="#000000" stroke-opacity="1.0000" fill="none" stroke-linecap="round" stroke-linejoin="round">
          <path id="path182" d="M 159.32 74.958 C 159.32 77.167 157.53 78.958 155.32 78.958 C 153.11 78.958 151.32 77.167 151.32 74.958 C 151.32 72.749 153.11 70.958 155.32 70.958 C 157.53 70.958 159.32 72.749 159.32 74.958 z" />
          <title id="title184">Point A</title>
          <desc id="desc186">Point A: Point on f</desc>
        </g>
      </g>
      <clipPath id="clip19">
        <path id="path189" d="M 0.0000 0.0000 L 0.0000 342.00 L 618.00 342.00 L 618.00 0.0000 z" />
      </clipPath>
      <g id="g191" clip-path="url(#clip19)">
        <g id="g193" fill="#3333ff" stroke="none" fill-rule="nonzero" fill-opacity="1.0000">
          <path id="path195" d="M 156.19 60.473 L 153.73 54.242 L 151.26 60.473 z M 158.36 66.000 L 156.79 61.996 L 150.66 61.996 L 149.07 66.000 L 147.17 66.000 L 152.90 51.547 L 154.93 51.547 L 160.57 66.000 z" />
          <title id="title197">Point A</title>
          <desc id="desc199">Point A: Point on f</desc>
        </g>
      </g>
      <clipPath id="clip20">
        <path id="path202" d="M 0.0000 0.0000 L 0.0000 342.00 L 618.00 342.00 L 618.00 0.0000 z" />
      </clipPath>
      <g id="g204" clip-path="url(#clip20)">
        <g id="g206" fill="#3333ff" stroke="none" fill-rule="nonzero" fill-opacity="1.0000">
          <path id="path208" d="M 275.74 186.00 C 275.74 188.21 273.95 190.00 271.74 190.00 C 269.53 190.00 267.74 188.21 267.74 186.00 C 267.74 183.79 269.53 182.00 271.74 182.00 C 273.95 182.00 275.74 183.79 275.74 186.00 z" />
          <title id="title210">Point B</title>
          <desc id="desc212">Point B: Point on f</desc>
        </g>
      </g>
      <clipPath id="clip21">
        <path id="path215" d="M 0.0000 0.0000 L 0.0000 342.00 L 618.00 342.00 L 618.00 0.0000 z" />
      </clipPath>
      <g id="g217" clip-path="url(#clip21)">
        <g id="g219" stroke="#000000" stroke-opacity="1.0000" fill="none" stroke-linecap="round" stroke-linejoin="round">
          <path id="path221" d="M 275.74 186.00 C 275.74 188.21 273.95 190.00 271.74 190.00 C 269.53 190.00 267.74 188.21 267.74 186.00 C 267.74 183.79 269.53 182.00 271.74 182.00 C 273.95 182.00 275.74 183.79 275.74 186.00 z" />
          <title id="title223">Point B</title>
          <desc id="desc225">Point B: Point on f</desc>
        </g>
      </g>
      <clipPath id="clip22">
        <path id="path228" d="M 0.0000 0.0000 L 0.0000 342.00 L 618.00 342.00 L 618.00 0.0000 z" />
      </clipPath>
      <g id="g230" clip-path="url(#clip22)">
        <g id="g232" fill="#3333ff" stroke="none" fill-rule="nonzero" fill-opacity="1.0000">
          <path id="path234" d="M 274.87 175.00 L 274.87 160.55 L 278.62 160.55 Q 280.78 160.55 281.94 161.37 Q 283.10 162.19 283.10 163.73 Q 283.10 166.36 280.13 167.47 Q 283.67 168.55 283.67 171.39 Q 283.67 173.14 282.50 174.07 Q 281.33 175.00 279.12 175.00 z M 276.90 173.47 L 277.32 173.47 Q 279.57 173.47 280.24 173.18 Q 281.51 172.65 281.51 171.19 Q 281.51 169.90 280.35 169.05 Q 279.20 168.19 277.47 168.19 L 276.90 168.19 z M 276.90 166.89 L 277.55 166.89 Q 279.19 166.89 280.09 166.19 Q 281.00 165.49 281.00 164.21 Q 281.00 162.08 277.70 162.08 L 276.90 162.08 z" />
          <title id="title236">Point B</title>
          <desc id="desc238">Point B: Point on f</desc>
        </g>
      </g>
      <clipPath id="clip23">
        <path id="path241" d="M 0.0000 0.0000 L 0.0000 342.00 L 618.00 342.00 L 618.00 0.0000 z" />
      </clipPath>
      <g id="g243" clip-path="url(#clip23)">
        <g id="g245" fill="#3333ff" stroke="none" fill-rule="nonzero" fill-opacity="1.0000">
          <path id="path247" d="M 455.54 258.85 C 455.54 261.06 453.75 262.85 451.54 262.85 C 449.34 262.85 447.54 261.06 447.54 258.85 C 447.54 256.64 449.34 254.85 451.54 254.85 C 453.75 254.85 455.54 256.64 455.54 258.85 z" />
          <title id="title249">Point C</title>
          <desc id="desc251">Point C: Point on f</desc>
        </g>
      </g>
      <clipPath id="clip24">
        <path id="path254" d="M 0.0000 0.0000 L 0.0000 342.00 L 618.00 342.00 L 618.00 0.0000 z" />
      </clipPath>
      <g id="g256" clip-path="url(#clip24)">
        <g id="g258" stroke="#000000" stroke-opacity="1.0000" fill="none" stroke-linecap="round" stroke-linejoin="round">
          <path id="path260" d="M 455.54 258.85 C 455.54 261.06 453.75 262.85 451.54 262.85 C 449.34 262.85 447.54 261.06 447.54 258.85 C 447.54 256.64 449.34 254.85 451.54 254.85 C 453.75 254.85 455.54 256.64 455.54 258.85 z" />
          <title id="title262">Point C</title>
          <desc id="desc264">Point C: Point on f</desc>
        </g>
      </g>
      <clipPath id="clip25">
        <path id="path267" d="M 0.0000 0.0000 L 0.0000 342.00 L 618.00 342.00 L 618.00 0.0000 z" />
      </clipPath>
      <g id="g269" clip-path="url(#clip25)">
        <g id="g271" fill="#3333ff" stroke="none" fill-rule="nonzero" fill-opacity="1.0000">
          <path id="path273" d="M 442.06 251.36 Q 438.69 251.36 436.85 249.38 Q 435.02 247.41 435.02 243.78 Q 435.02 240.17 436.89 238.18 Q 438.76 236.19 442.15 236.19 Q 444.10 236.19 446.71 236.82 L 446.71 238.74 Q 443.74 237.72 442.12 237.72 Q 439.77 237.72 438.48 239.31 Q 437.19 240.90 437.19 243.80 Q 437.19 246.57 438.57 248.16 Q 439.95 249.76 442.33 249.76 Q 444.38 249.76 446.72 248.50 L 446.72 250.26 Q 444.59 251.36 442.06 251.36 z" />
          <title id="title275">Point C</title>
          <desc id="desc277">Point C: Point on f</desc>
        </g>
      </g>
      <g id="g279" transform="matrix(23.000, 0.0000, 0.0000, 23.000, 213.00, 73.250)">
        <clipPath id="clip26">
          <path id="path282" d="M -9.2609 -3.1848 L -9.2609 11.685 L 17.609 11.685 L 17.609 -3.1848 z" />
        </clipPath>
        <g id="g284" clip-path="url(#clip26)">
          <g id="g286" fill="#000000" stroke="none" fill-rule="nonzero" fill-opacity="1.0000">
            <path id="path288" d="M .57812 -.37500 L .48438 -0.0000 Q .46875 .093750 .38281 .14844 Q .29688 .20312 .20312 .20312 Q .14062 .20312 .10938 .17969 Q .078125 .15625 .078125 .10938 Q .078125 .078125 .093750 .054688 Q .10938 .031250 .14062 .031250 Q .15625 .031250 .17188 .046875 Q .18750 .062500 .18750 .078125 Q .18750 .12500 .14062 .15625 Q .17188 .17188 .20312 .17188 Q .26562 .17188 .31250 .11719 Q .35938 .062500 .37500 -.015625 Q .32812 .015625 .28125 .015625 Q .25000 .015625 .22656 .0078125 Q .20312 -0.0000 .17969 -.015625 Q .15625 -.031250 .14062 -.054688 Q .12500 -.078125 .12500 -.12500 Q .12500 -.15625 .14062 -.20312 Q .15625 -.25000 .18750 -.32812 Q .20312 -.37500 .20312 -.39062 Q .20312 -.40625 .19531 -.41406 Q .18750 -.42188 .18750 -.42188 Q .18750 -.42188 .18750 -.42188 Q .17188 -.42188 .16406 -.41406 Q .15625 -.40625 .14062 -.39844 Q .12500 -.39062 .10938 -.35938 Q .093750 -.32812 .078125 -.29688 Q .078125 -.28125 .062500 -.28125 Q .031250 -.28125 .031250 -.29688 Q .031250 -.31250 .039062 -.33594 Q .046875 -.35938 .070312 -.38281 Q .093750 -.40625 .12500 -.42969 Q .15625 -.45312 .18750 -.45312 Q .23438 -.45312 .26562 -.42969 Q .29688 -.40625 .29688 -.35938 Q .29688 -.34375 .28125 -.31250 Q .23438 -.15625 .23438 -.093750 Q .23438 -.031250 .28125 -.031250 Q .31250 -.031250 .35938 -.046875 Q .35938 -.046875 .36719 -.054688 Q .37500 -.062500 .38281 -.078125 Q .39062 -.093750 .39062 -.093750 Q .40625 -.12500 .43750 -.26562 L .46875 -.37500 Q .46875 -.39062 .46875 -.39844 Q .46875 -.40625 .47656 -.42188 Q .48438 -.43750 .50000 -.43750 Q .51562 -.43750 .53125 -.43750 Q .56250 -.43750 .57031 -.42969 Q .57812 -.42188 .57812 -.40625 Q .57812 -.39062 .57812 -.37500 z" />
            <title id="title290">y = f(x)</title>
            <desc id="desc292">text1 = &quot;y = f(x)&quot;</desc>
          </g>
        </g>
      </g>
      <g id="g294" transform="matrix(23.000, 0.0000, 0.0000, 23.000, 232.97, 73.250)">
        <clipPath id="clip27">
          <path id="path297" d="M -10.129 -3.1848 L -10.129 11.685 L 16.741 11.685 L 16.741 -3.1848 z" />
        </clipPath>
        <g id="g299" clip-path="url(#clip27)">
          <g id="g301" fill="#000000" stroke="none" fill-rule="nonzero" fill-opacity="1.0000">
            <path id="path303" d="M .78125 -.32812 L .10938 -.32812 Q .062500 -.32812 .062500 -.35938 Q .062500 -.39062 .10938 -.39062 L .78125 -.39062 Q .82812 -.39062 .82812 -.35938 Q .82812 -.32812 .78125 -.32812 z M .78125 -.10938 L .10938 -.10938 Q .062500 -.10938 .062500 -.14062 Q .062500 -.17188 .10938 -.17188 L .78125 -.17188 Q .82812 -.17188 .82812 -.14062 Q .82812 -.10938 .78125 -.10938 z" />
            <title id="title305">y = f(x)</title>
            <desc id="desc307">text1 = &quot;y = f(x)&quot;</desc>
          </g>
        </g>
      </g>
      <g id="g309" transform="matrix(23.000, 0.0000, 0.0000, 23.000, 259.93, 73.250)">
        <clipPath id="clip28">
          <path id="path312" d="M -11.301 -3.1848 L -11.301 11.685 L 15.568 11.685 L 15.568 -3.1848 z" />
        </clipPath>
        <g id="g314" clip-path="url(#clip28)">
          <g id="g316" fill="#000000" stroke="none" fill-rule="nonzero" fill-opacity="1.0000">
            <path id="path318" d="M .42188 -.39062 L .37500 -.093750 Q .34375 .046875 .31250 .10938 Q .29688 .12500 .28125 .14062 Q .26562 .15625 .23438 .17969 Q .20312 .20312 .17188 .20312 Q .12500 .20312 .093750 .17969 Q .062500 .15625 .062500 .12500 Q .062500 .093750 .085938 .070312 Q .10938 .046875 .14062 .046875 Q .15625 .046875 .17188 .062500 Q .18750 .078125 .18750 .093750 Q .18750 .10938 .17188 .13281 Q .15625 .15625 .14062 .15625 Q .15625 .17188 .17188 .17188 Q .20312 .17188 .21875 .10938 Q .21875 .10938 .22656 .093750 Q .23438 .078125 .23438 .054688 Q .23438 .031250 .23438 .031250 L .31250 -.39062 L .21875 -.39062 Q .18750 -.39062 .18750 -.42188 Q .18750 -.42188 .19531 -.42969 Q .20312 -.43750 .21094 -.43750 Q .21875 -.43750 .23438 -.43750 L .32812 -.43750 Q .34375 -.51562 .34375 -.53906 Q .34375 -.56250 .35156 -.58594 Q .35938 -.60938 .37500 -.62500 Q .42188 -.70312 .51562 -.70312 Q .56250 -.70312 .59375 -.67969 Q .62500 -.65625 .62500 -.62500 Q .62500 -.59375 .60156 -.57031 Q .57812 -.54688 .54688 -.54688 Q .53125 -.54688 .51562 -.56250 Q .50000 -.57812 .50000 -.59375 Q .50000 -.60938 .51562 -.63281 Q .53125 -.65625 .54688 -.65625 Q .53125 -.67188 .51562 -.67188 Q .50000 -.67188 .48438 -.65625 Q .46875 -.64062 .46875 -.62500 L .43750 -.43750 L .54688 -.43750 Q .57812 -.43750 .57812 -.42188 Q .57812 -.40625 .57812 -.40625 Q .57812 -.40625 .57031 -.39844 Q .56250 -.39062 .54688 -.39062 L .42188 -.39062 z" />
            <title id="title320">y = f(x)</title>
            <desc id="desc322">text1 = &quot;y = f(x)&quot;</desc>
          </g>
        </g>
      </g>
      <g id="g324" transform="matrix(23.000, 0.0000, 0.0000, 23.000, 272.99, 73.250)">
        <clipPath id="clip29">
          <path id="path327" d="M -11.869 -3.1848 L -11.869 11.685 L 15.000 11.685 L 15.000 -3.1848 z" />
        </clipPath>
        <g id="g329" clip-path="url(#clip29)">
          <g id="g331" fill="#000000" stroke="none" fill-rule="nonzero" fill-opacity="1.0000">
            <path id="path333" d="M .37500 .21875 L .37500 .23438 Q .37500 .23438 .37500 .23438 Q .37500 .25000 .35938 .25000 Q .34375 .25000 .28906 .19531 Q .23438 .14062 .18750 .062500 Q .10938 -.078125 .10938 -.25000 Q .10938 -.51562 .28125 -.70312 Q .34375 -.75000 .35938 -.75000 Q .37500 -.75000 .37500 -.73438 Q .37500 -.73438 .35938 -.71875 Q .20312 -.54688 .20312 -.25000 Q .20312 -.10938 .25000 .015625 Q .28125 .14062 .37500 .21875 z" />
            <title id="title335">y = f(x)</title>
            <desc id="desc337">text1 = &quot;y = f(x)&quot;</desc>
          </g>
        </g>
      </g>
      <g id="g339" transform="matrix(23.000, 0.0000, 0.0000, 23.000, 283.28, 73.250)">
        <clipPath id="clip30">
          <path id="path342" d="M -12.316 -3.1848 L -12.316 11.685 L 14.553 11.685 L 14.553 -3.1848 z" />
        </clipPath>
        <g id="g344" clip-path="url(#clip30)">
          <g id="g346" fill="#000000" stroke="none" fill-rule="nonzero" fill-opacity="1.0000">
            <path id="path348" d="M .53125 -.40625 Q .51562 -.42188 .48438 -.42188 Q .46875 -.42188 .43750 -.39844 Q .40625 -.37500 .40625 -.32812 Q .40625 -.31250 .39062 -.25781 Q .37500 -.20312 .37500 -.18750 Q .34375 -.093750 .34375 -.078125 Q .34375 -.031250 .40625 -.031250 Q .43750 -.031250 .48438 -.062500 Q .53125 -.093750 .54688 -.15625 Q .54688 -.15625 .56250 -.15625 Q .59375 -.15625 .59375 -.14844 Q .59375 -.14062 .57812 -.10938 Q .56250 -.078125 .53906 -.054688 Q .51562 -.031250 .47656 -.0078125 Q .43750 .015625 .39062 .015625 Q .29688 .015625 .26562 -.046875 Q .21875 .015625 .15625 .015625 Q .10938 .015625 .070312 -.015625 Q .031250 -.046875 .031250 -.078125 Q .031250 -.10938 .054688 -.13281 Q .078125 -.15625 .10938 -.15625 Q .14062 -.15625 .14844 -.14062 Q .15625 -.12500 .15625 -.10938 Q .15625 -.093750 .14062 -.070312 Q .12500 -.046875 .10938 -.046875 Q .12500 -.031250 .15625 -.031250 Q .18750 -.031250 .21094 -.054688 Q .23438 -.078125 .23438 -.12500 L .26562 -.25000 Q .29688 -.34375 .29688 -.35938 Q .29688 -.42188 .23438 -.42188 Q .20312 -.42188 .16406 -.39062 Q .12500 -.35938 .093750 -.29688 Q .093750 -.28125 .078125 -.28125 Q .046875 -.28125 .046875 -.29688 Q .046875 -.31250 .062500 -.33594 Q .078125 -.35938 .10156 -.38281 Q .12500 -.40625 .16406 -.42969 Q .20312 -.45312 .25000 -.45312 Q .34375 -.45312 .39062 -.39062 Q .42188 -.45312 .48438 -.45312 Q .53125 -.45312 .57031 -.42969 Q .60938 -.40625 .60938 -.35938 Q .60938 -.32812 .58594 -.30469 Q .56250 -.28125 .53125 -.28125 Q .51562 -.28125 .50000 -.29688 Q .48438 -.31250 .48438 -.32812 Q .48438 -.35938 .50000 -.37500 Q .51562 -.39062 .53125 -.40625 z" />
            <title id="title350">y = f(x)</title>
            <desc id="desc352">text1 = &quot;y = f(x)&quot;</desc>
          </g>
        </g>
      </g>
      <g id="g354" transform="matrix(23.000, 0.0000, 0.0000, 23.000, 298.44, 73.250)">
        <clipPath id="clip31">
          <path id="path357" d="M -12.975 -3.1848 L -12.975 11.685 L 13.894 11.685 L 13.894 -3.1848 z" />
        </clipPath>
        <g id="g359" clip-path="url(#clip31)">
          <g id="g361" fill="#000000" stroke="none" fill-rule="nonzero" fill-opacity="1.0000">
            <path id="path363" d="M .34375 -.25000 Q .34375 .015625 .15625 .18750 Q .10938 .25000 .078125 .25000 Q .062500 .25000 .062500 .23438 Q .062500 .23438 .078125 .21875 Q .23438 .046875 .23438 -.25000 Q .23438 -.54688 .078125 -.71875 Q .062500 -.73438 .062500 -.73438 Q .062500 -.75000 .078125 -.75000 Q .093750 -.75000 .15625 -.69531 Q .21875 -.64062 .26562 -.56250 Q .34375 -.42188 .34375 -.25000 z" />
            <title id="title365">y = f(x)</title>
            <desc id="desc367">text1 = &quot;y = f(x)&quot;</desc>
          </g>
        </g>
      </g>
      <g id="g369" transform="matrix(23.000, 0.0000, 0.0000, 23.000, 19.000, 25.222)">
        <clipPath id="clip32">
          <path id="path372" d="M -.82609 -1.0966 L -.82609 13.773 L 26.043 13.773 L 26.043 -1.0966 z" />
        </clipPath>
        <g id="g374" clip-path="url(#clip32)">
          <g id="g376" fill="#000000" stroke="none" fill-rule="nonzero" fill-opacity="1.0000">
            <path id="path378" d="M .57812 -.37500 L .48438 -0.0000 Q .46875 .093750 .38281 .14844 Q .29688 .20312 .20312 .20312 Q .14062 .20312 .10938 .17969 Q .078125 .15625 .078125 .10938 Q .078125 .078125 .093750 .054688 Q .10938 .031250 .14062 .031250 Q .15625 .031250 .17188 .046875 Q .18750 .062500 .18750 .078125 Q .18750 .12500 .14062 .15625 Q .17188 .17188 .20312 .17188 Q .26562 .17188 .31250 .11719 Q .35938 .062500 .37500 -.015625 Q .32812 .015625 .28125 .015625 Q .25000 .015625 .22656 .0078125 Q .20312 -0.0000 .17969 -.015625 Q .15625 -.031250 .14062 -.054688 Q .12500 -.078125 .12500 -.12500 Q .12500 -.15625 .14062 -.20312 Q .15625 -.25000 .18750 -.32812 Q .20312 -.37500 .20312 -.39062 Q .20312 -.40625 .19531 -.41406 Q .18750 -.42188 .18750 -.42188 Q .18750 -.42188 .18750 -.42188 Q .17188 -.42188 .16406 -.41406 Q .15625 -.40625 .14062 -.39844 Q .12500 -.39062 .10938 -.35938 Q .093750 -.32812 .078125 -.29688 Q .078125 -.28125 .062500 -.28125 Q .031250 -.28125 .031250 -.29688 Q .031250 -.31250 .039062 -.33594 Q .046875 -.35938 .070312 -.38281 Q .093750 -.40625 .12500 -.42969 Q .15625 -.45312 .18750 -.45312 Q .23438 -.45312 .26562 -.42969 Q .29688 -.40625 .29688 -.35938 Q .29688 -.34375 .28125 -.31250 Q .23438 -.15625 .23438 -.093750 Q .23438 -.031250 .28125 -.031250 Q .31250 -.031250 .35938 -.046875 Q .35938 -.046875 .36719 -.054688 Q .37500 -.062500 .38281 -.078125 Q .39062 -.093750 .39062 -.093750 Q .40625 -.12500 .43750 -.26562 L .46875 -.37500 Q .46875 -.39062 .46875 -.39844 Q .46875 -.40625 .47656 -.42188 Q .48438 -.43750 .50000 -.43750 Q .51562 -.43750 .53125 -.43750 Q .56250 -.43750 .57031 -.42969 Q .57812 -.42188 .57812 -.40625 Q .57812 -.39062 .57812 -.37500 z" />
            <title id="title380">y</title>
            <desc id="desc382">text2 = &quot;y&quot;</desc>
          </g>
        </g>
      </g>
      <g id="g384" transform="matrix(23.000, 0.0000, 0.0000, 23.000, 595.00, 206.22)">
        <clipPath id="clip33">
          <path id="path387" d="M -25.870 -8.9662 L -25.870 5.9034 L 1.0000 5.9034 L 1.0000 -8.9662 z" />
        </clipPath>
        <g id="g389" clip-path="url(#clip33)">
          <g id="g391" fill="#000000" stroke="none" fill-rule="nonzero" fill-opacity="1.0000">
            <path id="path393" d="M .53125 -.40625 Q .51562 -.42188 .48438 -.42188 Q .46875 -.42188 .43750 -.39844 Q .40625 -.37500 .40625 -.32812 Q .40625 -.31250 .39062 -.25781 Q .37500 -.20312 .37500 -.18750 Q .34375 -.093750 .34375 -.078125 Q .34375 -.031250 .40625 -.031250 Q .43750 -.031250 .48438 -.062500 Q .53125 -.093750 .54688 -.15625 Q .54688 -.15625 .56250 -.15625 Q .59375 -.15625 .59375 -.14844 Q .59375 -.14062 .57812 -.10938 Q .56250 -.078125 .53906 -.054688 Q .51562 -.031250 .47656 -.0078125 Q .43750 .015625 .39062 .015625 Q .29688 .015625 .26562 -.046875 Q .21875 .015625 .15625 .015625 Q .10938 .015625 .070312 -.015625 Q .031250 -.046875 .031250 -.078125 Q .031250 -.10938 .054688 -.13281 Q .078125 -.15625 .10938 -.15625 Q .14062 -.15625 .14844 -.14062 Q .15625 -.12500 .15625 -.10938 Q .15625 -.093750 .14062 -.070312 Q .12500 -.046875 .10938 -.046875 Q .12500 -.031250 .15625 -.031250 Q .18750 -.031250 .21094 -.054688 Q .23438 -.078125 .23438 -.12500 L .26562 -.25000 Q .29688 -.34375 .29688 -.35938 Q .29688 -.42188 .23438 -.42188 Q .20312 -.42188 .16406 -.39062 Q .12500 -.35938 .093750 -.29688 Q .093750 -.28125 .078125 -.28125 Q .046875 -.28125 .046875 -.29688 Q .046875 -.31250 .062500 -.33594 Q .078125 -.35938 .10156 -.38281 Q .12500 -.40625 .16406 -.42969 Q .20312 -.45312 .25000 -.45312 Q .34375 -.45312 .39062 -.39062 Q .42188 -.45312 .48438 -.45312 Q .53125 -.45312 .57031 -.42969 Q .60938 -.40625 .60938 -.35938 Q .60938 -.32812 .58594 -.30469 Q .56250 -.28125 .53125 -.28125 Q .51562 -.28125 .50000 -.29688 Q .48438 -.31250 .48438 -.32812 Q .48438 -.35938 .50000 -.37500 Q .51562 -.39062 .53125 -.40625 z" />
            <title id="title395">x</title>
            <desc id="desc397">text3 = &quot;x&quot;</desc>
          </g>
        </g>
      </g>
      <g id="g399" transform="matrix(23.000, 0.0000, 0.0000, 23.000, 96.000, 175.44)">
        <clipPath id="clip34">
          <path id="path402" d="M -4.1739 -7.6279 L -4.1739 7.2417 L 22.696 7.2417 L 22.696 -7.6279 z" />
        </clipPath>
        <g id="g404" clip-path="url(#clip34)">
          <g id="g406" fill="#000000" stroke="none" fill-rule="nonzero" fill-opacity="1.0000">
            <path id="path408" d="M .57812 -.37500 L .48438 -0.0000 Q .46875 .093750 .38281 .14844 Q .29688 .20312 .20312 .20312 Q .14062 .20312 .10938 .17969 Q .078125 .15625 .078125 .10938 Q .078125 .078125 .093750 .054688 Q .10938 .031250 .14062 .031250 Q .15625 .031250 .17188 .046875 Q .18750 .062500 .18750 .078125 Q .18750 .12500 .14062 .15625 Q .17188 .17188 .20312 .17188 Q .26562 .17188 .31250 .11719 Q .35938 .062500 .37500 -.015625 Q .32812 .015625 .28125 .015625 Q .25000 .015625 .22656 .0078125 Q .20312 -0.0000 .17969 -.015625 Q .15625 -.031250 .14062 -.054688 Q .12500 -.078125 .12500 -.12500 Q .12500 -.15625 .14062 -.20312 Q .15625 -.25000 .18750 -.32812 Q .20312 -.37500 .20312 -.39062 Q .20312 -.40625 .19531 -.41406 Q .18750 -.42188 .18750 -.42188 Q .18750 -.42188 .18750 -.42188 Q .17188 -.42188 .16406 -.41406 Q .15625 -.40625 .14062 -.39844 Q .12500 -.39062 .10938 -.35938 Q .093750 -.32812 .078125 -.29688 Q .078125 -.28125 .062500 -.28125 Q .031250 -.28125 .031250 -.29688 Q .031250 -.31250 .039062 -.33594 Q .046875 -.35938 .070312 -.38281 Q .093750 -.40625 .12500 -.42969 Q .15625 -.45312 .18750 -.45312 Q .23438 -.45312 .26562 -.42969 Q .29688 -.40625 .29688 -.35938 Q .29688 -.34375 .28125 -.31250 Q .23438 -.15625 .23438 -.093750 Q .23438 -.031250 .28125 -.031250 Q .31250 -.031250 .35938 -.046875 Q .35938 -.046875 .36719 -.054688 Q .37500 -.062500 .38281 -.078125 Q .39062 -.093750 .39062 -.093750 Q .40625 -.12500 .43750 -.26562 L .46875 -.37500 Q .46875 -.39062 .46875 -.39844 Q .46875 -.40625 .47656 -.42188 Q .48438 -.43750 .50000 -.43750 Q .51562 -.43750 .53125 -.43750 Q .56250 -.43750 .57031 -.42969 Q .57812 -.42188 .57812 -.40625 Q .57812 -.39062 .57812 -.37500 z" />
            <title id="title410">y = f&#39;(x)</title>
            <desc id="desc412">text4 = &quot;y = f&#39;(x)&quot;</desc>
          </g>
        </g>
      </g>
      <g id="g414" transform="matrix(23.000, 0.0000, 0.0000, 23.000, 115.97, 175.44)">
        <clipPath id="clip35">
          <path id="path417" d="M -5.0420 -7.6279 L -5.0420 7.2417 L 21.828 7.2417 L 21.828 -7.6279 z" />
        </clipPath>
        <g id="g419" clip-path="url(#clip35)">
          <g id="g421" fill="#000000" stroke="none" fill-rule="nonzero" fill-opacity="1.0000">
            <path id="path423" d="M .78125 -.32812 L .10938 -.32812 Q .062500 -.32812 .062500 -.35938 Q .062500 -.39062 .10938 -.39062 L .78125 -.39062 Q .82812 -.39062 .82812 -.35938 Q .82812 -.32812 .78125 -.32812 z M .78125 -.10938 L .10938 -.10938 Q .062500 -.10938 .062500 -.14062 Q .062500 -.17188 .10938 -.17188 L .78125 -.17188 Q .82812 -.17188 .82812 -.14062 Q .82812 -.10938 .78125 -.10938 z" />
            <title id="title425">y = f&#39;(x)</title>
            <desc id="desc427">text4 = &quot;y = f&#39;(x)&quot;</desc>
          </g>
        </g>
      </g>
      <g id="g429" transform="matrix(23.000, 0.0000, 0.0000, 23.000, 142.93, 175.44)">
        <clipPath id="clip36">
          <path id="path432" d="M -6.2142 -7.6279 L -6.2142 7.2417 L 20.655 7.2417 L 20.655 -7.6279 z" />
        </clipPath>
        <g id="g434" clip-path="url(#clip36)">
          <g id="g436" fill="#000000" stroke="none" fill-rule="nonzero" fill-opacity="1.0000">
            <path id="path438" d="M .42188 -.39062 L .37500 -.093750 Q .34375 .046875 .31250 .10938 Q .29688 .12500 .28125 .14062 Q .26562 .15625 .23438 .17969 Q .20312 .20312 .17188 .20312 Q .12500 .20312 .093750 .17969 Q .062500 .15625 .062500 .12500 Q .062500 .093750 .085938 .070312 Q .10938 .046875 .14062 .046875 Q .15625 .046875 .17188 .062500 Q .18750 .078125 .18750 .093750 Q .18750 .10938 .17188 .13281 Q .15625 .15625 .14062 .15625 Q .15625 .17188 .17188 .17188 Q .20312 .17188 .21875 .10938 Q .21875 .10938 .22656 .093750 Q .23438 .078125 .23438 .054688 Q .23438 .031250 .23438 .031250 L .31250 -.39062 L .21875 -.39062 Q .18750 -.39062 .18750 -.42188 Q .18750 -.42188 .19531 -.42969 Q .20312 -.43750 .21094 -.43750 Q .21875 -.43750 .23438 -.43750 L .32812 -.43750 Q .34375 -.51562 .34375 -.53906 Q .34375 -.56250 .35156 -.58594 Q .35938 -.60938 .37500 -.62500 Q .42188 -.70312 .51562 -.70312 Q .56250 -.70312 .59375 -.67969 Q .62500 -.65625 .62500 -.62500 Q .62500 -.59375 .60156 -.57031 Q .57812 -.54688 .54688 -.54688 Q .53125 -.54688 .51562 -.56250 Q .50000 -.57812 .50000 -.59375 Q .50000 -.60938 .51562 -.63281 Q .53125 -.65625 .54688 -.65625 Q .53125 -.67188 .51562 -.67188 Q .50000 -.67188 .48438 -.65625 Q .46875 -.64062 .46875 -.62500 L .43750 -.43750 L .54688 -.43750 Q .57812 -.43750 .57812 -.42188 Q .57812 -.40625 .57812 -.40625 Q .57812 -.40625 .57031 -.39844 Q .56250 -.39062 .54688 -.39062 L .42188 -.39062 z" />
            <title id="title440">y = f&#39;(x)</title>
            <desc id="desc442">text4 = &quot;y = f&#39;(x)&quot;</desc>
          </g>
        </g>
      </g>
      <g id="g444" transform="matrix(16.100, 0.0000, 0.0000, 16.100, 158.53, 165.94)">
        <clipPath id="clip37">
          <path id="path447" d="M -9.8467 -10.307 L -9.8467 10.935 L 28.538 10.935 L 28.538 -10.307 z" />
        </clipPath>
        <g id="g449" clip-path="url(#clip37)">
          <g id="g451" fill="#000000" stroke="none" fill-rule="nonzero" fill-opacity="1.0000">
            <path id="path453" d="M .31250 -.43750 L .10938 -.046875 Q .093750 -.031250 .093750 -.031250 Q .093750 -.031250 .062500 -.046875 Q .046875 -.046875 .039062 -.054688 Q .031250 -.062500 .031250 -.062500 Q .031250 -.078125 .031250 -.093750 L .17188 -.50000 Q .20312 -.56250 .25000 -.56250 Q .28125 -.56250 .30469 -.53906 Q .32812 -.51562 .32812 -.48438 Q .32812 -.46875 .31250 -.43750 z" />
            <title id="title455">y = f&#39;(x)</title>
            <desc id="desc457">text4 = &quot;y = f&#39;(x)&quot;</desc>
          </g>
        </g>
      </g>
      <g id="g459" transform="matrix(23.000, 0.0000, 0.0000, 23.000, 164.58, 175.44)">
        <clipPath id="clip38">
          <path id="path462" d="M -7.1555 -7.6279 L -7.1555 7.2417 L 19.714 7.2417 L 19.714 -7.6279 z" />
        </clipPath>
        <g id="g464" clip-path="url(#clip38)">
          <g id="g466" fill="#000000" stroke="none" fill-rule="nonzero" fill-opacity="1.0000">
            <path id="path468" d="M .37500 .21875 L .37500 .23438 Q .37500 .23438 .37500 .23438 Q .37500 .25000 .35938 .25000 Q .34375 .25000 .28906 .19531 Q .23438 .14062 .18750 .062500 Q .10938 -.078125 .10938 -.25000 Q .10938 -.51562 .28125 -.70312 Q .34375 -.75000 .35938 -.75000 Q .37500 -.75000 .37500 -.73438 Q .37500 -.73438 .35938 -.71875 Q .20312 -.54688 .20312 -.25000 Q .20312 -.10938 .25000 .015625 Q .28125 .14062 .37500 .21875 z" />
            <title id="title470">y = f&#39;(x)</title>
            <desc id="desc472">text4 = &quot;y = f&#39;(x)&quot;</desc>
          </g>
        </g>
      </g>
      <g id="g474" transform="matrix(23.000, 0.0000, 0.0000, 23.000, 174.86, 175.44)">
        <clipPath id="clip39">
          <path id="path477" d="M -7.6027 -7.6279 L -7.6027 7.2417 L 19.267 7.2417 L 19.267 -7.6279 z" />
        </clipPath>
        <g id="g479" clip-path="url(#clip39)">
          <g id="g481" fill="#000000" stroke="none" fill-rule="nonzero" fill-opacity="1.0000">
            <path id="path483" d="M .53125 -.40625 Q .51562 -.42188 .48438 -.42188 Q .46875 -.42188 .43750 -.39844 Q .40625 -.37500 .40625 -.32812 Q .40625 -.31250 .39062 -.25781 Q .37500 -.20312 .37500 -.18750 Q .34375 -.093750 .34375 -.078125 Q .34375 -.031250 .40625 -.031250 Q .43750 -.031250 .48438 -.062500 Q .53125 -.093750 .54688 -.15625 Q .54688 -.15625 .56250 -.15625 Q .59375 -.15625 .59375 -.14844 Q .59375 -.14062 .57812 -.10938 Q .56250 -.078125 .53906 -.054688 Q .51562 -.031250 .47656 -.0078125 Q .43750 .015625 .39062 .015625 Q .29688 .015625 .26562 -.046875 Q .21875 .015625 .15625 .015625 Q .10938 .015625 .070312 -.015625 Q .031250 -.046875 .031250 -.078125 Q .031250 -.10938 .054688 -.13281 Q .078125 -.15625 .10938 -.15625 Q .14062 -.15625 .14844 -.14062 Q .15625 -.12500 .15625 -.10938 Q .15625 -.093750 .14062 -.070312 Q .12500 -.046875 .10938 -.046875 Q .12500 -.031250 .15625 -.031250 Q .18750 -.031250 .21094 -.054688 Q .23438 -.078125 .23438 -.12500 L .26562 -.25000 Q .29688 -.34375 .29688 -.35938 Q .29688 -.42188 .23438 -.42188 Q .20312 -.42188 .16406 -.39062 Q .12500 -.35938 .093750 -.29688 Q .093750 -.28125 .078125 -.28125 Q .046875 -.28125 .046875 -.29688 Q .046875 -.31250 .062500 -.33594 Q .078125 -.35938 .10156 -.38281 Q .12500 -.40625 .16406 -.42969 Q .20312 -.45312 .25000 -.45312 Q .34375 -.45312 .39062 -.39062 Q .42188 -.45312 .48438 -.45312 Q .53125 -.45312 .57031 -.42969 Q .60938 -.40625 .60938 -.35938 Q .60938 -.32812 .58594 -.30469 Q .56250 -.28125 .53125 -.28125 Q .51562 -.28125 .50000 -.29688 Q .48438 -.31250 .48438 -.32812 Q .48438 -.35938 .50000 -.37500 Q .51562 -.39062 .53125 -.40625 z" />
            <title id="title485">y = f&#39;(x)</title>
            <desc id="desc487">text4 = &quot;y = f&#39;(x)&quot;</desc>
          </g>
        </g>
      </g>
      <g id="g489" transform="matrix(23.000, 0.0000, 0.0000, 23.000, 190.02, 175.44)">
        <clipPath id="clip40">
          <path id="path492" d="M -8.2618 -7.6279 L -8.2618 7.2417 L 18.608 7.2417 L 18.608 -7.6279 z" />
        </clipPath>
        <g id="g494" clip-path="url(#clip40)">
          <g id="g496" fill="#000000" stroke="none" fill-rule="nonzero" fill-opacity="1.0000">
            <path id="path498" d="M .34375 -.25000 Q .34375 .015625 .15625 .18750 Q .10938 .25000 .078125 .25000 Q .062500 .25000 .062500 .23438 Q .062500 .23438 .078125 .21875 Q .23438 .046875 .23438 -.25000 Q .23438 -.54688 .078125 -.71875 Q .062500 -.73438 .062500 -.73438 Q .062500 -.75000 .078125 -.75000 Q .093750 -.75000 .15625 -.69531 Q .21875 -.64062 .26562 -.56250 Q .34375 -.42188 .34375 -.25000 z" />
            <title id="title500">y = f&#39;(x)</title>
            <desc id="desc502">text4 = &quot;y = f&#39;(x)&quot;</desc>
          </g>
        </g>
      </g>
    </g>
  </g>
</svg>