<?xml version='1.0' ?><svg xmlns:dc="http://purl.org/dc/elements/1.1/" xmlns:cc="http://creativecommons.org/ns#" xmlns:rdf="http://www.w3.org/1999/02/22-rdf-syntax-ns#" xmlns:svg="http://www.w3.org/2000/svg" xmlns="http://www.w3.org/2000/svg" id="svg2" version="1.1" width="373.75" height="206.44157" viewBox="0.0 0.6982828546354515 617.9999999999999 341.35355253511705" preserveAspectRatio="none">
  <metadata id="metadata318">
    <rdf:RDF>
      <cc:Work rdf:about="">
        <dc:format>image/svg+xml</dc:format>
        <dc:type rdf:resource="http://purl.org/dc/dcmitype/StillImage" />
      </cc:Work>
    </rdf:RDF>
  </metadata>
  <defs id="defs316" />
  <title id="title4" />
  <g id="g6" stroke-linecap="square" stroke-miterlimit="10.000" stroke-width="1.0000" stroke-dasharray="none" stroke-dashoffset="0.0000" stroke-linejoin="miter">
    <clipPath id="clip1">
      <path id="path9" d="M 0.0000 0.0000 L 0.0000 342.00 L 618.00 342.00 L 618.00 0.0000 z" />
    </clipPath>
    <g id="g11" clip-path="url(#clip1)">
      <g id="g13" stroke="#000000" stroke-opacity="1.0000" fill="none" stroke-linecap="butt">
        <path id="path15" d="M 43.000 2.0000 L 43.000 342.00" />
      </g>
    </g>
    <clipPath id="clip2">
      <path id="path18" d="M 0.0000 0.0000 L 0.0000 342.00 L 618.00 342.00 L 618.00 0.0000 z" />
    </clipPath>
    <g id="g20" clip-path="url(#clip2)">
      <g id="g22" stroke="#000000" stroke-opacity="1.0000" fill="none" stroke-linecap="butt">
        <path id="path24" d="M 43.000 1.0000 L 38.000 6.0000" />
      </g>
    </g>
    <clipPath id="clip3">
      <path id="path27" d="M 0.0000 0.0000 L 0.0000 342.00 L 618.00 342.00 L 618.00 0.0000 z" />
    </clipPath>
    <g id="g29" clip-path="url(#clip3)">
      <g id="g31" stroke="#000000" stroke-opacity="1.0000" fill="none" stroke-linecap="butt">
        <path id="path33" d="M 43.000 1.0000 L 48.000 6.0000" />
      </g>
    </g>
    <clipPath id="clip4">
      <path id="path36" d="M 0.0000 0.0000 L 0.0000 342.00 L 618.00 342.00 L 618.00 0.0000 z" />
    </clipPath>
    <g id="g38" clip-path="url(#clip4)">
      <g id="g40" stroke="#000000" stroke-opacity="1.0000" fill="none" stroke-linecap="butt">
        <path id="path42" d="M 0.0000 186.00 L 616.00 186.00" />
      </g>
    </g>
    <clipPath id="clip5">
      <path id="path45" d="M 0.0000 0.0000 L 0.0000 342.00 L 618.00 342.00 L 618.00 0.0000 z" />
    </clipPath>
    <g id="g47" clip-path="url(#clip5)">
      <g id="g49" stroke="#000000" stroke-opacity="1.0000" fill="none" stroke-linecap="butt">
        <path id="path51" d="M 617.00 186.00 L 612.00 181.00" />
      </g>
    </g>
    <clipPath id="clip6">
      <path id="path54" d="M 0.0000 0.0000 L 0.0000 342.00 L 618.00 342.00 L 618.00 0.0000 z" />
    </clipPath>
    <g id="g56" clip-path="url(#clip6)">
      <g id="g58" stroke="#000000" stroke-opacity="1.0000" fill="none" stroke-linecap="butt">
        <path id="path60" d="M 617.00 186.00 L 612.00 191.00" />
      </g>
    </g>
    <g id="misc" />
    <g id="layer0">
      <clipPath id="clip7">
        <path id="path65" d="M 0.0000 0.0000 L 0.0000 342.00 L 618.00 342.00 L 618.00 0.0000 z" />
      </clipPath>
      <g id="g67" clip-path="url(#clip7)">
        <g id="g69" stroke="#000000" stroke-opacity="1.0000" fill="none" stroke-linecap="round" stroke-width="3.5000" stroke-linejoin="round">
          <path id="path71" d="M 0.0000 247.56 L 4.8281 241.31 L 9.6562 234.83 L 14.484 228.14 L 19.312 221.27 L 24.141 214.26 L 28.969 207.13 L 33.797 199.90 L 38.625 192.62 L 43.453 185.31 L 48.281 178.01 L 53.109 170.74 L 57.938 163.53 L 62.766 156.41 L 67.594 149.42 L 72.422 142.59 L 77.250 135.94 L 82.078 129.50 L 86.906 123.29 L 91.734 117.36 L 96.562 111.71 L 101.39 106.37 L 106.22 101.37 L 111.05 96.723 L 115.88 92.455 L 120.70 88.580 L 125.53 85.116 L 130.36 82.077 L 135.19 79.475 L 140.02 77.323 L 144.84 75.628 L 149.67 74.398 L 154.50 73.638 L 159.33 73.352 L 164.16 73.540 L 168.98 74.202 L 173.81 75.335 L 178.64 76.934 L 183.47 78.992 L 188.30 81.502 L 193.12 84.451 L 197.95 87.829 L 202.78 91.619 L 207.61 95.808 L 212.44 100.38 L 217.27 105.31 L 222.09 110.57 L 226.92 116.16 L 231.75 122.04 L 236.58 128.19 L 241.41 134.59 L 246.23 141.20 L 251.06 148.00 L 255.89 154.96 L 260.72 162.05 L 265.55 169.24 L 270.38 176.50 L 275.20 183.80 L 280.03 191.11 L 284.86 198.40 L 289.69 205.64 L 294.52 212.79 L 299.34 219.83 L 304.17 226.73 L 309.00 233.46 L 313.83 239.99 L 318.66 246.29 L 323.48 252.33 L 328.31 258.10 L 333.14 263.56 L 337.97 268.70 L 342.80 273.49 L 347.62 277.91 L 352.45 281.94 L 357.28 285.57 L 362.11 288.78 L 366.94 291.55 L 371.77 293.88 L 376.59 295.76 L 381.42 297.17 L 386.25 298.12 L 391.08 298.59 L 395.91 298.59 L 400.73 298.12 L 405.56 297.17 L 410.39 295.75 L 415.22 293.87 L 420.05 291.54 L 424.88 288.76 L 429.70 285.55 L 434.53 281.93 L 439.36 277.89 L 444.19 273.47 L 449.02 268.68 L 453.84 263.54 L 458.67 258.08 L 463.50 252.31 L 468.33 246.27 L 473.16 239.97 L 477.98 233.44 L 482.81 226.71 L 487.64 219.81 L 492.47 212.77 L 497.30 205.61 L 502.12 198.38 L 506.95 191.09 L 511.78 183.77 L 516.61 176.47 L 521.44 169.21 L 526.27 162.02 L 531.09 154.93 L 535.92 147.97 L 540.75 141.17 L 545.58 134.56 L 550.41 128.17 L 555.23 122.02 L 560.06 116.14 L 564.89 110.56 L 569.72 105.29 L 574.55 100.36 L 579.38 95.793 L 584.20 91.606 L 589.03 87.816 L 593.86 84.440 L 598.69 81.492 L 603.52 78.985 L 608.34 76.928 L 613.17 75.330 L 618.00 74.199" />
          <title id="title73">Function f</title>
          <desc id="desc75">f(x) = sin(x)</desc>
        </g>
      </g>
      <clipPath id="clip8">
        <path id="path78" d="M 0.0000 0.0000 L 0.0000 342.00 L 618.00 342.00 L 618.00 0.0000 z" />
      </clipPath>
      <g id="g80" clip-path="url(#clip8)">
        <g id="g82" fill="#3333ff" stroke="none" fill-rule="nonzero" fill-opacity="1.0000">
          <path id="path84" d="M 161.00 73.431 C 161.00 75.640 159.21 77.431 157.00 77.431 C 154.79 77.431 153.00 75.640 153.00 73.431 C 153.00 71.222 154.79 69.431 157.00 69.431 C 159.21 69.431 161.00 71.222 161.00 73.431 z" />
          <title id="title86">Point A</title>
          <desc id="desc88">Point A: Point on f</desc>
        </g>
      </g>
      <clipPath id="clip9">
        <path id="path91" d="M 0.0000 0.0000 L 0.0000 342.00 L 618.00 342.00 L 618.00 0.0000 z" />
      </clipPath>
      <g id="g93" clip-path="url(#clip9)">
        <g id="g95" stroke="#000000" stroke-opacity="1.0000" fill="none" stroke-linecap="round" stroke-linejoin="round">
          <path id="path97" d="M 161.00 73.431 C 161.00 75.640 159.21 77.431 157.00 77.431 C 154.79 77.431 153.00 75.640 153.00 73.431 C 153.00 71.222 154.79 69.431 157.00 69.431 C 159.21 69.431 161.00 71.222 161.00 73.431 z" />
          <title id="title99">Point A</title>
          <desc id="desc101">Point A: Point on f</desc>
        </g>
      </g>
      <clipPath id="clip10">
        <path id="path104" d="M 0.0000 0.0000 L 0.0000 342.00 L 618.00 342.00 L 618.00 0.0000 z" />
      </clipPath>
      <g id="g106" clip-path="url(#clip10)">
        <g id="g108" fill="#3333ff" stroke="none" fill-rule="nonzero" fill-opacity="1.0000">
          <path id="path110" d="M 161.19 57.473 L 158.73 51.242 L 156.26 57.473 z M 163.36 63.000 L 161.79 58.996 L 155.66 58.996 L 154.07 63.000 L 152.17 63.000 L 157.90 48.547 L 159.93 48.547 L 165.57 63.000 z" />
          <title id="title112">Point A</title>
          <desc id="desc114">Point A: Point on f</desc>
        </g>
      </g>
      <clipPath id="clip11">
        <path id="path117" d="M 0.0000 0.0000 L 0.0000 342.00 L 618.00 342.00 L 618.00 0.0000 z" />
      </clipPath>
      <g id="g119" clip-path="url(#clip11)">
        <g id="g121" fill="#3333ff" stroke="none" fill-rule="nonzero" fill-opacity="1.0000">
          <path id="path123" d="M 281.00 186.52 C 281.00 188.73 279.21 190.52 277.00 190.52 C 274.79 190.52 273.00 188.73 273.00 186.52 C 273.00 184.31 274.79 182.52 277.00 182.52 C 279.21 182.52 281.00 184.31 281.00 186.52 z" />
          <title id="title125">Point B</title>
          <desc id="desc127">Point B: Point on f</desc>
        </g>
      </g>
      <clipPath id="clip12">
        <path id="path130" d="M 0.0000 0.0000 L 0.0000 342.00 L 618.00 342.00 L 618.00 0.0000 z" />
      </clipPath>
      <g id="g132" clip-path="url(#clip12)">
        <g id="g134" stroke="#000000" stroke-opacity="1.0000" fill="none" stroke-linecap="round" stroke-linejoin="round">
          <path id="path136" d="M 281.00 186.52 C 281.00 188.73 279.21 190.52 277.00 190.52 C 274.79 190.52 273.00 188.73 273.00 186.52 C 273.00 184.31 274.79 182.52 277.00 182.52 C 279.21 182.52 281.00 184.31 281.00 186.52 z" />
          <title id="title138">Point B</title>
          <desc id="desc140">Point B: Point on f</desc>
        </g>
      </g>
      <clipPath id="clip13">
        <path id="path143" d="M 0.0000 0.0000 L 0.0000 342.00 L 618.00 342.00 L 618.00 0.0000 z" />
      </clipPath>
      <g id="g145" clip-path="url(#clip13)">
        <g id="g147" fill="#3333ff" stroke="none" fill-rule="nonzero" fill-opacity="1.0000">
          <path id="path149" d="M 279.87 176.00 L 279.87 161.55 L 283.62 161.55 Q 285.78 161.55 286.94 162.37 Q 288.10 163.19 288.10 164.73 Q 288.10 167.36 285.13 168.47 Q 288.67 169.55 288.67 172.39 Q 288.67 174.14 287.50 175.07 Q 286.33 176.00 284.12 176.00 z M 281.90 174.47 L 282.32 174.47 Q 284.57 174.47 285.24 174.18 Q 286.51 173.65 286.51 172.19 Q 286.51 170.90 285.35 170.05 Q 284.20 169.19 282.47 169.19 L 281.90 169.19 z M 281.90 167.89 L 282.55 167.89 Q 284.19 167.89 285.09 167.19 Q 286.00 166.49 286.00 165.21 Q 286.00 163.08 282.70 163.08 L 281.90 163.08 z" />
          <title id="title151">Point B</title>
          <desc id="desc153">Point B: Point on f</desc>
        </g>
      </g>
      <clipPath id="clip14">
        <path id="path156" d="M 0.0000 0.0000 L 0.0000 342.00 L 618.00 342.00 L 618.00 0.0000 z" />
      </clipPath>
      <g id="g158" clip-path="url(#clip14)">
        <g id="g160" fill="#3333ff" stroke="none" fill-rule="nonzero" fill-opacity="1.0000">
          <path id="path162" d="M 461.00 260.01 C 461.00 262.22 459.21 264.01 457.00 264.01 C 454.79 264.01 453.00 262.22 453.00 260.01 C 453.00 257.80 454.79 256.01 457.00 256.01 C 459.21 256.01 461.00 257.80 461.00 260.01 z" />
          <title id="title164">Point C</title>
          <desc id="desc166">Point C: Point on f</desc>
        </g>
      </g>
      <clipPath id="clip15">
        <path id="path169" d="M 0.0000 0.0000 L 0.0000 342.00 L 618.00 342.00 L 618.00 0.0000 z" />
      </clipPath>
      <g id="g171" clip-path="url(#clip15)">
        <g id="g173" stroke="#000000" stroke-opacity="1.0000" fill="none" stroke-linecap="round" stroke-linejoin="round">
          <path id="path175" d="M 461.00 260.01 C 461.00 262.22 459.21 264.01 457.00 264.01 C 454.79 264.01 453.00 262.22 453.00 260.01 C 453.00 257.80 454.79 256.01 457.00 256.01 C 459.21 256.01 461.00 257.80 461.00 260.01 z" />
          <title id="title177">Point C</title>
          <desc id="desc179">Point C: Point on f</desc>
        </g>
      </g>
      <clipPath id="clip16">
        <path id="path182" d="M 0.0000 0.0000 L 0.0000 342.00 L 618.00 342.00 L 618.00 0.0000 z" />
      </clipPath>
      <g id="g184" clip-path="url(#clip16)">
        <g id="g186" fill="#3333ff" stroke="none" fill-rule="nonzero" fill-opacity="1.0000">
          <path id="path188" d="M 447.06 252.36 Q 443.69 252.36 441.85 250.38 Q 440.02 248.41 440.02 244.78 Q 440.02 241.17 441.89 239.18 Q 443.76 237.19 447.15 237.19 Q 449.10 237.19 451.71 237.82 L 451.71 239.74 Q 448.74 238.72 447.12 238.72 Q 444.77 238.72 443.48 240.31 Q 442.19 241.90 442.19 244.80 Q 442.19 247.57 443.57 249.16 Q 444.95 250.76 447.33 250.76 Q 449.38 250.76 451.72 249.50 L 451.72 251.26 Q 449.59 252.36 447.06 252.36 z" />
          <title id="title190">Point C</title>
          <desc id="desc192">Point C: Point on f</desc>
        </g>
      </g>
      <g id="g194" transform="matrix(23.000, 0.0000, 0.0000, 23.000, 204.00, 78.250)">
        <clipPath id="clip17">
          <path id="path197" d="M -8.8696 -3.4022 L -8.8696 11.467 L 18.000 11.467 L 18.000 -3.4022 z" />
        </clipPath>
        <g id="g199" clip-path="url(#clip17)">
          <g id="g201" fill="#000000" stroke="none" fill-rule="nonzero" fill-opacity="1.0000">
            <path id="path203" d="M .57812 -.37500 L .48438 -0.0000 Q .46875 .093750 .38281 .14844 Q .29688 .20312 .20312 .20312 Q .14062 .20312 .10938 .17969 Q .078125 .15625 .078125 .10938 Q .078125 .078125 .093750 .054688 Q .10938 .031250 .14062 .031250 Q .15625 .031250 .17188 .046875 Q .18750 .062500 .18750 .078125 Q .18750 .12500 .14062 .15625 Q .17188 .17188 .20312 .17188 Q .26562 .17188 .31250 .11719 Q .35938 .062500 .37500 -.015625 Q .32812 .015625 .28125 .015625 Q .25000 .015625 .22656 .0078125 Q .20312 -0.0000 .17969 -.015625 Q .15625 -.031250 .14062 -.054688 Q .12500 -.078125 .12500 -.12500 Q .12500 -.15625 .14062 -.20312 Q .15625 -.25000 .18750 -.32812 Q .20312 -.37500 .20312 -.39062 Q .20312 -.40625 .19531 -.41406 Q .18750 -.42188 .18750 -.42188 Q .18750 -.42188 .18750 -.42188 Q .17188 -.42188 .16406 -.41406 Q .15625 -.40625 .14062 -.39844 Q .12500 -.39062 .10938 -.35938 Q .093750 -.32812 .078125 -.29688 Q .078125 -.28125 .062500 -.28125 Q .031250 -.28125 .031250 -.29688 Q .031250 -.31250 .039062 -.33594 Q .046875 -.35938 .070312 -.38281 Q .093750 -.40625 .12500 -.42969 Q .15625 -.45312 .18750 -.45312 Q .23438 -.45312 .26562 -.42969 Q .29688 -.40625 .29688 -.35938 Q .29688 -.34375 .28125 -.31250 Q .23438 -.15625 .23438 -.093750 Q .23438 -.031250 .28125 -.031250 Q .31250 -.031250 .35938 -.046875 Q .35938 -.046875 .36719 -.054688 Q .37500 -.062500 .38281 -.078125 Q .39062 -.093750 .39062 -.093750 Q .40625 -.12500 .43750 -.26562 L .46875 -.37500 Q .46875 -.39062 .46875 -.39844 Q .46875 -.40625 .47656 -.42188 Q .48438 -.43750 .50000 -.43750 Q .51562 -.43750 .53125 -.43750 Q .56250 -.43750 .57031 -.42969 Q .57812 -.42188 .57812 -.40625 Q .57812 -.39062 .57812 -.37500 z" />
            <title id="title205">y = f(x)</title>
            <desc id="desc207">text1 = &quot;y = f(x)&quot;</desc>
          </g>
        </g>
      </g>
      <g id="g209" transform="matrix(23.000, 0.0000, 0.0000, 23.000, 223.97, 78.250)">
        <clipPath id="clip18">
          <path id="path212" d="M -9.7376 -3.4022 L -9.7376 11.467 L 17.132 11.467 L 17.132 -3.4022 z" />
        </clipPath>
        <g id="g214" clip-path="url(#clip18)">
          <g id="g216" fill="#000000" stroke="none" fill-rule="nonzero" fill-opacity="1.0000">
            <path id="path218" d="M .78125 -.32812 L .10938 -.32812 Q .062500 -.32812 .062500 -.35938 Q .062500 -.39062 .10938 -.39062 L .78125 -.39062 Q .82812 -.39062 .82812 -.35938 Q .82812 -.32812 .78125 -.32812 z M .78125 -.10938 L .10938 -.10938 Q .062500 -.10938 .062500 -.14062 Q .062500 -.17188 .10938 -.17188 L .78125 -.17188 Q .82812 -.17188 .82812 -.14062 Q .82812 -.10938 .78125 -.10938 z" />
            <title id="title220">y = f(x)</title>
            <desc id="desc222">text1 = &quot;y = f(x)&quot;</desc>
          </g>
        </g>
      </g>
      <g id="g224" transform="matrix(23.000, 0.0000, 0.0000, 23.000, 250.93, 78.250)">
        <clipPath id="clip19">
          <path id="path227" d="M -10.910 -3.4022 L -10.910 11.467 L 15.960 11.467 L 15.960 -3.4022 z" />
        </clipPath>
        <g id="g229" clip-path="url(#clip19)">
          <g id="g231" fill="#000000" stroke="none" fill-rule="nonzero" fill-opacity="1.0000">
            <path id="path233" d="M .42188 -.39062 L .37500 -.093750 Q .34375 .046875 .31250 .10938 Q .29688 .12500 .28125 .14062 Q .26562 .15625 .23438 .17969 Q .20312 .20312 .17188 .20312 Q .12500 .20312 .093750 .17969 Q .062500 .15625 .062500 .12500 Q .062500 .093750 .085938 .070312 Q .10938 .046875 .14062 .046875 Q .15625 .046875 .17188 .062500 Q .18750 .078125 .18750 .093750 Q .18750 .10938 .17188 .13281 Q .15625 .15625 .14062 .15625 Q .15625 .17188 .17188 .17188 Q .20312 .17188 .21875 .10938 Q .21875 .10938 .22656 .093750 Q .23438 .078125 .23438 .054688 Q .23438 .031250 .23438 .031250 L .31250 -.39062 L .21875 -.39062 Q .18750 -.39062 .18750 -.42188 Q .18750 -.42188 .19531 -.42969 Q .20312 -.43750 .21094 -.43750 Q .21875 -.43750 .23438 -.43750 L .32812 -.43750 Q .34375 -.51562 .34375 -.53906 Q .34375 -.56250 .35156 -.58594 Q .35938 -.60938 .37500 -.62500 Q .42188 -.70312 .51562 -.70312 Q .56250 -.70312 .59375 -.67969 Q .62500 -.65625 .62500 -.62500 Q .62500 -.59375 .60156 -.57031 Q .57812 -.54688 .54688 -.54688 Q .53125 -.54688 .51562 -.56250 Q .50000 -.57812 .50000 -.59375 Q .50000 -.60938 .51562 -.63281 Q .53125 -.65625 .54688 -.65625 Q .53125 -.67188 .51562 -.67188 Q .50000 -.67188 .48438 -.65625 Q .46875 -.64062 .46875 -.62500 L .43750 -.43750 L .54688 -.43750 Q .57812 -.43750 .57812 -.42188 Q .57812 -.40625 .57812 -.40625 Q .57812 -.40625 .57031 -.39844 Q .56250 -.39062 .54688 -.39062 L .42188 -.39062 z" />
            <title id="title235">y = f(x)</title>
            <desc id="desc237">text1 = &quot;y = f(x)&quot;</desc>
          </g>
        </g>
      </g>
      <g id="g239" transform="matrix(23.000, 0.0000, 0.0000, 23.000, 263.99, 78.250)">
        <clipPath id="clip20">
          <path id="path242" d="M -11.478 -3.4022 L -11.478 11.467 L 15.392 11.467 L 15.392 -3.4022 z" />
        </clipPath>
        <g id="g244" clip-path="url(#clip20)">
          <g id="g246" fill="#000000" stroke="none" fill-rule="nonzero" fill-opacity="1.0000">
            <path id="path248" d="M .37500 .21875 L .37500 .23438 Q .37500 .23438 .37500 .23438 Q .37500 .25000 .35938 .25000 Q .34375 .25000 .28906 .19531 Q .23438 .14062 .18750 .062500 Q .10938 -.078125 .10938 -.25000 Q .10938 -.51562 .28125 -.70312 Q .34375 -.75000 .35938 -.75000 Q .37500 -.75000 .37500 -.73438 Q .37500 -.73438 .35938 -.71875 Q .20312 -.54688 .20312 -.25000 Q .20312 -.10938 .25000 .015625 Q .28125 .14062 .37500 .21875 z" />
            <title id="title250">y = f(x)</title>
            <desc id="desc252">text1 = &quot;y = f(x)&quot;</desc>
          </g>
        </g>
      </g>
      <g id="g254" transform="matrix(23.000, 0.0000, 0.0000, 23.000, 274.28, 78.250)">
        <clipPath id="clip21">
          <path id="path257" d="M -11.925 -3.4022 L -11.925 11.467 L 14.944 11.467 L 14.944 -3.4022 z" />
        </clipPath>
        <g id="g259" clip-path="url(#clip21)">
          <g id="g261" fill="#000000" stroke="none" fill-rule="nonzero" fill-opacity="1.0000">
            <path id="path263" d="M .53125 -.40625 Q .51562 -.42188 .48438 -.42188 Q .46875 -.42188 .43750 -.39844 Q .40625 -.37500 .40625 -.32812 Q .40625 -.31250 .39062 -.25781 Q .37500 -.20312 .37500 -.18750 Q .34375 -.093750 .34375 -.078125 Q .34375 -.031250 .40625 -.031250 Q .43750 -.031250 .48438 -.062500 Q .53125 -.093750 .54688 -.15625 Q .54688 -.15625 .56250 -.15625 Q .59375 -.15625 .59375 -.14844 Q .59375 -.14062 .57812 -.10938 Q .56250 -.078125 .53906 -.054688 Q .51562 -.031250 .47656 -.0078125 Q .43750 .015625 .39062 .015625 Q .29688 .015625 .26562 -.046875 Q .21875 .015625 .15625 .015625 Q .10938 .015625 .070312 -.015625 Q .031250 -.046875 .031250 -.078125 Q .031250 -.10938 .054688 -.13281 Q .078125 -.15625 .10938 -.15625 Q .14062 -.15625 .14844 -.14062 Q .15625 -.12500 .15625 -.10938 Q .15625 -.093750 .14062 -.070312 Q .12500 -.046875 .10938 -.046875 Q .12500 -.031250 .15625 -.031250 Q .18750 -.031250 .21094 -.054688 Q .23438 -.078125 .23438 -.12500 L .26562 -.25000 Q .29688 -.34375 .29688 -.35938 Q .29688 -.42188 .23438 -.42188 Q .20312 -.42188 .16406 -.39062 Q .12500 -.35938 .093750 -.29688 Q .093750 -.28125 .078125 -.28125 Q .046875 -.28125 .046875 -.29688 Q .046875 -.31250 .062500 -.33594 Q .078125 -.35938 .10156 -.38281 Q .12500 -.40625 .16406 -.42969 Q .20312 -.45312 .25000 -.45312 Q .34375 -.45312 .39062 -.39062 Q .42188 -.45312 .48438 -.45312 Q .53125 -.45312 .57031 -.42969 Q .60938 -.40625 .60938 -.35938 Q .60938 -.32812 .58594 -.30469 Q .56250 -.28125 .53125 -.28125 Q .51562 -.28125 .50000 -.29688 Q .48438 -.31250 .48438 -.32812 Q .48438 -.35938 .50000 -.37500 Q .51562 -.39062 .53125 -.40625 z" />
            <title id="title265">y = f(x)</title>
            <desc id="desc267">text1 = &quot;y = f(x)&quot;</desc>
          </g>
        </g>
      </g>
      <g id="g269" transform="matrix(23.000, 0.0000, 0.0000, 23.000, 289.44, 78.250)">
        <clipPath id="clip22">
          <path id="path272" d="M -12.584 -3.4022 L -12.584 11.467 L 14.285 11.467 L 14.285 -3.4022 z" />
        </clipPath>
        <g id="g274" clip-path="url(#clip22)">
          <g id="g276" fill="#000000" stroke="none" fill-rule="nonzero" fill-opacity="1.0000">
            <path id="path278" d="M .34375 -.25000 Q .34375 .015625 .15625 .18750 Q .10938 .25000 .078125 .25000 Q .062500 .25000 .062500 .23438 Q .062500 .23438 .078125 .21875 Q .23438 .046875 .23438 -.25000 Q .23438 -.54688 .078125 -.71875 Q .062500 -.73438 .062500 -.73438 Q .062500 -.75000 .078125 -.75000 Q .093750 -.75000 .15625 -.69531 Q .21875 -.64062 .26562 -.56250 Q .34375 -.42188 .34375 -.25000 z" />
            <title id="title280">y = f(x)</title>
            <desc id="desc282">text1 = &quot;y = f(x)&quot;</desc>
          </g>
        </g>
      </g>
      <g id="g284" transform="matrix(23.000, 0.0000, 0.0000, 23.000, 20.000, 24.222)">
        <clipPath id="clip23">
          <path id="path287" d="M -.86957 -1.0531 L -.86957 13.816 L 26.000 13.816 L 26.000 -1.0531 z" />
        </clipPath>
        <g id="g289" clip-path="url(#clip23)">
          <g id="g291" fill="#000000" stroke="none" fill-rule="nonzero" fill-opacity="1.0000">
            <path id="path293" d="M .57812 -.37500 L .48438 -0.0000 Q .46875 .093750 .38281 .14844 Q .29688 .20312 .20312 .20312 Q .14062 .20312 .10938 .17969 Q .078125 .15625 .078125 .10938 Q .078125 .078125 .093750 .054688 Q .10938 .031250 .14062 .031250 Q .15625 .031250 .17188 .046875 Q .18750 .062500 .18750 .078125 Q .18750 .12500 .14062 .15625 Q .17188 .17188 .20312 .17188 Q .26562 .17188 .31250 .11719 Q .35938 .062500 .37500 -.015625 Q .32812 .015625 .28125 .015625 Q .25000 .015625 .22656 .0078125 Q .20312 -0.0000 .17969 -.015625 Q .15625 -.031250 .14062 -.054688 Q .12500 -.078125 .12500 -.12500 Q .12500 -.15625 .14062 -.20312 Q .15625 -.25000 .18750 -.32812 Q .20312 -.37500 .20312 -.39062 Q .20312 -.40625 .19531 -.41406 Q .18750 -.42188 .18750 -.42188 Q .18750 -.42188 .18750 -.42188 Q .17188 -.42188 .16406 -.41406 Q .15625 -.40625 .14062 -.39844 Q .12500 -.39062 .10938 -.35938 Q .093750 -.32812 .078125 -.29688 Q .078125 -.28125 .062500 -.28125 Q .031250 -.28125 .031250 -.29688 Q .031250 -.31250 .039062 -.33594 Q .046875 -.35938 .070312 -.38281 Q .093750 -.40625 .12500 -.42969 Q .15625 -.45312 .18750 -.45312 Q .23438 -.45312 .26562 -.42969 Q .29688 -.40625 .29688 -.35938 Q .29688 -.34375 .28125 -.31250 Q .23438 -.15625 .23438 -.093750 Q .23438 -.031250 .28125 -.031250 Q .31250 -.031250 .35938 -.046875 Q .35938 -.046875 .36719 -.054688 Q .37500 -.062500 .38281 -.078125 Q .39062 -.093750 .39062 -.093750 Q .40625 -.12500 .43750 -.26562 L .46875 -.37500 Q .46875 -.39062 .46875 -.39844 Q .46875 -.40625 .47656 -.42188 Q .48438 -.43750 .50000 -.43750 Q .51562 -.43750 .53125 -.43750 Q .56250 -.43750 .57031 -.42969 Q .57812 -.42188 .57812 -.40625 Q .57812 -.39062 .57812 -.37500 z" />
            <title id="title295">y</title>
            <desc id="desc297">text2 = &quot;y&quot;</desc>
          </g>
        </g>
      </g>
      <g id="g299" transform="matrix(23.000, 0.0000, 0.0000, 23.000, 590.00, 182.22)">
        <clipPath id="clip24">
          <path id="path302" d="M -25.652 -7.9227 L -25.652 6.9469 L 1.2174 6.9469 L 1.2174 -7.9227 z" />
        </clipPath>
        <g id="g304" clip-path="url(#clip24)">
          <g id="g306" fill="#000000" stroke="none" fill-rule="nonzero" fill-opacity="1.0000">
            <path id="path308" d="M .53125 -.40625 Q .51562 -.42188 .48438 -.42188 Q .46875 -.42188 .43750 -.39844 Q .40625 -.37500 .40625 -.32812 Q .40625 -.31250 .39062 -.25781 Q .37500 -.20312 .37500 -.18750 Q .34375 -.093750 .34375 -.078125 Q .34375 -.031250 .40625 -.031250 Q .43750 -.031250 .48438 -.062500 Q .53125 -.093750 .54688 -.15625 Q .54688 -.15625 .56250 -.15625 Q .59375 -.15625 .59375 -.14844 Q .59375 -.14062 .57812 -.10938 Q .56250 -.078125 .53906 -.054688 Q .51562 -.031250 .47656 -.0078125 Q .43750 .015625 .39062 .015625 Q .29688 .015625 .26562 -.046875 Q .21875 .015625 .15625 .015625 Q .10938 .015625 .070312 -.015625 Q .031250 -.046875 .031250 -.078125 Q .031250 -.10938 .054688 -.13281 Q .078125 -.15625 .10938 -.15625 Q .14062 -.15625 .14844 -.14062 Q .15625 -.12500 .15625 -.10938 Q .15625 -.093750 .14062 -.070312 Q .12500 -.046875 .10938 -.046875 Q .12500 -.031250 .15625 -.031250 Q .18750 -.031250 .21094 -.054688 Q .23438 -.078125 .23438 -.12500 L .26562 -.25000 Q .29688 -.34375 .29688 -.35938 Q .29688 -.42188 .23438 -.42188 Q .20312 -.42188 .16406 -.39062 Q .12500 -.35938 .093750 -.29688 Q .093750 -.28125 .078125 -.28125 Q .046875 -.28125 .046875 -.29688 Q .046875 -.31250 .062500 -.33594 Q .078125 -.35938 .10156 -.38281 Q .12500 -.40625 .16406 -.42969 Q .20312 -.45312 .25000 -.45312 Q .34375 -.45312 .39062 -.39062 Q .42188 -.45312 .48438 -.45312 Q .53125 -.45312 .57031 -.42969 Q .60938 -.40625 .60938 -.35938 Q .60938 -.32812 .58594 -.30469 Q .56250 -.28125 .53125 -.28125 Q .51562 -.28125 .50000 -.29688 Q .48438 -.31250 .48438 -.32812 Q .48438 -.35938 .50000 -.37500 Q .51562 -.39062 .53125 -.40625 z" />
            <title id="title310">x</title>
            <desc id="desc312">text3 = &quot;x&quot;</desc>
          </g>
        </g>
      </g>
    </g>
  </g>
</svg>