<?xml version='1.0' ?><svg xmlns:ns0="http://www.iki.fi/pav/software/textext/" xmlns:dc="http://purl.org/dc/elements/1.1/" xmlns:cc="http://creativecommons.org/ns#" xmlns:rdf="http://www.w3.org/1999/02/22-rdf-syntax-ns#" xmlns:svg="http://www.w3.org/2000/svg" xmlns="http://www.w3.org/2000/svg" id="svg2" version="1.1" width="308.0" height="207.28517" viewBox="134.55484490673823 151.029058340107 433.6640250962962 291.8575362499027" preserveAspectRatio="none">
  <metadata id="metadata117">
    <rdf:RDF>
      <cc:Work rdf:about="">
        <dc:format>image/svg+xml</dc:format>
        <dc:type rdf:resource="http://purl.org/dc/dcmitype/StillImage" />
        <dc:title />
      </cc:Work>
    </rdf:RDF>
  </metadata>
  <defs id="defs115" />
  <g transform="matrix(0.8244563,0,0,0.8244563,23.620255,77.466558)" id="g4980">
    <g transform="translate(134.55484,87.295032)" style="stroke-width:1;stroke-linecap:square;stroke-linejoin:miter;stroke-miterlimit:10;stroke-dasharray:none;stroke-dashoffset:0" id="g6" stroke-miterlimit="10.000">
      <clipPath id="clip1">
        <path id="path9" d="m 0,0 0,354 528,0 0,-354 z" />
      </clipPath>
      <g id="g11" clip-path="url(#clip1)">
        <g style="fill:none;stroke:#000000;stroke-width:2;stroke-linecap:butt;stroke-opacity:1" id="g13">
          <path id="path15" d="m 189.15,3 0,351" />
        </g>
      </g>
      <clipPath id="clip2">
        <path id="path18" d="m 0,0 0,354 528,0 0,-354 z" />
      </clipPath>
      <g id="g20" clip-path="url(#clip2)">
        <g style="fill:#000000;fill-opacity:1;fill-rule:evenodd;stroke:none" id="g22">
          <path id="path24" d="m 189.15,2 -4,16 8,0" />
        </g>
      </g>
      <clipPath id="clip3">
        <path id="path27" d="m 0,0 0,354 528,0 0,-354 z" />
      </clipPath>
      <g id="g29" clip-path="url(#clip3)">
        <g style="fill:none;stroke:#000000;stroke-width:2;stroke-linecap:butt;stroke-opacity:1" id="g31">
          <path id="path33" d="m 0,288.44 525,0" />
        </g>
      </g>
      <clipPath id="clip4">
        <path id="path36" d="m 0,0 0,354 528,0 0,-354 z" />
      </clipPath>
      <g id="g38" clip-path="url(#clip4)">
        <g style="fill:#000000;fill-opacity:1;fill-rule:evenodd;stroke:none" id="g40">
          <path id="path42" d="m 526,288.44 -16,-4 0,8" />
        </g>
      </g>
      <g id="misc" />
      <g id="layer0">
        <clipPath id="clip5">
          <path id="path47" d="m 0,0 0,354 528,0 0,-354 z" />
        </clipPath>
        <g id="g49" clip-path="url(#clip5)">
          <g style="fill:#993300;fill-opacity:0.09803898;fill-rule:evenodd;stroke:none" id="g51">
            <path id="path53" d="m 72.6,288.44 2.732,-7.11 2.732,-6.78 2.732,-6.45 2.731,-6.13 2.732,-5.81 2.732,-5.5 2.732,-5.19 2.731,-4.89 2.732,-4.6 2.732,-4.31 2.732,-4.03 2.73,-3.76 2.73,-3.48 2.73,-3.22 2.74,-2.97 2.73,-2.71 2.73,-2.47 2.73,-2.23 2.73,-1.99 2.74,-1.77 2.73,-1.55 2.73,-1.33 2.73,-1.12 2.73,-0.92 2.73,-0.72 2.74,-0.53 2.73,-0.34 2.73,-0.16 2.73,0.01 2.73,0.17 2.73,0.34 2.74,0.49 2.73,0.65 2.73,0.78 2.73,0.93 2.73,1.05 2.73,1.18 2.74,1.3 2.73,1.42 2.73,1.52 2.73,1.62 2.73,1.71 2.73,1.81 2.74,1.89 2.73,1.97 2.73,2.04 2.73,2.1 2.73,2.16 2.74,2.22 2.73,2.27 2.73,2.3 2.73,2.34 2.73,2.37 2.73,2.4 2.74,2.41 2.73,2.42 2.73,2.43 2.73,2.42 2.73,2.42 2.73,2.41 2.74,2.39 2.73,2.36 2.73,2.34 2.73,2.29 2.73,2.26 2.73,2.2 2.74,2.15 2.73,2.09 2.73,2.03 2.73,1.95 2.73,1.87 2.74,1.79 2.73,1.69 2.73,1.6 2.73,1.5 2.73,1.39 2.73,1.27 2.74,1.16 2.73,1.02 2.73,0.9 2.73,0.75 2.73,0.61 2.73,0.46 2.74,0.3 2.73,0.14 2.73,-0.03 2.73,-0.2 2.73,-0.38 2.73,-0.57 2.74,-0.77 2.73,-0.96 2.73,-1.17 2.73,-1.38 2.73,-1.59 2.74,-1.82 2.73,-2.04 2.73,-2.29 2.73,-2.52 2.73,-2.77 2.73,-3.02 2.74,-3.28 2.73,-3.54 2.73,-3.82 2.73,-4.09 2.73,-4.38 2.73,-4.66 2.74,-4.96 2.73,-5.26 2.73,-5.56 2.73,-5.88 2.73,-6.2 2.73,-6.52 2.74,-6.86 2.73,-7.19 2.73,-7.53 2.73,-7.88 2.73,-8.24 2.74,-8.6 2.73,-8.96 2.73,-9.34 2.73,-9.71 1.37,-5.01 1.36,-5.09 1.37,-5.2 1.36,-5.3 1.37,-5.39 1.37,-5.49 1.36,-5.599 1.37,-5.696 1.36,-5.799 1.37,-5.901 1.36,-6.005 1.37,-6.11 1.37,-6.215 1.36,-6.321 0,233.106 -349.66,0" />
            <title id="title55">Number a</title>
            <desc id="desc57">Number a: Integral of c from -1 to 2</desc>
          </g>
        </g>
        <clipPath id="clip6">
          <path id="path60" d="m 0,0 0,354 528,0 0,-354 z" />
        </clipPath>
        <g id="g62" clip-path="url(#clip6)">
          <g style="fill:none;stroke:#993300;stroke-linecap:round;stroke-linejoin:round;stroke-opacity:1" id="g64">
            <path id="path66" d="m 72.6,288.44 2.732,-7.11 2.732,-6.78 2.732,-6.45 2.731,-6.13 2.732,-5.81 2.732,-5.5 2.732,-5.19 2.731,-4.89 2.732,-4.6 2.732,-4.31 2.732,-4.03 2.73,-3.76 2.73,-3.48 2.73,-3.22 2.74,-2.97 2.73,-2.71 2.73,-2.47 2.73,-2.23 2.73,-1.99 2.74,-1.77 2.73,-1.55 2.73,-1.33 2.73,-1.12 2.73,-0.92 2.73,-0.72 2.74,-0.53 2.73,-0.34 2.73,-0.16 2.73,0.01 2.73,0.17 2.73,0.34 2.74,0.49 2.73,0.65 2.73,0.78 2.73,0.93 2.73,1.05 2.73,1.18 2.74,1.3 2.73,1.42 2.73,1.52 2.73,1.62 2.73,1.71 2.73,1.81 2.74,1.89 2.73,1.97 2.73,2.04 2.73,2.1 2.73,2.16 2.74,2.22 2.73,2.27 2.73,2.3 2.73,2.34 2.73,2.37 2.73,2.4 2.74,2.41 2.73,2.42 2.73,2.43 2.73,2.42 2.73,2.42 2.73,2.41 2.74,2.39 2.73,2.36 2.73,2.34 2.73,2.29 2.73,2.26 2.73,2.2 2.74,2.15 2.73,2.09 2.73,2.03 2.73,1.95 2.73,1.87 2.74,1.79 2.73,1.69 2.73,1.6 2.73,1.5 2.73,1.39 2.73,1.27 2.74,1.16 2.73,1.02 2.73,0.9 2.73,0.75 2.73,0.61 2.73,0.46 2.74,0.3 2.73,0.14 2.73,-0.03 2.73,-0.2 2.73,-0.38 2.73,-0.57 2.74,-0.77 2.73,-0.96 2.73,-1.17 2.73,-1.38 2.73,-1.59 2.74,-1.82 2.73,-2.04 2.73,-2.29 2.73,-2.52 2.73,-2.77 2.73,-3.02 2.74,-3.28 2.73,-3.54 2.73,-3.82 2.73,-4.09 2.73,-4.38 2.73,-4.66 2.74,-4.96 2.73,-5.26 2.73,-5.56 2.73,-5.88 2.73,-6.2 2.73,-6.52 2.74,-6.86 2.73,-7.19 2.73,-7.53 2.73,-7.88 2.73,-8.24 2.74,-8.6 2.73,-8.96 2.73,-9.34 2.73,-9.71 1.37,-5.01 1.36,-5.09 1.37,-5.2 1.36,-5.3 1.37,-5.39 1.37,-5.49 1.36,-5.599 1.37,-5.696 1.36,-5.799 1.37,-5.901 1.36,-6.005 1.37,-6.11 1.37,-6.215 1.36,-6.321 0,233.106 -349.66,0" />
            <title id="title68">Number a</title>
            <desc id="desc70">Number a: Integral of c from -1 to 2</desc>
          </g>
        </g>
        <clipPath id="clip7">
          <path id="path73" d="m 0,0 0,354 528,0 0,-354 z" />
        </clipPath>
        <g id="g75" clip-path="url(#clip7)">
          <g style="fill:none;stroke:#6600cc;stroke-width:2.5;stroke-linecap:round;stroke-linejoin:round;stroke-opacity:1" id="g77">
            <path id="path79" d="m 49.5,362.86 2.062,-7.73 2.063,-7.51 2.063,-7.29 2.062,-7.08 2.062,-6.86 2.063,-6.65 2.063,-6.45 2.062,-6.24 2.062,-6.03 2.063,-5.84 2.063,-5.63 2.062,-5.44 2.062,-5.25 2.063,-5.06 4.125,-9.56 4.125,-8.83 4.125,-8.12 4.125,-7.44 4.125,-6.76 4.12,-6.12 4.13,-5.5 4.13,-4.89 4.12,-4.3 4.12,-3.75 4.13,-3.2 4.13,-2.67 4.12,-2.18 4.12,-1.69 4.13,-1.23 4.13,-0.8 4.12,-0.37 4.12,0.02 4.13,0.4 4.13,0.76 4.12,1.1 4.12,1.41 4.13,1.7 4.13,1.98 4.12,2.23 4.12,2.47 4.13,2.68 4.13,2.87 4.12,3.04 4.12,3.19 4.13,3.32 4.13,3.43 4.12,3.52 4.12,3.59 4.13,3.63 4.13,3.66 4.12,3.67 4.12,3.65 4.13,3.61 4.13,3.56 4.12,3.48 4.12,3.38 4.13,3.27 4.13,3.13 4.12,2.96 4.12,2.79 4.13,2.58 4.13,2.37 4.12,2.12 4.12,1.86 4.13,1.57 4.13,1.27 4.12,0.95 4.12,0.6 4.13,0.23 4.13,-0.15 4.12,-0.57 4.12,-0.99 4.13,-1.43 4.13,-1.91 4.12,-2.4 4.12,-2.91 4.13,-3.44 4.13,-4 4.12,-4.56 4.12,-5.16 4.13,-5.78 4.13,-6.41 4.12,-7.06 4.12,-7.75 4.13,-8.44 4.13,-9.15 4.12,-9.9 2.06,-5.23 2.06,-5.42 2.07,-5.62 2.06,-5.82 2.06,-6.01 2.07,-6.22 2.06,-6.42 2.06,-6.63 2.06,-6.85 2.06,-7.05 2.07,-7.27 2.06,-7.49 2.06,-7.71 2.07,-7.93 2.06,-8.16 2.06,-8.388 2.06,-8.618 2.06,-8.852 2.07,-9.088 2.06,-9.327 2.06,-9.569 2.07,-9.812 1.03,-4.999 1.03,-5.06 1.03,-5.123 1.03,-5.185 1.03,-5.249 1.03,-5.311 1.03,-5.3756 1.03,-5.4391 1.04,-5.5033 1.03,-5.5679" />
            <title id="title81">Function c</title>
            <desc id="desc83">c(x) = (x + 1) (x - 1)Ã&#131;Â&#130;Ã&#130;Â²</desc>
          </g>
        </g>
        <clipPath id="clip8">
          <path id="path86" d="m 0,0 0,354 528,0 0,-354 z" />
        </clipPath>
        <g id="g88" clip-path="url(#clip8)">
          <g style="fill:none;stroke:#000000;stroke-width:2;stroke-linecap:butt;stroke-linejoin:round;stroke-dasharray:10, 8;stroke-opacity:1" id="g90">
            <path id="path92" d="m 422.26,359 0,-364" />
            <title id="title94">Line f</title>
            <desc id="desc96">f: x = 2</desc>
          </g>
        </g>
        <clipPath id="clip9">
          <path id="path99" d="m 0,0 0,354 528,0 0,-354 z" />
        </clipPath>
        <g id="g101" clip-path="url(#clip9)">
          <g style="fill:none;stroke:#000000;stroke-width:2;stroke-linecap:butt;stroke-linejoin:round;stroke-dasharray:10, 8;stroke-opacity:1" id="g103">
            <path id="path105" d="m 72.6,359 0,-364" />
            <title id="title107">Line g</title>
            <desc id="desc109">g: x = -1</desc>
          </g>
        </g>
      </g>
      <defs id="defs111" />
    </g>
    <g ns0:preamble="/Users/prmb/CMEP/underground-inkscape-preamble.tex" ns0:text="$x$" word-spacing="normal" letter-spacing="normal" font-size-adjust="none" font-stretch="normal" font-weight="normal" font-variant="normal" font-style="normal" stroke-miterlimit="10.433" xml:space="preserve" transform="matrix(2,0,0,-2,187.6129,1353.5226)" id="content" style="font-style:normal;font-variant:normal;font-weight:normal;font-stretch:normal;letter-spacing:normal;word-spacing:normal;text-anchor:start;fill:none;fill-opacity:1;fill-rule:evenodd;stroke:#000000;stroke-linecap:butt;stroke-linejoin:miter;stroke-miterlimit:10.43299961;stroke-dasharray:none;stroke-dashoffset:0;stroke-opacity:1"><path id="path4309" d="m 227.03,480.64 -0.23,0.64 c -0.15,0.39 -0.37,0.88 -0.89,1.16 l -1.56,-0.39 0.04,-0.21 c 0.12,0.05 0.29,0.07 0.45,0.07 0.65,0 0.95,-0.48 1.15,-1.05 l 0.39,-1.09 -0.76,-1.19 c -0.38,-0.58 -0.69,-0.7 -0.83,-0.7 -0.3,0 -0.25,0.24 -0.55,0.24 -0.3,0 -0.45,-0.25 -0.45,-0.44 0,-0.26 0.19,-0.55 0.61,-0.55 0.66,0 1,0.51 1.38,1.08 l 0.74,1.16 0.48,-1.33 c 0.15,-0.43 0.38,-0.91 0.86,-0.91 0.68,0 1.21,1.13 1.36,1.31 l -0.17,0.12 c -0.25,-0.51 -0.53,-0.68 -0.72,-0.68 -0.53,0 -0.8,1.6 -1.15,2.33 l 0.64,1 c 0.17,0.26 0.3,0.45 0.65,0.45 0.2,0 0.26,-0.1 0.52,-0.1 0.31,0 0.46,0.27 0.46,0.49 0,0.25 -0.2,0.39 -0.57,0.39 -0.6,0 -1.01,-0.52 -1.32,-0.99 z" style="fill:#000000;stroke-width:0" /></g>    <g id="g4439" transform="matrix(2,0,0,-2,-151.32903,1062.271)" xml:space="preserve" stroke-miterlimit="10.433" font-style="normal" font-variant="normal" font-weight="normal" font-stretch="normal" font-size-adjust="none" letter-spacing="normal" word-spacing="normal" ns0:text="$y$" ns0:preamble="/Users/prmb/CMEP/underground-inkscape-preamble.tex" style="font-style:normal;font-variant:normal;font-weight:normal;font-stretch:normal;letter-spacing:normal;word-spacing:normal;text-anchor:start;fill:none;fill-opacity:1;fill-rule:evenodd;stroke:#000000;stroke-linecap:butt;stroke-linejoin:miter;stroke-miterlimit:10.43299961;stroke-dasharray:none;stroke-dashoffset:0;stroke-opacity:1"><path d="m 226.62,480.86 -0.01,0.08 -0.01,0.08 -0.01,0.07 -0.01,0.07 -0.01,0.07 -0.01,0.07 -0.01,0.06 -0.01,0.06 -0.01,0.06 -0.01,0.05 -0.01,0.06 -0.01,0.05 -0.01,0.05 -0.01,0.04 -0.02,0.05 -0.01,0.05 -0.01,0.04 -0.02,0.04 -0.01,0.04 -0.01,0.04 -0.04,0.08 -0.03,0.07 -0.04,0.08 -0.04,0.07 -0.04,0.07 -0.05,0.07 -1.77,-0.3 0.02,-0.18 c 0.11,0.01 0.3,0.04 0.43,0.04 0.66,0 0.76,-0.71 0.82,-1.24 l 0.45,-3.7 c -0.31,-0.48 -0.98,-1.21 -1.18,-1.21 -0.19,0 -0.16,0.37 -0.67,0.37 -0.16,0 -0.47,-0.13 -0.47,-0.49 0,-0.28 0.22,-0.64 0.66,-0.64 0.8,0 1.57,1.15 2.43,2.24 0.5,0.62 2.41,3.46 2.41,4.38 0,0.46 -0.3,0.73 -0.67,0.73 -0.35,0 -0.56,-0.21 -0.56,-0.47 0,-0.45 0.61,-0.57 0.61,-0.82 0,-0.21 -0.09,-0.45 -0.33,-0.88 -0.26,-0.49 -0.67,-1.19 -1.39,-2.18 z" id="path4441" style="fill:#000000;stroke-width:0" /></g>    <g ns0:preamble="/Users/prmb/CMEP/underground-inkscape-preamble.tex" ns0:text="$-1$" word-spacing="normal" letter-spacing="normal" font-size-adjust="none" font-stretch="normal" font-weight="normal" font-variant="normal" font-style="normal" stroke-miterlimit="10.433" xml:space="preserve" transform="matrix(2,0,0,-2,-284.18065,1353.5226)" id="g4575" style="font-style:normal;font-variant:normal;font-weight:normal;font-stretch:normal;letter-spacing:normal;word-spacing:normal;text-anchor:start;fill:none;fill-opacity:1;fill-rule:evenodd;stroke:#000000;stroke-linecap:butt;stroke-linejoin:miter;stroke-miterlimit:10.43299961;stroke-dasharray:none;stroke-dashoffset:0;stroke-opacity:1"><polygon id="polygon4577" points="224.19,480.61 224.19,479.83 230.76,479.83 230.76,480.61 " style="fill:#000000;stroke-width:0" /><path id="path4579" d="m 236.2,477.23 0,0.18 c -0.89,0 -1.12,0.21 -1.12,0.72 l 0,7.05 -0.11,0.04 -2.11,-1.08 0,-0.16 0.32,0.11 c 0.21,0.09 0.41,0.15 0.53,0.15 0.25,0 0.35,-0.18 0.35,-0.58 l 0,-5.3 c 0,-0.65 -0.24,-0.9 -1.12,-0.95 l 0,-0.18 z" style="fill:#000000;stroke-width:0" /></g>    <g id="g4719" transform="matrix(2,0,0,-2,83.716129,1353.5226)" xml:space="preserve" stroke-miterlimit="10.433" font-style="normal" font-variant="normal" font-weight="normal" font-stretch="normal" font-size-adjust="none" letter-spacing="normal" word-spacing="normal" ns0:text="$2$" ns0:preamble="/Users/prmb/CMEP/underground-inkscape-preamble.tex" style="font-style:normal;font-variant:normal;font-weight:normal;font-stretch:normal;letter-spacing:normal;word-spacing:normal;text-anchor:start;fill:none;fill-opacity:1;fill-rule:evenodd;stroke:#000000;stroke-linecap:butt;stroke-linejoin:miter;stroke-miterlimit:10.43299961;stroke-dasharray:none;stroke-dashoffset:0;stroke-opacity:1"><path d="m 229.03,478.85 -0.17,0.07 c -0.39,-0.66 -0.63,-0.79 -1.13,-0.79 l -2.76,0 1.94,2.08 c 1.06,1.11 1.52,1.99 1.52,2.93 0,1.17 -0.85,2.08 -2.19,2.08 -1.45,0 -2.21,-0.97 -2.45,-2.35 l 0.24,-0.06 c 0.48,1.15 0.89,1.53 1.74,1.53 1,0 1.64,-0.59 1.64,-1.66 0,-1.01 -0.42,-1.9 -1.53,-3.07 l -2.11,-2.23 0,-0.15 4.62,0 z" id="path4721" style="fill:#000000;stroke-width:0" /></g>    <g ns0:preamble="/Users/prmb/CMEP/underground-inkscape-preamble.tex" ns0:text="$y=(x+1)(x-1)^2$" word-spacing="normal" letter-spacing="normal" font-size-adjust="none" font-stretch="normal" font-weight="normal" font-variant="normal" font-style="normal" stroke-miterlimit="10.433" xml:space="preserve" transform="matrix(2,0,0,-2,-90.012903,1147.4323)" id="g4865" style="font-style:normal;font-variant:normal;font-weight:normal;font-stretch:normal;letter-spacing:normal;word-spacing:normal;text-anchor:start;fill:none;fill-opacity:1;fill-rule:evenodd;stroke:#000000;stroke-linecap:butt;stroke-linejoin:miter;stroke-miterlimit:10.43299961;stroke-dasharray:none;stroke-dashoffset:0;stroke-opacity:1"><path id="path4867" d="m 226.62,480.83 -0.01,0.08 -0.01,0.08 -0.01,0.07 -0.01,0.07 -0.01,0.07 -0.01,0.07 -0.01,0.06 -0.01,0.06 -0.01,0.06 -0.01,0.05 -0.01,0.06 -0.01,0.05 -0.01,0.05 -0.01,0.05 -0.02,0.04 -0.01,0.05 -0.01,0.04 -0.02,0.04 -0.01,0.04 -0.01,0.04 -0.04,0.08 -0.03,0.07 -0.04,0.08 -0.04,0.07 -0.04,0.07 -0.05,0.07 -1.77,-0.29 0.02,-0.19 c 0.11,0.01 0.3,0.04 0.43,0.04 0.66,0 0.76,-0.7 0.82,-1.24 l 0.45,-3.7 c -0.31,-0.47 -0.98,-1.21 -1.18,-1.21 -0.19,0 -0.16,0.37 -0.67,0.37 -0.16,0 -0.47,-0.13 -0.47,-0.48 0,-0.29 0.22,-0.65 0.66,-0.65 0.8,0 1.57,1.15 2.43,2.24 0.5,0.62 2.41,3.46 2.41,4.38 0,0.46 -0.3,0.73 -0.67,0.73 -0.35,0 -0.56,-0.21 -0.56,-0.47 0,-0.45 0.61,-0.57 0.61,-0.82 0,-0.21 -0.09,-0.44 -0.33,-0.88 -0.26,-0.49 -0.67,-1.19 -1.39,-2.17 z" style="fill:#000000;stroke-width:0" /><polygon id="polygon4869" points="232.64,481.76 232.64,480.98 239.59,480.98 239.59,481.76 " style="fill:#000000;stroke-width:0" /><polygon id="polygon4871" points="232.64,479.4 232.64,478.62 239.59,478.62 239.59,479.4 " style="fill:#000000;stroke-width:0" /><path id="path4873" d="m 246.55,475.3 -0.16,0.13 -0.14,0.13 -0.14,0.13 -0.12,0.13 -0.13,0.13 -0.11,0.13 -0.11,0.13 -0.1,0.14 -0.1,0.13 -0.09,0.13 -0.09,0.14 -0.08,0.14 -0.07,0.14 -0.07,0.14 -0.06,0.14 -0.06,0.15 -0.05,0.14 -0.05,0.15 -0.04,0.16 -0.04,0.15 -0.04,0.16 -0.03,0.16 -0.03,0.17 -0.02,0.17 -0.02,0.17 -0.02,0.18 -0.01,0.18 -0.01,0.18 -0.01,0.19 -0.01,0.2 0,0.19 0,0.21 c 0,2.27 0.36,3.37 2.01,4.78 l -0.11,0.19 c -1.89,-1.12 -2.92,-2.83 -2.92,-5.01 0,-2.01 1.02,-4 2.88,-5.06 z" style="fill:#000000;stroke-width:0" /><path id="path4875" d="m 250.5,480.61 -0.23,0.65 c -0.14,0.38 -0.37,0.87 -0.89,1.15 l -1.56,-0.39 0.04,-0.21 c 0.12,0.05 0.29,0.07 0.45,0.07 0.65,0 0.95,-0.48 1.15,-1.05 l 0.39,-1.09 -0.76,-1.19 c -0.38,-0.58 -0.69,-0.69 -0.83,-0.69 -0.3,0 -0.25,0.23 -0.55,0.23 -0.3,0 -0.45,-0.25 -0.45,-0.44 0,-0.26 0.19,-0.55 0.61,-0.55 0.66,0 1,0.51 1.38,1.09 l 0.75,1.15 0.47,-1.33 c 0.15,-0.43 0.38,-0.91 0.86,-0.91 0.68,0 1.22,1.13 1.36,1.31 l -0.17,0.12 c -0.25,-0.51 -0.53,-0.67 -0.72,-0.67 -0.53,0 -0.8,1.59 -1.15,2.32 l 0.64,1 c 0.17,0.26 0.3,0.45 0.65,0.45 0.21,0 0.26,-0.1 0.52,-0.1 0.31,0 0.46,0.27 0.46,0.49 0,0.25 -0.2,0.39 -0.57,0.39 -0.59,0 -1.01,-0.52 -1.31,-0.99 z" style="fill:#000000;stroke-width:0" /><polygon id="polygon4877" points="260.06,480.58 260.06,483.66 259.28,483.66 259.28,480.58 256.2,480.58 256.2,479.8 259.28,479.8 259.28,476.72 260.06,476.72 260.06,479.8 263.14,479.8 263.14,480.58 " style="fill:#000000;stroke-width:0" /><path id="path4879" d="m 270.61,477.21 0,0.17 c -0.89,0 -1.13,0.22 -1.13,0.72 l 0,7.05 -0.1,0.04 -2.11,-1.08 0,-0.16 0.31,0.12 c 0.22,0.08 0.42,0.14 0.53,0.14 0.25,0 0.36,-0.18 0.36,-0.58 l 0,-5.3 c 0,-0.65 -0.25,-0.9 -1.12,-0.95 l 0,-0.17 z" style="fill:#000000;stroke-width:0" /><path id="path4881" d="m 272.22,485 0.16,-0.13 0.15,-0.12 0.14,-0.13 0.13,-0.13 0.12,-0.13 0.12,-0.13 0.11,-0.13 0.11,-0.13 0.09,-0.13 0.1,-0.13 0.08,-0.14 0.08,-0.14 0.07,-0.13 0.07,-0.15 0.06,-0.14 0.06,-0.14 0.05,-0.15 0.04,-0.15 0.05,-0.16 0.03,-0.15 0.04,-0.16 0.03,-0.17 0.02,-0.16 0.03,-0.17 0.01,-0.18 0.02,-0.18 0.01,-0.18 0.01,-0.18 0.01,-0.19 0,-0.2 0.01,-0.2 0,-0.2 c 0,-2.29 -0.33,-3.4 -2.01,-4.79 l 0.11,-0.18 c 1.87,1.14 2.91,2.82 2.91,5 0,2.01 -1.07,3.98 -2.88,5.07 z" style="fill:#000000;stroke-width:0" /><path id="path4883" d="m 279.41,475.3 -0.15,0.13 -0.14,0.13 -0.14,0.13 -0.13,0.13 -0.12,0.13 -0.12,0.13 -0.11,0.13 -0.1,0.14 -0.09,0.13 -0.09,0.13 -0.09,0.14 -0.08,0.14 -0.07,0.14 -0.07,0.14 -0.06,0.14 -0.06,0.15 -0.05,0.14 -0.05,0.15 -0.05,0.16 -0.03,0.15 -0.04,0.16 -0.03,0.16 -0.03,0.17 -0.02,0.17 -0.02,0.17 -0.02,0.18 -0.01,0.18 -0.02,0.18 0,0.19 -0.01,0.2 0,0.19 0,0.21 c 0,2.27 0.36,3.37 2,4.78 l -0.1,0.19 c -1.89,-1.12 -2.92,-2.83 -2.92,-5.01 0,-2.01 1.02,-4 2.88,-5.06 z" style="fill:#000000;stroke-width:0" /><path id="path4885" d="m 283.37,480.61 -0.24,0.65 c -0.14,0.38 -0.36,0.87 -0.88,1.15 l -1.56,-0.39 0.04,-0.21 c 0.11,0.05 0.29,0.07 0.44,0.07 0.65,0 0.96,-0.48 1.16,-1.05 l 0.39,-1.09 -0.77,-1.19 c -0.37,-0.58 -0.68,-0.69 -0.82,-0.69 -0.3,0 -0.25,0.23 -0.56,0.23 -0.29,0 -0.45,-0.25 -0.45,-0.44 0,-0.26 0.19,-0.55 0.62,-0.55 0.66,0 1,0.51 1.38,1.09 l 0.74,1.15 0.47,-1.33 c 0.16,-0.43 0.38,-0.91 0.87,-0.91 0.68,0 1.21,1.13 1.35,1.31 l -0.16,0.12 c -0.25,-0.51 -0.53,-0.67 -0.72,-0.67 -0.53,0 -0.8,1.59 -1.16,2.32 l 0.65,1 c 0.17,0.26 0.3,0.45 0.65,0.45 0.2,0 0.26,-0.1 0.52,-0.1 0.31,0 0.46,0.27 0.46,0.49 0,0.25 -0.2,0.39 -0.58,0.39 -0.59,0 -1,-0.52 -1.31,-0.99 z" style="fill:#000000;stroke-width:0" /><polygon id="polygon4887" points="289.26,480.58 289.26,479.8 295.83,479.8 295.83,480.58 " style="fill:#000000;stroke-width:0" /><path id="path4889" d="m 303.48,477.21 0,0.17 c -0.88,0 -1.12,0.22 -1.12,0.72 l 0,7.05 -0.1,0.04 -2.12,-1.08 0,-0.16 0.32,0.12 c 0.21,0.08 0.42,0.14 0.53,0.14 0.25,0 0.36,-0.18 0.36,-0.58 l 0,-5.3 c 0,-0.65 -0.25,-0.9 -1.12,-0.95 l 0,-0.17 z" style="fill:#000000;stroke-width:0" /><path id="path4891" d="m 305.1,485 0.16,-0.13 0.14,-0.12 0.14,-0.13 0.14,-0.13 0.12,-0.13 0.12,-0.13 0.11,-0.13 0.1,-0.13 0.1,-0.13 0.09,-0.13 0.09,-0.14 0.08,-0.14 0.07,-0.13 0.07,-0.15 0.06,-0.14 0.05,-0.14 0.06,-0.15 0.04,-0.15 0.04,-0.16 0.04,-0.15 0.04,-0.16 0.03,-0.17 0.02,-0.16 0.02,-0.17 0.02,-0.18 0.02,-0.18 0.01,-0.18 0.01,-0.18 0.01,-0.19 0,-0.2 0.01,-0.2 0,-0.2 c 0,-2.29 -0.34,-3.4 -2.01,-4.79 l 0.1,-0.18 c 1.88,1.14 2.92,2.82 2.92,5 0,2.01 -1.07,3.98 -2.88,5.07 z" style="fill:#000000;stroke-width:0" /><path id="path4893" d="m 312.92,482.4 -0.13,0.06 c -0.29,-0.5 -0.48,-0.6 -0.85,-0.6 l -2.08,0 1.47,1.56 c 0.79,0.84 1.13,1.5 1.13,2.2 0,0.88 -0.63,1.56 -1.64,1.56 -1.09,0 -1.66,-0.72 -1.84,-1.76 l 0.18,-0.04 c 0.36,0.86 0.67,1.15 1.31,1.15 0.75,0 1.23,-0.45 1.23,-1.25 0,-0.76 -0.32,-1.43 -1.15,-2.31 l -1.58,-1.67 0,-0.11 3.47,0 z" style="fill:#000000;stroke-width:0" /></g>  </g>
</svg>