<?xml version='1.0' ?><svg xmlns:ns0="http://www.iki.fi/pav/software/textext/" xmlns:dc="http://purl.org/dc/elements/1.1/" xmlns:cc="http://creativecommons.org/ns#" xmlns:rdf="http://www.w3.org/1999/02/22-rdf-syntax-ns#" xmlns:svg="http://www.w3.org/2000/svg" xmlns="http://www.w3.org/2000/svg" version="1.1" id="svg2" width="370.55019" height="342.07618" viewBox="160.89438000022133 166.72704000022932 370.5501900005097 342.0761800004706" preserveAspectRatio="none">
  <defs id="defs4" />
  <metadata id="metadata7">
    <rdf:RDF>
      <cc:Work rdf:about="">
        <dc:format>image/svg+xml</dc:format>
        <dc:type rdf:resource="http://purl.org/dc/dcmitype/StillImage" />
        <dc:title />
      </cc:Work>
    </rdf:RDF>
  </metadata>
  <g id="layer1">
    <path style="fill:none;fill-rule:evenodd;stroke:#000000;stroke-width:0.86052889px;stroke-linecap:butt;stroke-linejoin:miter;stroke-opacity:1" d="m 372.93601,255.46069 -1.31772,158.07535" id="path3346" />
    <path style="fill:none;fill-rule:evenodd;stroke:#0000cb;stroke-width:0.86052889px;stroke-linecap:butt;stroke-linejoin:miter;stroke-opacity:1" d="M 262.73852,363.73797 531.4308,355.13268" id="path3348" />
    <path style="fill:none;fill-rule:evenodd;stroke:#000000;stroke-width:0.86052889px;stroke-linecap:butt;stroke-linejoin:miter;stroke-opacity:1" d="m 395.23256,359.43938 -89.99792,76.82888" id="path3352" />
    <g style="font-style:normal;font-variant:normal;font-weight:normal;font-stretch:normal;letter-spacing:normal;word-spacing:normal;text-anchor:start;fill:none;fill-opacity:1;fill-rule:evenodd;stroke:#000000;stroke-linecap:butt;stroke-linejoin:miter;stroke-miterlimit:10.43299961;stroke-dasharray:none;stroke-dashoffset:0;stroke-opacity:1" id="content" transform="matrix(1.945606,0,0,-1.945606,-120.56085,1427.6018)" xml:space="preserve" stroke-miterlimit="10.433" font-style="normal" font-variant="normal" font-weight="normal" font-stretch="normal" font-size-adjust="none" letter-spacing="normal" word-spacing="normal" ns0:text="$x$" ns0:preamble="/Users/jonnygriffiths/CMEP/underground-inkscape-preamble.tex"><path style="fill:#000000;stroke-width:0" d="m 227.03,480.64 -0.23,0.64 c -0.15,0.39 -0.37,0.88 -0.89,1.16 l -1.56,-0.39 0.04,-0.21 c 0.12,0.05 0.29,0.07 0.45,0.07 0.65,0 0.95,-0.48 1.15,-1.05 l 0.39,-1.09 -0.76,-1.19 c -0.38,-0.58 -0.69,-0.7 -0.83,-0.7 -0.3,0 -0.25,0.24 -0.55,0.24 -0.3,0 -0.45,-0.25 -0.45,-0.44 0,-0.26 0.19,-0.55 0.61,-0.55 0.66,0 1,0.51 1.38,1.08 l 0.74,1.16 0.48,-1.33 c 0.15,-0.43 0.38,-0.91 0.86,-0.91 0.68,0 1.21,1.13 1.36,1.31 l -0.17,0.12 c -0.25,-0.51 -0.53,-0.68 -0.72,-0.68 -0.53,0 -0.8,1.6 -1.15,2.33 l 0.64,1 c 0.17,0.26 0.3,0.45 0.65,0.45 0.2,0 0.26,-0.1 0.52,-0.1 0.31,0 0.46,0.27 0.46,0.49 0,0.25 -0.2,0.39 -0.57,0.39 -0.6,0 -1.01,-0.52 -1.32,-0.99 z" id="path3378" /></g>    <g ns0:preamble="/Users/jonnygriffiths/CMEP/underground-inkscape-preamble.tex" ns0:text="$y$" word-spacing="normal" letter-spacing="normal" font-size-adjust="none" font-stretch="normal" font-weight="normal" font-variant="normal" font-style="normal" stroke-miterlimit="10.433" xml:space="preserve" transform="matrix(2.2369312,0,0,-2.2369312,-38.850675,1338.6532)" id="g3412" style="font-style:normal;font-variant:normal;font-weight:normal;font-stretch:normal;letter-spacing:normal;word-spacing:normal;text-anchor:start;fill:none;fill-opacity:1;fill-rule:evenodd;stroke:#000000;stroke-linecap:butt;stroke-linejoin:miter;stroke-miterlimit:10.43299961;stroke-dasharray:none;stroke-dashoffset:0;stroke-opacity:1"><path id="path3414" d="m 226.62,480.86 -0.01,0.08 -0.01,0.08 -0.01,0.07 -0.01,0.07 -0.01,0.07 -0.01,0.07 -0.01,0.06 -0.01,0.06 -0.01,0.06 -0.01,0.05 -0.01,0.06 -0.01,0.05 -0.01,0.05 -0.01,0.04 -0.02,0.05 -0.01,0.05 -0.01,0.04 -0.02,0.04 -0.01,0.04 -0.01,0.04 -0.04,0.08 -0.03,0.07 -0.04,0.08 -0.04,0.07 -0.04,0.07 -0.05,0.07 -1.77,-0.3 0.02,-0.18 c 0.11,0.01 0.3,0.04 0.43,0.04 0.66,0 0.76,-0.71 0.82,-1.24 l 0.45,-3.7 c -0.31,-0.48 -0.98,-1.21 -1.18,-1.21 -0.19,0 -0.16,0.37 -0.67,0.37 -0.16,0 -0.47,-0.13 -0.47,-0.49 0,-0.28 0.22,-0.64 0.66,-0.64 0.8,0 1.57,1.15 2.43,2.24 0.5,0.62 2.41,3.46 2.41,4.38 0,0.46 -0.3,0.73 -0.67,0.73 -0.35,0 -0.56,-0.21 -0.56,-0.47 0,-0.45 0.61,-0.57 0.61,-0.82 0,-0.21 -0.09,-0.45 -0.33,-0.88 -0.26,-0.49 -0.67,-1.19 -1.39,-2.18 z" style="fill:#000000;stroke-width:0" /></g>    <g style="font-style:normal;font-variant:normal;font-weight:normal;font-stretch:normal;letter-spacing:normal;word-spacing:normal;text-anchor:start;fill:none;fill-opacity:1;fill-rule:evenodd;stroke:#000000;stroke-linecap:butt;stroke-linejoin:miter;stroke-miterlimit:10.43299961;stroke-dasharray:none;stroke-dashoffset:0;stroke-opacity:1" id="g3452" transform="matrix(2.5029135,0,0,-2.5029135,-323.84646,1385.6051)" xml:space="preserve" stroke-miterlimit="10.433" font-style="normal" font-variant="normal" font-weight="normal" font-stretch="normal" font-size-adjust="none" letter-spacing="normal" word-spacing="normal" ns0:text="$z$" ns0:preamble="/Users/jonnygriffiths/CMEP/underground-inkscape-preamble.tex"><path style="fill:#000000;stroke-width:0" d="m 228.95,482.55 -3.71,0 -0.43,-1.62 0.22,-0.05 c 0.27,0.65 0.55,0.72 1.22,0.72 l 1.55,0 c -1.26,-1.47 -2.59,-2.91 -3.87,-4.37 l 0.13,-0.11 c 0.43,0.19 0.97,0.28 1.44,0.28 0.39,0 0.79,-0.06 1.17,-0.17 0.24,-0.05 0.54,-0.16 0.8,-0.16 0.54,0 1.25,0.31 1.25,0.94 0,0.29 -0.18,0.5 -0.47,0.5 -0.23,0 -0.45,-0.22 -0.45,-0.45 0,-0.26 0.14,-0.29 0.14,-0.45 0,-0.19 -0.14,-0.28 -0.32,-0.28 -0.53,0 -0.56,1.02 -1.65,1.02 -0.27,0 -0.57,-0.09 -0.79,-0.25 l -0.04,0.01 c 1.27,1.41 2.53,2.83 3.81,4.25 z" id="path3454" /></g>    <g ns0:preamble="/Users/jonnygriffiths/CMEP/underground-inkscape-preamble.tex" ns0:text="$l$" word-spacing="normal" letter-spacing="normal" font-size-adjust="none" font-stretch="normal" font-weight="normal" font-variant="normal" font-style="normal" stroke-miterlimit="10.433" xml:space="preserve" transform="matrix(2.3773736,0,0,-2.3773736,-206.07041,1600.5681)" id="g3496" style="font-style:normal;font-variant:normal;font-weight:normal;font-stretch:normal;letter-spacing:normal;word-spacing:normal;text-anchor:start;fill:none;fill-opacity:1;fill-rule:evenodd;stroke:#000000;stroke-linecap:butt;stroke-linejoin:miter;stroke-miterlimit:10.43299961;stroke-dasharray:none;stroke-dashoffset:0;stroke-opacity:1"><path id="path3498" d="m 226.71,485.12 -1.85,-0.27 0.04,-0.18 c 0.09,0.01 0.23,0.04 0.31,0.04 0.28,0 0.37,-0.12 0.37,-0.26 0,-0.04 0,-0.13 -0.04,-0.28 l -1.51,-6.03 c -0.03,-0.11 -0.07,-0.28 -0.07,-0.42 0,-0.3 0.11,-0.6 0.46,-0.6 0.69,0 1.2,0.78 1.6,1.25 l -0.19,0.14 c -0.11,-0.19 -0.46,-0.65 -0.73,-0.65 -0.1,0 -0.14,0.07 -0.14,0.15 0,0.09 0.01,0.13 0.01,0.13 z" style="fill:#000000;stroke-width:0" /></g>    <g style="font-style:normal;font-variant:normal;font-weight:normal;font-stretch:normal;letter-spacing:normal;word-spacing:normal;text-anchor:start;fill:none;fill-opacity:1;fill-rule:evenodd;stroke:#000000;stroke-linecap:butt;stroke-linejoin:miter;stroke-miterlimit:10.43299961;stroke-dasharray:none;stroke-dashoffset:0;stroke-opacity:1" id="g3544" transform="matrix(2.1974572,0,0,-2.1974572,-10.892939,1424.7999)" xml:space="preserve" stroke-miterlimit="10.433" font-style="normal" font-variant="normal" font-weight="normal" font-stretch="normal" font-size-adjust="none" letter-spacing="normal" word-spacing="normal" ns0:text="$m$" ns0:preamble="/Users/jonnygriffiths/CMEP/underground-inkscape-preamble.tex"><path style="fill:#000000;stroke-width:0" d="m 231.31,478.5 -0.02,-0.04 -0.03,-0.04 -0.02,-0.04 -0.02,-0.03 -0.02,-0.04 -0.03,-0.03 -0.02,-0.03 -0.02,-0.03 -0.03,-0.03 -0.02,-0.03 -0.03,-0.03 -0.02,-0.02 -0.03,-0.03 -0.02,-0.02 -0.02,-0.02 -0.03,-0.02 -0.02,-0.02 -0.03,-0.01 -0.02,-0.02 -0.02,-0.02 -0.03,-0.01 -0.02,-0.01 -0.03,-0.01 -0.02,-0.01 -0.02,-0.01 -0.02,-0.01 -0.02,0 -0.03,-0.01 -0.02,0 -0.02,-0.01 -0.02,0 -0.02,0 c -0.1,0 -0.17,0.05 -0.17,0.14 0,0.04 0.01,0.11 0.02,0.15 l 0.72,2.72 c 0.07,0.29 0.08,0.51 0.08,0.72 0,0.53 -0.21,0.84 -0.63,0.84 -0.24,0 -0.46,-0.08 -0.72,-0.26 -0.58,-0.39 -1.2,-1.12 -1.54,-1.73 l -0.06,0 0.12,0.42 c 0.07,0.24 0.11,0.41 0.11,0.61 0,0.53 -0.22,0.96 -0.65,0.96 -0.45,0 -1.16,-0.31 -2.27,-1.99 l -0.07,0 0.52,1.99 -1.85,-0.28 0.02,-0.17 c 0.09,0.02 0.22,0.03 0.32,0.03 0.32,0 0.39,-0.16 0.39,-0.37 l -1.12,-4.42 0.92,0 0.41,1.6 c 0.19,0.72 1.49,2.86 2.1,2.86 0.21,0 0.27,-0.22 0.27,-0.45 0,-0.18 -0.03,-0.37 -0.06,-0.47 l -0.91,-3.54 0.94,0 0.4,1.6 c 0.18,0.72 1.48,2.86 2.11,2.86 0.21,0 0.29,-0.22 0.29,-0.45 0,-0.2 -0.03,-0.31 -0.08,-0.47 l -0.66,-2.61 c -0.06,-0.24 -0.07,-0.36 -0.07,-0.44 0,-0.46 0.2,-0.58 0.46,-0.58 0.56,0 1.17,0.59 1.55,1.23 z" id="path3546" /></g>    <g ns0:preamble="/Users/jonnygriffiths/CMEP/underground-inkscape-preamble.tex" ns0:text="$L$" word-spacing="normal" letter-spacing="normal" font-size-adjust="none" font-stretch="normal" font-weight="normal" font-variant="normal" font-style="normal" stroke-miterlimit="10.433" xml:space="preserve" transform="matrix(1.754203,0,0,-1.754203,-107.42719,1282.916)" id="g3596" style="font-style:normal;font-variant:normal;font-weight:normal;font-stretch:normal;letter-spacing:normal;word-spacing:normal;text-anchor:start;fill:none;fill-opacity:1;fill-rule:evenodd;stroke:#000000;stroke-linecap:butt;stroke-linejoin:miter;stroke-miterlimit:10.43299961;stroke-dasharray:none;stroke-dashoffset:0;stroke-opacity:1"><path id="path3598" d="m 231.32,479.48 -0.19,0 c -0.06,-0.17 -0.12,-0.31 -0.2,-0.44 -0.54,-1.1 -1.15,-1.36 -2.35,-1.36 l -1.44,0 c -0.14,0 -0.47,0.03 -0.47,0.29 0,0.02 0.01,0.19 0.06,0.36 l 1.44,5.68 c 0.1,0.44 0.35,0.75 1.24,0.75 l 0.21,0 0.05,0.18 -3.87,0 -0.04,-0.18 0.21,0 c 0.73,0 0.9,-0.22 0.9,-0.44 0,-0.11 -0.04,-0.34 -0.08,-0.53 l -1.4,-5.63 c -0.09,-0.41 -0.38,-0.74 -1.26,-0.74 l -0.2,0 -0.05,-0.19 6.72,0 z" style="fill:#000000;stroke-width:0" /></g>    <g style="font-style:normal;font-variant:normal;font-weight:normal;font-stretch:normal;letter-spacing:normal;word-spacing:normal;text-anchor:start;fill:none;fill-opacity:1;fill-rule:evenodd;stroke:#000000;stroke-linecap:butt;stroke-linejoin:miter;stroke-miterlimit:10.43299961;stroke-dasharray:none;stroke-dashoffset:0;stroke-opacity:1" id="g3652" transform="matrix(1.6695646,0,0,-1.6695646,23.922746,1150.0074)" xml:space="preserve" stroke-miterlimit="10.433" font-style="normal" font-variant="normal" font-weight="normal" font-stretch="normal" font-size-adjust="none" letter-spacing="normal" word-spacing="normal" ns0:text="$M$" ns0:preamble="/Users/jonnygriffiths/CMEP/underground-inkscape-preamble.tex"><path style="fill:#000000;stroke-width:0" d="m 235.89,484.94 -2.54,0 -3.93,-5.82 -0.05,0 -1.05,5.82 -2.52,0 -0.04,-0.18 0.22,0 c 0.73,0 0.91,-0.18 0.91,-0.42 0,-0.1 -0.01,-0.25 -0.06,-0.45 l -1.4,-5.6 c -0.12,-0.48 -0.34,-0.87 -1.28,-0.87 l -0.22,0 -0.05,-0.19 3.15,0 0.05,0.19 -0.24,0 c -0.69,0 -0.89,0.15 -0.89,0.39 0,0.14 0.02,0.32 0.06,0.48 l 1.28,5.05 0.04,0 1.11,-6.11 0.29,0 4.08,6.11 0.07,0 -1.33,-5.18 c -0.09,-0.38 -0.3,-0.74 -1.23,-0.74 l -0.21,0 -0.04,-0.19 3.89,0 0.05,0.19 -0.22,0 c -0.69,0 -0.91,0.18 -0.91,0.41 0,0.1 0,0.24 0.02,0.33 l 1.5,5.88 c 0.11,0.42 0.3,0.72 1.24,0.72 l 0.2,0 z" id="path3654" /></g>    <g ns0:preamble="/Users/jonnygriffiths/CMEP/underground-inkscape-preamble.tex" ns0:text="$A$" word-spacing="normal" letter-spacing="normal" font-size-adjust="none" font-stretch="normal" font-weight="normal" font-variant="normal" font-style="normal" stroke-miterlimit="10.433" xml:space="preserve" transform="matrix(1.7386362,0,0,-1.7386362,-23.411292,1080.4022)" id="g3712" style="font-style:normal;font-variant:normal;font-weight:normal;font-stretch:normal;letter-spacing:normal;word-spacing:normal;text-anchor:start;fill:none;fill-opacity:1;fill-rule:evenodd;stroke:#000000;stroke-linecap:butt;stroke-linejoin:miter;stroke-miterlimit:10.43299961;stroke-dasharray:none;stroke-dashoffset:0;stroke-opacity:1"><path id="path3714" d="m 231.52,477.23 0,0.19 -0.19,0 c -0.5,0 -0.79,0.25 -0.87,0.83 l -0.92,6.86 -0.22,0 -4.2,-6.81 c -0.42,-0.69 -0.86,-0.83 -1.27,-0.88 l 0,-0.19 2.57,0 0,0.19 -0.34,0 c -0.31,0 -0.5,0.13 -0.51,0.35 0,0.08 0.03,0.21 0.12,0.3 l 0.99,1.66 2.34,0 -0.09,0.43 -2,0 1.64,2.68 0.07,0 0.29,-2.68 0.09,-0.43 0.15,-1.34 c 0.01,-0.08 0.02,-0.18 0.02,-0.25 0,-0.47 -0.19,-0.72 -0.85,-0.72 l -0.19,0 0,-0.19 z" style="fill:#000000;stroke-width:0" /></g>    <g style="font-style:normal;font-variant:normal;font-weight:normal;font-stretch:normal;letter-spacing:normal;word-spacing:normal;text-anchor:start;fill:none;fill-opacity:1;fill-rule:evenodd;stroke:#000000;stroke-linecap:butt;stroke-linejoin:miter;stroke-miterlimit:10.43299961;stroke-dasharray:none;stroke-dashoffset:0;stroke-opacity:1" id="g3776" transform="matrix(1.6551258,0,0,-1.6551258,-125.99011,1150.94)" xml:space="preserve" stroke-miterlimit="10.433" font-style="normal" font-variant="normal" font-weight="normal" font-stretch="normal" font-size-adjust="none" letter-spacing="normal" word-spacing="normal" ns0:text="$O$" ns0:preamble="/Users/jonnygriffiths/CMEP/underground-inkscape-preamble.tex"><path style="fill:#000000;stroke-width:0" d="m 231.84,482.19 0,0.14 -0.01,0.14 -0.02,0.14 -0.02,0.14 -0.02,0.13 -0.03,0.14 -0.04,0.13 -0.04,0.13 -0.05,0.13 -0.06,0.12 -0.06,0.13 -0.06,0.12 -0.07,0.11 -0.08,0.12 -0.08,0.11 -0.09,0.1 -0.1,0.1 -0.1,0.1 -0.1,0.09 -0.12,0.09 -0.11,0.08 -0.13,0.07 -0.13,0.07 -0.13,0.06 -0.14,0.06 -0.15,0.05 -0.15,0.04 -0.16,0.04 -0.16,0.03 -0.17,0.02 -0.18,0.01 -0.18,0 -0.1,-0.43 c 1.2,0 1.67,-0.97 1.67,-2.24 l 0,0 c 0,-1.66 -0.86,-4.91 -3.37,-4.91 -0.92,0 -1.65,0.63 -1.65,1.78 0,1.67 0.62,5.37 3.35,5.37 l 0.1,0.43 c -3.01,0 -4.88,-2.88 -4.88,-5.27 0,-1.62 1.23,-2.75 2.99,-2.75 2.99,0 4.83,2.75 4.83,5.08 z" id="path3778" /></g>    <g ns0:preamble="/Users/jonnygriffiths/CMEP/underground-inkscape-preamble.tex" ns0:text="$N$" word-spacing="normal" letter-spacing="normal" font-size-adjust="none" font-stretch="normal" font-weight="normal" font-variant="normal" font-style="normal" stroke-miterlimit="10.433" xml:space="preserve" transform="matrix(1.9198132,0,0,-1.9198132,-58.077195,1345.188)" id="g3844" style="font-style:normal;font-variant:normal;font-weight:normal;font-stretch:normal;letter-spacing:normal;word-spacing:normal;text-anchor:start;fill:none;fill-opacity:1;fill-rule:evenodd;stroke:#000000;stroke-linecap:butt;stroke-linejoin:miter;stroke-miterlimit:10.43299961;stroke-dasharray:none;stroke-dashoffset:0;stroke-opacity:1"><path id="path3846" d="m 234.07,484.94 -3.14,0 -0.05,-0.18 0.24,0 c 0.69,0 0.89,-0.21 0.89,-0.44 0,-0.12 -0.02,-0.2 -0.04,-0.31 l -1.15,-4.56 -0.06,0 -2.78,5.49 -2.36,0 -0.05,-0.18 0.22,0 c 0.36,0 0.86,-0.09 1.09,-0.59 l -1.49,-6.01 c -0.09,-0.41 -0.36,-0.74 -1.25,-0.74 l -0.21,0 -0.05,-0.19 3.14,0 0.05,0.19 -0.23,0 c -0.69,0 -0.89,0.18 -0.89,0.42 0,0.13 0.01,0.22 0.03,0.32 l 1.28,5.29 0.07,0 3.23,-6.22 0.29,0 1.7,6.78 c 0.1,0.44 0.37,0.75 1.26,0.75 l 0.21,0 z" style="fill:#000000;stroke-width:0" /></g>    <g style="font-style:normal;font-variant:normal;font-weight:normal;font-stretch:normal;letter-spacing:normal;word-spacing:normal;text-anchor:start;fill:none;fill-opacity:1;fill-rule:evenodd;stroke:#000000;stroke-linecap:butt;stroke-linejoin:miter;stroke-miterlimit:10.43299961;stroke-dasharray:none;stroke-dashoffset:0;stroke-opacity:1" id="g3916" transform="matrix(1.5738109,0,0,-1.5738109,-15.225445,1146.3064)" xml:space="preserve" stroke-miterlimit="10.433" font-style="normal" font-variant="normal" font-weight="normal" font-stretch="normal" font-size-adjust="none" letter-spacing="normal" word-spacing="normal" ns0:text="$X$" ns0:preamble="/Users/jonnygriffiths/CMEP/underground-inkscape-preamble.tex"><path style="fill:#000000;stroke-width:0" d="m 232.99,484.94 -2.62,0 -0.04,-0.18 0.1,0 c 0.38,0 0.52,-0.1 0.53,-0.29 0,-0.13 -0.07,-0.27 -0.17,-0.4 l -1.94,-2.17 -0.71,2.11 c -0.04,0.13 -0.07,0.24 -0.07,0.33 0,0.37 0.26,0.42 0.62,0.42 l 0.22,0 0.05,0.18 -3.34,0 -0.05,-0.18 0.11,0 c 0.87,0 1.07,-0.62 1.2,-0.98 l 1,-2.73 -2.45,-2.72 c -0.44,-0.47 -1.02,-0.82 -1.66,-0.91 l -0.04,-0.19 2.94,0 0.04,0.19 -0.26,0 c -0.44,0 -0.66,0.16 -0.66,0.38 0,0.11 0.04,0.21 0.14,0.33 l 2.14,2.38 0.82,-2.3 c 0.03,-0.11 0.04,-0.21 0.04,-0.3 0,-0.44 -0.34,-0.49 -0.79,-0.49 l -0.13,0 -0.04,-0.19 3.31,0 0.05,0.19 -0.17,0 c -0.59,0 -0.79,0.41 -0.93,0.81 l -1.13,3.14 2.21,2.51 c 0.43,0.5 0.78,0.88 1.59,0.88 l 0.05,0 z" id="path3918" /></g>    <path id="path3365" d="M 395.09844,359.55825 373.15495,255.00399" style="fill:none;fill-rule:evenodd;stroke:#000000;stroke-width:0.86052889px;stroke-linecap:butt;stroke-linejoin:miter;stroke-opacity:1" />
    <path id="path3367" d="M 262.88635,363.8609 373.14327,255.08071" style="fill:none;fill-rule:evenodd;stroke:#000000;stroke-width:0.86052889px;stroke-linecap:butt;stroke-linejoin:miter;stroke-opacity:1" />
    <path id="path3369" d="m 263.43752,363.8609 107.99637,49.48041" style="fill:none;fill-rule:evenodd;stroke:#000000;stroke-width:0.86052889px;stroke-linecap:butt;stroke-linejoin:miter;stroke-opacity:1" />
    <path id="path3371" d="M 372.72469,255.43426 305.17317,436.14532" style="fill:none;fill-rule:evenodd;stroke:#000000;stroke-width:0.86052889px;stroke-linecap:butt;stroke-linejoin:miter;stroke-opacity:1" />
    <g id="g4181">
      <path id="path3342" d="m 260.97887,169.5043 3.68797,339.29425" style="fill:none;fill-rule:evenodd;stroke:#000000;stroke-width:0.86052889px;stroke-linecap:butt;stroke-linejoin:miter;stroke-opacity:1" />
      <path style="fill:#000000;fill-rule:evenodd;stroke:#000000;stroke-width:1px;stroke-linecap:butt;stroke-linejoin:miter;stroke-opacity:1;fill-opacity:1" d="m 260.9224,168.56711 -4.24264,15.02602 8.48529,0 z" id="path4167" />
    </g>
    <g transform="translate(-0.35355339,-1.1048543)" id="g4177">
      <path id="path3336" d="M 161.40338,404.30575 494.55099,275.22642" style="fill:none;fill-rule:evenodd;stroke:#000000;stroke-width:0.86052889px;stroke-linecap:butt;stroke-linejoin:miter;stroke-opacity:1" />
      <path id="path4169" d="m 496.0849,274.86287 -15.57869,1.0419 2.84547,7.99395 z" style="fill:#000000;fill-opacity:1;fill-rule:evenodd;stroke:#000000;stroke-width:1px;stroke-linecap:butt;stroke-linejoin:miter;stroke-opacity:1" />
    </g>
    <g style="stroke:#0000cb;stroke-opacity:1" id="g4173">
      <path id="path3360" d="m 263.21655,363.99502 77.66857,133.73959" style="fill:none;fill-rule:evenodd;stroke:#0000cb;stroke-width:0.86052889px;stroke-linecap:butt;stroke-linejoin:miter;stroke-opacity:1" />
      <path id="path4171" d="m 343.22788,502.33855 -3.94509,-15.10687 -7.31847,4.29421 z" style="fill:#000000;fill-opacity:1;fill-rule:evenodd;stroke:none;stroke-width:1px;stroke-linecap:butt;stroke-linejoin:miter;stroke-opacity:1" />
    </g>
    <path id="path4185" d="m 393.50492,353.29876 -7.60139,0.0884 1.32582,5.83362" style="fill:none;fill-rule:evenodd;stroke:#000000;stroke-width:1px;stroke-linecap:butt;stroke-linejoin:miter;stroke-opacity:1" />
    <path id="path4187" d="m 307.625,429.3622 -3.875,-7 -2.25,6.875" style="fill:none;fill-rule:evenodd;stroke:#000000;stroke-width:1px;stroke-linecap:butt;stroke-linejoin:miter;stroke-opacity:1" />
    <path id="path4189" d="m 371.375,407.7372 -5.75,-2.5 -0.125,5.375" style="fill:none;fill-rule:evenodd;stroke:#000000;stroke-width:1px;stroke-linecap:butt;stroke-linejoin:miter;stroke-opacity:1" />
  </g>
</svg>